<?xml version="1.0" encoding="utf-8"?>
<!-- Generator: Adobe Illustrator 27.0.0, SVG Export Plug-In . SVG Version: 6.00 Build 0)  -->
<svg version="1.1" id="Layer_1" xmlns="http://www.w3.org/2000/svg" xmlns:xlink="http://www.w3.org/1999/xlink" x="0px" y="0px"
	 viewBox="0 0 200 200" style="enable-background:new 0 0 200 200;" xml:space="preserve">
<style type="text/css">
	.st0{fill:#BEE8FF;}
	.st1{fill:#1A1A1A;}
	.st2{fill:#FFFFFF;}
	.st3{fill:#1C1C1B;}
	.st4{fill:#2B2A2A;}
	.st5{fill:none;stroke:#000000;stroke-width:0.5;stroke-linecap:round;}
	.st6{fill:none;stroke:#000000;stroke-width:1.21;stroke-linecap:round;}
	.st7{fill:none;stroke:#000000;stroke-width:0.6624;stroke-linecap:round;}
	.st8{fill:none;stroke:#000000;stroke-width:1.3541;stroke-miterlimit:10;}
	.st9{fill:#BEE7FA;}
	.st10{fill:none;stroke:#000000;stroke-width:1.3541;}
	.st11{fill:#DEDEDD;}
	.st12{fill:none;stroke:#000000;stroke-width:1.9344;stroke-linecap:round;}
	.st13{fill:#BFE7FA;stroke:#000000;stroke-width:1.9344;}
</style>
<g>
	<path class="st8" d="M109.78,83.16c-2.88,0-5.77,0-8.65,0c-0.48,0-0.93-0.07-1.34-0.35c-0.71-0.49-0.95-1.17-0.82-1.99
		c0.12-0.74,0.72-1.34,1.49-1.49c0.28-0.06,0.58-0.07,0.87-0.07c2.8-0.01,5.61,0,8.41,0c1,0,0.87,0.01,0.89-0.86
		c0.02-0.94,0.72-1.76,1.59-1.89c0.98-0.15,1.84,0.35,2.17,1.25c0.1,0.28,0.12,0.58,0.09,0.86c-0.05,0.49,0.13,0.64,0.62,0.64
		c2.93-0.02,5.86-0.01,8.8-0.01c0.54,0,1.07,0.06,1.52,0.41c0.66,0.51,0.92,1.3,0.7,2.07c-0.22,0.78-0.92,1.37-1.79,1.39
		c-0.5,0.01-0.73,0.23-0.96,0.63c-2.31,4.09-5.04,7.88-8.18,11.38c-0.61,0.68-0.68,0.5,0.06,1.22c2.19,2.1,4.5,4.06,6.92,5.88
		c0.91,0.69,1.1,1.84,0.46,2.71c-0.65,0.88-1.84,1.07-2.76,0.38c-1.96-1.44-3.83-2.99-5.63-4.63c-0.65-0.59-1.29-1.18-1.9-1.81
		c-0.29-0.3-0.45-0.32-0.77-0.01c-2.41,2.33-4.98,4.49-7.69,6.47c-0.76,0.55-1.68,0.52-2.39-0.05c-0.63-0.5-0.86-1.42-0.56-2.21
		c0.15-0.39,0.44-0.67,0.77-0.92c2.49-1.84,4.87-3.82,7.1-5.97c0.59-0.57,0.48-0.44,0.05-0.93c-2.3-2.6-4.42-5.34-6.3-8.26
		c-0.83-1.29-0.25-2.77,1.19-3.08c0.77-0.17,1.52,0.18,2.02,0.94c1.23,1.87,2.52,3.69,3.94,5.42c0.64,0.78,1.3,1.53,1.94,2.3
		c0.23,0.27,0.38,0.31,0.64,0.02c2.47-2.8,4.72-5.77,6.67-8.95c0.08-0.13,0.25-0.26,0.15-0.43c-0.09-0.16-0.3-0.09-0.45-0.09
		C115.68,83.16,112.73,83.16,109.78,83.16z"/>
	<path class="st9" d="M96.31,79.81c0.23,0.95-0.16,1.68-1.16,2.07c-2.31,0.9-4.38,2.2-6.22,3.87c-2.68,2.43-4.58,5.38-5.7,8.83
		c-0.12,0.38-0.06,0.55,0.36,0.57c0.35,0.01,0.7,0.03,1.05,0.1c0.81,0.16,1.13,0.83,0.7,1.54c-0.65,1.04-1.35,2.05-2.02,3.07
		c-0.49,0.75-0.97,1.51-1.47,2.25c-0.63,0.92-1.48,0.87-1.99-0.13c-0.9-1.77-1.79-3.55-2.67-5.33c-0.09-0.19-0.18-0.39-0.23-0.6
		c-0.17-0.71,0.19-1.2,0.92-1.22c0.43-0.01,0.86,0.02,1.28,0.06c0.33,0.02,0.49-0.11,0.57-0.43c0.63-2.42,1.68-4.65,3.06-6.72
		c2.77-4.16,6.48-7.17,11.13-9.02C95.07,78.25,96.04,78.72,96.31,79.81z"/>
	<path class="st9" d="M102.27,126.14c0-0.97,0.56-1.58,1.63-1.72c2.5-0.32,4.86-1.11,7.07-2.31c3.15-1.71,5.66-4.1,7.56-7.14
		c0.22-0.35,0.16-0.52-0.23-0.63c-0.3-0.08-0.6-0.18-0.88-0.3c-0.85-0.36-1.02-1.12-0.35-1.76c1.17-1.12,2.37-2.19,3.56-3.29
		c0.36-0.33,0.71-0.67,1.07-0.99c0.82-0.72,1.63-0.47,1.88,0.57c0.46,1.97,0.89,3.95,1.33,5.93c0.09,0.4,0.16,0.82-0.11,1.19
		c-0.33,0.45-0.77,0.45-1.26,0.3c-1.35-0.42-1.36-0.42-2.12,0.78c-3.39,5.34-8.15,8.82-14.24,10.49c-0.94,0.26-1.9,0.45-2.87,0.55
		C103.08,127.93,102.26,127.27,102.27,126.14z"/>
	<g>
		<path class="st10" d="M77.28,107.01c4.43,0,6.75,2.6,6.75,7.68v3.95c0,5.09-2.3,7.71-6.75,7.71h-5.76c-0.5,0-0.76-0.28-0.76-0.86
			v-17.63c0-0.58,0.26-0.86,0.76-0.86H77.28z M80.2,114.72c0-2.65-0.92-3.81-2.91-3.81h-2.7v11.5h2.7c1.99,0,2.91-1.16,2.91-3.81
			V114.72z"/>
		<path class="st10" d="M97.32,122.49c0.5,0,0.73,0.3,0.73,0.88v2.13c0,0.58-0.24,0.86-0.73,0.86H87.4c-0.5,0-0.76-0.28-0.76-0.86
			v-17.63c0-0.58,0.26-0.86,0.76-0.86h9.62c0.5,0,0.76,0.28,0.76,0.86v2.1c0,0.58-0.26,0.86-0.76,0.86h-6.59v3.84h5.8
			c0.5,0,0.73,0.28,0.73,0.86v1.93c0,0.58-0.24,0.88-0.73,0.88h-5.8v4.15H97.32z"/>
	</g>
	<path class="st11" d="M56.37,73.39l-0.03-12.8c41.05-4.85,45.39-19.89,45.39-19.89c0.03-0.61,9.38,21.75,42.77,24.48l-0.55,12.16
		c-19.54,0.94-43.1-17.18-43.1-17.18S74.59,74.82,56.37,73.39z"/>
	<path class="st12" d="M55.9,56.9c-1.23,27.25,0.73,46.76,1.86,53.1c1.07,7.77,6.89,22.86,19.97,30.16
		c14.75,7.98,18.29,13.22,18.22,14.84"/>
	<path class="st12" d="M143.51,73.63c-0.46,24.1-3.73,41.05-5.3,46.51c-1.6,6.72-8.56,19.35-22.52,24.34
		c-15.73,5.4-19.71,9.08-19.74,10.52"/>
	<path class="st13" d="M55.93,69.7L55.9,56.9c41.05-4.85,45.39-19.89,45.39-19.89c0.03-0.61,9.38,21.75,42.77,24.48l-0.55,12.16
		c-19.54,0.94-43.1-17.18-43.1-17.18S74.14,71.13,55.93,69.7z"/>
</g>
</svg>
