<svg width="90" height="90" viewBox="0 0 90 90" fill="none" xmlns="http://www.w3.org/2000/svg">
<g clip-path="url(#clip0_814_11683)">
<path d="M62.6642 17.7023C62.6642 17.7023 62.6642 17.0666 62.3463 15.9541C62.0284 14.8416 61.5517 13.2523 60.4392 11.5041C59.3267 9.75587 57.7374 7.84873 55.5124 6.41837C53.2874 4.82909 50.4266 3.71658 47.2481 3.55765C44.0695 3.39872 41.2088 4.19337 38.8248 5.62373C36.4409 6.89516 34.5338 8.64337 33.4213 10.2327C32.1498 11.8219 31.3552 13.4112 31.0373 14.3648C30.7195 15.4773 30.5605 16.113 30.5605 16.113C30.7195 16.113 31.0373 13.5702 33.5802 10.3916C34.8516 8.80231 36.5998 7.21301 38.9838 5.94158C41.3677 4.67015 44.2284 3.87551 47.2481 4.03444C50.2677 4.19337 53.1284 5.30587 55.1945 6.73623C57.4195 8.16659 59.0088 10.0737 60.1213 11.663C62.3463 15.0005 62.5052 17.7023 62.6642 17.7023Z" fill="black" stroke="black" stroke-width="0.75"/>
<path d="M4.9729 31.8472V81.274C4.9729 83.499 7.1979 85.8829 9.74076 85.8829H80.4641C84.1194 85.8829 86.0266 82.2276 86.0266 80.0026L85.7087 31.2114C85.7087 28.9864 83.4837 26.2846 80.9408 26.2846L10.6943 26.1257C7.83362 25.9668 4.9729 28.5096 4.9729 31.8472Z" fill="white" stroke="black" stroke-width="0.75" stroke-miterlimit="10"/>
<path d="M1 21.3574V54.7324C1 57.2753 3.38393 59.8182 6.24465 59.8182H83.9608C87.934 59.8182 90.0001 55.8449 90.0001 53.3021L89.6823 20.4038C89.6823 17.861 87.2983 15.0002 84.4376 15.0002L7.35715 14.8413C4.17858 15.0002 1 17.702 1 21.3574Z" fill="white" stroke="black" stroke-width="0.75" stroke-miterlimit="10"/>
<path d="M41.0503 67.7655H50.2682C50.9039 67.7655 51.6985 67.2887 51.6985 66.8119V53.3029C51.6985 52.6672 50.586 52.1904 49.9503 52.1904H40.8914C40.2557 52.1904 39.461 52.6672 39.461 53.144V66.653C39.1432 67.1297 39.9378 67.7655 41.0503 67.7655Z" fill="#BEE8FF" stroke="black" stroke-width="0.75"/>
<path d="M45.1826 63.4745C45.0237 63.4745 45.0237 63.3156 45.0237 63.3156V56.4817C45.0237 56.3228 45.1826 56.3228 45.1826 56.3228C45.3415 56.3228 45.3415 56.4817 45.3415 56.4817V63.3156C45.5005 63.3156 45.3415 63.4745 45.1826 63.4745Z" fill="black"/>
<path d="M8.15161 41.0645V51.8716C8.15161 52.8252 8.78733 53.4609 9.7409 53.4609H23.7266" stroke="black" stroke-width="0.75" stroke-miterlimit="10"/>
<path d="M84.1192 42.9717V22.6288C84.1192 21.6753 83.4834 21.0396 82.5299 21.0396H72.9941" stroke="black" stroke-width="0.75" stroke-miterlimit="10"/>
<path d="M84 46V53" stroke="black" stroke-width="0.75" stroke-miterlimit="10"/>
<path d="M8 38V32" stroke="black" stroke-width="0.75" stroke-miterlimit="10"/>
</g>
<defs>
<clipPath id="clip0_814_11683">
<rect width="90" height="90" fill="white"/>
</clipPath>
</defs>
</svg>
