<svg xmlns="http://www.w3.org/2000/svg" xmlns:xlink="http://www.w3.org/1999/xlink" version="1.1" id="Layer_1" x="0px" y="0px" viewBox="0 0 214 198" style="enable-background:new 0 0 214 198;" xml:space="preserve">
    <style type="text/css">
        .st0{fill:#FFFFFF;}
        .st1{fill:#BEE8FF;}
        .st2{fill:none;stroke:#FFFFFF;stroke-miterlimit:10;}
        .st3{fill:none;stroke:#FFFFFF;stroke-width:0.7891;stroke-miterlimit:10;}
        .st4{fill:#BFE8FB;}
        .st5{fill:none;stroke:#FFFFFF;stroke-width:0.7891;}
        .st6{fill:#DFDFDE;}
        .st7{fill:none;stroke:#FFFFFF;stroke-width:0.9362;stroke-linecap:round;}
        .st8{fill:none;stroke:#FFFFFF;stroke-width:0.8955;stroke-linecap:round;}
        .st9{fill:#C1E8FB;stroke:#FFFFFF;stroke-width:0.9362;stroke-linecap:round;}
        .st10{fill:none;stroke:#FFFFFF;stroke-width:1.1794;stroke-miterlimit:10;}
        .st11{fill:none;stroke:#000000;stroke-width:0.75;stroke-miterlimit:10;}
        .st12{fill:#BEE7FA;}
        .st13{fill:none;stroke:#000000;stroke-width:0.75;}
        .st14{fill:#DEDEDD;}
        .st15{fill:none;stroke:#000000;stroke-width:1.9344;stroke-linecap:round;}
        .st16{fill:#BFE7FA;stroke:#000000;stroke-width:1.9344;}
        .st17{fill:#1A1A1A;}
        .st18{fill:none;stroke:#000000;stroke-width:1.21;stroke-linecap:round;}
        .st19{fill:#1C1C1B;}
        .st20{opacity:0.1294;}
        .st21{fill:none;stroke:#000000;stroke-width:1.0991;stroke-linecap:round;}
        .st22{fill:none;stroke:#000000;stroke-width:0.8833;stroke-miterlimit:10;}
        .st23{fill:none;stroke:#000000;stroke-width:1.3736;stroke-miterlimit:10;}
        .st24{fill:none;stroke:#000000;stroke-width:1.046;stroke-dasharray:8.3676,8.3676;}
        .st25{fill:none;stroke:#010202;stroke-width:1.046;stroke-miterlimit:10;}
        .st26{fill:#FFFFFF;stroke:#000000;stroke-width:1.046;}
        .st27{fill:none;stroke:#000000;stroke-width:1.046;}
        .st28{fill:none;stroke:#FFFFFF;stroke-width:1.046;stroke-miterlimit:10;}
        .st29{fill:#BEE8FF;stroke:#FFFFFF;stroke-miterlimit:10;}
        .st30{fill:none;stroke:#FFFFFF;stroke-width:1.046;}
        .st31{fill:none;stroke:#000000;stroke-width:0.3151;stroke-miterlimit:3.0822;}
        .st32{fill:none;}
        .st33{fill:#FFFFFF;stroke:#000000;stroke-width:0.9452;stroke-miterlimit:1.2329;}
        .st34{fill:none;stroke:#000000;stroke-width:0.9452;stroke-miterlimit:3.0822;}
        .st35{fill:#BEE8FF;stroke:#000000;stroke-width:0.9452;stroke-miterlimit:1.2329;}
        .st36{fill:#BEE8FF;stroke:#000000;stroke-width:0.6301;stroke-miterlimit:1.2329;}
        .st37{fill:none;stroke:#FFFFFF;stroke-width:2.0206;stroke-miterlimit:3.0822;}
        .st38{fill:#BEE8FF;stroke:#FFFFFF;stroke-width:2.0206;stroke-miterlimit:1.2329;}
        .st39{fill:#FFFFFF;stroke:#FFFFFF;stroke-width:2.0206;stroke-miterlimit:1.2329;}
        .st40{fill:#FFFFFF;stroke:#FFFFFF;stroke-width:1.5157;stroke-miterlimit:1.2329;}
        .st41{fill:#BEE8FF;stroke:#000000;stroke-width:1.3471;stroke-miterlimit:1.2329;}
        .st42{fill:#282424;}
    </style>
    <g>
        <g>
            <g>
                <g>
                    <path class="st0" d="M146.69,32.2h-0.45c-0.06-0.19-0.13-0.41-0.19-0.64c-0.19-0.64-0.43-1.37-0.73-2.15      c-0.32-0.82-0.69-1.72-1.16-2.64c-0.69-1.46-1.59-3.01-2.71-4.59c-2.58-3.86-6.44-8.16-11.59-11.59      c-4.94-3.22-11.59-5.8-18.68-6.23c-7.08-0.43-13.74,1.5-19.32,4.51c-5.58,2.79-9.66,6.66-12.67,10.3      c-2.25,2.75-3.76,5.3-4.77,7.43c-0.49,1.01-0.86,1.93-1.16,2.73c-0.06,0.17-0.13,0.32-0.17,0.47c-0.06,0.17-0.11,0.32-0.15,0.45      c-0.09,0.26-0.17,0.52-0.26,0.73c-0.04,0.15-0.09,0.3-0.13,0.43c-0.04,0.13-0.06,0.24-0.11,0.34c-0.04,0.15-0.09,0.26-0.13,0.36      c-0.09,0.24-0.15,0.37-0.21,0.37c0,0,0.04-0.13,0.11-0.37c0.13-0.49,0.39-1.46,0.73-2.79c0.09-0.3,0.15-0.6,0.24-0.92      c0.15-0.52,0.39-1.12,0.69-1.8c0.94-2.17,2.6-5.09,4.89-7.86c2.58-3.65,7.08-7.73,12.67-10.73c5.58-3.43,12.24-5.37,19.75-4.94      c7.51,0.43,14.17,3.01,19.32,6.66c5.37,3.22,9.02,7.73,11.59,11.81c1.18,1.87,2.08,3.63,2.77,5.24      c0.41,0.94,0.75,1.82,1.01,2.64c0.32,0.88,0.56,1.7,0.73,2.43C146.63,31.97,146.67,32.09,146.69,32.2z"/>
                    <path class="st0" d="M149.46,32.2h-6.1c-0.26-0.84-0.6-1.76-1.03-2.79c-0.34-0.84-0.75-1.72-1.25-2.64      c-0.56-1.05-1.22-2.17-2-3.31c-3.22-4.72-6.87-8.16-10.73-10.73c-4.94-3.43-11.16-5.58-17.17-5.8      c-7.51-0.43-13.95,1.93-17.82,4.08c-4.72,2.58-8.59,5.8-11.81,9.66c-1.7,2.15-2.94,4.16-3.86,5.95      c-0.54,0.99-0.94,1.91-1.27,2.7c-0.49,1.16-0.82,2.13-1.05,2.79h-3.05c-0.09,0.24-0.15,0.37-0.21,0.37c0,0,0.04-0.13,0.11-0.37      h-2.75l0.06-0.28c0,0,0.26-0.9,0.69-2.51c0.11-0.47,0.24-0.99,0.39-1.57c0.13-0.36,0.26-0.75,0.43-1.16      c0.99-2.55,2.81-6.05,5.58-9.57c3.01-4.29,7.94-8.59,13.53-11.59c6.23-4.08,13.52-5.8,21.25-5.37      c7.51,0.43,14.81,2.79,20.82,7.3c4.72,3.01,8.8,7.3,12.24,12.67c1.59,2.38,2.64,4.72,3.37,6.74c0.34,0.97,0.62,1.87,0.86,2.64      h0.02c0.17,0.69,0.34,1.27,0.47,1.78C149.29,31.56,149.4,31.88,149.46,32.2z"/>
                </g>
            </g>
        </g>
        <path class="st42" d="M17.58,71.98v13.1h2.79v-13.1H17.58z M56.01,116.64H23.38c-0.64,0-0.86-0.21-0.86-0.86V90.44h-5.58v25.33   c0,3.65,2.58,6.44,6.44,6.44h32.85L56.01,116.64z M56.01,116.64H23.38c-0.64,0-0.86-0.21-0.86-0.86V90.44h-5.58v25.33   c0,3.65,2.58,6.44,6.44,6.44h32.85L56.01,116.64z M17.58,71.98v13.1h2.79v-13.1H17.58z M195.98,100.96v17.82h2.79v-17.82H195.98z    M200.13,62.84v-0.02c-1.16-2.32-3.09-4.44-5.43-5.71v37.85h5.58L200.13,62.84z M201.74,136.54l-0.02-2.94v-3.07   c-0.9,0.47-1.91,0.84-3.01,1.01c-0.54,0.09-1.07,0.13-1.65,0.13h-72.35v-12.45c0-3.65-4.51-5.37-6.87-5.37H96.58   c-3.01,0-6.23,2.15-6.23,4.94v12.88H15.22c-0.99,0-1.93-0.15-2.79-0.45v53.26c0,5.15,5.15,10.73,11.16,10.73h165.3   c8.59,0,13.1-8.59,13.1-13.74L201.74,136.54z M188.68,192.42H23.38c-4.29,0-8.16-4.29-8.16-8.16v-47.02h75.14v12.45   c-0.43,1.07-0.21,2.15,0.21,3.01c1.07,1.72,3.43,3.01,6.23,3.01h21.47c2.79,0,6.23-2.15,6.44-4.94v-13.52h72.35   c0.58,0,1.14-0.02,1.67-0.11l0.26,44.33C198.99,185.33,195.55,192.42,188.68,192.42z M56.01,116.64H23.38   c-0.64,0-0.86-0.21-0.86-0.86V90.44h-5.58v25.33c0,3.65,2.58,6.44,6.44,6.44h32.85L56.01,116.64z M17.58,71.98v13.1h2.79v-13.1   H17.58z"/>
        <path class="st0" d="M198.54,100.96l0.11,17.82h0.13v-17.82H198.54z M200.13,62.84v-0.02l-0.02-4.23   c-1.46-1.78-3.31-3.26-5.41-4.21v6.23c2.15,1.76,3.65,4.51,3.65,6.87l0.15,27.48h1.78L200.13,62.84z M204.1,135.55l-0.02-3.18   l-0.02-3.54c-0.71,0.67-1.48,1.22-2.34,1.7c-0.9,0.47-1.91,0.84-3.01,1.01l0.02,2.81v2.79l0.26,44.33c0,3.86-3.43,10.95-10.3,10.95   H23.38c-4.29,0-8.16-4.29-8.16-8.16v-52.6c-0.99,0-1.93-0.15-2.79-0.45c-1.12-0.34-2.13-0.9-3.01-1.61v54.87   c0,6.87,6.87,13.52,13.95,13.52H188.9c10.09,0,15.67-9.66,15.46-16.32L204.1,135.55z"/>
        <g>
            <rect x="17.58" y="71.98" class="st42" width="2.79" height="13.1"/>
            <path class="st42" d="M56.22,122.22H23.38c-3.86,0-6.44-2.79-6.44-6.44V90.44h5.58v25.33c0,0.64,0.21,0.86,0.86,0.86h32.63    L56.22,122.22z"/>
            <path class="st42" d="M195.98,100.96v17.82h2.79v-17.82H195.98z M200.13,62.84v-0.02l-0.02-4.23l-0.04-11.29    c0-3.65-2.58-6.44-6.44-6.44h-22.33v5.58h22.54c0.64,0,0.86,0.21,0.86,0.86v47.66h5.58L200.13,62.84z M200.13,62.84v-0.02    l-0.02-4.23l-0.04-11.29c0-3.65-2.58-6.44-6.44-6.44h-22.33v5.58h22.54c0.64,0,0.86,0.21,0.86,0.86v47.66h5.58L200.13,62.84z     M195.98,100.96v17.82h2.79v-17.82H195.98z M142.33,29.41l-65.91-0.09c-0.49,1.16-0.82,2.13-1.05,2.79l67.99,0.09    C143.11,31.36,142.76,30.44,142.33,29.41z M195.98,100.96v17.82h2.79v-17.82H195.98z M200.13,62.84v-0.02l-0.02-4.23l-0.04-11.29    c0-3.65-2.58-6.44-6.44-6.44h-22.33v5.58h22.54c0.64,0,0.86,0.21,0.86,0.86v47.66h5.58L200.13,62.84z M194.69,94.95h5.58    l-0.15-32.12v-0.02l-0.02-4.23l-0.04-11.29c0-3.65-2.58-6.44-6.44-6.44h-22.33v5.58h22.54c0.64,0,0.86,0.21,0.86,0.86V94.95z     M195.98,100.96v17.82h2.79v-17.82H195.98z M76.43,29.33c-0.49,1.16-0.82,2.13-1.05,2.79l67.99,0.09    c-0.26-0.84-0.6-1.76-1.03-2.79L76.43,29.33z M210.37,42.14c0-6.01-5.58-12.67-12.24-12.67l-49.42-0.06h-6.38l-65.91-0.09h-6.2    l-52.21-0.06C10.5,29.48,2.98,35.92,2.98,44.5v78.14c0,4.12,2.64,8.16,6.44,10.28c0.94,0.52,1.95,0.92,3.01,1.18    c0.9,0.21,1.85,0.34,2.79,0.34h181.83c0.58,0,1.14-0.04,1.67-0.11c1.05-0.13,2.06-0.39,2.98-0.75v-0.02    c0.84-0.3,1.63-0.73,2.36-1.2c4.68-3.07,7.15-8.91,7.15-13.16L210.37,42.14z M204.05,128.83c-0.71,0.67-1.48,1.22-2.34,1.7    c-0.9,0.47-1.91,0.84-3.01,1.01c-0.54,0.09-1.07,0.13-1.65,0.13h-72.35v-12.45c0-3.65-4.51-5.37-6.87-5.37H96.58    c-3.01,0-6.23,2.15-6.23,4.94v12.88H15.22c-0.99,0-1.93-0.15-2.79-0.45c-1.12-0.34-2.13-0.9-3.01-1.61    c-2.25-1.78-3.65-4.44-3.65-6.96V44.5c0-7.08,6.23-12.24,12.02-12.45l51.67,0.06h2.75c-0.06,0.24-0.11,0.37-0.11,0.37    c0.06,0,0.13-0.13,0.21-0.37h3.05l67.99,0.09h6.1l48.67,0.06c5.15,0,9.45,5.37,9.45,9.88l0.86,77.07    C208.43,122,206.95,126.1,204.05,128.83z M200.13,62.82l-0.02-4.23l-0.04-11.29c0-3.65-2.58-6.44-6.44-6.44h-22.33v5.58h22.54    c0.64,0,0.86,0.21,0.86,0.86v47.66h5.58l-0.15-32.12V62.82z M195.98,100.96v17.82h2.79v-17.82H195.98z M142.33,29.41l-65.91-0.09    c-0.49,1.16-0.82,2.13-1.05,2.79l67.99,0.09C143.11,31.36,142.76,30.44,142.33,29.41z M195.98,100.96v17.82h2.79v-17.82H195.98z     M200.13,62.84v-0.02l-0.02-4.23l-0.04-11.29c0-3.65-2.58-6.44-6.44-6.44h-22.33v5.58h22.54c0.64,0,0.86,0.21,0.86,0.86v47.66    h5.58L200.13,62.84z M200.13,62.84v-0.02l-0.02-4.23l-0.04-11.29c0-3.65-2.58-6.44-6.44-6.44h-22.33v5.58h22.54    c0.64,0,0.86,0.21,0.86,0.86v47.66h5.58L200.13,62.84z M195.98,100.96v17.82h2.79v-17.82H195.98z M142.33,29.41l-65.91-0.09    c-0.49,1.16-0.82,2.13-1.05,2.79l67.99,0.09C143.11,31.36,142.76,30.44,142.33,29.41z"/>
            <path class="st0" d="M146.05,31.56c-0.19-0.64-0.43-1.37-0.73-2.15h-2.98c-0.34-0.84-0.75-1.72-1.25-2.64l-63.4-0.15    c-0.54,0.99-0.94,1.91-1.27,2.7h-3.16c-0.06,0.17-0.13,0.32-0.17,0.47c-0.06,0.17-0.11,0.32-0.15,0.45    c-0.09,0.26-0.17,0.52-0.26,0.73c-0.04,0.15-0.09,0.3-0.13,0.43c-0.04,0.13-0.06,0.24-0.11,0.34c-0.04,0.15-0.09,0.26-0.13,0.36    h3.05l67.99,0.09h2.88C146.18,32.01,146.11,31.79,146.05,31.56z M146.05,31.56c-0.19-0.64-0.43-1.37-0.73-2.15h-2.98    c-0.34-0.84-0.75-1.72-1.25-2.64l-63.4-0.15c-0.54,0.99-0.94,1.91-1.27,2.7h-3.16c-0.06,0.17-0.13,0.32-0.17,0.47    c-0.06,0.17-0.11,0.32-0.15,0.45c-0.09,0.26-0.17,0.52-0.26,0.73c-0.04,0.15-0.09,0.3-0.13,0.43c-0.04,0.13-0.06,0.24-0.11,0.34    c-0.04,0.15-0.09,0.26-0.13,0.36h3.05l67.99,0.09h2.88C146.18,32.01,146.11,31.79,146.05,31.56z M146.05,31.56    c-0.19-0.64-0.43-1.37-0.73-2.15h-2.98l-65.91-0.09c-0.49,1.16-0.82,2.13-1.05,2.79l67.99,0.09h2.88    C146.18,32.01,146.11,31.79,146.05,31.56z M142.33,29.41l-65.91-0.09c-0.49,1.16-0.82,2.13-1.05,2.79l67.99,0.09    C143.11,31.36,142.76,30.44,142.33,29.41z M213.16,42.36c0-7.08-6.66-15.46-15.03-15.46l-50.3-0.13h-6.74l-63.4-0.15l-3.26-0.02    h-3.39L17.8,26.47C9.21,26.9,0.19,33.98,0.19,44.5v78.14c0,5.75,3.95,11.06,9.23,13.35c0.97,0.43,1.98,0.75,3.01,0.97    c0.9,0.17,1.85,0.28,2.79,0.28h181.83c0.58,0,1.14-0.02,1.67-0.11c1.05-0.09,2.06-0.3,3.01-0.6c0.84-0.26,1.63-0.58,2.36-0.99    c6.44-3.28,9.88-10.8,9.7-16.34L213.16,42.36z M201.71,130.53c-0.9,0.47-1.91,0.84-3.01,1.01c-0.54,0.09-1.07,0.13-1.65,0.13    H15.22c-0.99,0-1.93-0.15-2.79-0.45c-1.12-0.34-2.13-0.9-3.01-1.61c-2.25-1.78-3.65-4.44-3.65-6.96V44.5    c0-7.08,6.23-12.24,12.02-12.45l51.67,0.06h5.9l67.99,0.09h6.1l48.67,0.06c5.15,0,9.45,5.37,9.45,9.88l0.86,77.07    c0,2.79-1.48,6.89-4.38,9.62C203.35,129.5,202.57,130.05,201.71,130.53z M142.33,29.41l-65.91-0.09    c-0.49,1.16-0.82,2.13-1.05,2.79l67.99,0.09C143.11,31.36,142.76,30.44,142.33,29.41z M146.05,31.56    c-0.19-0.64-0.43-1.37-0.73-2.15h-2.98l-65.91-0.09c-0.49,1.16-0.82,2.13-1.05,2.79l67.99,0.09h2.88    C146.18,32.01,146.11,31.79,146.05,31.56z M146.05,31.56c-0.19-0.64-0.43-1.37-0.73-2.15h-2.98c-0.34-0.84-0.75-1.72-1.25-2.64    l-63.4-0.15c-0.54,0.99-0.94,1.91-1.27,2.7h-3.16c-0.06,0.17-0.13,0.32-0.17,0.47c-0.06,0.17-0.11,0.32-0.15,0.45    c-0.09,0.26-0.17,0.52-0.26,0.73c-0.04,0.15-0.09,0.3-0.13,0.43c-0.04,0.13-0.06,0.24-0.11,0.34c-0.04,0.15-0.09,0.26-0.13,0.36    h3.05l67.99,0.09h2.88C146.18,32.01,146.11,31.79,146.05,31.56z"/>
        </g>
        <path class="st0" d="M56.22,122.22H23.38c-3.86,0-6.44-2.79-6.44-6.44V90.44h5.58v25.33c0,0.64,0.21,0.86,0.86,0.86h32.63   L56.22,122.22z"/>
        <path class="st0" d="M200.28,94.95h-5.58V47.29c0-0.64-0.21-0.86-0.86-0.86h-22.54v-5.58h22.33c3.86,0,6.44,2.79,6.44,6.44   l0.04,11.29l0.02,4.23v0.02L200.28,94.95z"/>
        <g>
            <path class="st1" d="M96.8,152.92h21.47c1.5,0,3.43-1.07,3.43-2.15v-31.56c0-1.5-2.58-2.58-4.08-2.58H96.37    c-1.5,0-3.43,1.07-3.43,2.15v31.56C92.29,151.41,94.01,152.92,96.8,152.92z"/>
            <path class="st0" d="M117.84,113.85H96.58c-3.01,0-6.23,2.15-6.23,4.94v30.91c-0.43,1.07-0.21,2.15,0.21,3.01    c1.07,1.72,3.43,3.01,6.23,3.01h21.47c2.79,0,6.23-2.15,6.44-4.94v-31.56C124.71,115.56,120.2,113.85,117.84,113.85z     M118.7,150.13c-0.21,0.21-0.43,0.21-0.64,0.21H96.58c-0.21,0-0.64-0.21-0.86-0.21v-30.7c0.21-0.21,0.43-0.21,0.64-0.21h21.04    c0.21,0,0.86,0.21,1.29,0.43V150.13z"/>
        </g>
        <rect x="195.98" y="100.96" class="st0" width="2.79" height="17.82"/>
        <rect x="17.58" y="71.98" class="st0" width="2.79" height="13.1"/>
    </g>
    </svg>