
<svg version="1.1" id="Layer_1" xmlns="http://www.w3.org/2000/svg" xmlns:xlink="http://www.w3.org/1999/xlink" x="0px" y="0px"
	 viewBox="0 0 29 34" style="enable-background:new 0 0 29 34;" xml:space="preserve">
<style type="text/css">
	.st0{fill:#FFFFFF;}
	.st1{fill:#BEE8FF;}
</style>
<g>
	<g>
		<polygon class="st0" points="5.71,0.16 5.27,33.84 23.51,33.84 23.73,0.16 		"/>
		<path d="M23.51,34H5.27c-0.04,0-0.08-0.02-0.11-0.05c-0.03-0.03-0.05-0.07-0.04-0.11L5.55,0.15C5.55,0.07,5.62,0,5.71,0h18.02
			c0.04,0,0.08,0.02,0.11,0.05c0.03,0.03,0.05,0.07,0.05,0.11l-0.22,33.69C23.67,33.93,23.6,34,23.51,34z M5.43,33.69h17.93
			l0.22-33.38H5.86L5.43,33.69z"/>
	</g>
	<g>
		<g>
			<rect x="8" y="5.75" class="st1" width="2.58" height="4.09"/>
			<path d="M10.57,10H8c-0.09,0-0.16-0.07-0.16-0.16V5.75c0-0.09,0.07-0.16,0.16-0.16h2.58c0.09,0,0.16,0.07,0.16,0.16v4.09
				C10.73,9.93,10.66,10,10.57,10z M8.15,9.69h2.27V5.91H8.15V9.69z"/>
		</g>
		<g>
			<rect x="13.46" y="5.75" class="st1" width="2.58" height="4.09"/>
			<path d="M16.04,10h-2.58c-0.09,0-0.16-0.07-0.16-0.16V5.75c0-0.09,0.07-0.16,0.16-0.16h2.58c0.09,0,0.16,0.07,0.16,0.16v4.09
				C16.2,9.93,16.13,10,16.04,10z M13.62,9.69h2.26V5.91h-2.26V9.69z"/>
		</g>
		<g>
			<rect x="7.82" y="14.78" class="st1" width="2.58" height="4.09"/>
			<path d="M10.4,19.03H7.82c-0.09,0-0.16-0.07-0.16-0.16v-4.09c0-0.09,0.07-0.16,0.16-0.16h2.58c0.09,0,0.16,0.07,0.16,0.16v4.09
				C10.55,18.96,10.48,19.03,10.4,19.03z M7.97,18.72h2.26v-3.78H7.97V18.72z"/>
		</g>
		<g>
			<rect x="13.29" y="14.78" class="st1" width="2.58" height="4.09"/>
			<path d="M15.86,19.03h-2.58c-0.09,0-0.16-0.07-0.16-0.16v-4.09c0-0.09,0.07-0.16,0.16-0.16h2.58c0.09,0,0.16,0.07,0.16,0.16v4.09
				C16.02,18.96,15.95,19.03,15.86,19.03z M13.44,18.72h2.26v-3.78h-2.26V18.72z"/>
		</g>
		<g>
			<rect x="7.82" y="23.81" class="st1" width="2.58" height="4.09"/>
			<path d="M10.4,28.06H7.82c-0.09,0-0.16-0.07-0.16-0.16v-4.09c0-0.09,0.07-0.16,0.16-0.16h2.58c0.09,0,0.16,0.07,0.16,0.16v4.09
				C10.55,27.99,10.48,28.06,10.4,28.06z M7.97,27.74h2.26v-3.78H7.97V27.74z"/>
		</g>
		<g>
			<rect x="13.29" y="23.81" class="st1" width="2.58" height="4.09"/>
			<path d="M15.86,28.06h-2.58c-0.09,0-0.16-0.07-0.16-0.16v-4.09c0-0.09,0.07-0.16,0.16-0.16h2.58c0.09,0,0.16,0.07,0.16,0.16v4.09
				C16.02,27.99,15.95,28.06,15.86,28.06z M13.44,27.74h2.26v-3.78h-2.26V27.74z"/>
		</g>
		<g>
			<rect x="18.6" y="5.75" class="st1" width="2.58" height="4.09"/>
			<path d="M21.18,10H18.6c-0.09,0-0.16-0.07-0.16-0.16V5.75c0-0.09,0.07-0.16,0.16-0.16h2.58c0.09,0,0.16,0.07,0.16,0.16v4.09
				C21.34,9.93,21.27,10,21.18,10z M18.76,9.69h2.26V5.91h-2.26V9.69z"/>
		</g>
		<g>
			<rect x="18.43" y="14.78" class="st1" width="2.58" height="4.09"/>
			<path d="M21,19.03h-2.58c-0.09,0-0.16-0.07-0.16-0.16v-4.09c0-0.09,0.07-0.16,0.16-0.16H21c0.09,0,0.16,0.07,0.16,0.16v4.09
				C21.16,18.96,21.09,19.03,21,19.03z M18.58,18.72h2.26v-3.78h-2.26V18.72z"/>
		</g>
		<g>
			<rect x="18.43" y="23.81" class="st1" width="2.58" height="4.09"/>
			<path d="M21,28.06h-2.58c-0.09,0-0.16-0.07-0.16-0.16v-4.09c0-0.09,0.07-0.16,0.16-0.16H21c0.09,0,0.16,0.07,0.16,0.16v4.09
				C21.16,27.99,21.09,28.06,21,28.06z M18.58,27.74h2.26v-3.78h-2.26V27.74z"/>
		</g>
	</g>
</g>
</svg>
