<svg xmlns="http://www.w3.org/2000/svg" xmlns:xlink="http://www.w3.org/1999/xlink" version="1.1" id="Layer_1" x="0px" y="0px" viewBox="0 0 214 198" style="enable-background:new 0 0 214 198;" xml:space="preserve">
	<style type="text/css">
		.st0{fill:#FFFFFF;}
		.st1{fill:#BEE8FF;}
		.st2{fill:none;stroke:#FFFFFF;stroke-miterlimit:10;}
		.st3{fill:none;stroke:#FFFFFF;stroke-width:0.7891;stroke-miterlimit:10;}
		.st4{fill:#BFE8FB;}
		.st5{fill:none;stroke:#FFFFFF;stroke-width:0.7891;}
		.st6{fill:#DFDFDE;}
		.st7{fill:none;stroke:#FFFFFF;stroke-width:0.9362;stroke-linecap:round;}
		.st8{fill:none;stroke:#FFFFFF;stroke-width:0.8955;stroke-linecap:round;}
		.st9{fill:#C1E8FB;stroke:#FFFFFF;stroke-width:0.9362;stroke-linecap:round;}
		.st10{fill:none;stroke:#FFFFFF;stroke-width:1.1794;stroke-miterlimit:10;}
		.st11{fill:none;stroke:#000000;stroke-width:0.75;stroke-miterlimit:10;}
		.st12{fill:#BEE7FA;}
		.st13{fill:none;stroke:#000000;stroke-width:0.75;}
		.st14{fill:#DEDEDD;}
		.st15{fill:none;stroke:#000000;stroke-width:1.9344;stroke-linecap:round;}
		.st16{fill:#BFE7FA;stroke:#000000;stroke-width:1.9344;}
		.st17{fill:#1A1A1A;}
		.st18{fill:none;stroke:#000000;stroke-width:1.21;stroke-linecap:round;}
		.st19{fill:#1C1C1B;}
		.st20{opacity:0.1294;}
		.st21{fill:none;stroke:#000000;stroke-width:1.0991;stroke-linecap:round;}
		.st22{fill:none;stroke:#000000;stroke-width:0.8833;stroke-miterlimit:10;}
		.st23{fill:none;stroke:#000000;stroke-width:1.3736;stroke-miterlimit:10;}
		.st24{fill:none;stroke:#000000;stroke-width:1.046;stroke-dasharray:8.3676,8.3676;}
		.st25{fill:none;stroke:#010202;stroke-width:1.046;stroke-miterlimit:10;}
		.st26{fill:#FFFFFF;stroke:#000000;stroke-width:1.046;}
		.st27{fill:none;stroke:#000000;stroke-width:1.046;}
		.st28{fill:none;stroke:#FFFFFF;stroke-width:1.046;stroke-miterlimit:10;}
		.st29{fill:#BEE8FF;stroke:#FFFFFF;stroke-miterlimit:10;}
		.st30{fill:none;stroke:#FFFFFF;stroke-width:1.046;}
		.st31{fill:none;stroke:#000000;stroke-width:0.3151;stroke-miterlimit:3.0822;}
		.st32{fill:none;}
		.st33{fill:#FFFFFF;stroke:#000000;stroke-width:0.9452;stroke-miterlimit:1.2329;}
		.st34{fill:none;stroke:#000000;stroke-width:0.9452;stroke-miterlimit:3.0822;}
		.st35{fill:#BEE8FF;stroke:#000000;stroke-width:0.9452;stroke-miterlimit:1.2329;}
		.st36{fill:#BEE8FF;stroke:#000000;stroke-width:0.6301;stroke-miterlimit:1.2329;}
	</style>
	<g>
		<g>
			<path class="st0" d="M110.48,142.63v-0.16h-0.01l-2.62-80.84c-0.02-0.01-0.03-0.02-0.05-0.03c-0.09-0.05-0.19-0.11-0.31-0.18    c-0.3-0.17-0.69-0.4-1.17-0.65c-0.01-0.01-0.03-0.02-0.04-0.03l0.05,1.77c0.02,0.02,0.04,0.02,0.05,0.03    c0.05,0.03,0.1,0.06,0.15,0.08c0.2,0.12,0.38,0.22,0.51,0.3l1.95,79.72h-0.01c-1.64-0.03-5.55-0.07-10.64,0.13    c-11.68,0.46-29.57,2.19-40.4,8.16c-0.02-2.19-0.05-4.35-0.08-6.48c-0.01-0.53-0.02-1.06-0.02-1.59c-0.5,0.14-1,0.29-1.49,0.45    c0.01,0.53,0.02,1.07,0.02,1.6c0.04,2.41,0.07,4.85,0.09,7.33c0,0.28,0.15,0.53,0.38,0.66c0.11,0.07,0.24,0.1,0.37,0.1    s0.26-0.04,0.38-0.11c15.05-9.15,47.79-8.8,51.75-8.71c0.01,0,0.02,0,0.02,0h0.26c0.01,0,0.01,0,0.02,0    c0.03,0.01,0.06,0.01,0.09,0.01c0.01,0,0.01,0,0.02,0c0.05,0,0.09-0.01,0.13-0.01c0.02-0.01,0.03-0.01,0.04-0.01    c0,0,0.01,0,0.03-0.01c0.12-0.04,0.24-0.11,0.33-0.2c0.14-0.14,0.22-0.35,0.22-0.56L110.48,142.63z"/>
		</g>
		<g>
			<path class="st0" d="M163.2,141.54c-0.04-0.54-0.06-1.07-0.07-1.61c-0.5-0.13-1-0.25-1.52-0.36c0.02,0.53,0.04,1.06,0.07,1.59    c0.11,2.7,0.24,5.4,0.38,8.1c-12.19-5.78-32.5-6.73-43.92-6.76h-0.59c-3.35,0-5.86,0.08-7.07,0.13v-0.16h-0.01l-2.62-80.84    l-0.02-0.43c-0.02,0.01-0.03,0.02-0.05,0.03c-0.1,0.07-0.2,0.13-0.29,0.19c-0.36,0.24-0.58,0.4-0.64,0.44    c-0.21,0.15-0.33,0.39-0.32,0.65v0.11l2.46,80.02l0.02,0.81c0,0.08,0.01,0.15,0.04,0.22c0.01,0.04,0.02,0.07,0.04,0.1    c0.04,0.08,0.09,0.15,0.16,0.21c0.01,0.02,0.03,0.04,0.05,0.05c0.02,0.01,0.04,0.03,0.06,0.04c0.04,0.03,0.09,0.05,0.14,0.07    c0.04,0.01,0.08,0.02,0.12,0.04c0.01,0,0.01,0,0.02,0c0.03,0.01,0.06,0.01,0.09,0.01c0.01,0,0.01,0,0.02,0    c0.05,0,0.09-0.01,0.13-0.01c2.06-0.09,36.53-1.42,52.66,7.01c0.1,0.06,0.22,0.08,0.34,0.08c0.14,0,0.28-0.04,0.4-0.12    c0.23-0.15,0.36-0.41,0.34-0.68C163.46,147.49,163.32,144.52,163.2,141.54z M133.6,51.47c-0.25,0.01-0.49,0.03-0.73,0.06h-0.01    c-0.25,0.01-0.49,0.04-0.74,0.08c-4.83,0.54-9.55,2.09-13.58,3.83c-0.24,0.1-0.48,0.21-0.71,0.31c-0.24,0.11-0.47,0.21-0.7,0.32    c0.08,0.54,0.15,1.07,0.23,1.6c0.22-0.1,0.46-0.21,0.7-0.32c0.23-0.1,0.47-0.21,0.71-0.31c0.06-0.03,0.13-0.06,0.19-0.09    c1.49-0.65,3.08-1.28,4.73-1.83c1.08-0.36,2.18-0.7,3.3-0.99c0.65-0.17,1.3-0.32,1.95-0.46c1.13-0.24,2.27-0.43,3.42-0.55    c0.25-0.04,0.5-0.06,0.75-0.08c0.25-0.03,0.5-0.05,0.74-0.06C133.78,52.48,133.69,51.98,133.6,51.47z"/>
		</g>
		<g>
			<path class="st0" d="M107.8,61.6l-0.02-0.37l-0.14-4.86c-0.01-0.27-0.16-0.51-0.39-0.64c-0.05-0.03-0.17-0.09-0.37-0.2    c-2.54-1.36-17.23-8.84-31.38-8.37c-10.48,0.34-22.32,2.02-30.66,11.9c-0.14,0.17-0.2,0.38-0.18,0.6    c3.32,27.55,5.1,56.77,5.31,86.85c0,0.27,0.14,0.52,0.37,0.65c0.11,0.08,0.24,0.11,0.38,0.11c0.12,0,0.24-0.03,0.35-0.09    c1.6-0.88,3.38-1.63,5.3-2.27c0.49-0.16,0.98-0.31,1.49-0.46c12.33-3.56,29.43-2.77,40.48-1.68c6.3,0.63,10.64,1.35,11,1.41    c0.01,0,0.02,0,0.02,0c0.07,0.01,0.14,0.02,0.21,0h0.05c0.01,0,0.01,0,0.02,0c0.13-0.03,0.24-0.08,0.34-0.17    c0.17-0.15,0.26-0.37,0.25-0.6L107.8,61.6z M57.84,142.86c-0.5,0.14-1,0.29-1.49,0.45c-1.74,0.55-3.38,1.2-4.9,1.95    c-0.24-29.58-2.02-58.32-5.26-85.45c7.95-9.21,19.29-10.8,29.36-11.13c13.55-0.44,28.1,6.87,30.61,8.19l0.12,3.87l0.05,1.77    l2.38,80.02C103.3,141.67,76.04,137.73,57.84,142.86z"/>
		</g>
		<g>
			<path class="st0" d="M169.24,55.59c0.01-0.21-0.07-0.42-0.22-0.58c-8.94-9.32-20.86-10.22-31.34-9.88    c-1.8,0.06-3.6,0.25-5.38,0.54c-0.42,0.06-0.85,0.13-1.26,0.22c-1.51,0.27-2.99,0.62-4.43,1.02c-3.24,0.88-6.29,2-8.99,3.14    c-0.24,0.1-0.48,0.2-0.71,0.3c-0.24,0.11-0.47,0.21-0.7,0.31c-4.77,2.12-8.24,4.19-9.33,4.87c-0.19,0.12-0.3,0.19-0.35,0.22    c-0.22,0.14-0.36,0.4-0.35,0.67l0.14,4.35l0.06,1.77l2.6,80.1l0.03,0.81c0,0.08,0.01,0.15,0.04,0.22c0.01,0.04,0.02,0.07,0.04,0.1    c0.04,0.08,0.09,0.15,0.16,0.21c0.01,0.02,0.03,0.04,0.05,0.05c0.02,0.01,0.04,0.03,0.06,0.04c0.04,0.03,0.09,0.05,0.14,0.07    c0.04,0.01,0.08,0.02,0.12,0.04c0.01,0,0.01,0,0.02,0c0.03,0.01,0.06,0.01,0.09,0.01c0.01,0,0.01,0,0.02,0    c0.05,0,0.09-0.01,0.13-0.01c0.02-0.01,0.03-0.01,0.04-0.01c0,0,0.01,0,0.03-0.01c0.33-0.08,3.45-0.81,8.19-1.66    c10.78-1.92,29.91-4.46,43.54-1.34c0.51,0.11,1.02,0.24,1.52,0.38c1.82,0.49,3.53,1.09,5.08,1.82c0.24,0.11,0.52,0.09,0.74-0.07    c0.21-0.15,0.34-0.4,0.32-0.67C167.68,112.59,167.64,83.31,169.24,55.59z M163.13,139.93c-0.5-0.13-1-0.25-1.52-0.36    c-18.46-4.09-45.73,1.67-51.13,2.9h-0.01l-2.62-80.84l-0.02-0.43l-0.14-4.38c1.06-0.65,4.33-2.58,8.82-4.59    c0.23-0.1,0.46-0.21,0.7-0.31c0.23-0.1,0.46-0.2,0.7-0.3c3.88-1.66,8.51-3.29,13.33-4.21c0.24-0.05,0.49-0.1,0.74-0.13    c0.24-0.05,0.49-0.09,0.73-0.13c1.67-0.27,3.35-0.44,5.02-0.5c10.07-0.32,21.48,0.52,30,9.2c-1.56,27.29-1.54,56.08,0.05,85.62    C166.33,140.86,164.77,140.36,163.13,139.93z"/>
		</g>
		<g>
			<path class="st1" d="M131.68,46.09c2.54,9.62,2.51,19.17,2.67,29.14c-2.2-3.47-4.8-6.51-7.79-9.14c-1.37,3.78-2.98,7.5-4.59,11.22    c-0.48,0.12-0.78-0.45-0.89-0.91c-2.22-9.27-2.41-17.6-4.33-26.91c3.24-1.99,5.17-2.66,8.96-3.2    C127.2,46.07,130.12,45.35,131.68,46.09z"/>
			<path class="st1" d="M135.06,73.25c-0.1-6.94-0.2-13.6-1.21-20.27c-0.07-0.5-0.16-1-0.25-1.51c-0.24-1.44-0.53-2.88-0.89-4.32    c-0.09-0.42-0.2-0.84-0.31-1.26c-0.02-0.08-0.06-0.16-0.1-0.22c-0.08-0.12-0.18-0.22-0.31-0.28c-1.5-0.7-3.83-0.3-5.52-0.01    c-0.32,0.06-0.62,0.11-0.87,0.15c-3.96,0.56-5.95,1.27-9.24,3.3c-0.27,0.17-0.41,0.49-0.35,0.81c0.07,0.34,0.14,0.68,0.2,1.02    c0.11,0.53,0.21,1.05,0.3,1.57c0.23,1.29,0.43,2.57,0.62,3.84c0.08,0.54,0.15,1.07,0.23,1.6c0.19,1.43,0.37,2.85,0.55,4.25    c0.6,4.71,1.23,9.58,2.44,14.66c0.05,0.21,0.18,0.63,0.45,0.97c0.28,0.35,0.65,0.53,1.04,0.53c0.1,0,0.2-0.01,0.3-0.03    c0.23-0.06,0.42-0.23,0.51-0.45c1.45-3.33,2.93-6.76,4.22-10.21c2.6,2.41,4.9,5.18,6.85,8.25c0.18,0.29,0.53,0.41,0.84,0.31    c0.32-0.09,0.54-0.4,0.53-0.74L135.06,73.25z M127.04,65.51c-0.18-0.17-0.43-0.23-0.67-0.16c-0.24,0.06-0.43,0.24-0.51,0.47    c-1.23,3.4-2.69,6.8-4.12,10.13c-1.16-4.9-1.76-9.64-2.35-14.23c-0.03-0.21-0.05-0.42-0.08-0.63c-0.15-1.22-0.31-2.45-0.49-3.69    c-0.01-0.12-0.03-0.24-0.05-0.36c-0.07-0.53-0.14-1.07-0.23-1.6c-0.18-1.26-0.39-2.53-0.63-3.82c-0.09-0.52-0.19-1.04-0.29-1.57    c-0.01-0.06-0.03-0.13-0.04-0.19c2.83-1.69,4.69-2.31,8.23-2.82c0.23-0.04,0.51-0.08,0.8-0.13c0.03-0.01,0.07-0.01,0.1-0.02    c1.3-0.22,3.2-0.55,4.35-0.22c0.06,0.25,0.12,0.49,0.18,0.74c0.35,1.4,0.63,2.8,0.88,4.2c0.08,0.51,0.17,1.01,0.24,1.51    c0.98,6.43,1.1,12.88,1.2,19.6C131.65,70.05,129.46,67.63,127.04,65.51z"/>
		</g>
		<g>
			<path class="st0" d="M56.94,69.8c-0.09,0-0.17-0.05-0.22-0.13c-0.07-0.12-0.02-0.28,0.1-0.35c5.53-3.07,12.29-4.56,20.11-4.46    c6.93,0.1,13.84,1.41,20.52,2.68c0.14,0.03,0.22,0.16,0.2,0.3c-0.03,0.14-0.16,0.23-0.29,0.2c-6.66-1.27-13.55-2.57-20.44-2.67    c-7.73-0.1-14.41,1.37-19.86,4.4C57.03,69.79,56.98,69.8,56.94,69.8z"/>
		</g>
		<g>
			<path class="st0" d="M58.25,86.26c-0.1,0-0.19-0.06-0.23-0.16c-0.05-0.13,0.01-0.28,0.14-0.33c12.57-4.98,26.61-3.2,38.99-1.63    c0.14,0.02,0.23,0.14,0.22,0.28c-0.02,0.14-0.14,0.24-0.28,0.22c-12.33-1.56-26.3-3.33-38.75,1.6    C58.31,86.26,58.28,86.26,58.25,86.26z"/>
		</g>
		<g>
			<path class="st0" d="M59.28,103.77c-0.09,0-0.18-0.05-0.23-0.15c-0.06-0.13,0-0.28,0.12-0.34c4.77-2.3,9.85-3.69,15.11-4.15    c2.44-0.21,5.09-0.23,8.09-0.06c5.29,0.3,10.3,1.12,14.88,2.42c0.13,0.04,0.21,0.18,0.17,0.31c-0.04,0.14-0.18,0.21-0.31,0.18    c-4.54-1.3-9.51-2.11-14.77-2.41c-2.98-0.17-5.6-0.15-8.02,0.06c-5.19,0.45-10.22,1.83-14.94,4.1    C59.35,103.76,59.32,103.77,59.28,103.77z"/>
		</g>
		<g>
			<path class="st0" d="M59.51,121.1c-0.09,0-0.17-0.05-0.22-0.13c-0.07-0.12-0.02-0.28,0.1-0.35c10.24-5.7,23.99-6.22,38.72-1.46    c0.13,0.04,0.2,0.19,0.16,0.32c-0.04,0.13-0.18,0.21-0.31,0.17c-14.6-4.72-28.21-4.21-38.34,1.42    C59.59,121.09,59.55,121.1,59.51,121.1z"/>
		</g>
		<g>
			<path class="st0" d="M119.13,84.57c-0.1,0-0.19-0.06-0.23-0.16c-0.05-0.13,0.01-0.28,0.14-0.33c12.03-4.77,26.99-5.39,39.04-1.62    c0.13,0.04,0.21,0.18,0.17,0.32c-0.04,0.13-0.18,0.21-0.31,0.17c-11.94-3.73-26.78-3.11-38.71,1.61    C119.19,84.56,119.16,84.57,119.13,84.57z"/>
		</g>
		<g>
			<path class="st0" d="M120.15,101.78c-0.09,0-0.18-0.05-0.23-0.15c-0.06-0.13,0-0.28,0.12-0.34c4.77-2.3,9.85-3.69,15.11-4.15    c2.44-0.21,5.09-0.23,8.09-0.06c5.29,0.3,10.3,1.12,14.88,2.42c0.13,0.04,0.21,0.18,0.17,0.31c-0.04,0.14-0.18,0.22-0.31,0.18    c-4.54-1.3-9.51-2.11-14.77-2.41c-2.98-0.17-5.6-0.15-8.02,0.06c-5.19,0.45-10.22,1.83-14.94,4.1    C120.22,101.78,120.19,101.78,120.15,101.78z"/>
		</g>
		<g>
			<path class="st0" d="M120.39,119.4c-0.09,0-0.17-0.05-0.22-0.13c-0.07-0.12-0.02-0.28,0.1-0.35c10.24-5.7,23.99-6.22,38.72-1.46    c0.13,0.04,0.2,0.19,0.16,0.32c-0.04,0.13-0.18,0.21-0.31,0.17c-14.6-4.72-28.21-4.21-38.34,1.42    C120.47,119.39,120.43,119.4,120.39,119.4z"/>
		</g>
		<g>
			<path class="st0" d="M157.49,66.38c-0.03,0-0.07-0.01-0.1-0.02c-5.28-2.36-11.11-3.37-16.85-2.93c-0.13,0.01-0.26-0.09-0.27-0.23    c-0.01-0.14,0.09-0.26,0.23-0.27c5.83-0.45,11.74,0.58,17.09,2.97c0.13,0.06,0.18,0.21,0.13,0.34    C157.68,66.32,157.59,66.38,157.49,66.38z"/>
		</g>
		<g>
			<path class="st0" d="M50.32,67.75c-0.12,0-0.23-0.1-0.25-0.23l-0.88-7.73c-0.02-0.14,0.08-0.27,0.22-0.28    c0.14-0.02,0.26,0.08,0.28,0.22l0.88,7.73c0.02,0.14-0.08,0.27-0.22,0.28C50.34,67.75,50.33,67.75,50.32,67.75z"/>
		</g>
		<g>
			<path class="st0" d="M52.54,61.49c-0.13,0-0.24-0.1-0.25-0.24l-0.32-4.6c-0.01-0.14,0.09-0.26,0.23-0.27    c0.13-0.01,0.26,0.1,0.27,0.24l0.32,4.6c0.01,0.14-0.09,0.26-0.23,0.27C52.55,61.49,52.54,61.49,52.54,61.49z"/>
		</g>
		<g>
			<path class="st0" d="M164.44,137.45c-0.12,0-0.23-0.09-0.25-0.21c-0.39-2.51-0.49-5.06-0.3-7.59c0.01-0.14,0.12-0.25,0.27-0.23    c0.14,0.01,0.24,0.13,0.23,0.27c-0.19,2.49-0.09,5,0.3,7.47c0.02,0.14-0.07,0.27-0.21,0.29    C164.46,137.45,164.45,137.45,164.44,137.45z"/>
		</g>
		<path class="st2" d="M131.1,56.31l-1.78,0.38 M129.32,56.69l-0.47-2.21c-0.06-0.28-0.02-0.57,0.09-0.81   c0.17-0.37,0.5-0.66,0.93-0.75l1.51-0.31 M130.19,60.81l-0.87-4.12 M127.6,57.05l-3.36,0.7 M128.47,61.17l-0.87-4.12 M127.6,57.05   l-0.61-2.92l-0.12-0.58 M125.11,61.88l-0.87-4.13 M124.24,57.75l-0.55-2.63l-0.18-0.86 M123.46,62.23   c-2.04,0.7-3.41,0.04-4.15-1.14c-0.64-1.02-0.79-2.44-0.49-3.69c0.04-0.16,0.09-0.3,0.14-0.45c0.45-1.28,1.43-2.28,2.9-2.34"/>
	</g>
	</svg>