<?xml version="1.0" encoding="utf-8"?>
<!-- Generator: Adobe Illustrator 25.0.0, SVG Export Plug-In . SVG Version: 6.00 Build 0)  -->
<svg version="1.1" id="Layer_1" xmlns="http://www.w3.org/2000/svg" xmlns:xlink="http://www.w3.org/1999/xlink" x="0px" y="0px"
	 viewBox="0 0 200 200" style="enable-background:new 0 0 200 200;" xml:space="preserve">
<style type="text/css">
	.st0{fill:#BEE8FF;}
	.st1{fill:#FFFFFF;}
	.st2{fill:none;stroke:#FFFFFF;stroke-miterlimit:10;}
</style>
<g>
	<polygon class="st0" points="49.25,56.96 73.85,79.45 50.65,117.41 2.15,87.89 42.22,53.45 	"/>
	<path class="st0" d="M197.85,79.45c0,0-4.44,15.91-12.77,27.73c-0.22,0.32-0.45,0.64-0.69,0.96c-0.15,0.21-0.31,0.43-0.48,0.64
		c-0.22,0.3-0.45,0.59-0.68,0.88c-0.55,0.21-1.08,0.49-1.61,0.74c-1.12,0.53-2.26,1.04-3.4,1.54c-1.41,0.62-2.81,1.25-4.2,1.91
		c-0.95,0.6-1.9,1.2-2.88,1.74c-0.53,0.29-1.09,0.63-1.67,0.79c-0.17,0.05-0.34,0.08-0.5,0.11c-0.23,0.13-0.45,0.26-0.68,0.4
		c-0.53,0.33-1.06,0.67-1.58,1.03c-0.48,0.32-0.93,0.71-1.48,0.89c-0.04,0.01-0.08,0.02-0.12,0.03c-0.76-0.15-1.52-0.35-2.29-0.61
		c-0.04-0.03-0.08-0.07-0.12-0.1c-0.35-0.07-0.67-0.25-0.95-0.48c-0.18-0.14-0.35-0.31-0.48-0.49c-0.08,0.05-0.18,0.08-0.27,0.08
		c-0.31,0.02-0.5-0.26-0.53-0.54v0.05c0-0.03-0.01-0.07-0.01-0.08c-0.01-0.04-0.02-0.08-0.03-0.13c-0.02-0.07-0.04-0.13-0.07-0.2
		c0,0,0,0-0.01-0.01c0,0,0-0.02-0.01-0.03c0-0.01-0.01-0.02-0.01-0.03c-0.02-0.04-0.03-0.07-0.05-0.1
		c-0.04-0.07-0.08-0.14-0.12-0.21c-0.18-0.29-0.38-0.55-0.57-0.83c-0.43-0.63-0.7-1.31-0.51-2.07c-1.08,0.55-2.15,1.12-3.22,1.69
		c-0.22-0.14-0.45-0.29-0.67-0.44c-0.11-0.07-0.21-0.14-0.32-0.21c-0.02-0.01-0.03-0.02-0.05-0.04c-0.22-0.14-0.43-0.29-0.65-0.44
		c-9.63-6.79-19.44-18.29-28.01-25.73l7.82-6.72c0-0.01,0.01-0.01,0.01-0.01l3.64-3.13l0.01-0.01l0.43-0.36v-0.01l0.83-0.71
		l4.09-3.52l23.23-19.97l7.03,3.51L197.85,79.45z"/>
	<g>
		<g>
			<path class="st1" d="M62.95,120.56c0.22-0.02,0.45-0.01,0.67,0.02c0.07,0,0.14-0.01,0.21-0.05c0.07-0.02,0.12-0.06,0.17-0.11
				c0.05-0.05,0.09-0.11,0.11-0.17c0.03-0.06,0.05-0.13,0.05-0.21c-0.01-0.14-0.05-0.28-0.16-0.38c-0.04-0.03-0.07-0.06-0.11-0.08
				c-0.08-0.05-0.17-0.07-0.27-0.07c-0.22-0.03-0.45-0.04-0.67-0.02c-0.07,0-0.14,0.01-0.21,0.05c-0.07,0.02-0.12,0.06-0.17,0.11
				c-0.05,0.05-0.09,0.11-0.11,0.17c-0.03,0.06-0.05,0.13-0.05,0.21c0.01,0.14,0.05,0.28,0.16,0.38
				C62.67,120.5,62.81,120.57,62.95,120.56L62.95,120.56z"/>
		</g>
		<g>
			<path class="st1" d="M65.94,119.47c1.07-0.44,2.01-1.1,3.05-1.58c0.54-0.25,1.15-0.41,1.72-0.61c0.58-0.21,1.16-0.42,1.74-0.64
				c2.32-0.88,4.61-1.83,6.9-2.8c1.09-0.46,2.17-1,3.3-1.36c0.96-0.3,2-0.57,3.01-0.41c1.67,0.27,2.7,1.69,2.8,3.28
				c0.05,0.79-0.08,1.58-0.42,2.3c-0.43,0.91-1.14,1.67-1.85,2.37c-0.79,0.77-1.63,1.48-2.37,2.3c-0.73,0.8-1.63,1.43-2.51,2.05
				c-0.88,0.63-1.78,1.25-2.56,2c-0.17,0.16-0.32,0.36-0.51,0.48c-0.25,0.15-0.5,0.3-0.76,0.45c-0.48,0.27-0.98,0.52-1.48,0.76
				c-1.99,0.92-4.14,1.51-6.32,1.71c-0.56,0.05-1.13,0.04-1.69,0.08c-0.5,0.03-0.98,0.07-1.48-0.04c-0.93-0.19-1.96-0.7-2.5-1.51
				c-0.25-0.38-0.38-0.77-0.55-1.2c-0.22-0.54-0.43-1.09-0.61-1.65c-0.35-1.09-0.62-2.21-0.68-3.36c-0.01-0.23-0.05-0.52,0.01-0.72
				c0.06-0.21,0.17-0.41,0.23-0.63c0.19-0.67-0.85-0.95-1.04-0.29c-0.07,0.23-0.18,0.44-0.24,0.66c-0.08,0.28-0.05,0.59-0.04,0.88
				c0.03,0.63,0.11,1.26,0.23,1.87c0.24,1.21,0.64,2.38,1.1,3.52c0.19,0.47,0.35,0.96,0.62,1.39c0.31,0.5,0.73,0.9,1.22,1.22
				c0.95,0.62,2.06,0.99,3.2,0.96c2.38-0.06,4.73-0.35,6.99-1.12c1.12-0.38,2.21-0.86,3.26-1.43c0.5-0.27,1.11-0.54,1.51-0.96
				c0.38-0.41,0.8-0.77,1.24-1.12c0.9-0.71,1.86-1.32,2.76-2.03c0.93-0.72,1.7-1.6,2.55-2.4c1.53-1.43,3.25-2.91,3.67-5.08
				c0.33-1.73-0.08-3.71-1.51-4.86c-0.86-0.7-1.93-1.04-3.04-1c-1.15,0.04-2.33,0.36-3.38,0.81c-2.38,1.01-4.75,2.03-7.15,2.99
				c-1.21,0.48-2.42,0.95-3.65,1.39c-0.62,0.22-1.25,0.41-1.86,0.65c-0.57,0.22-1.11,0.54-1.64,0.84c-0.51,0.29-1.01,0.59-1.55,0.81
				c-0.27,0.11-0.46,0.36-0.38,0.66C65.35,119.35,65.67,119.58,65.94,119.47L65.94,119.47z"/>
		</g>
		<g>
			<path class="st1" d="M67.32,130.49c0.07,1.03,0.07,2.08,0.27,3.1c0.2,1.04,0.66,1.99,1.35,2.8c0.68,0.78,1.56,1.37,2.56,1.66
				c0.92,0.27,1.89,0.29,2.84,0.24c1.04-0.06,2.07-0.18,3.11-0.22c1.22-0.05,2.45-0.04,3.67-0.2c1.22-0.16,2.36-0.49,3.46-1.05
				c1.01-0.51,1.93-1.16,2.83-1.85c0.9-0.69,1.77-1.42,2.69-2.09c0.83-0.6,1.59-1.25,2.22-2.06c0.68-0.86,1.25-1.8,1.88-2.68
				c0.69-0.96,1.41-1.92,1.94-2.99c0.41-0.81,0.82-1.64,1.12-2.5c0.29-0.82,0.48-1.75,0.24-2.61c-0.43-1.51-2.01-2.11-3.43-2.3
				c-1.51-0.21-3.08-0.1-4.55,0.32c-1.3,0.37-2.7,1.03-3.43,2.23c-0.16,0.27-0.29,0.56-0.36,0.86c-0.16,0.67,0.87,0.96,1.04,0.29
				c0.02-0.07,0.03-0.13,0.06-0.2c0.01-0.02,0.07-0.18,0.04-0.13c-0.02,0.04,0.05-0.11,0.07-0.14c0.04-0.07,0.07-0.13,0.12-0.2
				c0.03-0.05,0.07-0.1,0.11-0.15c-0.06,0.08,0.04-0.05,0.06-0.07c0.09-0.11,0.2-0.21,0.3-0.31c0.14-0.13,0.15-0.14,0.26-0.21
				c0.13-0.1,0.27-0.19,0.42-0.27c0.13-0.07,0.25-0.14,0.38-0.2c0.16-0.08,0.27-0.13,0.38-0.17c1.31-0.52,2.63-0.71,4.01-0.66
				c0.17,0.01,0.35,0.02,0.52,0.03c0.19,0.02,0.29,0.03,0.41,0.05c0.29,0.04,0.58,0.1,0.87,0.19c0.14,0.04,0.28,0.09,0.41,0.14
				c0.03,0.01,0.06,0.02,0.09,0.03c-0.02-0.01-0.1-0.04,0,0c0.07,0.03,0.13,0.06,0.2,0.1c0.26,0.13,0.5,0.3,0.68,0.52
				c0.45,0.54,0.42,1.27,0.25,1.94c-0.19,0.79-0.55,1.52-0.9,2.25c-0.45,0.94-0.96,1.81-1.56,2.66c-0.63,0.89-1.25,1.78-1.86,2.68
				c-0.5,0.74-1.06,1.43-1.73,2.01c-0.78,0.68-1.67,1.27-2.48,1.91c-1.63,1.29-3.32,2.67-5.35,3.26c-2.12,0.62-4.39,0.41-6.56,0.59
				c-1.69,0.14-3.59,0.43-5.13-0.49c-0.82-0.49-1.49-1.26-1.87-2.14c-0.35-0.8-0.44-1.68-0.49-2.54c-0.03-0.48-0.05-0.95-0.08-1.43
				C68.35,129.8,67.28,129.79,67.32,130.49L67.32,130.49z"/>
		</g>
		<g>
			<path class="st1" d="M71.6,139.7c0.13,1.79,0.49,3.55,1.58,5.02c1.21,1.64,2.93,2.86,4.83,3.56c2.08,0.76,4.32,0.48,6.41-0.12
				c1.01-0.29,1.98-0.69,2.97-1.03c1.02-0.35,1.95-0.79,2.7-1.58c0.69-0.71,1.21-1.57,1.92-2.26c0.51-0.5,1.05-0.96,1.57-1.44
				c1.22-1.16,2.4-2.37,3.5-3.64c1.18-1.36,2.29-2.81,3.19-4.37c0.82-1.41,1.48-2.95,1.69-4.58c0.18-1.46-0.03-3.21-1.33-4.12
				c-1.07-0.75-2.53-0.65-3.76-0.56c-0.32,0.02-0.63,0.05-0.95,0.07c-0.69,0.04-0.69,1.12,0,1.08c0.62-0.04,1.24-0.1,1.86-0.12
				c0.63-0.02,1.11-0.01,1.66,0.15c0.06,0.02,0.13,0.04,0.19,0.06c0.03,0.01,0.06,0.02,0.09,0.04c-0.09-0.04-0.01,0,0.01,0
				c0.12,0.06,0.24,0.13,0.36,0.21c0.1,0.07,0-0.01,0.08,0.07c0.05,0.05,0.1,0.09,0.14,0.14c0.03,0.03,0.12,0.13,0.11,0.12
				c0,0,0.08,0.12,0.11,0.17c0.33,0.54,0.42,1.28,0.41,1.96c-0.02,1.38-0.54,2.78-1.19,4.04c-0.76,1.47-1.73,2.84-2.78,4.12
				c-1.04,1.28-2.17,2.49-3.35,3.64c-1.07,1.05-2.27,2-3.2,3.17c-0.56,0.71-1.11,1.49-1.89,1.98c-0.82,0.51-1.79,0.74-2.68,1.08
				c-1.9,0.72-3.98,1.33-6.03,1.09c-1.82-0.21-3.62-1.26-4.9-2.53c-0.59-0.58-1.09-1.23-1.45-1.97c-0.34-0.69-0.53-1.45-0.66-2.21
				c-0.06-0.4-0.1-0.81-0.13-1.22c-0.02-0.29-0.23-0.54-0.54-0.54C71.86,139.17,71.58,139.41,71.6,139.7L71.6,139.7z"/>
		</g>
		<g>
			<path class="st1" d="M82.76,147.92c-0.1,0.87,0.16,1.75,0.84,2.33c0.64,0.55,1.47,0.81,2.29,0.94c1.89,0.3,3.97,0.22,5.75-0.54
				c1.13-0.49,2.13-1.23,3.04-2.06c1.02-0.93,1.99-1.96,2.9-3c0.94-1.07,1.67-2.28,2.56-3.39c0.43-0.54,0.88-1.08,1.25-1.67
				c0.35-0.54,0.62-1.11,0.86-1.71c0.52-1.3,0.77-2.73,0.17-4.03c-0.51-1.12-1.6-2.23-2.92-2.16c-0.69,0.04-0.69,1.11,0,1.08
				c0.88-0.05,1.58,0.76,1.94,1.53c0.45,0.94,0.22,2.02-0.11,2.97c-0.4,1.12-1.05,2.08-1.79,3.01c-0.41,0.52-0.84,1.03-1.21,1.58
				c-0.35,0.51-0.69,1.02-1.08,1.5c-0.84,1.02-1.77,1.97-2.71,2.9c-0.79,0.79-1.64,1.53-2.61,2.08c-0.93,0.53-1.97,0.87-3.04,0.93
				c-0.7,0.04-1.4,0.05-2.09,0c-0.73-0.05-1.58-0.2-2.2-0.57c-0.08-0.05-0.16-0.1-0.24-0.16c0.08,0.06,0,0-0.02-0.02
				c-0.04-0.04-0.08-0.07-0.12-0.11c-0.02-0.02-0.04-0.05-0.06-0.07c-0.02-0.02-0.04-0.05-0.06-0.07c0.04,0.05,0.04,0.05,0,0
				c-0.05-0.07-0.09-0.15-0.13-0.22c-0.01-0.02-0.06-0.12-0.02-0.02c-0.02-0.05-0.04-0.09-0.05-0.14c-0.03-0.1-0.06-0.2-0.07-0.3
				c0.01,0.09,0-0.02,0-0.05c0-0.07-0.01-0.13-0.01-0.2c0-0.12,0.01-0.25,0.02-0.37c0.03-0.29-0.27-0.54-0.54-0.54
				C82.98,147.38,82.79,147.63,82.76,147.92L82.76,147.92z"/>
		</g>
		<g>
			<path class="st1" d="M98.3,83.69c-0.64-1.66-1.9-2.96-2.69-4.53c-0.77-1.53-1.14-3.25-1.11-4.96c0-0.14,0.01-0.27,0.02-0.41
				c0.01-0.1-0.01,0.02,0.01-0.07c0.01-0.07,0.02-0.14,0.04-0.21c0.03-0.11,0.06-0.23,0.1-0.34c0.01-0.03,0.06-0.16,0.04-0.11
				c-0.02,0.04,0.05-0.09,0.06-0.13c0.05-0.09,0.11-0.18,0.16-0.27c0.07-0.1-0.02,0.02,0.03-0.05c0.04-0.04,0.08-0.09,0.11-0.13
				c0.06-0.07,0.13-0.13,0.2-0.19c0.1-0.09-0.03,0.02,0.04-0.04c0.05-0.03,0.09-0.07,0.14-0.1c0.09-0.05,0.18-0.1,0.27-0.15
				c0.04-0.02,0.08-0.04,0.12-0.06c0.09-0.04,0.01-0.01,0,0c0.03-0.01,0.06-0.02,0.08-0.03c0.21-0.08,0.43-0.14,0.65-0.18
				c0.06-0.01,0.11-0.02,0.17-0.03c0.09-0.02-0.06,0,0.07-0.01c0.12-0.01,0.25-0.02,0.37-0.03c0.24-0.01,0.48-0.01,0.72,0
				c0.52,0.03,0.88,0.09,1.43,0.21c0.5,0.12,1,0.27,1.48,0.46c0.06,0.02,0.12,0.05,0.17,0.07c0.1,0.04,0.01,0,0.09,0.04
				c0.11,0.05,0.22,0.1,0.33,0.15c0.22,0.1,0.43,0.22,0.64,0.34c0.19,0.11,0.37,0.22,0.54,0.35c0.04,0.03,0.08,0.06,0.12,0.09
				c0.08,0.06-0.05-0.05,0.04,0.03c0.15,0.13,0.3,0.26,0.45,0.39c1.36,1.25,2.46,2.77,3.85,4c1.36,1.2,2.92,2.17,4.28,3.38
				c1.26,1.13,2.37,2.48,3.84,3.36c0.52,0.32,1.09,0.54,1.63,0.83c0.5,0.26,0.95,0.55,1.22,1.01c0.15,0.26,0.23,0.54,0.27,0.85
				c0.04,0.29,0.41,0.45,0.66,0.38c0.31-0.08,0.42-0.37,0.38-0.66c-0.1-0.7-0.44-1.36-0.98-1.83c-0.49-0.43-1.06-0.71-1.64-0.99
				c-0.63-0.3-1.23-0.63-1.78-1.07c-0.71-0.57-1.34-1.21-1.99-1.85c-0.66-0.64-1.34-1.23-2.07-1.79c-0.74-0.57-1.5-1.11-2.23-1.7
				c-0.76-0.61-1.47-1.26-2.13-1.97c-0.66-0.71-1.27-1.45-1.95-2.14c-0.85-0.87-1.75-1.57-2.86-2.06c-1.04-0.46-2.13-0.77-3.26-0.91
				c-1.03-0.12-2.11-0.07-3.08,0.35c-0.92,0.4-1.59,1.19-1.83,2.16c-0.18,0.7-0.15,1.43-0.09,2.14c0.07,0.93,0.24,1.86,0.53,2.75
				c0.29,0.88,0.68,1.73,1.16,2.52c0.48,0.78,1.04,1.51,1.52,2.3c0.22,0.36,0.44,0.73,0.59,1.13c0.1,0.27,0.36,0.46,0.66,0.38
				C98.18,84.28,98.4,83.96,98.3,83.69L98.3,83.69z"/>
		</g>
		<g>
			<path class="st1" d="M115.94,85.03c2.19,0.12,4.39-0.03,6.55-0.41c1.88-0.33,3.71-0.8,5.47-1.53c3.33-1.38,6.28-3.47,8.97-5.85
				c2.71-2.39,5.17-5.05,7.68-7.64c1.59-1.64,3.13-3.34,4.72-4.99c1.59-1.66,3.18-3.31,4.76-4.97c0.79-0.83,1.58-1.67,2.36-2.52
				c0.79-0.85,1.49-1.79,2.21-2.69c0.15-0.18,0.27-0.31,0.46-0.44c0.25-0.17,0.43-0.34,0.61-0.58c0.3-0.4,0.6-0.79,0.93-1.17
				c0.64-0.76,1.33-1.48,2.04-2.17c0.35-0.34,0.71-0.67,1.06-1c0.51-0.47-0.25-1.23-0.76-0.76c-1.48,1.36-2.87,2.79-4.08,4.4
				c-0.13,0.18-0.23,0.28-0.41,0.4c-0.21,0.14-0.39,0.28-0.54,0.48c-0.37,0.46-0.74,0.92-1.11,1.38c-0.37,0.46-0.73,0.92-1.13,1.36
				c-0.39,0.42-0.77,0.83-1.16,1.25c-3.11,3.32-6.3,6.56-9.41,9.88c-2.53,2.71-5.09,5.43-7.8,7.96c-2.55,2.38-5.32,4.56-8.47,6.09
				c-3.51,1.71-7.5,2.49-11.39,2.5c-0.52,0-1.04-0.01-1.56-0.04C115.24,83.92,115.24,84.99,115.94,85.03L115.94,85.03z"/>
		</g>
		<g>
			<path class="st1" d="M80.63,82.06c0.85-0.05,1.69-0.13,2.53-0.29c0.41-0.08,0.82-0.18,1.22-0.31c0.19-0.06,0.39-0.12,0.58-0.2
				c0.22-0.1,0.43-0.24,0.65-0.35c1.51-0.78,3.17-1.25,4.77-1.83c0.94-0.34,1.88-0.7,2.81-1.06c0.27-0.11,0.46-0.36,0.38-0.66
				c-0.07-0.26-0.39-0.48-0.66-0.38c-1.6,0.63-3.21,1.22-4.83,1.78c-0.82,0.28-1.63,0.58-2.42,0.94c-0.38,0.17-0.73,0.39-1.1,0.57
				c-0.35,0.17-0.77,0.26-1.15,0.35c-0.91,0.22-1.83,0.31-2.76,0.36C79.94,81.02,79.93,82.1,80.63,82.06L80.63,82.06z"/>
		</g>
		<g>
			<path class="st1" d="M103.81,74.16c0.69,0,0.69-1.08,0-1.08C103.12,73.08,103.12,74.16,103.81,74.16L103.81,74.16z"/>
		</g>
		<g>
			<path class="st1" d="M105,75.74c1.04-0.06,2.08-0.23,3.13-0.24c1.08,0,2.11,0.33,3.16,0.53c1.13,0.22,2.24,0.34,3.4,0.29
				c1.03-0.05,2.1-0.18,3.12,0.01c0.74,0.14,1.45,0.46,2.14,0.74c0.56,0.23,1.24,0.56,1.79,0.94c0.22,0.15,0.46,0.36,0.67,0.6
				c0.1,0.11,0.13,0.15,0.22,0.3c0.04,0.06,0.08,0.13,0.11,0.2c0.05,0.1,0.05,0.1,0.07,0.16c0.24,0.66,0.16,1.35-0.29,1.97
				c-0.31,0.42-0.7,0.79-1.06,1.16c-0.3,0.3-0.68,0.44-1.09,0.54c-0.95,0.22-1.92,0.3-2.62,1.06c-0.47,0.51,0.29,1.27,0.76,0.76
				c0.57-0.62,1.48-0.61,2.25-0.8c0.46-0.12,0.89-0.31,1.26-0.61c0.37-0.3,0.71-0.7,1.03-1.06c0.65-0.74,1.07-1.58,0.96-2.59
				c-0.08-0.77-0.44-1.45-0.98-1.99c-1.03-1.04-2.48-1.55-3.81-2.06c-1.04-0.4-2.1-0.51-3.2-0.46c-1.14,0.05-2.28,0.16-3.42,0
				c-0.67-0.09-1.33-0.24-1.98-0.38c-0.63-0.14-1.25-0.3-1.89-0.35c-1.24-0.09-2.48,0.14-3.72,0.22
				C104.31,74.7,104.3,75.78,105,75.74L105,75.74z"/>
		</g>
		<g>
			<path class="st1" d="M79.81,83.14c2.13,0.3,4.29,0.34,6.42,0.7c1.13,0.19,2.25,0.39,3.38,0.52c1.13,0.13,2.26,0.22,3.4,0.28
				c2.18,0.11,4.37,0.12,6.55,0.13c1.1,0.01,2.2,0.01,3.31,0.04c1.03,0.02,2.05,0.09,3.08,0.15c0.52,0.03,1.03,0.04,1.54,0.09
				c0.5,0.05,1,0.11,1.49,0.18c1.08,0.16,2.15,0.35,3.22,0.59c1.76,0.38,3.47,0.83,5.11,1.59c3.03,1.41,5.62,3.54,7.93,5.93
				c2.34,2.42,4.41,5.08,6.53,7.69c0.26,0.32,0.52,0.63,0.78,0.95c0.19,0.22,0.57,0.19,0.76,0c0.22-0.22,0.19-0.54,0-0.76
				c-2.16-2.61-4.21-5.3-6.51-7.79c-2.29-2.48-4.85-4.77-7.83-6.38c-1.53-0.83-3.17-1.48-4.87-1.9c-2.06-0.51-4.17-0.9-6.28-1.13
				c-1.04-0.11-2.08-0.15-3.13-0.22c-1.07-0.07-2.14-0.07-3.21-0.09c-2.2-0.03-4.4-0.01-6.6-0.07c-2.24-0.06-4.49-0.21-6.71-0.54
				c-1.12-0.17-2.22-0.39-3.35-0.52c-1.08-0.12-2.17-0.2-3.25-0.3c-0.5-0.05-0.99-0.1-1.49-0.17c-0.29-0.04-0.58,0.07-0.66,0.38
				C79.36,82.73,79.52,83.1,79.81,83.14L79.81,83.14z"/>
		</g>
		<g>
			<path class="st1" d="M133.13,102.33c-0.21-0.13-0.3-0.25-0.3-0.49c-0.27,0.16-0.54,0.31-0.81,0.47c0.9,0.62,1.55,1.56,2.16,2.45
				c0.64,0.95,1.26,1.9,1.93,2.83c0.82,1.13,1.51,2.35,2.2,3.56c0.67,1.19,1.36,2.36,2.08,3.51c0.72,1.16,1.43,2.35,1.88,3.65
				c0.47,1.36,0.66,2.8,1.02,4.18c0.18,0.71,0.43,1.39,0.64,2.08c0.21,0.69,0.39,1.39,0.55,2.09c0.34,1.43,0.61,2.88,0.91,4.32
				c0.25,1.18,0.59,2.34,0.81,3.52c0.15,0.85,0.22,1.76-0.22,2.47c-0.49,0.8-1.57,1.19-2.47,1.4c-0.98,0.23-2.07,0.2-2.98-0.28
				c-0.44-0.24-0.86-0.58-1.16-0.99c-0.3-0.43-0.48-0.92-0.63-1.42c-0.32-1.1-0.48-2.24-0.89-3.31c-0.97-2.54-2.58-4.75-3.85-7.13
				c-1.38-2.58-2.59-5.24-4.01-7.8c-1.39-2.51-3.08-4.82-4.79-7.12c-0.42-0.56-0.84-1.12-1.25-1.69c-0.17-0.23-0.47-0.35-0.74-0.19
				c-0.25,0.15-0.34,0.48-0.19,0.74c1.26,2.2,2.84,4.18,4.3,6.24c0.73,1.03,1.43,2.07,2.04,3.17c0.66,1.19,1.19,2.46,1.73,3.71
				c1.13,2.61,2.18,5.24,3.36,7.82c0.52,1.14,1.1,2.26,1.6,3.42c0.47,1.08,0.9,2.25,1,3.44c0.09,1.03-0.14,1.97-0.54,2.92
				c-0.08,0.19-0.17,0.38-0.27,0.56c-0.05,0.08-0.09,0.17-0.15,0.24c-0.09,0.13,0.11-0.1-0.05,0.06c-0.05,0.05-0.1,0.11-0.16,0.15
				c-0.37,0.27-0.88,0.33-1.32,0.39c-1.23,0.18-2.39,0.63-3.64,0.66c-0.57,0.01-1.16-0.01-1.69-0.22c-0.37-0.15-0.67-0.39-0.95-0.69
				c-0.77-0.81-1.47-1.74-2.1-2.66c-0.73-1.08-1.38-2.22-2.02-3.36c-1.26-2.24-2.59-4.44-3.88-6.67c-1.28-2.21-2.62-4.41-4.26-6.38
				c-0.81-0.97-1.67-1.9-2.45-2.9c-0.78-1-1.54-2.02-2.38-2.97c-0.41-0.46-0.85-0.91-1.3-1.32c-0.43-0.39-1.21,0.12-0.85,0.65
				c0.73,1.06,1.63,1.96,2.56,2.85c0.95,0.91,1.87,1.84,2.74,2.82c1.81,2.04,3.5,4.19,5.14,6.36c1.62,2.15,3.17,4.37,4.52,6.7
				c1.24,2.14,2.6,4.52,2.73,7.05c0.05,0.99-0.09,2.17-0.77,2.91c-0.56,0.61-1.34,0.88-2.17,1.01c-0.84,0.12-1.83,0.07-2.67-0.06
				c-1.1-0.16-2.19-0.45-3.18-0.98c-0.95-0.5-1.85-1.2-2.58-1.99c-0.35-0.39-0.56-0.84-0.75-1.33c-0.25-0.61-0.53-1.21-0.83-1.8
				c-0.61-1.18-1.28-2.35-1.96-3.49c-0.69-1.15-1.48-2.24-2.28-3.31c-1.69-2.25-3.28-4.56-4.82-6.92c-0.72-1.11-1.44-2.22-2.17-3.33
				c-0.7-1.06-1.42-2.11-2.24-3.07c-0.38-0.45-0.79-0.88-1.23-1.27c-0.22,0.28-0.44,0.56-0.65,0.85c0.83,0.6,1.41,1.63,1.93,2.51
				c0.28,0.48,0.56,0.98,0.85,1.46c0.33,0.55,0.7,1.08,1.03,1.63c0.74,1.24,1.38,2.53,2,3.84c0.62,1.33,1.24,2.66,1.82,4.01
				c0.56,1.32,1.01,2.69,1.56,4.02c0.28,0.68,0.58,1.35,0.92,2c0.31,0.59,0.64,1.17,0.94,1.77c0.29,0.59,0.51,1.21,0.68,1.85
				c0.15,0.54,0.37,1.06,0.55,1.6c0.08,0.24,0.16,0.48,0.19,0.73c0.03,0.2,0.02,0.32-0.06,0.54c-0.12,0.31-0.48,0.68-0.81,0.94
				c-0.93,0.74-1.93,1.12-3.04,1.41c-1.51,0.4-3.07,0.48-4.62,0.56c-0.69,0.04-0.69,1.11,0,1.08c2.62-0.14,5.34-0.33,7.63-1.73
				c0.89-0.55,1.87-1.34,1.98-2.45c0.06-0.56-0.16-1.15-0.34-1.67c-0.21-0.59-0.39-1.17-0.57-1.76c-0.42-1.37-1.19-2.57-1.82-3.84
				c-0.67-1.35-1.15-2.77-1.69-4.17c-0.55-1.43-1.2-2.82-1.83-4.21c-0.62-1.37-1.26-2.74-1.99-4.06c-0.71-1.3-1.54-2.52-2.28-3.8
				c-0.67-1.15-1.37-2.38-2.47-3.17c-0.5-0.36-1.1,0.44-0.65,0.85c1.89,1.7,3.19,3.95,4.56,6.06c1.59,2.43,3.16,4.89,4.9,7.22
				c0.82,1.1,1.66,2.19,2.43,3.33c0.77,1.15,1.43,2.36,2.1,3.57c0.33,0.58,0.64,1.18,0.93,1.78c0.27,0.58,0.47,1.21,0.79,1.77
				c0.55,0.97,1.53,1.74,2.43,2.37c1.83,1.28,4.15,1.84,6.36,1.83c0.98-0.01,1.98-0.16,2.86-0.6c0.9-0.45,1.54-1.23,1.86-2.18
				c0.84-2.52-0.2-5.28-1.33-7.53c-1.24-2.47-2.73-4.81-4.33-7.05c-1.62-2.27-3.34-4.48-5.11-6.63c-0.9-1.1-1.83-2.18-2.81-3.21
				c-0.89-0.94-1.87-1.79-2.77-2.72c-0.44-0.46-0.85-0.94-1.21-1.46c-0.28,0.22-0.56,0.44-0.85,0.65c1.95,1.77,3.35,4.01,5.07,5.98
				c0.86,0.98,1.69,1.94,2.43,3.01c0.75,1.07,1.44,2.19,2.11,3.31c0.67,1.13,1.31,2.26,1.97,3.39c0.67,1.14,1.36,2.26,2.01,3.41
				c0.66,1.17,1.3,2.34,2.01,3.48c0.69,1.1,1.48,2.11,2.3,3.11c0.63,0.77,1.33,1.43,2.33,1.67c1.35,0.32,2.8,0.09,4.11-0.28
				c0.55-0.15,1.08-0.23,1.64-0.33c0.55-0.09,1.09-0.26,1.53-0.63c0.37-0.31,0.59-0.76,0.78-1.2c0.2-0.45,0.38-0.92,0.52-1.39
				c0.7-2.48-0.45-5.06-1.5-7.26c-1.21-2.54-2.33-5.11-3.42-7.69c-1.08-2.55-2.09-5.16-3.59-7.5c-1.4-2.18-3.05-4.19-4.48-6.36
				c-0.35-0.54-0.69-1.08-1.01-1.64c-0.31,0.18-0.62,0.36-0.93,0.54c1.74,2.38,3.57,4.7,5.11,7.22c1.58,2.57,2.84,5.33,4.21,8.01
				c0.65,1.26,1.33,2.49,2.06,3.71c0.72,1.2,1.45,2.39,2.03,3.66c0.27,0.58,0.51,1.18,0.68,1.79c0.16,0.56,0.27,1.13,0.4,1.69
				c0.28,1.16,0.67,2.31,1.58,3.13c1.8,1.61,4.57,1.46,6.57,0.29c0.95-0.56,1.54-1.44,1.68-2.53c0.13-1.03-0.13-2.09-0.37-3.08
				c-0.69-2.85-1.14-5.77-1.96-8.58c-0.21-0.71-0.47-1.41-0.66-2.13c-0.19-0.73-0.34-1.46-0.49-2.19c-0.15-0.7-0.31-1.41-0.54-2.1
				c-0.24-0.69-0.54-1.36-0.88-2c-0.66-1.27-1.47-2.44-2.19-3.68c-0.72-1.23-1.39-2.5-2.14-3.72c-0.68-1.1-1.47-2.12-2.18-3.2
				c-0.67-1.02-1.32-2.05-2.12-2.97c-0.37-0.42-0.78-0.8-1.24-1.11c-0.34-0.24-0.81,0.08-0.81,0.47c0,0.62,0.32,1.1,0.84,1.42
				C133.18,103.62,133.72,102.69,133.13,102.33L133.13,102.33z"/>
		</g>
		<g>
			<path class="st1" d="M160.12,112.36c-0.01,0.03-0.02,0.06-0.04,0.09c-0.04,0.07-0.11,0.13-0.2,0.18
				c-0.04,0.02-0.07,0.04-0.11,0.06c-0.18,0.09-0.36,0.18-0.54,0.28c-0.03,0.01-0.05,0.02-0.07,0.04c-0.03,0.01-0.06,0.03-0.09,0.04
				v0.01c-1.08,0.55-2.15,1.12-3.22,1.69c-0.08,0.04-0.16,0.09-0.24,0.13c-2.33,1.23-4.74,2.37-6.89,3.91
				c-1.16,0.83-2.19,2.18-3.56,2.69c-0.09,0.04-0.19,0.07-0.3,0.1c-0.01,0.01-0.02,0.01-0.04,0.01c-0.2,0.06-0.41,0.09-0.63,0.09
				c-0.12,0.01-0.25,0.01-0.38-0.01h-0.07c-0.29-0.03-0.53-0.23-0.53-0.54c0-0.18,0.12-0.38,0.28-0.48
				c0.02-0.01,0.05-0.02,0.08-0.03c0.04-0.02,0.09-0.03,0.14-0.03h0.04c0.06,0.01,0.14,0.01,0.2,0.01c0.21,0,0.4-0.02,0.6-0.08
				c0.02,0,0.05-0.01,0.08-0.02c0.15-0.04,0.29-0.1,0.43-0.17c0.49-0.23,0.92-0.58,1.34-0.94c0.79-0.7,1.53-1.39,2.42-1.97
				c1.06-0.7,2.17-1.33,3.3-1.93c0.75-0.4,1.5-0.8,2.25-1.19c0.14-0.08,0.29-0.16,0.44-0.24c1.25-0.66,2.51-1.31,3.77-1.97
				c0.01,0,0.02-0.01,0.04-0.01c0.04-0.03,0.08-0.05,0.12-0.07c0.09-0.04,0.17-0.09,0.26-0.13c0.11-0.06,0.23-0.12,0.34-0.18
				c0.04-0.02,0.08-0.04,0.12-0.05h0.01c0.03-0.01,0.06-0.02,0.09-0.01c0.04-0.01,0.08-0.01,0.12,0c0.02,0,0.04,0,0.05,0.01
				C160.04,111.73,160.24,112.08,160.12,112.36z"/>
		</g>
		<g>
			<path class="st1" d="M98.37,144.87c0.08,0.62,0.49,1.13,0.9,1.57c0.19,0.21,0.39,0.4,0.57,0.62c0.02,0.03,0.04,0.05,0.07,0.08
				c0.01,0.01,0.01,0.02,0.02,0.03c0.04,0.04,0.03,0.04-0.02-0.03c0,0.03,0.09,0.12,0.11,0.15c0.08,0.12,0.14,0.24,0.2,0.36
				c0.11,0.26,0.51,0.34,0.74,0.19c0.27-0.17,0.31-0.46,0.19-0.74c-0.22-0.53-0.66-0.94-1.04-1.35c-0.09-0.1-0.18-0.2-0.27-0.3
				c-0.02-0.02-0.09-0.14-0.12-0.15c0.05,0.06,0.06,0.07,0.02,0.03c-0.01-0.01-0.01-0.02-0.02-0.03c-0.02-0.03-0.04-0.06-0.06-0.08
				c-0.04-0.06-0.07-0.11-0.1-0.17c-0.02-0.03-0.03-0.06-0.05-0.09c-0.01-0.01-0.01-0.03-0.02-0.05c-0.02-0.04-0.01-0.02,0.02,0.05
				c0.01-0.04-0.05-0.15-0.06-0.19c-0.02-0.07-0.03-0.13-0.04-0.2c-0.04-0.28-0.41-0.46-0.66-0.38
				C98.44,144.31,98.33,144.57,98.37,144.87L98.37,144.87z"/>
		</g>
		<g>
			<path class="st1" d="M86.52,119.01c0.02,0.12,0.03,0.24,0.05,0.36c0.33-0.09,0.67-0.18,1-0.27c-0.85-1.51-1.86-3.01-3.31-4.02
				c-1.11-0.77-2.71-1.01-4-0.61c-3.09,0.97-2.36,5.46-0.71,7.4c0.49,0.58,1.17,1.02,1.91,1.2c0.84,0.2,1.71,0.09,2.53-0.18
				c0.16-0.05,0.35-0.19,0.38-0.38c0.02-0.15,0.05-0.31,0.07-0.46c0.04-0.29-0.07-0.58-0.38-0.66c-0.25-0.07-0.62,0.09-0.66,0.38
				c-0.02,0.15-0.05,0.31-0.07,0.46c0.13-0.13,0.25-0.25,0.38-0.38c-0.55,0.18-1.19,0.3-1.73,0.22c-0.54-0.08-0.99-0.3-1.38-0.67
				c-0.85-0.8-1.24-1.95-1.34-3.09c-0.1-1.09,0.06-2.32,1.11-2.75c0.96-0.4,2.25-0.25,3.1,0.26c1.43,0.85,2.39,2.38,3.18,3.8
				c0.24,0.43,1.08,0.28,1-0.27c-0.02-0.12-0.03-0.24-0.05-0.36c-0.04-0.29-0.22-0.54-0.54-0.54
				C86.8,118.47,86.48,118.72,86.52,119.01L86.52,119.01z"/>
		</g>
		<g>
			<path class="st1" d="M95.49,125.33c-0.83-0.75-1.62-1.55-2.52-2.22c-0.81-0.61-1.82-1.15-2.87-0.96
				c-1.26,0.24-1.91,1.53-2.33,2.61c-0.53,1.36-0.66,3.1,0.37,4.28c0.83,0.95,2.2,0.74,3.32,0.7c0.69-0.03,0.69-1.1,0-1.08
				c-0.48,0.02-0.96,0.06-1.44,0.05c-0.36-0.01-0.65-0.05-0.94-0.25c0.08,0.06-0.06-0.05-0.06-0.05c-0.03-0.03-0.05-0.05-0.08-0.08
				c-0.08-0.08-0.09-0.11-0.15-0.21c-0.14-0.24-0.23-0.49-0.29-0.76c-0.14-0.65-0.02-1.32,0.18-1.94c0.18-0.56,0.43-1.16,0.79-1.62
				c0.11-0.15,0.3-0.32,0.4-0.39c0.19-0.13,0.23-0.14,0.46-0.2c0.1-0.02,0.03-0.01,0.01-0.01c0.05-0.01,0.1-0.01,0.15-0.01
				c0.09,0,0.17,0,0.26,0.01c-0.09-0.01,0.13,0.03,0.17,0.04c0.11,0.03,0.22,0.06,0.32,0.1c0.11,0.04,0.33,0.16,0.49,0.25
				c0.21,0.12,0.4,0.25,0.6,0.39c0.85,0.62,1.6,1.4,2.38,2.11C95.24,126.56,96.01,125.8,95.49,125.33L95.49,125.33z"/>
		</g>
		<g>
			<path class="st1" d="M99.93,130.43c-0.33-0.06-0.6-0.24-0.87-0.44c-0.3-0.21-0.59-0.41-0.91-0.57c-0.25-0.12-0.45-0.4-0.74-0.53
				c-0.34-0.14-0.68-0.07-1,0.08c-0.56,0.26-1.03,0.75-1.43,1.2c-0.3,0.34-0.61,0.7-0.84,1.11c-0.46,0.81-0.69,1.74-0.8,2.66
				c-0.11,0.89-0.06,1.87,0.36,2.69c0.54,1.04,1.66,1.3,2.73,1.07c0.68-0.15,0.39-1.18-0.29-1.04c-0.22,0.05-0.3,0.06-0.55,0.05
				c-0.05,0-0.09,0-0.14-0.01c0.13,0.01-0.01,0-0.04-0.01c-0.1-0.02-0.19-0.05-0.28-0.08c0.13,0.05-0.07-0.04-0.1-0.06
				c-0.03-0.02-0.05-0.04-0.08-0.05c0.11,0.08,0.01,0.01-0.01-0.01c-0.06-0.05-0.11-0.11-0.16-0.17c-0.09-0.1,0.06,0.1-0.01-0.02
				c-0.03-0.05-0.06-0.09-0.09-0.14c-0.04-0.07-0.08-0.15-0.11-0.22c0.05,0.12-0.04-0.12-0.05-0.16c-0.05-0.17-0.09-0.35-0.12-0.54
				c0.02,0.13,0-0.03,0-0.05c0-0.05-0.01-0.1-0.01-0.15c-0.01-0.1-0.01-0.2-0.01-0.3c0-0.2,0.01-0.41,0.03-0.61
				c0.02-0.25,0.02-0.26,0.07-0.52c0.04-0.22,0.09-0.43,0.15-0.65c0.05-0.17,0.1-0.34,0.16-0.51c0.03-0.09,0.07-0.18,0.1-0.26
				c-0.05,0.12,0.01-0.02,0.02-0.04c0.02-0.05,0.05-0.11,0.07-0.16c0.07-0.13,0.14-0.26,0.22-0.39c0.14-0.21,0.14-0.2,0.3-0.39
				c0.32-0.4,0.69-0.82,1.1-1.11c0.05-0.04,0.1-0.07,0.16-0.1c0.02-0.01,0.2-0.1,0.13-0.08c0.05-0.02,0.1-0.03,0.15-0.05
				c-0.06,0.03,0,0.02-0.03-0.01c0.2,0.18,0.44,0.38,0.69,0.5c0.68,0.32,1.21,0.95,1.97,1.08c0.29,0.05,0.58-0.08,0.66-0.38
				C100.38,130.84,100.22,130.48,99.93,130.43L99.93,130.43z"/>
		</g>
		<g>
			<path class="st1" d="M97.39,137.09c0.05,0.77,0.15,1.56,0.48,2.27c0.3,0.64,0.86,1.1,1.54,1.29c0.46,0.13,0.96,0.15,1.43,0.11
				c0.28-0.02,0.55-0.23,0.54-0.54c-0.01-0.27-0.24-0.56-0.54-0.54c-0.2,0.01-0.4,0.02-0.61,0.01c-0.08,0-0.17-0.01-0.25-0.02
				c-0.04,0,0.11,0.02,0,0c-0.05-0.01-0.09-0.02-0.14-0.03c-0.07-0.02-0.14-0.03-0.21-0.06c-0.04-0.01-0.07-0.02-0.11-0.04
				c-0.11-0.04,0.08,0.04,0,0c-0.06-0.03-0.12-0.06-0.19-0.1c-0.02-0.01-0.05-0.03-0.07-0.05c-0.01-0.01-0.02-0.02-0.04-0.02
				c-0.08-0.05,0.01,0,0.03,0.02c-0.03-0.05-0.1-0.08-0.14-0.12c-0.05-0.05-0.09-0.1-0.13-0.15c-0.05-0.05,0.07,0.1,0.03,0.04
				c-0.01-0.01-0.02-0.02-0.03-0.03c-0.02-0.02-0.03-0.05-0.05-0.07c-0.04-0.06-0.08-0.12-0.11-0.19c-0.01-0.03-0.03-0.05-0.04-0.08
				c-0.06-0.13,0.01,0,0,0c0,0-0.07-0.19-0.08-0.21c-0.05-0.15-0.09-0.3-0.12-0.45c-0.02-0.09-0.04-0.17-0.05-0.26
				c-0.01-0.05-0.02-0.1-0.02-0.15c-0.02-0.13,0.01,0.07,0-0.03c-0.02-0.21-0.04-0.42-0.06-0.64c-0.02-0.28-0.23-0.55-0.54-0.54
				C97.65,136.57,97.37,136.79,97.39,137.09L97.39,137.09z"/>
		</g>
		<g>
			<path class="st1" d="M79.9,83.3c3.47,0.27,6.94,0.12,10.42,0.09c1.76-0.01,3.51,0.01,5.26,0.13c1.72,0.13,3.41,0.41,5.11,0.7
				c3.31,0.56,6.62,1.12,9.89,1.87c1.67,0.39,3.33,0.82,4.97,1.33c1.35,0.42,2.62,0.9,3.83,1.64c2.31,1.42,4.2,3.41,6.04,5.38
				c0.47,0.5,0.94,1,1.41,1.5c0.22,0.23,0.44,0.46,0.66,0.68c0.29,0.29,0.5,0.62,0.74,0.95c0.92,1.3,1.91,2.55,2.94,3.76
				c1.07,1.26,2.2,2.47,3.35,3.66c0.55,0.56,1.07,1.07,1.43,1.77c0.32,0.62,0.54,1.28,0.78,1.93c0.26,0.69,0.54,1.38,0.98,1.98
				c0.45,0.62,1,1.15,1.54,1.68c0.22,0.22,0.5,0.45,0.68,0.71c0.21,0.31,0.39,0.64,0.63,0.94c0.48,0.6,0.88,1.26,1.26,1.93
				c1.59,2.85,2.16,6.21,2.6,9.41c0.23,1.64,0.39,3.29,0.56,4.93c0.09,0.85,0.18,1.7,0.28,2.56c0.05,0.4,0.08,0.81,0.17,1.21
				c0.1,0.42,0.19,0.85,0.25,1.28c0.11,0.82,0.11,1.64,0.01,2.46c-0.04,0.29,0.27,0.54,0.54,0.54c0.32,0,0.5-0.25,0.54-0.54
				c0.11-0.88,0.08-1.75-0.04-2.62c-0.11-0.82-0.31-1.63-0.41-2.45c-0.2-1.71-0.37-3.42-0.56-5.13c-0.19-1.67-0.4-3.35-0.71-5
				c-0.31-1.67-0.67-3.37-1.27-4.96c-0.28-0.73-0.61-1.44-0.99-2.12c-0.39-0.71-0.8-1.47-1.34-2.08c-0.22-0.24-0.39-0.52-0.55-0.8
				c-0.19-0.33-0.47-0.6-0.74-0.87c-0.52-0.53-1.09-1.02-1.53-1.62c-0.87-1.2-1.11-2.72-1.8-4.01c-0.38-0.7-0.91-1.24-1.46-1.8
				c-0.6-0.61-1.19-1.23-1.77-1.86c-1.11-1.2-2.17-2.44-3.18-3.73c-0.5-0.63-0.98-1.28-1.44-1.94c-0.21-0.3-0.41-0.6-0.67-0.86
				c-0.26-0.26-0.51-0.52-0.76-0.79c-1.9-1.99-3.72-4.08-5.89-5.78c-1.09-0.85-2.26-1.6-3.53-2.16c-1.48-0.64-3.06-1.06-4.61-1.48
				c-3.3-0.89-6.65-1.52-10.02-2.1c-1.71-0.3-3.42-0.62-5.14-0.87c-1.78-0.26-3.57-0.38-5.36-0.42c-3.51-0.08-7.02,0.13-10.52,0.03
				c-0.86-0.02-1.72-0.07-2.59-0.13C79.21,82.17,79.21,83.25,79.9,83.3L79.9,83.3z"/>
		</g>
		<g>
			<path class="st1" d="M62.76,120.22c0,0.21,0,0.42-0.01,0.64c-0.01,0.19-0.01,0.23-0.06,0.41c-0.01,0.05-0.03,0.1-0.05,0.15
				c-0.03,0.08,0.04-0.08,0.01-0.01c-0.01,0.02-0.02,0.04-0.03,0.05c-0.03,0.04-0.05,0.09-0.08,0.13c-0.07,0.12,0.03-0.02-0.04,0.06
				c-0.41,0.46-0.83,0.95-1.06,1.53c-0.26,0.67-0.28,1.45-0.24,2.15c0.03,0.69,0.11,1.41,0.32,2.06c0.43,1.31,1.39,2.24,2.65,2.75
				c1.19,0.49,2.54,0.59,3.81,0.6c1.24,0.01,2.47-0.1,3.71-0.15c1.77-0.07,3.4-0.62,4.88-1.57c0.83-0.53,1.61-1.13,2.44-1.67
				c0.86-0.56,1.73-1.12,2.56-1.72c0.38-0.28,0.76-0.56,1.12-0.87c0.09-0.08-0.08,0.06-0.01,0c0.03-0.02,0.07-0.05,0.1-0.08
				c0.08-0.06,0.16-0.11,0.24-0.17c0.42-0.29,0.85-0.58,1.27-0.86c1.07-0.73,2.14-1.48,3.1-2.35c0.78-0.7,1.68-1.6,1.79-2.7
				c0.02-0.22,0-0.44-0.06-0.65c-0.2-0.66-1.24-0.38-1.04,0.29c0.01,0.04,0.02,0.09,0.03,0.14c-0.03-0.09,0-0.07,0,0.01
				c0,0.04,0,0.08,0,0.12c0,0.02,0,0.05-0.01,0.07c0-0.03,0.02-0.1,0-0.03c-0.03,0.09-0.05,0.19-0.08,0.28
				c-0.04,0.12,0.03-0.04-0.02,0.04c-0.03,0.05-0.05,0.1-0.08,0.15c-0.25,0.46-0.49,0.73-0.89,1.12c-0.86,0.86-1.8,1.54-2.8,2.23
				c-0.78,0.54-1.6,1.04-2.34,1.63c-1.51,1.2-3.17,2.17-4.74,3.29c-1.35,0.96-2.7,1.82-4.36,2.11c-0.66,0.12-1.34,0.12-2.01,0.15
				c-0.59,0.03-1.18,0.07-1.77,0.09c-1.24,0.04-2.48,0.04-3.64-0.24c-0.59-0.14-1.03-0.3-1.52-0.61c-0.43-0.27-0.79-0.63-1.05-1.09
				c-0.27-0.47-0.41-1.04-0.49-1.59c-0.09-0.67-0.13-1.44-0.02-2.07c0.02-0.15,0.06-0.3,0.1-0.44c0.01-0.02,0.07-0.18,0.03-0.1
				c0.04-0.08,0.08-0.15,0.12-0.23c0.17-0.28,0.28-0.43,0.47-0.65c0.33-0.38,0.62-0.74,0.71-1.25c0.07-0.39,0.08-0.79,0.08-1.19
				C63.83,119.53,62.75,119.52,62.76,120.22L62.76,120.22z"/>
		</g>
		<g>
			<path class="st1" d="M66.54,118.58c0.86,0.09,1.73,0.23,2.52-0.21c0.32-0.18,0.59-0.4,0.95-0.49c0.34-0.08,0.7-0.06,1.06-0.08
				c0.42-0.02,0.82-0.09,1.2-0.26c0.35-0.15,0.65-0.4,0.94-0.64c0.54-0.42,1.03-0.89,1.55-1.34c0.48-0.42,1-0.8,1.58-1.07
				c0.71-0.33,1.51-0.42,2.28-0.53c0.84-0.13,1.69-0.25,2.51-0.51c0.84-0.27,1.65-0.64,2.5-0.9c0.7-0.21,1.55-0.45,2.22-0.34
				c0.13,0.02,0.32,0.07,0.39,0.11c0.09,0.04,0.18,0.11,0.24,0.17c0.04,0.04,0.1,0.14,0.13,0.21c0.06,0.17,0.06,0.32,0.05,0.49
				c-0.02,0.69,1.05,0.69,1.08,0c0.02-0.7-0.23-1.36-0.84-1.74c-0.53-0.33-1.22-0.38-1.82-0.31c-0.89,0.1-1.75,0.36-2.59,0.66
				c-0.86,0.31-1.7,0.67-2.6,0.86c-0.89,0.19-1.79,0.28-2.68,0.45c-0.75,0.14-1.46,0.42-2.1,0.85c-0.6,0.39-1.14,0.88-1.67,1.35
				c-0.26,0.23-0.52,0.46-0.79,0.68c-0.26,0.22-0.55,0.46-0.87,0.6c-0.38,0.16-0.81,0.13-1.22,0.15c-0.49,0.02-0.97,0.1-1.41,0.33
				c-0.34,0.17-0.64,0.45-1.02,0.52c-0.51,0.09-1.07-0.03-1.58-0.08c-0.29-0.03-0.54,0.27-0.54,0.54
				C66,118.35,66.25,118.55,66.54,118.58L66.54,118.58z"/>
		</g>
		<g>
			<path class="st1" d="M61.71,122.47c0.05-0.15,0.11-0.29,0.17-0.44c-0.02,0.04-0.04,0.09-0.05,0.13c0.19-0.44,0.41-0.87,0.67-1.27
				c0.15-0.24,0.06-0.61-0.19-0.74c-0.27-0.14-0.57-0.06-0.74,0.19c-0.37,0.58-0.67,1.2-0.9,1.84c-0.1,0.27,0.11,0.6,0.38,0.66
				C61.35,122.92,61.61,122.75,61.71,122.47L61.71,122.47z"/>
		</g>
		<g>
			<path class="st1" d="M68.41,132.31c0.26,1.78,1.16,3.26,2.37,4.55c0.57,0.62,1.18,1.23,1.82,1.78c0.5,0.43,1.06,0.83,1.71,0.98
				c1.7,0.39,3.36-0.75,4.76-1.55c0.45-0.26,0.91-0.48,1.4-0.64c0.47-0.15,0.96-0.25,1.45-0.36c0.92-0.21,1.81-0.47,2.59-1.01
				c1.34-0.92,2.3-2.31,3.75-3.07c1.7-0.89,3.28-2,4.63-3.38c0.5-0.51,0.97-1.07,1.45-1.6c0.51-0.56,1.01-1.13,1.48-1.72
				c0.47-0.59,0.94-1.2,1.31-1.86c0.33-0.58,0.59-1.23,0.54-1.91c-0.13-1.67-1.55-3-2.88-3.86c-0.71-0.46-1.49-0.81-2.33-0.98
				c-1.01-0.2-2.03-0.19-3.05-0.16c-0.5,0.02-1,0.04-1.5,0.04c-0.69,0-0.69,1.08,0,1.08c1.8,0,3.78-0.34,5.47,0.46
				c0.63,0.3,1.23,0.69,1.75,1.16c0.52,0.46,1.03,1,1.3,1.65c0.13,0.31,0.19,0.6,0.17,0.92c-0.01,0.09-0.03,0.2-0.06,0.31
				c-0.02,0.06-0.04,0.11-0.06,0.17c-0.01,0.03-0.02,0.07-0.04,0.1c-0.03,0.08,0,0-0.02,0.05c-0.27,0.6-0.66,1.16-1.06,1.69
				c-0.79,1.04-1.69,1.98-2.55,2.97c-1.18,1.35-2.56,2.49-4.11,3.41c-0.75,0.44-1.52,0.8-2.2,1.35c-0.59,0.48-1.12,1.04-1.68,1.56
				c-0.53,0.49-1.11,0.96-1.79,1.22c-0.89,0.34-1.85,0.45-2.76,0.72c-1.74,0.53-3.14,1.95-4.96,2.23c-0.46,0.07-0.91-0.02-1.33-0.27
				c-0.56-0.33-1.04-0.82-1.52-1.3c-1.11-1.1-2.23-2.26-2.73-3.78c-0.13-0.4-0.22-0.81-0.28-1.23c-0.04-0.29-0.41-0.45-0.66-0.38
				C68.47,131.73,68.36,132.02,68.41,132.31L68.41,132.31z"/>
		</g>
		<g>
			<path class="st1" d="M74.37,140.74c0.2-1.1-0.23-2.09-0.79-3.01c-0.26-0.43-1.04-0.28-1,0.27c0.06,0.88,0.1,1.76,0.26,2.63
				c0.14,0.82,0.43,1.59,0.83,2.32c0.23,0.42,0.5,0.82,0.74,1.24c0.23,0.39,0.44,0.79,0.67,1.17c0.47,0.78,1.06,1.51,1.86,1.96
				c3.53,2,7.76,0.72,10.88-1.43c0.78-0.54,1.52-1.13,2.21-1.77c0.34-0.32,0.67-0.64,1.05-0.92c0.39-0.29,0.8-0.55,1.2-0.83
				c0.83-0.56,1.66-1.17,2.2-2.02c0.5-0.78,0.68-1.72,1.19-2.5c0.97-1.5,2.55-2.49,3.55-3.98c0.41-0.61,0.71-1.3,1.05-1.95
				c0.39-0.75,0.77-1.5,1.1-2.28c0.27-0.66,0.54-1.38,0.53-2.1c-0.01-0.79-0.29-1.59-0.79-2.2c-0.9-1.1-2.43-1.35-3.76-1.42
				c-0.33-0.02-0.67-0.03-1-0.03c-0.69-0.01-0.69,1.07,0,1.08c1.21,0.02,2.51,0.03,3.5,0.68c0.43,0.28,0.74,0.74,0.88,1.31
				c0.07,0.3,0.11,0.6,0.07,0.9c0.01-0.08-0.02,0.09-0.02,0.11c-0.02,0.08-0.03,0.16-0.05,0.24c-0.04,0.17-0.1,0.34-0.15,0.51
				c-0.46,1.36-1.23,2.6-1.87,3.88c-0.75,1.51-2.14,2.49-3.23,3.73c-0.61,0.7-1.06,1.46-1.4,2.33c-0.15,0.38-0.29,0.76-0.51,1.1
				c-0.24,0.39-0.58,0.71-0.93,1.01c-0.69,0.57-1.47,1.01-2.18,1.54c-0.72,0.54-1.34,1.2-2.04,1.78c-2.61,2.15-6.22,3.89-9.65,2.84
				c-0.82-0.25-1.6-0.62-2.18-1.28c-0.54-0.62-0.9-1.39-1.31-2.09c-0.42-0.71-0.88-1.39-1.15-2.18c-0.23-0.68-0.33-1.38-0.39-2.09
				c-0.04-0.44-0.06-0.87-0.09-1.31c-0.33,0.09-0.67,0.18-1,0.27c0.39,0.64,0.82,1.4,0.68,2.18c-0.05,0.29,0.08,0.58,0.38,0.66
				C73.96,141.19,74.31,141.03,74.37,140.74L74.37,140.74z"/>
		</g>
		<g>
			<path class="st1" d="M84.55,147.63c-0.01,0.85,0.13,1.75,0.6,2.48c0.41,0.65,1.03,1.11,1.74,1.4c1.47,0.58,3.22,0.35,4.69-0.1
				c1.53-0.47,3.03-1.24,4.14-2.4c1.61-1.68,3.67-3.01,4.74-5.14c0.33-0.66,0.51-1.36,0.78-2.05c0.28-0.72,0.68-1.39,0.97-2.1
				c0.61-1.54,0.29-3.13,0.28-4.74c0-0.69-1.08-0.69-1.08,0c0.01,1.3,0.31,2.67-0.07,3.95c-0.18,0.61-0.49,1.17-0.76,1.75
				c-0.29,0.6-0.49,1.21-0.71,1.83c-0.36,1.01-0.94,1.9-1.67,2.68c-0.75,0.8-1.61,1.49-2.41,2.24c-0.37,0.35-0.72,0.72-1.08,1.07
				c-0.28,0.27-0.46,0.4-0.72,0.59c-0.31,0.21-0.62,0.4-0.95,0.57c-0.35,0.19-0.68,0.33-0.98,0.45c-0.71,0.28-1.46,0.48-2.22,0.59
				c-0.17,0.03,0.11-0.01-0.06,0.01c-0.05,0.01-0.1,0.01-0.15,0.02c-0.09,0.01-0.17,0.02-0.26,0.02c-0.18,0.01-0.37,0.02-0.55,0.02
				c-0.18,0-0.36-0.01-0.54-0.03c-0.03,0-0.06-0.01-0.1-0.01c-0.16-0.02,0.11,0.02-0.04-0.01c-0.09-0.01-0.18-0.03-0.28-0.05
				c-0.18-0.04-0.35-0.08-0.52-0.14c-0.04-0.01-0.08-0.03-0.12-0.05c-0.14-0.05,0.1,0.05-0.03-0.01c-0.08-0.04-0.16-0.07-0.23-0.11
				c-0.08-0.04-0.15-0.08-0.22-0.13c-0.04-0.02-0.07-0.05-0.11-0.07c-0.09-0.06,0.06,0.06-0.04-0.03c-0.14-0.12-0.26-0.24-0.38-0.38
				c-0.06-0.08-0.01-0.01,0,0.01c-0.04-0.05-0.07-0.1-0.1-0.14c-0.05-0.08-0.1-0.15-0.14-0.23c-0.02-0.03-0.04-0.07-0.05-0.1
				c-0.01-0.02-0.07-0.17-0.03-0.06c-0.04-0.09-0.07-0.18-0.1-0.28c-0.14-0.47-0.17-0.79-0.16-1.3
				C85.64,146.94,84.56,146.94,84.55,147.63L84.55,147.63z"/>
		</g>
		<g>
			<path class="st1" d="M99.33,145.66c0.46,1.83,2.48,2,4.05,1.92c0.73-0.04,1.46-0.1,2.2-0.12c0.92-0.02,1.83-0.32,2.66-0.7
				c0.86-0.39,1.71-0.93,2.3-1.69c0.61-0.8,0.62-1.74,0.55-2.7c-0.04-0.5-0.1-0.99-0.13-1.49c-0.04-0.57-0.01-1.14-0.02-1.71
				c-0.03-1.34-0.24-2.62-0.64-3.9c-0.23-0.73-0.48-1.46-0.75-2.18c-0.25-0.69-0.47-1.4-0.82-2.05c-0.59-1.09-1.51-1.96-2.15-3.02
				c-0.28-0.46-0.99-0.26-1,0.27c-0.08,3.28,2.22,5.86,2.9,8.95c0.15,0.68,1.19,0.39,1.04-0.29c-0.65-2.97-2.93-5.52-2.86-8.66
				c-0.33,0.09-0.67,0.18-1,0.27c0.54,0.89,1.26,1.64,1.84,2.5c0.65,0.98,0.98,2.15,1.36,3.25c0.4,1.16,0.81,2.35,0.93,3.57
				c0.11,1.09,0.02,2.18,0.12,3.27c0.08,0.86,0.28,1.9,0.08,2.7c-0.08,0.3-0.25,0.55-0.49,0.8c-0.28,0.29-0.59,0.52-0.93,0.73
				c-0.73,0.45-1.54,0.77-2.37,0.94c-0.56,0.11-1.31,0.09-1.96,0.13c-0.42,0.03-0.84,0.06-1.27,0.07c-0.38,0.01-0.87-0.01-1.16-0.06
				c-0.42-0.07-0.67-0.15-0.97-0.36c-0.08-0.05,0.09,0.08-0.03-0.02c-0.04-0.03-0.07-0.07-0.11-0.1c-0.02-0.02-0.05-0.05-0.07-0.07
				c-0.1-0.12,0.05,0.08-0.04-0.05c-0.13-0.2-0.14-0.24-0.2-0.48C100.2,144.71,99.16,144.99,99.33,145.66L99.33,145.66z"/>
		</g>
		<g>
			<path class="st1" d="M108.8,133.72c0.05-0.15,0.11-0.31,0.16-0.46c-0.3,0.08-0.6,0.16-0.9,0.24c0.8,1.02,1.62,2.02,2.42,3.03
				c0.73,0.91,1.41,1.86,2.11,2.79c0.65,0.88,1.35,1.73,2.12,2.5c0.72,0.72,1.52,1.41,2.45,1.84c1.27,0.6,2.73,0.85,4.12,1.01
				c1.5,0.17,3.07,0.18,4.53-0.21c1.56-0.42,2.92-1.4,3.38-3.01c0.19-0.67-0.85-0.95-1.04-0.29c-0.1,0.34-0.15,0.48-0.35,0.79
				c-0.14,0.23-0.28,0.39-0.53,0.61c-0.14,0.12-0.13,0.12-0.29,0.22c-0.13,0.09-0.26,0.16-0.4,0.24c-0.29,0.15-0.47,0.22-0.81,0.33
				c-1.33,0.41-2.73,0.42-4.16,0.28c-1.18-0.11-2.48-0.36-3.66-0.8c-0.85-0.31-1.58-0.92-2.22-1.53c-0.73-0.7-1.39-1.47-2.01-2.27
				c-0.77-1-1.49-2.03-2.28-3.03c-0.87-1.1-1.75-2.17-2.62-3.27c-0.27-0.34-0.78-0.1-0.9,0.24c-0.05,0.15-0.11,0.31-0.16,0.46
				c-0.09,0.28,0.11,0.59,0.38,0.66C108.44,134.17,108.71,133.99,108.8,133.72L108.8,133.72z"/>
		</g>
		<g>
			<path class="st1" d="M128.67,142.55c0.56-0.01,0.88,0.06,1.43,0.18c0.56,0.12,1.12,0.26,1.68,0.37c1.12,0.23,2.34,0.41,3.43-0.06
				c1.36-0.59,1.74-2.06,2-3.38c0.2-1.01,0.32-2.03,0.38-3.05c0.06-0.95,0.09-1.9-0.05-2.84c-0.23-1.62-1.1-3.07-1.84-4.51
				c-0.85-1.65-1.91-3.18-3-4.69c-2.13-2.94-4.42-5.82-5.66-9.27c-0.27-0.76-0.53-1.53-0.74-2.31c-0.13-0.5-0.23-1-0.37-1.49
				c-0.29-1.01-0.79-2.3-2-2.41c-0.28-0.03-0.57,0.03-0.83,0.13c-0.33,0.13-0.5,0.46-0.32,0.79c0.38,0.72,0.81,1.41,1.2,2.13
				c0.39,0.7,0.7,1.43,0.95,2.19c0.49,1.48,0.89,2.99,1.94,4.18c0.19,0.22,0.57,0.2,0.76,0c0.22-0.22,0.19-0.54,0-0.76
				c-0.97-1.11-1.28-2.6-1.74-3.95c-0.53-1.55-1.42-2.89-2.18-4.33c-0.11,0.26-0.21,0.53-0.32,0.79c0.12-0.05,0.24-0.09,0.37-0.1
				c-0.1,0.01,0.04,0.01,0.07,0c0.02,0,0.05,0,0.07,0c-0.07,0-0.05-0.01,0.01,0c0.05,0.02,0.1,0.03,0.14,0.04
				c-0.09-0.03-0.02-0.01,0.02,0.02c0.02,0.01,0.13,0.09,0.09,0.05c-0.04-0.03,0.07,0.07,0.09,0.09c0.04,0.04,0.07,0.08,0.11,0.12
				c-0.06-0.08,0.02,0.04,0.04,0.06c0.07,0.11,0.13,0.22,0.19,0.33c0.06,0.13,0.07,0.16,0.1,0.24c0.05,0.13,0.09,0.26,0.14,0.39
				c0.15,0.49,0.26,0.98,0.38,1.48c0.16,0.66,0.37,1.3,0.58,1.94c0.54,1.64,1.26,3.19,2.14,4.67c0.92,1.52,1.97,2.95,3.02,4.38
				c1.05,1.43,2.11,2.87,3.03,4.4c0.46,0.76,0.86,1.55,1.27,2.34c0.34,0.65,0.69,1.3,0.93,1.99c0.57,1.61,0.42,3.39,0.24,5.06
				c-0.1,0.92-0.26,1.85-0.5,2.75c-0.15,0.54-0.36,0.98-0.76,1.32c-0.07,0.06,0.03-0.01-0.07,0.05c-0.04,0.03-0.08,0.05-0.12,0.08
				c-0.05,0.03-0.1,0.06-0.15,0.08c-0.03,0.01-0.06,0.03-0.09,0.04c0.05-0.02,0.03-0.01-0.01,0c-0.11,0.04-0.22,0.07-0.33,0.1
				c-0.06,0.01-0.11,0.02-0.17,0.03c-0.12,0.02,0.01,0-0.11,0.01c-0.25,0.02-0.5,0.02-0.75,0.01c-0.13-0.01-0.26-0.02-0.39-0.03
				c-0.03,0-0.06-0.01-0.08-0.01c0.08,0.01-0.02,0-0.03,0c-0.08-0.01-0.15-0.02-0.23-0.04c-1.1-0.18-2.16-0.51-3.27-0.65
				c-0.22-0.03-0.45-0.04-0.68-0.04C127.98,141.48,127.97,142.55,128.67,142.55L128.67,142.55z"/>
		</g>
		<g>
			<path class="st1" d="M138.51,137.63c0.69,0,0.69-1.08,0-1.08C137.82,136.55,137.81,137.63,138.51,137.63L138.51,137.63z"/>
		</g>
		<g>
			<path class="st1" d="M138.24,137.55c1.56,0.77,2.99,1.8,4.63,2.39c0.68,0.25,1.47,0.42,2.18,0.22c0.78-0.22,1.27-0.88,1.51-1.63
				c0.16-0.52,0.21-1.08,0.22-1.63c0.02-0.8,0-1.6-0.01-2.4c0-0.83,0.04-1.67-0.02-2.5c-0.05-0.69-0.17-1.36-0.33-2.03
				c-0.16-0.71-0.34-1.41-0.4-2.14c-0.06-0.81-0.05-1.62-0.17-2.43c-0.12-0.79-0.39-1.57-0.61-2.34c-0.23-0.78-0.47-1.57-0.66-2.36
				c-0.17-0.74-0.25-1.49-0.4-2.23c-0.14-0.7-0.34-1.42-0.81-1.97c-0.38-0.44-0.89-0.75-1.37-1.08c-0.22-0.15-0.38-0.26-0.57-0.45
				c-0.18-0.18-0.26-0.31-0.31-0.54c-0.15-0.68-1.19-0.39-1.04,0.29c0.24,1.05,1.29,1.52,2.07,2.11c0.34,0.27,0.6,0.56,0.75,0.99
				c0.21,0.61,0.31,1.26,0.41,1.89c0.24,1.48,0.68,2.9,1.09,4.34c0.21,0.72,0.41,1.43,0.46,2.18c0.05,0.78,0.05,1.56,0.17,2.34
				c0.2,1.33,0.65,2.59,0.66,3.94c0.01,0.8,0,1.6,0,2.4c0,0.76,0.04,1.52-0.01,2.28c-0.02,0.43-0.08,0.85-0.26,1.27
				c0.04-0.1-0.05,0.1-0.07,0.12c-0.04,0.07-0.08,0.13-0.13,0.2c-0.05,0.07,0.09-0.09,0,0c-0.03,0.03-0.05,0.06-0.08,0.09
				c-0.03,0.03-0.06,0.05-0.08,0.08c-0.09,0.08,0.09-0.06-0.01,0.01c-0.06,0.04-0.12,0.07-0.19,0.11c-0.11,0.06,0.09-0.03,0.01-0.01
				c-0.03,0.01-0.06,0.02-0.09,0.03c-0.07,0.02-0.14,0.04-0.22,0.05c0.16-0.03-0.08,0-0.13,0.01c-0.07,0-0.15,0-0.22,0
				c-0.04,0-0.27-0.03-0.13-0.01c-0.18-0.03-0.36-0.07-0.53-0.12c-0.85-0.24-1.58-0.64-2.41-1.1c-0.8-0.44-1.57-0.92-2.39-1.32
				C138.16,136.31,137.62,137.24,138.24,137.55L138.24,137.55z"/>
		</g>
		<g>
			<path class="st1" d="M96.48,82.45c-0.23-0.05-0.4-0.13-0.56-0.28c-0.2-0.18-0.33-0.36-0.47-0.59c-0.28-0.47-0.46-0.94-0.66-1.43
				c-0.49-1.17-1.32-2.29-1.5-3.57c-0.07-0.52,0.06-0.95,0.31-1.41c0.3-0.55,0.68-1.05,1.09-1.52c0.78-0.89,1.69-1.8,2.87-2.1
				c1.37-0.36,2.65,0.21,3.72,1.03c1.16,0.89,2.14,2,3.07,3.12c1.01,1.23,1.97,2.5,3.06,3.66c1,1.07,2.1,2.05,3.46,2.63
				c0.59,0.26,1.2,0.45,1.83,0.62c0.66,0.18,1.31,0.3,1.88,0.69c0.56,0.38,1.05,0.8,1.68,1.06c0.54,0.22,1.11,0.36,1.63,0.62
				c0.24,0.13,0.41,0.24,0.58,0.45c0.18,0.23,0.57,0.19,0.76,0c0.23-0.23,0.18-0.53,0-0.76c-0.41-0.51-1.07-0.76-1.66-0.98
				c-0.61-0.22-1.14-0.39-1.67-0.76c-0.61-0.44-1.17-0.89-1.91-1.09c-0.67-0.18-1.35-0.35-2.01-0.58c-1.4-0.48-2.5-1.34-3.52-2.39
				c-1.17-1.2-2.17-2.54-3.23-3.83c-1-1.22-2.06-2.39-3.31-3.35c-1.24-0.95-2.68-1.53-4.27-1.27c-1.38,0.23-2.48,1.15-3.41,2.14
				c-0.88,0.94-1.88,2.13-2.01,3.46c-0.13,1.41,0.76,2.77,1.35,3.98c0.25,0.5,0.43,1.03,0.69,1.59c0.27,0.57,0.62,1.12,1.14,1.51
				c0.24,0.18,0.52,0.31,0.81,0.37C96.87,83.63,97.16,82.59,96.48,82.45L96.48,82.45z"/>
		</g>
		<g>
			<path class="st1" d="M104.77,75.77c1.06,0,2.12,0,3.18,0c1.05,0,2.1-0.04,3.15,0.02c0.93,0.05,1.84,0.2,2.75,0.34
				c0.95,0.15,1.89,0.26,2.85,0.34c1.35,0.12,2.67,0.58,3.61,1.58c0.48,0.51,0.81,1.14,1.08,1.78c0.12,0.29,0.23,0.6,0.31,0.91
				c0.07,0.3,0.09,0.37,0.09,0.66c0,0.07,0,0.14-0.01,0.21c0.01-0.11-0.01,0.03-0.02,0.08c-0.01,0.06-0.03,0.11-0.05,0.17
				c-0.04,0.14,0.02-0.01-0.04,0.09c-0.03,0.05-0.05,0.1-0.08,0.15c-0.02,0.02-0.03,0.05-0.05,0.07c-0.04,0.06,0.08-0.09-0.01,0.01
				c-0.08,0.09-0.17,0.18-0.27,0.26c0.08-0.06-0.07,0.05-0.09,0.06c-0.07,0.04-0.14,0.08-0.21,0.12c-0.15,0.08-0.26,0.13-0.39,0.18
				c-0.39,0.15-0.79,0.25-1.2,0.33c-0.28,0.06-0.45,0.39-0.38,0.66c0.08,0.3,0.38,0.44,0.66,0.38c1.22-0.26,2.7-0.74,3.1-2.07
				c0.17-0.57,0.1-1.2-0.06-1.76c-0.2-0.74-0.53-1.49-0.94-2.14c-0.86-1.36-2.21-2.25-3.76-2.61c-0.9-0.21-1.83-0.22-2.75-0.34
				c-1-0.13-1.99-0.32-2.99-0.44c-1.22-0.15-2.45-0.13-3.68-0.13c-1.27,0-2.55,0-3.82,0C104.08,74.7,104.08,75.77,104.77,75.77
				L104.77,75.77z"/>
		</g>
		<g>
			<path class="st1" d="M118.13,85.61c1.97,0.16,3.97,0.1,5.89-0.36c2.02-0.49,3.8-1.57,5.59-2.58c1.82-1.03,3.69-1.96,5.47-3.05
				c0.87-0.54,1.74-1.09,2.61-1.63c0.89-0.56,1.83-1.08,2.71-1.67c0.76-0.51,1.38-1.17,1.93-1.9c0.59-0.77,1.01-1.65,1.52-2.47
				c1.04-1.67,2.24-3.23,3.4-4.82c0.59-0.8,1.14-1.63,1.83-2.35c0.66-0.69,1.38-1.33,1.93-2.11c0.28-0.39,0.51-0.81,0.78-1.19
				c0.27-0.37,0.55-0.73,0.84-1.08c0.6-0.73,1.23-1.43,1.82-2.17c0.59-0.74,1.15-1.51,1.8-2.2c0.64-0.68,1.32-1.31,2.03-1.91
				c0.72-0.61,1.46-1.19,2.2-1.77c0.77-0.61,1.55-1.19,2.25-1.89c0.35-0.35,0.69-0.69,1.04-1.04c0.49-0.49-0.27-1.25-0.76-0.76
				c-0.69,0.69-1.36,1.41-2.13,2.02c-0.74,0.59-1.5,1.17-2.24,1.76c-1.44,1.15-2.83,2.36-4,3.8c-0.61,0.75-1.18,1.53-1.8,2.26
				c-0.61,0.72-1.22,1.43-1.79,2.18c-0.28,0.38-0.55,0.77-0.8,1.17c-0.24,0.4-0.54,0.74-0.86,1.08c-0.64,0.68-1.33,1.3-1.91,2.04
				c-0.63,0.82-1.21,1.67-1.83,2.51c-0.58,0.78-1.16,1.56-1.71,2.36c-0.55,0.79-1.08,1.6-1.56,2.43c-0.24,0.41-0.45,0.83-0.72,1.22
				c-0.24,0.35-0.51,0.69-0.8,1c-0.29,0.31-0.61,0.61-0.96,0.85c-0.42,0.3-0.88,0.54-1.32,0.8c-0.87,0.54-1.74,1.09-2.6,1.63
				c-0.85,0.54-1.71,1.07-2.58,1.58c-0.92,0.54-1.86,1.01-2.79,1.52c-0.9,0.49-1.79,1-2.68,1.5c-0.9,0.5-1.8,1.04-2.76,1.4
				c-1.81,0.68-3.75,0.89-5.67,0.84c-0.47-0.01-0.94-0.04-1.4-0.08c-0.29-0.02-0.54,0.26-0.54,0.54
				C117.59,85.39,117.83,85.59,118.13,85.61L118.13,85.61z"/>
		</g>
		<g>
			<path class="st1" d="M137.97,75.24c-0.02,0.15-0.04,0.31-0.05,0.46c-0.06,0.52,0.78,0.74,1,0.27c0.35-0.75,0.8-1.27,1.37-1.85
				c0.57-0.57,1.18-1.09,1.75-1.66c-0.25-0.25-0.51-0.51-0.76-0.76c-0.35,0.35-0.7,0.7-1.05,1.05c-0.21,0.21-0.21,0.56,0,0.76
				c0.21,0.21,0.56,0.21,0.76,0c0.35-0.35,0.7-0.7,1.05-1.05c0.21-0.21,0.21-0.56,0-0.76c-0.21-0.21-0.55-0.21-0.76,0
				c-1.17,1.16-2.58,2.19-3.29,3.73c0.33,0.09,0.67,0.18,1,0.27c0.02-0.15,0.04-0.31,0.05-0.46c0.03-0.29-0.27-0.54-0.54-0.54
				C138.19,74.7,138,74.95,137.97,75.24L137.97,75.24z"/>
		</g>
		<g>
			<path class="st1" d="M140.06,74.35c0.71-0.12,1.39-0.41,2-0.8c0.19-0.12,0.32-0.38,0.25-0.61c-0.07-0.21-0.28-0.42-0.52-0.4
				c-0.15,0.01-0.31,0.03-0.46,0.04c-0.15,0.01-0.27,0.05-0.38,0.16c-0.09,0.09-0.16,0.25-0.16,0.38c0.01,0.27,0.24,0.56,0.54,0.54
				c0.15-0.01,0.31-0.03,0.46-0.04c-0.09-0.33-0.18-0.67-0.27-1c-0.14,0.09-0.28,0.17-0.43,0.25c-0.08,0.04-0.16,0.08-0.24,0.12
				c-0.03,0.01-0.06,0.03-0.09,0.04c-0.05,0.02-0.04,0.02,0.04-0.02c-0.02,0.01-0.04,0.02-0.06,0.03c-0.31,0.12-0.63,0.22-0.95,0.27
				c-0.13,0.02-0.26,0.14-0.32,0.25c-0.07,0.12-0.1,0.29-0.05,0.41C139.49,74.27,139.76,74.4,140.06,74.35L140.06,74.35z"/>
		</g>
		<g>
			<path class="st1" d="M144.51,121.3c3.23-3.1,7.16-5.31,11.17-7.23c1.26-0.6,2.53-1.17,3.8-1.74c0.27-0.12,0.33-0.51,0.19-0.74
				c-0.16-0.27-0.47-0.31-0.74-0.19c-4.24,1.89-8.5,3.86-12.23,6.64c-1.03,0.77-2.03,1.6-2.96,2.49
				C143.25,121.02,144.01,121.78,144.51,121.3L144.51,121.3z"/>
		</g>
		<g>
			<path class="st1" d="M58.71,67.89c2.88,3.44,6.32,6.39,10.09,8.82c1.87,1.21,3.83,2.3,5.83,3.28c2.09,1.02,4.24,1.87,6.38,2.76
				c2.59,1.08,5.21,2.2,7.99,2.72c0.62,0.12,0.9-0.62,0.41-0.98c-0.95-0.71-2.13-0.49-3.19-0.85c-0.56-0.19-1.07-0.49-1.61-0.73
				c-0.57-0.25-1.18-0.41-1.77-0.61c-2.23-0.74-4.37-1.68-6.44-2.79c-2.16-1.16-4.24-2.47-6.31-3.77c-2.08-1.31-4.13-2.66-6.11-4.1
				c-2.22-1.61-4.35-3.35-6.34-5.24c-0.13,0.31-0.25,0.61-0.38,0.92c0.14,0.01,0.28,0.02,0.42,0.04c0.29,0.02,0.54-0.27,0.54-0.54
				c0-0.31-0.25-0.51-0.54-0.54c-0.14-0.01-0.28-0.02-0.42-0.04c-0.47-0.04-0.7,0.61-0.38,0.92c3.58,3.42,7.63,6.31,11.8,8.96
				c4.1,2.61,8.24,5.19,12.84,6.86c0.65,0.24,1.31,0.45,1.96,0.66c0.63,0.2,1.2,0.51,1.8,0.78c0.63,0.28,1.25,0.44,1.94,0.51
				c0.6,0.06,1.16,0.12,1.65,0.5c0.14-0.33,0.28-0.66,0.41-0.98c-2.45-0.46-4.78-1.39-7.08-2.34c-2.12-0.88-4.25-1.71-6.32-2.69
				c-3.97-1.87-7.76-4.16-11.13-6.99c-1.91-1.6-3.69-3.37-5.29-5.29c-0.19-0.22-0.57-0.19-0.76,0
				C58.48,67.34,58.52,67.66,58.71,67.89L58.71,67.89z"/>
		</g>
		<g>
			<path class="st1" d="M49.28,111.8c1.48,1.3,3.39,1.76,5.07,2.71c0.87,0.49,1.54,1.21,2.32,1.82c0.83,0.65,1.78,1.01,2.72,1.45
				c1.07,0.5,2.13,1.07,3.35,0.85c0.29-0.05,0.45-0.4,0.38-0.66c-0.08-0.3-0.38-0.43-0.66-0.38c-0.89,0.16-1.79-0.4-2.56-0.76
				c-0.87-0.4-1.78-0.72-2.53-1.32c-0.76-0.6-1.42-1.3-2.24-1.8c-0.78-0.47-1.63-0.81-2.46-1.17c-0.92-0.4-1.85-0.83-2.62-1.5
				c-0.22-0.19-0.55-0.21-0.76,0C49.09,111.24,49.06,111.61,49.28,111.8L49.28,111.8z"/>
		</g>
		<g>
			<path class="st1" d="M64.71,117.57c-1.59,0.2-3.15,0.68-4.76,0.53c0.09,0.02,0.18,0.05,0.27,0.07
				c-3.72-1.87-6.98-4.48-10.18-7.09c-0.23-0.18-0.54-0.22-0.76,0c-0.19,0.19-0.23,0.58,0,0.76c1.81,1.48,3.63,2.94,5.54,4.29
				c0.94,0.67,1.9,1.3,2.89,1.89c0.48,0.28,0.96,0.55,1.45,0.81c0.27,0.14,0.54,0.31,0.84,0.35c0.3,0.03,0.6,0.03,0.91,0.02
				c1.29-0.04,2.53-0.4,3.8-0.56c0.29-0.04,0.54-0.22,0.54-0.54C65.25,117.85,65,117.53,64.71,117.57L64.71,117.57z"/>
		</g>
		<g>
			<path class="st1" d="M87.02,118.67c-0.19-0.77-0.76-1.34-1.36-1.81c-0.59-0.47-1.15-0.95-1.71-1.46
				c-0.52-0.48-1.08-0.97-1.77-1.2c-0.72-0.24-1.45-0.02-2.04,0.42c-1.1,0.84-1.78,2.23-2.27,3.5c-0.2,0.52-0.41,1.13-0.36,1.7
				c0.07,0.69,0.42,1.29,0.89,1.78c0.52,0.55,1.18,0.97,1.82,1.37c0.58,0.36,1.22,0.72,1.67,1.13c0.51,0.47,1.27-0.29,0.76-0.76
				c-0.87-0.8-1.98-1.27-2.91-1.99c-0.42-0.32-0.8-0.68-1.03-1.15c-0.03-0.06-0.07-0.17-0.1-0.29c-0.01-0.03-0.04-0.21-0.03-0.1
				c-0.01-0.05-0.01-0.1-0.01-0.15c0-0.05,0-0.11,0.01-0.16c0.01-0.1-0.01,0.04,0.01-0.06c0.02-0.13,0.05-0.26,0.09-0.39
				c0.16-0.57,0.4-1.12,0.67-1.64c0.14-0.27,0.28-0.53,0.44-0.79c0.07-0.11,0.14-0.22,0.21-0.32c0.03-0.04,0.06-0.09,0.09-0.13
				c0.02-0.03,0.04-0.05,0.06-0.08c-0.03,0.04-0.03,0.03,0,0c0.22-0.26,0.46-0.52,0.74-0.7c0.23-0.15,0.44-0.22,0.67-0.22
				c0.19,0,0.4,0.08,0.6,0.2c0.25,0.14,0.48,0.32,0.69,0.51c0.59,0.51,1.15,1.06,1.77,1.54c0.53,0.41,1.16,0.84,1.33,1.52
				C86.14,119.63,87.18,119.34,87.02,118.67L87.02,118.67z"/>
		</g>
		<g>
			<path class="st1" d="M94.23,125.3c-0.03,0-0.21-0.03-0.08,0c-0.06-0.01-0.12-0.02-0.18-0.04c-0.05-0.01-0.1-0.03-0.15-0.05
				c-0.01,0-0.1-0.04-0.04-0.02c0.06,0.03-0.07-0.03-0.06-0.03c-0.11-0.06-0.21-0.12-0.32-0.18c-0.05-0.03-0.1-0.07-0.15-0.1
				c-0.03-0.02-0.06-0.04-0.08-0.06c-0.13-0.1,0.04,0.03-0.04-0.03c-0.45-0.36-0.86-0.77-1.28-1.16c-0.8-0.74-1.85-1.56-3.01-1.16
				c-1.21,0.42-2,1.71-2.22,2.92c-0.21,1.21-0.03,2.52,0.63,3.57c0.34,0.55,0.82,1.04,1.41,1.33c0.69,0.34,1.44,0.4,2.2,0.27
				c0.29-0.05,0.45-0.4,0.38-0.66c-0.08-0.3-0.37-0.43-0.66-0.38c-0.12,0.02-0.18,0.03-0.34,0.03c-0.14,0-0.28,0-0.42-0.02
				c-0.09-0.01,0.07,0.01-0.02,0c-0.03,0-0.05-0.01-0.08-0.01c-0.06-0.01-0.12-0.03-0.18-0.04c-0.06-0.02-0.12-0.04-0.17-0.05
				c-0.03-0.01-0.06-0.02-0.1-0.04c0.05,0.02,0.02,0.01-0.01-0.01c-0.11-0.05-0.21-0.11-0.31-0.17c-0.05-0.03-0.1-0.07-0.15-0.1
				c-0.05-0.04,0,0,0.01,0.01c-0.03-0.03-0.06-0.05-0.1-0.08c-0.19-0.17-0.34-0.34-0.44-0.49c-0.31-0.45-0.45-0.81-0.56-1.34
				c-0.06-0.28-0.08-0.39-0.09-0.7c0-0.13,0-0.26,0-0.39c0-0.06,0.01-0.13,0.01-0.19c0-0.03,0.03-0.22,0.01-0.13
				c0.04-0.26,0.1-0.52,0.19-0.77c0.05-0.15,0.05-0.14,0.11-0.27c0.06-0.12,0.12-0.24,0.2-0.35c0.13-0.2,0.27-0.37,0.5-0.57
				c0.1-0.09,0.13-0.11,0.25-0.19c0.06-0.04,0.12-0.07,0.19-0.1c0,0,0.08-0.04,0.03-0.01c-0.06,0.02,0.07-0.02,0.07-0.02
				c0.04-0.01,0.09-0.03,0.13-0.04c0.03-0.01,0.06-0.01,0.09-0.02c-0.02,0-0.11,0.01-0.01,0c0.04,0,0.09,0,0.13,0
				c0.04,0,0.19,0.03,0.07,0c0.1,0.02,0.2,0.05,0.3,0.08c0.08,0.03-0.05-0.03,0.06,0.02c0.06,0.03,0.13,0.06,0.19,0.1
				c0.09,0.05,0.18,0.11,0.27,0.17c0.14,0.1,0.15,0.1,0.24,0.18c0.2,0.17,0.4,0.34,0.59,0.52c0.85,0.79,1.76,1.79,2.99,1.85
				C94.92,126.41,94.92,125.33,94.23,125.3L94.23,125.3z"/>
		</g>
		<g>
			<path class="st1" d="M98.97,131.61c0.14-0.53,0.13-1.11-0.16-1.6c-0.27-0.45-0.71-0.75-1.2-0.93c-0.94-0.35-2.14-0.25-2.98,0.3
				c-0.93,0.61-1.13,1.6-1.21,2.63c-0.09,1.19-0.01,2.42,0.24,3.59c0.22,1,0.68,2.46,1.84,2.7c0.28,0.06,0.58-0.08,0.66-0.38
				c0.07-0.27-0.09-0.6-0.38-0.66c-0.03-0.01-0.07-0.02-0.1-0.03c-0.02-0.01-0.04-0.02-0.07-0.02c0,0,0.1,0.05,0.05,0.02
				c-0.05-0.03-0.22-0.15-0.12-0.06c-0.06-0.06-0.12-0.11-0.18-0.18c-0.01-0.01-0.09-0.11-0.05-0.06c0.03,0.05-0.05-0.08-0.07-0.1
				c-0.25-0.39-0.33-0.66-0.46-1.13c-0.27-1.01-0.35-1.99-0.33-3.06c0-0.24,0.02-0.48,0.04-0.71c0.01-0.11,0.02-0.22,0.03-0.33
				c-0.01,0.09,0-0.01,0.01-0.04c0.01-0.05,0.02-0.1,0.03-0.16c0.03-0.17,0.08-0.34,0.13-0.51c0.01-0.04,0.04-0.11,0.01-0.03
				c0.02-0.04,0.04-0.08,0.06-0.12c0.02-0.04,0.05-0.08,0.07-0.12c0.05-0.08,0.01-0.02,0,0c0.02-0.02,0.04-0.05,0.06-0.07
				c0.06-0.07,0.13-0.13,0.19-0.19c0.07-0.06-0.05,0.02,0.05-0.04c0.05-0.03,0.09-0.06,0.14-0.09c0.04-0.02,0.08-0.05,0.12-0.07
				c0.02-0.01,0.15-0.07,0.11-0.05c-0.05,0.02,0.07-0.02,0.09-0.03c0.05-0.02,0.11-0.03,0.16-0.05c0.1-0.03,0.2-0.05,0.3-0.07
				c0.02,0,0.05-0.01,0.07-0.01c-0.01,0-0.09,0.01-0.02,0c0.06-0.01,0.13-0.01,0.19-0.02c0.1,0,0.19-0.01,0.29,0
				c0.06,0,0.11,0.01,0.17,0.01c0.02,0,0.05,0,0.07,0.01c0.08,0.01-0.09-0.01,0,0c0.11,0.02,0.23,0.04,0.34,0.08
				c0.05,0.02,0.1,0.03,0.15,0.05c0.12,0.04-0.03-0.03,0.07,0.03c0.09,0.05,0.17,0.1,0.26,0.15c0.1,0.06-0.03-0.04,0.05,0.04
				c0.03,0.03,0.07,0.07,0.1,0.1c0.01,0.01,0.03,0.03,0.04,0.05c0.05,0.06-0.05-0.08-0.01-0.01c0.03,0.04,0.05,0.09,0.08,0.14
				c0.07,0.1,0-0.04,0.02,0.04c0.02,0.05,0.03,0.11,0.05,0.16c0.01,0.02,0.01,0.04,0.01,0.06c0.01,0.08-0.01-0.09,0-0.01
				c0,0.05,0.01,0.11,0,0.16c0,0.03-0.02,0.2-0.01,0.1c-0.01,0.07-0.03,0.14-0.05,0.21C97.75,131.99,98.78,132.28,98.97,131.61
				L98.97,131.61z"/>
		</g>
		<g>
			<path class="st1" d="M159.67,111.46c-1.3-2.51-2.7-5.02-4.63-7.1c-0.92-0.99-2.07-1.82-2.77-3c-0.68-1.16-0.93-2.52-1.44-3.75
				c-1.08-2.63-2.78-4.89-4.28-7.28c-0.79-1.26-1.38-2.61-2.04-3.94c-0.62-1.26-1.44-2.39-2.28-3.5c-0.97-1.28-1.83-2.62-2.47-4.09
				c-0.61-1.4-1.22-2.81-2.27-3.94c-0.47-0.51-1.23,0.25-0.76,0.76c0.9,0.97,1.44,2.19,1.96,3.39c0.57,1.31,1.25,2.53,2.07,3.69
				c0.81,1.14,1.7,2.22,2.4,3.44c0.73,1.28,1.28,2.67,2,3.96c0.69,1.23,1.52,2.39,2.29,3.57c0.75,1.15,1.47,2.33,2.05,3.58
				c0.58,1.24,0.9,2.58,1.43,3.84c0.56,1.31,1.53,2.26,2.55,3.23c2.27,2.18,3.82,4.92,5.26,7.69
				C159.06,112.62,159.99,112.08,159.67,111.46L159.67,111.46z"/>
		</g>
		<g>
			<path class="st1" d="M160.37,112.83c-0.15-0.31-0.31-0.61-0.46-0.92c-0.06-0.12-0.2-0.21-0.32-0.25
				c-0.13-0.04-0.3-0.02-0.41,0.05c-0.11,0.07-0.22,0.18-0.25,0.32c-0.03,0.15-0.01,0.28,0.05,0.41c0.16,0.31,0.31,0.61,0.46,0.92
				c0.06,0.12,0.2,0.21,0.32,0.25c0.13,0.04,0.3,0.02,0.41-0.05c0.11-0.07,0.22-0.18,0.25-0.32c0.01-0.05,0.01-0.1,0.02-0.14
				C160.44,113.01,160.42,112.92,160.37,112.83L160.37,112.83z"/>
		</g>
		<g>
			<path class="st1" d="M192.5,105.73c-0.02-0.02-0.05-0.05-0.08-0.07c0,0-0.01,0-0.01-0.01c0,0,0,0-0.01-0.01
				c-0.05-0.03-0.11-0.06-0.17-0.07c-0.04-0.01-0.08-0.01-0.12-0.02c-0.13-0.02-0.24-0.01-0.35,0.01c-0.01-0.01-0.01-0.01-0.02,0
				c-0.21,0-0.42,0.01-0.62,0.03c-0.14,0.01-0.27,0.02-0.4,0.04c-0.01,0-0.02,0-0.03,0.01c-1.94,0.21-3.79,0.87-5.62,1.54
				c-0.01,0.01-0.01,0.01-0.02,0.01c-2.3,0.85-4.55,1.82-6.76,2.88c-1.08,0.52-2.11,1.11-3.13,1.76c-0.59,0.37-1.18,0.76-1.78,1.13
				c-1.64,0.78-3.26,1.6-4.82,2.52c-0.98,0.19-1.99,0.23-2.91,0.61c-0.51,0.2-0.96,0.49-1.45,0.73c-0.29,0.15-0.66,0.31-1.02,0.31
				c-0.47-0.49-0.83-1.12-1.14-1.7c-0.14-0.26-0.39-0.31-0.6-0.24c-0.04-0.12-0.08-0.23-0.11-0.34c-0.12-0.4-0.56-0.46-0.83-0.28
				c-0.17,0.1-0.28,0.3-0.2,0.56c0.21,0.71,0.49,1.45,0.96,2.03c0.13,0.18,0.3,0.35,0.48,0.49c0.28,0.23,0.6,0.41,0.95,0.48
				c0.04,0.03,0.08,0.07,0.12,0.1c0.65,0.55,1.42,0.87,2.29,0.61c0.04-0.01,0.08-0.02,0.12-0.03c0.55-0.18,1-0.57,1.48-0.89
				c0.52-0.36,1.05-0.7,1.58-1.03c0.23-0.14,0.45-0.27,0.68-0.4c0.16-0.03,0.33-0.06,0.5-0.11c0.58-0.16,1.14-0.5,1.67-0.79
				c0.98-0.54,1.93-1.14,2.88-1.74c1.39-0.66,2.79-1.29,4.2-1.91c1.14-0.5,2.28-1.01,3.4-1.54c0.53-0.25,1.06-0.53,1.61-0.74
				c0.01,0,0.01-0.01,0.02-0.01c0.55-0.22,1.12-0.39,1.7-0.54c1.29-0.33,2.62-0.48,3.92-0.82c0.28-0.07,0.54-0.24,0.81-0.36
				c0.15-0.06,0.31-0.11,0.46-0.17c0.17-0.06,0.32-0.18,0.48-0.29c0.33-0.21,0.65-0.43,0.98-0.65c0.05-0.04,0.12-0.07,0.17-0.11
				l0.01-0.01c0.14-0.02,0.27-0.04,0.4-0.08c0.03,0,0.05,0,0.08-0.01c0.05-0.01,0.09-0.03,0.13-0.05c0.04-0.02,0.08-0.04,0.11-0.09
				c0.02-0.02,0.05-0.05,0.07-0.08c0.03-0.04,0.05-0.09,0.06-0.13c0.02-0.05,0.03-0.11,0.03-0.17
				C192.65,105.94,192.6,105.81,192.5,105.73z M164.75,117.83c-0.07,0.01-0.13,0.02-0.2,0.02c0.05-0.02,0.09-0.04,0.14-0.06
				c0.43-0.21,0.83-0.48,1.27-0.67c0.01,0,0.02-0.01,0.03-0.01C165.6,117.4,165.2,117.73,164.75,117.83z M189.06,107.03
				c-0.19,0.09-0.38,0.2-0.59,0.24c-0.32,0.07-0.64,0.14-0.96,0.21c-0.04,0.01-0.07,0.01-0.11,0.02c0.21-0.07,0.43-0.14,0.64-0.21
				c0.38-0.12,0.76-0.22,1.14-0.3C189.14,107,189.11,107.01,189.06,107.03z"/>
		</g>
		<g>
			<path class="st1" d="M138.13,78.43c0.89,0.9,1.89,1.7,2.72,2.67c0.82,0.95,1.42,2.08,2.01,3.18c0.62,1.18,1.21,2.38,1.82,3.57
				c0.61,1.2,1.28,2.36,1.96,3.52c2.78,4.71,5.4,9.5,8.09,14.26c1.49,2.64,3.06,5.23,4.71,7.77c0.38,0.58,1.31,0.04,0.93-0.54
				c-2.99-4.59-5.61-9.39-8.29-14.16c-1.34-2.39-2.69-4.78-4.08-7.14c-0.68-1.17-1.38-2.32-2.01-3.52c-0.62-1.18-1.2-2.39-1.81-3.57
				c-0.67-1.3-1.35-2.6-2.25-3.76c-0.88-1.13-2.02-2.03-3.03-3.05C138.4,77.17,137.64,77.93,138.13,78.43L138.13,78.43z"/>
		</g>
		<g>
			<path class="st1" d="M161.54,116.7c0.03,0.2-0.1,0.37-0.27,0.46c-0.08,0.05-0.18,0.08-0.27,0.08c-0.31,0.02-0.5-0.26-0.53-0.54
				v0.05c0-0.03-0.01-0.07-0.01-0.08c-0.01-0.04-0.02-0.08-0.03-0.13c-0.02-0.07-0.04-0.13-0.07-0.2c0,0,0,0-0.01-0.01
				c0,0,0-0.02-0.01-0.03c0-0.01-0.01-0.02-0.01-0.03c-0.02-0.04-0.03-0.07-0.05-0.1c-0.04-0.07-0.08-0.14-0.12-0.21
				c-0.18-0.29-0.38-0.55-0.57-0.83c-0.43-0.63-0.7-1.31-0.51-2.07v-0.01c0.01-0.04,0.02-0.08,0.05-0.11
				c0.01-0.03,0.03-0.06,0.05-0.09c0.13-0.16,0.35-0.22,0.56-0.18c0.02,0,0.03,0.01,0.04,0.02c0.27,0.08,0.41,0.38,0.34,0.64
				c-0.01,0.03-0.01,0.06-0.02,0.08c0,0,0,0,0,0.01c0,0.02-0.01,0.03-0.01,0.04v0.15c0,0.01,0,0.01,0,0.01v0.06
				c0,0,0,0.02,0.01,0.05c0,0.04,0.01,0.07,0.02,0.1c0.01,0.04,0.02,0.08,0.04,0.12c0,0.01,0.02,0.04,0.02,0.06
				c0.01,0.01,0.01,0.01,0.01,0.01c0.09,0.19,0.2,0.37,0.32,0.55c0.04,0.06,0.09,0.13,0.13,0.19
				C161.06,115.37,161.45,115.95,161.54,116.7z"/>
		</g>
		<g>
			<path class="st1" d="M50.02,111.03c3.92-3.86,8.07-7.52,11.5-11.84c0.87-1.09,1.7-2.22,2.46-3.39c0.79-1.22,1.46-2.49,2.1-3.79
				c0.62-1.24,1.24-2.48,2.05-3.6c0.77-1.07,1.66-2.04,2.53-3.04c1.87-2.14,4.04-4.89,2.88-7.9c-0.14-0.35-0.45-0.47-0.79-0.32
				c-0.38,0.16-0.77,0.28-1.17,0.38c-0.67,0.17-0.39,1.21,0.29,1.04c0.49-0.12,0.96-0.29,1.43-0.49c-0.26-0.11-0.53-0.21-0.79-0.32
				c0.96,2.49-0.8,4.78-2.35,6.57c-0.86,1-1.75,1.97-2.55,3.02c-0.84,1.09-1.51,2.26-2.13,3.49c-0.63,1.25-1.24,2.52-1.97,3.72
				c-0.72,1.17-1.51,2.29-2.35,3.38c-1.64,2.12-3.46,4.08-5.35,5.97c-2.15,2.16-4.38,4.23-6.56,6.37
				C48.77,110.75,49.53,111.51,50.02,111.03L50.02,111.03z"/>
		</g>
		<g>
			<path class="st1" d="M71.74,79.29c-0.14-0.02-0.02,0.01,0.01,0.01c-0.16-0.04,0.01,0.03-0.06-0.03c-0.08-0.06,0.06,0.1-0.05-0.05
				c0.02,0.02,0.08,0.13,0.01,0c0.01,0.01,0.02,0.06,0.02,0.08c0.01,0.14,0-0.12,0.01,0.03c0.01,0.1,0,0.19,0,0.29
				c-0.01,0.17,0.01-0.06,0,0.04c-0.01,0.05-0.02,0.09-0.02,0.14c-0.02,0.1-0.04,0.2-0.07,0.29c-0.06,0.24-0.14,0.48-0.22,0.71
				c-0.26,0.74-0.61,1.44-0.96,2.17c-1.5,3.11-3.23,6.08-5.39,8.79c-2.11,2.64-4.42,5.13-6.29,7.95c-0.93,1.4-1.72,2.88-2.67,4.26
				c-0.96,1.39-2.17,2.52-3.34,3.72c-0.57,0.58-1.11,1.18-1.59,1.85c-0.47,0.65-0.84,1.37-1.22,2.07c-0.37,0.69-0.75,1.38-1.21,2.01
				c-0.42,0.57-0.96,1.05-1.49,1.52c-0.55,0.48-1.11,0.96-1.57,1.52c-0.38,0.46-0.65,0.97-0.95,1.48c-0.13,0.21-0.26,0.43-0.44,0.6
				c-0.12,0.12-0.25,0.19-0.37,0.17c-0.3-0.04-0.59-0.3-0.84-0.46c-0.34-0.23-0.68-0.48-1.02-0.71c-0.7-0.47-1.45-0.87-2.15-1.35
				c-0.7-0.48-1.38-0.99-2.03-1.52c-1.28-1.04-2.54-2.06-3.94-2.94c-1.37-0.87-2.8-1.65-4.21-2.46c-1.47-0.84-2.89-1.74-4.29-2.69
				c-2.98-2-5.87-4.13-8.9-6.05c-1.44-0.91-2.91-1.78-4.22-2.88c-1.19-1-2.18-2.17-3.09-3.44c-0.48-0.66-0.98-1.31-1.59-1.86
				c-0.22,0.28-0.44,0.56-0.65,0.85c1.16,0.84,2.16,1.87,3.2,2.86c1.03,0.99,2.14,1.88,3.27,2.76c1.11,0.87,2.23,1.73,3.31,2.64
				c0.56,0.47,1.11,0.95,1.64,1.45c0.51,0.48,0.97,1.03,1.52,1.47c0.56,0.45,1.22,0.77,1.73,1.27c0.25,0.25,0.49,0.52,0.75,0.75
				c0.28,0.25,0.6,0.48,0.9,0.71c1.15,0.91,2.31,1.81,3.48,2.69c2.29,1.73,4.65,3.37,7.12,4.84c2.91,1.73,5.85,3.4,8.88,4.92
				c0.22,0.11,0.47,0.09,0.65-0.08c0.26-0.25,0.56-0.45,0.84-0.68c0.3-0.26,0.45-0.63,0.62-0.97c0.34-0.65,0.67-1.3,1.02-1.94
				c0.71-1.28,1.5-2.5,2.58-3.51c0.51-0.47-0.26-1.24-0.76-0.76c-1.08,1.01-1.92,2.25-2.64,3.54c-0.35,0.62-0.67,1.26-1,1.89
				c-0.16,0.3-0.3,0.71-0.54,0.95c-0.27,0.27-0.61,0.46-0.88,0.72c0.22-0.03,0.44-0.06,0.65-0.08c-2.68-1.34-5.29-2.81-7.88-4.33
				c-2.51-1.47-4.94-3.07-7.29-4.8c-1.16-0.86-2.3-1.74-3.44-2.63c-0.58-0.45-1.21-0.88-1.73-1.4c-0.25-0.25-0.5-0.51-0.75-0.75
				c-0.28-0.26-0.62-0.47-0.94-0.68c-0.26-0.17-0.52-0.33-0.75-0.53c-0.29-0.24-0.54-0.54-0.81-0.8c-0.5-0.5-1.03-0.99-1.57-1.45
				c-1.06-0.93-2.18-1.79-3.29-2.66c-1.26-0.98-2.53-1.96-3.69-3.05c-1.19-1.13-2.34-2.3-3.67-3.27c-0.49-0.36-1.1,0.44-0.65,0.85
				c0.66,0.59,1.17,1.3,1.68,2.02c0.47,0.65,0.97,1.28,1.52,1.87c1.16,1.26,2.52,2.28,3.95,3.21c1.49,0.97,3,1.9,4.47,2.9
				c1.55,1.05,3.09,2.13,4.63,3.2c1.51,1.04,3.02,2.08,4.59,3.03c1.42,0.86,2.89,1.65,4.32,2.49c1.45,0.86,2.88,1.77,4.17,2.85
				c1.33,1.12,2.69,2.19,4.18,3.09c0.73,0.44,1.43,0.92,2.14,1.39c0.56,0.37,1.2,0.78,1.89,0.52c0.56-0.21,0.93-0.72,1.22-1.22
				c0.32-0.55,0.6-1.09,1.04-1.56c1.02-1.1,2.26-1.94,3.13-3.19c0.93-1.34,1.5-2.91,2.53-4.19c1.09-1.36,2.45-2.48,3.58-3.8
				c1.1-1.29,1.95-2.75,2.82-4.2c0.92-1.52,1.94-2.98,3.05-4.37c1.08-1.35,2.22-2.66,3.32-4c1.1-1.34,2.17-2.7,3.11-4.16
				c1-1.54,1.87-3.17,2.7-4.81c0.45-0.9,0.9-1.81,1.29-2.74c0.32-0.79,0.77-1.83,0.52-2.69c-0.13-0.47-0.5-0.71-0.97-0.77
				c-0.29-0.03-0.54,0.27-0.54,0.54C71.2,79.07,71.45,79.25,71.74,79.29L71.74,79.29z"/>
		</g>
		<g>
			<path class="st1" d="M33.97,104.2c0,0.02,0.02,0.17,0.01,0.03c0,0.04,0.01,0.09,0.01,0.13c0,0.09,0,0.18,0,0.26
				c0,0.04-0.03,0.3-0.01,0.17c-0.02,0.11-0.04,0.21-0.06,0.31c-0.08,0.38-0.2,0.75-0.3,1.12c-0.21,0.77-0.32,1.62,0.22,2.29
				c0.3,0.37,0.74,0.58,1.18,0.72c0.55,0.18,1.12,0.26,1.69,0.18c0.94-0.14,1.73-0.79,2.21-1.6c0.5-0.84,0.69-1.85,0.52-2.81
				c-0.07-0.43-0.25-0.87-0.5-1.23c-0.27-0.38-0.63-0.62-1.06-0.79c-0.87-0.36-1.87-0.4-2.79-0.27c-0.41,0.06-0.83,0.18-1.19,0.39
				c-0.41,0.24-0.65,0.59-0.79,1.04c-0.38,1.19,0.21,2.38,1.08,3.18c0.86,0.79,1.96,1.34,3.12,1.48c0.29,0.04,0.54-0.27,0.54-0.54
				c0-0.32-0.25-0.5-0.54-0.54c0.13,0.02-0.04-0.01-0.05-0.01c-0.05-0.01-0.1-0.02-0.15-0.03c-0.09-0.02-0.17-0.04-0.26-0.07
				c-0.19-0.06-0.42-0.14-0.54-0.2c-0.38-0.17-0.8-0.42-1.09-0.64c-0.35-0.27-0.65-0.59-0.85-0.92c-0.2-0.32-0.3-0.64-0.29-1
				c0-0.04,0-0.08,0.01-0.11c0.02-0.18-0.02,0.09,0.01-0.08c0.02-0.1,0.05-0.19,0.08-0.29c0.02-0.06,0.06-0.11,0.09-0.19
				c0.01-0.03,0.07-0.07-0.02,0.03c0.03-0.03,0.07-0.07,0.1-0.1c0.05-0.06,0,0-0.02,0.01c0.03-0.02,0.06-0.05,0.1-0.07
				c0.06-0.04,0.12-0.07,0.18-0.1c0.13-0.06-0.11,0.04,0.03-0.01c0.04-0.02,0.09-0.03,0.13-0.05c0.09-0.03,0.18-0.06,0.28-0.08
				c0.65-0.15,1.47-0.13,2.15,0.06c0.08,0.02,0.16,0.05,0.24,0.07c0.05,0.02,0.09,0.03,0.14,0.05c-0.11-0.05,0.03,0.01,0.04,0.02
				c0.07,0.03,0.13,0.07,0.19,0.11c0.03,0.02,0.06,0.04,0.09,0.06c0.03,0.02,0.02,0.02-0.03-0.02c0.02,0.02,0.04,0.03,0.06,0.05
				c0.05,0.05,0.09,0.09,0.13,0.14c-0.08-0.1,0.02,0.04,0.03,0.05c0.03,0.04,0.06,0.09,0.08,0.13c0.11,0.2,0.12,0.22,0.18,0.44
				c0.03,0.09,0.05,0.18,0.06,0.28c0.01,0.02,0.02,0.14,0.01,0.04c0.01,0.05,0.01,0.1,0.01,0.16c0.01,0.19,0.01,0.39-0.01,0.58
				c-0.02,0.17,0.02-0.1-0.01,0.07c-0.01,0.04-0.02,0.09-0.02,0.13c-0.02,0.1-0.04,0.19-0.07,0.29c-0.06,0.2-0.12,0.35-0.17,0.47
				c-0.08,0.17-0.18,0.34-0.29,0.5c0.01-0.01-0.1,0.13-0.05,0.07c0.04-0.06-0.06,0.07-0.06,0.07c-0.07,0.08-0.14,0.15-0.21,0.22
				c-0.22,0.21-0.52,0.39-0.83,0.47c-0.04,0.01-0.27,0.05-0.19,0.04c-0.09,0.01-0.18,0.01-0.27,0.01c-0.27,0-0.37-0.03-0.65-0.1
				c-0.18-0.04-0.46-0.13-0.54-0.18c-0.08-0.04-0.15-0.08-0.22-0.12c-0.02-0.01-0.13-0.1-0.04-0.02c-0.04-0.04-0.08-0.08-0.12-0.11
				c-0.02-0.02-0.04-0.04-0.05-0.06c0.09,0.11-0.01-0.02-0.02-0.05c-0.01-0.02-0.02-0.05-0.03-0.07c-0.04-0.07,0.02,0.1-0.01-0.04
				c-0.01-0.05-0.04-0.26-0.03-0.11c0-0.08-0.01-0.15-0.01-0.23c0-0.04,0-0.08,0.01-0.12c0-0.02,0.02-0.17,0.01-0.09
				c-0.01,0.09,0.01-0.05,0.01-0.05c0.01-0.06,0.02-0.11,0.03-0.17c0.04-0.18,0.09-0.35,0.13-0.52c0.22-0.79,0.47-1.59,0.31-2.42
				c-0.06-0.29-0.4-0.45-0.66-0.38C34.04,103.62,33.91,103.91,33.97,104.2L33.97,104.2z"/>
		</g>
		<g>
			<path class="st1" d="M25.81,97.46c-0.43-0.71-1.09-1.03-1.91-0.9c-0.17,0.03-0.34,0.21-0.38,0.38c-0.28,1.23-0.45,2.78,0.18,3.94
				c0.55,1.01,1.92,1.52,3,1.68c0.63,0.09,1.28,0.08,1.86-0.2c0.5-0.24,0.81-0.71,0.9-1.25c0.2-1.13-0.1-2.46-0.66-3.45
				c-0.34-0.61-0.93-1.04-1.62-1.16c-0.78-0.13-1.57,0-2.35,0c0,0.36,0,0.72,0,1.08c0.67-0.02,1.32,0.07,1.97,0.23
				c0.64,0.16,1.28,0.35,1.93,0.45c0.29,0.05,0.58-0.08,0.66-0.38c0.07-0.26-0.09-0.61-0.38-0.66c-0.68-0.11-1.33-0.31-2-0.47
				c-0.72-0.17-1.45-0.27-2.19-0.25c-0.69,0.02-0.7,1.08,0,1.08c0.61,0,1.21-0.08,1.82-0.06c0.44,0.02,0.84,0.15,1.1,0.48
				c0.07,0.08,0.18,0.31,0.25,0.45c0.01,0.02,0.02,0.05,0.03,0.07c0-0.01-0.03-0.07,0-0.01c0.02,0.06,0.05,0.12,0.07,0.18
				c0.04,0.12,0.08,0.23,0.12,0.35c0.15,0.51,0.24,0.92,0.24,1.43c0,0.11-0.01,0.22-0.02,0.33c-0.01,0.06,0,0,0-0.01
				c0,0.02-0.01,0.05-0.01,0.07c-0.01,0.06-0.02,0.11-0.04,0.17c-0.01,0.02-0.06,0.16-0.04,0.11c0.02-0.05-0.03,0.06-0.04,0.07
				c-0.01,0.02-0.08,0.12-0.04,0.07c0.04-0.05-0.06,0.05-0.08,0.07c0.08-0.07-0.18,0.1-0.15,0.09c0.04-0.02-0.07,0.03-0.1,0.03
				c-0.06,0.02-0.11,0.03-0.17,0.05c-0.03,0.01-0.15,0.03-0.07,0.02c-0.06,0.01-0.13,0.01-0.19,0.02c-0.12,0.01-0.25,0-0.37,0
				c-0.24-0.01-0.42-0.05-0.69-0.12c-0.22-0.06-0.53-0.16-0.68-0.22c-0.22-0.09-0.43-0.21-0.62-0.33c-0.05-0.03-0.1-0.07-0.15-0.1
				c0.07,0.05-0.02-0.02-0.05-0.04c-0.07-0.06-0.14-0.13-0.21-0.2c-0.04-0.04,0.01,0.01,0.01,0.02c-0.03-0.04-0.05-0.08-0.08-0.12
				c-0.03-0.06-0.07-0.12-0.09-0.18c0.02,0.04-0.04-0.09-0.04-0.12c-0.02-0.07-0.04-0.14-0.06-0.21c-0.08-0.3-0.1-0.55-0.1-0.87
				c-0.01-0.64,0.06-1.2,0.19-1.81c-0.13,0.13-0.25,0.25-0.38,0.38c0.13-0.02,0.27,0.01,0.35,0.05c0.14,0.07,0.25,0.2,0.34,0.35
				C25.25,98.59,26.18,98.05,25.81,97.46L25.81,97.46z"/>
		</g>
	</g>
</g>
</svg>
