<svg width="40" height="65" viewBox="0 0 46 62" fill="none" xmlns="http://www.w3.org/2000/svg">
    <path d="M23.2647 1.73633C15.8137 1.73633 11.0728 5.65334 10.1418 11.3063C9.74576 13.9802 10.2334 16.7103 11.5306 19.0818C12.8277 21.4533 14.8636 23.3365 17.3287 24.4453C25.8617 28.2553 35.5728 22.3983 35.5728 14.0703C35.5728 5.59434 29.5367 1.73633 23.2647 1.73633Z" fill="white" />
    <path d="M22.8919 27.1703C20.759 27.1692 18.6505 26.717 16.7049 25.8433C13.9327 24.5929 11.6441 22.4723 10.1864 19.8032C8.72875 17.1342 8.18157 14.0625 8.6279 11.0543C9.7279 4.35431 15.3399 0.195312 23.2659 0.195312C30.1569 0.195312 37.1118 4.4833 37.1118 14.0663C37.0755 16.213 36.5009 18.3162 35.4407 20.1832C34.3805 22.0502 32.8687 23.6212 31.0439 24.7523C28.6179 26.3305 25.786 27.1705 22.8919 27.1703ZM23.2659 3.27031C16.8519 3.27031 12.5129 6.37031 11.6589 11.5543C11.3174 13.8933 11.7477 16.2799 12.8846 18.3524C14.0214 20.4249 15.8028 22.0703 17.9589 23.0393C19.7814 23.8619 21.7813 24.2138 23.7752 24.0627C25.7691 23.9115 27.6931 23.2622 29.3709 22.1743C30.7719 21.3289 31.9351 20.1413 32.7513 18.7231C33.5674 17.3048 34.0099 15.7024 34.0369 14.0663C34.0369 6.1003 28.2339 3.27031 23.2659 3.27031Z" fill="black" />
    <path d="M1.53516 60.2643C2.18016 54.3383 1.52621 48.2513 3.02521 42.4723C3.93864 38.8921 5.70629 35.5866 8.17676 32.8391C10.6472 30.0915 13.7468 27.9838 17.2101 26.6963C24.2401 24.2633 32.7732 26.0613 37.6802 31.5503C41.7572 36.1123 43.0252 42.4343 43.5372 48.4743C43.8672 52.3953 43.9452 56.3313 44.0242 60.2643H1.53516Z" fill="#BEE8FF" />
    <path d="M44.0269 61.8015H1.53691C1.32125 61.8017 1.10796 61.7566 0.910935 61.6689C0.713906 61.5812 0.537582 61.453 0.393418 61.2926C0.249254 61.1322 0.140451 60.9432 0.0742042 60.738C0.0079575 60.5328 -0.0142851 60.3159 0.00889659 60.1015C0.244897 57.9355 0.300886 55.6785 0.360886 53.4965C0.317532 49.6621 0.712112 45.8353 1.53691 42.0905C2.50671 38.2614 4.39531 34.7265 7.03917 31.7918C9.68303 28.8571 13.0024 26.6112 16.7099 25.2485C24.5319 22.5415 33.6279 24.7105 38.8309 30.5335C43.4649 35.7145 44.6009 42.7755 45.0719 48.3475C45.4079 52.3245 45.487 56.3475 45.566 60.2405C45.57 60.4449 45.5331 60.648 45.4576 60.838C45.382 61.0279 45.2693 61.2009 45.126 61.3468C44.9828 61.4926 44.8119 61.6084 44.6233 61.6873C44.4348 61.7663 44.2323 61.8068 44.0279 61.8065L44.0269 61.8015ZM3.21593 58.7265H42.462C42.39 55.3755 42.292 51.9515 42.009 48.5995C41.578 43.4995 40.5659 37.0765 36.5389 32.5715C32.1389 27.6515 24.3969 25.8305 17.7159 28.1445C14.4859 29.3391 11.5958 31.303 9.29576 33.8662C6.99572 36.4293 5.3551 39.5145 4.51592 42.8545C3.74761 46.3718 3.38491 49.9656 3.43492 53.5655C3.38892 55.2615 3.34493 56.9945 3.21593 58.7265Z" fill="black" />
</svg>
    