<svg height="65" viewBox="0 0 105 68" fill="none" xmlns="http://www.w3.org/2000/svg">
    <path d="M83.7329 1.79297C76.6089 1.79297 72.0758 5.50798 71.1838 10.872C70.8097 13.4157 71.2793 16.0119 72.5207 18.2634C73.7622 20.515 75.707 22.2977 78.0578 23.339C86.2188 26.954 95.5039 21.397 95.5039 13.493C95.5039 5.44998 89.7329 1.79297 83.7329 1.79297Z" fill="white"/>
    <path d="M83.3792 25.6144C81.3879 25.6125 79.419 25.1939 77.5992 24.3854C75.0188 23.2385 72.8849 21.2784 71.5235 18.8045C70.1621 16.3305 69.6482 13.4789 70.0603 10.6854C71.0883 4.49638 76.3282 0.650391 83.7352 0.650391C90.1622 0.650391 96.6483 4.62239 96.6483 13.4944C96.624 15.4746 96.0974 17.4162 95.118 19.1374C94.1386 20.8586 92.7382 22.303 91.0482 23.3354C88.7674 24.8237 86.1026 25.6156 83.3792 25.6144ZM83.7342 2.93439C77.4282 2.93439 73.1572 5.97438 72.3132 11.0604C71.9787 13.3542 72.4045 15.6945 73.5256 17.7235C74.6466 19.7525 76.4012 21.3586 78.5212 22.2964C80.3247 23.1049 82.302 23.4485 84.2725 23.2958C86.243 23.1431 88.1438 22.499 89.8012 21.4224C91.1704 20.5951 92.3072 19.4337 93.1049 18.047C93.9027 16.6604 94.3353 15.0939 94.3623 13.4944C94.3633 5.70538 88.6362 2.93439 83.7342 2.93439Z" fill="black"/>
    <path d="M63.6367 66.2076C64.2367 59.0626 63.6277 51.7266 65.0157 44.7636C66.7097 36.2426 71.6327 28.6846 78.1257 25.7496C84.6187 22.8146 92.5067 24.9836 97.0437 31.5996C100.813 37.0996 101.983 44.7166 102.455 51.9946C102.761 56.7216 102.834 61.4666 102.906 66.2096L63.6367 66.2076Z" fill="white"/>
    <path d="M102.906 67.3502H63.6369C63.4792 67.3498 63.3232 67.3167 63.1789 67.2531C63.0345 67.1896 62.9049 67.0968 62.7981 66.9807C62.6914 66.8647 62.6098 66.7278 62.5585 66.5787C62.5072 66.4296 62.4871 66.2714 62.4998 66.1142C62.7218 63.4622 62.7749 60.7212 62.8289 58.0722C62.7876 53.5398 63.1439 49.0124 63.8938 44.5422C65.7308 35.3152 71.0038 27.7172 77.6558 24.7102C84.8708 21.4482 93.2289 24.0162 97.9859 30.9552C102.147 37.0232 103.168 45.3482 103.596 51.9222C103.904 56.6672 103.977 61.4942 104.049 66.1652C104.052 66.3182 104.025 66.4703 103.969 66.6128C103.913 66.7552 103.83 66.8853 103.724 66.9954C103.617 67.1055 103.49 67.1935 103.35 67.2544C103.21 67.3153 103.059 67.3479 102.906 67.3502ZM64.8669 65.0642H101.746C101.678 60.7642 101.594 56.3642 101.314 52.0642C100.908 45.7812 99.9469 37.8512 96.1009 32.2412C91.9799 26.2322 84.7809 23.9892 78.6009 26.7832C72.7009 29.4512 67.8059 36.5942 66.1379 44.9832C65.4162 49.3222 65.0735 53.7158 65.1138 58.1142C65.0668 60.3962 65.0199 62.7422 64.8669 65.0642Z" fill="black"/>
    <path d="M21.1678 6.9541C14.3988 6.9541 10.0927 10.3721 9.24675 15.3071C8.9057 17.6725 9.36269 20.0841 10.5455 22.1608C11.7282 24.2375 13.5693 25.8608 15.7778 26.7741C23.5298 30.0991 32.3528 24.9891 32.3528 17.7181C32.3518 10.3191 26.8688 6.9541 21.1678 6.9541Z" fill="white"/>
    <path d="M20.8398 28.9644C18.9434 28.9628 17.0673 28.575 15.3258 27.8244C12.8843 26.8068 10.8509 25.0055 9.54622 22.7046C8.24151 20.4037 7.73965 17.734 8.11976 15.1164C9.10276 9.37841 14.1038 5.81641 21.1668 5.81641C27.3018 5.81641 33.4938 9.49842 33.4938 17.7234C33.4629 19.5331 32.9762 21.3058 32.0789 22.8776C31.1815 24.4495 29.9024 25.7698 28.3598 26.7164C26.1275 28.1864 23.5126 28.9681 20.8398 28.9644ZM21.1668 8.09741C15.2018 8.09741 11.1668 10.8664 10.3728 15.4974C10.0754 17.6097 10.4894 19.7609 11.5495 21.612C12.6096 23.4631 14.2555 24.9089 16.2278 25.7214C17.9778 26.4688 19.8843 26.7757 21.7805 26.6151C23.6766 26.4546 25.5044 25.8315 27.1038 24.8004C28.3275 24.0585 29.3449 23.0205 30.0623 21.7822C30.7796 20.5439 31.1739 19.1451 31.2088 17.7144C31.2088 10.6184 25.7998 8.09741 21.1668 8.09741Z" fill="black"/>
    <path d="M2.07422 66.2074C2.64022 59.6374 2.06524 52.8873 3.38324 46.4803C4.99324 38.6433 9.6702 31.6904 15.8382 28.9924C18.9939 27.6698 22.5107 27.4832 25.7886 28.4646C29.0665 29.4459 31.9024 31.5343 33.8122 34.3734C37.3912 39.4324 38.5042 46.4393 38.9522 53.1353C39.2442 57.4833 39.3143 61.8484 39.3823 66.2104L2.07422 66.2074Z" fill="white"/>
    <path d="M39.3849 67.3507H2.07599C1.91761 67.3509 1.76087 67.3181 1.61585 67.2545C1.47082 67.1908 1.34069 67.0976 1.23364 66.9809C1.1266 66.8642 1.04498 66.7264 0.994081 66.5764C0.943179 66.4265 0.924109 66.2675 0.93799 66.1097C1.14799 63.6747 1.19996 61.1567 1.24896 58.7197C1.2102 54.5419 1.55025 50.3692 2.26496 46.2527C4.01496 37.7367 9.04096 30.7227 15.382 27.9467C22.251 24.9397 30.214 27.3137 34.747 33.7157C38.714 39.3157 39.6889 46.9957 40.0949 53.0597C40.3889 57.4427 40.4599 61.8917 40.5269 66.1927C40.5293 66.3442 40.5016 66.4946 40.4453 66.6351C40.3889 66.7757 40.3052 66.9037 40.1989 67.0116C40.0926 67.1194 39.9658 67.2051 39.8261 67.2635C39.6864 67.3219 39.5364 67.3519 39.3849 67.3517V67.3507ZM3.30799 65.0677H38.2239C38.1609 61.1567 38.079 57.1447 37.817 53.2127C37.432 47.4487 36.517 40.1727 32.883 35.0347C31.1297 32.4049 28.5155 30.4675 25.4893 29.5551C22.4632 28.6427 19.2137 28.8123 16.299 30.0347C10.713 32.4807 6.08096 39.0257 4.49896 46.7097C3.81604 50.6906 3.49242 54.7249 3.53198 58.7637C3.49298 60.8347 3.44799 62.9587 3.30799 65.0677Z" fill="black"/>
    <path d="M53.6384 22.7109C48.1004 22.7109 44.5794 25.6219 43.8884 29.8249C43.5945 31.8117 43.957 33.8401 44.921 35.602C45.885 37.364 47.3977 38.7631 49.2293 39.5869C55.5703 42.4189 62.7873 38.0679 62.7873 31.8769C62.7883 25.5779 58.3024 22.7109 53.6384 22.7109Z" fill="white"/>
    <path d="M53.3647 41.6163C51.7793 41.6154 50.2117 41.2801 48.7646 40.6323C46.7051 39.7017 45.0052 38.1251 43.9225 36.1413C42.8397 34.1576 42.4333 31.8749 42.7647 29.6393C43.5847 24.6623 47.7527 21.5693 53.6437 21.5693C58.7677 21.5693 63.9337 24.7583 63.9337 31.8773C63.9065 33.4727 63.4796 35.0357 62.6922 36.4235C61.9049 37.8113 60.7821 38.9795 59.4266 39.8213C57.6219 40.9929 55.5164 41.6164 53.3647 41.6163ZM53.6407 23.8543C48.8767 23.8543 45.6526 26.1543 45.0166 30.0113C44.7626 31.7494 45.082 33.5229 45.9265 35.063C46.771 36.6032 48.0946 37.8261 49.6966 38.5463C51.0513 39.1582 52.538 39.42 54.0202 39.3076C55.5025 39.1953 56.9327 38.7124 58.1797 37.9033C59.2214 37.2755 60.0863 36.393 60.693 35.3388C61.2997 34.2846 61.6282 33.0935 61.6477 31.8773C61.6477 25.9553 57.3337 23.8543 53.6407 23.8543Z" fill="black"/>
    <path d="M37.4922 66.2088C37.9712 61.8088 37.4852 57.2808 38.5992 52.9868C39.2791 50.3263 40.5934 47.8701 42.4297 45.8284C44.2659 43.7866 46.5695 42.2201 49.1432 41.2628C54.3652 39.4548 60.7092 40.7928 64.3562 44.8728C67.3862 48.2608 68.3282 52.9598 68.7072 57.4478C68.9552 60.3618 69.0131 63.2868 69.0721 66.2118L37.4922 66.2088Z" fill="#BEE8FF"/>
    <path d="M69.0695 67.3504H37.4905C37.3301 67.3508 37.1713 67.3173 37.0248 67.2522C36.8782 67.1871 36.747 67.0918 36.6398 66.9725C36.5326 66.8532 36.4517 66.7126 36.4026 66.5599C36.3534 66.4072 36.337 66.2459 36.3544 66.0864C36.5294 64.4744 36.5744 62.7964 36.6164 61.1754C36.5847 58.3256 36.8786 55.4815 37.4924 52.6984C38.2126 49.8528 39.616 47.2259 41.5809 45.0452C43.5458 42.8646 46.013 41.1961 48.7685 40.1844C54.5795 38.1704 61.3415 39.7844 65.2055 44.1094C68.6495 47.9624 69.4954 53.2094 69.8434 57.3504C70.0954 60.3064 70.1544 63.2944 70.2124 66.1874C70.2149 66.3392 70.1871 66.49 70.131 66.6311C70.0749 66.7722 69.9914 66.9008 69.8854 67.0094C69.779 67.1178 69.652 67.2037 69.5119 67.2623C69.3718 67.3208 69.2214 67.3508 69.0695 67.3504ZM38.7405 65.0674H67.9035C67.8525 62.5794 67.7794 60.0344 67.5674 57.5414C67.2474 53.7544 66.4974 48.9784 63.5044 45.6324C61.7335 43.8006 59.4734 42.5163 56.9932 41.9327C54.5131 41.349 51.9174 41.4906 49.5154 42.3404C47.1143 43.2277 44.9658 44.6869 43.2559 46.5918C41.546 48.4967 40.3262 50.7898 39.7024 53.2724C39.1338 55.8867 38.8654 58.5573 38.9024 61.2324C38.8684 62.4914 38.8335 63.7804 38.7405 65.0684V65.0674Z" fill="black"/>
    <path d="M7.85749 63.013C7.76106 63.0129 7.66822 62.9762 7.59784 62.9103C7.52747 62.8444 7.4848 62.7542 7.47846 62.658C7.25218 59.3862 7.30301 56.1012 7.63044 52.838C7.64038 52.7373 7.68993 52.6448 7.76813 52.5806C7.84634 52.5165 7.94684 52.486 8.04749 52.496C8.14814 52.5059 8.24068 52.5555 8.30481 52.6337C8.36895 52.7119 8.39942 52.8123 8.38947 52.913C8.06563 56.1343 8.01474 59.3772 8.23743 62.607C8.2443 62.708 8.2108 62.8077 8.14423 62.884C8.07766 62.9603 7.98349 63.0071 7.88245 63.014L7.85749 63.013Z" fill="black"/>
    <path d="M12.8634 63.0139C12.7645 63.014 12.6696 62.9754 12.5988 62.9065C12.528 62.8376 12.4869 62.7437 12.4843 62.6449L12.3673 58.5209C12.3646 58.42 12.4019 58.3221 12.471 58.2485C12.5401 58.1749 12.6355 58.1316 12.7363 58.1279C12.8364 58.1294 12.9322 58.1683 13.005 58.237C13.0777 58.3057 13.1221 58.3991 13.1293 58.4989L13.2434 62.6229C13.2451 62.6728 13.2369 62.7226 13.2192 62.7693C13.2015 62.8161 13.1748 62.8588 13.1405 62.8951C13.1061 62.9314 13.0649 62.9605 13.0192 62.9807C12.9736 63.001 12.9243 63.0119 12.8743 63.0129L12.8634 63.0139Z" fill="black"/>
    <path d="M97.5935 62.465C97.4947 62.4643 97.4 62.4256 97.3291 62.3569C97.2581 62.2882 97.2164 62.1947 97.2125 62.096L96.9065 53.439C96.9047 53.3892 96.9129 53.3395 96.9304 53.2928C96.9479 53.246 96.9746 53.2032 97.0087 53.1668C97.0427 53.1304 97.0837 53.1011 97.1291 53.0805C97.1746 53.06 97.2237 53.0486 97.2735 53.047C97.3744 53.0441 97.4723 53.0809 97.5462 53.1496C97.6202 53.2182 97.664 53.3132 97.6684 53.414L97.9745 62.071C97.9763 62.121 97.9684 62.1708 97.9509 62.2176C97.9335 62.2645 97.9069 62.3074 97.8728 62.3439C97.8387 62.3804 97.7977 62.4098 97.7522 62.4305C97.7067 62.4511 97.6575 62.4625 97.6075 62.464L97.5935 62.465Z" fill="black"/>
    </svg>
    