
<svg version="1.1" id="Layer_1" xmlns="http://www.w3.org/2000/svg" xmlns:xlink="http://www.w3.org/1999/xlink" x="0px" y="0px"
	 viewBox="0 0 29 34" style="enable-background:new 0 0 29 34;" xml:space="preserve">
<style type="text/css">
	.st0{fill:#ACD4F7;}
	.st1{fill:#FFFFFF;}
	.st2{opacity:0.1294;}
</style>
<g>
	<g>
		<path class="st0" d="M20.71,9.67c1.17,2.14-0.3,5.43,0.91,7.19c0.66,0.96,1.65,1.6,2.39,2.49c0.73,0.9,1.16,2.28,0.5,3.28
			c-0.17,0.25-0.4,0.47-0.51,0.75c-0.32,0.76,0.27,1.53,0.67,2.22c2.09,3.65-2,5.87-5.99,4.68c-1.79-0.53-2.47-0.9-3.81-2.22
			c-1.32-1.31-2.07-3.17-2.31-5.09c-0.24-1.91,0-3.88,0.43-5.78c0.5-2.19,1.31-4.42,2.92-5.94S18.92,8.16,20.71,9.67z"/>
		<path d="M20.82,30.77c-0.72,0-1.47-0.1-2.2-0.32c-1.76-0.52-2.48-0.88-3.88-2.26c-1.26-1.24-2.09-3.08-2.35-5.18
			c-0.21-1.7-0.07-3.61,0.44-5.84c0.64-2.79,1.58-4.71,2.97-6.02c0.11-0.1,0.22-0.2,0.32-0.31c1.5-1.44,2.92-2.79,4.7-1.29
			c0.02,0.01,0.03,0.03,0.04,0.05c0.6,1.1,0.53,2.48,0.46,3.81c-0.07,1.3-0.13,2.53,0.44,3.37c0.36,0.52,0.83,0.95,1.29,1.38
			c0.37,0.34,0.76,0.7,1.09,1.11c0.75,0.91,1.23,2.39,0.51,3.47c-0.06,0.1-0.14,0.19-0.21,0.28c-0.12,0.15-0.23,0.29-0.29,0.45
			c-0.24,0.58,0.13,1.19,0.48,1.78c0.06,0.1,0.12,0.2,0.18,0.3c0.79,1.37,0.78,2.68-0.01,3.68C23.99,30.21,22.49,30.77,20.82,30.77z
			 M19.25,9.23c-0.99,0-1.9,0.88-2.92,1.84c-0.11,0.1-0.21,0.2-0.32,0.31c-1.34,1.27-2.25,3.13-2.87,5.86
			c-0.5,2.19-0.64,4.06-0.43,5.73c0.25,2.03,1.06,3.8,2.26,4.99c1.36,1.34,2.02,1.67,3.74,2.18c2.31,0.68,4.76,0.21,5.82-1.13
			c0.71-0.9,0.71-2.05-0.02-3.31c-0.05-0.1-0.11-0.19-0.17-0.29c-0.38-0.63-0.81-1.34-0.5-2.07c0.08-0.2,0.21-0.36,0.34-0.52
			c0.07-0.09,0.13-0.17,0.19-0.25c0.62-0.95,0.18-2.26-0.49-3.09c-0.32-0.39-0.69-0.74-1.06-1.07c-0.47-0.43-0.96-0.88-1.33-1.43
			c-0.64-0.93-0.57-2.21-0.5-3.57c0.07-1.27,0.14-2.59-0.41-3.61C20.11,9.39,19.68,9.23,19.25,9.23z"/>
	</g>
	<g>
		<path class="st0" d="M8.29,10.58c-1.17,2.14,0.3,5.43-0.91,7.19c-0.66,0.96-1.65,1.6-2.39,2.49c-0.73,0.9-1.16,2.28-0.5,3.28
			c0.17,0.25,0.4,0.47,0.51,0.75c0.32,0.76-0.27,1.53-0.67,2.22c-2.09,3.65,2,5.87,5.99,4.68c1.79-0.53,2.47-0.9,3.81-2.22
			c1.32-1.31,2.07-3.17,2.31-5.09c0.24-1.91,0-3.88-0.43-5.78c-0.5-2.19-1.31-4.42-2.92-5.94S10.08,9.07,8.29,10.58z"/>
		<path d="M8.18,31.67c-1.67,0-3.17-0.56-3.97-1.57c-0.79-1-0.79-2.31-0.01-3.68c0.06-0.1,0.12-0.2,0.18-0.3
			c0.36-0.59,0.72-1.2,0.48-1.78c-0.07-0.16-0.18-0.3-0.29-0.45c-0.07-0.09-0.14-0.18-0.21-0.28c-0.71-1.08-0.23-2.56,0.51-3.47
			c0.33-0.41,0.72-0.76,1.09-1.11c0.46-0.42,0.93-0.86,1.29-1.38c0.58-0.84,0.51-2.07,0.44-3.37c-0.07-1.33-0.14-2.7,0.46-3.81
			c0.01-0.02,0.02-0.03,0.04-0.05c1.78-1.51,3.2-0.15,4.7,1.29c0.11,0.1,0.21,0.2,0.32,0.31c1.39,1.31,2.33,3.23,2.97,6.02
			c0.51,2.22,0.65,4.13,0.44,5.84c-0.26,2.1-1.1,3.94-2.35,5.18c-1.4,1.38-2.12,1.74-3.88,2.26C9.64,31.57,8.9,31.67,8.18,31.67z
			 M8.42,10.68c-0.54,1.02-0.47,2.33-0.41,3.61c0.07,1.36,0.14,2.64-0.5,3.57c-0.38,0.55-0.86,1-1.33,1.43
			c-0.36,0.34-0.74,0.69-1.06,1.07c-0.67,0.83-1.12,2.14-0.49,3.09c0.06,0.09,0.12,0.17,0.19,0.25c0.13,0.16,0.25,0.32,0.34,0.52
			c0.31,0.73-0.12,1.44-0.5,2.07c-0.06,0.1-0.12,0.2-0.17,0.29c-0.73,1.27-0.73,2.41-0.02,3.31c1.06,1.34,3.51,1.82,5.82,1.13
			c1.72-0.51,2.38-0.84,3.74-2.18c1.21-1.19,2.01-2.97,2.26-4.99c0.21-1.67,0.07-3.54-0.43-5.73c-0.62-2.73-1.53-4.59-2.87-5.86
			c-0.11-0.1-0.22-0.21-0.32-0.31C11.21,10.59,9.96,9.4,8.42,10.68z"/>
	</g>
	<g>
		<path class="st1" d="M25.23,33.84c0-7.08-5.26-9.05-9.86-9.11c-6.75-0.1-11.48,3.6-11.05,9.02
			C11.55,33.85,18.55,33.81,25.23,33.84z"/>
		<path d="M25.23,34C25.22,34,25.22,34,25.23,34c-2-0.01-3.98-0.01-6.08-0.01c-4.8,0-9.76-0.01-14.83-0.08
			c-0.08,0-0.15-0.07-0.16-0.15c-0.18-2.26,0.52-4.31,2.02-5.92c2.01-2.14,5.36-3.34,9.19-3.28c1.9,0.03,4.61,0.39,6.74,1.96
			c2.17,1.59,3.27,4.05,3.27,7.32c0,0.04-0.02,0.08-0.05,0.12C25.31,33.98,25.27,34,25.23,34z M4.47,33.59
			c5.01,0.07,9.92,0.07,14.68,0.08c2.04,0,3.97,0,5.91,0.01c-0.09-7.8-6.8-8.75-9.69-8.79c-3.75-0.05-7.01,1.11-8.95,3.18
			C5.01,29.57,4.34,31.48,4.47,33.59z"/>
	</g>
	<g>
		<path class="st1" d="M12.49,25.36c0.37-1.54,0.57-3.11,0.76-4.92c0.69-0.19,1.41-0.26,2.12-0.23c0.32,0.01,0.67,0.07,0.88,0.3
			c0.13,0.15,0.17,0.34,0.21,0.53c0.26,1.29,0.52,2.57,0.79,3.86c0.02,0.1,0.04,0.2,0.01,0.3c-0.04,0.14-0.16,0.24-0.29,0.33
			C15.67,26.42,13.77,26.4,12.49,25.36z"/>
		<path d="M14.84,26.34c-0.88,0-1.76-0.29-2.46-0.85c-0.05-0.04-0.07-0.1-0.06-0.16c0.36-1.5,0.56-3.05,0.75-4.9
			c0.01-0.07,0.05-0.12,0.12-0.14c0.71-0.19,1.44-0.27,2.17-0.24c0.33,0.01,0.74,0.07,0.99,0.36c0.16,0.18,0.2,0.42,0.24,0.6
			l0.79,3.86c0.02,0.11,0.05,0.24,0.01,0.38c-0.05,0.19-0.21,0.32-0.35,0.42C16.4,26.12,15.62,26.34,14.84,26.34z M12.67,25.3
			c1.19,0.9,2.97,0.95,4.2,0.1c0.1-0.07,0.2-0.15,0.22-0.24c0.02-0.06,0-0.15-0.02-0.23l-0.79-3.86c-0.03-0.16-0.07-0.34-0.17-0.46
			c-0.17-0.2-0.49-0.23-0.76-0.24c-0.66-0.03-1.32,0.04-1.97,0.2C13.21,22.35,13.01,23.84,12.67,25.3z"/>
	</g>
	<g>
		<path class="st1" d="M19.8,9.71c0,0,0.24,2.46,0.24,3.7c0.68-0.77,2.05-0.09,1.58,1.11c-0.4,1-1.51,0.79-1.51,0.79
			s-0.41,6.26-4.98,6.05c-5.8,0.25-6.08-6.32-6.08-6.32c-0.71,0.98-1.97,0.15-1.91-0.82c0.07-1.06,1.13-1.92,1.99-0.81
			c0.07-1.33,0.23-2.45,0.51-3.8c0.1-0.8,0.68-1.48,1.4-1.88c0.71-0.39,1.54-0.53,2.36-0.57c0.96-0.05,1.94,0.04,2.88,0.24
			C17.56,7.7,18.89,8.3,19.8,9.71z"/>
		<path d="M14.81,21.54c-2.87,0-4.33-1.71-5.05-3.17C9.18,17.19,8.98,16,8.91,15.42c-0.3,0.23-0.66,0.29-1.03,0.16
			c-0.56-0.2-0.95-0.79-0.91-1.37c0.04-0.68,0.45-1.27,0.98-1.44c0.22-0.07,0.61-0.11,1.03,0.25c0.07-1.11,0.22-2.14,0.49-3.44
			c0.1-0.79,0.66-1.54,1.48-1.99c0.64-0.35,1.41-0.54,2.43-0.59c0.98-0.05,1.96,0.04,2.92,0.25c1.66,0.37,2.85,1.14,3.65,2.36
			c0.01,0.02,0.02,0.05,0.03,0.07c0,0.02,0.2,2.08,0.23,3.38c0.35-0.2,0.79-0.2,1.15,0.02c0.37,0.23,0.71,0.76,0.42,1.49
			c-0.31,0.78-1.05,0.94-1.52,0.91c-0.05,0.45-0.22,1.72-0.78,2.99c-0.91,2.08-2.42,3.13-4.35,3.05
			C15.02,21.54,14.91,21.54,14.81,21.54z M9.04,14.88c0.02,0,0.03,0,0.05,0.01c0.07,0.02,0.11,0.08,0.12,0.15
			c0,0.02,0.08,1.64,0.85,3.2c1.03,2.07,2.73,3.07,5.06,2.97c0,0,0.01,0,0.01,0c4.36,0.2,4.81-5.84,4.81-5.9
			c0-0.05,0.03-0.09,0.06-0.12c0.04-0.03,0.08-0.04,0.13-0.03c0.04,0.01,0.99,0.17,1.33-0.69c0.21-0.54-0.01-0.92-0.29-1.09
			c-0.28-0.17-0.72-0.2-1.02,0.15c-0.04,0.05-0.12,0.07-0.18,0.04c-0.06-0.02-0.11-0.08-0.11-0.15c0-1.13-0.2-3.33-0.23-3.65
			c-0.76-1.15-1.85-1.84-3.42-2.19c-0.93-0.21-1.88-0.29-2.84-0.24c-0.97,0.05-1.69,0.22-2.29,0.55c-0.73,0.41-1.22,1.06-1.31,1.75
			c0,0,0,0.01,0,0.01c-0.29,1.43-0.44,2.52-0.5,3.77c0,0.07-0.05,0.13-0.11,0.15c-0.06,0.02-0.14,0-0.18-0.06
			c-0.29-0.38-0.62-0.53-0.95-0.43c-0.4,0.12-0.72,0.61-0.75,1.15c-0.03,0.44,0.27,0.89,0.7,1.04c0.2,0.07,0.59,0.13,0.92-0.32
			C8.94,14.91,8.99,14.88,9.04,14.88z M20.2,13.42L20.2,13.42L20.2,13.42z"/>
	</g>
	<g>
		<path class="st0" d="M22.54,3.41c-0.27-2.04-2.15-3.48-4.19-3.21c-2.04,0.27-3.48,2.15-3.21,4.19c0.27,2.04,2.15,3.48,4.19,3.21
			C21.37,7.33,22.81,5.45,22.54,3.41z"/>
		<path d="M18.84,7.79c-1.92,0-3.6-1.43-3.86-3.39c-0.14-1.03,0.14-2.05,0.77-2.88c0.63-0.83,1.55-1.36,2.58-1.49
			c2.13-0.28,4.09,1.22,4.37,3.35l0,0c0.28,2.13-1.22,4.09-3.35,4.37C19.18,7.78,19.01,7.79,18.84,7.79z M18.84,0.33
			c-0.16,0-0.31,0.01-0.47,0.03c-1.95,0.26-3.33,2.06-3.07,4.01c0.26,1.95,2.06,3.33,4.01,3.07c1.95-0.26,3.33-2.06,3.07-4.01l0,0
			C22.14,1.63,20.6,0.33,18.84,0.33z"/>
	</g>
	<g>
		<path class="st0" d="M17.3,7.72c-2.95,2.8-6.28,3.74-9.58,4.36c-0.2-0.54-0.21-1.9-0.1-2.48c0.27-1.42,0.72-2.7,2.5-4.03
			c1.24-0.93,2.76-1.55,4.31-1.67c1.54-0.12,3.01,0.98,3.64,1.99c1.12-0.13,2.32,0.81,2.85,2c0.45,1.02,0.78,2.72-0.32,4.54
			C20.41,12.32,18,9.4,17.3,7.72z"/>
		<path d="M20.59,12.6c-0.03,0-0.06-0.01-0.09-0.03c-0.25-0.16-2.47-2.89-3.26-4.57c-2.96,2.72-6.31,3.65-9.49,4.25
			c-0.08,0.01-0.16-0.03-0.18-0.1c-0.21-0.58-0.22-1.99-0.11-2.56c0.3-1.59,0.84-2.84,2.56-4.13c1.3-0.98,2.86-1.58,4.39-1.71
			c1.52-0.12,3.01,0.89,3.74,1.98c1.1-0.07,2.34,0.82,2.91,2.1c0.4,0.89,0.89,2.69-0.33,4.69c-0.02,0.04-0.06,0.06-0.1,0.07
			C20.62,12.59,20.61,12.6,20.59,12.6z M17.3,7.56c0.01,0,0.02,0,0.03,0c0.05,0.01,0.1,0.05,0.12,0.1c0.63,1.49,2.57,3.91,3.11,4.51
			c1.01-1.8,0.57-3.4,0.21-4.21c-0.54-1.2-1.69-2.02-2.68-1.9c-0.06,0.01-0.12-0.02-0.16-0.07c-0.64-1.01-2.08-2.02-3.49-1.91
			c-1.47,0.12-2.97,0.7-4.22,1.64C8.4,7.07,8.02,8.39,7.78,9.64c-0.1,0.54-0.09,1.7,0.05,2.26c3.15-0.6,6.46-1.55,9.35-4.29
			C17.22,7.58,17.26,7.56,17.3,7.56z"/>
	</g>
	<g>
		<path d="M14.75,19.16c-0.35,0-0.65-0.13-0.86-0.37c-0.06-0.07-0.05-0.17,0.02-0.23c0.07-0.06,0.17-0.05,0.23,0.02
			c0.29,0.33,0.76,0.25,0.89,0.22c0.41-0.1,0.79-0.36,1.04-0.73c0.05-0.07,0.15-0.09,0.23-0.04c0.07,0.05,0.09,0.15,0.04,0.23
			c-0.3,0.44-0.74,0.75-1.24,0.87C14.98,19.15,14.86,19.16,14.75,19.16z"/>
	</g>
	<g>
		<path d="M17.65,14.01c0.01-0.18-0.15-0.34-0.34-0.35c-0.19-0.01-0.36,0.14-0.36,0.32c-0.01,0.18,0.15,0.34,0.34,0.35
			C17.48,14.34,17.64,14.19,17.65,14.01z"/>
	</g>
	<g>
		<path d="M12.46,13.8c0.01-0.18-0.15-0.34-0.34-0.35c-0.19-0.01-0.36,0.14-0.36,0.32c-0.01,0.18,0.15,0.34,0.34,0.35
			C12.29,14.13,12.45,13.99,12.46,13.8z"/>
	</g>
	<g>
		<path d="M14.47,17.1c-0.03,0-0.06-0.01-0.08-0.02l-0.44-0.26c-0.05-0.03-0.17-0.1-0.2-0.23c-0.03-0.16,0.09-0.27,0.14-0.33
			c0.42-0.41,0.64-0.99,0.58-1.56c-0.01-0.09,0.05-0.17,0.14-0.18c0.09-0.01,0.17,0.05,0.18,0.14c0.07,0.67-0.18,1.36-0.67,1.83
			c-0.01,0.01-0.02,0.02-0.03,0.03c0.01,0,0.01,0.01,0.02,0.01l0.44,0.26c0.08,0.05,0.1,0.14,0.06,0.22
			C14.58,17.07,14.53,17.1,14.47,17.1z"/>
	</g>
	<g>
		<g>
			<path d="M17.59,16.76c-1.15,0-2.11-1.01-2.16-2.28c-0.05-1.3,0.87-2.4,2.06-2.44c0.58-0.02,1.13,0.21,1.55,0.64
				c0.42,0.43,0.66,1.01,0.69,1.64c0.05,1.3-0.87,2.4-2.06,2.44C17.64,16.76,17.62,16.76,17.59,16.76z M17.56,12.36
				c-0.02,0-0.04,0-0.06,0c-1,0.04-1.79,0.98-1.74,2.1c0.04,1.12,0.89,2,1.9,1.97c1-0.04,1.79-0.98,1.74-2.1
				c-0.02-0.55-0.23-1.05-0.59-1.42C18.46,12.56,18.02,12.36,17.56,12.36z"/>
		</g>
		<g>
			<path d="M11.73,16.5c-1.15,0-2.11-1.01-2.16-2.28c-0.05-1.3,0.87-2.4,2.06-2.44c0.58-0.02,1.13,0.21,1.55,0.64
				c0.42,0.43,0.66,1.01,0.69,1.64c0.05,1.3-0.87,2.4-2.06,2.44C11.77,16.5,11.75,16.5,11.73,16.5z M11.7,12.1
				c-0.02,0-0.04,0-0.06,0c-1,0.04-1.79,0.98-1.74,2.1c0.04,1.12,0.89,2,1.9,1.97c1-0.04,1.79-0.98,1.74-2.1
				c-0.02-0.55-0.23-1.05-0.59-1.42C12.6,12.29,12.16,12.1,11.7,12.1z"/>
		</g>
		<g>
			<path d="M13.69,13.84c0,0-0.01,0-0.01,0c-0.09-0.01-0.16-0.08-0.15-0.17c0.03-0.35,0.38-0.56,0.72-0.61
				c0.54-0.09,1.12,0.11,1.49,0.49c0.06,0.06,0.06,0.17-0.01,0.23c-0.06,0.06-0.17,0.06-0.23-0.01c-0.3-0.31-0.77-0.46-1.2-0.39
				c-0.21,0.03-0.43,0.15-0.44,0.31C13.84,13.77,13.77,13.84,13.69,13.84z"/>
		</g>
	</g>
	<g>
		<path d="M20.71,6.1c-0.06,0-0.11-0.03-0.14-0.08c-0.22-0.38-0.57-0.72-1.04-1c-0.43-0.26-0.91-0.45-1.37-0.61
			c-0.08-0.03-0.13-0.12-0.1-0.21c0.03-0.08,0.12-0.13,0.21-0.1c0.47,0.17,0.97,0.36,1.43,0.64c0.51,0.31,0.89,0.68,1.15,1.11
			c0.05,0.08,0.02,0.18-0.06,0.22C20.76,6.09,20.74,6.1,20.71,6.1z"/>
	</g>
	<g class="st2">
		<path d="M12.84,23.17c0.02-0.13,0.05-0.25,0.07-0.38c0.06-0.23,0.11-0.47,0.13-0.71c0.04-0.23,0.08-0.45,0.12-0.68
			c0-0.03,0-0.05-0.01-0.07c0-0.02,0.01-0.03,0.01-0.05c0.01-0.05-0.01-0.09-0.04-0.11c0.14-0.12,0.36,0.01,0.53,0.07
			c0.12,0.04,0.26,0.09,0.52,0.13c0.21,0.04,0.88,0.01,1.07,0.03c0.07,0.01,0.12,0.05,0.15,0.1c0.11-0.06,0.22-0.12,0.33-0.18
			c0.07-0.04,0.14-0.08,0.21-0.12c0.18-0.02,0.35-0.04,0.53-0.07c0,0.02,0,0.04,0.01,0.06c0,0.03,0,0.05,0.01,0.08
			c0.01,0.02,0.01,0.04,0.02,0.06c0.03,0.07,0.06,0.14,0.09,0.21c-0.01,0.01-0.03,0.03-0.05,0.04c-0.63,0.4-1.28,0.76-1.89,1.18
			c-0.31,0.21-0.62,0.41-0.93,0.62c-0.14,0.08-0.27,0.18-0.42,0.22c0,0,0,0,0,0c0,0-0.01,0-0.01,0c-0.01,0-0.01,0-0.02,0
			c-0.01,0-0.02,0.01-0.04,0.01c-0.02,0-0.03,0.01-0.05,0.01c0,0,0,0-0.01,0c0,0,0,0,0,0c-0.03,0-0.06,0-0.09,0
			c-0.12-0.02-0.2-0.1-0.24-0.2c-0.02-0.02-0.04-0.04-0.05-0.07C12.82,23.29,12.83,23.23,12.84,23.17z"/>
	</g>
	<g>
		<g class="st2">
			<path d="M18.53,5.2c-0.01-0.01-0.02-0.02-0.02-0.03C18.51,5.18,18.52,5.19,18.53,5.2z"/>
		</g>
		<g class="st2">
			<path d="M20.48,6.19c-0.43-0.42-0.94-0.77-1.52-0.92c-0.15-0.05-0.31-0.08-0.46-0.12c-0.01-0.01-0.02-0.02-0.03-0.04
				c-0.01-0.01-0.02-0.02-0.02-0.03c-0.04-0.06-0.12-0.15-0.15-0.19c-0.44-0.64-1.07-1.08-1.76-1.41c-0.34-0.16-0.76-0.36-1.14-0.35
				c-0.49,0.05-0.54,0.78-0.06,0.9c1.02,0.2,1.74,0.66,2.17,1.28c0.07,0.11,0.16,0.22,0.23,0.34c0.08,0.24,0.33,0.39,0.57,0.34
				C19.23,6.18,19.57,6.37,20.2,7c0.22,0.34,0.72,0.24,0.74-0.18C20.92,6.54,20.65,6.39,20.48,6.19z"/>
		</g>
	</g>
	<g>
		<path d="M9.03,14.31c-0.01,0-0.01,0-0.02,0c-0.09-0.01-0.16-0.09-0.15-0.18l0.07-0.77c0.01-0.09,0.09-0.15,0.18-0.15
			c0.09,0.01,0.16,0.09,0.15,0.18l-0.07,0.77C9.19,14.25,9.12,14.31,9.03,14.31z"/>
	</g>
	<g>
		<path d="M20.02,14.34C20.01,14.34,20.01,14.34,20.02,14.34c-0.09,0-0.16-0.08-0.16-0.17l0.02-0.95c0-0.09,0.07-0.16,0.17-0.16
			c0.09,0,0.16,0.08,0.16,0.17l-0.02,0.95C20.18,14.27,20.1,14.34,20.02,14.34z"/>
	</g>
</g>
</svg>
