<svg version="1.1" id="Layer_1" xmlns="http://www.w3.org/2000/svg" xmlns:xlink="http://www.w3.org/1999/xlink" x="0px" y="0px"
    viewBox="0 0 293 392.7" style="enable-background:new 0 0 293 392.7;" xml:space="preserve">
    <style type="text/css">
.st0{fill:#42BBC7;stroke:#1C75BC;strokeWidth:5;strokeMiterlimit:10;}
.st1{fill:#DEE0EF;stroke:#1C75BC;strokeWidth:5;strokeMiterlimit:10;}
.st2{fill:#FFFFFF;stroke:#1C75BC;strokeWidth:3;strokeMiterlimit:10;}
.st3{fill:#FFFFFF;stroke:#1C75BC;strokeWidth:4;strokeMiterlimit:10;}
.st4{fill:#8589B3;}
.st5{fill:none;stroke:#8589B3;strokeWidth:4;strokeMiterlimit:10;}
.st6{fill:#FFFFFF;stroke:#FFFFFF;strokeWidth:3;strokeMiterlimit:10;}
</style>
    <path class="st0" d="M288.4,390.1c-1.4,0.1-2.8,0.2-4.1,0.2c-91.9,0-183.8,0-275.8,0c-1.6,0-3.1-0.1-4.7-0.1c-0.9-0.8-1.3-1.9-1.3-3
c0.1-15.2-1.3-30.4,3-45.4c10-34.3,42.1-58.4,80.4-59.6c6.9-0.2,8.6-3.9,10.4-8.6c3-1.2,4.8,0.9,6.8,2.3c12,8.7,23.9,17.3,36,25.8
c6.2,4.3,7.9,4.3,14.2-0.1c12.5-8.8,24.8-17.8,37.3-26.6c1.6-1.1,3.1-3.9,6.1-1.8c2.2,8,2.9,8.4,12,8.8
c35.2,1.2,67.6,25.8,77.7,58.7c4.7,15.4,3.3,31.2,3.3,46.8C289.7,388.5,289.2,389.4,288.4,390.1z" />
    <path class="st1" d="M256.4,272.2c-4.8,5.6-10.8,10.3-16.5,15.2c-0.4,0.3-0.8,0.6-1.1,1c-0.8,0.7-2.8,0.9-4,0.4
c-8.1-3.1-16.6-4.3-25.2-4.6c-2.6-0.1-5.1-0.5-7.5-1.2c-0.7-0.2-1.3-0.4-2-0.7c-10.5-3.8-18.8-13.1-21.7-23.9
c-0.1-0.4-0.2-0.8-0.3-1.2c-0.1-0.7-0.3-1.3-0.4-2c1.1-0.5,2.1-1.2,2.9-2.2c0.1-0.1,0.2-0.1,0.4-0.2c0.7-0.4,1.5-0.7,2.2-1.1
c33.5-16.7,51.4-43.6,52.6-81.2c0.5-14.2,0.1-28.5,0.1-42.8c0-5.6-2.1-8.2-7.6-8.8c-15.7-1.6-25.3-10.4-30.3-25
c-2.3-6.9-6.8-8.6-12.9-4.6c-6.9,4.5-14,8.6-21.4,12.2c-26.9,13-55.3,19.3-85.2,19c-5.8-0.3-11.5-0.6-17.3-1c-4,2-5.3,5.3-5.2,9.7
c0.2,15.4,0.1,30.8,0.1,46.3c0.2,8.2,2,16.2,4.8,23.9c8.9,25.1,26,42.6,50.1,53.4c0.1,0.1,0.2,0.1,0.4,0.2c0.8,0.9,1.7,1.5,2.6,2
c-0.1,0.7-0.2,1.3-0.4,2c-0.1,0.4-0.2,0.9-0.3,1.3c-2.8,11.2-10.2,19.6-20.9,23.6c0,0,0,0,0,0c-0.7,0.3-1.4,0.5-2.2,0.7
c-1.2,0.4-2.5,0.7-3.8,0.9c-5,1-10.2,0.5-15.2,1.4c-4.8,0.8-9.3,2.6-14,3.7c-1.2,0.3-2.8,0.3-3.7-0.3c-0.4-0.3-0.8-0.5-1.1-0.8
c-18.5-13.7-31.2-31.4-35.8-54.3c-4.6-23.2-0.7-44.8,12.1-64.7c6.8-10.6,11.8-21.9,13.7-34.4c0.6-3.9,1.1-7.9,1.1-11.9
c0.1-13.2,0-26.5,0.1-39.7c0.3-39.2,30.9-74.5,69.8-79.7c10.8-1.5,21.9-1,32.8-1.4c0,0.3,0,0.7,0,1c10,0,20.1-1.2,29.9,0.2
C211,7.7,234,27.5,244.8,60.8c2.5,7.7,3.1,16.1,3.6,24.3c0.6,10.7,0.4,21.5,0.1,32.2c-0.4,18.8,5,35.7,15.1,51.5
C284.4,201.4,281.5,243,256.4,272.2z" />
    <path class="st2" d="M235.7,170.8c-1.2,37.5-19.1,64.5-52.6,81.2c-0.7,0.4-1.5,0.7-2.2,1.1c-0.1,0.1-0.2,0.1-0.4,0.2
c-0.8,1-1.8,1.7-2.9,2.2c-1,0.5-2.1,0.8-3.1,1.2c-15.7,5.1-31.7,5.9-47.9,2.5c-1.3-0.3-3-0.3-3.6-1.9c0,0-0.1,0-0.2,0
c-3.1-0.2-6.2-0.4-8.9-1.9c-0.9-0.5-1.8-1.2-2.6-2c-0.1-0.1-0.2-0.1-0.4-0.2c-24.1-10.8-41.2-28.3-50.1-53.4
c-2.7-7.7-4.6-15.6-4.8-23.9c0-15.4,0.1-30.8-0.1-46.3c0-4.4,1.2-7.7,5.2-9.7c5.7,0.3,11.5,0.6,17.3,1c2,0.7,3.8,1.7,5.3,3
c0.4,0,0.9,0,1.3,0c-1.8-1.6-4-2.6-6.6-3c29.9,0.3,58.3-6,85.2-19c7.4-3.6,14.5-7.7,21.4-12.2c6.1-4,10.5-2.3,12.9,4.6
c4.9,14.6,14.5,23.5,30.3,25c5.5,0.5,7.6,3.1,7.6,8.8C235.8,142.3,236.1,156.6,235.7,170.8z" />
    <path class="st3" d="M202,281.5c-5.5,4.7-11,9.4-16.5,14.1c-11.3,9.3-22.7,18.7-34,28c-4.2,3.5-6.8,3.4-11,0
c-11-9-22.1-18.1-33.1-27.1c-3.8-4.3-8.6-7.4-12.9-11.2c-1.6-1.4-3.2-2.7-4.4-4.4c10.6-5.6,17.1-14.7,20.6-26.6
c1.8-1.3,3.5-0.2,5.1,0.4c20.2,7.6,40.5,7.6,60.7,0c1.6-0.6,3.3-1.6,5.1-0.4c3.3,11.4,9.5,20.3,19.6,26
C201.3,280.6,201.6,281.1,202,281.5z" />
    <circle class="st4" cx="108.5" cy="149.8" r="6.1" />
    <circle class="st4" cx="179.3" cy="149.8" r="6.1" />
    <path class="st5" d="M100.9,203.1c0,0,33.9,52.6,78.5,0" />
    <rect x="76.1" y="123.7" class="st6" width="14.2" height="6.6" />
</svg>