<svg xmlns="http://www.w3.org/2000/svg" xmlns:xlink="http://www.w3.org/1999/xlink" version="1.1" id="Layer_1" x="0px" y="0px" viewBox="0 0 200 200" style="enable-background:new 0 0 200 200;" xml:space="preserve">
    <style type="text/css">
        .st0{fill:#38B6FF;}
        .st1{fill:#1A1A1A;}
        .st2{fill:none;stroke:#1A1A1A;stroke-width:4;stroke-miterlimit:10;}
        .st3{fill:#333333;}
        .st4{fill:#FFFFFF;}
        .st5{fill:#1C1C1B;}
        .st6{fill:#2B2A2A;}
    </style>
    <g>
        <path class="st0" d="M54.8,34.21c0,0,40.32-44.94,58.76,2.93c0,0-18.75-29.84-59.41-2.74"/>
        <g>
            <path class="st0" d="M54.26,106.16l3.84,8.85l0.89,2.66l-1.77,0.59l-2.66,0.3C54.56,118.55,53.08,106.16,54.26,106.16z"/>
            <path class="st0" d="M92.62,104.09c0,0,2.32,5.57,0.13,12.82l-3.08-0.72h-0.59L92.62,104.09z"/>
            <path class="st0" d="M74.33,129.76l7.38-0.59l-0.3-1.77l-1.77-7.97l-2.36-11.51l-1.13-4.05l-0.34-0.67l-0.62,1.17    C75.18,104.37,73.15,129.47,74.33,129.76z"/>
            <g>
                <g>
                    <path class="st6" d="M117.25,160.63c-7.34-4.38-16.06-7.17-24.34-9.15c-8.32-1.99-16.87-2.98-25.42-3      c-17.14-0.04-34.57,3.82-49.71,11.96c-0.25,0.13,0.05,0.48,0.28,0.37c15.49-7.54,32.3-11.61,49.56-11.53      c8.48,0.04,16.96,1.05,25.2,3.04c8.51,2.05,16.21,5.44,24.15,9C117.47,161.54,117.68,160.89,117.25,160.63z"/>
                    <path class="st6" d="M18.01,161.27c0.17-0.06,0.05-0.3-0.11-0.26c-2.51,0.64-3.23,4.26-1.18,5.84c0.28,0.22,0.58-0.14,0.32-0.38      C15.4,165.01,15.98,162.04,18.01,161.27z"/>
                    <path class="st6" d="M119.26,167.68c-0.04-0.01-0.08-0.01-0.12-0.02c1.78-1.6,0.89-4.8-1.27-5.58      c-0.17-0.06-0.25,0.16-0.09,0.23c1.98,0.87,2.19,3.39,0.9,4.92c-0.09,0.11-0.06,0.25,0.02,0.36      c-16.87-2.83-33.94-4.35-51.04-4.47c-8.7-0.06-17.4,0.24-26.08,0.91c-8.45,0.65-17.16,1.31-25.44,3.19      c-0.18,0.04-0.07,0.3,0.09,0.29c1.07-0.09,2.15-0.19,3.22-0.29c-4.74,1.73-9.44,3.59-14.09,5.55c-0.17,0.07-0.05,0.32,0.12,0.27      c4.94-1.64,9.86-3.4,14.7-5.29c0.3-0.12,0.24-0.44,0.06-0.61c7.16-0.72,14.29-1.73,21.48-2.24c8.52-0.6,17.07-0.87,25.61-0.8      c17.37,0.15,34.71,1.71,51.83,4.63C119.9,168.86,119.94,167.8,119.26,167.68z"/>
                    <path class="st6" d="M4.86,174.31c-2.72,1.84-3.43,6.04-1,8.44c0.23,0.23,0.57-0.08,0.38-0.34c-1.81-2.43-1.71-5.92,0.8-7.87      C5.17,174.44,5,174.22,4.86,174.31z"/>
                    <path class="st6" d="M124.86,183.04c-19.94-0.47-39.94-0.08-59.89-0.05c-19.92,0.03-39.91-0.33-59.82,0.39      c-0.27,0.01-0.17,0.37,0.06,0.38c19.95,0.71,39.98,0.36,59.94,0.39c19.94,0.03,39.94,0.43,59.87-0.05      C125.76,184.08,125.49,183.05,124.86,183.04z"/>
                    <path class="st6" d="M128.81,173.76c-3.74-2.43-7.95-4.73-12.06-6.46c-0.16-0.07-0.29,0.14-0.14,0.24      c3.64,2.56,7.81,4.94,11.85,6.81C128.84,174.53,129.18,174,128.81,173.76z"/>
                    <path class="st6" d="M129.17,174.29c-0.22-0.17-0.45,0.11-0.25,0.3c2.32,2.24,2.16,5.3,0.57,7.86      c-0.29,0.47,0.36,1.04,0.75,0.62C132.59,180.61,131.67,176.25,129.17,174.29z"/>
                    <path class="st6" d="M128.04,183.09c-0.71,0.49-1.67,0.5-2.37-0.03c-0.28-0.21-0.59,0.15-0.31,0.38      c0.88,0.73,2.12,0.71,2.97-0.06C128.48,183.24,128.21,182.98,128.04,183.09z"/>
                    <path class="st6" d="M54.54,35.6C42.98,58.03,35.34,84.1,32.2,111c-0.03,0.27,0.31,0.4,0.34,0.1      c3.44-26.93,11.13-52.27,22.49-74.95C55.23,35.74,54.75,35.2,54.54,35.6z"/>
                    <path class="st6" d="M111.25,114.48c-3.39,7.9-8.47,12.47-14.91,15.19c-7.07,2.98-14.71,3.81-22.09,3.81      c-8.27,0-16.52-1.43-24.53-4.21c-6.35-2.2-14.29-5.83-16.08-15.39c-0.05-0.27-0.4-0.31-0.36,0.02      c0.78,6.53,4.78,10.75,9.04,13.38c5.81,3.59,12.43,5.31,18.73,6.49c7.09,1.34,14.29,1.61,21.43,0.81      c5.85-0.66,11.79-1.85,17.26-4.81c5.09-2.76,10.47-7.49,12.5-14.67C112.45,114.33,111.57,113.73,111.25,114.48z"/>
                    <path class="st6" d="M111.74,106.44c-4.7-17.27-18.11-18.99-27.54-19.98c-7.03-0.74-14.09-0.32-21.07,1.23      c-6.21,1.38-12.64,3.25-18.5,7.21c-5,3.38-9.71,8.83-11.25,18.37c-0.08,0.51,0.39,0.97,0.49,0.42      c2.04-10.97,8.5-16.22,14.35-19.14c7.56-3.77,15.49-5.7,23.32-6.38c7.75-0.67,15.69-0.19,23.34,2.27      c6.19,1.99,12.75,6.11,15.81,16.58C111,108.11,112.08,107.71,111.74,106.44z"/>
                    <path class="st6" d="M113.11,36.52c-1.54-11.98-12.65-20.13-23.54-21.02c-12.98-1.05-25.39,6.44-33.26,16.92      c-0.18,0.24,0.19,0.55,0.39,0.33c8.27-8.88,18.3-16.2,30.64-16.14c11.77,0.06,22.02,7.75,24.58,19.95      C112.07,37.29,113.22,37.38,113.11,36.52z"/>
                    <path class="st6" d="M114.02,45.92c-0.04-2.72-0.09-5.53-0.47-8.22c-0.03-0.21-0.39-0.29-0.42-0.05      c-2.34-11.72-14.58-18.75-25.74-18.63c-14.21,0.16-26.06,9.29-34.57,20.07c-0.1,0.12,0.1,0.29,0.21,0.17      c8.35-9.51,18.95-18.03,31.95-19.1c12.33-1.01,23.94,5.78,27.16,18.16c0.11,0.42,0.61,0.6,0.91,0.46      c-0.13,2.33-0.04,4.72,0.05,7.04c0,0.09,0.05,0.17,0.11,0.24c-0.01,0.35-0.02,0.71-0.03,1.06c0.14-0.07,0.27-0.15,0.41-0.21      c0-0.22-0.01-0.44-0.01-0.66C113.79,46.3,114.02,46.2,114.02,45.92z"/>
                    <path class="st6" d="M113.47,75.06c0.02-4.03,0.06-8.07,0.09-12.11c-0.24,0.12-0.48,0.24-0.71,0.36      c-0.04,4.03-0.08,8.06-0.14,12.09c-0.07,5.21-0.16,10.41-0.24,15.62c-0.08,5.05-0.47,10.21-0.13,15.25      c0.03,0.47,0.86,0.62,0.91,0.08c0.48-5.32,0.14-10.8,0.16-16.14C113.44,85.16,113.45,80.11,113.47,75.06z"/>
                    <path class="st6" d="M43.23,91.44c-8.17,3.94-12.42,12.69-10.71,21.57c0.04,0.18,0.34,0.2,0.31-0.01      c-1.34-8.74,2.96-17,10.79-21.02C43.98,91.79,43.56,91.28,43.23,91.44z"/>
                    <path class="st6" d="M177.79,19.14c-9.55,3.86-35.82,15.42-45.32,19.4c-9.49,3.98-19.1,7.76-28.46,12.03      c-0.28,0.13-0.07,0.54,0.19,0.44c9.63-3.62,19.09-7.78,28.6-11.7c9.52-3.93,35.85-15.33,45.32-19.38      C178.63,19.72,178.25,18.95,177.79,19.14z"/>
                    <path class="st6" d="M113.87,103.66c-3.43-11.47-14.13-19.01-25.5-21.31c-14.13-2.86-28.34,1.39-41.21,7.03      c-0.17,0.07-0.04,0.33,0.12,0.27c12.41-4.95,25.8-9.13,39.29-6.81c11.84,2.04,22.44,9.45,26.26,21.14      C113.05,104.66,114.09,104.4,113.87,103.66z"/>
                    <path class="st6" d="M112.66,107.44c0-0.18-0.32-0.29-0.33-0.07c-0.06,1.85-0.16,3.71-0.1,5.56c0.01,0.27,0.47,0.43,0.48,0.11      C112.79,111.18,112.71,109.31,112.66,107.44z"/>
                    <path class="st6" d="M58.49,94.28c-7.91,1.92-16.6,4.29-21.66,11.22c-3.82,5.23-4.31,12.71,0.51,17.49      c0.18,0.17,0.47-0.07,0.3-0.27c-4.97-5.57-3.16-13.61,1.7-18.58c5.17-5.28,12.6-7.18,19.51-9.02      C59.41,94.96,59,94.16,58.49,94.28z"/>
                    <path class="st6" d="M111.32,112.59c-0.96-8.43-7.47-14.91-15.03-18.11c-10.13-4.28-21.38-2.44-31.89-0.94      c-0.22,0.03-0.14,0.34,0.05,0.32c9.84-1.25,20.57-2.48,30.08,1.08c7.74,2.9,14.5,9.21,15.62,17.68      C110.23,113.33,111.41,113.38,111.32,112.59z"/>
                    <path class="st6" d="M57.52,30.36c-0.52,0.65-1.02,1.3-1.5,1.97c-0.43,0.59-0.95,1.19-1.22,1.87c-0.04,0.11,0.1,0.24,0.2,0.17      c0.58-0.44,1.01-1.1,1.46-1.67c0.51-0.65,1-1.31,1.49-1.99C58.13,30.46,57.72,30.11,57.52,30.36z"/>
                    <path class="st6" d="M50.2,56.75c-5.2,3.51-8.88,8.92-9.89,15.15c-0.02,0.12,0.2,0.22,0.24,0.08c1.5-6.07,4.8-11.24,9.91-14.89      C50.66,56.94,50.4,56.62,50.2,56.75z"/>
                    <path class="st6" d="M98.39,54.3c-13.33-6.96-29.74-6.71-43.11-0.02c-0.12,0.06,0.02,0.24,0.14,0.19      C69,48.02,84.66,48.5,98.08,55.06C98.62,55.33,98.89,54.56,98.39,54.3z"/>
                    <path class="st6" d="M103.62,49.85c-7.1,0.71-7.82,9.92-4.16,14.62c0.07,0.09,0.24,0.04,0.19-0.09c-1-2.37-1.9-4.64-1.63-7.28      c0.33-3.25,2.34-6.03,5.74-6.42C104.31,50.62,104.12,49.8,103.62,49.85z"/>
                    <path class="st6" d="M197.88,18.28c-2.68-4.58-9.6-5.47-12.99-1.52c-0.88-0.45-2.1-0.34-2.55,0.66      c-0.05,0.11,0.11,0.25,0.21,0.17c0.62-0.5,1.32-0.76,1.99-0.39c-0.22,0.3-0.42,0.62-0.6,0.97c0-0.15,0-0.3,0-0.46      c0-0.21-0.31-0.33-0.4-0.11c-1.86,4.7,1.3,11,5.75,13.02c0.08,0.04,0.16,0.05,0.23,0.04c0.06,0.03,0.12,0.05,0.19,0.06      c0.04,0,0.07,0.01,0.11,0.01c-0.04,0.09-0.08,0.19-0.12,0.28c-0.06,0.13-0.11,0.26-0.1,0.4c-0.2-0.3-0.74-0.36-0.74,0.06      c0,2-2.05,2.31-3.59,2.54c-0.2,0.03-0.19,0.31,0.01,0.34c1.85,0.35,4.34-0.52,4.4-2.71c0-0.02-0.01-0.03-0.01-0.05      c0.04,0.03,0.08,0.04,0.12,0.03c0.17-0.06,0.26-0.18,0.36-0.33c0.11-0.16,0.24-0.32,0.31-0.51c0,0,0-0.01,0-0.01      C196.87,31.01,201.19,23.94,197.88,18.28z M189.75,29.67c-0.06,0-0.12,0.01-0.17,0.02c-4.01-2.9-5.53-6.34-5.63-11.07      c0.08,0.03,0.17,0.02,0.22-0.04c3.48-3.98,10.09-5.08,12.92,0.35C199.9,24.31,195.5,29.9,189.75,29.67z"/>
                    <path class="st6" d="M188.76,31.27c-2.72,0.05-5.04-3.64-5.92-5.75c-0.98-2.37-1.18-4.87-0.84-7.39      c0.02-0.13-0.19-0.19-0.22-0.05c-0.73,3.3-0.34,6.56,1.4,9.49c1.15,1.93,3.27,4.79,5.78,4.39      C189.39,31.89,189.11,31.26,188.76,31.27z"/>
                    <path class="st6" d="M181.73,16.88c-1.46-0.15-3.62,0.84-3.59,2.56c0,0.12,0.16,0.25,0.26,0.13c0.43-0.5,0.67-1.04,1.23-1.43      c0.64-0.45,1.35-0.56,2.12-0.53C182.21,17.64,182.14,16.93,181.73,16.88z"/>
                    <path class="st6" d="M109.61,64.58c-3.89,0.54-7.37-1.78-8.01-5.75c-0.56-3.51,1.44-6.31,3.91-8.51      c0.36-0.32-0.09-0.91-0.49-0.65c-3.36,2.19-5.2,6.45-4.01,10.36c1.13,3.71,4.9,6.13,8.68,4.85      C109.87,64.82,109.78,64.55,109.61,64.58z"/>
                    <path class="st6" d="M186.09,33.38c-13.19,4.82-26.15,10.43-39.19,15.67c-11.4,4.58-23.1,8.81-34.32,13.87      c-0.21-0.32-0.69-0.45-0.9-0.02c-0.1,0.2-0.2,0.39-0.31,0.57c-0.88,0.4-1.76,0.8-2.64,1.21c-0.21,0.1,0.02,0.43,0.21,0.37      c0.59-0.2,1.18-0.4,1.78-0.6c-2.24,2.94-5.94,3.78-9.44,1.43c-0.19-0.13-0.36,0.08-0.2,0.25c3.41,3.55,9.79,2.46,11.44-2.3      c11.91-4.15,23.59-9.28,35.29-13.93c12.9-5.13,25.99-9.94,38.73-15.47C187.2,34.14,186.71,33.16,186.09,33.38z"/>
                    <path class="st6" d="M55.42,54.94c-0.06-0.37-0.64-0.39-0.61,0.02c0.06,1.08-0.41,2.09-1.45,2.53c-1.05,0.45-2.04,0-2.89-0.63      c-0.09-0.07-0.25,0-0.19,0.13c0.55,1.18,2.11,1.61,3.29,1.2C54.86,57.73,55.65,56.27,55.42,54.94z"/>
                    <path class="st6" d="M98.52,102.81c-15.89-3.05-33.64-2.79-49.23,1.74c-0.19,0.06-0.05,0.32,0.12,0.28      c8.12-1.61,16.17-2.98,24.47-3.22c8.27-0.24,16.41,0.56,24.57,1.91C98.95,103.6,98.98,102.9,98.52,102.81z"/>
                    <path class="st6" d="M51.85,105.43c-0.02-0.2-0.19-0.44-0.41-0.26c-0.18,0.15-0.6,0.15-0.83,0.18l-0.71,0.1      c-0.17,0.02-0.11,0.26,0.04,0.25l0.78-0.06c0.22-0.02,0.58-0.11,0.79-0.02c0.03,0.01,0.05,0.02,0.07,0.02      c-1.9,4.1-3.7,8.24-5.53,12.37c-0.11,0.26,0.33,0.49,0.45,0.22c1.81-4.22,3.65-8.44,5.38-12.69      C51.91,105.5,51.89,105.46,51.85,105.43z"/>
                    <path class="st6" d="M59.42,117.66c-1.63-3.81-3.15-7.67-4.77-11.49c-0.18-0.41-0.85-0.26-0.66,0.2      c0.73,1.77,1.48,3.53,2.22,5.3c0.44,1.04,2.57,4.71,2.08,5.59c-0.48,0.86-4.35,0.8-5.32,0.86c-1.8,0.11-3.61,0.12-5.41,0.12      c1.58-3.92,3.16-7.84,4.65-11.8c0.06-0.15-0.19-0.28-0.26-0.12c-1.73,3.9-3.37,7.84-5,11.78c-0.02,0.05-0.02,0.1-0.01,0.15      l-0.08,0c-0.19,0-0.16,0.29,0.01,0.31c4.12,0.56,8.32,0.32,12.39-0.49C59.43,118.04,59.49,117.81,59.42,117.66z"/>
                    <path class="st6" d="M60.68,117.59c-1.77-4.16-3.71-8.24-5.64-12.33c-0.06-0.13-0.28-0.09-0.22,0.07      c1.7,4.17,3.4,8.35,5.25,12.45C60.24,118.15,60.85,118.01,60.68,117.59z"/>
                    <path class="st6" d="M60.18,118.56c-4.59,2.2-9.49,2.22-14.26,0.54c-0.18-0.06-0.27,0.16-0.1,0.25      c4.7,2.51,10.18,2.32,14.91-0.05C61.22,119.05,60.64,118.34,60.18,118.56z"/>
                    <path class="st6" d="M71.97,102.42c-4.67,0.09-12.92,1.16-17.38,2.57c-0.23,0.07-0.05,0.37,0.14,0.33      c4.69-0.83,12.62-1.75,17.38-2.01C72.73,103.28,72.52,102.41,71.97,102.42z"/>
                    <path class="st6" d="M91.78,103.06c-4.25-0.16-11.9-0.59-16.15-0.51c-0.21,0-0.18,0.32,0.01,0.34      c4.15,0.47,11.71,0.79,15.88,1.03c-1.34,3.84-2.74,7.68-3.95,11.56c-0.06,0.21,0.27,0.39,0.35,0.17      c1.41-3.86,2.65-7.81,3.93-11.71c0.02,0,0.04,0,0.07,0C92.52,103.98,92.32,103.08,91.78,103.06z"/>
                    <path class="st6" d="M99.17,116.37c-1.01-4.25-2.22-8.58-3.68-12.7c-0.15-0.41-0.94-0.37-0.81,0.13      c1.12,4.2,2.56,8.42,4.11,12.48c-3.26,0.33-6.22,0.13-9.47-0.31c0,0-0.01,0-0.01,0c1.18-3.82,2.19-7.7,3.47-11.48      c0.15-0.44-0.57-0.74-0.68-0.24c-0.92,3.98-2.13,7.89-3.15,11.84c-0.04,0.16,0.2,0.31,0.28,0.16c0.01,0.01,0.01,0.02,0.02,0.02      c3.01,1.35,6.68,1.56,9.88,0.85C99.52,117.05,99.43,116.57,99.17,116.37z"/>
                    <path class="st6" d="M100.69,117.14c-1.22-4.58-2.55-9.19-4.02-13.7c-0.06-0.17-0.37-0.15-0.32,0.05      c1.05,4.58,2.27,9.16,3.58,13.67C100.05,117.6,100.82,117.65,100.69,117.14z"/>
                    <path class="st6" d="M101.38,117.42c-2.49,0.97-4.97,1.55-7.66,1.34c-2.43-0.19-4.53-1.08-6.81-1.85      c-0.16-0.06-0.2,0.17-0.1,0.25c3.91,3.49,10.63,3.38,15.12,1.19C102.46,118.1,101.88,117.23,101.38,117.42z"/>
                    <path class="st6" d="M72.11,103.09c-0.89,4.26-1.57,8.57-2.34,12.85c-0.75,4.22-1.94,8.6-2.19,12.88      c-0.01,0.24,0.41,0.46,0.49,0.17c1.17-3.98,1.51-8.34,2.2-12.43c0.74-4.46,1.58-8.91,2.2-13.39      C72.5,102.96,72.15,102.86,72.11,103.09z"/>
                    <path class="st6" d="M81.81,129.05c-1.5-8.59-3.04-17.41-5.29-25.84c-0.13-0.5-1-0.59-0.9,0.03c1.41,8.59,3.63,17.25,5.79,25.69      c-4.27,0.67-8.36,0.67-12.63-0.12c-0.29-0.05-0.29,0.34-0.04,0.41c4.24,1.19,8.65,1.4,12.98,0.56      C82.08,129.71,82.03,129.27,81.81,129.05z"/>
                    <path class="st6" d="M50.43,62.93c-1.74,8.61-3.38,17.25-5.15,25.85c-0.06,0.31,0.48,0.47,0.54,0.12      c1.56-8.65,3.26-17.27,4.85-25.92C50.69,62.84,50.46,62.77,50.43,62.93z"/>
                    <path class="st6" d="M58.78,33.25c-1.63,5.81-3.54,11.55-5.3,17.32c-0.05,0.17,0.23,0.33,0.29,0.14      c1.89-5.71,3.64-11.48,5.66-17.14C59.56,33.17,58.89,32.85,58.78,33.25z"/>
                    <path class="st6" d="M104.69,67.49c-1.18,6.83-1.92,13.82-2.69,20.71c-0.05,0.45,0.71,0.67,0.77,0.17      c0.89-6.89,1.84-13.86,2.31-20.79C105.1,67.34,104.73,67.23,104.69,67.49z"/>
                    <path class="st6" d="M106.14,26.8c-0.01-0.13-0.22-0.16-0.24-0.02c-0.56,3.8-0.39,7.78-0.5,11.61      c-0.11,3.88-0.28,7.77-0.3,11.65c0,0.46,0.78,0.7,0.8,0.18c0.16-4.05,0.16-8.11,0.23-12.16      C106.19,34.34,106.5,30.51,106.14,26.8z"/>
                    <path class="st6" d="M18.53,159.41c-2.65,1.31-3.98,5.51-2.01,7.83c-4.51,2.25-10.77,3.78-13.47,8.31      c-1.73,2.9-1.38,7.37,2.21,8.6c0.23,0.08,0.32-0.25,0.15-0.38c-4.42-3.42-1.79-8.57,2.12-10.99c3.09-1.91,6.95-2.57,9.84-4.8      c0.01,0.01,0.02,0.02,0.03,0.02c0.11,0.07,0.22-0.05,0.18-0.16c0-0.01,0-0.01-0.01-0.02c0.02-0.01,0.03-0.02,0.05-0.04      c0.4-0.33,0.04-0.88-0.39-0.86c-0.37-0.98-0.68-1.94-0.52-3.05c0.23-1.6,1.21-2.68,2.47-3.59      C19.74,159.89,19.07,159.14,18.53,159.41z"/>
                    <path class="st6" d="M117.34,160.83c-0.25-0.08-0.34,0.27-0.17,0.4c2.06,1.67,2.86,4.06,1.29,6.4      c-0.38,0.57,0.51,1.33,0.93,0.77C121.28,165.88,120.53,161.87,117.34,160.83z"/>
                    <path class="st6" d="M131.74,177.58c-1.15-4.97-8.26-8.24-12.67-9.34c-0.29-0.07-0.34,0.33-0.11,0.44      c3.27,1.58,6.69,3.19,9.4,5.66c1.78,1.63,3.01,4,1.88,6.38c-1.09,2.3-3.55,2.88-5.85,2.28c-0.65-0.17-0.83,0.8-0.25,1.02      C128.28,185.57,132.79,182.11,131.74,177.58z"/>
                    <path class="st6" d="M115.31,159.14c-3.61-1.88-7.89-3.73-12.09-4.56c-5.87-2.31-11.97-4.06-18.17-5.21      c-14.22-2.65-29.02-2.25-43.07,1.18c-8,1.95-15.84,4.87-22.98,9c-0.37,0.21,0.08,0.73,0.42,0.56      c16.15-7.82,33.55-11.95,51.54-11.11c8.85,0.41,17.67,1.98,26.11,4.7c0.98,0.32,1.96,0.65,2.93,1c0.16-0.06,0.35-0.05,0.56,0.05      c1.14,0.58,2.49,0.83,3.81,1.1c6.52,2.04,16.49,5.66,14.3,10.38c-30.95-16.18-68.51-16.68-99.91-1.43      c-0.18,0.09,0.03,0.35,0.2,0.27c31.64-14.74,68.19-13.93,99.17,2.01c-0.03,0.04-0.06,0.08-0.09,0.12      c-0.45,0.56,0.46,1.28,0.95,0.78C122.35,164.58,118.36,160.73,115.31,159.14z"/>
                    <path class="st6" d="M131.09,179.93c-0.89-2.5-3.55-3.08-5.89-3.6c-4.34-0.97-8.71-1.8-13.09-2.54      c-8.65-1.45-17.38-2.46-26.13-3.05c-17.9-1.21-35.92-0.6-53.69,1.85c-9.78,1.35-19.46,3.29-29.02,5.74      c-0.3,0.08-0.08,0.51,0.19,0.44c32.47-7.95,66.47-9.89,99.59-5.31c4.56,0.63,9.11,1.38,13.63,2.25      c2.18,0.42,4.36,0.87,6.53,1.35c2.25,0.49,5.77,0.73,6.79,3.19C130.29,180.93,131.36,180.68,131.09,179.93z"/>
                    <path class="st6" d="M20.77,158.15c-0.96,0.59-1.94,1.16-2.8,1.89c-0.15,0.12,0.03,0.32,0.19,0.25      c1.03-0.48,1.96-1.13,2.91-1.75C21.3,158.38,21,158.01,20.77,158.15z"/>
                    <path class="st6" d="M184.6,31.82c-4.36-1.45-6.58-5.83-5.69-10.25c0.02-0.11-0.18-0.2-0.22-0.08      c-0.62,1.85-0.64,3.67-0.17,5.31c-0.01,0-0.01,0-0.02,0c-11.85,5.16-23.93,9.82-35.9,14.7c-11.97,4.88-23.91,9.85-35.88,14.74      c-0.2,0.08-0.05,0.39,0.14,0.32c11.99-4.84,24.01-9.61,36-14.46c11.97-4.84,23.86-9.93,35.94-14.49      c0.95,2.37,2.97,4.27,5.69,5.21C185.18,33.07,185.22,32.02,184.6,31.82z"/>
                    <path class="st6" d="M193.35,16.89c-0.09-0.02-0.15,0.02-0.18,0.07c-0.17-0.05-0.39,0.06-0.3,0.29      c0.47,1.19-1.11,1.82-2.02,1.76c-1.09-0.07-2.1-1.26-1.18-2.23c0.1-0.1-0.09-0.3-0.19-0.2c-0.11,0.1-0.2,0.21-0.27,0.31      c0-0.13-0.14-0.28-0.3-0.24c-1.6,0.37-3.2,1.24-4.25,2.52c-0.11,0.14,0.1,0.37,0.24,0.25c1.29-1.06,2.58-1.87,4.19-2.37      c0.02-0.01,0.03-0.01,0.04-0.02c-0.53,0.98,0.31,2.16,1.46,2.38c1.27,0.23,3.21-0.63,2.81-2.13c2.19,0.95,3.73,2.82,3.66,5.32      c0,0.13,0.22,0.19,0.22,0.05C197.38,20.06,195.97,17.6,193.35,16.89z"/>
                    <path class="st6" d="M104.47,50.41c-7.26,2.51-7.03,12.12-0.72,15.47c0.14,0.07,0.21-0.13,0.08-0.2      c-6.34-3.6-4.97-11.71,1.03-14.62C105.23,50.89,104.82,50.29,104.47,50.41z"/>
                    <path class="st6" d="M111.18,63.19c-1.51,1.91-3.46,2.82-5.89,2.9c-0.17,0.01-0.13,0.23,0.01,0.27c2.42,0.61,5.17-0.54,6.5-2.66      C112.03,63.32,111.47,62.82,111.18,63.19z"/>
                    <path class="st6" d="M185.88,32.9c-24.95,10.38-50.22,20.24-74.76,31.57c-0.62,0.29-0.17,1.23,0.43,1.01      c0.47-0.17,0.94-0.35,1.41-0.52c-0.47,6.68-0.4,13.46-0.54,20.15c-0.14,6.44-0.57,13.03,0.02,19.46      c-0.72-0.35-1.76-0.08-1.52,0.91c0.39,1.65,0.64,3.11,0.21,4.79c-0.37,1.45-1.23,2.55-1.85,3.87c-0.07,0.16,0.01,0.32,0.14,0.42      c-7.4,14.28-22.8,18.74-38.01,18.98c-8.14,0.13-16.83-0.12-24.4-3.43c-6.61-2.89-12.56-8.81-13.77-16.17      c0-0.02-0.01-0.03-0.02-0.05c-1.23-6.71,0.53-13.48,2.02-20.03c1.54-6.78,3.36-13.51,5.43-20.15      c1.95-6.28,4.14-12.49,6.53-18.61c1.25-3.21,2.57-6.39,3.93-9.56c1.22-2.83,2.73-5.62,3.74-8.54c0.07-0.05,0.12-0.12,0.17-0.2      c0.76-1.3,1.19-2.81,1.66-4.23c0.13-0.4-0.5-0.92-0.77-0.49c-0.8,1.3-1.71,2.63-2.22,4.08c-0.07,0.19-0.05,0.36,0.01,0.51      c-1.53,2.42-2.66,5.17-3.85,7.75c-1.52,3.26-2.95,6.56-4.32,9.89c-2.68,6.51-5.05,13.14-7.17,19.85      c-2.05,6.5-3.82,13.08-5.35,19.72c-1.53,6.68-3.55,13.92-1.74,20.73c0.16,0.62,0.83,0.95,1.36,0.91      c0.9,6.6,5.21,11.87,11.04,15.22c7.85,4.51,17.39,5.03,26.23,5.05c15.42,0.04,35.59-4.17,41.82-20.54      c0.23-0.59-0.1-1.14-0.56-1.41c2.21-1.83,2.87-5.7,1.99-8.29c0.12-0.05,0.22-0.14,0.25-0.31c1.09-6.6,0.97-13.47,1.21-20.14      c0.24-6.74,0.7-13.54,0.58-20.28c0-0.23-0.08-0.44-0.2-0.62c24.17-9.05,47.9-19.43,71.75-29.26      C188.05,34.39,187.06,32.41,185.88,32.9z"/>
                    <path class="st6" d="M197.72,18.75c-2.46-4.73-9.56-6.7-13.48-2.78c-3.05-1.03-7.06,0.25-8.67,3.11      c-0.04,0.01-0.08,0.01-0.13,0.03c-6.33,2.25-12.47,5.22-18.65,7.84l-18.16,7.69c-6.05,2.56-12.09,5.16-18.12,7.8      c-2.03,0.89-4.09,1.76-6.13,2.64c0.05-2.85,0.31-5.73,0.01-8.56c0-0.01-0.01-0.02-0.01-0.03c-0.08-5.37-3.96-11.22-7.45-14.63      c-5-4.88-11.79-7.3-18.71-7.43c-14.24-0.26-29.07,9.37-35.22,22.19c-0.23,0.48,0.51,0.92,0.86,0.55      c4.41-4.71,8.3-9.65,13.59-13.46C72.88,19.79,79.26,17.2,86,16.8c6.62-0.39,13.28,1.45,18.31,5.88      c2.22,1.96,4.09,4.38,5.38,7.05c1.42,2.95,1.51,5.79,2.16,8.9c0.12,0.57,0.6,0.96,1.09,1.04c-0.23,1.81-0.36,3.63-0.6,5.42      c-0.04,0.3,0.06,0.56,0.24,0.75c-3.28,1.43-6.53,2.92-9.66,4.59c-0.41,0.22,0.03,0.84,0.42,0.71c6.4-2.05,12.62-4.84,18.84-7.39      c6.09-2.49,12.15-5.02,18.21-7.58c6.06-2.56,12.12-5.11,18.17-7.67c5.95-2.51,12.11-4.77,17.91-7.63      c0.5-0.25,0.49-0.76,0.24-1.18c0.99-0.71,1.98-1.36,3.17-1.71c1.44-0.42,2.75-0.31,4.21-0.2c0.52,0.04,0.78-0.34,0.8-0.76      c3.89-2.03,8.74-1.94,10.9,2.64c2.09,4.41-0.95,9.37-5.68,10c-0.71,0.09-0.99,0.61-0.96,1.13c-0.16,0.29-0.27,0.61-0.46,0.89      c-0.29,0.43-0.63,0.82-1.04,1.13c-0.83,0.63-1.85,0.84-2.87,0.82c-1.12-0.02-0.75,1.43,0.05,1.67c1.45,0.44,2.92-0.07,4.02-1.07      c0.57-0.52,1.17-1.37,1.36-2.23c0.09,0.01,0.18,0.01,0.28-0.01C196.8,31.13,200.77,24.61,197.72,18.75z"/>
                    <path class="st6" d="M131.1,173.48c-2.47-3.84-8.34-6.82-12.92-6.04c-0.38,0.06-0.21,0.57,0.02,0.7      c3.33,1.82,6.88,1.99,9.64,4.96c2.64,2.84,3.02,6.93,0.06,9.44c-0.74-0.34-1.56,0.15-1.59,0.86      c-9.91-0.35-19.88-0.12-29.79-0.17c-10.3-0.06-20.61-0.11-30.91-0.16c-10.3-0.05-20.6-0.08-30.9-0.1      c-5.06-0.01-10.13-0.01-15.19,0.01c-4.94,0.02-9.96-0.15-14.9,0.22c-0.23-0.48-0.74-0.83-1.22-0.61      c-0.57-3.61,1.38-7.19,4.12-9.58c2.26-1.97,4.95-3.12,7.61-4.36c0.45,0.25,0.99,0.38,1.63,0.35c0.84-0.04,0.98-0.89,0.6-1.44      c0.24-0.12,0.47-0.25,0.7-0.38c0.33-0.18,0.03-0.73-0.29-0.68c-0.47,0.08-0.96,0.17-1.45,0.28c-1.69-1.39-0.36-3.82,0.99-5.28      c1.46-1.59,3.32-2.57,5.29-3.39c0.41-0.17,0.19-0.75-0.22-0.74c-3.42,0.13-6.82,2.3-8.4,5.36c-0.7,1.36-0.75,3.33-0.01,4.7      c-7.66,2.5-15.58,8.83-12.17,17.52c0.28,0.72,1.41,1.13,1.95,0.44c0.18-0.22,0.35-0.44,0.51-0.67      c9.83,0.95,19.95,0.53,29.81,0.64c10.48,0.11,20.96,0.21,31.44,0.28c10.48,0.07,20.95,0.15,31.43,0.22      c10.45,0.06,20.97,0.47,31.42,0.15c0.85-0.03,1.14-0.59,1.05-1.18C133.16,182.42,133.38,177.03,131.1,173.48z"/>
                    <path class="st6" d="M120.42,163.28c-0.11-1.04-0.47-2-1.03-2.83c0.07-0.55-0.15-1.18-0.79-1.55      C94.5,144.85,63,142.71,36.74,151.44c-7.4,2.46-14.89,5.68-21.19,10.33c-0.43,0.32,0.09,0.9,0.52,0.69      c8.05-3.88,16-7.56,24.68-9.86c8.55-2.27,17.31-3.54,26.16-3.66c17.69-0.24,34.37,4.04,50.05,12.02      c0.75,0.76,1.29,1.72,1.52,2.76c0.24,1.09-0.08,2.14,0.08,3.21c0.04,0.28,0.37,0.45,0.61,0.3      C120.42,166.52,120.56,164.56,120.42,163.28z"/>
                </g>
            </g>
        </g>
    </g>
    </svg>