<svg xmlns="http://www.w3.org/2000/svg" xmlns:xlink="http://www.w3.org/1999/xlink" version="1.1" id="Layer_1" x="0px" y="0px" viewBox="0 0 200 200" style="enable-background:new 0 0 200 200;" xml:space="preserve">
    <style type="text/css">
        .st0{fill:#38B6FF;}
        .st1{fill:#1A1A1A;}
        .st2{fill:none;stroke:#1A1A1A;stroke-width:4;stroke-miterlimit:10;}
        .st3{fill:#333333;}
        .st4{fill:#FFFFFF;}
        .st5{fill:#1C1C1B;}
        .st6{fill:#2B2A2A;}
    </style>
    <path class="st0" d="M140.98,58.95c0-0.87-0.59-1.75-1.71-1.75c-20.4,0.02-38.34,1.36-54.85,4.09c-0.86,0.14-1.37,0.79-1.3,1.65  c0.07,0.88,0.78,1.78,1.85,1.78l0.32-0.03c16.05-2.66,33.7-3.96,53.97-3.98C140.4,60.71,140.98,59.82,140.98,58.95z"/>
    <path class="st0" d="M140.48,84.13c-5.63,0.87-11.56,1.28-18.7,1.28c-5.88,0-11.88-0.29-17.7-0.57c-4.8-0.21-9.73-0.46-14.59-0.56  c-2.27-0.03-4.55-0.03-6.82-0.03c-4.36,0-8.67,0.07-13.01,0.18c-0.51,0.01-1.01,0.03-1.52,0.04c-0.34-0.22-0.74-0.44-1.15-0.65  c0.67-0.92,1.3-1.86,1.92-2.78c0.03-0.04,0.06-0.09,0.09-0.13c1.04-0.03,2.08-0.06,3.12-0.08c3.46-0.07,6.91-0.11,10.36-0.11h1.52  c5.93,0.03,12,0.35,17.88,0.63c6.12,0.31,12.45,0.62,18.57,0.62c6.89,0,12.76-0.4,18.07-1.25c0.38-0.06,0.75-0.06,1.14-0.06  c1.64,0,2.97,0.59,3.22,1.47C143.14,82.91,142.51,83.81,140.48,84.13z"/>
    <g>
        <path class="st1" d="M97.3,140.01c-0.47-3.2-1.11-6.26-1.92-9.17c-0.32-1.18-0.68-2.34-1.07-3.48c-1.7-5.04-3.95-9.61-6.73-13.65   c-5.93-8.63-14.44-14.94-22.06-19.99c1.08-0.47,1.84-1.18,2.22-2.09c0.36-0.87,0.33-1.87-0.09-2.89c-0.38-0.91-1.02-1.64-1.96-2.23   c0.54-0.68,1.05-1.38,1.56-2.08c0.37-0.51,0.73-1.03,1.1-1.54c0.48-0.68,0.97-1.38,1.48-2.06c1.18-1.62,2.44-3.22,3.89-4.63   c1.96-1.9,3.73-3.97,5.45-5.97c1.59-1.86,3.24-3.78,5.02-5.55c0.03-0.03,0.07-0.07,0.09-0.11c0.3-0.36,0.37-0.82,0.21-1.26   c-0.2-0.51-0.68-0.86-1.23-0.89c-0.03,0-0.07,0-0.1-0.01c-1.4-0.07-2.73-0.21-3.99-0.36c-1.64-0.18-3.18-0.35-4.7-0.35   c-2.45,0-4.49,0.46-6.48,1.48c-0.36,0.17-0.71,0.37-1.07,0.59c-0.13,0.08-0.26,0.17-0.39,0.26c-0.59,0.4-1.14,0.86-1.67,1.32   c-1.19,1.02-2.31,1.99-3.7,1.99c-0.49,0-0.98-0.12-1.51-0.36c-1.15-0.51-2.07-1.35-3.04-2.23c-1.04-0.95-2.12-1.93-3.52-2.49   c-1.31-0.53-2.75-0.81-4.16-0.81c-1.01,0-1.99,0.14-2.9,0.42c-1.53,0.46-2.89,1.31-4.2,2.12c-1.74,1.09-3.38,2.11-5.22,2.11   c-1.36,0-2.72-0.57-4.16-1.75c-3.07-2.49-5.05-3.37-7.56-3.37c-1.59,0-3.34,0.36-5.49,0.91c-0.39,0.1-0.71,0.38-0.87,0.77   c-0.16,0.39-0.14,0.83,0.07,1.18c1.78,2.99,4.1,5.8,6.34,8.51c3.41,4.12,6.93,8.37,8.61,13.37c-0.74,0.3-1.31,0.62-1.8,1   c-1.68,1.31-1.92,2.57-1.82,3.41c0.14,1.18,1.02,2.29,2.39,3.03c-7.26,3.85-12.73,10.14-18.02,16.23l-1.55,1.78   c-4.48,5.12-7.76,12.41-9.75,21.68c-1.39,6.44-3.12,18.85,0.94,29.52c3.05,8.05,9.74,15.48,18.82,20.9   c7.51,4.49,15.26,6.74,24.41,7.11c1.84,0.07,3.66,0.12,5.47,0.12c2.79,0,6.02-0.11,9.44-0.63c3.42-0.53,7.03-1.47,10.6-3.15   c9.2-4.32,17.35-12.07,21.81-20.72c1.01-1.97,1.8-4.09,2.38-6.37c0.29-1.13,0.52-2.3,0.7-3.51   C98.28,151.4,98.18,146.06,97.3,140.01z M63,91.53c-0.29,0.22-0.91,0.33-1.83,0.33c-1.18,0-2.67-0.19-3.87-0.34   c-0.83-0.1-1.55-0.19-1.99-0.2c-0.82-0.01-1.65-0.02-2.48-0.03c-1.43-0.01-2.86-0.01-4.3-0.09l-0.46-0.02   c-2.01-0.1-4.1-0.2-6.14-0.2c-2.1,0-3.95,0.11-5.68,0.33l-0.23,0.01c-0.78,0-1.69-0.5-2.16-1.19c-0.24-0.36-0.46-0.92-0.19-1.58   c0.26-0.67,3.67-0.95,4.95-1.06l0.71-0.06c1.96-0.21,4-0.27,5.97-0.33c0.88-0.03,1.76-0.05,2.63-0.09   c1.24-0.05,2.48-0.09,3.72-0.09c1.51,0,2.87,0.06,4.14,0.18c1.65,0.16,3.41,0.41,5.38,0.76l0.25,0.05c0.82,0.13,2.97,0.48,3.2,1.41   C64.75,89.87,64.19,90.64,63,91.53z M27.25,71.08c-1.88-2.29-3.82-4.66-5.45-7.14c1.14-0.35,2.31-0.7,3.36-0.7l0.27,0.01   c2.05,0.13,3.31,1.31,4.65,2.55c0.54,0.5,1.08,1,1.68,1.44c1.61,1.18,3.05,2,4.83,2.16c0.21,0.01,0.41,0.02,0.6,0.02   c1.58,0,2.88-0.53,4.46-1.39c1.03-0.56,1.85-1.21,2.64-1.83c1.45-1.14,2.69-2.12,4.73-2.12c0.57,0,1.18,0.07,1.85,0.23   c2.09,0.49,3.52,1.77,5.03,3.14l0.75,0.66c1.71,1.49,3.18,2.19,4.65,2.19c1.34,0,2.72-0.6,4.2-1.83c0.37-0.3,0.72-0.6,1.07-0.9   c1.42-1.24,2.77-2.42,4.72-3.03c0.76-0.24,1.7-0.35,2.87-0.35c1.71,0,3.61,0.25,5.44,0.49l0.86,0.11c-1.07,1.16-2.1,2.36-3.14,3.56   c-1.73,2-3.52,4.07-5.47,5.98c-2.04,1.99-3.7,4.32-5.29,6.58c-0.03,0.04-0.06,0.09-0.09,0.13c-0.65,0.92-1.31,1.86-2.01,2.78   c-0.42,0.57-0.86,1.13-1.31,1.68c-1.04-0.25-2.15-0.4-3.13-0.53l-1.03-0.14c-2.32-0.34-4.83-0.5-7.67-0.5c-2.47,0-5,0.12-7.37,0.25   c-0.75,0.04-1.56,0.05-2.4,0.06c-1.72,0.02-3.66,0.04-5.45,0.35C34.33,79.7,30.73,75.31,27.25,71.08z M95.2,153.45   c-0.87,9.75-6.52,19.05-15.93,26.16c-7.15,5.41-15.29,8.17-24.2,8.2l-2.03,0.01c-7.76,0-15.96-0.3-23.3-3.82   c-8.22-3.94-14.44-8.85-19.01-15.01c-7.06-9.52-6.94-20.76-6.04-29.49c0.59-5.76,2.42-16.57,8.08-24.3   c8.18-11.17,15.96-18.08,23.76-21.11c0.18-0.07,0.31-0.17,0.29-0.2c1.47-0.2,3.05-0.29,4.86-0.29s3.62,0.09,5.44,0.18   c1.5,0.08,3,0.16,4.5,0.18c1.1,0.02,2.37,0.14,3.71,0.26c1.69,0.15,3.43,0.3,5.12,0.3c0.5,0,1-0.01,1.35-0.08   c12.02,7.77,24.91,18.03,30.47,35.37c0.13,0.36,0.24,0.71,0.35,1.08c0.14,0.49,0.28,0.99,0.42,1.49   C95.04,139.85,95.77,146.94,95.2,153.45z"/>
        <path class="st1" d="M64.54,148.6c-0.18-6.22-5.61-8.39-9.76-9.47c-0.1-5.53-0.15-11.27-0.14-17.54c2.37,0.33,5.45,1.31,7.25,4.11   c0.26,0.39,0.64,0.61,1.09,0.61c0.52,0,1.02-0.29,1.26-0.73c0.22-0.39,0.19-0.83-0.07-1.23c-1.7-2.65-5.08-4.45-9.52-5.09   c0,0,0-3.68,0-4.65c0.01-0.36-0.11-0.68-0.34-0.91c-0.24-0.24-0.6-0.38-0.97-0.38c-0.66,0-1.33,0.44-1.34,1.28   c0,0.91,0,4.43,0,4.43c-0.28-0.01-0.55-0.01-0.83-0.01c-1.52,0-3.03,0.13-4.5,0.39v-4.51c0.01-0.36-0.12-0.67-0.35-0.9   c-0.24-0.25-0.59-0.39-0.97-0.39c-0.66,0-1.32,0.45-1.32,1.29l-0.01,5.14c-6.97,2.09-10.24,6.55-8.78,11.96   c1.31,4.8,5.33,6.52,8.74,7.46l-0.03,16.61c-3.93-1.02-6.52-3.56-7.94-7.76c-0.19-0.56-0.68-0.91-1.28-0.91   c-0.45,0-0.89,0.21-1.13,0.55c-0.22,0.31-0.27,0.69-0.14,1.09c1.91,5.66,5.24,8.78,10.48,9.8l-0.02,9.67   c0,0.36,0.12,0.68,0.35,0.91c0.25,0.24,0.6,0.38,0.97,0.38c0.66,0,1.33-0.44,1.33-1.29l0.02-9.33c0.52,0.03,1.06,0.05,1.62,0.05   l0.71-0.01c1.24-0.03,2.53-0.15,3.78-0.35l0.01,0.29c0.11,3.02,0.23,6.04,0.38,9.07c0.04,0.83,0.73,1.27,1.38,1.27   c0.37,0,0.72-0.14,0.96-0.38c0.22-0.24,0.33-0.55,0.31-0.91c-0.16-3.29-0.29-6.58-0.42-9.87C59.67,157.21,64.71,154.61,64.54,148.6   z M43.98,136.81c-2.26-0.73-3.78-1.73-4.74-3.12c-1.15-1.65-1.53-3.28-1.13-4.84c0.52-2.05,2.39-3.97,5.25-5.4   c0.21-0.1,0.43-0.2,0.65-0.3L43.98,136.81z M46.66,122.21c1.74-0.48,3.58-0.74,5.33-0.77c-0.01,6.07,0.04,11.67,0.13,17.09   c-0.92-0.19-1.83-0.35-2.68-0.5l-1.07-0.19c-0.56-0.1-1.14-0.21-1.74-0.34L46.66,122.21z M51.63,156.41   c-1.12,0.12-2.18,0.18-3.17,0.18c-0.63,0-1.26-0.02-1.87-0.07l0.04-16.44c0.97,0.19,1.95,0.36,2.9,0.53   c0.9,0.16,1.78,0.31,2.62,0.48c0.1,5.07,0.25,10.13,0.44,15.19C52.26,156.33,51.94,156.38,51.63,156.41z M55.21,155.71   c-0.16-4.66-0.3-9.31-0.4-13.96c2.88,0.85,6.12,2.38,6.64,6.41C62.04,152.68,58.45,154.76,55.21,155.71z"/>
        <path class="st0" d="M11.37,140.59c1.74-8.54,5.24-16.45,10.4-23.49c0.28-0.38,0.33-0.81,0.14-1.19c-0.23-0.45-0.75-0.75-1.29-0.75   c-0.44,0-0.84,0.2-1.11,0.57c-5.31,7.24-8.91,15.38-10.7,24.19c-0.08,0.41,0.01,0.8,0.26,1.11c0.27,0.33,0.71,0.53,1.14,0.53   C10.8,141.57,11.25,141.19,11.37,140.59z"/>
        <path class="st0" d="M24.39,112.74c0.85,0,1.29-0.67,1.29-1.33c0-0.34-0.11-0.66-0.32-0.9c-0.24-0.28-0.57-0.42-0.97-0.42   s-0.73,0.15-0.97,0.42c-0.21,0.24-0.32,0.56-0.32,0.9C23.11,112.07,23.55,112.74,24.39,112.74z"/>
    </g>
    <path class="st1" d="M198.43,37.6c-0.19-7.15-0.41-15.27-5.25-20.98c-3.53-4.12-8.71-6.68-13.58-6.68c-0.75,0-1.5,0.06-2.34,0.12  c-9.03-0.37-18.17-0.56-27.14-0.56c-12.58,0-25.29,0.37-37.75,1.09c-9.61,0.56-21.01,1.31-32.44,2.56l-0.68,0.1  C74,13.81,68.04,14.43,64.6,18.74c-4.09,5.12-3.62,12.68-3.25,19.02c0.44,7.09,1.32,14.05,2.28,20.36c0.22,1.59,0.47,3.12,0.72,4.62  c0.74,0.43,1.46,0.86,2.18,1.29c0.6,0.35,1.18,0.7,1.76,1.05c-0.1-0.64-0.2-1.27-0.3-1.9c-0.15-0.94-0.3-1.88-0.45-2.82  c-0.47-2.99-0.91-5.99-1.31-8.96c-0.19-1.34-0.41-2.84-0.66-4.43c-1.19-7.59-2.69-17.02,0.16-22.95c3.49-7.37,13.33-7.78,21.26-8.15  c1.59-0.06,3.09-0.13,4.5-0.25c9.83-0.81,18.92-1.44,27.79-1.87c9.74-0.47,19.82-0.72,29.94-0.72c6.93,0,14.08,0.12,21.23,0.34  c-5.59,4.75-7.52,13.05-8.77,21.33c-1.56,10.27-1.47,21.67,0.25,35.87c1.06,8.75,2.53,17.61,3.9,26.17c0.5,2.94,0.97,5.87,1.44,8.81  c0.4,2.49,0.84,4.99,1.31,7.52c1.34,7.31,2.71,14.86,2.59,22.33c-0.13,8.99-2.94,14.08-9.15,16.48c-2.09,0.81-6.21,2.16-10.37,2.16  c-1.87,0-3.52-0.28-4.93-0.85c-7.18-2.84-11.93-17.29-11.11-24.85c0.09-0.78-0.29-1.37-0.94-1.62c-0.25-0.13-0.5-0.19-0.78-0.19  l-39.58,0.83l-2.07,0.04c0,0.82,0.01,1.62,0.03,2.41c0.01,0.36,0.02,0.73,0.03,1.09l0.32-0.01l2.76-0.05l36.67-0.75  c-0.13,6.09,2.4,13.67,6.77,20.39c1.19,1.78,2.5,3.18,4.03,4.27c-11.21,0.85-23.29,1.25-39,1.35c-2.11,0-4.19,0-6.28,0.02  c-0.6,0-1.21,0-1.81,0.01c0.03,1.19,0.03,2.34,0.03,3.5h1.08c17.65-0.08,35.85-0.23,53.69-1.97c0.38-0.03,0.72-0.19,0.81-0.38h0.5  c1.22,0,2.38-0.06,3.53-0.21c9.21-1.13,15.15-4.78,17.58-10.87c3.31-8.24,1.62-18.08,0.16-26.76l-0.44-2.62  c-0.84-5.15-1.81-10.4-2.78-15.68c-3.43-18.67-6.96-38-5.78-56.76c1.88,0.03,3.75,0.06,5.62,0.09c2.91,0.03,5.78,0.09,8.69,0.09  c5.12,0,11.89-0.12,18.79-1.09c0.78-0.12,1.38-1.03,1.34-1.72C198.49,40.41,198.46,39.01,198.43,37.6z M191.59,40.66  c-1.84,0.44-3.9,0.5-5.87,0.5h-5.75c-3.05,0-6.12-0.06-9.17-0.15c-2.13-0.04-4.25-0.1-6.34-0.13c0.28-2.97,0.62-5.59,1.06-7.99  c2.37-12.96,7.05-19.55,13.92-19.55c0.91,0,1.85,0.13,2.85,0.34c7.52,1.75,11.58,8.09,12.39,19.33c0.03,0.75,0.13,1.44,0.22,2.06  C195.27,38.1,195.46,39.76,191.59,40.66z"/>
    <path class="st0" d="M142.02,36.34c-0.04-0.75-0.52-1.51-1.7-1.51c-0.01,0-0.02,0-0.02,0c-19.48,1.91-39.27,2.88-58.83,2.89  c-1.12,0-1.71,0.89-1.71,1.76c0,0.87,0.59,1.75,1.7,1.75h0c19.58-0.01,39.39-0.98,58.89-2.89  C141.49,38.23,142.06,37.23,142.02,36.34z"/>
    <path class="st0" d="M144.97,105.3c0.03,0.87-0.53,1.81-1.69,1.84c-6.09,0.28-12.3,0.37-18.3,0.5c-10.9,0.19-22.11,0.41-33.13,1.5  l-0.06-3.5c11.05-1.12,22.26-1.34,33.16-1.53c5.99-0.09,12.21-0.22,18.3-0.47c0,0,0,0,0.03,0  C144.44,103.64,144.97,104.48,144.97,105.3z"/>
    </svg>