<svg xmlns="http://www.w3.org/2000/svg" xmlns:xlink="http://www.w3.org/1999/xlink" version="1.1" id="Layer_1" x="0px" y="0px" viewBox="0 0 200 200" style="enable-background:new 0 0 200 200;" xml:space="preserve">
    <style type="text/css">
        .st0{fill:#FFFFFF;}
        .st1{fill:none;stroke:#1A1A1A;stroke-width:1;stroke-miterlimit:10;}
        .st2{fill:#BEE8FF;}
    </style>
    <g>
        <g>
            <path class="st0" d="M162.74,86.6c0,0-7.89,23.58-26,21.48c0,0-68.92,3.92-74.94,2.58s-10.67-1.4-24.38-15.41"/>
            <path class="st0" d="M96.36,88.57c2.62,0.14,5.22,0.05,7.82-0.28c1.55-0.19,2.9-1.19,2.9-2.9c0-1.42-1.33-3.09-2.9-2.9    c-2.6,0.32-5.2,0.42-7.82,0.28C92.64,82.58,92.65,88.37,96.36,88.57z"/>
            <path class="st0" d="M82.3,118.24h-3.63c-0.82,0-1.48-0.67-1.48-1.48v-16.73c0-0.82,0.67-1.48,1.48-1.48h3.63    c0.82,0,1.48,0.67,1.48,1.48v16.73C83.78,117.58,83.12,118.24,82.3,118.24z"/>
            <path class="st0" d="M122.27,117.37l-3.62,0.24c-0.81,0.05-1.52-0.57-1.58-1.38l-1.16-17.56c-0.05-0.81,0.57-1.52,1.38-1.58    l3.62-0.24c0.81-0.05,1.52,0.57,1.58,1.38l1.16,17.56C123.71,116.6,123.08,117.31,122.27,117.37z"/>
            <path class="st0" d="M38.21,151.09c0,0,122.38,3.67,125.46-6.35c0,0,1.51-75.34-3.05-77.11c-4.56-1.76-122.28,2.32-122.41,4.12    S35,147.07,38.21,151.09z"/>
            <path class="st0" d="M61.8,69.22V52.17c0,0,69.64-4.25,73.58-3.27s2.61,18.47,2.61,18.47L61.8,69.22z"/>
        </g>
        <g>
            <path class="st1" d="M162.08,86.1c0,0-7.89,23.58-26,21.48c0,0-68.92,3.92-74.94,2.58s-10.67-1.4-24.38-15.41"/>
            <path class="st2" d="M95.7,88.07c2.62,0.14,5.22,0.05,7.82-0.28c1.55-0.19,2.9-1.19,2.9-2.9c0-1.42-1.33-3.09-2.9-2.9    c-2.6,0.32-5.2,0.42-7.82,0.28C91.98,82.08,91.99,87.87,95.7,88.07z"/>
            <path class="st2" d="M81.64,117.74h-3.63c-0.82,0-1.48-0.67-1.48-1.48V99.53c0-0.82,0.67-1.48,1.48-1.48h3.63    c0.82,0,1.48,0.67,1.48,1.48v16.73C83.12,117.08,82.46,117.74,81.64,117.74z"/>
            <path class="st2" d="M121.61,116.87l-3.62,0.24c-0.81,0.05-1.52-0.57-1.58-1.38l-1.16-17.56c-0.05-0.81,0.57-1.52,1.38-1.58    l3.62-0.24c0.81-0.05,1.52,0.57,1.58,1.38l1.16,17.56C123.05,116.1,122.42,116.81,121.61,116.87z"/>
            <path class="st1" d="M37.55,150.59c0,0,122.38,3.67,125.46-6.35c0,0,1.51-75.34-3.05-77.11c-4.56-1.76-122.28,2.32-122.41,4.12    S34.34,146.57,37.55,150.59z"/>
            <path class="st1" d="M61.14,68.72V51.67c0,0,69.64-4.25,73.58-3.27s2.61,18.47,2.61,18.47L61.14,68.72z"/>
        </g>
    </g>
    </svg>