<svg xmlns="http://www.w3.org/2000/svg" xmlns:xlink="http://www.w3.org/1999/xlink" version="1.1" id="Layer_1" x="0px" y="0px" viewBox="0 0 200 198" style="enable-background:new 0 0 200 198;" xml:space="preserve">
    <style type="text/css">
        .st0{fill:#FFFFFF;}
        .st1{fill:#BEE8FF;}
        .st2{fill:none;stroke:#FFFFFF;stroke-miterlimit:10;}
        .st3{fill:none;stroke:#FFFFFF;stroke-width:0.7891;stroke-miterlimit:10;}
        .st4{fill:#BFE8FB;}
        .st5{fill:none;stroke:#FFFFFF;stroke-width:0.7891;}
        .st6{fill:#DFDFDE;}
        .st7{fill:none;stroke:#FFFFFF;stroke-width:0.9362;stroke-linecap:round;}
        .st8{fill:none;stroke:#FFFFFF;stroke-width:0.8955;stroke-linecap:round;}
        .st9{fill:#C1E8FB;stroke:#FFFFFF;stroke-width:0.9362;stroke-linecap:round;}
        .st10{fill:none;stroke:#FFFFFF;stroke-width:1.1794;stroke-miterlimit:10;}
        .st11{fill:none;stroke:#000000;stroke-width:0.75;stroke-miterlimit:10;}
        .st12{fill:#BEE7FA;}
        .st13{fill:none;stroke:#000000;stroke-width:0.75;}
        .st14{fill:#DEDEDD;}
        .st15{fill:none;stroke:#000000;stroke-width:1.9344;stroke-linecap:round;}
        .st16{fill:#BFE7FA;stroke:#000000;stroke-width:1.9344;}
        .st17{fill:#1A1A1A;}
        .st18{fill:none;stroke:#000000;stroke-width:1.21;stroke-linecap:round;}
        .st19{fill:#1C1C1B;}
        .st20{opacity:0.1294;}
        .st21{fill:none;stroke:#000000;stroke-width:1.0991;stroke-linecap:round;}
        .st22{fill:none;stroke:#000000;stroke-width:0.8833;stroke-miterlimit:10;}
        .st23{fill:none;stroke:#000000;stroke-width:1.3736;stroke-miterlimit:10;}
        .st24{fill:none;stroke:#000000;stroke-width:1.046;stroke-dasharray:8.3676,8.3676;}
        .st25{fill:none;stroke:#010202;stroke-width:1.046;stroke-miterlimit:10;}
        .st26{fill:#FFFFFF;stroke:#000000;stroke-width:1.046;}
        .st27{fill:none;stroke:#000000;stroke-width:1.046;}
        .st28{fill:none;stroke:#FFFFFF;stroke-width:1.046;stroke-miterlimit:10;}
        .st29{fill:#BEE8FF;stroke:#FFFFFF;stroke-miterlimit:10;}
        .st30{fill:none;stroke:#FFFFFF;stroke-width:1.046;}
    </style>
    <g>
        <path class="st0" d="M132.11,129.17l-0.79-0.69l0.35-0.4c0.2-0.23,0.51-0.35,0.82-0.32c1.42-1.74,2.71-3.59,3.81-5.52l0.91,0.52   c-1.2,2.09-2.59,4.09-4.15,5.95l-0.34,0.4l-0.32-0.27L132.11,129.17z" />
        <polygon points="132.32,128.78 132.32,128.78 132.32,128.78  " />
        <path class="st0" d="M66.88,128.37c-1.47-1.8-2.8-3.73-3.94-5.73l-0.26-0.46l0.38-0.21c-0.12-0.19-0.24-0.42-0.36-0.65l0.92-0.49   c0.13,0.24,0.26,0.49,0.4,0.73c0.08,0.14,0.12,0.3,0.12,0.46c0,0.15-0.04,0.29-0.1,0.42c1.07,1.84,2.3,3.61,3.66,5.27L66.88,128.37   z" />
        <path class="st0" d="M140.2,115.04l-0.99-0.33l0.14-0.44c0.09-0.3,0.33-0.53,0.63-0.62c0.63-2.17,1.08-4.4,1.34-6.64l1.04,0.12   c-0.27,2.42-0.77,4.84-1.48,7.17l-0.15,0.5l-0.4-0.12L140.2,115.04z" />
        <path d="M140.34,114.59L140.34,114.59C140.34,114.59,140.34,114.59,140.34,114.59z" />
        <path class="st0" d="M59.21,113.83c-0.64-2.2-1.09-4.47-1.34-6.76l-0.06-0.52l0.42-0.04c-0.03-0.26-0.05-0.54-0.07-0.81l1.04-0.08   c0.02,0.3,0.05,0.59,0.08,0.89c0,0.34-0.13,0.63-0.33,0.81c0.25,2.1,0.68,4.19,1.27,6.22L59.21,113.83z" />
        <path class="st0" d="M135.13,80.92c-0.71-1.09-1.48-2.16-2.29-3.18l0.82-0.65c0.85,1.06,1.65,2.17,2.38,3.32L135.13,80.92z" />
        <path class="st0" d="M64.17,80.42c0.91-1.41,1.91-2.77,2.98-4.06l0.34-0.4l0.32,0.27c0.21-0.24,0.41-0.48,0.62-0.71l0.78,0.7   c-0.22,0.25-0.45,0.51-0.67,0.77c-0.2,0.23-0.51,0.36-0.82,0.32c-0.95,1.17-1.84,2.39-2.66,3.65L64.17,80.42z" />
        <path class="st0" d="M126.93,72.27c-0.32-0.27-0.65-0.54-0.97-0.8c-0.23-0.18-0.36-0.45-0.36-0.74c0-0.02,0-0.04,0-0.07   c-1.59-1.21-3.27-2.31-5.01-3.27l0.51-0.92c1.9,1.05,3.72,2.26,5.44,3.58l0.42,0.32l-0.26,0.33c0.31,0.25,0.62,0.5,0.92,0.75   L126.93,72.27z" />
        <path class="st0" d="M74.87,70.48l-0.63-0.84c1.78-1.33,3.68-2.54,5.65-3.58l0.46-0.25l0.2,0.38c0.27-0.15,0.58-0.3,0.9-0.46   l0.46,0.94c-0.32,0.16-0.65,0.32-0.97,0.48c-0.29,0.15-0.62,0.13-0.88-0.01C78.25,68.13,76.51,69.25,74.87,70.48z" />
        <path class="st0" d="M111.87,62.69c0.01,0,0.02,0.01,0.03,0.01l0.51,0.14l-0.12,0.41c0.36,0.1,0.72,0.21,1.07,0.33l-0.32,0.99   c-0.38-0.12-0.76-0.24-1.15-0.35c-0.15-0.04-0.28-0.12-0.38-0.22L111.87,62.69z" />
        <g>
            <path class="st28" d="M100.24,71.77c-1.78,0-3.53-0.38-5.15-1.11c-4.74-2.16-7.49-7.23-6.72-12.42c0.91-5.62,5.59-9.12,12.19-9.12    c5.74,0,11.53,3.6,11.53,11.64c-0.06,3.66-1.96,7.04-5.05,8.97C105.01,71.06,102.65,71.77,100.24,71.77z" />
            <path class="st29" d="M79.97,105.07c0.61-5.68-0.01-11.51,1.42-17.05c1.76-6.96,6.79-12.61,13.47-15.12    c6.68-2.33,14.78-0.6,19.45,4.65c3.87,4.37,5.08,10.43,5.56,16.21c0.31,3.76,0.39,7.53,0.46,11.3L79.97,105.07z" />
            <path class="st28" d="M119.25,104.88H81.15c-0.74,0.02-1.36-0.58-1.38-1.33c0-0.05,0-0.1,0.01-0.14c0.21-1.87,0.26-3.82,0.32-5.7    c-0.04-3.31,0.32-6.62,1.05-9.84c1.87-6.82,6.96-12.26,13.6-14.53c7.01-2.34,15.17-0.46,19.83,4.56    c4.15,4.47,5.17,10.57,5.59,15.37c0.3,3.43,0.37,6.9,0.44,10.26c0,0.75-0.61,1.35-1.35,1.35L119.25,104.88L119.25,104.88z" />
        </g>
        <g>
            <path class="st28" d="M84.03,128.53c-1.12,0-2.22-0.23-3.24-0.69c-2.99-1.33-4.71-4.44-4.23-7.63c0.58-3.46,3.52-5.6,7.67-5.6    c3.61,0,7.26,2.21,7.26,7.16c-0.04,2.25-1.24,4.33-3.18,5.51C87.03,128.09,85.54,128.53,84.03,128.53z" />
            <path class="st28" d="M95.99,148.88H72.01c-0.47,0.01-0.85-0.36-0.87-0.82c0-0.03,0-0.06,0-0.09c0.13-1.15,0.16-2.35,0.2-3.5    c-0.02-2.03,0.2-4.07,0.66-6.05c1.18-4.19,4.38-7.54,8.56-8.93c4.41-1.44,9.55-0.29,12.49,2.8c2.62,2.75,3.26,6.49,3.52,9.45    c0.19,2.11,0.23,4.24,0.28,6.31c0,0.46-0.38,0.83-0.85,0.83L95.99,148.88L95.99,148.88z" />
        </g>
        <path class="st30" d="M136.51,99.4c-3.97-2-6.3-6.75-5.66-11.65c0.37-2.51,1.49-4.61,3.23-6.08c1.74-1.48,4.13-2.35,7.1-2.35   c2.47,0,4.88,0.85,6.67,2.63c1.78,1.77,2.99,4.49,2.99,8.29C150.83,97.61,143.19,102.75,136.51,99.4z" />
        <path class="st30" d="M54.93,99.4c-3.97-2-6.3-6.75-5.65-11.65c0.37-2.51,1.48-4.61,3.23-6.08c1.74-1.48,4.13-2.35,7.1-2.35   c2.47,0,4.88,0.85,6.67,2.63c1.78,1.77,2.99,4.49,2.99,8.29C69.25,97.61,61.61,102.75,54.93,99.4z" />
        <path class="st28" d="M115.83,128.53c-1.12,0-2.22-0.23-3.24-0.69c-2.99-1.33-4.71-4.44-4.23-7.63c0.58-3.46,3.52-5.6,7.67-5.6   c3.61,0,7.26,2.21,7.26,7.16c-0.04,2.25-1.24,4.33-3.18,5.51C118.83,128.09,117.35,128.53,115.83,128.53z" />
        <path class="st28" d="M127.8,148.88h-23.99c-0.47,0.01-0.85-0.36-0.87-0.82c0-0.03,0-0.06,0-0.09c0.13-1.15,0.17-2.35,0.2-3.5   c-0.02-2.03,0.2-4.07,0.66-6.05c1.18-4.19,4.38-7.54,8.56-8.93c4.41-1.44,9.55-0.29,12.49,2.8c2.62,2.75,3.26,6.49,3.52,9.45   c0.19,2.11,0.23,4.24,0.28,6.31c0,0.46-0.38,0.83-0.85,0.83L127.8,148.88L127.8,148.88z" />
        <path class="st30" d="M123.01,114.91c2.18-0.13,5.89,0.64,3.27,4.78 M128.1,111.32c-0.73,1.06-1.82,5.18,3.27,3.98" />
        <path class="st30" d="M138.95,86.26c-3.79-0.72-5.19,7.96,0,7.24 M140.36,86.26v3.32 M140.36,93.49v-3.92 M143.23,86.26v3.32    M143.23,93.49v-3.92 M140.36,89.58h2.87 M144.69,93.49v-3.92 M147.07,86.26h-1.29c-0.61,0-1.09,0.55-1.09,1.22v2.09 M144.69,89.58   h1.51" />
        <path class="st30" d="M57.37,86.26c-3.79-0.72-5.19,7.96,0,7.24 M58.77,86.26v3.32 M58.77,93.49v-3.92 M61.64,86.26v3.32    M61.64,93.49v-3.92 M58.77,89.58h2.87 M63.1,93.49v-3.92 M65.48,86.26H64.2c-0.61,0-1.09,0.55-1.09,1.22v2.09 M63.1,89.58h1.51" />
        <path class="st30" d="M66.53,68.27l8.18,2.16l-1.02,8.18" />
        <path class="st30" d="M134.24,68.27l-8.18,2.16l1.02,8.18" />
        <path class="st30" d="M72.38,112.45c1.07,0.62,3.2,2.25,3.18,3.76 M73.39,111.26c0.63,1.09,2.17,3.33,3.22,3.5 M71.68,113.15   c-1.05-0.17-2.95-0.8-2.11-1.97c-1.01-0.43-1.31-2.27,0.69-2.59c0.44-0.83,1.59-1.96,2.72,0.17c0.96-0.03,2.61,0.31,1.54,1.87" />
    </g>
</svg>