<svg xmlns="http://www.w3.org/2000/svg" xmlns:xlink="http://www.w3.org/1999/xlink" version="1.1" id="Layer_1" x="0px" y="0px" viewBox="0 0 200 198" style="enable-background:new 0 0 200 198;" xml:space="preserve">
    <style type="text/css">
        .st0{fill:#FFFFFF;}
        .st1{fill:#BEE8FF;}
        .st2{fill:none;stroke:#FFFFFF;stroke-miterlimit:10;}
        .st3{fill:none;stroke:#FFFFFF;stroke-width:0.7891;stroke-miterlimit:10;}
        .st4{fill:#BFE8FB;}
        .st5{fill:none;stroke:#FFFFFF;stroke-width:0.7891;}
        .st6{fill:#DFDFDE;}
        .st7{fill:none;stroke:#FFFFFF;stroke-width:0.9362;stroke-linecap:round;}
        .st8{fill:none;stroke:#FFFFFF;stroke-width:0.8955;stroke-linecap:round;}
        .st9{fill:#C1E8FB;stroke:#FFFFFF;stroke-width:0.9362;stroke-linecap:round;}
        .st10{fill:none;stroke:#FFFFFF;stroke-width:1.1794;stroke-miterlimit:10;}
        .st11{fill:none;stroke:#000000;stroke-width:0.75;stroke-miterlimit:10;}
        .st12{fill:#BEE7FA;}
        .st13{fill:none;stroke:#000000;stroke-width:0.75;}
        .st14{fill:#DEDEDD;}
        .st15{fill:none;stroke:#000000;stroke-width:1.9344;stroke-linecap:round;}
        .st16{fill:#BFE7FA;stroke:#000000;stroke-width:1.9344;}
        .st17{fill:#1A1A1A;}
        .st18{fill:none;stroke:#000000;stroke-width:1.21;stroke-linecap:round;}
        .st19{fill:#1C1C1B;}
        .st20{opacity:0.1294;}
        .st21{fill:none;stroke:#000000;stroke-width:1.0991;stroke-linecap:round;}
        .st22{fill:none;stroke:#000000;stroke-width:0.8833;stroke-miterlimit:10;}
        .st23{fill:none;stroke:#000000;stroke-width:1.3736;stroke-miterlimit:10;}
    </style>
    <g>
        <g>
            <g>
                <path class="st1" d="M43.09,101.28c1.42,5.19,6.29,8.49,11.48,8.96c5.5,0.47,10.85-2.83,14.15-7.08     c1.26-1.57,0.47-3.93-1.73-4.09c-3.15-0.16-6.29-0.47-9.44-0.63c0,1.57,0,3.15,0,4.72c1.1,0,2.36-0.16,3.46-0.16     c2.99-0.16,2.99-4.87,0-4.72c-4.56,0.16-9.12,0.31-13.68,0.31c-1.57,0-2.52,1.42-2.2,2.99c0.63,3.46,3.93,5.35,7.08,5.66     c3.62,0.31,7.39-1.26,10.85-2.04c2.99-0.79,1.73-5.35-1.26-4.56c-2.83,0.63-5.66,1.42-8.49,2.04c-2.2,0.63-2.2,3.93,0,4.56     c0.94,0.31,1.89,0.47,2.83,0.79c2.67,0.79,3.93-2.83,1.89-4.25c-0.16-0.16-0.31-0.16-0.31-0.31c-0.94-0.79-2.36-0.94-3.3,0     c-0.79,0.79-0.94,2.52,0,3.3c0.47,0.31,0.94,0.79,1.42,1.1c0.63-1.42,1.26-2.83,1.89-4.25c-0.94-0.31-1.89-0.47-2.83-0.79     c0,1.57,0,2.99,0,4.56c2.83-0.63,5.66-1.42,8.49-2.04c-0.47-1.57-0.79-2.99-1.26-4.56c-2.67,0.63-5.35,1.73-8.02,1.89     c-1.73,0.16-3.93-0.16-4.25-2.2c-0.79,0.94-1.57,2.04-2.2,2.99c4.56-0.16,9.12-0.31,13.68-0.31c0-1.57,0-3.15,0-4.72     c-1.1,0-2.36,0.16-3.46,0.16c-2.99,0.16-2.99,4.56,0,4.72c3.15,0.16,6.29,0.47,9.44,0.63c-0.63-1.42-1.1-2.67-1.73-4.09     c-2.52,3.15-6.13,5.82-10.22,5.66c-3.3,0-6.6-2.2-7.55-5.5C46.86,97.03,42.3,98.29,43.09,101.28L43.09,101.28z"/>
            </g>
        </g>
        <g>
            <g>
                <path class="st1" d="M130.84,101.44c0.47,5.5,5.82,8.81,11.16,8.49c2.83-0.16,5.5-0.94,8.02-2.04c2.36-0.94,5.82-2.04,6.76-4.72     c0.47-1.26,0.16-2.83-0.79-3.77c-1.1-0.94-2.52-1.1-3.93-1.26c-3.15-0.16-6.13-0.31-9.28-0.31c-2.52-0.16-5.98-0.79-8.33,0.63     c-2.52,1.57-3.3,5.03-0.94,7.08c2.2,1.89,5.82,1.42,8.49,1.26c3.3-0.31,6.45-0.94,9.59-1.89c2.52-0.79,2.04-4.56-0.63-4.56     c-4.25-0.16-8.49-0.16-12.74-0.31c-2.99,0-2.99,4.72,0,4.72c4.25,0.16,8.49,0.16,12.74,0.31c-0.16-1.57-0.47-3.15-0.63-4.56     c-3.77,1.26-7.71,1.89-11.79,1.89c-0.79,0-1.26,0-1.89-0.16c0.16,0-0.16,0,0,0c-0.16,0.16,0-0.16,0,0s0.16,0.63,0.16,0.47     l1.42-0.16c1.1,0,2.2,0,3.3,0.16c2.04,0.16,4.25,0.16,6.29,0.31c0.94,0,2.04,0,2.99,0.16c0.63,0,1.1,0,1.73,0     c0.16,0,0.47,0,0.47,0c-0.16-0.47-0.31-0.79-0.47-1.26c0-0.16,0.16-0.16,0.16-0.31c0,0-0.16,0.16-0.31,0.31     c-0.31,0.16-0.63,0.47-1.1,0.63c-0.79,0.47-1.73,0.79-2.67,1.26c-1.73,0.79-3.62,1.42-5.5,1.73c-2.67,0.47-7.23-0.47-7.39-3.77     c-0.16-1.26-0.94-2.36-2.36-2.36C131.94,99.08,130.68,100.18,130.84,101.44L130.84,101.44z"/>
            </g>
        </g>
        <path class="st10" d="M69.04,100.49c0.47,6.6-12.74,8.96-12.74,8.96c-13.05,0-12.58-9.59-12.58-9.59   c1.73-8.81,14.78-32.39,14.94-32.39c1.89,1.57,9.12,27.99,10.38,32.39C68.88,100.18,69.04,100.49,69.04,100.49z"/>
        <g>
            <g>
                <path class="st0" d="M69.04,99.24c-8.33-1.89-16.98-1.73-25.47,0.16c-0.79,0.16-0.47,1.26,0.31,1.1     c8.18-1.89,16.67-1.89,24.85-0.16C69.51,100.49,69.82,99.39,69.04,99.24L69.04,99.24z"/>
            </g>
        </g>
        <g>
            <g>
                <path class="st0" d="M68.57,99.86c-1.57,1.1-3.77,1.26-5.66,1.57c-2.2,0.31-4.4,0.63-6.6,0.63c-2.04,0.16-4.09,0-6.29,0     c-1.73-0.16-5.03,0.16-5.82-1.89c-0.31-0.63-1.42-0.31-1.1,0.31c0.79,1.89,2.52,2.36,4.4,2.52c2.52,0.31,5.19,0.47,7.71,0.31     c2.52,0,4.87-0.31,7.23-0.63c2.2-0.31,4.87-0.47,6.76-1.89C69.82,100.49,69.19,99.39,68.57,99.86L68.57,99.86z"/>
            </g>
        </g>
        <g>
            <g>
                <path class="st0" d="M56.61,102.85c-0.47-11.64,0.31-23.12,2.36-34.6c0.16-0.79-0.94-1.1-1.1-0.31     c-2.04,11.48-2.83,23.27-2.52,34.91C55.51,103.64,56.61,103.64,56.61,102.85L56.61,102.85z"/>
            </g>
        </g>
        <path class="st10" d="M130.68,99.86c0,0-0.47,9.59,12.58,9.59c0-0.16,13.21-2.36,12.74-8.96c0,0.16-8.49-31.29-10.54-33.02   C145.62,67.31,132.57,91.06,130.68,99.86z"/>
        <g>
            <g>
                <path class="st0" d="M131.62,100.49c7.71-1.89,15.88-1.89,23.74-0.16c0.79,0.16,1.1-0.94,0.31-1.1     c-8.02-1.89-16.35-1.73-24.37,0.16C130.52,99.55,130.84,100.65,131.62,100.49L131.62,100.49z"/>
            </g>
        </g>
        <g>
            <g>
                <path class="st0" d="M155.37,99.86c-1.57,1.1-3.77,1.26-5.66,1.57c-2.04,0.31-4.25,0.63-6.45,0.63c-2.04,0.16-3.93,0-5.98,0     c-1.73-0.16-5.03,0-5.82-1.89c-0.31-0.63-1.42-0.47-1.1,0.31c0.79,1.89,2.52,2.2,4.25,2.52c2.52,0.31,5.03,0.47,7.55,0.31     c2.36,0,4.72-0.31,7.08-0.63c2.2-0.31,4.87-0.63,6.6-1.89C156.63,100.49,156,99.39,155.37,99.86L155.37,99.86z"/>
            </g>
        </g>
        <g>
            <g>
                <path class="st0" d="M143.73,102.85c-0.47-11.64,0.31-23.12,2.36-34.6c0.16-0.79-0.94-1.1-1.1-0.31     c-2.04,11.48-2.83,23.27-2.36,34.91C142.63,103.64,143.89,103.64,143.73,102.85L143.73,102.85z"/>
            </g>
        </g>
        <path class="st10" d="M106.93,133.99c0,0.31,0,0.63-0.16,0.94l0,0c-0.31,0.79-1.1,1.42-2.04,1.42l-8.65,0.16   c-0.94,0-1.89-0.63-2.2-1.57l0,0c-0.16-0.31-0.16-0.63-0.16-0.94l5.5-67.46c0-0.47,0.31-0.94,0.47-1.26   c0.31,0.16,0.63,0.16,1.1,0.16h2.2c0.16,0,0.31,0,0.63,0c0.31,0.31,0.47,0.79,0.47,1.26L106.93,133.99z"/>
        <path class="st10" d="M117.78,138.71c0,2.2-7.86,4.09-17.61,4.09s-17.61-1.89-17.61-4.09c0-0.47,0.31-0.79,0.79-1.26l0,0   c1.57-1.26,5.5-2.2,10.54-2.52l0,0c0.31,0.94,1.1,1.57,2.2,1.57l8.65-0.16c0.94,0,1.73-0.63,2.04-1.42l0,0   c4.87,0.47,8.49,1.42,10.06,2.52l0,0C117.47,137.76,117.78,138.23,117.78,138.71z"/>
        <path class="st10" d="M121.09,141.69c0,3.93-9.28,7.08-20.91,7.08c-11.48,0-20.91-3.15-20.91-7.08c0-1.57,1.57-2.99,4.09-4.25l0,0   c2.52-1.26,6.29-2.04,10.54-2.52c0.31,0.94,1.1,1.57,2.2,1.57l8.65-0.16c0.94,0,1.73-0.63,2.04-1.42   c4.09,0.47,7.55,1.26,10.06,2.52l0,0C119.51,138.55,121.09,139.96,121.09,141.69z"/>
        <g>
            <g>
                <path class="st0" d="M105.2,101.91c-2.67,1.26-5.66,1.42-8.49,0.63c-0.79-0.16-1.1,0.94-0.31,1.1c3.15,0.94,6.45,0.63,9.44-0.79     C106.46,102.54,105.99,101.59,105.2,101.91L105.2,101.91z"/>
            </g>
        </g>
        <g>
            <g>
                <path class="st0" d="M96.4,107.88c2.99,0.63,5.98,0.47,8.96-0.16c0.79-0.16,0.47-1.26-0.31-1.1c-2.83,0.63-5.66,0.63-8.33,0.16     C96.08,106.63,95.77,107.73,96.4,107.88L96.4,107.88z"/>
            </g>
        </g>
        <g>
            <g>
                <path class="st0" d="M101.12,120.62c1.73-0.31,3.62-0.63,5.35-0.79c0.31,0,0.47-0.47,0.47-0.79c-0.16-0.31-0.47-0.47-0.79-0.47     c-1.73,0.31-3.62,0.63-5.35,0.79c-0.31,0-0.47,0.47-0.47,0.79C100.49,120.62,100.8,120.78,101.12,120.62L101.12,120.62z"/>
            </g>
        </g>
        <g>
            <g>
                <path class="st0" d="M105.83,123.14c-1.57,0.94-3.3,1.1-5.03,0.47c-0.79-0.16-1.1,0.94-0.31,1.1c2.04,0.63,4.09,0.31,5.98-0.63     C107.09,123.77,106.46,122.82,105.83,123.14L105.83,123.14z"/>
            </g>
        </g>
        <g>
            <g>
                <path class="st0" d="M105.99,127.23c-1.89,0.31-3.62,0.47-5.5,0.79c-0.31,0-0.47,0.47-0.47,0.79c0.16,0.31,0.47,0.47,0.79,0.47     c1.89-0.31,3.62-0.47,5.5-0.79c0.31,0,0.47-0.47,0.47-0.79C106.62,127.38,106.31,127.23,105.99,127.23L105.99,127.23z"/>
            </g>
        </g>
        <g>
            <g>
                <path class="st0" d="M100.64,99.55c0-4.09,0.16-8.18,0.16-12.27c0-0.79-1.1-0.79-1.26,0c0,4.09-0.16,8.18-0.16,12.27     C99.39,100.34,100.64,100.34,100.64,99.55L100.64,99.55z"/>
            </g>
        </g>
        <path class="st10" d="M106.15,59.92v2.36c0,1.57-1.1,2.83-2.52,3.15c-0.16,0-0.31,0-0.63,0h-1.89c-0.31,0-0.79,0-1.1-0.16   c-1.26-0.47-2.04-1.57-2.04-2.99v-2.36c0-0.47,0.16-0.94,0.31-1.42c0.47-1.1,1.57-1.73,2.83-1.73H103   C104.73,56.78,106.15,58.19,106.15,59.92z"/>
        <path class="st10" d="M103.16,56.78h-1.73c-0.47,0-0.79-0.31-0.79-0.79v-5.98c0-0.47,0.31-0.79,0.79-0.79h1.73   c0.47,0,0.79,0.31,0.79,0.79v5.98C103.95,56.31,103.63,56.78,103.16,56.78z"/>
        <g>
            <g>
                <path class="st0" d="M97.5,62.75c-8.18-2.04-16.83-2.36-25.16-0.79c-4.09,0.79-8.02,2.04-11.95,3.62     c-1.42,0.63-4.4,2.2-5.35,0.31c-0.94-1.73,1.1-3.46,2.67-3.62c1.26-0.31,2.67,0.16,3.93,0c0.31,0,0.63-0.16,0.94-0.16     c1.57-0.31,3.15-0.63,4.72-0.79c5.03-0.79,10.22-1.57,15.25-2.04c2.99-0.31,5.98-0.47,8.96-0.63c2.2,0,4.72,0,6.92,0.47     c0.79,0.16,1.1-0.94,0.31-1.1c-2.04-0.47-4.09-0.63-6.13-0.63c-2.83,0-5.66,0.16-8.33,0.47c-5.5,0.47-11.01,1.26-16.51,2.2     c-1.73,0.31-3.3,0.63-5.03,0.94c-0.31,0-0.63,0.16-0.94,0.16c-0.31,0-0.79-0.16-1.26-0.16c-0.94,0-2.04-0.16-2.99,0.16     c-1.57,0.31-2.67,1.42-3.15,2.83c-0.47,1.42,0,2.99,1.42,3.62c1.57,0.63,3.3,0,4.72-0.63c2.04-0.94,4.25-1.73,6.45-2.52     c9.91-2.99,20.6-3.3,30.51-0.79C97.97,64.01,98.29,62.91,97.5,62.75L97.5,62.75z"/>
            </g>
        </g>
        <g>
            <g>
                <path class="st0" d="M106.78,62.91c8.96-1.89,18.24-1.57,27.05,0.79c2.2,0.63,4.25,1.26,6.29,2.2c1.89,0.79,3.77,2.04,5.82,2.52     c1.42,0.31,3.15,0,3.77-1.57c0.63-1.42,0-2.99-0.94-3.93c-1.26-1.26-3.3-1.42-5.03-1.42c-0.63,0-1.1,0.16-1.57,0     c-1.42-0.31-2.83-0.63-4.25-0.94c-5.19-1.1-10.54-2.04-15.88-2.83c-3.15-0.47-6.29-0.79-9.44-0.94     c-2.36-0.16-4.87-0.16-7.23,0.31c-0.79,0.16-0.47,1.26,0.31,1.1c1.89-0.47,3.93-0.31,5.98-0.31c2.67,0.16,5.19,0.31,7.86,0.63     c5.19,0.63,10.54,1.57,15.73,2.67c1.73,0.31,3.62,0.79,5.35,1.1c0.94,0.16,1.73,0.47,2.67,0.31c1.89-0.16,4.25-0.16,5.35,1.57     c0.31,0.63,0.63,1.57,0.16,2.2c-0.63,1.1-1.89,0.79-2.83,0.63c-1.89-0.63-3.77-1.73-5.66-2.52c-1.89-0.79-3.93-1.42-5.82-2.04     c-9.12-2.52-18.71-2.83-27.83-0.94C105.83,61.97,106.15,63.07,106.78,62.91L106.78,62.91z"/>
            </g>
        </g>
    </g>
    </svg>