<svg xmlns="http://www.w3.org/2000/svg" xmlns:xlink="http://www.w3.org/1999/xlink" version="1.1" id="Layer_1" x="0px" y="0px" viewBox="0 0 200 200" style="enable-background:new 0 0 200 200;" xml:space="preserve">
    <style type="text/css">
        .st0{fill:#FFFFFF;}
        .st1{fill:#BEE8FF;}
        .st2{fill:none;stroke:#1A1A1A;stroke-width:2;stroke-miterlimit:10;}
        .st3{fill:#1A1A1A;}
    </style>
    <g>
        <polygon class="st0" points="126.35,67.53 131.49,66.21 136.58,67.53 138.73,71.2 138.98,75.33 136.08,79.58 131.26,81.29    126.95,81.29 123.4,77.68 122.41,73.55 124.1,69.7  "/>
        <path class="st0" d="M70.72,149.85c-0.27,0-0.54-0.01-0.81-0.01c-5.44-0.19-10.52-2.99-13.6-7.49c-2.77-4.04-3.47-8.94-1.9-13.45   c1.03-2.98,3.39-8.36,7.58-10.91c3.55-2.16,7.85-2.37,12.01-2.58c0,0,0.68-0.03,0.91-0.03c4.69,0,9.06,2.34,11.99,6.41   c3.07,4.26,3.97,9.59,2.42,14.27C86.45,144.7,79.5,149.85,70.72,149.85z"/>
        <path class="st0" d="M117.98,71.29c1.98-6.3,6.49-9.42,14.2-9.82h0.25c3.58,0,6.8,1.75,8.84,4.8c2.19,3.27,2.61,7.35,1.14,10.91   c-2.2,5.33-7.13,8.77-12.56,8.77c-1.01,0-2.03-0.12-3.05-0.35c-3.31-0.75-6.16-2.85-7.83-5.76   C117.43,77.18,117.08,74.14,117.98,71.29z"/>
        <path class="st0" d="M132.26,66.63c2.07,0,3.99,1.02,5.26,2.8c1.27,1.79,1.63,4.04,0.97,6.03c-1.26,3.8-4.06,5.81-8.1,5.82   c-2.38,0-4.7-1.15-6.07-2.99c-1.17-1.58-1.51-3.51-0.94-5.42c1.19-4.05,3.89-5.98,8.74-6.24   C132.12,66.63,132.26,66.63,132.26,66.63z"/>
        <path class="st0" d="M96.88,78.12c0.53,0,0.98-0.33,1.19-0.86c2.23-5.84,5.88-10.84,10.84-14.86c0.26-0.21,0.39-0.49,0.38-0.82   c-0.01-0.41-0.24-0.85-0.6-1.11c-3.85-2.86-7.99-5.43-11.99-7.9c-1.8-1.12-3.61-2.23-5.39-3.38c-0.19-0.13-0.4-0.19-0.62-0.19   c-0.35,0-0.68,0.17-0.92,0.46c-0.26,0.32-0.36,0.71-0.27,1.09l1.44,6.76c-13.63,2.21-25.79,9.49-33.39,20   c-6.68,9.24-9.23,20.08-7.38,31.35c0.09,0.54,0.47,0.89,0.97,0.9l0.21,0.02c0.11,0,0.22-0.01,0.33-0.04   c6.59-1.7,13.63-3.41,20.89-4.12c0.42-0.04,0.81-0.26,1.03-0.59c0.19-0.29,0.24-0.63,0.13-0.97c-4.37-14.14,4.6-30.05,19.59-34.85   c0.65,2.97,1.43,5.68,2.38,8.25C95.91,77.79,96.36,78.12,96.88,78.12z"/>
        <path class="st0" d="M112.38,143.18c-0.29,0.06-0.55,0.24-0.72,0.52c-0.19,0.3-0.24,0.67-0.15,0.99l1.5,5.3   c-4.87-2.4-9.63-5.09-14.18-8c3.59-3.6,6.36-7.77,8.23-12.43c0.87,2.25,1.52,4.22,2.04,6.15c0.14,0.54,0.6,0.88,1.17,0.88   c0.21,0,0.42-0.05,0.61-0.14c15.25-6.98,24.71-23.53,22.09-38.57c5.49-0.99,10.51-2.59,16.45-4.56   c2.07,10.32,0.05,20.47-5.84,29.37C136.72,133.11,125.34,140.57,112.38,143.18z"/>
        <path class="st0" d="M146.49,110.89c0.12,0,0.15-0.24,0.28-0.63c1.25-3.71,1.26-7.6,0.31-11.6c-0.17-0.74-0.21-1.15-0.38-1.15   c-0.1,0-0.19,0.13-0.25,0.36c-0.04,0.15-0.08,0.42-0.06,0.84c0.12,3.31,0.26,7.06-0.22,10.33c-0.06,0.4-0.06,0.83,0.01,1.2   C146.24,110.64,146.37,110.89,146.49,110.89z"/>
        <path class="st0" d="M145.54,112.62c0.18,0.08,0.37,0.06,0.55-0.05c0.16-0.1,0.29-0.27,0.38-0.46c0.17-0.39,0.15-0.86-0.23-1.03   c-0.18-0.08-0.37-0.06-0.55,0.05c-0.16,0.1-0.29,0.27-0.38,0.46C145.13,111.98,145.16,112.45,145.54,112.62z"/>
        <path class="st0" d="M53.46,93.29c-0.12,0-0.15,0.24-0.28,0.63c-1.25,3.71-1.26,7.6-0.31,11.6c0.17,0.74,0.21,1.15,0.38,1.15   c0.1,0,0.19-0.13,0.25-0.36c0.04-0.15,0.08-0.42,0.06-0.84c-0.12-3.31-0.26-7.06,0.22-10.33c0.06-0.4,0.06-0.83-0.01-1.2   C53.71,93.55,53.59,93.29,53.46,93.29z"/>
        <path class="st0" d="M54.42,91.56c-0.18-0.08-0.37-0.06-0.55,0.05c-0.16,0.1-0.29,0.27-0.38,0.46c-0.17,0.39-0.15,0.86,0.23,1.03   c0.18,0.08,0.37,0.06,0.55-0.05c0.16-0.1,0.29-0.27,0.38-0.46C54.82,92.21,54.8,91.73,54.42,91.56z"/>
        <path class="st0" d="M129.43,75.9v1.44c0,0.05,0.02,0.1,0.05,0.13c0.04,0.04,0.09,0.06,0.14,0.06c0.1,0,0.2-0.07,0.2-0.19v-1.39   c0.08,0,0.16,0.01,0.24,0.01h0.11c0.18-0.01,0.38-0.02,0.56-0.05v0.04c0.02,0.45,0.03,0.9,0.06,1.35c0.01,0.12,0.11,0.19,0.21,0.19   c0.06,0,0.11-0.02,0.14-0.06c0.03-0.03,0.05-0.08,0.05-0.14c-0.02-0.49-0.04-0.98-0.06-1.47c0.65-0.17,1.4-0.55,1.37-1.45   c-0.03-0.93-0.83-1.25-1.45-1.41c-0.01-0.82-0.02-1.68-0.02-2.61c0.35,0.05,0.81,0.2,1.08,0.61c0.04,0.06,0.1,0.09,0.16,0.09   c0.08,0,0.15-0.04,0.19-0.11c0.03-0.06,0.03-0.12-0.01-0.18c-0.25-0.39-0.76-0.66-1.42-0.76c0,0,0-0.55,0-0.69   c0-0.05-0.02-0.1-0.05-0.13c-0.04-0.04-0.09-0.06-0.14-0.06c-0.1,0-0.2,0.07-0.2,0.19c0,0.13,0,0.66,0,0.66c-0.04,0-0.08,0-0.12,0   c-0.23,0-0.45,0.02-0.67,0.06v-0.67c0-0.05-0.02-0.1-0.05-0.13c-0.04-0.04-0.09-0.06-0.14-0.06c-0.1,0-0.2,0.07-0.2,0.19v0.77   c-1.04,0.31-1.52,0.97-1.31,1.78c0.19,0.71,0.79,0.97,1.3,1.11v2.47c-0.58-0.15-0.97-0.53-1.18-1.15c-0.03-0.08-0.1-0.14-0.19-0.14   c-0.07,0-0.13,0.03-0.17,0.08c-0.03,0.05-0.04,0.1-0.02,0.16C128.16,75.28,128.66,75.75,129.43,75.9z M128.57,71.44   c0.08-0.31,0.36-0.59,0.78-0.8c0.03-0.02,0.06-0.03,0.1-0.04v2.03c-0.34-0.11-0.56-0.26-0.71-0.46   C128.56,71.91,128.51,71.67,128.57,71.44z M130.25,72.8l-0.16-0.03c-0.08-0.02-0.17-0.03-0.26-0.05v-2.27   c0.26-0.07,0.53-0.11,0.79-0.12c0,0.9,0,1.74,0.02,2.54C130.51,72.85,130.38,72.83,130.25,72.8z M130.58,75.54   c-0.17,0.02-0.32,0.03-0.47,0.03c-0.09,0-0.19,0-0.28-0.01v-2.45c0.15,0.03,0.29,0.05,0.43,0.08c0.13,0.02,0.27,0.05,0.39,0.07   c0.02,0.75,0.04,1.51,0.06,2.26C130.67,75.53,130.63,75.53,130.58,75.54z M131.11,75.43c-0.02-0.69-0.05-1.38-0.06-2.08   c0.43,0.13,0.91,0.36,0.99,0.95C132.13,74.98,131.59,75.29,131.11,75.43z"/>
        <polygon class="st0" points="66.68,126.15 71.82,124.83 76.92,126.15 79.06,129.82 79.31,133.95 76.42,138.2 71.59,139.91    67.28,139.91 63.74,136.29 62.74,132.17 64.44,128.32  "/>
        <path class="st0" d="M72.6,125.25c2.07,0,3.99,1.02,5.26,2.8c1.27,1.79,1.63,4.04,0.97,6.03c-1.26,3.8-4.06,5.81-8.1,5.82   c-2.38,0-4.7-1.15-6.07-2.99c-1.17-1.58-1.51-3.51-0.94-5.42c1.19-4.05,3.89-5.98,8.74-6.24C72.46,125.25,72.6,125.25,72.6,125.25z   "/>
        <path class="st0" d="M70.77,134.52v1.44c0,0.05,0.02,0.1,0.05,0.13c0.04,0.04,0.09,0.06,0.14,0.06c0.1,0,0.2-0.07,0.2-0.19v-1.39   c0.08,0,0.16,0.01,0.24,0.01h0.11c0.18-0.01,0.38-0.02,0.56-0.05v0.04c0.02,0.45,0.03,0.9,0.06,1.35c0.01,0.12,0.11,0.19,0.21,0.19   c0.06,0,0.11-0.02,0.14-0.06c0.03-0.03,0.05-0.08,0.05-0.14c-0.02-0.49-0.04-0.98-0.06-1.47c0.65-0.17,1.4-0.55,1.37-1.45   c-0.03-0.93-0.83-1.25-1.45-1.41c-0.01-0.82-0.02-1.68-0.02-2.61c0.35,0.05,0.81,0.2,1.08,0.61c0.04,0.06,0.1,0.09,0.16,0.09   c0.08,0,0.15-0.04,0.19-0.11c0.03-0.06,0.03-0.12-0.01-0.18c-0.25-0.39-0.76-0.66-1.42-0.76c0,0,0-0.55,0-0.69   c0-0.05-0.02-0.1-0.05-0.13c-0.04-0.04-0.09-0.06-0.14-0.06c-0.1,0-0.2,0.07-0.2,0.19c0,0.13,0,0.66,0,0.66c-0.04,0-0.08,0-0.12,0   c-0.23,0-0.45,0.02-0.67,0.06v-0.67c0-0.05-0.02-0.1-0.05-0.13c-0.04-0.04-0.09-0.06-0.14-0.06c-0.1,0-0.2,0.07-0.2,0.19v0.77   c-1.04,0.31-1.52,0.97-1.31,1.78c0.19,0.71,0.79,0.97,1.3,1.11v2.47c-0.58-0.15-0.97-0.53-1.18-1.15c-0.03-0.08-0.1-0.14-0.19-0.14   c-0.07,0-0.13,0.03-0.17,0.08c-0.03,0.05-0.04,0.1-0.02,0.16C69.49,133.9,69.99,134.37,70.77,134.52z M69.9,130.06   c0.08-0.3,0.36-0.59,0.78-0.8c0.03-0.02,0.06-0.03,0.1-0.04v2.03c-0.34-0.11-0.56-0.26-0.71-0.46   C69.9,130.53,69.84,130.29,69.9,130.06z M71.59,131.42l-0.16-0.03c-0.08-0.02-0.17-0.03-0.26-0.05v-2.27   c0.26-0.07,0.53-0.11,0.79-0.12c0,0.9,0,1.74,0.02,2.54C71.85,131.47,71.71,131.45,71.59,131.42z M71.91,134.16   c-0.17,0.02-0.32,0.03-0.47,0.03c-0.09,0-0.19,0-0.28-0.01v-2.45c0.15,0.03,0.29,0.05,0.43,0.08c0.13,0.02,0.27,0.05,0.39,0.07   c0.02,0.75,0.04,1.51,0.06,2.26C72.01,134.15,71.96,134.15,71.91,134.16z M72.45,134.05c-0.02-0.69-0.05-1.38-0.06-2.08   c0.43,0.13,0.91,0.36,0.99,0.95C73.46,133.6,72.93,133.91,72.45,134.05z"/>
        <polygon class="st1" points="126.55,67.53 131.69,66.21 136.78,67.53 138.93,71.2 139.18,75.33 136.28,79.58 131.46,81.29    127.15,81.29 123.6,77.68 122.61,73.55 124.3,69.7  "/>
        <path class="st2" d="M70.92,149.85c-0.27,0-0.54-0.01-0.81-0.01c-5.44-0.19-10.52-2.99-13.6-7.49c-2.77-4.04-3.47-8.94-1.9-13.45   c1.03-2.98,3.39-8.36,7.58-10.91c3.55-2.16,7.85-2.37,12.01-2.58c0,0,0.68-0.03,0.91-0.03c4.69,0,9.06,2.34,11.99,6.41   c3.07,4.26,3.97,9.59,2.42,14.27C86.65,144.7,79.7,149.85,70.92,149.85z"/>
        <path class="st2" d="M118.18,71.29c1.98-6.3,6.49-9.42,14.2-9.82h0.25c3.58,0,6.8,1.75,8.84,4.8c2.19,3.27,2.61,7.35,1.14,10.91   c-2.2,5.33-7.13,8.77-12.56,8.77c-1.01,0-2.03-0.12-3.05-0.35c-3.31-0.75-6.16-2.85-7.83-5.76   C117.63,77.18,117.28,74.14,118.18,71.29z"/>
        <path class="st2" d="M132.46,66.63c2.07,0,3.99,1.02,5.26,2.8c1.27,1.79,1.63,4.04,0.97,6.03c-1.26,3.8-4.06,5.81-8.1,5.82   c-2.38,0-4.7-1.15-6.07-2.99c-1.17-1.58-1.51-3.51-0.94-5.42c1.19-4.05,3.89-5.98,8.74-6.24   C132.32,66.63,132.46,66.63,132.46,66.63z"/>
        <path class="st2" d="M97.08,78.12c0.53,0,0.98-0.33,1.19-0.86c2.23-5.84,5.88-10.84,10.84-14.86c0.26-0.21,0.39-0.49,0.38-0.82   c-0.01-0.41-0.24-0.85-0.6-1.11c-3.85-2.86-7.99-5.43-11.99-7.9c-1.8-1.12-3.61-2.23-5.39-3.38c-0.19-0.13-0.4-0.19-0.62-0.19   c-0.35,0-0.68,0.17-0.92,0.46c-0.26,0.32-0.36,0.71-0.27,1.09l1.44,6.76c-13.63,2.21-25.79,9.49-33.39,20   c-6.68,9.24-9.23,20.08-7.38,31.35c0.09,0.54,0.47,0.89,0.97,0.9l0.21,0.02c0.11,0,0.22-0.01,0.33-0.04   c6.59-1.7,13.63-3.41,20.89-4.12c0.42-0.04,0.81-0.26,1.03-0.59c0.19-0.29,0.24-0.63,0.13-0.97c-4.37-14.14,4.6-30.05,19.59-34.85   c0.65,2.97,1.43,5.68,2.38,8.25C96.11,77.79,96.56,78.12,97.08,78.12z"/>
        <path class="st2" d="M112.58,143.18c-0.29,0.06-0.55,0.24-0.72,0.52c-0.19,0.3-0.24,0.67-0.15,0.99l1.5,5.3   c-4.87-2.4-9.63-5.09-14.18-8c3.59-3.6,6.36-7.77,8.23-12.43c0.87,2.25,1.52,4.22,2.04,6.15c0.14,0.54,0.6,0.88,1.17,0.88   c0.21,0,0.42-0.05,0.61-0.14c15.25-6.98,24.71-23.53,22.09-38.57c5.49-0.99,10.51-2.59,16.45-4.56   c2.07,10.32,0.05,20.47-5.84,29.37C136.92,133.11,125.54,140.57,112.58,143.18z"/>
        <path class="st3" d="M146.69,110.89c0.12,0,0.15-0.24,0.28-0.63c1.25-3.71,1.26-7.6,0.31-11.6c-0.17-0.74-0.21-1.15-0.38-1.15   c-0.1,0-0.19,0.13-0.25,0.36c-0.04,0.15-0.08,0.42-0.06,0.84c0.12,3.31,0.26,7.06-0.22,10.33c-0.06,0.4-0.06,0.83,0.01,1.2   C146.44,110.64,146.57,110.89,146.69,110.89z"/>
        <path class="st3" d="M145.74,112.62c0.18,0.08,0.37,0.06,0.55-0.05c0.16-0.1,0.29-0.27,0.38-0.46c0.17-0.39,0.15-0.86-0.23-1.03   c-0.18-0.08-0.37-0.06-0.55,0.05c-0.16,0.1-0.29,0.27-0.38,0.46C145.33,111.98,145.36,112.45,145.74,112.62z"/>
        <path class="st3" d="M53.66,93.29c-0.12,0-0.15,0.24-0.28,0.63c-1.25,3.71-1.26,7.6-0.31,11.6c0.17,0.74,0.21,1.15,0.38,1.15   c0.1,0,0.19-0.13,0.25-0.36c0.04-0.15,0.08-0.42,0.06-0.84c-0.12-3.31-0.26-7.06,0.22-10.33c0.06-0.4,0.06-0.83-0.01-1.2   C53.91,93.55,53.79,93.29,53.66,93.29z"/>
        <path class="st3" d="M54.62,91.56c-0.18-0.08-0.37-0.06-0.55,0.05c-0.16,0.1-0.29,0.27-0.38,0.46c-0.17,0.39-0.15,0.86,0.23,1.03   c0.18,0.08,0.37,0.06,0.55-0.05c0.16-0.1,0.29-0.27,0.38-0.46C55.02,92.21,55,91.73,54.62,91.56z"/>
        <path class="st3" d="M129.63,75.9v1.44c0,0.05,0.02,0.1,0.05,0.13c0.04,0.04,0.09,0.06,0.14,0.06c0.1,0,0.2-0.07,0.2-0.19v-1.39   c0.08,0,0.16,0.01,0.24,0.01h0.11c0.18-0.01,0.38-0.02,0.56-0.05v0.04c0.02,0.45,0.03,0.9,0.06,1.35c0.01,0.12,0.11,0.19,0.21,0.19   c0.06,0,0.11-0.02,0.14-0.06c0.03-0.03,0.05-0.08,0.05-0.14c-0.02-0.49-0.04-0.98-0.06-1.47c0.65-0.17,1.4-0.55,1.37-1.45   c-0.03-0.93-0.83-1.25-1.45-1.41c-0.01-0.82-0.02-1.68-0.02-2.61c0.35,0.05,0.81,0.2,1.08,0.61c0.04,0.06,0.1,0.09,0.16,0.09   c0.08,0,0.15-0.04,0.19-0.11c0.03-0.06,0.03-0.12-0.01-0.18c-0.25-0.39-0.76-0.66-1.42-0.76c0,0,0-0.55,0-0.69   c0-0.05-0.02-0.1-0.05-0.13c-0.04-0.04-0.09-0.06-0.14-0.06c-0.1,0-0.2,0.07-0.2,0.19c0,0.13,0,0.66,0,0.66c-0.04,0-0.08,0-0.12,0   c-0.23,0-0.45,0.02-0.67,0.06v-0.67c0-0.05-0.02-0.1-0.05-0.13c-0.04-0.04-0.09-0.06-0.14-0.06c-0.1,0-0.2,0.07-0.2,0.19v0.77   c-1.04,0.31-1.52,0.97-1.31,1.78c0.19,0.71,0.79,0.97,1.3,1.11v2.47c-0.58-0.15-0.97-0.53-1.18-1.15c-0.03-0.08-0.1-0.14-0.19-0.14   c-0.07,0-0.13,0.03-0.17,0.08c-0.03,0.05-0.04,0.1-0.02,0.16C128.36,75.28,128.86,75.75,129.63,75.9z M128.77,71.44   c0.08-0.31,0.36-0.59,0.78-0.8c0.03-0.02,0.06-0.03,0.1-0.04v2.03c-0.34-0.11-0.56-0.26-0.71-0.46   C128.76,71.91,128.71,71.67,128.77,71.44z M130.45,72.8l-0.16-0.03c-0.08-0.02-0.17-0.03-0.26-0.05v-2.27   c0.26-0.07,0.53-0.11,0.79-0.12c0,0.9,0,1.74,0.02,2.54C130.71,72.85,130.58,72.83,130.45,72.8z M130.78,75.54   c-0.17,0.02-0.32,0.03-0.47,0.03c-0.09,0-0.19,0-0.28-0.01v-2.45c0.15,0.03,0.29,0.05,0.43,0.08c0.13,0.02,0.27,0.05,0.39,0.07   c0.02,0.75,0.04,1.51,0.06,2.26C130.87,75.53,130.83,75.53,130.78,75.54z M131.31,75.43c-0.02-0.69-0.05-1.38-0.06-2.08   c0.43,0.13,0.91,0.36,0.99,0.95C132.33,74.98,131.79,75.29,131.31,75.43z"/>
        <polygon class="st1" points="66.88,126.15 72.02,124.83 77.12,126.15 79.26,129.82 79.51,133.95 76.62,138.2 71.79,139.91    67.48,139.91 63.94,136.29 62.94,132.17 64.64,128.32  "/>
        <path class="st2" d="M72.8,125.25c2.07,0,3.99,1.02,5.26,2.8c1.27,1.79,1.63,4.04,0.97,6.03c-1.26,3.8-4.06,5.81-8.1,5.82   c-2.38,0-4.7-1.15-6.07-2.99c-1.17-1.58-1.51-3.51-0.94-5.42c1.19-4.05,3.89-5.98,8.74-6.24C72.66,125.25,72.8,125.25,72.8,125.25z   "/>
        <path class="st3" d="M70.97,134.52v1.44c0,0.05,0.02,0.1,0.05,0.13c0.04,0.04,0.09,0.06,0.14,0.06c0.1,0,0.2-0.07,0.2-0.19v-1.39   c0.08,0,0.16,0.01,0.24,0.01h0.11c0.18-0.01,0.38-0.02,0.56-0.05v0.04c0.02,0.45,0.03,0.9,0.06,1.35c0.01,0.12,0.11,0.19,0.21,0.19   c0.06,0,0.11-0.02,0.14-0.06c0.03-0.03,0.05-0.08,0.05-0.14c-0.02-0.49-0.04-0.98-0.06-1.47c0.65-0.17,1.4-0.55,1.37-1.45   c-0.03-0.93-0.83-1.25-1.45-1.41c-0.01-0.82-0.02-1.68-0.02-2.61c0.35,0.05,0.81,0.2,1.08,0.61c0.04,0.06,0.1,0.09,0.16,0.09   c0.08,0,0.15-0.04,0.19-0.11c0.03-0.06,0.03-0.12-0.01-0.18c-0.25-0.39-0.76-0.66-1.42-0.76c0,0,0-0.55,0-0.69   c0-0.05-0.02-0.1-0.05-0.13c-0.04-0.04-0.09-0.06-0.14-0.06c-0.1,0-0.2,0.07-0.2,0.19c0,0.13,0,0.66,0,0.66c-0.04,0-0.08,0-0.12,0   c-0.23,0-0.45,0.02-0.67,0.06v-0.67c0-0.05-0.02-0.1-0.05-0.13c-0.04-0.04-0.09-0.06-0.14-0.06c-0.1,0-0.2,0.07-0.2,0.19v0.77   c-1.04,0.31-1.52,0.97-1.31,1.78c0.19,0.71,0.79,0.97,1.3,1.11v2.47c-0.58-0.15-0.97-0.53-1.18-1.15c-0.03-0.08-0.1-0.14-0.19-0.14   c-0.07,0-0.13,0.03-0.17,0.08c-0.03,0.05-0.04,0.1-0.02,0.16C69.69,133.9,70.19,134.37,70.97,134.52z M70.1,130.06   c0.08-0.3,0.36-0.59,0.78-0.8c0.03-0.02,0.06-0.03,0.1-0.04v2.03c-0.34-0.11-0.56-0.26-0.71-0.46   C70.1,130.53,70.04,130.29,70.1,130.06z M71.79,131.42l-0.16-0.03c-0.08-0.02-0.17-0.03-0.26-0.05v-2.27   c0.26-0.07,0.53-0.11,0.79-0.12c0,0.9,0,1.74,0.02,2.54C72.05,131.47,71.91,131.45,71.79,131.42z M72.11,134.16   c-0.17,0.02-0.32,0.03-0.47,0.03c-0.09,0-0.19,0-0.28-0.01v-2.45c0.15,0.03,0.29,0.05,0.43,0.08c0.13,0.02,0.27,0.05,0.39,0.07   c0.02,0.75,0.04,1.51,0.06,2.26C72.21,134.15,72.16,134.15,72.11,134.16z M72.65,134.05c-0.02-0.69-0.05-1.38-0.06-2.08   c0.43,0.13,0.91,0.36,0.99,0.95C73.66,133.6,73.13,133.91,72.65,134.05z"/>
    </g>
    </svg>