<?xml version="1.0" encoding="utf-8"?>
<!-- Generator: Adobe Illustrator 25.0.0, SVG Export Plug-In . SVG Version: 6.00 Build 0)  -->
<svg version="1.1" id="Layer_1" xmlns="http://www.w3.org/2000/svg" xmlns:xlink="http://www.w3.org/1999/xlink" x="0px" y="0px"
	 viewBox="0 0 200 200" style="enable-background:new 0 0 200 200;" xml:space="preserve">
<style type="text/css">
	.st0{fill:#1A1A1A;}
	.st1{fill:#38B6FF;}
</style>
<g>
	<polygon class="st1" points="32.11,143.28 45.4,139.8 58.55,143.28 64.1,153 64.75,163.92 57.26,175.14 44.8,179.65 33.66,179.65 
		24.5,170.11 21.92,159.2 26.31,149.04 	"/>
	<polygon class="st1" points="148.18,35.77 158.01,33.19 167.73,35.77 171.84,42.96 172.31,51.03 166.78,59.32 157.57,62.66 
		149.33,62.66 142.56,55.6 140.65,47.54 143.89,40.02 	"/>
	<g>
		<path class="st0" d="M49.9,122.47c-0.45,0-0.89,0.01-1.33,0.03c-8.99,0.45-20.19,1-28.47,7.48c-8.57,6.7-14.02,18.95-15.62,28.11
			c-1.51,8.64,1.05,17.54,7.19,25.05c7.1,8.68,18.08,14.25,28.66,14.53l1.29,0.02c21.37,0,38.27-14.51,42.05-36.11
			c1.56-8.88-1.3-18.43-7.83-26.21C69.04,127.3,59.34,122.47,49.9,122.47z M41.9,193.01c-0.51,0-1.02-0.01-1.54-0.03
			c-10.38-0.37-20.1-5.72-25.98-14.3c-5.3-7.72-6.62-17.09-3.64-25.69c1.97-5.69,6.47-15.97,14.48-20.84
			c6.77-4.12,15-4.53,22.95-4.92c0,0,1.3-0.05,1.73-0.05c8.95,0,17.3,4.46,22.92,12.24c5.86,8.13,7.59,18.32,4.62,27.26
			C71.95,183.16,58.66,193.01,41.9,193.01z"/>
		<path class="st0" d="M47.06,137.57l-0.41,0.01c-15.1,0.81-24.16,8.2-26.2,21.37c-0.83,5.37,0.82,10.8,4.66,15.28
			c4.38,5.11,11.1,8.28,17.55,8.28h0.07c12.72-0.05,22.73-8.58,24.91-21.24c0.95-5.49-0.75-11.29-4.66-15.93
			C58.89,140.47,52.94,137.57,47.06,137.57z M47.01,142.26c5.04,0,9.7,2.46,12.79,6.76c3.09,4.29,3.99,9.73,2.38,14.53
			c-3.03,9.06-9.75,13.87-19.51,13.9c-5.75,0-11.37-2.75-14.68-7.18c-2.85-3.82-3.67-8.48-2.3-13.12
			c2.82-9.54,9.48-14.27,20.98-14.89L47.01,142.26z"/>
		<path class="st0" d="M151.63,75.38c1.03,0.09,2.05,0.14,3.06,0.14c14.85,0,26.79-9.83,30.4-25.04c1.68-7.05-0.15-14.63-5.01-20.78
			c-5.08-6.42-12.65-10.26-20.27-10.26l-0.52,0.01c-18.8,0.98-29.79,9.86-32.68,26.41c-1.09,6.22,0.64,12.67,4.86,18.18
			C136.39,70.45,143.93,74.69,151.63,75.38z M132.19,42.9c3.78-12.04,12.4-18,27.12-18.76l0.47,0c6.83,0,12.99,3.34,16.89,9.17
			c4.18,6.25,4.99,14.04,2.17,20.85c-4.21,10.18-13.63,16.76-24,16.76c-1.93,0-3.89-0.23-5.82-0.66c-6.32-1.44-11.77-5.45-14.96-11
			C131.14,54.16,130.48,48.35,132.19,42.9z"/>
		<path class="st0" d="M154.99,64.42h0.05c9.64-0.03,17.18-6.5,18.78-16.09c0.7-4.17-0.61-8.57-3.58-12.08
			c-3.09-3.65-7.58-5.83-12.34-5.83c0,0-0.01,0-0.01,0c-11.35,0.61-18.17,6.18-19.71,16.11c-0.63,4.1,0.63,8.23,3.55,11.63
			C145.03,62.02,150.12,64.42,154.99,64.42z M158.15,35.11c3.47,0,6.69,1.7,8.82,4.66c2.14,2.97,2.74,6.72,1.63,10.03
			c-2.12,6.32-6.81,9.66-13.59,9.68c-3.99,0-7.89-1.91-10.18-4.97c-1.96-2.63-2.53-5.83-1.58-9.02c1.99-6.74,6.52-9.94,14.67-10.38
			H158.15z"/>
		<path class="st0" d="M91.88,55.95c1.01,0,1.88-0.63,2.27-1.64c4.27-11.16,11.24-20.72,20.72-28.4c0.49-0.4,0.74-0.94,0.73-1.57
			c-0.02-0.79-0.47-1.62-1.14-2.12c-7.35-5.47-15.26-10.37-22.9-15.1C88.1,5,84.66,2.86,81.24,0.67c-0.37-0.24-0.77-0.36-1.18-0.36
			c-0.66,0-1.31,0.32-1.77,0.89c-0.49,0.6-0.68,1.36-0.52,2.09l2.75,12.93c-26.05,4.21-49.28,18.11-63.8,38.19
			C3.97,72.06-0.91,92.77,2.63,114.3c0.17,1.03,0.9,1.7,1.86,1.73l0.41,0.03c0.21,0,0.41-0.03,0.62-0.08
			c12.59-3.24,26.03-6.52,39.91-7.87c0.81-0.08,1.54-0.5,1.97-1.13c0.36-0.55,0.45-1.2,0.26-1.85
			c-8.34-27.02,8.79-57.42,37.43-66.59c1.24,5.68,2.73,10.84,4.55,15.76C90.02,55.32,90.88,55.95,91.88,55.95z M42.48,103.78
			c-12.78,1.47-25.14,4.36-35.62,7.02C4.19,90.9,9.32,71.8,21.68,55.52c14.4-18.95,36.89-31.73,61.71-35.05
			c0.81-0.11,1.48-0.48,1.88-1.05c0.37-0.53,0.49-1.18,0.34-1.89l-2.11-9.9l4.76,2.97c7.04,4.38,14.31,8.9,21.17,13.82
			c-7.36,6.44-13.01,13.85-17.22,22.63c-1.41-4.49-2.42-8.37-3.16-12.12c-0.22-1.13-1.36-1.74-2.31-1.74c-0.2,0-0.4,0.03-0.58,0.08
			C54.84,41.8,34.93,74.02,42.48,103.78z"/>
		<path class="st0" d="M196.33,81.37c-0.14-0.6-0.46-1.05-0.93-1.34c-0.36-0.28-0.79-0.44-1.24-0.44c-0.24,0-0.49,0.04-0.74,0.13
			l-1.59,0.53c-11.49,3.82-22.34,7.43-34.23,9.37c-0.53,0.08-0.97,0.38-1.29,0.85c-0.39,0.57-0.54,1.35-0.39,2.03
			c6.56,29.6-14.09,57.83-36.98,69.55c-1.62-5.56-3.48-10.64-5.67-15.55c-0.34-0.76-1.02-1.19-1.87-1.19c-1.09,0-2.14,0.73-2.44,1.7
			c-3.6,11.66-9.73,21.38-18.74,29.73c-0.5,0.47-0.74,1.1-0.68,1.79c0.06,0.76,0.49,1.47,1.13,1.9
			c11.02,7.22,22.66,13.72,34.58,19.33c0.34,0.16,0.71,0.24,1.09,0.24c0.79,0,1.54-0.36,1.99-0.96c0.42-0.55,0.53-1.25,0.34-1.96
			l-3.63-12.81c25.58-5.79,47.81-21.13,61.03-42.14C197.71,123.6,201.27,102.59,196.33,81.37z M121.49,180.26
			c-0.56,0.11-1.05,0.47-1.38,1c-0.36,0.58-0.46,1.29-0.29,1.9l2.87,10.13c-9.3-4.59-18.4-9.73-27.09-15.28
			c6.86-6.87,12.15-14.85,15.73-23.75c1.67,4.3,2.91,8.06,3.9,11.76c0.27,1.02,1.15,1.69,2.24,1.69c0.4,0,0.8-0.09,1.17-0.26
			c29.13-13.33,47.21-44.95,42.2-73.69c10.48-1.9,20.07-4.94,31.43-8.72c3.95,19.72,0.1,39.11-11.15,56.11
			C168,161.01,146.26,175.26,121.49,180.26z"/>
		<path class="st0" d="M14.67,80.36c-0.79,0-1.47,0.44-1.87,1.2c-3.66,7.08-3.08,14.53-2.1,22.17c0.19,1.44,1.45,2.2,2.59,2.2
			c0.67,0,1.28-0.25,1.66-0.69c0.26-0.29,0.54-0.81,0.44-1.61c-0.81-6.33-1.74-13.49,1.49-19.73c0.4-0.77,0.37-1.58-0.06-2.29
			C16.37,80.85,15.52,80.36,14.67,80.36z"/>
		<path class="st0" d="M17.44,72.69c-0.7,0-1.3,0.26-1.72,0.74c-0.36,0.43-0.57,1-0.57,1.6c0,1.17,0.78,2.35,2.28,2.35
			c0.7,0,1.3-0.26,1.72-0.74c0.36-0.43,0.57-1,0.57-1.6C19.72,73.87,18.93,72.69,17.44,72.69z"/>
		<path class="st0" d="M181.19,124.11c0.79,0,1.48-0.38,1.94-1.08c4.28-6.58,5.61-14.17,6.71-22.02c0.1-0.73-0.1-1.42-0.57-1.97
			c-0.5-0.58-1.27-0.93-2.02-0.93c-1.05,0-1.8,0.67-1.95,1.75c-0.94,6.71-2,14.31-6.2,20.77c-0.47,0.71-0.51,1.49-0.14,2.19
			C179.38,123.59,180.28,124.11,181.19,124.11z"/>
		<path class="st0" d="M186.71,96c0.7,0,1.3-0.26,1.72-0.74c0.36-0.43,0.57-1,0.57-1.6c0-1.17-0.78-2.35-2.28-2.35
			c-0.7,0-1.29,0.26-1.72,0.74c-0.36,0.43-0.57,1-0.57,1.6C184.43,94.82,185.21,96,186.71,96z"/>
	</g>
	<path class="st0" d="M41.88,167.06l-0.01,3.9c0,0.14,0.05,0.27,0.14,0.36c0.1,0.1,0.24,0.15,0.39,0.15c0.27,0,0.53-0.18,0.54-0.52
		l0.01-3.76c0.21,0.01,0.43,0.02,0.65,0.02l0.29,0c0.5-0.01,1.02-0.06,1.52-0.14l0,0.11c0.05,1.22,0.09,2.44,0.15,3.66
		c0.02,0.34,0.29,0.51,0.56,0.51c0.15,0,0.29-0.06,0.39-0.15c0.09-0.09,0.13-0.22,0.13-0.37c-0.07-1.33-0.12-2.65-0.17-3.98
		c1.75-0.45,3.79-1.5,3.72-3.93c-0.07-2.51-2.26-3.38-3.94-3.82c-0.04-2.23-0.06-4.54-0.05-7.07c0.95,0.13,2.2,0.53,2.92,1.66
		c0.1,0.16,0.26,0.25,0.44,0.25c0.21,0,0.41-0.12,0.51-0.29c0.09-0.16,0.08-0.34-0.03-0.5c-0.69-1.07-2.05-1.79-3.84-2.05
		c0,0,0-1.49,0-1.88c0-0.15-0.05-0.27-0.14-0.37c-0.1-0.1-0.24-0.15-0.39-0.15c-0.27,0-0.54,0.18-0.54,0.52c0,0.36,0,1.79,0,1.79
		c-0.11,0-0.22-0.01-0.33-0.01c-0.61,0-1.22,0.05-1.82,0.16l0-1.82c0-0.14-0.05-0.27-0.14-0.36c-0.1-0.1-0.24-0.15-0.39-0.15
		c-0.27,0-0.53,0.18-0.54,0.52l0,2.07c-2.81,0.84-4.13,2.64-3.54,4.82c0.53,1.94,2.15,2.63,3.52,3.01l-0.01,6.7
		c-1.58-0.41-2.63-1.44-3.2-3.13c-0.08-0.23-0.27-0.37-0.51-0.37c-0.19,0-0.36,0.09-0.46,0.22c-0.09,0.12-0.11,0.28-0.05,0.44
		C38.42,165.39,39.76,166.64,41.88,167.06z M39.52,154.96c0.21-0.83,0.96-1.6,2.12-2.18c0.08-0.04,0.17-0.08,0.26-0.12l-0.01,5.51
		c-0.91-0.3-1.52-0.7-1.91-1.26C39.52,156.25,39.36,155.59,39.52,154.96z M44.09,158.66l-0.43-0.08c-0.23-0.04-0.46-0.09-0.7-0.14
		l0.01-6.17c0.7-0.19,1.44-0.3,2.15-0.31c0,2.45,0.01,4.7,0.05,6.89C44.8,158.79,44.44,158.73,44.09,158.66z M44.98,166.08
		c-0.45,0.05-0.88,0.07-1.28,0.07c-0.26,0-0.51-0.01-0.75-0.03l0.01-6.63c0.39,0.08,0.79,0.15,1.17,0.21
		c0.36,0.06,0.72,0.13,1.06,0.19c0.04,2.04,0.1,4.09,0.18,6.13C45.23,166.05,45.1,166.06,44.98,166.08z M46.42,165.79
		c-0.07-1.88-0.12-3.75-0.16-5.63c1.16,0.34,2.47,0.96,2.68,2.59C49.18,164.57,47.73,165.41,46.42,165.79z"/>
	<path class="st0" d="M154.08,51.71l-0.01,2.75c0,0.1,0.03,0.19,0.1,0.26c0.07,0.07,0.17,0.11,0.28,0.11c0.19,0,0.38-0.13,0.38-0.37
		l0-2.65c0.15,0.01,0.3,0.01,0.46,0.01l0.2,0c0.35-0.01,0.72-0.04,1.07-0.1l0,0.08c0.03,0.86,0.07,1.72,0.11,2.58
		c0.01,0.24,0.21,0.36,0.39,0.36c0.11,0,0.21-0.04,0.27-0.11c0.06-0.07,0.09-0.16,0.09-0.26c-0.05-0.94-0.08-1.87-0.12-2.81
		c1.23-0.32,2.67-1.06,2.62-2.77c-0.05-1.77-1.59-2.39-2.78-2.69c-0.03-1.57-0.04-3.2-0.04-4.99c0.67,0.09,1.55,0.37,2.06,1.17
		c0.07,0.11,0.18,0.17,0.31,0.17c0.15,0,0.29-0.08,0.36-0.21c0.06-0.11,0.05-0.24-0.02-0.35c-0.48-0.75-1.44-1.26-2.71-1.45
		c0,0,0-1.05,0-1.32c0-0.1-0.03-0.19-0.1-0.26c-0.07-0.07-0.17-0.11-0.28-0.11c-0.19,0-0.38,0.13-0.38,0.37c0,0.26,0,1.26,0,1.26
		c-0.08,0-0.16,0-0.23,0c-0.43,0-0.86,0.04-1.28,0.11l0-1.28c0-0.1-0.03-0.19-0.1-0.26c-0.07-0.07-0.17-0.11-0.28-0.11
		c-0.19,0-0.38,0.13-0.38,0.37l0,1.46c-1.98,0.59-2.91,1.86-2.49,3.4c0.37,1.36,1.51,1.85,2.48,2.12l-0.01,4.72
		c-1.12-0.29-1.85-1.01-2.26-2.21c-0.05-0.16-0.19-0.26-0.36-0.26c-0.13,0-0.25,0.06-0.32,0.16c-0.06,0.09-0.08,0.2-0.04,0.31
		C151.64,50.53,152.59,51.42,154.08,51.71z M152.42,43.18c0.15-0.58,0.68-1.13,1.49-1.53c0.06-0.03,0.12-0.06,0.18-0.09l-0.01,3.89
		c-0.64-0.21-1.07-0.49-1.35-0.89C152.42,44.09,152.31,43.63,152.42,43.18z M155.64,45.79l-0.3-0.05c-0.16-0.03-0.33-0.06-0.5-0.1
		l0.01-4.35c0.49-0.14,1.02-0.21,1.52-0.22c0,1.73,0.01,3.32,0.04,4.86C156.14,45.88,155.89,45.84,155.64,45.79z M156.27,51.02
		c-0.32,0.03-0.62,0.05-0.9,0.05c-0.18,0-0.36-0.01-0.53-0.02l0.01-4.67c0.28,0.06,0.55,0.1,0.83,0.15
		c0.26,0.04,0.51,0.09,0.75,0.14c0.03,1.44,0.07,2.88,0.12,4.32C156.45,51,156.36,51.01,156.27,51.02z M157.29,50.82
		c-0.05-1.32-0.09-2.65-0.11-3.97c0.82,0.24,1.74,0.68,1.89,1.82C159.23,49.96,158.21,50.55,157.29,50.82z"/>
</g>
</svg>
