<svg xmlns="http://www.w3.org/2000/svg" xmlns:xlink="http://www.w3.org/1999/xlink" version="1.1" id="Layer_1" x="0px" y="0px" viewBox="0 0 200 200" style="enable-background:new 0 0 200 200;" xml:space="preserve">
    <style type="text/css">
        .st0{fill:#38B6FF;}
        .st1{fill:#1A1A1A;}
        .st2{fill:none;stroke:#1A1A1A;stroke-width:4;stroke-miterlimit:10;}
        .st3{fill:#333333;}
        .st4{fill:#FFFFFF;}
        .st5{fill:#1C1C1B;}
        .st6{fill:#2B2A2A;}
    </style>
    <g>
        <g>
            <path class="st4" d="M104.34,168.48c0,0-57.16-1.72-82.94,13.59c-0.42-44.4-2.13-89.77-7.16-133.84    C25.61,33.66,41.93,31.04,56.8,30.57c21.5-0.68,44.42,13.12,44.42,13.12L104.34,168.48z"/>
            <path d="M21.41,183.25c-0.2,0-0.4-0.05-0.58-0.15c-0.37-0.21-0.6-0.59-0.6-1.02c-0.5-52.88-2.78-95.37-7.16-133.72    c-0.03-0.31,0.05-0.61,0.24-0.86C25.1,32.39,41.9,29.86,56.77,29.39c21.58-0.69,44.12,12.72,45.07,13.29    c0.34,0.21,0.56,0.58,0.57,0.98l3.12,124.8c0.01,0.32-0.12,0.64-0.35,0.86c-0.23,0.23-0.55,0.35-0.87,0.34    c-0.57-0.02-57.12-1.53-82.3,13.42C21.82,183.19,21.62,183.25,21.41,183.25z M15.47,48.58c4.3,37.82,6.56,79.66,7.1,131.48    c24.56-13.22,72.06-12.95,80.57-12.79l-3.07-122.9c-3.61-2.06-24.14-13.23-43.22-12.63C42.64,32.2,26.65,34.56,15.47,48.58z"/>
        </g>
        <g>
            <path class="st4" d="M104.34,168.48c0,0,57.15-2.7,83.85,10.93c-2.4-44.33-2.89-92.4-0.67-136.7    c-12.27-13.82-28.72-15.39-43.6-14.92c-21.5,0.69-43.5,15.92-43.5,15.92L104.34,168.48z"/>
            <path d="M188.19,180.59c-0.18,0-0.37-0.04-0.54-0.13c-26.11-13.33-82.69-10.83-83.26-10.8c-0.31,0.01-0.62-0.1-0.86-0.31    c-0.23-0.21-0.37-0.51-0.38-0.83L99.25,43.75c-0.01-0.4,0.18-0.78,0.51-1.01c0.91-0.63,22.53-15.44,44.13-16.13    c14.87-0.48,31.79,0.97,44.52,15.32c0.2,0.23,0.31,0.53,0.3,0.84c-2.12,42.27-1.89,89.5,0.67,136.58    c0.02,0.42-0.18,0.82-0.53,1.05C188.64,180.53,188.42,180.59,188.19,180.59z M116.65,167.07c17.83,0,50.67,1.35,70.26,10.41    c-2.45-46.32-2.65-92.71-0.59-134.34c-12.05-13.28-28.16-14.62-42.36-14.17c-19.09,0.61-38.88,13.08-42.34,15.36l3.86,122.93    C107.4,167.19,111.37,167.07,116.65,167.07z"/>
        </g>
        <g>
            <path class="st4" d="M103.93,168.5c0,0-63.95-10.77-92.76,4.74C10.85,128.49,8.25,83.61,2.78,39.2    c12.73-14.73,30.94-17.42,47.54-17.95c23.99-0.76,49.51,13.07,49.51,13.07L103.93,168.5z"/>
            <path d="M11.17,174.42c-0.21,0-0.42-0.05-0.6-0.16c-0.36-0.21-0.57-0.59-0.58-1.01c-0.33-46.38-3.15-91.43-8.37-133.9    c-0.04-0.33,0.06-0.66,0.28-0.91C15.06,23.19,33.74,20.6,50.28,20.07c24.04-0.78,49.06,12.64,50.11,13.21    c0.37,0.2,0.6,0.58,0.62,1l4.09,134.18c0.01,0.35-0.14,0.69-0.4,0.92c-0.27,0.23-0.62,0.33-0.97,0.27    c-0.64-0.11-63.88-10.53-92,4.62C11.55,174.37,11.36,174.42,11.17,174.42z M4.02,39.58c5.13,41.83,7.92,86.14,8.31,131.74    c27.38-13.23,80.76-5.72,90.37-4.22L98.68,35.05c-3.96-2.03-26.93-13.3-48.32-12.62C34.47,22.93,16.57,25.38,4.02,39.58z"/>
        </g>
        <g>
            <path class="st4" d="M104.34,168.48c0,0,63.14-14.82,92.87-1.17c-2.53-44.68-2.79-89.63-0.16-134.3    c-13.64-13.89-31.99-15.42-48.59-14.89c-23.99,0.76-48.58,16.2-48.58,16.2L104.34,168.48z"/>
            <path d="M104.34,169.66c-0.26,0-0.51-0.08-0.72-0.24c-0.28-0.21-0.45-0.54-0.46-0.9L98.71,34.36c-0.01-0.42,0.2-0.81,0.55-1.04    c1.01-0.64,25.13-15.61,49.17-16.38c16.54-0.53,35.35,0.87,49.46,15.24c0.23,0.24,0.36,0.56,0.34,0.89    c-2.51,42.72-2.46,87.86,0.16,134.16c0.02,0.41-0.17,0.81-0.51,1.04c-0.34,0.23-0.78,0.27-1.16,0.1    c-29.03-13.33-91.48,1.1-92.11,1.25C104.53,169.65,104.43,169.66,104.34,169.66z M101.09,34.97l4.39,132.05    c9.5-2.11,62.3-13,90.46-1.54c-2.51-45.54-2.54-89.93-0.09-132C182.41,20.09,164.39,18.8,148.5,19.3    C127.12,19.98,104.91,32.69,101.09,34.97z"/>
        </g>
        <g>
            <path class="st0" d="M138.95,18.43c4,14.83,3.96,29.56,4.21,44.92c-3.48-5.35-7.57-10.03-12.29-14.09    c-2.16,5.83-4.7,11.56-7.25,17.29c-0.76,0.19-1.24-0.7-1.41-1.4c-3.5-14.3-3.8-27.13-6.83-41.49c5.11-3.07,8.16-4.1,14.14-4.94    C131.88,18.4,136.49,17.3,138.95,18.43z"/>
            <path class="st0" d="M123.42,67.76c-0.61,0-1.19-0.29-1.63-0.82c-0.43-0.53-0.64-1.17-0.72-1.5c-1.91-7.83-2.9-15.34-3.85-22.6    c-0.8-6.1-1.62-12.4-3-18.92c-0.1-0.49,0.12-0.99,0.55-1.25c5.2-3.12,8.33-4.22,14.58-5.09c0.4-0.06,0.86-0.13,1.37-0.22    c2.68-0.45,6.35-1.07,8.72,0.02c0.32,0.15,0.55,0.43,0.65,0.76c3.78,14,3.99,27.69,4.21,42.18l0.05,3.03    c0.01,0.53-0.33,0.99-0.83,1.15c-0.5,0.15-1.05-0.04-1.33-0.48c-3.08-4.73-6.71-9-10.81-12.72c-2.04,5.31-4.38,10.61-6.66,15.74    c-0.15,0.33-0.45,0.6-0.81,0.69C123.74,67.74,123.58,67.76,123.42,67.76z M116.71,24.25c1.29,6.31,2.09,12.39,2.85,18.27    c0.92,7.07,1.88,14.38,3.7,21.94c2.27-5.13,4.56-10.38,6.5-15.61c0.13-0.36,0.44-0.63,0.81-0.73c0.37-0.1,0.77,0,1.06,0.25    c3.82,3.28,7.27,7,10.29,11.12c-0.21-13.82-0.47-26.92-3.96-40.16c-1.81-0.51-4.81,0-6.85,0.34c-0.53,0.09-1.01,0.17-1.43,0.23    C124.1,20.68,121.17,21.64,116.71,24.25z"/>
        </g>
        <g>
            <path d="M20.99,54.99c-0.14,0-0.27-0.07-0.35-0.21c-0.1-0.19-0.03-0.43,0.16-0.53c8.72-4.73,19.39-7.03,31.73-6.87    c10.94,0.15,21.84,2.17,32.39,4.13c0.21,0.04,0.35,0.24,0.31,0.46c-0.04,0.21-0.25,0.36-0.46,0.31    c-10.51-1.95-21.38-3.97-32.26-4.11c-12.2-0.15-22.75,2.12-31.35,6.78C21.12,54.98,21.06,54.99,20.99,54.99z"/>
        </g>
        <g>
            <path d="M23.06,80.37c-0.16,0-0.31-0.1-0.37-0.25c-0.08-0.2,0.02-0.43,0.22-0.51c19.85-7.68,42-4.94,61.55-2.52    c0.22,0.03,0.37,0.22,0.34,0.44c-0.03,0.21-0.22,0.37-0.44,0.34c-19.45-2.41-41.5-5.13-61.17,2.47    C23.15,80.36,23.11,80.37,23.06,80.37z"/>
        </g>
        <g>
            <path d="M24.68,107.35c-0.15,0-0.29-0.08-0.36-0.23c-0.09-0.2-0.01-0.43,0.19-0.52c7.53-3.54,15.55-5.69,23.85-6.39    c3.85-0.33,8.03-0.36,12.77-0.09c8.35,0.46,16.25,1.72,23.48,3.74c0.21,0.06,0.33,0.27,0.27,0.48c-0.06,0.21-0.28,0.33-0.48,0.27    c-7.17-2-15.02-3.25-23.31-3.71c-4.7-0.26-8.84-0.23-12.66,0.09c-8.2,0.69-16.13,2.82-23.58,6.32    C24.79,107.34,24.74,107.35,24.68,107.35z"/>
        </g>
        <g>
            <path d="M25.05,134.07c-0.14,0-0.27-0.07-0.35-0.21c-0.1-0.19-0.03-0.43,0.16-0.53c16.16-8.79,37.87-9.59,61.12-2.26    c0.21,0.07,0.32,0.29,0.26,0.49c-0.07,0.21-0.29,0.32-0.49,0.26c-23.04-7.27-44.53-6.49-60.51,2.2    C25.18,134.05,25.11,134.07,25.05,134.07z"/>
        </g>
        <g>
            <path d="M119.14,77.75c-0.16,0-0.31-0.1-0.37-0.25c-0.08-0.2,0.02-0.43,0.22-0.51c18.99-7.35,42.6-8.31,61.61-2.5    c0.21,0.06,0.32,0.28,0.26,0.49c-0.06,0.21-0.28,0.33-0.49,0.26c-18.85-5.75-42.26-4.8-61.1,2.49    C119.24,77.74,119.19,77.75,119.14,77.75z"/>
        </g>
        <g>
            <path d="M120.75,104.29c-0.15,0-0.29-0.08-0.36-0.23c-0.09-0.2-0.01-0.43,0.19-0.52c7.53-3.54,15.55-5.69,23.85-6.39    c3.86-0.33,8.03-0.36,12.77-0.09c8.35,0.46,16.25,1.72,23.48,3.74c0.21,0.06,0.33,0.27,0.27,0.48c-0.06,0.21-0.28,0.33-0.48,0.27    c-7.17-2-15.02-3.25-23.31-3.71c-4.7-0.26-8.84-0.23-12.66,0.09c-8.2,0.69-16.13,2.82-23.58,6.32    C120.87,104.28,120.81,104.29,120.75,104.29z"/>
        </g>
        <g>
            <path d="M121.13,131.45c-0.14,0-0.27-0.07-0.35-0.21c-0.1-0.19-0.03-0.43,0.16-0.53c16.16-8.79,37.87-9.59,61.12-2.26    c0.21,0.07,0.32,0.29,0.26,0.49c-0.07,0.21-0.29,0.32-0.49,0.26c-23.04-7.27-44.53-6.49-60.51,2.2    C121.26,131.43,121.2,131.45,121.13,131.45z"/>
        </g>
        <g>
            <path d="M179.69,49.71c-0.05,0-0.11-0.01-0.16-0.03c-8.33-3.64-17.53-5.2-26.6-4.52c-0.21,0.02-0.4-0.15-0.42-0.36    c-0.02-0.22,0.15-0.41,0.36-0.42c9.2-0.69,18.52,0.89,26.98,4.58c0.2,0.09,0.29,0.32,0.2,0.52    C179.98,49.62,179.84,49.71,179.69,49.71z"/>
        </g>
        <g>
            <path d="M10.54,51.82c-0.2,0-0.37-0.15-0.39-0.35L8.76,39.56c-0.03-0.22,0.13-0.41,0.34-0.44c0.22-0.03,0.41,0.13,0.44,0.34    l1.39,11.91c0.03,0.22-0.13,0.41-0.34,0.44C10.57,51.82,10.55,51.82,10.54,51.82z"/>
        </g>
        <g>
            <path d="M14.04,42.17c-0.2,0-0.38-0.16-0.39-0.36l-0.5-7.09c-0.02-0.22,0.15-0.4,0.36-0.42c0.21-0.02,0.4,0.15,0.42,0.36l0.5,7.09    c0.02,0.22-0.15,0.4-0.36,0.42C14.06,42.17,14.05,42.17,14.04,42.17z"/>
        </g>
        <g>
            <path d="M190.65,159.27c-0.19,0-0.36-0.14-0.39-0.33c-0.62-3.86-0.78-7.8-0.48-11.7c0.02-0.22,0.2-0.38,0.42-0.36    c0.22,0.02,0.38,0.21,0.36,0.42c-0.3,3.84-0.14,7.72,0.47,11.52c0.03,0.21-0.11,0.42-0.33,0.45    C190.69,159.27,190.67,159.27,190.65,159.27z"/>
        </g>
        <g>
            <path d="M185.21,157.89c-0.02,0-0.03,0-0.05,0c-0.19-0.02-0.34-0.18-0.34-0.37l-0.22-5.58c-0.01-0.21,0.15-0.39,0.37-0.41    c0.21-0.01,0.4,0.14,0.42,0.36c0.45,4.91,0.34,5.29,0.21,5.73C185.54,157.78,185.38,157.89,185.21,157.89z"/>
        </g>
    </g>
    <path class="st1" d="M131.31,33.4c-0.57-2.89-1.14-5.93-1.74-9.29c1.35-0.08,3.17,0.13,4.39,1.48c0.14,0.16,0.32,0.22,0.52,0.19  c0.22-0.04,0.42-0.2,0.49-0.41c0.06-0.19,0.02-0.38-0.12-0.54c-1.12-1.24-3.06-1.86-5.46-1.73l-0.16-0.92  c-0.1-0.53-0.19-1.07-0.28-1.6c-0.03-0.16-0.1-0.28-0.22-0.37c-0.12-0.09-0.29-0.12-0.45-0.09c-0.28,0.05-0.54,0.3-0.48,0.66  c0.09,0.52,0.18,1.04,0.27,1.55l0.16,0.87c-0.14,0.02-0.27,0.04-0.41,0.07c-0.87,0.16-1.73,0.4-2.56,0.72l-0.45-2.52  c-0.03-0.16-0.11-0.28-0.22-0.37c-0.12-0.09-0.29-0.12-0.45-0.09c-0.29,0.05-0.54,0.29-0.48,0.66l0.5,2.8  c-2,1.01-3.35,2.38-3.8,3.87c-0.33,1.09-0.18,2.21,0.46,3.32c1.26,2.22,3.38,2.64,5.11,2.75l1.58,8.9  c-2.25-0.11-3.93-1.22-5.11-3.39c-0.13-0.23-0.36-0.34-0.62-0.3c-0.2,0.04-0.37,0.16-0.45,0.33c-0.07,0.15-0.06,0.32,0.03,0.48  c1.48,2.7,3.57,4.04,6.37,4.07l0.91,5.14c0.03,0.16,0.11,0.28,0.22,0.37c0.12,0.09,0.29,0.12,0.45,0.09  c0.29-0.05,0.54-0.3,0.48-0.66l-0.89-5c0.34-0.03,0.68-0.08,1.04-0.15c0.49-0.09,1-0.2,1.52-0.35c0.27-0.07,0.54-0.17,0.82-0.27  l0.07,0.33c0.34,1.54,0.68,3.09,1.03,4.63c0.08,0.36,0.41,0.5,0.7,0.45c0.16-0.03,0.3-0.12,0.38-0.24c0.08-0.12,0.1-0.26,0.06-0.42  c-0.4-1.73-0.78-3.46-1.16-5.2c1.18-0.57,3.18-1.78,3.85-3.69c0.35-1.01,0.27-2.06-0.25-3.12C135.76,33.97,133.44,33.51,131.31,33.4  z M133.12,42.14c-0.59-2.72-1.11-5.23-1.6-7.64c0.66,0.06,1.19,0.17,1.67,0.33c1.23,0.41,2.25,1.26,2.71,2.25  c0.35,0.75,0.37,1.57,0.06,2.37C135.52,40.59,134.59,41.47,133.12,42.14z M128.98,33.38c-0.7,0.01-1.4,0.01-2.06-0.02l-1.45-8.17  c0.92-0.44,1.93-0.76,2.94-0.94l0,0c0.58,3.26,1.14,6.24,1.7,9.12C129.74,33.37,129.36,33.37,128.98,33.38z M127.12,34.47  c0.47,0,0.95-0.01,1.43-0.02c0.6-0.01,1.19-0.03,1.77-0.02c0.52,2.62,1.08,5.28,1.7,8.13c-0.4,0.13-0.8,0.25-1.19,0.35  c-0.36,0.09-0.72,0.17-1.07,0.23c-0.37,0.07-0.73,0.11-1.08,0.15L127.12,34.47z M124.39,25.79l1.32,7.47  c-0.14-0.02-0.29-0.04-0.43-0.07c-1.16-0.23-2.76-0.94-3.48-2.21c-0.39-0.69-0.45-1.44-0.16-2.22  C122.13,27.42,123.38,26.41,124.39,25.79z"/>
    </svg>