<?xml version="1.0" encoding="utf-8"?>
<!-- Generator: Adobe Illustrator 25.0.0, SVG Export Plug-In . SVG Version: 6.00 Build 0)  -->
<svg version="1.1" id="Layer_1" xmlns="http://www.w3.org/2000/svg" xmlns:xlink="http://www.w3.org/1999/xlink" x="0px" y="0px"
	 viewBox="0 0 200 200" style="enable-background:new 0 0 200 200;" xml:space="preserve">
<style type="text/css">
	.st0{fill:#1A1A1A;}
	.st1{fill:#38B6FF;}
</style>
<g>
	<path class="st1" d="M52.98,63.58l8.42-4.58l8.33,1.55c0,0,1.73,17.02-16.75,14.59l-1.6-6.01L52.98,63.58z"/>
	<g>
		<path class="st0" d="M95.01,65.37c-1.04-0.6-2.06-1.19-3.11-1.79c0.17,1.27,0.37,2.49,0.57,3.68c1.07,0.62,2.11,1.24,3.13,1.87
			C95.41,67.86,95.21,66.61,95.01,65.37z"/>
		<path class="st0" d="M127.13,85.87c-0.12-0.45-0.37-0.9-0.7-1.29c-0.75-0.97-1.94-1.84-3.26-2.59c-1.04-0.6-2.14-1.14-3.13-1.64
			c-0.95-0.47-1.82-0.9-2.44-1.29c-5.08-3.13-10.15-6.24-15.25-9.33c-2.41-1.47-4.88-2.94-7.34-4.35c0.2,1.24,0.4,2.49,0.6,3.76
			c4.75,2.86,9.28,5.62,13.41,8.16c2.84,1.74,5.67,3.48,8.51,5.25c0.5,0.32,1.02,0.62,1.52,0.95l0.42,0.25
			c0.67,0.4,1.37,0.82,1.84,1.24c0.42,0.35,0.7,0.7,0.67,1.02c-0.02,0.45-0.7,0.95-1.92,1.44c-0.8,0.3-1.87,0.47-3.28,0.47
			c-1.19,0-2.44-0.1-3.61-0.2c-1.07-0.1-2.06-0.17-2.91-0.17c-3.78-0.02-7.59-0.07-11.39-0.15c-0.95-0.02-1.92-0.05-2.86-0.07
			c-1.02,0-2.06-0.02-3.08-0.05c-5.87-0.15-11.94-0.27-17.91-0.3h-1.94c-10.15,0-20.47,0.17-30.48,0.32l-33.98,0.5l-0.42-0.02
			c-1.37-0.07-2.94-0.15-3.26-0.92c-0.3-0.7,0.37-2.06,2.06-4.01c0.37-0.45,1.22-0.87,1.97-1.24c0.35-0.17,0.67-0.32,0.92-0.5
			l6.62-3.96c4.65-2.76,9.3-5.55,14.01-8.23c8.88-5.12,17.69-9.78,26.15-13.88c0.57-0.27,1.19-0.62,1.84-0.97
			c1.82-1.02,3.73-2.09,5.62-2.09c0.3,0,0.6,0.02,0.9,0.07c1.37,0.27,2.76,1.17,4.1,2.04c0.57,0.37,1.12,0.72,1.64,1.02
			c1.82,1.02,3.66,1.99,5.5,2.94c2.29,1.19,4.63,2.41,6.89,3.73c3.13,1.82,6.27,3.66,9.33,5.5c-0.2-1.19-0.4-2.41-0.57-3.68
			c-4.13-2.36-8.23-4.68-12.29-6.94c-2.71-1.49-5.42-3.01-8.14-4.55l-1.17-0.67C68.22,50.17,66.23,49,63.84,49
			c-0.55,0-1.09,0.07-1.64,0.2c-4.33,1.02-8.73,3.53-12.99,5.97c-1.57,0.9-3.08,1.77-4.55,2.54C33.32,63.63,21.12,70.62,7.39,79.1
			l-0.92,0.57c-2.49,1.47-5.9,3.46-5.6,6.64c0.37,4.03,5.5,4.33,7.71,4.45l2.14-0.02l-0.02,0.47c-0.12,2.44-0.25,5.2,2.39,6.32
			c0.02,5.37,0.12,10.75,0.22,16.12c0.1,6.44,0.22,13.09,0.2,19.45c-0.1,0.05-0.22,0.07-0.32,0.1c-2.11,0.8-2.36,2.34-2.49,4.23
			c-0.25,4.03-0.15,8.18-0.07,12.19c0.02,1.19,0.05,2.39,0.07,3.58c0,0-0.35,0.07-0.5,0.1c-4.23,1.14-4.1,4.53-3.96,8.11l0.02,0.62
			c-0.67,0.15-1.22,0.32-1.69,0.55c-1.07,0.45-1.89,1.47-2.39,2.94c-0.8,2.36-0.6,5.65,0.47,7.46c1.07,1.84,3.48,1.94,5.42,2.02
			l0.8,0.05c1.44,0.07,2.91,0.1,4.38,0.1c2.14,0,4.28-0.05,6.42-0.12c1.89-0.05,3.76-0.12,5.62-0.12c3.63-0.02,7.29-0.1,10.95-0.17
			c4.55-0.07,9.13-0.17,13.68-0.17c5.3,0,9.93,0.12,14.13,0.37c5.35,0,10.72,0.02,16.1,0.05c6.54,0.05,13.06,0.07,19.6,0.07
			c6.39,0,12.81-0.02,19.21-0.12c2.84-0.02,5.08-1,6.32-2.74c1.22-1.72,1.37-4.06,0.47-6.74c-0.57-1.72-1.87-2.81-3.93-3.36
			c-0.02-0.45,0-0.92,0-1.37c0.05-2.71,0.07-5.5-2.41-6.89c-0.52-0.3-1.14-0.52-1.99-0.72c0-1.42,0.02-2.86,0.05-4.3
			c0.02-1.44,0.05-2.89,0.05-4.35c0-0.92,0-1.84-0.02-2.79c0-1.44-0.05-2.89-0.12-4.33c-0.12-2.29-0.9-3.73-2.36-4.43
			c-0.1-3.78-0.2-7.56-0.27-11.34c-0.02-0.92-0.05-1.84-0.05-2.79c-0.1-3.68-0.15-7.36-0.22-11.07l-0.07-3.48l-0.05-2.79l-0.07-4.23
			c0.82-0.27,1.44-0.62,1.87-1.07c1.12-1.17,1.07-3.08,1.02-4.75c0-0.27-0.02-0.55-0.02-0.8c0.92,0.02,1.84,0.07,2.76,0.07
			c1.79,0,3.13-0.15,4.2-0.45c0.97-0.27,2.24-0.82,2.84-1.92C127.33,87.61,127.4,86.79,127.13,85.87z M94.91,90.35l1.64,0.02h1.32
			c0.5,0,1.02,0.02,1.52,0.02c1.14,0,2.29,0,3.46,0.02c2.91,0.05,5.85,0.1,8.78,0.1h2.51v0.32c0,1.37,0.02,2.76-1.09,3.43
			c-0.97,0.6-2.81,0.67-4.1,0.67c-0.65,0-1.29-0.02-1.87-0.05c-0.5,0-0.97-0.02-1.37-0.02l-1.84,0.02c-1.12,0-2.21,0.02-3.33,0.02
			h-0.4c-0.47,0-0.92,0-1.37-0.02c-0.57,0-1.07-0.05-1.49-0.1c-1-0.15-1.57-0.42-1.89-0.92C94.91,93.18,94.89,92.01,94.91,90.35z
			 M112,132.37c-0.82,0-1.69,0.07-2.61,0.15c-0.85,0.05-1.72,0.12-2.59,0.12h-0.37c-0.87,0-1.84-0.02-2.89-0.07
			c-1.12-0.05-2.31-0.1-3.48-0.1c-0.8,0-1.59,0.02-2.39,0.1c0.02-3.63-0.02-7.31-0.07-10.95c0-0.82-0.02-1.67-0.02-2.49
			c-0.02-1.87-0.07-3.71-0.1-5.55c-0.1-5.12-0.2-10.27-0.22-15.4c0.2,0.02,0.37,0.02,0.57,0.02c0.5,0.02,1.02,0.05,1.57,0.05
			c0.42,0,0.82,0,1.24-0.02c1.24-0.02,2.51-0.12,3.63-0.2c1.02-0.07,1.99-0.15,2.84-0.17l1.09-0.02c0.92,0,2.02-0.02,3.09-0.1
			l0.07,4.03l0.07,2.79l0.05,3.01c0.07,3.76,0.12,7.51,0.2,11.27c0.02,0.95,0.05,1.87,0.07,2.81
			C111.83,125.23,111.91,128.78,112,132.37z M75.56,96.14c1.09-1.17,1.04-3.08,1.02-4.75c-0.02-0.42-0.02-0.82-0.02-1.19
			c4.95,0,9.9,0.05,14.85,0.1l0.52,0.02c-0.02,0.27-0.02,0.57-0.05,0.9c-0.12,2.44-0.25,5.2,2.39,6.32
			c0.02,5.37,0.12,10.75,0.22,16.12c0.02,1.84,0.05,3.68,0.07,5.52c0.02,0.82,0.05,1.64,0.05,2.46c0.05,3.86,0.1,7.71,0.07,11.47
			c-0.1,0.02-0.22,0.07-0.32,0.1c-2.11,0.8-2.39,2.34-2.49,4.23c-0.07,1.24-0.12,2.49-0.12,3.76c-0.02,0.95-0.02,1.87-0.02,2.81
			c0,1.89,0.02,3.76,0.07,5.62c0.02,1.22,0.05,2.41,0.1,3.68l-2.04,0.05c-3.93,0.1-7.86,0.17-11.79,0.17h-1.24
			c0-1.59,0.02-3.18,0.05-4.78c0.05-3.76,0.12-7.64-0.07-11.42c-0.12-2.29-0.9-3.73-2.36-4.43c-0.25-8.36-0.4-16.72-0.55-25.08
			l-0.22-10.62C74.51,96.94,75.14,96.59,75.56,96.14z M69.59,90.2h3.98v0.65c0,1.37,0,2.76-1.09,3.43c-1,0.6-2.81,0.67-4.1,0.67
			c-0.65,0-1.29-0.02-1.89-0.05c-0.5,0-0.95-0.02-1.34-0.02l-1.87,0.02c-1.09,0-2.21,0.02-3.31,0.02c-0.6,0-1.19,0-1.79-0.02
			c-1.72-0.02-2.66-0.27-3.18-0.8c-0.65-0.67-0.7-1.89-0.67-3.88C59.41,90.2,64.51,90.2,69.59,90.2z M71.43,132.37
			c-0.82,0-1.72,0.07-2.61,0.15c-0.85,0.05-1.72,0.12-2.59,0.12h-0.37c-0.9,0-1.87-0.02-2.89-0.07c-1.12-0.05-2.31-0.1-3.48-0.1
			c-0.82,0-1.62,0.02-2.39,0.1c0-6.32-0.1-12.74-0.22-18.93c-0.1-5.15-0.17-10.3-0.2-15.45c0.67,0.05,1.39,0.07,2.11,0.07
			c1.64,0,3.36-0.12,4.88-0.22c1.04-0.07,1.99-0.15,2.84-0.17l1.12-0.02c0.92,0,1.99-0.02,3.08-0.1l0.17,9.78
			C71.06,115.8,71.2,124.08,71.43,132.37z M55.46,135.97c0.3-0.15,0.82-0.22,1.62-0.22c0.45,0,0.92,0.02,1.34,0.05
			c0.35,0,0.67,0.02,1.07,0.02h0.15c1.72-0.07,3.46-0.15,5.17-0.17c0.57,0,1.39-0.12,2.31-0.22c1.19-0.15,2.54-0.32,3.68-0.32
			c0.8,0,1.42,0.07,1.82,0.25c1.54,0.67,1.39,2.96,1.29,4.8c-0.05,0.45-0.07,0.87-0.07,1.22c0.02,2.96,0.02,5.92,0,8.88v3.26
			c-6.52-0.07-13.04-0.2-19.55-0.32c-0.05-3.48-0.05-6.97-0.05-10.45l0.02-1.44c0-0.37-0.02-0.77-0.05-1.19
			C54.09,138.46,53.99,136.75,55.46,135.97z M34.96,96.14c1.12-1.17,1.07-3.08,1.02-4.75c0-0.35-0.02-0.67-0.02-0.97
			c5.12-0.07,10.25-0.12,15.37-0.15c0,0.3-0.02,0.62-0.02,0.95c-0.12,2.46-0.27,5.27,2.36,6.34c0.02,5.37,0.12,10.72,0.22,16.1
			c0.12,6.44,0.25,13.11,0.2,19.45c-0.1,0.05-0.2,0.07-0.3,0.1c-2.14,0.8-2.39,2.34-2.51,4.23c-0.22,4.06-0.15,8.18-0.05,12.22
			c0.02,1.17,0.05,2.31,0.05,3.48c-5-0.1-10-0.2-15.03-0.25c0-1.37,0.02-2.74,0.05-4.08c0.05-3.78,0.1-7.66-0.1-11.47
			c-0.12-2.29-0.9-3.73-2.36-4.43c-0.22-8.41-0.4-16.84-0.55-25.25l-0.2-10.45C33.91,96.94,34.53,96.59,34.96,96.14z M32.97,90.45
			v0.4c0.02,1.37,0.02,2.76-1.09,3.43c-0.97,0.6-2.81,0.67-4.1,0.67c-0.65,0-1.29-0.02-1.87-0.05c-0.5,0-0.97-0.02-1.37-0.02
			l-1.84,0.02c-1.12,0-2.21,0.02-3.33,0.02c-0.6,0-1.17,0-1.77-0.02c-3.66-0.05-3.91-1.07-3.86-4.2
			C20.15,90.62,26.57,90.52,32.97,90.45z M30.85,132.37h-0.02c-0.82,0-1.69,0.07-2.61,0.15c-0.85,0.05-1.72,0.12-2.56,0.12h-0.4
			c-0.87,0-1.84-0.02-2.89-0.07c-1.12-0.05-2.31-0.1-3.46-0.1c-0.82,0-1.62,0.02-2.39,0.1c0-6.34-0.12-12.76-0.22-18.98
			c-0.1-5.12-0.2-10.27-0.22-15.4c0.7,0.05,1.39,0.07,2.14,0.07c1.62,0,3.36-0.12,4.88-0.22c1.02-0.07,1.99-0.15,2.84-0.17
			l1.09-0.02c0.92,0,2.02-0.02,3.09-0.1l0.2,9.83C30.45,115.85,30.6,124.11,30.85,132.37z M14.86,135.97
			c0.32-0.15,0.85-0.22,1.62-0.22c0.45,0,0.92,0.02,1.37,0.05c0.32,0,0.65,0.02,1.07,0.02h0.12c1.74-0.07,3.46-0.15,5.2-0.17
			c0.57,0,1.39-0.12,2.29-0.22c1.19-0.15,2.56-0.32,3.71-0.32c0.8,0,1.39,0.07,1.79,0.25c1.54,0.67,1.42,2.96,1.29,4.8
			c-0.02,0.45-0.05,0.87-0.05,1.22c0.02,2.84,0,5.67,0,8.51v2.96l-3.11-0.02c-1.54-0.02-3.26-0.1-5.03-0.17
			c-2.06-0.07-4.23-0.17-6.34-0.17c-1.94,0-3.61,0.07-5.1,0.25c-0.05-3.66-0.02-7.29-0.02-10.95v-0.47c0-0.37-0.02-0.77-0.05-1.19
			C13.51,138.46,13.39,136.75,14.86,135.97z M122.53,165.98c0.52,0.57,0.72,1.42,0.6,2.64c-0.27,2.89-2.02,3.16-4.88,3.26
			c-5.92,0.25-12.19,0.35-19.73,0.35c-5.95,0-11.89-0.07-17.84-0.12c-5.55-0.07-11.1-0.12-16.62-0.15
			c-2.96-0.17-6.17-0.25-9.85-0.25c-3.38,0-6.74,0.05-10.1,0.12c-3.38,0.07-6.74,0.15-10.13,0.15c-1.27,0-2.51-0.02-3.78-0.02
			c-2.24-0.05-4.48-0.07-6.69-0.07c-3.31,0-6.59,0.05-9.9,0.15c-0.57,0.02-1.12,0.05-1.69,0.1c-0.75,0.02-1.47,0.07-2.16,0.07
			c-2.49,0-4.23-0.6-4.63-3.66c-0.32-2.41-0.37-2.71,2.24-3.28c2.02-0.45,4.28-0.5,6.44-0.52l1.59-0.02
			c1.04-0.02,2.09-0.05,3.13-0.05c2.04,0,4.1,0.05,6.14,0.1c2.06,0.05,4.1,0.07,6.17,0.07h1.79c1.27-0.02,2.51-0.02,3.78-0.02
			c4.63,0,9.23,0.1,13.83,0.2c4.63,0.12,9.25,0.22,13.88,0.22c1.22,0,2.44,0,3.66-0.02c10.72-0.15,22.14-0.22,35.92-0.25
			c0,0,10.62,0.05,12.61,0.05h2.46C120.29,165.01,121.76,165.11,122.53,165.98z M116.51,156.13c2.31,0.7,2.31,3.04,2.31,5.27v0.3
			c-0.27-0.02-0.55-0.02-0.82-0.02c-1.44,0-2.91,0.12-4.33,0.22c-1.19,0.1-2.29,0.2-3.23,0.2l-0.45-0.02
			c-3.48-0.12-7.24-0.17-11.49-0.17c-4.58,0-9.16,0.07-13.71,0.12c-3.81,0.07-7.61,0.12-11.39,0.15h-1.84
			c-5.35,0-10.7-0.1-16.02-0.2c-5.35-0.1-10.7-0.22-16.05-0.22l-2.59,0.02c-2.59,0-5.15,0.02-7.74,0.02c-3.01,0-6.02-0.02-9.06-0.07
			c-0.8-0.02-1.69-0.07-2.64-0.1c-1.52-0.07-3.18-0.15-4.85-0.15c-1.27,0-2.36,0.05-3.36,0.12c-0.02-3.28,0.57-4.8,4.01-5.5
			c1-0.2,2.14-0.3,3.71-0.3c0.7,0,1.37,0.02,2.06,0.02c0.65,0.02,1.29,0.05,1.94,0.05c0.27,0,0.57,0,0.85-0.02
			c2.11-0.05,4.25-0.07,6.37-0.07c3.68,0,7.36,0.07,11.02,0.15l5.97,0.1c10.25,0.22,20.87,0.42,31.32,0.5H78
			c3.96,0,7.89-0.1,11.82-0.17c3.36-0.1,6.74-0.17,10.1-0.2h0.65c1.39,0,2.79,0.02,4.18,0.05s2.79,0.05,4.18,0.05h0.3
			c0.67,0,1.52-0.07,2.39-0.15c0.97-0.1,1.99-0.2,2.94-0.2C115.36,155.9,116.01,155.98,116.51,156.13z M114.49,140.15
			c-0.02,0.45-0.05,0.87-0.05,1.22v11.42c-0.2-0.02-0.4-0.02-0.6-0.02c-1.54,0-3.13,0.12-4.68,0.25c-1.37,0.12-2.66,0.22-3.78,0.22
			h-0.3c-1.24-0.02-2.49-0.02-3.73-0.02c-2.16,0-4.33,0.02-6.49,0.05c-0.05-2.91-0.02-5.82-0.02-8.73v-3.23
			c0-0.37-0.02-0.77-0.05-1.19c-0.1-1.64-0.22-3.36,1.24-4.13c0.3-0.15,0.85-0.22,1.62-0.22c0.45,0,0.92,0.02,1.37,0.05
			c0.32,0,0.65,0.02,1.07,0.02h0.12c1.74-0.07,3.46-0.15,5.2-0.17c0.57,0,1.39-0.12,2.29-0.22c1.19-0.15,2.56-0.32,3.71-0.32
			c0.8,0,1.39,0.07,1.79,0.25C114.74,136.02,114.62,138.31,114.49,140.15z"/>
		<path class="st0" d="M69.44,58.63c-1.77-0.72-3.76-1.09-5.8-1.09c-5.25,0-11.37,2.69-13.16,8.71c-2.24,7.49,1.72,14.65,9.43,17.07
			c1.49,0.32,2.99,0.47,4.48,0.47c6.49,0,11.34-3.13,13.01-8.41C79.54,68.6,76.11,61.41,69.44,58.63z M74.54,74.55
			c-1.37,4.01-5.03,6.27-10.08,6.27c-1.24,0-2.51-0.12-3.76-0.4c-5.35-1.67-8.21-6.1-7.66-11.84c0.55-5.52,5.85-8.04,10.57-8.04
			c2.16,0,4.3,0.52,6,1.47C74.07,64.52,76.16,69.8,74.54,74.55z"/>
		<path class="st0" d="M26.65,73.49c-0.26,0-0.52,0.08-0.76,0.23C21.7,76.3,17.53,79,13.49,81.74c-0.57,0.39-0.8,1.05-0.6,1.72
			c0.2,0.65,0.75,1.1,1.34,1.1c0.27,0,0.53-0.09,0.79-0.26c4.06-2.76,8.22-5.45,12.37-8.01c0.58-0.36,0.83-0.99,0.64-1.65
			C27.85,73.96,27.28,73.49,26.65,73.49z"/>
		<path class="st0" d="M31.24,70.46c-0.45,0-0.82,0.17-1.09,0.48c-0.23,0.27-0.36,0.63-0.36,1.02c0,0.74,0.5,1.49,1.45,1.49
			c0.45,0,0.82-0.17,1.09-0.48c0.23-0.27,0.36-0.63,0.36-1.02C32.69,71.21,32.2,70.46,31.24,70.46z"/>
	</g>
	<g>
		<path class="st0" d="M199.3,47.23c-0.15-5.7-0.32-12.17-4.18-16.72c-2.81-3.28-6.94-5.32-10.82-5.32c-0.6,0-1.19,0.05-1.87,0.1
			c-7.19-0.3-14.48-0.45-21.62-0.45c-10.03,0-20.15,0.3-30.08,0.87c-7.66,0.45-16.74,1.04-25.85,2.04l-0.55,0.07
			c-4.18,0.45-8.93,0.95-11.67,4.38c-3.26,4.08-2.89,10.1-2.59,15.15c0.35,5.65,1.04,11.2,1.82,16.22c0.17,1.27,0.37,2.49,0.57,3.68
			c1.07,0.62,2.11,1.24,3.13,1.87c-0.2-1.27-0.4-2.51-0.6-3.76c-0.37-2.39-0.72-4.78-1.04-7.14c-0.15-1.07-0.32-2.26-0.52-3.53
			c-0.95-6.05-2.14-13.56,0.12-18.29c2.79-5.87,10.62-6.19,16.94-6.49c1.27-0.05,2.46-0.1,3.58-0.2c7.84-0.65,15.08-1.14,22.14-1.49
			c7.76-0.37,15.8-0.57,23.86-0.57c5.52,0,11.22,0.1,16.92,0.27c-4.45,3.78-6,10.4-6.99,16.99c-1.24,8.18-1.17,17.27,0.2,28.59
			c0.85,6.97,2.02,14.03,3.11,20.85c0.4,2.34,0.77,4.68,1.14,7.02c0.32,1.99,0.67,3.98,1.04,6c1.07,5.82,2.16,11.84,2.06,17.79
			c-0.1,7.16-2.34,11.22-7.29,13.14c-1.67,0.65-4.95,1.72-8.26,1.72c-1.49,0-2.81-0.22-3.93-0.67c-5.72-2.26-9.5-13.78-8.86-19.8
			c0.07-0.62-0.22-1.09-0.75-1.29c-0.2-0.1-0.4-0.15-0.62-0.15l-33.19,0.7c0,0.95,0.02,1.87,0.05,2.79l31.67-0.65
			c-0.1,4.85,1.92,10.9,5.4,16.25c0.95,1.42,1.99,2.54,3.21,3.41c-8.93,0.67-18.56,1-31.07,1.07c-2.16,0-4.3,0-6.44,0.02
			c0.02,0.95,0.02,1.87,0.02,2.79c14.33-0.05,29.13-0.15,43.64-1.57c0.3-0.02,0.57-0.15,0.65-0.3h0.4c0.97,0,1.89-0.05,2.81-0.17
			c7.34-0.9,12.07-3.81,14.01-8.66c2.64-6.57,1.29-14.4,0.12-21.32l-0.35-2.09c-0.67-4.1-1.44-8.28-2.21-12.49
			c-2.74-14.88-5.55-30.28-4.6-45.23c1.49,0.02,2.99,0.05,4.48,0.07c2.31,0.02,4.6,0.07,6.92,0.07c4.08,0,9.48-0.1,14.98-0.87
			c0.62-0.1,1.09-0.82,1.07-1.37C199.35,49.47,199.33,48.35,199.3,47.23z M193.85,49.67c-1.47,0.35-3.11,0.4-4.68,0.4h-4.58
			c-2.44,0-4.88-0.05-7.31-0.12c-1.69-0.02-3.38-0.07-5.05-0.1c0.22-2.36,0.5-4.45,0.85-6.37c1.89-10.32,5.62-15.57,11.1-15.57
			c0.72,0,1.47,0.1,2.26,0.27c6,1.39,9.23,6.44,9.88,15.4c0.02,0.6,0.1,1.14,0.17,1.64C196.79,47.63,196.94,48.95,193.85,49.67z"/>
		<path class="st1" d="M154.36,46.23c-0.03-0.6-0.41-1.21-1.35-1.21c-0.01,0-0.01,0-0.02,0c-15.52,1.52-31.29,2.29-46.87,2.3
			c-0.89,0-1.36,0.71-1.36,1.4c0,0.7,0.47,1.4,1.36,1.4h0c15.6-0.01,31.38-0.78,46.92-2.3C153.94,47.74,154.39,46.94,154.36,46.23z"
			/>
		<path class="st1" d="M153.53,64.24c0-0.7-0.47-1.4-1.36-1.4c-16.25,0.02-30.55,1.08-43.7,3.26c-0.68,0.11-1.09,0.63-1.03,1.31
			c0.06,0.7,0.62,1.42,1.47,1.42l0.26-0.02c12.79-2.12,26.85-3.15,43-3.17C153.06,65.64,153.53,64.94,153.53,64.24z"/>
		<path class="st1" d="M154.92,84.3c-2.21,0.7-4.55,1.02-7.36,1.02c-2.31,0-4.68-0.22-6.97-0.45c-1.89-0.17-3.83-0.37-5.75-0.45
			c-0.9-0.02-1.79-0.02-2.69-0.02c-1.92,0-3.81,0.07-5.72,0.17c-0.75-0.97-1.94-1.84-3.26-2.59c2.96-0.25,5.95-0.4,8.91-0.4h0.6
			c2.34,0.02,4.73,0.27,7.04,0.5c2.41,0.25,4.9,0.5,7.31,0.5c2.71,0,5.03-0.32,7.12-1c0.15-0.05,0.3-0.05,0.45-0.05
			c0.65,0,1.17,0.47,1.27,1.17C155.96,83.33,155.72,84.05,154.92,84.3z"/>
		<path class="st1" d="M156.71,101.17c0.02,0.7-0.42,1.44-1.34,1.47c-4.85,0.22-9.8,0.3-14.58,0.4c-8.68,0.15-17.61,0.32-26.4,1.19
			l-0.05-2.79c8.81-0.9,17.74-1.07,26.42-1.22c4.78-0.07,9.73-0.17,14.58-0.37c0,0,0,0,0.02,0
			C156.29,99.85,156.71,100.52,156.71,101.17z"/>
	</g>
</g>
</svg>
