<svg xmlns="http://www.w3.org/2000/svg" xmlns:xlink="http://www.w3.org/1999/xlink" version="1.1" id="Layer_1" x="0px" y="0px" viewBox="0 0 200 200" style="enable-background:new 0 0 200 200;" xml:space="preserve">
	<style type="text/css">
		.st0{fill:#BEE8FF;}
		.st1{fill:#1A1A1A;}
		.st2{fill:none;stroke:#1A1A1A;strokeWidth:13;stroke-miterlimit:2;}
		.st3{fill:none;stroke:#1A1A1A;strokeWidth:13;stroke-miterlimit:2;}
		.st4{fill:#FFFFFF;}
		.st5{fill:#1C1C1B;}
		.st6{fill:#2B2A2A;}
	</style>
	<g>
		<path class="st3" d="M162.41,85.85c0,0-7.89,23.58-26,21.48c0,0-68.92,3.92-74.94,2.58s-10.67-1.4-24.38-15.41" />
		<path class="st0" d="M96.03,87.82c2.62,0.14,5.22,0.05,7.82-0.28c1.55-0.19,2.9-1.19,2.9-2.9c0-1.42-1.33-3.09-2.9-2.9   c-2.6,0.32-5.2,0.42-7.82,0.28C92.31,81.83,92.32,87.62,96.03,87.82z" />
		<path class="st0" d="M81.97,117.49h-3.63c-0.82,0-1.48-0.67-1.48-1.48V99.28c0-0.82,0.67-1.48,1.48-1.48h3.63   c0.82,0,1.48,0.67,1.48,1.48v16.73C83.45,116.83,82.79,117.49,81.97,117.49z" />
		<path class="st0" d="M121.94,116.62l-3.62,0.24c-0.81,0.05-1.52-0.57-1.58-1.38l-1.16-17.56c-0.05-0.81,0.57-1.52,1.38-1.58   l3.62-0.24c0.81-0.05,1.52,0.57,1.58,1.38l1.16,17.56C123.38,115.85,122.75,116.56,121.94,116.62z" />
		<path class="st3" d="M37.88,150.34c0,0,122.38,3.67,125.46-6.35c0,0,1.51-75.34-3.05-77.11c-4.56-1.76-122.28,2.32-122.41,4.12   S34.67,146.32,37.88,150.34z" />
		<path class="st3" d="M61.47,68.47V51.42c0,0,69.64-4.25,73.58-3.27c3.94,0.98,2.61,18.47,2.61,18.47L61.47,68.47z" />
	</g>
</svg>