<svg xmlns="http://www.w3.org/2000/svg" xmlns:xlink="http://www.w3.org/1999/xlink" version="1.1" id="Layer_1" x="0px" y="0px" viewBox="0 0 200 200" style="enable-background:new 0 0 200 200;" xml:space="preserve">
	<style type="text/css">
		.st0{fill:#BEE8FF;}
		.st1{fill:#1A1A1A;}
		.st2{fill:none;stroke:#1A1A1A;strokeWidth:2;stroke-miterlimit:10;}
		.st3{fill:none;stroke:#1A1A1A;strokeWidth:4;stroke-miterlimit:10;}
		.st4{fill:#FFFFFF;}
		.st5{fill:#1C1C1B;}
		.st6{fill:#2B2A2A;}
	</style>
	<g>
		<path class="st0" d="M67.37,74.8l5.82-3.17l5.77,1.07c0,0,1.2,11.77-11.59,10.09l-1.11-4.16L67.37,74.8z"/>
		<g>
			<path class="st1" d="M96.45,76.04c-0.72-0.41-1.43-0.83-2.15-1.24c0.12,0.88,0.26,1.72,0.4,2.55c0.74,0.43,1.46,0.86,2.17,1.29    C96.73,77.76,96.59,76.9,96.45,76.04z"/>
			<path class="st1" d="M118.67,90.22c-0.09-0.31-0.26-0.62-0.48-0.89c-0.52-0.67-1.34-1.27-2.25-1.79    c-0.72-0.41-1.48-0.79-2.17-1.14c-0.65-0.33-1.26-0.62-1.69-0.9c-3.51-2.17-7.02-4.32-10.55-6.45c-1.67-1.02-3.37-2.03-5.08-3.01    c0.14,0.86,0.28,1.72,0.41,2.6c3.29,1.98,6.42,3.89,9.28,5.65c1.96,1.2,3.92,2.41,5.89,3.63c0.34,0.22,0.71,0.43,1.05,0.65    l0.29,0.17c0.46,0.28,0.95,0.57,1.27,0.86c0.29,0.24,0.48,0.48,0.46,0.71c-0.02,0.31-0.48,0.65-1.33,1    c-0.55,0.21-1.29,0.33-2.27,0.33c-0.83,0-1.69-0.07-2.5-0.14c-0.74-0.07-1.43-0.12-2.01-0.12c-2.62-0.02-5.25-0.05-7.88-0.1    c-0.65-0.02-1.33-0.03-1.98-0.05c-0.71,0-1.43-0.02-2.13-0.03c-4.06-0.1-8.26-0.19-12.39-0.21h-1.34    c-7.02,0-14.17,0.12-21.09,0.22l-23.51,0.34l-0.29-0.02c-0.95-0.05-2.03-0.1-2.25-0.64c-0.21-0.48,0.26-1.43,1.43-2.77    c0.26-0.31,0.84-0.6,1.36-0.86c0.24-0.12,0.46-0.22,0.64-0.34l4.58-2.74c3.22-1.91,6.44-3.84,9.69-5.7    c6.15-3.55,12.24-6.76,18.09-9.6c0.4-0.19,0.83-0.43,1.27-0.67c1.26-0.71,2.58-1.45,3.89-1.45c0.21,0,0.41,0.02,0.62,0.05    c0.95,0.19,1.91,0.81,2.84,1.41c0.4,0.26,0.77,0.5,1.14,0.71c1.26,0.71,2.53,1.38,3.8,2.03c1.58,0.83,3.2,1.67,4.77,2.58    c2.17,1.26,4.34,2.53,6.45,3.8c-0.14-0.83-0.28-1.67-0.4-2.55c-2.86-1.64-5.7-3.24-8.5-4.8c-1.88-1.03-3.75-2.08-5.63-3.15    l-0.81-0.46c-1.45-0.86-2.82-1.67-4.48-1.67c-0.38,0-0.76,0.05-1.14,0.14c-3,0.71-6.04,2.44-8.99,4.13    c-1.08,0.62-2.13,1.22-3.15,1.76c-7.85,4.1-16.28,8.93-25.78,14.8l-0.64,0.4c-1.72,1.02-4.08,2.39-3.87,4.6    c0.26,2.79,3.8,3,5.34,3.08l1.48-0.02l-0.02,0.33c-0.09,1.69-0.17,3.6,1.65,4.37c0.02,3.72,0.09,7.44,0.15,11.15    c0.07,4.46,0.15,9.05,0.14,13.46c-0.07,0.03-0.15,0.05-0.22,0.07c-1.46,0.55-1.64,1.62-1.72,2.93c-0.17,2.79-0.1,5.66-0.05,8.43    c0.02,0.83,0.03,1.65,0.05,2.48c0,0-0.24,0.05-0.34,0.07c-2.93,0.79-2.84,3.13-2.74,5.61l0.02,0.43c-0.46,0.1-0.84,0.22-1.17,0.38    c-0.74,0.31-1.31,1.02-1.65,2.03c-0.55,1.64-0.41,3.91,0.33,5.16c0.74,1.27,2.41,1.34,3.75,1.39l0.55,0.03    c1,0.05,2.01,0.07,3.03,0.07c1.48,0,2.96-0.03,4.44-0.09c1.31-0.03,2.6-0.09,3.89-0.09c2.51-0.02,5.04-0.07,7.57-0.12    c3.15-0.05,6.32-0.12,9.47-0.12c3.67,0,6.87,0.09,9.78,0.26c3.7,0,7.42,0.02,11.14,0.03c4.53,0.03,9.04,0.05,13.56,0.05    c4.42,0,8.86-0.02,13.29-0.09c1.96-0.02,3.51-0.69,4.37-1.89c0.84-1.19,0.95-2.81,0.33-4.66c-0.4-1.19-1.29-1.95-2.72-2.32    c-0.02-0.31,0-0.64,0-0.95c0.03-1.88,0.05-3.8-1.67-4.77c-0.36-0.21-0.79-0.36-1.38-0.5c0-0.98,0.02-1.98,0.03-2.98    c0.02-1,0.03-2,0.03-3.01c0-0.64,0-1.27-0.02-1.93c0-1-0.03-2-0.09-3c-0.09-1.58-0.62-2.58-1.64-3.06    c-0.07-2.62-0.14-5.23-0.19-7.85c-0.02-0.64-0.03-1.27-0.03-1.93c-0.07-2.55-0.1-5.1-0.15-7.66l-0.05-2.41l-0.03-1.93l-0.05-2.93    c0.57-0.19,1-0.43,1.29-0.74c0.77-0.81,0.74-2.13,0.71-3.29c0-0.19-0.02-0.38-0.02-0.55c0.64,0.02,1.27,0.05,1.91,0.05    c1.24,0,2.17-0.1,2.91-0.31c0.67-0.19,1.55-0.57,1.96-1.33C118.81,91.43,118.86,90.86,118.67,90.22z M96.38,93.32l1.14,0.02h0.91    c0.34,0,0.71,0.02,1.05,0.02c0.79,0,1.58,0,2.39,0.02c2.01,0.03,4.04,0.07,6.08,0.07h1.74v0.22c0,0.95,0.02,1.91-0.76,2.38    c-0.67,0.41-1.95,0.46-2.84,0.46c-0.45,0-0.9-0.02-1.29-0.03c-0.34,0-0.67-0.02-0.95-0.02l-1.27,0.02c-0.77,0-1.53,0.02-2.31,0.02    H100c-0.33,0-0.64,0-0.95-0.02c-0.4,0-0.74-0.03-1.03-0.07c-0.69-0.1-1.08-0.29-1.31-0.64C96.38,95.28,96.37,94.47,96.38,93.32z     M108.21,122.39c-0.57,0-1.17,0.05-1.81,0.1c-0.59,0.03-1.19,0.09-1.79,0.09h-0.26c-0.6,0-1.27-0.02-2-0.05    c-0.77-0.03-1.6-0.07-2.41-0.07c-0.55,0-1.1,0.02-1.65,0.07c0.02-2.51-0.02-5.06-0.05-7.57c0-0.57-0.02-1.15-0.02-1.72    c-0.02-1.29-0.05-2.56-0.07-3.84c-0.07-3.55-0.14-7.11-0.15-10.65c0.14,0.02,0.26,0.02,0.4,0.02c0.34,0.02,0.71,0.03,1.08,0.03    c0.29,0,0.57,0,0.86-0.02c0.86-0.02,1.74-0.09,2.51-0.14c0.71-0.05,1.38-0.1,1.96-0.12l0.76-0.02c0.64,0,1.39-0.02,2.13-0.07    l0.05,2.79l0.05,1.93l0.03,2.08c0.05,2.6,0.09,5.2,0.14,7.8c0.02,0.65,0.03,1.29,0.05,1.95    C108.09,117.45,108.14,119.92,108.21,122.39z M82.99,97.33c0.76-0.81,0.72-2.13,0.71-3.29c-0.02-0.29-0.02-0.57-0.02-0.83    c3.43,0,6.85,0.03,10.28,0.07l0.36,0.02c-0.02,0.19-0.02,0.4-0.03,0.62c-0.09,1.69-0.17,3.6,1.65,4.37    c0.02,3.72,0.09,7.44,0.15,11.15c0.02,1.27,0.03,2.55,0.05,3.82c0.02,0.57,0.03,1.14,0.03,1.7c0.03,2.67,0.07,5.34,0.05,7.94    c-0.07,0.02-0.15,0.05-0.22,0.07c-1.46,0.55-1.65,1.62-1.72,2.93c-0.05,0.86-0.09,1.72-0.09,2.6c-0.02,0.65-0.02,1.29-0.02,1.95    c0,1.31,0.02,2.6,0.05,3.89c0.02,0.84,0.03,1.67,0.07,2.55l-1.41,0.03c-2.72,0.07-5.44,0.12-8.16,0.12h-0.86    c0-1.1,0.02-2.2,0.03-3.3c0.03-2.6,0.09-5.28-0.05-7.9c-0.09-1.58-0.62-2.58-1.64-3.06c-0.17-5.78-0.28-11.57-0.38-17.35    l-0.15-7.35C82.27,97.88,82.7,97.64,82.99,97.33z M78.86,93.22h2.75v0.45c0,0.95,0,1.91-0.76,2.38c-0.69,0.41-1.95,0.46-2.84,0.46    c-0.45,0-0.9-0.02-1.31-0.03c-0.34,0-0.65-0.02-0.93-0.02l-1.29,0.02c-0.76,0-1.53,0.02-2.29,0.02c-0.41,0-0.83,0-1.24-0.02    c-1.19-0.02-1.84-0.19-2.2-0.55c-0.45-0.46-0.48-1.31-0.46-2.69C71.82,93.22,75.35,93.22,78.86,93.22z M80.13,122.39    c-0.57,0-1.19,0.05-1.81,0.1c-0.59,0.03-1.19,0.09-1.79,0.09h-0.26c-0.62,0-1.29-0.02-2-0.05c-0.77-0.03-1.6-0.07-2.41-0.07    c-0.57,0-1.12,0.02-1.65,0.07c0-4.37-0.07-8.81-0.15-13.1c-0.07-3.56-0.12-7.13-0.14-10.69c0.46,0.03,0.96,0.05,1.46,0.05    c1.14,0,2.32-0.09,3.37-0.15c0.72-0.05,1.38-0.1,1.96-0.12l0.77-0.02c0.64,0,1.38-0.02,2.13-0.07l0.12,6.76    C79.88,110.93,79.98,116.66,80.13,122.39z M69.08,124.89c0.21-0.1,0.57-0.15,1.12-0.15c0.31,0,0.64,0.02,0.93,0.03    c0.24,0,0.46,0.02,0.74,0.02h0.1c1.19-0.05,2.39-0.1,3.58-0.12c0.4,0,0.96-0.09,1.6-0.15c0.83-0.1,1.76-0.22,2.55-0.22    c0.55,0,0.98,0.05,1.26,0.17c1.07,0.46,0.96,2.05,0.9,3.32c-0.03,0.31-0.05,0.6-0.05,0.84c0.02,2.05,0.02,4.1,0,6.15v2.25    c-4.51-0.05-9.02-0.14-13.53-0.22c-0.03-2.41-0.03-4.82-0.03-7.23l0.02-1c0-0.26-0.02-0.53-0.03-0.83    C68.14,126.61,68.07,125.42,69.08,124.89z M54.9,97.33c0.77-0.81,0.74-2.13,0.71-3.29c0-0.24-0.02-0.46-0.02-0.67    c3.55-0.05,7.09-0.09,10.64-0.1c0,0.21-0.02,0.43-0.02,0.65c-0.09,1.7-0.19,3.65,1.64,4.39c0.02,3.72,0.09,7.42,0.15,11.14    c0.09,4.46,0.17,9.07,0.14,13.46c-0.07,0.03-0.14,0.05-0.21,0.07c-1.48,0.55-1.65,1.62-1.74,2.93c-0.15,2.81-0.1,5.66-0.03,8.45    c0.02,0.81,0.03,1.6,0.03,2.41c-3.46-0.07-6.92-0.14-10.4-0.17c0-0.95,0.02-1.89,0.03-2.82c0.03-2.62,0.07-5.3-0.07-7.94    c-0.09-1.58-0.62-2.58-1.64-3.06c-0.15-5.82-0.28-11.65-0.38-17.47l-0.14-7.23C54.18,97.88,54.61,97.64,54.9,97.33z M53.52,93.39    v0.28c0.02,0.95,0.02,1.91-0.76,2.38c-0.67,0.41-1.95,0.46-2.84,0.46c-0.45,0-0.9-0.02-1.29-0.03c-0.34,0-0.67-0.02-0.95-0.02    l-1.27,0.02c-0.77,0-1.53,0.02-2.31,0.02c-0.41,0-0.81,0-1.22-0.02c-2.53-0.03-2.7-0.74-2.67-2.91    C44.66,93.51,49.1,93.44,53.52,93.39z M52.06,122.39h-0.02c-0.57,0-1.17,0.05-1.81,0.1c-0.59,0.03-1.19,0.09-1.77,0.09h-0.28    c-0.6,0-1.27-0.02-2-0.05c-0.77-0.03-1.6-0.07-2.39-0.07c-0.57,0-1.12,0.02-1.65,0.07c0-4.39-0.09-8.83-0.15-13.13    c-0.07-3.55-0.14-7.11-0.15-10.65c0.48,0.03,0.96,0.05,1.48,0.05c1.12,0,2.32-0.09,3.37-0.15c0.71-0.05,1.38-0.1,1.96-0.12    l0.76-0.02c0.64,0,1.39-0.02,2.13-0.07l0.14,6.8C51.78,110.96,51.89,116.68,52.06,122.39z M40.99,124.89    c0.22-0.1,0.59-0.15,1.12-0.15c0.31,0,0.64,0.02,0.95,0.03c0.22,0,0.45,0.02,0.74,0.02h0.09c1.2-0.05,2.39-0.1,3.6-0.12    c0.4,0,0.96-0.09,1.58-0.15c0.83-0.1,1.77-0.22,2.56-0.22c0.55,0,0.96,0.05,1.24,0.17c1.07,0.46,0.98,2.05,0.9,3.32    c-0.02,0.31-0.03,0.6-0.03,0.84c0.02,1.96,0,3.92,0,5.89v2.05l-2.15-0.02c-1.07-0.02-2.25-0.07-3.48-0.12    c-1.43-0.05-2.93-0.12-4.39-0.12c-1.34,0-2.5,0.05-3.53,0.17c-0.03-2.53-0.02-5.04-0.02-7.57v-0.33c0-0.26-0.02-0.53-0.03-0.83    C40.06,126.61,39.98,125.42,40.99,124.89z M115.49,145.65c0.36,0.4,0.5,0.98,0.41,1.82c-0.19,2-1.39,2.19-3.37,2.25    c-4.1,0.17-8.43,0.24-13.65,0.24c-4.11,0-8.23-0.05-12.34-0.09c-3.84-0.05-7.68-0.09-11.5-0.1c-2.05-0.12-4.27-0.17-6.82-0.17    c-2.34,0-4.66,0.03-6.99,0.09c-2.34,0.05-4.66,0.1-7.01,0.1c-0.88,0-1.74-0.02-2.62-0.02c-1.55-0.03-3.1-0.05-4.63-0.05    c-2.29,0-4.56,0.03-6.85,0.1c-0.4,0.02-0.77,0.03-1.17,0.07c-0.52,0.02-1.02,0.05-1.5,0.05c-1.72,0-2.93-0.41-3.2-2.53    c-0.22-1.67-0.26-1.88,1.55-2.27c1.39-0.31,2.96-0.34,4.46-0.36l1.1-0.02c0.72-0.02,1.45-0.03,2.17-0.03    c1.41,0,2.84,0.03,4.25,0.07c1.43,0.03,2.84,0.05,4.27,0.05h1.24c0.88-0.02,1.74-0.02,2.62-0.02c3.2,0,6.39,0.07,9.57,0.14    c3.2,0.09,6.4,0.15,9.6,0.15c0.84,0,1.69,0,2.53-0.02c7.42-0.1,15.32-0.15,24.86-0.17c0,0,7.35,0.03,8.73,0.03h1.7    C113.94,144.98,114.96,145.05,115.49,145.65z M111.32,138.83c1.6,0.48,1.6,2.1,1.6,3.65v0.21c-0.19-0.02-0.38-0.02-0.57-0.02    c-1,0-2.01,0.09-3,0.15c-0.83,0.07-1.58,0.14-2.24,0.14l-0.31-0.02c-2.41-0.09-5.01-0.12-7.95-0.12c-3.17,0-6.33,0.05-9.48,0.09    c-2.63,0.05-5.27,0.09-7.88,0.1h-1.27c-3.7,0-7.4-0.07-11.09-0.14c-3.7-0.07-7.4-0.15-11.1-0.15l-1.79,0.02    c-1.79,0-3.56,0.02-5.35,0.02c-2.08,0-4.17-0.02-6.27-0.05c-0.55-0.02-1.17-0.05-1.82-0.07c-1.05-0.05-2.2-0.1-3.36-0.1    c-0.88,0-1.64,0.03-2.32,0.09c-0.02-2.27,0.4-3.32,2.77-3.8c0.69-0.14,1.48-0.21,2.56-0.21c0.48,0,0.95,0.02,1.43,0.02    c0.45,0.02,0.89,0.03,1.34,0.03c0.19,0,0.4,0,0.59-0.02c1.46-0.03,2.94-0.05,4.41-0.05c2.55,0,5.1,0.05,7.63,0.1l4.13,0.07    c7.09,0.15,14.44,0.29,21.67,0.34h1.03c2.74,0,5.46-0.07,8.18-0.12c2.32-0.07,4.66-0.12,6.99-0.14h0.45    c0.96,0,1.93,0.02,2.89,0.03c0.96,0.02,1.93,0.03,2.89,0.03h0.21c0.46,0,1.05-0.05,1.65-0.1c0.67-0.07,1.38-0.14,2.03-0.14    C110.53,138.68,110.98,138.73,111.32,138.83z M109.93,127.78c-0.02,0.31-0.03,0.6-0.03,0.84v7.9c-0.14-0.02-0.28-0.02-0.41-0.02    c-1.07,0-2.17,0.09-3.24,0.17c-0.95,0.09-1.84,0.15-2.62,0.15h-0.21c-0.86-0.02-1.72-0.02-2.58-0.02c-1.5,0-3,0.02-4.49,0.03    c-0.03-2.01-0.02-4.03-0.02-6.04v-2.24c0-0.26-0.02-0.53-0.03-0.83c-0.07-1.14-0.15-2.32,0.86-2.86c0.21-0.1,0.59-0.15,1.12-0.15    c0.31,0,0.64,0.02,0.95,0.03c0.22,0,0.45,0.02,0.74,0.02h0.09c1.2-0.05,2.39-0.1,3.6-0.12c0.4,0,0.96-0.09,1.58-0.15    c0.83-0.1,1.77-0.22,2.56-0.22c0.55,0,0.96,0.05,1.24,0.17C110.1,124.92,110.02,126.51,109.93,127.78z"/>
			<path class="st1" d="M78.76,71.37c-1.22-0.5-2.6-0.76-4.01-0.76c-3.63,0-7.87,1.86-9.11,6.02c-1.55,5.18,1.19,10.14,6.52,11.81    c1.03,0.22,2.07,0.33,3.1,0.33c4.49,0,7.85-2.17,9-5.82C85.75,78.28,83.37,73.3,78.76,71.37z M82.29,82.39    c-0.95,2.77-3.48,4.34-6.97,4.34c-0.86,0-1.74-0.09-2.6-0.28c-3.7-1.15-5.68-4.22-5.3-8.19c0.38-3.82,4.04-5.56,7.32-5.56    c1.5,0,2.98,0.36,4.15,1.02C81.96,75.45,83.4,79.1,82.29,82.39z"/>
			<path class="st1" d="M49.15,81.66c-0.18,0-0.36,0.05-0.53,0.16c-2.89,1.78-5.78,3.65-8.57,5.55c-0.4,0.27-0.56,0.73-0.41,1.19    c0.14,0.45,0.52,0.76,0.93,0.76c0.19,0,0.37-0.06,0.55-0.18c2.81-1.91,5.69-3.77,8.56-5.54c0.4-0.25,0.58-0.69,0.45-1.14    C49.98,81.98,49.59,81.66,49.15,81.66z"/>
			<path class="st1" d="M52.33,79.56c-0.31,0-0.57,0.11-0.75,0.33c-0.16,0.19-0.25,0.44-0.25,0.7c0,0.51,0.34,1.03,1,1.03    c0.31,0,0.57-0.11,0.75-0.33c0.16-0.19,0.25-0.44,0.25-0.7C53.33,80.08,52.99,79.56,52.33,79.56z"/>
		</g>
		<g>
			<path class="st1" d="M168.61,63.49c-0.1-3.94-0.22-8.42-2.89-11.57c-1.95-2.27-4.8-3.68-7.49-3.68c-0.41,0-0.83,0.03-1.29,0.07    C151.96,48.1,146.92,48,141.98,48c-6.94,0-13.94,0.21-20.81,0.6c-5.3,0.31-11.58,0.72-17.88,1.41l-0.38,0.05    c-2.89,0.31-6.18,0.65-8.07,3.03c-2.25,2.82-2,6.99-1.79,10.48c0.24,3.91,0.72,7.75,1.26,11.22c0.12,0.88,0.26,1.72,0.4,2.55    c0.74,0.43,1.46,0.86,2.17,1.29c-0.14-0.88-0.28-1.74-0.41-2.6c-0.26-1.65-0.5-3.3-0.72-4.94c-0.1-0.74-0.22-1.57-0.36-2.44    c-0.65-4.18-1.48-9.38,0.09-12.65c1.93-4.06,7.35-4.29,11.72-4.49c0.88-0.03,1.7-0.07,2.48-0.14c5.42-0.45,10.43-0.79,15.32-1.03    c5.37-0.26,10.93-0.4,16.51-0.4c3.82,0,7.76,0.07,11.7,0.19c-3.08,2.62-4.15,7.19-4.84,11.76c-0.86,5.66-0.81,11.95,0.14,19.78    c0.59,4.82,1.39,9.71,2.15,14.42c0.28,1.62,0.53,3.24,0.79,4.85c0.22,1.38,0.46,2.75,0.72,4.15c0.74,4.03,1.5,8.19,1.43,12.31    c-0.07,4.96-1.62,7.76-5.04,9.09c-1.15,0.45-3.43,1.19-5.71,1.19c-1.03,0-1.95-0.15-2.72-0.46c-3.96-1.57-6.58-9.54-6.13-13.7    c0.05-0.43-0.15-0.76-0.52-0.9c-0.14-0.07-0.28-0.1-0.43-0.1L110.07,113c0,0.65,0.02,1.29,0.03,1.93l21.91-0.45    c-0.07,3.36,1.33,7.54,3.74,11.24c0.65,0.98,1.38,1.76,2.22,2.36c-6.18,0.46-12.84,0.69-21.5,0.74c-1.5,0-2.98,0-4.46,0.02    c0.02,0.65,0.02,1.29,0.02,1.93c9.91-0.03,20.16-0.1,30.19-1.08c0.21-0.02,0.4-0.1,0.45-0.21h0.28c0.67,0,1.31-0.03,1.95-0.12    c5.08-0.62,8.35-2.63,9.69-5.99c1.82-4.54,0.9-9.97,0.09-14.75l-0.24-1.45c-0.46-2.84-1-5.73-1.53-8.64    c-1.89-10.29-3.84-20.95-3.18-31.29c1.03,0.02,2.07,0.03,3.1,0.05c1.6,0.02,3.18,0.05,4.79,0.05c2.82,0,6.56-0.07,10.36-0.6    c0.43-0.07,0.76-0.57,0.74-0.95C168.64,65.04,168.62,64.27,168.61,63.49z M164.84,65.18c-1.02,0.24-2.15,0.28-3.24,0.28h-3.17    c-1.69,0-3.37-0.03-5.06-0.09c-1.17-0.02-2.34-0.05-3.49-0.07c0.15-1.64,0.34-3.08,0.59-4.41c1.31-7.14,3.89-10.78,7.68-10.78    c0.5,0,1.02,0.07,1.57,0.19c4.15,0.96,6.39,4.46,6.83,10.65c0.02,0.41,0.07,0.79,0.12,1.14    C166.87,63.77,166.97,64.68,164.84,65.18z"/>
			<path class="st0" d="M137.51,62.8c-0.02-0.41-0.28-0.83-0.94-0.83c0,0-0.01,0-0.01,0c-10.74,1.05-21.65,1.59-32.43,1.59    c-0.62,0-0.94,0.49-0.94,0.97c0,0.48,0.32,0.97,0.94,0.97h0c10.79-0.01,21.71-0.54,32.46-1.59    C137.22,63.84,137.53,63.29,137.51,62.8z"/>
			<path class="st0" d="M136.94,75.26c0-0.48-0.32-0.97-0.94-0.97c-11.24,0.01-21.13,0.75-30.23,2.26c-0.47,0.08-0.75,0.43-0.72,0.91    c0.04,0.48,0.43,0.98,1.02,0.98l0.18-0.02c8.85-1.46,18.58-2.18,29.75-2.19C136.62,76.23,136.94,75.74,136.94,75.26z"/>
			<path class="st0" d="M137.9,89.14c-1.53,0.48-3.15,0.71-5.1,0.71c-1.6,0-3.24-0.15-4.82-0.31c-1.31-0.12-2.65-0.26-3.98-0.31    c-0.62-0.02-1.24-0.02-1.86-0.02c-1.33,0-2.63,0.05-3.96,0.12c-0.52-0.67-1.34-1.27-2.25-1.79c2.05-0.17,4.11-0.28,6.16-0.28h0.41    c1.62,0.02,3.27,0.19,4.87,0.34c1.67,0.17,3.39,0.34,5.06,0.34c1.88,0,3.48-0.22,4.92-0.69c0.1-0.03,0.21-0.03,0.31-0.03    c0.45,0,0.81,0.33,0.88,0.81C138.62,88.47,138.45,88.97,137.9,89.14z"/>
			<path class="st0" d="M139.14,100.81c0.02,0.48-0.29,1-0.93,1.02c-3.36,0.15-6.78,0.21-10.09,0.28c-6.01,0.1-12.19,0.22-18.26,0.83    l-0.03-1.93c6.09-0.62,12.27-0.74,18.28-0.84c3.3-0.05,6.73-0.12,10.09-0.26c0,0,0,0,0.02,0    C138.85,99.9,139.14,100.36,139.14,100.81z"/>
		</g>
	</g>
	</svg>