<?xml version="1.0" encoding="utf-8"?>
<!-- Generator: Adobe Illustrator 25.0.0, SVG Export Plug-In . SVG Version: 6.00 Build 0)  -->
<svg version="1.1" id="Layer_1" xmlns="http://www.w3.org/2000/svg" xmlns:xlink="http://www.w3.org/1999/xlink" x="0px" y="0px"
	 viewBox="0 0 200 200" style="enable-background:new 0 0 200 200;" xml:space="preserve">
<style type="text/css">
	.st0{fill:#1A1A1A;}
	.st1{fill:#38B6FF;}
</style>
<g>
	<path class="st0" d="M110.31,102.19c-0.18-10.21-0.26-20.93-0.24-32.76c4.65,0.56,10.73,2.37,14.08,7.73
		c0.38,0.61,0.97,0.95,1.67,0.95c0.77,0,1.54-0.45,1.91-1.11c0.33-0.6,0.3-1.28-0.09-1.9c-3.07-4.92-9.3-8.2-17.56-9.25l0-3.23
		c0-1.88,0-3.75,0.01-5.63c0.01-0.55-0.18-1.03-0.53-1.39c-0.37-0.37-0.91-0.59-1.48-0.59c-1,0-2.03,0.68-2.04,1.97
		c-0.02,1.82-0.02,3.65-0.02,5.47v3.06c-0.47-0.01-0.95-0.02-1.43-0.02c-3.06,0-6.15,0.3-9.18,0.9l0.02-8.87
		c0-0.55-0.19-1.03-0.54-1.38c-0.37-0.37-0.91-0.58-1.48-0.58c-1.01,0-2.03,0.67-2.03,1.97l-0.02,9.86
		c-7.44,2.22-12.88,6.08-15.34,10.88c-1.8,3.52-1.96,7.44-0.48,11.62c2.96,8.33,9.92,11.08,15.74,12.51l-0.06,31.33
		c-7.62-1.74-12.65-6.55-15.38-14.7c-0.29-0.86-1.03-1.39-1.94-1.39c-0.7,0-1.37,0.32-1.74,0.84c-0.34,0.47-0.41,1.06-0.21,1.67
		c3.39,10.14,9.7,15.95,19.27,17.77l-0.04,18.12c0,0.55,0.19,1.03,0.54,1.38c0.37,0.37,0.91,0.59,1.48,0.59
		c1.01,0,2.03-0.68,2.03-1.97l0.03-17.59c1.18,0.09,2.39,0.13,3.63,0.13c1.72,0,3.54-0.09,5.41-0.26c0.96-0.09,1.96-0.23,2.98-0.41
		l0.05,1.17c0.21,5.48,0.43,10.95,0.7,16.42c0.06,1.28,1.11,1.95,2.11,1.95c0.57,0,1.1-0.21,1.46-0.59
		c0.34-0.36,0.51-0.84,0.48-1.39c-0.3-6.15-0.54-12.3-0.78-18.45c4.39-1.22,11.96-4.13,15.41-10.24c1.83-3.23,2.18-6.87,1.05-10.82
		C125.15,106.85,117.51,103.87,110.31,102.19z M111.14,133.11c-0.35-9.66-0.61-18.52-0.78-27.06c2.21,0.62,3.96,1.3,5.49,2.14
		c3.96,2.17,6.91,5.66,7.89,9.34c0.74,2.78,0.31,5.59-1.24,8.12C120.27,129.29,116.55,131.73,111.14,133.11z M102.37,100.67
		c-2.4-0.41-4.77-0.81-7.02-1.31l0.06-28.76c3.41-0.92,7.06-1.41,10.6-1.41h0.01c-0.02,11.48,0.06,22,0.23,32.16
		C104.95,101.11,103.66,100.89,102.37,100.67z M95.34,103.26c1.62,0.29,3.26,0.55,4.89,0.81c2.05,0.32,4.08,0.64,6.06,1.03
		c0.18,9.25,0.45,18.68,0.82,28.8c-1.44,0.21-2.88,0.37-4.26,0.47c-1.3,0.09-2.57,0.14-3.8,0.14c-1.3,0-2.55-0.05-3.77-0.16
		L95.34,103.26z M91.35,71.96l-0.05,26.3c-0.48-0.15-0.96-0.31-1.41-0.49c-3.81-1.49-8.85-4.91-10.52-9.67
		c-0.91-2.6-0.64-5.19,0.8-7.69C82.64,76.14,87.52,73.48,91.35,71.96z"/>
	<path class="st0" d="M199.76,103.07c-2.08-27.77-8.97-48.81-21.06-64.34c-13.23-16.98-32.95-29.56-55.54-35.44
		c-7.48-1.72-15.01-2.59-22.38-2.59c-14.85,0-29.26,3.49-42.83,10.37C44.22,18.03,19.7,33.09,9.6,55.75
		c-9.34,20.98-12.07,44.72-7.29,63.49c4.33,17,14.41,34.07,28.4,48.06c20.33,20.33,48.24,32,76.58,32c0,0,0,0,0,0
		c8.77,0,17.48-1.12,25.88-3.33C174.29,185.15,202.92,145.21,199.76,103.07z M196.05,113.62c-0.45,9.24-3.46,20.12-8.94,32.35
		c-8.21,18.3-21.86,32.31-39.45,40.51c-12.49,5.82-26.04,8.77-40.27,8.77c-22.07,0-44.04-7.27-61.87-20.48
		c-13.37-9.9-24.48-23.1-32.13-38.17C3.92,117.94,2.22,98.86,7.9,74.73c3.44-14.6,8.08-24.36,15.5-32.63
		c6.94-7.72,15.82-15.03,26.41-21.73C66.17,10.04,83.46,4.79,101.21,4.79c6.91,0,13.95,0.81,20.9,2.41
		c19.32,5.02,36.33,15.08,49.21,29.08c11.4,12.4,18.74,28.97,22.44,50.65C195.14,95.03,196.49,104.53,196.05,113.62z"/>
	<path class="st0" d="M99.52,24.35c-6.45,0-12.81,0.82-18.88,2.43C47.34,35.59,21.04,72,23.2,106.3
		c1.76,14.44,9.3,30.88,20.69,45.12C54.61,164.8,68.37,173,85.97,176.49c6.63,1.31,15.34,2.82,23.96,2.82
		c9.35,0,17.65-1.74,25.38-5.33c13.79-6.4,25.76-16.99,33.7-29.81c15.79-25.5,12.6-62.39-7.77-89.69
		C147.37,35.9,123.72,24.35,99.52,24.35z M171.79,129.27c-4.76,13.41-14.26,25.64-26.76,34.42c-11.07,7.79-22.65,11.57-35.4,11.57
		c-2.63,0-5.36-0.16-8.1-0.49C84.3,172.73,66.5,169,53.09,155.65c-13.7-13.64-23.84-33.05-25.84-49.42
		C25.54,79.11,44,47.98,69.27,35.36c9.11-4.55,19.58-6.95,30.28-6.95c18.53,0,36.78,7,50.07,19.22
		C171.25,67.51,180.99,103.37,171.79,129.27z"/>
	<path class="st1" d="M65.97,51.03c-0.36,0-0.71,0.11-1.05,0.33c-13.53,8.71-22.51,22.16-25.3,37.87c-0.11,0.63,0.04,1.23,0.44,1.7
		c0.42,0.5,1.09,0.81,1.74,0.81c0.91,0,1.58-0.57,1.74-1.5c2.62-14.77,10.95-27.35,23.44-35.4c0.79-0.51,1.11-1.38,0.85-2.28
		C67.57,51.66,66.8,51.03,65.97,51.03z"/>
	<path class="st1" d="M73.93,50.14c0.32-0.37,0.49-0.86,0.49-1.38c0-1.01-0.68-2.02-1.97-2.02c-0.61,0-1.12,0.22-1.48,0.65
		c-0.32,0.37-0.49,0.86-0.49,1.38c0,1.01,0.68,2.02,1.97,2.02C73.06,50.79,73.57,50.57,73.93,50.14z"/>
</g>
</svg>
