<svg xmlns="http://www.w3.org/2000/svg" xmlns:xlink="http://www.w3.org/1999/xlink" version="1.1" id="Layer_1" x="0px" y="0px" viewBox="0 0 200 200" style="enable-background:new 0 0 200 200;" xml:space="preserve">
    <style type="text/css">
        .st0{fill:#38B6FF;}
        .st1{fill:#1A1A1A;}
        .st2{fill:none;stroke:#1A1A1A;stroke-width:4;stroke-miterlimit:10;}
        .st3{fill:#333333;}
        .st4{fill:#FFFFFF;}
        .st5{fill:#1C1C1B;}
        .st6{fill:#2B2A2A;}
    </style>
    <g>
        <polygon class="st0" points="48.4,62.47 71.85,83.91 49.74,120.1 3.5,91.95 41.7,59.12  "/>
        <polygon class="st3" points="134.18,79.89 157.63,120.77 196.5,104.02 169.69,47.05  "/>
        <path class="st4" d="M71.85,83.91l8.71,2.68l10.05-4.69c0,0,0-8.04,4.02-6.03c4.02,2.01,8.04,4.02,8.04,4.02s10.72,0.67,12.73,1.34   c2.01,0.67,4.69,1.34,2.68,4.69s1.34,4.02,6.03,2.01c4.69-2.01,8.04-4.02,8.04-4.02l20.77,31.5l-13.4,5.36c0,0,1.34,10.72,0,15.41   c-1.34,4.69-8.71,2.68-8.71,2.68s2.68,5.36-0.67,5.36s-8.04-1.34-8.04-1.34l-4.02,2.01l-8.71-4.02l-2.68-3.35l0.67,6.7l-4.69,4.02   l-6.7-0.67l-6.7,3.35l-7.37-2.01c0,0-8.04,0.67-8.71-2.01c-0.67-2.68-2.01-5.36-2.01-5.36l-6.03-8.04l-5.36-5.36l2.01-7.37   l-12.06-6.7L71.85,83.91z"/>
        <g>
            <g>
                <path class="st5" d="M61.47,123.11c0.21-0.02,0.43-0.01,0.64,0.02c0.07,0,0.14-0.01,0.2-0.04c0.06-0.02,0.12-0.06,0.17-0.11     c0.05-0.05,0.09-0.1,0.11-0.17c0.03-0.06,0.05-0.13,0.04-0.2c-0.01-0.13-0.05-0.27-0.15-0.36c-0.03-0.03-0.07-0.05-0.1-0.08     c-0.08-0.05-0.17-0.07-0.26-0.07c-0.21-0.03-0.43-0.04-0.64-0.02c-0.07,0-0.14,0.01-0.2,0.04c-0.06,0.02-0.12,0.06-0.17,0.11     c-0.05,0.05-0.09,0.1-0.11,0.17c-0.03,0.06-0.05,0.13-0.04,0.2c0.01,0.13,0.05,0.27,0.15,0.36     C61.2,123.05,61.33,123.12,61.47,123.11L61.47,123.11z"/>
            </g>
            <g>
                <path class="st5" d="M64.32,122.07c1.02-0.42,1.92-1.04,2.91-1.51c0.52-0.24,1.1-0.39,1.64-0.58c0.56-0.2,1.11-0.4,1.66-0.61     c2.22-0.83,4.4-1.75,6.58-2.67c1.04-0.44,2.07-0.96,3.15-1.29c0.91-0.28,1.91-0.55,2.87-0.39c1.59,0.26,2.58,1.61,2.67,3.12     c0.05,0.75-0.08,1.51-0.4,2.19c-0.41,0.87-1.09,1.59-1.77,2.26c-0.75,0.73-1.55,1.41-2.26,2.19c-0.7,0.76-1.55,1.36-2.39,1.96     c-0.84,0.6-1.69,1.19-2.44,1.91c-0.16,0.15-0.3,0.34-0.49,0.46c-0.24,0.15-0.48,0.29-0.72,0.43c-0.46,0.26-0.93,0.5-1.41,0.72     c-1.89,0.88-3.95,1.44-6.03,1.63c-0.54,0.05-1.08,0.04-1.62,0.07c-0.48,0.03-0.94,0.06-1.41-0.04c-0.88-0.18-1.87-0.66-2.38-1.44     c-0.24-0.36-0.36-0.74-0.53-1.14c-0.21-0.52-0.41-1.04-0.58-1.58c-0.34-1.04-0.59-2.11-0.65-3.2c-0.01-0.22-0.05-0.49,0.01-0.69     c0.05-0.2,0.16-0.39,0.22-0.6c0.18-0.64-0.81-0.91-0.99-0.27c-0.06,0.22-0.17,0.42-0.23,0.63c-0.07,0.27-0.05,0.56-0.04,0.84     c0.03,0.6,0.11,1.2,0.22,1.79c0.22,1.15,0.61,2.27,1.05,3.36c0.18,0.45,0.33,0.92,0.59,1.33c0.3,0.48,0.7,0.86,1.17,1.17     c0.9,0.59,1.96,0.94,3.05,0.91c2.27-0.06,4.51-0.33,6.66-1.07c1.07-0.37,2.11-0.82,3.11-1.36c0.48-0.26,1.06-0.52,1.44-0.92     c0.36-0.39,0.77-0.74,1.18-1.07c0.85-0.67,1.77-1.26,2.63-1.93c0.89-0.69,1.62-1.53,2.44-2.29c1.46-1.37,3.1-2.78,3.5-4.84     c0.32-1.65-0.08-3.54-1.44-4.63c-0.82-0.66-1.84-0.99-2.9-0.95c-1.1,0.03-2.22,0.34-3.23,0.77c-2.27,0.96-4.53,1.94-6.81,2.85     c-1.15,0.46-2.31,0.9-3.48,1.32c-0.59,0.21-1.19,0.39-1.78,0.62c-0.55,0.21-1.06,0.51-1.57,0.8c-0.48,0.28-0.97,0.56-1.48,0.77     c-0.26,0.11-0.44,0.34-0.36,0.63C63.75,121.95,64.06,122.17,64.32,122.07L64.32,122.07z"/>
            </g>
            <g>
                <path class="st5" d="M65.63,132.57c0.06,0.99,0.07,1.98,0.25,2.96c0.19,0.99,0.63,1.9,1.29,2.67c0.65,0.75,1.49,1.31,2.44,1.58     c0.88,0.26,1.81,0.28,2.71,0.23c0.99-0.05,1.97-0.17,2.96-0.21c1.17-0.04,2.34-0.04,3.5-0.19c1.16-0.15,2.25-0.47,3.3-1     c0.96-0.49,1.84-1.11,2.7-1.76c0.86-0.66,1.69-1.35,2.57-1.99c0.79-0.57,1.51-1.19,2.12-1.96c0.64-0.82,1.19-1.71,1.8-2.56     c0.66-0.92,1.34-1.83,1.85-2.85c0.39-0.77,0.78-1.57,1.07-2.38c0.28-0.78,0.46-1.67,0.23-2.49c-0.41-1.44-1.92-2.01-3.27-2.2     c-1.44-0.2-2.94-0.09-4.34,0.31c-1.24,0.35-2.57,0.98-3.27,2.13c-0.15,0.25-0.27,0.54-0.34,0.82c-0.16,0.64,0.83,0.92,0.99,0.27     c0.02-0.06,0.03-0.13,0.05-0.19c0.01-0.02,0.06-0.17,0.04-0.12c-0.02,0.04,0.05-0.11,0.07-0.14c0.03-0.06,0.07-0.13,0.11-0.19     c0.03-0.05,0.07-0.1,0.1-0.15c-0.06,0.08,0.04-0.05,0.06-0.07c0.09-0.1,0.19-0.2,0.29-0.3c0.13-0.12,0.15-0.13,0.25-0.2     c0.13-0.09,0.26-0.18,0.4-0.26c0.12-0.07,0.24-0.13,0.36-0.2c0.15-0.07,0.26-0.12,0.37-0.16c1.25-0.49,2.51-0.67,3.83-0.63     c0.16,0.01,0.33,0.02,0.49,0.03c0.18,0.02,0.28,0.03,0.39,0.04c0.28,0.04,0.56,0.1,0.83,0.18c0.13,0.04,0.26,0.08,0.39,0.13     c0.03,0.01,0.06,0.02,0.08,0.03c-0.02-0.01-0.09-0.04,0,0c0.06,0.03,0.13,0.06,0.19,0.09c0.25,0.13,0.47,0.28,0.65,0.5     c0.43,0.52,0.4,1.21,0.24,1.85c-0.19,0.75-0.52,1.45-0.86,2.14c-0.43,0.89-0.92,1.73-1.49,2.54c-0.6,0.85-1.19,1.7-1.78,2.55     c-0.48,0.7-1.01,1.36-1.65,1.92c-0.75,0.65-1.59,1.21-2.37,1.82c-1.55,1.23-3.17,2.54-5.1,3.11c-2.02,0.59-4.18,0.39-6.26,0.57     c-1.62,0.13-3.42,0.41-4.89-0.46c-0.78-0.46-1.42-1.2-1.79-2.04c-0.33-0.76-0.42-1.6-0.47-2.42c-0.03-0.45-0.04-0.91-0.07-1.36     C66.62,131.92,65.59,131.91,65.63,132.57L65.63,132.57z"/>
            </g>
            <g>
                <path class="st5" d="M69.71,141.36c0.13,1.7,0.47,3.39,1.5,4.79c1.15,1.56,2.79,2.73,4.61,3.39c1.99,0.73,4.12,0.46,6.11-0.12     c0.96-0.28,1.89-0.66,2.83-0.98c0.97-0.34,1.86-0.75,2.58-1.51c0.65-0.68,1.16-1.49,1.83-2.16c0.48-0.47,1-0.91,1.49-1.38     c1.16-1.1,2.29-2.26,3.33-3.47c1.12-1.3,2.18-2.68,3.04-4.16c0.78-1.35,1.42-2.81,1.61-4.37c0.18-1.39-0.03-3.06-1.26-3.92     c-1.02-0.71-2.41-0.62-3.58-0.53c-0.3,0.02-0.6,0.05-0.91,0.06c-0.66,0.04-0.66,1.06,0,1.03c0.59-0.03,1.18-0.09,1.77-0.11     c0.6-0.02,1.06-0.01,1.59,0.14c0.06,0.02,0.12,0.04,0.18,0.06c0.03,0.01,0.06,0.02,0.09,0.03c-0.08-0.03-0.01,0,0.01,0     c0.12,0.06,0.23,0.12,0.34,0.2c0.09,0.06,0-0.01,0.08,0.06c0.05,0.04,0.09,0.09,0.14,0.13c0.02,0.03,0.11,0.13,0.1,0.12     c0,0,0.08,0.11,0.1,0.16c0.31,0.52,0.4,1.22,0.39,1.86c-0.02,1.31-0.51,2.65-1.13,3.85c-0.73,1.4-1.65,2.7-2.65,3.93     c-1,1.22-2.07,2.37-3.19,3.47c-1.02,1-2.16,1.9-3.05,3.02c-0.54,0.68-1.06,1.42-1.8,1.89c-0.78,0.48-1.71,0.71-2.56,1.03     c-1.81,0.68-3.8,1.27-5.75,1.04c-1.73-0.2-3.45-1.2-4.67-2.42c-0.56-0.55-1.04-1.17-1.38-1.87c-0.33-0.66-0.51-1.38-0.62-2.11     c-0.06-0.38-0.1-0.77-0.13-1.16c-0.02-0.28-0.22-0.51-0.51-0.51C69.97,140.85,69.69,141.08,69.71,141.36L69.71,141.36z"/>
            </g>
            <g>
                <path class="st5" d="M80.35,149.19c-0.09,0.83,0.16,1.67,0.8,2.22c0.61,0.52,1.4,0.78,2.18,0.9c1.81,0.28,3.79,0.21,5.48-0.52     c1.08-0.46,2.03-1.17,2.9-1.96c0.97-0.89,1.9-1.87,2.77-2.86c0.9-1.02,1.6-2.17,2.44-3.23c0.41-0.52,0.84-1.03,1.2-1.59     c0.33-0.51,0.59-1.06,0.82-1.63c0.49-1.23,0.73-2.6,0.17-3.85c-0.49-1.07-1.53-2.12-2.78-2.06c-0.66,0.03-0.66,1.06,0,1.03     c0.84-0.04,1.5,0.73,1.85,1.46c0.43,0.9,0.21,1.92-0.11,2.83c-0.38,1.07-1,1.99-1.7,2.87c-0.4,0.49-0.8,0.98-1.15,1.51     c-0.33,0.49-0.66,0.98-1.03,1.43c-0.8,0.97-1.69,1.88-2.58,2.77c-0.75,0.75-1.56,1.46-2.49,1.99c-0.89,0.51-1.88,0.83-2.9,0.89     c-0.66,0.04-1.33,0.05-2,0c-0.7-0.05-1.51-0.19-2.1-0.54c-0.08-0.05-0.16-0.1-0.23-0.15c0.08,0.06,0,0-0.02-0.02     c-0.04-0.04-0.08-0.07-0.11-0.11c-0.02-0.02-0.04-0.04-0.06-0.07c-0.02-0.02-0.04-0.04-0.06-0.07c0.03,0.05,0.03,0.04,0,0     c-0.05-0.07-0.09-0.14-0.13-0.21c-0.01-0.02-0.05-0.11-0.02-0.02c-0.02-0.04-0.03-0.09-0.05-0.13c-0.03-0.09-0.05-0.19-0.07-0.29     c0.01,0.09,0-0.02,0-0.04c0-0.06-0.01-0.13-0.01-0.19c0-0.12,0.01-0.23,0.02-0.35c0.03-0.28-0.26-0.51-0.51-0.51     C80.56,148.68,80.38,148.91,80.35,149.19L80.35,149.19z"/>
            </g>
            <g>
                <path class="st5" d="M95.17,87.95c-0.61-1.58-1.82-2.82-2.57-4.32c-0.73-1.46-1.08-3.1-1.06-4.73c0-0.13,0.01-0.26,0.02-0.39     c0.01-0.09-0.01,0.02,0.01-0.07c0.01-0.07,0.02-0.13,0.04-0.2c0.02-0.11,0.06-0.22,0.09-0.32c0.01-0.03,0.06-0.15,0.04-0.11     c-0.02,0.04,0.04-0.09,0.06-0.12c0.05-0.09,0.1-0.17,0.16-0.26c0.06-0.1-0.02,0.02,0.03-0.05c0.04-0.04,0.07-0.08,0.11-0.12     c0.06-0.07,0.13-0.12,0.19-0.18c0.09-0.08-0.03,0.02,0.04-0.03c0.04-0.03,0.09-0.06,0.14-0.09c0.08-0.05,0.17-0.1,0.25-0.14     c0.04-0.02,0.08-0.04,0.11-0.05c0.09-0.04,0.01-0.01,0,0c0.03-0.01,0.05-0.02,0.08-0.03c0.2-0.07,0.41-0.13,0.62-0.17     c0.05-0.01,0.11-0.02,0.16-0.03c0.09-0.01-0.06,0,0.07-0.01c0.12-0.01,0.24-0.02,0.36-0.03c0.23-0.01,0.46-0.01,0.69,0     c0.5,0.03,0.84,0.08,1.36,0.2c0.48,0.11,0.95,0.26,1.41,0.44c0.06,0.02,0.11,0.04,0.16,0.07c0.1,0.04,0.01,0,0.09,0.04     c0.11,0.05,0.21,0.09,0.31,0.14c0.21,0.1,0.41,0.21,0.61,0.32c0.18,0.1,0.35,0.21,0.52,0.33c0.04,0.03,0.08,0.06,0.12,0.09     c0.07,0.05-0.05-0.04,0.04,0.03c0.14,0.12,0.29,0.25,0.43,0.37c1.3,1.2,2.34,2.64,3.67,3.81c1.3,1.15,2.79,2.07,4.08,3.22     c1.2,1.08,2.26,2.36,3.66,3.21c0.5,0.3,1.04,0.52,1.55,0.79c0.48,0.25,0.91,0.52,1.16,0.96c0.15,0.25,0.22,0.52,0.26,0.81     c0.04,0.27,0.39,0.43,0.63,0.36c0.29-0.08,0.4-0.36,0.36-0.63c-0.1-0.67-0.42-1.29-0.93-1.74c-0.46-0.41-1.01-0.68-1.57-0.94     c-0.6-0.29-1.18-0.6-1.7-1.02c-0.67-0.54-1.28-1.16-1.9-1.76c-0.63-0.61-1.28-1.17-1.97-1.7c-0.71-0.54-1.43-1.06-2.13-1.62     c-0.72-0.58-1.4-1.2-2.03-1.88c-0.63-0.67-1.21-1.38-1.86-2.04c-0.81-0.83-1.67-1.5-2.73-1.97c-0.99-0.44-2.03-0.74-3.11-0.87     c-0.98-0.12-2.01-0.07-2.93,0.33c-0.87,0.38-1.51,1.13-1.75,2.06c-0.17,0.66-0.14,1.37-0.09,2.05c0.07,0.89,0.23,1.77,0.51,2.62     c0.27,0.84,0.65,1.65,1.11,2.4c0.46,0.75,0.99,1.44,1.45,2.19c0.21,0.34,0.42,0.7,0.56,1.07c0.1,0.26,0.35,0.44,0.63,0.36     C95.05,88.52,95.27,88.21,95.17,87.95L95.17,87.95z"/>
            </g>
            <g>
                <path class="st5" d="M111.98,89.23c2.09,0.11,4.18-0.03,6.25-0.39c1.79-0.31,3.53-0.76,5.22-1.46c3.18-1.32,5.99-3.31,8.56-5.57     c2.58-2.28,4.93-4.82,7.33-7.29c1.52-1.57,2.99-3.18,4.5-4.76c1.51-1.58,3.03-3.15,4.54-4.74c0.75-0.8,1.51-1.59,2.25-2.4     c0.75-0.81,1.42-1.71,2.11-2.57c0.14-0.18,0.26-0.3,0.44-0.42c0.24-0.16,0.41-0.32,0.58-0.56c0.28-0.38,0.58-0.75,0.88-1.12     c0.61-0.72,1.27-1.41,1.95-2.07c0.33-0.32,0.67-0.64,1.01-0.95c0.49-0.45-0.24-1.17-0.73-0.73c-1.41,1.3-2.74,2.66-3.89,4.2     c-0.13,0.17-0.22,0.26-0.39,0.38c-0.2,0.14-0.37,0.27-0.52,0.46c-0.35,0.44-0.7,0.88-1.05,1.32c-0.35,0.44-0.7,0.88-1.08,1.29     c-0.37,0.4-0.74,0.79-1.11,1.19c-2.97,3.16-6.01,6.26-8.97,9.42c-2.42,2.58-4.85,5.17-7.44,7.59c-2.43,2.27-5.07,4.35-8.07,5.81     c-3.35,1.63-7.15,2.37-10.86,2.38c-0.5,0-0.99-0.01-1.48-0.04C111.32,88.17,111.33,89.19,111.98,89.23L111.98,89.23z"/>
            </g>
            <g>
                <path class="st5" d="M78.32,86.4c0.81-0.05,1.62-0.12,2.41-0.27c0.39-0.08,0.78-0.17,1.17-0.29c0.19-0.06,0.37-0.12,0.55-0.19     c0.21-0.09,0.41-0.23,0.62-0.34c1.44-0.75,3.02-1.19,4.55-1.74c0.9-0.33,1.79-0.66,2.68-1.01c0.26-0.1,0.44-0.34,0.36-0.63     c-0.07-0.25-0.37-0.46-0.63-0.36c-1.52,0.6-3.06,1.16-4.61,1.69c-0.78,0.27-1.55,0.55-2.31,0.89c-0.36,0.17-0.7,0.37-1.05,0.55     c-0.33,0.17-0.74,0.25-1.1,0.34c-0.86,0.21-1.75,0.29-2.63,0.34C77.66,85.41,77.66,86.43,78.32,86.4L78.32,86.4z"/>
            </g>
            <g>
                <path class="st5" d="M100.42,78.86c0.66,0,0.66-1.03,0-1.03C99.76,77.84,99.76,78.86,100.42,78.86L100.42,78.86z"/>
            </g>
            <g>
                <path class="st5" d="M101.55,80.37c0.99-0.06,1.98-0.22,2.98-0.23c1.03,0,2.01,0.31,3.02,0.51c1.08,0.21,2.14,0.32,3.24,0.27     c0.98-0.05,2-0.17,2.98,0.01c0.7,0.13,1.38,0.43,2.04,0.71c0.54,0.22,1.18,0.53,1.71,0.9c0.21,0.15,0.44,0.34,0.64,0.57     c0.09,0.1,0.13,0.15,0.21,0.29c0.04,0.06,0.07,0.12,0.11,0.19c0.05,0.1,0.05,0.09,0.07,0.15c0.23,0.63,0.15,1.29-0.28,1.87     c-0.29,0.4-0.66,0.76-1.01,1.11c-0.29,0.29-0.65,0.42-1.04,0.51c-0.9,0.21-1.83,0.28-2.5,1.01c-0.45,0.48,0.28,1.21,0.73,0.73     c0.55-0.59,1.42-0.58,2.15-0.77c0.44-0.11,0.85-0.29,1.2-0.58c0.36-0.29,0.68-0.66,0.98-1.01c0.62-0.71,1.02-1.51,0.92-2.47     c-0.08-0.73-0.42-1.38-0.93-1.9c-0.98-0.99-2.36-1.47-3.63-1.97c-0.99-0.38-2-0.48-3.05-0.44c-1.09,0.04-2.18,0.16-3.26,0     c-0.64-0.09-1.26-0.23-1.89-0.36c-0.6-0.13-1.19-0.29-1.8-0.33c-1.19-0.09-2.37,0.14-3.55,0.21     C100.9,79.38,100.89,80.41,101.55,80.37L101.55,80.37z"/>
            </g>
            <g>
                <path class="st5" d="M77.54,87.43c2.03,0.29,4.09,0.33,6.12,0.67c1.07,0.18,2.14,0.37,3.23,0.49c1.08,0.12,2.16,0.21,3.24,0.27     c2.08,0.11,4.17,0.12,6.25,0.13c1.05,0.01,2.1,0.01,3.15,0.04c0.98,0.02,1.96,0.08,2.94,0.15c0.49,0.03,0.98,0.04,1.47,0.09     c0.48,0.05,0.95,0.1,1.42,0.17c1.03,0.15,2.05,0.34,3.07,0.56c1.68,0.36,3.31,0.79,4.87,1.51c2.89,1.34,5.36,3.38,7.56,5.65     c2.23,2.31,4.2,4.85,6.23,7.33c0.25,0.3,0.49,0.6,0.74,0.91c0.18,0.21,0.54,0.18,0.73,0c0.21-0.21,0.18-0.51,0-0.73     c-2.06-2.48-4.02-5.05-6.21-7.43c-2.18-2.37-4.62-4.55-7.47-6.09c-1.46-0.79-3.03-1.41-4.64-1.81c-1.97-0.49-3.97-0.86-5.99-1.08     c-0.99-0.11-1.99-0.14-2.98-0.21c-1.02-0.07-2.04-0.07-3.06-0.08c-2.1-0.03-4.19-0.01-6.29-0.07c-2.14-0.06-4.28-0.2-6.4-0.52     c-1.07-0.16-2.12-0.37-3.19-0.49c-1.03-0.12-2.07-0.19-3.1-0.28c-0.47-0.04-0.95-0.09-1.42-0.16c-0.27-0.04-0.55,0.07-0.63,0.36     C77.11,87.03,77.26,87.39,77.54,87.43L77.54,87.43z"/>
            </g>
            <g>
                <path class="st5" d="M128.38,105.72c-0.2-0.12-0.29-0.24-0.29-0.46c-0.26,0.15-0.52,0.3-0.77,0.44c0.85,0.59,1.48,1.48,2.05,2.33     c0.61,0.9,1.2,1.81,1.84,2.7c0.78,1.08,1.44,2.24,2.1,3.4c0.64,1.13,1.29,2.25,1.98,3.35c0.69,1.1,1.36,2.24,1.79,3.48     c0.45,1.29,0.63,2.67,0.97,3.99c0.17,0.67,0.41,1.32,0.61,1.99c0.2,0.66,0.37,1.32,0.53,1.99c0.32,1.37,0.58,2.75,0.87,4.12     c0.24,1.12,0.56,2.23,0.77,3.36c0.15,0.81,0.21,1.68-0.21,2.36c-0.47,0.76-1.5,1.14-2.36,1.34c-0.94,0.22-1.98,0.19-2.84-0.27     c-0.42-0.23-0.82-0.55-1.1-0.95c-0.29-0.41-0.46-0.88-0.6-1.35c-0.31-1.05-0.46-2.13-0.85-3.16c-0.93-2.42-2.46-4.53-3.67-6.8     c-1.32-2.46-2.47-5-3.83-7.44c-1.33-2.39-2.93-4.59-4.56-6.78c-0.4-0.54-0.8-1.07-1.19-1.61c-0.16-0.22-0.45-0.33-0.7-0.18     c-0.24,0.14-0.32,0.46-0.18,0.7c1.2,2.1,2.71,3.99,4.1,5.95c0.69,0.98,1.36,1.98,1.95,3.03c0.63,1.14,1.14,2.34,1.65,3.54     c1.07,2.48,2.08,4.99,3.21,7.46c0.5,1.09,1.05,2.16,1.53,3.26c0.45,1.03,0.86,2.15,0.95,3.28c0.08,0.99-0.13,1.88-0.51,2.78     c-0.08,0.18-0.16,0.36-0.26,0.54c-0.04,0.08-0.09,0.16-0.14,0.23c-0.09,0.13,0.1-0.09-0.05,0.06c-0.05,0.05-0.1,0.1-0.15,0.14     c-0.35,0.26-0.84,0.31-1.26,0.37c-1.17,0.17-2.28,0.6-3.47,0.63c-0.54,0.01-1.1-0.01-1.61-0.21c-0.36-0.14-0.64-0.37-0.91-0.66     c-0.73-0.78-1.4-1.66-2-2.54c-0.7-1.03-1.32-2.11-1.93-3.2c-1.2-2.14-2.47-4.23-3.7-6.36c-1.22-2.11-2.49-4.21-4.06-6.09     c-0.77-0.93-1.59-1.81-2.34-2.77c-0.74-0.95-1.47-1.93-2.27-2.83c-0.39-0.44-0.81-0.86-1.24-1.26c-0.41-0.37-1.16,0.12-0.81,0.62     c0.7,1.01,1.56,1.87,2.44,2.71c0.91,0.86,1.78,1.75,2.61,2.69c1.72,1.95,3.34,3.99,4.9,6.07c1.55,2.05,3.02,4.17,4.31,6.39     c1.18,2.04,2.48,4.31,2.6,6.72c0.05,0.94-0.08,2.07-0.73,2.77c-0.53,0.58-1.28,0.84-2.07,0.96c-0.8,0.12-1.75,0.07-2.54-0.05     c-1.05-0.16-2.09-0.43-3.03-0.93c-0.91-0.48-1.76-1.14-2.46-1.9c-0.34-0.37-0.53-0.81-0.72-1.26c-0.24-0.58-0.5-1.16-0.79-1.72     c-0.58-1.13-1.22-2.24-1.87-3.33c-0.65-1.1-1.41-2.13-2.18-3.15c-1.61-2.15-3.13-4.35-4.59-6.6c-0.69-1.06-1.38-2.12-2.07-3.17     c-0.66-1.01-1.35-2.01-2.14-2.93c-0.37-0.43-0.75-0.84-1.17-1.21c-0.21,0.27-0.41,0.54-0.62,0.81c0.79,0.57,1.34,1.56,1.84,2.4     c0.27,0.46,0.53,0.93,0.81,1.39c0.32,0.52,0.67,1.03,0.98,1.56c0.7,1.18,1.32,2.41,1.9,3.66c0.59,1.26,1.19,2.54,1.73,3.82     c0.54,1.26,0.97,2.56,1.49,3.83c0.27,0.65,0.55,1.29,0.88,1.91c0.3,0.56,0.61,1.12,0.89,1.69c0.28,0.57,0.49,1.15,0.65,1.76     c0.14,0.52,0.35,1.01,0.52,1.52c0.07,0.23,0.15,0.46,0.19,0.7c0.03,0.19,0.02,0.31-0.06,0.51c-0.11,0.3-0.46,0.65-0.77,0.9     c-0.89,0.7-1.84,1.07-2.9,1.35c-1.44,0.38-2.92,0.45-4.4,0.54c-0.66,0.04-0.66,1.06,0,1.03c2.5-0.14,5.09-0.31,7.28-1.65     c0.85-0.52,1.78-1.28,1.89-2.34c0.06-0.54-0.15-1.1-0.33-1.59c-0.2-0.56-0.37-1.11-0.55-1.68c-0.4-1.3-1.14-2.45-1.73-3.66     c-0.63-1.28-1.1-2.64-1.61-3.98c-0.52-1.36-1.14-2.69-1.75-4.01c-0.59-1.31-1.2-2.61-1.9-3.87c-0.68-1.24-1.47-2.4-2.17-3.62     c-0.63-1.1-1.31-2.27-2.36-3.03c-0.47-0.34-1.05,0.42-0.62,0.81c1.8,1.62,3.04,3.77,4.35,5.77c1.52,2.32,3.01,4.66,4.67,6.88     c0.78,1.05,1.59,2.08,2.31,3.17c0.73,1.09,1.36,2.25,2,3.4c0.31,0.56,0.61,1.12,0.88,1.7c0.26,0.56,0.45,1.16,0.75,1.69     c0.52,0.92,1.46,1.66,2.31,2.26c1.74,1.22,3.95,1.76,6.06,1.74c0.93-0.01,1.88-0.15,2.73-0.57c0.86-0.43,1.47-1.18,1.77-2.08     c0.8-2.4-0.19-5.03-1.27-7.18c-1.18-2.35-2.6-4.58-4.13-6.73c-1.54-2.16-3.18-4.27-4.87-6.32c-0.86-1.05-1.75-2.07-2.68-3.06     c-0.85-0.9-1.79-1.7-2.64-2.6c-0.42-0.44-0.81-0.9-1.15-1.39c-0.27,0.21-0.54,0.41-0.81,0.62c1.86,1.68,3.19,3.83,4.84,5.7     c0.82,0.93,1.61,1.85,2.32,2.87c0.72,1.02,1.37,2.09,2.01,3.16c0.64,1.07,1.25,2.16,1.88,3.23c0.64,1.08,1.3,2.15,1.92,3.25     c0.63,1.11,1.24,2.23,1.92,3.32c0.66,1.05,1.41,2.01,2.19,2.97c0.6,0.74,1.27,1.36,2.22,1.59c1.28,0.3,2.67,0.08,3.92-0.27     c0.52-0.14,1.03-0.22,1.57-0.31c0.53-0.09,1.04-0.25,1.46-0.6c0.35-0.3,0.56-0.73,0.74-1.14c0.19-0.43,0.36-0.87,0.49-1.33     c0.67-2.36-0.43-4.82-1.43-6.92c-1.15-2.42-2.22-4.87-3.26-7.34c-1.03-2.43-2-4.92-3.43-7.15c-1.33-2.08-2.91-4-4.27-6.06     c-0.34-0.51-0.66-1.03-0.97-1.57c-0.3,0.17-0.59,0.35-0.89,0.52c1.66,2.27,3.41,4.48,4.88,6.88c1.5,2.46,2.71,5.08,4.02,7.64     c0.62,1.2,1.27,2.38,1.96,3.54c0.69,1.14,1.38,2.28,1.94,3.49c0.26,0.55,0.48,1.12,0.65,1.71c0.15,0.53,0.25,1.08,0.38,1.61     c0.26,1.11,0.64,2.21,1.51,2.99c1.72,1.53,4.36,1.39,6.27,0.28c0.91-0.53,1.47-1.38,1.6-2.42c0.12-0.98-0.12-1.99-0.35-2.94     c-0.66-2.72-1.08-5.5-1.87-8.18c-0.2-0.68-0.45-1.35-0.63-2.03c-0.18-0.69-0.32-1.39-0.47-2.09c-0.14-0.67-0.29-1.35-0.52-2     c-0.23-0.66-0.51-1.29-0.84-1.91c-0.63-1.21-1.41-2.33-2.09-3.51c-0.69-1.18-1.33-2.38-2.04-3.55c-0.64-1.05-1.4-2.02-2.08-3.05     c-0.64-0.97-1.26-1.96-2.03-2.83c-0.35-0.4-0.74-0.76-1.18-1.06c-0.33-0.23-0.77,0.08-0.77,0.44c0,0.59,0.3,1.05,0.8,1.35     C128.43,106.96,128.94,106.07,128.38,105.72L128.38,105.72z"/>
            </g>
            <g>
                <path class="st5" d="M138.51,124.16c2.04,0.21,3.28-1.7,4.74-2.75c2.05-1.47,4.35-2.55,6.57-3.73c1.36-0.72,2.71-1.44,4.07-2.14     c0.59-0.3,0.07-1.19-0.52-0.89c-2.3,1.19-4.6,2.39-6.88,3.61c-1.07,0.57-2.13,1.17-3.15,1.84c-0.84,0.55-1.56,1.21-2.31,1.88     c-0.72,0.64-1.53,1.25-2.53,1.15c-0.28-0.03-0.51,0.26-0.51,0.51C138,123.95,138.23,124.13,138.51,124.16L138.51,124.16z"/>
            </g>
            <g>
                <path class="st5" d="M95.24,146.29c0.08,0.59,0.47,1.08,0.86,1.5c0.18,0.2,0.37,0.38,0.55,0.59c0.02,0.02,0.04,0.05,0.06,0.08     c0.01,0.01,0.01,0.02,0.02,0.03c0.03,0.04,0.03,0.03-0.02-0.03c0,0.03,0.08,0.12,0.1,0.14c0.07,0.11,0.14,0.23,0.19,0.35     c0.11,0.25,0.49,0.32,0.7,0.18c0.26-0.17,0.3-0.44,0.18-0.7c-0.21-0.5-0.62-0.9-0.99-1.29c-0.09-0.09-0.17-0.19-0.26-0.28     c-0.02-0.02-0.09-0.14-0.11-0.14c0.05,0.06,0.05,0.07,0.02,0.03c-0.01-0.01-0.01-0.02-0.02-0.03c-0.02-0.03-0.04-0.05-0.05-0.08     c-0.04-0.05-0.07-0.11-0.1-0.16c-0.02-0.03-0.03-0.06-0.04-0.08c-0.01-0.01-0.01-0.03-0.02-0.04c-0.02-0.04-0.01-0.02,0.02,0.05     c0.01-0.04-0.05-0.14-0.06-0.18c-0.02-0.06-0.03-0.13-0.04-0.19c-0.04-0.27-0.39-0.44-0.63-0.36     C95.3,145.75,95.2,146,95.24,146.29L95.24,146.29z"/>
            </g>
            <g>
                <path class="st5" d="M83.94,121.63c0.02,0.11,0.03,0.23,0.05,0.34c0.32-0.09,0.64-0.17,0.96-0.26c-0.81-1.44-1.78-2.87-3.15-3.83     c-1.06-0.74-2.58-0.97-3.81-0.58c-2.95,0.93-2.25,5.21-0.68,7.06c0.47,0.55,1.11,0.98,1.83,1.14c0.8,0.19,1.63,0.08,2.41-0.17     c0.16-0.05,0.33-0.18,0.36-0.36c0.02-0.15,0.04-0.29,0.07-0.44c0.04-0.27-0.07-0.55-0.36-0.63c-0.24-0.07-0.59,0.08-0.63,0.36     c-0.02,0.15-0.04,0.29-0.07,0.44c0.12-0.12,0.24-0.24,0.36-0.36c-0.53,0.17-1.14,0.28-1.65,0.21c-0.51-0.07-0.95-0.29-1.32-0.64     c-0.81-0.76-1.18-1.86-1.28-2.95c-0.09-1.04,0.06-2.21,1.05-2.62c0.91-0.38,2.14-0.23,2.95,0.25c1.36,0.81,2.28,2.27,3.03,3.62     c0.23,0.41,1.03,0.26,0.96-0.26c-0.02-0.11-0.03-0.23-0.05-0.34c-0.04-0.27-0.21-0.51-0.51-0.51     C84.2,121.12,83.9,121.35,83.94,121.63L83.94,121.63z"/>
            </g>
            <g>
                <path class="st5" d="M92.49,127.66c-0.79-0.71-1.55-1.47-2.4-2.11c-0.78-0.58-1.74-1.1-2.73-0.91c-1.2,0.23-1.82,1.46-2.22,2.49     c-0.5,1.3-0.63,2.96,0.35,4.08c0.79,0.91,2.09,0.71,3.16,0.66c0.66-0.03,0.66-1.05,0-1.03c-0.46,0.02-0.91,0.06-1.37,0.05     c-0.34-0.01-0.62-0.05-0.89-0.24c0.07,0.05-0.06-0.05-0.06-0.05c-0.03-0.02-0.05-0.05-0.08-0.08c-0.07-0.08-0.09-0.1-0.15-0.2     c-0.13-0.22-0.22-0.47-0.27-0.73c-0.14-0.62-0.02-1.26,0.18-1.85c0.17-0.53,0.41-1.1,0.76-1.55c0.11-0.14,0.28-0.3,0.38-0.37     c0.19-0.12,0.22-0.14,0.44-0.19c0.1-0.02,0.03-0.01,0.01-0.01c0.05-0.01,0.1-0.01,0.15-0.01c0.08,0,0.17,0,0.25,0.01     c-0.08-0.01,0.13,0.03,0.17,0.04c0.1,0.03,0.21,0.06,0.31,0.1c0.1,0.04,0.32,0.15,0.47,0.24c0.2,0.11,0.38,0.24,0.57,0.37     c0.81,0.59,1.52,1.33,2.27,2.01C92.26,128.83,92.99,128.1,92.49,127.66L92.49,127.66z"/>
            </g>
            <g>
                <path class="st5" d="M96.73,132.52c-0.32-0.05-0.57-0.23-0.83-0.41c-0.28-0.2-0.56-0.39-0.87-0.54c-0.24-0.12-0.43-0.38-0.71-0.5     c-0.32-0.13-0.65-0.07-0.96,0.07c-0.54,0.24-0.98,0.71-1.37,1.15c-0.29,0.33-0.58,0.67-0.8,1.05c-0.43,0.77-0.66,1.66-0.76,2.53     c-0.1,0.85-0.06,1.79,0.35,2.56c0.52,0.99,1.58,1.24,2.61,1.02c0.65-0.14,0.37-1.13-0.27-0.99c-0.21,0.04-0.28,0.06-0.53,0.05     c-0.05,0-0.09,0-0.14-0.01c0.12,0.01-0.01,0-0.03-0.01c-0.09-0.02-0.18-0.04-0.27-0.08c0.12,0.05-0.07-0.04-0.1-0.06     c-0.03-0.02-0.05-0.03-0.08-0.05c0.11,0.07,0.01,0.01-0.01-0.01c-0.05-0.05-0.11-0.1-0.16-0.16c-0.08-0.1,0.06,0.09-0.01-0.02     c-0.03-0.04-0.06-0.09-0.08-0.13c-0.04-0.07-0.07-0.14-0.11-0.21c0.05,0.12-0.04-0.11-0.05-0.15c-0.05-0.17-0.09-0.34-0.11-0.51     c0.02,0.12,0-0.03,0-0.04c0-0.05-0.01-0.09-0.01-0.14c-0.01-0.09-0.01-0.19-0.01-0.28c0-0.19,0.01-0.39,0.02-0.58     c0.02-0.24,0.02-0.25,0.07-0.5c0.04-0.21,0.08-0.41,0.14-0.62c0.05-0.16,0.1-0.33,0.15-0.49c0.03-0.08,0.06-0.17,0.1-0.25     c-0.05,0.11,0.01-0.02,0.02-0.03c0.02-0.05,0.05-0.1,0.07-0.15c0.06-0.13,0.13-0.25,0.21-0.37c0.13-0.2,0.13-0.19,0.29-0.38     c0.31-0.38,0.66-0.78,1.05-1.06c0.05-0.04,0.1-0.07,0.15-0.1c0.02-0.01,0.19-0.1,0.12-0.07c0.05-0.02,0.1-0.03,0.14-0.04     c-0.06,0.03,0,0.02-0.03-0.01c0.19,0.17,0.42,0.36,0.66,0.48c0.65,0.31,1.15,0.91,1.88,1.03c0.27,0.05,0.55-0.07,0.63-0.36     C97.15,132.9,97,132.57,96.73,132.52L96.73,132.52z"/>
            </g>
            <g>
                <path class="st5" d="M94.3,138.87c0.05,0.74,0.14,1.49,0.46,2.17c0.29,0.61,0.82,1.05,1.47,1.23c0.44,0.12,0.91,0.14,1.36,0.11     c0.27-0.02,0.53-0.22,0.51-0.51c-0.01-0.26-0.23-0.53-0.51-0.51c-0.19,0.01-0.39,0.02-0.58,0.01c-0.08,0-0.16-0.01-0.24-0.02     c-0.03,0,0.1,0.02,0,0c-0.04-0.01-0.09-0.02-0.13-0.03c-0.07-0.01-0.13-0.03-0.2-0.05c-0.03-0.01-0.07-0.02-0.1-0.03     c-0.11-0.04,0.07,0.04,0,0c-0.06-0.03-0.12-0.06-0.18-0.09c-0.02-0.01-0.05-0.03-0.07-0.04c-0.01-0.01-0.02-0.02-0.03-0.02     c-0.07-0.05,0.01,0,0.03,0.02c-0.03-0.04-0.09-0.08-0.13-0.12c-0.05-0.04-0.08-0.09-0.13-0.14c-0.04-0.04,0.06,0.09,0.03,0.04     c-0.01-0.01-0.02-0.02-0.02-0.03c-0.02-0.02-0.03-0.04-0.05-0.07c-0.04-0.06-0.07-0.12-0.11-0.18c-0.01-0.03-0.03-0.05-0.04-0.08     c-0.06-0.12,0.01,0,0,0c0,0-0.07-0.18-0.07-0.2c-0.05-0.14-0.08-0.29-0.12-0.43c-0.02-0.08-0.03-0.17-0.05-0.25     c-0.01-0.05-0.01-0.09-0.02-0.14c-0.02-0.12,0.01,0.07,0-0.02c-0.02-0.2-0.04-0.4-0.06-0.61c-0.02-0.27-0.22-0.53-0.51-0.51     C94.55,138.37,94.28,138.58,94.3,138.87L94.3,138.87z"/>
            </g>
            <g>
                <path class="st5" d="M77.63,87.58c3.31,0.26,6.62,0.11,9.93,0.08c1.67-0.01,3.35,0.01,5.02,0.13c1.64,0.12,3.25,0.39,4.87,0.66     c3.15,0.53,6.31,1.06,9.43,1.78c1.59,0.37,3.18,0.78,4.74,1.27c1.29,0.4,2.5,0.86,3.65,1.56c2.21,1.35,4.01,3.25,5.76,5.13     c0.45,0.48,0.9,0.96,1.35,1.43c0.21,0.22,0.42,0.43,0.63,0.65c0.27,0.28,0.48,0.59,0.71,0.91c0.88,1.23,1.82,2.43,2.8,3.58     c1.02,1.2,2.1,2.36,3.2,3.49c0.52,0.53,1.02,1.02,1.36,1.69c0.31,0.59,0.51,1.22,0.74,1.84c0.25,0.66,0.52,1.32,0.93,1.89     c0.43,0.59,0.95,1.09,1.47,1.61c0.21,0.21,0.48,0.43,0.64,0.68c0.2,0.3,0.37,0.61,0.6,0.89c0.46,0.57,0.84,1.2,1.2,1.84     c1.52,2.72,2.06,5.92,2.48,8.97c0.22,1.56,0.37,3.13,0.54,4.7c0.09,0.81,0.17,1.63,0.27,2.44c0.05,0.38,0.08,0.78,0.17,1.15     c0.1,0.4,0.18,0.81,0.23,1.22c0.11,0.78,0.11,1.57,0.01,2.34c-0.03,0.28,0.26,0.51,0.51,0.51c0.31,0,0.48-0.24,0.51-0.51     c0.1-0.83,0.08-1.67-0.03-2.5c-0.11-0.79-0.3-1.55-0.39-2.34c-0.19-1.63-0.35-3.26-0.53-4.89c-0.18-1.6-0.39-3.19-0.68-4.77     c-0.29-1.59-0.64-3.21-1.21-4.73c-0.26-0.7-0.58-1.37-0.94-2.02c-0.37-0.68-0.77-1.4-1.28-1.99c-0.21-0.23-0.37-0.49-0.52-0.76     c-0.18-0.31-0.45-0.57-0.7-0.83c-0.5-0.5-1.04-0.97-1.46-1.54c-0.83-1.14-1.05-2.59-1.72-3.82c-0.36-0.67-0.87-1.18-1.39-1.72     c-0.57-0.58-1.13-1.17-1.68-1.77c-1.05-1.15-2.07-2.33-3.03-3.56c-0.47-0.6-0.93-1.22-1.37-1.85c-0.2-0.29-0.39-0.57-0.64-0.82     c-0.24-0.25-0.49-0.5-0.73-0.75c-1.81-1.9-3.54-3.89-5.62-5.51c-1.04-0.81-2.15-1.53-3.36-2.06c-1.41-0.61-2.92-1.02-4.4-1.41     c-3.14-0.85-6.34-1.45-9.55-2c-1.63-0.28-3.26-0.59-4.9-0.83c-1.69-0.24-3.4-0.36-5.11-0.4c-3.34-0.08-6.69,0.12-10.03,0.03     c-0.82-0.02-1.64-0.06-2.47-0.13C76.97,86.51,76.97,87.53,77.63,87.58L77.63,87.58z"/>
            </g>
            <g>
                <path class="st5" d="M61.29,122.78c0,0.2,0,0.41-0.01,0.61c-0.01,0.18-0.01,0.22-0.06,0.39c-0.01,0.05-0.03,0.1-0.05,0.15     c-0.02,0.07,0.04-0.08,0-0.01c-0.01,0.02-0.02,0.03-0.03,0.05c-0.03,0.04-0.05,0.08-0.08,0.13c-0.07,0.11,0.03-0.02-0.04,0.06     c-0.39,0.44-0.79,0.91-1.01,1.46c-0.25,0.64-0.26,1.38-0.23,2.05c0.03,0.66,0.1,1.34,0.31,1.97c0.41,1.25,1.33,2.13,2.53,2.63     c1.14,0.47,2.42,0.56,3.64,0.57c1.18,0.01,2.36-0.09,3.53-0.14c1.69-0.07,3.24-0.59,4.66-1.5c0.79-0.51,1.54-1.08,2.32-1.59     c0.82-0.54,1.65-1.06,2.44-1.64c0.36-0.27,0.72-0.54,1.07-0.83c0.09-0.07-0.08,0.06-0.01,0c0.03-0.02,0.07-0.05,0.1-0.07     c0.08-0.06,0.15-0.11,0.23-0.16c0.4-0.28,0.81-0.55,1.21-0.82c1.02-0.69,2.04-1.41,2.95-2.24c0.74-0.67,1.6-1.53,1.71-2.58     c0.02-0.21,0-0.42-0.06-0.62c-0.19-0.63-1.18-0.36-0.99,0.27c0.01,0.04,0.02,0.09,0.03,0.13c-0.03-0.09,0-0.07,0,0.01     c0,0.04,0,0.08,0,0.12c0,0.02,0,0.05-0.01,0.07c0-0.03,0.02-0.1,0-0.03c-0.03,0.09-0.05,0.18-0.07,0.27     c-0.04,0.11,0.02-0.04-0.02,0.04c-0.02,0.05-0.05,0.1-0.07,0.15c-0.24,0.44-0.47,0.69-0.84,1.07c-0.82,0.82-1.72,1.47-2.67,2.13     c-0.74,0.51-1.52,0.99-2.23,1.55c-1.44,1.15-3.02,2.07-4.51,3.13c-1.29,0.91-2.57,1.74-4.15,2.01c-0.63,0.11-1.28,0.11-1.92,0.15     c-0.56,0.03-1.12,0.07-1.68,0.09c-1.18,0.04-2.37,0.04-3.47-0.23c-0.56-0.13-0.98-0.29-1.45-0.58c-0.41-0.26-0.75-0.6-1-1.04     c-0.26-0.45-0.39-0.99-0.46-1.51c-0.09-0.64-0.12-1.37-0.02-1.97c0.02-0.14,0.06-0.28,0.1-0.42c0.01-0.02,0.07-0.17,0.03-0.09     c0.03-0.07,0.08-0.15,0.12-0.22c0.16-0.27,0.27-0.41,0.45-0.62c0.32-0.36,0.59-0.71,0.68-1.19c0.07-0.37,0.08-0.75,0.07-1.13     C62.3,122.12,61.28,122.12,61.29,122.78L61.29,122.78z"/>
            </g>
            <g>
                <path class="st5" d="M64.89,121.22c0.82,0.08,1.65,0.22,2.4-0.2c0.3-0.17,0.57-0.38,0.91-0.47c0.33-0.08,0.67-0.06,1.01-0.08     c0.4-0.02,0.78-0.09,1.15-0.25c0.33-0.15,0.62-0.39,0.9-0.61c0.51-0.4,0.98-0.85,1.48-1.28c0.46-0.4,0.95-0.76,1.5-1.02     c0.67-0.32,1.44-0.4,2.17-0.51c0.81-0.12,1.61-0.24,2.39-0.49c0.8-0.26,1.57-0.61,2.38-0.86c0.67-0.2,1.48-0.43,2.12-0.33     c0.12,0.02,0.3,0.07,0.38,0.1c0.08,0.04,0.17,0.1,0.23,0.16c0.04,0.04,0.1,0.13,0.12,0.2c0.05,0.16,0.06,0.3,0.05,0.47     c-0.02,0.66,1,0.66,1.03,0c0.02-0.67-0.22-1.3-0.8-1.66c-0.51-0.32-1.16-0.36-1.74-0.3c-0.85,0.1-1.67,0.34-2.47,0.63     c-0.82,0.3-1.62,0.64-2.48,0.82c-0.85,0.18-1.71,0.26-2.56,0.43c-0.72,0.14-1.39,0.4-2,0.81c-0.57,0.38-1.08,0.83-1.59,1.29     c-0.25,0.22-0.5,0.44-0.75,0.65c-0.25,0.21-0.53,0.44-0.83,0.57c-0.36,0.15-0.78,0.13-1.16,0.15c-0.47,0.02-0.92,0.09-1.35,0.31     c-0.32,0.17-0.61,0.43-0.97,0.5c-0.49,0.08-1.02-0.03-1.5-0.08c-0.28-0.03-0.51,0.26-0.51,0.51     C64.38,121,64.61,121.19,64.89,121.22L64.89,121.22z"/>
            </g>
            <g>
                <path class="st5" d="M60.29,124.93c0.05-0.14,0.1-0.28,0.16-0.42c-0.02,0.04-0.03,0.08-0.05,0.12c0.18-0.42,0.39-0.83,0.64-1.21     c0.15-0.23,0.05-0.58-0.18-0.7c-0.26-0.13-0.55-0.06-0.7,0.18c-0.35,0.55-0.64,1.14-0.86,1.76c-0.09,0.25,0.1,0.57,0.36,0.63     C59.94,125.35,60.19,125.2,60.29,124.93L60.29,124.93z"/>
            </g>
            <g>
                <path class="st5" d="M66.67,134.31c0.25,1.69,1.11,3.11,2.26,4.34c0.55,0.59,1.12,1.17,1.73,1.7c0.48,0.41,1.01,0.79,1.63,0.93     c1.62,0.37,3.21-0.72,4.54-1.48c0.43-0.24,0.86-0.46,1.33-0.61c0.45-0.14,0.92-0.24,1.38-0.34c0.87-0.2,1.72-0.45,2.47-0.96     c1.28-0.88,2.19-2.2,3.58-2.93c1.62-0.85,3.13-1.91,4.41-3.22c0.48-0.49,0.92-1.02,1.38-1.53c0.48-0.54,0.96-1.08,1.41-1.64     c0.45-0.56,0.9-1.14,1.25-1.77c0.31-0.56,0.56-1.17,0.51-1.82c-0.12-1.6-1.48-2.86-2.74-3.68c-0.68-0.44-1.42-0.77-2.22-0.93     c-0.96-0.19-1.94-0.18-2.91-0.15c-0.48,0.02-0.95,0.03-1.43,0.04c-0.66,0-0.66,1.03,0,1.03c1.71,0,3.61-0.32,5.21,0.44     c0.6,0.29,1.17,0.66,1.67,1.1c0.5,0.44,0.98,0.95,1.24,1.57c0.12,0.29,0.18,0.57,0.16,0.87c-0.01,0.09-0.03,0.19-0.06,0.3     c-0.02,0.05-0.03,0.11-0.05,0.16c-0.01,0.03-0.02,0.06-0.04,0.1c-0.03,0.08,0,0-0.02,0.05c-0.26,0.58-0.63,1.1-1.01,1.61     c-0.75,0.99-1.61,1.89-2.43,2.83c-1.13,1.29-2.44,2.38-3.92,3.25c-0.71,0.42-1.45,0.77-2.1,1.29c-0.57,0.46-1.07,0.99-1.6,1.48     c-0.51,0.47-1.06,0.91-1.71,1.16c-0.85,0.32-1.76,0.43-2.63,0.69c-1.66,0.5-2.99,1.86-4.73,2.13c-0.44,0.07-0.86-0.02-1.26-0.25     c-0.54-0.31-0.99-0.78-1.45-1.24c-1.06-1.05-2.13-2.15-2.6-3.61c-0.13-0.38-0.21-0.78-0.27-1.17c-0.04-0.27-0.39-0.43-0.63-0.36     C66.73,133.76,66.63,134.03,66.67,134.31L66.67,134.31z"/>
            </g>
            <g>
                <path class="st5" d="M72.35,142.35c0.19-1.05-0.22-2-0.76-2.87c-0.25-0.41-0.99-0.27-0.96,0.26c0.06,0.84,0.1,1.68,0.24,2.51     c0.14,0.78,0.41,1.52,0.79,2.22c0.22,0.4,0.48,0.78,0.71,1.18c0.22,0.37,0.42,0.75,0.64,1.12c0.45,0.75,1.01,1.44,1.78,1.87     c3.36,1.91,7.4,0.69,10.38-1.36c0.74-0.51,1.45-1.08,2.11-1.69c0.33-0.3,0.64-0.61,1-0.88c0.37-0.28,0.76-0.53,1.14-0.79     c0.79-0.53,1.58-1.11,2.1-1.93c0.47-0.75,0.65-1.64,1.13-2.38c0.93-1.43,2.43-2.38,3.39-3.79c0.39-0.58,0.68-1.24,1-1.86     c0.37-0.71,0.74-1.43,1.05-2.17c0.26-0.63,0.51-1.31,0.5-2c-0.01-0.75-0.27-1.51-0.75-2.09c-0.86-1.05-2.31-1.28-3.59-1.36     c-0.32-0.02-0.64-0.03-0.96-0.03c-0.66-0.01-0.66,1.02,0,1.03c1.16,0.02,2.39,0.03,3.34,0.65c0.41,0.27,0.71,0.71,0.84,1.25     c0.07,0.28,0.1,0.57,0.06,0.86c0.01-0.08-0.02,0.09-0.02,0.11c-0.02,0.08-0.03,0.15-0.05,0.23c-0.04,0.16-0.09,0.32-0.15,0.48     c-0.44,1.3-1.17,2.48-1.78,3.7c-0.71,1.44-2.04,2.37-3.08,3.56c-0.59,0.67-1.01,1.39-1.33,2.22c-0.14,0.36-0.28,0.72-0.48,1.05     c-0.23,0.37-0.55,0.68-0.89,0.96c-0.65,0.54-1.4,0.96-2.08,1.47c-0.69,0.52-1.28,1.15-1.94,1.69c-2.49,2.05-5.93,3.71-9.2,2.71     c-0.78-0.24-1.53-0.6-2.08-1.22c-0.52-0.59-0.85-1.32-1.25-1.99c-0.4-0.68-0.84-1.32-1.09-2.07c-0.22-0.65-0.32-1.32-0.37-1.99     c-0.03-0.42-0.06-0.83-0.09-1.25c-0.32,0.09-0.64,0.17-0.96,0.26c0.37,0.61,0.79,1.34,0.65,2.08c-0.05,0.27,0.07,0.55,0.36,0.63     C71.97,142.78,72.3,142.63,72.35,142.35L72.35,142.35z"/>
            </g>
            <g>
                <path class="st5" d="M82.06,148.92c-0.01,0.81,0.13,1.67,0.57,2.37c0.39,0.62,0.98,1.06,1.66,1.33c1.4,0.56,3.07,0.34,4.47-0.09     c1.46-0.44,2.89-1.18,3.95-2.29c1.54-1.6,3.5-2.87,4.52-4.9c0.32-0.63,0.49-1.3,0.75-1.95c0.27-0.68,0.65-1.32,0.92-2.01     c0.59-1.47,0.28-2.99,0.27-4.52c0-0.66-1.03-0.66-1.03,0c0.01,1.24,0.3,2.55-0.06,3.76c-0.17,0.58-0.47,1.12-0.73,1.67     c-0.27,0.57-0.46,1.15-0.67,1.75c-0.34,0.96-0.9,1.81-1.59,2.55c-0.72,0.76-1.54,1.42-2.3,2.14c-0.35,0.33-0.68,0.69-1.03,1.02     c-0.27,0.26-0.44,0.38-0.69,0.56c-0.29,0.2-0.6,0.38-0.91,0.55c-0.34,0.18-0.65,0.32-0.94,0.43c-0.68,0.26-1.39,0.46-2.12,0.57     c-0.16,0.02,0.1-0.01-0.06,0.01c-0.05,0.01-0.1,0.01-0.15,0.02c-0.08,0.01-0.16,0.02-0.24,0.02c-0.18,0.01-0.35,0.02-0.53,0.02     c-0.17,0-0.34-0.01-0.51-0.03c-0.03,0-0.06-0.01-0.09-0.01c-0.15-0.02,0.11,0.02-0.04-0.01c-0.09-0.01-0.18-0.03-0.26-0.05     c-0.17-0.04-0.34-0.08-0.5-0.14c-0.04-0.01-0.08-0.03-0.12-0.04c-0.13-0.05,0.09,0.04-0.03-0.01c-0.08-0.03-0.15-0.07-0.22-0.11     c-0.07-0.04-0.14-0.08-0.21-0.13c-0.03-0.02-0.07-0.05-0.1-0.07c-0.08-0.06,0.06,0.06-0.04-0.03c-0.13-0.11-0.25-0.23-0.36-0.36     c-0.06-0.07-0.01-0.01,0,0.01c-0.03-0.04-0.07-0.09-0.1-0.14c-0.05-0.07-0.09-0.15-0.13-0.22c-0.02-0.03-0.03-0.07-0.05-0.1     c-0.01-0.02-0.07-0.17-0.03-0.06c-0.03-0.09-0.07-0.17-0.09-0.26c-0.14-0.45-0.16-0.75-0.15-1.24     C83.1,148.25,82.07,148.25,82.06,148.92L82.06,148.92z"/>
            </g>
            <g>
                <path class="st5" d="M96.15,147.04c0.44,1.74,2.36,1.9,3.86,1.83c0.7-0.04,1.39-0.1,2.09-0.12c0.88-0.02,1.74-0.31,2.54-0.67     c0.82-0.37,1.63-0.89,2.19-1.61c0.58-0.76,0.6-1.66,0.53-2.58c-0.04-0.47-0.1-0.95-0.13-1.42c-0.04-0.54-0.01-1.09-0.02-1.63     c-0.03-1.28-0.23-2.5-0.61-3.72c-0.21-0.7-0.46-1.39-0.71-2.08c-0.24-0.66-0.45-1.33-0.78-1.95c-0.56-1.04-1.44-1.87-2.05-2.88     c-0.27-0.44-0.94-0.25-0.96,0.26c-0.07,3.12,2.12,5.58,2.76,8.53c0.14,0.65,1.13,0.37,0.99-0.27c-0.62-2.84-2.8-5.27-2.73-8.26     c-0.32,0.09-0.64,0.17-0.96,0.26c0.52,0.85,1.2,1.56,1.75,2.38c0.62,0.93,0.93,2.05,1.3,3.1c0.39,1.1,0.77,2.24,0.89,3.4     c0.11,1.04,0.02,2.08,0.11,3.12c0.07,0.82,0.27,1.81,0.08,2.57c-0.07,0.28-0.24,0.52-0.47,0.76c-0.26,0.28-0.56,0.5-0.89,0.7     c-0.69,0.43-1.46,0.74-2.26,0.9c-0.54,0.11-1.25,0.08-1.87,0.13c-0.4,0.03-0.81,0.06-1.21,0.07c-0.36,0.01-0.83-0.01-1.11-0.06     c-0.4-0.07-0.63-0.14-0.93-0.34c-0.07-0.05,0.08,0.08-0.03-0.02c-0.04-0.03-0.07-0.06-0.1-0.1c-0.02-0.02-0.04-0.05-0.06-0.07     c-0.1-0.11,0.04,0.08-0.04-0.05c-0.12-0.19-0.14-0.23-0.19-0.45C96.98,146.13,95.99,146.4,96.15,147.04L96.15,147.04z"/>
            </g>
            <g>
                <path class="st5" d="M105.19,135.65c0.05-0.15,0.1-0.29,0.15-0.44c-0.29,0.08-0.57,0.15-0.86,0.23c0.76,0.97,1.54,1.92,2.31,2.89     c0.69,0.87,1.34,1.77,2.01,2.66c0.62,0.84,1.28,1.65,2.02,2.39c0.68,0.68,1.45,1.34,2.33,1.75c1.21,0.57,2.6,0.81,3.92,0.97     c1.43,0.17,2.93,0.17,4.32-0.2c1.49-0.4,2.79-1.33,3.22-2.87c0.18-0.64-0.81-0.91-0.99-0.27c-0.09,0.32-0.15,0.46-0.33,0.75     c-0.14,0.22-0.27,0.37-0.51,0.58c-0.13,0.12-0.13,0.11-0.28,0.21c-0.12,0.08-0.25,0.16-0.38,0.23c-0.28,0.15-0.45,0.21-0.78,0.31     c-1.27,0.39-2.61,0.4-3.96,0.27c-1.12-0.11-2.36-0.35-3.49-0.76c-0.81-0.3-1.51-0.87-2.12-1.46c-0.7-0.66-1.33-1.4-1.91-2.17     c-0.73-0.96-1.42-1.94-2.17-2.88c-0.82-1.04-1.67-2.07-2.49-3.12c-0.26-0.33-0.75-0.1-0.86,0.23c-0.05,0.15-0.1,0.29-0.15,0.44     c-0.09,0.26,0.1,0.56,0.36,0.63C104.84,136.09,105.1,135.91,105.19,135.65L105.19,135.65z"/>
            </g>
            <g>
                <path class="st5" d="M124.12,144.07c0.54-0.01,0.84,0.06,1.37,0.17c0.53,0.11,1.06,0.24,1.6,0.35c1.07,0.22,2.24,0.39,3.27-0.06     c1.3-0.56,1.66-1.96,1.91-3.23c0.19-0.96,0.3-1.94,0.36-2.91c0.06-0.9,0.09-1.81-0.04-2.71c-0.22-1.55-1.04-2.93-1.75-4.3     c-0.81-1.57-1.82-3.04-2.86-4.47c-2.03-2.8-4.21-5.55-5.39-8.84c-0.26-0.72-0.51-1.46-0.7-2.21c-0.12-0.47-0.22-0.95-0.35-1.42     c-0.27-0.96-0.76-2.19-1.91-2.3c-0.27-0.03-0.55,0.03-0.8,0.13c-0.31,0.12-0.47,0.44-0.31,0.75c0.36,0.69,0.77,1.35,1.15,2.03     c0.37,0.67,0.67,1.36,0.91,2.09c0.46,1.41,0.85,2.85,1.85,3.99c0.18,0.21,0.54,0.19,0.73,0c0.21-0.21,0.18-0.52,0-0.73     c-0.93-1.06-1.22-2.47-1.66-3.77c-0.51-1.48-1.35-2.76-2.08-4.13c-0.1,0.25-0.2,0.5-0.31,0.75c0.11-0.04,0.23-0.08,0.35-0.1     c-0.1,0.01,0.03,0.01,0.07,0c0.02,0,0.04,0,0.06,0c-0.07,0-0.05-0.01,0.01,0c0.05,0.01,0.09,0.02,0.14,0.04     c-0.08-0.03-0.02-0.01,0.02,0.02c0.01,0.01,0.13,0.09,0.08,0.05c-0.04-0.03,0.07,0.06,0.09,0.09c0.04,0.04,0.07,0.07,0.1,0.11     c-0.06-0.07,0.02,0.04,0.04,0.06c0.07,0.1,0.12,0.21,0.18,0.31c0.06,0.12,0.07,0.15,0.1,0.23c0.05,0.12,0.09,0.25,0.13,0.37     c0.15,0.46,0.25,0.94,0.36,1.41c0.15,0.63,0.35,1.24,0.55,1.85c0.52,1.56,1.2,3.04,2.04,4.45c0.87,1.45,1.88,2.82,2.88,4.18     c1,1.37,2.01,2.74,2.89,4.19c0.44,0.73,0.82,1.48,1.21,2.23c0.32,0.62,0.66,1.24,0.89,1.9c0.54,1.54,0.4,3.23,0.23,4.83     c-0.1,0.88-0.25,1.76-0.48,2.62c-0.14,0.52-0.35,0.93-0.73,1.26c-0.06,0.05,0.03-0.01-0.07,0.05c-0.04,0.03-0.08,0.05-0.12,0.08     c-0.05,0.03-0.1,0.05-0.14,0.08c-0.03,0.01-0.06,0.03-0.08,0.04c0.05-0.02,0.03-0.01-0.01,0c-0.1,0.04-0.21,0.07-0.32,0.09     c-0.05,0.01-0.11,0.02-0.16,0.03c-0.11,0.02,0.01,0-0.11,0.01c-0.24,0.02-0.47,0.02-0.71,0.01c-0.12-0.01-0.25-0.02-0.37-0.03     c-0.03,0-0.05-0.01-0.08-0.01c0.08,0.01-0.01,0-0.03,0c-0.07-0.01-0.14-0.02-0.22-0.03c-1.04-0.17-2.06-0.49-3.11-0.62     c-0.21-0.03-0.43-0.04-0.64-0.04C123.46,143.05,123.46,144.08,124.12,144.07L124.12,144.07z"/>
            </g>
            <g>
                <path class="st5" d="M133.51,139.38c0.66,0,0.66-1.03,0-1.03C132.85,138.35,132.85,139.38,133.51,139.38L133.51,139.38z"/>
            </g>
            <g>
                <path class="st5" d="M133.25,139.31c1.48,0.74,2.85,1.71,4.42,2.28c0.65,0.24,1.4,0.4,2.08,0.21c0.75-0.21,1.21-0.83,1.44-1.55     c0.15-0.5,0.2-1.03,0.21-1.55c0.02-0.76,0-1.53-0.01-2.29c0-0.79,0.03-1.59-0.02-2.38c-0.04-0.65-0.17-1.3-0.31-1.93     c-0.15-0.67-0.33-1.35-0.38-2.04c-0.06-0.77-0.05-1.55-0.16-2.32c-0.11-0.76-0.37-1.49-0.58-2.23c-0.22-0.75-0.45-1.49-0.62-2.25     c-0.16-0.7-0.24-1.42-0.38-2.12c-0.14-0.67-0.32-1.35-0.77-1.88c-0.36-0.42-0.85-0.72-1.31-1.03c-0.21-0.15-0.36-0.25-0.54-0.43     c-0.17-0.17-0.25-0.3-0.29-0.51c-0.15-0.64-1.14-0.37-0.99,0.27c0.23,1,1.23,1.45,1.97,2.02c0.33,0.25,0.57,0.53,0.71,0.94     c0.2,0.58,0.29,1.2,0.39,1.81c0.23,1.41,0.65,2.76,1.04,4.14c0.2,0.69,0.39,1.36,0.44,2.08c0.05,0.74,0.05,1.49,0.16,2.23     c0.19,1.26,0.62,2.47,0.63,3.76c0.01,0.76,0,1.52,0,2.28c0,0.72,0.03,1.45-0.01,2.17c-0.02,0.41-0.08,0.81-0.24,1.22     c0.04-0.1-0.05,0.09-0.06,0.12c-0.04,0.07-0.08,0.13-0.12,0.19c-0.04,0.06,0.08-0.09,0,0c-0.03,0.03-0.05,0.06-0.08,0.08     c-0.03,0.03-0.05,0.05-0.08,0.07c-0.09,0.08,0.09-0.06-0.01,0.01c-0.06,0.04-0.12,0.07-0.18,0.1c-0.1,0.05,0.08-0.03,0.01,0     c-0.03,0.01-0.05,0.02-0.08,0.03c-0.07,0.02-0.14,0.03-0.21,0.05c0.15-0.03-0.07,0-0.12,0.01c-0.07,0-0.14,0-0.21,0     c-0.04,0-0.26-0.03-0.12-0.01c-0.17-0.03-0.34-0.07-0.51-0.11c-0.81-0.23-1.51-0.61-2.29-1.04c-0.76-0.42-1.5-0.87-2.28-1.26     C133.18,138.13,132.66,139.01,133.25,139.31L133.25,139.31z"/>
            </g>
            <g>
                <path class="st5" d="M93.44,86.77c-0.22-0.05-0.39-0.13-0.54-0.26c-0.19-0.17-0.31-0.34-0.44-0.56c-0.27-0.44-0.44-0.9-0.63-1.36     c-0.47-1.12-1.26-2.18-1.43-3.4c-0.07-0.5,0.06-0.9,0.3-1.34c0.28-0.52,0.65-1,1.04-1.45c0.74-0.85,1.61-1.71,2.73-2.01     c1.3-0.34,2.53,0.2,3.55,0.99c1.11,0.85,2.04,1.91,2.93,2.98c0.96,1.17,1.88,2.38,2.91,3.49c0.95,1.02,2,1.95,3.29,2.51     c0.57,0.24,1.15,0.43,1.74,0.59c0.63,0.17,1.25,0.29,1.79,0.66c0.53,0.36,1,0.76,1.6,1.01c0.51,0.21,1.06,0.34,1.55,0.59     c0.23,0.12,0.39,0.23,0.55,0.43c0.17,0.22,0.55,0.18,0.73,0c0.21-0.21,0.17-0.51,0-0.73c-0.39-0.49-1.02-0.73-1.59-0.93     c-0.58-0.21-1.09-0.37-1.59-0.72c-0.59-0.42-1.11-0.85-1.82-1.04c-0.64-0.18-1.29-0.33-1.91-0.55c-1.33-0.46-2.39-1.28-3.36-2.28     c-1.11-1.14-2.07-2.42-3.08-3.65c-0.95-1.16-1.96-2.28-3.16-3.19c-1.18-0.91-2.56-1.46-4.07-1.21c-1.31,0.22-2.37,1.1-3.25,2.04     c-0.84,0.89-1.8,2.03-1.92,3.3c-0.13,1.35,0.72,2.64,1.29,3.8c0.24,0.48,0.41,0.98,0.66,1.51c0.26,0.55,0.59,1.07,1.08,1.44     c0.23,0.17,0.49,0.29,0.77,0.35C93.81,87.89,94.08,86.9,93.44,86.77L93.44,86.77z"/>
            </g>
            <g>
                <path class="st5" d="M101.34,80.41c1.01,0,2.02,0,3.03,0c1,0,2.01-0.03,3.01,0.02c0.88,0.05,1.75,0.19,2.63,0.33     c0.9,0.14,1.8,0.24,2.71,0.33c1.28,0.12,2.55,0.55,3.44,1.51c0.46,0.49,0.78,1.09,1.03,1.7c0.12,0.28,0.22,0.57,0.29,0.87     c0.07,0.28,0.09,0.36,0.08,0.63c0,0.07,0,0.13-0.01,0.2c0.01-0.11-0.01,0.03-0.02,0.07c-0.01,0.05-0.03,0.11-0.04,0.16     c-0.04,0.13,0.02-0.01-0.03,0.08c-0.03,0.05-0.05,0.1-0.08,0.14c-0.01,0.02-0.03,0.05-0.05,0.07c-0.04,0.06,0.08-0.09-0.01,0.01     c-0.08,0.09-0.16,0.17-0.26,0.25c0.07-0.06-0.07,0.04-0.09,0.06c-0.06,0.04-0.13,0.08-0.2,0.12c-0.14,0.08-0.24,0.12-0.37,0.17     c-0.37,0.14-0.75,0.24-1.14,0.32c-0.27,0.06-0.43,0.38-0.36,0.63c0.08,0.28,0.36,0.42,0.63,0.36c1.16-0.24,2.57-0.71,2.96-1.98     c0.16-0.54,0.09-1.14-0.06-1.68c-0.19-0.71-0.51-1.42-0.9-2.04c-0.82-1.3-2.1-2.14-3.59-2.49c-0.86-0.2-1.75-0.21-2.62-0.32     c-0.95-0.12-1.9-0.31-2.85-0.42c-1.17-0.14-2.34-0.12-3.51-0.12c-1.21,0-2.43,0-3.64,0C100.68,79.38,100.68,80.41,101.34,80.41     L101.34,80.41z"/>
            </g>
            <g>
                <path class="st5" d="M114.07,89.79c1.88,0.15,3.78,0.1,5.62-0.34c1.93-0.46,3.62-1.49,5.33-2.46c1.73-0.98,3.51-1.87,5.21-2.91     c0.83-0.51,1.66-1.04,2.49-1.56c0.85-0.54,1.75-1.03,2.58-1.59c0.72-0.49,1.32-1.12,1.84-1.81c0.56-0.74,0.96-1.57,1.45-2.35     c0.99-1.59,2.14-3.08,3.24-4.59c0.56-0.77,1.08-1.55,1.75-2.24c0.63-0.65,1.31-1.27,1.84-2.01c0.26-0.37,0.48-0.77,0.75-1.14     c0.25-0.36,0.53-0.7,0.8-1.03c0.57-0.69,1.17-1.36,1.73-2.06c0.56-0.71,1.09-1.44,1.71-2.1c0.61-0.65,1.26-1.25,1.94-1.82     c0.69-0.58,1.39-1.14,2.1-1.69c0.74-0.58,1.48-1.14,2.14-1.8c0.33-0.33,0.66-0.66,0.99-0.99c0.47-0.47-0.26-1.19-0.73-0.73     c-0.66,0.66-1.3,1.34-2.03,1.93c-0.71,0.56-1.43,1.12-2.13,1.68c-1.37,1.1-2.7,2.25-3.81,3.62c-0.58,0.71-1.12,1.45-1.72,2.16     c-0.58,0.68-1.17,1.36-1.7,2.08c-0.27,0.36-0.52,0.73-0.76,1.12c-0.23,0.38-0.52,0.71-0.82,1.03c-0.61,0.65-1.27,1.24-1.82,1.95     c-0.6,0.78-1.16,1.6-1.74,2.39c-0.55,0.75-1.1,1.49-1.63,2.25c-0.52,0.75-1.03,1.52-1.49,2.32c-0.23,0.39-0.43,0.79-0.69,1.16     c-0.23,0.33-0.48,0.65-0.76,0.95c-0.28,0.3-0.58,0.58-0.91,0.81c-0.4,0.28-0.84,0.51-1.26,0.77c-0.83,0.51-1.66,1.04-2.48,1.56     c-0.81,0.51-1.63,1.02-2.46,1.51c-0.87,0.51-1.77,0.97-2.66,1.45c-0.86,0.46-1.7,0.95-2.56,1.43c-0.85,0.48-1.71,0.99-2.63,1.33     c-1.73,0.65-3.57,0.85-5.41,0.8c-0.45-0.01-0.89-0.04-1.34-0.07c-0.28-0.02-0.51,0.25-0.51,0.51     C113.56,89.57,113.8,89.76,114.07,89.79L114.07,89.79z"/>
            </g>
            <g>
                <path class="st5" d="M132.99,79.89c-0.02,0.15-0.03,0.29-0.05,0.44c-0.06,0.5,0.75,0.71,0.96,0.26c0.33-0.71,0.76-1.21,1.31-1.76     c0.54-0.54,1.12-1.04,1.67-1.58c-0.24-0.24-0.48-0.48-0.73-0.73c-0.33,0.33-0.66,0.66-1,1c-0.2,0.2-0.2,0.53,0,0.73     c0.2,0.2,0.53,0.2,0.73,0c0.33-0.33,0.66-0.66,1-1c0.2-0.2,0.2-0.53,0-0.73c-0.2-0.2-0.53-0.2-0.73,0     c-1.11,1.11-2.46,2.09-3.14,3.55c0.32,0.09,0.64,0.17,0.96,0.26c0.02-0.15,0.03-0.29,0.05-0.44c0.03-0.28-0.26-0.51-0.51-0.51     C133.2,79.38,133.02,79.61,132.99,79.89L132.99,79.89z"/>
            </g>
            <g>
                <path class="st5" d="M134.98,79.05c0.68-0.11,1.33-0.39,1.9-0.76c0.19-0.12,0.31-0.36,0.24-0.58c-0.07-0.2-0.27-0.4-0.5-0.38     c-0.15,0.01-0.29,0.02-0.44,0.04c-0.14,0.01-0.26,0.05-0.36,0.15c-0.09,0.09-0.16,0.24-0.15,0.36c0.01,0.26,0.23,0.54,0.51,0.51     c0.15-0.01,0.29-0.02,0.44-0.04c-0.09-0.32-0.17-0.64-0.26-0.96c-0.13,0.08-0.27,0.16-0.41,0.24c-0.08,0.04-0.15,0.08-0.23,0.11     c-0.03,0.01-0.06,0.03-0.09,0.04c-0.05,0.02-0.04,0.02,0.03-0.01c-0.02,0.01-0.04,0.02-0.06,0.02c-0.29,0.12-0.6,0.21-0.91,0.26     c-0.12,0.02-0.25,0.14-0.31,0.24c-0.06,0.11-0.09,0.27-0.05,0.4C134.44,78.97,134.7,79.09,134.98,79.05L134.98,79.05z"/>
            </g>
            <g>
                <path class="st5" d="M139.23,123.81c3.08-2.95,6.83-5.07,10.65-6.89c1.2-0.57,2.41-1.12,3.62-1.66c0.25-0.11,0.31-0.48,0.18-0.7     c-0.15-0.26-0.45-0.3-0.7-0.18c-4.04,1.8-8.1,3.68-11.66,6.33c-0.99,0.74-1.93,1.52-2.82,2.37     C138.03,123.55,138.75,124.27,139.23,123.81L139.23,123.81z"/>
            </g>
            <g>
                <path class="st5" d="M57.42,72.88c2.75,3.28,6.03,6.09,9.62,8.41c1.79,1.15,3.65,2.19,5.56,3.12c1.99,0.97,4.04,1.79,6.09,2.64     c2.47,1.03,4.97,2.1,7.61,2.59c0.59,0.11,0.86-0.59,0.4-0.94c-0.9-0.68-2.03-0.47-3.04-0.81c-0.53-0.18-1.02-0.47-1.54-0.69     c-0.55-0.24-1.12-0.4-1.69-0.58c-2.12-0.7-4.17-1.6-6.14-2.66c-2.06-1.1-4.04-2.36-6.02-3.6c-1.98-1.25-3.94-2.53-5.83-3.91     c-2.12-1.54-4.15-3.19-6.04-5c-0.12,0.29-0.24,0.58-0.36,0.88c0.13,0.01,0.27,0.02,0.4,0.03c0.28,0.02,0.51-0.25,0.51-0.51     c0-0.3-0.24-0.49-0.51-0.51c-0.13-0.01-0.27-0.02-0.4-0.03c-0.45-0.04-0.67,0.58-0.36,0.88c3.42,3.26,7.28,6.01,11.25,8.55     c3.91,2.49,7.86,4.95,12.24,6.54c0.62,0.22,1.24,0.43,1.87,0.63c0.6,0.19,1.15,0.49,1.72,0.74c0.6,0.27,1.19,0.42,1.85,0.49     c0.57,0.06,1.1,0.11,1.58,0.47c0.13-0.31,0.26-0.63,0.4-0.94c-2.34-0.44-4.56-1.33-6.75-2.24c-2.02-0.83-4.05-1.63-6.03-2.56     c-3.78-1.79-7.4-3.97-10.61-6.66c-1.82-1.53-3.51-3.21-5.04-5.04c-0.18-0.21-0.54-0.18-0.73,0     C57.21,72.37,57.24,72.67,57.42,72.88L57.42,72.88z"/>
            </g>
            <g>
                <path class="st5" d="M48.43,114.76c1.41,1.24,3.23,1.67,4.83,2.58c0.83,0.47,1.47,1.15,2.22,1.74c0.79,0.62,1.69,0.96,2.59,1.38     c1.02,0.47,2.03,1.02,3.19,0.81c0.27-0.05,0.43-0.38,0.36-0.63c-0.08-0.29-0.36-0.41-0.63-0.36c-0.85,0.15-1.7-0.38-2.44-0.72     c-0.83-0.38-1.69-0.69-2.42-1.26c-0.72-0.57-1.35-1.24-2.14-1.72c-0.74-0.45-1.55-0.77-2.34-1.12c-0.88-0.38-1.77-0.79-2.49-1.43     c-0.21-0.18-0.52-0.2-0.73,0C48.25,114.22,48.22,114.57,48.43,114.76L48.43,114.76z"/>
            </g>
            <g>
                <path class="st5" d="M63.14,120.26c-1.51,0.19-3,0.65-4.54,0.51c0.09,0.02,0.17,0.05,0.26,0.07c-3.54-1.78-6.65-4.27-9.71-6.76     c-0.21-0.18-0.52-0.21-0.73,0c-0.18,0.18-0.22,0.55,0,0.73c1.73,1.41,3.46,2.81,5.28,4.09c0.9,0.63,1.81,1.24,2.76,1.8     c0.45,0.27,0.92,0.53,1.38,0.77c0.26,0.14,0.51,0.3,0.8,0.33c0.29,0.03,0.58,0.03,0.86,0.02c1.23-0.04,2.41-0.38,3.63-0.53     c0.28-0.04,0.51-0.21,0.51-0.51C63.66,120.52,63.42,120.22,63.14,120.26L63.14,120.26z"/>
            </g>
            <g>
                <path class="st5" d="M84.41,121.3c-0.18-0.74-0.72-1.27-1.3-1.73c-0.56-0.44-1.1-0.9-1.63-1.39c-0.5-0.46-1.03-0.93-1.68-1.14     c-0.68-0.22-1.38-0.02-1.94,0.4c-1.05,0.8-1.7,2.13-2.16,3.34c-0.19,0.5-0.39,1.08-0.34,1.62c0.06,0.65,0.4,1.23,0.85,1.7     c0.5,0.52,1.12,0.93,1.73,1.31c0.55,0.34,1.16,0.68,1.59,1.08c0.49,0.45,1.21-0.28,0.73-0.73c-0.83-0.76-1.88-1.21-2.77-1.89     c-0.4-0.31-0.76-0.65-0.98-1.1c-0.03-0.06-0.07-0.16-0.1-0.27c-0.01-0.03-0.04-0.2-0.03-0.1c-0.01-0.05-0.01-0.09-0.01-0.14     c0-0.05,0-0.1,0.01-0.16c0.01-0.1-0.01,0.04,0.01-0.06c0.02-0.13,0.05-0.25,0.09-0.37c0.15-0.54,0.38-1.06,0.64-1.57     c0.13-0.25,0.27-0.51,0.42-0.75c0.06-0.1,0.13-0.21,0.2-0.31c0.03-0.04,0.06-0.08,0.09-0.13c0.02-0.03,0.04-0.05,0.06-0.08     c-0.03,0.04-0.03,0.03,0,0c0.21-0.25,0.44-0.49,0.71-0.67c0.22-0.14,0.42-0.21,0.64-0.21c0.18,0,0.38,0.08,0.57,0.19     c0.24,0.14,0.45,0.3,0.66,0.48c0.57,0.49,1.09,1.02,1.69,1.47c0.5,0.39,1.11,0.8,1.27,1.45     C83.58,122.22,84.57,121.95,84.41,121.3L84.41,121.3z"/>
            </g>
            <g>
                <path class="st5" d="M91.29,127.63c-0.03,0-0.2-0.03-0.08,0c-0.06-0.01-0.11-0.02-0.17-0.04c-0.05-0.01-0.1-0.03-0.14-0.05     c-0.01,0-0.1-0.04-0.04-0.02c0.06,0.03-0.06-0.03-0.06-0.03c-0.1-0.05-0.2-0.11-0.3-0.17c-0.05-0.03-0.09-0.06-0.14-0.09     c-0.03-0.02-0.05-0.04-0.08-0.06c-0.13-0.09,0.04,0.03-0.03-0.03c-0.43-0.34-0.82-0.73-1.22-1.1c-0.76-0.7-1.77-1.49-2.87-1.1     c-1.16,0.4-1.91,1.63-2.11,2.79c-0.2,1.15-0.03,2.4,0.6,3.4c0.33,0.53,0.78,0.99,1.34,1.27c0.66,0.33,1.37,0.39,2.09,0.26     c0.27-0.05,0.43-0.38,0.36-0.63c-0.08-0.29-0.36-0.41-0.63-0.36c-0.11,0.02-0.18,0.03-0.32,0.03c-0.13,0-0.27,0-0.4-0.02     c-0.09-0.01,0.07,0.01-0.02,0c-0.03,0-0.05-0.01-0.08-0.01c-0.06-0.01-0.11-0.03-0.17-0.04c-0.06-0.02-0.11-0.03-0.17-0.05     c-0.03-0.01-0.06-0.02-0.09-0.03c0.05,0.02,0.02,0.01-0.01-0.01c-0.1-0.05-0.2-0.1-0.3-0.16c-0.05-0.03-0.09-0.06-0.14-0.1     c-0.05-0.03,0,0,0.01,0.01c-0.03-0.03-0.06-0.05-0.09-0.08c-0.19-0.16-0.32-0.32-0.42-0.47c-0.29-0.43-0.43-0.77-0.54-1.28     c-0.06-0.27-0.07-0.38-0.08-0.67c0-0.12,0-0.25,0-0.37c0-0.06,0.01-0.12,0.01-0.18c0-0.03,0.03-0.21,0.01-0.12     c0.04-0.25,0.1-0.5,0.18-0.73c0.05-0.15,0.05-0.13,0.11-0.26c0.06-0.12,0.12-0.23,0.19-0.34c0.12-0.19,0.26-0.35,0.47-0.55     c0.1-0.09,0.12-0.11,0.23-0.18c0.06-0.04,0.12-0.07,0.18-0.1c0,0,0.08-0.03,0.03-0.01c-0.05,0.02,0.07-0.02,0.07-0.02     c0.04-0.01,0.09-0.02,0.13-0.03c0.03-0.01,0.06-0.01,0.08-0.02c-0.02,0-0.1,0.01-0.01,0c0.04,0,0.08,0,0.13,0     c0.04,0,0.18,0.03,0.07,0c0.1,0.02,0.19,0.05,0.28,0.08c0.08,0.03-0.05-0.03,0.06,0.02c0.06,0.03,0.12,0.06,0.18,0.09     c0.09,0.05,0.17,0.1,0.26,0.16c0.13,0.09,0.14,0.1,0.23,0.17c0.19,0.16,0.38,0.33,0.56,0.5c0.81,0.75,1.67,1.71,2.85,1.77     C91.95,128.69,91.95,127.66,91.29,127.63L91.29,127.63z"/>
            </g>
            <g>
                <path class="st5" d="M95.8,133.64c0.14-0.51,0.12-1.06-0.16-1.52c-0.26-0.43-0.68-0.71-1.14-0.89c-0.89-0.34-2.04-0.23-2.84,0.29     c-0.88,0.58-1.08,1.52-1.16,2.51c-0.09,1.14-0.01,2.31,0.23,3.42c0.21,0.96,0.65,2.34,1.76,2.58c0.27,0.06,0.56-0.08,0.63-0.36     c0.07-0.26-0.09-0.57-0.36-0.63c-0.03-0.01-0.06-0.02-0.1-0.02c-0.02-0.01-0.04-0.01-0.06-0.02c0,0,0.09,0.05,0.05,0.02     c-0.05-0.03-0.21-0.14-0.11-0.06c-0.06-0.05-0.12-0.11-0.17-0.17c-0.01-0.01-0.08-0.1-0.05-0.05c0.03,0.04-0.05-0.07-0.06-0.1     c-0.24-0.37-0.32-0.63-0.44-1.08c-0.26-0.96-0.33-1.9-0.31-2.92c0-0.23,0.02-0.45,0.04-0.68c0.01-0.1,0.02-0.21,0.03-0.31     c-0.01,0.09,0-0.01,0.01-0.04c0.01-0.05,0.02-0.1,0.02-0.15c0.03-0.17,0.07-0.33,0.12-0.49c0.01-0.04,0.04-0.11,0.01-0.03     c0.02-0.04,0.04-0.08,0.06-0.12c0.02-0.04,0.05-0.07,0.07-0.11c0.05-0.08,0.01-0.02,0,0c0.02-0.02,0.04-0.04,0.06-0.07     c0.06-0.06,0.12-0.12,0.18-0.18c0.06-0.05-0.05,0.02,0.05-0.04c0.04-0.03,0.09-0.06,0.13-0.08c0.04-0.02,0.08-0.04,0.12-0.06     c0.02-0.01,0.15-0.07,0.1-0.05c-0.05,0.02,0.07-0.02,0.09-0.03c0.05-0.02,0.1-0.03,0.15-0.05c0.1-0.03,0.19-0.05,0.29-0.06     c0.02,0,0.05-0.01,0.07-0.01c-0.01,0-0.08,0.01-0.02,0c0.06-0.01,0.12-0.01,0.18-0.01c0.09,0,0.18,0,0.27,0     c0.05,0,0.11,0.01,0.16,0.01c0.02,0,0.05,0,0.07,0.01c0.08,0.01-0.08-0.01,0,0c0.11,0.02,0.22,0.04,0.32,0.07     c0.05,0.01,0.1,0.03,0.14,0.05c0.11,0.04-0.03-0.02,0.07,0.03c0.08,0.04,0.17,0.09,0.25,0.14c0.1,0.06-0.03-0.04,0.05,0.04     c0.03,0.03,0.07,0.06,0.1,0.1c0.01,0.01,0.03,0.03,0.04,0.04c0.05,0.05-0.05-0.07-0.01-0.01c0.03,0.04,0.05,0.09,0.08,0.13     c0.06,0.09,0-0.04,0.02,0.04c0.02,0.05,0.03,0.1,0.04,0.15c0,0.02,0.01,0.04,0.01,0.06c0.01,0.07-0.01-0.09,0-0.01     c0,0.05,0,0.1,0,0.15c0,0.03-0.02,0.19-0.01,0.1c-0.01,0.07-0.03,0.13-0.05,0.2C94.64,134.01,95.63,134.28,95.8,133.64     L95.8,133.64z"/>
            </g>
            <g>
                <path class="st5" d="M153.69,114.43c-1.24-2.39-2.58-4.78-4.42-6.77c-0.87-0.95-1.98-1.73-2.64-2.86     c-0.65-1.1-0.89-2.4-1.37-3.58c-1.03-2.51-2.65-4.66-4.08-6.94c-0.75-1.2-1.32-2.49-1.95-3.76c-0.59-1.2-1.37-2.28-2.18-3.34     c-0.92-1.22-1.74-2.5-2.36-3.9c-0.59-1.33-1.16-2.68-2.17-3.76c-0.45-0.48-1.18,0.24-0.73,0.73c0.86,0.92,1.37,2.09,1.87,3.23     c0.54,1.24,1.19,2.41,1.98,3.52c0.78,1.09,1.62,2.12,2.29,3.28c0.7,1.22,1.22,2.54,1.91,3.77c0.66,1.17,1.45,2.28,2.19,3.41     c0.72,1.1,1.4,2.23,1.96,3.42c0.56,1.19,0.85,2.46,1.37,3.66c0.53,1.25,1.46,2.15,2.43,3.08c2.17,2.08,3.65,4.69,5.02,7.33     C153.1,115.54,153.99,115.02,153.69,114.43L153.69,114.43z"/>
            </g>
            <g>
                <path class="st5" d="M154.35,115.74c-0.15-0.29-0.29-0.58-0.44-0.87c-0.06-0.11-0.19-0.2-0.31-0.24     c-0.12-0.03-0.29-0.02-0.4,0.05c-0.11,0.07-0.21,0.18-0.24,0.31c-0.03,0.14-0.01,0.27,0.05,0.4c0.15,0.29,0.3,0.58,0.44,0.87     c0.06,0.11,0.19,0.2,0.31,0.24c0.12,0.03,0.29,0.02,0.4-0.05c0.11-0.07,0.21-0.18,0.24-0.31c0.01-0.05,0.01-0.09,0.02-0.14     C154.42,115.91,154.39,115.82,154.35,115.74L154.35,115.74z"/>
            </g>
            <g>
                <path class="st5" d="M155.06,118.74c0.73,1.36,2.11,3.32,3.92,2.7c0.53-0.18,0.96-0.55,1.41-0.86c0.5-0.34,1-0.66,1.51-0.98     c1.01-0.62,2.04-1.19,3.09-1.74c2.08-1.08,4.23-2.03,6.38-2.98c1.08-0.48,2.17-0.97,3.24-1.47c0.51-0.24,1.02-0.52,1.55-0.72     c0.53-0.2,1.07-0.37,1.62-0.51c1.23-0.31,2.5-0.46,3.73-0.78c0.27-0.07,0.52-0.23,0.78-0.34c0.14-0.06,0.29-0.1,0.43-0.16     c0.17-0.06,0.31-0.18,0.46-0.28c0.31-0.21,0.62-0.41,0.93-0.62c0.06-0.04,0.11-0.07,0.17-0.11c0.09-0.1,0.12-0.12,0.1-0.07     c0,0,0,0,0,0.01c0.06-0.02,0.14-0.02,0.23,0c0-0.34,0-0.68,0-1.03c-0.44,0-0.89,0-1.33,0.07c-0.45,0.08-0.71,0.62-0.3,0.94     c0.2,0.15,0.48,0.14,0.72,0.13c0.35-0.01,0.7-0.06,1.05-0.14c0.57-0.13,0.44-1-0.14-1.01c-2.35-0.02-4.56,0.76-6.74,1.56     c-2.19,0.81-4.34,1.73-6.44,2.75c-1.03,0.5-2.01,1.06-2.98,1.68c-0.94,0.59-1.87,1.21-2.81,1.79c-0.48,0.3-0.97,0.59-1.47,0.86     c-0.47,0.26-0.96,0.57-1.47,0.71c-1.09,0.3-2.27,0.26-3.32,0.7c-0.48,0.2-0.91,0.47-1.38,0.7c-0.37,0.18-0.86,0.38-1.27,0.25     c-0.87-0.28-1.22-1.35-1.46-2.13c-0.19-0.63-1.18-0.36-0.99,0.27c0.27,0.88,0.63,1.81,1.37,2.4c0.41,0.32,0.88,0.53,1.4,0.51     c0.5-0.02,0.96-0.17,1.4-0.39c0.41-0.2,0.8-0.45,1.22-0.64c0.51-0.22,1.09-0.31,1.63-0.39c0.57-0.09,1.15-0.15,1.71-0.31     c0.56-0.16,1.09-0.48,1.59-0.76c2.03-1.11,3.9-2.47,5.89-3.63c1.03-0.6,2.15-1.08,3.23-1.57c1.06-0.48,2.14-0.93,3.22-1.36     c1.24-0.49,2.5-0.95,3.77-1.35c1.26-0.39,2.56-0.64,3.88-0.63c-0.05-0.34-0.09-0.67-0.14-1.01c-0.07,0.02-0.14,0.03-0.2,0.04     c-0.04,0.01-0.08,0.01-0.13,0.02c-0.01,0-0.11,0.02-0.05,0.01c0.03,0-0.11,0.01-0.14,0.01c-0.06,0.01-0.13,0.01-0.19,0.01     c-0.09,0-0.18,0.01-0.28,0c-0.03,0-0.08-0.01-0.11-0.01c-0.04,0.01,0.12,0.02,0.09,0.01c-0.14-0.04,0.21,0.1,0.27,0.22     c0.02,0.13,0.03,0.26,0.05,0.4c0,0,0,0,0,0c-0.04,0.08-0.09,0.15-0.13,0.23c-0.03,0.03-0.3,0.17-0.12,0.1     c-0.13,0.05-0.07,0.01-0.01,0c0.05,0,0.1-0.01,0.16-0.01c0.31-0.02,0.62-0.03,0.93-0.03c0.28,0,0.51-0.23,0.51-0.51     c0-0.31-0.24-0.48-0.51-0.51c-0.54-0.07-0.94,0.27-1.36,0.55c-0.25,0.17-0.51,0.34-0.76,0.51c-0.24,0.16-0.53,0.24-0.79,0.35     c-0.19,0.08-0.36,0.19-0.56,0.23c-0.31,0.06-0.61,0.13-0.92,0.19c-0.54,0.11-1.08,0.21-1.62,0.32c-1.1,0.23-2.22,0.5-3.24,0.98     c-1.05,0.49-2.1,0.99-3.16,1.47c-4.19,1.88-8.45,3.66-12.26,6.25c-0.44,0.3-0.9,0.75-1.43,0.86c-0.33,0.07-0.66-0.04-0.98-0.25     c-0.71-0.46-1.2-1.29-1.59-2.03C155.63,117.64,154.75,118.16,155.06,118.74L155.06,118.74z"/>
            </g>
            <g>
                <path class="st5" d="M133.14,82.94c0.85,0.86,1.8,1.62,2.59,2.55c0.78,0.91,1.35,1.98,1.91,3.04c0.6,1.13,1.15,2.27,1.73,3.41     c0.58,1.14,1.22,2.25,1.87,3.36c2.65,4.49,5.15,9.06,7.71,13.59c1.42,2.52,2.92,4.99,4.49,7.41c0.36,0.55,1.25,0.04,0.89-0.52     c-2.85-4.38-5.35-8.95-7.91-13.5c-1.28-2.28-2.57-4.55-3.89-6.81c-0.65-1.11-1.32-2.21-1.92-3.36c-0.59-1.13-1.15-2.27-1.73-3.41     c-0.64-1.24-1.29-2.48-2.14-3.58c-0.84-1.08-1.93-1.93-2.88-2.9C133.41,81.74,132.68,82.46,133.14,82.94L133.14,82.94z"/>
            </g>
            <g>
                <path class="st5" d="M153.12,115.94c-0.18,0.73,0.08,1.39,0.48,1.98c0.18,0.27,0.38,0.52,0.55,0.79c0.04,0.07,0.08,0.13,0.11,0.2     c0.02,0.03,0.03,0.06,0.05,0.09c0.02,0.04,0.05,0.11,0.02,0.03c0.03,0.08,0.06,0.16,0.08,0.24c0.01,0.04,0.02,0.08,0.03,0.12     c0.01,0.03,0.02,0.15,0.01,0.03c0.03,0.27,0.21,0.53,0.51,0.51c0.25-0.01,0.55-0.23,0.51-0.51c-0.08-0.72-0.45-1.28-0.86-1.85     c-0.17-0.24-0.34-0.49-0.46-0.76c0.05,0.12,0,0,0-0.02c-0.01-0.04-0.02-0.07-0.03-0.11c-0.01-0.03-0.01-0.06-0.02-0.09     c-0.02-0.07-0.01-0.06,0,0c-0.01-0.08-0.01-0.16-0.01-0.23c0-0.03,0.03-0.15,0-0.03c0.01-0.04,0.02-0.08,0.03-0.13     c0.07-0.26-0.08-0.57-0.36-0.63C153.48,115.52,153.19,115.66,153.12,115.94L153.12,115.94z"/>
            </g>
            <g>
                <path class="st5" d="M49.14,114.02c3.74-3.68,7.69-7.17,10.97-11.29c0.83-1.04,1.62-2.11,2.35-3.23c0.75-1.16,1.39-2.38,2-3.62     c0.59-1.19,1.18-2.36,1.96-3.44c0.74-1.02,1.59-1.95,2.41-2.9c1.78-2.04,3.85-4.67,2.74-7.54c-0.13-0.34-0.43-0.45-0.75-0.31     c-0.36,0.15-0.74,0.27-1.12,0.37c-0.64,0.16-0.37,1.15,0.27,0.99c0.47-0.12,0.92-0.28,1.36-0.47c-0.25-0.1-0.5-0.2-0.75-0.31     c0.91,2.37-0.76,4.56-2.24,6.26c-0.82,0.95-1.67,1.88-2.44,2.88c-0.8,1.04-1.44,2.15-2.03,3.33c-0.6,1.2-1.18,2.4-1.88,3.54     c-0.68,1.12-1.44,2.19-2.24,3.22c-1.56,2.02-3.3,3.89-5.1,5.7c-2.05,2.06-4.18,4.04-6.25,6.07     C47.94,113.76,48.67,114.48,49.14,114.02L49.14,114.02z"/>
            </g>
            <g>
                <path class="st5" d="M69.84,83.76c-0.13-0.02-0.01,0.01,0.01,0.01c-0.15-0.04,0.01,0.03-0.06-0.02     c-0.08-0.06,0.06,0.09-0.04-0.05c0.01,0.02,0.08,0.13,0.01,0c0.01,0.01,0.02,0.05,0.02,0.07c0.01,0.13,0-0.12,0.01,0.02     c0.01,0.09,0,0.18,0,0.28c-0.01,0.16,0.01-0.06,0,0.04c-0.01,0.04-0.01,0.09-0.02,0.13c-0.02,0.09-0.04,0.19-0.06,0.28     c-0.06,0.23-0.13,0.45-0.21,0.67c-0.25,0.7-0.58,1.37-0.92,2.07c-1.43,2.97-3.08,5.8-5.13,8.38c-2.01,2.52-4.21,4.89-6,7.58     c-0.89,1.33-1.64,2.75-2.54,4.07c-0.91,1.32-2.07,2.4-3.18,3.54c-0.54,0.55-1.06,1.13-1.51,1.76c-0.44,0.62-0.8,1.3-1.17,1.97     c-0.35,0.66-0.71,1.31-1.16,1.91c-0.4,0.55-0.91,1-1.42,1.45c-0.52,0.46-1.06,0.91-1.5,1.45c-0.36,0.44-0.62,0.92-0.91,1.41     c-0.12,0.2-0.25,0.41-0.42,0.57c-0.12,0.11-0.24,0.18-0.35,0.16c-0.28-0.04-0.56-0.28-0.8-0.44c-0.33-0.22-0.64-0.45-0.97-0.67     c-0.67-0.45-1.38-0.83-2.05-1.28c-0.67-0.45-1.31-0.94-1.94-1.45c-1.22-0.99-2.42-1.97-3.75-2.81c-1.31-0.83-2.67-1.57-4.01-2.34     c-1.4-0.8-2.76-1.66-4.09-2.56c-2.84-1.91-5.59-3.94-8.48-5.77c-1.37-0.87-2.78-1.7-4.02-2.74c-1.14-0.95-2.08-2.07-2.94-3.28     c-0.45-0.63-0.93-1.25-1.51-1.78c-0.21,0.27-0.41,0.54-0.62,0.81c1.1,0.81,2.06,1.78,3.05,2.72c0.98,0.94,2.04,1.79,3.11,2.64     c1.06,0.83,2.13,1.65,3.16,2.51c0.53,0.45,1.06,0.9,1.56,1.38c0.49,0.46,0.92,0.99,1.45,1.4c0.54,0.42,1.17,0.73,1.65,1.22     c0.24,0.24,0.47,0.49,0.72,0.72c0.27,0.24,0.58,0.46,0.86,0.68c1.1,0.86,2.2,1.72,3.32,2.56c2.19,1.65,4.44,3.21,6.79,4.61     c2.77,1.65,5.58,3.24,8.47,4.69c0.21,0.1,0.45,0.09,0.62-0.08c0.25-0.24,0.54-0.43,0.8-0.65c0.28-0.25,0.42-0.6,0.6-0.92     c0.32-0.62,0.64-1.24,0.97-1.85c0.67-1.22,1.43-2.39,2.46-3.34c0.48-0.45-0.24-1.18-0.73-0.73c-1.03,0.97-1.83,2.14-2.52,3.37     c-0.33,0.59-0.64,1.2-0.96,1.8c-0.15,0.29-0.28,0.68-0.51,0.91c-0.26,0.25-0.58,0.44-0.84,0.69c0.21-0.03,0.41-0.05,0.62-0.08     c-2.56-1.28-5.05-2.68-7.51-4.13c-2.4-1.41-4.71-2.92-6.95-4.57c-1.11-0.82-2.2-1.66-3.28-2.5c-0.55-0.43-1.16-0.84-1.65-1.34     c-0.24-0.24-0.47-0.49-0.72-0.72c-0.27-0.25-0.59-0.45-0.89-0.65c-0.24-0.16-0.49-0.32-0.72-0.5c-0.28-0.23-0.51-0.51-0.77-0.77     c-0.48-0.48-0.98-0.94-1.49-1.39c-1.02-0.88-2.08-1.71-3.14-2.54c-1.2-0.94-2.41-1.87-3.52-2.91c-1.14-1.07-2.23-2.19-3.5-3.12     C8.12,96,7.54,96.76,7.97,97.15c0.63,0.57,1.11,1.24,1.6,1.92c0.45,0.62,0.93,1.22,1.44,1.79c1.1,1.2,2.4,2.17,3.76,3.06     c1.42,0.93,2.86,1.81,4.27,2.76c1.48,1,2.94,2.03,4.42,3.05c1.44,0.99,2.88,1.98,4.37,2.89c1.36,0.82,2.75,1.57,4.12,2.38     c1.39,0.82,2.75,1.68,3.98,2.72c1.27,1.06,2.57,2.09,3.98,2.95c0.7,0.42,1.36,0.87,2.04,1.32c0.54,0.36,1.14,0.74,1.81,0.49     c0.53-0.2,0.89-0.69,1.16-1.16c0.31-0.52,0.58-1.03,0.99-1.48c0.98-1.05,2.16-1.85,2.99-3.04c0.89-1.28,1.43-2.78,2.41-4     c1.04-1.3,2.34-2.36,3.42-3.62c1.05-1.23,1.86-2.63,2.69-4c0.88-1.45,1.85-2.84,2.91-4.16c1.03-1.29,2.12-2.54,3.17-3.81     c1.05-1.27,2.07-2.58,2.97-3.96c0.95-1.47,1.79-3.03,2.57-4.59c0.43-0.86,0.86-1.73,1.23-2.61c0.31-0.75,0.73-1.74,0.5-2.56     c-0.13-0.45-0.48-0.68-0.92-0.73c-0.28-0.03-0.51,0.26-0.51,0.51C69.33,83.55,69.57,83.72,69.84,83.76L69.84,83.76z"/>
            </g>
            <g>
                <path class="st5" d="M33.83,107.5c0,0.02,0.02,0.16,0.01,0.03c0,0.04,0.01,0.08,0.01,0.12c0,0.08,0,0.17,0,0.25     c0,0.04-0.03,0.28-0.01,0.16c-0.02,0.1-0.03,0.2-0.06,0.3c-0.08,0.36-0.19,0.71-0.29,1.07c-0.2,0.74-0.31,1.55,0.21,2.19     c0.28,0.35,0.71,0.55,1.13,0.69c0.52,0.17,1.07,0.25,1.61,0.17c0.9-0.13,1.65-0.76,2.11-1.52c0.48-0.8,0.66-1.76,0.5-2.68     c-0.07-0.41-0.24-0.83-0.48-1.17c-0.26-0.36-0.6-0.59-1.01-0.76c-0.83-0.34-1.78-0.38-2.66-0.25c-0.39,0.06-0.79,0.17-1.14,0.37     c-0.39,0.23-0.62,0.57-0.75,0.99c-0.36,1.13,0.2,2.27,1.03,3.03c0.82,0.75,1.87,1.27,2.97,1.41c0.28,0.03,0.51-0.26,0.51-0.51     c0-0.31-0.24-0.48-0.51-0.51c0.12,0.02-0.04-0.01-0.05-0.01c-0.05-0.01-0.1-0.02-0.14-0.03c-0.08-0.02-0.17-0.04-0.25-0.06     c-0.18-0.05-0.4-0.13-0.52-0.19c-0.36-0.16-0.76-0.4-1.04-0.61c-0.33-0.26-0.62-0.56-0.81-0.88c-0.19-0.31-0.28-0.61-0.27-0.95     c0-0.04,0-0.07,0.01-0.11c0.02-0.17-0.02,0.09,0.01-0.08c0.02-0.09,0.04-0.18,0.08-0.27c0.02-0.06,0.05-0.1,0.09-0.18     c0.01-0.03,0.06-0.06-0.02,0.03c0.03-0.03,0.07-0.06,0.09-0.1c0.05-0.06,0,0-0.02,0.01c0.03-0.02,0.06-0.04,0.09-0.06     c0.06-0.04,0.11-0.06,0.17-0.09c0.12-0.06-0.1,0.04,0.03-0.01c0.04-0.02,0.08-0.03,0.12-0.04c0.09-0.03,0.18-0.05,0.26-0.07     c0.62-0.15,1.41-0.13,2.05,0.05c0.08,0.02,0.15,0.04,0.23,0.07c0.04,0.02,0.09,0.03,0.13,0.05c-0.11-0.04,0.03,0.01,0.04,0.02     c0.06,0.03,0.13,0.06,0.18,0.1c0.03,0.02,0.06,0.04,0.08,0.06c0.03,0.02,0.02,0.01-0.03-0.02c0.02,0.02,0.04,0.03,0.06,0.05     c0.04,0.04,0.09,0.08,0.13,0.13c-0.08-0.1,0.02,0.03,0.03,0.05c0.03,0.04,0.05,0.08,0.08,0.13c0.11,0.19,0.12,0.21,0.18,0.42     c0.03,0.09,0.04,0.18,0.06,0.27c0,0.02,0.02,0.13,0.01,0.04c0.01,0.05,0.01,0.1,0.01,0.15c0.01,0.18,0.01,0.37-0.01,0.55     c-0.02,0.16,0.02-0.1-0.01,0.06c-0.01,0.04-0.01,0.08-0.02,0.13c-0.02,0.09-0.04,0.18-0.07,0.27c-0.05,0.19-0.11,0.34-0.16,0.45     c-0.08,0.17-0.17,0.33-0.28,0.48c0.01-0.01-0.09,0.12-0.05,0.07c0.04-0.05-0.06,0.07-0.05,0.06c-0.06,0.07-0.13,0.15-0.2,0.21     c-0.21,0.2-0.5,0.37-0.79,0.45c-0.04,0.01-0.26,0.05-0.18,0.04c-0.08,0.01-0.17,0.01-0.25,0.01c-0.26,0-0.36-0.03-0.62-0.09     c-0.17-0.04-0.44-0.13-0.52-0.17c-0.07-0.04-0.14-0.08-0.21-0.12c-0.02-0.01-0.13-0.1-0.04-0.02c-0.04-0.03-0.08-0.07-0.12-0.11     c-0.02-0.02-0.03-0.04-0.05-0.06c0.09,0.1-0.01-0.02-0.02-0.05c-0.01-0.02-0.02-0.04-0.03-0.06c-0.04-0.07,0.02,0.09-0.01-0.04     c-0.01-0.05-0.04-0.25-0.03-0.11c0-0.07-0.01-0.15-0.01-0.22c0-0.04,0-0.08,0.01-0.11c0-0.01,0.02-0.17,0.01-0.09     c-0.01,0.09,0.01-0.04,0.01-0.05c0.01-0.05,0.02-0.11,0.03-0.16c0.04-0.17,0.08-0.33,0.13-0.5c0.21-0.75,0.45-1.52,0.29-2.31     c-0.05-0.27-0.38-0.43-0.63-0.36C33.91,106.95,33.78,107.23,33.83,107.5L33.83,107.5z"/>
            </g>
            <g>
                <path class="st5" d="M26.06,101.08c-0.41-0.67-1.04-0.98-1.82-0.85c-0.17,0.03-0.32,0.2-0.36,0.36     c-0.27,1.18-0.43,2.65,0.17,3.76c0.52,0.96,1.83,1.45,2.86,1.6c0.6,0.09,1.22,0.08,1.77-0.19c0.47-0.23,0.77-0.68,0.86-1.19     c0.19-1.08-0.1-2.35-0.63-3.29c-0.33-0.58-0.89-0.99-1.55-1.11c-0.74-0.13-1.5,0-2.24,0c0,0.34,0,0.68,0,1.03     c0.64-0.02,1.26,0.06,1.88,0.22c0.61,0.15,1.22,0.33,1.84,0.43c0.27,0.05,0.55-0.07,0.63-0.36c0.07-0.25-0.08-0.59-0.36-0.63     c-0.65-0.11-1.27-0.29-1.9-0.45c-0.68-0.17-1.38-0.26-2.08-0.24c-0.66,0.02-0.66,1.03,0,1.03c0.58,0,1.16-0.08,1.73-0.05     c0.42,0.02,0.8,0.14,1.05,0.46c0.06,0.08,0.18,0.29,0.24,0.43c0.01,0.02,0.02,0.04,0.03,0.07c0-0.01-0.03-0.06,0-0.01     c0.02,0.06,0.04,0.11,0.07,0.17c0.04,0.11,0.08,0.22,0.11,0.33c0.15,0.49,0.23,0.88,0.23,1.36c0,0.1,0,0.21-0.02,0.31     c-0.01,0.06,0,0,0-0.01c0,0.02-0.01,0.05-0.01,0.07c-0.01,0.05-0.02,0.11-0.04,0.16c-0.01,0.02-0.06,0.16-0.03,0.11     c0.02-0.05-0.03,0.05-0.04,0.07c-0.01,0.02-0.08,0.11-0.04,0.06c0.04-0.04-0.06,0.05-0.07,0.06c0.08-0.07-0.17,0.1-0.14,0.08     c0.04-0.02-0.07,0.03-0.09,0.03c-0.05,0.02-0.11,0.03-0.16,0.04c-0.02,0.01-0.14,0.03-0.06,0.02c-0.06,0.01-0.12,0.01-0.18,0.02     c-0.12,0.01-0.24,0-0.35,0c-0.23-0.01-0.4-0.05-0.66-0.11c-0.21-0.05-0.51-0.15-0.65-0.21c-0.21-0.09-0.41-0.2-0.6-0.32     c-0.05-0.03-0.1-0.06-0.14-0.1c0.06,0.05-0.02-0.02-0.04-0.04c-0.07-0.06-0.14-0.13-0.2-0.2c-0.03-0.04,0.01,0.01,0.01,0.02     c-0.03-0.04-0.05-0.07-0.07-0.11c-0.03-0.05-0.06-0.11-0.09-0.17c0.02,0.04-0.03-0.09-0.04-0.11c-0.02-0.06-0.04-0.13-0.06-0.2     c-0.07-0.29-0.09-0.53-0.1-0.83c-0.01-0.61,0.05-1.15,0.19-1.72c-0.12,0.12-0.24,0.24-0.36,0.36c0.12-0.02,0.26,0.01,0.33,0.05     c0.13,0.06,0.23,0.19,0.32,0.34C25.52,102.16,26.41,101.64,26.06,101.08L26.06,101.08z"/>
            </g>
        </g>
    </g>
    </svg>