<svg xmlns="http://www.w3.org/2000/svg" xmlns:xlink="http://www.w3.org/1999/xlink" version="1.1" id="Layer_1" x="0px" y="0px" viewBox="0 0 200 200" style="enable-background:new 0 0 200 200;" xml:space="preserve">
    <style type="text/css">
        .st0{fill:#BEE8FF;}
        .st1{fill:#FFFFFF;}
        .st2{fill:#1C1C1B;}
    </style>
    <g>
        <polygon class="st0" points="49.46,61.49 71.47,81.61 50.72,115.57 7.33,89.16 43.17,58.35  "/>
        <polygon class="st0" points="157.56,55.37 194.33,88.39 149.82,116.7 128.53,80.3 151.11,58.74  "/>
        <path class="st1" d="M71.47,81.61l8.18,2.51l9.43-4.4c0,0,0-7.54,3.78-5.66c3.78,1.88,7.54,3.78,7.54,3.78s10.06,0.63,11.94,1.26   s4.4,1.26,2.51,4.4c-1.89,3.14,1.26,3.78,5.66,1.89c4.4-1.89,7.54-3.78,7.54-3.78l19.49,29.55l-12.58,5.03c0,0,1.26,10.06,0,14.47   c-1.26,4.4-8.18,2.51-8.18,2.51s2.51,5.03-0.63,5.03c-3.14,0-7.54-1.26-7.54-1.26l-3.78,1.89l-8.18-3.78l-2.51-3.14l0.63,6.29   l-4.4,3.78l-6.29-0.63l-6.29,3.14l-6.92-1.89c0,0-7.54,0.63-8.18-1.89c-0.63-2.51-1.89-5.03-1.89-5.03l-5.66-7.54l-5.03-5.03   l1.89-6.92l-11.3-6.29L71.47,81.61z"/>
        <g>
            <g>
                <path class="st2" d="M61.72,118.39c0.2-0.02,0.4-0.01,0.6,0.02c0.06,0,0.13-0.01,0.19-0.04c0.06-0.02,0.11-0.05,0.15-0.1     c0.04-0.04,0.08-0.1,0.1-0.15c0.03-0.05,0.04-0.12,0.04-0.19c-0.01-0.13-0.04-0.25-0.14-0.34c-0.04-0.03-0.06-0.05-0.1-0.07     c-0.07-0.04-0.15-0.06-0.24-0.06c-0.2-0.03-0.4-0.04-0.6-0.02c-0.06,0-0.13,0.01-0.19,0.04c-0.06,0.02-0.11,0.05-0.15,0.1     c-0.04,0.04-0.08,0.1-0.1,0.15c-0.03,0.05-0.04,0.12-0.04,0.19c0.01,0.13,0.04,0.25,0.14,0.34     C61.47,118.33,61.6,118.39,61.72,118.39L61.72,118.39z"/>
            </g>
            <g>
                <path class="st2" d="M64.4,117.41c0.96-0.39,1.8-0.98,2.73-1.41c0.48-0.22,1.03-0.37,1.54-0.55c0.52-0.19,1.04-0.38,1.56-0.57     c2.08-0.79,4.12-1.64,6.17-2.5c0.98-0.41,1.94-0.89,2.95-1.22c0.86-0.27,1.79-0.51,2.69-0.37c1.49,0.24,2.42,1.51,2.5,2.93     c0.04,0.71-0.07,1.41-0.38,2.06c-0.38,0.81-1.02,1.49-1.66,2.12c-0.71,0.69-1.46,1.32-2.12,2.06c-0.65,0.72-1.46,1.28-2.25,1.83     c-0.79,0.56-1.59,1.12-2.29,1.79c-0.15,0.14-0.29,0.32-0.46,0.43c-0.22,0.13-0.45,0.27-0.68,0.4c-0.43,0.24-0.88,0.47-1.32,0.68     c-1.78,0.82-3.7,1.35-5.65,1.53c-0.5,0.04-1.01,0.04-1.51,0.07c-0.45,0.03-0.88,0.06-1.32-0.04c-0.83-0.17-1.75-0.63-2.24-1.35     c-0.22-0.34-0.34-0.69-0.49-1.07c-0.2-0.48-0.38-0.98-0.55-1.48c-0.31-0.98-0.55-1.98-0.61-3.01c-0.01-0.21-0.04-0.47,0.01-0.64     c0.05-0.19,0.15-0.37,0.21-0.56c0.17-0.6-0.76-0.85-0.93-0.26c-0.06,0.21-0.16,0.39-0.21,0.59c-0.07,0.25-0.04,0.53-0.04,0.79     c0.03,0.56,0.1,1.13,0.21,1.67c0.21,1.08,0.57,2.13,0.98,3.15c0.17,0.42,0.31,0.86,0.55,1.24c0.28,0.45,0.65,0.81,1.09,1.09     c0.85,0.55,1.84,0.89,2.86,0.86c2.13-0.05,4.23-0.31,6.25-1c1-0.34,1.98-0.77,2.92-1.28c0.45-0.24,0.99-0.48,1.35-0.86     c0.34-0.37,0.72-0.69,1.11-1c0.81-0.64,1.66-1.18,2.47-1.82c0.83-0.64,1.52-1.43,2.28-2.15c1.37-1.28,2.91-2.6,3.28-4.54     c0.3-1.55-0.07-3.32-1.35-4.35c-0.77-0.63-1.73-0.93-2.72-0.89c-1.03,0.04-2.08,0.32-3.02,0.72c-2.13,0.9-4.25,1.82-6.4,2.67     c-1.08,0.43-2.16,0.85-3.27,1.24c-0.55,0.2-1.12,0.37-1.66,0.58c-0.51,0.2-0.99,0.48-1.47,0.75c-0.46,0.26-0.9,0.53-1.39,0.72     c-0.24,0.1-0.41,0.32-0.34,0.59C63.87,117.3,64.16,117.51,64.4,117.41L64.4,117.41z"/>
            </g>
            <g>
                <path class="st2" d="M65.63,127.27c0.06,0.92,0.06,1.86,0.24,2.77c0.18,0.93,0.59,1.78,1.21,2.5c0.61,0.7,1.4,1.23,2.29,1.49     c0.82,0.24,1.69,0.26,2.54,0.21c0.93-0.05,1.85-0.16,2.78-0.2c1.09-0.04,2.19-0.04,3.28-0.18c1.09-0.14,2.11-0.44,3.1-0.94     c0.9-0.46,1.73-1.04,2.53-1.66c0.81-0.62,1.58-1.27,2.41-1.87c0.74-0.54,1.42-1.12,1.99-1.84c0.61-0.77,1.12-1.61,1.68-2.4     c0.62-0.86,1.26-1.72,1.74-2.67c0.37-0.72,0.73-1.47,1-2.24c0.26-0.73,0.43-1.57,0.21-2.33c-0.38-1.35-1.8-1.89-3.07-2.06     c-1.35-0.19-2.76-0.09-4.07,0.29c-1.16,0.33-2.42,0.92-3.07,2c-0.14,0.24-0.26,0.5-0.32,0.77c-0.14,0.6,0.78,0.86,0.93,0.26     c0.02-0.06,0.03-0.12,0.05-0.18c0.01-0.02,0.06-0.16,0.04-0.12c-0.02,0.04,0.04-0.1,0.06-0.13c0.04-0.06,0.06-0.12,0.11-0.18     c0.03-0.04,0.06-0.09,0.1-0.13c-0.05,0.07,0.04-0.04,0.05-0.06c0.08-0.1,0.18-0.19,0.27-0.28c0.13-0.12,0.13-0.13,0.23-0.19     c0.12-0.09,0.24-0.17,0.38-0.24c0.12-0.06,0.22-0.13,0.34-0.18c0.14-0.07,0.24-0.12,0.34-0.15c1.17-0.47,2.35-0.64,3.59-0.59     c0.15,0.01,0.31,0.02,0.47,0.03c0.17,0.02,0.26,0.03,0.37,0.04c0.26,0.04,0.52,0.09,0.78,0.17c0.13,0.04,0.25,0.08,0.37,0.13     c0.03,0.01,0.05,0.02,0.08,0.03c-0.02-0.01-0.09-0.04,0,0c0.06,0.03,0.12,0.05,0.18,0.09c0.23,0.12,0.45,0.27,0.61,0.47     c0.4,0.48,0.38,1.14,0.22,1.74c-0.17,0.71-0.49,1.36-0.81,2.01c-0.4,0.84-0.86,1.62-1.4,2.38c-0.56,0.8-1.12,1.59-1.66,2.4     c-0.45,0.66-0.95,1.28-1.55,1.8c-0.7,0.61-1.49,1.14-2.22,1.71c-1.46,1.15-2.97,2.39-4.79,2.92c-1.9,0.55-3.93,0.37-5.87,0.53     c-1.51,0.13-3.21,0.38-4.59-0.44c-0.73-0.44-1.33-1.13-1.67-1.91c-0.31-0.72-0.39-1.5-0.44-2.27c-0.03-0.43-0.04-0.85-0.07-1.28     C66.55,126.65,65.59,126.64,65.63,127.27L65.63,127.27z"/>
            </g>
            <g>
                <path class="st2" d="M69.46,135.51c0.12,1.6,0.44,3.18,1.41,4.49c1.08,1.47,2.62,2.56,4.32,3.18c1.86,0.68,3.86,0.43,5.73-0.11     c0.9-0.26,1.77-0.62,2.66-0.92c0.91-0.31,1.74-0.71,2.42-1.41c0.62-0.64,1.08-1.4,1.72-2.02c0.46-0.45,0.94-0.86,1.4-1.29     c1.09-1.04,2.15-2.12,3.13-3.26c1.06-1.22,2.05-2.51,2.85-3.91c0.73-1.26,1.32-2.64,1.51-4.1c0.16-1.31-0.03-2.87-1.19-3.69     c-0.96-0.67-2.26-0.58-3.36-0.5c-0.29,0.02-0.56,0.04-0.85,0.06c-0.62,0.04-0.62,1,0,0.97c0.55-0.04,1.11-0.09,1.66-0.11     c0.56-0.02,0.99-0.01,1.49,0.13c0.05,0.02,0.12,0.04,0.17,0.05c0.03,0.01,0.05,0.02,0.08,0.04c-0.08-0.04-0.01,0,0.01,0     c0.11,0.05,0.21,0.12,0.32,0.19c0.09,0.06,0-0.01,0.07,0.06c0.04,0.04,0.09,0.08,0.13,0.13c0.03,0.03,0.11,0.12,0.1,0.11     c0,0,0.07,0.11,0.1,0.15c0.3,0.48,0.38,1.15,0.37,1.75c-0.02,1.23-0.48,2.49-1.06,3.61c-0.68,1.32-1.55,2.54-2.49,3.69     c-0.93,1.15-1.94,2.23-3,3.26c-0.96,0.94-2.03,1.79-2.86,2.84c-0.5,0.64-0.99,1.33-1.69,1.77c-0.73,0.46-1.6,0.66-2.4,0.97     c-1.7,0.64-3.56,1.19-5.39,0.98c-1.63-0.19-3.24-1.13-4.38-2.26c-0.53-0.52-0.98-1.1-1.3-1.76c-0.3-0.62-0.47-1.3-0.59-1.98     c-0.05-0.36-0.09-0.72-0.12-1.09c-0.02-0.26-0.21-0.48-0.48-0.48C69.69,135.03,69.44,135.25,69.46,135.51L69.46,135.51z"/>
            </g>
            <g>
                <path class="st2" d="M79.44,142.86c-0.09,0.78,0.14,1.57,0.75,2.08c0.57,0.49,1.32,0.72,2.05,0.84c1.69,0.27,3.55,0.2,5.14-0.48     c1.01-0.44,1.91-1.1,2.72-1.84c0.91-0.83,1.78-1.75,2.59-2.68c0.84-0.96,1.49-2.04,2.29-3.03c0.38-0.48,0.79-0.97,1.12-1.49     c0.31-0.48,0.55-0.99,0.77-1.53c0.47-1.16,0.69-2.44,0.15-3.61c-0.46-1-1.43-1.99-2.61-1.93c-0.62,0.04-0.62,0.99,0,0.97     c0.79-0.04,1.41,0.68,1.74,1.37c0.4,0.84,0.2,1.81-0.1,2.66c-0.36,1-0.94,1.86-1.6,2.69c-0.37,0.47-0.75,0.92-1.08,1.41     c-0.31,0.46-0.62,0.91-0.97,1.34c-0.75,0.91-1.58,1.76-2.42,2.59c-0.71,0.71-1.47,1.37-2.33,1.86c-0.83,0.47-1.76,0.78-2.72,0.83     c-0.63,0.04-1.25,0.04-1.87,0c-0.65-0.04-1.41-0.18-1.97-0.51c-0.07-0.04-0.14-0.09-0.21-0.14c0.07,0.05,0,0-0.02-0.02     c-0.04-0.04-0.07-0.06-0.11-0.1c-0.02-0.02-0.04-0.04-0.05-0.06s-0.04-0.04-0.05-0.06c0.04,0.04,0.04,0.04,0,0     c-0.04-0.06-0.08-0.13-0.12-0.2c-0.01-0.02-0.05-0.11-0.02-0.02c-0.02-0.04-0.04-0.08-0.04-0.13c-0.03-0.09-0.05-0.18-0.06-0.27     c0.01,0.08,0-0.02,0-0.04c0-0.06-0.01-0.12-0.01-0.18c0-0.11,0.01-0.22,0.02-0.33c0.03-0.26-0.24-0.48-0.48-0.48     C79.63,142.38,79.47,142.6,79.44,142.86L79.44,142.86z"/>
            </g>
            <g>
                <path class="st2" d="M93.34,85.4c-0.57-1.49-1.7-2.65-2.41-4.05c-0.69-1.37-1.02-2.91-0.99-4.44c0-0.13,0.01-0.24,0.02-0.37     c0.01-0.09-0.01,0.02,0.01-0.06c0.01-0.06,0.02-0.13,0.04-0.19c0.03-0.1,0.05-0.21,0.09-0.3c0.01-0.03,0.05-0.14,0.04-0.1     c-0.02,0.04,0.04-0.08,0.05-0.12c0.04-0.08,0.1-0.16,0.14-0.24c0.06-0.09-0.02,0.02,0.03-0.04c0.04-0.04,0.07-0.08,0.1-0.12     c0.05-0.06,0.12-0.12,0.18-0.17c0.09-0.08-0.03,0.02,0.04-0.04c0.04-0.03,0.08-0.06,0.13-0.09c0.08-0.04,0.16-0.09,0.24-0.13     c0.04-0.02,0.07-0.04,0.11-0.05c0.08-0.04,0.01-0.01,0,0c0.03-0.01,0.05-0.02,0.07-0.03c0.19-0.07,0.38-0.13,0.58-0.16     c0.05-0.01,0.1-0.02,0.15-0.03c0.08-0.02-0.05,0,0.06-0.01c0.11-0.01,0.22-0.02,0.33-0.03c0.21-0.01,0.43-0.01,0.64,0     c0.47,0.03,0.79,0.08,1.28,0.19c0.45,0.11,0.89,0.24,1.32,0.41c0.05,0.02,0.11,0.04,0.15,0.06c0.09,0.04,0.01,0,0.08,0.04     c0.1,0.04,0.2,0.09,0.3,0.13c0.2,0.09,0.38,0.2,0.57,0.3c0.17,0.1,0.33,0.2,0.48,0.31c0.04,0.03,0.07,0.05,0.11,0.08     c0.07,0.05-0.04-0.04,0.04,0.03c0.13,0.12,0.27,0.23,0.4,0.35c1.22,1.12,2.2,2.48,3.44,3.58c1.22,1.07,2.61,1.94,3.83,3.02     c1.13,1.01,2.12,2.22,3.44,3.01c0.47,0.29,0.98,0.48,1.46,0.74c0.45,0.23,0.85,0.49,1.09,0.9c0.13,0.23,0.21,0.48,0.24,0.76     c0.04,0.26,0.37,0.4,0.59,0.34c0.28-0.07,0.38-0.33,0.34-0.59c-0.09-0.63-0.39-1.22-0.88-1.64c-0.44-0.38-0.95-0.64-1.47-0.89     c-0.56-0.27-1.1-0.56-1.59-0.96c-0.64-0.51-1.2-1.08-1.78-1.66c-0.59-0.57-1.2-1.1-1.85-1.6c-0.66-0.51-1.34-0.99-2-1.52     c-0.68-0.55-1.32-1.13-1.91-1.76c-0.59-0.64-1.14-1.3-1.74-1.91c-0.76-0.78-1.57-1.4-2.56-1.84c-0.93-0.41-1.91-0.69-2.92-0.81     c-0.92-0.11-1.89-0.06-2.76,0.31c-0.82,0.36-1.42,1.06-1.64,1.93c-0.16,0.63-0.13,1.28-0.08,1.91c0.06,0.83,0.21,1.66,0.47,2.46     c0.26,0.79,0.61,1.55,1.04,2.25c0.43,0.7,0.93,1.35,1.36,2.06c0.2,0.32,0.39,0.65,0.53,1.01c0.09,0.24,0.32,0.41,0.59,0.34     C93.23,85.93,93.44,85.64,93.34,85.4L93.34,85.4z"/>
            </g>
            <g>
                <path class="st2" d="M109.12,86.6c1.96,0.11,3.93-0.03,5.86-0.37c1.68-0.3,3.32-0.72,4.89-1.37c2.98-1.23,5.62-3.1,8.02-5.23     c2.42-2.14,4.63-4.52,6.87-6.83c1.42-1.47,2.8-2.99,4.22-4.46c1.42-1.49,2.84-2.96,4.26-4.45c0.71-0.74,1.41-1.49,2.11-2.25     c0.71-0.76,1.33-1.6,1.98-2.41c0.13-0.16,0.24-0.28,0.41-0.39c0.22-0.15,0.38-0.3,0.55-0.52c0.27-0.36,0.54-0.71,0.83-1.05     c0.57-0.68,1.19-1.32,1.83-1.94c0.31-0.3,0.64-0.6,0.95-0.89c0.46-0.42-0.22-1.1-0.68-0.68c-1.32,1.22-2.57,2.5-3.65,3.94     c-0.12,0.16-0.21,0.25-0.37,0.36c-0.19,0.13-0.35,0.25-0.48,0.43c-0.33,0.41-0.66,0.82-0.99,1.23c-0.33,0.41-0.65,0.82-1.01,1.22     c-0.35,0.38-0.69,0.74-1.04,1.12c-2.78,2.97-5.64,5.87-8.42,8.84c-2.26,2.42-4.55,4.86-6.98,7.12c-2.28,2.13-4.76,4.08-7.58,5.45     c-3.14,1.53-6.71,2.23-10.19,2.24c-0.47,0-0.93-0.01-1.4-0.04C108.5,85.61,108.5,86.56,109.12,86.6L109.12,86.6z"/>
            </g>
            <g>
                <path class="st2" d="M77.53,83.94c0.76-0.04,1.51-0.12,2.26-0.26c0.37-0.07,0.73-0.16,1.09-0.28c0.17-0.05,0.35-0.11,0.52-0.18     c0.2-0.09,0.38-0.21,0.58-0.31c1.35-0.7,2.84-1.12,4.27-1.64c0.84-0.3,1.68-0.63,2.51-0.95c0.24-0.1,0.41-0.32,0.34-0.59     c-0.06-0.23-0.35-0.43-0.59-0.34c-1.43,0.56-2.87,1.09-4.32,1.59c-0.73,0.25-1.46,0.52-2.16,0.84c-0.34,0.15-0.65,0.35-0.98,0.51     c-0.31,0.15-0.69,0.23-1.03,0.31c-0.81,0.2-1.64,0.28-2.47,0.32C76.91,83.01,76.91,83.98,77.53,83.94L77.53,83.94z"/>
            </g>
            <g>
                <path class="st2" d="M98.28,76.87c0.62,0,0.62-0.97,0-0.97C97.65,75.91,97.65,76.87,98.28,76.87L98.28,76.87z"/>
            </g>
            <g>
                <path class="st2" d="M99.33,78.29c0.93-0.05,1.86-0.21,2.8-0.21c0.97,0,1.89,0.3,2.83,0.47c1.01,0.2,2,0.3,3.04,0.26     c0.92-0.04,1.88-0.16,2.79,0.01c0.66,0.13,1.3,0.41,1.91,0.66c0.5,0.21,1.11,0.5,1.6,0.84c0.2,0.13,0.41,0.32,0.6,0.54     c0.09,0.1,0.12,0.13,0.2,0.27c0.04,0.05,0.07,0.12,0.1,0.18c0.04,0.09,0.04,0.09,0.06,0.14c0.21,0.59,0.14,1.21-0.26,1.76     c-0.28,0.38-0.63,0.71-0.95,1.04c-0.27,0.27-0.61,0.39-0.98,0.48c-0.85,0.2-1.72,0.27-2.34,0.95c-0.42,0.46,0.26,1.14,0.68,0.68     c0.51-0.55,1.32-0.55,2.01-0.72c0.41-0.11,0.8-0.28,1.13-0.55c0.33-0.27,0.64-0.63,0.92-0.95c0.58-0.66,0.96-1.41,0.86-2.32     c-0.07-0.69-0.39-1.3-0.88-1.78c-0.92-0.93-2.22-1.39-3.41-1.84c-0.93-0.36-1.88-0.46-2.86-0.41c-1.02,0.04-2.04,0.14-3.06,0     c-0.6-0.08-1.19-0.21-1.77-0.34c-0.56-0.13-1.12-0.27-1.69-0.31c-1.11-0.08-2.22,0.13-3.33,0.2     C98.72,77.36,98.72,78.32,99.33,78.29L99.33,78.29z"/>
            </g>
            <g>
                <path class="st2" d="M76.8,84.91c1.91,0.27,3.84,0.3,5.74,0.63c1.01,0.17,2.01,0.35,3.02,0.47c1.01,0.12,2.02,0.2,3.04,0.25     c1.95,0.1,3.91,0.11,5.86,0.12c0.98,0.01,1.97,0.01,2.96,0.04c0.92,0.02,1.83,0.08,2.76,0.13c0.47,0.03,0.92,0.04,1.38,0.08     c0.45,0.04,0.89,0.1,1.33,0.16c0.97,0.14,1.92,0.31,2.88,0.53c1.57,0.34,3.1,0.74,4.57,1.42c2.71,1.26,5.03,3.17,7.09,5.31     c2.09,2.16,3.95,4.54,5.84,6.88c0.23,0.29,0.47,0.56,0.7,0.85c0.17,0.2,0.51,0.17,0.68,0c0.2-0.2,0.17-0.48,0-0.68     c-1.93-2.33-3.77-4.74-5.82-6.97c-2.05-2.22-4.34-4.27-7-5.71c-1.37-0.74-2.84-1.32-4.36-1.7c-1.84-0.46-3.73-0.81-5.62-1.01     c-0.93-0.1-1.86-0.13-2.8-0.2c-0.96-0.06-1.91-0.06-2.87-0.08c-1.97-0.03-3.94-0.01-5.9-0.06c-2-0.05-4.02-0.19-6-0.48     c-1-0.15-1.99-0.35-3-0.47c-0.97-0.11-1.94-0.18-2.91-0.27c-0.45-0.04-0.89-0.09-1.33-0.15c-0.26-0.04-0.52,0.06-0.59,0.34     C76.4,84.54,76.54,84.87,76.8,84.91L76.8,84.91z"/>
            </g>
            <g>
                <path class="st2" d="M124.5,102.08c-0.19-0.12-0.27-0.22-0.27-0.44c-0.24,0.14-0.48,0.28-0.72,0.42c0.81,0.55,1.39,1.4,1.93,2.19     c0.57,0.85,1.13,1.7,1.73,2.53c0.73,1.01,1.35,2.1,1.97,3.18c0.6,1.06,1.22,2.11,1.86,3.14c0.64,1.04,1.28,2.1,1.68,3.27     c0.42,1.22,0.59,2.5,0.91,3.74c0.16,0.64,0.38,1.24,0.57,1.86c0.19,0.62,0.35,1.24,0.49,1.87c0.3,1.28,0.55,2.58,0.81,3.86     c0.22,1.06,0.53,2.09,0.72,3.15c0.13,0.76,0.2,1.57-0.2,2.21c-0.44,0.72-1.4,1.06-2.21,1.25c-0.88,0.21-1.85,0.18-2.67-0.25     c-0.39-0.21-0.77-0.52-1.04-0.89c-0.27-0.38-0.43-0.82-0.56-1.27c-0.29-0.98-0.43-2-0.8-2.96c-0.87-2.27-2.31-4.25-3.44-6.38     c-1.23-2.31-2.32-4.69-3.59-6.98c-1.24-2.25-2.76-4.31-4.29-6.37c-0.38-0.5-0.75-1-1.12-1.51c-0.15-0.21-0.42-0.31-0.66-0.17     c-0.22,0.13-0.3,0.43-0.17,0.66c1.13,1.97,2.54,3.74,3.85,5.58c0.65,0.92,1.28,1.85,1.83,2.84c0.59,1.06,1.06,2.2,1.55,3.32     c1.01,2.33,1.95,4.69,3.01,7c0.47,1.02,0.98,2.02,1.43,3.06c0.42,0.97,0.81,2.01,0.89,3.08c0.08,0.92-0.13,1.76-0.48,2.61     c-0.07,0.17-0.15,0.34-0.24,0.5c-0.04,0.07-0.08,0.15-0.13,0.21c-0.08,0.12,0.1-0.09-0.04,0.05c-0.04,0.04-0.09,0.1-0.14,0.13     c-0.33,0.24-0.79,0.3-1.18,0.35c-1.1,0.16-2.14,0.56-3.26,0.59c-0.51,0.01-1.04-0.01-1.51-0.2c-0.33-0.13-0.6-0.35-0.85-0.62     c-0.69-0.72-1.32-1.56-1.88-2.38c-0.65-0.97-1.23-1.99-1.81-3.01c-1.13-2-2.32-3.97-3.47-5.97c-1.15-1.98-2.34-3.95-3.81-5.71     c-0.72-0.87-1.49-1.7-2.19-2.59c-0.7-0.89-1.38-1.81-2.13-2.66c-0.37-0.41-0.76-0.81-1.16-1.18c-0.38-0.35-1.08,0.11-0.76,0.58     c0.65,0.95,1.46,1.75,2.29,2.55c0.85,0.81,1.67,1.65,2.45,2.52c1.62,1.83,3.13,3.75,4.6,5.69c1.45,1.92,2.84,3.91,4.04,5.99     c1.11,1.91,2.33,4.04,2.44,6.31c0.04,0.89-0.08,1.94-0.69,2.6c-0.5,0.55-1.2,0.79-1.94,0.9c-0.75,0.11-1.64,0.06-2.39-0.05     c-0.98-0.14-1.96-0.4-2.84-0.88c-0.85-0.45-1.66-1.07-2.31-1.78c-0.31-0.35-0.5-0.75-0.67-1.19c-0.22-0.55-0.47-1.08-0.74-1.61     c-0.55-1.06-1.15-2.1-1.75-3.12c-0.62-1.03-1.32-2-2.04-2.96c-1.51-2.01-2.93-4.08-4.31-6.19c-0.64-0.99-1.29-1.99-1.94-2.98     c-0.63-0.95-1.27-1.89-2-2.75c-0.34-0.4-0.71-0.79-1.1-1.14c-0.2,0.25-0.39,0.5-0.58,0.76c0.74,0.54,1.26,1.46,1.73,2.25     c0.25,0.43,0.5,0.88,0.76,1.31c0.3,0.49,0.63,0.97,0.92,1.46c0.66,1.11,1.23,2.26,1.79,3.44c0.55,1.19,1.11,2.38,1.63,3.59     c0.5,1.18,0.9,2.41,1.4,3.6c0.25,0.61,0.52,1.21,0.82,1.79c0.28,0.53,0.57,1.05,0.84,1.58c0.26,0.53,0.46,1.08,0.61,1.66     c0.13,0.48,0.33,0.95,0.49,1.43c0.07,0.21,0.14,0.43,0.17,0.65c0.03,0.18,0.02,0.29-0.05,0.48c-0.11,0.28-0.43,0.61-0.72,0.84     c-0.83,0.66-1.73,1-2.72,1.26c-1.35,0.36-2.75,0.43-4.13,0.5c-0.62,0.04-0.62,0.99,0,0.97c2.34-0.13,4.78-0.3,6.83-1.55     c0.8-0.49,1.67-1.2,1.77-2.19c0.05-0.5-0.14-1.03-0.3-1.49c-0.19-0.53-0.35-1.05-0.51-1.57c-0.38-1.23-1.06-2.3-1.63-3.44     c-0.6-1.21-1.03-2.48-1.51-3.73c-0.49-1.28-1.07-2.52-1.64-3.77c-0.55-1.23-1.13-2.45-1.78-3.63c-0.64-1.16-1.38-2.25-2.04-3.4     c-0.6-1.03-1.23-2.13-2.21-2.84c-0.45-0.32-0.98,0.39-0.58,0.76c1.69,1.52,2.85,3.53,4.08,5.42c1.42,2.17,2.83,4.37,4.38,6.46     c0.73,0.98,1.49,1.96,2.17,2.98c0.69,1.03,1.28,2.11,1.88,3.19c0.3,0.52,0.57,1.06,0.83,1.59c0.24,0.52,0.42,1.08,0.71,1.58     c0.49,0.87,1.37,1.56,2.17,2.12c1.64,1.15,3.71,1.65,5.69,1.64c0.88-0.01,1.77-0.14,2.56-0.54c0.81-0.4,1.38-1.1,1.66-1.95     c0.75-2.25-0.18-4.72-1.19-6.74c-1.11-2.21-2.44-4.3-3.87-6.31c-1.45-2.03-2.99-4.01-4.57-5.93c-0.81-0.98-1.64-1.95-2.51-2.87     c-0.8-0.84-1.67-1.6-2.48-2.43c-0.39-0.41-0.76-0.84-1.08-1.31c-0.25,0.2-0.5,0.39-0.76,0.58c1.74,1.58,3,3.59,4.54,5.35     c0.77,0.88,1.51,1.74,2.17,2.69c0.67,0.96,1.29,1.96,1.89,2.96c0.6,1.01,1.17,2.02,1.76,3.03c0.6,1.02,1.22,2.02,1.8,3.05     c0.59,1.05,1.16,2.09,1.8,3.11c0.62,0.98,1.32,1.89,2.06,2.78c0.56,0.69,1.19,1.28,2.08,1.49c1.21,0.29,2.5,0.08,3.68-0.25     c0.49-0.13,0.97-0.21,1.47-0.3c0.49-0.08,0.98-0.23,1.37-0.56c0.33-0.28,0.53-0.68,0.7-1.07c0.18-0.4,0.34-0.82,0.47-1.24     c0.63-2.22-0.4-4.53-1.34-6.49c-1.08-2.27-2.08-4.57-3.06-6.88c-0.97-2.28-1.87-4.62-3.21-6.71c-1.25-1.95-2.73-3.75-4.01-5.69     c-0.31-0.48-0.62-0.97-0.9-1.47c-0.28,0.16-0.55,0.32-0.83,0.48c1.56,2.13,3.19,4.2,4.57,6.46c1.41,2.3,2.54,4.77,3.77,7.17     c0.58,1.13,1.19,2.23,1.84,3.32c0.64,1.07,1.3,2.14,1.82,3.27c0.24,0.52,0.46,1.06,0.61,1.6c0.14,0.5,0.24,1.01,0.36,1.51     c0.25,1.04,0.6,2.07,1.41,2.8c1.61,1.44,4.09,1.31,5.88,0.26c0.85-0.5,1.38-1.29,1.5-2.26c0.12-0.92-0.12-1.87-0.33-2.76     c-0.62-2.55-1.02-5.16-1.75-7.68c-0.19-0.64-0.42-1.26-0.59-1.91c-0.17-0.65-0.3-1.31-0.44-1.96c-0.13-0.63-0.28-1.26-0.48-1.88     c-0.21-0.62-0.48-1.22-0.79-1.79c-0.59-1.14-1.32-2.18-1.96-3.29c-0.64-1.1-1.24-2.24-1.91-3.33c-0.61-0.98-1.32-1.9-1.95-2.86     c-0.6-0.91-1.18-1.83-1.9-2.66c-0.33-0.38-0.7-0.72-1.11-0.99c-0.3-0.21-0.72,0.07-0.72,0.42c0,0.55,0.29,0.98,0.75,1.27     C124.54,103.23,125.04,102.4,124.5,102.08L124.5,102.08z"/>
            </g>
            <g>
                <path class="st2" d="M134.01,119.38c1.91,0.2,3.08-1.6,4.45-2.58c1.92-1.38,4.08-2.4,6.16-3.5c1.27-0.67,2.54-1.35,3.82-2.01     c0.55-0.29,0.06-1.12-0.48-0.83c-2.16,1.12-4.31,2.25-6.46,3.39c-1,0.54-2,1.1-2.95,1.73c-0.79,0.52-1.46,1.14-2.16,1.76     c-0.67,0.6-1.44,1.17-2.37,1.07c-0.26-0.03-0.48,0.24-0.48,0.48C133.53,119.17,133.75,119.35,134.01,119.38L134.01,119.38z"/>
            </g>
            <g>
                <path class="st2" d="M93.41,140.13c0.07,0.55,0.44,1.01,0.81,1.4c0.17,0.19,0.35,0.36,0.51,0.55c0.02,0.03,0.04,0.04,0.06,0.07     c0.01,0.01,0.01,0.02,0.02,0.03c0.04,0.04,0.03,0.04-0.02-0.03c0,0.03,0.08,0.11,0.1,0.13c0.07,0.11,0.13,0.21,0.18,0.32     c0.1,0.23,0.46,0.3,0.66,0.17c0.24-0.15,0.28-0.41,0.17-0.66c-0.2-0.47-0.59-0.84-0.93-1.21c-0.08-0.09-0.16-0.18-0.24-0.27     c-0.02-0.02-0.08-0.13-0.11-0.13c0.04,0.05,0.05,0.06,0.02,0.03c-0.01-0.01-0.01-0.02-0.02-0.03c-0.02-0.03-0.04-0.05-0.05-0.07     c-0.04-0.05-0.06-0.1-0.09-0.15c-0.02-0.03-0.03-0.05-0.04-0.08c-0.01-0.01-0.01-0.03-0.02-0.04c-0.02-0.04-0.01-0.02,0.02,0.04     c0.01-0.04-0.04-0.13-0.05-0.17c-0.02-0.06-0.03-0.12-0.04-0.18c-0.04-0.25-0.37-0.41-0.59-0.34     C93.47,139.63,93.38,139.87,93.41,140.13L93.41,140.13z"/>
            </g>
            <g>
                <path class="st2" d="M82.81,117c0.02,0.11,0.03,0.21,0.04,0.32c0.3-0.08,0.6-0.16,0.89-0.24c-0.76-1.35-1.66-2.69-2.96-3.6     c-0.99-0.69-2.42-0.9-3.58-0.55c-2.76,0.87-2.11,4.88-0.64,6.62c0.44,0.52,1.05,0.91,1.71,1.07c0.75,0.18,1.53,0.08,2.26-0.16     c0.14-0.04,0.31-0.17,0.34-0.34c0.02-0.13,0.04-0.28,0.06-0.41c0.04-0.26-0.06-0.52-0.34-0.59c-0.22-0.06-0.55,0.08-0.59,0.34     c-0.02,0.13-0.04,0.28-0.06,0.41c0.12-0.12,0.22-0.22,0.34-0.34c-0.49,0.16-1.06,0.27-1.55,0.2s-0.89-0.27-1.23-0.6     c-0.76-0.72-1.11-1.74-1.2-2.76c-0.09-0.98,0.05-2.08,0.99-2.46c0.86-0.36,2.01-0.22,2.77,0.23c1.28,0.76,2.14,2.13,2.84,3.4     c0.21,0.38,0.97,0.25,0.89-0.24c-0.02-0.11-0.03-0.21-0.04-0.32c-0.04-0.26-0.2-0.48-0.48-0.48     C83.05,116.52,82.77,116.74,82.81,117L82.81,117z"/>
            </g>
            <g>
                <path class="st2" d="M90.83,122.65c-0.74-0.67-1.45-1.39-2.25-1.99c-0.72-0.55-1.63-1.03-2.57-0.86     c-1.13,0.21-1.71,1.37-2.08,2.33c-0.47,1.22-0.59,2.77,0.33,3.83c0.74,0.85,1.97,0.66,2.97,0.63c0.62-0.03,0.62-0.98,0-0.97     c-0.43,0.02-0.86,0.05-1.29,0.04c-0.32-0.01-0.58-0.04-0.84-0.22c0.07,0.05-0.05-0.04-0.05-0.04c-0.03-0.03-0.04-0.04-0.07-0.07     c-0.07-0.07-0.08-0.1-0.13-0.19c-0.13-0.21-0.21-0.44-0.26-0.68c-0.13-0.58-0.02-1.18,0.16-1.74c0.16-0.5,0.38-1.04,0.71-1.45     c0.1-0.13,0.27-0.29,0.36-0.35c0.17-0.12,0.21-0.13,0.41-0.18c0.09-0.02,0.03-0.01,0.01-0.01c0.04-0.01,0.09-0.01,0.13-0.01     c0.08,0,0.15,0,0.23,0.01c-0.08-0.01,0.12,0.03,0.15,0.04c0.1,0.03,0.2,0.05,0.29,0.09c0.1,0.04,0.3,0.14,0.44,0.22     c0.19,0.11,0.36,0.22,0.54,0.35c0.76,0.55,1.43,1.25,2.13,1.89C90.61,123.75,91.29,123.07,90.83,122.65L90.83,122.65z"/>
            </g>
            <g>
                <path class="st2" d="M94.81,127.22c-0.3-0.05-0.54-0.21-0.78-0.39c-0.27-0.19-0.53-0.37-0.81-0.51c-0.22-0.11-0.4-0.36-0.66-0.47     c-0.3-0.13-0.61-0.06-0.89,0.07c-0.5,0.23-0.92,0.67-1.28,1.07c-0.27,0.3-0.55,0.63-0.75,0.99c-0.41,0.72-0.62,1.56-0.72,2.38     c-0.1,0.8-0.05,1.67,0.32,2.41c0.48,0.93,1.49,1.16,2.44,0.96c0.61-0.13,0.35-1.06-0.26-0.93c-0.2,0.04-0.27,0.05-0.49,0.04     c-0.04,0-0.08,0-0.13-0.01c0.12,0.01-0.01,0-0.04-0.01c-0.09-0.02-0.17-0.04-0.25-0.07c0.12,0.04-0.06-0.04-0.09-0.05     c-0.03-0.02-0.04-0.04-0.07-0.04c0.1,0.07,0.01,0.01-0.01-0.01c-0.05-0.04-0.1-0.1-0.14-0.15c-0.08-0.09,0.05,0.09-0.01-0.02     c-0.03-0.04-0.05-0.08-0.08-0.13c-0.04-0.06-0.07-0.13-0.1-0.2c0.04,0.11-0.04-0.11-0.04-0.14c-0.04-0.15-0.08-0.31-0.11-0.48     c0.02,0.12,0-0.03,0-0.04c0-0.04-0.01-0.09-0.01-0.13c-0.01-0.09-0.01-0.18-0.01-0.27c0-0.18,0.01-0.37,0.03-0.55     c0.02-0.22,0.02-0.23,0.06-0.47c0.04-0.2,0.08-0.38,0.13-0.58c0.04-0.15,0.09-0.3,0.14-0.46c0.03-0.08,0.06-0.16,0.09-0.23     c-0.04,0.11,0.01-0.02,0.02-0.04c0.02-0.04,0.04-0.1,0.06-0.14c0.06-0.12,0.13-0.23,0.2-0.35c0.13-0.19,0.13-0.18,0.27-0.35     c0.29-0.36,0.62-0.73,0.98-0.99c0.04-0.04,0.09-0.06,0.14-0.09c0.02-0.01,0.18-0.09,0.12-0.07c0.04-0.02,0.09-0.03,0.13-0.04     c-0.05,0.03,0,0.02-0.03-0.01c0.18,0.16,0.39,0.34,0.62,0.45c0.61,0.29,1.08,0.85,1.76,0.97c0.26,0.04,0.52-0.07,0.59-0.34     C95.21,127.58,95.07,127.26,94.81,127.22L94.81,127.22z"/>
            </g>
            <g>
                <path class="st2" d="M92.53,133.17c0.04,0.69,0.13,1.4,0.43,2.03c0.27,0.57,0.77,0.98,1.38,1.15c0.41,0.12,0.86,0.13,1.28,0.1     c0.25-0.02,0.49-0.21,0.48-0.48c-0.01-0.24-0.21-0.5-0.48-0.48c-0.18,0.01-0.36,0.02-0.55,0.01c-0.07,0-0.15-0.01-0.22-0.02     c-0.04,0,0.1,0.02,0,0c-0.04-0.01-0.08-0.02-0.13-0.03c-0.06-0.02-0.13-0.03-0.19-0.05c-0.04-0.01-0.06-0.02-0.1-0.04     c-0.1-0.04,0.07,0.04,0,0c-0.05-0.03-0.11-0.05-0.17-0.09c-0.02-0.01-0.04-0.03-0.06-0.04c-0.01-0.01-0.02-0.02-0.04-0.02     c-0.07-0.04,0.01,0,0.03,0.02c-0.03-0.04-0.09-0.07-0.13-0.11c-0.04-0.04-0.08-0.09-0.12-0.13c-0.04-0.04,0.06,0.09,0.03,0.04     c-0.01-0.01-0.02-0.02-0.03-0.03c-0.02-0.02-0.03-0.04-0.04-0.06c-0.04-0.05-0.07-0.11-0.1-0.17c-0.01-0.03-0.03-0.04-0.04-0.07     c-0.05-0.12,0.01,0,0,0c0,0-0.06-0.17-0.07-0.19c-0.04-0.13-0.08-0.27-0.11-0.4c-0.02-0.08-0.04-0.15-0.04-0.23     c-0.01-0.04-0.02-0.09-0.02-0.13c-0.02-0.12,0.01,0.06,0-0.03c-0.02-0.19-0.04-0.38-0.05-0.57c-0.02-0.25-0.21-0.49-0.48-0.48     C92.77,132.71,92.51,132.9,92.53,133.17L92.53,133.17z"/>
            </g>
            <g>
                <path class="st2" d="M76.88,85.05c3.1,0.24,6.21,0.11,9.32,0.08c1.57-0.01,3.14,0.01,4.71,0.12c1.54,0.12,3.05,0.37,4.57,0.63     c2.96,0.5,5.92,1,8.85,1.67c1.49,0.35,2.98,0.73,4.45,1.19c1.21,0.38,2.34,0.81,3.43,1.47c2.07,1.27,3.76,3.05,5.4,4.81     c0.42,0.45,0.84,0.89,1.26,1.34c0.2,0.21,0.39,0.41,0.59,0.61c0.26,0.26,0.45,0.55,0.66,0.85c0.82,1.16,1.71,2.28,2.63,3.36     c0.96,1.13,1.97,2.21,3,3.27c0.49,0.5,0.96,0.96,1.28,1.58c0.29,0.55,0.48,1.15,0.7,1.73c0.23,0.62,0.48,1.23,0.88,1.77     c0.4,0.55,0.89,1.03,1.38,1.5c0.2,0.2,0.45,0.4,0.61,0.64c0.19,0.28,0.35,0.57,0.56,0.84c0.43,0.54,0.79,1.13,1.13,1.73     c1.42,2.55,1.93,5.56,2.33,8.42c0.21,1.47,0.35,2.94,0.5,4.41c0.08,0.76,0.16,1.52,0.25,2.29c0.04,0.36,0.07,0.72,0.15,1.08     c0.09,0.38,0.17,0.76,0.22,1.15c0.1,0.73,0.1,1.47,0.01,2.2c-0.04,0.26,0.24,0.48,0.48,0.48c0.29,0,0.45-0.22,0.48-0.48     c0.1-0.79,0.07-1.57-0.04-2.34c-0.1-0.73-0.28-1.46-0.37-2.19c-0.18-1.53-0.33-3.06-0.5-4.59c-0.17-1.49-0.36-3-0.64-4.47     c-0.28-1.49-0.6-3.01-1.14-4.44c-0.25-0.65-0.55-1.29-0.89-1.9c-0.35-0.64-0.72-1.32-1.2-1.86c-0.2-0.21-0.35-0.47-0.49-0.72     c-0.17-0.3-0.42-0.54-0.66-0.78c-0.47-0.47-0.98-0.91-1.37-1.45c-0.78-1.07-0.99-2.43-1.61-3.59c-0.34-0.63-0.81-1.11-1.31-1.61     c-0.54-0.55-1.06-1.1-1.58-1.66c-0.99-1.07-1.94-2.18-2.84-3.34c-0.45-0.56-0.88-1.15-1.29-1.74c-0.19-0.27-0.37-0.54-0.6-0.77     c-0.23-0.23-0.46-0.47-0.68-0.71c-1.7-1.78-3.33-3.65-5.27-5.17c-0.98-0.76-2.02-1.43-3.16-1.93c-1.32-0.57-2.74-0.95-4.12-1.32     c-2.95-0.8-5.95-1.36-8.96-1.88c-1.53-0.27-3.06-0.55-4.6-0.78c-1.59-0.23-3.19-0.34-4.8-0.38c-3.14-0.07-6.28,0.12-9.41,0.03     c-0.77-0.02-1.54-0.06-2.32-0.12C76.26,84.04,76.27,85.01,76.88,85.05L76.88,85.05z"/>
            </g>
            <g>
                <path class="st2" d="M61.55,118.08c0,0.19,0,0.38-0.01,0.57c-0.01,0.17-0.01,0.21-0.05,0.37c-0.01,0.04-0.03,0.09-0.04,0.13     c-0.03,0.07,0.04-0.07,0.01-0.01c-0.01,0.02-0.02,0.04-0.03,0.04c-0.03,0.04-0.04,0.08-0.07,0.12c-0.06,0.11,0.03-0.02-0.04,0.05     c-0.37,0.41-0.74,0.85-0.95,1.37c-0.23,0.6-0.25,1.3-0.21,1.92c0.03,0.62,0.1,1.26,0.29,1.84c0.38,1.17,1.24,2,2.37,2.46     c1.06,0.44,2.27,0.53,3.41,0.54c1.11,0.01,2.21-0.09,3.32-0.13c1.58-0.06,3.04-0.55,4.37-1.4c0.74-0.47,1.44-1.01,2.18-1.49     c0.77-0.5,1.55-1,2.29-1.54c0.34-0.25,0.68-0.5,1-0.78c0.08-0.07-0.07,0.05-0.01,0c0.03-0.02,0.06-0.04,0.09-0.07     c0.07-0.05,0.14-0.1,0.21-0.15c0.38-0.26,0.76-0.52,1.14-0.77c0.96-0.65,1.91-1.32,2.77-2.1c0.7-0.63,1.5-1.43,1.6-2.42     c0.02-0.2,0-0.39-0.05-0.58c-0.18-0.59-1.11-0.34-0.93,0.26c0.01,0.04,0.02,0.08,0.03,0.13c-0.03-0.08,0-0.06,0,0.01     c0,0.04,0,0.07,0,0.11c0,0.02,0,0.04-0.01,0.06c0-0.03,0.02-0.09,0-0.03c-0.03,0.08-0.04,0.17-0.07,0.25     c-0.04,0.11,0.03-0.04-0.02,0.04c-0.03,0.04-0.04,0.09-0.07,0.13c-0.22,0.41-0.44,0.65-0.8,1c-0.77,0.77-1.61,1.38-2.5,2     c-0.7,0.48-1.43,0.93-2.09,1.46c-1.35,1.07-2.84,1.94-4.24,2.94c-1.21,0.86-2.42,1.63-3.9,1.89c-0.59,0.11-1.2,0.11-1.8,0.13     c-0.53,0.03-1.06,0.06-1.58,0.08c-1.11,0.04-2.22,0.04-3.26-0.21c-0.53-0.13-0.92-0.27-1.36-0.55c-0.38-0.24-0.71-0.56-0.94-0.98     c-0.24-0.42-0.37-0.93-0.44-1.42c-0.08-0.6-0.12-1.29-0.02-1.85c0.02-0.13,0.05-0.27,0.09-0.39c0.01-0.02,0.06-0.16,0.03-0.09     c0.04-0.07,0.07-0.13,0.11-0.21c0.15-0.25,0.25-0.38,0.42-0.58c0.3-0.34,0.55-0.66,0.64-1.12c0.06-0.35,0.07-0.71,0.07-1.06     C62.5,117.46,61.54,117.45,61.55,118.08L61.55,118.08z"/>
            </g>
            <g>
                <path class="st2" d="M64.94,116.61c0.77,0.08,1.55,0.21,2.25-0.19c0.29-0.16,0.53-0.36,0.85-0.44c0.3-0.07,0.63-0.05,0.95-0.07     c0.38-0.02,0.73-0.08,1.07-0.23c0.31-0.13,0.58-0.36,0.84-0.57c0.48-0.38,0.92-0.8,1.39-1.2c0.43-0.38,0.89-0.72,1.41-0.96     c0.64-0.3,1.35-0.38,2.04-0.47c0.75-0.12,1.51-0.22,2.25-0.46c0.75-0.24,1.48-0.57,2.24-0.81c0.63-0.19,1.39-0.4,1.99-0.3     c0.12,0.02,0.29,0.06,0.35,0.1c0.08,0.04,0.16,0.1,0.21,0.15c0.04,0.04,0.09,0.13,0.12,0.19c0.05,0.15,0.05,0.29,0.04,0.44     c-0.02,0.62,0.94,0.62,0.97,0c0.02-0.63-0.21-1.22-0.75-1.56c-0.47-0.3-1.09-0.34-1.63-0.28c-0.8,0.09-1.57,0.32-2.32,0.59     c-0.77,0.28-1.52,0.6-2.33,0.77c-0.8,0.17-1.6,0.25-2.4,0.4c-0.67,0.13-1.31,0.38-1.88,0.76c-0.54,0.35-1.02,0.79-1.49,1.21     c-0.23,0.21-0.47,0.41-0.71,0.61c-0.23,0.2-0.49,0.41-0.78,0.54c-0.34,0.14-0.72,0.12-1.09,0.13c-0.44,0.02-0.87,0.09-1.26,0.3     c-0.3,0.15-0.57,0.4-0.91,0.47c-0.46,0.08-0.96-0.03-1.41-0.07c-0.26-0.03-0.48,0.24-0.48,0.48     C64.45,116.41,64.68,116.59,64.94,116.61L64.94,116.61z"/>
            </g>
            <g>
                <path class="st2" d="M60.61,120.09c0.04-0.13,0.1-0.26,0.15-0.39c-0.02,0.04-0.04,0.08-0.04,0.12c0.17-0.39,0.37-0.78,0.6-1.14     c0.13-0.21,0.05-0.55-0.17-0.66c-0.24-0.13-0.51-0.05-0.66,0.17c-0.33,0.52-0.6,1.07-0.81,1.65c-0.09,0.24,0.1,0.54,0.34,0.59     C60.29,120.5,60.52,120.34,60.61,120.09L60.61,120.09z"/>
            </g>
            <g>
                <path class="st2" d="M66.6,128.9c0.23,1.59,1.04,2.92,2.12,4.07c0.51,0.55,1.06,1.1,1.63,1.59c0.45,0.38,0.95,0.74,1.53,0.88     c1.52,0.35,3.01-0.67,4.26-1.39c0.4-0.23,0.81-0.43,1.25-0.57c0.42-0.13,0.86-0.22,1.3-0.32c0.82-0.19,1.62-0.42,2.32-0.9     c1.2-0.82,2.06-2.07,3.35-2.75c1.52-0.8,2.93-1.79,4.14-3.02c0.45-0.46,0.87-0.96,1.3-1.43c0.46-0.5,0.9-1.01,1.32-1.54     c0.42-0.53,0.84-1.07,1.17-1.66c0.3-0.52,0.53-1.1,0.48-1.71c-0.12-1.49-1.39-2.68-2.58-3.45c-0.64-0.41-1.33-0.72-2.08-0.88     c-0.9-0.18-1.82-0.17-2.73-0.14c-0.45,0.02-0.89,0.04-1.34,0.04c-0.62,0-0.62,0.97,0,0.97c1.61,0,3.38-0.3,4.89,0.41     c0.56,0.27,1.1,0.62,1.57,1.04c0.47,0.41,0.92,0.89,1.16,1.48c0.12,0.28,0.17,0.54,0.15,0.82c-0.01,0.08-0.03,0.18-0.05,0.28     c-0.02,0.05-0.04,0.1-0.05,0.15c-0.01,0.03-0.02,0.06-0.04,0.09c-0.03,0.07,0,0-0.02,0.04c-0.24,0.54-0.59,1.04-0.95,1.51     c-0.71,0.93-1.51,1.77-2.28,2.66c-1.06,1.21-2.29,2.23-3.68,3.05c-0.67,0.39-1.36,0.72-1.97,1.21c-0.53,0.43-1,0.93-1.5,1.4     c-0.47,0.44-0.99,0.86-1.6,1.09c-0.8,0.3-1.66,0.4-2.47,0.64c-1.56,0.47-2.81,1.74-4.44,1.99c-0.41,0.06-0.81-0.02-1.19-0.24     c-0.5-0.3-0.93-0.73-1.36-1.16c-0.99-0.98-2-2.02-2.44-3.38c-0.12-0.36-0.2-0.72-0.25-1.1c-0.04-0.26-0.37-0.4-0.59-0.34     C66.66,128.38,66.56,128.64,66.6,128.9L66.6,128.9z"/>
            </g>
            <g>
                <path class="st2" d="M71.93,136.44c0.18-0.98-0.21-1.87-0.71-2.69c-0.23-0.38-0.93-0.25-0.89,0.24c0.05,0.79,0.09,1.57,0.23,2.35     c0.13,0.73,0.38,1.42,0.74,2.08c0.21,0.38,0.45,0.73,0.66,1.11c0.21,0.35,0.39,0.71,0.6,1.05c0.42,0.7,0.95,1.35,1.66,1.75     c3.16,1.79,6.94,0.64,9.73-1.28c0.7-0.48,1.36-1.01,1.98-1.58c0.3-0.29,0.6-0.57,0.94-0.82c0.35-0.26,0.72-0.49,1.07-0.74     c0.74-0.5,1.49-1.05,1.97-1.81c0.45-0.7,0.61-1.54,1.06-2.24c0.87-1.34,2.28-2.23,3.18-3.56c0.37-0.55,0.64-1.16,0.94-1.74     c0.35-0.67,0.69-1.34,0.98-2.04c0.24-0.59,0.48-1.23,0.47-1.88c-0.01-0.71-0.26-1.42-0.71-1.97c-0.81-0.98-2.17-1.21-3.36-1.27     c-0.3-0.02-0.6-0.03-0.89-0.03c-0.62-0.01-0.62,0.96,0,0.97c1.08,0.02,2.25,0.03,3.13,0.61c0.38,0.25,0.66,0.66,0.79,1.17     c0.06,0.27,0.1,0.54,0.06,0.81c0.01-0.07-0.02,0.08-0.02,0.1c-0.02,0.07-0.03,0.14-0.04,0.21c-0.04,0.15-0.09,0.3-0.13,0.46     c-0.41,1.22-1.1,2.33-1.67,3.47c-0.67,1.35-1.91,2.23-2.89,3.34c-0.55,0.63-0.95,1.31-1.25,2.08c-0.13,0.34-0.26,0.68-0.46,0.98     c-0.21,0.35-0.52,0.64-0.83,0.9c-0.62,0.51-1.32,0.9-1.95,1.38c-0.64,0.48-1.2,1.07-1.83,1.59c-2.33,1.92-5.56,3.48-8.63,2.54     c-0.73-0.22-1.43-0.55-1.95-1.15c-0.48-0.55-0.81-1.24-1.17-1.87c-0.38-0.64-0.79-1.24-1.03-1.95c-0.21-0.61-0.3-1.23-0.35-1.87     c-0.04-0.39-0.05-0.78-0.08-1.17c-0.3,0.08-0.6,0.16-0.89,0.24c0.35,0.57,0.73,1.25,0.61,1.95c-0.04,0.26,0.07,0.52,0.34,0.59     C71.57,136.84,71.89,136.7,71.93,136.44L71.93,136.44z"/>
            </g>
            <g>
                <path class="st2" d="M81.05,142.6c-0.01,0.76,0.12,1.57,0.54,2.22c0.37,0.58,0.92,0.99,1.56,1.25c1.32,0.52,2.88,0.31,4.2-0.09     c1.37-0.42,2.71-1.11,3.7-2.15c1.44-1.5,3.28-2.69,4.24-4.6c0.3-0.59,0.46-1.22,0.7-1.83c0.25-0.64,0.61-1.24,0.87-1.88     c0.55-1.38,0.26-2.8,0.25-4.24c0-0.62-0.97-0.62-0.97,0c0.01,1.16,0.28,2.39-0.06,3.53c-0.16,0.55-0.44,1.05-0.68,1.57     c-0.26,0.54-0.44,1.08-0.64,1.64c-0.32,0.9-0.84,1.7-1.49,2.4c-0.67,0.72-1.44,1.33-2.16,2c-0.33,0.31-0.64,0.64-0.97,0.96     c-0.25,0.24-0.41,0.36-0.64,0.53c-0.28,0.19-0.55,0.36-0.85,0.51c-0.31,0.17-0.61,0.3-0.88,0.4c-0.64,0.25-1.31,0.43-1.99,0.53     c-0.15,0.03,0.1-0.01-0.05,0.01c-0.04,0.01-0.09,0.01-0.13,0.02c-0.08,0.01-0.15,0.02-0.23,0.02c-0.16,0.01-0.33,0.02-0.49,0.02     c-0.16,0-0.32-0.01-0.48-0.03c-0.03,0-0.05-0.01-0.09-0.01c-0.14-0.02,0.1,0.02-0.04-0.01c-0.08-0.01-0.16-0.03-0.25-0.04     c-0.16-0.04-0.31-0.07-0.47-0.13c-0.04-0.01-0.07-0.03-0.11-0.04c-0.13-0.04,0.09,0.04-0.03-0.01c-0.07-0.04-0.14-0.06-0.21-0.1     c-0.07-0.04-0.13-0.07-0.2-0.12c-0.04-0.02-0.06-0.04-0.1-0.06c-0.08-0.05,0.05,0.05-0.04-0.03c-0.13-0.11-0.23-0.21-0.34-0.34     c-0.05-0.07-0.01-0.01,0,0.01c-0.04-0.04-0.06-0.09-0.09-0.13c-0.04-0.07-0.09-0.13-0.13-0.21c-0.02-0.03-0.04-0.06-0.04-0.09     c-0.01-0.02-0.06-0.15-0.03-0.05c-0.04-0.08-0.06-0.16-0.09-0.25c-0.13-0.42-0.15-0.71-0.14-1.16     C82.02,141.99,81.06,141.99,81.05,142.6L81.05,142.6z"/>
            </g>
            <g>
                <path class="st2" d="M94.27,140.84c0.41,1.64,2.22,1.79,3.62,1.72c0.65-0.04,1.31-0.09,1.97-0.11c0.82-0.02,1.64-0.29,2.38-0.63     c0.77-0.35,1.53-0.83,2.06-1.51c0.55-0.72,0.55-1.56,0.49-2.42c-0.04-0.45-0.09-0.89-0.12-1.33c-0.04-0.51-0.01-1.02-0.02-1.53     c-0.03-1.2-0.21-2.34-0.57-3.49c-0.21-0.65-0.43-1.31-0.67-1.95c-0.22-0.62-0.42-1.25-0.73-1.83c-0.53-0.98-1.35-1.75-1.92-2.7     c-0.25-0.41-0.89-0.23-0.89,0.24c-0.07,2.93,1.99,5.24,2.59,8.01c0.13,0.61,1.06,0.35,0.93-0.26c-0.58-2.66-2.62-4.94-2.56-7.75     c-0.3,0.08-0.6,0.16-0.89,0.24c0.48,0.8,1.13,1.47,1.65,2.24c0.58,0.88,0.88,1.92,1.22,2.91c0.36,1.04,0.72,2.1,0.83,3.19     c0.1,0.98,0.02,1.95,0.11,2.93c0.07,0.77,0.25,1.7,0.07,2.42c-0.07,0.27-0.22,0.49-0.44,0.72c-0.25,0.26-0.53,0.47-0.83,0.65     c-0.65,0.4-1.38,0.69-2.12,0.84c-0.5,0.1-1.17,0.08-1.75,0.12c-0.38,0.03-0.75,0.05-1.14,0.06c-0.34,0.01-0.78-0.01-1.04-0.05     c-0.38-0.06-0.6-0.13-0.87-0.32c-0.07-0.04,0.08,0.07-0.03-0.02c-0.04-0.03-0.06-0.06-0.1-0.09c-0.02-0.02-0.04-0.04-0.06-0.06     c-0.09-0.11,0.04,0.07-0.04-0.04c-0.12-0.18-0.13-0.21-0.18-0.43C95.05,139.99,94.12,140.24,94.27,140.84L94.27,140.84z"/>
            </g>
            <g>
                <path class="st2" d="M102.74,130.16c0.04-0.13,0.1-0.28,0.14-0.41c-0.27,0.07-0.54,0.14-0.81,0.21c0.72,0.91,1.45,1.81,2.16,2.71     c0.65,0.81,1.26,1.66,1.89,2.5c0.58,0.79,1.21,1.55,1.9,2.24c0.64,0.64,1.36,1.26,2.19,1.65c1.14,0.54,2.44,0.76,3.69,0.9     c1.34,0.15,2.75,0.16,4.05-0.19c1.4-0.38,2.61-1.25,3.02-2.69c0.17-0.6-0.76-0.85-0.93-0.26c-0.09,0.3-0.13,0.43-0.31,0.71     c-0.13,0.21-0.25,0.35-0.47,0.55c-0.13,0.11-0.12,0.11-0.26,0.2c-0.12,0.08-0.23,0.14-0.36,0.21c-0.26,0.13-0.42,0.2-0.72,0.3     c-1.19,0.37-2.44,0.38-3.72,0.25c-1.06-0.1-2.22-0.32-3.27-0.72c-0.76-0.28-1.41-0.82-1.99-1.37c-0.65-0.63-1.24-1.32-1.8-2.03     c-0.69-0.89-1.33-1.82-2.04-2.71c-0.78-0.98-1.57-1.94-2.34-2.93c-0.24-0.3-0.7-0.09-0.81,0.21c-0.04,0.13-0.1,0.28-0.14,0.41     c-0.08,0.25,0.1,0.53,0.34,0.59C102.41,130.56,102.66,130.4,102.74,130.16L102.74,130.16z"/>
            </g>
            <g>
                <path class="st2" d="M120.51,138.06c0.5-0.01,0.79,0.05,1.28,0.16c0.5,0.11,1,0.23,1.5,0.33c1,0.21,2.09,0.37,3.07-0.05     c1.22-0.53,1.56-1.84,1.79-3.02c0.18-0.9,0.29-1.82,0.34-2.73c0.05-0.85,0.08-1.7-0.04-2.54c-0.21-1.45-0.98-2.75-1.65-4.03     c-0.76-1.48-1.71-2.84-2.68-4.2c-1.91-2.63-3.95-5.21-5.06-8.29c-0.24-0.68-0.47-1.37-0.66-2.07c-0.12-0.45-0.21-0.89-0.33-1.33     c-0.26-0.9-0.71-2.06-1.79-2.16c-0.25-0.03-0.51,0.03-0.74,0.12c-0.3,0.12-0.45,0.41-0.29,0.71c0.34,0.64,0.72,1.26,1.07,1.91     c0.35,0.63,0.63,1.28,0.85,1.96c0.44,1.32,0.8,2.67,1.74,3.74c0.17,0.2,0.51,0.18,0.68,0c0.2-0.2,0.17-0.48,0-0.68     c-0.87-0.99-1.15-2.33-1.56-3.53c-0.47-1.39-1.27-2.59-1.95-3.87c-0.1,0.23-0.19,0.47-0.29,0.71c0.11-0.04,0.21-0.08,0.33-0.09     c-0.09,0.01,0.04,0.01,0.06,0c0.02,0,0.04,0,0.06,0c-0.06,0-0.04-0.01,0.01,0c0.04,0.02,0.09,0.03,0.13,0.04     c-0.08-0.03-0.02-0.01,0.02,0.02c0.02,0.01,0.12,0.08,0.08,0.04c-0.04-0.03,0.06,0.06,0.08,0.08c0.04,0.04,0.06,0.07,0.1,0.11     c-0.05-0.07,0.02,0.04,0.04,0.05c0.06,0.1,0.12,0.2,0.17,0.3c0.05,0.12,0.06,0.14,0.09,0.21c0.04,0.12,0.08,0.23,0.13,0.35     c0.13,0.44,0.23,0.88,0.34,1.32c0.14,0.59,0.33,1.16,0.52,1.74c0.48,1.47,1.13,2.85,1.91,4.18c0.82,1.36,1.76,2.64,2.7,3.92     c0.94,1.28,1.89,2.57,2.71,3.94c0.41,0.68,0.77,1.39,1.14,2.09c0.3,0.58,0.62,1.16,0.83,1.78c0.51,1.44,0.38,3.03,0.21,4.53     c-0.09,0.82-0.23,1.66-0.45,2.46c-0.13,0.48-0.32,0.88-0.68,1.18c-0.06,0.05,0.03-0.01-0.06,0.04c-0.04,0.03-0.07,0.04-0.11,0.07     c-0.04,0.03-0.09,0.05-0.13,0.07c-0.03,0.01-0.05,0.03-0.08,0.04c0.04-0.02,0.03-0.01-0.01,0c-0.1,0.04-0.2,0.06-0.3,0.09     c-0.05,0.01-0.1,0.02-0.15,0.03c-0.11,0.02,0.01,0-0.1,0.01c-0.22,0.02-0.45,0.02-0.67,0.01c-0.12-0.01-0.23-0.02-0.35-0.03     c-0.03,0-0.05-0.01-0.07-0.01c0.07,0.01-0.02,0-0.03,0c-0.07-0.01-0.13-0.02-0.21-0.04c-0.98-0.16-1.93-0.46-2.93-0.58     c-0.2-0.03-0.4-0.04-0.61-0.04C119.89,137.1,119.89,138.06,120.51,138.06L120.51,138.06z"/>
            </g>
            <g>
                <path class="st2" d="M129.31,133.66c0.62,0,0.62-0.97,0-0.97C128.69,132.69,128.69,133.66,129.31,133.66L129.31,133.66z"/>
            </g>
            <g>
                <path class="st2" d="M129.07,133.58c1.4,0.69,2.67,1.61,4.14,2.14c0.61,0.22,1.32,0.38,1.95,0.2c0.7-0.2,1.14-0.79,1.35-1.46     c0.14-0.47,0.19-0.97,0.2-1.46c0.02-0.72,0-1.43-0.01-2.15c0-0.74,0.04-1.49-0.02-2.24c-0.04-0.62-0.15-1.22-0.3-1.82     c-0.14-0.64-0.3-1.26-0.36-1.91c-0.05-0.72-0.04-1.45-0.15-2.17c-0.11-0.71-0.35-1.4-0.55-2.09c-0.21-0.7-0.42-1.4-0.59-2.11     c-0.15-0.66-0.22-1.33-0.36-2c-0.13-0.63-0.3-1.27-0.72-1.76c-0.34-0.39-0.8-0.67-1.23-0.97c-0.2-0.13-0.34-0.23-0.51-0.4     c-0.16-0.16-0.23-0.28-0.28-0.48c-0.13-0.61-1.06-0.35-0.93,0.26c0.21,0.94,1.15,1.36,1.85,1.89c0.3,0.24,0.54,0.5,0.67,0.89     c0.19,0.55,0.28,1.13,0.37,1.69c0.21,1.32,0.61,2.59,0.98,3.88c0.19,0.64,0.37,1.28,0.41,1.95c0.04,0.7,0.04,1.4,0.15,2.09     c0.18,1.19,0.58,2.32,0.59,3.52c0.01,0.72,0,1.43,0,2.15c0,0.68,0.04,1.36-0.01,2.04c-0.02,0.38-0.07,0.76-0.23,1.14     c0.04-0.09-0.04,0.09-0.06,0.11c-0.04,0.06-0.07,0.12-0.12,0.18s0.08-0.08,0,0c-0.03,0.03-0.04,0.05-0.07,0.08     c-0.03,0.03-0.05,0.04-0.07,0.07c-0.08,0.07,0.08-0.05-0.01,0.01c-0.05,0.04-0.11,0.06-0.17,0.1c-0.1,0.05,0.08-0.03,0.01-0.01     c-0.03,0.01-0.05,0.02-0.08,0.03c-0.06,0.02-0.13,0.04-0.2,0.04c0.14-0.03-0.07,0-0.12,0.01c-0.06,0-0.13,0-0.2,0     c-0.04,0-0.24-0.03-0.12-0.01c-0.16-0.03-0.32-0.06-0.47-0.11c-0.76-0.21-1.41-0.57-2.16-0.98c-0.72-0.39-1.4-0.82-2.14-1.18     C129.01,132.48,128.52,133.31,129.07,133.58L129.07,133.58z"/>
            </g>
            <g>
                <path class="st2" d="M91.72,84.29c-0.21-0.04-0.36-0.12-0.5-0.25c-0.18-0.16-0.3-0.32-0.42-0.53c-0.25-0.42-0.41-0.84-0.59-1.28     c-0.44-1.05-1.18-2.05-1.34-3.19c-0.06-0.47,0.05-0.85,0.28-1.26c0.27-0.49,0.61-0.94,0.98-1.36c0.7-0.8,1.51-1.61,2.57-1.88     c1.23-0.32,2.37,0.19,3.33,0.92c1.04,0.8,1.91,1.79,2.75,2.79c0.9,1.1,1.76,2.24,2.74,3.27c0.89,0.96,1.88,1.83,3.1,2.35     c0.53,0.23,1.07,0.4,1.64,0.55c0.59,0.16,1.17,0.27,1.68,0.62c0.5,0.34,0.94,0.72,1.5,0.95c0.48,0.2,0.99,0.32,1.46,0.55     c0.21,0.12,0.37,0.21,0.52,0.4c0.16,0.21,0.51,0.17,0.68,0c0.21-0.21,0.16-0.47,0-0.68c-0.37-0.46-0.96-0.68-1.49-0.88     c-0.55-0.2-1.02-0.35-1.49-0.68c-0.55-0.39-1.05-0.8-1.71-0.98c-0.6-0.16-1.21-0.31-1.8-0.52c-1.25-0.43-2.24-1.2-3.15-2.14     c-1.05-1.07-1.94-2.27-2.89-3.43c-0.89-1.09-1.84-2.14-2.96-3c-1.11-0.85-2.4-1.37-3.82-1.14c-1.23,0.21-2.22,1.03-3.05,1.91     c-0.79,0.84-1.68,1.91-1.8,3.1c-0.12,1.26,0.68,2.48,1.21,3.56c0.22,0.45,0.38,0.92,0.62,1.42c0.24,0.51,0.55,1,1.02,1.35     c0.21,0.16,0.47,0.28,0.72,0.33C92.07,85.35,92.32,84.42,91.72,84.29L91.72,84.29z"/>
            </g>
            <g>
                <path class="st2" d="M99.14,78.32c0.95,0,1.9,0,2.84,0c0.94,0,1.88-0.04,2.82,0.02c0.83,0.04,1.65,0.18,2.46,0.3     c0.85,0.13,1.69,0.23,2.55,0.3c1.21,0.11,2.39,0.52,3.23,1.41c0.43,0.46,0.72,1.02,0.97,1.59c0.11,0.26,0.21,0.54,0.28,0.81     c0.06,0.27,0.08,0.33,0.08,0.59c0,0.06,0,0.13-0.01,0.19c0.01-0.1-0.01,0.03-0.02,0.07c-0.01,0.05-0.03,0.1-0.04,0.15     c-0.04,0.13,0.02-0.01-0.04,0.08c-0.03,0.04-0.04,0.09-0.07,0.13c-0.02,0.02-0.03,0.04-0.04,0.06c-0.04,0.05,0.07-0.08-0.01,0.01     c-0.07,0.08-0.15,0.16-0.24,0.23c0.07-0.05-0.06,0.04-0.08,0.05c-0.06,0.04-0.13,0.07-0.19,0.11c-0.13,0.07-0.23,0.12-0.35,0.16     c-0.35,0.13-0.71,0.22-1.07,0.3c-0.25,0.05-0.4,0.35-0.34,0.59c0.07,0.27,0.34,0.39,0.59,0.34c1.09-0.23,2.42-0.66,2.77-1.85     c0.15-0.51,0.09-1.07-0.05-1.57c-0.18-0.66-0.47-1.33-0.84-1.91c-0.77-1.22-1.98-2.01-3.36-2.33c-0.81-0.19-1.64-0.2-2.46-0.3     c-0.89-0.12-1.78-0.29-2.67-0.39c-1.09-0.13-2.19-0.12-3.29-0.12c-1.14,0-2.28,0-3.42,0C98.51,77.36,98.51,78.32,99.14,78.32     L99.14,78.32z"/>
            </g>
            <g>
                <path class="st2" d="M111.08,87.12c1.76,0.14,3.55,0.09,5.27-0.32c1.81-0.44,3.4-1.4,5-2.31c1.63-0.92,3.3-1.75,4.89-2.73     c0.78-0.48,1.56-0.98,2.33-1.46c0.8-0.5,1.64-0.97,2.42-1.49c0.68-0.46,1.23-1.05,1.73-1.7c0.53-0.69,0.9-1.48,1.36-2.21     c0.93-1.49,2-2.89,3.04-4.31c0.53-0.72,1.02-1.46,1.64-2.1c0.59-0.62,1.23-1.19,1.73-1.89c0.25-0.35,0.46-0.72,0.7-1.06     c0.24-0.33,0.49-0.65,0.75-0.97c0.54-0.65,1.1-1.28,1.63-1.94c0.53-0.66,1.03-1.35,1.61-1.97c0.57-0.61,1.18-1.17,1.82-1.71     c0.64-0.55,1.31-1.06,1.97-1.58c0.69-0.55,1.39-1.06,2.01-1.69c0.31-0.31,0.62-0.62,0.93-0.93c0.44-0.44-0.24-1.12-0.68-0.68     c-0.62,0.62-1.22,1.26-1.91,1.81c-0.66,0.53-1.34,1.05-2,1.57c-1.29,1.03-2.53,2.11-3.58,3.4c-0.55,0.67-1.06,1.37-1.61,2.02     c-0.55,0.64-1.09,1.28-1.6,1.95c-0.25,0.34-0.49,0.69-0.72,1.05c-0.21,0.36-0.48,0.66-0.77,0.97c-0.57,0.61-1.19,1.16-1.71,1.83     c-0.56,0.73-1.08,1.49-1.64,2.25c-0.52,0.7-1.04,1.4-1.53,2.11c-0.49,0.71-0.97,1.43-1.4,2.17c-0.21,0.37-0.4,0.74-0.64,1.09     c-0.21,0.31-0.46,0.62-0.72,0.89c-0.26,0.28-0.55,0.55-0.86,0.76c-0.38,0.27-0.79,0.48-1.18,0.72c-0.78,0.48-1.56,0.98-2.33,1.46     c-0.76,0.48-1.53,0.96-2.31,1.41c-0.82,0.48-1.66,0.9-2.5,1.36c-0.81,0.44-1.6,0.89-2.4,1.34c-0.81,0.45-1.61,0.93-2.47,1.25     c-1.62,0.61-3.35,0.8-5.07,0.75c-0.42-0.01-0.84-0.04-1.25-0.07c-0.26-0.02-0.48,0.23-0.48,0.48     C110.6,86.92,110.82,87.1,111.08,87.12L111.08,87.12z"/>
            </g>
            <g>
                <path class="st2" d="M128.83,77.84c-0.02,0.13-0.04,0.28-0.04,0.41c-0.05,0.47,0.7,0.66,0.89,0.24c0.31-0.67,0.72-1.14,1.23-1.66     c0.51-0.51,1.06-0.98,1.57-1.49c-0.22-0.22-0.46-0.46-0.68-0.68c-0.31,0.31-0.63,0.63-0.94,0.94c-0.19,0.19-0.19,0.5,0,0.68     c0.19,0.19,0.5,0.19,0.68,0c0.31-0.31,0.63-0.63,0.94-0.94c0.19-0.19,0.19-0.5,0-0.68c-0.19-0.19-0.49-0.19-0.68,0     c-1.05,1.04-2.31,1.96-2.94,3.34c0.3,0.08,0.6,0.16,0.89,0.24c0.02-0.13,0.04-0.28,0.04-0.41c0.03-0.26-0.24-0.48-0.48-0.48     C129.03,77.36,128.86,77.58,128.83,77.84L128.83,77.84z"/>
            </g>
            <g>
                <path class="st2" d="M130.7,77.04c0.64-0.11,1.24-0.37,1.79-0.72c0.17-0.11,0.29-0.34,0.22-0.55c-0.06-0.19-0.25-0.38-0.47-0.36     c-0.13,0.01-0.28,0.03-0.41,0.04c-0.13,0.01-0.24,0.04-0.34,0.14c-0.08,0.08-0.14,0.22-0.14,0.34c0.01,0.24,0.21,0.5,0.48,0.48     c0.13-0.01,0.28-0.03,0.41-0.04c-0.08-0.3-0.16-0.6-0.24-0.89c-0.13,0.08-0.25,0.15-0.38,0.22c-0.07,0.04-0.14,0.07-0.21,0.11     c-0.03,0.01-0.05,0.03-0.08,0.04c-0.04,0.02-0.04,0.02,0.04-0.02c-0.02,0.01-0.04,0.02-0.05,0.03c-0.28,0.11-0.56,0.2-0.85,0.24     c-0.12,0.02-0.23,0.13-0.29,0.22c-0.06,0.11-0.09,0.26-0.04,0.37C130.2,76.97,130.43,77.09,130.7,77.04L130.7,77.04z"/>
            </g>
            <g>
                <path class="st2" d="M134.69,119.05c2.89-2.77,6.41-4.75,9.99-6.47c1.13-0.54,2.26-1.05,3.4-1.56c0.24-0.11,0.3-0.46,0.17-0.66     c-0.14-0.24-0.42-0.28-0.66-0.17c-3.79,1.69-7.6,3.45-10.94,5.94c-0.92,0.69-1.82,1.43-2.65,2.23     C133.55,118.8,134.24,119.48,134.69,119.05L134.69,119.05z"/>
            </g>
            <g>
                <path class="st2" d="M57.92,71.27c2.58,3.08,5.65,5.72,9.03,7.89c1.67,1.08,3.43,2.06,5.22,2.93c1.87,0.91,3.79,1.67,5.71,2.47     c2.32,0.97,4.66,1.97,7.15,2.43c0.55,0.11,0.81-0.55,0.37-0.88c-0.85-0.64-1.91-0.44-2.85-0.76c-0.5-0.17-0.96-0.44-1.44-0.65     c-0.51-0.22-1.06-0.37-1.58-0.55c-2-0.66-3.91-1.5-5.76-2.5c-1.93-1.04-3.79-2.21-5.65-3.37c-1.86-1.17-3.69-2.38-5.47-3.67     c-1.99-1.44-3.89-3-5.67-4.69c-0.12,0.28-0.22,0.55-0.34,0.82c0.13,0.01,0.25,0.02,0.38,0.04c0.26,0.02,0.48-0.24,0.48-0.48     c0-0.28-0.22-0.46-0.48-0.48c-0.13-0.01-0.25-0.02-0.38-0.04c-0.42-0.04-0.63,0.55-0.34,0.82c3.2,3.06,6.83,5.65,10.56,8.02     c3.67,2.33,7.37,4.64,11.49,6.14c0.58,0.21,1.17,0.4,1.75,0.59c0.56,0.18,1.07,0.46,1.61,0.7c0.56,0.25,1.12,0.39,1.74,0.46     c0.54,0.05,1.04,0.11,1.48,0.45c0.13-0.3,0.25-0.59,0.37-0.88c-2.19-0.41-4.28-1.24-6.33-2.09c-1.9-0.79-3.8-1.53-5.65-2.41     c-3.55-1.67-6.94-3.72-9.96-6.25c-1.71-1.43-3.3-3.01-4.73-4.73c-0.17-0.2-0.51-0.17-0.68,0C57.72,70.77,57.75,71.06,57.92,71.27     L57.92,71.27z"/>
            </g>
            <g>
                <path class="st2" d="M49.49,110.55c1.32,1.16,3.03,1.57,4.54,2.42c0.78,0.44,1.38,1.08,2.08,1.63c0.74,0.58,1.59,0.9,2.43,1.3     c0.96,0.45,1.91,0.96,3,0.76c0.26-0.04,0.4-0.36,0.34-0.59c-0.07-0.27-0.34-0.38-0.59-0.34c-0.8,0.14-1.6-0.36-2.29-0.68     c-0.78-0.36-1.59-0.64-2.26-1.18c-0.68-0.54-1.27-1.16-2-1.61c-0.7-0.42-1.46-0.72-2.2-1.05c-0.82-0.36-1.66-0.74-2.34-1.34     c-0.2-0.17-0.49-0.19-0.68,0C49.32,110.05,49.3,110.38,49.49,110.55L49.49,110.55z"/>
            </g>
            <g>
                <path class="st2" d="M63.29,115.71c-1.42,0.18-2.82,0.61-4.26,0.47c0.08,0.02,0.16,0.04,0.24,0.06     c-3.33-1.67-6.24-4.01-9.11-6.34c-0.21-0.16-0.48-0.2-0.68,0c-0.17,0.17-0.21,0.52,0,0.68c1.62,1.32,3.25,2.63,4.96,3.84     c0.84,0.6,1.7,1.16,2.59,1.69c0.43,0.25,0.86,0.49,1.3,0.72c0.24,0.13,0.48,0.28,0.75,0.31c0.27,0.03,0.54,0.03,0.81,0.02     c1.15-0.04,2.26-0.36,3.4-0.5c0.26-0.04,0.48-0.2,0.48-0.48C63.77,115.96,63.55,115.67,63.29,115.71L63.29,115.71z"/>
            </g>
            <g>
                <path class="st2" d="M83.25,116.69c-0.17-0.69-0.68-1.2-1.22-1.62c-0.53-0.42-1.03-0.85-1.53-1.31     c-0.47-0.43-0.97-0.87-1.58-1.07c-0.64-0.21-1.3-0.02-1.83,0.38c-0.98,0.75-1.59,2-2.03,3.13c-0.18,0.47-0.37,1.01-0.32,1.52     c0.06,0.62,0.38,1.15,0.8,1.59c0.47,0.49,1.06,0.87,1.63,1.23c0.52,0.32,1.09,0.64,1.49,1.01c0.46,0.42,1.14-0.26,0.68-0.68     c-0.78-0.72-1.77-1.14-2.6-1.78c-0.38-0.29-0.72-0.61-0.92-1.03c-0.03-0.05-0.06-0.15-0.09-0.26c-0.01-0.03-0.04-0.19-0.03-0.09     c-0.01-0.04-0.01-0.09-0.01-0.13c0-0.04,0-0.1,0.01-0.14c0.01-0.09-0.01,0.04,0.01-0.05c0.02-0.12,0.04-0.23,0.08-0.35     c0.14-0.51,0.36-1,0.6-1.47c0.13-0.24,0.25-0.47,0.39-0.71c0.06-0.1,0.13-0.2,0.19-0.29c0.03-0.04,0.05-0.08,0.08-0.12     c0.02-0.03,0.04-0.04,0.05-0.07c-0.03,0.04-0.03,0.03,0,0c0.2-0.23,0.41-0.47,0.66-0.63c0.21-0.13,0.39-0.2,0.6-0.2     c0.17,0,0.36,0.07,0.54,0.18c0.22,0.13,0.43,0.29,0.62,0.46c0.53,0.46,1.03,0.95,1.58,1.38c0.47,0.37,1.04,0.75,1.19,1.36     C82.47,117.55,83.4,117.29,83.25,116.69L83.25,116.69z"/>
            </g>
            <g>
                <path class="st2" d="M89.7,122.63c-0.03,0-0.19-0.03-0.07,0c-0.05-0.01-0.11-0.02-0.16-0.04c-0.04-0.01-0.09-0.03-0.13-0.04     c-0.01,0-0.09-0.04-0.04-0.02c0.05,0.03-0.06-0.03-0.05-0.03c-0.1-0.05-0.19-0.11-0.29-0.16c-0.04-0.03-0.09-0.06-0.13-0.09     c-0.03-0.02-0.05-0.04-0.07-0.05c-0.12-0.09,0.04,0.03-0.04-0.03c-0.4-0.32-0.77-0.69-1.15-1.04c-0.72-0.66-1.66-1.4-2.69-1.04     c-1.08,0.38-1.79,1.53-1.99,2.61c-0.19,1.08-0.03,2.25,0.56,3.19c0.3,0.49,0.73,0.93,1.26,1.19c0.62,0.3,1.29,0.36,1.97,0.24     c0.26-0.04,0.4-0.36,0.34-0.59c-0.07-0.27-0.33-0.38-0.59-0.34c-0.11,0.02-0.16,0.03-0.3,0.03c-0.13,0-0.25,0-0.38-0.02     c-0.08-0.01,0.06,0.01-0.02,0c-0.03,0-0.04-0.01-0.07-0.01c-0.05-0.01-0.11-0.03-0.16-0.04c-0.05-0.02-0.11-0.04-0.15-0.04     c-0.03-0.01-0.05-0.02-0.09-0.04c0.04,0.02,0.02,0.01-0.01-0.01c-0.1-0.04-0.19-0.1-0.28-0.15c-0.04-0.03-0.09-0.06-0.13-0.09     c-0.04-0.04,0,0,0.01,0.01c-0.03-0.03-0.05-0.04-0.09-0.07c-0.17-0.15-0.3-0.3-0.39-0.44c-0.28-0.4-0.4-0.72-0.5-1.2     c-0.05-0.25-0.07-0.35-0.08-0.63c0-0.12,0-0.23,0-0.35c0-0.05,0.01-0.12,0.01-0.17c0-0.03,0.03-0.2,0.01-0.12     c0.04-0.23,0.09-0.47,0.17-0.69c0.04-0.13,0.04-0.13,0.1-0.24c0.05-0.11,0.11-0.21,0.18-0.31c0.12-0.18,0.24-0.33,0.45-0.51     c0.09-0.08,0.12-0.1,0.22-0.17c0.05-0.04,0.11-0.06,0.17-0.09c0,0,0.07-0.04,0.03-0.01c-0.05,0.02,0.06-0.02,0.06-0.02     c0.04-0.01,0.08-0.03,0.12-0.04c0.03-0.01,0.05-0.01,0.08-0.02c-0.02,0-0.1,0.01-0.01,0c0.04,0,0.08,0,0.12,0     c0.04,0,0.17,0.03,0.06,0c0.09,0.02,0.18,0.04,0.27,0.07c0.07,0.03-0.04-0.03,0.05,0.02c0.05,0.03,0.12,0.05,0.17,0.09     c0.08,0.04,0.16,0.1,0.24,0.15c0.13,0.09,0.13,0.09,0.21,0.16c0.18,0.15,0.36,0.3,0.53,0.47c0.76,0.71,1.57,1.6,2.67,1.66     C90.32,123.62,90.32,122.65,89.7,122.63L89.7,122.63z"/>
            </g>
            <g>
                <path class="st2" d="M93.94,128.27c0.13-0.47,0.12-0.99-0.14-1.43c-0.24-0.4-0.64-0.67-1.07-0.83c-0.84-0.31-1.91-0.22-2.67,0.27     c-0.83,0.55-1.01,1.43-1.08,2.35c-0.08,1.06-0.01,2.16,0.21,3.21c0.2,0.89,0.61,2.2,1.65,2.42c0.25,0.05,0.52-0.07,0.59-0.34     c0.06-0.24-0.08-0.54-0.34-0.59c-0.03-0.01-0.06-0.02-0.09-0.03c-0.02-0.01-0.04-0.02-0.06-0.02c0,0,0.09,0.04,0.04,0.02     c-0.04-0.03-0.2-0.13-0.11-0.05c-0.05-0.05-0.11-0.1-0.16-0.16c-0.01-0.01-0.08-0.1-0.04-0.05c0.03,0.04-0.04-0.07-0.06-0.09     c-0.22-0.35-0.3-0.59-0.41-1.01c-0.24-0.9-0.31-1.78-0.3-2.74c0-0.21,0.02-0.43,0.04-0.64c0.01-0.1,0.02-0.2,0.03-0.3     c-0.01,0.08,0-0.01,0.01-0.04c0.01-0.04,0.02-0.09,0.03-0.14c0.03-0.15,0.07-0.3,0.12-0.46c0.01-0.04,0.04-0.1,0.01-0.03     c0.02-0.04,0.04-0.07,0.05-0.11s0.04-0.07,0.06-0.11c0.04-0.07,0.01-0.02,0,0c0.02-0.02,0.04-0.04,0.05-0.06     c0.05-0.06,0.12-0.12,0.17-0.17c0.06-0.05-0.04,0.02,0.04-0.04c0.04-0.03,0.08-0.05,0.13-0.08c0.04-0.02,0.07-0.04,0.11-0.06     c0.02-0.01,0.13-0.06,0.1-0.04c-0.04,0.02,0.06-0.02,0.08-0.03c0.04-0.02,0.1-0.03,0.14-0.04c0.09-0.03,0.18-0.04,0.27-0.06     c0.02,0,0.04-0.01,0.06-0.01c-0.01,0-0.08,0.01-0.02,0c0.05-0.01,0.12-0.01,0.17-0.02c0.09,0,0.17-0.01,0.26,0     c0.05,0,0.1,0.01,0.15,0.01c0.02,0,0.04,0,0.06,0.01c0.07,0.01-0.08-0.01,0,0c0.1,0.02,0.21,0.04,0.3,0.07     c0.04,0.02,0.09,0.03,0.13,0.04c0.11,0.04-0.03-0.03,0.06,0.03c0.08,0.04,0.15,0.09,0.23,0.13c0.09,0.05-0.03-0.04,0.04,0.04     c0.03,0.03,0.06,0.06,0.09,0.09c0.01,0.01,0.03,0.03,0.04,0.04c0.04,0.05-0.04-0.07-0.01-0.01c0.03,0.04,0.04,0.08,0.07,0.13     c0.06,0.09,0-0.04,0.02,0.04c0.02,0.04,0.03,0.1,0.04,0.14c0.01,0.02,0.01,0.04,0.01,0.05c0.01,0.07-0.01-0.08,0-0.01     c0,0.04,0.01,0.1,0,0.14c0,0.03-0.02,0.18-0.01,0.09c-0.01,0.06-0.03,0.13-0.04,0.19C92.85,128.61,93.78,128.87,93.94,128.27     L93.94,128.27z"/>
            </g>
            <g>
                <path class="st2" d="M148.25,110.24c-1.16-2.25-2.42-4.49-4.14-6.35c-0.82-0.89-1.85-1.63-2.48-2.68     c-0.61-1.04-0.83-2.25-1.29-3.35c-0.97-2.35-2.49-4.37-3.83-6.51c-0.71-1.13-1.23-2.33-1.83-3.52c-0.55-1.13-1.29-2.14-2.04-3.13     c-0.87-1.15-1.64-2.34-2.21-3.66c-0.55-1.25-1.09-2.51-2.03-3.52c-0.42-0.46-1.1,0.22-0.68,0.68c0.81,0.87,1.29,1.96,1.75,3.03     c0.51,1.17,1.12,2.26,1.85,3.3c0.72,1.02,1.52,1.99,2.15,3.08c0.65,1.15,1.15,2.39,1.79,3.54c0.62,1.1,1.36,2.14,2.05,3.19     c0.67,1.03,1.32,2.08,1.83,3.2c0.52,1.11,0.81,2.31,1.28,3.44c0.5,1.17,1.37,2.02,2.28,2.89c2.03,1.95,3.42,4.4,4.71,6.88     C147.71,111.28,148.54,110.8,148.25,110.24L148.25,110.24z"/>
            </g>
            <g>
                <path class="st2" d="M148.87,111.47c-0.13-0.28-0.28-0.55-0.41-0.82c-0.05-0.11-0.18-0.19-0.29-0.22     c-0.12-0.04-0.27-0.02-0.37,0.04s-0.2,0.16-0.22,0.29c-0.03,0.13-0.01,0.25,0.04,0.37c0.14,0.28,0.28,0.55,0.41,0.82     c0.05,0.11,0.18,0.19,0.29,0.22c0.12,0.04,0.27,0.02,0.37-0.04c0.1-0.06,0.2-0.16,0.22-0.29c0.01-0.04,0.01-0.09,0.02-0.13     C148.94,111.63,148.91,111.55,148.87,111.47L148.87,111.47z"/>
            </g>
            <g>
                <path class="st2" d="M149.54,114.29c0.68,1.27,1.98,3.12,3.68,2.54c0.49-0.17,0.89-0.51,1.32-0.81c0.47-0.32,0.94-0.63,1.42-0.92     c0.95-0.58,1.91-1.12,2.9-1.63c1.96-1.01,3.97-1.91,5.99-2.8c1.02-0.46,2.03-0.9,3.04-1.38c0.48-0.22,0.96-0.48,1.46-0.68     c0.49-0.19,1-0.35,1.52-0.48c1.15-0.3,2.35-0.44,3.51-0.73c0.26-0.06,0.49-0.21,0.73-0.32c0.13-0.05,0.27-0.1,0.4-0.15     c0.16-0.06,0.3-0.17,0.43-0.26c0.3-0.2,0.58-0.38,0.88-0.58c0.05-0.04,0.11-0.07,0.16-0.11c0.08-0.09,0.12-0.12,0.1-0.07     c0,0,0,0,0,0.01c0.05-0.02,0.13-0.02,0.22,0c0-0.32,0-0.64,0-0.97c-0.41,0-0.84,0-1.24,0.06c-0.42,0.07-0.67,0.58-0.29,0.89     c0.18,0.14,0.46,0.13,0.68,0.13c0.33-0.01,0.66-0.06,0.98-0.13c0.54-0.13,0.41-0.94-0.13-0.95c-2.21-0.02-4.28,0.71-6.32,1.47     c-2.06,0.76-4.07,1.63-6.04,2.58c-0.97,0.47-1.89,0.99-2.8,1.57c-0.89,0.55-1.75,1.14-2.64,1.68c-0.46,0.28-0.91,0.55-1.38,0.81     c-0.44,0.24-0.89,0.54-1.38,0.66c-1.02,0.28-2.13,0.25-3.11,0.65c-0.45,0.19-0.86,0.45-1.29,0.66c-0.34,0.17-0.81,0.35-1.19,0.23     c-0.81-0.26-1.15-1.27-1.37-2c-0.18-0.59-1.11-0.34-0.93,0.26c0.25,0.82,0.59,1.7,1.29,2.25c0.38,0.3,0.82,0.49,1.32,0.48     c0.47-0.02,0.9-0.16,1.32-0.36c0.38-0.19,0.75-0.43,1.15-0.6c0.47-0.21,1.02-0.29,1.53-0.37c0.54-0.08,1.08-0.14,1.6-0.3     c0.52-0.14,1.02-0.45,1.49-0.71c1.91-1.04,3.66-2.32,5.53-3.41c0.97-0.56,2.01-1.02,3.03-1.48c0.99-0.45,2-0.88,3.02-1.27     c1.16-0.46,2.34-0.89,3.54-1.26c1.19-0.37,2.4-0.6,3.64-0.59c-0.04-0.31-0.09-0.64-0.13-0.95c-0.06,0.02-0.13,0.03-0.19,0.04     c-0.04,0.01-0.08,0.02-0.12,0.02c-0.01,0-0.1,0.02-0.05,0.01c0.03,0-0.1,0.01-0.13,0.02c-0.06,0.01-0.12,0.01-0.18,0.01     c-0.09,0-0.17,0.01-0.26,0c-0.03,0-0.07-0.01-0.1-0.01c-0.04,0.01,0.11,0.02,0.08,0.01c-0.13-0.04,0.2,0.09,0.25,0.21     c0.02,0.13,0.04,0.25,0.04,0.37l0,0c-0.04,0.07-0.08,0.14-0.13,0.21c-0.03,0.03-0.28,0.16-0.12,0.1c-0.13,0.04-0.06,0.01-0.01,0     c0.04,0,0.1-0.01,0.14-0.01c0.3-0.02,0.58-0.03,0.88-0.03c0.26,0,0.48-0.22,0.48-0.48c0-0.29-0.22-0.45-0.48-0.48     c-0.51-0.06-0.88,0.25-1.27,0.52c-0.24,0.16-0.47,0.32-0.72,0.47c-0.22,0.15-0.49,0.22-0.74,0.33c-0.18,0.08-0.34,0.18-0.53,0.21     c-0.29,0.05-0.57,0.13-0.86,0.18c-0.51,0.1-1.01,0.2-1.52,0.3c-1.03,0.21-2.08,0.47-3.04,0.91c-0.98,0.47-1.98,0.93-2.97,1.38     c-3.93,1.76-7.93,3.44-11.5,5.87c-0.41,0.28-0.84,0.7-1.34,0.81c-0.31,0.06-0.62-0.04-0.92-0.23c-0.66-0.44-1.13-1.22-1.49-1.91     C150.08,113.25,149.24,113.74,149.54,114.29L149.54,114.29z"/>
            </g>
            <g>
                <path class="st2" d="M128.97,80.69c0.8,0.81,1.69,1.52,2.43,2.39c0.73,0.85,1.27,1.86,1.8,2.84c0.55,1.06,1.08,2.13,1.63,3.19     c0.55,1.07,1.15,2.11,1.75,3.15c2.49,4.21,4.83,8.5,7.24,12.76c1.33,2.36,2.74,4.68,4.21,6.95c0.34,0.52,1.17,0.04,0.83-0.48     c-2.67-4.11-5.02-8.4-7.42-12.67c-1.2-2.14-2.41-4.28-3.65-6.39c-0.61-1.05-1.23-2.08-1.8-3.15c-0.55-1.06-1.07-2.14-1.62-3.19     c-0.6-1.16-1.21-2.33-2.01-3.36c-0.79-1.01-1.81-1.82-2.71-2.73C129.22,79.57,128.54,80.25,128.97,80.69L128.97,80.69z"/>
            </g>
            <g>
                <path class="st2" d="M147.71,111.67c-0.17,0.68,0.07,1.31,0.46,1.86c0.17,0.25,0.36,0.49,0.51,0.74     c0.04,0.06,0.07,0.13,0.11,0.19c0.02,0.03,0.03,0.05,0.04,0.09c0.02,0.04,0.04,0.11,0.02,0.03c0.03,0.07,0.05,0.14,0.07,0.22     c0.01,0.04,0.02,0.07,0.03,0.12c0.01,0.03,0.02,0.14,0.01,0.03c0.03,0.25,0.2,0.49,0.48,0.48c0.23-0.01,0.51-0.21,0.48-0.48     c-0.08-0.67-0.42-1.2-0.81-1.74c-0.16-0.22-0.31-0.46-0.43-0.71c0.05,0.12,0,0,0-0.02c-0.01-0.04-0.02-0.07-0.04-0.1     c-0.01-0.03-0.02-0.05-0.02-0.09c-0.02-0.06-0.01-0.05,0,0c-0.01-0.07-0.01-0.14-0.01-0.22c0-0.03,0.03-0.13,0-0.03     c0.01-0.04,0.02-0.08,0.03-0.12c0.06-0.24-0.08-0.54-0.34-0.59C148.05,111.27,147.78,111.4,147.71,111.67L147.71,111.67z"/>
            </g>
            <g>
                <path class="st2" d="M50.16,109.86c3.51-3.45,7.22-6.73,10.29-10.59c0.78-0.98,1.52-1.99,2.2-3.03c0.71-1.09,1.31-2.23,1.88-3.39     c0.55-1.11,1.11-2.22,1.83-3.22c0.69-0.96,1.49-1.83,2.26-2.72c1.67-1.91,3.61-4.37,2.58-7.07c-0.13-0.31-0.4-0.42-0.71-0.29     c-0.34,0.14-0.69,0.25-1.05,0.34c-0.6,0.15-0.35,1.08,0.26,0.93c0.44-0.11,0.86-0.26,1.28-0.44c-0.23-0.1-0.47-0.19-0.71-0.29     c0.86,2.23-0.72,4.28-2.1,5.88c-0.77,0.89-1.57,1.76-2.28,2.7c-0.75,0.98-1.35,2.02-1.91,3.12c-0.56,1.12-1.11,2.25-1.76,3.33     c-0.64,1.05-1.35,2.05-2.1,3.02c-1.47,1.9-3.1,3.65-4.79,5.34c-1.92,1.93-3.92,3.78-5.87,5.7     C49.03,109.61,49.71,110.29,50.16,109.86L50.16,109.86z"/>
            </g>
            <g>
                <path class="st2" d="M69.58,81.46C69.45,81.45,69.56,81.47,69.58,81.46c-0.13-0.03,0.02,0.04-0.04-0.02     c-0.07-0.05,0.05,0.09-0.04-0.04c0.02,0.02,0.07,0.12,0.01,0c0.01,0.01,0.02,0.05,0.02,0.07c0.01,0.13,0-0.11,0.01,0.03     c0.01,0.09,0,0.17,0,0.26c-0.01,0.15,0.01-0.05,0,0.04c-0.01,0.04-0.02,0.08-0.02,0.13c-0.02,0.09-0.04,0.18-0.06,0.26     c-0.05,0.21-0.13,0.43-0.2,0.64c-0.23,0.66-0.55,1.29-0.86,1.94c-1.34,2.78-2.89,5.44-4.82,7.86c-1.89,2.36-3.95,4.59-5.63,7.11     c-0.83,1.25-1.54,2.58-2.39,3.81c-0.86,1.24-1.94,2.25-2.99,3.33c-0.51,0.52-0.99,1.06-1.42,1.66c-0.42,0.58-0.75,1.23-1.09,1.85     c-0.33,0.62-0.67,1.23-1.08,1.8c-0.38,0.51-0.86,0.94-1.33,1.36c-0.49,0.43-0.99,0.86-1.4,1.36c-0.34,0.41-0.58,0.87-0.85,1.32     c-0.12,0.19-0.23,0.38-0.39,0.54c-0.11,0.11-0.22,0.17-0.33,0.15c-0.27-0.04-0.53-0.27-0.75-0.41c-0.3-0.21-0.61-0.43-0.91-0.64     c-0.63-0.42-1.3-0.78-1.92-1.21c-0.63-0.43-1.23-0.89-1.82-1.36c-1.15-0.93-2.27-1.84-3.52-2.63c-1.23-0.78-2.5-1.48-3.77-2.2     c-1.32-0.75-2.59-1.56-3.84-2.41c-2.67-1.79-5.25-3.69-7.96-5.41c-1.29-0.81-2.6-1.59-3.78-2.58c-1.06-0.89-1.95-1.94-2.76-3.08     c-0.43-0.59-0.88-1.17-1.42-1.66c-0.2,0.25-0.39,0.5-0.58,0.76c1.04,0.75,1.93,1.67,2.86,2.56c0.92,0.89,1.91,1.68,2.93,2.47     c0.99,0.78,1.99,1.55,2.96,2.36c0.5,0.42,0.99,0.85,1.47,1.3c0.46,0.43,0.87,0.92,1.36,1.32c0.5,0.4,1.09,0.69,1.55,1.14     c0.22,0.22,0.44,0.47,0.67,0.67c0.25,0.22,0.54,0.43,0.81,0.64c1.03,0.81,2.07,1.62,3.11,2.41c2.05,1.55,4.16,3.01,6.37,4.33     c2.6,1.55,5.23,3.04,7.94,4.4c0.2,0.1,0.42,0.08,0.58-0.07c0.23-0.22,0.5-0.4,0.75-0.61c0.27-0.23,0.4-0.56,0.55-0.87     c0.3-0.58,0.6-1.16,0.91-1.74c0.64-1.15,1.34-2.24,2.31-3.14c0.46-0.42-0.23-1.11-0.68-0.68c-0.97,0.9-1.72,2.01-2.36,3.17     c-0.31,0.55-0.6,1.13-0.89,1.69c-0.14,0.27-0.27,0.64-0.48,0.85c-0.24,0.24-0.55,0.41-0.79,0.64c0.2-0.03,0.39-0.05,0.58-0.07     c-2.4-1.2-4.73-2.51-7.05-3.87c-2.25-1.32-4.42-2.75-6.52-4.29c-1.04-0.77-2.06-1.56-3.08-2.35c-0.52-0.4-1.08-0.79-1.55-1.25     c-0.22-0.22-0.45-0.46-0.67-0.67c-0.25-0.23-0.55-0.42-0.84-0.61c-0.23-0.15-0.47-0.3-0.67-0.47c-0.26-0.21-0.48-0.48-0.72-0.72     c-0.45-0.45-0.92-0.89-1.4-1.3c-0.95-0.83-1.95-1.6-2.94-2.38c-1.13-0.88-2.26-1.75-3.3-2.73c-1.06-1.01-2.09-2.06-3.28-2.93     c-0.44-0.32-0.98,0.39-0.58,0.76c0.59,0.53,1.05,1.16,1.5,1.81c0.42,0.58,0.87,1.15,1.36,1.67c1.04,1.13,2.25,2.04,3.53,2.87     c1.33,0.87,2.68,1.7,4,2.59c1.39,0.94,2.76,1.91,4.14,2.86c1.35,0.93,2.7,1.86,4.11,2.71c1.27,0.77,2.59,1.48,3.86,2.23     c1.3,0.77,2.58,1.58,3.73,2.55c1.19,1,2.41,1.96,3.74,2.76c0.65,0.39,1.28,0.82,1.91,1.24c0.5,0.33,1.07,0.7,1.69,0.47     c0.5-0.19,0.83-0.64,1.09-1.09c0.29-0.49,0.54-0.98,0.93-1.4c0.91-0.98,2.02-1.74,2.8-2.85c0.83-1.2,1.34-2.6,2.26-3.75     c0.98-1.22,2.19-2.22,3.2-3.4c0.98-1.15,1.74-2.46,2.52-3.76c0.82-1.36,1.74-2.67,2.73-3.91c0.97-1.21,1.99-2.38,2.97-3.58     c0.98-1.2,1.94-2.42,2.78-3.72c0.89-1.38,1.67-2.84,2.42-4.3c0.4-0.81,0.81-1.62,1.15-2.45c0.29-0.71,0.69-1.64,0.47-2.41     c-0.12-0.42-0.45-0.64-0.87-0.69c-0.26-0.03-0.48,0.24-0.48,0.48C69.1,81.27,69.32,81.43,69.58,81.46L69.58,81.46z"/>
            </g>
            <g>
                <path class="st2" d="M35.79,103.75c0,0.02,0.02,0.15,0.01,0.03c0,0.04,0.01,0.08,0.01,0.12c0,0.08,0,0.16,0,0.23     c0,0.04-0.03,0.27-0.01,0.15c-0.02,0.1-0.04,0.19-0.05,0.28c-0.07,0.34-0.18,0.67-0.27,1c-0.19,0.69-0.29,1.45,0.2,2.05     c0.27,0.33,0.66,0.52,1.06,0.64c0.49,0.16,1,0.23,1.51,0.16c0.84-0.13,1.55-0.71,1.98-1.43c0.45-0.75,0.62-1.66,0.47-2.51     c-0.06-0.38-0.22-0.78-0.45-1.1c-0.24-0.34-0.56-0.55-0.95-0.71c-0.78-0.32-1.67-0.36-2.5-0.24c-0.37,0.05-0.74,0.16-1.06,0.35     c-0.37,0.21-0.58,0.53-0.71,0.93c-0.34,1.06,0.19,2.13,0.97,2.84c0.77,0.71,1.75,1.2,2.79,1.32c0.26,0.04,0.48-0.24,0.48-0.48     c0-0.29-0.22-0.45-0.48-0.48c0.12,0.02-0.04-0.01-0.04-0.01c-0.04-0.01-0.09-0.02-0.13-0.03c-0.08-0.02-0.15-0.04-0.23-0.06     c-0.17-0.05-0.38-0.13-0.48-0.18c-0.34-0.15-0.72-0.38-0.98-0.57c-0.31-0.24-0.58-0.53-0.76-0.82c-0.18-0.29-0.27-0.57-0.26-0.89     c0-0.04,0-0.07,0.01-0.1c0.02-0.16-0.02,0.08,0.01-0.07c0.02-0.09,0.04-0.17,0.07-0.26c0.02-0.05,0.05-0.1,0.08-0.17     c0.01-0.03,0.06-0.06-0.02,0.03c0.03-0.03,0.06-0.06,0.09-0.09c0.04-0.05,0,0-0.02,0.01c0.03-0.02,0.05-0.04,0.09-0.06     c0.05-0.04,0.11-0.06,0.16-0.09c0.12-0.05-0.1,0.04,0.03-0.01c0.04-0.02,0.08-0.03,0.12-0.04c0.08-0.03,0.16-0.05,0.25-0.07     c0.58-0.13,1.32-0.12,1.92,0.05c0.07,0.02,0.14,0.04,0.21,0.06c0.04,0.02,0.08,0.03,0.13,0.04c-0.1-0.04,0.03,0.01,0.04,0.02     c0.06,0.03,0.12,0.06,0.17,0.1c0.03,0.02,0.05,0.04,0.08,0.05c0.03,0.02,0.02,0.02-0.03-0.02c0.02,0.02,0.04,0.03,0.05,0.04     c0.04,0.04,0.08,0.08,0.12,0.13c-0.07-0.09,0.02,0.04,0.03,0.04c0.03,0.04,0.05,0.08,0.07,0.12c0.1,0.18,0.11,0.2,0.16,0.39     c0.03,0.08,0.04,0.16,0.05,0.25c0.01,0.02,0.02,0.13,0.01,0.04c0.01,0.04,0.01,0.09,0.01,0.14c0.01,0.17,0.01,0.35-0.01,0.52     c-0.02,0.15,0.02-0.09-0.01,0.06c-0.01,0.04-0.02,0.08-0.02,0.12c-0.02,0.09-0.04,0.17-0.06,0.26c-0.05,0.18-0.11,0.31-0.15,0.42     c-0.07,0.15-0.16,0.3-0.26,0.45c0.01-0.01-0.09,0.12-0.04,0.06c0.04-0.05-0.05,0.06-0.05,0.06c-0.06,0.07-0.13,0.13-0.19,0.2     c-0.2,0.19-0.47,0.35-0.74,0.42c-0.04,0.01-0.24,0.04-0.17,0.04c-0.08,0.01-0.16,0.01-0.24,0.01c-0.24,0-0.33-0.03-0.58-0.09     c-0.16-0.04-0.41-0.12-0.48-0.16c-0.07-0.04-0.13-0.07-0.2-0.11c-0.02-0.01-0.12-0.09-0.04-0.02c-0.04-0.04-0.07-0.07-0.11-0.1     c-0.02-0.02-0.04-0.04-0.04-0.05c0.08,0.1-0.01-0.02-0.02-0.04c-0.01-0.02-0.02-0.04-0.03-0.06c-0.04-0.06,0.02,0.09-0.01-0.04     c-0.01-0.04-0.04-0.23-0.03-0.1c0-0.07-0.01-0.13-0.01-0.21c0-0.04,0-0.07,0.01-0.11c0-0.02,0.02-0.15,0.01-0.08     c-0.01,0.08,0.01-0.04,0.01-0.04c0.01-0.05,0.02-0.1,0.03-0.15c0.04-0.16,0.08-0.31,0.12-0.47c0.2-0.71,0.42-1.42,0.28-2.16     c-0.05-0.26-0.36-0.4-0.59-0.34C35.86,103.23,35.74,103.49,35.79,103.75L35.79,103.75z"/>
            </g>
            <g>
                <path class="st2" d="M28.5,97.72c-0.38-0.64-0.98-0.92-1.71-0.81c-0.15,0.03-0.3,0.19-0.34,0.34c-0.25,1.1-0.4,2.49,0.16,3.52     c0.49,0.9,1.72,1.36,2.68,1.5c0.56,0.08,1.15,0.07,1.66-0.18c0.45-0.21,0.72-0.64,0.81-1.12c0.18-1.01-0.09-2.2-0.59-3.09     c-0.3-0.55-0.83-0.93-1.45-1.04c-0.7-0.12-1.4,0-2.1,0c0,0.32,0,0.64,0,0.97c0.6-0.02,1.18,0.06,1.76,0.21     c0.57,0.14,1.15,0.31,1.73,0.4c0.26,0.04,0.52-0.07,0.59-0.34c0.06-0.23-0.08-0.55-0.34-0.59c-0.61-0.1-1.19-0.28-1.79-0.42     c-0.64-0.15-1.3-0.24-1.96-0.22c-0.62,0.02-0.63,0.97,0,0.97c0.55,0,1.08-0.07,1.63-0.05c0.39,0.02,0.75,0.13,0.98,0.43     c0.06,0.07,0.16,0.28,0.22,0.4c0.01,0.02,0.02,0.04,0.03,0.06c0-0.01-0.03-0.06,0-0.01c0.02,0.05,0.04,0.11,0.06,0.16     c0.04,0.11,0.07,0.21,0.11,0.31c0.13,0.46,0.21,0.82,0.21,1.28c0,0.1-0.01,0.2-0.02,0.3c-0.01,0.05,0,0,0-0.01     c0,0.02-0.01,0.04-0.01,0.06c-0.01,0.05-0.02,0.1-0.04,0.15c-0.01,0.02-0.05,0.14-0.04,0.1c0.02-0.04-0.03,0.05-0.04,0.06     c-0.01,0.02-0.07,0.11-0.04,0.06c0.04-0.04-0.05,0.04-0.07,0.06c0.07-0.06-0.16,0.09-0.13,0.08c0.04-0.02-0.06,0.03-0.09,0.03     c-0.05,0.02-0.1,0.03-0.15,0.04c-0.03,0.01-0.13,0.03-0.06,0.02c-0.05,0.01-0.12,0.01-0.17,0.02c-0.11,0.01-0.22,0-0.33,0     c-0.21-0.01-0.38-0.04-0.62-0.11c-0.2-0.05-0.47-0.14-0.61-0.2c-0.2-0.08-0.38-0.19-0.55-0.3c-0.04-0.03-0.09-0.06-0.13-0.09     c0.06,0.04-0.02-0.02-0.04-0.04c-0.06-0.05-0.13-0.12-0.19-0.18c-0.04-0.04,0.01,0.01,0.01,0.02c-0.03-0.04-0.04-0.07-0.07-0.11     c-0.03-0.05-0.06-0.11-0.08-0.16c0.02,0.04-0.04-0.08-0.04-0.11c-0.02-0.06-0.04-0.13-0.05-0.19c-0.07-0.27-0.09-0.49-0.09-0.78     c-0.01-0.57,0.05-1.07,0.17-1.62c-0.12,0.12-0.22,0.22-0.34,0.34c0.12-0.02,0.24,0.01,0.31,0.04c0.13,0.06,0.22,0.18,0.3,0.31     C27.99,98.73,28.82,98.25,28.5,97.72L28.5,97.72z"/>
            </g>
        </g>
    </g>
    </svg>