<svg xmlns="http://www.w3.org/2000/svg" xmlns:xlink="http://www.w3.org/1999/xlink" version="1.1" id="Layer_1" x="0px" y="0px" viewBox="0 0 200 200" style="enable-background:new 0 0 200 200;" xml:space="preserve">
	<style type="text/css">
		.st0{fill:#1A1A1A;}
		.st1{fill:#38B6FF;}
		.st2{fill:none;stroke:#1A1A1A;stroke-width:4;stroke-miterlimit:10;}
	</style>
	<g>
		<path class="st2" d="M193.37,79.58c0,0-11.8,35.28-38.9,32.14c0,0-103.1,5.86-112.1,3.86s-15.96-2.09-36.48-23.05"/>
		<path class="st1" d="M94.06,82.52c3.92,0.21,7.81,0.07,11.7-0.41c2.32-0.29,4.33-1.79,4.33-4.33c0-2.12-2-4.63-4.33-4.34   c-3.89,0.48-7.78,0.62-11.7,0.41C88.49,73.56,88.51,82.23,94.06,82.52z"/>
		<path class="st1" d="M73.77,126.92h-6.9c-0.82,0-1.48-0.67-1.48-1.48v-26.5c0-0.82,0.67-1.48,1.48-1.48h6.9   c0.82,0,1.48,0.67,1.48,1.48v26.5C75.25,126.25,74.58,126.92,73.77,126.92z"/>
		<path class="st1" d="M133.56,125.56l-6.89,0.46c-0.81,0.05-1.52-0.57-1.58-1.38l-1.84-27.74c-0.05-0.81,0.57-1.52,1.38-1.58   l6.89-0.46c0.81-0.05,1.52,0.57,1.58,1.38l1.84,27.74C134.99,124.8,134.37,125.51,133.56,125.56z"/>
		<path class="st2" d="M7.07,176.06c0,0,183.08,5.49,187.69-9.49c0,0,2.25-112.71-4.57-115.35c-6.82-2.64-182.92,3.47-183.12,6.16   C6.87,60.08,2.26,170.04,7.07,176.06z"/>
		<path class="st2" d="M42.37,53.58V28.07c0,0,104.18-6.36,110.08-4.89c5.9,1.47,3.9,27.64,3.9,27.64L42.37,53.58z"/>
	</g>
	</svg>