<svg xmlns="http://www.w3.org/2000/svg" xmlns:xlink="http://www.w3.org/1999/xlink" version="1.1" id="Layer_1" x="0px" y="0px" viewBox="0 0 200 198" style="enable-background:new 0 0 200 198;" xml:space="preserve">
    <style type="text/css">
        .st0{fill:#FFFFFF;}
        .st1{fill:#BEE8FF;}
        .st2{fill:none;stroke:#FFFFFF;stroke-miterlimit:10;}
        .st3{fill:none;stroke:#FFFFFF;stroke-width:0.7891;stroke-miterlimit:10;}
        .st4{fill:#BFE8FB;}
        .st5{fill:none;stroke:#FFFFFF;stroke-width:0.7891;}
        .st6{fill:#DFDFDE;}
        .st7{fill:none;stroke:#FFFFFF;stroke-width:0.9362;stroke-linecap:round;}
        .st8{fill:none;stroke:#FFFFFF;stroke-width:0.8955;stroke-linecap:round;}
        .st9{fill:#C1E8FB;stroke:#FFFFFF;stroke-width:0.9362;stroke-linecap:round;}
        .st10{fill:none;stroke:#FFFFFF;stroke-width:1.1794;stroke-miterlimit:10;}
        .st11{fill:none;stroke:#000000;stroke-width:0.75;stroke-miterlimit:10;}
        .st12{fill:#BEE7FA;}
        .st13{fill:none;stroke:#000000;stroke-width:0.75;}
        .st14{fill:#DEDEDD;}
        .st15{fill:none;stroke:#000000;stroke-width:1.9344;stroke-linecap:round;}
        .st16{fill:#BFE7FA;stroke:#000000;stroke-width:1.9344;}
        .st17{fill:#1A1A1A;}
        .st18{fill:none;stroke:#000000;stroke-width:1.21;stroke-linecap:round;}
        .st19{fill:#1C1C1B;}
        .st20{opacity:0.1294;}
        .st21{fill:none;stroke:#000000;stroke-width:1.0991;stroke-linecap:round;}
        .st22{fill:none;stroke:#000000;stroke-width:0.8833;stroke-miterlimit:10;}
        .st23{fill:none;stroke:#000000;stroke-width:1.3736;stroke-miterlimit:10;}
        .st24{fill:none;stroke:#000000;stroke-width:1.046;stroke-dasharray:8.3676,8.3676;}
        .st25{fill:none;stroke:#010202;stroke-width:1.046;stroke-miterlimit:10;}
        .st26{fill:#FFFFFF;stroke:#000000;stroke-width:1.046;}
        .st27{fill:none;stroke:#000000;stroke-width:1.046;}
        .st28{fill:none;stroke:#FFFFFF;stroke-width:1.046;stroke-miterlimit:10;}
        .st29{fill:#BEE8FF;stroke:#FFFFFF;stroke-miterlimit:10;}
        .st30{fill:none;stroke:#FFFFFF;stroke-width:1.046;}
        .st31{fill:none;}
        .st32{fill:#FFFFFF;stroke:#000000;stroke-width:0.9247;stroke-miterlimit:1.2329;}
        .st33{fill:none;stroke:#000000;stroke-width:0.9247;stroke-miterlimit:3.0822;}
        .st34{fill:#BEE8FF;stroke:#000000;stroke-width:0.9247;stroke-miterlimit:1.2329;}
        .st35{fill:#BEE8FF;stroke:#000000;stroke-width:0.6164;stroke-miterlimit:1.2329;}
        .st36{fill:none;stroke:#000000;stroke-width:0.3082;stroke-miterlimit:3.0822;}
        .st37{fill:none;stroke:#FFFFFF;stroke-width:0.9247;stroke-miterlimit:3.0822;}
        .st38{fill:#BEE8FF;stroke:#FFFFFF;stroke-width:0.9247;stroke-miterlimit:1.2329;}
        .st39{fill:#FFFFFF;stroke:#FFFFFF;stroke-width:0.9247;stroke-miterlimit:1.2329;}
        .st40{fill:#FFFFFF;stroke:#FFFFFF;stroke-width:0.6936;stroke-miterlimit:1.2329;}
    </style>
    <g>
        <path class="st24" d="M140.37,90.91c0.7,2.3,1.19,4.69,1.47,7.14c-0.23,0.02-0.4,0.23-0.37,0.46c0.13,1.32,0.2,2.66,0.2,4.02   c0,1.36-0.07,2.7-0.2,4.02c-0.02,0.23,0.14,0.43,0.37,0.46c-0.27,2.45-0.77,4.84-1.47,7.14c-0.22-0.07-0.45,0.05-0.52,0.27   c-0.81,2.58-1.88,5.05-3.18,7.39c-0.11,0.2-0.04,0.46,0.16,0.57c-1.21,2.12-2.6,4.12-4.16,5.99c-0.18-0.15-0.44-0.13-0.59,0.05   c-1.74,2.04-3.68,3.91-5.79,5.58c-0.18,0.14-0.21,0.41-0.07,0.59c-1.91,1.48-3.97,2.81-6.13,3.95c-0.11-0.2-0.36-0.28-0.56-0.18   c-2.36,1.22-4.87,2.22-7.47,2.98c-0.22,0.06-0.35,0.3-0.29,0.52c-2.31,0.65-4.71,1.11-7.17,1.37c-0.02-0.23-0.23-0.4-0.46-0.38   c-1.32,0.12-2.67,0.19-4.03,0.19c-1.36,0-2.7-0.06-4.03-0.19c-0.23-0.02-0.43,0.15-0.46,0.38c-2.46-0.25-4.85-0.72-7.17-1.37   c0.06-0.22-0.06-0.45-0.29-0.52c-2.61-0.76-5.11-1.76-7.47-2.98c-0.2-0.11-0.46-0.03-0.56,0.18c-2.17-1.14-4.22-2.47-6.13-3.95   c0.14-0.18,0.11-0.44-0.07-0.59c-2.11-1.67-4.05-3.54-5.79-5.58c-0.15-0.18-0.41-0.2-0.59-0.05c-1.56-1.87-2.96-3.87-4.16-5.99   c0.2-0.11,0.27-0.37,0.16-0.57c-1.3-2.33-2.37-4.81-3.18-7.39c-0.07-0.22-0.3-0.34-0.52-0.27c-0.7-2.3-1.19-4.69-1.47-7.14   c0.23-0.02,0.4-0.23,0.37-0.46c-0.13-1.32-0.2-2.66-0.2-4.02c0-1.36,0.07-2.7,0.2-4.02c0.02-0.23-0.14-0.43-0.37-0.46   c0.27-2.45,0.77-4.84,1.47-7.14c0.22,0.07,0.45-0.05,0.52-0.27c0.81-2.58,1.88-5.05,3.18-7.39c0.11-0.2,0.04-0.46-0.16-0.57   c1.21-2.12,2.6-4.12,4.16-5.99c0.18,0.15,0.44,0.13,0.59-0.05c1.74-2.04,3.68-3.91,5.79-5.58c0.18-0.14,0.21-0.4,0.07-0.59   c1.91-1.48,3.96-2.81,6.13-3.95c0.11,0.2,0.36,0.28,0.56,0.18c2.37-1.22,4.87-2.22,7.47-2.98c0.22-0.06,0.35-0.3,0.29-0.52   c2.31-0.65,4.71-1.11,7.17-1.37c0.02,0.23,0.23,0.4,0.46,0.38c1.32-0.12,2.67-0.19,4.03-0.19c1.36,0,2.7,0.06,4.03,0.19   c0.23,0.02,0.43-0.15,0.46-0.38c2.46,0.25,4.85,0.72,7.17,1.37c-0.06,0.22,0.06,0.45,0.29,0.52c2.61,0.76,5.11,1.76,7.47,2.98   c0.2,0.11,0.46,0.03,0.56-0.18c2.17,1.14,4.22,2.47,6.13,3.95c-0.14,0.18-0.11,0.44,0.07,0.59c2.11,1.67,4.05,3.54,5.79,5.58   c0.15,0.18,0.41,0.2,0.59,0.05c1.56,1.87,2.96,3.87,4.16,5.99c-0.2,0.11-0.27,0.37-0.16,0.57c1.3,2.33,2.37,4.81,3.18,7.39   C139.91,90.86,140.15,90.98,140.37,90.91z"/>
        <g>
            <path class="st0" d="M100.61,49c-7.08,0-11.58,3.75-12.47,9.17c-0.77,5.26,2.02,10.4,6.83,12.59c8.11,3.65,17.33-1.96,17.33-9.94    C112.3,52.7,106.57,49,100.61,49z"/>
            <path class="st25" d="M100.24,71.77c-1.78,0-3.53-0.38-5.15-1.11c-4.74-2.16-7.49-7.23-6.72-12.42c0.91-5.62,5.59-9.12,12.19-9.12    c5.74,0,11.53,3.6,11.53,11.64c-0.06,3.66-1.96,7.04-5.05,8.97C105.01,71.07,102.65,71.77,100.24,71.77z"/>
            <path class="st1" d="M79.97,105.07c0.61-5.68-0.01-11.51,1.42-17.05c1.76-6.96,6.79-12.61,13.47-15.12    c6.68-2.33,14.78-0.6,19.45,4.65c3.87,4.37,5.08,10.43,5.56,16.21c0.31,3.76,0.39,7.53,0.46,11.3L79.97,105.07z"/>
            <path class="st25" d="M119.25,104.88H81.15c-0.74,0.02-1.36-0.58-1.38-1.33c0-0.05,0-0.1,0.01-0.14c0.21-1.87,0.26-3.82,0.32-5.7    c-0.04-3.31,0.32-6.62,1.05-9.84c1.87-6.82,6.96-12.26,13.6-14.53c7.01-2.34,15.17-0.46,19.83,4.56    c4.15,4.47,5.17,10.57,5.59,15.37c0.3,3.43,0.37,6.9,0.44,10.26c0,0.75-0.61,1.35-1.35,1.35L119.25,104.88L119.25,104.88z"/>
        </g>
        <g>
            <path class="st0" d="M84.26,114.53c-4.46,0-7.29,2.31-7.85,5.64c-0.49,3.24,1.27,6.4,4.3,7.74c5.1,2.24,10.91-1.21,10.91-6.11    C91.62,116.81,88.01,114.53,84.26,114.53z"/>
            <path class="st25" d="M84.03,128.53c-1.12,0-2.22-0.23-3.24-0.69c-2.99-1.33-4.71-4.44-4.23-7.63c0.58-3.46,3.52-5.6,7.67-5.6    c3.61,0,7.26,2.21,7.26,7.16c-0.04,2.25-1.24,4.33-3.18,5.51C87.03,128.1,85.54,128.53,84.03,128.53z"/>
            <path class="st0" d="M71.26,149c0.39-3.49-0.01-7.07,0.89-10.48c1.11-4.28,4.28-7.75,8.48-9.29c4.2-1.43,9.31-0.37,12.24,2.86    c2.44,2.69,3.2,6.41,3.5,9.97c0.2,2.31,0.24,4.63,0.29,6.94H71.26z"/>
            <path class="st25" d="M95.99,148.88H72.01c-0.47,0.01-0.85-0.36-0.87-0.82c0-0.03,0-0.06,0-0.09c0.13-1.15,0.16-2.35,0.2-3.5    c-0.02-2.03,0.2-4.07,0.66-6.05c1.18-4.19,4.38-7.54,8.56-8.93c4.41-1.44,9.55-0.29,12.49,2.8c2.62,2.75,3.26,6.49,3.52,9.45    c0.19,2.11,0.23,4.24,0.28,6.31c0,0.46-0.38,0.83-0.85,0.83L95.99,148.88L95.99,148.88z"/>
        </g>
        <path class="st26" d="M136.51,99.4c-3.97-2-6.3-6.75-5.66-11.65c0.37-2.51,1.49-4.61,3.23-6.08c1.74-1.48,4.13-2.35,7.1-2.35   c2.47,0,4.88,0.85,6.67,2.63c1.78,1.77,2.99,4.49,2.99,8.29C150.83,97.61,143.19,102.75,136.51,99.4z"/>
        <path class="st26" d="M54.93,99.4c-3.97-2-6.3-6.75-5.65-11.65c0.37-2.51,1.48-4.61,3.23-6.08c1.74-1.48,4.13-2.35,7.1-2.35   c2.47,0,4.88,0.85,6.67,2.63c1.78,1.77,2.99,4.49,2.99,8.29C69.25,97.61,61.61,102.75,54.93,99.4z"/>
        <path class="st0" d="M116.06,114.53c-4.46,0-7.29,2.31-7.85,5.64c-0.49,3.24,1.27,6.4,4.3,7.74c5.1,2.24,10.91-1.21,10.91-6.11   C123.43,116.81,119.82,114.53,116.06,114.53z"/>
        <path class="st25" d="M115.83,128.53c-1.12,0-2.22-0.23-3.24-0.69c-2.99-1.33-4.71-4.44-4.23-7.63c0.58-3.46,3.52-5.6,7.67-5.6   c3.61,0,7.26,2.21,7.26,7.16c-0.04,2.25-1.24,4.33-3.18,5.51C118.83,128.1,117.35,128.53,115.83,128.53z"/>
        <path class="st0" d="M103.07,149c0.39-3.49-0.01-7.07,0.89-10.48c1.11-4.28,4.28-7.75,8.48-9.29c4.2-1.43,9.31-0.37,12.24,2.86   c2.44,2.69,3.2,6.41,3.5,9.97c0.2,2.31,0.24,4.63,0.29,6.94H103.07z"/>
        <path class="st25" d="M127.8,148.88h-23.99c-0.47,0.01-0.85-0.36-0.87-0.82c0-0.03,0-0.06,0-0.09c0.13-1.15,0.17-2.35,0.2-3.5   c-0.02-2.03,0.2-4.07,0.66-6.05c1.18-4.19,4.38-7.54,8.56-8.93c4.41-1.44,9.55-0.29,12.49,2.8c2.62,2.75,3.26,6.49,3.52,9.45   c0.19,2.11,0.23,4.24,0.28,6.31c0,0.46-0.38,0.83-0.85,0.83L127.8,148.88L127.8,148.88z"/>
        <path class="st27" d="M123.01,114.91c2.18-0.13,5.89,0.64,3.27,4.78 M128.1,111.33c-0.73,1.06-1.82,5.18,3.27,3.98"/>
        <path class="st27" d="M138.95,86.27c-3.79-0.72-5.19,7.96,0,7.24 M140.36,86.27v3.32 M140.36,93.5v-3.92 M143.23,86.27v3.32    M143.23,93.5v-3.92 M140.36,89.58h2.87 M144.69,93.5v-3.92 M147.07,86.27h-1.29c-0.61,0-1.09,0.55-1.09,1.22v2.09 M144.69,89.58   h1.51"/>
        <path class="st27" d="M57.37,86.27c-3.79-0.72-5.19,7.96,0,7.24 M58.77,86.27v3.32 M58.77,93.5v-3.92 M61.64,86.27v3.32    M61.64,93.5v-3.92 M58.77,89.58h2.87 M63.1,93.5v-3.92 M65.48,86.27H64.2c-0.61,0-1.09,0.55-1.09,1.22v2.09 M63.1,89.58h1.51"/>
        <path class="st27" d="M66.53,68.28l8.18,2.16l-1.02,8.18"/>
        <path class="st27" d="M134.24,68.28l-8.18,2.16l1.02,8.18"/>
        <path class="st27" d="M72.38,112.45c1.07,0.62,3.2,2.25,3.18,3.76 M73.39,111.26c0.63,1.09,2.17,3.33,3.22,3.5 M71.68,113.15   c-1.05-0.17-2.95-0.8-2.11-1.97c-1.01-0.43-1.31-2.27,0.69-2.59c0.44-0.83,1.59-1.96,2.72,0.17c0.96-0.03,2.61,0.31,1.54,1.87"/>
    </g>
    </svg>