<svg width="151" height="153" viewBox="0 0 151 153" fill="none" xmlns="http://www.w3.org/2000/svg">
<path d="M113.592 69.4821C114.259 71.6842 114.734 73.9672 114.996 76.3125C114.777 76.3357 114.618 76.5313 114.64 76.7504C114.768 78.0152 114.833 79.298 114.833 80.5957C114.833 81.8935 114.768 83.1763 114.64 84.4411C114.618 84.6602 114.777 84.8558 114.996 84.879C114.734 87.2243 114.259 89.5073 113.592 91.7094C113.382 91.6445 113.158 91.7615 113.092 91.9715C112.316 94.4393 111.293 96.8023 110.052 99.0333C109.945 99.2258 110.013 99.4684 110.205 99.5763C109.051 101.602 107.717 103.518 106.225 105.303C106.057 105.161 105.806 105.181 105.663 105.349C103.999 107.299 102.143 109.087 100.123 110.685C99.9499 110.822 99.9202 111.073 100.056 111.246C98.2255 112.665 96.265 113.931 94.1948 115.025C94.093 114.83 93.8526 114.754 93.6569 114.855C91.3958 116.021 89.0053 116.981 86.5119 117.708C86.3004 117.77 86.1788 117.991 86.2394 118.202C84.0281 118.824 81.7384 119.265 79.3881 119.508C79.3665 119.289 79.172 119.129 78.9527 119.149C77.686 119.268 76.4019 119.329 75.1031 119.329C73.8044 119.329 72.5202 119.268 71.2536 119.149C71.0343 119.129 70.8398 119.289 70.8182 119.508C68.4679 119.265 66.1782 118.824 63.9669 118.202C64.0275 117.991 63.9058 117.77 63.6944 117.708C61.201 116.981 58.8105 116.021 56.5494 114.855C56.3537 114.754 56.1133 114.83 56.0115 115.025C53.9412 113.931 51.9808 112.665 50.1504 111.246C50.2861 111.073 50.2564 110.822 50.0837 110.685C48.0632 109.087 46.207 107.299 44.5435 105.349C44.4005 105.181 44.1492 105.161 43.9811 105.303C42.4893 103.518 41.1556 101.602 40.0011 99.5763C40.1928 99.4684 40.2615 99.2258 40.1544 99.0333C38.9134 96.8023 37.8907 94.4393 37.1142 91.9715C37.0481 91.7615 36.8247 91.6445 36.6145 91.7094C35.9469 89.5073 35.4726 87.2243 35.2108 84.879C35.4295 84.8558 35.5886 84.6602 35.5664 84.4411C35.4386 83.1763 35.3731 81.8935 35.3731 80.5957C35.3731 79.298 35.4386 78.0152 35.5664 76.7504C35.5886 76.5313 35.4295 76.3357 35.2108 76.3125C35.4726 73.9672 35.9469 71.6842 36.6145 69.4821C36.8247 69.547 37.0481 69.43 37.1142 69.2199C37.8907 66.7522 38.9134 64.3892 40.1544 62.1582C40.2615 61.9657 40.1928 61.7231 40.0011 61.6152C41.1556 59.5892 42.4892 57.6736 43.9811 55.8887C44.1492 56.0307 44.4005 56.0103 44.5435 55.8428C46.207 53.893 48.0632 52.1048 50.0837 50.506C50.2564 50.3694 50.2861 50.1189 50.1504 49.9457C51.9808 48.5268 53.9412 47.2605 56.0114 46.1665C56.1133 46.3616 56.3537 46.4379 56.5494 46.3369C58.8105 45.1706 61.201 44.2108 63.6944 43.4833C63.9058 43.4216 64.0275 43.2007 63.9669 42.9892C66.1782 42.3676 68.4679 41.9265 70.8182 41.6832C70.8398 41.9022 71.0343 42.0628 71.2536 42.0422C72.5202 41.9235 73.8044 41.8628 75.1031 41.8628C76.4019 41.8628 77.686 41.9235 78.9527 42.0422C79.172 42.0628 79.3665 41.9022 79.3881 41.6832C81.7384 41.9265 84.0281 42.3676 86.2394 42.9892C86.1788 43.2007 86.3004 43.4216 86.5119 43.4833C89.0053 44.2108 91.3958 45.1706 93.6569 46.3369C93.8526 46.4378 94.093 46.3615 94.1948 46.1665C96.265 47.2605 98.2255 48.5268 100.056 49.9457C99.9202 50.1189 99.9499 50.3694 100.123 50.506C102.143 52.1048 103.999 53.893 105.663 55.8428C105.806 56.0103 106.057 56.0307 106.225 55.8887C107.717 57.6736 109.051 59.5892 110.205 61.6152C110.013 61.7231 109.945 61.9657 110.052 62.1582C111.293 64.3892 112.316 66.7522 113.092 69.2199C113.158 69.43 113.382 69.547 113.592 69.4821Z" stroke="black" strokeWidth="0.8" strokeLinecap="round" stroke-dasharray="8 8"/>
<g clipPath="url(#clip0_772_20965)">
<path d="M75.5788 29.4102C68.8117 29.4102 64.5062 32.9979 63.6597 38.1753C62.9214 43.208 65.5862 48.1229 70.1872 50.2105C77.9371 53.7001 86.7573 48.3351 86.7573 40.707C86.7573 32.9439 81.2781 29.4102 75.5788 29.4102Z" fill="white"/>
<path d="M75.2273 51.1796C73.5294 51.1783 71.851 50.8153 70.3027 50.1149C65.7686 48.053 63.1439 43.2043 63.8737 38.2428C64.7469 32.8655 69.2154 29.528 75.5241 29.528C81.0093 29.528 86.5444 32.9685 86.5444 40.6604C86.4861 44.1623 84.6666 47.3931 81.7147 49.2379C79.7858 50.5062 77.5309 51.1796 75.2273 51.1796Z" stroke="#010202" stroke-miterlimit="10"/>
<path d="M55.8477 83.0203C56.4339 77.5927 55.8391 72.0167 57.2013 66.724C58.8846 60.0685 63.6973 54.6679 70.0813 52.2724C76.4654 50.0462 84.2165 51.6947 88.6728 56.7187C92.3763 60.8977 93.5268 66.6884 93.9927 72.2203C94.2919 75.8117 94.3636 79.4166 94.4354 83.0191L55.8477 83.0203Z" fill="#bee8ff"/>
<path d="M93.4004 82.8376H56.98C56.2698 82.8523 55.6823 82.2844 55.6653 81.5693C55.6653 81.5227 55.6677 81.4773 55.6726 81.4307C55.8757 79.6436 55.9231 77.7816 55.9754 75.981C55.9389 72.8152 56.2771 69.6555 56.9825 66.5707C58.7679 60.0526 63.6378 54.8482 69.9878 52.6747C76.6917 50.4411 84.4878 52.2307 88.9478 57.0352C92.92 61.3111 93.893 67.1361 94.2968 71.7333C94.585 75.0157 94.6519 78.3348 94.72 81.546C94.7176 82.2623 94.1399 82.8413 93.4296 82.8388H93.4004V82.8376Z" stroke="#010202" stroke-miterlimit="10"/>
<path d="M90.0586 42.4597L88.3138 43.706L88.8123 45.9493" stroke="black" strokeWidth="0.5" strokeLinecap="round"/>
<path d="M60.1479 42.4597L61.8927 43.706L61.145 45.9493" stroke="black" strokeWidth="0.5" strokeLinecap="round"/>
</g>
<g clipPath="url(#clip1_772_20965)">
<path d="M59.949 92.0643C55.6881 92.0643 52.9773 94.2696 52.4443 97.4521C51.9795 100.546 53.6573 103.567 56.5542 104.85C61.4338 106.995 66.9873 103.697 66.9873 99.0082C66.9873 94.2365 63.5374 92.0643 59.949 92.0643Z" fill="white"/>
<path d="M59.7277 105.446C58.6587 105.445 57.6019 105.222 56.627 104.791C53.7722 103.524 52.1196 100.543 52.5791 97.4936C53.1289 94.1882 55.9424 92.1367 59.9145 92.1367C63.3682 92.1367 66.8533 94.2516 66.8533 98.9796C66.8165 101.132 65.6709 103.118 63.8124 104.252C62.5978 105.032 61.1781 105.446 59.7277 105.446Z" stroke="#010202" stroke-miterlimit="10"/>
<path d="M47.5256 125.017C47.8947 121.681 47.5203 118.254 48.378 115C49.4378 110.909 52.468 107.59 56.4876 106.117C60.5072 104.749 65.3875 105.762 68.1933 108.85C70.5251 111.419 71.2496 114.979 71.5429 118.379C71.7312 120.586 71.7764 122.802 71.8216 125.017L47.5256 125.017Z" fill="white"/>
<path d="M71.1701 124.905H48.2387C47.7915 124.914 47.4216 124.565 47.4109 124.125C47.4109 124.097 47.4124 124.069 47.4155 124.04C47.5434 122.942 47.5732 121.797 47.6062 120.69C47.5832 118.745 47.7961 116.802 48.2402 114.906C49.3644 110.9 52.4306 107.701 56.4287 106.365C60.6497 104.992 65.5584 106.092 68.3665 109.045C70.8676 111.673 71.4802 115.254 71.7344 118.08C71.9159 120.097 71.958 122.137 72.0009 124.111C71.9994 124.551 71.6356 124.907 71.1884 124.906H71.1701V124.905Z" stroke="#010202" stroke-miterlimit="10"/>
</g>
<path d="M114.213 74.4558C111.686 73.1848 110.19 70.1683 110.602 67.0464C110.838 65.4508 111.55 64.1197 112.657 63.1862C113.763 62.2522 115.291 61.6939 117.196 61.6939C118.777 61.6939 120.31 62.2365 121.446 63.3578C122.579 64.4754 123.352 66.2021 123.352 68.6365C123.352 73.3192 118.472 76.5808 114.213 74.4558Z" fill="white" stroke="black" strokeWidth="0.8"/>
<path d="M90.3579 92.0643C86.0971 92.0643 83.3862 94.2696 82.8532 97.4521C82.3884 100.546 84.0662 103.567 86.9632 104.85C91.8427 106.995 97.3962 103.697 97.3962 99.0082C97.3962 94.2365 93.9463 92.0643 90.3579 92.0643Z" fill="white"/>
<path d="M90.1366 105.446C89.0676 105.445 88.0108 105.222 87.036 104.791C84.1811 103.524 82.5286 100.543 82.988 97.4936C83.5379 94.1882 86.3514 92.1367 90.3235 92.1367C93.7772 92.1367 97.2622 94.2516 97.2622 98.9796C97.2255 101.132 96.0799 103.118 94.2213 104.252C93.0068 105.032 91.587 105.446 90.1366 105.446Z" stroke="#010202" stroke-miterlimit="10"/>
<path d="M77.9346 125.017C78.3037 121.681 77.9292 118.254 78.7869 115C79.8467 110.909 82.8769 107.59 86.8965 106.117C90.9161 104.749 95.7964 105.762 98.6023 108.85C100.934 111.419 101.659 114.979 101.952 118.379C102.14 120.586 102.185 122.802 102.231 125.017L77.9346 125.017Z" fill="white"/>
<path d="M101.579 124.905H78.6476C78.2004 124.914 77.8305 124.565 77.8198 124.125C77.8198 124.097 77.8214 124.069 77.8244 124.04C77.9523 122.942 77.9822 121.797 78.0151 120.69C77.9921 118.745 78.205 116.802 78.6492 114.906C79.7733 110.9 82.8395 107.701 86.8377 106.365C91.0587 104.992 95.9673 106.092 98.7755 109.045C101.277 111.673 101.889 115.254 102.143 118.08C102.325 120.097 102.367 122.137 102.41 124.111C102.408 124.551 102.045 124.907 101.597 124.906H101.579V124.905Z" stroke="#010202" stroke-miterlimit="10"/>
<path d="M100.364 93.1428C101.668 93.0635 103.886 93.5238 102.321 96M103.407 91C102.973 91.6349 102.321 94.0952 105.364 93.381" stroke="black" strokeWidth="0.5" strokeLinecap="round"/>
<path d="M74.364 95.7143C75.6684 95.6508 77.8858 96.019 76.3205 98M77.4075 94C76.9727 94.5079 76.3205 96.4762 79.364 95.9048" stroke="black" strokeWidth="0.5" strokeLinecap="round"/>
<path d="M114.965 66.0662C112.102 65.5585 111.039 71.6513 114.965 71.1435M116.029 66.0662V68.3949M116.029 71.1386V68.3901M118.198 66.0662V68.3949M118.198 71.1386V68.3901M116.029 68.3901H118.198M119.303 71.1386V68.3901M121.104 66.0662H120.13C119.672 66.0662 119.303 66.4519 119.303 66.9206V68.3901M119.303 68.3901H120.447" stroke="black" strokeWidth="0.6576" strokeLinecap="round"/>
<path d="M30.079 74.1724C27.5519 72.9013 26.0557 69.8848 26.4677 66.763C26.7038 65.1674 27.4163 63.8362 28.5225 62.9028C29.6295 61.9688 31.1574 61.4105 33.0618 61.4105C34.6427 61.4105 36.1758 61.9531 37.3121 63.0743C38.4448 64.192 39.2176 65.9186 39.2176 68.353C39.2176 73.0357 34.3384 76.2974 30.079 74.1724Z" fill="white" stroke="black" strokeWidth="0.8"/>
<path d="M30.8314 65.7829C27.9678 65.2752 26.9045 71.3679 30.8314 70.8602M31.8946 65.7829V68.1116M31.8946 70.8553V68.1067M34.0635 65.7829V68.1116M34.0635 70.8553V68.1067M31.8946 68.1067H34.0635M35.1693 70.8553V68.1067M36.9696 65.7829H35.9962C35.5378 65.7829 35.1693 66.1686 35.1693 66.6373V68.1067M35.1693 68.1067H36.3128" stroke="black" strokeWidth="0.6576" strokeLinecap="round"/>
<path d="M48.5979 90.0765C49.6206 90.6732 51.6596 92.2278 51.6343 93.6724M49.5548 88.938C50.1611 89.9847 51.6254 92.1188 52.6316 92.2817M47.9258 90.7438C46.9196 90.5809 45.1066 89.9769 45.9045 88.8644C44.9388 88.4494 44.6523 86.6956 46.5605 86.3838C46.9786 85.5892 48.0847 84.5093 49.1641 86.5466C50.0817 86.5227 51.6604 86.8473 50.6347 88.3368" stroke="black" strokeWidth="0.5" strokeLinecap="round"/>
<defs>
<clipPath id="clip0_772_20965">
<rect width="40.3792" height="54.3375" fill="white" transform="translate(54.9136 29)"/>
</clipPath>
<clipPath id="clip1_772_20965">
<rect width="25.424" height="33.4001" fill="white" transform="translate(46.9375 91.8123)"/>
</clipPath>
</defs>
</svg>
