<svg xmlns="http://www.w3.org/2000/svg" xmlns:xlink="http://www.w3.org/1999/xlink" version="1.1" id="Layer_1" x="0px" y="0px" viewBox="0 0 200 198" style="enable-background:new 0 0 200 198;" xml:space="preserve">
    <style type="text/css">
        .st0{fill:#FFFFFF;}
        .st1{fill:#BEE8FF;}
        .st2{fill:none;stroke:#FFFFFF;stroke-miterlimit:10;}
        .st3{fill:none;stroke:#FFFFFF;stroke-width:0.7891;stroke-miterlimit:10;}
        .st4{fill:#BFE8FB;}
        .st5{fill:none;stroke:#FFFFFF;stroke-width:0.7891;}
        .st6{fill:#DFDFDE;}
        .st7{fill:none;stroke:#FFFFFF;stroke-width:0.9362;stroke-linecap:round;}
        .st8{fill:none;stroke:#FFFFFF;stroke-width:0.8955;stroke-linecap:round;}
        .st9{fill:#C1E8FB;stroke:#FFFFFF;stroke-width:0.9362;stroke-linecap:round;}
        .st10{fill:none;stroke:#FFFFFF;stroke-width:1.1794;stroke-miterlimit:10;}
        .st11{fill:none;stroke:#000000;stroke-width:0.75;stroke-miterlimit:10;}
        .st12{fill:#BEE7FA;}
        .st13{fill:none;stroke:#000000;stroke-width:0.75;}
        .st14{fill:#DEDEDD;}
        .st15{fill:none;stroke:#000000;stroke-width:1.9344;stroke-linecap:round;}
        .st16{fill:#BFE7FA;stroke:#000000;stroke-width:1.9344;}
        .st17{fill:#1A1A1A;}
        .st18{fill:none;stroke:#000000;stroke-width:1.21;stroke-linecap:round;}
        .st19{fill:#1C1C1B;}
        .st20{opacity:0.1294;}
        .st21{fill:none;stroke:#000000;stroke-width:1.0991;stroke-linecap:round;}
        .st22{fill:none;stroke:#000000;stroke-width:0.8833;stroke-miterlimit:10;}
        .st23{fill:none;stroke:#000000;stroke-width:1.3736;stroke-miterlimit:10;}
    </style>
    <g>
        <path class="st1" d="M43.18,101.28c1.41,5.18,6.28,8.48,11.46,8.95c5.5,0.47,10.83-2.83,14.13-7.07c1.26-1.57,0.47-3.93-1.73-4.08   c-3.14-0.16-6.28-0.47-9.42-0.63c0,1.57,0,3.14,0,4.71c1.1,0,2.36-0.16,3.45-0.16c2.98-0.16,2.98-4.87,0-4.71   c-4.55,0.16-9.11,0.31-13.66,0.31c-1.57,0-2.51,1.41-2.2,2.98c0.63,3.45,3.93,5.34,7.07,5.65c3.61,0.31,7.38-1.26,10.83-2.04   c2.98-0.79,1.73-5.34-1.26-4.55c-2.83,0.63-5.65,1.41-8.48,2.04c-2.2,0.63-2.2,3.93,0,4.55c0.94,0.31,1.88,0.47,2.83,0.78   c2.67,0.79,3.93-2.83,1.88-4.24c-0.16-0.16-0.31-0.16-0.31-0.31c-0.94-0.79-2.35-0.94-3.3,0c-0.79,0.79-0.94,2.51,0,3.3   c0.47,0.31,0.94,0.79,1.41,1.1c0.63-1.41,1.26-2.83,1.88-4.24c-0.94-0.31-1.88-0.47-2.83-0.78c0,1.57,0,2.98,0,4.55   c2.83-0.63,5.65-1.41,8.48-2.04c-0.47-1.57-0.79-2.98-1.26-4.55c-2.67,0.63-5.34,1.73-8.01,1.88c-1.73,0.16-3.93-0.16-4.24-2.2   c-0.79,0.94-1.57,2.04-2.2,2.98c4.55-0.16,9.11-0.31,13.66-0.31c0-1.57,0-3.14,0-4.71c-1.1,0-2.36,0.16-3.45,0.16   c-2.98,0.16-2.98,4.55,0,4.71c3.14,0.16,6.28,0.47,9.42,0.63c-0.63-1.41-1.1-2.67-1.73-4.08c-2.51,3.14-6.12,5.81-10.21,5.65   c-3.3,0-6.59-2.2-7.54-5.5C46.95,97.04,42.39,98.29,43.18,101.28z"/>
        <path class="st1" d="M130.79,101.43c0.47,5.5,5.81,8.79,11.15,8.48c2.83-0.16,5.5-0.94,8.01-2.04c2.36-0.94,5.81-2.04,6.75-4.71   c0.47-1.26,0.16-2.83-0.79-3.77c-1.1-0.94-2.51-1.1-3.93-1.26c-3.14-0.16-6.12-0.31-9.26-0.31c-2.51-0.16-5.97-0.79-8.32,0.63   c-2.51,1.57-3.3,5.02-0.94,7.07c2.2,1.88,5.81,1.41,8.48,1.26c3.3-0.31,6.44-0.94,9.58-1.88c2.51-0.79,2.04-4.55-0.63-4.55   c-4.24-0.16-8.48-0.16-12.72-0.31c-2.98,0-2.98,4.71,0,4.71c4.24,0.16,8.48,0.16,12.72,0.31c-0.16-1.57-0.47-3.14-0.63-4.55   c-3.77,1.26-7.69,1.88-11.78,1.88c-0.78,0-1.26,0-1.88-0.16c0.16,0-0.16,0,0,0c-0.16,0.16,0-0.16,0,0c0,0.16,0.16,0.63,0.16,0.47   l1.41-0.16c1.1,0,2.2,0,3.3,0.16c2.04,0.16,4.24,0.16,6.28,0.31c0.94,0,2.04,0,2.98,0.16c0.63,0,1.1,0,1.73,0c0.16,0,0.47,0,0.47,0   c-0.16-0.47-0.31-0.79-0.47-1.26c0-0.16,0.16-0.16,0.16-0.31c0,0-0.16,0.16-0.31,0.31c-0.31,0.16-0.63,0.47-1.1,0.63   c-0.79,0.47-1.73,0.78-2.67,1.26c-1.73,0.79-3.61,1.41-5.5,1.73c-2.67,0.47-7.22-0.47-7.38-3.77c-0.16-1.26-0.94-2.36-2.36-2.36   C131.89,99.08,130.63,100.18,130.79,101.43z"/>
        <path class="st23" d="M69.08,100.49c0.47,6.59-12.72,8.95-12.72,8.95c-13.03,0-12.56-9.58-12.56-9.58   c1.73-8.79,14.76-32.34,14.92-32.34c1.88,1.57,9.11,27.95,10.36,32.34C68.93,100.18,69.08,100.49,69.08,100.49z"/>
        <path d="M69.08,99.24c-8.32-1.88-16.96-1.73-25.44,0.16c-0.78,0.16-0.47,1.26,0.31,1.1c8.16-1.88,16.64-1.88,24.81-0.16   C69.56,100.49,69.87,99.39,69.08,99.24z"/>
        <path d="M68.61,99.86c-1.57,1.1-3.77,1.26-5.65,1.57c-2.2,0.31-4.4,0.63-6.59,0.63c-2.04,0.16-4.08,0-6.28,0   c-1.73-0.16-5.02,0.16-5.81-1.88c-0.31-0.63-1.41-0.31-1.1,0.31c0.78,1.88,2.51,2.36,4.4,2.51c2.51,0.31,5.18,0.47,7.69,0.31   c2.51,0,4.87-0.31,7.22-0.63c2.2-0.31,4.87-0.47,6.75-1.88C69.87,100.49,69.24,99.39,68.61,99.86z"/>
        <path d="M56.68,102.85c-0.47-11.62,0.31-23.08,2.36-34.54c0.16-0.79-0.94-1.1-1.1-0.31c-2.04,11.46-2.83,23.24-2.51,34.86   C55.58,103.63,56.68,103.63,56.68,102.85z"/>
        <path class="st23" d="M130.63,99.86c0,0-0.47,9.58,12.56,9.58c0-0.16,13.19-2.36,12.72-8.95c0,0.16-8.48-31.24-10.52-32.97   C145.55,67.36,132.52,91.07,130.63,99.86z"/>
        <path d="M131.57,100.49c7.69-1.88,15.86-1.88,23.71-0.16c0.79,0.16,1.1-0.94,0.31-1.1c-8.01-1.88-16.33-1.73-24.34,0.16   C130.47,99.55,130.79,100.65,131.57,100.49z"/>
        <path d="M155.28,99.86c-1.57,1.1-3.77,1.26-5.65,1.57c-2.04,0.31-4.24,0.63-6.44,0.63c-2.04,0.16-3.93,0-5.97,0   c-1.73-0.16-5.02,0-5.81-1.88c-0.31-0.63-1.41-0.47-1.1,0.31c0.79,1.88,2.51,2.2,4.24,2.51c2.51,0.31,5.02,0.47,7.54,0.31   c2.36,0,4.71-0.31,7.07-0.63c2.2-0.31,4.87-0.63,6.59-1.88C156.54,100.49,155.91,99.39,155.28,99.86z"/>
        <path d="M143.66,102.85c-0.47-11.62,0.31-23.08,2.36-34.54c0.16-0.79-0.94-1.1-1.1-0.31c-2.04,11.46-2.83,23.24-2.35,34.86   C142.56,103.63,143.82,103.63,143.66,102.85z"/>
        <path class="st23" d="M106.92,133.93c0,0.31,0,0.63-0.16,0.94c-0.31,0.78-1.1,1.41-2.04,1.41l-8.64,0.16   c-0.94,0-1.88-0.63-2.2-1.57c-0.16-0.31-0.16-0.63-0.16-0.94l5.5-67.36c0-0.47,0.31-0.94,0.47-1.26c0.31,0.16,0.63,0.16,1.1,0.16   h2.2c0.16,0,0.31,0,0.63,0c0.31,0.31,0.47,0.79,0.47,1.26L106.92,133.93z"/>
        <path class="st23" d="M117.76,138.64c0,2.2-7.85,4.08-17.58,4.08s-17.58-1.88-17.58-4.08c0-0.47,0.31-0.78,0.79-1.26   c1.57-1.26,5.5-2.2,10.52-2.51c0.31,0.94,1.1,1.57,2.2,1.57l8.64-0.16c0.94,0,1.73-0.63,2.04-1.41c4.87,0.47,8.48,1.41,10.05,2.51   C117.44,137.7,117.76,138.17,117.76,138.64z"/>
        <path class="st23" d="M121.05,141.63c0,3.93-9.26,7.07-20.88,7.07c-11.46,0-20.88-3.14-20.88-7.07c0-1.57,1.57-2.98,4.08-4.24   c2.51-1.26,6.28-2.04,10.52-2.51c0.31,0.94,1.1,1.57,2.2,1.57l8.64-0.16c0.94,0,1.73-0.63,2.04-1.41   c4.08,0.47,7.54,1.26,10.05,2.51C119.48,138.49,121.05,139.9,121.05,141.63z"/>
        <path d="M105.2,101.9c-2.67,1.26-5.65,1.41-8.48,0.63c-0.79-0.16-1.1,0.94-0.31,1.1c3.14,0.94,6.44,0.63,9.42-0.79   C106.45,102.53,105.98,101.59,105.2,101.9z"/>
        <path d="M96.4,107.87c2.98,0.63,5.97,0.47,8.95-0.16c0.79-0.16,0.47-1.26-0.31-1.1c-2.83,0.63-5.65,0.63-8.32,0.16   C96.09,106.61,95.78,107.71,96.4,107.87z"/>
        <path d="M101.11,120.59c1.73-0.31,3.61-0.63,5.34-0.79c0.31,0,0.47-0.47,0.47-0.78c-0.16-0.31-0.47-0.47-0.78-0.47   c-1.73,0.31-3.61,0.63-5.34,0.79c-0.31,0-0.47,0.47-0.47,0.79C100.49,120.59,100.8,120.74,101.11,120.59z"/>
        <path d="M105.82,123.1c-1.57,0.94-3.3,1.1-5.02,0.47c-0.79-0.16-1.1,0.94-0.31,1.1c2.04,0.63,4.08,0.31,5.97-0.63   C107.08,123.73,106.45,122.79,105.82,123.1z"/>
        <path d="M105.98,127.18c-1.88,0.31-3.61,0.47-5.5,0.79c-0.31,0-0.47,0.47-0.47,0.79c0.16,0.31,0.47,0.47,0.79,0.47   c1.88-0.31,3.61-0.47,5.5-0.78c0.31,0,0.47-0.47,0.47-0.79C106.61,127.34,106.3,127.18,105.98,127.18z"/>
        <path d="M100.64,99.55c0-4.08,0.16-8.16,0.16-12.25c0-0.79-1.1-0.79-1.26,0c0,4.08-0.16,8.16-0.16,12.25   C99.39,100.33,100.64,100.33,100.64,99.55z"/>
        <path class="st23" d="M106.14,59.98v2.36c0,1.57-1.1,2.83-2.51,3.14c-0.16,0-0.31,0-0.63,0h-1.88c-0.31,0-0.79,0-1.1-0.16   c-1.26-0.47-2.04-1.57-2.04-2.98v-2.36c0-0.47,0.16-0.94,0.31-1.41c0.47-1.1,1.57-1.73,2.83-1.73H103   C104.73,56.84,106.14,58.26,106.14,59.98z"/>
        <path class="st23" d="M103.16,56.84h-1.73c-0.47,0-0.78-0.31-0.78-0.78v-5.97c0-0.47,0.31-0.78,0.78-0.78h1.73   c0.47,0,0.79,0.31,0.79,0.78v5.97C103.94,56.37,103.63,56.84,103.16,56.84z"/>
        <path d="M97.5,62.81c-8.16-2.04-16.8-2.36-25.12-0.78c-4.08,0.78-8.01,2.04-11.93,3.61c-1.41,0.63-4.4,2.2-5.34,0.31   c-0.94-1.73,1.1-3.45,2.67-3.61c1.26-0.31,2.67,0.16,3.93,0c0.31,0,0.63-0.16,0.94-0.16c1.57-0.31,3.14-0.63,4.71-0.79   c5.02-0.78,10.21-1.57,15.23-2.04c2.98-0.31,5.97-0.47,8.95-0.63c2.2,0,4.71,0,6.91,0.47c0.79,0.16,1.1-0.94,0.31-1.1   c-2.04-0.47-4.08-0.63-6.12-0.63c-2.83,0-5.65,0.16-8.32,0.47c-5.5,0.47-10.99,1.26-16.49,2.2c-1.73,0.31-3.3,0.63-5.02,0.94   c-0.31,0-0.63,0.16-0.94,0.16s-0.78-0.16-1.26-0.16c-0.94,0-2.04-0.16-2.98,0.16c-1.57,0.31-2.67,1.41-3.14,2.83   c-0.47,1.41,0,2.98,1.41,3.61c1.57,0.63,3.3,0,4.71-0.63c2.04-0.94,4.24-1.73,6.44-2.51c9.89-2.98,20.57-3.3,30.46-0.78   C97.97,64.07,98.29,62.97,97.5,62.81z"/>
        <path d="M106.77,62.97c8.95-1.88,18.21-1.57,27.01,0.79c2.2,0.63,4.24,1.26,6.28,2.2c1.88,0.79,3.77,2.04,5.81,2.51   c1.41,0.31,3.14,0,3.77-1.57c0.63-1.41,0-2.98-0.94-3.93c-1.26-1.26-3.3-1.41-5.02-1.41c-0.63,0-1.1,0.16-1.57,0   c-1.41-0.31-2.83-0.63-4.24-0.94c-5.18-1.1-10.52-2.04-15.86-2.83c-3.14-0.47-6.28-0.79-9.42-0.94c-2.36-0.16-4.87-0.16-7.22,0.31   c-0.79,0.16-0.47,1.26,0.31,1.1c1.88-0.47,3.93-0.31,5.97-0.31c2.67,0.16,5.18,0.31,7.85,0.63c5.18,0.63,10.52,1.57,15.7,2.67   c1.73,0.31,3.61,0.78,5.34,1.1c0.94,0.16,1.73,0.47,2.67,0.31c1.88-0.16,4.24-0.16,5.34,1.57c0.31,0.63,0.63,1.57,0.16,2.2   c-0.63,1.1-1.88,0.78-2.83,0.63c-1.88-0.63-3.77-1.73-5.65-2.51c-1.88-0.78-3.93-1.41-5.81-2.04c-9.11-2.51-18.68-2.83-27.79-0.94   C105.82,62.02,106.14,63.12,106.77,62.97z"/>
    </g>
    </svg>