<svg width="113" height="113" viewBox="0 0 113 113" fill="none" xmlns="http://www.w3.org/2000/svg">
<path d="M16.0659 58.8357C17.0947 62.6078 20.6381 65.0083 24.4102 65.3512C28.4109 65.6941 32.2973 63.2937 34.6978 60.2074C35.6122 59.0643 35.0407 57.3498 33.4404 57.2355C31.1543 57.1212 28.8682 56.8925 26.582 56.7782C26.582 57.9213 26.582 59.0643 26.582 60.2074C27.3822 60.2074 28.2966 60.0931 29.0968 60.0931C31.2686 59.9788 31.2686 56.5496 29.0968 56.6639C25.7819 56.7782 22.467 56.8925 19.1522 56.8925C18.0091 56.8925 17.3233 57.9213 17.5519 59.0643C18.0091 61.5791 20.4095 62.9508 22.6956 63.1794C25.3247 63.408 28.068 62.2649 30.5827 61.6934C32.7546 61.1219 31.8401 57.807 29.6683 58.3785C27.6108 58.8357 25.5533 59.4073 23.4958 59.8645C21.8955 60.3217 21.8955 62.7221 23.4958 63.1794C24.1816 63.408 24.8675 63.5223 25.5533 63.7509C27.4965 64.3224 28.4109 61.6934 26.925 60.6646C26.8107 60.5503 26.6963 60.5503 26.6963 60.436C26.0105 59.8645 24.9818 59.7502 24.2959 60.436C23.7244 61.0076 23.6101 62.2649 24.2959 62.8364C24.6388 63.0651 24.9818 63.408 25.3247 63.6366C25.7819 62.6078 26.2391 61.5791 26.6963 60.5503C26.0105 60.3217 25.3247 60.2074 24.6388 59.9788C24.6388 61.1219 24.6388 62.1506 24.6388 63.2937C26.6963 62.8364 28.7539 62.2649 30.8114 61.8077C30.4684 60.6646 30.2398 59.6359 29.8969 58.4928C27.9537 58.95 26.0105 59.7502 24.0673 59.8645C22.8099 59.9788 21.2097 59.7502 20.9811 58.2642C20.4095 58.95 19.838 59.7502 19.3808 60.436C22.6956 60.3217 26.0105 60.2074 29.3254 60.2074C29.3254 59.0643 29.3254 57.9213 29.3254 56.7782C28.5252 56.7782 27.6108 56.8925 26.8107 56.8925C24.6388 57.0069 24.6388 60.2074 26.8107 60.3217C29.0968 60.436 31.3829 60.6646 33.669 60.7789C33.2118 59.7502 32.8689 58.8357 32.4116 57.807C30.5827 60.0931 27.9537 62.0363 24.9818 61.922C22.5813 61.922 20.1809 60.3217 19.4951 57.9213C18.8092 55.7495 15.4944 56.6639 16.0659 58.8357Z" fill="#BEE8FF"/>
<path d="M79.8488 58.9497C80.1917 62.9504 84.0781 65.3508 87.9645 65.1222C90.022 65.0079 91.9652 64.4364 93.7941 63.6362C95.5087 62.9504 98.0234 62.1502 98.7093 60.207C99.0522 59.2926 98.8236 58.1495 98.1377 57.4637C97.3376 56.7779 96.3088 56.6636 95.2801 56.5493C92.994 56.4349 90.8222 56.3206 88.5361 56.3206C86.7072 56.2063 84.1924 55.7491 82.4778 56.7779C80.6489 57.9209 80.0774 60.4356 81.792 61.9216C83.3923 63.2933 86.0213 62.9504 87.9645 62.8361C90.3649 62.6075 92.6511 62.1502 94.9372 61.4644C96.7661 60.8929 96.4232 58.1495 94.48 58.1495C91.3937 58.0352 88.3074 58.0352 85.2212 57.9209C83.0494 57.9209 83.0494 61.3501 85.2212 61.3501C88.3074 61.4644 91.3937 61.4644 94.48 61.5787C94.3657 60.4357 94.137 59.2926 94.0227 58.2638C91.2794 59.1783 88.4217 59.6355 85.4498 59.6355C84.8783 59.6355 84.5353 59.6355 84.0781 59.5212C84.1924 59.5212 83.9638 59.5212 84.0781 59.5212C83.9638 59.6355 84.0781 59.4069 84.0781 59.5212C84.0781 59.6355 84.1924 59.9784 84.1924 59.8641L85.2212 59.7498C86.0213 59.7498 86.8215 59.7498 87.6216 59.8641C89.1076 59.9784 90.7079 59.9784 92.1938 60.0927C92.8797 60.0927 93.6798 60.0927 94.3657 60.207C94.8229 60.207 95.1658 60.207 95.623 60.207C95.7373 60.207 95.9659 60.207 95.9659 60.207C95.8516 59.8641 95.7373 59.6355 95.623 59.2926C95.623 59.1783 95.7373 59.1783 95.7373 59.064C95.7373 59.064 95.623 59.1783 95.5087 59.2926C95.2801 59.4069 95.0515 59.6355 94.7086 59.7498C94.137 60.0927 93.4512 60.3213 92.7654 60.6643C91.508 61.2358 90.1363 61.693 88.7647 61.9216C86.8215 62.2645 83.5066 61.5787 83.3923 59.1783C83.278 58.2638 82.7065 57.4637 81.6777 57.4637C80.6489 57.2351 79.7345 58.0352 79.8488 58.9497Z" fill="#BEE8FF"/>
<path d="M34.9263 58.2635C35.2692 63.0644 25.6675 64.7789 25.6675 64.7789C16.1801 64.7789 16.523 57.8063 16.523 57.8063C17.7804 51.4052 27.2678 34.2593 27.3821 34.2593C28.7538 35.4023 34.0118 54.6057 34.9263 57.8063C34.812 58.0349 34.9263 58.2635 34.9263 58.2635Z" stroke="black" stroke-width="0.75" stroke-miterlimit="10"/>
<path d="M34.9262 57.3494C28.868 55.9777 22.5812 56.092 16.4087 57.4637C15.8372 57.578 16.0658 58.3781 16.6373 58.2638C22.5812 56.8921 28.7537 56.8921 34.6976 58.1495C35.2692 58.2638 35.4978 57.4637 34.9262 57.3494Z" fill="black"/>
<path d="M34.5833 57.8064C33.4403 58.6065 31.84 58.7208 30.4683 58.9494C28.868 59.1781 27.2678 59.4067 25.6675 59.4067C24.1815 59.521 22.6955 59.4067 21.0952 59.4067C19.8379 59.2924 17.4375 59.521 16.8659 58.035C16.6373 57.5778 15.8372 57.8064 16.0658 58.2636C16.6373 59.6353 17.8947 59.9782 19.2664 60.0925C21.0952 60.3211 23.0384 60.4354 24.8673 60.3211C26.6962 60.3211 28.4108 60.0925 30.1254 59.8639C31.7257 59.6353 33.6689 59.521 35.0406 58.4922C35.4978 58.2636 35.0406 57.4635 34.5833 57.8064Z" fill="black"/>
<path d="M25.896 59.9784C25.553 51.5198 26.1246 43.1755 27.6106 34.8312C27.7249 34.2596 26.9247 34.031 26.8104 34.6025C25.3244 42.9469 24.7529 51.5198 24.9815 59.9784C25.0958 60.55 25.896 60.55 25.896 59.9784Z" fill="black"/>
<path d="M79.7345 57.8064C79.7345 57.8064 79.3916 64.779 88.8789 64.779C88.8789 64.6647 98.4806 63.0644 98.1377 58.2636C98.1377 58.3779 91.9652 35.5167 90.4792 34.2594C90.5935 34.145 81.1061 51.4052 79.7345 57.8064Z" stroke="black" stroke-width="0.75" stroke-miterlimit="10"/>
<path d="M80.42 58.2638C86.021 56.8921 91.9649 56.8921 97.6802 58.1495C98.2517 58.2638 98.4803 57.4637 97.9088 57.3494C92.0792 55.9777 86.021 56.092 80.1914 57.4637C79.6199 57.578 79.8485 58.3781 80.42 58.2638Z" fill="black"/>
<path d="M97.6804 57.8064C96.5373 58.6065 94.937 58.7208 93.5653 58.9494C92.0794 59.1781 90.4791 59.4067 88.8788 59.4067C87.3928 59.521 86.0212 59.4067 84.5352 59.4067C83.2778 59.2924 80.8774 59.4067 80.3059 58.035C80.0773 57.5778 79.2771 57.6921 79.5057 58.2636C80.0773 59.6353 81.3346 59.8639 82.592 60.0925C84.4209 60.3211 86.2498 60.4354 88.0787 60.3211C89.7933 60.3211 91.5078 60.0925 93.2224 59.8639C94.8227 59.6353 96.7659 59.4067 98.0233 58.4922C98.5948 58.2636 98.1376 57.4635 97.6804 57.8064Z" fill="black"/>
<path d="M89.2213 59.9784C88.8784 51.5198 89.4499 43.1755 90.9359 34.8312C91.0502 34.2596 90.25 34.031 90.1357 34.6025C88.6498 42.9469 88.0782 51.5198 88.4212 59.9784C88.4212 60.55 89.3356 60.55 89.2213 59.9784Z" fill="black"/>
<path d="M62.4738 82.6113C62.4738 82.8399 62.4738 83.0686 62.3595 83.2972C62.1308 83.8687 61.5593 84.3259 60.8735 84.3259L54.5867 84.4402C53.9008 84.4402 53.215 83.983 52.9864 83.2972C52.8721 83.0686 52.8721 82.8399 52.8721 82.6113L56.8728 33.5741C56.8728 33.2312 57.1014 32.8883 57.2157 32.6597C57.4443 32.774 57.6729 32.774 58.0158 32.774H59.6161C59.7304 32.774 59.8447 32.774 60.0733 32.774C60.302 33.0026 60.4163 33.3455 60.4163 33.6884L62.4738 82.6113Z" stroke="black" stroke-width="0.75" stroke-miterlimit="10"/>
<path d="M70.3609 86.0407C70.3609 87.641 64.6456 89.0127 57.5586 89.0127C50.4716 89.0127 44.7563 87.641 44.7563 86.0407C44.7563 85.6978 44.985 85.4692 45.3279 85.1263C46.4709 84.2118 49.3286 83.526 52.9864 83.2974C53.215 83.9832 53.7865 84.4404 54.5867 84.4404L60.8735 84.3261C61.5593 84.3261 62.1308 83.8689 62.3595 83.2974C65.9029 83.6403 68.532 84.3261 69.675 85.1263C70.1323 85.3549 70.3609 85.6978 70.3609 86.0407Z" stroke="black" stroke-width="0.75" stroke-miterlimit="10"/>
<path d="M72.7613 88.2125C72.7613 91.0702 66.0173 93.3563 57.5586 93.3563C49.2143 93.3563 42.356 91.0702 42.356 88.2125C42.356 87.0695 43.499 86.0407 45.3279 85.1263C47.1568 84.2118 49.9001 83.6403 52.9864 83.2974C53.215 83.9832 53.7865 84.4404 54.5867 84.4404L60.8735 84.3261C61.5593 84.3261 62.1309 83.8689 62.3595 83.2974C65.3314 83.6403 67.8462 84.2118 69.6751 85.1263C71.6183 85.9264 72.7613 86.9551 72.7613 88.2125Z" stroke="black" stroke-width="0.75" stroke-miterlimit="10"/>
<path d="M61.217 59.2921C59.2738 60.2066 57.102 60.3209 55.0445 59.7493C54.473 59.635 54.2444 60.4352 54.8159 60.5495C57.102 61.2353 59.5025 61.0067 61.6743 59.9779C62.1315 59.7493 61.7886 59.0635 61.217 59.2921Z" fill="black"/>
<path d="M54.8156 63.6355C56.9874 64.0928 59.1593 63.9785 61.3311 63.5212C61.9026 63.4069 61.674 62.6068 61.1025 62.7211C59.045 63.1783 56.9874 63.1783 55.0442 62.8354C54.587 62.7211 54.3584 63.5212 54.8156 63.6355Z" fill="black"/>
<path d="M58.2446 72.8947C59.502 72.6661 60.8737 72.4374 62.131 72.3231C62.3596 72.3231 62.4739 71.9802 62.4739 71.7516C62.3596 71.523 62.131 71.4087 61.9024 71.4087C60.645 71.6373 59.2734 71.8659 58.016 71.9802C57.7874 71.9802 57.6731 72.3231 57.6731 72.5518C57.7874 72.8947 58.016 73.009 58.2446 72.8947Z" fill="black"/>
<path d="M61.6738 74.7233C60.5307 75.4091 59.2733 75.5234 58.016 75.0662C57.4444 74.9519 57.2158 75.752 57.7874 75.8663C59.2733 76.3235 60.7593 76.0949 62.131 75.4091C62.5882 75.1805 62.131 74.4946 61.6738 74.7233Z" fill="black"/>
<path d="M61.7885 77.6953C60.4168 77.9239 59.1594 78.0382 57.7877 78.2668C57.5591 78.2668 57.4448 78.6098 57.4448 78.8384C57.5591 79.067 57.7877 79.1813 58.0164 79.1813C59.388 78.9527 60.6454 78.8384 62.0171 78.6098C62.2457 78.6098 62.36 78.2668 62.36 78.0382C62.2457 77.8096 62.0171 77.6953 61.7885 77.6953Z" fill="black"/>
<path d="M57.902 57.5779C57.902 54.606 58.0163 51.634 58.0163 48.662C58.0163 48.0905 57.2162 48.0905 57.1019 48.662C57.1019 51.634 56.9875 54.606 56.9875 57.5779C56.9875 58.1494 57.902 58.1494 57.902 57.5779Z" fill="black"/>
<path d="M61.9026 28.7724V30.487C61.9026 31.6301 61.1025 32.5445 60.0738 32.7732C59.9594 32.7732 59.8451 32.7732 59.6165 32.7732H58.2449C58.0162 32.7732 57.6733 32.7731 57.4447 32.6588C56.5303 32.3159 55.9587 31.5158 55.9587 30.487V28.7724C55.9587 28.4295 56.073 28.0866 56.1873 27.7437C56.5303 26.9435 57.3304 26.4863 58.2449 26.4863H59.6165C60.8739 26.4863 61.9026 27.5151 61.9026 28.7724Z" stroke="black" stroke-width="0.75" stroke-miterlimit="10"/>
<path d="M59.7307 26.4867H58.4734C58.1305 26.4867 57.9019 26.2581 57.9019 25.9152V21.5715C57.9019 21.2286 58.1305 21 58.4734 21H59.7307C60.0737 21 60.3023 21.2286 60.3023 21.5715V25.9152C60.3023 26.1438 60.0737 26.4867 59.7307 26.4867Z" stroke="black" stroke-width="0.75" stroke-miterlimit="10"/>
<path d="M55.6156 30.8307C49.6717 29.3448 43.3849 29.1161 37.3267 30.2592C34.3548 30.8307 31.4971 31.7452 28.6395 32.8882C27.6107 33.3455 25.4389 34.4885 24.7531 33.1169C24.0672 31.8595 25.5532 30.6021 26.6963 30.4878C27.6107 30.2592 28.6395 30.6021 29.5539 30.4878C29.7825 30.4878 30.0111 30.3735 30.2397 30.3735C31.3828 30.1449 32.5259 29.9163 33.6689 29.802C37.3267 29.2305 41.0988 28.6589 44.7566 28.316C46.9284 28.0874 49.1002 27.9731 51.272 27.8588C52.8723 27.8588 54.7012 27.8588 56.3015 28.2017C56.873 28.316 57.1016 27.5159 56.5301 27.4016C55.0441 27.0586 53.5581 26.9443 52.0722 26.9443C50.0147 26.9443 47.9571 27.0586 46.0139 27.2873C42.0132 27.6302 38.0125 28.2017 34.0118 28.8875C32.7545 29.1161 31.6114 29.3448 30.354 29.5734C30.1254 29.5734 29.8968 29.6877 29.6682 29.6877C29.4396 29.6877 29.0967 29.5734 28.7538 29.5734C28.0679 29.5734 27.2678 29.4591 26.5819 29.6877C25.4389 29.9163 24.6387 30.7164 24.2958 31.7452C23.9529 32.7739 24.2958 33.917 25.3246 34.3742C26.4676 34.8314 27.725 34.3742 28.7538 33.917C30.2397 33.2312 31.84 32.6596 33.4403 32.0881C40.6416 29.9163 48.4144 29.6877 55.6156 31.5166C55.9586 31.7452 56.1872 30.945 55.6156 30.8307Z" fill="black"/>
<path d="M62.3598 30.9447C68.8752 29.5731 75.6193 29.8017 82.0204 31.5163C83.6207 31.9735 85.1067 32.4307 86.5927 33.1166C87.9643 33.6881 89.336 34.6025 90.822 34.9455C91.8507 35.1741 93.1081 34.9455 93.5653 33.8024C94.0225 32.7736 93.5653 31.6306 92.8795 30.9447C91.965 30.0303 90.4791 29.916 89.2217 29.916C88.7645 29.916 88.4216 30.0303 88.0786 29.916C87.0499 29.6874 86.0211 29.4588 84.9924 29.2302C81.2203 28.43 77.3339 27.7442 73.4475 27.1727C71.1614 26.8297 68.8752 26.6011 66.5891 26.4868C64.8745 26.3725 63.0456 26.3725 61.3311 26.7154C60.7595 26.8297 60.9881 27.6299 61.5597 27.5156C62.9313 27.1727 64.4173 27.287 65.9033 27.287C67.8465 27.4013 69.6754 27.5156 71.6186 27.7442C75.3907 28.2014 79.2771 28.8872 83.0492 29.6874C84.3065 29.916 85.6782 30.2589 86.9356 30.4875C87.6214 30.6018 88.1929 30.8304 88.8788 30.7161C90.2504 30.6018 91.965 30.6018 92.7652 31.8592C92.9938 32.3164 93.2224 33.0023 92.8795 33.4595C92.4223 34.2596 91.5078 34.031 90.822 33.9167C89.4503 33.4595 88.0786 32.6593 86.707 32.0878C85.3353 31.5163 83.8493 31.0591 82.4776 30.6018C75.8479 28.7729 68.8752 28.5443 62.2455 29.916C61.674 30.2589 61.9026 31.0591 62.3598 30.9447Z" fill="black"/>
</svg>
