
<svg version="1.1" id="Layer_1" xmlns="http://www.w3.org/2000/svg" xmlns:xlink="http://www.w3.org/1999/xlink" x="0px" y="0px"
	 viewBox="0 0 29 34" style="enable-background:new 0 0 29 34;" xml:space="preserve">
<style type="text/css">
	.st0{fill:#FFFFFF;}
	.st1{fill:#ACD4F7;}
	.st2{opacity:0.1294;}
</style>
<g>
	<g>
		<path class="st0" d="M28.35,33.79c0-7.82-6.96-9.98-13.04-10.06C6.38,23.63,0.11,27.71,0.69,33.7
			C10.25,33.81,19.51,33.77,28.35,33.79z"/>
		<path d="M28.35,34C28.35,34,28.35,34,28.35,34c-2.64-0.01-5.32-0.01-8.04-0.01c-6.35,0-12.92-0.01-19.62-0.09
			c-0.11,0-0.19-0.08-0.2-0.19c-0.21-2.2,0.48-4.24,2.02-5.91c2.56-2.79,7.23-4.35,12.81-4.28c2.5,0.03,6.08,0.43,8.9,2.15
			c2.88,1.76,4.34,4.49,4.34,8.11c0,0.05-0.02,0.11-0.06,0.15C28.45,33.98,28.4,34,28.35,34z M0.88,33.49
			c6.64,0.08,13.14,0.08,19.43,0.09c2.64,0,5.26,0,7.83,0.01c-0.05-3.36-1.45-5.9-4.14-7.55c-2.74-1.68-6.24-2.06-8.69-2.09
			c-5.47-0.07-10.02,1.44-12.5,4.14C1.4,29.62,0.73,31.48,0.88,33.49z"/>
	</g>
	<g>
		<path class="st1" d="M9.88,16.54c-0.52-0.62-0.76-1.43-0.93-2.22C8.22,11,8.47,7.14,8.47,7.14s0.92-0.57,1.25-0.81
			c0.59-0.43,1.19-0.86,1.86-1.14c1.62-0.68,3.44-0.5,5.18-0.28c0.97,0.12,1.94,0.25,2.88,0.51c0.51,0.14,1.02,0.33,1.42,0.68
			c0.65,0.57,1.4,1.96,1.4,1.96s-0.36,5.86-1.61,8.25c-0.11,0.21-0.23,0.42-0.39,0.6c-0.22,0.25-0.5,0.42-0.79,0.57
			c-1.28,0.64-2.77,0.72-4.19,0.56c-0.59-0.07-1.18-0.17-1.73-0.41c-0.32-0.14-0.62-0.32-0.94-0.44c-0.71-0.24-1.51-0.15-2.18-0.47
			C9.95,16.4,9.52,15.69,9.88,16.54z"/>
		<path d="M16.67,18.32c-0.39,0-0.79-0.02-1.21-0.07c-0.51-0.06-1.17-0.16-1.79-0.43c-0.13-0.06-0.25-0.12-0.37-0.18
			c-0.19-0.1-0.37-0.19-0.56-0.25c-0.29-0.1-0.61-0.14-0.94-0.18c-0.42-0.05-0.86-0.11-1.26-0.3c-0.18-0.08-0.33-0.19-0.47-0.29
			c-0.02,0.04-0.04,0.07-0.08,0.09c-0.09,0.05-0.2,0.04-0.27-0.04c-0.55-0.65-0.79-1.5-0.97-2.31c-0.73-3.3-0.49-7.2-0.49-7.23
			c0-0.07,0.04-0.13,0.1-0.16C8.37,6.96,9.27,6.4,9.6,6.16c0.58-0.43,1.2-0.87,1.9-1.16c1.61-0.68,3.42-0.53,5.28-0.29
			c1.05,0.13,1.99,0.26,2.91,0.52c0.46,0.13,1.04,0.33,1.5,0.73c0.67,0.59,1.41,1.96,1.45,2.02c0.02,0.03,0.03,0.07,0.02,0.11
			c-0.01,0.24-0.38,5.93-1.64,8.33c-0.11,0.2-0.24,0.44-0.42,0.64c-0.2,0.23-0.48,0.43-0.85,0.61
			C18.89,18.11,17.86,18.32,16.67,18.32z M9.76,15.93c0.11,0,0.22,0.09,0.35,0.19c0.15,0.13,0.37,0.3,0.61,0.42
			c0.34,0.16,0.73,0.21,1.13,0.26c0.34,0.04,0.69,0.09,1.03,0.2c0.21,0.07,0.41,0.18,0.61,0.27c0.12,0.06,0.23,0.12,0.35,0.17
			c0.57,0.25,1.19,0.34,1.67,0.4c1.62,0.18,2.99,0,4.07-0.54c0.33-0.16,0.56-0.33,0.73-0.52c0.15-0.17,0.26-0.38,0.36-0.56
			c1.15-2.2,1.55-7.49,1.59-8.11c-0.14-0.25-0.78-1.38-1.33-1.86c-0.39-0.34-0.9-0.52-1.34-0.64c-0.89-0.25-1.82-0.38-2.85-0.51
			c-1.88-0.24-3.55-0.38-5.07,0.26C11,5.66,10.4,6.08,9.84,6.49C9.56,6.7,8.91,7.11,8.67,7.26c-0.03,0.64-0.16,4.07,0.49,7.01
			c0.13,0.57,0.28,1.16,0.56,1.66C9.73,15.93,9.75,15.93,9.76,15.93z"/>
	</g>
	<g>
		<path class="st0" d="M18.29,18.51c0.09,2.62,0.4,5.23,0.93,7.8c0.04,0.21,0.09,0.44,0.03,0.65c-0.06,0.22-0.23,0.38-0.39,0.53
			c-1.13,1.03-2.64,1.69-4.16,1.58c-1.51-0.11-2.99-1.09-3.42-2.69c0.23-2.21,0.72-5.32,0.89-8.83C14.09,18,16.05,18.26,18.29,18.51
			z"/>
		<path d="M15.04,29.29c-0.12,0-0.24,0-0.36-0.01c-1.74-0.13-3.19-1.27-3.61-2.85c-0.01-0.02-0.01-0.05-0.01-0.07
			c0.07-0.65,0.16-1.38,0.25-2.15c0.23-1.87,0.52-4.19,0.64-6.67c0-0.06,0.03-0.12,0.08-0.15c0.05-0.04,0.11-0.05,0.17-0.04
			c1.83,0.44,3.69,0.7,6.09,0.97c0.1,0.01,0.18,0.1,0.18,0.2c0.09,2.6,0.4,5.22,0.93,7.77c0.05,0.23,0.1,0.49,0.03,0.75
			c-0.07,0.26-0.26,0.46-0.45,0.63C17.84,28.7,16.42,29.29,15.04,29.29z M11.49,26.36c0.45,1.6,1.94,2.41,3.23,2.51
			c1.37,0.1,2.83-0.45,4-1.52c0.13-0.12,0.28-0.27,0.33-0.44c0.05-0.16,0.01-0.36-0.03-0.55c-0.52-2.51-0.83-5.09-0.93-7.66
			c-2.23-0.25-4-0.5-5.72-0.9c-0.13,2.4-0.41,4.64-0.63,6.45C11.64,25.01,11.55,25.72,11.49,26.36z"/>
	</g>
	<g>
		<path class="st0" d="M21.03,10.29c-0.03,0.31-0.05,1.09-0.06,1.4c0.23-0.96,2.32-0.9,2.02,0.71c-0.2,1.06-1.04,1.74-2.05,1.38
			c0.02,0.59,0.09,0.86,0.06,1.45c-0.08,1.64-0.53,3.36-1.84,4.54c-1.15,1.04-2.92,1.55-4.59,1.33c-1.67-0.22-3.21-1.17-3.99-2.47
			c-0.74-1.22-0.74-3.79-0.79-5.08c-0.75,0.07-1.57-0.21-1.99-0.76c-0.42-0.55-0.37-1.35,0.17-1.8c0.54-0.45,1.21-0.48,1.92,0.27
			c0.01-1.06,0.24-2.08,0.35-2.55c0.29-1.27,0.42-3.18,1.33-3.68c0.51-0.28,1.58-0.49,2.18-0.61c1.03-0.21,2.41,0.53,3.47,0.59
			c1.06,0.06,2.12,0.64,2.95,1.23C21.13,6.94,21.16,9.06,21.03,10.29z"/>
		<path d="M15.35,21.36c-0.27,0-0.54-0.02-0.81-0.05c-1.74-0.23-3.33-1.21-4.14-2.57c-0.69-1.14-0.76-3.31-0.81-4.74
			c0-0.08-0.01-0.15-0.01-0.23c-0.78,0.01-1.55-0.32-1.96-0.85c-0.51-0.66-0.42-1.57,0.2-2.08c0.36-0.29,1.04-0.64,1.86-0.02
			c0.05-0.89,0.24-1.69,0.33-2.11l0.01-0.03c0.06-0.26,0.11-0.55,0.17-0.85c0.21-1.18,0.46-2.52,1.26-2.96
			c0.52-0.29,1.55-0.5,2.17-0.62l0.07-0.01c0.66-0.13,1.41,0.08,2.15,0.29c0.49,0.14,0.96,0.27,1.37,0.3
			c0.92,0.05,1.95,0.48,3.06,1.27c1.26,0.9,1.03,3.69,0.97,4.24l0,0c-0.02,0.16-0.03,0.46-0.04,0.75c0.3-0.19,0.7-0.25,1.05-0.17
			c0.55,0.12,1.12,0.59,0.94,1.55c-0.12,0.64-0.46,1.16-0.94,1.44c-0.33,0.19-0.71,0.25-1.09,0.18c0.01,0.1,0.01,0.2,0.02,0.29
			c0.02,0.27,0.04,0.52,0.03,0.9c-0.1,2.05-0.75,3.63-1.91,4.68C18.29,20.84,16.83,21.36,15.35,21.36z M9.78,13.34
			c0.05,0,0.1,0.02,0.14,0.05c0.04,0.04,0.07,0.09,0.07,0.15c0.01,0.13,0.01,0.28,0.02,0.44c0.04,1.31,0.11,3.49,0.75,4.54
			c0.75,1.25,2.23,2.16,3.84,2.37c1.62,0.21,3.31-0.28,4.42-1.28c1.08-0.98,1.68-2.46,1.77-4.4c0.02-0.35,0-0.58-0.02-0.84
			c-0.01-0.18-0.03-0.36-0.04-0.59c0-0.07,0.03-0.13,0.08-0.17c0.05-0.04,0.13-0.05,0.19-0.03c0.37,0.13,0.73,0.11,1.04-0.07
			c0.37-0.21,0.64-0.63,0.74-1.15c0.16-0.84-0.43-1.04-0.62-1.08c-0.41-0.09-0.91,0.07-0.99,0.45c-0.02,0.1-0.12,0.17-0.23,0.16
			c-0.1-0.01-0.18-0.1-0.18-0.21l0-0.12c0.01-0.38,0.03-1.01,0.06-1.29c0.15-1.41,0.03-3.27-0.8-3.86c-1.04-0.74-2-1.14-2.84-1.19
			c-0.46-0.03-0.97-0.17-1.46-0.31c-0.68-0.19-1.39-0.39-1.95-0.28L13.7,4.64c-0.59,0.12-1.58,0.32-2.05,0.58
			c-0.63,0.35-0.86,1.58-1.06,2.68c-0.06,0.31-0.11,0.6-0.17,0.87l-0.01,0.03c-0.11,0.47-0.33,1.46-0.34,2.47
			c0,0.08-0.05,0.16-0.13,0.19c-0.08,0.03-0.17,0.01-0.23-0.05c-0.57-0.61-1.11-0.69-1.64-0.25c-0.45,0.37-0.51,1.03-0.14,1.51
			c0.37,0.48,1.09,0.75,1.81,0.68C9.77,13.34,9.78,13.34,9.78,13.34z M21.03,10.29L21.03,10.29L21.03,10.29z"/>
	</g>
	<g>
		<path d="M15.7,19.2c-0.49,0-0.99-0.18-1.36-0.51c-0.09-0.08-0.09-0.21-0.02-0.29c0.08-0.09,0.21-0.09,0.29-0.02
			c0.46,0.41,1.17,0.52,1.73,0.27c0.1-0.05,0.23,0,0.27,0.11c0.05,0.1,0,0.23-0.11,0.27C16.25,19.15,15.97,19.2,15.7,19.2z"/>
	</g>
	<g>
		<path d="M18.53,12.41c0.01-0.19-0.15-0.35-0.34-0.35c-0.19-0.01-0.36,0.14-0.36,0.33c-0.01,0.19,0.15,0.35,0.34,0.35
			C18.36,12.75,18.53,12.6,18.53,12.41z"/>
	</g>
	<g>
		<path d="M13.02,12.41c0.01-0.19-0.15-0.35-0.34-0.35c-0.19-0.01-0.36,0.14-0.36,0.33c-0.01,0.19,0.15,0.35,0.34,0.35
			C12.85,12.75,13.02,12.6,13.02,12.41z"/>
	</g>
	<g>
		<path d="M15.49,17.15c-0.34,0-0.7-0.1-1.06-0.3c-0.15-0.08-0.31-0.19-0.42-0.36c-0.14-0.22-0.16-0.52-0.05-0.82
			c0.07-0.2,0.19-0.38,0.3-0.54l0.05-0.07c0.58-0.87,0.96-1.89,1.11-2.94c0.02-0.11,0.12-0.19,0.23-0.18
			c0.11,0.02,0.19,0.12,0.18,0.23c-0.15,1.11-0.56,2.18-1.17,3.11l-0.05,0.08c-0.1,0.15-0.2,0.3-0.26,0.45
			c-0.06,0.18-0.06,0.35,0.01,0.46c0.06,0.09,0.17,0.16,0.27,0.22c0.31,0.17,0.6,0.25,0.88,0.25c0.31,0,0.59-0.12,0.77-0.32
			c0.08-0.09,0.21-0.09,0.29-0.02c0.09,0.08,0.09,0.21,0.02,0.29c-0.26,0.29-0.65,0.46-1.07,0.46
			C15.51,17.15,15.5,17.15,15.49,17.15z"/>
	</g>
	<g>
		<path d="M9.91,12.35c-0.11,0-0.2-0.09-0.21-0.2c-0.02-0.37-0.02-0.57-0.03-0.92c0-0.11,0.09-0.21,0.2-0.21c0,0,0,0,0,0
			c0.11,0,0.2,0.09,0.21,0.2c0.01,0.35,0.01,0.55,0.03,0.91c0.01,0.11-0.08,0.21-0.19,0.22C9.92,12.35,9.91,12.35,9.91,12.35z"/>
	</g>
	<g>
		<path d="M21,12.81c-0.11,0-0.2-0.09-0.21-0.2c-0.02-0.37-0.02-0.57-0.03-0.92c0-0.11,0.09-0.21,0.2-0.21
			c0.12,0,0.21,0.09,0.21,0.2c0.01,0.35,0.01,0.55,0.03,0.91c0.01,0.11-0.08,0.21-0.19,0.22C21.01,12.81,21,12.81,21,12.81z"/>
	</g>
	<g>
		<path class="st1" d="M18.99,8.76c0.37,0.77,1.58,0.74,2.36,0.32c0.53-0.28,0.99-0.7,1.23-1.23c0.24-0.53,0.21-1.18-0.15-1.63
			C23.39,5.45,23.7,4,23.03,3c-0.67-1-2.28-1.31-3.28-0.58c-0.04-1.09-1.04-2.06-2.19-2.13c-1.15-0.07-2.29,0.76-2.52,1.83
			c0.13-1.17-1.27-2.13-2.48-1.86c-1.21,0.26-2.04,1.45-2.12,2.62C9.55,2.38,8.24,2.8,7.81,3.71C7.39,4.62,7.96,5.81,8.95,6.1
			C8.56,6.27,8.4,6.74,8.47,7.14c0.07,0.4,0.32,0.75,0.58,1.07C9.3,8.53,9.58,8.86,9.97,9.04c0.77,0.36,1.84-0.06,2.12-0.84
			c0.15,1.02,1.48,1.56,2.52,1.26c1.04-0.29,1.8-1.16,2.33-2.06C16.84,8.38,17.98,9.26,18.99,8.76z"/>
		<path d="M14.02,9.75c-0.48,0-0.97-0.13-1.36-0.39c-0.27-0.18-0.49-0.4-0.62-0.66c-0.18,0.22-0.43,0.41-0.72,0.53
			c-0.49,0.2-1.01,0.2-1.44,0c-0.43-0.2-0.72-0.55-0.99-0.89C8.61,8,8.34,7.62,8.26,7.17C8.2,6.83,8.29,6.43,8.54,6.15
			c-0.38-0.2-0.7-0.54-0.89-0.96C7.41,4.67,7.4,4.1,7.63,3.62C7.85,3.14,8.3,2.76,8.86,2.57c0.48-0.16,0.98-0.16,1.42-0.01
			c0.2-1.23,1.1-2.27,2.25-2.52c0.71-0.15,1.53,0.08,2.1,0.59c0.23,0.21,0.41,0.45,0.51,0.71c0.49-0.8,1.46-1.34,2.44-1.27
			c1.14,0.07,2.13,0.94,2.34,2c0.47-0.24,1.04-0.32,1.61-0.22c0.71,0.12,1.32,0.5,1.67,1.03c0.68,1.02,0.45,2.49-0.5,3.37
			c0.29,0.48,0.32,1.12,0.06,1.68c-0.3,0.67-0.88,1.09-1.32,1.33c-0.59,0.32-1.33,0.41-1.89,0.23c-0.28-0.09-0.51-0.25-0.66-0.47
			c-0.48,0.17-1.01,0.1-1.46-0.2c-0.31-0.21-0.53-0.5-0.63-0.82c-0.63,0.89-1.35,1.45-2.14,1.67C14.46,9.72,14.24,9.75,14.02,9.75z
			 M12.09,7.99c0.01,0,0.01,0,0.02,0C12.2,8,12.28,8.07,12.29,8.17c0.06,0.42,0.36,0.69,0.59,0.84c0.47,0.31,1.13,0.4,1.67,0.25
			c0.83-0.23,1.57-0.89,2.21-1.96c0.05-0.08,0.15-0.12,0.24-0.09c0.09,0.03,0.15,0.12,0.14,0.22c-0.04,0.39,0.16,0.79,0.53,1.05
			c0.37,0.26,0.83,0.29,1.22,0.1c0.05-0.02,0.11-0.03,0.16-0.01c0.05,0.02,0.1,0.06,0.12,0.11c0.1,0.2,0.27,0.34,0.52,0.42
			c0.44,0.14,1.07,0.07,1.56-0.2c0.54-0.29,0.94-0.69,1.14-1.13c0.22-0.49,0.17-1.05-0.12-1.42c-0.03-0.04-0.05-0.1-0.04-0.15
			c0.01-0.05,0.03-0.1,0.08-0.14C23.2,5.34,23.45,4,22.86,3.11c-0.29-0.44-0.81-0.75-1.4-0.85c-0.58-0.1-1.16,0.01-1.58,0.32
			c-0.06,0.04-0.14,0.05-0.21,0.02c-0.07-0.03-0.11-0.1-0.12-0.18c-0.04-0.98-0.95-1.87-1.99-1.94c-1.05-0.07-2.1,0.7-2.3,1.67
			c-0.02,0.11-0.13,0.18-0.23,0.16c-0.11-0.02-0.18-0.12-0.17-0.23c0.05-0.41-0.13-0.82-0.49-1.15c-0.47-0.42-1.15-0.62-1.74-0.49
			c-1.04,0.23-1.88,1.27-1.96,2.43c0,0.07-0.04,0.13-0.11,0.17c-0.06,0.03-0.14,0.03-0.2,0C9.97,2.84,9.47,2.81,8.99,2.97
			C8.54,3.12,8.17,3.42,8,3.79C7.83,4.16,7.84,4.61,8.02,5.02c0.2,0.44,0.56,0.76,0.99,0.88C9.09,5.92,9.15,6,9.16,6.08
			c0.01,0.09-0.04,0.17-0.12,0.2C8.73,6.42,8.62,6.81,8.67,7.1c0.06,0.36,0.3,0.68,0.54,0.98c0.24,0.3,0.5,0.61,0.85,0.77
			C10.37,9,10.79,9,11.16,8.85c0.36-0.15,0.62-0.41,0.73-0.72C11.92,8.05,12,7.99,12.09,7.99z"/>
	</g>
	<g>
		<path class="st0" d="M15.74,33.73c0.21-0.01,0.43-0.01,0.65-0.02c-0.13-0.82-0.27-1.65-0.41-2.47c-0.66-0.46-1-0.3-1.16-0.04
			c-0.16,0.26-0.18,0.59-0.21,0.9c-0.05,0.57-0.13,1.11-0.22,1.67C14.84,33.75,15.29,33.75,15.74,33.73z"/>
		<path d="M14.39,33.98c-0.06,0-0.11-0.02-0.15-0.07c-0.04-0.05-0.06-0.11-0.05-0.17c0.09-0.58,0.17-1.1,0.22-1.66l0-0.02
			c0.03-0.31,0.06-0.67,0.24-0.97c0.11-0.18,0.27-0.3,0.46-0.34c0.28-0.06,0.61,0.05,0.99,0.32c0.04,0.03,0.08,0.08,0.08,0.13
			c0.14,0.82,0.28,1.65,0.41,2.47c0.01,0.06-0.01,0.12-0.04,0.16c-0.04,0.05-0.09,0.07-0.15,0.07c-0.21,0.01-0.43,0.01-0.64,0.02
			c-0.17,0.01-0.35,0.01-0.52,0.01c-0.27,0.01-0.55,0.01-0.82,0.03C14.4,33.98,14.4,33.98,14.39,33.98z M15.26,31.16
			c-0.03,0-0.05,0-0.07,0.01c-0.08,0.02-0.14,0.06-0.19,0.15c-0.13,0.21-0.15,0.51-0.18,0.79l0,0.02c-0.04,0.49-0.11,0.95-0.18,1.43
			c0.2-0.01,0.4-0.01,0.59-0.02c0.17,0,0.34-0.01,0.51-0.01l0,0c0.14-0.01,0.27-0.01,0.41-0.01c-0.12-0.72-0.24-1.43-0.36-2.15
			C15.54,31.2,15.37,31.16,15.26,31.16z"/>
	</g>
	<g>
		<path class="st0" d="M14.64,28.47c0.31-0.24,0.73-0.23,1.07-0.1c0.5,0.2,0.93,0.48,1.04,1.02c0.03,0.14-0.22,0.72-0.35,0.93
			c-0.15,0.25-0.55,0.71-0.9,0.75c-0.3,0.03-0.58-0.14-0.81-0.34c-0.42-0.36-0.76-0.9-0.65-1.44
			C14.12,28.98,14.34,28.71,14.64,28.47z"/>
		<path d="M15.43,31.29c-0.28,0-0.56-0.13-0.87-0.39c-0.56-0.48-0.83-1.1-0.71-1.64c0.07-0.35,0.29-0.66,0.67-0.95
			c0.33-0.26,0.81-0.31,1.27-0.13c0.43,0.17,1.03,0.47,1.17,1.17c0.05,0.26-0.3,0.96-0.37,1.08c-0.17,0.27-0.6,0.8-1.05,0.85
			C15.5,31.29,15.46,31.29,15.43,31.29z M15.23,28.48c-0.16,0-0.33,0.04-0.46,0.15l0,0c-0.3,0.23-0.46,0.47-0.52,0.71
			c-0.12,0.58,0.41,1.1,0.58,1.24c0.25,0.21,0.47,0.31,0.65,0.29c0.24-0.03,0.59-0.4,0.74-0.66c0.12-0.2,0.31-0.68,0.32-0.8
			c-0.08-0.38-0.36-0.65-0.91-0.86C15.52,28.51,15.38,28.48,15.23,28.48z M16.55,29.41L16.55,29.41L16.55,29.41z M14.64,28.47
			L14.64,28.47L14.64,28.47z"/>
	</g>
	<g>
		<path class="st0" d="M14.77,28.28c-0.73,0.99-1.46,1.99-2.34,3.01c-1.16-2.16-2.34-4.39-2.9-6.79c0.47-0.24,1.47-0.96,1.94-1.19
			c-0.12,0.52-0.03,0.98,0.04,1.14C11.55,24.55,13.56,27.18,14.77,28.28z"/>
		<path d="M12.42,31.5c-0.01,0-0.02,0-0.02,0c-0.07-0.01-0.13-0.05-0.16-0.11c-1.09-2.04-2.33-4.34-2.92-6.84
			c-0.02-0.09,0.02-0.19,0.11-0.23c0.22-0.11,0.59-0.35,0.95-0.59c0.38-0.25,0.75-0.48,0.99-0.61c0.07-0.04,0.16-0.03,0.22,0.02
			c0.06,0.05,0.09,0.13,0.07,0.21c-0.11,0.45-0.03,0.86,0.03,1c0.13,0.2,2.04,2.7,3.22,3.77c0.08,0.07,0.09,0.19,0.03,0.27
			c-0.72,0.98-1.47,1.99-2.35,3.02C12.54,31.47,12.48,31.5,12.42,31.5z M9.76,24.61c0.57,2.28,1.68,4.42,2.7,6.32
			c0.75-0.89,1.4-1.77,2.03-2.62c-1.18-1.13-3.1-3.6-3.18-3.77c-0.07-0.15-0.14-0.47-0.12-0.84c-0.18,0.11-0.39,0.25-0.59,0.38
			C10.29,24.28,9.99,24.48,9.76,24.61z"/>
	</g>
	<g class="st2">
		<path d="M15.21,31.13c0.1-0.09,0.21-0.2,0.33-0.22c0.34-0.07,0.52,0.42,0.22,0.61c-0.22,0.17-0.34,0.26-0.4,0.33
			c-0.08,0.09-0.15,0.2-0.28,0.21c-0.2,0.05-0.38-0.16-0.36-0.35c-0.03-0.29,0.01-0.33-0.04-0.48
			C14.58,30.83,15.14,30.74,15.21,31.13z"/>
	</g>
	<g class="st2">
		<path d="M12.55,31.06c0.08-0.14,0.24-0.21,0.34-0.33c0.24-0.24,0.51-0.55,0.58-0.67c0.06-0.08,0.12-0.17,0.17-0.25
			c0.05-0.09,0.1-0.19,0.21-0.22c0.23-0.08,0.46,0.2,0.33,0.42c-0.03,0.05-0.06,0.1-0.09,0.15c0.02-0.01,0.05-0.02,0.08-0.02
			c0.3-0.06,0.46,0.37,0.2,0.54c-0.32,0.19-0.62,0.4-0.93,0.6c-0.3,0.18-0.53,0.3-0.68,0.34C12.44,31.67,12.28,31.22,12.55,31.06z"
			/>
	</g>
	<g class="st2">
		<path d="M16.43,30.11c0.07-0.14,0.13-0.29,0.21-0.43c0.04-0.07,0.06-0.16,0.13-0.21c0.17-0.15,0.39-0.05,0.46,0.12
			c0.01,0,0.02,0,0.03,0c0.12,0.03,0.2,0.14,0.28,0.22c0.14,0.15,0.13,0.18,0.15,0.23c0,0,0,0,0,0.01c0.02,0.04,0.04,0.07,0.05,0.11
			c0.12,0.04,0.25,0.09,0.37,0.15c0.18,0.09,0.4,0.13,0.55,0.28c0.2,0.24-0.09,0.59-0.35,0.43c-0.2-0.11-0.43-0.17-0.79-0.31
			c-0.21-0.07-0.42-0.09-0.63-0.13c-0.05-0.01-0.1-0.04-0.14-0.06C16.53,30.6,16.3,30.35,16.43,30.11z"/>
	</g>
	<g>
		<path class="st0" d="M18.79,23.74c-0.57,1.54-1.81,3.68-3.12,4.53c0.74,0.62,1.67,1.61,3.22,2.72c0.46-2.75,0.98-4.06,1.25-6.2
			C19.79,24.53,19.24,23.99,18.79,23.74z"/>
		<path d="M18.9,31.19c-0.04,0-0.08-0.01-0.12-0.04c-1.1-0.79-1.89-1.51-2.53-2.1c-0.27-0.24-0.49-0.45-0.71-0.64
			c-0.05-0.04-0.08-0.11-0.07-0.17c0-0.07,0.04-0.12,0.09-0.16c1.22-0.79,2.45-2.82,3.04-4.43c0.02-0.06,0.07-0.1,0.12-0.12
			c0.06-0.02,0.12-0.02,0.17,0.02c0.29,0.17,0.61,0.44,0.9,0.68c0.17,0.14,0.33,0.28,0.46,0.37c0.06,0.04,0.09,0.12,0.08,0.19
			c-0.14,1.15-0.35,2.05-0.6,3.08c-0.2,0.87-0.44,1.85-0.65,3.13c-0.01,0.07-0.06,0.13-0.12,0.16
			C18.95,31.19,18.92,31.19,18.9,31.19z M16.01,28.28c0.16,0.14,0.33,0.3,0.52,0.47c0.57,0.53,1.27,1.17,2.22,1.87
			c0.2-1.13,0.41-2.03,0.6-2.83c0.23-0.99,0.43-1.84,0.57-2.92c-0.12-0.09-0.25-0.2-0.39-0.32c-0.2-0.17-0.43-0.36-0.64-0.51
			C18.29,25.57,17.16,27.4,16.01,28.28z"/>
	</g>
	<g>
		<path d="M14.54,29.77c-0.02,0-0.04-0.01-0.05-0.02c-0.03-0.03-0.03-0.07,0-0.1c0.29-0.29,0.56-0.59,0.82-0.91
			c0.02-0.03,0.07-0.03,0.1-0.01c0.03,0.02,0.03,0.07,0.01,0.1c-0.26,0.32-0.54,0.63-0.83,0.92C14.57,29.76,14.56,29.77,14.54,29.77
			z"/>
	</g>
	<g>
		<path d="M14.88,30.25c-0.02,0-0.04-0.01-0.05-0.03c-0.02-0.03-0.02-0.07,0.01-0.1c0.38-0.3,0.7-0.66,0.96-1.08
			c0.02-0.03,0.06-0.04,0.09-0.02c0.03,0.02,0.04,0.06,0.02,0.09c-0.27,0.43-0.6,0.8-0.99,1.11C14.91,30.24,14.89,30.25,14.88,30.25
			z"/>
	</g>
	<g>
		<path d="M15.45,30.54c-0.02,0-0.04-0.01-0.05-0.03c-0.02-0.03-0.02-0.07,0.01-0.1c0.22-0.17,0.41-0.38,0.57-0.6
			c0.02-0.03,0.07-0.04,0.1-0.01c0.03,0.02,0.04,0.07,0.01,0.1c-0.17,0.23-0.37,0.45-0.6,0.63C15.48,30.54,15.46,30.54,15.45,30.54z
			"/>
	</g>
	<g>
		<path d="M14.86,32.82c-0.01,0-0.03,0-0.04-0.01c-0.03-0.02-0.04-0.06-0.02-0.1c0.27-0.39,0.55-0.77,0.84-1.14
			c0.02-0.03,0.07-0.04,0.1-0.01c0.03,0.02,0.04,0.07,0.01,0.1c-0.29,0.37-0.57,0.75-0.84,1.14C14.9,32.81,14.88,32.82,14.86,32.82z
			"/>
	</g>
	<g>
		<path d="M15.11,33.46c-0.01,0-0.03,0-0.04-0.01c-0.03-0.02-0.04-0.06-0.02-0.1l0.67-1.03c0.02-0.03,0.06-0.04,0.09-0.02
			c0.03,0.02,0.04,0.06,0.02,0.09l-0.67,1.03C15.16,33.45,15.14,33.46,15.11,33.46z"/>
	</g>
	<g>
		<g class="st2">
			<path d="M21.97,8.59c-0.34,0.16-0.48,0.42-0.9,0.64c-0.02,0.01-0.03,0.02-0.05,0.02C21,9.27,20.98,9.28,20.96,9.28
				c-0.13,0.05-0.25,0.09-0.38,0.12c-0.12,0.02-0.25,0.05-0.34,0.12c-0.12,0-0.08,0-0.33-0.07c-0.36-0.2-0.33-0.19-0.55-0.39
				c-0.13-0.16-0.33-0.26-0.54-0.2c-0.1,0.03-0.19,0.09-0.25,0.17c-0.01,0-0.02,0-0.03,0.01c-0.02,0-0.05,0-0.07,0
				c-0.4-0.08-0.33-0.07-0.7-0.28c-0.01-0.01-0.02-0.01-0.03-0.02c-0.1-0.09-0.19-0.19-0.27-0.3c-0.19-0.24-0.28-0.63-0.58-0.72
				c-0.31-0.1-0.61,0.22-0.55,0.52c-0.06,0.08-0.09,0.11-0.22,0.27C16,8.62,15.87,8.75,15.73,8.87C15.56,9,15.37,9.11,15.17,9.2
				c-0.01,0-0.01,0.01-0.02,0.01c0.01,0,0.01,0-0.02,0.01c-0.25,0.1-0.52,0.18-0.79,0.23c-0.13,0.02-0.31,0.05-0.64,0.04
				c-0.22-0.05-0.43-0.11-0.63-0.19c-0.01,0-0.01-0.01-0.02-0.01c-0.42-0.26-0.2-0.14-0.5-0.35c-0.02-0.02-0.04-0.03-0.06-0.05
				c-0.01-0.01-0.02-0.02-0.05-0.05c-0.03-0.06-0.06-0.12-0.11-0.16c-0.01-0.01-0.02-0.02-0.03-0.02c-0.15-0.17-0.42-0.16-0.57-0.01
				c-0.03,0.02-0.05,0.04-0.06,0.06c-0.01,0.01-0.02,0.02-0.04,0.03c-0.02,0.01-0.06,0.05-0.11,0.08c0,0-0.01,0.01-0.01,0.01
				c-0.06,0.04-0.13,0.07-0.19,0.1c-0.01,0-0.02,0.01-0.03,0.01c-0.08,0.03-0.32,0.11-0.39,0.11c-0.04,0.01-0.08,0.01-0.12,0.02
				c-0.01,0-0.04,0-0.07,0c-0.03,0-0.07,0-0.1,0c-0.01,0-0.02,0-0.04-0.01c-0.17-0.05-0.36-0.08-0.51,0.02
				c-0.01,0.01-0.02,0.01-0.03,0.02C9.87,8.97,9.76,8.84,9.53,8.55C9.17,8.14,9.14,8.04,8.85,7.72c-0.32-0.27-0.77,0.14-0.56,0.5
				c0.45,0.6,0.86,1.32,1.58,1.61c0.03,0.01,0.07,0.03,0.1,0.04c0.06,0.06,0.13,0.11,0.23,0.14c0.44,0.09,0.9,0.03,1.31-0.18
				c0.02-0.01,0.03-0.01,0.05-0.02c-0.04,0.02-0.07,0.03-0.11,0.05c0.15-0.06,0.29-0.13,0.43-0.22c0.03,0.03,0.05,0.06,0.08,0.1
				c0.3,0.25,0.12,0.14,0.51,0.36c1.07,0.48,2.38,0.37,3.35-0.29c0.4-0.28,0.65-0.58,0.88-0.91c0.21,0.33,0.47,0.63,0.84,0.79
				c0.2,0.09,0.41,0.16,0.63,0.19c-0.02,0-0.04-0.01-0.05-0.01c0.02,0,0.04,0,0.05,0.01c0.01,0,0.02,0,0.03,0c0.04,0.01,0.02,0,0,0
				c0.01,0,0.03,0,0.04,0.01c0.21,0.03,0.42,0.01,0.61-0.06c0.05,0.05,0.1,0.09,0.15,0.13c0.31,0.28,0.71,0.43,1.12,0.43
				c0.25,0,0.48-0.09,0.71-0.2c0.03-0.02,0.05-0.04,0.08-0.06c0.21-0.06,0.42-0.14,0.61-0.24c0.3-0.18,0.57-0.42,0.82-0.68
				C22.58,8.95,22.32,8.49,21.97,8.59z"/>
		</g>
		<g class="st2">
			<path d="M17.1,8.28c-0.02,0.02-0.03,0.05-0.05,0.07C17.07,8.33,17.08,8.31,17.1,8.28z"/>
		</g>
	</g>
	<g class="st2">
		<path d="M18.04,20.61c-0.17-0.01-0.3,0.12-0.44,0.19c-0.22,0.12-0.53,0.23-1.03,0.34c-0.28,0.06-0.94,0.1-1.57,0.05
			c-0.24-0.04-0.48-0.1-0.72-0.17c-0.38-0.12-0.24-0.08-0.46-0.18c-0.3-0.16-0.61-0.29-0.9-0.47c-0.2-0.1-0.36-0.32-0.59-0.34
			c-0.49-0.09-0.8,0.57-0.44,0.91c0.66,0.56,1.45,0.96,2.28,1.17c0.86,0.22,1.77,0.18,2.62-0.03c0.46-0.13,0.92-0.27,1.33-0.52
			c0.15-0.08,0.32-0.18,0.36-0.37C18.56,20.91,18.33,20.61,18.04,20.61z"/>
	</g>
</g>
</svg>
