<?xml version="1.0" encoding="utf-8"?>
<!-- Generator: Adobe Illustrator 27.0.0, SVG Export Plug-In . SVG Version: 6.00 Build 0)  -->
<svg height="100px" version="1.1" id="Layer_1" xmlns="http://www.w3.org/2000/svg" xmlns:xlink="http://www.w3.org/1999/xlink" x="0px" y="0px"
	 viewBox="0 0 57.04 75.13" style="enable-background:new 0 0 57.04 75.13;" xml:space="preserve">
<style type="text/css">
	.st0{fill:none;stroke:#000000;stroke-width:0.5;stroke-miterlimit:10;}
	.st1{fill:#BFE8FB;}
	.st2{fill:none;stroke:#010101;stroke-width:0.5;}
	.st3{fill:#DDDDDD;}
	.st4{fill:none;stroke:#010101;stroke-linecap:round;}
	.st5{fill:#B7E5FA;stroke:#010101;stroke-linecap:round;}
</style>
<path class="st0" d="M34.67,29.51c-1.83,0-3.65,0-5.48,0c-0.3,0-0.59-0.05-0.85-0.22c-0.45-0.31-0.6-0.74-0.52-1.26
	c0.07-0.47,0.46-0.85,0.94-0.94c0.18-0.04,0.37-0.05,0.55-0.05c1.78,0,3.55,0,5.33,0c0.63,0,0.55,0.01,0.56-0.54
	c0.01-0.59,0.46-1.11,1-1.2c0.62-0.09,1.16,0.22,1.37,0.79c0.07,0.18,0.08,0.36,0.06,0.55c-0.03,0.31,0.08,0.41,0.4,0.41
	c1.86-0.01,3.72-0.01,5.57-0.01c0.34,0,0.68,0.04,0.96,0.26c0.42,0.32,0.59,0.82,0.45,1.31c-0.14,0.49-0.58,0.87-1.14,0.88
	c-0.32,0.01-0.46,0.15-0.61,0.4c-1.46,2.59-3.2,4.99-5.18,7.21c-0.39,0.43-0.43,0.32,0.04,0.77c1.38,1.33,2.85,2.57,4.39,3.73
	c0.58,0.43,0.7,1.17,0.29,1.72c-0.41,0.56-1.16,0.68-1.75,0.24c-1.24-0.91-2.43-1.89-3.57-2.93c-0.41-0.37-0.82-0.75-1.21-1.14
	c-0.18-0.19-0.29-0.2-0.49-0.01c-1.53,1.48-3.15,2.85-4.87,4.1c-0.48,0.35-1.06,0.33-1.51-0.03c-0.4-0.32-0.55-0.9-0.36-1.4
	c0.1-0.25,0.28-0.43,0.49-0.58c1.58-1.17,3.08-2.42,4.5-3.78c0.37-0.36,0.3-0.28,0.03-0.59c-1.46-1.65-2.8-3.38-3.99-5.23
	c-0.52-0.81-0.16-1.75,0.75-1.95c0.48-0.11,0.96,0.11,1.28,0.6c0.78,1.18,1.6,2.34,2.5,3.44c0.4,0.49,0.83,0.97,1.23,1.46
	c0.14,0.17,0.24,0.2,0.41,0.01c1.57-1.77,2.99-3.65,4.22-5.67c0.05-0.08,0.16-0.17,0.1-0.27c-0.06-0.1-0.19-0.05-0.29-0.05
	C38.4,29.51,36.53,29.51,34.67,29.51z"/>
<path class="st1" d="M26.13,27.38c0.15,0.6-0.1,1.06-0.73,1.31c-1.47,0.57-2.78,1.4-3.94,2.45c-1.7,1.54-2.9,3.41-3.61,5.59
	c-0.08,0.24-0.04,0.35,0.23,0.36c0.22,0.01,0.45,0.02,0.66,0.06c0.51,0.1,0.72,0.53,0.44,0.97c-0.41,0.66-0.85,1.3-1.28,1.95
	c-0.31,0.47-0.61,0.96-0.93,1.43c-0.4,0.58-0.94,0.55-1.26-0.08c-0.57-1.12-1.13-2.25-1.69-3.38c-0.06-0.12-0.11-0.25-0.15-0.38
	c-0.11-0.45,0.12-0.76,0.58-0.77c0.27-0.01,0.54,0.01,0.81,0.04c0.21,0.02,0.31-0.07,0.36-0.27c0.4-1.53,1.07-2.95,1.94-4.26
	c1.76-2.63,4.11-4.55,7.05-5.71C25.35,26.4,25.96,26.69,26.13,27.38z"/>
<path class="st1" d="M29.91,56.74c0-0.62,0.35-1,1.03-1.09c1.59-0.2,3.08-0.7,4.48-1.47c1.99-1.09,3.59-2.6,4.79-4.53
	c0.14-0.22,0.1-0.33-0.14-0.4c-0.19-0.05-0.38-0.11-0.56-0.19c-0.54-0.23-0.65-0.71-0.22-1.11c0.74-0.71,1.5-1.39,2.26-2.08
	c0.23-0.21,0.45-0.43,0.68-0.63c0.52-0.45,1.04-0.3,1.19,0.36c0.29,1.25,0.57,2.5,0.85,3.76c0.06,0.26,0.1,0.52-0.07,0.75
	c-0.21,0.28-0.49,0.28-0.8,0.19c-0.86-0.27-0.86-0.27-1.34,0.49c-2.15,3.38-5.16,5.59-9.02,6.65c-0.6,0.16-1.2,0.28-1.82,0.35
	C30.42,57.88,29.9,57.45,29.91,56.74z"/>
<g>
	<path class="st2" d="M14.07,44.62c2.81,0,4.28,1.65,4.28,4.87v2.5c0,3.22-1.46,4.89-4.28,4.89h-3.65c-0.32,0-0.48-0.18-0.48-0.54
		V45.16c0-0.37,0.17-0.54,0.48-0.54H14.07z M15.92,49.5c0-1.68-0.59-2.42-1.85-2.42h-1.71v7.29h1.71c1.26,0,1.85-0.74,1.85-2.42
		V49.5z"/>
	<path class="st2" d="M26.77,54.43c0.32,0,0.47,0.19,0.47,0.56v1.35c0,0.37-0.15,0.54-0.47,0.54h-6.29c-0.32,0-0.48-0.18-0.48-0.54
		V45.16c0-0.37,0.17-0.54,0.48-0.54h6.09c0.32,0,0.48,0.18,0.48,0.54v1.33c0,0.37-0.17,0.54-0.48,0.54H22.4v2.43h3.68
		c0.32,0,0.47,0.18,0.47,0.54v1.23c0,0.37-0.15,0.56-0.47,0.56H22.4v2.63H26.77z"/>
</g>
<path class="st3" d="M0.95,23.44L0.93,15.4c25.81-3.05,28.54-12.5,28.54-12.5c0.02-0.38,5.9,13.68,26.89,15.39l-0.35,7.65
	c-12.29,0.59-27.1-10.8-27.1-10.8S12.4,24.35,0.95,23.44z"/>
<path class="st4" d="M0.65,13.08c-0.77,17.13,0.46,29.4,1.17,33.39c0.67,4.88,4.33,14.37,12.55,18.96
	c9.28,5.02,11.5,8.31,11.46,9.33"/>
<path class="st4" d="M56.46,15.98c-0.77,17.13-3.11,29.24-4.18,33.15c-1.11,4.8-5.61,13.92-14.21,17.75
	c-9.69,4.16-12.19,6.86-12.23,7.88"/>
<path class="st5" d="M0.67,21.12l-0.02-8.05c25.81-3.05,28.54-12.5,28.54-12.5c0.02-0.38,5.9,13.68,26.89,15.39l-0.35,7.65
	c-12.29,0.59-27.1-10.8-27.1-10.8S12.13,22.03,0.67,21.12z"/>
</svg>
