<svg xmlns="http://www.w3.org/2000/svg" height="201" viewBox="0 0 108 107" fill="none">
    <path d="M35 45.0991H18.5H14C14.3333 46.885 15.7 50.3594 18.5 49.9698C21.3 49.5801 30.6667 49.8074 35 49.9698C36.1667 49.8074 38.6 48.606 39 45.0991H35Z" fill="#BEE8FF"/>
    <path d="M35 45.0991H18.5H14C14.3333 46.885 15.7 50.3594 18.5 49.9698C21.3 49.5801 30.6667 49.8074 35 49.9698C36.1667 49.8074 38.6 48.606 39 45.0991H35Z" fill="#BEE8FF"/>
    <path d="M24 30.4871L18.5 45.0991M18.5 45.0991H35M18.5 45.0991H14C14.3333 46.885 15.7 50.3594 18.5 49.9698C21.3 49.5801 30.6667 49.8074 35 49.9698C36.1667 49.8074 38.6 48.606 39 45.0991C37 45.0991 35.5 45.0991 35 45.0991M35 45.0991L29 30" stroke="black" stroke-width="0.7"/>
    <path d="M94 29.8541H77.5H73C73.3333 31.7293 74.7 35.3774 77.5 34.9683C80.3 34.5591 89.6667 34.7978 94 34.9683C95.1667 34.7978 97.6 33.5363 98 29.8541H94Z" fill="#BEE8FF"/>
    <path d="M94 29.8541H77.5H73C73.3333 31.7293 74.7 35.3774 77.5 34.9683C80.3 34.5591 89.6667 34.7978 94 34.9683C95.1667 34.7978 97.6 33.5363 98 29.8541H94Z" fill="#BEE8FF"/>
    <path d="M83 14.5114L77.5 29.8541M77.5 29.8541H94M77.5 29.8541H73C73.3333 31.7293 74.7 35.3774 77.5 34.9683C80.3 34.5591 89.6667 34.7978 94 34.9683C95.1667 34.7978 97.6 33.5363 98 29.8541C96 29.8541 94.5 29.8541 94 29.8541M94 29.8541L88 14" stroke="black" stroke-width="0.7"/>
    <path d="M52 77.4679V4.03846C52.1726 3.02564 53.0355 1 55.1064 1C57.1774 1 58.0403 3.02564 58.2128 4.03846L58.237 7.58333C59.7425 7.43539 62.1697 4.82383 74.9459 8.27178C79.0048 9.36719 83.1162 10.712 87.3068 10.3746C95.679 9.70069 94.0209 4.2067 97.0431 5.05128C98.2511 5.38889 100.15 6.67179 98.0786 9.10256C95.4899 12.141 91.348 18.2179 74.2627 13.1538C62.6654 9.50769 58.7697 11.297 58.2715 12.6474L58.7306 80H52V77.4679Z" fill="white"/>
    <path d="M58.237 7.58333L58.2128 4.03846C58.0403 3.02564 57.1774 1 55.1064 1C53.0355 1 52.1726 3.02564 52 4.03846V77.4679V80H58.7306L58.2715 12.6474M58.237 7.58333C59.7425 7.43539 62.1697 4.82383 74.9459 8.27178C79.0048 9.36719 83.1162 10.712 87.3068 10.3746C95.679 9.70069 94.0209 4.2067 97.0431 5.05128C98.2511 5.38889 100.15 6.67179 98.0786 9.10256C95.4899 12.141 91.348 18.2179 74.2627 13.1538C62.6654 9.50769 58.7697 11.297 58.2715 12.6474M58.237 7.58333L58.2715 12.6474" stroke="black" stroke-width="0.7"/>
    <path d="M18.6994 26.8763C20.8292 24.3642 22.8098 29.9617 31.486 23.8213C33.7116 22.2462 35.522 20.1678 37.3066 18.1065C41.9845 12.7033 48.6658 6.16658 52 6.5L52 12C51.5972 9.98589 45.3366 17.2916 41.5953 21.2608C30.58 34.6817 23.873 31.8972 20.1009 30.7848C17.0833 29.8949 17.9092 27.8084 18.6994 26.8763Z" fill="white" stroke="black" stroke-width="0.7"/>
    <path d="M31.8496 92.5346C31.156 92.5346 30.4623 92.5095 29.7561 92.4339C27.5114 92.2197 25.9602 91.5647 25.0144 90.4436C23.3624 88.4533 24.119 85.5686 25.6702 83.868C26.6917 82.7469 30.2354 81.7518 34.7501 80.5551C36.3391 80.1394 37.701 79.7741 38.3568 79.5221C38.5964 79.4214 38.8739 79.5473 38.9621 79.7867C39.063 80.026 38.9369 80.3031 38.6973 80.3913C37.9911 80.6684 36.6039 81.0338 34.9897 81.462C31.9252 82.2682 27.2844 83.4901 26.3638 84.4979C25.0522 85.9213 24.4595 88.3147 25.7332 89.8389C26.5025 90.7711 27.8519 91.3128 29.8444 91.5017C34.0186 91.9048 38.2559 90.9349 42.3419 89.9901C43.1364 89.8137 43.9309 89.6248 44.7127 89.461C49.5049 88.4155 55.0663 87.6345 59.972 89.6878C60.2116 89.7885 60.3251 90.0657 60.2242 90.305C60.1233 90.5444 59.8459 90.6577 59.6063 90.5569C54.9402 88.6044 49.5553 89.3728 44.9145 90.3932C44.1326 90.5695 43.3381 90.7459 42.5563 90.9223C39.063 91.7159 35.4689 92.5346 31.8496 92.5346Z" fill="black"/>
    <path d="M24.4344 87.4203C24.3966 87.4203 24.3713 87.4203 24.3335 87.4077C23.476 87.2188 22.795 87.1054 22.2023 87.0046C18.9108 86.4252 18.8225 86.3118 13.6016 80.089C12.7188 79.0308 11.6847 77.7964 10.4488 76.3477C7.66182 73.0599 3.86592 71.964 1.93644 72.8206C1.40678 73.0599 0.801456 73.5638 0.952788 74.5968C0.990621 74.8487 0.814067 75.088 0.561848 75.1258C0.309629 75.1636 0.0700204 74.9873 0.0321875 74.7353C-0.144366 73.5008 0.410516 72.4931 1.57072 71.9766C3.85331 70.9563 8.07798 72.0774 11.1803 75.7557C12.4035 77.2043 13.4503 78.4514 14.333 79.5095C19.4278 85.5938 19.4278 85.5938 22.3662 86.1102C22.9463 86.211 23.6651 86.337 24.5353 86.5259C24.7875 86.5763 24.9514 86.8283 24.8884 87.0802C24.838 87.2692 24.6488 87.4203 24.4344 87.4203Z" fill="black"/>
    <path d="M29.9957 82.8352C29.92 82.8352 29.8318 82.81 29.7687 82.7722C28.3563 81.966 26.6538 81.4243 24.8504 80.8575C21.7481 79.8749 18.2297 78.7664 15.5309 75.9825C14.7364 75.1637 14.169 74.4457 13.6267 73.7529C12.5043 72.3294 11.5333 71.0949 8.91018 69.4825C8.6958 69.344 8.62013 69.0543 8.75885 68.8401C8.89757 68.626 9.18762 68.5504 9.40201 68.6889C12.1638 70.3895 13.2231 71.75 14.3581 73.1734C14.8878 73.841 15.4427 74.5465 16.1993 75.3275C18.7341 77.935 21.9877 78.9679 25.1279 79.9631C26.9817 80.5551 28.7346 81.0968 30.2353 81.9534C30.4623 82.0794 30.538 82.3691 30.4119 82.5958C30.3236 82.747 30.1597 82.8352 29.9957 82.8352Z" fill="black"/>
    <path d="M102.207 67.9457C96.1786 68.6764 91.5504 66.1696 86.2664 69.0291C79.116 72.8837 77.9432 72.7073 74.3365 72.0019C68.6867 70.906 64.2225 69.7975 58.6106 71.498C55.7101 72.3798 52.0529 74.4961 49.4298 75.9699C44.2089 78.9176 44.5494 78.4389 41.0687 79.5726C36.7558 78.4641 31.7492 77.0658 27.7516 74.8992C22.6063 72.1027 17.4484 68.8023 15.9351 67.9709C11.9122 65.7791 10.815 67.8324 9.13778 69.0921C7.01913 67.782 1.77297 67.7442 2.23958 71.6114C2.3783 72.7829 0.625376 72.2539 0.474044 74.6473C0.209214 78.6404 9.93227 87.9747 17.852 93.7566C25.3429 97.2333 37.8151 103.431 48.5218 105.623C53.4653 106.631 73.7563 99.0095 86.0773 94.2731C93.2907 91.5018 95.9516 95.1423 103.19 92.0686C105.788 89.713 108.146 67.2277 102.207 67.9457Z" fill="white"/>
    <path d="M49.5807 106.177C49.1393 106.177 48.761 106.139 48.4457 106.076C38.874 104.111 27.7259 98.8835 20.3485 95.4194C19.4027 94.9785 18.5073 94.5502 17.6624 94.1723C17.6371 94.1597 17.6119 94.1471 17.5867 94.1219C10.1084 88.6927 -0.270432 79.0309 0.0196206 74.622C0.120508 73.0222 0.902388 72.5058 1.41944 72.1531C1.79777 71.9011 1.82299 71.8507 1.79777 71.6744C1.58338 69.936 2.4157 69.0038 3.15975 68.5378C4.78656 67.4922 7.51053 67.7064 9.12473 68.5378C9.30129 68.3992 9.46523 68.248 9.64178 68.0969C10.9912 66.9128 12.5297 65.5649 16.1869 67.5678C16.7291 67.8701 17.738 68.4748 18.9991 69.2432C21.3952 70.6918 24.674 72.6821 28.0033 74.4961C31.774 76.5493 36.5031 77.9224 41.0809 79.0939C41.7745 78.8672 42.3042 78.716 42.7834 78.5774C44.5363 78.061 45.1921 77.872 49.2276 75.5794L49.6942 75.3149C52.2416 73.8788 55.7222 71.9011 58.4966 71.0571C63.7933 69.4573 68.144 70.3139 73.1758 71.3091C73.592 71.3972 74.0081 71.4728 74.4369 71.561C77.9301 72.2412 78.9768 72.4428 86.0516 68.6259C89.4313 66.7994 92.5336 67.0891 95.8251 67.3915C97.8302 67.5804 99.8984 67.7694 102.156 67.4922C103.051 67.3789 104.3 67.6686 105.208 69.6211C107.742 75.1511 105.775 90.3807 103.53 92.4213C103.493 92.4591 103.442 92.4843 103.404 92.5095C99.5958 94.1219 96.9853 93.933 94.4631 93.744C92.0166 93.5676 89.7088 93.3913 86.2786 94.714C72.1795 100.131 55.6213 106.177 49.5807 106.177ZM18.0911 93.3535C18.9108 93.7314 19.8062 94.1471 20.7394 94.588C28.079 98.0269 39.164 103.229 48.6223 105.169C53.7297 106.215 77.1104 97.2207 85.9129 93.8322C89.5448 92.4339 92.067 92.6229 94.5009 92.7992C97.0105 92.9882 99.3814 93.1519 102.938 91.6655C104.88 89.6752 106.645 74.9999 104.35 69.999C103.543 68.248 102.585 68.374 102.269 68.4118L102.219 67.9457L102.269 68.4118C99.911 68.7015 97.7924 68.5 95.7368 68.311C92.458 68.0087 89.6331 67.7442 86.493 69.4321C79.4182 73.249 78.1193 73.2112 74.2477 72.4554C73.819 72.3672 73.3902 72.2916 72.974 72.2034C67.854 71.1957 63.8185 70.3895 58.7489 71.9389C56.0753 72.7451 52.6326 74.6976 50.1356 76.1085L49.669 76.373C45.5326 78.716 44.8516 78.9175 43.023 79.4466C42.5312 79.5978 41.9637 79.7615 41.2196 80.0009C41.1314 80.0261 41.0431 80.0261 40.9548 80.0135C36.2887 78.8168 31.4209 77.4185 27.5367 75.2897C24.1948 73.4757 20.9034 71.4728 18.4947 70.0116C17.2336 69.2432 16.2373 68.6511 15.7077 68.3614C12.618 66.6734 11.5082 67.656 10.2219 68.7771C9.96967 69.0039 9.70484 69.2306 9.41479 69.4447C9.26346 69.5581 9.04907 69.5707 8.88513 69.4699C7.5862 68.6637 5.00095 68.4244 3.62636 69.3062C2.88231 69.7849 2.56703 70.5281 2.69314 71.5358C2.79403 72.3168 2.27698 72.6569 1.91126 72.9089C1.46988 73.2112 1.00328 73.5135 0.92761 74.6598C0.713223 78.1995 9.61656 87.1685 18.0911 93.3535Z" fill="black"/>
    <path d="M36.7175 90.5697C34.0692 90.5697 31.9506 89.9399 30.349 88.0251C28.6465 85.9845 29.7689 84.2083 31.2318 82.6085C32.2533 81.4874 35.7969 80.4922 40.3117 79.2956C41.9006 78.8799 43.2626 78.5146 43.9184 78.2626C44.158 78.1618 44.4354 78.2878 44.5237 78.5271C44.6246 78.7665 44.4985 79.0436 44.2589 79.1318C43.5527 79.4089 42.1655 79.7742 40.5513 80.2025C37.4868 81.0087 32.846 82.2306 31.9254 83.2384C30.2481 85.0775 30.0211 86.1734 31.0678 87.4205C33.6405 90.5067 37.8399 89.8013 44.1832 88.7306C48.08 88.0755 52.9226 87.2567 58.4714 87.2567C58.7237 87.2567 58.938 87.4709 58.938 87.7228C58.938 87.9874 58.7237 88.1889 58.4714 88.1889C53.0109 88.1889 48.4079 88.9699 44.3472 89.6501C41.4466 90.1414 38.8992 90.5697 36.7175 90.5697Z" fill="black"/>
    <path d="M78.1947 65.0737C82.432 64.658 88.7374 64.0912 93.0126 64.0534C95.0555 64.0408 98.0317 64.4565 100.213 64.8092C102.13 65.1241 103.77 66.5098 104.489 68.4623C106.229 73.1483 108.209 82.7345 106.191 97.5987C105.901 99.7024 104.854 102.839 103.114 104.187C100.894 105.887 83.2517 105.95 79.4306 103.784C80.4773 98.6946 82.0032 92.3836 80.1494 76.9147C79.7332 73.375 76.8705 65.1997 78.1947 65.0737Z" fill="#BEE8FF"/>
    <path d="M92.42 105.913C87.0225 105.913 81.2972 105.371 79.2037 104.187C79.0272 104.086 78.9389 103.884 78.9767 103.683L79.1029 103.066C80.1496 98.0143 81.4485 91.7285 79.683 76.9651C79.5316 75.6802 79.0398 73.7277 78.5606 71.8256C77.4887 67.593 77.0851 65.6657 77.6022 64.9351C77.7283 64.7461 77.93 64.6328 78.1444 64.6076C82.8735 64.1541 88.8385 63.6124 93.0001 63.5872C95.0936 63.562 98.1076 63.9903 100.289 64.3556C102.37 64.6958 104.148 66.2074 104.93 68.311C106.191 71.687 108.877 81.311 106.658 97.6742C106.343 100.03 105.182 103.204 103.392 104.565C102.257 105.434 97.4896 105.913 92.42 105.913ZM79.9604 103.519C84.1725 105.434 100.819 105.346 102.824 103.809C104.325 102.663 105.422 99.7779 105.725 97.5357C107.906 81.374 105.283 71.9389 104.047 68.626C103.379 66.8498 101.878 65.5649 100.125 65.2752C97.9941 64.9225 95.0305 64.5068 93.0001 64.5194C88.9016 64.5572 83.0249 65.0737 78.3336 65.5272C78.1066 66.22 78.9137 69.4448 79.456 71.5988C79.9478 73.5261 80.4396 75.5164 80.6036 76.8517C82.3817 91.7663 81.0702 98.1403 80.0108 103.255L79.9604 103.519Z" fill="black"/>
    <path d="M89.6203 69.0917C87.8422 68.739 86.1019 69.8853 85.7361 71.6489C85.383 73.4124 86.5306 75.1382 88.3214 75.4909C90.0995 75.8436 91.8399 74.6973 92.2056 72.9337C92.5587 71.1576 91.3985 69.4444 89.6203 69.0917Z" fill="white"/>
    <path d="M88.9646 76.0076C88.725 76.0076 88.4727 75.9824 88.2205 75.932C87.2242 75.7305 86.3793 75.1636 85.8244 74.3322C85.2695 73.5008 85.0804 72.5183 85.2822 71.5483C85.6857 69.5328 87.6782 68.2227 89.7086 68.6258C90.7049 68.8274 91.5498 69.3943 92.1047 70.2256C92.6596 71.057 92.8487 72.0396 92.647 73.0095C92.2939 74.7857 90.7175 76.0076 88.9646 76.0076ZM88.9646 69.495C87.6404 69.495 86.4676 70.4146 86.1901 71.7373C86.0388 72.4679 86.1902 73.1985 86.6063 73.8283C87.0225 74.4582 87.6656 74.8865 88.4097 75.0376C89.9356 75.3399 91.4363 74.3574 91.739 72.8458C91.8903 72.1152 91.739 71.3846 91.3228 70.7547C90.9066 70.1249 90.2635 69.6966 89.5194 69.5454C89.3429 69.5076 89.1537 69.495 88.9646 69.495Z" fill="black"/>
    <path d="M101.828 101.466C101.815 101.466 101.803 101.466 101.778 101.453C101.689 101.428 101.651 101.34 101.677 101.264C102.698 97.8382 103.215 94.2733 103.228 90.6706C103.228 90.5824 103.303 90.5194 103.379 90.5194C103.467 90.5194 103.53 90.595 103.53 90.6706C103.518 94.3111 102.988 97.9011 101.967 101.353C101.954 101.416 101.891 101.466 101.828 101.466Z" fill="black"/>
    <path d="M98.9021 101.907C98.8769 101.907 98.8517 101.907 98.839 101.894C98.7634 101.856 98.7255 101.768 98.7634 101.68C99.3183 100.521 99.6966 99.2865 99.8858 98.0017C99.8984 97.9135 99.974 97.8631 100.062 97.8757C100.151 97.8883 100.201 97.9639 100.188 98.052C99.9992 99.3747 99.6083 100.647 99.0408 101.831C99.0156 101.869 98.9652 101.907 98.9021 101.907Z" fill="black"/>
    <path d="M32.1399 89.461C32.0769 89.461 32.0138 89.4484 31.9507 89.4233C24.5986 86.1103 17.9021 82.1171 12.5803 77.9098C12.2903 77.6704 11.9371 77.3807 11.5462 77.0532C9.16274 75.0251 5.15245 71.6365 2.17626 72.7325C1.93666 72.8206 1.65921 72.6947 1.57094 72.4553C1.48266 72.216 1.60877 71.9389 1.84838 71.8507C5.34162 70.5784 9.59151 74.1811 12.1389 76.3352C12.5299 76.6627 12.8704 76.9524 13.1478 77.1791C18.4066 81.3487 25.0399 85.2915 32.3165 88.5793C32.5561 88.68 32.657 88.9572 32.5561 89.1965C32.493 89.3603 32.3291 89.461 32.1399 89.461Z" fill="black"/>
    <path d="M32.1397 82.8226C32.1019 82.8226 32.0766 82.8226 32.0388 82.81C26.2125 81.5125 20.0962 77.1288 15.1906 73.6143C12.681 71.813 10.5119 70.2636 8.82203 69.4196C8.59503 69.3062 8.49415 69.0291 8.60764 68.7898C8.72114 68.563 8.99858 68.4622 9.23819 68.5756C10.9911 69.4574 13.198 71.032 15.7328 72.8459C20.5754 76.3101 26.6035 80.6308 32.2406 81.8904C32.4928 81.9408 32.6568 82.1928 32.5937 82.4447C32.5559 82.684 32.3541 82.8226 32.1397 82.8226Z" fill="black"/>
    <g opacity="0.1294">
    <path d="M103.341 100.408C103.266 100.483 103.114 100.609 103.013 100.71C102.9 100.786 102.736 100.861 102.648 100.912C102.433 101 102.358 101.05 102.698 100.886C101.714 101.403 98.5238 101.97 97.3888 102.071C92.748 102.587 88.8764 102.297 85.1814 101.415C83.5294 101.151 82.9241 101.05 82.1926 100.987C81.6503 101 81.0702 100.76 80.5784 101.05C79.166 101.592 79.3173 103.872 80.7676 104.25C83.7059 104.93 84.3869 104.804 87.1613 105.132C90.9951 105.547 94.8666 105.598 98.6751 104.93C101.033 104.59 103.795 103.544 104.325 102.776C104.804 102.398 105.409 101.995 105.384 101.29C105.422 100.206 104.047 99.6141 103.341 100.408Z" fill="black"/>
    </g>
    <g opacity="0.1294">
    <path d="M43.2115 102.448C43.1992 102.448 43.1869 102.448 43.1746 102.448C43.1992 102.436 43.1992 102.448 43.2115 102.448Z" fill="black"/>
    </g>
    <g opacity="0.1294">
    <path d="M80.7931 94.8147C80.3012 93.9078 79.1536 93.9204 78.3844 94.4242C78.3717 94.4242 78.3591 94.4368 78.3465 94.4368C78.3465 94.4368 78.3339 94.4368 78.3213 94.4494C76.6062 95.0037 74.8785 95.4824 73.1634 96.0492C70.8808 96.8554 66.3661 98.5812 62.8603 99.6519C61.7379 100.143 57.7907 101.529 55.3567 102.071C52.4688 102.751 50.4132 102.927 46.9578 102.965C45.9364 102.902 43.8051 102.461 43.225 102.448C43.3133 102.461 43.3007 102.461 43.225 102.448C43.225 102.448 43.225 102.448 43.2124 102.448C43.1493 102.436 43.0989 102.423 43.0358 102.423C43.1115 102.436 43.1493 102.436 43.1998 102.448C43.1493 102.436 43.0989 102.436 43.0232 102.423C42.7206 102.335 42.3927 102.385 42.1278 102.549C41.2577 103.04 41.4342 104.539 42.4053 104.779C43.8934 105.32 45.4445 105.623 47.0209 105.686C48.4712 105.787 49.9214 105.799 51.3591 105.56C51.2456 105.572 51.1195 105.598 51.006 105.61C55.1171 105.283 59.0265 103.935 62.9485 102.688C64.1088 102.461 67.5515 101.201 69.8341 100.433C72.6464 99.5386 75.446 98.619 78.1952 97.5609C78.4222 97.4601 79.0906 97.2711 79.1032 97.2333C79.1284 97.2333 79.141 97.2333 79.1662 97.2333C80.3769 97.1829 81.4488 96.1374 80.7931 94.8147Z" fill="black"/>
    </g>
    </svg>