<svg height="65" viewBox="0 0 98 98" fill="none" xmlns="http://www.w3.org/2000/svg">
    <path d="M94.7277 94.8478C70.4047 94.3908 46.0707 94.5298 21.7677 95.0178C21.7827 77.5268 21.4187 60.0358 21.1797 42.7798C28.7023 42.014 36.2835 42.021 43.8047 42.8008C44.0277 34.6468 44.0427 26.4888 43.6507 18.2108C52.1343 18.5812 60.6322 18.4667 69.1027 17.8678C69.6387 12.4729 69.6568 7.03914 69.1567 1.64082C77.4817 0.974818 85.8567 0.94082 94.2747 0.95682C94.7947 32.4388 94.8787 63.9278 94.7277 94.8478Z" fill="white"/>
    <path d="M21.4467 95.3412C21.4034 95.2991 21.3691 95.2487 21.3457 95.1931C21.3223 95.1374 21.3104 95.0776 21.3107 95.0172C21.3227 81.7572 21.1107 68.3252 20.9107 55.3352C20.844 51.1399 20.7814 46.9569 20.7227 42.7862C20.7209 42.6726 20.762 42.5624 20.8378 42.4777C20.9136 42.393 21.0186 42.34 21.1317 42.3292C28.5219 41.5802 35.9684 41.5695 43.3607 42.2972C43.5977 33.2872 43.5447 25.6282 43.1947 18.2322C43.1918 18.1697 43.2018 18.1072 43.2242 18.0488C43.2466 17.9904 43.2809 17.9372 43.3248 17.8927C43.3688 17.8481 43.4215 17.8132 43.4797 17.79C43.5378 17.7669 43.6002 17.7561 43.6627 17.7582C52.0013 18.1213 60.3537 18.0174 68.6807 17.4472C69.1845 12.2063 69.1915 6.92944 68.7017 1.68719C68.6951 1.62701 68.7006 1.5661 68.718 1.5081C68.7354 1.4501 68.7642 1.39618 68.8028 1.34955C68.8415 1.30291 68.8891 1.26451 68.9428 1.23662C68.9965 1.20873 69.0554 1.19192 69.1157 1.18719C77.4157 0.522192 85.7527 0.487191 94.2717 0.501191C94.3902 0.50118 94.5041 0.547872 94.5885 0.631158C94.6729 0.714443 94.7211 0.827625 94.7227 0.946194C95.2007 29.6642 95.3487 60.3792 95.1747 94.8462C95.1747 94.9061 95.1626 94.9653 95.1393 95.0205C95.1159 95.0756 95.0817 95.1255 95.0387 95.1672C94.9965 95.2098 94.9459 95.2432 94.8901 95.2652C94.8344 95.2872 94.7746 95.2975 94.7147 95.2952C72.2947 94.8742 48.4357 94.9292 21.7717 95.4652H21.7627C21.6453 95.4664 21.532 95.4219 21.4467 95.3412ZM94.2737 94.3882C94.4417 60.2882 94.2957 29.8662 93.8257 1.40919C85.6387 1.39519 77.6257 1.44119 69.6487 2.05719C70.1025 7.33271 70.069 12.6388 69.5487 17.9082C69.5397 18.015 69.493 18.1151 69.417 18.1906C69.3409 18.2661 69.2405 18.312 69.1337 18.3202C60.8091 18.9121 52.4578 19.0327 44.1197 18.6812C44.4567 26.0812 44.4987 33.7672 44.2517 42.8132C44.2499 42.8758 44.235 42.9374 44.2082 42.9941C44.1813 43.0507 44.143 43.1011 44.0957 43.1422C44.0487 43.1835 43.9935 43.2145 43.9337 43.2331C43.8739 43.2517 43.8109 43.2576 43.7487 43.2502C36.3971 42.4872 28.9872 42.4678 21.6317 43.1922C21.6884 47.2235 21.7494 51.2662 21.8147 55.3202C22.0147 68.1622 22.2217 81.4382 22.2147 94.5562C36.9497 94.2622 50.8267 94.1162 64.0817 94.1162C74.4917 94.1172 84.5217 94.2062 94.2727 94.3882H94.2737Z" fill="black"/>
    <path d="M73.0778 42.4249C76.1338 42.4059 79.6778 42.2859 82.7318 42.2679C82.7318 39.3159 82.7378 36.1359 82.6918 33.0559C79.455 32.8967 76.2123 32.9007 72.9758 33.0679C72.9178 36.0819 72.9558 39.0989 73.0778 42.4249Z" fill="#ACD4F7"/>
    <path d="M72.6297 42.441C72.5017 38.987 72.4686 36.006 72.5296 33.058C72.5318 32.9436 72.5773 32.8344 72.657 32.7523C72.7366 32.6703 72.8444 32.6215 72.9587 32.616C76.2104 32.4476 79.4685 32.4432 82.7207 32.603C82.8353 32.609 82.9432 32.6584 83.0229 32.741C83.1025 32.8235 83.1478 32.9333 83.1496 33.048C83.1916 35.857 83.1907 38.712 83.1907 41.473V42.268C83.1904 42.3873 83.1431 42.5016 83.0591 42.5862C82.975 42.6709 82.861 42.7189 82.7417 42.72C81.2147 42.729 79.5356 42.765 77.9126 42.798C76.2896 42.831 74.6127 42.868 73.0867 42.877C72.9686 42.8784 72.8548 42.8335 72.7694 42.7521C72.684 42.6706 72.6339 42.5589 72.6297 42.441ZM82.2837 41.472C82.2837 38.853 82.2836 36.151 82.2486 33.486C79.3766 33.355 76.4807 33.359 73.4227 33.499C73.3767 36.166 73.4077 38.881 73.5177 41.969C74.9177 41.956 76.4277 41.924 77.8907 41.894C79.3537 41.864 80.8736 41.831 82.2826 41.818L82.2837 41.472Z" fill="black"/>
    <path d="M52.8838 42.4259C55.9398 42.4069 59.4838 42.2869 62.5378 42.2689C62.5378 39.3169 62.5438 36.1369 62.4978 33.0569C59.2609 32.8977 56.0182 32.9017 52.7818 33.0689C52.7218 36.0829 52.7598 39.0999 52.8838 42.4259Z" fill="#ACD4F7"/>
    <path d="M52.4343 42.4426C52.3063 38.9886 52.2733 36.0066 52.3343 33.0596C52.3365 32.9452 52.382 32.836 52.4616 32.7539C52.5413 32.6719 52.6491 32.6231 52.7633 32.6176C56.015 32.4496 59.2732 32.4453 62.5253 32.6046C62.6399 32.6107 62.7479 32.66 62.8275 32.7426C62.9071 32.8251 62.9525 32.9349 62.9543 33.0496C62.9963 35.8496 62.9953 38.7016 62.9953 41.4566V42.2686C62.995 42.3879 62.9478 42.5022 62.8637 42.5869C62.7796 42.6715 62.6656 42.7195 62.5463 42.7206C61.0193 42.7296 59.3403 42.7656 57.7173 42.7986C56.0943 42.8316 54.4173 42.8686 52.8913 42.8776C52.7734 42.879 52.6598 42.8343 52.5744 42.753C52.489 42.6718 52.4387 42.5604 52.4343 42.4426ZM62.0883 41.4566C62.0883 38.8446 62.0883 36.1466 62.0533 33.4876C59.1823 33.3566 56.2864 33.3606 53.2274 33.5006C53.1824 36.1676 53.2123 38.8816 53.3223 41.9706C54.7223 41.9576 56.2323 41.9256 57.6953 41.8956C59.1583 41.8656 60.6783 41.8326 62.0873 41.8196L62.0883 41.4566Z" fill="black"/>
    <path d="M73.3526 62.131C76.4086 62.112 79.9525 61.992 83.0065 61.973C83.0065 59.022 83.0116 55.841 82.9666 52.762C79.7298 52.6028 76.487 52.6068 73.2506 52.774C73.1906 55.788 73.2286 58.804 73.3526 62.131Z" fill="#ACD4F7"/>
    <path d="M72.8992 62.1466C72.7712 58.6926 72.7382 55.7106 72.7992 52.7636C72.8011 52.649 72.8465 52.5395 72.9261 52.4573C73.0058 52.375 73.1138 52.3261 73.2281 52.3206C76.4799 52.1525 79.738 52.1485 82.9902 52.3086C83.105 52.3141 83.2134 52.3633 83.2933 52.4459C83.3732 52.5286 83.4185 52.6386 83.4202 52.7536C83.4622 55.5536 83.4612 58.4036 83.4612 61.1596V61.9726C83.4613 62.0318 83.4498 62.0905 83.4272 62.1452C83.4047 62.2 83.3716 62.2498 83.3298 62.2918C83.288 62.3337 83.2383 62.3671 83.1837 62.3898C83.129 62.4126 83.0704 62.4244 83.0112 62.4246C81.4892 62.4346 79.8172 62.4696 78.1992 62.5036C76.5812 62.5376 74.8901 62.5726 73.3561 62.5826C73.2382 62.5837 73.1245 62.5388 73.0391 62.4573C72.9538 62.3759 72.9036 62.2644 72.8992 62.1466ZM82.5532 61.1576C82.5532 58.5466 82.5532 55.8496 82.5192 53.1916C79.6502 53.0606 76.7552 53.0646 73.6932 53.2036C73.6482 55.8716 73.6781 58.5856 73.7881 61.6746C75.1941 61.6616 76.7092 61.6296 78.1782 61.5986C79.6472 61.5676 81.1502 61.5356 82.5542 61.5236L82.5532 61.1576Z" fill="black"/>
    <path d="M53.1572 62.129C56.2132 62.11 59.7573 61.99 62.8123 61.971C62.8123 59.02 62.8123 55.839 62.7713 52.76C59.5344 52.6008 56.2917 52.6048 53.0553 52.772C52.9953 55.786 53.0332 58.802 53.1572 62.129Z" fill="#ACD4F7"/>
    <path d="M52.7039 62.1459C52.5759 58.6919 52.5429 55.7109 52.6039 52.7629C52.606 52.6483 52.6516 52.5388 52.7314 52.4565C52.8113 52.3743 52.9194 52.3254 53.0339 52.3199C56.2853 52.1527 59.543 52.1487 62.7949 52.3079C62.9094 52.3139 63.0174 52.3632 63.097 52.4458C63.1767 52.5284 63.222 52.6382 63.2239 52.7529C63.2659 55.5529 63.2649 58.4049 63.2649 61.1599V61.9709C63.2652 62.0903 63.218 62.205 63.1338 62.2897C63.0497 62.3745 62.9353 62.4223 62.8159 62.4229C61.2929 62.4329 59.6159 62.4679 58.0029 62.5019C56.3899 62.5359 54.6938 62.5709 53.1598 62.5809C53.0422 62.5817 52.9289 62.5368 52.8438 62.4557C52.7587 62.3745 52.7085 62.2634 52.7039 62.1459ZM62.3589 61.1599C62.3589 58.5479 62.3589 55.8499 62.3239 53.1909C59.4549 53.0599 56.5599 53.0639 53.4979 53.2029C53.4529 55.8709 53.4829 58.5849 53.5929 61.6739C54.9989 61.6609 56.5128 61.6289 57.9828 61.5989C59.4528 61.5689 60.9549 61.5359 62.3589 61.5239V61.1599Z" fill="black"/>
    <path d="M73.3526 81.8334C76.4086 81.8144 79.9525 81.6954 83.0065 81.6764C83.0065 78.7254 83.0116 75.5444 82.9666 72.4644C79.7297 72.3061 76.487 72.3101 73.2506 72.4764C73.1906 75.4914 73.2286 78.5074 73.3526 81.8334Z" fill="#ACD4F7"/>
    <path d="M72.8992 81.8507C72.7712 78.3957 72.7382 75.4147 72.7992 72.4667C72.8013 72.3523 72.8468 72.2431 72.9265 72.161C73.0061 72.0789 73.1139 72.0302 73.2281 72.0247C76.4799 71.8566 79.738 71.8526 82.9902 72.0126C83.105 72.0182 83.2134 72.0674 83.2933 72.15C83.3732 72.2327 83.4185 72.3427 83.4202 72.4576C83.4622 75.2576 83.4612 78.1076 83.4612 80.8576V81.6717C83.4612 81.7912 83.4138 81.9059 83.3295 81.9906C83.2451 82.0753 83.1307 82.1231 83.0112 82.1237C81.4872 82.1337 79.8112 82.1686 78.1912 82.2026C76.5712 82.2366 74.8912 82.2716 73.3572 82.2806C73.24 82.2823 73.1267 82.2385 73.0413 82.1582C72.9558 82.078 72.9049 81.9677 72.8992 81.8507ZM82.5532 80.8617C82.5532 78.2507 82.5532 75.5536 82.5192 72.8946C79.6502 72.7636 76.7552 72.7676 73.6932 72.9076C73.6482 75.5756 73.6781 78.2896 73.7881 81.3776C75.1881 81.3646 76.7032 81.3337 78.1702 81.3027C79.6372 81.2717 81.1482 81.2396 82.5542 81.2266L82.5532 80.8617Z" fill="black"/>
    <path d="M53.1572 81.8334C56.2132 81.8144 59.7573 81.6954 62.8123 81.6764C62.8123 78.7254 62.8123 75.5444 62.7713 72.4644C59.5344 72.3061 56.2917 72.3101 53.0553 72.4764C52.9953 75.4914 53.0332 78.5074 53.1572 81.8334Z" fill="#ACD4F7"/>
    <path d="M52.7039 81.8506C52.5759 78.3956 52.5429 75.4146 52.6039 72.4666C52.6063 72.3522 52.652 72.243 52.7318 72.1609C52.8116 72.0789 52.9196 72.0302 53.0339 72.0246C56.2853 71.8566 59.5431 71.8526 62.7949 72.0126C62.9094 72.0187 63.0174 72.068 63.097 72.1506C63.1767 72.2332 63.222 72.3429 63.2239 72.4576C63.2659 75.2576 63.2649 78.1096 63.2649 80.8646V81.6756C63.2652 81.7951 63.218 81.9098 63.1338 81.9945C63.0497 82.0792 62.9353 82.1271 62.8159 82.1276C61.2919 82.1376 59.6159 82.1726 57.9949 82.2066C56.3739 82.2406 54.6948 82.2756 53.1598 82.2846C53.0423 82.2858 52.929 82.2411 52.8439 82.1601C52.7587 82.0791 52.7085 81.9681 52.7039 81.8506ZM62.3589 80.8646C62.3589 78.2516 62.3589 75.5546 62.3239 72.8946C59.4549 72.7636 56.5589 72.7676 53.4979 72.9076C53.4529 75.5756 53.4829 78.2896 53.5929 81.3776C54.9929 81.3646 56.5079 81.3336 57.9749 81.3026C59.4419 81.2716 60.9529 81.2396 62.3589 81.2266V80.8646Z" fill="black"/>
    <path d="M73.3563 36.3792L82.5163 36.2932C82.5531 36.2889 82.5871 36.2713 82.6117 36.2436C82.6363 36.216 82.65 36.1802 82.65 36.1432C82.65 36.1061 82.6363 36.0704 82.6117 36.0427C82.5871 36.0151 82.5531 35.9974 82.5163 35.9932L73.3563 36.0792C73.3195 36.0834 73.2856 36.1011 73.2609 36.1287C73.2363 36.1564 73.2227 36.1921 73.2227 36.2292C73.2227 36.2662 73.2363 36.302 73.2609 36.3296C73.2856 36.3573 73.3195 36.3749 73.3563 36.3792Z" fill="black"/>
    <path d="M52.8549 36.3703H52.8628C55.0628 36.2523 57.6979 36.2703 60.2469 36.2783C61.0329 36.2783 61.8089 36.2863 62.5599 36.2863C62.581 36.2888 62.6024 36.2867 62.6227 36.2803C62.643 36.2739 62.6618 36.2632 62.6777 36.2491C62.6936 36.2349 62.7062 36.2175 62.715 36.1981C62.7237 36.1787 62.7282 36.1576 62.7282 36.1363C62.7282 36.115 62.7237 36.094 62.715 36.0745C62.7062 36.0551 62.6936 36.0377 62.6777 36.0236C62.6618 36.0094 62.643 35.9988 62.6227 35.9923C62.6024 35.9859 62.581 35.9839 62.5599 35.9863C61.8099 35.9863 61.0338 35.9863 60.2488 35.9793C57.6948 35.9653 55.0549 35.9533 52.8489 36.0723C52.8121 36.0774 52.7785 36.0959 52.7545 36.1243C52.7305 36.1526 52.7178 36.1888 52.7188 36.2259C52.7198 36.263 52.7344 36.2984 52.7599 36.3255C52.7853 36.3525 52.8199 36.3691 52.8569 36.3723L52.8549 36.3703Z" fill="black"/>
    <path d="M73.6376 55.714H73.6437C74.9677 55.666 76.5437 55.682 78.0767 55.697C79.6447 55.712 81.2677 55.729 82.6647 55.679C82.7046 55.6774 82.7422 55.6601 82.7693 55.6309C82.7965 55.6017 82.811 55.5629 82.8096 55.523C82.8078 55.4833 82.7906 55.4458 82.7617 55.4186C82.7328 55.3913 82.6944 55.3764 82.6547 55.377C81.2637 55.428 79.6456 55.412 78.0806 55.396C76.5486 55.381 74.9647 55.365 73.6337 55.413C73.5969 55.4172 73.5629 55.4349 73.5383 55.4625C73.5136 55.4902 73.5 55.5259 73.5 55.563C73.5 55.6 73.5136 55.6358 73.5383 55.6634C73.5629 55.6911 73.5969 55.7087 73.6337 55.713L73.6376 55.714Z" fill="black"/>
    <path d="M53.2337 55.6802H53.2397C55.4227 55.5922 58.8187 55.5582 62.5567 55.5802C62.5935 55.5759 62.6274 55.5583 62.652 55.5306C62.6767 55.503 62.6903 55.4672 62.6903 55.4302C62.6903 55.3931 62.6767 55.3574 62.652 55.3297C62.6274 55.3021 62.5935 55.2844 62.5567 55.2802C60.7857 55.2682 56.3316 55.2532 53.2246 55.3802C53.1879 55.3851 53.1542 55.4034 53.1301 55.4315C53.106 55.4597 53.093 55.4958 53.0938 55.5328C53.0945 55.5699 53.1089 55.6054 53.1341 55.6326C53.1594 55.6598 53.1937 55.6767 53.2306 55.6802H53.2337Z" fill="black"/>
    <path d="M77.8193 75.3027C79.5523 75.3027 81.2913 75.2887 82.9493 75.2297C82.9892 75.2282 83.0268 75.2109 83.054 75.1817C83.0812 75.1524 83.0957 75.1136 83.0944 75.0737C83.0918 75.0341 83.0742 74.997 83.0452 74.9698C83.0162 74.9427 82.9781 74.9277 82.9384 74.9277C80.6274 75.0117 78.1533 75.0037 75.7603 74.9967C75.0733 74.9967 74.3894 74.9967 73.7114 74.9967C73.6902 74.9943 73.6687 74.9963 73.6484 75.0028C73.6281 75.0092 73.6094 75.0198 73.5935 75.034C73.5776 75.0482 73.5649 75.0655 73.5562 75.085C73.5475 75.1044 73.543 75.1255 73.543 75.1467C73.543 75.168 73.5475 75.1891 73.5562 75.2085C73.5649 75.2279 73.5776 75.2453 73.5935 75.2595C73.6094 75.2736 73.6281 75.2843 73.6484 75.2907C73.6687 75.2971 73.6902 75.2992 73.7114 75.2967C74.39 75.2967 75.0727 75.2967 75.7593 75.2967C76.4433 75.3007 77.1323 75.3027 77.8193 75.3027Z" fill="black"/>
    <path d="M62.6083 75.1627C62.6451 75.1584 62.679 75.1408 62.7037 75.1131C62.7283 75.0855 62.7419 75.0497 62.7419 75.0127C62.7419 74.9756 62.7283 74.9399 62.7037 74.9122C62.679 74.8846 62.6451 74.8669 62.6083 74.8627C59.4943 74.7957 56.3393 74.7777 53.2313 74.8087C53.1945 74.8129 53.1606 74.8306 53.1359 74.8582C53.1113 74.8859 53.0977 74.9216 53.0977 74.9587C53.0977 74.9957 53.1113 75.0315 53.1359 75.0591C53.1606 75.0868 53.1945 75.1044 53.2313 75.1087C56.3363 75.0767 59.4883 75.0947 62.5993 75.1627H62.6083Z" fill="black"/>
    <path d="M32.8838 62.129C35.9398 62.11 39.4838 61.99 42.5388 61.971C42.5388 59.02 42.5388 55.839 42.4978 52.76C39.261 52.6008 36.0182 52.6048 32.7818 52.772C32.7218 55.786 32.7598 58.802 32.8838 62.129Z" fill="#ACD4F7"/>
    <path d="M32.4304 62.1459C32.3024 58.6919 32.2694 55.7109 32.3304 52.7629C32.3326 52.6483 32.3782 52.5388 32.458 52.4565C32.5378 52.3743 32.6459 52.3254 32.7604 52.3199C36.0119 52.1527 39.2696 52.1487 42.5214 52.3079C42.6362 52.3135 42.7446 52.3626 42.8245 52.4453C42.9044 52.5279 42.9498 52.6379 42.9514 52.7529C42.9934 55.5619 42.9924 58.4169 42.9924 61.1769V61.9719C42.9927 62.0913 42.9456 62.206 42.8614 62.2907C42.7772 62.3755 42.6628 62.4234 42.5434 62.4239C41.0204 62.4339 39.3434 62.4689 37.7304 62.5029C36.1174 62.5369 34.4214 62.5719 32.8874 62.5819C32.7696 62.5828 32.656 62.5377 32.5707 62.4564C32.4854 62.375 32.4351 62.2637 32.4304 62.1459ZM42.0854 61.1759C42.0854 58.5579 42.0854 55.8559 42.0504 53.1909C39.1814 53.0599 36.2864 53.0639 33.2244 53.2029C33.1794 55.8709 33.2094 58.5849 33.3194 61.6739C34.7254 61.6609 36.2394 61.6289 37.7094 61.5989C39.1794 61.5689 40.6814 61.5359 42.0854 61.5239V61.1759Z" fill="black"/>
    <path d="M32.8838 81.8334C35.9398 81.8144 39.4838 81.6954 42.5388 81.6764C42.5388 78.7254 42.5388 75.5444 42.4978 72.4644C39.261 72.3061 36.0182 72.3101 32.7818 72.4764C32.7218 75.4914 32.7598 78.5074 32.8838 81.8334Z" fill="#ACD4F7"/>
    <path d="M32.4304 81.8507C32.3024 78.3957 32.2694 75.4147 32.3304 72.4667C32.3328 72.3522 32.3786 72.243 32.4584 72.1609C32.5382 72.0789 32.6461 72.0302 32.7604 72.0247C36.0118 71.8566 39.2696 71.8526 42.5214 72.0126C42.6362 72.0182 42.7446 72.0674 42.8245 72.15C42.9044 72.2327 42.9498 72.3427 42.9514 72.4577C42.9934 75.2667 42.9924 78.1206 42.9924 80.8816V81.6766C42.9927 81.7961 42.9456 81.9108 42.8614 81.9955C42.7772 82.0802 42.6628 82.1281 42.5434 82.1287C41.0184 82.1387 39.3434 82.1736 37.7224 82.2077C36.1014 82.2417 34.4224 82.2767 32.8884 82.2857C32.7705 82.287 32.6566 82.2424 32.5711 82.1611C32.4856 82.0799 32.4351 81.9685 32.4304 81.8507ZM42.0854 80.8807C42.0854 78.2627 42.0854 75.5596 42.0504 72.8946C39.1814 72.7636 36.2854 72.7676 33.2244 72.9076C33.1794 75.5756 33.2094 78.2896 33.3194 81.3776C34.7194 81.3646 36.2344 81.3337 37.7004 81.3027C39.1664 81.2717 40.6784 81.2396 42.0844 81.2266L42.0854 80.8807Z" fill="black"/>
    <path d="M32.9641 55.6802H32.9702C35.1532 55.5922 38.5481 55.5572 42.2871 55.5802C42.3239 55.5759 42.3579 55.5583 42.3825 55.5306C42.4072 55.503 42.4208 55.4672 42.4208 55.4302C42.4208 55.3931 42.4072 55.3574 42.3825 55.3297C42.3579 55.3021 42.3239 55.2844 42.2871 55.2802C40.5161 55.2682 36.0622 55.2532 32.9552 55.3802C32.9184 55.3851 32.8848 55.4034 32.8606 55.4315C32.8365 55.4597 32.8235 55.4958 32.8242 55.5328C32.825 55.5699 32.8394 55.6054 32.8647 55.6326C32.8899 55.6598 32.9242 55.6767 32.9612 55.6802H32.9641Z" fill="black"/>
    <path d="M42.3348 75.1627C42.3716 75.1584 42.4055 75.1408 42.4302 75.1131C42.4548 75.0855 42.4685 75.0497 42.4685 75.0127C42.4685 74.9756 42.4548 74.9399 42.4302 74.9122C42.4055 74.8846 42.3716 74.8669 42.3348 74.8627C39.2198 74.7957 36.0658 74.7777 32.9578 74.8087C32.9379 74.8089 32.9184 74.8131 32.9002 74.8209C32.8819 74.8288 32.8655 74.8401 32.8516 74.8543C32.8378 74.8685 32.8269 74.8853 32.8195 74.9037C32.8122 74.9221 32.8085 74.9418 32.8088 74.9617C32.8077 74.9818 32.811 75.0019 32.8183 75.0206C32.8256 75.0394 32.8368 75.0563 32.8512 75.0704C32.8656 75.0845 32.8828 75.0954 32.9017 75.1023C32.9206 75.1093 32.9407 75.1121 32.9608 75.1107C36.0658 75.0787 39.2178 75.0967 42.3288 75.1647L42.3348 75.1627Z" fill="black"/>
    <path d="M96.8674 96.4263C70.7314 96.4263 46.0594 96.2263 20.8624 96.4193C20.1944 96.4193 20.1914 90.7643 20.1914 90.7643C28.4164 91.3823 75.3474 90.0752 96.9914 91.0302C97.1499 92.828 97.1083 94.6377 96.8674 96.4263Z" fill="white"/>
    <path d="M70.5782 96.8314C53.5532 96.7864 37.4783 96.7424 20.8603 96.8714C20.4423 96.8714 19.7413 96.8714 19.7383 90.7644C19.7383 90.7021 19.7512 90.6404 19.7761 90.5833C19.8011 90.5261 19.8375 90.4748 19.8832 90.4324C19.9287 90.3899 19.9825 90.3574 20.0412 90.3369C20.0999 90.3164 20.1623 90.3084 20.2242 90.3134C23.7992 90.5814 34.9242 90.4824 47.7972 90.3684C64.2882 90.2224 84.8113 90.0404 97.0093 90.5784C97.1198 90.5832 97.2248 90.6285 97.3042 90.7055C97.3836 90.7826 97.432 90.8861 97.4402 90.9964C97.6011 92.8271 97.5585 94.6701 97.3133 96.4914C97.2977 96.5988 97.2439 96.6971 97.1618 96.7681C97.0797 96.8392 96.9748 96.8783 96.8663 96.8784C87.9603 96.8784 79.1232 96.8544 70.5782 96.8314ZM47.8052 91.2734C35.4442 91.3834 24.6983 91.4734 20.6453 91.2484C20.6082 92.8306 20.7402 94.4123 21.0392 95.9664C37.5892 95.8394 53.6162 95.8824 70.5812 95.9284C78.9992 95.9514 87.6993 95.9744 96.4723 95.9754C96.6459 94.4784 96.6777 92.9684 96.5673 91.4654C84.3453 90.9484 64.1032 91.1284 47.8052 91.2724V91.2734Z" fill="black"/>
    <path d="M91.2869 12.1788H91.2939C91.3338 12.1769 91.3714 12.1594 91.3984 12.13C91.4253 12.1006 91.4395 12.0617 91.4379 12.0218L91.1019 3.98877C91.0994 3.94907 91.0816 3.91187 91.0524 3.88488C91.0232 3.85789 90.9847 3.84317 90.9449 3.84377C90.9251 3.84454 90.9057 3.84922 90.8877 3.85754C90.8698 3.86587 90.8536 3.87767 90.8402 3.89226C90.8268 3.90686 90.8165 3.92396 90.8097 3.94258C90.803 3.96121 90.8 3.98098 90.801 4.00077L91.1369 12.0338C91.1385 12.0726 91.1549 12.1093 91.1828 12.1363C91.2108 12.1633 91.2481 12.1785 91.2869 12.1788Z" fill="black"/>
    <path d="M88.4675 8.1181C88.5064 8.11814 88.5438 8.1032 88.5719 8.07638C88.6 8.04955 88.6167 8.01292 88.6185 7.9741L88.7995 4.1741C88.8011 4.13421 88.7869 4.0953 88.76 4.06588C88.733 4.03646 88.6954 4.01892 88.6555 4.0171C88.6356 4.01544 88.6155 4.01793 88.5966 4.02441C88.5776 4.03089 88.5603 4.04122 88.5455 4.05474C88.5308 4.06827 88.519 4.0847 88.5109 4.10301C88.5028 4.12131 88.4986 4.14109 88.4985 4.1611L88.3165 7.9611C88.3149 8.00099 88.3291 8.0399 88.3561 8.06933C88.3831 8.09875 88.4206 8.11628 88.4605 8.1181H88.4675Z" fill="black"/>
    <path d="M86.0967 7.05887C86.1349 7.0587 86.1716 7.04406 86.1994 7.01789C86.2273 6.99173 86.2442 6.95599 86.2467 6.91787L86.4227 4.26987C86.4261 4.24912 86.425 4.22789 86.4197 4.20755C86.4144 4.18721 86.4049 4.1682 86.3918 4.15174C86.3787 4.13529 86.3624 4.12174 86.3437 4.11198C86.3251 4.10222 86.3047 4.09646 86.2837 4.09506C86.2627 4.09366 86.2417 4.09666 86.2219 4.10386C86.2022 4.11106 86.1841 4.12231 86.169 4.13689C86.1538 4.15146 86.1419 4.16904 86.1339 4.18849C86.1259 4.20795 86.1221 4.22886 86.1227 4.24987L85.9457 6.89788C85.9443 6.91771 85.9469 6.93762 85.9533 6.95646C85.9596 6.9753 85.9697 6.9927 85.9828 7.00766C85.9959 7.02262 86.0117 7.03485 86.0296 7.04364C86.0474 7.05242 86.0669 7.0576 86.0867 7.05887H86.0967Z" fill="black"/>
    <path d="M46.7 26.3828C46.7198 26.3823 46.7395 26.3778 46.7576 26.3697C46.7757 26.3615 46.792 26.3498 46.8056 26.3353C46.8192 26.3208 46.8298 26.3037 46.8367 26.2851C46.8436 26.2665 46.8468 26.2466 46.846 26.2268L46.68 20.6138C46.678 20.5743 46.6608 20.5372 46.6322 20.51C46.6035 20.4828 46.5655 20.4677 46.526 20.4678C46.5061 20.4683 46.4865 20.4727 46.4683 20.4809C46.4501 20.489 46.4337 20.5007 46.42 20.5152C46.4063 20.5297 46.3957 20.5467 46.3886 20.5654C46.3816 20.584 46.3783 20.6039 46.379 20.6238L46.545 26.2368C46.5455 26.2566 46.5499 26.276 46.558 26.2941C46.5661 26.3122 46.5777 26.3285 46.5921 26.342C46.6065 26.3556 46.6235 26.3662 46.642 26.3732C46.6605 26.3802 46.6802 26.3834 46.7 26.3828Z" fill="black"/>
    <path d="M48.6777 23.5765C48.7177 23.576 48.7559 23.5598 48.7839 23.5313C48.812 23.5029 48.8278 23.4645 48.8278 23.4245L48.8117 20.5865C48.8117 20.5467 48.796 20.5086 48.7678 20.4805C48.7397 20.4523 48.7015 20.4365 48.6617 20.4365C48.6419 20.4367 48.6223 20.4407 48.604 20.4484C48.5857 20.4561 48.5692 20.4673 48.5552 20.4815C48.5413 20.4956 48.5303 20.5123 48.5228 20.5307C48.5154 20.549 48.5116 20.5687 48.5117 20.5885L48.5267 23.4265C48.527 23.4664 48.543 23.5046 48.5713 23.5327C48.5996 23.5608 48.6379 23.5765 48.6777 23.5765Z" fill="black"/>
    <path d="M51.1362 22.7626C51.1736 22.7625 51.2097 22.7486 51.2374 22.7234C51.2651 22.6983 51.2825 22.6638 51.2862 22.6266C51.3491 21.9852 51.3397 21.3388 51.2582 20.6996C51.2532 20.6598 51.2325 20.6236 51.2008 20.5991C51.1692 20.5745 51.129 20.5635 51.0892 20.5686C51.0494 20.5736 51.0133 20.5943 50.9887 20.6259C50.9642 20.6576 50.9532 20.6978 50.9582 20.7376C51.0372 21.3539 51.0462 21.9772 50.9852 22.5956C50.9831 22.6152 50.985 22.6351 50.9906 22.654C50.9962 22.6729 51.0055 22.6906 51.018 22.7059C51.0304 22.7212 51.0458 22.734 51.0631 22.7433C51.0805 22.7527 51.0996 22.7586 51.1192 22.7606L51.1362 22.7626Z" fill="black"/>
    <path d="M23.7218 51.8881C23.7416 51.8877 23.7612 51.8834 23.7793 51.8754C23.7975 51.8675 23.8139 51.856 23.8277 51.8417C23.8414 51.8274 23.8522 51.8106 23.8594 51.7921C23.8667 51.7736 23.8701 51.7539 23.8697 51.7341C23.8317 49.4811 23.7328 47.2001 23.5748 44.9531C23.5736 44.9333 23.5685 44.9139 23.5597 44.8961C23.551 44.8783 23.5388 44.8624 23.5237 44.8494C23.5087 44.8365 23.4912 44.8267 23.4723 44.8206C23.4535 44.8145 23.4335 44.8123 23.4137 44.8141C23.3738 44.8169 23.3367 44.8354 23.3105 44.8656C23.2842 44.8958 23.271 44.9352 23.2738 44.9751C23.4308 47.2151 23.5308 49.4911 23.5688 51.7401C23.569 51.7599 23.5732 51.7794 23.581 51.7976C23.5889 51.8157 23.6003 51.8322 23.6145 51.8459C23.6287 51.8597 23.6455 51.8705 23.6639 51.8777C23.6823 51.8849 23.702 51.8885 23.7218 51.8881Z" fill="black"/>
    <path d="M25.5894 48.1758H25.5964C25.6363 48.1737 25.6737 48.1559 25.7005 48.1263C25.7273 48.0967 25.7413 48.0577 25.7394 48.0178L25.5864 45.0328C25.5841 44.993 25.5662 44.9557 25.5367 44.929C25.5071 44.9022 25.4682 44.8881 25.4284 44.8898C25.4086 44.8907 25.3892 44.8955 25.3713 44.9039C25.3533 44.9124 25.3372 44.9243 25.324 44.939C25.3107 44.9537 25.3004 44.9708 25.2938 44.9895C25.2872 45.0082 25.2843 45.028 25.2854 45.0478L25.4384 48.0328C25.4404 48.0714 25.4572 48.1078 25.4853 48.1344C25.5134 48.161 25.5507 48.1758 25.5894 48.1758Z" fill="black"/>
    <path d="M15.0452 52.7168C10.0262 52.7168 6.83319 55.2508 6.20619 58.9098C5.95402 60.6632 6.29311 62.4507 7.16994 63.9899C8.04676 65.5292 9.41138 66.7325 11.0482 67.4098C16.7972 69.8748 23.3372 66.0858 23.3372 60.6948C23.3372 55.2108 19.2722 52.7168 15.0452 52.7168Z" fill="white"/>
    <path d="M14.801 69.0352C13.3948 69.0338 12.0036 68.7463 10.712 68.1902C8.90177 67.4355 7.39413 66.0998 6.42675 64.3937C5.45936 62.6876 5.08722 60.7081 5.36901 58.7672C6.09801 54.5132 9.80602 51.8672 15.043 51.8672C19.592 51.8672 24.182 54.5972 24.182 60.6952C24.1589 62.0368 23.7981 63.3509 23.1329 64.5162C22.4677 65.6814 21.5195 66.6602 20.376 67.3622C18.7219 68.4544 16.7832 69.0362 14.801 69.0352ZM15.044 53.5632C10.622 53.5632 7.62899 55.6152 7.03899 59.0532C6.81866 60.6194 7.12568 62.2144 7.91161 63.5869C8.69754 64.9594 9.91772 66.0315 11.38 66.6342C12.6774 67.1885 14.0911 67.4162 15.4969 67.2973C16.9028 67.1784 18.2581 66.7165 19.444 65.9522C20.3516 65.4023 21.1061 64.6328 21.6381 63.7146C22.17 62.7964 22.4624 61.759 22.488 60.6982C22.489 55.4312 18.479 53.5632 15.044 53.5632Z" fill="black"/>
    <path d="M0.886719 96.649C1.30572 91.776 0.880689 86.772 1.85669 82.023C3.05069 76.211 6.51869 71.056 11.0937 69.054C13.4335 68.0739 16.041 67.936 18.4712 68.6638C20.9014 69.3916 23.0038 70.9401 24.4197 73.045C27.0747 76.794 27.8987 81.991 28.2317 86.955C28.4467 90.179 28.4977 93.415 28.5497 96.648L0.886719 96.649Z" fill="white"/>
    <path d="M28.5491 97.4963H0.886116C0.768765 97.4962 0.652756 97.4717 0.545356 97.4244C0.437956 97.3771 0.341545 97.308 0.262214 97.2215C0.182883 97.1351 0.122358 97.0331 0.0844799 96.922C0.0466013 96.8109 0.0321576 96.6932 0.0421215 96.5763C0.198121 94.7703 0.237116 92.9023 0.274116 91.0963C0.244566 87.9985 0.49628 84.9045 1.02613 81.8523C2.32613 75.5383 6.05012 70.3373 10.7531 68.2783C13.2705 67.212 16.0806 67.0558 18.7006 67.8365C21.3206 68.6172 23.5869 70.2861 25.1101 72.5563C28.0521 76.7113 28.7751 82.4033 29.0761 86.8993C29.2941 90.1483 29.3451 93.4463 29.3961 96.6363C29.3977 96.7486 29.377 96.86 29.3352 96.9642C29.2933 97.0684 29.2312 97.1633 29.1524 97.2433C29.0736 97.3233 28.9797 97.3869 28.8762 97.4303C28.7726 97.4737 28.6614 97.4962 28.5491 97.4963ZM1.79914 95.8023H27.6892C27.6422 92.9023 27.5821 89.9293 27.3891 87.0123C27.1021 82.7393 26.4281 77.3453 23.7311 73.5353C22.4302 71.5855 20.4908 70.1497 18.2462 69.4745C16.0016 68.7993 13.5919 68.9268 11.4312 69.8353C7.28916 71.6483 3.85515 76.5003 2.68415 82.1983C2.17756 85.1501 1.93694 88.1414 1.96516 91.1363C1.93016 92.6643 1.90314 94.2393 1.79914 95.8023Z" fill="black"/>
    <path d="M5.17216 94.2816C5.10072 94.2815 5.032 94.2543 4.97984 94.2055C4.92768 94.1567 4.89597 94.0899 4.89116 94.0186C4.72401 91.592 4.76216 89.1557 5.00517 86.7356C5.0135 86.6615 5.0505 86.5937 5.10826 86.5466C5.16602 86.4995 5.23996 86.4768 5.31419 86.4836C5.38839 86.4912 5.45654 86.5278 5.50377 86.5856C5.551 86.6433 5.57347 86.7174 5.56621 86.7916C5.32707 89.1802 5.2896 91.5847 5.45421 93.9796C5.45665 94.0166 5.45176 94.0537 5.43986 94.0887C5.42797 94.1238 5.4093 94.1562 5.38487 94.1841C5.36045 94.212 5.33076 94.2347 5.29753 94.2511C5.2643 94.2675 5.22818 94.2772 5.19121 94.2796L5.17216 94.2816Z" fill="black"/>
    <path d="M8.88766 94.2812C8.81414 94.2809 8.74364 94.2521 8.691 94.2008C8.63837 94.1495 8.60775 94.0797 8.60568 94.0062L8.51968 90.9492C8.51848 90.9121 8.52466 90.8752 8.53781 90.8405C8.55095 90.8058 8.5708 90.7741 8.59628 90.7471C8.62175 90.7202 8.6523 90.6985 8.68618 90.6834C8.72006 90.6683 8.75659 90.6601 8.79366 90.6592C8.86788 90.6591 8.93936 90.6874 8.99331 90.7384C9.04726 90.7894 9.07961 90.8591 9.0837 90.9332L9.17068 93.9912C9.17256 94.0661 9.14465 94.1387 9.0931 94.193C9.04155 94.2474 8.97054 94.2791 8.89565 94.2812H8.88766Z" fill="black"/>
    </svg>
    