<svg height="68" viewBox="0 0 102 68" fill="none" xmlns="http://www.w3.org/2000/svg">
    <path d="M46.7769 1.61523C42.1159 1.61523 39.1499 4.06523 38.5679 7.60223C38.3205 9.2755 38.6261 10.9838 39.4383 12.4675C40.2506 13.9512 41.525 15.1291 43.0679 15.8222C48.4049 18.2042 54.4809 14.5412 54.4809 9.33024C54.4779 4.02824 50.7019 1.61523 46.7769 1.61523Z" fill="white" />
    <path d="M46.5438 17.5303C45.2091 17.5287 43.8898 17.2459 42.6718 16.7003C40.9375 15.9174 39.5059 14.5903 38.5939 12.9204C37.6818 11.2504 37.3391 9.32861 37.6177 7.44634C38.3077 3.25634 41.8178 0.652344 46.7758 0.652344C51.0878 0.652344 55.4398 3.33535 55.4398 9.33035C55.4159 10.6738 55.0556 11.9898 54.3917 13.158C53.7279 14.3262 52.7817 15.3093 51.6398 16.0173C50.1231 17.0037 48.353 17.5292 46.5438 17.5303ZM46.7767 2.57635C42.7647 2.57635 40.0507 4.51335 39.5157 7.75935C39.3021 9.2226 39.5712 10.7156 40.2823 12.0122C40.9935 13.3087 42.1079 14.3381 43.4567 14.9443C44.5969 15.4594 45.8481 15.6798 47.0956 15.5855C48.3432 15.4911 49.547 15.085 50.5967 14.4043C51.4739 13.8759 52.2023 13.133 52.7133 12.2456C53.2242 11.3581 53.5011 10.3553 53.5178 9.33134C53.5208 4.34534 49.8858 2.57635 46.7758 2.57635H46.7767Z" fill="black" />
    <path d="M33.1875 38.2311C33.5875 34.5231 33.1804 30.7161 34.1194 27.1001C34.6917 24.8605 35.7982 22.7928 37.3442 21.0742C38.8902 19.3557 40.8296 18.0373 42.9965 17.2321C45.1984 16.463 47.5745 16.3403 49.8439 16.8785C52.1134 17.4167 54.1813 18.5932 55.8035 20.2691C58.3535 23.1221 59.1465 27.0781 59.4665 30.8551C59.6735 33.3081 59.7215 35.7711 59.7725 38.2331L33.1875 38.2311Z" fill="#ACD4F7" />
    <path d="M59.7717 39.1929H33.1878C33.0526 39.1928 32.919 39.1642 32.7957 39.1091C32.6723 39.0539 32.562 38.9735 32.4718 38.8729C32.3813 38.7726 32.3131 38.6542 32.2719 38.5256C32.2307 38.397 32.2174 38.2611 32.2327 38.1269C32.3797 36.7719 32.4167 35.3599 32.4527 33.9929C32.4257 31.5942 32.6734 29.2003 33.1908 26.8579C33.7968 24.4623 34.9779 22.2507 36.6317 20.4148C38.2856 18.5788 40.3622 17.1739 42.6817 16.3219C45.0621 15.4874 47.6322 15.3548 50.0858 15.9399C52.5394 16.5249 54.7731 17.803 56.5207 19.6219C59.4207 22.8659 60.1307 27.2829 60.4207 30.7699C60.6307 33.2569 60.6808 35.7749 60.7298 38.2089C60.7323 38.3367 60.7093 38.4637 60.6621 38.5825C60.615 38.7013 60.5446 38.8095 60.4551 38.9007C60.3656 38.992 60.2588 39.0645 60.1409 39.114C60.0231 39.1634 59.8966 39.1889 59.7688 39.1889L59.7717 39.1929ZM34.2387 37.2699H58.7898C58.7458 35.1759 58.6847 33.0329 58.5067 30.9349C58.2387 27.7469 57.6067 23.7269 55.0847 20.9079C53.5941 19.3659 51.6916 18.2851 49.6039 17.7941C47.5162 17.3032 45.3313 17.4229 43.3097 18.1389C41.2888 18.8854 39.4805 20.1134 38.0413 21.7165C36.6022 23.3196 35.5757 25.2495 35.0507 27.3389C34.5701 29.5391 34.3427 31.787 34.3728 34.0389C34.3458 35.1009 34.3187 36.1859 34.2387 37.2699Z" fill="black" />
    <path d="M100.157 26.003C100.157 26.003 79.6565 30.785 75.7135 29.955C70.0546 28.763 65.5755 27.555 59.9475 29.402C57.0415 30.356 53.3655 32.661 50.7475 34.265C45.5125 37.465 45.8475 36.94 42.3635 38.172C38.0425 36.972 33.0175 35.457 29.0145 33.094C23.8615 30.052 18.6885 26.471 17.1635 25.572C13.1285 23.19 12.0365 25.418 10.3515 26.793C8.22455 25.373 2.9635 25.334 3.4315 29.531C3.5735 30.801 1.81452 30.231 1.65752 32.824C1.39552 37.165 11.1405 47.305 19.0795 53.575C26.5945 57.346 39.0995 64.087 49.8345 66.468C54.7945 67.568 74.8725 58.595 87.4935 54.138C94.8935 51.525 92.9825 53.42 98.5215 52.401C101.111 49.846 100.157 26.003 100.157 26.003Z" fill="white" />
    <path d="M50.8084 67.3485C50.4233 67.3543 50.0387 67.3181 49.6614 67.2405C40.0265 65.1045 28.8215 59.4095 21.4085 55.6405C20.4575 55.1565 19.5595 54.7005 18.7235 54.2805C18.6751 54.2569 18.6295 54.228 18.5874 54.1945C11.0514 48.2435 0.571427 37.6635 0.865427 32.7755C0.852468 32.2064 0.984807 31.6434 1.24989 31.1397C1.51497 30.6359 1.90406 30.2081 2.38044 29.8965C2.47537 29.8333 2.56467 29.762 2.64741 29.6835C2.64741 29.6835 2.64741 29.6575 2.64741 29.6175C2.51645 28.8925 2.60611 28.1448 2.90473 27.4712C3.20335 26.7977 3.69723 26.2293 4.32246 25.8395C5.24396 25.381 6.25888 25.1414 7.28816 25.1395C8.31743 25.1376 9.33323 25.3734 10.2564 25.8285C10.3664 25.7285 10.4764 25.6215 10.5894 25.5145C11.9604 24.2145 13.6655 22.5875 17.5675 24.8905C18.1205 25.2175 19.1294 25.8785 20.4074 26.7175C22.8074 28.2925 26.0964 30.4515 29.4184 32.4115C33.1304 34.6025 37.8104 36.0795 42.3364 37.3425C42.9844 37.1165 43.4975 36.9525 43.9425 36.8105C45.6685 36.2575 46.3135 36.0505 50.3355 33.5885L50.8045 33.3005C53.603 31.4477 56.5855 29.8891 59.7044 28.6495C65.1044 26.8735 69.5144 27.8185 74.6134 28.9095L75.8814 29.1775C78.9814 29.8255 94.3255 26.5495 99.9815 25.2295C100.095 25.2034 100.213 25.2026 100.326 25.2271C100.44 25.2517 100.547 25.301 100.639 25.3715C100.732 25.4421 100.808 25.5322 100.861 25.6353C100.915 25.7385 100.946 25.8523 100.95 25.9685C101.112 30.0085 101.781 50.2945 99.0775 52.9605C98.9644 53.0713 98.821 53.1462 98.6654 53.1755C97.2466 53.4774 95.7929 53.582 94.3454 53.4865C93.0694 53.4165 92.0584 53.3605 87.7564 54.8805C84.2564 56.1165 80.2495 57.6755 76.0024 59.3245C65.4194 63.4425 55.3734 67.3485 50.8084 67.3485ZM19.5084 52.9065C20.3264 53.3175 21.2034 53.7625 22.1284 54.2325C29.4704 57.9635 40.5665 63.6025 50.0075 65.6975C53.3475 66.4395 65.0814 61.8795 75.4304 57.8555C79.6874 56.2015 83.7094 54.6375 87.2304 53.3935C91.8304 51.7685 92.9784 51.8315 94.4304 51.9125C95.6582 51.9957 96.8917 51.9156 98.0985 51.6745C99.5415 49.5105 99.7364 36.4245 99.4054 26.9905C95.0224 27.9905 79.1964 31.4965 75.5524 30.7295L74.2814 30.4595C69.2054 29.3725 65.1944 28.5135 60.1954 30.1595C57.1949 31.365 54.3247 32.8728 51.6294 34.6595L51.1585 34.9475C46.9745 37.5075 46.2274 37.7475 44.4224 38.3255C43.9374 38.4805 43.3694 38.6615 42.6224 38.9255C42.4696 38.98 42.3036 38.9856 42.1474 38.9415C37.4474 37.6345 32.5474 36.1045 28.6094 33.7825C25.2554 31.8035 21.9484 29.6325 19.5354 28.0475C18.2734 27.2215 17.2794 26.5675 16.7584 26.2605C13.8864 24.5655 12.9584 25.4475 11.6724 26.6685C11.4124 26.9175 11.1424 27.1745 10.8474 27.4145C10.7165 27.5215 10.5547 27.5836 10.3859 27.5917C10.217 27.5998 10.05 27.5535 9.90943 27.4595C9.19372 27.0366 8.38669 26.7923 7.55659 26.7472C6.72649 26.7021 5.89776 26.8576 5.14045 27.2005C4.77145 27.4329 4.48393 27.7743 4.31782 28.1775C4.15171 28.5807 4.11523 29.0256 4.21345 29.4505C4.25292 29.7974 4.18771 30.1481 4.02625 30.4577C3.8648 30.7672 3.61449 31.0214 3.30744 31.1875C3.02019 31.3614 2.78708 31.612 2.63429 31.911C2.4815 32.2101 2.41508 32.5458 2.44245 32.8805C2.22045 36.6095 11.0724 46.2335 19.5054 52.9065H19.5084Z" fill="black" />
    <path d="M37.9616 50.4005C35.2236 50.4005 33.0246 49.6855 31.3426 47.5005C29.5156 45.1265 30.7706 43.0305 32.2366 41.2935C33.3236 40.0045 36.9156 38.9035 41.4986 37.5935C43.0766 37.1425 44.4406 36.7545 45.0706 36.4845C45.2628 36.4053 45.4784 36.4049 45.6709 36.4835C45.8634 36.562 46.0172 36.7132 46.0991 36.9043C46.181 37.0954 46.1843 37.311 46.1084 37.5046C46.0325 37.6981 45.8835 37.854 45.6936 37.9385C44.9706 38.2475 43.6296 38.6305 41.9316 39.1145C39.0806 39.9275 34.3066 41.2895 33.4446 42.3145C31.8446 44.2145 31.6266 45.2785 32.5956 46.5375C35.0556 49.7375 39.1776 48.9775 45.4166 47.8375C50.1519 46.8537 54.9689 46.3154 59.8046 46.2295C60.0141 46.2295 60.215 46.3127 60.3632 46.4609C60.5113 46.609 60.5946 46.81 60.5946 47.0195C60.5946 47.229 60.5113 47.43 60.3632 47.5781C60.215 47.7263 60.0141 47.8095 59.8046 47.8095C55.0651 47.8906 50.344 48.4206 45.7046 49.3925C43.1569 49.9478 40.5665 50.285 37.9616 50.4005Z" fill="black" />
    <path d="M33.4026 49.1891C33.2828 49.189 33.1645 49.162 33.0566 49.1101C26.0632 45.7533 19.5168 41.5356 13.5696 36.5551C13.2696 36.3011 12.9226 35.9781 12.5246 35.6141C10.3416 33.6141 6.28058 29.8831 3.49558 30.9811C3.39845 31.0233 3.29381 31.0455 3.1879 31.0465C3.08199 31.0475 2.97695 31.0272 2.87906 30.9867C2.78117 30.9463 2.69243 30.8866 2.61807 30.8112C2.54372 30.7358 2.48529 30.6462 2.44626 30.5477C2.40723 30.4492 2.38836 30.3439 2.39084 30.2381C2.39332 30.1322 2.41707 30.0279 2.46067 29.9314C2.50426 29.8348 2.56682 29.7481 2.64463 29.6762C2.72243 29.6043 2.81387 29.5489 2.91355 29.5131C6.62055 28.0451 10.9855 32.0551 13.5935 34.4501C13.9765 34.8011 14.3145 35.1111 14.6015 35.3571C20.4461 40.2493 26.8793 44.3918 33.7516 47.6881C33.9122 47.7664 34.0415 47.897 34.1184 48.0584C34.1952 48.2198 34.2151 48.4025 34.1747 48.5766C34.1343 48.7507 34.036 48.906 33.896 49.0171C33.7559 49.1281 33.5823 49.1884 33.4035 49.1881L33.4026 49.1891Z" fill="black" />
    <path d="M33.4092 41.9895C33.3465 41.9898 33.284 41.9821 33.2232 41.9665C27.3102 40.5415 21.1492 35.7615 16.1982 31.9205C14.1928 30.2641 12.0728 28.7513 9.85423 27.3935C9.75957 27.346 9.6754 27.28 9.60673 27.1994C9.53807 27.1187 9.48632 27.0251 9.45451 26.9241C9.4227 26.8231 9.41148 26.7167 9.42155 26.6113C9.43163 26.5058 9.4628 26.4035 9.51317 26.3103C9.56353 26.2172 9.63207 26.1351 9.71477 26.0689C9.79746 26.0027 9.8926 25.9538 9.99455 25.9251C10.0965 25.8964 10.2032 25.8885 10.3083 25.9018C10.4133 25.9151 10.5147 25.9493 10.6062 26.0025C12.9029 27.3987 15.0956 28.9591 17.1672 30.6715C21.9992 34.4185 28.0122 39.0825 33.5932 40.4295C33.7821 40.4739 33.948 40.5863 34.0594 40.7452C34.1707 40.9041 34.2196 41.0984 34.1969 41.2911C34.1741 41.4838 34.0813 41.6614 33.936 41.79C33.7908 41.9186 33.6032 41.9893 33.4092 41.9885V41.9895Z" fill="black" />
    <path d="M94.936 48.3729C94.9188 48.3753 94.9013 48.3753 94.884 48.3729C94.8501 48.3663 94.8178 48.353 94.789 48.3339C94.7602 48.3148 94.7355 48.2902 94.7162 48.2615C94.697 48.2327 94.6836 48.2005 94.6769 48.1666C94.6701 48.1327 94.6702 48.0977 94.677 48.0639C95.4548 44.1346 95.728 40.1222 95.49 36.1239C95.4879 36.0894 95.4926 36.0548 95.5038 36.0221C95.5151 35.9894 95.5327 35.9593 95.5557 35.9334C95.5786 35.9076 95.6065 35.8865 95.6376 35.8715C95.6687 35.8565 95.7025 35.8478 95.737 35.8459C95.8062 35.8436 95.8736 35.8679 95.9253 35.9139C95.9771 35.9598 96.0092 36.0239 96.0151 36.0929C96.2562 40.1358 95.9796 44.193 95.1921 48.1659C95.1797 48.2245 95.1474 48.2771 95.1008 48.3148C95.0542 48.3525 94.996 48.373 94.936 48.3729Z" fill="black" />
    <path d="M90.7321 48.6508C90.7028 48.6505 90.6737 48.6454 90.6461 48.6358C90.5801 48.6129 90.5259 48.5647 90.4954 48.502C90.4648 48.4392 90.4604 48.3668 90.483 48.3008C90.9548 46.938 91.1955 45.5059 91.1951 44.0638C91.1951 43.9938 91.2229 43.9266 91.2724 43.8771C91.3219 43.8276 91.389 43.7998 91.459 43.7998C91.4937 43.7998 91.528 43.8066 91.5601 43.8199C91.5921 43.8332 91.6212 43.8526 91.6457 43.8771C91.6703 43.9016 91.6897 43.9307 91.7029 43.9628C91.7162 43.9948 91.7231 44.0291 91.7231 44.0638C91.7222 45.5644 91.4717 47.0544 90.9821 48.4728C90.9641 48.5248 90.9304 48.57 90.8856 48.6019C90.8407 48.6338 90.7871 48.6509 90.7321 48.6508Z" fill="black" />
</svg>
    