<svg width="229" height="229" viewBox="0 0 313 313" fill="none" xmlns="http://www.w3.org/2000/svg">
<g filter="url(#filter0_d_698_20745)">
<path d="M297.45 148.461C296.417 157.546 294.065 166.346 290.643 174.825C285.262 188.185 277.779 200.334 268.834 211.557C250.837 234.18 228.921 252.208 204.082 266.779C188.402 275.971 171.937 283.311 154.404 288.298C145.566 290.792 136.586 292.609 127.391 293.464C111.889 294.925 96.7438 293.536 82.204 287.586C68.1275 281.85 56.7594 272.551 47.4938 260.616C38.2996 248.788 31.8849 235.463 27.074 221.354C22.9758 209.348 20.1961 197.021 18.2717 184.516C16.0979 170.443 15.0644 156.263 15.0288 144.328C14.6368 122.096 18.2361 103 26.7889 84.9369C37.9432 61.3871 55.1201 43.3596 77.6069 30.32C92.61 21.5913 108.789 16.0334 125.895 13.1832C135.517 11.5799 145.174 10.7961 154.903 11.0455C187.582 11.865 217.659 21.0212 244.529 39.9038C261.421 51.8033 275.035 66.6956 284.692 85.0438C291.214 97.4065 295.312 110.553 297.058 124.412C298.056 132.5 298.377 140.48 297.45 148.461Z" fill="white"/>
</g>
<path d="M89.9 210C89.9 208.5 90.0167 207.15 90.25 205.95C90.4833 204.75 90.8833 203.633 91.45 202.6C92.05 201.567 92.85 200.6 93.85 199.7C94.8833 198.767 96.1833 197.867 97.75 197C99.1167 196.267 100.317 195.633 101.35 195.1C102.383 194.533 103.25 194.017 103.95 193.55C104.683 193.083 105.233 192.617 105.6 192.15C105.967 191.65 106.15 191.083 106.15 190.45C106.15 189.783 105.967 189.183 105.6 188.65C105.233 188.083 104.717 187.633 104.05 187.3C103.383 186.967 102.55 186.8 101.55 186.8C100.75 186.8 100 186.9 99.3 187.1C98.6333 187.3 98 187.583 97.4 187.95C96.8333 188.317 96.3 188.733 95.8 189.2C95.3 189.633 94.85 190.1 94.45 190.6L90.2 185.7C90.6667 185.233 91.2833 184.733 92.05 184.2C92.85 183.633 93.7833 183.117 94.85 182.65C95.95 182.15 97.15 181.75 98.45 181.45C99.7833 181.117 101.2 180.95 102.7 180.95C104.967 180.95 106.9 181.317 108.5 182.05C110.1 182.75 111.317 183.733 112.15 185C113.017 186.267 113.45 187.75 113.45 189.45C113.45 190.617 113.233 191.65 112.8 192.55C112.367 193.45 111.817 194.25 111.15 194.95C110.483 195.617 109.75 196.217 108.95 196.75C108.183 197.283 107.433 197.75 106.7 198.15C105.667 198.683 104.733 199.183 103.9 199.65C103.067 200.083 102.333 200.533 101.7 201C101.067 201.433 100.5 201.883 100 202.35C99.5333 202.817 99.1167 203.35 98.75 203.95H114V210H89.9ZM119.123 210V202.8H124.623V210H119.123ZM129.353 210C129.353 208.5 129.47 207.15 129.703 205.95C129.936 204.75 130.336 203.633 130.903 202.6C131.503 201.567 132.303 200.6 133.303 199.7C134.336 198.767 135.636 197.867 137.203 197C138.57 196.267 139.77 195.633 140.803 195.1C141.836 194.533 142.703 194.017 143.403 193.55C144.136 193.083 144.686 192.617 145.053 192.15C145.42 191.65 145.603 191.083 145.603 190.45C145.603 189.783 145.42 189.183 145.053 188.65C144.686 188.083 144.17 187.633 143.503 187.3C142.836 186.967 142.003 186.8 141.003 186.8C140.203 186.8 139.453 186.9 138.753 187.1C138.086 187.3 137.453 187.583 136.853 187.95C136.286 188.317 135.753 188.733 135.253 189.2C134.753 189.633 134.303 190.1 133.903 190.6L129.653 185.7C130.12 185.233 130.736 184.733 131.503 184.2C132.303 183.633 133.236 183.117 134.303 182.65C135.403 182.15 136.603 181.75 137.903 181.45C139.236 181.117 140.653 180.95 142.153 180.95C144.42 180.95 146.353 181.317 147.953 182.05C149.553 182.75 150.77 183.733 151.603 185C152.47 186.267 152.903 187.75 152.903 189.45C152.903 190.617 152.686 191.65 152.253 192.55C151.82 193.45 151.27 194.25 150.603 194.95C149.936 195.617 149.203 196.217 148.403 196.75C147.636 197.283 146.886 197.75 146.153 198.15C145.12 198.683 144.186 199.183 143.353 199.65C142.52 200.083 141.786 200.533 141.153 201C140.52 201.433 139.953 201.883 139.453 202.35C138.986 202.817 138.57 203.35 138.203 203.95H153.453V210H129.353ZM157.276 193.8C157.276 196.033 157.809 198.05 158.876 199.85C159.976 201.617 161.459 203.033 163.326 204.1C165.226 205.133 167.326 205.65 169.626 205.65C170.759 205.65 171.792 205.5 172.726 205.2C173.692 204.867 174.542 204.4 175.276 203.8C176.042 203.2 176.642 202.517 177.076 201.75C177.042 203.883 176.709 205.717 176.076 207.25C175.476 208.75 174.626 209.9 173.526 210.7C172.459 211.5 171.176 211.9 169.676 211.9C168.209 211.9 166.826 211.533 165.526 210.8C164.259 210.1 163.226 209.133 162.426 207.9L158.576 212.1C159.876 213.9 161.476 215.283 163.376 216.25C165.276 217.217 167.342 217.7 169.576 217.7C172.376 217.7 174.809 216.933 176.876 215.4C178.942 213.867 180.526 211.617 181.626 208.65C182.759 205.683 183.326 202.05 183.326 197.75C183.326 194.317 182.792 191.4 181.726 189C180.659 186.567 179.142 184.7 177.176 183.4C175.242 182.1 172.926 181.45 170.226 181.45C167.792 181.45 165.592 182 163.626 183.1C161.659 184.2 160.109 185.683 158.976 187.55C157.842 189.417 157.276 191.5 157.276 193.8ZM170.226 187.1C171.392 187.1 172.476 187.417 173.476 188.05C174.476 188.65 175.276 189.467 175.876 190.5C176.476 191.5 176.776 192.6 176.776 193.8C176.776 195 176.476 196.1 175.876 197.1C175.276 198.067 174.476 198.85 173.476 199.45C172.509 200.017 171.426 200.3 170.226 200.3C169.026 200.3 167.926 200.017 166.926 199.45C165.926 198.85 165.126 198.067 164.526 197.1C163.959 196.1 163.676 195 163.676 193.8C163.676 192.567 163.976 191.45 164.576 190.45C165.176 189.45 165.976 188.65 166.976 188.05C167.976 187.417 169.059 187.1 170.226 187.1ZM195.119 189.15C193.586 189.15 192.202 188.817 190.969 188.15C189.736 187.45 188.736 186.533 187.969 185.4C187.236 184.233 186.869 182.95 186.869 181.55C186.869 180.15 187.236 178.883 187.969 177.75C188.736 176.583 189.736 175.667 190.969 175C192.202 174.333 193.586 174 195.119 174C196.652 174 198.036 174.333 199.269 175C200.536 175.667 201.536 176.583 202.269 177.75C203.002 178.883 203.369 180.15 203.369 181.55C203.369 182.95 203.002 184.233 202.269 185.4C201.536 186.533 200.536 187.45 199.269 188.15C198.036 188.817 196.652 189.15 195.119 189.15ZM195.119 185.8C195.786 185.8 196.386 185.6 196.919 185.2C197.452 184.8 197.869 184.283 198.169 183.65C198.502 183.017 198.669 182.333 198.669 181.6C198.669 180.8 198.502 180.083 198.169 179.45C197.836 178.817 197.402 178.317 196.869 177.95C196.336 177.55 195.752 177.35 195.119 177.35C194.452 177.35 193.852 177.55 193.319 177.95C192.786 178.317 192.352 178.817 192.019 179.45C191.719 180.083 191.569 180.783 191.569 181.55C191.569 182.317 191.736 183.033 192.069 183.7C192.402 184.333 192.836 184.85 193.369 185.25C193.902 185.617 194.486 185.8 195.119 185.8ZM214.419 210.5C212.886 210.5 211.502 210.167 210.269 209.5C209.036 208.833 208.036 207.933 207.269 206.8C206.536 205.633 206.169 204.35 206.169 202.95C206.169 201.517 206.536 200.233 207.269 199.1C208.036 197.967 209.036 197.067 210.269 196.4C211.502 195.7 212.886 195.35 214.419 195.35C215.952 195.35 217.336 195.7 218.569 196.4C219.836 197.067 220.836 197.967 221.569 199.1C222.302 200.233 222.669 201.5 222.669 202.9C222.669 204.3 222.302 205.583 221.569 206.75C220.836 207.883 219.836 208.8 218.569 209.5C217.336 210.167 215.952 210.5 214.419 210.5ZM214.419 207.15C215.086 207.15 215.686 206.95 216.219 206.55C216.752 206.15 217.169 205.633 217.469 205C217.802 204.367 217.969 203.683 217.969 202.95C217.969 202.15 217.802 201.433 217.469 200.8C217.169 200.167 216.736 199.667 216.169 199.3C215.636 198.9 215.052 198.7 214.419 198.7C213.786 198.7 213.186 198.9 212.619 199.3C212.086 199.667 211.652 200.183 211.319 200.85C211.019 201.483 210.869 202.167 210.869 202.9C210.869 203.7 211.036 204.417 211.369 205.05C211.702 205.683 212.136 206.2 212.669 206.6C213.202 206.967 213.786 207.15 214.419 207.15ZM189.719 207.65L203.769 191.2L216.769 174.1L219.819 176.8L206.119 193L192.719 210.35L189.719 207.65Z" fill="#34ACE3"/>
<path d="M111.41 102.03V105H99.95V102.03H104.21V91.56C104.03 91.8 103.75 92.05 103.37 92.31C102.99 92.57 102.56 92.82 102.08 93.06C101.62 93.28 101.15 93.46 100.67 93.6C100.19 93.74 99.75 93.81 99.35 93.81V90.72C99.75 90.72 100.21 90.6 100.73 90.36C101.25 90.12 101.76 89.84 102.26 89.52C102.78 89.18 103.22 88.86 103.58 88.56C103.94 88.24 104.15 88.01 104.21 87.87H107.6V102.03H111.41ZM129.011 96.21C129.011 97.97 128.671 99.54 127.991 100.92C127.331 102.28 126.421 103.35 125.261 104.13C124.121 104.91 122.811 105.3 121.331 105.3C119.871 105.3 118.561 104.91 117.401 104.13C116.241 103.35 115.321 102.28 114.641 100.92C113.981 99.54 113.651 97.97 113.651 96.21C113.651 94.45 113.981 92.89 114.641 91.53C115.321 90.15 116.241 89.07 117.401 88.29C118.561 87.49 119.871 87.09 121.331 87.09C122.811 87.09 124.121 87.49 125.261 88.29C126.421 89.07 127.331 90.15 127.991 91.53C128.671 92.89 129.011 94.45 129.011 96.21ZM125.651 96.21C125.651 95.01 125.471 93.96 125.111 93.06C124.751 92.14 124.241 91.43 123.581 90.93C122.921 90.41 122.171 90.15 121.331 90.15C120.471 90.15 119.711 90.41 119.051 90.93C118.391 91.43 117.871 92.14 117.491 93.06C117.131 93.96 116.951 95.01 116.951 96.21C116.951 97.41 117.131 98.46 117.491 99.36C117.871 100.26 118.391 100.97 119.051 101.49C119.711 101.99 120.471 102.24 121.331 102.24C122.171 102.24 122.911 101.99 123.551 101.49C124.211 100.97 124.721 100.26 125.081 99.36C125.461 98.46 125.651 97.41 125.651 96.21ZM138.251 101.25C138.571 101.49 139.061 101.73 139.721 101.97C140.381 102.19 141.161 102.3 142.061 102.3C142.941 102.3 143.651 102.16 144.191 101.88C144.751 101.58 145.171 101.14 145.451 100.56C145.751 99.96 145.951 99.2 146.051 98.28C146.171 97.36 146.231 96.27 146.231 95.01V83.7H149.621V94.53C149.621 96.11 149.531 97.56 149.351 98.88C149.191 100.2 148.861 101.35 148.361 102.33C147.861 103.29 147.111 104.03 146.111 104.55C145.131 105.07 143.811 105.33 142.151 105.33C141.171 105.33 140.301 105.22 139.541 105C138.781 104.78 138.081 104.45 137.441 104.01L138.251 101.25ZM152.365 100.41C152.365 99.41 152.645 98.54 153.205 97.8C153.785 97.04 154.575 96.46 155.575 96.06C156.575 95.64 157.735 95.43 159.055 95.43C159.755 95.43 160.465 95.48 161.185 95.58C161.925 95.68 162.575 95.84 163.135 96.06V95.07C163.135 93.97 162.805 93.11 162.145 92.49C161.485 91.87 160.535 91.56 159.295 91.56C158.415 91.56 157.585 91.72 156.805 92.04C156.025 92.34 155.195 92.77 154.315 93.33L153.205 91.11C154.245 90.41 155.285 89.89 156.325 89.55C157.385 89.21 158.495 89.04 159.655 89.04C161.755 89.04 163.405 89.6 164.605 90.72C165.825 91.82 166.435 93.39 166.435 95.43V101.28C166.435 101.66 166.495 101.93 166.615 102.09C166.755 102.25 166.985 102.34 167.305 102.36V105C167.005 105.06 166.735 105.1 166.495 105.12C166.255 105.14 166.055 105.15 165.895 105.15C165.195 105.15 164.665 104.98 164.305 104.64C163.945 104.3 163.735 103.9 163.675 103.44L163.585 102.54C162.905 103.42 162.035 104.1 160.975 104.58C159.915 105.06 158.845 105.3 157.765 105.3C156.725 105.3 155.795 105.09 154.975 104.67C154.155 104.23 153.515 103.64 153.055 102.9C152.595 102.16 152.365 101.33 152.365 100.41ZM162.355 101.37C162.595 101.11 162.785 100.85 162.925 100.59C163.065 100.33 163.135 100.1 163.135 99.9V98.1C162.575 97.88 161.985 97.72 161.365 97.62C160.745 97.5 160.135 97.44 159.535 97.44C158.335 97.44 157.355 97.68 156.595 98.16C155.855 98.64 155.485 99.3 155.485 100.14C155.485 100.6 155.605 101.04 155.845 101.46C156.105 101.88 156.465 102.22 156.925 102.48C157.405 102.74 157.995 102.87 158.695 102.87C159.415 102.87 160.105 102.73 160.765 102.45C161.425 102.17 161.955 101.81 162.355 101.37ZM184.509 105H181.209V96.21C181.209 94.79 180.949 93.73 180.429 93.03C179.909 92.33 179.179 91.98 178.239 91.98C177.659 91.98 177.059 92.14 176.439 92.46C175.819 92.78 175.269 93.22 174.789 93.78C174.309 94.32 173.959 94.95 173.739 95.67V105H170.439V83.1H173.739V92.46C174.339 91.4 175.159 90.57 176.199 89.97C177.239 89.35 178.359 89.04 179.559 89.04C180.539 89.04 181.349 89.21 181.989 89.55C182.629 89.89 183.129 90.36 183.489 90.96C183.869 91.54 184.129 92.22 184.269 93C184.429 93.76 184.509 94.57 184.509 95.43V105ZM197.159 92.16C195.879 92.18 194.739 92.47 193.739 93.03C192.759 93.59 192.059 94.38 191.639 95.4V105H188.339V89.31H191.399V92.82C191.939 91.74 192.649 90.88 193.529 90.24C194.409 89.58 195.339 89.22 196.319 89.16C196.519 89.16 196.679 89.16 196.799 89.16C196.939 89.16 197.059 89.17 197.159 89.19V92.16ZM206.377 105.3C205.157 105.3 204.047 105.09 203.047 104.67C202.067 104.23 201.217 103.64 200.497 102.9C199.777 102.14 199.217 101.28 198.817 100.32C198.437 99.34 198.247 98.3 198.247 97.2C198.247 95.72 198.587 94.37 199.267 93.15C199.947 91.91 200.897 90.92 202.117 90.18C203.337 89.42 204.767 89.04 206.407 89.04C208.047 89.04 209.457 89.42 210.637 90.18C211.837 90.92 212.767 91.9 213.427 93.12C214.087 94.34 214.417 95.65 214.417 97.05C214.417 97.29 214.407 97.52 214.387 97.74C214.367 97.94 214.347 98.11 214.327 98.25H201.757C201.817 99.17 202.067 99.98 202.507 100.68C202.967 101.36 203.547 101.9 204.247 102.3C204.947 102.68 205.697 102.87 206.497 102.87C207.377 102.87 208.207 102.65 208.987 102.21C209.787 101.77 210.327 101.19 210.607 100.47L213.427 101.28C213.087 102.04 212.567 102.73 211.867 103.35C211.187 103.95 210.377 104.43 209.437 104.79C208.497 105.13 207.477 105.3 206.377 105.3ZM201.667 96.06H211.147C211.087 95.16 210.827 94.37 210.367 93.69C209.927 92.99 209.357 92.45 208.657 92.07C207.977 91.67 207.217 91.47 206.377 91.47C205.557 91.47 204.797 91.67 204.097 92.07C203.417 92.45 202.857 92.99 202.417 93.69C201.977 94.37 201.727 95.16 201.667 96.06Z" fill="black"/>
<path d="M53.125 146V128.25H64.85V130.25H55.375V136.175H63.35V138.05H55.375V146H53.125ZM72.3195 146.25C71.3362 146.25 70.4362 146.075 69.6195 145.725C68.8195 145.358 68.1195 144.867 67.5195 144.25C66.9362 143.617 66.4779 142.892 66.1445 142.075C65.8279 141.258 65.6695 140.392 65.6695 139.475C65.6695 138.242 65.9529 137.117 66.5195 136.1C67.0862 135.083 67.8695 134.267 68.8695 133.65C69.8862 133.033 71.0445 132.725 72.3445 132.725C73.6612 132.725 74.8029 133.042 75.7695 133.675C76.7529 134.292 77.5112 135.108 78.0445 136.125C78.5945 137.125 78.8695 138.208 78.8695 139.375C78.8695 139.542 78.8612 139.708 78.8445 139.875C78.8445 140.025 78.8362 140.142 78.8195 140.225H67.9945C68.0612 141.075 68.2945 141.833 68.6945 142.5C69.1112 143.15 69.6445 143.667 70.2945 144.05C70.9445 144.417 71.6445 144.6 72.3945 144.6C73.1945 144.6 73.9445 144.4 74.6445 144C75.3612 143.6 75.8529 143.075 76.1195 142.425L78.0195 142.95C77.7362 143.583 77.3112 144.15 76.7445 144.65C76.1945 145.15 75.5362 145.542 74.7695 145.825C74.0195 146.108 73.2029 146.25 72.3195 146.25ZM67.9195 138.7H76.8195C76.7529 137.85 76.5112 137.1 76.0945 136.45C75.6779 135.8 75.1445 135.292 74.4945 134.925C73.8445 134.558 73.1279 134.375 72.3445 134.375C71.5779 134.375 70.8695 134.558 70.2195 134.925C69.5695 135.292 69.0362 135.8 68.6195 136.45C68.2195 137.1 67.9862 137.85 67.9195 138.7ZM85.79 146.25C84.7067 146.25 83.69 146.075 82.74 145.725C81.79 145.358 80.9734 144.817 80.29 144.1L81.14 142.55C81.89 143.25 82.64 143.75 83.39 144.05C84.14 144.35 84.9067 144.5 85.69 144.5C86.59 144.5 87.3234 144.333 87.89 144C88.4567 143.65 88.74 143.142 88.74 142.475C88.74 141.992 88.59 141.633 88.29 141.4C88.0067 141.167 87.5984 140.975 87.065 140.825C86.5317 140.658 85.8984 140.475 85.165 140.275C84.265 140.008 83.5067 139.725 82.89 139.425C82.2734 139.125 81.8067 138.75 81.49 138.3C81.1734 137.85 81.015 137.283 81.015 136.6C81.015 135.767 81.2317 135.067 81.665 134.5C82.0984 133.917 82.69 133.475 83.44 133.175C84.2067 132.875 85.0734 132.725 86.04 132.725C87.0067 132.725 87.8817 132.875 88.665 133.175C89.4484 133.475 90.1234 133.917 90.69 134.5L89.69 136.025C89.1734 135.492 88.6067 135.1 87.99 134.85C87.3734 134.583 86.6817 134.45 85.915 134.45C85.465 134.45 85.0234 134.508 84.59 134.625C84.1567 134.725 83.7984 134.917 83.515 135.2C83.2317 135.467 83.09 135.85 83.09 136.35C83.09 136.767 83.1984 137.1 83.415 137.35C83.6484 137.583 83.9817 137.783 84.415 137.95C84.865 138.117 85.4067 138.3 86.04 138.5C87.0234 138.783 87.8734 139.067 88.59 139.35C89.3234 139.633 89.89 140 90.29 140.45C90.69 140.9 90.89 141.525 90.89 142.325C90.89 143.558 90.4234 144.525 89.49 145.225C88.5567 145.908 87.3234 146.25 85.79 146.25ZM100.272 145.35C100.089 145.433 99.8387 145.542 99.5221 145.675C99.2054 145.808 98.8387 145.925 98.4221 146.025C98.0054 146.125 97.5637 146.175 97.0971 146.175C96.5637 146.175 96.0721 146.083 95.6221 145.9C95.1721 145.7 94.8137 145.4 94.5471 145C94.2804 144.583 94.1471 144.067 94.1471 143.45V134.675H92.3721V132.95H94.1471V128.6H96.3471V132.95H99.2721V134.675H96.3471V142.775C96.3804 143.242 96.5387 143.592 96.8221 143.825C97.1054 144.042 97.4387 144.15 97.8221 144.15C98.2554 144.15 98.6554 144.075 99.0221 143.925C99.3887 143.775 99.6304 143.667 99.7471 143.6L100.272 145.35ZM113.636 146H111.436V138.7C111.436 137.367 111.194 136.367 110.711 135.7C110.244 135.033 109.569 134.7 108.686 134.7C108.119 134.7 107.544 134.85 106.961 135.15C106.394 135.45 105.894 135.858 105.461 136.375C105.028 136.875 104.711 137.458 104.511 138.125V146H102.311V127.75H104.511V135.75C105.028 134.817 105.728 134.083 106.611 133.55C107.511 133 108.478 132.725 109.511 132.725C110.294 132.725 110.944 132.867 111.461 133.15C111.994 133.417 112.419 133.8 112.736 134.3C113.053 134.8 113.278 135.383 113.411 136.05C113.561 136.7 113.636 137.417 113.636 138.2V146ZM117.364 149.55C117.581 149.567 117.798 149.583 118.014 149.6C118.231 149.633 118.398 149.65 118.514 149.65C118.781 149.65 119.014 149.558 119.214 149.375C119.414 149.192 119.631 148.833 119.864 148.3C120.114 147.783 120.431 147.017 120.814 146L115.289 132.95H117.614L122.014 143.775L125.989 132.95H128.164L121.814 149.425C121.664 149.808 121.439 150.167 121.139 150.5C120.856 150.85 120.489 151.125 120.039 151.325C119.589 151.525 119.048 151.625 118.414 151.625C118.264 151.625 118.106 151.617 117.939 151.6C117.789 151.583 117.598 151.55 117.364 151.5V149.55ZM137.412 146.25C136.346 146.25 135.396 145.983 134.562 145.45C133.729 144.917 133.071 144.242 132.587 143.425V151.325H130.387V132.95H132.337V135.4C132.854 134.6 133.529 133.958 134.362 133.475C135.196 132.975 136.104 132.725 137.087 132.725C137.987 132.725 138.812 132.908 139.562 133.275C140.312 133.642 140.962 134.142 141.512 134.775C142.062 135.408 142.487 136.133 142.787 136.95C143.104 137.75 143.262 138.592 143.262 139.475C143.262 140.708 143.012 141.842 142.512 142.875C142.029 143.908 141.346 144.733 140.462 145.35C139.579 145.95 138.562 146.25 137.412 146.25ZM136.737 144.35C137.387 144.35 137.971 144.217 138.487 143.95C139.021 143.667 139.471 143.3 139.837 142.85C140.221 142.383 140.512 141.858 140.712 141.275C140.912 140.692 141.012 140.092 141.012 139.475C141.012 138.825 140.896 138.208 140.662 137.625C140.446 137.042 140.129 136.525 139.712 136.075C139.312 135.625 138.837 135.275 138.287 135.025C137.754 134.758 137.171 134.625 136.537 134.625C136.137 134.625 135.721 134.7 135.287 134.85C134.871 135 134.471 135.217 134.087 135.5C133.704 135.767 133.379 136.075 133.112 136.425C132.846 136.775 132.671 137.15 132.587 137.55V141.275C132.837 141.842 133.171 142.358 133.587 142.825C134.004 143.292 134.487 143.667 135.037 143.95C135.587 144.217 136.154 144.35 136.737 144.35ZM151.663 146.25C150.68 146.25 149.788 146.075 148.988 145.725C148.188 145.358 147.497 144.867 146.913 144.25C146.33 143.617 145.88 142.892 145.563 142.075C145.247 141.258 145.088 140.4 145.088 139.5C145.088 138.583 145.247 137.717 145.563 136.9C145.88 136.083 146.33 135.367 146.913 134.75C147.497 134.117 148.188 133.625 148.988 133.275C149.805 132.908 150.697 132.725 151.663 132.725C152.647 132.725 153.538 132.908 154.338 133.275C155.138 133.625 155.83 134.117 156.413 134.75C157.013 135.367 157.472 136.083 157.788 136.9C158.105 137.717 158.263 138.583 158.263 139.5C158.263 140.4 158.105 141.258 157.788 142.075C157.472 142.892 157.022 143.617 156.438 144.25C155.855 144.867 155.155 145.358 154.338 145.725C153.538 146.075 152.647 146.25 151.663 146.25ZM147.338 139.525C147.338 140.425 147.53 141.242 147.913 141.975C148.313 142.708 148.838 143.292 149.488 143.725C150.138 144.142 150.863 144.35 151.663 144.35C152.463 144.35 153.188 144.133 153.838 143.7C154.505 143.267 155.03 142.683 155.413 141.95C155.813 141.2 156.013 140.375 156.013 139.475C156.013 138.575 155.813 137.758 155.413 137.025C155.03 136.292 154.505 135.708 153.838 135.275C153.188 134.842 152.463 134.625 151.663 134.625C150.863 134.625 150.138 134.85 149.488 135.3C148.838 135.733 148.313 136.317 147.913 137.05C147.53 137.783 147.338 138.608 147.338 139.525ZM167.484 145.35C167.301 145.433 167.051 145.542 166.734 145.675C166.417 145.808 166.051 145.925 165.634 146.025C165.217 146.125 164.776 146.175 164.309 146.175C163.776 146.175 163.284 146.083 162.834 145.9C162.384 145.7 162.026 145.4 161.759 145C161.492 144.583 161.359 144.067 161.359 143.45V134.675H159.584V132.95H161.359V128.6H163.559V132.95H166.484V134.675H163.559V142.775C163.592 143.242 163.751 143.592 164.034 143.825C164.317 144.042 164.651 144.15 165.034 144.15C165.467 144.15 165.867 144.075 166.234 143.925C166.601 143.775 166.842 143.667 166.959 143.6L167.484 145.35ZM180.848 146H178.648V138.7C178.648 137.367 178.406 136.367 177.923 135.7C177.456 135.033 176.781 134.7 175.898 134.7C175.331 134.7 174.756 134.85 174.173 135.15C173.606 135.45 173.106 135.858 172.673 136.375C172.24 136.875 171.923 137.458 171.723 138.125V146H169.523V127.75H171.723V135.75C172.24 134.817 172.94 134.083 173.823 133.55C174.723 133 175.69 132.725 176.723 132.725C177.506 132.725 178.156 132.867 178.673 133.15C179.206 133.417 179.631 133.8 179.948 134.3C180.265 134.8 180.49 135.383 180.623 136.05C180.773 136.7 180.848 137.417 180.848 138.2V146ZM190.044 146.25C189.061 146.25 188.161 146.075 187.344 145.725C186.544 145.358 185.844 144.867 185.244 144.25C184.661 143.617 184.202 142.892 183.869 142.075C183.552 141.258 183.394 140.392 183.394 139.475C183.394 138.242 183.677 137.117 184.244 136.1C184.811 135.083 185.594 134.267 186.594 133.65C187.611 133.033 188.769 132.725 190.069 132.725C191.386 132.725 192.527 133.042 193.494 133.675C194.477 134.292 195.236 135.108 195.769 136.125C196.319 137.125 196.594 138.208 196.594 139.375C196.594 139.542 196.586 139.708 196.569 139.875C196.569 140.025 196.561 140.142 196.544 140.225H185.719C185.786 141.075 186.019 141.833 186.419 142.5C186.836 143.15 187.369 143.667 188.019 144.05C188.669 144.417 189.369 144.6 190.119 144.6C190.919 144.6 191.669 144.4 192.369 144C193.086 143.6 193.577 143.075 193.844 142.425L195.744 142.95C195.461 143.583 195.036 144.15 194.469 144.65C193.919 145.15 193.261 145.542 192.494 145.825C191.744 146.108 190.927 146.25 190.044 146.25ZM185.644 138.7H194.544C194.477 137.85 194.236 137.1 193.819 136.45C193.402 135.8 192.869 135.292 192.219 134.925C191.569 134.558 190.852 134.375 190.069 134.375C189.302 134.375 188.594 134.558 187.944 134.925C187.294 135.292 186.761 135.8 186.344 136.45C185.944 137.1 185.711 137.85 185.644 138.7ZM208.24 146L203.715 139.65L201.24 141.975V146H199.04V127.75H201.24V139.675L207.99 132.975H210.365L205.165 138.375L210.615 146H208.24ZM217.814 142.225C217.814 141.392 218.048 140.675 218.514 140.075C218.998 139.458 219.656 138.983 220.489 138.65C221.323 138.317 222.289 138.15 223.389 138.15C223.973 138.15 224.589 138.2 225.239 138.3C225.889 138.383 226.464 138.517 226.964 138.7V137.75C226.964 136.75 226.664 135.967 226.064 135.4C225.464 134.817 224.614 134.525 223.514 134.525C222.798 134.525 222.106 134.658 221.439 134.925C220.789 135.175 220.098 135.542 219.364 136.025L218.564 134.475C219.414 133.892 220.264 133.458 221.114 133.175C221.964 132.875 222.848 132.725 223.764 132.725C225.431 132.725 226.748 133.192 227.714 134.125C228.681 135.042 229.164 136.325 229.164 137.975V143.5C229.164 143.767 229.214 143.967 229.314 144.1C229.431 144.217 229.614 144.283 229.864 144.3V146C229.648 146.033 229.456 146.058 229.289 146.075C229.139 146.092 229.014 146.1 228.914 146.1C228.398 146.1 228.006 145.958 227.739 145.675C227.489 145.392 227.348 145.092 227.314 144.775L227.264 143.95C226.698 144.683 225.956 145.25 225.039 145.65C224.123 146.05 223.214 146.25 222.314 146.25C221.448 146.25 220.673 146.075 219.989 145.725C219.306 145.358 218.773 144.875 218.389 144.275C218.006 143.658 217.814 142.975 217.814 142.225ZM226.314 143.15C226.514 142.917 226.673 142.683 226.789 142.45C226.906 142.2 226.964 141.992 226.964 141.825V140.2C226.448 140 225.906 139.85 225.339 139.75C224.773 139.633 224.214 139.575 223.664 139.575C222.548 139.575 221.639 139.8 220.939 140.25C220.256 140.683 219.914 141.283 219.914 142.05C219.914 142.467 220.023 142.875 220.239 143.275C220.473 143.658 220.806 143.975 221.239 144.225C221.689 144.475 222.239 144.6 222.889 144.6C223.573 144.6 224.223 144.467 224.839 144.2C225.456 143.917 225.948 143.567 226.314 143.15ZM239.382 146.25C238.366 146.25 237.441 146 236.607 145.5C235.774 145 235.116 144.35 234.632 143.55V146H232.682V127.75H234.882V135.55C235.432 134.7 236.107 134.017 236.907 133.5C237.707 132.983 238.641 132.725 239.707 132.725C240.607 132.725 241.416 132.917 242.132 133.3C242.849 133.667 243.457 134.175 243.957 134.825C244.474 135.458 244.866 136.183 245.132 137C245.416 137.8 245.557 138.642 245.557 139.525C245.557 140.442 245.399 141.308 245.082 142.125C244.782 142.925 244.349 143.642 243.782 144.275C243.216 144.892 242.557 145.375 241.807 145.725C241.074 146.075 240.266 146.25 239.382 146.25ZM238.832 144.35C239.482 144.35 240.082 144.217 240.632 143.95C241.182 143.683 241.657 143.325 242.057 142.875C242.457 142.425 242.766 141.908 242.982 141.325C243.199 140.742 243.307 140.142 243.307 139.525C243.307 138.675 243.124 137.875 242.757 137.125C242.407 136.375 241.907 135.775 241.257 135.325C240.624 134.858 239.882 134.625 239.032 134.625C238.416 134.625 237.841 134.767 237.307 135.05C236.774 135.333 236.299 135.708 235.882 136.175C235.482 136.625 235.149 137.125 234.882 137.675V141.45C234.966 141.867 235.141 142.25 235.407 142.6C235.674 142.95 235.999 143.258 236.382 143.525C236.766 143.775 237.166 143.975 237.582 144.125C238.016 144.275 238.432 144.35 238.832 144.35ZM254.907 132.55L256.007 130.925L254.282 130.375L254.607 129.325L256.357 130L256.282 128.15H257.557L257.482 130L259.232 129.325L259.557 130.375L257.832 130.925L258.957 132.55L258.007 133.175L256.932 131.5L255.832 133.175L254.907 132.55Z" fill="black"/>
<defs>
<filter id="filter0_d_698_20745" x="0" y="0" width="313" height="313" filterUnits="userSpaceOnUse" color-interpolation-filters="sRGB">
<feFlood flood-opacity="0" result="BackgroundImageFix"/>
<feColorMatrix in="SourceAlpha" type="matrix" values="0 0 0 0 0 0 0 0 0 0 0 0 0 0 0 0 0 0 127 0" result="hardAlpha"/>
<feOffset dy="4"/>
<feGaussianBlur stdDeviation="7.5"/>
<feComposite in2="hardAlpha" operator="out"/>
<feColorMatrix type="matrix" values="0 0 0 0 0.595833 0 0 0 0 0.595833 0 0 0 0 0.595833 0 0 0 0.25 0"/>
<feBlend mode="normal" in2="BackgroundImageFix" result="effect1_dropShadow_698_20745"/>
<feBlend mode="normal" in="SourceGraphic" in2="effect1_dropShadow_698_20745" result="shape"/>
</filter>
</defs>
</svg>
