<svg width="229" height="229"  viewBox="0 0 283 283" fill="none" xmlns="http://www.w3.org/2000/svg">
<path d="M282.45 137.461C281.417 146.546 279.065 155.346 275.643 163.825C270.262 177.185 262.779 189.334 253.834 200.557C235.837 223.18 213.921 241.208 189.082 255.779C173.402 264.971 156.937 272.311 139.404 277.298C130.566 279.792 121.586 281.609 112.391 282.464C96.8895 283.925 81.7438 282.536 67.204 276.586C53.1275 270.85 41.7594 261.551 32.4938 249.616C23.2996 237.788 16.8849 224.463 12.074 210.354C7.97576 198.348 5.19609 186.021 3.27171 173.516C1.09787 159.443 0.0643991 145.263 0.0287624 133.328C-0.363242 111.096 3.23607 92 11.7889 73.9369C22.9432 50.3871 40.1201 32.3596 62.6069 19.32C77.61 10.5913 93.7891 5.03338 110.895 2.18318C120.517 0.579944 130.174 -0.203861 139.903 0.0455316C172.582 0.864963 202.659 10.0212 229.529 28.9038C246.421 40.8033 260.035 55.6956 269.692 74.0438C276.214 86.4065 280.312 99.553 282.058 113.412C283.056 121.5 283.377 129.48 282.45 137.461Z" fill="#333436"/>
<path d="M74.9 199C74.9 197.5 75.0167 196.15 75.25 194.95C75.4833 193.75 75.8833 192.633 76.45 191.6C77.05 190.567 77.85 189.6 78.85 188.7C79.8833 187.767 81.1833 186.867 82.75 186C84.1167 185.267 85.3167 184.633 86.35 184.1C87.3833 183.533 88.25 183.017 88.95 182.55C89.6833 182.083 90.2333 181.617 90.6 181.15C90.9667 180.65 91.15 180.083 91.15 179.45C91.15 178.783 90.9667 178.183 90.6 177.65C90.2333 177.083 89.7167 176.633 89.05 176.3C88.3833 175.967 87.55 175.8 86.55 175.8C85.75 175.8 85 175.9 84.3 176.1C83.6333 176.3 83 176.583 82.4 176.95C81.8333 177.317 81.3 177.733 80.8 178.2C80.3 178.633 79.85 179.1 79.45 179.6L75.2 174.7C75.6667 174.233 76.2833 173.733 77.05 173.2C77.85 172.633 78.7833 172.117 79.85 171.65C80.95 171.15 82.15 170.75 83.45 170.45C84.7833 170.117 86.2 169.95 87.7 169.95C89.9667 169.95 91.9 170.317 93.5 171.05C95.1 171.75 96.3167 172.733 97.15 174C98.0167 175.267 98.45 176.75 98.45 178.45C98.45 179.617 98.2333 180.65 97.8 181.55C97.3667 182.45 96.8167 183.25 96.15 183.95C95.4833 184.617 94.75 185.217 93.95 185.75C93.1833 186.283 92.4333 186.75 91.7 187.15C90.6667 187.683 89.7333 188.183 88.9 188.65C88.0667 189.083 87.3333 189.533 86.7 190C86.0667 190.433 85.5 190.883 85 191.35C84.5333 191.817 84.1167 192.35 83.75 192.95H99V199H74.9ZM104.123 199V191.8H109.623V199H104.123ZM114.353 199C114.353 197.5 114.47 196.15 114.703 194.95C114.936 193.75 115.336 192.633 115.903 191.6C116.503 190.567 117.303 189.6 118.303 188.7C119.336 187.767 120.636 186.867 122.203 186C123.57 185.267 124.77 184.633 125.803 184.1C126.836 183.533 127.703 183.017 128.403 182.55C129.136 182.083 129.686 181.617 130.053 181.15C130.42 180.65 130.603 180.083 130.603 179.45C130.603 178.783 130.42 178.183 130.053 177.65C129.686 177.083 129.17 176.633 128.503 176.3C127.836 175.967 127.003 175.8 126.003 175.8C125.203 175.8 124.453 175.9 123.753 176.1C123.086 176.3 122.453 176.583 121.853 176.95C121.286 177.317 120.753 177.733 120.253 178.2C119.753 178.633 119.303 179.1 118.903 179.6L114.653 174.7C115.12 174.233 115.736 173.733 116.503 173.2C117.303 172.633 118.236 172.117 119.303 171.65C120.403 171.15 121.603 170.75 122.903 170.45C124.236 170.117 125.653 169.95 127.153 169.95C129.42 169.95 131.353 170.317 132.953 171.05C134.553 171.75 135.77 172.733 136.603 174C137.47 175.267 137.903 176.75 137.903 178.45C137.903 179.617 137.686 180.65 137.253 181.55C136.82 182.45 136.27 183.25 135.603 183.95C134.936 184.617 134.203 185.217 133.403 185.75C132.636 186.283 131.886 186.75 131.153 187.15C130.12 187.683 129.186 188.183 128.353 188.65C127.52 189.083 126.786 189.533 126.153 190C125.52 190.433 124.953 190.883 124.453 191.35C123.986 191.817 123.57 192.35 123.203 192.95H138.453V199H114.353ZM142.276 182.8C142.276 185.033 142.809 187.05 143.876 188.85C144.976 190.617 146.459 192.033 148.326 193.1C150.226 194.133 152.326 194.65 154.626 194.65C155.759 194.65 156.792 194.5 157.726 194.2C158.692 193.867 159.542 193.4 160.276 192.8C161.042 192.2 161.642 191.517 162.076 190.75C162.042 192.883 161.709 194.717 161.076 196.25C160.476 197.75 159.626 198.9 158.526 199.7C157.459 200.5 156.176 200.9 154.676 200.9C153.209 200.9 151.826 200.533 150.526 199.8C149.259 199.1 148.226 198.133 147.426 196.9L143.576 201.1C144.876 202.9 146.476 204.283 148.376 205.25C150.276 206.217 152.342 206.7 154.576 206.7C157.376 206.7 159.809 205.933 161.876 204.4C163.942 202.867 165.526 200.617 166.626 197.65C167.759 194.683 168.326 191.05 168.326 186.75C168.326 183.317 167.792 180.4 166.726 178C165.659 175.567 164.142 173.7 162.176 172.4C160.242 171.1 157.926 170.45 155.226 170.45C152.792 170.45 150.592 171 148.626 172.1C146.659 173.2 145.109 174.683 143.976 176.55C142.842 178.417 142.276 180.5 142.276 182.8ZM155.226 176.1C156.392 176.1 157.476 176.417 158.476 177.05C159.476 177.65 160.276 178.467 160.876 179.5C161.476 180.5 161.776 181.6 161.776 182.8C161.776 184 161.476 185.1 160.876 186.1C160.276 187.067 159.476 187.85 158.476 188.45C157.509 189.017 156.426 189.3 155.226 189.3C154.026 189.3 152.926 189.017 151.926 188.45C150.926 187.85 150.126 187.067 149.526 186.1C148.959 185.1 148.676 184 148.676 182.8C148.676 181.567 148.976 180.45 149.576 179.45C150.176 178.45 150.976 177.65 151.976 177.05C152.976 176.417 154.059 176.1 155.226 176.1ZM180.119 178.15C178.586 178.15 177.202 177.817 175.969 177.15C174.736 176.45 173.736 175.533 172.969 174.4C172.236 173.233 171.869 171.95 171.869 170.55C171.869 169.15 172.236 167.883 172.969 166.75C173.736 165.583 174.736 164.667 175.969 164C177.202 163.333 178.586 163 180.119 163C181.652 163 183.036 163.333 184.269 164C185.536 164.667 186.536 165.583 187.269 166.75C188.002 167.883 188.369 169.15 188.369 170.55C188.369 171.95 188.002 173.233 187.269 174.4C186.536 175.533 185.536 176.45 184.269 177.15C183.036 177.817 181.652 178.15 180.119 178.15ZM180.119 174.8C180.786 174.8 181.386 174.6 181.919 174.2C182.452 173.8 182.869 173.283 183.169 172.65C183.502 172.017 183.669 171.333 183.669 170.6C183.669 169.8 183.502 169.083 183.169 168.45C182.836 167.817 182.402 167.317 181.869 166.95C181.336 166.55 180.752 166.35 180.119 166.35C179.452 166.35 178.852 166.55 178.319 166.95C177.786 167.317 177.352 167.817 177.019 168.45C176.719 169.083 176.569 169.783 176.569 170.55C176.569 171.317 176.736 172.033 177.069 172.7C177.402 173.333 177.836 173.85 178.369 174.25C178.902 174.617 179.486 174.8 180.119 174.8ZM199.419 199.5C197.886 199.5 196.502 199.167 195.269 198.5C194.036 197.833 193.036 196.933 192.269 195.8C191.536 194.633 191.169 193.35 191.169 191.95C191.169 190.517 191.536 189.233 192.269 188.1C193.036 186.967 194.036 186.067 195.269 185.4C196.502 184.7 197.886 184.35 199.419 184.35C200.952 184.35 202.336 184.7 203.569 185.4C204.836 186.067 205.836 186.967 206.569 188.1C207.302 189.233 207.669 190.5 207.669 191.9C207.669 193.3 207.302 194.583 206.569 195.75C205.836 196.883 204.836 197.8 203.569 198.5C202.336 199.167 200.952 199.5 199.419 199.5ZM199.419 196.15C200.086 196.15 200.686 195.95 201.219 195.55C201.752 195.15 202.169 194.633 202.469 194C202.802 193.367 202.969 192.683 202.969 191.95C202.969 191.15 202.802 190.433 202.469 189.8C202.169 189.167 201.736 188.667 201.169 188.3C200.636 187.9 200.052 187.7 199.419 187.7C198.786 187.7 198.186 187.9 197.619 188.3C197.086 188.667 196.652 189.183 196.319 189.85C196.019 190.483 195.869 191.167 195.869 191.9C195.869 192.7 196.036 193.417 196.369 194.05C196.702 194.683 197.136 195.2 197.669 195.6C198.202 195.967 198.786 196.15 199.419 196.15ZM174.719 196.65L188.769 180.2L201.769 163.1L204.819 165.8L191.119 182L177.719 199.35L174.719 196.65Z" fill="#34ACE3"/>
<path d="M96.41 91.03V94H84.95V91.03H89.21V80.56C89.03 80.8 88.75 81.05 88.37 81.31C87.99 81.57 87.56 81.82 87.08 82.06C86.62 82.28 86.15 82.46 85.67 82.6C85.19 82.74 84.75 82.81 84.35 82.81V79.72C84.75 79.72 85.21 79.6 85.73 79.36C86.25 79.12 86.76 78.84 87.26 78.52C87.78 78.18 88.22 77.86 88.58 77.56C88.94 77.24 89.15 77.01 89.21 76.87H92.6V91.03H96.41ZM114.011 85.21C114.011 86.97 113.671 88.54 112.991 89.92C112.331 91.28 111.421 92.35 110.261 93.13C109.121 93.91 107.811 94.3 106.331 94.3C104.871 94.3 103.561 93.91 102.401 93.13C101.241 92.35 100.321 91.28 99.6411 89.92C98.9811 88.54 98.6511 86.97 98.6511 85.21C98.6511 83.45 98.9811 81.89 99.6411 80.53C100.321 79.15 101.241 78.07 102.401 77.29C103.561 76.49 104.871 76.09 106.331 76.09C107.811 76.09 109.121 76.49 110.261 77.29C111.421 78.07 112.331 79.15 112.991 80.53C113.671 81.89 114.011 83.45 114.011 85.21ZM110.651 85.21C110.651 84.01 110.471 82.96 110.111 82.06C109.751 81.14 109.241 80.43 108.581 79.93C107.921 79.41 107.171 79.15 106.331 79.15C105.471 79.15 104.711 79.41 104.051 79.93C103.391 80.43 102.871 81.14 102.491 82.06C102.131 82.96 101.951 84.01 101.951 85.21C101.951 86.41 102.131 87.46 102.491 88.36C102.871 89.26 103.391 89.97 104.051 90.49C104.711 90.99 105.471 91.24 106.331 91.24C107.171 91.24 107.911 90.99 108.551 90.49C109.211 89.97 109.721 89.26 110.081 88.36C110.461 87.46 110.651 86.41 110.651 85.21ZM123.251 90.25C123.571 90.49 124.061 90.73 124.721 90.97C125.381 91.19 126.161 91.3 127.061 91.3C127.941 91.3 128.651 91.16 129.191 90.88C129.751 90.58 130.171 90.14 130.451 89.56C130.751 88.96 130.951 88.2 131.051 87.28C131.171 86.36 131.231 85.27 131.231 84.01V72.7H134.621V83.53C134.621 85.11 134.531 86.56 134.351 87.88C134.191 89.2 133.861 90.35 133.361 91.33C132.861 92.29 132.111 93.03 131.111 93.55C130.131 94.07 128.811 94.33 127.151 94.33C126.171 94.33 125.301 94.22 124.541 94C123.781 93.78 123.081 93.45 122.441 93.01L123.251 90.25ZM137.365 89.41C137.365 88.41 137.645 87.54 138.205 86.8C138.785 86.04 139.575 85.46 140.575 85.06C141.575 84.64 142.735 84.43 144.055 84.43C144.755 84.43 145.465 84.48 146.185 84.58C146.925 84.68 147.575 84.84 148.135 85.06V84.07C148.135 82.97 147.805 82.11 147.145 81.49C146.485 80.87 145.535 80.56 144.295 80.56C143.415 80.56 142.585 80.72 141.805 81.04C141.025 81.34 140.195 81.77 139.315 82.33L138.205 80.11C139.245 79.41 140.285 78.89 141.325 78.55C142.385 78.21 143.495 78.04 144.655 78.04C146.755 78.04 148.405 78.6 149.605 79.72C150.825 80.82 151.435 82.39 151.435 84.43V90.28C151.435 90.66 151.495 90.93 151.615 91.09C151.755 91.25 151.985 91.34 152.305 91.36V94C152.005 94.06 151.735 94.1 151.495 94.12C151.255 94.14 151.055 94.15 150.895 94.15C150.195 94.15 149.665 93.98 149.305 93.64C148.945 93.3 148.735 92.9 148.675 92.44L148.585 91.54C147.905 92.42 147.035 93.1 145.975 93.58C144.915 94.06 143.845 94.3 142.765 94.3C141.725 94.3 140.795 94.09 139.975 93.67C139.155 93.23 138.515 92.64 138.055 91.9C137.595 91.16 137.365 90.33 137.365 89.41ZM147.355 90.37C147.595 90.11 147.785 89.85 147.925 89.59C148.065 89.33 148.135 89.1 148.135 88.9V87.1C147.575 86.88 146.985 86.72 146.365 86.62C145.745 86.5 145.135 86.44 144.535 86.44C143.335 86.44 142.355 86.68 141.595 87.16C140.855 87.64 140.485 88.3 140.485 89.14C140.485 89.6 140.605 90.04 140.845 90.46C141.105 90.88 141.465 91.22 141.925 91.48C142.405 91.74 142.995 91.87 143.695 91.87C144.415 91.87 145.105 91.73 145.765 91.45C146.425 91.17 146.955 90.81 147.355 90.37ZM169.509 94H166.209V85.21C166.209 83.79 165.949 82.73 165.429 82.03C164.909 81.33 164.179 80.98 163.239 80.98C162.659 80.98 162.059 81.14 161.439 81.46C160.819 81.78 160.269 82.22 159.789 82.78C159.309 83.32 158.959 83.95 158.739 84.67V94H155.439V72.1H158.739V81.46C159.339 80.4 160.159 79.57 161.199 78.97C162.239 78.35 163.359 78.04 164.559 78.04C165.539 78.04 166.349 78.21 166.989 78.55C167.629 78.89 168.129 79.36 168.489 79.96C168.869 80.54 169.129 81.22 169.269 82C169.429 82.76 169.509 83.57 169.509 84.43V94ZM182.159 81.16C180.879 81.18 179.739 81.47 178.739 82.03C177.759 82.59 177.059 83.38 176.639 84.4V94H173.339V78.31H176.399V81.82C176.939 80.74 177.649 79.88 178.529 79.24C179.409 78.58 180.339 78.22 181.319 78.16C181.519 78.16 181.679 78.16 181.799 78.16C181.939 78.16 182.059 78.17 182.159 78.19V81.16ZM191.377 94.3C190.157 94.3 189.047 94.09 188.047 93.67C187.067 93.23 186.217 92.64 185.497 91.9C184.777 91.14 184.217 90.28 183.817 89.32C183.437 88.34 183.247 87.3 183.247 86.2C183.247 84.72 183.587 83.37 184.267 82.15C184.947 80.91 185.897 79.92 187.117 79.18C188.337 78.42 189.767 78.04 191.407 78.04C193.047 78.04 194.457 78.42 195.637 79.18C196.837 79.92 197.767 80.9 198.427 82.12C199.087 83.34 199.417 84.65 199.417 86.05C199.417 86.29 199.407 86.52 199.387 86.74C199.367 86.94 199.347 87.11 199.327 87.25H186.757C186.817 88.17 187.067 88.98 187.507 89.68C187.967 90.36 188.547 90.9 189.247 91.3C189.947 91.68 190.697 91.87 191.497 91.87C192.377 91.87 193.207 91.65 193.987 91.21C194.787 90.77 195.327 90.19 195.607 89.47L198.427 90.28C198.087 91.04 197.567 91.73 196.867 92.35C196.187 92.95 195.377 93.43 194.437 93.79C193.497 94.13 192.477 94.3 191.377 94.3ZM186.667 85.06H196.147C196.087 84.16 195.827 83.37 195.367 82.69C194.927 81.99 194.357 81.45 193.657 81.07C192.977 80.67 192.217 80.47 191.377 80.47C190.557 80.47 189.797 80.67 189.097 81.07C188.417 81.45 187.857 81.99 187.417 82.69C186.977 83.37 186.727 84.16 186.667 85.06Z" fill="white"/>
<path d="M38.125 135V117.25H49.85V119.25H40.375V125.175H48.35V127.05H40.375V135H38.125ZM57.3195 135.25C56.3362 135.25 55.4362 135.075 54.6195 134.725C53.8195 134.358 53.1195 133.867 52.5195 133.25C51.9362 132.617 51.4779 131.892 51.1445 131.075C50.8279 130.258 50.6695 129.392 50.6695 128.475C50.6695 127.242 50.9529 126.117 51.5195 125.1C52.0862 124.083 52.8695 123.267 53.8695 122.65C54.8862 122.033 56.0445 121.725 57.3445 121.725C58.6612 121.725 59.8029 122.042 60.7695 122.675C61.7529 123.292 62.5112 124.108 63.0445 125.125C63.5945 126.125 63.8695 127.208 63.8695 128.375C63.8695 128.542 63.8612 128.708 63.8445 128.875C63.8445 129.025 63.8362 129.142 63.8195 129.225H52.9945C53.0612 130.075 53.2945 130.833 53.6945 131.5C54.1112 132.15 54.6445 132.667 55.2945 133.05C55.9445 133.417 56.6445 133.6 57.3945 133.6C58.1945 133.6 58.9445 133.4 59.6445 133C60.3612 132.6 60.8529 132.075 61.1195 131.425L63.0195 131.95C62.7362 132.583 62.3112 133.15 61.7445 133.65C61.1945 134.15 60.5362 134.542 59.7695 134.825C59.0195 135.108 58.2029 135.25 57.3195 135.25ZM52.9195 127.7H61.8195C61.7529 126.85 61.5112 126.1 61.0945 125.45C60.6779 124.8 60.1445 124.292 59.4945 123.925C58.8445 123.558 58.1279 123.375 57.3445 123.375C56.5779 123.375 55.8695 123.558 55.2195 123.925C54.5695 124.292 54.0362 124.8 53.6195 125.45C53.2195 126.1 52.9862 126.85 52.9195 127.7ZM70.79 135.25C69.7067 135.25 68.69 135.075 67.74 134.725C66.79 134.358 65.9734 133.817 65.29 133.1L66.14 131.55C66.89 132.25 67.64 132.75 68.39 133.05C69.14 133.35 69.9067 133.5 70.69 133.5C71.59 133.5 72.3234 133.333 72.89 133C73.4567 132.65 73.74 132.142 73.74 131.475C73.74 130.992 73.59 130.633 73.29 130.4C73.0067 130.167 72.5984 129.975 72.065 129.825C71.5317 129.658 70.8984 129.475 70.165 129.275C69.265 129.008 68.5067 128.725 67.89 128.425C67.2734 128.125 66.8067 127.75 66.49 127.3C66.1734 126.85 66.015 126.283 66.015 125.6C66.015 124.767 66.2317 124.067 66.665 123.5C67.0984 122.917 67.69 122.475 68.44 122.175C69.2067 121.875 70.0734 121.725 71.04 121.725C72.0067 121.725 72.8817 121.875 73.665 122.175C74.4484 122.475 75.1234 122.917 75.69 123.5L74.69 125.025C74.1734 124.492 73.6067 124.1 72.99 123.85C72.3734 123.583 71.6817 123.45 70.915 123.45C70.465 123.45 70.0234 123.508 69.59 123.625C69.1567 123.725 68.7984 123.917 68.515 124.2C68.2317 124.467 68.09 124.85 68.09 125.35C68.09 125.767 68.1984 126.1 68.415 126.35C68.6484 126.583 68.9817 126.783 69.415 126.95C69.865 127.117 70.4067 127.3 71.04 127.5C72.0234 127.783 72.8734 128.067 73.59 128.35C74.3234 128.633 74.89 129 75.29 129.45C75.69 129.9 75.89 130.525 75.89 131.325C75.89 132.558 75.4234 133.525 74.49 134.225C73.5567 134.908 72.3234 135.25 70.79 135.25ZM85.2721 134.35C85.0887 134.433 84.8387 134.542 84.5221 134.675C84.2054 134.808 83.8387 134.925 83.4221 135.025C83.0054 135.125 82.5637 135.175 82.0971 135.175C81.5637 135.175 81.0721 135.083 80.6221 134.9C80.1721 134.7 79.8137 134.4 79.5471 134C79.2804 133.583 79.1471 133.067 79.1471 132.45V123.675H77.3721V121.95H79.1471V117.6H81.3471V121.95H84.2721V123.675H81.3471V131.775C81.3804 132.242 81.5387 132.592 81.8221 132.825C82.1054 133.042 82.4387 133.15 82.8221 133.15C83.2554 133.15 83.6554 133.075 84.0221 132.925C84.3887 132.775 84.6304 132.667 84.7471 132.6L85.2721 134.35ZM98.6361 135H96.4361V127.7C96.4361 126.367 96.1945 125.367 95.7111 124.7C95.2445 124.033 94.5695 123.7 93.6861 123.7C93.1195 123.7 92.5445 123.85 91.9611 124.15C91.3945 124.45 90.8945 124.858 90.4611 125.375C90.0278 125.875 89.7111 126.458 89.5111 127.125V135H87.3111V116.75H89.5111V124.75C90.0278 123.817 90.7278 123.083 91.6111 122.55C92.5111 122 93.4778 121.725 94.5111 121.725C95.2945 121.725 95.9445 121.867 96.4611 122.15C96.9945 122.417 97.4195 122.8 97.7361 123.3C98.0528 123.8 98.2778 124.383 98.4111 125.05C98.5611 125.7 98.6361 126.417 98.6361 127.2V135ZM102.364 138.55C102.581 138.567 102.798 138.583 103.014 138.6C103.231 138.633 103.398 138.65 103.514 138.65C103.781 138.65 104.014 138.558 104.214 138.375C104.414 138.192 104.631 137.833 104.864 137.3C105.114 136.783 105.431 136.017 105.814 135L100.289 121.95H102.614L107.014 132.775L110.989 121.95H113.164L106.814 138.425C106.664 138.808 106.439 139.167 106.139 139.5C105.856 139.85 105.489 140.125 105.039 140.325C104.589 140.525 104.048 140.625 103.414 140.625C103.264 140.625 103.106 140.617 102.939 140.6C102.789 140.583 102.598 140.55 102.364 140.5V138.55ZM122.412 135.25C121.346 135.25 120.396 134.983 119.562 134.45C118.729 133.917 118.071 133.242 117.587 132.425V140.325H115.387V121.95H117.337V124.4C117.854 123.6 118.529 122.958 119.362 122.475C120.196 121.975 121.104 121.725 122.087 121.725C122.987 121.725 123.812 121.908 124.562 122.275C125.312 122.642 125.962 123.142 126.512 123.775C127.062 124.408 127.487 125.133 127.787 125.95C128.104 126.75 128.262 127.592 128.262 128.475C128.262 129.708 128.012 130.842 127.512 131.875C127.029 132.908 126.346 133.733 125.462 134.35C124.579 134.95 123.562 135.25 122.412 135.25ZM121.737 133.35C122.387 133.35 122.971 133.217 123.487 132.95C124.021 132.667 124.471 132.3 124.837 131.85C125.221 131.383 125.512 130.858 125.712 130.275C125.912 129.692 126.012 129.092 126.012 128.475C126.012 127.825 125.896 127.208 125.662 126.625C125.446 126.042 125.129 125.525 124.712 125.075C124.312 124.625 123.837 124.275 123.287 124.025C122.754 123.758 122.171 123.625 121.537 123.625C121.137 123.625 120.721 123.7 120.287 123.85C119.871 124 119.471 124.217 119.087 124.5C118.704 124.767 118.379 125.075 118.112 125.425C117.846 125.775 117.671 126.15 117.587 126.55V130.275C117.837 130.842 118.171 131.358 118.587 131.825C119.004 132.292 119.487 132.667 120.037 132.95C120.587 133.217 121.154 133.35 121.737 133.35ZM136.663 135.25C135.68 135.25 134.788 135.075 133.988 134.725C133.188 134.358 132.497 133.867 131.913 133.25C131.33 132.617 130.88 131.892 130.563 131.075C130.247 130.258 130.088 129.4 130.088 128.5C130.088 127.583 130.247 126.717 130.563 125.9C130.88 125.083 131.33 124.367 131.913 123.75C132.497 123.117 133.188 122.625 133.988 122.275C134.805 121.908 135.697 121.725 136.663 121.725C137.647 121.725 138.538 121.908 139.338 122.275C140.138 122.625 140.83 123.117 141.413 123.75C142.013 124.367 142.472 125.083 142.788 125.9C143.105 126.717 143.263 127.583 143.263 128.5C143.263 129.4 143.105 130.258 142.788 131.075C142.472 131.892 142.022 132.617 141.438 133.25C140.855 133.867 140.155 134.358 139.338 134.725C138.538 135.075 137.647 135.25 136.663 135.25ZM132.338 128.525C132.338 129.425 132.53 130.242 132.913 130.975C133.313 131.708 133.838 132.292 134.488 132.725C135.138 133.142 135.863 133.35 136.663 133.35C137.463 133.35 138.188 133.133 138.838 132.7C139.505 132.267 140.03 131.683 140.413 130.95C140.813 130.2 141.013 129.375 141.013 128.475C141.013 127.575 140.813 126.758 140.413 126.025C140.03 125.292 139.505 124.708 138.838 124.275C138.188 123.842 137.463 123.625 136.663 123.625C135.863 123.625 135.138 123.85 134.488 124.3C133.838 124.733 133.313 125.317 132.913 126.05C132.53 126.783 132.338 127.608 132.338 128.525ZM152.484 134.35C152.301 134.433 152.051 134.542 151.734 134.675C151.417 134.808 151.051 134.925 150.634 135.025C150.217 135.125 149.776 135.175 149.309 135.175C148.776 135.175 148.284 135.083 147.834 134.9C147.384 134.7 147.026 134.4 146.759 134C146.492 133.583 146.359 133.067 146.359 132.45V123.675H144.584V121.95H146.359V117.6H148.559V121.95H151.484V123.675H148.559V131.775C148.592 132.242 148.751 132.592 149.034 132.825C149.317 133.042 149.651 133.15 150.034 133.15C150.467 133.15 150.867 133.075 151.234 132.925C151.601 132.775 151.842 132.667 151.959 132.6L152.484 134.35ZM165.848 135H163.648V127.7C163.648 126.367 163.406 125.367 162.923 124.7C162.456 124.033 161.781 123.7 160.898 123.7C160.331 123.7 159.756 123.85 159.173 124.15C158.606 124.45 158.106 124.858 157.673 125.375C157.24 125.875 156.923 126.458 156.723 127.125V135H154.523V116.75H156.723V124.75C157.24 123.817 157.94 123.083 158.823 122.55C159.723 122 160.69 121.725 161.723 121.725C162.506 121.725 163.156 121.867 163.673 122.15C164.206 122.417 164.631 122.8 164.948 123.3C165.265 123.8 165.49 124.383 165.623 125.05C165.773 125.7 165.848 126.417 165.848 127.2V135ZM175.044 135.25C174.061 135.25 173.161 135.075 172.344 134.725C171.544 134.358 170.844 133.867 170.244 133.25C169.661 132.617 169.202 131.892 168.869 131.075C168.552 130.258 168.394 129.392 168.394 128.475C168.394 127.242 168.677 126.117 169.244 125.1C169.811 124.083 170.594 123.267 171.594 122.65C172.611 122.033 173.769 121.725 175.069 121.725C176.386 121.725 177.527 122.042 178.494 122.675C179.477 123.292 180.236 124.108 180.769 125.125C181.319 126.125 181.594 127.208 181.594 128.375C181.594 128.542 181.586 128.708 181.569 128.875C181.569 129.025 181.561 129.142 181.544 129.225H170.719C170.786 130.075 171.019 130.833 171.419 131.5C171.836 132.15 172.369 132.667 173.019 133.05C173.669 133.417 174.369 133.6 175.119 133.6C175.919 133.6 176.669 133.4 177.369 133C178.086 132.6 178.577 132.075 178.844 131.425L180.744 131.95C180.461 132.583 180.036 133.15 179.469 133.65C178.919 134.15 178.261 134.542 177.494 134.825C176.744 135.108 175.927 135.25 175.044 135.25ZM170.644 127.7H179.544C179.477 126.85 179.236 126.1 178.819 125.45C178.402 124.8 177.869 124.292 177.219 123.925C176.569 123.558 175.852 123.375 175.069 123.375C174.302 123.375 173.594 123.558 172.944 123.925C172.294 124.292 171.761 124.8 171.344 125.45C170.944 126.1 170.711 126.85 170.644 127.7ZM193.24 135L188.715 128.65L186.24 130.975V135H184.04V116.75H186.24V128.675L192.99 121.975H195.365L190.165 127.375L195.615 135H193.24ZM202.814 131.225C202.814 130.392 203.048 129.675 203.514 129.075C203.998 128.458 204.656 127.983 205.489 127.65C206.323 127.317 207.289 127.15 208.389 127.15C208.973 127.15 209.589 127.2 210.239 127.3C210.889 127.383 211.464 127.517 211.964 127.7V126.75C211.964 125.75 211.664 124.967 211.064 124.4C210.464 123.817 209.614 123.525 208.514 123.525C207.798 123.525 207.106 123.658 206.439 123.925C205.789 124.175 205.098 124.542 204.364 125.025L203.564 123.475C204.414 122.892 205.264 122.458 206.114 122.175C206.964 121.875 207.848 121.725 208.764 121.725C210.431 121.725 211.748 122.192 212.714 123.125C213.681 124.042 214.164 125.325 214.164 126.975V132.5C214.164 132.767 214.214 132.967 214.314 133.1C214.431 133.217 214.614 133.283 214.864 133.3V135C214.648 135.033 214.456 135.058 214.289 135.075C214.139 135.092 214.014 135.1 213.914 135.1C213.398 135.1 213.006 134.958 212.739 134.675C212.489 134.392 212.348 134.092 212.314 133.775L212.264 132.95C211.698 133.683 210.956 134.25 210.039 134.65C209.123 135.05 208.214 135.25 207.314 135.25C206.448 135.25 205.673 135.075 204.989 134.725C204.306 134.358 203.773 133.875 203.389 133.275C203.006 132.658 202.814 131.975 202.814 131.225ZM211.314 132.15C211.514 131.917 211.673 131.683 211.789 131.45C211.906 131.2 211.964 130.992 211.964 130.825V129.2C211.448 129 210.906 128.85 210.339 128.75C209.773 128.633 209.214 128.575 208.664 128.575C207.548 128.575 206.639 128.8 205.939 129.25C205.256 129.683 204.914 130.283 204.914 131.05C204.914 131.467 205.023 131.875 205.239 132.275C205.473 132.658 205.806 132.975 206.239 133.225C206.689 133.475 207.239 133.6 207.889 133.6C208.573 133.6 209.223 133.467 209.839 133.2C210.456 132.917 210.948 132.567 211.314 132.15ZM224.382 135.25C223.366 135.25 222.441 135 221.607 134.5C220.774 134 220.116 133.35 219.632 132.55V135H217.682V116.75H219.882V124.55C220.432 123.7 221.107 123.017 221.907 122.5C222.707 121.983 223.641 121.725 224.707 121.725C225.607 121.725 226.416 121.917 227.132 122.3C227.849 122.667 228.457 123.175 228.957 123.825C229.474 124.458 229.866 125.183 230.132 126C230.416 126.8 230.557 127.642 230.557 128.525C230.557 129.442 230.399 130.308 230.082 131.125C229.782 131.925 229.349 132.642 228.782 133.275C228.216 133.892 227.557 134.375 226.807 134.725C226.074 135.075 225.266 135.25 224.382 135.25ZM223.832 133.35C224.482 133.35 225.082 133.217 225.632 132.95C226.182 132.683 226.657 132.325 227.057 131.875C227.457 131.425 227.766 130.908 227.982 130.325C228.199 129.742 228.307 129.142 228.307 128.525C228.307 127.675 228.124 126.875 227.757 126.125C227.407 125.375 226.907 124.775 226.257 124.325C225.624 123.858 224.882 123.625 224.032 123.625C223.416 123.625 222.841 123.767 222.307 124.05C221.774 124.333 221.299 124.708 220.882 125.175C220.482 125.625 220.149 126.125 219.882 126.675V130.45C219.966 130.867 220.141 131.25 220.407 131.6C220.674 131.95 220.999 132.258 221.382 132.525C221.766 132.775 222.166 132.975 222.582 133.125C223.016 133.275 223.432 133.35 223.832 133.35ZM239.907 121.55L241.007 119.925L239.282 119.375L239.607 118.325L241.357 119L241.282 117.15H242.557L242.482 119L244.232 118.325L244.557 119.375L242.832 119.925L243.957 121.55L243.007 122.175L241.932 120.5L240.832 122.175L239.907 121.55Z" fill="white"/>
</svg>
