<svg width="229" height="229" viewBox="0 0 313 313" fill="none" xmlns="http://www.w3.org/2000/svg">
<g filter="url(#filter0_d_698_20744)">
<path d="M297.45 148.461C296.417 157.546 294.065 166.346 290.643 174.825C285.262 188.185 277.779 200.334 268.834 211.557C250.837 234.18 228.921 252.208 204.082 266.779C188.402 275.971 171.937 283.311 154.404 288.298C145.566 290.792 136.586 292.609 127.391 293.464C111.889 294.925 96.7438 293.536 82.204 287.586C68.1275 281.85 56.7594 272.551 47.4938 260.616C38.2996 248.788 31.8849 235.463 27.074 221.354C22.9758 209.348 20.1961 197.021 18.2717 184.516C16.0979 170.443 15.0644 156.263 15.0288 144.328C14.6368 122.096 18.2361 103 26.7889 84.9369C37.9432 61.3871 55.1201 43.3596 77.6069 30.32C92.61 21.5913 108.789 16.0334 125.895 13.1832C135.517 11.5799 145.174 10.7961 154.903 11.0455C187.582 11.865 217.659 21.0212 244.529 39.9038C261.421 51.8033 275.035 66.6956 284.692 85.0438C291.214 97.4065 295.312 110.553 297.058 124.412C298.056 132.5 298.377 140.48 297.45 148.461Z" fill="white"/>
</g>
<path d="M90.9 210C90.9 208.5 91.0167 207.15 91.25 205.95C91.4833 204.75 91.8833 203.633 92.45 202.6C93.05 201.567 93.85 200.6 94.85 199.7C95.8833 198.767 97.1833 197.867 98.75 197C100.117 196.267 101.317 195.633 102.35 195.1C103.383 194.533 104.25 194.017 104.95 193.55C105.683 193.083 106.233 192.617 106.6 192.15C106.967 191.65 107.15 191.083 107.15 190.45C107.15 189.783 106.967 189.183 106.6 188.65C106.233 188.083 105.717 187.633 105.05 187.3C104.383 186.967 103.55 186.8 102.55 186.8C101.75 186.8 101 186.9 100.3 187.1C99.6333 187.3 99 187.583 98.4 187.95C97.8333 188.317 97.3 188.733 96.8 189.2C96.3 189.633 95.85 190.1 95.45 190.6L91.2 185.7C91.6667 185.233 92.2833 184.733 93.05 184.2C93.85 183.633 94.7833 183.117 95.85 182.65C96.95 182.15 98.15 181.75 99.45 181.45C100.783 181.117 102.2 180.95 103.7 180.95C105.967 180.95 107.9 181.317 109.5 182.05C111.1 182.75 112.317 183.733 113.15 185C114.017 186.267 114.45 187.75 114.45 189.45C114.45 190.617 114.233 191.65 113.8 192.55C113.367 193.45 112.817 194.25 112.15 194.95C111.483 195.617 110.75 196.217 109.95 196.75C109.183 197.283 108.433 197.75 107.7 198.15C106.667 198.683 105.733 199.183 104.9 199.65C104.067 200.083 103.333 200.533 102.7 201C102.067 201.433 101.5 201.883 101 202.35C100.533 202.817 100.117 203.35 99.75 203.95H115V210H90.9ZM120.123 210V202.8H125.623V210H120.123ZM141.553 217.45C138.986 217.45 136.67 216.9 134.603 215.8C132.536 214.7 130.97 213.2 129.903 211.3L133.753 207.3C134.686 208.6 135.853 209.633 137.253 210.4C138.653 211.167 140.103 211.55 141.603 211.55C142.803 211.55 143.853 211.3 144.753 210.8C145.686 210.3 146.42 209.6 146.953 208.7C147.486 207.8 147.753 206.767 147.753 205.6C147.753 204.433 147.503 203.417 147.003 202.55C146.503 201.683 145.82 201.017 144.953 200.55C144.086 200.05 143.103 199.8 142.003 199.8C140.903 199.8 139.87 200.05 138.903 200.55C137.97 201.017 137.22 201.7 136.653 202.6H130.803L134.903 181.45H152.403V187.55H139.753L138.303 195.5C138.736 195.1 139.336 194.767 140.103 194.5C140.87 194.2 141.82 194.05 142.953 194.05C145.186 194.05 147.186 194.533 148.953 195.5C150.72 196.467 152.103 197.817 153.103 199.55C154.103 201.25 154.603 203.217 154.603 205.45C154.603 207.817 154.036 209.9 152.903 211.7C151.77 213.533 150.22 214.95 148.253 215.95C146.286 216.95 144.053 217.45 141.553 217.45ZM173.689 186.95H157.539V180.85H184.239L166.639 216.35H159.039L173.689 186.95ZM194.166 189.15C192.633 189.15 191.249 188.817 190.016 188.15C188.783 187.45 187.783 186.533 187.016 185.4C186.283 184.233 185.916 182.95 185.916 181.55C185.916 180.15 186.283 178.883 187.016 177.75C187.783 176.583 188.783 175.667 190.016 175C191.249 174.333 192.633 174 194.166 174C195.699 174 197.083 174.333 198.316 175C199.583 175.667 200.583 176.583 201.316 177.75C202.049 178.883 202.416 180.15 202.416 181.55C202.416 182.95 202.049 184.233 201.316 185.4C200.583 186.533 199.583 187.45 198.316 188.15C197.083 188.817 195.699 189.15 194.166 189.15ZM194.166 185.8C194.833 185.8 195.433 185.6 195.966 185.2C196.499 184.8 196.916 184.283 197.216 183.65C197.549 183.017 197.716 182.333 197.716 181.6C197.716 180.8 197.549 180.083 197.216 179.45C196.883 178.817 196.449 178.317 195.916 177.95C195.383 177.55 194.799 177.35 194.166 177.35C193.499 177.35 192.899 177.55 192.366 177.95C191.833 178.317 191.399 178.817 191.066 179.45C190.766 180.083 190.616 180.783 190.616 181.55C190.616 182.317 190.783 183.033 191.116 183.7C191.449 184.333 191.883 184.85 192.416 185.25C192.949 185.617 193.533 185.8 194.166 185.8ZM213.466 210.5C211.933 210.5 210.549 210.167 209.316 209.5C208.083 208.833 207.083 207.933 206.316 206.8C205.583 205.633 205.216 204.35 205.216 202.95C205.216 201.517 205.583 200.233 206.316 199.1C207.083 197.967 208.083 197.067 209.316 196.4C210.549 195.7 211.933 195.35 213.466 195.35C214.999 195.35 216.383 195.7 217.616 196.4C218.883 197.067 219.883 197.967 220.616 199.1C221.349 200.233 221.716 201.5 221.716 202.9C221.716 204.3 221.349 205.583 220.616 206.75C219.883 207.883 218.883 208.8 217.616 209.5C216.383 210.167 214.999 210.5 213.466 210.5ZM213.466 207.15C214.133 207.15 214.733 206.95 215.266 206.55C215.799 206.15 216.216 205.633 216.516 205C216.849 204.367 217.016 203.683 217.016 202.95C217.016 202.15 216.849 201.433 216.516 200.8C216.216 200.167 215.783 199.667 215.216 199.3C214.683 198.9 214.099 198.7 213.466 198.7C212.833 198.7 212.233 198.9 211.666 199.3C211.133 199.667 210.699 200.183 210.366 200.85C210.066 201.483 209.916 202.167 209.916 202.9C209.916 203.7 210.083 204.417 210.416 205.05C210.749 205.683 211.183 206.2 211.716 206.6C212.249 206.967 212.833 207.15 213.466 207.15ZM188.766 207.65L202.816 191.2L215.816 174.1L218.866 176.8L205.166 193L191.766 210.35L188.766 207.65Z" fill="#34ACE3"/>
<path d="M112.41 102.03V105H100.95V102.03H105.21V91.56C105.03 91.8 104.75 92.05 104.37 92.31C103.99 92.57 103.56 92.82 103.08 93.06C102.62 93.28 102.15 93.46 101.67 93.6C101.19 93.74 100.75 93.81 100.35 93.81V90.72C100.75 90.72 101.21 90.6 101.73 90.36C102.25 90.12 102.76 89.84 103.26 89.52C103.78 89.18 104.22 88.86 104.58 88.56C104.94 88.24 105.15 88.01 105.21 87.87H108.6V102.03H112.41ZM120.981 109.47C119.441 109.47 118.061 109.12 116.841 108.42C115.621 107.74 114.691 106.81 114.051 105.63L116.031 103.74C116.591 104.6 117.311 105.28 118.191 105.78C119.071 106.3 120.011 106.56 121.011 106.56C121.831 106.56 122.561 106.38 123.201 106.02C123.841 105.68 124.341 105.2 124.701 104.58C125.081 103.94 125.271 103.21 125.271 102.39C125.271 101.59 125.091 100.89 124.731 100.29C124.371 99.67 123.891 99.2 123.291 98.88C122.691 98.54 122.001 98.37 121.221 98.37C120.461 98.37 119.751 98.54 119.091 98.88C118.431 99.22 117.891 99.7 117.471 100.32H114.561L116.991 87.87H127.401V90.9H119.391L118.311 96.72C118.651 96.36 119.111 96.07 119.691 95.85C120.271 95.61 120.931 95.49 121.671 95.49C123.011 95.49 124.201 95.79 125.241 96.39C126.301 96.97 127.131 97.77 127.731 98.79C128.351 99.81 128.661 100.99 128.661 102.33C128.661 103.75 128.321 104.99 127.641 106.05C126.961 107.13 126.041 107.97 124.881 108.57C123.721 109.17 122.421 109.47 120.981 109.47ZM137.346 101.25C137.666 101.49 138.156 101.73 138.816 101.97C139.476 102.19 140.256 102.3 141.156 102.3C142.036 102.3 142.746 102.16 143.286 101.88C143.846 101.58 144.266 101.14 144.546 100.56C144.846 99.96 145.046 99.2 145.146 98.28C145.266 97.36 145.326 96.27 145.326 95.01V83.7H148.716V94.53C148.716 96.11 148.626 97.56 148.446 98.88C148.286 100.2 147.956 101.35 147.456 102.33C146.956 103.29 146.206 104.03 145.206 104.55C144.226 105.07 142.906 105.33 141.246 105.33C140.266 105.33 139.396 105.22 138.636 105C137.876 104.78 137.176 104.45 136.536 104.01L137.346 101.25ZM151.461 100.41C151.461 99.41 151.741 98.54 152.301 97.8C152.881 97.04 153.671 96.46 154.671 96.06C155.671 95.64 156.831 95.43 158.151 95.43C158.851 95.43 159.561 95.48 160.281 95.58C161.021 95.68 161.671 95.84 162.231 96.06V95.07C162.231 93.97 161.901 93.11 161.241 92.49C160.581 91.87 159.631 91.56 158.391 91.56C157.511 91.56 156.681 91.72 155.901 92.04C155.121 92.34 154.291 92.77 153.411 93.33L152.301 91.11C153.341 90.41 154.381 89.89 155.421 89.55C156.481 89.21 157.591 89.04 158.751 89.04C160.851 89.04 162.501 89.6 163.701 90.72C164.921 91.82 165.531 93.39 165.531 95.43V101.28C165.531 101.66 165.591 101.93 165.711 102.09C165.851 102.25 166.081 102.34 166.401 102.36V105C166.101 105.06 165.831 105.1 165.591 105.12C165.351 105.14 165.151 105.15 164.991 105.15C164.291 105.15 163.761 104.98 163.401 104.64C163.041 104.3 162.831 103.9 162.771 103.44L162.681 102.54C162.001 103.42 161.131 104.1 160.071 104.58C159.011 105.06 157.941 105.3 156.861 105.3C155.821 105.3 154.891 105.09 154.071 104.67C153.251 104.23 152.611 103.64 152.151 102.9C151.691 102.16 151.461 101.33 151.461 100.41ZM161.451 101.37C161.691 101.11 161.881 100.85 162.021 100.59C162.161 100.33 162.231 100.1 162.231 99.9V98.1C161.671 97.88 161.081 97.72 160.461 97.62C159.841 97.5 159.231 97.44 158.631 97.44C157.431 97.44 156.451 97.68 155.691 98.16C154.951 98.64 154.581 99.3 154.581 100.14C154.581 100.6 154.701 101.04 154.941 101.46C155.201 101.88 155.561 102.22 156.021 102.48C156.501 102.74 157.091 102.87 157.791 102.87C158.511 102.87 159.201 102.73 159.861 102.45C160.521 102.17 161.051 101.81 161.451 101.37ZM183.605 105H180.305V96.21C180.305 94.79 180.045 93.73 179.525 93.03C179.005 92.33 178.275 91.98 177.335 91.98C176.755 91.98 176.155 92.14 175.535 92.46C174.915 92.78 174.365 93.22 173.885 93.78C173.405 94.32 173.055 94.95 172.835 95.67V105H169.535V83.1H172.835V92.46C173.435 91.4 174.255 90.57 175.295 89.97C176.335 89.35 177.455 89.04 178.655 89.04C179.635 89.04 180.445 89.21 181.085 89.55C181.725 89.89 182.225 90.36 182.585 90.96C182.965 91.54 183.225 92.22 183.365 93C183.525 93.76 183.605 94.57 183.605 95.43V105ZM196.255 92.16C194.975 92.18 193.835 92.47 192.835 93.03C191.855 93.59 191.155 94.38 190.735 95.4V105H187.435V89.31H190.495V92.82C191.035 91.74 191.745 90.88 192.625 90.24C193.505 89.58 194.435 89.22 195.415 89.16C195.615 89.16 195.775 89.16 195.895 89.16C196.035 89.16 196.155 89.17 196.255 89.19V92.16ZM205.473 105.3C204.253 105.3 203.143 105.09 202.143 104.67C201.163 104.23 200.313 103.64 199.593 102.9C198.873 102.14 198.313 101.28 197.913 100.32C197.533 99.34 197.343 98.3 197.343 97.2C197.343 95.72 197.683 94.37 198.363 93.15C199.043 91.91 199.993 90.92 201.213 90.18C202.433 89.42 203.863 89.04 205.503 89.04C207.143 89.04 208.553 89.42 209.733 90.18C210.933 90.92 211.863 91.9 212.523 93.12C213.183 94.34 213.513 95.65 213.513 97.05C213.513 97.29 213.503 97.52 213.483 97.74C213.463 97.94 213.443 98.11 213.423 98.25H200.853C200.913 99.17 201.163 99.98 201.603 100.68C202.063 101.36 202.643 101.9 203.343 102.3C204.043 102.68 204.793 102.87 205.593 102.87C206.473 102.87 207.303 102.65 208.083 102.21C208.883 101.77 209.423 101.19 209.703 100.47L212.523 101.28C212.183 102.04 211.663 102.73 210.963 103.35C210.283 103.95 209.473 104.43 208.533 104.79C207.593 105.13 206.573 105.3 205.473 105.3ZM200.763 96.06H210.243C210.183 95.16 209.923 94.37 209.463 93.69C209.023 92.99 208.453 92.45 207.753 92.07C207.073 91.67 206.313 91.47 205.473 91.47C204.653 91.47 203.893 91.67 203.193 92.07C202.513 92.45 201.953 92.99 201.513 93.69C201.073 94.37 200.823 95.16 200.763 96.06Z" fill="black"/>
<path d="M53.125 146V128.25H64.85V130.25H55.375V136.175H63.35V138.05H55.375V146H53.125ZM72.3195 146.25C71.3362 146.25 70.4362 146.075 69.6195 145.725C68.8195 145.358 68.1195 144.867 67.5195 144.25C66.9362 143.617 66.4779 142.892 66.1445 142.075C65.8279 141.258 65.6695 140.392 65.6695 139.475C65.6695 138.242 65.9529 137.117 66.5195 136.1C67.0862 135.083 67.8695 134.267 68.8695 133.65C69.8862 133.033 71.0445 132.725 72.3445 132.725C73.6612 132.725 74.8029 133.042 75.7695 133.675C76.7529 134.292 77.5112 135.108 78.0445 136.125C78.5945 137.125 78.8695 138.208 78.8695 139.375C78.8695 139.542 78.8612 139.708 78.8445 139.875C78.8445 140.025 78.8362 140.142 78.8195 140.225H67.9945C68.0612 141.075 68.2945 141.833 68.6945 142.5C69.1112 143.15 69.6445 143.667 70.2945 144.05C70.9445 144.417 71.6445 144.6 72.3945 144.6C73.1945 144.6 73.9445 144.4 74.6445 144C75.3612 143.6 75.8529 143.075 76.1195 142.425L78.0195 142.95C77.7362 143.583 77.3112 144.15 76.7445 144.65C76.1945 145.15 75.5362 145.542 74.7695 145.825C74.0195 146.108 73.2029 146.25 72.3195 146.25ZM67.9195 138.7H76.8195C76.7529 137.85 76.5112 137.1 76.0945 136.45C75.6779 135.8 75.1445 135.292 74.4945 134.925C73.8445 134.558 73.1279 134.375 72.3445 134.375C71.5779 134.375 70.8695 134.558 70.2195 134.925C69.5695 135.292 69.0362 135.8 68.6195 136.45C68.2195 137.1 67.9862 137.85 67.9195 138.7ZM85.79 146.25C84.7067 146.25 83.69 146.075 82.74 145.725C81.79 145.358 80.9734 144.817 80.29 144.1L81.14 142.55C81.89 143.25 82.64 143.75 83.39 144.05C84.14 144.35 84.9067 144.5 85.69 144.5C86.59 144.5 87.3234 144.333 87.89 144C88.4567 143.65 88.74 143.142 88.74 142.475C88.74 141.992 88.59 141.633 88.29 141.4C88.0067 141.167 87.5984 140.975 87.065 140.825C86.5317 140.658 85.8984 140.475 85.165 140.275C84.265 140.008 83.5067 139.725 82.89 139.425C82.2734 139.125 81.8067 138.75 81.49 138.3C81.1734 137.85 81.015 137.283 81.015 136.6C81.015 135.767 81.2317 135.067 81.665 134.5C82.0984 133.917 82.69 133.475 83.44 133.175C84.2067 132.875 85.0734 132.725 86.04 132.725C87.0067 132.725 87.8817 132.875 88.665 133.175C89.4484 133.475 90.1234 133.917 90.69 134.5L89.69 136.025C89.1734 135.492 88.6067 135.1 87.99 134.85C87.3734 134.583 86.6817 134.45 85.915 134.45C85.465 134.45 85.0234 134.508 84.59 134.625C84.1567 134.725 83.7984 134.917 83.515 135.2C83.2317 135.467 83.09 135.85 83.09 136.35C83.09 136.767 83.1984 137.1 83.415 137.35C83.6484 137.583 83.9817 137.783 84.415 137.95C84.865 138.117 85.4067 138.3 86.04 138.5C87.0234 138.783 87.8734 139.067 88.59 139.35C89.3234 139.633 89.89 140 90.29 140.45C90.69 140.9 90.89 141.525 90.89 142.325C90.89 143.558 90.4234 144.525 89.49 145.225C88.5567 145.908 87.3234 146.25 85.79 146.25ZM100.272 145.35C100.089 145.433 99.8387 145.542 99.5221 145.675C99.2054 145.808 98.8387 145.925 98.4221 146.025C98.0054 146.125 97.5637 146.175 97.0971 146.175C96.5637 146.175 96.0721 146.083 95.6221 145.9C95.1721 145.7 94.8137 145.4 94.5471 145C94.2804 144.583 94.1471 144.067 94.1471 143.45V134.675H92.3721V132.95H94.1471V128.6H96.3471V132.95H99.2721V134.675H96.3471V142.775C96.3804 143.242 96.5387 143.592 96.8221 143.825C97.1054 144.042 97.4387 144.15 97.8221 144.15C98.2554 144.15 98.6554 144.075 99.0221 143.925C99.3887 143.775 99.6304 143.667 99.7471 143.6L100.272 145.35ZM113.636 146H111.436V138.7C111.436 137.367 111.194 136.367 110.711 135.7C110.244 135.033 109.569 134.7 108.686 134.7C108.119 134.7 107.544 134.85 106.961 135.15C106.394 135.45 105.894 135.858 105.461 136.375C105.028 136.875 104.711 137.458 104.511 138.125V146H102.311V127.75H104.511V135.75C105.028 134.817 105.728 134.083 106.611 133.55C107.511 133 108.478 132.725 109.511 132.725C110.294 132.725 110.944 132.867 111.461 133.15C111.994 133.417 112.419 133.8 112.736 134.3C113.053 134.8 113.278 135.383 113.411 136.05C113.561 136.7 113.636 137.417 113.636 138.2V146ZM117.364 149.55C117.581 149.567 117.798 149.583 118.014 149.6C118.231 149.633 118.398 149.65 118.514 149.65C118.781 149.65 119.014 149.558 119.214 149.375C119.414 149.192 119.631 148.833 119.864 148.3C120.114 147.783 120.431 147.017 120.814 146L115.289 132.95H117.614L122.014 143.775L125.989 132.95H128.164L121.814 149.425C121.664 149.808 121.439 150.167 121.139 150.5C120.856 150.85 120.489 151.125 120.039 151.325C119.589 151.525 119.048 151.625 118.414 151.625C118.264 151.625 118.106 151.617 117.939 151.6C117.789 151.583 117.598 151.55 117.364 151.5V149.55ZM137.412 146.25C136.346 146.25 135.396 145.983 134.562 145.45C133.729 144.917 133.071 144.242 132.587 143.425V151.325H130.387V132.95H132.337V135.4C132.854 134.6 133.529 133.958 134.362 133.475C135.196 132.975 136.104 132.725 137.087 132.725C137.987 132.725 138.812 132.908 139.562 133.275C140.312 133.642 140.962 134.142 141.512 134.775C142.062 135.408 142.487 136.133 142.787 136.95C143.104 137.75 143.262 138.592 143.262 139.475C143.262 140.708 143.012 141.842 142.512 142.875C142.029 143.908 141.346 144.733 140.462 145.35C139.579 145.95 138.562 146.25 137.412 146.25ZM136.737 144.35C137.387 144.35 137.971 144.217 138.487 143.95C139.021 143.667 139.471 143.3 139.837 142.85C140.221 142.383 140.512 141.858 140.712 141.275C140.912 140.692 141.012 140.092 141.012 139.475C141.012 138.825 140.896 138.208 140.662 137.625C140.446 137.042 140.129 136.525 139.712 136.075C139.312 135.625 138.837 135.275 138.287 135.025C137.754 134.758 137.171 134.625 136.537 134.625C136.137 134.625 135.721 134.7 135.287 134.85C134.871 135 134.471 135.217 134.087 135.5C133.704 135.767 133.379 136.075 133.112 136.425C132.846 136.775 132.671 137.15 132.587 137.55V141.275C132.837 141.842 133.171 142.358 133.587 142.825C134.004 143.292 134.487 143.667 135.037 143.95C135.587 144.217 136.154 144.35 136.737 144.35ZM151.663 146.25C150.68 146.25 149.788 146.075 148.988 145.725C148.188 145.358 147.497 144.867 146.913 144.25C146.33 143.617 145.88 142.892 145.563 142.075C145.247 141.258 145.088 140.4 145.088 139.5C145.088 138.583 145.247 137.717 145.563 136.9C145.88 136.083 146.33 135.367 146.913 134.75C147.497 134.117 148.188 133.625 148.988 133.275C149.805 132.908 150.697 132.725 151.663 132.725C152.647 132.725 153.538 132.908 154.338 133.275C155.138 133.625 155.83 134.117 156.413 134.75C157.013 135.367 157.472 136.083 157.788 136.9C158.105 137.717 158.263 138.583 158.263 139.5C158.263 140.4 158.105 141.258 157.788 142.075C157.472 142.892 157.022 143.617 156.438 144.25C155.855 144.867 155.155 145.358 154.338 145.725C153.538 146.075 152.647 146.25 151.663 146.25ZM147.338 139.525C147.338 140.425 147.53 141.242 147.913 141.975C148.313 142.708 148.838 143.292 149.488 143.725C150.138 144.142 150.863 144.35 151.663 144.35C152.463 144.35 153.188 144.133 153.838 143.7C154.505 143.267 155.03 142.683 155.413 141.95C155.813 141.2 156.013 140.375 156.013 139.475C156.013 138.575 155.813 137.758 155.413 137.025C155.03 136.292 154.505 135.708 153.838 135.275C153.188 134.842 152.463 134.625 151.663 134.625C150.863 134.625 150.138 134.85 149.488 135.3C148.838 135.733 148.313 136.317 147.913 137.05C147.53 137.783 147.338 138.608 147.338 139.525ZM167.484 145.35C167.301 145.433 167.051 145.542 166.734 145.675C166.417 145.808 166.051 145.925 165.634 146.025C165.217 146.125 164.776 146.175 164.309 146.175C163.776 146.175 163.284 146.083 162.834 145.9C162.384 145.7 162.026 145.4 161.759 145C161.492 144.583 161.359 144.067 161.359 143.45V134.675H159.584V132.95H161.359V128.6H163.559V132.95H166.484V134.675H163.559V142.775C163.592 143.242 163.751 143.592 164.034 143.825C164.317 144.042 164.651 144.15 165.034 144.15C165.467 144.15 165.867 144.075 166.234 143.925C166.601 143.775 166.842 143.667 166.959 143.6L167.484 145.35ZM180.848 146H178.648V138.7C178.648 137.367 178.406 136.367 177.923 135.7C177.456 135.033 176.781 134.7 175.898 134.7C175.331 134.7 174.756 134.85 174.173 135.15C173.606 135.45 173.106 135.858 172.673 136.375C172.24 136.875 171.923 137.458 171.723 138.125V146H169.523V127.75H171.723V135.75C172.24 134.817 172.94 134.083 173.823 133.55C174.723 133 175.69 132.725 176.723 132.725C177.506 132.725 178.156 132.867 178.673 133.15C179.206 133.417 179.631 133.8 179.948 134.3C180.265 134.8 180.49 135.383 180.623 136.05C180.773 136.7 180.848 137.417 180.848 138.2V146ZM190.044 146.25C189.061 146.25 188.161 146.075 187.344 145.725C186.544 145.358 185.844 144.867 185.244 144.25C184.661 143.617 184.202 142.892 183.869 142.075C183.552 141.258 183.394 140.392 183.394 139.475C183.394 138.242 183.677 137.117 184.244 136.1C184.811 135.083 185.594 134.267 186.594 133.65C187.611 133.033 188.769 132.725 190.069 132.725C191.386 132.725 192.527 133.042 193.494 133.675C194.477 134.292 195.236 135.108 195.769 136.125C196.319 137.125 196.594 138.208 196.594 139.375C196.594 139.542 196.586 139.708 196.569 139.875C196.569 140.025 196.561 140.142 196.544 140.225H185.719C185.786 141.075 186.019 141.833 186.419 142.5C186.836 143.15 187.369 143.667 188.019 144.05C188.669 144.417 189.369 144.6 190.119 144.6C190.919 144.6 191.669 144.4 192.369 144C193.086 143.6 193.577 143.075 193.844 142.425L195.744 142.95C195.461 143.583 195.036 144.15 194.469 144.65C193.919 145.15 193.261 145.542 192.494 145.825C191.744 146.108 190.927 146.25 190.044 146.25ZM185.644 138.7H194.544C194.477 137.85 194.236 137.1 193.819 136.45C193.402 135.8 192.869 135.292 192.219 134.925C191.569 134.558 190.852 134.375 190.069 134.375C189.302 134.375 188.594 134.558 187.944 134.925C187.294 135.292 186.761 135.8 186.344 136.45C185.944 137.1 185.711 137.85 185.644 138.7ZM208.24 146L203.715 139.65L201.24 141.975V146H199.04V127.75H201.24V139.675L207.99 132.975H210.365L205.165 138.375L210.615 146H208.24ZM217.814 142.225C217.814 141.392 218.048 140.675 218.514 140.075C218.998 139.458 219.656 138.983 220.489 138.65C221.323 138.317 222.289 138.15 223.389 138.15C223.973 138.15 224.589 138.2 225.239 138.3C225.889 138.383 226.464 138.517 226.964 138.7V137.75C226.964 136.75 226.664 135.967 226.064 135.4C225.464 134.817 224.614 134.525 223.514 134.525C222.798 134.525 222.106 134.658 221.439 134.925C220.789 135.175 220.098 135.542 219.364 136.025L218.564 134.475C219.414 133.892 220.264 133.458 221.114 133.175C221.964 132.875 222.848 132.725 223.764 132.725C225.431 132.725 226.748 133.192 227.714 134.125C228.681 135.042 229.164 136.325 229.164 137.975V143.5C229.164 143.767 229.214 143.967 229.314 144.1C229.431 144.217 229.614 144.283 229.864 144.3V146C229.648 146.033 229.456 146.058 229.289 146.075C229.139 146.092 229.014 146.1 228.914 146.1C228.398 146.1 228.006 145.958 227.739 145.675C227.489 145.392 227.348 145.092 227.314 144.775L227.264 143.95C226.698 144.683 225.956 145.25 225.039 145.65C224.123 146.05 223.214 146.25 222.314 146.25C221.448 146.25 220.673 146.075 219.989 145.725C219.306 145.358 218.773 144.875 218.389 144.275C218.006 143.658 217.814 142.975 217.814 142.225ZM226.314 143.15C226.514 142.917 226.673 142.683 226.789 142.45C226.906 142.2 226.964 141.992 226.964 141.825V140.2C226.448 140 225.906 139.85 225.339 139.75C224.773 139.633 224.214 139.575 223.664 139.575C222.548 139.575 221.639 139.8 220.939 140.25C220.256 140.683 219.914 141.283 219.914 142.05C219.914 142.467 220.023 142.875 220.239 143.275C220.473 143.658 220.806 143.975 221.239 144.225C221.689 144.475 222.239 144.6 222.889 144.6C223.573 144.6 224.223 144.467 224.839 144.2C225.456 143.917 225.948 143.567 226.314 143.15ZM239.382 146.25C238.366 146.25 237.441 146 236.607 145.5C235.774 145 235.116 144.35 234.632 143.55V146H232.682V127.75H234.882V135.55C235.432 134.7 236.107 134.017 236.907 133.5C237.707 132.983 238.641 132.725 239.707 132.725C240.607 132.725 241.416 132.917 242.132 133.3C242.849 133.667 243.457 134.175 243.957 134.825C244.474 135.458 244.866 136.183 245.132 137C245.416 137.8 245.557 138.642 245.557 139.525C245.557 140.442 245.399 141.308 245.082 142.125C244.782 142.925 244.349 143.642 243.782 144.275C243.216 144.892 242.557 145.375 241.807 145.725C241.074 146.075 240.266 146.25 239.382 146.25ZM238.832 144.35C239.482 144.35 240.082 144.217 240.632 143.95C241.182 143.683 241.657 143.325 242.057 142.875C242.457 142.425 242.766 141.908 242.982 141.325C243.199 140.742 243.307 140.142 243.307 139.525C243.307 138.675 243.124 137.875 242.757 137.125C242.407 136.375 241.907 135.775 241.257 135.325C240.624 134.858 239.882 134.625 239.032 134.625C238.416 134.625 237.841 134.767 237.307 135.05C236.774 135.333 236.299 135.708 235.882 136.175C235.482 136.625 235.149 137.125 234.882 137.675V141.45C234.966 141.867 235.141 142.25 235.407 142.6C235.674 142.95 235.999 143.258 236.382 143.525C236.766 143.775 237.166 143.975 237.582 144.125C238.016 144.275 238.432 144.35 238.832 144.35ZM254.907 132.55L256.007 130.925L254.282 130.375L254.607 129.325L256.357 130L256.282 128.15H257.557L257.482 130L259.232 129.325L259.557 130.375L257.832 130.925L258.957 132.55L258.007 133.175L256.932 131.5L255.832 133.175L254.907 132.55Z" fill="black"/>
<defs>
<filter id="filter0_d_698_20744" x="0" y="0" width="313" height="313" filterUnits="userSpaceOnUse" color-interpolation-filters="sRGB">
<feFlood flood-opacity="0" result="BackgroundImageFix"/>
<feColorMatrix in="SourceAlpha" type="matrix" values="0 0 0 0 0 0 0 0 0 0 0 0 0 0 0 0 0 0 127 0" result="hardAlpha"/>
<feOffset dy="4"/>
<feGaussianBlur stdDeviation="7.5"/>
<feComposite in2="hardAlpha" operator="out"/>
<feColorMatrix type="matrix" values="0 0 0 0 0.595833 0 0 0 0 0.595833 0 0 0 0 0.595833 0 0 0 0.25 0"/>
<feBlend mode="normal" in2="BackgroundImageFix" result="effect1_dropShadow_698_20744"/>
<feBlend mode="normal" in="SourceGraphic" in2="effect1_dropShadow_698_20744" result="shape"/>
</filter>
</defs>
</svg>
