<svg width="229" height="229"  viewBox="0 0 283 283" fill="none" xmlns="http://www.w3.org/2000/svg">
<path d="M282.45 137.461C281.417 146.546 279.065 155.346 275.643 163.825C270.262 177.185 262.779 189.334 253.834 200.557C235.837 223.18 213.921 241.208 189.082 255.779C173.402 264.971 156.937 272.311 139.404 277.298C130.566 279.792 121.586 281.609 112.391 282.464C96.8895 283.925 81.7438 282.536 67.204 276.586C53.1275 270.85 41.7594 261.551 32.4938 249.616C23.2996 237.788 16.8849 224.463 12.074 210.354C7.97576 198.348 5.19609 186.021 3.27171 173.516C1.09787 159.443 0.0643991 145.263 0.0287624 133.328C-0.363242 111.096 3.23607 92 11.7889 73.9369C22.9432 50.3871 40.1201 32.3596 62.6069 19.32C77.61 10.5913 93.7891 5.03338 110.895 2.18318C120.517 0.579944 130.174 -0.203861 139.903 0.0455316C172.582 0.864963 202.659 10.0212 229.529 28.9038C246.421 40.8033 260.035 55.6956 269.692 74.0438C276.214 86.4065 280.312 99.553 282.058 113.412C283.056 121.5 283.377 129.48 282.45 137.461Z" fill="#333436"/>
<path d="M75.9 199C75.9 197.5 76.0167 196.15 76.25 194.95C76.4833 193.75 76.8833 192.633 77.45 191.6C78.05 190.567 78.85 189.6 79.85 188.7C80.8833 187.767 82.1833 186.867 83.75 186C85.1167 185.267 86.3167 184.633 87.35 184.1C88.3833 183.533 89.25 183.017 89.95 182.55C90.6833 182.083 91.2333 181.617 91.6 181.15C91.9667 180.65 92.15 180.083 92.15 179.45C92.15 178.783 91.9667 178.183 91.6 177.65C91.2333 177.083 90.7167 176.633 90.05 176.3C89.3833 175.967 88.55 175.8 87.55 175.8C86.75 175.8 86 175.9 85.3 176.1C84.6333 176.3 84 176.583 83.4 176.95C82.8333 177.317 82.3 177.733 81.8 178.2C81.3 178.633 80.85 179.1 80.45 179.6L76.2 174.7C76.6667 174.233 77.2833 173.733 78.05 173.2C78.85 172.633 79.7833 172.117 80.85 171.65C81.95 171.15 83.15 170.75 84.45 170.45C85.7833 170.117 87.2 169.95 88.7 169.95C90.9667 169.95 92.9 170.317 94.5 171.05C96.1 171.75 97.3167 172.733 98.15 174C99.0167 175.267 99.45 176.75 99.45 178.45C99.45 179.617 99.2333 180.65 98.8 181.55C98.3667 182.45 97.8167 183.25 97.15 183.95C96.4833 184.617 95.75 185.217 94.95 185.75C94.1833 186.283 93.4333 186.75 92.7 187.15C91.6667 187.683 90.7333 188.183 89.9 188.65C89.0667 189.083 88.3333 189.533 87.7 190C87.0667 190.433 86.5 190.883 86 191.35C85.5333 191.817 85.1167 192.35 84.75 192.95H100V199H75.9ZM105.123 199V191.8H110.623V199H105.123ZM126.553 206.45C123.986 206.45 121.67 205.9 119.603 204.8C117.536 203.7 115.97 202.2 114.903 200.3L118.753 196.3C119.686 197.6 120.853 198.633 122.253 199.4C123.653 200.167 125.103 200.55 126.603 200.55C127.803 200.55 128.853 200.3 129.753 199.8C130.686 199.3 131.42 198.6 131.953 197.7C132.486 196.8 132.753 195.767 132.753 194.6C132.753 193.433 132.503 192.417 132.003 191.55C131.503 190.683 130.82 190.017 129.953 189.55C129.086 189.05 128.103 188.8 127.003 188.8C125.903 188.8 124.87 189.05 123.903 189.55C122.97 190.017 122.22 190.7 121.653 191.6H115.803L119.903 170.45H137.403V176.55H124.753L123.303 184.5C123.736 184.1 124.336 183.767 125.103 183.5C125.87 183.2 126.82 183.05 127.953 183.05C130.186 183.05 132.186 183.533 133.953 184.5C135.72 185.467 137.103 186.817 138.103 188.55C139.103 190.25 139.603 192.217 139.603 194.45C139.603 196.817 139.036 198.9 137.903 200.7C136.77 202.533 135.22 203.95 133.253 204.95C131.286 205.95 129.053 206.45 126.553 206.45ZM158.689 175.95H142.539V169.85H169.239L151.639 205.35H144.039L158.689 175.95ZM179.166 178.15C177.633 178.15 176.249 177.817 175.016 177.15C173.783 176.45 172.783 175.533 172.016 174.4C171.283 173.233 170.916 171.95 170.916 170.55C170.916 169.15 171.283 167.883 172.016 166.75C172.783 165.583 173.783 164.667 175.016 164C176.249 163.333 177.633 163 179.166 163C180.699 163 182.083 163.333 183.316 164C184.583 164.667 185.583 165.583 186.316 166.75C187.049 167.883 187.416 169.15 187.416 170.55C187.416 171.95 187.049 173.233 186.316 174.4C185.583 175.533 184.583 176.45 183.316 177.15C182.083 177.817 180.699 178.15 179.166 178.15ZM179.166 174.8C179.833 174.8 180.433 174.6 180.966 174.2C181.499 173.8 181.916 173.283 182.216 172.65C182.549 172.017 182.716 171.333 182.716 170.6C182.716 169.8 182.549 169.083 182.216 168.45C181.883 167.817 181.449 167.317 180.916 166.95C180.383 166.55 179.799 166.35 179.166 166.35C178.499 166.35 177.899 166.55 177.366 166.95C176.833 167.317 176.399 167.817 176.066 168.45C175.766 169.083 175.616 169.783 175.616 170.55C175.616 171.317 175.783 172.033 176.116 172.7C176.449 173.333 176.883 173.85 177.416 174.25C177.949 174.617 178.533 174.8 179.166 174.8ZM198.466 199.5C196.933 199.5 195.549 199.167 194.316 198.5C193.083 197.833 192.083 196.933 191.316 195.8C190.583 194.633 190.216 193.35 190.216 191.95C190.216 190.517 190.583 189.233 191.316 188.1C192.083 186.967 193.083 186.067 194.316 185.4C195.549 184.7 196.933 184.35 198.466 184.35C199.999 184.35 201.383 184.7 202.616 185.4C203.883 186.067 204.883 186.967 205.616 188.1C206.349 189.233 206.716 190.5 206.716 191.9C206.716 193.3 206.349 194.583 205.616 195.75C204.883 196.883 203.883 197.8 202.616 198.5C201.383 199.167 199.999 199.5 198.466 199.5ZM198.466 196.15C199.133 196.15 199.733 195.95 200.266 195.55C200.799 195.15 201.216 194.633 201.516 194C201.849 193.367 202.016 192.683 202.016 191.95C202.016 191.15 201.849 190.433 201.516 189.8C201.216 189.167 200.783 188.667 200.216 188.3C199.683 187.9 199.099 187.7 198.466 187.7C197.833 187.7 197.233 187.9 196.666 188.3C196.133 188.667 195.699 189.183 195.366 189.85C195.066 190.483 194.916 191.167 194.916 191.9C194.916 192.7 195.083 193.417 195.416 194.05C195.749 194.683 196.183 195.2 196.716 195.6C197.249 195.967 197.833 196.15 198.466 196.15ZM173.766 196.65L187.816 180.2L200.816 163.1L203.866 165.8L190.166 182L176.766 199.35L173.766 196.65Z" fill="#34ACE3"/>
<path d="M97.41 91.03V94H85.95V91.03H90.21V80.56C90.03 80.8 89.75 81.05 89.37 81.31C88.99 81.57 88.56 81.82 88.08 82.06C87.62 82.28 87.15 82.46 86.67 82.6C86.19 82.74 85.75 82.81 85.35 82.81V79.72C85.75 79.72 86.21 79.6 86.73 79.36C87.25 79.12 87.76 78.84 88.26 78.52C88.78 78.18 89.22 77.86 89.58 77.56C89.94 77.24 90.15 77.01 90.21 76.87H93.6V91.03H97.41ZM105.981 98.47C104.441 98.47 103.061 98.12 101.841 97.42C100.621 96.74 99.6911 95.81 99.0511 94.63L101.031 92.74C101.591 93.6 102.311 94.28 103.191 94.78C104.071 95.3 105.011 95.56 106.011 95.56C106.831 95.56 107.561 95.38 108.201 95.02C108.841 94.68 109.341 94.2 109.701 93.58C110.081 92.94 110.271 92.21 110.271 91.39C110.271 90.59 110.091 89.89 109.731 89.29C109.371 88.67 108.891 88.2 108.291 87.88C107.691 87.54 107.001 87.37 106.221 87.37C105.461 87.37 104.751 87.54 104.091 87.88C103.431 88.22 102.891 88.7 102.471 89.32H99.5611L101.991 76.87H112.401V79.9H104.391L103.311 85.72C103.651 85.36 104.111 85.07 104.691 84.85C105.271 84.61 105.931 84.49 106.671 84.49C108.011 84.49 109.201 84.79 110.241 85.39C111.301 85.97 112.131 86.77 112.731 87.79C113.351 88.81 113.661 89.99 113.661 91.33C113.661 92.75 113.321 93.99 112.641 95.05C111.961 96.13 111.041 96.97 109.881 97.57C108.721 98.17 107.421 98.47 105.981 98.47ZM122.346 90.25C122.666 90.49 123.156 90.73 123.816 90.97C124.476 91.19 125.256 91.3 126.156 91.3C127.036 91.3 127.746 91.16 128.286 90.88C128.846 90.58 129.266 90.14 129.546 89.56C129.846 88.96 130.046 88.2 130.146 87.28C130.266 86.36 130.326 85.27 130.326 84.01V72.7H133.716V83.53C133.716 85.11 133.626 86.56 133.446 87.88C133.286 89.2 132.956 90.35 132.456 91.33C131.956 92.29 131.206 93.03 130.206 93.55C129.226 94.07 127.906 94.33 126.246 94.33C125.266 94.33 124.396 94.22 123.636 94C122.876 93.78 122.176 93.45 121.536 93.01L122.346 90.25ZM136.461 89.41C136.461 88.41 136.741 87.54 137.301 86.8C137.881 86.04 138.671 85.46 139.671 85.06C140.671 84.64 141.831 84.43 143.151 84.43C143.851 84.43 144.561 84.48 145.281 84.58C146.021 84.68 146.671 84.84 147.231 85.06V84.07C147.231 82.97 146.901 82.11 146.241 81.49C145.581 80.87 144.631 80.56 143.391 80.56C142.511 80.56 141.681 80.72 140.901 81.04C140.121 81.34 139.291 81.77 138.411 82.33L137.301 80.11C138.341 79.41 139.381 78.89 140.421 78.55C141.481 78.21 142.591 78.04 143.751 78.04C145.851 78.04 147.501 78.6 148.701 79.72C149.921 80.82 150.531 82.39 150.531 84.43V90.28C150.531 90.66 150.591 90.93 150.711 91.09C150.851 91.25 151.081 91.34 151.401 91.36V94C151.101 94.06 150.831 94.1 150.591 94.12C150.351 94.14 150.151 94.15 149.991 94.15C149.291 94.15 148.761 93.98 148.401 93.64C148.041 93.3 147.831 92.9 147.771 92.44L147.681 91.54C147.001 92.42 146.131 93.1 145.071 93.58C144.011 94.06 142.941 94.3 141.861 94.3C140.821 94.3 139.891 94.09 139.071 93.67C138.251 93.23 137.611 92.64 137.151 91.9C136.691 91.16 136.461 90.33 136.461 89.41ZM146.451 90.37C146.691 90.11 146.881 89.85 147.021 89.59C147.161 89.33 147.231 89.1 147.231 88.9V87.1C146.671 86.88 146.081 86.72 145.461 86.62C144.841 86.5 144.231 86.44 143.631 86.44C142.431 86.44 141.451 86.68 140.691 87.16C139.951 87.64 139.581 88.3 139.581 89.14C139.581 89.6 139.701 90.04 139.941 90.46C140.201 90.88 140.561 91.22 141.021 91.48C141.501 91.74 142.091 91.87 142.791 91.87C143.511 91.87 144.201 91.73 144.861 91.45C145.521 91.17 146.051 90.81 146.451 90.37ZM168.605 94H165.305V85.21C165.305 83.79 165.045 82.73 164.525 82.03C164.005 81.33 163.275 80.98 162.335 80.98C161.755 80.98 161.155 81.14 160.535 81.46C159.915 81.78 159.365 82.22 158.885 82.78C158.405 83.32 158.055 83.95 157.835 84.67V94H154.535V72.1H157.835V81.46C158.435 80.4 159.255 79.57 160.295 78.97C161.335 78.35 162.455 78.04 163.655 78.04C164.635 78.04 165.445 78.21 166.085 78.55C166.725 78.89 167.225 79.36 167.585 79.96C167.965 80.54 168.225 81.22 168.365 82C168.525 82.76 168.605 83.57 168.605 84.43V94ZM181.255 81.16C179.975 81.18 178.835 81.47 177.835 82.03C176.855 82.59 176.155 83.38 175.735 84.4V94H172.435V78.31H175.495V81.82C176.035 80.74 176.745 79.88 177.625 79.24C178.505 78.58 179.435 78.22 180.415 78.16C180.615 78.16 180.775 78.16 180.895 78.16C181.035 78.16 181.155 78.17 181.255 78.19V81.16ZM190.473 94.3C189.253 94.3 188.143 94.09 187.143 93.67C186.163 93.23 185.313 92.64 184.593 91.9C183.873 91.14 183.313 90.28 182.913 89.32C182.533 88.34 182.343 87.3 182.343 86.2C182.343 84.72 182.683 83.37 183.363 82.15C184.043 80.91 184.993 79.92 186.213 79.18C187.433 78.42 188.863 78.04 190.503 78.04C192.143 78.04 193.553 78.42 194.733 79.18C195.933 79.92 196.863 80.9 197.523 82.12C198.183 83.34 198.513 84.65 198.513 86.05C198.513 86.29 198.503 86.52 198.483 86.74C198.463 86.94 198.443 87.11 198.423 87.25H185.853C185.913 88.17 186.163 88.98 186.603 89.68C187.063 90.36 187.643 90.9 188.343 91.3C189.043 91.68 189.793 91.87 190.593 91.87C191.473 91.87 192.303 91.65 193.083 91.21C193.883 90.77 194.423 90.19 194.703 89.47L197.523 90.28C197.183 91.04 196.663 91.73 195.963 92.35C195.283 92.95 194.473 93.43 193.533 93.79C192.593 94.13 191.573 94.3 190.473 94.3ZM185.763 85.06H195.243C195.183 84.16 194.923 83.37 194.463 82.69C194.023 81.99 193.453 81.45 192.753 81.07C192.073 80.67 191.313 80.47 190.473 80.47C189.653 80.47 188.893 80.67 188.193 81.07C187.513 81.45 186.953 81.99 186.513 82.69C186.073 83.37 185.823 84.16 185.763 85.06Z" fill="white"/>
<path d="M38.125 135V117.25H49.85V119.25H40.375V125.175H48.35V127.05H40.375V135H38.125ZM57.3195 135.25C56.3362 135.25 55.4362 135.075 54.6195 134.725C53.8195 134.358 53.1195 133.867 52.5195 133.25C51.9362 132.617 51.4779 131.892 51.1445 131.075C50.8279 130.258 50.6695 129.392 50.6695 128.475C50.6695 127.242 50.9529 126.117 51.5195 125.1C52.0862 124.083 52.8695 123.267 53.8695 122.65C54.8862 122.033 56.0445 121.725 57.3445 121.725C58.6612 121.725 59.8029 122.042 60.7695 122.675C61.7529 123.292 62.5112 124.108 63.0445 125.125C63.5945 126.125 63.8695 127.208 63.8695 128.375C63.8695 128.542 63.8612 128.708 63.8445 128.875C63.8445 129.025 63.8362 129.142 63.8195 129.225H52.9945C53.0612 130.075 53.2945 130.833 53.6945 131.5C54.1112 132.15 54.6445 132.667 55.2945 133.05C55.9445 133.417 56.6445 133.6 57.3945 133.6C58.1945 133.6 58.9445 133.4 59.6445 133C60.3612 132.6 60.8529 132.075 61.1195 131.425L63.0195 131.95C62.7362 132.583 62.3112 133.15 61.7445 133.65C61.1945 134.15 60.5362 134.542 59.7695 134.825C59.0195 135.108 58.2029 135.25 57.3195 135.25ZM52.9195 127.7H61.8195C61.7529 126.85 61.5112 126.1 61.0945 125.45C60.6779 124.8 60.1445 124.292 59.4945 123.925C58.8445 123.558 58.1279 123.375 57.3445 123.375C56.5779 123.375 55.8695 123.558 55.2195 123.925C54.5695 124.292 54.0362 124.8 53.6195 125.45C53.2195 126.1 52.9862 126.85 52.9195 127.7ZM70.79 135.25C69.7067 135.25 68.69 135.075 67.74 134.725C66.79 134.358 65.9734 133.817 65.29 133.1L66.14 131.55C66.89 132.25 67.64 132.75 68.39 133.05C69.14 133.35 69.9067 133.5 70.69 133.5C71.59 133.5 72.3234 133.333 72.89 133C73.4567 132.65 73.74 132.142 73.74 131.475C73.74 130.992 73.59 130.633 73.29 130.4C73.0067 130.167 72.5984 129.975 72.065 129.825C71.5317 129.658 70.8984 129.475 70.165 129.275C69.265 129.008 68.5067 128.725 67.89 128.425C67.2734 128.125 66.8067 127.75 66.49 127.3C66.1734 126.85 66.015 126.283 66.015 125.6C66.015 124.767 66.2317 124.067 66.665 123.5C67.0984 122.917 67.69 122.475 68.44 122.175C69.2067 121.875 70.0734 121.725 71.04 121.725C72.0067 121.725 72.8817 121.875 73.665 122.175C74.4484 122.475 75.1234 122.917 75.69 123.5L74.69 125.025C74.1734 124.492 73.6067 124.1 72.99 123.85C72.3734 123.583 71.6817 123.45 70.915 123.45C70.465 123.45 70.0234 123.508 69.59 123.625C69.1567 123.725 68.7984 123.917 68.515 124.2C68.2317 124.467 68.09 124.85 68.09 125.35C68.09 125.767 68.1984 126.1 68.415 126.35C68.6484 126.583 68.9817 126.783 69.415 126.95C69.865 127.117 70.4067 127.3 71.04 127.5C72.0234 127.783 72.8734 128.067 73.59 128.35C74.3234 128.633 74.89 129 75.29 129.45C75.69 129.9 75.89 130.525 75.89 131.325C75.89 132.558 75.4234 133.525 74.49 134.225C73.5567 134.908 72.3234 135.25 70.79 135.25ZM85.2721 134.35C85.0887 134.433 84.8387 134.542 84.5221 134.675C84.2054 134.808 83.8387 134.925 83.4221 135.025C83.0054 135.125 82.5637 135.175 82.0971 135.175C81.5637 135.175 81.0721 135.083 80.6221 134.9C80.1721 134.7 79.8137 134.4 79.5471 134C79.2804 133.583 79.1471 133.067 79.1471 132.45V123.675H77.3721V121.95H79.1471V117.6H81.3471V121.95H84.2721V123.675H81.3471V131.775C81.3804 132.242 81.5387 132.592 81.8221 132.825C82.1054 133.042 82.4387 133.15 82.8221 133.15C83.2554 133.15 83.6554 133.075 84.0221 132.925C84.3887 132.775 84.6304 132.667 84.7471 132.6L85.2721 134.35ZM98.6361 135H96.4361V127.7C96.4361 126.367 96.1945 125.367 95.7111 124.7C95.2445 124.033 94.5695 123.7 93.6861 123.7C93.1195 123.7 92.5445 123.85 91.9611 124.15C91.3945 124.45 90.8945 124.858 90.4611 125.375C90.0278 125.875 89.7111 126.458 89.5111 127.125V135H87.3111V116.75H89.5111V124.75C90.0278 123.817 90.7278 123.083 91.6111 122.55C92.5111 122 93.4778 121.725 94.5111 121.725C95.2945 121.725 95.9445 121.867 96.4611 122.15C96.9945 122.417 97.4195 122.8 97.7361 123.3C98.0528 123.8 98.2778 124.383 98.4111 125.05C98.5611 125.7 98.6361 126.417 98.6361 127.2V135ZM102.364 138.55C102.581 138.567 102.798 138.583 103.014 138.6C103.231 138.633 103.398 138.65 103.514 138.65C103.781 138.65 104.014 138.558 104.214 138.375C104.414 138.192 104.631 137.833 104.864 137.3C105.114 136.783 105.431 136.017 105.814 135L100.289 121.95H102.614L107.014 132.775L110.989 121.95H113.164L106.814 138.425C106.664 138.808 106.439 139.167 106.139 139.5C105.856 139.85 105.489 140.125 105.039 140.325C104.589 140.525 104.048 140.625 103.414 140.625C103.264 140.625 103.106 140.617 102.939 140.6C102.789 140.583 102.598 140.55 102.364 140.5V138.55ZM122.412 135.25C121.346 135.25 120.396 134.983 119.562 134.45C118.729 133.917 118.071 133.242 117.587 132.425V140.325H115.387V121.95H117.337V124.4C117.854 123.6 118.529 122.958 119.362 122.475C120.196 121.975 121.104 121.725 122.087 121.725C122.987 121.725 123.812 121.908 124.562 122.275C125.312 122.642 125.962 123.142 126.512 123.775C127.062 124.408 127.487 125.133 127.787 125.95C128.104 126.75 128.262 127.592 128.262 128.475C128.262 129.708 128.012 130.842 127.512 131.875C127.029 132.908 126.346 133.733 125.462 134.35C124.579 134.95 123.562 135.25 122.412 135.25ZM121.737 133.35C122.387 133.35 122.971 133.217 123.487 132.95C124.021 132.667 124.471 132.3 124.837 131.85C125.221 131.383 125.512 130.858 125.712 130.275C125.912 129.692 126.012 129.092 126.012 128.475C126.012 127.825 125.896 127.208 125.662 126.625C125.446 126.042 125.129 125.525 124.712 125.075C124.312 124.625 123.837 124.275 123.287 124.025C122.754 123.758 122.171 123.625 121.537 123.625C121.137 123.625 120.721 123.7 120.287 123.85C119.871 124 119.471 124.217 119.087 124.5C118.704 124.767 118.379 125.075 118.112 125.425C117.846 125.775 117.671 126.15 117.587 126.55V130.275C117.837 130.842 118.171 131.358 118.587 131.825C119.004 132.292 119.487 132.667 120.037 132.95C120.587 133.217 121.154 133.35 121.737 133.35ZM136.663 135.25C135.68 135.25 134.788 135.075 133.988 134.725C133.188 134.358 132.497 133.867 131.913 133.25C131.33 132.617 130.88 131.892 130.563 131.075C130.247 130.258 130.088 129.4 130.088 128.5C130.088 127.583 130.247 126.717 130.563 125.9C130.88 125.083 131.33 124.367 131.913 123.75C132.497 123.117 133.188 122.625 133.988 122.275C134.805 121.908 135.697 121.725 136.663 121.725C137.647 121.725 138.538 121.908 139.338 122.275C140.138 122.625 140.83 123.117 141.413 123.75C142.013 124.367 142.472 125.083 142.788 125.9C143.105 126.717 143.263 127.583 143.263 128.5C143.263 129.4 143.105 130.258 142.788 131.075C142.472 131.892 142.022 132.617 141.438 133.25C140.855 133.867 140.155 134.358 139.338 134.725C138.538 135.075 137.647 135.25 136.663 135.25ZM132.338 128.525C132.338 129.425 132.53 130.242 132.913 130.975C133.313 131.708 133.838 132.292 134.488 132.725C135.138 133.142 135.863 133.35 136.663 133.35C137.463 133.35 138.188 133.133 138.838 132.7C139.505 132.267 140.03 131.683 140.413 130.95C140.813 130.2 141.013 129.375 141.013 128.475C141.013 127.575 140.813 126.758 140.413 126.025C140.03 125.292 139.505 124.708 138.838 124.275C138.188 123.842 137.463 123.625 136.663 123.625C135.863 123.625 135.138 123.85 134.488 124.3C133.838 124.733 133.313 125.317 132.913 126.05C132.53 126.783 132.338 127.608 132.338 128.525ZM152.484 134.35C152.301 134.433 152.051 134.542 151.734 134.675C151.417 134.808 151.051 134.925 150.634 135.025C150.217 135.125 149.776 135.175 149.309 135.175C148.776 135.175 148.284 135.083 147.834 134.9C147.384 134.7 147.026 134.4 146.759 134C146.492 133.583 146.359 133.067 146.359 132.45V123.675H144.584V121.95H146.359V117.6H148.559V121.95H151.484V123.675H148.559V131.775C148.592 132.242 148.751 132.592 149.034 132.825C149.317 133.042 149.651 133.15 150.034 133.15C150.467 133.15 150.867 133.075 151.234 132.925C151.601 132.775 151.842 132.667 151.959 132.6L152.484 134.35ZM165.848 135H163.648V127.7C163.648 126.367 163.406 125.367 162.923 124.7C162.456 124.033 161.781 123.7 160.898 123.7C160.331 123.7 159.756 123.85 159.173 124.15C158.606 124.45 158.106 124.858 157.673 125.375C157.24 125.875 156.923 126.458 156.723 127.125V135H154.523V116.75H156.723V124.75C157.24 123.817 157.94 123.083 158.823 122.55C159.723 122 160.69 121.725 161.723 121.725C162.506 121.725 163.156 121.867 163.673 122.15C164.206 122.417 164.631 122.8 164.948 123.3C165.265 123.8 165.49 124.383 165.623 125.05C165.773 125.7 165.848 126.417 165.848 127.2V135ZM175.044 135.25C174.061 135.25 173.161 135.075 172.344 134.725C171.544 134.358 170.844 133.867 170.244 133.25C169.661 132.617 169.202 131.892 168.869 131.075C168.552 130.258 168.394 129.392 168.394 128.475C168.394 127.242 168.677 126.117 169.244 125.1C169.811 124.083 170.594 123.267 171.594 122.65C172.611 122.033 173.769 121.725 175.069 121.725C176.386 121.725 177.527 122.042 178.494 122.675C179.477 123.292 180.236 124.108 180.769 125.125C181.319 126.125 181.594 127.208 181.594 128.375C181.594 128.542 181.586 128.708 181.569 128.875C181.569 129.025 181.561 129.142 181.544 129.225H170.719C170.786 130.075 171.019 130.833 171.419 131.5C171.836 132.15 172.369 132.667 173.019 133.05C173.669 133.417 174.369 133.6 175.119 133.6C175.919 133.6 176.669 133.4 177.369 133C178.086 132.6 178.577 132.075 178.844 131.425L180.744 131.95C180.461 132.583 180.036 133.15 179.469 133.65C178.919 134.15 178.261 134.542 177.494 134.825C176.744 135.108 175.927 135.25 175.044 135.25ZM170.644 127.7H179.544C179.477 126.85 179.236 126.1 178.819 125.45C178.402 124.8 177.869 124.292 177.219 123.925C176.569 123.558 175.852 123.375 175.069 123.375C174.302 123.375 173.594 123.558 172.944 123.925C172.294 124.292 171.761 124.8 171.344 125.45C170.944 126.1 170.711 126.85 170.644 127.7ZM193.24 135L188.715 128.65L186.24 130.975V135H184.04V116.75H186.24V128.675L192.99 121.975H195.365L190.165 127.375L195.615 135H193.24ZM202.814 131.225C202.814 130.392 203.048 129.675 203.514 129.075C203.998 128.458 204.656 127.983 205.489 127.65C206.323 127.317 207.289 127.15 208.389 127.15C208.973 127.15 209.589 127.2 210.239 127.3C210.889 127.383 211.464 127.517 211.964 127.7V126.75C211.964 125.75 211.664 124.967 211.064 124.4C210.464 123.817 209.614 123.525 208.514 123.525C207.798 123.525 207.106 123.658 206.439 123.925C205.789 124.175 205.098 124.542 204.364 125.025L203.564 123.475C204.414 122.892 205.264 122.458 206.114 122.175C206.964 121.875 207.848 121.725 208.764 121.725C210.431 121.725 211.748 122.192 212.714 123.125C213.681 124.042 214.164 125.325 214.164 126.975V132.5C214.164 132.767 214.214 132.967 214.314 133.1C214.431 133.217 214.614 133.283 214.864 133.3V135C214.648 135.033 214.456 135.058 214.289 135.075C214.139 135.092 214.014 135.1 213.914 135.1C213.398 135.1 213.006 134.958 212.739 134.675C212.489 134.392 212.348 134.092 212.314 133.775L212.264 132.95C211.698 133.683 210.956 134.25 210.039 134.65C209.123 135.05 208.214 135.25 207.314 135.25C206.448 135.25 205.673 135.075 204.989 134.725C204.306 134.358 203.773 133.875 203.389 133.275C203.006 132.658 202.814 131.975 202.814 131.225ZM211.314 132.15C211.514 131.917 211.673 131.683 211.789 131.45C211.906 131.2 211.964 130.992 211.964 130.825V129.2C211.448 129 210.906 128.85 210.339 128.75C209.773 128.633 209.214 128.575 208.664 128.575C207.548 128.575 206.639 128.8 205.939 129.25C205.256 129.683 204.914 130.283 204.914 131.05C204.914 131.467 205.023 131.875 205.239 132.275C205.473 132.658 205.806 132.975 206.239 133.225C206.689 133.475 207.239 133.6 207.889 133.6C208.573 133.6 209.223 133.467 209.839 133.2C210.456 132.917 210.948 132.567 211.314 132.15ZM224.382 135.25C223.366 135.25 222.441 135 221.607 134.5C220.774 134 220.116 133.35 219.632 132.55V135H217.682V116.75H219.882V124.55C220.432 123.7 221.107 123.017 221.907 122.5C222.707 121.983 223.641 121.725 224.707 121.725C225.607 121.725 226.416 121.917 227.132 122.3C227.849 122.667 228.457 123.175 228.957 123.825C229.474 124.458 229.866 125.183 230.132 126C230.416 126.8 230.557 127.642 230.557 128.525C230.557 129.442 230.399 130.308 230.082 131.125C229.782 131.925 229.349 132.642 228.782 133.275C228.216 133.892 227.557 134.375 226.807 134.725C226.074 135.075 225.266 135.25 224.382 135.25ZM223.832 133.35C224.482 133.35 225.082 133.217 225.632 132.95C226.182 132.683 226.657 132.325 227.057 131.875C227.457 131.425 227.766 130.908 227.982 130.325C228.199 129.742 228.307 129.142 228.307 128.525C228.307 127.675 228.124 126.875 227.757 126.125C227.407 125.375 226.907 124.775 226.257 124.325C225.624 123.858 224.882 123.625 224.032 123.625C223.416 123.625 222.841 123.767 222.307 124.05C221.774 124.333 221.299 124.708 220.882 125.175C220.482 125.625 220.149 126.125 219.882 126.675V130.45C219.966 130.867 220.141 131.25 220.407 131.6C220.674 131.95 220.999 132.258 221.382 132.525C221.766 132.775 222.166 132.975 222.582 133.125C223.016 133.275 223.432 133.35 223.832 133.35ZM239.907 121.55L241.007 119.925L239.282 119.375L239.607 118.325L241.357 119L241.282 117.15H242.557L242.482 119L244.232 118.325L244.557 119.375L242.832 119.925L243.957 121.55L243.007 122.175L241.932 120.5L240.832 122.175L239.907 121.55Z" fill="white"/>
</svg>
