<svg width="229" height="229" viewBox="0 0 313 313" fill="none" xmlns="http://www.w3.org/2000/svg">
<g filter="url(#filter0_d_698_20742)">
<path d="M297.45 148.461C296.417 157.546 294.065 166.346 290.643 174.825C285.262 188.185 277.779 200.334 268.834 211.557C250.837 234.18 228.921 252.208 204.082 266.779C188.402 275.971 171.937 283.311 154.404 288.298C145.566 290.792 136.586 292.609 127.391 293.464C111.889 294.925 96.7438 293.536 82.204 287.586C68.1275 281.85 56.7594 272.551 47.4938 260.616C38.2996 248.788 31.8849 235.463 27.074 221.354C22.9758 209.348 20.1961 197.021 18.2717 184.516C16.0979 170.443 15.0644 156.263 15.0288 144.328C14.6368 122.096 18.2361 103 26.7889 84.9369C37.9432 61.3871 55.1201 43.3596 77.6069 30.32C92.61 21.5913 108.789 16.0334 125.895 13.1832C135.517 11.5799 145.174 10.7961 154.903 11.0455C187.582 11.865 217.659 21.0212 244.529 39.9038C261.421 51.8033 275.035 66.6956 284.692 85.0438C291.214 97.4065 295.312 110.553 297.058 124.412C298.056 132.5 298.377 140.48 297.45 148.461Z" fill="white"/>
</g>
<path d="M114.5 203.95V210H94.2V203.95H101.3V188.8C101 189.2 100.533 189.617 99.9 190.05C99.2667 190.45 98.55 190.833 97.75 191.2C96.95 191.567 96.15 191.867 95.35 192.1C94.55 192.333 93.8333 192.45 93.2 192.45V186.2C93.8 186.2 94.5167 186.017 95.35 185.65C96.2167 185.25 97.0667 184.783 97.9 184.25C98.7667 183.717 99.5 183.2 100.1 182.7C100.733 182.167 101.133 181.75 101.3 181.45H108.15V203.95H114.5ZM118.607 210V202.8H124.107V210H118.607ZM143.462 186.95H127.312V180.85H154.012L136.412 216.35H128.812L143.462 186.95ZM171.782 186.95H155.632V180.85H182.332L164.732 216.35H157.132L171.782 186.95ZM192.26 189.15C190.726 189.15 189.343 188.817 188.11 188.15C186.876 187.45 185.876 186.533 185.11 185.4C184.376 184.233 184.01 182.95 184.01 181.55C184.01 180.15 184.376 178.883 185.11 177.75C185.876 176.583 186.876 175.667 188.11 175C189.343 174.333 190.726 174 192.26 174C193.793 174 195.176 174.333 196.41 175C197.676 175.667 198.676 176.583 199.41 177.75C200.143 178.883 200.51 180.15 200.51 181.55C200.51 182.95 200.143 184.233 199.41 185.4C198.676 186.533 197.676 187.45 196.41 188.15C195.176 188.817 193.793 189.15 192.26 189.15ZM192.26 185.8C192.926 185.8 193.526 185.6 194.06 185.2C194.593 184.8 195.01 184.283 195.31 183.65C195.643 183.017 195.81 182.333 195.81 181.6C195.81 180.8 195.643 180.083 195.31 179.45C194.976 178.817 194.543 178.317 194.01 177.95C193.476 177.55 192.893 177.35 192.26 177.35C191.593 177.35 190.993 177.55 190.46 177.95C189.926 178.317 189.493 178.817 189.16 179.45C188.86 180.083 188.71 180.783 188.71 181.55C188.71 182.317 188.876 183.033 189.21 183.7C189.543 184.333 189.976 184.85 190.51 185.25C191.043 185.617 191.626 185.8 192.26 185.8ZM211.56 210.5C210.026 210.5 208.643 210.167 207.41 209.5C206.176 208.833 205.176 207.933 204.41 206.8C203.676 205.633 203.31 204.35 203.31 202.95C203.31 201.517 203.676 200.233 204.41 199.1C205.176 197.967 206.176 197.067 207.41 196.4C208.643 195.7 210.026 195.35 211.56 195.35C213.093 195.35 214.476 195.7 215.71 196.4C216.976 197.067 217.976 197.967 218.71 199.1C219.443 200.233 219.81 201.5 219.81 202.9C219.81 204.3 219.443 205.583 218.71 206.75C217.976 207.883 216.976 208.8 215.71 209.5C214.476 210.167 213.093 210.5 211.56 210.5ZM211.56 207.15C212.226 207.15 212.826 206.95 213.36 206.55C213.893 206.15 214.31 205.633 214.61 205C214.943 204.367 215.11 203.683 215.11 202.95C215.11 202.15 214.943 201.433 214.61 200.8C214.31 200.167 213.876 199.667 213.31 199.3C212.776 198.9 212.193 198.7 211.56 198.7C210.926 198.7 210.326 198.9 209.76 199.3C209.226 199.667 208.793 200.183 208.46 200.85C208.16 201.483 208.01 202.167 208.01 202.9C208.01 203.7 208.176 204.417 208.51 205.05C208.843 205.683 209.276 206.2 209.81 206.6C210.343 206.967 210.926 207.15 211.56 207.15ZM186.86 207.65L200.91 191.2L213.91 174.1L216.96 176.8L203.26 193L189.86 210.35L186.86 207.65Z" fill="#34ACE3"/>
<path d="M117.07 97.92C117.91 98.06 118.64 98.38 119.26 98.88C119.9 99.36 120.39 99.98 120.73 100.74C121.07 101.48 121.24 102.32 121.24 103.26C121.24 104.5 120.93 105.58 120.31 106.5C119.71 107.42 118.85 108.13 117.73 108.63C116.61 109.15 115.29 109.41 113.77 109.41C112.25 109.41 110.91 109.14 109.75 108.6C108.59 108.08 107.66 107.32 106.96 106.32L108.97 104.04C109.45 104.76 110.07 105.33 110.83 105.75C111.59 106.19 112.55 106.41 113.71 106.41C115.01 106.41 116.02 106.13 116.74 105.57C117.46 105.01 117.82 104.17 117.82 103.05C117.82 101.89 117.42 100.98 116.62 100.32C115.84 99.66 114.66 99.33 113.08 99.33H112.27V96.75H113.17C114.51 96.75 115.54 96.44 116.26 95.82C116.98 95.18 117.34 94.38 117.34 93.42C117.34 92.78 117.19 92.26 116.89 91.86C116.61 91.44 116.21 91.13 115.69 90.93C115.17 90.73 114.57 90.63 113.89 90.63C112.87 90.63 111.97 90.85 111.19 91.29C110.41 91.73 109.79 92.36 109.33 93.18L107.26 90.93C107.66 90.29 108.21 89.73 108.91 89.25C109.61 88.77 110.41 88.4 111.31 88.14C112.23 87.86 113.2 87.72 114.22 87.72C115.54 87.72 116.7 87.94 117.7 88.38C118.7 88.82 119.47 89.44 120.01 90.24C120.57 91.04 120.85 91.98 120.85 93.06C120.85 93.84 120.7 94.58 120.4 95.28C120.1 95.96 119.66 96.54 119.08 97.02C118.5 97.48 117.83 97.78 117.07 97.92ZM130.167 101.25C130.487 101.49 130.977 101.73 131.637 101.97C132.297 102.19 133.077 102.3 133.977 102.3C134.857 102.3 135.567 102.16 136.107 101.88C136.667 101.58 137.087 101.14 137.367 100.56C137.667 99.96 137.867 99.2 137.967 98.28C138.087 97.36 138.147 96.27 138.147 95.01V83.7H141.537V94.53C141.537 96.11 141.447 97.56 141.267 98.88C141.107 100.2 140.777 101.35 140.277 102.33C139.777 103.29 139.027 104.03 138.027 104.55C137.047 105.07 135.727 105.33 134.067 105.33C133.087 105.33 132.217 105.22 131.457 105C130.697 104.78 129.997 104.45 129.357 104.01L130.167 101.25ZM144.281 100.41C144.281 99.41 144.561 98.54 145.121 97.8C145.701 97.04 146.491 96.46 147.491 96.06C148.491 95.64 149.651 95.43 150.971 95.43C151.671 95.43 152.381 95.48 153.101 95.58C153.841 95.68 154.491 95.84 155.051 96.06V95.07C155.051 93.97 154.721 93.11 154.061 92.49C153.401 91.87 152.451 91.56 151.211 91.56C150.331 91.56 149.501 91.72 148.721 92.04C147.941 92.34 147.111 92.77 146.231 93.33L145.121 91.11C146.161 90.41 147.201 89.89 148.241 89.55C149.301 89.21 150.411 89.04 151.571 89.04C153.671 89.04 155.321 89.6 156.521 90.72C157.741 91.82 158.351 93.39 158.351 95.43V101.28C158.351 101.66 158.411 101.93 158.531 102.09C158.671 102.25 158.901 102.34 159.221 102.36V105C158.921 105.06 158.651 105.1 158.411 105.12C158.171 105.14 157.971 105.15 157.811 105.15C157.111 105.15 156.581 104.98 156.221 104.64C155.861 104.3 155.651 103.9 155.591 103.44L155.501 102.54C154.821 103.42 153.951 104.1 152.891 104.58C151.831 105.06 150.761 105.3 149.681 105.3C148.641 105.3 147.711 105.09 146.891 104.67C146.071 104.23 145.431 103.64 144.971 102.9C144.511 102.16 144.281 101.33 144.281 100.41ZM154.271 101.37C154.511 101.11 154.701 100.85 154.841 100.59C154.981 100.33 155.051 100.1 155.051 99.9V98.1C154.491 97.88 153.901 97.72 153.281 97.62C152.661 97.5 152.051 97.44 151.451 97.44C150.251 97.44 149.271 97.68 148.511 98.16C147.771 98.64 147.401 99.3 147.401 100.14C147.401 100.6 147.521 101.04 147.761 101.46C148.021 101.88 148.381 102.22 148.841 102.48C149.321 102.74 149.911 102.87 150.611 102.87C151.331 102.87 152.021 102.73 152.681 102.45C153.341 102.17 153.871 101.81 154.271 101.37ZM176.425 105H173.125V96.21C173.125 94.79 172.865 93.73 172.345 93.03C171.825 92.33 171.095 91.98 170.155 91.98C169.575 91.98 168.975 92.14 168.355 92.46C167.735 92.78 167.185 93.22 166.705 93.78C166.225 94.32 165.875 94.95 165.655 95.67V105H162.355V83.1H165.655V92.46C166.255 91.4 167.075 90.57 168.115 89.97C169.155 89.35 170.275 89.04 171.475 89.04C172.455 89.04 173.265 89.21 173.905 89.55C174.545 89.89 175.045 90.36 175.405 90.96C175.785 91.54 176.045 92.22 176.185 93C176.345 93.76 176.425 94.57 176.425 95.43V105ZM189.075 92.16C187.795 92.18 186.655 92.47 185.655 93.03C184.675 93.59 183.975 94.38 183.555 95.4V105H180.255V89.31H183.315V92.82C183.855 91.74 184.565 90.88 185.445 90.24C186.325 89.58 187.255 89.22 188.235 89.16C188.435 89.16 188.595 89.16 188.715 89.16C188.855 89.16 188.975 89.17 189.075 89.19V92.16ZM198.293 105.3C197.073 105.3 195.963 105.09 194.963 104.67C193.983 104.23 193.133 103.64 192.413 102.9C191.693 102.14 191.133 101.28 190.733 100.32C190.353 99.34 190.163 98.3 190.163 97.2C190.163 95.72 190.503 94.37 191.183 93.15C191.863 91.91 192.813 90.92 194.033 90.18C195.253 89.42 196.683 89.04 198.323 89.04C199.963 89.04 201.373 89.42 202.553 90.18C203.753 90.92 204.683 91.9 205.343 93.12C206.003 94.34 206.333 95.65 206.333 97.05C206.333 97.29 206.323 97.52 206.303 97.74C206.283 97.94 206.263 98.11 206.243 98.25H193.673C193.733 99.17 193.983 99.98 194.423 100.68C194.883 101.36 195.463 101.9 196.163 102.3C196.863 102.68 197.613 102.87 198.413 102.87C199.293 102.87 200.123 102.65 200.903 102.21C201.703 101.77 202.243 101.19 202.523 100.47L205.343 101.28C205.003 102.04 204.483 102.73 203.783 103.35C203.103 103.95 202.293 104.43 201.353 104.79C200.413 105.13 199.393 105.3 198.293 105.3ZM193.583 96.06H203.063C203.003 95.16 202.743 94.37 202.283 93.69C201.843 92.99 201.273 92.45 200.573 92.07C199.893 91.67 199.133 91.47 198.293 91.47C197.473 91.47 196.713 91.67 196.013 92.07C195.333 92.45 194.773 92.99 194.333 93.69C193.893 94.37 193.643 95.16 193.583 96.06Z" fill="black"/>
<path d="M53.125 146V128.25H64.85V130.25H55.375V136.175H63.35V138.05H55.375V146H53.125ZM72.3195 146.25C71.3362 146.25 70.4362 146.075 69.6195 145.725C68.8195 145.358 68.1195 144.867 67.5195 144.25C66.9362 143.617 66.4779 142.892 66.1445 142.075C65.8279 141.258 65.6695 140.392 65.6695 139.475C65.6695 138.242 65.9529 137.117 66.5195 136.1C67.0862 135.083 67.8695 134.267 68.8695 133.65C69.8862 133.033 71.0445 132.725 72.3445 132.725C73.6612 132.725 74.8029 133.042 75.7695 133.675C76.7529 134.292 77.5112 135.108 78.0445 136.125C78.5945 137.125 78.8695 138.208 78.8695 139.375C78.8695 139.542 78.8612 139.708 78.8445 139.875C78.8445 140.025 78.8362 140.142 78.8195 140.225H67.9945C68.0612 141.075 68.2945 141.833 68.6945 142.5C69.1112 143.15 69.6445 143.667 70.2945 144.05C70.9445 144.417 71.6445 144.6 72.3945 144.6C73.1945 144.6 73.9445 144.4 74.6445 144C75.3612 143.6 75.8529 143.075 76.1195 142.425L78.0195 142.95C77.7362 143.583 77.3112 144.15 76.7445 144.65C76.1945 145.15 75.5362 145.542 74.7695 145.825C74.0195 146.108 73.2029 146.25 72.3195 146.25ZM67.9195 138.7H76.8195C76.7529 137.85 76.5112 137.1 76.0945 136.45C75.6779 135.8 75.1445 135.292 74.4945 134.925C73.8445 134.558 73.1279 134.375 72.3445 134.375C71.5779 134.375 70.8695 134.558 70.2195 134.925C69.5695 135.292 69.0362 135.8 68.6195 136.45C68.2195 137.1 67.9862 137.85 67.9195 138.7ZM85.79 146.25C84.7067 146.25 83.69 146.075 82.74 145.725C81.79 145.358 80.9734 144.817 80.29 144.1L81.14 142.55C81.89 143.25 82.64 143.75 83.39 144.05C84.14 144.35 84.9067 144.5 85.69 144.5C86.59 144.5 87.3234 144.333 87.89 144C88.4567 143.65 88.74 143.142 88.74 142.475C88.74 141.992 88.59 141.633 88.29 141.4C88.0067 141.167 87.5984 140.975 87.065 140.825C86.5317 140.658 85.8984 140.475 85.165 140.275C84.265 140.008 83.5067 139.725 82.89 139.425C82.2734 139.125 81.8067 138.75 81.49 138.3C81.1734 137.85 81.015 137.283 81.015 136.6C81.015 135.767 81.2317 135.067 81.665 134.5C82.0984 133.917 82.69 133.475 83.44 133.175C84.2067 132.875 85.0734 132.725 86.04 132.725C87.0067 132.725 87.8817 132.875 88.665 133.175C89.4484 133.475 90.1234 133.917 90.69 134.5L89.69 136.025C89.1734 135.492 88.6067 135.1 87.99 134.85C87.3734 134.583 86.6817 134.45 85.915 134.45C85.465 134.45 85.0234 134.508 84.59 134.625C84.1567 134.725 83.7984 134.917 83.515 135.2C83.2317 135.467 83.09 135.85 83.09 136.35C83.09 136.767 83.1984 137.1 83.415 137.35C83.6484 137.583 83.9817 137.783 84.415 137.95C84.865 138.117 85.4067 138.3 86.04 138.5C87.0234 138.783 87.8734 139.067 88.59 139.35C89.3234 139.633 89.89 140 90.29 140.45C90.69 140.9 90.89 141.525 90.89 142.325C90.89 143.558 90.4234 144.525 89.49 145.225C88.5567 145.908 87.3234 146.25 85.79 146.25ZM100.272 145.35C100.089 145.433 99.8387 145.542 99.5221 145.675C99.2054 145.808 98.8387 145.925 98.4221 146.025C98.0054 146.125 97.5637 146.175 97.0971 146.175C96.5637 146.175 96.0721 146.083 95.6221 145.9C95.1721 145.7 94.8137 145.4 94.5471 145C94.2804 144.583 94.1471 144.067 94.1471 143.45V134.675H92.3721V132.95H94.1471V128.6H96.3471V132.95H99.2721V134.675H96.3471V142.775C96.3804 143.242 96.5387 143.592 96.8221 143.825C97.1054 144.042 97.4387 144.15 97.8221 144.15C98.2554 144.15 98.6554 144.075 99.0221 143.925C99.3887 143.775 99.6304 143.667 99.7471 143.6L100.272 145.35ZM113.636 146H111.436V138.7C111.436 137.367 111.194 136.367 110.711 135.7C110.244 135.033 109.569 134.7 108.686 134.7C108.119 134.7 107.544 134.85 106.961 135.15C106.394 135.45 105.894 135.858 105.461 136.375C105.028 136.875 104.711 137.458 104.511 138.125V146H102.311V127.75H104.511V135.75C105.028 134.817 105.728 134.083 106.611 133.55C107.511 133 108.478 132.725 109.511 132.725C110.294 132.725 110.944 132.867 111.461 133.15C111.994 133.417 112.419 133.8 112.736 134.3C113.053 134.8 113.278 135.383 113.411 136.05C113.561 136.7 113.636 137.417 113.636 138.2V146ZM117.364 149.55C117.581 149.567 117.798 149.583 118.014 149.6C118.231 149.633 118.398 149.65 118.514 149.65C118.781 149.65 119.014 149.558 119.214 149.375C119.414 149.192 119.631 148.833 119.864 148.3C120.114 147.783 120.431 147.017 120.814 146L115.289 132.95H117.614L122.014 143.775L125.989 132.95H128.164L121.814 149.425C121.664 149.808 121.439 150.167 121.139 150.5C120.856 150.85 120.489 151.125 120.039 151.325C119.589 151.525 119.048 151.625 118.414 151.625C118.264 151.625 118.106 151.617 117.939 151.6C117.789 151.583 117.598 151.55 117.364 151.5V149.55ZM137.412 146.25C136.346 146.25 135.396 145.983 134.562 145.45C133.729 144.917 133.071 144.242 132.587 143.425V151.325H130.387V132.95H132.337V135.4C132.854 134.6 133.529 133.958 134.362 133.475C135.196 132.975 136.104 132.725 137.087 132.725C137.987 132.725 138.812 132.908 139.562 133.275C140.312 133.642 140.962 134.142 141.512 134.775C142.062 135.408 142.487 136.133 142.787 136.95C143.104 137.75 143.262 138.592 143.262 139.475C143.262 140.708 143.012 141.842 142.512 142.875C142.029 143.908 141.346 144.733 140.462 145.35C139.579 145.95 138.562 146.25 137.412 146.25ZM136.737 144.35C137.387 144.35 137.971 144.217 138.487 143.95C139.021 143.667 139.471 143.3 139.837 142.85C140.221 142.383 140.512 141.858 140.712 141.275C140.912 140.692 141.012 140.092 141.012 139.475C141.012 138.825 140.896 138.208 140.662 137.625C140.446 137.042 140.129 136.525 139.712 136.075C139.312 135.625 138.837 135.275 138.287 135.025C137.754 134.758 137.171 134.625 136.537 134.625C136.137 134.625 135.721 134.7 135.287 134.85C134.871 135 134.471 135.217 134.087 135.5C133.704 135.767 133.379 136.075 133.112 136.425C132.846 136.775 132.671 137.15 132.587 137.55V141.275C132.837 141.842 133.171 142.358 133.587 142.825C134.004 143.292 134.487 143.667 135.037 143.95C135.587 144.217 136.154 144.35 136.737 144.35ZM151.663 146.25C150.68 146.25 149.788 146.075 148.988 145.725C148.188 145.358 147.497 144.867 146.913 144.25C146.33 143.617 145.88 142.892 145.563 142.075C145.247 141.258 145.088 140.4 145.088 139.5C145.088 138.583 145.247 137.717 145.563 136.9C145.88 136.083 146.33 135.367 146.913 134.75C147.497 134.117 148.188 133.625 148.988 133.275C149.805 132.908 150.697 132.725 151.663 132.725C152.647 132.725 153.538 132.908 154.338 133.275C155.138 133.625 155.83 134.117 156.413 134.75C157.013 135.367 157.472 136.083 157.788 136.9C158.105 137.717 158.263 138.583 158.263 139.5C158.263 140.4 158.105 141.258 157.788 142.075C157.472 142.892 157.022 143.617 156.438 144.25C155.855 144.867 155.155 145.358 154.338 145.725C153.538 146.075 152.647 146.25 151.663 146.25ZM147.338 139.525C147.338 140.425 147.53 141.242 147.913 141.975C148.313 142.708 148.838 143.292 149.488 143.725C150.138 144.142 150.863 144.35 151.663 144.35C152.463 144.35 153.188 144.133 153.838 143.7C154.505 143.267 155.03 142.683 155.413 141.95C155.813 141.2 156.013 140.375 156.013 139.475C156.013 138.575 155.813 137.758 155.413 137.025C155.03 136.292 154.505 135.708 153.838 135.275C153.188 134.842 152.463 134.625 151.663 134.625C150.863 134.625 150.138 134.85 149.488 135.3C148.838 135.733 148.313 136.317 147.913 137.05C147.53 137.783 147.338 138.608 147.338 139.525ZM167.484 145.35C167.301 145.433 167.051 145.542 166.734 145.675C166.417 145.808 166.051 145.925 165.634 146.025C165.217 146.125 164.776 146.175 164.309 146.175C163.776 146.175 163.284 146.083 162.834 145.9C162.384 145.7 162.026 145.4 161.759 145C161.492 144.583 161.359 144.067 161.359 143.45V134.675H159.584V132.95H161.359V128.6H163.559V132.95H166.484V134.675H163.559V142.775C163.592 143.242 163.751 143.592 164.034 143.825C164.317 144.042 164.651 144.15 165.034 144.15C165.467 144.15 165.867 144.075 166.234 143.925C166.601 143.775 166.842 143.667 166.959 143.6L167.484 145.35ZM180.848 146H178.648V138.7C178.648 137.367 178.406 136.367 177.923 135.7C177.456 135.033 176.781 134.7 175.898 134.7C175.331 134.7 174.756 134.85 174.173 135.15C173.606 135.45 173.106 135.858 172.673 136.375C172.24 136.875 171.923 137.458 171.723 138.125V146H169.523V127.75H171.723V135.75C172.24 134.817 172.94 134.083 173.823 133.55C174.723 133 175.69 132.725 176.723 132.725C177.506 132.725 178.156 132.867 178.673 133.15C179.206 133.417 179.631 133.8 179.948 134.3C180.265 134.8 180.49 135.383 180.623 136.05C180.773 136.7 180.848 137.417 180.848 138.2V146ZM190.044 146.25C189.061 146.25 188.161 146.075 187.344 145.725C186.544 145.358 185.844 144.867 185.244 144.25C184.661 143.617 184.202 142.892 183.869 142.075C183.552 141.258 183.394 140.392 183.394 139.475C183.394 138.242 183.677 137.117 184.244 136.1C184.811 135.083 185.594 134.267 186.594 133.65C187.611 133.033 188.769 132.725 190.069 132.725C191.386 132.725 192.527 133.042 193.494 133.675C194.477 134.292 195.236 135.108 195.769 136.125C196.319 137.125 196.594 138.208 196.594 139.375C196.594 139.542 196.586 139.708 196.569 139.875C196.569 140.025 196.561 140.142 196.544 140.225H185.719C185.786 141.075 186.019 141.833 186.419 142.5C186.836 143.15 187.369 143.667 188.019 144.05C188.669 144.417 189.369 144.6 190.119 144.6C190.919 144.6 191.669 144.4 192.369 144C193.086 143.6 193.577 143.075 193.844 142.425L195.744 142.95C195.461 143.583 195.036 144.15 194.469 144.65C193.919 145.15 193.261 145.542 192.494 145.825C191.744 146.108 190.927 146.25 190.044 146.25ZM185.644 138.7H194.544C194.477 137.85 194.236 137.1 193.819 136.45C193.402 135.8 192.869 135.292 192.219 134.925C191.569 134.558 190.852 134.375 190.069 134.375C189.302 134.375 188.594 134.558 187.944 134.925C187.294 135.292 186.761 135.8 186.344 136.45C185.944 137.1 185.711 137.85 185.644 138.7ZM208.24 146L203.715 139.65L201.24 141.975V146H199.04V127.75H201.24V139.675L207.99 132.975H210.365L205.165 138.375L210.615 146H208.24ZM217.814 142.225C217.814 141.392 218.048 140.675 218.514 140.075C218.998 139.458 219.656 138.983 220.489 138.65C221.323 138.317 222.289 138.15 223.389 138.15C223.973 138.15 224.589 138.2 225.239 138.3C225.889 138.383 226.464 138.517 226.964 138.7V137.75C226.964 136.75 226.664 135.967 226.064 135.4C225.464 134.817 224.614 134.525 223.514 134.525C222.798 134.525 222.106 134.658 221.439 134.925C220.789 135.175 220.098 135.542 219.364 136.025L218.564 134.475C219.414 133.892 220.264 133.458 221.114 133.175C221.964 132.875 222.848 132.725 223.764 132.725C225.431 132.725 226.748 133.192 227.714 134.125C228.681 135.042 229.164 136.325 229.164 137.975V143.5C229.164 143.767 229.214 143.967 229.314 144.1C229.431 144.217 229.614 144.283 229.864 144.3V146C229.648 146.033 229.456 146.058 229.289 146.075C229.139 146.092 229.014 146.1 228.914 146.1C228.398 146.1 228.006 145.958 227.739 145.675C227.489 145.392 227.348 145.092 227.314 144.775L227.264 143.95C226.698 144.683 225.956 145.25 225.039 145.65C224.123 146.05 223.214 146.25 222.314 146.25C221.448 146.25 220.673 146.075 219.989 145.725C219.306 145.358 218.773 144.875 218.389 144.275C218.006 143.658 217.814 142.975 217.814 142.225ZM226.314 143.15C226.514 142.917 226.673 142.683 226.789 142.45C226.906 142.2 226.964 141.992 226.964 141.825V140.2C226.448 140 225.906 139.85 225.339 139.75C224.773 139.633 224.214 139.575 223.664 139.575C222.548 139.575 221.639 139.8 220.939 140.25C220.256 140.683 219.914 141.283 219.914 142.05C219.914 142.467 220.023 142.875 220.239 143.275C220.473 143.658 220.806 143.975 221.239 144.225C221.689 144.475 222.239 144.6 222.889 144.6C223.573 144.6 224.223 144.467 224.839 144.2C225.456 143.917 225.948 143.567 226.314 143.15ZM239.382 146.25C238.366 146.25 237.441 146 236.607 145.5C235.774 145 235.116 144.35 234.632 143.55V146H232.682V127.75H234.882V135.55C235.432 134.7 236.107 134.017 236.907 133.5C237.707 132.983 238.641 132.725 239.707 132.725C240.607 132.725 241.416 132.917 242.132 133.3C242.849 133.667 243.457 134.175 243.957 134.825C244.474 135.458 244.866 136.183 245.132 137C245.416 137.8 245.557 138.642 245.557 139.525C245.557 140.442 245.399 141.308 245.082 142.125C244.782 142.925 244.349 143.642 243.782 144.275C243.216 144.892 242.557 145.375 241.807 145.725C241.074 146.075 240.266 146.25 239.382 146.25ZM238.832 144.35C239.482 144.35 240.082 144.217 240.632 143.95C241.182 143.683 241.657 143.325 242.057 142.875C242.457 142.425 242.766 141.908 242.982 141.325C243.199 140.742 243.307 140.142 243.307 139.525C243.307 138.675 243.124 137.875 242.757 137.125C242.407 136.375 241.907 135.775 241.257 135.325C240.624 134.858 239.882 134.625 239.032 134.625C238.416 134.625 237.841 134.767 237.307 135.05C236.774 135.333 236.299 135.708 235.882 136.175C235.482 136.625 235.149 137.125 234.882 137.675V141.45C234.966 141.867 235.141 142.25 235.407 142.6C235.674 142.95 235.999 143.258 236.382 143.525C236.766 143.775 237.166 143.975 237.582 144.125C238.016 144.275 238.432 144.35 238.832 144.35ZM254.907 132.55L256.007 130.925L254.282 130.375L254.607 129.325L256.357 130L256.282 128.15H257.557L257.482 130L259.232 129.325L259.557 130.375L257.832 130.925L258.957 132.55L258.007 133.175L256.932 131.5L255.832 133.175L254.907 132.55Z" fill="black"/>
<defs>
<filter id="filter0_d_698_20742" x="0" y="0" width="313" height="313" filterUnits="userSpaceOnUse" color-interpolation-filters="sRGB">
<feFlood flood-opacity="0" result="BackgroundImageFix"/>
<feColorMatrix in="SourceAlpha" type="matrix" values="0 0 0 0 0 0 0 0 0 0 0 0 0 0 0 0 0 0 127 0" result="hardAlpha"/>
<feOffset dy="4"/>
<feGaussianBlur stdDeviation="7.5"/>
<feComposite in2="hardAlpha" operator="out"/>
<feColorMatrix type="matrix" values="0 0 0 0 0.595833 0 0 0 0 0.595833 0 0 0 0 0.595833 0 0 0 0.25 0"/>
<feBlend mode="normal" in2="BackgroundImageFix" result="effect1_dropShadow_698_20742"/>
<feBlend mode="normal" in="SourceGraphic" in2="effect1_dropShadow_698_20742" result="shape"/>
</filter>
</defs>
</svg>
