<svg width="229" height="229"  viewBox="0 0 283 283" fill="none" xmlns="http://www.w3.org/2000/svg">
<path d="M282.45 137.461C281.417 146.546 279.065 155.346 275.643 163.825C270.262 177.185 262.779 189.334 253.834 200.557C235.837 223.18 213.921 241.208 189.082 255.779C173.402 264.971 156.937 272.311 139.404 277.298C130.566 279.792 121.586 281.609 112.391 282.464C96.8895 283.925 81.7438 282.536 67.204 276.586C53.1275 270.85 41.7594 261.551 32.4938 249.616C23.2996 237.788 16.8849 224.463 12.074 210.354C7.97576 198.348 5.19609 186.021 3.27171 173.516C1.09787 159.443 0.0643991 145.263 0.0287624 133.328C-0.363242 111.096 3.23607 92 11.7889 73.9369C22.9432 50.3871 40.1201 32.3596 62.6069 19.32C77.61 10.5913 93.7891 5.03338 110.895 2.18318C120.517 0.579944 130.174 -0.203861 139.903 0.0455316C172.582 0.864963 202.659 10.0212 229.529 28.9038C246.421 40.8033 260.035 55.6956 269.692 74.0438C276.214 86.4065 280.312 99.553 282.058 113.412C283.056 121.5 283.377 129.48 282.45 137.461Z" fill="#333436"/>
<path d="M98.5 192.95V199H78.2V192.95H85.3V177.8C85 178.2 84.5333 178.617 83.9 179.05C83.2667 179.45 82.55 179.833 81.75 180.2C80.95 180.567 80.15 180.867 79.35 181.1C78.55 181.333 77.8333 181.45 77.2 181.45V175.2C77.8 175.2 78.5167 175.017 79.35 174.65C80.2167 174.25 81.0667 173.783 81.9 173.25C82.7667 172.717 83.5 172.2 84.1 171.7C84.7333 171.167 85.1333 170.75 85.3 170.45H92.15V192.95H98.5ZM102.607 199V191.8H108.107V199H102.607ZM112.538 182.8C112.538 185.033 113.071 187.05 114.138 188.85C115.238 190.617 116.721 192.033 118.588 193.1C120.488 194.133 122.588 194.65 124.888 194.65C126.021 194.65 127.054 194.5 127.988 194.2C128.954 193.867 129.804 193.4 130.538 192.8C131.304 192.2 131.904 191.517 132.338 190.75C132.304 192.883 131.971 194.717 131.338 196.25C130.738 197.75 129.888 198.9 128.788 199.7C127.721 200.5 126.438 200.9 124.938 200.9C123.471 200.9 122.088 200.533 120.788 199.8C119.521 199.1 118.488 198.133 117.688 196.9L113.838 201.1C115.138 202.9 116.738 204.283 118.638 205.25C120.538 206.217 122.604 206.7 124.838 206.7C127.638 206.7 130.071 205.933 132.138 204.4C134.204 202.867 135.788 200.617 136.888 197.65C138.021 194.683 138.588 191.05 138.588 186.75C138.588 183.317 138.054 180.4 136.988 178C135.921 175.567 134.404 173.7 132.438 172.4C130.504 171.1 128.188 170.45 125.488 170.45C123.054 170.45 120.854 171 118.888 172.1C116.921 173.2 115.371 174.683 114.237 176.55C113.104 178.417 112.538 180.5 112.538 182.8ZM125.488 176.1C126.654 176.1 127.738 176.417 128.738 177.05C129.738 177.65 130.538 178.467 131.138 179.5C131.738 180.5 132.038 181.6 132.038 182.8C132.038 184 131.738 185.1 131.138 186.1C130.538 187.067 129.738 187.85 128.738 188.45C127.771 189.017 126.688 189.3 125.488 189.3C124.288 189.3 123.188 189.017 122.188 188.45C121.188 187.85 120.388 187.067 119.788 186.1C119.221 185.1 118.938 184 118.938 182.8C118.938 181.567 119.238 180.45 119.838 179.45C120.438 178.45 121.238 177.65 122.238 177.05C123.238 176.417 124.321 176.1 125.488 176.1ZM155.981 205.35V197.9H141.381V191.95L158.131 170.45H162.681V191.9H167.081V197.9H162.681V205.35H155.981ZM148.081 191.9H156.731V180.6L148.081 191.9ZM178.945 178.15C177.412 178.15 176.029 177.817 174.795 177.15C173.562 176.45 172.562 175.533 171.795 174.4C171.062 173.233 170.695 171.95 170.695 170.55C170.695 169.15 171.062 167.883 171.795 166.75C172.562 165.583 173.562 164.667 174.795 164C176.029 163.333 177.412 163 178.945 163C180.479 163 181.862 163.333 183.095 164C184.362 164.667 185.362 165.583 186.095 166.75C186.829 167.883 187.195 169.15 187.195 170.55C187.195 171.95 186.829 173.233 186.095 174.4C185.362 175.533 184.362 176.45 183.095 177.15C181.862 177.817 180.479 178.15 178.945 178.15ZM178.945 174.8C179.612 174.8 180.212 174.6 180.745 174.2C181.279 173.8 181.695 173.283 181.995 172.65C182.329 172.017 182.495 171.333 182.495 170.6C182.495 169.8 182.329 169.083 181.995 168.45C181.662 167.817 181.229 167.317 180.695 166.95C180.162 166.55 179.579 166.35 178.945 166.35C178.279 166.35 177.679 166.55 177.145 166.95C176.612 167.317 176.179 167.817 175.845 168.45C175.545 169.083 175.395 169.783 175.395 170.55C175.395 171.317 175.562 172.033 175.895 172.7C176.229 173.333 176.662 173.85 177.195 174.25C177.729 174.617 178.312 174.8 178.945 174.8ZM198.245 199.5C196.712 199.5 195.329 199.167 194.095 198.5C192.862 197.833 191.862 196.933 191.095 195.8C190.362 194.633 189.995 193.35 189.995 191.95C189.995 190.517 190.362 189.233 191.095 188.1C191.862 186.967 192.862 186.067 194.095 185.4C195.329 184.7 196.712 184.35 198.245 184.35C199.779 184.35 201.162 184.7 202.395 185.4C203.662 186.067 204.662 186.967 205.395 188.1C206.129 189.233 206.495 190.5 206.495 191.9C206.495 193.3 206.129 194.583 205.395 195.75C204.662 196.883 203.662 197.8 202.395 198.5C201.162 199.167 199.779 199.5 198.245 199.5ZM198.245 196.15C198.912 196.15 199.512 195.95 200.045 195.55C200.579 195.15 200.995 194.633 201.295 194C201.629 193.367 201.795 192.683 201.795 191.95C201.795 191.15 201.629 190.433 201.295 189.8C200.995 189.167 200.562 188.667 199.995 188.3C199.462 187.9 198.879 187.7 198.245 187.7C197.612 187.7 197.012 187.9 196.445 188.3C195.912 188.667 195.479 189.183 195.145 189.85C194.845 190.483 194.695 191.167 194.695 191.9C194.695 192.7 194.862 193.417 195.195 194.05C195.529 194.683 195.962 195.2 196.495 195.6C197.029 195.967 197.612 196.15 198.245 196.15ZM173.545 196.65L187.595 180.2L200.595 163.1L203.645 165.8L189.945 182L176.545 199.35L173.545 196.65Z" fill="#34ACE3"/>
<path d="M98.86 98.47C97.32 98.47 95.94 98.12 94.72 97.42C93.5 96.74 92.57 95.81 91.93 94.63L93.91 92.74C94.47 93.6 95.19 94.28 96.07 94.78C96.95 95.3 97.89 95.56 98.89 95.56C99.71 95.56 100.44 95.38 101.08 95.02C101.72 94.68 102.22 94.2 102.58 93.58C102.96 92.94 103.15 92.21 103.15 91.39C103.15 90.59 102.97 89.89 102.61 89.29C102.25 88.67 101.77 88.2 101.17 87.88C100.57 87.54 99.88 87.37 99.1 87.37C98.34 87.37 97.63 87.54 96.97 87.88C96.31 88.22 95.77 88.7 95.35 89.32H92.44L94.87 76.87H105.28V79.9H97.27L96.19 85.72C96.53 85.36 96.99 85.07 97.57 84.85C98.15 84.61 98.81 84.49 99.55 84.49C100.89 84.49 102.08 84.79 103.12 85.39C104.18 85.97 105.01 86.77 105.61 87.79C106.23 88.81 106.54 89.99 106.54 91.33C106.54 92.75 106.2 93.99 105.52 95.05C104.84 96.13 103.92 96.97 102.76 97.57C101.6 98.17 100.3 98.47 98.86 98.47ZM115.225 90.25C115.545 90.49 116.035 90.73 116.695 90.97C117.355 91.19 118.135 91.3 119.035 91.3C119.915 91.3 120.625 91.16 121.165 90.88C121.725 90.58 122.145 90.14 122.425 89.56C122.725 88.96 122.925 88.2 123.025 87.28C123.145 86.36 123.205 85.27 123.205 84.01V72.7H126.595V83.53C126.595 85.11 126.505 86.56 126.325 87.88C126.165 89.2 125.835 90.35 125.335 91.33C124.835 92.29 124.085 93.03 123.085 93.55C122.105 94.07 120.785 94.33 119.125 94.33C118.145 94.33 117.275 94.22 116.515 94C115.755 93.78 115.055 93.45 114.415 93.01L115.225 90.25ZM129.34 89.41C129.34 88.41 129.62 87.54 130.18 86.8C130.76 86.04 131.55 85.46 132.55 85.06C133.55 84.64 134.71 84.43 136.03 84.43C136.73 84.43 137.44 84.48 138.16 84.58C138.9 84.68 139.55 84.84 140.11 85.06V84.07C140.11 82.97 139.78 82.11 139.12 81.49C138.46 80.87 137.51 80.56 136.27 80.56C135.39 80.56 134.56 80.72 133.78 81.04C133 81.34 132.17 81.77 131.29 82.33L130.18 80.11C131.22 79.41 132.26 78.89 133.3 78.55C134.36 78.21 135.47 78.04 136.63 78.04C138.73 78.04 140.38 78.6 141.58 79.72C142.8 80.82 143.41 82.39 143.41 84.43V90.28C143.41 90.66 143.47 90.93 143.59 91.09C143.73 91.25 143.96 91.34 144.28 91.36V94C143.98 94.06 143.71 94.1 143.47 94.12C143.23 94.14 143.03 94.15 142.87 94.15C142.17 94.15 141.64 93.98 141.28 93.64C140.92 93.3 140.71 92.9 140.65 92.44L140.56 91.54C139.88 92.42 139.01 93.1 137.95 93.58C136.89 94.06 135.82 94.3 134.74 94.3C133.7 94.3 132.77 94.09 131.95 93.67C131.13 93.23 130.49 92.64 130.03 91.9C129.57 91.16 129.34 90.33 129.34 89.41ZM139.33 90.37C139.57 90.11 139.76 89.85 139.9 89.59C140.04 89.33 140.11 89.1 140.11 88.9V87.1C139.55 86.88 138.96 86.72 138.34 86.62C137.72 86.5 137.11 86.44 136.51 86.44C135.31 86.44 134.33 86.68 133.57 87.16C132.83 87.64 132.46 88.3 132.46 89.14C132.46 89.6 132.58 90.04 132.82 90.46C133.08 90.88 133.44 91.22 133.9 91.48C134.38 91.74 134.97 91.87 135.67 91.87C136.39 91.87 137.08 91.73 137.74 91.45C138.4 91.17 138.93 90.81 139.33 90.37ZM161.484 94H158.184V85.21C158.184 83.79 157.924 82.73 157.404 82.03C156.884 81.33 156.154 80.98 155.214 80.98C154.634 80.98 154.034 81.14 153.414 81.46C152.794 81.78 152.244 82.22 151.764 82.78C151.284 83.32 150.934 83.95 150.714 84.67V94H147.414V72.1H150.714V81.46C151.314 80.4 152.134 79.57 153.174 78.97C154.214 78.35 155.334 78.04 156.534 78.04C157.514 78.04 158.324 78.21 158.964 78.55C159.604 78.89 160.104 79.36 160.464 79.96C160.844 80.54 161.104 81.22 161.244 82C161.404 82.76 161.484 83.57 161.484 84.43V94ZM174.134 81.16C172.854 81.18 171.714 81.47 170.714 82.03C169.734 82.59 169.034 83.38 168.614 84.4V94H165.314V78.31H168.374V81.82C168.914 80.74 169.624 79.88 170.504 79.24C171.384 78.58 172.314 78.22 173.294 78.16C173.494 78.16 173.654 78.16 173.774 78.16C173.914 78.16 174.034 78.17 174.134 78.19V81.16ZM183.352 94.3C182.132 94.3 181.022 94.09 180.022 93.67C179.042 93.23 178.192 92.64 177.472 91.9C176.752 91.14 176.192 90.28 175.792 89.32C175.412 88.34 175.222 87.3 175.222 86.2C175.222 84.72 175.562 83.37 176.242 82.15C176.922 80.91 177.872 79.92 179.092 79.18C180.312 78.42 181.742 78.04 183.382 78.04C185.022 78.04 186.432 78.42 187.612 79.18C188.812 79.92 189.742 80.9 190.402 82.12C191.062 83.34 191.392 84.65 191.392 86.05C191.392 86.29 191.382 86.52 191.362 86.74C191.342 86.94 191.322 87.11 191.302 87.25H178.732C178.792 88.17 179.042 88.98 179.482 89.68C179.942 90.36 180.522 90.9 181.222 91.3C181.922 91.68 182.672 91.87 183.472 91.87C184.352 91.87 185.182 91.65 185.962 91.21C186.762 90.77 187.302 90.19 187.582 89.47L190.402 90.28C190.062 91.04 189.542 91.73 188.842 92.35C188.162 92.95 187.352 93.43 186.412 93.79C185.472 94.13 184.452 94.3 183.352 94.3ZM178.642 85.06H188.122C188.062 84.16 187.802 83.37 187.342 82.69C186.902 81.99 186.332 81.45 185.632 81.07C184.952 80.67 184.192 80.47 183.352 80.47C182.532 80.47 181.772 80.67 181.072 81.07C180.392 81.45 179.832 81.99 179.392 82.69C178.952 83.37 178.702 84.16 178.642 85.06Z" fill="white"/>
<path d="M38.125 135V117.25H49.85V119.25H40.375V125.175H48.35V127.05H40.375V135H38.125ZM57.3195 135.25C56.3362 135.25 55.4362 135.075 54.6195 134.725C53.8195 134.358 53.1195 133.867 52.5195 133.25C51.9362 132.617 51.4779 131.892 51.1445 131.075C50.8279 130.258 50.6695 129.392 50.6695 128.475C50.6695 127.242 50.9529 126.117 51.5195 125.1C52.0862 124.083 52.8695 123.267 53.8695 122.65C54.8862 122.033 56.0445 121.725 57.3445 121.725C58.6612 121.725 59.8029 122.042 60.7695 122.675C61.7529 123.292 62.5112 124.108 63.0445 125.125C63.5945 126.125 63.8695 127.208 63.8695 128.375C63.8695 128.542 63.8612 128.708 63.8445 128.875C63.8445 129.025 63.8362 129.142 63.8195 129.225H52.9945C53.0612 130.075 53.2945 130.833 53.6945 131.5C54.1112 132.15 54.6445 132.667 55.2945 133.05C55.9445 133.417 56.6445 133.6 57.3945 133.6C58.1945 133.6 58.9445 133.4 59.6445 133C60.3612 132.6 60.8529 132.075 61.1195 131.425L63.0195 131.95C62.7362 132.583 62.3112 133.15 61.7445 133.65C61.1945 134.15 60.5362 134.542 59.7695 134.825C59.0195 135.108 58.2029 135.25 57.3195 135.25ZM52.9195 127.7H61.8195C61.7529 126.85 61.5112 126.1 61.0945 125.45C60.6779 124.8 60.1445 124.292 59.4945 123.925C58.8445 123.558 58.1279 123.375 57.3445 123.375C56.5779 123.375 55.8695 123.558 55.2195 123.925C54.5695 124.292 54.0362 124.8 53.6195 125.45C53.2195 126.1 52.9862 126.85 52.9195 127.7ZM70.79 135.25C69.7067 135.25 68.69 135.075 67.74 134.725C66.79 134.358 65.9734 133.817 65.29 133.1L66.14 131.55C66.89 132.25 67.64 132.75 68.39 133.05C69.14 133.35 69.9067 133.5 70.69 133.5C71.59 133.5 72.3234 133.333 72.89 133C73.4567 132.65 73.74 132.142 73.74 131.475C73.74 130.992 73.59 130.633 73.29 130.4C73.0067 130.167 72.5984 129.975 72.065 129.825C71.5317 129.658 70.8984 129.475 70.165 129.275C69.265 129.008 68.5067 128.725 67.89 128.425C67.2734 128.125 66.8067 127.75 66.49 127.3C66.1734 126.85 66.015 126.283 66.015 125.6C66.015 124.767 66.2317 124.067 66.665 123.5C67.0984 122.917 67.69 122.475 68.44 122.175C69.2067 121.875 70.0734 121.725 71.04 121.725C72.0067 121.725 72.8817 121.875 73.665 122.175C74.4484 122.475 75.1234 122.917 75.69 123.5L74.69 125.025C74.1734 124.492 73.6067 124.1 72.99 123.85C72.3734 123.583 71.6817 123.45 70.915 123.45C70.465 123.45 70.0234 123.508 69.59 123.625C69.1567 123.725 68.7984 123.917 68.515 124.2C68.2317 124.467 68.09 124.85 68.09 125.35C68.09 125.767 68.1984 126.1 68.415 126.35C68.6484 126.583 68.9817 126.783 69.415 126.95C69.865 127.117 70.4067 127.3 71.04 127.5C72.0234 127.783 72.8734 128.067 73.59 128.35C74.3234 128.633 74.89 129 75.29 129.45C75.69 129.9 75.89 130.525 75.89 131.325C75.89 132.558 75.4234 133.525 74.49 134.225C73.5567 134.908 72.3234 135.25 70.79 135.25ZM85.2721 134.35C85.0887 134.433 84.8387 134.542 84.5221 134.675C84.2054 134.808 83.8387 134.925 83.4221 135.025C83.0054 135.125 82.5637 135.175 82.0971 135.175C81.5637 135.175 81.0721 135.083 80.6221 134.9C80.1721 134.7 79.8137 134.4 79.5471 134C79.2804 133.583 79.1471 133.067 79.1471 132.45V123.675H77.3721V121.95H79.1471V117.6H81.3471V121.95H84.2721V123.675H81.3471V131.775C81.3804 132.242 81.5387 132.592 81.8221 132.825C82.1054 133.042 82.4387 133.15 82.8221 133.15C83.2554 133.15 83.6554 133.075 84.0221 132.925C84.3887 132.775 84.6304 132.667 84.7471 132.6L85.2721 134.35ZM98.6361 135H96.4361V127.7C96.4361 126.367 96.1945 125.367 95.7111 124.7C95.2445 124.033 94.5695 123.7 93.6861 123.7C93.1195 123.7 92.5445 123.85 91.9611 124.15C91.3945 124.45 90.8945 124.858 90.4611 125.375C90.0278 125.875 89.7111 126.458 89.5111 127.125V135H87.3111V116.75H89.5111V124.75C90.0278 123.817 90.7278 123.083 91.6111 122.55C92.5111 122 93.4778 121.725 94.5111 121.725C95.2945 121.725 95.9445 121.867 96.4611 122.15C96.9945 122.417 97.4195 122.8 97.7361 123.3C98.0528 123.8 98.2778 124.383 98.4111 125.05C98.5611 125.7 98.6361 126.417 98.6361 127.2V135ZM102.364 138.55C102.581 138.567 102.798 138.583 103.014 138.6C103.231 138.633 103.398 138.65 103.514 138.65C103.781 138.65 104.014 138.558 104.214 138.375C104.414 138.192 104.631 137.833 104.864 137.3C105.114 136.783 105.431 136.017 105.814 135L100.289 121.95H102.614L107.014 132.775L110.989 121.95H113.164L106.814 138.425C106.664 138.808 106.439 139.167 106.139 139.5C105.856 139.85 105.489 140.125 105.039 140.325C104.589 140.525 104.048 140.625 103.414 140.625C103.264 140.625 103.106 140.617 102.939 140.6C102.789 140.583 102.598 140.55 102.364 140.5V138.55ZM122.412 135.25C121.346 135.25 120.396 134.983 119.562 134.45C118.729 133.917 118.071 133.242 117.587 132.425V140.325H115.387V121.95H117.337V124.4C117.854 123.6 118.529 122.958 119.362 122.475C120.196 121.975 121.104 121.725 122.087 121.725C122.987 121.725 123.812 121.908 124.562 122.275C125.312 122.642 125.962 123.142 126.512 123.775C127.062 124.408 127.487 125.133 127.787 125.95C128.104 126.75 128.262 127.592 128.262 128.475C128.262 129.708 128.012 130.842 127.512 131.875C127.029 132.908 126.346 133.733 125.462 134.35C124.579 134.95 123.562 135.25 122.412 135.25ZM121.737 133.35C122.387 133.35 122.971 133.217 123.487 132.95C124.021 132.667 124.471 132.3 124.837 131.85C125.221 131.383 125.512 130.858 125.712 130.275C125.912 129.692 126.012 129.092 126.012 128.475C126.012 127.825 125.896 127.208 125.662 126.625C125.446 126.042 125.129 125.525 124.712 125.075C124.312 124.625 123.837 124.275 123.287 124.025C122.754 123.758 122.171 123.625 121.537 123.625C121.137 123.625 120.721 123.7 120.287 123.85C119.871 124 119.471 124.217 119.087 124.5C118.704 124.767 118.379 125.075 118.112 125.425C117.846 125.775 117.671 126.15 117.587 126.55V130.275C117.837 130.842 118.171 131.358 118.587 131.825C119.004 132.292 119.487 132.667 120.037 132.95C120.587 133.217 121.154 133.35 121.737 133.35ZM136.663 135.25C135.68 135.25 134.788 135.075 133.988 134.725C133.188 134.358 132.497 133.867 131.913 133.25C131.33 132.617 130.88 131.892 130.563 131.075C130.247 130.258 130.088 129.4 130.088 128.5C130.088 127.583 130.247 126.717 130.563 125.9C130.88 125.083 131.33 124.367 131.913 123.75C132.497 123.117 133.188 122.625 133.988 122.275C134.805 121.908 135.697 121.725 136.663 121.725C137.647 121.725 138.538 121.908 139.338 122.275C140.138 122.625 140.83 123.117 141.413 123.75C142.013 124.367 142.472 125.083 142.788 125.9C143.105 126.717 143.263 127.583 143.263 128.5C143.263 129.4 143.105 130.258 142.788 131.075C142.472 131.892 142.022 132.617 141.438 133.25C140.855 133.867 140.155 134.358 139.338 134.725C138.538 135.075 137.647 135.25 136.663 135.25ZM132.338 128.525C132.338 129.425 132.53 130.242 132.913 130.975C133.313 131.708 133.838 132.292 134.488 132.725C135.138 133.142 135.863 133.35 136.663 133.35C137.463 133.35 138.188 133.133 138.838 132.7C139.505 132.267 140.03 131.683 140.413 130.95C140.813 130.2 141.013 129.375 141.013 128.475C141.013 127.575 140.813 126.758 140.413 126.025C140.03 125.292 139.505 124.708 138.838 124.275C138.188 123.842 137.463 123.625 136.663 123.625C135.863 123.625 135.138 123.85 134.488 124.3C133.838 124.733 133.313 125.317 132.913 126.05C132.53 126.783 132.338 127.608 132.338 128.525ZM152.484 134.35C152.301 134.433 152.051 134.542 151.734 134.675C151.417 134.808 151.051 134.925 150.634 135.025C150.217 135.125 149.776 135.175 149.309 135.175C148.776 135.175 148.284 135.083 147.834 134.9C147.384 134.7 147.026 134.4 146.759 134C146.492 133.583 146.359 133.067 146.359 132.45V123.675H144.584V121.95H146.359V117.6H148.559V121.95H151.484V123.675H148.559V131.775C148.592 132.242 148.751 132.592 149.034 132.825C149.317 133.042 149.651 133.15 150.034 133.15C150.467 133.15 150.867 133.075 151.234 132.925C151.601 132.775 151.842 132.667 151.959 132.6L152.484 134.35ZM165.848 135H163.648V127.7C163.648 126.367 163.406 125.367 162.923 124.7C162.456 124.033 161.781 123.7 160.898 123.7C160.331 123.7 159.756 123.85 159.173 124.15C158.606 124.45 158.106 124.858 157.673 125.375C157.24 125.875 156.923 126.458 156.723 127.125V135H154.523V116.75H156.723V124.75C157.24 123.817 157.94 123.083 158.823 122.55C159.723 122 160.69 121.725 161.723 121.725C162.506 121.725 163.156 121.867 163.673 122.15C164.206 122.417 164.631 122.8 164.948 123.3C165.265 123.8 165.49 124.383 165.623 125.05C165.773 125.7 165.848 126.417 165.848 127.2V135ZM175.044 135.25C174.061 135.25 173.161 135.075 172.344 134.725C171.544 134.358 170.844 133.867 170.244 133.25C169.661 132.617 169.202 131.892 168.869 131.075C168.552 130.258 168.394 129.392 168.394 128.475C168.394 127.242 168.677 126.117 169.244 125.1C169.811 124.083 170.594 123.267 171.594 122.65C172.611 122.033 173.769 121.725 175.069 121.725C176.386 121.725 177.527 122.042 178.494 122.675C179.477 123.292 180.236 124.108 180.769 125.125C181.319 126.125 181.594 127.208 181.594 128.375C181.594 128.542 181.586 128.708 181.569 128.875C181.569 129.025 181.561 129.142 181.544 129.225H170.719C170.786 130.075 171.019 130.833 171.419 131.5C171.836 132.15 172.369 132.667 173.019 133.05C173.669 133.417 174.369 133.6 175.119 133.6C175.919 133.6 176.669 133.4 177.369 133C178.086 132.6 178.577 132.075 178.844 131.425L180.744 131.95C180.461 132.583 180.036 133.15 179.469 133.65C178.919 134.15 178.261 134.542 177.494 134.825C176.744 135.108 175.927 135.25 175.044 135.25ZM170.644 127.7H179.544C179.477 126.85 179.236 126.1 178.819 125.45C178.402 124.8 177.869 124.292 177.219 123.925C176.569 123.558 175.852 123.375 175.069 123.375C174.302 123.375 173.594 123.558 172.944 123.925C172.294 124.292 171.761 124.8 171.344 125.45C170.944 126.1 170.711 126.85 170.644 127.7ZM193.24 135L188.715 128.65L186.24 130.975V135H184.04V116.75H186.24V128.675L192.99 121.975H195.365L190.165 127.375L195.615 135H193.24ZM202.814 131.225C202.814 130.392 203.048 129.675 203.514 129.075C203.998 128.458 204.656 127.983 205.489 127.65C206.323 127.317 207.289 127.15 208.389 127.15C208.973 127.15 209.589 127.2 210.239 127.3C210.889 127.383 211.464 127.517 211.964 127.7V126.75C211.964 125.75 211.664 124.967 211.064 124.4C210.464 123.817 209.614 123.525 208.514 123.525C207.798 123.525 207.106 123.658 206.439 123.925C205.789 124.175 205.098 124.542 204.364 125.025L203.564 123.475C204.414 122.892 205.264 122.458 206.114 122.175C206.964 121.875 207.848 121.725 208.764 121.725C210.431 121.725 211.748 122.192 212.714 123.125C213.681 124.042 214.164 125.325 214.164 126.975V132.5C214.164 132.767 214.214 132.967 214.314 133.1C214.431 133.217 214.614 133.283 214.864 133.3V135C214.648 135.033 214.456 135.058 214.289 135.075C214.139 135.092 214.014 135.1 213.914 135.1C213.398 135.1 213.006 134.958 212.739 134.675C212.489 134.392 212.348 134.092 212.314 133.775L212.264 132.95C211.698 133.683 210.956 134.25 210.039 134.65C209.123 135.05 208.214 135.25 207.314 135.25C206.448 135.25 205.673 135.075 204.989 134.725C204.306 134.358 203.773 133.875 203.389 133.275C203.006 132.658 202.814 131.975 202.814 131.225ZM211.314 132.15C211.514 131.917 211.673 131.683 211.789 131.45C211.906 131.2 211.964 130.992 211.964 130.825V129.2C211.448 129 210.906 128.85 210.339 128.75C209.773 128.633 209.214 128.575 208.664 128.575C207.548 128.575 206.639 128.8 205.939 129.25C205.256 129.683 204.914 130.283 204.914 131.05C204.914 131.467 205.023 131.875 205.239 132.275C205.473 132.658 205.806 132.975 206.239 133.225C206.689 133.475 207.239 133.6 207.889 133.6C208.573 133.6 209.223 133.467 209.839 133.2C210.456 132.917 210.948 132.567 211.314 132.15ZM224.382 135.25C223.366 135.25 222.441 135 221.607 134.5C220.774 134 220.116 133.35 219.632 132.55V135H217.682V116.75H219.882V124.55C220.432 123.7 221.107 123.017 221.907 122.5C222.707 121.983 223.641 121.725 224.707 121.725C225.607 121.725 226.416 121.917 227.132 122.3C227.849 122.667 228.457 123.175 228.957 123.825C229.474 124.458 229.866 125.183 230.132 126C230.416 126.8 230.557 127.642 230.557 128.525C230.557 129.442 230.399 130.308 230.082 131.125C229.782 131.925 229.349 132.642 228.782 133.275C228.216 133.892 227.557 134.375 226.807 134.725C226.074 135.075 225.266 135.25 224.382 135.25ZM223.832 133.35C224.482 133.35 225.082 133.217 225.632 132.95C226.182 132.683 226.657 132.325 227.057 131.875C227.457 131.425 227.766 130.908 227.982 130.325C228.199 129.742 228.307 129.142 228.307 128.525C228.307 127.675 228.124 126.875 227.757 126.125C227.407 125.375 226.907 124.775 226.257 124.325C225.624 123.858 224.882 123.625 224.032 123.625C223.416 123.625 222.841 123.767 222.307 124.05C221.774 124.333 221.299 124.708 220.882 125.175C220.482 125.625 220.149 126.125 219.882 126.675V130.45C219.966 130.867 220.141 131.25 220.407 131.6C220.674 131.95 220.999 132.258 221.382 132.525C221.766 132.775 222.166 132.975 222.582 133.125C223.016 133.275 223.432 133.35 223.832 133.35ZM239.907 121.55L241.007 119.925L239.282 119.375L239.607 118.325L241.357 119L241.282 117.15H242.557L242.482 119L244.232 118.325L244.557 119.375L242.832 119.925L243.957 121.55L243.007 122.175L241.932 120.5L240.832 122.175L239.907 121.55Z" fill="white"/>
</svg>
