<svg width="66" height="83" viewBox="0 0 66 83" fill="none" xmlns="http://www.w3.org/2000/svg">
<path d="M18.5 47.5C20.0667 16.7602 20.4616 22.8871 23.9157 10.6321C11.5 22 11.6376 31.0258 16.5 45C16.5 45 18.6609 49.8338 18.5 47.5Z" fill="#BEE8FF"/>
<path d="M45.4999 31.5C37.3378 10.499 38.2667 14.6196 33.1472 6.70442C44.49 11.4972 45.9649 19.5522 46 30C46 30 45.935 33.1396 45.4999 31.5Z" fill="#BEE8FF"/>
<path d="M44 74.0377C22 73 25.7953 73.291 16.3983 74.0377C26.0026 66.3315 33.8535 68.4395 43.0648 73.37C52.2761 78.3006 45.6496 74.4334 44 74.0377Z" fill="#BEE8FF"/>
<path d="M30.4526 5.77709L29.2448 58.7447M30.4526 5.77709C33.9421 6.45098 40.1143 9.35136 43.3368 15.4811C45.2892 19.195 45.6919 20.3365 45.6919 35.6263C45.6919 45.4766 35.0158 55.1057 29.2448 58.7447M30.4526 5.77709C23.3397 9.55086 11.2268 20.7513 13.4815 34.3369C15.7362 47.9225 24.4134 56.1839 29.2448 58.7447M30.4526 5.77709C29.5893 5.80222 28.6428 5.87607 27.6349 6.00665M30.4526 5.77709C30.9682 5.7839 31.5066 5.80531 32.0638 5.8427M29.2448 58.7447C30.2819 58.9148 31.5126 58.9728 32.8691 58.8625M29.2448 58.7447C28.1417 58.7896 26.9201 58.7737 25.6217 58.6806M55.013 34.0804C52.1136 37.3151 17.8367 34.8891 1.0607 33.2717M55.013 34.0804C53.3418 55.1806 40.1135 58.2732 32.8691 58.8625M55.013 34.0804C56.4862 15.4811 42.5311 6.54518 32.0638 5.8427M1.0607 33.2717C-0.0846124 52.2494 15.2296 57.9357 25.6217 58.6806M1.0607 33.2717C2.22901 13.9132 17.8315 7.27675 27.6349 6.00665M21.5954 1.73376C23.4158 1.418 25.4569 1.18258 27.6349 1.07129M32.8691 63.2673C32.8691 63.2673 63.7105 64.648 64.6768 33.2717C65.446 8.29651 47.0481 1.47636 32.0638 1.02459M32.8691 63.2673V58.8625M32.8691 63.2673V67.2356M25.6217 58.6806V67.2356M25.6217 67.2356H32.8691M25.6217 67.2356C12.0934 66.5887 11.9323 68.1193 11.9323 70.4703C11.9323 72.0876 12.7376 75.0797 15.9586 74.1093C19.1797 73.1389 37.969 73.7049 46.9611 74.1093C48.169 74.244 50.4237 73.7858 49.7795 70.8746C51.0679 64.0818 39.7138 67.2356 32.8691 67.2356M27.6349 1.07129C27.0982 2.56812 26.347 5.65075 27.6349 6.00665M27.6349 1.07129C29.0604 0.998446 30.5446 0.978786 32.0638 1.02459M32.0638 1.02459C32.0638 2.2482 32.0638 4.92488 32.0638 5.8427" stroke="black"/>
</svg>
