<svg width="257" height="257" viewBox="0 0 257 257" fill="none" xmlns="http://www.w3.org/2000/svg">
    <g filter="url(#filter0_d_37_9)">
    <path d="M184.776 19.7212C201.304 28.6726 212.918 47.1821 222.298 67.0571C231.53 86.9321 238.379 108.173 240.464 132.144C242.399 156.115 239.421 182.969 226.169 203.299C212.918 223.781 189.392 237.588 166.313 236.981C143.234 236.222 120.899 221.05 96.6289 213.313C72.5076 205.424 46.5995 204.968 38.1123 191.162C29.7741 177.356 38.8568 150.198 34.8366 124.71C30.6675 99.2213 13.2465 75.4016 16.3734 57.9541C19.5002 40.6583 43.3238 29.8863 64.9138 23.3625C86.5039 16.8386 106.009 14.4111 126.408 12.894C146.807 11.3768 168.248 10.7699 184.776 19.7212Z" fill="white"/>
    </g>
    <path d="M109.18 168.8H110.36L116.26 183H114.78L112.94 178.56H106.56L104.74 183H103.24L109.18 168.8ZM112.62 177.46L109.76 170.44L106.86 177.46H112.62ZM123.116 183.2C122.302 183.2 121.549 182.993 120.856 182.58C120.162 182.153 119.622 181.62 119.236 180.98V183H118.016V168.4H119.376V174.76C119.842 174.053 120.402 173.487 121.056 173.06C121.709 172.62 122.469 172.4 123.336 172.4C124.069 172.4 124.722 172.553 125.296 172.86C125.882 173.167 126.382 173.58 126.796 174.1C127.209 174.607 127.522 175.187 127.736 175.84C127.949 176.48 128.056 177.14 128.056 177.82C128.056 178.553 127.929 179.24 127.676 179.88C127.436 180.52 127.089 181.093 126.636 181.6C126.182 182.093 125.656 182.487 125.056 182.78C124.469 183.06 123.822 183.2 123.116 183.2ZM122.796 182C123.356 182 123.876 181.887 124.356 181.66C124.836 181.433 125.249 181.12 125.596 180.72C125.942 180.32 126.209 179.873 126.396 179.38C126.582 178.873 126.676 178.353 126.676 177.82C126.676 177.087 126.516 176.4 126.196 175.76C125.889 175.107 125.456 174.587 124.896 174.2C124.349 173.8 123.702 173.6 122.956 173.6C122.422 173.6 121.922 173.72 121.456 173.96C121.002 174.2 120.596 174.52 120.236 174.92C119.889 175.307 119.602 175.733 119.376 176.2V179.44C119.429 179.8 119.569 180.14 119.796 180.46C120.022 180.767 120.302 181.033 120.636 181.26C120.982 181.487 121.342 181.667 121.716 181.8C122.089 181.933 122.449 182 122.796 182ZM135.559 173.78C134.653 173.807 133.853 174.06 133.159 174.54C132.479 175.02 131.999 175.68 131.719 176.52V183H130.359V172.58H131.639V175.08C131.999 174.347 132.473 173.753 133.059 173.3C133.659 172.847 134.293 172.593 134.959 172.54C135.093 172.527 135.206 172.52 135.299 172.52C135.406 172.52 135.493 172.527 135.559 172.54V173.78ZM141.479 183.2C140.732 183.2 140.039 183.06 139.399 182.78C138.772 182.487 138.226 182.093 137.759 181.6C137.306 181.093 136.952 180.52 136.699 179.88C136.446 179.227 136.319 178.54 136.319 177.82C136.319 177.073 136.446 176.38 136.699 175.74C136.952 175.087 137.312 174.513 137.779 174.02C138.246 173.513 138.792 173.12 139.419 172.84C140.059 172.547 140.752 172.4 141.499 172.4C142.246 172.4 142.932 172.547 143.559 172.84C144.186 173.12 144.732 173.513 145.199 174.02C145.666 174.513 146.026 175.087 146.279 175.74C146.532 176.38 146.659 177.073 146.659 177.82C146.659 178.54 146.532 179.227 146.279 179.88C146.026 180.52 145.666 181.093 145.199 181.6C144.746 182.093 144.199 182.487 143.559 182.78C142.932 183.06 142.239 183.2 141.479 183.2ZM137.699 177.84C137.699 178.613 137.866 179.32 138.199 179.96C138.546 180.587 139.006 181.087 139.579 181.46C140.152 181.82 140.786 182 141.479 182C142.172 182 142.806 181.813 143.379 181.44C143.952 181.067 144.412 180.56 144.759 179.92C145.106 179.267 145.279 178.56 145.279 177.8C145.279 177.027 145.106 176.32 144.759 175.68C144.412 175.04 143.952 174.533 143.379 174.16C142.806 173.787 142.172 173.6 141.479 173.6C140.786 173.6 140.152 173.793 139.579 174.18C139.019 174.567 138.566 175.08 138.219 175.72C137.872 176.347 137.699 177.053 137.699 177.84ZM148.094 180C148.094 179.347 148.28 178.787 148.654 178.32C149.027 177.84 149.54 177.473 150.194 177.22C150.86 176.953 151.627 176.82 152.494 176.82C153 176.82 153.527 176.86 154.074 176.94C154.62 177.02 155.107 177.14 155.534 177.3V176.42C155.534 175.54 155.274 174.84 154.754 174.32C154.234 173.8 153.514 173.54 152.594 173.54C152.034 173.54 151.48 173.647 150.934 173.86C150.4 174.06 149.84 174.36 149.254 174.76L148.734 173.8C149.414 173.333 150.08 172.987 150.734 172.76C151.387 172.52 152.054 172.4 152.734 172.4C154.014 172.4 155.027 172.767 155.774 173.5C156.52 174.233 156.894 175.247 156.894 176.54V181.36C156.894 181.547 156.934 181.687 157.014 181.78C157.094 181.86 157.22 181.907 157.394 181.92V183C157.247 183.013 157.12 183.027 157.014 183.04C156.907 183.053 156.827 183.053 156.774 183.04C156.44 183.027 156.187 182.92 156.014 182.72C155.84 182.52 155.747 182.307 155.734 182.08L155.714 181.32C155.247 181.92 154.64 182.387 153.894 182.72C153.147 183.04 152.387 183.2 151.614 183.2C150.947 183.2 150.34 183.06 149.794 182.78C149.26 182.487 148.84 182.1 148.534 181.62C148.24 181.127 148.094 180.587 148.094 180ZM155.074 180.8C155.22 180.613 155.334 180.433 155.414 180.26C155.494 180.087 155.534 179.933 155.534 179.8V178.28C155.08 178.107 154.607 177.973 154.114 177.88C153.634 177.787 153.147 177.74 152.654 177.74C151.68 177.74 150.894 177.933 150.294 178.32C149.694 178.707 149.394 179.233 149.394 179.9C149.394 180.287 149.494 180.653 149.694 181C149.894 181.333 150.187 181.613 150.574 181.84C150.96 182.053 151.414 182.16 151.934 182.16C152.587 182.16 153.194 182.033 153.754 181.78C154.327 181.527 154.767 181.2 155.074 180.8ZM159.132 177.82C159.132 176.833 159.332 175.933 159.732 175.12C160.145 174.293 160.712 173.633 161.432 173.14C162.152 172.647 162.972 172.4 163.892 172.4C164.759 172.4 165.532 172.633 166.212 173.1C166.905 173.553 167.445 174.107 167.832 174.76V168.4H169.192V181.36C169.192 181.547 169.232 181.687 169.312 181.78C169.392 181.86 169.512 181.907 169.672 181.92V183C169.405 183.04 169.199 183.053 169.052 183.04C168.772 183.027 168.525 182.913 168.312 182.7C168.099 182.487 167.992 182.253 167.992 182V180.98C167.579 181.66 167.019 182.2 166.312 182.6C165.605 183 164.872 183.2 164.112 183.2C163.392 183.2 162.725 183.053 162.112 182.76C161.512 182.467 160.985 182.067 160.532 181.56C160.092 181.053 159.745 180.48 159.492 179.84C159.252 179.187 159.132 178.513 159.132 177.82ZM167.832 179.42V176.2C167.659 175.72 167.379 175.287 166.992 174.9C166.605 174.5 166.165 174.187 165.672 173.96C165.192 173.72 164.712 173.6 164.232 173.6C163.672 173.6 163.165 173.72 162.712 173.96C162.259 174.187 161.865 174.5 161.532 174.9C161.212 175.3 160.965 175.753 160.792 176.26C160.619 176.767 160.532 177.287 160.532 177.82C160.532 178.38 160.625 178.913 160.812 179.42C161.012 179.927 161.292 180.38 161.652 180.78C162.012 181.167 162.425 181.467 162.892 181.68C163.359 181.893 163.865 182 164.412 182C164.759 182 165.119 181.933 165.492 181.8C165.865 181.667 166.219 181.487 166.552 181.26C166.899 181.02 167.185 180.74 167.412 180.42C167.639 180.1 167.779 179.767 167.832 179.42Z" fill="black"/>
    <path d="M131.575 52.9074L130.075 118.407M131.575 52.9074C135.909 53.7407 143.574 57.3273 147.575 64.9074C150 69.5 150.5 70.9117 150.5 89.819C150.5 102 137.242 113.907 130.075 118.407M131.575 52.9074C122.742 57.574 107.7 71.4246 110.5 88.2246C113.3 105.025 124.076 115.241 130.075 118.407M131.575 52.9074C130.503 52.9384 129.328 53.0298 128.076 53.1912M131.575 52.9074C132.216 52.9158 132.884 52.9423 133.576 52.9885M130.075 118.407C131.363 118.618 132.892 118.689 134.576 118.553M130.075 118.407C128.706 118.463 127.189 118.443 125.576 118.328M162.075 87.9074C158.475 91.9074 115.908 88.9074 95.0754 86.9074M162.075 87.9074C160 114 143.573 117.824 134.576 118.553M162.075 87.9074C163.905 64.9074 146.575 53.8572 133.576 52.9885M95.0754 86.9074C93.6531 110.375 112.671 117.407 125.576 118.328M95.0754 86.9074C96.5262 62.9685 115.902 54.7619 128.076 53.1912M120.576 47.9074C122.837 47.5169 125.371 47.2258 128.076 47.0882M134.576 124C134.576 124 172.876 125.707 174.076 86.9074C175.031 56.0229 152.184 47.5891 133.576 47.0304M134.576 124V118.553M134.576 124V128.907M125.576 118.328V128.907M125.576 128.907H134.576M125.576 128.907C108.776 128.107 108.576 130 108.576 132.907C108.576 134.907 109.576 138.607 113.576 137.407C117.576 136.207 140.91 136.907 152.076 137.407C153.576 137.574 156.376 137.007 155.576 133.407C157.176 125.007 143.076 128.907 134.576 128.907M128.076 47.0882C127.41 48.9391 126.477 52.7511 128.076 53.1912M128.076 47.0882C129.846 46.9981 131.69 46.9738 133.576 47.0304M133.576 47.0304C133.576 48.5435 133.576 51.8535 133.576 52.9885" stroke="black" stroke-width="2"/>
    <defs>
    <filter id="filter0_d_37_9" x="0" y="0" width="257" height="257" filterUnits="userSpaceOnUse" color-interpolation-filters="sRGB">
    <feFlood flood-opacity="0" result="BackgroundImageFix"/>
    <feColorMatrix in="SourceAlpha" type="matrix" values="0 0 0 0 0 0 0 0 0 0 0 0 0 0 0 0 0 0 127 0" result="hardAlpha"/>
    <feOffset dy="4"/>
    <feGaussianBlur stdDeviation="8"/>
    <feComposite in2="hardAlpha" operator="out"/>
    <feColorMatrix type="matrix" values="0 0 0 0 0.591667 0 0 0 0 0.591667 0 0 0 0 0.591667 0 0 0 0.25 0"/>
    <feBlend mode="normal" in2="BackgroundImageFix" result="effect1_dropShadow_37_9"/>
    <feBlend mode="normal" in="SourceGraphic" in2="effect1_dropShadow_37_9" result="shape"/>
    </filter>
    </defs>
    </svg>
    