<svg xmlns="http://www.w3.org/2000/svg" xmlns:xlink="http://www.w3.org/1999/xlink" version="1.1" id="Layer_1" x="0px" y="0px" viewBox="0 0 138.09 133.35" style="enable-background:new 0 0 138.09 133.35;" xml:space="preserve">
    <style type="text/css">
        .st0{fill:none;stroke:#FFFFFF;stroke-width:2.9461;stroke-miterlimit:10;}
        .st1{fill:#BEE8FF;}
        .st2{fill:#FFFFFF;}
    </style>
    <g>
        <path class="st0" d="M66.1,2.29L66.1,2.29C53.32,2.75,33.76,8.75,22.67,18.96C10.97,29.77,3.5,45.13,2.2,61.12   C0.29,84.46,7.12,102.58,22.49,115c20.51,16.56,50.51,18.08,64.31,13.91c36.24-10.96,44.84-37.78,46.86-48.8   c4-21.83-0.01-39.88-11.9-53.64C105.79,7.97,79.16,1.84,66.1,2.29z"/>
    </g>
    <g>
        <polygon class="st1" points="50.92,49.35 41.66,58.55 68.99,92.57 95.4,49.32 85.62,40.57 67.18,69.8  "/>
        <path class="st2" d="M68.99,94.29c-0.52,0-1.01-0.24-1.35-0.65L40.31,59.63c-0.55-0.69-0.5-1.68,0.13-2.31l9.26-9.19   c0.34-0.34,0.82-0.53,1.32-0.5c0.49,0.03,0.94,0.27,1.25,0.65l14.75,18.55l17.15-27.18c0.27-0.43,0.72-0.72,1.22-0.79   c0.5-0.07,1.01,0.09,1.38,0.42l9.78,8.75c0.62,0.55,0.76,1.47,0.32,2.18L70.46,93.47c-0.29,0.48-0.81,0.79-1.37,0.82   C69.07,94.28,69.03,94.29,68.99,94.29z M43.97,58.68l24.83,30.9l24.38-39.93l-7.2-6.43L68.63,70.73c-0.29,0.47-0.81,0.78-1.37,0.81   c-0.56,0.02-1.1-0.22-1.44-0.65L50.77,51.93L43.97,58.68z"/>
    </g>
    </svg>