<svg xmlns="http://www.w3.org/2000/svg" xmlns:xlink="http://www.w3.org/1999/xlink" version="1.1" id="Layer_1" x="0px" y="0px" viewBox="0 0 90 81" style="enable-background:new 0 0 90 81;" xml:space="preserve">
    <style type="text/css">
        .st0{fill:#FFFFFF;}
        .st1{fill:#84CDEE;}
        .st2{fill:none;stroke:#000000;}
    </style>
    <g>
        <path class="st0" d="M17.4,56l5.4-2.1h2l0.4-0.1l-2-2.9L19,45.9l-4.3-3.7l-3.7-2.8V39l4.9,2.3l3.8,2.8l5.6,4l-0.6-1.6l-4.1-9.2   l-3.9-6l-5-5.9l-3.1-3.8l2,0.7l3.5,2.4l9.3,7.8l6.3,6.4l3.3,3.4l-0.3-3.2l-1.4-7.9l-2.3-6.9L25.6,16L23,11.2l-2.3-4.1l2.1,1.5   l4.2,6.1l5.7,8.6l3.9,7.1l3.4,7.8l1.3,5.9l0.2-3.9l1.6-11l1.6-8.8l1.5-3.2l2.3-3.3c0,0,0.2,1.5,0.1,1.9c0,0.4-1.1,7.4-1.1,7.4   l-1,18.1l2.1-7.3l4-12.1l2.6-5.1l3.4-6l3.1-4.4l5-4.6l-4.5,8.6L57.8,20l-2.3,7.3l-0.8,5.9l0.2,2.8l3.8-5.3l3.4-4.3l3.5-3.9l6.7-6   l3.5-2.2l3.6-1.9l5.5-2.6l2.9-0.8l-3,2.9l-8.2,6.9L71,24.7l-6.7,8.7l-3.5,5.7l-3.3,6.7l-3.2,8.9l1.5-0.4l6.3-5.1l6.1-4.7l5.8-3.8   l4.9-1.9l2.3,0l-5.2,2.7l-2.9,1.6l-4.9,3.9l-2.3,2.3l-3.3,4.8l3.4,0.4l3.1,1.1l1.1,1.2l-3.7,1l-9.4,2.4l-7.6,1l-7.4,0.1l-10-0.7   l-8.6-1.8l-6.5-2.3L17.4,56z"/>
        <path class="st1" d="M47,53.4c14.4-13.7,13.4-10.6,20.5-14.8C56.6,37.2,49.6,46,45.7,54.7C45.7,54.7,46,54.5,47,53.4z"/>
        <path d="M37.8,58.8c0.2,0.2,0.5,0.1,0.7-0.1c0.2-0.2,0.1-0.5-0.1-0.7L37.8,58.8z M3,36.2c-0.3,0-0.5,0.3-0.4,0.6   c0,0.3,0.3,0.5,0.6,0.4L3,36.2z M38.4,58C30.1,51.2,23,45.5,17.1,41.6c-2.9-1.9-5.6-3.4-7.9-4.4c-2.3-0.9-4.4-1.4-6.2-1.1l0.2,1   c1.5-0.2,3.4,0.1,5.7,1c2.3,0.9,4.8,2.4,7.8,4.3c5.8,3.9,12.9,9.5,21.2,16.3L38.4,58z M3.5,37.1c6.5,1.9,10.3,4.5,14.1,8.2   c1.9,1.9,3.8,4.1,5.9,6.7c2.2,2.6,4.6,5.5,7.7,8.9l0.7-0.7c-3-3.4-5.5-6.3-7.7-8.9c-2.2-2.6-4.1-4.8-6-6.7   c-3.9-3.9-7.9-6.5-14.5-8.5L3.5,37.1z"/>
        <path class="st2" d="M68.2,0.8C63.1,7.3,52.9,26.4,55,36.6"/>
        <path class="st2" d="M17.6,2.1c5.2,7.9,16,27.7,15.3,40.6"/>
        <path d="M46.3,43.5c0,0.3,0.2,0.5,0.4,0.6c0.3,0,0.5-0.2,0.6-0.4L46.3,43.5z M47.3,43.6c0.6-4.9,2.8-13.4,6.3-21.8   c3.6-8.4,8.5-16.5,14.9-20.6l-0.5-0.8c-6.6,4.3-11.7,12.6-15.2,21c-3.6,8.4-5.7,17.1-6.4,22.1L47.3,43.6z"/>
        <path class="st1" d="M22.2,44.4C7.8,30.7,8.8,33.8,1.7,29.6c10.9-1.3,17.9,7.4,21.8,16.1C23.6,45.7,23.2,45.6,22.2,44.4z"/>
        <path class="st1" d="M40.9,39.4C26.5,25.7,27.5,28.8,20.4,24.6c10.9-1.3,17.9,7.4,21.8,16.1C42.2,40.7,41.9,40.6,40.9,39.4z"/>
        <path class="st0" d="M70.4,56.6c-23.4,8.7-45.2,3.6-53.2,0c-2.1,0.3,7,14.1,11.8,20.9c4.2,1.6,17.1,4.4,29.7,0.9   C61.2,76.7,72.6,55.8,70.4,56.6z"/>
        <path d="M70.4,56.6l0.2,0.5l0,0L70.4,56.6z M58.6,78.4l0.1,0.5l0.1,0l0.1,0L58.6,78.4z M82.1,39c0.3,0,0.5-0.2,0.5-0.5   c0-0.3-0.2-0.5-0.5-0.5L82.1,39z M84.1,38.3c0.3-0.1,0.4-0.4,0.3-0.6c-0.1-0.3-0.4-0.4-0.6-0.3L84.1,38.3z M28.9,77.6l-0.4,0.3   l0.1,0.1l0.1,0.1L28.9,77.6z M25.5,54.1c0.3,0,0.5-0.3,0.4-0.6c0-0.3-0.3-0.5-0.6-0.4L25.5,54.1z M41.1,54.5c0,0.3,0.2,0.5,0.5,0.5   c0.3,0,0.5-0.2,0.5-0.5L41.1,54.5z M49,13l0.5,0.1l0.3-1.8l-1.2,1.4L49,13z M47.1,50.7c0.1,0.3,0.3,0.4,0.6,0.4   c0.3-0.1,0.4-0.3,0.4-0.6L47.1,50.7z M17,57.1c8.1,3.7,30.1,8.8,53.6,0l-0.3-0.9c-23.2,8.7-44.9,3.6-52.8,0L17,57.1z M70.6,57.1   c0,0-0.1,0-0.2,0c-0.1-0.1-0.2-0.2-0.2-0.2c0,0,0,0,0,0c0,0.1,0,0.1,0,0.2c-0.1,0.4-0.4,1.2-0.8,2.1c-0.8,1.8-2.1,4.4-3.5,7.1   c-1.4,2.7-3,5.4-4.4,7.6c-0.7,1.1-1.3,2-1.9,2.8c-0.6,0.7-1,1.2-1.2,1.4l0.6,0.8c0.4-0.3,0.9-0.9,1.5-1.6c0.6-0.8,1.2-1.7,1.9-2.8   c1.4-2.2,3-5,4.5-7.6c1.4-2.7,2.8-5.3,3.6-7.2c0.4-0.9,0.7-1.7,0.8-2.3c0-0.1,0.1-0.3,0.1-0.4c0-0.1,0-0.3,0-0.4   c-0.1-0.2-0.2-0.3-0.4-0.4c-0.2-0.1-0.4,0-0.5,0L70.6,57.1z M45.6,59.7c2.6-0.2,5.5-1.8,8.5-3.8c3-2.1,6.2-4.7,9.4-7.3   c3.2-2.6,6.5-5.1,9.6-6.9c3.2-1.8,6.2-2.9,9-2.7l0.1-1c-3.1-0.2-6.3,1-9.6,2.8c-3.2,1.9-6.5,4.4-9.8,7c-3.2,2.6-6.4,5.2-9.3,7.3   c-3,2-5.7,3.4-8.1,3.7L45.6,59.7z M82.1,39C82.1,39,82.1,39,82.1,39C82.1,39,82.1,39,82.1,39l0.1-1c0,0,0,0,0,0c0,0,0,0,0,0   L82.1,39z M55.8,60.6c5.6-3,7.6-6.8,10.5-10.6c2.8-3.7,6.7-7.6,16.1-11L82,38c-9.6,3.5-13.6,7.5-16.5,11.4   c-2.9,3.9-4.8,7.4-10.2,10.3L55.8,60.6z M82.3,38.9c0.6-0.2,1.1-0.4,1.7-0.6l-0.3-0.9c-0.6,0.2-1.2,0.4-1.8,0.6L82.3,38.9z    M28.8,78c4.3,1.6,17.3,4.4,30,0.9l-0.3-1c-12.4,3.5-25.2,0.7-29.4-0.9L28.8,78z M29.4,77.3c-2.4-3.4-5.9-8.6-8.5-12.9   c-1.3-2.2-2.4-4.1-3-5.5c-0.3-0.7-0.5-1.3-0.5-1.6c0-0.1,0-0.1,0-0.2c0,0,0-0.1,0-0.1c0,0-0.1,0.1-0.1,0.1l-0.2-1   c-0.3,0.1-0.5,0.2-0.6,0.5c-0.1,0.2-0.1,0.5-0.1,0.8c0.1,0.5,0.3,1.1,0.6,1.9c0.6,1.5,1.7,3.5,3.1,5.6c2.6,4.4,6.1,9.5,8.5,12.9   L29.4,77.3z M25.4,53.1c-1.3,0.1-3.4,0.6-5.2,1.1c-0.9,0.3-1.7,0.6-2.4,1c-0.3,0.2-0.6,0.4-0.8,0.6c-0.2,0.2-0.4,0.5-0.4,0.9h1   c0,0,0,0,0,0c0,0,0,0,0,0c0,0,0-0.1,0.1-0.1c0.1-0.1,0.3-0.3,0.6-0.4c0.5-0.3,1.3-0.6,2.2-0.9c1.7-0.5,3.8-0.9,5-1.1L25.4,53.1z    M70.8,56.4c-0.2-0.3-0.6-0.6-1-0.9c-0.5-0.3-1-0.6-1.7-0.9c-1.4-0.6-3.2-1-5.4-1v1c2,0,3.7,0.4,5,0.9c0.6,0.3,1.2,0.5,1.6,0.8   c0.4,0.3,0.6,0.5,0.7,0.6L70.8,56.4z M42.1,54.4C41.9,49.2,42,40.9,43,32.9c0.5-4,1.3-7.9,2.3-11.3c1-3.4,2.4-6.3,4.1-8.2l-0.8-0.7   c-1.8,2.1-3.2,5.1-4.3,8.6c-1.1,3.5-1.8,7.5-2.3,11.5c-1,8.1-1.1,16.5-0.9,21.7L42.1,54.4z M48.5,12.9c-0.7,4-1.6,11.3-2.1,18.8   c-0.2,3.7-0.3,7.4-0.3,10.7c0.1,3.3,0.3,6.2,0.9,8.3l1-0.3c-0.5-1.9-0.8-4.8-0.8-8c-0.1-3.3,0-7,0.3-10.6   c0.4-7.4,1.3-14.7,2.1-18.6L48.5,12.9z"/>
        <path class="st2" d="M17.6,2.1c7.4,8.7,23.3,30.5,24,44.1"/>
        <path d="M41,54.3c0.1,0.2,0.5,0.3,0.7,0.2c0.2-0.1,0.3-0.5,0.2-0.7L41,54.3z M4.7,19.1c3.7,2.1,10.2,6.7,17.1,12.9   C28.8,38.2,36,46,41,54.3l0.9-0.5c-5.1-8.4-12.4-16.3-19.4-22.5c-7-6.2-13.6-10.9-17.3-13L4.7,19.1z"/>
        <path d="M45.5,55.2c-0.1,0.3,0.1,0.5,0.3,0.6c0.3,0.1,0.5-0.1,0.6-0.3L45.5,55.2z M87,9.1l0.2,0.5L87,9.1z M54,54.8   c-0.1,0.3,0.1,0.5,0.4,0.6c0.3,0.1,0.5-0.1,0.6-0.4L54,54.8z M46.4,55.5C48.2,49.5,52.3,40,59,31c6.7-9,16-17.5,28.1-21.4l-0.3-1   C74.5,12.7,65,21.3,58.2,30.4c-6.8,9.1-11,18.7-12.7,24.8L46.4,55.5z M87.1,9.6c0.2-0.1,0.3-0.1,0.4-0.1c0.1,0,0.1,0,0.1,0   c0,0-0.2,0-0.3-0.2c-0.1-0.1-0.1-0.3-0.1-0.3c0-0.1,0.1-0.1,0,0c-0.1,0.1-0.3,0.3-0.7,0.7c-0.4,0.3-0.8,0.7-1.4,1.1   c-2.2,1.8-5.7,4.7-9.7,8.6c-8,7.9-17.7,19.9-21.4,35.5l1,0.2c3.7-15.4,13.2-27.2,21.2-35c4-3.9,7.5-6.8,9.7-8.6   c0.5-0.4,1-0.8,1.4-1.1c0.4-0.3,0.6-0.6,0.8-0.8c0.1-0.1,0.2-0.2,0.2-0.4c0-0.1,0-0.3-0.1-0.5c-0.1-0.2-0.3-0.2-0.4-0.2   c-0.2,0-0.3,0-0.5,0c-0.1,0-0.3,0.1-0.5,0.1L87.1,9.6z M4.7,19.1C9.4,22.5,19.8,33.3,25,48.5l0.9-0.3C20.7,32.7,10.1,21.8,5.2,18.3   L4.7,19.1z"/>
    </g>
    </svg>