<svg height="93" viewBox="0 0 90 81" fill="none" xmlns="http://www.w3.org/2000/svg">
    <path d="M47.7752 53.5829C62.1732 39.8379 61.2123 42.9713 68.2816 38.7492C57.3737 37.4397 50.3927 46.1659 46.4663 54.892C46.4663 54.892 46.8135 54.7508 47.7752 53.5829Z" fill="#84CDEE"/>
    <path d="M38.6012 58.9791C38.8151 59.1536 39.1301 59.1217 39.3047 58.9077C39.4792 58.6937 39.4473 58.3787 39.2333 58.2042L38.6012 58.9791ZM3.777 36.3669C3.50424 36.41 3.31803 36.666 3.3611 36.9388C3.40417 37.2115 3.6602 37.3978 3.93296 37.3547L3.777 36.3669ZM39.2333 58.2042C30.9476 51.4448 23.8202 45.7336 17.9313 41.8443C14.9863 39.8993 12.3337 38.3982 9.98726 37.449C7.647 36.5023 5.56373 36.0848 3.777 36.3669L3.93296 37.3547C5.46213 37.1132 7.34715 37.4597 9.61225 38.376C11.8711 39.2898 14.461 40.7508 17.3802 42.6787C23.2195 46.5353 30.3074 52.2131 38.6012 58.9791L39.2333 58.2042ZM4.30611 37.3397C10.7693 39.2787 14.6246 41.826 18.3856 45.5717C20.2765 47.4549 22.1447 49.6423 24.3138 52.223C26.4798 54.8 28.9398 57.7619 32.0006 61.1724L32.7448 60.5045C29.6973 57.1087 27.249 54.161 25.0793 51.5796C22.9128 49.0019 21.0179 46.7819 19.0913 44.8631C15.2172 41.0048 11.2194 38.3697 4.59346 36.3819L4.30611 37.3397Z" fill="black"/>
    <path d="M69.022 1C63.9318 7.54453 53.6796 26.6546 55.7738 36.7768" stroke="black"/>
    <path d="M18.4116 2.30884C23.6472 10.1623 34.3803 29.9704 33.6822 42.8849" stroke="black"/>
    <path d="M47.1479 43.692C47.1116 43.9658 47.3042 44.2171 47.578 44.2533C47.8517 44.2895 48.103 44.097 48.1392 43.8232L47.1479 43.692ZM48.1392 43.8232C48.7875 38.9254 50.891 30.3738 54.4411 22.0069C57.9983 13.6234 62.9672 5.52365 69.2945 1.41948L68.7503 0.580519C62.163 4.85335 57.0969 13.1876 53.5206 21.6163C49.9372 30.0616 47.8085 38.7003 47.1479 43.692L48.1392 43.8232Z" fill="black"/>
    <path d="M23.053 44.6303C8.65489 30.8852 9.61587 34.0187 2.54651 29.7965C13.4544 28.4871 20.4354 37.2133 24.3618 45.9393C24.3618 45.9393 24.0146 45.7981 23.053 44.6303Z" fill="#84CDEE"/>
    <path d="M41.7434 39.6212C27.3453 25.8762 28.3063 29.0096 21.2369 24.7875C32.1448 23.478 39.1258 32.2043 43.0522 40.9303C43.0522 40.9303 42.705 40.7891 41.7434 39.6212Z" fill="#84CDEE"/>
    <path d="M71.204 56.8464L71.3787 57.3149L71.204 56.8464ZM59.4239 78.6615L59.5577 79.1433L59.6347 79.1219L59.7012 79.0775L59.4239 78.6615ZM82.9471 39.192C83.2224 39.2124 83.4622 39.0057 83.4826 38.7303C83.5031 38.4549 83.2963 38.2152 83.021 38.1947L82.9471 39.192ZM84.8873 38.56C85.1493 38.4727 85.2909 38.1895 85.2036 37.9275C85.1162 37.6656 84.8331 37.524 84.5711 37.6113L84.8873 38.56ZM29.7551 77.7891L29.3459 78.0765L29.4342 78.2022L29.5778 78.2566L29.7551 77.7891ZM26.3218 54.2893C26.5962 54.2577 26.793 54.0097 26.7615 53.7354C26.7299 53.4611 26.4819 53.2643 26.2076 53.2958L26.3218 54.2893ZM41.9083 54.6859C41.9198 54.9618 42.1528 55.1762 42.4287 55.1647C42.7046 55.1532 42.919 54.9202 42.9075 54.6443L41.9083 54.6859ZM49.825 13.2164L50.3167 13.3075L50.6504 11.5052L49.4477 12.8883L49.825 13.2164ZM47.8738 50.8646C47.9435 51.1318 48.2166 51.2919 48.4838 51.2222C48.751 51.1525 48.9111 50.8794 48.8414 50.6122L47.8738 50.8646ZM17.7683 57.3016C25.8652 60.982 47.8453 66.0885 71.3787 57.3149L71.0294 56.3779C47.7863 65.0433 26.0829 59.9825 18.1821 56.3912L17.7683 57.3016ZM71.3787 57.3149C71.3944 57.309 71.314 57.3451 71.196 57.3014C71.055 57.2492 70.9995 57.1381 70.9855 57.0958C70.9752 57.0648 70.9835 57.0663 70.98 57.1287C70.977 57.1845 70.966 57.265 70.9427 57.3738C70.847 57.8197 70.5896 58.5375 70.1919 59.4704C69.4031 61.3204 68.1161 63.8936 66.674 66.5564C65.2329 69.2174 63.6437 71.9553 62.2542 74.1333C61.559 75.2229 60.9176 76.1665 60.3722 76.8883C59.8114 77.6305 59.3938 78.0806 59.1465 78.2455L59.7012 79.0775C60.1084 78.8061 60.6179 78.2219 61.1701 77.4911C61.7376 76.74 62.3948 75.7721 63.0972 74.6712C64.5027 72.4682 66.104 69.7089 67.5534 67.0326C69.0018 64.3582 70.3053 61.754 71.1118 59.8626C71.5116 58.9247 71.803 58.1309 71.9204 57.5835C71.9504 57.444 71.9717 57.3087 71.9785 57.1835C71.985 57.0648 71.9809 56.9203 71.9345 56.7806C71.8843 56.6296 71.769 56.4472 71.5432 56.3636C71.3403 56.2884 71.15 56.3329 71.0294 56.3779L71.3787 57.3149ZM46.3781 59.963C49.0255 59.7327 51.9263 58.2031 54.9218 56.1401C57.9281 54.0695 61.1134 51.4001 64.3189 48.8135C67.5371 46.2167 70.7818 43.6979 73.9478 41.8816C77.1199 40.0617 80.1499 38.9847 82.9471 39.192L83.021 38.1947C79.928 37.9655 76.6862 39.1576 73.4502 41.0142C70.208 42.8743 66.9082 45.4392 63.691 48.0353C60.4611 50.6416 57.3201 53.2741 54.3545 55.3165C51.3781 57.3664 48.6616 58.7606 46.2915 58.9668L46.3781 59.963ZM56.6068 60.7773C62.3998 57.658 64.3428 53.705 67.3447 49.8454C70.3368 45.9982 74.5077 42.0196 84.8873 38.56L84.5711 37.6113C74.0082 41.132 69.6713 45.2251 66.5553 49.2314C63.449 53.2254 61.6836 56.9079 56.1327 59.8968L56.6068 60.7773ZM29.5778 78.2566C33.8676 79.8839 46.8646 82.6691 59.5577 79.1433L59.2901 78.1797C46.8522 81.6347 34.0779 78.8941 29.9325 77.3216L29.5778 78.2566ZM30.1644 77.5018C27.7682 74.089 24.307 68.9512 21.7086 64.6277C20.4073 62.4624 19.3333 60.5191 18.7156 59.1045C18.4033 58.3893 18.226 57.8496 18.1787 57.4992C18.1674 57.4154 18.165 57.3521 18.1673 57.3066C18.1696 57.2602 18.1763 57.2433 18.1755 57.2456C18.1613 57.2818 18.107 57.3313 18.0573 57.3396L17.893 56.3532C17.5816 56.4051 17.3527 56.603 17.2438 56.8824C17.1508 57.1209 17.1549 57.3902 17.1877 57.633C17.2546 58.1284 17.4802 58.7743 17.7991 59.5047C18.444 60.9815 19.546 62.9705 20.8515 65.1428C23.4669 69.4946 26.9428 74.6538 29.3459 78.0765L30.1644 77.5018ZM26.2076 53.2958C24.9401 53.4415 22.8369 53.8586 21.0436 54.4194C20.1492 54.6991 19.3059 55.0225 18.6766 55.3784C18.3631 55.5557 18.0789 55.7542 17.8672 55.9774C17.658 56.198 17.4752 56.4909 17.4752 56.8464H18.4752C18.4752 56.8456 18.4752 56.8426 18.4768 56.8364C18.4784 56.83 18.4819 56.8192 18.4895 56.8038C18.5052 56.772 18.536 56.7254 18.5927 56.6656C18.7088 56.5433 18.8984 56.4018 19.1689 56.2488C19.7076 55.9442 20.4731 55.6456 21.3421 55.3739C23.0755 54.8318 25.117 54.4278 26.3218 54.2893L26.2076 53.2958ZM71.62 56.569C71.4217 56.2716 71.0662 55.9556 70.6211 55.655C70.1655 55.3472 69.5803 55.0317 68.8855 54.7476C67.4953 54.1793 65.6466 53.7288 63.4835 53.7288V54.7288C65.509 54.7288 67.2296 55.1509 68.5071 55.6732C69.1461 55.9345 69.6693 56.2188 70.0614 56.4836C70.464 56.7556 70.6954 56.9849 70.788 57.1238L71.62 56.569ZM42.9075 54.6443C42.6902 49.4309 42.7991 41.1046 43.831 33.0884C44.3469 29.0804 45.0921 25.1618 46.1377 21.7537C47.1857 18.3379 48.5237 15.475 50.2024 13.5445L49.4477 12.8883C47.636 14.9718 46.247 17.9881 45.1817 21.4604C44.114 24.9405 43.3594 28.9189 42.8391 32.9607C41.7986 41.044 41.6893 49.4281 41.9083 54.6859L42.9075 54.6443ZM49.3334 13.1254C48.6015 17.0776 47.7092 24.4722 47.2615 31.8816C47.0376 35.5879 46.9244 39.3057 46.999 42.6043C47.0735 45.8944 47.3351 48.7996 47.8738 50.8646L48.8414 50.6122C48.333 48.6631 48.0728 45.8526 47.9988 42.5817C47.925 39.3194 48.0368 35.631 48.2597 31.9419C48.7057 24.5607 49.5942 17.2086 50.3167 13.3075L49.3334 13.1254Z" fill="black"/>
    <path d="M18.4116 2.30884C25.8288 11.0349 41.7102 32.7627 42.4082 46.3754" stroke="black"/>
    <path d="M41.8217 54.4875C41.9645 54.7238 42.2719 54.7997 42.5082 54.6569C42.7446 54.5141 42.8204 54.2067 42.6776 53.9703L41.8217 54.4875ZM5.51164 19.3231C9.18221 21.4103 15.7456 26.0339 22.656 32.2298C29.566 38.4252 36.7956 46.1683 41.8217 54.4875L42.6776 53.9703C37.5816 45.5355 30.2743 37.7171 23.3236 31.4852C16.3735 25.2538 9.7525 20.5842 6.00594 18.4538L5.51164 19.3231Z" fill="black"/>
    <path d="M46.2909 55.3978C46.2142 55.6631 46.367 55.9403 46.6323 56.017C46.8976 56.0937 47.1748 55.9409 47.2515 55.6756L46.2909 55.3978ZM87.7836 9.28869L87.9396 9.76372L87.7836 9.28869ZM54.8525 54.9842C54.7882 55.2527 54.9538 55.5225 55.2223 55.5868C55.4909 55.6511 55.7607 55.4856 55.825 55.217L54.8525 54.9842ZM47.2515 55.6756C48.981 49.6946 53.0996 40.1938 59.8241 31.1947C66.5482 22.1963 75.8513 13.7339 87.9396 9.76372L87.6276 8.81365C75.2819 12.8684 65.8241 21.4946 59.0231 30.5961C52.2224 39.6971 48.0518 49.3078 46.2909 55.3978L47.2515 55.6756ZM87.9396 9.76372C88.1234 9.70335 88.2593 9.66506 88.355 9.64432C88.4723 9.61887 88.4684 9.63412 88.4112 9.62291C88.3763 9.61608 88.2522 9.5852 88.1578 9.45518C88.055 9.31365 88.068 9.16867 88.0823 9.10625C88.1019 9.02046 88.1389 9.00201 88.0674 9.08571C87.9555 9.21664 87.7276 9.42908 87.3679 9.73723C87.0158 10.0389 86.5623 10.4114 86.0174 10.8573C83.8411 12.6383 80.274 15.5362 76.2822 19.4698C68.3043 27.3313 58.5922 39.3653 54.8525 54.9842L55.825 55.217C59.5023 39.8588 69.0668 27.9838 76.9841 20.182C80.9399 16.284 84.4751 13.4117 86.6507 11.6312C87.1937 11.1868 87.6563 10.807 88.0185 10.4967C88.3732 10.1928 88.6581 9.93363 88.8275 9.73555C88.8965 9.65475 89.0164 9.50747 89.0572 9.32878C89.082 9.21992 89.0903 9.03747 88.9669 8.86751C88.8518 8.70905 88.6912 8.65877 88.6035 8.64158C88.4406 8.60966 88.2656 8.64044 88.143 8.66704C87.9986 8.69835 87.8255 8.74864 87.6276 8.81365L87.9396 9.76372ZM5.4647 19.292C10.191 22.7293 20.5933 33.4687 25.7917 48.7175L26.7382 48.3948C21.4655 32.928 10.9252 22.0268 6.05287 18.4833L5.4647 19.292Z" fill="black"/>
    </svg>
    