<svg width="257" height="257" viewBox="0 0 257 257" fill="none" xmlns="http://www.w3.org/2000/svg">
    <g filter="url(#filter0_d_37_9)">
        <path d="M184.776 19.7212C201.304 28.6726 212.918 47.1821 222.298 67.0571C231.53 86.9321 238.379 108.173 240.464 132.144C242.399 156.115 239.421 182.969 226.169 203.299C212.918 223.781 189.392 237.588 166.313 236.981C143.234 236.222 120.899 221.05 96.6289 213.313C72.5076 205.424 46.5995 204.968 38.1123 191.162C29.7741 177.356 38.8568 150.198 34.8366 124.71C30.6675 99.2213 13.2465 75.4016 16.3734 57.9541C19.5002 40.6583 43.3238 29.8863 64.9138 23.3625C86.5039 16.8386 106.009 14.4111 126.408 12.894C146.807 11.3768 168.248 10.7699 184.776 19.7212Z" fill="white" />
    </g>
    <path d="M92.2679 160.8H93.4479L99.3479 175H97.8679L96.0279 170.56H89.6479L87.8279 175H86.3279L92.2679 160.8ZM95.7079 169.46L92.8479 162.44L89.9479 169.46H95.7079ZM101.164 160.4H102.524V172.64C102.524 173.16 102.617 173.5 102.804 173.66C102.99 173.82 103.217 173.9 103.484 173.9C103.724 173.9 103.964 173.873 104.204 173.82C104.444 173.767 104.65 173.713 104.824 173.66L105.064 174.76C104.81 174.867 104.497 174.953 104.124 175.02C103.764 175.087 103.45 175.12 103.184 175.12C102.57 175.12 102.077 174.94 101.704 174.58C101.344 174.22 101.164 173.727 101.164 173.1V160.4ZM111.553 174.5C111.446 174.54 111.279 174.613 111.053 174.72C110.826 174.827 110.553 174.92 110.233 175C109.913 175.08 109.566 175.12 109.193 175.12C108.806 175.12 108.439 175.047 108.093 174.9C107.759 174.753 107.493 174.533 107.293 174.24C107.093 173.933 106.993 173.56 106.993 173.12V165.66H105.553V164.58H106.993V161.06H108.353V164.58H110.753V165.66H108.353V172.74C108.379 173.113 108.513 173.393 108.753 173.58C109.006 173.767 109.293 173.86 109.613 173.86C109.986 173.86 110.326 173.8 110.633 173.68C110.939 173.547 111.126 173.453 111.193 173.4L111.553 174.5ZM117.576 175.2C116.83 175.2 116.136 175.06 115.496 174.78C114.856 174.487 114.303 174.093 113.836 173.6C113.37 173.093 113.003 172.513 112.736 171.86C112.483 171.207 112.356 170.507 112.356 169.76C112.356 168.787 112.576 167.893 113.016 167.08C113.47 166.267 114.09 165.62 114.876 165.14C115.663 164.647 116.556 164.4 117.556 164.4C118.583 164.4 119.476 164.647 120.236 165.14C121.01 165.633 121.616 166.287 122.056 167.1C122.496 167.9 122.716 168.78 122.716 169.74C122.716 169.847 122.716 169.953 122.716 170.06C122.716 170.153 122.71 170.227 122.696 170.28H113.776C113.843 171.027 114.05 171.693 114.396 172.28C114.756 172.853 115.216 173.313 115.776 173.66C116.35 173.993 116.97 174.16 117.636 174.16C118.316 174.16 118.956 173.987 119.556 173.64C120.17 173.293 120.596 172.84 120.836 172.28L122.016 172.6C121.803 173.093 121.476 173.54 121.036 173.94C120.596 174.34 120.076 174.653 119.476 174.88C118.89 175.093 118.256 175.2 117.576 175.2ZM113.736 169.3H121.436C121.383 168.54 121.176 167.873 120.816 167.3C120.47 166.727 120.01 166.28 119.436 165.96C118.876 165.627 118.256 165.46 117.576 165.46C116.896 165.46 116.276 165.627 115.716 165.96C115.156 166.28 114.696 166.733 114.336 167.32C113.99 167.893 113.79 168.553 113.736 169.3ZM130.014 165.78C129.108 165.807 128.308 166.06 127.614 166.54C126.934 167.02 126.454 167.68 126.174 168.52V175H124.814V164.58H126.094V167.08C126.454 166.347 126.928 165.753 127.514 165.3C128.114 164.847 128.748 164.593 129.414 164.54C129.548 164.527 129.661 164.52 129.754 164.52C129.861 164.52 129.948 164.527 130.014 164.54V165.78ZM140.586 175H139.226V169.18C139.226 167.953 139.046 167.06 138.686 166.5C138.326 165.927 137.76 165.64 136.986 165.64C136.453 165.64 135.926 165.773 135.406 166.04C134.886 166.293 134.426 166.647 134.026 167.1C133.64 167.54 133.36 168.047 133.186 168.62V175H131.826V164.58H133.066V166.94C133.346 166.433 133.713 165.993 134.166 165.62C134.62 165.233 135.133 164.933 135.706 164.72C136.28 164.507 136.873 164.4 137.486 164.4C138.06 164.4 138.546 164.507 138.946 164.72C139.346 164.933 139.666 165.24 139.906 165.64C140.146 166.027 140.32 166.5 140.426 167.06C140.533 167.607 140.586 168.22 140.586 168.9V175ZM142.646 172C142.646 171.347 142.833 170.787 143.206 170.32C143.58 169.84 144.093 169.473 144.746 169.22C145.413 168.953 146.18 168.82 147.046 168.82C147.553 168.82 148.08 168.86 148.626 168.94C149.173 169.02 149.66 169.14 150.086 169.3V168.42C150.086 167.54 149.826 166.84 149.306 166.32C148.786 165.8 148.066 165.54 147.146 165.54C146.586 165.54 146.033 165.647 145.486 165.86C144.953 166.06 144.393 166.36 143.806 166.76L143.286 165.8C143.966 165.333 144.633 164.987 145.286 164.76C145.94 164.52 146.606 164.4 147.286 164.4C148.566 164.4 149.58 164.767 150.326 165.5C151.073 166.233 151.446 167.247 151.446 168.54V173.36C151.446 173.547 151.486 173.687 151.566 173.78C151.646 173.86 151.773 173.907 151.946 173.92V175C151.8 175.013 151.673 175.027 151.566 175.04C151.46 175.053 151.38 175.053 151.326 175.04C150.993 175.027 150.74 174.92 150.566 174.72C150.393 174.52 150.3 174.307 150.286 174.08L150.266 173.32C149.8 173.92 149.193 174.387 148.446 174.72C147.7 175.04 146.94 175.2 146.166 175.2C145.5 175.2 144.893 175.06 144.346 174.78C143.813 174.487 143.393 174.1 143.086 173.62C142.793 173.127 142.646 172.587 142.646 172ZM149.626 172.8C149.773 172.613 149.886 172.433 149.966 172.26C150.046 172.087 150.086 171.933 150.086 171.8V170.28C149.633 170.107 149.16 169.973 148.666 169.88C148.186 169.787 147.7 169.74 147.206 169.74C146.233 169.74 145.446 169.933 144.846 170.32C144.246 170.707 143.946 171.233 143.946 171.9C143.946 172.287 144.046 172.653 144.246 173C144.446 173.333 144.74 173.613 145.126 173.84C145.513 174.053 145.966 174.16 146.486 174.16C147.14 174.16 147.746 174.033 148.306 173.78C148.88 173.527 149.32 173.2 149.626 172.8ZM159.307 174.5C159.2 174.54 159.033 174.613 158.807 174.72C158.58 174.827 158.307 174.92 157.987 175C157.667 175.08 157.32 175.12 156.947 175.12C156.56 175.12 156.193 175.047 155.847 174.9C155.513 174.753 155.247 174.533 155.047 174.24C154.847 173.933 154.747 173.56 154.747 173.12V165.66H153.307V164.58H154.747V161.06H156.107V164.58H158.507V165.66H156.107V172.74C156.133 173.113 156.267 173.393 156.507 173.58C156.76 173.767 157.047 173.86 157.367 173.86C157.74 173.86 158.08 173.8 158.387 173.68C158.693 173.547 158.88 173.453 158.947 173.4L159.307 174.5ZM161.006 175V164.58H162.366V175H161.006ZM161.006 162.4V160.4H162.366V162.4H161.006ZM168.461 175L164.241 164.58H165.661L169.221 173.64L172.801 164.58H174.141L169.921 175H168.461ZM180.174 175.2C179.427 175.2 178.734 175.06 178.094 174.78C177.454 174.487 176.9 174.093 176.434 173.6C175.967 173.093 175.6 172.513 175.334 171.86C175.08 171.207 174.954 170.507 174.954 169.76C174.954 168.787 175.174 167.893 175.614 167.08C176.067 166.267 176.687 165.62 177.474 165.14C178.26 164.647 179.154 164.4 180.154 164.4C181.18 164.4 182.074 164.647 182.834 165.14C183.607 165.633 184.214 166.287 184.654 167.1C185.094 167.9 185.314 168.78 185.314 169.74C185.314 169.847 185.314 169.953 185.314 170.06C185.314 170.153 185.307 170.227 185.294 170.28H176.374C176.44 171.027 176.647 171.693 176.994 172.28C177.354 172.853 177.814 173.313 178.374 173.66C178.947 173.993 179.567 174.16 180.234 174.16C180.914 174.16 181.554 173.987 182.154 173.64C182.767 173.293 183.194 172.84 183.434 172.28L184.614 172.6C184.4 173.093 184.074 173.54 183.634 173.94C183.194 174.34 182.674 174.653 182.074 174.88C181.487 175.093 180.854 175.2 180.174 175.2ZM176.334 169.3H184.034C183.98 168.54 183.774 167.873 183.414 167.3C183.067 166.727 182.607 166.28 182.034 165.96C181.474 165.627 180.854 165.46 180.174 165.46C179.494 165.46 178.874 165.627 178.314 165.96C177.754 166.28 177.294 166.733 176.934 167.32C176.587 167.893 176.387 168.553 176.334 169.3ZM110.178 198H108.818V192.18C108.818 190.967 108.624 190.073 108.238 189.5C107.851 188.927 107.278 188.64 106.518 188.64C105.731 188.64 105.024 188.92 104.398 189.48C103.784 190.04 103.351 190.76 103.098 191.64V198H101.738V192.18C101.738 190.953 101.551 190.06 101.178 189.5C100.804 188.927 100.231 188.64 99.4577 188.64C98.6844 188.64 97.9844 188.913 97.3577 189.46C96.7311 190.007 96.2911 190.727 96.0377 191.62V198H94.6777V187.58H95.9177V189.94C96.3577 189.127 96.9177 188.5 97.5977 188.06C98.2911 187.62 99.0577 187.4 99.8977 187.4C100.764 187.4 101.464 187.647 101.998 188.14C102.531 188.633 102.858 189.28 102.978 190.08C103.458 189.2 104.031 188.533 104.698 188.08C105.378 187.627 106.144 187.4 106.998 187.4C107.584 187.4 108.078 187.507 108.478 187.72C108.891 187.933 109.218 188.24 109.458 188.64C109.711 189.027 109.891 189.5 109.998 190.06C110.118 190.607 110.178 191.22 110.178 191.9V198ZM117.557 198.2C116.81 198.2 116.117 198.06 115.477 197.78C114.837 197.487 114.283 197.093 113.817 196.6C113.35 196.093 112.983 195.513 112.717 194.86C112.463 194.207 112.337 193.507 112.337 192.76C112.337 191.787 112.557 190.893 112.997 190.08C113.45 189.267 114.07 188.62 114.857 188.14C115.643 187.647 116.537 187.4 117.537 187.4C118.563 187.4 119.457 187.647 120.217 188.14C120.99 188.633 121.597 189.287 122.037 190.1C122.477 190.9 122.697 191.78 122.697 192.74C122.697 192.847 122.697 192.953 122.697 193.06C122.697 193.153 122.69 193.227 122.677 193.28H113.757C113.823 194.027 114.03 194.693 114.377 195.28C114.737 195.853 115.197 196.313 115.757 196.66C116.33 196.993 116.95 197.16 117.617 197.16C118.297 197.16 118.937 196.987 119.537 196.64C120.15 196.293 120.577 195.84 120.817 195.28L121.997 195.6C121.783 196.093 121.457 196.54 121.017 196.94C120.577 197.34 120.057 197.653 119.457 197.88C118.87 198.093 118.237 198.2 117.557 198.2ZM113.717 192.3H121.417C121.363 191.54 121.157 190.873 120.797 190.3C120.45 189.727 119.99 189.28 119.417 188.96C118.857 188.627 118.237 188.46 117.557 188.46C116.877 188.46 116.257 188.627 115.697 188.96C115.137 189.28 114.677 189.733 114.317 190.32C113.97 190.893 113.77 191.553 113.717 192.3ZM124.095 192.82C124.095 191.833 124.295 190.933 124.695 190.12C125.108 189.293 125.675 188.633 126.395 188.14C127.115 187.647 127.935 187.4 128.855 187.4C129.722 187.4 130.495 187.633 131.175 188.1C131.868 188.553 132.408 189.107 132.795 189.76V183.4H134.155V196.36C134.155 196.547 134.195 196.687 134.275 196.78C134.355 196.86 134.475 196.907 134.635 196.92V198C134.368 198.04 134.162 198.053 134.015 198.04C133.735 198.027 133.488 197.913 133.275 197.7C133.062 197.487 132.955 197.253 132.955 197V195.98C132.542 196.66 131.982 197.2 131.275 197.6C130.568 198 129.835 198.2 129.075 198.2C128.355 198.2 127.688 198.053 127.075 197.76C126.475 197.467 125.948 197.067 125.495 196.56C125.055 196.053 124.708 195.48 124.455 194.84C124.215 194.187 124.095 193.513 124.095 192.82ZM132.795 194.42V191.2C132.622 190.72 132.342 190.287 131.955 189.9C131.568 189.5 131.128 189.187 130.635 188.96C130.155 188.72 129.675 188.6 129.195 188.6C128.635 188.6 128.128 188.72 127.675 188.96C127.222 189.187 126.828 189.5 126.495 189.9C126.175 190.3 125.928 190.753 125.755 191.26C125.582 191.767 125.495 192.287 125.495 192.82C125.495 193.38 125.588 193.913 125.775 194.42C125.975 194.927 126.255 195.38 126.615 195.78C126.975 196.167 127.388 196.467 127.855 196.68C128.322 196.893 128.828 197 129.375 197C129.722 197 130.082 196.933 130.455 196.8C130.828 196.667 131.182 196.487 131.515 196.26C131.862 196.02 132.148 195.74 132.375 195.42C132.602 195.1 132.742 194.767 132.795 194.42ZM137.236 198V187.58H138.596V198H137.236ZM137.236 185.4V183.4H138.596V185.4H137.236ZM146.112 198.2C145.352 198.2 144.652 198.06 144.012 197.78C143.385 197.487 142.832 197.087 142.352 196.58C141.885 196.073 141.518 195.493 141.252 194.84C140.998 194.187 140.872 193.493 140.872 192.76C140.872 191.773 141.092 190.873 141.532 190.06C141.972 189.247 142.585 188.6 143.372 188.12C144.158 187.64 145.065 187.4 146.092 187.4C147.065 187.4 147.925 187.627 148.672 188.08C149.418 188.52 149.972 189.12 150.332 189.88L149.012 190.3C148.718 189.767 148.305 189.353 147.772 189.06C147.252 188.753 146.672 188.6 146.032 188.6C145.338 188.6 144.705 188.78 144.132 189.14C143.558 189.5 143.098 189.993 142.752 190.62C142.418 191.247 142.252 191.96 142.252 192.76C142.252 193.547 142.425 194.26 142.772 194.9C143.118 195.54 143.578 196.053 144.152 196.44C144.725 196.813 145.358 197 146.052 197C146.505 197 146.938 196.92 147.352 196.76C147.778 196.6 148.145 196.387 148.452 196.12C148.772 195.84 148.985 195.54 149.092 195.22L150.432 195.62C150.245 196.113 149.932 196.56 149.492 196.96C149.065 197.347 148.558 197.653 147.972 197.88C147.398 198.093 146.778 198.2 146.112 198.2ZM152.568 198V187.58H153.928V198H152.568ZM152.568 185.4V183.4H153.928V185.4H152.568ZM165.684 198H164.324V192.18C164.324 190.953 164.144 190.06 163.784 189.5C163.424 188.927 162.857 188.64 162.084 188.64C161.55 188.64 161.024 188.773 160.504 189.04C159.984 189.293 159.524 189.647 159.124 190.1C158.737 190.54 158.457 191.047 158.284 191.62V198H156.924V187.58H158.164V189.94C158.444 189.433 158.81 188.993 159.264 188.62C159.717 188.233 160.23 187.933 160.804 187.72C161.377 187.507 161.97 187.4 162.584 187.4C163.157 187.4 163.644 187.507 164.044 187.72C164.444 187.933 164.764 188.24 165.004 188.64C165.244 189.027 165.417 189.5 165.524 190.06C165.63 190.607 165.684 191.22 165.684 191.9V198ZM173.084 198.2C172.337 198.2 171.644 198.06 171.004 197.78C170.364 197.487 169.811 197.093 169.344 196.6C168.877 196.093 168.511 195.513 168.244 194.86C167.991 194.207 167.864 193.507 167.864 192.76C167.864 191.787 168.084 190.893 168.524 190.08C168.977 189.267 169.597 188.62 170.384 188.14C171.171 187.647 172.064 187.4 173.064 187.4C174.091 187.4 174.984 187.647 175.744 188.14C176.517 188.633 177.124 189.287 177.564 190.1C178.004 190.9 178.224 191.78 178.224 192.74C178.224 192.847 178.224 192.953 178.224 193.06C178.224 193.153 178.217 193.227 178.204 193.28H169.284C169.351 194.027 169.557 194.693 169.904 195.28C170.264 195.853 170.724 196.313 171.284 196.66C171.857 196.993 172.477 197.16 173.144 197.16C173.824 197.16 174.464 196.987 175.064 196.64C175.677 196.293 176.104 195.84 176.344 195.28L177.524 195.6C177.311 196.093 176.984 196.54 176.544 196.94C176.104 197.34 175.584 197.653 174.984 197.88C174.397 198.093 173.764 198.2 173.084 198.2ZM169.244 192.3H176.944C176.891 191.54 176.684 190.873 176.324 190.3C175.977 189.727 175.517 189.28 174.944 188.96C174.384 188.627 173.764 188.46 173.084 188.46C172.404 188.46 171.784 188.627 171.224 188.96C170.664 189.28 170.204 189.733 169.844 190.32C169.497 190.893 169.297 191.553 169.244 192.3Z" fill="black" />
    <path d="M99.6816 45.5C108.182 55.5 126.382 80.4 127.182 96" stroke="black" stroke-width="2" />
    <path d="M126.144 105.517C126.43 105.99 127.044 106.142 127.517 105.856C127.99 105.57 128.142 104.956 127.856 104.483L126.144 105.517ZM84.6873 65.3693C88.8613 67.7427 96.3583 73.0218 104.261 80.1071C112.162 87.1914 120.414 96.0329 126.144 105.517L127.856 104.483C121.986 94.7671 113.579 85.7753 105.596 78.6179C97.6141 71.4615 90.0019 66.0906 85.6759 63.6307L84.6873 65.3693Z" fill="black" />
    <path d="M122.549 110.775C122.977 111.124 123.607 111.06 123.956 110.632C124.305 110.204 124.241 109.574 123.813 109.225L122.549 110.775ZM82.844 84.1086C82.2985 84.1947 81.9261 84.7068 82.0122 85.2523C82.0984 85.7978 82.6104 86.1702 83.156 86.0841L82.844 84.1086ZM123.813 109.225C114.321 101.481 106.137 94.9222 99.3667 90.4511C95.9808 88.2149 92.9142 86.4775 90.1877 85.3745C87.4737 84.2766 85.0016 83.7679 82.844 84.1086L83.156 86.0841C84.7984 85.8248 86.874 86.1915 89.4377 87.2286C91.9889 88.2606 94.9301 89.9178 98.2645 92.12C104.935 96.5256 113.041 103.018 122.549 110.775L123.813 109.225ZM83.3943 86.0542C90.7315 88.2553 95.0889 91.1371 99.3507 95.3815C101.502 97.5244 103.632 100.017 106.119 102.976C108.599 105.927 111.424 109.328 114.937 113.242L116.425 111.907C112.939 108.021 110.138 104.649 107.65 101.689C105.168 98.7365 102.985 96.1785 100.762 93.9644C96.2741 89.4947 91.6318 86.4373 83.969 84.1385L83.3943 86.0542Z" fill="black" />
    <path d="M157.682 44C151.849 51.5 140.099 73.4 142.499 85" stroke="black" stroke-width="2" />
    <path d="M99.6816 45.5C105.682 54.5 117.982 77.2 117.182 92" stroke="black" stroke-width="2" />
    <path d="M131.221 106.222C131.068 106.753 131.373 107.307 131.904 107.46C132.434 107.614 132.989 107.308 133.142 106.778L131.221 106.222ZM179.182 53.4998L179.494 54.4499L179.182 53.4998ZM141.027 105.767C140.899 106.304 141.23 106.844 141.767 106.973C142.304 107.101 142.844 106.77 142.973 106.233L141.027 105.767ZM133.142 106.778C135.111 99.9699 139.809 89.129 147.482 78.8596C155.155 68.5914 165.75 58.9636 179.494 54.4499L178.87 52.5497C164.612 57.2325 153.707 67.1881 145.88 77.6624C138.054 88.1355 133.253 99.1963 131.221 106.222L133.142 106.778ZM179.494 54.4499C179.698 54.3827 179.838 54.3439 179.927 54.3247C180.059 54.296 179.978 54.3331 179.819 54.3019C179.726 54.2838 179.463 54.2137 179.265 53.9415C179.051 53.6463 179.075 53.3404 179.108 53.1957C179.156 52.9845 179.265 52.8925 179.182 52.9897C179.079 53.1111 178.842 53.3346 178.428 53.6895C178.028 54.0316 177.512 54.4553 176.887 54.967C174.393 57.0083 170.291 60.3401 165.701 64.8631C156.533 73.8979 145.34 87.7567 141.027 105.767L142.973 106.233C147.16 88.7437 158.058 75.2029 167.105 66.2877C171.623 61.8357 175.661 58.555 178.154 56.5148C178.775 56.0061 179.309 55.5677 179.729 55.2084C180.133 54.8621 180.484 54.545 180.702 54.2894C180.781 54.198 180.985 53.9585 181.057 53.6408C181.103 53.4429 181.121 53.094 180.883 52.7662C180.662 52.4614 180.356 52.3691 180.203 52.3392C179.923 52.2842 179.646 52.3391 179.503 52.3701C179.317 52.4105 179.102 52.4732 178.87 52.5497L179.494 54.4499ZM84.5935 65.3089C89.9475 69.2027 101.809 81.4408 107.735 98.8228L109.628 98.1775C103.554 80.3595 91.4158 67.7976 85.7698 63.6914L84.5935 65.3089Z" fill="black" />
    <path d="M132.19 92.8688C132.118 93.4163 132.503 93.9189 133.05 93.9914C133.598 94.0638 134.101 93.6787 134.173 93.1312L132.19 92.8688ZM134.173 93.1312C134.911 87.5585 137.31 77.7956 141.365 68.2406C145.433 58.6525 151.086 49.4703 158.226 44.839L157.137 43.161C149.477 48.1297 143.63 57.7808 139.524 67.4594C135.403 77.1711 132.953 87.1081 132.19 92.8688L134.173 93.1312Z" fill="black" />
    <path d="M160.182 108L160.531 108.937L160.182 108ZM146.682 133L146.949 133.963L147.104 133.92L147.237 133.832L146.682 133ZM173.608 88.1937C174.159 88.2345 174.638 87.8211 174.679 87.2704C174.72 86.7196 174.306 86.24 173.756 86.1992L173.608 88.1937ZM175.998 87.4487C176.522 87.2741 176.805 86.7077 176.63 86.1838C176.456 85.6598 175.889 85.3767 175.365 85.5513L175.998 87.4487ZM112.682 132L111.863 132.575L112.04 132.826L112.327 132.935L112.682 132ZM108.796 105.493C109.345 105.43 109.738 104.934 109.675 104.386C109.612 103.837 109.116 103.443 108.567 103.507L108.796 105.493ZM126.183 105.542C126.206 106.093 126.671 106.522 127.223 106.499C127.775 106.476 128.204 106.01 128.181 105.458L126.183 105.542ZM135.682 58L136.665 58.1821L137.332 54.5776L134.927 57.3438L135.682 58ZM133.032 101.252C133.172 101.787 133.718 102.107 134.252 101.968C134.787 101.828 135.107 101.282 134.968 100.748L133.032 101.252ZM98.768 108.91C108.131 113.166 133.438 119.037 160.531 108.937L159.833 107.063C133.32 116.947 108.566 111.167 99.5957 107.089L98.768 108.91ZM160.531 108.937C160.504 108.947 160.297 109.022 160.024 108.922C159.706 108.804 159.57 108.551 159.526 108.42C159.49 108.312 159.501 108.252 159.499 108.3C159.497 108.334 159.489 108.403 159.465 108.515C159.365 108.982 159.084 109.772 158.629 110.839C157.733 112.942 156.265 115.877 154.615 118.924C152.967 121.967 151.151 125.095 149.565 127.581C148.772 128.825 148.043 129.896 147.428 130.71C146.782 131.566 146.342 132.024 146.127 132.168L147.237 133.832C147.771 133.475 148.395 132.748 149.024 131.916C149.684 131.043 150.443 129.923 151.251 128.657C152.869 126.121 154.709 122.95 156.374 119.876C158.036 116.807 159.537 113.809 160.469 111.624C160.928 110.547 161.277 109.605 161.42 108.934C161.457 108.761 161.486 108.583 161.496 108.409C161.505 108.249 161.502 108.023 161.424 107.79C161.339 107.534 161.134 107.2 160.719 107.046C160.349 106.909 160.016 106.994 159.833 107.063L160.531 108.937ZM131.769 111.997C134.921 111.723 138.324 109.912 141.765 107.542C145.227 105.157 148.897 102.082 152.56 99.1264C156.248 96.1501 159.943 93.2833 163.539 91.2205C167.147 89.1506 170.529 87.9655 173.608 88.1937L173.756 86.1992C170.085 85.9272 166.279 87.3424 162.543 89.4857C158.795 91.636 154.99 94.5952 151.304 97.5699C147.592 100.565 144.011 103.566 140.63 105.895C137.227 108.238 134.193 109.778 131.595 110.004L131.769 111.997ZM143.656 112.88C150.398 109.25 152.701 104.605 156.096 100.239C159.472 95.8978 164.181 91.3873 175.998 87.4487L175.365 85.5513C163.182 89.6121 158.141 94.3516 154.517 99.0109C150.913 103.645 148.966 107.75 142.708 111.12L143.656 112.88ZM112.327 132.935C117.305 134.823 132.294 138.034 146.949 133.963L146.414 132.036C132.269 135.965 117.725 132.844 113.036 131.065L112.327 132.935ZM113.5 131.425C110.757 127.518 106.797 121.64 103.826 116.697C102.337 114.219 101.118 112.011 100.422 110.417C100.067 109.603 99.8841 109.03 99.8383 108.691C99.814 108.511 99.8461 108.518 99.8092 108.612C99.7405 108.789 99.5573 108.951 99.3462 108.986L99.0175 107.013C98.5064 107.098 98.1232 107.431 97.9458 107.886C97.8003 108.259 97.8151 108.653 97.8563 108.958C97.9413 109.588 98.2205 110.373 98.5888 111.217C99.3394 112.936 100.614 115.235 102.112 117.727C105.117 122.727 109.106 128.648 111.863 132.575L113.5 131.425ZM108.567 103.507C107.088 103.677 104.651 104.16 102.571 104.811C101.535 105.135 100.535 105.516 99.7755 105.946C99.3979 106.159 99.0318 106.411 98.7483 106.71C98.4698 107.004 98.1819 107.439 98.1819 108H100.182C100.182 108.156 100.102 108.189 100.199 108.086C100.291 107.989 100.468 107.852 100.76 107.687C101.339 107.359 102.183 107.028 103.168 106.72C105.129 106.106 107.442 105.649 108.796 105.493L108.567 103.507ZM161.014 107.445C160.741 107.036 160.281 106.637 159.753 106.281C159.204 105.909 158.506 105.535 157.686 105.199C156.045 104.528 153.872 104 151.334 104V106C153.597 106 155.514 106.472 156.93 107.051C157.638 107.34 158.211 107.653 158.633 107.938C159.077 108.237 159.289 108.463 159.35 108.554L161.014 107.445ZM128.181 105.458C127.933 99.5027 128.057 89.9856 129.236 80.8277C129.825 76.249 130.675 71.7838 131.864 67.9089C133.058 64.0185 134.569 60.8032 136.436 58.6562L134.927 57.3438C132.794 59.7968 131.18 63.319 129.952 67.3223C128.719 71.3412 127.85 75.926 127.252 80.5723C126.056 89.8644 125.931 99.4973 126.183 105.542L128.181 105.458ZM134.698 57.8179C133.856 62.3689 132.831 70.8613 132.318 79.3645C132.061 83.6192 131.93 87.8923 132.016 91.688C132.102 95.4667 132.402 98.8363 133.032 101.252L134.968 100.748C134.398 98.5634 134.1 95.383 134.016 91.6428C133.931 87.9198 134.059 83.7053 134.314 79.4851C134.824 71.0383 135.841 62.631 136.665 58.1821L134.698 57.8179Z" fill="black" />
    <defs>
        <filter id="filter0_d_37_9" x="0" y="0" width="257" height="257" filterUnits="userSpaceOnUse" color-interpolation-filters="sRGB">
            <feFlood flood-opacity="0" result="BackgroundImageFix" />
            <feColorMatrix in="SourceAlpha" type="matrix" values="0 0 0 0 0 0 0 0 0 0 0 0 0 0 0 0 0 0 127 0" result="hardAlpha" />
            <feOffset dy="4" />
            <feGaussianBlur stdDeviation="8" />
            <feComposite in2="hardAlpha" operator="out" />
            <feColorMatrix type="matrix" values="0 0 0 0 0.591667 0 0 0 0 0.591667 0 0 0 0 0.591667 0 0 0 0.25 0" />
            <feBlend mode="normal" in2="BackgroundImageFix" result="effect1_dropShadow_37_9" />
            <feBlend mode="normal" in="SourceGraphic" in2="effect1_dropShadow_37_9" result="shape" />
        </filter>
    </defs>
</svg>
    