<svg width="70" height="72" viewBox="0 0 70 72" fill="none" xmlns="http://www.w3.org/2000/svg">
<path d="M25.3063 31.2956C25.3063 44.3926 16.044 59.337 10.4718 59.337C4.89967 59.337 16.0581 40.9433 16.0581 27.8463C16.0581 14.7492 5.33625 10.9075 10.9084 10.9075C16.4806 10.9075 25.3063 18.1985 25.3063 31.2956Z" fill="#BEE8FF"/>
<path d="M54.9741 33.5953C54.9741 46.6923 58.5642 52.7934 64.1364 52.7934C69.7085 52.7934 63.2638 46.6923 63.2638 33.5953C63.2638 20.4982 67.9631 18.3247 62.3909 18.3247C59.3371 20.9425 54.9741 20.4982 54.9741 33.5953Z" fill="#BEE8FF"/>
<path d="M44.0662 2.1814C46.8294 15.2705 48.691 47.295 34.0312 70.6808" stroke="white"/>
<path d="M9.59863 11.3438C18.1792 16.1431 30.1921 32.4608 9.59863 59.337" stroke="white"/>
<path d="M65.4442 19.1973C60.9357 23.7057 54.6239 36.5621 65.4442 51.9199" stroke="white"/>
<path d="M69.3083 35.7768C69.3083 55.2713 53.8935 71.0536 34.9042 71.0536C15.9148 71.0536 0.5 55.2713 0.5 35.7768C0.5 16.2822 15.9148 0.5 34.9042 0.5C53.8935 0.5 69.3083 16.2822 69.3083 35.7768Z" stroke="white"/>
<path d="M0.436523 36.6485C8.14453 29.9586 32.6356 19.371 68.936 30.5403M17.8886 60.645C18.9066 62.0994 22.5134 65.1826 28.7962 65.8807M43.1941 65.8807C46.1028 65.4444 52.7055 63.4374 55.8469 58.8998" stroke="white"/>
</svg>
