<svg xmlns="http://www.w3.org/2000/svg" xmlns:xlink="http://www.w3.org/1999/xlink" version="1.1" id="Layer_1" x="0px" y="0px" viewBox="0 0 130 119" style="enable-background:new 0 0 130 119;" xml:space="preserve">
  <style type="text/css">
    .st0{fill:#FFFFFF;}
    .st1{fill:#FFFFFF;stroke:#000000;stroke-miterlimit:10;}
    .st2{fill:#FFFFFF;stroke:#000000;stroke-width:0.25;stroke-miterlimit:10;}
    .st3{stroke:#000000;stroke-width:0.25;stroke-miterlimit:10;}
    .st4{fill:#ACD4F7;stroke:#000000;stroke-width:0.25;stroke-miterlimit:10;}
    .st5{fill:#ACD4F7;}
    .st6{opacity:0.1294;}
    .st7{fill:#ACD4F7;stroke:#000000;stroke-width:1.5;stroke-miterlimit:10;}
    .st8{fill:#ACD4F7;stroke:#000000;stroke-width:0.5;stroke-miterlimit:10;}
  </style>
  <g>
    <g>
      <path class="st7" d="M66.37,117c-15.85-15.48-51.7-59.13-55.08-64.93c-4.07-6.98-6.47-15.09-5.57-23.08    C7.37,14.38,21.22,2.05,36.27,1.81S62.96,13.43,65.98,27.3C67.92,16.17,80.05,0.85,94.02,1c13.98,0.15,29.29,8.38,31.24,25.31    c0.89,7.73-1.88,18.1-6.25,26.88C105.89,79.53,78.18,105.66,66.37,117z"/>
    </g>
    <g>
      <path d="M5.08,32.36c-0.12,0-0.24-0.04-0.34-0.13c-0.21-0.19-0.22-0.51-0.04-0.72C14.02,21.22,24.1,11.43,34.66,2.4    c0.21-0.18,0.53-0.16,0.71,0.06c0.18,0.21,0.16,0.53-0.06,0.71c-10.53,9-20.58,18.76-29.87,29.02C5.35,32.3,5.21,32.36,5.08,32.36    z"/>
    </g>
    <g>
      <path d="M14.87,36.75c-0.12,0-0.23-0.04-0.33-0.12c-0.21-0.18-0.24-0.5-0.06-0.71c9.52-11.31,19.97-22,31.07-31.77    c0.21-0.19,0.53-0.16,0.71,0.05c0.19,0.21,0.17,0.53-0.05,0.71C35.16,14.64,24.74,25.3,15.26,36.57    C15.16,36.69,15.02,36.75,14.87,36.75z"/>
    </g>
    <g>
      <path d="M26.97,35.96c-0.13,0-0.25-0.05-0.35-0.14c-0.2-0.19-0.21-0.51-0.02-0.72l19.81-20.77c0.19-0.2,0.51-0.21,0.72-0.02    c0.2,0.19,0.21,0.51,0.02,0.72L27.33,35.8C27.23,35.9,27.1,35.96,26.97,35.96z"/>
    </g>
    <g>
      <path d="M40.38,37.15c-0.12,0-0.24-0.04-0.34-0.13c-0.21-0.19-0.23-0.51-0.04-0.71l9.35-10.49c0.18-0.21,0.51-0.23,0.71-0.04    c0.21,0.19,0.23,0.51,0.04,0.71l-9.35,10.49C40.66,37.09,40.52,37.15,40.38,37.15z"/>
    </g>
  </g>
  </svg>