<svg xmlns="http://www.w3.org/2000/svg" width="145" height="105" viewBox="0 0 145 105">
    <g id="Group_248" data-name="Group 248" transform="translate(423.802 694.779)">
      <path id="Path_220" data-name="Path 220" d="M-368.752-664.986c.3-.314.575-.6.846-.9,5.7-6.247,12.441-10.722,20.913-12.229,5.984-1.064,11.92-1.008,17.613,1.34,7.118,2.935,11.25,8.233,11.859,16.006.5,6.433-1.39,12.263-4.789,17.665A65.855,65.855,0,0,1-332.754-631c-5.946,5.731-11.826,11.533-17.89,17.136-4.32,3.992-8.859,7.75-13.373,11.527-2.585,2.163-3.708,2.119-6.472.17-.868-.612-1.729-1.244-2.53-1.938-4.094-3.545-8.929-5.931-13.529-8.682-5.474-3.274-10.976-6.508-15.894-10.6-5.639-4.7-10.232-10.233-12.745-17.208-2.736-7.593-2.062-14.935,2.56-21.671a23.682,23.682,0,0,1,13.088-9.158c9.229-2.82,18.077-1.947,26.419,3.054a23.144,23.144,0,0,1,2.268,1.6C-370.147-666.223-369.487-665.615-368.752-664.986Zm8.775,27.948c.826-.165,1.543-.3,2.258-.452,5.419-1.113,10.85-1.822,16.393-.911,2.659.437,5.355.638,8.028,1a4.384,4.384,0,0,0,4.612-2.277c1.781-2.928,3.582-5.856,5.148-8.9a24.918,24.918,0,0,0,2.691-10.7,13.369,13.369,0,0,0-4.193-10.76,19.29,19.29,0,0,0-11.642-5.021,37.9,37.9,0,0,0-21.888,4.708c-3.459,1.843-6.7,3.987-8.408,7.793a1.579,1.579,0,0,1-2.55.622c-1.073-.736-2.014-1.661-3.05-2.454a24.043,24.043,0,0,0-3.892-2.8,28.462,28.462,0,0,0-21.24-1.543,22.688,22.688,0,0,0-10.924,6.885c-4.964,5.772-5.606,12.3-3.184,19.316.233.676.55.882,1.245.762,6.01-1.035,12.027-2.025,18.035-3.074a27.843,27.843,0,0,1,7.615-.766,3.687,3.687,0,0,1,3.283,2.325c.318.75.565,1.53.852,2.294.478,1.272.931,2.555,1.462,3.805a5.426,5.426,0,0,0,.843,1.1l.3-.074c.219-1.275.43-2.552.657-3.825.358-2.006.662-4.025,1.119-6.009.2-.877.6-1.879,1.779-1.827,1.126.049,1.437,1.044,1.622,1.9.355,1.646.6,3.319.81,4.992.271,2.16.446,4.332.7,6.494a6.535,6.535,0,0,0,.436,1.3.823.823,0,0,0,.349-.508c1.1-5.917,2.212-11.833,3.294-17.754a42.987,42.987,0,0,1,2.249-8.929,7.585,7.585,0,0,1,1.27-2.069,1.56,1.56,0,0,1,1.3-.344c.3.067.614.593.687.961a10.687,10.687,0,0,1,.079,1.951c.017,1.932-.087,3.873.061,5.794.281,3.665.69,7.32,1.072,10.977C-360.489-641.1-360.229-639.13-359.978-637.038Zm-15.215-2.162-.281,0c-.1.715-.2,1.43-.29,2.146-.215,1.729-.357,3.47-.66,5.183-.172.971-.6,1.936-1.768,2.112a2.5,2.5,0,0,1-2.47-1.421,4.114,4.114,0,0,1-.414-.7c-.394-.927-.822-1.844-1.14-2.8-.766-2.3-1.494-4.614-2.2-6.934-.258-.847-.718-1.16-1.565-.841a2,2,0,0,1-.319.07c-7.219,1.426-14.433,2.892-21.81,3.259-.557.028-1.113.074-1.792.119.177.39.288.659.42.917a38.627,38.627,0,0,0,9.819,11.9A114.1,114.1,0,0,0-384.7-616.092a130.319,130.319,0,0,1,15.209,10.029c.943.764,1.869,1.55,2.816,2.338l.6-.557q6.265-5.869,12.528-11.741,8.481-7.985,16.936-16c.739-.7,1.387-1.5,2.165-2.344a6.239,6.239,0,0,0-.623-.139q-2.158-.2-4.316-.381a85,85,0,0,0-13.382-.553c-2.391.174-4.774.409-6.891,1.764a1.833,1.833,0,0,1-2.624-.736,6.369,6.369,0,0,1-1-2.465c-.284-2.265-.413-4.55-.547-6.831s-.189-4.572-.309-6.856a7.385,7.385,0,0,0-.3-1.281.678.678,0,0,0-.334.46c-1,5.551-2.054,11.094-2.983,16.657-.534,3.2-.8,6.437-1.322,9.636a40.287,40.287,0,0,1-1.329,5.214c-.123.4-.688.946-1.038.937a2.042,2.042,0,0,1-1.367-.8,4.666,4.666,0,0,1-.78-1.865,39.232,39.232,0,0,1-.658-4.6c-.228-3.343-.329-6.695-.528-10.04C-374.839-637.238-375.051-638.217-375.193-639.2Z"/>
      <path id="Path_221" data-name="Path 221" d="M-341.485-618.932c-.251-2.092-.511-4.058-.717-6.03-.382-3.657-.791-7.312-1.072-10.977-.147-1.922-.044-3.862-.061-5.794a10.687,10.687,0,0,0-.079-1.951c-.072-.368-.391-.895-.687-.961a1.56,1.56,0,0,0-1.3.344,7.585,7.585,0,0,0-1.27,2.069,42.987,42.987,0,0,0-2.249,8.929c-1.082,5.921-2.192,11.837-3.294,17.754a.823.823,0,0,1-.349.508,6.535,6.535,0,0,1-.436-1.3c-.257-2.162-.432-4.334-.7-6.494-.21-1.672-.455-3.346-.81-4.992-.185-.855-.5-1.85-1.622-1.9-1.182-.051-1.577.95-1.779,1.827-.457,1.984-.761,4-1.119,6.009-.227,1.274-.439,2.55-.657,3.825l-.3.074a5.426,5.426,0,0,1-.843-1.1c-.531-1.25-.984-2.533-1.462-3.805-.287-.764-.534-1.544-.852-2.294a3.687,3.687,0,0,0-3.283-2.325,27.843,27.843,0,0,0-7.615.766c-6.007,1.049-12.025,2.039-18.035,3.074-.695.12-1.012-.086-1.245-.762-2.422-7.02-1.78-13.545,3.184-19.316a22.688,22.688,0,0,1,10.924-6.885,28.462,28.462,0,0,1,21.24,1.543,24.043,24.043,0,0,1,3.892,2.8c1.036.793,1.977,1.719,3.05,2.454a1.579,1.579,0,0,0,2.55-.622c1.709-3.806,4.949-5.95,8.408-7.793a37.9,37.9,0,0,1,21.888-4.708,19.29,19.29,0,0,1,11.642,5.021,13.369,13.369,0,0,1,4.193,10.76,24.918,24.918,0,0,1-2.691,10.7c-1.566,3.044-3.368,5.971-5.148,8.9a4.384,4.384,0,0,1-4.612,2.277c-2.673-.358-5.369-.558-8.028-1-5.543-.911-10.974-.2-16.393.911C-339.942-619.237-340.658-619.1-341.485-618.932Z" transform="translate(-18.493 -18.106)" fill="#e3f3ff"/>
      <path id="Path_222" data-name="Path 222" d="M-339.918-501.457c.142.983.354,1.962.413,2.95.2,3.345.3,6.7.528,10.04a39.231,39.231,0,0,0,.658,4.6,4.666,4.666,0,0,0,.78,1.865,2.042,2.042,0,0,0,1.367.8c.349.009.915-.535,1.038-.937a40.294,40.294,0,0,0,1.329-5.214c.522-3.2.789-6.439,1.322-9.636.929-5.563,1.979-11.106,2.983-16.657a.678.678,0,0,1,.334-.46,7.385,7.385,0,0,1,.3,1.281c.121,2.285.174,4.573.309,6.856s.264,4.567.547,6.831a6.37,6.37,0,0,0,1,2.465,1.833,1.833,0,0,0,2.624.736c2.116-1.356,4.5-1.59,6.891-1.764a85,85,0,0,1,13.382.553q2.158.183,4.316.381a6.23,6.23,0,0,1,.623.139c-.777.847-1.426,1.643-2.165,2.344q-8.452,8.017-16.936,16-6.25,5.885-12.528,11.741l-.6.557c-.948-.788-1.873-1.574-2.816-2.338a130.315,130.315,0,0,0-15.209-10.029,114.1,114.1,0,0,1-14.964-10.093,38.626,38.626,0,0,1-9.819-11.9c-.132-.258-.242-.528-.42-.917.679-.046,1.235-.092,1.792-.119,7.378-.367,14.591-1.833,21.81-3.259a2,2,0,0,0,.319-.07c.846-.319,1.306-.006,1.565.841.707,2.319,1.435,4.633,2.2,6.934.317.954.746,1.871,1.14,2.8a4.116,4.116,0,0,0,.414.7,2.5,2.5,0,0,0,2.47,1.421c1.171-.176,1.6-1.141,1.768-2.112.3-1.713.445-3.454.66-5.183.089-.716.193-1.431.29-2.146Z" transform="translate(-35.275 -137.743)" fill="#70b5e9"/>
    </g>
    <g id="Rectangle_199" data-name="Rectangle 199" fill="none" stroke="transparent" stroke-width="1">
      <rect width="145" height="105" stroke="none"/>
      <rect x="0.5" y="0.5" width="144" height="104" fill="none"/>
    </g>
  </svg>
  