<svg width="152" height="150" viewBox="0 0 152 150" fill="none" xmlns="http://www.w3.org/2000/svg">
<path d="M135.09 17.9999H126.317V29.3623H114.726V37.6537H126.317V49.0161H135.09V37.6537H146.682V29.3623H135.09V17.9999Z" fill="#BEE8FF" stroke="white" strokeWidth="0.5" strokeLinecap="round"/>
<path d="M1.07328 60.3567C0.13171 58.0067 8.59151 57.537 7.65246 60.3567V130.378C5.39733 133.01 2.3267 131.788 1.07328 130.848V60.3567Z" fill="#333436"/>
<path d="M1.07328 60.3567C2.32646 61.2966 5.39674 62.6124 7.65246 60.3567M1.07328 60.3567C0.13171 58.0067 8.59151 57.537 7.65246 60.3567M1.07328 60.3567V130.848C2.3267 131.788 5.39733 133.01 7.65246 130.378C7.65246 126.994 7.65246 82.2873 7.65246 60.3567" stroke="white" strokeWidth="0.5" strokeLinecap="round"/>
<path d="M143.936 90.5467C143.015 89.1954 151.291 88.9254 150.372 90.5467V130.811C148.166 132.324 145.162 131.622 143.936 131.081V90.5467Z" fill="#333436"/>
<path d="M143.936 90.5467C145.162 91.0872 148.165 91.8438 150.372 90.5467M143.936 90.5467C143.015 89.1954 151.291 88.9254 150.372 90.5467M143.936 90.5467V131.081C145.162 131.622 148.166 132.324 150.372 130.811C150.372 128.865 150.372 103.157 150.372 90.5467" stroke="white" strokeWidth="0.5" strokeLinecap="round"/>
<path d="M7.57761 83.3217C7.57761 83.3217 7.65073 92.9396 7.65073 94.1928H148.163C151.381 94.1928 150.983 90.9324 150.983 87.1437C150.983 82.3818 148.006 83.0708 146.753 82.9142C103.205 83.0708 4.19403 83.3217 7.57761 83.3217Z" fill="#333436" stroke="white" strokeWidth="0.5" strokeLinecap="round"/>
<path d="M45.5821 82.9784C46.0029 84.95 47.449 86.6202 49.118 87.7648C50.7869 88.9095 52.7366 89.5862 54.6292 90.2636C56.1777 90.8283 57.7834 91.3925 59.332 91.9572C60.9917 92.2302 62.7091 92.5607 64.3689 92.8337C65.5132 92.9959 66.6582 93.2162 67.7405 92.9141C68.8228 92.612 69.7847 91.73 70.174 90.7378C71.1881 89.3903 71.6837 87.6414 71.5516 85.9573C73.8384 86.1074 76.1806 86.0825 78.3476 85.7108C78.7994 79.8359 77.9373 73.9749 76.961 68.1152C75.988 67.9511 75.0156 67.8452 73.9868 67.798C73.3886 70.6523 72.9619 73.5047 72.6506 76.4721C71.0996 75.6749 69.5485 74.8777 67.9975 74.0805C67.9398 74.023 67.8255 74.0242 67.7684 74.0248C67.6542 74.026 67.5405 74.0853 67.4269 74.1447C66.3489 74.8536 65.0393 75.2743 63.6683 75.2889C62.7389 73.8457 61.8666 72.402 61.0502 70.8414C58.8106 69.7609 56.6281 68.6798 54.4443 67.4825C54.4351 66.6108 54.4829 65.7385 54.8158 64.805C52.5364 65.3523 50.3171 66.1896 48.2723 67.3156C47.5905 67.6715 46.9658 68.0269 46.4008 68.6141C45.8922 69.1426 45.4426 69.8448 45.3941 70.659C48.7824 72.3085 52.1707 73.958 55.5596 75.6656C52.0972 77.7947 48.7539 80.3875 45.5821 82.9784Z" fill="#BEE8FF"/>
<path d="M110.769 83.2758C111.627 83.3829 112.428 83.4325 113.285 83.4234C113.456 83.4216 113.627 83.4198 113.741 83.3604C114.139 83.1819 114.191 82.6582 114.186 82.2514C114.176 81.2635 114.223 80.275 114.212 79.287C114.205 78.6478 114.256 78.0079 114.135 77.3699C113.453 77.784 112.946 78.4287 112.668 79.1291C112.332 79.8301 112.17 80.6455 112.064 81.4022C111.607 81.407 111.207 81.4113 110.75 81.4161C110.756 81.9973 110.763 82.6365 110.769 83.2758Z" fill="#BEE8FF"/>
<path d="M110.674 73.9793C111.532 74.0864 112.332 74.136 113.189 74.1269C113.36 74.1251 113.532 74.1233 113.645 74.0639C114.043 73.8853 114.095 73.3617 114.091 72.9549C114.08 71.967 114.127 70.9785 114.116 69.9905C114.11 69.3513 114.16 68.7114 114.039 68.0734C113.358 68.4875 112.85 69.1322 112.572 69.8326C112.237 70.5336 112.074 71.349 111.968 72.1057C111.511 72.1105 111.111 72.1148 110.654 72.1196C110.661 72.7589 110.667 73.3981 110.674 73.9793Z" fill="#BEE8FF"/>
<path d="M77.4823 69.3886C88.5616 68.9804 99.6488 69.3276 110.629 70.3734C110.642 71.5937 110.597 72.7566 110.668 73.9764C101.121 73.4385 91.5262 73.7728 81.7695 74.9808C82.2947 76.0213 81.6799 77.3065 82.2046 78.289C89.8686 79.0794 97.4755 79.8704 105.133 80.0796C107.019 80.0596 108.905 80.1558 110.677 80.2532C110.749 81.6474 110.707 83.1008 110.493 84.4398C108.213 84.929 105.868 84.6633 103.58 84.4551C95.2884 83.7295 86.8947 84.1674 78.5673 85.4764C78.7189 83.6149 78.6992 81.7553 78.4509 79.8981C78.3287 79.1438 78.207 78.4477 78.1425 77.7509C77.7689 74.8489 78.1379 71.939 77.4823 69.3886Z" fill="#333436"/>
<path d="M67.1987 74.3835C67.2317 72.1165 66.4079 69.8586 64.7905 68.1903C64.7352 68.3652 64.4496 68.3682 64.2776 68.312C64.1056 68.2557 63.9324 68.0831 63.761 68.085C63.5896 68.0868 63.3636 68.3217 63.4791 68.4367C63.1928 68.3816 62.8489 68.269 62.5626 68.2139C62.4477 68.157 62.3335 68.1582 62.2199 68.2176C62.1062 68.2769 62.1075 68.3931 62.1093 68.5675C62.1223 69.7878 63.2188 70.8224 63.174 71.9852C62.8853 71.6977 62.7096 71.2927 62.5345 70.9459C62.3594 70.599 62.0695 70.1952 61.669 70.1414C61.6118 70.142 61.5547 70.1426 61.4405 70.1438C61.3268 70.2031 61.3281 70.3194 61.3864 70.435C61.5763 72.1766 62.6771 73.6179 63.7767 74.9429C63.8345 75.0005 63.8345 75.0005 63.8922 75.058C63.9493 75.0574 64.0064 75.0568 64.0636 75.0561C65.2055 74.9859 66.2884 74.7419 67.1987 74.3835Z" fill="#333436"/>
<path d="M55.7848 75.3772C52.173 74.195 49.1741 71.5534 45.2195 70.3748C44.8325 71.5995 44.5599 72.8229 44.4611 74.2769C43.3204 74.4634 42.1791 74.5918 40.7479 74.3164C40.1563 72.4047 39.166 70.6135 37.5542 69.4682C35.9423 68.3229 33.8815 67.938 31.8839 68.1336C29.9435 68.3285 28.0658 69.0459 26.2464 69.8789C23.9725 70.9492 21.8147 72.1927 19.6575 73.4942C21.3419 76.0917 23.0853 78.863 23.3459 81.8824C23.3613 83.3353 23.4339 84.7875 23.5642 86.2972C23.5654 86.4135 23.5673 86.5878 23.6822 86.6447C23.797 86.7016 23.9119 86.7585 24.0261 86.7573C25.1693 86.8033 26.313 86.9074 27.4561 86.9533C27.52 87.592 27.299 88.2918 27.42 88.9298C27.7173 90.0309 29.2634 90.3632 30.1707 89.7143C31.0773 89.0072 31.2922 87.7263 31.0519 86.6245C33.1048 86.254 35.0986 85.7098 36.9161 84.7024C38.7336 83.6951 40.3171 82.1671 41.1542 80.2984C41.266 80.0647 41.3778 79.8311 41.6051 79.7124C41.7187 79.6531 41.8329 79.6519 42.0049 79.7082C42.6339 79.7596 43.2623 79.7529 43.8342 79.805C44.0056 79.8032 44.1769 79.8013 44.3495 79.9158C44.5793 80.0296 44.6966 80.3189 44.814 80.6083C45.0505 81.3613 45.3441 82.1137 45.5807 82.8668C48.9245 80.3321 52.1547 77.8568 55.7848 75.3772Z" fill="#333436"/>
<path d="M15.5929 72.8948C15.873 72.3688 16.556 72.1291 17.185 72.1805C17.6998 72.2332 18.2735 72.4595 18.6771 72.804C18.9652 73.0334 19.1968 73.3215 19.429 73.6678C22.2099 77.2998 23.5738 81.993 23.5076 86.5271C24.7687 86.9205 26.141 87.0222 27.4524 86.7758C27.176 87.6505 27.3585 88.6948 27.8806 89.4448C26.1663 89.4049 24.4513 89.3068 22.845 88.6846C21.2387 88.0623 19.7982 86.9152 19.096 85.3534C17.7618 83.4496 17.0528 81.2486 16.3445 79.1057C15.8131 77.484 15.3388 75.8617 15.3209 74.1764C15.3159 73.7115 15.3687 73.3041 15.5929 72.8948Z" fill="#333436"/>
<path d="M31.054 86.563C31.8525 86.4382 32.5933 86.256 33.3329 85.9576C33.6172 85.8383 33.9588 85.7184 34.245 85.7735C34.1934 86.2971 33.7985 86.7663 33.4029 87.1773C33.0645 87.5878 32.6112 87.9413 32.0977 88.0049C31.5836 88.0103 31.1229 87.6665 31.0031 87.1447C30.9428 86.8547 30.9398 86.5642 31.054 86.563Z" fill="#333436"/>
<path d="M31.774 77.0843C31.7736 77.0495 31.7736 77.0495 31.7732 77.0147C31.7275 76.9456 31.6374 76.9466 31.5477 76.9823C31.0546 77.1963 30.2881 77.1 29.9245 76.7908C29.788 76.6532 29.6514 76.5155 29.6042 76.3073C29.4185 75.7875 29.503 75.2648 29.8599 74.9479C30.0382 74.7721 30.3072 74.6649 30.577 74.6272C30.7121 74.6258 30.8922 74.6239 31.0284 74.7268C31.1188 74.7606 31.2089 74.7597 31.2535 74.7244C31.2978 74.6544 31.2971 74.5848 31.2517 74.5505C31.0705 74.4481 30.8446 74.3809 30.5748 74.4186C30.215 74.4572 29.8562 74.6001 29.6333 74.8112C29.1875 75.2333 29.1037 75.8256 29.3351 76.4145C29.4277 76.657 29.565 76.8642 29.7466 77.0014C30.2467 77.4483 31.1484 77.5431 31.7758 77.2582C31.73 77.1891 31.7743 77.119 31.774 77.0843Z" fill="white"/>
<path d="M36.7097 76.0456C36.6992 75.0576 36.2317 74.0746 35.4251 73.4438C35.3103 73.3869 35.196 73.3881 35.1401 73.5049C35.0842 73.6218 35.0855 73.738 35.2003 73.7949C36.1795 74.5401 36.5942 75.9305 36.1489 77.0395C36.093 77.1564 36.1514 77.272 36.2662 77.3289C36.3811 77.3858 36.4947 77.3265 36.5506 77.2096C36.6606 76.8016 36.714 76.4523 36.7097 76.0456Z" fill="white"/>
<path d="M41.6451 77.8496C41.6302 76.4549 41.2733 75.1219 40.917 73.8471C40.0845 70.7756 37.3166 68.3639 34.1132 67.9911C31.5389 67.6697 28.9781 68.6268 26.59 69.6984C23.8603 70.8898 21.7019 72.0751 19.7732 73.3742C19.7167 73.4329 19.6602 73.4916 19.6608 73.5498C18.9083 72.6278 18.0458 72.1139 17.1306 72.0074C16.7872 71.9529 16.3308 72.0159 15.9334 72.2526C15.3094 72.6661 15.2038 73.4809 15.2099 74.062C15.075 77.4925 16.5377 80.7317 18.2295 84.0266C18.6386 84.894 19.1632 85.8765 19.858 86.7409C20.5522 87.5472 21.4736 88.2349 22.5633 88.6301C24.0572 89.4279 25.8311 89.6997 27.4841 89.3334C27.6008 89.5647 27.7175 89.7959 27.9479 89.9678C28.4092 90.3698 29.1537 90.5362 29.8373 90.3546C30.6346 90.1136 31.3139 89.5252 31.5915 88.7667C31.8704 88.1244 31.8052 87.3696 31.5128 86.7334C33.6786 86.2454 35.9569 85.5819 37.8297 84.3996C39.9862 83.0399 41.3934 81.0489 41.7139 78.9532C41.6531 78.6051 41.6488 78.1983 41.6451 77.8496ZM19.834 73.7223C19.8911 73.7217 19.9483 73.7211 19.9476 73.663C21.8192 72.3644 23.9782 71.2372 26.7079 70.0458C29.0396 69.033 31.5432 68.0765 34.0604 68.3985C37.0924 68.7731 39.6877 71.0704 40.4612 73.9682C40.8771 75.4749 41.3526 77.2134 41.0849 78.9017C40.7632 80.8812 39.4113 82.6973 37.4261 84.0552C35.4968 85.2962 33.1608 85.9022 30.9379 86.3907C30.8807 86.3914 30.8242 86.4501 30.7677 86.5088C30.7683 86.5669 30.769 86.625 30.7696 86.6831C31.1185 87.2606 31.2402 87.9568 30.9613 88.5991C30.7396 89.2407 30.1733 89.7117 29.4896 89.8933C28.9196 90.0156 28.3477 89.9636 28.0013 89.6185C27.6555 89.3316 27.5363 88.8679 27.5301 88.2868C27.5282 88.1124 27.5835 87.9375 27.5823 87.8213C27.6357 87.472 27.6885 87.0646 27.5699 86.659C27.5116 86.5434 27.4538 86.4859 27.3396 86.4871C25.7984 86.6197 24.4839 86.5755 23.4532 86.354C23.3547 82.461 22.3994 78.5771 20.5908 75.051C20.4716 74.5873 20.1811 74.1254 19.834 73.7223ZM27.3451 87.0101C27.4047 87.2419 27.3507 87.5331 27.2967 87.8243C27.2985 87.9986 27.2432 88.1736 27.2451 88.3479C27.2475 88.5804 27.2494 88.7547 27.2513 88.9291C25.712 89.236 24.0522 88.963 22.6732 88.2221C21.6977 87.8256 20.777 87.1961 20.1405 86.4473C19.4464 85.641 18.9795 84.716 18.5704 83.8486C16.9357 80.5531 15.4736 77.372 15.6098 74.0577C15.6589 73.3017 15.8254 72.8349 16.1656 72.5988C16.4494 72.4215 16.8493 72.4172 17.0778 72.4148C18.3358 72.5177 19.3745 73.4947 20.366 75.4021C22.1739 78.8701 23.1293 82.754 23.1707 86.6476C23.1719 86.7638 23.2296 86.8213 23.3445 86.8782C24.4324 87.0992 25.804 87.1427 27.3451 87.0101Z" fill="white"/>
<path d="M34.7589 85.9464C34.7583 85.8883 34.7576 85.8302 34.6999 85.7727C34.585 85.7158 34.4708 85.717 34.4143 85.7757C33.625 86.7721 32.5477 87.5391 31.3523 87.9587C31.2387 88.018 31.1828 88.1348 31.2412 88.2504C31.2995 88.3661 31.4144 88.423 31.528 88.3636C32.7799 87.8854 33.9143 87.1178 34.7601 86.0626C34.7601 86.0626 34.7595 86.0045 34.7589 85.9464Z" fill="white"/>
<path d="M24.6863 73.6144C24.3442 73.6762 24.0622 74.0279 24.1802 74.3754C24.241 74.7234 24.5862 74.9523 24.9284 74.8905C25.2705 74.8287 25.5524 74.477 25.4345 74.1296C25.3737 73.7815 25.0284 73.5527 24.6863 73.6144Z" fill="white"/>
<path d="M27.6961 82.4716C27.3539 82.5333 27.072 82.885 27.19 83.2325C27.2508 83.5806 27.596 83.8094 27.9381 83.7476C28.2803 83.6859 28.5622 83.3342 28.4442 82.9867C28.3834 82.6386 28.0382 82.4098 27.6961 82.4716Z" fill="white"/>
<path d="M44.575 74.4471C44.5744 74.389 44.5744 74.389 44.575 74.4471C44.5738 74.3309 44.4583 74.2159 44.344 74.2171L41.204 74.4248C41.0897 74.426 40.9767 74.5435 40.978 74.6597C40.9792 74.7759 41.0947 74.8909 41.2089 74.8897L44.349 74.682C44.4626 74.6227 44.5762 74.5634 44.575 74.4471Z" fill="white"/>
<path d="M71.8818 84.5626C71.8689 83.3422 71.7441 82.3555 71.5623 81.3694C71.2618 79.9777 69.0939 74.8861 67.6571 74.0877C67.4274 73.9739 67.256 73.9757 67.0281 74.0363C65.4919 74.6338 64.5797 74.8178 63.952 74.8826C63.2106 75.0067 63.1633 75.9372 63.113 76.577C63.1142 76.6932 63.1155 76.8095 63.0596 76.9263C62.7464 79.7194 62.6065 82.685 62.5902 86.5211C61.103 86.3625 59.9022 86.259 58.7013 86.1556C57.4433 86.0527 56.1853 85.9498 54.584 85.7924C54.4697 85.7937 54.3561 85.853 54.3573 85.9692C54.3585 86.0854 54.4169 86.2011 54.5312 86.1998C56.1325 86.3572 57.3905 86.4601 58.6485 86.563C59.9065 86.6658 61.1645 86.7687 62.7659 86.9261C62.823 86.9255 62.8801 86.9249 62.9366 86.8661C62.9931 86.8074 62.9925 86.7493 62.9919 86.6912C63.007 82.7389 63.1463 79.7151 63.4588 76.8639C63.4576 76.7477 63.4564 76.6315 63.5123 76.5147C63.562 75.8167 63.6129 75.235 64.0128 75.2307C64.6971 75.1072 65.6664 74.9225 67.2026 74.325C67.2597 74.3244 67.3739 74.3232 67.4317 74.3807C68.6381 75.0072 70.7459 79.8088 71.1053 81.3742C71.3449 82.4178 71.4715 83.5789 71.4298 85.0323C71.3936 87.0088 71.1234 88.4647 70.5086 89.7498C69.7827 91.3268 68.4805 92.4449 67.0561 92.8087C65.5745 93.1732 63.9707 92.7834 62.5954 92.3912C62.0223 92.2229 61.392 92.0552 60.7047 91.8882C56.3508 90.772 49.7635 89.1565 46.8094 85.3519C46.0562 84.3719 45.7576 83.1545 45.4584 81.8791C45.2784 81.0673 45.099 80.3137 44.7482 79.5618C44.6905 79.5043 44.6328 79.4468 44.5756 79.4474C43.4896 79.4008 42.4043 79.4124 41.376 79.4233C41.2617 79.4245 41.1487 79.5419 41.15 79.6582C41.1512 79.7744 41.2667 79.8894 41.3809 79.8882C42.4092 79.8773 43.4374 79.8664 44.4663 79.9135C44.7594 80.6079 44.9388 81.3615 45.0604 82.0577C45.3596 83.3331 45.6594 84.6667 46.5274 85.7036C49.597 89.6232 55.9559 91.2411 60.6531 92.4118C61.3405 92.5788 61.9707 92.7465 62.5438 92.9148C63.9191 93.307 65.6378 93.7537 67.233 93.3299C68.7717 92.9649 70.1869 91.7293 70.9687 90.0355C71.5835 88.7504 71.9096 87.1777 71.888 85.1437C71.8862 84.9694 71.8843 84.795 71.8818 84.5626Z" fill="white"/>
<path d="M54.7645 64.9241C54.7645 64.9241 54.7639 64.8659 54.7645 64.9241C54.7055 64.7503 54.5907 64.6934 54.4764 64.6946C53.052 65.0585 51.571 65.4811 50.205 65.9605C48.9531 66.4388 47.6448 66.9758 46.6264 67.9165C44.9293 69.5038 44.4411 71.95 44.1231 74.2782C44.1243 74.3944 44.1827 74.51 44.2969 74.5088C44.4112 74.5076 44.5248 74.4482 44.5236 74.332C44.7864 72.1788 45.2752 69.7907 46.9151 68.204C47.877 67.322 49.1282 66.7856 50.3235 66.3661C51.6896 65.8866 53.1134 65.4647 54.5379 65.1008C54.6521 65.0996 54.7657 65.0403 54.7645 64.9241Z" fill="white"/>
<path d="M67.3695 74.2052L67.364 73.6821C67.364 73.6821 67.364 73.6821 67.3634 73.624C67.2442 73.1603 67.2392 72.6954 67.1772 72.2311C67.1741 71.9406 67.1126 71.5344 66.8811 71.2462C66.5241 69.9133 65.8256 68.7002 64.7869 67.7232C64.7292 67.6656 64.672 67.6663 64.6149 67.6669C64.5578 67.6675 64.5006 67.6681 64.4441 67.7268C64.3311 67.8442 64.2752 67.9611 64.2771 68.1354C64.0461 67.9054 63.758 67.676 63.4146 67.6215C63.3575 67.6221 63.2433 67.6233 63.1868 67.682C63.0737 67.7995 63.0185 67.9744 63.0197 68.0906C62.6739 67.8037 62.3299 67.6911 61.9884 67.811C61.9312 67.8116 61.8754 67.9284 61.8188 67.9872C61.7132 68.802 62.0634 69.4957 62.4136 70.1894C62.5309 70.4788 62.6476 70.71 62.7649 70.9993C62.7066 70.8837 62.6488 70.8262 62.6476 70.71C62.4148 70.3056 62.0094 69.7869 61.3797 69.6773C61.2655 69.6785 61.1519 69.7378 61.1531 69.8541C60.9338 70.7282 61.1728 71.7137 61.8695 72.7525C62.1017 73.0987 62.391 73.4444 62.6232 73.7906C62.9703 74.1938 63.318 74.655 63.5514 75.1175C63.6098 75.2331 63.724 75.2319 63.8376 75.1726C63.9513 75.1133 63.95 74.997 63.8917 74.8814C63.6005 74.3614 63.2534 73.9583 62.9057 73.497C62.6735 73.1508 62.3848 72.8632 62.1526 72.517C61.7466 71.9401 61.3368 71.0145 61.4418 70.1416C61.7858 70.2542 62.018 70.6004 62.1925 70.8892C62.2508 71.0048 62.3092 71.1204 62.3681 71.2942C62.5432 71.641 62.6606 71.9304 62.9493 72.2179C63.007 72.2754 63.1219 72.3323 63.1784 72.2736C63.2355 72.273 63.2914 72.1562 63.3479 72.0974C63.397 71.3414 63.0469 70.6476 62.7538 69.9533C62.4614 69.3171 62.1696 68.739 62.2206 68.1573C62.5633 68.1536 62.8533 68.5574 63.0271 68.788C63.607 69.5955 64.0733 70.4624 64.483 71.3879C64.5414 71.5036 64.6563 71.5605 64.7699 71.5011C64.8835 71.4418 64.9394 71.325 64.8811 71.2094C64.6433 70.3401 64.2919 69.5301 63.7697 68.7801C63.5375 68.4339 63.4208 68.2026 63.4761 68.0277C63.763 68.1409 63.9945 68.429 64.2255 68.659C64.6316 69.2359 65.0376 69.8128 65.3872 70.4484C65.4455 70.564 65.5604 70.6209 65.674 70.5616C65.7877 70.5023 65.8435 70.3855 65.7852 70.2698L64.9116 68.7099C64.8527 68.5361 64.7943 68.4205 64.7359 68.3049C65.6021 69.1675 66.1844 70.2075 66.483 71.4248C66.4836 71.4829 66.4836 71.4829 66.5414 71.5404C66.7146 71.713 66.7177 72.0035 66.7208 72.2941C66.7257 72.759 66.7878 73.2233 66.9076 73.7451L66.9132 74.2681C66.9144 74.3844 67.0299 74.4994 67.1441 74.4982C67.2578 74.4388 67.3708 74.3214 67.3695 74.2052Z" fill="white"/>
<path d="M78.6329 85.768C78.6317 85.6518 78.5162 85.5368 78.4019 85.538C76.4038 85.6754 74.0051 85.759 71.8909 85.7234C71.7766 85.7246 71.6636 85.842 71.6648 85.9582C71.6661 86.0745 71.7816 86.1895 71.8958 86.1883C74.0101 86.2239 76.4087 86.1403 78.464 86.0023C78.5211 86.0017 78.6341 85.8842 78.6329 85.768Z" fill="white"/>
<path d="M78.8297 82.511C78.8266 82.2204 78.8242 81.988 78.8217 81.7555C78.4873 77.1676 78.0387 72.5809 77.4764 68.0535C77.4752 67.9373 77.3603 67.8804 77.3032 67.881C76.1601 67.835 75.1306 67.7297 74.1011 67.6244L74.0464 67.8575L74.0489 68.0899L74.0464 67.8575L74.0489 68.0899C75.0212 68.1958 75.9936 68.3017 77.0796 68.3483C77.6413 72.8176 78.0893 77.3462 78.3659 81.8766C78.4379 83.2707 78.2875 85.2484 78.18 85.8889C78.1813 86.0051 78.2396 86.1207 78.3539 86.1195C78.4681 86.1183 78.5818 86.059 78.5805 85.9427C78.7451 85.3017 78.8439 83.8476 78.8297 82.511Z" fill="white"/>
<path d="M56.1256 75.4319C56.1256 75.4319 56.125 75.3738 56.1256 75.4319C56.1244 75.3157 56.0667 75.2581 56.0095 75.2588C52.0488 73.4991 48.6033 71.8502 45.5007 70.1977C45.3858 70.1408 45.2722 70.2001 45.2163 70.3169C45.1604 70.4338 45.2187 70.5494 45.3336 70.6063C48.3214 72.2019 51.652 73.7939 55.4979 75.4967C52.0361 77.6839 48.7481 80.1017 45.6911 82.7496C45.5775 82.8089 45.5793 82.9832 45.6942 83.0401C45.7526 83.1558 45.9239 83.1539 45.9798 83.0371C49.1504 80.3299 52.5514 77.7946 56.1275 75.6062C56.0697 75.5487 56.1263 75.49 56.1256 75.4319Z" fill="white"/>
<path d="M48.7063 76.2067C48.7051 76.0905 48.7038 75.9743 48.6455 75.8587C48.5853 75.5687 48.412 75.3962 48.2394 75.2818C47.7222 74.9967 47.1485 74.7703 46.5754 74.602C46.3463 74.5463 46.1165 74.4325 45.8321 74.5518C45.6043 74.6123 45.264 74.8484 45.1565 75.4889C44.9919 76.13 44.9993 76.8273 45.1781 77.5229C45.2979 78.0447 45.5301 78.3909 45.8741 78.5035C46.4478 78.7299 47.0148 78.317 47.4116 78.0222L48.0909 77.4338C48.261 77.3158 48.4306 77.1396 48.5423 76.9059C48.6541 76.6723 48.7088 76.4392 48.7063 76.2067ZM48.0146 75.6329C48.0724 75.6904 48.1879 75.8054 48.1891 75.9216C48.2487 76.1535 48.2512 76.3859 48.1388 76.5615C48.0264 76.7371 47.9133 76.8545 47.7432 76.9725L47.0639 77.561C46.7807 77.7964 46.3274 78.15 45.9257 77.9799C45.6966 77.9242 45.5792 77.6348 45.4613 77.2874C45.3409 76.7075 45.3341 76.0682 45.4421 75.4859C45.4968 75.2528 45.608 74.961 45.8358 74.9005C45.9495 74.8411 46.1786 74.8968 46.2935 74.9537C46.9808 75.1208 47.4974 75.3478 48.0146 75.6329Z" fill="white"/>
<path d="M52.8537 73.9512C52.8537 73.9512 52.8531 73.8931 52.8537 73.9512C52.8518 73.7768 52.737 73.7199 52.6227 73.7212C51.0257 73.9706 49.4882 74.4519 48.0681 75.2225C47.9545 75.2819 47.8986 75.3987 47.9569 75.5143C48.0153 75.6299 48.1302 75.6868 48.2438 75.6275C49.6074 74.9156 51.0877 74.4349 52.6276 74.1861C52.7984 74.1261 52.8549 74.0674 52.8537 73.9512Z" fill="white"/>
<path d="M52.1511 77.6208C52.1499 77.5046 52.0344 77.3896 51.9202 77.3908C50.6063 77.4047 49.3477 77.2438 48.0866 76.8503C47.9717 76.7934 47.8581 76.8527 47.8022 76.9696C47.7463 77.0864 47.8047 77.202 47.9195 77.2589C49.1806 77.6524 50.5541 77.8703 51.8674 77.7982C52.0965 77.8539 52.1524 77.737 52.1511 77.6208Z" fill="white"/>
<path d="M45.503 75.3112C45.5024 75.2531 45.5017 75.1949 45.444 75.1374C45.1553 74.8499 44.9231 74.5037 44.6909 74.1574C44.6325 74.0418 44.5183 74.043 44.4046 74.1023C44.291 74.1616 44.2922 74.2779 44.3506 74.3935C44.5828 74.7397 44.8156 75.1441 45.1615 75.431C45.2198 75.5467 45.3912 75.5448 45.4471 75.428C45.5042 75.4274 45.5036 75.3693 45.503 75.3112Z" fill="white"/>
<path d="M45.6424 78.2727C45.6418 78.2146 45.5834 78.099 45.5263 78.0996C45.4114 78.0427 45.2978 78.102 45.2413 78.1607L44.457 79.6221C44.4011 79.7389 44.4594 79.8545 44.5172 79.912C44.632 79.9689 44.7457 79.9096 44.8022 79.8509L45.5865 78.3895C45.5859 78.3314 45.6424 78.2727 45.6424 78.2727Z" fill="white"/>
<path d="M110.862 70.1437C110.861 70.0275 110.745 69.9125 110.688 69.9131C99.4257 69.219 88.2844 69.163 77.4287 69.1039C77.3144 69.1051 77.2014 69.2226 77.2027 69.3388C77.2039 69.455 77.3194 69.57 77.4336 69.5688C88.1751 69.6291 99.3164 69.6851 110.464 70.3804C110.468 70.671 110.471 71.0197 110.475 71.3683C110.484 72.1819 110.436 73.1124 110.444 73.8097C101.298 73.3838 91.7631 73.95 82.5131 74.4551L81.8848 74.4618C81.8276 74.4624 81.7705 74.463 81.714 74.5217C81.6575 74.5804 81.6581 74.6385 81.6587 74.6966C81.6612 74.9291 81.6649 75.2778 81.7257 75.6258C81.7927 76.5551 81.8044 77.6592 81.869 78.356C81.8702 78.4722 81.9851 78.5291 82.0422 78.5285C91.4809 79.6488 101.029 80.3029 110.456 80.3771C110.461 80.7839 110.466 81.307 110.472 81.83C110.481 82.7017 110.49 83.5734 110.497 84.2126C108.043 84.4131 105.355 84.2091 102.782 84.004C101.066 83.8478 99.2944 83.7504 97.5806 83.7686C94.6666 83.7414 91.6991 84.0636 88.9025 84.3257L78.7434 85.3054C78.6292 85.3066 78.5161 85.4241 78.5745 85.5397C78.5757 85.6559 78.6912 85.7709 78.8049 85.7116L88.9645 84.79C91.8183 84.5272 94.7293 84.2638 97.6427 84.2329C99.2993 84.2153 101.072 84.3708 102.787 84.4689C105.474 84.6728 108.219 84.8761 110.73 84.617C110.844 84.6158 110.9 84.4989 110.899 84.4408C110.949 83.7429 110.939 82.7549 110.929 81.8251C110.923 81.244 110.916 80.6629 110.912 80.1979C110.911 80.1398 110.91 80.0817 110.853 80.0242C110.795 79.9667 110.738 79.9673 110.681 79.9679C101.253 79.8937 91.705 79.2395 82.2664 78.1193C82.2019 77.4225 82.1907 76.3765 82.125 75.5635C82.1219 75.2729 82.1194 75.0405 82.117 74.808L82.574 74.8032C91.8811 74.2975 101.474 73.7887 110.677 74.2141C110.734 74.2135 110.791 74.2129 110.847 74.1542C110.904 74.0954 110.903 74.0373 110.903 73.9792C110.839 73.3406 110.884 72.2358 110.875 71.3641C110.87 70.8992 110.865 70.4343 110.862 70.1437Z" fill="white"/>
<path d="M114.565 80.1595C114.555 79.1716 114.43 78.1849 114.249 77.2569C114.248 77.1987 114.19 77.1412 114.133 77.0837C114.075 77.0262 114.018 77.0268 113.961 77.0856C113.279 77.3834 112.886 78.085 112.606 78.6111C112.158 79.4876 111.824 80.3048 111.776 81.119C111.49 81.064 111.204 81.067 110.862 81.1287C110.748 81.13 110.635 81.2474 110.693 81.363C110.694 81.4792 110.81 81.5943 110.923 81.5349C111.265 81.4732 111.609 81.5277 111.895 81.5827C111.952 81.5821 112.009 81.5815 112.066 81.5228C112.122 81.4641 112.122 81.406 112.121 81.3479C112.17 80.5918 112.447 79.717 112.951 78.7818C113.175 78.3725 113.455 77.8465 113.909 77.5511C114.151 78.8271 114.165 80.1637 114.066 81.6178C114.013 81.9671 114.017 82.3158 113.907 82.7238C113.907 82.7819 113.852 82.8987 113.795 82.9574C113.682 83.0749 113.454 83.1354 113.283 83.1372C112.769 83.1427 112.311 83.0894 111.796 83.0368C111.51 82.9817 111.167 82.9853 110.824 82.9309C110.71 82.9321 110.596 82.9914 110.597 83.1076C110.598 83.2239 110.657 83.3395 110.771 83.3383C111.172 83.3921 111.457 83.3891 111.743 83.4442C112.258 83.4968 112.773 83.5495 113.287 83.544C113.573 83.541 113.915 83.4792 114.141 83.2444C114.254 83.1269 114.253 83.0107 114.309 82.8939C114.418 82.4859 114.471 82.0785 114.468 81.7298C114.577 81.2637 114.571 80.6825 114.565 80.1595Z" fill="white"/>
<path d="M114.466 70.9176C114.455 69.9297 114.33 68.943 114.149 68.015C114.148 67.9569 114.091 67.8994 114.033 67.8418C113.975 67.7843 113.918 67.7849 113.862 67.8437C113.179 68.1415 112.787 68.8431 112.507 69.3692C112.059 70.2457 111.725 71.063 111.676 71.8772C111.39 71.8221 111.104 71.8251 110.762 71.8869C110.648 71.8881 110.535 72.0055 110.593 72.1211C110.595 72.2374 110.71 72.3524 110.824 72.2931C111.166 72.2313 111.509 72.2858 111.795 72.3409C111.853 72.3402 111.91 72.3396 111.966 72.2809C112.023 72.2222 112.022 72.1641 112.022 72.106C112.071 71.3499 112.347 70.4752 112.851 69.5399C113.075 69.1307 113.355 68.6046 113.809 68.3092C114.051 69.5853 114.066 70.9219 113.967 72.3759C113.913 72.7252 113.917 73.0739 113.807 73.4819C113.808 73.54 113.752 73.6568 113.695 73.7156C113.582 73.833 113.355 73.8935 113.183 73.8954C112.669 73.9008 112.211 73.8476 111.697 73.7949C111.41 73.7398 111.068 73.7435 110.724 73.689C110.61 73.6902 110.496 73.7495 110.498 73.8658C110.499 73.982 110.557 74.0976 110.671 74.0964C111.072 74.1503 111.358 74.1472 111.644 74.2023C112.159 74.255 112.673 74.3076 113.187 74.3021C113.473 74.2991 113.815 74.2374 114.041 74.0025C114.154 73.885 114.153 73.7688 114.209 73.652C114.319 73.244 114.372 72.8366 114.368 72.4879C114.477 71.9637 114.471 71.4406 114.466 70.9176Z" fill="white"/>
<g opacity="0.1294">
<path d="M41.364 78.4945C41.3609 78.2039 41.3578 77.9133 41.3541 77.5646C41.3529 77.4484 41.3523 77.3903 41.3511 77.2741C41.3504 77.216 41.2921 77.1003 41.2908 76.9841C41.1139 76.4629 40.937 75.9417 40.8737 75.3612C40.8147 75.1875 40.8694 74.9544 40.9246 74.7794C41.2041 74.1953 42.1765 74.3012 42.3546 74.9386C42.5365 75.9247 42.7755 76.9102 42.786 77.8982C42.7891 78.1887 42.7921 78.4793 42.7381 78.7705C42.7406 79.0029 42.6853 79.1779 42.5158 79.354C41.8942 79.9999 40.9715 79.1961 41.364 78.4945Z" fill="white"/>
</g>
<g opacity="0.1294">
<path d="M22.8057 84.5589C22.5164 84.2133 22.6859 84.0371 22.5649 83.3991C22.5649 83.3991 22.6245 83.6309 22.5661 83.5153C22.4451 82.8773 22.324 82.2392 22.2601 81.6006C22.2546 81.0776 21.6531 78.2361 21.1868 77.3692C20.7205 76.5024 20.2549 75.6937 19.8458 74.8262C19.7278 74.4787 19.4385 74.1331 19.4919 73.7838C19.6006 73.2596 20.3991 73.1349 20.6326 73.5973C21.159 74.7541 21.8563 75.851 22.3834 77.0659C22.97 78.5127 23.386 80.0194 23.5169 81.5873C23.5814 82.284 23.7031 82.9802 23.6527 83.62C23.6564 83.9687 23.7191 84.4911 23.3211 84.6697C23.2081 84.7871 22.9218 84.7321 22.8057 84.5589Z" fill="white"/>
</g>
<g opacity="0.1294">
<path d="M45.2341 82.343C45.287 81.9356 45.6272 81.6995 45.8527 81.4065C47.8323 79.5257 49.4176 78.1721 51.5729 76.6962C52.0827 76.2839 52.6497 75.8711 53.1601 75.5169C52.8732 75.4037 52.6435 75.2899 52.3566 75.1767C52.2418 75.1198 52.0698 75.0636 51.9537 74.8904C51.5483 74.3717 52.1692 73.6676 52.6871 74.0108C53.3191 74.3528 53.3763 74.3522 53.8929 74.5792C54.122 74.6349 54.3517 74.7487 54.5815 74.8625C55.0968 74.9733 55.3905 75.7257 54.8235 76.1386C53.6866 76.6737 52.667 77.4982 51.5884 78.149C49.8863 79.2714 48.8114 80.2708 47.2261 81.6244C46.9436 81.918 46.6604 82.1535 46.3779 82.4471C46.0953 82.7407 46.3232 82.6802 45.9252 82.8588C45.6414 83.0361 45.2385 82.7498 45.2341 82.343Z" fill="white"/>
</g>
<g opacity="0.1294">
<path d="M63.8356 75.2875C63.147 75.0042 63.3638 73.8976 64.107 73.9478C64.6212 73.9423 65.3619 73.7601 66.2163 73.5186C66.7274 73.2225 67.3601 73.6227 67.1949 74.2056C67.1408 74.4968 66.7999 74.6748 66.5156 74.794C66.2312 74.9133 65.3774 75.213 64.636 75.3371C64.4069 75.2814 64.1225 75.4006 63.8356 75.2875Z" fill="white"/>
</g>
<g opacity="0.1294">
<path d="M66.0338 93.3994C65.6898 93.2868 65.5141 92.8818 65.6818 92.5313C65.8501 92.2389 66.2493 92.1766 66.5337 92.0573C66.5908 92.0567 66.6474 91.998 66.7616 91.9968C66.8181 91.9381 66.9317 91.8787 67.1019 91.7607C67.385 91.5252 67.9514 91.0542 68.4587 90.4095C69.1921 89.5299 69.5311 89.1776 69.9758 88.0105C70.3099 87.1933 70.7993 84.8633 70.7366 84.3409C70.7802 83.0618 70.602 82.4243 70.4785 81.5538C70.2377 80.394 69.7124 79.3534 69.3008 78.2535C69.1829 77.906 68.9507 77.5598 69.0041 77.2105C69.055 76.6288 69.9113 76.5615 70.0317 77.1415C70.4452 78.4157 71.0288 79.5719 71.3851 80.8468C71.5645 81.6004 71.5725 82.3559 71.6942 83.052C71.8171 83.8644 71.7115 84.6792 71.663 85.4934C71.5599 86.5407 71.4002 87.6466 70.9537 88.6394C70.8413 88.815 70.7866 89.048 70.6742 89.2236C70.7891 89.2805 70.8475 89.3961 70.8487 89.5123C70.9089 89.8023 70.74 90.0366 70.6282 90.2702C70.4047 90.7376 70.1234 91.1474 69.7843 91.4997C69.105 92.0881 68.253 92.5621 67.3999 92.9199C67.2862 92.9793 67.1726 93.0386 67.059 93.0979C66.7181 93.2759 66.3772 93.4539 66.0338 93.3994Z" fill="white"/>
</g>
<g opacity="0.1294">
<path d="M78.2242 84.7848C78.1081 84.6117 78.1057 84.3792 78.161 84.2043C78.2684 83.5638 78.2138 83.7969 78.2641 83.157C78.4163 81.3537 78.2829 79.5534 78.0924 77.7537C77.9603 76.0696 77.771 74.3861 77.6382 72.6439C77.5712 71.7147 77.4545 71.4835 77.2714 70.3812C77.2118 70.1493 77.0957 69.9762 77.1504 69.7431C77.1989 68.9289 78.3979 68.8581 78.5773 69.6117C78.815 70.481 78.9963 71.409 79.1198 72.2795C79.3066 73.7305 79.2655 75.2421 79.3952 76.6937C79.4684 78.204 79.5993 79.7719 79.5582 81.2834C79.46 82.7956 79.4047 82.9705 79.3072 84.5408C79.2562 85.1226 78.5148 85.2467 78.2242 84.7848Z" fill="white"/>
</g>
<path d="M20.1525 76.68C19.688 75.9875 19.1094 75.2962 18.4755 74.7799C17.7838 74.206 16.9797 73.8077 16.2358 73.6994C16.1787 73.7 16.1787 73.7 16.1793 73.7581C16.1806 73.8743 16.2377 73.8737 16.2948 73.8731C17.0387 73.9814 17.785 74.3222 18.4196 74.8967C19.0535 75.413 19.575 76.1049 20.0388 76.7393C20.0394 76.7975 20.0966 76.7968 20.1531 76.7381C20.1531 76.7381 20.1531 76.7381 20.1525 76.68Z" fill="white"/>
<path d="M21.0312 79.4052C21.0305 79.3471 21.0305 79.3471 21.0312 79.4052C20.2166 78.019 19.0052 76.9276 17.5703 76.3035C17.5132 76.3041 17.5132 76.3041 17.4567 76.3628C17.4573 76.4209 17.4573 76.4209 17.515 76.4784C18.8928 77.1031 20.1042 78.1945 20.8604 79.4651C20.861 79.5232 20.9181 79.5226 20.9747 79.4639C21.0312 79.4052 21.0312 79.4052 21.0312 79.4052Z" fill="white"/>
<path d="M21.4034 81.5544C20.8216 80.5726 20.0697 79.7088 19.206 79.0786C19.1489 79.0792 19.1489 79.0792 19.0918 79.0798C19.0924 79.1379 19.0924 79.1379 19.093 79.1961C19.9567 79.8262 20.708 80.6319 21.232 81.5563C21.2326 81.6144 21.2897 81.6138 21.3462 81.555C21.404 81.6126 21.4034 81.5544 21.4034 81.5544Z" fill="white"/>
<path d="M54.5755 94.131C52.0462 94.131 52.2271 62.1746 48.9375 66.406C47.5265 59.825 116.126 63.1561 120.151 63.2587C151.383 64.0548 152.026 85.1994 150.443 94.131C127.972 94.9736 62.0946 94.131 54.5755 94.131Z" fill="#333436" stroke="white" strokeWidth="0.5" strokeLinecap="round"/>
<path d="M57.8623 70.1651C57.8623 70.6351 60.682 90.3726 59.2721 91.7824M60.212 76.7443C60.8386 81.1304 61.9038 90.2786 61.1519 91.7824M92.6379 64.5258C93.2645 72.3582 94.3297 88.4928 93.5778 90.3726M95.4576 69.6952C95.9275 74.3946 96.7734 84.5453 96.3975 87.553M98.2772 73.4547C98.5905 78.6241 99.0291 89.2447 98.2772 90.3726M116.135 66.4056C116.448 73.4547 116.793 87.8349 115.665 88.9628" stroke="white" strokeWidth="0.2" strokeLinecap="round"/>
</svg>
