<svg version="1.1" id="Ebene_1" xmlns="http://www.w3.org/2000/svg" xmlns:xlink="http://www.w3.org/1999/xlink" x="0px" y="0px" viewBox="0 0 326.2 73.7" style="enable-background:new 0 0 326.2 73.7;" xml:space="preserve"><style type="text/css">.st0{fill:#208FDF;}</style><path class="st0" d="M104.4,67.1c-9.4-2.2-19.3-1.8-28.7-1.8c-16.1,0-32.1-0.8-48.1-1.5c-8.6-0.3-17.3,1-27-1 c7-3.1,4.9-6.1,2.8-10.3C0.6,47.1,1.9,40.9,1.8,35c-0.1-3.8-1.7-8.4,8.2-9c1.4-0.1,1.7-0.9,1.2-1.6C7,18.8,11.7,13.5,12,8.1 c0.1-1-0.1-2.1-0.7-3.1c-3.6-5.3-3.6-5.5,5.8-4.8c24.8,1.8,49.7,1.7,74.5,3C109,4.2,126.5,5.6,144,5.5c22.5-0.1,44.9,1,67.4,1.7 c18.7,0.5,37.3,1.4,56,2.1c16.6,0.6,33.2,1,49.8,1.3c6.3,0.1,8,1.8,7.4,5.3c-1.7,9.4-1.4,18.9-0.6,28.4c0.3,3.3-1.8,6.6-3.4,9.2 c-3.3,5.4,1.3,12-7.2,16.8c-3.3,1.9-5.3,3.6-10.2,3.2c-25.7-1.9-51.6-0.8-77.3-3.3c-2.5-0.2-4.6,0.2-6.8,0.7 c-2.7-0.1-5.5-0.3-8.2-0.4c-8.5-0.8-17.1-1.6-25.6-0.7c-2.8-0.1-5.5-0.3-8.3-0.4c-6.2-0.3-12.4-1.8-18.5-0.3 c-3.7-0.2-7.3-0.4-11-0.6c-6.4-0.7-12.7-1.4-19.1-0.4C120.4,67.7,112.4,66.2,104.4,67.1z"/></svg>