<svg viewBox="0 0 1920 1370" fill="none" xmlns="http://www.w3.org/2000/svg">
    <path opacity="0.14" d="M0 308.234C0 308.234 125.5 -160.066 698.5 190.115C1271.5 540.296 1920 0 1920 0V1369.27C1920 1369.27 1406.5 753.106 851.5 1132.31C296.5 1511.51 0 1167.73 0 1167.73V308.234Z" fill="#31393F" />
    <path opacity="0.49" d="M243.321 458.342C241.255 461.142 237.814 464.482 239.421 468.551C241.028 472.62 245.621 474.773 249.989 475.079C252.138 475.22 254.369 475.079 256.4 475.761C260.017 477.079 262.33 481.148 266.135 481.783C268.166 482.124 270.292 481.372 272.311 481.783C275.129 482.418 276.891 485.122 278.805 487.299C286.437 495.944 301.115 497.061 309.957 489.652C312.634 487.417 314.924 484.465 318.236 483.371C326.667 480.571 334.898 491.263 343.552 489.252C347.075 488.417 350.152 485.476 353.792 485.723C357.432 485.97 360.379 489.393 364.066 490.052C366.238 490.44 368.446 489.816 370.654 489.899C375.867 490.075 380.048 494.027 384.334 496.956C394.679 504.118 410.085 505.671 419.161 496.956C421.956 494.274 424.175 490.687 427.827 489.393C433.227 487.464 439.57 491.404 444.807 489.064C448.33 487.511 450.361 483.524 454.013 482.418C458.713 481.007 463.536 485.112 468.468 484.712C471.756 484.441 474.503 482.229 477.392 480.618C481.866 478.118 487.009 476.949 491.483 474.373C495.957 471.797 499.796 467.046 498.939 461.973C498.239 457.833 494.454 454.716 490.391 453.74C486.328 452.764 482.03 453.399 477.967 454.457C476.934 454.854 475.796 454.892 474.738 454.563C473.708 453.888 472.983 452.837 472.719 451.634C470.793 446.107 467.719 439.167 461.869 439.508C457.301 439.779 454.4 444.66 450.126 446.308C442.165 449.389 432.912 440.427 425.244 444.214C423.107 445.261 421.416 447.225 419.103 447.814C415.956 448.625 412.691 446.567 410.883 443.914C409.075 441.261 408.183 438.033 406.926 435.034C405.173 430.839 402.534 427.073 399.19 423.994C395.846 420.914 391.876 418.594 387.551 417.192C383.187 415.852 378.563 415.594 374.077 416.439C369.591 417.285 365.377 419.209 361.8 422.046C356.61 426.292 353.169 432.42 347.791 436.419C343.001 439.94 337.06 441.527 331.152 440.865C327.452 440.441 323.895 439.148 320.197 438.795C316.499 438.442 312.341 439.277 310.075 442.229C308.231 444.582 308.02 447.84 307.275 450.768C306.53 453.696 304.668 456.849 301.662 457.143C297.247 457.578 295.086 452.097 292.268 448.663C290.103 446.211 287.113 444.64 283.865 444.25C280.618 443.859 277.34 444.676 274.655 446.546C271.073 449.227 268.725 453.846 264.38 454.908C261.092 455.72 257.746 454.167 254.48 453.226C251.214 452.285 247.071 452.262 245.157 455.061C244.288 456.331 244.276 457.025 243.325 458.319" fill="#F0F0F0" />
    <path d="M295.94 464.611C299.828 465.848 303.855 466.598 307.929 466.846C311.639 467.081 315.679 466.846 318.497 464.411C320.27 462.929 321.374 460.811 322.759 458.966C324.637 456.517 327.053 454.531 329.819 453.161C332.586 451.792 335.63 451.075 338.717 451.066C343.931 451.066 349.086 453.166 354.252 452.442C363.141 451.195 369.823 441.986 378.794 442.198C388.282 442.421 394.282 452.842 403.277 455.888C411.919 458.817 421.466 454.383 430.449 455.971C435.498 456.853 440.218 459.617 445.338 459.499C447.851 459.499 450.305 458.746 452.795 458.476C457.85 457.937 462.932 459.226 467.12 462.11C468.294 462.969 469.573 464.157 469.538 465.639C469.538 467.509 467.519 468.685 465.745 469.296C460.722 471.059 455.309 471.397 450.105 470.273C445.936 469.355 441.98 467.521 437.741 467.05C428.558 466.001 419.81 471.421 410.581 471.821C402.197 472.174 394.141 468.293 385.687 468.469C379.017 468.563 372.641 471.127 366.018 471.856C356.155 472.939 346.218 469.939 336.318 470.61C327.3 471.21 318.704 474.82 309.792 476.11C300.601 477.455 284.327 477.49 278.549 468.601C270.247 455.79 290.985 463.059 295.94 464.611Z" fill="#272424" />
    <path opacity="0.49" d="M1218.89 451.627C1226.6 454.259 1233.94 458.153 1242.02 458.908C1254.78 460.108 1267.12 453.32 1279.93 453.536C1286.4 453.644 1292.75 455.536 1299.23 455.336C1305.71 455.136 1312.81 452.026 1314.64 445.836C1316.59 439.356 1312.05 432.829 1307.47 427.842C1303.36 423.348 1298.55 418.869 1292.52 417.942C1284.81 416.772 1277.43 421.698 1269.69 421.39C1257.23 420.913 1249.53 407.999 1239.04 401.257C1233.95 398.074 1228.11 396.287 1222.1 396.073C1216.1 395.86 1210.15 397.228 1204.84 400.041C1202.94 400.905 1201.33 402.307 1200.22 404.074C1198.92 406.506 1199.34 409.492 1198.67 412.155C1197.13 417.555 1191.44 420.555 1186.03 421.975C1180.62 423.395 1174.76 423.93 1170.15 427.101C1165.55 430.272 1163.03 437.475 1166.96 441.461C1168.59 442.877 1170.53 443.885 1172.62 444.401C1179.67 446.71 1188.42 450.866 1195.88 450.789C1204.3 450.658 1210.35 448.641 1218.89 451.627Z" fill="#F0F0F0" />
    <path d="M1203.57 439.806C1207.84 439.236 1212.05 438.021 1216.37 437.836C1222.54 437.574 1228.7 439.452 1234.69 440.914C1243.07 442.819 1251.61 444.008 1260.2 444.47C1262.48 444.833 1264.81 444.466 1266.88 443.423C1267.97 442.678 1268.77 441.58 1269.16 440.313C1269.54 439.046 1269.46 437.687 1268.96 436.466C1268.33 435.344 1267.47 434.372 1266.43 433.62C1265.4 432.867 1264.2 432.352 1262.95 432.11C1260.47 431.433 1257.86 431.248 1255.47 430.355C1247.76 427.538 1244.4 418.673 1237.85 413.855C1233.86 411.118 1229.02 409.922 1224.23 410.488C1219.43 411.054 1215 413.345 1211.76 416.933C1208.77 420.489 1206.91 423.644 1202.62 425.815C1199.28 427.492 1196.07 428.631 1192.63 429.97C1188.33 431.633 1186.87 435.281 1191.2 438.036C1194.8 440.345 1199.53 440.345 1203.57 439.806Z" fill="#272424" />
    <path d="M1293.92 432.818C1293.03 432.211 1291.94 431.946 1290.87 432.071C1289.79 432.196 1288.8 432.703 1288.07 433.5C1287.33 434.296 1286.91 435.329 1286.88 436.41C1286.85 437.492 1287.2 438.549 1287.88 439.39C1288.53 440.146 1289.34 440.746 1290.25 441.145C1291.24 441.69 1292.33 442.012 1293.46 442.089C1294.58 442.166 1295.71 441.996 1296.76 441.591C1297.79 441.135 1298.6 440.294 1299.01 439.249C1299.43 438.203 1299.42 437.037 1298.98 436C1298.11 434.8 1296.87 433.915 1295.45 433.476L1292.23 432.106" fill="#272424" />
    <path opacity="0.49" d="M649.894 679.627C657.602 682.259 664.94 686.153 673.018 686.908C685.783 688.108 698.118 681.32 710.926 681.536C717.401 681.644 723.752 683.536 730.226 683.336C736.7 683.136 743.808 680.026 745.642 673.836C747.584 667.356 743.052 660.829 738.474 655.842C734.358 651.348 729.548 646.869 723.52 645.942C715.812 644.772 708.428 649.698 700.689 649.39C688.233 648.913 680.525 635.999 670.042 629.257C664.947 626.074 659.105 624.286 653.101 624.072C647.097 623.859 641.143 625.228 635.834 628.041C633.932 628.905 632.324 630.307 631.209 632.074C629.914 634.506 630.331 637.492 629.668 640.155C628.126 645.555 622.438 648.555 617.027 649.975C611.616 651.395 605.757 651.93 601.148 655.101C596.539 658.272 594.026 665.475 597.957 669.461C599.583 670.878 601.522 671.886 603.615 672.401C610.66 674.71 619.415 678.866 626.877 678.789C635.3 678.657 641.354 676.641 649.894 679.627Z" fill="#F0F0F0" />
    <path d="M634.571 667.806C638.841 667.237 643.05 666.021 647.366 665.836C653.533 665.574 659.699 667.452 665.68 668.914C674.069 670.819 682.604 672.008 691.194 672.47C693.474 672.833 695.81 672.466 697.869 671.423C698.963 670.68 699.768 669.582 700.147 668.315C700.526 667.047 700.456 665.688 699.95 664.466C699.329 663.344 698.468 662.372 697.429 661.619C696.39 660.866 695.198 660.351 693.938 660.11C691.456 659.433 688.851 659.248 686.461 658.355C678.753 655.538 675.392 646.673 668.841 641.855C664.859 639.118 660.019 637.922 655.22 638.488C650.422 639.054 645.993 641.345 642.757 644.933C639.766 648.489 637.901 651.644 633.615 653.815C630.27 655.492 627.063 656.631 623.626 657.97C619.326 659.633 617.86 663.281 622.192 666.036C625.8 668.345 630.532 668.345 634.571 667.806Z" fill="#272424" />
    <path d="M724.924 660.819C724.029 660.21 722.944 659.943 721.869 660.067C720.793 660.191 719.798 660.698 719.065 661.495C718.332 662.292 717.91 663.326 717.876 664.409C717.843 665.491 718.199 666.55 718.881 667.391C719.529 668.149 720.341 668.749 721.255 669.146C722.241 669.691 723.335 670.013 724.458 670.09C725.582 670.167 726.709 669.997 727.76 669.592C728.79 669.137 729.599 668.296 730.014 667.251C730.43 666.205 730.417 665.038 729.98 664.001C729.105 662.802 727.867 661.917 726.45 661.477L723.228 660.107" fill="#272424" />
    <path opacity="0.49" d="M299.321 944.341C297.255 947.141 293.814 950.481 295.421 954.55C297.028 958.619 301.621 960.772 305.989 961.078C308.138 961.219 310.369 961.078 312.4 961.76C316.017 963.078 318.33 967.147 322.135 967.782C324.166 968.123 326.292 967.371 328.311 967.782C331.129 968.417 332.891 971.122 334.805 973.298C342.437 981.943 357.115 983.06 365.957 975.651C368.634 973.416 370.924 970.464 374.236 969.37C382.667 966.57 390.898 977.262 399.552 975.251C403.075 974.416 406.152 971.475 409.792 971.722C413.432 971.969 416.379 975.392 420.066 976.051C422.238 976.439 424.446 975.815 426.654 975.898C431.867 976.074 436.048 980.026 440.334 982.955C450.679 990.117 466.085 991.67 475.161 982.955C477.956 980.273 480.175 976.686 483.827 975.392C489.227 973.463 495.57 977.403 500.807 975.063C504.33 973.51 506.361 969.523 510.013 968.417C514.713 967.006 519.536 971.111 524.468 970.711C527.756 970.44 530.503 968.229 533.392 966.618C537.866 964.118 543.009 962.948 547.483 960.372C551.957 957.796 555.796 953.045 554.939 947.972C554.239 943.832 550.454 940.715 546.391 939.739C542.328 938.763 538.03 939.398 533.967 940.456C532.934 940.853 531.796 940.891 530.738 940.562C529.708 939.887 528.983 938.836 528.719 937.633C526.793 932.106 523.719 925.166 517.869 925.507C513.301 925.778 510.4 930.659 506.126 932.307C498.165 935.388 488.912 926.426 481.244 930.213C479.107 931.26 477.416 933.224 475.103 933.813C471.956 934.624 468.691 932.566 466.883 929.913C465.075 927.26 464.183 924.032 462.926 921.033C461.173 916.838 458.534 913.072 455.19 909.993C451.846 906.913 447.876 904.593 443.551 903.191C439.187 901.851 434.563 901.593 430.077 902.438C425.591 903.284 421.377 905.208 417.8 908.045C412.61 912.291 409.169 918.419 403.791 922.418C399.001 925.939 393.06 927.526 387.152 926.864C383.452 926.44 379.895 925.147 376.197 924.794C372.499 924.441 368.341 925.276 366.075 928.228C364.231 930.581 364.02 933.839 363.275 936.767C362.53 939.695 360.668 942.848 357.662 943.142C353.247 943.577 351.086 938.096 348.268 934.662C346.103 932.21 343.113 930.639 339.865 930.249C336.618 929.858 333.34 930.675 330.655 932.545C327.073 935.226 324.725 939.845 320.38 940.907C317.092 941.719 313.746 940.166 310.48 939.225C307.214 938.284 303.071 938.261 301.157 941.06C300.288 942.33 300.276 943.024 299.325 944.318" fill="#F0F0F0" />
    <path d="M351.94 950.61C355.828 951.847 359.855 952.597 363.929 952.845C367.639 953.08 371.679 952.845 374.497 950.41C376.27 948.928 377.374 946.81 378.759 944.965C380.637 942.516 383.053 940.53 385.819 939.16C388.586 937.791 391.63 937.074 394.717 937.065C399.931 937.065 405.086 939.165 410.252 938.441C419.141 937.194 425.823 927.985 434.794 928.197C444.282 928.42 450.282 938.841 459.277 941.887C467.919 944.816 477.466 940.382 486.449 941.97C491.498 942.852 496.218 945.616 501.338 945.498C503.851 945.498 506.305 944.745 508.795 944.475C513.85 943.936 518.932 945.225 523.12 948.109C524.294 948.968 525.573 950.156 525.538 951.638C525.538 953.508 523.519 954.684 521.745 955.295C516.722 957.058 511.309 957.396 506.105 956.272C501.936 955.354 497.98 953.52 493.741 953.049C484.558 952 475.81 957.42 466.581 957.82C458.197 958.173 450.141 954.292 441.687 954.468C435.017 954.562 428.641 957.126 422.018 957.855C412.155 958.938 402.218 955.938 392.318 956.609C383.3 957.209 374.704 960.819 365.792 962.109C356.601 963.454 340.327 963.489 334.549 954.6C326.247 941.789 346.985 949.058 351.94 950.61Z" fill="#272424" />
    <path opacity="0.49" d="M1407.89 925.627C1415.6 928.259 1422.94 932.153 1431.02 932.908C1443.78 934.108 1456.12 927.32 1468.93 927.536C1475.4 927.644 1481.75 929.536 1488.23 929.336C1494.71 929.136 1501.81 926.026 1503.64 919.836C1505.59 913.356 1501.05 906.829 1496.47 901.842C1492.36 897.348 1487.55 892.869 1481.52 891.942C1473.81 890.772 1466.43 895.698 1458.69 895.39C1446.23 894.913 1438.53 881.999 1428.04 875.257C1422.95 872.074 1417.1 870.287 1411.1 870.073C1405.1 869.86 1399.15 871.228 1393.84 874.041C1391.94 874.905 1390.33 876.307 1389.21 878.074C1387.91 880.506 1388.34 883.492 1387.67 886.155C1386.13 891.555 1380.44 894.555 1375.03 895.975C1369.62 897.395 1363.76 897.93 1359.15 901.101C1354.54 904.272 1352.03 911.475 1355.96 915.461C1357.59 916.877 1359.53 917.885 1361.62 918.401C1368.67 920.71 1377.42 924.866 1384.88 924.789C1393.29 924.658 1399.35 922.641 1407.89 925.627Z" fill="#F0F0F0" />
    <path d="M1392.57 913.806C1396.84 913.236 1401.05 912.021 1405.37 911.836C1411.54 911.574 1417.7 913.452 1423.68 914.914C1432.07 916.819 1440.61 918.008 1449.19 918.47C1451.48 918.833 1453.81 918.466 1455.87 917.423C1456.97 916.678 1457.77 915.58 1458.15 914.313C1458.53 913.046 1458.46 911.687 1457.95 910.466C1457.33 909.344 1456.47 908.372 1455.43 907.62C1454.4 906.867 1453.2 906.352 1451.94 906.11C1449.46 905.433 1446.85 905.248 1444.46 904.355C1436.75 901.538 1433.39 892.673 1426.85 887.855C1422.86 885.118 1418.02 883.922 1413.22 884.488C1408.43 885.054 1404 887.345 1400.76 890.933C1397.77 894.489 1395.91 897.644 1391.62 899.815C1388.27 901.492 1385.07 902.631 1381.63 903.97C1377.33 905.633 1375.86 909.281 1380.2 912.036C1383.8 914.345 1388.53 914.345 1392.57 913.806Z" fill="#272424" />
    <path d="M1482.92 906.818C1482.02 906.211 1480.94 905.946 1479.87 906.071C1478.79 906.196 1477.8 906.703 1477.07 907.5C1476.33 908.296 1475.91 909.329 1475.88 910.41C1475.84 911.492 1476.2 912.549 1476.88 913.39C1477.53 914.146 1478.34 914.746 1479.25 915.145C1480.24 915.69 1481.33 916.012 1482.46 916.089C1483.58 916.166 1484.71 915.996 1485.76 915.591C1486.79 915.135 1487.59 914.294 1488.01 913.249C1488.42 912.203 1488.41 911.037 1487.98 910C1487.11 908.8 1485.87 907.915 1484.45 907.476L1481.23 906.106" fill="#272424" />
    <path d="M793.571 1032.81C797.841 1032.24 802.05 1031.02 806.366 1030.84C812.533 1030.57 818.699 1032.45 824.68 1033.91C833.068 1035.82 841.604 1037.01 850.194 1037.47C852.473 1037.83 854.809 1037.47 856.869 1036.42C857.963 1035.68 858.767 1034.58 859.146 1033.31C859.525 1032.05 859.456 1030.69 858.95 1029.47C858.328 1028.34 857.467 1027.37 856.428 1026.62C855.389 1025.87 854.198 1025.35 852.938 1025.11C850.456 1024.43 847.851 1024.25 845.461 1023.36C837.753 1020.54 834.392 1011.67 827.841 1006.86C823.859 1004.12 819.018 1002.92 814.22 1003.49C809.421 1004.05 804.992 1006.34 801.757 1009.93C798.766 1013.49 796.901 1016.64 792.615 1018.82C789.27 1020.49 786.063 1021.63 782.626 1022.97C778.326 1024.63 776.86 1028.28 781.192 1031.04C784.8 1033.35 789.532 1033.35 793.571 1032.81Z" fill="#272424" />
    <path d="M883.924 1025.82C883.029 1025.21 881.944 1024.94 880.868 1025.07C879.792 1025.19 878.797 1025.7 878.064 1026.5C877.331 1027.29 876.909 1028.33 876.876 1029.41C876.842 1030.49 877.199 1031.55 877.881 1032.39C878.528 1033.15 879.34 1033.75 880.255 1034.15C881.241 1034.69 882.334 1035.01 883.458 1035.09C884.582 1035.17 885.709 1035 886.76 1034.59C887.789 1034.14 888.599 1033.3 889.014 1032.25C889.429 1031.2 889.417 1030.04 888.98 1029C888.105 1027.8 886.867 1026.92 885.45 1026.48L882.228 1025.11" fill="#272424" />
    <path opacity="0.49" d="M910.193 1016.69C914.108 1017.03 917.531 1013.44 921.416 1012.81C925.301 1012.18 929.124 1014.54 932.931 1013.89C935.313 1013.35 937.469 1012.08 939.098 1010.26C942.155 1007.27 943.906 1003.2 943.969 998.928C943.861 994.541 940.886 990.17 937.186 990.228C933.486 990.286 930.886 994.153 927.613 996.028C923.574 998.322 918.872 997.475 914.413 997.814C905.4 998.451 898.245 1015.64 910.193 1016.69Z" fill="#F0F0F0" />
</svg>
    