<svg id="Group_79" data-name="Group 79" xmlns="http://www.w3.org/2000/svg" width="200" height="200" viewBox="0 0 225.884 225.915">
    <g id="Group_76" data-name="Group 76" transform="translate(0 0)">
      <path id="Path_72" data-name="Path 72" d="M220.751,251.814c0-.786.02-1.572-.007-2.358a6.268,6.268,0,0,0-12.528-.236,47.048,47.048,0,0,0,0,5.173,6.271,6.271,0,0,0,12.534-.229C220.77,253.379,220.751,252.593,220.751,251.814Zm0,0c0-.786.02-1.572-.007-2.358a6.268,6.268,0,0,0-12.528-.236,47.048,47.048,0,0,0,0,5.173,6.271,6.271,0,0,0,12.534-.229C220.77,253.379,220.751,252.593,220.751,251.814Zm0,0c0-.786.02-1.572-.007-2.358a6.268,6.268,0,0,0-12.528-.236,47.048,47.048,0,0,0,0,5.173,6.271,6.271,0,0,0,12.534-.229C220.77,253.379,220.751,252.593,220.751,251.814Zm0,0c0-.786.02-1.572-.007-2.358a6.268,6.268,0,0,0-12.528-.236,47.048,47.048,0,0,0,0,5.173,6.271,6.271,0,0,0,12.534-.229C220.77,253.379,220.751,252.593,220.751,251.814Zm0,0c0-.786.02-1.572-.007-2.358a6.268,6.268,0,0,0-12.528-.236,47.048,47.048,0,0,0,0,5.173,6.271,6.271,0,0,0,12.534-.229C220.77,253.379,220.751,252.593,220.751,251.814Zm79.241,2.9c-1.257-.026-2.508-.007-3.766-.007-1.362,0-2.724-.053-4.08.02a2.639,2.639,0,0,0-2.58,2.79,2.591,2.591,0,0,0,2.534,2.823,25.659,25.659,0,0,0,4.073-.039,5.251,5.251,0,0,0,4.7-4.558C300.967,254.879,300.869,254.728,299.991,254.715Zm12.194-26.287a8.4,8.4,0,0,0-1.408-.013.477.477,0,0,0-.458.354c-.393,1.008.059,1.735,1.1,1.742.21,0,.419.007.629,0,.668-.033,1.113-.34,1.12-1.048A1.009,1.009,0,0,0,312.185,228.428Zm-.052-3.032a12.174,12.174,0,0,0-1.382-.013c-.3.013-.406.229-.458.511-.19.956.059,1.225,1.153,1.2.2,0,.412.013.616,0a.81.81,0,0,0,.838-.9A.772.772,0,0,0,312.133,225.4Zm0,0a12.174,12.174,0,0,0-1.382-.013c-.3.013-.406.229-.458.511-.19.956.059,1.225,1.153,1.2.2,0,.412.013.616,0a.81.81,0,0,0,.838-.9A.772.772,0,0,0,312.133,225.4Zm.052,3.032a8.4,8.4,0,0,0-1.408-.013.477.477,0,0,0-.458.354c-.393,1.008.059,1.735,1.1,1.742.21,0,.419.007.629,0,.668-.033,1.113-.34,1.12-1.048A1.009,1.009,0,0,0,312.185,228.428Zm-12.194,26.287c-1.257-.026-2.508-.007-3.766-.007-1.362,0-2.724-.053-4.08.02a2.639,2.639,0,0,0-2.58,2.79,2.591,2.591,0,0,0,2.534,2.823,25.659,25.659,0,0,0,4.073-.039,5.251,5.251,0,0,0,4.7-4.558C300.967,254.879,300.869,254.728,299.991,254.715Zm-79.241-2.9c0-.786.02-1.572-.007-2.358a6.268,6.268,0,0,0-12.528-.236,47.048,47.048,0,0,0,0,5.173,6.271,6.271,0,0,0,12.534-.229C220.77,253.379,220.751,252.593,220.751,251.814Zm0,0c0-.786.02-1.572-.007-2.358a6.268,6.268,0,0,0-12.528-.236,47.048,47.048,0,0,0,0,5.173,6.271,6.271,0,0,0,12.534-.229C220.77,253.379,220.751,252.593,220.751,251.814Zm79.241,2.9c-1.257-.026-2.508-.007-3.766-.007-1.362,0-2.724-.053-4.08.02a2.639,2.639,0,0,0-2.58,2.79,2.591,2.591,0,0,0,2.534,2.823,25.659,25.659,0,0,0,4.073-.039,5.251,5.251,0,0,0,4.7-4.558C300.967,254.879,300.869,254.728,299.991,254.715Zm12.194-26.287a8.4,8.4,0,0,0-1.408-.013.477.477,0,0,0-.458.354c-.393,1.008.059,1.735,1.1,1.742.21,0,.419.007.629,0,.668-.033,1.113-.34,1.12-1.048A1.009,1.009,0,0,0,312.185,228.428Zm-.052-3.032a12.174,12.174,0,0,0-1.382-.013c-.3.013-.406.229-.458.511-.19.956.059,1.225,1.153,1.2.2,0,.412.013.616,0a.81.81,0,0,0,.838-.9A.772.772,0,0,0,312.133,225.4Zm6.464.354a10.368,10.368,0,0,0-.989,3.078,3.579,3.579,0,0,0,1.932-.007A11.57,11.57,0,0,0,318.6,225.75Zm0,0a10.368,10.368,0,0,0-.989,3.078,3.579,3.579,0,0,0,1.932-.007A11.57,11.57,0,0,0,318.6,225.75Zm-6.464-.354a12.174,12.174,0,0,0-1.382-.013c-.3.013-.406.229-.458.511-.19.956.059,1.225,1.153,1.2.2,0,.412.013.616,0a.81.81,0,0,0,.838-.9A.772.772,0,0,0,312.133,225.4Zm.052,3.032a8.4,8.4,0,0,0-1.408-.013.477.477,0,0,0-.458.354c-.393,1.008.059,1.735,1.1,1.742.21,0,.419.007.629,0,.668-.033,1.113-.34,1.12-1.048A1.009,1.009,0,0,0,312.185,228.428Zm-12.194,26.287c-1.257-.026-2.508-.007-3.766-.007-1.362,0-2.724-.053-4.08.02a2.639,2.639,0,0,0-2.58,2.79,2.591,2.591,0,0,0,2.534,2.823,25.659,25.659,0,0,0,4.073-.039,5.251,5.251,0,0,0,4.7-4.558C300.967,254.879,300.869,254.728,299.991,254.715Zm-79.241-2.9c0-.786.02-1.572-.007-2.358a6.268,6.268,0,0,0-12.528-.236,47.048,47.048,0,0,0,0,5.173,6.271,6.271,0,0,0,12.534-.229C220.77,253.379,220.751,252.593,220.751,251.814Zm0,0c0-.786.02-1.572-.007-2.358a6.268,6.268,0,0,0-12.528-.236,47.048,47.048,0,0,0,0,5.173,6.271,6.271,0,0,0,12.534-.229C220.77,253.379,220.751,252.593,220.751,251.814Zm79.241,2.9c-1.257-.026-2.508-.007-3.766-.007-1.362,0-2.724-.053-4.08.02a2.639,2.639,0,0,0-2.58,2.79,2.591,2.591,0,0,0,2.534,2.823,25.659,25.659,0,0,0,4.073-.039,5.251,5.251,0,0,0,4.7-4.558C300.967,254.879,300.869,254.728,299.991,254.715Zm12.194-26.287a8.4,8.4,0,0,0-1.408-.013.477.477,0,0,0-.458.354c-.393,1.008.059,1.735,1.1,1.742.21,0,.419.007.629,0,.668-.033,1.113-.34,1.12-1.048A1.009,1.009,0,0,0,312.185,228.428Zm-.052-3.032a12.174,12.174,0,0,0-1.382-.013c-.3.013-.406.229-.458.511-.19.956.059,1.225,1.153,1.2.2,0,.412.013.616,0a.81.81,0,0,0,.838-.9A.772.772,0,0,0,312.133,225.4Zm6.464.354a10.368,10.368,0,0,0-.989,3.078,3.579,3.579,0,0,0,1.932-.007A11.57,11.57,0,0,0,318.6,225.75Zm20.026-.478c-1.035-.026-1.159.1-1.185,1.113-.026,1.211.046,1.3,1.133,1.29.649.02,1.264-.046,1.578-.72C340.574,226.051,339.893,225.3,338.622,225.272Zm0,0c-1.035-.026-1.159.1-1.185,1.113-.026,1.211.046,1.3,1.133,1.29.649.02,1.264-.046,1.578-.72C340.574,226.051,339.893,225.3,338.622,225.272Zm-20.026.478a10.368,10.368,0,0,0-.989,3.078,3.579,3.579,0,0,0,1.932-.007A11.57,11.57,0,0,0,318.6,225.75Zm-6.464-.354a12.174,12.174,0,0,0-1.382-.013c-.3.013-.406.229-.458.511-.19.956.059,1.225,1.153,1.2.2,0,.412.013.616,0a.81.81,0,0,0,.838-.9A.772.772,0,0,0,312.133,225.4Zm.052,3.032a8.4,8.4,0,0,0-1.408-.013.477.477,0,0,0-.458.354c-.393,1.008.059,1.735,1.1,1.742.21,0,.419.007.629,0,.668-.033,1.113-.34,1.12-1.048A1.009,1.009,0,0,0,312.185,228.428Zm-12.194,26.287c-1.257-.026-2.508-.007-3.766-.007-1.362,0-2.724-.053-4.08.02a2.639,2.639,0,0,0-2.58,2.79,2.591,2.591,0,0,0,2.534,2.823,25.659,25.659,0,0,0,4.073-.039,5.251,5.251,0,0,0,4.7-4.558C300.967,254.879,300.869,254.728,299.991,254.715Zm-79.241-2.9c0-.786.02-1.572-.007-2.358a6.268,6.268,0,0,0-12.528-.236,47.048,47.048,0,0,0,0,5.173,6.271,6.271,0,0,0,12.534-.229C220.77,253.379,220.751,252.593,220.751,251.814Zm0,0c0-.786.02-1.572-.007-2.358a6.268,6.268,0,0,0-12.528-.236,47.048,47.048,0,0,0,0,5.173,6.271,6.271,0,0,0,12.534-.229C220.77,253.379,220.751,252.593,220.751,251.814Zm79.241,2.9c-1.257-.026-2.508-.007-3.766-.007-1.362,0-2.724-.053-4.08.02a2.639,2.639,0,0,0-2.58,2.79,2.591,2.591,0,0,0,2.534,2.823,25.659,25.659,0,0,0,4.073-.039,5.251,5.251,0,0,0,4.7-4.558C300.967,254.879,300.869,254.728,299.991,254.715Zm12.194-26.287a8.4,8.4,0,0,0-1.408-.013.477.477,0,0,0-.458.354c-.393,1.008.059,1.735,1.1,1.742.21,0,.419.007.629,0,.668-.033,1.113-.34,1.12-1.048A1.009,1.009,0,0,0,312.185,228.428Zm-.052-3.032a12.174,12.174,0,0,0-1.382-.013c-.3.013-.406.229-.458.511-.19.956.059,1.225,1.153,1.2.2,0,.412.013.616,0a.81.81,0,0,0,.838-.9A.772.772,0,0,0,312.133,225.4Zm6.464.354a10.368,10.368,0,0,0-.989,3.078,3.579,3.579,0,0,0,1.932-.007A11.57,11.57,0,0,0,318.6,225.75Zm20.026-.478c-1.035-.026-1.159.1-1.185,1.113-.026,1.211.046,1.3,1.133,1.29.649.02,1.264-.046,1.578-.72C340.574,226.051,339.893,225.3,338.622,225.272Zm0,0c-1.035-.026-1.159.1-1.185,1.113-.026,1.211.046,1.3,1.133,1.29.649.02,1.264-.046,1.578-.72C340.574,226.051,339.893,225.3,338.622,225.272Zm-20.026.478a10.368,10.368,0,0,0-.989,3.078,3.579,3.579,0,0,0,1.932-.007A11.57,11.57,0,0,0,318.6,225.75Zm-6.464-.354a12.174,12.174,0,0,0-1.382-.013c-.3.013-.406.229-.458.511-.19.956.059,1.225,1.153,1.2.2,0,.412.013.616,0a.81.81,0,0,0,.838-.9A.772.772,0,0,0,312.133,225.4Zm.052,3.032a8.4,8.4,0,0,0-1.408-.013.477.477,0,0,0-.458.354c-.393,1.008.059,1.735,1.1,1.742.21,0,.419.007.629,0,.668-.033,1.113-.34,1.12-1.048A1.009,1.009,0,0,0,312.185,228.428Zm-12.194,26.287c-1.257-.026-2.508-.007-3.766-.007-1.362,0-2.724-.053-4.08.02a2.639,2.639,0,0,0-2.58,2.79,2.591,2.591,0,0,0,2.534,2.823,25.659,25.659,0,0,0,4.073-.039,5.251,5.251,0,0,0,4.7-4.558C300.967,254.879,300.869,254.728,299.991,254.715Zm-79.241-2.9c0-.786.02-1.572-.007-2.358a6.268,6.268,0,0,0-12.528-.236,47.048,47.048,0,0,0,0,5.173,6.271,6.271,0,0,0,12.534-.229C220.77,253.379,220.751,252.593,220.751,251.814Zm0,0c0-.786.02-1.572-.007-2.358a6.268,6.268,0,0,0-12.528-.236,47.048,47.048,0,0,0,0,5.173,6.271,6.271,0,0,0,12.534-.229C220.77,253.379,220.751,252.593,220.751,251.814Zm79.241,2.9c-1.257-.026-2.508-.007-3.766-.007-1.362,0-2.724-.053-4.08.02a2.639,2.639,0,0,0-2.58,2.79,2.591,2.591,0,0,0,2.534,2.823,25.659,25.659,0,0,0,4.073-.039,5.251,5.251,0,0,0,4.7-4.558C300.967,254.879,300.869,254.728,299.991,254.715Zm12.194-26.287a8.4,8.4,0,0,0-1.408-.013.477.477,0,0,0-.458.354c-.393,1.008.059,1.735,1.1,1.742.21,0,.419.007.629,0,.668-.033,1.113-.34,1.12-1.048A1.009,1.009,0,0,0,312.185,228.428Zm-.052-3.032a12.174,12.174,0,0,0-1.382-.013c-.3.013-.406.229-.458.511-.19.956.059,1.225,1.153,1.2.2,0,.412.013.616,0a.81.81,0,0,0,.838-.9A.772.772,0,0,0,312.133,225.4Zm5.763,10.236a7.814,7.814,0,0,0-.943,2.881,2.749,2.749,0,0,0,1.86-.013A6.49,6.49,0,0,0,317.9,235.632Zm.7-9.882a10.368,10.368,0,0,0-.989,3.078,3.579,3.579,0,0,0,1.932-.007A11.57,11.57,0,0,0,318.6,225.75Zm20.026-.478c-1.035-.026-1.159.1-1.185,1.113-.026,1.211.046,1.3,1.133,1.29.649.02,1.264-.046,1.578-.72C340.574,226.051,339.893,225.3,338.622,225.272Zm0,0c-1.035-.026-1.159.1-1.185,1.113-.026,1.211.046,1.3,1.133,1.29.649.02,1.264-.046,1.578-.72C340.574,226.051,339.893,225.3,338.622,225.272Zm-20.026.478a10.368,10.368,0,0,0-.989,3.078,3.579,3.579,0,0,0,1.932-.007A11.57,11.57,0,0,0,318.6,225.75Zm-.7,9.882a7.814,7.814,0,0,0-.943,2.881,2.749,2.749,0,0,0,1.86-.013A6.49,6.49,0,0,0,317.9,235.632Zm-6.451-8.533c.2,0,.412.013.616,0a.81.81,0,0,0,.838-.9.772.772,0,0,0-.766-.806,12.174,12.174,0,0,0-1.382-.013c-.3.013-.406.229-.458.511C310.1,226.85,310.351,227.118,311.445,227.1Zm.74,1.33a8.4,8.4,0,0,0-1.408-.013.477.477,0,0,0-.458.354c-.393,1.008.059,1.735,1.1,1.742.21,0,.419.007.629,0,.668-.033,1.113-.34,1.12-1.048A1.009,1.009,0,0,0,312.185,228.428Zm-12.194,26.287c-1.257-.026-2.508-.007-3.766-.007-1.362,0-2.724-.053-4.08.02a2.639,2.639,0,0,0-2.58,2.79,2.591,2.591,0,0,0,2.534,2.823,25.659,25.659,0,0,0,4.073-.039,5.251,5.251,0,0,0,4.7-4.558C300.967,254.879,300.869,254.728,299.991,254.715Zm-79.241-2.9c0-.786.02-1.572-.007-2.358a6.268,6.268,0,0,0-12.528-.236,47.048,47.048,0,0,0,0,5.173,6.271,6.271,0,0,0,12.534-.229C220.77,253.379,220.751,252.593,220.751,251.814Zm147.328-24.368a91.193,91.193,0,0,0-9.869-31.421,101.813,101.813,0,0,0-32.07-36.045c-21.441-15.095-45.449-22.39-71.546-23.052a122.4,122.4,0,0,0-23.143,1.709,113.151,113.151,0,0,0-38.54,13.674c-17.931,10.413-31.65,24.794-40.557,43.6-6.824,14.407-9.7,29.66-9.384,47.407a224.506,224.506,0,0,0,2.6,32.089,171.712,171.712,0,0,0,7.02,29.417c3.844,11.264,8.946,21.893,16.287,31.343,7.407,9.529,16.47,16.948,27.708,21.532,11.6,4.742,23.694,5.855,36.071,4.682a120.475,120.475,0,0,0,21.546-4.139,169.828,169.828,0,0,0,39.653-17.177c19.83-11.644,37.335-26.038,51.7-44.1a117.835,117.835,0,0,0,17.413-29.339,76.1,76.1,0,0,0,5.115-40.177Zm-189.11,14.722a.99.99,0,0,1-1.074,1.081c-.629.026-1.257.046-1.886.013-.766-.046-1.028.314-.976,1.028.026.367.007.734.007,1.1v17.9c0,.419.007.838-.033,1.251a1.075,1.075,0,0,1-1.126,1.074c-.936.02-1.886.046-2.822,0-.976-.052-1.225-.334-1.244-1.408-.026-1.513-.007-3.032-.007-4.551v-5.337c0-3.294.007-6.595-.007-9.889,0-1.12-.026-1.126-1.133-1.159-.576-.02-1.153,0-1.722-.007a1.042,1.042,0,0,1-1.166-1.166c0-.989-.02-1.984.013-2.98a1,1,0,0,1,1.093-1.068,18.133,18.133,0,0,1,1.886,0c.851.072,1.068-.327,1.048-1.107-.039-1.775.02-3.556-.026-5.337a1.322,1.322,0,0,1,.878-1.454c.681-.275,1.31-.662,1.978-.963,1.644-.733,2.371-.282,2.384,1.487.02,2.1.026,4.191-.007,6.28-.013.792.229,1.166,1.074,1.094a16.49,16.49,0,0,1,1.886,0,.908.908,0,0,1,.982.982C178.983,240.079,178.976,241.127,178.969,242.168Zm19.469-.269c-.033,1.054-.262,1.277-1.283,1.362a5.036,5.036,0,0,1-.629,0,5.182,5.182,0,0,0-5.488,5.638c.131,3.5.033,7.014.033,10.518,0,1.513.02,3.032-.007,4.551-.026,1.375-.295,1.624-1.677,1.65-.57.013-1.146.007-1.722,0-1.65-.013-1.82-.17-1.82-1.775-.013-4.028-.007-8.055-.007-12.083q0-6.12,0-12.246c0-.6,0-1.192.694-1.408a1.352,1.352,0,0,1,1.559.426,3.942,3.942,0,0,0,.327.334,5.589,5.589,0,0,1,.557.557c.53.7.982.8,1.781.209a9.954,9.954,0,0,1,6.575-1.6,1.026,1.026,0,0,1,1.113,1.192C198.439,240.118,198.465,241.008,198.439,241.9Zm27.381,13.9a11.444,11.444,0,0,1-22.744-.943c-.059-1.041-.013-2.089-.013-3.137h-.02c0-.838-.026-1.677,0-2.508a11.451,11.451,0,0,1,22.534-2.62,9.336,9.336,0,0,1,.373,2.161A46.885,46.885,0,0,1,225.82,255.8Zm25.252,3.045c-.459,3.8-2.9,6.077-6.712,6.575a29.451,29.451,0,0,1-7.669-.013,8.742,8.742,0,0,1-1.676-.386c-2.521-.858-3.281-2.148-2.823-4.741.164-.923.642-1.258,1.559-.871,3.013,1.257,6.169.943,9.3.936a3.138,3.138,0,0,0,1.5-.406,2.517,2.517,0,0,0,1.382-2.456,2.173,2.173,0,0,0-1.591-2.1,15.03,15.03,0,0,0-3.53-.681c-1.251-.137-2.5-.281-3.733-.511-5.147-.937-7.034-4.316-6.5-9.4.419-3.955,3.3-6.457,7.453-6.726,1.048-.065,2.1-.007,3.143-.007a16.384,16.384,0,0,1,4.525.269,11.241,11.241,0,0,1,1.487.485c2.22.963,2.9,2.469,2.207,4.8a.907.907,0,0,1-1.054.714.8.8,0,0,1-.308-.059c-2.783-1.257-5.737-.989-8.657-1a4.871,4.871,0,0,0-2.155.354,2.475,2.475,0,0,0-1.48,2.384,2.224,2.224,0,0,0,1.434,2.22,11.712,11.712,0,0,0,3.5.806,37.25,37.25,0,0,1,4.486.746C249.716,250.884,251.661,253.956,251.072,258.848Zm28.134,5.1c0,1.441-.21,1.637-1.617,1.67-.681.013-1.362.02-2.043,0-1.238-.039-1.506-.321-1.559-1.611-.013-.367-.007-.734-.007-1.1,0-5.082-.007-10.164.007-15.239a4.153,4.153,0,0,0-1.166-3.294,2.959,2.959,0,0,0-1.172-.773c-4.741-1.356-9.037.878-9.05,5.789-.013,4.715,0,9.43-.007,14.145,0,2.01-.072,2.082-2.155,2.089-.471,0-.943.007-1.415-.007-1.349-.039-1.539-.21-1.552-1.559-.013-2.515-.007-5.03-.007-7.544V247.25q0-8.094.007-16.182c0-.419-.013-.838.013-1.258a.83.83,0,0,1,.884-.891c1.1-.02,2.2-.026,3.3,0,.635.013.917.426.917,1.035.007,2.567,0,5.134.007,7.7a3.07,3.07,0,0,1-.688,1.552c-.157.269-.38.55-.039.819.288.236.458-.065.655-.2,3.294-2.259,6.922-2.286,10.543-1.251a8.621,8.621,0,0,1,6.143,8.409C279.231,252.633,279.218,258.291,279.205,263.949Zm26.3,1.565c-.76.327-1.277-.085-1.788-.6s-.9-1.3-1.637-1.375c-.661-.065-1.159.629-1.762.923a9.336,9.336,0,0,1-3.124.976,23.345,23.345,0,0,1-6.411-.026,8.036,8.036,0,0,1,.059-15.776,41.9,41.9,0,0,1,5.8-.157c1.1-.026,2.2-.039,3.294.007.766.026,1.035-.295.976-1.021-.039-.524.02-1.048-.013-1.572a3.6,3.6,0,0,0-3.353-3.543c-3.17-.131-6.379-.439-9.45.819-.936.386-1.343.072-1.441-.956-.026-.314-.007-.629-.007-.943-.007-2.246.242-2.626,2.318-3.51,2.443-1.048,9.293-1.08,11.722.039a8.892,8.892,0,0,1,5.455,8.455c.065,2.724.013,5.442.013,8.166,0,2.823-.007,5.651,0,8.474C306.16,264.532,306.232,265.2,305.505,265.514Zm8.487-30.59c-.118.57-.524.327-.871.282-2.534-.295-2.763-.079-2.763,2.521,0,.367-.02.733.007,1.094.079,1.041.406,1.362,1.46,1.428.524.026,1.048,0,1.572.013a.48.48,0,0,1,.5.288.441.441,0,0,1-.19.543,3.537,3.537,0,0,1-3.025.242,2.126,2.126,0,0,1-1.545-1.965c-.053-.57-.007-1.152-.007-1.722h-.02c0-.367.02-.734,0-1.1-.137-2.633,2.449-3.242,4.362-2.482A.742.742,0,0,1,313.992,234.925Zm-1.866-3.17c-.779.039-1.565-.007-2.344.007-.544.013-.747-.242-.74-.759.007-1.041,0-2.089,0-3.13,0-.989.013-1.984-.007-2.973-.013-.583.216-.891.812-.878a19.924,19.924,0,0,1,2.344.059,2.062,2.062,0,0,1,1.88,2.8,2.066,2.066,0,0,0,.15,1.578A2.264,2.264,0,0,1,312.126,231.755Zm8.605,9.647a.721.721,0,0,1-.982-.517c-.157-.413-.19-.989-.8-1.035a7.374,7.374,0,0,0-2.338.059c-.4.1-.426.57-.556.891-.151.373-.328.655-.806.642a.427.427,0,0,1-.5-.432,1.219,1.219,0,0,1,.1-.452c.694-2.03,1.395-4.054,2.082-6.084.17-.5.406-.812,1-.792a.865.865,0,0,1,.891.7c.688,2.03,1.4,4.054,2.1,6.084C321.026,240.792,321.222,241.225,320.731,241.4Zm.668-9.686c-.314.078-.76.078-.819-.242-.288-1.545-1.428-1.342-2.515-1.342-.642-.007-1.113.1-1.27.825a1.474,1.474,0,0,1-.373.668.7.7,0,0,1-.74.079c-.321-.118-.295-.393-.21-.648q1.12-3.262,2.253-6.51a.8.8,0,0,1,.864-.524.766.766,0,0,1,.845.537q1.091,3.183,2.187,6.359a2.106,2.106,0,0,1,.052.269C321.694,231.454,321.635,231.657,321.4,231.716Zm4.709,3.379c-.517.013-1.041-.007-1.565.013-1.041.033-1.185.216-1.126,1.172.039.511.236.766.759.759.576-.006,1.146,0,1.722.013.341,0,.622.118.635.517s-.138.72-.609.734c-.419.013-.831.007-1.251.013-1.218.026-1.218.026-1.251,1.179-.007.314.013.629-.007.943-.033.439.1,1.009-.616,1.041-.747.033-.622-.544-.629-.989-.02-.936-.007-1.873-.007-2.816,0-.989.02-1.978-.007-2.967-.02-.648.2-.976.891-.963,1.048.026,2.089.007,3.13.013.459.007.825.125.806.7C326.959,235.062,326.54,235.088,326.108,235.1Zm.858-3.962c-.458-.7-.976-1.356-1.46-2.043-.236-.327-.524-.537-.923-.373-.347.15-.308.511-.321.819-.013.576-.007,1.146-.033,1.722a.471.471,0,0,1-.491.491c-.347.013-.616-.1-.681-.484a3.892,3.892,0,0,1-.046-.622v-5.488c0-.157.006-.314.013-.471a.6.6,0,0,1,.7-.648c.4.02.517.295.524.642.013.629.013,1.257.02,1.879,0,.275.039.557.308.668a.656.656,0,0,0,.819-.275c.524-.72,1.028-1.454,1.545-2.174.21-.295.38-.642.786-.714.308-.059.648-.131.864.17.19.269-.052.485-.2.688-.511.727-1.008,1.467-1.565,2.154a1.1,1.1,0,0,0-.026,1.644c.511.6.936,1.257,1.388,1.9.2.295.511.557.347,1A1.114,1.114,0,0,1,326.966,231.133Zm3.366,5.913c.576-.026,1.153-.007,1.729.013a.522.522,0,0,1,.557.6c-.007.36-.138.616-.524.635-.57.02-1.146.052-1.722.02-.714-.046-.884.308-.871.95.013.583.059,1.035.825,1,.674-.033,1.355,0,2.037.007.432,0,.688.177.674.648-.013.5-.327.6-.733.6-1.1,0-2.194-.013-3.294.007-.642.013-.793-.334-.779-.891.02-.989.007-1.984,0-2.973,0-.943.026-1.886-.007-2.823-.026-.694.177-1.094.95-1.074,1.048.02,2.089.007,3.137.007.406,0,.707.125.733.609.033.563-.295.727-.779.727-.622.007-1.251.033-1.879,0-.7-.033-.891.314-.884.956C329.513,236.64,329.579,237.092,330.332,237.046Zm1.925-9.718c.465-.039.937,0,1.408,0,.354.007.609.131.622.53.026.439-.164.694-.622.7s-.943.046-1.408.007c-.766-.065-.989.262-1,1-.007.792.347,1,1.048.956.629-.039,1.257-.007,1.886,0a.569.569,0,0,1,.642.681.529.529,0,0,1-.6.557c-1.146.007-2.3-.007-3.445.007-.524.007-.759-.229-.759-.746.007-1.048,0-2.089,0-3.137h-.007c0-.943.026-1.88-.007-2.823-.026-.7.183-1.081.963-1.054.989.033,1.984.007,2.98.013.426.006.858.026.878.629.026.707-.478.7-.956.707-.524.013-1.048.033-1.565.007-.7-.046-1.068.17-1.055.956C331.275,227.027,331.478,227.4,332.257,227.328Zm8.527,2.436a7.469,7.469,0,0,1,.544,1.126c.118.282.3.635-.1.806a.709.709,0,0,1-.969-.229,15.083,15.083,0,0,1-.838-1.847,1.046,1.046,0,0,0-1.212-.714c-.53.02-.753.236-.747.753s0,1.048-.026,1.565c-.02.373-.255.531-.629.524s-.6-.17-.609-.55c-.013-1.093-.007-2.187-.007-3.281h-.013c0-1,.02-1.984-.007-2.973-.02-.668.282-.956.93-.93a17.388,17.388,0,0,1,2.344.092,2.369,2.369,0,0,1,1.533,3.909A1.256,1.256,0,0,0,340.784,229.764Zm7.3-4.885c-.459,1.107-.9,2.226-1.382,3.32a5.266,5.266,0,0,0-.6,2.561c.039.452.1.976-.635,1-.668.02-.819-.393-.766-.9a6.28,6.28,0,0,0-.779-3.15c-.38-.917-.779-1.82-1.146-2.744-.131-.334-.3-.74.216-.9a.729.729,0,0,1,.943.34,7.791,7.791,0,0,1,.367.864l1.1,2.927c.439-1.146.832-2.161,1.231-3.17a3.026,3.026,0,0,1,.419-.819.739.739,0,0,1,.878-.118C348.348,224.257,348.2,224.584,348.086,224.879Zm-9.463.393c-1.035-.026-1.159.1-1.185,1.113-.026,1.211.046,1.3,1.133,1.29.649.02,1.264-.046,1.578-.72C340.574,226.051,339.893,225.3,338.622,225.272Zm-21.015,3.556a3.579,3.579,0,0,0,1.932-.007,11.57,11.57,0,0,0-.943-3.071A10.368,10.368,0,0,0,317.607,228.828Zm-.655,9.686a2.749,2.749,0,0,0,1.86-.013,6.49,6.49,0,0,0-.917-2.868A7.814,7.814,0,0,0,316.953,238.513ZM311.445,227.1c.2,0,.412.013.616,0a.81.81,0,0,0,.838-.9.772.772,0,0,0-.766-.806,12.174,12.174,0,0,0-1.382-.013c-.3.013-.406.229-.458.511C310.1,226.85,310.351,227.118,311.445,227.1Zm.74,1.33a8.4,8.4,0,0,0-1.408-.013.477.477,0,0,0-.458.354c-.393,1.008.059,1.735,1.1,1.742.21,0,.419.007.629,0,.668-.033,1.113-.34,1.12-1.048A1.009,1.009,0,0,0,312.185,228.428Zm-12.194,26.287c-1.257-.026-2.508-.007-3.766-.007-1.362,0-2.724-.053-4.08.02a2.639,2.639,0,0,0-2.58,2.79,2.591,2.591,0,0,0,2.534,2.823,25.659,25.659,0,0,0,4.073-.039,5.251,5.251,0,0,0,4.7-4.558C300.967,254.879,300.869,254.728,299.991,254.715Zm-79.247-5.259a6.268,6.268,0,0,0-12.528-.236,47.048,47.048,0,0,0,0,5.173,6.271,6.271,0,0,0,12.534-.229c.02-.786,0-1.572,0-2.351S220.77,250.242,220.744,249.456Zm.007,2.358c0-.786.02-1.572-.007-2.358a6.268,6.268,0,0,0-12.528-.236,47.048,47.048,0,0,0,0,5.173,6.271,6.271,0,0,0,12.534-.229C220.77,253.379,220.751,252.593,220.751,251.814Zm79.241,2.9c-1.257-.026-2.508-.007-3.766-.007-1.362,0-2.724-.053-4.08.02a2.639,2.639,0,0,0-2.58,2.79,2.591,2.591,0,0,0,2.534,2.823,25.659,25.659,0,0,0,4.073-.039,5.251,5.251,0,0,0,4.7-4.558C300.967,254.879,300.869,254.728,299.991,254.715Zm12.194-26.287a8.4,8.4,0,0,0-1.408-.013.477.477,0,0,0-.458.354c-.393,1.008.059,1.735,1.1,1.742.21,0,.419.007.629,0,.668-.033,1.113-.34,1.12-1.048A1.009,1.009,0,0,0,312.185,228.428Zm-.052-3.032a12.174,12.174,0,0,0-1.382-.013c-.3.013-.406.229-.458.511-.19.956.059,1.225,1.153,1.2.2,0,.412.013.616,0a.81.81,0,0,0,.838-.9A.772.772,0,0,0,312.133,225.4Zm6.464.354a10.368,10.368,0,0,0-.989,3.078,3.579,3.579,0,0,0,1.932-.007A11.57,11.57,0,0,0,318.6,225.75Zm20.026-.478c-1.035-.026-1.159.1-1.185,1.113-.026,1.211.046,1.3,1.133,1.29.649.02,1.264-.046,1.578-.72C340.574,226.051,339.893,225.3,338.622,225.272Zm0,0c-1.035-.026-1.159.1-1.185,1.113-.026,1.211.046,1.3,1.133,1.29.649.02,1.264-.046,1.578-.72C340.574,226.051,339.893,225.3,338.622,225.272Zm-20.026.478a10.368,10.368,0,0,0-.989,3.078,3.579,3.579,0,0,0,1.932-.007A11.57,11.57,0,0,0,318.6,225.75Zm-6.464-.354a12.174,12.174,0,0,0-1.382-.013c-.3.013-.406.229-.458.511-.19.956.059,1.225,1.153,1.2.2,0,.412.013.616,0a.81.81,0,0,0,.838-.9A.772.772,0,0,0,312.133,225.4Zm.052,3.032a8.4,8.4,0,0,0-1.408-.013.477.477,0,0,0-.458.354c-.393,1.008.059,1.735,1.1,1.742.21,0,.419.007.629,0,.668-.033,1.113-.34,1.12-1.048A1.009,1.009,0,0,0,312.185,228.428Zm-12.194,26.287c-1.257-.026-2.508-.007-3.766-.007-1.362,0-2.724-.053-4.08.02a2.639,2.639,0,0,0-2.58,2.79,2.591,2.591,0,0,0,2.534,2.823,25.659,25.659,0,0,0,4.073-.039,5.251,5.251,0,0,0,4.7-4.558C300.967,254.879,300.869,254.728,299.991,254.715Zm-79.241-2.9c0-.786.02-1.572-.007-2.358a6.268,6.268,0,0,0-12.528-.236,47.048,47.048,0,0,0,0,5.173,6.271,6.271,0,0,0,12.534-.229C220.77,253.379,220.751,252.593,220.751,251.814Zm0,0c0-.786.02-1.572-.007-2.358a6.268,6.268,0,0,0-12.528-.236,47.048,47.048,0,0,0,0,5.173,6.271,6.271,0,0,0,12.534-.229C220.77,253.379,220.751,252.593,220.751,251.814Zm79.241,2.9c-1.257-.026-2.508-.007-3.766-.007-1.362,0-2.724-.053-4.08.02a2.639,2.639,0,0,0-2.58,2.79,2.591,2.591,0,0,0,2.534,2.823,25.659,25.659,0,0,0,4.073-.039,5.251,5.251,0,0,0,4.7-4.558C300.967,254.879,300.869,254.728,299.991,254.715Zm12.194-26.287a8.4,8.4,0,0,0-1.408-.013.477.477,0,0,0-.458.354c-.393,1.008.059,1.735,1.1,1.742.21,0,.419.007.629,0,.668-.033,1.113-.34,1.12-1.048A1.009,1.009,0,0,0,312.185,228.428Zm-.052-3.032a12.174,12.174,0,0,0-1.382-.013c-.3.013-.406.229-.458.511-.19.956.059,1.225,1.153,1.2.2,0,.412.013.616,0a.81.81,0,0,0,.838-.9A.772.772,0,0,0,312.133,225.4Zm6.464.354a10.368,10.368,0,0,0-.989,3.078,3.579,3.579,0,0,0,1.932-.007A11.57,11.57,0,0,0,318.6,225.75Zm20.026-.478c-1.035-.026-1.159.1-1.185,1.113-.026,1.211.046,1.3,1.133,1.29.649.02,1.264-.046,1.578-.72C340.574,226.051,339.893,225.3,338.622,225.272Zm0,0c-1.035-.026-1.159.1-1.185,1.113-.026,1.211.046,1.3,1.133,1.29.649.02,1.264-.046,1.578-.72C340.574,226.051,339.893,225.3,338.622,225.272Zm-20.026.478a10.368,10.368,0,0,0-.989,3.078,3.579,3.579,0,0,0,1.932-.007A11.57,11.57,0,0,0,318.6,225.75Zm-6.464-.354a12.174,12.174,0,0,0-1.382-.013c-.3.013-.406.229-.458.511-.19.956.059,1.225,1.153,1.2.2,0,.412.013.616,0a.81.81,0,0,0,.838-.9A.772.772,0,0,0,312.133,225.4Zm.052,3.032a8.4,8.4,0,0,0-1.408-.013.477.477,0,0,0-.458.354c-.393,1.008.059,1.735,1.1,1.742.21,0,.419.007.629,0,.668-.033,1.113-.34,1.12-1.048A1.009,1.009,0,0,0,312.185,228.428Zm-12.194,26.287c-1.257-.026-2.508-.007-3.766-.007-1.362,0-2.724-.053-4.08.02a2.639,2.639,0,0,0-2.58,2.79,2.591,2.591,0,0,0,2.534,2.823,25.659,25.659,0,0,0,4.073-.039,5.251,5.251,0,0,0,4.7-4.558C300.967,254.879,300.869,254.728,299.991,254.715Zm-79.241-2.9c0-.786.02-1.572-.007-2.358a6.268,6.268,0,0,0-12.528-.236,47.048,47.048,0,0,0,0,5.173,6.271,6.271,0,0,0,12.534-.229C220.77,253.379,220.751,252.593,220.751,251.814Zm0,0c0-.786.02-1.572-.007-2.358a6.268,6.268,0,0,0-12.528-.236,47.048,47.048,0,0,0,0,5.173,6.271,6.271,0,0,0,12.534-.229C220.77,253.379,220.751,252.593,220.751,251.814Zm79.241,2.9c-1.257-.026-2.508-.007-3.766-.007-1.362,0-2.724-.053-4.08.02a2.639,2.639,0,0,0-2.58,2.79,2.591,2.591,0,0,0,2.534,2.823,25.659,25.659,0,0,0,4.073-.039,5.251,5.251,0,0,0,4.7-4.558C300.967,254.879,300.869,254.728,299.991,254.715Zm12.194-26.287a8.4,8.4,0,0,0-1.408-.013.477.477,0,0,0-.458.354c-.393,1.008.059,1.735,1.1,1.742.21,0,.419.007.629,0,.668-.033,1.113-.34,1.12-1.048A1.009,1.009,0,0,0,312.185,228.428Zm-.052-3.032a12.174,12.174,0,0,0-1.382-.013c-.3.013-.406.229-.458.511-.19.956.059,1.225,1.153,1.2.2,0,.412.013.616,0a.81.81,0,0,0,.838-.9A.772.772,0,0,0,312.133,225.4Zm6.464.354a10.368,10.368,0,0,0-.989,3.078,3.579,3.579,0,0,0,1.932-.007A11.57,11.57,0,0,0,318.6,225.75Zm0,0a10.368,10.368,0,0,0-.989,3.078,3.579,3.579,0,0,0,1.932-.007A11.57,11.57,0,0,0,318.6,225.75Zm-6.464-.354a12.174,12.174,0,0,0-1.382-.013c-.3.013-.406.229-.458.511-.19.956.059,1.225,1.153,1.2.2,0,.412.013.616,0a.81.81,0,0,0,.838-.9A.772.772,0,0,0,312.133,225.4Zm.052,3.032a8.4,8.4,0,0,0-1.408-.013.477.477,0,0,0-.458.354c-.393,1.008.059,1.735,1.1,1.742.21,0,.419.007.629,0,.668-.033,1.113-.34,1.12-1.048A1.009,1.009,0,0,0,312.185,228.428Zm-12.194,26.287c-1.257-.026-2.508-.007-3.766-.007-1.362,0-2.724-.053-4.08.02a2.639,2.639,0,0,0-2.58,2.79,2.591,2.591,0,0,0,2.534,2.823,25.659,25.659,0,0,0,4.073-.039,5.251,5.251,0,0,0,4.7-4.558C300.967,254.879,300.869,254.728,299.991,254.715Zm-79.241-2.9c0-.786.02-1.572-.007-2.358a6.268,6.268,0,0,0-12.528-.236,47.048,47.048,0,0,0,0,5.173,6.271,6.271,0,0,0,12.534-.229C220.77,253.379,220.751,252.593,220.751,251.814Zm0,0c0-.786.02-1.572-.007-2.358a6.268,6.268,0,0,0-12.528-.236,47.048,47.048,0,0,0,0,5.173,6.271,6.271,0,0,0,12.534-.229C220.77,253.379,220.751,252.593,220.751,251.814Zm79.241,2.9c-1.257-.026-2.508-.007-3.766-.007-1.362,0-2.724-.053-4.08.02a2.639,2.639,0,0,0-2.58,2.79,2.591,2.591,0,0,0,2.534,2.823,25.659,25.659,0,0,0,4.073-.039,5.251,5.251,0,0,0,4.7-4.558C300.967,254.879,300.869,254.728,299.991,254.715Zm12.194-26.287a8.4,8.4,0,0,0-1.408-.013.477.477,0,0,0-.458.354c-.393,1.008.059,1.735,1.1,1.742.21,0,.419.007.629,0,.668-.033,1.113-.34,1.12-1.048A1.009,1.009,0,0,0,312.185,228.428Zm-.052-3.032a12.174,12.174,0,0,0-1.382-.013c-.3.013-.406.229-.458.511-.19.956.059,1.225,1.153,1.2.2,0,.412.013.616,0a.81.81,0,0,0,.838-.9A.772.772,0,0,0,312.133,225.4Zm6.464.354a10.368,10.368,0,0,0-.989,3.078,3.579,3.579,0,0,0,1.932-.007A11.57,11.57,0,0,0,318.6,225.75Zm0,0a10.368,10.368,0,0,0-.989,3.078,3.579,3.579,0,0,0,1.932-.007A11.57,11.57,0,0,0,318.6,225.75Zm-6.464-.354a12.174,12.174,0,0,0-1.382-.013c-.3.013-.406.229-.458.511-.19.956.059,1.225,1.153,1.2.2,0,.412.013.616,0a.81.81,0,0,0,.838-.9A.772.772,0,0,0,312.133,225.4Zm.052,3.032a8.4,8.4,0,0,0-1.408-.013.477.477,0,0,0-.458.354c-.393,1.008.059,1.735,1.1,1.742.21,0,.419.007.629,0,.668-.033,1.113-.34,1.12-1.048A1.009,1.009,0,0,0,312.185,228.428Zm-12.194,26.287c-1.257-.026-2.508-.007-3.766-.007-1.362,0-2.724-.053-4.08.02a2.639,2.639,0,0,0-2.58,2.79,2.591,2.591,0,0,0,2.534,2.823,25.659,25.659,0,0,0,4.073-.039,5.251,5.251,0,0,0,4.7-4.558C300.967,254.879,300.869,254.728,299.991,254.715Zm-79.241-2.9c0-.786.02-1.572-.007-2.358a6.268,6.268,0,0,0-12.528-.236,47.048,47.048,0,0,0,0,5.173,6.271,6.271,0,0,0,12.534-.229C220.77,253.379,220.751,252.593,220.751,251.814Zm0,0c0-.786.02-1.572-.007-2.358a6.268,6.268,0,0,0-12.528-.236,47.048,47.048,0,0,0,0,5.173,6.271,6.271,0,0,0,12.534-.229C220.77,253.379,220.751,252.593,220.751,251.814Zm79.241,2.9c-1.257-.026-2.508-.007-3.766-.007-1.362,0-2.724-.053-4.08.02a2.639,2.639,0,0,0-2.58,2.79,2.591,2.591,0,0,0,2.534,2.823,25.659,25.659,0,0,0,4.073-.039,5.251,5.251,0,0,0,4.7-4.558C300.967,254.879,300.869,254.728,299.991,254.715Zm0,0c-1.257-.026-2.508-.007-3.766-.007-1.362,0-2.724-.053-4.08.02a2.639,2.639,0,0,0-2.58,2.79,2.591,2.591,0,0,0,2.534,2.823,25.659,25.659,0,0,0,4.073-.039,5.251,5.251,0,0,0,4.7-4.558C300.967,254.879,300.869,254.728,299.991,254.715Zm-79.241-2.9c0-.786.02-1.572-.007-2.358a6.268,6.268,0,0,0-12.528-.236,47.048,47.048,0,0,0,0,5.173,6.271,6.271,0,0,0,12.534-.229C220.77,253.379,220.751,252.593,220.751,251.814Zm0,0c0-.786.02-1.572-.007-2.358a6.268,6.268,0,0,0-12.528-.236,47.048,47.048,0,0,0,0,5.173,6.271,6.271,0,0,0,12.534-.229C220.77,253.379,220.751,252.593,220.751,251.814Zm0,0c0-.786.02-1.572-.007-2.358a6.268,6.268,0,0,0-12.528-.236,47.048,47.048,0,0,0,0,5.173,6.271,6.271,0,0,0,12.534-.229C220.77,253.379,220.751,252.593,220.751,251.814Z" transform="translate(-142.948 -136.893)" fill="#50B8E7"/>
      <path id="Path_73" data-name="Path 73" d="M669.692,552.067a5.251,5.251,0,0,1-4.7,4.558,25.648,25.648,0,0,1-4.073.039,2.591,2.591,0,0,1-2.535-2.823,2.639,2.639,0,0,1,2.58-2.79c1.356-.072,2.718-.02,4.08-.02,1.257,0,2.508-.02,3.766.007C669.692,551.052,669.79,551.2,669.692,552.067Z" transform="translate(-511.771 -433.217)" fill="#50B8E7"/>
      <path id="Path_74" data-name="Path 74" d="M384.758,521.765a6.271,6.271,0,0,1-12.534.229,47.048,47.048,0,0,1,0-5.173,6.268,6.268,0,0,1,12.528.236c.026.786.007,1.572.007,2.357S384.778,520.979,384.758,521.765Z" transform="translate(-306.955 -404.493)" fill="#50B8E7"/>
      <path id="Path_75" data-name="Path 75" d="M733.844,459.631c-.007.707-.452,1.015-1.12,1.048-.21.007-.419,0-.629,0-1.041-.007-1.493-.734-1.1-1.742a.477.477,0,0,1,.458-.354,8.407,8.407,0,0,1,1.408.013A1.009,1.009,0,0,1,733.844,459.631Z" transform="translate(-563.624 -367.061)" fill="#50B8E7"/>
      <path id="Path_76" data-name="Path 76" d="M731.111,448.461c.052-.282.157-.5.458-.511a12.181,12.181,0,0,1,1.382.013.772.772,0,0,1,.766.806.81.81,0,0,1-.838.9c-.2.013-.413,0-.616,0C731.17,449.686,730.921,449.417,731.111,448.461Z" transform="translate(-563.766 -359.46)" fill="#50B8E7"/>
      <path id="Path_77" data-name="Path 77" d="M829.386,449.267c-.314.674-.93.74-1.578.72-1.087.007-1.159-.078-1.133-1.29.026-1.015.151-1.139,1.185-1.113C829.131,447.617,829.812,448.364,829.386,449.267Z" transform="translate(-632.185 -359.206)" fill="#50B8E7"/>
      <path id="Path_78" data-name="Path 78" d="M756.531,486.882a2.749,2.749,0,0,1-1.86.013,7.813,7.813,0,0,1,.943-2.881A6.489,6.489,0,0,1,756.531,486.882Z" transform="translate(-580.666 -385.275)" fill="#50B8E7"/>
      <path id="Path_79" data-name="Path 79" d="M758.9,452.344a3.58,3.58,0,0,1-1.932.007,10.366,10.366,0,0,1,.989-3.078A11.57,11.57,0,0,1,758.9,452.344Z" transform="translate(-582.313 -360.416)" fill="#50B8E7"/>
      <path id="Path_80" data-name="Path 80" d="M669.692,552.067a5.251,5.251,0,0,1-4.7,4.558,25.648,25.648,0,0,1-4.073.039,2.591,2.591,0,0,1-2.535-2.823,2.639,2.639,0,0,1,2.58-2.79c1.356-.072,2.718-.02,4.08-.02,1.257,0,2.508-.02,3.766.007C669.692,551.052,669.79,551.2,669.692,552.067Z" transform="translate(-511.771 -433.217)" fill="#50B8E7"/>
      <path id="Path_81" data-name="Path 81" d="M384.758,521.765a6.271,6.271,0,0,1-12.534.229,47.048,47.048,0,0,1,0-5.173,6.268,6.268,0,0,1,12.528.236c.026.786.007,1.572.007,2.357S384.778,520.979,384.758,521.765Z" transform="translate(-306.955 -404.493)" fill="#50B8E7"/>
      <path id="Path_82" data-name="Path 82" d="M733.844,459.631c-.007.707-.452,1.015-1.12,1.048-.21.007-.419,0-.629,0-1.041-.007-1.493-.734-1.1-1.742a.477.477,0,0,1,.458-.354,8.407,8.407,0,0,1,1.408.013A1.009,1.009,0,0,1,733.844,459.631Z" transform="translate(-563.624 -367.061)" fill="#50B8E7"/>
      <path id="Path_83" data-name="Path 83" d="M733.717,448.769a.81.81,0,0,1-.838.9c-.2.013-.413,0-.616,0-1.094.02-1.343-.249-1.153-1.2.052-.282.157-.5.458-.511a12.181,12.181,0,0,1,1.382.013A.772.772,0,0,1,733.717,448.769Z" transform="translate(-563.766 -359.46)" fill="#50B8E7"/>
      <path id="Path_84" data-name="Path 84" d="M829.386,449.267c-.314.674-.93.74-1.578.72-1.087.007-1.159-.078-1.133-1.29.026-1.015.151-1.139,1.185-1.113C829.131,447.617,829.812,448.364,829.386,449.267Z" transform="translate(-632.185 -359.206)" fill="#50B8E7"/>
      <path id="Path_85" data-name="Path 85" d="M756.531,486.882a2.749,2.749,0,0,1-1.86.013,7.813,7.813,0,0,1,.943-2.881A6.489,6.489,0,0,1,756.531,486.882Z" transform="translate(-580.666 -385.275)" fill="#50B8E7"/>
      <path id="Path_86" data-name="Path 86" d="M758.9,452.344a3.58,3.58,0,0,1-1.932.007,10.366,10.366,0,0,1,.989-3.078A11.57,11.57,0,0,1,758.9,452.344Z" transform="translate(-582.313 -360.416)" fill="#50B8E7"/>
    </g>
    <rect id="Rectangle_82" data-name="Rectangle 82" width="184.893" height="61.726" transform="translate(20.495 68.583)" fill="#50B8E7"/>
  </svg>
  