<svg viewBox="0 0 1512 937" fill="none" xmlns="http://www.w3.org/2000/svg">
    <g opacity="0.22">
    <path opacity="0.49" d="M782.155 539.263C780.802 542.622 780.656 546.347 781.743 549.802C782.83 553.256 785.083 556.226 788.116 558.204C794.422 562.091 802.954 560.977 809.116 565.012C813.395 567.812 815.893 572.44 819.454 576.203C826.107 583.012 835.976 585.463 845.423 586.403C866.445 588.458 887.466 584.348 908.191 580.065C913.138 579.074 918.084 577.91 921.691 574.465C926.637 569.765 927.057 561.789 924.337 555.599C921.25 549.547 916.484 544.512 910.61 541.098C900.891 534.735 889.144 530.526 877.694 532.507C870.076 533.819 863.076 537.807 855.434 538.796C840.447 540.752 827.043 531.74 812.847 528.896C802.608 526.71 787.052 528.122 782.155 539.263Z" fill="#F0F0F0"/>
    <path d="M843.242 548.299C840.596 547.952 835.155 549.537 832.137 547.012C830.406 545.576 828.725 543.397 826.524 543.768C825.114 543.991 824.05 545.204 822.839 545.823C821.863 546.162 820.825 546.294 819.795 546.209C818.764 546.123 817.762 545.823 816.854 545.328C815.052 544.316 813.194 543.407 811.289 542.605C809.515 542.045 807.622 541.98 805.814 542.416C804.005 542.852 802.35 543.773 801.025 545.08C800.78 545.284 800.585 545.542 800.456 545.834C800.328 546.127 800.269 546.445 800.284 546.764C800.385 547.162 800.611 547.517 800.927 547.779C804.686 551.369 811.709 550.626 814.356 555.207C814.974 556.919 815.735 558.575 816.631 560.159C817.422 560.908 818.379 561.46 819.423 561.77C820.467 562.079 821.57 562.138 822.641 561.941C824.776 561.534 826.948 561.36 829.12 561.421C834.363 562.09 837.801 567.561 842.92 568.849C848.039 570.137 852.961 567.116 858.105 566.794C866.267 566.323 874.032 572.637 882.045 570.953C886.596 569.988 890.528 566.522 895.178 566.522C898.937 566.522 902.597 568.799 906.233 568.428C910.907 567.958 914.419 562.164 912.094 558.079C910.749 556.099 908.809 554.599 906.554 553.796C904.004 552.432 901.078 551.936 898.22 552.384C893.273 553.523 889.959 559.119 884.988 558.797C880.735 558.497 877.816 553.845 873.588 553.35C868.642 552.756 864.561 558.079 859.541 558.079C855.485 558.079 852.369 554.712 849.352 551.963C846.335 549.214 847.352 549.063 843.243 548.349" fill="#333436"/>
    <path opacity="0.49" d="M1169.16 889.263C1167.8 892.622 1167.66 896.347 1168.74 899.802C1169.83 903.256 1172.08 906.226 1175.12 908.204C1181.42 912.091 1189.95 910.977 1196.12 915.012C1200.4 917.812 1202.89 922.44 1206.45 926.203C1213.11 933.012 1222.98 935.463 1232.42 936.403C1253.44 938.458 1274.47 934.348 1295.19 930.065C1300.14 929.074 1305.08 927.91 1308.69 924.465C1313.64 919.765 1314.06 911.789 1311.34 905.599C1308.25 899.547 1303.48 894.512 1297.61 891.098C1287.89 884.735 1276.14 880.526 1264.69 882.507C1257.08 883.819 1250.08 887.807 1242.43 888.796C1227.45 890.752 1214.04 881.74 1199.85 878.896C1189.61 876.71 1174.05 878.122 1169.16 889.263Z" fill="#F0F0F0"/>
    <path d="M1230.24 898.299C1227.6 897.952 1222.16 899.537 1219.14 897.012C1217.41 895.576 1215.73 893.397 1213.52 893.768C1212.11 893.991 1211.05 895.204 1209.84 895.823C1208.86 896.162 1207.83 896.294 1206.79 896.209C1205.76 896.123 1204.76 895.823 1203.85 895.328C1202.05 894.316 1200.19 893.407 1198.29 892.605C1196.52 892.045 1194.62 891.98 1192.81 892.416C1191 892.852 1189.35 893.773 1188.03 895.08C1187.78 895.284 1187.58 895.542 1187.46 895.834C1187.33 896.127 1187.27 896.445 1187.28 896.764C1187.39 897.162 1187.61 897.517 1187.93 897.779C1191.69 901.369 1198.71 900.626 1201.36 905.207C1201.97 906.919 1202.73 908.575 1203.63 910.159C1204.42 910.908 1205.38 911.46 1206.42 911.77C1207.47 912.079 1208.57 912.138 1209.64 911.941C1211.78 911.534 1213.95 911.36 1216.12 911.421C1221.36 912.09 1224.8 917.561 1229.92 918.849C1235.04 920.137 1239.96 917.116 1245.11 916.794C1253.27 916.323 1261.03 922.637 1269.05 920.953C1273.6 919.988 1277.53 916.522 1282.18 916.522C1285.94 916.522 1289.6 918.799 1293.23 918.428C1297.91 917.958 1301.42 912.164 1299.09 908.079C1297.75 906.099 1295.81 904.599 1293.55 903.796C1291 902.432 1288.08 901.936 1285.22 902.384C1280.27 903.523 1276.96 909.119 1271.99 908.797C1267.74 908.497 1264.82 903.845 1260.59 903.35C1255.64 902.756 1251.56 908.079 1246.54 908.079C1242.49 908.079 1239.37 904.712 1236.35 901.963C1233.34 899.214 1234.35 899.063 1230.24 898.349" fill="#333436"/>
    <path opacity="0.49" d="M1371.73 444.057C1376.91 443.757 1381.51 440.614 1386.09 438.09C1399.22 430.84 1416.14 428.381 1428.97 436.122C1441.8 443.863 1446.87 463.902 1436.24 474.465C1427.75 482.892 1414.14 482.323 1402.22 481.313C1390.3 480.303 1376.59 480.096 1368.48 488.886C1364.52 493.186 1362.63 499.009 1359.01 503.604C1352.03 512.459 1339.42 515.371 1328.34 513.313C1317.26 511.255 1307.43 505.013 1298.42 498.232C1288.75 490.957 1278.82 482.543 1266.76 481.624C1258.99 481.024 1251.35 483.656 1243.6 483.424C1231.7 483.062 1221.14 476.149 1211.23 469.469C1209.47 468.458 1207.97 467.055 1206.83 465.369C1206.24 464.077 1205.93 462.669 1205.94 461.245C1205.96 459.821 1206.28 458.418 1206.9 457.136C1210.4 448.605 1221.59 444.191 1229.95 448.074C1237.6 451.647 1242.82 460.825 1251.27 460.954C1258.69 461.054 1263.96 454.054 1268.1 447.854C1274.16 438.702 1281.94 428.799 1294.16 429.99C1303.7 430.935 1308.83 438.702 1316.82 442.365C1326.63 446.87 1331.2 440.665 1340.53 438.029C1352.52 434.724 1360.29 444.769 1371.73 444.057Z" fill="#F0F0F0"/>
    <path d="M1292.01 457.649C1295 458.556 1297.54 460.523 1300.33 461.973C1303.12 463.423 1306.5 464.316 1309.31 462.957C1311.03 462.115 1312.29 460.549 1313.94 459.617C1315.12 458.983 1316.44 458.676 1317.77 458.729C1319.11 458.782 1320.4 459.192 1321.52 459.917C1323.63 461.328 1325.27 463.93 1327.8 463.8C1330.33 463.67 1331.81 460.888 1334.02 459.593C1336.47 458.117 1339.6 458.622 1342.3 459.593C1345 460.564 1347.64 461.82 1350.49 461.833C1355.19 461.833 1359.07 458.433 1363.07 455.969C1366.58 453.794 1370.7 452.253 1374.72 452.875C1377.53 453.315 1380.2 454.765 1383.05 454.635C1387.54 454.428 1390.82 450.48 1394.82 448.37C1399.4 445.949 1404.86 446.027 1410.03 446.545C1412.4 446.664 1414.72 447.221 1416.88 448.189C1417.96 448.689 1418.89 449.444 1419.6 450.387C1420.32 451.33 1420.79 452.433 1420.98 453.6C1421.29 456.706 1418.8 459.554 1415.89 460.694C1412.98 461.834 1409.76 461.694 1406.64 461.522C1403.52 461.35 1400.28 461.185 1397.38 462.338C1392.2 464.37 1389.29 469.988 1384.43 472.694C1381.78 474.007 1378.85 474.677 1375.88 474.648C1373.29 474.713 1370.7 474.506 1368.28 475.464C1364.28 477.064 1362.23 481.38 1359.53 484.745C1356.18 488.874 1351.55 491.763 1346.36 492.952C1344.81 493.37 1343.19 493.427 1341.61 493.121C1338.52 492.383 1336.43 489.651 1334.04 487.554C1331.65 485.46 1328.84 483.9 1325.79 482.98C1322.75 482.061 1319.55 481.802 1316.39 482.221C1312.91 482.7 1309.5 484.033 1306.03 483.891C1298.45 483.591 1293.01 477.16 1287.3 473.004C1284.38 470.846 1281.02 469.345 1277.46 468.604C1272.95 467.568 1275.51 465.122 1278.19 462.351C1281.77 458.53 1286.73 456.07 1292.01 457.649Z" fill="#333436"/>
    <path d="M1219.48 461.728C1219.46 462.175 1219.55 462.622 1219.73 463.028C1220.5 464.685 1221.84 466.006 1223.51 466.743C1225.87 467.895 1240.56 472.154 1235.16 465.668C1233.27 463.372 1220.26 454.854 1219.48 461.728Z" fill="#333436"/>
    <path opacity="0.49" d="M243.734 817.057C248.913 816.757 253.513 813.614 258.093 811.09C271.223 803.84 288.143 801.381 300.973 809.122C313.803 816.863 318.874 836.902 308.244 847.465C299.754 855.892 286.143 855.323 274.223 854.313C262.303 853.303 248.594 853.096 240.484 861.886C236.523 866.186 234.634 872.009 231.014 876.604C224.034 885.459 211.423 888.371 200.343 886.313C189.263 884.255 179.434 878.013 170.424 871.232C160.754 863.957 150.824 855.543 138.764 854.624C130.994 854.024 123.353 856.656 115.603 856.424C103.703 856.062 93.1435 849.149 83.2335 842.469C81.4717 841.458 79.9662 840.055 78.8335 838.369C78.2353 837.077 77.9314 835.669 77.9435 834.245C77.9556 832.821 78.2835 831.418 78.9035 830.136C82.4035 821.605 93.5935 817.191 101.953 821.074C109.603 824.647 114.824 833.825 123.274 833.954C130.694 834.054 135.963 827.054 140.103 820.854C146.163 811.702 153.944 801.799 166.164 802.99C175.704 803.935 180.833 811.702 188.823 815.365C198.633 819.87 203.204 813.665 212.534 811.029C224.524 807.724 232.294 817.769 243.734 817.057Z" fill="#F0F0F0"/>
    <path d="M164.013 830.649C167.003 831.556 169.543 833.523 172.333 834.973C175.123 836.423 178.503 837.316 181.313 835.957C183.033 835.115 184.293 833.549 185.943 832.617C187.118 831.983 188.441 831.676 189.775 831.729C191.108 831.782 192.403 832.192 193.523 832.917C195.633 834.328 197.273 836.93 199.803 836.8C202.333 836.67 203.813 833.888 206.023 832.593C208.473 831.117 211.604 831.622 214.303 832.593C217.003 833.564 219.643 834.82 222.493 834.833C227.193 834.833 231.073 831.433 235.073 828.969C238.583 826.794 242.703 825.253 246.723 825.875C249.533 826.315 252.203 827.765 255.053 827.635C259.543 827.428 262.823 823.48 266.823 821.37C271.403 818.949 276.863 819.027 282.033 819.545C284.399 819.664 286.722 820.221 288.883 821.189C289.956 821.689 290.889 822.444 291.604 823.387C292.318 824.33 292.792 825.433 292.983 826.6C293.293 829.706 290.803 832.554 287.893 833.694C284.983 834.834 281.763 834.694 278.643 834.522C275.523 834.35 272.283 834.185 269.383 835.338C264.203 837.37 261.293 842.988 256.433 845.694C253.776 847.007 250.847 847.677 247.883 847.648C245.293 847.713 242.703 847.506 240.283 848.464C236.283 850.064 234.233 854.38 231.533 857.745C228.183 861.874 223.547 864.763 218.363 865.952C216.814 866.37 215.189 866.427 213.613 866.121C210.523 865.383 208.433 862.651 206.043 860.554C203.651 858.46 200.839 856.9 197.795 855.98C194.751 855.061 191.546 854.802 188.393 855.221C184.913 855.7 181.503 857.033 178.033 856.891C170.453 856.591 165.013 850.16 159.303 846.004C156.378 843.846 153.022 842.345 149.463 841.604C144.953 840.568 147.513 838.122 150.193 835.351C153.773 831.53 158.733 829.07 164.013 830.649Z" fill="#333436"/>
    <path d="M91.4836 834.728C91.46 835.175 91.5458 835.622 91.7336 836.028C92.4998 837.685 93.8437 839.006 95.5136 839.743C97.8736 840.895 112.564 845.154 107.164 838.668C105.274 836.372 92.2636 827.854 91.4836 834.728Z" fill="#333436"/>
    <path opacity="0.49" d="M1440.78 14.1648C1445.96 13.8648 1450.56 10.7218 1455.14 8.19782C1468.27 0.947817 1485.19 -1.5112 1498.02 6.2298C1510.85 13.9708 1515.92 34.0098 1505.29 44.5728C1496.8 52.9998 1483.19 52.4308 1471.27 51.4208C1459.35 50.4108 1445.64 50.2038 1437.53 58.9938C1433.57 63.2938 1431.68 69.1168 1428.06 73.7118C1421.08 82.5668 1408.47 85.4788 1397.39 83.4208C1386.31 81.3628 1376.48 75.1208 1367.47 68.3398C1357.8 61.0648 1347.87 52.6508 1335.81 51.7318C1328.04 51.1318 1320.4 53.7638 1312.65 53.5318C1300.75 53.1698 1290.19 46.2568 1280.28 39.5768C1278.52 38.5658 1277.02 37.1629 1275.88 35.4768C1275.29 34.1848 1274.98 32.7762 1274.99 31.3524C1275.01 29.9287 1275.33 28.5255 1275.95 27.2438C1279.45 18.7128 1290.64 14.2988 1299 18.1818C1306.65 21.7548 1311.87 30.9328 1320.32 31.0618C1327.74 31.1618 1333.01 24.1618 1337.15 17.9618C1343.21 8.80982 1350.99 -1.09319 1363.21 0.0978106C1372.75 1.04281 1377.88 8.80981 1385.87 12.4728C1395.68 16.9778 1400.25 10.7728 1409.58 8.13681C1421.57 4.83181 1429.34 14.8768 1440.78 14.1648Z" fill="#F0F0F0"/>
    <path d="M1361.06 27.7565C1364.05 28.6635 1366.59 30.6305 1369.38 32.0805C1372.17 33.5305 1375.55 34.4235 1378.36 33.0645C1380.08 32.2225 1381.34 30.6565 1382.99 29.7245C1384.17 29.0905 1385.49 28.7837 1386.82 28.8365C1388.16 28.8893 1389.45 29.2996 1390.57 30.0245C1392.68 31.4355 1394.32 34.0375 1396.85 33.9075C1399.38 33.7775 1400.86 30.9955 1403.07 29.7005C1405.52 28.2245 1408.65 28.7295 1411.35 29.7005C1414.05 30.6715 1416.69 31.9275 1419.54 31.9405C1424.24 31.9405 1428.12 28.5405 1432.12 26.0765C1435.63 23.9015 1439.75 22.3605 1443.77 22.9825C1446.58 23.4225 1449.25 24.8725 1452.1 24.7425C1456.59 24.5355 1459.87 20.5875 1463.87 18.4775C1468.45 16.0565 1473.91 16.1345 1479.08 16.6525C1481.45 16.7714 1483.77 17.3289 1485.93 18.2965C1487.01 18.7968 1487.94 19.5511 1488.65 20.4941C1489.37 21.437 1489.84 22.5401 1490.03 23.7075C1490.34 26.8135 1487.85 29.6615 1484.94 30.8015C1482.03 31.9415 1478.81 31.8015 1475.69 31.6295C1472.57 31.4575 1469.33 31.2925 1466.43 32.4455C1461.25 34.4775 1458.34 40.0955 1453.48 42.8015C1450.83 44.1146 1447.9 44.784 1444.93 44.7555C1442.34 44.8205 1439.75 44.6135 1437.33 45.5715C1433.33 47.1715 1431.28 51.4875 1428.58 54.8525C1425.23 58.9817 1420.6 61.8708 1415.41 63.0595C1413.86 63.477 1412.24 63.5348 1410.66 63.2285C1407.57 62.4905 1405.48 59.7585 1403.09 57.6615C1400.7 55.5669 1397.89 54.0076 1394.85 53.0879C1391.8 52.1681 1388.6 51.9092 1385.44 52.3285C1381.96 52.8075 1378.55 54.1405 1375.08 53.9985C1367.5 53.6985 1362.06 47.2675 1356.35 43.1115C1353.43 40.9536 1350.07 39.4527 1346.51 38.7115C1342 37.6755 1344.56 35.2295 1347.24 32.4585C1350.82 28.6375 1355.78 26.1775 1361.06 27.7565Z" fill="#333436"/>
    <path d="M1288.53 31.8357C1288.51 32.2829 1288.6 32.7291 1288.78 33.1357C1289.55 34.7925 1290.89 36.1133 1292.56 36.8507C1294.92 38.0027 1309.61 42.2617 1304.21 35.7757C1302.32 33.4797 1289.31 24.9617 1288.53 31.8357Z" fill="#333436"/>
    <path opacity="0.49" d="M4.31457 236.341C2.24857 239.141 -1.19243 242.481 0.414574 246.55C2.02157 250.619 6.61457 252.772 10.9826 253.078C13.1316 253.219 15.3626 253.078 17.3936 253.76C21.0106 255.078 23.3236 259.147 27.1286 259.782C29.1596 260.123 31.2856 259.371 33.3046 259.782C36.1226 260.417 37.8846 263.122 39.7986 265.298C47.4306 273.943 62.1086 275.06 70.9506 267.651C73.6276 265.416 75.9176 262.464 79.2296 261.37C87.6606 258.57 95.8916 269.262 104.546 267.251C108.069 266.416 111.146 263.475 114.786 263.722C118.426 263.969 121.373 267.392 125.06 268.051C127.232 268.439 129.44 267.815 131.648 267.898C136.861 268.074 141.042 272.026 145.328 274.955C155.673 282.117 171.079 283.67 180.155 274.955C182.95 272.273 185.169 268.686 188.821 267.392C194.221 265.463 200.564 269.403 205.801 267.063C209.324 265.51 211.355 261.523 215.007 260.417C219.707 259.006 224.53 263.111 229.462 262.711C232.75 262.44 235.497 260.229 238.386 258.618C242.86 256.118 248.003 254.948 252.477 252.372C256.951 249.796 260.79 245.045 259.933 239.972C259.233 235.832 255.448 232.715 251.385 231.739C247.322 230.763 243.024 231.398 238.961 232.456C237.927 232.853 236.789 232.891 235.732 232.562C234.701 231.887 233.976 230.836 233.713 229.633C231.787 224.106 228.713 217.166 222.863 217.507C218.295 217.778 215.394 222.659 211.12 224.307C203.159 227.388 193.906 218.426 186.238 222.213C184.101 223.26 182.41 225.224 180.097 225.813C176.95 226.624 173.685 224.566 171.877 221.913C170.069 219.26 169.177 216.032 167.92 213.033C166.166 208.838 163.527 205.072 160.183 201.993C156.839 198.913 152.869 196.593 148.545 195.191C144.18 193.851 139.556 193.593 135.07 194.438C130.584 195.284 126.371 197.208 122.794 200.045C117.604 204.291 114.163 210.419 108.785 214.418C103.995 217.939 98.0536 219.526 92.1456 218.864C88.4456 218.44 84.8886 217.147 81.1906 216.794C77.4926 216.441 73.3346 217.276 71.0686 220.228C69.2246 222.581 69.0136 225.839 68.2686 228.767C67.5236 231.695 65.6616 234.848 62.6556 235.142C58.2406 235.577 56.0796 230.096 53.2616 226.662C51.0966 224.21 48.1058 222.639 44.8582 222.249C41.6107 221.858 38.3329 222.675 35.6486 224.545C32.0666 227.226 29.7186 231.845 25.3736 232.907C22.0856 233.719 18.7396 232.166 15.4736 231.225C12.2076 230.284 8.06457 230.261 6.15057 233.06C5.28157 234.33 5.26957 235.024 4.31857 236.318" fill="#F0F0F0"/>
    <path d="M56.9327 242.61C60.8215 243.847 64.8484 244.597 68.9217 244.845C72.6317 245.08 76.6717 244.845 79.4897 242.41C81.2627 240.928 82.3667 238.81 83.7517 236.965C85.6306 234.516 88.0461 232.53 90.8126 231.16C93.5791 229.791 96.6228 229.074 99.7097 229.065C104.924 229.065 110.079 231.165 115.245 230.441C124.134 229.194 130.816 219.985 139.787 220.197C149.275 220.42 155.275 230.841 164.27 233.887C172.912 236.816 182.459 232.382 191.442 233.97C196.491 234.852 201.211 237.616 206.331 237.498C208.844 237.498 211.298 236.745 213.788 236.475C218.843 235.936 223.925 237.225 228.113 240.109C229.287 240.968 230.567 242.156 230.532 243.638C230.532 245.508 228.513 246.684 226.739 247.295C221.715 249.058 216.302 249.396 211.099 248.272C206.93 247.354 202.973 245.52 198.734 245.049C189.551 244 180.803 249.42 171.574 249.82C163.19 250.173 155.134 246.292 146.68 246.468C140.01 246.562 133.634 249.126 127.011 249.855C117.148 250.938 107.211 247.938 97.3107 248.609C88.2927 249.209 79.6967 252.819 70.7847 254.109C61.5937 255.454 45.3197 255.489 39.5417 246.6C31.2397 233.789 51.9777 241.058 56.9327 242.61Z" fill="#333436"/>
    <path opacity="0.49" d="M979.888 229.626C987.596 232.258 994.934 236.152 1003.01 236.907C1015.77 238.107 1028.11 231.319 1040.92 231.535C1047.39 231.643 1053.74 233.535 1060.22 233.335C1066.7 233.135 1073.8 230.025 1075.63 223.835C1077.58 217.355 1073.04 210.828 1068.46 205.841C1064.35 201.347 1059.54 196.868 1053.51 195.941C1045.8 194.771 1038.42 199.697 1030.68 199.389C1018.22 198.912 1010.52 185.998 1000.03 179.256C994.94 176.073 989.099 174.286 983.096 174.072C977.094 173.859 971.141 175.227 965.834 178.04C963.931 178.904 962.323 180.306 961.209 182.073C959.909 184.505 960.331 187.491 959.668 190.154C958.126 195.554 952.438 198.554 947.027 199.974C941.616 201.394 935.757 201.929 931.148 205.1C926.539 208.271 924.026 215.474 927.957 219.46C929.582 220.876 931.522 221.884 933.615 222.4C940.66 224.709 949.415 228.865 956.877 228.788C965.289 228.657 971.348 226.64 979.888 229.626Z" fill="#F0F0F0"/>
    <path d="M964.565 217.805C968.835 217.235 973.044 216.02 977.365 215.835C983.532 215.573 989.698 217.451 995.679 218.913C1004.07 220.818 1012.6 222.007 1021.19 222.469C1023.47 222.832 1025.81 222.465 1027.87 221.422C1028.96 220.677 1029.77 219.579 1030.15 218.312C1030.53 217.045 1030.46 215.686 1029.95 214.465C1029.33 213.343 1028.47 212.371 1027.43 211.619C1026.39 210.866 1025.2 210.351 1023.94 210.109C1021.46 209.432 1018.85 209.247 1016.46 208.354C1008.75 205.537 1005.39 196.672 998.84 191.854C994.858 189.117 990.017 187.921 985.219 188.487C980.42 189.053 975.991 191.344 972.756 194.932C969.765 198.488 967.9 201.643 963.614 203.814C960.269 205.491 957.062 206.63 953.625 207.969C949.325 209.632 947.859 213.28 952.191 216.035C955.794 218.344 960.526 218.344 964.565 217.805Z" fill="#333436"/>
    <path d="M1054.91 210.816C1054.02 210.209 1052.93 209.944 1051.86 210.069C1050.79 210.194 1049.79 210.701 1049.06 211.498C1048.33 212.294 1047.91 213.327 1047.87 214.408C1047.84 215.49 1048.19 216.547 1048.87 217.388C1049.52 218.145 1050.33 218.744 1051.24 219.143C1052.23 219.688 1053.32 220.01 1054.45 220.087C1055.57 220.164 1056.7 219.994 1057.75 219.589C1058.78 219.133 1059.59 218.292 1060 217.247C1060.42 216.201 1060.41 215.035 1059.97 213.998C1059.1 212.798 1057.86 211.913 1056.44 211.474L1053.22 210.104" fill="#333436"/>
    <path opacity="0.49" d="M277.888 464.626C285.596 467.258 292.934 471.152 301.012 471.907C313.777 473.107 326.112 466.319 338.92 466.535C345.395 466.643 351.746 468.535 358.22 468.335C364.694 468.135 371.802 465.025 373.636 458.835C375.578 452.355 371.046 445.828 366.468 440.841C362.352 436.347 357.542 431.868 351.514 430.941C343.806 429.771 336.422 434.697 328.683 434.389C316.227 433.912 308.519 420.998 298.036 414.256C292.941 411.072 287.098 409.284 281.094 409.07C275.09 408.857 269.136 410.226 263.828 413.04C261.925 413.903 260.317 415.305 259.203 417.073C257.908 419.505 258.325 422.491 257.662 425.154C256.12 430.554 250.432 433.554 245.021 434.974C239.61 436.394 233.751 436.929 229.142 440.1C224.533 443.271 222.02 450.474 225.951 454.46C227.576 455.876 229.515 456.884 231.609 457.4C238.654 459.709 247.409 463.865 254.871 463.788C263.294 463.656 269.348 461.64 277.888 464.626Z" fill="#F0F0F0"/>
    <path d="M262.565 452.805C266.835 452.236 271.044 451.02 275.36 450.835C281.527 450.573 287.693 452.451 293.674 453.913C302.062 455.818 310.598 457.007 319.188 457.469C321.467 457.832 323.803 457.465 325.863 456.422C326.957 455.679 327.761 454.581 328.14 453.314C328.519 452.046 328.45 450.687 327.944 449.465C327.322 448.343 326.461 447.371 325.422 446.618C324.383 445.866 323.192 445.35 321.932 445.109C319.45 444.432 316.845 444.247 314.455 443.354C306.747 440.537 303.386 431.672 296.835 426.854C292.853 424.117 288.012 422.921 283.214 423.487C278.415 424.053 273.986 426.344 270.751 429.932C267.76 433.488 265.895 436.643 261.609 438.814C258.264 440.491 255.057 441.63 251.62 442.969C247.32 444.632 245.854 448.28 250.186 451.035C253.794 453.344 258.526 453.344 262.565 452.805Z" fill="#333436"/>
    <path d="M352.917 445.817C352.022 445.208 350.938 444.941 349.862 445.065C348.786 445.189 347.791 445.696 347.058 446.493C346.325 447.29 345.903 448.325 345.869 449.407C345.836 450.489 346.192 451.548 346.874 452.389C347.522 453.147 348.334 453.747 349.248 454.144C350.234 454.689 351.328 455.011 352.452 455.088C353.575 455.165 354.702 454.995 355.753 454.59C356.783 454.135 357.592 453.294 358.008 452.249C358.423 451.203 358.411 450.036 357.973 448.999C357.098 447.8 355.861 446.916 354.443 446.475L351.221 445.105" fill="#333436"/>
    <path opacity="0.49" d="M379.186 436.689C383.101 437.028 386.524 433.442 390.409 432.811C394.294 432.18 398.118 434.535 401.925 433.888C404.307 433.346 406.462 432.077 408.091 430.256C411.148 427.272 412.9 423.199 412.962 418.927C412.854 414.54 409.879 410.169 406.179 410.227C402.479 410.285 399.879 414.152 396.606 416.027C392.567 418.321 387.866 417.474 383.407 417.813C374.394 418.45 367.238 435.643 379.186 436.689Z" fill="#F0F0F0"/>
    <path d="M393.185 423.791C389.808 424.006 386.247 423.791 383.272 425.438C383.057 425.528 382.882 425.692 382.779 425.9C382.75 426.033 382.754 426.17 382.792 426.3C382.829 426.432 382.897 426.552 382.992 426.65C383.411 427.091 383.923 427.432 384.491 427.651C385.059 427.869 385.668 427.958 386.275 427.912C391.547 428.035 396.326 425.034 401.444 423.833C402.294 423.703 403.117 423.432 403.88 423.033C404.257 422.827 404.565 422.514 404.765 422.133C404.966 421.753 405.049 421.321 405.006 420.893C404.855 420.408 404.521 420 404.075 419.756C403.629 419.512 403.106 419.451 402.616 419.585C401.66 419.893 401.074 421.124 400.134 421.801C398.035 423.072 395.635 423.757 393.182 423.787L393.185 423.791Z" fill="#333436"/>
    </g>
    </svg>
    