<svg width="257" height="257" viewBox="0 0 257 257" fill="none" xmlns="http://www.w3.org/2000/svg">
    <g filter="url(#filter0_d_37_9)">
    <path d="M184.776 19.7212C201.304 28.6726 212.918 47.1821 222.298 67.0571C231.53 86.9321 238.379 108.173 240.464 132.144C242.399 156.115 239.421 182.969 226.169 203.299C212.918 223.781 189.392 237.588 166.313 236.981C143.234 236.222 120.899 221.05 96.6289 213.313C72.5076 205.424 46.5995 204.968 38.1123 191.162C29.7741 177.356 38.8568 150.198 34.8366 124.71C30.6675 99.2213 13.2465 75.4016 16.3734 57.9541C19.5002 40.6583 43.3238 29.8863 64.9138 23.3625C86.5039 16.8386 106.009 14.4111 126.408 12.894C146.807 11.3768 168.248 10.7699 184.776 19.7212Z" fill="white"/>
    </g>
    <path d="M74.62 191.9L84.28 180.04H74.78V178.8H85.9V179.9L76.36 191.76H85.88V193H74.62V191.9ZM87.2381 190C87.2381 189.347 87.4248 188.787 87.7981 188.32C88.1715 187.84 88.6848 187.473 89.3381 187.22C90.0048 186.953 90.7715 186.82 91.6381 186.82C92.1448 186.82 92.6715 186.86 93.2181 186.94C93.7648 187.02 94.2515 187.14 94.6781 187.3V186.42C94.6781 185.54 94.4181 184.84 93.8981 184.32C93.3781 183.8 92.6581 183.54 91.7381 183.54C91.1781 183.54 90.6248 183.647 90.0781 183.86C89.5448 184.06 88.9848 184.36 88.3981 184.76L87.8781 183.8C88.5581 183.333 89.2248 182.987 89.8781 182.76C90.5315 182.52 91.1981 182.4 91.8781 182.4C93.1581 182.4 94.1715 182.767 94.9181 183.5C95.6648 184.233 96.0381 185.247 96.0381 186.54V191.36C96.0381 191.547 96.0781 191.687 96.1581 191.78C96.2381 191.86 96.3648 191.907 96.5381 191.92V193C96.3915 193.013 96.2648 193.027 96.1581 193.04C96.0515 193.053 95.9715 193.053 95.9181 193.04C95.5848 193.027 95.3315 192.92 95.1581 192.72C94.9848 192.52 94.8915 192.307 94.8781 192.08L94.8581 191.32C94.3915 191.92 93.7848 192.387 93.0381 192.72C92.2915 193.04 91.5315 193.2 90.7581 193.2C90.0915 193.2 89.4848 193.06 88.9381 192.78C88.4048 192.487 87.9848 192.1 87.6781 191.62C87.3848 191.127 87.2381 190.587 87.2381 190ZM94.2181 190.8C94.3648 190.613 94.4781 190.433 94.5581 190.26C94.6381 190.087 94.6781 189.933 94.6781 189.8V188.28C94.2248 188.107 93.7515 187.973 93.2581 187.88C92.7781 187.787 92.2915 187.74 91.7981 187.74C90.8248 187.74 90.0381 187.933 89.4381 188.32C88.8381 188.707 88.5381 189.233 88.5381 189.9C88.5381 190.287 88.6381 190.653 88.8381 191C89.0381 191.333 89.3315 191.613 89.7181 191.84C90.1048 192.053 90.5581 192.16 91.0781 192.16C91.7315 192.16 92.3381 192.033 92.8981 191.78C93.4715 191.527 93.9115 191.2 94.2181 190.8ZM107.737 193H106.377V187.18C106.377 186.007 106.17 185.127 105.757 184.54C105.343 183.94 104.75 183.64 103.977 183.64C103.47 183.64 102.963 183.773 102.457 184.04C101.963 184.293 101.523 184.647 101.137 185.1C100.763 185.54 100.497 186.047 100.337 186.62V193H98.9766V178.4H100.337V184.94C100.75 184.167 101.323 183.553 102.057 183.1C102.803 182.633 103.597 182.4 104.437 182.4C105.037 182.4 105.543 182.507 105.957 182.72C106.383 182.933 106.723 183.247 106.977 183.66C107.243 184.06 107.437 184.533 107.557 185.08C107.677 185.613 107.737 186.22 107.737 186.9V193ZM119.397 193H118.037V187.18C118.037 185.953 117.857 185.06 117.497 184.5C117.137 183.927 116.57 183.64 115.797 183.64C115.263 183.64 114.737 183.773 114.217 184.04C113.697 184.293 113.237 184.647 112.837 185.1C112.45 185.54 112.17 186.047 111.997 186.62V193H110.637V182.58H111.877V184.94C112.157 184.433 112.523 183.993 112.977 183.62C113.43 183.233 113.943 182.933 114.517 182.72C115.09 182.507 115.683 182.4 116.297 182.4C116.87 182.4 117.357 182.507 117.757 182.72C118.157 182.933 118.477 183.24 118.717 183.64C118.957 184.027 119.13 184.5 119.237 185.06C119.343 185.607 119.397 186.22 119.397 186.9V193ZM125.717 193.2C124.864 193.2 124.07 193.06 123.337 192.78C122.604 192.5 121.97 192.073 121.437 191.5L121.997 190.54C122.584 191.087 123.17 191.487 123.757 191.74C124.357 191.98 124.99 192.1 125.657 192.1C126.47 192.1 127.13 191.94 127.637 191.62C128.144 191.287 128.397 190.813 128.397 190.2C128.397 189.787 128.27 189.473 128.017 189.26C127.777 189.033 127.424 188.853 126.957 188.72C126.504 188.573 125.957 188.42 125.317 188.26C124.597 188.06 123.99 187.853 123.497 187.64C123.017 187.413 122.65 187.133 122.397 186.8C122.157 186.453 122.037 186.007 122.037 185.46C122.037 184.78 122.204 184.22 122.537 183.78C122.884 183.327 123.35 182.987 123.937 182.76C124.537 182.52 125.204 182.4 125.937 182.4C126.737 182.4 127.444 182.527 128.057 182.78C128.67 183.033 129.17 183.387 129.557 183.84L128.897 184.76C128.524 184.333 128.077 184.02 127.557 183.82C127.05 183.607 126.484 183.5 125.857 183.5C125.43 183.5 125.024 183.56 124.637 183.68C124.25 183.787 123.93 183.973 123.677 184.24C123.437 184.493 123.317 184.847 123.317 185.3C123.317 185.673 123.41 185.967 123.597 186.18C123.784 186.38 124.064 186.553 124.437 186.7C124.81 186.833 125.27 186.98 125.817 187.14C126.604 187.353 127.29 187.573 127.877 187.8C128.464 188.013 128.917 188.293 129.237 188.64C129.557 188.987 129.717 189.473 129.717 190.1C129.717 191.073 129.35 191.833 128.617 192.38C127.884 192.927 126.917 193.2 125.717 193.2ZM137.285 193.2C136.418 193.2 135.638 192.973 134.945 192.52C134.265 192.067 133.725 191.507 133.325 190.84V197.26H131.965V182.58H133.185V184.6C133.598 183.947 134.152 183.42 134.845 183.02C135.538 182.607 136.278 182.4 137.065 182.4C137.785 182.4 138.445 182.553 139.045 182.86C139.645 183.153 140.165 183.553 140.605 184.06C141.045 184.567 141.385 185.147 141.625 185.8C141.878 186.44 142.005 187.107 142.005 187.8C142.005 188.773 141.805 189.673 141.405 190.5C141.018 191.313 140.472 191.967 139.765 192.46C139.058 192.953 138.232 193.2 137.285 193.2ZM136.905 192C137.478 192 137.992 191.887 138.445 191.66C138.898 191.42 139.285 191.1 139.605 190.7C139.938 190.3 140.192 189.853 140.365 189.36C140.538 188.853 140.625 188.333 140.625 187.8C140.625 187.24 140.525 186.707 140.325 186.2C140.138 185.693 139.865 185.247 139.505 184.86C139.145 184.473 138.732 184.167 138.265 183.94C137.798 183.713 137.292 183.6 136.745 183.6C136.398 183.6 136.038 183.667 135.665 183.8C135.292 183.933 134.932 184.127 134.585 184.38C134.252 184.62 133.972 184.893 133.745 185.2C133.518 185.507 133.378 185.833 133.325 186.18V189.38C133.538 189.873 133.825 190.32 134.185 190.72C134.545 191.107 134.958 191.42 135.425 191.66C135.905 191.887 136.398 192 136.905 192ZM143.469 190C143.469 189.347 143.655 188.787 144.029 188.32C144.402 187.84 144.915 187.473 145.569 187.22C146.235 186.953 147.002 186.82 147.869 186.82C148.375 186.82 148.902 186.86 149.449 186.94C149.995 187.02 150.482 187.14 150.909 187.3V186.42C150.909 185.54 150.649 184.84 150.129 184.32C149.609 183.8 148.889 183.54 147.969 183.54C147.409 183.54 146.855 183.647 146.309 183.86C145.775 184.06 145.215 184.36 144.629 184.76L144.109 183.8C144.789 183.333 145.455 182.987 146.109 182.76C146.762 182.52 147.429 182.4 148.109 182.4C149.389 182.4 150.402 182.767 151.149 183.5C151.895 184.233 152.269 185.247 152.269 186.54V191.36C152.269 191.547 152.309 191.687 152.389 191.78C152.469 191.86 152.595 191.907 152.769 191.92V193C152.622 193.013 152.495 193.027 152.389 193.04C152.282 193.053 152.202 193.053 152.149 193.04C151.815 193.027 151.562 192.92 151.389 192.72C151.215 192.52 151.122 192.307 151.109 192.08L151.089 191.32C150.622 191.92 150.015 192.387 149.269 192.72C148.522 193.04 147.762 193.2 146.989 193.2C146.322 193.2 145.715 193.06 145.169 192.78C144.635 192.487 144.215 192.1 143.909 191.62C143.615 191.127 143.469 190.587 143.469 190ZM150.449 190.8C150.595 190.613 150.709 190.433 150.789 190.26C150.869 190.087 150.909 189.933 150.909 189.8V188.28C150.455 188.107 149.982 187.973 149.489 187.88C149.009 187.787 148.522 187.74 148.029 187.74C147.055 187.74 146.269 187.933 145.669 188.32C145.069 188.707 144.769 189.233 144.769 189.9C144.769 190.287 144.869 190.653 145.069 191C145.269 191.333 145.562 191.613 145.949 191.84C146.335 192.053 146.789 192.16 147.309 192.16C147.962 192.16 148.569 192.033 149.129 191.78C149.702 191.527 150.142 191.2 150.449 190.8ZM163.967 193H162.607V187.18C162.607 185.953 162.427 185.06 162.067 184.5C161.707 183.927 161.14 183.64 160.367 183.64C159.834 183.64 159.307 183.773 158.787 184.04C158.267 184.293 157.807 184.647 157.407 185.1C157.02 185.54 156.74 186.047 156.567 186.62V193H155.207V182.58H156.447V184.94C156.727 184.433 157.094 183.993 157.547 183.62C158 183.233 158.514 182.933 159.087 182.72C159.66 182.507 160.254 182.4 160.867 182.4C161.44 182.4 161.927 182.507 162.327 182.72C162.727 182.933 163.047 183.24 163.287 183.64C163.527 184.027 163.7 184.5 163.807 185.06C163.914 185.607 163.967 186.22 163.967 186.9V193ZM171.047 193.14C170.341 193.14 169.687 192.993 169.087 192.7C168.487 192.407 167.967 192.013 167.527 191.52C167.101 191.013 166.767 190.44 166.527 189.8C166.287 189.16 166.167 188.5 166.167 187.82C166.167 187.087 166.281 186.4 166.507 185.76C166.747 185.107 167.081 184.527 167.507 184.02C167.947 183.513 168.461 183.12 169.047 182.84C169.634 182.547 170.287 182.4 171.007 182.4C171.901 182.4 172.674 182.627 173.327 183.08C173.994 183.533 174.554 184.093 175.007 184.76V182.58H176.227V193.04C176.227 194 175.994 194.807 175.527 195.46C175.074 196.127 174.454 196.627 173.667 196.96C172.894 197.293 172.047 197.46 171.127 197.46C169.941 197.46 168.981 197.247 168.247 196.82C167.514 196.393 166.914 195.82 166.447 195.1L167.287 194.44C167.701 195.093 168.247 195.58 168.927 195.9C169.621 196.22 170.354 196.38 171.127 196.38C171.807 196.38 172.427 196.253 172.987 196C173.561 195.76 174.014 195.393 174.347 194.9C174.694 194.407 174.867 193.787 174.867 193.04V190.98C174.467 191.633 173.921 192.16 173.227 192.56C172.534 192.947 171.807 193.14 171.047 193.14ZM171.427 192C171.841 192 172.234 191.927 172.607 191.78C172.994 191.633 173.347 191.44 173.667 191.2C173.987 190.947 174.254 190.667 174.467 190.36C174.681 190.053 174.814 189.74 174.867 189.42V186.2C174.667 185.693 174.381 185.247 174.007 184.86C173.634 184.46 173.207 184.153 172.727 183.94C172.261 183.713 171.774 183.6 171.267 183.6C170.681 183.6 170.154 183.727 169.687 183.98C169.234 184.22 168.847 184.547 168.527 184.96C168.221 185.36 167.981 185.813 167.807 186.32C167.634 186.827 167.547 187.333 167.547 187.84C167.547 188.4 167.647 188.933 167.847 189.44C168.047 189.933 168.321 190.38 168.667 190.78C169.027 191.167 169.441 191.467 169.907 191.68C170.387 191.893 170.894 192 171.427 192ZM183.73 193.2C182.984 193.2 182.29 193.06 181.65 192.78C181.01 192.487 180.457 192.093 179.99 191.6C179.524 191.093 179.157 190.513 178.89 189.86C178.637 189.207 178.51 188.507 178.51 187.76C178.51 186.787 178.73 185.893 179.17 185.08C179.624 184.267 180.244 183.62 181.03 183.14C181.817 182.647 182.71 182.4 183.71 182.4C184.737 182.4 185.63 182.647 186.39 183.14C187.164 183.633 187.77 184.287 188.21 185.1C188.65 185.9 188.87 186.78 188.87 187.74C188.87 187.847 188.87 187.953 188.87 188.06C188.87 188.153 188.864 188.227 188.85 188.28H179.93C179.997 189.027 180.204 189.693 180.55 190.28C180.91 190.853 181.37 191.313 181.93 191.66C182.504 191.993 183.124 192.16 183.79 192.16C184.47 192.16 185.11 191.987 185.71 191.64C186.324 191.293 186.75 190.84 186.99 190.28L188.17 190.6C187.957 191.093 187.63 191.54 187.19 191.94C186.75 192.34 186.23 192.653 185.63 192.88C185.044 193.093 184.41 193.2 183.73 193.2ZM179.89 187.3H187.59C187.537 186.54 187.33 185.873 186.97 185.3C186.624 184.727 186.164 184.28 185.59 183.96C185.03 183.627 184.41 183.46 183.73 183.46C183.05 183.46 182.43 183.627 181.87 183.96C181.31 184.28 180.85 184.733 180.49 185.32C180.144 185.893 179.944 186.553 179.89 187.3Z" fill="black"/>
    <path d="M135.353 117.172C126.44 113.013 123.271 128.858 122.875 137.375C122.736 140.347 122.281 146.289 120.498 147.477C118.52 148.795 109.659 136.719 108.02 115.39C106.239 92.2166 94.9513 70.8245 102.672 60.1299C113.372 45.3085 124.157 55.7106 135.353 53.5935C157.343 49.4353 159.179 55.8737 160.309 56.5645C171.009 63.1029 161.498 117.172 150.802 137.375C142.246 153.537 138.918 144.109 138.324 137.375C138.324 126.679 138.324 118.558 135.353 117.172Z" stroke="black" strokeWidth="2"/>
    <path d="M102.676 87.468L117.531 88.6564M117.531 88.6564C117.531 75.5818 120.568 73.4969 132.386 78.5551C136.545 80.3353 148.548 63.6978 147.835 88.6564M117.531 88.6564C118.719 108.263 127.038 96.3805 132.98 97.5689C141.22 99.2169 147.462 101.723 147.835 88.6564M117.531 88.6564H147.835M147.835 88.6564L164.472 86.8716M124.067 82.7122V96.973M141.299 82.118V95.1904" stroke="black" strokeWidth="2"/>
    <path d="M151.401 70.828C151.401 72.1406 150.931 72.6106 149.618 72.6106C148.305 72.6106 147.241 71.5464 147.241 70.2338C147.241 68.9211 148.305 68.4512 149.618 68.4512C150.931 68.4512 151.401 69.5153 151.401 70.828Z" fill="black"/>
    <path d="M113.966 71.4217C113.966 72.7344 114.436 73.2043 115.748 73.2043C117.061 73.2043 118.125 72.1402 118.125 70.8275C118.125 69.5149 117.061 69.0449 115.748 69.0449C114.436 69.0449 113.966 70.109 113.966 71.4217Z" fill="black"/>
    <defs>
    <filter id="filter0_d_37_9" x="0" y="0" width="257" height="257" filterUnits="userSpaceOnUse" color-interpolation-filters="sRGB">
    <feFlood flood-opacity="0" result="BackgroundImageFix"/>
    <feColorMatrix in="SourceAlpha" type="matrix" values="0 0 0 0 0 0 0 0 0 0 0 0 0 0 0 0 0 0 127 0" result="hardAlpha"/>
    <feOffset dy="4"/>
    <feGaussianBlur stdDeviation="8"/>
    <feComposite in2="hardAlpha" operator="out"/>
    <feColorMatrix type="matrix" values="0 0 0 0 0.591667 0 0 0 0 0.591667 0 0 0 0 0.591667 0 0 0 0.25 0"/>
    <feBlend mode="normal" in2="BackgroundImageFix" result="effect1_dropShadow_37_9"/>
    <feBlend mode="normal" in="SourceGraphic" in2="effect1_dropShadow_37_9" result="shape"/>
    </filter>
    </defs>
    </svg>
    