<svg width="257" height="257" viewBox="0 0 257 257" fill="none" xmlns="http://www.w3.org/2000/svg">
    <g filter="url(#filter0_d_37_9)">
    <path d="M184.776 19.7212C201.304 28.6726 212.918 47.1821 222.298 67.0571C231.53 86.9321 238.379 108.173 240.464 132.144C242.399 156.115 239.421 182.969 226.169 203.299C212.918 223.781 189.392 237.588 166.313 236.981C143.234 236.222 120.899 221.05 96.6289 213.313C72.5076 205.424 46.5995 204.968 38.1123 191.162C29.7741 177.356 38.8568 150.198 34.8366 124.71C30.6675 99.2213 13.2465 75.4016 16.3734 57.9541C19.5002 40.6583 43.3238 29.8863 64.9138 23.3625C86.5039 16.8386 106.009 14.4111 126.408 12.894C146.807 11.3768 168.248 10.7699 184.776 19.7212Z" fill="white"/>
    </g>
    <path d="M107.46 181.34C107.46 182.047 107.28 182.68 106.92 183.24C106.56 183.787 106.073 184.22 105.46 184.54C104.86 184.847 104.2 185 103.48 185H96.78V170.8H103.62C104.287 170.8 104.86 170.98 105.34 171.34C105.833 171.687 106.207 172.14 106.46 172.7C106.727 173.247 106.86 173.82 106.86 174.42C106.86 175.127 106.68 175.78 106.32 176.38C105.96 176.98 105.46 177.427 104.82 177.72C105.633 177.96 106.273 178.407 106.74 179.06C107.22 179.713 107.46 180.473 107.46 181.34ZM106.06 181.1C106.06 180.62 105.953 180.18 105.74 179.78C105.527 179.367 105.233 179.033 104.86 178.78C104.5 178.527 104.087 178.4 103.62 178.4H98.18V183.78H103.48C103.96 183.78 104.393 183.653 104.78 183.4C105.167 183.147 105.473 182.82 105.7 182.42C105.94 182.007 106.06 181.567 106.06 181.1ZM98.18 172.02V177.26H103.06C103.527 177.26 103.94 177.14 104.3 176.9C104.66 176.647 104.947 176.32 105.16 175.92C105.373 175.52 105.48 175.093 105.48 174.64C105.48 174.16 105.38 173.727 105.18 173.34C104.98 172.94 104.707 172.62 104.36 172.38C104.013 172.14 103.62 172.02 103.18 172.02H98.18ZM115.02 175.78C114.114 175.807 113.314 176.06 112.62 176.54C111.94 177.02 111.46 177.68 111.18 178.52V185H109.82V174.58H111.1V177.08C111.46 176.347 111.934 175.753 112.52 175.3C113.12 174.847 113.754 174.593 114.42 174.54C114.554 174.527 114.667 174.52 114.76 174.52C114.867 174.52 114.954 174.527 115.02 174.54V175.78ZM115.953 182C115.953 181.347 116.14 180.787 116.513 180.32C116.886 179.84 117.4 179.473 118.053 179.22C118.72 178.953 119.486 178.82 120.353 178.82C120.86 178.82 121.386 178.86 121.933 178.94C122.48 179.02 122.966 179.14 123.393 179.3V178.42C123.393 177.54 123.133 176.84 122.613 176.32C122.093 175.8 121.373 175.54 120.453 175.54C119.893 175.54 119.34 175.647 118.793 175.86C118.26 176.06 117.7 176.36 117.113 176.76L116.593 175.8C117.273 175.333 117.94 174.987 118.593 174.76C119.246 174.52 119.913 174.4 120.593 174.4C121.873 174.4 122.886 174.767 123.633 175.5C124.38 176.233 124.753 177.247 124.753 178.54V183.36C124.753 183.547 124.793 183.687 124.873 183.78C124.953 183.86 125.08 183.907 125.253 183.92V185C125.106 185.013 124.98 185.027 124.873 185.04C124.766 185.053 124.686 185.053 124.633 185.04C124.3 185.027 124.046 184.92 123.873 184.72C123.7 184.52 123.606 184.307 123.593 184.08L123.573 183.32C123.106 183.92 122.5 184.387 121.753 184.72C121.006 185.04 120.246 185.2 119.473 185.2C118.806 185.2 118.2 185.06 117.653 184.78C117.12 184.487 116.7 184.1 116.393 183.62C116.1 183.127 115.953 182.587 115.953 182ZM122.933 182.8C123.08 182.613 123.193 182.433 123.273 182.26C123.353 182.087 123.393 181.933 123.393 181.8V180.28C122.94 180.107 122.466 179.973 121.973 179.88C121.493 179.787 121.006 179.74 120.513 179.74C119.54 179.74 118.753 179.933 118.153 180.32C117.553 180.707 117.253 181.233 117.253 181.9C117.253 182.287 117.353 182.653 117.553 183C117.753 183.333 118.046 183.613 118.433 183.84C118.82 184.053 119.273 184.16 119.793 184.16C120.446 184.16 121.053 184.033 121.613 183.78C122.186 183.527 122.626 183.2 122.933 182.8ZM132.211 185.2C131.451 185.2 130.751 185.06 130.111 184.78C129.485 184.487 128.931 184.087 128.451 183.58C127.985 183.073 127.618 182.493 127.351 181.84C127.098 181.187 126.971 180.493 126.971 179.76C126.971 178.773 127.191 177.873 127.631 177.06C128.071 176.247 128.685 175.6 129.471 175.12C130.258 174.64 131.165 174.4 132.191 174.4C133.165 174.4 134.025 174.627 134.771 175.08C135.518 175.52 136.071 176.12 136.431 176.88L135.111 177.3C134.818 176.767 134.405 176.353 133.871 176.06C133.351 175.753 132.771 175.6 132.131 175.6C131.438 175.6 130.805 175.78 130.231 176.14C129.658 176.5 129.198 176.993 128.851 177.62C128.518 178.247 128.351 178.96 128.351 179.76C128.351 180.547 128.525 181.26 128.871 181.9C129.218 182.54 129.678 183.053 130.251 183.44C130.825 183.813 131.458 184 132.151 184C132.605 184 133.038 183.92 133.451 183.76C133.878 183.6 134.245 183.387 134.551 183.12C134.871 182.84 135.085 182.54 135.191 182.22L136.531 182.62C136.345 183.113 136.031 183.56 135.591 183.96C135.165 184.347 134.658 184.653 134.071 184.88C133.498 185.093 132.878 185.2 132.211 185.2ZM143.07 185.2C142.324 185.2 141.63 185.06 140.99 184.78C140.35 184.487 139.797 184.093 139.33 183.6C138.864 183.093 138.497 182.513 138.23 181.86C137.977 181.207 137.85 180.507 137.85 179.76C137.85 178.787 138.07 177.893 138.51 177.08C138.964 176.267 139.584 175.62 140.37 175.14C141.157 174.647 142.05 174.4 143.05 174.4C144.077 174.4 144.97 174.647 145.73 175.14C146.504 175.633 147.11 176.287 147.55 177.1C147.99 177.9 148.21 178.78 148.21 179.74C148.21 179.847 148.21 179.953 148.21 180.06C148.21 180.153 148.204 180.227 148.19 180.28H139.27C139.337 181.027 139.544 181.693 139.89 182.28C140.25 182.853 140.71 183.313 141.27 183.66C141.844 183.993 142.464 184.16 143.13 184.16C143.81 184.16 144.45 183.987 145.05 183.64C145.664 183.293 146.09 182.84 146.33 182.28L147.51 182.6C147.297 183.093 146.97 183.54 146.53 183.94C146.09 184.34 145.57 184.653 144.97 184.88C144.384 185.093 143.75 185.2 143.07 185.2ZM139.23 179.3H146.93C146.877 178.54 146.67 177.873 146.31 177.3C145.964 176.727 145.504 176.28 144.93 175.96C144.37 175.627 143.75 175.46 143.07 175.46C142.39 175.46 141.77 175.627 141.21 175.96C140.65 176.28 140.19 176.733 139.83 177.32C139.484 177.893 139.284 178.553 139.23 179.3ZM153.729 185.2C152.875 185.2 152.082 185.06 151.349 184.78C150.615 184.5 149.982 184.073 149.449 183.5L150.009 182.54C150.595 183.087 151.182 183.487 151.769 183.74C152.369 183.98 153.002 184.1 153.669 184.1C154.482 184.1 155.142 183.94 155.649 183.62C156.155 183.287 156.409 182.813 156.409 182.2C156.409 181.787 156.282 181.473 156.029 181.26C155.789 181.033 155.435 180.853 154.969 180.72C154.515 180.573 153.969 180.42 153.329 180.26C152.609 180.06 152.002 179.853 151.509 179.64C151.029 179.413 150.662 179.133 150.409 178.8C150.169 178.453 150.049 178.007 150.049 177.46C150.049 176.78 150.215 176.22 150.549 175.78C150.895 175.327 151.362 174.987 151.949 174.76C152.549 174.52 153.215 174.4 153.949 174.4C154.749 174.4 155.455 174.527 156.069 174.78C156.682 175.033 157.182 175.387 157.569 175.84L156.909 176.76C156.535 176.333 156.089 176.02 155.569 175.82C155.062 175.607 154.495 175.5 153.869 175.5C153.442 175.5 153.035 175.56 152.649 175.68C152.262 175.787 151.942 175.973 151.689 176.24C151.449 176.493 151.329 176.847 151.329 177.3C151.329 177.673 151.422 177.967 151.609 178.18C151.795 178.38 152.075 178.553 152.449 178.7C152.822 178.833 153.282 178.98 153.829 179.14C154.615 179.353 155.302 179.573 155.889 179.8C156.475 180.013 156.929 180.293 157.249 180.64C157.569 180.987 157.729 181.473 157.729 182.1C157.729 183.073 157.362 183.833 156.629 184.38C155.895 184.927 154.929 185.2 153.729 185.2Z" fill="black"/>
    <path d="M130.353 117.172C121.44 113.013 118.271 128.858 117.875 137.375C117.736 140.347 117.281 146.289 115.498 147.477C113.52 148.795 104.659 136.719 103.02 115.39C101.239 92.2166 89.9513 70.8245 97.6719 60.1299C108.372 45.3085 119.157 55.7106 130.353 53.5935C152.343 49.4353 154.179 55.8737 155.309 56.5645C166.009 63.1029 156.498 117.172 145.802 137.375C137.246 153.537 133.918 144.109 133.324 137.375C133.324 126.679 133.324 118.558 130.353 117.172Z" stroke="black" stroke-width="2"/>
    <path d="M97.6758 87.4671L112.531 88.6555M112.531 88.6555C112.531 75.5809 115.568 73.4959 127.386 78.5541C131.545 80.3343 143.548 63.6968 142.835 88.6555M112.531 88.6555C113.719 108.262 122.038 96.3795 127.98 97.5679C136.22 99.216 142.462 101.722 142.835 88.6555M112.531 88.6555H142.835M142.835 88.6555L159.472 86.8706M119.067 82.7112V96.972M136.299 82.117V95.1894" stroke="black" stroke-width="2"/>
    <path d="M146.401 70.828C146.401 72.1406 145.931 72.6106 144.618 72.6106C143.305 72.6106 142.241 71.5464 142.241 70.2338C142.241 68.9211 143.305 68.4512 144.618 68.4512C145.931 68.4512 146.401 69.5153 146.401 70.828Z" fill="black"/>
    <path d="M108.966 71.4217C108.966 72.7344 109.436 73.2043 110.748 73.2043C112.061 73.2043 113.125 72.1402 113.125 70.8275C113.125 69.5149 112.061 69.0449 110.748 69.0449C109.436 69.0449 108.966 70.109 108.966 71.4217Z" fill="black"/>
    <defs>
    <filter id="filter0_d_37_9" x="0" y="0" width="257" height="257" filterUnits="userSpaceOnUse" color-interpolation-filters="sRGB">
    <feFlood flood-opacity="0" result="BackgroundImageFix"/>
    <feColorMatrix in="SourceAlpha" type="matrix" values="0 0 0 0 0 0 0 0 0 0 0 0 0 0 0 0 0 0 127 0" result="hardAlpha"/>
    <feOffset dy="4"/>
    <feGaussianBlur stdDeviation="8"/>
    <feComposite in2="hardAlpha" operator="out"/>
    <feColorMatrix type="matrix" values="0 0 0 0 0.591667 0 0 0 0 0.591667 0 0 0 0 0.591667 0 0 0 0.25 0"/>
    <feBlend mode="normal" in2="BackgroundImageFix" result="effect1_dropShadow_37_9"/>
    <feBlend mode="normal" in="SourceGraphic" in2="effect1_dropShadow_37_9" result="shape"/>
    </filter>
    </defs>
    </svg>
    