<svg xmlns="http://www.w3.org/2000/svg" xmlns:xlink="http://www.w3.org/1999/xlink" viewBox="0 0 1442 413">
  <defs>
    <clipPath id="clipPath">
      <rect id="Rectangle_9" data-name="Rectangle 9" width="145" height="59" transform="translate(781 354)" fill="none"/>
    </clipPath>
    <clipPath id="clipPath-2">
      <rect id="Rectangle_10" data-name="Rectangle 10" width="236" height="84" transform="translate(1206 256)" fill="none"/>
    </clipPath>
    <clipPath id="clipPath-3">
      <rect id="Rectangle_11" data-name="Rectangle 11" width="260" height="87" transform="translate(0 20)" fill="none"/>
    </clipPath>
    <clipPath id="clipPath-4">
      <rect id="Rectangle_12" data-name="Rectangle 12" width="189" height="63" transform="translate(926)" fill="none"/>
    </clipPath>
    <clipPath id="clipPath-5">
      <rect id="Rectangle_13" data-name="Rectangle 13" width="189" height="63" transform="translate(357 228)" fill="none"/>
    </clipPath>
  </defs>
  <g id="Group_3" data-name="Group 3">
    <g id="Group_2" data-name="Group 2" clipPath="url(#clipPath)">
      <g id="Group_1" data-name="Group 1">
        <path id="Path_17" data-name="Path 17" d="M782.162,365.265a15.635,15.635,0,0,0,5.961,18.941c6.306,3.887,14.838,2.773,21,6.808,4.279,2.8,6.777,7.428,10.338,11.191,6.653,6.809,16.521,9.26,25.968,10.2,21.022,2.055,42.043-2.055,62.768-6.338,4.947-.991,9.893-2.155,13.5-5.6,4.946-4.7,5.366-12.676,2.646-18.866A35.346,35.346,0,0,0,910.617,367.1c-9.719-6.363-21.467-10.572-32.917-8.591-7.618,1.312-14.617,5.3-22.259,6.289-14.987,1.956-28.391-7.056-42.587-9.9C802.615,352.712,787.059,354.124,782.162,365.265Z" fill="#f0f0f0" opacity="0.49" style="isolation: isolate"/>
        <path id="Path_18" data-name="Path 18" d="M843.249,374.3c-2.646-.347-8.087,1.238-11.105-1.287-1.731-1.436-3.412-3.615-5.613-3.244-1.41.223-2.474,1.436-3.685,2.055a7.41,7.41,0,0,1-5.985-.495,54.958,54.958,0,0,0-5.565-2.723,10.231,10.231,0,0,0-10.264,2.475,2.057,2.057,0,0,0-.741,1.684,1.929,1.929,0,0,0,.643,1.015c3.759,3.59,10.782,2.847,13.429,7.428a32.214,32.214,0,0,0,2.275,4.952,6.917,6.917,0,0,0,6.01,1.782,30.149,30.149,0,0,1,6.479-.52c5.243.669,8.681,6.14,13.8,7.428s10.041-1.733,15.185-2.055c8.162-.471,15.927,5.843,23.94,4.159,4.551-.965,8.483-4.431,13.133-4.431,3.759,0,7.419,2.277,11.055,1.906,4.674-.47,8.186-6.264,5.861-10.349a11.274,11.274,0,0,0-5.54-4.283,13.311,13.311,0,0,0-8.334-1.412c-4.947,1.139-8.261,6.735-13.232,6.413-4.253-.3-7.172-4.952-11.4-5.447-4.946-.594-9.027,4.729-14.047,4.729-4.056,0-7.172-3.367-10.189-6.116s-2-2.9-6.109-3.614" fill="#fff"/>
      </g>
    </g>
  </g>
  <g id="Group_6" data-name="Group 6">
    <g id="Group_5" data-name="Group 5" clipPath="url(#clipPath-2)">
      <g id="Group_4" data-name="Group 4">
        <path id="Path_19" data-name="Path 19" d="M1371.74,270.058c5.18-.3,9.78-3.443,14.36-5.967,13.13-7.25,30.05-9.709,42.88-1.968s17.9,27.78,7.27,38.343c-8.49,8.427-22.1,7.858-34.02,6.848s-25.63-1.217-33.74,7.573c-3.96,4.3-5.85,10.123-9.47,14.718-6.98,8.855-19.59,11.767-30.67,9.709s-20.91-8.3-29.92-15.081c-9.67-7.275-19.6-15.689-31.66-16.608-7.77-.6-15.41,2.032-23.16,1.8-11.9-.362-22.46-7.275-32.37-13.955a13.24,13.24,0,0,1-4.4-4.1,9.622,9.622,0,0,1,.07-8.233c3.5-8.531,14.69-12.945,23.05-9.062,7.65,3.573,12.87,12.751,21.32,12.88,7.42.1,12.69-6.9,16.83-13.1,6.06-9.152,13.84-19.055,26.06-17.864,9.54.945,14.67,8.712,22.66,12.375,9.81,4.505,14.38-1.7,23.71-4.336C1352.53,260.725,1360.3,270.77,1371.74,270.058Z" fill="#f0f0f0" opacity="0.49" style="isolation: isolate"/>
        <path id="Path_20" data-name="Path 20" d="M1292.02,283.65c2.99.907,5.53,2.874,8.32,4.324s6.17,2.343,8.98.984c1.72-.842,2.98-2.408,4.63-3.34a7.444,7.444,0,0,1,7.58.3c2.11,1.411,3.75,4.013,6.28,3.883s4.01-2.912,6.22-4.207c2.45-1.476,5.58-.971,8.28,0s5.34,2.227,8.19,2.24c4.7,0,8.58-3.4,12.58-5.864,3.51-2.175,7.63-3.716,11.65-3.094,2.81.44,5.48,1.89,8.33,1.76,4.49-.207,7.77-4.155,11.77-6.265,4.58-2.421,10.04-2.343,15.21-1.825a19.116,19.116,0,0,1,6.85,1.644,7.27,7.27,0,0,1,4.1,5.411c.31,3.106-2.18,5.954-5.09,7.094s-6.13,1-9.25.828-6.36-.337-9.26.816c-5.18,2.032-8.09,7.65-12.95,10.356a18.89,18.89,0,0,1-8.55,1.954c-2.59.065-5.18-.142-7.6.816-4,1.6-6.05,5.916-8.75,9.281a23.817,23.817,0,0,1-13.17,8.207,10.533,10.533,0,0,1-4.75.169c-3.09-.738-5.18-3.47-7.57-5.567a22.326,22.326,0,0,0-17.65-5.333c-3.48.479-6.89,1.812-10.36,1.67-7.58-.3-13.02-6.731-18.73-10.887a25.246,25.246,0,0,0-9.84-4.4c-4.51-1.036-1.95-3.482.73-6.253C1281.78,284.531,1286.74,282.071,1292.02,283.65Z" fill="#fff"/>
        <path id="Path_21" data-name="Path 21" d="M1219.49,287.728a2.755,2.755,0,0,0,.25,1.3,7.505,7.505,0,0,0,3.78,3.715c2.36,1.152,17.05,5.411,11.65-1.075C1233.28,289.372,1220.27,280.854,1219.49,287.728Z" fill="#fff"/>
      </g>
    </g>
  </g>
  <g id="Group_9" data-name="Group 9">
    <g id="Group_8" data-name="Group 8" clipPath="url(#clipPath-3)">
      <g id="Group_7" data-name="Group 7">
        <path id="Path_22" data-name="Path 22" d="M4.321,62.341c-2.066,2.8-5.507,6.14-3.9,10.209s6.2,6.222,10.568,6.528c2.149.141,4.38,0,6.411.682,3.617,1.318,5.93,5.387,9.735,6.022,2.031.341,4.157-.411,6.176,0,2.818.635,4.58,3.34,6.494,5.516,7.632,8.645,22.31,9.762,31.152,2.353,2.677-2.235,4.967-5.187,8.279-6.281,8.431-2.8,16.662,7.892,25.316,5.881,3.523-.835,6.6-3.776,10.24-3.529s6.587,3.67,10.274,4.329c2.172.388,4.38-.236,6.588-.153,5.213.176,9.394,4.128,13.68,7.057,10.345,7.162,25.751,8.715,34.827,0,2.795-2.682,5.014-6.269,8.666-7.563,5.4-1.929,11.743,2.011,16.98-.329,3.523-1.553,5.554-5.54,9.206-6.646,4.7-1.411,9.523,2.694,14.455,2.294,3.288-.271,6.035-2.482,8.924-4.093,4.474-2.5,9.617-3.67,14.091-6.246s8.313-7.327,7.456-12.4c-.7-4.14-4.485-7.257-8.548-8.233s-8.361-.341-12.424.717a4.919,4.919,0,0,1-3.229.106,4.7,4.7,0,0,1-2.019-2.929c-1.926-5.527-5-12.467-10.85-12.126-4.568.271-7.469,5.152-11.743,6.8-7.961,3.081-17.214-5.881-24.882-2.094-2.137,1.047-3.828,3.011-6.141,3.6-3.147.811-6.412-1.247-8.22-3.9s-2.7-5.881-3.957-8.88a31.548,31.548,0,0,0-19.375-17.842A28.149,28.149,0,0,0,122.8,26.045c-5.19,4.246-8.631,10.374-14.009,14.373a23.642,23.642,0,0,1-16.639,4.446c-3.7-.424-7.257-1.717-10.955-2.07s-7.856.482-10.122,3.434c-1.844,2.353-2.055,5.611-2.8,8.539s-2.607,6.081-5.613,6.375c-4.415.435-6.576-5.046-9.394-8.48a13.333,13.333,0,0,0-17.613-2.117c-3.582,2.681-5.93,7.3-10.275,8.362-3.288.812-6.634-.741-9.9-1.682s-7.409-.964-9.323,1.835c-.869,1.27-.881,1.964-1.832,3.258" fill="#f0f0f0" opacity="0.49" style="isolation: isolate"/>
        <path id="Path_23" data-name="Path 23" d="M56.939,68.61a49.472,49.472,0,0,0,11.989,2.235c3.71.235,7.75,0,10.568-2.435,1.773-1.482,2.877-3.6,4.262-5.445a20.188,20.188,0,0,1,15.958-7.9c5.214,0,10.369,2.1,15.535,1.376,8.889-1.247,15.571-10.456,24.542-10.244,9.488.223,15.488,10.644,24.483,13.69,8.642,2.929,18.189-1.505,27.172.083,5.049.882,9.769,3.646,14.889,3.528,2.513,0,4.967-.753,7.457-1.023a21.281,21.281,0,0,1,14.325,3.634c1.174.859,2.454,2.047,2.419,3.529,0,1.87-2.019,3.046-3.793,3.657a28.841,28.841,0,0,1-15.64.977c-4.169-.918-8.126-2.752-12.365-3.223C189.557,70,180.809,75.42,171.58,75.82c-8.384.353-16.44-3.528-24.894-3.352-6.67.094-13.046,2.658-19.669,3.387-9.863,1.083-19.8-1.917-29.7-1.246-9.018.6-17.614,4.21-26.526,5.5C61.6,81.454,45.326,81.489,39.548,72.6,31.246,59.789,51.984,67.058,56.939,68.61Z" fill="#fff"/>
      </g>
    </g>
  </g>
  <g id="Group_12" data-name="Group 12">
    <g id="Group_11" data-name="Group 11" clipPath="url(#clipPath-4)">
      <g id="Group_10" data-name="Group 10">
        <path id="Path_24" data-name="Path 24" d="M979.894,55.627c7.708,2.632,15.046,6.526,23.126,7.281,12.76,1.2,25.1-5.588,37.91-5.372,6.47.108,12.82,2,19.3,1.8s13.58-3.31,15.41-9.5c1.95-6.48-2.59-13.007-7.17-17.994-4.11-4.494-8.92-8.973-14.95-9.9-7.71-1.17-15.09,3.756-22.83,3.448-12.46-.477-20.16-13.391-30.65-20.133a34.262,34.262,0,0,0-34.2-1.216,10.692,10.692,0,0,0-4.625,4.033c-1.3,2.432-.878,5.418-1.541,8.081-1.542,5.4-7.23,8.4-12.641,9.82s-11.27,1.955-15.879,5.126-7.122,10.374-3.191,14.36a13.544,13.544,0,0,0,5.658,2.94c7.045,2.309,15.8,6.465,23.262,6.388C965.295,54.658,971.354,52.641,979.894,55.627Z" fill="#f0f0f0" opacity="0.49" style="isolation: isolate"/>
        <path id="Path_25" data-name="Path 25" d="M964.571,43.806c4.27-.57,8.479-1.785,12.8-1.97,6.167-.262,12.333,1.616,18.314,3.078a152.069,152.069,0,0,0,25.51,3.556,10.975,10.975,0,0,0,6.68-1.047,5.783,5.783,0,0,0,2.28-3.11,5.718,5.718,0,0,0-.2-3.847,8.755,8.755,0,0,0-6.01-4.356c-2.48-.677-5.09-.862-7.48-1.755-7.71-2.817-11.07-11.682-17.619-16.5a19.925,19.925,0,0,0-26.084,3.078c-2.991,3.556-4.856,6.711-9.142,8.882-3.345,1.677-6.552,2.816-9.989,4.155-4.3,1.663-5.766,5.311-1.434,8.066C955.8,44.345,960.532,44.345,964.571,43.806Z" fill="#fff"/>
        <path id="Path_26" data-name="Path 26" d="M1054.92,36.818a4.512,4.512,0,0,0-6.04,6.572,6.6,6.6,0,0,0,2.37,1.755,7.729,7.729,0,0,0,6.51.446A4.3,4.3,0,0,0,1059.98,40a6.884,6.884,0,0,0-3.53-2.524l-3.22-1.37" fill="#fff"/>
      </g>
    </g>
  </g>
  <g id="Group_15" data-name="Group 15">
    <g id="Group_14" data-name="Group 14" clipPath="url(#clipPath-5)">
      <g id="Group_13" data-name="Group 13">
        <path id="Path_27" data-name="Path 27" d="M410.894,283.627c7.708,2.632,15.046,6.526,23.124,7.281,12.765,1.2,25.1-5.588,37.908-5.372,6.475.108,12.826,2,19.3,1.8s13.582-3.31,15.416-9.5c1.942-6.48-2.59-13.007-7.168-17.994-4.116-4.494-8.926-8.973-14.954-9.9-7.708-1.17-15.092,3.756-22.831,3.448-12.456-.477-20.164-13.391-30.647-20.133a34.268,34.268,0,0,0-34.208-1.216,10.692,10.692,0,0,0-4.625,4.033c-1.295,2.432-.878,5.418-1.541,8.081-1.542,5.4-7.23,8.4-12.641,9.82s-11.27,1.955-15.879,5.126-7.122,10.374-3.191,14.36a13.544,13.544,0,0,0,5.658,2.94c7.045,2.309,15.8,6.465,23.262,6.388C396.3,282.657,402.354,280.641,410.894,283.627Z" fill="#f0f0f0" opacity="0.49" style="isolation: isolate"/>
        <path id="Path_28" data-name="Path 28" d="M395.571,271.806c4.27-.569,8.479-1.785,12.795-1.97,6.167-.262,12.333,1.616,18.314,3.078a152.1,152.1,0,0,0,25.514,3.556,10.959,10.959,0,0,0,6.675-1.047,5.75,5.75,0,0,0,2.081-6.957,8.754,8.754,0,0,0-6.012-4.356c-2.482-.677-5.087-.862-7.477-1.755-7.708-2.817-11.069-11.682-17.62-16.5a19.925,19.925,0,0,0-26.084,3.078c-2.991,3.556-4.856,6.711-9.142,8.882-3.345,1.677-6.552,2.816-9.989,4.155-4.3,1.663-5.766,5.311-1.434,8.066C386.8,272.345,391.532,272.345,395.571,271.806Z" fill="#fff"/>
        <path id="Path_29" data-name="Path 29" d="M485.924,264.818a4.512,4.512,0,0,0-6.043,6.572,6.546,6.546,0,0,0,2.374,1.755,7.715,7.715,0,0,0,6.505.446A4.29,4.29,0,0,0,490.98,268a6.913,6.913,0,0,0-3.53-2.524l-3.222-1.37" fill="#fff"/>
        <path id="Path_30" data-name="Path 30" d="M512.193,255.69c3.915.339,7.338-3.247,11.223-3.878s7.708,1.724,11.515,1.077a11.782,11.782,0,0,0,6.167-3.632,16.165,16.165,0,0,0,4.871-11.329c-.108-4.387-3.083-8.758-6.783-8.7s-6.3,3.925-9.573,5.8c-4.039,2.294-8.741,1.447-13.2,1.786C507.4,237.451,500.245,254.644,512.193,255.69Z" fill="#f0f0f0" opacity="0.49" style="isolation: isolate"/>
        <path id="Path_31" data-name="Path 31" d="M526.191,242.792c-3.377.215-6.938,0-9.913,1.647a.97.97,0,0,0-.493.462.826.826,0,0,0,.013.4.837.837,0,0,0,.2.35,4.107,4.107,0,0,0,3.283,1.262c5.272.123,10.051-2.878,15.169-4.079a7.812,7.812,0,0,0,2.436-.8,2.187,2.187,0,0,0,1.126-2.14,1.96,1.96,0,0,0-2.39-1.308c-.956.308-1.542,1.539-2.482,2.216a13.752,13.752,0,0,1-6.952,1.986Z" fill="#fff"/>
      </g>
    </g>
  </g>
</svg>
