<svg viewBox="0 0 1443 413" fill="none" xmlns="http://www.w3.org/2000/svg">
    <path opacity="0.49" d="M782.162 365.265C780.809 368.624 780.663 372.349 781.75 375.804C782.837 379.258 785.09 382.228 788.123 384.206C794.429 388.093 802.961 386.979 809.123 391.014C813.402 393.814 815.9 398.442 819.461 402.205C826.114 409.014 835.982 411.465 845.429 412.405C866.451 414.46 887.472 410.35 908.197 406.067C913.144 405.076 918.09 403.912 921.697 400.467C926.643 395.767 927.063 387.791 924.343 381.601C921.257 375.549 916.491 370.514 910.617 367.1C900.898 360.737 889.15 356.528 877.7 358.509C870.082 359.821 863.083 363.809 855.441 364.798C840.454 366.754 827.05 357.742 812.854 354.898C802.615 352.712 787.059 354.124 782.162 365.265Z" fill="#F0F0F0" />
    <path d="M843.25 374.301C840.604 373.954 835.163 375.539 832.145 373.014C830.414 371.578 828.733 369.399 826.532 369.77C825.122 369.993 824.058 371.206 822.847 371.825C821.87 372.164 820.832 372.296 819.802 372.211C818.771 372.125 817.769 371.825 816.862 371.33C815.059 370.318 813.201 369.409 811.297 368.607C809.522 368.047 807.629 367.982 805.821 368.418C804.012 368.854 802.357 369.775 801.033 371.082C800.787 371.286 800.592 371.544 800.463 371.836C800.335 372.129 800.276 372.447 800.292 372.766C800.392 373.164 800.618 373.519 800.935 373.781C804.694 377.371 811.717 376.628 814.364 381.209C814.981 382.921 815.742 384.577 816.639 386.161C817.429 386.91 818.386 387.462 819.43 387.772C820.474 388.081 821.577 388.14 822.649 387.943C824.783 387.536 826.955 387.362 829.128 387.423C834.371 388.092 837.809 393.563 842.928 394.851C848.047 396.139 852.969 393.118 858.113 392.796C866.275 392.325 874.04 398.639 882.053 396.955C886.604 395.99 890.536 392.524 895.186 392.524C898.945 392.524 902.605 394.801 906.241 394.43C910.915 393.96 914.427 388.166 912.102 384.081C910.756 382.101 908.816 380.601 906.562 379.798C904.011 378.434 901.085 377.938 898.228 378.386C893.281 379.525 889.967 385.121 884.996 384.799C880.743 384.499 877.823 379.847 873.595 379.352C868.649 378.758 864.569 384.081 859.549 384.081C855.493 384.081 852.377 380.714 849.36 377.965C846.343 375.216 847.36 375.065 843.251 374.351" fill="#272424" />
    <path opacity="0.49" d="M1371.74 270.058C1376.92 269.758 1381.52 266.615 1386.1 264.091C1399.23 256.841 1416.15 254.382 1428.98 262.123C1441.81 269.864 1446.88 289.903 1436.25 300.466C1427.76 308.893 1414.15 308.324 1402.23 307.314C1390.31 306.304 1376.6 306.097 1368.49 314.887C1364.53 319.187 1362.64 325.01 1359.02 329.605C1352.04 338.46 1339.43 341.372 1328.35 339.314C1317.27 337.256 1307.44 331.014 1298.43 324.233C1288.76 316.958 1278.83 308.544 1266.77 307.625C1259 307.025 1251.36 309.657 1243.61 309.425C1231.71 309.063 1221.15 302.15 1211.24 295.47C1209.48 294.459 1207.97 293.056 1206.84 291.37C1206.24 290.078 1205.94 288.67 1205.95 287.246C1205.96 285.822 1206.29 284.419 1206.91 283.137C1210.41 274.606 1221.6 270.192 1229.96 274.075C1237.61 277.648 1242.83 286.826 1251.28 286.955C1258.7 287.055 1263.97 280.055 1268.11 273.855C1274.17 264.703 1281.95 254.8 1294.17 255.991C1303.71 256.936 1308.84 264.703 1316.83 268.366C1326.64 272.871 1331.21 266.666 1340.54 264.03C1352.53 260.725 1360.3 270.77 1371.74 270.058Z" fill="#F0F0F0" />
    <path d="M1292.02 283.65C1295.01 284.557 1297.55 286.524 1300.34 287.974C1303.13 289.424 1306.51 290.317 1309.32 288.958C1311.04 288.116 1312.3 286.55 1313.95 285.618C1315.13 284.984 1316.45 284.677 1317.78 284.73C1319.12 284.783 1320.41 285.193 1321.53 285.918C1323.64 287.329 1325.28 289.931 1327.81 289.801C1330.34 289.671 1331.82 286.889 1334.03 285.594C1336.48 284.118 1339.61 284.623 1342.31 285.594C1345.01 286.565 1347.65 287.821 1350.5 287.834C1355.2 287.834 1359.08 284.434 1363.08 281.97C1366.59 279.795 1370.71 278.254 1374.73 278.876C1377.54 279.316 1380.21 280.766 1383.06 280.636C1387.55 280.429 1390.83 276.481 1394.83 274.371C1399.41 271.95 1404.87 272.028 1410.04 272.546C1412.41 272.665 1414.73 273.222 1416.89 274.19C1417.96 274.69 1418.9 275.445 1419.61 276.388C1420.33 277.331 1420.8 278.434 1420.99 279.601C1421.3 282.707 1418.81 285.555 1415.9 286.695C1412.99 287.835 1409.77 287.695 1406.65 287.523C1403.53 287.351 1400.29 287.186 1397.39 288.339C1392.21 290.371 1389.3 295.989 1384.44 298.695C1381.78 300.008 1378.85 300.678 1375.89 300.649C1373.3 300.714 1370.71 300.507 1368.29 301.465C1364.29 303.065 1362.24 307.381 1359.54 310.746C1356.19 314.875 1351.55 317.764 1346.37 318.953C1344.82 319.371 1343.2 319.428 1341.62 319.122C1338.53 318.384 1336.44 315.652 1334.05 313.555C1331.66 311.46 1328.85 309.901 1325.8 308.981C1322.76 308.062 1319.55 307.803 1316.4 308.222C1312.92 308.701 1309.51 310.034 1306.04 309.892C1298.46 309.592 1293.02 303.161 1287.31 299.005C1284.39 296.847 1281.03 295.346 1277.47 294.605C1272.96 293.569 1275.52 291.123 1278.2 288.352C1281.78 284.531 1286.74 282.071 1292.02 283.65Z" fill="#272424" />
    <path d="M1219.49 287.728C1219.47 288.175 1219.55 288.622 1219.74 289.028C1220.51 290.685 1221.85 292.006 1223.52 292.743C1225.88 293.895 1240.57 298.154 1235.17 291.668C1233.28 289.372 1220.27 280.854 1219.49 287.728Z" fill="#272424" />
    <path opacity="0.49" d="M4.32141 62.3415C2.25541 65.1415 -1.18559 68.4815 0.42141 72.5505C2.02841 76.6195 6.62141 78.7725 10.9894 79.0785C13.1384 79.2195 15.3694 79.0785 17.4004 79.7605C21.0174 81.0785 23.3304 85.1475 27.1354 85.7825C29.1664 86.1235 31.2924 85.3715 33.3114 85.7825C36.1294 86.4175 37.8914 89.1225 39.8054 91.2985C47.4374 99.9435 62.1154 101.061 70.9574 93.6515C73.6344 91.4165 75.9244 88.4645 79.2364 87.3705C87.6674 84.5705 95.8984 95.2625 104.552 93.2515C108.075 92.4165 111.152 89.4755 114.792 89.7225C118.432 89.9695 121.379 93.3925 125.066 94.0515C127.238 94.4395 129.446 93.8155 131.654 93.8985C136.867 94.0745 141.048 98.0265 145.334 100.956C155.679 108.118 171.085 109.671 180.161 100.956C182.956 98.2735 185.175 94.6865 188.827 93.3925C194.227 91.4635 200.57 95.4035 205.807 93.0635C209.33 91.5105 211.361 87.5235 215.013 86.4175C219.713 85.0065 224.536 89.1115 229.468 88.7115C232.756 88.4405 235.503 86.2295 238.392 84.6185C242.866 82.1185 248.009 80.9485 252.483 78.3725C256.957 75.7965 260.796 71.0455 259.939 65.9725C259.239 61.8325 255.454 58.7155 251.391 57.7395C247.328 56.7635 243.03 57.3985 238.967 58.4565C237.934 58.8544 236.796 58.8917 235.738 58.5625C234.708 57.8884 233.983 56.8367 233.719 55.6335C231.793 50.1065 228.719 43.1665 222.869 43.5075C218.301 43.7785 215.4 48.6595 211.126 50.3075C203.165 53.3885 193.912 44.4265 186.244 48.2135C184.107 49.2605 182.416 51.2245 180.103 51.8135C176.956 52.6245 173.691 50.5665 171.883 47.9135C170.075 45.2605 169.183 42.0325 167.926 39.0335C166.173 34.8392 163.534 31.0733 160.19 27.9938C156.846 24.9143 152.876 22.5939 148.551 21.1915C144.187 19.8518 139.563 19.5937 135.077 20.4393C130.591 21.2849 126.377 23.2089 122.8 26.0455C117.61 30.2915 114.169 36.4195 108.791 40.4185C104.001 43.9398 98.0605 45.5273 92.1524 44.8645C88.4524 44.4405 84.8954 43.1475 81.1974 42.7945C77.4994 42.4415 73.3414 43.2765 71.0754 46.2285C69.2314 48.5815 69.0204 51.8395 68.2754 54.7675C67.5304 57.6955 65.6684 60.8485 62.6624 61.1425C58.2474 61.5775 56.0864 56.0965 53.2684 52.6625C51.1034 50.2106 48.1126 48.6401 44.8651 48.2497C41.6175 47.8594 38.3398 48.6765 35.6554 50.5455C32.0734 53.2265 29.7254 57.8455 25.3804 58.9075C22.0924 59.7195 18.7464 58.1665 15.4804 57.2255C12.2144 56.2845 8.07141 56.2615 6.15741 59.0605C5.28841 60.3305 5.27641 61.0245 4.32541 62.3185" fill="#F0F0F0" />
    <path d="M56.9395 68.6109C60.8284 69.8476 64.8553 70.5983 68.9285 70.8459C72.6385 71.0809 76.6785 70.8459 79.4965 68.4109C81.2695 66.9289 82.3735 64.8109 83.7585 62.9659C85.6374 60.5167 88.053 58.531 90.8195 57.1615C93.5859 55.7919 96.6296 55.075 99.7165 55.0659C104.931 55.0659 110.086 57.1659 115.252 56.4419C124.141 55.1949 130.823 45.9859 139.794 46.1979C149.282 46.4209 155.282 56.8419 164.277 59.8879C172.919 62.8169 182.465 58.3829 191.449 59.9709C196.497 60.8529 201.218 63.6169 206.338 63.4989C208.851 63.4989 211.305 62.7459 213.795 62.4759C218.85 61.9371 223.932 63.2262 228.12 66.1099C229.294 66.9689 230.574 68.1569 230.538 69.6389C230.538 71.5089 228.52 72.6849 226.745 73.2959C221.722 75.0588 216.309 75.397 211.105 74.2729C206.936 73.3549 202.98 71.5209 198.741 71.0499C189.558 70.0009 180.81 75.4209 171.581 75.8209C163.197 76.1739 155.141 72.2929 146.687 72.4689C140.017 72.5629 133.641 75.1269 127.018 75.8559C117.155 76.9389 107.218 73.9389 97.3175 74.6099C88.2995 75.2099 79.7035 78.8199 70.7915 80.1099C61.6005 81.4549 45.3265 81.4899 39.5485 72.6009C31.2465 59.7899 51.9845 67.0589 56.9395 68.6109Z" fill="#272424" />
    <path opacity="0.49" d="M979.894 55.6271C987.602 58.2591 994.94 62.1531 1003.02 62.9081C1015.78 64.1081 1028.12 57.3201 1040.93 57.5361C1047.4 57.6441 1053.75 59.5361 1060.23 59.3361C1066.71 59.1361 1073.81 56.0261 1075.64 49.8361C1077.59 43.3561 1073.05 36.8291 1068.47 31.8421C1064.36 27.3481 1059.55 22.8691 1053.52 21.9421C1045.81 20.7721 1038.43 25.6981 1030.69 25.3901C1018.23 24.9131 1010.53 11.9991 1000.04 5.25709C994.946 2.07446 989.105 0.286822 983.103 0.0733983C977.1 -0.140025 971.147 1.22827 965.84 4.04109C963.938 4.90464 962.33 6.30673 961.215 8.07409C959.915 10.5061 960.337 13.4921 959.674 16.1551C958.132 21.5551 952.444 24.5551 947.033 25.9751C941.622 27.3951 935.763 27.9301 931.154 31.1011C926.545 34.2721 924.032 41.4751 927.963 45.4611C929.588 46.8774 931.528 47.8853 933.621 48.4011C940.666 50.7101 949.421 54.8661 956.883 54.7891C965.295 54.6581 971.354 52.6411 979.894 55.6271Z" fill="#F0F0F0" />
    <path d="M964.571 43.8061C968.841 43.2361 973.05 42.0211 977.371 41.8361C983.538 41.5741 989.704 43.4521 995.685 44.9141C1004.07 46.8187 1012.61 48.0083 1021.2 48.4701C1023.48 48.8328 1025.81 48.4664 1027.88 47.4231C1028.97 46.6778 1029.77 45.5801 1030.16 44.3131C1030.54 43.0462 1030.46 41.6867 1029.96 40.4661C1029.33 39.3441 1028.47 38.3724 1027.43 37.6197C1026.4 36.867 1025.2 36.3516 1023.95 36.1101C1021.47 35.4331 1018.86 35.2481 1016.47 34.3551C1008.76 31.5381 1005.4 22.6731 998.846 17.8551C994.864 15.1183 990.023 13.9217 985.225 14.4879C980.427 15.0542 975.998 17.3447 972.762 20.9331C969.771 24.4891 967.906 27.6441 963.62 29.8151C960.275 31.4921 957.068 32.6311 953.631 33.9701C949.331 35.6331 947.865 39.2811 952.197 42.0361C955.8 44.3451 960.532 44.3451 964.571 43.8061Z" fill="#272424" />
    <path d="M1054.92 36.8182C1054.03 36.2113 1052.94 35.9462 1051.87 36.0713C1050.79 36.1964 1049.8 36.7034 1049.07 37.4999C1048.33 38.2963 1047.91 39.3292 1047.88 40.4104C1047.85 41.4916 1048.2 42.5491 1048.88 43.3902C1049.53 44.1465 1050.34 44.7464 1051.25 45.1452C1052.24 45.6898 1053.33 46.0118 1054.46 46.0889C1055.58 46.1659 1056.71 45.9961 1057.76 45.5912C1058.79 45.1346 1059.6 44.2936 1060.01 43.2485C1060.43 42.2034 1060.42 41.0373 1059.98 40.0002C1059.11 38.8003 1057.87 37.915 1056.45 37.4762L1053.23 36.1062" fill="#272424" />
    <path opacity="0.49" d="M410.894 283.627C418.602 286.259 425.94 290.153 434.018 290.908C446.783 292.108 459.118 285.32 471.926 285.536C478.401 285.644 484.752 287.536 491.226 287.336C497.7 287.136 504.808 284.026 506.642 277.836C508.584 271.356 504.052 264.829 499.474 259.842C495.358 255.348 490.548 250.869 484.52 249.942C476.812 248.772 469.428 253.698 461.689 253.39C449.233 252.913 441.525 239.999 431.042 233.257C425.947 230.074 420.105 228.286 414.101 228.072C408.097 227.859 402.143 229.228 396.834 232.041C394.932 232.905 393.324 234.307 392.209 236.074C390.914 238.506 391.331 241.492 390.668 244.155C389.126 249.555 383.438 252.555 378.027 253.975C372.616 255.395 366.757 255.931 362.148 259.101C357.539 262.272 355.026 269.475 358.957 273.461C360.583 274.878 362.522 275.886 364.615 276.401C371.66 278.71 380.415 282.866 387.877 282.789C396.3 282.657 402.354 280.641 410.894 283.627Z" fill="#F0F0F0" />
    <path d="M395.571 271.806C399.841 271.237 404.05 270.021 408.366 269.836C414.533 269.574 420.699 271.452 426.68 272.914C435.069 274.819 443.604 276.008 452.194 276.47C454.474 276.833 456.81 276.466 458.869 275.423C459.963 274.68 460.768 273.582 461.147 272.315C461.526 271.047 461.456 269.688 460.95 268.466C460.329 267.344 459.468 266.372 458.429 265.619C457.39 264.866 456.198 264.351 454.938 264.11C452.456 263.433 449.851 263.248 447.461 262.355C439.753 259.538 436.392 250.673 429.841 245.855C425.859 243.118 421.019 241.922 416.22 242.488C411.422 243.054 406.993 245.345 403.757 248.933C400.766 252.489 398.901 255.644 394.615 257.815C391.27 259.492 388.063 260.631 384.626 261.97C380.326 263.633 378.86 267.281 383.192 270.036C386.8 272.345 391.532 272.345 395.571 271.806Z" fill="#272424" />
    <path d="M485.924 264.819C485.029 264.21 483.944 263.943 482.869 264.067C481.793 264.191 480.798 264.698 480.065 265.495C479.332 266.292 478.91 267.326 478.876 268.409C478.843 269.491 479.199 270.55 479.881 271.391C480.529 272.149 481.341 272.749 482.255 273.146C483.241 273.691 484.335 274.013 485.458 274.09C486.582 274.167 487.709 273.997 488.76 273.592C489.79 273.137 490.599 272.296 491.014 271.251C491.43 270.205 491.417 269.038 490.98 268.001C490.105 266.802 488.867 265.917 487.45 265.477L484.228 264.107" fill="#272424" />
    <path opacity="0.49" d="M512.193 255.69C516.108 256.029 519.531 252.443 523.416 251.812C527.301 251.181 531.124 253.536 534.931 252.889C537.314 252.347 539.469 251.078 541.098 249.257C544.155 246.273 545.906 242.2 545.969 237.928C545.861 233.541 542.886 229.17 539.186 229.228C535.486 229.286 532.886 233.153 529.613 235.028C525.574 237.322 520.872 236.475 516.413 236.814C507.4 237.451 500.245 254.644 512.193 255.69Z" fill="#F0F0F0" />
    <path d="M526.191 242.792C522.814 243.007 519.253 242.792 516.278 244.439C516.064 244.529 515.889 244.693 515.785 244.901C515.757 245.034 515.761 245.171 515.798 245.301C515.835 245.433 515.904 245.553 515.998 245.651C516.418 246.092 516.93 246.433 517.498 246.652C518.065 246.87 518.675 246.959 519.281 246.913C524.553 247.036 529.332 244.035 534.45 242.834C535.301 242.704 536.124 242.433 536.886 242.034C537.263 241.828 537.572 241.515 537.772 241.134C537.972 240.754 538.056 240.322 538.012 239.894C537.861 239.409 537.527 239.001 537.082 238.757C536.636 238.513 536.112 238.452 535.622 238.586C534.666 238.894 534.08 240.125 533.14 240.802C531.041 242.073 528.641 242.758 526.188 242.788L526.191 242.792Z" fill="#272424" />
</svg>
    