<svg xmlns="http://www.w3.org/2000/svg" xmlns:xlink="http://www.w3.org/1999/xlink" version="1.1" id="Layer_1" x="0px" y="0px" viewBox="0 0 630 630" style="enable-background:new 0 0 630 630;" xml:space="preserve">
    <style type="text/css">
        .stroom20{fill:none;stroke:#FFFFFF;stroke-width:2;stroke-miterlimit:10;}
        .stroom21{fill:#C5E6FB;stroke:#FFFFFF;stroke-width:2;stroke-miterlimit:10;}
        .stroom22{fill:#BEE8FF;stroke:#FFFFFF;stroke-width:2;stroke-miterlimit:10;}
        .stroom23{fill:#E3F0FB;stroke:#FFFFFF;stroke-width:2;stroke-miterlimit:10;}
        .stroom24{fill:#FFFFFF;stroke:#FFFFFF;stroke-width:0.75;stroke-miterlimit:10;}
        .stroom25{fill:none;stroke:#FFFFFF;stroke-width:0.75;stroke-miterlimit:10;}
        .stroom26{fill:#FFFFFF;}
        .stroom27{fill:none;}
    </style>
    <g>
        <polygon class="stroom20" points="218.7,285.9 192.9,285.9 192.9,251.3  "/>
        <path class="stroom20" d="M233.3,302.2v41.7c0.5,0.1,1.2,0.1,1.7,0.2c1.4,0.1,2.7,0.3,4.2,0.5v-42.5H233.3z M261.6,282   c-0.8-0.3-1.5-0.5-2.2-0.8c-0.6-0.3-1.2-0.5-1.7-0.7c-0.3-0.1-0.6-0.3-1-0.5c-0.5-0.3-1-0.5-1.4-0.9c-0.3-0.2-0.6-0.5-0.9-0.7   c-0.4-0.3-0.8-0.7-1-1.2c-0.4-0.7-0.8-1.4-1.1-2.1c-0.1-0.1-0.1-0.2-0.1-0.3l-1.3-3.4l-0.1-0.5l-0.1-1.2v-0.9l0,0   c0-0.2,0-0.5,0-0.7c0-0.1,0-0.3,0-0.3c0-0.3,0.1-0.7,0.1-1.2c0-0.2,0.1-0.5,0.1-0.7c0-0.1,0-0.1,0.1-0.3c0-0.1,0-0.1,0-0.1v-0.1   l0,0c0-0.2,0.1-0.3,0.1-0.5c0-0.1,0-0.1,0.1-0.2c0-0.1,0-0.1,0-0.1c0-0.1,0.1-0.2,0.1-0.3c0-0.1,0-0.1,0-0.1c0-0.1,0.1-0.2,0.1-0.3   c0-0.1,0-0.1,0.1-0.1c0-0.1,0.1-0.3,0.1-0.3v-0.1l0,0c0.1-0.3,0.2-0.6,0.3-0.9c0-0.1,0.1-0.2,0.1-0.3c0-0.1,0.1-0.3,0.1-0.4   c0-0.1,0.1-0.1,0.1-0.2c0-0.1,0.1-0.2,0.1-0.3c0-0.1,0.1-0.2,0.1-0.3c0-0.1,0-0.1,0.1-0.1c0.1-0.1,0.1-0.3,0.2-0.5   c0.1-0.1,0.1-0.3,0.1-0.4c0-0.1,0.1-0.1,0.1-0.2c0.2-0.5,0.4-1,0.7-1.5c0.3-0.5,0.5-1.2,0.8-1.7c0.1-0.3,0.3-0.5,0.5-0.8   c0.3-0.5,0.6-1.1,1-1.6c0.1-0.2,0.3-0.4,0.4-0.7c0-0.1,0.1-0.1,0.1-0.2c0.1-0.1,0.2-0.3,0.3-0.5l0,0l0,0c0.1-0.2,0.2-0.3,0.3-0.5   l0,0c0.1-0.2,0.2-0.3,0.3-0.5c0.3-0.3,0.5-0.7,0.8-1.1c-0.1-0.1-0.1-0.3-0.2-0.4c0-0.1-0.1-0.1-0.1-0.1c-0.1-0.2-0.2-0.4-0.3-0.6   c-0.1-0.2-0.2-0.5-0.3-0.7c-0.1-0.1-0.2-0.3-0.3-0.5c-0.1-0.2-0.2-0.3-0.3-0.5c-0.1-0.3-0.3-0.5-0.5-0.7c-0.7-1-1.5-2.1-2.5-3.1   c-0.3-0.3-0.5-0.5-0.8-0.8c-0.1-0.1-0.3-0.3-0.5-0.5c-0.1-0.1-0.3-0.2-0.4-0.3c-0.5-0.5-1.2-1-1.8-1.4c-0.1-0.1-0.1-0.1-0.1-0.1   c-0.1-0.1-0.2-0.1-0.3-0.2h-0.1l0,0c-0.1-0.1-0.3-0.1-0.3-0.2c0,0-0.1,0-0.1-0.1c-0.3-0.2-0.8-0.4-1.2-0.5c-0.4,0.3-1,0.5-1.9,0.6   c-0.1,0-0.1,0-0.2,0c-0.1,0-0.2,0-0.3,0.1c-0.1,0-0.3,0.1-0.5,0.1s-0.5,0.1-0.8,0.1c-0.6,0.1-1.4,0.1-2.2,0.3c-0.1,0-0.3,0-0.4,0   c-0.2,0-0.4,0-0.5,0.1c-0.5,0-1,0.1-1.6,0.1c-0.4,0-0.8,0-1.2,0c-0.6,0-1.2,0-1.8-0.1c-0.5-0.1-1.2-0.1-1.7-0.1c-0.1,0-0.1,0-0.1,0   c-0.3-0.1-0.6-0.1-1-0.1c-0.2,0-0.3-0.1-0.5-0.1s-0.3-0.1-0.5-0.1c-0.3-0.1-0.8-0.1-1.1-0.3c-0.2-0.1-0.4-0.1-0.5-0.1   c-0.2-0.1-0.4-0.1-0.5-0.2c-0.2-0.1-0.3-0.1-0.5-0.2c-0.5-0.2-1-0.4-1.6-0.7c-0.1-0.1-0.3-0.1-0.4-0.2c-0.5-0.3-1.1-0.5-1.6-1   c-0.1-0.1-0.2-0.1-0.3-0.2c-0.5-0.3-1-0.7-1.5-1.2c-0.1-0.1-0.1-0.1-0.3-0.2c-0.1-0.1-0.3-0.3-0.4-0.4s-0.2-0.2-0.3-0.3l0,0   c-0.1,0-0.1-0.1-0.1-0.1c-0.1-0.1-0.1-0.2-0.3-0.3c-0.1-0.1-0.2-0.3-0.3-0.4c-0.1-0.1-0.2-0.3-0.3-0.4s-0.2-0.3-0.3-0.5   c-0.1-0.2-0.3-0.4-0.4-0.7c-0.1-0.2-0.3-0.4-0.4-0.7c-0.5-1-1.1-2.2-1.5-3.4c-0.1-0.2-0.1-0.4-0.2-0.7c-0.1-0.2-0.1-0.4-0.1-0.6   c-0.1-0.3-0.1-0.5-0.1-0.8l0,0c0,0,0,0,0-0.1v-0.1c0-0.1,0-0.1,0-0.2v-0.1v-0.1c0-0.1,0-0.2,0-0.3c0-0.3,0-0.5,0-0.8   c0-0.3,0.1-0.7,0.1-1c0-0.1,0.1-0.3,0.1-0.5c0.1-0.3,0.1-0.5,0.1-0.8c0.1-0.2,0.1-0.5,0.2-0.7c0.1-0.3,0.1-0.5,0.3-0.8   c0,0,0,0,0-0.1c0.1-0.2,0.1-0.3,0.2-0.5c0.1-0.3,0.3-0.6,0.4-0.9c0.2-0.4,0.4-0.8,0.6-1.2c0.1-0.2,0.2-0.4,0.3-0.6   c0.1-0.2,0.3-0.4,0.3-0.5c0.1-0.2,0.3-0.5,0.5-0.7c0.3-0.3,0.5-0.7,0.8-1.1c0.2-0.2,0.3-0.5,0.5-0.7c0.3-0.3,0.5-0.7,0.8-1   c0.2-0.3,0.5-0.5,0.7-0.7c0.1-0.1,0.1-0.1,0.1-0.1c0.2-0.2,0.4-0.4,0.6-0.7c0.5-0.5,1.1-1.1,1.7-1.6h-0.1l-46-1l-0.8,0.8l0.7-0.5   l42.1,56.5l1.6,2.1l12.9,17.3h24.4v-3.7C262,282.2,261.8,282.1,261.6,282z M248.6,238.4c0,0,0,0.1-0.1,0.3c1.6-0.1,3.1-0.5,4.4-1.2   C250.4,238.2,248.6,238.4,248.6,238.4z M230.9,302.2l0.2,0.3l0.4-0.3H230.9z"/>
        <path class="stroom20" d="M262.3,302.2V348c-1.4-0.2-2.8-0.4-4.2-0.6c-2.3-0.3-4.6-0.7-6.9-1c-4.1-0.6-8.1-1.2-12-1.7v-42.5H262.3z"/>
        <path class="stroom20" d="M252.9,237.5c-1.4,0.7-2.9,1.2-4.4,1.2c0.1-0.2,0.1-0.3,0.1-0.3S250.4,238.2,252.9,237.5z"/>
        <path class="stroom20" d="M276.2,285.1c0,0.3,0,0.5-0.1,0.7v0.1h-38.2L181.4,210l0,0l-0.7,0.5l0.8-0.8l46,1c-5.5,4.9-10.2,11.4-8.1,17.9   c5.1,15.5,23.7,11.7,26.4,11.3c0.9-0.1,1.5-0.3,1.9-0.6c5.7,2.4,8.9,8,10.3,10.9c-5.4,8-10,17.8-5.9,24.5l0,0   c0.3,0.8,0.8,1.6,1.2,2.5c0.3,0.4,0.6,0.7,1,1.2c0.3,0.3,0.5,0.5,0.9,0.7c1.7,1.2,4.2,2.2,7,3.1   C266.6,283.6,271.7,284.5,276.2,285.1L276.2,285.1z"/>
        <path class="stroom20" d="M285.9,231.3c-9.6,1-15.6,4.8-16.9,5.7c-1.7-1.4-4-3.5-6.1-5.2c-0.2,0.3-0.4,0.5-0.6,0.8v-5.4   c0.7-1.3,1.1-2.1,1.1-2.1c1.3-3.5-7.8-10.2-14.4-13.8l23.7,0.5L285.9,231.3z"/>
        <polygon class="stroom20" points="231.5,302.2 231.1,302.5 231.1,302.5 230.9,302.2  "/>
        <path class="stroom20" d="M276.1,285.9c-0.1,1.8-0.2,3.7-0.3,5.5c-0.1,4-0.2,7.7-0.1,10.8h-96.2c-2.3,0-4.3-0.9-5.7-2.4   c-1.5-1.5-2.4-3.5-2.4-5.7c0-4.5,3.6-8.1,8.1-8.1h39.3L193,251.4l-8.3-11l-10-13.5c-3.1-4.2-2.3-10.1,2-13.2l4-3l0,0l0.7-0.5   L238,286l0,0L276.1,285.9L276.1,285.9L276.1,285.9z"/>
        <path class="stroom20" d="M526.4,302.2L526.4,302.2l-0.1-0.4l0,0L526.4,302.2z"/>
        <path class="stroom20" d="M239.2,302.2v42.5c-1.4-0.2-2.8-0.3-4.2-0.5c-0.5-0.1-1.2-0.1-1.7-0.2v-41.7H239.2z"/>
        <rect x="436.3" y="374.7" class="stroom20" width="0.1" height="6.2"/>
        <path class="stroom20" d="M483.2,374.7h0.1c-0.3,2.2-0.6,4.2-0.8,6.2h-0.1C482.7,379,482.9,376.9,483.2,374.7z"/>
        <path class="stroom20" d="M517.9,374.7c-0.1,1-0.2,2-0.3,2.9C517.7,376.7,517.8,375.8,517.9,374.7L517.9,374.7z"/>
        <path class="stroom20" d="M578.3,374.7v6.2h-14.5c-0.1-2-0.1-4.1-0.2-6.2H578.3z"/>
        <path class="stroom20" d="M262.3,249.5c-1.5,1.3-2.8,2.3-3.5,2.6c0,0-0.2-0.7-0.8-1.8c-1.4-2.9-4.6-8.5-10.3-10.9   c0.4-0.2,0.6-0.5,0.7-0.6c1.6,0,3.1-0.5,4.4-1.2c3.1-0.8,7.1-2.4,9.4-5c0.2-0.3,0.4-0.5,0.6-0.8c2,1.8,4.4,3.8,6.1,5.2   c1,0.9,1.8,1.6,2.2,1.8C272.3,239.5,266.5,245.8,262.3,249.5z"/>
        <path class="stroom20" d="M305.3,233.3c-2.2,1.5-6.8,4.8-11.7,9.4l0,0c-5.3,5-10.9,11.7-13.6,18.8c-0.4,1.1-0.8,2.3-1.1,3.6   c0,0.1-0.1,0.2-0.1,0.3c0,0.1-0.1,0.2-0.1,0.3c-1.1,4.2-1.8,9.2-2.3,14.3c-0.1,1.7-0.3,3.4-0.4,5.1c-4.5-0.6-9.6-1.6-13.8-2.9   c-4.1-1.3-7.5-2.9-8.9-5c-0.5-0.7-0.9-1.6-1.2-2.5l0,0c-4.1-6.7,0.5-16.6,5.9-24.5c0.5,1.1,0.8,1.8,0.8,1.8c0.7-0.3,2-1.2,3.5-2.5   c4.2-3.7,9.9-10,8.9-10.8c-0.3-0.2-1.1-0.9-2.2-1.8c1.4-0.9,7.4-4.7,16.9-5.7c4.6-0.5,10-0.3,16,1.2   C302.8,232.7,304,233,305.3,233.3z"/>
        <polygon class="stroom20" points="192.9,251.3 192.9,285.9 184.7,285.9 184.7,240.2  "/>
        <path class="stroom20" d="M252.9,237.5c-1.4,0.7-2.9,1.2-4.4,1.2c0.1-0.2,0.1-0.3,0.1-0.3S250.4,238.2,252.9,237.5z"/>
        <path class="stroom20" d="M262.9,231.8c-0.2,0.3-0.4,0.5-0.6,0.8v-1.4C262.5,231.4,262.7,231.6,262.9,231.8z"/>
        <path class="stroom20" d="M262.9,231.8c-0.2,0.3-0.4,0.5-0.6,0.8v-1.4C262.5,231.4,262.7,231.6,262.9,231.8z"/>
        <path class="stroom20" d="M263.4,225c0,0-0.4,0.8-1.1,2.1v5.4c-2.3,2.6-6.3,4.2-9.4,5c-2.5,0.7-4.3,0.9-4.3,0.9s-0.6-1.6-1.7-3.1   c-0.8-1.1-2-2.1-3.3-2.2c0,0-3.6,0.7-4.2-1.4c-0.5-2.1,2-1.5,2.6-2.5c0.5-0.9-0.7-3.7-2.6-5.7c-0.3-0.3-0.7-0.6-1-0.9   c-2.2-1.6,5.5-7.1,8.2-11.5l2.5,0.1C255.6,214.9,264.7,221.6,263.4,225z"/>
        <path class="stroom20" d="M249,211.2l-2.5-0.1c0.2-0.3,0.4-0.6,0.5-1C247.7,210.5,248.3,210.9,249,211.2z"/>
        <path class="stroom20" d="M252.9,237.5c-1.4,0.7-2.9,1.2-4.4,1.2c0.1-0.2,0.1-0.3,0.1-0.3S250.4,238.2,252.9,237.5z"/>
        <path class="stroom21" d="M248.6,238.4c0,0,0,0.1-0.1,0.3c-0.1,0.2-0.3,0.4-0.7,0.6c-0.4,0.3-1,0.5-1.9,0.6c-2.7,0.3-21.4,4.2-26.4-11.3   c-2.1-6.5,2.6-13,8.1-17.9c0.1-0.1,0.3-0.3,0.4-0.4c4.6-4,9.5-7,11.3-8.1c6.6-4.1,9.5,2.6,8.3,7.2c-0.1,0.3-0.1,0.5-0.3,0.7   c-0.1,0.3-0.3,0.6-0.5,1c-2.7,4.4-10.4,9.9-8.2,11.5c0.3,0.3,0.7,0.5,1,0.9c1.9,2,3.1,4.8,2.6,5.7c-0.6,1-3.1,0.3-2.6,2.5   c0.5,2.2,4.2,1.4,4.2,1.4c1.4,0.1,2.5,1.1,3.3,2.2C248,236.7,248.6,238.4,248.6,238.4z"/>
        <path class="stroom20" d="M524.8,292.4c0,0.1,0,0.2,0,0.3l-0.3-2h-0.2v-0.1h0.3L524.8,292.4z"/>
        <path class="stroom20" d="M526.4,301.8L526.4,301.8l-1.5-9.1c0,0,0,0,0-0.1L526.4,301.8z"/>
        <path class="stroom20" d="M531.3,261.6c-1.4,6.2-2.5,11.9-2.7,13c0.3-0.5,1.4-2.3,2.7-4.8v0.2c-0.5,0.9-1,1.7-1.4,2.4   c-0.8,1.4-1.3,2.2-1.4,2.3c-0.6,2.2-1.1,4.2-1.4,5.7c-0.4,1.5-0.6,2.6-0.8,3.1c-0.2,0.8-0.4,2-0.7,3.5c-0.3,1.6-0.5,3.4-0.8,5.5   l0,0v-0.2c0.3-2,0.5-3.8,0.8-5.3c0.3-1.5,0.5-2.7,0.7-3.5c0.1-0.5,0.4-1.6,0.8-3.1c0.4-1.6,0.9-3.5,1.4-5.7c0,0,0-0.1,0-0.1   c-0.1,0.1-0.1,0.1-0.1,0.1c0.1-0.3,0.7-3.5,1.5-7.6c0.4-1.8,0.8-3.9,1.4-5.9V261.6z"/>
        <path class="stroom20" d="M531.3,254.2L531.3,254.2c-2.5,0.5-4.8,0.7-7,0.6v-0.1C526.4,254.9,528.9,254.7,531.3,254.2z"/>
        <path class="stroom20" d="M531.7,239.3L531.7,239.3c-2.4,0.9-5,1.2-7.4,1.2c0-0.1,0-0.1,0-0.1C526.6,240.3,529.3,240,531.7,239.3z"/>
        <path class="stroom21" d="M554,302.2c-0.2-1-0.4-2-0.7-3.1c-1.4-6.1-3.8-14.6-6.1-22.9s-4.9-16.5-6.6-22c0-0.1,0-0.1-0.1-0.1   c0-0.1,0.1-0.1,0.1-0.1c0,0,0,0.1,0.1,0.1c3.3,11,9.9,32.7,12.8,44.9C553.7,300.1,553.9,301.2,554,302.2z"/>
        <path class="stroom20" d="M537.4,244.1L537.4,244.1c-0.3,0.4-0.8,1-1.3,2c-0.9,1.8-1.8,4.6-2.7,7.6c-0.7,2.5-1.4,5.1-2,7.6v-7.2   c0.6-0.1,1.3-0.3,1.9-0.5l0,0c0.9-3.1,1.8-5.8,2.7-7.6C536.5,245.2,536.9,244.5,537.4,244.1z"/>
        <path class="stroom20" d="M534.2,238.2c-0.8,0.4-1.6,0.8-2.5,1.1v-0.1l0,0C532.6,239,533.4,238.7,534.2,238.2z"/>
        <path class="stroom20" d="M579.1,298.4c0,0.2,0,0.4-0.1,0.6c-3.6-18.9-13-39.5-15.8-42.5c-4.9-5.4-13.5-7.6-19.2-8.5   c0,0-0.1,0.1-0.2,0.3c-0.2,0.3-0.4,0.7-0.8,1.3c-0.7,1.2-1.5,2.6-2.5,4.4l0,0c-2.3,3.9-5.2,9-7.6,13.2c-0.5,1-1.2,2-1.6,2.9v-0.2   c0.5-0.8,1-1.7,1.5-2.7c2.4-4.2,5.3-9.3,7.6-13.2c1.1-1.8,2-3.4,2.6-4.5c0.3-0.5,0.6-1,0.8-1.3c0.1-0.2,0.2-0.3,0.2-0.3   c-1-1.4-2.6-2.3-4-2.9c-1.2-0.5-2.3-0.7-2.6-0.7l0,0c-0.8-2.8-1.3-5.2-1.6-6.9l0,0c-0.4,0.3-0.8,0.6-1.2,0.8   c0.4-0.3,0.9-0.5,1.2-0.9h39.3c2.1,0,3.8,1.7,3.8,3.8L579.1,298.4z"/>
        <path class="stroom20" d="M336.8,312.1v45.2c-1.4-0.1-2.8-0.2-4.2-0.3c-2.4-0.2-4.7-0.3-6.9-0.5c-5-0.4-9.4-0.8-13.3-1.2   c-15.4-1.8-33.1-4.6-50.2-7.3v-45.8h13.4c0,5.7,0.2,9.5,0.2,9.5S305.7,313.6,336.8,312.1z"/>
        <path class="stroom20" d="M431.1,306.1c0.1-0.1,0.1-0.2,0.1-0.3c-0.1,0.1-0.1,0.3-0.1,0.5c-0.2,0.5-0.3,1-0.5,1.6   c-0.2,0.6-0.4,1.2-0.6,1.8c-0.1,0.5-0.3,1-0.5,1.4c0,0.1-0.1,0.1-0.1,0.2c-0.2,0.5-0.4,1.2-0.6,1.7l0,0h-0.1c0-0.1,0-0.1,0.1-0.1   c0.2-0.5,0.4-1.2,0.6-1.7c0-0.1,0.1-0.1,0.1-0.2c0.1-0.5,0.3-1,0.5-1.4c0.2-0.6,0.4-1.2,0.6-1.8   C430.7,307.1,430.9,306.7,431.1,306.1z"/>
        <path class="stroom20" d="M432.1,302.9c0.1-0.1,0.1-0.3,0.1-0.4c-0.1,0.1-0.1,0.3-0.1,0.5c-0.1,0.5-0.3,1-0.5,1.5   c-0.1,0.1-0.1,0.2-0.1,0.3c0.1-0.1,0.1-0.3,0.1-0.5C431.8,303.9,432,303.4,432.1,302.9z"/>
        <path class="stroom20" d="M385.3,297.1c0.6,0.1,1.2,0.1,1.8,0.1c-0.1,0-0.1,0-0.1,0C386.5,297.1,385.9,297.1,385.3,297.1L385.3,297.1z"/>
        <path class="stroom20" d="M387,255.7l2-0.6c-0.5,5.5-1.2,11.7-1.9,18.3c0,0.3-0.1,0.7-0.1,1c-0.6,6.1-1.2,12.5-1.9,18.9   c-0.1,1.2-0.2,2.5-0.3,3.7c0.1,0.1,0.3,0.1,0.5,0.1c0.1,0,0.1,0,0.1,0l-1,12.6l-0.1,1.4v0.4c-16.8-0.4-31.4-0.5-40.4,0.1   c-0.3,0-0.6,0-0.9,0.1c-2,0.1-3.9,0.2-5.9,0.3c-31.1,1.5-60.9-0.4-60.9-0.4s-0.2-3.8-0.2-9.5c0-3.1,0-6.9,0.1-10.8   c0.1-1.8,0.1-3.6,0.3-5.5v-0.1c0-0.3,0-0.5,0.1-0.7c0.1-1.7,0.3-3.4,0.4-5.1c0.5-5,1.2-10,2.3-14.3c0-0.1,0.1-0.2,0.1-0.3   c0-0.1,0.1-0.2,0.1-0.3c0.3-1.3,0.7-2.5,1.1-3.6c2.7-7.2,8.2-13.8,13.6-18.8c2.4-2.2,4.8-4.2,6.8-5.9c2-1.6,3.8-2.8,4.8-3.5   c0.8-0.5,1.2-0.8,1.2-0.8c9.1,0.2,21,1.6,34,3.4c5.8,0.8,11.8,1.8,17.9,2.7c2.5,0.4,5.1,0.8,7.7,1.2c2.9,0.4,5.8,0.9,8.7,1.4   l-20.6,11.3l0.5,1.8l0,0c0.1,0,0.1,0,0.1,0l0.5,1.6l0.3,1.1l1.8,6.3l0,0v0.1l0.4,1.4l23.8-7.6L387,255.7z"/>
        <path class="stroom20" d="M407.2,245.5c-1.4,2.8-3.8,4.9-6.7,5.9l-6.4,2l-5.1,1.6h-0.1l0,0l5.1-1.6l6.4-2   C403.4,250.4,405.8,248.3,407.2,245.5C407.2,245.5,407.2,245.5,407.2,245.5z"/>
        <path class="stroom20" d="M390.4,297.4c0.1,0,0.3,0,0.5,0.1c-0.2,0-0.4,0-0.6-0.1c-0.7-0.1-1.3-0.1-2-0.1c-0.3,0-0.8-0.1-1.1-0.1   c0.1,0,0.1,0,0.1,0c0.3,0,0.8,0.1,1.1,0.1C389,297.3,389.7,297.3,390.4,297.4z"/>
        <path class="stroom20" d="M391,297.5c0.5,0,1.1,0.1,1.7,0.1C392.2,297.5,391.5,297.5,391,297.5z"/>
        <path class="stroom20" d="M395.3,297.7c0.3,0,0.7,0,1,0.1h-0.1c-0.3,0-0.7-0.1-1-0.1c-0.4,0-0.9-0.1-1.3-0.1c-0.3,0-0.7,0-1-0.1h0.1   c0.3,0,0.7,0.1,1,0.1C394.4,297.6,394.8,297.7,395.3,297.7z"/>
        <path class="stroom20" d="M397.1,297.7c1.9,0.1,4,0.1,6,0.2H403c-2.1-0.1-4.1-0.1-6-0.2H397.1z"/>
        <path class="stroom20" d="M405,297.9c1,0,2,0,3.1,0.1H408c-1.1,0-2.1,0-3.1-0.1H405z"/>
        <path class="stroom20" d="M445.2,296.3c0,0.1,0,0.1,0,0.2c-3.8,0.3-7.6,0.6-11.1,0.8l0,0c-0.1,0.2-0.1,0.4-0.2,0.6   c-0.1,0.5-0.3,0.9-0.5,1.4c-0.1,0.5-0.3,1-0.5,1.4c-0.1,0.1-0.1,0.3-0.1,0.4c0.1-0.2,0.1-0.4,0.1-0.5c0.1-0.5,0.3-1,0.5-1.4   c0.1-0.5,0.3-1,0.5-1.4c0.1-0.1,0.1-0.3,0.1-0.5c-6.6,0.4-12.9,0.6-18.6,0.7c5.7-0.2,12.1-0.4,18.7-0.7c0-0.1,0-0.1,0.1-0.1   C437.6,296.9,441.3,296.6,445.2,296.3z"/>
        <path class="stroom20" d="M507.4,251.4c-0.1,0.1-0.2,0.1-0.3,0.1c0,0.1-0.1,0.1-0.1,0.1c-6.8,3.5-15,8.2-16.7,12.4   c-1.6,3.7-7.5,16-11.8,28.6h-0.1l-3.3,0.1l1.1,6.8l1,6.1c0.2-0.2,0.4-0.3,0.6-0.3c0,0,9.2-2.9,10.2-0.8c0.1,0.1,0.1,0.2,0.1,0.3   c0,0.1,0.1,0.1,0.1,0.1c0,0.1,0.1,0.2,0.1,0.3s0.1,0.1,0.1,0.3c0,0.1,0,0.1,0,0.1c0,0.1,0,0.2,0.1,0.3c0,0.3,0,0.5,0,0.8   c0,0.1,0,0.2,0,0.3c0,0.1,0,0.2-0.1,0.3l0,0c0,0.2-0.1,0.4-0.1,0.5v0.1c0,0.1-0.1,0.1-0.1,0.2c-0.1,0.2-0.1,0.4-0.2,0.5   c0,0.1-0.1,0.1-0.1,0.2c-0.1,0.1-0.1,0.3-0.2,0.4c-0.1,0.1-0.1,0.2-0.1,0.3c-0.1,0.1-0.1,0.2-0.2,0.3c-0.1,0.1-0.1,0.3-0.2,0.3   c-0.1,0.2-0.3,0.4-0.4,0.5c-0.1,0.2-0.3,0.4-0.5,0.5c-0.3,0.5-0.8,0.9-1.2,1.3c-0.1,0.1-0.3,0.3-0.5,0.4c-0.1,0.1-0.3,0.3-0.5,0.4   c-0.3,0.3-0.6,0.5-1,0.7c-0.3,0.3-0.8,0.5-1.1,0.7h-0.3c-1.4,0-2.8-0.1-4.3-0.1h-0.1c-1.2,0-2.4-0.1-3.6-0.1h-0.1   c-7.9-0.3-16.9-0.6-26.4-1c-1.1-0.1-2.2-0.1-3.3-0.1c0-1,0.1-1.8,0.1-2.7c0-0.5,0.1-1,0.1-1.4c0.2-5.2,0.5-9.8,0.8-12.9l0,0   c0.6,0,1.2-0.1,1.8-0.1c-0.1-1-0.1-2-0.1-3.1c-0.1-5.5-0.1-10.7-0.2-15.5c0-3.1-0.1-6-0.1-8.7c-0.1-9.7-0.1-17.1,0.1-20.4   c1.2,0.1,2.5,0.1,3.8,0.2C471.2,250,493,250.9,507.4,251.4z"/>
        <path class="stroom20" d="M507,251.7c0.1-0.1,0.3-0.2,0.5-0.3l0,0h0.1C507.4,251.5,507.2,251.6,507,251.7z"/>
        <path class="stroom20" d="M508.1,291.5l-2.4,0.1l-3.6,0.1l-6.1,0.3L495,292l-6.6,0.3v-0.1l-9.8,0.4v-0.1l9.8-0.4c0-0.5,0.2-0.8,0.5-1   c0,0,0,0,0.1,0c0.7-0.4,1.7-0.4,1.7-0.4s0.5,0,1.4-0.1c0.8,0,2-0.1,3.3-0.1c2.3-0.1,5.1-0.3,7.2-0.4c1.4-0.1,2.5-0.1,3-0.2   c0.3-0.1,0.5-0.1,0.8,0l0,0C507.6,290.2,507.9,291.1,508.1,291.5L508.1,291.5C508.1,291.4,508.1,291.5,508.1,291.5z"/>
        <path class="stroom20" d="M517.1,251.7c-1.8,7.6-4.2,18.1-4.7,19.8l0,0v0.3c-1.6,5.2-3.8,11.7-6,18.1h-0.1c2.2-6.3,4.4-12.8,6-18.1   c0,0,0,0,0-0.1c0,0,0,0,0-0.1v-0.1c0-0.1,0.1-0.3,0.1-0.5l0,0C513,268.4,515.3,258.8,517.1,251.7   C517,251.7,517.1,251.7,517.1,251.7z"/>
        <path class="stroom20" d="M524.2,254.7L524.2,254.7c-0.9,0-1.8-0.1-2.6-0.3c-1.8-0.3-2.8-1.4-3.3-2.5c-0.1-0.1-0.1-0.2-0.1-0.3l0,0   c0,0.1,0.1,0.1,0.1,0.2c0.5,1.1,1.5,2.1,3.3,2.5C522.5,254.5,523.4,254.7,524.2,254.7z"/>
        <path class="stroom20" d="M524.2,290.7L524.2,290.7l-4.5,0.3l-11.6,0.5c0,0,0,0,0-0.1h0.1l11.6-0.5L524.2,290.7z"/>
        <line class="stroom20" x1="578.3" y1="300.6" x2="578.3" y2="300.6"/>
        <line class="stroom20" x1="578.3" y1="374.7" x2="578.3" y2="324.7"/>
        <path class="stroom20" d="M157.9,347.1c-1.4,0.7-2.9,1.2-4.4,1.2c0.1-0.2,0.1-0.3,0.1-0.3S155.5,347.8,157.9,347.1z"/>
        <path class="stroom20" d="M167.4,359.1c-1.5,1.3-2.8,2.3-3.5,2.6c0,0-0.3-0.7-0.8-1.8c-1.4-2.9-4.6-8.5-10.3-10.9   c0.4-0.2,0.6-0.5,0.7-0.7c1.6,0,3.1-0.5,4.4-1.2c3.1-0.8,7.1-2.3,9.4-5c0.2-0.3,0.4-0.5,0.6-0.8c2,1.8,4.4,3.8,6.1,5.2   c1,0.9,1.8,1.6,2.2,1.8C177.3,349.1,171.5,355.4,167.4,359.1z"/>
        <path class="stroom20" d="M157.9,347.1c-1.4,0.7-2.9,1.2-4.4,1.2c0.1-0.2,0.1-0.3,0.1-0.3S155.5,347.8,157.9,347.1z"/>
        <path class="stroom20" d="M168,341.4c-0.2,0.3-0.4,0.5-0.6,0.8v-1.4C167.6,340.9,167.8,341.1,168,341.4z"/>
        <path class="stroom20" d="M168,341.4c-0.2,0.3-0.4,0.5-0.6,0.8v-1.4C167.6,340.9,167.8,341.1,168,341.4z"/>
        <path class="stroom20" d="M154.1,320.8l-2.5-0.1c0.2-0.3,0.4-0.7,0.5-1C152.8,320.1,153.4,320.4,154.1,320.8z"/>
        <path class="stroom20" d="M157.9,347.1c-1.4,0.7-2.9,1.2-4.4,1.2c0.1-0.2,0.1-0.3,0.1-0.3S155.5,347.8,157.9,347.1z"/>
        <polygon class="stroom20" points="534.5,352.1 519.5,352.8 519.5,352.8 514.1,353 511.5,353.1 494.7,353.8 493.9,353.8 486.2,354.2    486.1,354.2 486.1,354.2 485.2,354.2 485.2,354.2 483.9,346.8 484,346.8 485.2,354.2 486.1,354.1 494,353.8 494.7,353.8    511.5,353.1 514.2,352.9 519.5,352.7 519.5,352.7 519.5,352.7 534.5,352  "/>
        <polygon class="stroom20" points="534.5,352.1 519.5,352.8 519.5,352.8 514.1,353 511.5,353.1 494.7,353.8 493.9,353.8 486.2,354.2    486.1,354.2 486.1,354.2 485.2,354.2 485.2,354.2 483.9,346.8 484,346.8 485.2,354.2 486.1,354.1 494,353.8 494.7,353.8    511.5,353.1 514.2,352.9 519.5,352.7 519.5,352.7 519.5,352.7 534.5,352  "/>
        <path class="stroom20" d="M511.9,249.4c-1.3,0.6-2.7,1.3-4.3,2l0,0c-0.2,0.1-0.3,0.2-0.5,0.3c0.1-0.1,0.3-0.2,0.5-0.3   c0.1-0.1,0.2-0.1,0.3-0.2c0,0,0.1,0,0.1-0.1c0.7-0.4,1.4-0.7,2.2-1.1c0.1,0,0.1-0.1,0.1-0.1c0,0,0.1,0,0.1-0.1   C510.8,249.8,511.3,249.6,511.9,249.4z"/>
        <path class="stroom20" d="M530.9,330.3L530.9,330.3C530.9,330.4,530.9,330.3,530.9,330.3L530.9,330.3L530.9,330.3z"/>
        <path class="stroom20" d="M514.7,248.1c-0.1,0.1-0.2,0.3-0.3,0.4c-0.2,0.1-0.4,0.1-0.6,0.2c-0.1,0.1-0.3,0.1-0.5,0.1   c-0.5,0.1-1,0.3-1.5,0.5c0.2-0.1,0.3-0.1,0.5-0.3l0,0C513.3,248.7,514.1,248.3,514.7,248.1z"/>
        <path class="stroom20" d="M518.2,247L518.2,247c0,0.1,0,0.1-0.1,0.1c0,0.1,0,0.1,0,0.2v-0.1c0,0,0-0.1,0-0.1l0,0   C518.2,247.1,518.2,247.1,518.2,247z"/>
        <path class="stroom20" d="M518.5,245.3c0,0.3-0.1,0.7-0.2,1.4v-0.1c0-0.1,0-0.1,0-0.1s0-0.1,0-0.1v-0.1c0-0.1,0-0.1,0-0.2   c0-0.1,0.1-0.2,0.1-0.3c0-0.1,0-0.1,0-0.1C518.4,245.6,518.5,245.5,518.5,245.3z"/>
        <path class="stroom20" d="M518.6,244.5c0,0.3,0,0.5-0.1,0.7C518.5,245,518.5,244.8,518.6,244.5C518.6,244.6,518.6,244.6,518.6,244.5z"/>
        <path class="stroom20" d="M536.1,237L536.1,237c-0.1,0.1-0.1,0.1-0.1,0.2l-0.1,0.1v-0.1C536,237.1,536.1,237,536.1,237L536.1,237z"/>
        <path class="stroom20" d="M530.9,330.3L530.9,330.3C530.9,330.4,530.9,330.3,530.9,330.3L530.9,330.3L530.9,330.3z"/>
        <path class="stroom20" d="M530.9,330.3L530.9,330.3C530.9,330.4,530.9,330.3,530.9,330.3L530.9,330.3L530.9,330.3z"/>
        <path class="stroom20" d="M530.9,330.3L530.9,330.3C530.9,330.4,530.9,330.3,530.9,330.3L530.9,330.3L530.9,330.3z"/>
        <path class="stroom20" d="M518.2,247L518.2,247c0,0.1,0,0.1-0.1,0.1c0,0.1,0,0.1,0,0.2v-0.1c0,0,0-0.1,0-0.1l0,0   C518.2,247.1,518.2,247.1,518.2,247z"/>
        <path class="stroom20" d="M518.5,245.3c0,0.3-0.1,0.7-0.2,1.4v-0.1c0-0.1,0-0.1,0-0.1s0-0.1,0-0.1v-0.1c0-0.1,0-0.1,0-0.2   c0-0.1,0.1-0.2,0.1-0.3c0-0.1,0-0.1,0-0.1C518.4,245.6,518.5,245.5,518.5,245.3z"/>
        <path class="stroom20" d="M518.6,244.5c0,0.3,0,0.5-0.1,0.7C518.5,245,518.5,244.8,518.6,244.5C518.6,244.6,518.6,244.6,518.6,244.5z"/>
        <path class="stroom20" d="M347.9,256.1c-0.2,0.1-0.4,0.1-0.6,0.2c0-0.1,0.1-0.1,0.1-0.1C347.5,256.1,347.6,256.1,347.9,256.1z"/>
        <path class="stroom20" d="M357.8,263.3L332,265C341.5,264.1,350.8,263.5,357.8,263.3z"/>
        <polygon class="stroom20" points="357.9,263.3 357.9,263.3 357.9,263.2  "/>
        <polygon class="stroom20" points="357.9,263.3 357.9,263.3 357.9,263.2  "/>
        <path class="stroom20" d="M357.9,263.3L357.9,263.3c-7,0.1-16.4,0.8-25.9,1.7h-0.1c0,0-0.3-0.1,4.7-4.1c2.3-1.8,6.6-3.4,10.8-4.6   c0.2-0.1,0.4-0.1,0.6-0.2c0.1,0,0.2-0.1,0.3-0.1c0.3-0.1,0.5-0.1,0.8-0.2c2.3-0.7,4.5-1.2,6-1.6c0.1,0,0.1,0,0.1,0l0.5,1.6l0.3,1.1   L357.9,263.3z"/>
        <path class="stroom20" d="M357.8,263.3L332,265C341.5,264.1,350.8,263.5,357.8,263.3z"/>
        <path class="stroom21" d="M467.6,190v0.2c-0.1,18.3-14.8,41.2-15.4,41.3c-1.1,1.7-2.4,3.4-3.6,5c-0.1,0.3-0.2,0.7-0.3,1.2   c-0.5,3.3-1,6.7-1.5,10.6c0,0.1,0,0.3,0,0.4c-0.2,3.3-0.2,10.8-0.1,20.4c0,2.7,0.1,5.7,0.1,8.7c0.1,4.8,0.1,10.1,0.2,15.5   c0,1,0,2,0.1,3.1c-0.6,0.1-1.2,0.1-1.8,0.1l0,0c0-0.1,0-0.1,0-0.2c-3.8,0.3-7.5,0.6-11.1,0.8c0,0.1,0,0.1-0.1,0.1   c-6.6,0.3-12.9,0.5-18.7,0.7c0,0-0.1,0-0.1,0h-7c-1.1-0.1-2.1-0.1-3.1-0.1h-1.8c-2-0.1-4.1-0.1-6-0.2h-0.8c-0.3-0.1-0.7-0.1-1-0.1   c-0.5,0-0.9-0.1-1.3-0.1c-0.3,0-0.7-0.1-1-0.1h-0.1h-0.1h-0.1c-0.5-0.1-1.2-0.1-1.7-0.1c-0.1,0-0.1,0-0.1,0c-0.1,0-0.3,0-0.5-0.1   c-0.7-0.1-1.4-0.1-2-0.1c-0.3,0-0.8-0.1-1.1-0.1c0,0-0.1,0-0.1,0c-0.6-0.1-1.2-0.1-1.8-0.1l0,0c-0.1,0-0.1,0-0.1,0   c-0.1,0-0.3,0-0.5-0.1c0.1-1.2,0.3-2.5,0.3-3.7c0.7-6.5,1.3-12.9,1.9-18.9c0-0.3,0.1-0.7,0.1-1c0.7-6.6,1.4-12.7,1.9-18.3h0.1   l5.1-1.6l6.4-2c2.9-1,5.3-3.1,6.7-5.9c0.2-0.4,0.3-0.7,0.5-1.2l14-40.7c2.9-7.9,5.3-16.2,4.9-22.1c-0.4-5.7-4.7-9.9-9.5-11.3H417   c3.6-0.6,8.5-0.5,13.4-0.3c4.5,0.2,9.1,0.6,12.5,1c3.4,0.3,5.7,0.6,5.7,0.6s8.1,1.3,11.6,4.6l0.5,0.5   C464.9,180.1,467.6,185.3,467.6,190z"/>
        <path class="stroom22" d="M385.3,297.1c0.6,0.1,1.2,0.1,1.8,0.1c-0.1,0-0.1,0-0.1,0C386.5,297.1,385.9,297.1,385.3,297.1L385.3,297.1z"/>
        <path class="stroom22" d="M390.4,297.4c0.1,0,0.3,0,0.5,0.1c-0.2,0-0.4,0-0.6-0.1c-0.7-0.1-1.3-0.1-2-0.1c-0.3,0-0.8-0.1-1.1-0.1   c0.1,0,0.1,0,0.1,0c0.3,0,0.8,0.1,1.1,0.1C389,297.3,389.7,297.3,390.4,297.4z"/>
        <path class="stroom22" d="M395.3,297.7c0.3,0,0.7,0,1,0.1h-0.1c-0.3,0-0.7-0.1-1-0.1c-0.4,0-0.9-0.1-1.3-0.1c-0.3,0-0.7,0-1-0.1h0.1   c0.3,0,0.7,0.1,1,0.1C394.4,297.6,394.8,297.7,395.3,297.7z"/>
        <path class="stroom22" d="M397.1,297.7c1.9,0.1,4,0.1,6,0.2H403c-2.1-0.1-4.1-0.1-6-0.2H397.1z"/>
        <path class="stroom22" d="M421.7,203.7l-14,40.7c-0.1,0.4-0.3,0.8-0.5,1.2c-1.4,2.8-3.8,4.9-6.7,5.9l-6.4,2l-5.1,1.6h-0.1l0,0l5.1-1.6   l6.4-2c2.9-1,5.3-3.1,6.7-5.9c0.2-0.4,0.3-0.7,0.5-1.2L421.7,203.7c2.9-7.9,5.1-16.2,4.8-22.1c-0.3-5.7-4.6-9.9-9.5-11.3h0.1   c0,0,0,0,0.1,0c4.8,1.4,9.1,5.7,9.5,11.3C427,187.5,424.7,195.8,421.7,203.7z"/>
        <path class="stroom22" d="M405,297.9c1,0,2,0,3.1,0.1H408c-1.1,0-2.1,0-3.1-0.1H405z"/>
        <path class="stroom22" d="M445.2,296.3c0,0.1,0,0.1,0,0.2c-3.8,0.3-7.6,0.6-11.1,0.8l0,0c0,0,0,0-0.1,0c-6.6,0.4-12.9,0.6-18.6,0.7   c5.7-0.2,12.1-0.4,18.7-0.7c0-0.1,0-0.1,0.1-0.1C437.6,296.9,441.3,296.6,445.2,296.3z"/>
        <path class="stroom20" d="M399.3,461.5c-2.1-0.5-5.7,2.5-8.5,2.1c-2.9-0.4-8.6-2-8.6-2c-0.2,0.1-0.5,0.1-0.7,0.2   c0.1-0.1,0.2-0.1,0.3-0.1c0.5-0.2,3.1-1.8,3.2-3.5c0.1-1.6,0.4-4.3,0.7-6.1l13.1,0.3C399,455.5,399.3,460.4,399.3,461.5z"/>
        <path class="stroom20" d="M401.9,471.4c0,0-30.5,2.5-39.1-0.1c-3.3-1,7.4-5.8,18.9-9.4c0.2-0.1,0.5-0.1,0.7-0.2c0,0,5.7,1.6,8.6,2   c2.8,0.3,6.4-2.6,8.5-2.1c0.1,0,0.2,0.1,0.3,0.1C401.9,462.6,401.9,471.4,401.9,471.4z"/>
        <path class="stroom20" d="M439.1,450v0.3l-3.4,0.1h-0.1c0-0.2,0-0.3,0-0.3L439.1,450z"/>
        <path class="stroom20" d="M448.4,450.1L448.4,450.1l-3.4,0.1V450l3.3-0.1v0.1C448.3,450,448.3,450,448.4,450.1z"/>
        <path class="stroom20" d="M439.1,450.3v21.9c-9.6,0.5-22.1,0.8-27.1-1c-8.1-2.8,2-4.2,18.5-9.3c0.3-0.1,0.7-0.2,1-0.3   c0.3-0.2,1.3-1,2.1-1.8c0.9-0.9,1.7-1.9,1.7-2.7c0.1-1.2,0.1-2.6,0.1-3.9v-2.8h0.1L439.1,450.3z"/>
        <path class="stroom20" d="M451.3,471.4c0,0-2.5,0.3-6.4,0.5v-21.7l3.3-0.1c0.1,1.3,0.6,10.2,0.7,11.4c1,0.5,1.6,2.5,1.9,4.5   C451.3,468.7,451.3,471.4,451.3,471.4z"/>
        <path class="stroom20" d="M436.1,153.3L436.1,153.3C436.1,153.4,436.1,153.4,436.1,153.3C436.1,153.4,436.1,153.3,436.1,153.3z"/>
        <path class="stroom20" d="M432.4,160.6c-0.1,0.8-0.2,1.6-0.3,2.4l0,0C432.3,162.1,432.4,161.3,432.4,160.6L432.4,160.6z"/>
        <path class="stroom20" d="M448.8,171.7c0,0-9.1-1.2-18.2-1.6l0,0l0.1-0.2v-0.1c0.3-1,1-3.8,1.5-6.8c0.1-0.7,0.2-1.6,0.3-2.4l0,0   c-2.1-0.1-4-0.5-5.3-1.6c2.3,0.1,4.8-2.4,5.2-2.8l0,0v-0.1l0,0l0,0l0,0l0.9-1.9l0,0l3.4-7.2c-0.4,2.3-0.8,4.6-0.7,6.5   c0,0,0,0-0.1,0c0,0,0,0,0.1,0c0.1,1.4,0.3,2.6,0.9,3.3c0.7,0.8,1.9,1.6,3.2,2.3c0.8,0.4,1.6,0.8,2.4,1.2c2.5,1.2,4.6,1.9,4.6,1.9   L448.8,171.7z"/>
        <path class="stroom20" d="M438.3,138.7c-0.2,2-0.8,4.8-1.3,7.4l-0.3-0.3l-4.4,9.3c-0.7-3.3-1.7-13.2-1.7-13.2l-5.7-1.1   c0.8-5,2.6-9.9,5.5-12.8h0.1c1.5,0,3.2,0.6,4.7,1.4C435,129.3,438.8,133.2,438.3,138.7z"/>
        <path class="stroom20" d="M436.1,153.3L436.1,153.3C436.1,153.4,436.1,153.4,436.1,153.3C436.1,153.4,436.1,153.3,436.1,153.3z"/>
        <path class="stroom20" d="M432.4,156C432.4,156,432.4,156.1,432.4,156L432.4,156L432.4,156L432.4,156z"/>
        <path class="stroom20" d="M445.2,296.5c-0.3,3.1-0.6,7.6-0.8,12.9c0,0.5-0.1,1-0.1,1.4c0,0.9-0.1,1.8-0.1,2.7c0,1-0.1,2-0.1,3   c-0.3,8.5-0.4,18.1-0.5,26.3c0,1.4,0,2.7-0.1,4h-3.3c-2,0-3.8,1.7-3.8,3.7v24.2h-0.1v-24.2c0-2,1.7-3.7,3.8-3.7h-7   c-2,0-3.8,1.7-3.8,3.7v11.1c0,0-4.9-0.1-12.8-0.4c-0.2-2.1-0.5-4.6-0.8-7.4l0,0c0.1-0.1,0.1-0.2,0.1-0.3c0.1-0.5,0.3-1,0.5-1.6   c0.1-0.3,0.3-0.7,0.3-1c0.1-0.3,0.2-0.6,0.3-0.9c0.3-1,0.6-2,1-3c0-0.1,0.1-0.1,0.1-0.2c0.1-0.5,0.3-0.9,0.4-1.3   c0-0.1,0.1-0.2,0.1-0.3c0.1-0.5,0.3-1,0.5-1.6c0-0.1,0.1-0.2,0.1-0.3c0.1-0.5,0.3-1,0.5-1.6v-0.1c0-0.1,0.1-0.2,0.1-0.3   c0.2-0.7,0.5-1.6,0.8-2.4c0.3-0.9,0.6-1.8,0.9-2.7c1-3.2,2.1-6.5,3.1-9.7c0.2-0.6,0.3-1.2,0.5-1.7c0.1-0.1,0.1-0.1,0.1-0.1   c0.1-0.5,0.3-1,0.5-1.5c0.1-0.1,0.1-0.2,0.1-0.3c0.1-0.4,0.3-0.9,0.4-1.3c0.3-0.9,0.5-1.7,0.8-2.6c0.2-0.5,0.3-1.1,0.5-1.6   c0.1-0.2,0.1-0.5,0.2-0.7c0.2-0.7,0.5-1.4,0.7-2c0.1-0.3,0.1-0.6,0.3-0.9c0.1-0.3,0.2-0.6,0.3-0.9l0,0c0.2-0.5,0.4-1.2,0.6-1.7   c0-0.1,0.1-0.1,0.1-0.2c0.1-0.5,0.3-1,0.5-1.4c0.2-0.6,0.4-1.2,0.6-1.8c0.2-0.5,0.3-1,0.5-1.6c0-0.1,0.1-0.3,0.1-0.5l0,0v-0.1   c0.1-0.3,0.2-0.5,0.3-0.8l0,0c0-0.1,0.1-0.2,0.1-0.3c0.1-0.5,0.3-1,0.5-1.5c0.1-0.2,0.1-0.3,0.1-0.5l0,0l0,0l0,0   c0.1-0.4,0.3-0.7,0.4-1.2l0,0c0-0.1,0-0.1,0.1-0.1c0.1-0.1,0.1-0.3,0.1-0.4c0.1-0.5,0.3-1,0.5-1.4c0.1-0.5,0.3-0.9,0.5-1.4   c0.1-0.2,0.1-0.4,0.2-0.6l0,0C437.6,297.1,441.3,296.9,445.2,296.5z"/>
        <path class="stroom20" d="M428.8,312.9c-0.1,0.3-0.2,0.6-0.3,0.9c-0.1,0.3-0.2,0.6-0.3,0.9c-0.2,0.7-0.5,1.4-0.7,2   c-0.1,0.2-0.1,0.5-0.2,0.7c-0.2,0.5-0.3,1.1-0.5,1.6c-0.3,0.9-0.5,1.7-0.8,2.6c-0.1,0.4-0.3,0.9-0.4,1.3c0,0.1-0.1,0.2-0.1,0.3   c-0.1,0.5-0.3,1-0.5,1.5c0,0.1,0,0.1-0.1,0.1c-0.2,0.5-0.3,1.1-0.5,1.7c-1,3.2-2.1,6.5-3.1,9.7c-0.3,0.9-0.6,1.8-0.9,2.7   c-0.3,0.8-0.5,1.6-0.8,2.4c0,0.1-0.1,0.2-0.1,0.3v0.1c-0.1,0.5-0.3,1-0.5,1.6c0,0.1-0.1,0.2-0.1,0.3c-0.2,0.5-0.3,1.1-0.5,1.6   c0,0.1-0.1,0.1-0.1,0.3c-0.1,0.4-0.3,0.8-0.4,1.3c0,0.1-0.1,0.1-0.1,0.2c-0.3,1-0.6,2-1,3c-0.1,0.3-0.2,0.6-0.3,0.9   c-0.1,0.3-0.2,0.7-0.3,1c-0.1,0.5-0.3,1.1-0.5,1.6c0,0.1-0.1,0.2-0.1,0.3c0-0.1,0-0.3,0-0.3c0.1-0.5,0.3-1,0.5-1.6   c0.1-0.3,0.2-0.7,0.3-1c0.1-0.3,0.2-0.5,0.3-0.9c0.3-1,0.6-2,1-3c0-0.1,0.1-0.1,0.1-0.3c0.1-0.4,0.3-0.8,0.4-1.3   c0-0.1,0.1-0.1,0.1-0.3c0.1-0.5,0.3-1,0.5-1.6c0-0.1,0.1-0.2,0.1-0.3c0.1-0.5,0.3-1,0.5-1.6v-0.1c0.3-0.9,0.5-1.8,0.9-2.7   c0.3-0.9,0.5-1.8,0.9-2.7c1-3.2,2.1-6.5,3.1-9.7c0.2-0.5,0.3-1.2,0.5-1.7c0-0.1,0-0.1,0.1-0.1c0.1-0.5,0.3-1,0.5-1.5   c0.1-0.1,0.1-0.2,0.1-0.3c0.1-0.4,0.3-0.9,0.4-1.3c0.3-0.9,0.5-1.7,0.9-2.6c0.2-0.5,0.3-1.1,0.5-1.6c0.1-0.2,0.1-0.5,0.2-0.7   c0.2-0.7,0.5-1.4,0.7-2c0.1-0.3,0.2-0.6,0.3-0.9C428.6,313.5,428.6,313.2,428.8,312.9c0-0.1,0-0.1,0-0.1c0.2-0.5,0.4-1.2,0.6-1.7   c0-0.1,0.1-0.1,0.1-0.2c0.1-0.5,0.3-1,0.5-1.4c0.2-0.6,0.4-1.2,0.6-1.8c0.2-0.5,0.3-1,0.5-1.6c0.1-0.1,0.1-0.2,0.1-0.3   c-0.1,0.1-0.1,0.3-0.1,0.5c-0.2,0.5-0.3,1-0.5,1.6c-0.2,0.6-0.4,1.2-0.6,1.8c-0.1,0.5-0.3,1-0.5,1.4c0,0.1-0.1,0.1-0.1,0.2   C429.2,311.8,429,312.4,428.8,312.9L428.8,312.9z"/>
        <path class="stroom20" d="M431.6,304.6c-0.1,0.1-0.1,0.2-0.1,0.3c0.1-0.1,0.1-0.3,0.1-0.5c0.1-0.5,0.3-1,0.5-1.5   c0.1-0.1,0.1-0.3,0.1-0.4c-0.1,0.1-0.1,0.3-0.1,0.5C432,303.5,431.8,304.1,431.6,304.6z"/>
        <path class="stroom20" d="M445.2,296.3c0,0.1,0,0.1,0,0.2c-3.8,0.3-7.6,0.6-11.1,0.8l0,0c-0.1,0.2-0.1,0.4-0.2,0.6   c-0.1,0.5-0.3,0.9-0.5,1.4c-0.1,0.5-0.3,1-0.5,1.4c-0.1,0.1-0.1,0.3-0.1,0.4c0.1-0.2,0.1-0.4,0.1-0.5c0.1-0.5,0.3-1,0.5-1.4   c0.1-0.5,0.3-1,0.5-1.4c0.1-0.1,0.1-0.3,0.1-0.5v-0.1c0-0.1,0-0.1,0.1-0.1C437.6,296.9,441.3,296.6,445.2,296.3z"/>
        <path class="stroom20" d="M439.1,411.8v38.3l-3.4,0.1c0,0,0,0.1,0,0.2v0.1h-1c0,0-0.1-0.3-0.2-1c-0.2-1.1-0.6-3-1.2-5.6   c-1.1-5.3-2.8-13.2-4.6-21.9c0.4-0.1,0.6-0.2,0.6-0.2v-13.7c0,2,1.7,3.7,3.8,3.7L439.1,411.8L439.1,411.8z"/>
        <path class="stroom20" d="M439.1,411.8v-0.1c-1.6-0.5-2.7-1.9-2.7-3.6v-33.3h0.1v33.3c0,1.7,1.2,3.2,2.7,3.6c0.2,0.1,0.5,0.1,0.7,0.1   c0.1,0,0.1,0,0.3,0H439.1z"/>
        <path class="stroom20" d="M448.4,450.1c0-0.1,0-0.1,0-0.1h-0.1l-3.3,0.1v-38.2h1.9l0.4,5.2l2.5,32.8l0.1,0.3H448.4z"/>
        <path class="stroom20" d="M439.1,450v0.3l-3.4,0.1h-0.1c0-0.2,0-0.3,0-0.3L439.1,450z"/>
        <path class="stroom20" d="M448.4,450.1L448.4,450.1l-3.4,0.1V450l3.3-0.1v0.1C448.3,450,448.3,450,448.4,450.1z"/>
        <path class="stroom20" d="M403.8,424.8c-0.6,5-1.2,9.7-1.6,13.9c-0.2,1.8-0.4,3.6-0.6,5.2c-0.6,5.3-1.1,8.7-1.1,8.7l-1.4-0.1h-0.1   l-13-0.3h-0.1l-3-0.1l-0.4-8.2l-0.3-5.2l-0.8-14.3c4.8,0.1,9.1,0.3,12.8,0.3C398,424.8,401.2,424.9,403.8,424.8z"/>
        <path class="stroom20" d="M434,297.3c-0.1,0.1-0.1,0.3-0.1,0.5c-0.1,0.4-0.3,0.9-0.5,1.4c-0.1,0.5-0.3,1-0.5,1.4   c-0.1,0.2-0.1,0.4-0.1,0.5c0,0.1,0,0.1-0.1,0.1l0,0c-0.1,0.3-0.3,0.7-0.4,1.2l0,0l0,0l0,0c-0.1,0.1-0.1,0.3-0.1,0.4   c-0.1,0.5-0.3,1-0.5,1.5c0,0.1-0.1,0.3-0.1,0.5l0,0c-0.1,0.3-0.2,0.5-0.3,0.8v0.1l0,0c0,0.1-0.1,0.2-0.1,0.3   c-0.2,0.5-0.3,1-0.5,1.6c-0.2,0.6-0.4,1.2-0.6,1.8c-0.1,0.5-0.3,1-0.5,1.4c0,0.1-0.1,0.1-0.1,0.2c-0.2,0.5-0.4,1.2-0.6,1.7   c0,0.1,0,0.1-0.1,0.1c-0.1,0.2-0.1,0.5-0.2,0.7c-0.1,0.3-0.2,0.6-0.3,0.9c-0.2,0.7-0.5,1.4-0.7,2c-0.1,0.2-0.1,0.5-0.2,0.7   c-0.2,0.5-0.3,1.1-0.5,1.6c-0.3,0.9-0.6,1.7-0.9,2.6c-0.1,0.4-0.3,0.9-0.4,1.3c-0.1,0.1-0.1,0.2-0.1,0.3c-0.1,0.5-0.3,1-0.5,1.5   c-0.1,0.1-0.1,0.1-0.1,0.1c-0.2,0.5-0.3,1.2-0.5,1.7c-1,3.2-2.1,6.5-3.1,9.7c-0.3,1-0.6,1.8-0.9,2.7c-0.3,0.9-0.6,1.8-0.9,2.7v0.1   c-0.1,0.5-0.3,1-0.5,1.6c0,0.1-0.1,0.2-0.1,0.3c-0.1,0.5-0.3,1-0.5,1.6c0,0.1-0.1,0.2-0.1,0.3c-0.1,0.5-0.3,0.9-0.4,1.3   c0,0.1-0.1,0.2-0.1,0.3c-0.3,1-0.7,2-1,3c-0.1,0.3-0.2,0.6-0.3,0.9c-0.1,0.3-0.2,0.7-0.3,1c-0.1,0.5-0.3,1-0.5,1.6   c0,0.1,0,0.3,0,0.3l0,0c-0.8,2.6-1.6,5-2.3,7.3c-1.3-0.1-2.7-0.1-4.2-0.1c-2.2-0.1-4.4-0.2-6.9-0.3c-6.8-0.3-14.3-0.6-22.3-1   l1.2-15.4l0.3-4.2l0.5-5.7l1.4-17.6l0.4-5.3V311l0.1-1.4l1-12.6c0.5,0.1,1.2,0.1,1.7,0.1c0,0,0.1,0,0.1,0c0.3,0,0.8,0.1,1.1,0.1   c0.7,0.1,1.3,0.1,2,0.1c0.2,0,0.4,0,0.6,0.1c0.1,0,0.1,0,0.1,0c0.5,0.1,1.1,0.1,1.7,0.1h0.1h0.1c0.3,0.1,0.7,0.1,1,0.1   c0.4,0,0.9,0.1,1.3,0.1c0.3,0,0.7,0.1,1,0.1h0.8c1.9,0.1,3.9,0.1,6,0.2h1.8c1,0.1,2,0.1,3.1,0.1h7.2c0,0,0.1,0,0.1,0   C421,297.9,427.3,297.7,434,297.3z"/>
        <path class="stroom20" d="M387.2,297.2c-0.1,0-0.1,0-0.1,0c-0.5-0.1-1.2-0.1-1.7-0.1l0,0C385.9,297.1,386.6,297.1,387.2,297.2z"/>
        <path class="stroom20" d="M390.9,297.5c-0.2,0-0.4,0-0.6-0.1c-0.7-0.1-1.3-0.1-2-0.1c-0.3,0-0.8-0.1-1.1-0.1c0.1,0,0.1,0,0.1,0   c0.3,0,0.8,0.1,1.1,0.1c0.6,0.1,1.3,0.1,2,0.1C390.5,297.4,390.7,297.4,390.9,297.5z"/>
        <path class="stroom20" d="M396.3,297.7h-0.1c-0.3,0-0.7-0.1-1-0.1c-0.4,0-0.9-0.1-1.3-0.1c-0.3,0-0.7,0-1-0.1h0.1c0.3,0,0.7,0.1,1,0.1   c0.4,0,0.8,0.1,1.3,0.1C395.6,297.7,396,297.7,396.3,297.7z"/>
        <path class="stroom20" d="M403.1,297.9H403c-2.1-0.1-4.1-0.1-6-0.2h0.1C399,297.8,401.1,297.9,403.1,297.9z"/>
        <path class="stroom20" d="M408.1,298H408c-1.1,0-2.1,0-3.1-0.1h0.1C406,297.9,407,297.9,408.1,298z"/>
        <path class="stroom20" d="M431.2,305.8c-0.1,0.1-0.1,0.3-0.1,0.5c-0.2,0.5-0.3,1-0.5,1.6c-0.2,0.6-0.4,1.2-0.6,1.8   c-0.1,0.5-0.3,1-0.5,1.4c0,0.1-0.1,0.1-0.1,0.2c-0.2,0.5-0.4,1.2-0.6,1.7l0,0c-0.1,0.3-0.2,0.6-0.3,0.9c-0.1,0.3-0.2,0.6-0.3,0.9   c-0.2,0.7-0.5,1.4-0.7,2c-0.1,0.2-0.1,0.5-0.2,0.7c-0.2,0.5-0.3,1.1-0.5,1.6c-0.3,0.9-0.5,1.7-0.8,2.6c-0.1,0.4-0.3,0.9-0.4,1.3   c0,0.1-0.1,0.2-0.1,0.3c-0.1,0.5-0.3,1-0.5,1.5c0,0.1,0,0.1-0.1,0.1c-0.2,0.5-0.3,1.1-0.5,1.7c-1,3.2-2.1,6.5-3.1,9.7   c-0.3,0.9-0.6,1.8-0.9,2.7c-0.3,0.8-0.5,1.6-0.8,2.4c0,0.1-0.1,0.2-0.1,0.3v0.1c-0.1,0.5-0.3,1-0.5,1.6c0,0.1-0.1,0.2-0.1,0.3   c-0.2,0.5-0.3,1.1-0.5,1.6c0,0.1-0.1,0.1-0.1,0.3c-0.1,0.4-0.3,0.8-0.4,1.3c0,0.1-0.1,0.1-0.1,0.2c-0.3,1-0.6,2-1,3   c-0.1,0.3-0.2,0.6-0.3,0.9c-0.1,0.3-0.2,0.7-0.3,1c-0.1,0.5-0.3,1.1-0.5,1.6c0,0.1-0.1,0.2-0.1,0.3c0-0.1,0-0.3,0-0.3   c0.1-0.5,0.3-1,0.5-1.6c0.1-0.3,0.2-0.7,0.3-1c0.1-0.3,0.2-0.5,0.3-0.9c0.3-1,0.6-2,1-3c0-0.1,0.1-0.1,0.1-0.3   c0.1-0.4,0.3-0.8,0.4-1.3c0-0.1,0.1-0.1,0.1-0.3c0.1-0.5,0.3-1,0.5-1.6c0-0.1,0.1-0.2,0.1-0.3c0.1-0.5,0.3-1,0.5-1.6v-0.1   c0.3-0.9,0.5-1.8,0.9-2.7c0.3-0.9,0.5-1.8,0.9-2.7c1-3.2,2.1-6.5,3.1-9.7c0.2-0.5,0.3-1.2,0.5-1.7c0-0.1,0-0.1,0.1-0.1   c0.1-0.5,0.3-1,0.5-1.5c0.1-0.1,0.1-0.2,0.1-0.3c0.1-0.4,0.3-0.9,0.4-1.3c0.3-0.9,0.5-1.7,0.9-2.6c0.2-0.5,0.3-1.1,0.5-1.6   c0.1-0.2,0.1-0.5,0.2-0.7c0.2-0.7,0.5-1.4,0.7-2c0.1-0.3,0.2-0.6,0.3-0.9c0.1-0.2,0.1-0.5,0.2-0.7c0-0.1,0-0.1,0.1-0.1   c0.2-0.5,0.4-1.2,0.6-1.7c0-0.1,0.1-0.1,0.1-0.2c0.1-0.5,0.3-1,0.5-1.4c0.2-0.6,0.4-1.2,0.6-1.8c0.2-0.5,0.3-1,0.5-1.6   C431.2,306.1,431.2,305.9,431.2,305.8z"/>
        <path class="stroom20" d="M432.2,302.5c-0.1,0.1-0.1,0.3-0.1,0.5c-0.1,0.5-0.3,1-0.5,1.5c-0.1,0.1-0.1,0.2-0.1,0.3   c0.1-0.1,0.1-0.3,0.1-0.5c0.1-0.5,0.3-1,0.5-1.5C432.2,302.8,432.2,302.6,432.2,302.5z"/>
        <path class="stroom20" d="M434,297.3L434,297.3c-0.1,0.3-0.1,0.5-0.2,0.7c-0.1,0.5-0.3,0.9-0.5,1.4c-0.1,0.5-0.3,1-0.5,1.4   c-0.1,0.1-0.1,0.3-0.1,0.4c0.1-0.2,0.1-0.4,0.1-0.5c0.1-0.5,0.3-1,0.5-1.4c0.1-0.5,0.3-1,0.5-1.4   C433.9,297.7,433.9,297.5,434,297.3c-6.7,0.5-13,0.7-18.7,0.7C421,297.8,427.3,297.6,434,297.3L434,297.3z"/>
        <path class="stroom21" d="M421.7,203.7l-14,40.7c-0.1,0.4-0.3,0.8-0.5,1.2c-1.3,2.8-3.8,4.9-6.7,5.9l-6.4,2l-5.1,1.6l0,0l-2,0.6   l-4.9,1.6l-23.8,7.6l-0.4-1.4v-0.1l0,0L356,257l-0.3-1.1l-0.5-1.6c-0.1,0-0.1,0-0.1,0l0,0l-0.5-1.8l20.6-11.3l7-3.9l4.9-2.7l1.9-1   l0.5-4.7l0.8-7.2v-0.1c1.3-9.7,4-26.4,7.9-34.6c5.6-11.9,7.1-14,11.7-16.2c2.3-1,4.8-1.1,7.2-0.4H417c4.8,1.4,9.2,5.7,9.5,11.3   C426.8,187.5,424.6,195.8,421.7,203.7z"/>
        <path class="stroom22" d="M356,257l1.8,6.3l0,0v-0.1L356,257l-0.4-1.1l-0.5-1.6c0.1,0,0.1,0,0.1,0l0.5,1.6L356,257z"/>
        <path class="stroom22" d="M421.7,203.7l-14,40.7c-0.1,0.4-0.3,0.8-0.5,1.2c-1.4,2.8-3.8,4.9-6.7,5.9l-6.4,2l-5.1,1.6h-0.1l0,0l5.1-1.6   l6.4-2c2.9-1,5.3-3.1,6.7-5.9c0.2-0.4,0.3-0.7,0.5-1.2L421.7,203.7c2.9-7.9,5.1-16.2,4.8-22.1c-0.3-5.7-4.6-9.9-9.5-11.3h0.1   c0,0,0,0,0.1,0c4.8,1.4,9.1,5.7,9.5,11.3C427,187.5,424.7,195.8,421.7,203.7z"/>
        <path class="stroom23" d="M390.3,221.6l-0.8,7.2c-0.1,0-0.1,0-0.1,0S389.6,225.9,390.3,221.6z"/>
        <path class="stroom21" d="M436.9,146.1c-0.1,0.3-0.1,0.5-0.1,0.8l-3.4,7.2l0,0l-0.9,1.9l0,0v0.1l0,0l0,0c-0.4,0.4-2.9,2.9-5.2,2.8l0,0   c0,0-5-2.8-2.9-18.3l0.5,0.1l5.7,1.1c0,0,1,9.9,1.7,13.2l4.4-9.3L436.9,146.1z"/>
        <path class="stroom20" d="M432.4,156C432.4,156,432.4,156.1,432.4,156L432.4,156L432.4,156z"/>
        <g>
            <g>
                <g>
                    <g>
                        <path class="stroom24" d="M440.1,131.6c-0.1,0-1-2.1-3-3.9s-4.4-2.2-4.3-2.4c0,0,0.5,0,1.4,0.3c0.9,0.3,2,0.8,3.1,1.8       c1,1,1.8,2,2.3,2.8C440,131.1,440.1,131.6,440.1,131.6z"/>
                    </g>
                </g>
            </g>
            <g>
                <g>
                    <g>
                        <path class="stroom24" d="M439.7,125.3c-0.1,0.1-1.6-1.2-4-1.8c-2.4-0.7-4.4-0.2-4.4-0.4c0-0.1,2-0.7,4.6,0       C438.1,123.7,439.7,125.2,439.7,125.3z"/>
                    </g>
                </g>
            </g>
            <g>
                <g>
                    <g>
                        <path class="stroom24" d="M424.2,121.4c0.1,0,0,0.3,0,0.8c0,0.5,0.3,1.2,0.8,1.8c0.5,0.6,1.2,1,1.6,1.1s0.9,0.1,0.9,0.2       c0,0-0.3,0.1-0.9,0.1c-0.5,0-1.4-0.4-1.9-1.2c-0.5-0.7-0.8-1.5-0.8-2C423.8,121.7,424,121.4,424.2,121.4z"/>
                    </g>
                </g>
            </g>
            <g>
                <g>
                    <g>
                        <path class="stroom24" d="M426.4,120.7c0,0.1-0.1,0.3-0.1,0.7c-0.1,0.4-0.1,1,0.3,1.4c0.4,0.5,0.9,0.7,1.3,0.7       c0.4,0.1,0.7,0.1,0.7,0.1c0,0.1-0.2,0.2-0.7,0.3c-0.5,0-1.2-0.2-1.6-0.8s-0.4-1.3-0.2-1.8C426.2,120.8,426.3,120.6,426.4,120.7       z"/>
                    </g>
                </g>
            </g>
            <g>
                <g>
                    <g>
                        <path class="stroom24" d="M432.3,117.2c-0.1,0.1-1.2-0.5-2.6-0.8c-1.5-0.2-2.7,0.1-2.8,0.1c0-0.1,1.2-0.6,2.8-0.4       C431.4,116.1,432.3,117,432.3,117.2z"/>
                    </g>
                </g>
            </g>
            <g>
                <g>
                    <g>
                        <path class="stroom24" d="M436.1,120.4c-0.1,0.1-1.2-0.5-2.6-0.8c-1.5-0.2-2.7,0.1-2.8,0.1c0-0.1,1.2-0.6,2.8-0.4       C435.1,119.4,436,120.4,436.1,120.4z"/>
                    </g>
                </g>
            </g>
            <g>
                <g>
                    <g>
                        <path class="stroom24" d="M439.6,122.4c-0.1-0.1,0.3-0.5,0.5-1.5c0.3-1,0.2-2.4-0.5-3.7c-0.8-1.2-2-2-2.9-2.2s-1.5-0.2-1.6-0.3       c0,0,0.6-0.2,1.6,0c1,0.3,2.3,1,3.2,2.3c0.8,1.4,0.8,3,0.5,3.9C439.9,121.9,439.6,122.4,439.6,122.4z"/>
                    </g>
                </g>
            </g>
            <g>
                <g>
                    <g>
                        <path class="stroom24" d="M450.8,161.3c0,0-0.3,0.3-1,0.2c-0.7-0.1-1.6-0.3-2.3-1.1c-0.6-0.7-0.8-1.8-0.8-2.5c0.1-0.7,0.3-1,0.4-1       c0.1,0-0.1,0.4-0.1,1c-0.1,0.5,0.1,1.4,0.8,2.1s1.4,1,2,1C450.5,161.4,450.8,161.3,450.8,161.3z"/>
                    </g>
                </g>
            </g>
            <g>
                <g>
                    <g>
                        <path class="stroom24" d="M466.8,139.1c-0.1,0,0.1-0.7,0.2-2c0.1-1.2,0-2.9-0.5-4.7c-0.5-1.8-1.3-3.2-2-4.3c-0.7-1-1.2-1.6-1.2-1.6       s0.6,0.4,1.4,1.4c0.8,1,1.7,2.5,2.2,4.3c0.5,1.8,0.5,3.6,0.3,4.8C467.2,138.4,466.8,139.1,466.8,139.1z"/>
                    </g>
                </g>
            </g>
            <g>
                <g>
                    <g>
                        <path class="stroom24" d="M460.1,126.5c-0.1,0-0.1-0.4-0.3-1c-0.2-0.6-0.8-1.3-1.4-1.9c-0.8-0.5-1.6-0.8-2.3-0.9       c-0.7-0.1-1,0.1-1-0.1c0,0,0.4-0.3,1.1-0.2c0.6-0.1,1.6,0.2,2.5,0.8c0.8,0.7,1.4,1.4,1.5,2.2       C460.3,126.1,460.3,126.5,460.1,126.5z"/>
                    </g>
                </g>
            </g>
            <g>
                <g>
                    <g>
                        <path class="stroom24" d="M466.9,126.4c-0.1,0.1-1.2-2-3.5-3.4c-2.3-1.5-4.6-1.6-4.5-1.8c0,0,0.5,0,1.5,0.1c0.9,0.2,2.1,0.6,3.3,1.4       c1.2,0.7,2,1.7,2.6,2.5C466.7,125.9,466.9,126.4,466.9,126.4z"/>
                    </g>
                </g>
            </g>
            <g>
                <g>
                    <g>
                        <path class="stroom24" d="M456.2,119.7c0,0.1-1.6,0.1-3.3,1.2c-1.6,1-2.3,2.7-2.4,2.6c0,0,0-0.3,0.3-1c0.3-0.5,0.9-1.3,1.8-1.9       c0.9-0.5,1.8-0.9,2.4-0.9C455.9,119.5,456.2,119.7,456.2,119.7z"/>
                    </g>
                </g>
            </g>
            <g>
                <g>
                    <g>
                        <path class="stroom24" d="M452.4,118.2c0,0.1-1.6,0.1-3.3,1.2c-1.6,1-2.3,2.7-2.4,2.6c0,0,0-0.3,0.3-1c0.3-0.5,0.9-1.3,1.8-1.9       c0.9-0.5,1.8-0.9,2.4-0.9C452.1,118.1,452.4,118.2,452.4,118.2z"/>
                    </g>
                </g>
            </g>
            <g>
                <g>
                    <g>
                        <path class="stroom24" d="M459.2,147.9c0-0.1,0.4-0.2,1-0.6c0.5-0.3,1.4-1,2-1.8c0.6-0.9,0.9-1.8,1-2.5c0.1-0.7,0.1-1.2,0.2-1.2       c0,0,0.2,0.4,0.1,1.2c0,0.7-0.3,1.8-1,2.7c-0.6,1-1.5,1.6-2.2,1.9C459.6,147.8,459.2,147.9,459.2,147.9z"/>
                    </g>
                </g>
            </g>
            <g>
                <g>
                    <g>
                        <path class="stroom24" d="M459,151c0-0.1,0.6-0.1,1.6-0.5c1-0.4,2.2-1.2,3.1-2.4c1-1.2,1.6-2.6,1.8-3.5s0.2-1.7,0.3-1.6       c0,0,0.1,0.7,0,1.8c-0.1,1-0.6,2.5-1.7,3.8c-1.1,1.3-2.4,2-3.4,2.5C459.6,151,459,151,459,151z"/>
                    </g>
                </g>
            </g>
            <g>
                <g>
                    <g>
                        <path class="stroom24" d="M458.5,156.6c0,0,0.3,0.5,0.3,1.5c-0.1,1-0.4,2.3-1.4,3.4s-2.5,1.5-3.5,1.5c-1,0.1-1.5-0.2-1.5-0.2       c0-0.1,0.5,0.1,1.5-0.1c0.9-0.1,2.2-0.5,3.2-1.6c1-1,1.4-2.2,1.5-3.2C458.7,157.2,458.3,156.7,458.5,156.6z"/>
                    </g>
                </g>
            </g>
            <g>
                <g>
                    <g>
                        <path class="stroom24" d="M457.7,149.5c0,0.1-0.5,0.1-1.2,0.5c-0.7,0.3-1.6,1.1-2.1,2.2c-0.5,1.2-0.4,2.3-0.1,3       c0.2,0.8,0.5,1.2,0.5,1.2c0,0-0.5-0.3-0.8-1.2c-0.3-0.8-0.5-2,0.1-3.3c0.5-1.2,1.6-2,2.4-2.3       C457,149.4,457.7,149.5,457.7,149.5z"/>
                    </g>
                </g>
            </g>
            <g>
                <g>
                    <g>
                        <path class="stroom24" d="M445.8,156.4c-0.1-0.1,0.2-0.4,0.4-1.1c0.2-0.7,0.3-1.6,0.1-2.7c-0.2-1.1-0.8-1.8-1.4-2.3       c-0.5-0.5-0.9-0.6-0.9-0.7c0,0,0.5,0.1,1,0.5c0.5,0.4,1.2,1.3,1.6,2.5c0.3,1.2,0.1,2.2-0.1,2.8       C446.2,156.1,445.8,156.5,445.8,156.4z"/>
                    </g>
                </g>
            </g>
            <g>
                <g>
                    <g>
                        <path class="stroom24" d="M453.4,159.5c0,0.1-0.3,0.3-0.9,0.2c-0.5-0.1-1.4-0.3-2-1c-0.5-0.7-0.6-1.6-0.5-2.1       c0.1-0.6,0.3-0.8,0.3-0.8c0.1,0-0.1,0.3-0.1,0.9c-0.1,0.5,0.1,1.3,0.5,1.8c0.5,0.6,1.1,0.9,1.7,1       C453.1,159.5,453.4,159.4,453.4,159.5z"/>
                    </g>
                </g>
            </g>
            <g>
                <g>
                    <g>
                        <path class="stroom24" d="M442.8,148.2c0-0.1,0.2-0.4,0.5-1c0.3-0.6,0.6-1.5,0.8-2.6c0.1-1-0.1-1.9-0.3-2.6c-0.2-0.6-0.4-1-0.4-1       s0.3,0.3,0.7,1c0.3,0.7,0.5,1.6,0.5,2.7c-0.1,1.2-0.5,2-0.9,2.6C443.1,148,442.8,148.3,442.8,148.2z"/>
                    </g>
                </g>
            </g>
            <g>
                <g>
                    <g>
                        <path class="stroom24" d="M445.6,148.5c0-0.1,0.4-0.2,1-0.6c0.5-0.3,1.2-1,1.8-2c0.4-1,0.6-1.9,0.5-2.6c-0.1-0.7-0.2-1.1-0.1-1.2       c0,0,0.3,0.4,0.4,1.1c0.1,0.7,0.1,1.8-0.5,2.8c-0.5,1-1.4,1.7-2,2C446,148.6,445.6,148.6,445.6,148.5z"/>
                    </g>
                </g>
            </g>
            <g>
                <g>
                    <g>
                        <path class="stroom24" d="M443.3,139c-0.1-0.1,0.8-1.6,0.3-3.7c-0.3-2-1.6-3.3-1.5-3.3c0,0,0.4,0.2,0.8,0.8c0.4,0.5,0.9,1.5,1,2.5       c0.1,1.1,0,2.1-0.2,2.7C443.5,138.7,443.3,139,443.3,139z"/>
                    </g>
                </g>
            </g>
            <g>
                <g>
                    <g>
                        <path class="stroom24" d="M463.5,138.1c0,0.1-0.3,0.1-0.8,0.3c-0.5,0.2-1.2,0.7-1.6,1.5c-0.5,0.7-0.6,1.5-0.5,2       c0,0.5,0.2,0.9,0.1,0.9c0,0-0.3-0.3-0.4-1s0.1-1.5,0.5-2.3c0.5-0.8,1.2-1.4,1.8-1.5C463,138,463.5,138.1,463.5,138.1z"/>
                    </g>
                </g>
            </g>
            <g>
                <g>
                    <g>
                        <path class="stroom24" d="M454.7,146.3c0,0.1-1.5,0.4-2.9,1.6c-1.4,1.2-2,2.6-2.1,2.5c-0.1,0,0.4-1.6,1.8-2.8       C453.2,146.4,454.7,146.3,454.7,146.3z"/>
                    </g>
                </g>
            </g>
            <g>
                <g>
                    <g>
                        <path class="stroom24" d="M457.4,138c0-0.1,0.3-0.3,0.6-1.1c0.3-0.6,0.5-1.6,0.3-2.7c-0.3-1-1-1.7-1.6-2.1s-1-0.5-1-0.5       s0.5,0,1.2,0.3c0.6,0.3,1.6,1.2,1.8,2.2c0.3,1.2,0,2.2-0.4,2.9C457.8,137.7,457.4,138,457.4,138z"/>
                    </g>
                </g>
            </g>
            <g>
                <g>
                    <g>
                        <path class="stroom24" d="M461.9,137c0-0.1,0.3-0.5,0.8-1.3c0.3-0.8,0.6-2.1,0.3-3.4c-0.3-1.3-1.1-2.3-1.8-2.9s-1.2-0.8-1.2-0.8       s0.5,0.1,1.4,0.6c0.8,0.5,1.6,1.6,2,3.1c0.3,1.4,0,2.8-0.5,3.6C462.5,136.6,461.9,137,461.9,137z"/>
                    </g>
                </g>
            </g>
            <g>
                <g>
                    <g>
                        <path class="stroom24" d="M457.8,129.5c0,0.1-0.5,0-1.2,0.2c-0.7,0.1-1.7,0.7-2.2,1.8s-0.3,2.2-0.1,2.9c0.3,0.7,0.7,1,0.6,1.1       c0,0-0.5-0.3-0.9-1c-0.3-0.7-0.6-2-0.1-3.1c0.5-1.2,1.7-1.8,2.5-1.8C457.3,129.2,457.8,129.4,457.8,129.5z"/>
                    </g>
                </g>
            </g>
            <g>
                <g>
                    <g>
                        <path class="stroom24" d="M450.8,144.8c0-0.1,0.4-0.3,0.9-0.9c0.5-0.5,1-1.5,1-2.7s-0.5-2.1-1-2.5c-0.5-0.5-1-0.8-1-0.8       s0.5,0.1,1.1,0.6c0.5,0.5,1.3,1.6,1.3,2.8c0,1.3-0.6,2.2-1.2,2.8C451.4,144.6,450.8,144.8,450.8,144.8z"/>
                    </g>
                </g>
            </g>
            <g>
                <g>
                    <g>
                        <path class="stroom24" d="M453.8,144.3c-0.1-0.1,1-1.1,1.2-2.7c0.3-1.6-0.5-2.9-0.3-3c0,0,0.3,0.2,0.5,0.8c0.2,0.5,0.4,1.4,0.2,2.2       c-0.2,0.9-0.5,1.6-1,2C454.1,144.2,453.9,144.3,453.8,144.3z"/>
                    </g>
                </g>
            </g>
            <g>
                <g>
                    <g>
                        <path class="stroom24" d="M447.7,131.3c0,0.1-0.3,0.3-0.6,1.1c-0.3,0.6-0.5,1.6-0.4,2.8c0.1,1.1,0.6,2,1.1,2.5       c0.5,0.5,0.9,0.7,0.8,0.8c0,0-0.5-0.1-1.1-0.6c-0.5-0.5-1.2-1.5-1.4-2.7c-0.1-1.2,0.1-2.2,0.5-2.9       C447.3,131.6,447.7,131.3,447.7,131.3z"/>
                    </g>
                </g>
            </g>
            <g>
                <g>
                    <g>
                        <path class="stroom24" d="M455.7,128.4c-0.1-0.1,0.3-1,0-2.2c-0.3-1.2-1.2-1.8-1.2-1.8c0,0,0.3,0,0.6,0.3c0.3,0.3,0.8,0.7,0.9,1.5       c0.1,0.7,0.1,1.3,0,1.8C456,128.2,455.7,128.5,455.7,128.4z"/>
                    </g>
                </g>
            </g>
            <g>
                <g>
                    <g>
                        <path class="stroom24" d="M444.1,124.2c0,0.1-0.1,0.2-0.3,0.5s-0.3,0.8-0.2,1.4c0,0.5,0.3,1,0.6,1.4s0.5,0.3,0.5,0.5       c0,0-0.3,0.1-0.7-0.2c-0.3-0.3-0.8-0.7-0.8-1.5c-0.1-0.7,0.1-1.4,0.5-1.7C443.6,124.2,444.1,124.2,444.1,124.2z"/>
                    </g>
                </g>
            </g>
            <g>
                <g>
                    <g>
                        <path class="stroom24" d="M449.3,130.2c-0.1-0.1,0-0.3,0.1-0.7c0.1-0.4,0.1-1-0.1-1.6c-0.1-0.6-0.5-1.2-0.8-1.5s-0.5-0.4-0.5-0.5       c0,0,0.3,0,0.7,0.3c0.3,0.3,0.8,0.8,1,1.6c0.2,0.7,0.1,1.4-0.1,1.8C449.6,130,449.3,130.2,449.3,130.2z"/>
                    </g>
                </g>
            </g>
            <g>
                <g>
                    <g>
                        <path class="stroom24" d="M451.1,136.4c-0.1-0.1,0.3-1.2-0.2-2.5c-0.5-1.4-1.4-2-1.4-2.1c0,0,0.3,0,0.8,0.4c0.3,0.3,0.8,0.8,1.1,1.6       c0.3,0.7,0.2,1.4,0.1,1.9C451.4,136.1,451.1,136.4,451.1,136.4z"/>
                    </g>
                </g>
            </g>
            <g>
                <g>
                    <g>
                        <path class="stroom24" d="M446.7,116.9c0,0.1-0.9,0.2-1.6,1c-0.8,0.7-1,1.6-1.1,1.6c-0.1,0-0.1-0.3,0.1-0.7c0.1-0.4,0.3-0.8,0.8-1.3       c0.5-0.4,1-0.7,1.4-0.7C446.5,116.7,446.6,116.8,446.7,116.9z"/>
                    </g>
                </g>
            </g>
            <g>
                <g>
                    <g>
                        <path class="stroom24" d="M466.9,149.1c0,0,0,0.5-0.3,1.3c-0.3,0.7-0.9,1.7-1.8,2.5c-1,0.7-2,1.2-2.7,1.4c-0.8,0.2-1.3,0.1-1.3,0.1       c0-0.1,0.4-0.1,1.2-0.3c0.7-0.3,1.7-0.7,2.5-1.4c0.8-0.7,1.5-1.6,1.8-2.2C466.5,149.6,466.7,149.2,466.9,149.1z"/>
                    </g>
                </g>
            </g>
            <g>
                <g>
                    <g>
                        <path class="stroom24" d="M454.3,116.1c-0.1,0-0.4-0.3-1.2-0.7c-0.8-0.4-1.8-0.9-3-1.1c-1.2-0.2-2.5-0.1-3.2,0.1s-1.3,0.4-1.3,0.3       c0,0,0.4-0.3,1.2-0.7c0.9-0.3,2-0.5,3.4-0.2s2.4,0.7,3.1,1.2C454,115.7,454.3,116.1,454.3,116.1z"/>
                    </g>
                </g>
            </g>
            <g>
                <g>
                    <g>
                        <path class="stroom24" d="M458,118c-0.1,0-0.2-0.4-0.5-1.2c-0.3-0.7-0.8-1.6-1.7-2.5c-0.8-0.8-1.8-1.4-2.6-1.6       c-0.7-0.3-1.2-0.3-1.2-0.4c0,0,0.5-0.1,1.3,0.1c0.8,0.2,1.8,0.7,2.7,1.5c1,0.8,1.4,1.9,1.7,2.7C458.1,117.5,458,118,458,118z"/>
                    </g>
                </g>
            </g>
        </g>
        <polygon class="stroom20" points="152.7,225.8 143.1,296.3 48.3,296.3 58,225.8  "/>
        <path class="stroom25" d="M104.7,253.3C104.7,253.3,104.7,253.3,104.7,253.3c-0.3,0-0.5-0.3-0.5-0.5l0.3-12.9l-4.6,13   c-0.1,0.3-0.3,0.5-0.6,0.5h-5.2c-0.2,0-0.4-0.1-0.5-0.3l-1-2.7l-1.9,2.7c-0.1,0.2-0.3,0.3-0.5,0.3h-3.1c-0.3,0-0.5-0.1-0.5-0.4   l-2-9.1l-5.2,9.2c-0.1,0.2-0.3,0.3-0.6,0.3H64c-0.3,0-0.5-0.3-0.5-0.6s0.3-0.6,0.7-0.6h14.5l5.8-10.2c0.1-0.2,0.3-0.3,0.6-0.3   c0.3,0,0.4,0.1,0.5,0.4l2.2,10.2h2.3l2.4-3.4c0.1-0.2,0.3-0.3,0.5-0.3c0.2,0,0.4,0.1,0.5,0.3l1.2,3.4h4.4l5.6-16.1   c0.1-0.3,0.3-0.5,0.7-0.5c0.3,0,0.5,0.2,0.5,0.5l-0.3,13.6l2.2-5.4c0.1-0.3,0.3-0.4,0.6-0.4s0.5,0.2,0.5,0.5l0.5,7.8h6.1l6.8-14.7   c0.1-0.3,0.4-0.4,0.7-0.4s0.5,0.2,0.5,0.5l0.6,14.6h1.8l3.3-5.2c0.1-0.2,0.4-0.3,0.6-0.3c0.3,0,0.4,0.2,0.5,0.4l0.6,5.2h8.5   c0.3,0,0.5,0.3,0.5,0.6c-0.1,0.3-0.3,0.6-0.7,0.6h-8.9c-0.3,0-0.5-0.2-0.5-0.4l-0.5-4l-2.6,4.2c-0.1,0.2-0.3,0.3-0.5,0.3h-2.7   c-0.3,0-0.5-0.2-0.5-0.5l-0.5-12.8l-6,12.9c-0.1,0.3-0.3,0.4-0.6,0.4h-7c-0.3,0-0.5-0.2-0.5-0.5L108,247l-2.5,5.9   C105.2,253.1,104.9,253.3,104.7,253.3z"/>
        <path class="stroom25" d="M101.1,279.8C101,279.8,101,279.8,101.1,279.8c-0.3,0-0.5-0.3-0.5-0.5l0.3-12.9l-4.6,13   c-0.1,0.3-0.3,0.5-0.6,0.5h-5.2c-0.2,0-0.4-0.1-0.5-0.3l-1-2.7l-1.9,2.7c-0.1,0.2-0.3,0.3-0.5,0.3h-3.1c-0.3,0-0.5-0.1-0.5-0.4   l-2-9.1l-5.2,9.2c-0.1,0.2-0.3,0.3-0.6,0.3H60.3c-0.3,0-0.5-0.3-0.5-0.6s0.3-0.6,0.7-0.6h14.5l5.8-10.2c0.1-0.2,0.3-0.3,0.6-0.3   s0.4,0.1,0.5,0.4l2.2,10.2h2.3l2.4-3.4c0.1-0.2,0.3-0.3,0.5-0.3c0.2,0,0.4,0.1,0.5,0.3l1.2,3.4h4.4l5.6-16.1   c0.1-0.3,0.3-0.5,0.7-0.5c0.3,0,0.5,0.2,0.5,0.5l-0.3,13.6l2.2-5.4c0.1-0.3,0.3-0.4,0.6-0.4s0.5,0.2,0.5,0.5l0.5,7.8h6.1l6.8-14.7   c0.1-0.3,0.4-0.4,0.7-0.4s0.5,0.2,0.5,0.5l0.6,14.6h1.8l3.3-5.2c0.1-0.2,0.4-0.3,0.6-0.3c0.3,0,0.4,0.2,0.5,0.4l0.6,5.2h8.5   c0.3,0,0.5,0.3,0.5,0.6c-0.1,0.3-0.3,0.6-0.7,0.6h-8.9c-0.3,0-0.5-0.2-0.5-0.4l-0.5-4l-2.6,4.2c-0.1,0.2-0.3,0.3-0.5,0.3h-2.7   c-0.3,0-0.5-0.2-0.5-0.5l-0.5-12.8l-6,12.9c-0.1,0.3-0.3,0.4-0.6,0.4h-7c-0.3,0-0.5-0.2-0.5-0.5l-0.3-5.9l-2.5,5.9   C101.6,279.7,101.3,279.8,101.1,279.8z"/>
        <polygon class="stroom20" points="123.8,395.5 98,395.5 98,360.9  "/>
        <path class="stroom20" d="M157.7,347.2c-0.1,0-0.1,0-0.2,0.1c-0.3,0.1-0.5,0.1-0.8,0.2c-0.1,0-0.1,0-0.1,0c-0.5,0.1-0.9,0.2-1.2,0.3   c-0.2,0.1-0.5,0.1-0.6,0.1c-0.2,0-0.3,0.1-0.5,0.1c-0.1,0-0.1,0-0.2,0.1c-0.1,0-0.3,0.1-0.3,0.1s0,0,0,0.1v0.1c0,0,0,0.1-0.1,0.1   c0,0,0,0.1-0.1,0.1c1.6,0,3.1-0.5,4.4-1.2C157.9,347.1,157.8,347.2,157.7,347.2z M158.5,386.9c-0.5-0.7-0.9-1.6-1.2-2.5   c-0.6-1-1-2-1.3-3.1c0-0.1-0.1-0.3-0.1-0.5l0,0l-0.1-0.7l-0.1-0.8c0-0.3,0-0.5,0-0.9c0-3.7,1.4-7.8,3.3-11.7   c0.4-0.8,0.8-1.6,1.3-2.3c0.9-1.6,1.8-3.1,2.8-4.5c-0.5-1-1.1-2.2-1.9-3.5c-0.3-0.5-0.6-1-1-1.4c-0.2-0.3-0.4-0.5-0.6-0.7   c-0.8-1-1.6-1.8-2.7-2.7c-0.2-0.2-0.5-0.4-0.7-0.6l0,0c-0.3-0.2-0.5-0.4-0.9-0.6l0,0c-0.1-0.1-0.3-0.2-0.5-0.3   c-0.6-0.4-1.3-0.7-2-1c0,0,0,0-0.1,0c-0.4,0.2-1,0.5-1.9,0.5c-2.7,0.4-21.4,4.2-26.4-11.3c-0.3-0.7-0.4-1.4-0.5-2.2   c0-0.1,0-0.3,0-0.3c0-0.1,0-0.3,0-0.3c0-0.5,0-1,0.1-1.4c0-0.1,0-0.3,0.1-0.5l0,0c0.2-1.4,0.6-2.9,1.3-4.2c0.1-0.3,0.3-0.5,0.3-0.7   c0.1-0.2,0.2-0.4,0.3-0.5c0.1-0.2,0.2-0.4,0.3-0.5c0.1-0.2,0.2-0.3,0.3-0.5c0.1-0.2,0.3-0.4,0.4-0.6c0.2-0.3,0.4-0.6,0.7-0.9   c0.1-0.1,0.2-0.3,0.3-0.4c0.2-0.3,0.4-0.5,0.6-0.7c0.2-0.3,0.4-0.5,0.6-0.7c0.2-0.2,0.3-0.4,0.5-0.6c0.1-0.1,0.1-0.1,0.1-0.1   c0.2-0.2,0.4-0.5,0.7-0.7c0.5-0.5,1.1-1.1,1.6-1.6l0,0l0.1-0.1l-46-1l-0.1,0.1l0,0l-0.7,0.7l0.7-0.5l56.6,75.9h24.4V392   C163.3,390.6,159.9,388.9,158.5,386.9z M144.3,484.3v6.2h23.1v-6.2H144.3z M147.4,508.2c-0.1-0.1-0.1-0.3-0.2-0.3   c-0.2-0.3-0.5-0.7-0.7-1c-0.2-0.2-0.4-0.4-0.6-0.6c-0.1-0.1-0.2-0.2-0.3-0.3c-0.3-0.3-0.8-0.5-1.2-0.7c-0.9-0.4-1.8-0.7-2.9-0.7   c-1,0-2,0.3-2.9,0.7c-2.2,1.1-3.7,3.3-3.7,5.9c0,0.5,0.1,0.9,0.1,1.4c0.2,1,0.6,1.8,1.2,2.6c-0.8-1.1-1.2-2.5-1.2-3.9   c0-2.6,1.5-4.8,3.6-5.9h0.1c0.9-0.4,1.9-0.7,2.9-0.7c1,0,2,0.3,2.9,0.7l0,0c2.2,1,3.7,3.3,3.7,5.9   C148,510.1,147.8,509.1,147.4,508.2z"/>
        <path class="stroom20" d="M167.4,490.5v27.3h-26c0.1,0,0.2,0,0.3,0c0.2,0,0.4,0,0.7-0.1l0,0c3.1-0.5,5.5-3.1,5.6-6.3c0-0.1,0-0.2,0-0.3   v-0.1c0-2.6-1.5-4.8-3.7-5.9v-14.7L167.4,490.5z"/>
        <rect x="144.3" y="411.8" class="stroom20" width="23.1" height="72.5"/>
        <path class="stroom20" d="M141.3,517.8H59.7V296.3h73.2V320c-0.1,0.1-0.3,0.3-0.5,0.4l-46-1l-0.8,0.8l0,0l-4,3c-4.2,3.1-5.1,9-2,13.2   l10,13.5v45.7h-5.3c-4.5,0-8.1,3.6-8.1,8.1c0,2.2,0.9,4.3,2.4,5.7c1.4,1.5,3.5,2.4,5.7,2.4h54v93.4c-2.2,1.1-3.7,3.3-3.7,5.9   C134.7,514.8,137.7,517.8,141.3,517.8z"/>
        <path class="stroom20" d="M181.2,394.7c0,0.3,0,0.5-0.1,0.8h-38.2l-56.6-75.9l-0.7,0.5l0.8-0.8l46,1c-5.5,4.9-10.2,11.4-8.1,17.9   c5.1,15.5,23.7,11.7,26.4,11.3c0.9-0.1,1.5-0.3,1.9-0.5l0,0c5.7,2.4,8.9,8,10.3,10.9l0,0c-1,1.4-1.9,2.9-2.8,4.5   c-0.5,0.7-0.9,1.6-1.3,2.3c-3.1,6.3-4.8,12.8-1.8,17.7l0,0c0.3,0.8,0.7,1.7,1.2,2.5c1.4,2,4.7,3.7,8.9,5   C171.7,393.1,176.7,394.1,181.2,394.7z"/>
        <path class="stroom20" d="M191,340.9c-9.6,1-15.6,4.8-16.9,5.7c-1.7-1.4-4-3.5-6.1-5.2c-0.2,0.3-0.4,0.5-0.6,0.8v-5.4   c0.7-1.3,1.1-2.1,1.1-2.1c1.3-3.5-7.8-10.2-14.4-13.8l23.7,0.5L191,340.9z"/>
        <path class="stroom20" d="M181.2,395.6c-0.1,1.2-0.2,2.5-0.3,3.7c0,0.5-0.1,1.2-0.1,1.7c0,0.5,0,1-0.1,1.5c-0.1,3.4-0.1,6.5-0.1,9.3   H84.5c-0.1,0-0.3,0-0.4,0c-0.1,0-0.3,0-0.4,0c-0.1,0-0.2,0-0.3-0.1c-1.8-0.3-3.4-1.1-4.6-2.3c-1.5-1.5-2.4-3.5-2.4-5.7   c0-4.4,3.4-7.9,7.7-8.1c0.1,0,0.3,0,0.4,0h39.3L98,361l-1.8-2.5l-0.3-0.4l-6.1-8.2l-10-13.5c-3.1-4.2-2.3-10.1,2-13.2l4-3l0.7-0.5   l0,0l56.6,75.8l0.1,0.1L181.2,395.6L181.2,395.6z"/>
        <path class="stroom20" d="M433.1,411.8h-3.8v-3.7C429.3,410.1,431,411.8,433.1,411.8z"/>
        <path class="stroom20" d="M440.1,411.8h-1v-0.1c0.3,0.1,0.5,0.1,0.8,0.1C440,411.8,440,411.8,440.1,411.8z"/>
        <path class="stroom20" d="M144.3,411.8v93.4c-0.9-0.4-1.8-0.7-2.9-0.7c-1,0-2,0.3-2.9,0.7v-93.4H144.3z"/>
        <path class="stroom20" d="M144.3,505.2L144.3,505.2c-0.9-0.3-1.8-0.6-2.9-0.6s-2,0.3-2.9,0.7h-0.1v-0.1c0.9-0.4,1.9-0.7,2.9-0.7   C142.4,504.5,143.4,504.8,144.3,505.2z"/>
        <path class="stroom20" d="M440.1,411.8h-1v-0.1c0.3,0.1,0.5,0.1,0.8,0.1C440,411.8,440,411.8,440.1,411.8z"/>
        <path class="stroom20" d="M444.9,505.2v5.9h-5.9v-5.9c0.9-0.4,1.9-0.7,2.9-0.7c0.3,0,0.5,0,0.8,0.1c0.2,0,0.3,0.1,0.5,0.1c0,0,0,0,0.1,0   c0.2,0.1,0.3,0.1,0.5,0.1c0.1,0,0.2,0.1,0.3,0.1C444.5,505,444.7,505,444.9,505.2z"/>
        <path class="stroom20" d="M247.8,421.4v83.8c-0.2-0.1-0.5-0.2-0.7-0.3c-0.1-0.1-0.3-0.1-0.3-0.1c-0.1-0.1-0.3-0.1-0.5-0.1   c-0.1,0-0.1,0-0.1,0c0,0,0,0-0.1,0c-0.1-0.1-0.3-0.1-0.5-0.1c-0.3-0.1-0.5-0.1-0.8-0.1c-1,0-2,0.3-2.9,0.7v-83.5   C243.8,421.6,245.8,421.5,247.8,421.4z"/>
        <path class="stroom20" d="M247.8,505.2L247.8,505.2c-0.9-0.3-1.9-0.6-2.9-0.6c-1,0-2,0.3-2.9,0.7v-0.1c0.9-0.4,1.9-0.7,2.9-0.7   c0.3,0,0.5,0,0.8,0.1c0.4,0.1,0.8,0.1,1.2,0.2c0.1,0,0.2,0.1,0.3,0.1C247.3,505,247.6,505,247.8,505.2z"/>
        <rect x="247.8" y="484.3" class="stroom20" width="191.3" height="6.2"/>
        <rect x="144.3" y="484.3" class="stroom20" width="97.6" height="6.2"/>
        <path class="stroom20" d="M444.9,411.8v93.4c-0.2-0.1-0.5-0.2-0.7-0.3c-0.1-0.1-0.3-0.1-0.3-0.1c-0.2-0.1-0.3-0.1-0.5-0.1c0,0,0,0-0.1,0   c-0.2-0.1-0.3-0.1-0.5-0.1c-0.3-0.1-0.5-0.1-0.8-0.1c-1,0-2,0.3-2.9,0.7v-93.4H444.9z"/>
        <path class="stroom20" d="M483.4,484.3c-0.3,2.1-0.7,4.2-1,6.2h-37.4v-6.2H483.4z"/>
        <path class="stroom20" d="M530.5,490.5h-23.8c0.7-2,1.4-4.1,2-6.2h20.9L530.5,490.5z"/>
        <path class="stroom20" d="M147.4,508.2c-0.1-0.1-0.1-0.3-0.2-0.3c-0.2-0.3-0.4-0.7-0.7-1c-0.2-0.2-0.4-0.4-0.6-0.6   c-0.1-0.1-0.2-0.2-0.3-0.3c-0.3-0.3-0.8-0.5-1.2-0.7h-0.1l0,0c2.2,1,3.7,3.3,3.7,5.9v0.1c0,0.1,0,0.2,0,0.3   c-0.2,3.5-3.1,6.3-6.6,6.3c-1.4,0-2.8-0.5-3.9-1.2c0.9,0.7,1.9,1.1,3,1.3c0.2,0,0.4,0.1,0.6,0.1c0.1,0,0.2,0,0.3,0h0.1   c0.1,0,0.2,0,0.3,0c0.2,0,0.4,0,0.7-0.1l0,0c3.2-0.5,5.7-3.2,5.7-6.5C148,510.1,147.8,509.1,147.4,508.2z M137.5,516.5   c-0.2-0.1-0.3-0.3-0.5-0.4C137.1,516.2,137.3,516.3,137.5,516.5z"/>
        <path class="stroom20" d="M144.3,505.2L144.3,505.2c-0.9-0.4-1.8-0.7-2.9-0.7s-2,0.3-2.9,0.7h-0.1c-2.1,1-3.6,3.3-3.6,5.9   c0,1.4,0.5,2.8,1.2,3.9c0.1,0.2,0.3,0.3,0.4,0.5c0.1,0.1,0.3,0.3,0.5,0.5c1.2,1,2.7,1.6,4.4,1.6c3.6,0,6.4-2.8,6.6-6.3   c0-0.1,0-0.2,0-0.3v-0.1C148,508.5,146.5,506.3,144.3,505.2z M141.3,514.8c-2,0-3.7-1.6-3.7-3.7c0-0.8,0.3-1.6,0.8-2.2   c0.7-0.9,1.7-1.4,2.9-1.4c1.2,0,2.3,0.5,2.9,1.4c0.5,0.6,0.8,1.4,0.8,2.2C145,513.2,143.4,514.8,141.3,514.8z"/>
        <path class="stroom20" d="M145,511.2c0,2-1.6,3.7-3.7,3.7s-3.7-1.6-3.7-3.7c0-0.8,0.3-1.6,0.8-2.2c0.7-0.9,1.7-1.4,2.9-1.4   c1.2,0,2.3,0.5,2.9,1.4C144.8,509.5,145,510.3,145,511.2z"/>
        <path class="stroom20" d="M247.8,505.2c-0.9-0.4-1.9-0.7-2.9-0.7c-1,0-2,0.3-2.9,0.7c-2.2,1-3.7,3.3-3.7,5.9c0,3.6,2.9,6.6,6.6,6.6   c3.6,0,6.6-2.9,6.6-6.6C251.4,508.5,249.9,506.3,247.8,505.2z M244.8,514.8c-2,0-3.7-1.6-3.7-3.7c0-0.8,0.3-1.6,0.8-2.2   c0.7-0.9,1.7-1.4,2.9-1.4c1.2,0,2.3,0.5,2.9,1.4c0.5,0.6,0.8,1.4,0.8,2.2C248.5,513.2,246.9,514.8,244.8,514.8z"/>
        <path class="stroom20" d="M248.5,511.2c0,2-1.6,3.7-3.7,3.7s-3.7-1.6-3.7-3.7c0-0.8,0.3-1.6,0.8-2.2c0.7-0.9,1.7-1.4,2.9-1.4   c1.2,0,2.3,0.5,2.9,1.4C248.2,509.5,248.5,510.3,248.5,511.2z"/>
        <path class="stroom20" d="M448.7,511.2c0,3.7-3,6.6-6.6,6.6c-3.7,0-6.6-3-6.6-6.6c0-2.6,1.5-4.9,3.7-5.9c0.9-0.4,1.9-0.7,2.9-0.7   s2,0.3,2.9,0.7C447.1,506.3,448.7,508.5,448.7,511.2z"/>
        <path class="stroom20" d="M438.3,511.2c0-2,1.6-3.7,3.7-3.7c2,0,3.7,1.6,3.7,3.7c0,2-1.6,3.7-3.7,3.7C440,514.8,438.3,513.2,438.3,511.2   z"/>
        <path class="stroom20" d="M210.4,343c-2.2,1.5-6.8,4.8-11.7,9.4l0,0c-5.3,5-10.9,11.7-13.6,18.8c-0.4,1.1-0.8,2.3-1.1,3.6   c0,0.1-0.1,0.2-0.1,0.3s-0.1,0.2-0.1,0.3c-1.1,4.2-1.8,9.2-2.3,14.3c-0.1,1.7-0.3,3.4-0.4,5.1c-4.5-0.6-9.6-1.6-13.8-2.9   c-4.1-1.3-7.5-2.9-8.9-5c-0.5-0.7-0.9-1.6-1.2-2.5l0,0c-4.1-6.7,0.5-16.6,5.9-24.5c0.5,1.1,0.8,1.8,0.8,1.8c0.7-0.3,2-1.2,3.5-2.5   c4.2-3.7,9.9-10,8.9-10.8c-0.3-0.2-1.1-0.9-2.2-1.8c1.4-0.9,7.4-4.7,16.9-5.7c4.6-0.5,10-0.3,16,1.2   C207.8,342.3,209,342.6,210.4,343z"/>
        <polygon class="stroom20" points="98,360.9 98,395.5 89.8,395.5 89.8,349.9  "/>
        <path class="stroom20" d="M168.5,334.6c0,0-0.4,0.8-1.1,2.1v5.4c-2.3,2.6-6.3,4.2-9.4,5c-2.5,0.7-4.4,0.9-4.4,0.9s-0.6-1.6-1.7-3.1   c-0.8-1.1-2-2.1-3.3-2.2c0,0-3.6,0.7-4.2-1.4c-0.5-2.2,2-1.5,2.6-2.5c0.5-0.9-0.7-3.7-2.6-5.7c-0.3-0.3-0.7-0.6-1-0.9   c-2.3-1.6,5.5-7.1,8.2-11.5l2.5,0.1C160.7,324.5,169.8,331.1,168.5,334.6z"/>
        <path class="stroom20" d="M153.6,348c0,0,0,0.1-0.1,0.3c-0.1,0.2-0.3,0.4-0.7,0.7l0,0c-0.4,0.2-1,0.5-1.9,0.5   c-2.7,0.4-21.4,4.2-26.4-11.3c-2.2-6.5,2.6-13,8.1-17.9c0.1-0.1,0.3-0.3,0.5-0.4c4.6-4,9.5-7,11.2-8c6.6-4.1,9.5,2.6,8.3,7.2   c-0.1,0.3-0.1,0.5-0.3,0.7c-0.1,0.3-0.3,0.6-0.5,1c-2.7,4.4-10.5,9.9-8.2,11.5c0.3,0.3,0.7,0.5,1,0.9c2,2,3.1,4.8,2.6,5.7   c-0.5,1-3.1,0.3-2.6,2.5s4.2,1.4,4.2,1.4c1.4,0.1,2.5,1.1,3.3,2.2C153,346.3,153.6,348,153.6,348z"/>
        <path class="stroom20" d="M439.1,411.7v0.1h-6c-2,0-3.8-1.7-3.8-3.7v-57.5c0-2,1.7-3.7,3.8-3.7h7c-2,0-3.8,1.7-3.8,3.7v57.5   C436.3,409.8,437.5,411.2,439.1,411.7z"/>
        <path class="stroom20" d="M440.1,411.8h-1v-0.1c0.3,0.1,0.5,0.1,0.8,0.1C440,411.8,440,411.8,440.1,411.8z"/>
        <path class="stroom20" d="M525.5,411.8h-5.8l-0.1-0.7c1.8,0.3,3.5,0.5,5.3,0.7C525.1,411.8,525.3,411.8,525.5,411.8z"/>
        <path class="stroom20" d="M491.2,404.3c-0.1,2.5-0.3,4.9-0.4,7.4v0.1h-50.7c-0.1,0-0.1,0-0.3,0c-0.2,0-0.5-0.1-0.7-0.1   c-1.6-0.4-2.7-1.9-2.7-3.6v-57.5c0-2,1.7-3.7,3.8-3.7h43.8l1.2,7.4h0.1l0,0l0.8-0.1c-1,7.4-2,14.4-2.9,20.6   c-0.3,2.2-0.5,4.2-0.8,6.2c-1.6,11.6-2.6,19.1-2.6,19.1S483.5,403,491.2,404.3z"/>
        <polygon class="stroom20" points="485.2,354.2 485.2,354.2 483.9,346.8 484,346.8 485.2,354.2  "/>
        <path class="stroom20" d="M491.3,404.3L491.3,404.3c-0.1,2.5-0.3,5-0.4,7.5h-0.1v-0.1c0.1-2.5,0.3-5,0.4-7.4c-7.7-1.4-11.4-4.3-11.4-4.3   s1-7.5,2.6-19.1c0.3-2,0.5-4,0.8-6.2c0.8-6.2,1.8-13.2,2.9-20.6h0.1h0.1c-1,7.4-2,14.4-2.9,20.6c-0.3,2.2-0.6,4.2-0.8,6.2   c-1.6,11.6-2.6,19.1-2.6,19.1s3.6,2.9,11.3,4.3C491.3,404.3,491.3,404.3,491.3,404.3z"/>
        <path class="stroom20" d="M525.5,411.8h-5.8l-0.1-0.7c1.8,0.3,3.5,0.5,5.3,0.7C525.1,411.8,525.3,411.8,525.5,411.8z"/>
        <path class="stroom20" d="M241.9,421.7v62.6h-74.5v-72.5h13.3c0,5.7,0.2,9.5,0.2,9.5s0,0,0.1,0C182.5,421.4,211.6,423.1,241.9,421.7z"/>
        <path class="stroom20" d="M429.3,361.7v60.1c0,0-0.2,0.1-0.6,0.2c-0.9,0.2-2.8,0.7-6.1,1.2s-8.1,1.1-14.8,1.6c-1,0.1-2.3,0.1-4,0.1   c-2.5,0-5.8,0-9.6-0.1c-3.8-0.1-8.1-0.2-12.8-0.3c-2.9-0.1-5.8-0.2-8.9-0.3c-39.9-1.4-100.3-4.3-123.7-2.7c-0.3,0-0.6,0.1-0.9,0.1   v-0.1c-2,0.1-4,0.3-5.9,0.3c-30.3,1.4-59.4-0.3-60.9-0.4c0-0.5-0.2-4.2-0.2-9.4v-0.1c0-2.7,0-5.9,0.1-9.3c0-0.5,0-1,0.1-1.5   c0-0.5,0.1-1.1,0.1-1.7c0.1-1.2,0.1-2.5,0.3-3.7h-0.1c0-0.3,0-0.5,0.1-0.8c0.1-1.7,0.3-3.4,0.4-5.1c0.5-5,1.2-10,2.3-14.3   c0-0.1,0.1-0.2,0.1-0.3c0-0.1,0.1-0.2,0.1-0.3c0.3-1.3,0.7-2.5,1.1-3.6c2.7-7.2,8.2-13.8,13.6-18.8c2.4-2.3,4.8-4.3,6.8-5.9   c2-1.6,3.8-2.8,4.8-3.5c0.8-0.5,1.2-0.8,1.2-0.8c3.2,0.1,6.8,0.3,10.6,0.6c1.9,0.1,3.8,0.3,5.9,0.5c0.3,0.1,0.7,0.1,1,0.1   c1.4,0.1,2.7,0.3,4.2,0.5c0.5,0.1,1.2,0.1,1.7,0.2c1.4,0.1,2.7,0.3,4.2,0.5c3.9,0.5,7.9,1.1,12,1.7c2.3,0.3,4.6,0.7,6.9,1   c1.4,0.2,2.8,0.4,4.2,0.6c17.1,2.7,34.8,5.5,50.2,7.3c3.8,0.4,8.3,0.8,13.3,1.2c2.2,0.2,4.5,0.3,6.9,0.5c1.4,0.1,2.7,0.2,4.2,0.3   c10.4,0.7,22,1.4,33.3,1.9c3.4,0.1,6.8,0.3,10.1,0.5c7.9,0.3,15.6,0.7,22.3,1c2.5,0.1,4.7,0.2,6.9,0.3c1.4,0.1,2.8,0.1,4.2,0.1   c1,0,2,0.1,3,0.1C424.4,361.5,429.3,361.7,429.3,361.7z"/>
        <path class="stroom20" d="M181.2,395.6c-0.1,1.2-0.2,2.5-0.3,3.7C181,398.1,181.1,396.9,181.2,395.6L181.2,395.6z"/>
        <path class="stroom20" d="M247.8,421.4L247.8,421.4c-2,0.2-3.9,0.3-5.9,0.4c-31.1,1.6-60.9-0.4-60.9-0.4s0,0,0-0.1   c1.5,0.1,30.7,1.8,60.9,0.4C243.8,421.6,245.8,421.5,247.8,421.4z"/>
        <path class="stroom20" d="M497.3,510.4c-0.1,2.4-0.3,4.6-1.2,5.5h-34.8c0.5-1.2,1.7-3.1,5.3-3.7c4.1-0.7,10.4-2.6,14.1-6.5   c0.4,0.5,1,1,1.7,1.2C485.9,508,492.6,511.3,497.3,510.4z"/>
        <path class="stroom20" d="M521.6,425.8c-0.5,2.2-0.9,4.2-1.2,5.9c-0.5,2.7-0.8,4.8-0.9,6.4c-0.6,11.4-5.6,30.5-10.7,46.2   c-0.7,2.1-1.4,4.2-2,6.2c-3.8,11-7.2,19.1-8.5,19.6c-0.3,0.1-0.7,0.2-1,0.3c-2.5,0.5-5.5-0.1-8.3-1.1c-0.5-0.1-1-0.3-1.4-0.5   c-0.1-0.1-0.3-0.1-0.5-0.2c-0.1-0.1-0.3-0.1-0.4-0.1c-0.4-0.1-0.8-0.3-1.2-0.5c-0.2-0.1-0.4-0.1-0.6-0.2c-0.2-0.1-0.4-0.1-0.5-0.2   c-0.2-0.1-0.3-0.1-0.5-0.2c-0.1,0-0.1-0.1-0.1-0.1c-0.2-0.1-0.5-0.1-0.7-0.3c-0.2-0.1-0.4-0.1-0.6-0.2c-0.1,0-0.1-0.1-0.3-0.1   c-0.1,0-0.1-0.1-0.2-0.1c-0.1-0.1-0.1-0.1-0.2-0.1c-0.4-0.2-0.8-0.5-1-0.9c-0.6-0.7-0.9-1.7-0.7-2.7c0.9-4,1.7-8.1,2.5-12.5v-0.1   c0.3-2,0.7-4,1-6.1v-0.1c3.7-23,6-49.2,7.4-72.4v-0.1c0.1-2.5,0.3-5,0.4-7.4l0,0v-0.1c4.2,0.7,9.7,1.1,16.5,0.2   c2.3-0.3,4.1-2.7,5.7-6.7c1.1-2.9,2-6.5,2.8-10.9v0.3l3.3,24l0.1,0.7L521.6,425.8z"/>
        <path class="stroom20" d="M524.8,411.7C524.8,411.8,524.8,411.8,524.8,411.7l-5.1,0.1l-0.1-0.7C521.3,411.4,523.1,411.6,524.8,411.7z"/>
        <path class="stroom20" d="M556.3,407.9c-0.1,24.8-5.9,101.9-5.9,101.9c-0.2,0.1-0.5,0.1-0.7,0.1c-0.8-3.3-1.8-4.2-1.8-4.2   s-10.9-2.2-12.6,1.2c-0.4,0.7-0.7,1.6-1,2.5c-0.7-0.1-1.1-0.2-1.1-0.2l-2.6-18.9l-0.9-6.2l-8.1-58.5l0,0l-1.9-14h5.8   c3.4,0.3,6.8,0.3,10.3,0c2.5-0.2,4.9-0.5,7.4-0.9l0,0C547.4,410.2,551.7,409.2,556.3,407.9z"/>
        <path class="stroom20" d="M550.5,515.9h-17.6c0.1-1,0.6-3.7,1.4-6.3l0,0c0.3-0.9,0.6-1.8,1-2.5c1.7-3.4,12.6-1.2,12.6-1.2s1,0.9,1.8,4.2   C550,511.4,550.3,513.4,550.5,515.9z"/>
        <path class="stroom20" d="M525.5,411.8h-5.8l-0.1-0.7c1.8,0.3,3.5,0.5,5.3,0.7C525.1,411.8,525.3,411.8,525.5,411.8z"/>
        <path class="stroom21" d="M519.5,352.8c-0.3,6-0.6,11.8-1.1,17.1c-0.1,1.6-0.3,3.3-0.5,4.8c-0.1,1-0.2,2-0.3,2.9   c-0.1,1.1-0.3,2.2-0.4,3.3l0,0c-0.1,0.4-0.1,0.8-0.1,1.2c0,0.1,0,0.1,0,0.2c-0.2,1.6-0.5,3.1-0.8,4.6c0,0.1,0,0.1-0.1,0.2v-0.3   c-0.8,4.4-1.7,8-2.8,10.9c-1.6,4-3.4,6.5-5.7,6.7c-6.8,0.9-12.2,0.5-16.5-0.2v0.1C483.5,403,480,400,480,400s1-7.5,2.6-19.1   c0.3-2,0.5-4,0.8-6.2c0.8-6.2,1.8-13.2,2.9-20.6l7.7-0.3h0.8l16.8-0.7l2.7-0.1L519.5,352.8z"/>
        <path class="stroom21" d="M516.1,387.1c-0.8,4.2-1.7,7.9-2.7,10.7c-1.5,4-3.4,6.5-5.7,6.7c-6.7,0.9-12.2,0.6-16.4-0.2h-0.1h-0.1   c-7.7-1.4-11.4-4.3-11.4-4.3s1-7.5,2.6-19.1c0.3-2,0.5-4,0.8-6.2c0.8-6.2,1.8-13.2,2.9-20.6l0,0h0.1c-1,7.4-2,14.4-2.9,20.6   c-0.3,2.2-0.6,4.2-0.8,6.2c-1.6,11.6-2.6,19.1-2.6,19.1s3.6,2.9,11.3,4.3v-0.1c4.2,0.7,9.7,1.1,16.5,0.2c2.3-0.3,4.1-2.7,5.7-6.7   c1.1-2.9,2-6.5,2.8-10.9V387.1z"/>
        <path class="stroom21" d="M578.3,324.7c-0.7,1.4-1.5,2.7-2.6,3.8c-1.9,2-4.9,3.2-8.4,4c-1.6,0.3-3.4,0.5-5.3,0.7c0-0.1,0-0.1,0-0.1   c-1.4,0.1-2.7,0.2-4.2,0.2h-0.5c-9.5,0-20.1-1.7-26.4-3v0.1l0,0v-0.1l0,0l-0.2-1.1l-0.4-3.1l0,0c0.1,0,0.1-0.1,0.1-0.1l0,0   c0.9-0.7,1.1-2.7,0.8-4.8c-0.2-1.6-0.7-3.3-1.2-4.4c-0.3-0.7-0.8-1.2-1.2-1.2c0.8-0.1,2.9-0.2,5.7-0.6c3.7-0.5,8.4-1.2,12.4-2.4   c4-1.2,7.2-2.7,7.6-4.8c0.2-0.7,0-2.6-0.6-5.3c0-0.1,0-0.1,0-0.1v-0.1c-0.2-1-0.4-2-0.6-3.2c-2.9-12.2-9.4-33.9-12.8-44.9   c-0.1-0.1-0.1-0.1-0.1-0.1c1-1.8,1.8-3.3,2.5-4.4c0.3-0.5,0.5-1,0.8-1.3c0.1-0.3,0.2-0.3,0.2-0.3c5.7,0.9,14.3,3.1,19.2,8.5   c2.8,3,12.2,23.6,15.8,42.5l0,0C580.9,308.9,581.3,318.4,578.3,324.7z"/>
        <path class="stroom21" d="M530.8,329.2l0.2,1.1l0,0L530.8,329.2l-0.5-3.1c0,0,0.1,0,0.1-0.1L530.8,329.2z"/>
        <path class="stroom21" d="M531.3,321.3c-0.2-1.6-0.6-3.3-1.2-4.4c-0.4-0.8-0.9-1.3-1.4-1.3c0.1,0,0.1,0,0.3,0l0,0   c0.4,0.1,0.8,0.5,1.2,1.2C530.7,317.9,531.1,319.6,531.3,321.3c0.3,2,0.1,4-0.8,4.7C531.3,325.2,531.5,323.3,531.3,321.3z"/>
        <path class="stroom21" d="M554,302.2c-0.2-1-0.4-2-0.7-3.1c-1.4-6.1-3.8-14.6-6.1-22.9s-4.9-16.5-6.6-22c0-0.1,0-0.1-0.1-0.1   c0-0.1,0.1-0.1,0.1-0.1c0,0,0,0.1,0.1,0.1c3.3,11,9.9,32.7,12.8,44.9C553.7,300.1,553.9,301.2,554,302.2z"/>
        <path class="stroom21" d="M562.1,333.2L562.1,333.2c-1.4,0.1-2.7,0.1-4.2,0.2c-9.7,0.1-20.5-1.7-26.9-3v-0.1c6.3,1.3,16.9,3,26.4,3h0.5   c1.4,0,2.8-0.1,4.2-0.2C562.1,333.1,562.1,333.1,562.1,333.2z"/>
        <path class="stroom21" d="M514.4,248.5c-0.1,0.1-0.1,0.3-0.2,0.3l0,0c-0.1,0.1-0.1,0.1-0.1,0.1l-0.1,1.6l-0.1,1l-1.5,19.5l0,0   c-0.1,0.2-0.1,0.4-0.1,0.5v0.1c0,0.1,0,0.1,0,0.1c0,0.1,0,0.1,0,0.1c-1.6,5.2-3.8,11.7-6,18.1c-0.3-0.1-0.5-0.1-0.8,0   c-0.5,0.1-1.6,0.1-3,0.2c-2.1,0.1-4.8,0.3-7.2,0.4c-1.3,0.1-2.5,0.1-3.3,0.1c-0.8,0.1-1.4,0.1-1.4,0.1s-1.1,0-1.7,0.4   c0,0,0,0-0.1,0c-0.3,0.2-0.5,0.5-0.5,1l-9.8,0.4c4.3-12.5,10.2-24.9,11.8-28.6c1.8-4.2,9.9-8.9,16.7-12.4c0,0,0.1,0,0.1-0.1   c0.1-0.1,0.2-0.1,0.3-0.1h0.1c-0.1,0.1-0.3,0.2-0.5,0.3c0.2-0.1,0.3-0.2,0.5-0.3l0,0c1.6-0.7,3-1.4,4.3-2c0.5-0.2,1-0.4,1.5-0.5   c0.1-0.1,0.3-0.1,0.5-0.1C514,248.6,514.2,248.5,514.4,248.5z"/>
        <path class="stroom21" d="M488.5,292.1L488.5,292.1l-0.1,0.1l-9.8,0.4v-0.1l9.8-0.4c0-0.5,0.2-0.8,0.5-1   C488.7,291.4,488.5,291.7,488.5,292.1z"/>
        <path class="stroom21" d="M507,251.7c0.1-0.1,0.3-0.2,0.5-0.3h-0.1c0.1-0.1,0.3-0.1,0.4-0.2c0,0,0.1,0,0.1-0.1c0.8-0.3,1.5-0.7,2.2-1.1   c0.1,0,0.1-0.1,0.1-0.1c0,0,0.1,0,0.1-0.1c0.6-0.3,1.2-0.5,1.8-0.8c0.1,0,0.3-0.1,0.3-0.1l0,0c0.3-0.1,0.6-0.2,1-0.3   c-0.5,0.1-1,0.3-1.5,0.5c-1.3,0.6-2.7,1.3-4.3,2l0,0C507.4,251.5,507.2,251.6,507,251.7z"/>
        <path class="stroom21" d="M512.4,271.1l-0.1,0.5l0,0v0.3c-1.6,5.2-3.8,11.7-6,18.1h-0.1c2.2-6.3,4.4-12.8,6-18.1c0,0,0,0,0-0.1   c0,0,0,0,0-0.1v-0.1C512.3,271.5,512.4,271.3,512.4,271.1z"/>
        <path class="stroom20" d="M531.3,254.3v7.1c-0.5,2-1,4.1-1.4,5.9c-0.9,4.1-1.4,7.2-1.5,7.6c0,0,0.1-0.1,0.1-0.1c0,0.1,0,0.1,0,0.1   c-0.5,2.2-1,4.1-1.4,5.7c-0.3,1.5-0.6,2.6-0.8,3.1c-0.2,0.8-0.4,2-0.7,3.5c-0.3,1.5-0.5,3.3-0.8,5.3l-0.3-1.8h-0.3l-4.4,0.2   l-11.6,0.5h-0.1c-0.1-0.3-0.5-1.2-1.8-1.4l0,0h0.1c2.2-6.3,4.4-12.8,6-18.1v-0.3l0,0c0.5-1.8,2.9-12.3,4.7-19.8   c0.3-1.2,0.5-2.2,0.8-3.3c0,0.1-0.1,0.3-0.1,0.5c0,0.2,0,0.4,0,0.6c0,0.1,0,0.3,0,0.5c0,0.2,0.1,0.3,0.1,0.5l0,0   c0.1,0.4,0.1,0.7,0.3,1.2c0,0.1,0.1,0.2,0.1,0.3c0.5,1.1,1.5,2.1,3.3,2.5c0.8,0.1,1.7,0.3,2.6,0.3   C526.4,254.9,528.8,254.7,531.3,254.3z"/>
        <path class="stroom20" d="M524.8,292.4c0,0.1,0,0.2,0,0.3l-0.3-2h-0.2l-4.5,0.2l-11.6,0.5c0,0,0,0,0-0.1h0.1l11.6-0.5l4.4-0.2h0.3   L524.8,292.4z"/>
        <path class="stroom20" d="M518,247.8c0,0.1-0.1,0.4-0.1,0.7l0,0c-0.3,1-0.5,2.1-0.8,3.3c-1.8,7.6-4.2,18.1-4.7,19.8l0,0v0.3   c-1.6,5.2-3.8,11.7-6,18.1h-0.1c2.2-6.3,4.4-12.8,6-18.1c0,0,0,0,0-0.1c0,0,0,0,0-0.1v-0.1c0-0.1,0.1-0.3,0.1-0.5l0,0   c0.6-2.7,2.9-12.3,4.6-19.4C517.3,250.2,517.7,248.9,518,247.8z"/>
        <path class="stroom20" d="M533.3,253.7c-0.7,2.5-1.4,5.1-2,7.6c0,0.1-0.1,0.2-0.1,0.3c-1.4,6.2-2.5,11.9-2.7,13l0,0   c-0.1,0.1-0.1,0.1-0.1,0.1c0.1-0.3,0.7-3.5,1.5-7.6c0.4-1.8,0.8-3.9,1.4-5.9v-7c-2.5,0.5-4.8,0.7-7,0.5c-0.9-0.1-1.8-0.2-2.6-0.3   c-1.8-0.3-2.8-1.4-3.3-2.5c-0.1-0.1-0.1-0.2-0.1-0.3c-0.1-0.3-0.2-0.7-0.3-1.2c0.1,0.4,0.1,0.7,0.3,1.2c0,0.1,0.1,0.1,0.1,0.2   c0.5,1.1,1.5,2.1,3.3,2.5c0.8,0.1,1.7,0.3,2.6,0.3c2.2,0.1,4.6,0,7-0.5h0.1c0.6-0.1,1.3-0.3,1.9-0.5   C533.3,253.7,533.3,253.7,533.3,253.7z"/>
        <path class="stroom20" d="M537.4,244.1L537.4,244.1C537.4,244.1,537.4,244.1,537.4,244.1c-0.5,0.4-1,1.1-1.4,2c-0.9,1.8-1.8,4.6-2.7,7.6   l0,0c-0.6,0.2-1.3,0.3-1.9,0.5h-0.1c-2.4,0.5-4.8,0.7-7,0.5c-0.9-0.1-1.8-0.1-2.6-0.3c-1.8-0.3-2.9-1.4-3.3-2.5   c0-0.1-0.1-0.1-0.1-0.2c-0.1-0.3-0.2-0.7-0.3-1.2l0,0c0-0.2-0.1-0.3-0.1-0.5s0-0.3,0-0.5s0-0.4,0-0.6s0-0.3,0.1-0.5l0,0   c0.1-0.3,0.1-0.5,0.2-0.7c0.1-0.1,0.1-0.1,0.1-0.1v-0.1c0-0.1,0-0.1,0-0.2c0-0.1,0-0.1,0.1-0.1l0,0v-0.1c0-0.1,0-0.1,0.1-0.2l0,0   l0,0c0.1-0.7,0.2-1.1,0.2-1.4v-0.1c0-0.2,0.1-0.5,0.1-0.7h-0.1c0.1-0.7,0.1-1.5,0.2-2.3c0-0.3,0.1-0.6,0.1-1V240   c0.2,0,0.5,0.1,0.7,0.1c1.3,0.1,3,0.3,4.8,0.3c2.4,0,5-0.3,7.4-1.1c0,0,0,0,0.1,0c0.8-0.3,1.7-0.6,2.5-1.1l0,0   c0.1-0.1,0.2-0.1,0.3-0.2l0,0l0,0c0.4-0.3,0.9-0.5,1.2-0.8l0,0C536.1,238.9,536.6,241.3,537.4,244.1z"/>
        <path class="stroom20" d="M518.6,244.5c0,0.3,0,0.5-0.1,0.7v0.1c0,0.3-0.1,0.7-0.2,1.4l0,0l0,0c0,0.1,0,0.1-0.1,0.2v0.1l0,0   c0,0.1,0,0.1-0.1,0.1c0,0.1,0,0.1,0,0.2v0.1c0,0.1,0,0.1-0.1,0.1c-0.1,0.3-0.1,0.5-0.2,0.7c0.1-0.3,0.1-0.5,0.1-0.7   c0-0.1,0-0.1,0.1-0.1c0,0,0,0,0-0.1v-0.1c0-0.1,0.1-0.2,0.1-0.3l0,0c0.1-0.2,0.1-0.4,0.1-0.6c0-0.1,0-0.1,0-0.1v-0.1   c0-0.2,0.1-0.3,0.1-0.5c0-0.1,0-0.1,0-0.1v-0.1c0-0.1,0-0.3,0-0.4c0-0.3,0-0.5,0-0.7C518.5,244.6,518.5,244.6,518.6,244.5   C518.5,244.5,518.6,244.5,518.6,244.5z"/>
        <path class="stroom20" d="M533.3,253.7c-0.6,0.2-1.3,0.3-1.9,0.5h-0.1c-2.5,0.5-4.8,0.7-7,0.5c-0.9-0.1-1.8-0.2-2.6-0.3   c-1.8-0.3-2.8-1.4-3.3-2.5c-0.1-0.1-0.1-0.2-0.1-0.3c-0.1-0.3-0.2-0.7-0.3-1.2c0.1,0.4,0.1,0.7,0.3,1.2c0,0.1,0.1,0.1,0.1,0.2   c0.5,1.1,1.5,2.1,3.3,2.5c0.8,0.1,1.7,0.3,2.6,0.3c2.2,0.1,4.6,0,7-0.5h0.1C532,254.1,532.6,253.9,533.3,253.7z"/>
        <path class="stroom20" d="M535.8,237.2L535.8,237.2c-0.4,0.3-0.8,0.6-1.2,0.9C535,237.8,535.4,237.5,535.8,237.2z"/>
        <path class="stroom20" d="M537.4,244.1c-0.4,0.4-0.9,1-1.4,2c-0.9,1.8-1.8,4.6-2.7,7.6h-0.1l0,0c0.9-3.1,1.8-5.8,2.7-7.6   C536.5,245.2,536.9,244.5,537.4,244.1C537.4,244.1,537.4,244.1,537.4,244.1z"/>
        <path class="stroom21" d="M480.1,323.2c-1.4-0.2-2.5-0.6-3.3-1.2c-4.3-3.1-3.3-12.2-0.5-22.3l1,6.1c-1.4,1.9-0.8,10.2,1.7,10.4   L480.1,323.2z"/>
        <path class="stroom20" d="M512.4,271.6v0.3V271.6C512.4,271.6,512.4,271.6,512.4,271.6z"/>
        <path class="stroom20" d="M518.5,244.5C518.5,244.6,518.5,244.6,518.5,244.5c0,0.3,0,0.5-0.1,0.7c0,0.1,0,0.3,0,0.4v0.1c0,0,0,0.1,0,0.1   s-0.1,0.2-0.1,0.3c0,0.1,0,0.1,0,0.2v0.1c0,0.1,0,0.1,0,0.1c-0.1,0.1-0.1,0.3-0.1,0.6l0,0c0,0.1-0.1,0.2-0.1,0.3v0.1   c0,0.1,0,0.1,0,0.1c-0.1,0-0.1,0.1-0.1,0.1c0,0.1-0.1,0.3-0.1,0.7l0,0l0,0c0-0.3,0.1-0.5,0.1-0.7c-0.3,1.2-0.6,2.5-1,4   c-1.7,7-4,16.6-4.6,19.4l1.5-19.5l0.1-1l0.1-1.6c0-0.1,0.1-0.1,0.1-0.1l0,0c0.1-0.1,0.1-0.2,0.2-0.3c0.1-0.1,0.2-0.3,0.3-0.4   C515.7,246.6,517.5,245,518.5,244.5z"/>
        <path class="stroom20" d="M514.7,248.1c-0.1,0.1-0.2,0.3-0.3,0.4C514.5,248.3,514.5,248.2,514.7,248.1z"/>
        <path class="stroom20" d="M518,247.8c0,0.1-0.1,0.4-0.1,0.7l0,0c-0.3,1-0.5,2.1-0.8,3.3c-1.8,7.6-4.2,18.1-4.7,19.8l0.1-0.5l0,0   c0.6-2.7,2.9-12.3,4.6-19.4C517.3,250.2,517.7,248.9,518,247.8z"/>
        <path class="stroom20" d="M518.2,247.2c0.1-0.2,0.1-0.4,0.1-0.6c0,0.1,0,0.1,0,0.1v0.1l0,0c0,0.1-0.1,0.1-0.1,0.2v0.1l0,0   C518.2,247.1,518.2,247.2,518.2,247.2c0,0.1,0,0.1,0,0.1v0.2c0,0.1,0,0.1-0.1,0.1c-0.1,0.3-0.1,0.5-0.2,0.7   c0.1-0.3,0.1-0.5,0.1-0.7c0-0.1,0-0.1,0.1-0.1c0,0,0,0,0-0.1v-0.1C518.1,247.4,518.2,247.2,518.2,247.2L518.2,247.2z"/>
        <path class="stroom20" d="M518.6,244.5L518.6,244.5c0,0.3-0.1,0.5-0.1,0.7C518.5,244.9,518.5,244.7,518.6,244.5   C518.5,244.6,518.5,244.6,518.6,244.5C518.5,244.5,518.6,244.5,518.6,244.5z"/>
        <path class="stroom20" d="M538,229.4L538,229.4c-0.1,0.1-0.1,0.1-0.1,0.1c-0.6,0.5-0.9,1.4-0.8,2.2v0.6c0,0.3,0,0.5,0,0.7   c0,2.6-0.7,3.5-0.9,3.8l0,0l-0.1,0.1l0,0c-0.1,0.1-0.2,0.1-0.3,0.2h-0.1c-0.4,0.3-0.8,0.6-1.2,0.9l0,0l0,0   c-0.1,0.1-0.2,0.1-0.3,0.2l0,0c-0.8,0.4-1.6,0.7-2.4,1c0.1-0.2,0.2-0.3,0.3-0.5c-0.1,0.2-0.3,0.3-0.3,0.5c-2.4,0.7-5.1,1-7.4,1   c-1.8,0-3.4-0.1-4.6-0.3c-0.3,0-0.5-0.1-0.7-0.1c-1.1-0.1-1.8-0.3-1.8-0.3c-1.7-0.5-2.7-3.2-3.1-6.8c-0.7-5.7-0.1-13.6,0.8-17.9   l0,0c4.6,1.9,10.7-0.1,13.8,2.3c3.1,2.5,1,6.5,4.2,8.4c0.8,0.5,1.8,0.3,2.3-0.5c0.1-0.1,0.1-0.2,0.2-0.3c0.1-0.1,0.1-0.1,0.1-0.1   c0.8-1,2.3-1.8,3.3-0.9C539.8,224.9,539.3,228.1,538,229.4z"/>
        <path class="stroom20" d="M532.1,238.7c-0.1,0.2-0.2,0.3-0.3,0.5l0,0c0,0,0,0-0.1,0C531.8,239.1,532,238.9,532.1,238.7z"/>
        <path class="stroom20" d="M535.9,237.2L535.9,237.2c-0.5,0.4-0.9,0.7-1.3,0.9C535,237.8,535.4,237.5,535.9,237.2L535.9,237.2   L535.9,237.2z"/>
        <path class="stroom20" d="M537.4,232c0.1,3.2-0.6,4.4-1,4.7c-0.1,0.1-0.1,0.1-0.2,0.1l0,0c0.3-0.3,0.9-1.2,0.9-3.8c0-0.2,0-0.5,0-0.7   v-0.6c-0.1-0.8,0.2-1.6,0.8-2.2c0.1-0.1,0.1-0.1,0.1-0.1c-0.5,0.5-0.7,1.3-0.7,2V232z"/>
        <path class="stroom20" d="M538.2,229.2c-0.1,0.1-0.1,0.1-0.2,0.2c1.2-1.3,1.7-4.4,0.7-5.4c-1.1-1-2.6-0.1-3.3,0.9c0,0,0,0,0-0.1   c0.6-1.1,2.4-2.5,3.7-1.4C540.2,224.6,539.5,228,538.2,229.2z"/>
        <path class="stroom21" d="M564.4,405.3c-2.8,1-5.5,1.8-8.1,2.5c-4.6,1.3-8.9,2.3-13,3c-2.5,0.4-5,0.7-7.4,0.9h-10.3   c-0.2,0-0.4,0-0.6-0.1c-1.8-0.1-3.5-0.3-5.3-0.7l-3.3-24.3c0.3-1.4,0.5-2.9,0.7-4.4c0-0.1,0-0.1,0-0.2c0.1-0.4,0.1-0.8,0.1-1.2l0,0   c0.1-1.1,0.3-2.2,0.4-3.3c0.1-1,0.2-1.9,0.3-2.9c0.2-1.6,0.3-3.3,0.5-5c0.5-5.3,0.8-11,1.1-17l15-0.7V352h0.1l-0.9-5.4l-0.1-0.4   l-0.3-2l-2.3-13.8c6.4,1.3,17.2,3.1,26.9,3c1.4-0.1,2.8-0.1,4.2-0.2l0,0c0.1,3.2,0.3,6.5,0.4,9.7c0.4,11.2,0.8,22.3,1.2,31.9   c0.1,2.2,0.1,4.2,0.2,6.2C564.3,395.3,564.6,405.3,564.4,405.3z"/>
        <path class="stroom21" d="M534.5,352.1l-15,0.7v-0.1v-0.1L534.5,352.1L534.5,352.1z"/>
        <path class="stroom21" d="M562.1,333.2L562.1,333.2c-1.4,0.1-2.7,0.1-4.2,0.2c-9.7,0.1-20.5-1.7-26.9-3v-0.1c6.3,1.3,16.9,3,26.4,3h0.5   c1.4,0,2.8-0.1,4.2-0.2C562.1,333.1,562.1,333.1,562.1,333.2z"/>
        <path class="stroom20" d="M535.8,411.8c-3.5,0.3-6.9,0.3-10.3,0H535.8z"/>
        <path class="stroom20" d="M544,247.8c0,0-0.1,0.1-0.2,0.3c-0.1,0.3-0.4,0.7-0.8,1.3c-0.6,1.1-1.5,2.7-2.6,4.5c-2.3,4-5.2,9.1-7.6,13.2   c-0.5,1-1,1.8-1.5,2.7c0,0.1-0.1,0.1-0.1,0.1c-1.4,2.4-2.4,4.2-2.7,4.8c0.2-1.2,1.3-6.8,2.7-13c0-0.1,0.1-0.2,0.1-0.3   c0.6-2.6,1.3-5.2,2-7.6c0.9-3.1,1.8-5.8,2.7-7.6c0.5-1,1-1.6,1.4-2c0.3,0.1,1.4,0.3,2.6,0.7C541.4,245.5,543,246.4,544,247.8z"/>
        <path class="stroom20" d="M537.4,244.1c-0.4,0.4-0.9,1-1.4,2c-0.9,1.8-1.8,4.6-2.7,7.6c-0.7,2.5-1.4,5.1-2,7.6c0,0.1-0.1,0.2-0.1,0.3   c-1.4,6.2-2.5,11.9-2.7,13l0,0c-0.1,0.1-0.1,0.1-0.1,0.1c0.1-0.3,0.7-3.5,1.5-7.6c0.4-1.8,0.8-3.9,1.4-5.9c0-0.1,0.1-0.2,0.1-0.3   c0.6-2.5,1.2-5,1.9-7.4l0,0c0.9-3.1,1.8-5.8,2.7-7.6C536.5,245.2,536.9,244.5,537.4,244.1C537.4,244.1,537.4,244.1,537.4,244.1z"/>
        <path class="stroom21" d="M554.7,306.9c0,0.3,0,0.5-0.1,0.7c-1.1,4.2-12.7,6.3-20.1,7.3c-1.5,0.2-2.9,0.3-3.9,0.5   c-0.9,0.1-1.6,0.1-1.9,0.1h-0.1l0,0c0,0-0.1,0-0.1,0v-0.1l0,0l-2.1-13.2l-0.1-0.4l-1.5-9.2c0.3-2.2,0.5-4,0.8-5.5   c0.3-1.6,0.5-2.7,0.7-3.5c0.1-0.5,0.3-1.6,0.8-3.1c0.3-1.5,0.8-3.5,1.4-5.7c0.1-0.1,0.5-1,1.4-2.3c0.4-0.7,0.8-1.5,1.4-2.4   c0-0.1,0.1-0.1,0.1-0.1c0.5-0.9,1.1-1.8,1.6-2.9c2.4-4.2,5.3-9.3,7.6-13.2l0,0c0,0.1-0.1,0.1-0.1,0.1c0.1,0.1,0.1,0.1,0.1,0.1   c1.7,5.5,4.2,13.6,6.6,22c2.4,8.3,4.8,16.8,6.1,22.9c0.3,1.1,0.5,2.1,0.7,3.1v0.1c0,0.1,0,0.1,0,0.1   C554.5,304.4,554.7,306,554.7,306.9z"/>
        <path class="stroom21" d="M528.6,315.5L528.6,315.5l-2.1-13.2l-0.1-0.4l-1.5-9.1c0,0,0,0,0-0.1l1.5,9.2l0.1,0.4L528.6,315.5z"/>
        <path class="stroom21" d="M528.7,315.5h-0.1l0,0C528.6,315.5,528.7,315.5,528.7,315.5z"/>
        <path class="stroom21" d="M554,302.2c-0.2-1-0.4-2-0.7-3.1c-1.4-6.1-3.8-14.6-6.1-22.9s-4.9-16.5-6.6-22c0-0.1,0-0.1-0.1-0.1   c0-0.1,0.1-0.1,0.1-0.1c0,0,0,0.1,0.1,0.1c3.3,11,9.9,32.7,12.8,44.9C553.7,300.1,553.9,301.2,554,302.2z"/>
        <path class="stroom20" d="M530.8,329.2l0.2,1.1l0,0c0,0,0,0-0.1,0c-1.7-0.3-3.1-0.6-4.1-0.9c-1-0.2-1.5-0.3-1.5-0.3l0,0l0.9-3.5   c-0.1,0-0.1,0-0.1-0.1c-0.4-0.1-0.8-0.3-1.2-0.5c-0.2-0.1-0.5-0.2-0.7-0.3c-0.2-0.1-0.4-0.2-0.6-0.3c-0.1-0.1-0.3-0.2-0.5-0.3   c-0.6-0.4-1.2-0.8-1.8-1.2c-0.4-0.3-0.8-0.7-1.1-1c-0.8-0.8-1.3-1.7-1.6-2.6c-0.2-0.7-0.2-1.4-0.1-2c0.1-0.5,0.8-0.9,1.6-1.2   c0.5-0.1,1.2-0.3,1.9-0.3c2.6-0.3,5.7-0.1,6.4-0.1c0.1,0,0.1,0,0.1,0l0,0h0.1c0.1,0,0.1,0,0.2,0.1l0,0c0.4,0.1,0.8,0.5,1.2,1.2   c0.5,1.1,1,2.8,1.2,4.4c0.3,2,0.1,4-0.8,4.8l0,0c0,0-0.1,0.1-0.1,0.1l0,0L530.8,329.2z"/>
        <path class="stroom20" d="M534.5,352l-15,0.6v0.1h-0.1l-5.3,0.2l-2.7,0.1l-16.8,0.7H494l-7.9,0.3l-0.9,0.1l-1.2-7.4h-0.1v-0.1l-3.8-23.6   l-1.2-7h0.2c0.7-0.1,1.7-0.5,2.7-1.2l0,0c0.3-0.2,0.7-0.5,1.1-0.7c0.3-0.2,0.6-0.5,1-0.7c0.1-0.1,0.3-0.3,0.5-0.4   c0.1-0.1,0.3-0.3,0.5-0.4c0.4-0.4,0.8-0.8,1.2-1.3c0.1-0.2,0.3-0.3,0.5-0.5c0.1-0.2,0.3-0.4,0.4-0.5c0.1-0.1,0.1-0.2,0.2-0.3   c0.1-0.1,0.1-0.2,0.2-0.3c0.1-0.1,0.1-0.2,0.1-0.3c0.1-0.1,0.1-0.3,0.2-0.4c0.1-0.1,0.1-0.1,0.1-0.2c0.1-0.2,0.1-0.4,0.2-0.5   c0-0.1,0.1-0.1,0.1-0.2v-0.1c0.1-0.2,0.1-0.4,0.1-0.5c0-0.1,0-0.2,0.1-0.3c0-0.1,0-0.2,0-0.3c0-0.3,0-0.5,0-0.8   c0-0.1,0-0.2-0.1-0.3c0-0.1,0-0.1,0-0.1c0-0.1,0-0.1-0.1-0.3c0-0.1-0.1-0.2-0.1-0.3c0-0.1,0-0.1-0.1-0.1c0-0.1-0.1-0.2-0.1-0.3   c-1-2-10.2,0.8-10.2,0.8c-0.2,0-0.4,0.1-0.6,0.3l-1-6.1l-1.1-6.8l3.3-0.1h0.1v0.1l9.8-0.4v0.1l6.6-0.3l1.1-0.1l6.1-0.3l3.6-0.1   l2.4-0.1c0,0,0-0.1-0.1-0.1l0,0c0,0.1,0,0.1,0,0.1l11.6-0.5l4.5-0.2h0.2l0.3,2c0-0.1,0-0.2,0-0.3v0.2l0,0c0,0,0,0,0,0.1l1.5,9.1   l0.1,0.4l2.1,13.2c-0.3,0-3.7-0.3-6.6,0.1c-0.7,0.1-1.4,0.2-1.9,0.3c-0.9,0.3-1.6,0.6-1.6,1.2c-0.1,0.7-0.1,1.4,0.1,2   c0.3,1,0.8,1.8,1.6,2.6c0.3,0.3,0.7,0.7,1.1,1c0.6,0.5,1.2,0.9,1.9,1.3c0.1,0.1,0.3,0.2,0.5,0.3c0.2,0.1,0.4,0.2,0.6,0.3   c0.2,0.1,0.5,0.2,0.7,0.3c0.4,0.2,0.8,0.4,1.2,0.5l-0.9,3.5c0,0,0.1,0,0.1,0l0,0c0,0,0.5,0.1,1.5,0.3c1,0.2,2.4,0.5,4.1,0.9   l2.3,13.9l0.3,2l0.1,0.4L534.5,352z"/>
        <path class="stroom20" d="M488.4,306.9c0,0.1,0,0.2-0.1,0.3c0,0.2-0.1,0.4-0.1,0.5v0.1c0,0.1-0.1,0.1-0.1,0.2c-0.1,0.2-0.1,0.4-0.2,0.5   c0,0.1-0.1,0.1-0.1,0.2c-0.1,0.1-0.1,0.3-0.2,0.4c-0.1,0.1-0.1,0.2-0.1,0.3c-0.1,0.1-0.1,0.2-0.2,0.3c-0.1,0.1-0.1,0.3-0.2,0.3   c-0.1,0.2-0.3,0.4-0.4,0.5c-0.1,0.2-0.3,0.4-0.5,0.5c-0.3,0.5-0.8,0.9-1.2,1.3c-0.1,0.1-0.3,0.3-0.5,0.4c-0.1,0.1-0.3,0.3-0.5,0.4   c-0.3,0.3-0.6,0.5-1,0.7c-0.3,0.3-0.8,0.5-1.1,0.7l0,0c-1,0.7-2,1.1-2.7,1.2H479v-0.1h0.2c0.7-0.1,1.6-0.5,2.6-1.1   c2.7-1.6,5.9-4.6,6.6-7.7C488.3,307.1,488.4,307,488.4,306.9z"/>
        <polygon class="stroom20" points="485.2,354.2 485.2,354.2 483.9,346.8 484,346.8  "/>
        <path class="stroom20" d="M508.1,291.5l-2.4,0.1l-3.6,0.1l-6.1,0.3L495,292l-6.6,0.3v-0.1l-9.8,0.4v-0.1l9.8-0.4h0.1l6.6-0.3l1.1-0.1   l6.1-0.3l3.6-0.1l2.3-0.1C508.1,291.4,508.1,291.5,508.1,291.5z"/>
        <path class="stroom20" d="M524.8,292.4c0,0.1,0,0.2,0,0.3l-0.3-2h-0.2l-4.5,0.2l-11.6,0.5c0,0,0,0,0-0.1h0.1l11.6-0.5l4.4-0.2h0.3   L524.8,292.4z"/>
        <path class="stroom20" d="M528.6,315.5L528.6,315.5l-2.1-13.2l-0.1-0.4l-1.5-9.1c0,0,0,0,0-0.1l1.5,9.2l0.1,0.4L528.6,315.5z"/>
        <path class="stroom20" d="M526.1,325.5L526.1,325.5c-0.4-0.1-0.8-0.3-1.2-0.5C525.3,325.1,525.7,325.3,526.1,325.5z"/>
        <path class="stroom20" d="M530.9,330.3c-1.7-0.3-3.1-0.6-4.1-0.9c-1-0.2-1.5-0.3-1.5-0.3l0,0C525.9,329.2,527.9,329.7,530.9,330.3   C530.9,330.2,530.9,330.2,530.9,330.3L530.9,330.3z"/>
        <polygon class="stroom20" points="534.5,352.1 519.5,352.7 519.5,352.7 534.5,352  "/>
        <path class="stroom20" d="M488.4,306.6c0,0.1,0,0.2,0,0.3c0,0.1,0,0.2-0.1,0.3c0,0.2-0.1,0.4-0.1,0.5v0.1c0,0.1-0.1,0.1-0.1,0.2   c-0.1,0.2-0.1,0.4-0.2,0.5c0,0.1-0.1,0.1-0.1,0.2c-0.1,0.1-0.1,0.3-0.2,0.4c-0.1,0.1-0.1,0.2-0.1,0.3c-0.1,0.1-0.1,0.2-0.2,0.3   c-0.1,0.1-0.1,0.3-0.2,0.3c-0.1,0.2-0.3,0.4-0.4,0.5c-0.1,0.2-0.3,0.4-0.5,0.5c-0.3,0.5-0.8,0.9-1.2,1.3c-0.1,0.1-0.3,0.3-0.5,0.4   c-0.1,0.1-0.3,0.3-0.5,0.4c-0.3,0.3-0.6,0.5-1,0.7c-0.3,0.3-0.8,0.5-1.1,0.7l0,0c-1,0.7-2,1.1-2.7,1.2H479l0,0   c-0.6,0-1.1-0.5-1.5-1.3c-1.2-2.5-1.4-7.6-0.2-9.1c0.2-0.2,0.3-0.3,0.6-0.4c0,0,9.2-2.9,10.2-0.8c0.1,0.3,0.3,0.7,0.3,1   c0,0.1,0,0.2,0.1,0.3C488.5,306.1,488.5,306.3,488.4,306.6z"/>
        <path class="stroom20" d="M508.1,291.5l-2.4,0.1l-3.6,0.1l-6.1,0.3L495,292l-6.6,0.3v-0.1v-0.1c0-0.5,0.2-0.8,0.5-1c0,0,0,0,0.1,0   c0.7-0.3,1.6-0.3,1.6-0.3s2-0.1,4.6-0.2c1.2-0.1,2.4-0.1,3.7-0.2c1.2-0.1,2.5-0.1,3.5-0.2c1.4-0.1,2.5-0.1,3-0.2h0.8   C507.5,290.2,508,291.1,508.1,291.5C508.1,291.4,508.1,291.5,508.1,291.5z"/>
        <path class="stroom26" d="M267.3,253.8c0,0.1-1.5-0.3-3.3-0.9c-1.8-0.6-3.3-1.1-3.2-1.2c0-0.1,1.5,0.3,3.3,0.9S267.3,253.7,267.3,253.8z   "/>
        <path class="stroom26" d="M273.2,254.4c0,0.1-2.3-0.8-5.1-2c-2.8-1.2-5.1-2.2-5-2.2c0-0.1,2.3,0.8,5.1,2   C271.1,253.3,273.3,254.3,273.2,254.4z"/>
        <path class="stroom26" d="M269.4,251.3c-0.1,0.1-1-0.3-2.1-1s-2-1.2-2-1.2c0.1-0.1,1,0.3,2.1,1S269.5,251.3,269.4,251.3z"/>
        <path class="stroom26" d="M274.7,250.6c0,0.1-1.9-0.6-4.2-1.5c-2.3-1-4-1.7-4-1.8c0-0.1,1.9,0.6,4.2,1.5   C273,249.7,274.7,250.5,274.7,250.6z"/>
        <path class="stroom26" d="M271.2,245.7c0,0.1-0.8-0.1-1.8-0.3s-1.8-0.5-1.8-0.6s0.8,0.1,1.8,0.3C270.4,245.3,271.2,245.6,271.2,245.7z"/>
        <path class="stroom26" d="M279.5,245.7c0,0.1-2.3-0.6-5-1.5c-2.7-0.9-4.9-1.7-4.8-1.8c0-0.1,2.3,0.6,5,1.5   C277.4,244.9,279.6,245.6,279.5,245.7z"/>
        <path class="stroom26" d="M274.7,241.9c0,0.1-0.9-0.1-2-0.3c-1.1-0.2-1.9-0.5-1.9-0.6c0-0.1,0.9,0.1,2,0.3S274.8,241.7,274.7,241.9z"/>
        <path class="stroom26" d="M279.5,240.4c0,0.1-1.8,0-3.9-0.1c-2.1-0.1-3.9-0.3-3.9-0.4s1.8,0,3.9,0.1   C277.8,240.2,279.5,240.4,279.5,240.4z"/>
        <path class="stroom26" d="M237,218.8c0.1,0-0.1,0.3-0.3,0.8c-0.1,0.5-0.3,1.2-0.1,2c0.1,0.7,0.4,1.4,0.7,1.9c0.3,0.4,0.5,0.7,0.5,0.7   c0,0-0.3-0.1-0.7-0.6c-0.3-0.4-0.7-1.2-0.8-2c-0.1-0.8,0-1.6,0.2-2.1C236.8,219,237,218.8,237,218.8z"/>
        <path class="stroom26" d="M244.9,211.6c-0.1,0,0.1-0.4,0.1-1c0.1-0.6,0-1.5-0.3-2.5c-0.3-0.9-0.8-1.6-1.2-2.1s-0.8-0.7-0.8-0.7   c0,0,0.4,0.1,0.9,0.5c0.5,0.4,1.1,1.2,1.4,2.2c0.3,1,0.3,1.9,0.2,2.6C245.2,211.3,245,211.6,244.9,211.6z"/>
        <path class="stroom26" d="M246.2,210c-0.1,0,0.1-0.4,0.1-1.1c0-0.6-0.1-1.6-0.5-2.5c-0.5-0.9-1.1-1.5-1.6-1.8c-0.5-0.3-1-0.5-0.9-0.5   c0,0,0.4,0,1,0.3c0.6,0.3,1.3,1,1.8,1.9c0.5,1,0.5,1.9,0.5,2.6C246.5,209.7,246.3,210.1,246.2,210z"/>
        <path class="stroom26" d="M243.4,235c0,0-0.4,0.3-1.3,0.5c-0.8,0.1-2.1,0-3.2-0.8c-1.1-0.8-1.6-2-1.7-2.8c-0.1-0.9,0-1.4,0.1-1.4   c0.1,0,0,0.5,0.2,1.3c0.2,0.8,0.7,1.8,1.7,2.6c1,0.7,2.2,0.9,3,0.8C242.9,235.1,243.4,234.9,243.4,235z"/>
        <path class="stroom26" d="M239.8,237c0,0-0.1,0-0.3-0.1s-0.5-0.1-0.9-0.3c-0.8-0.3-1.6-1.1-2.3-2.2c-0.6-1.1-0.8-2.2-0.8-3.1   c0-0.4,0.1-0.7,0.1-1c0.1-0.2,0.1-0.3,0.1-0.3c0.1,0-0.1,0.5-0.1,1.3c0,0.8,0.2,1.9,0.8,2.9c0.6,1,1.4,1.8,2.1,2.2   C239.4,236.9,239.8,237,239.8,237z"/>
        <path class="stroom26" d="M314.6,245.5c0,0.1-1.4-0.1-3.8,0.1c-0.6,0.1-1.2,0.1-1.9,0.3c-0.7,0.1-1.4,0.3-2.1,0.5   c-1.5,0.5-3.1,1.1-4.6,1.9c-1.6,0.9-2.9,1.8-4.1,2.9c-0.5,0.5-1.1,1-1.6,1.5c-0.5,0.5-0.9,1-1.2,1.4c-1.4,1.8-2,3.2-2.1,3.1   c0,0,0.1-0.3,0.5-1c0.1-0.3,0.3-0.7,0.6-1c0.3-0.4,0.5-0.9,0.9-1.3c0.3-0.5,0.8-1,1.2-1.5c0.5-0.5,1-1,1.6-1.6c1.2-1,2.6-2,4.2-2.9   c1.6-0.9,3.2-1.5,4.7-1.9c0.8-0.2,1.5-0.4,2.2-0.5c0.7-0.1,1.3-0.2,1.9-0.2c0.6-0.1,1.1-0.1,1.6-0.1s0.9,0,1.2,0.1   C314.3,245.4,314.6,245.5,314.6,245.5z"/>
        <g>
            <g>
                <g>
                    <g>
                        <path class="stroom26" d="M173,362.5c0,0.1-1.5-0.3-3.3-0.9c-1.8-0.6-3.3-1.1-3.2-1.2c0-0.1,1.5,0.3,3.3,0.9       C171.6,361.9,173,362.5,173,362.5z"/>
                    </g>
                </g>
            </g>
            <g>
                <g>
                    <g>
                        <path class="stroom26" d="M178.9,363.2c0,0.1-2.3-0.8-5.1-2c-2.8-1.2-5.1-2.2-5-2.2c0-0.1,2.3,0.8,5.1,2       C176.7,362.1,179,363.1,178.9,363.2z"/>
                    </g>
                </g>
            </g>
            <g>
                <g>
                    <g>
                        <path class="stroom26" d="M175.1,360.1c-0.1,0.1-1-0.3-2.1-1s-2-1.2-2-1.2c0.1-0.1,1,0.3,2.1,1S175.2,360,175.1,360.1z"/>
                    </g>
                </g>
            </g>
            <g>
                <g>
                    <g>
                        <path class="stroom26" d="M180.4,359.3c0,0.1-1.9-0.6-4.2-1.5c-2.3-1-4-1.7-4-1.8c0-0.1,1.9,0.6,4.2,1.5       C178.6,358.5,180.5,359.3,180.4,359.3z"/>
                    </g>
                </g>
            </g>
            <g>
                <g>
                    <g>
                        <path class="stroom26" d="M176.9,354.5c0,0.1-0.8-0.1-1.8-0.3c-1-0.2-1.8-0.5-1.8-0.6c0-0.1,0.8,0.1,1.8,0.3       C176.1,354.1,176.9,354.4,176.9,354.5z"/>
                    </g>
                </g>
            </g>
            <g>
                <g>
                    <g>
                        <path class="stroom26" d="M185.3,354.5c0,0.1-2.3-0.6-5-1.5s-4.9-1.7-4.8-1.8c0-0.1,2.3,0.6,5,1.5       C183.1,353.6,185.3,354.4,185.3,354.5z"/>
                    </g>
                </g>
            </g>
            <g>
                <g>
                    <g>
                        <path class="stroom26" d="M180.4,350.6c0,0.1-0.9-0.1-2-0.3s-1.9-0.5-1.9-0.6c0-0.1,0.9,0.1,2,0.3       C179.6,350.2,180.5,350.5,180.4,350.6z"/>
                    </g>
                </g>
            </g>
            <g>
                <g>
                    <g>
                        <path class="stroom26" d="M185.2,349.2c0,0.1-1.8,0-3.9-0.1c-2.1-0.1-3.9-0.3-3.9-0.4c0-0.1,1.8,0,3.9,0.1       C183.5,348.9,185.3,349.1,185.2,349.2z"/>
                    </g>
                </g>
            </g>
        </g>
        <g>
            <g>
                <g>
                    <g>
                        <path class="stroom26" d="M141.6,328.6c0.1,0-0.1,0.3-0.3,0.8c-0.1,0.5-0.2,1.2-0.1,2c0.1,0.7,0.5,1.4,0.8,1.8       c0.3,0.4,0.5,0.7,0.5,0.7c0,0-0.3-0.1-0.7-0.5c-0.3-0.4-0.8-1.1-0.9-1.9c-0.1-0.8,0-1.6,0.2-2.1       C141.3,328.8,141.6,328.5,141.6,328.6z"/>
                    </g>
                </g>
            </g>
            <g>
                <g>
                    <g>
                        <path class="stroom26" d="M149.2,321.2c-0.1,0,0.1-0.4,0.1-1c0.1-0.6,0-1.5-0.3-2.4c-0.3-0.9-0.9-1.6-1.3-2       c-0.5-0.5-0.8-0.7-0.8-0.7c0,0,0.4,0.1,0.9,0.5c0.5,0.4,1.1,1.2,1.4,2.1c0.3,1,0.4,1.9,0.3,2.5       C149.5,320.8,149.3,321.2,149.2,321.2z"/>
                    </g>
                </g>
            </g>
            <g>
                <g>
                    <g>
                        <path class="stroom26" d="M150.5,319.6c-0.1,0,0.1-0.4,0.1-1.1c0-0.6-0.1-1.6-0.6-2.4c-0.5-0.9-1.2-1.5-1.7-1.8       c-0.5-0.3-1-0.5-1-0.5s0.4,0,1,0.3c0.6,0.3,1.4,1,1.8,1.8c0.5,1,0.6,1.9,0.5,2.6C150.7,319.3,150.5,319.6,150.5,319.6z"/>
                    </g>
                </g>
            </g>
            <g>
                <g>
                    <g>
                        <path class="stroom26" d="M148.4,344.6c0,0-0.4,0.3-1.3,0.5c-0.8,0.1-2.1,0.1-3.2-0.7c-1.1-0.7-1.6-1.9-1.8-2.8       c-0.1-0.8,0-1.4,0-1.4c0.1,0,0,0.5,0.2,1.3c0.2,0.7,0.8,1.8,1.8,2.6c1,0.7,2.2,0.8,3,0.7C147.9,344.8,148.4,344.6,148.4,344.6z       "/>
                    </g>
                </g>
            </g>
            <g>
                <g>
                    <g>
                        <path class="stroom26" d="M144.9,346.8c0,0-0.1,0-0.3-0.1c-0.2-0.1-0.5-0.1-1-0.3c-0.8-0.3-1.7-1.1-2.4-2.1       c-0.7-1.1-0.9-2.2-0.9-3.1c0-0.4,0.1-0.7,0.1-1c0.1-0.2,0.1-0.3,0.1-0.3c0.1,0-0.1,0.5,0,1.3c0,0.8,0.3,1.9,1,2.9       c0.6,1,1.5,1.8,2.2,2.1C144.4,346.6,144.9,346.7,144.9,346.8z"/>
                    </g>
                </g>
            </g>
        </g>
        <polygon class="stroom27" points="434.7,145.4 436.1,153.3 439.2,140.3 436.4,137.2  "/>
        <path class="stroom24" d="M535.6,215.7c-0.1,0-0.6-1.7-2.1-3.2c-1.5-1.6-3.3-2-3.3-2c0-0.1,0.4,0,1.1,0.3c0.7,0.2,1.6,0.7,2.4,1.6   s1.3,1.6,1.6,2.3C535.5,215.3,535.6,215.7,535.6,215.7z"/>
        <path class="stroom24" d="M546.6,224.1c-0.1,0-0.2-0.6-0.7-1.4c-0.5-0.8-1.4-1.9-2.7-2.5c-1.3-0.6-2.7-0.7-3.6-0.5   c-1,0.1-1.5,0.4-1.5,0.3c0,0,0.5-0.3,1.5-0.6c1-0.2,2.5-0.2,3.9,0.5c1.4,0.7,2.3,1.8,2.7,2.8C546.7,223.5,546.7,224.1,546.6,224.1z   "/>
        <path class="stroom24" d="M546.2,219.2c-0.1,0-0.1-0.3-0.5-0.9c-0.3-0.5-0.9-1.2-1.7-1.6c-0.8-0.4-1.6-0.5-2.3-0.5c-0.6,0-1,0.2-1,0.1   c0,0,0.3-0.3,0.9-0.4c0.7-0.1,1.6-0.1,2.5,0.4c0.9,0.5,1.5,1.2,1.8,1.8C546.2,218.8,546.2,219.2,546.2,219.2z"/>
        <path class="stroom24" d="M522.7,209.9c0,0-0.4-0.3-0.8-0.9c-0.4-0.6-0.7-1.6-0.5-2.8c0.1-1.1,0.6-2.1,1-2.7c0.5-0.6,1-0.7,1-0.7   c0,0.1-0.3,0.3-0.7,1c-0.4,0.6-0.8,1.4-0.9,2.5c-0.1,1,0.1,2,0.5,2.7C522.5,209.4,522.8,209.8,522.7,209.9z"/>
        <path class="stroom24" d="M527,212.1c0,0-0.4,0.1-1.1-0.2c-0.6-0.2-1.5-1-1.8-2c-0.3-1.1,0-2.1,0.4-2.7c0.4-0.6,0.8-0.8,0.8-0.7   c0,0.1-0.3,0.3-0.5,0.9c-0.3,0.5-0.5,1.5-0.3,2.4c0.3,1,1,1.6,1.6,1.9C526.6,212.1,527,212.1,527,212.1z"/>
        <path class="stroom24" d="M536,220.1c0,0-0.1,0.3-0.5,0.5c-0.4,0.2-1.2,0.2-1.8-0.3c-0.6-0.5-0.8-1.2-0.7-1.7c0.1-0.5,0.3-0.7,0.3-0.7   c0.1,0-0.1,0.3-0.1,0.7c0,0.4,0.1,1,0.5,1.4c0.5,0.4,1,0.4,1.5,0.3C535.8,220.1,535.9,220,536,220.1z"/>
        <path class="stroom24" d="M528.5,200.1c-0.1,0-0.5-0.4-1.2-0.9c-0.8-0.5-2-1-3.3-1c-1.4,0.1-2.6,0.5-3.3,1.1c-0.8,0.5-1.2,1-1.2,0.9   c0,0,0.2-0.5,1-1.2c0.8-0.6,2-1.2,3.6-1.3c1.6,0,2.7,0.5,3.6,1.1C528.2,199.6,528.5,200.1,528.5,200.1z"/>
        <path class="stroom24" d="M530.8,198.6c-0.1,0.1-1.4-1.3-3.5-2c-2.2-0.7-4-0.3-4-0.4c0-0.1,0.4-0.2,1.2-0.3c0.8-0.1,1.8,0,2.9,0.3   c1.2,0.3,2,1,2.5,1.4C530.5,198.2,530.8,198.6,530.8,198.6z"/>
        <path class="stroom24" d="M516.7,211.5c0,0-0.4,0.3-1.3,0.1c-0.8-0.1-1.9-0.6-2.5-1.8c-0.5-1.2-0.2-2.4,0.2-3c0.5-0.7,0.9-0.9,0.9-0.8   c0,0.1-0.3,0.3-0.8,1c-0.3,0.6-0.6,1.7-0.1,2.7c0.5,1,1.4,1.6,2.1,1.7C516.2,211.5,516.7,211.4,516.7,211.5z"/>
        <path class="stroom24" d="M518.1,207.7c-0.1,0,0.1-1.4-0.8-2.9s-2.3-2-2.3-2.1c0,0,0.3,0,1,0.3c0.5,0.3,1.2,0.8,1.7,1.6   c0.5,0.7,0.7,1.6,0.7,2.2C518.2,207.3,518.2,207.7,518.1,207.7z"/>
        <path class="stroom24" d="M511.1,213.3c-0.5-0.3-1.2-0.9-1.6-1.7c-0.5-0.9-0.5-1.6-0.6-2.2c0-0.7,0.2-1,0.2-1c0.1,0-0.1,1.4,0.8,3   c0.8,1.5,2.2,2.1,2.2,2.2C512,213.6,511.7,213.4,511.1,213.3z"/>
        <path class="stroom24" d="M550.8,212.8c-0.1,0-0.2-2-1.3-4c-1.1-2-2.7-3.2-2.6-3.3c0.1-0.1,1.8,1,2.9,3.1   C551.1,210.8,550.8,212.8,550.8,212.8z"/>
        <path class="stroom24" d="M552.7,214.7c-0.1,0,0.1-0.7,0.3-2s0.1-2.9-0.3-4.8c-0.5-1.8-1.1-3.3-1.8-4.4c-0.6-1.1-1.1-1.6-1-1.8   c0,0,0.2,0.1,0.3,0.4c0.3,0.3,0.5,0.7,0.9,1.2c0.6,1.1,1.4,2.7,1.8,4.5s0.4,3.6,0.2,4.8c-0.1,0.6-0.2,1.1-0.3,1.4   C552.7,214.5,552.7,214.7,552.7,214.7z"/>
        <path class="stroom24" d="M548.9,203.7c0,0-0.6,0.2-1.5,0.1c-1-0.1-2.3-0.4-3.6-1.2c-1.2-0.8-2.3-1.8-2.7-2.7c-0.5-0.8-0.7-1.4-0.5-1.4   c0.1,0,0.3,0.5,0.8,1.3c0.5,0.7,1.4,1.7,2.7,2.5c1.2,0.7,2.5,1.2,3.4,1.3C548.3,203.6,548.9,203.6,548.9,203.7z"/>
        <path class="stroom24" d="M549,224.4c-0.1,0,0.1-0.7,0.3-1.7c0.1-1,0.1-2.6-0.5-4.1c-0.5-1.5-1.3-2.7-2.1-3.5c-0.8-0.8-1.2-1.2-1.2-1.2   c0,0,0.6,0.2,1.4,1c0.8,0.7,1.7,2,2.2,3.5c0.5,1.6,0.5,3.1,0.3,4.2C549.3,223.8,549,224.4,549,224.4z"/>
        <path class="stroom24" d="M552,221.8c-0.1,0,0.1-2-0.7-4.2c-0.8-2.2-2.3-3.5-2.2-3.5c0-0.1,1.7,1.2,2.5,3.5   C552.5,219.8,552.1,221.9,552,221.8z"/>
        <path class="stroom24" d="M537.6,197.6c0,0,0.3,0.3,0.3,1s-0.1,1.6-0.7,2.4c-0.5,0.9-1.3,1.4-2,1.6c-0.6,0.2-1,0.1-1,0.1   c0-0.1,0.4-0.1,0.9-0.4c0.6-0.3,1.2-0.8,1.7-1.5c0.5-0.8,0.7-1.6,0.7-2.2C537.7,198,537.6,197.6,537.6,197.6z"/>
        <path class="stroom24" d="M534.4,196.5c0,0,0.3,0.3,0.3,1s-0.1,1.6-0.7,2.4c-0.5,0.9-1.3,1.4-2,1.6c-0.6,0.2-1,0.1-1,0.1   c0-0.1,0.4-0.1,0.9-0.4c0.6-0.3,1.2-0.8,1.7-1.5c0.5-0.8,0.7-1.6,0.7-2.2C534.5,197,534.4,196.5,534.4,196.5z"/>
        <path class="stroom24" d="M531.6,207c0,0-0.4,0.1-1,0.1c-0.7-0.1-1.5-0.6-2.2-1.4c-0.6-0.8-1-1.8-1-2.3c0-0.7,0.2-1,0.2-1   c0.1,0,0,0.4,0.1,1c0.1,0.6,0.4,1.4,1,2.2c0.6,0.7,1.4,1.2,1.9,1.4C531.1,207,531.6,207,531.6,207z"/>
        <path class="stroom24" d="M544.9,211.9c0,0-0.3,0.5-1.1,1c-0.8,0.5-2,1-3.4,0.7c-1.4-0.3-2.5-1.1-3-1.7c-0.5-0.7-0.8-1.2-0.7-1.2   s0.3,0.5,0.9,1.1c0.5,0.7,1.6,1.3,2.9,1.6c1.3,0.2,2.5-0.1,3.2-0.5C544.5,212.2,544.8,211.8,544.9,211.9z"/>
        <path class="stroom24" d="M543.6,209.8c0,0-0.1,0.3-0.7,0.3c-0.4,0.1-1.1,0.1-1.7-0.2s-1.1-0.8-1.2-1.3c-0.2-0.4-0.1-0.7-0.1-0.7   c0.1,0,0.1,0.3,0.3,0.6c0.2,0.3,0.6,0.7,1.2,1c0.5,0.3,1.2,0.3,1.6,0.3C543.3,209.9,543.6,209.8,543.6,209.8z"/>
        <path class="stroom24" d="M546.4,210c-0.1,0.1-0.7-1.8-2.5-3.4c-1.8-1.6-3.7-2-3.7-2c0,0,0.5,0,1.3,0.2c0.8,0.2,1.8,0.7,2.7,1.6   c0.9,0.8,1.5,1.7,1.8,2.5C546.4,209.4,546.4,210,546.4,210z"/>
        <path class="stroom24" d="M539.1,203.9c0,0.1-1.5,0.3-2.9,1.5c-1.4,1.2-1.8,2.7-1.9,2.7c-0.1,0,0-0.4,0.2-1c0.2-0.6,0.7-1.3,1.4-2   c0.8-0.6,1.6-1,2.2-1.1C538.6,203.8,539.1,203.8,539.1,203.9z"/>
        <path class="stroom24" d="M544.1,226c0,0,0.3,0.1,0.5,0.7c0.2,0.4,0.3,1.3,0,2c-0.3,0.7-1,1.2-1.5,1.3c-0.5,0.1-0.8,0.1-0.8,0.1   c0-0.1,0.3-0.1,0.8-0.3s0.9-0.5,1.2-1.2c0.3-0.6,0.2-1.3,0.1-1.7C544.3,226.3,544.1,226,544.1,226z"/>
        <path class="stroom24" d="M546.4,227.1c0.1,0,0.2,0.3,0.1,1c-0.1,0.6-0.2,1.4-0.7,2.3c-0.5,0.9-1.2,1.4-1.7,1.8   c-0.5,0.3-0.9,0.4-0.9,0.4c-0.1-0.1,1.4-0.7,2.3-2.3C546.5,228.6,546.3,227.1,546.4,227.1z"/>
    </g>
    </svg>