<svg xmlns="http://www.w3.org/2000/svg" xmlns:xlink="http://www.w3.org/1999/xlink" version="1.1" id="Layer_1" x="0px" y="0px" viewBox="0 0 630 630" style="enable-background:new 0 0 630 630;" xml:space="preserve">
	<style type="text/css">
		.st0{fill:none;stroke:#FFFFFF;stroke-width:2;stroke-miterlimit:10;}
		.st1{fill:#BEE8FF;stroke:#FFFFFF;stroke-width:2;stroke-miterlimit:10;}
		.st2{fill:none;stroke:#FFFFFF;stroke-miterlimit:10;}
		.st3{fill:none;stroke:#FFFFFF;stroke-width:2;stroke-linecap:round;stroke-linejoin:round;stroke-miterlimit:10;}
		.st4{fill:#FFFFFF;}
		.st5{fill:#FFFFFF;stroke:#FFFFFF;stroke-width:0.75;stroke-miterlimit:10;}
	</style>
	<g>
		<g>
			<polygon class="st0" points="268.3,196 244,196 244,160.4   "/>
			<path class="st0" d="M299.7,146.5c-0.1,0-0.1,0.1-0.2,0.1c-0.1,0-0.1,0-0.2,0.1c-0.1,0-0.3,0.1-0.3,0.1c-0.1,0-0.1,0-0.2,0.1    c-0.1,0-0.1,0-0.2,0.1c-0.1,0-0.3,0.1-0.3,0.1c-0.1,0-0.1,0-0.3,0.1c-0.5,0.1-0.8,0.1-1,0.2c-0.1,0-0.1,0-0.1,0c0,0,0,0-0.1,0    s-0.1,0-0.1,0s-0.1,0-0.1,0c-0.1,0-0.1,0-0.1,0s0,0.1-0.1,0.3c0.1,0,0.3,0,0.5,0c0.1,0,0.1,0,0.1,0c0.3,0,0.6-0.1,0.8-0.1    c0.1,0,0.3-0.1,0.4-0.1c0.1,0,0.3-0.1,0.5-0.1c0.1-0.1,0.3-0.1,0.4-0.1c0.3-0.1,0.7-0.3,1-0.5c0.2-0.1,0.3-0.1,0.5-0.3    C300.2,146.4,299.9,146.5,299.7,146.5z M305.4,190.6c-0.4-0.2-0.8-0.4-1.2-0.6c-1.1-0.6-2-1.3-2.6-2.1c-0.2-0.3-0.4-0.5-0.6-0.8    c-0.5-0.8-0.8-1.6-1.2-2.5c-0.8-1.5-1.3-3.1-1.4-4.9l0,0c-0.1-0.4-0.1-0.8-0.1-1.3c0-1,0.1-2,0.3-2.9c0.1-0.3,0.1-0.5,0.1-0.8    c0.1-0.3,0.1-0.5,0.1-0.8c0.1-0.3,0.1-0.5,0.2-0.8s0.1-0.5,0.2-0.8c0.2-0.8,0.5-1.6,0.8-2.4c0.5-1.2,1-2.4,1.5-3.6    c0.3-0.6,0.6-1.3,0.9-2l1.6-2.9c0.5-0.7,0.9-1.5,1.4-2.2l0,0c-0.6-1.5-1.7-3.6-3.3-5.8c-1.6-2.1-3.7-4.1-6.4-5.4l0,0    c0,0,0,0-0.1,0c-0.4,0.2-1,0.5-1.8,0.6c-2.5,0.4-20.2,4.3-24.9-11.6c-0.2-0.8-0.4-1.5-0.5-2.2c0-0.1,0-0.3,0-0.3    c0-0.1,0-0.2,0-0.3c0-0.3,0-0.8,0-1.1c0-0.1,0-0.3,0.1-0.5l0,0l0,0v-0.1c0-0.1,0-0.1,0-0.3c0-0.1,0-0.1,0.1-0.3    c0-0.2,0.1-0.4,0.1-0.6l0,0c0.1-0.2,0.1-0.4,0.1-0.7c0.1-0.2,0.1-0.4,0.2-0.6s0.1-0.3,0.2-0.6c0.1-0.2,0.1-0.3,0.2-0.6    s0.1-0.3,0.3-0.6c0.1-0.1,0.1-0.3,0.2-0.5c0.1-0.1,0.1-0.3,0.3-0.5c0.8-1.7,1.9-3.4,3.2-5c0.2-0.2,0.3-0.4,0.5-0.6    c0.7-0.8,1.4-1.6,2.2-2.4c0.1-0.1,0.3-0.3,0.4-0.4c0.1-0.1,0.1-0.1,0.1-0.1l-43.4-1l-0.1,0.1l-0.6,0.7l0.6-0.6l53.4,77.9h23v-3.8    C307.9,191.8,306.6,191.2,305.4,190.6z M281.9,316.6L281.9,316.6c-1,0-2,0-3,0.1l0,0l0,0C279.9,316.6,280.9,316.6,281.9,316.6z     M282.1,212.7v23.6c1.8,0.2,3.7,0.5,5.5,0.8v-24.4H282.1z"/>
			<path class="st0" d="M291,316.2L291,316.2C290.9,316.2,290.9,316.2,291,316.2L291,316.2z"/>
			<path class="st0" d="M309.4,212.7v27.8c-7.5-1.3-14.9-2.4-21.8-3.4v-24.4H309.4z"/>
			<path class="st0" d="M300.5,146.3c-1.3,0.8-2.7,1.2-4.2,1.3c0.1-0.2,0.1-0.3,0.1-0.3S298.2,147,300.5,146.3z"/>
			<path class="st0" d="M322.4,195.2L322.4,195.2c0,0.3,0,0.6-0.1,0.8h-36L233,118.2l-0.6,0.6l0.7-0.8l43.4,1    c-5.2,5.1-9.6,11.7-7.6,18.4c4.8,15.9,22.3,12,24.9,11.6c0.8-0.1,1.4-0.3,1.8-0.6l0,0c5.4,2.4,8.4,8.2,9.7,11.2l0,0    c-1.4,2.2-2.7,4.6-3.9,7c-0.6,1.2-1.1,2.4-1.5,3.6c-0.3,0.8-0.6,1.6-0.8,2.4c-1.2,4.4-1.3,8.6,0.6,12.1l0,0    c0.3,0.9,0.6,1.7,1.2,2.5c0.1,0.3,0.4,0.5,0.6,0.8c0.6,0.8,1.5,1.5,2.6,2.1c0.4,0.2,0.8,0.4,1.2,0.6c1.2,0.6,2.6,1.1,4,1.6    c3.6,1.2,7.8,2.1,11.7,2.7C321.5,195,322,195.1,322.4,195.2z"/>
			<path class="st0" d="M331.7,140c-9,1-14.7,4.9-16,5.8c-1.6-1.5-3.8-3.6-5.7-5.4c-0.2,0.3-0.4,0.6-0.6,0.8v-5.5    c0.6-1.3,1-2.2,1-2.2c1.2-3.6-7.3-10.4-13.6-14.2l22.3,0.5L331.7,140z"/>
			<path class="st0" d="M322.2,201.5c-0.1,4.1-0.2,7.9-0.1,11.1h-90.8c-2.1,0-4.1-0.9-5.4-2.4c-1.4-1.5-2.3-3.6-2.3-5.9    c0-4.6,3.4-8.3,7.7-8.3h37.1L244,160.5l-7.8-11.3l-9.5-13.8c-3-4.3-2.1-10.3,1.9-13.6l3.8-3.1l0,0l0.6-0.6l53.4,77.9h36    C322.3,197.9,322.2,199.8,322.2,201.5z"/>
			<path class="st0" d="M559.9,212.7h-3.5v-3.8C556.3,211,557.9,212.7,559.9,212.7z"/>
			<path class="st0" d="M566.6,212.7h-1v-0.1C565.9,212.6,566.2,212.7,566.6,212.7z"/>
			<path class="st0" d="M287.6,212.7v24.4c-1.9-0.3-3.7-0.5-5.5-0.8v-23.6H287.6z"/>
			<path class="st0" d="M566.6,212.7h-1v-0.1C565.9,212.6,566.2,212.7,566.6,212.7z"/>
			<path class="st0" d="M472.9,287.1c-0.1,0.7-0.2,1.5-0.3,2.3v-0.2c0,0.1-0.1,0.3-0.1,0.5l-0.3-2l-3.3,0.1l-1.2,0.1l-10.9,0.6l0,0    l-2.1,0.1h-0.2l-3.3,0.1l-5.7,0.3l-1,0.1l-6.2,0.3v-0.1l-9.2,0.4v-0.1l9.1-0.4c0-0.7,0.4-1,0.9-1.2l0,0c0.6-0.3,1.4-0.3,1.4-0.3    s0.5,0,1.3-0.1c0.8,0,1.9-0.1,3.1-0.1c1.8-0.1,3.9-0.2,5.7-0.3H472.9L472.9,287.1z"/>
			<path class="st0" d="M473.2,293.4L473.2,293.4l-0.6-3.8c0-0.1,0-0.2,0.1-0.3v0.1L473.2,293.4z"/>
			<path class="st0" d="M498.8,293.4L498.8,293.4c-0.5-2-1-4.1-1.5-6.4h0.1C497.8,289.3,498.4,291.5,498.8,293.4z"/>
			<path class="st0" d="M607.3,287.1v6.4h-84.2c-0.4-2.1-0.9-4.3-1.4-6.4L607.3,287.1L607.3,287.1z"/>
			<path class="st0" d="M281.9,316.6c-1,0-2,0.1-3,0.1l0,0l0,0l0,0C279.9,316.6,280.9,316.6,281.9,316.6L281.9,316.6z"/>
			<path class="st0" d="M290.9,316.2L290.9,316.2c-0.3,0-0.6,0.1-0.9,0.1C290.3,316.2,290.6,316.2,290.9,316.2z"/>
			<path class="st0" d="M309.4,158.6c-1.4,1.3-2.6,2.4-3.3,2.7c0,0-0.3-0.7-0.7-1.8c-1.3-2.9-4.3-8.7-9.7-11.2    c0.4-0.2,0.6-0.5,0.6-0.7c1.5,0,2.9-0.5,4.2-1.3c2.9-0.8,6.7-2.4,8.9-5.1c0.2-0.3,0.4-0.6,0.6-0.8c1.9,1.8,4.1,3.9,5.7,5.4    c1,0.9,1.7,1.6,2.1,1.8C318.7,148.4,313.3,154.8,309.4,158.6z"/>
			<path class="st0" d="M350,142.1c-2.1,1.5-6.4,5-11,9.6l0,0c-5,5.2-10.3,12-12.8,19.3c-0.4,1.1-0.7,2.4-1,3.7    c0,0.1-0.1,0.2-0.1,0.3c0,0.1-0.1,0.2-0.1,0.3c-1,4.3-1.7,9.4-2.2,14.7c-0.1,1.7-0.3,3.5-0.4,5.2c-4.3-0.6-9-1.6-13-2.9    c-3.9-1.3-7.1-3-8.4-5.1c-0.5-0.8-0.8-1.6-1.2-2.5l0,0c-3.9-6.9,0.5-17.1,5.5-25.2c0.5,1.1,0.7,1.8,0.7,1.8    c0.6-0.3,1.9-1.3,3.3-2.6c3.9-3.8,9.3-10.3,8.4-11c-0.3-0.2-1-0.9-2.1-1.8c1.3-0.9,7-4.8,16-5.8c4.3-0.5,9.4-0.3,15.1,1.3    C347.5,141.4,348.6,141.7,350,142.1z"/>
			<polygon class="st0" points="244,160.4 244,196 236.2,196 236.2,149.1   "/>
			<path class="st0" d="M300.5,146.3c-1.3,0.8-2.7,1.2-4.2,1.3c0.1-0.2,0.1-0.3,0.1-0.3S298.2,147,300.5,146.3z"/>
			<path class="st0" d="M310,140.4c-0.2,0.3-0.4,0.6-0.6,0.8v-1.4C309.6,140,309.8,140.2,310,140.4z"/>
			<path class="st0" d="M310,140.4c-0.2,0.3-0.4,0.6-0.6,0.8v-1.4C309.6,140,309.8,140.2,310,140.4z"/>
			<g>
				<path class="st0" d="M310.4,133.5c0,0-0.4,0.8-1,2.2v5.5c-2.1,2.7-5.9,4.3-8.9,5.1c-2.3,0.7-4.1,0.9-4.1,0.9s-0.6-1.7-1.6-3.1     c-0.8-1.1-1.9-2.2-3.2-2.2c0,0-3.4,0.7-3.9-1.5c-0.5-2.2,1.9-1.5,2.4-2.6c0.5-0.9-0.6-3.8-2.4-5.8c-0.3-0.3-0.6-0.6-1-0.9     c-2.1-1.7,5.2-7.3,7.7-11.8l2.3,0.1C303.1,123.1,311.7,129.9,310.4,133.5z"/>
				<path class="st0" d="M296.8,119.3l-2.3-0.1c0.2-0.3,0.4-0.7,0.5-1C295.6,118.6,296.2,118.9,296.8,119.3z"/>
				<path class="st0" d="M300.5,146.3c-1.3,0.8-2.7,1.2-4.2,1.3c0.1-0.2,0.1-0.3,0.1-0.3S298.2,147,300.5,146.3z"/>
			</g>
			<g>
				<path class="st0" d="M296.5,147.2c0,0,0,0.1-0.1,0.3c-0.1,0.2-0.3,0.4-0.6,0.7l0,0c-0.4,0.2-1,0.5-1.8,0.6     c-2.5,0.3-20.2,4.3-24.9-11.6c-2.1-6.7,2.4-13.3,7.6-18.4c0.1-0.1,0.3-0.3,0.4-0.4c4.3-4.1,9-7.2,10.6-8.3c6.2-4.2,9,2.7,7.8,7.3     c-0.1,0.3-0.1,0.5-0.3,0.8c-0.1,0.3-0.3,0.6-0.5,1c-2.6,4.5-9.9,10.1-7.7,11.8c0.3,0.3,0.6,0.6,1,0.9c1.9,2,3,4.9,2.4,5.8     c-0.6,1-3,0.3-2.4,2.6c0.5,2.2,3.9,1.5,3.9,1.5c1.3,0.1,2.4,1.1,3.2,2.2C295.9,145.6,296.5,147.2,296.5,147.2z"/>
			</g>
			<path class="st0" d="M565.6,212.5v0.1h-5.7c-1.9,0-3.5-1.7-3.5-3.8v-59c0-2.1,1.6-3.8,3.5-3.8h6.6c-1.9,0-3.5,1.7-3.5,3.8v59    C563,210.6,564.1,212.1,565.6,212.5z"/>
			<path class="st0" d="M566.6,212.7h-1v-0.1C565.9,212.6,566.2,212.7,566.6,212.7z"/>
			<path class="st0" d="M608,208.7c0,0.9-0.3,1.7-0.7,2.3c-0.6,1-1.7,1.6-2.9,1.6h-37.9c-0.3,0-0.6-0.1-1-0.1c-1.5-0.4-2.6-2-2.6-3.7    v-59c0-2.1,1.6-3.8,3.5-3.8h37.7c2,0,3.6,1.7,3.6,3.9L608,208.7z"/>
			<path class="st0" d="M379.6,222.9v27.4c-8.1-0.6-15.3-1.3-21-2c-4.2-0.5-8.5-1.1-13-1.8c-11.7-1.7-24.2-4-36.2-5.9v-27.8H322    c0,5.4,0.2,9.2,0.2,9.6c0,0.1,0,0.1,0,0.1S350.3,224.4,379.6,222.9z"/>
			<path class="st0" d="M478.7,218.2c-0.1-0.1-0.3-0.1-0.4-0.3c-0.4-1.9-0.3-4.1-2.1-5.5c-2.9-2.5-8.7-0.4-13-2.4    c-0.1-0.1-0.2-0.1-0.3-0.1c-0.6,3.3-1.2,8.7-1,13.7c-0.7,0-1.5-0.1-2.3-0.1c-1-0.1-2.1-0.1-3.2-0.1c-1.8-0.1-3.6-0.1-5.5-0.2    c-1.2-0.1-2.4-0.1-3.6-0.1l0,0c-1,0-1.9-0.1-2.9-0.1c-0.3,0-0.7,0-1.1-0.1c-1.1,0-2.1-0.1-3.2-0.1c-0.6,0-1.4-0.1-2-0.1    c-1.1-0.1-2.2-0.1-3.3-0.1c-0.6,0-1.2,0-1.7-0.1c-0.6,0-1.3,0-1.9-0.1c-1,0-2-0.1-3-0.1c-0.1,0-0.2,0-0.3,0    c-1.2,0-2.3-0.1-3.3-0.1c-0.6,0-1.1,0-1.7-0.1c-1.1,0-2.2-0.1-3.3-0.1h-0.1c-1,0-2.1-0.1-3.1-0.1c-0.7,0-1.4,0-2.1,0    c-0.6,0-1.2,0-1.7,0c-0.3,0-0.6,0-0.8,0c-0.4,0-0.8,0-1.2,0c-0.2,0-0.4,0-0.6,0s-0.4,0-0.6,0c-9.5-0.1-17.5,0-23.2,0.4    c-0.3,0-0.6,0-0.8,0.1c-1.9,0.1-3.7,0.2-5.5,0.3c-28.5,1.5-56-0.3-57.4-0.4c-0.1,0-0.1,0-0.1,0s-0.2-3.8-0.2-9.6v-0.1    c0-3.2,0-7.1,0.1-11.1c0.1-1.8,0.1-3.6,0.3-5.5V196c0-0.3,0-0.5,0.1-0.8v-0.1c0-0.2,0-0.4,0.1-0.6c0.1-0.6,0.1-1.3,0.1-2    c0.1-0.9,0.1-1.7,0.2-2.7c0.5-5.2,1.2-10.3,2.2-14.6c0-0.1,0.1-0.2,0.1-0.3c0-0.1,0.1-0.2,0.1-0.3c0.3-1.3,0.6-2.5,1-3.7    c1.7-5,4.8-9.9,8.1-14c0.5-0.6,0.9-1.1,1.4-1.7c1.1-1.3,2.2-2.4,3.3-3.6c1.7-1.7,3.4-3.4,5-4.7c0.5-0.5,1-0.9,1.5-1.3    c1-0.8,1.9-1.5,2.6-2.2c0.4-0.3,0.8-0.6,1.1-0.8c0.3-0.3,0.5-0.4,0.8-0.6l0.1-0.1c0.8-0.6,1.2-0.8,1.2-0.8    c22.8,0.5,64,9.6,95.1,13.5c31,3.9,110.1,6.6,110.1,6.6v61.6c0,0-0.8,0.3-2.8,0.7c-0.1,0-0.1,0-0.3,0.1c-0.1,0-0.2,0.1-0.3,0.1    c-0.6,0.1-1.2,0.3-1.9,0.3c-0.2,0.1-0.4,0.1-0.6,0.1c-1.5,0.2-3.3,0.5-5.5,0.8c-1.8,0.2-4,0.5-6.4,0.7c-0.8,0.1-1.7,0.1-2.6,0.2    c-1.5,0.1-3.9,0.1-7,0.1h-1.9c-0.3,0-0.6,0-0.9,0c-0.6,0-1.2,0-1.8,0c-4.1-0.1-8.9-0.2-14.2-0.4c-1.2-0.1-2.3-0.1-3.5-0.1    c-0.5,0-1-0.1-1.5-0.1c-1,0-2.1-0.1-3.2-0.1c-0.8,0-1.5-0.1-2.3-0.1c-0.2,0-0.5,0-0.6,0c-0.8-0.1-1.5-0.1-2.4-0.1    c-1.6-0.1-3.2-0.1-4.8-0.2l0,0c-2.2-0.1-4.4-0.2-6.6-0.3l0,0c1-1.4,1.4-4.4,0.5-5.3c-1.2-1.2-2.9,0.3-3.5,1.3    c-0.5,0.8-1.4,1-2.1,0.5c-1-0.6-1.4-1.5-1.7-2.5"/>
			<path class="st0" d="M455.5,287h-4c1.3-0.1,2.3-0.1,2.8-0.2c0.2-0.1,0.5-0.1,0.6,0v0.1C455.2,286.9,455.4,286.9,455.5,287z"/>
			<path class="st1" d="M478,250.3C478,250.4,478,250.4,478,250.3L478,250.3L478,250.3z"/>
			<path class="st0" d="M465.9,245.2c0,0.3,0,0.7,0.1,1C465.9,245.9,465.9,245.6,465.9,245.2z"/>
			<path class="st0" d="M466.7,240.3c0,0,0,0.1,0,0.1c-0.1,0.5,0,1-0.3,2.2l0,0l0,0c0,0.1,0,0.1-0.1,0.2l0,0l0,0l0,0l0,0l0,0    c0,0.1,0,0.1,0,0.1c0,0.1,0,0.1,0,0.2v0.1c0,0.1,0,0.1-0.1,0.1c-0.1,0.4-0.2,0.8-0.3,1.3l0,0c-0.6,2.8-1.4,6.4-2.2,9.9    c-1.4,6.2-2.6,12.1-2.9,13.3v0.3c-1.5,5.4-3.6,12-5.7,18.5h-0.1c2.1-6.5,4.2-13.1,5.7-18.5c0,0,0,0,0-0.1c0,0,0,0,0-0.1v-0.1    c0.1-0.2,0.1-0.6,0.2-1c0.5-2.2,1.5-7.3,2.7-12.5c0.9-4,1.8-8,2.4-11c0-0.1,0-0.1,0-0.1c0-0.1,0-0.1,0.1-0.1c0,0,0,0,0-0.1v-0.1    C466.7,241.4,466.5,240.8,466.7,240.3L466.7,240.3C466.6,240.3,466.6,240.3,466.7,240.3z"/>
			<path class="st0" d="M480.6,234.2c-4.3,2.2-10,2-13.1,1.5c-0.2,0-0.5-0.1-0.6-0.1v1.1c0,0.4-0.1,0.7-0.1,1    c-0.1,0.9-0.1,1.7-0.2,2.4c-1,0.5-2.7,2.2-3.5,3.6c-0.1,0.1-0.2,0.3-0.3,0.4c-0.2,0.1-0.4,0.1-0.6,0.2c-0.1,0-0.2,0.1-0.3,0.1l0,0    l0,0c-0.1,0-0.2,0.1-0.3,0.1c-0.4,0.1-0.8,0.3-1.2,0.5c0.1-0.1,0.3-0.1,0.5-0.3c-0.1,0.1-0.2,0.1-0.3,0.1    c-0.4,0.1-0.8,0.3-1.2,0.6c0.3-0.1,0.6-0.3,1-0.4c-1.3,0.7-2.8,1.4-4.4,2.3c0,0,0,0-0.1,0l0,0c0,0,0,0-0.1,0    c-3.3,1.9-7,4.1-10,6.4c-18.7-0.8-45.2-2-66.2-3.6v-27.5c1.9-0.1,3.7-0.2,5.5-0.3c0.3,0,0.6-0.1,0.8-0.1    c5.7-0.4,13.8-0.5,23.2-0.4c0.2,0,0.4,0,0.6,0s0.4,0,0.6,0c0.4,0,0.8,0,1.2,0c0.3,0,0.6,0,0.8,0c0.6,0,1.2,0,1.7,0    c0.7,0,1.4,0,2.1,0c1,0,2.1,0.1,3.1,0.1h0.1c1.1,0,2.2,0.1,3.3,0.1c0.6,0,1.1,0,1.7,0.1c1.1,0,2.3,0.1,3.3,0.1c0.1,0,0.2,0,0.3,0    c1,0,2,0.1,3,0.1c0.6,0,1.3,0,1.9,0.1c0.6,0,1.2,0.1,1.7,0.1c1.1,0.1,2.2,0.1,3.3,0.1c0.6,0,1.4,0.1,2,0.1c1,0.1,2.1,0.1,3.2,0.1    c0.4,0,0.7,0,1.1,0.1c1,0.1,1.9,0.1,2.9,0.1l0,0c1.2,0.1,2.4,0.1,3.6,0.1c1.8,0.1,3.6,0.1,5.5,0.2c1,0.1,2.1,0.1,3.2,0.1    c0.7,0,1.5,0.1,2.3,0.1c0,1.7,0.1,3.3,0.3,4.8c0.5,3.7,1.4,6.5,3,7c0,0,0.6,0.1,1.7,0.3c0.3,0,0.5,0.1,0.7,0.1    C470.6,236.1,476.2,236.3,480.6,234.2z"/>
			<path class="st0" d="M482.8,232.8L482.8,232.8c-0.5,0.5-1.2,0.8-1.7,1.2C481.7,233.6,482.3,233.2,482.8,232.8L482.8,232.8z"/>
			<path class="st0" d="M607.4,211v76h-85.7c-0.4-1.5-0.8-2.9-1.2-4.4l0,0c-4.1-14.7-9.7-27.7-11.8-30c-4.6-5.5-12.8-7.8-18.1-8.7    c0,0-0.1,0.1-0.2,0.3c-0.2,0.3-0.4,0.8-0.7,1.3c-0.6,1.1-1.4,2.7-2.4,4.5c0-0.1,0-0.1,0-0.1c-2.1,4.1-4.9,9.3-7.1,13.6    c-2.3,4.3-4.1,7.7-4.2,7.9c-0.1,0.6-0.3,1.2-0.5,1.8c0,0.1-0.1,0.1-0.1,0.3c-0.3,1.4-0.6,2.7-0.8,3.7c-0.4,1.5-0.6,2.7-0.7,3.1    c-0.2,0.8-0.4,2.1-0.6,3.6c-0.1,0.9-0.3,2-0.5,3.1h-0.1c0.4-3.1,0.8-5.4,1.1-6.7c0.1-0.5,0.4-1.6,0.7-3.1c0.3-1.1,0.6-2.4,0.9-3.8    c0-0.1,0.1-0.2,0.1-0.3c0.1-0.6,0.3-1.1,0.4-1.7c0.1-0.1,0.2-1,0.5-2.4c-0.3,1.3-0.4,2.2-0.5,2.4c0.3-0.4,7.1-13.4,11.3-21.5    c1-1.8,1.8-3.4,2.4-4.5c0.3-0.6,0.6-1,0.7-1.3c0.1-0.2,0.2-0.3,0.2-0.3c-1-1.5-2.4-2.4-3.7-2.9c-1.3-0.6-2.4-0.8-2.4-0.8    c-0.5,0.4-0.8,1.1-1.3,2c-0.8,1.9-1.7,4.7-2.6,7.8c-0.8,3.1-1.6,6.5-2.3,9.7c0.6-3.2,1.4-6.6,2.3-9.6c-0.3,0.1-0.5,0.1-0.8,0.2    c0.3-0.1,0.5-0.1,0.7-0.2c0.8-3.1,1.7-5.9,2.6-7.8c0.5-1,0.9-1.6,1.3-2c-0.1-0.1-0.1-0.3-0.1-0.5c-0.7-2.7-1-4.9-1.4-6.5    c0.1-0.1,0.1-0.1,0.3-0.2l0,0l0,0c0.1-0.1,0.1-0.1,0.2-0.1c0.3-0.3,0.8-1.3,0.8-3.9c0-0.2,0-0.5,0-0.8v-0.8    c-0.1-0.8,0.2-1.7,0.8-2.2c0.1-0.1,0.1-0.1,0.1-0.1l0,0c0.1-0.1,0.1-0.1,0.2-0.2l0,0c2.3,0.1,4.5,0.2,6.6,0.3l0,0    c1.6,0.1,3.2,0.1,4.8,0.2c0.8,0,1.6,0.1,2.4,0.1c0.2,0,0.5,0,0.6,0c0.8,0,1.5,0.1,2.3,0.1c1,0.1,2.1,0.1,3.2,0.1    c0.5,0,1,0.1,1.5,0.1c1.2,0.1,2.3,0.1,3.5,0.1c5.4,0.1,10.2,0.3,14.2,0.4c0.6,0,1.2,0,1.8,0c0.3,0,0.6,0,0.9,0h1.9    c3,0,5.4,0,7-0.1c0.9-0.1,1.7-0.1,2.6-0.2c2.4-0.2,4.5-0.4,6.4-0.7c2.2-0.3,4-0.6,5.5-0.8c0.2,0,0.5-0.1,0.6-0.1    c0.2,0,0.4-0.1,0.5-0.1c0.5-0.1,1-0.2,1.4-0.3c0.1,0,0.2-0.1,0.3-0.1c0.1,0,0.2-0.1,0.3-0.1c2-0.4,2.8-0.7,2.8-0.7v-10.2h48.1    C605.7,212.7,606.7,212,607.4,211z"/>
			<polygon class="st0" points="180.8,289.3 156.5,289.3 156.5,253.8   "/>
			<path class="st0" d="M194.6,306v35.9h0.1c1.8,0.2,3.6,0.5,5.5,0.7V306H194.6z M220.7,285.1c-0.3-0.1-0.6-0.3-1-0.3    c-0.3-0.1-0.6-0.3-1-0.4c-0.3-0.1-0.6-0.3-0.9-0.4c-0.4-0.2-0.8-0.4-1.2-0.6c-1.4-0.8-2.6-1.8-3.2-2.9c-0.1-0.2-0.3-0.4-0.3-0.6    c-0.2-0.4-0.4-0.8-0.6-1.3c-0.1-0.2-0.2-0.4-0.3-0.6c-0.6-1-1-2.2-1.2-3.4c-0.1-0.3-0.1-0.6-0.1-0.8c0-0.1-0.1-0.3-0.1-0.4    c0-0.1,0-0.3,0-0.4c0-0.1,0-0.3,0-0.4v-0.8c0-0.2,0-0.3,0-0.6c0-0.3,0.1-0.8,0.1-1.1c0.5-5.7,3.5-12,7-17.3    c-0.1-0.2-0.2-0.3-0.3-0.6c-0.1-0.2-0.2-0.4-0.3-0.6c-0.1-0.2-0.3-0.5-0.3-0.7c-0.1-0.1-0.1-0.1-0.1-0.2c-0.1-0.1-0.1-0.3-0.2-0.4    c-0.2-0.4-0.5-0.8-0.7-1.3c-0.1-0.3-0.3-0.5-0.5-0.8c-0.4-0.6-0.8-1-1.2-1.6c-0.2-0.3-0.5-0.6-0.6-0.8c-0.3-0.3-0.5-0.5-0.7-0.8    c-0.2-0.2-0.5-0.4-0.6-0.6c-0.3-0.2-0.5-0.4-0.7-0.6c-0.2-0.1-0.4-0.3-0.6-0.5c-0.1-0.1-0.2-0.1-0.3-0.2c-0.2-0.1-0.4-0.3-0.6-0.4    l0,0c-0.2-0.1-0.4-0.3-0.6-0.3c-0.2-0.1-0.4-0.2-0.6-0.3s-0.5-0.2-0.7-0.3c0,0,0,0-0.1,0l0,0l0,0c-0.4,0.2-1,0.5-1.8,0.6    c-0.3,0.1-1,0.1-1.8,0.3c-0.2,0-0.3,0.1-0.5,0.1c-0.4,0.1-0.8,0.1-1.2,0.1c-0.3,0-0.5,0.1-0.8,0.1c-0.1,0-0.3,0-0.5,0    c-0.3,0-0.6,0.1-1,0.1c-0.8,0-1.5,0-2.3,0c-0.2,0-0.4,0-0.6,0c-6.1-0.3-13.3-2.9-16.2-12.2c-0.2-0.8-0.4-1.5-0.5-2.2    c0-0.1,0-0.3-0.1-0.3c0-0.1,0-0.2,0-0.3s0-0.3,0-0.4c0-0.2,0-0.4,0-0.6c0-0.1,0-0.1,0-0.2c0-0.2,0-0.4,0.1-0.7    c0.6-5,4.1-9.7,8-13.5h-0.1l-36.7-0.8l-2.3-0.1l-4.4-0.1l-0.5,0.6l0,0l-0.2,0.2l0.6-0.6l0.1-0.1l3.8,5.5l1.9,2.8l47.7,69.5h23    v-3.8C221.5,285.4,221.1,285.3,220.7,285.1z M212.7,239.8c-1.3,0.3-2.4,0.6-3.2,0.7c0,0,0,0-0.1,0c0,0,0,0-0.1,0c0,0,0,0-0.1,0    s-0.1,0-0.1,0h-0.1c-0.1,0-0.1,0-0.2,0c-0.1,0-0.2,0-0.2,0s0,0,0,0.1v0.1c0,0.1,0,0.1-0.1,0.1c0,0,0,0.1-0.1,0.1h0.1    c0.2,0,0.4,0,0.6-0.1c0.5,0,1-0.1,1.5-0.3h0.1c0.6-0.2,1.3-0.5,1.9-0.8l0,0c0,0,0,0,0.1,0C212.9,239.7,212.8,239.8,212.7,239.8z     M192.3,306l0.2,0.3l0.4-0.3H192.3z"/>
			<path class="st0" d="M221.9,306v40c-7.5-1.3-14.9-2.4-21.7-3.4h-0.1V306H221.9z"/>
			<path class="st0" d="M213.1,239.7c-1.3,0.8-2.7,1.2-4.2,1.3c0.1-0.2,0.1-0.3,0.1-0.3S210.7,240.3,213.1,239.7z"/>
			<path class="st0" d="M235,288.5c0,0.3,0,0.6-0.1,0.8h-36l-47.7-69.5l-1.9-2.8l-3.8-5.5v-0.1l-0.4,0.3l0,0l-0.3,0.2l0.7-0.8h0.1    l4.4,0.1l2.3,0.1l36.7,0.8c-5.2,5-9.6,11.7-7.6,18.4c0.8,2.7,1.9,4.7,3.3,6.4c0.3,0.4,0.6,0.8,1,1.1c0.1,0.1,0.2,0.2,0.3,0.3    c3.4,3.1,7.8,4.3,11.6,4.5c0.2,0,0.4,0,0.6,0c0.8,0,1.6,0,2.3,0c0.3,0,0.7,0,1-0.1c0.1,0,0.3,0,0.5,0c2.1-0.1,3.6-0.5,4.3-0.6    c0.8-0.1,1.4-0.3,1.8-0.6l0,0l0,0c0,0,0,0,0.1,0l0,0c5.3,2.4,8.4,8.2,9.6,11.1c-5.1,8.1-9.4,18.2-5.5,25.2    c0.1,0.2,0.1,0.4,0.3,0.6c0,0.1,0,0.1,0.1,0.1c0.2,0.3,0.4,0.8,0.5,1.1c0.1,0.1,0.1,0.3,0.2,0.4c0,0.1,0.1,0.1,0.1,0.2    c0.5,0.7,1.1,1.4,1.9,2c0.1,0.1,0.3,0.1,0.4,0.3c0.3,0.2,0.6,0.4,1,0.6c0.4,0.2,0.8,0.4,1.2,0.6l0,0c0.3,0.1,0.6,0.3,0.9,0.4    s0.6,0.3,1,0.4c0.3,0.1,0.6,0.3,1,0.3c0.4,0.1,0.8,0.3,1.2,0.4c0.1,0,0.1,0,0.1,0.1c0.5,0.1,1,0.3,1.4,0.4c1,0.3,2.1,0.6,3.2,0.8    c1.1,0.3,2.2,0.5,3.3,0.7C231.7,288,233.3,288.3,235,288.5C234.9,288.5,235,288.5,235,288.5z"/>
			<path class="st0" d="M244.2,233.3c-9,1-14.7,4.9-16,5.8c-1.6-1.5-3.8-3.6-5.7-5.4c-0.2,0.3-0.4,0.6-0.6,0.8v-5.5    c0.6-1.3,1-2.2,1-2.2c0.2-0.6,0.1-1.3-0.1-2c-1.4-3.8-8.2-9.1-13.5-12.2l22.3,0.5l7.3,11.7L244.2,233.3z"/>
			<polygon class="st0" points="192.8,306 192.5,306.3 192.3,306   "/>
			<path class="st0" d="M234.6,294.9c-0.1,4.1-0.2,7.9-0.1,11.1h-90.7c-2.1,0-4.1-0.9-5.4-2.4c-1.1-1.2-1.9-2.7-2.1-4.4    c-0.1-0.5-0.1-1-0.1-1.5c0-4.6,3.4-8.3,7.7-8.3h37.1l-24.3-35.5l-7.8-11.3l-0.3-0.4l-1.9-2.8l-7.3-10.6c-3-4.3-2.1-10.4,1.9-13.6    l3.8-3.1l0.3-0.2l0,0l0.4-0.3v0.1l3.8,5.5l1.9,2.8l47.7,69.5h36C234.8,291.2,234.7,293.1,234.6,294.9z"/>
			<path class="st0" d="M200.2,306v36.6h-0.1c-1.9-0.3-3.7-0.5-5.5-0.7V306H200.2z"/>
			<path class="st0" d="M432.5,380.4c-0.3,2.3-0.6,4.4-0.8,6.4h-49.3v-6.4H432.5z"/>
			<path class="st0" d="M464.5,386.1l0.1,0.6h-0.3c0-0.2,0.1-0.3,0.1-0.6v0.1c0.3-1.8,0.6-3.8,0.9-5.9h0.1    C465.1,382.4,464.8,384.3,464.5,386.1z"/>
			<polygon class="st0" points="481.7,350.5 481.7,350.6 478.1,350.7 478.1,350.7   "/>
			<path class="st0" d="M481.7,350.5L481.7,350.5l-1-5.6l-0.1-0.4l-0.3-2.1l-2.1-14.2l0,0l0,0l0,0l0,0c-0.1,0-0.1,0-0.2-0.1v-1.7    l0.1,0.6l0.2,1.1l0,0v0.1c0.1,0,0.1,0,0.1,0l2.1,14.2l0.3,2.1l0.1,0.4L481.7,350.5z"/>
			<path class="st0" d="M483.6,312.2L483.6,312.2c-0.6,0.1-1.3,0.3-1.9,0.3c-1.4,0.2-2.7,0.3-3.7,0.5v-0.1c1-0.1,2.3-0.3,3.7-0.5    C482.3,312.4,483,312.2,483.6,312.2z"/>
			<path class="st0" d="M483.6,329.2v0.1c-1.9-0.3-3.7-0.7-5.2-1v-0.1C479.9,328.5,481.7,328.9,483.6,329.2z"/>
			<path class="st0" d="M519.9,380.4v6.4h-10.4c-0.1-2-0.1-4.1-0.2-6.4H519.9z"/>
			<path class="st0" d="M486.3,411.5c-1.2,0.1-2.3,0.3-3.4,0.3h0.1c-0.5,0-0.8,0.1-1.3,0.1c-1.9,0.1-3.8,0.1-5.7,0.1l0,0    c0-0.1-0.1-0.1-0.1-0.1c0,0,0-0.1-0.1-0.1h7.1C484,411.7,485.1,411.5,486.3,411.5C486.3,411.4,486.3,411.5,486.3,411.5z"/>
			<path class="st0" d="M221.9,251.9c-1.4,1.3-2.6,2.4-3.3,2.7c0,0-0.3-0.7-0.7-1.8c-1.3-2.9-4.4-8.7-9.7-11.2    c0.4-0.2,0.6-0.5,0.6-0.7c1.5,0,2.9-0.5,4.2-1.3c2.9-0.8,6.7-2.4,8.9-5.1c0.2-0.3,0.4-0.6,0.6-0.8c1.9,1.8,4.1,3.9,5.7,5.4    c1,0.9,1.7,1.6,2.1,1.8C231.3,241.7,225.8,248.1,221.9,251.9z"/>
			<path class="st0" d="M262.5,235.4c-2.1,1.5-6.4,5-11,9.6c-2.5,2.6-5.1,5.6-7.3,8.8c-2.3,3.3-4.2,6.8-5.5,10.5    c-0.4,1.1-0.7,2.4-1,3.7c0,0.1-0.1,0.2-0.1,0.3c0,0.1-0.1,0.2-0.1,0.3c-0.7,2.9-1.2,6.2-1.7,9.6c-0.1,0.5-0.1,1-0.2,1.5    c-0.1,0.6-0.1,1.1-0.2,1.7c-0.1,0.6-0.1,1.3-0.2,2c-0.1,1.7-0.3,3.4-0.4,5.2v0.1c-4.3-0.6-9-1.6-12.9-2.9h-0.1    c-1.5-0.5-2.8-1-4.1-1.7l0,0c-0.4-0.2-0.8-0.4-1.2-0.6c-0.3-0.2-0.6-0.4-1-0.6c-0.1-0.1-0.3-0.1-0.4-0.3c-0.8-0.6-1.4-1.3-1.8-2    c-0.1-0.1-0.1-0.1-0.2-0.3c-0.3-0.5-0.5-1-0.8-1.6c-0.1-0.2-0.2-0.4-0.3-0.7c-0.6-1-1-2.2-1.2-3.4c-0.1-0.3-0.1-0.6-0.1-0.8    c0-0.1-0.1-0.3-0.1-0.4c0-0.1,0-0.3,0-0.4c0-0.1,0-0.3,0-0.4v-0.8c0-0.2,0-0.3,0-0.6c0-0.3,0.1-0.8,0.1-1.1    c0.5-5.7,3.5-11.9,7-17.3c0.5,1.1,0.7,1.8,0.7,1.8c0.6-0.3,1.9-1.3,3.3-2.6c3.5-3.4,8.4-9.1,8.5-10.7l0,0c0,0,0,0,0-0.1    c0-0.1-0.1-0.2-0.1-0.3c-0.3-0.2-1-0.9-2.1-1.8l0.1-0.1c1.4-1,7.1-4.8,15.9-5.7c4.3-0.5,9.4-0.3,15.1,1.3    C260.1,234.8,261.2,235.1,262.5,235.4z"/>
			<polygon class="st0" points="156.5,253.8 156.5,289.3 148.7,289.3 148.7,242.5   "/>
			<path class="st0" d="M213.1,239.7c-1.3,0.8-2.7,1.2-4.2,1.3c0.1-0.2,0.1-0.3,0.1-0.3S210.7,240.3,213.1,239.7z"/>
			<path class="st0" d="M222.5,233.8c-0.2,0.3-0.4,0.6-0.6,0.8v-1.4C222.1,233.4,222.3,233.5,222.5,233.8z"/>
			<path class="st0" d="M222.5,233.8c-0.2,0.3-0.4,0.6-0.6,0.8v-1.4C222.1,233.4,222.3,233.5,222.5,233.8z"/>
			<g>
				<path class="st0" d="M223,226.1c0,0.3-0.1,0.6-0.1,0.8c0,0-0.4,0.8-1,2.2v5.5c-2.2,2.7-5.9,4.3-8.9,5.1c-2.3,0.7-4.1,0.9-4.1,0.9     s-0.6-1.7-1.6-3.2c-0.8-1.1-1.9-2.1-3.2-2.2c0,0-3.4,0.7-3.9-1.5c-0.5-2.2,1.9-1.5,2.4-2.6c0.5-0.9-0.6-3.8-2.4-5.8     c-0.1-0.1-0.3-0.3-0.4-0.4c-0.1-0.1-0.1-0.1-0.1-0.1c-0.1-0.1-0.3-0.3-0.5-0.3c-2.1-1.7,5.2-7.3,7.7-11.8l2.3,0.1     c0.4,0.3,0.8,0.5,1.3,0.8c0.3,0.1,0.5,0.3,0.8,0.5c0.3,0.2,0.5,0.3,0.8,0.6c0.1,0.1,0.1,0.1,0.3,0.1c0.3,0.2,0.6,0.4,1,0.6     c0.1,0,0.1,0.1,0.1,0.1c0.3,0.2,0.6,0.4,0.9,0.7c2.1,1.6,4.2,3.3,5.7,5c0.1,0.1,0.3,0.3,0.4,0.4c0.3,0.3,0.5,0.5,0.6,0.8     c0.2,0.2,0.4,0.5,0.5,0.7c0.1,0.1,0.2,0.3,0.3,0.4c0.2,0.3,0.4,0.6,0.5,0.8c0.1,0.1,0.1,0.3,0.2,0.4s0.1,0.3,0.2,0.5     c0,0.1,0.1,0.2,0.1,0.3v0.1c0,0.1,0.1,0.2,0.1,0.3C223,225.9,223,226,223,226.1z"/>
				<path class="st0" d="M209.3,212.6l-2.3-0.1c0.2-0.3,0.4-0.7,0.5-1C208.1,211.9,208.7,212.3,209.3,212.6z"/>
				<path class="st0" d="M213.1,239.7c-1.3,0.8-2.7,1.2-4.2,1.3c0.1-0.2,0.1-0.3,0.1-0.3S210.7,240.3,213.1,239.7z"/>
			</g>
			<g>
				<path class="st1" d="M208.9,240.6c0,0,0,0.1-0.1,0.3s-0.3,0.4-0.6,0.7l0,0c-0.4,0.2-1,0.5-1.8,0.6c-2.6,0.3-20.2,4.3-24.9-11.6     c-2.1-6.7,2.4-13.3,7.6-18.4c0.1-0.1,0.3-0.3,0.4-0.4c4.3-4.1,9-7.2,10.6-8.3c0.8-0.6,1.5-0.9,2.3-1.1c3.7-1.1,5.7,2.3,5.8,5.8     c0,0.9-0.1,1.8-0.3,2.7c-0.1,0.3-0.1,0.5-0.3,0.8c-0.1,0.3-0.3,0.6-0.5,1c-2.6,4.5-9.8,10.1-7.7,11.8c0.1,0.1,0.3,0.2,0.5,0.3     c0.1,0.1,0.1,0.1,0.1,0.1c0.1,0.1,0.3,0.3,0.4,0.4c1.8,2,3,4.9,2.4,5.8c-0.6,1-3,0.3-2.4,2.6c0.5,2.2,3.9,1.5,3.9,1.5     c1.3,0.1,2.4,1.1,3.2,2.2C208.4,238.9,208.9,240.6,208.9,240.6z"/>
			</g>
			<path class="st0" d="M475,306L475,306l-1.9-12.6l-0.6-3.8c0-0.1,0-0.2,0.1-0.3v0.1l0.6,3.9L475,306z"/>
			<path class="st0" d="M475.5,273.3v0.1c-0.3,1.4-0.6,2.7-0.8,3.7c-0.4,1.5-0.6,2.7-0.7,3.1c-0.2,0.8-0.4,2.1-0.6,3.6    c-0.1,0.9-0.3,2-0.5,3.1v0.1c-0.1,0.7-0.2,1.5-0.3,2.3v-0.2c0,0.1-0.1,0.3-0.1,0.5l-0.3-2l-3.3,0.1V287h3.9    c0.4-3.1,0.8-5.4,1.1-6.7c0.1-0.5,0.4-1.6,0.7-3.1C474.9,276,475.2,274.8,475.5,273.3z"/>
			<path class="st0" d="M500.7,305c-0.1,0.3-0.2,0.7-0.4,1h-0.1C500.4,305.7,500.6,305.3,500.7,305c0-0.2,0.1-0.4,0.1-0.6    c0-0.8-0.2-2.4-0.5-4.3C500.6,302.6,500.9,304.3,500.7,305z"/>
			<path class="st0" d="M520.5,282.5c-4.1-14.7-9.7-27.7-11.8-30c-4.6-5.5-12.8-7.8-18.1-8.7c0,0-0.1,0.1-0.2,0.3    c-0.2,0.3-0.4,0.8-0.7,1.3c-0.6,1.1-1.4,2.7-2.4,4.5c0-0.1,0-0.1,0-0.1c-2.1,4.1-4.9,9.3-7.1,13.6c-2.3,4.3-4.1,7.7-4.2,7.9    c-0.1,0.6-0.3,1.2-0.5,1.8V273c0.1-0.6,0.3-1.1,0.4-1.7c0.1-0.1,0.2-1,0.5-2.4c-0.3,1.3-0.4,2.2-0.5,2.4    c0.3-0.4,7.1-13.4,11.3-21.5c1-1.8,1.8-3.4,2.4-4.5c0.3-0.6,0.6-1,0.7-1.3c0.1-0.2,0.2-0.3,0.2-0.3c-1-1.5-2.4-2.4-3.7-2.9    c-1.3-0.6-2.4-0.8-2.4-0.8c-0.5,0.4-0.8,1.1-1.3,2c-0.8,1.9-1.7,4.7-2.6,7.8c-0.8,3.1-1.6,6.5-2.3,9.7c0.6-3.2,1.4-6.6,2.3-9.6    c-0.3,0.1-0.5,0.1-0.8,0.2c0.3-0.1,0.5-0.1,0.7-0.2c0.8-3.1,1.7-5.9,2.6-7.8c0.5-1,0.9-1.6,1.3-2c-0.1-0.1-0.1-0.3-0.1-0.5h32.6    c2,0,3.6,1.7,3.6,3.9L520.5,282.5z"/>
			<path class="st0" d="M292.1,316.2v39.7c-7.5-0.6-14.3-1.2-19.6-1.8c-3.7-0.5-7.7-1-11.7-1.6c-12.6-1.9-26-4.3-38.9-6.4v-40h12.6    v0.1c0,5.8,0.2,9.7,0.2,9.7s5.2,0.3,13.5,0.6c1.7,0.1,3.6,0.1,5.5,0.1c6.3,0.1,13.8,0.3,21.8,0.1c1.2,0,2.3,0,3.5-0.1l0,0    c1,0,2-0.1,3-0.1c0.6,0,1.2-0.1,1.8-0.1c0.3,0,0.6,0,1-0.1c0.1,0,0.3,0,0.5,0h0.1c0.1,0,0.1,0,0.2,0l0,0c0.1,0,0.3,0,0.3,0    c0.7,0,1.5-0.1,2.2-0.1c0.7,0,1.4-0.1,2.1-0.1c0.3,0,0.6,0,0.9,0l0,0l0,0c0,0,0,0,0.1,0C291.4,316.2,291.8,316.2,292.1,316.2z"/>
			<path class="st0" d="M281.9,316.6c-1,0-2,0.1-3,0.1l0,0c-1.2,0-2.3,0.1-3.5,0.1c-8,0.1-15.5,0-21.8-0.1c-1.9-0.1-3.8-0.1-5.5-0.1    c-8.3-0.3-13.5-0.6-13.5-0.6s-0.2-3.9-0.2-9.7V306h0.1c0,5.8,0.2,9.7,0.2,9.7s5.2,0.3,13.5,0.6c1.7,0.1,3.5,0.1,5.5,0.1    c6.3,0.1,13.8,0.3,21.8,0.1c1.1,0,2.3,0,3.4,0l0,0C279.9,316.6,280.9,316.6,281.9,316.6L281.9,316.6z"/>
			<path class="st0" d="M290.9,316.2L290.9,316.2c-0.3,0-0.6,0.1-0.9,0.1C290.3,316.2,290.6,316.2,290.9,316.2L290.9,316.2z"/>
			<path class="st0" d="M291,316.2L291,316.2C290.9,316.2,290.9,316.2,291,316.2C290.9,316.2,290.9,316.2,291,316.2L291,316.2z"/>
			<path class="st0" d="M379.6,250.2c-8.1-0.6-15.3-1.3-21-2c-4.2-0.5-8.5-1.1-13-1.8c-11.7-1.7-24.2-4-36.2-5.9    c-7.5-1.3-14.9-2.4-21.8-3.4c-1.9-0.3-3.7-0.5-5.5-0.8c-2.3-0.3-4.6-0.6-6.8-0.8c-4.3-0.5-8.2-0.8-11.8-0.8c0,0-0.4,0.3-1.2,0.8    c-0.1,0.1-0.3,0.1-0.4,0.3c-0.6,0.4-1.2,0.9-2,1.5c-0.3,0.2-0.5,0.4-0.8,0.6s-0.5,0.4-0.8,0.7c-0.3,0.3-0.6,0.5-0.9,0.8    c-0.6,0.5-1.3,1-1.9,1.7c-0.5,0.5-1,1-1.6,1.5c-0.1,0.1-0.2,0.2-0.3,0.3c-0.1,0.1-0.3,0.3-0.5,0.5c-0.3,0.3-0.6,0.6-0.8,0.8    c-0.3,0.3-0.6,0.6-0.8,0.8c-1.1,1.2-2.2,2.4-3.3,3.6c-0.2,0.3-0.5,0.6-0.7,0.8c-0.5,0.6-1,1.2-1.4,1.8c-0.7,0.9-1.4,1.8-2,2.8    c-0.3,0.3-0.5,0.7-0.7,1c-0.3,0.3-0.5,0.6-0.6,1c-0.1,0.3-0.3,0.6-0.5,0.9c-0.1,0-0.1,0.1-0.1,0.1c-0.2,0.3-0.4,0.6-0.5,0.8    c-0.1,0.1-0.1,0.2-0.1,0.3c-0.2,0.3-0.3,0.5-0.5,0.8c-0.2,0.4-0.5,0.8-0.6,1.3c-0.2,0.3-0.3,0.6-0.5,0.9s-0.3,0.6-0.4,0.9    c-0.1,0.1-0.1,0.2-0.1,0.3c-0.1,0.3-0.2,0.6-0.3,0.9c-0.1,0.3-0.3,0.7-0.4,1c-0.2,0.6-0.4,1.2-0.6,1.8c-0.2,0.6-0.4,1.3-0.5,1.9    c0,0.1-0.1,0.2-0.1,0.3s-0.1,0.2-0.1,0.3c-0.7,2.9-1.2,6.2-1.7,9.5c-0.1,0.5-0.1,1-0.2,1.5c-0.1,0.6-0.1,1.1-0.2,1.7    c-0.1,0.6-0.1,1.3-0.2,2c-0.1,1.7-0.3,3.4-0.4,5.2h0.1c0,0.3,0,0.6-0.1,0.8c-0.1,1.9-0.2,3.8-0.3,5.6c-0.1,4.1-0.2,7.9-0.1,11.1    c0,5.8,0.2,9.7,0.2,9.7s5.2,0.3,13.5,0.6c1.7,0.1,3.5,0.1,5.5,0.1c6.3,0.1,13.8,0.3,21.8,0.1c1.1,0,2.3,0,3.4,0l0,0c1,0,2,0,3-0.1    l0,0c0.6,0,1.2-0.1,1.8-0.1c0.3,0,0.6,0,1-0.1c0.1,0,0.3,0,0.5,0h0.1c0.1,0,0.1,0,0.2,0l0,0c0.1,0,0.3,0,0.3,0    c0.7,0,1.5-0.1,2.2-0.1s1.4-0.1,2.1-0.1c0.3,0,0.6,0,0.9-0.1l0,0l0,0h0.1c0.4,0,0.8,0,1.2-0.1c1.9-0.1,3.7-0.2,5.5-0.3    c0.3-0.1,0.5-0.1,0.8-0.1c3-0.2,6.7-0.3,10.9-0.4c29.7-0.5,85.3,2.6,117.1,3.6c-3.2-3.7-2.3-12.5,0.3-22.2l0.9,6.2    c0.2-0.2,0.3-0.3,0.6-0.4c0,0,8.7-2.9,9.6-0.8c1,2.3-0.1,4.9-1.9,7.1c0.1-0.1,0.2-0.2,0.3-0.3c0.1-0.1,0.2-0.2,0.3-0.3    c0.3-0.3,0.5-0.8,0.7-1.1c0.1-0.1,0.1-0.3,0.2-0.3c0.2-0.3,0.3-0.7,0.5-1c0.1-0.1,0.1-0.2,0.1-0.3c0.1-0.4,0.3-0.9,0.3-1.3    c0-0.1,0-0.3,0-0.4l0,0c0-0.1,0-0.3,0-0.5c0-0.1,0-0.2-0.1-0.3c-0.1-0.2-0.1-0.5-0.2-0.7c-0.1-0.1-0.1-0.2-0.1-0.3    c-1-2.1-9.6,0.8-9.6,0.8c-0.2,0-0.4,0.1-0.6,0.3l-0.9-6.2l-0.5-3.2l-0.6-3.8l3.1-0.1h0.1c0.3-0.8,0.5-1.6,0.8-2.4V287    c3.9-12,8.9-23.3,10.3-26.8c0.8-2,3-4.2,5.7-6.4C427.1,253.1,400.6,251.9,379.6,250.2z"/>
			<path class="st0" d="M281.9,316.6c-1,0-2,0.1-3,0.1l0,0c-1.2,0-2.3,0.1-3.5,0.1c-8,0.1-15.5,0-21.8-0.1c-1.9-0.1-3.8-0.1-5.5-0.1    c-8.3-0.3-13.5-0.6-13.5-0.6s-0.2-3.9-0.2-9.7V306c0-3.2,0-7,0.1-11c0.1-1.8,0.1-3.7,0.3-5.6v-0.1c0-0.3,0.1-0.5,0.1-0.8v-0.1h0.1    c0,0.3,0,0.6-0.1,0.8c-0.1,1.9-0.2,3.8-0.3,5.6c-0.1,4.1-0.2,7.9-0.1,11.1c0,5.8,0.2,9.7,0.2,9.7s5.2,0.3,13.5,0.6    c1.7,0.1,3.5,0.1,5.5,0.1c6.3,0.1,13.8,0.3,21.8,0.1c1.1,0,2.3,0,3.4,0l0,0C279.9,316.6,280.9,316.6,281.9,316.6L281.9,316.6z"/>
			<path class="st0" d="M436,308.9c-0.1,0.1-0.1,0.1-0.1,0.2c-0.1,0.1-0.1,0.1-0.1,0.2l0,0l0,0c-0.2,0.2-0.5,0.5-0.6,0.7    s-0.5,0.4-0.6,0.6l0,0c-0.1,0.1-0.3,0.3-0.5,0.4c-0.1,0.1-0.3,0.3-0.5,0.3c-0.3,0.2-0.6,0.4-0.8,0.6c-0.2,0.1-0.5,0.3-0.6,0.4    c-0.1,0.1-0.3,0.1-0.4,0.2c-0.1,0.1-0.2,0.1-0.3,0.1c-0.1,0.1-0.2,0.1-0.3,0.1c-0.6,0.3-1.1,0.6-1.5,0.6h-0.1l0.8,5.5h-0.1    c-1.2,0-2.4-0.1-3.6-0.1c-3.2-3.7-2.3-12.5,0.3-22.2l0.9,6.2c0.2-0.2,0.3-0.3,0.6-0.4c0,0,8.7-2.9,9.6-0.8    C438.8,304.1,437.7,306.6,436,308.9z"/>
			<path class="st0" d="M468.9,287v0.8l-1.2,0.1l-10.9,0.6l0,0l-2.1,0.1h-0.2l-3.3,0.1l-5.7,0.3l-1,0.1l-6.2,0.3v-0.1l-9.2,0.4v-0.1    l9.1-0.4c0-0.7,0.4-1,0.9-1.2l0,0c0.6-0.3,1.4-0.3,1.4-0.3s0.5,0,1.3-0.1c0.8,0,1.9-0.1,3.1-0.1c1.8-0.1,3.9-0.2,5.7-0.3    c0.4,0,0.7-0.1,1-0.1c1.3-0.1,2.3-0.1,2.8-0.2c0.2-0.1,0.5-0.1,0.6,0v0.1c0.2,0,0.4,0.1,0.5,0.1L468.9,287L468.9,287z"/>
			<path class="st0" d="M463.7,254.6c-1.4,6.2-2.6,12.1-2.9,13.3v0.3c-1.5,5.4-3.6,12-5.7,18.5h-0.1c2.1-6.5,4.2-13.1,5.7-18.5    c0,0,0,0,0-0.1c0,0,0,0,0-0.1v-0.1c0.1-0.2,0.1-0.6,0.2-1C461.4,264.9,462.5,259.8,463.7,254.6L463.7,254.6z"/>
			<path class="st0" d="M468.9,313.1v0.1c-0.3,0.1-0.5,0.1-0.7,0.1c-0.8,0.3-1.4,0.6-1.5,1.2c-0.1,0.7-0.1,1.4,0.1,2.1l0,0l0,0    c0-0.1-0.1-0.1-0.1-0.1c-0.2-0.7-0.2-1.4-0.1-2.1c0.1-0.6,0.7-0.9,1.5-1.2C468.3,313.3,468.6,313.2,468.9,313.1z"/>
			<line class="st0" x1="519.9" y1="380.4" x2="519.9" y2="327"/>
			<line class="st0" x1="519.9" y1="304.4" x2="519.9" y2="304.3"/>
			<polygon class="st0" points="121.6,221.1 120.7,228.3 119.7,236.8 116.8,259.1 112.5,293.4 23.3,293.4 32.3,221.1   "/>
			<path class="st2" d="M76.4,249.3L76.4,249.3c-0.3,0-0.5-0.3-0.5-0.6l0.3-13.3L72,248.8c-0.1,0.3-0.3,0.5-0.6,0.5h-5    c-0.2,0-0.4-0.1-0.5-0.3l-1-2.8l-1.8,2.8c-0.1,0.2-0.3,0.3-0.5,0.3h-3c-0.3,0-0.5-0.1-0.5-0.4l-1.9-9.4l-4.9,9.4    c-0.1,0.2-0.3,0.3-0.6,0.3h-14c-0.3,0-0.5-0.3-0.5-0.6c0.1-0.3,0.3-0.6,0.6-0.6h13.7l5.5-10.5c0.1-0.2,0.3-0.3,0.6-0.3    s0.4,0.1,0.5,0.4l2.1,10.4h2.2l2.3-3.5c0.1-0.2,0.3-0.3,0.5-0.3c0.2,0,0.4,0.1,0.5,0.3l1.2,3.5h4.1l5.3-16.5    c0.1-0.3,0.3-0.5,0.6-0.5c0.3,0,0.5,0.2,0.5,0.6l-0.3,13.9l2.1-5.5c0.1-0.3,0.3-0.4,0.6-0.4s0.5,0.2,0.5,0.5l0.5,8h5.8l6.4-15.1    c0.1-0.3,0.4-0.4,0.6-0.4s0.5,0.2,0.5,0.5l0.6,15h1.7l3.1-5.4c0.1-0.2,0.4-0.3,0.6-0.3c0.3,0,0.4,0.2,0.5,0.4l0.6,5.3h8    c0.3,0,0.5,0.3,0.5,0.6c-0.1,0.3-0.3,0.6-0.6,0.6h-8.4c-0.3,0-0.5-0.2-0.5-0.4l-0.5-4.1l-2.4,4.3c-0.1,0.2-0.3,0.3-0.5,0.3h-2.5    c-0.3,0-0.5-0.2-0.5-0.5l-0.5-13.1l-5.7,13.2c-0.1,0.3-0.3,0.4-0.6,0.4h-6.6c-0.3,0-0.5-0.2-0.5-0.5l-0.3-6l-2.3,6.1    C76.9,249.1,76.7,249.3,76.4,249.3z"/>
			<path class="st2" d="M73,276.5C73,276.5,72.9,276.5,73,276.5c-0.3,0-0.5-0.3-0.5-0.6l0.3-13.3L68.5,276c-0.1,0.3-0.3,0.5-0.6,0.5    h-4.9c-0.2,0-0.4-0.1-0.5-0.3l-1-2.8l-1.8,2.8c-0.1,0.2-0.3,0.3-0.5,0.3h-3c-0.3,0-0.5-0.1-0.5-0.4l-1.9-9.4l-4.9,9.4    c-0.1,0.2-0.3,0.3-0.6,0.3h-14c-0.3,0-0.5-0.3-0.5-0.6c0.1-0.3,0.3-0.6,0.6-0.6h13.7l5.5-10.5c0.1-0.2,0.3-0.3,0.6-0.3    s0.4,0.1,0.5,0.4l2.1,10.4h2.2l2.3-3.5c0.1-0.2,0.3-0.3,0.5-0.3c0.2,0,0.4,0.1,0.5,0.3l1.2,3.5h4.1l5.3-16.5    c0.1-0.3,0.3-0.5,0.6-0.5c0.3,0,0.5,0.2,0.5,0.6l-0.3,13.9l2.1-5.5c0.1-0.3,0.3-0.4,0.6-0.4s0.5,0.2,0.5,0.5l0.5,8h5.8l6.4-15.1    c0.1-0.3,0.4-0.4,0.6-0.4s0.5,0.2,0.5,0.5l0.6,15H93l3.1-5.4c0.1-0.2,0.4-0.3,0.6-0.3c0.3,0,0.4,0.2,0.5,0.4l0.6,5.3h8    c0.3,0,0.5,0.3,0.5,0.6c-0.1,0.3-0.3,0.6-0.6,0.6h-8.4c-0.3,0-0.5-0.2-0.5-0.4l-0.5-4.1l-2.4,4.3c-0.1,0.2-0.3,0.3-0.5,0.3h-2.5    c-0.3,0-0.5-0.2-0.5-0.5l-0.5-13.1L84.1,276c-0.1,0.3-0.3,0.4-0.6,0.4h-6.8c-0.3,0-0.5-0.2-0.5-0.5l-0.3-6l-2.3,6.1    C73.4,276.3,73.2,276.5,73,276.5z"/>
			<polygon class="st0" points="94.4,395.1 70.1,395.1 70.1,359.6 82.3,377.4   "/>
			<path class="st0" d="M126.3,345.6c-1.1,0.3-2.1,0.5-2.7,0.6c-0.2,0.1-0.4,0.1-0.5,0.1c-0.1,0-0.3,0.1-0.4,0.1c-0.1,0-0.1,0-0.1,0    h-0.1c0,0,0,0,0,0.1v0.1c0,0,0,0.1-0.1,0.1c0,0,0,0.1-0.1,0.1h0.1c0.1,0,0.1,0,0.1,0c0.6,0,1.3-0.1,1.9-0.3h0.1    c0.6-0.2,1.3-0.5,1.9-0.8l0,0c0,0,0,0,0.1,0C126.5,345.5,126.4,345.6,126.3,345.6z M135.2,391.3L135.2,391.3    c-0.1,0-0.2-0.1-0.3-0.1l0,0c-0.1,0-0.1,0-0.1-0.1c-0.5-0.1-0.9-0.3-1.4-0.5l-1-0.4c-0.3-0.1-0.6-0.3-0.9-0.4    c-0.1-0.1-0.3-0.1-0.5-0.2c-0.1-0.1-0.2-0.1-0.3-0.1l0,0c-0.1,0-0.1-0.1-0.1-0.1c-0.3-0.1-0.5-0.3-0.8-0.5    c-0.1-0.1-0.1-0.1-0.2-0.1c-0.1-0.1-0.2-0.1-0.3-0.2c-0.1-0.1-0.3-0.1-0.3-0.2c-0.1-0.1-0.3-0.2-0.4-0.3c-0.3-0.2-0.5-0.4-0.6-0.6    c-0.2-0.2-0.4-0.4-0.6-0.7c-0.1-0.1-0.2-0.3-0.3-0.4c-0.5-0.8-0.8-1.7-1.2-2.5l-1.2-3.5c-0.1-0.2-0.1-0.3-0.1-0.6l-0.1-2.2    c0-3,0.8-6.3,2.1-9.5c0.1-0.4,0.3-0.8,0.5-1.2c0.2-0.4,0.4-0.8,0.5-1.2c0.2-0.4,0.4-0.8,0.6-1.2l0,0c0.2-0.4,0.4-0.8,0.6-1.2l0,0    c0.2-0.4,0.4-0.8,0.6-1.2c0.6-1.2,1.4-2.3,2-3.4c0-0.1-0.1-0.1-0.1-0.1c-0.1-0.3-0.3-0.7-0.5-1c-0.1-0.1-0.1-0.2-0.2-0.3    c0-0.1-0.1-0.1-0.1-0.1c-0.1-0.2-0.3-0.5-0.4-0.7c-0.2-0.4-0.5-0.8-0.7-1.3c-0.1-0.1-0.2-0.3-0.3-0.5c-1.2-1.9-2.8-3.8-4.8-5.4    l0,0c-0.3-0.2-0.6-0.4-0.8-0.6l0,0c-0.6-0.4-1.2-0.8-1.9-1l0,0c-0.4,0.2-1,0.5-1.8,0.6c-1.3,0.2-6.5,1.3-12,0.2    c-0.6-0.1-1.3-0.3-1.9-0.5c-0.1-0.1-0.3-0.1-0.5-0.1c-2.1-0.7-4.1-1.7-5.8-3.4c-0.2-0.1-0.4-0.3-0.6-0.6c-0.2-0.1-0.3-0.3-0.5-0.6    c-0.1-0.1-0.3-0.3-0.5-0.6c-1.4-1.7-2.4-3.7-3.2-6.3c-2.1-6.7,2.4-13.3,7.6-18.4h-0.1l-43.3-1l-0.5,0.6l0,0l-0.2,0.2l0.6-0.6h0.1    l0.1,0.1l53.3,77.8h23v-3.7C135.4,391.3,135.3,391.3,135.2,391.3z M117.2,513.2c0-0.3-0.1-0.6-0.1-0.9c0-0.1-0.1-0.3-0.1-0.4    c-0.5-1.9-1.7-3.4-3.2-4.3h-0.1l0,0c-0.4-0.2-0.8-0.4-1.3-0.5c-0.2-0.1-0.5-0.1-0.6-0.1c-0.3,0-0.5-0.1-0.7-0.1    c-1,0-1.9,0.2-2.8,0.7c-0.4,0.2-0.7,0.4-1,0.7c-0.1,0.1-0.1,0.1-0.2,0.1c-0.1,0.1-0.1,0.1-0.2,0.2c-0.3,0.3-0.5,0.6-0.8,0.9    c-0.1,0.1-0.1,0.2-0.2,0.3c0,0,0,0,0,0.1c-0.1,0.1-0.1,0.2-0.2,0.3c-0.1,0.1-0.2,0.3-0.3,0.6c-0.1,0.1-0.1,0.2-0.1,0.3    c-0.1,0.1-0.1,0.3-0.1,0.4l0,0c-0.1,0.4-0.2,0.8-0.3,1.3c0,0.1-0.1,0.3-0.1,0.5c0.1-2.4,1.5-4.6,3.5-5.6c0.8-0.4,1.8-0.7,2.8-0.7    c1,0,1.9,0.3,2.7,0.7l0,0h0.1c2.1,1,3.4,3.4,3.4,6c0,1.6-0.5,3.1-1.4,4.3c0.8-1.1,1.4-2.5,1.5-4.1c0-0.1,0-0.2,0-0.3    C117.2,513.6,117.2,513.4,117.2,513.2z M113.8,486.2v6.4h21.8v-6.4H113.8z"/>
			<path class="st0" d="M135.5,492.5v28H111c0.1,0,0.2,0,0.3,0c1.5-0.1,2.9-0.8,3.9-1.8c0.1-0.1,0.1-0.1,0.2-0.2    c0.1-0.1,0.3-0.3,0.4-0.4c0.9-1.2,1.4-2.7,1.4-4.3c0-2.7-1.4-5-3.4-6h-0.1v-15h0.1L135.5,492.5z"/>
			<rect x="113.8" y="411.8" class="st0" width="21.8" height="74.4"/>
			<path class="st0" d="M110.9,520.5H34V293.4h69v24.3c-0.1,0.1-0.3,0.3-0.4,0.4h-0.1l-43.3-1l-0.5,0.6l0,0l-0.2,0.2l-3.8,3.1    c-3.9,3.2-4.8,9.3-1.9,13.6l9.5,13.8v46.9h-5c-4.3,0-7.7,3.7-7.7,8.3c0,0.8,0.1,1.7,0.3,2.4c0.4,1.3,1,2.4,1.9,3.4    c0.9,1,1.9,1.7,3.2,2.1c0.7,0.2,1.5,0.3,2.3,0.3h50.9v95.7c-0.4,0.2-0.7,0.4-1,0.7c-0.1,0.1-0.1,0.1-0.2,0.1    c-0.1,0.1-0.1,0.1-0.2,0.2c-0.3,0.3-0.5,0.6-0.8,0.9c-0.1,0.1-0.1,0.2-0.2,0.3c0,0,0,0,0,0.1c-0.1,0.1-0.1,0.2-0.2,0.3    c-0.1,0.1-0.2,0.3-0.3,0.6c-0.1,0.1-0.1,0.2-0.1,0.3c-0.1,0.1-0.1,0.3-0.1,0.4l0,0c-0.1,0.4-0.3,0.8-0.3,1.3    c0,0.1-0.1,0.3-0.1,0.5c0,0.1,0,0.3,0,0.5c0,0.1,0,0.2,0,0.3v0.1c0,0.2,0,0.3,0.1,0.6c0.3,2.8,2.2,5,4.6,5.7    c0.1,0,0.2,0.1,0.3,0.1c0.1,0,0.1,0.1,0.2,0.1c0.1,0,0.3,0.1,0.5,0.1c0.1,0,0.1,0,0.1,0C110.6,520.5,110.7,520.5,110.9,520.5z"/>
			<polygon class="st0" points="62.3,348.3 62.3,395.1 62.3,395.1   "/>
			<polygon class="st0" points="106.4,411.8 108.2,411.8 108.2,411.8   "/>
			<path class="st0" d="M126.6,345.5c-1.3,0.8-2.7,1.2-4.2,1.3c0.1-0.2,0.1-0.3,0.1-0.3S124.3,346.1,126.6,345.5z"/>
			<path class="st0" d="M148.5,394.3c0,0.3,0,0.6-0.1,0.8h-36l-53.4-77.9l-0.6,0.6l0.7-0.8l43.5,1c-5.2,5-9.7,11.7-7.6,18.4    c4.8,15.9,22.3,12,24.9,11.6c0.8-0.1,1.4-0.3,1.8-0.6c5.4,2.4,8.4,8.2,9.7,11.2c-5.1,8.1-9.4,18.2-5.5,25.2l0,0    c0.3,0.8,0.7,1.7,1.2,2.5c0.1,0.1,0.2,0.3,0.3,0.4c0.1,0.2,0.4,0.4,0.6,0.7c0.2,0.2,0.4,0.4,0.6,0.6c0.1,0.1,0.3,0.2,0.4,0.3    c0.5,0.3,1,0.8,1.6,1c0.1,0.1,0.3,0.1,0.5,0.2c0.1,0.1,0.3,0.1,0.5,0.2c0.3,0.1,0.6,0.3,0.9,0.4c0.3,0.1,0.6,0.3,1,0.4    c0.5,0.2,0.9,0.3,1.4,0.5c0.3,0.1,0.5,0.1,0.7,0.3C139.5,392.7,144.3,393.7,148.5,394.3z"/>
			<path class="st0" d="M157.8,339.1c-9,1-14.7,4.9-16,5.8c-1.6-1.5-3.8-3.6-5.7-5.4c-0.2,0.3-0.4,0.6-0.6,0.8v-5.5    c0.6-1.3,1-2.2,1-2.2c0.1-0.2,0.1-0.5,0.1-0.8c0-0.1,0-0.2,0-0.3l0,0l0,0c0-0.1,0-0.2-0.1-0.3c0-0.1-0.1-0.1-0.1-0.3    c0-0.1-0.1-0.1-0.1-0.3c0-0.1-0.1-0.1-0.1-0.3c0,0,0-0.1-0.1-0.1c-0.1-0.1-0.1-0.2-0.1-0.3c-0.1-0.1-0.1-0.1-0.1-0.2    c-0.1-0.1-0.1-0.1-0.1-0.2c-0.1-0.1-0.2-0.3-0.3-0.5c-0.1-0.1-0.2-0.3-0.3-0.3c-0.3-0.3-0.5-0.7-0.8-1c-0.1-0.2-0.3-0.3-0.5-0.6    c-0.1-0.1-0.2-0.2-0.3-0.3c-0.1-0.1-0.3-0.3-0.5-0.5c-0.1-0.1-0.3-0.3-0.5-0.4c-0.2-0.1-0.3-0.3-0.5-0.5c-0.1-0.1-0.3-0.3-0.5-0.4    c0,0-0.1,0-0.1-0.1c-0.2-0.2-0.4-0.3-0.6-0.6c-0.1-0.1-0.3-0.2-0.3-0.3c-0.1-0.1-0.2-0.2-0.3-0.3c-0.1-0.1-0.1-0.1-0.2-0.1    c-0.3-0.3-0.6-0.5-1-0.8c-0.6-0.5-1.3-1-1.9-1.5c-0.4-0.3-0.7-0.5-1.1-0.8c-1.2-0.8-2.4-1.6-3.5-2.3l22.3,0.5l2.4,4L157.8,339.1z"/>
			<path class="st0" d="M148.2,400.7c-0.1,4.1-0.2,7.9-0.1,11.1H57.3c-2.1,0-4.1-0.9-5.4-2.4c-1.4-1.5-2.3-3.6-2.3-5.9    c0-4.6,3.4-8.3,7.7-8.3h37.1l-12.2-17.8l-12.2-17.8l0,0l-3.9-5.7l-3.9-5.7l0,0l-9.5-13.8c-3-4.3-2.1-10.4,1.9-13.6l3.8-3.1    l0.6-0.6l53.4,77.9h36C148.3,397,148.3,398.9,148.2,400.7z"/>
			<polygon class="st0" points="70.1,359.6 70.1,359.6 70,359.6 66.2,354   "/>
			<polygon class="st0" points="108.2,411.8 108.2,411.8 106.4,411.8 106.4,411.8   "/>
			<path class="st0" d="M386,411.8h-3.5V408C382.4,410.1,384,411.8,386,411.8z"/>
			<path class="st0" d="M392.6,411.8h-1v-0.1C392,411.8,392.3,411.8,392.6,411.8z"/>
			<path class="st0" d="M113.8,411.8v95.7c-0.8-0.5-1.8-0.7-2.8-0.7s-1.9,0.2-2.8,0.7v-95.7H113.8z"/>
			<path class="st0" d="M113.8,507.6v0.1h-0.1L113.8,507.6c-0.9-0.3-1.8-0.6-2.8-0.6s-1.9,0.3-2.8,0.7v-0.1c0.8-0.4,1.8-0.7,2.8-0.7    S112.9,507.2,113.8,507.6C113.7,507.5,113.7,507.5,113.8,507.6L113.8,507.6C113.7,507.6,113.8,507.6,113.8,507.6z"/>
			<path class="st0" d="M392.6,411.8h-1v-0.1C392,411.8,392.3,411.8,392.6,411.8z"/>
			<path class="st0" d="M397.9,513.7c0,2.1-1.5,3.8-3.5,3.8c-1.9,0-3.5-1.7-3.5-3.8c0-0.8,0.3-1.7,0.7-2.3c0.6-0.9,1.6-1.5,2.8-1.5    s2.1,0.6,2.8,1.5C397.6,512,397.9,512.9,397.9,513.7z"/>
			<path class="st0" d="M397.2,507.6L397.2,507.6c-0.8-0.3-1.7-0.6-2.7-0.6c-1,0-1.9,0.3-2.8,0.7h-0.1v-0.1c0.8-0.4,1.8-0.7,2.8-0.7    c0.4,0,0.7,0.1,1.1,0.1c0.5,0.1,1,0.2,1.4,0.4C397,507.5,397.1,507.5,397.2,507.6z"/>
			<path class="st0" d="M211.3,421.6v86c-0.2-0.1-0.5-0.2-0.6-0.3c-0.2-0.1-0.4-0.1-0.6-0.2c-0.1,0-0.2-0.1-0.3-0.1s-0.2-0.1-0.3-0.1    s-0.2,0-0.3-0.1c-0.3,0-0.5-0.1-0.7-0.1s-0.5,0-0.7,0.1c-0.1,0-0.2,0-0.3,0.1c-0.1,0.1-0.2,0-0.3,0.1c-0.1,0-0.2,0.1-0.3,0.1    c-0.2,0.1-0.4,0.1-0.6,0.2c-0.2,0.1-0.5,0.2-0.6,0.3V422C207.6,421.9,209.5,421.8,211.3,421.6z"/>
			<path class="st0" d="M211.3,507.6L211.3,507.6c-0.8-0.3-1.7-0.6-2.7-0.6c-1,0-1.9,0.3-2.8,0.7h-0.1v-0.1c0.2-0.1,0.5-0.2,0.6-0.3    c0.5-0.1,0.9-0.3,1.4-0.3c0.3,0,0.5-0.1,0.7-0.1c0.3,0,0.5,0,0.7,0.1c0.5,0.1,1,0.2,1.4,0.3C210.8,507.4,211.1,507.5,211.3,507.6z    "/>
			<rect x="211.3" y="486.2" class="st0" width="180.4" height="6.4"/>
			<rect x="113.8" y="486.2" class="st0" width="92" height="6.4"/>
			<path class="st0" d="M397.2,411.8v95.7c-0.8-0.4-1.8-0.7-2.8-0.7s-1.9,0.3-2.8,0.7v-95.7H397.2z"/>
			<path class="st0" d="M433.4,486.2c-0.3,2.2-0.6,4.3-1,6.4h-35.3v-6.4H433.4z"/>
			<path class="st0" d="M477.9,492.5h-22.4c0.6-2,1.3-4.2,1.9-6.4h19.7L477.9,492.5z"/>
			<path class="st0" d="M117.2,513.2c0-0.3-0.1-0.6-0.1-0.9c0-0.1-0.1-0.3-0.1-0.4c-0.5-1.9-1.7-3.4-3.2-4.2h-0.1l0,0h0.1    c2.1,1,3.4,3.4,3.4,6c0,1.6-0.5,3.1-1.4,4.3c-0.1,0.1-0.3,0.3-0.4,0.4c-0.1,0.1-0.1,0.1-0.2,0.2c-1.1,1.1-2.6,1.7-4.2,1.7    c-2.7,0-5-1.8-5.9-4.4c0.7,2.1,2.3,3.7,4.3,4.3c0.1,0,0.2,0.1,0.3,0.1c0.1,0,0.1,0,0.2,0.1c0.1,0,0.3,0.1,0.5,0.1    c0.1,0,0.1,0,0.1,0c0.1,0,0.3,0,0.5,0h0.1c0.1,0,0.2,0,0.3,0c3.2-0.1,5.9-2.9,6-6.5c0-0.1,0-0.2,0-0.3    C117.2,513.6,117.2,513.4,117.2,513.2z M104.9,515.3c0-0.1-0.1-0.2-0.1-0.3C104.9,515.1,104.9,515.3,104.9,515.3z M104.7,514.1    c0,0.2,0,0.3,0.1,0.6c0,0.1,0.1,0.3,0.1,0.4C104.8,514.7,104.7,514.4,104.7,514.1L104.7,514.1z M105.1,515.9    c-0.1-0.2-0.1-0.3-0.1-0.6C105,515.5,105.1,515.7,105.1,515.9z M105.1,516c0-0.1,0-0.1-0.1-0.1C105.1,516,105.1,516,105.1,516z"/>
			<path class="st0" d="M113.8,507.7C113.8,507.6,113.7,507.6,113.8,507.7L113.8,507.7c-0.9-0.5-1.8-0.7-2.8-0.7s-1.9,0.3-2.8,0.7    c-1.9,1-3.3,3.1-3.5,5.6c0,0.1,0,0.3,0,0.5c0,0.1,0,0.2,0,0.3c0.2,3.6,2.9,6.4,6.2,6.4c1.6,0,3.1-0.7,4.2-1.7    c0.1-0.1,0.1-0.1,0.2-0.2c0.1-0.1,0.3-0.3,0.4-0.4c0.9-1.2,1.4-2.7,1.4-4.3C117.2,511.1,115.8,508.8,113.8,507.7z M110.9,517.5    c-1.9,0-3.5-1.7-3.5-3.8c0-0.9,0.3-1.7,0.8-2.4c0.6-0.8,1.6-1.4,2.7-1.4c1.2,0,2.2,0.6,2.8,1.6c0.4,0.6,0.6,1.4,0.6,2.2    C114.4,515.8,112.9,517.5,110.9,517.5z"/>
			<path class="st0" d="M114.4,513.7c0,2.1-1.5,3.8-3.5,3.8c-1.9,0-3.5-1.7-3.5-3.8c0-0.9,0.3-1.7,0.8-2.4c0.6-0.8,1.6-1.4,2.7-1.4    c1.2,0,2.2,0.6,2.8,1.6C114.1,512.1,114.4,512.9,114.4,513.7z"/>
			<path class="st0" d="M211.3,507.6C211.3,507.6,211.3,507.6,211.3,507.6c-0.9-0.4-1.8-0.7-2.8-0.7c-1,0-1.9,0.3-2.8,0.7h-0.1    c-2,1-3.4,3.4-3.4,6c0,3.7,2.8,6.8,6.2,6.8c3.4,0,6.2-3,6.2-6.8C214.8,511,213.3,508.7,211.3,507.6z M208.5,517.5    c-1.9,0-3.5-1.7-3.5-3.8c0-0.8,0.3-1.7,0.7-2.3c0.6-0.9,1.6-1.5,2.8-1.5c1.2,0,2.1,0.6,2.8,1.5c0.5,0.6,0.7,1.4,0.7,2.3    C212,515.8,210.4,517.5,208.5,517.5z"/>
			<path class="st0" d="M212,513.7c0,2.1-1.5,3.8-3.5,3.8c-1.9,0-3.5-1.7-3.5-3.8c0-0.8,0.3-1.7,0.7-2.3c0.6-0.9,1.6-1.5,2.8-1.5    c1.2,0,2.1,0.6,2.8,1.5C211.7,512,212,512.9,212,513.7z"/>
			<path class="st0" d="M397.3,507.6L397.3,507.6c-0.9-0.4-1.8-0.7-2.8-0.7s-1.9,0.3-2.8,0.7h-0.1c-2.1,1-3.4,3.4-3.4,6    c0,3.7,2.8,6.8,6.2,6.8c3.4,0,6.2-3,6.2-6.8C400.7,511,399.3,508.7,397.3,507.6z M394.4,517.5c-1.9,0-3.5-1.7-3.5-3.8    c0-0.8,0.3-1.7,0.7-2.3c0.6-0.9,1.6-1.5,2.8-1.5s2.1,0.6,2.8,1.5c0.5,0.6,0.7,1.4,0.7,2.3C397.9,515.8,396.3,517.5,394.4,517.5z"/>
			<path class="st0" d="M135.5,357.7c-1.4,1.3-2.6,2.4-3.3,2.6c0,0-0.2-0.7-0.7-1.8c-1.3-2.9-4.4-8.7-9.7-11.2    c0.4-0.2,0.6-0.5,0.6-0.6c1.5,0,2.9-0.5,4.2-1.3c2.9-0.8,6.7-2.4,8.9-5.1c0.2-0.3,0.4-0.6,0.6-0.8c1.9,1.8,4.1,3.9,5.7,5.4    c1,0.9,1.7,1.6,2.1,1.8C144.9,347.5,139.5,354,135.5,357.7z"/>
			<path class="st0" d="M176.1,341.2c-2.1,1.5-6.4,5-11,9.6l0,0c-5,5.2-10.3,12-12.8,19.3c-0.4,1.1-0.7,2.4-1,3.7    c0,0.1-0.1,0.2-0.1,0.3c0,0.1-0.1,0.2-0.1,0.3c-1,4.3-1.7,9.4-2.2,14.7c-0.1,1.7-0.3,3.5-0.4,5.2c-4.3-0.6-9-1.6-13-2.9    c-3.9-1.3-7.1-3-8.4-5.1c-0.5-0.8-0.8-1.6-1.2-2.5l0,0c-3.9-6.9,0.5-17.1,5.5-25.2c0.5,1.1,0.7,1.8,0.7,1.8    c0.6-0.3,1.9-1.3,3.3-2.6c3.9-3.8,9.3-10.3,8.4-11c-0.3-0.2-1-0.9-2.1-1.8c1.3-0.9,7-4.8,16-5.8c4.3-0.5,9.4-0.3,15.1,1.3    C173.7,340.5,174.7,340.9,176.1,341.2z"/>
			<polygon class="st0" points="70.1,359.6 70.1,395.1 62.3,395.1 62.3,348.3 62.3,348.3 66.2,354   "/>
			<path class="st0" d="M126.6,345.5c-1.3,0.8-2.7,1.2-4.2,1.3c0.1-0.2,0.1-0.3,0.1-0.3S124.3,346.1,126.6,345.5z"/>
			<path class="st0" d="M136.1,339.6c-0.2,0.3-0.4,0.6-0.6,0.8V339C135.7,339.1,135.8,339.4,136.1,339.6z"/>
			<path class="st0" d="M136.1,339.6c-0.2,0.3-0.4,0.6-0.6,0.8V339C135.7,339.1,135.8,339.4,136.1,339.6z"/>
			<g>
				<path class="st0" d="M136.6,331.9c0,0.3-0.1,0.5-0.1,0.8c0,0-0.4,0.8-1,2.2v5.5c-2.1,2.7-5.9,4.3-8.9,5.1     c-2.3,0.7-4.1,0.9-4.1,0.9s-0.6-1.7-1.6-3.1c-0.8-1.1-1.9-2.2-3.2-2.2c0,0-3.4,0.7-3.9-1.5c-0.5-2.2,1.9-1.5,2.4-2.6     c0.5-0.9-0.6-3.8-2.4-5.8c-0.3-0.3-0.6-0.6-1-0.9c-0.3-0.2-0.4-0.5-0.4-0.8c0-0.1,0-0.1,0-0.2c0-0.1,0-0.1,0.1-0.2     c0-0.1,0-0.1,0.1-0.1c0-0.1,0-0.1,0.1-0.1c0.2-0.6,0.6-1.2,1.1-1.8c0.1-0.1,0.2-0.3,0.3-0.4c0.5-0.6,1.1-1.3,1.7-2     c0.1-0.1,0.3-0.3,0.4-0.4c0.3-0.3,0.6-0.7,0.9-1c1-1.1,2-2.3,2.8-3.4c0.1-0.2,0.3-0.3,0.4-0.6c0.1-0.2,0.3-0.3,0.3-0.6     c0.2-0.3,0.4-0.6,0.5-1c0.6,0.3,1.2,0.6,1.8,1c1.1,0.7,2.3,1.5,3.5,2.3c0.4,0.3,0.7,0.5,1.1,0.8c0.6,0.5,1.3,1,1.9,1.5     c0.3,0.3,0.6,0.5,1,0.8c0.1,0.1,0.1,0.1,0.2,0.1c0.1,0.1,0.2,0.1,0.3,0.3c0.1,0.1,0.3,0.2,0.3,0.3c0.2,0.2,0.4,0.3,0.6,0.6     c0,0,0.1,0,0.1,0.1c0.1,0.1,0.3,0.3,0.5,0.4c0.2,0.1,0.3,0.3,0.5,0.5c0.1,0.1,0.3,0.3,0.5,0.4c0.1,0.1,0.3,0.3,0.5,0.5     c0.1,0.1,0.2,0.2,0.3,0.3c0.2,0.2,0.3,0.4,0.5,0.6c0.3,0.3,0.6,0.7,0.8,1c0.1,0.1,0.2,0.3,0.3,0.3c0.1,0.1,0.2,0.3,0.3,0.5     c0.1,0.1,0.1,0.1,0.1,0.2c0.1,0.1,0.1,0.1,0.1,0.2c0.1,0.1,0.1,0.2,0.1,0.3c0,0.1,0,0.1,0.1,0.1c0,0.1,0.1,0.1,0.1,0.3     c0,0.1,0.1,0.1,0.1,0.3c0,0.1,0.1,0.1,0.1,0.3S136.6,331.7,136.6,331.9L136.6,331.9L136.6,331.9     C136.6,331.7,136.6,331.8,136.6,331.9z"/>
				<path class="st0" d="M126.6,345.5c-1.3,0.8-2.7,1.2-4.2,1.3c0.1-0.2,0.1-0.3,0.1-0.3S124.3,346.1,126.6,345.5z"/>
			</g>
			<g>
				<path class="st0" d="M122.5,346.4c0,0,0,0.1-0.1,0.3s-0.3,0.4-0.6,0.6c-0.4,0.2-1,0.5-1.8,0.6c-2.5,0.4-20.2,4.3-24.9-11.6     c-2.1-6.7,2.4-13.3,7.6-18.4c0.1-0.1,0.3-0.3,0.4-0.4c0.5-0.5,1-1,1.6-1.5c3.8-3.4,7.5-5.9,9-6.8c6.3-4.2,9,2.7,7.8,7.3     c-0.1,0.3-0.1,0.5-0.3,0.8c-0.1,0.3-0.3,0.6-0.5,1c-0.1,0.2-0.2,0.3-0.3,0.6c-0.1,0.2-0.3,0.3-0.4,0.6c-0.8,1.1-1.8,2.3-2.8,3.4     c-0.3,0.3-0.6,0.7-0.9,1c-0.1,0.1-0.3,0.3-0.4,0.4c-0.6,0.7-1.2,1.4-1.7,2c-0.1,0.1-0.3,0.3-0.3,0.4c-0.5,0.7-0.9,1.3-1.1,1.8     c0,0.1-0.1,0.1-0.1,0.1c0,0.1,0,0.1-0.1,0.1c0,0.1,0,0.1,0,0.2c0,0.1,0,0.1,0,0.2c0,0.3,0.1,0.6,0.4,0.8c0.3,0.3,0.6,0.6,1,0.9     c1.9,2,3,4.9,2.5,5.8c-0.6,1-3,0.3-2.4,2.6c0.5,2.2,3.9,1.5,3.9,1.5c1.3,0.1,2.4,1.1,3.2,2.2C122,344.7,122.5,346.4,122.5,346.4z     "/>
			</g>
			<path class="st0" d="M391.5,411.6c0.1,0,0.2,0.1,0.3,0.1v0.1H386c-1.9,0-3.5-1.7-3.5-3.8v-59c0-2.1,1.6-3.8,3.5-3.8h6.6    c-1.9,0-3.5,1.7-3.5,3.8v59c-0.1,1.2,0.5,2.3,1.3,3c0.1,0.1,0.1,0.1,0.3,0.2C390.9,411.3,391.1,411.5,391.5,411.6z"/>
			<path class="st0" d="M392.6,411.8h-1v-0.1C392,411.8,392.3,411.8,392.6,411.8z"/>
			<path class="st0" d="M472.5,411.8c-1.7-0.1-3.3-0.3-5-0.7C469.3,411.3,470.9,411.6,472.5,411.8z"/>
			<path class="st0" d="M440.9,404.1L440.9,404.1c-0.1,2.5-0.3,5.1-0.4,7.7h-47.9c-0.1,0-0.1,0-0.3,0c-0.2,0-0.5-0.1-0.6-0.1    c-0.1,0-0.2-0.1-0.3-0.1c-0.3-0.1-0.5-0.2-0.8-0.4c-0.1-0.1-0.1-0.1-0.3-0.2c-0.8-0.7-1.3-1.8-1.3-3v-59c0-2.1,1.6-3.8,3.5-3.8    H434l1.2,7.6l0.8-0.1h0.1c-1.4,10.3-2.5,19.9-3.5,27.7c-0.3,2.3-0.6,4.4-0.8,6.4c-1,8-1.6,13-1.6,13S433.6,402.7,440.9,404.1    C440.8,404.1,440.9,404.1,440.9,404.1z"/>
			<path class="st0" d="M472.5,411.8c-1.7-0.1-3.3-0.3-5-0.7C469.3,411.3,470.9,411.6,472.5,411.8z"/>
			<path class="st0" d="M205.7,422v64.2h-70.3v-74.4h12.6c0,5.8,0.2,9.7,0.2,9.7s0.1,0,0.1,0c0.8,0.1,5.1,0.3,11.7,0.6    c1,0,1.9,0.1,3,0.1h0.2c1.7,0.1,3.3,0.1,5.2,0.1h0.1c1,0,2.1,0.1,3.1,0.1c5.6,0.1,12,0.1,18.6,0    C195.4,422.4,200.5,422.2,205.7,422z"/>
			<path class="st0" d="M292.1,355.8c-7.5-0.6-14.3-1.2-19.6-1.8c-3.7-0.5-7.7-1-11.7-1.6c-12.6-1.9-26-4.3-38.9-6.4    c-7.5-1.3-14.9-2.4-21.7-3.4h-0.1c-1.9-0.3-3.7-0.5-5.5-0.7h-0.1c-1.4-0.1-2.7-0.3-4.1-0.5c-4.8-0.5-9.2-0.8-13.1-0.9    c0,0-0.5,0.3-1.2,0.8c-0.6,0.5-1.5,1.1-2.5,2c-0.4,0.3-0.8,0.6-1.3,1c-0.3,0.1-0.5,0.3-0.7,0.6c-0.5,0.4-1,0.8-1.5,1.3    c-0.5,0.4-1,0.8-1.5,1.3c-0.1,0.1-0.1,0.1-0.1,0.1c-0.5,0.5-0.9,0.9-1.4,1.4c-1.7,1.7-1.8,1.7-1.9,1.9c-0.3,0.3-0.7,0.7-1,1    l-1,1.1c-1.2,1.3-2.3,2.6-3.3,4c-0.2,0.3-0.5,0.6-0.6,0.8c-0.3,0.3-0.5,0.6-0.7,0.9c-0.1,0.1-0.2,0.3-0.3,0.3    c-0.2,0.3-0.4,0.6-0.6,0.8c-0.7,1-1.4,2.2-2.1,3.3c-0.1,0.3-0.3,0.6-0.5,0.8c-0.2,0.3-0.3,0.6-0.5,0.8c-0.2,0.4-0.4,0.8-0.6,1.2    c-0.3,0.4-0.5,0.9-0.6,1.3c-0.5,0.9-0.8,1.8-1.1,2.7c-0.1,0.6-0.3,1.2-0.5,1.8s-0.4,1.3-0.5,1.9c0,0.1-0.1,0.2-0.1,0.3    c0,0.1-0.1,0.2-0.1,0.3c-1,4.3-1.7,9.4-2.2,14.6c-0.1,1.7-0.3,3.5-0.4,5.2c-0.1,0.3-0.1,0.5-0.1,0.8v0.1c-0.1,1.9-0.2,3.8-0.3,5.6    c-0.1,4.1-0.1,7.9-0.1,11.1c0,5.2,0.1,8.9,0.2,9.6c0.8,0.1,5.1,0.3,11.7,0.6c1,0,1.9,0.1,3,0.1h0.2c1.7,0.1,3.3,0.1,5.2,0.1h0.1    c1,0,2.1,0.1,3.1,0.1c5.6,0.1,12,0.1,18.6,0c5.2,0,10.3-0.1,15.5-0.4c1.9-0.1,3.7-0.2,5.5-0.3v0.1c0.3-0.1,0.6-0.1,0.8-0.1    c31.5-2.3,134.3,4.7,150,3.4c15.8-1.3,20.4-3,20.4-3v-61.6C382.4,360.4,328.3,358.5,292.1,355.8z"/>
			<path class="st0" d="M211.3,421.6L211.3,421.6c-1.9,0.2-3.7,0.3-5.5,0.4c-5.2,0.3-10.4,0.4-15.4,0.5c-6.7,0.1-13,0.1-18.6,0    c-1.1,0-2.1,0-3.1-0.1h-0.1c-1.9-0.1-3.6-0.1-5.2-0.1h-0.2c-1,0-2.1-0.1-3-0.1c-7.3-0.3-11.8-0.6-11.8-0.6s0-0.1,0-0.1    c0.8,0.1,5.1,0.3,11.7,0.6c1,0,1.9,0.1,3,0.1h0.2c1.7,0.1,3.3,0.1,5.2,0.1h0.1c1,0,2.1,0.1,3.1,0.1c5.6,0.1,12,0.1,18.6,0    c5.2,0,10.3-0.1,15.5-0.4C207.6,421.9,209.5,421.8,211.3,421.6z"/>
			<path class="st0" d="M460.3,245.2c-1.3,0.7-2.8,1.4-4.4,2.3c0,0,0,0-0.1,0l0,0c0,0,0,0-0.1,0c0,0,0.1-0.1,0.1-0.1    c0.1-0.1,0.2-0.1,0.3-0.1c1-0.6,2.1-1.2,3.2-1.7C459.7,245.5,460,245.4,460.3,245.2z"/>
			<path class="st0" d="M446.5,512.9c-0.1,2.4-0.3,4.8-1.2,5.7h-32.8c0.5-1.3,1.6-3.2,5-3.8c3.9-0.7,9.8-2.7,13.3-6.7    c0.4,0.6,1,1,1.6,1.2C435.8,510.4,442.1,513.9,446.5,512.9z"/>
			<path class="st0" d="M469.5,426.2c-0.5,2.2-0.8,4.3-1.1,6.1c-0.5,2.7-0.8,5-0.8,6.6c-0.6,11.7-5.3,31.3-10.1,47.4    c-0.6,2.2-1.3,4.3-1.9,6.4c-3.5,11.3-6.8,19.6-8,20.1c-0.3,0.1-0.6,0.2-1,0.3h-0.1c-0.4,0.1-0.8,0.1-1.3,0.1c-0.4,0-0.8,0-1.2,0    c-2.2-0.1-4.6-1-6.7-1.8c-0.1-0.1-0.3-0.1-0.4-0.1c-0.5-0.2-1-0.4-1.5-0.6h-0.1c-1.1-0.4-2.1-0.8-2.9-1.2c-0.3-0.1-0.6-0.3-1-0.5    c-0.1-0.1-0.1-0.1-0.1-0.1c-0.2-0.1-0.4-0.3-0.5-0.6c-0.6-0.8-0.8-1.7-0.6-2.7c0.8-4.1,1.6-8.3,2.3-12.8v-0.1    c0.3-2.1,0.6-4.1,1-6.3v-0.1c3.5-23.6,5.7-50.5,7-74.3v-0.1c0.1-2.6,0.3-5.1,0.4-7.6l0,0v-0.1c4,0.8,9.1,1.1,15.5,0.2    c2.1-0.3,3.9-2.8,5.3-6.9c1-2.8,1.9-6.4,2.6-10.6c0-0.2,0.1-0.3,0.1-0.6v0.1l0.1,0.5l3.1,24.3l0.1,0.8L469.5,426.2z"/>
			<path class="st0" d="M502.2,407.8c-0.1,25.4-5.6,104.6-5.6,104.6c-0.2,0.1-0.5,0.1-0.6,0.1c-0.7-3.4-1.7-4.3-1.7-4.3    s-1-0.2-2.4-0.4l0,0c-0.4-0.1-0.8-0.1-1.2-0.1c-0.3,0-0.6-0.1-0.9-0.1c-0.1,0-0.1,0-0.2,0c-0.1,0-0.3,0-0.3,0c-0.6,0-1.4-0.1-2,0    c-2.1,0.1-4.1,0.6-4.6,2c-0.4,0.8-0.7,1.7-1,2.6c-0.6-0.1-1-0.2-1-0.2l-2.4-19.4l-0.8-6.4l-7.7-60l-1.9-14.3l-0.1-0.8    c1.7,0.3,3.3,0.6,5,0.7c0.2,0,0.4,0.1,0.6,0.1c0.5,0,0.8,0.1,1.3,0.1c0.5,0,1,0.1,1.5,0.1l0,0c1.9,0.1,3.8,0.1,5.7-0.1    c0.5,0,0.8-0.1,1.3-0.1H483c1.2-0.1,2.3-0.2,3.4-0.3c1.2-0.1,2.4-0.3,3.6-0.6C493.9,410.2,497.9,409.2,502.2,407.8z"/>
			<path class="st0" d="M487,507.6c-2.1,0.1-4,0.6-4.6,2c-0.4,0.8-0.6,1.7-1,2.6h-0.1c0.3-0.9,0.6-1.8,1-2.6    C483,508.2,484.9,507.7,487,507.6z"/>
			<path class="st0" d="M482.9,411.8c-0.5,0-0.8,0.1-1.3,0.1C482,411.9,482.5,411.8,482.9,411.8L482.9,411.8z"/>
			<path class="st0" d="M496.7,518.6h-16.6c0.1-1,0.6-3.8,1.4-6.5l0,0c0.3-0.9,0.6-1.8,1-2.6c0.6-1.3,2.5-1.8,4.6-2c0.6,0,1.4,0,2,0    c0.1,0,0.3,0,0.3,0c0.1,0,0.1,0,0.2,0c0.3,0,0.6,0.1,0.9,0.1c0.5,0.1,0.8,0.1,1.2,0.1l0,0c1.4,0.2,2.4,0.4,2.4,0.4s1,0.9,1.7,4.3    C496.2,514,496.6,516,496.7,518.6z"/>
			<path class="st0" d="M472.5,411.8c-1.7-0.1-3.3-0.3-5-0.7C469.3,411.3,470.9,411.6,472.5,411.8z"/>
			<path class="st1" d="M467.4,351.3c-0.3,6.2-0.6,12-1,17.5c-0.3,4.1-0.7,8-1.2,11.5c-0.3,2-0.6,4-0.9,5.9v-0.1    c-0.1,0.2-0.1,0.3-0.1,0.6c-0.7,4.2-1.5,7.8-2.6,10.6c-1.5,4.1-3.2,6.6-5.3,6.9c-6.4,0.9-11.5,0.6-15.5-0.2v0.1    c-7.3-1.4-10.7-4.4-10.7-4.4s0.6-5,1.6-13c0.3-2,0.5-4.1,0.8-6.4c1-7.8,2.2-17.3,3.5-27.7H436l0,0l7.4-0.3h0.7l15.8-0.7l2.5-0.1    L467.4,351.3z"/>
			<path class="st1" d="M464.4,386.2L464.4,386.2c0,0.2-0.1,0.3-0.1,0.5c-0.7,4.2-1.5,7.9-2.6,10.7c-1.4,4.1-3.2,6.6-5.3,6.9    c-6.3,0.9-11.5,0.6-15.5-0.2h-0.1l0,0c-7.3-1.4-10.8-4.4-10.8-4.4s0.6-5,1.6-13c0.3-2,0.5-4.1,0.8-6.4c1-7.8,2.2-17.3,3.5-27.7    h0.1c-1.4,10.3-2.5,19.9-3.5,27.7c-0.3,2.3-0.6,4.4-0.8,6.4c-1,8-1.6,13-1.6,13s3.4,3,10.7,4.4v-0.1c4,0.8,9.1,1.1,15.5,0.2    c2.1-0.3,3.9-2.8,5.3-6.9c1-2.8,1.9-6.4,2.6-10.6C464.3,386.5,464.3,386.4,464.4,386.2L464.4,386.2z"/>
			<path class="st1" d="M520.5,326.4c-0.2,0.2-0.4,0.4-0.6,0.6c-1.8,1.7-4.4,2.7-7.3,3.4c-1.5,0.3-3.2,0.6-4.9,0.8c0-0.1,0-0.1,0-0.1    c-1.3,0.1-2.6,0.2-3.9,0.2h-0.5c-6.7,0-13.9-1-19.6-2c-1.9-0.3-3.7-0.7-5.2-1v0.1h-0.1v-0.1l0,0l-0.2-1.1l-0.1-0.6V313    c1-0.1,2.3-0.3,3.7-0.5c0.6-0.1,1.2-0.1,1.9-0.3c3.2-0.5,6.7-1.2,9.8-2.2c3.2-1,5.8-2.3,6.8-4.1c0.2-0.3,0.3-0.6,0.4-1    c0.2-0.7-0.1-2.4-0.5-4.9c-0.1-0.2-0.1-0.3-0.1-0.6c-0.2-1-0.4-2.2-0.6-3.4c-0.2-0.8-0.4-1.7-0.6-2.7c-0.5-2-1-4.1-1.5-6.4v-0.1    c-3.1-12.4-7.4-28-9.9-37c1-1.9,1.8-3.4,2.4-4.5c0.3-0.6,0.5-1,0.7-1.3c0.1-0.3,0.2-0.3,0.2-0.3c5.3,0.9,13.5,3.2,18.1,8.7    c2.1,2.4,7.7,15.3,11.8,30l0,0c0.4,1.5,0.8,2.9,1.2,4.4v0.1c0.5,2.1,1,4.3,1.4,6.4C525.9,306.9,526.2,320.1,520.5,326.4z"/>
			<path class="st1" d="M478.3,328.2L478.3,328.2L478.3,328.2L478.3,328.2z"/>
			<path class="st1" d="M507.7,331.2L507.7,331.2c-1.4,0.1-2.6,0.1-4,0.2c-6.8,0.1-14.2-1-20.1-2c-1.9-0.3-3.7-0.7-5.2-1v-0.1    c1.5,0.3,3.3,0.7,5.2,1c5.7,1,12.9,2,19.6,2h0.5c1.4,0,2.6-0.1,3.9-0.2C507.7,331.1,507.7,331.1,507.7,331.2z"/>
			<path class="st0" d="M478.3,328.2L478.3,328.2C478.3,328.2,478.3,328.2,478.3,328.2L478.3,328.2    C478.3,328.2,478.3,328.2,478.3,328.2C478.3,328.2,478.3,328.2,478.3,328.2L478.3,328.2z"/>
			<path class="st1" d="M462.7,244.3c-0.1,0.1-0.1,0.3-0.2,0.4c0,0.1-0.1,0.1-0.1,0.1l-0.1,1.6l-0.6,8l-0.9,12.6    c-0.1,0.5-0.2,0.8-0.2,1v0.1c0,0.1,0,0.1,0,0.1c0,0.1,0,0.1,0,0.1c-1.5,5.4-3.6,12-5.7,18.5c-0.3-0.1-0.5-0.1-0.6,0    c-0.5,0.1-1.5,0.1-2.8,0.2c-0.3,0-0.7,0.1-1,0.1c-1.8,0.1-3.9,0.2-5.7,0.3c-1.2,0.1-2.3,0.1-3.1,0.1c-0.8,0.1-1.3,0.1-1.3,0.1    s-0.8,0-1.4,0.3l0,0c-0.5,0.1-0.9,0.6-0.9,1.2l-9.1,0.4c0.3-0.8,0.5-1.6,0.8-2.4v-0.1c3.9-12,8.9-23.3,10.3-26.8    c0.8-2,3-4.2,5.7-6.4c3-2.3,6.6-4.5,10-6.4c0,0,0,0,0.1,0l0,0c0,0,0,0,0.1,0c1.6-0.8,3.1-1.6,4.4-2.3c-0.3,0.1-0.6,0.3-1,0.4    c0.4-0.2,0.8-0.4,1.2-0.6c0.1,0,0.2-0.1,0.3-0.1c-0.1,0.1-0.3,0.1-0.5,0.3c0.4-0.1,0.8-0.3,1.2-0.5c0.1,0,0.2-0.1,0.3-0.1l0,0l0,0    c0.1-0.1,0.2-0.1,0.3-0.1C462.4,244.4,462.6,244.4,462.7,244.3z"/>
			<path class="st1" d="M438.3,289.1C438.3,289.1,438.3,289.2,438.3,289.1l-0.2,0.1l-9.2,0.4v-0.1l9.1-0.4c0-0.7,0.4-1,0.9-1.2    C438.6,288.1,438.3,288.5,438.3,289.1z"/>
			<path class="st1" d="M460.3,245.2c-1.3,0.7-2.8,1.4-4.4,2.3l0,0l0,0c0.1-0.1,0.2-0.1,0.3-0.1c1.1-0.6,2.2-1.2,3.2-1.7    C459.7,245.5,460,245.4,460.3,245.2z"/>
			<path class="st1" d="M460.9,267.2l-0.1,0.8v0.3c-1.5,5.4-3.6,12-5.7,18.5h-0.1c2.1-6.5,4.2-13.1,5.7-18.5c0,0,0,0,0-0.1    c0,0,0,0,0-0.1v-0.1C460.7,267.9,460.8,267.6,460.9,267.2z"/>
			<path class="st1" d="M461.8,244.6L461.8,244.6L461.8,244.6c-0.1,0.1-0.2,0.1-0.3,0.1c-0.4,0.1-0.8,0.3-1.2,0.5    c0.1-0.1,0.3-0.1,0.5-0.3C461.1,244.9,461.5,244.7,461.8,244.6z"/>
			<path class="st0" d="M456.8,288.4l-2.1,0.1L456.8,288.4L456.8,288.4z"/>
			<path class="st0" d="M466,246.3c-0.1-0.3-0.1-0.7-0.1-1C465.9,245.6,465.9,245.9,466,246.3z"/>
			<path class="st0" d="M466.1,243.7c0,0.1,0,0.1-0.1,0.2c0,0.1-0.1,0.2-0.1,0.3s0,0.3-0.1,0.5l0,0c-0.6,2.8-1.4,6.4-2.2,9.9    c-1.4,6.2-2.6,12.1-2.9,13.3v0.3c-1.5,5.4-3.6,12-5.7,18.5h-0.1c2.1-6.5,4.2-13.1,5.7-18.5c0,0,0,0,0-0.1c0,0,0,0,0-0.1v-0.1    c0.1-0.2,0.1-0.6,0.2-1c0.5-2.2,1.5-7.3,2.7-12.5C464.5,250.6,465.4,246.5,466.1,243.7z"/>
			<path class="st0" d="M472.8,287C472.8,287,472.8,287.1,472.8,287c-0.1,0.7-0.2,1.4-0.3,2.2c0,0.1-0.1,0.3-0.1,0.5l-0.3-2l-3.3,0.1    l-1.2,0.1l-10.9,0.6v-0.1v-0.1c0,0,0,0,0-0.1s-0.1-0.1-0.1-0.2c-0.1-0.1-0.1-0.3-0.3-0.4c-0.1-0.2-0.3-0.3-0.6-0.5    c-0.1,0-0.1-0.1-0.1-0.1L472.8,287L472.8,287z"/>
			<path class="st3" d="M484.4,239.8c-0.4,0.4-0.8,1-1.3,2c-0.8,1.9-1.7,4.7-2.6,7.8c-0.3,0.1-0.5,0.1-0.7,0.2c-0.1,0-0.1,0-0.1,0.1    c-0.5,0.1-1.1,0.3-1.6,0.3c0-0.1,0-0.1,0-0.1s0,0.1-0.1,0.1c-0.8,0.1-1.6,0.3-2.4,0.3h-0.1c-0.2,0-0.3,0-0.5,0.1    c0-0.1,0-0.1,0-0.1s-0.1,0-0.1,0.1c-1.9,0.1-3.8,0-5.4-0.3c-0.2-0.1-0.5-0.1-0.6-0.1l0,0l0,0c-0.1-0.1-0.3-0.1-0.3-0.1    c-0.3-0.1-0.6-0.3-0.8-0.5c-0.6-0.5-1-1-1.3-1.7c-0.2-0.4-0.3-0.9-0.3-1.3c0-0.1,0-0.2-0.1-0.3c-0.1-0.3-0.1-0.8-0.1-1    c0-0.1,0-0.1,0-0.2c0-0.1,0-0.2,0-0.3l0,0c0.1-0.4,0.2-0.8,0.3-1.3c0.1-0.1,0.1-0.1,0.1-0.1v-0.2c0-0.1,0-0.1,0-0.2    c0-0.1,0-0.1,0-0.1l0,0l0,0l0,0l0,0l0,0c0-0.1,0-0.1,0.1-0.2l0,0l0,0c0.3-1.3,0.2-1.7,0.3-2.2c0,0,0-0.1,0-0.1    c-0.1,0-0.1,0-0.1,0.1c0.1-0.7,0.1-1.5,0.2-2.4c0-0.3,0.1-0.6,0.1-1v-1.1c0.2,0,0.5,0.1,0.6,0.1c3.2,0.4,8.8,0.7,13.1-1.5h0.1    c0.1-0.1,0.2-0.1,0.3-0.1c0.1,0,0.1-0.1,0.2-0.1c0.6-0.3,1.2-0.7,1.7-1.2c0.4,1.6,0.7,3.9,1.4,6.5    C484.3,239.5,484.3,239.7,484.4,239.8z"/>
			<path class="st0" d="M465.9,245.2c0,0.3,0,0.7,0.1,1C465.9,245.9,465.9,245.6,465.9,245.2z"/>
			<path class="st0" d="M466.7,240.3c0,0,0,0.1,0,0.1c-0.1,0.5,0,1-0.3,2.2l0,0l0,0c0,0.1,0,0.1-0.1,0.2l0,0l0,0l0,0l0,0l0,0    c0,0.1,0,0.1,0,0.1c0,0.1,0,0.1,0,0.2v0.1c0,0.1,0,0.1-0.1,0.1c-0.1,0.4-0.2,0.8-0.3,1.3c0-0.1,0-0.3,0.1-0.5c0-0.1,0-0.3,0.1-0.3    c0-0.1,0-0.1,0.1-0.2c0-0.1,0-0.1,0-0.1c0-0.1,0-0.1,0.1-0.1c0,0,0,0,0-0.1v-0.1C466.7,241.4,466.5,240.9,466.7,240.3L466.7,240.3    C466.6,240.3,466.6,240.3,466.7,240.3z"/>
			<path class="st0" d="M482.8,232.8c-0.5,0.4-1.2,0.8-1.7,1.2C481.7,233.7,482.3,233.3,482.8,232.8L482.8,232.8    C482.8,232.8,482.8,232.8,482.8,232.8z"/>
			<path class="st1" d="M430.4,320.9c-1.3-0.2-2.4-0.6-3.2-1.3c-0.3-0.2-0.5-0.4-0.7-0.7c-3.2-3.7-2.3-12.5,0.3-22.2l0.9,6.2    c-0.1,0.1-0.1,0.2-0.2,0.3c0,0.1-0.1,0.1-0.1,0.2c0,0.1-0.1,0.1-0.1,0.2c0,0.1-0.1,0.1-0.1,0.2c0,0.1-0.1,0.1-0.1,0.2    c0,0.1,0,0.1-0.1,0.2c0,0.1,0,0.1-0.1,0.2c0,0.1-0.1,0.3-0.1,0.6s-0.1,0.3-0.1,0.6c0,0.2,0,0.4,0,0.6c0,0.5,0,1,0,1.5    c0,0.1,0,0.2,0,0.3c0,0.3,0.1,0.6,0.1,0.8c0,0.1,0.1,0.3,0.1,0.4c0,0.1,0.1,0.3,0.1,0.4c0,0.1,0,0.2,0.1,0.3    c0.1,0.2,0.1,0.3,0.1,0.6l0,0c0.1,0.1,0.1,0.3,0.1,0.5c0,0.1,0.1,0.1,0.1,0.2c0,0.1,0.1,0.1,0.1,0.2c0,0.1,0.1,0.1,0.1,0.1    c0,0.1,0.1,0.2,0.1,0.3l0,0c0.1,0.1,0.1,0.2,0.1,0.3c0.1,0.1,0.1,0.2,0.1,0.3c0.1,0.1,0.2,0.3,0.3,0.5c0.1,0.1,0.1,0.1,0.3,0.2    c0.1,0.1,0.1,0.1,0.2,0.1c0.1,0,0.1,0.1,0.1,0.1l0,0c0.1,0,0.1,0,0.1,0.1c0.1,0,0.1,0,0.2,0l0.8,5.5L430.4,320.9z"/>
			<path class="st0" d="M460.8,268v0.3V268L460.8,268z"/>
			<path class="st3" d="M466.5,240.3L466.5,240.3c-0.1,0.6,0.1,1.1-0.4,2.9v0.1c0,0.1,0,0.1,0,0.1c-0.1,0-0.1,0.1-0.1,0.1    c0,0,0,0.1,0,0.1c-0.7,2.9-1.6,6.9-2.4,11c-1.2,5.2-2.3,10.3-2.7,12.5l0.9-12.6l0.6-8l0.1-1.6c0-0.1,0.1-0.1,0.1-0.1    c0.1-0.1,0.1-0.2,0.2-0.4c0.1-0.1,0.2-0.3,0.3-0.4C463.8,242.5,465.5,240.8,466.5,240.3z"/>
			<path class="st0" d="M466.7,240.3c0,0,0,0.1,0,0.1c-0.1,0.4-0.1,0.8-0.1,1.1c0,0.1-0.1,0.3-0.1,0.4c0,0.2-0.1,0.4-0.1,0.6v0.1l0,0    c0,0.1-0.1,0.1-0.1,0.2l0,0l0,0l0,0l0,0l0,0c0,0.1,0,0.1,0,0.1c0,0.1,0,0.1,0,0.1v0.2c0,0.1,0,0.1-0.1,0.1    c-0.1,0.4-0.2,0.8-0.3,1.3l0,0c-0.6,2.8-1.4,6.4-2.2,9.9c-1.4,6.2-2.6,12.1-2.9,13.3l0.1-0.8c0.5-2.2,1.5-7.3,2.7-12.5    c0.9-4,1.8-8,2.4-11c0-0.1,0-0.1,0-0.1c0-0.1,0-0.1,0.1-0.1c0,0,0,0,0-0.1v-0.1c0.5-1.8,0.3-2.4,0.4-2.9l0,0    C466.6,240.3,466.6,240.3,466.7,240.3z"/>
			<path class="st0" d="M466.4,242.8L466.4,242.8L466.4,242.8c0,0.1,0,0.1,0,0.1c0,0.1,0,0.1,0,0.2v-0.1    C466.3,243,466.3,242.9,466.4,242.8z"/>
			<path class="st0" d="M483.3,232.4L483.3,232.4C483.3,232.5,483.2,232.5,483.3,232.4c-0.1,0.1-0.1,0.1-0.1,0.1l-0.2,0.2v-0.1    c0,0,0-0.1,0.1-0.1l0,0l0,0C483.2,232.5,483.2,232.5,483.3,232.4z"/>
			<path class="st3" d="M478.4,218.5c0.3,1,0.7,1.8,1.7,2.5c0.8,0.6,1.7,0.3,2.1-0.5c0.6-1,2.3-2.5,3.5-1.3c1,0.9,0.5,3.8-0.5,5.3    l0,0c-0.1,0.1-0.1,0.1-0.2,0.2l0,0c-0.1,0.1-0.1,0.1-0.1,0.1c-0.6,0.6-0.8,1.4-0.8,2.2v0.6c0,0.3,0,0.5,0,0.8    c0,2.7-0.6,3.6-0.8,3.9c-0.1,0.1-0.1,0.1-0.2,0.1l0,0l0,0c-0.1,0.1-0.1,0.1-0.3,0.2c0,0,0,0,0-0.1v0c-0.5,0.5-1.2,0.9-1.7,1.3    c-0.1,0-0.1,0.1-0.2,0.1c-0.1,0.1-0.2,0.1-0.3,0.1h-0.1c-4.3,2-10,1.8-13.1,1.4c-0.3,0-0.5-0.1-0.7-0.1c-1.1-0.1-1.7-0.3-1.7-0.3    c-1.7-0.5-2.6-3.3-3-7c-0.2-1.5-0.3-3.1-0.3-4.8c-0.1-5,0.4-10.4,1-13.7c0.1,0.1,0.2,0.1,0.3,0.1c4.3,2,10.1-0.1,13,2.4    c1.8,1.5,1.7,3.6,2.1,5.5L478.4,218.5z"/>
			<path class="st0" d="M482.8,232.8L482.8,232.8c-0.5,0.5-1.2,0.8-1.7,1.2C481.7,233.6,482.3,233.2,482.8,232.8L482.8,232.8z"/>
			<path class="st0" d="M484.4,226.8v0.6c0.1,3.3-0.6,4.5-0.9,4.8c-0.1,0.1-0.1,0.1-0.2,0.1l-0.1,0.1l0,0c-0.1,0.1-0.1,0.1-0.1,0.1    c0.1-0.1,0.1-0.1,0.2-0.1c0.3-0.3,0.8-1.3,0.8-3.9c0-0.2,0-0.5,0-0.8v-0.6c-0.1-0.8,0.2-1.7,0.8-2.2c0.1-0.1,0.1-0.1,0.1-0.1    C484.6,225.3,484.3,226.1,484.4,226.8z"/>
			<path class="st0" d="M483.2,232.4L483.2,232.4L483.2,232.4C483.2,232.5,483.2,232.5,483.2,232.4z"/>
			<path class="st1" d="M509.9,405.2c-2.6,1-5.2,1.8-7.7,2.6c-4.3,1.3-8.4,2.4-12.3,3.1c-1.2,0.2-2.4,0.4-3.7,0.6    c-1.2,0.1-2.3,0.3-3.3,0.3h-9.7c-0.2,0-0.4,0-0.6-0.1c-1.7-0.1-3.3-0.3-5-0.7l-3.1-24.3l-0.1-0.6c0.3-1.8,0.6-3.7,0.8-5.7    c0.5-3.6,0.8-7.5,1.2-11.7c0.5-5.5,0.8-11.3,1-17.5l10.5-0.5l3.6-0.1v-0.1h0.1l-0.8-5.5l-0.1-0.4l-0.3-2.1l-2.1-14.2    c1.5,0.3,3.3,0.7,5.2,1c5.9,1,13.3,2.1,20.1,2c1.4-0.1,2.6-0.1,3.9-0.2h0.1c0.1,3.3,0.3,6.6,0.4,9.9c0.5,14.1,0.9,28,1.2,39.3    c0.1,2.2,0.1,4.3,0.2,6.4C509.8,397.9,510,405.2,509.9,405.2z"/>
			<polygon class="st1" points="481.7,350.6 478.1,350.7 467.6,351.2 467.6,351.2 478.1,350.7 481.7,350.5   "/>
			<path class="st1" d="M507.7,331.2L507.7,331.2c-1.4,0.1-2.6,0.1-4,0.2c-6.8,0.1-14.2-1-20.1-2c-1.9-0.3-3.7-0.7-5.2-1v-0.1    c1.5,0.3,3.3,0.7,5.2,1c5.7,1,12.9,2,19.6,2h0.5c1.4,0,2.6-0.1,3.9-0.2C507.7,331.1,507.7,331.1,507.7,331.2z"/>
			<path class="st0" d="M482.9,411.8c-0.5,0-0.8,0.1-1.3,0.1c-1.9,0.1-3.8,0.1-5.7,0.1l0,0c-0.5,0-1-0.1-1.5-0.1    c-0.4,0-0.8-0.1-1.2-0.1H482.9z"/>
			<path class="st3" d="M490.6,243.6c0,0-0.1,0.1-0.2,0.3c-0.1,0.3-0.4,0.8-0.7,1.3c-0.6,1.1-1.4,2.7-2.4,4.5    c-4.3,8-11.1,21-11.3,21.5c0-0.2,0.2-1,0.5-2.4c0-0.1,0.1-0.2,0.1-0.3l0,0c0.1-0.2,0.1-0.5,0.1-0.7l0.1-0.7c0-0.2,0.1-0.3,0.1-0.6    l0.2-1.1l0.1-0.6l0.3-1.3c0.1-0.6,0.2-1,0.3-1.6c0.1-0.6,0.2-1,0.3-1.6c0.1-0.3,0.1-0.6,0.2-1c0.7-3.2,1.5-6.6,2.3-9.7    c0.8-3.1,1.7-5.9,2.6-7.8c0.5-0.9,0.8-1.6,1.3-2c0,0.1,1,0.3,2.4,0.8C488.2,241.2,489.7,242.1,490.6,243.6z"/>
			<path class="st1" d="M500.2,300.1c-0.1-0.2-0.1-0.3-0.1-0.6c-0.2-1-0.5-2.1-0.6-3.3c-0.2-0.9-0.4-1.8-0.6-2.8    c-0.5-2-1-4.1-1.5-6.4v-0.1c-1.1-4.5-2.4-9.4-3.7-14.3c-2.3-8.5-4.6-16.9-6.2-22.6c0-0.1,0-0.1,0-0.1c0-0.1,0-0.1,0-0.1    c-2.1,4.1-4.9,9.3-7.1,13.6c-2.3,4.3-4.1,7.7-4.2,7.9c-0.1,0.6-0.3,1.2-0.5,1.8c0,0.1-0.1,0.1-0.1,0.3c-0.3,1.4-0.6,2.7-0.8,3.7    c-0.4,1.5-0.6,2.7-0.7,3.1c-0.2,0.8-0.4,2.1-0.6,3.6c-0.1,0.9-0.3,2-0.5,3.1v0.1c-0.1,0.7-0.2,1.5-0.3,2.3v0.1l0.6,3.9l1.9,12.6    l1,6.9c0,0,0,0-0.1,0v0.1c0.1,0,0.1,0,0.1,0c0.1,0,0.1,0,0.1,0c0.3,0,1-0.1,1.8-0.1l0,0c1-0.1,2.3-0.3,3.7-0.5    c0.6-0.1,1.2-0.1,1.9-0.3c6.2-1,14.4-2.9,16.6-6.2c0.2-0.3,0.4-0.7,0.5-1c0-0.1,0.1-0.3,0.1-0.6    C500.7,303.6,500.5,302.1,500.2,300.1z"/>
			<path class="st1" d="M476.1,312.9C476.1,312.9,476.1,312.9,476.1,312.9L475,306l-1.9-12.6l-0.6-3.8c0-0.1,0-0.2,0.1-0.3v0.1    l0.6,3.9L475,306L476.1,312.9z"/>
			<path class="st1" d="M476.1,313.1c0,0-0.1,0-0.1,0l0,0C476.1,313.1,476.1,313.1,476.1,313.1z"/>
			<path class="st0" d="M478.3,328.2L478.3,328.2C478.3,328.2,478.3,328.2,478.3,328.2L478.3,328.2    C478.3,328.2,478.3,328.2,478.3,328.2C478.3,328.2,478.3,328.2,478.3,328.2L478.3,328.2z"/>
			<path class="st0" d="M478.3,328.2L478.3,328.2C478.3,328.2,478.3,328.2,478.3,328.2L478.3,328.2    C478.3,328.2,478.3,328.2,478.3,328.2C478.3,328.2,478.3,328.2,478.3,328.2L478.3,328.2z"/>
			<path class="st0" d="M478.3,328.2L478.3,328.2l-0.2-1l-0.1-0.5v1.3c-2.8-0.6-4.6-1-5.1-1.2l0.8-3.5h-0.1v-0.1    c-1.5-0.6-3.3-1.7-4.6-2.9c-0.4-0.3-0.7-0.7-1-1c-0.2-0.2-0.3-0.4-0.5-0.6c-0.1-0.1-0.1-0.1-0.1-0.2c-0.3-0.6-0.6-1.1-0.8-1.7l0,0    c-0.2-0.7-0.2-1.4-0.1-2.1c0.1-0.6,0.7-0.9,1.5-1.2c0.2-0.1,0.5-0.1,0.7-0.1c0.3-0.1,0.7-0.1,1.1-0.1c2.4-0.3,5.4-0.1,6.1-0.1l0,0    c0.1,0,0.1,0,0.1,0c0.1,0,0.1,0,0.1,0c0.1,0,0.2,0,0.3,0.1c0.3,0,0.9-0.1,1.5-0.1v13.5l0.1,0.6L478.3,328.2z"/>
			<path class="st0" d="M473.8,323.2v0.1c-1.5-0.6-3.2-1.6-4.6-2.9c-0.4-0.3-0.7-0.7-1-1c-0.2-0.2-0.4-0.5-0.6-0.8    c0.1,0.2,0.3,0.4,0.5,0.6c0.3,0.3,0.6,0.7,1,1C470.5,321.5,472.2,322.6,473.8,323.2z"/>
			<path class="st0" d="M476.1,313.1c0,0-0.1,0-0.1,0l0,0C476.1,313.1,476.1,313.1,476.1,313.1z"/>
			<path class="st0" d="M478.3,328.2C478.3,328.2,478.3,328.2,478.3,328.2c-0.1,0-0.2-0.1-0.3-0.1c-1.5-0.3-2.8-0.6-3.7-0.8    c-0.9-0.2-1.4-0.3-1.4-0.3v-0.1c0.4,0.1,2.3,0.6,5.1,1.2v-1.3l0.1,0.5L478.3,328.2z"/>
			<path class="st0" d="M467.6,351.2c-0.3,6.2-0.6,12-1,17.5c-0.4,4.1-0.8,8-1.2,11.7h-0.1c0.5-3.6,0.8-7.4,1.2-11.5    c0.5-5.5,0.8-11.4,1-17.5l-5,0.2l-2.5,0.1l-15.8,0.7h-0.7l-7.4,0.3l0,0l-0.8,0.1l-1.2-7.6h-48c-1.9,0-3.5,1.7-3.5,3.8v31.4h-0.1    v-20c0,0-54.1-1.9-90.3-4.5v-39.7c1.9-0.1,3.7-0.2,5.5-0.3c0.3-0.1,0.5-0.1,0.8-0.1c3-0.2,6.7-0.3,10.9-0.4    c29.7-0.5,85.3,2.6,117.1,3.6c0.2,0.3,0.5,0.5,0.7,0.7c0.8,0.6,1.9,1,3.2,1.3l-0.3-1.8h0.1l0.3,1.7l3.6,24.3l1.2,7.6l0.9-0.1    l7.4-0.3h0.7l15.8-0.7l2.5-0.1L467.6,351.2L467.6,351.2L467.6,351.2z"/>
			<path class="st0" d="M481.7,350.5l-3.6,0.1l-10.5,0.5v0.1h-0.1l-5,0.2l-2.5,0.1l-15.8,0.7h-0.7l-7.4,0.3l-0.9,0.1l-1.2-7.6    l-3.6-24.3l-0.3-1.7l-0.8-5.5h0.1c0.5-0.1,1-0.3,1.5-0.6c0.1-0.1,0.2-0.1,0.3-0.1c0.1-0.1,0.2-0.1,0.3-0.1    c0.1-0.1,0.3-0.1,0.4-0.2c0.2-0.1,0.5-0.3,0.6-0.4c0.3-0.2,0.6-0.4,0.8-0.6c0.1-0.1,0.3-0.3,0.5-0.3c0.1-0.1,0.3-0.3,0.5-0.4l0,0    c0.2-0.2,0.5-0.4,0.6-0.6c0.2-0.2,0.5-0.5,0.6-0.7l0,0c0.1-0.1,0.1-0.1,0.1-0.2c0.1-0.1,0.1-0.1,0.1-0.2c0.1-0.1,0.2-0.2,0.3-0.3    c0.1-0.1,0.2-0.2,0.3-0.3c0.3-0.3,0.5-0.8,0.7-1.1c0.1-0.1,0.1-0.3,0.2-0.3c0.2-0.3,0.3-0.7,0.5-1c0.1-0.1,0.1-0.2,0.1-0.3    c0.1-0.4,0.3-0.9,0.3-1.3c0-0.1,0-0.3,0-0.4l0,0c0-0.1,0-0.3,0-0.5c0-0.1,0-0.2-0.1-0.3c-0.1-0.2-0.1-0.5-0.2-0.7    c-0.1-0.1-0.1-0.2-0.1-0.3c-1-2.1-9.6,0.8-9.6,0.8c-0.2,0-0.4,0.1-0.6,0.3l-0.9-6.2l-0.5-3.2l-0.6-3.8l3.1-0.1h0.1v0.1l9.2-0.4    v0.1l6.2-0.3l1-0.1l5.7-0.3l3.3-0.1h0.2l2.1-0.1l0,0l10.9-0.6l1.2-0.1l3.3-0.1l0.3,2c0-0.1,0.1-0.3,0.1-0.5v0.2    c0,0.1,0,0.2-0.1,0.3l0.6,3.8l1.9,12.6l1,6.9c-0.5-0.1-3.6-0.2-6.1,0.1c-0.3,0-0.7,0.1-1,0.1c-0.3,0.1-0.5,0.1-0.8,0.2    c-0.8,0.3-1.5,0.6-1.5,1.2c-0.1,0.7-0.1,1.4,0.1,2.1c0,0.1,0,0.1,0.1,0.1c0.2,0.6,0.5,1.1,0.8,1.7c0.1,0.1,0.1,0.1,0.1,0.2    c0.2,0.3,0.3,0.5,0.6,0.8c0.3,0.3,0.6,0.7,1,1c1.4,1.3,3,2.2,4.6,2.9l-0.8,3.5c0,0,0,0,0.1,0v0.1c0,0,0.5,0.1,1.4,0.3    s2.1,0.5,3.7,0.8c0.1,0,0.1,0,0.2,0.1l0,0l0,0l0,0l0,0l2.1,14.2l0.3,2.1l0.1,0.4L481.7,350.5z"/>
			<path class="st0" d="M431,313c-0.6,0.3-1.1,0.6-1.5,0.6h-0.1v-0.1h0.2C429.9,313.5,430.4,313.3,431,313z"/>
			<path class="st0" d="M472.5,289.2c0,0.1-0.1,0.3-0.1,0.5l-0.3-2l-3.3,0.1l-1.2,0.1l-10.9,0.6l0,0l-2.1,0.1h-0.2l-3.3,0.1l-5.7,0.3    l-1,0.1l-6.2,0.3v-0.1l-9.2,0.4v-0.1l9.1-0.4h0.1h0.1l6.2-0.3l1-0.1l5.7-0.3l3.3-0.1l2.1-0.1l11.1-0.6l1-0.1l3.4-0.1L472.5,289.2z    "/>
			<path class="st0" d="M476.1,312.9C476.1,312.9,476.1,312.9,476.1,312.9L475,306l-1.9-12.6l-0.6-3.8c0-0.1,0-0.2,0.1-0.3v0.1    l0.6,3.9L475,306L476.1,312.9z"/>
			<path class="st0" d="M473.8,323.2v0.1c-1.5-0.6-3.2-1.6-4.6-2.9c-0.4-0.3-0.7-0.7-1-1c-0.2-0.2-0.4-0.5-0.6-0.8    c0.1,0.2,0.3,0.4,0.5,0.6c0.3,0.3,0.6,0.7,1,1C470.5,321.5,472.2,322.6,473.8,323.2z"/>
			<path class="st0" d="M478.3,328.2c-0.1,0-0.1,0-0.2-0.1c-1.5-0.3-2.8-0.6-3.7-0.8c-0.9-0.2-1.4-0.3-1.4-0.3v-0.1    c0.4,0.1,2.3,0.6,5.1,1.2c0.1,0,0.1,0,0.2,0.1V328.2z"/>
			<polygon class="st0" points="481.7,350.6 478.1,350.7 467.6,351.2 467.6,351.2 478.1,350.7 481.7,350.5   "/>
			<path class="st0" d="M478.3,328.2L478.3,328.2C478.3,328.2,478.3,328.2,478.3,328.2L478.3,328.2    C478.3,328.2,478.3,328.2,478.3,328.2C478.3,328.2,478.3,328.2,478.3,328.2L478.3,328.2z"/>
			<path class="st0" d="M436,308.9c-0.1,0.1-0.2,0.3-0.3,0.3l0,0c-0.2,0.2-0.5,0.5-0.6,0.7c-0.2,0.2-0.5,0.4-0.6,0.6l0,0    c-0.1,0.1-0.3,0.3-0.5,0.4c-0.1,0.1-0.3,0.3-0.5,0.3c-0.3,0.2-0.6,0.4-0.8,0.6c-0.2,0.1-0.5,0.3-0.6,0.4c-0.1,0.1-0.3,0.1-0.4,0.2    c-0.1,0.1-0.2,0.1-0.3,0.1c-0.1,0.1-0.2,0.1-0.3,0.1c-0.6,0.3-1.1,0.6-1.5,0.6h-0.2c-0.1,0-0.1,0-0.2,0c-0.1,0-0.1,0-0.1-0.1l0,0    c-0.1,0-0.1-0.1-0.1-0.1c-0.1,0-0.1-0.1-0.2-0.1c-0.1-0.1-0.1-0.1-0.3-0.2c-0.1-0.1-0.2-0.3-0.3-0.5c-0.1-0.1-0.1-0.2-0.1-0.3    c-0.1-0.1-0.1-0.2-0.1-0.3l0,0c-0.1-0.1-0.1-0.2-0.1-0.3c0-0.1-0.1-0.1-0.1-0.1c0-0.1-0.1-0.1-0.1-0.2c0-0.1-0.1-0.1-0.1-0.2    c-0.1-0.1-0.1-0.3-0.1-0.5l0,0c-0.1-0.2-0.1-0.3-0.1-0.6c0-0.1,0-0.2-0.1-0.3c0-0.1-0.1-0.3-0.1-0.4c0-0.1-0.1-0.3-0.1-0.4    c-0.1-0.3-0.1-0.6-0.1-0.8c0-0.1,0-0.2,0-0.3c0-0.5,0-1,0-1.5c0-0.2,0-0.4,0-0.6c0-0.2,0-0.3,0.1-0.6c0-0.2,0.1-0.3,0.1-0.6    c0-0.1,0-0.1,0.1-0.2c0-0.1,0-0.1,0.1-0.2c0-0.1,0.1-0.1,0.1-0.2c0-0.1,0.1-0.1,0.1-0.2c0-0.1,0.1-0.1,0.1-0.2    c0-0.1,0.1-0.1,0.1-0.2c0.1-0.1,0.1-0.2,0.2-0.3c0.2-0.2,0.3-0.3,0.6-0.4c0,0,8.7-2.9,9.6-0.8C438.8,304.1,437.7,306.6,436,308.9z    "/>
			<path class="st0" d="M466.4,242.8L466.4,242.8L466.4,242.8c0,0.1,0,0.1,0,0.1c0,0.1,0,0.1,0,0.2v-0.1    C466.3,243,466.3,242.9,466.4,242.8z"/>
			<path class="st0" d="M456.8,288.4l-2.1,0.1h-0.2l-3.3,0.1l-5.7,0.3l-1,0.1l-6.2,0.3v-0.1v-0.1c0-0.7,0.4-1,0.9-1.2l0,0    c0.6-0.2,1.2-0.2,1.2-0.2s1.9-0.1,4.4-0.2c1.1-0.1,2.3-0.1,3.5-0.2c1.2-0.1,2.3-0.1,3.3-0.2c0.5,0,0.8-0.1,1.2-0.1    c0.7-0.1,1.4-0.1,1.6-0.1h0.8c0.2,0,0.4,0.1,0.6,0.1c0.1,0,0.1,0.1,0.2,0.1c0.3,0.1,0.5,0.3,0.6,0.5c0.1,0.1,0.2,0.3,0.3,0.4    c0.1,0.1,0.1,0.1,0.1,0.2c0,0,0,0,0,0.1L456.8,288.4C456.8,288.3,456.8,288.3,456.8,288.4L456.8,288.4z"/>
			<path class="st0" d="M571.5,308.3v0.2c-0.8-0.4-1.8-0.7-2.8-0.7s-1.9,0.3-2.8,0.7v-0.2c0.8-0.4,1.8-0.7,2.8-0.7    C569.7,307.6,570.7,307.9,571.5,308.3z"/>
			<path class="st0" d="M571.5,212.8v95.7c-0.8-0.4-1.8-0.7-2.8-0.7s-1.9,0.3-2.8,0.7v-95.7H571.5z"/>
			<path class="st0" d="M568.7,307.7c-1,0-1.9,0.3-2.8,0.7h-0.1v0.1c0.8-0.4,1.8-0.7,2.8-0.7s1.9,0.3,2.8,0.7v-0.1    C570.6,308,569.7,307.7,568.7,307.7z"/>
			<path class="st0" d="M571.5,308.4C571.5,308.4,571.5,308.4,571.5,308.4l-0.1,0.1c-0.8-0.4-1.8-0.7-2.8-0.7s-1.9,0.3-2.8,0.7v-0.1    c-2,1-3.4,3.4-3.4,6.1c0,3.7,2.8,6.8,6.2,6.8c3.4,0,6.2-3,6.2-6.8C575,311.7,573.6,309.4,571.5,308.4z M568.7,318.2    c-1.9,0-3.5-1.7-3.5-3.8c0-0.8,0.3-1.7,0.7-2.3c0.6-0.9,1.6-1.5,2.8-1.5c1.2,0,2.1,0.6,2.8,1.5c0.5,0.6,0.7,1.4,0.7,2.3    C572.2,316.6,570.6,318.2,568.7,318.2z"/>
			<path class="st0" d="M572.2,314.5c0,2.1-1.5,3.8-3.5,3.8c-1.9,0-3.5-1.7-3.5-3.8c0-0.8,0.3-1.7,0.7-2.3c0.6-0.9,1.6-1.5,2.8-1.5    s2.1,0.6,2.8,1.5C571.9,312.8,572.2,313.6,572.2,314.5z"/>
			<path class="st4" d="M111.1,326.1c0.1,0-0.1,0.3-0.3,0.8c-0.1,0.5-0.2,1.3-0.1,2c0.1,0.8,0.5,1.5,0.7,1.9c0.3,0.4,0.5,0.7,0.5,0.7    c0,0-0.3-0.1-0.6-0.6c-0.3-0.4-0.7-1.1-0.8-2s0-1.7,0.2-2.2C110.8,326.4,111.1,326.1,111.1,326.1z"/>
			<path class="st4" d="M118.3,318.5c-0.1,0,0.1-0.4,0.1-1c0.1-0.6,0-1.5-0.3-2.4c-0.3-0.9-0.8-1.7-1.2-2.1c-0.5-0.5-0.8-0.7-0.7-0.7    c0,0,0.4,0.1,0.8,0.6s1,1.2,1.4,2.2c0.3,1,0.4,2,0.3,2.6C118.5,318.2,118.3,318.5,118.3,318.5z"/>
			<path class="st4" d="M119.5,316.9c-0.1,0,0.1-0.4,0.1-1.1c0-0.6-0.1-1.6-0.6-2.4c-0.5-0.9-1.1-1.5-1.6-1.9    c-0.5-0.3-0.9-0.5-0.9-0.5s0.4,0,1,0.3c0.6,0.3,1.3,1,1.7,1.9c0.5,1,0.6,2,0.5,2.7C119.7,316.6,119.5,316.9,119.5,316.9z"/>
			<path class="st4" d="M117.6,342.5c0,0-0.4,0.3-1.2,0.5c-0.8,0.1-2,0.1-3-0.8c-1-0.8-1.5-2-1.7-2.9c-0.1-0.8,0-1.4,0-1.4    c0.1,0,0,0.6,0.2,1.3c0.2,0.8,0.7,1.9,1.7,2.7c1,0.7,2.1,0.8,2.8,0.8C117,342.7,117.5,342.5,117.6,342.5z"/>
			<path class="st4" d="M114.2,344.7c0,0-0.1,0-0.3-0.1c-0.2-0.1-0.5-0.1-0.9-0.3c-0.7-0.3-1.6-1.1-2.3-2.2c-0.6-1.1-0.8-2.3-0.8-3.1    c0-0.4,0.1-0.8,0.1-1c0.1-0.2,0.1-0.3,0.1-0.3c0.1,0-0.1,0.5,0,1.3c0,0.8,0.3,2,0.9,3c0.6,1,1.4,1.8,2.1,2.2    C113.8,344.6,114.2,344.7,114.2,344.7z"/>
			<path class="st4" d="M199,228.6c0,0.1-0.4,0.3-0.9,0.8c-0.5,0.6-1,1.6-0.8,2.8c0.1,1.2,0.8,2,1.5,2.4c0.6,0.4,1.1,0.5,1,0.6    c0,0-0.5,0-1.2-0.4c-0.6-0.4-1.5-1.3-1.6-2.6c-0.1-1.3,0.4-2.4,1-3C198.6,228.7,199,228.5,199,228.6z"/>
			<path class="st4" d="M196.2,236.2c0,0-0.3-0.2-0.6-0.7c-0.3-0.5-0.6-1.3-0.7-2.1c-0.1-0.9,0.1-1.7,0.3-2.2    c0.2-0.6,0.4-0.8,0.5-0.8c0.1,0-0.6,1.3-0.5,3C195.4,235.1,196.3,236.2,196.2,236.2z"/>
			<path class="st4" d="M197.7,226.1c0,0-0.1,0-0.4-0.1s-0.5-0.3-0.9-0.6c-0.6-0.6-1.4-1.9-1.5-3.4c-0.1-1.5,0.6-2.8,1.2-3.5    c0.3-0.3,0.6-0.6,0.8-0.7c0.2-0.1,0.3-0.2,0.4-0.1c0,0.1-0.5,0.3-1,1c-0.6,0.7-1.2,2-1.1,3.4c0.1,1.5,0.7,2.6,1.4,3.3    C197.3,225.9,197.8,226.1,197.7,226.1z"/>
			<path class="st4" d="M203.9,212.1c-0.1,0,0.2-0.4,0.3-1.1c0.1-0.3,0.1-0.8,0-1.3c-0.1-0.5-0.2-1-0.5-1.5c-0.3-0.5-0.5-0.9-0.8-1.3    s-0.6-0.6-0.9-0.8c-0.6-0.3-1-0.4-1-0.4s0.5-0.1,1.1,0.3c0.3,0.1,0.6,0.4,1,0.8c0.3,0.3,0.6,0.8,0.9,1.3c0.3,0.5,0.4,1,0.5,1.5    c0.1,0.5,0,1-0.1,1.3C204.2,211.7,204,212.2,203.9,212.1z"/>
			<path class="st4" d="M205.5,208c-0.1,0-0.1-0.3-0.3-0.9s-0.6-1.3-1.2-1.9c-0.6-0.6-1.3-1-1.8-1.2c-0.5-0.2-0.8-0.3-0.8-0.3    s0.4-0.1,0.9,0.1c0.6,0.1,1.3,0.6,1.9,1.2c0.6,0.6,1,1.5,1.2,2C205.5,207.7,205.5,208,205.5,208z"/>
			<path class="st4" d="M187.4,232.6c0,0-0.1,0-0.3-0.1c-0.2-0.1-0.5-0.3-0.8-0.5c-0.3-0.3-0.7-0.6-1-1c-0.3-0.5-0.6-1-0.9-1.7    s-0.4-1.3-0.5-1.9c-0.1-0.6,0-1.1,0.1-1.5s0.2-0.8,0.3-1s0.1-0.3,0.2-0.3c0.1,0-0.1,0.6-0.3,1.4c-0.1,0.8,0,2.1,0.5,3.3    c0.5,1.2,1.2,2.2,1.8,2.7C187,232.4,187.5,232.6,187.4,232.6z"/>
			<path class="st4" d="M285.8,125.4c0.1,0.1-0.3,0.3-0.6,1c-0.3,0.6-0.7,1.5-0.9,2.6c-0.2,1-0.1,2,0.1,2.7c0.1,0.7,0.3,1.1,0.3,1.1    c0,0-0.3-0.3-0.5-1c-0.2-0.7-0.3-1.7-0.1-2.9c0.2-1.1,0.6-2,1-2.7C285.5,125.6,285.8,125.4,285.8,125.4z"/>
			<path class="st4" d="M283.3,128.7c0.1,0.1-0.7,1.2-0.6,2.9c0,1.7,0.8,2.9,0.7,2.9c0,0-0.3-0.2-0.5-0.7c-0.3-0.5-0.5-1.3-0.5-2.2    c0-0.9,0.2-1.7,0.5-2.2C283,129,283.3,128.7,283.3,128.7z"/>
			<path class="st4" d="M290.5,119.6c-0.1,0,0.1-0.5,0.3-1.3c0.1-0.8,0.1-1.9-0.3-2.9c-0.4-1.1-1.1-2-1.6-2.4c-0.6-0.5-1-0.6-1-0.7    c0,0,0.5,0.1,1.1,0.5c0.6,0.4,1.4,1.3,1.8,2.4c0.5,1.2,0.5,2.3,0.3,3.1C290.9,119.1,290.6,119.6,290.5,119.6z"/>
			<path class="st4" d="M291.4,119.3c-0.1,0,0.2-0.4,0.4-1c0.2-0.6,0.4-1.5,0.3-2.6c-0.1-1-0.4-2-0.6-2.5c-0.3-0.6-0.5-0.9-0.5-1    c0,0,0.3,0.3,0.7,0.8c0.3,0.6,0.7,1.5,0.8,2.6c0.1,1.1-0.1,2.1-0.4,2.7C291.8,118.9,291.5,119.3,291.4,119.3z"/>
			<path class="st4" d="M290.3,146.3c0,0-0.1,0.1-0.4,0.1c-0.3,0.1-0.7,0.1-1.2,0.1c-1-0.1-2.4-0.6-3.4-2s-1.1-3-0.9-4.1    c0.1-0.6,0.3-1,0.4-1.3s0.2-0.4,0.3-0.4s-0.3,0.6-0.4,1.7s0.1,2.6,1,3.8c0.9,1.3,2.3,1.8,3.2,2    C289.7,146.5,290.3,146.3,290.3,146.3z"/>
			<path class="st4" d="M314,163c0,0.1-1.4-0.3-3.2-0.9c-1.7-0.6-3.1-1.1-3-1.3c0-0.1,1.4,0.3,3.2,0.9C312.6,162.4,314,163,314,163z"/>
			<path class="st4" d="M319.6,163.7c0,0.1-2.2-0.8-4.8-2c-2.6-1.2-4.8-2.2-4.7-2.3c0-0.1,2.2,0.8,4.8,2    C317.5,162.5,319.6,163.6,319.6,163.7z"/>
			<path class="st4" d="M316.6,145.6c-0.1,0.1-1-0.3-2-1s-1.9-1.2-1.9-1.3c0.1-0.1,1,0.3,2,1S316.6,145.6,316.6,145.6z"/>
			<path class="st4" d="M321,159.7c0,0.1-1.8-0.6-3.9-1.5c-2.1-1-3.8-1.7-3.8-1.9c0-0.1,1.8,0.6,3.9,1.5    C319.3,158.8,321.1,159.6,321,159.7z"/>
			<path class="st4" d="M317.7,154.8c0,0.1-0.8-0.1-1.7-0.3c-1-0.2-1.7-0.6-1.7-0.6c0-0.1,0.8,0.1,1.7,0.3    C316.9,154.4,317.7,154.6,317.7,154.8z"/>
			<path class="st4" d="M325.6,154.8c0,0.1-2.1-0.6-4.7-1.5c-2.6-0.9-4.6-1.7-4.6-1.8c0-0.1,2.1,0.6,4.7,1.5    C323.6,153.9,325.6,154.6,325.6,154.8z"/>
			<path class="st4" d="M321.1,150.8c0,0.1-0.8-0.1-1.9-0.3c-1-0.3-1.8-0.6-1.8-0.6c0-0.1,0.8,0.1,1.9,0.3S321.1,150.7,321.1,150.8z"/>
			<path class="st4" d="M325.6,149.3c0,0.1-1.7,0-3.7-0.1c-2-0.1-3.7-0.3-3.7-0.4s1.7,0,3.7,0.1C323.9,149,325.6,149.3,325.6,149.3z"/>
			<path class="st4" d="M140.2,362.3c0,0.1-1.4-0.3-3.2-0.9c-1.7-0.6-3.1-1.1-3-1.3c0-0.1,1.4,0.3,3.2,0.9    C138.9,361.6,140.2,362.3,140.2,362.3z"/>
			<path class="st4" d="M145.8,363c0,0.1-2.2-0.8-4.8-2c-2.6-1.2-4.8-2.2-4.7-2.3c0-0.1,2.2,0.8,4.8,2    C143.7,361.9,145.8,362.9,145.8,363z"/>
			<path class="st4" d="M142.2,359.8c-0.1,0.1-1-0.3-2-1c-1-0.6-1.9-1.2-1.9-1.3c0.1-0.1,1,0.3,2,1    C141.3,359.2,142.2,359.8,142.2,359.8z"/>
			<path class="st4" d="M147.2,359.1c0,0.1-1.8-0.6-3.9-1.5c-2.1-1-3.8-1.7-3.8-1.9c0-0.1,1.8,0.6,3.9,1.5    C145.5,358.2,147.2,359,147.2,359.1z"/>
			<path class="st4" d="M143.8,354.1c0,0.1-0.8-0.1-1.7-0.3c-1-0.2-1.7-0.6-1.7-0.6c0-0.1,0.8,0.1,1.7,0.3    C143.1,353.7,143.8,354,143.8,354.1z"/>
			<path class="st4" d="M151.7,354.1c0,0.1-2.1-0.6-4.7-1.5c-2.6-0.9-4.6-1.7-4.6-1.8c0-0.1,2.1,0.6,4.7,1.5S151.8,354,151.7,354.1z"/>
			<path class="st4" d="M147.2,350.1c0,0.1-0.8-0.1-1.9-0.3c-1-0.2-1.8-0.6-1.8-0.6c0-0.1,0.8,0.1,1.9,0.3    C146.4,349.7,147.2,350,147.2,350.1z"/>
			<path class="st4" d="M151.7,348.6c0,0.1-1.7,0-3.7-0.1c-2-0.1-3.7-0.3-3.7-0.4c0-0.1,1.7,0,3.7,0.1    C150.1,348.4,151.7,348.6,151.7,348.6z"/>
			<path class="st4" d="M531.5,308.6c0,0,0.1,0.3,0.1,0.8c0.1,0.3,0.1,0.6,0.1,1s0.1,0.8,0.1,1.4c0,1-0.1,2.2-0.3,3.6    c-0.2,1.3-0.6,2.8-1,4.3c-0.5,1.5-1.2,2.8-1.8,3.9c-0.6,1.1-1.4,2.1-1.9,2.9c-0.3,0.4-0.6,0.7-0.8,1c-0.3,0.3-0.5,0.6-0.7,0.7    c-0.4,0.3-0.6,0.6-0.6,0.6c-0.1-0.1,0.8-0.8,2.1-2.4c0.6-0.8,1.2-1.7,1.9-2.9c0.6-1.1,1.2-2.4,1.7-3.9s0.8-2.9,1.1-4.2    c0.2-1.3,0.3-2.5,0.3-3.6C531.7,309.9,531.5,308.6,531.5,308.6z"/>
			<path class="st5" d="M480,213.6c-0.1,0-0.4-1.8-1.7-3.6c-1.2-1.8-2.8-2.4-2.8-2.5c0-0.1,0.4,0,1,0.4c0.6,0.3,1.4,1,2,1.9    c0.6,0.9,1,1.9,1.2,2.6C479.9,213,480,213.6,480,213.6z"/>
			<path class="st5" d="M489.2,223.5c-0.1,0-0.1-0.6-0.5-1.6s-1.1-2.2-2.2-2.9c-1.1-0.8-2.3-1-3.2-0.8c-0.8,0.1-1.4,0.3-1.4,0.2    c0,0,0.5-0.3,1.4-0.5c0.8-0.1,2.2,0,3.4,0.8c1.2,0.8,1.9,2.2,2.2,3.2C489.3,222.9,489.3,223.5,489.2,223.5z"/>
			<path class="st5" d="M489.2,218.2c-0.1,0-0.1-0.3-0.4-1c-0.2-0.6-0.7-1.3-1.4-1.8c-0.6-0.5-1.4-0.7-1.9-0.7s-0.8,0.1-0.9,0.1    c0,0,0.3-0.3,0.8-0.3c0.6-0.1,1.4,0.1,2.2,0.6c0.8,0.6,1.3,1.4,1.5,2.1C489.3,217.7,489.2,218.2,489.2,218.2z"/>
			<path class="st5" d="M469,206.2c0,0-0.4-0.3-0.6-1c-0.3-0.7-0.5-1.8-0.3-3.1c0.1-1.2,0.7-2.2,1.1-2.7c0.5-0.6,0.9-0.8,0.9-0.8    c0,0.1-0.3,0.3-0.7,0.9c-0.5,0.6-0.8,1.5-1,2.7c-0.1,1.1,0,2.2,0.3,2.9C468.8,205.7,469.1,206.1,469,206.2z"/>
			<path class="st5" d="M472.6,209c0,0-0.4,0.1-1-0.3c-0.5-0.3-1.3-1.1-1.5-2.4c-0.2-1.2,0.1-2.3,0.5-2.8c0.4-0.6,0.8-0.8,0.8-0.7    c0,0.1-0.3,0.3-0.6,0.9c-0.3,0.6-0.6,1.5-0.5,2.5c0.2,1,0.8,1.7,1.2,2.2C472.3,208.9,472.6,208.9,472.6,209z"/>
			<path class="st5" d="M474.8,196.2c-0.1,0-0.4-0.5-1-1c-0.6-0.6-1.7-1.3-3-1.3c-1.3-0.1-2.4,0.3-3.1,0.9c-0.7,0.6-1.1,1-1.1,0.9    c0,0,0.3-0.6,1-1.2c0.7-0.6,1.9-1.1,3.2-1c1.4,0.1,2.4,0.8,3.1,1.5C474.6,195.7,474.8,196.2,474.8,196.2z"/>
			<path class="st5" d="M477,194.8c-0.1,0.1-1.1-1.5-3-2.4c-1.9-0.9-3.5-0.6-3.5-0.8c0-0.1,0.4-0.1,1.1-0.2c0.7-0.1,1.6,0.1,2.6,0.6    c1,0.5,1.7,1.2,2.2,1.7C476.8,194.3,477,194.8,477,194.8z"/>
			<path class="st5" d="M463.5,207.5c0,0-0.4,0.3-1.2,0.1c-0.7-0.1-1.7-0.8-2.1-2.1c-0.5-1.3,0-2.6,0.4-3.2c0.5-0.7,0.8-0.9,0.8-0.8    c0,0.1-0.3,0.3-0.7,1c-0.3,0.6-0.6,1.8-0.3,2.9c0.3,1.1,1.2,1.8,1.8,2C463.1,207.4,463.5,207.3,463.5,207.5z"/>
			<path class="st5" d="M465,203.4c-0.1,0,0.2-1.5-0.5-3.2c-0.7-1.7-1.9-2.4-1.9-2.4c0,0,0.3,0,0.8,0.4c0.5,0.3,1,1,1.4,1.9    c0.4,0.8,0.5,1.7,0.5,2.4C465.2,203.1,465.1,203.4,465,203.4z"/>
			<path class="st5" d="M458.4,208.9c-0.5-0.3-1-1-1.3-2c-0.3-1-0.4-1.8-0.4-2.5c0.1-0.8,0.3-1,0.3-1c0.1,0-0.2,1.5,0.5,3.3    c0.6,1.7,1.8,2.4,1.8,2.5C459.2,209.3,458.9,209.2,458.4,208.9z"/>
			<path class="st5" d="M493.8,211.7c-0.1,0-0.1-2.1-0.8-4.4c-0.8-2.3-2.2-3.7-2.1-3.7c0.1-0.1,1.5,1.2,2.4,3.6    C494.2,209.6,493.8,211.7,493.8,211.7z"/>
			<path class="st5" d="M495.3,213.8c-0.1,0,0.2-0.8,0.4-2.1c0.2-1.3,0.3-3.1,0.1-5.1c-0.3-2-0.8-3.7-1.2-4.9c-0.5-1.2-0.8-1.9-0.8-2    c0,0,0.1,0.1,0.3,0.5c0.2,0.3,0.5,0.8,0.7,1.3c0.5,1.2,1.1,3,1.4,5c0.3,2,0.1,3.9-0.1,5.2c-0.1,0.6-0.3,1.2-0.3,1.5    C495.4,213.7,495.4,213.8,495.3,213.8z"/>
			<path class="st5" d="M492.8,201.7c0,0-0.5,0.1-1.4-0.1c-0.8-0.1-2.1-0.6-3.1-1.6s-1.9-2.2-2.2-3.1c-0.3-0.9-0.5-1.6-0.4-1.6    c0.1,0,0.2,0.6,0.6,1.5c0.5,0.8,1.2,2,2.2,2.9c1,0.8,2.1,1.5,2.9,1.7C492.2,201.7,492.8,201.7,492.8,201.7z"/>
			<path class="st5" d="M491.4,224c-0.1,0,0.2-0.7,0.3-1.8c0.1-1.1,0.2-2.7-0.1-4.4c-0.3-1.7-1-3.1-1.7-4c-0.6-0.9-1-1.3-1-1.4    c0,0,0.5,0.3,1.2,1.3c0.6,0.8,1.4,2.2,1.7,4c0.3,1.7,0.3,3.4,0.1,4.6C491.7,223.3,491.4,224,491.4,224z"/>
			<path class="st5" d="M494.2,221.5c-0.1,0,0.2-2.1-0.3-4.5c-0.6-2.4-1.8-4-1.7-4c0-0.1,1.4,1.4,2.1,3.9    C494.8,219.4,494.3,221.6,494.2,221.5z"/>
			<path class="st5" d="M483.1,194.3c0,0,0.2,0.3,0.2,1.1c0,0.7-0.2,1.7-0.8,2.5c-0.6,0.9-1.3,1.4-1.9,1.6c-0.5,0.1-0.9,0.1-0.9,0.1    c0-0.1,0.4-0.1,0.8-0.3c0.5-0.3,1.2-0.8,1.6-1.5c0.5-0.8,0.7-1.7,0.8-2.4C483.2,194.8,483.1,194.3,483.1,194.3z"/>
			<path class="st5" d="M480.3,192.9c0,0,0.2,0.3,0.2,1.1c0,0.7-0.2,1.7-0.8,2.5c-0.6,0.9-1.3,1.4-1.9,1.6c-0.5,0.1-0.9,0.1-0.9,0.1    c0-0.1,0.4-0.1,0.8-0.3c0.5-0.3,1.2-0.8,1.6-1.5c0.5-0.8,0.7-1.7,0.8-2.4C480.4,193.4,480.3,192.9,480.3,192.9z"/>
			<path class="st5" d="M477,203.9c0,0-0.4,0.1-0.9,0c-0.6-0.2-1.3-0.8-1.9-1.6c-0.5-0.9-0.7-2-0.7-2.6c0-0.7,0.3-1.1,0.3-1.1    c0.1,0,0,0.5,0,1.1c0.1,0.6,0.3,1.5,0.7,2.4c0.5,0.8,1.1,1.3,1.6,1.6C476.7,203.8,477,203.8,477,203.9z"/>
			<path class="st5" d="M488.6,210.2c0,0-0.3,0.6-1,1c-0.7,0.4-1.9,0.8-3.1,0.4c-1.2-0.4-2.1-1.3-2.5-2.1c-0.5-0.8-0.6-1.4-0.5-1.4    c0.1,0,0.2,0.6,0.7,1.2c0.5,0.8,1.4,1.5,2.4,2c1.2,0.3,2.2,0.1,2.9-0.3C488.2,210.6,488.5,210.1,488.6,210.2z"/>
			<path class="st5" d="M487.6,207.9c0,0-0.1,0.3-0.6,0.3c-0.4,0.1-1,0.1-1.5-0.3c-0.5-0.4-0.9-1-1-1.5c-0.1-0.5-0.1-0.8-0.1-0.8    c0.1,0,0.1,0.3,0.2,0.6c0.1,0.3,0.5,0.8,1,1.3c0.5,0.3,1,0.5,1.4,0.4C487.3,208,487.5,207.8,487.6,207.9z"/>
			<path class="st5" d="M490.1,208.2c-0.1,0.1-0.5-2-1.9-3.8c-1.5-1.9-3.2-2.4-3.2-2.5c0,0,0.5,0,1.2,0.3c0.7,0.3,1.5,1,2.3,1.9    c0.7,1,1.2,2,1.5,2.8C490.1,207.7,490.1,208.2,490.1,208.2z"/>
			<path class="st5" d="M483.9,201.2c0,0.1-1.4,0.1-2.7,1.4c-1.4,1.1-1.8,2.8-1.9,2.7c-0.1,0,0-0.5,0.3-1c0.3-0.6,0.7-1.3,1.4-2    c0.7-0.6,1.5-1,2-1C483.5,201.1,483.9,201.1,483.9,201.2z"/>
			<path class="st5" d="M487,225.3c0,0,0.2,0.2,0.5,0.8c0.1,0.5,0.2,1.4-0.1,2.1c-0.3,0.7-1,1.2-1.4,1.3c-0.5,0.1-0.8,0-0.8,0    c0-0.1,0.3-0.1,0.7-0.3c0.4-0.1,0.8-0.5,1.2-1.1c0.3-0.6,0.3-1.4,0.2-1.8C487,225.6,486.9,225.4,487,225.3z"/>
			<path class="st5" d="M488.9,226.6c0.1,0,0.1,0.3,0.1,1.1c-0.1,0.6-0.3,1.5-0.8,2.4c-0.5,0.9-1.1,1.4-1.7,1.7    c-0.5,0.3-0.8,0.3-0.8,0.3c-0.1-0.1,1.3-0.7,2.2-2.3C488.8,228.3,488.8,226.6,488.9,226.6z"/>
			<path class="st3" d="M480.6,249.7c-0.8,3.1-1.6,6.5-2.3,9.6c-0.1,0.3-0.1,0.6-0.2,1c-0.1,0.6-0.3,1-0.3,1.6    c-0.1,0.6-0.3,1.1-0.3,1.6l-0.3,1.3l-0.1,0.6l-0.2,1.1c0,0.2-0.1,0.3-0.1,0.6l-0.1,0.7c-0.1,0.2-0.1,0.5-0.1,0.7l0,0    c0,0.1-0.1,0.2-0.1,0.3c-0.3,1.4-0.5,2.3-0.5,2.4c-0.1,0.6-0.3,1.1-0.4,1.7c0,0.1-0.1,0.2-0.1,0.3c-0.3,1.5-0.6,2.7-0.9,3.8    c-0.3,1.5-0.6,2.7-0.7,3.1c-0.3,1.3-0.6,3.6-1.1,6.7h-17.3c-0.1-0.1-0.3-0.1-0.5-0.1v-0.1h0.1c2.1-6.5,4.1-13.1,5.7-18.5v-0.3    c0.3-1.3,1.5-7.3,2.9-13.3c0.8-3.5,1.5-7.1,2.2-9.9c0,0.1,0,0.1,0,0.3c0,0.1,0,0.1,0,0.2c0,0.3,0,0.7,0.1,1c0,0.1,0,0.2,0.1,0.3    c0.1,0.4,0.2,0.9,0.3,1.3c0.3,0.6,0.6,1.3,1.3,1.7c0.3,0.2,0.5,0.3,0.8,0.5c0.1,0.1,0.2,0.1,0.3,0.1l0,0l0,0l0,0    c0.2,0.1,0.4,0.1,0.6,0.1c1.6,0.3,3.5,0.5,5.5,0.3c0.2,0,0.4,0,0.6-0.1l0,0c0.8-0.1,1.7-0.2,2.4-0.3l0,0l0,0    c0.5-0.1,1.1-0.2,1.6-0.4c0.1,0,0.1,0,0.1-0.1C480.1,249.8,480.3,249.8,480.6,249.7z"/>
		</g>
		<g>
			<path class="st4" d="M465.1,264.3c-0.1,0,0.5-3,1.2-6.6s1.5-6.6,1.5-6.6c0.1,0-0.5,3-1.2,6.6C465.8,261.4,465.1,264.4,465.1,264.3    z"/>
			<path class="st4" d="M466.9,267.7c-0.1,0,0.5-3.6,1.2-8.1c0.7-4.5,1.4-8.1,1.4-8.1c0.1,0-0.5,3.6-1.2,8.1    C467.6,264.1,466.9,267.7,466.9,267.7z"/>
			<path class="st4" d="M469.4,259.6c-0.1,0,0.3-1.9,0.8-4.1s1-4.1,1.1-4.1c0.1,0-0.3,1.9-0.8,4.1C470,257.9,469.5,259.6,469.4,259.6    z"/>
			<path class="st4" d="M470.2,272.4c-0.1,0,0.5-4.8,1.2-10.7s1.4-10.7,1.5-10.7c0.1,0-0.5,4.8-1.2,10.7    C470.9,267.6,470.2,272.5,470.2,272.4z"/>
			<path class="st4" d="M473.4,261.4c-0.1,0,0.2-2.4,0.6-5.4c0.5-2.9,0.8-5.3,1-5.3c0.1,0-0.2,2.4-0.6,5.4    C473.9,259,473.5,261.4,473.4,261.4z"/>
			<path class="st4" d="M473.7,268.6c-0.1,0,0.5-3.8,1.2-8.4c0.8-4.6,1.4-8.3,1.5-8.3c0.1,0-0.5,3.8-1.2,8.4    C474.4,264.9,473.8,268.6,473.7,268.6z"/>
			<path class="st4" d="M476.8,257.4c-0.1,0,0.1-1.7,0.5-3.6c0.3-2,0.6-3.6,0.7-3.6s-0.1,1.7-0.5,3.6    C477.2,255.8,476.9,257.4,476.8,257.4z"/>
			<path class="st4" d="M464.2,258.3c-0.1,0,0.2-1.8,0.6-4.1c0.5-2.2,0.8-4.1,0.9-4.1c0.1,0-0.2,1.8-0.6,4.1    C464.7,256.5,464.3,258.4,464.2,258.3z"/>
			<path class="st4" d="M202,351.2c0,0-0.1,0-0.4-0.1c-0.3-0.1-0.6-0.1-1-0.2c-0.9-0.2-2.1-0.4-3.7-0.8c-3.1-0.6-7.5-1.3-12.3-1    c-2.4,0.2-4.6,0.8-6.6,1.5c-1.9,0.8-3.6,1.7-4.9,2.8c-1.3,1-2.2,2-2.8,2.7c-0.6,0.7-0.8,1.2-0.9,1.1c0,0,0.1-0.1,0.2-0.3    s0.3-0.6,0.6-0.9c0.6-0.8,1.5-1.7,2.7-2.8c1.3-1,3-2.1,4.9-2.9c2-0.8,4.3-1.4,6.7-1.6c4.9-0.4,9.3,0.4,12.4,1    c1.5,0.3,2.8,0.6,3.7,0.8c0.5,0.1,0.8,0.2,1,0.3C201.9,351.2,202,351.2,202,351.2z"/>
			<path class="st4" d="M245,302c0,0-0.1-0.3-0.4-0.8c-0.1-0.3-0.3-0.6-0.4-1c-0.1-0.4-0.3-0.8-0.4-1.4c-0.3-1-0.5-2.3-0.7-3.7    c-0.2-1.4-0.3-3-0.2-4.6c0.1-1.7,0.3-3.2,0.5-4.6c0.3-1.4,0.6-2.7,1-3.6c0.1-0.5,0.3-1,0.5-1.3c0.1-0.4,0.3-0.7,0.5-1    c0.3-0.6,0.4-0.8,0.5-0.8c0,0-0.1,0.3-0.3,0.8c-0.1,0.3-0.3,0.6-0.4,1c-0.1,0.4-0.3,0.8-0.5,1.3c-0.3,1-0.6,2.2-0.9,3.6    c-0.3,1.4-0.5,2.9-0.5,4.5c-0.1,1.6,0,3.2,0.2,4.6s0.4,2.7,0.6,3.7c0.1,0.5,0.3,1,0.4,1.4c0.1,0.4,0.2,0.8,0.3,1    C244.9,301.7,245.1,302,245,302z"/>
			<path class="st4" d="M378.1,152.9c0,0-0.1-0.1-0.3-0.1c-0.2-0.1-0.5-0.3-0.8-0.6c-0.3-0.2-0.8-0.5-1.2-0.8c-0.5-0.3-1-0.6-1.7-1    c-0.3-0.1-0.6-0.3-1-0.5c-0.3-0.1-0.7-0.3-1.1-0.5c-0.8-0.3-1.6-0.6-2.5-0.9c-1.8-0.6-3.8-1-6-1.2c-2.1-0.1-4.2-0.1-6.1,0.1    c-0.9,0.1-1.8,0.3-2.6,0.5c-0.4,0.1-0.8,0.2-1.2,0.3c-0.4,0.1-0.7,0.2-1.1,0.3c-0.7,0.2-1.3,0.5-1.8,0.6c-0.5,0.2-1,0.4-1.4,0.6    c-0.4,0.1-0.6,0.3-0.8,0.4c-0.2,0.1-0.3,0.1-0.3,0.1s0.1-0.1,0.3-0.1c0.2-0.1,0.5-0.3,0.8-0.4c0.4-0.2,0.8-0.4,1.4-0.6    c0.5-0.2,1.1-0.5,1.8-0.7c0.3-0.1,0.7-0.2,1.1-0.3c0.4-0.1,0.8-0.2,1.2-0.3c0.8-0.2,1.7-0.3,2.6-0.6c1.9-0.3,3.9-0.3,6.1-0.2    c2.2,0.2,4.2,0.6,6.1,1.2c0.9,0.3,1.7,0.6,2.5,1c0.4,0.2,0.8,0.3,1.1,0.5c0.3,0.2,0.7,0.3,1,0.6c0.6,0.3,1.2,0.7,1.7,1    c0.5,0.3,0.9,0.6,1.2,0.8c0.3,0.3,0.6,0.4,0.8,0.6C377.9,152.8,378.1,152.9,378.1,152.9z"/>
		</g>
	</g>
	</svg>