<?xml version="1.0" encoding="utf-8"?>
<!-- Generator: Adobe Illustrator 23.0.6, SVG Export Plug-In . SVG Version: 6.00 Build 0)  -->
<svg version="1.1" id="Layer_1" xmlns="http://www.w3.org/2000/svg" xmlns:xlink="http://www.w3.org/1999/xlink" x="0px" y="0px"
	 viewBox="0 0 1080 1080" style="enable-background:new 0 0 1080 1080;" xml:space="preserve">
<style type="text/css">
	.st0{fill:none;stroke:#FFFFFF;stroke-width:2;stroke-miterlimit:10;}
	.st1{fill:#BEE8FF;stroke:#FFFFFF;stroke-width:2;stroke-miterlimit:10;}
	.st2{fill:none;stroke:#FFFFFF;stroke-miterlimit:10;}
	.st3{fill:none;stroke:#FFFFFF;stroke-width:2;stroke-linecap:round;stroke-linejoin:round;stroke-miterlimit:10;}
	.st4{fill:#FFFFFF;}
	.st5{fill:#FFFFFF;stroke:#FFFFFF;stroke-width:0.75;stroke-miterlimit:10;}
</style>
<g>
	<polygon class="st0" points="466.5,378.5 428.7,378.5 428.7,327.6 	"/>
	<path class="st0" d="M515.2,307.7c-0.1,0-0.2,0.1-0.3,0.1c-0.1,0-0.2,0-0.3,0.1c-0.2,0-0.4,0.1-0.5,0.1c-0.1,0-0.2,0-0.3,0.1
		c-0.1,0-0.2,0-0.3,0.1c-0.2,0-0.4,0.1-0.5,0.1c-0.1,0-0.2,0-0.4,0.1c-0.7,0.1-1.2,0.2-1.6,0.3c-0.1,0-0.1,0-0.2,0c0,0,0,0-0.1,0
		c-0.1,0-0.2,0-0.2,0s-0.1,0-0.2,0c-0.1,0-0.1,0-0.1,0s0,0.2-0.2,0.5c0.2,0,0.5,0,0.8,0c0.1,0,0.2,0,0.2,0c0.4,0,0.9-0.1,1.3-0.2
		c0.2,0,0.4-0.1,0.6-0.1c0.2,0,0.5-0.1,0.7-0.2c0.2-0.1,0.4-0.1,0.6-0.2c0.5-0.2,1.1-0.4,1.6-0.7c0.3-0.1,0.5-0.2,0.8-0.4
		C516,307.5,515.6,307.6,515.2,307.7z M524.1,370.7c-0.6-0.3-1.2-0.6-1.8-0.9c-1.7-0.9-3.1-1.9-4.1-3c-0.3-0.4-0.6-0.7-0.9-1.1
		c-0.8-1.1-1.3-2.3-1.8-3.6c-1.3-2.1-2-4.5-2.2-7c0,0,0,0,0,0c-0.1-0.6-0.1-1.2-0.1-1.8c0-1.4,0.1-2.8,0.4-4.2
		c0.1-0.4,0.1-0.7,0.2-1.1s0.1-0.7,0.2-1.1c0.1-0.4,0.2-0.7,0.3-1.1c0.1-0.4,0.2-0.7,0.3-1.1c0.3-1.2,0.7-2.3,1.2-3.5
		c0.7-1.7,1.5-3.5,2.3-5.2c0.5-0.9,0.9-1.8,1.4-2.8l2.5-4.1c0.7-1,1.4-2.1,2.1-3.1c0,0,0,0,0,0c-1-2.1-2.7-5.2-5.1-8.3
		c-2.5-3-5.7-5.9-9.9-7.7c0,0,0,0,0,0c0,0,0,0-0.1,0c-0.6,0.3-1.5,0.7-2.8,0.8c-3.9,0.6-31.3,6.1-38.7-16.6
		c-0.3-1.1-0.6-2.1-0.7-3.2c0-0.2,0-0.4,0-0.5s0-0.3,0-0.5c0-0.5,0-1.1,0-1.6c0-0.2,0-0.5,0.1-0.7c0,0,0,0,0,0c0,0,0,0,0,0
		c0,0,0-0.1,0-0.1c0-0.1,0-0.2,0-0.4c0-0.1,0-0.2,0.1-0.4c0-0.3,0.1-0.6,0.2-0.9c0,0,0,0,0,0c0.1-0.3,0.1-0.6,0.2-1
		c0.1-0.3,0.2-0.6,0.3-0.9c0.1-0.3,0.2-0.5,0.3-0.8c0.1-0.3,0.2-0.5,0.3-0.8c0.1-0.3,0.2-0.5,0.4-0.8c0.1-0.2,0.2-0.5,0.3-0.7
		c0.1-0.2,0.2-0.5,0.4-0.7c1.3-2.5,3-4.8,5-7.1c0.3-0.3,0.5-0.6,0.8-0.9c1.1-1.2,2.2-2.3,3.4-3.4c0.2-0.2,0.4-0.4,0.6-0.6
		c0.1-0.1,0.1-0.1,0.2-0.2l-67.4-1.5l-0.2,0.2l-0.9,1l1-0.8l82.9,111.4h35.7v-5.4C528,372.4,525.9,371.6,524.1,370.7z M487.6,551
		C487.6,551,487.6,551,487.6,551c-1.6,0-3.1,0-4.6,0.1c0,0,0,0,0,0v0C484.5,551.1,486.1,551,487.6,551z M487.9,402.4v33.8
		c2.8,0.3,5.7,0.7,8.6,1.1v-34.9H487.9z"/>
	<path class="st0" d="M501.7,550.5C501.7,550.5,501.7,550.5,501.7,550.5C501.6,550.5,501.6,550.5,501.7,550.5L501.7,550.5z"/>
	<path class="st0" d="M530.3,402.4v39.8c-11.7-1.8-23.1-3.5-33.8-4.9v-34.9H530.3z"/>
	<path class="st0" d="M516.5,307.4c-2,1.1-4.2,1.7-6.5,1.8c0.2-0.3,0.2-0.5,0.2-0.5S512.9,308.4,516.5,307.4z"/>
	<path class="st0" d="M550.5,377.3L550.5,377.3c0,0.4,0,0.8-0.1,1.2h-55.9l-82.9-111.4l-1,0.8l1.1-1.2l67.4,1.5
		c-8,7.3-14.9,16.7-11.8,26.3c7.4,22.7,34.7,17.1,38.7,16.6c1.3-0.2,2.2-0.5,2.8-0.8l0,0c8.4,3.5,13.1,11.7,15.1,16l0,0
		c-2.2,3.2-4.2,6.6-6,10c-0.9,1.7-1.7,3.5-2.3,5.2c-0.5,1.2-0.9,2.3-1.2,3.5c-1.9,6.3-2,12.3,0.9,17.3l0,0c0.5,1.3,1,2.5,1.8,3.6
		c0.2,0.4,0.6,0.7,0.9,1.1c1,1.1,2.4,2.1,4.1,3c0.6,0.3,1.2,0.6,1.8,0.9c1.9,0.8,4,1.6,6.2,2.3c5.6,1.7,12.1,3,18.1,3.9
		C549.1,377.1,549.8,377.2,550.5,377.3z"/>
	<path class="st0" d="M564.9,298.3c-14,1.4-22.9,7-24.8,8.3c-2.5-2.1-5.9-5.1-8.9-7.7c-0.3,0.4-0.6,0.8-0.9,1.2v-7.9
		c1-1.9,1.6-3.1,1.6-3.1c1.9-5.1-11.4-14.9-21.1-20.3l34.7,0.7L564.9,298.3z"/>
	<path class="st0" d="M550.1,386.4c-0.2,5.8-0.3,11.3-0.2,15.9h-141c-3.3,0-6.3-1.3-8.4-3.5c-2.2-2.2-3.5-5.2-3.5-8.4
		c0-6.6,5.3-11.9,11.9-11.9h57.6l-37.8-50.8l-12.1-16.2l-14.7-19.8c-4.6-6.1-3.3-14.8,2.9-19.4l5.9-4.4l0,0l1-0.8l82.9,111.4h55.9
		C550.3,381.2,550.2,383.9,550.1,386.4z"/>
	<path class="st0" d="M919.2,402.4h-5.5v-5.5C913.7,399.9,916.2,402.4,919.2,402.4z"/>
	<path class="st0" d="M929.6,402.4h-1.5v-0.2C928.6,402.3,929.1,402.4,929.6,402.4z"/>
	<path class="st0" d="M496.5,402.4v34.9c-2.9-0.4-5.8-0.7-8.6-1.1v-33.8H496.5z"/>
	<path class="st0" d="M929.6,402.4h-1.5v-0.2C928.6,402.3,929.1,402.4,929.6,402.4z"/>
	<path class="st0" d="M784.1,508.8c-0.2,1-0.3,2.1-0.5,3.3l0-0.3c0,0.2-0.1,0.5-0.1,0.7l-0.5-2.9l-5.1,0.2l-1.8,0.1l-17,0.8
		c0,0,0,0,0,0l-3.2,0.1l-0.3,0l-5.2,0.2l-8.9,0.4l-1.6,0.1l-9.7,0.4c0,0,0-0.1,0-0.1l-14.3,0.6c0,0,0-0.1,0-0.1l14.2-0.6
		c0-1,0.6-1.5,1.4-1.7c0,0,0,0,0,0c0.9-0.4,2.1-0.4,2.1-0.4s0.8,0,2-0.1c1.2,0,2.9-0.1,4.8-0.2c2.8-0.2,6.1-0.3,8.9-0.5H784.1z"/>
	<path class="st0" d="M784.6,517.9h-0.1l-0.9-5.4c0-0.1,0-0.3,0.1-0.4l0,0.2L784.6,517.9z"/>
	<path class="st0" d="M824.4,517.9L824.4,517.9c-0.8-2.8-1.5-5.9-2.4-9.1h0.1C822.9,512,823.7,515.1,824.4,517.9z"/>
	<path class="st0" d="M992.9,508.8v9.1H862.2c-0.6-3-1.4-6.1-2.2-9.1H992.9z"/>
	<path class="st0" d="M487.6,551c-1.5,0-3.1,0.1-4.6,0.1c0,0,0,0,0,0c0,0,0,0,0,0h0C484.5,551,486,551,487.6,551
		C487.6,551,487.6,551,487.6,551z"/>
	<path class="st0" d="M501.6,550.5C501.6,550.5,501.6,550.5,501.6,550.5c-0.5,0-0.9,0.1-1.4,0.1
		C500.7,550.5,501.1,550.5,501.6,550.5z"/>
	<path class="st0" d="M530.3,325c-2.2,1.9-4.1,3.4-5.1,3.8c0,0-0.4-1-1.1-2.6c-2-4.2-6.7-12.5-15.1-16c0.6-0.3,0.9-0.7,1-1
		c2.3,0,4.5-0.7,6.5-1.8c4.5-1.2,10.4-3.4,13.8-7.3c0.3-0.4,0.6-0.8,0.9-1.2c3,2.6,6.4,5.6,8.9,7.7c1.5,1.3,2.7,2.3,3.2,2.6
		C544.8,310.3,536.4,319.6,530.3,325z"/>
	<path class="st0" d="M593.3,301.3c-3.2,2.2-10,7.1-17.1,13.8l0,0c-7.8,7.4-16,17.1-19.9,27.6c-0.6,1.6-1.1,3.4-1.6,5.3
		c0,0.1-0.1,0.3-0.1,0.4s-0.1,0.3-0.1,0.4c-1.6,6.2-2.7,13.5-3.4,21c-0.2,2.5-0.4,5-0.6,7.5c-6.6-0.9-14-2.3-20.2-4.2
		c-6-1.9-11-4.3-13-7.3c-0.8-1.1-1.3-2.3-1.8-3.6l0,0c-6-9.9,0.7-24.4,8.6-36c0.7,1.6,1.1,2.6,1.1,2.6c1-0.4,2.9-1.8,5.1-3.7
		c6.1-5.4,14.5-14.7,13-15.8c-0.5-0.3-1.6-1.3-3.2-2.6c2-1.3,10.9-6.9,24.8-8.3c6.7-0.7,14.6-0.4,23.4,1.8
		C589.5,300.4,591.2,300.8,593.3,301.3z"/>
	<polygon class="st0" points="428.7,327.6 428.7,378.5 416.6,378.5 416.6,311.4 	"/>
	<path class="st0" d="M516.5,307.4c-2,1.1-4.2,1.7-6.5,1.8c0.2-0.3,0.2-0.5,0.2-0.5S512.9,308.4,516.5,307.4z"/>
	<path class="st0" d="M531.2,298.9c-0.3,0.4-0.6,0.8-0.9,1.2v-2C530.6,298.4,530.9,298.7,531.2,298.9z"/>
	<path class="st0" d="M531.2,298.9c-0.3,0.4-0.6,0.8-0.9,1.2v-2C530.6,298.4,530.9,298.7,531.2,298.9z"/>
	<g>
		<path class="st0" d="M531.9,289.1c0,0-0.6,1.2-1.6,3.1v7.9c-3.3,3.9-9.2,6.1-13.8,7.3c-3.6,1-6.4,1.3-6.4,1.3s-0.9-2.4-2.5-4.5
			c-1.2-1.6-2.9-3.1-4.9-3.2c0,0-5.3,1-6.1-2.1c-0.8-3.2,3-2.2,3.8-3.7c0.7-1.3-1-5.4-3.8-8.3c-0.5-0.5-1-0.9-1.5-1.3
			c-3.3-2.4,8-10.4,12-16.9l3.6,0.1C520.5,274.2,533.8,283.9,531.9,289.1z"/>
		<path class="st0" d="M510.8,268.8l-3.6-0.1c0.3-0.5,0.6-1,0.8-1.4C508.9,267.7,509.8,268.2,510.8,268.8z"/>
		<path class="st0" d="M516.5,307.4c-2,1.1-4.2,1.7-6.5,1.8c0.2-0.3,0.2-0.5,0.2-0.5S512.9,308.4,516.5,307.4z"/>
	</g>
	<g>
		<path class="st0" d="M510.2,308.7c0,0,0,0.2-0.2,0.5s-0.5,0.6-1,1l0,0c-0.6,0.3-1.5,0.7-2.8,0.8c-3.9,0.5-31.3,6.1-38.7-16.6
			c-3.2-9.6,3.8-19.1,11.8-26.3c0.2-0.2,0.4-0.4,0.6-0.6c6.7-5.9,13.9-10.3,16.5-11.9c9.7-6,13.9,3.8,12.1,10.5
			c-0.1,0.4-0.2,0.7-0.4,1.1c-0.2,0.5-0.5,0.9-0.8,1.4c-4,6.5-15.3,14.5-12,16.9c0.5,0.4,1,0.8,1.5,1.3c2.9,2.9,4.6,7,3.8,8.3
			c-0.9,1.5-4.6,0.5-3.8,3.7c0.8,3.2,6.1,2.1,6.1,2.1c2,0.2,3.7,1.6,4.9,3.2C509.3,306.3,510.2,308.7,510.2,308.7z"/>
	</g>
	<path class="st0" d="M928.1,402.1v0.2h-8.8c-3,0-5.5-2.5-5.5-5.5v-84.4c0-3,2.5-5.5,5.5-5.5h10.3c-3,0-5.5,2.5-5.5,5.5v84.4
		C924,399.4,925.8,401.5,928.1,402.1z"/>
	<path class="st0" d="M929.6,402.4h-1.5v-0.2C928.6,402.3,929.1,402.4,929.6,402.4z"/>
	<path class="st0" d="M994,396.7c0,1.3-0.4,2.4-1.1,3.3c-1,1.4-2.7,2.3-4.5,2.3h-58.9c-0.5,0-1-0.1-1.5-0.2c-2.3-0.6-4-2.8-4-5.3
		v-84.4c0-3,2.5-5.5,5.5-5.5h58.6c3.1,0,5.6,2.5,5.6,5.6L994,396.7z"/>
	<path class="st0" d="M639.3,416.9v39.2c-12.5-0.9-23.8-1.8-32.6-2.8c-6.5-0.7-13.2-1.6-20.2-2.6c-18.2-2.5-37.5-5.7-56.2-8.5v-39.8
		h19.6c0,7.7,0.3,13.1,0.3,13.8c0,0.1,0,0.1,0,0.1S593.8,419.1,639.3,416.9z"/>
	<path class="st0" d="M793.1,410.3c-0.2-0.1-0.4-0.2-0.6-0.4c-0.6-2.7-0.5-5.8-3.2-7.9c-4.5-3.6-13.5-0.6-20.2-3.4
		c-0.2-0.1-0.3-0.1-0.5-0.2c-1,4.7-1.8,12.4-1.6,19.6c-1.1,0-2.3-0.1-3.5-0.1c-1.6-0.1-3.3-0.1-4.9-0.2c-2.8-0.1-5.6-0.2-8.5-0.3
		c-1.9-0.1-3.7-0.1-5.6-0.2c0,0,0,0,0,0c-1.5,0-3-0.1-4.5-0.2c-0.5,0-1.1,0-1.7-0.1c-1.7,0-3.3-0.1-5-0.2c-1,0-2.1-0.1-3.1-0.1
		c-1.7-0.1-3.4-0.1-5.1-0.2c-0.9,0-1.8,0-2.7-0.1c-1,0-2,0-2.9-0.1c-1.6,0-3.1-0.1-4.7-0.1c-0.1,0-0.3,0-0.4,0
		c-1.8,0-3.5-0.1-5.2-0.1c-0.9,0-1.7,0-2.6-0.1c-1.7,0-3.4-0.1-5.1-0.1h-0.2c-1.6,0-3.2-0.1-4.8-0.1c-1.1,0-2.2,0-3.3,0
		c-0.9,0-1.8,0-2.6,0c-0.4,0-0.9,0-1.3,0c-0.6,0-1.3,0-1.9,0c-0.3,0-0.6,0-0.9,0s-0.6,0-0.9,0c-14.7-0.1-27.2,0-36.1,0.6
		c-0.4,0-0.9,0-1.3,0.1c-2.9,0.2-5.7,0.3-8.6,0.5c-44.3,2.1-86.9-0.5-89.1-0.6c-0.1,0-0.1,0-0.1,0s-0.3-5.5-0.3-13.8v-0.1
		c0-4.6,0-10.1,0.2-15.9c0.1-2.6,0.2-5.2,0.4-7.9c0,0,0-0.1,0-0.1c0-0.4,0-0.7,0.1-1.1c0,0,0-0.1,0-0.1c0-0.3,0-0.6,0.1-0.9
		c0.1-0.9,0.1-1.9,0.2-2.9c0.1-1.3,0.2-2.5,0.3-3.8c0.7-7.4,1.8-14.7,3.4-20.9c0-0.1,0.1-0.3,0.1-0.4c0-0.1,0.1-0.3,0.1-0.4
		c0.5-1.9,1-3.6,1.6-5.3c2.7-7.2,7.4-14.1,12.6-20c0.7-0.8,1.4-1.6,2.2-2.4c1.7-1.8,3.4-3.5,5.1-5.2c2.6-2.5,5.3-4.8,7.7-6.7
		c0.8-0.7,1.6-1.3,2.3-1.9c1.5-1.2,2.9-2.2,4.1-3.1c0.6-0.4,1.2-0.8,1.7-1.2c0.5-0.4,0.8-0.6,1.2-0.8c0,0,0.1-0.1,0.1-0.1
		c1.2-0.8,1.9-1.2,1.9-1.2c35.4,0.7,99.4,13.8,147.6,19.3c48.1,5.6,170.9,9.4,170.9,9.4v88.2c0,0-1.2,0.4-4.3,1
		c-0.1,0-0.2,0-0.4,0.1c-0.2,0-0.3,0.1-0.5,0.1c-0.9,0.2-1.9,0.4-3,0.5c-0.3,0.1-0.6,0.1-1,0.2c-2.3,0.3-5.1,0.7-8.5,1.2
		c-2.8,0.3-6.2,0.7-9.9,1c-1.3,0.1-2.6,0.2-4,0.3c-2.4,0.2-6.1,0.2-10.8,0.2h-2.9c-0.4,0-0.9,0-1.4,0c-0.9,0-1.9,0-2.8,0
		c-6.3-0.1-13.8-0.3-22.1-0.6c-1.8-0.1-3.5-0.1-5.4-0.2c-0.8,0-1.6-0.1-2.4-0.1c-1.6,0-3.2-0.1-4.9-0.2c-1.2,0-2.4-0.1-3.6-0.1
		c-0.3,0-0.7,0-1,0c-1.2-0.1-2.4-0.1-3.7-0.1c-2.5-0.1-5-0.2-7.5-0.3h0c-3.4-0.1-6.8-0.3-10.3-0.4h0c1.6-2,2.2-6.3,0.7-7.6
		c-1.9-1.7-4.5,0.4-5.4,1.9c-0.7,1.1-2.1,1.5-3.3,0.7c-1.5-0.9-2.2-2.2-2.6-3.6"/>
	<path class="st0" d="M757.2,508.7H751c2-0.1,3.6-0.2,4.4-0.3c0.3-0.1,0.7-0.1,1,0c0,0,0,0.1,0,0.1
		C756.7,508.5,757,508.6,757.2,508.7z"/>
	<path class="st1" d="M792.1,456.2C792.1,456.3,792.1,456.3,792.1,456.2L792.1,456.2L792.1,456.2z"/>
	<path class="st0" d="M773.3,448.9c0,0.5,0,1,0.1,1.5C773.3,449.9,773.3,449.4,773.3,448.9z"/>
	<path class="st0" d="M774.5,441.8c0,0,0,0.1,0,0.2c-0.1,0.7,0,1.4-0.4,3.2c0,0,0,0,0,0c0,0,0,0,0,0c0,0.1,0,0.2-0.1,0.3
		c0,0,0,0,0,0c0,0,0,0,0,0c0,0,0,0,0,0v0c0,0,0,0,0,0c0,0.1,0,0.1,0,0.2c0,0.1,0,0.2,0,0.3v0.2c0,0.1,0,0.1-0.1,0.2
		c-0.1,0.6-0.3,1.2-0.5,1.8v0c-1,4-2.2,9.1-3.4,14.1c-2.1,8.8-4,17.3-4.5,19.1l0,0.4c-2.4,7.7-5.6,17.2-8.8,26.5l-0.1,0
		c3.2-9.3,6.5-18.7,8.8-26.4c0,0,0,0,0-0.1c0,0,0,0,0-0.1v-0.1c0.1-0.3,0.2-0.8,0.3-1.4c0.7-3.2,2.4-10.5,4.2-17.9
		c1.4-5.7,2.8-11.5,3.8-15.7c0-0.1,0-0.1,0-0.2c0-0.1,0-0.2,0.1-0.2c0,0,0,0,0-0.1v-0.1c0.7-2.6,0.5-3.4,0.6-4.2c0,0,0,0,0,0
		C774.4,441.8,774.4,441.8,774.5,441.8z"/>
	<path class="st0" d="M796.1,433.2c-6.7,3.2-15.5,2.8-20.4,2.2c-0.3,0-0.7-0.1-1-0.1v1.6c0,0.6-0.1,1-0.1,1.5
		c-0.1,1.3-0.2,2.5-0.3,3.5c-1.6,0.7-4.2,3.1-5.5,5.1c-0.1,0.2-0.3,0.4-0.4,0.6c-0.3,0.1-0.6,0.2-0.9,0.3c-0.2,0-0.3,0.1-0.5,0.2
		c0,0,0,0,0,0c0,0,0,0,0,0c-0.1,0-0.3,0.1-0.4,0.1c-0.6,0.2-1.3,0.5-1.9,0.7c0.2-0.1,0.5-0.2,0.7-0.4c-0.2,0.1-0.3,0.1-0.5,0.2
		c-0.6,0.2-1.2,0.5-1.8,0.8c0.5-0.2,1-0.4,1.5-0.6c-2,1-4.3,2-6.8,3.3c0,0,0,0-0.1,0c0,0,0,0,0,0c0,0,0,0-0.1,0
		c-5.2,2.7-10.9,5.8-15.5,9.1c-29-1.1-70.2-2.9-102.8-5.2v-39.3c2.9-0.1,5.7-0.3,8.6-0.5c0.5,0,0.9-0.1,1.3-0.1
		c8.9-0.6,21.4-0.7,36.1-0.6c0.3,0,0.6,0,0.9,0s0.6,0,0.9,0c0.6,0,1.3,0,1.9,0c0.4,0,0.9,0,1.3,0c0.9,0,1.8,0,2.6,0
		c1.1,0,2.2,0,3.3,0c1.6,0,3.2,0.1,4.8,0.1h0.2c1.7,0,3.4,0.1,5.1,0.1c0.9,0,1.7,0,2.6,0.1c1.7,0,3.5,0.1,5.2,0.1c0.1,0,0.3,0,0.4,0
		c1.5,0,3.1,0.1,4.7,0.1c1,0,2,0,2.9,0.1c0.9,0,1.8,0.1,2.7,0.1c1.7,0.1,3.4,0.1,5.1,0.2c1,0,2.1,0.1,3.1,0.1c1.6,0.1,3.3,0.1,5,0.2
		c0.6,0,1.1,0,1.7,0.1c1.5,0.1,3,0.1,4.5,0.2c0,0,0,0,0,0c1.9,0.1,3.7,0.1,5.6,0.2c2.8,0.1,5.6,0.2,8.5,0.3c1.6,0.1,3.3,0.1,4.9,0.2
		c1.1,0,2.3,0.1,3.5,0.1c0,2.4,0.2,4.7,0.5,6.8c0.7,5.3,2.1,9.3,4.7,10c0,0,0.9,0.2,2.6,0.4c0.4,0,0.7,0.1,1.1,0.1
		C780.6,435.8,789.3,436.1,796.1,433.2z"/>
	<path class="st0" d="M799.6,431.1C799.6,431.1,799.6,431.1,799.6,431.1c-0.8,0.7-1.8,1.2-2.7,1.7
		C797.8,432.3,798.8,431.7,799.6,431.1L799.6,431.1z"/>
	<path class="st0" d="M993,400v108.7H859.9c-0.6-2.1-1.2-4.2-1.8-6.3v0c-6.3-21-15.1-39.6-18.3-42.9c-7.2-7.9-19.8-11.2-28.1-12.5
		c0,0-0.1,0.1-0.3,0.5c-0.3,0.4-0.6,1.1-1.1,1.9c-0.9,1.6-2.2,3.8-3.7,6.5c0-0.1,0-0.1,0-0.2c-3.3,5.8-7.6,13.3-11.1,19.4
		c-3.5,6.2-6.3,11-6.5,11.3c-0.2,0.9-0.5,1.7-0.7,2.6c0,0.1-0.1,0.2-0.1,0.4c-0.5,2-1,3.8-1.3,5.3c-0.6,2.2-0.9,3.8-1.1,4.5
		c-0.3,1.2-0.6,3-1,5.2c-0.2,1.3-0.4,2.8-0.7,4.4H784c0.6-4.4,1.2-7.7,1.7-9.6c0.2-0.7,0.6-2.3,1.1-4.5c0.4-1.6,0.9-3.4,1.4-5.5
		c0-0.1,0.1-0.3,0.1-0.4c0.2-0.8,0.4-1.6,0.6-2.4c0.1-0.2,0.3-1.5,0.8-3.5c-0.4,1.9-0.6,3.1-0.7,3.4c0.4-0.6,11-19.2,17.6-30.7
		c1.5-2.6,2.8-4.9,3.7-6.5c0.5-0.8,0.9-1.5,1.1-1.9c0.2-0.3,0.3-0.5,0.3-0.5c-1.5-2.1-3.8-3.4-5.8-4.2c-2-0.8-3.7-1.1-3.7-1.2
		c-0.7,0.6-1.3,1.6-2,2.9c-1.3,2.7-2.7,6.7-4,11.2c-1.3,4.4-2.5,9.3-3.6,13.9c1-4.6,2.2-9.5,3.5-13.8c-0.4,0.1-0.8,0.2-1.2,0.3
		c0.4-0.1,0.7-0.2,1.1-0.3c1.3-4.5,2.7-8.5,4-11.2c0.7-1.4,1.4-2.3,2-2.9c-0.1-0.2-0.1-0.5-0.2-0.7c-1.1-3.8-1.6-7-2.2-9.3
		c0.1-0.1,0.2-0.2,0.4-0.3v0c0,0,0,0,0,0c0.1-0.1,0.2-0.2,0.3-0.2c0.4-0.5,1.3-1.8,1.3-5.6c0-0.3,0-0.7,0-1.1V423
		c-0.1-1.2,0.3-2.4,1.2-3.2c0.1-0.1,0.1-0.1,0.2-0.2c0,0,0,0,0,0c0.1-0.1,0.2-0.2,0.3-0.3h0c3.5,0.1,7,0.3,10.3,0.4h0
		c2.5,0.1,5,0.2,7.5,0.3c1.2,0,2.5,0.1,3.7,0.1c0.3,0,0.7,0,1,0c1.2,0,2.4,0.1,3.6,0.1c1.6,0.1,3.3,0.1,4.9,0.2
		c0.8,0,1.6,0.1,2.4,0.1c1.8,0.1,3.6,0.1,5.4,0.2c8.4,0.2,15.9,0.5,22.1,0.6c1,0,1.9,0,2.8,0c0.5,0,0.9,0,1.4,0h2.9
		c4.7,0,8.4,0,10.8-0.2c1.4-0.1,2.7-0.2,4-0.3c3.7-0.3,7-0.6,9.9-1c3.4-0.4,6.2-0.8,8.5-1.2c0.3,0,0.7-0.1,1-0.2
		c0.3,0,0.6-0.1,0.8-0.1c0.8-0.1,1.6-0.3,2.2-0.4c0.2,0,0.3-0.1,0.5-0.1c0.1,0,0.3-0.1,0.4-0.1c3.1-0.6,4.3-1,4.3-1v-14.6h74.7
		C990.3,402.4,991.9,401.4,993,400z"/>
	<polygon class="st0" points="330.6,512 292.8,512 292.8,461.2 	"/>
	<path class="st0" d="M352,535.9v51.4c0,0,0.1,0,0.1,0c2.8,0.3,5.6,0.7,8.5,1v-52.4H352z M392.6,506c-0.5-0.2-1-0.4-1.5-0.5
		c-0.5-0.2-1-0.4-1.5-0.6c-0.5-0.2-1-0.4-1.4-0.6c-0.6-0.3-1.2-0.6-1.8-0.9c-2.2-1.2-4-2.6-5-4.1c-0.2-0.3-0.4-0.6-0.5-0.9
		c-0.3-0.6-0.6-1.2-0.9-1.8c-0.1-0.3-0.3-0.6-0.4-0.9c-0.9-1.5-1.5-3.1-1.9-4.8c-0.1-0.4-0.2-0.8-0.2-1.1c0-0.2-0.1-0.4-0.1-0.6
		c0-0.2,0-0.4,0-0.6c0-0.2,0-0.4,0-0.6l0-1.1c0-0.3,0-0.5,0-0.8c0-0.5,0.1-1.1,0.1-1.6c0.8-8.1,5.5-17.1,10.8-24.8
		c-0.1-0.3-0.3-0.5-0.4-0.8c-0.1-0.3-0.3-0.6-0.5-0.9s-0.4-0.7-0.5-1c-0.1-0.1-0.1-0.2-0.2-0.3c-0.1-0.2-0.2-0.4-0.3-0.6
		c-0.3-0.6-0.7-1.2-1.1-1.8c-0.2-0.4-0.5-0.7-0.8-1.1c-0.6-0.8-1.2-1.5-1.8-2.3c-0.3-0.4-0.7-0.8-1-1.1c-0.4-0.4-0.7-0.7-1.1-1.1
		c-0.3-0.3-0.7-0.6-1-0.9c-0.4-0.3-0.8-0.6-1.1-0.9c-0.3-0.2-0.6-0.5-0.9-0.7c-0.2-0.1-0.3-0.2-0.5-0.3c-0.3-0.2-0.6-0.4-0.9-0.6
		c0,0,0,0,0,0c-0.3-0.2-0.6-0.4-0.9-0.5c-0.3-0.2-0.6-0.3-0.9-0.5c-0.3-0.2-0.7-0.3-1.1-0.5c0,0,0,0-0.1,0c0,0,0,0,0,0h0
		c-0.6,0.3-1.5,0.7-2.8,0.8c-0.5,0.1-1.5,0.2-2.8,0.4c-0.3,0-0.5,0.1-0.8,0.1c-0.6,0.1-1.2,0.1-1.9,0.2c-0.4,0-0.8,0.1-1.2,0.1
		c-0.2,0-0.5,0-0.8,0c-0.5,0-1,0.1-1.6,0.1c-1.2,0-2.4,0-3.6,0c-0.3,0-0.6,0-1,0c-9.4-0.5-20.7-4.1-25.1-17.5
		c-0.3-1.1-0.6-2.1-0.7-3.2c0-0.2,0-0.4-0.1-0.5c0-0.2,0-0.3,0-0.5c0-0.2,0-0.4,0-0.6c0-0.3,0-0.6,0-0.9c0-0.1,0-0.2,0-0.3
		c0-0.3,0-0.6,0.1-1c0.9-7.1,6.4-13.9,12.4-19.3h-0.1l-57-1.2l-3.5-0.1l-6.8-0.1l-0.8,0.9l0,0l-0.3,0.3l0.9-0.8l0.1-0.1l5.9,7.9l3,4
		l74,99.5h35.7v-5.4C393.8,506.4,393.2,506.2,392.6,506z M380.2,441.1c-2,0.5-3.8,0.8-4.9,1c0,0,0,0-0.1,0c0,0,0,0-0.1,0
		c0,0,0,0-0.1,0c-0.1,0-0.1,0-0.2,0c0,0-0.1,0-0.1,0c-0.1,0-0.2,0-0.3,0c-0.2,0-0.3,0-0.3,0s0,0,0,0.1c0,0,0,0.1,0,0.1
		c0,0.1,0,0.1-0.1,0.2c0,0,0,0.1-0.1,0.1h0.1c0.3,0,0.6,0,0.9-0.1c0.8,0,1.6-0.2,2.4-0.4c0,0,0.1,0,0.1,0c1-0.3,2-0.7,3-1.2
		c0,0,0,0,0,0c0,0,0,0,0.1,0C380.5,441,380.3,441.1,380.2,441.1z M348.4,535.9l0.3,0.4l0.6-0.4H348.4z"/>
	<path class="st0" d="M394.4,535.9v57.2c-11.7-1.8-23.1-3.5-33.7-4.8c0,0-0.1,0-0.1,0v-52.4H394.4z"/>
	<path class="st0" d="M380.7,441c-2,1.1-4.2,1.7-6.5,1.8c0.2-0.3,0.2-0.5,0.2-0.5S377.1,441.9,380.7,441z"/>
	<path class="st0" d="M414.7,510.8c0,0.4,0,0.8-0.1,1.2h-55.9l-74-99.5l-3-4l-5.9-7.8l0-0.1l-0.6,0.5l0,0l-0.4,0.3l1.1-1.2h0.1
		l6.8,0.1l3.5,0.1l57,1.2c-8,7.2-14.9,16.7-11.8,26.3c1.2,3.8,3,6.7,5.1,9.1c0.5,0.6,1,1.1,1.5,1.6c0.2,0.2,0.3,0.3,0.5,0.5
		c5.3,4.5,12.1,6.1,18,6.4c0.3,0,0.6,0,1,0c1.3,0,2.5,0,3.6,0c0.5,0,1.1,0,1.6-0.1c0.2,0,0.5,0,0.8,0c3.2-0.2,5.6-0.7,6.6-0.8
		c1.3-0.2,2.2-0.5,2.8-0.8c0,0,0,0,0,0h0c0,0,0,0,0.1,0c0,0,0,0,0,0c8.3,3.5,13,11.7,14.9,15.9c-7.9,11.6-14.6,26.1-8.6,36
		c0.1,0.3,0.2,0.6,0.4,0.9c0,0.1,0,0.1,0.1,0.2c0.3,0.5,0.6,1.1,0.8,1.6c0.1,0.2,0.2,0.4,0.3,0.6c0,0.1,0.1,0.2,0.2,0.3
		c0.7,1,1.7,2,3,2.9c0.2,0.1,0.4,0.2,0.6,0.4c0.5,0.3,1,0.6,1.5,0.9c0.6,0.3,1.2,0.6,1.8,0.9h0c0.5,0.2,0.9,0.4,1.4,0.6
		c0.5,0.2,1,0.4,1.5,0.6s1,0.4,1.5,0.5c0.6,0.2,1.2,0.4,1.8,0.6c0.1,0,0.1,0,0.2,0.1c0.7,0.2,1.5,0.5,2.2,0.6c1.6,0.4,3.3,0.9,5,1.2
		c1.7,0.4,3.4,0.7,5.2,1C409.6,510.1,412.1,510.5,414.7,510.8C414.6,510.8,414.7,510.8,414.7,510.8z"/>
	<path class="st0" d="M429.1,431.9c-14,1.4-22.9,7-24.8,8.3c-2.5-2.1-5.9-5.1-8.9-7.7c-0.3,0.4-0.6,0.8-0.9,1.2v-7.9
		c1-1.9,1.6-3.1,1.6-3.1c0.3-0.8,0.2-1.8-0.2-2.8c-2.1-5.4-12.8-13-20.9-17.5l34.7,0.7l11.3,16.8L429.1,431.9z"/>
	<polygon class="st0" points="349.3,535.9 348.7,536.3 348.4,535.9 	"/>
	<path class="st0" d="M414.2,520c-0.2,5.8-0.3,11.3-0.2,15.9H273.1c-3.3,0-6.3-1.3-8.4-3.5c-1.7-1.7-2.9-3.9-3.3-6.3
		c-0.1-0.7-0.2-1.4-0.2-2.2c0-6.6,5.3-11.9,11.9-11.9h57.6l-37.8-50.8L280.8,445l-0.4-0.6l-3-4L266,425.2
		c-4.6-6.1-3.3-14.9,2.9-19.4l5.9-4.4l0.4-0.3l0,0l0.6-0.5l0,0.1l5.9,7.8l3,4l74,99.5h55.9C414.4,514.7,414.3,517.4,414.2,520z"/>
	<path class="st0" d="M360.7,535.9v52.4c0,0-0.1,0-0.1,0c-2.9-0.4-5.7-0.7-8.5-1v-51.4H360.7z"/>
	<path class="st0" d="M721.5,642.3c-0.4,3.3-0.9,6.3-1.2,9.1h-76.6v-9.1H721.5z"/>
	<path class="st0" d="M771.1,650.5l0.1,0.9h-0.5c0-0.3,0.1-0.5,0.1-0.8l0,0.1c0.5-2.6,1-5.4,1.4-8.4h0.1
		C772,645.2,771.6,647.9,771.1,650.5z"/>
	<polygon class="st0" points="797.8,599.6 797.8,599.7 792.2,599.9 792.2,599.8 	"/>
	<path class="st0" d="M797.9,599.6h-0.1l-1.4-8l-0.1-0.6l-0.5-3l-3.3-20.3v0c0,0,0,0,0,0l0,0v0c-0.1,0-0.2,0-0.3-0.1v-2.4l0.1,0.9
		l0.3,1.6c0,0,0,0,0,0l0,0.1c0.1,0,0.1,0,0.1,0l3.3,20.3l0.5,3l0.1,0.6L797.9,599.6z"/>
	<path class="st0" d="M800.8,544.7L800.8,544.7c-1,0.2-2,0.4-2.9,0.5c-2.2,0.3-4.2,0.5-5.7,0.7v-0.1c1.5-0.2,3.5-0.4,5.7-0.7
		C798.8,545,799.8,544.8,800.8,544.7z"/>
	<path class="st0" d="M800.8,569.1v0.2c-3-0.5-5.7-1-8.1-1.5l0-0.2C795,568.1,797.8,568.6,800.8,569.1z"/>
	<path class="st0" d="M857.1,642.3v9.1H841c-0.1-2.9-0.2-5.9-0.3-9.1H857.1z"/>
	<path class="st0" d="M804.9,686.8c-1.8,0.2-3.5,0.4-5.3,0.5h0.1c-0.7,0-1.3,0.1-2,0.1c-3,0.2-5.9,0.2-8.8,0.1h0
		c0-0.1-0.1-0.2-0.2-0.2c0,0,0-0.1-0.1-0.1h11.1C801.4,687.1,803.1,686.9,804.9,686.8C804.9,686.7,804.9,686.8,804.9,686.8z"/>
	<path class="st0" d="M394.4,458.5c-2.2,1.9-4.1,3.4-5.1,3.8c0,0-0.4-1-1.1-2.6c-2-4.2-6.8-12.5-15.1-16c0.6-0.3,0.9-0.7,1-1
		c2.3,0,4.5-0.7,6.5-1.8c4.5-1.2,10.4-3.4,13.8-7.3c0.3-0.4,0.6-0.8,0.9-1.2c3,2.6,6.4,5.6,8.9,7.7c1.5,1.3,2.7,2.3,3.2,2.6
		C409,443.8,400.5,453.1,394.4,458.5z"/>
	<path class="st0" d="M457.4,434.9c-3.2,2.2-10,7.1-17.1,13.8c-3.9,3.7-7.9,8-11.4,12.6c-3.5,4.7-6.5,9.7-8.5,15
		c-0.6,1.6-1.1,3.4-1.6,5.3c0,0.1-0.1,0.3-0.1,0.4s-0.1,0.3-0.1,0.4c-1.1,4.2-1.9,8.8-2.6,13.7c-0.1,0.7-0.2,1.4-0.3,2.1
		c-0.1,0.8-0.2,1.6-0.3,2.4c-0.1,0.9-0.2,1.9-0.3,2.8c-0.2,2.5-0.4,4.9-0.6,7.4c0,0,0,0.1,0,0.1c-6.6-0.9-13.9-2.3-20.1-4.2
		c0,0-0.1,0-0.1,0c-2.3-0.7-4.4-1.5-6.3-2.4h0c-0.6-0.3-1.2-0.6-1.8-0.9c-0.5-0.3-1-0.6-1.5-0.9c-0.2-0.1-0.4-0.2-0.6-0.4
		c-1.2-0.9-2.2-1.8-2.8-2.8c-0.1-0.1-0.2-0.2-0.3-0.4c-0.5-0.7-0.8-1.5-1.2-2.3c-0.1-0.3-0.3-0.6-0.4-1c-0.9-1.5-1.5-3.2-1.9-4.9
		c-0.1-0.4-0.2-0.8-0.2-1.1c0-0.2-0.1-0.4-0.1-0.6c0-0.2,0-0.4,0-0.6c0-0.2,0-0.4,0-0.6l0-1.1c0-0.3,0-0.5,0-0.8
		c0-0.5,0.1-1.1,0.1-1.6c0.8-8.1,5.5-17,10.8-24.8c0.7,1.6,1.1,2.6,1.1,2.6c1-0.4,2.9-1.8,5.1-3.7c5.5-4.9,13-13,13.2-15.3
		c0,0,0,0,0,0c0,0,0,0,0-0.1c0-0.2-0.1-0.3-0.2-0.4c-0.5-0.3-1.6-1.3-3.2-2.6c0,0,0.1-0.1,0.1-0.1c2.2-1.5,11.1-6.8,24.7-8.2
		c6.7-0.7,14.6-0.4,23.4,1.8C453.7,434,455.4,434.4,457.4,434.9z"/>
	<polygon class="st0" points="292.8,461.2 292.8,512 280.8,512 280.8,445 	"/>
	<path class="st0" d="M380.7,441c-2,1.1-4.2,1.7-6.5,1.8c0.2-0.3,0.2-0.5,0.2-0.5S377.1,441.9,380.7,441z"/>
	<path class="st0" d="M395.3,432.5c-0.3,0.4-0.6,0.8-0.9,1.2v-2C394.7,432,395,432.2,395.3,432.5z"/>
	<path class="st0" d="M395.3,432.5c-0.3,0.4-0.6,0.8-0.9,1.2v-2C394.7,432,395,432.2,395.3,432.5z"/>
	<g>
		<path class="st0" d="M396.2,421.6c0,0.4-0.1,0.8-0.2,1.1c0,0-0.6,1.2-1.6,3.1v7.9c-3.4,3.9-9.2,6.1-13.8,7.3
			c-3.6,1-6.4,1.3-6.4,1.3s-0.9-2.4-2.5-4.6c-1.2-1.6-2.9-3-4.9-3.2c0,0-5.3,1-6.1-2.1c-0.8-3.2,3-2.2,3.8-3.7
			c0.7-1.3-1-5.4-3.8-8.3c-0.2-0.2-0.4-0.4-0.6-0.6c-0.1-0.1-0.1-0.1-0.2-0.2c-0.2-0.2-0.4-0.4-0.7-0.5c-3.2-2.4,8-10.4,12-16.9
			l3.6,0.1c0.6,0.4,1.3,0.7,2,1.1c0.4,0.2,0.8,0.5,1.2,0.7c0.4,0.3,0.8,0.5,1.3,0.8c0.1,0.1,0.2,0.1,0.4,0.2c0.5,0.3,1,0.6,1.5,0.9
			c0.1,0,0.1,0.1,0.2,0.1c0.5,0.3,1,0.6,1.4,1c3.3,2.3,6.5,4.7,8.9,7.1c0.2,0.2,0.4,0.4,0.6,0.6c0.4,0.4,0.7,0.7,1,1.1
			c0.3,0.3,0.6,0.7,0.8,1c0.2,0.2,0.3,0.4,0.4,0.6c0.3,0.4,0.6,0.8,0.8,1.2c0.1,0.2,0.2,0.4,0.3,0.6c0.1,0.2,0.2,0.5,0.3,0.7
			c0,0.1,0.1,0.3,0.1,0.4v0.1c0,0.2,0.1,0.3,0.1,0.5C396.2,421.2,396.2,421.4,396.2,421.6z"/>
		<path class="st0" d="M374.9,402.3l-3.6-0.1c0.3-0.5,0.6-1,0.8-1.4C373,401.3,374,401.8,374.9,402.3z"/>
		<path class="st0" d="M380.7,441c-2,1.1-4.2,1.7-6.5,1.8c0.2-0.3,0.2-0.5,0.2-0.5S377.1,441.9,380.7,441z"/>
	</g>
	<g>
		<path class="st1" d="M374.3,442.3c0,0,0,0.2-0.2,0.5s-0.5,0.6-1,1l0,0c-0.6,0.3-1.5,0.7-2.8,0.8c-4,0.5-31.3,6.1-38.7-16.6
			c-3.2-9.6,3.8-19.1,11.8-26.3c0.2-0.2,0.4-0.4,0.6-0.6c6.7-5.9,13.9-10.3,16.5-11.9c1.3-0.8,2.4-1.3,3.5-1.6
			c5.8-1.6,8.8,3.3,9,8.3c0,1.3-0.1,2.6-0.4,3.8c-0.1,0.4-0.2,0.7-0.4,1.1c-0.2,0.5-0.5,0.9-0.8,1.4c-4,6.5-15.2,14.5-12,16.9
			c0.2,0.2,0.4,0.3,0.7,0.5c0.1,0.1,0.1,0.1,0.2,0.2c0.2,0.2,0.4,0.4,0.6,0.6c2.8,2.9,4.6,7,3.8,8.3c-0.9,1.5-4.6,0.5-3.8,3.7
			c0.8,3.2,6.1,2.1,6.1,2.1c2,0.2,3.7,1.6,4.9,3.2C373.4,439.9,374.3,442.3,374.3,442.3z"/>
	</g>
	<path class="st0" d="M787.5,535.9h-0.1l-2.9-18l-0.9-5.4c0-0.1,0-0.3,0.1-0.4l0,0.2l0.9,5.6L787.5,535.9z"/>
	<path class="st0" d="M788.2,489.1v0.2c-0.5,2-1,3.8-1.3,5.3c-0.6,2.2-0.9,3.8-1.1,4.5c-0.3,1.2-0.6,3-1,5.2
		c-0.2,1.3-0.4,2.8-0.7,4.4c0,0,0,0.1,0,0.1c-0.2,1-0.3,2.1-0.5,3.3l0-0.3c0,0.2-0.1,0.5-0.1,0.7l-0.5-2.9l-5.1,0.2v-1.1h6.1
		c0.6-4.4,1.2-7.7,1.7-9.6c0.2-0.7,0.6-2.3,1.1-4.5C787.2,493,787.7,491.2,788.2,489.1z"/>
	<path class="st0" d="M827.3,534.5c-0.1,0.5-0.3,1-0.6,1.4h-0.1C826.9,535.4,827.2,534.9,827.3,534.5c0-0.3,0.1-0.6,0.1-0.9
		c0-1.2-0.3-3.4-0.8-6.2C827.2,531,827.6,533.5,827.3,534.5z"/>
	<path class="st0" d="M858.1,502.3c-6.3-21-15.1-39.6-18.3-42.9c-7.2-7.9-19.8-11.2-28.1-12.5c0,0-0.1,0.1-0.3,0.5
		c-0.3,0.4-0.6,1.1-1.1,1.9c-0.9,1.6-2.2,3.8-3.7,6.5c0-0.1,0-0.1,0-0.2c-3.3,5.8-7.6,13.3-11.1,19.4c-3.5,6.2-6.3,11-6.5,11.3
		c-0.2,0.9-0.5,1.7-0.7,2.6v-0.2c0.2-0.8,0.4-1.6,0.6-2.4c0.1-0.2,0.3-1.5,0.8-3.5c-0.4,1.9-0.6,3.1-0.7,3.4
		c0.4-0.6,11-19.2,17.6-30.7c1.5-2.6,2.8-4.9,3.7-6.5c0.5-0.8,0.9-1.5,1.1-1.9c0.2-0.3,0.3-0.5,0.3-0.5c-1.5-2.1-3.8-3.4-5.8-4.2
		c-2-0.8-3.7-1.1-3.7-1.2c-0.7,0.6-1.3,1.6-2,2.9c-1.3,2.7-2.7,6.7-4,11.2c-1.3,4.4-2.5,9.3-3.6,13.9c1-4.6,2.2-9.5,3.5-13.8
		c-0.4,0.1-0.8,0.2-1.2,0.3c0.4-0.1,0.7-0.2,1.1-0.3c1.3-4.5,2.7-8.5,4-11.2c0.7-1.4,1.4-2.3,2-2.9c-0.1-0.2-0.1-0.5-0.2-0.7h50.6
		c3.1,0,5.6,2.5,5.6,5.6L858.1,502.3z"/>
	<path class="st0" d="M503.5,550.4v56.8c-11.7-0.8-22.2-1.7-30.5-2.6c-5.8-0.7-11.9-1.4-18.2-2.3c-19.5-2.7-40.4-6.1-60.4-9.1v-57.2
		h19.5v0.1c0,8.3,0.3,13.9,0.3,13.9s8.1,0.5,21,0.9c2.7,0.1,5.6,0.1,8.6,0.2c9.8,0.2,21.4,0.4,33.8,0.2c1.8,0,3.6,0,5.4-0.1
		c0,0,0,0,0,0c1.5,0,3.1-0.1,4.6-0.1c0.9,0,1.9-0.1,2.8-0.1c0.5,0,1,0,1.5-0.1c0.2,0,0.4,0,0.7,0h0.1c0.1,0,0.2,0,0.3,0h0
		c0.2,0,0.4,0,0.5,0c1.1,0,2.3-0.1,3.4-0.1c1.1,0,2.2-0.1,3.3-0.1c0.5,0,0.9,0,1.4,0c0,0,0,0,0,0c0,0,0,0,0,0c0,0,0,0,0.1,0
		C502.3,550.5,502.9,550.4,503.5,550.4z"/>
	<path class="st0" d="M487.6,551c-1.5,0-3.1,0.1-4.6,0.1c0,0,0,0,0,0c-1.8,0-3.6,0.1-5.4,0.1c-12.4,0.2-24,0-33.8-0.2
		c-3-0.1-5.9-0.1-8.6-0.2c-12.9-0.4-21-0.9-21-0.9s-0.3-5.6-0.3-13.9v-0.1h0.1c0,8.3,0.3,13.9,0.3,13.9s8.1,0.5,21,0.9
		c2.7,0.1,5.5,0.2,8.6,0.2c9.8,0.2,21.4,0.4,33.8,0.2c1.7,0,3.5,0,5.3,0h0C484.5,551,486,551,487.6,551
		C487.6,551,487.6,551,487.6,551z"/>
	<path class="st0" d="M501.6,550.5C501.6,550.5,501.6,550.5,501.6,550.5c-0.5,0-1,0.1-1.4,0.1C500.7,550.5,501.1,550.5,501.6,550.5
		C501.6,550.5,501.6,550.5,501.6,550.5z"/>
	<path class="st0" d="M501.7,550.5C501.7,550.5,501.7,550.5,501.7,550.5C501.6,550.5,501.6,550.5,501.7,550.5
		C501.6,550.5,501.6,550.5,501.7,550.5L501.7,550.5z"/>
	<path class="st0" d="M639.3,456.1c-12.5-0.9-23.8-1.8-32.6-2.8c-6.5-0.7-13.2-1.6-20.2-2.6c-18.2-2.5-37.5-5.7-56.2-8.5
		c-11.7-1.8-23.1-3.5-33.8-4.9c-2.9-0.4-5.8-0.7-8.6-1.1c-3.6-0.4-7.1-0.8-10.5-1.1c-6.7-0.7-12.8-1.1-18.3-1.2c0,0-0.6,0.4-1.8,1.2
		c-0.2,0.1-0.4,0.2-0.6,0.4c-0.9,0.6-1.9,1.3-3.1,2.2c-0.4,0.3-0.8,0.6-1.2,0.9c-0.4,0.3-0.8,0.6-1.3,1c-0.5,0.4-0.9,0.7-1.4,1.1
		c-1,0.7-2,1.5-3,2.4c-0.8,0.7-1.6,1.4-2.5,2.2c-0.2,0.1-0.3,0.3-0.5,0.4c-0.2,0.2-0.5,0.4-0.8,0.7c-0.4,0.4-0.9,0.8-1.3,1.2
		c-0.4,0.4-0.9,0.8-1.3,1.2c-1.7,1.7-3.4,3.4-5.1,5.2c-0.3,0.4-0.7,0.8-1.1,1.2c-0.7,0.9-1.5,1.7-2.2,2.6c-1.1,1.3-2.1,2.6-3.1,4
		c-0.4,0.5-0.8,1-1.1,1.5c-0.4,0.5-0.7,0.9-1,1.4c-0.2,0.4-0.5,0.9-0.8,1.3c-0.1,0-0.1,0.1-0.1,0.1c-0.3,0.4-0.6,0.8-0.8,1.2
		c-0.1,0.2-0.1,0.3-0.2,0.4c-0.3,0.4-0.5,0.7-0.7,1.1c-0.3,0.6-0.7,1.2-1,1.8c-0.3,0.4-0.5,0.9-0.7,1.3c-0.2,0.4-0.4,0.8-0.6,1.3
		c-0.1,0.1-0.2,0.3-0.2,0.4c-0.2,0.5-0.3,0.9-0.5,1.3c-0.2,0.5-0.4,1-0.6,1.5c-0.3,0.9-0.6,1.7-0.9,2.6c-0.3,0.8-0.6,1.8-0.8,2.7
		c0,0.1-0.1,0.3-0.1,0.4c0,0.1-0.1,0.3-0.1,0.4c-1.1,4.2-1.9,8.8-2.6,13.6c-0.1,0.7-0.2,1.4-0.3,2.1c-0.1,0.8-0.2,1.6-0.3,2.4
		c-0.1,0.9-0.2,1.9-0.3,2.8c-0.2,2.5-0.4,4.9-0.6,7.4c0,0,0.1,0,0.1,0c0,0.4,0,0.8-0.1,1.2c-0.2,2.7-0.3,5.4-0.4,8
		c-0.2,5.8-0.3,11.3-0.2,15.9c0,8.3,0.3,13.9,0.3,13.9s8.1,0.5,21,0.9c2.7,0.1,5.5,0.2,8.6,0.2c9.8,0.2,21.4,0.4,33.8,0.2
		c1.7,0,3.5,0,5.3,0h0c1.5,0,3.1,0,4.6-0.1c0,0,0,0,0,0c0.9,0,1.9-0.1,2.8-0.1c0.5,0,1,0,1.5-0.1c0.2,0,0.4,0,0.7,0h0.1
		c0.1,0,0.2,0,0.3,0h0c0.2,0,0.4,0,0.5,0c1.1,0,2.3-0.1,3.4-0.1c1.1,0,2.2-0.1,3.3-0.1c0.5,0,0.9,0,1.4-0.1c0,0,0,0,0,0c0,0,0,0,0,0
		h0.1c0.6,0,1.2,0,1.8-0.1c2.9-0.2,5.7-0.3,8.6-0.5c0.4-0.1,0.8-0.1,1.3-0.1c4.7-0.3,10.4-0.5,16.9-0.6
		c46.1-0.7,132.4,3.7,181.8,5.2c-5-5.3-3.5-17.9,0.4-31.7l1.4,8.9c0.3-0.3,0.5-0.5,0.9-0.6c0,0,13.5-4.2,14.9-1.2
		c1.5,3.3-0.2,7-2.9,10.2c0.1-0.1,0.3-0.3,0.4-0.5c0.2-0.2,0.3-0.3,0.4-0.5c0.4-0.5,0.8-1.1,1.1-1.6c0.1-0.2,0.2-0.4,0.3-0.5
		c0.3-0.5,0.5-1,0.7-1.5c0.1-0.2,0.1-0.3,0.2-0.5c0.2-0.6,0.4-1.3,0.4-1.9c0-0.2,0-0.4,0-0.6v0c0-0.2,0-0.4,0-0.7
		c0-0.2,0-0.3-0.1-0.5c-0.1-0.3-0.2-0.7-0.3-1c-0.1-0.2-0.1-0.3-0.2-0.5c-1.5-3-14.9,1.2-14.9,1.2c-0.3,0-0.6,0.2-0.9,0.5l-1.4-8.9
		l-0.7-4.6l-0.9-5.4l4.8-0.2l0.1,0c0.4-1.2,0.8-2.3,1.2-3.5c0,0,0-0.1,0-0.1c6.1-17.1,13.8-33.3,16-38.3c1.2-2.9,4.6-6,8.9-9.1
		C713.1,460.2,671.9,458.4,639.3,456.1z"/>
	<path class="st0" d="M487.6,551c-1.5,0-3.1,0.1-4.6,0.1c0,0,0,0,0,0c-1.8,0-3.6,0.1-5.4,0.1c-12.4,0.2-24,0-33.8-0.2
		c-3-0.1-5.9-0.1-8.6-0.2c-12.9-0.4-21-0.9-21-0.9s-0.3-5.6-0.3-13.9v-0.1c0-4.6,0-10,0.2-15.8c0.1-2.6,0.2-5.3,0.4-8
		c0,0,0-0.1,0-0.1c0-0.4,0.1-0.7,0.1-1.1c0,0,0-0.1,0-0.1c0,0,0.1,0,0.1,0c0,0.4,0,0.8-0.1,1.2c-0.2,2.7-0.3,5.4-0.4,8
		c-0.2,5.8-0.3,11.3-0.2,15.9c0,8.3,0.3,13.9,0.3,13.9s8.1,0.5,21,0.9c2.7,0.1,5.5,0.2,8.6,0.2c9.8,0.2,21.4,0.4,33.8,0.2
		c1.7,0,3.5,0,5.3,0h0C484.5,551,486,551,487.6,551C487.6,551,487.6,551,487.6,551z"/>
	<path class="st0" d="M726.8,540c-0.1,0.1-0.1,0.2-0.2,0.3c-0.1,0.1-0.2,0.2-0.2,0.3c0,0,0,0,0,0s0,0,0,0c-0.3,0.3-0.7,0.7-1,1
		c-0.3,0.3-0.7,0.6-1,0.9h0c-0.2,0.2-0.5,0.4-0.7,0.6c-0.2,0.2-0.5,0.4-0.7,0.5c-0.4,0.3-0.9,0.6-1.3,0.9c-0.3,0.2-0.7,0.4-1,0.6
		c-0.2,0.1-0.4,0.2-0.6,0.3c-0.2,0.1-0.3,0.2-0.5,0.2c-0.1,0.1-0.3,0.1-0.4,0.2c-0.9,0.5-1.7,0.8-2.4,0.9h-0.2l1.3,7.8
		c0,0-0.1,0-0.1,0c-1.8,0-3.7-0.1-5.6-0.2c-5-5.3-3.5-17.9,0.4-31.7l1.4,8.9c0.3-0.3,0.5-0.5,0.9-0.6c0,0,13.5-4.2,14.9-1.2
		C731.2,533.1,729.5,536.8,726.8,540z"/>
	<path class="st0" d="M777.9,508.7v1.1l-1.8,0.1l-17,0.8c0,0,0,0,0,0l-3.2,0.1l-0.3,0l-5.2,0.2l-8.9,0.4l-1.6,0.1l-9.7,0.4
		c0,0,0-0.1,0-0.1l-14.3,0.6c0,0,0-0.1,0-0.1l14.2-0.6c0-1,0.6-1.5,1.4-1.7c0,0,0,0,0,0c0.9-0.4,2.1-0.4,2.1-0.4s0.8,0,2-0.1
		c1.2,0,2.9-0.1,4.8-0.2c2.8-0.2,6.1-0.3,8.9-0.5c0.6,0,1.1-0.1,1.6-0.1c2-0.1,3.6-0.2,4.4-0.3c0.3-0.1,0.7-0.1,1,0c0,0,0,0.1,0,0.1
		c0.3,0,0.6,0.1,0.8,0.2H777.9z"/>
	<path class="st0" d="M769.9,462.3c-2.1,8.8-4,17.3-4.5,19.1l0,0.4c-2.4,7.7-5.6,17.2-8.8,26.5l-0.1,0c3.2-9.3,6.5-18.7,8.8-26.4
		c0,0,0,0,0-0.1c0,0,0,0,0-0.1v-0.1c0.1-0.3,0.2-0.8,0.3-1.4c0.7-3.2,2.4-10.5,4.2-17.9H769.9z"/>
	<path class="st0" d="M777.9,546.1v0.2c-0.4,0.1-0.8,0.2-1.1,0.2c-1.3,0.4-2.2,0.9-2.4,1.7c-0.2,1-0.2,2,0.1,3c0,0,0,0,0,0
		c0,0,0,0,0,0c0-0.1-0.1-0.2-0.1-0.2c-0.3-1-0.3-2-0.1-3c0.1-0.8,1.1-1.3,2.4-1.7C777.1,546.3,777.5,546.2,777.9,546.1z"/>
	<line class="st0" x1="857.1" y1="642.3" x2="857.1" y2="565.9"/>
	<line class="st0" x1="857.1" y1="533.6" x2="857.1" y2="533.5"/>
	<polygon class="st0" points="238.7,414.4 237.3,424.7 235.7,436.8 231.3,468.7 224.6,517.8 86,517.8 100,414.4 	"/>
	<path class="st2" d="M168.5,454.7L168.5,454.7c-0.5,0-0.8-0.4-0.7-0.8l0.5-19l-6.7,19.1c-0.1,0.4-0.5,0.7-0.9,0.7H153
		c-0.3,0-0.6-0.2-0.7-0.5l-1.5-4l-2.8,4c-0.2,0.3-0.5,0.4-0.8,0.4h-4.6c-0.4,0-0.7-0.2-0.7-0.6l-2.9-13.4l-7.6,13.5
		c-0.2,0.3-0.5,0.5-0.9,0.5h-21.8c-0.5,0-0.8-0.4-0.7-0.9c0.1-0.5,0.5-0.9,1-0.9h21.3l8.5-15c0.2-0.3,0.5-0.5,0.9-0.5
		s0.6,0.2,0.7,0.6l3.2,14.9h3.4l3.5-5c0.2-0.3,0.5-0.5,0.8-0.4c0.3,0,0.6,0.2,0.7,0.5l1.8,5h6.4l8.2-23.6c0.1-0.4,0.5-0.7,1-0.7
		c0.4,0,0.7,0.3,0.7,0.8l-0.5,19.9l3.2-7.9c0.2-0.4,0.5-0.6,0.9-0.6s0.7,0.3,0.7,0.7l0.7,11.4h9l10-21.6c0.2-0.4,0.6-0.6,1-0.6
		s0.7,0.3,0.7,0.7l0.9,21.4h2.7l4.8-7.7c0.2-0.3,0.6-0.5,0.9-0.5c0.4,0,0.6,0.3,0.7,0.6l0.9,7.6h12.4c0.5,0,0.8,0.4,0.7,0.9
		s-0.5,0.9-1,0.9h-13c-0.4,0-0.7-0.3-0.7-0.6l-0.7-5.9l-3.8,6.1c-0.2,0.3-0.5,0.5-0.8,0.5h-3.9c-0.4,0-0.7-0.3-0.7-0.7l-0.8-18.8
		l-8.8,18.9c-0.2,0.4-0.5,0.6-0.9,0.6h-10.3c-0.4,0-0.7-0.3-0.7-0.7l-0.5-8.6l-3.6,8.7C169.3,454.4,168.9,454.7,168.5,454.7z"/>
	<path class="st2" d="M163.2,493.6C163.2,493.6,163.1,493.6,163.2,493.6c-0.5,0-0.8-0.4-0.7-0.8l0.5-19l-6.7,19.1
		c-0.1,0.4-0.5,0.7-0.9,0.7h-7.6c-0.3,0-0.6-0.2-0.7-0.5l-1.5-4l-2.8,4c-0.2,0.3-0.5,0.4-0.8,0.4h-4.6c-0.4,0-0.7-0.2-0.7-0.6
		l-2.9-13.4l-7.6,13.5c-0.2,0.3-0.5,0.5-0.9,0.5h-21.8c-0.5,0-0.8-0.4-0.7-0.9c0.1-0.5,0.5-0.9,1-0.9h21.3l8.5-15
		c0.2-0.3,0.5-0.5,0.9-0.5s0.6,0.2,0.7,0.6l3.2,14.9h3.4l3.5-5c0.2-0.3,0.5-0.5,0.8-0.4c0.3,0,0.6,0.2,0.7,0.5l1.8,5h6.4l8.2-23.6
		c0.1-0.4,0.5-0.7,1-0.7c0.4,0,0.7,0.3,0.7,0.8l-0.5,19.9l3.2-7.9c0.2-0.4,0.5-0.6,0.9-0.6s0.7,0.3,0.7,0.7l0.7,11.4h9l10-21.6
		c0.2-0.4,0.6-0.6,1-0.6s0.7,0.3,0.7,0.7l0.9,21.4h2.7l4.8-7.7c0.2-0.3,0.6-0.5,0.9-0.5c0.4,0,0.6,0.3,0.7,0.6l0.9,7.6h12.4
		c0.5,0,0.8,0.4,0.7,0.9s-0.5,0.9-1,0.9h-13c-0.4,0-0.7-0.3-0.7-0.6l-0.7-5.9l-3.8,6.1c-0.2,0.3-0.5,0.5-0.8,0.5h-3.9
		c-0.4,0-0.7-0.3-0.7-0.7l-0.8-18.8l-8.8,18.9c-0.2,0.4-0.5,0.6-0.9,0.6H169c-0.4,0-0.7-0.3-0.7-0.7l-0.5-8.6l-3.6,8.7
		C163.9,493.4,163.6,493.6,163.2,493.6z"/>
	<polygon class="st0" points="196.4,663.4 158.7,663.4 158.7,612.6 177.6,638 	"/>
	<path class="st0" d="M246,592.5c-1.7,0.4-3.2,0.7-4.2,0.9c-0.3,0.1-0.6,0.1-0.8,0.2c-0.2,0-0.4,0.1-0.6,0.1c-0.1,0-0.2,0-0.2,0
		c0,0-0.1,0-0.1,0s0,0,0,0.1c0,0,0,0.1,0,0.1c0,0,0,0.1-0.1,0.2c0,0,0,0.1-0.1,0.1h0.1c0.1,0,0.2,0,0.2,0c1,0,2-0.2,3-0.5
		c0,0,0.1,0,0.1,0c1-0.3,2-0.7,3-1.2c0,0,0,0,0,0c0,0,0,0,0.1,0C246.3,592.4,246.2,592.5,246,592.5z M259.8,657.9
		C259.8,657.9,259.8,657.9,259.8,657.9c-0.2,0-0.3-0.1-0.5-0.2c0,0,0,0,0,0c-0.1,0-0.1,0-0.2-0.1c-0.7-0.2-1.4-0.5-2.1-0.7l-1.5-0.6
		c-0.5-0.2-1-0.4-1.4-0.6c-0.2-0.1-0.5-0.2-0.7-0.3c-0.1-0.1-0.3-0.1-0.5-0.2c0,0,0,0,0,0c-0.1,0-0.1-0.1-0.2-0.1
		c-0.4-0.2-0.8-0.5-1.2-0.7c-0.1-0.1-0.2-0.1-0.3-0.2c-0.2-0.1-0.3-0.2-0.4-0.3c-0.2-0.1-0.4-0.2-0.5-0.3c-0.2-0.1-0.4-0.3-0.6-0.4
		c-0.4-0.3-0.7-0.6-1-0.8c-0.3-0.3-0.6-0.6-0.9-1c-0.1-0.2-0.3-0.4-0.4-0.6c-0.7-1.1-1.3-2.4-1.8-3.6l-1.9-5
		c-0.1-0.3-0.1-0.5-0.2-0.8l-0.2-3.1c0-4.3,1.3-9,3.3-13.6c0.2-0.6,0.5-1.2,0.8-1.7c0.3-0.6,0.6-1.2,0.8-1.7
		c0.3-0.6,0.6-1.1,0.9-1.7c0,0,0,0,0,0c0.3-0.6,0.6-1.1,1-1.7c0,0,0,0,0,0c0.3-0.6,0.6-1.1,1-1.7c1-1.7,2.1-3.3,3.1-4.9
		c0-0.1-0.1-0.1-0.1-0.2c-0.2-0.5-0.5-1-0.8-1.5c-0.1-0.2-0.2-0.3-0.3-0.5c0-0.1-0.1-0.1-0.1-0.2c-0.2-0.3-0.4-0.7-0.6-1
		c-0.3-0.6-0.7-1.2-1.1-1.8c-0.2-0.2-0.3-0.5-0.5-0.7c-1.8-2.7-4.3-5.5-7.4-7.7c0,0,0,0,0,0c-0.4-0.3-0.9-0.6-1.3-0.9c0,0,0,0,0,0
		c-0.9-0.6-1.9-1.1-2.9-1.5c0,0,0,0,0,0c-0.6,0.3-1.5,0.7-2.8,0.8c-2,0.3-10.1,1.9-18.6,0.3c-1-0.2-2-0.4-3-0.7
		c-0.2-0.1-0.5-0.1-0.7-0.2c-3.2-1-6.3-2.5-9-4.8c-0.3-0.2-0.6-0.5-0.9-0.8c-0.3-0.2-0.5-0.5-0.8-0.8c-0.2-0.2-0.5-0.5-0.8-0.8
		c-2.1-2.4-3.8-5.3-5-9c-3.2-9.6,3.8-19.1,11.8-26.3h-0.2l-67.3-1.5l-0.8,0.9l0,0l-0.3,0.3l0.9-0.8l0.1,0l0.1,0.1l82.8,111.3h35.7
		V658C260.1,658,260,657.9,259.8,657.9z M231.9,832.4c0-0.5-0.1-0.9-0.2-1.3c0-0.2-0.1-0.4-0.2-0.6c-0.7-2.7-2.6-4.9-5-6.1
		c0,0-0.1,0-0.1,0c0,0,0,0,0,0c-0.6-0.3-1.3-0.6-2-0.7c-0.3-0.1-0.7-0.1-1-0.2c-0.4,0-0.7-0.1-1.1-0.1c-1.5,0-3,0.3-4.3,1
		c-0.6,0.3-1.1,0.6-1.6,1c-0.1,0.1-0.2,0.1-0.3,0.2c-0.1,0.1-0.2,0.2-0.3,0.3c-0.4,0.4-0.8,0.8-1.2,1.3c-0.1,0.1-0.2,0.3-0.3,0.5
		c0,0,0,0,0,0.1c-0.1,0.1-0.2,0.3-0.3,0.4c-0.2,0.2-0.3,0.5-0.4,0.8c-0.1,0.2-0.1,0.3-0.2,0.5c-0.1,0.2-0.2,0.4-0.2,0.6c0,0,0,0,0,0
		c-0.2,0.6-0.3,1.2-0.4,1.9c0,0.2-0.1,0.4-0.1,0.7c0.2-3.5,2.4-6.6,5.4-8c1.3-0.6,2.8-1,4.3-1c1.5,0,2.9,0.4,4.2,1v0
		c0,0,0.1,0,0.1,0c3.2,1.5,5.3,4.9,5.3,8.6c0,2.3-0.8,4.5-2.2,6.2c1.3-1.6,2.2-3.6,2.3-5.8c0-0.1,0-0.3,0-0.4
		C231.9,832.9,231.9,832.6,231.9,832.4z M226.5,793.7v9.1h33.8v-9.1H226.5z"/>
	<path class="st0" d="M260.2,802.8v40h-38c0.1,0,0.3,0,0.4,0c2.4-0.1,4.5-1.1,6.1-2.6c0.1-0.1,0.2-0.2,0.3-0.3
		c0.2-0.2,0.4-0.4,0.6-0.6c1.4-1.7,2.2-3.8,2.2-6.2c0-3.8-2.1-7.1-5.3-8.6c0,0-0.1,0-0.1,0v-21.5h0.1L260.2,802.8z"/>
	<rect x="226.5" y="687.3" class="st0" width="33.8" height="106.4"/>
	<path class="st0" d="M222,842.8H102.7v-325h107.2v34.7c-0.2,0.2-0.4,0.4-0.6,0.6h-0.2l-67.3-1.5l-0.8,0.9l0,0l-0.3,0.3l-5.9,4.4
		c-6.1,4.6-7.4,13.3-2.9,19.4l14.7,19.8v67.1h-7.7c-6.6,0-11.9,5.3-11.9,11.9c0,1.2,0.2,2.4,0.5,3.5c0.6,1.9,1.6,3.5,3,4.9
		c1.4,1.4,3,2.4,4.9,3c1.1,0.3,2.3,0.5,3.5,0.5h79v137c-0.6,0.3-1.1,0.6-1.6,1c-0.1,0.1-0.2,0.1-0.3,0.2c-0.1,0.1-0.2,0.2-0.3,0.3
		c-0.4,0.4-0.8,0.8-1.2,1.3c-0.1,0.1-0.2,0.3-0.3,0.5c0,0,0,0,0,0.1c-0.1,0.1-0.2,0.3-0.3,0.4c-0.2,0.2-0.3,0.5-0.4,0.8
		c-0.1,0.2-0.2,0.3-0.2,0.5c-0.1,0.2-0.2,0.4-0.2,0.6c0,0,0,0,0,0c-0.2,0.6-0.4,1.2-0.4,1.9c0,0.2-0.1,0.4-0.1,0.7
		c0,0.2,0,0.5,0,0.7c0,0.1,0,0.3,0,0.4v0.1c0,0.3,0,0.5,0.1,0.8c0.5,4,3.4,7.2,7.2,8.1c0.2,0,0.3,0.1,0.5,0.1c0.1,0,0.2,0.1,0.3,0.1
		c0.2,0,0.4,0.1,0.7,0.1c0.1,0,0.1,0,0.2,0C221.6,842.8,221.8,842.8,222,842.8z"/>
	<polygon class="st0" points="146.6,596.4 146.6,663.4 146.6,663.4 	"/>
	<polygon class="st0" points="215.1,687.3 217.9,687.3 217.9,687.3 	"/>
	<path class="st0" d="M246.5,592.4c-2,1.1-4.2,1.7-6.5,1.8c0.2-0.3,0.2-0.5,0.2-0.5S242.9,593.3,246.5,592.4z"/>
	<path class="st0" d="M280.5,662.2c0,0.4,0,0.8-0.1,1.2h-55.9L141.6,552l-1,0.8l1.1-1.2l67.5,1.5c-8,7.2-15,16.7-11.8,26.3
		c7.4,22.7,34.7,17.1,38.7,16.6c1.3-0.2,2.2-0.5,2.8-0.8c8.4,3.4,13.1,11.7,15.1,16c-7.9,11.6-14.6,26.1-8.6,36l0,0
		c0.5,1.2,1.1,2.5,1.8,3.6c0.1,0.2,0.3,0.4,0.4,0.6c0.2,0.3,0.6,0.6,0.9,1c0.3,0.3,0.6,0.6,1,0.8c0.2,0.1,0.4,0.3,0.6,0.4
		c0.7,0.5,1.6,1.1,2.5,1.5c0.2,0.1,0.4,0.2,0.7,0.3c0.2,0.1,0.5,0.2,0.7,0.3c0.5,0.2,0.9,0.4,1.4,0.6c0.5,0.2,1,0.4,1.5,0.6
		c0.7,0.3,1.4,0.5,2.1,0.7c0.4,0.1,0.7,0.2,1.1,0.4C266.5,659.9,273.9,661.3,280.5,662.2z"/>
	<path class="st0" d="M294.9,583.3c-14,1.4-22.9,7-24.8,8.3c-2.5-2.1-5.9-5.1-8.9-7.7c-0.3,0.4-0.6,0.8-0.9,1.2v-7.9
		c1-1.9,1.6-3.1,1.6-3.1c0.1-0.3,0.2-0.7,0.2-1.1c0-0.1,0-0.3,0-0.5l0,0l0,0c0-0.2,0-0.3-0.1-0.5c0-0.1-0.1-0.2-0.1-0.4
		c0-0.1-0.1-0.2-0.1-0.4c0-0.1-0.1-0.2-0.1-0.4c0,0,0-0.1-0.1-0.2c-0.1-0.2-0.1-0.3-0.2-0.5c-0.1-0.1-0.1-0.2-0.2-0.3
		s-0.1-0.2-0.2-0.3c-0.1-0.2-0.3-0.4-0.4-0.7c-0.1-0.2-0.3-0.4-0.4-0.5c-0.4-0.5-0.8-1-1.3-1.5c-0.2-0.3-0.5-0.5-0.8-0.8
		c-0.1-0.1-0.3-0.3-0.4-0.4c-0.2-0.2-0.5-0.5-0.7-0.7s-0.4-0.4-0.7-0.6c-0.3-0.2-0.5-0.5-0.8-0.7c-0.2-0.2-0.5-0.4-0.7-0.6
		c0,0-0.1,0-0.1-0.1c-0.3-0.3-0.6-0.5-1-0.8c-0.2-0.1-0.4-0.3-0.5-0.4c-0.2-0.1-0.3-0.3-0.5-0.4c-0.1-0.1-0.2-0.1-0.3-0.2
		c-0.5-0.4-1-0.7-1.5-1.1c-1-0.7-2-1.4-2.9-2.1c-0.6-0.4-1.1-0.7-1.7-1.1c-1.9-1.2-3.7-2.3-5.5-3.3l34.7,0.7l3.8,5.7L294.9,583.3z"
		/>
	<path class="st0" d="M280,671.4c-0.2,5.8-0.3,11.3-0.2,15.9H138.9c-3.3,0-6.3-1.3-8.4-3.5c-2.2-2.2-3.5-5.1-3.5-8.4
		c0-6.6,5.3-11.9,11.9-11.9h57.6l-18.9-25.4l-18.9-25.4l0,0l-6-8.1l-6-8.1l0,0L132,576.7c-4.6-6.1-3.3-14.9,2.9-19.4l5.9-4.4l1-0.8
		l82.9,111.4h55.9C280.2,666.1,280.1,668.8,280,671.4z"/>
	<polygon class="st0" points="158.7,612.6 158.7,612.6 158.6,612.6 152.6,604.5 	"/>
	<polygon class="st0" points="217.9,687.3 217.9,687.3 215.1,687.3 215.1,687.3 	"/>
	<path class="st0" d="M649.2,687.3h-5.5v-5.5C643.7,684.8,646.2,687.3,649.2,687.3z"/>
	<path class="st0" d="M659.5,687.3H658v-0.2C658.5,687.2,659,687.3,659.5,687.3z"/>
	<path class="st0" d="M226.5,687.3v137c-1.3-0.7-2.8-1-4.3-1s-3,0.3-4.3,1v-137H226.5z"/>
	<path class="st0" d="M226.5,824.3v0.2c0,0-0.1,0-0.1,0L226.5,824.3c-1.4-0.5-2.8-0.9-4.3-0.9c-1.5,0-3,0.4-4.3,1v-0.1
		c1.3-0.6,2.8-1,4.3-1c1.5,0,2.9,0.4,4.2,0.9C226.4,824.2,226.4,824.2,226.5,824.3L226.5,824.3C226.4,824.3,226.5,824.3,226.5,824.3
		z"/>
	<path class="st0" d="M659.5,687.3H658v-0.2C658.5,687.2,659,687.3,659.5,687.3z"/>
	<path class="st0" d="M667.7,833.1c0,3-2.4,5.4-5.4,5.4c-2.9,0-5.4-2.4-5.4-5.4c0-1.2,0.4-2.4,1.1-3.3c1-1.3,2.5-2.1,4.3-2.1
		c1.8,0,3.3,0.8,4.3,2.1C667.3,830.7,667.7,831.9,667.7,833.1z"/>
	<path class="st0" d="M666.6,824.3L666.6,824.3c-1.3-0.5-2.7-0.9-4.2-0.9c-1.5,0-3,0.4-4.3,1c0,0-0.1,0-0.1,0v-0.2
		c1.3-0.6,2.8-1,4.3-1c0.6,0,1.1,0.1,1.7,0.2c0.8,0.1,1.5,0.3,2.1,0.6C666.3,824.2,666.4,824.2,666.6,824.3z"/>
	<path class="st0" d="M377.9,701.3v123c-0.3-0.1-0.7-0.3-1-0.4c-0.3-0.1-0.6-0.2-0.9-0.3c-0.1,0-0.3-0.1-0.4-0.1
		c-0.1,0-0.3-0.1-0.4-0.1s-0.3,0-0.4-0.1c-0.4,0-0.7-0.1-1.1-0.1c-0.4,0-0.8,0-1.1,0.1c-0.1,0-0.3,0-0.4,0.1s-0.3,0-0.4,0.1
		c-0.1,0-0.3,0.1-0.4,0.1c-0.3,0.1-0.6,0.2-0.9,0.3c-0.3,0.1-0.7,0.3-1,0.4V701.8C372.2,701.7,375.1,701.5,377.9,701.3z"/>
	<path class="st0" d="M377.9,824.3L377.9,824.3c-1.3-0.5-2.7-0.9-4.2-0.9c-1.6,0-3,0.4-4.3,1c0,0-0.1,0-0.1,0v-0.2
		c0.3-0.1,0.7-0.3,1-0.4c0.7-0.2,1.4-0.4,2.2-0.5c0.4,0,0.7-0.1,1.1-0.1c0.4,0,0.8,0,1.1,0.1c0.8,0.1,1.5,0.3,2.2,0.5
		C377.2,824,377.6,824.2,377.9,824.3z"/>
	<rect x="377.9" y="793.7" class="st0" width="280.1" height="9.1"/>
	<rect x="226.5" y="793.7" class="st0" width="142.9" height="9.1"/>
	<path class="st0" d="M666.6,687.3v137c-1.3-0.6-2.8-1-4.3-1s-3,0.4-4.3,1v-137H666.6z"/>
	<path class="st0" d="M722.9,793.7c-0.5,3.1-1,6.1-1.5,9.1h-54.8v-9.1H722.9z"/>
	<path class="st0" d="M792,802.8h-34.8c1-2.9,2-6,3-9.1h30.6L792,802.8z"/>
	<path class="st0" d="M231.9,832.4c0-0.5-0.1-0.9-0.2-1.3c0-0.2-0.1-0.4-0.2-0.6c-0.8-2.7-2.6-4.9-5-6c0,0-0.1,0-0.1,0v0
		c0,0,0.1,0,0.1,0c3.2,1.5,5.3,4.9,5.3,8.6c0,2.3-0.8,4.5-2.2,6.2c-0.2,0.2-0.4,0.4-0.6,0.6c-0.1,0.1-0.2,0.2-0.3,0.3
		c-1.7,1.6-4,2.5-6.5,2.5c-4.2,0-7.7-2.6-9.1-6.3c1.1,3,3.5,5.3,6.7,6.1c0.2,0,0.3,0.1,0.5,0.1c0.1,0,0.2,0,0.3,0.1
		c0.2,0,0.4,0.1,0.7,0.1c0.1,0,0.1,0,0.2,0c0.2,0,0.4,0,0.7,0h0.2c0.1,0,0.3,0,0.4,0c5-0.2,9.1-4.2,9.3-9.3c0-0.1,0-0.3,0-0.4
		C231.9,832.9,231.9,832.6,231.9,832.4z M212.8,835.4c0-0.2-0.1-0.3-0.1-0.5C212.7,835.1,212.8,835.3,212.8,835.4z M212.5,833.6
		c0,0.3,0,0.5,0.1,0.8c0,0.2,0.1,0.4,0.1,0.6C212.6,834.5,212.5,834,212.5,833.6L212.5,833.6z M213,836.2c-0.1-0.3-0.2-0.5-0.2-0.8
		C212.9,835.7,213,836,213,836.2z M213.1,836.4c0-0.1,0-0.1-0.1-0.2C213.1,836.3,213.1,836.3,213.1,836.4z"/>
	<path class="st0" d="M226.5,824.5C226.5,824.4,226.4,824.4,226.5,824.5L226.5,824.5c-1.4-0.7-2.8-1-4.3-1c-1.5,0-3,0.4-4.3,1
		c-3,1.4-5.1,4.5-5.4,8c0,0.2,0,0.5,0,0.7c0,0.1,0,0.3,0,0.4c0.3,5.2,4.5,9.2,9.7,9.2c2.5,0,4.8-1,6.5-2.5c0.1-0.1,0.2-0.2,0.3-0.3
		c0.2-0.2,0.4-0.4,0.6-0.6c1.4-1.7,2.2-3.8,2.2-6.2C231.8,829.3,229.7,826,226.5,824.5z M222.1,838.5c-2.9,0-5.4-2.4-5.4-5.4
		c0-1.3,0.5-2.5,1.2-3.4c1-1.2,2.5-2,4.2-2c1.8,0,3.4,0.9,4.4,2.3c0.6,0.9,1,2,1,3.1C227.5,836.1,225.1,838.5,222.1,838.5z"/>
	<path class="st0" d="M227.5,833.1c0,3-2.4,5.4-5.4,5.4c-2.9,0-5.4-2.4-5.4-5.4c0-1.3,0.5-2.5,1.2-3.4c1-1.2,2.5-2,4.2-2
		c1.8,0,3.4,0.9,4.4,2.3C227.1,830.8,227.5,831.9,227.5,833.1z"/>
	<path class="st0" d="M378,824.4C378,824.4,377.9,824.4,378,824.4c-1.4-0.6-2.8-1-4.3-1c-1.6,0-3,0.4-4.3,1c0,0-0.1,0-0.1,0
		c-3.1,1.5-5.3,4.9-5.3,8.6c0,5.3,4.3,9.7,9.7,9.7c5.3,0,9.7-4.3,9.7-9.7C383.4,829.2,381.1,825.9,378,824.4z M373.6,838.5
		c-3,0-5.4-2.4-5.4-5.4c0-1.2,0.4-2.4,1.1-3.3c1-1.3,2.5-2.1,4.3-2.1c1.8,0,3.3,0.8,4.3,2.1c0.7,0.9,1.1,2,1.1,3.3
		C379,836.1,376.6,838.5,373.6,838.5z"/>
	<path class="st0" d="M379,833.1c0,3-2.4,5.4-5.4,5.4s-5.4-2.4-5.4-5.4c0-1.2,0.4-2.4,1.1-3.3c1-1.3,2.5-2.1,4.3-2.1
		c1.8,0,3.3,0.8,4.3,2.1C378.6,830.7,379,831.9,379,833.1z"/>
	<path class="st0" d="M666.7,824.4c0,0-0.1,0-0.1,0c-1.3-0.6-2.7-1-4.2-1c-1.5,0-3,0.4-4.3,1c0,0-0.1,0-0.1,0
		c-3.2,1.5-5.3,4.9-5.3,8.6c0,5.3,4.3,9.7,9.7,9.7c5.3,0,9.7-4.3,9.7-9.7C672.1,829.2,669.9,825.9,666.7,824.4z M662.3,838.5
		c-2.9,0-5.4-2.4-5.4-5.4c0-1.2,0.4-2.4,1.1-3.3c1-1.3,2.5-2.1,4.3-2.1c1.8,0,3.3,0.8,4.3,2.1c0.7,0.9,1.1,2,1.1,3.3
		C667.7,836.1,665.3,838.5,662.3,838.5z"/>
	<path class="st0" d="M260.2,609.9c-2.2,1.9-4.1,3.4-5.1,3.7c0,0-0.3-1-1.1-2.6c-2-4.2-6.8-12.5-15.1-16c0.6-0.3,0.9-0.7,1-0.9
		c2.3,0,4.5-0.7,6.5-1.8c4.5-1.2,10.4-3.5,13.8-7.3c0.3-0.4,0.6-0.8,0.9-1.2c3,2.6,6.4,5.6,8.9,7.7c1.5,1.3,2.7,2.3,3.2,2.6
		C274.8,595.2,266.4,604.5,260.2,609.9z"/>
	<path class="st0" d="M323.3,586.3c-3.2,2.2-10,7.1-17.1,13.8l0,0c-7.8,7.4-16,17.1-19.9,27.6c-0.6,1.6-1.1,3.4-1.6,5.3
		c0,0.1-0.1,0.3-0.1,0.4c0,0.1-0.1,0.3-0.1,0.4c-1.6,6.2-2.7,13.5-3.4,21c-0.2,2.5-0.4,5-0.6,7.5c-6.6-0.9-14-2.3-20.2-4.2
		c-6-1.9-11-4.3-13-7.3c-0.8-1.1-1.3-2.3-1.8-3.6l0,0c-6-9.9,0.7-24.4,8.6-36c0.7,1.6,1.1,2.6,1.1,2.6c1-0.4,2.9-1.8,5.1-3.7
		c6.1-5.4,14.5-14.7,13-15.8c-0.5-0.3-1.6-1.3-3.2-2.6c2-1.3,10.9-6.9,24.8-8.3c6.7-0.7,14.6-0.4,23.4,1.8
		C319.5,585.3,321.2,585.8,323.3,586.3z"/>
	<polygon class="st0" points="158.7,612.6 158.7,663.4 146.6,663.4 146.6,596.4 146.6,596.4 152.6,604.5 	"/>
	<path class="st0" d="M246.5,592.4c-2,1.1-4.2,1.7-6.5,1.8c0.2-0.3,0.2-0.5,0.2-0.5S242.9,593.3,246.5,592.4z"/>
	<path class="st0" d="M261.2,583.9c-0.3,0.4-0.6,0.8-0.9,1.2v-2C260.5,583.3,260.8,583.6,261.2,583.9z"/>
	<path class="st0" d="M261.2,583.9c-0.3,0.4-0.6,0.8-0.9,1.2v-2C260.5,583.3,260.8,583.6,261.2,583.9z"/>
	<g>
		<path class="st0" d="M262,573c0,0.4-0.1,0.7-0.2,1.1c0,0-0.6,1.2-1.6,3.1v7.9c-3.3,3.8-9.2,6.1-13.8,7.3c-3.6,1-6.3,1.3-6.3,1.3
			s-0.9-2.4-2.5-4.5c-1.2-1.6-2.9-3.1-4.9-3.2c0,0-5.3,1-6.1-2.1c-0.8-3.2,3-2.2,3.8-3.7c0.7-1.3-1-5.4-3.8-8.3
			c-0.5-0.5-1-0.9-1.5-1.3c-0.4-0.3-0.6-0.7-0.6-1.1c0-0.1,0-0.2,0-0.3s0-0.2,0.1-0.3c0-0.1,0-0.1,0.1-0.2c0-0.1,0-0.1,0.1-0.2
			c0.3-0.8,0.9-1.7,1.7-2.6c0.2-0.2,0.3-0.4,0.5-0.6c0.8-0.9,1.7-1.9,2.7-2.9c0.2-0.2,0.4-0.4,0.6-0.6c0.5-0.5,0.9-1,1.4-1.5
			c1.6-1.6,3.1-3.3,4.3-4.9c0.2-0.3,0.4-0.5,0.6-0.8c0.2-0.3,0.4-0.5,0.5-0.8c0.3-0.5,0.6-0.9,0.8-1.4c0.9,0.4,1.8,0.9,2.8,1.5
			c1.7,1,3.6,2.1,5.5,3.3c0.6,0.4,1.1,0.7,1.7,1.1c1,0.7,2,1.4,2.9,2.1c0.5,0.4,1,0.7,1.5,1.1c0.1,0.1,0.2,0.1,0.3,0.2
			c0.2,0.1,0.3,0.2,0.5,0.4c0.2,0.1,0.4,0.3,0.5,0.4c0.3,0.3,0.6,0.5,1,0.8c0,0,0.1,0,0.1,0.1c0.2,0.2,0.5,0.4,0.7,0.6
			c0.3,0.2,0.5,0.5,0.8,0.7c0.2,0.2,0.4,0.4,0.7,0.6c0.2,0.2,0.5,0.4,0.7,0.7c0.1,0.1,0.3,0.3,0.4,0.4c0.3,0.3,0.5,0.6,0.8,0.8
			c0.5,0.5,0.9,1,1.3,1.5c0.1,0.2,0.3,0.4,0.4,0.5c0.2,0.2,0.3,0.5,0.4,0.7c0.1,0.1,0.1,0.2,0.2,0.3s0.1,0.2,0.2,0.3
			c0.1,0.2,0.2,0.3,0.2,0.5c0,0.1,0,0.1,0.1,0.2c0,0.1,0.1,0.2,0.1,0.4c0,0.1,0.1,0.2,0.1,0.4c0,0.1,0.1,0.2,0.1,0.4
			S262,572.7,262,573L262,573L262,573C262,572.7,262,572.8,262,573z"/>
		<path class="st0" d="M246.5,592.4c-2,1.1-4.2,1.7-6.5,1.8c0.2-0.3,0.2-0.5,0.2-0.5S242.9,593.3,246.5,592.4z"/>
	</g>
	<g>
		<path class="st0" d="M240.1,593.7c0,0,0,0.2-0.2,0.5s-0.5,0.6-1,0.9c-0.6,0.3-1.5,0.7-2.8,0.8c-3.9,0.6-31.3,6.1-38.7-16.6
			c-3.2-9.6,3.8-19.1,11.8-26.3c0.2-0.2,0.4-0.4,0.6-0.6c0.8-0.7,1.6-1.4,2.5-2.1c5.9-4.8,11.7-8.4,14-9.8c9.8-6,13.9,3.8,12.1,10.5
			c-0.1,0.4-0.2,0.7-0.4,1.1c-0.2,0.5-0.5,0.9-0.8,1.4c-0.1,0.3-0.3,0.5-0.5,0.8s-0.4,0.5-0.6,0.8c-1.2,1.6-2.8,3.3-4.3,4.9
			c-0.5,0.5-0.9,1-1.4,1.4c-0.2,0.2-0.4,0.4-0.6,0.6c-1,1-1.9,2-2.7,2.9c-0.2,0.2-0.4,0.4-0.5,0.6c-0.8,1-1.4,1.9-1.7,2.6
			c0,0.1-0.1,0.2-0.1,0.2c0,0.1,0,0.1-0.1,0.2c0,0.1,0,0.2,0,0.3s0,0.2,0,0.3c0,0.5,0.2,0.8,0.6,1.1c0.5,0.4,1,0.8,1.5,1.3
			c2.9,2.9,4.6,7,3.9,8.3c-0.9,1.5-4.6,0.5-3.8,3.7s6.1,2.1,6.1,2.1c2,0.2,3.7,1.6,4.9,3.2C239.3,591.3,240.1,593.7,240.1,593.7z"/>
	</g>
	<path class="st0" d="M657.7,687c0.1,0,0.3,0.1,0.4,0.1v0.2h-8.8c-3,0-5.5-2.5-5.5-5.5v-84.4c0-3,2.5-5.5,5.5-5.5h10.3
		c-3,0-5.5,2.5-5.5,5.5v84.4c-0.1,1.7,0.7,3.3,2,4.3c0.1,0.1,0.2,0.2,0.4,0.3C656.9,686.6,657.2,686.8,657.7,687z"/>
	<path class="st0" d="M659.5,687.3H658v-0.2C658.5,687.2,659,687.3,659.5,687.3z"/>
	<path class="st0" d="M783.6,687.2c-2.6-0.2-5.1-0.5-7.7-1C778.5,686.6,781,687,783.6,687.2z"/>
	<path class="st0" d="M734.5,676.3C734.5,676.3,734.5,676.3,734.5,676.3c-0.2,3.6-0.4,7.3-0.6,11h-74.4c-0.1,0-0.2,0-0.4,0
		c-0.3,0-0.7-0.1-1-0.2c-0.1,0-0.3-0.1-0.4-0.1c-0.4-0.1-0.8-0.3-1.2-0.6c-0.1-0.1-0.2-0.2-0.4-0.3c-1.2-1-2-2.6-2-4.3v-84.4
		c0-3,2.5-5.5,5.5-5.5h64.2l1.8,10.9l1.2-0.1l0.2,0c-2.1,14.8-3.9,28.5-5.5,39.6c-0.4,3.3-0.9,6.3-1.2,9.1
		c-1.6,11.5-2.5,18.6-2.5,18.6S723.1,674.3,734.5,676.3C734.4,676.3,734.5,676.3,734.5,676.3z"/>
	<path class="st0" d="M783.6,687.2c-2.6-0.2-5.1-0.5-7.7-1C778.5,686.6,781,687,783.6,687.2z"/>
	<path class="st0" d="M369.3,701.8v91.9H260.2V687.3h19.6c0,8.3,0.3,13.9,0.3,13.9s0.1,0,0.2,0c1.2,0.1,7.9,0.5,18.1,0.8
		c1.5,0,3,0.1,4.6,0.1h0.3c2.6,0.1,5.2,0.1,8.1,0.2h0.1c1.6,0,3.2,0.1,4.8,0.1c8.7,0.2,18.6,0.2,28.9,0
		C353.2,702.4,361.2,702.2,369.3,701.8z"/>
	<path class="st0" d="M503.5,607.2c-11.7-0.8-22.2-1.7-30.5-2.6c-5.8-0.7-11.9-1.4-18.2-2.3c-19.5-2.7-40.4-6.1-60.4-9.1
		c-11.7-1.8-23.1-3.5-33.7-4.8c0,0-0.1,0-0.1,0c-2.9-0.4-5.7-0.7-8.5-1c0,0-0.1,0-0.1,0c-2.1-0.2-4.2-0.5-6.3-0.7
		c-7.5-0.7-14.3-1.2-20.3-1.3c0,0-0.7,0.4-1.9,1.2c-1,0.7-2.3,1.6-3.9,2.8c-0.6,0.4-1.3,0.9-2,1.5c-0.4,0.2-0.7,0.5-1.1,0.8
		c-0.7,0.6-1.5,1.2-2.3,1.9c-0.8,0.6-1.5,1.2-2.3,1.9c-0.1,0.1-0.1,0.1-0.2,0.2c-0.7,0.7-1.4,1.3-2.2,2c-2.7,2.4-2.8,2.5-3,2.7
		c-0.5,0.5-1.1,1-1.6,1.5l-1.6,1.6c-1.8,1.8-3.5,3.7-5.2,5.7c-0.3,0.4-0.7,0.8-1,1.2c-0.4,0.4-0.7,0.9-1.1,1.3
		c-0.2,0.2-0.3,0.4-0.4,0.5c-0.3,0.4-0.6,0.8-0.9,1.2c-1.1,1.5-2.2,3.1-3.2,4.7c-0.2,0.4-0.5,0.8-0.7,1.2c-0.3,0.4-0.5,0.8-0.7,1.2
		c-0.3,0.6-0.6,1.1-0.9,1.7c-0.4,0.6-0.7,1.3-1,1.9c-0.7,1.3-1.2,2.6-1.7,3.9c-0.2,0.9-0.5,1.7-0.8,2.6s-0.6,1.8-0.8,2.7
		c0,0.2-0.1,0.3-0.1,0.4c0,0.1-0.1,0.3-0.1,0.4c-1.6,6.2-2.7,13.5-3.4,20.9c-0.2,2.5-0.4,5-0.6,7.5c-0.1,0.4-0.1,0.7-0.1,1.1v0.1
		c-0.2,2.7-0.3,5.4-0.4,8c-0.2,5.8-0.2,11.3-0.2,15.9c0,7.4,0.2,12.7,0.3,13.7c1.2,0.1,7.9,0.5,18.1,0.8c1.5,0,3,0.1,4.6,0.1h0.3
		c2.6,0.1,5.2,0.1,8.1,0.2h0.1c1.6,0,3.2,0.1,4.8,0.1c8.7,0.2,18.6,0.2,28.9,0c8,0,16-0.2,24.1-0.6c2.9-0.1,5.8-0.3,8.6-0.5v0.1
		c0.4-0.1,0.9-0.1,1.3-0.1c48.9-3.3,208.5,6.7,232.9,4.9c24.5-1.9,31.6-4.3,31.6-4.3v-88.2C643.7,613.7,559.7,611,503.5,607.2z"/>
	<path class="st0" d="M377.9,701.3v0.1c-2.9,0.2-5.7,0.4-8.6,0.5c-8.1,0.4-16.2,0.6-23.9,0.7c-10.4,0.2-20.2,0.1-28.9,0
		c-1.7,0-3.3,0-4.8-0.1h-0.1c-2.9-0.1-5.6-0.1-8.1-0.2h-0.3c-1.6,0-3.2-0.1-4.6-0.1c-11.3-0.4-18.3-0.8-18.3-0.8s0-0.1,0-0.2
		c1.2,0.1,7.9,0.5,18.1,0.8c1.5,0,3,0.1,4.6,0.1h0.3c2.6,0.1,5.2,0.1,8.1,0.2h0.1c1.6,0,3.2,0.1,4.8,0.1c8.7,0.2,18.6,0.2,28.9,0
		c8,0,16-0.2,24.1-0.6C372.2,701.7,375.1,701.5,377.9,701.3z"/>
	<path class="st0" d="M764.6,448.9c-2,1-4.3,2-6.8,3.3c0,0,0,0-0.1,0c0,0,0,0,0,0c0,0,0,0-0.1,0c0,0,0.1-0.1,0.2-0.1
		c0.1-0.1,0.3-0.2,0.4-0.2c1.6-0.9,3.3-1.7,4.9-2.4C763.6,449.3,764.1,449.1,764.6,448.9z"/>
	<path class="st0" d="M743.2,831.9c-0.1,3.5-0.5,6.8-1.8,8.1h-51c0.7-1.8,2.5-4.6,7.7-5.5c6-1,15.2-3.8,20.6-9.6
		c0.6,0.8,1.5,1.4,2.5,1.7C726.5,828.4,736.3,833.3,743.2,831.9z"/>
	<path class="st0" d="M778.9,707.8c-0.7,3.2-1.3,6.1-1.7,8.7c-0.7,3.9-1.2,7.1-1.3,9.4c-0.9,16.7-8.2,44.8-15.7,67.8
		c-1,3.1-2,6.2-3,9.1c-5.5,16.1-10.6,28-12.4,28.7c-0.5,0.2-1,0.3-1.5,0.4c0,0-0.1,0-0.1,0c-0.6,0.1-1.3,0.2-2,0.2
		c-0.6,0-1.2,0-1.8,0c-3.4-0.2-7.1-1.4-10.4-2.6c-0.2-0.1-0.4-0.2-0.6-0.2c-0.8-0.3-1.6-0.6-2.4-0.9c0,0-0.1,0-0.1,0
		c-1.7-0.6-3.3-1.2-4.5-1.7c-0.5-0.2-1-0.4-1.5-0.7c-0.1-0.1-0.1-0.1-0.2-0.2c-0.3-0.2-0.6-0.5-0.8-0.8c-0.9-1.1-1.3-2.5-1-3.9
		c1.3-5.9,2.5-11.9,3.6-18.3c0,0,0-0.1,0-0.1c0.5-3,1-5.9,1.5-9c0,0,0-0.1,0-0.1c5.4-33.8,8.8-72.2,10.9-106.3c0,0,0-0.1,0-0.1
		c0.2-3.7,0.4-7.3,0.6-10.9c0,0,0,0,0,0v-0.1c6.2,1.1,14.2,1.6,24.1,0.3c3.3-0.4,6-4,8.3-9.9c1.5-4,2.9-9.1,4-15.2
		c0-0.3,0.1-0.5,0.1-0.8l0,0.1l0.1,0.7l4.8,34.8l0.1,1.1L778.9,707.8z"/>
	<path class="st0" d="M829.7,681.6c-0.1,36.4-8.7,149.6-8.7,149.6c-0.3,0.1-0.7,0.2-1,0.2c-1.1-4.8-2.6-6.1-2.6-6.1
		s-1.6-0.3-3.8-0.6c0,0,0,0,0,0c-0.6-0.1-1.2-0.2-1.9-0.2c-0.5,0-0.9-0.1-1.4-0.1c-0.1,0-0.2,0-0.3,0c-0.2,0-0.4,0-0.5,0
		c-1,0-2.1-0.1-3.1,0c-3.3,0.1-6.3,0.8-7.2,2.8c-0.6,1.1-1.1,2.4-1.5,3.7c-0.9-0.2-1.5-0.3-1.5-0.3l-3.8-27.7l-1.3-9.1l-11.9-85.9
		l-2.9-20.5l-0.1-1.1c2.6,0.5,5.1,0.8,7.7,1c0.3,0,0.6,0.1,0.9,0.1c0.7,0,1.3,0.1,2,0.1c0.8,0,1.6,0.1,2.4,0.1h0
		c2.9,0.1,5.9,0.1,8.8-0.1c0.7,0,1.3-0.1,2-0.1h-0.1c1.8-0.1,3.5-0.3,5.3-0.5c1.9-0.2,3.7-0.5,5.6-0.8
		C816.7,685,823,683.5,829.7,681.6z"/>
	<path class="st0" d="M806.1,824.3c-3.2,0.1-6.2,0.9-7.1,2.8c-0.6,1.1-1,2.4-1.5,3.7c0,0-0.1,0-0.1,0c0.4-1.3,0.9-2.6,1.5-3.7
		C799.9,825.2,802.8,824.5,806.1,824.3z"/>
	<path class="st0" d="M799.7,687.3c-0.7,0-1.3,0.1-2,0.1c0.6,0,1.3-0.1,1.9-0.1H799.7z"/>
	<path class="st0" d="M821.1,840.1h-25.8c0.2-1.4,0.9-5.5,2.1-9.3c0,0,0,0,0,0c0.4-1.3,0.9-2.6,1.5-3.7c1-1.9,3.9-2.6,7.2-2.8
		c1,0,2.1,0,3.1,0c0.2,0,0.4,0,0.5,0c0.1,0,0.2,0,0.3,0c0.5,0,1,0.1,1.4,0.1c0.7,0.1,1.3,0.1,1.9,0.2c0,0,0,0,0,0
		c2.2,0.3,3.7,0.6,3.7,0.6s1.5,1.3,2.6,6.1C820.4,833.5,820.9,836.4,821.1,840.1z"/>
	<path class="st0" d="M783.6,687.2c-2.6-0.2-5.1-0.5-7.7-1C778.5,686.6,781,687,783.6,687.2z"/>
	<path class="st1" d="M775.7,600.7c-0.4,8.8-0.9,17.2-1.6,25.1c-0.5,5.9-1.1,11.4-1.8,16.5c-0.4,2.9-0.9,5.7-1.4,8.4l0-0.1
		c-0.1,0.3-0.1,0.5-0.1,0.8c-1.1,6-2.4,11.2-4,15.2c-2.3,5.9-5,9.5-8.3,9.9c-9.9,1.3-17.9,0.8-24.1-0.3v0.1
		c-11.3-2-16.6-6.3-16.6-6.3s0.9-7.1,2.5-18.6c0.4-2.8,0.8-5.8,1.2-9.1c1.5-11.1,3.4-24.8,5.5-39.6l-0.2,0v0l11.5-0.5h1.1l24.6-1
		l3.9-0.2L775.7,600.7z"/>
	<path class="st1" d="M770.9,650.7C770.9,650.7,770.9,650.7,770.9,650.7c0,0.3-0.1,0.5-0.1,0.7c-1.1,6-2.4,11.3-4,15.3
		c-2.2,5.9-5,9.5-8.3,9.9c-9.8,1.3-17.8,0.9-24-0.3c0,0-0.1,0-0.1,0h0c-11.4-2-16.8-6.3-16.8-6.3s0.9-7.1,2.5-18.6
		c0.4-2.8,0.8-5.8,1.2-9.1c1.5-11.1,3.4-24.8,5.5-39.6l0.2,0c-2.1,14.8-3.9,28.5-5.5,39.6c-0.4,3.3-0.9,6.3-1.2,9.1
		c-1.6,11.5-2.5,18.6-2.5,18.6s5.3,4.3,16.6,6.3v-0.1c6.2,1.1,14.2,1.6,24.1,0.3c3.3-0.4,6-4,8.3-9.9c1.5-4,2.9-9.1,4-15.2
		C770.8,651.1,770.8,650.9,770.9,650.7L770.9,650.7z"/>
	<path class="st1" d="M858.1,565c-0.3,0.3-0.6,0.6-1,0.9c-2.8,2.4-6.8,3.9-11.3,4.9c-2.4,0.5-4.9,0.9-7.6,1.1c0-0.1,0-0.1,0-0.2
		c-2,0.2-4,0.3-6.1,0.3h-0.8c-10.4,0-21.6-1.4-30.5-2.9c-3-0.5-5.8-1-8.1-1.5l0,0.2c0,0-0.1,0-0.1,0l0-0.1c0,0,0,0,0,0l-0.3-1.6
		l-0.1-0.9v-19.3c1.5-0.2,3.5-0.4,5.7-0.7c0.9-0.1,1.9-0.2,2.9-0.4c4.9-0.7,10.4-1.7,15.2-3.1c4.9-1.5,9-3.3,10.6-5.8
		c0.3-0.5,0.5-0.9,0.6-1.4c0.3-1-0.1-3.5-0.8-7c-0.1-0.3-0.1-0.5-0.2-0.8c-0.3-1.5-0.6-3.1-1-4.9c-0.3-1.2-0.6-2.5-0.9-3.8
		c-0.7-2.8-1.5-5.9-2.4-9.1c0,0,0-0.1,0-0.1c-4.8-17.7-11.5-40.1-15.4-52.9c1.5-2.7,2.8-4.9,3.7-6.5c0.5-0.8,0.8-1.5,1.1-1.9
		c0.2-0.4,0.3-0.5,0.3-0.5c8.3,1.3,20.9,4.6,28.1,12.5c3.2,3.4,12,21.9,18.3,42.9v0c0.6,2.1,1.2,4.2,1.8,6.3c0,0,0,0.1,0,0.1
		c0.8,3,1.6,6.1,2.2,9.1C866.4,537.2,867,556,858.1,565z"/>
	<path class="st1" d="M792.6,567.7C792.6,567.7,792.6,567.7,792.6,567.7L792.6,567.7C792.6,567.7,792.6,567.7,792.6,567.7z"/>
	<path class="st1" d="M838.2,571.9c0,0-0.1,0-0.1,0c-2,0.2-4,0.2-6.1,0.3c-10.6,0.1-22.1-1.4-31.2-2.9c-3-0.5-5.7-1-8.1-1.5l0-0.2
		c2.3,0.5,5.1,1,8.1,1.5c8.9,1.5,20.1,2.9,30.5,2.9h0.8c2.1,0,4.1-0.1,6.1-0.3C838.2,571.8,838.2,571.8,838.2,571.9z"/>
	<path class="st0" d="M792.6,567.7C792.6,567.7,792.6,567.7,792.6,567.7C792.6,567.7,792.5,567.7,792.6,567.7L792.6,567.7
		C792.5,567.7,792.5,567.7,792.6,567.7C792.5,567.7,792.6,567.7,792.6,567.7C792.6,567.7,792.6,567.7,792.6,567.7z"/>
	<path class="st1" d="M768.4,447.6c-0.1,0.2-0.2,0.4-0.3,0.6c0,0.1-0.1,0.2-0.1,0.2l-0.2,2.3l-0.9,11.5l-1.4,18
		c-0.2,0.7-0.3,1.2-0.3,1.4v0.1c0,0.1,0,0.1,0,0.1c0,0.1,0,0.1,0,0.1c-2.3,7.7-5.6,17.1-8.8,26.4c-0.4-0.1-0.7-0.1-1,0
		c-0.8,0.1-2.4,0.2-4.4,0.3c-0.5,0-1.1,0.1-1.6,0.1c-2.8,0.2-6,0.3-8.9,0.5c-1.9,0.1-3.6,0.2-4.8,0.2c-1.2,0.1-2,0.1-2,0.1
		s-1.2,0-2.1,0.4c0,0,0,0,0,0c-0.8,0.2-1.4,0.8-1.4,1.7l-14.2,0.6c0.4-1.2,0.8-2.3,1.2-3.5c0,0,0-0.1,0-0.1
		c6.1-17.1,13.8-33.3,16-38.3c1.2-2.9,4.6-6,8.9-9.1c4.6-3.3,10.3-6.5,15.5-9.1c0,0,0,0,0.1,0c0,0,0,0,0,0c0,0,0,0,0.1,0
		c2.5-1.2,4.8-2.3,6.8-3.3c-0.5,0.2-1,0.4-1.5,0.6c0.6-0.3,1.2-0.6,1.8-0.8c0.2,0,0.3-0.1,0.5-0.2c-0.2,0.1-0.5,0.2-0.7,0.4
		c0.6-0.2,1.3-0.5,1.9-0.7c0.1,0,0.3-0.1,0.4-0.1c0,0,0,0,0,0c0,0,0,0,0,0c0.2-0.1,0.3-0.1,0.5-0.2
		C767.8,447.8,768.1,447.7,768.4,447.6z"/>
	<path class="st1" d="M730.5,511.7C730.5,511.7,730.5,511.8,730.5,511.7l-0.3,0.1l-14.3,0.6c0,0,0-0.1,0-0.1l14.2-0.6
		c0-1,0.6-1.5,1.4-1.7C730.9,510.3,730.4,510.8,730.5,511.7z"/>
	<path class="st1" d="M764.6,448.9c-2,1-4.3,2-6.8,3.3c0,0,0,0,0,0c0,0,0,0,0,0c0.1-0.1,0.3-0.1,0.4-0.2c1.7-0.9,3.4-1.7,4.9-2.4
		C763.6,449.3,764.1,449.1,764.6,448.9z"/>
	<path class="st1" d="M765.5,480.3l-0.1,1.2l0,0.4c-2.4,7.7-5.6,17.2-8.8,26.5l-0.1,0c3.2-9.3,6.5-18.7,8.8-26.4c0,0,0,0,0-0.1
		c0,0,0,0,0-0.1v-0.1C765.3,481.4,765.4,480.9,765.5,480.3z"/>
	<path class="st1" d="M767,448C767,448,767,448,767,448C767,448,767,448,767,448c-0.2,0.1-0.3,0.1-0.4,0.2c-0.6,0.2-1.3,0.5-1.9,0.7
		c0.2-0.1,0.5-0.2,0.7-0.4C765.9,448.4,766.5,448.2,767,448z"/>
	<path class="st0" d="M759.1,510.7l-3.2,0.1L759.1,510.7C759.1,510.7,759.1,510.7,759.1,510.7z"/>
	<path class="st0" d="M773.4,450.4c-0.1-0.5-0.1-1-0.1-1.5C773.3,449.4,773.3,449.9,773.4,450.4z"/>
	<path class="st0" d="M773.6,446.7c0,0.1,0,0.2-0.1,0.3c0,0.2-0.1,0.3-0.1,0.5c0,0.2,0,0.4-0.1,0.7v0c-1,4-2.2,9.1-3.4,14.1
		c-2.1,8.8-4,17.3-4.5,19.1l0,0.4c-2.4,7.7-5.6,17.2-8.8,26.5l-0.1,0c3.2-9.3,6.5-18.7,8.8-26.4c0,0,0,0,0-0.1c0,0,0,0,0-0.1v-0.1
		c0.1-0.3,0.2-0.8,0.3-1.4c0.7-3.2,2.4-10.5,4.2-17.9C771.1,456.6,772.5,450.8,773.6,446.7z"/>
	<path class="st0" d="M784,508.7C784,508.7,784,508.8,784,508.7c-0.1,1-0.3,2-0.4,3.1c0,0.2-0.1,0.5-0.1,0.7l-0.5-2.9l-5.1,0.2
		l-1.8,0.1l-17,0.8c0,0,0-0.1,0-0.1c0,0,0-0.1,0-0.1c0,0,0,0,0-0.1c0-0.1-0.1-0.2-0.2-0.3c-0.1-0.2-0.2-0.4-0.4-0.6
		c-0.2-0.3-0.5-0.5-1-0.7c-0.1,0-0.2-0.1-0.2-0.1H784z"/>
	<path class="st3" d="M802,441.2c-0.6,0.6-1.3,1.5-2,2.9c-1.3,2.7-2.7,6.7-4,11.2c-0.4,0.1-0.7,0.2-1.1,0.3c-0.1,0-0.2,0-0.2,0.1
		c-0.8,0.2-1.7,0.4-2.5,0.5c0-0.1,0-0.2,0-0.2c0,0,0,0.1-0.1,0.2c-1.2,0.2-2.5,0.4-3.7,0.5c0,0-0.1,0-0.1,0c-0.3,0-0.5,0-0.8,0.1
		c0-0.1,0-0.1,0-0.1c0,0-0.1,0-0.1,0.1c-3,0.2-5.9,0-8.4-0.4c-0.3-0.1-0.7-0.1-1-0.2c0,0,0,0,0,0c0,0,0,0,0,0
		c-0.2-0.1-0.4-0.1-0.5-0.2c-0.5-0.2-0.9-0.4-1.3-0.7c-0.9-0.7-1.6-1.5-2-2.4c-0.3-0.6-0.5-1.3-0.5-1.9c0-0.2,0-0.3-0.1-0.5
		c-0.1-0.5-0.1-1.1-0.1-1.5c0-0.1,0-0.2,0-0.3c0-0.1,0-0.3,0-0.4v0c0.2-0.6,0.3-1.2,0.5-1.8c0.1-0.1,0.1-0.1,0.1-0.2V446
		c0-0.1,0-0.2,0-0.3c0-0.1,0-0.1,0-0.2c0,0,0,0,0,0v0c0,0,0,0,0,0c0,0,0,0,0,0c0,0,0,0,0,0c0-0.1,0-0.2,0.1-0.3c0,0,0,0,0,0
		c0,0,0,0,0,0c0.4-1.8,0.3-2.5,0.4-3.2c0,0,0-0.1,0-0.2c-0.1,0-0.1,0-0.2,0.1c0.1-1,0.2-2.2,0.3-3.5c0-0.5,0.1-0.9,0.1-1.5v-1.6
		c0.3,0,0.7,0.1,1,0.1c4.9,0.6,13.7,1,20.4-2.2c0,0,0.1,0,0.1,0c0.2-0.1,0.3-0.1,0.4-0.2c0.1,0,0.2-0.1,0.3-0.1c1-0.5,1.9-1,2.7-1.7
		c0.6,2.3,1.1,5.6,2.2,9.3C801.9,440.7,801.9,441,802,441.2z"/>
	<path class="st0" d="M773.3,448.9c0,0.5,0,1,0.1,1.5C773.3,449.9,773.3,449.4,773.3,448.9z"/>
	<path class="st0" d="M774.5,441.8c0,0,0,0.1,0,0.2c-0.1,0.7,0,1.4-0.4,3.2c0,0,0,0,0,0c0,0,0,0,0,0c0,0.1,0,0.2-0.1,0.3
		c0,0,0,0,0,0c0,0,0,0,0,0c0,0,0,0,0,0v0c0,0,0,0,0,0c0,0.1,0,0.1,0,0.2c0,0.1,0,0.2,0,0.3v0.2c0,0.1,0,0.1-0.1,0.2
		c-0.1,0.6-0.3,1.2-0.5,1.8c0-0.2,0-0.5,0.1-0.7c0-0.2,0-0.4,0.1-0.5c0-0.1,0-0.2,0.1-0.3c0-0.1,0-0.1,0-0.2c0-0.1,0-0.2,0.1-0.2
		c0,0,0,0,0-0.1v-0.1c0.7-2.6,0.5-3.4,0.6-4.2c0,0,0,0,0,0C774.4,441.8,774.4,441.8,774.5,441.8z"/>
	<path class="st0" d="M799.6,431.2c-0.8,0.6-1.8,1.2-2.7,1.7c1-0.5,1.9-1.1,2.7-1.8L799.6,431.2
		C799.6,431.1,799.6,431.1,799.6,431.2z"/>
	<path class="st1" d="M718.1,557.2c-2-0.3-3.7-0.9-4.9-1.8c-0.4-0.3-0.8-0.6-1.1-1c-5-5.3-3.5-17.9,0.4-31.7l1.4,8.9
		c-0.1,0.1-0.2,0.3-0.3,0.4c0,0.1-0.1,0.2-0.1,0.3c0,0.1-0.1,0.2-0.1,0.3c0,0.1-0.1,0.2-0.1,0.3c0,0.1-0.1,0.2-0.1,0.3
		c0,0.1,0,0.2-0.1,0.3c0,0.1,0,0.2-0.1,0.3c0,0.2-0.1,0.5-0.1,0.8c0,0.3-0.1,0.5-0.1,0.8c0,0.3,0,0.6,0,0.9c0,0.7,0,1.4,0,2.2
		c0,0.1,0,0.3,0,0.4c0,0.4,0.1,0.8,0.1,1.2c0,0.2,0.1,0.4,0.1,0.6c0,0.2,0.1,0.4,0.1,0.6c0,0.1,0,0.3,0.1,0.4
		c0.1,0.3,0.1,0.5,0.2,0.8c0,0,0,0,0,0c0.1,0.2,0.1,0.5,0.2,0.7c0,0.1,0.1,0.2,0.1,0.3c0,0.1,0.1,0.2,0.1,0.3c0,0.1,0.1,0.2,0.1,0.2
		c0,0.2,0.1,0.3,0.2,0.5c0,0,0,0,0,0c0.1,0.2,0.1,0.3,0.2,0.4c0.1,0.1,0.1,0.3,0.2,0.4c0.2,0.2,0.3,0.5,0.5,0.7
		c0.1,0.1,0.2,0.2,0.4,0.3c0.1,0.1,0.2,0.1,0.3,0.2c0.1,0,0.1,0.1,0.2,0.1c0,0,0,0,0,0c0.1,0,0.1,0,0.2,0.1c0.1,0,0.2,0,0.3,0
		l1.3,7.8L718.1,557.2z"/>
	<path class="st0" d="M765.4,481.5l0,0.4v-0.3C765.4,481.6,765.4,481.5,765.4,481.5z"/>
	<path class="st3" d="M774.3,441.9C774.3,441.9,774.3,441.9,774.3,441.9c-0.1,0.8,0.1,1.6-0.6,4.2v0.1c0,0.1,0,0.1,0,0.1
		c-0.1,0-0.1,0.1-0.1,0.2c0,0,0,0.1,0,0.2c-1.1,4.1-2.5,9.9-3.8,15.7c-1.8,7.4-3.5,14.7-4.2,17.9l1.4-18l0.9-11.5l0.2-2.3
		c0-0.1,0.1-0.2,0.1-0.2c0.1-0.2,0.2-0.3,0.3-0.6c0.1-0.2,0.3-0.4,0.4-0.6C770.1,445,772.7,442.6,774.3,441.9z"/>
	<path class="st0" d="M774.5,441.8c0,0,0,0.1,0,0.2c-0.1,0.6-0.2,1.2-0.2,1.6c0,0.2-0.1,0.4-0.1,0.6c0,0.3-0.1,0.6-0.1,0.8
		c0,0,0,0.1,0,0.1c0,0,0,0,0,0c0,0.1-0.1,0.2-0.1,0.3c0,0,0,0,0,0c0,0,0,0,0,0c0,0,0,0,0,0v0c0,0,0,0,0,0c0,0.1,0,0.1,0,0.2
		c0,0.1,0,0.1,0,0.2v0.3c0,0.1,0,0.1-0.1,0.2c-0.1,0.6-0.3,1.2-0.5,1.8v0c-1,4-2.2,9.1-3.4,14.1c-2.1,8.8-4,17.3-4.5,19.1l0.1-1.2
		c0.7-3.2,2.4-10.5,4.2-17.9c1.4-5.7,2.8-11.5,3.8-15.7c0-0.1,0-0.1,0-0.2c0-0.1,0-0.2,0.1-0.2c0,0,0,0,0-0.1v-0.1
		c0.7-2.6,0.5-3.4,0.6-4.2c0,0,0,0,0,0C774.4,441.8,774.4,441.8,774.5,441.8z"/>
	<path class="st0" d="M774,445.5C774,445.5,774,445.5,774,445.5C774,445.5,774,445.5,774,445.5c0,0.1,0,0.2,0,0.2c0,0.1,0,0.2,0,0.3
		v-0.1C773.9,445.8,773.9,445.6,774,445.5z"/>
	<path class="st0" d="M800.3,430.6L800.3,430.6c0,0.1-0.1,0.1-0.1,0.1c0,0,0,0,0,0.1l-0.3,0.3V431c0,0,0-0.1,0.1-0.1v0c0,0,0,0,0,0
		C800.1,430.7,800.2,430.7,800.3,430.6z"/>
	<path class="st3" d="M792.7,410.7c0.4,1.4,1.1,2.6,2.6,3.6c1.2,0.8,2.6,0.4,3.3-0.7c0.9-1.5,3.5-3.6,5.4-1.9
		c1.5,1.3,0.8,5.5-0.7,7.6h0c-0.1,0.1-0.2,0.2-0.3,0.3c0,0,0,0,0,0c-0.1,0.1-0.1,0.1-0.2,0.2c-0.9,0.8-1.3,2-1.2,3.2v0.9
		c0,0.4,0,0.7,0,1.1c0,3.8-1,5.2-1.3,5.6c-0.1,0.1-0.2,0.1-0.3,0.2c0,0,0,0,0,0v0c-0.1,0.1-0.2,0.2-0.4,0.3c0,0,0,0,0-0.1V431
		c-0.8,0.7-1.8,1.3-2.7,1.8c-0.1,0-0.2,0.1-0.3,0.1c-0.1,0.1-0.3,0.1-0.4,0.2c0,0-0.1,0-0.1,0c-6.7,2.9-15.5,2.6-20.4,2
		c-0.4,0-0.7-0.1-1.1-0.1c-1.7-0.2-2.6-0.4-2.6-0.4c-2.6-0.7-4-4.7-4.7-10c-0.3-2.1-0.4-4.5-0.5-6.8c-0.1-7.2,0.6-14.9,1.6-19.6
		c0.2,0.1,0.3,0.1,0.5,0.2c6.7,2.8,15.7-0.2,20.2,3.4c2.8,2.2,2.7,5.2,3.2,7.9L792.7,410.7z"/>
	<path class="st0" d="M799.6,431.1C799.6,431.1,799.6,431.1,799.6,431.1c-0.8,0.7-1.8,1.2-2.7,1.7
		C797.8,432.3,798.8,431.7,799.6,431.1L799.6,431.1z"/>
	<path class="st0" d="M802,422.6v0.9c0.1,4.7-0.9,6.4-1.4,6.9c-0.1,0.1-0.2,0.1-0.3,0.2l-0.1,0.1h0c-0.1,0.1-0.1,0.1-0.2,0.1
		c0.1-0.1,0.2-0.2,0.3-0.2c0.4-0.5,1.3-1.8,1.3-5.6c0-0.3,0-0.7,0-1.1V423c-0.1-1.2,0.3-2.4,1.2-3.2c0.1-0.1,0.1-0.1,0.2-0.2
		C802.3,420.4,801.9,421.5,802,422.6z"/>
	<path class="st0" d="M800.2,430.6l-0.1,0.1l0,0C800.1,430.7,800.1,430.7,800.2,430.6z"/>
	<path class="st1" d="M841.6,677.8c-4.1,1.4-8.1,2.6-11.9,3.7c-6.7,1.9-13,3.4-19.1,4.4c-1.9,0.3-3.8,0.6-5.7,0.8
		c-1.8,0.2-3.5,0.4-5.2,0.5h-15.1c-0.3,0-0.6,0-0.9-0.1c-2.6-0.2-5.1-0.5-7.7-1l-4.8-34.7l-0.1-0.9c0.5-2.6,0.9-5.3,1.3-8.2
		c0.7-5.2,1.3-10.8,1.9-16.7c0.7-7.9,1.2-16.2,1.6-25l16.3-0.7l5.6-0.2l0-0.1h0.1l-1.3-7.9l-0.1-0.6l-0.5-3l-3.3-20.3
		c2.3,0.5,5.1,1,8.1,1.5c9.1,1.5,20.6,3,31.2,2.9c2.1-0.1,4.1-0.1,6.1-0.3c0,0,0.1,0,0.1,0c0.2,4.7,0.4,9.5,0.6,14.2
		c0.7,20.2,1.4,40.1,1.9,56.2c0.1,3.2,0.2,6.2,0.3,9.1C841.5,667.4,841.8,677.8,841.6,677.8z"/>
	<polygon class="st1" points="797.8,599.7 792.2,599.9 775.9,600.6 775.9,600.5 792.2,599.8 797.8,599.6 	"/>
	<path class="st1" d="M838.2,571.9c0,0-0.1,0-0.1,0c-2,0.2-4,0.2-6.1,0.3c-10.6,0.1-22.1-1.4-31.2-2.9c-3-0.5-5.7-1-8.1-1.5l0-0.2
		c2.3,0.5,5.1,1,8.1,1.5c8.9,1.5,20.1,2.9,30.5,2.9h0.8c2.1,0,4.1-0.1,6.1-0.3C838.2,571.8,838.2,571.8,838.2,571.9z"/>
	<path class="st0" d="M799.7,687.3c-0.7,0-1.3,0.1-2,0.1c-3,0.2-5.9,0.2-8.8,0.1h0c-0.8,0-1.6-0.1-2.4-0.1c-0.6,0-1.3-0.1-1.9-0.1
		H799.7z"/>
	<path class="st3" d="M811.7,446.6c0,0-0.1,0.2-0.3,0.5c-0.2,0.4-0.6,1.1-1.1,1.9c-0.9,1.6-2.2,3.9-3.7,6.5
		c-6.6,11.5-17.2,30.1-17.6,30.7c0-0.3,0.3-1.5,0.7-3.4c0-0.2,0.1-0.3,0.1-0.5c0,0,0,0,0,0c0.1-0.3,0.1-0.7,0.2-1l0.2-1
		c0-0.3,0.1-0.5,0.2-0.8l0.3-1.6l0.2-0.9l0.4-1.8c0.2-0.8,0.3-1.5,0.5-2.3c0.2-0.8,0.3-1.5,0.5-2.3c0.1-0.5,0.2-0.9,0.3-1.4
		c1.1-4.6,2.3-9.5,3.6-13.9c1.3-4.5,2.7-8.5,4-11.2c0.7-1.3,1.3-2.3,2-2.9c0,0.1,1.6,0.4,3.7,1.2
		C807.9,443.2,810.2,444.5,811.7,446.6z"/>
	<path class="st1" d="M826.5,527.5c-0.1-0.3-0.1-0.5-0.2-0.8c-0.3-1.4-0.7-3-1-4.7c-0.3-1.3-0.6-2.6-1-4c-0.7-2.8-1.5-5.9-2.4-9.1
		c0,0,0-0.1,0-0.1c-1.7-6.4-3.7-13.5-5.7-20.4c-3.5-12.2-7.2-24.2-9.6-32.3c0-0.1,0-0.1,0-0.2c0-0.1,0-0.1,0-0.2
		c-3.3,5.8-7.6,13.3-11.1,19.4c-3.5,6.2-6.3,11-6.5,11.3c-0.2,0.9-0.5,1.7-0.7,2.6c0,0.1-0.1,0.2-0.1,0.4c-0.5,2-1,3.8-1.3,5.3
		c-0.6,2.2-0.9,3.8-1.1,4.5c-0.3,1.2-0.6,3-1,5.2c-0.2,1.3-0.4,2.8-0.7,4.4c0,0,0,0.1,0,0.1c-0.2,1-0.3,2.1-0.5,3.3l0,0.2l0.9,5.6
		l2.9,18l1.6,9.9c0,0,0,0-0.1,0l0,0.2c0.1,0,0.2,0,0.2,0c0.1,0,0.1,0,0.2,0c0.5,0,1.5-0.1,2.8-0.2h0c1.5-0.2,3.5-0.4,5.7-0.7
		c0.9-0.1,1.9-0.2,2.9-0.4c9.7-1.4,22.4-4.2,25.8-8.8c0.3-0.5,0.6-1,0.7-1.5c0-0.2,0.1-0.5,0.1-0.8
		C827.4,532.4,827.1,530.3,826.5,527.5z"/>
	<path class="st1" d="M789.1,545.8c0,0,0,0-0.1,0l-1.6-9.9l-2.9-18l-0.9-5.4c0-0.1,0-0.3,0.1-0.4l0,0.2l0.9,5.6l2.9,18L789.1,545.8z
		"/>
	<path class="st1" d="M789.2,546c0,0-0.1,0-0.2,0v0C789.1,546,789.2,546,789.2,546z"/>
	<path class="st0" d="M792.6,567.7C792.6,567.7,792.6,567.7,792.6,567.7C792.6,567.7,792.5,567.7,792.6,567.7L792.6,567.7
		C792.5,567.7,792.5,567.7,792.6,567.7C792.5,567.7,792.6,567.7,792.6,567.7C792.6,567.7,792.6,567.7,792.6,567.7z"/>
	<path class="st0" d="M792.6,567.7C792.6,567.7,792.6,567.7,792.6,567.7C792.6,567.7,792.5,567.7,792.6,567.7L792.6,567.7
		C792.5,567.7,792.5,567.7,792.6,567.7C792.5,567.7,792.6,567.7,792.6,567.7C792.6,567.7,792.6,567.7,792.6,567.7z"/>
	<path class="st0" d="M792.6,567.7C792.6,567.7,792.6,567.7,792.6,567.7l-0.3-1.5l-0.1-0.7v1.9c-4.3-0.8-7.2-1.5-7.9-1.7l1.3-5
		c0,0-0.1,0-0.1,0l0-0.2c-2.4-0.9-5.1-2.4-7.2-4.1c-0.6-0.5-1.1-1-1.6-1.5c-0.3-0.3-0.5-0.6-0.8-0.9c-0.1-0.1-0.2-0.2-0.2-0.3
		c-0.5-0.8-0.9-1.6-1.2-2.4c0,0,0,0,0,0c-0.3-1-0.3-2-0.1-3c0.2-0.8,1.1-1.3,2.4-1.7c0.3-0.1,0.7-0.2,1.1-0.2
		c0.5-0.1,1.1-0.2,1.7-0.2c3.8-0.4,8.4-0.2,9.4-0.1v0c0.1,0,0.2,0,0.2,0c0.1,0,0.1,0,0.2,0c0.1,0,0.3,0,0.4,0.1
		c0.5,0,1.4-0.1,2.4-0.2v19.3l0.1,0.9L792.6,567.7z"/>
	<path class="st0" d="M785.5,560.5l0,0.2c-2.4-0.9-4.9-2.3-7.1-4.1c-0.6-0.5-1.1-1-1.6-1.5c-0.3-0.3-0.6-0.7-0.9-1.1
		c0.2,0.3,0.5,0.6,0.8,0.9c0.5,0.5,1,1,1.6,1.5C780.4,558.1,783.1,559.6,785.5,560.5z"/>
	<path class="st0" d="M789.2,546c0,0-0.1,0-0.2,0v0C789.1,546,789.2,546,789.2,546z"/>
	<path class="st0" d="M792.6,567.7C792.6,567.7,792.5,567.7,792.6,567.7c-0.2,0-0.3-0.1-0.4-0.1c-2.4-0.5-4.3-0.9-5.7-1.2
		c-1.4-0.3-2.2-0.5-2.2-0.5l0-0.2c0.6,0.2,3.5,0.9,7.9,1.7v-1.9l0.1,0.7L792.6,567.7z"/>
	<path class="st0" d="M775.9,600.6c-0.4,8.8-0.9,17.1-1.6,25c-0.6,5.9-1.2,11.5-1.9,16.7h-0.1c0.7-5.1,1.3-10.6,1.8-16.5
		c0.7-7.9,1.2-16.3,1.6-25.1l-7.8,0.3l-3.9,0.2l-24.6,1h-1.1l-11.5,0.5v0l-1.2,0.1l-1.8-10.9h-74.5c-3,0-5.5,2.5-5.5,5.5v44.9h-0.1
		v-28.6c0,0-84-2.7-140.2-6.5v-56.8c2.9-0.2,5.7-0.3,8.6-0.5c0.4-0.1,0.8-0.1,1.3-0.1c4.7-0.3,10.4-0.5,16.9-0.6
		c46.1-0.7,132.4,3.7,181.8,5.2c0.3,0.4,0.7,0.7,1.1,1c1.2,0.9,2.9,1.5,4.9,1.8l-0.4-2.6c0,0,0.1,0,0.1,0l0.4,2.5l5.6,34.7l1.8,10.9
		l1.4-0.1l11.5-0.5h1.1l24.6-1l3.9-0.2l7.7-0.3H775.9z"/>
	<path class="st0" d="M797.8,599.6l-5.6,0.2l-16.3,0.7v0.1h-0.1l-7.7,0.3l-3.9,0.2l-24.6,1h-1.1l-11.5,0.5l-1.4,0.1l-1.8-10.9
		l-5.6-34.7l-0.4-2.5l-1.3-7.8h0.2c0.7-0.1,1.5-0.4,2.4-0.9c0.1-0.1,0.3-0.1,0.4-0.2c0.2-0.1,0.3-0.1,0.5-0.2
		c0.2-0.1,0.4-0.2,0.6-0.3c0.3-0.2,0.7-0.4,1-0.6c0.4-0.3,0.9-0.6,1.3-0.9c0.2-0.2,0.5-0.4,0.7-0.5c0.2-0.2,0.5-0.4,0.7-0.6h0
		c0.3-0.3,0.7-0.6,1-0.9c0.3-0.3,0.7-0.7,1-1c0,0,0,0,0,0c0.1-0.1,0.2-0.2,0.2-0.3c0.1-0.1,0.2-0.2,0.2-0.3c0.1-0.1,0.3-0.3,0.4-0.5
		c0.2-0.2,0.3-0.3,0.4-0.5c0.4-0.5,0.8-1.1,1.1-1.6c0.1-0.2,0.2-0.4,0.3-0.5c0.3-0.5,0.5-1,0.7-1.5c0.1-0.2,0.1-0.3,0.2-0.5
		c0.2-0.6,0.4-1.3,0.4-1.9c0-0.2,0-0.4,0-0.6v0c0-0.2,0-0.4,0-0.7c0-0.2,0-0.3-0.1-0.5c-0.1-0.3-0.2-0.7-0.3-1
		c-0.1-0.2-0.1-0.3-0.2-0.5c-1.5-3-14.9,1.2-14.9,1.2c-0.3,0-0.6,0.2-0.9,0.5l-1.4-8.9l-0.7-4.6l-0.9-5.4l4.8-0.2l0.1,0
		c0,0,0,0.1,0,0.1l14.3-0.6c0,0,0,0.1,0,0.1l9.7-0.4l1.6-0.1l8.9-0.4l5.2-0.2l0.3,0l3.2-0.1c0,0,0,0,0,0l17-0.8l1.8-0.1l5.1-0.2
		l0.5,2.9c0-0.2,0.1-0.5,0.1-0.7l0,0.3c0,0.1,0,0.3-0.1,0.4l0.9,5.4l2.9,18l1.6,9.9c-0.8-0.1-5.6-0.3-9.5,0.1
		c-0.5,0-1.1,0.1-1.6,0.2c-0.4,0.1-0.8,0.2-1.2,0.3c-1.3,0.4-2.3,0.9-2.4,1.7c-0.2,1-0.2,2,0.1,3c0,0.1,0,0.2,0.1,0.2
		c0.3,0.8,0.7,1.6,1.2,2.4c0.1,0.1,0.2,0.2,0.2,0.3c0.3,0.4,0.5,0.7,0.9,1.1c0.5,0.5,1,1,1.6,1.5c2.2,1.8,4.7,3.2,7.1,4.1l-1.3,5
		c0,0,0,0,0.1,0l0,0.2c0,0,0.8,0.2,2.2,0.5c1.4,0.3,3.3,0.7,5.7,1.2c0.1,0,0.2,0,0.3,0.1v0l0,0c0,0,0,0,0,0v0l3.3,20.3l0.5,3
		l0.1,0.6L797.8,599.6z"/>
	<path class="st0" d="M719.1,545.9c-0.9,0.5-1.7,0.8-2.4,0.9h-0.2l0-0.1h0.3C717.4,546.6,718.2,546.3,719.1,545.9z"/>
	<path class="st0" d="M783.6,511.8c0,0.2-0.1,0.5-0.1,0.7l-0.5-2.9l-5.1,0.2l-1.8,0.1l-17,0.8c0,0,0,0,0,0l-3.2,0.1l-0.3,0l-5.2,0.2
		l-8.9,0.4l-1.6,0.1l-9.7,0.4c0,0,0-0.1,0-0.1l-14.3,0.6c0,0,0-0.1,0-0.1l14.2-0.6l0.2,0h0.1l9.6-0.4l1.6-0.1l8.9-0.4l5.2-0.2
		l3.2-0.1l17.3-0.8l1.6-0.1l5.3-0.2L783.6,511.8z"/>
	<path class="st0" d="M789.1,545.8c0,0,0,0-0.1,0l-1.6-9.9l-2.9-18l-0.9-5.4c0-0.1,0-0.3,0.1-0.4l0,0.2l0.9,5.6l2.9,18L789.1,545.8z
		"/>
	<path class="st0" d="M785.5,560.5l0,0.2c-2.4-0.9-4.9-2.3-7.1-4.1c-0.6-0.5-1.1-1-1.6-1.5c-0.3-0.3-0.6-0.7-0.9-1.1
		c0.2,0.3,0.5,0.6,0.8,0.9c0.5,0.5,1,1,1.6,1.5C780.4,558.1,783.1,559.6,785.5,560.5z"/>
	<path class="st0" d="M792.5,567.7c-0.1,0-0.2,0-0.3-0.1c-2.4-0.5-4.3-0.9-5.7-1.2c-1.4-0.3-2.2-0.5-2.2-0.5l0-0.2
		c0.6,0.2,3.5,0.9,7.9,1.7c0.1,0,0.2,0,0.3,0.1L792.5,567.7z"/>
	<polygon class="st0" points="797.8,599.7 792.2,599.9 775.9,600.6 775.9,600.5 792.2,599.8 797.8,599.6 	"/>
	<path class="st0" d="M792.6,567.7C792.6,567.7,792.6,567.7,792.6,567.7C792.6,567.7,792.5,567.7,792.6,567.7L792.6,567.7
		C792.5,567.7,792.5,567.7,792.6,567.7C792.5,567.7,792.6,567.7,792.6,567.7C792.6,567.7,792.6,567.7,792.6,567.7z"/>
	<path class="st0" d="M726.8,540c-0.2,0.2-0.3,0.4-0.5,0.5c0,0,0,0,0,0c-0.3,0.3-0.7,0.7-1,1c-0.3,0.3-0.7,0.6-1,0.9h0
		c-0.2,0.2-0.5,0.4-0.7,0.6c-0.2,0.2-0.5,0.4-0.7,0.5c-0.4,0.3-0.9,0.6-1.3,0.9c-0.3,0.2-0.7,0.4-1,0.6c-0.2,0.1-0.4,0.2-0.6,0.3
		c-0.2,0.1-0.3,0.2-0.5,0.2c-0.1,0.1-0.3,0.1-0.4,0.2c-0.9,0.5-1.7,0.8-2.4,0.9h-0.3c-0.1,0-0.2,0-0.3,0c-0.1,0-0.1,0-0.2-0.1
		c0,0,0,0,0,0c-0.1,0-0.1-0.1-0.2-0.1c-0.1,0-0.2-0.1-0.3-0.2c-0.1-0.1-0.2-0.2-0.4-0.3c-0.2-0.2-0.3-0.4-0.5-0.7
		c-0.1-0.1-0.2-0.3-0.2-0.4c-0.1-0.1-0.1-0.3-0.2-0.4c0,0,0,0,0,0c-0.1-0.2-0.1-0.3-0.2-0.5c0-0.1-0.1-0.2-0.1-0.2
		c0-0.1-0.1-0.2-0.1-0.3c0-0.1-0.1-0.2-0.1-0.3c-0.1-0.2-0.1-0.5-0.2-0.7c0,0,0,0,0,0c-0.1-0.3-0.1-0.5-0.2-0.8c0-0.1,0-0.3-0.1-0.4
		c0-0.2-0.1-0.4-0.1-0.6c0-0.2-0.1-0.4-0.1-0.6c-0.1-0.4-0.1-0.8-0.1-1.2c0-0.1,0-0.3,0-0.4c0-0.7,0-1.5,0-2.2c0-0.3,0-0.6,0-0.9
		c0-0.3,0-0.5,0.1-0.8c0-0.3,0.1-0.5,0.1-0.8c0-0.1,0-0.2,0.1-0.3c0-0.1,0-0.2,0.1-0.3c0-0.1,0.1-0.2,0.1-0.3c0-0.1,0.1-0.2,0.1-0.3
		c0-0.1,0.1-0.2,0.1-0.3c0-0.1,0.1-0.2,0.1-0.3c0.1-0.2,0.2-0.3,0.3-0.4c0.3-0.3,0.5-0.5,0.9-0.6c0,0,13.5-4.2,14.9-1.2
		C731.2,533.1,729.5,536.8,726.8,540z"/>
	<path class="st0" d="M774,445.5C774,445.5,774,445.5,774,445.5C774,445.5,774,445.5,774,445.5c0,0.1,0,0.2,0,0.2c0,0.1,0,0.2,0,0.3
		v-0.1C773.9,445.8,773.9,445.6,774,445.5z"/>
	<path class="st0" d="M759.1,510.7l-3.2,0.1l-0.3,0l-5.2,0.2l-8.9,0.4l-1.6,0.1l-9.7,0.4c0,0,0-0.1,0-0.1c0,0,0-0.1,0-0.1
		c0-1,0.6-1.5,1.4-1.7c0,0,0,0,0,0c0.9-0.3,1.8-0.3,1.8-0.3s3-0.1,6.8-0.3c1.7-0.1,3.5-0.2,5.4-0.3c1.8-0.1,3.6-0.2,5.1-0.3
		c0.7,0,1.3-0.1,1.9-0.1c1.1-0.1,2.1-0.1,2.5-0.2h1.2c0.3,0,0.6,0.1,0.9,0.2c0.1,0,0.2,0.1,0.3,0.1c0.4,0.2,0.8,0.5,1,0.7
		c0.2,0.2,0.3,0.4,0.4,0.6c0.1,0.1,0.1,0.2,0.2,0.3c0,0,0,0,0,0.1c0,0,0,0.1,0,0.1C759.1,510.6,759.1,510.6,759.1,510.7
		C759.1,510.7,759.1,510.7,759.1,510.7z"/>
	<path class="st0" d="M937.2,539.2v0.3c-1.3-0.6-2.8-1-4.3-1s-3,0.4-4.3,1v-0.3c1.3-0.6,2.8-1,4.3-1
		C934.5,538.2,936,538.6,937.2,539.2z"/>
	<path class="st0" d="M937.2,402.5v137c-1.3-0.6-2.8-1-4.3-1s-3,0.4-4.3,1v-137H937.2z"/>
	<path class="st0" d="M933,538.3c-1.5,0-3,0.4-4.3,1c0,0-0.1,0-0.1,0v0.2c1.3-0.6,2.8-1,4.3-1s3,0.4,4.3,1v-0.2
		C935.9,538.7,934.5,538.3,933,538.3z"/>
	<path class="st0" d="M937.3,539.3C937.3,539.3,937.2,539.3,937.3,539.3l-0.1,0.2c-1.3-0.6-2.8-1-4.3-1s-3,0.4-4.3,1v-0.2
		c-3.1,1.5-5.3,4.9-5.3,8.7c0,5.3,4.3,9.7,9.7,9.7c5.3,0,9.7-4.3,9.7-9.7C942.7,544.1,940.5,540.8,937.3,539.3z M932.9,553.4
		c-2.9,0-5.4-2.4-5.4-5.4c0-1.2,0.4-2.4,1.1-3.3c1-1.3,2.5-2.1,4.3-2.1c1.8,0,3.3,0.8,4.3,2.1c0.7,0.9,1.1,2,1.1,3.3
		C938.3,551,935.9,553.4,932.9,553.4z"/>
	<path class="st0" d="M938.3,548c0,3-2.4,5.4-5.4,5.4c-2.9,0-5.4-2.4-5.4-5.4c0-1.2,0.4-2.4,1.1-3.3c1-1.3,2.5-2.1,4.3-2.1
		c1.8,0,3.3,0.8,4.3,2.1C937.9,545.6,938.3,546.8,938.3,548z"/>
	<path class="st4" d="M222.3,564.6c0.1,0-0.2,0.5-0.4,1.2s-0.3,1.8-0.1,2.9c0.2,1.1,0.7,2.1,1.1,2.7c0.4,0.6,0.8,1,0.7,1
		c0,0-0.5-0.2-1-0.8s-1.1-1.6-1.3-2.8s0-2.4,0.3-3.1C221.9,565,222.3,564.6,222.3,564.6z"/>
	<path class="st4" d="M233.5,553.8c-0.1,0,0.1-0.6,0.2-1.5c0.1-0.9,0-2.2-0.5-3.5s-1.3-2.4-1.9-3c-0.7-0.7-1.2-1-1.1-1
		c0,0,0.6,0.2,1.3,0.8s1.6,1.7,2.1,3.1c0.5,1.4,0.6,2.8,0.4,3.7C233.9,553.3,233.6,553.8,233.5,553.8z"/>
	<path class="st4" d="M235.4,551.5c-0.1,0,0.1-0.6,0.1-1.6c0-0.9-0.2-2.3-0.9-3.5c-0.7-1.3-1.7-2.2-2.5-2.7s-1.4-0.7-1.4-0.7
		s0.6,0,1.5,0.5c0.9,0.4,2,1.4,2.7,2.7c0.7,1.4,0.9,2.8,0.8,3.8C235.7,551,235.4,551.5,235.4,551.5z"/>
	<path class="st4" d="M232.4,588.1c0,0-0.6,0.5-1.9,0.7c-1.2,0.2-3.1,0.1-4.7-1.1c-1.6-1.1-2.4-2.8-2.7-4.1c-0.2-1.2,0-2,0-2
		c0.1,0,0,0.8,0.3,1.9c0.3,1.1,1.1,2.7,2.6,3.8c1.5,1,3.2,1.2,4.4,1.1C231.6,588.4,232.3,588.1,232.4,588.1z"/>
	<path class="st4" d="M227.2,591.3c0,0-0.2,0-0.5-0.1s-0.8-0.2-1.4-0.5c-1.1-0.5-2.5-1.6-3.5-3.1c-1-1.6-1.3-3.3-1.3-4.5
		c0-0.6,0.1-1.1,0.2-1.4c0.1-0.3,0.2-0.5,0.2-0.5c0.1,0-0.1,0.7,0,1.9c0,1.2,0.4,2.8,1.4,4.3c0.9,1.5,2.2,2.6,3.2,3.1
		C226.5,591.1,227.2,591.3,227.2,591.3z"/>
	<path class="st4" d="M358.9,425.1c0,0.1-0.6,0.4-1.4,1.2c-0.7,0.8-1.5,2.3-1.2,4c0.2,1.7,1.3,2.9,2.3,3.5c0.9,0.6,1.7,0.7,1.6,0.8
		c0,0-0.8,0-1.8-0.6s-2.3-1.9-2.5-3.7c-0.2-1.9,0.6-3.5,1.5-4.3C358.2,425.2,358.9,425,358.9,425.1z"/>
	<path class="st4" d="M354.5,436c0,0-0.4-0.3-0.9-1s-0.9-1.8-1.1-3c-0.1-1.3,0.1-2.4,0.4-3.2c0.3-0.8,0.6-1.2,0.7-1.1
		c0.1,0-0.9,1.9-0.7,4.3C353.2,434.4,354.6,436,354.5,436z"/>
	<path class="st4" d="M356.9,421.6c0,0-0.2,0-0.6-0.2s-0.8-0.5-1.4-0.9c-1-0.9-2.2-2.7-2.3-4.9c-0.1-2.2,1-4,1.9-5
		c0.5-0.5,1-0.8,1.3-1s0.5-0.3,0.6-0.2c0,0.1-0.7,0.5-1.6,1.5s-1.8,2.8-1.7,4.8c0.1,2.1,1.1,3.7,2.1,4.7
		C356.2,421.2,357,421.5,356.9,421.6z"/>
	<path class="st4" d="M366.5,401.5c-0.1,0,0.3-0.6,0.4-1.6c0.1-0.5,0.1-1.1,0-1.8c-0.1-0.7-0.3-1.4-0.7-2.1
		c-0.4-0.7-0.8-1.3-1.3-1.8s-1-0.8-1.4-1.1c-0.9-0.5-1.6-0.6-1.6-0.6s0.7-0.1,1.7,0.4c0.5,0.2,1,0.6,1.6,1.1c0.5,0.5,1,1.1,1.4,1.9
		c0.4,0.7,0.6,1.5,0.7,2.2s0,1.4-0.1,1.9C367,401,366.6,401.6,366.5,401.5z"/>
	<path class="st4" d="M368.9,395.7c-0.1,0-0.2-0.5-0.5-1.3s-0.9-1.8-1.9-2.7c-0.9-0.9-2-1.4-2.8-1.7c-0.8-0.3-1.3-0.4-1.3-0.4
		s0.6-0.1,1.4,0.1c0.9,0.2,2,0.8,3,1.7c1,0.9,1.6,2.1,1.9,2.9C369,395.2,369,395.7,368.9,395.7z"/>
	<path class="st4" d="M340.9,430.9c0,0-0.2,0-0.5-0.2c-0.3-0.1-0.8-0.4-1.3-0.7c-0.5-0.4-1.1-0.9-1.6-1.5c-0.5-0.7-1-1.5-1.4-2.4
		s-0.6-1.8-0.7-2.7c-0.1-0.8,0-1.6,0.1-2.2s0.3-1.1,0.4-1.4s0.2-0.5,0.3-0.5c0.1,0-0.2,0.8-0.4,2c-0.1,1.2,0,3,0.7,4.7
		s1.8,3.1,2.8,3.8C340.2,430.5,341,430.8,340.9,430.9z"/>
	<path class="st4" d="M493.6,277.4c0.1,0.1-0.4,0.5-0.9,1.4s-1.1,2.2-1.4,3.7s-0.2,2.9,0.1,3.9c0.2,1,0.5,1.6,0.4,1.6
		c0,0-0.4-0.5-0.7-1.5c-0.3-1-0.5-2.5-0.2-4.1s1-2.9,1.6-3.8C493.1,277.8,493.6,277.4,493.6,277.4z"/>
	<path class="st4" d="M489.7,282.2c0.1,0.1-1.1,1.7-1,4.2c0,2.4,1.2,4.1,1.1,4.1c0,0-0.4-0.3-0.8-1s-0.7-1.8-0.8-3.1
		c0-1.3,0.3-2.4,0.7-3.1C489.3,282.6,489.7,282.2,489.7,282.2z"/>
	<path class="st4" d="M501,269.1c-0.1,0,0.2-0.7,0.4-1.8c0.2-1.1,0.1-2.7-0.5-4.2c-0.6-1.6-1.7-2.8-2.5-3.4c-0.9-0.7-1.6-0.9-1.5-1
		c0,0,0.7,0.1,1.7,0.7s2.1,1.9,2.8,3.5c0.7,1.7,0.7,3.3,0.4,4.5C501.5,268.5,501.1,269.1,501,269.1z"/>
	<path class="st4" d="M502.4,268.7c-0.1,0,0.3-0.6,0.6-1.5c0.3-0.9,0.6-2.2,0.5-3.7s-0.6-2.8-1-3.6c-0.5-0.9-0.8-1.3-0.8-1.4
		c0,0,0.5,0.4,1.1,1.2c0.5,0.8,1.1,2.2,1.2,3.7c0.1,1.6-0.2,3-0.6,3.9C502.9,268.2,502.5,268.7,502.4,268.7z"/>
	<path class="st4" d="M500.6,307.4c0,0-0.2,0.1-0.6,0.2s-1.1,0.2-1.8,0.1c-1.5-0.1-3.8-0.9-5.3-2.9s-1.7-4.3-1.4-5.8
		c0.1-0.8,0.4-1.4,0.6-1.8s0.3-0.6,0.4-0.6s-0.4,0.9-0.6,2.4s0.1,3.7,1.5,5.5s3.5,2.6,5,2.8C499.7,307.6,500.6,307.3,500.6,307.4z"
		/>
	<path class="st4" d="M537.4,331.3c0,0.1-2.2-0.5-4.9-1.3c-2.7-0.9-4.8-1.6-4.7-1.8c0-0.1,2.2,0.5,4.9,1.3
		C535.3,330.4,537.5,331.2,537.4,331.3z"/>
	<path class="st4" d="M546.2,332.2c0,0.1-3.4-1.2-7.5-2.9c-4.1-1.7-7.4-3.2-7.3-3.3c0-0.1,3.4,1.2,7.5,2.9
		C542.9,330.6,546.2,332.1,546.2,332.2z"/>
	<path class="st4" d="M541.4,306.4c-0.1,0.1-1.5-0.5-3.1-1.4s-3-1.7-2.9-1.8c0.1-0.1,1.5,0.5,3.1,1.4S541.5,306.3,541.4,306.4z"/>
	<path class="st4" d="M548.3,326.6c0,0.1-2.8-0.9-6.1-2.2c-3.3-1.4-5.9-2.5-5.9-2.7c0-0.1,2.8,0.9,6.1,2.2
		C545.7,325.3,548.4,326.4,548.3,326.6z"/>
	<path class="st4" d="M543.1,319.5c0,0.1-1.2-0.1-2.7-0.4s-2.6-0.8-2.6-0.9s1.2,0.1,2.7,0.4S543.2,319.3,543.1,319.5z"/>
	<path class="st4" d="M555.4,319.5c0,0.1-3.3-0.9-7.3-2.2s-7.2-2.5-7.1-2.6c0-0.1,3.3,0.9,7.3,2.2S555.4,319.3,555.4,319.5z"/>
	<path class="st4" d="M548.4,313.8c0,0.1-1.3-0.1-2.9-0.4c-1.6-0.4-2.8-0.8-2.8-0.9s1.3,0.1,2.9,0.4S548.4,313.6,548.4,313.8z"/>
	<path class="st4" d="M555.4,311.7c0,0.1-2.6,0-5.7-0.2c-3.1-0.2-5.7-0.5-5.7-0.6s2.6,0,5.7,0.2S555.4,311.6,555.4,311.7z"/>
	<path class="st4" d="M267.5,616.5c0,0.1-2.2-0.5-4.9-1.3c-2.7-0.9-4.8-1.6-4.7-1.8c0-0.1,2.2,0.5,4.9,1.3S267.5,616.4,267.5,616.5z
		"/>
	<path class="st4" d="M276.2,617.4c0,0.1-3.4-1.2-7.5-2.9s-7.4-3.2-7.3-3.3c0-0.1,3.4,1.2,7.5,2.9
		C273,615.8,276.3,617.3,276.2,617.4z"/>
	<path class="st4" d="M270.6,612.9c-0.1,0.1-1.5-0.5-3.1-1.4s-3-1.7-2.9-1.8s1.5,0.5,3.1,1.4S270.7,612.8,270.6,612.9z"/>
	<path class="st4" d="M278.4,611.8c0,0.1-2.8-0.9-6.1-2.2c-3.3-1.4-5.9-2.5-5.9-2.7c0-0.1,2.8,0.9,6.1,2.2
		C275.8,610.5,278.4,611.7,278.4,611.8z"/>
	<path class="st4" d="M273.2,604.7c0,0.1-1.2-0.1-2.7-0.4s-2.6-0.8-2.6-0.9c0-0.1,1.2,0.1,2.7,0.4S273.2,604.6,273.2,604.7z"/>
	<path class="st4" d="M285.4,604.7c0,0.1-3.3-0.9-7.3-2.2s-7.2-2.5-7.1-2.6c0-0.1,3.3,0.9,7.3,2.2S285.5,604.6,285.4,604.7z"/>
	<path class="st4" d="M278.4,599c0,0.1-1.3-0.1-2.9-0.4s-2.8-0.8-2.8-0.9c0-0.1,1.3,0.1,2.9,0.4S278.5,598.9,278.4,599z"/>
	<path class="st4" d="M285.4,596.9c0,0.1-2.6,0-5.7-0.2s-5.7-0.5-5.7-0.6s2.6,0,5.7,0.2C282.9,596.5,285.4,596.8,285.4,596.9z"/>
	<path class="st4" d="M875.2,539.6c0,0,0.1,0.4,0.2,1.2c0.1,0.4,0.1,0.9,0.1,1.5s0.1,1.2,0.1,2c0,1.5-0.1,3.2-0.4,5.1
		c-0.3,1.9-0.9,4-1.6,6.1c-0.8,2.1-1.8,4-2.8,5.6s-2.1,3-3,4.1c-0.5,0.6-0.9,1-1.3,1.4c-0.4,0.4-0.8,0.8-1.1,1c-0.6,0.5-1,0.8-1,0.8
		c-0.1-0.1,1.3-1.2,3.2-3.5c0.9-1.1,1.9-2.5,2.9-4.1s1.9-3.5,2.7-5.6s1.3-4.1,1.7-6c0.3-1.9,0.5-3.6,0.5-5.1
		C875.4,541.4,875.1,539.6,875.2,539.6z"/>
	<path class="st5" d="M795.2,403.6c-0.1,0-0.6-2.6-2.6-5.2c-1.9-2.6-4.3-3.4-4.3-3.6c0-0.1,0.6,0,1.5,0.6c0.9,0.4,2.1,1.4,3.1,2.7
		s1.6,2.7,1.9,3.7S795.2,403.6,795.2,403.6z"/>
	<path class="st5" d="M809.5,417.8c-0.1,0-0.2-0.9-0.8-2.3s-1.7-3.1-3.4-4.2s-3.6-1.4-4.9-1.2c-1.3,0.1-2.1,0.5-2.1,0.3
		c0,0,0.7-0.5,2.2-0.7c1.3-0.2,3.4,0,5.3,1.2c1.9,1.2,3,3.1,3.4,4.6C809.7,416.9,809.6,417.9,809.5,417.8z"/>
	<path class="st5" d="M809.5,410.3c-0.1,0-0.1-0.5-0.6-1.5c-0.3-0.8-1.1-1.9-2.2-2.6c-1-0.7-2.2-1-3-1s-1.3,0.2-1.4,0.1
		c0,0,0.5-0.4,1.3-0.5c0.9-0.1,2.2,0.1,3.4,0.9s2,2,2.3,3C809.6,409.6,809.5,410.3,809.5,410.3z"/>
	<path class="st5" d="M778.1,393.1c0,0-0.6-0.4-1-1.4c-0.5-1-0.8-2.6-0.5-4.4c0.2-1.7,1.1-3.2,1.7-3.9c0.8-0.8,1.4-1.1,1.4-1.1
		c0,0.1-0.5,0.5-1.1,1.3c-0.7,0.9-1.2,2.1-1.5,3.8c-0.2,1.6,0,3.2,0.4,4.1C777.8,392.4,778.2,393,778.1,393.1z"/>
	<path class="st5" d="M783.7,397.1c0,0-0.6,0.1-1.5-0.4c-0.8-0.4-2-1.6-2.3-3.4c-0.3-1.7,0.2-3.3,0.8-4c0.6-0.9,1.2-1.1,1.2-1
		s-0.5,0.5-0.9,1.3c-0.5,0.8-0.9,2.2-0.7,3.6c0.3,1.5,1.2,2.5,1.9,3.1C783.3,397,783.7,397,783.7,397.1z"/>
	<path class="st5" d="M787.1,378.8c-0.1,0-0.6-0.7-1.6-1.5s-2.7-1.8-4.6-1.9c-2-0.1-3.7,0.5-4.8,1.3s-1.7,1.4-1.7,1.3
		c0,0,0.4-0.8,1.6-1.7c1.1-0.9,2.9-1.6,5-1.5c2.1,0.2,3.8,1.2,4.8,2.1C786.8,378,787.1,378.8,787.1,378.8z"/>
	<path class="st5" d="M790.5,376.7c-0.1,0.1-1.7-2.2-4.6-3.4c-2.9-1.3-5.4-0.8-5.5-1.1c0-0.1,0.6-0.2,1.7-0.3c1.1-0.1,2.5,0.2,4,0.8
		c1.5,0.7,2.7,1.7,3.4,2.5C790.2,376,790.5,376.7,790.5,376.7z"/>
	<path class="st5" d="M769.5,394.9c0,0-0.6,0.4-1.8,0.1c-1.1-0.2-2.6-1.1-3.2-3c-0.7-1.9,0-3.7,0.6-4.6c0.7-1,1.3-1.3,1.3-1.1
		c0,0.1-0.5,0.5-1.1,1.4c-0.5,0.9-1,2.6-0.5,4.2s1.8,2.6,2.8,2.8C768.9,394.8,769.5,394.7,769.5,394.9z"/>
	<path class="st5" d="M771.9,389.1c-0.1,0,0.3-2.2-0.8-4.6s-3-3.4-2.9-3.5c0,0,0.5,0,1.3,0.6c0.7,0.5,1.5,1.4,2.2,2.7
		c0.6,1.2,0.8,2.5,0.7,3.4C772.2,388.6,772,389.1,771.9,389.1z"/>
	<path class="st5" d="M761.7,396.9c-0.7-0.5-1.5-1.5-2-2.8c-0.5-1.4-0.6-2.6-0.6-3.6c0.1-1.1,0.4-1.5,0.4-1.5c0.2,0-0.3,2.2,0.7,4.7
		s2.8,3.5,2.8,3.6C762.9,397.5,762.5,397.3,761.7,396.9z"/>
	<path class="st5" d="M816.6,400.9c-0.1,0-0.1-3-1.3-6.3s-3.4-5.3-3.2-5.3c0.1-0.1,2.4,1.7,3.7,5.1
		C817.2,397.9,816.6,401,816.6,400.9z"/>
	<path class="st5" d="M819,404c-0.1,0,0.3-1.2,0.6-3s0.5-4.4,0.1-7.3s-1.2-5.3-1.9-7c-0.8-1.7-1.3-2.7-1.2-2.8c0,0,0.2,0.1,0.5,0.7
		c0.3,0.4,0.7,1.1,1.1,1.9c0.8,1.7,1.7,4.3,2.1,7.2c0.4,2.9,0.2,5.6-0.2,7.5c-0.1,0.9-0.4,1.7-0.5,2.2
		C819.1,403.8,819.1,404,819,404z"/>
	<path class="st5" d="M815,386.7c0,0-0.8,0.2-2.1-0.1c-1.3-0.2-3.2-0.9-4.8-2.3s-2.9-3.1-3.4-4.4s-0.8-2.3-0.6-2.3
		c0.1,0,0.3,0.8,1,2.1c0.7,1.2,1.8,2.8,3.4,4.2c1.6,1.2,3.3,2.1,4.5,2.4C814.1,386.6,815,386.6,815,386.7z"/>
	<path class="st5" d="M812.9,418.5c-0.1,0,0.3-1,0.5-2.6s0.3-3.9-0.2-6.3s-1.5-4.4-2.6-5.7c-0.9-1.3-1.6-1.9-1.6-2
		c0,0,0.8,0.4,1.8,1.8c1,1.2,2.2,3.2,2.7,5.7s0.5,4.9,0.1,6.6C813.4,417.6,812.9,418.5,812.9,418.5z"/>
	<path class="st5" d="M817.3,414.9c-0.1,0,0.3-3-0.5-6.4c-0.9-3.4-2.8-5.7-2.7-5.7c0-0.1,2.2,2,3.2,5.6
		C818.2,412,817.4,415.1,817.3,414.9z"/>
	<path class="st5" d="M800,376.1c0,0,0.3,0.5,0.3,1.6c0,1-0.3,2.5-1.2,3.6c-0.9,1.3-2,2-2.9,2.3c-0.8,0.2-1.4,0.1-1.4,0.1
		c0-0.1,0.6-0.1,1.3-0.5c0.8-0.4,1.8-1.1,2.5-2.1c0.7-1.2,1.1-2.5,1.2-3.4C800.1,376.8,800,376.1,800,376.1z"/>
	<path class="st5" d="M795.7,374c0,0,0.3,0.5,0.3,1.6c0,1-0.3,2.5-1.2,3.6c-0.9,1.3-2,2-2.9,2.3c-0.8,0.2-1.4,0.1-1.4,0.1
		c0-0.1,0.6-0.1,1.3-0.5c0.8-0.4,1.8-1.1,2.5-2.1c0.7-1.2,1.1-2.5,1.2-3.4C795.8,374.7,795.7,374,795.7,374z"/>
	<path class="st5" d="M790.6,389.8c0,0-0.6,0.1-1.4,0c-0.9-0.3-2-1.1-2.9-2.3c-0.8-1.3-1.1-2.8-1.1-3.7c0-1,0.4-1.6,0.4-1.6
		c0.1,0,0,0.7,0,1.6c0.1,0.9,0.4,2.2,1.1,3.4c0.8,1.2,1.7,1.9,2.5,2.3C790.1,389.7,790.6,389.7,790.6,389.8z"/>
	<path class="st5" d="M808.5,398.8c0,0-0.5,0.8-1.6,1.4s-2.9,1.2-4.8,0.6c-1.9-0.6-3.3-1.9-3.9-3c-0.7-1.2-0.9-2-0.8-2
		s0.3,0.8,1.1,1.7c0.7,1.1,2.1,2.2,3.8,2.8c1.8,0.5,3.4,0.1,4.5-0.5C807.9,399.3,808.4,398.6,808.5,398.8z"/>
	<path class="st5" d="M807,395.5c0,0-0.2,0.4-1,0.5c-0.6,0.1-1.5,0.1-2.4-0.5c-0.8-0.6-1.4-1.4-1.6-2.2c-0.2-0.7-0.1-1.2-0.1-1.2
		c0.1,0,0.1,0.4,0.3,0.9s0.8,1.2,1.5,1.8c0.7,0.5,1.5,0.7,2.1,0.6C806.5,395.6,806.9,395.4,807,395.5z"/>
	<path class="st5" d="M810.9,396c-0.1,0.1-0.7-2.9-3-5.5c-2.3-2.7-4.9-3.4-4.9-3.6c0,0,0.7,0,1.8,0.5c1.1,0.4,2.3,1.4,3.5,2.7
		c1.1,1.4,1.9,2.8,2.3,4C810.9,395.2,810.9,396,810.9,396z"/>
	<path class="st5" d="M801.3,385.9c0,0.1-2.1,0.2-4.2,2c-2.1,1.6-2.8,4-2.9,3.8c-0.1,0,0-0.7,0.4-1.4c0.4-0.9,1.1-1.9,2.2-2.8
		c1.1-0.9,2.3-1.4,3.1-1.5C800.7,385.8,801.3,385.8,801.3,385.9z"/>
	<path class="st5" d="M806,420.4c0,0,0.3,0.3,0.7,1.1c0.2,0.7,0.3,2-0.2,3s-1.5,1.7-2.2,1.8c-0.7,0.1-1.2,0-1.2,0
		c0-0.1,0.5-0.1,1.1-0.4c0.6-0.2,1.3-0.7,1.8-1.6s0.4-2,0.3-2.6C806.1,420.9,805.9,420.5,806,420.4z"/>
	<path class="st5" d="M809,422.3c0.1,0,0.2,0.5,0.1,1.6c-0.1,0.9-0.4,2.2-1.2,3.5s-1.7,2-2.6,2.5c-0.7,0.5-1.3,0.5-1.3,0.5
		c-0.1-0.1,2-1,3.4-3.3C808.9,424.7,808.9,422.3,809,422.3z"/>
	<path class="st3" d="M796.1,455.3c-1.3,4.4-2.5,9.3-3.5,13.8c-0.1,0.5-0.2,0.9-0.3,1.4c-0.2,0.8-0.4,1.5-0.5,2.3
		c-0.2,0.8-0.4,1.6-0.5,2.3l-0.4,1.8l-0.2,0.9l-0.3,1.6c0,0.3-0.1,0.5-0.2,0.8l-0.2,1c-0.1,0.3-0.1,0.7-0.2,1c0,0,0,0,0,0
		c0,0.2-0.1,0.3-0.1,0.5c-0.4,2-0.7,3.3-0.8,3.5c-0.2,0.8-0.4,1.6-0.6,2.4c0,0.1-0.1,0.3-0.1,0.4c-0.5,2.1-1,3.9-1.4,5.5
		c-0.5,2.2-0.9,3.8-1.1,4.5c-0.5,1.9-1,5.2-1.7,9.6h-26.8c-0.2-0.1-0.5-0.2-0.8-0.2c0,0,0-0.1,0-0.1l0.1,0
		c3.2-9.3,6.4-18.8,8.8-26.5l0-0.4c0.5-1.9,2.4-10.4,4.5-19.1c1.2-5,2.4-10.2,3.4-14.1c0,0.1,0,0.2,0,0.4c0,0.1,0,0.2,0,0.3
		c0,0.5,0,1,0.1,1.5c0,0.2,0,0.3,0.1,0.5c0.1,0.6,0.3,1.3,0.5,1.9c0.4,0.9,1,1.8,2,2.4c0.4,0.3,0.8,0.5,1.3,0.7
		c0.2,0.1,0.3,0.1,0.5,0.2v0c0,0,0,0,0,0c0,0,0,0,0,0c0.3,0.1,0.6,0.2,1,0.2c2.5,0.5,5.5,0.7,8.5,0.5c0.3,0,0.6,0,0.9-0.1v0
		c1.2-0.1,2.6-0.3,3.8-0.5v0c0,0,0,0,0,0c0.8-0.2,1.7-0.3,2.5-0.6c0.1,0,0.2,0,0.2-0.1C795.3,455.5,795.7,455.4,796.1,455.3z"/>
</g>
<g>
	<path class="st4" d="M772,476.2c-0.1,0,0.7-4.3,1.9-9.5s2.3-9.5,2.4-9.4c0.1,0-0.7,4.3-1.9,9.5S772.1,476.3,772,476.2z"/>
	<path class="st4" d="M774.8,481.1c-0.1,0,0.7-5.2,1.8-11.6s2.1-11.6,2.2-11.6c0.1,0-0.7,5.2-1.8,11.6S774.9,481.1,774.8,481.1z"/>
	<path class="st4" d="M778.8,469.5c-0.1,0,0.5-2.7,1.3-5.9s1.6-5.8,1.7-5.8c0.1,0-0.5,2.7-1.3,5.9
		C779.6,467,778.9,469.5,778.8,469.5z"/>
	<path class="st4" d="M779.9,487.8c-0.1,0,0.7-6.9,1.9-15.3s2.2-15.3,2.4-15.3c0.1,0-0.7,6.9-1.9,15.3
		C781.1,481,780,487.9,779.9,487.8z"/>
	<path class="st4" d="M784.9,472c-0.1,0,0.3-3.5,1-7.7s1.3-7.6,1.5-7.6c0.1,0-0.3,3.5-1,7.7S785.1,472,784.9,472z"/>
	<path class="st4" d="M785.4,482.3c-0.1,0,0.7-5.4,1.9-12s2.2-11.9,2.3-11.9s-0.7,5.4-1.9,12S785.5,482.4,785.4,482.3z"/>
	<path class="st4" d="M790.3,466.4c-0.1,0,0.2-2.4,0.7-5.2c0.5-2.9,1-5.2,1.1-5.2s-0.2,2.4-0.7,5.2
		C790.9,464.1,790.4,466.4,790.3,466.4z"/>
	<path class="st4" d="M770.7,467.6c-0.1,0,0.3-2.6,1-5.9c0.7-3.2,1.3-5.8,1.4-5.8c0.1,0-0.3,2.6-1,5.9
		C771.5,465.1,770.8,467.7,770.7,467.6z"/>
	<path class="st4" d="M363.5,600.6c0,0-0.2,0-0.6-0.1s-0.9-0.2-1.6-0.3c-1.4-0.3-3.3-0.6-5.7-1.1c-4.8-0.8-11.6-1.9-19.1-1.4
		c-3.7,0.3-7.2,1.1-10.3,2.2c-3,1.1-5.6,2.5-7.6,4c-2,1.4-3.4,2.8-4.3,3.9c-0.9,1-1.3,1.7-1.4,1.6c0,0,0.1-0.2,0.3-0.5
		c0.2-0.3,0.5-0.8,1-1.3c0.9-1.1,2.3-2.5,4.2-4c2-1.5,4.6-3,7.6-4.1c3.1-1.2,6.6-2,10.4-2.3c7.6-0.6,14.4,0.6,19.2,1.5
		c2.4,0.5,4.4,0.9,5.7,1.2c0.7,0.2,1.2,0.3,1.5,0.4C363.3,600.6,363.5,600.6,363.5,600.6z"/>
	<path class="st4" d="M430.3,530.1c0,0-0.2-0.4-0.6-1.2c-0.2-0.4-0.4-0.9-0.6-1.5s-0.4-1.2-0.6-2c-0.4-1.5-0.8-3.3-1.1-5.3
		c-0.3-2-0.4-4.3-0.3-6.6c0.1-2.4,0.4-4.6,0.8-6.6s1-3.8,1.5-5.2c0.2-0.7,0.5-1.4,0.8-1.9c0.2-0.6,0.5-1,0.7-1.4
		c0.4-0.8,0.6-1.2,0.7-1.2c0,0-0.2,0.5-0.5,1.2c-0.2,0.4-0.4,0.9-0.6,1.4c-0.2,0.6-0.5,1.2-0.7,1.9c-0.5,1.4-1,3.2-1.4,5.2
		s-0.7,4.2-0.8,6.5c-0.1,2.3,0,4.6,0.3,6.6s0.6,3.8,1,5.3c0.2,0.7,0.4,1.4,0.6,2s0.3,1.1,0.5,1.5
		C430.2,529.7,430.4,530.1,430.3,530.1z"/>
	<path class="st4" d="M636.9,316.8c0,0-0.2-0.1-0.4-0.2c-0.3-0.2-0.7-0.4-1.2-0.8c-0.5-0.3-1.2-0.7-1.9-1.1
		c-0.8-0.4-1.6-0.9-2.6-1.4c-0.5-0.2-1-0.5-1.6-0.7c-0.5-0.2-1.1-0.4-1.7-0.7c-1.2-0.5-2.5-0.9-3.9-1.3c-2.8-0.8-5.9-1.4-9.3-1.7
		c-3.3-0.2-6.5-0.1-9.4,0.2c-1.4,0.2-2.8,0.4-4.1,0.7c-0.6,0.1-1.2,0.3-1.8,0.4c-0.6,0.2-1.1,0.3-1.7,0.5c-1.1,0.3-2,0.7-2.8,0.9
		c-0.8,0.3-1.5,0.6-2.1,0.8c-0.6,0.2-1,0.4-1.3,0.6c-0.3,0.1-0.5,0.2-0.5,0.2s0.1-0.1,0.4-0.2c0.3-0.1,0.7-0.4,1.3-0.6
		c0.6-0.3,1.2-0.6,2.1-0.9c0.8-0.3,1.7-0.7,2.8-1c0.5-0.2,1.1-0.3,1.7-0.5c0.6-0.2,1.2-0.3,1.8-0.4c1.3-0.3,2.6-0.5,4.1-0.8
		c2.9-0.4,6.1-0.5,9.5-0.3c3.4,0.3,6.5,0.9,9.4,1.7c1.4,0.5,2.7,0.8,3.9,1.4c0.6,0.3,1.2,0.5,1.7,0.7c0.5,0.3,1.1,0.5,1.6,0.8
		c1,0.5,1.9,1,2.6,1.4c0.8,0.4,1.4,0.9,1.9,1.2c0.5,0.4,0.9,0.6,1.2,0.8C636.7,316.7,636.9,316.8,636.9,316.8z"/>
</g>
</svg>
