<svg xmlns="http://www.w3.org/2000/svg" viewBox="0 0 630 630" fill="none">
    <path d="M155.998 339.163H127.133V300.37L155.998 339.163Z" fill="white" stroke="black" stroke-width="2" stroke-miterlimit="10"/>
    <path d="M170.661 357.337L170.585 357.413H172.418V357.337H170.661ZM178.909 462.032C177.916 461.573 176.77 461.268 175.625 461.268C174.556 461.268 173.639 461.497 172.723 461.879V357.413H172.341V462.032C169.898 463.253 168.218 465.773 168.218 468.675C168.218 469.592 168.37 470.432 168.676 471.195C168.752 471.348 168.752 471.424 168.829 471.501V471.577C168.905 471.806 168.981 471.959 169.134 472.188C169.287 472.493 169.516 472.799 169.745 473.104C169.821 473.181 169.898 473.257 169.974 473.41C170.203 473.715 170.432 473.944 170.738 474.173C170.814 474.25 170.89 474.326 171.043 474.402C171.119 474.479 171.196 474.555 171.349 474.632C171.501 474.784 171.73 474.937 171.959 475.013C172.036 475.09 172.189 475.166 172.265 475.166C172.341 475.242 172.494 475.242 172.57 475.319C172.647 475.395 172.799 475.395 172.876 475.472C172.952 475.548 173.105 475.548 173.181 475.624C173.258 475.624 173.258 475.624 173.334 475.701C173.487 475.777 173.716 475.853 173.869 475.853C174.021 475.853 174.098 475.93 174.25 475.93C174.403 475.93 174.479 476.006 174.632 476.006C174.785 476.006 175.014 476.082 175.167 476.082C175.319 476.082 175.549 476.082 175.701 476.082C179.825 476.082 183.109 472.722 183.109 468.675C183.032 465.773 181.352 463.253 178.909 462.032ZM178.909 438.664V445.613H204.719V438.664H178.909ZM194.869 329.464C194.258 328.624 193.876 327.708 193.494 326.715C188.912 319.155 194.029 308.082 200.061 299.224C198.534 296.017 194.869 289.679 188.53 287.006C188.072 287.235 187.385 287.541 186.392 287.617C183.414 287.999 162.49 292.275 156.839 274.941C154.472 267.61 159.741 260.355 165.85 254.857L114.61 253.711H114.305L113.465 254.628L114.228 254.017L177.458 339.086H204.719V334.962C200.061 333.588 196.396 331.755 194.869 329.464ZM189.37 285.861C189.37 285.861 189.37 286.013 189.218 286.242C190.974 286.242 192.654 285.708 194.181 284.868C191.432 285.631 189.37 285.861 189.37 285.861ZM169.516 357.413L169.745 357.719L170.05 357.49L170.203 357.337L169.516 357.413Z" fill="white" stroke="black" stroke-width="2" stroke-miterlimit="10"/>
    <path d="M204.798 445.614V476.16H175.703C179.827 476.16 183.11 472.8 183.11 468.752C183.11 465.851 181.43 463.254 178.987 462.109V445.691L204.798 445.614Z" fill="white" stroke="black" stroke-width="2" stroke-miterlimit="10"/>
    <path d="M204.717 357.414H178.906V438.665H204.717V357.414Z" fill="white" stroke="black" stroke-width="2" stroke-miterlimit="10"/>
    <path d="M194.182 284.868C192.655 285.708 190.975 286.166 189.219 286.243C189.371 286.014 189.371 285.861 189.371 285.861C189.371 285.861 191.433 285.632 194.182 284.868Z" fill="white" stroke="black" stroke-width="2" stroke-miterlimit="10"/>
    <path d="M220.143 338.246C220.143 338.552 220.143 338.857 220.067 339.163H177.379L114.15 254.094L113.387 254.704L114.227 253.788H114.532L165.772 254.934C159.663 260.432 154.394 267.686 156.761 275.017C162.412 292.352 183.259 288.075 186.314 287.694C187.307 287.541 187.994 287.312 188.452 287.083C194.867 289.755 198.532 296.017 199.983 299.301C193.95 308.159 188.834 319.232 193.416 326.792C193.798 327.708 194.256 328.624 194.79 329.541C196.318 331.832 200.06 333.664 204.718 335.115C209.452 336.49 215.103 337.559 220.143 338.246Z" fill="white" stroke="black" stroke-width="2" stroke-miterlimit="10"/>
    <path d="M231.141 277.919C220.45 278.988 213.654 283.264 212.203 284.257C210.294 282.653 207.697 280.363 205.406 278.377C205.177 278.683 204.948 278.988 204.719 279.293V273.261C205.483 271.81 205.941 270.893 205.941 270.893C207.392 266.999 197.235 259.515 189.828 255.392L216.326 255.926L231.141 277.919Z" fill="white" stroke="black" stroke-width="2" stroke-miterlimit="10"/>
    <path d="M170.279 357.414L170.05 357.49L169.745 357.719L169.516 357.414H170.279Z" fill="white" stroke="black" stroke-width="2" stroke-miterlimit="10"/>
    <path d="M219.916 345.271C219.763 349.701 219.686 353.901 219.763 357.413H172.876V357.337H170.737L170.661 357.413H170.126L170.05 357.337H112.548C110.028 357.337 107.737 356.344 106.134 354.664C104.454 352.984 103.461 350.77 103.461 348.25C103.461 343.897 106.515 340.308 110.563 339.391C111.097 339.315 111.632 339.239 112.243 339.239H156.228L127.363 300.446L118.505 288.533V287.846L107.279 272.726C103.766 268.068 104.759 261.424 109.494 257.911L113.999 254.551L114.457 254.093L177.686 339.162H220.374C220.068 341.224 219.916 343.286 219.916 345.271Z" fill="white" stroke="black" stroke-width="2" stroke-miterlimit="10"/>
    <path d="M106.668 272.803C103.155 268.145 104.148 261.501 108.883 257.988L113.388 254.628L114.152 254.018L113.694 254.476L109.188 257.836C104.454 261.348 103.537 267.992 106.974 272.65L118.199 287.77V288.305L117.817 287.847L106.668 272.803Z" fill="white" stroke="black" stroke-width="2" stroke-miterlimit="10"/>
    <path d="M169.897 357.337L112.013 357.413C109.493 357.413 107.202 356.421 105.599 354.741C103.919 353.061 102.926 350.846 102.926 348.326C102.926 343.897 106.133 340.155 110.333 339.392C106.286 340.308 103.231 343.897 103.231 348.25C103.231 350.77 104.224 353.061 105.904 354.664C107.584 356.344 109.799 357.337 112.319 357.337H169.897Z" fill="white" stroke="black" stroke-width="2" stroke-miterlimit="10"/>
    <path d="M172.722 357.337H172.34V357.414H172.722V357.337Z" fill="white" stroke="black" stroke-width="2" stroke-miterlimit="10"/>
    <path d="M172.341 357.337V357.414H170.508L170.661 357.337H172.341Z" fill="white" stroke="black" stroke-width="2" stroke-miterlimit="10"/>
    <path d="M501.696 357.414H497.496V353.214C497.496 355.505 499.405 357.414 501.696 357.414Z" fill="white" stroke="black" stroke-width="2" stroke-miterlimit="10"/>
    <path d="M509.716 357.413H508.57V357.261C508.799 357.337 509.334 357.413 509.716 357.413Z" fill="white" stroke="black" stroke-width="2" stroke-miterlimit="10"/>
    <path d="M178.908 357.414V462.032C177.915 461.574 176.77 461.268 175.624 461.268C174.555 461.268 173.639 461.497 172.723 461.879V357.414H178.908Z" fill="white" stroke="black" stroke-width="2" stroke-miterlimit="10"/>
    <path d="M178.907 462.032V468.675H172.34V357.414H172.722V461.879C173.638 461.497 174.631 461.268 175.623 461.268C176.769 461.268 177.914 461.574 178.907 462.032Z" fill="white" stroke="black" stroke-width="2" stroke-miterlimit="10"/>
    <path d="M509.716 357.413H508.57V357.261C508.799 357.337 509.334 357.413 509.716 357.413Z" fill="white" stroke="black" stroke-width="2" stroke-miterlimit="10"/>
    <path d="M508.571 438.664H294.523V445.613H508.571V438.664Z" fill="white" stroke="black" stroke-width="2" stroke-miterlimit="10"/>
    <path d="M172.722 438.664H172.34V445.613H172.722V438.664Z" fill="white" stroke="black" stroke-width="2" stroke-miterlimit="10"/>
    <path d="M287.877 438.664H178.906V445.613H287.877V438.664Z" fill="white" stroke="black" stroke-width="2" stroke-miterlimit="10"/>
    <path d="M558.051 438.664H515.059V445.613H558.051V438.664Z" fill="white" stroke="black" stroke-width="2" stroke-miterlimit="10"/>
    <path d="M183.032 468.751C183.032 472.875 179.672 476.158 175.624 476.158C175.395 476.158 175.242 476.158 175.09 476.158C174.861 476.158 174.708 476.158 174.555 476.082C174.402 476.082 174.326 476.006 174.173 476.006C174.021 476.006 173.944 475.929 173.792 475.929C173.562 475.853 173.41 475.853 173.257 475.777C173.181 475.777 173.181 475.777 173.104 475.7C173.028 475.7 172.875 475.624 172.799 475.547C172.722 475.471 172.57 475.471 172.493 475.395C172.417 475.318 172.264 475.318 172.188 475.242C172.112 475.166 171.959 475.166 171.882 475.089C171.653 474.936 171.501 474.86 171.272 474.707C171.195 474.631 171.042 474.555 170.966 474.478C170.89 474.402 170.813 474.326 170.661 474.249C170.355 474.02 170.126 473.715 169.897 473.486C169.821 473.409 169.744 473.333 169.668 473.18C169.439 472.875 169.286 472.569 169.057 472.264C168.981 472.111 168.828 471.882 168.752 471.653C168.752 471.653 168.752 471.653 168.752 471.577C168.675 471.5 168.675 471.347 168.599 471.271C168.293 470.507 168.141 469.591 168.141 468.751C168.141 465.849 169.821 463.253 172.264 462.107C172.417 462.031 172.493 461.955 172.646 461.955C173.562 461.573 174.555 461.344 175.548 461.344C176.693 461.344 177.839 461.649 178.832 462.107C181.352 463.253 183.032 465.773 183.032 468.751Z" fill="white" stroke="black" stroke-width="2" stroke-miterlimit="10"/>
    <path d="M171.574 468.675C171.574 466.385 173.407 464.552 175.698 464.552C177.989 464.552 179.821 466.385 179.821 468.675C179.821 470.966 177.989 472.799 175.698 472.799C173.331 472.875 171.574 470.966 171.574 468.675Z" fill="white" stroke="black" stroke-width="2" stroke-miterlimit="10"/>
    <path d="M204.797 298.308C203.117 299.759 201.666 300.905 200.902 301.21C200.902 301.21 200.673 300.447 200.062 299.225C198.535 296.017 194.869 289.679 188.531 287.007C188.989 286.777 189.219 286.472 189.295 286.243C191.051 286.243 192.731 285.708 194.259 284.868C197.695 283.952 202.2 282.272 204.797 279.294C205.026 278.988 205.255 278.683 205.484 278.377C207.775 280.363 210.371 282.654 212.28 284.257C213.426 285.25 214.342 286.014 214.724 286.243C215.869 287.083 209.379 294.185 204.797 298.308Z" fill="white" stroke="black" stroke-width="2" stroke-miterlimit="10"/>
    <path d="M252.907 280.21C250.463 281.89 245.27 285.632 239.849 290.748C233.892 296.399 227.63 303.806 224.652 311.825C224.194 313.046 223.812 314.421 223.43 315.872C223.43 315.948 223.354 316.025 223.354 316.177C223.354 316.254 223.278 316.406 223.278 316.483C222.056 321.217 221.216 326.792 220.681 332.519C220.529 334.428 220.376 336.337 220.223 338.246C215.183 337.559 209.532 336.49 204.721 335.039C200.139 333.665 196.321 331.756 194.794 329.465C194.183 328.625 193.801 327.708 193.419 326.715C188.838 319.155 193.954 308.083 199.987 299.225C200.521 300.446 200.827 301.21 200.827 301.21C201.667 300.905 203.041 299.835 204.721 298.308C209.379 294.185 215.87 287.083 214.649 286.243C214.267 286.014 213.427 285.25 212.205 284.257C213.732 283.265 220.529 278.988 231.143 277.919C236.259 277.385 242.292 277.614 249.012 279.294C249.929 279.523 251.227 279.828 252.907 280.21Z" fill="white" stroke="black" stroke-width="2" stroke-miterlimit="10"/>
    <path d="M127.132 300.37V339.163H117.969V287.923L118.351 288.457L127.132 300.37Z" fill="white" stroke="black" stroke-width="2" stroke-miterlimit="10"/>
    <path d="M194.182 284.868C192.655 285.708 190.975 286.166 189.219 286.242C189.371 286.013 189.371 285.86 189.371 285.86C189.371 285.86 191.433 285.631 194.182 284.868Z" fill="white" stroke="black" stroke-width="2" stroke-miterlimit="10"/>
    <path d="M205.41 278.453C205.181 278.759 204.952 279.064 204.723 279.37V277.842C205.028 277.995 205.181 278.224 205.41 278.453Z" fill="white" stroke="black" stroke-width="2" stroke-miterlimit="10"/>
    <path d="M205.406 278.453C205.177 278.759 204.948 279.064 204.719 279.37V277.842C205.024 277.995 205.177 278.224 205.406 278.453Z" fill="white" stroke="black" stroke-width="2" stroke-miterlimit="10"/>
    <path d="M205.938 270.894C205.938 270.894 205.479 271.81 204.716 273.261V279.294C202.196 282.272 197.69 283.952 194.178 284.868C191.428 285.632 189.367 285.861 189.367 285.861C189.367 285.861 188.679 284.028 187.458 282.348C186.541 281.127 185.243 279.981 183.716 279.905C183.716 279.905 179.668 280.668 179.058 278.301C178.447 275.857 181.348 276.621 181.959 275.476C182.494 274.483 181.196 271.352 179.058 269.137C178.676 268.756 178.294 268.45 177.912 268.145C175.392 266.312 184.021 260.203 187.076 255.239L189.825 255.316C197.232 259.516 207.465 266.999 205.938 270.894Z" fill="white" stroke="black" stroke-width="2" stroke-miterlimit="10"/>
    <path d="M189.901 255.392L187.152 255.316C187.381 254.934 187.611 254.552 187.763 254.247C188.374 254.552 189.138 255.01 189.901 255.392Z" fill="white" stroke="black" stroke-width="2" stroke-miterlimit="10"/>
    <path d="M194.175 284.869C192.647 285.709 190.967 286.167 189.211 286.243C189.364 286.014 189.364 285.861 189.364 285.861C189.364 285.861 191.425 285.632 194.175 284.869Z" fill="white" stroke="black" stroke-width="2" stroke-miterlimit="10"/>
    <path d="M189.366 285.861C189.366 285.861 189.366 286.013 189.213 286.242C189.06 286.471 188.831 286.701 188.449 287.006C187.991 287.235 187.304 287.541 186.311 287.617C183.333 287.999 162.409 292.275 156.758 274.941C154.391 267.61 159.66 260.355 165.769 254.857L165.846 254.781C165.998 254.628 166.075 254.551 166.228 254.399C166.38 254.322 166.457 254.17 166.609 254.093C171.573 249.741 176.918 246.533 178.828 245.388C186.235 240.806 189.442 248.29 188.068 253.406C187.991 253.711 187.915 253.94 187.762 254.246C187.609 254.628 187.38 254.933 187.151 255.315C184.097 260.279 175.468 266.388 177.988 268.221C178.369 268.526 178.751 268.831 179.133 269.213C181.271 271.428 182.646 274.559 182.035 275.551C181.348 276.697 178.522 275.933 179.133 278.377C179.744 280.821 183.791 279.981 183.791 279.981C185.318 280.133 186.617 281.202 187.533 282.424C188.755 284.028 189.366 285.861 189.366 285.861Z" fill="white" stroke="black" stroke-width="2" stroke-miterlimit="10"/>
    <path d="M508.568 357.261V357.414H501.848C499.558 357.414 497.648 355.505 497.648 353.214V288.763C497.648 286.472 499.558 284.563 501.848 284.563H509.714C507.423 284.563 505.514 286.472 505.514 288.763V353.214C505.438 355.123 506.812 356.727 508.568 357.261Z" fill="white" stroke="black" stroke-width="2" stroke-miterlimit="10"/>
    <path d="M509.716 357.413H508.57V357.261C508.799 357.337 509.334 357.413 509.716 357.413Z" fill="white" stroke="black" stroke-width="2" stroke-miterlimit="10"/>
    <path d="M558.894 353.061C558.894 355.428 556.985 357.337 554.617 357.337H509.716C509.334 357.337 508.952 357.261 508.57 357.185C506.814 356.726 505.516 355.046 505.516 353.137V288.686C505.516 286.395 507.425 284.486 509.716 284.486H554.465C556.832 284.486 558.741 286.395 558.741 288.763L558.894 353.061Z" fill="white" stroke="black" stroke-width="2" stroke-miterlimit="10"/>
    <path d="M288.032 368.486V438.665H204.719V357.414H219.61C219.61 363.752 219.839 368.028 219.839 368.028C219.839 368.028 253.133 370.166 287.879 368.486C288.032 368.486 288.032 368.486 288.032 368.486Z" fill="white" stroke="black" stroke-width="2" stroke-miterlimit="10"/>
    <path d="M359.124 315.719C358.971 317.093 358.818 318.468 358.742 319.843C358.895 319.843 359.124 319.843 359.276 319.919L358.131 334.046L357.978 335.65L357.444 342.064L355.84 361.843L355.305 368.257C330.564 367.494 308.265 367.188 295.589 368.028C295.207 368.028 294.902 368.104 294.596 368.104H294.52C292.382 368.257 290.244 368.333 288.029 368.486H287.953C253.207 370.166 219.913 368.028 219.913 368.028C219.913 368.028 219.684 363.752 219.684 357.413C219.684 353.901 219.684 349.701 219.836 345.272C219.913 343.286 219.989 341.224 220.142 339.163C220.142 338.857 220.142 338.552 220.218 338.246C220.371 336.337 220.524 334.428 220.676 332.519C221.211 326.868 222.051 321.293 223.273 316.483C223.273 316.406 223.349 316.253 223.349 316.177C223.349 316.101 223.425 315.948 223.425 315.872C223.807 314.421 224.189 313.123 224.647 311.824C227.625 303.806 233.811 296.399 239.844 290.748C245.265 285.632 250.458 281.89 252.902 280.21C253.818 279.599 254.276 279.293 254.276 279.293C279.935 279.828 325.447 288.915 361.491 293.421C361.491 293.803 361.415 294.184 361.415 294.566C360.575 301.286 359.887 308.464 359.124 315.719Z" fill="white" stroke="black" stroke-width="2" stroke-miterlimit="10"/>
    <path d="M497.496 301.134V368.487C497.496 368.487 492.074 370.319 473.365 371.77C466.874 372.228 448.012 371.617 424.492 370.777C415.94 370.472 406.852 370.09 397.46 369.708C383.485 369.174 368.976 368.639 355.23 368.258L355.765 361.843L357.369 342.065L357.903 335.65L358.056 334.047L359.201 319.919C359.049 319.919 358.82 319.919 358.667 319.843C358.82 318.468 358.972 317.094 359.049 315.719C359.812 308.465 360.5 301.287 361.187 294.49C361.187 294.108 361.263 293.727 361.263 293.345C363.096 293.574 365.005 293.803 366.761 294.032C381.347 295.712 404.791 297.163 427.929 298.308C463.285 300.065 497.496 301.134 497.496 301.134Z" fill="white" stroke="black" stroke-width="2" stroke-miterlimit="10"/>
    <path d="M557.977 438.664V355.581" stroke="black" stroke-width="2" stroke-miterlimit="10"/>
    <path d="M317.582 274.177C317.353 274.254 317.124 274.33 316.895 274.406C316.895 274.33 316.971 274.33 316.971 274.254C317.124 274.177 317.276 274.177 317.582 274.177Z" fill="white" stroke="black" stroke-width="2" stroke-miterlimit="10"/>
    <path d="M328.735 282.272L299.793 284.181C310.408 283.188 320.869 282.425 328.735 282.272Z" fill="white" stroke="black" stroke-width="2" stroke-miterlimit="10"/>
    <path d="M328.73 282.272V282.119V282.272Z" fill="white" stroke="black" stroke-width="2" stroke-miterlimit="10"/>
    <path d="M328.73 282.272V282.119V282.272Z" fill="white" stroke="black" stroke-width="2" stroke-miterlimit="10"/>
    <path d="M328.733 282.272C320.944 282.424 310.406 283.188 299.791 284.181H299.638C299.638 284.181 299.256 284.104 304.907 279.599C307.427 277.613 312.315 275.781 316.973 274.406C317.202 274.33 317.431 274.253 317.66 274.177C317.736 274.177 317.889 274.101 317.966 274.101C318.271 274.024 318.576 273.948 318.882 273.872C321.555 273.108 324.075 272.497 325.755 272.115L326.289 273.948L326.671 275.17L328.733 282.272Z" fill="white" stroke="black" stroke-width="2" stroke-miterlimit="10"/>
    <path d="M328.731 282.272L299.789 284.181C310.404 283.188 320.865 282.425 328.731 282.272Z" fill="white" stroke="black" stroke-width="2" stroke-miterlimit="10"/>
    <path d="M451.448 200.334C451.295 220.875 434.877 246.457 434.189 246.61C432.968 248.519 431.517 250.428 430.142 252.185C429.99 252.566 429.913 253.025 429.837 253.483C429.302 257.225 428.768 260.966 428.157 265.319C427.928 268.832 427.928 277.385 428.004 288.686C428.004 291.741 428.08 295.025 428.08 298.461C428.157 303.883 428.233 309.763 428.309 315.872C428.309 317.017 428.31 318.163 428.386 319.308C427.699 319.385 427.011 319.461 426.324 319.461C422.048 319.843 417.848 320.148 413.877 320.377C406.317 320.836 399.215 321.065 392.648 321.141C390.891 321.141 389.211 321.141 387.608 321.141H386.004C385.928 321.141 385.851 321.141 385.775 321.141C385.469 321.141 385.164 321.141 384.782 321.141C383.56 321.141 382.415 321.141 381.269 321.065C380.582 321.065 379.895 321.065 379.208 321.065C376.84 320.988 374.626 320.912 372.488 320.835C372.182 320.835 371.877 320.835 371.571 320.835C371.189 320.835 370.808 320.759 370.426 320.759C369.968 320.759 369.433 320.683 368.975 320.683C368.593 320.683 368.211 320.683 367.829 320.606C366.837 320.53 365.844 320.53 364.928 320.454C364.164 320.377 363.477 320.377 362.713 320.301C362.331 320.301 361.873 320.225 361.491 320.225C361.415 320.225 361.339 320.225 361.339 320.225C360.651 320.148 359.964 320.148 359.277 320.072C359.124 320.072 358.895 320.072 358.742 319.996C358.895 318.621 359.048 317.246 359.124 315.872C359.888 308.617 360.575 301.439 361.262 294.643C361.262 294.261 361.339 293.879 361.339 293.497C362.102 286.09 362.866 279.217 363.477 273.032L369.204 271.199L376.382 268.908C380.124 267.686 383.102 264.785 384.4 261.043L400.055 215.454C403.339 206.595 405.859 197.355 405.477 190.712C405.095 184.374 400.284 179.563 394.862 178.035C398.833 177.348 404.484 177.425 409.906 177.73C420.062 178.265 430.219 179.563 430.219 179.563C430.219 179.563 439.229 181.014 443.2 184.755C443.353 184.908 443.506 185.061 443.735 185.29C448.47 189.108 451.524 194.988 451.448 200.334Z" fill="#BEE8FF" stroke="black" stroke-width="2" stroke-miterlimit="10"/>
    <path d="M375.087 504.337C372.72 503.803 368.673 507.086 365.542 506.704C362.258 506.246 355.92 504.49 355.92 504.49C355.691 504.566 355.385 504.643 355.156 504.719C355.233 504.643 355.385 504.566 355.538 504.566C356.073 504.337 358.974 502.581 359.127 500.672C359.28 498.839 359.585 495.861 359.891 493.799L374.553 494.181C374.705 497.617 375.087 503.115 375.087 504.337Z" fill="white" stroke="black" stroke-width="2" stroke-miterlimit="10"/>
    <path d="M377.909 515.41C377.909 515.41 343.775 518.235 334.153 515.333C330.411 514.188 342.476 508.843 355.229 504.795C355.458 504.719 355.764 504.643 355.993 504.566C355.993 504.566 362.331 506.323 365.615 506.781C368.745 507.163 372.793 503.879 375.16 504.413C375.236 504.413 375.389 504.49 375.465 504.49C377.985 505.559 377.909 515.41 377.909 515.41Z" fill="white" stroke="black" stroke-width="2" stroke-miterlimit="10"/>
    <path d="M429.913 491.585L420.673 491.814L415.633 491.89C415.633 491.661 415.633 491.585 415.633 491.585L420.367 491.508L429.836 491.355C429.836 491.432 429.836 491.508 429.913 491.585Z" fill="white" stroke="black" stroke-width="2" stroke-miterlimit="10"/>
    <path d="M433.2 515.41C433.2 515.41 398.912 518.694 389.214 515.334C380.127 512.203 391.429 510.599 409.909 504.872C410.291 504.796 410.672 504.643 411.054 504.49C411.818 504.032 415.254 501.207 415.407 499.374C415.56 498.076 415.56 496.472 415.56 495.021C415.56 493.647 415.56 492.425 415.56 491.89L420.6 491.814L429.84 491.585C429.916 493.036 430.527 503.04 430.603 504.414C431.749 504.949 432.36 507.163 432.741 509.454C433.2 512.432 433.2 515.41 433.2 515.41Z" fill="white" stroke="black" stroke-width="2" stroke-miterlimit="10"/>
    <path d="M416.168 159.021C416.168 159.097 416.168 159.097 416.168 159.021C416.168 159.097 416.168 159.021 416.168 159.021Z" fill="white" stroke="black" stroke-width="2" stroke-miterlimit="10"/>
    <path d="M412.122 167.115C412.045 168.032 411.893 168.872 411.816 169.788C411.969 168.872 412.122 167.955 412.122 167.115Z" fill="white" stroke="black" stroke-width="2" stroke-miterlimit="10"/>
    <path d="M430.447 179.563C430.447 179.563 420.291 178.264 410.135 177.73L410.211 177.501V177.424C410.516 176.279 411.356 173.148 411.891 169.788C412.044 168.948 412.12 168.032 412.196 167.115C409.829 167.039 407.767 166.504 406.316 165.283C408.836 165.359 411.662 162.61 412.12 162.152V162.075L413.113 159.937L416.931 151.919C416.473 154.515 416.091 157.112 416.167 159.173C416.167 159.173 416.167 159.173 416.091 159.173C416.091 159.173 416.091 159.173 416.167 159.173C416.244 160.777 416.473 162.075 417.16 162.839C417.924 163.755 419.298 164.595 420.749 165.435C421.589 165.894 422.506 166.352 423.422 166.81C426.171 168.108 428.615 168.948 428.615 168.948L430.447 179.563Z" fill="white" stroke="black" stroke-width="2" stroke-miterlimit="10"/>
    <path d="M418.612 142.603C418.383 144.894 417.695 147.948 417.161 150.927L416.855 150.621L411.968 161.007C411.205 157.341 410.059 146.192 410.059 146.192L403.645 144.97C404.561 139.319 406.546 133.897 409.754 130.614H409.83C411.51 130.614 413.419 131.301 415.099 132.141C415.023 132.065 419.223 136.494 418.612 142.603Z" fill="white" stroke="black" stroke-width="2" stroke-miterlimit="10"/>
    <path d="M416.168 159.021C416.168 159.097 416.168 159.097 416.168 159.021C416.168 159.097 416.168 159.021 416.168 159.021Z" fill="white" stroke="black" stroke-width="2" stroke-miterlimit="10"/>
    <path d="M412.125 161.999C412.125 161.999 412.125 162.075 412.125 161.999V161.999Z" fill="white" stroke="black" stroke-width="2" stroke-miterlimit="10"/>
    <path d="M435.032 156.959C431.901 159.25 430.297 161.846 429.457 164.061L428.617 168.872C428.617 168.872 426.097 167.955 423.424 166.733C422.508 166.352 421.592 165.893 420.752 165.359C419.301 164.519 418.003 163.603 417.163 162.763C416.475 161.999 416.17 160.701 416.17 159.097C416.093 157.035 416.475 154.515 416.933 151.842C417.01 151.537 417.01 151.232 417.086 150.926C417.621 147.872 418.308 144.893 418.537 142.603C419.224 136.57 415.024 132.064 415.024 132.064C413.268 131.224 411.359 130.613 409.755 130.537H409.679C401.813 130.308 406.395 115.341 415.559 117.021C422.737 118.319 427.319 122.442 428.922 124.275C432.206 124.581 436.635 126.261 440.988 133.439C446.333 142.221 441.752 152.072 435.032 156.959Z" fill="white" stroke="black" stroke-width="2" stroke-miterlimit="10"/>
    <path d="M431.596 491.585H429.916C429.916 491.432 429.916 491.432 429.916 491.432L420.447 491.585L415.712 491.661C415.712 491.661 415.712 491.737 415.712 491.967H414.643C414.643 491.967 414.567 491.585 414.414 490.897C414.185 489.676 413.727 487.537 413.116 484.636C411.665 477.687 409.298 466.69 406.854 454.777C406.014 450.73 405.098 446.53 404.258 442.407C399.676 420.796 395.323 400.101 394.941 398.727C394.941 398.803 394.941 398.803 394.941 398.727V398.65C394.941 398.65 394.941 398.65 394.941 398.727C394.941 398.116 394.254 391.777 393.414 383.225C393.567 382.614 393.796 382.079 393.949 381.468C394.101 381.087 394.178 380.705 394.33 380.323C394.407 380.017 394.56 379.712 394.636 379.33C394.941 378.261 395.323 377.116 395.705 375.97C395.705 375.894 395.781 375.817 395.781 375.665C395.934 375.207 396.087 374.748 396.24 374.214C396.24 374.137 396.316 374.061 396.316 373.908C396.469 373.297 396.698 372.763 396.85 372.152C396.85 372.076 396.927 371.923 396.927 371.847C397.08 371.236 397.309 370.701 397.461 370.09V370.014C397.767 369.021 398.072 367.952 398.454 366.959C398.76 365.967 399.065 364.974 399.447 363.905C400.592 360.316 401.814 356.65 402.96 353.061C403.189 352.45 403.341 351.763 403.57 351.152C403.57 351.076 403.57 351.076 403.647 350.999C403.8 350.465 404.029 349.854 404.181 349.319C404.258 349.167 404.258 349.09 404.334 348.937C404.487 348.479 404.64 347.945 404.792 347.486C405.098 346.494 405.403 345.577 405.785 344.585C406.014 343.974 406.167 343.363 406.396 342.752C406.472 342.523 406.549 342.217 406.625 341.988C406.854 341.225 407.16 340.461 407.389 339.697C407.465 339.392 407.618 339.01 407.694 338.705C407.77 338.399 407.923 338.017 408 337.712C408.229 337.101 408.458 336.414 408.687 335.803C408.687 335.726 408.763 335.65 408.763 335.574C408.916 335.039 409.145 334.505 409.298 333.97C409.527 333.283 409.756 332.672 409.985 331.985C410.214 331.374 410.367 330.839 410.596 330.228C410.825 329.617 411.054 329.007 411.207 328.319C411.36 327.785 411.589 327.174 411.741 326.639C412.047 325.799 412.352 324.883 412.581 324.043C412.734 323.508 412.963 322.974 413.116 322.439C413.269 321.905 413.498 321.37 413.65 320.912C413.727 320.683 413.803 320.377 413.88 320.148C417.927 319.919 422.05 319.614 426.327 319.232C425.945 322.668 425.64 327.861 425.41 333.894C425.41 334.428 425.334 334.963 425.334 335.497C425.258 337.559 425.181 339.697 425.105 341.912C424.8 351.457 424.647 362.148 424.494 371.388C424.341 384.981 424.265 395.596 424.265 395.596L427.778 442.177L428.694 454.548L431.443 491.279L431.596 491.585Z" fill="white" stroke="black" stroke-width="2" stroke-miterlimit="10"/>
    <path d="M429.913 491.585L420.673 491.814L415.633 491.89C415.633 491.661 415.633 491.585 415.633 491.585L420.367 491.508L429.836 491.355C429.836 491.432 429.836 491.508 429.913 491.585Z" fill="white" stroke="black" stroke-width="2" stroke-miterlimit="10"/>
    <path d="M413.879 320.301C413.803 320.53 413.727 320.835 413.65 321.065C413.498 321.599 413.268 322.057 413.116 322.592C412.963 323.126 412.734 323.661 412.581 324.195C412.276 325.035 411.97 325.875 411.741 326.792C411.588 327.326 411.359 327.937 411.207 328.472C410.978 329.083 410.748 329.694 410.596 330.381C410.367 330.992 410.214 331.526 409.985 332.137C409.756 332.825 409.527 333.435 409.298 334.123C409.145 334.657 408.916 335.192 408.763 335.726C408.763 335.803 408.687 335.879 408.687 335.955C408.458 336.566 408.228 337.254 407.999 337.865C407.923 338.17 407.77 338.552 407.694 338.857C407.541 339.163 407.465 339.545 407.388 339.85C407.159 340.614 406.854 341.377 406.625 342.141C406.548 342.37 406.472 342.675 406.396 342.905C406.167 343.515 406.014 344.126 405.785 344.737C405.479 345.73 405.174 346.646 404.868 347.639C404.716 348.097 404.563 348.632 404.41 349.09C404.41 349.243 404.334 349.319 404.258 349.472C404.105 350.006 403.876 350.617 403.723 351.152C403.723 351.228 403.723 351.228 403.647 351.305C403.418 351.915 403.265 352.526 403.036 353.214C401.89 356.803 400.668 360.468 399.523 364.057C399.218 365.05 398.836 366.119 398.53 367.112C398.225 368.028 397.919 368.945 397.69 369.785C397.69 369.937 397.614 370.014 397.614 370.166V370.243C397.461 370.854 397.232 371.388 397.079 371.999C397.079 372.075 397.003 372.228 397.003 372.305C396.774 372.915 396.621 373.526 396.468 374.061C396.468 374.137 396.392 374.214 396.392 374.366C396.239 374.825 396.087 375.283 395.934 375.817C395.934 375.894 395.858 375.97 395.858 376.046C395.476 377.192 395.17 378.261 394.788 379.406C394.712 379.712 394.559 380.094 394.483 380.399C394.407 380.781 394.254 381.163 394.101 381.545C393.948 382.155 393.719 382.766 393.567 383.301C389.367 396.894 386.236 407.508 386.159 409.799C386.007 412.395 384.632 424.537 383.028 438.817C382.876 440.039 382.723 441.261 382.57 442.483C382.418 443.552 382.341 444.621 382.188 445.766C381.807 448.745 381.501 451.875 381.119 454.854C380.05 463.483 379.058 471.959 378.218 478.832C377.988 480.894 377.759 482.879 377.53 484.636C376.843 490.592 376.308 494.41 376.308 494.41L374.705 494.334L360.043 493.952L356.53 493.876L356.072 484.636L355.767 478.832L354.545 454.854L354.087 445.766L353.934 442.483L353.781 438.817L352.254 407.585L355.079 373.068L355.461 368.41L355.996 361.995L357.599 342.217L358.134 335.803L358.287 334.199L359.432 320.072C360.119 320.148 360.807 320.148 361.494 320.225C361.57 320.225 361.647 320.225 361.647 320.225C362.028 320.225 362.487 320.301 362.868 320.301C363.556 320.377 364.319 320.377 365.083 320.454C365.999 320.53 366.992 320.606 367.985 320.606C368.367 320.606 368.748 320.683 369.13 320.683C369.588 320.683 370.047 320.759 370.581 320.759C370.963 320.759 371.345 320.759 371.727 320.835C372.032 320.835 372.338 320.835 372.643 320.835C374.781 320.912 377.072 320.988 379.363 321.065C380.05 321.065 380.738 321.065 381.425 321.065C382.57 321.065 383.716 321.065 384.938 321.141C385.243 321.141 385.625 321.141 385.93 321.141C386.007 321.141 386.083 321.141 386.159 321.141H387.763C389.443 321.141 391.123 321.141 392.803 321.141C399.294 320.912 406.396 320.683 413.879 320.301Z" fill="white" stroke="black" stroke-width="2" stroke-miterlimit="10"/>
    <path d="M400.134 215.453L384.48 261.042C383.181 264.784 380.203 267.686 376.461 268.908L369.283 271.199L363.556 273.032L361.265 273.719L355.767 275.475L329.192 283.952L328.734 282.348L328.658 282.195L326.519 275.17L326.138 273.948L325.603 272.115L324.992 270.053L355.843 253.024L361.341 249.97L363.48 248.824L364.09 243.555L365.007 235.537V235.384C366.458 224.541 369.436 205.755 373.789 196.591C380.05 183.304 381.73 180.861 386.847 178.493C389.367 177.348 392.269 177.271 395.018 178.035C400.363 179.562 405.174 184.373 405.632 190.711C406.014 197.355 403.418 206.595 400.134 215.453Z" fill="#BEE8FF" stroke="black" stroke-width="2" stroke-miterlimit="10"/>
    <path d="M365.008 235.461L364.092 243.479C364.016 243.479 364.016 243.479 364.016 243.479C364.016 243.479 364.245 240.348 365.008 235.461Z" fill="#E3F0FB" stroke="black" stroke-width="2" stroke-miterlimit="10"/>
    <path d="M417.084 150.926C417.007 151.232 417.007 151.537 416.931 151.843L413.113 159.861L412.12 161.999V162.075C411.662 162.533 408.837 165.283 406.317 165.206C406.317 165.206 400.742 162.075 403.033 144.741L403.644 144.893L410.058 146.115C410.058 146.115 411.204 157.264 411.967 160.93L416.855 150.544L417.084 150.926Z" fill="#C5E6FB" stroke="black" stroke-width="2" stroke-miterlimit="10"/>
    <path d="M412.125 161.999C412.125 161.999 412.125 162.075 412.125 161.999V161.999Z" fill="white" stroke="black" stroke-width="2" stroke-miterlimit="10"/>
    <path d="M365.004 235.384C365.004 235.461 365.004 235.461 365.004 235.537V235.384Z" fill="#E3F0FB" stroke="black" stroke-width="2" stroke-miterlimit="10"/>
    <path d="M435.566 157.799C432.282 160.09 430.602 162.915 429.762 165.13L428.922 170.17C428.922 170.17 426.326 169.253 423.501 167.955C422.584 167.497 421.591 167.039 420.675 166.504C419.148 165.664 417.773 164.748 416.933 163.831C416.246 162.991 415.864 161.693 415.864 160.013C415.788 157.951 416.17 155.202 416.628 152.53C416.704 152.224 416.704 151.919 416.781 151.537C417.391 148.406 418.079 145.275 418.308 142.984C418.995 136.722 414.566 132.064 414.566 132.064C412.733 131.224 410.748 130.537 409.068 130.461H408.991C400.744 130.155 405.479 114.73 415.101 116.486C422.584 117.861 427.395 122.137 429.152 123.97C432.588 124.351 437.17 126.031 441.828 133.439C447.326 142.526 442.591 152.682 435.566 157.799Z" fill="white" stroke="white" stroke-width="2" stroke-miterlimit="10"/>
    <path d="M420.68 134.66C420.604 134.66 419.611 132.293 417.32 130.307C415.029 128.322 412.433 127.787 412.509 127.635C412.509 127.635 413.12 127.635 414.113 128.017C415.106 128.322 416.404 128.933 417.549 130.002C418.695 131.071 419.611 132.217 420.146 133.133C420.528 134.049 420.68 134.66 420.68 134.66Z" fill="#1D1D1B" stroke="black" stroke-width="0.75" stroke-miterlimit="10"/>
    <path d="M420.211 127.559C420.135 127.712 418.379 126.185 415.706 125.574C413.033 124.81 410.742 125.345 410.742 125.116C410.742 125.039 413.033 124.352 415.859 125.116C418.455 125.803 420.211 127.483 420.211 127.559Z" fill="#1D1D1B" stroke="black" stroke-width="0.75" stroke-miterlimit="10"/>
    <path d="M402.886 123.283C402.963 123.283 402.886 123.664 402.886 124.199C402.886 124.81 403.192 125.573 403.803 126.261C404.337 126.948 405.101 127.33 405.636 127.483C406.17 127.635 406.628 127.559 406.628 127.712C406.628 127.712 406.246 127.864 405.636 127.864C405.025 127.788 404.108 127.406 403.497 126.566C402.886 125.803 402.581 124.886 402.657 124.275C402.428 123.588 402.657 123.206 402.886 123.283Z" fill="#1D1D1B" stroke="black" stroke-width="0.75" stroke-miterlimit="10"/>
    <path d="M405.327 122.443C405.327 122.519 405.174 122.748 405.174 123.207C405.098 123.665 405.098 124.276 405.556 124.81C406.014 125.345 406.549 125.65 407.007 125.65C407.465 125.727 407.771 125.727 407.771 125.727C407.771 125.803 407.542 125.956 407.007 126.032C406.473 126.032 405.709 125.803 405.251 125.116C404.792 124.428 404.792 123.665 405.022 123.13C405.098 122.596 405.251 122.367 405.327 122.443Z" fill="#1D1D1B" stroke="black" stroke-width="0.75" stroke-miterlimit="10"/>
    <path d="M411.969 118.471C411.893 118.624 410.671 117.86 409.068 117.555C407.388 117.326 406.013 117.708 405.937 117.631C405.86 117.555 407.235 116.944 409.068 117.173C410.9 117.326 411.969 118.319 411.969 118.471Z" fill="#1D1D1B" stroke="black" stroke-width="0.75" stroke-miterlimit="10"/>
    <path d="M416.173 122.137C416.096 122.29 414.874 121.526 413.271 121.221C411.591 120.992 410.216 121.374 410.14 121.297C410.063 121.221 411.438 120.61 413.271 120.839C415.103 120.992 416.096 121.985 416.173 122.137Z" fill="#1D1D1B" stroke="black" stroke-width="0.75" stroke-miterlimit="10"/>
    <path d="M420.062 124.275C419.909 124.199 420.444 123.664 420.596 122.595C420.902 121.526 420.825 119.923 419.985 118.472C419.145 117.097 417.694 116.257 416.702 115.952C415.709 115.646 415.022 115.723 414.945 115.646C414.945 115.646 415.633 115.417 416.778 115.646C417.847 115.952 419.374 116.715 420.367 118.243C421.207 119.846 421.207 121.603 420.902 122.595C420.443 123.817 420.062 124.275 420.062 124.275Z" fill="#1D1D1B" stroke="black" stroke-width="0.75" stroke-miterlimit="10"/>
    <path d="M432.585 167.955C432.585 167.955 432.204 168.261 431.516 168.184C430.753 168.108 429.76 167.879 428.996 166.963C428.309 166.123 428.156 164.977 428.156 164.213C428.309 163.45 428.538 163.068 428.614 163.144C428.691 163.144 428.538 163.603 428.538 164.213C428.462 164.824 428.691 165.817 429.378 166.581C430.065 167.344 430.982 167.65 431.593 167.726C432.28 168.032 432.585 167.955 432.585 167.955Z" fill="#1D1D1B" stroke="black" stroke-width="0.75" stroke-miterlimit="10"/>
    <path d="M450.525 143.061C450.449 143.061 450.678 142.221 450.754 140.847C450.831 139.472 450.754 137.639 450.22 135.578C449.685 133.592 448.769 131.988 448.005 130.767C447.242 129.698 446.707 129.01 446.707 129.01C446.707 129.01 447.394 129.468 448.311 130.614C449.151 131.683 450.22 133.439 450.754 135.425C451.289 137.487 451.365 139.472 451.136 140.847C450.983 142.221 450.525 143.061 450.525 143.061Z" fill="#1D1D1B" stroke="black" stroke-width="0.75" stroke-miterlimit="10"/>
    <path d="M443.043 128.933C442.967 128.933 442.967 128.475 442.738 127.864C442.509 127.176 441.898 126.413 441.134 125.725C440.294 125.115 439.378 124.809 438.614 124.733C437.851 124.656 437.469 124.809 437.469 124.656C437.469 124.656 437.927 124.351 438.691 124.427C439.378 124.351 440.523 124.656 441.516 125.344C442.432 126.107 443.043 126.947 443.196 127.787C443.272 128.398 443.272 128.933 443.043 128.933Z" fill="#1D1D1B" stroke="black" stroke-width="0.75" stroke-miterlimit="10"/>
    <path d="M450.686 128.858C450.61 129.011 449.388 126.643 446.792 125.04C444.195 123.36 441.675 123.207 441.752 122.978C441.752 122.978 442.363 122.978 443.432 123.131C444.424 123.36 445.799 123.818 447.097 124.658C448.395 125.498 449.388 126.567 449.999 127.407C450.457 128.323 450.686 128.858 450.686 128.858Z" fill="#1D1D1B" stroke="black" stroke-width="0.75" stroke-miterlimit="10"/>
    <path d="M438.698 121.221C438.698 121.297 436.865 121.297 435.032 122.519C433.199 123.665 432.512 125.497 432.359 125.421C432.359 125.421 432.359 125.039 432.741 124.275C433.123 123.665 433.734 122.825 434.727 122.137C435.719 121.526 436.712 121.145 437.399 121.145C438.316 121.145 438.698 121.221 438.698 121.221Z" fill="#1D1D1B" stroke="black" stroke-width="0.75" stroke-miterlimit="10"/>
    <path d="M434.42 119.693C434.42 119.77 432.587 119.77 430.755 120.992C428.922 122.137 428.235 123.97 428.082 123.893C428.082 123.893 428.082 123.512 428.464 122.748C428.846 122.137 429.457 121.297 430.449 120.61C431.442 119.999 432.435 119.617 433.122 119.617C434.115 119.541 434.42 119.693 434.42 119.693Z" fill="#1D1D1B" stroke="black" stroke-width="0.75" stroke-miterlimit="10"/>
    <path d="M441.977 152.911C441.977 152.834 442.435 152.682 443.046 152.224C443.657 151.842 444.573 151.154 445.26 150.162C445.947 149.169 446.253 148.176 446.406 147.336C446.558 146.573 446.558 146.038 446.635 146.038C446.635 146.038 446.864 146.496 446.711 147.336C446.711 148.176 446.329 149.322 445.642 150.391C444.955 151.46 443.962 152.147 443.198 152.529C442.511 152.834 441.977 152.911 441.977 152.911Z" fill="#1D1D1B" stroke="black" stroke-width="0.75" stroke-miterlimit="10"/>
    <path d="M441.75 156.348C441.75 156.272 442.437 156.195 443.583 155.737C444.652 155.279 446.026 154.439 447.095 153.064C448.241 151.69 448.852 150.163 449.081 149.093C449.31 148.024 449.31 147.184 449.386 147.261C449.386 147.261 449.539 148.024 449.386 149.246C449.234 150.392 448.699 152.072 447.477 153.523C446.255 154.973 444.805 155.813 443.659 156.272C442.437 156.424 441.75 156.348 441.75 156.348Z" fill="#1D1D1B" stroke="black" stroke-width="0.75" stroke-miterlimit="10"/>
    <path d="M441.291 162.686C441.291 162.686 441.673 163.297 441.596 164.366C441.52 165.435 441.138 166.962 439.993 168.184C438.847 169.406 437.243 169.864 436.098 169.864C434.953 169.941 434.418 169.635 434.418 169.635C434.418 169.559 435.029 169.711 436.098 169.559C437.091 169.406 438.542 169.024 439.687 167.802C440.756 166.733 441.291 165.282 441.367 164.213C441.443 163.373 441.062 162.686 441.291 162.686Z" fill="#1D1D1B" stroke="black" stroke-width="0.75" stroke-miterlimit="10"/>
    <path d="M440.377 154.591C440.377 154.668 439.766 154.744 439.079 155.202C438.315 155.584 437.246 156.424 436.711 157.722C436.177 159.02 436.253 160.319 436.559 161.082C436.788 161.999 437.169 162.38 437.093 162.457C437.093 162.457 436.559 162.075 436.253 161.159C435.948 160.319 435.719 158.868 436.329 157.493C436.94 156.119 438.086 155.202 439.002 154.897C439.613 154.591 440.377 154.591 440.377 154.591Z" fill="#1D1D1B" stroke="black" stroke-width="0.75" stroke-miterlimit="10"/>
    <path d="M427.013 162.457C426.86 162.381 427.242 161.999 427.471 161.236C427.7 160.472 427.776 159.403 427.547 158.181C427.318 156.959 426.631 156.119 426.02 155.585C425.486 155.05 425.027 154.897 425.027 154.745C425.027 154.745 425.562 154.821 426.173 155.279C426.784 155.737 427.547 156.73 427.929 158.028C428.235 159.326 428.082 160.472 427.776 161.159C427.471 162.152 427.013 162.534 427.013 162.457Z" fill="#1D1D1B" stroke="black" stroke-width="0.75" stroke-miterlimit="10"/>
    <path d="M435.563 165.893C435.563 165.97 435.182 166.199 434.571 166.122C433.96 166.046 433.043 165.741 432.356 164.977C431.745 164.213 431.669 163.144 431.822 162.61C431.974 161.922 432.203 161.693 432.203 161.693C432.28 161.693 432.051 161.999 432.127 162.686C432.051 163.221 432.203 164.137 432.662 164.748C433.196 165.435 433.883 165.741 434.571 165.893C435.258 165.893 435.563 165.817 435.563 165.893Z" fill="#1D1D1B" stroke="black" stroke-width="0.75" stroke-miterlimit="10"/>
    <path d="M423.652 153.293C423.652 153.217 423.881 152.835 424.263 152.224C424.645 151.537 424.95 150.544 425.103 149.322C425.18 148.177 424.95 147.184 424.721 146.42C424.492 145.733 424.263 145.275 424.263 145.275C424.263 145.275 424.645 145.58 425.027 146.344C425.409 147.108 425.638 148.177 425.638 149.399C425.485 150.697 425.103 151.689 424.645 152.3C424.034 152.988 423.652 153.369 423.652 153.293Z" fill="#1D1D1B" stroke="black" stroke-width="0.75" stroke-miterlimit="10"/>
    <path d="M426.781 153.599C426.781 153.523 427.239 153.37 427.85 152.912C428.461 152.53 429.225 151.766 429.836 150.697C430.294 149.628 430.523 148.559 430.447 147.795C430.37 146.955 430.218 146.573 430.294 146.497C430.294 146.497 430.599 146.955 430.752 147.719C430.905 148.483 430.829 149.781 430.218 150.85C429.683 151.995 428.69 152.759 428.003 153.141C427.316 153.675 426.858 153.675 426.781 153.599Z" fill="#1D1D1B" stroke="black" stroke-width="0.75" stroke-miterlimit="10"/>
    <path d="M424.258 142.984C424.105 142.908 425.098 141.151 424.64 138.86C424.334 136.57 422.884 135.119 422.96 135.119C422.96 135.119 423.418 135.348 423.876 136.035C424.334 136.646 424.869 137.715 425.022 138.86C425.174 140.082 425.022 141.228 424.793 141.915C424.487 142.602 424.258 142.984 424.258 142.984Z" fill="#1D1D1B" stroke="black" stroke-width="0.75" stroke-miterlimit="10"/>
    <path d="M446.787 141.915C446.787 141.992 446.405 141.992 445.87 142.297C445.336 142.526 444.572 143.137 444.038 143.977C443.503 144.817 443.35 145.657 443.427 146.268C443.427 146.879 443.656 147.261 443.58 147.261C443.58 147.261 443.274 146.879 443.121 146.192C442.969 145.504 443.198 144.512 443.656 143.595C444.19 142.679 445.03 142.068 445.641 141.915C446.252 141.839 446.787 141.915 446.787 141.915Z" fill="#1D1D1B" stroke="black" stroke-width="0.75" stroke-miterlimit="10"/>
    <path d="M437.019 151.155C437.019 151.232 435.339 151.614 433.812 152.988C432.208 154.286 431.521 155.89 431.445 155.814C431.368 155.814 431.903 154.057 433.506 152.683C435.339 151.232 437.019 151.003 437.019 151.155Z" fill="#1D1D1B" stroke="black" stroke-width="0.75" stroke-miterlimit="10"/>
    <path d="M439.999 141.839C439.999 141.762 440.304 141.457 440.686 140.617C441.068 139.93 441.297 138.784 440.992 137.639C440.61 136.493 439.846 135.73 439.235 135.271C438.624 134.813 438.09 134.737 438.09 134.737C438.09 134.737 438.624 134.737 439.388 135.042C440.075 135.424 441.144 136.34 441.45 137.562C441.832 138.86 441.45 140.006 440.992 140.77C440.457 141.533 439.999 141.839 439.999 141.839Z" fill="#1D1D1B" stroke="black" stroke-width="0.75" stroke-miterlimit="10"/>
    <path d="M445.037 140.693C445.037 140.616 445.418 140.158 445.877 139.242C446.258 138.325 446.564 136.875 446.258 135.424C445.953 133.973 445.037 132.827 444.273 132.14C443.509 131.453 442.898 131.224 442.898 131.224C442.898 131.224 443.509 131.3 444.426 131.911C445.342 132.522 446.258 133.744 446.64 135.347C447.022 136.951 446.64 138.478 446.106 139.395C445.724 140.311 445.037 140.693 445.037 140.693Z" fill="#1D1D1B" stroke="black" stroke-width="0.75" stroke-miterlimit="10"/>
    <path d="M440.452 132.293C440.452 132.37 439.917 132.293 439.077 132.522C438.314 132.675 437.168 133.362 436.634 134.508C436.099 135.653 436.252 136.951 436.557 137.715C436.863 138.479 437.321 138.861 437.244 138.937C437.244 138.937 436.634 138.631 436.252 137.791C435.87 136.951 435.564 135.577 436.175 134.279C436.786 132.981 438.084 132.293 439.001 132.217C439.917 131.988 440.452 132.141 440.452 132.293Z" fill="#1D1D1B" stroke="black" stroke-width="0.75" stroke-miterlimit="10"/>
    <path d="M432.586 149.399C432.586 149.323 433.045 149.094 433.579 148.407C434.19 147.796 434.648 146.727 434.648 145.428C434.648 144.207 434.037 143.061 433.503 142.603C432.968 141.992 432.434 141.687 432.434 141.687C432.434 141.687 432.968 141.763 433.655 142.374C434.266 142.985 435.106 144.13 435.106 145.505C435.106 146.956 434.419 148.025 433.732 148.636C433.274 149.247 432.586 149.399 432.586 149.399Z" fill="#1D1D1B" stroke="black" stroke-width="0.75" stroke-miterlimit="10"/>
    <path d="M436.02 148.941C435.868 148.864 437.166 147.719 437.395 145.963C437.7 144.13 436.86 142.679 437.089 142.603C437.089 142.603 437.471 142.832 437.7 143.519C437.929 144.053 438.158 145.046 437.929 146.039C437.7 147.032 437.318 147.872 436.86 148.33C436.326 148.788 436.097 148.864 436.02 148.941Z" fill="#1D1D1B" stroke="black" stroke-width="0.75" stroke-miterlimit="10"/>
    <path d="M429.222 134.355C429.222 134.431 428.916 134.737 428.535 135.577C428.153 136.264 427.924 137.41 428.076 138.708C428.229 139.93 428.764 140.922 429.298 141.533C429.833 142.144 430.291 142.373 430.215 142.45C430.215 142.45 429.68 142.373 428.993 141.762C428.382 141.151 427.695 140.082 427.466 138.784C427.313 137.486 427.618 136.264 428.076 135.5C428.764 134.66 429.222 134.355 429.222 134.355Z" fill="#1D1D1B" stroke="black" stroke-width="0.75" stroke-miterlimit="10"/>
    <path d="M438.165 131.072C438.013 130.996 438.547 129.927 438.165 128.629C437.86 127.254 436.791 126.643 436.867 126.567C436.867 126.567 437.173 126.567 437.554 126.949C437.936 127.331 438.394 127.789 438.547 128.629C438.7 129.392 438.624 130.08 438.547 130.614C438.471 130.843 438.165 131.149 438.165 131.072Z" fill="#1D1D1B" stroke="black" stroke-width="0.75" stroke-miterlimit="10"/>
    <path d="M425.099 126.336C425.099 126.413 424.947 126.566 424.718 126.947C424.488 127.329 424.336 127.864 424.488 128.551C424.488 129.162 424.87 129.696 425.176 130.078C425.481 130.46 425.787 130.46 425.71 130.613C425.71 130.613 425.405 130.689 424.947 130.384C424.565 130.078 424.107 129.544 424.03 128.704C423.954 127.864 424.183 127.176 424.565 126.795C424.565 126.413 425.099 126.336 425.099 126.336Z" fill="#1D1D1B" stroke="black" stroke-width="0.75" stroke-miterlimit="10"/>
    <path d="M430.98 133.057C430.827 132.98 430.98 132.751 431.133 132.293C431.209 131.835 431.286 131.148 431.057 130.46C430.904 129.773 430.446 129.162 430.14 128.78C429.835 128.399 429.529 128.322 429.606 128.169C429.606 128.169 429.911 128.169 430.369 128.475C430.751 128.78 431.286 129.391 431.515 130.231C431.744 131.071 431.667 131.835 431.438 132.293C431.286 132.751 430.98 133.057 430.98 133.057Z" fill="#1D1D1B" stroke="black" stroke-width="0.75" stroke-miterlimit="10"/>
    <path d="M432.971 140.006C432.818 139.93 433.277 138.708 432.742 137.257C432.208 135.73 431.138 135.042 431.215 134.89C431.215 134.89 431.52 134.89 432.055 135.348C432.437 135.653 432.971 136.264 433.277 137.181C433.582 137.944 433.506 138.784 433.429 139.319C433.277 139.701 432.971 140.006 432.971 140.006Z" fill="#1D1D1B" stroke="black" stroke-width="0.75" stroke-miterlimit="10"/>
    <path d="M428.007 118.166C428.007 118.243 427.014 118.395 426.174 119.312C425.334 120.152 425.105 121.068 424.953 121.144C424.876 121.144 424.876 120.839 425.029 120.381C425.105 119.923 425.411 119.464 425.945 118.93C426.48 118.472 427.014 118.166 427.473 118.166C427.778 118.014 427.931 118.09 428.007 118.166Z" fill="#1D1D1B" stroke="black" stroke-width="0.75" stroke-miterlimit="10"/>
    <path d="M450.601 154.287C450.601 154.287 450.601 154.822 450.296 155.738C449.99 156.502 449.303 157.647 448.31 158.487C447.241 159.327 446.096 159.785 445.256 160.014C444.339 160.243 443.805 160.091 443.805 160.091C443.805 160.014 444.263 160.014 445.179 159.709C445.943 159.403 447.088 158.945 448.005 158.105C448.921 157.265 449.685 156.273 450.067 155.585C450.219 154.822 450.448 154.363 450.601 154.287Z" fill="#1D1D1B" stroke="black" stroke-width="0.75" stroke-miterlimit="10"/>
    <path d="M436.554 117.25C436.477 117.25 436.095 116.944 435.255 116.41C434.415 115.951 433.27 115.417 431.895 115.188C430.521 114.959 429.146 115.035 428.306 115.264C427.466 115.493 426.855 115.722 426.855 115.57C426.855 115.57 427.314 115.188 428.23 114.806C429.223 114.5 430.521 114.271 432.048 114.577C433.575 114.882 434.721 115.417 435.561 115.951C436.172 116.715 436.554 117.25 436.554 117.25Z" fill="#1D1D1B" stroke="black" stroke-width="0.75" stroke-miterlimit="10"/>
    <path d="M440.681 119.464C440.605 119.464 440.452 119.006 440.146 118.09C439.841 117.326 439.23 116.257 438.237 115.264C437.321 114.348 436.252 113.737 435.335 113.508C434.572 113.203 434.037 113.203 433.961 113.05C433.961 113.05 434.572 112.897 435.412 113.126C436.328 113.355 437.474 113.89 438.466 114.806C439.535 115.723 440.07 116.944 440.375 117.784C440.757 118.854 440.681 119.464 440.681 119.464Z" fill="#1D1D1B" stroke="black" stroke-width="0.75" stroke-miterlimit="10"/>
    <path d="M426.86 171.621L431.518 171.697L431.212 169.559H425.18L426.86 171.621Z" fill="white"/>
    <path d="M188.607 148.941L177.916 227.901H72L82.8436 148.941H188.607Z" fill="white" stroke="black" stroke-width="2" stroke-miterlimit="10"/>
    <path d="M135.076 179.716C134.694 179.716 134.465 179.41 134.541 179.105L134.923 164.596L129.807 179.181C129.73 179.486 129.425 179.716 129.119 179.716H123.316C123.087 179.716 122.858 179.563 122.781 179.334L121.636 176.279L119.498 179.334C119.345 179.563 119.116 179.639 118.887 179.639H115.374C115.069 179.639 114.839 179.486 114.839 179.181L112.625 168.948L106.821 179.257C106.668 179.486 106.439 179.639 106.134 179.639H89.4867C89.1049 179.639 88.8758 179.334 88.9521 178.952C89.0285 178.57 89.3339 178.265 89.7158 178.265H105.981L112.472 166.81C112.625 166.581 112.854 166.428 113.159 166.428C113.465 166.428 113.618 166.581 113.694 166.886L116.138 178.265H118.734L121.407 174.446C121.559 174.217 121.789 174.065 122.018 174.141C122.247 174.141 122.476 174.294 122.552 174.523L123.927 178.341H128.814L135.076 160.319C135.152 160.014 135.458 159.785 135.839 159.785C136.145 159.785 136.374 160.014 136.374 160.396L135.992 175.592L138.436 169.559C138.589 169.254 138.818 169.101 139.123 169.101C139.429 169.101 139.658 169.33 139.658 169.636L140.192 178.341H147.065L154.701 161.846C154.854 161.541 155.159 161.388 155.465 161.388C155.77 161.388 155.999 161.617 155.999 161.923L156.687 178.265H158.749L162.414 172.385C162.567 172.156 162.872 172.003 163.101 172.003C163.407 172.003 163.559 172.232 163.636 172.461L164.323 178.265H173.792C174.174 178.265 174.403 178.57 174.327 178.952C174.25 179.334 173.945 179.639 173.563 179.639H163.636C163.33 179.639 163.101 179.41 163.101 179.181L162.567 174.676L159.665 179.334C159.512 179.563 159.283 179.716 159.054 179.716H156.076C155.77 179.716 155.541 179.486 155.541 179.181L154.93 164.825L148.21 179.257C148.058 179.563 147.829 179.716 147.523 179.716H139.658C139.352 179.716 139.123 179.486 139.123 179.181L138.741 172.614L135.992 179.257C135.687 179.486 135.305 179.716 135.076 179.716Z" fill="white" stroke="black" stroke-miterlimit="10"/>
    <path d="M130.951 209.421C130.569 209.421 130.34 209.115 130.416 208.81L130.798 194.301L125.682 208.886C125.605 209.192 125.3 209.421 124.994 209.421H119.191C118.962 209.421 118.733 209.268 118.656 209.039L117.511 205.984L115.373 209.039C115.22 209.268 114.991 209.344 114.762 209.344H111.249C110.944 209.344 110.714 209.192 110.714 208.886L108.5 198.653L102.696 208.962C102.544 209.192 102.314 209.344 102.009 209.344H85.3617C84.9799 209.344 84.7508 209.039 84.8271 208.657C84.9035 208.275 85.2089 207.97 85.5908 207.97H101.856L108.347 196.515C108.5 196.286 108.729 196.133 109.034 196.133C109.34 196.133 109.493 196.286 109.569 196.592L112.013 207.97H114.609L117.282 204.152C117.434 203.922 117.664 203.77 117.893 203.846C118.122 203.846 118.351 203.999 118.427 204.228L119.802 208.046H124.689L130.951 190.024C131.027 189.719 131.333 189.49 131.714 189.49C132.02 189.49 132.249 189.719 132.249 190.101L131.867 205.297L134.311 199.264C134.464 198.959 134.693 198.806 134.998 198.806C135.304 198.806 135.533 199.035 135.533 199.341L136.067 208.046H142.94L150.576 191.552C150.729 191.246 151.034 191.093 151.34 191.093C151.645 191.093 151.874 191.322 151.874 191.628L152.562 207.97H154.624L158.289 202.09C158.442 201.861 158.747 201.708 158.976 201.708C159.282 201.708 159.434 201.937 159.511 202.166L160.198 207.97H169.667C170.049 207.97 170.278 208.275 170.202 208.657C170.125 209.039 169.82 209.344 169.438 209.344H159.511C159.205 209.344 158.976 209.115 158.976 208.886L158.442 204.381L155.54 209.039C155.387 209.268 155.158 209.421 154.929 209.421H151.951C151.645 209.421 151.416 209.192 151.416 208.886L150.805 194.53L144.085 208.962C143.933 209.268 143.704 209.421 143.398 209.421H135.533C135.227 209.421 134.998 209.192 134.998 208.886L134.616 202.319L131.867 208.962C131.562 209.192 131.333 209.421 130.951 209.421Z" fill="white" stroke="black" stroke-miterlimit="10"/>
    <path d="M176.005 476.083H84.75V227.901H166.536V254.094C166.383 254.17 166.306 254.323 166.154 254.399C166.001 254.475 165.925 254.628 165.772 254.781L114.532 253.712L114.455 253.788L114.15 254.17L113.692 254.628L109.186 257.988C104.452 261.501 103.535 268.145 106.972 272.803L118.197 287.923V339.163H112.317C111.63 339.163 110.943 339.239 110.255 339.392C106.208 340.308 103.154 343.897 103.154 348.25C103.154 350.77 104.146 353.061 105.826 354.665C107.506 356.345 109.721 357.337 112.241 357.337H169.743L169.819 357.414L169.895 357.566L169.972 357.719L170.277 357.49L170.354 357.414H172.492V462.032C172.339 462.108 172.263 462.185 172.11 462.261C169.819 463.559 168.292 465.926 168.292 468.752C168.521 472.723 171.957 476.083 176.005 476.083Z" fill="white" stroke="black" stroke-width="2" stroke-miterlimit="10"/>
    <path d="M294.524 461.65V468.294H287.957V461.65C288.95 461.192 290.095 460.887 291.241 460.887C292.462 460.887 293.455 461.192 294.524 461.65Z" fill="white" stroke="black" stroke-width="2" stroke-miterlimit="10"/>
    <path d="M294.524 368.104V461.65C293.532 461.192 292.462 460.886 291.241 460.886C290.095 460.886 288.95 461.192 287.957 461.65V438.665H288.033V368.486C290.172 368.334 292.386 368.257 294.524 368.104Z" fill="white" stroke="black" stroke-width="2" stroke-miterlimit="10"/>
    <path d="M288.033 368.486V438.665H287.957V368.486C288.033 368.486 288.033 368.486 288.033 368.486Z" fill="white" stroke="black" stroke-width="2" stroke-miterlimit="10"/>
    <path d="M298.725 468.369C298.725 472.493 295.365 475.776 291.317 475.776C287.194 475.776 283.91 472.416 283.91 468.369C283.91 465.467 285.59 462.871 288.034 461.726C289.027 461.267 290.172 460.962 291.317 460.962C292.463 460.962 293.608 461.267 294.601 461.726C296.968 462.871 298.725 465.391 298.725 468.369Z" fill="white" stroke="black" stroke-width="2" stroke-miterlimit="10"/>
    <path d="M287.113 468.294C287.113 466.003 288.946 464.17 291.237 464.17C293.528 464.17 295.361 466.003 295.361 468.294C295.361 470.584 293.528 472.417 291.237 472.417C288.87 472.494 287.113 470.584 287.113 468.294Z" fill="white" stroke="black" stroke-width="2" stroke-miterlimit="10"/>
    <path d="M515.063 357.032V461.65C514.071 461.192 512.925 460.886 511.78 460.886C510.634 460.886 509.489 461.192 508.496 461.65V357.032H515.063Z" fill="white" stroke="black" stroke-width="2" stroke-miterlimit="10"/>
    <path d="M519.26 468.294C519.26 472.418 515.9 475.701 511.853 475.701C507.729 475.701 504.445 472.341 504.445 468.294C504.445 465.392 506.125 462.796 508.569 461.65C509.562 461.192 510.707 460.887 511.853 460.887C512.998 460.887 514.143 461.192 515.136 461.65C517.656 462.872 519.26 465.392 519.26 468.294Z" fill="white" stroke="black" stroke-width="2" stroke-miterlimit="10"/>
    <path d="M507.73 468.294C507.73 466.003 509.563 464.17 511.854 464.17C514.145 464.17 515.978 466.003 515.978 468.294C515.978 470.584 514.145 472.417 511.854 472.417C509.487 472.494 507.73 470.584 507.73 468.294Z" fill="white" stroke="black" stroke-width="2" stroke-miterlimit="10"/>
    <path d="M394.94 264.25C394.94 264.25 394.863 264.555 394.711 265.09C394.634 265.395 394.558 265.701 394.405 266.083C394.253 266.465 394.1 266.923 393.871 267.381C393.642 267.839 393.413 268.374 393.031 268.832C392.725 269.366 392.344 269.901 391.962 270.435C391.122 271.505 390.129 272.574 388.907 273.566C387.685 274.559 386.387 275.323 385.165 275.934C384.554 276.239 383.943 276.468 383.409 276.621C382.874 276.85 382.264 277.003 381.805 277.079C381.347 277.232 380.813 277.308 380.431 277.308C380.049 277.385 379.667 277.385 379.362 277.461C378.827 277.461 378.445 277.537 378.445 277.461C378.445 277.385 379.744 277.385 381.653 276.85C382.111 276.697 382.645 276.545 383.256 276.315C383.791 276.163 384.402 275.857 385.013 275.552C386.234 274.941 387.456 274.177 388.678 273.261C389.9 272.268 390.893 271.199 391.733 270.206C392.114 269.672 392.496 269.137 392.802 268.679C393.107 268.221 393.413 267.686 393.642 267.228C394.558 265.472 394.787 264.25 394.94 264.25Z" fill="#1D1D1B"/>
    <path d="M237.703 325.951C237.703 325.951 237.627 326.027 237.474 326.18C237.321 326.332 237.092 326.485 236.787 326.791C236.634 326.943 236.481 327.096 236.252 327.249C236.099 327.402 235.87 327.631 235.718 327.86C235.336 328.318 234.801 328.7 234.419 329.311C234.19 329.616 233.961 329.922 233.732 330.227C233.503 330.533 233.35 330.914 233.121 331.296C232.663 331.983 232.281 332.9 231.899 333.74C231.212 335.573 230.678 337.634 230.525 339.849C230.372 342.063 230.601 344.202 231.059 346.034C231.365 346.951 231.518 347.867 231.899 348.631C232.052 349.013 232.205 349.394 232.358 349.776C232.587 350.158 232.739 350.463 232.892 350.769C233.198 351.456 233.656 351.914 233.961 352.449C234.114 352.678 234.267 352.907 234.419 353.136C234.572 353.289 234.725 353.518 234.878 353.671C235.183 353.976 235.336 354.205 235.488 354.358C235.641 354.511 235.718 354.587 235.718 354.587C235.718 354.587 235.641 354.511 235.488 354.358C235.336 354.205 235.107 353.976 234.801 353.671C234.648 353.518 234.496 353.365 234.343 353.213C234.19 353.06 234.038 352.831 233.808 352.602C233.427 352.143 233.045 351.609 232.663 350.998C232.51 350.693 232.281 350.311 232.052 350.005C231.823 349.623 231.747 349.242 231.518 348.86C231.136 348.096 230.907 347.18 230.601 346.263C230.143 344.354 229.914 342.216 230.067 339.925C230.219 337.634 230.754 335.573 231.518 333.74C231.899 332.823 232.281 331.983 232.739 331.296C232.968 330.914 233.198 330.533 233.427 330.227C233.656 329.922 233.885 329.616 234.114 329.311C234.572 328.7 235.03 328.242 235.488 327.86C235.718 327.631 235.87 327.478 236.099 327.325C236.328 327.172 236.481 327.02 236.634 326.943C236.939 326.714 237.245 326.485 237.398 326.409C237.627 326.027 237.703 325.951 237.703 325.951Z" fill="#1D1D1B"/>
    <path d="M209.994 301.898C209.994 301.974 208.314 301.516 206.252 300.905C204.19 300.294 202.586 299.684 202.663 299.531C202.663 299.454 204.343 299.913 206.405 300.524C208.466 301.134 209.994 301.822 209.994 301.898Z" fill="#1D1D1B"/>
    <path d="M216.628 302.584C216.628 302.661 214.031 301.668 210.9 300.37C207.77 299.072 205.25 297.926 205.326 297.85C205.326 297.773 207.922 298.766 211.053 300.064C214.184 301.363 216.78 302.508 216.628 302.584Z" fill="#1D1D1B"/>
    <path d="M212.434 299.149C212.357 299.225 211.288 298.767 210.066 298.08C208.768 297.392 207.775 296.781 207.852 296.705C207.928 296.629 208.997 297.087 210.219 297.774C211.517 298.461 212.434 299.072 212.434 299.149Z" fill="#1D1D1B"/>
    <path d="M218.386 298.308C218.386 298.384 216.248 297.621 213.728 296.628C211.208 295.559 209.223 294.719 209.223 294.566C209.223 294.49 211.361 295.254 213.881 296.246C216.324 297.315 218.386 298.232 218.386 298.308Z" fill="#1D1D1B"/>
    <path d="M214.344 292.887C214.344 292.963 213.428 292.81 212.282 292.581C211.137 292.352 210.297 291.97 210.297 291.894C210.297 291.818 211.213 291.97 212.359 292.199C213.504 292.428 214.344 292.734 214.344 292.887Z" fill="#1D1D1B"/>
    <path d="M223.729 292.887C223.729 292.963 221.209 292.2 218.154 291.207C215.099 290.214 212.656 289.298 212.732 289.222C212.732 289.145 215.252 289.909 218.307 290.902C221.361 291.894 223.729 292.734 223.729 292.887Z" fill="#1D1D1B"/>
    <path d="M218.384 288.535C218.384 288.611 217.391 288.458 216.169 288.229C214.948 288 214.031 287.618 214.031 287.542C214.031 287.465 215.024 287.618 216.246 287.847C217.468 288.076 218.384 288.458 218.384 288.535Z" fill="#1D1D1B"/>
    <path d="M223.733 286.931C223.733 287.007 221.747 286.931 219.38 286.778C217.013 286.625 215.027 286.396 215.027 286.32C215.027 286.244 217.013 286.32 219.38 286.473C221.824 286.625 223.733 286.855 223.733 286.931Z" fill="#1D1D1B"/>
    <path d="M174.86 263.868C174.937 263.868 174.708 264.25 174.555 264.784C174.402 265.319 174.326 266.159 174.478 266.999C174.631 267.839 175.013 268.603 175.318 269.061C175.624 269.519 175.929 269.824 175.853 269.824C175.853 269.824 175.471 269.672 175.089 269.213C174.708 268.755 174.249 267.992 174.097 267.075C173.944 266.159 174.097 265.243 174.326 264.708C174.631 264.097 174.86 263.792 174.86 263.868Z" fill="#1D1D1B"/>
    <path d="M183.405 255.545C183.328 255.545 183.481 255.086 183.557 254.399C183.634 253.712 183.557 252.719 183.176 251.726C182.794 250.734 182.183 249.894 181.725 249.436C181.19 248.901 180.808 248.672 180.885 248.672C180.885 248.672 181.343 248.825 181.877 249.283C182.412 249.741 183.099 250.581 183.481 251.65C183.863 252.719 183.939 253.788 183.787 254.476C183.787 255.163 183.481 255.621 183.405 255.545Z" fill="#1D1D1B"/>
    <path d="M184.941 253.787C184.864 253.787 185.017 253.329 185.017 252.565C185.017 251.878 184.864 250.809 184.33 249.893C183.795 248.9 183.032 248.213 182.421 247.831C181.81 247.449 181.352 247.296 181.352 247.296C181.352 247.296 181.81 247.296 182.497 247.678C183.184 247.984 184.024 248.747 184.559 249.74C185.093 250.809 185.246 251.878 185.17 252.642C185.17 253.405 184.941 253.787 184.941 253.787Z" fill="#1D1D1B"/>
    <path d="M182.49 281.813C182.49 281.813 182.032 282.195 181.039 282.348C180.123 282.501 178.672 282.424 177.45 281.508C176.228 280.668 175.617 279.37 175.388 278.377C175.235 277.461 175.388 276.85 175.388 276.85C175.465 276.85 175.388 277.461 175.617 278.301C175.846 279.141 176.457 280.362 177.603 281.202C178.748 281.966 180.046 282.119 180.963 282.042C181.955 281.966 182.49 281.737 182.49 281.813Z" fill="#1D1D1B"/>
    <path d="M178.671 284.257C178.671 284.257 178.518 284.257 178.289 284.18C178.06 284.104 177.678 284.028 177.22 283.798C176.38 283.417 175.311 282.577 174.547 281.431C173.784 280.209 173.555 278.911 173.555 277.995C173.555 277.537 173.631 277.155 173.707 276.926C173.784 276.697 173.86 276.544 173.86 276.544C173.937 276.544 173.784 277.078 173.86 277.995C173.86 278.911 174.166 280.133 174.929 281.278C175.616 282.424 176.609 283.264 177.373 283.646C178.06 284.028 178.671 284.18 178.671 284.257Z" fill="#1D1D1B"/>
    </svg>