<svg xmlns="http://www.w3.org/2000/svg" xmlns:xlink="http://www.w3.org/1999/xlink" version="1.1" id="Layer_1" x="0px" y="0px" viewBox="0 0 630 630" style="enable-background:new 0 0 630 630;" xml:space="preserve">
	<style type="text/css">
		.st0{fill:none;stroke:#FFFFFF;stroke-width:2;stroke-miterlimit:10;}
		.st1{fill:#BEE8FF;stroke:#FFFFFF;stroke-width:2;stroke-miterlimit:10;}
		.st2{fill:#FFFFFF;stroke:#FFFFFF;stroke-width:2;stroke-miterlimit:10;}
		.st3{fill:#E3F0FB;stroke:#FFFFFF;stroke-width:2;stroke-miterlimit:10;}
		.st4{fill:#C5E6FB;stroke:#FFFFFF;stroke-width:2;stroke-miterlimit:10;}
		.st5{fill:#FFFFFF;stroke:#FFFFFF;stroke-width:0.75;stroke-miterlimit:10;}
		.st6{fill:none;stroke:#FFFFFF;stroke-miterlimit:10;}
		.st7{fill:#FFFFFF;}
		.st8{fill:none;}
	</style>
	<g>
		<polygon class="st0" points="156.1,339.1 127.2,339.1 127.2,300.3  "/>
		<path class="st0" d="M170.7,357.3L170.7,357.3l1.8,0.1v-0.1H170.7z M183.2,468.4c0-0.1,0-0.1,0-0.2c-0.2-2-1.1-3.8-2.6-5   c-0.1-0.1-0.2-0.2-0.3-0.2c-0.2-0.1-0.3-0.2-0.4-0.3c-0.2-0.2-0.5-0.3-0.8-0.5h-0.1c-1-0.5-2.1-0.8-3.3-0.8c-0.2,0-0.5,0-0.8,0   c-0.2,0-0.5,0.1-0.8,0.2c-0.1,0-0.2,0.1-0.3,0.1c-0.2,0-0.3,0.1-0.4,0.2c-0.2,0-0.2,0.1-0.4,0.2c-0.1,0.1-0.2,0.1-0.4,0.2V357.4   h-0.4v104.7c-0.3,0.2-0.6,0.3-0.8,0.5c-0.2,0.1-0.3,0.2-0.4,0.3c-1.8,1.4-2.8,3.4-2.8,5.8c0,0.9,0.2,1.8,0.5,2.5   c0.1,0.2,0.1,0.2,0.2,0.3v0.1c0.1,0.2,0.2,0.4,0.3,0.6c0.2,0.3,0.4,0.6,0.6,0.9c0.1,0.1,0.2,0.2,0.2,0.3c0.2,0.3,0.5,0.5,0.8,0.8   c0.1,0.1,0.2,0.2,0.3,0.2c0.1,0.1,0.2,0.2,0.3,0.2c0.2,0.2,0.4,0.3,0.6,0.4c0.1,0.1,0.2,0.2,0.3,0.2c0.1,0.1,0.2,0.1,0.3,0.2   c0.1,0.1,0.2,0.1,0.3,0.2c0.1,0.1,0.2,0.1,0.3,0.2c0.1,0,0.1,0,0.2,0.1c0.2,0.1,0.4,0.2,0.5,0.2c0.2,0,0.2,0.1,0.4,0.1   s0.2,0.1,0.4,0.1s0.4,0.1,0.5,0.1h0.7c-4-0.1-7.3-3.4-7.6-7.3c0-2.8,1.5-5.2,3.8-6.5c0.1-0.1,0.2-0.1,0.2-0.2   c0.1,0,0.1-0.1,0.2-0.1v-0.1c0.1,0,0.1,0,0.2,0c0.9-0.4,1.9-0.6,2.9-0.6c1.1,0,2.3,0.3,3.3,0.8c0,0,0.1,0,0.1,0.1   c2.4,1.1,4.1,3.7,4.1,6.6c0,1.5-0.5,2.8-1.1,4c0.6-0.9,1-1.9,1.1-3c0-0.2,0.1-0.5,0.1-0.7c0-0.1,0-0.2,0-0.3   C183.2,468.7,183.2,468.6,183.2,468.4z M182,472.8c-0.2,0.2-0.2,0.4-0.4,0.5C181.7,473.2,181.8,473,182,472.8z M179,438.7v7h25.8   v-7H179z M194.9,329.4c-0.6-0.8-1-1.8-1.4-2.8c-1.2-2.1-1.8-4.4-1.8-6.7c0-6.6,3.9-14.2,8.3-20.7c0,0,0-0.1,0.1-0.1   c-1.5-3.2-5.2-9.6-11.5-12.2c-0.5,0.2-1.1,0.5-2.1,0.6c-0.7,0.1-2.4,0.4-4.6,0.6c-0.1,0-0.2,0-0.3,0c-0.5,0-0.8,0.1-1.3,0.1   c-0.3,0-0.7,0-1,0c-0.7,0-1.4,0-2.1,0c-0.4,0-0.7,0-1.1-0.1c-0.2,0-0.5,0-0.7-0.1c-7-0.5-15.3-3.4-18.5-13.3   c-1.8-5.7,0.9-11.4,5.1-16.2c0.2-0.2,0.5-0.5,0.7-0.8s0.5-0.5,0.8-0.8c0.2-0.2,0.5-0.5,0.8-0.8c0.5-0.5,1.1-1,1.6-1.5l0,0l0.1-0.1   h-0.2l-49.5-1.1h-1.8h-0.2l-0.1,0.1l0,0l-0.5,0.6l0,0l-0.2,0.2l0.8-0.6l0,0l0.1,0.2l63.1,85h27.3v-4.1   C200.1,333.5,196.5,331.7,194.9,329.4z M189.4,285.7c0,0,0,0.2-0.2,0.4h0.1c0.2,0,0.4,0,0.6,0c1.3-0.1,2.5-0.5,3.7-1.1   c0.2-0.1,0.4-0.2,0.6-0.3C191.5,285.5,189.4,285.7,189.4,285.7z M170.1,357.3h-0.3h-0.3l0.2,0.3l0.2-0.2L170.1,357.3L170.1,357.3   h0.2H170.1z"/>
		<path class="st0" d="M204.9,445.7v30.6h-29.1c4.1,0,7.4-3.4,7.4-7.4c0-2.9-1.7-5.5-4.1-6.7v-16.4L204.9,445.7L204.9,445.7z"/>
		<rect x="179" y="357.4" class="st0" width="25.8" height="81.3"/>
		<path class="st0" d="M194.3,284.8c-1.5,0.8-3.2,1.3-5,1.4c0.2-0.2,0.2-0.4,0.2-0.4S191.5,285.5,194.3,284.8z"/>
		<path class="st0" d="M220.2,338.2c0,0.3,0,0.6-0.1,0.9h-42.7l-63.2-85.2l0,0l-0.8,0.6l0.8-0.9h0.3l51.2,1.1   c-6.1,5.5-11.4,12.8-9,20.1c5.7,17.4,26.5,13.1,29.6,12.7c1-0.2,1.7-0.4,2.1-0.6l0,0c6.4,2.7,10.1,8.9,11.5,12.2   c-6,8.9-11.2,20-6.6,27.5l0,0c0.4,0.9,0.8,1.8,1.4,2.8c1.5,2.3,5.3,4.1,9.9,5.6C209.5,336.4,215.2,337.5,220.2,338.2z"/>
		<path class="st0" d="M231.2,277.8c-10.7,1.1-17.5,5.4-18.9,6.3c-1.9-1.6-4.5-3.9-6.8-5.9c-0.2,0.3-0.5,0.6-0.7,0.9v-6   c0.8-1.5,1.2-2.4,1.2-2.4c1.5-3.9-8.7-11.4-16.1-15.5l26.5,0.5L231.2,277.8z"/>
		<polygon class="st0" points="170.3,357.4 170.1,357.5 169.8,357.7 169.6,357.4  "/>
		<path class="st0" d="M220,345.2c-0.2,4.4-0.2,8.6-0.2,12.2h-46.9v-0.1h-2.1l-0.1,0.1h-0.5l-0.1-0.1h-57.5c-2.5,0-4.8-1-6.4-2.7   c-1.7-1.7-2.7-3.9-2.7-6.4c0-4.4,3.1-8,7.1-8.9c0.5-0.1,1.1-0.2,1.7-0.2h44l-28.9-38.8l-8.9-11.9v-0.7l-11.2-15.1   c-3.5-4.7-2.5-11.3,2.2-14.8l4.5-3.4l0,0l0.5-0.5l63.2,85.2h42.7C220.1,341.2,220,343.2,220,345.2z"/>
		<path class="st0" d="M106.7,272.7c-3.5-4.7-2.5-11.3,2.2-14.8l4.5-3.4l0,0l0.8-0.6l0,0l-0.5,0.5l0,0l-4.5,3.4   c-4.7,3.5-5.7,10.2-2.2,14.8l11.2,15.1v0.5l-0.4-0.5L106.7,272.7z"/>
		<path class="st0" d="M170,357.3L170,357.3l-57.9,0.1c-2.5,0-4.8-1-6.4-2.7c-1.7-1.7-2.7-3.9-2.7-6.4c0-4.4,3.2-8.2,7.4-8.9   c-4,0.9-7.1,4.5-7.1,8.9c0,2.5,1,4.8,2.7,6.4c1.7,1.7,3.9,2.7,6.4,2.7L170,357.3L170,357.3z"/>
		<rect x="172.4" y="357.3" class="st0" width="0.4" height="0.1"/>
		<polygon class="st0" points="172.4,357.3 172.4,357.4 170.6,357.4 170.7,357.3  "/>
		<path class="st0" d="M501.8,357.4h-4.2v-4.2C497.6,355.5,499.5,357.4,501.8,357.4z"/>
		<path class="st0" d="M509.8,357.4h-1.1v-0.2C508.9,357.3,509.4,357.4,509.8,357.4z"/>
		<path class="st0" d="M179,357.4v104.7c-1-0.5-2.1-0.8-3.3-0.8c-1.1,0-2,0.2-2.9,0.6V357.4H179z"/>
		<path class="st0" d="M179,462.1v0.2C179,462.3,178.9,462.3,179,462.1c-1.1-0.4-2.2-0.7-3.4-0.7c-1,0-2,0.2-2.9,0.6   c-0.1,0-0.1,0-0.2,0v0.1c-0.1,0-0.1,0.1-0.2,0.1V357.4h0.4V462c0.2-0.1,0.2-0.1,0.4-0.2c0.2,0,0.2-0.1,0.4-0.2   c0.2-0.1,0.5-0.2,0.7-0.2c0.2,0,0.5-0.1,0.8-0.2c0.2,0,0.5,0,0.8,0C176.8,461.4,178,461.7,179,462.1z"/>
		<path class="st0" d="M509.8,357.4h-1.1v-0.2C508.9,357.3,509.4,357.4,509.8,357.4z"/>
		<polygon class="st0" points="354,442.6 354.2,445.7 294.6,445.7 294.6,438.7 353.9,438.7 353.9,438.9  "/>
		<path class="st0" d="M404.3,442.5c0.2,1.1,0.5,2.1,0.7,3.2h-22.8c0.2-1.1,0.2-2.1,0.4-3.1c0.2-1.2,0.3-2.4,0.5-3.7   c0-0.1,0-0.1,0-0.2h20.4C403.8,440,404.1,441.3,404.3,442.5z"/>
		<polygon class="st0" points="508.7,438.7 508.7,445.7 428.1,445.7 427.9,442.3 427.6,438.7  "/>
		<rect x="172.4" y="438.7" class="st0" width="0.4" height="7"/>
		<rect x="179" y="438.7" class="st0" width="109" height="7"/>
		<rect x="515.2" y="438.7" class="st0" width="43" height="7"/>
		<path class="st0" d="M176,476.2L176,476.2c-4-0.1-7.4-3.4-7.6-7.3c0-2.8,1.5-5.2,3.8-6.5c0.1-0.1,0.2-0.1,0.2-0.2   c0.1,0,0.1-0.1,0.2-0.1v-0.1c-0.1,0-0.1,0.1-0.2,0.1h-0.1c-0.3,0.2-0.5,0.3-0.8,0.5c-0.2,0.1-0.3,0.2-0.4,0.3   c-1.8,1.3-2.9,3.5-2.9,5.9c0,0.8,0.2,1.8,0.5,2.5c0.1,0.1,0.1,0.2,0.2,0.3c0,0.1,0,0.1,0,0.1c0.1,0.2,0.2,0.5,0.3,0.6   c0.2,0.3,0.4,0.6,0.6,0.9c0.1,0.2,0.2,0.2,0.2,0.3c0.2,0.2,0.5,0.5,0.8,0.8c0.2,0.1,0.2,0.2,0.3,0.2c0.1,0.1,0.2,0.2,0.3,0.2   c0.2,0.2,0.4,0.2,0.6,0.4c0.1,0.1,0.2,0.1,0.3,0.2c0.1,0.1,0.2,0.1,0.3,0.2c0.1,0.1,0.2,0.1,0.3,0.2c0.1,0.1,0.2,0.2,0.3,0.2   c0.1,0.1,0.1,0.1,0.2,0.1c0.2,0.1,0.3,0.1,0.5,0.2c0.2,0,0.2,0.1,0.4,0.1s0.2,0.1,0.4,0.1c0.2,0.1,0.3,0.1,0.5,0.1h0.6   c0.1,0,0.2,0,0.3,0c1.6-0.1,3.1-0.7,4.2-1.6C179.1,475.6,177.6,476.1,176,476.2z"/>
		<path class="st0" d="M179,462.3C179,462.3,178.9,462.3,179,462.3c-1.1-0.5-2.2-0.8-3.4-0.8c-1,0-2,0.2-2.9,0.6c-0.1,0-0.1,0-0.2,0   v0.1c-0.1,0-0.1,0.1-0.2,0.1c-0.1,0.1-0.2,0.1-0.2,0.2c-2.3,1.3-3.8,3.7-3.8,6.5c0.2,3.9,3.6,7.3,7.6,7.3h0.1   c1.6-0.1,3.1-0.6,4.3-1.5c0.2-0.2,0.3-0.3,0.5-0.4c0.2-0.2,0.3-0.2,0.4-0.4c0.2-0.2,0.3-0.3,0.5-0.5c0.9-1.2,1.5-2.8,1.5-4.5   C183.1,465.9,181.4,463.4,179,462.3z M175.8,472.9c-2.4,0.1-4.1-1.8-4.1-4.1c0-0.9,0.3-1.7,0.8-2.4c0.8-1.1,2-1.8,3.4-1.8   c1.3,0,2.4,0.6,3.2,1.5c0.6,0.7,0.9,1.6,0.9,2.6C179.9,471.1,178.1,472.9,175.8,472.9z"/>
		<path class="st0" d="M179.9,468.8c0,2.3-1.8,4.1-4.1,4.1c-2.4,0.1-4.1-1.8-4.1-4.1c0-0.9,0.3-1.7,0.8-2.4c0.8-1.1,2-1.8,3.4-1.8   c1.3,0,2.4,0.6,3.2,1.5C179.6,466.9,179.9,467.8,179.9,468.8z"/>
		<path class="st0" d="M204.9,298.2c-1.7,1.5-3.1,2.6-3.9,2.9c0,0-0.2-0.8-0.8-2c-1.5-3.2-5.2-9.6-11.5-12.2c0.5-0.2,0.7-0.5,0.8-0.8   c1.8,0,3.4-0.5,5-1.4c3.4-0.9,7.9-2.6,10.5-5.6c0.2-0.3,0.5-0.6,0.7-0.9c2.3,2,4.9,4.3,6.8,5.9c1.1,1,2.1,1.8,2.4,2   C215.9,287,209.4,294.1,204.9,298.2z"/>
		<path class="st0" d="M253,280.1c-2.4,1.7-7.6,5.4-13.1,10.6l0,0c-6,5.7-12.2,13.1-15.2,21.1c-0.5,1.2-0.8,2.6-1.2,4.1   c0,0.1-0.1,0.2-0.1,0.3c0,0.1-0.1,0.2-0.1,0.3c-1.2,4.7-2.1,10.3-2.6,16.1c-0.2,1.9-0.3,3.8-0.5,5.7c-5-0.7-10.7-1.8-15.5-3.2   c-4.6-1.4-8.4-3.3-9.9-5.6c-0.6-0.8-1-1.8-1.4-2.8l0,0c-4.6-7.6,0.5-18.7,6.6-27.5c0.5,1.2,0.8,2,0.8,2c0.8-0.3,2.2-1.4,3.9-2.9   c4.7-4.1,11.2-11.2,9.9-12.1c-0.4-0.2-1.2-1-2.4-2c1.5-1,8.3-5.3,18.9-6.3c5.1-0.5,11.2-0.3,17.9,1.4   C250,279.4,251.3,279.7,253,280.1z"/>
		<polygon class="st0" points="127.2,300.3 127.2,339.1 118,339.1 118,287.8 118.4,288.3  "/>
		<path class="st0" d="M194.3,284.8c-1.5,0.8-3.2,1.3-5,1.4c0.2-0.2,0.2-0.4,0.2-0.4S191.5,285.5,194.3,284.8z"/>
		<path class="st0" d="M205.5,278.3c-0.2,0.3-0.5,0.6-0.7,0.9v-1.5C205.1,277.9,205.2,278.1,205.5,278.3z"/>
		<path class="st0" d="M205.5,278.3c-0.2,0.3-0.5,0.6-0.7,0.9v-1.5C205.1,277.9,205.2,278.1,205.5,278.3z"/>
		<g>
			<path class="st0" d="M206,270.8c0,0-0.5,0.9-1.2,2.4v6c-2.5,3-7,4.7-10.5,5.6c-2.7,0.8-4.8,1-4.8,1s-0.7-1.8-1.9-3.5    c-0.9-1.2-2.2-2.4-3.7-2.4c0,0-4,0.8-4.7-1.6c-0.6-2.4,2.3-1.7,2.9-2.8c0.5-1-0.8-4.1-2.9-6.3c-0.4-0.4-0.8-0.7-1.1-1    c-2.5-1.8,6.1-8,9.2-12.9l2.7,0.1C197.3,259.4,207.5,266.9,206,270.8z"/>
			<path class="st0" d="M190,255.2l-2.7-0.1c0.2-0.4,0.5-0.8,0.6-1.1C188.4,254.4,189.2,254.9,190,255.2z"/>
			<path class="st0" d="M194.3,284.8c-1.5,0.8-3.2,1.3-5,1.4c0.2-0.2,0.2-0.4,0.2-0.4S191.5,285.5,194.3,284.8z"/>
		</g>
		<g>
			<path class="st0" d="M189.4,285.7c0,0,0,0.2-0.2,0.4c-0.2,0.2-0.4,0.5-0.8,0.8l0,0c-0.5,0.2-1.1,0.5-2.1,0.6    c-3,0.4-23.9,4.7-29.6-12.7c-2.4-7.3,2.9-14.6,9-20.1l0.1-0.1c0.2-0.2,0.2-0.2,0.4-0.4c0.2-0.1,0.2-0.2,0.4-0.3    c5-4.4,10.3-7.6,12.2-8.7c7.4-4.6,10.6,2.9,9.2,8c-0.1,0.3-0.2,0.5-0.3,0.8c-0.2,0.4-0.4,0.7-0.6,1.1c-3.1,5-11.7,11.1-9.2,12.9    c0.4,0.3,0.8,0.6,1.1,1c2.1,2.2,3.5,5.4,2.9,6.3c-0.7,1.1-3.5,0.4-2.9,2.8c0.6,2.4,4.7,1.6,4.7,1.6c1.5,0.2,2.8,1.2,3.7,2.4    C188.8,283.9,189.4,285.7,189.4,285.7z"/>
		</g>
		<path class="st0" d="M508.7,357.2v0.2H502c-2.3,0-4.2-1.9-4.2-4.2v-64.5c0-2.3,1.9-4.2,4.2-4.2h7.9c-2.3,0-4.2,1.9-4.2,4.2v64.5   C505.5,355.1,506.9,356.7,508.7,357.2z"/>
		<path class="st0" d="M509.8,357.4h-1.1v-0.2C508.9,357.3,509.4,357.4,509.8,357.4z"/>
		<path class="st0" d="M559,353c0,2.4-1.9,4.3-4.3,4.3h-44.9c-0.4,0-0.8-0.1-1.1-0.2c-1.8-0.5-3.1-2.1-3.1-4.1v-64.5   c0-2.3,1.9-4.2,4.2-4.2h44.8c2.4,0,4.3,1.9,4.3,4.3L559,353z"/>
		<path class="st0" d="M288.1,368.5v70.3h-83.3v-81.3h14.9c0,6.3,0.2,10.6,0.2,10.6s33.3,2.1,68,0.5   C288.1,368.5,288.1,368.5,288.1,368.5z"/>
		<path class="st0" d="M361.6,293.3c0,0.4-0.1,0.8-0.1,1.1c-0.4,3.4-0.8,6.9-1.1,10.4c0,0.1,0,0.2,0,0.2c-0.4,3.4-0.7,7-1.1,10.6   c-0.2,1.4-0.3,2.8-0.4,4.1l0,0c0.2,0,0.4,0,0.5,0.1v0.2l-1.1,14l-0.2,1.6l-0.5,6.4l-1.6,19.8l-0.5,6.4h-0.1   c-24.7-0.8-47-1.1-59.6-0.2c-0.4,0-0.7,0.1-1,0.1h-0.1c-2.1,0.2-4.4,0.2-6.5,0.4c0,0,0,0-0.1,0c-25.4,1.2-50,0.4-61.4-0.1   c-0.2,0-0.4,0-0.6,0c-0.6,0-1.2-0.1-1.8-0.1c-0.5,0-0.9-0.1-1.3-0.1c-0.2,0-0.5,0-0.6,0c-0.2,0-0.3,0-0.4,0c-0.3,0-0.6,0-0.8-0.1   c-0.1,0-0.1,0-0.2,0c-0.1,0-0.2,0-0.3,0c-0.1,0-0.2,0-0.2,0c-0.1,0-0.2,0-0.2,0c-0.1,0-0.1,0-0.2,0c-0.1,0-0.1,0-0.1,0   s-0.2-4.3-0.2-10.6c0-3.5,0-7.7,0.2-12.2c0.1-2,0.2-4.1,0.3-6.1c0-0.3,0-0.6,0.1-0.9l0.5-5.7c0.1-0.7,0.2-1.5,0.2-2.1   c0.5-4.6,1.2-9,2.1-13c0.1-0.3,0.2-0.6,0.2-0.9c0-0.1,0.1-0.2,0.1-0.3c0-0.1,0.1-0.2,0.1-0.2v-0.1c0.1-0.4,0.2-0.7,0.3-1.1   c0.3-1.1,0.6-2,0.9-3c0.2-0.5,0.4-1,0.6-1.5c3-7,8.2-13.4,13.5-18.5c0.4-0.4,0.8-0.8,1.1-1.1c2.7-2.6,5.3-4.7,7.6-6.6   c2.3-1.8,4.2-3.1,5.4-4c0.9-0.6,1.4-0.9,1.4-0.9c25.6,0.5,70.9,9.6,107,14.1h0.1C361.5,293.3,361.5,293.3,361.6,293.3z"/>
		<path class="st0" d="M410.7,330.2c0.1-0.2,0.1-0.2,0.2-0.4c-0.1,0.2-0.1,0.3-0.2,0.5c-0.2,0.6-0.4,1.1-0.6,1.8   c-0.2,0.7-0.5,1.3-0.7,2c-0.2,0.5-0.4,1.1-0.5,1.6c0,0.1-0.1,0.2-0.1,0.2c-0.2,0.6-0.5,1.3-0.7,1.9c-0.1,0.3-0.2,0.7-0.3,1   c-0.2,0.3-0.2,0.7-0.3,1c-0.2,0.8-0.5,1.5-0.8,2.3c-0.1,0.2-0.2,0.5-0.2,0.8c-0.2,0.6-0.4,1.2-0.6,1.8c-0.3,1-0.6,1.9-0.9,2.9   c-0.2,0.5-0.3,1-0.5,1.5c0,0.2-0.1,0.2-0.2,0.4c-0.2,0.5-0.4,1.1-0.5,1.7c0,0.1,0,0.1-0.1,0.2c-0.2,0.6-0.4,1.2-0.6,1.9   c-1.1,3.6-2.4,7.3-3.5,10.9c-0.3,1-0.7,2.1-1,3.1c-0.3,0.9-0.6,1.8-0.8,2.6c-0.1,0-0.1,0-0.2,0c0.3-0.9,0.5-1.8,0.9-2.8   c0.3-1,0.6-2,1-3.1c1.1-3.6,2.4-7.3,3.5-10.9c0.2-0.6,0.4-1.3,0.6-1.9c0-0.1,0-0.1,0.1-0.2c0.2-0.5,0.4-1.1,0.5-1.7   c0.1-0.2,0.1-0.2,0.2-0.4c0.2-0.5,0.3-1,0.5-1.5c0.3-1,0.6-1.9,1-2.9c0.2-0.6,0.4-1.2,0.6-1.8c0.1-0.2,0.2-0.5,0.2-0.8   c0.2-0.8,0.5-1.5,0.8-2.3c0.1-0.3,0.2-0.7,0.3-1c0.1-0.3,0.2-0.7,0.3-1c0.2-0.6,0.5-1.3,0.7-1.9c0-0.1,0.1-0.2,0.1-0.2   c0.2-0.5,0.4-1.1,0.5-1.6c0.2-0.7,0.5-1.3,0.7-2C410.3,331.3,410.5,330.8,410.7,330.2z"/>
		<path class="st0" d="M411.8,326.6c0.1-0.2,0.2-0.3,0.2-0.5c-0.1,0.2-0.2,0.5-0.2,0.7c-0.2,0.5-0.4,1.1-0.5,1.7   c-0.1,0.2-0.1,0.2-0.2,0.4c0.1-0.2,0.1-0.3,0.2-0.5C411.5,327.7,411.7,327.1,411.8,326.6z"/>
		<path class="st0" d="M359.4,320c0.1,0,0.1,0,0.2,0l-1.1,14.1l-0.2,1.6l-0.5,6.4l-1.6,19.8l-0.5,6.3c-0.1,0-0.1,0-0.2,0h-0.1   l0.5-6.4l1.6-19.8l0.5-6.4l0.2-1.6L359.4,320l-0.1-0.2c-0.2,0-0.3,0-0.5-0.1h-0.1c0.2-1.4,0.3-2.8,0.4-4.1   c0.8-7.3,1.5-14.4,2.1-21.3c0-0.4,0.1-0.8,0.1-1.1v-0.1h0.1c0,0,0,0,0,0.1c0.1,0,0.1,0,0.2,0c0,0.4-0.1,0.8-0.1,1.1   c-0.4,3.4-0.8,6.9-1.1,10.4c0,0.1,0,0.2,0,0.2c-0.4,3.5-0.7,7.1-1.1,10.7c-0.1,1.3-0.2,2.7-0.4,4c0.2,0,0.4,0,0.5,0.1L359.4,320   C359.4,320,359.4,320,359.4,320z"/>
		<path class="st0" d="M359.5,320c0.7,0.1,1.4,0.1,2.1,0.2c-0.1,0-0.2,0-0.2,0C360.8,320.1,360.1,320.1,359.5,320L359.5,320z"/>
		<path class="st0" d="M365.2,320.4c0.2,0,0.4,0,0.5,0.1c-0.2,0-0.5,0-0.7-0.1c-0.8-0.1-1.5-0.1-2.2-0.2c-0.4,0-0.8-0.1-1.2-0.1   c0.1,0,0.2,0,0.2,0c0.4,0,0.8,0.1,1.2,0.1C363.6,320.3,364.4,320.3,365.2,320.4z"/>
		<path class="st0" d="M365.9,320.5c0.6,0,1.3,0.1,2,0.1C367.2,320.5,366.5,320.5,365.9,320.5z"/>
		<path class="st0" d="M370.7,320.7c0.4,0,0.8,0,1.1,0.1h-0.2c-0.4,0-0.8-0.1-1.1-0.1c-0.5,0-1-0.1-1.5-0.1c-0.4,0-0.8,0-1.1-0.1h0.2   c0.4,0,0.8,0.1,1.1,0.1C369.7,320.6,370.1,320.7,370.7,320.7z"/>
		<path class="st0" d="M372.7,320.8c2.1,0.1,4.4,0.2,6.7,0.2h-0.2c-2.4-0.1-4.6-0.2-6.7-0.2H372.7z"/>
		<path class="st0" d="M381.5,321c1.1,0,2.3,0,3.5,0.1h-0.2c-1.2,0-2.4,0-3.5-0.1H381.5z"/>
		<path class="st0" d="M426.4,319.2c0,0.1,0,0.2,0,0.2c-4.3,0.4-8.5,0.7-12.4,0.9l0,0c-0.1,0.2-0.2,0.5-0.2,0.7   c-0.2,0.5-0.4,1-0.5,1.5c-0.2,0.5-0.4,1.1-0.5,1.6c-0.1,0.2-0.2,0.4-0.2,0.6c0.1-0.3,0.2-0.5,0.2-0.8c0.2-0.5,0.4-1.1,0.5-1.6   c0.2-0.5,0.4-1.1,0.5-1.5c0.1-0.2,0.1-0.4,0.2-0.5c-7.4,0.5-14.4,0.7-20.8,0.8c6.4-0.2,13.5-0.5,20.9-0.8c0-0.1,0-0.1,0.1-0.2   C418,319.8,422.1,319.5,426.4,319.2z"/>
		<path class="st0" d="M497.6,301v67.4c0,0-5.4,1.8-24.1,3.3c-6.5,0.5-25.4-0.2-48.9-1c0.2-9.1,0.3-19.6,0.6-28.9   c0.1-2.2,0.2-4.4,0.2-6.4c0-0.5,0.1-1.1,0.1-1.6c0.2-5.9,0.5-11,0.9-14.4l0,0c0.7,0,1.4-0.1,2.1-0.2c-0.1-1.1-0.1-2.3-0.1-3.4   c-0.1-6.1-0.2-12-0.2-17.4v-0.2C463.5,300,497.6,301,497.6,301z"/>
		<line class="st0" x1="558.1" y1="438.7" x2="558.1" y2="355.6"/>
		<path class="st0" d="M317.7,274.1c-0.2,0.1-0.5,0.2-0.7,0.2c0-0.1,0.1-0.1,0.1-0.2C317.2,274.1,317.4,274.1,317.7,274.1z"/>
		<path class="st0" d="M328.8,282.2l-28.9,1.9C310.5,283.1,321,282.3,328.8,282.2z"/>
		<polygon class="st0" points="328.8,282.2 328.8,282.2 328.8,282  "/>
		<polygon class="st0" points="328.8,282.2 328.8,282.2 328.8,282  "/>
		<g>
			<path class="st0" d="M328.8,282.2c-7.8,0.2-18.3,0.9-28.9,1.9h-0.2c0,0-0.4-0.1,5.3-4.6c2.5-2,7.4-3.8,12.1-5.2    c0.2-0.1,0.5-0.2,0.7-0.2c0.1,0,0.2-0.1,0.3-0.1c0.3-0.1,0.6-0.2,0.9-0.2c2.7-0.8,5.2-1.4,6.9-1.8l0.5,1.8l0.4,1.2L328.8,282.2    L328.8,282.2z"/>
			<path class="st0" d="M328.8,282.2l-28.9,1.9C310.5,283.1,321,282.3,328.8,282.2z"/>
			<path class="st1" d="M443.8,185.1c-0.2-0.2-0.4-0.4-0.5-0.5c-4-3.7-13-5.2-13-5.2s-2.5-0.3-6.3-0.7s-8.9-0.8-14-1.1    c-5.3-0.3-11-0.4-15,0.3c0,0,0,0,0.1,0c5.3,1.5,10.2,6.3,10.6,12.7c0.4,6.7-2.2,15.9-5.5,24.8l-15.7,45.6c-1.3,3.7-4.3,6.7-8,7.9    l-7.2,2.3l-5.7,1.8h-0.1c-0.6,6.1-1.4,13-2.1,20.3c0,0,0,0,0,0.1c0.1,0,0.1,0,0.2,0c0,0.4-0.1,0.8-0.1,1.1    c-0.4,3.4-0.8,6.9-1.1,10.4c0,0.1,0,0.2,0,0.2c-0.4,3.5-0.7,7.1-1.1,10.7c-0.1,1.3-0.2,2.7-0.4,4c0.2,0,0.4,0,0.5,0.1v0.2l0,0    c0.1,0,0.1,0,0.2,0l0,0c0.7,0.1,1.4,0.1,2.1,0.2c0.1,0,0.2,0,0.2,0c0.4,0,0.8,0.1,1.2,0.1c0.7,0.1,1.5,0.1,2.2,0.2    c0.2,0,0.4,0,0.5,0.1c0.1,0,0.1,0,0.2,0c0.6,0,1.3,0.1,2,0.1h0.1h0.2c0.4,0,0.8,0.1,1.1,0.1c0.5,0,0.9,0.1,1.5,0.1    c0.4,0,0.8,0,1.1,0.1h0.9c2.1,0.1,4.4,0.2,6.7,0.2h2.1c1.1,0,2.3,0,3.5,0.1h7.9c0,0,0.1,0,0.2,0c6.4-0.2,13.5-0.5,20.9-0.8    c0-0.1,0-0.1,0.1-0.2c4-0.2,8.2-0.5,12.4-0.9c0,0.1,0,0.2,0,0.2l0,0c0.7,0,1.4-0.1,2.1-0.2c-0.1-1.1-0.1-2.3-0.1-3.4    c-0.1-6.1-0.2-12-0.2-17.4v-0.2c0-3.4-0.1-6.7-0.1-9.6c-0.1-11.3-0.1-19.9,0.2-23.4c0.6-4.4,1.1-8.1,1.7-11.9    c0.1-0.5,0.2-0.9,0.3-1.3c1.4-1.8,2.8-3.7,4-5.6c0.7-0.2,17.1-25.8,17.3-46.3v-0.2C451.5,194.6,448.5,188.8,443.8,185.1z     M381.7,276.7c0.5-0.2,1-0.3,1.6-0.5c0.5-0.2,1.1-0.5,1.8-0.8c1.2-0.6,2.4-1.4,3.7-2.3c1.2-1,2.2-2.1,3.1-3.1    c0.4-0.5,0.8-1.1,1.1-1.5c0.3-0.5,0.6-1,0.8-1.5c0.9-1.8,1.1-3,1.3-3c0,0-0.1,0.3-0.2,0.8c-0.1,0.3-0.2,0.6-0.3,1    c-0.2,0.4-0.3,0.8-0.5,1.3c-0.2,0.5-0.5,1-0.8,1.5c-0.3,0.5-0.7,1.1-1.1,1.6c-0.8,1.1-1.8,2.1-3.1,3.1c-1.2,1-2.5,1.8-3.7,2.4    c-0.6,0.3-1.2,0.5-1.8,0.7c-0.5,0.2-1.1,0.4-1.6,0.5c-0.5,0.2-1,0.2-1.4,0.2c-0.4,0.1-0.8,0.1-1.1,0.2c-0.5,0-0.9,0.1-0.9,0    C378.5,277.3,379.8,277.3,381.7,276.7z"/>
			<path class="st1" d="M358.8,319.8c0.2,0,0.4,0,0.5,0.1v0.2h-0.1c-0.2,0-0.3,0-0.5-0.1C358.8,319.9,358.8,319.8,358.8,319.8    L358.8,319.8z"/>
			<path class="st1" d="M359.5,320c0.7,0.1,1.4,0.1,2.1,0.2c-0.1,0-0.2,0-0.2,0C360.8,320.1,360.1,320.1,359.5,320L359.5,320z"/>
			<path class="st1" d="M361.5,294.5c-0.4,3.4-0.8,6.9-1.1,10.4c0.4-3.5,0.7-7,1-10.3c0-0.4,0.1-0.8,0.1-1.1v-0.1c0.1,0,0.1,0,0.2,0    C361.6,293.7,361.5,294.1,361.5,294.5z"/>
			<path class="st1" d="M365.2,320.4c0.2,0,0.4,0,0.5,0.1c-0.2,0-0.5,0-0.7-0.1c-0.8-0.1-1.5-0.1-2.2-0.2c-0.4,0-0.8-0.1-1.2-0.1    c0.1,0,0.2,0,0.2,0c0.4,0,0.8,0.1,1.2,0.1C363.6,320.3,364.4,320.3,365.2,320.4z"/>
			<path class="st1" d="M370.7,320.7c0.4,0,0.8,0,1.1,0.1h-0.2c-0.4,0-0.8-0.1-1.1-0.1c-0.5,0-1-0.1-1.5-0.1c-0.4,0-0.8,0-1.1-0.1    h0.2c0.4,0,0.8,0.1,1.1,0.1C369.7,320.6,370.1,320.7,370.7,320.7z"/>
			<path class="st1" d="M372.7,320.8c2.1,0.1,4.4,0.2,6.7,0.2h-0.2c-2.4-0.1-4.6-0.2-6.7-0.2H372.7z"/>
			<path class="st1" d="M381.5,321c1.1,0,2.3,0,3.5,0.1h-0.2c-1.2,0-2.4,0-3.5-0.1H381.5z"/>
			<path class="st1" d="M393.1,268.7c-0.3,0.5-0.7,1.1-1.1,1.6c-0.8,1.1-1.8,2.1-3.1,3.1c-1.2,1-2.5,1.8-3.7,2.4    c-0.6,0.3-1.2,0.5-1.8,0.7c-0.5,0.2-1.1,0.4-1.6,0.5c-0.5,0.2-1,0.2-1.4,0.2c-0.4,0.1-0.8,0.1-1.1,0.2c-0.5,0-0.9,0.1-0.9,0    c0-0.1,1.3-0.1,3.2-0.6c0.5-0.2,1-0.3,1.6-0.5c0.5-0.2,1.1-0.5,1.8-0.8c1.2-0.6,2.4-1.4,3.7-2.3c1.2-1,2.2-2.1,3.1-3.1    c0.4-0.5,0.8-1.1,1.1-1.5c0.3-0.5,0.6-1,0.8-1.5c0.9-1.8,1.1-3,1.3-3c0,0-0.1,0.3-0.2,0.8c-0.1,0.3-0.2,0.6-0.3,1    c-0.2,0.4-0.3,0.8-0.5,1.3C393.7,267.7,393.5,268.2,393.1,268.7z"/>
			<path class="st1" d="M363.6,272.9L363.6,272.9L363.6,272.9l5.7-1.8l7.2-2.3c3.7-1.2,6.7-4.1,8-7.9l15.7-45.6    c3.3-8.9,5.8-18.1,5.4-24.8c-0.4-6.3-5.2-11.2-10.6-12.7h0.1c0,0,0,0,0.1,0c5.3,1.5,10.2,6.3,10.6,12.7c0.4,6.7-2.2,15.9-5.5,24.8    l-15.7,45.6c-1.3,3.7-4.3,6.7-8,7.9l-7.2,2.3L363.6,272.9z"/>
			<path class="st1" d="M426.4,319.2c0,0.1,0,0.2,0,0.2c-4.3,0.4-8.5,0.7-12.4,0.9l0,0c0,0,0,0-0.1,0c-7.4,0.5-14.4,0.7-20.8,0.8    c6.4-0.2,13.5-0.5,20.9-0.8c0-0.1,0-0.1,0.1-0.2C418,319.8,422.1,319.5,426.4,319.2z"/>
			<path class="st0" d="M375.2,504.5c-2.4-0.5-6.4,2.8-9.5,2.4c-3.3-0.5-9.6-2.2-9.6-2.2c-0.2,0.1-0.5,0.2-0.8,0.2    c0.1-0.1,0.2-0.2,0.4-0.2c0.5-0.2,3.4-2,3.6-3.9c0.2-1.8,0.5-4.7,0.8-6.7c0-0.1,0-0.1,0-0.2l14.7,0.4c0,0.1,0,0.1,0,0.2    C374.8,497.9,375.2,503.3,375.2,504.5z"/>
			<path class="st0" d="M378,515.6c0,0-34.1,2.8-43.8-0.1c-3.7-1.1,8.3-6.5,21.1-10.6c0.2-0.1,0.5-0.2,0.8-0.2c0,0,6.3,1.8,9.6,2.2    c3.1,0.4,7.2-2.9,9.5-2.4c0.1,0,0.2,0.1,0.3,0.1C378.1,505.7,378,515.6,378,515.6z"/>
			<path class="st0" d="M430,491.7L430,491.7l-9.2,0.2l-5,0.1h-0.1c0-0.2,0-0.3,0-0.3l4.7-0.1l9.5-0.2v0.1    C429.9,491.6,429.9,491.6,430,491.7z"/>
			<path class="st0" d="M433.3,515.6c0,0-34.3,3.3-44-0.1c-9.1-3.1,2.2-4.7,20.7-10.5c0.4-0.1,0.8-0.2,1.1-0.4    c0.4-0.2,1.5-1.1,2.4-2.1c1-1,1.9-2.1,2-3.1c0.2-1.3,0.2-2.9,0.2-4.4V492h0.2l5-0.1l9.2-0.2c0.1,1.5,0.7,11.5,0.8,12.8    c1.1,0.5,1.8,2.8,2.1,5C433.3,512.6,433.3,515.6,433.3,515.6z"/>
			<path class="st0" d="M416.3,158.8L416.3,158.8C416.3,158.8,416.3,158.8,416.3,158.8C416.3,158.8,416.3,158.8,416.3,158.8z"/>
			<path class="st0" d="M412.2,166.9c-0.1,0.9-0.2,1.8-0.3,2.7l0,0C412.1,168.6,412.2,167.7,412.2,166.9L412.2,166.9z"/>
			<path class="st0" d="M430.5,179.3c0,0-10.2-1.3-20.3-1.8l0,0l0.1-0.2v-0.1c0.3-1.1,1.1-4.3,1.7-7.6c0.2-0.8,0.2-1.8,0.3-2.7l0,0    c-2.4-0.1-4.4-0.6-5.9-1.8c2.5,0.1,5.3-2.7,5.8-3.1l0,0v-0.1l0,0l0,0l0,0l1-2.1l0,0l3.8-8c-0.5,2.6-0.8,5.2-0.8,7.3c0,0,0,0-0.1,0    c0,0,0,0,0.1,0c0.1,1.6,0.3,2.9,1,3.7c0.8,0.9,2.1,1.8,3.6,2.6c0.8,0.5,1.8,0.9,2.7,1.4c2.7,1.3,5.2,2.1,5.2,2.1L430.5,179.3z"/>
			<path class="st0" d="M418.7,142.3c-0.2,2.3-0.9,5.4-1.5,8.3l-0.3-0.3l-4.9,10.4c-0.8-3.7-1.9-14.8-1.9-14.8l-6.4-1.2    c0.9-5.7,2.9-11.1,6.1-14.4h0.1c1.7,0,3.6,0.7,5.3,1.5C415.1,131.8,419.3,136.2,418.7,142.3z"/>
			<path class="st0" d="M416.3,158.8L416.3,158.8C416.3,158.8,416.3,158.8,416.3,158.8C416.3,158.8,416.3,158.8,416.3,158.8z"/>
			<path class="st0" d="M412.2,161.7C412.2,161.7,412.2,161.8,412.2,161.7L412.2,161.7L412.2,161.7L412.2,161.7z"/>
			<path class="st2" d="M430,491.7c0-0.2,0-0.2,0-0.2h-0.1v-0.1l-9.5,0.2l-4.7,0.1c0,0,0,0.1,0,0.3h-0.1v0.1h-0.9    c0,0-0.1-0.4-0.2-1.1c-0.2-1.2-0.7-3.4-1.3-6.3c-1.5-7-3.8-18-6.3-29.9c-0.6-3-1.3-6.1-1.9-9.2c-0.2-1.1-0.5-2.1-0.7-3.2    c-0.2-1.2-0.5-2.5-0.8-3.7c-4.3-20.3-8.2-38.7-8.6-40v-0.1c-0.1-0.9-0.7-7-1.5-15c0-0.2,0.1-0.2,0.1-0.4c0.2-0.5,0.4-1.1,0.5-1.8    c0.2-0.4,0.3-0.8,0.4-1.1c0.1-0.3,0.2-0.7,0.3-1c0.4-1.1,0.7-2.2,1.1-3.4c0-0.1,0.1-0.2,0.1-0.2c0.2-0.5,0.3-1,0.5-1.5    c0-0.2,0.1-0.2,0.1-0.3c0.2-0.5,0.3-1.1,0.5-1.8c0-0.1,0.1-0.2,0.1-0.3c0.2-0.6,0.4-1.1,0.5-1.8v-0.1c0-0.2,0.1-0.2,0.1-0.4v-0.1    c0.2-0.8,0.5-1.7,0.8-2.6c0.3-1,0.7-2.1,1-3.1c1.1-3.6,2.4-7.3,3.5-10.9c0.2-0.7,0.4-1.3,0.6-1.9c0.1-0.1,0.1-0.1,0.1-0.2    c0.2-0.5,0.4-1.1,0.5-1.7c0.1-0.2,0.2-0.2,0.2-0.4c0.2-0.5,0.3-1,0.5-1.5c0.3-1,0.6-1.9,0.9-2.9c0.2-0.6,0.4-1.2,0.6-1.8    c0.1-0.2,0.2-0.5,0.2-0.8c0.2-0.8,0.5-1.5,0.8-2.3c0.1-0.3,0.2-0.7,0.3-1c0.1-0.3,0.2-0.7,0.3-1c0.2-0.6,0.5-1.3,0.7-1.9    c0-0.1,0.1-0.2,0.1-0.2c0.2-0.5,0.4-1.1,0.5-1.6c0.2-0.7,0.5-1.3,0.7-2c0.2-0.6,0.4-1.1,0.6-1.8c0.1-0.2,0.1-0.3,0.2-0.5l0,0    c0.2-0.3,0.2-0.7,0.3-1l0,0c0.1-0.2,0.1-0.2,0.2-0.4c0.2-0.5,0.4-1.1,0.5-1.7c0.1-0.2,0.2-0.5,0.2-0.7l0,0    c0.2-0.5,0.3-0.8,0.5-1.3l0,0c0.1-0.2,0.2-0.4,0.2-0.6c0.2-0.5,0.4-1.1,0.5-1.6c0.2-0.5,0.4-1,0.5-1.5c0.1-0.2,0.2-0.5,0.2-0.7    l0,0c4-0.2,8.2-0.5,12.4-0.9c-0.4,3.4-0.7,8.6-0.9,14.4c0,0.5-0.1,1.1-0.1,1.6c-0.1,2.1-0.2,4.2-0.2,6.4    c-0.3,9.3-0.5,19.8-0.6,28.9c0,0.2,0,0.4,0,0.6c-0.2,13.6-0.2,24.2-0.2,24.2l3.2,43.1l0.2,3.5l0.2,3.4l0.7,8.9l2.7,36.8l0.2,0.3    H430z"/>
			<path class="st0" d="M410.7,330.2c0.1-0.2,0.1-0.2,0.2-0.4c-0.1,0.2-0.1,0.3-0.2,0.5c-0.2,0.6-0.4,1.1-0.6,1.8    c-0.2,0.7-0.5,1.3-0.7,2c-0.2,0.5-0.4,1.1-0.5,1.6c0,0.1-0.1,0.2-0.1,0.2c-0.2,0.6-0.5,1.3-0.7,1.9c-0.1,0.3-0.2,0.7-0.3,1    c-0.2,0.3-0.2,0.7-0.3,1c-0.2,0.8-0.5,1.5-0.8,2.3c-0.1,0.2-0.2,0.5-0.2,0.8c-0.2,0.6-0.4,1.2-0.6,1.8c-0.3,1-0.6,1.9-0.9,2.9    c-0.2,0.5-0.3,1-0.5,1.5c0,0.2-0.1,0.2-0.2,0.4c-0.2,0.5-0.4,1.1-0.5,1.7c0,0.1,0,0.1-0.1,0.2c-0.2,0.6-0.4,1.2-0.6,1.9    c-1.1,3.6-2.4,7.3-3.5,10.9c-0.3,1-0.7,2.1-1,3.1c-0.3,0.9-0.6,1.8-0.8,2.6v0.1c0,0.2-0.1,0.2-0.1,0.4v0.1    c-0.2,0.6-0.4,1.1-0.5,1.8c0,0.1-0.1,0.2-0.1,0.3c-0.2,0.6-0.4,1.2-0.5,1.8c0,0.1-0.1,0.2-0.1,0.3c-0.2,0.5-0.3,0.9-0.5,1.5    c0,0.1-0.1,0.2-0.1,0.2c-0.4,1.1-0.7,2.2-1.1,3.4c-0.1,0.3-0.2,0.7-0.3,1c-0.1,0.4-0.2,0.8-0.4,1.1c-0.2,0.6-0.4,1.2-0.5,1.8    c0,0.2-0.1,0.2-0.1,0.4c0-0.2,0-0.3-0.1-0.5c0.2-0.6,0.4-1.1,0.5-1.8c0.2-0.4,0.2-0.8,0.4-1.1c0.1-0.3,0.2-0.6,0.3-1    c0.3-1.1,0.7-2.2,1.1-3.4c0-0.1,0.1-0.2,0.1-0.3c0.2-0.5,0.3-0.9,0.5-1.5c0-0.1,0.1-0.2,0.1-0.3c0.2-0.6,0.4-1.1,0.5-1.8    c0-0.1,0.1-0.2,0.1-0.3c0.2-0.6,0.4-1.1,0.5-1.8V370c0-0.1,0.1-0.2,0.1-0.3c0.3-0.9,0.5-1.8,0.9-2.8c0.3-1,0.6-2,1-3.1    c1.1-3.6,2.4-7.3,3.5-10.9c0.2-0.6,0.4-1.3,0.6-1.9c0-0.1,0-0.1,0.1-0.2c0.2-0.5,0.4-1.1,0.5-1.7c0.1-0.2,0.1-0.2,0.2-0.4    c0.2-0.5,0.3-1,0.5-1.5c0.3-1,0.6-1.9,1-2.9c0.2-0.6,0.4-1.2,0.6-1.8c0.1-0.2,0.2-0.5,0.2-0.8c0.2-0.8,0.5-1.5,0.8-2.3    c0.1-0.3,0.2-0.7,0.3-1c0.1-0.3,0.2-0.7,0.3-1c0.2-0.6,0.5-1.3,0.7-1.9c0-0.1,0.1-0.2,0.1-0.2c0.2-0.5,0.4-1.1,0.5-1.6    c0.2-0.7,0.5-1.3,0.7-2C410.3,331.3,410.5,330.8,410.7,330.2z"/>
			<path class="st0" d="M411.8,326.6c0.1-0.2,0.2-0.3,0.2-0.5c-0.1,0.2-0.2,0.5-0.2,0.7c-0.2,0.5-0.4,1.1-0.5,1.7    c-0.1,0.2-0.1,0.2-0.2,0.4c0.1-0.2,0.1-0.3,0.2-0.5C411.5,327.7,411.7,327.1,411.8,326.6z"/>
			<path class="st0" d="M426.4,319.2c0,0.1,0,0.2,0,0.2c-4.3,0.4-8.5,0.7-12.4,0.9l0,0c-0.1,0.2-0.2,0.5-0.2,0.7    c-0.2,0.5-0.4,1-0.5,1.5c-0.2,0.5-0.4,1.1-0.5,1.6c-0.1,0.2-0.2,0.4-0.2,0.6c0.1-0.3,0.2-0.5,0.2-0.8c0.2-0.5,0.4-1.1,0.5-1.6    c0.2-0.5,0.4-1.1,0.5-1.5c0.1-0.2,0.1-0.4,0.2-0.5v-0.1c0-0.1,0-0.1,0.1-0.2C418,319.8,422.1,319.5,426.4,319.2z"/>
			<path class="st0" d="M429.9,491.6l-9.4,0.2l-4.7,0.1c0,0,0,0.1,0,0.2v0.1h-0.2V492h0.1c0-0.2,0-0.3,0-0.3l4.7-0.1L429.9,491.6    C429.9,491.5,429.9,491.6,429.9,491.6z"/>
			<path class="st0" d="M430,491.7L430,491.7l-9.2,0.2l-5,0.1h-0.1c0-0.2,0-0.3,0-0.3l4.7-0.1l9.5-0.2v0.1    C429.9,491.6,429.9,491.6,430,491.7z"/>
			<path class="st2" d="M413.9,320.3c-0.1,0.2-0.1,0.4-0.2,0.5c-0.2,0.5-0.4,1-0.5,1.5c-0.2,0.5-0.4,1.1-0.5,1.6    c-0.1,0.2-0.2,0.5-0.2,0.8l0,0c-0.2,0.4-0.3,0.8-0.5,1.3l0,0c-0.1,0.2-0.2,0.3-0.2,0.5c-0.2,0.5-0.4,1.1-0.5,1.7    c-0.1,0.2-0.1,0.3-0.2,0.5l0,0c-0.2,0.3-0.2,0.7-0.3,1l0,0c-0.1,0.2-0.1,0.2-0.2,0.4c-0.2,0.6-0.4,1.1-0.6,1.8    c-0.2,0.7-0.5,1.3-0.7,2c-0.2,0.5-0.4,1.1-0.5,1.6c0,0.1-0.1,0.2-0.1,0.2c-0.2,0.6-0.5,1.3-0.7,1.9c-0.1,0.3-0.2,0.7-0.3,1    c-0.1,0.3-0.2,0.7-0.3,1c-0.2,0.8-0.5,1.5-0.8,2.3c-0.1,0.2-0.2,0.5-0.2,0.8c-0.2,0.6-0.4,1.2-0.6,1.8c-0.4,1-0.7,1.9-1,2.9    c-0.2,0.5-0.3,1-0.5,1.5c-0.1,0.2-0.1,0.2-0.2,0.4c-0.2,0.5-0.4,1.1-0.5,1.7c-0.1,0.1-0.1,0.1-0.1,0.2c-0.2,0.6-0.4,1.3-0.6,1.9    c-1.1,3.6-2.4,7.3-3.5,10.9c-0.4,1.1-0.7,2.1-1,3.1c-0.4,0.9-0.6,1.8-0.9,2.8c0,0.1-0.1,0.2-0.1,0.3v0.1c-0.2,0.6-0.4,1.1-0.5,1.8    c0,0.1-0.1,0.2-0.1,0.3c-0.2,0.6-0.4,1.1-0.5,1.8c0,0.2-0.1,0.2-0.1,0.3c-0.2,0.5-0.3,1-0.5,1.5c0,0.2-0.1,0.2-0.1,0.3    c-0.4,1.1-0.8,2.3-1.1,3.4c-0.1,0.4-0.2,0.7-0.3,1c-0.2,0.4-0.2,0.8-0.4,1.1c-0.2,0.6-0.4,1.1-0.5,1.8c0,0.2,0,0.3,0.1,0.5    c-4.1,13.5-7.3,23.9-7.3,26.1c-0.2,2.6-1.5,14.7-3.1,28.9c0,0.1,0,0.1,0,0.2c-0.2,1.2-0.3,2.4-0.5,3.7c-0.2,1-0.2,2.1-0.4,3.1    c0,0.1,0,0.1,0,0.2c-0.4,3-0.7,6.1-1.1,9.1c-1.1,8.6-2.1,17.1-2.9,24c-0.2,2.1-0.5,4.1-0.7,5.8c-0.7,6-1.2,9.8-1.2,9.8l-1.6-0.1    h-0.2c0-0.1,0-0.1,0-0.2l-14.7-0.4c0,0.1,0,0.1,0,0.2l-3.4-0.1l-0.5-9.3l-0.3-5.8l-1.2-24l-0.5-9.1v-0.2l-0.2-3.1l-0.2-3.7v-0.2    l-1.5-31.1l2.8-34.6l0.4-4.7v-0.2l0.5-6.3l1.6-19.8l0.5-6.4l0.2-1.6l1.1-14.1c0.6,0.1,1.3,0.1,1.9,0.2c0,0,0.1,0,0.2,0    c0.4,0,0.8,0.1,1.2,0.1c0.8,0.1,1.5,0.1,2.2,0.2c0.2,0,0.5,0,0.7,0.1c0.1,0,0.1,0,0.2,0c0.6,0.1,1.3,0.1,2,0.1h0.1    c0.4,0.1,0.8,0.1,1.1,0.1c0.5,0,1,0.1,1.5,0.1c0.4,0,0.8,0.1,1.1,0.1h0.9c2.1,0.1,4.4,0.2,6.7,0.2h2.1c1.1,0.1,2.3,0.1,3.5,0.1h8    c0,0,0.1,0,0.2,0C399.5,321,406.5,320.8,413.9,320.3z"/>
			<path class="st0" d="M361.6,320.2c-0.1,0-0.2,0-0.2,0c-0.6-0.1-1.3-0.1-1.9-0.2l0,0C360.2,320.1,360.9,320.1,361.6,320.2z"/>
			<path class="st0" d="M365.7,320.5c-0.2,0-0.5,0-0.7-0.1c-0.8-0.1-1.5-0.1-2.2-0.2c-0.4,0-0.8-0.1-1.2-0.1c0.1,0,0.2,0,0.2,0    c0.4,0,0.8,0.1,1.2,0.1c0.7,0.1,1.5,0.1,2.2,0.2C365.3,320.4,365.6,320.4,365.7,320.5z"/>
			<path class="st0" d="M371.8,320.8h-0.2c-0.4,0-0.8-0.1-1.1-0.1c-0.5,0-1-0.1-1.5-0.1c-0.4,0-0.8,0-1.1-0.1h0.2    c0.4,0,0.8,0.1,1.1,0.1c0.5,0,0.9,0.1,1.5,0.1C371.1,320.7,371.4,320.7,371.8,320.8z"/>
			<path class="st0" d="M374.6,494.3c0,0.1,0,0.1,0,0.2l-14.5-0.4H360c0-0.1,0-0.1,0-0.2L374.6,494.3z"/>
			<path class="st0" d="M379.5,321h-0.2c-2.4-0.1-4.6-0.2-6.7-0.2h0.2C374.9,320.8,377.2,320.9,379.5,321z"/>
			<path class="st0" d="M385,321.1h-0.2c-1.2,0-2.4,0-3.5-0.1h0.2C382.7,321,383.8,321,385,321.1z"/>
			<path class="st0" d="M410.8,329.8c-0.1,0.2-0.1,0.3-0.2,0.5c-0.2,0.6-0.4,1.1-0.6,1.8c-0.2,0.7-0.5,1.3-0.7,2    c-0.2,0.5-0.4,1.1-0.5,1.6c0,0.1-0.1,0.2-0.1,0.2c-0.2,0.6-0.5,1.3-0.7,1.9c-0.1,0.3-0.2,0.7-0.3,1c-0.2,0.3-0.2,0.7-0.3,1    c-0.2,0.8-0.5,1.5-0.8,2.3c-0.1,0.2-0.2,0.5-0.2,0.8c-0.2,0.6-0.4,1.2-0.6,1.8c-0.3,1-0.6,1.9-0.9,2.9c-0.2,0.5-0.3,1-0.5,1.5    c0,0.2-0.1,0.2-0.2,0.4c-0.2,0.5-0.4,1.1-0.5,1.7c0,0.1,0,0.1-0.1,0.2c-0.2,0.6-0.4,1.2-0.6,1.9c-1.1,3.6-2.4,7.3-3.5,10.9    c-0.3,1-0.7,2.1-1,3.1c-0.3,0.9-0.6,1.8-0.8,2.6v0.1c0,0.2-0.1,0.2-0.1,0.4v0.1c-0.2,0.6-0.4,1.1-0.5,1.8c0,0.1-0.1,0.2-0.1,0.3    c-0.2,0.6-0.4,1.2-0.5,1.8c0,0.1-0.1,0.2-0.1,0.3c-0.2,0.5-0.3,0.9-0.5,1.5c0,0.1-0.1,0.2-0.1,0.2c-0.4,1.1-0.7,2.2-1.1,3.4    c-0.1,0.3-0.2,0.7-0.3,1c-0.1,0.4-0.2,0.8-0.4,1.1c-0.2,0.6-0.4,1.2-0.5,1.8c0,0.2-0.1,0.2-0.1,0.4c0-0.2,0-0.3-0.1-0.5    c0.2-0.6,0.4-1.1,0.5-1.8c0.2-0.4,0.2-0.8,0.4-1.1c0.1-0.3,0.2-0.6,0.3-1c0.3-1.1,0.7-2.2,1.1-3.4c0-0.1,0.1-0.2,0.1-0.3    c0.2-0.5,0.3-0.9,0.5-1.5c0-0.1,0.1-0.2,0.1-0.3c0.2-0.6,0.4-1.1,0.5-1.8c0-0.1,0.1-0.2,0.1-0.3c0.2-0.6,0.4-1.1,0.5-1.8V370    c0-0.1,0.1-0.2,0.1-0.3c0.3-0.9,0.5-1.8,0.9-2.8c0.3-1,0.6-2,1-3.1c1.1-3.6,2.4-7.3,3.5-10.9c0.2-0.6,0.4-1.3,0.6-1.9    c0-0.1,0-0.1,0.1-0.2c0.2-0.5,0.4-1.1,0.5-1.7c0.1-0.2,0.1-0.2,0.2-0.4c0.2-0.5,0.3-1,0.5-1.5c0.3-1,0.6-1.9,1-2.9    c0.2-0.6,0.4-1.2,0.6-1.8c0.1-0.2,0.2-0.5,0.2-0.8c0.2-0.8,0.5-1.5,0.8-2.3c0.1-0.3,0.2-0.7,0.3-1c0.1-0.3,0.2-0.7,0.3-1    c0.2-0.6,0.5-1.3,0.7-1.9c0-0.1,0.1-0.2,0.1-0.2c0.2-0.5,0.4-1.1,0.5-1.6c0.2-0.7,0.5-1.3,0.7-2c0.2-0.6,0.4-1.1,0.6-1.8    C410.8,330.1,410.8,329.9,410.8,329.8z"/>
			<path class="st0" d="M412,326c-0.1,0.2-0.2,0.5-0.2,0.7c-0.2,0.5-0.4,1.1-0.5,1.7c-0.1,0.2-0.1,0.2-0.2,0.4    c0.1-0.2,0.1-0.3,0.2-0.5c0.2-0.5,0.4-1.1,0.5-1.7C411.9,326.4,411.9,326.3,412,326z"/>
			<path class="st0" d="M414,320.2C414,320.2,414,320.3,414,320.2c-0.1,0.3-0.2,0.5-0.2,0.8c-0.2,0.5-0.4,1-0.5,1.5    c-0.2,0.5-0.4,1.1-0.5,1.6c-0.1,0.2-0.2,0.4-0.2,0.6c0.1-0.3,0.2-0.5,0.2-0.8c0.2-0.5,0.4-1.1,0.5-1.6c0.2-0.5,0.4-1.1,0.5-1.5    C413.8,320.7,413.8,320.5,414,320.2c-7.5,0.5-14.5,0.8-20.9,0.8C399.5,320.8,406.5,320.6,414,320.2L414,320.2z"/>
			<path class="st1" d="M400.2,215.3l-15.7,45.6c-1.3,3.7-4.3,6.7-8,7.9l-7.2,2.3l-5.7,1.8h-0.1l-2.2,0.7l-5.5,1.8l-26.6,8.5    l-0.5-1.6l-0.1-0.1v-0.1l-2.1-7l-0.4-1.2l-0.5-1.8l0,0l-0.6-2.1l30.9-17l5.5-3.1l2.1-1.1l0.6-5.3l0.9-8v-0.2    c1.5-10.9,4.4-29.7,8.8-38.8c6.3-13.3,7.9-15.7,13.1-18.1c2.5-1.1,5.3-1.2,8.1-0.5c0,0,0,0,0.1,0c5.3,1.5,10.2,6.3,10.6,12.7    C406.1,197.1,403.5,206.4,400.2,215.3z"/>
			<path class="st3" d="M365.1,235.3l-0.9,8c-0.1,0-0.1,0-0.1,0S364.3,240.2,365.1,235.3z"/>
			<path class="st4" d="M417.2,150.7c-0.1,0.3-0.1,0.6-0.2,0.9l-3.8,8l0,0l-1,2.1l0,0v0.1l0,0l0,0c-0.5,0.5-3.3,3.2-5.8,3.1l0,0    c0,0-5.6-3.1-3.3-20.5l0.6,0.2l6.4,1.2c0,0,1.1,11.2,1.9,14.8l4.9-10.4L417.2,150.7z"/>
			<path class="st0" d="M412.2,161.7C412.2,161.7,412.2,161.8,412.2,161.7L412.2,161.7L412.2,161.7z"/>
			<path class="st3" d="M365.1,235.2c0,0.1,0,0.1,0,0.2V235.2L365.1,235.2z"/>
			<g>
				<g>
					<g>
						<g>
							<path class="st5" d="M420.8,134.4c-0.1,0-1.1-2.4-3.4-4.4s-4.9-2.5-4.8-2.7c0,0,0.6,0,1.6,0.4c1,0.3,2.3,0.9,3.4,2        s2.1,2.2,2.6,3.1C420.6,133.8,420.8,134.4,420.8,134.4z"/>
						</g>
					</g>
				</g>
				<g>
					<g>
						<g>
							<path class="st5" d="M420.3,127.3c-0.1,0.2-1.8-1.4-4.5-2c-2.7-0.8-5-0.2-5-0.5c0-0.1,2.3-0.8,5.1,0        C418.6,125.5,420.3,127.2,420.3,127.3z"/>
						</g>
					</g>
				</g>
				<g>
					<g>
						<g>
							<path class="st5" d="M403,123c0.1,0,0,0.4,0,0.9c0,0.6,0.3,1.4,0.9,2.1c0.5,0.7,1.3,1.1,1.8,1.2c0.5,0.2,1,0.1,1,0.2        c0,0-0.4,0.2-1,0.2c-0.6-0.1-1.5-0.5-2.1-1.3c-0.6-0.8-0.9-1.7-0.8-2.3C402.5,123.3,402.7,122.9,403,123z"/>
						</g>
					</g>
				</g>
				<g>
					<g>
						<g>
							<path class="st5" d="M405.4,122.1c0,0.1-0.2,0.3-0.2,0.8c-0.1,0.5-0.1,1.1,0.4,1.6c0.5,0.5,1,0.8,1.5,0.8        c0.5,0.1,0.8,0.1,0.8,0.1c0,0.1-0.2,0.2-0.8,0.3c-0.5,0-1.3-0.2-1.8-0.9c-0.5-0.7-0.5-1.5-0.2-2        C405.2,122.3,405.3,122.1,405.4,122.1z"/>
						</g>
					</g>
				</g>
				<g>
					<g>
						<g>
							<path class="st5" d="M412.1,118.2c-0.1,0.2-1.3-0.6-2.9-0.9c-1.7-0.2-3.1,0.2-3.1,0.1s1.3-0.7,3.1-0.5        C411,117,412.1,118,412.1,118.2z"/>
						</g>
					</g>
				</g>
				<g>
					<g>
						<g>
							<path class="st5" d="M416.3,121.8c-0.1,0.2-1.3-0.6-2.9-0.9c-1.7-0.2-3.1,0.2-3.1,0.1c-0.1-0.1,1.3-0.7,3.1-0.5        C415.2,120.7,416.2,121.7,416.3,121.8z"/>
						</g>
					</g>
				</g>
				<g>
					<g>
						<g>
							<path class="st5" d="M420.2,124c-0.2-0.1,0.4-0.6,0.5-1.7c0.3-1.1,0.2-2.7-0.6-4.1c-0.8-1.4-2.3-2.2-3.3-2.5        c-1-0.3-1.7-0.2-1.8-0.3c0,0,0.7-0.2,1.8,0c1.1,0.3,2.6,1.1,3.6,2.6c0.8,1.6,0.8,3.4,0.5,4.4C420.5,123.5,420.2,124,420.2,124        z"/>
						</g>
					</g>
				</g>
				<g>
					<g>
						<g>
							<path class="st5" d="M432.7,167.7c0,0-0.4,0.3-1.1,0.2c-0.8-0.1-1.8-0.3-2.5-1.2c-0.7-0.8-0.8-2-0.8-2.8        c0.2-0.8,0.4-1.1,0.5-1.1c0.1,0-0.1,0.5-0.1,1.1c-0.1,0.6,0.2,1.6,0.8,2.4c0.7,0.8,1.6,1.1,2.2,1.1        C432.4,167.8,432.7,167.7,432.7,167.7z"/>
						</g>
					</g>
				</g>
				<g>
					<g>
						<g>
							<path class="st5" d="M450.6,142.8c-0.1,0,0.2-0.8,0.2-2.2c0.1-1.4,0-3.2-0.5-5.3c-0.5-2-1.5-3.6-2.2-4.8        c-0.8-1.1-1.3-1.8-1.3-1.8s0.7,0.5,1.6,1.6c0.8,1.1,1.9,2.8,2.4,4.8c0.5,2.1,0.6,4.1,0.4,5.4        C451.1,141.9,450.6,142.8,450.6,142.8z"/>
						</g>
					</g>
				</g>
				<g>
					<g>
						<g>
							<path class="st5" d="M443.1,128.6c-0.1,0-0.1-0.5-0.3-1.1c-0.2-0.7-0.8-1.5-1.6-2.1c-0.8-0.6-1.8-0.9-2.5-1        c-0.8-0.1-1.1,0.1-1.1-0.1c0,0,0.5-0.3,1.2-0.2c0.7-0.1,1.8,0.2,2.8,0.9c0.9,0.8,1.5,1.6,1.7,2.4        C443.4,128.1,443.4,128.6,443.1,128.6z"/>
						</g>
					</g>
				</g>
				<g>
					<g>
						<g>
							<path class="st5" d="M450.8,128.6c-0.1,0.2-1.3-2.2-3.9-3.8c-2.6-1.7-5.1-1.8-5-2.1c0,0,0.6,0,1.7,0.2c1,0.2,2.4,0.7,3.7,1.5        c1.3,0.8,2.3,1.9,2.9,2.8C450.6,128,450.8,128.6,450.8,128.6z"/>
						</g>
					</g>
				</g>
				<g>
					<g>
						<g>
							<path class="st5" d="M438.8,120.9c0,0.1-1.8,0.1-3.7,1.3c-1.8,1.1-2.5,3-2.7,2.9c0,0,0-0.4,0.4-1.1c0.4-0.6,1-1.5,2-2.1        c1-0.6,2-1,2.7-1C438.4,120.8,438.8,120.9,438.8,120.9z"/>
						</g>
					</g>
				</g>
				<g>
					<g>
						<g>
							<path class="st5" d="M434.5,119.4c0,0.1-1.8,0.1-3.7,1.3c-1.8,1.1-2.5,3-2.7,2.9c0,0,0-0.4,0.4-1.1c0.4-0.6,1-1.5,2-2.1        c1-0.6,2-1,2.7-1C434.2,119.2,434.5,119.4,434.5,119.4z"/>
						</g>
					</g>
				</g>
				<g>
					<g>
						<g>
							<path class="st5" d="M442.1,152.6c0-0.1,0.5-0.2,1.1-0.7c0.6-0.4,1.5-1.1,2.2-2.1c0.7-1,1-2,1.1-2.8c0.2-0.8,0.2-1.3,0.2-1.3        c0,0,0.2,0.5,0.1,1.3c0,0.8-0.4,2-1.1,3.1c-0.7,1.1-1.7,1.8-2.4,2.1C442.6,152.6,442.1,152.6,442.1,152.6z"/>
						</g>
					</g>
				</g>
				<g>
					<g>
						<g>
							<path class="st5" d="M441.8,156.1c0-0.1,0.7-0.2,1.8-0.6c1.1-0.5,2.4-1.3,3.5-2.7c1.1-1.4,1.8-2.9,2-4s0.2-1.9,0.3-1.8        c0,0,0.2,0.8,0,2c-0.2,1.1-0.7,2.8-1.9,4.3s-2.7,2.3-3.8,2.8C442.5,156.2,441.8,156.1,441.8,156.1z"/>
						</g>
					</g>
				</g>
				<g>
					<g>
						<g>
							<path class="st5" d="M441.4,162.4c0,0,0.4,0.6,0.3,1.7c-0.1,1.1-0.5,2.6-1.6,3.8s-2.7,1.7-3.9,1.7c-1.1,0.1-1.7-0.2-1.7-0.2        c0-0.1,0.6,0.1,1.7-0.1c1-0.2,2.4-0.5,3.6-1.8c1.1-1.1,1.6-2.5,1.7-3.6C441.5,163.1,441.2,162.4,441.4,162.4z"/>
						</g>
					</g>
				</g>
				<g>
					<g>
						<g>
							<path class="st5" d="M440.5,154.3c0,0.1-0.6,0.2-1.3,0.6c-0.8,0.4-1.8,1.2-2.4,2.5c-0.5,1.3-0.5,2.6-0.2,3.4        c0.2,0.9,0.6,1.3,0.5,1.4c0,0-0.5-0.4-0.8-1.3c-0.3-0.8-0.5-2.3,0.1-3.7c0.6-1.4,1.8-2.3,2.7-2.6        C439.7,154.3,440.5,154.3,440.5,154.3z"/>
						</g>
					</g>
				</g>
				<g>
					<g>
						<g>
							<path class="st5" d="M427.1,162.2c-0.2-0.1,0.2-0.5,0.5-1.2s0.3-1.8,0.1-3.1s-0.9-2.1-1.5-2.6c-0.5-0.5-1-0.7-1-0.8        c0,0,0.5,0.1,1.1,0.5c0.6,0.5,1.4,1.5,1.8,2.8c0.3,1.3,0.2,2.4-0.2,3.1C427.6,161.9,427.1,162.3,427.1,162.2z"/>
						</g>
					</g>
				</g>
				<g>
					<g>
						<g>
							<path class="st5" d="M435.7,165.6c0,0.1-0.4,0.3-1,0.2s-1.5-0.4-2.2-1.1c-0.6-0.8-0.7-1.8-0.5-2.4c0.2-0.7,0.4-0.9,0.4-0.9        c0.1,0-0.2,0.3-0.1,1c-0.1,0.5,0.1,1.5,0.5,2.1c0.5,0.7,1.2,1,1.9,1.1C435.4,165.6,435.7,165.6,435.7,165.6z"/>
						</g>
					</g>
				</g>
				<g>
					<g>
						<g>
							<path class="st5" d="M423.7,153c0-0.1,0.2-0.5,0.6-1.1c0.4-0.7,0.7-1.7,0.8-2.9c0.1-1.1-0.2-2.1-0.4-2.9        c-0.2-0.7-0.5-1.1-0.5-1.1s0.4,0.3,0.8,1.1s0.6,1.8,0.6,3.1c-0.2,1.3-0.5,2.3-1,2.9C424.1,152.7,423.7,153.1,423.7,153z"/>
						</g>
					</g>
				</g>
				<g>
					<g>
						<g>
							<path class="st5" d="M426.9,153.3c0-0.1,0.5-0.2,1.1-0.7c0.6-0.4,1.4-1.1,2-2.2c0.5-1.1,0.7-2.1,0.6-2.9        c-0.1-0.8-0.2-1.2-0.2-1.3c0,0,0.3,0.5,0.5,1.2c0.2,0.8,0.1,2.1-0.5,3.1c-0.5,1.1-1.5,1.9-2.2,2.3        C427.4,153.4,427,153.4,426.9,153.3z"/>
						</g>
					</g>
				</g>
				<g>
					<g>
						<g>
							<path class="st5" d="M424.4,142.7c-0.2-0.1,0.8-1.8,0.4-4.1c-0.3-2.3-1.8-3.7-1.7-3.7c0,0,0.5,0.2,0.9,0.9        c0.5,0.6,1,1.7,1.1,2.8c0.2,1.2,0,2.4-0.2,3.1C424.6,142.3,424.4,142.7,424.4,142.7z"/>
						</g>
					</g>
				</g>
				<g>
					<g>
						<g>
							<path class="st5" d="M446.9,141.6c0,0.1-0.4,0.1-0.9,0.4c-0.5,0.2-1.3,0.8-1.8,1.7c-0.5,0.8-0.7,1.7-0.6,2.3        c0,0.6,0.2,1,0.2,1c0,0-0.3-0.4-0.5-1.1c-0.2-0.7,0.1-1.7,0.5-2.6c0.5-0.9,1.4-1.5,2-1.7C446.4,141.6,446.9,141.6,446.9,141.6        z"/>
						</g>
					</g>
				</g>
				<g>
					<g>
						<g>
							<path class="st5" d="M437.1,150.9c0,0.1-1.7,0.5-3.2,1.8c-1.6,1.3-2.3,2.9-2.4,2.8c-0.1,0,0.5-1.8,2.1-3.1        C435.4,151,437.1,150.7,437.1,150.9z"/>
						</g>
					</g>
				</g>
				<g>
					<g>
						<g>
							<path class="st5" d="M440.1,141.6c0-0.1,0.3-0.4,0.7-1.2c0.4-0.7,0.6-1.8,0.3-3c-0.4-1.1-1.1-1.9-1.8-2.4s-1.1-0.5-1.1-0.5        s0.5,0,1.3,0.3c0.7,0.4,1.8,1.3,2.1,2.5c0.4,1.3,0,2.4-0.5,3.2C440.5,141.3,440.1,141.6,440.1,141.6z"/>
						</g>
					</g>
				</g>
				<g>
					<g>
						<g>
							<path class="st5" d="M445.1,140.4c0-0.1,0.4-0.5,0.8-1.5c0.4-0.9,0.7-2.4,0.4-3.8c-0.3-1.5-1.2-2.6-2-3.3        c-0.8-0.7-1.4-0.9-1.4-0.9s0.6,0.1,1.5,0.7c0.9,0.6,1.8,1.8,2.2,3.4s0,3.1-0.5,4.1C445.8,140,445.1,140.4,445.1,140.4z"/>
						</g>
					</g>
				</g>
				<g>
					<g>
						<g>
							<path class="st5" d="M440.5,132c0,0.1-0.5,0-1.4,0.2c-0.8,0.2-1.9,0.8-2.4,2c-0.5,1.1-0.4,2.4-0.1,3.2s0.8,1.1,0.7,1.2        c0,0-0.6-0.3-1-1.1c-0.4-0.8-0.7-2.2-0.1-3.5c0.6-1.3,1.9-2,2.8-2.1C440,131.7,440.5,131.8,440.5,132z"/>
						</g>
					</g>
				</g>
				<g>
					<g>
						<g>
							<path class="st5" d="M432.7,149.1c0-0.1,0.5-0.3,1-1c0.6-0.6,1.1-1.7,1.1-3c0-1.2-0.6-2.4-1.1-2.8c-0.5-0.6-1.1-0.9-1.1-0.9        s0.5,0.1,1.2,0.7c0.6,0.6,1.5,1.8,1.5,3.1c0,1.5-0.7,2.5-1.4,3.1C433.4,149,432.7,149.1,432.7,149.1z"/>
						</g>
					</g>
				</g>
				<g>
					<g>
						<g>
							<path class="st5" d="M436.1,148.7c-0.2-0.1,1.1-1.2,1.4-3c0.3-1.8-0.5-3.3-0.3-3.4c0,0,0.4,0.2,0.6,0.9        c0.2,0.5,0.5,1.5,0.2,2.5c-0.2,1-0.6,1.8-1.1,2.3C436.4,148.5,436.2,148.6,436.1,148.7z"/>
						</g>
					</g>
				</g>
				<g>
					<g>
						<g>
							<path class="st5" d="M429.3,134.1c0,0.1-0.3,0.4-0.7,1.2c-0.4,0.7-0.6,1.8-0.5,3.1c0.2,1.2,0.7,2.2,1.2,2.8        c0.5,0.6,1,0.8,0.9,0.9c0,0-0.5-0.1-1.2-0.7c-0.6-0.6-1.3-1.7-1.5-3c-0.2-1.3,0.2-2.5,0.6-3.3        C428.9,134.4,429.3,134.1,429.3,134.1z"/>
						</g>
					</g>
				</g>
				<g>
					<g>
						<g>
							<path class="st5" d="M438.3,130.8c-0.2-0.1,0.4-1.1,0-2.4c-0.3-1.4-1.4-2-1.3-2.1c0,0,0.3,0,0.7,0.4c0.4,0.4,0.8,0.8,1,1.7        c0.2,0.8,0.1,1.5,0,2C438.6,130.5,438.3,130.9,438.3,130.8z"/>
						</g>
					</g>
				</g>
				<g>
					<g>
						<g>
							<path class="st5" d="M425.2,126c0,0.1-0.2,0.2-0.4,0.6c-0.2,0.4-0.4,0.9-0.2,1.6c0,0.6,0.4,1.1,0.7,1.5        c0.3,0.4,0.6,0.4,0.5,0.5c0,0-0.3,0.1-0.8-0.2c-0.4-0.3-0.8-0.8-0.9-1.7c-0.1-0.8,0.2-1.5,0.5-1.9        C424.7,126.1,425.2,126,425.2,126z"/>
						</g>
					</g>
				</g>
				<g>
					<g>
						<g>
							<path class="st5" d="M431.1,132.8c-0.2-0.1,0-0.3,0.2-0.8c0.1-0.5,0.2-1.1-0.1-1.8c-0.2-0.7-0.6-1.3-0.9-1.7        c-0.3-0.4-0.6-0.5-0.5-0.6c0,0,0.3,0,0.8,0.3c0.4,0.3,0.9,0.9,1.1,1.8c0.2,0.8,0.2,1.6-0.1,2.1        C431.4,132.5,431.1,132.8,431.1,132.8z"/>
						</g>
					</g>
				</g>
				<g>
					<g>
						<g>
							<path class="st5" d="M433.1,139.7c-0.2-0.1,0.3-1.3-0.2-2.8c-0.5-1.5-1.6-2.2-1.5-2.4c0,0,0.3,0,0.8,0.5        c0.4,0.3,0.9,0.9,1.2,1.8c0.3,0.8,0.2,1.6,0.2,2.1C433.4,139.4,433.1,139.7,433.1,139.7z"/>
						</g>
					</g>
				</g>
				<g>
					<g>
						<g>
							<path class="st5" d="M428.1,117.9c0,0.1-1,0.2-1.8,1.1c-0.8,0.8-1.1,1.8-1.2,1.8c-0.1,0-0.1-0.3,0.1-0.8        c0.1-0.5,0.4-0.9,0.9-1.5c0.5-0.5,1.1-0.8,1.5-0.8C427.9,117.7,428,117.8,428.1,117.9z"/>
						</g>
					</g>
				</g>
				<g>
					<g>
						<g>
							<path class="st5" d="M450.7,154c0,0,0,0.5-0.3,1.5c-0.3,0.8-1,1.9-2,2.8c-1.1,0.8-2.2,1.3-3.1,1.5c-0.9,0.2-1.5,0.1-1.5,0.1        c0-0.1,0.5-0.1,1.4-0.4c0.8-0.3,1.9-0.8,2.8-1.6s1.7-1.8,2.1-2.5C450.3,154.6,450.6,154.1,450.7,154z"/>
						</g>
					</g>
				</g>
				<g>
					<g>
						<g>
							<path class="st5" d="M436.7,116.9c-0.1,0-0.5-0.3-1.3-0.8c-0.8-0.5-2-1-3.4-1.2c-1.4-0.2-2.7-0.2-3.6,0.1        c-0.8,0.2-1.5,0.5-1.5,0.3c0,0,0.5-0.4,1.4-0.8c1-0.3,2.3-0.5,3.8-0.2c1.5,0.3,2.7,0.8,3.5,1.4        C436.3,116.4,436.7,116.9,436.7,116.9z"/>
						</g>
					</g>
				</g>
				<g>
					<g>
						<g>
							<path class="st5" d="M440.8,119.2c-0.1,0-0.2-0.5-0.5-1.4c-0.3-0.8-0.9-1.8-1.9-2.8c-0.9-0.9-2-1.5-2.9-1.8        c-0.8-0.3-1.3-0.3-1.4-0.5c0,0,0.6-0.2,1.5,0.1c0.9,0.2,2.1,0.8,3.1,1.7c1.1,0.9,1.6,2.1,1.9,3        C440.9,118.5,440.8,119.2,440.8,119.2z"/>
						</g>
					</g>
				</g>
			</g>
		</g>
		<polygon class="st0" points="188.7,148.7 178,227.7 72.1,227.7 82.9,148.7  "/>
		<path class="st6" d="M135.1,179.5L135.1,179.5c-0.4,0-0.6-0.3-0.5-0.6l0.4-14.5l-5.1,14.6c-0.1,0.3-0.4,0.5-0.7,0.5h-5.8   c-0.2,0-0.5-0.2-0.5-0.4l-1.1-3.1l-2.1,3.1c-0.2,0.2-0.4,0.3-0.6,0.3h-3.5c-0.3,0-0.5-0.2-0.5-0.5l-2.2-10.2l-5.8,10.3   c-0.2,0.2-0.4,0.4-0.7,0.4H89.5c-0.4,0-0.6-0.3-0.5-0.7c0.1-0.4,0.4-0.7,0.8-0.7H106l6.5-11.5c0.2-0.2,0.4-0.4,0.7-0.4   c0.3,0,0.5,0.2,0.5,0.5l2.4,11.4h2.6l2.7-3.8c0.2-0.2,0.4-0.4,0.6-0.3c0.2,0,0.5,0.2,0.5,0.4l1.4,3.8h4.9l6.3-18   c0.1-0.3,0.4-0.5,0.8-0.5c0.3,0,0.5,0.2,0.5,0.6l-0.4,15.2l2.4-6c0.2-0.3,0.4-0.5,0.7-0.5s0.5,0.2,0.5,0.5l0.5,8.7h6.9l7.6-16.5   c0.2-0.3,0.5-0.5,0.8-0.5s0.5,0.2,0.5,0.5l0.7,16.4h2.1l3.7-5.9c0.2-0.2,0.5-0.4,0.7-0.4c0.3,0,0.5,0.2,0.5,0.5l0.7,5.8h9.5   c0.4,0,0.6,0.3,0.5,0.7c-0.1,0.4-0.4,0.7-0.8,0.7h-9.9c-0.3,0-0.5-0.2-0.5-0.5l-0.5-4.5l-2.9,4.7c-0.2,0.2-0.4,0.4-0.6,0.4h-3   c-0.3,0-0.5-0.2-0.5-0.5l-0.6-14.4l-6.7,14.4c-0.2,0.3-0.4,0.5-0.7,0.5h-7.9c-0.3,0-0.5-0.2-0.5-0.5l-0.4-6.6l-2.7,6.7   C135.8,179.2,135.4,179.5,135.1,179.5z"/>
		<path class="st6" d="M131,209.2L131,209.2c-0.4,0-0.6-0.3-0.5-0.6l0.4-14.5l-5.1,14.6c-0.1,0.3-0.4,0.5-0.7,0.5h-5.8   c-0.2,0-0.5-0.2-0.5-0.4l-1.1-3.1l-2.1,3.1c-0.2,0.2-0.4,0.3-0.6,0.3h-3.5c-0.3,0-0.5-0.2-0.5-0.5l-2.2-10.2l-5.8,10.3   c-0.2,0.2-0.4,0.4-0.7,0.4H85.4c-0.4,0-0.6-0.3-0.5-0.7c0.1-0.4,0.4-0.7,0.8-0.7h16.3l6.5-11.5c0.2-0.2,0.4-0.4,0.7-0.4   s0.5,0.2,0.5,0.5l2.4,11.4h2.6l2.7-3.8c0.2-0.2,0.4-0.4,0.6-0.3c0.2,0,0.5,0.2,0.5,0.4l1.4,3.8h4.9l6.3-18c0.1-0.3,0.4-0.5,0.8-0.5   c0.3,0,0.5,0.2,0.5,0.6l-0.4,15.2l2.4-6c0.2-0.3,0.4-0.5,0.7-0.5s0.5,0.2,0.5,0.5l0.5,8.7h6.9l7.6-16.5c0.2-0.3,0.5-0.5,0.8-0.5   s0.5,0.2,0.5,0.5l0.7,16.4h2.1l3.7-5.9c0.2-0.2,0.5-0.4,0.7-0.4c0.3,0,0.5,0.2,0.5,0.5l0.7,5.8h9.5c0.4,0,0.6,0.3,0.5,0.7   c-0.1,0.4-0.4,0.7-0.8,0.7h-9.9c-0.3,0-0.5-0.2-0.5-0.5l-0.5-4.5l-2.9,4.7c-0.2,0.2-0.4,0.4-0.6,0.4h-3c-0.3,0-0.5-0.2-0.5-0.5   l-0.6-14.4l-6.7,14.4c-0.2,0.3-0.4,0.5-0.7,0.5h-7.9c-0.3,0-0.5-0.2-0.5-0.5l-0.4-6.6l-2.7,6.7C131.6,209,131.4,209.2,131,209.2z"/>
		<path class="st0" d="M175.9,476.2H84.8V227.7h81.8v26.2c-0.2,0.1-0.2,0.2-0.4,0.3c-0.2,0.1-0.2,0.2-0.4,0.4l-49.5-1h-1.8l-0.1,0.1   l-0.2,0.2l-0.1,0.1l0,0l-0.5,0.5l-4.5,3.4c-2.7,2-4.1,4.9-4.3,8c0,0.3,0,0.6,0,0.8c0.1,2.1,0.8,4.2,2.1,6l11.2,15.1v51.3h-5.9   c-0.7,0-1.4,0.1-2.1,0.2c-0.2,0-0.3,0.1-0.5,0.2c-3.8,1.1-6.6,4.6-6.6,8.7c0,2.5,1,4.8,2.7,6.4c1.6,1.6,3.7,2.6,6,2.7   c0.2,0,0.2,0,0.4,0h57.5l0.1,0.1l0.1,0.2l0,0l0.1,0.2l0.3-0.2l0.1-0.1h2.1v104.7c-0.1,0-0.1,0.1-0.2,0.1c-0.1,0.1-0.2,0.1-0.2,0.2   c-2.3,1.3-3.8,3.7-3.8,6.5C168.6,472.8,172,476.1,175.9,476.2z"/>
		<path class="st0" d="M294.6,461.7L294.6,461.7c-1-0.4-2.1-0.7-3.2-0.7s-2.3,0.3-3.3,0.8c0,0-0.1,0-0.1,0.1v-0.2   c1-0.5,2.1-0.8,3.3-0.8c0.5,0,0.9,0,1.3,0.2C293.3,461.2,293.9,461.4,294.6,461.7z"/>
		<path class="st0" d="M294.6,368.1v93.7c-1-0.5-2.1-0.8-3.3-0.8c-1.1,0-2.3,0.3-3.3,0.8v-23h0.1v-70.3   C290.2,368.3,292.5,368.2,294.6,368.1z"/>
		<path class="st0" d="M288.1,368.5v70.3H288L288.1,368.5C288.1,368.5,288.1,368.5,288.1,368.5z"/>
		<path class="st0" d="M294.7,461.8L294.7,461.8c-1.1-0.5-2.1-0.8-3.3-0.8s-2.3,0.3-3.3,0.8c0,0-0.1,0-0.1,0.1c-2.4,1.1-4,3.7-4,6.6   c0,4.1,3.3,7.4,7.4,7.4c4,0,7.4-3.3,7.4-7.4C298.8,465.5,297,463,294.7,461.8z M291.3,472.5c-2.4,0.1-4.1-1.8-4.1-4.1   c0-0.9,0.3-1.8,0.8-2.5c0.8-1,1.9-1.6,3.3-1.6c1.4,0,2.5,0.6,3.3,1.6c0.5,0.7,0.8,1.5,0.8,2.5C295.4,470.7,293.6,472.5,291.3,472.5   z"/>
		<path class="st0" d="M295.4,468.4c0,2.3-1.8,4.1-4.1,4.1c-2.4,0.1-4.1-1.8-4.1-4.1c0-0.9,0.3-1.8,0.8-2.5c0.8-1,1.9-1.6,3.3-1.6   s2.5,0.6,3.3,1.6C295.1,466.6,295.4,467.5,295.4,468.4z"/>
		<path class="st0" d="M515.2,357v104.7c-1-0.5-2.1-0.8-3.3-0.8c-1.1,0-2.3,0.3-3.3,0.8V357H515.2z"/>
		<path class="st0" d="M519.4,468.4c0,4.1-3.4,7.4-7.4,7.4c-4.1,0-7.4-3.4-7.4-7.4c0-2.9,1.7-5.5,4.1-6.7c1-0.5,2.1-0.8,3.3-0.8   c1.1,0,2.3,0.3,3.3,0.8C517.8,463,519.4,465.5,519.4,468.4z"/>
		<path class="st0" d="M507.8,468.4c0-2.3,1.8-4.1,4.1-4.1c2.3,0,4.1,1.8,4.1,4.1c0,2.3-1.8,4.1-4.1,4.1   C509.6,472.6,507.8,470.7,507.8,468.4z"/>
		<path class="st7" d="M395,264.1c0,0-0.1,0.3-0.2,0.8c-0.1,0.3-0.2,0.6-0.3,1c-0.2,0.4-0.3,0.8-0.5,1.3c-0.2,0.5-0.5,1-0.8,1.5   c-0.3,0.5-0.7,1.1-1.1,1.6c-0.8,1.1-1.8,2.1-3.1,3.1c-1.2,1-2.5,1.8-3.7,2.4c-0.6,0.3-1.2,0.5-1.8,0.7c-0.5,0.2-1.1,0.4-1.6,0.5   c-0.5,0.2-1,0.2-1.4,0.2c-0.4,0.1-0.8,0.1-1.1,0.2c-0.5,0-0.9,0.1-0.9,0c0-0.1,1.3-0.1,3.2-0.6c0.5-0.2,1-0.3,1.6-0.5   c0.5-0.2,1.1-0.5,1.8-0.8c1.2-0.6,2.4-1.4,3.7-2.3c1.2-1,2.2-2.1,3.1-3.1c0.4-0.5,0.8-1.1,1.1-1.5c0.3-0.5,0.6-1,0.8-1.5   C394.6,265.3,394.9,264.1,395,264.1z"/>
		<path class="st7" d="M237.8,325.9c0,0-0.1,0.1-0.2,0.2s-0.4,0.3-0.7,0.6c-0.2,0.2-0.3,0.3-0.5,0.5c-0.2,0.2-0.4,0.4-0.5,0.6   c-0.4,0.5-0.9,0.8-1.3,1.5c-0.2,0.3-0.5,0.6-0.7,0.9c-0.2,0.3-0.4,0.7-0.6,1.1c-0.5,0.7-0.8,1.6-1.2,2.4c-0.7,1.8-1.2,3.9-1.4,6.1   s0.1,4.4,0.5,6.2c0.3,0.9,0.5,1.8,0.8,2.6c0.2,0.4,0.3,0.8,0.5,1.1c0.2,0.4,0.4,0.7,0.5,1c0.3,0.7,0.8,1.1,1.1,1.7   c0.2,0.2,0.3,0.5,0.5,0.7c0.2,0.2,0.3,0.4,0.5,0.5c0.3,0.3,0.5,0.5,0.6,0.7c0.2,0.2,0.2,0.2,0.2,0.2s-0.1-0.1-0.2-0.2   c-0.2-0.2-0.4-0.4-0.7-0.7c-0.2-0.2-0.3-0.3-0.5-0.5c-0.2-0.2-0.3-0.4-0.5-0.6c-0.4-0.5-0.8-1-1.1-1.6c-0.2-0.3-0.4-0.7-0.6-1   c-0.2-0.4-0.3-0.8-0.5-1.1c-0.4-0.8-0.6-1.7-0.9-2.6c-0.5-1.9-0.7-4.1-0.5-6.3c0.2-2.3,0.7-4.4,1.5-6.2c0.4-0.9,0.8-1.8,1.2-2.4   c0.2-0.4,0.5-0.8,0.7-1.1c0.2-0.3,0.5-0.6,0.7-0.9c0.5-0.6,0.9-1.1,1.4-1.5c0.2-0.2,0.4-0.4,0.6-0.5c0.2-0.2,0.4-0.3,0.5-0.4   c0.3-0.2,0.6-0.5,0.8-0.5C237.7,326,237.8,325.9,237.8,325.9z"/>
		<g>
			<path class="st7" d="M210.1,301.8c0,0.1-1.7-0.4-3.7-1s-3.7-1.2-3.6-1.4c0-0.1,1.7,0.4,3.7,1S210.1,301.7,210.1,301.8z"/>
		</g>
		<g>
			<path class="st7" d="M216.7,302.5c0,0.1-2.6-0.9-5.7-2.2s-5.7-2.4-5.6-2.5c0-0.1,2.6,0.9,5.7,2.2    C214.3,301.3,216.9,302.4,216.7,302.5z"/>
		</g>
		<g>
			<path class="st7" d="M212.5,299.1c-0.1,0.1-1.1-0.4-2.4-1.1c-1.3-0.7-2.3-1.3-2.2-1.4c0.1-0.1,1.1,0.4,2.4,1.1    C211.6,298.4,212.5,299,212.5,299.1z"/>
		</g>
		<g>
			<path class="st7" d="M218.5,298.2c0,0.1-2.1-0.7-4.7-1.7c-2.5-1.1-4.5-1.9-4.5-2.1c0-0.1,2.1,0.7,4.7,1.7    C216.4,297.2,218.5,298.1,218.5,298.2z"/>
		</g>
		<g>
			<path class="st7" d="M214.4,292.8c0,0.1-0.9-0.1-2.1-0.3c-1.1-0.2-2-0.6-2-0.7c0-0.1,0.9,0.1,2.1,0.3    C213.6,292.3,214.4,292.6,214.4,292.8z"/>
		</g>
		<g>
			<path class="st7" d="M223.8,292.8c0,0.1-2.5-0.7-5.6-1.7c-3.1-1-5.5-1.9-5.4-2c0-0.1,2.5,0.7,5.6,1.7S223.8,292.6,223.8,292.8z"/>
		</g>
		<g>
			<path class="st7" d="M218.5,288.4c0,0.1-1-0.1-2.2-0.3c-1.2-0.2-2.1-0.6-2.1-0.7c0-0.1,1,0.1,2.2,0.3    C217.5,288,218.5,288.3,218.5,288.4z"/>
		</g>
		<g>
			<path class="st7" d="M223.8,286.8c0,0.1-2,0-4.4-0.2c-2.4-0.2-4.4-0.4-4.4-0.5c0-0.1,2,0,4.4,0.2    C221.9,286.5,223.8,286.7,223.8,286.8z"/>
		</g>
		<g>
			<path class="st7" d="M174.9,263.7c0.1,0-0.2,0.4-0.3,0.9s-0.2,1.4-0.1,2.2c0.2,0.8,0.5,1.6,0.8,2.1c0.3,0.5,0.6,0.8,0.5,0.8    c0,0-0.4-0.2-0.8-0.6c-0.4-0.5-0.8-1.2-1-2.1c-0.2-0.9,0-1.8,0.2-2.4C174.7,264,174.9,263.7,174.9,263.7z"/>
		</g>
		<g>
			<path class="st7" d="M183.5,255.4c-0.1,0,0.1-0.5,0.2-1.1c0.1-0.7,0-1.7-0.4-2.7s-1-1.8-1.5-2.3c-0.5-0.5-0.9-0.8-0.8-0.8    c0,0,0.5,0.2,1,0.6c0.5,0.5,1.2,1.3,1.6,2.4c0.4,1.1,0.5,2.1,0.3,2.8C183.9,255,183.6,255.5,183.5,255.4z"/>
		</g>
		<g>
			<path class="st7" d="M185,253.6c-0.1,0,0.1-0.5,0.1-1.2c0-0.7-0.2-1.8-0.7-2.7c-0.5-1-1.3-1.7-1.9-2.1c-0.6-0.4-1.1-0.5-1.1-0.5    s0.5,0,1.1,0.4c0.7,0.3,1.5,1.1,2.1,2.1c0.5,1.1,0.7,2.1,0.6,2.9C185.2,253.3,185,253.6,185,253.6z"/>
		</g>
		<g>
			<path class="st7" d="M182.6,281.7c0,0-0.5,0.4-1.5,0.5c-0.9,0.2-2.4,0.1-3.6-0.8c-1.2-0.8-1.8-2.1-2.1-3.1c-0.2-0.9,0-1.5,0-1.5    c0.1,0,0,0.6,0.2,1.5s0.8,2.1,2,2.9c1.1,0.8,2.4,0.9,3.4,0.8C182,281.8,182.6,281.6,182.6,281.7z"/>
		</g>
		<g>
			<path class="st7" d="M178.7,284.1c0,0-0.2,0-0.4-0.1c-0.2-0.1-0.6-0.2-1.1-0.4c-0.8-0.4-1.9-1.2-2.7-2.4c-0.8-1.2-1-2.5-1-3.4    c0-0.5,0.1-0.8,0.2-1.1c0.1-0.2,0.2-0.4,0.2-0.4c0.1,0-0.1,0.5,0,1.5c0,0.9,0.3,2.1,1.1,3.3c0.7,1.1,1.7,2,2.4,2.4    C178.1,283.9,178.7,284.1,178.7,284.1z"/>
		</g>
		<polygon class="st8" points="414.7,147.7 415.8,159.9 421.5,151.7 419.5,142.3  "/>
	</g>
	</svg>