<?xml version="1.0" encoding="utf-8"?>
<!-- Generator: Adobe Illustrator 23.0.6, SVG Export Plug-In . SVG Version: 6.00 Build 0)  -->
<svg version="1.1" id="Layer_1" xmlns="http://www.w3.org/2000/svg" xmlns:xlink="http://www.w3.org/1999/xlink" x="0px" y="0px"
	 viewBox="0 0 1080 1080" style="enable-background:new 0 0 1080 1080;" xml:space="preserve">
<style type="text/css">
	.st0{fill:none;stroke:#FFFFFF;stroke-width:2;stroke-miterlimit:10;}
	.st1{fill:#BEE8FF;stroke:#FFFFFF;stroke-width:2;stroke-miterlimit:10;}
	.st2{fill:#FFFFFF;stroke:#FFFFFF;stroke-width:2;stroke-miterlimit:10;}
	.st3{fill:#E3F0FB;stroke:#FFFFFF;stroke-width:2;stroke-miterlimit:10;}
	.st4{fill:#C5E6FB;stroke:#FFFFFF;stroke-width:2;stroke-miterlimit:10;}
	.st5{fill:#FFFFFF;stroke:#FFFFFF;stroke-width:0.75;stroke-miterlimit:10;}
	.st6{fill:none;stroke:#FFFFFF;stroke-miterlimit:10;}
	.st7{fill:#FFFFFF;}
	.st8{fill:none;}
</style>
<polygon class="st0" points="331.2,569.6 293.4,569.6 293.4,518.8 "/>
<path class="st0" d="M350.4,593.4l-0.1,0.1h2.4v-0.1H350.4z M366.7,738.7c0-0.1,0-0.1,0-0.2c-0.2-2.6-1.5-5-3.4-6.6
	c-0.1-0.1-0.3-0.2-0.4-0.3c-0.2-0.1-0.4-0.3-0.5-0.4c-0.3-0.2-0.7-0.4-1-0.6h-0.1c-1.3-0.6-2.8-1-4.3-1c-0.3,0-0.7,0-1,0
	s-0.6,0.1-1,0.2c-0.1,0-0.3,0.1-0.4,0.1c-0.2,0-0.4,0.1-0.5,0.2c-0.2,0-0.3,0.1-0.5,0.2c-0.1,0.1-0.3,0.1-0.5,0.2v-137h-0.5v137
	c-0.4,0.2-0.8,0.4-1.1,0.7c-0.2,0.1-0.4,0.2-0.5,0.4c-2.3,1.8-3.7,4.5-3.7,7.6c0,1.2,0.2,2.3,0.6,3.3c0.1,0.2,0.1,0.3,0.2,0.4v0.1
	c0.1,0.3,0.2,0.5,0.4,0.8c0.2,0.4,0.5,0.8,0.8,1.2c0.1,0.1,0.2,0.2,0.3,0.4c0.3,0.4,0.6,0.7,1,1c0.1,0.1,0.2,0.2,0.4,0.3
	c0.1,0.1,0.2,0.2,0.4,0.3c0.2,0.2,0.5,0.4,0.8,0.5c0.1,0.1,0.3,0.2,0.4,0.2c0.1,0.1,0.3,0.1,0.4,0.2c0.1,0.1,0.3,0.1,0.4,0.2
	c0.1,0.1,0.3,0.1,0.4,0.2c0.1,0,0.1,0,0.2,0.1c0.2,0.1,0.5,0.2,0.7,0.2s0.3,0.1,0.5,0.1s0.3,0.1,0.5,0.1s0.5,0.1,0.7,0.1h0.9
	c-5.2-0.1-9.6-4.5-9.9-9.6c0-3.7,2-6.8,5-8.5c0.1-0.1,0.2-0.1,0.3-0.2c0.1,0,0.1-0.1,0.2-0.1v-0.1c0.1,0,0.1,0,0.2,0
	c1.2-0.5,2.5-0.8,3.8-0.8c1.5,0,3,0.4,4.3,1c0,0,0.1,0,0.1,0.1c3.2,1.5,5.4,4.8,5.4,8.6c0,1.9-0.6,3.7-1.5,5.2
	c0.8-1.2,1.3-2.5,1.5-3.9c0-0.3,0.1-0.6,0.1-0.9c0-0.1,0-0.3,0-0.4C366.7,739.1,366.7,738.9,366.7,738.7z M365.1,744.5
	c-0.2,0.2-0.3,0.5-0.5,0.7C364.8,745,364.9,744.7,365.1,744.5z M361.2,699.9v9.1H395v-9.1H361.2z M382.1,556.9
	c-0.8-1.1-1.3-2.3-1.8-3.6c-1.6-2.7-2.3-5.7-2.3-8.8c0-8.6,5.1-18.6,10.9-27.1c0,0,0-0.1,0.1-0.1c-2-4.2-6.8-12.5-15.1-16
	c-0.6,0.3-1.5,0.7-2.8,0.8c-0.9,0.1-3.1,0.5-6,0.8c-0.1,0-0.3,0-0.4,0c-0.6,0-1.1,0.1-1.7,0.1c-0.4,0-0.9,0-1.3,0
	c-0.9,0-1.8,0-2.8,0c-0.5,0-0.9,0-1.4-0.1c-0.3,0-0.6,0-0.9-0.1c-9.2-0.7-20-4.5-24.2-17.4c-2.4-7.5,1.2-14.9,6.7-21.2
	c0.3-0.3,0.6-0.7,0.9-1s0.6-0.7,1-1c0.3-0.3,0.7-0.7,1-1c0.7-0.7,1.4-1.3,2.1-2l0,0l0.1-0.1H344l-64.8-1.5h-2.3h-0.3l-0.1,0.1l0,0
	l-0.7,0.8l0,0l-0.2,0.3l1-0.8l0,0l0.1,0.2l82.6,111.2H395V564C388.9,562.3,384.1,559.9,382.1,556.9z M374.9,499.8c0,0,0,0.2-0.2,0.5
	h0.1c0.2,0,0.5,0,0.8,0c1.7-0.1,3.3-0.6,4.9-1.4c0.3-0.1,0.5-0.2,0.8-0.4C377.6,499.5,374.9,499.8,374.9,499.8z M349.6,593.4h-0.4
	h-0.4l0.3,0.4l0.2-0.2l0.2-0.1L349.6,593.4h0.2H349.6z"/>
<path class="st0" d="M395.1,709v40H357c5.4,0,9.7-4.4,9.7-9.7c0-3.8-2.2-7.2-5.4-8.7v-21.5L395.1,709L395.1,709z"/>
<rect x="361.2" y="593.5" class="st0" width="33.8" height="106.4"/>
<path class="st0" d="M381.2,498.5c-2,1.1-4.2,1.7-6.5,1.8c0.2-0.3,0.2-0.5,0.2-0.5S377.6,499.5,381.2,498.5z"/>
<path class="st0" d="M415.2,568.4c0,0.4,0,0.8-0.1,1.2h-55.9l-82.8-111.4l0,0l-1,0.8l1.1-1.2h0.4l67.1,1.5
	c-8,7.2-14.9,16.7-11.8,26.3c7.4,22.7,34.7,17.1,38.7,16.6c1.3-0.2,2.2-0.5,2.8-0.8l0,0c8.4,3.5,13.2,11.7,15.1,16
	c-7.9,11.6-14.6,26.1-8.6,36l0,0c0.5,1.2,1.1,2.4,1.8,3.6c2,3,6.9,5.4,13,7.3C401.2,566.1,408.6,567.5,415.2,568.4z"/>
<path class="st0" d="M429.6,489.4c-14,1.4-22.9,7-24.8,8.3c-2.5-2.1-5.9-5.1-8.9-7.7c-0.3,0.4-0.6,0.8-0.9,1.2v-7.9
	c1-1.9,1.6-3.1,1.6-3.1c1.9-5.1-11.4-14.9-21.1-20.3l34.7,0.7L429.6,489.4z"/>
<polygon class="st0" points="349.9,593.5 349.6,593.6 349.2,593.9 348.9,593.5 "/>
<path class="st0" d="M414.9,577.6c-0.2,5.8-0.3,11.3-0.2,15.9h-61.4v-0.1h-2.8l-0.1,0.1h-0.7l-0.1-0.1h-75.3c-3.3,0-6.3-1.3-8.4-3.5
	c-2.2-2.2-3.5-5.1-3.5-8.4c0-5.7,4-10.4,9.3-11.6c0.7-0.1,1.4-0.2,2.2-0.2h57.6l-37.8-50.8l-11.6-15.6v-0.9l-14.7-19.8
	c-4.6-6.1-3.3-14.8,2.9-19.4l5.9-4.4l0,0l0.6-0.6l82.8,111.4h55.9C415.1,572.3,414.9,575,414.9,577.6z"/>
<path class="st0" d="M266.6,482.7c-4.6-6.1-3.3-14.8,2.9-19.4l5.9-4.4l0,0l1-0.8l0,0l-0.6,0.6l0,0l-5.9,4.4
	c-6.2,4.6-7.4,13.3-2.9,19.4l14.7,19.8v0.7l-0.5-0.6L266.6,482.7z"/>
<path class="st0" d="M349.4,593.4L349.4,593.4l-75.8,0.1c-3.3,0-6.3-1.3-8.4-3.5c-2.2-2.2-3.5-5.1-3.5-8.4c0-5.8,4.2-10.7,9.7-11.7
	c-5.3,1.2-9.3,5.9-9.3,11.6c0,3.3,1.3,6.3,3.5,8.4c2.2,2.2,5.1,3.5,8.4,3.5L349.4,593.4L349.4,593.4z"/>
<rect x="352.6" y="593.4" class="st0" width="0.5" height="0.1"/>
<polygon class="st0" points="352.6,593.4 352.6,593.5 350.2,593.5 350.4,593.4 "/>
<path class="st0" d="M783.9,593.5h-5.5V588C778.4,591,780.9,593.5,783.9,593.5z"/>
<path class="st0" d="M794.4,593.5h-1.5v-0.2C793.2,593.4,793.9,593.5,794.4,593.5z"/>
<path class="st0" d="M361.2,593.5v137c-1.3-0.6-2.8-1-4.3-1c-1.4,0-2.6,0.3-3.8,0.8V593.5H361.2z"/>
<path class="st0" d="M361.2,730.5v0.2c0,0-0.1,0-0.1-0.1c-1.3-0.6-2.8-1-4.3-1c-1.3,0-2.6,0.3-3.8,0.8c-0.1,0-0.1,0-0.2,0v0.1
	c-0.1,0-0.1,0.1-0.2,0.1V593.5h0.5v136.8c0.2-0.1,0.3-0.1,0.5-0.2c0.2,0,0.3-0.1,0.5-0.2c0.3-0.1,0.6-0.2,0.9-0.2s0.6-0.1,1-0.2
	c0.3,0,0.7,0,1,0C358.4,729.5,359.9,729.9,361.2,730.5z"/>
<path class="st0" d="M794.4,593.5h-1.5v-0.2C793.2,593.4,793.9,593.5,794.4,593.5z"/>
<polygon class="st0" points="590.4,704.9 590.6,709 512.6,709 512.6,699.9 590.2,699.9 590.2,700.1 "/>
<path class="st0" d="M656.3,704.8c0.3,1.4,0.6,2.8,0.9,4.2h-29.8c0.2-1.4,0.3-2.8,0.5-4.1c0.2-1.6,0.4-3.2,0.6-4.8
	c0-0.1,0-0.1,0-0.2h26.7C655.6,701.5,656,703.2,656.3,704.8z"/>
<polygon class="st0" points="792.9,699.9 792.9,709 687.4,709 687.1,704.5 686.8,699.9 "/>
<rect x="352.6" y="699.9" class="st0" width="0.5" height="9.1"/>
<rect x="361.2" y="699.9" class="st0" width="142.7" height="9.1"/>
<rect x="801.4" y="699.9" class="st0" width="56.3" height="9.1"/>
<path class="st0" d="M357.3,748.9L357.3,748.9c-5.3-0.1-9.7-4.5-10-9.6c0-3.7,2-6.8,5-8.5c0.1-0.1,0.2-0.1,0.3-0.2
	c0.1,0,0.1-0.1,0.2-0.1v-0.1c-0.1,0-0.1,0.1-0.2,0.1h-0.1c-0.4,0.2-0.7,0.4-1,0.6c-0.2,0.1-0.4,0.2-0.5,0.4
	c-2.3,1.7-3.8,4.6-3.8,7.7c0,1.1,0.2,2.3,0.6,3.3c0.1,0.1,0.1,0.3,0.2,0.4c0,0.1,0,0.1,0,0.1c0.1,0.3,0.3,0.6,0.4,0.8
	c0.3,0.4,0.5,0.8,0.8,1.2c0.1,0.2,0.2,0.3,0.3,0.4c0.3,0.3,0.6,0.7,1,1c0.2,0.1,0.3,0.2,0.4,0.3s0.3,0.2,0.4,0.3
	c0.3,0.2,0.5,0.3,0.8,0.5c0.1,0.1,0.3,0.1,0.4,0.2c0.1,0.1,0.3,0.1,0.4,0.2c0.1,0.1,0.3,0.1,0.4,0.2c0.1,0.1,0.3,0.2,0.4,0.2
	c0.1,0.1,0.1,0.1,0.2,0.1c0.2,0.1,0.4,0.1,0.7,0.2c0.2,0,0.3,0.1,0.5,0.1s0.3,0.1,0.5,0.1c0.2,0.1,0.4,0.1,0.7,0.1h0.8
	c0.1,0,0.3,0,0.4,0c2.1-0.1,4-0.9,5.5-2.1C361.3,748.1,359.4,748.8,357.3,748.9z"/>
<path class="st0" d="M361.2,730.7c0,0-0.1,0-0.1-0.1c-1.3-0.6-2.8-1-4.3-1c-1.3,0-2.6,0.3-3.8,0.8c-0.1,0-0.1,0-0.2,0v0.1
	c-0.1,0-0.1,0.1-0.2,0.1c-0.1,0.1-0.2,0.1-0.3,0.2c-3,1.7-5,4.8-5,8.5c0.3,5.1,4.7,9.5,9.9,9.6h0.1c2.1-0.1,4.1-0.8,5.6-2
	c0.2-0.2,0.4-0.4,0.6-0.5c0.2-0.2,0.4-0.3,0.5-0.5c0.2-0.2,0.4-0.4,0.6-0.7c1.2-1.6,2-3.7,2-5.9
	C366.6,735.4,364.4,732.2,361.2,730.7z M357,744.6c-3.1,0.1-5.4-2.4-5.4-5.4c0-1.2,0.4-2.2,1-3.1c1-1.4,2.6-2.3,4.4-2.3
	c1.7,0,3.2,0.8,4.2,2c0.8,0.9,1.2,2.1,1.2,3.4C362.4,742.2,360,744.6,357,744.6z"/>
<path class="st0" d="M362.4,739.2c0,3-2.4,5.4-5.4,5.4c-3.1,0.1-5.4-2.4-5.4-5.4c0-1.2,0.4-2.2,1-3.1c1-1.4,2.6-2.3,4.4-2.3
	c1.7,0,3.2,0.8,4.2,2C362,736.7,362.4,737.9,362.4,739.2z"/>
<path class="st0" d="M395.1,516.1c-2.2,1.9-4.1,3.4-5.1,3.8c0,0-0.3-1-1.1-2.6c-2-4.2-6.8-12.5-15.1-16c0.6-0.3,0.9-0.7,1-1
	c2.3,0,4.5-0.7,6.5-1.8c4.5-1.2,10.4-3.4,13.8-7.3c0.3-0.4,0.6-0.8,0.9-1.2c3,2.6,6.4,5.6,8.9,7.7c1.5,1.3,2.7,2.3,3.2,2.6
	C409.6,501.4,401.1,510.7,395.1,516.1z"/>
<path class="st0" d="M458.1,492.4c-3.2,2.2-10,7.1-17.1,13.8l0,0c-7.8,7.4-16,17.1-19.9,27.6c-0.6,1.6-1.1,3.4-1.6,5.3
	c0,0.1-0.1,0.2-0.1,0.4c0,0.1-0.1,0.3-0.1,0.4c-1.6,6.2-2.7,13.5-3.4,21c-0.2,2.5-0.4,5-0.6,7.5c-6.6-0.9-14-2.3-20.3-4.2
	c-6-1.8-11-4.3-13-7.3c-0.8-1.1-1.3-2.3-1.8-3.6l0,0c-6-9.9,0.7-24.4,8.6-36c0.7,1.6,1.1,2.6,1.1,2.6c1.1-0.4,2.9-1.8,5.1-3.8
	c6.1-5.4,14.6-14.7,13-15.8c-0.5-0.3-1.6-1.3-3.2-2.6c2-1.3,10.9-6.9,24.8-8.3c6.7-0.7,14.6-0.4,23.4,1.8
	C454.2,491.5,455.9,491.9,458.1,492.4z"/>
<polygon class="st0" points="293.4,518.8 293.4,569.6 281.4,569.6 281.4,502.5 281.9,503.2 "/>
<path class="st0" d="M381.2,498.5c-2,1.1-4.2,1.7-6.5,1.8c0.2-0.3,0.2-0.5,0.2-0.5S377.6,499.5,381.2,498.5z"/>
<path class="st0" d="M395.9,490.1c-0.3,0.4-0.6,0.8-0.9,1.2v-2C395.4,489.5,395.6,489.8,395.9,490.1z"/>
<path class="st0" d="M395.9,490.1c-0.3,0.4-0.6,0.8-0.9,1.2v-2C395.4,489.5,395.6,489.8,395.9,490.1z"/>
<g>
	<path class="st0" d="M396.6,480.2c0,0-0.6,1.2-1.6,3.1v7.9c-3.3,3.9-9.2,6.1-13.8,7.3c-3.6,1-6.3,1.3-6.3,1.3s-0.9-2.4-2.5-4.6
		c-1.2-1.6-2.9-3.1-4.9-3.2c0,0-5.3,1-6.1-2.1c-0.8-3.2,3-2.2,3.8-3.7c0.7-1.3-1-5.4-3.8-8.3c-0.5-0.5-1-0.9-1.5-1.3
		c-3.3-2.4,8-10.4,12-16.9l3.6,0.1C385.2,465.3,398.6,475.1,396.6,480.2z"/>
	<path class="st0" d="M375.6,459.9l-3.6-0.1c0.3-0.5,0.6-1,0.8-1.4C373.6,458.8,374.6,459.4,375.6,459.9z"/>
	<path class="st0" d="M381.2,498.5c-2,1.1-4.2,1.7-6.5,1.8c0.2-0.3,0.2-0.5,0.2-0.5S377.6,499.5,381.2,498.5z"/>
</g>
<g>
	<path class="st0" d="M374.9,499.8c0,0,0,0.2-0.2,0.5s-0.5,0.6-1,1l0,0c-0.6,0.3-1.5,0.7-2.8,0.8c-3.9,0.5-31.3,6.1-38.7-16.6
		c-3.1-9.6,3.8-19.1,11.8-26.3l0.1-0.1c0.2-0.2,0.3-0.3,0.5-0.5c0.2-0.1,0.3-0.3,0.5-0.4c6.5-5.7,13.5-9.9,16-11.4
		c9.7-6,13.9,3.8,12.1,10.5c-0.1,0.4-0.2,0.7-0.4,1.1c-0.2,0.5-0.5,0.9-0.8,1.4c-4,6.5-15.3,14.5-12,16.9c0.5,0.4,1,0.8,1.5,1.3
		c2.8,2.9,4.6,7,3.8,8.3c-0.9,1.5-4.6,0.5-3.8,3.7s6.1,2.1,6.1,2.1c2,0.2,3.7,1.6,4.9,3.2C374.1,497.4,374.9,499.8,374.9,499.8z"/>
</g>
<path class="st0" d="M792.9,593.3v0.2h-8.8c-3,0-5.5-2.5-5.5-5.5v-84.4c0-3,2.5-5.5,5.5-5.5h10.3c-3,0-5.5,2.5-5.5,5.5V588
	C788.8,590.5,790.6,592.6,792.9,593.3z"/>
<path class="st0" d="M794.4,593.5h-1.5v-0.2C793.2,593.4,793.9,593.5,794.4,593.5z"/>
<path class="st0" d="M858.8,587.8c0,3.1-2.5,5.6-5.6,5.6h-58.8c-0.5,0-1-0.1-1.5-0.2c-2.3-0.6-4-2.8-4-5.3v-84.4
	c0-3,2.5-5.5,5.5-5.5H853c3.1,0,5.6,2.5,5.6,5.6L858.8,587.8z"/>
<path class="st0" d="M504.1,608v91.9H395V593.5h19.5c0,8.3,0.3,13.9,0.3,13.9s43.6,2.8,89.1,0.6C504.1,608,504.1,608,504.1,608z"/>
<path class="st0" d="M600.3,509.7c0,0.5-0.1,1-0.1,1.5c-0.5,4.4-1,9-1.5,13.6c0,0.1,0,0.2,0,0.3c-0.5,4.5-0.9,9.2-1.4,13.8
	c-0.2,1.8-0.4,3.6-0.5,5.4l0,0c0.2,0,0.5,0,0.7,0.1v0.2l-1.5,18.3l-0.2,2.1l-0.7,8.4l-2.1,25.9l-0.7,8.4h-0.1
	c-32.4-1-61.5-1.4-78.1-0.3c-0.5,0-0.9,0.1-1.3,0.1h-0.1c-2.8,0.2-5.7,0.3-8.5,0.5c0,0,0,0-0.1,0c-33.2,1.6-65.5,0.5-80.4-0.1
	c-0.3,0-0.5,0-0.8,0c-0.8,0-1.6-0.1-2.3-0.1c-0.6,0-1.2-0.1-1.7-0.1c-0.3,0-0.6,0-0.8,0c-0.2,0-0.4,0-0.5,0c-0.4,0-0.8,0-1.1-0.1
	c-0.1,0-0.1,0-0.2,0s-0.3,0-0.4,0s-0.2,0-0.3,0c-0.1,0-0.2,0-0.3,0c-0.1,0-0.1,0-0.2,0s-0.1,0-0.1,0s-0.3-5.6-0.3-13.9
	c0-4.6,0-10.1,0.2-15.9c0.1-2.6,0.2-5.3,0.4-8c0-0.4,0-0.8,0.1-1.2l0.6-7.5c0.1-0.9,0.2-1.9,0.3-2.8c0.7-6,1.6-11.8,2.8-17
	c0.1-0.4,0.2-0.8,0.3-1.2c0-0.1,0.1-0.3,0.1-0.4c0-0.1,0.1-0.2,0.1-0.3v-0.1c0.1-0.5,0.2-0.9,0.4-1.4c0.4-1.4,0.8-2.6,1.2-3.9
	c0.2-0.7,0.5-1.3,0.8-2c3.9-9.1,10.7-17.5,17.7-24.2c0.5-0.5,1-1,1.5-1.4c3.5-3.4,7-6.2,10-8.6c3-2.3,5.5-4.1,7.1-5.2
	c1.2-0.8,1.8-1.2,1.8-1.2c33.5,0.7,92.9,12.5,140.1,18.5h0.1C600.2,509.7,600.2,509.7,600.3,509.7z"/>
<path class="st0" d="M664.6,557.9c0.1-0.2,0.1-0.3,0.2-0.5c-0.1,0.2-0.1,0.4-0.2,0.7c-0.3,0.8-0.5,1.5-0.8,2.3
	c-0.3,0.9-0.6,1.7-0.9,2.6c-0.2,0.7-0.5,1.4-0.7,2.1c0,0.1-0.1,0.2-0.1,0.3c-0.3,0.8-0.6,1.7-0.9,2.5c-0.1,0.4-0.3,0.9-0.4,1.3
	c-0.2,0.4-0.3,0.9-0.4,1.3c-0.3,1-0.7,2-1,3c-0.1,0.3-0.2,0.7-0.3,1c-0.3,0.8-0.5,1.6-0.8,2.4c-0.4,1.3-0.8,2.5-1.2,3.8
	c-0.2,0.6-0.4,1.3-0.6,1.9c0,0.2-0.1,0.3-0.2,0.5c-0.2,0.7-0.5,1.5-0.7,2.2c0,0.1,0,0.1-0.1,0.2c-0.3,0.8-0.5,1.6-0.8,2.5
	c-1.5,4.7-3.1,9.5-4.6,14.2c-0.4,1.3-0.9,2.7-1.3,4c-0.4,1.2-0.8,2.3-1.1,3.4c-0.1,0-0.1,0-0.2,0c0.4-1.2,0.7-2.4,1.2-3.6
	c0.4-1.3,0.8-2.6,1.3-4c1.5-4.7,3.1-9.5,4.6-14.2c0.3-0.8,0.5-1.7,0.8-2.5c0-0.1,0-0.1,0.1-0.2c0.2-0.7,0.5-1.5,0.7-2.2
	c0.1-0.2,0.1-0.3,0.2-0.5c0.2-0.6,0.4-1.3,0.6-1.9c0.4-1.3,0.8-2.5,1.3-3.8c0.3-0.8,0.5-1.6,0.8-2.4c0.1-0.3,0.2-0.7,0.3-1
	c0.3-1,0.7-2,1-3c0.1-0.4,0.3-0.9,0.4-1.3c0.1-0.4,0.3-0.9,0.4-1.3c0.3-0.8,0.6-1.7,0.9-2.5c0-0.1,0.1-0.2,0.1-0.3
	c0.2-0.7,0.5-1.4,0.7-2.1c0.3-0.9,0.6-1.7,0.9-2.6C664.1,559.4,664.3,558.7,664.6,557.9z"/>
<path class="st0" d="M666.1,553.2c0.1-0.2,0.2-0.4,0.2-0.7c-0.1,0.3-0.2,0.6-0.2,0.9c-0.2,0.7-0.5,1.5-0.7,2.2
	c-0.1,0.2-0.1,0.3-0.2,0.5c0.1-0.2,0.1-0.4,0.2-0.7C665.6,554.7,665.9,553.9,666.1,553.2z"/>
<path class="st0" d="M597.4,544.6c0.1,0,0.1,0,0.2,0l-1.5,18.5l-0.2,2.1l-0.7,8.4l-2.1,25.9l-0.7,8.2c-0.1,0-0.1,0-0.2,0h-0.1
	l0.7-8.4l2.1-25.9l0.7-8.4l0.2-2.1L597.4,544.6l-0.1-0.2c-0.2,0-0.4,0-0.6-0.1h-0.1c0.2-1.8,0.4-3.6,0.5-5.4
	c1-9.5,1.9-18.9,2.8-27.8c0-0.5,0.1-1,0.1-1.4v-0.1h0.1c0,0,0,0,0,0.1c0.1,0,0.1,0,0.2,0c0,0.5-0.1,1-0.1,1.5c-0.5,4.4-1,9-1.5,13.6
	c0,0.1,0,0.2,0,0.3c-0.5,4.6-0.9,9.3-1.4,14c-0.1,1.7-0.3,3.5-0.5,5.2c0.2,0,0.5,0,0.7,0.1v0.2C597.4,544.6,597.4,544.6,597.4,544.6
	z"/>
<path class="st0" d="M597.6,544.6c0.9,0.1,1.8,0.1,2.7,0.2c-0.1,0-0.2,0-0.2,0C599.3,544.7,598.4,544.7,597.6,544.6L597.6,544.6z"/>
<path class="st0" d="M605,545.1c0.2,0,0.5,0,0.7,0.1c-0.3,0-0.6,0-0.9-0.1c-1-0.1-1.9-0.1-2.9-0.2c-0.5,0-1.1-0.1-1.6-0.1
	c0.1,0,0.2,0,0.2,0c0.5,0,1.1,0.1,1.6,0.1C603,545,604,545,605,545.1z"/>
<path class="st0" d="M605.9,545.2c0.8,0,1.7,0.1,2.6,0.1C607.6,545.3,606.8,545.2,605.9,545.2z"/>
<path class="st0" d="M612.2,545.5c0.5,0,1,0,1.5,0.1h-0.2c-0.5,0-1-0.1-1.5-0.1c-0.6,0-1.3-0.1-1.9-0.1c-0.5,0-1,0-1.5-0.1h0.2
	c0.5,0,1,0.1,1.5,0.1C610.9,545.4,611.5,545.5,612.2,545.5z"/>
<path class="st0" d="M614.9,545.6c2.8,0.1,5.8,0.2,8.8,0.3h-0.2c-3.1-0.1-6-0.2-8.8-0.3H614.9z"/>
<path class="st0" d="M626.4,545.9c1.5,0,3,0,4.6,0.1h-0.2c-1.6,0-3.1,0-4.6-0.1H626.4z"/>
<path class="st0" d="M685.2,543.5c0,0.1,0,0.2,0,0.3c-5.6,0.5-11.1,0.9-16.3,1.2l0,0c-0.1,0.3-0.2,0.6-0.3,0.9
	c-0.2,0.7-0.5,1.3-0.7,2s-0.5,1.4-0.7,2.1c-0.1,0.3-0.2,0.5-0.3,0.8c0.1-0.4,0.2-0.7,0.3-1c0.2-0.7,0.5-1.4,0.7-2.1
	c0.2-0.7,0.5-1.4,0.7-2c0.1-0.2,0.1-0.5,0.2-0.7c-9.7,0.6-18.9,0.9-27.3,1c8.4-0.3,17.7-0.6,27.4-1.1c0-0.1,0-0.1,0.1-0.2
	C674.2,544.4,679.6,544,685.2,543.5z"/>
<path class="st0" d="M778.4,519.8V608c0,0-7.1,2.4-31.6,4.3c-8.5,0.6-33.2-0.2-64-1.3c0.2-11.9,0.4-25.6,0.8-37.8
	c0.1-2.9,0.2-5.7,0.3-8.4c0-0.7,0.1-1.4,0.1-2.1c0.3-7.7,0.7-14.4,1.2-18.9l0,0c0.9,0,1.8-0.1,2.7-0.2c-0.1-1.5-0.1-3-0.1-4.5
	c-0.1-8-0.2-15.7-0.3-22.8v-0.2C733.7,518.4,778.4,519.8,778.4,519.8z"/>
<line class="st0" x1="857.6" y1="699.9" x2="857.6" y2="591.1"/>
<path class="st0" d="M542.8,484.5c-0.3,0.1-0.6,0.2-0.9,0.3c0-0.1,0.1-0.1,0.1-0.2C542.2,484.5,542.4,484.5,542.8,484.5z"/>
<path class="st0" d="M557.4,495.1l-37.9,2.5C533.4,496.3,547.1,495.3,557.4,495.1z"/>
<polygon class="st0" points="557.4,495.1 557.4,495.1 557.4,494.9 "/>
<polygon class="st0" points="557.4,495.1 557.4,495.1 557.4,494.9 "/>
<g>
	<path class="st0" d="M557.4,495.1c-10.2,0.2-24,1.2-37.9,2.5h-0.2c0,0-0.5-0.1,6.9-6c3.3-2.6,9.7-5,15.8-6.8
		c0.3-0.1,0.6-0.2,0.9-0.3c0.1,0,0.3-0.1,0.4-0.1c0.4-0.1,0.8-0.2,1.2-0.3c3.5-1,6.8-1.8,9-2.3l0.7,2.4l0.5,1.6L557.4,495.1
		L557.4,495.1z"/>
	<path class="st0" d="M557.4,495.1l-37.9,2.5C533.4,496.3,547.1,495.3,557.4,495.1z"/>
	<path class="st1" d="M708,368.1c-0.3-0.3-0.5-0.5-0.7-0.7c-5.2-4.9-17-6.8-17-6.8s-3.3-0.4-8.3-0.9s-11.6-1.1-18.3-1.5
		c-7-0.4-14.4-0.5-19.6,0.4c0,0,0,0,0.1,0c7,2,13.3,8.3,13.9,16.6c0.5,8.7-2.9,20.8-7.2,32.4l-20.5,59.7c-1.7,4.9-5.6,8.7-10.5,10.3
		l-9.4,3L603,483h-0.1c-0.8,8-1.8,17-2.8,26.6c0,0,0,0,0,0.1c0.1,0,0.1,0,0.2,0c0,0.5-0.1,1-0.1,1.5c-0.5,4.4-1,9-1.5,13.6
		c0,0.1,0,0.2,0,0.3c-0.5,4.6-0.9,9.3-1.4,14c-0.1,1.7-0.3,3.5-0.5,5.2c0.2,0,0.5,0,0.7,0.1v0.2l0,0c0.1,0,0.1,0,0.2,0l0,0
		c0.9,0.1,1.8,0.1,2.7,0.2c0.1,0,0.2,0,0.2,0c0.5,0,1.1,0.1,1.6,0.1c0.9,0.1,1.9,0.1,2.9,0.2c0.2,0,0.5,0,0.7,0.1c0.1,0,0.1,0,0.2,0
		c0.8,0,1.7,0.1,2.6,0.1h0.1h0.2c0.5,0,1,0.1,1.5,0.1c0.6,0,1.2,0.1,1.9,0.1c0.5,0,1,0,1.5,0.1h1.2c2.8,0.1,5.8,0.2,8.8,0.3h2.7
		c1.5,0,3,0,4.6,0.1h10.3c0,0,0.1,0,0.2,0c8.4-0.3,17.7-0.6,27.4-1.1c0-0.1,0-0.1,0.1-0.2c5.3-0.3,10.7-0.7,16.3-1.2
		c0,0.1,0,0.2,0,0.3l0,0c0.9,0,1.8-0.1,2.7-0.2c-0.1-1.5-0.1-3-0.1-4.5c-0.1-8-0.2-15.7-0.3-22.8v-0.2c0-4.4-0.1-8.7-0.1-12.6
		c-0.1-14.8-0.1-26,0.2-30.6c0.8-5.7,1.5-10.6,2.2-15.5c0.1-0.6,0.2-1.2,0.4-1.7c1.8-2.3,3.7-4.8,5.3-7.3
		c0.9-0.2,22.4-33.7,22.6-60.6v-0.3C718.1,380.6,714.1,373,708,368.1z M626.7,488c0.6-0.2,1.3-0.4,2.1-0.7c0.7-0.2,1.5-0.6,2.3-1
		c1.6-0.8,3.2-1.8,4.8-3c1.6-1.3,2.9-2.7,4-4c0.5-0.7,1-1.4,1.4-2s0.8-1.3,1.1-1.9c1.2-2.3,1.5-3.9,1.7-3.9c0,0-0.1,0.4-0.3,1.1
		c-0.1,0.4-0.2,0.8-0.4,1.3s-0.4,1.1-0.7,1.7s-0.6,1.3-1.1,1.9c-0.4,0.7-0.9,1.4-1.4,2.1c-1.1,1.4-2.4,2.8-4,4.1
		c-1.6,1.3-3.3,2.3-4.9,3.1c-0.8,0.4-1.6,0.7-2.3,0.9c-0.7,0.3-1.5,0.5-2.1,0.6c-0.6,0.2-1.3,0.3-1.8,0.3c-0.5,0.1-1,0.1-1.4,0.2
		c-0.7,0-1.2,0.1-1.2,0C622.5,488.7,624.2,488.7,626.7,488z"/>
	<path class="st1" d="M596.7,544.3c0.2,0,0.5,0,0.7,0.1v0.2h-0.1c-0.2,0-0.4,0-0.6-0.1C596.7,544.5,596.7,544.4,596.7,544.3
		L596.7,544.3z"/>
	<path class="st1" d="M597.6,544.6c0.9,0.1,1.8,0.1,2.7,0.2c-0.1,0-0.2,0-0.2,0C599.3,544.7,598.4,544.7,597.6,544.6L597.6,544.6z"
		/>
	<path class="st1" d="M600.2,511.2c-0.5,4.4-1,9-1.5,13.6c0.5-4.6,0.9-9.1,1.3-13.5c0-0.5,0.1-1,0.1-1.5v-0.1c0.1,0,0.1,0,0.2,0
		C600.3,510.2,600.2,510.7,600.2,511.2z"/>
	<path class="st1" d="M605,545.1c0.2,0,0.5,0,0.7,0.1c-0.3,0-0.6,0-0.9-0.1c-1-0.1-1.9-0.1-2.9-0.2c-0.5,0-1.1-0.1-1.6-0.1
		c0.1,0,0.2,0,0.2,0c0.5,0,1.1,0.1,1.6,0.1C603,545,604,545,605,545.1z"/>
	<path class="st1" d="M612.2,545.5c0.5,0,1,0,1.5,0.1h-0.2c-0.5,0-1-0.1-1.5-0.1c-0.6,0-1.3-0.1-1.9-0.1c-0.5,0-1,0-1.5-0.1h0.2
		c0.5,0,1,0.1,1.5,0.1C610.9,545.4,611.5,545.5,612.2,545.5z"/>
	<path class="st1" d="M614.9,545.6c2.8,0.1,5.8,0.2,8.8,0.3h-0.2c-3.1-0.1-6-0.2-8.8-0.3H614.9z"/>
	<path class="st1" d="M626.4,545.9c1.5,0,3,0,4.6,0.1h-0.2c-1.6,0-3.1,0-4.6-0.1H626.4z"/>
	<path class="st1" d="M641.6,477.5c-0.4,0.7-0.9,1.4-1.4,2.1c-1.1,1.4-2.4,2.8-4,4.1c-1.6,1.3-3.3,2.3-4.9,3.1
		c-0.8,0.4-1.6,0.7-2.3,0.9c-0.7,0.3-1.5,0.5-2.1,0.6c-0.6,0.2-1.3,0.3-1.8,0.3c-0.5,0.1-1,0.1-1.4,0.2c-0.7,0-1.2,0.1-1.2,0
		s1.7-0.1,4.2-0.8c0.6-0.2,1.3-0.4,2.1-0.7c0.7-0.2,1.5-0.6,2.3-1c1.6-0.8,3.2-1.8,4.8-3c1.6-1.3,2.9-2.7,4-4c0.5-0.7,1-1.4,1.4-2
		s0.8-1.3,1.1-1.9c1.2-2.3,1.5-3.9,1.7-3.9c0,0-0.1,0.4-0.3,1.1c-0.1,0.4-0.2,0.8-0.4,1.3s-0.4,1.1-0.7,1.7
		C642.4,476.2,642.1,476.9,641.6,477.5z"/>
	<path class="st1" d="M603,483L603,483L603,483l7.4-2.4l9.4-3c4.9-1.6,8.8-5.4,10.5-10.3l20.5-59.7c4.3-11.6,7.6-23.7,7.1-32.4
		c-0.5-8.3-6.8-14.6-13.9-16.6h0.1c0,0,0,0,0.1,0c7,2,13.3,8.3,13.9,16.6c0.5,8.7-2.9,20.8-7.2,32.4l-20.5,59.7
		c-1.7,4.9-5.6,8.7-10.5,10.3l-9.4,3L603,483z"/>
	<path class="st1" d="M685.2,543.5c0,0.1,0,0.2,0,0.3c-5.6,0.5-11.1,0.9-16.3,1.2l0,0c0,0,0,0-0.1,0c-9.7,0.6-18.9,0.9-27.3,1
		c8.4-0.3,17.7-0.6,27.4-1.1c0-0.1,0-0.1,0.1-0.2C674.2,544.4,679.6,544,685.2,543.5z"/>
	<path class="st0" d="M618.1,785.9c-3.1-0.7-8.4,3.6-12.5,3.1c-4.3-0.6-12.6-2.9-12.6-2.9c-0.3,0.1-0.7,0.2-1,0.3
		c0.1-0.1,0.3-0.2,0.5-0.2c0.7-0.3,4.5-2.6,4.7-5.1c0.2-2.3,0.6-6.1,1-8.8c0-0.1,0-0.1,0-0.2l19.2,0.5c0,0.1,0,0.1,0,0.2
		C617.6,777.3,618.1,784.3,618.1,785.9z"/>
	<path class="st0" d="M621.8,800.4c0,0-44.7,3.7-57.3-0.1c-4.9-1.5,10.9-8.5,27.6-13.8c0.3-0.1,0.7-0.2,1-0.3c0,0,8.3,2.3,12.6,2.9
		c4.1,0.5,9.4-3.8,12.5-3.1c0.1,0,0.3,0.1,0.4,0.1C621.9,787.5,621.8,800.4,621.8,800.4z"/>
	<path class="st0" d="M689.9,769.2L689.9,769.2l-12.1,0.3l-6.5,0.1h-0.1c0-0.3,0-0.4,0-0.4l6.2-0.1l12.4-0.2v0.1
		C689.8,769.1,689.8,769.1,689.9,769.2z"/>
	<path class="st0" d="M694.2,800.4c0,0-44.9,4.3-57.6-0.1c-11.9-4.1,2.9-6.2,27.1-13.7c0.5-0.1,1-0.3,1.5-0.5
		c0.5-0.3,1.9-1.4,3.1-2.7c1.3-1.3,2.5-2.8,2.6-4c0.2-1.7,0.2-3.8,0.2-5.7v-4.1h0.2l6.5-0.1l12-0.3c0.1,1.9,0.9,15,1,16.8
		c1.5,0.7,2.3,3.6,2.8,6.6C694.2,796.5,694.2,800.4,694.2,800.4z"/>
	<path class="st0" d="M671.9,333.7L671.9,333.7C671.9,333.8,671.9,333.8,671.9,333.7C671.9,333.8,671.9,333.7,671.9,333.7z"/>
	<path class="st0" d="M666.6,344.3c-0.1,1.2-0.3,2.3-0.4,3.5l0,0C666.4,346.6,666.6,345.4,666.6,344.3L666.6,344.3z"/>
	<path class="st0" d="M690.6,360.6c0,0-13.3-1.7-26.6-2.4l0,0l0.1-0.3v-0.1c0.4-1.5,1.5-5.6,2.2-10c0.2-1.1,0.3-2.3,0.4-3.5l0,0
		c-3.1-0.1-5.8-0.8-7.7-2.4c3.3,0.1,7-3.5,7.6-4.1l0,0v-0.1l0,0l0,0l0,0l1.3-2.8l0,0l5-10.5c-0.6,3.4-1.1,6.8-1,9.5c0,0,0,0-0.1,0
		c0,0,0,0,0.1,0c0.1,2.1,0.4,3.8,1.3,4.8c1,1.2,2.8,2.3,4.7,3.4c1.1,0.6,2.3,1.2,3.5,1.8c3.6,1.7,6.8,2.8,6.8,2.8L690.6,360.6z"/>
	<path class="st0" d="M675.1,312.2c-0.3,3-1.2,7-1.9,10.9l-0.4-0.4l-6.4,13.6c-1-4.8-2.5-19.4-2.5-19.4l-8.4-1.6
		c1.2-7.4,3.8-14.5,8-18.8h0.1c2.2,0,4.7,0.9,6.9,2C670.4,298.4,675.9,304.2,675.1,312.2z"/>
	<path class="st0" d="M671.9,333.7L671.9,333.7C671.9,333.8,671.9,333.8,671.9,333.7C671.9,333.8,671.9,333.7,671.9,333.7z"/>
	<path class="st0" d="M666.6,337.6C666.6,337.6,666.6,337.7,666.6,337.6L666.6,337.6L666.6,337.6L666.6,337.6z"/>
	<path class="st2" d="M689.9,769.2c0-0.2,0-0.2,0-0.2h-0.1v-0.1l-12.4,0.2l-6.2,0.1c0,0,0,0.1,0,0.4h-0.1v0.1h-1.2
		c0,0-0.1-0.5-0.3-1.4c-0.3-1.6-0.9-4.4-1.7-8.2c-1.9-9.1-5-23.5-8.2-39.1c-0.8-3.9-1.7-8-2.5-12c-0.3-1.4-0.6-2.8-0.9-4.2
		c-0.3-1.6-0.7-3.3-1-4.9c-5.6-26.5-10.7-50.6-11.2-52.3v-0.1c-0.1-1.2-0.9-9.1-1.9-19.6c0-0.2,0.1-0.3,0.1-0.5
		c0.2-0.7,0.5-1.5,0.7-2.3c0.2-0.5,0.4-1,0.5-1.5c0.1-0.4,0.3-0.9,0.4-1.3c0.5-1.5,0.9-2.9,1.4-4.4c0-0.1,0.1-0.2,0.1-0.3
		c0.2-0.7,0.4-1.3,0.6-1.9c0-0.2,0.1-0.3,0.1-0.4c0.2-0.7,0.4-1.5,0.7-2.3c0-0.1,0.1-0.3,0.1-0.4c0.2-0.8,0.5-1.5,0.7-2.3v-0.1
		c0-0.2,0.1-0.3,0.1-0.5v-0.1c0.3-1.1,0.7-2.2,1.1-3.4c0.4-1.3,0.9-2.7,1.3-4c1.5-4.7,3.1-9.5,4.6-14.2c0.3-0.9,0.5-1.7,0.8-2.5
		c0.1-0.1,0.1-0.1,0.1-0.2c0.2-0.7,0.5-1.5,0.7-2.2c0.1-0.2,0.2-0.3,0.2-0.5c0.2-0.6,0.4-1.3,0.6-1.9c0.4-1.3,0.8-2.5,1.2-3.8
		c0.3-0.8,0.5-1.6,0.8-2.4c0.1-0.3,0.2-0.7,0.3-1c0.3-1,0.7-2,1-3c0.1-0.4,0.2-0.9,0.4-1.3c0.1-0.4,0.3-0.9,0.4-1.3
		c0.3-0.8,0.6-1.7,0.9-2.5c0-0.1,0.1-0.2,0.1-0.3c0.2-0.7,0.5-1.4,0.7-2.1c0.3-0.9,0.6-1.7,0.9-2.6c0.3-0.8,0.5-1.5,0.8-2.3
		c0.1-0.2,0.1-0.4,0.2-0.7l0,0c0.2-0.4,0.3-0.9,0.4-1.3l0,0c0.1-0.2,0.1-0.3,0.2-0.5c0.2-0.7,0.5-1.5,0.7-2.2
		c0.1-0.3,0.2-0.6,0.2-0.9l0,0c0.2-0.6,0.4-1.1,0.6-1.7l0,0c0.1-0.3,0.2-0.5,0.3-0.8c0.2-0.7,0.5-1.4,0.7-2.1c0.2-0.7,0.5-1.3,0.7-2
		c0.1-0.3,0.2-0.6,0.3-0.9l0,0c5.2-0.3,10.7-0.7,16.3-1.2c-0.5,4.5-0.9,11.2-1.2,18.9c0,0.7-0.1,1.4-0.1,2.1
		c-0.1,2.7-0.2,5.5-0.3,8.4c-0.4,12.2-0.6,25.9-0.8,37.8c0,0.3,0,0.5,0,0.8c-0.2,17.8-0.3,31.7-0.3,31.7l4.2,56.4l0.3,4.6l0.3,4.5
		l0.9,11.7l3.6,48.1l0.2,0.4H689.9z"/>
	<path class="st0" d="M664.6,557.9c0.1-0.2,0.1-0.3,0.2-0.5c-0.1,0.2-0.1,0.4-0.2,0.7c-0.3,0.8-0.5,1.5-0.8,2.3
		c-0.3,0.9-0.6,1.7-0.9,2.6c-0.2,0.7-0.5,1.4-0.7,2.1c0,0.1-0.1,0.2-0.1,0.3c-0.3,0.8-0.6,1.7-0.9,2.5c-0.1,0.4-0.3,0.9-0.4,1.3
		c-0.2,0.4-0.3,0.9-0.4,1.3c-0.3,1-0.7,2-1,3c-0.1,0.3-0.2,0.7-0.3,1c-0.3,0.8-0.5,1.6-0.8,2.4c-0.4,1.3-0.8,2.5-1.2,3.8
		c-0.2,0.6-0.4,1.3-0.6,1.9c0,0.2-0.1,0.3-0.2,0.5c-0.2,0.7-0.5,1.5-0.7,2.2c0,0.1,0,0.1-0.1,0.2c-0.3,0.8-0.5,1.6-0.8,2.5
		c-1.5,4.7-3.1,9.5-4.6,14.2c-0.4,1.3-0.9,2.7-1.3,4c-0.4,1.2-0.8,2.3-1.1,3.4v0.1c0,0.2-0.1,0.3-0.1,0.5v0.1
		c-0.2,0.8-0.5,1.5-0.7,2.3c0,0.1-0.1,0.3-0.1,0.4c-0.3,0.8-0.5,1.6-0.7,2.3c0,0.1-0.1,0.2-0.1,0.4c-0.2,0.6-0.4,1.2-0.6,1.9
		c0,0.1-0.1,0.2-0.1,0.3c-0.5,1.5-0.9,2.9-1.4,4.4c-0.1,0.4-0.3,0.9-0.4,1.3c-0.1,0.5-0.3,1-0.5,1.5c-0.2,0.8-0.5,1.6-0.7,2.3
		c0,0.2-0.1,0.3-0.1,0.5c0-0.2,0-0.4-0.1-0.6c0.2-0.8,0.5-1.5,0.7-2.3c0.2-0.5,0.3-1,0.5-1.5c0.1-0.4,0.3-0.8,0.4-1.3
		c0.4-1.4,0.9-2.9,1.4-4.4c0-0.1,0.1-0.2,0.1-0.4c0.2-0.6,0.4-1.2,0.6-1.9c0-0.1,0.1-0.2,0.1-0.4c0.2-0.8,0.5-1.5,0.7-2.3
		c0-0.1,0.1-0.3,0.1-0.4c0.2-0.8,0.5-1.5,0.7-2.3V610c0-0.1,0.1-0.3,0.1-0.4c0.4-1.2,0.7-2.4,1.2-3.6c0.4-1.3,0.8-2.6,1.3-4
		c1.5-4.7,3.1-9.5,4.6-14.2c0.3-0.8,0.5-1.7,0.8-2.5c0-0.1,0-0.1,0.1-0.2c0.2-0.7,0.5-1.5,0.7-2.2c0.1-0.2,0.1-0.3,0.2-0.5
		c0.2-0.6,0.4-1.3,0.6-1.9c0.4-1.3,0.8-2.5,1.3-3.8c0.3-0.8,0.5-1.6,0.8-2.4c0.1-0.3,0.2-0.7,0.3-1c0.3-1,0.7-2,1-3
		c0.1-0.4,0.3-0.9,0.4-1.3c0.1-0.4,0.3-0.9,0.4-1.3c0.3-0.8,0.6-1.7,0.9-2.5c0-0.1,0.1-0.2,0.1-0.3c0.2-0.7,0.5-1.4,0.7-2.1
		c0.3-0.9,0.6-1.7,0.9-2.6C664.1,559.4,664.3,558.7,664.6,557.9z"/>
	<path class="st0" d="M666.1,553.2c0.1-0.2,0.2-0.4,0.2-0.7c-0.1,0.3-0.2,0.6-0.2,0.9c-0.2,0.7-0.5,1.5-0.7,2.2
		c-0.1,0.2-0.1,0.3-0.2,0.5c0.1-0.2,0.1-0.4,0.2-0.7C665.6,554.7,665.9,553.9,666.1,553.2z"/>
	<path class="st0" d="M685.2,543.5c0,0.1,0,0.2,0,0.3c-5.6,0.5-11.1,0.9-16.3,1.2l0,0c-0.1,0.3-0.2,0.6-0.3,0.9
		c-0.2,0.7-0.5,1.3-0.7,2s-0.5,1.4-0.7,2.1c-0.1,0.3-0.2,0.5-0.3,0.8c0.1-0.4,0.2-0.7,0.3-1c0.2-0.7,0.5-1.4,0.7-2.1
		c0.2-0.7,0.5-1.4,0.7-2c0.1-0.2,0.1-0.5,0.2-0.7v-0.1c0-0.1,0-0.1,0.1-0.2C674.2,544.4,679.6,544,685.2,543.5z"/>
	<path class="st0" d="M689.8,769l-12.3,0.2l-6.2,0.1c0,0,0,0.1,0,0.3v0.1h-0.2v-0.1h0.1c0-0.3,0-0.4,0-0.4l6.2-0.1L689.8,769
		C689.8,768.9,689.8,769,689.8,769z"/>
	<path class="st0" d="M689.9,769.2L689.9,769.2l-12.1,0.3l-6.5,0.1h-0.1c0-0.3,0-0.4,0-0.4l6.2-0.1l12.4-0.2v0.1
		C689.8,769.1,689.8,769.1,689.9,769.2z"/>
	<path class="st2" d="M668.8,545c-0.1,0.2-0.1,0.5-0.2,0.7c-0.2,0.6-0.5,1.3-0.7,2s-0.5,1.4-0.7,2.1c-0.1,0.3-0.2,0.7-0.3,1l0,0
		c-0.2,0.5-0.4,1.1-0.6,1.7l0,0c-0.1,0.2-0.2,0.4-0.2,0.7c-0.2,0.7-0.5,1.5-0.7,2.2c-0.1,0.2-0.1,0.4-0.2,0.7l0,0
		c-0.2,0.4-0.3,0.9-0.4,1.3l0,0c-0.1,0.2-0.1,0.3-0.2,0.5c-0.3,0.8-0.5,1.5-0.8,2.3c-0.3,0.9-0.6,1.7-0.9,2.6
		c-0.2,0.7-0.5,1.4-0.7,2.1c0,0.1-0.1,0.2-0.1,0.3c-0.3,0.8-0.6,1.7-0.9,2.5c-0.1,0.4-0.3,0.9-0.4,1.3c-0.1,0.4-0.3,0.9-0.4,1.3
		c-0.3,1-0.7,2-1,3c-0.1,0.3-0.2,0.7-0.3,1c-0.3,0.8-0.5,1.6-0.8,2.4c-0.5,1.3-0.9,2.5-1.3,3.8c-0.2,0.6-0.4,1.3-0.6,1.9
		c-0.1,0.2-0.1,0.3-0.2,0.5c-0.2,0.7-0.5,1.5-0.7,2.2c-0.1,0.1-0.1,0.1-0.1,0.2c-0.3,0.8-0.5,1.7-0.8,2.5c-1.5,4.7-3.1,9.5-4.6,14.2
		c-0.5,1.4-0.9,2.7-1.3,4c-0.5,1.2-0.8,2.4-1.2,3.6c0,0.1-0.1,0.3-0.1,0.4v0.1c-0.2,0.8-0.5,1.5-0.7,2.3c0,0.1-0.1,0.3-0.1,0.4
		c-0.2,0.8-0.5,1.5-0.7,2.3c0,0.2-0.1,0.3-0.1,0.4c-0.2,0.7-0.4,1.3-0.6,1.9c0,0.2-0.1,0.3-0.1,0.4c-0.5,1.5-1,3-1.4,4.4
		c-0.1,0.5-0.3,0.9-0.4,1.3c-0.2,0.5-0.3,1-0.5,1.5c-0.2,0.8-0.5,1.5-0.7,2.3c0,0.2,0,0.4,0.1,0.6c-5.4,17.6-9.5,31.3-9.6,34.2
		c-0.2,3.4-2,19.2-4.1,37.8c0,0.1,0,0.1,0,0.2c-0.2,1.6-0.4,3.2-0.6,4.8c-0.2,1.3-0.3,2.7-0.5,4.1c0,0.1,0,0.1,0,0.2
		c-0.5,3.9-0.9,8-1.4,11.9c-1.4,11.3-2.7,22.4-3.8,31.4c-0.3,2.7-0.6,5.3-0.9,7.6c-0.9,7.8-1.6,12.8-1.6,12.8l-2.1-0.1h-0.2
		c0-0.1,0-0.1,0-0.2l-19.2-0.5c0,0.1,0,0.1,0,0.2l-4.4-0.1l-0.6-12.1l-0.4-7.6l-1.6-31.4l-0.6-11.9V709l-0.2-4.1l-0.2-4.8v-0.2
		l-2-40.7l3.7-45.2l0.5-6.1v-0.2l0.7-8.2l2.1-25.9l0.7-8.4l0.2-2.1l1.5-18.5c0.8,0.1,1.7,0.1,2.5,0.2c0,0,0.1,0,0.2,0
		c0.5,0,1.1,0.1,1.6,0.1c1,0.1,1.9,0.1,2.9,0.2c0.3,0,0.6,0,0.9,0.1c0.1,0,0.1,0,0.2,0c0.8,0.1,1.7,0.1,2.6,0.1h0.1
		c0.5,0.1,1,0.1,1.5,0.1c0.6,0,1.3,0.1,1.9,0.1c0.5,0,1,0.1,1.5,0.1h1.2c2.8,0.1,5.7,0.2,8.8,0.3h2.7c1.5,0.1,3,0.1,4.6,0.1h10.5
		c0,0,0.1,0,0.2,0C649.9,545.9,659.1,545.6,668.8,545z"/>
	<path class="st0" d="M600.3,544.8c-0.1,0-0.2,0-0.2,0c-0.8-0.1-1.7-0.1-2.5-0.2l0,0C598.5,544.7,599.4,544.7,600.3,544.8z"/>
	<path class="st0" d="M605.7,545.2c-0.3,0-0.6,0-0.9-0.1c-1-0.1-1.9-0.1-2.9-0.2c-0.5,0-1.1-0.1-1.6-0.1c0.1,0,0.2,0,0.2,0
		c0.5,0,1.1,0.1,1.6,0.1c0.9,0.1,1.9,0.1,2.9,0.2C605.2,545.1,605.5,545.1,605.7,545.2z"/>
	<path class="st0" d="M613.7,545.6h-0.2c-0.5,0-1-0.1-1.5-0.1c-0.6,0-1.3-0.1-1.9-0.1c-0.5,0-1,0-1.5-0.1h0.2c0.5,0,1,0.1,1.5,0.1
		c0.6,0,1.2,0.1,1.9,0.1C612.7,545.5,613.2,545.5,613.7,545.6z"/>
	<path class="st0" d="M617.4,772.6c0,0.1,0,0.1,0,0.2l-19-0.5h-0.2c0-0.1,0-0.1,0-0.2L617.4,772.6z"/>
	<path class="st0" d="M623.7,545.9h-0.2c-3.1-0.1-6-0.2-8.8-0.3h0.2C617.7,545.7,620.7,545.8,623.7,545.9z"/>
	<path class="st0" d="M631,546h-0.2c-1.6,0-3.1,0-4.6-0.1h0.2C627.9,545.9,629.4,545.9,631,546z"/>
	<path class="st0" d="M664.8,557.4c-0.1,0.2-0.1,0.4-0.2,0.7c-0.3,0.8-0.5,1.5-0.8,2.3c-0.3,0.9-0.6,1.7-0.9,2.6
		c-0.2,0.7-0.5,1.4-0.7,2.1c0,0.1-0.1,0.2-0.1,0.3c-0.3,0.8-0.6,1.7-0.9,2.5c-0.1,0.4-0.3,0.9-0.4,1.3c-0.2,0.4-0.3,0.9-0.4,1.3
		c-0.3,1-0.7,2-1,3c-0.1,0.3-0.2,0.7-0.3,1c-0.3,0.8-0.5,1.6-0.8,2.4c-0.4,1.3-0.8,2.5-1.2,3.8c-0.2,0.6-0.4,1.3-0.6,1.9
		c0,0.2-0.1,0.3-0.2,0.5c-0.2,0.7-0.5,1.5-0.7,2.2c0,0.1,0,0.1-0.1,0.2c-0.3,0.8-0.5,1.6-0.8,2.5c-1.5,4.7-3.1,9.5-4.6,14.2
		c-0.4,1.3-0.9,2.7-1.3,4c-0.4,1.2-0.8,2.3-1.1,3.4v0.1c0,0.2-0.1,0.3-0.1,0.5v0.1c-0.2,0.8-0.5,1.5-0.7,2.3c0,0.1-0.1,0.3-0.1,0.4
		c-0.3,0.8-0.5,1.6-0.7,2.3c0,0.1-0.1,0.2-0.1,0.4c-0.2,0.6-0.4,1.2-0.6,1.9c0,0.1-0.1,0.2-0.1,0.3c-0.5,1.5-0.9,2.9-1.4,4.4
		c-0.1,0.4-0.3,0.9-0.4,1.3c-0.1,0.5-0.3,1-0.5,1.5c-0.2,0.8-0.5,1.6-0.7,2.3c0,0.2-0.1,0.3-0.1,0.5c0-0.2,0-0.4-0.1-0.6
		c0.2-0.8,0.5-1.5,0.7-2.3c0.2-0.5,0.3-1,0.5-1.5c0.1-0.4,0.3-0.8,0.4-1.3c0.4-1.4,0.9-2.9,1.4-4.4c0-0.1,0.1-0.2,0.1-0.4
		c0.2-0.6,0.4-1.2,0.6-1.9c0-0.1,0.1-0.2,0.1-0.4c0.2-0.8,0.5-1.5,0.7-2.3c0-0.1,0.1-0.3,0.1-0.4c0.2-0.8,0.5-1.5,0.7-2.3V610
		c0-0.1,0.1-0.3,0.1-0.4c0.4-1.2,0.7-2.4,1.2-3.6c0.4-1.3,0.8-2.6,1.3-4c1.5-4.7,3.1-9.5,4.6-14.2c0.3-0.8,0.5-1.7,0.8-2.5
		c0-0.1,0-0.1,0.1-0.2c0.2-0.7,0.5-1.5,0.7-2.2c0.1-0.2,0.1-0.3,0.2-0.5c0.2-0.6,0.4-1.3,0.6-1.9c0.4-1.3,0.8-2.5,1.3-3.8
		c0.3-0.8,0.5-1.6,0.8-2.4c0.1-0.3,0.2-0.7,0.3-1c0.3-1,0.7-2,1-3c0.1-0.4,0.3-0.9,0.4-1.3c0.1-0.4,0.3-0.9,0.4-1.3
		c0.3-0.8,0.6-1.7,0.9-2.5c0-0.1,0.1-0.2,0.1-0.3c0.2-0.7,0.5-1.4,0.7-2.1c0.3-0.9,0.6-1.7,0.9-2.6c0.3-0.8,0.5-1.5,0.8-2.3
		C664.7,557.8,664.7,557.6,664.8,557.4z"/>
	<path class="st0" d="M666.3,552.5c-0.1,0.3-0.2,0.6-0.2,0.9c-0.2,0.7-0.5,1.5-0.7,2.2c-0.1,0.2-0.1,0.3-0.2,0.5
		c0.1-0.2,0.1-0.4,0.2-0.7c0.2-0.7,0.5-1.5,0.7-2.2C666.2,553,666.2,552.8,666.3,552.5z"/>
	<path class="st0" d="M668.9,544.9C668.9,544.9,668.9,545,668.9,544.9c-0.1,0.4-0.2,0.7-0.3,1c-0.2,0.7-0.5,1.3-0.7,2
		s-0.5,1.4-0.7,2.1c-0.1,0.3-0.2,0.5-0.3,0.8c0.1-0.4,0.2-0.7,0.3-1c0.2-0.7,0.5-1.4,0.7-2.1c0.2-0.7,0.5-1.4,0.7-2
		C668.7,545.5,668.7,545.2,668.9,544.9c-9.8,0.7-19,1-27.4,1.1C649.9,545.7,659.1,545.4,668.9,544.9L668.9,544.9z"/>
	<path class="st1" d="M650.9,407.6l-20.5,59.7c-1.7,4.9-5.6,8.7-10.5,10.3l-9.4,3L603,483h-0.1l-2.9,0.9l-7.2,2.3L558,497.3
		l-0.6-2.1l-0.1-0.1V495l-2.8-9.2l-0.5-1.6l-0.7-2.4l0,0l-0.8-2.7l40.4-22.3l7.2-4l2.8-1.5l0.8-6.9l1.2-10.5v-0.2
		c1.9-14.2,5.8-38.8,11.5-50.8c8.2-17.4,10.4-20.6,17.1-23.7c3.3-1.5,7-1.6,10.6-0.6c0,0,0,0,0.1,0c7,2,13.3,8.3,13.9,16.6
		C658.6,383.9,655.2,396,650.9,407.6z"/>
	<path class="st3" d="M604.9,433.8l-1.2,10.5c-0.1,0-0.1,0-0.1,0S603.9,440.2,604.9,433.8z"/>
	<path class="st4" d="M673.1,323.1c-0.1,0.4-0.1,0.8-0.2,1.2l-5,10.5l0,0l-1.3,2.8l0,0v0.1l0,0l0,0c-0.6,0.6-4.3,4.2-7.6,4.1l0,0
		c0,0-7.3-4.1-4.3-26.8l0.8,0.2l8.4,1.6c0,0,1.5,14.6,2.5,19.4l6.4-13.6L673.1,323.1z"/>
	<path class="st0" d="M666.6,337.6C666.6,337.6,666.6,337.7,666.6,337.6L666.6,337.6L666.6,337.6z"/>
	<path class="st3" d="M604.9,433.7c0,0.1,0,0.1,0,0.2V433.7L604.9,433.7z"/>
	<g>
		<g>
			<g>
				<g>
					<path class="st5" d="M677.8,301.8c-0.1,0-1.4-3.1-4.4-5.7s-6.4-3.3-6.3-3.5c0,0,0.8,0,2.1,0.5c1.3,0.4,3,1.2,4.5,2.6
						s2.7,2.9,3.4,4.1C677.6,301,677.8,301.8,677.8,301.8z"/>
				</g>
			</g>
		</g>
		<g>
			<g>
				<g>
					<path class="st5" d="M677.2,292.5c-0.1,0.2-2.4-1.8-5.9-2.6c-3.5-1-6.5-0.3-6.5-0.6c0-0.1,3-1,6.7,0
						C674.9,290.2,677.2,292.4,677.2,292.5z"/>
				</g>
			</g>
		</g>
		<g>
			<g>
				<g>
					<path class="st5" d="M654.5,286.9c0.1,0,0,0.5,0,1.2c0,0.8,0.4,1.8,1.2,2.7c0.7,0.9,1.7,1.4,2.4,1.6s1.3,0.1,1.3,0.3
						c0,0-0.5,0.2-1.3,0.2c-0.8-0.1-2-0.6-2.8-1.7c-0.8-1-1.2-2.2-1.1-3C653.9,287.3,654.2,286.8,654.5,286.9z"/>
				</g>
			</g>
		</g>
		<g>
			<g>
				<g>
					<path class="st5" d="M657.7,285.8c0,0.1-0.2,0.4-0.2,1c-0.1,0.6-0.1,1.4,0.5,2.1s1.3,1.1,1.9,1.1c0.6,0.1,1,0.1,1,0.1
						c0,0.1-0.3,0.3-1,0.4c-0.7,0-1.7-0.3-2.3-1.2c-0.6-0.9-0.6-1.9-0.3-2.6C657.4,286,657.6,285.7,657.7,285.8z"/>
				</g>
			</g>
		</g>
		<g>
			<g>
				<g>
					<path class="st5" d="M666.4,280.6c-0.1,0.2-1.7-0.8-3.8-1.2c-2.2-0.3-4,0.2-4.1,0.1s1.7-0.9,4.1-0.6
						C665,279.1,666.4,280.4,666.4,280.6z"/>
				</g>
			</g>
		</g>
		<g>
			<g>
				<g>
					<path class="st5" d="M671.9,285.4c-0.1,0.2-1.7-0.8-3.8-1.2c-2.2-0.3-4,0.2-4.1,0.1s1.7-0.9,4.1-0.6
						C670.5,283.9,671.8,285.2,671.9,285.4z"/>
				</g>
			</g>
		</g>
		<g>
			<g>
				<g>
					<path class="st5" d="M677,288.2c-0.2-0.1,0.5-0.8,0.7-2.2c0.4-1.4,0.3-3.5-0.8-5.4c-1.1-1.8-3-2.9-4.3-3.3s-2.2-0.3-2.3-0.4
						c0,0,0.9-0.3,2.4,0c1.4,0.4,3.4,1.4,4.7,3.4c1.1,2.1,1.1,4.4,0.7,5.7C677.5,287.6,677,288.2,677,288.2z"/>
				</g>
			</g>
		</g>
		<g>
			<g>
				<g>
					<path class="st5" d="M693.4,345.4c0,0-0.5,0.4-1.4,0.3c-1-0.1-2.3-0.4-3.3-1.6c-0.9-1.1-1.1-2.6-1.1-3.6c0.2-1,0.5-1.5,0.6-1.4
						c0.1,0-0.1,0.6-0.1,1.4c-0.1,0.8,0.2,2.1,1.1,3.1c0.9,1,2.1,1.4,2.9,1.5C693,345.5,693.4,345.4,693.4,345.4z"/>
				</g>
			</g>
		</g>
		<g>
			<g>
				<g>
					<path class="st5" d="M716.9,312.8c-0.1,0,0.2-1.1,0.3-2.9s0-4.2-0.7-6.9c-0.7-2.6-1.9-4.7-2.9-6.3c-1-1.4-1.7-2.3-1.7-2.3
						s0.9,0.6,2.1,2.1c1.1,1.4,2.5,3.7,3.2,6.3c0.7,2.7,0.8,5.3,0.5,7.1C717.5,311.7,716.9,312.8,716.9,312.8z"/>
				</g>
			</g>
		</g>
		<g>
			<g>
				<g>
					<path class="st5" d="M707.1,294.3c-0.1,0-0.1-0.6-0.4-1.4c-0.3-0.9-1.1-1.9-2.1-2.8c-1.1-0.8-2.3-1.2-3.3-1.3
						c-1-0.1-1.5,0.1-1.5-0.1c0,0,0.6-0.4,1.6-0.3c0.9-0.1,2.4,0.3,3.7,1.2c1.2,1,2,2.1,2.2,3.2
						C707.4,293.6,707.4,294.3,707.1,294.3z"/>
				</g>
			</g>
		</g>
		<g>
			<g>
				<g>
					<path class="st5" d="M717.1,294.2c-0.1,0.2-1.7-2.9-5.1-5c-3.4-2.2-6.7-2.4-6.6-2.7c0,0,0.8,0,2.2,0.2c1.3,0.3,3.1,0.9,4.8,2
						s3,2.5,3.8,3.6C716.8,293.5,717.1,294.2,717.1,294.2z"/>
				</g>
			</g>
		</g>
		<g>
			<g>
				<g>
					<path class="st5" d="M701.4,284.2c0,0.1-2.4,0.1-4.8,1.7c-2.4,1.5-3.3,3.9-3.5,3.8c0,0,0-0.5,0.5-1.5c0.5-0.8,1.3-1.9,2.6-2.8
						c1.3-0.8,2.6-1.3,3.5-1.3C700.9,284.1,701.4,284.2,701.4,284.2z"/>
				</g>
			</g>
		</g>
		<g>
			<g>
				<g>
					<path class="st5" d="M695.8,282.2c0,0.1-2.4,0.1-4.8,1.7c-2.4,1.5-3.3,3.9-3.5,3.8c0,0,0-0.5,0.5-1.5c0.5-0.8,1.3-1.9,2.6-2.8
						c1.3-0.8,2.6-1.3,3.5-1.3C695.4,282,695.8,282.2,695.8,282.2z"/>
				</g>
			</g>
		</g>
		<g>
			<g>
				<g>
					<path class="st5" d="M705.7,325.7c0-0.1,0.6-0.3,1.4-0.9c0.8-0.5,2-1.4,2.9-2.7c0.9-1.3,1.3-2.6,1.5-3.7c0.2-1,0.2-1.7,0.3-1.7
						c0,0,0.3,0.6,0.1,1.7c0,1.1-0.5,2.6-1.4,4s-2.2,2.3-3.2,2.8C706.4,325.6,705.7,325.7,705.7,325.7z"/>
				</g>
			</g>
		</g>
		<g>
			<g>
				<g>
					<path class="st5" d="M705.4,330.2c0-0.1,0.9-0.2,2.4-0.8c1.4-0.6,3.2-1.7,4.6-3.5c1.5-1.8,2.3-3.8,2.6-5.2s0.3-2.5,0.4-2.4
						c0,0,0.2,1,0,2.6c-0.2,1.5-0.9,3.7-2.5,5.6s-3.5,3-5,3.6C706.3,330.3,705.4,330.2,705.4,330.2z"/>
				</g>
			</g>
		</g>
		<g>
			<g>
				<g>
					<path class="st5" d="M704.8,338.5c0,0,0.5,0.8,0.4,2.2c-0.1,1.4-0.6,3.4-2.1,5s-3.6,2.2-5.1,2.2c-1.5,0.1-2.2-0.3-2.2-0.3
						c0-0.1,0.8,0.1,2.2-0.1c1.3-0.2,3.2-0.7,4.7-2.3c1.4-1.4,2.1-3.3,2.2-4.7C705,339.4,704.5,338.5,704.8,338.5z"/>
				</g>
			</g>
		</g>
		<g>
			<g>
				<g>
					<path class="st5" d="M703.6,327.9c0,0.1-0.8,0.2-1.7,0.8c-1,0.5-2.4,1.6-3.1,3.3c-0.7,1.7-0.6,3.4-0.2,4.4
						c0.3,1.2,0.8,1.7,0.7,1.8c0,0-0.7-0.5-1.1-1.7c-0.4-1.1-0.7-3,0.1-4.8s2.3-3,3.5-3.4C702.6,327.9,703.6,327.9,703.6,327.9z"/>
				</g>
			</g>
		</g>
		<g>
			<g>
				<g>
					<path class="st5" d="M686.1,338.2c-0.2-0.1,0.3-0.6,0.6-1.6s0.4-2.4,0.1-4s-1.2-2.7-2-3.4c-0.7-0.7-1.3-0.9-1.3-1.1
						c0,0,0.7,0.1,1.5,0.7s1.8,1.9,2.3,3.6c0.4,1.7,0.2,3.2-0.2,4.1C686.7,337.8,686.1,338.3,686.1,338.2z"/>
				</g>
			</g>
		</g>
		<g>
			<g>
				<g>
					<path class="st5" d="M697.3,342.7c0,0.1-0.5,0.4-1.3,0.3s-2-0.5-2.9-1.5c-0.8-1-0.9-2.4-0.7-3.1c0.2-0.9,0.5-1.2,0.5-1.2
						c0.1,0-0.2,0.4-0.1,1.3c-0.1,0.7,0.1,1.9,0.7,2.7c0.7,0.9,1.6,1.3,2.5,1.5C696.9,342.7,697.3,342.6,697.3,342.7z"/>
				</g>
			</g>
		</g>
		<g>
			<g>
				<g>
					<path class="st5" d="M681.7,326.2c0-0.1,0.3-0.6,0.8-1.4c0.5-0.9,0.9-2.2,1.1-3.8c0.1-1.5-0.2-2.8-0.5-3.8
						c-0.3-0.9-0.6-1.5-0.6-1.5s0.5,0.4,1,1.4s0.8,2.4,0.8,4c-0.2,1.7-0.7,3-1.3,3.8C682.2,325.8,681.7,326.3,681.7,326.2z"/>
				</g>
			</g>
		</g>
		<g>
			<g>
				<g>
					<path class="st5" d="M685.8,326.6c0-0.1,0.6-0.3,1.4-0.9c0.8-0.5,1.8-1.5,2.6-2.9c0.6-1.4,0.9-2.8,0.8-3.8
						c-0.1-1.1-0.3-1.6-0.2-1.7c0,0,0.4,0.6,0.6,1.6c0.2,1,0.1,2.7-0.7,4.1c-0.7,1.5-2,2.5-2.9,3
						C686.5,326.7,685.9,326.7,685.8,326.6z"/>
				</g>
			</g>
		</g>
		<g>
			<g>
				<g>
					<path class="st5" d="M682.5,312.7c-0.2-0.1,1.1-2.4,0.5-5.4c-0.4-3-2.3-4.9-2.2-4.9c0,0,0.6,0.3,1.2,1.2
						c0.6,0.8,1.3,2.2,1.5,3.7c0.2,1.6,0,3.1-0.3,4C682.8,312.2,682.5,312.7,682.5,312.7z"/>
				</g>
			</g>
		</g>
		<g>
			<g>
				<g>
					<path class="st5" d="M712,311.3c0,0.1-0.5,0.1-1.2,0.5c-0.7,0.3-1.7,1.1-2.4,2.2s-0.9,2.2-0.8,3c0,0.8,0.3,1.3,0.2,1.3
						c0,0-0.4-0.5-0.6-1.4c-0.2-0.9,0.1-2.2,0.7-3.4c0.7-1.2,1.8-2,2.6-2.2C711.3,311.2,712,311.3,712,311.3z"/>
				</g>
			</g>
		</g>
		<g>
			<g>
				<g>
					<path class="st5" d="M699.2,323.4c0,0.1-2.2,0.6-4.2,2.4c-2.1,1.7-3,3.8-3.1,3.7c-0.1,0,0.6-2.3,2.7-4.1
						C697,323.5,699.2,323.2,699.2,323.4z"/>
				</g>
			</g>
		</g>
		<g>
			<g>
				<g>
					<path class="st5" d="M703.1,311.2c0-0.1,0.4-0.5,0.9-1.6c0.5-0.9,0.8-2.4,0.4-3.9c-0.5-1.5-1.5-2.5-2.3-3.1s-1.5-0.7-1.5-0.7
						s0.7,0,1.7,0.4c0.9,0.5,2.3,1.7,2.7,3.3c0.5,1.7,0,3.2-0.6,4.2C703.7,310.8,703.1,311.2,703.1,311.2z"/>
				</g>
			</g>
		</g>
		<g>
			<g>
				<g>
					<path class="st5" d="M709.7,309.7c0-0.1,0.5-0.7,1.1-1.9c0.5-1.2,0.9-3.1,0.5-5s-1.6-3.4-2.6-4.3s-1.8-1.2-1.8-1.2
						s0.8,0.1,2,0.9s2.4,2.4,2.9,4.5s0,4.1-0.7,5.3C710.6,309.2,709.7,309.7,709.7,309.7z"/>
				</g>
			</g>
		</g>
		<g>
			<g>
				<g>
					<path class="st5" d="M703.7,298.7c0,0.1-0.7,0-1.8,0.3c-1,0.2-2.5,1.1-3.2,2.6s-0.5,3.2-0.1,4.2s1,1.5,0.9,1.6
						c0,0-0.8-0.4-1.3-1.5s-0.9-2.9-0.1-4.6c0.8-1.7,2.5-2.6,3.7-2.7C703,298.3,703.7,298.5,703.7,298.7z"/>
				</g>
			</g>
		</g>
		<g>
			<g>
				<g>
					<path class="st5" d="M693.4,321.1c0-0.1,0.6-0.4,1.3-1.3c0.8-0.8,1.4-2.2,1.4-3.9c0-1.6-0.8-3.1-1.5-3.7
						c-0.7-0.8-1.4-1.2-1.4-1.2s0.7,0.1,1.6,0.9c0.8,0.8,1.9,2.3,1.9,4.1c0,1.9-0.9,3.3-1.8,4.1
						C694.3,320.9,693.4,321.1,693.4,321.1z"/>
				</g>
			</g>
		</g>
		<g>
			<g>
				<g>
					<path class="st5" d="M697.9,320.5c-0.2-0.1,1.5-1.6,1.8-3.9c0.4-2.4-0.7-4.3-0.4-4.4c0,0,0.5,0.3,0.8,1.2
						c0.3,0.7,0.6,2,0.3,3.3s-0.8,2.4-1.4,3C698.3,320.3,698,320.4,697.9,320.5z"/>
				</g>
			</g>
		</g>
		<g>
			<g>
				<g>
					<path class="st5" d="M689,301.4c0,0.1-0.4,0.5-0.9,1.6c-0.5,0.9-0.8,2.4-0.6,4.1c0.2,1.6,0.9,2.9,1.6,3.7
						c0.7,0.8,1.3,1.1,1.2,1.2c0,0-0.7-0.1-1.6-0.9c-0.8-0.8-1.7-2.2-2-3.9c-0.2-1.7,0.2-3.3,0.8-4.3
						C688.4,301.8,689,301.4,689,301.4z"/>
				</g>
			</g>
		</g>
		<g>
			<g>
				<g>
					<path class="st5" d="M700.7,297.1c-0.2-0.1,0.5-1.5,0-3.2c-0.4-1.8-1.8-2.6-1.7-2.7c0,0,0.4,0,0.9,0.5s1.1,1.1,1.3,2.2
						c0.2,1,0.1,1.9,0,2.6C701.1,296.8,700.7,297.2,700.7,297.1z"/>
				</g>
			</g>
		</g>
		<g>
			<g>
				<g>
					<path class="st5" d="M683.6,290.9c0,0.1-0.2,0.3-0.5,0.8s-0.5,1.2-0.3,2.1c0,0.8,0.5,1.5,0.9,2s0.8,0.5,0.7,0.7
						c0,0-0.4,0.1-1-0.3c-0.5-0.4-1.1-1.1-1.2-2.2c-0.1-1.1,0.2-2,0.7-2.5C682.9,291,683.6,290.9,683.6,290.9z"/>
				</g>
			</g>
		</g>
		<g>
			<g>
				<g>
					<path class="st5" d="M691.3,299.7c-0.2-0.1,0-0.4,0.2-1c0.1-0.6,0.2-1.5-0.1-2.4c-0.2-0.9-0.8-1.7-1.2-2.2s-0.8-0.6-0.7-0.8
						c0,0,0.4,0,1,0.4c0.5,0.4,1.2,1.2,1.5,2.3s0.2,2.1-0.1,2.7C691.7,299.3,691.3,299.7,691.3,299.7z"/>
				</g>
			</g>
		</g>
		<g>
			<g>
				<g>
					<path class="st5" d="M693.9,308.8c-0.2-0.1,0.4-1.7-0.3-3.6c-0.7-2-2.1-2.9-2-3.1c0,0,0.4,0,1.1,0.6c0.5,0.4,1.2,1.2,1.6,2.4
						c0.4,1,0.3,2.1,0.2,2.8C694.3,308.4,693.9,308.8,693.9,308.8z"/>
				</g>
			</g>
		</g>
		<g>
			<g>
				<g>
					<path class="st5" d="M687.4,280.2c0,0.1-1.3,0.3-2.4,1.5c-1.1,1.1-1.4,2.3-1.6,2.4c-0.1,0-0.1-0.4,0.1-1
						c0.1-0.6,0.5-1.2,1.2-1.9c0.7-0.6,1.4-1,2-1C687.1,280,687.3,280.1,687.4,280.2z"/>
				</g>
			</g>
		</g>
		<g>
			<g>
				<g>
					<path class="st5" d="M717,327.5c0,0,0,0.7-0.4,1.9c-0.4,1-1.3,2.5-2.6,3.6c-1.4,1.1-2.9,1.7-4,2c-1.2,0.3-1.9,0.1-1.9,0.1
						c0-0.1,0.6-0.1,1.8-0.5c1-0.4,2.5-1,3.7-2.1s2.2-2.4,2.7-3.3C716.5,328.2,716.8,327.6,717,327.5z"/>
				</g>
			</g>
		</g>
		<g>
			<g>
				<g>
					<path class="st5" d="M698.6,279c-0.1,0-0.6-0.4-1.7-1.1c-1.1-0.6-2.6-1.3-4.4-1.6c-1.8-0.3-3.6-0.2-4.7,0.1s-1.9,0.6-1.9,0.4
						c0,0,0.6-0.5,1.8-1c1.3-0.4,3-0.7,5-0.3s3.5,1.1,4.6,1.8C698.1,278.3,698.6,279,698.6,279z"/>
				</g>
			</g>
		</g>
		<g>
			<g>
				<g>
					<path class="st5" d="M704,281.9c-0.1,0-0.3-0.6-0.7-1.8c-0.4-1-1.2-2.4-2.5-3.7c-1.2-1.2-2.6-2-3.8-2.3c-1-0.4-1.7-0.4-1.8-0.6
						c0,0,0.8-0.2,1.9,0.1c1.2,0.3,2.7,1,4,2.2c1.4,1.2,2.1,2.8,2.5,3.9C704.1,281.1,704,281.9,704,281.9z"/>
				</g>
			</g>
		</g>
	</g>
</g>
<polygon class="st0" points="373.9,320.5 359.9,423.9 221.2,423.9 235.4,320.5 "/>
<path class="st6" d="M303.8,360.8L303.8,360.8c-0.5,0-0.8-0.4-0.7-0.8l0.5-19l-6.7,19.1c-0.1,0.4-0.5,0.7-0.9,0.7h-7.6
	c-0.3,0-0.6-0.2-0.7-0.5l-1.5-4l-2.8,4c-0.2,0.3-0.5,0.4-0.8,0.4H278c-0.4,0-0.7-0.2-0.7-0.6l-2.9-13.4l-7.6,13.5
	c-0.2,0.3-0.5,0.5-0.9,0.5h-21.8c-0.5,0-0.8-0.4-0.7-0.9s0.5-0.9,1-0.9h21.3l8.5-15c0.2-0.3,0.5-0.5,0.9-0.5s0.6,0.2,0.7,0.6
	l3.2,14.9h3.4l3.5-5c0.2-0.3,0.5-0.5,0.8-0.4c0.3,0,0.6,0.2,0.7,0.5l1.8,5h6.4l8.2-23.6c0.1-0.4,0.5-0.7,1-0.7
	c0.4,0,0.7,0.3,0.7,0.8l-0.5,19.9l3.2-7.9c0.2-0.4,0.5-0.6,0.9-0.6s0.7,0.3,0.7,0.7l0.7,11.4h9l10-21.6c0.2-0.4,0.6-0.6,1-0.6
	s0.7,0.3,0.7,0.7l0.9,21.4h2.7l4.8-7.7c0.2-0.3,0.6-0.5,0.9-0.5c0.4,0,0.6,0.3,0.7,0.6l0.9,7.6h12.4c0.5,0,0.8,0.4,0.7,0.9
	s-0.5,0.9-1,0.9h-13c-0.4,0-0.7-0.3-0.7-0.6l-0.7-5.9l-3.8,6.1c-0.2,0.3-0.5,0.5-0.8,0.5h-3.9c-0.4,0-0.7-0.3-0.7-0.7l-0.8-18.8
	l-8.8,18.9c-0.2,0.4-0.5,0.6-0.9,0.6h-10.3c-0.4,0-0.7-0.3-0.7-0.7l-0.5-8.6l-3.6,8.7C304.6,360.5,304.1,360.8,303.8,360.8z"/>
<path class="st6" d="M298.4,399.7L298.4,399.7c-0.5,0-0.8-0.4-0.7-0.8l0.5-19l-6.7,19.1c-0.1,0.4-0.5,0.7-0.9,0.7H283
	c-0.3,0-0.6-0.2-0.7-0.5l-1.5-4l-2.8,4c-0.2,0.3-0.5,0.4-0.8,0.4h-4.6c-0.4,0-0.7-0.2-0.7-0.6l-2.9-13.4l-7.6,13.5
	c-0.2,0.3-0.5,0.5-0.9,0.5h-21.8c-0.5,0-0.8-0.4-0.7-0.9s0.5-0.9,1-0.9h21.3l8.5-15c0.2-0.3,0.5-0.5,0.9-0.5s0.6,0.2,0.7,0.6
	l3.2,14.9h3.4l3.5-5c0.2-0.3,0.5-0.5,0.8-0.4c0.3,0,0.6,0.2,0.7,0.5l1.8,5h6.4l8.2-23.6c0.1-0.4,0.5-0.7,1-0.7
	c0.4,0,0.7,0.3,0.7,0.8l-0.5,19.9l3.2-7.9c0.2-0.4,0.5-0.6,0.9-0.6s0.7,0.3,0.7,0.7l0.7,11.4h9l10-21.6c0.2-0.4,0.6-0.6,1-0.6
	s0.7,0.3,0.7,0.7l0.9,21.4h2.7l4.8-7.7c0.2-0.3,0.6-0.5,0.9-0.5c0.4,0,0.6,0.3,0.7,0.6l0.9,7.6h12.4c0.5,0,0.8,0.4,0.7,0.9
	s-0.5,0.9-1,0.9h-13c-0.4,0-0.7-0.3-0.7-0.6l-0.7-5.9l-3.8,6.1c-0.2,0.3-0.5,0.5-0.8,0.5h-3.9c-0.4,0-0.7-0.3-0.7-0.7l-0.8-18.8
	l-8.8,18.9c-0.2,0.4-0.5,0.6-0.9,0.6h-10.3c-0.4,0-0.7-0.3-0.7-0.7l-0.5-8.6l-3.6,8.7C299.2,399.4,298.9,399.7,298.4,399.7z"/>
<path class="st0" d="M357.2,748.9H237.9v-325H345v34.3c-0.2,0.1-0.3,0.3-0.5,0.4s-0.3,0.3-0.5,0.5l-64.8-1.3h-2.3l-0.1,0.1l-0.3,0.3
	l-0.1,0.1l0,0l-0.6,0.6l-5.9,4.4c-3.5,2.6-5.4,6.4-5.6,10.4c0,0.4,0,0.8,0,1.1c0.1,2.8,1,5.5,2.7,7.9l14.7,19.8v67.1H274
	c-0.9,0-1.8,0.1-2.7,0.3c-0.2,0-0.4,0.1-0.6,0.2c-5,1.4-8.7,6-8.7,11.4c0,3.3,1.3,6.3,3.5,8.4c2.1,2.1,4.8,3.4,7.9,3.5
	c0.2,0,0.3,0,0.5,0h75.3l0.1,0.1l0.1,0.2l0,0l0.1,0.2l0.4-0.3l0.1-0.1h2.8v137c-0.1,0-0.1,0.1-0.2,0.1c-0.1,0.1-0.2,0.1-0.3,0.2
	c-3,1.7-5,4.8-5,8.5C347.6,744.4,352,748.8,357.2,748.9z"/>
<path class="st0" d="M512.6,730L512.6,730c-1.3-0.5-2.7-0.9-4.2-0.9s-3,0.4-4.3,1c0,0-0.1,0-0.1,0.1V730c1.3-0.6,2.8-1,4.3-1
	c0.6,0,1.2,0,1.7,0.2C510.9,729.3,511.7,729.6,512.6,730z"/>
<path class="st0" d="M512.6,607.5V730c-1.3-0.6-2.7-1-4.3-1c-1.5,0-3,0.4-4.3,1v-30.1h0.1V608C506.9,607.8,509.8,607.7,512.6,607.5z
	"/>
<path class="st0" d="M504.1,608v91.9H504V608C504.1,608,504.1,608,504.1,608z"/>
<path class="st0" d="M512.7,730.1L512.7,730.1c-1.4-0.6-2.8-1-4.3-1s-3,0.4-4.3,1c0,0-0.1,0-0.1,0.1c-3.2,1.5-5.3,4.9-5.3,8.6
	c0,5.3,4.3,9.7,9.7,9.7c5.3,0,9.7-4.3,9.7-9.7C518.1,734.9,515.8,731.6,512.7,730.1z M508.3,744.1c-3.1,0.1-5.4-2.4-5.4-5.4
	c0-1.2,0.4-2.4,1.1-3.3c1-1.3,2.5-2.1,4.3-2.1s3.3,0.8,4.3,2.1c0.7,0.9,1.1,2,1.1,3.3C513.7,741.7,511.3,744.1,508.3,744.1z"/>
<path class="st0" d="M513.7,738.7c0,3-2.4,5.4-5.4,5.4c-3.1,0.1-5.4-2.4-5.4-5.4c0-1.2,0.4-2.4,1.1-3.3c1-1.3,2.5-2.1,4.3-2.1
	s3.3,0.8,4.3,2.1C513.3,736.3,513.7,737.5,513.7,738.7z"/>
<path class="st0" d="M801.4,593v137c-1.3-0.6-2.8-1-4.3-1s-3,0.4-4.3,1V593H801.4z"/>
<path class="st0" d="M806.9,738.7c0,5.4-4.4,9.7-9.7,9.7c-5.4,0-9.7-4.4-9.7-9.7c0-3.8,2.2-7.2,5.4-8.7c1.3-0.6,2.8-1,4.3-1
	s3,0.4,4.3,1C804.8,731.6,806.9,734.9,806.9,738.7z"/>
<path class="st0" d="M791.8,738.7c0-3,2.4-5.4,5.4-5.4s5.4,2.4,5.4,5.4s-2.4,5.4-5.4,5.4C794.1,744.2,791.8,741.7,791.8,738.7z"/>
<path class="st7" d="M644.1,471.5c0,0-0.1,0.4-0.3,1.1c-0.1,0.4-0.2,0.8-0.4,1.3s-0.4,1.1-0.7,1.7s-0.6,1.3-1.1,1.9
	c-0.4,0.7-0.9,1.4-1.4,2.1c-1.1,1.4-2.4,2.8-4,4.1c-1.6,1.3-3.3,2.3-4.9,3.1c-0.8,0.4-1.6,0.7-2.3,0.9c-0.7,0.3-1.5,0.5-2.1,0.6
	c-0.6,0.2-1.3,0.3-1.8,0.3c-0.5,0.1-1,0.1-1.4,0.2c-0.7,0-1.2,0.1-1.2,0s1.7-0.1,4.2-0.8c0.6-0.2,1.3-0.4,2.1-0.7
	c0.7-0.2,1.5-0.6,2.3-1c1.6-0.8,3.2-1.8,4.8-3c1.6-1.3,2.9-2.7,4-4c0.5-0.7,1-1.4,1.4-2s0.8-1.3,1.1-1.9
	C643.6,473.1,643.9,471.5,644.1,471.5z"/>
<path class="st7" d="M438.2,552.3c0,0-0.1,0.1-0.3,0.3s-0.5,0.4-0.9,0.8c-0.2,0.2-0.4,0.4-0.7,0.6c-0.2,0.2-0.5,0.5-0.7,0.8
	c-0.5,0.6-1.2,1.1-1.7,1.9c-0.3,0.4-0.6,0.8-0.9,1.2s-0.5,0.9-0.8,1.4c-0.6,0.9-1.1,2.1-1.6,3.2c-0.9,2.4-1.6,5.1-1.8,8
	s0.1,5.7,0.7,8.1c0.4,1.2,0.6,2.4,1.1,3.4c0.2,0.5,0.4,1,0.6,1.5c0.3,0.5,0.5,0.9,0.7,1.3c0.4,0.9,1,1.5,1.4,2.2
	c0.2,0.3,0.4,0.6,0.6,0.9c0.2,0.2,0.4,0.5,0.6,0.7c0.4,0.4,0.6,0.7,0.8,0.9s0.3,0.3,0.3,0.3s-0.1-0.1-0.3-0.3s-0.5-0.5-0.9-0.9
	c-0.2-0.2-0.4-0.4-0.6-0.6c-0.2-0.2-0.4-0.5-0.7-0.8c-0.5-0.6-1-1.3-1.5-2.1c-0.2-0.4-0.5-0.9-0.8-1.3c-0.3-0.5-0.4-1-0.7-1.5
	c-0.5-1-0.8-2.2-1.2-3.4c-0.6-2.5-0.9-5.3-0.7-8.3s0.9-5.7,1.9-8.1c0.5-1.2,1-2.3,1.6-3.2c0.3-0.5,0.6-1,0.9-1.4s0.6-0.8,0.9-1.2
	c0.6-0.8,1.2-1.4,1.8-1.9c0.3-0.3,0.5-0.5,0.8-0.7s0.5-0.4,0.7-0.5c0.4-0.3,0.8-0.6,1-0.7C438.1,552.4,438.2,552.3,438.2,552.3z"/>
<g>
	<path class="st7" d="M401.9,520.8c0,0.1-2.2-0.5-4.9-1.3s-4.8-1.6-4.7-1.8c0-0.1,2.2,0.5,4.9,1.3S401.9,520.7,401.9,520.8z"/>
</g>
<g>
	<path class="st7" d="M410.6,521.7c0,0.1-3.4-1.2-7.5-2.9s-7.4-3.2-7.3-3.3c0-0.1,3.4,1.2,7.5,2.9S410.8,521.6,410.6,521.7z"/>
</g>
<g>
	<path class="st7" d="M405.1,517.2c-0.1,0.1-1.5-0.5-3.1-1.4c-1.7-0.9-3-1.7-2.9-1.8s1.5,0.5,3.1,1.4
		C403.9,516.3,405.1,517.1,405.1,517.2z"/>
</g>
<g>
	<path class="st7" d="M412.9,516.1c0,0.1-2.8-0.9-6.1-2.2c-3.3-1.4-5.9-2.5-5.9-2.7c0-0.1,2.8,0.9,6.1,2.2
		C410.2,514.8,412.9,516,412.9,516.1z"/>
</g>
<g>
	<path class="st7" d="M407.6,509c0,0.1-1.2-0.1-2.7-0.4s-2.6-0.8-2.6-0.9s1.2,0.1,2.7,0.4S407.6,508.8,407.6,509z"/>
</g>
<g>
	<path class="st7" d="M419.9,509c0,0.1-3.3-0.9-7.3-2.2c-4-1.3-7.2-2.5-7.1-2.6c0-0.1,3.3,0.9,7.3,2.2S419.9,508.8,419.9,509z"/>
</g>
<g>
	<path class="st7" d="M412.9,503.3c0,0.1-1.3-0.1-2.9-0.4s-2.8-0.8-2.8-0.9s1.3,0.1,2.9,0.4S412.9,503.2,412.9,503.3z"/>
</g>
<g>
	<path class="st7" d="M419.9,501.2c0,0.1-2.6,0-5.7-0.2s-5.7-0.5-5.7-0.6s2.6,0,5.7,0.2C417.4,500.8,419.9,501.1,419.9,501.2z"/>
</g>
<g>
	<path class="st7" d="M355.9,471c0.1,0-0.2,0.5-0.4,1.2s-0.3,1.8-0.1,2.9s0.7,2.1,1.1,2.7s0.8,1,0.7,1c0,0-0.5-0.2-1-0.8
		c-0.5-0.6-1.1-1.6-1.3-2.8c-0.2-1.2,0-2.4,0.3-3.1C355.6,471.3,355.9,470.9,355.9,471z"/>
</g>
<g>
	<path class="st7" d="M367.1,460.1c-0.1,0,0.1-0.6,0.2-1.5s0-2.2-0.5-3.5s-1.3-2.4-1.9-3c-0.7-0.7-1.2-1-1.1-1c0,0,0.6,0.2,1.3,0.8
		c0.7,0.6,1.6,1.7,2.1,3.1s0.6,2.8,0.4,3.7C367.6,459.6,367.2,460.2,367.1,460.1z"/>
</g>
<g>
	<path class="st7" d="M369.1,457.8c-0.1,0,0.1-0.6,0.1-1.6c0-0.9-0.2-2.3-0.9-3.5c-0.7-1.3-1.7-2.2-2.5-2.7s-1.4-0.7-1.4-0.7
		s0.6,0,1.5,0.5c0.9,0.4,2,1.4,2.7,2.7c0.7,1.4,0.9,2.8,0.8,3.8C369.4,457.3,369.1,457.8,369.1,457.8z"/>
</g>
<g>
	<path class="st7" d="M365.9,494.5c0,0-0.6,0.5-1.9,0.7c-1.2,0.2-3.1,0.1-4.7-1.1c-1.6-1.1-2.4-2.8-2.7-4.1c-0.2-1.2,0-2,0-2
		c0.1,0,0,0.8,0.3,1.9s1.1,2.7,2.6,3.8c1.5,1,3.2,1.2,4.4,1.1C365.2,494.7,365.9,494.4,365.9,494.5z"/>
</g>
<g>
	<path class="st7" d="M360.9,497.7c0,0-0.2,0-0.5-0.1s-0.8-0.2-1.4-0.5c-1.1-0.5-2.5-1.6-3.5-3.1c-1-1.6-1.3-3.3-1.3-4.5
		c0-0.6,0.1-1.1,0.2-1.4s0.2-0.5,0.2-0.5c0.1,0-0.1,0.7,0,1.9c0,1.2,0.4,2.8,1.4,4.3c0.9,1.5,2.2,2.6,3.2,3.1
		C360.1,497.4,360.9,497.6,360.9,497.7z"/>
</g>
<polygon class="st8" points="669.9,319.3 671.3,335.2 678.7,324.5 676.2,312.2 "/>
</svg>
