<svg width="630" height="630" viewBox="0 0 630 630" fill="none" xmlns="http://www.w3.org/2000/svg">
<path d="M155.998 339.163H127.133V300.37L155.998 339.163Z" fill="#282424" stroke="white" stroke-width="2" stroke-miterlimit="10"/>
<path d="M170.661 357.337L170.585 357.414H172.418V357.337H170.661ZM178.909 462.032C177.916 461.574 176.77 461.268 175.625 461.268C174.556 461.268 173.639 461.497 172.723 461.879V357.414H172.341V462.032C169.898 463.254 168.218 465.774 168.218 468.675C168.218 469.592 168.37 470.432 168.676 471.195C168.752 471.348 168.752 471.425 168.829 471.501V471.577C168.905 471.806 168.981 471.959 169.134 472.188C169.287 472.494 169.516 472.799 169.745 473.105C169.821 473.181 169.898 473.257 169.974 473.41C170.203 473.715 170.432 473.945 170.738 474.174C170.814 474.25 170.89 474.326 171.043 474.403C171.119 474.479 171.196 474.555 171.349 474.632C171.501 474.785 171.73 474.937 171.959 475.014C172.036 475.09 172.189 475.166 172.265 475.166C172.341 475.243 172.494 475.243 172.57 475.319C172.647 475.395 172.799 475.395 172.876 475.472C172.952 475.548 173.105 475.548 173.181 475.625C173.258 475.625 173.258 475.625 173.334 475.701C173.487 475.777 173.716 475.854 173.869 475.854C174.021 475.854 174.098 475.93 174.25 475.93C174.403 475.93 174.479 476.006 174.632 476.006C174.785 476.006 175.014 476.083 175.167 476.083C175.319 476.083 175.549 476.083 175.701 476.083C179.825 476.083 183.109 472.723 183.109 468.675C183.032 465.774 181.352 463.254 178.909 462.032ZM178.909 438.665V445.614H204.719V438.665H178.909ZM194.869 329.464C194.258 328.624 193.876 327.708 193.494 326.715C188.912 319.155 194.029 308.083 200.061 299.224C198.534 296.017 194.869 289.679 188.53 287.006C188.072 287.235 187.385 287.541 186.392 287.617C183.414 287.999 162.49 292.275 156.839 274.941C154.472 267.61 159.741 260.355 165.85 254.857L114.61 253.712H114.305L113.465 254.628L114.228 254.017L177.458 339.086H204.719V334.963C200.061 333.588 196.396 331.755 194.869 329.464ZM189.37 285.861C189.37 285.861 189.37 286.013 189.218 286.243C190.974 286.243 192.654 285.708 194.181 284.868C191.432 285.632 189.37 285.861 189.37 285.861ZM169.516 357.414L169.745 357.719L170.05 357.49L170.203 357.337L169.516 357.414Z" fill="#282424" stroke="white" stroke-width="2" stroke-miterlimit="10"/>
<path d="M204.796 445.614V476.159H175.701C179.825 476.159 183.108 472.799 183.108 468.752C183.108 465.85 181.428 463.254 178.985 462.108V445.69L204.796 445.614Z" fill="#282424" stroke="white" stroke-width="2" stroke-miterlimit="10"/>
<path d="M204.719 357.414H178.908V438.665H204.719V357.414Z" fill="#282424" stroke="white" stroke-width="2" stroke-miterlimit="10"/>
<path d="M194.18 284.868C192.653 285.708 190.973 286.166 189.217 286.243C189.37 286.014 189.37 285.861 189.37 285.861C189.37 285.861 191.431 285.632 194.18 284.868Z" fill="#282424" stroke="white" stroke-width="2" stroke-miterlimit="10"/>
<path d="M220.144 338.246C220.144 338.552 220.144 338.857 220.068 339.163H177.38L114.151 254.094L113.388 254.704L114.228 253.788H114.533L165.773 254.934C159.664 260.432 154.395 267.686 156.762 275.017C162.413 292.352 183.26 288.075 186.315 287.694C187.308 287.541 187.995 287.312 188.453 287.083C194.868 289.755 198.533 296.017 199.984 299.301C193.951 308.159 188.835 319.232 193.417 326.792C193.799 327.708 194.257 328.624 194.791 329.541C196.319 331.832 200.06 333.664 204.719 335.115C209.453 336.49 215.104 337.559 220.144 338.246Z" fill="#282424" stroke="white" stroke-width="2" stroke-miterlimit="10"/>
<path d="M231.142 277.919C220.451 278.988 213.655 283.265 212.204 284.257C210.295 282.654 207.698 280.363 205.407 278.377C205.178 278.683 204.949 278.988 204.72 279.294V273.261C205.484 271.81 205.942 270.894 205.942 270.894C207.393 266.999 197.236 259.515 189.829 255.392L216.327 255.926L231.142 277.919Z" fill="#282424" stroke="white" stroke-width="2" stroke-miterlimit="10"/>
<path d="M170.278 357.414L170.049 357.49L169.744 357.719L169.515 357.414H170.278Z" fill="#282424" stroke="white" stroke-width="2" stroke-miterlimit="10"/>
<path d="M219.915 345.272C219.762 349.701 219.685 353.901 219.762 357.414H172.875V357.337H170.736L170.66 357.414H170.125L170.049 357.337H112.547C110.027 357.337 107.736 356.344 106.133 354.664C104.453 352.984 103.46 350.77 103.46 348.25C103.46 343.897 106.515 340.308 110.562 339.392C111.096 339.315 111.631 339.239 112.242 339.239H156.227L127.362 300.446L118.504 288.534V287.846L107.278 272.726C103.765 268.068 104.758 261.424 109.493 257.912L113.998 254.552L114.456 254.094L177.685 339.163H220.373C220.067 341.224 219.915 343.286 219.915 345.272Z" fill="#282424" stroke="white" stroke-width="2" stroke-miterlimit="10"/>
<path d="M106.668 272.803C103.155 268.145 104.148 261.501 108.883 257.988L113.388 254.628L114.152 254.017L113.694 254.476L109.188 257.836C104.454 261.348 103.537 267.992 106.974 272.65L118.199 287.77V288.305L117.817 287.846L106.668 272.803Z" fill="#282424" stroke="white" stroke-width="2" stroke-miterlimit="10"/>
<path d="M169.897 357.337L112.013 357.414C109.493 357.414 107.202 356.421 105.599 354.741C103.919 353.061 102.926 350.846 102.926 348.326C102.926 343.897 106.133 340.155 110.333 339.392C106.286 340.308 103.231 343.897 103.231 348.25C103.231 350.77 104.224 353.061 105.904 354.665C107.584 356.345 109.799 357.337 112.319 357.337H169.897Z" fill="#282424" stroke="white" stroke-width="2" stroke-miterlimit="10"/>
<path d="M172.722 357.337H172.34V357.414H172.722V357.337Z" fill="#282424" stroke="white" stroke-width="2" stroke-miterlimit="10"/>
<path d="M172.341 357.337V357.414H170.508L170.661 357.337H172.341Z" fill="#282424" stroke="white" stroke-width="2" stroke-miterlimit="10"/>
<path d="M501.697 357.414H497.497V353.214C497.497 355.505 499.406 357.414 501.697 357.414Z" fill="#282424" stroke="white" stroke-width="2" stroke-miterlimit="10"/>
<path d="M509.715 357.413H508.569V357.261C508.798 357.337 509.333 357.413 509.715 357.413Z" fill="#282424" stroke="white" stroke-width="2" stroke-miterlimit="10"/>
<path d="M178.907 357.414V462.032C177.914 461.574 176.769 461.268 175.623 461.268C174.554 461.268 173.638 461.498 172.722 461.879V357.414H178.907Z" fill="#282424" stroke="white" stroke-width="2" stroke-miterlimit="10"/>
<path d="M178.907 462.032V468.676H172.34V357.414H172.722V461.879C173.638 461.498 174.631 461.268 175.623 461.268C176.769 461.268 177.914 461.574 178.907 462.032Z" fill="#282424" stroke="white" stroke-width="2" stroke-miterlimit="10"/>
<path d="M509.715 357.413H508.569V357.261C508.798 357.337 509.333 357.413 509.715 357.413Z" fill="#282424" stroke="white" stroke-width="2" stroke-miterlimit="10"/>
<path d="M508.569 438.664H294.521V445.613H508.569V438.664Z" fill="#282424" stroke="white" stroke-width="2" stroke-miterlimit="10"/>
<path d="M172.722 438.664H172.34V445.613H172.722V438.664Z" fill="#282424" stroke="white" stroke-width="2" stroke-miterlimit="10"/>
<path d="M287.879 438.664H178.908V445.613H287.879V438.664Z" fill="#282424" stroke="white" stroke-width="2" stroke-miterlimit="10"/>
<path d="M558.053 438.664H515.061V445.613H558.053V438.664Z" fill="#282424" stroke="white" stroke-width="2" stroke-miterlimit="10"/>
<path d="M183.032 468.751C183.032 472.875 179.672 476.159 175.624 476.159C175.395 476.159 175.242 476.159 175.09 476.159C174.861 476.159 174.708 476.159 174.555 476.082C174.402 476.082 174.326 476.006 174.173 476.006C174.021 476.006 173.944 475.929 173.792 475.929C173.562 475.853 173.41 475.853 173.257 475.777C173.181 475.777 173.181 475.777 173.104 475.7C173.028 475.7 172.875 475.624 172.799 475.548C172.722 475.471 172.57 475.471 172.493 475.395C172.417 475.319 172.264 475.319 172.188 475.242C172.112 475.166 171.959 475.166 171.882 475.089C171.653 474.937 171.501 474.86 171.272 474.708C171.195 474.631 171.042 474.555 170.966 474.479C170.89 474.402 170.813 474.326 170.661 474.249C170.355 474.02 170.126 473.715 169.897 473.486C169.821 473.409 169.744 473.333 169.668 473.18C169.439 472.875 169.286 472.569 169.057 472.264C168.981 472.111 168.828 471.882 168.752 471.653C168.752 471.653 168.752 471.653 168.752 471.577C168.675 471.5 168.675 471.348 168.599 471.271C168.293 470.508 168.141 469.591 168.141 468.751C168.141 465.849 169.821 463.253 172.264 462.108C172.417 462.031 172.493 461.955 172.646 461.955C173.562 461.573 174.555 461.344 175.548 461.344C176.693 461.344 177.839 461.649 178.832 462.108C181.352 463.253 183.032 465.773 183.032 468.751Z" fill="#282424" stroke="white" stroke-width="2" stroke-miterlimit="10"/>
<path d="M171.576 468.675C171.576 466.385 173.409 464.552 175.7 464.552C177.991 464.552 179.823 466.385 179.823 468.675C179.823 470.966 177.991 472.799 175.7 472.799C173.333 472.875 171.576 470.966 171.576 468.675Z" fill="#282424" stroke="white" stroke-width="2" stroke-miterlimit="10"/>
<path d="M204.797 298.308C203.117 299.759 201.666 300.905 200.902 301.21C200.902 301.21 200.673 300.447 200.062 299.225C198.535 296.017 194.869 289.679 188.531 287.007C188.989 286.777 189.219 286.472 189.295 286.243C191.051 286.243 192.731 285.708 194.259 284.868C197.695 283.952 202.2 282.272 204.797 279.294C205.026 278.988 205.255 278.683 205.484 278.377C207.775 280.363 210.371 282.654 212.28 284.257C213.426 285.25 214.342 286.014 214.724 286.243C215.869 287.083 209.379 294.185 204.797 298.308Z" fill="#282424" stroke="white" stroke-width="2" stroke-miterlimit="10"/>
<path d="M252.905 280.21C250.461 281.89 245.268 285.632 239.847 290.748C233.89 296.399 227.628 303.806 224.65 311.825C224.192 313.046 223.81 314.421 223.428 315.872C223.428 315.948 223.352 316.025 223.352 316.177C223.352 316.254 223.276 316.406 223.276 316.483C222.054 321.217 221.214 326.792 220.679 332.519C220.527 334.428 220.374 336.337 220.221 338.246C215.181 337.559 209.53 336.49 204.719 335.039C200.137 333.665 196.319 331.756 194.792 329.465C194.181 328.625 193.799 327.708 193.417 326.715C188.836 319.155 193.952 308.083 199.985 299.225C200.519 300.446 200.825 301.21 200.825 301.21C201.665 300.905 203.039 299.835 204.719 298.308C209.377 294.185 215.868 287.083 214.647 286.243C214.265 286.014 213.425 285.25 212.203 284.257C213.73 283.265 220.527 278.988 231.141 277.919C236.257 277.385 242.29 277.614 249.01 279.294C249.927 279.523 251.225 279.828 252.905 280.21Z" fill="#282424" stroke="white" stroke-width="2" stroke-miterlimit="10"/>
<path d="M127.133 300.37V339.163H117.97V287.923L118.352 288.457L127.133 300.37Z" fill="#282424" stroke="white" stroke-width="2" stroke-miterlimit="10"/>
<path d="M194.181 284.868C192.654 285.708 190.974 286.166 189.218 286.243C189.371 286.014 189.37 285.861 189.37 285.861C189.37 285.861 191.432 285.632 194.181 284.868Z" fill="#282424" stroke="white" stroke-width="2" stroke-miterlimit="10"/>
<path d="M205.407 278.453C205.178 278.759 204.949 279.064 204.72 279.37V277.843C205.025 277.995 205.178 278.224 205.407 278.453Z" fill="#282424" stroke="white" stroke-width="2" stroke-miterlimit="10"/>
<path d="M205.406 278.453C205.177 278.759 204.948 279.064 204.719 279.37V277.843C205.024 277.995 205.177 278.224 205.406 278.453Z" fill="#282424" stroke="white" stroke-width="2" stroke-miterlimit="10"/>
<path d="M205.939 270.894C205.939 270.894 205.48 271.81 204.717 273.261V279.294C202.197 282.272 197.691 283.952 194.179 284.868C191.429 285.632 189.368 285.861 189.368 285.861C189.368 285.861 188.68 284.028 187.459 282.348C186.542 281.126 185.244 279.981 183.717 279.904C183.717 279.904 179.669 280.668 179.059 278.301C178.448 275.857 181.349 276.621 181.96 275.475C182.495 274.483 181.197 271.352 179.059 269.137C178.677 268.755 178.295 268.45 177.913 268.144C175.393 266.312 184.022 260.203 187.077 255.239L189.826 255.315C197.233 259.515 207.466 266.999 205.939 270.894Z" fill="#282424" stroke="white" stroke-width="2" stroke-miterlimit="10"/>
<path d="M189.901 255.392L187.152 255.315C187.381 254.934 187.611 254.552 187.763 254.246C188.374 254.552 189.138 255.01 189.901 255.392Z" fill="#282424" stroke="white" stroke-width="2" stroke-miterlimit="10"/>
<path d="M194.178 284.868C192.65 285.708 190.97 286.166 189.214 286.243C189.367 286.014 189.367 285.861 189.367 285.861C189.367 285.861 191.428 285.632 194.178 284.868Z" fill="#282424" stroke="white" stroke-width="2" stroke-miterlimit="10"/>
<path d="M189.367 285.861C189.367 285.861 189.367 286.013 189.214 286.242C189.061 286.471 188.832 286.701 188.45 287.006C187.992 287.235 187.305 287.541 186.312 287.617C183.334 287.999 162.41 292.275 156.759 274.941C154.392 267.61 159.661 260.355 165.77 254.857L165.847 254.781C165.999 254.628 166.076 254.551 166.229 254.399C166.381 254.322 166.458 254.17 166.61 254.093C171.574 249.741 176.919 246.533 178.829 245.388C186.236 240.806 189.443 248.29 188.069 253.406C187.992 253.711 187.916 253.94 187.763 254.246C187.61 254.628 187.381 254.933 187.152 255.315C184.098 260.279 175.469 266.388 177.989 268.221C178.37 268.526 178.752 268.831 179.134 269.213C181.272 271.428 182.647 274.559 182.036 275.551C181.349 276.697 178.523 275.933 179.134 278.377C179.745 280.821 183.792 279.981 183.792 279.981C185.319 280.133 186.618 281.202 187.534 282.424C188.756 284.028 189.367 285.861 189.367 285.861Z" fill="#282424" stroke="white" stroke-width="2" stroke-miterlimit="10"/>
<path d="M508.568 357.261V357.414H501.848C499.558 357.414 497.648 355.505 497.648 353.214V288.763C497.648 286.472 499.558 284.563 501.848 284.563H509.714C507.423 284.563 505.514 286.472 505.514 288.763V353.214C505.438 355.123 506.812 356.727 508.568 357.261Z" fill="#282424" stroke="white" stroke-width="2" stroke-miterlimit="10"/>
<path d="M509.715 357.413H508.569V357.261C508.798 357.337 509.333 357.413 509.715 357.413Z" fill="#282424" stroke="white" stroke-width="2" stroke-miterlimit="10"/>
<path d="M558.893 353.061C558.893 355.428 556.984 357.337 554.616 357.337H509.715C509.333 357.337 508.951 357.261 508.569 357.185C506.813 356.726 505.515 355.046 505.515 353.137V288.686C505.515 286.395 507.424 284.486 509.715 284.486H554.464C556.831 284.486 558.74 286.395 558.74 288.763L558.893 353.061Z" fill="#282424" stroke="white" stroke-width="2" stroke-miterlimit="10"/>
<path d="M288.033 368.487V438.665H204.72V357.414H219.611C219.611 363.752 219.84 368.028 219.84 368.028C219.84 368.028 253.134 370.167 287.88 368.487C288.032 368.487 288.033 368.487 288.033 368.487Z" fill="#282424" stroke="white" stroke-width="2" stroke-miterlimit="10"/>
<path d="M359.126 315.719C358.973 317.093 358.82 318.468 358.744 319.843C358.897 319.843 359.126 319.843 359.278 319.919L358.133 334.046L357.98 335.65L357.446 342.064L355.842 361.843L355.307 368.257C330.566 367.494 308.267 367.188 295.591 368.028C295.209 368.028 294.904 368.104 294.598 368.104H294.522C292.384 368.257 290.246 368.333 288.031 368.486H287.955C253.209 370.166 219.915 368.028 219.915 368.028C219.915 368.028 219.686 363.752 219.686 357.413C219.686 353.901 219.686 349.701 219.838 345.272C219.915 343.286 219.991 341.224 220.144 339.163C220.144 338.857 220.144 338.552 220.22 338.246C220.373 336.337 220.526 334.428 220.678 332.519C221.213 326.868 222.053 321.293 223.275 316.483C223.275 316.406 223.351 316.253 223.351 316.177C223.351 316.101 223.427 315.948 223.427 315.872C223.809 314.421 224.191 313.123 224.649 311.824C227.627 303.806 233.813 296.399 239.846 290.748C245.267 285.632 250.46 281.89 252.904 280.21C253.82 279.599 254.278 279.293 254.278 279.293C279.936 279.828 325.449 288.915 361.493 293.421C361.493 293.803 361.417 294.184 361.417 294.566C360.577 301.286 359.889 308.464 359.126 315.719Z" fill="#282424" stroke="white" stroke-width="2" stroke-miterlimit="10"/>
<path d="M497.496 301.134V368.487C497.496 368.487 492.074 370.319 473.365 371.77C466.874 372.228 448.012 371.617 424.492 370.777C415.94 370.472 406.852 370.09 397.46 369.708C383.485 369.174 368.976 368.639 355.23 368.258L355.765 361.843L357.369 342.065L357.903 335.65L358.056 334.047L359.201 319.919C359.049 319.919 358.82 319.919 358.667 319.843C358.82 318.468 358.972 317.094 359.049 315.719C359.812 308.465 360.5 301.287 361.187 294.49C361.187 294.108 361.263 293.727 361.263 293.345C363.096 293.574 365.005 293.803 366.761 294.032C381.347 295.712 404.791 297.163 427.929 298.308C463.285 300.065 497.496 301.134 497.496 301.134Z" fill="#282424" stroke="white" stroke-width="2" stroke-miterlimit="10"/>
<path d="M557.977 438.665V355.581" stroke="white" stroke-width="2" stroke-miterlimit="10"/>
<path d="M317.584 274.177C317.355 274.254 317.126 274.33 316.896 274.406C316.896 274.33 316.973 274.33 316.973 274.254C317.126 274.177 317.278 274.177 317.584 274.177Z" fill="#282424" stroke="white" stroke-width="2" stroke-miterlimit="10"/>
<path d="M328.734 282.272L299.792 284.181C310.407 283.188 320.868 282.425 328.734 282.272Z" fill="#282424" stroke="white" stroke-width="2" stroke-miterlimit="10"/>
<path d="M328.732 282.272V282.119V282.272Z" fill="#282424" stroke="white" stroke-width="2" stroke-miterlimit="10"/>
<path d="M328.732 282.272V282.119V282.272Z" fill="#282424" stroke="white" stroke-width="2" stroke-miterlimit="10"/>
<path d="M328.734 282.272C320.945 282.424 310.406 283.188 299.792 284.181H299.639C299.639 284.181 299.257 284.104 304.908 279.599C307.428 277.613 312.316 275.781 316.974 274.406C317.203 274.33 317.432 274.253 317.661 274.177C317.737 274.177 317.89 274.101 317.966 274.101C318.272 274.024 318.577 273.948 318.883 273.872C321.556 273.108 324.076 272.497 325.756 272.115L326.29 273.948L326.672 275.17L328.734 282.272Z" fill="#282424" stroke="white" stroke-width="2" stroke-miterlimit="10"/>
<path d="M328.734 282.272L299.792 284.181C310.407 283.188 320.868 282.425 328.734 282.272Z" fill="#282424" stroke="white" stroke-width="2" stroke-miterlimit="10"/>
<path d="M451.45 200.334C451.297 220.875 434.879 246.457 434.191 246.61C432.97 248.519 431.519 250.428 430.144 252.185C429.991 252.566 429.915 253.025 429.839 253.483C429.304 257.225 428.77 260.966 428.159 265.319C427.93 268.832 427.93 277.385 428.006 288.686C428.006 291.741 428.082 295.025 428.082 298.461C428.159 303.883 428.235 309.763 428.311 315.872C428.311 317.017 428.311 318.163 428.388 319.308C427.701 319.385 427.013 319.461 426.326 319.461C422.05 319.843 417.85 320.148 413.879 320.377C406.319 320.836 399.217 321.065 392.65 321.141C390.893 321.141 389.213 321.141 387.61 321.141H386.006C385.93 321.141 385.853 321.141 385.777 321.141C385.471 321.141 385.166 321.141 384.784 321.141C383.562 321.141 382.417 321.141 381.271 321.065C380.584 321.065 379.897 321.065 379.21 321.065C376.842 320.988 374.628 320.912 372.49 320.835C372.184 320.835 371.879 320.835 371.573 320.835C371.191 320.835 370.81 320.759 370.428 320.759C369.97 320.759 369.435 320.683 368.977 320.683C368.595 320.683 368.213 320.683 367.831 320.606C366.839 320.53 365.846 320.53 364.93 320.454C364.166 320.377 363.479 320.377 362.715 320.301C362.333 320.301 361.875 320.225 361.493 320.225C361.417 320.225 361.34 320.225 361.34 320.225C360.653 320.148 359.966 320.148 359.279 320.072C359.126 320.072 358.897 320.072 358.744 319.996C358.897 318.621 359.05 317.246 359.126 315.872C359.89 308.617 360.577 301.439 361.264 294.643C361.264 294.261 361.34 293.879 361.34 293.497C362.104 286.09 362.868 279.217 363.479 273.032L369.206 271.199L376.384 268.908C380.126 267.686 383.104 264.785 384.402 261.043L400.057 215.454C403.341 206.595 405.861 197.355 405.479 190.712C405.097 184.374 400.286 179.563 394.864 178.035C398.835 177.348 404.486 177.425 409.908 177.73C420.064 178.265 430.221 179.563 430.221 179.563C430.221 179.563 439.231 181.014 443.202 184.755C443.355 184.908 443.508 185.061 443.737 185.29C448.471 189.108 451.526 194.988 451.45 200.334Z" fill="#BEE8FF" stroke="white" stroke-width="2" stroke-miterlimit="10"/>
<path d="M375.086 504.337C372.719 503.803 368.672 507.086 365.541 506.705C362.257 506.246 355.919 504.49 355.919 504.49C355.69 504.566 355.384 504.643 355.155 504.719C355.232 504.643 355.384 504.566 355.537 504.566C356.072 504.337 358.973 502.581 359.126 500.672C359.279 498.839 359.584 495.861 359.89 493.799L374.552 494.181C374.704 497.617 375.086 503.115 375.086 504.337Z" fill="#282424" stroke="white" stroke-width="2" stroke-miterlimit="10"/>
<path d="M377.912 515.41C377.912 515.41 343.777 518.236 334.156 515.334C330.414 514.189 342.479 508.843 355.232 504.796C355.461 504.719 355.767 504.643 355.996 504.567C355.996 504.567 362.334 506.323 365.618 506.781C368.748 507.163 372.796 503.879 375.163 504.414C375.239 504.414 375.392 504.49 375.468 504.49C377.988 505.559 377.912 515.41 377.912 515.41Z" fill="#282424" stroke="white" stroke-width="2" stroke-miterlimit="10"/>
<path d="M429.915 491.584L420.675 491.813L415.635 491.89C415.635 491.661 415.635 491.584 415.635 491.584L420.369 491.508L429.838 491.355C429.838 491.432 429.838 491.508 429.915 491.584Z" fill="#282424" stroke="white" stroke-width="2" stroke-miterlimit="10"/>
<path d="M433.2 515.41C433.2 515.41 398.912 518.694 389.214 515.334C380.127 512.203 391.429 510.599 409.909 504.872C410.291 504.796 410.672 504.643 411.054 504.49C411.818 504.032 415.254 501.207 415.407 499.374C415.56 498.076 415.56 496.472 415.56 495.021C415.56 493.647 415.56 492.425 415.56 491.89L420.6 491.814L429.84 491.585C429.916 493.036 430.527 503.04 430.603 504.414C431.749 504.949 432.36 507.163 432.741 509.454C433.2 512.432 433.2 515.41 433.2 515.41Z" fill="#282424" stroke="white" stroke-width="2" stroke-miterlimit="10"/>
<path d="M416.169 159.021C416.169 159.098 416.169 159.098 416.169 159.021C416.169 159.098 416.169 159.021 416.169 159.021Z" fill="#282424" stroke="white" stroke-width="2" stroke-miterlimit="10"/>
<path d="M412.122 167.115C412.045 168.032 411.893 168.872 411.816 169.788C411.969 168.872 412.122 167.955 412.122 167.115Z" fill="#282424" stroke="white" stroke-width="2" stroke-miterlimit="10"/>
<path d="M430.45 179.563C430.45 179.563 420.294 178.264 410.138 177.73L410.214 177.501V177.424C410.519 176.279 411.359 173.148 411.894 169.788C412.047 168.948 412.123 168.032 412.199 167.115C409.832 167.039 407.77 166.504 406.319 165.283C408.839 165.359 411.665 162.61 412.123 162.152V162.075L413.116 159.937L416.934 151.919C416.476 154.515 416.094 157.112 416.17 159.173C416.17 159.173 416.17 159.173 416.094 159.173C416.094 159.173 416.094 159.173 416.17 159.173C416.247 160.777 416.476 162.075 417.163 162.839C417.927 163.755 419.301 164.595 420.752 165.435C421.592 165.894 422.508 166.352 423.425 166.81C426.174 168.108 428.618 168.948 428.618 168.948L430.45 179.563Z" fill="#282424" stroke="white" stroke-width="2" stroke-miterlimit="10"/>
<path d="M418.614 142.603C418.385 144.894 417.697 147.948 417.163 150.926L416.857 150.621L411.97 161.006C411.207 157.341 410.061 146.192 410.061 146.192L403.646 144.97C404.563 139.319 406.548 133.897 409.756 130.614H409.832C411.512 130.614 413.421 131.301 415.101 132.141C415.025 132.064 419.225 136.494 418.614 142.603Z" fill="#282424" stroke="white" stroke-width="2" stroke-miterlimit="10"/>
<path d="M416.169 159.021C416.169 159.098 416.169 159.098 416.169 159.021C416.169 159.098 416.169 159.021 416.169 159.021Z" fill="#282424" stroke="white" stroke-width="2" stroke-miterlimit="10"/>
<path d="M412.124 161.999C412.124 161.999 412.124 162.075 412.124 161.999V161.999Z" fill="#282424" stroke="white" stroke-width="2" stroke-miterlimit="10"/>
<path d="M435.033 156.959C431.902 159.25 430.298 161.846 429.458 164.061L428.618 168.872C428.618 168.872 426.098 167.955 423.425 166.734C422.509 166.352 421.593 165.894 420.753 165.359C419.302 164.519 418.003 163.603 417.163 162.763C416.476 161.999 416.171 160.701 416.171 159.097C416.094 157.035 416.476 154.515 416.934 151.843C417.011 151.537 417.011 151.232 417.087 150.926C417.622 147.872 418.309 144.894 418.538 142.603C419.225 136.57 415.025 132.065 415.025 132.065C413.269 131.225 411.36 130.614 409.756 130.537H409.68C401.814 130.308 406.396 115.341 415.56 117.021C422.738 118.319 427.32 122.443 428.923 124.275C432.207 124.581 436.636 126.261 440.989 133.439C446.334 142.221 441.753 152.072 435.033 156.959Z" fill="#282424" stroke="white" stroke-width="2" stroke-miterlimit="10"/>
<path d="M431.597 491.585H429.917C429.917 491.432 429.917 491.432 429.917 491.432L420.448 491.585L415.713 491.661C415.713 491.661 415.713 491.737 415.713 491.967H414.644C414.644 491.967 414.568 491.585 414.415 490.897C414.186 489.676 413.728 487.537 413.117 484.636C411.666 477.687 409.299 466.69 406.855 454.777C406.015 450.73 405.099 446.53 404.259 442.407C399.677 420.796 395.324 400.101 394.942 398.727C394.942 398.803 394.942 398.803 394.942 398.727V398.65C394.942 398.65 394.942 398.65 394.942 398.727C394.942 398.116 394.255 391.777 393.415 383.225C393.568 382.614 393.797 382.079 393.95 381.468C394.102 381.087 394.179 380.705 394.331 380.323C394.408 380.017 394.561 379.712 394.637 379.33C394.942 378.261 395.324 377.116 395.706 375.97C395.706 375.894 395.782 375.817 395.782 375.665C395.935 375.207 396.088 374.748 396.241 374.214C396.241 374.137 396.317 374.061 396.317 373.908C396.47 373.297 396.699 372.763 396.851 372.152C396.851 372.076 396.928 371.923 396.928 371.847C397.081 371.236 397.31 370.701 397.462 370.09V370.014C397.768 369.021 398.073 367.952 398.455 366.959C398.761 365.967 399.066 364.974 399.448 363.905C400.593 360.316 401.815 356.65 402.96 353.061C403.19 352.45 403.342 351.763 403.571 351.152C403.571 351.076 403.571 351.076 403.648 350.999C403.801 350.465 404.03 349.854 404.182 349.319C404.259 349.167 404.259 349.09 404.335 348.937C404.488 348.479 404.641 347.945 404.793 347.486C405.099 346.494 405.404 345.577 405.786 344.585C406.015 343.974 406.168 343.363 406.397 342.752C406.473 342.523 406.55 342.217 406.626 341.988C406.855 341.225 407.161 340.461 407.39 339.697C407.466 339.392 407.619 339.01 407.695 338.705C407.771 338.399 407.924 338.017 408.001 337.712C408.23 337.101 408.459 336.414 408.688 335.803C408.688 335.726 408.764 335.65 408.764 335.574C408.917 335.039 409.146 334.505 409.299 333.97C409.528 333.283 409.757 332.672 409.986 331.985C410.215 331.374 410.368 330.839 410.597 330.228C410.826 329.617 411.055 329.007 411.208 328.319C411.361 327.785 411.59 327.174 411.742 326.639C412.048 325.799 412.353 324.883 412.582 324.043C412.735 323.508 412.964 322.974 413.117 322.439C413.27 321.905 413.499 321.37 413.651 320.912C413.728 320.683 413.804 320.377 413.881 320.148C417.928 319.919 422.051 319.614 426.328 319.232C425.946 322.668 425.641 327.861 425.411 333.894C425.411 334.428 425.335 334.963 425.335 335.497C425.259 337.559 425.182 339.697 425.106 341.912C424.801 351.457 424.648 362.148 424.495 371.388C424.342 384.981 424.266 395.596 424.266 395.596L427.779 442.177L428.695 454.548L431.444 491.279L431.597 491.585Z" fill="#282424" stroke="white" stroke-width="2" stroke-miterlimit="10"/>
<path d="M429.915 491.584L420.675 491.813L415.635 491.89C415.635 491.661 415.635 491.584 415.635 491.584L420.369 491.508L429.838 491.355C429.838 491.432 429.838 491.508 429.915 491.584Z" fill="#282424" stroke="white" stroke-width="2" stroke-miterlimit="10"/>
<path d="M413.878 320.301C413.802 320.53 413.726 320.835 413.649 321.064C413.497 321.599 413.268 322.057 413.115 322.592C412.962 323.126 412.733 323.661 412.58 324.195C412.275 325.035 411.969 325.875 411.74 326.792C411.587 327.326 411.358 327.937 411.206 328.472C410.977 329.082 410.747 329.693 410.595 330.381C410.366 330.992 410.213 331.526 409.984 332.137C409.755 332.824 409.526 333.435 409.297 334.122C409.144 334.657 408.915 335.192 408.762 335.726C408.762 335.802 408.686 335.879 408.686 335.955C408.457 336.566 408.228 337.253 407.998 337.864C407.922 338.17 407.769 338.552 407.693 338.857C407.54 339.162 407.464 339.544 407.388 339.85C407.158 340.613 406.853 341.377 406.624 342.141C406.548 342.37 406.471 342.675 406.395 342.904C406.166 343.515 406.013 344.126 405.784 344.737C405.478 345.73 405.173 346.646 404.867 347.639C404.715 348.097 404.562 348.632 404.409 349.09C404.409 349.242 404.333 349.319 404.257 349.472C404.104 350.006 403.875 350.617 403.722 351.152C403.722 351.228 403.722 351.228 403.646 351.304C403.417 351.915 403.264 352.526 403.035 353.213C401.889 356.802 400.667 360.468 399.522 364.057C399.217 365.05 398.835 366.119 398.529 367.112C398.224 368.028 397.918 368.944 397.689 369.784C397.689 369.937 397.613 370.013 397.613 370.166V370.242C397.46 370.853 397.231 371.388 397.078 371.999C397.078 372.075 397.002 372.228 397.002 372.304C396.773 372.915 396.62 373.526 396.467 374.061C396.467 374.137 396.391 374.213 396.391 374.366C396.238 374.824 396.086 375.282 395.933 375.817C395.933 375.893 395.857 375.97 395.857 376.046C395.475 377.192 395.169 378.261 394.788 379.406C394.711 379.712 394.558 380.093 394.482 380.399C394.406 380.781 394.253 381.162 394.1 381.544C393.947 382.155 393.718 382.766 393.566 383.301C389.366 396.893 386.235 407.508 386.158 409.799C386.006 412.395 384.631 424.537 383.027 438.817C382.875 440.039 382.722 441.261 382.569 442.483C382.417 443.552 382.34 444.621 382.188 445.766C381.806 448.744 381.5 451.875 381.118 454.853C380.049 463.483 379.057 471.959 378.217 478.832C377.987 480.893 377.758 482.879 377.529 484.635C376.842 490.592 376.307 494.41 376.307 494.41L374.704 494.333L360.042 493.952L356.529 493.875L356.071 484.635L355.766 478.832L354.544 454.853L354.086 445.766L353.933 442.483L353.78 438.817L352.253 407.584L355.078 373.068L355.46 368.41L355.995 361.995L357.598 342.217L358.133 335.802L358.286 334.199L359.431 320.072C360.118 320.148 360.806 320.148 361.493 320.224C361.569 320.224 361.646 320.224 361.646 320.224C362.027 320.224 362.486 320.301 362.867 320.301C363.555 320.377 364.318 320.377 365.082 320.453C365.998 320.53 366.991 320.606 367.984 320.606C368.366 320.606 368.747 320.682 369.129 320.682C369.587 320.682 370.046 320.759 370.58 320.759C370.962 320.759 371.344 320.759 371.726 320.835C372.031 320.835 372.337 320.835 372.642 320.835C374.78 320.912 377.071 320.988 379.362 321.064C380.049 321.064 380.737 321.064 381.424 321.064C382.569 321.064 383.715 321.064 384.937 321.141C385.242 321.141 385.624 321.141 385.929 321.141C386.006 321.141 386.082 321.141 386.158 321.141H387.762C389.442 321.141 391.122 321.141 392.802 321.141C399.293 320.912 406.395 320.682 413.878 320.301Z" fill="#282424" stroke="white" stroke-width="2" stroke-miterlimit="10"/>
<path d="M400.134 215.454L384.48 261.043C383.181 264.784 380.203 267.686 376.461 268.908L369.283 271.199L363.556 273.032L361.265 273.719L355.767 275.475L329.192 283.952L328.734 282.348L328.658 282.195L326.519 275.17L326.138 273.948L325.603 272.115L324.992 270.054L355.843 253.024L361.341 249.97L363.48 248.824L364.09 243.555L365.007 235.537V235.384C366.458 224.541 369.436 205.755 373.789 196.592C380.05 183.304 381.73 180.861 386.847 178.494C389.367 177.348 392.269 177.272 395.018 178.035C400.363 179.563 405.174 184.374 405.632 190.712C406.014 197.355 403.418 206.595 400.134 215.454Z" fill="#BEE8FF" stroke="white" stroke-width="2" stroke-miterlimit="10"/>
<path d="M365.007 235.461L364.091 243.479C364.015 243.479 364.015 243.479 364.015 243.479C364.015 243.479 364.244 240.348 365.007 235.461Z" fill="#E3F0FB" stroke="white" stroke-width="2" stroke-miterlimit="10"/>
<path d="M417.087 150.926C417.01 151.232 417.01 151.537 416.934 151.843L413.116 159.861L412.123 161.999V162.076C411.665 162.534 408.839 165.283 406.319 165.206C406.319 165.206 400.745 162.076 403.036 144.741L403.647 144.894L410.061 146.116C410.061 146.116 411.207 157.265 411.97 160.93L416.858 150.545L417.087 150.926Z" fill="#C5E6FB" stroke="white" stroke-width="2" stroke-miterlimit="10"/>
<path d="M412.124 161.999C412.124 161.999 412.124 162.075 412.124 161.999V161.999Z" fill="#282424" stroke="white" stroke-width="2" stroke-miterlimit="10"/>
<path d="M365.005 235.384C365.005 235.461 365.005 235.461 365.005 235.537V235.384Z" fill="#E3F0FB" stroke="white" stroke-width="2" stroke-miterlimit="10"/>
<path d="M435.565 157.799C432.281 160.09 430.601 162.915 429.761 165.13L428.921 170.17C428.921 170.17 426.325 169.254 423.5 167.955C422.583 167.497 421.591 167.039 420.674 166.504C419.147 165.664 417.772 164.748 416.932 163.832C416.245 162.992 415.863 161.694 415.863 160.014C415.787 157.952 416.169 155.203 416.627 152.53C416.703 152.224 416.703 151.919 416.78 151.537C417.391 148.406 418.078 145.275 418.307 142.984C418.994 136.723 414.565 132.064 414.565 132.064C412.732 131.224 410.747 130.537 409.067 130.461H408.991C400.743 130.155 405.478 114.73 415.1 116.486C422.583 117.861 427.394 122.137 429.151 123.97C432.587 124.352 437.169 126.032 441.827 133.439C447.325 142.526 442.591 152.683 435.565 157.799Z" fill="#282424" stroke="#282424" stroke-width="2" stroke-miterlimit="10"/>
<path d="M420.681 134.66C420.605 134.66 419.612 132.293 417.321 130.307C415.03 128.322 412.434 127.787 412.51 127.635C412.51 127.635 413.121 127.635 414.114 128.017C415.107 128.322 416.405 128.933 417.55 130.002C418.696 131.071 419.612 132.217 420.147 133.133C420.529 134.049 420.681 134.66 420.681 134.66Z" fill="#1D1D1B" stroke="white" stroke-width="0.75" stroke-miterlimit="10"/>
<path d="M420.212 127.559C420.136 127.712 418.38 126.185 415.707 125.574C413.034 124.81 410.743 125.345 410.743 125.116C410.743 125.039 413.034 124.352 415.86 125.116C418.456 125.803 420.212 127.483 420.212 127.559Z" fill="#1D1D1B" stroke="white" stroke-width="0.75" stroke-miterlimit="10"/>
<path d="M402.888 123.283C402.965 123.283 402.888 123.664 402.888 124.199C402.888 124.81 403.194 125.573 403.805 126.261C404.339 126.948 405.103 127.33 405.638 127.483C406.172 127.635 406.63 127.559 406.63 127.712C406.63 127.712 406.248 127.864 405.638 127.864C405.027 127.788 404.11 127.406 403.499 126.566C402.888 125.803 402.583 124.886 402.659 124.275C402.43 123.588 402.659 123.206 402.888 123.283Z" fill="#1D1D1B" stroke="white" stroke-width="0.75" stroke-miterlimit="10"/>
<path d="M405.33 122.443C405.33 122.52 405.177 122.749 405.177 123.207C405.101 123.665 405.101 124.276 405.559 124.811C406.017 125.345 406.552 125.651 407.01 125.651C407.468 125.727 407.774 125.727 407.774 125.727C407.774 125.803 407.545 125.956 407.01 126.032C406.475 126.032 405.712 125.803 405.254 125.116C404.795 124.429 404.795 123.665 405.025 123.131C405.101 122.596 405.254 122.367 405.33 122.443Z" fill="#1D1D1B" stroke="white" stroke-width="0.75" stroke-miterlimit="10"/>
<path d="M411.97 118.471C411.894 118.624 410.672 117.86 409.068 117.555C407.388 117.326 406.014 117.708 405.938 117.631C405.861 117.555 407.236 116.944 409.068 117.173C410.901 117.326 411.97 118.319 411.97 118.471Z" fill="#1D1D1B" stroke="white" stroke-width="0.75" stroke-miterlimit="10"/>
<path d="M416.173 122.138C416.096 122.29 414.874 121.527 413.271 121.221C411.591 120.992 410.216 121.374 410.14 121.298C410.063 121.221 411.438 120.61 413.271 120.839C415.103 120.992 416.096 121.985 416.173 122.138Z" fill="#1D1D1B" stroke="white" stroke-width="0.75" stroke-miterlimit="10"/>
<path d="M420.062 124.275C419.909 124.199 420.444 123.664 420.596 122.595C420.902 121.526 420.825 119.923 419.985 118.472C419.145 117.097 417.694 116.257 416.702 115.952C415.709 115.646 415.022 115.723 414.945 115.646C414.945 115.646 415.633 115.417 416.778 115.646C417.847 115.952 419.374 116.715 420.367 118.243C421.207 119.846 421.207 121.603 420.902 122.595C420.443 123.817 420.062 124.275 420.062 124.275Z" fill="#1D1D1B" stroke="white" stroke-width="0.75" stroke-miterlimit="10"/>
<path d="M432.588 167.956C432.588 167.956 432.206 168.261 431.519 168.185C430.756 168.108 429.763 167.879 428.999 166.963C428.312 166.123 428.159 164.977 428.159 164.214C428.312 163.45 428.541 163.068 428.617 163.145C428.694 163.145 428.541 163.603 428.541 164.214C428.465 164.825 428.694 165.817 429.381 166.581C430.068 167.345 430.985 167.65 431.596 167.726C432.283 168.032 432.588 167.956 432.588 167.956Z" fill="#1D1D1B" stroke="white" stroke-width="0.75" stroke-miterlimit="10"/>
<path d="M450.529 143.061C450.453 143.061 450.682 142.221 450.758 140.847C450.835 139.472 450.758 137.639 450.224 135.578C449.689 133.592 448.773 131.988 448.009 130.767C447.245 129.698 446.711 129.01 446.711 129.01C446.711 129.01 447.398 129.468 448.315 130.614C449.155 131.683 450.224 133.439 450.758 135.425C451.293 137.487 451.369 139.472 451.14 140.847C450.987 142.221 450.529 143.061 450.529 143.061Z" fill="#1D1D1B" stroke="white" stroke-width="0.75" stroke-miterlimit="10"/>
<path d="M443.047 128.933C442.971 128.933 442.971 128.475 442.742 127.864C442.513 127.176 441.902 126.413 441.138 125.725C440.298 125.115 439.382 124.809 438.618 124.733C437.854 124.656 437.473 124.809 437.473 124.656C437.473 124.656 437.931 124.351 438.695 124.427C439.382 124.351 440.527 124.656 441.52 125.344C442.436 126.107 443.047 126.947 443.2 127.787C443.276 128.398 443.276 128.933 443.047 128.933Z" fill="#1D1D1B" stroke="white" stroke-width="0.75" stroke-miterlimit="10"/>
<path d="M450.687 128.858C450.611 129.011 449.389 126.643 446.793 125.04C444.196 123.36 441.676 123.207 441.753 122.978C441.753 122.978 442.364 122.978 443.433 123.131C444.425 123.36 445.8 123.818 447.098 124.658C448.396 125.498 449.389 126.567 450 127.407C450.458 128.323 450.687 128.858 450.687 128.858Z" fill="#1D1D1B" stroke="white" stroke-width="0.75" stroke-miterlimit="10"/>
<path d="M438.7 121.221C438.7 121.298 436.867 121.297 435.034 122.519C433.201 123.665 432.514 125.498 432.361 125.421C432.361 125.421 432.361 125.039 432.743 124.276C433.125 123.665 433.736 122.825 434.729 122.137C435.721 121.527 436.714 121.145 437.401 121.145C438.318 121.145 438.7 121.221 438.7 121.221Z" fill="#1D1D1B" stroke="white" stroke-width="0.75" stroke-miterlimit="10"/>
<path d="M434.421 119.693C434.421 119.77 432.588 119.77 430.756 120.992C428.923 122.137 428.236 123.97 428.083 123.893C428.083 123.893 428.083 123.512 428.465 122.748C428.847 122.137 429.458 121.297 430.45 120.61C431.443 119.999 432.436 119.617 433.123 119.617C434.116 119.541 434.421 119.693 434.421 119.693Z" fill="#1D1D1B" stroke="white" stroke-width="0.75" stroke-miterlimit="10"/>
<path d="M441.979 152.911C441.979 152.835 442.437 152.682 443.048 152.224C443.658 151.842 444.575 151.155 445.262 150.162C445.949 149.169 446.255 148.176 446.408 147.336C446.56 146.573 446.56 146.038 446.637 146.038C446.637 146.038 446.866 146.496 446.713 147.336C446.713 148.176 446.331 149.322 445.644 150.391C444.957 151.46 443.964 152.147 443.2 152.529C442.513 152.835 441.979 152.911 441.979 152.911Z" fill="#1D1D1B" stroke="white" stroke-width="0.75" stroke-miterlimit="10"/>
<path d="M441.751 156.348C441.751 156.272 442.438 156.195 443.584 155.737C444.653 155.279 446.027 154.439 447.096 153.065C448.242 151.69 448.853 150.163 449.082 149.094C449.311 148.025 449.311 147.185 449.387 147.261C449.387 147.261 449.54 148.025 449.387 149.246C449.235 150.392 448.7 152.072 447.478 153.523C446.256 154.974 444.806 155.814 443.66 156.272C442.438 156.425 441.751 156.348 441.751 156.348Z" fill="#1D1D1B" stroke="white" stroke-width="0.75" stroke-miterlimit="10"/>
<path d="M441.291 162.686C441.291 162.686 441.673 163.297 441.596 164.366C441.52 165.435 441.138 166.962 439.993 168.184C438.847 169.406 437.243 169.864 436.098 169.864C434.953 169.94 434.418 169.635 434.418 169.635C434.418 169.559 435.029 169.711 436.098 169.559C437.091 169.406 438.542 169.024 439.687 167.802C440.756 166.733 441.291 165.282 441.367 164.213C441.443 163.373 441.062 162.686 441.291 162.686Z" fill="#1D1D1B" stroke="white" stroke-width="0.75" stroke-miterlimit="10"/>
<path d="M440.377 154.592C440.377 154.668 439.766 154.744 439.079 155.202C438.315 155.584 437.246 156.424 436.711 157.722C436.177 159.021 436.253 160.319 436.559 161.082C436.788 161.999 437.169 162.381 437.093 162.457C437.093 162.457 436.559 162.075 436.253 161.159C435.948 160.319 435.719 158.868 436.329 157.493C436.94 156.119 438.086 155.202 439.002 154.897C439.613 154.592 440.377 154.592 440.377 154.592Z" fill="#1D1D1B" stroke="white" stroke-width="0.75" stroke-miterlimit="10"/>
<path d="M427.015 162.457C426.862 162.381 427.244 161.999 427.473 161.236C427.702 160.472 427.778 159.403 427.549 158.181C427.32 156.959 426.633 156.119 426.022 155.585C425.487 155.05 425.029 154.897 425.029 154.745C425.029 154.745 425.564 154.821 426.175 155.279C426.786 155.737 427.549 156.73 427.931 158.028C428.237 159.326 428.084 160.472 427.778 161.159C427.473 162.152 427.015 162.534 427.015 162.457Z" fill="#1D1D1B" stroke="white" stroke-width="0.75" stroke-miterlimit="10"/>
<path d="M435.565 165.894C435.565 165.97 435.184 166.199 434.573 166.123C433.962 166.046 433.045 165.741 432.358 164.977C431.747 164.214 431.671 163.144 431.824 162.61C431.976 161.923 432.205 161.694 432.205 161.694C432.282 161.694 432.053 161.999 432.129 162.686C432.053 163.221 432.205 164.137 432.664 164.748C433.198 165.435 433.885 165.741 434.573 165.894C435.26 165.894 435.565 165.817 435.565 165.894Z" fill="#1D1D1B" stroke="white" stroke-width="0.75" stroke-miterlimit="10"/>
<path d="M423.653 153.293C423.653 153.216 423.882 152.835 424.264 152.224C424.646 151.536 424.951 150.544 425.104 149.322C425.181 148.176 424.951 147.184 424.722 146.42C424.493 145.733 424.264 145.275 424.264 145.275C424.264 145.275 424.646 145.58 425.028 146.344C425.41 147.107 425.639 148.176 425.639 149.398C425.486 150.696 425.104 151.689 424.646 152.3C424.035 152.987 423.653 153.369 423.653 153.293Z" fill="#1D1D1B" stroke="white" stroke-width="0.75" stroke-miterlimit="10"/>
<path d="M426.783 153.599C426.783 153.523 427.241 153.37 427.852 152.912C428.463 152.53 429.227 151.766 429.838 150.697C430.296 149.628 430.525 148.559 430.449 147.796C430.372 146.956 430.22 146.574 430.296 146.497C430.296 146.497 430.601 146.956 430.754 147.719C430.907 148.483 430.83 149.781 430.22 150.85C429.685 151.996 428.692 152.759 428.005 153.141C427.318 153.676 426.86 153.676 426.783 153.599Z" fill="#1D1D1B" stroke="white" stroke-width="0.75" stroke-miterlimit="10"/>
<path d="M424.26 142.984C424.107 142.908 425.1 141.151 424.642 138.86C424.336 136.57 422.886 135.119 422.962 135.119C422.962 135.119 423.42 135.348 423.878 136.035C424.336 136.646 424.871 137.715 425.024 138.86C425.176 140.082 425.024 141.228 424.795 141.915C424.489 142.602 424.26 142.984 424.26 142.984Z" fill="#1D1D1B" stroke="white" stroke-width="0.75" stroke-miterlimit="10"/>
<path d="M446.789 141.915C446.789 141.992 446.407 141.992 445.872 142.297C445.338 142.526 444.574 143.137 444.04 143.977C443.505 144.817 443.352 145.657 443.429 146.268C443.429 146.879 443.658 147.261 443.581 147.261C443.581 147.261 443.276 146.879 443.123 146.192C442.971 145.504 443.2 144.512 443.658 143.595C444.192 142.679 445.032 142.068 445.643 141.915C446.254 141.839 446.789 141.915 446.789 141.915Z" fill="#1D1D1B" stroke="white" stroke-width="0.75" stroke-miterlimit="10"/>
<path d="M437.021 151.155C437.021 151.232 435.341 151.614 433.814 152.988C432.21 154.286 431.523 155.89 431.447 155.814C431.37 155.814 431.905 154.057 433.508 152.683C435.341 151.232 437.021 151.003 437.021 151.155Z" fill="#1D1D1B" stroke="white" stroke-width="0.75" stroke-miterlimit="10"/>
<path d="M440 141.839C440 141.762 440.305 141.457 440.687 140.617C441.069 139.93 441.298 138.784 440.993 137.639C440.611 136.493 439.847 135.73 439.236 135.271C438.625 134.813 438.091 134.737 438.091 134.737C438.091 134.737 438.625 134.737 439.389 135.042C440.076 135.424 441.145 136.34 441.451 137.562C441.833 138.86 441.451 140.006 440.993 140.77C440.458 141.533 440 141.839 440 141.839Z" fill="#1D1D1B" stroke="white" stroke-width="0.75" stroke-miterlimit="10"/>
<path d="M445.038 140.693C445.038 140.616 445.419 140.158 445.878 139.242C446.259 138.325 446.565 136.875 446.259 135.424C445.954 133.973 445.038 132.827 444.274 132.14C443.51 131.453 442.899 131.224 442.899 131.224C442.899 131.224 443.51 131.3 444.427 131.911C445.343 132.522 446.259 133.744 446.641 135.347C447.023 136.951 446.641 138.478 446.107 139.395C445.725 140.311 445.038 140.693 445.038 140.693Z" fill="#1D1D1B" stroke="white" stroke-width="0.75" stroke-miterlimit="10"/>
<path d="M440.455 132.294C440.455 132.37 439.92 132.294 439.08 132.523C438.316 132.675 437.171 133.363 436.636 134.508C436.102 135.654 436.255 136.952 436.56 137.715C436.866 138.479 437.324 138.861 437.247 138.937C437.247 138.937 436.636 138.632 436.255 137.792C435.873 136.952 435.567 135.577 436.178 134.279C436.789 132.981 438.087 132.294 439.004 132.217C439.92 131.988 440.455 132.141 440.455 132.294Z" fill="#1D1D1B" stroke="white" stroke-width="0.75" stroke-miterlimit="10"/>
<path d="M432.589 149.399C432.589 149.323 433.047 149.094 433.582 148.406C434.193 147.795 434.651 146.726 434.651 145.428C434.651 144.206 434.04 143.061 433.506 142.603C432.971 141.992 432.437 141.686 432.437 141.686C432.437 141.686 432.971 141.763 433.658 142.374C434.269 142.984 435.109 144.13 435.109 145.504C435.109 146.955 434.422 148.024 433.735 148.635C433.277 149.246 432.589 149.399 432.589 149.399Z" fill="#1D1D1B" stroke="white" stroke-width="0.75" stroke-miterlimit="10"/>
<path d="M436.021 148.94C435.869 148.864 437.167 147.719 437.396 145.962C437.701 144.13 436.861 142.679 437.09 142.602C437.09 142.602 437.472 142.831 437.701 143.519C437.93 144.053 438.159 145.046 437.93 146.039C437.701 147.031 437.319 147.871 436.861 148.33C436.327 148.788 436.098 148.864 436.021 148.94Z" fill="#1D1D1B" stroke="white" stroke-width="0.75" stroke-miterlimit="10"/>
<path d="M429.223 134.355C429.223 134.431 428.917 134.737 428.536 135.577C428.154 136.264 427.925 137.41 428.077 138.708C428.23 139.93 428.765 140.922 429.299 141.533C429.834 142.144 430.292 142.373 430.216 142.45C430.216 142.45 429.681 142.373 428.994 141.762C428.383 141.151 427.696 140.082 427.466 138.784C427.314 137.486 427.619 136.264 428.077 135.5C428.765 134.66 429.223 134.355 429.223 134.355Z" fill="#1D1D1B" stroke="white" stroke-width="0.75" stroke-miterlimit="10"/>
<path d="M438.168 131.072C438.016 130.996 438.55 129.927 438.168 128.628C437.863 127.254 436.794 126.643 436.87 126.567C436.87 126.567 437.176 126.567 437.557 126.948C437.939 127.33 438.397 127.788 438.55 128.628C438.703 129.392 438.626 130.079 438.55 130.614C438.474 130.843 438.168 131.148 438.168 131.072Z" fill="#1D1D1B" stroke="white" stroke-width="0.75" stroke-miterlimit="10"/>
<path d="M425.103 126.336C425.103 126.413 424.95 126.566 424.721 126.947C424.492 127.329 424.34 127.864 424.492 128.551C424.492 129.162 424.874 129.696 425.18 130.078C425.485 130.46 425.791 130.46 425.714 130.613C425.714 130.613 425.409 130.689 424.951 130.384C424.569 130.078 424.111 129.544 424.034 128.704C423.958 127.864 424.187 127.176 424.569 126.795C424.569 126.413 425.103 126.336 425.103 126.336Z" fill="#1D1D1B" stroke="white" stroke-width="0.75" stroke-miterlimit="10"/>
<path d="M430.984 133.057C430.831 132.98 430.984 132.751 431.137 132.293C431.213 131.835 431.29 131.148 431.06 130.46C430.908 129.773 430.45 129.162 430.144 128.78C429.839 128.399 429.533 128.322 429.61 128.169C429.61 128.169 429.915 128.169 430.373 128.475C430.755 128.78 431.29 129.391 431.519 130.231C431.748 131.071 431.671 131.835 431.442 132.293C431.29 132.751 430.984 133.057 430.984 133.057Z" fill="#1D1D1B" stroke="white" stroke-width="0.75" stroke-miterlimit="10"/>
<path d="M432.973 140.006C432.82 139.93 433.279 138.708 432.744 137.257C432.21 135.73 431.14 135.043 431.217 134.89C431.217 134.89 431.522 134.89 432.057 135.348C432.439 135.654 432.973 136.264 433.279 137.181C433.584 137.944 433.508 138.784 433.431 139.319C433.279 139.701 432.973 140.006 432.973 140.006Z" fill="#1D1D1B" stroke="white" stroke-width="0.75" stroke-miterlimit="10"/>
<path d="M428.007 118.166C428.007 118.243 427.014 118.395 426.174 119.312C425.334 120.152 425.105 121.068 424.953 121.144C424.876 121.144 424.876 120.839 425.029 120.381C425.105 119.923 425.411 119.464 425.945 118.93C426.48 118.472 427.014 118.166 427.473 118.166C427.778 118.014 427.931 118.09 428.007 118.166Z" fill="#1D1D1B" stroke="white" stroke-width="0.75" stroke-miterlimit="10"/>
<path d="M450.605 154.287C450.605 154.287 450.605 154.822 450.3 155.738C449.994 156.502 449.307 157.647 448.314 158.487C447.245 159.327 446.1 159.785 445.26 160.014C444.343 160.243 443.809 160.091 443.809 160.091C443.809 160.014 444.267 160.014 445.183 159.709C445.947 159.403 447.092 158.945 448.009 158.105C448.925 157.265 449.689 156.273 450.07 155.585C450.223 154.822 450.452 154.363 450.605 154.287Z" fill="#1D1D1B" stroke="white" stroke-width="0.75" stroke-miterlimit="10"/>
<path d="M436.558 117.249C436.481 117.249 436.099 116.944 435.259 116.409C434.419 115.951 433.274 115.417 431.899 115.188C430.525 114.958 429.15 115.035 428.31 115.264C427.47 115.493 426.859 115.722 426.859 115.569C426.859 115.569 427.318 115.188 428.234 114.806C429.227 114.5 430.525 114.271 432.052 114.577C433.579 114.882 434.725 115.417 435.565 115.951C436.176 116.715 436.558 117.249 436.558 117.249Z" fill="#1D1D1B" stroke="white" stroke-width="0.75" stroke-miterlimit="10"/>
<path d="M440.684 119.464C440.607 119.464 440.455 119.006 440.149 118.09C439.844 117.326 439.233 116.257 438.24 115.264C437.324 114.348 436.255 113.737 435.338 113.508C434.575 113.203 434.04 113.203 433.964 113.05C433.964 113.05 434.575 112.897 435.415 113.126C436.331 113.355 437.477 113.89 438.469 114.806C439.538 115.723 440.073 116.944 440.378 117.784C440.76 118.854 440.684 119.464 440.684 119.464Z" fill="#1D1D1B" stroke="white" stroke-width="0.75" stroke-miterlimit="10"/>
<path d="M426.861 171.621L431.519 171.697L431.213 169.559H425.181L426.861 171.621Z" fill="#282424"/>
<path d="M188.607 148.941L177.916 227.901H72L82.8436 148.941H188.607Z" fill="#282424" stroke="white" stroke-width="2" stroke-miterlimit="10"/>
<path d="M135.075 179.715C134.693 179.715 134.464 179.41 134.54 179.104L134.922 164.595L129.806 179.181C129.729 179.486 129.424 179.715 129.118 179.715H123.315C123.086 179.715 122.857 179.563 122.78 179.334L121.635 176.279L119.497 179.334C119.344 179.563 119.115 179.639 118.886 179.639H115.373C115.068 179.639 114.838 179.486 114.838 179.181L112.624 168.948L106.82 179.257C106.668 179.486 106.438 179.639 106.133 179.639H89.4857C89.1039 179.639 88.8748 179.334 88.9512 178.952C89.0275 178.57 89.333 178.264 89.7148 178.264H105.98L112.471 166.81C112.624 166.581 112.853 166.428 113.158 166.428C113.464 166.428 113.617 166.581 113.693 166.886L116.137 178.264H118.733L121.406 174.446C121.558 174.217 121.788 174.064 122.017 174.141C122.246 174.141 122.475 174.294 122.551 174.523L123.926 178.341H128.813L135.075 160.319C135.151 160.014 135.457 159.784 135.838 159.784C136.144 159.784 136.373 160.014 136.373 160.395L135.991 175.592L138.435 169.559C138.588 169.254 138.817 169.101 139.122 169.101C139.428 169.101 139.657 169.33 139.657 169.635L140.191 178.341H147.064L154.7 161.846C154.853 161.541 155.158 161.388 155.464 161.388C155.769 161.388 155.998 161.617 155.998 161.923L156.686 178.264H158.748L162.413 172.384C162.566 172.155 162.871 172.003 163.1 172.003C163.406 172.003 163.558 172.232 163.635 172.461L164.322 178.264H173.791C174.173 178.264 174.402 178.57 174.326 178.952C174.249 179.334 173.944 179.639 173.562 179.639H163.635C163.329 179.639 163.1 179.41 163.1 179.181L162.566 174.675L159.664 179.334C159.511 179.563 159.282 179.715 159.053 179.715H156.075C155.769 179.715 155.54 179.486 155.54 179.181L154.929 164.824L148.209 179.257C148.057 179.563 147.828 179.715 147.522 179.715H139.657C139.351 179.715 139.122 179.486 139.122 179.181L138.74 172.614L135.991 179.257C135.686 179.486 135.304 179.715 135.075 179.715Z" fill="#282424" stroke="white" stroke-miterlimit="10"/>
<path d="M130.952 209.421C130.57 209.421 130.341 209.115 130.417 208.81L130.799 194.301L125.683 208.886C125.606 209.192 125.301 209.421 124.995 209.421H119.192C118.963 209.421 118.734 209.268 118.657 209.039L117.512 205.985L115.374 209.039C115.221 209.268 114.992 209.345 114.763 209.345H111.25C110.944 209.345 110.715 209.192 110.715 208.886L108.501 198.654L102.697 208.963C102.544 209.192 102.315 209.345 102.01 209.345H85.3627C84.9808 209.345 84.7517 209.039 84.8281 208.657C84.9045 208.275 85.2099 207.97 85.5917 207.97H101.857L108.348 196.515C108.501 196.286 108.73 196.134 109.035 196.134C109.341 196.134 109.494 196.286 109.57 196.592L112.014 207.97H114.61L117.283 204.152C117.435 203.923 117.664 203.77 117.894 203.846C118.123 203.846 118.352 203.999 118.428 204.228L119.803 208.046H124.69L130.952 190.025C131.028 189.719 131.334 189.49 131.715 189.49C132.021 189.49 132.25 189.719 132.25 190.101L131.868 205.297L134.312 199.265C134.464 198.959 134.694 198.806 134.999 198.806C135.305 198.806 135.534 199.035 135.534 199.341L136.068 208.046H142.941L150.577 191.552C150.73 191.246 151.035 191.094 151.341 191.094C151.646 191.094 151.875 191.323 151.875 191.628L152.563 207.97H154.625L158.29 202.09C158.443 201.861 158.748 201.708 158.977 201.708C159.283 201.708 159.435 201.937 159.512 202.166L160.199 207.97H169.668C170.05 207.97 170.279 208.275 170.203 208.657C170.126 209.039 169.821 209.345 169.439 209.345H159.512C159.206 209.345 158.977 209.115 158.977 208.886L158.443 204.381L155.541 209.039C155.388 209.268 155.159 209.421 154.93 209.421H151.952C151.646 209.421 151.417 209.192 151.417 208.886L150.806 194.53L144.086 208.963C143.934 209.268 143.705 209.421 143.399 209.421H135.534C135.228 209.421 134.999 209.192 134.999 208.886L134.617 202.319L131.868 208.963C131.563 209.192 131.334 209.421 130.952 209.421Z" fill="#282424" stroke="white" stroke-miterlimit="10"/>
<path d="M176.006 476.083H84.751V227.901H166.536V254.094C166.384 254.17 166.307 254.323 166.155 254.399C166.002 254.475 165.926 254.628 165.773 254.781L114.533 253.712L114.456 253.788L114.151 254.17L113.693 254.628L109.187 257.988C104.453 261.501 103.536 268.145 106.973 272.803L118.198 287.923V339.163H112.318C111.631 339.163 110.944 339.239 110.256 339.392C106.209 340.308 103.155 343.897 103.155 348.25C103.155 350.77 104.147 353.061 105.827 354.665C107.507 356.345 109.722 357.337 112.242 357.337H169.744L169.82 357.414L169.896 357.566L169.973 357.719L170.278 357.49L170.355 357.414H172.493V462.032C172.34 462.108 172.264 462.185 172.111 462.261C169.82 463.559 168.293 465.926 168.293 468.752C168.522 472.723 171.958 476.083 176.006 476.083Z" fill="#282424" stroke="white" stroke-width="2" stroke-miterlimit="10"/>
<path d="M294.523 461.65V468.294H287.956V461.65C288.949 461.192 290.094 460.886 291.24 460.886C292.462 460.886 293.454 461.192 294.523 461.65Z" fill="#282424" stroke="white" stroke-width="2" stroke-miterlimit="10"/>
<path d="M294.523 368.105V461.65C293.531 461.192 292.462 460.887 291.24 460.887C290.094 460.887 288.949 461.192 287.956 461.65V438.665H288.032V368.487C290.171 368.334 292.385 368.257 294.523 368.105Z" fill="#282424" stroke="white" stroke-width="2" stroke-miterlimit="10"/>
<path d="M288.032 368.487V438.665H287.956V368.487C288.032 368.487 288.032 368.487 288.032 368.487Z" fill="#282424" stroke="white" stroke-width="2" stroke-miterlimit="10"/>
<path d="M298.723 468.37C298.723 472.493 295.363 475.777 291.315 475.777C287.192 475.777 283.908 472.417 283.908 468.37C283.908 465.468 285.588 462.871 288.032 461.726C289.025 461.268 290.17 460.962 291.315 460.962C292.461 460.962 293.606 461.268 294.599 461.726C296.966 462.871 298.723 465.392 298.723 468.37Z" fill="#282424" stroke="white" stroke-width="2" stroke-miterlimit="10"/>
<path d="M287.114 468.294C287.114 466.003 288.947 464.17 291.238 464.17C293.529 464.17 295.362 466.003 295.362 468.294C295.362 470.585 293.529 472.417 291.238 472.417C288.871 472.494 287.114 470.585 287.114 468.294Z" fill="#282424" stroke="white" stroke-width="2" stroke-miterlimit="10"/>
<path d="M515.062 357.032V461.65C514.07 461.192 512.924 460.887 511.779 460.887C510.633 460.887 509.488 461.192 508.495 461.65V357.032H515.062Z" fill="#282424" stroke="white" stroke-width="2" stroke-miterlimit="10"/>
<path d="M519.262 468.294C519.262 472.417 515.902 475.701 511.855 475.701C507.731 475.701 504.447 472.341 504.447 468.294C504.447 465.392 506.127 462.796 508.571 461.65C509.564 461.192 510.709 460.886 511.855 460.886C513 460.886 514.145 461.192 515.138 461.65C517.658 462.872 519.262 465.392 519.262 468.294Z" fill="#282424" stroke="white" stroke-width="2" stroke-miterlimit="10"/>
<path d="M507.73 468.294C507.73 466.003 509.563 464.17 511.854 464.17C514.145 464.17 515.978 466.003 515.978 468.294C515.978 470.585 514.145 472.417 511.854 472.417C509.487 472.494 507.73 470.585 507.73 468.294Z" fill="#282424" stroke="white" stroke-width="2" stroke-miterlimit="10"/>
<path d="M394.94 264.25C394.94 264.25 394.863 264.555 394.711 265.09C394.634 265.395 394.558 265.701 394.405 266.083C394.253 266.465 394.1 266.923 393.871 267.381C393.642 267.839 393.413 268.374 393.031 268.832C392.725 269.366 392.344 269.901 391.962 270.435C391.122 271.505 390.129 272.574 388.907 273.566C387.685 274.559 386.387 275.323 385.165 275.934C384.554 276.239 383.943 276.468 383.409 276.621C382.874 276.85 382.264 277.003 381.805 277.079C381.347 277.232 380.813 277.308 380.431 277.308C380.049 277.385 379.667 277.385 379.362 277.461C378.827 277.461 378.445 277.537 378.445 277.461C378.445 277.385 379.744 277.385 381.653 276.85C382.111 276.697 382.645 276.545 383.256 276.315C383.791 276.163 384.402 275.857 385.013 275.552C386.234 274.941 387.456 274.177 388.678 273.261C389.9 272.268 390.893 271.199 391.733 270.206C392.114 269.672 392.496 269.137 392.802 268.679C393.107 268.221 393.413 267.686 393.642 267.228C394.558 265.472 394.787 264.25 394.94 264.25Z" fill="#1D1D1B"/>
<path d="M237.702 325.951C237.702 325.951 237.626 326.027 237.473 326.18C237.32 326.332 237.091 326.485 236.786 326.791C236.633 326.943 236.48 327.096 236.251 327.249C236.098 327.402 235.869 327.631 235.717 327.86C235.335 328.318 234.8 328.7 234.418 329.311C234.189 329.616 233.96 329.922 233.731 330.227C233.502 330.533 233.349 330.914 233.12 331.296C232.662 331.983 232.28 332.9 231.898 333.74C231.211 335.573 230.677 337.634 230.524 339.849C230.371 342.063 230.6 344.202 231.058 346.034C231.364 346.951 231.517 347.867 231.898 348.631C232.051 349.013 232.204 349.394 232.357 349.776C232.586 350.158 232.738 350.463 232.891 350.769C233.197 351.456 233.655 351.914 233.96 352.449C234.113 352.678 234.266 352.907 234.418 353.136C234.571 353.289 234.724 353.518 234.877 353.671C235.182 353.976 235.335 354.205 235.487 354.358C235.64 354.511 235.717 354.587 235.717 354.587C235.717 354.587 235.64 354.511 235.487 354.358C235.335 354.205 235.106 353.976 234.8 353.671C234.647 353.518 234.495 353.365 234.342 353.213C234.189 353.06 234.037 352.831 233.807 352.602C233.426 352.143 233.044 351.609 232.662 350.998C232.509 350.693 232.28 350.311 232.051 350.005C231.822 349.623 231.746 349.242 231.517 348.86C231.135 348.096 230.906 347.18 230.6 346.263C230.142 344.354 229.913 342.216 230.066 339.925C230.218 337.634 230.753 335.573 231.517 333.74C231.898 332.823 232.28 331.983 232.738 331.296C232.967 330.914 233.197 330.533 233.426 330.227C233.655 329.922 233.884 329.616 234.113 329.311C234.571 328.7 235.029 328.242 235.487 327.86C235.717 327.631 235.869 327.478 236.098 327.325C236.327 327.172 236.48 327.02 236.633 326.943C236.938 326.714 237.244 326.485 237.397 326.409C237.626 326.027 237.702 325.951 237.702 325.951Z" fill="#1D1D1B"/>
<path d="M209.992 301.898C209.992 301.974 208.312 301.516 206.25 300.905C204.188 300.294 202.584 299.684 202.661 299.531C202.661 299.454 204.341 299.913 206.403 300.524C208.464 301.134 209.992 301.822 209.992 301.898Z" fill="#1D1D1B"/>
<path d="M216.625 302.584C216.625 302.661 214.028 301.668 210.898 300.37C207.767 299.071 205.247 297.926 205.323 297.85C205.323 297.773 207.919 298.766 211.05 300.064C214.181 301.362 216.778 302.508 216.625 302.584Z" fill="#1D1D1B"/>
<path d="M212.431 299.148C212.354 299.225 211.285 298.767 210.063 298.079C208.765 297.392 207.772 296.781 207.849 296.705C207.925 296.628 208.994 297.087 210.216 297.774C211.514 298.461 212.431 299.072 212.431 299.148Z" fill="#1D1D1B"/>
<path d="M218.384 298.308C218.384 298.384 216.246 297.621 213.726 296.628C211.206 295.559 209.221 294.719 209.221 294.566C209.221 294.49 211.359 295.254 213.879 296.246C216.323 297.315 218.384 298.232 218.384 298.308Z" fill="#1D1D1B"/>
<path d="M214.341 292.887C214.341 292.963 213.425 292.81 212.279 292.581C211.134 292.352 210.294 291.97 210.294 291.894C210.294 291.818 211.21 291.97 212.356 292.199C213.501 292.428 214.341 292.734 214.341 292.887Z" fill="#1D1D1B"/>
<path d="M223.728 292.887C223.728 292.963 221.208 292.2 218.153 291.207C215.099 290.214 212.655 289.298 212.731 289.222C212.731 289.145 215.251 289.909 218.306 290.902C221.36 291.894 223.728 292.734 223.728 292.887Z" fill="#1D1D1B"/>
<path d="M218.382 288.535C218.382 288.611 217.389 288.458 216.167 288.229C214.946 288 214.029 287.618 214.029 287.542C214.029 287.465 215.022 287.618 216.244 287.847C217.466 288.076 218.382 288.458 218.382 288.535Z" fill="#1D1D1B"/>
<path d="M223.732 286.931C223.732 287.007 221.746 286.931 219.379 286.778C217.012 286.625 215.026 286.396 215.026 286.32C215.026 286.244 217.012 286.32 219.379 286.473C221.823 286.625 223.732 286.855 223.732 286.931Z" fill="#1D1D1B"/>
<path d="M174.858 263.868C174.935 263.868 174.706 264.25 174.553 264.784C174.4 265.319 174.324 266.159 174.476 266.999C174.629 267.839 175.011 268.603 175.317 269.061C175.622 269.519 175.927 269.824 175.851 269.824C175.851 269.824 175.469 269.672 175.087 269.213C174.706 268.755 174.247 267.992 174.095 267.075C173.942 266.159 174.095 265.243 174.324 264.708C174.629 264.097 174.858 263.792 174.858 263.868Z" fill="#1D1D1B"/>
<path d="M183.403 255.545C183.326 255.545 183.479 255.086 183.556 254.399C183.632 253.712 183.556 252.719 183.174 251.726C182.792 250.734 182.181 249.894 181.723 249.436C181.188 248.901 180.806 248.672 180.883 248.672C180.883 248.672 181.341 248.825 181.876 249.283C182.41 249.741 183.097 250.581 183.479 251.65C183.861 252.719 183.937 253.788 183.785 254.476C183.785 255.163 183.479 255.621 183.403 255.545Z" fill="#1D1D1B"/>
<path d="M184.942 253.787C184.865 253.787 185.018 253.329 185.018 252.565C185.018 251.878 184.865 250.809 184.331 249.893C183.796 248.9 183.033 248.213 182.422 247.831C181.811 247.449 181.353 247.296 181.353 247.296C181.353 247.296 181.811 247.296 182.498 247.678C183.185 247.984 184.025 248.747 184.56 249.74C185.094 250.809 185.247 251.878 185.171 252.642C185.171 253.405 184.942 253.787 184.942 253.787Z" fill="#1D1D1B"/>
<path d="M182.49 281.813C182.49 281.813 182.032 282.195 181.039 282.348C180.123 282.501 178.672 282.424 177.45 281.508C176.228 280.668 175.617 279.37 175.388 278.377C175.235 277.461 175.388 276.85 175.388 276.85C175.465 276.85 175.388 277.461 175.617 278.301C175.846 279.141 176.457 280.363 177.603 281.203C178.748 281.966 180.046 282.119 180.963 282.043C181.955 281.966 182.49 281.737 182.49 281.813Z" fill="#1D1D1B"/>
<path d="M178.67 284.256C178.67 284.256 178.517 284.256 178.288 284.18C178.059 284.104 177.677 284.027 177.219 283.798C176.379 283.416 175.31 282.576 174.546 281.431C173.783 280.209 173.554 278.911 173.554 277.995C173.554 277.536 173.63 277.155 173.706 276.926C173.783 276.696 173.859 276.544 173.859 276.544C173.936 276.544 173.783 277.078 173.859 277.995C173.859 278.911 174.165 280.133 174.928 281.278C175.616 282.424 176.608 283.264 177.372 283.646C178.059 284.027 178.67 284.18 178.67 284.256Z" fill="#1D1D1B"/>
</svg>
