<?xml version="1.0" encoding="utf-8"?>
<!-- Generator: Adobe Illustrator 23.0.6, SVG Export Plug-In . SVG Version: 6.00 Build 0)  -->
<svg version="1.1" id="Layer_1" xmlns="http://www.w3.org/2000/svg" xmlns:xlink="http://www.w3.org/1999/xlink" x="0px" y="0px"
	 viewBox="0 0 1080 1080" style="enable-background:new 0 0 1080 1080;" xml:space="preserve">
<style type="text/css">
	.st0{fill:none;stroke:#FFFFFF;stroke-width:2;stroke-miterlimit:10;}
	.st1{fill:#C5E6FB;stroke:#FFFFFF;stroke-width:2;stroke-miterlimit:10;}
	.st2{fill:#BEE8FF;stroke:#FFFFFF;stroke-width:2;stroke-miterlimit:10;}
	.st3{fill:#E3F0FB;stroke:#FFFFFF;stroke-width:2;stroke-miterlimit:10;}
	.st4{fill:#FFFFFF;stroke:#FFFFFF;stroke-width:0.75;stroke-miterlimit:10;}
	.st5{fill:none;stroke:#FFFFFF;stroke-width:0.75;stroke-miterlimit:10;}
	.st6{fill:#FFFFFF;}
	.st7{fill:none;}
</style>
<g>
	<polygon class="st0" points="399.9,514.5 362.1,514.5 362.1,463.7 	"/>
	<path class="st0" d="M421.3,538.4v61.2c0.8,0.1,1.7,0.2,2.5,0.3c2,0.2,4,0.5,6.1,0.8v-62.3H421.3z M462.6,508.7
		c-1.1-0.4-2.2-0.8-3.2-1.2c-0.9-0.4-1.7-0.7-2.5-1.1c-0.5-0.2-0.9-0.5-1.4-0.7c-0.8-0.4-1.5-0.8-2.1-1.3c-0.5-0.3-0.9-0.7-1.3-1
		c-0.6-0.5-1.1-1.1-1.4-1.7c-0.6-1-1.2-2-1.6-3.1c-0.1-0.2-0.1-0.3-0.2-0.5l-1.9-5l-0.1-0.8l-0.2-1.8l0-1.3v0c0-0.3,0-0.7,0-1
		c0-0.2,0-0.4,0-0.5c0-0.5,0.1-1.1,0.2-1.7c0-0.3,0.1-0.7,0.1-1c0-0.1,0-0.2,0.1-0.4c0-0.1,0-0.1,0-0.2c0,0,0-0.1,0-0.1c0,0,0,0,0,0
		c0-0.3,0.1-0.5,0.2-0.8c0-0.1,0-0.2,0.1-0.3c0-0.1,0-0.2,0-0.2c0-0.2,0.1-0.3,0.1-0.5c0-0.1,0-0.1,0-0.2c0-0.2,0.1-0.3,0.1-0.5
		c0-0.1,0-0.2,0.1-0.2c0-0.2,0.1-0.4,0.1-0.5c0,0,0-0.1,0-0.1v0c0.1-0.5,0.3-0.9,0.4-1.3c0-0.1,0.1-0.3,0.1-0.4
		c0-0.2,0.1-0.4,0.2-0.6c0-0.1,0.1-0.2,0.1-0.3c0-0.2,0.1-0.3,0.2-0.5c0-0.1,0.1-0.3,0.2-0.4c0-0.1,0-0.1,0.1-0.2
		c0.1-0.2,0.2-0.4,0.3-0.7c0.1-0.2,0.1-0.4,0.2-0.6c0-0.1,0.1-0.2,0.1-0.3c0.3-0.7,0.6-1.4,1-2.2c0.4-0.8,0.8-1.7,1.2-2.5
		c0.2-0.4,0.4-0.8,0.7-1.2c0.5-0.8,0.9-1.6,1.4-2.4c0.2-0.3,0.4-0.6,0.6-1c0-0.1,0.1-0.2,0.2-0.3c0.1-0.2,0.3-0.5,0.4-0.7v0
		c0,0,0,0,0,0c0.2-0.3,0.3-0.5,0.5-0.8c0,0,0,0,0,0c0.2-0.3,0.3-0.5,0.5-0.8c0.4-0.5,0.7-1.1,1.1-1.6c-0.1-0.2-0.2-0.4-0.3-0.6
		c0-0.1-0.1-0.1-0.1-0.2c-0.1-0.3-0.3-0.6-0.5-0.9s-0.3-0.7-0.5-1c-0.1-0.2-0.3-0.5-0.5-0.8c-0.2-0.3-0.3-0.5-0.5-0.8
		c-0.2-0.4-0.5-0.7-0.7-1.1c-1-1.5-2.2-3.1-3.6-4.5c-0.4-0.4-0.8-0.8-1.2-1.2c-0.2-0.2-0.5-0.5-0.7-0.7c-0.2-0.2-0.4-0.3-0.6-0.5
		c-0.8-0.7-1.7-1.4-2.7-2c-0.1-0.1-0.1-0.1-0.2-0.2c-0.2-0.1-0.3-0.2-0.5-0.3c0,0-0.1,0-0.1,0c0,0,0,0,0,0c-0.2-0.1-0.4-0.2-0.5-0.3
		c0,0-0.1,0-0.1-0.1c-0.5-0.3-1.1-0.6-1.7-0.8c-0.6,0.4-1.5,0.7-2.8,0.9c-0.1,0-0.2,0-0.3,0c-0.1,0-0.3,0-0.5,0.1
		c-0.2,0-0.5,0.1-0.8,0.1c-0.3,0-0.7,0.1-1.1,0.2c-0.9,0.1-2,0.2-3.2,0.4c-0.2,0-0.4,0-0.6,0c-0.3,0-0.6,0-0.8,0.1
		c-0.7,0-1.5,0.1-2.3,0.1c-0.6,0-1.2,0-1.8,0c-0.9,0-1.8,0-2.7-0.1c-0.8-0.1-1.7-0.1-2.5-0.2c-0.1,0-0.2,0-0.2,0
		c-0.5-0.1-0.9-0.1-1.4-0.2c-0.3,0-0.5-0.1-0.8-0.1c-0.3,0-0.5-0.1-0.8-0.2c-0.5-0.1-1.1-0.2-1.6-0.4c-0.3-0.1-0.6-0.2-0.8-0.2
		c-0.3-0.1-0.6-0.2-0.8-0.3c-0.3-0.1-0.5-0.2-0.8-0.3c-0.8-0.3-1.5-0.6-2.3-1c-0.2-0.1-0.4-0.2-0.6-0.3c-0.8-0.4-1.6-0.8-2.3-1.4
		c-0.2-0.1-0.3-0.2-0.5-0.3c-0.7-0.5-1.5-1.1-2.2-1.7c-0.1-0.1-0.2-0.2-0.4-0.3c-0.2-0.2-0.4-0.4-0.6-0.6c-0.2-0.2-0.3-0.3-0.5-0.5
		c0,0,0,0,0,0c-0.1,0-0.1-0.1-0.1-0.1c-0.1-0.1-0.2-0.3-0.4-0.4c-0.2-0.2-0.3-0.4-0.5-0.6c-0.2-0.2-0.3-0.4-0.5-0.6
		c-0.2-0.2-0.3-0.4-0.5-0.7c-0.2-0.3-0.4-0.6-0.6-1c-0.2-0.3-0.4-0.6-0.6-1c-0.8-1.5-1.6-3.2-2.2-5c-0.1-0.3-0.2-0.6-0.3-1
		c-0.1-0.3-0.2-0.6-0.2-0.9c-0.1-0.4-0.1-0.8-0.2-1.2c0,0,0,0,0,0c0,0,0,0,0-0.1c0,0,0-0.1,0-0.1c0-0.1,0-0.2,0-0.3c0,0,0-0.1,0-0.1
		c0,0,0-0.1,0-0.1c0-0.2,0-0.3,0-0.5c0-0.4,0-0.8,0-1.2c0-0.5,0.1-1,0.1-1.4c0-0.2,0.1-0.5,0.1-0.7c0.1-0.4,0.1-0.8,0.2-1.2
		c0.1-0.3,0.2-0.7,0.3-1c0.1-0.4,0.2-0.8,0.4-1.2c0,0,0,0,0-0.1c0.1-0.3,0.2-0.5,0.3-0.8c0.2-0.4,0.4-0.9,0.6-1.3
		c0.3-0.6,0.6-1.2,0.9-1.7c0.2-0.3,0.3-0.6,0.5-0.9c0.2-0.3,0.4-0.6,0.5-0.8c0.2-0.3,0.5-0.7,0.7-1c0.4-0.5,0.8-1.1,1.2-1.6
		c0.3-0.3,0.5-0.7,0.8-1c0.4-0.5,0.8-1,1.2-1.4c0.3-0.4,0.7-0.7,1-1.1c0.1-0.1,0.2-0.2,0.2-0.2c0.3-0.3,0.6-0.6,0.9-1
		c0.8-0.8,1.6-1.6,2.5-2.3h-0.1l-67.3-1.5l-1.1,1.2l1-0.8l61.6,82.9l2.3,3.1l18.9,25.4h35.7v-5.4C463.3,509,463,508.9,462.6,508.7z
		 M443.6,444.7c0,0,0,0.2-0.2,0.5c2.3-0.1,4.5-0.7,6.5-1.8C446.3,444.4,443.6,444.7,443.6,444.7z M417.7,538.4l0.3,0.4l0.6-0.4
		H417.7z"/>
	<path class="st0" d="M463.7,538.4v67.2c-2-0.3-4.1-0.6-6.1-0.9c-3.4-0.5-6.8-1-10.1-1.5c-6-0.9-11.9-1.8-17.6-2.5v-62.3H463.7z"/>
	<path class="st0" d="M449.9,443.4c-2,1.1-4.2,1.7-6.5,1.8c0.2-0.3,0.2-0.5,0.2-0.5S446.3,444.4,449.9,443.4z"/>
	<path class="st0" d="M484,513.3c0,0.4,0,0.8-0.1,1.1v0.1H428l-82.8-111.4l0,0l-1,0.8l1.1-1.2l67.4,1.5c-8,7.2-14.9,16.7-11.8,26.3
		c7.4,22.7,34.7,17.1,38.7,16.6c1.3-0.2,2.2-0.5,2.8-0.9c8.4,3.5,13.1,11.7,15.1,16c-7.9,11.7-14.6,26.1-8.6,36l0,0
		c0.5,1.2,1.1,2.4,1.8,3.6c0.4,0.6,0.9,1.1,1.4,1.7c0.4,0.4,0.8,0.7,1.3,1c2.5,1.8,6.1,3.3,10.3,4.6C470,511,477.4,512.4,484,513.3
		L484,513.3z"/>
	<path class="st0" d="M498.3,434.3c-14,1.4-22.9,7-24.8,8.3c-2.5-2.1-5.9-5.1-8.9-7.7c-0.3,0.4-0.6,0.8-0.9,1.2v-7.9
		c1-1.9,1.6-3.1,1.6-3.1c1.9-5.1-11.4-14.9-21.1-20.3l34.7,0.7L498.3,434.3z"/>
	<polygon class="st0" points="418.6,538.4 418,538.8 418,538.8 417.7,538.4 	"/>
	<path class="st0" d="M483.9,514.5c-0.2,2.7-0.3,5.4-0.4,8c-0.2,5.8-0.3,11.3-0.2,15.9H342.4c-3.3,0-6.3-1.3-8.4-3.5
		c-2.2-2.2-3.5-5.1-3.5-8.4c0-6.6,5.3-11.9,11.9-11.9H400l-37.8-50.8l-12.1-16.2l-14.7-19.8c-4.6-6.1-3.3-14.8,2.9-19.4l5.9-4.4l0,0
		l1-0.8l82.9,111.4l0,0h55.8L483.9,514.5L483.9,514.5z"/>
	<path class="st0" d="M850.4,538.4L850.4,538.4l-0.1-0.6c0,0,0,0,0,0L850.4,538.4z"/>
	<path class="st0" d="M429.9,538.4v62.3c-2.1-0.3-4.1-0.5-6.1-0.8c-0.8-0.1-1.7-0.2-2.5-0.3v-61.2H429.9z"/>
	<rect x="718.5" y="644.8" class="st0" width="0.1" height="9.1"/>
	<path class="st0" d="M787.1,644.8h0.2c-0.4,3.2-0.9,6.2-1.2,9.1h-0.2C786.3,651,786.7,648,787.1,644.8z"/>
	<path class="st0" d="M837.9,644.8c-0.2,1.5-0.3,2.9-0.5,4.3C837.6,647.7,837.8,646.3,837.9,644.8L837.9,644.8z"/>
	<path class="st0" d="M926.4,644.8v9.1h-21.2c-0.1-2.9-0.2-6-0.3-9.1H926.4z"/>
	<path class="st0" d="M463.7,461c-2.2,1.9-4.1,3.4-5.1,3.8c0,0-0.3-1-1.1-2.6c-2-4.2-6.8-12.5-15.1-16c0.6-0.3,0.9-0.7,1-0.9
		c2.3,0,4.5-0.7,6.5-1.8c4.5-1.2,10.4-3.5,13.8-7.3c0.3-0.4,0.6-0.8,0.9-1.2c3,2.6,6.4,5.6,8.9,7.7c1.5,1.3,2.7,2.3,3.2,2.6
		C478.3,446.3,469.8,455.6,463.7,461z"/>
	<path class="st0" d="M526.7,437.3c-3.2,2.2-10,7.1-17.1,13.8l0,0c-7.8,7.4-16,17.1-19.9,27.6c-0.6,1.6-1.1,3.4-1.6,5.3
		c0,0.1-0.1,0.3-0.1,0.4s-0.1,0.3-0.1,0.4c-1.6,6.2-2.7,13.5-3.4,21c-0.2,2.5-0.4,5-0.6,7.5c-6.6-0.9-14-2.3-20.2-4.2
		c-6-1.9-11-4.3-13-7.3c-0.8-1.1-1.3-2.3-1.8-3.6l0,0c-6-9.9,0.7-24.4,8.6-36c0.7,1.6,1.1,2.6,1.1,2.6c1-0.4,2.9-1.8,5.1-3.7
		c6.1-5.4,14.5-14.7,13-15.8c-0.5-0.3-1.6-1.3-3.2-2.6c2-1.3,10.9-6.9,24.8-8.3c6.7-0.7,14.6-0.4,23.4,1.8
		C523,436.4,524.7,436.8,526.7,437.3z"/>
	<polygon class="st0" points="362.1,463.7 362.1,514.5 350.1,514.5 350.1,447.4 	"/>
	<path class="st0" d="M449.9,443.4c-2,1.1-4.2,1.7-6.5,1.8c0.2-0.3,0.2-0.5,0.2-0.5S446.3,444.4,449.9,443.4z"/>
	<path class="st0" d="M464.6,435c-0.3,0.4-0.6,0.8-0.9,1.2v-2C464,434.4,464.3,434.7,464.6,435z"/>
	<path class="st0" d="M464.6,435c-0.3,0.4-0.6,0.8-0.9,1.2v-2C464,434.4,464.3,434.7,464.6,435z"/>
	<path class="st0" d="M465.3,425.1c0,0-0.6,1.2-1.6,3.1v7.9c-3.3,3.8-9.2,6.1-13.8,7.3c-3.6,1-6.3,1.3-6.3,1.3s-0.9-2.4-2.5-4.5
		c-1.2-1.6-2.9-3.1-4.9-3.2c0,0-5.3,1-6.1-2.1c-0.8-3.1,3-2.2,3.8-3.7c0.7-1.3-1-5.4-3.8-8.3c-0.5-0.5-1-0.9-1.5-1.3
		c-3.2-2.4,8-10.4,12-16.9l3.6,0.1C453.9,410.2,467.2,420,465.3,425.1z"/>
	<path class="st0" d="M444.2,404.8l-3.6-0.1c0.3-0.5,0.6-0.9,0.8-1.4C442.3,403.8,443.2,404.3,444.2,404.8z"/>
	<path class="st0" d="M449.9,443.4c-2,1.1-4.2,1.7-6.5,1.8c0.2-0.3,0.2-0.5,0.2-0.5S446.3,444.4,449.9,443.4z"/>
	<path class="st1" d="M443.6,444.7c0,0,0,0.2-0.2,0.5s-0.5,0.6-1,0.9c-0.6,0.4-1.5,0.7-2.8,0.9c-3.9,0.5-31.3,6.1-38.7-16.6
		c-3.1-9.6,3.8-19.1,11.8-26.3c0.2-0.2,0.4-0.4,0.6-0.6c6.7-5.9,13.9-10.3,16.5-11.9c9.7-6,13.9,3.8,12.1,10.5
		c-0.1,0.4-0.2,0.7-0.4,1.1c-0.2,0.5-0.5,0.9-0.8,1.4c-4,6.5-15.2,14.5-12,16.9c0.5,0.4,1,0.8,1.5,1.3c2.8,2.9,4.6,7,3.8,8.3
		c-0.9,1.5-4.6,0.5-3.8,3.7c0.8,3.2,6.1,2.1,6.1,2.1c2,0.2,3.6,1.6,4.9,3.2C442.7,442.3,443.6,444.7,443.6,444.7z"/>
	<path class="st0" d="M848,524c0,0.1,0,0.3,0,0.4l-0.5-2.9l-0.3,0v-0.1l0.4,0L848,524z"/>
	<path class="st0" d="M850.3,537.8C850.3,537.8,850.3,537.8,850.3,537.8l-2.2-13.4c0,0,0,0,0-0.1L850.3,537.8z"/>
	<path class="st0" d="M857.5,478.8c-2.1,9.1-3.7,17.4-4,19.1c0.5-0.8,2-3.4,4-7v0.3c-0.7,1.3-1.4,2.5-2,3.5c-1.2,2-1.9,3.3-2,3.4
		c-0.9,3.2-1.6,6.1-2.1,8.3c-0.6,2.2-0.9,3.8-1.1,4.5c-0.3,1.2-0.6,2.9-1,5.2c-0.4,2.3-0.8,5-1.2,8.1l0,0l0-0.3
		c0.4-3,0.8-5.6,1.2-7.8c0.4-2.2,0.7-4,1-5.2c0.2-0.7,0.6-2.3,1.1-4.5c0.6-2.3,1.3-5.1,2.1-8.3c0,0,0-0.1,0-0.2
		c-0.1,0.1-0.1,0.2-0.2,0.2c0.1-0.5,1-5.1,2.2-11.1c0.6-2.7,1.2-5.7,2-8.7V478.8z"/>
	<path class="st0" d="M857.5,467.9L857.5,467.9c-3.6,0.8-7.1,1.1-10.3,0.9v-0.1C850.4,468.9,854,468.7,857.5,467.9z"/>
	<path class="st0" d="M858.1,446c0,0,0,0.1,0,0.1c-3.5,1.2-7.3,1.6-10.8,1.6c0-0.1,0-0.1,0-0.2C850.7,447.5,854.6,447.1,858.1,446z"
		/>
	<path class="st1" d="M890.8,538.3c-0.3-1.4-0.6-2.9-1-4.5c-2.1-9-5.5-21.4-9-33.6c-3.5-12.2-7.2-24.2-9.7-32.3c0-0.1,0-0.1-0.1-0.2
		c0-0.1,0.1-0.1,0.1-0.2c0,0,0,0.1,0.1,0.2c4.9,16.2,14.5,48,18.7,65.9C890.3,535.3,890.6,536.9,890.8,538.3z"/>
	<path class="st0" d="M866.4,453.1C866.4,453.1,866.4,453.1,866.4,453.1c-0.5,0.6-1.2,1.5-1.9,2.9c-1.3,2.7-2.7,6.7-4,11.2
		c-1,3.6-2,7.5-2.9,11.2v-10.5c0.9-0.2,1.9-0.4,2.8-0.7c0,0,0,0,0,0c1.3-4.5,2.7-8.5,4-11.2C865.1,454.7,865.7,453.7,866.4,453.1z"
		/>
	<path class="st0" d="M861.7,444.5c-1.1,0.6-2.3,1.2-3.6,1.6c0,0,0-0.1,0-0.1v0C859.4,445.6,860.6,445.1,861.7,444.5z"/>
	<path class="st0" d="M927.5,532.7c0,0.3,0,0.6-0.1,0.9c-5.3-27.8-19-57.9-23.1-62.4c-7.2-7.9-19.8-11.2-28.1-12.5
		c0,0-0.1,0.1-0.3,0.5c-0.3,0.4-0.6,1.1-1.1,1.9c-1,1.7-2.2,3.8-3.7,6.4c0,0,0,0,0,0c-3.3,5.7-7.6,13.2-11.1,19.4
		c-0.8,1.5-1.7,2.9-2.4,4.2v-0.3c0.7-1.2,1.4-2.5,2.2-3.9c3.5-6.1,7.8-13.6,11.1-19.4c1.6-2.7,2.9-5,3.8-6.6
		c0.5-0.8,0.9-1.5,1.1-1.9c0.2-0.3,0.3-0.5,0.3-0.5c-1.4-2.1-3.8-3.4-5.8-4.2c-1.8-0.7-3.4-1-3.8-1.1c0,0,0,0,0,0
		c-1.2-4.1-1.9-7.6-2.4-10.1v0c-0.6,0.5-1.2,0.9-1.8,1.2c0.6-0.4,1.3-0.8,1.8-1.3h57.6c3.1,0,5.6,2.5,5.6,5.6L927.5,532.7z"/>
	<path class="st0" d="M572.8,552.9v66.4c-2.1-0.1-4.1-0.3-6.1-0.4c-3.5-0.3-6.9-0.5-10.1-0.8c-7.3-0.6-13.8-1.2-19.4-1.8
		c-22.6-2.6-48.5-6.8-73.5-10.7v-67.2h19.6c0,8.3,0.3,13.9,0.3,13.9S527.3,555.1,572.8,552.9z"/>
	<path class="st0" d="M710.8,544.1c0.1-0.1,0.1-0.3,0.2-0.5c-0.1,0.2-0.1,0.4-0.2,0.7c-0.3,0.8-0.5,1.5-0.8,2.3
		c-0.3,0.9-0.6,1.7-0.9,2.6c-0.2,0.7-0.5,1.4-0.7,2.1c0,0.1-0.1,0.2-0.1,0.3c-0.3,0.8-0.6,1.7-0.9,2.5c0,0,0,0,0,0h-0.1
		c0-0.1,0-0.2,0.1-0.2c0.3-0.8,0.6-1.7,0.9-2.5c0-0.1,0.1-0.2,0.1-0.3c0.2-0.7,0.5-1.4,0.7-2.1c0.3-0.9,0.6-1.7,0.9-2.6
		C710.3,545.6,710.5,544.9,710.8,544.1z"/>
	<path class="st0" d="M712.3,539.4c0.1-0.2,0.1-0.4,0.2-0.6c-0.1,0.2-0.1,0.5-0.2,0.8c-0.2,0.7-0.5,1.5-0.7,2.2
		c-0.1,0.2-0.1,0.3-0.2,0.5c0.1-0.2,0.1-0.4,0.2-0.7C711.8,540.9,712.1,540.1,712.3,539.4z"/>
	<path class="st0" d="M643.8,530.8c0.9,0.1,1.8,0.1,2.7,0.2c-0.1,0-0.2,0-0.2,0C645.5,530.9,644.6,530.9,643.8,530.8L643.8,530.8z"
		/>
	<path class="st0" d="M646.2,470.1l2.9-0.9c-0.8,8.1-1.8,17.1-2.8,26.8c0,0.5-0.1,1-0.1,1.5c-0.9,8.9-1.8,18.3-2.8,27.8
		c-0.1,1.8-0.3,3.6-0.5,5.4c0.2,0.1,0.5,0.1,0.7,0.1c0.1,0,0.1,0,0.2,0l-1.5,18.5l-0.2,2.1l0,0.6c-24.6-0.6-45.9-0.7-59.1,0.2
		c-0.5,0-0.9,0-1.3,0.1c-2.9,0.2-5.7,0.3-8.6,0.5c-45.5,2.2-89.2-0.6-89.2-0.6s-0.3-5.6-0.3-13.9c0-4.6,0-10.1,0.2-15.9
		c0.1-2.6,0.2-5.3,0.4-8v-0.1c0-0.4,0-0.8,0.1-1.1c0.2-2.5,0.4-5,0.6-7.5c0.7-7.4,1.8-14.7,3.4-21c0-0.1,0.1-0.3,0.1-0.4
		c0-0.1,0.1-0.3,0.1-0.4c0.5-1.9,1-3.6,1.6-5.3c3.9-10.5,12-20.2,19.9-27.6c3.5-3.3,7-6.2,10-8.6c3-2.3,5.5-4.1,7.1-5.2
		c1.2-0.8,1.8-1.2,1.8-1.2c13.3,0.3,30.7,2.3,49.8,5c8.5,1.2,17.3,2.6,26.2,3.9c3.7,0.6,7.5,1.2,11.3,1.8c4.2,0.6,8.5,1.3,12.7,2
		l-30.1,16.6l0.8,2.7l0,0c0.1,0,0.1,0,0.2,0l0.7,2.4l0.5,1.6l2.7,9.3h0l0,0.1l0.6,2.1l34.8-11.1L646.2,470.1z"/>
	<path class="st0" d="M675.9,455.2c-2,4.1-5.5,7.2-9.8,8.6l-9.4,3l-7.5,2.4l-0.1,0v0l7.5-2.4l9.4-3
		C670.3,462.4,673.8,459.3,675.9,455.2C675.8,455.2,675.8,455.2,675.9,455.2z"/>
	<path class="st0" d="M651.2,531.3c0.2,0,0.5,0,0.7,0.1c-0.3,0-0.6,0-0.9-0.1c-1-0.1-1.9-0.1-2.9-0.2c-0.5,0-1.1-0.1-1.6-0.1
		c0.1,0,0.2,0,0.2,0c0.5,0,1.1,0.1,1.6,0.1C649.2,531.2,650.2,531.2,651.2,531.3z"/>
	<path class="st0" d="M652.1,531.4c0.8,0,1.6,0.1,2.5,0.1C653.8,531.5,652.9,531.4,652.1,531.4z"/>
	<path class="st0" d="M658.4,531.7c0.5,0,1,0,1.5,0.1h-0.2c-0.5,0-1-0.1-1.5-0.1c-0.6,0-1.3-0.1-1.9-0.1c-0.5,0-1,0-1.5-0.1h0.2
		c0.5,0,1,0.1,1.5,0.1C657.1,531.6,657.7,531.7,658.4,531.7z"/>
	<path class="st0" d="M661.1,531.8c2.8,0.1,5.8,0.2,8.8,0.3h-0.2c-3.1-0.1-6-0.2-8.8-0.3H661.1z"/>
	<path class="st0" d="M672.6,532.1c1.5,0,3,0,4.6,0.1H677c-1.6,0-3.1,0-4.6-0.1H672.6z"/>
	<path class="st0" d="M731.4,529.7c0,0.1,0,0.2,0,0.3c-5.6,0.5-11.1,0.9-16.3,1.2h0c-0.1,0.3-0.2,0.6-0.3,0.9
		c-0.2,0.7-0.5,1.3-0.7,2c-0.2,0.7-0.5,1.4-0.7,2.1c-0.1,0.2-0.2,0.4-0.2,0.6c0.1-0.3,0.2-0.6,0.2-0.8c0.2-0.7,0.5-1.4,0.7-2.1
		c0.2-0.7,0.5-1.4,0.7-2c0.1-0.2,0.1-0.5,0.2-0.7c-9.7,0.6-18.9,0.9-27.3,1c8.4-0.3,17.7-0.6,27.4-1.1c0-0.1,0-0.1,0.1-0.2
		C720.4,530.6,725.8,530.2,731.4,529.7z"/>
	<path class="st0" d="M822.6,463.8c-0.1,0.1-0.3,0.1-0.4,0.2c0,0.1-0.1,0.1-0.1,0.1c-10,5.1-21.9,12.1-24.5,18.2
		c-2.3,5.4-11,23.5-17.3,41.9l-0.1,0l-4.8,0.2l1.6,10l1.4,8.9c0.3-0.3,0.6-0.5,0.9-0.5c0,0,13.4-4.2,14.9-1.2
		c0.1,0.1,0.1,0.3,0.2,0.4c0,0.1,0.1,0.2,0.1,0.2c0,0.1,0.1,0.3,0.1,0.4c0,0.1,0.1,0.2,0.1,0.4c0,0.1,0,0.1,0,0.2
		c0,0.2,0,0.3,0.1,0.5c0,0.4,0,0.8,0,1.2c0,0.1,0,0.3,0,0.4c0,0.1,0,0.3-0.1,0.4c0,0,0,0,0,0c0,0.3-0.1,0.6-0.2,0.8c0,0,0,0.1,0,0.1
		c0,0.1-0.1,0.2-0.1,0.3c-0.1,0.3-0.2,0.6-0.3,0.8c0,0.1-0.1,0.2-0.1,0.3c-0.1,0.2-0.2,0.4-0.3,0.6c-0.1,0.1-0.2,0.3-0.2,0.4
		c-0.1,0.1-0.2,0.3-0.3,0.5c-0.1,0.2-0.2,0.4-0.3,0.5c-0.2,0.3-0.4,0.6-0.6,0.8c-0.2,0.3-0.4,0.6-0.7,0.8c-0.5,0.7-1.1,1.3-1.8,1.9
		c-0.2,0.2-0.5,0.4-0.7,0.6c-0.2,0.2-0.5,0.4-0.7,0.6c-0.5,0.4-0.9,0.8-1.4,1.1c-0.5,0.4-1.1,0.7-1.6,1.1H785c-2,0-4.1-0.1-6.3-0.2
		h-0.1c-1.7,0-3.5-0.1-5.2-0.2h-0.1c-11.6-0.4-24.8-0.9-38.6-1.4c-1.6-0.1-3.2-0.1-4.8-0.2c0-1.4,0.1-2.7,0.1-4
		c0-0.7,0.1-1.4,0.1-2.1c0.3-7.7,0.7-14.4,1.2-18.9h0c0.9,0,1.8-0.1,2.7-0.2c-0.1-1.5-0.1-3-0.1-4.5c-0.1-8-0.2-15.7-0.3-22.8
		c0-4.5-0.1-8.8-0.1-12.8c-0.1-14.2-0.1-25.1,0.2-30c1.8,0.1,3.7,0.2,5.5,0.3C769.5,461.7,801.4,463,822.6,463.8z"/>
	<path class="st0" d="M822,464.2c0.2-0.1,0.5-0.3,0.7-0.4c0,0,0,0,0,0h0.1C822.5,463.9,822.3,464.1,822,464.2z"/>
	<path class="st0" d="M823.6,522.6l-3.5,0.1l-5.2,0.2l-8.9,0.4l-1.6,0.1l-9.7,0.4c0,0,0-0.1,0-0.1l-14.4,0.6c0,0,0-0.1,0-0.1
		l14.3-0.6c0-0.7,0.3-1.2,0.8-1.4c0,0,0,0,0.1,0c1-0.6,2.5-0.6,2.5-0.6s0.8,0,2-0.1c1.2,0,2.9-0.1,4.8-0.2c3.4-0.2,7.4-0.4,10.5-0.6
		c2-0.1,3.6-0.2,4.4-0.3c0.4-0.1,0.7-0.1,1.1,0c0,0,0,0,0,0c2,0.3,2.5,1.7,2.7,2.1h0C823.6,522.5,823.6,522.6,823.6,522.6z"/>
	<path class="st0" d="M836.7,464.3c-2.7,11.1-6.2,26.5-6.9,29.1v0l0,0.4c-2.4,7.7-5.6,17.2-8.8,26.5c0,0-0.1,0-0.1,0
		c3.2-9.3,6.5-18.8,8.8-26.5c0,0,0,0,0-0.1c0,0,0,0,0-0.1v-0.1c0-0.2,0.1-0.5,0.2-0.8v0c0.9-4,4.2-18.1,6.7-28.4
		C836.6,464.3,836.7,464.3,836.7,464.3z"/>
	<path class="st0" d="M847.2,468.7v0.1c-1.3-0.1-2.6-0.3-3.8-0.5c-2.7-0.5-4.1-2-4.9-3.6c-0.1-0.1-0.1-0.3-0.2-0.4h0
		c0,0.1,0.1,0.2,0.1,0.3c0.7,1.6,2.2,3.1,4.9,3.6C844.6,468.4,845.9,468.6,847.2,468.7z"/>
	<path class="st0" d="M847.2,521.4L847.2,521.4l-6.6,0.4l-17,0.7c0,0,0,0,0-0.1h0.1l17-0.7L847.2,521.4z"/>
	<line class="st0" x1="926.4" y1="536" x2="926.4" y2="536"/>
	<line class="st0" x1="926.4" y1="644.8" x2="926.4" y2="571.3"/>
	<path class="st0" d="M310.9,604.3c-2,1.1-4.2,1.8-6.5,1.8c0.2-0.3,0.2-0.5,0.2-0.5S307.3,605.2,310.9,604.3z"/>
	<path class="st0" d="M324.7,621.8c-2.2,1.9-4.1,3.4-5.1,3.8c0,0-0.4-1-1.1-2.6c-2-4.2-6.7-12.5-15.1-16c0.6-0.3,0.9-0.7,1-1
		c2.3,0,4.5-0.7,6.5-1.8c4.5-1.2,10.4-3.4,13.8-7.3c0.3-0.4,0.6-0.8,0.9-1.2c3,2.6,6.4,5.6,8.9,7.7c1.5,1.3,2.7,2.3,3.2,2.6
		C339.3,607.1,330.8,616.4,324.7,621.8z"/>
	<path class="st0" d="M310.9,604.3c-2,1.1-4.2,1.8-6.5,1.8c0.2-0.3,0.2-0.5,0.2-0.5S307.3,605.2,310.9,604.3z"/>
	<path class="st0" d="M325.6,595.8c-0.3,0.4-0.6,0.8-0.9,1.2v-2C325,595.2,325.3,595.5,325.6,595.8z"/>
	<path class="st0" d="M325.6,595.8c-0.3,0.4-0.6,0.8-0.9,1.2v-2C325,595.2,325.3,595.5,325.6,595.8z"/>
	<path class="st0" d="M305.2,565.6l-3.6-0.1c0.3-0.5,0.6-1,0.8-1.4C303.3,564.6,304.2,565.1,305.2,565.6z"/>
	<path class="st0" d="M310.9,604.3c-2,1.1-4.2,1.8-6.5,1.8c0.2-0.3,0.2-0.5,0.2-0.5S307.3,605.2,310.9,604.3z"/>
	<polygon class="st0" points="862.2,611.6 840.3,612.6 840.2,612.6 832.4,612.9 828.5,613.1 803.9,614.1 802.8,614.1 791.5,614.6 
		791.4,614.6 791.3,614.6 790.1,614.7 790,614.7 788.2,603.8 788.3,603.8 790.1,614.6 791.4,614.5 802.9,614 804,614 828.6,613 
		832.5,612.8 840.2,612.5 840.3,612.5 840.3,612.4 862.2,611.5 	"/>
	<polygon class="st0" points="862.2,611.6 840.3,612.6 840.2,612.6 832.4,612.9 828.5,613.1 803.9,614.1 802.8,614.1 791.5,614.6 
		791.4,614.6 791.3,614.6 790.1,614.7 790,614.7 788.2,603.8 788.3,603.8 790.1,614.6 791.4,614.5 802.9,614 804,614 828.6,613 
		832.5,612.8 840.2,612.5 840.3,612.5 840.3,612.4 862.2,611.5 	"/>
	<path class="st0" d="M829.1,460.8c-1.9,0.9-4,1.9-6.3,3c0,0,0,0,0,0c-0.3,0.1-0.5,0.3-0.8,0.4c0.2-0.1,0.5-0.3,0.7-0.4
		c0.2-0.1,0.3-0.2,0.5-0.3c0,0,0.1,0,0.1-0.1c1-0.6,2.1-1.1,3.2-1.6c0.1,0,0.1-0.1,0.2-0.1c0,0,0.1,0,0.1-0.1
		C827.5,461.4,828.3,461.1,829.1,460.8z"/>
	<path class="st0" d="M857,579.6L857,579.6C857,579.7,857,579.6,857,579.6L857,579.6L857,579.6z"/>
	<path class="st0" d="M833.2,458.9c-0.1,0.2-0.3,0.4-0.4,0.6c-0.3,0.1-0.6,0.2-0.9,0.3c-0.2,0.1-0.5,0.1-0.7,0.2
		c-0.7,0.2-1.4,0.5-2.2,0.8c0.3-0.1,0.5-0.2,0.8-0.4c0,0,0,0,0,0C831.2,459.8,832.3,459.3,833.2,458.9z"/>
	<path class="st0" d="M838.4,457.4L838.4,457.4c0,0.1,0,0.2-0.1,0.2c0,0.1,0,0.2,0,0.3v-0.1c0,0,0-0.1,0-0.2c0,0,0,0,0,0
		C838.3,457.5,838.3,457.5,838.4,457.4z"/>
	<path class="st0" d="M838.8,454.9c0,0.5-0.1,1.1-0.3,2.1c0,0,0-0.1,0-0.1c0-0.1,0-0.1,0-0.2s0-0.1,0-0.2l0-0.2c0-0.1,0-0.2,0-0.3
		c0-0.1,0.1-0.3,0.1-0.4c0-0.1,0-0.1,0-0.2C838.7,455.3,838.8,455.1,838.8,454.9z"/>
	<path class="st0" d="M838.9,453.7c0,0.4,0,0.8-0.1,1.1c0-0.4,0-0.7,0.1-1C838.9,453.8,838.9,453.8,838.9,453.7z"/>
	<path class="st0" d="M864.6,442.6c0,0,0,0.1,0,0.1c-0.1,0.1-0.1,0.1-0.2,0.2c0,0-0.1,0.1-0.1,0.1v-0.1
		C864.4,442.8,864.5,442.7,864.6,442.6L864.6,442.6z"/>
	<path class="st0" d="M857,579.6L857,579.6C857,579.7,857,579.6,857,579.6L857,579.6L857,579.6z"/>
	<path class="st0" d="M857,579.6L857,579.6C857,579.7,857,579.6,857,579.6L857,579.6L857,579.6z"/>
	<path class="st0" d="M857,579.6L857,579.6C857,579.7,857,579.6,857,579.6L857,579.6L857,579.6z"/>
	<path class="st0" d="M838.4,457.4L838.4,457.4c0,0.1,0,0.2-0.1,0.2c0,0.1,0,0.2,0,0.3v-0.1c0,0,0-0.1,0-0.2c0,0,0,0,0,0
		C838.3,457.5,838.3,457.5,838.4,457.4z"/>
	<path class="st0" d="M838.8,454.9c0,0.5-0.1,1.1-0.3,2.1c0,0,0-0.1,0-0.1c0-0.1,0-0.1,0-0.2s0-0.1,0-0.2l0-0.2c0-0.1,0-0.2,0-0.3
		c0-0.1,0.1-0.3,0.1-0.4c0-0.1,0-0.1,0-0.2C838.7,455.3,838.8,455.1,838.8,454.9z"/>
	<path class="st0" d="M838.9,453.7c0,0.4,0,0.8-0.1,1.1c0-0.4,0-0.7,0.1-1C838.9,453.8,838.9,453.8,838.9,453.7z"/>
	<path class="st0" d="M589,470.7c-0.3,0.1-0.6,0.2-0.9,0.3c0-0.1,0.1-0.1,0.1-0.2C588.4,470.7,588.6,470.7,589,470.7z"/>
	<path class="st0" d="M603.5,481.3l-37.8,2.5C579.6,482.5,593.3,481.5,603.5,481.3z"/>
	<polygon class="st0" points="603.6,481.3 603.6,481.3 603.6,481.1 	"/>
	<polygon class="st0" points="603.6,481.3 603.6,481.3 603.6,481.1 	"/>
	<path class="st0" d="M603.6,481.3L603.6,481.3c-10.3,0.2-24,1.2-37.9,2.5h-0.2c0,0-0.5-0.1,6.9-6c3.3-2.6,9.7-5,15.8-6.8
		c0.3-0.1,0.6-0.2,0.9-0.3c0.1,0,0.3-0.1,0.4-0.1c0.4-0.1,0.8-0.2,1.2-0.3c3.4-1,6.6-1.8,8.8-2.3c0.1,0,0.1,0,0.2,0l0.7,2.4l0.5,1.6
		L603.6,481.3z"/>
	<path class="st0" d="M603.5,481.3l-37.8,2.5C579.6,482.5,593.3,481.5,603.5,481.3z"/>
	<path class="st1" d="M764.3,373.7v0.3c-0.2,26.9-21.7,60.4-22.6,60.6c-1.6,2.5-3.5,5-5.3,7.3c-0.2,0.5-0.3,1.1-0.4,1.7
		c-0.7,4.9-1.4,9.8-2.2,15.5c0,0.2,0,0.4,0,0.6c-0.3,4.9-0.3,15.8-0.2,30c0,4,0.1,8.3,0.1,12.8c0.1,7.1,0.2,14.8,0.3,22.8
		c0,1.5,0,3,0.1,4.5c-0.9,0.1-1.8,0.2-2.7,0.2h0c0-0.1,0-0.2,0-0.3c-5.6,0.5-11,0.9-16.3,1.2c0,0.1,0,0.1-0.1,0.2
		c-9.7,0.5-18.9,0.8-27.4,1.1c0,0-0.1,0-0.2,0h-10.3c-1.6-0.1-3.1-0.1-4.6-0.1h-2.7c-3-0.1-6-0.2-8.8-0.3h-1.2
		c-0.5-0.1-1-0.1-1.5-0.1c-0.7,0-1.3-0.1-1.9-0.1c-0.5,0-1-0.1-1.5-0.1h-0.2c0,0-0.1,0-0.1,0h-0.1c-0.8-0.1-1.7-0.1-2.5-0.1
		c-0.1,0-0.1,0-0.2,0c-0.2,0-0.5,0-0.7-0.1c-1-0.1-2-0.1-2.9-0.2c-0.5,0-1.1-0.1-1.6-0.1c0,0-0.1,0-0.2,0c-0.9-0.1-1.8-0.1-2.7-0.2
		v0c-0.1,0-0.1,0-0.2,0c-0.2,0-0.5,0-0.7-0.1c0.2-1.8,0.4-3.6,0.5-5.4c1-9.5,1.9-18.9,2.8-27.8c0-0.5,0.1-1,0.1-1.5
		c1-9.7,2-18.7,2.8-26.8l0.1,0l7.5-2.4l9.4-3c4.3-1.4,7.8-4.5,9.8-8.6c0.3-0.6,0.5-1.1,0.7-1.7l20.5-59.7
		c4.3-11.6,7.7-23.7,7.2-32.4c-0.6-8.3-6.9-14.6-13.9-16.6c0,0-0.1,0-0.1,0c5.2-0.9,12.5-0.8,19.6-0.4c6.6,0.3,13.3,0.9,18.3,1.5
		c5,0.5,8.3,0.9,8.3,0.9s11.8,1.9,17,6.8l0.7,0.7C760.3,359.2,764.3,366.8,764.3,373.7z"/>
	<path class="st2" d="M643.8,530.8c0.9,0.1,1.8,0.1,2.7,0.2c-0.1,0-0.2,0-0.2,0C645.5,530.9,644.6,530.9,643.8,530.8L643.8,530.8z"
		/>
	<path class="st2" d="M651.2,531.3c0.2,0,0.5,0,0.7,0.1c-0.3,0-0.6,0-0.9-0.1c-1-0.1-1.9-0.1-2.9-0.2c-0.5,0-1.1-0.1-1.6-0.1
		c0.1,0,0.2,0,0.2,0c0.5,0,1.1,0.1,1.6,0.1C649.2,531.2,650.2,531.2,651.2,531.3z"/>
	<path class="st2" d="M658.4,531.7c0.5,0,1,0,1.5,0.1h-0.2c-0.5,0-1-0.1-1.5-0.1c-0.6,0-1.3-0.1-1.9-0.1c-0.5,0-1,0-1.5-0.1h0.2
		c0.5,0,1,0.1,1.5,0.1C657.1,531.6,657.7,531.7,658.4,531.7z"/>
	<path class="st2" d="M661.1,531.8c2.8,0.1,5.8,0.2,8.8,0.3h-0.2c-3.1-0.1-6-0.2-8.8-0.3H661.1z"/>
	<path class="st2" d="M697.1,393.8l-20.5,59.7c-0.2,0.6-0.4,1.2-0.7,1.7c-2,4.1-5.5,7.2-9.8,8.6l-9.4,3l-7.5,2.4l-0.1,0v0l7.5-2.4
		l9.4-3c4.3-1.4,7.8-4.5,9.8-8.6c0.3-0.6,0.5-1.1,0.7-1.7L697.1,393.8c4.2-11.6,7.5-23.7,7-32.4c-0.5-8.3-6.8-14.6-13.9-16.6
		c0,0,0.1,0,0.1,0c0,0,0,0,0.1,0c7,2,13.3,8.3,13.9,16.6C704.8,370.1,701.4,382.2,697.1,393.8z"/>
	<path class="st2" d="M672.6,532.1c1.5,0,3,0,4.6,0.1H677c-1.6,0-3.1,0-4.6-0.1H672.6z"/>
	<path class="st2" d="M731.4,529.7c0,0.1,0,0.2,0,0.3c-5.6,0.5-11.1,0.9-16.3,1.2h0c0,0,0,0-0.1,0c-9.7,0.6-18.9,0.9-27.3,1
		c8.4-0.3,17.7-0.6,27.4-1.1c0-0.1,0-0.1,0.1-0.2C720.4,530.6,725.8,530.2,731.4,529.7z"/>
	<path class="st0" d="M664.3,772.1c-3.1-0.7-8.4,3.6-12.5,3.1c-4.3-0.6-12.6-2.9-12.6-2.9c-0.3,0.1-0.7,0.2-1,0.3
		c0.1-0.1,0.3-0.2,0.5-0.2c0.7-0.3,4.5-2.6,4.7-5.1c0.2-2.4,0.6-6.3,1-9l19.2,0.5C663.8,763.3,664.3,770.5,664.3,772.1z"/>
	<path class="st0" d="M668,786.6c0,0-44.7,3.7-57.3-0.1c-4.9-1.5,10.9-8.5,27.6-13.8c0.3-0.1,0.7-0.2,1-0.3c0,0,8.3,2.3,12.6,2.9
		c4.1,0.5,9.4-3.8,12.5-3.1c0.1,0,0.3,0.1,0.4,0.1C668.1,773.7,668,786.6,668,786.6z"/>
	<path class="st0" d="M722.5,755.3v0.4l-5,0.1h-0.1c0-0.3,0-0.4,0-0.4L722.5,755.3z"/>
	<path class="st0" d="M736.1,755.4L736.1,755.4l-5,0.1v-0.3l4.9-0.1c0,0,0,0.1,0,0.1C736,755.3,736,755.3,736.1,755.4z"/>
	<path class="st0" d="M722.5,755.7v32.2c-14,0.8-32.3,1.2-39.7-1.4c-11.9-4.1,2.9-6.2,27.1-13.7c0.5-0.1,1-0.3,1.5-0.5
		c0.5-0.3,1.9-1.4,3.1-2.7c1.3-1.3,2.5-2.8,2.5-4c0.2-1.7,0.2-3.8,0.2-5.7v-4.1h0.2L722.5,755.7z"/>
	<path class="st0" d="M740.4,786.6c0,0-3.7,0.4-9.3,0.8v-31.8l4.9-0.1c0.1,1.9,0.9,15,1,16.8c1.5,0.7,2.3,3.6,2.8,6.6
		C740.4,782.7,740.4,786.6,740.4,786.6z"/>
	<path class="st0" d="M718.1,319.9L718.1,319.9C718.1,320,718.1,320,718.1,319.9C718.1,320,718.1,319.9,718.1,319.9z"/>
	<path class="st0" d="M712.8,330.5c-0.1,1.2-0.3,2.3-0.4,3.5l0,0C712.6,332.8,712.8,331.6,712.8,330.5L712.8,330.5z"/>
	<path class="st0" d="M736.8,346.8c0,0-13.3-1.7-26.6-2.4l0,0l0.1-0.3V344c0.4-1.5,1.5-5.6,2.2-10c0.2-1.1,0.3-2.3,0.4-3.5l0,0
		c-3.1-0.1-5.8-0.8-7.7-2.4c3.3,0.1,7-3.5,7.6-4.1l0,0v-0.1l0,0l0,0l0,0l1.3-2.8l0,0l5-10.5c-0.6,3.4-1.1,6.8-1,9.5c0,0,0,0-0.1,0
		c0,0,0,0,0.1,0c0.1,2.1,0.4,3.8,1.3,4.8c1,1.2,2.8,2.3,4.7,3.4c1.1,0.6,2.3,1.2,3.5,1.8c3.6,1.7,6.8,2.8,6.8,2.8L736.8,346.8z"/>
	<path class="st0" d="M721.3,298.4c-0.3,3-1.2,7-1.9,10.9l-0.4-0.4l-6.4,13.6c-1-4.8-2.5-19.4-2.5-19.4l-8.4-1.6
		c1.2-7.4,3.8-14.5,8-18.8h0.1c2.2,0,4.7,0.9,6.9,2C716.6,284.6,722.1,290.4,721.3,298.4z"/>
	<path class="st0" d="M718.1,319.9L718.1,319.9C718.1,320,718.1,320,718.1,319.9C718.1,320,718.1,319.9,718.1,319.9z"/>
	<path class="st0" d="M712.8,323.8C712.8,323.8,712.8,323.9,712.8,323.8L712.8,323.8L712.8,323.8L712.8,323.8z"/>
	<path class="st0" d="M731.4,530c-0.5,4.5-0.9,11.2-1.2,18.9c0,0.7-0.1,1.4-0.1,2.1c0,1.3-0.1,2.7-0.1,4c0,1.4-0.1,2.9-0.2,4.4
		c-0.4,12.5-0.6,26.5-0.8,38.6c0,2,0,3.9-0.1,5.8h-4.8c-3,0-5.5,2.5-5.5,5.5v35.5h-0.1v-35.5c0-3,2.5-5.5,5.5-5.5h-10.3
		c-3,0-5.5,2.5-5.5,5.5v16.3c0,0-7.2-0.2-18.8-0.6c-0.3-3.1-0.7-6.8-1.1-10.9v0c0.1-0.2,0.1-0.3,0.2-0.4c0.2-0.7,0.5-1.5,0.7-2.3
		c0.2-0.5,0.4-1,0.5-1.5c0.1-0.4,0.3-0.9,0.4-1.3c0.5-1.5,0.9-2.9,1.4-4.4c0-0.1,0.1-0.2,0.1-0.3c0.2-0.7,0.4-1.3,0.6-1.9
		c0-0.2,0.1-0.3,0.1-0.4c0.2-0.7,0.4-1.5,0.7-2.3c0-0.1,0.1-0.3,0.1-0.4c0.2-0.8,0.5-1.5,0.7-2.3v-0.1c0-0.2,0.1-0.3,0.1-0.5
		c0.3-1.1,0.7-2.3,1.1-3.5c0.4-1.3,0.9-2.7,1.3-4c1.5-4.7,3.1-9.5,4.6-14.2c0.3-0.9,0.5-1.7,0.8-2.5c0.1-0.1,0.1-0.1,0.1-0.2
		c0.2-0.7,0.5-1.5,0.7-2.2c0.1-0.2,0.2-0.3,0.2-0.5c0.2-0.6,0.4-1.3,0.6-1.9c0.4-1.3,0.8-2.5,1.2-3.8c0.3-0.8,0.5-1.6,0.8-2.4
		c0.1-0.3,0.2-0.7,0.3-1c0.3-1,0.7-2,1-3c0.1-0.4,0.2-0.9,0.4-1.3c0.1-0.4,0.3-0.9,0.4-1.3c0,0,0,0,0,0c0.3-0.8,0.6-1.7,0.9-2.5
		c0-0.1,0.1-0.2,0.1-0.3c0.2-0.7,0.5-1.4,0.7-2.1c0.3-0.9,0.6-1.7,0.9-2.6c0.3-0.8,0.5-1.5,0.8-2.3c0-0.2,0.1-0.4,0.2-0.7
		c0,0,0,0,0,0c0,0,0-0.1,0-0.1c0.1-0.4,0.3-0.8,0.4-1.2c0,0,0,0,0,0c0-0.2,0.1-0.3,0.2-0.5c0.2-0.7,0.5-1.5,0.7-2.2
		c0.1-0.3,0.1-0.5,0.2-0.8c0,0,0,0,0,0c0,0,0,0,0,0c0,0,0,0,0,0c0.2-0.6,0.4-1.1,0.6-1.7c0,0,0,0,0,0c0-0.1,0-0.1,0.1-0.2
		c0.1-0.2,0.2-0.4,0.2-0.6c0.2-0.7,0.5-1.4,0.7-2.1c0.2-0.7,0.5-1.3,0.7-2c0.1-0.3,0.2-0.6,0.3-0.9h0
		C720.3,530.9,725.8,530.5,731.4,530z"/>
	<path class="st0" d="M707.4,554.1c-0.1,0.4-0.3,0.9-0.4,1.3c-0.2,0.4-0.3,0.9-0.4,1.3c-0.3,1-0.7,2-1,3c-0.1,0.3-0.2,0.7-0.3,1
		c-0.3,0.8-0.5,1.6-0.8,2.4c-0.4,1.3-0.8,2.5-1.2,3.8c-0.2,0.6-0.4,1.3-0.6,1.9c0,0.2-0.1,0.3-0.2,0.5c-0.2,0.7-0.5,1.5-0.7,2.2
		c0,0.1,0,0.1-0.1,0.2c-0.3,0.8-0.5,1.6-0.8,2.5c-1.5,4.7-3.1,9.5-4.6,14.2c-0.4,1.3-0.9,2.7-1.3,4c-0.4,1.2-0.8,2.4-1.1,3.5
		c0,0.2-0.1,0.3-0.1,0.5v0.1c-0.2,0.8-0.5,1.5-0.7,2.3c0,0.1-0.1,0.3-0.1,0.4c-0.3,0.8-0.5,1.6-0.7,2.3c0,0.1-0.1,0.2-0.1,0.4
		c-0.2,0.6-0.4,1.2-0.6,1.9c0,0.1-0.1,0.2-0.1,0.3c-0.5,1.5-0.9,2.9-1.4,4.4c-0.1,0.4-0.3,0.9-0.4,1.3c-0.1,0.5-0.3,1-0.5,1.5
		c-0.2,0.8-0.5,1.6-0.7,2.3c0,0.2-0.1,0.3-0.2,0.4c0-0.2,0-0.4,0-0.5c0.2-0.8,0.5-1.5,0.7-2.3c0.2-0.5,0.3-1,0.5-1.5
		c0.1-0.4,0.3-0.8,0.4-1.3c0.4-1.4,0.9-2.9,1.4-4.4c0-0.1,0.1-0.2,0.1-0.4c0.2-0.6,0.4-1.2,0.6-1.9c0-0.1,0.1-0.2,0.1-0.4
		c0.2-0.8,0.5-1.5,0.7-2.3c0-0.1,0.1-0.3,0.1-0.4c0.2-0.8,0.5-1.5,0.7-2.3v-0.1c0.4-1.3,0.8-2.7,1.3-4c0.4-1.3,0.8-2.6,1.3-4
		c1.5-4.7,3.1-9.5,4.6-14.2c0.3-0.8,0.5-1.7,0.8-2.5c0-0.1,0-0.1,0.1-0.2c0.2-0.7,0.5-1.5,0.7-2.2c0.1-0.2,0.1-0.3,0.2-0.5
		c0.2-0.6,0.4-1.3,0.6-1.9c0.4-1.3,0.8-2.5,1.3-3.8c0.3-0.8,0.5-1.6,0.8-2.4c0.1-0.3,0.2-0.7,0.3-1c0.3-1,0.7-2,1-3
		c0.1-0.4,0.3-0.9,0.4-1.3C707.1,554.9,707.2,554.5,707.4,554.1c0-0.1,0-0.2,0-0.2c0.3-0.8,0.6-1.7,0.9-2.5c0-0.1,0.1-0.2,0.1-0.3
		c0.2-0.7,0.5-1.4,0.7-2.1c0.3-0.9,0.6-1.7,0.9-2.6c0.3-0.8,0.5-1.5,0.8-2.3c0.1-0.1,0.1-0.3,0.2-0.5c-0.1,0.2-0.1,0.4-0.2,0.7
		c-0.3,0.8-0.5,1.5-0.8,2.3c-0.3,0.9-0.6,1.7-0.9,2.6c-0.2,0.7-0.5,1.4-0.7,2.1c0,0.1-0.1,0.2-0.1,0.3
		C708,552.4,707.7,553.3,707.4,554.1C707.4,554.1,707.4,554.1,707.4,554.1z"/>
	<path class="st0" d="M711.6,541.8c-0.1,0.2-0.1,0.3-0.2,0.5c0.1-0.2,0.1-0.4,0.2-0.7c0.2-0.7,0.5-1.5,0.7-2.2
		c0.1-0.2,0.1-0.4,0.2-0.6c-0.1,0.2-0.1,0.5-0.2,0.8C712.1,540.3,711.8,541.1,711.6,541.8z"/>
	<path class="st0" d="M731.4,529.7c0,0.1,0,0.2,0,0.3c-5.6,0.5-11.1,0.9-16.3,1.2h0c-0.1,0.3-0.2,0.6-0.3,0.9
		c-0.2,0.7-0.5,1.3-0.7,2c-0.2,0.7-0.5,1.4-0.7,2.1c-0.1,0.2-0.2,0.4-0.2,0.6c0.1-0.3,0.2-0.6,0.2-0.8c0.2-0.7,0.5-1.4,0.7-2.1
		c0.2-0.7,0.5-1.4,0.7-2c0.1-0.2,0.1-0.5,0.2-0.7c0,0,0-0.1,0-0.1c0-0.1,0-0.1,0.1-0.2C720.4,530.6,725.8,530.2,731.4,529.7z"/>
	<path class="st0" d="M722.5,699.2v56.2l-5,0.1c0,0,0,0.1,0,0.3v0.1h-1.4c0,0-0.1-0.5-0.3-1.4c-0.3-1.6-0.9-4.4-1.7-8.2
		c-1.6-7.8-4.1-19.3-6.8-32.2c0.6-0.2,0.9-0.3,0.9-0.3v-20.1c0,3,2.5,5.5,5.5,5.5H722.5z"/>
	<path class="st0" d="M722.5,699.2V699c-2.3-0.7-4-2.8-4-5.3v-48.9h0.1v48.9c0,2.5,1.7,4.7,4,5.3c0.3,0.1,0.7,0.1,1,0.2
		c0.1,0,0.2,0,0.4,0H722.5z"/>
	<path class="st0" d="M736.1,755.4c0-0.2,0-0.2,0-0.2H736l-4.9,0.1v-56.1h2.8l0.6,7.7l3.6,48.1l0.2,0.4H736.1z"/>
	<path class="st0" d="M722.5,755.3v0.4l-5,0.1h-0.1c0-0.3,0-0.4,0-0.4L722.5,755.3z"/>
	<path class="st0" d="M736.1,755.4L736.1,755.4l-5,0.1v-0.3l4.9-0.1c0,0,0,0.1,0,0.1C736,755.3,736,755.3,736.1,755.4z"/>
	<path class="st0" d="M670.8,718.3c-0.9,7.4-1.7,14.3-2.4,20.4c-0.3,2.7-0.6,5.3-0.9,7.6c-0.9,7.8-1.6,12.8-1.6,12.8l-2.1-0.1h-0.2
		l-19-0.5h-0.2l-4.4-0.1l-0.6-12.1l-0.4-7.6l-1.1-21c7,0.2,13.3,0.4,18.8,0.5C662.3,718.3,667.1,718.4,670.8,718.3z"/>
	<path class="st0" d="M715,531.2c-0.1,0.2-0.1,0.5-0.2,0.7c-0.2,0.6-0.5,1.3-0.7,2c-0.2,0.7-0.5,1.4-0.7,2.1
		c-0.1,0.3-0.2,0.6-0.2,0.8c0,0.1,0,0.1-0.1,0.2c0,0,0,0,0,0c-0.2,0.5-0.4,1.1-0.6,1.7c0,0,0,0,0,0c0,0,0,0,0,0c0,0,0,0,0,0
		c-0.1,0.2-0.1,0.4-0.2,0.6c-0.2,0.7-0.5,1.5-0.7,2.2c0,0.2-0.1,0.4-0.2,0.7c0,0,0,0,0,0c-0.1,0.4-0.3,0.8-0.4,1.2c0,0,0,0.1,0,0.1
		c0,0,0,0,0,0c0,0.1-0.1,0.3-0.2,0.5c-0.3,0.8-0.5,1.5-0.8,2.3c-0.3,0.9-0.6,1.7-0.9,2.6c-0.2,0.7-0.5,1.4-0.7,2.1
		c0,0.1-0.1,0.2-0.1,0.3c-0.3,0.8-0.6,1.7-0.9,2.5c0,0.1,0,0.2-0.1,0.2c-0.1,0.3-0.2,0.7-0.3,1.1c-0.1,0.4-0.3,0.9-0.4,1.3
		c-0.3,1-0.7,2-1,3c-0.1,0.3-0.2,0.7-0.3,1c-0.3,0.8-0.5,1.6-0.8,2.4c-0.5,1.3-0.9,2.5-1.3,3.8c-0.2,0.6-0.4,1.3-0.6,1.9
		c-0.1,0.2-0.1,0.3-0.2,0.5c-0.2,0.7-0.5,1.5-0.7,2.2c-0.1,0.1-0.1,0.1-0.1,0.2c-0.3,0.8-0.5,1.7-0.8,2.5c-1.5,4.7-3.1,9.5-4.6,14.2
		c-0.5,1.4-0.9,2.7-1.3,4c-0.5,1.3-0.9,2.7-1.3,4v0.1c-0.2,0.8-0.5,1.5-0.7,2.3c0,0.1-0.1,0.3-0.1,0.4c-0.2,0.8-0.5,1.5-0.7,2.3
		c0,0.2-0.1,0.3-0.1,0.4c-0.2,0.7-0.4,1.3-0.6,1.9c0,0.2-0.1,0.3-0.1,0.4c-0.5,1.5-1,3-1.4,4.4c-0.1,0.5-0.3,0.9-0.4,1.3
		c-0.2,0.5-0.3,1-0.5,1.5c-0.2,0.8-0.5,1.5-0.7,2.3c0,0.2,0,0.4,0,0.5v0c-1.2,3.8-2.3,7.4-3.3,10.7c-1.9-0.1-4-0.1-6.1-0.2
		c-3.2-0.1-6.5-0.3-10.1-0.4c-9.9-0.4-21-0.9-32.7-1.4l1.8-22.6l0.5-6.1l0.7-8.4l2.1-25.9l0.6-7.8l0-0.6l0.2-2.1l1.5-18.5
		c0.8,0.1,1.7,0.1,2.5,0.2c0,0,0.1,0,0.2,0c0.5,0,1.1,0.1,1.6,0.1c1,0.1,1.9,0.1,2.9,0.2c0.3,0,0.6,0,0.9,0.1c0.1,0,0.1,0,0.2,0
		c0.8,0.1,1.6,0.1,2.5,0.1h0.1c0,0,0.1,0,0.1,0c0.5,0.1,1,0.1,1.5,0.1c0.6,0,1.3,0.1,1.9,0.1c0.5,0,1,0.1,1.5,0.1h1.2
		c2.8,0.1,5.7,0.2,8.8,0.3h2.7c1.5,0.1,3,0.1,4.6,0.1h10.5c0,0,0.1,0,0.2,0C696.1,532.1,705.3,531.8,715,531.2z"/>
	<path class="st0" d="M646.5,531c-0.1,0-0.2,0-0.2,0c-0.8-0.1-1.7-0.1-2.5-0.2v0C644.7,530.9,645.6,530.9,646.5,531z"/>
	<path class="st0" d="M651.9,531.4c-0.3,0-0.6,0-0.9-0.1c-1-0.1-1.9-0.1-2.9-0.2c-0.5,0-1.1-0.1-1.6-0.1c0.1,0,0.2,0,0.2,0
		c0.5,0,1.1,0.1,1.6,0.1c0.9,0.1,1.9,0.1,2.9,0.2C651.4,531.3,651.7,531.3,651.9,531.4z"/>
	<path class="st0" d="M659.9,531.8h-0.2c-0.5,0-1-0.1-1.5-0.1c-0.6,0-1.3-0.1-1.9-0.1c-0.5,0-1,0-1.5-0.1h0.2c0.5,0,1,0.1,1.5,0.1
		c0.6,0,1.2,0.1,1.9,0.1C658.9,531.7,659.4,531.7,659.9,531.8z"/>
	<path class="st0" d="M669.9,532.1h-0.2c-3.1-0.1-6-0.2-8.8-0.3h0.2C663.9,531.9,666.9,532,669.9,532.1z"/>
	<path class="st0" d="M677.2,532.2H677c-1.6,0-3.1,0-4.6-0.1h0.2C674.1,532.1,675.6,532.1,677.2,532.2z"/>
	<path class="st0" d="M711,543.6c-0.1,0.2-0.1,0.4-0.2,0.7c-0.3,0.8-0.5,1.5-0.8,2.3c-0.3,0.9-0.6,1.7-0.9,2.6
		c-0.2,0.7-0.5,1.4-0.7,2.1c0,0.1-0.1,0.2-0.1,0.3c-0.3,0.8-0.6,1.7-0.9,2.5c0,0,0,0,0,0c-0.1,0.4-0.3,0.9-0.4,1.3
		c-0.2,0.4-0.3,0.9-0.4,1.3c-0.3,1-0.7,2-1,3c-0.1,0.3-0.2,0.7-0.3,1c-0.3,0.8-0.5,1.6-0.8,2.4c-0.4,1.3-0.8,2.5-1.2,3.8
		c-0.2,0.6-0.4,1.3-0.6,1.9c0,0.2-0.1,0.3-0.2,0.5c-0.2,0.7-0.5,1.5-0.7,2.2c0,0.1,0,0.1-0.1,0.2c-0.3,0.8-0.5,1.6-0.8,2.5
		c-1.5,4.7-3.1,9.5-4.6,14.2c-0.4,1.3-0.9,2.7-1.3,4c-0.4,1.2-0.8,2.4-1.1,3.5c0,0.2-0.1,0.3-0.1,0.5v0.1c-0.2,0.8-0.5,1.5-0.7,2.3
		c0,0.1-0.1,0.3-0.1,0.4c-0.3,0.8-0.5,1.6-0.7,2.3c0,0.1-0.1,0.2-0.1,0.4c-0.2,0.6-0.4,1.2-0.6,1.9c0,0.1-0.1,0.2-0.1,0.3
		c-0.5,1.5-0.9,2.9-1.4,4.4c-0.1,0.4-0.3,0.9-0.4,1.3c-0.1,0.5-0.3,1-0.5,1.5c-0.2,0.8-0.5,1.6-0.7,2.3c0,0.2-0.1,0.3-0.2,0.4
		c0-0.2,0-0.4,0-0.5c0.2-0.8,0.5-1.5,0.7-2.3c0.2-0.5,0.3-1,0.5-1.5c0.1-0.4,0.3-0.8,0.4-1.3c0.4-1.4,0.9-2.9,1.4-4.4
		c0-0.1,0.1-0.2,0.1-0.4c0.2-0.6,0.4-1.2,0.6-1.9c0-0.1,0.1-0.2,0.1-0.4c0.2-0.8,0.5-1.5,0.7-2.3c0-0.1,0.1-0.3,0.1-0.4
		c0.2-0.8,0.5-1.5,0.7-2.3v-0.1c0.4-1.3,0.8-2.7,1.3-4c0.4-1.3,0.8-2.6,1.3-4c1.5-4.7,3.1-9.5,4.6-14.2c0.3-0.8,0.5-1.7,0.8-2.5
		c0-0.1,0-0.1,0.1-0.2c0.2-0.7,0.5-1.5,0.7-2.2c0.1-0.2,0.1-0.3,0.2-0.5c0.2-0.6,0.4-1.3,0.6-1.9c0.4-1.3,0.8-2.5,1.3-3.8
		c0.3-0.8,0.5-1.6,0.8-2.4c0.1-0.3,0.2-0.7,0.3-1c0.3-1,0.7-2,1-3c0.1-0.4,0.3-0.9,0.4-1.3c0.1-0.3,0.2-0.7,0.3-1.1
		c0-0.1,0-0.2,0.1-0.2c0.3-0.8,0.6-1.7,0.9-2.5c0-0.1,0.1-0.2,0.1-0.3c0.2-0.7,0.5-1.4,0.7-2.1c0.3-0.9,0.6-1.7,0.9-2.6
		c0.3-0.8,0.5-1.5,0.8-2.3C710.9,544,710.9,543.8,711,543.6z"/>
	<path class="st0" d="M712.5,538.8c-0.1,0.2-0.1,0.5-0.2,0.8c-0.2,0.7-0.5,1.5-0.7,2.2c-0.1,0.2-0.1,0.3-0.2,0.5
		c0.1-0.2,0.1-0.4,0.2-0.7c0.2-0.7,0.5-1.5,0.7-2.2C712.4,539.2,712.4,539,712.5,538.8z"/>
	<path class="st0" d="M715.1,531.1c0,0,0,0.1,0,0.1c-0.1,0.3-0.2,0.6-0.3,0.9c-0.2,0.7-0.5,1.3-0.7,2c-0.2,0.7-0.5,1.4-0.7,2.1
		c-0.1,0.2-0.2,0.4-0.2,0.6c0.1-0.3,0.2-0.6,0.2-0.8c0.2-0.7,0.5-1.4,0.7-2.1c0.2-0.7,0.5-1.4,0.7-2c0.1-0.2,0.1-0.5,0.2-0.7
		c-9.7,0.6-18.9,0.9-27.3,1C696.1,531.9,705.3,531.6,715.1,531.1L715.1,531.1z"/>
	<path class="st1" d="M697,393.8l-20.5,59.7c-0.2,0.6-0.5,1.2-0.7,1.7c-1.9,4.1-5.5,7.2-9.8,8.6l-9.4,3l-7.5,2.4v0l-2.9,0.9
		l-7.2,2.3l-34.8,11.1l-0.6-2.1l0-0.1h0l-2.7-9.3l-0.5-1.6l-0.7-2.4c-0.1,0-0.1,0-0.2,0l0,0l-0.8-2.7l30.1-16.6l10.3-5.7l7.2-4
		l2.8-1.5l0.8-6.9l1.2-10.5v-0.2c1.9-14.2,5.8-38.8,11.5-50.8c8.2-17.4,10.4-20.6,17.1-23.7c3.3-1.5,7-1.6,10.6-0.6c0,0-0.1,0-0.1,0
		c7.1,2,13.4,8.3,13.9,16.6C704.6,370.1,701.3,382.2,697,393.8z"/>
	<path class="st2" d="M600.9,472l2.7,9.3h0l0-0.1l-2.8-9.2l-0.5-1.6l-0.7-2.4c0.1,0,0.1,0,0.2,0l0.7,2.4L600.9,472z"/>
	<path class="st2" d="M697.1,393.8l-20.5,59.7c-0.2,0.6-0.4,1.2-0.7,1.7c-2,4.1-5.5,7.2-9.8,8.6l-9.4,3l-7.5,2.4l-0.1,0v0l7.5-2.4
		l9.4-3c4.3-1.4,7.8-4.5,9.8-8.6c0.3-0.6,0.5-1.1,0.7-1.7L697.1,393.8c4.2-11.6,7.5-23.7,7-32.4c-0.5-8.3-6.8-14.6-13.9-16.6
		c0,0,0.1,0,0.1,0c0,0,0,0,0.1,0c7,2,13.3,8.3,13.9,16.6C704.8,370.1,701.4,382.2,697.1,393.8z"/>
	<path class="st3" d="M651.1,420l-1.2,10.5c-0.1,0-0.1,0-0.1,0S650.1,426.4,651.1,420z"/>
	<path class="st1" d="M719.3,309.3c-0.1,0.4-0.1,0.8-0.2,1.2l-5,10.5l0,0l-1.3,2.8l0,0v0.1l0,0l0,0c-0.6,0.6-4.3,4.2-7.6,4.1l0,0
		c0,0-7.3-4.1-4.3-26.8l0.8,0.2l8.4,1.6c0,0,1.5,14.6,2.5,19.4l6.4-13.6L719.3,309.3z"/>
	<path class="st0" d="M712.8,323.8C712.8,323.8,712.8,323.9,712.8,323.8L712.8,323.8L712.8,323.8z"/>
	<g>
		<g>
			<g>
				<g>
					<path class="st4" d="M724,288c-0.1,0-1.4-3.1-4.4-5.7s-6.4-3.3-6.3-3.5c0,0,0.8,0,2.1,0.5c1.3,0.4,3,1.2,4.5,2.6
						s2.7,2.9,3.4,4.1C723.8,287.2,724,288,724,288z"/>
				</g>
			</g>
		</g>
		<g>
			<g>
				<g>
					<path class="st4" d="M723.4,278.7c-0.1,0.2-2.4-1.8-5.9-2.6c-3.5-1-6.5-0.3-6.5-0.6c0-0.1,3-1,6.7,0
						C721.1,276.4,723.4,278.6,723.4,278.7z"/>
				</g>
			</g>
		</g>
		<g>
			<g>
				<g>
					<path class="st4" d="M700.7,273.1c0.1,0,0,0.5,0,1.2c0,0.8,0.4,1.8,1.2,2.7c0.7,0.9,1.7,1.4,2.4,1.6s1.3,0.1,1.3,0.3
						c0,0-0.5,0.2-1.3,0.2s-2-0.6-2.8-1.7c-0.8-1-1.2-2.2-1.1-3C700.1,273.5,700.4,273,700.7,273.1z"/>
				</g>
			</g>
		</g>
		<g>
			<g>
				<g>
					<path class="st4" d="M703.9,272c0,0.1-0.2,0.4-0.2,1c-0.1,0.6-0.1,1.4,0.5,2.1s1.3,1.1,1.9,1.1c0.6,0.1,1,0.1,1,0.1
						c0,0.1-0.3,0.3-1,0.4c-0.7,0-1.7-0.3-2.3-1.2s-0.6-1.9-0.3-2.6C703.6,272.2,703.8,271.9,703.9,272z"/>
				</g>
			</g>
		</g>
		<g>
			<g>
				<g>
					<path class="st4" d="M712.6,266.8c-0.1,0.2-1.7-0.8-3.8-1.2c-2.2-0.3-4,0.2-4.1,0.1c0-0.1,1.7-0.9,4.1-0.6
						C711.2,265.3,712.6,266.6,712.6,266.8z"/>
				</g>
			</g>
		</g>
		<g>
			<g>
				<g>
					<path class="st4" d="M718.1,271.6c-0.1,0.2-1.7-0.8-3.8-1.2c-2.2-0.3-4,0.2-4.1,0.1c0-0.1,1.7-0.9,4.1-0.6
						C716.7,270.1,718,271.5,718.1,271.6z"/>
				</g>
			</g>
		</g>
		<g>
			<g>
				<g>
					<path class="st4" d="M723.2,274.5c-0.2-0.1,0.5-0.8,0.7-2.2c0.4-1.4,0.3-3.5-0.8-5.4c-1.1-1.8-3-2.9-4.3-3.3s-2.2-0.3-2.3-0.4
						c0,0,0.9-0.3,2.4,0c1.4,0.4,3.4,1.4,4.7,3.4c1.1,2.1,1.1,4.4,0.7,5.7C723.7,273.8,723.2,274.5,723.2,274.5z"/>
				</g>
			</g>
		</g>
		<g>
			<g>
				<g>
					<path class="st4" d="M739.6,331.6c0,0-0.5,0.4-1.4,0.3c-1-0.1-2.3-0.4-3.3-1.6c-0.9-1.1-1.1-2.6-1.1-3.6c0.2-1,0.5-1.5,0.6-1.4
						c0.1,0-0.1,0.6-0.1,1.4c-0.1,0.8,0.2,2.1,1.1,3.1c0.9,1,2.1,1.4,2.9,1.5C739.2,331.7,739.6,331.6,739.6,331.6z"/>
				</g>
			</g>
		</g>
		<g>
			<g>
				<g>
					<path class="st4" d="M763.1,299c-0.1,0,0.2-1.1,0.3-2.9s0-4.2-0.7-6.9c-0.7-2.6-1.9-4.7-2.9-6.3c-1-1.4-1.7-2.3-1.7-2.3
						s0.9,0.6,2.1,2.1c1.1,1.4,2.5,3.7,3.2,6.3c0.7,2.7,0.8,5.3,0.5,7.1C763.7,298,763.1,299,763.1,299z"/>
				</g>
			</g>
		</g>
		<g>
			<g>
				<g>
					<path class="st4" d="M753.3,280.5c-0.1,0-0.1-0.6-0.4-1.4c-0.3-0.9-1.1-1.9-2.1-2.8c-1.1-0.8-2.3-1.2-3.3-1.3
						c-1-0.1-1.5,0.1-1.5-0.1c0,0,0.6-0.4,1.6-0.3c0.9-0.1,2.4,0.3,3.7,1.2c1.2,1,2,2.1,2.2,3.2
						C753.6,279.9,753.6,280.5,753.3,280.5z"/>
				</g>
			</g>
		</g>
		<g>
			<g>
				<g>
					<path class="st4" d="M763.3,280.4c-0.1,0.2-1.7-2.9-5.1-5c-3.4-2.2-6.7-2.4-6.6-2.7c0,0,0.8,0,2.2,0.2c1.3,0.3,3.1,0.9,4.8,2
						s3,2.5,3.8,3.6C763,279.7,763.3,280.4,763.3,280.4z"/>
				</g>
			</g>
		</g>
		<g>
			<g>
				<g>
					<path class="st4" d="M747.6,270.5c0,0.1-2.4,0.1-4.8,1.7c-2.4,1.5-3.3,3.9-3.5,3.8c0,0,0-0.5,0.5-1.5c0.5-0.8,1.3-1.9,2.6-2.8
						c1.3-0.8,2.6-1.3,3.5-1.3C747.1,270.3,747.6,270.5,747.6,270.5z"/>
				</g>
			</g>
		</g>
		<g>
			<g>
				<g>
					<path class="st4" d="M742,268.4c0,0.1-2.4,0.1-4.8,1.7c-2.4,1.5-3.3,3.9-3.5,3.8c0,0,0-0.5,0.5-1.5c0.5-0.8,1.3-1.9,2.6-2.8
						c1.3-0.8,2.6-1.3,3.5-1.3C741.6,268.2,742,268.4,742,268.4z"/>
				</g>
			</g>
		</g>
		<g>
			<g>
				<g>
					<path class="st4" d="M751.9,311.9c0-0.1,0.6-0.3,1.4-0.9c0.8-0.5,2-1.4,2.9-2.7c0.9-1.3,1.3-2.6,1.5-3.7c0.2-1,0.2-1.7,0.3-1.7
						c0,0,0.3,0.6,0.1,1.7c0,1.1-0.5,2.6-1.4,4s-2.2,2.3-3.2,2.8C752.6,311.8,751.9,311.9,751.9,311.9z"/>
				</g>
			</g>
		</g>
		<g>
			<g>
				<g>
					<path class="st4" d="M751.6,316.4c0-0.1,0.9-0.2,2.4-0.8c1.4-0.6,3.2-1.7,4.6-3.5c1.5-1.8,2.3-3.8,2.6-5.2s0.3-2.5,0.4-2.4
						c0,0,0.2,1,0,2.6c-0.2,1.5-0.9,3.7-2.5,5.6s-3.5,3-5,3.6C752.5,316.5,751.6,316.4,751.6,316.4z"/>
				</g>
			</g>
		</g>
		<g>
			<g>
				<g>
					<path class="st4" d="M751,324.7c0,0,0.5,0.8,0.4,2.2c-0.1,1.4-0.6,3.4-2.1,5s-3.6,2.2-5.1,2.2c-1.5,0.1-2.2-0.3-2.2-0.3
						c0-0.1,0.8,0.1,2.2-0.1c1.3-0.2,3.2-0.7,4.7-2.3c1.4-1.4,2.1-3.3,2.2-4.7C751.2,325.6,750.7,324.8,751,324.7z"/>
				</g>
			</g>
		</g>
		<g>
			<g>
				<g>
					<path class="st4" d="M749.8,314.2c0,0.1-0.8,0.2-1.7,0.8c-1,0.5-2.4,1.6-3.1,3.3c-0.7,1.7-0.6,3.4-0.2,4.4
						c0.3,1.2,0.8,1.7,0.7,1.8c0,0-0.7-0.5-1.1-1.7s-0.7-3,0.1-4.8s2.3-3,3.5-3.4C748.8,314.1,749.8,314.2,749.8,314.2z"/>
				</g>
			</g>
		</g>
		<g>
			<g>
				<g>
					<path class="st4" d="M732.3,324.4c-0.2-0.1,0.3-0.6,0.6-1.6s0.4-2.4,0.1-4c-0.3-1.6-1.2-2.7-2-3.4c-0.7-0.7-1.3-0.9-1.3-1.1
						c0,0,0.7,0.1,1.5,0.7s1.8,1.9,2.3,3.6c0.4,1.7,0.2,3.2-0.2,4.1C732.9,324,732.3,324.5,732.3,324.4z"/>
				</g>
			</g>
		</g>
		<g>
			<g>
				<g>
					<path class="st4" d="M743.5,328.9c0,0.1-0.5,0.4-1.3,0.3s-2-0.5-2.9-1.5c-0.8-1-0.9-2.4-0.7-3.1c0.2-0.9,0.5-1.2,0.5-1.2
						c0.1,0-0.2,0.4-0.1,1.3c-0.1,0.7,0.1,1.9,0.7,2.7c0.7,0.9,1.6,1.3,2.5,1.5C743.1,328.9,743.5,328.8,743.5,328.9z"/>
				</g>
			</g>
		</g>
		<g>
			<g>
				<g>
					<path class="st4" d="M727.9,312.4c0-0.1,0.3-0.6,0.8-1.4c0.5-0.9,0.9-2.2,1.1-3.8c0.1-1.5-0.2-2.8-0.5-3.8
						c-0.3-0.9-0.6-1.5-0.6-1.5s0.5,0.4,1,1.4s0.8,2.4,0.8,4c-0.2,1.7-0.7,3-1.3,3.8C728.4,312,727.9,312.5,727.9,312.4z"/>
				</g>
			</g>
		</g>
		<g>
			<g>
				<g>
					<path class="st4" d="M732,312.8c0-0.1,0.6-0.3,1.4-0.9c0.8-0.5,1.8-1.5,2.6-2.9c0.6-1.4,0.9-2.8,0.8-3.8
						c-0.1-1.1-0.3-1.6-0.2-1.7c0,0,0.4,0.6,0.6,1.6s0.1,2.7-0.7,4.1c-0.7,1.5-2,2.5-2.9,3C732.7,312.9,732.1,312.9,732,312.8z"/>
				</g>
			</g>
		</g>
		<g>
			<g>
				<g>
					<path class="st4" d="M728.7,298.9c-0.2-0.1,1.1-2.4,0.5-5.4c-0.4-3-2.3-4.9-2.2-4.9c0,0,0.6,0.3,1.2,1.2
						c0.6,0.8,1.3,2.2,1.5,3.7c0.2,1.6,0,3.1-0.3,4C729,298.4,728.7,298.9,728.7,298.9z"/>
				</g>
			</g>
		</g>
		<g>
			<g>
				<g>
					<path class="st4" d="M758.2,297.6c0,0.1-0.5,0.1-1.2,0.5c-0.7,0.3-1.7,1.1-2.4,2.2s-0.9,2.2-0.8,3c0,0.8,0.3,1.3,0.2,1.3
						c0,0-0.4-0.5-0.6-1.4s0.1-2.2,0.7-3.4c0.7-1.2,1.8-2,2.6-2.2S758.2,297.6,758.2,297.6z"/>
				</g>
			</g>
		</g>
		<g>
			<g>
				<g>
					<path class="st4" d="M745.4,309.6c0,0.1-2.2,0.6-4.2,2.4c-2.1,1.7-3,3.8-3.1,3.7c-0.1,0,0.6-2.3,2.7-4.1
						C743.2,309.7,745.4,309.5,745.4,309.6z"/>
				</g>
			</g>
		</g>
		<g>
			<g>
				<g>
					<path class="st4" d="M749.3,297.4c0-0.1,0.4-0.5,0.9-1.6c0.5-0.9,0.8-2.4,0.4-3.9c-0.5-1.5-1.5-2.5-2.3-3.1s-1.5-0.7-1.5-0.7
						s0.7,0,1.7,0.4c0.9,0.5,2.3,1.7,2.7,3.3c0.5,1.7,0,3.2-0.6,4.2C749.9,297,749.3,297.4,749.3,297.4z"/>
				</g>
			</g>
		</g>
		<g>
			<g>
				<g>
					<path class="st4" d="M755.9,295.9c0-0.1,0.5-0.7,1.1-1.9c0.5-1.2,0.9-3.1,0.5-5s-1.6-3.4-2.6-4.3s-1.8-1.2-1.8-1.2
						s0.8,0.1,2,0.9s2.4,2.4,2.9,4.5s0,4.1-0.7,5.3C756.8,295.4,755.9,295.9,755.9,295.9z"/>
				</g>
			</g>
		</g>
		<g>
			<g>
				<g>
					<path class="st4" d="M749.9,284.9c0,0.1-0.7,0-1.8,0.3c-1,0.2-2.5,1.1-3.2,2.6s-0.5,3.2-0.1,4.2s1,1.5,0.9,1.6
						c0,0-0.8-0.4-1.3-1.5s-0.9-2.9-0.1-4.6s2.5-2.6,3.7-2.7C749.2,284.5,749.9,284.8,749.9,284.9z"/>
				</g>
			</g>
		</g>
		<g>
			<g>
				<g>
					<path class="st4" d="M739.6,307.3c0-0.1,0.6-0.4,1.3-1.3c0.8-0.8,1.4-2.2,1.4-3.9s-0.8-3.1-1.5-3.7c-0.7-0.8-1.4-1.2-1.4-1.2
						s0.7,0.1,1.6,0.9c0.8,0.8,1.9,2.3,1.9,4.1c0,1.9-0.9,3.3-1.8,4.1C740.5,307.1,739.6,307.3,739.6,307.3z"/>
				</g>
			</g>
		</g>
		<g>
			<g>
				<g>
					<path class="st4" d="M744.1,306.7c-0.2-0.1,1.5-1.6,1.8-3.9c0.4-2.4-0.7-4.3-0.4-4.4c0,0,0.5,0.3,0.8,1.2
						c0.3,0.7,0.6,2,0.3,3.3s-0.8,2.4-1.4,3C744.5,306.5,744.2,306.7,744.1,306.7z"/>
				</g>
			</g>
		</g>
		<g>
			<g>
				<g>
					<path class="st4" d="M735.2,287.6c0,0.1-0.4,0.5-0.9,1.6c-0.5,0.9-0.8,2.4-0.6,4.1c0.2,1.6,0.9,2.9,1.6,3.7
						c0.7,0.8,1.3,1.1,1.2,1.2c0,0-0.7-0.1-1.6-0.9c-0.8-0.8-1.7-2.2-2-3.9c-0.2-1.7,0.2-3.3,0.8-4.3
						C734.6,288,735.2,287.6,735.2,287.6z"/>
				</g>
			</g>
		</g>
		<g>
			<g>
				<g>
					<path class="st4" d="M746.8,283.3c-0.2-0.1,0.5-1.5,0-3.2c-0.4-1.8-1.8-2.6-1.7-2.7c0,0,0.4,0,0.9,0.5c0.5,0.4,1.1,1.1,1.3,2.2
						s0.1,1.9,0,2.6C747.3,283,746.9,283.4,746.8,283.3z"/>
				</g>
			</g>
		</g>
		<g>
			<g>
				<g>
					<path class="st4" d="M729.8,277.1c0,0.1-0.2,0.3-0.5,0.8s-0.5,1.2-0.3,2.1c0,0.8,0.5,1.5,0.9,2s0.8,0.5,0.7,0.7
						c0,0-0.4,0.1-1-0.3c-0.5-0.4-1.1-1.1-1.2-2.2c-0.1-1.1,0.2-2,0.7-2.5C729.1,277.2,729.8,277.1,729.8,277.1z"/>
				</g>
			</g>
		</g>
		<g>
			<g>
				<g>
					<path class="st4" d="M737.5,285.9c-0.2-0.1,0-0.4,0.2-1c0.1-0.6,0.2-1.5-0.1-2.4c-0.2-0.9-0.8-1.7-1.2-2.2s-0.8-0.6-0.7-0.8
						c0,0,0.4,0,1,0.4c0.5,0.4,1.2,1.2,1.5,2.3s0.2,2.1-0.1,2.7C737.9,285.6,737.5,285.9,737.5,285.9z"/>
				</g>
			</g>
		</g>
		<g>
			<g>
				<g>
					<path class="st4" d="M740.1,295c-0.2-0.1,0.4-1.7-0.3-3.6c-0.7-2-2.1-2.9-2-3.1c0,0,0.4,0,1.1,0.6c0.5,0.4,1.2,1.2,1.6,2.4
						c0.4,1,0.3,2.1,0.2,2.8C740.5,294.6,740.1,295,740.1,295z"/>
				</g>
			</g>
		</g>
		<g>
			<g>
				<g>
					<path class="st4" d="M733.6,266.4c0,0.1-1.3,0.3-2.4,1.5c-1.1,1.1-1.4,2.3-1.6,2.4c-0.1,0-0.1-0.4,0.1-1
						c0.1-0.6,0.5-1.2,1.2-1.9c0.7-0.6,1.4-1,2-1C733.3,266.2,733.5,266.3,733.6,266.4z"/>
				</g>
			</g>
		</g>
		<g>
			<g>
				<g>
					<path class="st4" d="M763.2,313.7c0,0,0,0.7-0.4,1.9c-0.4,1-1.3,2.5-2.6,3.6c-1.4,1.1-2.9,1.7-4,2c-1.2,0.3-1.9,0.1-1.9,0.1
						c0-0.1,0.6-0.1,1.8-0.5c1-0.4,2.5-1,3.7-2.1s2.2-2.4,2.7-3.3C762.7,314.4,763,313.8,763.2,313.7z"/>
				</g>
			</g>
		</g>
		<g>
			<g>
				<g>
					<path class="st4" d="M744.8,265.2c-0.1,0-0.6-0.4-1.7-1.1c-1.1-0.6-2.6-1.3-4.4-1.6c-1.8-0.3-3.6-0.2-4.7,0.1s-1.9,0.6-1.9,0.4
						c0,0,0.6-0.5,1.8-1c1.3-0.4,3-0.7,5-0.3s3.5,1.1,4.6,1.8C744.3,264.6,744.8,265.2,744.8,265.2z"/>
				</g>
			</g>
		</g>
		<g>
			<g>
				<g>
					<path class="st4" d="M750.2,268.1c-0.1,0-0.3-0.6-0.7-1.8c-0.4-1-1.2-2.4-2.5-3.7c-1.2-1.2-2.6-2-3.8-2.3
						c-1-0.4-1.7-0.4-1.8-0.6c0,0,0.8-0.2,1.9,0.1c1.2,0.3,2.7,1,4,2.2c1.4,1.2,2.1,2.8,2.5,3.9
						C750.3,267.3,750.2,268.1,750.2,268.1z"/>
				</g>
			</g>
		</g>
	</g>
	<polygon class="st0" points="303.2,426.3 289.1,529.7 150.4,529.7 164.5,426.3 	"/>
	<path class="st5" d="M233,466.6C232.9,466.6,232.9,466.6,233,466.6c-0.5,0-0.8-0.4-0.7-0.8l0.5-19l-6.7,19.1
		c-0.1,0.4-0.5,0.7-0.9,0.7h-7.6c-0.3,0-0.6-0.2-0.7-0.5l-1.5-4l-2.8,4c-0.2,0.3-0.5,0.4-0.8,0.4h-4.6c-0.4,0-0.7-0.2-0.7-0.6
		l-2.9-13.4L196,466c-0.2,0.3-0.5,0.5-0.9,0.5h-21.8c-0.5,0-0.8-0.4-0.7-0.9s0.5-0.9,1-0.9h21.3l8.5-15c0.2-0.3,0.5-0.5,0.9-0.5
		s0.6,0.2,0.7,0.6l3.2,14.9h3.4l3.5-5c0.2-0.3,0.5-0.5,0.8-0.4c0.3,0,0.6,0.2,0.7,0.5l1.8,5h6.4l8.2-23.6c0.1-0.4,0.5-0.7,1-0.7
		c0.4,0,0.7,0.3,0.7,0.8l-0.5,19.9l3.2-7.9c0.2-0.4,0.5-0.6,0.9-0.6s0.7,0.3,0.7,0.7l0.7,11.4h9l10-21.6c0.2-0.4,0.6-0.6,1-0.6
		s0.7,0.3,0.7,0.7l0.9,21.4h2.7l4.8-7.7c0.2-0.3,0.6-0.5,0.9-0.5c0.4,0,0.6,0.3,0.7,0.6l0.9,7.6h12.4c0.5,0,0.8,0.4,0.7,0.9
		c-0.1,0.5-0.5,0.9-1,0.9h-13c-0.4,0-0.7-0.3-0.7-0.6L269,460l-3.8,6.1c-0.2,0.3-0.5,0.5-0.8,0.5h-3.9c-0.4,0-0.7-0.3-0.7-0.7
		l-0.8-18.8l-8.8,18.9c-0.2,0.4-0.5,0.6-0.9,0.6H239c-0.4,0-0.7-0.3-0.7-0.7l-0.5-8.6l-3.6,8.7C233.7,466.3,233.3,466.6,233,466.6z"
		/>
	<path class="st5" d="M227.7,505.5C227.6,505.5,227.6,505.5,227.7,505.5c-0.5,0-0.8-0.4-0.7-0.8l0.5-19l-6.7,19.1
		c-0.1,0.4-0.5,0.7-0.9,0.7h-7.6c-0.3,0-0.6-0.2-0.7-0.5l-1.5-4l-2.8,4c-0.2,0.3-0.5,0.4-0.8,0.4h-4.6c-0.4,0-0.7-0.2-0.7-0.6
		l-2.9-13.4l-7.6,13.5c-0.2,0.3-0.5,0.5-0.9,0.5H168c-0.5,0-0.8-0.4-0.7-0.9s0.5-0.9,1-0.9h21.3l8.5-15c0.2-0.3,0.5-0.5,0.9-0.5
		s0.6,0.2,0.7,0.6l3.2,14.9h3.4l3.5-5c0.2-0.3,0.5-0.5,0.8-0.4c0.3,0,0.6,0.2,0.7,0.5l1.8,5h6.4l8.2-23.6c0.1-0.4,0.5-0.7,1-0.7
		c0.4,0,0.7,0.3,0.7,0.8l-0.5,19.9l3.2-7.9c0.2-0.4,0.5-0.6,0.9-0.6s0.7,0.3,0.7,0.7l0.7,11.4h9l10-21.6c0.2-0.4,0.6-0.6,1-0.6
		s0.7,0.3,0.7,0.7l0.9,21.4h2.7l4.8-7.7c0.2-0.3,0.6-0.5,0.9-0.5c0.4,0,0.6,0.3,0.7,0.6l0.9,7.6h12.4c0.5,0,0.8,0.4,0.7,0.9
		c-0.1,0.5-0.5,0.9-1,0.9h-13c-0.4,0-0.7-0.3-0.7-0.6l-0.7-5.9l-3.8,6.1c-0.2,0.3-0.5,0.5-0.8,0.5h-3.9c-0.4,0-0.7-0.3-0.7-0.7
		l-0.8-18.8l-8.8,18.9c-0.2,0.4-0.5,0.6-0.9,0.6h-10.3c-0.4,0-0.7-0.3-0.7-0.7l-0.5-8.6l-3.6,8.7C228.4,505.3,228,505.5,227.7,505.5
		z"/>
	<polygon class="st0" points="260.9,675.3 223.1,675.3 223.1,624.5 	"/>
	<path class="st0" d="M310.5,604.4c-0.1,0-0.2,0-0.3,0.1c-0.4,0.1-0.8,0.2-1.2,0.3c-0.1,0-0.2,0-0.2,0c-0.7,0.2-1.3,0.3-1.8,0.4
		c-0.3,0.1-0.7,0.1-0.9,0.2c-0.3,0-0.5,0.1-0.7,0.1c-0.1,0-0.2,0-0.3,0.1c-0.2,0-0.4,0.1-0.4,0.1s0,0,0,0.1c0,0,0,0.1,0,0.1
		c0,0,0,0.1-0.1,0.2c0,0,0,0.1-0.1,0.1c2.3,0,4.5-0.7,6.5-1.8C310.8,604.3,310.7,604.4,310.5,604.4z M311.7,662.6
		c-0.8-1.1-1.3-2.4-1.8-3.6c-0.9-1.4-1.5-2.9-1.9-4.5c0-0.2-0.1-0.5-0.1-0.7c0,0,0,0,0,0l-0.2-1.1l-0.1-1.2c0-0.4,0-0.8,0-1.3
		c0-5.4,2-11.4,4.9-17.2c0.6-1.2,1.2-2.3,1.9-3.4c1.3-2.3,2.7-4.5,4.1-6.6c-0.7-1.4-1.6-3.2-2.8-5.1c-0.4-0.7-0.9-1.4-1.4-2
		c-0.3-0.4-0.6-0.8-0.9-1.1c-1.1-1.4-2.4-2.7-3.9-4c-0.3-0.3-0.7-0.6-1-0.9c0,0,0,0,0,0c-0.4-0.3-0.8-0.6-1.3-0.9c0,0,0,0,0,0
		c-0.2-0.2-0.5-0.3-0.7-0.4c-0.9-0.6-1.9-1.1-2.9-1.5c0,0,0,0-0.1,0c-0.6,0.3-1.5,0.7-2.8,0.8c-3.9,0.6-31.3,6.1-38.7-16.6
		c-0.4-1.1-0.6-2.1-0.7-3.2c0-0.2,0-0.4,0-0.5c0-0.2,0-0.4,0-0.5c0-0.7,0-1.4,0.1-2c0-0.2,0-0.4,0.1-0.7v0c0.3-2.1,0.9-4.2,1.9-6.2
		c0.2-0.4,0.4-0.7,0.5-1.1c0.1-0.3,0.3-0.6,0.5-0.8c0.2-0.3,0.3-0.6,0.5-0.8c0.2-0.3,0.3-0.5,0.5-0.8c0.2-0.3,0.4-0.6,0.6-0.9
		c0.3-0.4,0.6-0.9,1-1.3c0.2-0.2,0.3-0.4,0.5-0.6c0.3-0.4,0.6-0.7,0.9-1.1c0.3-0.4,0.6-0.7,0.9-1.1c0.3-0.3,0.5-0.6,0.8-0.9
		c0.1-0.1,0.1-0.2,0.2-0.2c0.3-0.3,0.6-0.7,1-1c0.8-0.8,1.6-1.6,2.4-2.3h0c0,0,0.1-0.1,0.1-0.1l-67.4-1.5l-0.1,0.1h0l-1,1.1l1-0.8
		l82.9,111.4h35.7v-5.3C318.7,668.1,313.7,665.6,311.7,662.6z M290.9,805.6v9.1h33.8v-9.1H290.9z M295.4,840.7
		c-0.1-0.2-0.2-0.4-0.3-0.5c-0.3-0.5-0.7-1-1-1.5c-0.3-0.3-0.6-0.6-0.9-0.9c-0.2-0.1-0.3-0.3-0.5-0.4c-0.5-0.4-1.2-0.8-1.8-1.1
		c-1.3-0.6-2.7-1-4.3-1c-1.5,0-3,0.4-4.3,1c-3.2,1.6-5.4,4.9-5.4,8.7c0,0.7,0.1,1.3,0.2,2c0.3,1.4,0.9,2.7,1.8,3.8
		c-1.2-1.6-1.8-3.6-1.8-5.7c0-3.8,2.2-7.1,5.3-8.7c0,0,0.1,0,0.1,0c1.3-0.6,2.8-1,4.3-1c1.5,0,2.9,0.4,4.2,1v0
		c3.2,1.5,5.4,4.8,5.4,8.6C296.3,843.4,296,842,295.4,840.7z"/>
	<path class="st0" d="M324.7,814.7v40h-38c0.1,0,0.3,0,0.4,0c0.3,0,0.6,0,1-0.1c0,0,0,0,0,0c4.5-0.7,8-4.6,8.2-9.2
		c0-0.1,0-0.3,0-0.4v-0.1c0-3.8-2.2-7.1-5.4-8.6v-21.5L324.7,814.7z"/>
	<rect x="290.9" y="699.2" class="st0" width="33.8" height="106.4"/>
	<path class="st0" d="M286.6,854.7H167.1v-325h107.2v34.7c-0.2,0.2-0.4,0.4-0.7,0.6l-67.4-1.5l-1.1,1.2l0,0l-5.9,4.4
		c-6.2,4.6-7.4,13.2-2.9,19.4l14.7,19.8v67.1h-7.7c-6.6,0-11.9,5.3-11.9,11.9c0,3.3,1.3,6.3,3.5,8.4c2.1,2.2,5.1,3.5,8.4,3.5h79v137
		c-3.2,1.6-5.4,4.9-5.4,8.7C276.9,850.4,281.3,854.7,286.6,854.7z"/>
	<path class="st0" d="M344.9,674.1c0,0.4,0,0.8-0.1,1.2h-55.9l-82.8-111.4l-1,0.8l1.1-1.2l67.4,1.5c-8,7.2-14.9,16.7-11.8,26.3
		c7.4,22.7,34.7,17.1,38.7,16.6c1.3-0.2,2.2-0.5,2.8-0.8l0,0c8.4,3.5,13.1,11.7,15.1,16l0,0c-1.4,2.1-2.8,4.3-4.1,6.6
		c-0.7,1.1-1.3,2.3-1.9,3.4c-4.6,9.2-7,18.8-2.6,26l0,0c0.5,1.2,1,2.5,1.8,3.6c2,3,6.9,5.4,13,7.3
		C331,671.8,338.4,673.2,344.9,674.1z"/>
	<path class="st0" d="M359.3,595.2c-14,1.4-22.9,7-24.8,8.3c-2.5-2.1-5.9-5.1-8.9-7.7c-0.3,0.4-0.6,0.8-0.9,1.2v-7.9
		c1-1.9,1.6-3.1,1.6-3.1c1.9-5.1-11.4-14.9-21.1-20.3l34.7,0.7L359.3,595.2z"/>
	<path class="st0" d="M345,675.4c-0.2,1.8-0.3,3.7-0.4,5.5c0,0.8-0.1,1.7-0.1,2.5c0,0.7,0,1.4-0.1,2.2c-0.1,5-0.2,9.6-0.1,13.6
		H203.4c-0.2,0-0.4,0-0.6,0c-0.2,0-0.4,0-0.6,0c-0.2,0-0.3,0-0.5-0.1c-2.6-0.4-5-1.6-6.7-3.4c-2.2-2.2-3.5-5.1-3.5-8.4
		c0-6.4,5-11.6,11.3-11.9c0.2,0,0.4,0,0.6,0H261l-37.8-50.8l-2.7-3.6l-0.5-0.6l-9-12l-14.7-19.8c-4.6-6.1-3.3-14.8,2.9-19.4l5.9-4.4
		l1-0.8l0,0L289,675.3l0.1,0.1H345z"/>
	<path class="st0" d="M713.7,699.2h-5.5v-5.5C708.2,696.7,710.7,699.2,713.7,699.2z"/>
	<path class="st0" d="M724,699.2h-1.5V699c0.4,0.1,0.8,0.2,1.1,0.2C723.8,699.2,723.9,699.2,724,699.2z"/>
	<path class="st0" d="M290.9,699.2v137c-1.3-0.6-2.7-1-4.3-1c-1.5,0-3,0.4-4.3,1v-137H290.9z"/>
	<path class="st0" d="M290.9,836.2L290.9,836.2c-1.3-0.5-2.7-0.9-4.2-0.9c-1.5,0-3,0.4-4.3,1c0,0-0.1,0-0.1,0v-0.1
		c1.3-0.6,2.8-1,4.3-1C288.2,835.2,289.6,835.6,290.9,836.2z"/>
	<path class="st0" d="M724,699.2h-1.5V699c0.4,0.1,0.8,0.2,1.1,0.2C723.8,699.2,723.9,699.2,724,699.2z"/>
	<path class="st0" d="M731.1,836.2v8.7h-8.6v-8.7c1.3-0.6,2.8-1,4.3-1c0.4,0,0.8,0,1.1,0.1c0.3,0,0.5,0.1,0.8,0.1c0,0,0,0,0.1,0
		c0.3,0.1,0.5,0.1,0.8,0.2c0.2,0,0.3,0.1,0.5,0.2C730.4,835.9,730.8,836,731.1,836.2z"/>
	<path class="st0" d="M442.4,713.2v123c-0.3-0.2-0.7-0.3-1-0.4c-0.2-0.1-0.4-0.1-0.5-0.2c-0.2-0.1-0.5-0.1-0.7-0.2
		c-0.1,0-0.1,0-0.2,0c0,0,0,0-0.1,0c-0.2-0.1-0.4-0.1-0.7-0.1c-0.4-0.1-0.7-0.1-1.1-0.1c-1.5,0-3,0.4-4.3,1V713.7
		C436.6,713.6,439.5,713.4,442.4,713.2z"/>
	<path class="st0" d="M442.4,836.2L442.4,836.2c-1.3-0.5-2.8-0.9-4.3-0.9s-3,0.4-4.3,1v-0.1c1.3-0.6,2.8-1,4.3-1
		c0.4,0,0.8,0,1.1,0.1c0.6,0.1,1.1,0.2,1.7,0.3c0.2,0,0.3,0.1,0.5,0.2C441.7,835.9,442.1,836,442.4,836.2z"/>
	<rect x="442.4" y="805.6" class="st0" width="280.1" height="9.1"/>
	<rect x="290.9" y="805.6" class="st0" width="142.9" height="9.1"/>
	<path class="st0" d="M731.1,699.2v137c-0.3-0.2-0.7-0.3-1-0.4c-0.2-0.1-0.4-0.1-0.5-0.2c-0.3-0.1-0.5-0.2-0.8-0.2c0,0,0,0-0.1,0
		c-0.3-0.1-0.5-0.1-0.8-0.1c-0.4-0.1-0.7-0.1-1.1-0.1c-1.5,0-3,0.4-4.3,1v-137H731.1z"/>
	<path class="st0" d="M787.4,805.6c-0.5,3.1-1,6.1-1.5,9.1h-54.8v-9.1H787.4z"/>
	<path class="st0" d="M856.4,814.7h-34.8c1-2.9,2-6,3-9.1h30.6L856.4,814.7z"/>
	<path class="st0" d="M295.4,840.7c-0.1-0.2-0.2-0.4-0.3-0.5c-0.3-0.5-0.6-1-1-1.5c-0.3-0.3-0.6-0.6-0.9-0.9
		c-0.2-0.1-0.3-0.3-0.5-0.4c-0.5-0.4-1.1-0.8-1.7-1c0,0-0.1,0-0.1,0v0c3.2,1.5,5.4,4.8,5.4,8.6v0.1c0,0.1,0,0.3,0,0.4
		c-0.3,5.1-4.5,9.2-9.7,9.2c-2.1,0-4.1-0.7-5.7-1.8c1.3,1,2.8,1.6,4.4,1.9c0.3,0,0.6,0.1,0.9,0.1c0.1,0,0.3,0,0.4,0h0.1
		c0.1,0,0.3,0,0.4,0c0.3,0,0.6,0,1-0.1c0,0,0,0,0,0c4.7-0.7,8.3-4.7,8.3-9.6C296.4,843.5,296.1,842,295.4,840.7z M280.9,852.8
		c-0.3-0.2-0.5-0.4-0.8-0.6C280.4,852.4,280.7,852.6,280.9,852.8z"/>
	<path class="st0" d="M290.9,836.3L290.9,836.3c-1.3-0.6-2.7-1-4.2-1c-1.5,0-3,0.4-4.3,1c0,0-0.1,0-0.1,0c-3.1,1.5-5.3,4.9-5.3,8.7
		c0,2.1,0.7,4.1,1.8,5.7c0.2,0.3,0.4,0.5,0.6,0.8c0.2,0.2,0.5,0.5,0.7,0.7c1.7,1.5,4,2.4,6.4,2.4c5.2,0,9.4-4.1,9.7-9.2
		c0-0.1,0-0.3,0-0.4v-0.1C296.3,841.1,294.1,837.8,290.9,836.3z M286.6,850.4c-3,0-5.4-2.4-5.4-5.4c0-1.2,0.4-2.4,1.1-3.3
		c1-1.3,2.5-2.1,4.3-2.1c1.8,0,3.3,0.8,4.3,2.1c0.7,0.9,1.1,2,1.1,3.3C292,848,289.6,850.4,286.6,850.4z"/>
	<path class="st0" d="M292,845c0,3-2.4,5.4-5.4,5.4s-5.4-2.4-5.4-5.4c0-1.2,0.4-2.4,1.1-3.3c1-1.3,2.5-2.1,4.3-2.1
		c1.8,0,3.3,0.8,4.3,2.1C291.6,842.6,292,843.8,292,845z"/>
	<path class="st0" d="M442.4,836.3c-1.3-0.6-2.8-1-4.3-1s-3,0.4-4.3,1c-3.2,1.5-5.4,4.9-5.4,8.7c0,5.3,4.3,9.7,9.7,9.7
		c5.3,0,9.7-4.3,9.7-9.7C447.8,841.1,445.6,837.8,442.4,836.3z M438.1,850.4c-3,0-5.4-2.4-5.4-5.4c0-1.2,0.4-2.4,1.1-3.3
		c1-1.3,2.5-2.1,4.3-2.1c1.8,0,3.3,0.8,4.3,2.1c0.7,0.9,1.1,2,1.1,3.3C443.5,848,441.1,850.4,438.1,850.4z"/>
	<path class="st0" d="M443.5,845c0,3-2.4,5.4-5.4,5.4s-5.4-2.4-5.4-5.4c0-1.2,0.4-2.4,1.1-3.3c1-1.3,2.5-2.1,4.3-2.1
		c1.8,0,3.3,0.8,4.3,2.1C443.1,842.6,443.5,843.8,443.5,845z"/>
	<path class="st0" d="M736.6,845c0,5.4-4.4,9.7-9.7,9.7c-5.4,0-9.7-4.4-9.7-9.7c0-3.8,2.2-7.2,5.4-8.7c1.3-0.6,2.8-1,4.3-1
		s3,0.4,4.3,1C734.3,837.8,736.6,841.1,736.6,845z"/>
	<path class="st0" d="M721.4,845c0-3,2.4-5.4,5.4-5.4s5.4,2.4,5.4,5.4s-2.4,5.4-5.4,5.4S721.4,848,721.4,845z"/>
	<path class="st0" d="M387.7,598.2c-3.2,2.2-10,7.1-17.1,13.8l0,0c-7.8,7.4-16,17.1-19.9,27.6c-0.6,1.6-1.1,3.4-1.6,5.3
		c0,0.1-0.1,0.3-0.1,0.4c0,0.1-0.1,0.3-0.1,0.4c-1.6,6.2-2.7,13.5-3.4,21c-0.2,2.5-0.4,5-0.6,7.5c-6.6-0.9-14-2.3-20.2-4.2
		c-6-1.9-11-4.3-13-7.3c-0.8-1.1-1.3-2.3-1.8-3.6l0,0c-6-9.9,0.7-24.4,8.6-36c0.7,1.6,1.1,2.6,1.1,2.6c1-0.4,2.9-1.8,5.1-3.7
		c6.1-5.4,14.5-14.7,13-15.8c-0.5-0.3-1.6-1.3-3.2-2.6c2-1.3,10.9-6.9,24.8-8.3c6.7-0.7,14.6-0.4,23.4,1.8
		C383.9,597.2,385.7,597.7,387.7,598.2z"/>
	<polygon class="st0" points="223.1,624.5 223.1,675.3 211.1,675.3 211.1,608.3 	"/>
	<path class="st0" d="M326.3,585.9c0,0-0.6,1.2-1.6,3.1v7.9c-3.4,3.8-9.2,6.1-13.8,7.3c-3.6,1-6.4,1.3-6.4,1.3s-0.9-2.4-2.5-4.5
		c-1.2-1.6-2.9-3.1-4.9-3.2c0,0-5.3,1-6.1-2.1c-0.8-3.2,3-2.2,3.8-3.7c0.7-1.3-1-5.4-3.8-8.3c-0.5-0.5-1-0.9-1.5-1.3
		c-3.3-2.4,8-10.4,12-16.9l3.6,0.1C314.9,571,328.2,580.8,326.3,585.9z"/>
	<path class="st0" d="M304.6,605.6c0,0,0,0.2-0.2,0.5s-0.5,0.6-1,1l0,0c-0.6,0.3-1.5,0.7-2.8,0.8c-3.9,0.6-31.3,6.1-38.7-16.6
		c-3.2-9.6,3.8-19.1,11.8-26.3c0.2-0.2,0.4-0.4,0.7-0.6c6.7-5.9,13.9-10.3,16.4-11.8c9.7-6,13.9,3.8,12.1,10.5
		c-0.1,0.4-0.2,0.7-0.4,1.1c-0.2,0.5-0.5,0.9-0.8,1.4c-4,6.5-15.3,14.5-12,16.9c0.5,0.4,1,0.8,1.5,1.3c2.9,2.9,4.6,7,3.8,8.3
		c-0.8,1.5-4.6,0.5-3.8,3.7c0.8,3.2,6.1,2.1,6.1,2.1c2,0.2,3.7,1.6,4.9,3.2C303.7,603.1,304.6,605.6,304.6,605.6z"/>
	<path class="st0" d="M722.5,699v0.2h-8.8c-3,0-5.5-2.5-5.5-5.5v-84.4c0-3,2.5-5.5,5.5-5.5H724c-3,0-5.5,2.5-5.5,5.5v84.4
		C718.5,696.2,720.2,698.3,722.5,699z"/>
	<path class="st0" d="M724,699.2h-1.5V699c0.4,0.1,0.8,0.2,1.1,0.2C723.8,699.2,723.9,699.2,724,699.2z"/>
	<path class="st0" d="M849,699.2h-8.5l-0.1-1.1c2.6,0.4,5.1,0.8,7.7,1C848.4,699.2,848.7,699.2,849,699.2z"/>
	<path class="st0" d="M798.8,688.2c-0.2,3.6-0.4,7.2-0.6,10.9c0,0,0,0.1,0,0.1H724c-0.1,0-0.2,0-0.4,0c-0.3,0-0.7-0.1-1-0.2
		c-2.3-0.6-4-2.8-4-5.3v-84.4c0-3,2.5-5.5,5.5-5.5h64.1l1.8,10.9l0.1,0v0l1.2-0.1c-1.5,10.9-2.9,21.1-4.2,30.2
		c-0.4,3.2-0.8,6.2-1.2,9.1c-2.3,17-3.8,28-3.8,28S787.5,686.2,798.8,688.2z"/>
	<polygon class="st0" points="790.1,614.7 790,614.7 788.2,603.8 788.3,603.8 790.1,614.6 	"/>
	<path class="st0" d="M799,688.2C799,688.2,799,688.2,799,688.2c-0.2,3.6-0.4,7.3-0.6,11h-0.2c0,0,0-0.1,0-0.1
		c0.2-3.7,0.4-7.3,0.6-10.9c-11.3-2-16.7-6.3-16.7-6.3s1.5-11,3.8-28c0.4-2.9,0.8-5.9,1.2-9.1c1.2-9.1,2.7-19.3,4.2-30.2l0.1,0h0.1
		c-1.5,10.9-2.9,21.1-4.2,30.2c-0.4,3.2-0.9,6.2-1.2,9.1c-2.3,17-3.8,28-3.8,28s5.2,4.2,16.5,6.3C798.9,688.2,798.9,688.2,799,688.2
		z"/>
	<path class="st0" d="M849,699.2h-8.5l-0.1-1.1c2.6,0.4,5.1,0.8,7.7,1C848.4,699.2,848.7,699.2,849,699.2z"/>
	<path class="st0" d="M433.8,713.7v91.9H324.7V699.2h19.5c0,8.3,0.3,13.9,0.3,13.9s0,0,0.1,0C346.8,713.2,389.5,715.8,433.8,713.7z"
		/>
	<path class="st0" d="M708.2,625.6v88.2c0,0-0.3,0.1-0.9,0.3c-1.3,0.3-4.1,1-9,1.7c-4.9,0.7-11.9,1.6-21.7,2.3
		c-1.4,0.1-3.4,0.2-5.8,0.2c-3.7,0-8.5,0-14.1-0.1c-5.5-0.1-11.8-0.3-18.8-0.5c-4.2-0.1-8.5-0.3-13.1-0.5
		c-58.4-2.1-146.9-6.3-181.1-4c-0.4,0-0.9,0.1-1.3,0.1v-0.1c-2.9,0.2-5.8,0.4-8.6,0.5c-44.3,2.1-87-0.5-89.2-0.6
		c0-0.8-0.3-6.1-0.3-13.8v-0.1c0-4,0-8.7,0.1-13.6c0-0.7,0-1.4,0.1-2.2c0-0.8,0.1-1.6,0.1-2.5c0.1-1.8,0.2-3.7,0.4-5.5h-0.1
		c0-0.4,0-0.8,0.1-1.2c0.2-2.5,0.4-5,0.6-7.5c0.7-7.4,1.8-14.7,3.4-21c0-0.1,0.1-0.3,0.1-0.4c0-0.1,0.1-0.3,0.1-0.4
		c0.5-1.9,1-3.6,1.6-5.3c3.9-10.5,12-20.2,19.9-27.6c3.5-3.4,7-6.3,10-8.6c3-2.3,5.5-4.1,7.1-5.2c1.2-0.8,1.8-1.2,1.8-1.2
		c4.7,0.1,9.9,0.4,15.5,0.9c2.8,0.2,5.6,0.5,8.6,0.8c0.5,0.1,1,0.1,1.5,0.2c2,0.2,4,0.4,6.1,0.7c0.8,0.1,1.7,0.2,2.5,0.3
		c2,0.2,4,0.5,6.1,0.8c5.7,0.8,11.6,1.6,17.6,2.5c3.3,0.5,6.7,1,10.1,1.5c2,0.3,4.1,0.6,6.1,0.9c25,3.9,50.9,8.1,73.5,10.7
		c5.6,0.6,12.1,1.2,19.4,1.8c3.2,0.3,6.6,0.5,10.1,0.8c2,0.1,4,0.3,6.1,0.4c15.2,1,32.2,2,48.7,2.8c5,0.2,9.9,0.5,14.8,0.7
		c11.6,0.5,22.8,1,32.7,1.4c3.6,0.1,6.9,0.3,10.1,0.4c2.1,0.1,4.1,0.1,6.1,0.2c1.5,0,3,0.1,4.4,0.1
		C701,625.3,708.2,625.6,708.2,625.6z"/>
	<path class="st0" d="M345,675.4c-0.2,1.8-0.3,3.7-0.4,5.5C344.7,679.1,344.8,677.3,345,675.4L345,675.4z"/>
	<path class="st0" d="M442.4,713.2L442.4,713.2c-2.9,0.3-5.7,0.4-8.6,0.6c-45.5,2.3-89.2-0.6-89.2-0.6s0,0,0-0.1
		c2.2,0.1,44.9,2.7,89.2,0.6C436.6,713.6,439.5,713.4,442.4,713.2z"/>
	<path class="st0" d="M807.7,843.9c-0.1,3.5-0.5,6.8-1.8,8.1h-51c0.7-1.8,2.5-4.6,7.7-5.5c6-1,15.2-3.8,20.6-9.6
		c0.6,0.8,1.5,1.4,2.5,1.7C791,840.3,800.8,845.2,807.7,843.9z"/>
	<path class="st0" d="M843.3,719.7c-0.7,3.2-1.3,6.1-1.7,8.7c-0.7,3.9-1.2,7.1-1.3,9.4c-0.9,16.7-8.2,44.8-15.7,67.8
		c-1,3.1-2,6.2-3,9.1c-5.5,16.1-10.6,28-12.4,28.7c-0.5,0.2-1,0.3-1.5,0.4c-3.6,0.7-8-0.2-12.1-1.6c-0.7-0.2-1.4-0.5-2.1-0.7
		c-0.2-0.1-0.5-0.2-0.7-0.3c-0.2-0.1-0.4-0.2-0.6-0.2c-0.6-0.2-1.2-0.5-1.8-0.7c-0.3-0.1-0.6-0.2-0.9-0.3c-0.3-0.1-0.6-0.2-0.8-0.3
		c-0.3-0.1-0.5-0.2-0.8-0.3c-0.1,0-0.2-0.1-0.2-0.1c-0.3-0.1-0.7-0.2-1-0.4c-0.3-0.1-0.6-0.2-0.9-0.3c-0.1,0-0.2-0.1-0.4-0.1
		c-0.1,0-0.2-0.1-0.3-0.1c-0.1-0.1-0.2-0.1-0.3-0.2c-0.6-0.3-1.1-0.8-1.5-1.3c-0.9-1.1-1.3-2.5-1-3.9c1.3-5.9,2.5-11.9,3.6-18.3
		c0,0,0-0.1,0-0.1c0.5-3,1-5.9,1.5-9c0,0,0-0.1,0-0.1c5.4-33.8,8.8-72.2,10.9-106.3c0,0,0-0.1,0-0.1c0.2-3.7,0.4-7.3,0.6-10.9
		c0,0,0,0,0,0v-0.1c6.2,1.1,14.2,1.6,24.1,0.3c3.3-0.4,6-4,8.3-9.9c1.6-4.2,3-9.6,4.1-16l0,0.4l4.9,35.2l0.1,1.1L843.3,719.7z"/>
	<path class="st0" d="M848,699.1C848,699.2,848,699.2,848,699.1l-7.5,0.1l-0.1-1.1C842.9,698.6,845.5,698.9,848,699.1z"/>
	<path class="st0" d="M894.1,693.5c-0.1,36.4-8.7,149.6-8.7,149.6c-0.3,0.1-0.7,0.2-1,0.2c-1.1-4.8-2.6-6.1-2.6-6.1
		s-15.9-3.2-18.4,1.8c-0.6,1.1-1,2.4-1.5,3.7c-1-0.2-1.6-0.3-1.6-0.3l-3.8-27.7l-1.3-9.1l-11.9-85.9l0,0l-2.8-20.5h8.5
		c5,0.4,10,0.4,15.1,0c3.6-0.3,7.2-0.7,10.9-1.3l0,0C881.1,696.9,887.4,695.4,894.1,693.5z"/>
	<path class="st0" d="M885.6,852h-25.8c0.2-1.4,0.9-5.5,2.1-9.3l0,0c0.4-1.3,0.9-2.6,1.5-3.7c2.5-5,18.4-1.8,18.4-1.8
		s1.5,1.3,2.6,6.1C884.9,845.4,885.4,848.3,885.6,852z"/>
	<path class="st0" d="M849,699.2h-8.5l-0.1-1.1c2.6,0.4,5.1,0.8,7.7,1C848.4,699.2,848.7,699.2,849,699.2z"/>
	<path class="st1" d="M840.2,612.6c-0.4,8.8-0.9,17.3-1.6,25.1c-0.2,2.4-0.4,4.8-0.7,7.1c-0.2,1.5-0.3,2.9-0.5,4.3
		c-0.2,1.6-0.4,3.2-0.6,4.8h0c-0.1,0.6-0.2,1.2-0.2,1.7c0,0.1,0,0.2,0,0.3c-0.3,2.3-0.7,4.5-1.1,6.7c0,0.1,0,0.2-0.1,0.3l0-0.4
		c-1.1,6.4-2.5,11.8-4.1,16c-2.3,5.9-5,9.5-8.3,9.9c-9.9,1.3-17.9,0.8-24.1-0.3v0.1c-11.3-2-16.5-6.3-16.5-6.3s1.5-11,3.8-28
		c0.4-2.9,0.8-5.9,1.2-9.1c1.2-9.1,2.6-19.3,4.2-30.2l11.3-0.5h1.1l24.6-1l3.9-0.2L840.2,612.6z"/>
	<path class="st1" d="M835.3,662.9c-1.1,6.2-2.5,11.6-4,15.7c-2.2,5.9-5,9.5-8.3,9.9c-9.8,1.3-17.8,0.9-24-0.3c0,0-0.1,0-0.1,0
		c0,0-0.1,0-0.1,0c-11.3-2-16.7-6.3-16.7-6.3s1.5-11,3.8-28c0.4-2.9,0.8-5.9,1.2-9.1c1.2-9.1,2.7-19.3,4.2-30.2v0h0.2
		c-1.5,10.9-2.9,21.1-4.2,30.2c-0.4,3.2-0.9,6.2-1.2,9.1c-2.3,17-3.8,28-3.8,28s5.2,4.2,16.5,6.3v-0.1c6.2,1.1,14.2,1.6,24.1,0.3
		c3.3-0.4,6-4,8.3-9.9c1.6-4.2,3-9.6,4.1-16L835.3,662.9z"/>
	<path class="st1" d="M926.4,571.3c-1,2.1-2.2,4-3.8,5.6c-2.8,2.9-7.2,4.7-12.3,5.8c-2.4,0.5-5,0.8-7.7,1.1c0-0.1,0-0.1,0-0.2
		c-2,0.2-4,0.3-6.1,0.3h-0.8c-13.9,0-29.4-2.5-38.6-4.4l0,0.2c0,0,0,0,0,0l0-0.1c0,0,0,0,0,0l-0.3-1.6l-0.6-4.6v0
		c0.1,0,0.1-0.1,0.2-0.1c0,0,0,0,0,0c1.3-1,1.6-3.9,1.2-7c-0.3-2.4-1-4.9-1.8-6.5c-0.5-1-1.1-1.7-1.7-1.8c1.2-0.1,4.3-0.3,8.3-0.9
		c5.4-0.7,12.3-1.8,18.1-3.5c5.8-1.7,10.5-4,11.2-7.1c0.3-1,0-3.8-0.9-7.8c0-0.1,0-0.1,0-0.2l0-0.2c-0.3-1.4-0.6-3-0.9-4.7
		c-4.2-17.9-13.8-49.7-18.7-65.9c-0.1-0.1-0.1-0.1-0.1-0.2c1.5-2.6,2.7-4.8,3.7-6.4c0.5-0.8,0.8-1.5,1.1-1.9
		c0.2-0.4,0.3-0.5,0.3-0.5c8.3,1.3,20.9,4.6,28.1,12.5c4.1,4.4,17.8,34.6,23.1,62.4v0C930.2,548.2,930.8,562.1,926.4,571.3z"/>
	<path class="st1" d="M856.8,578l0.3,1.6c0,0,0,0,0,0L856.8,578l-0.7-4.5c0,0,0.1,0,0.1-0.1L856.8,578z"/>
	<path class="st1" d="M857.5,566.4c-0.3-2.4-0.9-4.9-1.8-6.5c-0.6-1.2-1.3-1.9-2-1.9c0.1,0,0.2,0,0.4,0h0c0.6,0.2,1.2,0.8,1.7,1.8
		c0.8,1.6,1.5,4.1,1.8,6.5c0.4,3,0.1,5.9-1.2,7C857.5,572.1,857.8,569.3,857.5,566.4z"/>
	<path class="st1" d="M890.8,538.3c-0.3-1.4-0.6-2.9-1-4.5c-2.1-9-5.5-21.4-9-33.6c-3.5-12.2-7.2-24.2-9.7-32.3c0-0.1,0-0.1-0.1-0.2
		c0-0.1,0.1-0.1,0.1-0.2c0,0,0,0.1,0.1,0.2c4.9,16.2,14.5,48,18.7,65.9C890.3,535.3,890.6,536.9,890.8,538.3z"/>
	<path class="st1" d="M902.6,583.8L902.6,583.8c-2,0.1-4,0.2-6.1,0.3c-14.2,0.1-30-2.5-39.4-4.4l0-0.2c9.2,1.9,24.7,4.4,38.6,4.4
		h0.8c2.1,0,4.1-0.1,6.1-0.3C902.6,583.7,902.6,583.7,902.6,583.8z"/>
	<path class="st1" d="M832.8,459.5c-0.1,0.2-0.2,0.4-0.3,0.5c0,0,0,0,0,0c-0.1,0.1-0.1,0.2-0.1,0.2l-0.2,2.3l-0.1,1.5l-2.2,28.6v0
		c-0.1,0.3-0.2,0.6-0.2,0.8v0.1c0,0.1,0,0.1,0,0.1c0,0.1,0,0.1,0,0.1c-2.3,7.7-5.6,17.2-8.8,26.5c-0.4-0.1-0.7-0.1-1.1,0
		c-0.8,0.1-2.4,0.2-4.4,0.3c-3.1,0.2-7.1,0.4-10.5,0.6c-1.9,0.1-3.6,0.2-4.8,0.2c-1.2,0.1-2,0.1-2,0.1s-1.6,0-2.5,0.6c0,0,0,0-0.1,0
		c-0.5,0.3-0.8,0.7-0.8,1.4l-14.3,0.6c6.3-18.4,15-36.5,17.3-41.9c2.6-6.1,14.5-13.1,24.5-18.2c0,0,0.1,0,0.1-0.1
		c0.1-0.1,0.3-0.1,0.4-0.2h0.1c-0.2,0.1-0.5,0.3-0.7,0.4c0.3-0.1,0.5-0.3,0.8-0.4c0,0,0,0,0,0c2.3-1.1,4.4-2.1,6.3-3
		c0.7-0.3,1.5-0.6,2.2-0.8c0.2-0.1,0.5-0.2,0.7-0.2C832.2,459.7,832.5,459.6,832.8,459.5z"/>
	<path class="st1" d="M794.9,523.6c0,0,0,0.1,0,0.1l-0.2,0l-14.4,0.6c0,0,0-0.1,0-0.1l14.3-0.6c0-0.7,0.3-1.2,0.8-1.4
		C795.1,522.5,794.8,522.9,794.9,523.6z"/>
	<path class="st1" d="M822,464.2c0.2-0.1,0.5-0.3,0.7-0.4h-0.1c0.2-0.1,0.4-0.2,0.6-0.3c0,0,0.1,0,0.1-0.1c1.1-0.5,2.2-1.1,3.2-1.6
		c0.1,0,0.1-0.1,0.2-0.1c0,0,0.1,0,0.1-0.1c0.9-0.4,1.8-0.8,2.6-1.2c0.2,0,0.4-0.1,0.5-0.2c0,0,0,0,0,0c0.5-0.1,0.9-0.3,1.4-0.4
		c-0.7,0.2-1.4,0.5-2.2,0.8c-1.9,0.9-4,1.9-6.3,3c0,0,0,0,0,0C822.5,463.9,822.3,464.1,822,464.2z"/>
	<path class="st1" d="M829.9,492.7l-0.1,0.7v0l0,0.4c-2.4,7.7-5.6,17.2-8.8,26.5c0,0-0.1,0-0.1,0c3.2-9.3,6.5-18.8,8.8-26.5
		c0,0,0,0,0-0.1c0,0,0,0,0-0.1v-0.1C829.7,493.3,829.8,493,829.9,492.7z"/>
	<path class="st0" d="M857.5,468v10.4c-0.7,3-1.4,6-2,8.7c-1.3,6-2.1,10.5-2.2,11.1c0,0,0.1-0.1,0.2-0.2c0,0.1,0,0.2,0,0.2
		c-0.8,3.2-1.5,6-2.1,8.3c-0.5,2.2-0.9,3.8-1.1,4.5c-0.3,1.2-0.6,3-1,5.2c-0.4,2.2-0.8,4.8-1.2,7.8l-0.5-2.6l-0.4,0l-6.5,0.3
		l-17,0.7h-0.1c-0.1-0.4-0.7-1.8-2.7-2.1c0,0,0,0,0,0c0,0,0.1,0,0.1,0c3.2-9.3,6.4-18.8,8.8-26.5l0-0.4v0c0.7-2.6,4.2-18,6.9-29.1
		c0.4-1.7,0.8-3.3,1.2-4.8c0,0.2-0.1,0.4-0.1,0.7c0,0.3,0,0.6,0,0.9c0,0.2,0,0.5,0,0.8c0,0.3,0.1,0.5,0.1,0.8v0
		c0.1,0.6,0.2,1.1,0.4,1.7c0,0.1,0.1,0.3,0.2,0.4c0.8,1.6,2.2,3.1,4.9,3.6c1.2,0.2,2.5,0.4,3.8,0.5C850.4,469,853.9,468.7,857.5,468
		z"/>
	<path class="st0" d="M848,524c0,0.1,0,0.3,0,0.4l-0.5-2.9l-0.3,0l-6.6,0.3l-17,0.7c0,0,0,0,0-0.1h0.1l17-0.7l6.5-0.3l0.4,0L848,524
		z"/>
	<path class="st0" d="M838.1,458.5c0,0.2-0.1,0.6-0.2,1v0c-0.4,1.5-0.8,3.1-1.2,4.8c-2.7,11.1-6.2,26.5-6.9,29.1v0l0,0.4
		c-2.4,7.7-5.6,17.2-8.8,26.5c0,0-0.1,0-0.1,0c3.2-9.3,6.5-18.8,8.8-26.5c0,0,0,0,0-0.1c0,0,0,0,0-0.1v-0.1c0-0.2,0.1-0.5,0.2-0.8v0
		c0.9-4,4.2-18.1,6.7-28.4C837.1,462.1,837.6,460.2,838.1,458.5z"/>
	<path class="st0" d="M860.5,467.2c-1,3.6-2,7.5-2.9,11.2c0,0.1-0.1,0.3-0.1,0.4c-2.1,9.1-3.7,17.4-4,19.1c0,0,0,0,0,0
		c-0.1,0.1-0.1,0.2-0.2,0.2c0.1-0.5,1-5.1,2.2-11.1c0.6-2.7,1.2-5.7,2-8.7V468c-3.6,0.8-7.1,1-10.3,0.8c-1.3-0.1-2.6-0.3-3.8-0.5
		c-2.7-0.5-4.1-2-4.9-3.6c-0.1-0.1-0.1-0.3-0.2-0.4c-0.2-0.5-0.3-1.1-0.4-1.7c0.1,0.6,0.2,1.1,0.4,1.7c0,0.1,0.1,0.2,0.1,0.3
		c0.7,1.6,2.2,3.1,4.9,3.6c1.2,0.2,2.5,0.4,3.8,0.5c3.2,0.2,6.8,0,10.3-0.8c0,0,0.1,0,0.1,0c0.9-0.2,1.9-0.4,2.8-0.7
		C860.4,467.2,860.5,467.2,860.5,467.2z"/>
	<path class="st0" d="M866.5,453.1C866.5,453.1,866.5,453.1,866.5,453.1C866.4,453.1,866.4,453.1,866.5,453.1
		c-0.8,0.6-1.4,1.6-2.1,2.9c-1.3,2.7-2.7,6.7-4,11.2c0,0,0,0,0,0c-0.9,0.3-1.9,0.5-2.8,0.7c0,0-0.1,0-0.1,0c-3.5,0.7-7.1,1-10.3,0.8
		c-1.3-0.1-2.6-0.2-3.8-0.5c-2.7-0.5-4.2-2-4.9-3.6c0-0.1-0.1-0.2-0.1-0.3c-0.2-0.5-0.3-1.1-0.4-1.7v0c0-0.3-0.1-0.5-0.1-0.8
		c0-0.3,0-0.5,0-0.8c0-0.3,0-0.6,0-0.9c0-0.3,0-0.5,0.1-0.8v0c0.1-0.4,0.2-0.7,0.3-1.1c0.1-0.1,0.1-0.1,0.1-0.2v-0.2
		c0-0.1,0-0.2,0-0.3c0-0.1,0-0.1,0.1-0.2v0c0,0,0-0.1,0-0.1c0-0.1,0-0.2,0.1-0.3c0,0,0,0,0,0c0,0,0,0,0,0c0.2-1,0.3-1.6,0.3-2.1
		c0,0,0-0.1,0-0.1c0-0.3,0.1-0.7,0.1-1.1c0,0-0.1,0-0.1,0c0.1-1,0.2-2.2,0.3-3.4c0-0.5,0.1-0.9,0.1-1.5v-1.6c0.3,0,0.7,0.1,1,0.1
		c1.9,0.2,4.4,0.4,7.1,0.4c3.5,0,7.3-0.4,10.8-1.6c0,0,0,0,0.1,0c1.2-0.4,2.5-0.9,3.6-1.6c0,0,0,0,0,0c0.2-0.1,0.3-0.2,0.5-0.3
		c0,0,0,0,0,0l0,0c0.6-0.4,1.3-0.8,1.8-1.2v0C864.6,445.5,865.3,449,866.5,453.1z"/>
	<path class="st0" d="M838.9,453.7c0,0.4,0,0.8-0.1,1.1c0,0,0,0.1,0,0.1c0,0.5-0.1,1.1-0.3,2.1c0,0,0,0,0,0c0,0,0,0,0,0
		c0,0.1,0,0.2-0.1,0.3c0,0,0,0.1,0,0.1v0c0,0.1,0,0.2-0.1,0.2c0,0.1,0,0.2,0,0.3v0.2c0,0.1,0,0.1-0.1,0.2c-0.1,0.4-0.2,0.7-0.3,1.1
		c0.1-0.4,0.1-0.8,0.2-1c0-0.1,0-0.2,0.1-0.2c0,0,0,0,0-0.1V458c0-0.1,0.1-0.3,0.1-0.4c0,0,0,0,0,0c0.1-0.3,0.1-0.6,0.2-0.9
		c0-0.1,0-0.1,0-0.2l0-0.2c0-0.3,0.1-0.5,0.1-0.7c0-0.1,0-0.1,0-0.2v-0.1c0-0.2,0-0.4,0-0.6c0-0.4,0-0.7,0-1
		C838.8,453.8,838.8,453.8,838.9,453.7C838.8,453.7,838.9,453.7,838.9,453.7z"/>
	<path class="st0" d="M860.4,467.2c-0.9,0.3-1.9,0.5-2.8,0.7c0,0-0.1,0-0.1,0c-3.6,0.8-7.1,1-10.3,0.8c-1.3-0.1-2.6-0.3-3.8-0.5
		c-2.7-0.5-4.1-2-4.9-3.6c-0.1-0.1-0.1-0.3-0.2-0.4c-0.2-0.5-0.3-1.1-0.4-1.7c0.1,0.6,0.2,1.1,0.4,1.7c0,0.1,0.1,0.2,0.1,0.3
		c0.7,1.6,2.2,3.1,4.9,3.6c1.2,0.2,2.5,0.4,3.8,0.5c3.2,0.2,6.8,0,10.3-0.8c0,0,0.1,0,0.1,0C858.5,467.7,859.5,467.5,860.4,467.2z"
		/>
	<path class="st0" d="M864.1,442.9L864.1,442.9c-0.6,0.5-1.2,0.9-1.8,1.3C862.9,443.8,863.5,443.4,864.1,442.9z"/>
	<path class="st0" d="M866.5,453.1c-0.6,0.6-1.3,1.5-2,2.9c-1.3,2.7-2.7,6.7-4,11.2c0,0-0.1,0-0.1,0c0,0,0,0,0,0
		c1.3-4.5,2.7-8.5,4-11.2C865.1,454.7,865.7,453.7,866.5,453.1C866.4,453.1,866.4,453.1,866.5,453.1z"/>
	<path class="st1" d="M782.5,569.1c-2-0.3-3.7-0.9-4.9-1.8c-6.3-4.6-4.9-17.9-0.7-32.7l1.4,8.9c-2.1,2.8-1.2,15,2.5,15.2
		L782.5,569.1z"/>
	<path class="st0" d="M829.8,493.4l0,0.4L829.8,493.4C829.8,493.5,829.8,493.4,829.8,493.4z"/>
	<path class="st0" d="M838.8,453.7C838.8,453.8,838.8,453.8,838.8,453.7c0,0.4,0,0.7-0.1,1c0,0.2,0,0.4,0,0.6v0.1c0,0,0,0.1,0,0.2
		c0,0.1-0.1,0.3-0.1,0.4c0,0.1,0,0.2,0,0.3l0,0.2c0,0.1,0,0.1,0,0.2c-0.1,0.2-0.1,0.5-0.2,0.9c0,0,0,0,0,0c0,0.1-0.1,0.3-0.1,0.4
		v0.1c0,0.1,0,0.1,0,0.1c-0.1,0-0.1,0.1-0.1,0.2c0,0.2-0.1,0.5-0.2,1v0c0,0,0,0,0,0c0-0.4,0.1-0.7,0.2-1c-0.4,1.7-0.9,3.7-1.5,5.8
		c-2.5,10.3-5.8,24.4-6.7,28.4l2.2-28.6l0.1-1.5l0.2-2.3c0-0.1,0.1-0.2,0.1-0.2c0,0,0,0,0,0c0.1-0.2,0.2-0.3,0.3-0.5
		c0.1-0.2,0.3-0.4,0.4-0.6C834.7,456.8,837.3,454.4,838.8,453.7z"/>
	<path class="st0" d="M833.2,458.9c-0.1,0.2-0.3,0.4-0.4,0.6C832.9,459.3,833,459.1,833.2,458.9z"/>
	<path class="st0" d="M838.1,458.5c0,0.2-0.1,0.6-0.2,1v0c-0.4,1.5-0.8,3.1-1.2,4.8c-2.7,11.1-6.2,26.5-6.9,29.1l0.1-0.7v0
		c0.9-4,4.2-18.1,6.7-28.4C837.1,462.1,837.6,460.2,838.1,458.5z"/>
	<path class="st0" d="M838.3,457.6c0.1-0.3,0.1-0.6,0.2-0.9c0,0.1,0,0.1,0,0.2c0,0,0,0.1,0,0.1c0,0,0,0,0,0c0,0.1-0.1,0.2-0.1,0.3
		c0,0,0,0.1,0,0.1v0C838.4,457.5,838.4,457.6,838.3,457.6c0,0.1,0,0.2,0,0.2v0.3c0,0.1,0,0.1-0.1,0.2c-0.1,0.4-0.2,0.7-0.3,1.1
		c0.1-0.4,0.1-0.8,0.2-1c0-0.1,0-0.2,0.1-0.2c0,0,0,0,0-0.1V458C838.2,457.9,838.3,457.7,838.3,457.6
		C838.3,457.6,838.3,457.6,838.3,457.6z"/>
	<path class="st0" d="M838.9,453.7c0,0,0,0.1,0,0.1c0,0.3-0.1,0.7-0.1,0.9c0-0.4,0-0.7,0-1C838.8,453.8,838.8,453.8,838.9,453.7
		C838.8,453.7,838.9,453.7,838.9,453.7z"/>
	<path class="st0" d="M867.4,431.5C867.4,431.5,867.4,431.5,867.4,431.5c-0.1,0.1-0.1,0.2-0.2,0.2c-0.9,0.8-1.3,2-1.2,3.2v0.9
		c0,0.4,0,0.7,0,1.1c0,3.8-1,5.2-1.3,5.6v0l-0.1,0.1h0c-0.1,0.1-0.3,0.2-0.4,0.3h-0.1c-0.6,0.5-1.2,0.9-1.8,1.3l0,0c0,0,0,0,0,0
		c-0.2,0.1-0.3,0.2-0.5,0.3c0,0,0,0,0,0c-1.1,0.6-2.3,1.1-3.5,1.5c0.1-0.3,0.3-0.5,0.5-0.8c-0.2,0.3-0.4,0.5-0.5,0.8
		c-3.5,1.1-7.4,1.5-10.8,1.5c-2.6,0-5-0.2-6.8-0.4c-0.4,0-0.7-0.1-1-0.1c-1.6-0.2-2.6-0.4-2.6-0.4c-2.5-0.7-3.9-4.7-4.6-10
		c-1-8.4-0.2-20,1.1-26.2c0,0,0,0,0,0c6.7,2.8,15.7-0.2,20.2,3.4c4.5,3.6,1.4,9.5,6.1,12.4c1.2,0.8,2.6,0.4,3.3-0.7
		c0.1-0.1,0.2-0.3,0.3-0.4c0.1-0.1,0.1-0.2,0.2-0.2c1.1-1.4,3.3-2.7,4.9-1.3C869.9,424.9,869.2,429.6,867.4,431.5z"/>
	<path class="st0" d="M858.7,445.2c-0.2,0.3-0.3,0.5-0.5,0.8v0c0,0,0,0-0.1,0C858.3,445.7,858.5,445.4,858.7,445.2z"/>
	<path class="st0" d="M864.2,442.9c0,0-0.1,0.1-0.1,0.1c-0.6,0.5-1.2,0.9-1.8,1.2c0.6-0.4,1.3-0.8,1.8-1.3H864.2z"/>
	<path class="st0" d="M866.4,435.4c0.1,4.7-0.9,6.4-1.4,6.9c-0.1,0.1-0.2,0.2-0.3,0.2v0c0.4-0.5,1.3-1.8,1.3-5.6c0-0.3,0-0.7,0-1.1
		v-0.9c-0.1-1.2,0.3-2.4,1.2-3.2c0.1-0.1,0.1-0.1,0.2-0.2c-0.7,0.8-1,1.9-1,3V435.4z"/>
	<path class="st0" d="M867.7,431.2c-0.1,0.1-0.2,0.2-0.3,0.3c1.8-1.9,2.5-6.5,1-7.9c-1.6-1.5-3.8-0.1-4.9,1.3c0,0,0,0,0-0.1
		c0.9-1.6,3.5-3.7,5.4-2C870.5,424.4,869.6,429.5,867.7,431.2z"/>
	<path class="st1" d="M906,689.7c-4.1,1.4-8.1,2.6-11.9,3.7c-6.7,1.9-13,3.4-19.1,4.4c-3.7,0.6-7.3,1.1-10.9,1.3H849
		c-0.3,0-0.6,0-0.9-0.1c-2.6-0.2-5.1-0.5-7.7-1l-4.9-35.6c0.4-2.1,0.7-4.2,1-6.5c0-0.1,0-0.2,0-0.3c0.1-0.6,0.2-1.2,0.2-1.7h0
		c0.2-1.6,0.4-3.2,0.6-4.8c0.2-1.4,0.3-2.8,0.5-4.3c0.3-2.4,0.5-4.8,0.8-7.3c0.7-7.8,1.2-16.2,1.6-24.9l21.9-1l0-0.1h0.1l-1.3-7.9
		l-0.1-0.6l-0.5-3l-3.3-20.3c9.4,1.9,25.2,4.5,39.4,4.4c2.1-0.1,4.1-0.2,6.1-0.3h0c0.2,4.7,0.4,9.5,0.6,14.2
		c0.6,16.4,1.2,32.7,1.7,46.8c0.1,3.2,0.2,6.2,0.3,9.1C905.9,675,906.3,689.6,906,689.7z"/>
	<path class="st1" d="M862.2,611.6l-21.9,1c0,0,0-0.1,0-0.1v-0.1L862.2,611.6L862.2,611.6z"/>
	<path class="st1" d="M902.6,583.8L902.6,583.8c-2,0.1-4,0.2-6.1,0.3c-14.2,0.1-30-2.5-39.4-4.4l0-0.2c9.2,1.9,24.7,4.4,38.6,4.4
		h0.8c2.1,0,4.1-0.1,6.1-0.3C902.6,583.7,902.6,583.7,902.6,583.8z"/>
	<path class="st0" d="M864.1,699.2c-5.1,0.4-10.1,0.4-15.1,0H864.1z"/>
	<path class="st0" d="M876.1,458.5c0,0-0.1,0.2-0.3,0.5c-0.2,0.4-0.6,1.1-1.1,1.9c-0.9,1.6-2.2,3.9-3.8,6.6
		c-3.3,5.8-7.6,13.3-11.1,19.4c-0.8,1.4-1.5,2.7-2.2,3.9c0,0.1-0.1,0.1-0.1,0.2c-2,3.5-3.5,6.2-4,7c0.3-1.7,1.9-10,4-19.1
		c0-0.1,0.1-0.3,0.1-0.4c0.9-3.8,1.9-7.7,2.9-11.2c1.3-4.5,2.7-8.5,4-11.2c0.7-1.4,1.4-2.3,2-2.9c0.4,0.1,2,0.4,3.8,1.1
		C872.3,455.1,874.7,456.4,876.1,458.5z"/>
	<path class="st0" d="M866.5,453.1c-0.6,0.6-1.3,1.5-2,2.9c-1.3,2.7-2.7,6.7-4,11.2c-1,3.6-2,7.5-2.9,11.2c0,0.1-0.1,0.3-0.1,0.4
		c-2.1,9.1-3.7,17.4-4,19.1c0,0,0,0,0,0c-0.1,0.1-0.1,0.2-0.2,0.2c0.1-0.5,1-5.1,2.2-11.1c0.6-2.7,1.2-5.7,2-8.7
		c0-0.1,0.1-0.3,0.1-0.4c0.9-3.6,1.8-7.3,2.8-10.8c0,0,0,0,0,0c1.3-4.5,2.7-8.5,4-11.2C865.1,454.7,865.7,453.7,866.5,453.1
		C866.4,453.1,866.4,453.1,866.5,453.1z"/>
	<path class="st1" d="M891.8,545.3c0,0.4,0,0.8-0.1,1c-1.6,6.1-18.6,9.3-29.4,10.7c-2.2,0.3-4.2,0.5-5.7,0.7
		c-1.3,0.1-2.3,0.2-2.8,0.2h-0.1c0,0,0,0,0,0c0,0-0.1,0-0.2,0l0-0.1c0,0,0,0,0,0l-3.1-19.4l-0.1-0.6l-2.2-13.5
		c0.4-3.2,0.8-5.9,1.2-8.1c0.4-2.3,0.7-4,1-5.2c0.2-0.7,0.5-2.3,1.1-4.5c0.5-2.2,1.2-5.1,2.1-8.3c0.1-0.2,0.8-1.4,2-3.4
		c0.6-1,1.2-2.2,2-3.5c0-0.1,0.1-0.1,0.1-0.2c0.7-1.3,1.6-2.7,2.4-4.2c3.5-6.2,7.8-13.7,11.1-19.4c0,0,0,0,0,0
		c0,0.1-0.1,0.1-0.1,0.2c0.1,0.1,0.1,0.1,0.1,0.2c2.5,8,6.1,20,9.7,32.3c3.5,12.2,7,24.7,9,33.6c0.4,1.6,0.8,3.1,1,4.5l0,0.2
		c0,0.1,0,0.1,0,0.2C891.5,541.6,891.8,543.9,891.8,545.3z"/>
	<path class="st1" d="M853.5,557.8C853.5,557.8,853.5,557.8,853.5,557.8l-3.1-19.4l-0.1-0.6l-2.2-13.4c0,0,0,0,0-0.1l2.2,13.5
		l0.1,0.6L853.5,557.8z"/>
	<path class="st1" d="M853.7,557.9h-0.2v0C853.6,557.9,853.7,557.9,853.7,557.9z"/>
	<path class="st1" d="M890.8,538.3c-0.3-1.4-0.6-2.9-1-4.5c-2.1-9-5.5-21.4-9-33.6c-3.5-12.2-7.2-24.2-9.7-32.3c0-0.1,0-0.1-0.1-0.2
		c0-0.1,0.1-0.1,0.1-0.2c0,0,0,0.1,0.1,0.2c4.9,16.2,14.5,48,18.7,65.9C890.3,535.3,890.6,536.9,890.8,538.3z"/>
	<path class="st0" d="M856.8,578l0.3,1.6c0,0,0,0,0,0c0,0,0,0-0.1,0c-2.5-0.5-4.5-0.9-6-1.3c-1.4-0.3-2.2-0.5-2.2-0.5l0,0l1.3-5.2
		c-0.1,0-0.1,0-0.2-0.1c-0.6-0.2-1.2-0.5-1.8-0.8c-0.3-0.2-0.7-0.3-1-0.5c-0.3-0.1-0.6-0.3-0.9-0.5c-0.2-0.1-0.5-0.3-0.7-0.4
		c-0.9-0.6-1.8-1.2-2.6-1.8c-0.6-0.5-1.1-1-1.6-1.5c-1.1-1.2-1.9-2.5-2.3-3.8c-0.3-1-0.3-2-0.1-3c0.2-0.8,1.1-1.3,2.4-1.7
		c0.8-0.2,1.8-0.4,2.8-0.5c3.8-0.4,8.4-0.2,9.4-0.1c0.1,0,0.2,0,0.2,0c0,0,0,0,0,0h0.1c0.1,0,0.2,0,0.3,0.1h0
		c0.6,0.2,1.2,0.8,1.7,1.8c0.8,1.6,1.5,4.1,1.8,6.5c0.4,3,0.1,5.9-1.2,7c0,0,0,0,0,0c0,0-0.1,0.1-0.2,0.1v0L856.8,578z"/>
	<path class="st0" d="M862.2,611.5l-21.9,0.9v0.1h-0.1l-7.7,0.3l-3.9,0.2l-24.6,1h-1.1l-11.5,0.5l-1.3,0.1l-1.8-10.8h-0.1l0-0.1
		l-5.6-34.7l-1.7-10.3h0.3c1-0.1,2.5-0.8,4-1.7h0c0.5-0.3,1-0.7,1.6-1.1c0.5-0.3,0.9-0.7,1.4-1.1c0.2-0.2,0.5-0.4,0.7-0.6
		c0.2-0.2,0.5-0.4,0.7-0.6c0.6-0.6,1.2-1.2,1.8-1.9c0.2-0.3,0.5-0.5,0.7-0.8c0.2-0.3,0.4-0.6,0.6-0.8c0.1-0.2,0.2-0.3,0.3-0.5
		c0.1-0.1,0.2-0.3,0.3-0.5c0.1-0.1,0.2-0.3,0.2-0.4c0.1-0.2,0.2-0.4,0.3-0.6c0.1-0.1,0.1-0.2,0.1-0.3c0.1-0.3,0.2-0.6,0.3-0.8
		c0-0.1,0.1-0.2,0.1-0.3c0,0,0-0.1,0-0.1c0.1-0.3,0.2-0.6,0.2-0.8c0-0.1,0-0.3,0.1-0.4c0-0.2,0-0.3,0-0.4c0-0.4,0-0.8,0-1.2
		c0-0.2,0-0.3-0.1-0.5c0-0.1,0-0.1,0-0.2c0-0.1,0-0.2-0.1-0.4c0-0.1-0.1-0.3-0.1-0.4c0-0.1,0-0.1-0.1-0.2c0-0.1-0.1-0.3-0.2-0.4
		c-1.5-3-14.9,1.2-14.9,1.2c-0.3,0-0.6,0.2-0.9,0.5l-1.4-8.9l-1.6-10l4.8-0.2l0.1,0c0,0,0,0.1,0,0.1l14.4-0.6c0,0,0,0.1,0,0.1
		l9.7-0.4l1.6-0.1l8.9-0.4l5.2-0.2l3.5-0.1c0,0,0-0.1-0.1-0.2h0c0,0.1,0,0.1,0,0.1l17-0.7l6.6-0.3l0.3,0l0.5,2.9c0-0.1,0-0.3,0-0.4
		l0,0.3l0,0c0,0,0,0,0,0.1l2.2,13.4l0.1,0.6l3.1,19.4c-0.4,0-5.4-0.4-9.6,0.1c-1,0.1-2,0.3-2.8,0.5c-1.3,0.4-2.3,0.9-2.4,1.7
		c-0.2,1-0.2,2,0.1,3c0.4,1.4,1.2,2.7,2.3,3.8c0.5,0.5,1,1,1.6,1.5c0.9,0.7,1.8,1.3,2.8,1.9c0.2,0.1,0.5,0.3,0.7,0.4
		c0.3,0.2,0.6,0.3,0.9,0.5c0.3,0.2,0.7,0.3,1,0.5c0.6,0.3,1.2,0.6,1.8,0.8l-1.3,5.2c0,0,0.1,0,0.2,0l0,0c0,0,0.8,0.2,2.2,0.5
		c1.4,0.3,3.5,0.8,6,1.3l3.3,20.4l0.5,3l0.1,0.6L862.2,611.5z"/>
	<path class="st0" d="M794.7,545.3c0,0.1,0,0.3-0.1,0.4c0,0.3-0.1,0.6-0.2,0.8c0,0,0,0.1,0,0.1c0,0.1-0.1,0.2-0.1,0.3
		c-0.1,0.3-0.2,0.6-0.3,0.8c0,0.1-0.1,0.2-0.1,0.3c-0.1,0.2-0.2,0.4-0.3,0.6c-0.1,0.1-0.2,0.3-0.2,0.4c-0.1,0.1-0.2,0.3-0.3,0.5
		c-0.1,0.2-0.2,0.4-0.3,0.5c-0.2,0.3-0.4,0.6-0.6,0.8c-0.2,0.3-0.4,0.6-0.7,0.8c-0.5,0.7-1.1,1.3-1.8,1.9c-0.2,0.2-0.5,0.4-0.7,0.6
		c-0.2,0.2-0.5,0.4-0.7,0.6c-0.5,0.4-0.9,0.8-1.4,1.1c-0.5,0.4-1.1,0.7-1.6,1.1h0c-1.5,1-3,1.6-4,1.7h-0.3l0-0.1h0.3
		c1-0.1,2.3-0.7,3.8-1.6c3.9-2.3,8.6-6.8,9.6-11.3C794.6,545.6,794.7,545.4,794.7,545.3z"/>
	<polygon class="st0" points="790.1,614.6 790,614.6 788.2,603.8 788.3,603.8 	"/>
	<path class="st0" d="M823.6,522.6l-3.5,0.1l-5.2,0.2l-8.9,0.4l-1.6,0.1l-9.7,0.4c0,0,0-0.1,0-0.1l-14.4,0.6c0,0,0-0.1,0-0.1
		l14.3-0.6h0.2l9.6-0.4l1.6-0.1l8.9-0.4l5.2-0.2l3.3-0.1C823.6,522.5,823.6,522.6,823.6,522.6z"/>
	<path class="st0" d="M848,524c0,0.1,0,0.3,0,0.4l-0.5-2.9l-0.3,0l-6.6,0.3l-17,0.7c0,0,0,0,0-0.1h0.1l17-0.7l6.5-0.3l0.4,0L848,524
		z"/>
	<path class="st0" d="M853.5,557.8C853.5,557.8,853.5,557.8,853.5,557.8l-3.1-19.4l-0.1-0.6l-2.2-13.4c0,0,0,0,0-0.1l2.2,13.5
		l0.1,0.6L853.5,557.8z"/>
	<path class="st0" d="M849.9,572.5L849.9,572.5c-0.6-0.2-1.2-0.5-1.8-0.8C848.7,572,849.3,572.3,849.9,572.5z"/>
	<path class="st0" d="M857,579.6c-2.5-0.5-4.5-0.9-6-1.3c-1.4-0.3-2.2-0.5-2.2-0.5l0,0c0.8,0.2,3.8,0.9,8.1,1.8
		C856.9,579.5,856.9,579.5,857,579.6L857,579.6z"/>
	<polygon class="st0" points="862.2,611.6 840.3,612.5 840.3,612.4 862.2,611.5 	"/>
	<path class="st0" d="M794.7,544.8c0,0.1,0,0.3,0,0.4c0,0.1,0,0.3-0.1,0.4c0,0.3-0.1,0.6-0.2,0.8c0,0,0,0.1,0,0.1
		c0,0.1-0.1,0.2-0.1,0.3c-0.1,0.3-0.2,0.6-0.3,0.8c0,0.1-0.1,0.2-0.1,0.3c-0.1,0.2-0.2,0.4-0.3,0.6c-0.1,0.1-0.2,0.3-0.2,0.4
		c-0.1,0.1-0.2,0.3-0.3,0.5c-0.1,0.2-0.2,0.4-0.3,0.5c-0.2,0.3-0.4,0.6-0.6,0.8c-0.2,0.3-0.4,0.6-0.7,0.8c-0.5,0.7-1.1,1.3-1.8,1.9
		c-0.2,0.2-0.5,0.4-0.7,0.6c-0.2,0.2-0.5,0.4-0.7,0.6c-0.5,0.4-0.9,0.8-1.4,1.1c-0.5,0.4-1.1,0.7-1.6,1.1h0c-1.5,1-3,1.6-4,1.7h-0.3
		c0,0,0,0,0,0c-0.9,0-1.6-0.8-2.2-1.9c-1.8-3.6-2-11.2-0.3-13.3c0.3-0.3,0.5-0.5,0.9-0.6c0,0,13.5-4.2,14.9-1.2
		c0.2,0.5,0.4,1,0.5,1.5c0,0.2,0,0.3,0.1,0.5C794.8,544,794.8,544.4,794.7,544.8z"/>
	<path class="st0" d="M823.6,522.6l-3.5,0.1l-5.2,0.2l-8.9,0.4l-1.6,0.1l-9.7,0.4c0,0,0-0.1,0-0.1c0,0,0-0.1,0-0.1
		c0-0.7,0.3-1.2,0.8-1.4c0,0,0,0,0.1,0c1-0.5,2.3-0.5,2.3-0.5s3-0.1,6.8-0.3c1.7-0.1,3.5-0.2,5.4-0.3c1.8-0.1,3.6-0.2,5.1-0.3
		c2-0.1,3.7-0.2,4.4-0.3h1.2c1.9,0.2,2.6,1.5,2.7,2C823.6,522.5,823.6,522.6,823.6,522.6z"/>
	<path class="st6" d="M471,467.3c0,0.1-2.2-0.5-4.9-1.3c-2.7-0.9-4.8-1.6-4.7-1.8c0-0.1,2.2,0.5,4.9,1.3S471,467.2,471,467.3z"/>
	<path class="st6" d="M479.7,468.2c0,0.1-3.4-1.2-7.5-2.9c-4.1-1.7-7.4-3.2-7.3-3.3c0-0.1,3.4,1.2,7.5,2.9
		C476.5,466.6,479.8,468.1,479.7,468.2z"/>
	<path class="st6" d="M474.1,463.7c-0.1,0.1-1.5-0.5-3.1-1.4s-3-1.7-2.9-1.8c0.1-0.1,1.5,0.5,3.1,1.4S474.2,463.6,474.1,463.7z"/>
	<path class="st6" d="M481.9,462.6c0,0.1-2.8-0.9-6.1-2.2c-3.3-1.4-5.9-2.5-5.9-2.7c0-0.1,2.8,0.9,6.1,2.2
		C479.3,461.3,481.9,462.5,481.9,462.6z"/>
	<path class="st6" d="M476.7,455.5c0,0.1-1.2-0.1-2.7-0.4s-2.6-0.8-2.6-0.9s1.2,0.1,2.7,0.4S476.7,455.3,476.7,455.5z"/>
	<path class="st6" d="M488.9,455.5c0,0.1-3.3-0.9-7.3-2.2c-4-1.3-7.2-2.5-7.1-2.6c0-0.1,3.3,0.9,7.3,2.2S489,455.3,488.9,455.5z"/>
	<path class="st6" d="M481.9,449.8c0,0.1-1.3-0.1-2.9-0.4s-2.8-0.8-2.8-0.9s1.3,0.1,2.9,0.4S482,449.6,481.9,449.8z"/>
	<path class="st6" d="M488.9,447.7c0,0.1-2.6,0-5.7-0.2s-5.7-0.5-5.7-0.6s2.6,0,5.7,0.2C486.4,447.3,488.9,447.6,488.9,447.7z"/>
	<path class="st6" d="M426.7,415.9c0.1,0-0.2,0.5-0.4,1.2c-0.2,0.7-0.4,1.8-0.2,2.9c0.2,1.1,0.6,2.1,1,2.8c0.4,0.6,0.8,1,0.7,1
		c0,0-0.5-0.2-1-0.9c-0.5-0.6-1-1.7-1.2-2.9c-0.2-1.2,0-2.4,0.3-3.1C426.3,416.2,426.6,415.9,426.7,415.9z"/>
	<path class="st6" d="M438.2,405.4c-0.1,0,0.1-0.6,0.2-1.5s0-2.2-0.4-3.6c-0.5-1.3-1.2-2.4-1.8-3.1c-0.6-0.7-1.1-1-1.1-1.1
		c0,0,0.6,0.2,1.3,0.8c0.7,0.6,1.6,1.7,2,3.2c0.5,1.4,0.5,2.8,0.3,3.8C438.6,404.9,438.3,405.4,438.2,405.4z"/>
	<path class="st6" d="M440.1,403.1c-0.1,0,0.1-0.6,0.2-1.6c0-0.9-0.1-2.3-0.8-3.6c-0.7-1.3-1.6-2.2-2.4-2.7s-1.4-0.7-1.3-0.8
		c0,0,0.6,0,1.5,0.5s1.9,1.4,2.6,2.8s0.8,2.8,0.7,3.8C440.5,402.6,440.2,403.2,440.1,403.1z"/>
	<path class="st6" d="M436,439.7c0,0-0.6,0.5-1.9,0.7c-1.2,0.2-3.1,0-4.7-1.2s-2.3-2.9-2.5-4.1c-0.2-1.3,0-2,0.1-2s0,0.8,0.3,1.9
		c0.3,1.2,1,2.7,2.5,3.8c1.5,1.1,3.2,1.3,4.4,1.2C435.3,439.9,436,439.6,436,439.7z"/>
	<path class="st6" d="M430.8,442.7c0,0-0.2,0-0.5-0.1s-0.8-0.2-1.3-0.5c-1.1-0.5-2.4-1.6-3.4-3.2c-0.9-1.6-1.2-3.3-1.2-4.5
		c0-0.6,0.1-1.1,0.2-1.4s0.2-0.5,0.2-0.5c0.1,0-0.1,0.7-0.1,1.9c0,1.2,0.3,2.8,1.2,4.3c0.9,1.5,2.1,2.6,3.1,3.2
		C430.1,442.5,430.8,442.6,430.8,442.7z"/>
	<path class="st6" d="M540.3,455.1c0,0.1-2.1-0.2-5.6,0.1c-0.9,0.1-1.8,0.2-2.8,0.4c-1,0.2-2,0.5-3.1,0.7c-2.2,0.7-4.5,1.6-6.8,2.8
		c-2.3,1.3-4.3,2.7-6,4.2c-0.8,0.8-1.6,1.5-2.3,2.2s-1.3,1.5-1.8,2.1c-2.1,2.7-3,4.7-3.1,4.6c0,0,0.2-0.5,0.7-1.4
		c0.2-0.4,0.5-1,0.9-1.5c0.4-0.6,0.8-1.3,1.3-1.9c0.5-0.7,1.1-1.4,1.8-2.2c0.7-0.8,1.5-1.5,2.3-2.3c1.7-1.5,3.8-3,6.1-4.3
		s4.7-2.2,6.9-2.8c1.1-0.3,2.2-0.6,3.2-0.7c1-0.2,1.9-0.3,2.8-0.3c0.9-0.1,1.6-0.1,2.3-0.1s1.3,0,1.8,0.1
		C539.8,455,540.3,455.1,540.3,455.1z"/>
	<g>
		<g>
			<g>
				<g>
					<path class="st6" d="M332.9,626.9c0,0.1-2.2-0.5-4.9-1.3c-2.7-0.9-4.8-1.6-4.7-1.8c0-0.1,2.2,0.5,4.9,1.3
						S332.9,626.8,332.9,626.9z"/>
				</g>
			</g>
		</g>
		<g>
			<g>
				<g>
					<path class="st6" d="M341.6,627.8c0,0.1-3.4-1.2-7.5-2.9s-7.4-3.2-7.3-3.3c0-0.1,3.4,1.2,7.5,2.9
						C338.4,626.2,341.7,627.7,341.6,627.8z"/>
				</g>
			</g>
		</g>
		<g>
			<g>
				<g>
					<path class="st6" d="M336,623.3c-0.1,0.1-1.5-0.5-3.1-1.4s-3-1.7-2.9-1.8s1.5,0.5,3.1,1.4S336.1,623.2,336,623.3z"/>
				</g>
			</g>
		</g>
		<g>
			<g>
				<g>
					<path class="st6" d="M343.8,622.2c0,0.1-2.8-0.9-6.1-2.2c-3.3-1.4-5.9-2.5-5.9-2.7c0-0.1,2.8,0.9,6.1,2.2
						C341.2,620.9,343.9,622.1,343.8,622.2z"/>
				</g>
			</g>
		</g>
		<g>
			<g>
				<g>
					<path class="st6" d="M338.6,615.1c0,0.1-1.2-0.1-2.7-0.4s-2.6-0.8-2.6-0.9c0-0.1,1.2,0.1,2.7,0.4S338.6,614.9,338.6,615.1z"/>
				</g>
			</g>
		</g>
		<g>
			<g>
				<g>
					<path class="st6" d="M350.9,615.1c0,0.1-3.3-0.9-7.3-2.2s-7.2-2.5-7.1-2.6c0-0.1,3.3,0.9,7.3,2.2
						C347.7,613.8,350.9,615,350.9,615.1z"/>
				</g>
			</g>
		</g>
		<g>
			<g>
				<g>
					<path class="st6" d="M343.8,609.4c0,0.1-1.3-0.1-2.9-0.4s-2.8-0.8-2.8-0.9c0-0.1,1.3,0.1,2.9,0.4S343.9,609.3,343.8,609.4z"/>
				</g>
			</g>
		</g>
		<g>
			<g>
				<g>
					<path class="st6" d="M350.8,607.3c0,0.1-2.6,0-5.7-0.2s-5.7-0.5-5.7-0.6s2.6,0,5.7,0.2C348.3,606.9,350.9,607.2,350.8,607.3z"
						/>
				</g>
			</g>
		</g>
	</g>
	<g>
		<g>
			<g>
				<g>
					<path class="st6" d="M286.9,577.1c0.1,0-0.2,0.5-0.4,1.2c-0.2,0.7-0.3,1.8-0.1,2.9c0.2,1.1,0.7,2.1,1.1,2.7
						c0.4,0.6,0.8,1,0.7,1c0,0-0.5-0.2-1-0.8s-1.1-1.6-1.3-2.8c-0.2-1.2,0-2.4,0.3-3.1C286.5,577.4,286.9,577,286.9,577.1z"/>
				</g>
			</g>
		</g>
		<g>
			<g>
				<g>
					<path class="st6" d="M298.1,566.2c-0.1,0,0.1-0.6,0.2-1.5s0-2.2-0.5-3.5s-1.3-2.4-1.9-3c-0.7-0.7-1.2-1-1.1-1
						c0,0,0.6,0.2,1.3,0.8c0.7,0.6,1.6,1.7,2.1,3.1c0.5,1.4,0.6,2.8,0.4,3.7C298.5,565.7,298.2,566.3,298.1,566.2z"/>
				</g>
			</g>
		</g>
		<g>
			<g>
				<g>
					<path class="st6" d="M300,563.9c-0.1,0,0.1-0.6,0.1-1.6c0-0.9-0.2-2.3-0.9-3.5c-0.7-1.3-1.7-2.2-2.5-2.7s-1.4-0.7-1.4-0.7
						s0.6,0,1.5,0.5c0.9,0.4,2,1.4,2.7,2.7c0.7,1.4,0.9,2.8,0.8,3.8C300.3,563.4,300,563.9,300,563.9z"/>
				</g>
			</g>
		</g>
		<g>
			<g>
				<g>
					<path class="st6" d="M296.9,600.6c0,0-0.6,0.5-1.9,0.7c-1.2,0.2-3.1,0.1-4.7-1.1c-1.6-1.1-2.4-2.8-2.7-4.1c-0.2-1.2,0-2,0-2
						c0.1,0,0,0.8,0.3,1.9c0.3,1.1,1.1,2.7,2.6,3.8c1.5,1,3.2,1.2,4.4,1.1C296.2,600.8,296.9,600.5,296.9,600.6z"/>
				</g>
			</g>
		</g>
		<g>
			<g>
				<g>
					<path class="st6" d="M291.8,603.8c0,0-0.2,0-0.5-0.1s-0.8-0.2-1.4-0.5c-1.1-0.5-2.5-1.6-3.5-3.1c-1-1.6-1.3-3.3-1.3-4.5
						c0-0.6,0.1-1.1,0.2-1.4c0.1-0.3,0.2-0.5,0.2-0.5c0.1,0-0.1,0.7,0,1.9c0,1.2,0.4,2.8,1.4,4.3c0.9,1.5,2.2,2.6,3.2,3.1
						C291.1,603.5,291.8,603.7,291.8,603.8z"/>
				</g>
			</g>
		</g>
	</g>
	<polygon class="st7" points="716.1,308.3 718.1,319.9 722.7,300.8 718.6,296.2 	"/>
	<path class="st4" d="M863.8,411.4c-0.1,0-0.9-2.5-3.1-4.7c-2.2-2.3-4.8-2.9-4.8-3s0.6,0,1.6,0.4c1,0.3,2.3,1.1,3.5,2.3
		s1.9,2.4,2.3,3.4C863.7,410.8,863.8,411.4,863.8,411.4z"/>
	<path class="st4" d="M879.9,423.8c-0.1,0-0.3-0.9-1-2.1s-2-2.8-3.9-3.7c-1.9-0.9-3.9-1.1-5.3-0.8c-1.4,0.2-2.2,0.6-2.2,0.5
		c0,0,0.7-0.5,2.2-0.9c1.4-0.3,3.6-0.3,5.7,0.7s3.4,2.7,3.9,4.1C880,422.9,880,423.8,879.9,423.8z"/>
	<path class="st4" d="M879.3,416.6c-0.1,0-0.1-0.5-0.7-1.3c-0.4-0.7-1.3-1.7-2.5-2.3s-2.4-0.8-3.3-0.7c-0.9,0-1.4,0.3-1.5,0.2
		c0,0,0.5-0.4,1.3-0.6c1-0.2,2.4-0.1,3.7,0.6s2.2,1.8,2.6,2.6C879.3,416,879.3,416.6,879.3,416.6z"/>
	<path class="st4" d="M844.9,402.9c0,0-0.6-0.4-1.1-1.3c-0.6-0.9-1-2.4-0.8-4.1c0.1-1.6,0.9-3.1,1.5-3.9c0.8-0.9,1.4-1.1,1.4-1.1
		c0,0.1-0.5,0.5-1,1.4c-0.6,0.9-1.1,2.1-1.3,3.7c-0.1,1.5,0.2,3,0.7,3.9C844.6,402.2,845.1,402.7,844.9,402.9z"/>
	<path class="st4" d="M851.2,406.2c0,0-0.6,0.2-1.6-0.3c-0.9-0.3-2.2-1.4-2.6-3c-0.5-1.6,0-3.1,0.6-3.9c0.6-0.9,1.2-1.2,1.2-1.1
		s-0.5,0.5-0.8,1.3c-0.5,0.8-0.8,2.2-0.5,3.5c0.4,1.4,1.5,2.3,2.3,2.8C850.7,406.1,851.2,406.1,851.2,406.2z"/>
	<path class="st4" d="M864.4,417.8c0,0-0.2,0.4-0.8,0.7s-1.7,0.3-2.6-0.4s-1.1-1.8-1-2.5c0.1-0.8,0.5-1,0.5-1c0.1,0-0.1,0.4-0.1,1
		s0.2,1.5,0.8,2c0.7,0.6,1.5,0.6,2.2,0.5C864.1,417.9,864.3,417.7,864.4,417.8z"/>
	<path class="st4" d="M853.4,388.5c-0.1,0-0.7-0.6-1.8-1.3c-1.2-0.7-2.9-1.5-4.9-1.4c-2.1,0.1-3.8,0.8-4.9,1.6
		c-1.1,0.8-1.7,1.5-1.7,1.3c0,0,0.3-0.8,1.5-1.7c1.1-0.9,2.9-1.8,5.2-1.9c2.3,0,4,0.8,5.2,1.6C853,387.8,853.4,388.5,853.4,388.5z"
		/>
	<path class="st4" d="M856.8,386.3c-0.1,0.1-2-1.9-5.1-2.9c-3.2-1-5.8-0.4-5.9-0.6c0-0.1,0.6-0.3,1.7-0.5c1.1-0.2,2.6,0,4.3,0.4
		c1.7,0.5,2.9,1.4,3.7,2.1C856.4,385.7,856.8,386.3,856.8,386.3z"/>
	<path class="st4" d="M836.1,405.2c0,0-0.6,0.4-1.9,0.2c-1.1-0.1-2.8-0.9-3.6-2.6s-0.3-3.5,0.3-4.4c0.7-1,1.3-1.3,1.3-1.2
		c0,0.1-0.5,0.5-1.1,1.4c-0.5,0.9-0.9,2.5-0.2,4s2.1,2.3,3.1,2.5C835.4,405.3,836.1,405.1,836.1,405.2z"/>
	<path class="st4" d="M838.2,399.6c-0.1,0,0.2-2.1-1.2-4.3s-3.4-3-3.3-3.1c0,0,0.5,0,1.4,0.4c0.8,0.5,1.7,1.2,2.5,2.4
		c0.7,1.1,1,2.3,1,3.2C838.4,399.1,838.3,399.6,838.2,399.6z"/>
	<path class="st4" d="M828,407.9c-0.7-0.5-1.7-1.3-2.3-2.5c-0.7-1.3-0.8-2.4-0.9-3.3c0-1,0.3-1.4,0.3-1.4c0.2,0-0.1,2.1,1.1,4.4
		c1.2,2.2,3.2,3.1,3.2,3.2C829.3,408.3,828.8,408.1,828,407.9z"/>
	<path class="st4" d="M886.1,407.1c-0.1,0-0.3-2.9-1.9-5.8c-1.6-3-3.9-4.7-3.8-4.8c0.1-0.2,2.6,1.4,4.3,4.5
		C886.5,404.2,886.1,407.2,886.1,407.1z"/>
	<path class="st4" d="M888.8,409.9c-0.1,0,0.2-1.1,0.4-2.9s0.2-4.3-0.5-7s-1.6-4.9-2.6-6.5c-0.9-1.6-1.6-2.4-1.5-2.6
		c0,0,0.3,0.1,0.5,0.6c0.4,0.4,0.8,1,1.3,1.7c0.9,1.6,2.1,3.9,2.7,6.6c0.6,2.7,0.6,5.3,0.3,7.1c-0.1,0.9-0.3,1.6-0.4,2.1
		C888.9,409.7,888.9,409.9,888.8,409.9z"/>
	<path class="st4" d="M883.3,393.8c0,0-0.9,0.3-2.2,0.1c-1.4-0.1-3.4-0.6-5.2-1.8c-1.8-1.2-3.3-2.7-3.9-3.9c-0.7-1.2-1-2.1-0.8-2.1
		c0.1,0,0.4,0.7,1.2,1.9c0.8,1.1,2.1,2.5,3.9,3.7c1.8,1,3.6,1.7,5,1.9C882.4,393.7,883.3,393.7,883.3,393.8z"/>
	<path class="st4" d="M883.5,424.2c-0.1,0,0.2-1,0.4-2.5s0.1-3.8-0.7-6c-0.7-2.2-1.9-4-3.1-5.2c-1.1-1.2-1.8-1.7-1.8-1.8
		c0,0,0.9,0.3,2.1,1.5c1.2,1.1,2.5,2.9,3.2,5.2c0.7,2.3,0.8,4.6,0.5,6.2C883.9,423.3,883.5,424.2,883.5,424.2z"/>
	<path class="st4" d="M887.9,420.4c-0.1,0,0.1-2.9-1-6.1s-3.4-5.2-3.2-5.2c0-0.1,2.5,1.8,3.7,5.1C888.6,417.5,888,420.5,887.9,420.4
		z"/>
	<path class="st4" d="M866.8,384.9c0,0,0.4,0.5,0.4,1.5s-0.1,2.4-1,3.5c-0.8,1.3-1.9,2.1-2.9,2.4c-0.9,0.3-1.5,0.2-1.5,0.2
		c0-0.1,0.6-0.2,1.3-0.6c0.9-0.4,1.8-1.2,2.5-2.2c0.7-1.2,1-2.4,1-3.3C866.9,385.5,866.8,384.9,866.8,384.9z"/>
	<path class="st4" d="M862.1,383.3c0,0,0.4,0.5,0.4,1.5s-0.1,2.4-1,3.5c-0.8,1.3-1.9,2.1-2.9,2.4c-0.9,0.3-1.5,0.2-1.5,0.2
		c0-0.1,0.6-0.2,1.3-0.6c0.9-0.4,1.8-1.2,2.5-2.2c0.7-1.2,1-2.4,1-3.3C862.2,383.9,862.1,383.3,862.1,383.3z"/>
	<path class="st4" d="M857.9,398.7c0,0-0.6,0.2-1.5,0.1c-1-0.2-2.2-0.9-3.2-2c-0.9-1.2-1.4-2.6-1.4-3.4c0-1,0.3-1.5,0.3-1.5
		c0.1,0,0,0.6,0.1,1.5c0.2,0.9,0.6,2.1,1.4,3.2c0.9,1.1,2,1.7,2.8,2C857.3,398.7,857.9,398.6,857.9,398.7z"/>
	<path class="st4" d="M877.4,405.8c0,0-0.5,0.8-1.6,1.4c-1.1,0.7-2.9,1.4-5,1c-2-0.4-3.6-1.6-4.4-2.5c-0.8-1.1-1.1-1.8-1-1.8
		s0.4,0.7,1.3,1.6c0.8,1,2.3,1.9,4.2,2.3c1.9,0.3,3.6-0.2,4.7-0.8C876.8,406.3,877.3,405.7,877.4,405.8z"/>
	<path class="st4" d="M875.6,402.8c0,0-0.2,0.4-1,0.5c-0.6,0.2-1.6,0.2-2.5-0.3s-1.6-1.2-1.8-1.9c-0.3-0.6-0.2-1.1-0.2-1.1
		c0.1,0,0.1,0.4,0.4,0.9c0.3,0.5,0.9,1.1,1.7,1.5s1.7,0.5,2.3,0.4C875.1,402.9,875.5,402.7,875.6,402.8z"/>
	<path class="st4" d="M879.7,403c-0.1,0.1-1-2.7-3.6-5c-2.6-2.4-5.4-2.9-5.4-3c0,0,0.7,0,1.9,0.3c1.1,0.3,2.6,1.1,3.9,2.3
		s2.2,2.5,2.7,3.6C879.7,402.2,879.7,403,879.7,403z"/>
	<path class="st4" d="M868.9,394.1c0,0.1-2.2,0.4-4.3,2.2c-2,1.7-2.7,4-2.8,3.9c-0.1,0,0-0.6,0.3-1.4c0.3-0.9,1-1.9,2.1-2.9
		c1.1-0.9,2.3-1.5,3.2-1.6C868.2,394,868.9,394,868.9,394.1z"/>
	<path class="st4" d="M876.3,426.5c0,0,0.4,0.2,0.8,1c0.3,0.6,0.5,1.9,0,2.9s-1.4,1.7-2.2,1.9c-0.7,0.2-1.2,0.1-1.2,0.1
		c0-0.1,0.5-0.1,1.1-0.4s1.3-0.8,1.8-1.7c0.5-0.9,0.3-1.9,0.1-2.5C876.5,427,876.2,426.6,876.3,426.5z"/>
	<path class="st4" d="M879.7,428.1c0.1,0,0.3,0.5,0.2,1.5c-0.1,0.9-0.3,2.1-1,3.4s-1.7,2.1-2.5,2.6c-0.7,0.5-1.3,0.6-1.3,0.6
		c-0.1-0.1,2.1-1.1,3.3-3.4C879.8,430.3,879.5,428.1,879.7,428.1z"/>
</g>
</svg>
