<svg width="817" height="817" viewBox="0 0 817 817" fill="none" xmlns="http://www.w3.org/2000/svg">
<path d="M178.436 441.129H136.706V385.047L178.436 441.129Z" fill="white" stroke="black" stroke-width="2" stroke-miterlimit="10"/>
<path d="M199.632 467.402L199.521 467.513H202.171V467.402H199.632ZM211.554 618.755C210.119 618.093 208.463 617.651 206.807 617.651C205.262 617.651 203.937 617.983 202.612 618.535V467.513H202.06V618.755C198.528 620.522 196.099 624.165 196.099 628.36C196.099 629.685 196.32 630.899 196.761 632.003C196.872 632.224 196.872 632.334 196.982 632.444V632.555C197.092 632.886 197.203 633.107 197.424 633.438C197.644 633.88 197.976 634.321 198.307 634.763C198.417 634.873 198.528 634.984 198.638 635.204C198.969 635.646 199.3 635.977 199.742 636.308C199.852 636.419 199.963 636.529 200.183 636.64C200.294 636.75 200.404 636.86 200.625 636.971C200.846 637.191 201.177 637.412 201.508 637.523C201.619 637.633 201.839 637.743 201.95 637.743C202.06 637.854 202.281 637.854 202.391 637.964C202.502 638.075 202.723 638.075 202.833 638.185C202.943 638.295 203.164 638.295 203.275 638.406C203.385 638.406 203.385 638.406 203.495 638.516C203.716 638.627 204.047 638.737 204.268 638.737C204.489 638.737 204.599 638.847 204.82 638.847C205.041 638.847 205.151 638.958 205.372 638.958C205.593 638.958 205.924 639.068 206.145 639.068C206.366 639.068 206.697 639.068 206.918 639.068C212.879 639.068 217.626 634.211 217.626 628.36C217.516 624.165 215.087 620.522 211.554 618.755ZM211.554 584.974V595.02H248.868V584.974H211.554ZM234.627 427.108C233.744 425.893 233.192 424.569 232.64 423.133C226.016 412.204 233.413 396.197 242.134 383.391C239.926 378.754 234.627 369.591 225.464 365.727C224.802 366.059 223.808 366.5 222.373 366.611C218.068 367.163 187.819 373.345 179.65 348.285C176.228 337.687 183.845 327.199 192.677 319.251L118.601 317.595H118.159L116.945 318.919L118.049 318.036L209.457 441.018H248.868V435.056C242.134 433.069 236.835 430.42 234.627 427.108ZM226.679 364.071C226.679 364.071 226.679 364.292 226.458 364.623C228.997 364.623 231.426 363.851 233.634 362.636C229.659 363.74 226.679 364.071 226.679 364.071ZM197.976 467.513L198.307 467.954L198.748 467.623L198.969 467.402L197.976 467.513Z" fill="white" stroke="black" stroke-width="2" stroke-miterlimit="10"/>
<path d="M248.978 595.021V639.179H206.917C212.879 639.179 217.626 634.322 217.626 628.471C217.626 624.276 215.197 620.522 211.665 618.867V595.131L248.978 595.021Z" fill="white" stroke="black" stroke-width="2" stroke-miterlimit="10"/>
<path d="M248.868 467.514H211.554V584.975H248.868V467.514Z" fill="white" stroke="black" stroke-width="2" stroke-miterlimit="10"/>
<path d="M233.634 362.637C231.426 363.852 228.998 364.514 226.458 364.624C226.679 364.293 226.679 364.072 226.679 364.072C226.679 364.072 229.66 363.741 233.634 362.637Z" fill="white" stroke="black" stroke-width="2" stroke-miterlimit="10"/>
<path d="M271.169 439.803C271.169 440.245 271.169 440.686 271.058 441.128H209.347L117.939 318.147L116.835 319.03L118.049 317.705H118.491L192.567 319.361C183.735 327.31 176.118 337.797 179.54 348.395C187.709 373.455 217.847 367.273 222.263 366.721C223.698 366.5 224.692 366.169 225.354 365.838C234.628 369.702 239.927 378.754 242.024 383.501C233.303 396.307 225.906 412.315 232.53 423.244C233.082 424.569 233.744 425.893 234.517 427.218C236.725 430.53 242.135 433.179 248.869 435.277C255.713 437.264 263.883 438.81 271.169 439.803Z" fill="white" stroke="black" stroke-width="2" stroke-miterlimit="10"/>
<path d="M287.066 352.591C271.61 354.136 261.785 360.319 259.687 361.754C256.927 359.435 253.174 356.123 249.862 353.253C249.531 353.695 249.2 354.136 248.869 354.578V345.857C249.973 343.759 250.635 342.434 250.635 342.434C252.732 336.804 238.05 325.985 227.341 320.024L265.649 320.797L287.066 352.591Z" fill="white" stroke="black" stroke-width="2" stroke-miterlimit="10"/>
<path d="M199.079 467.514L198.748 467.624L198.306 467.955L197.975 467.514H199.079Z" fill="white" stroke="black" stroke-width="2" stroke-miterlimit="10"/>
<path d="M270.837 449.96C270.616 456.363 270.506 462.435 270.616 467.513H202.833V467.403H199.742L199.631 467.513H198.859L198.748 467.403H115.62C111.977 467.403 108.665 465.967 106.347 463.539C103.918 461.11 102.483 457.908 102.483 454.265C102.483 447.973 106.899 442.784 112.75 441.459C113.523 441.349 114.295 441.239 115.178 441.239H178.767L137.037 385.157L124.231 367.936V366.942L108.003 345.084C102.924 338.349 104.36 328.745 111.204 323.667L117.718 318.809L118.38 318.147L209.788 441.128H271.499C271.058 444.109 270.837 447.09 270.837 449.96Z" fill="white" stroke="black" stroke-width="2" stroke-miterlimit="10"/>
<path d="M107.119 345.194C102.041 338.459 103.476 328.855 110.321 323.777L116.834 318.919L117.938 318.036L117.276 318.699L110.762 323.556C103.918 328.634 102.593 338.239 107.561 344.973L123.789 366.831V367.604L123.237 366.942L107.119 345.194Z" fill="white" stroke="black" stroke-width="2" stroke-miterlimit="10"/>
<path d="M198.528 467.403L114.848 467.513C111.205 467.513 107.893 466.078 105.574 463.65C103.146 461.221 101.71 458.019 101.71 454.376C101.71 447.973 106.347 442.564 112.419 441.46C106.568 442.785 102.152 447.973 102.152 454.266C102.152 457.909 103.587 461.221 106.016 463.539C108.445 465.968 111.646 467.403 115.289 467.403H198.528Z" fill="white" stroke="black" stroke-width="2" stroke-miterlimit="10"/>
<path d="M202.613 467.403H202.061V467.514H202.613V467.403Z" fill="white" stroke="black" stroke-width="2" stroke-miterlimit="10"/>
<path d="M202.06 467.403V467.514H199.411L199.631 467.403H202.06Z" fill="white" stroke="black" stroke-width="2" stroke-miterlimit="10"/>
<path d="M678.199 467.513H672.127V461.441C672.127 464.753 674.887 467.513 678.199 467.513Z" fill="white" stroke="black" stroke-width="2" stroke-miterlimit="10"/>
<path d="M689.791 467.513H688.135V467.292C688.466 467.403 689.239 467.513 689.791 467.513Z" fill="white" stroke="black" stroke-width="2" stroke-miterlimit="10"/>
<path d="M211.554 467.514V618.756C210.119 618.094 208.463 617.652 206.807 617.652C205.262 617.652 203.937 617.984 202.612 618.536V467.514H211.554Z" fill="white" stroke="black" stroke-width="2" stroke-miterlimit="10"/>
<path d="M211.555 618.756V628.361H202.061V467.514H202.613V618.536C203.937 617.984 205.372 617.652 206.808 617.652C208.464 617.652 210.119 618.094 211.555 618.756Z" fill="white" stroke="black" stroke-width="2" stroke-miterlimit="10"/>
<path d="M689.791 467.513H688.135V467.292C688.466 467.403 689.239 467.513 689.791 467.513Z" fill="white" stroke="black" stroke-width="2" stroke-miterlimit="10"/>
<path d="M688.134 584.975H378.694V595.021H688.134V584.975Z" fill="white" stroke="black" stroke-width="2" stroke-miterlimit="10"/>
<path d="M202.613 584.975H202.061V595.021H202.613V584.975Z" fill="white" stroke="black" stroke-width="2" stroke-miterlimit="10"/>
<path d="M369.089 584.975H211.554V595.021H369.089V584.975Z" fill="white" stroke="black" stroke-width="2" stroke-miterlimit="10"/>
<path d="M759.671 584.975H697.518V595.021H759.671V584.975Z" fill="white" stroke="black" stroke-width="2" stroke-miterlimit="10"/>
<path d="M217.516 628.471C217.516 634.433 212.659 639.18 206.808 639.18C206.476 639.18 206.256 639.18 206.035 639.18C205.704 639.18 205.483 639.18 205.262 639.069C205.041 639.069 204.931 638.959 204.71 638.959C204.489 638.959 204.379 638.848 204.158 638.848C203.827 638.738 203.606 638.738 203.385 638.628C203.275 638.628 203.275 638.628 203.165 638.517C203.054 638.517 202.833 638.407 202.723 638.296C202.613 638.186 202.392 638.186 202.281 638.076C202.171 637.965 201.95 637.965 201.84 637.855C201.729 637.744 201.509 637.744 201.398 637.634C201.067 637.413 200.846 637.303 200.515 637.082C200.405 636.972 200.184 636.861 200.073 636.751C199.963 636.64 199.853 636.53 199.632 636.42C199.19 636.088 198.859 635.647 198.528 635.316C198.417 635.205 198.307 635.095 198.197 634.874C197.866 634.433 197.645 633.991 197.314 633.549C197.203 633.329 196.982 632.997 196.872 632.666C196.872 632.666 196.872 632.666 196.872 632.556C196.762 632.445 196.762 632.225 196.651 632.114C196.21 631.01 195.989 629.685 195.989 628.471C195.989 624.276 198.417 620.523 201.95 618.867C202.171 618.756 202.281 618.646 202.502 618.646C203.827 618.094 205.262 617.763 206.697 617.763C208.353 617.763 210.009 618.204 211.444 618.867C215.087 620.523 217.516 624.166 217.516 628.471Z" fill="white" stroke="black" stroke-width="2" stroke-miterlimit="10"/>
<path d="M200.957 628.36C200.957 625.048 203.606 622.399 206.918 622.399C210.23 622.399 212.879 625.048 212.879 628.36C212.879 631.672 210.23 634.322 206.918 634.322C203.496 634.432 200.957 631.672 200.957 628.36Z" fill="white" stroke="black" stroke-width="2" stroke-miterlimit="10"/>
<path d="M248.979 382.067C246.55 384.164 244.453 385.82 243.349 386.262C243.349 386.262 243.017 385.158 242.134 383.392C239.926 378.755 234.627 369.592 225.464 365.728C226.127 365.397 226.458 364.955 226.568 364.624C229.107 364.624 231.536 363.851 233.744 362.637C238.712 361.312 245.225 358.884 248.979 354.578C249.31 354.137 249.641 353.695 249.972 353.253C253.284 356.124 257.038 359.436 259.798 361.754C261.453 363.189 262.778 364.293 263.33 364.624C264.986 365.839 255.603 376.105 248.979 382.067Z" fill="white" stroke="black" stroke-width="2" stroke-miterlimit="10"/>
<path d="M318.528 355.902C314.996 358.331 307.489 363.741 299.651 371.137C291.04 379.306 281.987 390.015 277.682 401.606C277.02 403.373 276.468 405.36 275.916 407.457C275.916 407.568 275.805 407.678 275.805 407.899C275.805 408.009 275.695 408.23 275.695 408.341C273.928 415.185 272.714 423.244 271.941 431.524C271.72 434.284 271.5 437.044 271.279 439.804C263.993 438.81 255.823 437.264 248.869 435.167C242.245 433.18 236.725 430.42 234.517 427.108C233.634 425.894 233.082 424.569 232.53 423.134C225.906 412.204 233.303 396.197 242.024 383.391C242.797 385.157 243.238 386.261 243.238 386.261C244.453 385.82 246.44 384.274 248.869 382.066C255.603 376.105 264.986 365.838 263.22 364.624C262.668 364.293 261.454 363.189 259.687 361.753C261.895 360.318 271.721 354.136 287.066 352.591C294.462 351.818 303.183 352.149 312.898 354.578C314.223 354.909 316.1 355.35 318.528 355.902Z" fill="white" stroke="black" stroke-width="2" stroke-miterlimit="10"/>
<path d="M136.706 385.047V441.128H123.458V367.053L124.01 367.826L136.706 385.047Z" fill="white" stroke="black" stroke-width="2" stroke-miterlimit="10"/>
<path d="M233.634 362.637C231.426 363.852 228.998 364.514 226.458 364.624C226.679 364.293 226.679 364.072 226.679 364.072C226.679 364.072 229.66 363.741 233.634 362.637Z" fill="white" stroke="black" stroke-width="2" stroke-miterlimit="10"/>
<path d="M249.862 353.364C249.531 353.805 249.2 354.247 248.869 354.688V352.48C249.31 352.701 249.531 353.032 249.862 353.364Z" fill="white" stroke="black" stroke-width="2" stroke-miterlimit="10"/>
<path d="M249.862 353.364C249.531 353.805 249.2 354.247 248.869 354.688V352.48C249.31 352.701 249.531 353.032 249.862 353.364Z" fill="white" stroke="black" stroke-width="2" stroke-miterlimit="10"/>
<path d="M250.635 342.434C250.635 342.434 249.973 343.759 248.869 345.856V354.578C245.226 358.883 238.712 361.312 233.634 362.636C229.66 363.74 226.679 364.072 226.679 364.072C226.679 364.072 225.686 361.422 223.919 358.993C222.595 357.227 220.718 355.571 218.51 355.461C218.51 355.461 212.659 356.565 211.776 353.142C210.893 349.61 215.088 350.714 215.971 349.058C216.744 347.623 214.867 343.096 211.776 339.895C211.224 339.343 210.672 338.901 210.12 338.46C206.477 335.81 218.951 326.978 223.367 319.803L227.342 319.913C238.05 325.985 252.843 336.804 250.635 342.434Z" fill="white" stroke="black" stroke-width="2" stroke-miterlimit="10"/>
<path d="M227.451 320.024L223.477 319.914C223.808 319.362 224.139 318.81 224.36 318.368C225.243 318.81 226.347 319.472 227.451 320.024Z" fill="white" stroke="black" stroke-width="2" stroke-miterlimit="10"/>
<path d="M233.634 362.637C231.426 363.852 228.998 364.514 226.458 364.624C226.679 364.293 226.679 364.072 226.679 364.072C226.679 364.072 229.66 363.741 233.634 362.637Z" fill="white" stroke="black" stroke-width="2" stroke-miterlimit="10"/>
<path d="M226.678 364.072C226.678 364.072 226.678 364.293 226.458 364.624C226.237 364.955 225.906 365.286 225.354 365.728C224.691 366.059 223.698 366.5 222.263 366.611C217.957 367.163 187.709 373.345 179.539 348.285C176.117 337.687 183.734 327.199 192.566 319.251L192.676 319.141C192.897 318.92 193.008 318.809 193.228 318.589C193.449 318.478 193.56 318.257 193.78 318.147C200.956 311.854 208.684 307.218 211.444 305.562C222.152 298.938 226.789 309.757 224.802 317.153C224.691 317.595 224.581 317.926 224.36 318.368C224.139 318.92 223.808 319.361 223.477 319.913C219.061 327.089 206.586 335.921 210.229 338.57C210.781 339.012 211.333 339.453 211.885 340.005C214.976 343.207 216.964 347.733 216.08 349.168C215.087 350.824 211.002 349.72 211.885 353.253C212.769 356.786 218.62 355.571 218.62 355.571C220.827 355.792 222.704 357.338 224.029 359.104C225.795 361.422 226.678 364.072 226.678 364.072Z" fill="white" stroke="black" stroke-width="2" stroke-miterlimit="10"/>
<path d="M688.135 467.292V467.513H678.42C675.108 467.513 672.348 464.753 672.348 461.441V368.267C672.348 364.955 675.108 362.195 678.42 362.195H689.791C686.479 362.195 683.719 364.955 683.719 368.267V461.441C683.609 464.201 685.596 466.52 688.135 467.292Z" fill="white" stroke="black" stroke-width="2" stroke-miterlimit="10"/>
<path d="M689.791 467.513H688.135V467.292C688.466 467.403 689.239 467.513 689.791 467.513Z" fill="white" stroke="black" stroke-width="2" stroke-miterlimit="10"/>
<path d="M760.886 461.221C760.886 464.643 758.126 467.403 754.703 467.403H689.791C689.239 467.403 688.687 467.292 688.135 467.182C685.595 466.52 683.719 464.091 683.719 461.331V368.157C683.719 364.845 686.479 362.085 689.791 362.085H754.483C757.905 362.085 760.665 364.845 760.665 368.267L760.886 461.221Z" fill="white" stroke="black" stroke-width="2" stroke-miterlimit="10"/>
<path d="M369.311 483.521V584.975H248.869V467.514H270.396C270.396 476.677 270.727 482.859 270.727 482.859C270.727 482.859 318.86 485.95 369.09 483.521C369.311 483.521 369.311 483.521 369.311 483.521Z" fill="white" stroke="black" stroke-width="2" stroke-miterlimit="10"/>
<path d="M472.089 407.237C471.868 409.224 471.648 411.211 471.537 413.198C471.758 413.198 472.089 413.198 472.31 413.309L470.654 433.732L470.433 436.05L469.66 445.324L467.342 473.916L466.569 483.19C430.801 482.086 398.565 481.644 380.24 482.858C379.688 482.858 379.246 482.969 378.804 482.969H378.694C375.603 483.19 372.512 483.3 369.31 483.521H369.2C318.97 485.949 270.837 482.858 270.837 482.858C270.837 482.858 270.506 476.676 270.506 467.513C270.506 462.435 270.506 456.363 270.727 449.96C270.837 447.09 270.947 444.109 271.168 441.129C271.168 440.687 271.168 440.246 271.279 439.804C271.499 437.044 271.72 434.284 271.941 431.524C272.714 423.355 273.928 415.296 275.694 408.341C275.694 408.231 275.805 408.01 275.805 407.899C275.805 407.789 275.915 407.568 275.915 407.458C276.467 405.36 277.019 403.484 277.682 401.607C281.987 390.015 290.929 379.307 299.65 371.138C307.489 363.741 314.995 358.332 318.528 355.903C319.853 355.02 320.515 354.578 320.515 354.578C357.608 355.351 423.404 368.488 475.511 375.001C475.511 375.553 475.401 376.105 475.401 376.657C474.187 386.372 473.193 396.749 472.089 407.237Z" fill="white" stroke="black" stroke-width="2" stroke-miterlimit="10"/>
<path d="M672.128 386.151V483.521C672.128 483.521 664.289 486.17 637.242 488.268C627.859 488.93 600.591 488.047 566.589 486.833C554.224 486.391 541.087 485.839 527.509 485.287C507.306 484.514 486.331 483.742 466.459 483.19L467.232 473.916L469.551 445.324L470.323 436.051L470.544 433.732L472.2 413.309C471.979 413.309 471.648 413.309 471.427 413.199C471.648 411.211 471.869 409.224 471.979 407.237C473.083 396.75 474.077 386.372 475.07 376.547C475.07 375.995 475.181 375.443 475.181 374.891C477.83 375.222 480.59 375.553 483.129 375.885C504.215 378.313 538.107 380.411 571.557 382.067C622.67 384.606 672.128 386.151 672.128 386.151Z" fill="white" stroke="black" stroke-width="2" stroke-miterlimit="10"/>
<path d="M759.561 584.975V464.864" stroke="black" stroke-width="2" stroke-miterlimit="10"/>
<path d="M412.035 347.182C411.703 347.292 411.372 347.402 411.041 347.513C411.041 347.402 411.151 347.402 411.151 347.292C411.372 347.182 411.593 347.182 412.035 347.182Z" fill="white" stroke="black" stroke-width="2" stroke-miterlimit="10"/>
<path d="M428.152 358.883L386.312 361.643C401.657 360.208 416.781 359.104 428.152 358.883Z" fill="white" stroke="black" stroke-width="2" stroke-miterlimit="10"/>
<path d="M428.152 358.883V358.663V358.883Z" fill="white" stroke="black" stroke-width="2" stroke-miterlimit="10"/>
<path d="M428.152 358.883V358.663V358.883Z" fill="white" stroke="black" stroke-width="2" stroke-miterlimit="10"/>
<path d="M428.152 358.883C416.891 359.104 401.657 360.208 386.312 361.643H386.091C386.091 361.643 385.539 361.533 393.708 355.02C397.351 352.149 404.417 349.5 411.151 347.513C411.482 347.402 411.813 347.292 412.144 347.181C412.255 347.181 412.476 347.071 412.586 347.071C413.027 346.961 413.469 346.85 413.911 346.74C417.775 345.636 421.418 344.753 423.846 344.201L424.619 346.85L425.171 348.617L428.152 358.883Z" fill="white" stroke="black" stroke-width="2" stroke-miterlimit="10"/>
<path d="M428.152 358.883L386.312 361.643C401.657 360.208 416.781 359.104 428.152 358.883Z" fill="white" stroke="black" stroke-width="2" stroke-miterlimit="10"/>
<path d="M605.558 240.429C605.338 270.125 581.603 307.108 580.609 307.329C578.843 310.089 576.745 312.849 574.758 315.388C574.537 315.94 574.427 316.602 574.316 317.264C573.544 322.674 572.771 328.083 571.888 334.376C571.556 339.454 571.556 351.818 571.667 368.157C571.667 372.573 571.777 377.32 571.777 382.288C571.888 390.126 571.998 398.626 572.108 407.458C572.108 409.114 572.108 410.77 572.219 412.426C571.225 412.536 570.232 412.647 569.238 412.647C563.056 413.199 556.984 413.64 551.244 413.971C540.314 414.634 530.048 414.965 520.553 415.075C518.014 415.075 515.586 415.075 513.267 415.075H510.949C510.839 415.075 510.728 415.075 510.618 415.075C510.176 415.075 509.735 415.075 509.183 415.075C507.416 415.075 505.76 415.075 504.104 414.965C503.111 414.965 502.117 414.965 501.124 414.965C497.701 414.855 494.5 414.744 491.409 414.634C490.967 414.634 490.526 414.634 490.084 414.634C489.532 414.634 488.98 414.523 488.428 414.523C487.766 414.523 486.993 414.413 486.331 414.413C485.779 414.413 485.227 414.413 484.675 414.303C483.24 414.192 481.804 414.192 480.48 414.082C479.376 413.971 478.382 413.971 477.278 413.861C476.726 413.861 476.064 413.751 475.512 413.751C475.401 413.751 475.291 413.751 475.291 413.751C474.297 413.64 473.304 413.64 472.31 413.53C472.09 413.53 471.758 413.53 471.538 413.419C471.758 411.432 471.979 409.445 472.09 407.458C473.194 396.97 474.187 386.593 475.181 376.768C475.181 376.216 475.291 375.664 475.291 375.112C476.395 364.404 477.499 354.468 478.382 345.526L486.662 342.876L497.039 339.564C502.448 337.798 506.754 333.603 508.631 328.194L531.262 262.287C536.009 249.481 539.652 236.123 539.1 226.519C538.548 217.356 531.593 210.401 523.755 208.193C529.496 207.199 537.665 207.31 545.503 207.751C560.186 208.524 574.868 210.401 574.868 210.401C574.868 210.401 587.895 212.498 593.636 217.908C593.856 218.129 594.077 218.349 594.408 218.681C601.253 224.2 605.669 232.701 605.558 240.429Z" fill="#BEE8FF" stroke="black" stroke-width="2" stroke-miterlimit="10"/>
<path d="M495.162 679.915C491.74 679.143 485.889 683.89 481.363 683.338C476.616 682.675 467.453 680.136 467.453 680.136C467.122 680.247 466.68 680.357 466.349 680.467C466.46 680.357 466.68 680.247 466.901 680.247C467.674 679.915 471.869 677.376 472.09 674.616C472.311 671.967 472.752 667.661 473.194 664.681L494.39 665.233C494.611 670.2 495.162 678.149 495.162 679.915Z" fill="white" stroke="black" stroke-width="2" stroke-miterlimit="10"/>
<path d="M499.247 695.922C499.247 695.922 449.9 700.007 435.99 695.812C430.581 694.156 448.023 686.428 466.46 680.577C466.791 680.467 467.232 680.356 467.564 680.246C467.564 680.246 476.727 682.785 481.474 683.447C486 683.999 491.851 679.252 495.273 680.025C495.383 680.025 495.604 680.136 495.715 680.136C499.358 681.681 499.247 695.922 499.247 695.922Z" fill="white" stroke="black" stroke-width="2" stroke-miterlimit="10"/>
<path d="M574.427 661.48L561.069 661.811L553.783 661.921C553.783 661.59 553.783 661.48 553.783 661.48L560.627 661.369L574.316 661.148C574.316 661.259 574.316 661.369 574.427 661.48Z" fill="white" stroke="black" stroke-width="2" stroke-miterlimit="10"/>
<path d="M579.174 695.923C579.174 695.923 529.606 700.67 515.586 695.812C502.449 691.286 518.788 688.968 545.504 680.688C546.055 680.577 546.607 680.357 547.159 680.136C548.263 679.474 553.231 675.389 553.452 672.739C553.673 670.863 553.673 668.544 553.673 666.447C553.673 664.46 553.673 662.693 553.673 661.921L560.959 661.81L574.317 661.479C574.427 663.577 575.31 678.038 575.421 680.026C577.077 680.798 577.96 684 578.512 687.312C579.174 691.617 579.174 695.923 579.174 695.923Z" fill="white" stroke="black" stroke-width="2" stroke-miterlimit="10"/>
<path d="M554.556 180.705C554.556 180.817 554.556 180.817 554.556 180.705C554.556 180.817 554.556 180.705 554.556 180.705Z" fill="white" stroke="black" stroke-width="2" stroke-miterlimit="10"/>
<path d="M548.704 192.406C548.594 193.731 548.373 194.945 548.263 196.27C548.483 194.945 548.704 193.621 548.704 192.406Z" fill="white" stroke="black" stroke-width="2" stroke-miterlimit="10"/>
<path d="M575.2 210.4C575.2 210.4 560.517 208.524 545.835 207.751L545.945 207.42V207.309C546.387 205.653 547.601 201.127 548.374 196.27C548.595 195.055 548.705 193.731 548.815 192.406C545.393 192.295 542.412 191.523 540.315 189.756C543.958 189.867 548.043 185.892 548.705 185.23V185.12L550.14 182.029L555.66 170.437C554.998 174.19 554.446 177.944 554.556 180.925C554.556 180.925 554.556 180.925 554.446 180.925C554.446 180.925 554.446 180.925 554.556 180.925C554.666 183.243 554.998 185.12 555.991 186.224C557.095 187.548 559.082 188.763 561.18 189.977C562.394 190.64 563.719 191.302 565.044 191.964C569.018 193.841 572.551 195.055 572.551 195.055L575.2 210.4Z" fill="white" stroke="black" stroke-width="2" stroke-miterlimit="10"/>
<path d="M558.088 156.969C557.757 160.281 556.764 164.697 555.991 169.002L555.549 168.561L548.484 183.574C547.38 178.275 545.724 162.158 545.724 162.158L536.451 160.391C537.775 152.222 540.646 144.384 545.282 139.637H545.393C547.821 139.637 550.581 140.63 553.01 141.845C552.9 141.734 558.971 148.137 558.088 156.969Z" fill="white" stroke="black" stroke-width="2" stroke-miterlimit="10"/>
<path d="M554.556 180.705C554.556 180.817 554.556 180.817 554.556 180.705C554.556 180.817 554.556 180.705 554.556 180.705Z" fill="white" stroke="black" stroke-width="2" stroke-miterlimit="10"/>
<path d="M548.705 185.01C548.705 185.01 548.705 185.122 548.705 185.01V185.01Z" fill="white" stroke="black" stroke-width="2" stroke-miterlimit="10"/>
<path d="M581.823 177.724C577.297 181.036 574.979 184.789 573.764 187.99L572.55 194.945C572.55 194.945 568.907 193.621 565.043 191.854C563.718 191.302 562.394 190.64 561.179 189.867C559.082 188.653 557.205 187.328 555.991 186.114C554.997 185.01 554.555 183.133 554.555 180.815C554.445 177.834 554.997 174.191 555.659 170.327C555.77 169.886 555.77 169.444 555.88 169.002C556.653 164.587 557.647 160.281 557.978 156.969C558.971 148.248 552.9 141.735 552.9 141.735C550.36 140.52 547.601 139.637 545.282 139.527H545.172C533.801 139.195 540.425 117.558 553.672 119.987C564.05 121.863 570.673 127.825 572.992 130.474C577.739 130.916 584.142 133.344 590.434 143.722C598.162 156.417 591.538 170.658 581.823 177.724Z" fill="white" stroke="black" stroke-width="2" stroke-miterlimit="10"/>
<path d="M576.856 661.479H574.427C574.427 661.258 574.427 661.258 574.427 661.258L560.738 661.479L553.893 661.589C553.893 661.589 553.893 661.7 553.893 662.031H552.348C552.348 662.031 552.237 661.479 552.017 660.485C551.685 658.719 551.023 655.628 550.14 651.433C548.042 641.387 544.62 625.49 541.087 608.268C539.873 602.417 538.548 596.345 537.334 590.384C530.71 559.142 524.418 529.224 523.866 527.237C523.866 527.348 523.866 527.348 523.866 527.237V527.127C523.866 527.127 523.866 527.127 523.866 527.237C523.866 526.354 522.872 517.191 521.658 504.827C521.879 503.944 522.21 503.171 522.431 502.288C522.651 501.736 522.762 501.184 522.982 500.632C523.093 500.19 523.314 499.749 523.424 499.197C523.866 497.651 524.418 495.995 524.97 494.339C524.97 494.229 525.08 494.118 525.08 493.898C525.301 493.235 525.522 492.573 525.742 491.8C525.742 491.69 525.853 491.579 525.853 491.359C526.074 490.475 526.405 489.703 526.626 488.819C526.626 488.709 526.736 488.488 526.736 488.378C526.957 487.495 527.288 486.722 527.509 485.839V485.728C527.95 484.293 528.392 482.748 528.944 481.313C529.385 479.877 529.827 478.442 530.379 476.897C532.035 471.708 533.801 466.409 535.457 461.22C535.788 460.337 536.009 459.344 536.34 458.461C536.34 458.35 536.34 458.35 536.451 458.24C536.672 457.467 537.003 456.584 537.224 455.811C537.334 455.59 537.334 455.48 537.444 455.259C537.665 454.597 537.886 453.824 538.107 453.162C538.548 451.726 538.99 450.402 539.542 448.966C539.873 448.083 540.094 447.2 540.425 446.317C540.535 445.986 540.646 445.544 540.756 445.213C541.087 444.109 541.529 443.005 541.86 441.901C541.971 441.46 542.191 440.908 542.302 440.466C542.412 440.024 542.633 439.472 542.743 439.031C543.075 438.148 543.406 437.154 543.737 436.271C543.737 436.161 543.847 436.05 543.847 435.94C544.068 435.167 544.399 434.394 544.62 433.621C544.951 432.628 545.282 431.745 545.614 430.751C545.945 429.868 546.166 429.095 546.497 428.212C546.828 427.329 547.159 426.446 547.38 425.452C547.601 424.679 547.932 423.796 548.153 423.023C548.594 421.809 549.036 420.484 549.367 419.27C549.588 418.497 549.919 417.724 550.14 416.952C550.361 416.179 550.692 415.406 550.913 414.744C551.023 414.412 551.134 413.971 551.244 413.64C557.095 413.309 563.056 412.867 569.238 412.315C568.687 417.283 568.245 424.79 567.914 433.511C567.914 434.284 567.803 435.057 567.803 435.829C567.693 438.81 567.583 441.901 567.472 445.103C567.031 458.902 566.81 474.358 566.589 487.715C566.368 507.366 566.258 522.711 566.258 522.711L571.336 590.053L572.661 607.937L576.635 661.037L576.856 661.479Z" fill="white" stroke="black" stroke-width="2" stroke-miterlimit="10"/>
<path d="M574.427 661.48L561.069 661.811L553.783 661.921C553.783 661.59 553.783 661.48 553.783 661.48L560.627 661.369L574.316 661.148C574.316 661.259 574.316 661.369 574.427 661.48Z" fill="white" stroke="black" stroke-width="2" stroke-miterlimit="10"/>
<path d="M551.243 413.861C551.133 414.192 551.023 414.633 550.912 414.965C550.691 415.737 550.36 416.4 550.14 417.172C549.919 417.945 549.588 418.718 549.367 419.491C548.925 420.705 548.484 421.919 548.152 423.244C547.932 424.017 547.6 424.9 547.38 425.673C547.048 426.556 546.717 427.439 546.496 428.433C546.165 429.316 545.944 430.089 545.613 430.972C545.282 431.966 544.951 432.849 544.62 433.842C544.399 434.615 544.068 435.388 543.847 436.161C543.847 436.271 543.737 436.381 543.737 436.492C543.405 437.375 543.074 438.368 542.743 439.252C542.633 439.693 542.412 440.245 542.301 440.687C542.081 441.128 541.97 441.68 541.86 442.122C541.529 443.226 541.087 444.33 540.756 445.434C540.645 445.765 540.535 446.207 540.425 446.538C540.093 447.421 539.873 448.304 539.541 449.187C539.1 450.622 538.658 451.947 538.217 453.382C537.996 454.045 537.775 454.817 537.554 455.48C537.554 455.701 537.444 455.811 537.334 456.032C537.113 456.805 536.782 457.688 536.561 458.461C536.561 458.571 536.561 458.571 536.45 458.681C536.119 459.565 535.898 460.448 535.567 461.441C533.911 466.63 532.145 471.929 530.489 477.118C530.047 478.553 529.495 480.098 529.054 481.533C528.612 482.858 528.171 484.183 527.84 485.397C527.84 485.618 527.729 485.728 527.729 485.949V486.06C527.508 486.943 527.177 487.715 526.956 488.599C526.956 488.709 526.846 488.93 526.846 489.04C526.515 489.923 526.294 490.807 526.073 491.579C526.073 491.69 525.963 491.8 525.963 492.021C525.742 492.683 525.521 493.346 525.3 494.118C525.3 494.229 525.19 494.339 525.19 494.45C524.638 496.106 524.196 497.651 523.644 499.307C523.534 499.749 523.313 500.301 523.203 500.742C523.092 501.294 522.872 501.846 522.651 502.398C522.43 503.281 522.099 504.165 521.878 504.937C515.806 524.588 511.28 539.933 511.17 543.245C510.949 546.998 508.962 564.551 506.643 585.195C506.423 586.962 506.202 588.728 505.981 590.494C505.76 592.04 505.65 593.585 505.429 595.241C504.877 599.547 504.436 604.073 503.884 608.378C502.338 620.853 500.903 633.107 499.688 643.043C499.357 646.024 499.026 648.894 498.695 651.433C497.701 660.044 496.929 665.564 496.929 665.564L494.61 665.453L473.414 664.901L468.336 664.791L467.674 651.433L467.232 643.043L465.466 608.378L464.803 595.241L464.583 590.494L464.362 585.195L462.154 540.043L466.238 490.144L466.79 483.41L467.563 474.137L469.882 445.544L470.654 436.271L470.875 433.953L472.531 413.529C473.525 413.64 474.518 413.64 475.512 413.75C475.622 413.75 475.733 413.75 475.733 413.75C476.284 413.75 476.947 413.861 477.499 413.861C478.492 413.971 479.596 413.971 480.7 414.081C482.025 414.192 483.46 414.302 484.895 414.302C485.447 414.302 485.999 414.413 486.551 414.413C487.214 414.413 487.876 414.523 488.649 414.523C489.201 414.523 489.753 414.523 490.305 414.633C490.746 414.633 491.188 414.633 491.63 414.633C494.721 414.744 498.033 414.854 501.344 414.965C502.338 414.965 503.332 414.965 504.325 414.965C505.981 414.965 507.637 414.964 509.403 415.075C509.845 415.075 510.397 415.075 510.838 415.075C510.949 415.075 511.059 415.075 511.17 415.075H513.488C515.917 415.075 518.345 415.075 520.774 415.075C530.158 414.744 540.425 414.413 551.243 413.861Z" fill="white" stroke="black" stroke-width="2" stroke-miterlimit="10"/>
<path d="M531.372 262.287L508.741 328.193C506.865 333.602 502.559 337.797 497.15 339.564L486.772 342.876L478.493 345.525L475.181 346.519L467.232 349.058L428.814 361.312L428.152 358.994L428.042 358.773L424.951 348.616L424.399 346.85L423.626 344.2L422.743 341.22L467.343 316.601L475.291 312.186L478.382 310.53L479.266 302.912L480.59 291.321V291.1C482.688 275.424 486.993 248.266 493.286 235.019C502.338 215.81 504.767 212.277 512.164 208.855C515.807 207.199 520.002 207.088 523.976 208.192C531.704 210.4 538.659 217.355 539.321 226.518C539.873 236.123 536.12 249.481 531.372 262.287Z" fill="#BEE8FF" stroke="black" stroke-width="2" stroke-miterlimit="10"/>
<path d="M480.59 291.211L479.266 302.803C479.155 302.803 479.155 302.803 479.155 302.803C479.155 302.803 479.487 298.276 480.59 291.211Z" fill="#E3F0FB" stroke="black" stroke-width="2" stroke-miterlimit="10"/>
<path d="M555.881 169.002C555.77 169.444 555.77 169.885 555.66 170.327L550.14 181.918L548.705 185.01V185.12C548.042 185.782 543.958 189.757 540.315 189.646C540.315 189.646 532.256 185.12 535.568 160.06L536.451 160.281L545.724 162.047C545.724 162.047 547.38 178.165 548.484 183.464L555.549 168.45L555.881 169.002Z" fill="#BEE8FF" stroke="black" stroke-width="2" stroke-miterlimit="10"/>
<path d="M548.705 185.01C548.705 185.01 548.705 185.122 548.705 185.01V185.01Z" fill="white" stroke="black" stroke-width="2" stroke-miterlimit="10"/>
<path d="M480.59 291.101C480.59 291.211 480.59 291.211 480.59 291.321V291.101Z" fill="#E3F0FB" stroke="black" stroke-width="2" stroke-miterlimit="10"/>
<path d="M582.927 180.263C578.18 183.685 575.641 187.77 574.427 191.082L573.212 198.478C573.212 198.478 569.459 197.153 565.264 195.166C563.939 194.504 562.504 193.841 561.179 193.069C558.971 191.854 556.984 190.419 555.77 189.094C554.776 187.88 554.224 185.893 554.224 183.464C554.114 180.373 554.666 176.399 555.328 172.425C555.439 171.983 555.439 171.541 555.549 170.989C556.432 166.353 557.426 161.716 557.757 158.294C558.751 149.021 552.348 142.176 552.348 142.176C549.698 140.962 546.828 139.968 544.289 139.858H544.178C532.145 139.416 539.1 116.564 553.12 119.214C564.05 121.201 571.004 127.604 573.544 130.253C578.511 130.805 585.246 133.344 591.98 144.274C600.039 157.742 593.194 172.756 582.927 180.263Z" fill="white" stroke="white" stroke-width="2" stroke-miterlimit="10"/>
<path d="M558.861 146.923C558.75 146.923 558.309 144.163 556.322 141.513C554.334 138.864 551.685 137.649 551.795 137.539C551.795 137.539 552.458 137.649 553.451 138.312C554.445 138.864 555.659 139.857 556.653 141.293C557.646 142.728 558.309 144.163 558.64 145.267C558.861 146.26 558.861 146.923 558.861 146.923Z" fill="#1D1D1B"/>
<path d="M560.076 139.305C559.965 139.416 558.42 137.428 555.77 136.104C553.121 134.668 550.582 134.668 550.582 134.448C550.582 134.337 553.231 134.227 555.991 135.662C558.64 136.987 560.076 139.195 560.076 139.305Z" fill="#1D1D1B"/>
<path d="M542.633 130.584C542.743 130.584 542.523 131.025 542.412 131.577C542.302 132.24 542.412 133.123 542.854 134.006C543.295 134.889 543.958 135.441 544.51 135.772C545.062 136.104 545.503 136.103 545.503 136.214C545.503 136.214 545.062 136.324 544.399 136.103C543.737 135.883 542.854 135.22 542.412 134.227C541.971 133.233 541.86 132.24 542.081 131.577C542.081 130.805 542.412 130.473 542.633 130.584Z" fill="#1D1D1B"/>
<path d="M545.393 130.253C545.393 130.363 545.172 130.584 545.062 131.026C544.841 131.467 544.731 132.13 545.062 132.792C545.393 133.454 545.945 133.896 546.387 134.006C546.828 134.227 547.159 134.227 547.159 134.227C547.159 134.338 546.828 134.448 546.276 134.338C545.724 134.227 544.952 133.786 544.62 132.902C544.289 132.019 544.51 131.246 544.841 130.694C545.172 130.363 545.393 130.142 545.393 130.253Z" fill="#1D1D1B"/>
<path d="M554.556 123.851C554.556 123.961 553.893 123.409 552.9 122.967C551.906 122.526 550.25 122.195 548.594 122.526C546.938 122.857 545.503 123.851 544.73 124.623C543.958 125.396 543.627 126.059 543.516 126.059C543.516 126.059 543.737 125.286 544.51 124.403C545.282 123.519 546.718 122.415 548.484 122.084C550.361 121.753 552.017 122.195 553.01 122.747C554.004 123.299 554.556 123.851 554.556 123.851Z" fill="#1D1D1B"/>
<path d="M553.452 127.604C553.341 127.714 552.237 126.61 550.581 125.948C548.815 125.285 547.27 125.396 547.27 125.285C547.27 125.175 548.815 124.844 550.692 125.506C552.569 126.168 553.452 127.493 553.452 127.604Z" fill="#1D1D1B"/>
<path d="M558.419 130.032C558.419 130.032 558.088 130.584 557.315 131.136C556.543 131.688 555.218 132.13 553.783 132.24C552.348 132.24 551.023 131.909 550.14 131.357C549.257 130.915 548.925 130.474 548.925 130.363C548.925 130.253 549.477 130.695 550.25 131.026C551.023 131.357 552.348 131.688 553.672 131.688C554.997 131.688 556.211 131.247 557.095 130.805C558.088 130.363 558.419 130.032 558.419 130.032Z" fill="#1D1D1B"/>
<path d="M560.627 135.772C560.517 135.662 561.179 135.22 561.621 134.117C562.173 133.013 562.504 131.357 561.952 129.59C561.4 127.934 560.075 126.72 559.082 126.168C558.088 125.616 557.315 125.506 557.315 125.395C557.315 125.395 558.088 125.285 559.303 125.837C560.407 126.389 561.842 127.603 562.504 129.48C563.056 131.357 562.614 133.233 562.062 134.227C561.179 135.331 560.627 135.772 560.627 135.772Z" fill="#1D1D1B"/>
<path d="M564.712 134.89C564.602 134.89 564.823 134.117 564.823 133.013C564.823 131.909 564.602 130.253 563.94 128.708C563.277 127.162 562.284 125.837 561.4 125.175C560.517 124.402 559.965 124.071 559.965 123.96C559.965 123.96 560.628 124.181 561.621 124.954C562.504 125.727 563.608 126.941 564.381 128.597C565.154 130.253 565.264 131.909 565.154 133.123C565.044 134.227 564.823 134.89 564.712 134.89Z" fill="#1D1D1B"/>
<path d="M563.608 185.23C563.608 185.23 563.167 185.451 562.394 185.23C561.621 185.009 560.628 184.457 559.965 183.353C559.413 182.249 559.524 181.035 559.744 180.262C560.076 179.49 560.407 179.158 560.517 179.269C560.628 179.269 560.296 179.71 560.186 180.373C559.965 181.035 559.965 182.139 560.517 183.133C561.069 184.126 561.952 184.678 562.615 184.899C563.277 185.23 563.608 185.23 563.608 185.23Z" fill="#1D1D1B"/>
<path d="M588.006 162.047C587.895 162.047 588.337 161.164 588.778 159.729C589.22 158.293 589.551 156.306 589.441 153.988C589.33 151.78 588.778 149.793 588.227 148.358C587.675 147.033 587.233 146.15 587.233 146.15C587.233 146.15 587.895 146.812 588.558 148.247C589.22 149.572 589.882 151.67 589.993 153.988C590.103 156.306 589.662 158.404 589.11 159.839C588.668 161.274 588.006 162.047 588.006 162.047Z" fill="#1D1D1B"/>
<path d="M592.311 161.606C592.2 161.606 592.642 158.404 591.98 154.54C591.317 150.677 589.772 147.806 589.993 147.696C589.993 147.696 590.545 148.358 590.986 149.573C591.538 150.787 592.09 152.443 592.421 154.43C592.753 156.417 592.753 158.183 592.642 159.508C592.642 160.833 592.311 161.606 592.311 161.606Z" fill="#1D1D1B"/>
<path d="M584.031 146.15C583.921 146.15 584.031 145.598 583.921 144.935C583.811 144.163 583.369 143.169 582.707 142.286C581.934 141.403 581.051 140.851 580.278 140.63C579.505 140.409 579.063 140.409 579.063 140.299C579.063 140.299 579.615 140.078 580.388 140.299C581.161 140.409 582.265 140.961 583.148 141.955C583.921 142.948 584.363 144.052 584.363 144.935C584.363 145.708 584.252 146.26 584.031 146.15Z" fill="#1D1D1B"/>
<path d="M588.778 145.819C588.668 145.929 587.895 143.169 585.577 140.851C583.258 138.422 580.609 137.65 580.719 137.429C580.719 137.429 581.382 137.539 582.486 137.981C583.479 138.422 584.804 139.305 586.018 140.52C587.233 141.734 588.005 143.059 588.447 144.163C588.668 145.156 588.778 145.819 588.778 145.819Z" fill="#1D1D1B"/>
<path d="M581.603 136.656C581.603 136.766 579.616 136.324 577.408 137.208C575.2 137.98 573.986 139.747 573.875 139.636C573.875 139.636 573.986 139.195 574.538 138.532C575.09 137.98 575.973 137.208 577.187 136.766C578.402 136.324 579.506 136.214 580.278 136.324C581.272 136.435 581.603 136.656 581.603 136.656Z" fill="#1D1D1B"/>
<path d="M581.602 135C581.602 135.11 580.94 134.889 579.836 134.779C578.732 134.669 577.187 134.779 575.531 135.441C573.985 136.104 572.771 137.097 571.998 137.87C571.225 138.753 570.894 139.305 570.894 139.305C570.894 139.305 571.115 138.643 571.777 137.649C572.44 136.766 573.764 135.662 575.42 135C577.076 134.337 578.732 134.337 579.947 134.448C581.05 134.558 581.602 134.889 581.602 135Z" fill="#1D1D1B"/>
<path d="M575.42 133.344C575.42 133.455 574.868 133.455 573.985 133.676C573.102 133.896 571.887 134.448 570.894 135.331C569.79 136.215 569.127 137.319 568.686 138.091C568.244 138.864 568.134 139.526 568.023 139.416C568.023 139.416 568.023 138.754 568.355 137.871C568.686 136.987 569.348 135.773 570.563 134.779C571.667 133.786 572.991 133.344 573.874 133.124C574.758 133.234 575.42 133.344 575.42 133.344Z" fill="#1D1D1B"/>
<path d="M577.187 171.431C577.187 171.321 577.738 171.321 578.511 170.99C579.284 170.769 580.388 170.217 581.382 169.334C582.375 168.45 582.927 167.457 583.258 166.574C583.589 165.801 583.7 165.249 583.81 165.249C583.81 165.249 583.921 165.801 583.589 166.684C583.369 167.567 582.706 168.671 581.713 169.665C580.719 170.658 579.505 171.1 578.622 171.321C577.738 171.542 577.187 171.431 577.187 171.431Z" fill="#1D1D1B"/>
<path d="M576.083 175.074C576.083 174.964 576.856 175.074 578.18 174.853C579.395 174.632 581.051 174.08 582.596 172.866C584.142 171.652 585.135 170.217 585.687 169.113C586.239 168.009 586.35 167.126 586.46 167.236C586.46 167.236 586.46 168.119 586.019 169.333C585.577 170.548 584.583 172.204 582.928 173.418C581.272 174.632 579.505 175.184 578.18 175.405C576.856 175.295 576.083 175.074 576.083 175.074Z" fill="#1D1D1B"/>
<path d="M574.095 181.697C574.095 181.697 574.316 182.47 573.985 183.574C573.654 184.678 572.881 186.224 571.335 187.217C569.79 188.211 568.024 188.321 566.809 188.1C565.595 187.879 565.043 187.438 565.043 187.438C565.043 187.327 565.705 187.659 566.809 187.769C567.913 187.879 569.569 187.769 571.004 186.775C572.439 185.892 573.323 184.457 573.654 183.353C574.095 182.47 573.875 181.697 574.095 181.697Z" fill="#1D1D1B"/>
<path d="M571.888 189.536C571.888 189.536 571.777 189.867 571.336 190.198C570.894 190.529 570.232 190.86 569.459 190.86C568.686 190.971 567.914 190.75 567.472 190.529C567.03 190.308 566.81 190.088 566.81 189.977C566.92 189.867 567.914 190.529 569.349 190.308C570.784 190.198 571.667 189.425 571.888 189.536Z" fill="#1D1D1B"/>
<path d="M577.629 170.547C577.629 170.658 576.966 170.547 576.083 170.879C575.2 171.099 573.875 171.762 572.992 172.976C572.109 174.19 571.888 175.626 571.998 176.509C571.998 177.502 572.33 178.054 572.219 178.054C572.219 178.054 571.778 177.502 571.667 176.509C571.557 175.515 571.667 173.97 572.661 172.645C573.654 171.32 575.09 170.658 576.083 170.547C576.856 170.327 577.629 170.547 577.629 170.547Z" fill="#1D1D1B"/>
<path d="M570.232 173.639C570.342 173.75 569.901 174.081 569.569 174.854C569.128 175.516 568.797 176.62 568.797 177.945C568.797 179.159 569.238 180.263 569.569 181.036C570.011 181.698 570.342 182.14 570.232 182.14C570.232 182.14 569.68 181.919 569.238 181.146C568.686 180.484 568.245 179.269 568.245 177.945C568.245 176.62 568.686 175.405 569.128 174.743C569.68 173.86 570.232 173.639 570.232 173.639Z" fill="#1D1D1B"/>
<path d="M558.972 178.054C558.861 177.944 559.303 177.613 559.745 176.84C560.186 176.067 560.517 174.963 560.517 173.638C560.517 172.314 560.076 171.21 559.524 170.547C559.082 169.885 558.641 169.554 558.641 169.443C558.641 169.443 559.193 169.664 559.745 170.327C560.297 170.989 560.849 172.203 560.959 173.638C560.959 175.074 560.517 176.288 560.076 176.95C559.524 177.833 558.972 178.165 558.972 178.054Z" fill="#1D1D1B"/>
<path d="M560.848 178.386C560.848 178.276 561.4 178.165 562.063 177.724C562.835 177.282 563.608 176.399 564.16 175.185C564.602 173.97 564.712 172.756 564.491 171.873C564.27 170.989 564.05 170.548 564.05 170.548C564.05 170.548 564.491 170.989 564.822 171.873C565.154 172.756 565.154 174.081 564.602 175.405C564.05 176.73 563.056 177.724 562.283 178.055C561.4 178.386 560.848 178.386 560.848 178.386Z" fill="#1D1D1B"/>
<path d="M567.251 183.796C567.251 183.906 566.809 184.016 566.147 183.796C565.485 183.575 564.602 183.023 564.05 182.029C563.608 181.036 563.718 179.932 564.05 179.38C564.381 178.717 564.712 178.497 564.712 178.497C564.822 178.497 564.491 178.828 564.381 179.49C564.16 180.042 564.16 181.036 564.491 181.808C564.933 182.692 565.595 183.133 566.257 183.464C566.92 183.685 567.251 183.685 567.251 183.796Z" fill="#1D1D1B"/>
<path d="M557.536 167.457C557.536 167.347 557.867 167.015 558.419 166.463C558.971 165.801 559.523 164.807 559.965 163.593C560.296 162.379 560.296 161.275 560.296 160.392C560.186 159.619 560.075 159.067 560.075 159.067C560.075 159.067 560.406 159.508 560.627 160.392C560.848 161.275 560.848 162.489 560.517 163.814C560.075 165.139 559.413 166.132 558.751 166.684C558.088 167.236 557.536 167.567 557.536 167.457Z" fill="#1D1D1B"/>
<path d="M559.744 167.567C559.744 167.457 560.186 167.236 560.848 166.574C561.51 166.022 562.173 165.028 562.614 163.814C563.056 162.6 563.166 161.385 563.056 160.502C562.946 159.619 562.835 159.067 562.835 159.067C562.835 159.067 563.166 159.508 563.387 160.392C563.608 161.275 563.608 162.6 563.056 163.924C562.614 165.249 561.731 166.243 561.069 166.795C560.296 167.457 559.744 167.567 559.744 167.567Z" fill="#1D1D1B"/>
<path d="M560.848 168.561C560.848 168.45 561.4 168.45 562.173 168.119C562.946 167.898 563.939 167.236 564.822 166.243C565.595 165.249 566.037 164.145 566.147 163.262C566.258 162.379 566.147 161.937 566.258 161.827C566.258 161.827 566.478 162.379 566.478 163.262C566.478 164.145 566.037 165.47 565.154 166.463C564.27 167.567 563.056 168.119 562.283 168.34C561.4 168.782 560.848 168.671 560.848 168.561Z" fill="#1D1D1B"/>
<path d="M559.744 157.631C559.633 157.521 561.069 155.865 561.179 153.326C561.4 150.786 560.185 148.91 560.296 148.91C560.296 148.91 560.737 149.241 561.069 150.124C561.4 150.897 561.731 152.111 561.621 153.436C561.51 154.761 561.069 155.975 560.627 156.637C560.075 157.3 559.744 157.631 559.744 157.631Z" fill="#1D1D1B"/>
<path d="M584.915 160.943C584.915 161.054 584.473 160.943 583.811 161.164C583.148 161.275 582.265 161.716 581.492 162.489C580.72 163.262 580.388 164.145 580.278 164.807C580.168 165.47 580.278 165.911 580.168 165.911C580.168 165.911 579.947 165.47 579.947 164.697C579.947 163.924 580.388 162.931 581.161 162.047C581.934 161.164 583.038 160.723 583.7 160.723C584.363 160.723 584.915 160.943 584.915 160.943Z" fill="#1D1D1B"/>
<path d="M580.941 160.502C580.941 160.612 580.499 160.723 579.837 161.054C579.174 161.385 578.291 162.048 577.629 163.041C576.966 164.035 576.525 165.028 576.414 165.801C576.304 166.574 576.304 167.015 576.194 167.015C576.194 167.015 575.973 166.574 576.083 165.691C576.083 164.918 576.525 163.703 577.187 162.71C577.96 161.716 578.953 161.054 579.726 160.723C580.278 160.502 580.941 160.502 580.941 160.502Z" fill="#1D1D1B"/>
<path d="M575.751 167.457C575.751 167.567 573.875 167.567 571.887 168.671C569.9 169.665 568.796 171.21 568.686 171.1C568.576 171.1 569.569 169.334 571.667 168.23C573.875 167.126 575.751 167.347 575.751 167.457Z" fill="#1D1D1B"/>
<path d="M577.738 159.177C577.738 159.067 578.18 158.846 578.732 158.073C579.284 157.411 579.836 156.307 579.726 154.982C579.615 153.657 578.953 152.664 578.401 152.001C577.849 151.339 577.297 151.118 577.297 151.118C577.297 151.118 577.849 151.229 578.622 151.781C579.284 152.333 580.167 153.547 580.167 154.982C580.278 156.417 579.615 157.632 578.953 158.294C578.29 158.956 577.738 159.177 577.738 159.177Z" fill="#1D1D1B"/>
<path d="M580.94 157.962C580.83 157.852 581.934 156.416 581.823 154.209C581.713 152.111 580.498 150.676 580.719 150.565C580.719 150.565 581.161 150.786 581.492 151.449C581.934 152.111 582.265 152.994 582.375 154.209C582.375 155.312 582.154 156.306 581.823 156.968C581.271 157.631 580.94 157.962 580.94 157.962Z" fill="#1D1D1B"/>
<path d="M582.375 160.943C582.375 160.832 582.928 160.501 583.59 159.618C584.252 158.735 584.915 157.3 584.915 155.644C584.915 153.988 584.252 152.553 583.59 151.669C582.928 150.786 582.375 150.345 582.375 150.345C582.375 150.345 583.038 150.566 583.811 151.449C584.583 152.332 585.356 153.877 585.356 155.644C585.356 157.41 584.583 158.956 583.811 159.839C583.148 160.722 582.375 160.943 582.375 160.943Z" fill="#1D1D1B"/>
<path d="M580.499 149.131C580.499 149.242 579.947 149.021 578.953 149.021C578.07 149.021 576.745 149.462 575.862 150.566C574.979 151.67 574.868 153.106 574.979 153.989C575.089 154.872 575.531 155.424 575.42 155.424C575.42 155.424 574.868 154.982 574.648 153.989C574.427 152.995 574.427 151.45 575.42 150.235C576.414 149.021 577.96 148.579 578.953 148.69C579.947 148.69 580.499 149.021 580.499 149.131Z" fill="#1D1D1B"/>
<path d="M574.979 147.916C574.979 148.026 574.427 148.137 573.764 148.468C573.102 148.91 572.109 149.682 571.667 150.786C571.225 151.89 571.336 153.105 571.667 153.877C571.888 154.65 572.219 155.092 572.219 155.092C572.219 155.092 571.777 154.761 571.336 153.988C571.005 153.215 570.784 151.89 571.225 150.566C571.777 149.241 572.771 148.468 573.544 148.137C574.427 147.916 574.979 147.916 574.979 147.916Z" fill="#1D1D1B"/>
<path d="M568.023 165.47C568.023 165.359 568.575 165.249 569.348 164.697C570.121 164.145 570.894 163.151 571.225 161.827C571.556 160.502 571.115 159.177 570.673 158.515C570.231 157.742 569.79 157.3 569.79 157.3C569.79 157.3 570.342 157.521 570.894 158.294C571.446 159.067 571.998 160.502 571.667 161.937C571.335 163.482 570.342 164.476 569.459 164.918C568.796 165.47 568.023 165.47 568.023 165.47Z" fill="#1D1D1B"/>
<path d="M571.005 165.58C570.894 165.47 572.55 164.587 573.213 162.71C573.985 160.833 573.434 159.067 573.654 159.067C573.654 159.067 573.985 159.398 574.096 160.171C574.206 160.833 574.206 161.937 573.765 162.931C573.323 163.924 572.661 164.697 572.109 165.139C571.336 165.47 571.115 165.58 571.005 165.58Z" fill="#1D1D1B"/>
<path d="M568.024 148.69C568.024 148.8 567.582 149.021 567.03 149.794C566.478 150.456 565.926 151.56 565.816 152.995C565.705 154.32 566.036 155.534 566.478 156.307C566.92 157.08 567.361 157.411 567.251 157.522C567.251 157.522 566.699 157.301 566.147 156.528C565.595 155.755 565.153 154.431 565.264 152.995C565.374 151.56 566.036 150.346 566.699 149.683C567.472 148.911 568.024 148.69 568.024 148.69Z" fill="#1D1D1B"/>
<path d="M563.388 152.112C563.277 152.112 563.056 150.125 564.16 147.917C565.264 145.709 567.031 144.715 567.031 144.826C567.141 144.936 565.596 146.15 564.602 148.138C563.608 150.125 563.388 152.112 563.388 152.112Z" fill="#1D1D1B"/>
<path d="M571.115 147.696C571.226 147.806 570.011 148.689 569.128 150.345C568.245 152.001 568.245 153.547 568.024 153.437C567.914 153.437 567.693 151.781 568.687 150.014C569.46 148.358 571.005 147.586 571.115 147.696Z" fill="#1D1D1B"/>
<path d="M576.304 148.468C576.193 148.358 577.077 147.033 576.745 145.046C576.525 143.059 575.31 141.955 575.421 141.845C575.421 141.845 575.862 141.955 576.304 142.507C576.745 143.059 577.187 143.942 577.297 144.936C577.408 145.929 577.187 146.923 576.966 147.585C576.635 148.248 576.304 148.468 576.304 148.468Z" fill="#1D1D1B"/>
<path d="M578.291 147.255C578.181 147.144 578.953 146.151 578.843 144.605C578.843 143.059 577.849 142.176 577.96 142.066C577.96 142.066 578.291 142.176 578.622 142.618C578.953 143.059 579.285 143.722 579.285 144.605C579.285 145.488 579.064 146.151 578.843 146.703C578.733 147.144 578.291 147.365 578.291 147.255Z" fill="#1D1D1B"/>
<path d="M566.699 138.533C566.699 138.643 566.478 138.754 566.147 139.085C565.816 139.416 565.485 139.968 565.485 140.741C565.374 141.403 565.595 142.065 565.816 142.507C566.037 142.949 566.368 143.059 566.258 143.169C566.258 143.169 565.926 143.169 565.485 142.728C565.154 142.286 564.822 141.624 564.933 140.741C565.043 139.857 565.485 139.195 565.926 138.864C566.147 138.533 566.699 138.533 566.699 138.533Z" fill="#1D1D1B"/>
<path d="M563.718 138.312C563.718 138.422 563.277 138.532 562.725 139.084C562.173 139.526 561.51 140.409 561.179 141.513C560.848 142.617 560.958 143.721 561.29 144.383C561.51 145.046 561.842 145.487 561.842 145.487C561.842 145.487 561.4 145.266 560.958 144.494C560.627 143.721 560.406 142.617 560.738 141.292C561.069 140.078 561.841 139.084 562.504 138.643C563.277 138.312 563.718 138.312 563.718 138.312Z" fill="#1D1D1B"/>
<path d="M570.232 147.696C570.121 147.585 570.342 147.364 570.563 146.923C570.784 146.481 571.004 145.708 570.894 144.936C570.894 144.163 570.563 143.39 570.342 142.949C570.121 142.507 569.79 142.286 569.9 142.176C569.9 142.176 570.232 142.286 570.673 142.728C571.004 143.169 571.446 143.942 571.446 144.825C571.446 145.708 571.225 146.592 570.894 147.033C570.563 147.475 570.232 147.696 570.232 147.696Z" fill="#1D1D1B"/>
<path d="M572.772 148.027C572.661 147.916 573.434 146.702 573.213 145.046C572.992 143.28 571.999 142.286 572.109 142.176C572.109 142.176 572.44 142.286 572.882 142.838C573.213 143.28 573.655 144.053 573.765 145.046C573.875 145.929 573.655 146.812 573.434 147.364C573.213 147.806 572.772 148.027 572.772 148.027Z" fill="#1D1D1B"/>
<path d="M570.564 131.136C570.564 131.246 569.46 131.136 568.356 131.909C567.252 132.571 566.81 133.565 566.589 133.565C566.479 133.565 566.589 133.234 566.81 132.792C567.031 132.35 567.472 131.909 568.135 131.467C568.797 131.136 569.46 130.915 569.901 131.026C570.343 130.915 570.564 131.026 570.564 131.136Z" fill="#1D1D1B"/>
<path d="M584.362 175.184C584.362 175.184 584.031 175.736 583.369 176.399C582.596 177.061 581.492 177.834 580.057 178.275C578.622 178.717 577.187 178.717 576.193 178.607C575.199 178.496 574.647 178.165 574.647 178.165C574.647 178.055 577.076 178.717 579.836 177.834C582.706 176.951 584.362 175.074 584.362 175.184Z" fill="#1D1D1B"/>
<path d="M585.687 176.62C585.687 176.62 585.577 177.172 585.025 178.055C584.473 178.828 583.479 179.821 582.265 180.483C580.94 181.146 579.615 181.367 578.622 181.367C577.628 181.367 577.076 181.146 577.076 181.146C577.076 181.035 577.628 181.146 578.622 181.035C579.505 180.925 580.83 180.704 582.044 180.042C583.258 179.38 584.252 178.496 584.804 177.834C585.135 177.061 585.466 176.62 585.687 176.62Z" fill="#1D1D1B"/>
<path d="M588.778 175.074C588.668 174.964 589.22 174.633 589.661 173.749C590.213 172.977 590.655 171.652 590.655 170.217C590.655 168.782 590.213 167.457 589.661 166.684C589.109 165.801 588.668 165.47 588.778 165.359C588.778 165.359 589.33 165.691 589.993 166.463C590.655 167.236 591.207 168.671 591.207 170.217C591.207 171.762 590.655 173.198 590.103 173.97C589.33 174.743 588.778 175.074 588.778 175.074Z" fill="#1D1D1B"/>
<path d="M591.538 171.762C591.538 171.651 591.98 171.431 592.421 170.768C592.863 170.106 593.415 169.112 593.305 167.898C593.194 166.684 592.642 165.69 592.09 165.138C591.538 164.586 591.097 164.365 591.097 164.255C591.097 164.255 591.649 164.365 592.311 164.917C592.973 165.469 593.636 166.573 593.746 167.898C593.857 169.223 593.194 170.327 592.642 170.989C592.09 171.651 591.538 171.762 591.538 171.762Z" fill="#1D1D1B"/>
<path d="M579.174 184.126C579.284 184.126 579.395 184.568 579.284 185.451C579.174 186.224 578.843 187.328 578.07 188.322C577.297 189.315 576.414 189.977 575.641 190.309C574.868 190.64 574.427 190.64 574.427 190.64C574.316 190.529 576.304 189.977 577.739 188.101C579.063 186.114 579.063 184.126 579.174 184.126Z" fill="#1D1D1B"/>
<path d="M579.947 132.24C579.837 132.24 579.505 131.798 578.733 131.025C577.96 130.363 576.856 129.48 575.421 128.928C573.986 128.376 572.55 128.155 571.557 128.155C570.563 128.155 569.901 128.266 569.901 128.155C569.901 128.155 570.453 127.824 571.557 127.714C572.661 127.603 574.096 127.714 575.641 128.376C577.187 129.038 578.291 129.921 579.064 130.694C579.616 131.577 579.947 132.24 579.947 132.24Z" fill="#1D1D1B"/>
<path d="M583.811 135.552C583.7 135.552 583.7 135 583.59 134.007C583.48 133.123 583.038 131.799 582.265 130.584C581.492 129.37 580.499 128.487 579.616 128.045C578.843 127.493 578.291 127.383 578.291 127.272C578.291 127.272 578.953 127.272 579.837 127.714C580.72 128.156 581.824 129.039 582.707 130.253C583.59 131.468 583.921 132.903 584.032 133.896C584.032 134.89 583.811 135.552 583.811 135.552Z" fill="#1D1D1B"/>
<path d="M225.575 166.132L210.119 280.281H57L72.6762 166.132H225.575Z" fill="white" stroke="black" stroke-width="2" stroke-miterlimit="10"/>
<path d="M148.187 210.621C147.635 210.621 147.304 210.18 147.414 209.738L147.966 188.763L140.57 209.849C140.459 210.29 140.018 210.621 139.576 210.621H131.186C130.855 210.621 130.524 210.401 130.413 210.069L128.758 205.654L125.666 210.069C125.446 210.401 125.114 210.511 124.783 210.511H119.705C119.263 210.511 118.932 210.29 118.932 209.849L115.731 195.056L107.341 209.959C107.12 210.29 106.789 210.511 106.347 210.511H82.2808C81.7288 210.511 81.3976 210.069 81.508 209.518C81.6184 208.966 82.0599 208.524 82.6119 208.524H106.126L115.51 191.965C115.731 191.633 116.062 191.413 116.504 191.413C116.945 191.413 117.166 191.633 117.276 192.075L120.809 208.524H124.562L128.426 203.004C128.647 202.673 128.978 202.452 129.31 202.563C129.641 202.563 129.972 202.783 130.082 203.115L132.069 208.634H139.135L148.187 182.581C148.298 182.139 148.739 181.808 149.291 181.808C149.733 181.808 150.064 182.139 150.064 182.691L149.512 204.66L153.045 195.939C153.265 195.497 153.597 195.276 154.038 195.276C154.48 195.276 154.811 195.608 154.811 196.049L155.584 208.634H165.519L176.559 184.789C176.78 184.347 177.221 184.126 177.663 184.126C178.105 184.126 178.436 184.458 178.436 184.899L179.429 208.524H182.41L187.709 200.023C187.93 199.692 188.371 199.471 188.703 199.471C189.144 199.471 189.365 199.803 189.475 200.134L190.469 208.524H204.158C204.71 208.524 205.041 208.966 204.931 209.518C204.82 210.069 204.379 210.511 203.827 210.511H189.475C189.034 210.511 188.703 210.18 188.703 209.849L187.93 203.335L183.735 210.069C183.514 210.401 183.183 210.621 182.852 210.621H178.546C178.105 210.621 177.773 210.29 177.773 209.849L176.89 189.094L167.175 209.959C166.955 210.401 166.623 210.621 166.182 210.621H154.811C154.369 210.621 154.038 210.29 154.038 209.849L153.486 200.355L149.512 209.959C149.07 210.29 148.518 210.621 148.187 210.621Z" fill="white" stroke="black" stroke-miterlimit="10"/>
<path d="M142.225 253.566C141.673 253.566 141.342 253.124 141.453 252.683L142.005 231.707L134.608 252.793C134.498 253.235 134.056 253.566 133.614 253.566H125.224C124.893 253.566 124.562 253.345 124.452 253.014L122.796 248.598L119.704 253.014C119.484 253.345 119.153 253.455 118.821 253.455H113.743C113.302 253.455 112.97 253.235 112.97 252.793L109.769 238L101.379 252.903C101.158 253.235 100.827 253.455 100.385 253.455H76.3188C75.7668 253.455 75.4357 253.014 75.5461 252.462C75.6565 251.91 76.098 251.468 76.65 251.468H100.164L109.548 234.909C109.769 234.578 110.1 234.357 110.542 234.357C110.983 234.357 111.204 234.578 111.314 235.019L114.847 251.468H118.601L122.464 245.948C122.685 245.617 123.016 245.397 123.348 245.507C123.679 245.507 124.01 245.728 124.12 246.059L126.107 251.579H133.173L142.225 225.525C142.336 225.084 142.777 224.752 143.329 224.752C143.771 224.752 144.102 225.084 144.102 225.636L143.55 247.604L147.083 238.883C147.304 238.442 147.635 238.221 148.076 238.221C148.518 238.221 148.849 238.552 148.849 238.994L149.622 251.579H159.557L170.597 227.733C170.818 227.292 171.259 227.071 171.701 227.071C172.143 227.071 172.474 227.402 172.474 227.844L173.467 251.468H176.448L181.747 242.968C181.968 242.637 182.409 242.416 182.741 242.416C183.182 242.416 183.403 242.747 183.513 243.078L184.507 251.468H198.196C198.748 251.468 199.079 251.91 198.969 252.462C198.858 253.014 198.417 253.455 197.865 253.455H183.513C183.072 253.455 182.741 253.124 182.741 252.793L181.968 246.28L177.773 253.014C177.552 253.345 177.221 253.566 176.89 253.566H172.584C172.143 253.566 171.811 253.235 171.811 252.793L170.928 232.039L161.213 252.903C160.993 253.345 160.661 253.566 160.22 253.566H148.849C148.407 253.566 148.076 253.235 148.076 252.793L147.524 243.299L143.55 252.903C143.108 253.235 142.777 253.566 142.225 253.566Z" fill="white" stroke="black" stroke-miterlimit="10"/>
<path d="M207.359 639.069H75.436V280.282H193.67V318.148C193.449 318.258 193.339 318.479 193.118 318.589C192.898 318.7 192.787 318.92 192.566 319.141L118.491 317.596L118.38 317.706L117.939 318.258L117.276 318.92L110.763 323.778C103.918 328.856 102.593 338.461 107.561 345.195L123.79 367.053V441.129H115.289C114.295 441.129 113.302 441.239 112.308 441.46C106.457 442.785 102.042 447.973 102.042 454.266C102.042 457.909 103.477 461.221 105.905 463.539C108.334 465.968 111.536 467.403 115.179 467.403H198.307L198.417 467.514L198.528 467.734L198.638 467.955L199.08 467.624L199.19 467.514H202.281V618.756C202.06 618.867 201.95 618.977 201.729 619.087C198.417 620.964 196.209 624.386 196.209 628.471C196.541 634.212 201.508 639.069 207.359 639.069Z" fill="white" stroke="black" stroke-width="2" stroke-miterlimit="10"/>
<path d="M378.695 618.205V627.809H369.201V618.205C370.636 617.542 372.292 617.101 373.948 617.101C375.714 617.101 377.149 617.542 378.695 618.205Z" fill="white" stroke="black" stroke-width="2" stroke-miterlimit="10"/>
<path d="M378.695 482.969V618.204C377.26 617.542 375.714 617.1 373.948 617.1C372.292 617.1 370.636 617.542 369.201 618.204V584.975H369.311V483.521C372.402 483.3 375.604 483.19 378.695 482.969Z" fill="white" stroke="black" stroke-width="2" stroke-miterlimit="10"/>
<path d="M369.311 483.521V584.975H369.201V483.521C369.311 483.521 369.311 483.521 369.311 483.521Z" fill="white" stroke="black" stroke-width="2" stroke-miterlimit="10"/>
<path d="M384.766 627.918C384.766 633.88 379.909 638.627 374.058 638.627C368.097 638.627 363.35 633.769 363.35 627.918C363.35 623.723 365.778 619.97 369.311 618.314C370.746 617.652 372.402 617.21 374.058 617.21C375.714 617.21 377.37 617.652 378.805 618.314C382.227 619.97 384.766 623.613 384.766 627.918Z" fill="white" stroke="black" stroke-width="2" stroke-miterlimit="10"/>
<path d="M367.986 627.808C367.986 624.496 370.635 621.847 373.947 621.847C377.259 621.847 379.909 624.496 379.909 627.808C379.909 631.12 377.259 633.769 373.947 633.769C370.525 633.88 367.986 631.12 367.986 627.808Z" fill="white" stroke="black" stroke-width="2" stroke-miterlimit="10"/>
<path d="M697.519 466.961V618.204C696.083 617.541 694.427 617.1 692.771 617.1C691.115 617.1 689.46 617.541 688.024 618.204V466.961H697.519Z" fill="white" stroke="black" stroke-width="2" stroke-miterlimit="10"/>
<path d="M703.59 627.809C703.59 633.77 698.733 638.517 692.882 638.517C686.92 638.517 682.173 633.66 682.173 627.809C682.173 623.613 684.602 619.86 688.135 618.204C689.57 617.542 691.226 617.1 692.882 617.1C694.538 617.1 696.194 617.542 697.629 618.204C701.272 619.97 703.59 623.613 703.59 627.809Z" fill="white" stroke="black" stroke-width="2" stroke-miterlimit="10"/>
<path d="M686.92 627.808C686.92 624.496 689.57 621.847 692.882 621.847C696.194 621.847 698.843 624.496 698.843 627.808C698.843 631.12 696.194 633.769 692.882 633.769C689.46 633.88 686.92 631.12 686.92 627.808Z" fill="white" stroke="black" stroke-width="2" stroke-miterlimit="10"/>
<path d="M523.865 332.83C523.865 332.83 523.755 333.272 523.534 334.044C523.423 334.486 523.313 334.928 523.092 335.48C522.872 336.032 522.651 336.694 522.32 337.356C521.988 338.019 521.657 338.791 521.105 339.454C520.664 340.227 520.112 340.999 519.56 341.772C518.345 343.318 516.91 344.863 515.144 346.298C513.377 347.734 511.501 348.838 509.734 349.721C508.851 350.162 507.968 350.493 507.195 350.714C506.423 351.045 505.539 351.266 504.877 351.377C504.215 351.597 503.442 351.708 502.89 351.708C502.338 351.818 501.786 351.818 501.344 351.929C500.572 351.929 500.02 352.039 500.02 351.929C500.02 351.818 501.896 351.818 504.656 351.045C505.319 350.825 506.091 350.604 506.974 350.273C507.747 350.052 508.63 349.61 509.514 349.169C511.28 348.286 513.046 347.182 514.813 345.857C516.579 344.422 518.014 342.876 519.228 341.441C519.78 340.668 520.332 339.895 520.774 339.233C521.216 338.571 521.657 337.798 521.988 337.136C523.313 334.596 523.644 332.83 523.865 332.83Z" fill="#1D1D1B"/>
<path d="M296.559 422.031C296.559 422.031 296.449 422.141 296.228 422.362C296.007 422.583 295.676 422.804 295.235 423.245C295.014 423.466 294.793 423.687 294.462 423.908C294.241 424.128 293.91 424.459 293.689 424.791C293.137 425.453 292.364 426.005 291.812 426.888C291.481 427.33 291.15 427.771 290.819 428.213C290.488 428.655 290.267 429.207 289.936 429.758C289.273 430.752 288.721 432.077 288.169 433.291C287.176 435.941 286.403 438.921 286.182 442.123C285.961 445.324 286.293 448.415 286.955 451.065C287.397 452.39 287.617 453.714 288.169 454.818C288.39 455.37 288.611 455.922 288.832 456.474C289.163 457.026 289.384 457.468 289.604 457.91C290.046 458.903 290.708 459.565 291.15 460.338C291.371 460.669 291.592 461.001 291.812 461.332C292.033 461.553 292.254 461.884 292.475 462.105C292.916 462.546 293.137 462.877 293.358 463.098C293.579 463.319 293.689 463.429 293.689 463.429C293.689 463.429 293.579 463.319 293.358 463.098C293.137 462.877 292.806 462.546 292.364 462.105C292.144 461.884 291.923 461.663 291.702 461.442C291.481 461.221 291.26 460.89 290.929 460.559C290.377 459.897 289.825 459.124 289.273 458.241C289.052 457.799 288.721 457.247 288.39 456.806C288.059 456.254 287.948 455.702 287.617 455.15C287.065 454.046 286.734 452.721 286.293 451.396C285.63 448.636 285.299 445.545 285.52 442.233C285.741 438.921 286.513 435.941 287.617 433.291C288.169 431.966 288.721 430.752 289.384 429.758C289.715 429.207 290.046 428.655 290.377 428.213C290.708 427.771 291.04 427.33 291.371 426.888C292.033 426.005 292.696 425.343 293.358 424.791C293.689 424.459 293.91 424.239 294.241 424.018C294.572 423.797 294.793 423.576 295.014 423.466C295.455 423.135 295.897 422.804 296.118 422.693C296.449 422.141 296.559 422.031 296.559 422.031Z" fill="#1D1D1B"/>
<path d="M256.485 387.256C256.485 387.366 254.056 386.704 251.076 385.82C248.095 384.937 245.777 384.054 245.887 383.833C245.887 383.723 248.316 384.385 251.297 385.268C254.277 386.152 256.485 387.145 256.485 387.256Z" fill="#1D1D1B"/>
<path d="M266.09 388.248C266.09 388.359 262.336 386.924 257.81 385.047C253.284 383.17 249.641 381.514 249.751 381.404C249.751 381.294 253.504 382.729 258.031 384.605C262.557 386.482 266.31 388.138 266.09 388.248Z" fill="#1D1D1B"/>
<path d="M260.018 383.281C259.908 383.391 258.362 382.729 256.596 381.735C254.719 380.742 253.284 379.859 253.394 379.748C253.505 379.638 255.05 380.3 256.816 381.294C258.693 382.287 260.018 383.171 260.018 383.281Z" fill="#1D1D1B"/>
<path d="M268.629 382.066C268.629 382.177 265.538 381.073 261.895 379.638C258.252 378.092 255.381 376.878 255.381 376.657C255.381 376.547 258.472 377.651 262.116 379.086C265.648 380.631 268.629 381.956 268.629 382.066Z" fill="#1D1D1B"/>
<path d="M262.778 374.229C262.778 374.339 261.453 374.119 259.797 373.787C258.141 373.456 256.927 372.904 256.927 372.794C256.927 372.683 258.252 372.904 259.907 373.235C261.563 373.567 262.778 374.008 262.778 374.229Z" fill="#1D1D1B"/>
<path d="M276.357 374.228C276.357 374.339 272.714 373.235 268.298 371.8C263.882 370.365 260.35 369.04 260.46 368.929C260.46 368.819 264.103 369.923 268.519 371.358C272.935 372.793 276.357 374.008 276.357 374.228Z" fill="#1D1D1B"/>
<path d="M268.629 367.936C268.629 368.046 267.194 367.826 265.428 367.494C263.662 367.163 262.337 366.611 262.337 366.501C262.337 366.39 263.772 366.611 265.538 366.942C267.305 367.274 268.629 367.826 268.629 367.936Z" fill="#1D1D1B"/>
<path d="M276.358 365.618C276.358 365.728 273.487 365.618 270.065 365.397C266.643 365.176 263.772 364.845 263.772 364.735C263.772 364.624 266.643 364.735 270.065 364.956C273.598 365.176 276.358 365.508 276.358 365.618Z" fill="#1D1D1B"/>
<path d="M205.703 332.279C205.813 332.279 205.482 332.831 205.261 333.604C205.04 334.376 204.93 335.591 205.151 336.805C205.371 338.019 205.923 339.123 206.365 339.786C206.807 340.448 207.248 340.89 207.138 340.89C207.138 340.89 206.586 340.669 206.034 340.007C205.482 339.344 204.819 338.24 204.599 336.916C204.378 335.591 204.599 334.266 204.93 333.493C205.371 332.61 205.703 332.168 205.703 332.279Z" fill="#1D1D1B"/>
<path d="M218.067 320.246C217.956 320.246 218.177 319.583 218.288 318.59C218.398 317.596 218.288 316.161 217.736 314.726C217.184 313.291 216.3 312.076 215.638 311.414C214.865 310.641 214.313 310.31 214.424 310.31C214.424 310.31 215.086 310.531 215.859 311.193C216.632 311.856 217.625 313.07 218.177 314.616C218.729 316.161 218.84 317.707 218.619 318.7C218.619 319.694 218.177 320.356 218.067 320.246Z" fill="#1D1D1B"/>
<path d="M220.276 317.706C220.165 317.706 220.386 317.044 220.386 315.94C220.386 314.947 220.165 313.401 219.392 312.076C218.62 310.641 217.516 309.648 216.632 309.096C215.749 308.544 215.087 308.323 215.087 308.323C215.087 308.323 215.749 308.323 216.743 308.875C217.736 309.316 218.951 310.42 219.724 311.855C220.496 313.401 220.717 314.947 220.607 316.05C220.607 317.154 220.276 317.706 220.276 317.706Z" fill="#1D1D1B"/>
<path d="M216.742 358.222C216.742 358.222 216.08 358.774 214.645 358.994C213.32 359.215 211.223 359.105 209.456 357.78C207.69 356.566 206.807 354.689 206.476 353.254C206.255 351.929 206.476 351.046 206.476 351.046C206.586 351.046 206.476 351.929 206.807 353.143C207.138 354.358 208.021 356.124 209.677 357.338C211.333 358.442 213.21 358.663 214.534 358.553C215.97 358.442 216.742 358.111 216.742 358.222Z" fill="#1D1D1B"/>
<path d="M211.223 361.754C211.223 361.754 211.002 361.754 210.671 361.644C210.34 361.533 209.788 361.423 209.125 361.092C207.911 360.54 206.365 359.325 205.261 357.669C204.157 355.903 203.826 354.026 203.826 352.702C203.826 352.039 203.937 351.487 204.047 351.156C204.157 350.825 204.268 350.604 204.268 350.604C204.378 350.604 204.157 351.377 204.268 352.702C204.268 354.026 204.709 355.793 205.813 357.449C206.807 359.104 208.242 360.319 209.346 360.871C210.34 361.423 211.223 361.644 211.223 361.754Z" fill="#1D1D1B"/>
</svg>
