<svg xmlns="http://www.w3.org/2000/svg" width="145" height="105" viewBox="0 0 145 105">
    <g id="Group_251" data-name="Group 251" transform="translate(1581.06 1347.396)">
      <path id="Path_246" data-name="Path 246" d="M-1502.261-1273.277c-.77.949-2.353,1.238-3.7,1.89,0,1.712-.056,3.766.013,5.816.133,4.057.325,8.112.524,12.165a6.887,6.887,0,0,0,.342,1.772c.259.81-.079,1.216-.8,1.449-.742.24-1.486.472-2.319.74-.06,2.129.708,4.3.227,6.452l-.28.013c-.193-2.091-.387-4.179-.59-6.385-5.57,1.043-10.767-.69-16.094-1.71v7.2l-.293.053a6.006,6.006,0,0,1-.207-.971c-.077-1.781-.1-3.561-.212-5.338a3.093,3.093,0,0,0-.547-1.1,5.541,5.541,0,0,1-.744-1.362c-.876-4.282-1.815-8.555-2.518-12.866-1.206-7.4-2.167-14.852-4.089-22.12a7.828,7.828,0,0,0-.913-1.669c-.09.055-.179.111-.269.165-.631,4.923-1.347,9.837-1.868,14.773-.528,4.989-.746,10.01-1.317,14.993-.558,4.863-.147,9.818-1.146,14.634l-.4-.032c.036-.671.068-1.345.109-2.016.2-3.337.186-6.7.658-10,.69-4.835-.47-9.476-.99-14.187a79.529,79.529,0,0,1-.633-12.678c.13-2.586-.115-5.194-.2-7.792a4.453,4.453,0,0,0-.147-.688,7.468,7.468,0,0,1-6.013,2.4,7.431,7.431,0,0,1-4.139-1.785,14.539,14.539,0,0,1-4.222-5.167,3.432,3.432,0,0,1-.32-2.148,1.356,1.356,0,0,0-.425-1.488c-1.368-1.259-1.58-2.95-1.853-4.643a1.9,1.9,0,0,0-.6-1.1c-1.436-1.167-2.926-2.266-4.391-3.4-.329-.254-.633-.543-1.047-.9.915-.455.59-.956.346-1.6a13.835,13.835,0,0,0-4.639-5.866c-.3-.241-.3-.859-.438-1.3l.286-.248c-4.273-2.943-8.544-5.885-12.945-8.918l1.026-.746.062.03c.115.051.248.107.376.18l.015.009a.661.661,0,0,1,.066.041q6.159,4.04,12.319,8.082a2.743,2.743,0,0,0,.87.289,11.122,11.122,0,0,1,2.007.447c1.781.793,3.51,1.708,5.282,2.529a2.069,2.069,0,0,0,2.212-.139,1.608,1.608,0,0,1,1.411.128c3.085,1.96,6.131,3.987,9.386,5.909-.537-1.385-1.037-2.788-1.616-4.156-.953-2.253-2.14-4.425-2.892-6.742-.981-3.029.252-5.752,2.779-6.828a16.787,16.787,0,0,1,1.721-.528,1.345,1.345,0,0,0-1.479-.885,2.365,2.365,0,0,1-1.922-.956,4.234,4.234,0,0,1,.062-2.614c.092-.321.988-.41,1.631-.65.066-.522.19-1.221.235-1.926a6.337,6.337,0,0,1,1.507-3.687c.5-.611.874-1.33,1.415-1.9.276-.291.808-.319,1.195-.524,2.943-1.56,5.342-1.032,7.217,1.7a1.174,1.174,0,0,0,1.439.522c.364-.081.731-.135,1.1-.2.036.128.075.259.113.387-.569.205-1.135.408-1.708.614.406,1.026.8,2.089,1.261,3.121a.81.81,0,0,0,.652.363,1.642,1.642,0,0,1,1.823,1.438,1.911,1.911,0,0,1-1.05,2.418,6.858,6.858,0,0,0-.827.669c4.927,1.524,9.73,2.907,14.457,4.515a61.206,61.206,0,0,1,7.114,3.125c2.794,1.368,4.322,3.961,5.827,6.507a33.331,33.331,0,0,1,4.172,13.563c.488,4.489.663,9.012.971,13.52a3.1,3.1,0,0,1-1.31,3.181c.609,2.353,1.259,4.591,1.759,6.862A8.449,8.449,0,0,1-1502.261-1273.277Z" transform="translate(0 0)"/>
      <path id="Path_247" data-name="Path 247" d="M-1344.1-1242.1c-.488-5.2-.779-10.437-1.52-15.606a29.9,29.9,0,0,0-5.739-14.3,12.894,12.894,0,0,0-4.443-3.735c-5.422-2.753-11.307-4.174-17.021-6.1-2.752-.927-4.5.074-6.049,2.069a14.426,14.426,0,0,0-1.571,2.4,6.025,6.025,0,0,0,1.984,8.184,21.6,21.6,0,0,0,2.552,1.7c4.841,2.618,9.662,5.279,14.574,7.757,2.57,1.3,4.365,3.112,4.87,5.931.752,4.2,1.324,8.422,1.984,12.634a39.477,39.477,0,0,0,.73,4.076c.216.811.847,1.128,1.755.676,1.936-.963,3.891-1.891,5.873-2.756A3.122,3.122,0,0,0-1344.1-1242.1Z" transform="translate(-157.083 -48.401)"/>
      <path id="Path_248" data-name="Path 248" d="M-1345.614-1076.552c-.273.329-.472.62-.72.861-1.245,1.214-2.476,2.444-3.776,3.6a1.331,1.331,0,0,1-1.2.2,1.659,1.659,0,0,1-.254-2.838c.627-.577,1.287-1.125,1.855-1.755.172-.191.233-.792.1-.9-2-1.633-4.05-3.215-6.325-5,.147.734.238,1.17.322,1.608.891,4.6,1.806,9.2,2.664,13.813,1.234,6.636,2.417,13.283,3.667,19.917a1.353,1.353,0,0,0,.869.834c1.724.393,3.476.656,5.207,1.018,3.345.7,6.692,1.437,10.132.892,1.531-.243,3.031-.691,4.4-1.011-.907-7.125-.661-14-1.086-20.87-1.082-.139-1.994-.442-2.1-1.814a7.285,7.285,0,0,0-.531.587c-1.138,1.633-2.242,3.29-3.427,4.887-.208.28-.744.317-1.128.466-.138-.405-.43-.833-.376-1.211a4.545,4.545,0,0,1,.636-1.567c.744-1.281,1.537-2.533,2.373-3.9Z" transform="translate(-176.998 -205.486)"/>
      <path id="Path_249" data-name="Path 249" d="M-1458.635-1184.344a23.42,23.42,0,0,0,5.373-7.509,1.094,1.094,0,0,0-.4-1.534c-7-5.781-14.348-11.1-21.884-16.156q-6.508-4.366-13.083-8.632a1.207,1.207,0,0,0-1.148.08c-2.008,2.081-3.957,4.22-5.98,6.4l2.214,1.753,1.183-.74.216.217-.741,1.047,2.192,1.606a15.9,15.9,0,0,1,.9-2.542c.646-1.157,1.585.027,2.432-.114,1.386-.23.588,1.382,1.214,1.95a1.752,1.752,0,0,1,.292-.307c.474-.3,1.063-.906,1.412-.793a1.984,1.984,0,0,1,.941,1.376,32.825,32.825,0,0,1,.348,3.5c.133,1.576.463,3.022,2.242,3.55l.86-.8a.726.726,0,0,1,.064.695,5.821,5.821,0,0,1-.415.621l4.212,3.008,1.043-1.117.3.161-.7,1.427,2.346,1.713,1.175-.944.227.219-.74,1.195,2.785,2.061,1.034-.878.24.167-.624,1.209,4.028,3.059.8-1.161.475.1c-1.478,1.734.13,2.1.933,2.8.478.419,1,.781,1.547,1.2l1.029-1.256.3.193-.735,1.524Z" transform="translate(-67.072 -98.642)"/>
      <path id="Path_250" data-name="Path 250" d="M-1374.983-1214.46a19.282,19.282,0,0,1-1.8,3.549,5.527,5.527,0,0,0-.609,6.214,1.666,1.666,0,0,0,.1.3,9.9,9.9,0,0,0,1.62,2.146c3.935,3.045,7.943,6,11.911,9,1.183.9,2.317,1.856,3.553,2.852.3-.851.567-1.574.8-2.307.242-.75.766-.874,1.3-.451a1.891,1.891,0,0,1,.775,1.249,10.284,10.284,0,0,1-.567,2.9c-.672,1.9-.719,2,.337,2.868q4.112,3.393,8.24,6.768a3.547,3.547,0,0,0,.606.328l.343-.166c-.276-.915-.532-1.837-.846-2.738a.789.789,0,0,0-.538-.4c-1.654-.283-2.1-.565-2.364-2.191-.334-2.032-.454-4.1-.72-6.142a14.971,14.971,0,0,0-.755-4.281c-1.558-3.38-3.385-6.636-5.127-9.929a4.011,4.011,0,0,0-1.9-1.753q-4.447-2.17-8.8-4.526C-1371.286-1212.179-1373.079-1213.328-1374.983-1214.46Z" transform="translate(-159.605 -101.648)"/>
      <path id="Path_251" data-name="Path 251" d="M-1430.288-1267.173c-.8-.283-1.419-.534-2.06-.726-.972-.291-1.235-.871-1.035-1.866.324-1.617.521-3.259.771-4.894a4.238,4.238,0,0,0-4.074,3.279,8.2,8.2,0,0,0,.8,5.378c1.169,2.74,2.4,5.455,3.6,8.181.223.507.289,1.216.673,1.5,2.446,1.791,4.961,3.488,7.549,5.283a15.618,15.618,0,0,0-3.572-8.01c-1.153-1.307-2.3-2.626-3.487-3.9a1.422,1.422,0,0,1-.294-1.9C-1431.018-1265.553-1430.705-1266.306-1430.288-1267.173Z" transform="translate(-113.368 -54.317)"/>
      <path id="Path_252" data-name="Path 252" d="M-1301.785-1082.514l-3.873,5.353c3.549,2.526,7.073,5.044,10.619,7.531.186.131.737.1.813-.028.742-1.279,2.264-2.071,2.252-3.85,0-.618.029-1.035-.493-1.454C-1295.6-1077.474-1298.711-1080.017-1301.785-1082.514Z" transform="translate(-216.532 -205.389)"/>
      <path id="Path_253" data-name="Path 253" d="M-1235.2-1078.936c-1.668.832-3.293,1.617-4.884,2.464-.21.111-.436.658-.343.8.988,1.539.675,3.131.344,4.756a8.574,8.574,0,0,0-.017,1.678l.31.1,1.515-2.221.361.205q-.445.955-.889,1.909c-.479,1.026-1.028,2.026-1.406,3.088a7.244,7.244,0,0,0-.031,2.022c2.308-1.6,2.977-4.007,4.488-5.786-.328,2.217-2.069,3.713-2.917,5.691,1.5.024,3.022-.046,3.945-1.392a8.773,8.773,0,0,0,1.645-5.943A20.82,20.82,0,0,0-1235.2-1078.936Z" transform="translate(-267.801 -208.202)"/>
      <path id="Path_254" data-name="Path 254" d="M-1386.806-1078.722c.067-.649.128-1.236.188-1.823.42-4.175.817-8.353,1.268-12.524.325-3,.7-6,1.1-9a2.272,2.272,0,0,0-1.177-2.559c-1.1-.657-2.089-1.508-3.253-2.368C-1388.224-1097.416-1389.057-1088.018-1386.806-1078.722Z" transform="translate(-151.255 -186.14)"/>
      <path id="Path_255" data-name="Path 255" d="M-1444.265-1130.205l-8.127-5.846c-.062,1.809-.8,2.473-2.3,2.063a27.258,27.258,0,0,1-2.861-1.114c-.326-.13-.649-.267-1.217-.5a6.658,6.658,0,0,0,.308,1.793,15.976,15.976,0,0,0,5.228,5.922C-1450.241-1125.877-1445.954-1127.279-1444.265-1130.205Z" transform="translate(-96.149 -163.296)"/>
      <path id="Path_256" data-name="Path 256" d="M-1409.564-1300.889a20.928,20.928,0,0,0,3.308-.257c.908-.218,2.115-.439,2.058-1.756a28.983,28.983,0,0,0-.544-4.1,1.154,1.154,0,0,0-.832-.737c-2.62.15-5.234.379-7.849.6a.938.938,0,0,0-.945,1.147,29.34,29.34,0,0,0,.393,3.6,1.844,1.844,0,0,0,1.15,1.159A24.134,24.134,0,0,0-1409.564-1300.889Z" transform="translate(-131.055 -28.304)"/>
      <path id="Path_257" data-name="Path 257" d="M-1467.092-1180.821l-.38-.16c-.25.376-.678.734-.72,1.132-.291,2.746-.42,5.44,1.835,7.633a7.861,7.861,0,0,0,4.531,2.308c.378.051,1.087-.087,1.132-.266a2.468,2.468,0,0,0-.19-1.385,14.107,14.107,0,0,1-.958-2.077c-.311-1.559-.425-3.155-.654-4.731a12.5,12.5,0,0,0-.393-1.463c-1.735.637-.929,2.442-2.007,3.585l-.682-4.306-.365-.007q-.205,1.6-.41,3.206l-.43-.014Z" transform="translate(-88.617 -127.97)"/>
      <path id="Path_258" data-name="Path 258" d="M-1414.784-1327.949h5.369c-.189-.513-.34-.981-.532-1.432-.778-1.83-1.648-2.471-3.517-2.2a7.386,7.386,0,0,1-5.571-1.166,7.214,7.214,0,0,0-2.8,6.722c1.861-1.9,4.266-1.414,6.3-1.957l.254-1.6.342.025C-1414.884-1329.024-1414.834-1328.491-1414.784-1327.949Z" transform="translate(-125.17 -8.649)"/>
      <path id="Path_259" data-name="Path 259" d="M-1519.494-1230.275a14.032,14.032,0,0,1,5.356,7l4.4-5.065a8.352,8.352,0,0,1-1.2-.341c-1.76-.835-3.5-1.709-5.264-2.535-.421-.2-.988-.475-1.343-.339A10.732,10.732,0,0,0-1519.494-1230.275Z" transform="translate(-48.406 -88.182)"/>
      <path id="Path_260" data-name="Path 260" d="M-1335.134-1096.179a13.477,13.477,0,0,0,1.847-1.505c1.856-2.152,3.66-4.349,5.457-6.552a16.313,16.313,0,0,0,3.031-7.048c.167-.757.078-1.344-.8-1.532-.57,1.546-1.032,3.118-1.716,4.589a29.706,29.706,0,0,1-7.9,9.814C-1336.22-1097.55-1336.238-1097.315-1335.134-1096.179Z" transform="translate(-192.702 -181.564)"/>
      <path id="Path_261" data-name="Path 261" d="M-1394.4-1237.975l.214-.047c.163-1.366.256-2.745.506-4.094a6.4,6.4,0,0,0-1.1-4.907c-.643-.969-1.169-2.015-1.809-3.136-.242.19-.651.359-.658.542a13.164,13.164,0,0,0,.053,4C-1396.444-1243.016-1395.352-1240.516-1394.4-1237.975Z" transform="translate(-144.413 -73.58)"/>
      <path id="Path_262" data-name="Path 262" d="M-1406.043-1339.555c1.088,1.276,2.56.973,3.922,1.257l-.734-1.047.2-.189a11.264,11.264,0,0,0,1.684.962,12.387,12.387,0,0,0,2.016.392C-1400.455-1341.027-1403.487-1341.571-1406.043-1339.555Z" transform="translate(-137.605 -2.344)"/>
      <path id="Path_263" data-name="Path 263" d="M-1266.628-1023.729l.349.166c1.673-2.319,3.354-4.631,5.008-6.964a3.1,3.1,0,0,0,.489-1.171c.047-.237-.15-.521-.306-.991C-1263.258-1029.652-1265.522-1027.034-1266.628-1023.729Z" transform="translate(-247.219 -244.564)"/>
      <path id="Path_264" data-name="Path 264" d="M-1405.337-1231.543l.124-.059-2.538-7.3a24.609,24.609,0,0,0-1.158,2.419,1.406,1.406,0,0,0,.149,1.175C-1407.663-1234.014-1406.486-1232.79-1405.337-1231.543Z" transform="translate(-135.302 -82.432)"/>
      <path id="Path_265" data-name="Path 265" d="M-1379.492-1217.442l.365.119c.792-1.566,1.593-3.127,2.356-4.707a.674.674,0,0,0-.2-.583c-.526-.456-1.093-.863-1.8-1.407Z" transform="translate(-158.481 -94.132)"/>
      <path id="Path_266" data-name="Path 266" d="M-1417.019-1273.33l-.169-.033c-.272,1.706-.56,3.41-.8,5.121a.8.8,0,0,0,.364.661c.738.307,1.514.525,2.338.8Z" transform="translate(-128.215 -55.336)"/>
      <path id="Path_267" data-name="Path 267" d="M-1285.121-1171.6l4.243,8.154C-1281.185-1167.425-1282.576-1170.742-1285.121-1171.6Z" transform="translate(-232.679 -135.344)"/>
      <path id="Path_268" data-name="Path 268" d="M-1390.247-1263.066c-1.286,1.931-.246,3.387.786,4.983a16.346,16.346,0,0,1,.267-2.517A2.149,2.149,0,0,0-1390.247-1263.066Z" transform="translate(-149.555 -63.432)"/>
      <path id="Path_269" data-name="Path 269" d="M-1387.635-1272.489l2.043-3.071-.164-.227-3.748,1.677Z" transform="translate(-150.609 -53.43)"/>
      <path id="Path_270" data-name="Path 270" d="M-1407.967-1265.364l-.422.328,1.5,4.88.535-.13c-.218-1.128-.431-2.257-.656-3.384a3.012,3.012,0,0,0-.254-.915A4.817,4.817,0,0,0-1407.967-1265.364Z" transform="translate(-135.761 -61.625)"/>
      <path id="Path_271" data-name="Path 271" d="M-1365.848-1302.866c.711-.627.881-3.051.26-4.272-.135-.265-.555-.385-.954-.643C-1366.287-1305.973-1366.071-1304.444-1365.848-1302.866Z" transform="translate(-168.663 -28.275)"/>
      <path id="Path_272" data-name="Path 272" d="M-1420.966-1296.646c-.117-1.393-.219-2.6-.321-3.827C-1422.806-1299.921-1422.707-1298.219-1420.966-1296.646Z" transform="translate(-124.781 -34.021)"/>
      <path id="Path_273" data-name="Path 273" d="M-1430.935-1296.81l1.186-.25c-.227-.34-.356-.721-.614-.857a1.066,1.066,0,0,0-.815.155,4.567,4.567,0,0,0,.091,2.023c.23.522.928.772,1.834.377Z" transform="translate(-117.791 -36.005)"/>
      <path id="Path_274" data-name="Path 274" d="M-1398.953-1263.967l-2.169.106.9,2.271.342-.016Z" transform="translate(-141.474 -62.724)"/>
      <path id="Path_275" data-name="Path 275" d="M-1402.632-1272.879c.976,1.649,1.854,1.743,3.151,0Z" transform="translate(-140.287 -55.717)"/>
      <path id="Path_276" data-name="Path 276" d="M-1359.534-1303.655l.273.168c1.068-.482,1.408-1.248.91-2.126-.326-.576-.749-.91-1.6-.21l1.094,1.078Z" transform="translate(-173.846 -29.505)"/>
      <path id="Path_277" data-name="Path 277" d="M-1535.494-1244.216l-.165.184,4,2.708.2-.305Z" transform="translate(-35.696 -78.253)"/>
      <path id="Path_278" data-name="Path 278" d="M-1408.032-1272.486l-1.732-1.339C-1409.874-1272.442-1409.805-1272.381-1408.032-1272.486Z" transform="translate(-134.654 -54.973)"/>
      <path id="Path_279" data-name="Path 279" d="M-1344.1-1242.1a3.122,3.122,0,0,1-2.02,2.937c-1.982.865-3.937,1.793-5.873,2.756-.908.452-1.539.135-1.755-.676a39.477,39.477,0,0,1-.73-4.076c-.66-4.212-1.232-8.439-1.984-12.634-.505-2.819-2.3-4.635-4.87-5.931-4.912-2.478-9.733-5.139-14.574-7.757a21.6,21.6,0,0,1-2.552-1.7,6.025,6.025,0,0,1-1.984-8.184,14.426,14.426,0,0,1,1.571-2.4c1.551-2,3.3-3,6.049-2.069,5.714,1.925,11.6,3.346,17.021,6.1a12.894,12.894,0,0,1,4.443,3.735,29.9,29.9,0,0,1,5.739,14.3C-1344.878-1252.537-1344.588-1247.3-1344.1-1242.1Z" transform="translate(-157.083 -48.401)" fill="#70b5e9"/>
      <path id="Path_280" data-name="Path 280" d="M-1345.614-1076.552l11.3,7.81c-.836,1.366-1.629,2.619-2.373,3.9a4.545,4.545,0,0,0-.636,1.567c-.053.379.239.806.376,1.211.384-.149.92-.186,1.128-.466,1.185-1.6,2.289-3.254,3.427-4.887a7.285,7.285,0,0,1,.531-.587c.1,1.372,1.015,1.675,2.1,1.814.426,6.868.179,13.745,1.086,20.87-1.368.321-2.868.768-4.4,1.011-3.44.546-6.787-.193-10.132-.892-1.731-.362-3.483-.625-5.207-1.018a1.353,1.353,0,0,1-.869-.834c-1.25-6.634-2.433-13.28-3.667-19.917-.858-4.61-1.773-9.209-2.664-13.813-.085-.438-.175-.874-.322-1.608,2.276,1.782,4.322,3.364,6.325,5,.135.11.073.711-.1.9-.569.63-1.228,1.178-1.855,1.755a1.659,1.659,0,0,0,.254,2.838,1.331,1.331,0,0,0,1.2-.2c1.3-1.152,2.531-2.382,3.776-3.6C-1346.087-1075.932-1345.887-1076.223-1345.614-1076.552Z" transform="translate(-176.998 -205.486)" fill="#e3f3ff"/>
      <path id="Path_281" data-name="Path 281" d="M-1458.635-1184.344l-2.086-1.651.735-1.524-.3-.193-1.029,1.256c-.542-.416-1.069-.779-1.547-1.2-.8-.7-2.411-1.067-.933-2.8l-.475-.1-.8,1.161-4.028-3.059.624-1.209-.24-.167-1.034.878-2.785-2.061.74-1.195-.227-.219-1.175.944-2.346-1.713.7-1.427-.3-.161-1.043,1.117-4.212-3.008a5.821,5.821,0,0,0,.415-.621.726.726,0,0,0-.064-.695l-.86.8c-1.778-.528-2.109-1.974-2.242-3.55a32.825,32.825,0,0,0-.348-3.5,1.984,1.984,0,0,0-.941-1.376c-.349-.114-.938.492-1.412.793a1.752,1.752,0,0,0-.292.307c-.626-.569.172-2.181-1.214-1.95-.847.141-1.786-1.044-2.432.114a15.9,15.9,0,0,0-.9,2.542l-2.192-1.606.741-1.047-.216-.217-1.183.74-2.214-1.753c2.023-2.184,3.972-4.323,5.98-6.4a1.207,1.207,0,0,1,1.148-.08q6.57,4.272,13.083,8.632c7.537,5.056,14.88,10.375,21.884,16.156a1.094,1.094,0,0,1,.4,1.534A23.42,23.42,0,0,1-1458.635-1184.344Z" transform="translate(-67.072 -98.642)" fill="#70b5e9"/>
      <path id="Path_282" data-name="Path 282" d="M-1374.983-1214.46c1.9,1.132,3.7,2.281,5.567,3.29q4.355,2.351,8.8,4.526a4.011,4.011,0,0,1,1.9,1.753c1.742,3.293,3.569,6.549,5.127,9.929a14.971,14.971,0,0,1,.755,4.281c.265,2.044.385,4.11.72,6.142.268,1.626.71,1.908,2.364,2.191a.789.789,0,0,1,.538.4c.314.9.57,1.823.846,2.738l-.343.166a3.547,3.547,0,0,1-.606-.328q-4.127-3.375-8.24-6.768c-1.056-.871-1.009-.973-.337-2.868a10.284,10.284,0,0,0,.567-2.9,1.891,1.891,0,0,0-.775-1.249c-.536-.423-1.06-.3-1.3.451-.236.733-.5,1.456-.8,2.307-1.237-1-2.37-1.956-3.553-2.852-3.968-3-7.976-5.954-11.911-9a9.9,9.9,0,0,1-1.62-2.146,1.666,1.666,0,0,1-.1-.3,5.527,5.527,0,0,1,.609-6.214A19.282,19.282,0,0,0-1374.983-1214.46Z" transform="translate(-159.605 -101.648)" fill="#e3f3ff"/>
      <path id="Path_283" data-name="Path 283" d="M-1430.288-1267.173c-.417.867-.73,1.62-1.132,2.322a1.422,1.422,0,0,0,.294,1.9c1.192,1.271,2.334,2.59,3.487,3.9a15.618,15.618,0,0,1,3.572,8.01c-2.588-1.794-5.1-3.492-7.549-5.283-.384-.281-.45-.99-.673-1.5-1.2-2.727-2.432-5.441-3.6-8.181a8.2,8.2,0,0,1-.8-5.378,4.238,4.238,0,0,1,4.074-3.279c-.251,1.635-.447,3.278-.771,4.894-.2.995.063,1.575,1.035,1.866C-1431.707-1267.707-1431.084-1267.456-1430.288-1267.173Z" transform="translate(-113.368 -54.317)" fill="#70b5e9"/>
      <path id="Path_284" data-name="Path 284" d="M-1301.785-1082.514c3.074,2.5,6.184,5.04,9.318,7.553.522.419.489.836.493,1.454.011,1.779-1.51,2.571-2.252,3.85-.076.131-.627.159-.813.028-3.546-2.487-7.07-5-10.619-7.531Z" transform="translate(-216.532 -205.389)" fill="#70b5e9"/>
      <path id="Path_285" data-name="Path 285" d="M-1235.2-1078.936a20.82,20.82,0,0,1,2.122,7.377,8.773,8.773,0,0,1-1.645,5.943c-.923,1.346-2.444,1.416-3.945,1.392.848-1.978,2.59-3.475,2.917-5.691-1.511,1.779-2.18,4.19-4.488,5.786a7.244,7.244,0,0,1,.031-2.022c.378-1.062.927-2.062,1.406-3.088q.445-.954.889-1.909l-.361-.205-1.515,2.221-.31-.1a8.574,8.574,0,0,1,.017-1.678c.33-1.625.643-3.218-.344-4.756-.093-.145.133-.691.343-.8C-1238.495-1077.319-1236.87-1078.1-1235.2-1078.936Z" transform="translate(-267.801 -208.202)" fill="#fff"/>
      <path id="Path_286" data-name="Path 286" d="M-1386.806-1078.722c-2.251-9.3-1.418-18.694-1.876-28.274,1.164.86,2.15,1.711,3.253,2.368a2.272,2.272,0,0,1,1.177,2.559c-.4,3-.773,5.995-1.1,9-.451,4.172-.848,8.35-1.268,12.524C-1386.677-1079.958-1386.739-1079.371-1386.806-1078.722Z" transform="translate(-151.255 -186.14)" fill="#e3f3ff"/>
      <path id="Path_287" data-name="Path 287" d="M-1444.265-1130.205c-1.689,2.926-5.976,4.328-8.969,2.317a15.976,15.976,0,0,1-5.228-5.922,6.658,6.658,0,0,1-.308-1.793c.567.234.891.371,1.217.5a27.258,27.258,0,0,0,2.861,1.114c1.5.41,2.239-.253,2.3-2.063Z" transform="translate(-96.149 -163.296)" fill="#70b5e9"/>
      <path id="Path_288" data-name="Path 288" d="M-1409.564-1300.889a24.134,24.134,0,0,1-3.26-.35,1.844,1.844,0,0,1-1.15-1.159,29.34,29.34,0,0,1-.393-3.6.938.938,0,0,1,.945-1.147c2.614-.225,5.229-.453,7.849-.6a1.154,1.154,0,0,1,.832.737,28.983,28.983,0,0,1,.544,4.1c.057,1.317-1.15,1.538-2.058,1.756A20.928,20.928,0,0,1-1409.564-1300.889Z" transform="translate(-131.055 -28.304)" fill="#e3f3ff"/>
      <path id="Path_289" data-name="Path 289" d="M-1467.092-1180.821l.306,3.454.43.014q.2-1.6.41-3.206l.365.007.682,4.306c1.078-1.143.272-2.948,2.007-3.585a12.5,12.5,0,0,1,.393,1.463c.229,1.576.344,3.173.654,4.731a14.107,14.107,0,0,0,.958,2.077,2.468,2.468,0,0,1,.19,1.385c-.045.179-.753.318-1.132.266a7.861,7.861,0,0,1-4.531-2.308c-2.254-2.193-2.126-4.886-1.835-7.633.042-.4.471-.755.72-1.132Z" transform="translate(-88.617 -127.97)" fill="#e3f3ff"/>
      <path id="Path_290" data-name="Path 290" d="M-1414.784-1327.949c-.05-.542-.1-1.075-.149-1.608l-.342-.025-.254,1.6c-2.036.544-4.441.061-6.3,1.957a7.214,7.214,0,0,1,2.8-6.722,7.386,7.386,0,0,0,5.571,1.166c1.869-.275,2.739.366,3.517,2.2.192.451.343.92.532,1.432Z" transform="translate(-125.17 -8.649)" fill="#e3f3ff"/>
      <path id="Path_291" data-name="Path 291" d="M-1519.494-1230.275a10.732,10.732,0,0,1,1.957-1.277c.355-.136.922.142,1.343.339,1.764.826,3.5,1.7,5.264,2.535a8.352,8.352,0,0,0,1.2.341l-4.4,5.065A14.032,14.032,0,0,0-1519.494-1230.275Z" transform="translate(-48.406 -88.182)" fill="#e3f3ff"/>
      <path id="Path_292" data-name="Path 292" d="M-1335.134-1096.179c-1.1-1.136-1.086-1.371-.087-2.235a29.706,29.706,0,0,0,7.9-9.814c.683-1.47,1.146-3.043,1.716-4.589.881.188.969.774.8,1.532a16.313,16.313,0,0,1-3.031,7.048c-1.8,2.2-3.6,4.4-5.457,6.552A13.477,13.477,0,0,1-1335.134-1096.179Z" transform="translate(-192.702 -181.564)" fill="#e3f3ff"/>
      <path id="Path_293" data-name="Path 293" d="M-1394.4-1237.975c-.953-2.541-2.045-5.041-2.8-7.639a13.164,13.164,0,0,1-.053-4c.007-.183.416-.351.658-.542.64,1.12,1.166,2.167,1.809,3.136a6.4,6.4,0,0,1,1.1,4.907c-.25,1.35-.343,2.729-.506,4.094Z" transform="translate(-144.413 -73.58)" fill="#70b5e9"/>
      <path id="Path_294" data-name="Path 294" d="M-1406.043-1339.555c2.556-2.016,5.588-1.473,7.087,1.375a12.387,12.387,0,0,1-2.016-.392,11.264,11.264,0,0,1-1.684-.962l-.2.189.734,1.047C-1403.483-1338.582-1404.955-1338.279-1406.043-1339.555Z" transform="translate(-137.605 -2.344)" fill="#70b5e9"/>
      <path id="Path_295" data-name="Path 295" d="M-1266.628-1023.729c1.106-3.3,3.37-5.923,5.54-8.96.156.47.353.755.306.991a3.1,3.1,0,0,1-.489,1.171c-1.653,2.332-3.335,4.645-5.008,6.964Z" transform="translate(-247.219 -244.564)" fill="#e3f3ff"/>
      <path id="Path_296" data-name="Path 296" d="M-1405.337-1231.543c-1.149-1.247-2.326-2.471-3.422-3.763a1.406,1.406,0,0,1-.149-1.175,24.609,24.609,0,0,1,1.158-2.419l2.538,7.3Z" transform="translate(-135.302 -82.432)" fill="#e3f3ff"/>
      <path id="Path_297" data-name="Path 297" d="M-1379.492-1217.442l.719-6.577c.705.544,1.273.951,1.8,1.407a.674.674,0,0,1,.2.583c-.763,1.579-1.565,3.141-2.356,4.707Z" transform="translate(-158.481 -94.132)" fill="#e3f3ff"/>
      <path id="Path_298" data-name="Path 298" d="M-1417.019-1273.33l1.738,6.545c-.824-.272-1.6-.49-2.338-.8a.8.8,0,0,1-.364-.661c.235-1.711.523-3.415.8-5.121Z" transform="translate(-128.215 -55.336)" fill="#e3f3ff"/>
      <path id="Path_299" data-name="Path 299" d="M-1285.121-1171.6c2.545.861,3.936,4.178,4.243,8.154Z" transform="translate(-232.679 -135.344)" fill="#e3f3ff"/>
      <path id="Path_300" data-name="Path 300" d="M-1390.247-1263.066a2.149,2.149,0,0,1,1.052,2.466,16.346,16.346,0,0,0-.267,2.517C-1390.493-1259.679-1391.534-1261.135-1390.247-1263.066Z" transform="translate(-149.555 -63.432)" fill="#e3f3ff"/>
      <path id="Path_301" data-name="Path 301" d="M-1387.635-1272.489l-1.869-1.621,3.748-1.677.164.227Z" transform="translate(-150.609 -53.43)" fill="#e3f3ff"/>
      <path id="Path_302" data-name="Path 302" d="M-1407.967-1265.364a4.817,4.817,0,0,1,.7.78,3.012,3.012,0,0,1,.254.915c.225,1.127.438,2.256.656,3.384l-.535.13-1.5-4.88Z" transform="translate(-135.761 -61.625)" fill="#e3f3ff"/>
      <path id="Path_303" data-name="Path 303" d="M-1365.848-1302.866c-.223-1.578-.438-3.107-.694-4.915.4.258.819.378.954.643C-1364.968-1305.917-1365.137-1303.493-1365.848-1302.866Z" transform="translate(-168.663 -28.275)" fill="#70b5e9"/>
      <path id="Path_304" data-name="Path 304" d="M-1420.966-1296.646c-1.741-1.573-1.839-3.275-.321-3.827C-1421.185-1299.251-1421.083-1298.039-1420.966-1296.646Z" transform="translate(-124.781 -34.021)" fill="#70b5e9"/>
      <path id="Path_305" data-name="Path 305" d="M-1430.935-1296.81l1.682,1.449c-.906.394-1.6.145-1.834-.377a4.567,4.567,0,0,1-.091-2.023,1.066,1.066,0,0,1,.815-.155c.258.136.386.517.614.857Z" transform="translate(-117.791 -36.005)" fill="#e3f3ff"/>
      <path id="Path_306" data-name="Path 306" d="M-1398.953-1263.967l-.929,2.361-.342.016-.9-2.271Z" transform="translate(-141.474 -62.724)" fill="#70b5e9"/>
      <path id="Path_307" data-name="Path 307" d="M-1402.632-1272.879h3.151C-1400.778-1271.136-1401.656-1271.23-1402.632-1272.879Z" transform="translate(-140.287 -55.717)" fill="#70b5e9"/>
      <path id="Path_308" data-name="Path 308" d="M-1359.534-1303.655l.679-1.089-1.094-1.078c.849-.7,1.272-.366,1.6.21.5.879.158,1.645-.91,2.126Z" transform="translate(-173.846 -29.505)" fill="#e3f3ff"/>
      <path id="Path_309" data-name="Path 309" d="M-1574.174-1270.159l11.676,7.486-.718.533-11.536-7.723Z" transform="translate(-4.96 -57.855)" fill="#e3f3ff"/>
      <path id="Path_310" data-name="Path 310" d="M-1408.032-1272.486c-1.773.1-1.842.044-1.732-1.339Z" transform="translate(-134.654 -54.973)" fill="#e3f3ff"/>
      <path id="Path_311" data-name="Path 311" d="M-1575.594-1274.39l-.376-.18C-1575.854-1274.519-1575.722-1274.463-1575.594-1274.39Z" transform="translate(-4.002 -54.387)"/>
    </g>
    <g id="Rectangle_200" data-name="Rectangle 200" fill="none" stroke="transparent" strokeWidth="1">
      <rect width="145" height="105" stroke="none"/>
      <rect x="0.5" y="0.5" width="144" height="104" fill="none"/>
    </g>
  </svg>
  