<svg xmlns="http://www.w3.org/2000/svg" xmlns:xlink="http://www.w3.org/1999/xlink" version="1.1" id="Layer_1" x="0px" y="0px" viewBox="0 0 130 119" style="enable-background:new 0 0 130 119;" xml:space="preserve">
  <style type="text/css">
    .st0{fill:#FFFFFF;}
    .st1{fill:#FFFFFF;stroke:#000000;stroke-miterlimit:10;}
    .st2{fill:#FFFFFF;stroke:#000000;stroke-width:0.25;stroke-miterlimit:10;}
    .st3{stroke:#000000;stroke-width:0.25;stroke-miterlimit:10;}
    .st4{fill:#ACD4F7;stroke:#000000;stroke-width:0.25;stroke-miterlimit:10;}
    .st5{fill:#ACD4F7;}
    .st6{opacity:0.1294;}
    .st7{fill:#ACD4F7;stroke:#000000;stroke-width:2;stroke-miterlimit:10;}
  </style>
  <path class="st1" d="M80.8,105.71c3.66-5.75,14.05-2.68,9.87,1.22c-5.64,5.26-23.07,4.81-33.77,3.21c-2.77-0.42-3.57-5.26-3.86-7.68  c-1.18-9.76,0.61-18.07,0.98-27.9c-6.41,8.41-10.49,16.92-17.77,14.78c-5.67-1.67-11.57-12.29-14.23-33.1  c2.37-0.5,4.58-3.76,7.64-7.52c3.54,5.24,7.07,15.2,10.15,22.29c3.6-4.14,9.63-17.9,19.38-21.26c6.83-2.35,29.71-0.1,33.69,0.88  c14.46,3.58,23.89,29.12,26.68,37.32c8.2,24.02-17.83,21.16-33.47,17.08C85.13,102.65,83.07,107.01,80.8,105.71z"/>
  <path d="M103.31,107.49c-0.09,0-0.18,0-0.28-0.01c0.09,0.01,0.19,0.01,0.28,0.02c4.6,0.28,6.86-0.4,6.9-0.41  C108.04,107.46,105.69,107.56,103.31,107.49z M91.81,104.56c-0.37-1.12-1.79-1.98-3.73-2.22c-1.63-0.21-3.78,0.07-5.54,1.23  c-0.06,0.03-0.11,0.07-0.17,0.11c-0.14,0.1-0.28,0.2-0.42,0.31c-0.51,0.43-0.98,0.96-1.38,1.58c-0.03,0.06-0.04,0.13-0.03,0.2  c0.02,0.07,0.07,0.12,0.12,0.17c1.27,0.71,2.44-0.09,3.37-0.73c0.41-0.28,0.8-0.56,1.11-0.63c-0.16-0.03-0.31-0.06-0.46-0.08h-0.01  c-0.13-0.03-0.26-0.06-0.38-0.08c-0.18,0.11-0.37,0.23-0.56,0.37c-0.83,0.57-1.68,1.15-2.57,0.82c0.42-0.6,0.93-1.1,1.49-1.48  c0.16-0.12,0.31-0.22,0.48-0.31c0.06-0.04,0.11-0.08,0.18-0.1c0,0,0-0.01,0.01,0c1.53-0.86,3.3-1.03,4.68-0.86  c1.71,0.21,3,0.95,3.3,1.87c0.07,0.21,0.08,0.42,0.03,0.63c0.09,0.02,0.17,0.03,0.26,0.07c0.08,0.01,0.17,0.03,0.24,0.06  C91.93,105.13,91.89,104.82,91.81,104.56z M103.31,107.49c-0.09,0-0.18,0-0.28-0.01c0.09,0.01,0.19,0.01,0.28,0.02  c4.6,0.28,6.86-0.4,6.9-0.41C108.04,107.46,105.69,107.56,103.31,107.49z M91.81,104.56c-0.37-1.12-1.79-1.98-3.73-2.22  c-1.63-0.21-3.78,0.07-5.54,1.23c-0.06,0.03-0.11,0.07-0.17,0.11c-0.14,0.1-0.28,0.2-0.42,0.31c-0.51,0.43-0.98,0.96-1.38,1.58  c-0.03,0.06-0.04,0.13-0.03,0.2c0.02,0.07,0.07,0.12,0.12,0.17c1.27,0.71,2.44-0.09,3.37-0.73c0.41-0.28,0.8-0.56,1.11-0.63  c-0.16-0.03-0.31-0.06-0.46-0.08h-0.01c-0.13-0.03-0.26-0.06-0.38-0.08c-0.18,0.11-0.37,0.23-0.56,0.37  c-0.83,0.57-1.68,1.15-2.57,0.82c0.42-0.6,0.93-1.1,1.49-1.48c0.16-0.12,0.31-0.22,0.48-0.31c0.06-0.04,0.11-0.08,0.18-0.1  c0,0,0-0.01,0.01,0c1.53-0.86,3.3-1.03,4.68-0.86c1.71,0.21,3,0.95,3.3,1.87c0.07,0.21,0.08,0.42,0.03,0.63  c0.09,0.02,0.17,0.03,0.26,0.07c0.08,0.01,0.17,0.03,0.24,0.06C91.93,105.13,91.89,104.82,91.81,104.56z M103.31,107.49  c-0.09,0-0.18,0-0.28-0.01c0.09,0.01,0.19,0.01,0.28,0.02c4.6,0.28,6.86-0.4,6.9-0.41C108.04,107.46,105.69,107.56,103.31,107.49z   M88.08,102.34c-1.63-0.21-3.78,0.07-5.54,1.23c-0.06,0.03-0.11,0.07-0.17,0.11c-0.14,0.1-0.28,0.2-0.42,0.31  c-0.51,0.43-0.98,0.96-1.38,1.58c-0.03,0.06-0.04,0.13-0.03,0.2c0.02,0.07,0.07,0.12,0.12,0.17c1.27,0.71,2.44-0.09,3.37-0.73  c0.41-0.28,0.8-0.56,1.11-0.63c-0.16-0.03-0.31-0.06-0.46-0.08h-0.01c-0.13-0.03-0.26-0.06-0.38-0.08  c-0.18,0.11-0.37,0.23-0.56,0.37c-0.83,0.57-1.68,1.15-2.57,0.82c0.42-0.6,0.93-1.1,1.49-1.48c0.16-0.12,0.31-0.22,0.48-0.31  c0.06-0.04,0.11-0.08,0.18-0.1c0,0,0-0.01,0.01,0c1.53-0.86,3.3-1.03,4.68-0.86c1.71,0.21,3,0.95,3.3,1.87  c0.07,0.21,0.08,0.42,0.03,0.63c0.09,0.02,0.17,0.03,0.26,0.07c0.08,0.01,0.17,0.03,0.24,0.06c0.08-0.36,0.03-0.67-0.04-0.92  C91.44,103.44,90.02,102.58,88.08,102.34z M121.28,94.36c0-0.11-0.01-0.22-0.03-0.33c-0.2-1.87-0.69-3.91-1.46-6.14  C115.5,75.3,106.3,53.71,92.93,50.39c-0.09-0.02-0.19-0.04-0.3-0.07c-0.12-0.03-0.27-0.06-0.41-0.09c0,0-0.01-0.01-0.01,0  c-0.14-0.02-0.29-0.06-0.46-0.08c-1.03-0.18-2.47-0.38-4.17-0.58h-0.01c-0.01,0-0.01,0-0.02,0c-0.78-0.09-1.61-0.18-2.49-0.27  c-0.09,0-0.18-0.01-0.28-0.02c-0.02,0-0.04-0.01-0.07-0.01c-0.07,0-0.13-0.01-0.2-0.02h-0.06c-0.09-0.01-0.17-0.01-0.26-0.02  c-4.2-0.39-9.24-0.71-13.81-0.76h-0.24c-0.01,0-0.02,0-0.02,0h-0.03c0,0,0,0-0.01,0h-0.19c-0.01,0-0.02,0-0.02,0h-0.32  c-0.43,0-0.82,0-1.2,0.01h-0.61c-0.23,0.01-0.46,0.01-0.68,0.02c-1.28,0.03-2.48,0.1-3.59,0.2c-0.2,0.02-0.4,0.04-0.6,0.07  c-0.2,0.02-0.4,0.04-0.59,0.07C61,49,59.92,49.22,59.09,49.51c-7.26,2.51-12.39,10.58-16.14,16.47c-1.17,1.85-2.2,3.46-3.08,4.55  c-0.77-1.8-1.57-3.75-2.4-5.81c-2.46-6.05-5-12.29-7.61-16.15c-0.04-0.07-0.11-0.11-0.2-0.11c-0.08,0-0.16,0.03-0.21,0.1  c-0.13,0.17-0.27,0.33-0.4,0.49c-0.07,0.08-0.13,0.16-0.19,0.23c-0.07,0.08-0.12,0.16-0.19,0.23v0.01  c-0.11,0.14-0.22,0.28-0.33,0.41c-0.11,0.13-0.21,0.27-0.32,0.4c-0.14,0.19-0.29,0.37-0.43,0.54c-0.03,0.06-0.09,0.11-0.13,0.17  c-1.23,1.55-2.32,2.88-3.38,3.74c-0.21,0.19-0.4,0.36-0.57,0.47c-0.09,0.07-0.17,0.11-0.23,0.16c-0.09,0.06-0.18,0.11-0.27,0.17  c-0.36,0.19-0.7,0.32-1.05,0.4c-0.12,0.03-0.21,0.16-0.2,0.29c1.27,9.89,3.28,17.89,6.01,23.81c2.46,5.33,5.36,8.61,8.41,9.51  c2.82,0.83,5.35,0.19,7.95-2.02c2.31-1.98,4.49-5.06,6.81-8.32c0.9-1.26,1.81-2.56,2.79-3.86c-0.13,2.98-0.4,5.85-0.64,8.63  c-0.56,6.15-1.09,11.96-0.3,18.47c0.03,0.26,0.07,0.51,0.1,0.76v0.04c0.08,0.49,0.17,0.93,0.27,1.36v0.09  c0.42,2.14,1.06,3.67,1.89,4.6c0.09,0.11,0.18,0.2,0.28,0.28c0.46,0.43,0.98,0.69,1.55,0.78c3.77,0.57,9.21,1.08,14.72,1.08  c1,0,2-0.02,3-0.06c0.09,0,0.18,0,0.27-0.01c0.09,0,0.18,0,0.28-0.01c6.54-0.29,12.69-1.46,15.71-4.28c0.21-0.2,0.39-0.39,0.53-0.58  c3.49,0.71,7.48,1.31,11.4,1.46h0.11c0.01,0.01,0.01,0.01,0.02,0c0.01,0.01,0.01,0,0.01,0h0.01c0.02,0.01,0.06,0.01,0.08,0.01h0.2  c0.09,0.01,0.19,0.01,0.28,0.01c0.18,0.01,0.34,0.01,0.52,0.01c0.79,0.01,1.55,0,2.28-0.04c0.2,0,0.39,0,0.57-0.01  c0.72-0.04,1.41-0.11,2.08-0.19h0.01c0.48-0.06,0.92-0.13,1.37-0.19c0.02,0,0.03-0.01,0.04-0.01c0.01,0,0.02-0.01,0.03-0.01  c2.98-0.52,5.37-1.48,7.15-2.89c0.08-0.06,0.16-0.11,0.22-0.18c0.33-0.28,0.63-0.57,0.92-0.87c0.7-0.76,1.27-1.62,1.69-2.57  c0.04-0.08,0.08-0.17,0.11-0.24c0.28-0.66,0.49-1.36,0.62-2.09c0.02-0.09,0.04-0.18,0.06-0.27c0.12-0.68,0.19-1.39,0.19-2.14  c0.01-0.1,0.01-0.21,0.01-0.31C121.37,95.49,121.34,94.93,121.28,94.36z M120.69,98.19c-0.01,0.09-0.03,0.19-0.06,0.28  c-0.12,0.75-0.32,1.43-0.6,2.08c-0.02,0.09-0.06,0.17-0.1,0.24c-0.28,0.66-0.63,1.26-1.07,1.81c-0.03,0.07-0.09,0.13-0.17,0.2  c-0.11,0.17-0.24,0.32-0.39,0.48c-0.31,0.33-0.66,0.66-1.01,0.93c-0.07,0.07-0.13,0.12-0.21,0.18c-1.81,1.38-4.17,2.22-6.81,2.67  c-0.02,0.01-0.04,0.02-0.08,0.02c-2.17,0.37-4.52,0.47-6.9,0.4c-0.09,0-0.18,0-0.28-0.01c-0.09,0-0.18-0.01-0.28-0.01  c-1.43-0.06-2.88-0.17-4.29-0.33c0,0-0.01,0-0.02,0c-1.9-0.21-3.75-0.5-5.47-0.82c-0.44-0.08-0.88-0.16-1.3-0.24  c0.01-0.02,0.02-0.06,0.03-0.08c0.06-0.11,0.09-0.22,0.12-0.32c0.01-0.06,0.03-0.12,0.03-0.18c0.08-0.36,0.03-0.67-0.04-0.92  c-0.37-1.12-1.79-1.98-3.73-2.22c-1.63-0.21-3.78,0.07-5.54,1.23c-0.06,0.03-0.11,0.07-0.17,0.11c-0.14,0.1-0.28,0.2-0.42,0.31  c-0.51,0.43-0.98,0.96-1.38,1.58c-0.03,0.06-0.04,0.13-0.03,0.2c0.02,0.07,0.07,0.12,0.12,0.17c1.27,0.71,2.44-0.09,3.37-0.73  c0.41-0.28,0.8-0.56,1.11-0.63c0,0,0,0,0.01,0c0.09-0.01,0.17-0.01,0.24,0.01c0.03,0.01,0.07,0.03,0.1,0.06  c0.12,0.08,0.23,0.24,0.33,0.5c0.03,0.08,0.1,0.13,0.18,0.16c1.41,0.37,3.03,0.76,4.78,1.12c-0.09,0.11-0.19,0.21-0.31,0.32  c-2.46,2.3-7.58,3.73-14.82,4.11c-0.23,0.01-0.47,0.02-0.7,0.03c-0.09,0-0.18,0.01-0.27,0.01c-0.09,0-0.18,0-0.28,0.01  c-5.18,0.18-11.3-0.14-16.75-0.92c-0.09-0.01-0.18-0.02-0.26-0.03c-0.17-0.02-0.32-0.04-0.48-0.07c-0.62-0.1-1.17-0.43-1.63-1.01  l-0.01-0.01c-0.09-0.11-0.18-0.22-0.27-0.36c-0.81-1.23-1.39-3.26-1.73-6.07c-0.78-6.46-0.26-12.24,0.3-18.37  c0.27-2.9,0.54-5.89,0.67-9.04c0.01-0.14,0.01-0.3,0.02-0.44c0-0.11-0.07-0.21-0.18-0.26c-0.02-0.01-0.06-0.01-0.09-0.01  c-0.08,0-0.16,0.03-0.2,0.1c-0.02,0.02-0.03,0.04-0.04,0.07c-0.01,0.01-0.01,0.01-0.01,0.02c-1.15,1.51-2.21,2.99-3.25,4.45  c-4.69,6.63-8.41,11.86-14.19,10.14c-2.89-0.85-5.68-4.05-8.07-9.23c-2.65-5.74-4.69-13.84-5.94-23.42  c1.99-0.56,3.83-2.87,6.13-5.77c0.39-0.49,0.79-0.99,1.2-1.5c2.51,3.83,4.97,9.89,7.36,15.75c0.89,2.21,1.75,4.29,2.57,6.21  c0.03,0.09,0.11,0.14,0.2,0.16c0.09,0.01,0.18-0.02,0.23-0.09c0.97-1.1,2.09-2.87,3.39-4.93c3.7-5.83,8.77-13.81,15.88-16.25  c0.6-0.21,1.32-0.38,2.16-0.51c0.17-0.03,0.32-0.06,0.49-0.08h0.01c0.18-0.03,0.37-0.06,0.56-0.08c1.31-0.17,2.81-0.27,4.44-0.31  c0.09-0.01,0.18-0.01,0.27-0.01h0.27c0.29-0.01,0.59-0.01,0.9-0.02c0.38,0,0.78-0.01,1.23-0.01h0.48c0,0,0.01,0,0.02,0h0.28  c4.53,0.03,9.53,0.36,13.7,0.75c0.09,0.01,0.18,0.01,0.27,0.02h0.01c0.04,0.01,0.08,0.01,0.12,0.02c0.04,0,0.09,0,0.12,0.01h0.08  c0.02,0,0.04,0,0.07,0.01c0.09,0,0.18,0.01,0.26,0.02c0.89,0.09,1.73,0.18,2.52,0.27l0.23,0.03c1.22,0.13,2.3,0.28,3.18,0.42h0.01  c0.2,0.03,0.4,0.06,0.58,0.09c0.2,0.03,0.39,0.07,0.56,0.1c0.29,0.06,0.52,0.11,0.72,0.16c6.12,1.51,12.02,7.17,17.55,16.82  c3.28,5.69,6.29,12.54,8.95,20.34c0.69,2.02,1.15,3.9,1.37,5.62c0.02,0.11,0.04,0.22,0.04,0.33c0.08,0.58,0.11,1.13,0.12,1.68  c0.01,0.11,0.01,0.22,0.01,0.32C120.85,96.77,120.79,97.49,120.69,98.19z M91.13,105.95c-1.86-0.38-3.53-0.78-4.86-1.13  c0-0.01-0.01-0.02-0.02-0.03c-0.08-0.18-0.18-0.32-0.28-0.43c-0.08-0.09-0.16-0.14-0.24-0.19l-0.01-0.01  c-0.06-0.02-0.1-0.04-0.16-0.07c-0.11-0.03-0.22-0.04-0.33-0.02c-0.01-0.01-0.02-0.01-0.03,0c-0.11,0-0.22,0.03-0.33,0.07  c-0.01,0-0.01,0-0.01,0c-0.18,0.07-0.36,0.17-0.55,0.29c-0.18,0.11-0.37,0.23-0.56,0.37c-0.83,0.57-1.68,1.15-2.57,0.82  c0.42-0.6,0.93-1.1,1.49-1.48c0.16-0.12,0.31-0.22,0.48-0.31c0.06-0.04,0.11-0.08,0.18-0.1c0,0,0-0.01,0.01,0  c1.53-0.86,3.3-1.03,4.68-0.86c1.71,0.21,3,0.95,3.3,1.87c0.07,0.21,0.08,0.42,0.03,0.63c-0.01,0.06-0.02,0.11-0.03,0.18  c-0.04,0.1-0.08,0.21-0.14,0.32C91.16,105.9,91.15,105.92,91.13,105.95z M91.81,104.56c-0.37-1.12-1.79-1.98-3.73-2.22  c-1.63-0.21-3.78,0.07-5.54,1.23c-0.06,0.03-0.11,0.07-0.17,0.11c-0.14,0.1-0.28,0.2-0.42,0.31c-0.51,0.43-0.98,0.96-1.38,1.58  c-0.03,0.06-0.04,0.13-0.03,0.2c0.02,0.07,0.07,0.12,0.12,0.17c1.27,0.71,2.44-0.09,3.37-0.73c0.41-0.28,0.8-0.56,1.11-0.63  c-0.16-0.03-0.31-0.06-0.46-0.08h-0.01c-0.13-0.03-0.26-0.06-0.38-0.08c-0.18,0.11-0.37,0.23-0.56,0.37  c-0.83,0.57-1.68,1.15-2.57,0.82c0.42-0.6,0.93-1.1,1.49-1.48c0.16-0.12,0.31-0.22,0.48-0.31c0.06-0.04,0.11-0.08,0.18-0.1  c0,0,0-0.01,0.01,0c1.53-0.86,3.3-1.03,4.68-0.86c1.71,0.21,3,0.95,3.3,1.87c0.07,0.21,0.08,0.42,0.03,0.63  c0.09,0.02,0.17,0.03,0.26,0.07c0.08,0.01,0.17,0.03,0.24,0.06C91.93,105.13,91.89,104.82,91.81,104.56z M103.31,107.49  c-0.09,0-0.18,0-0.28-0.01c0.09,0.01,0.19,0.01,0.28,0.02c4.6,0.28,6.86-0.4,6.9-0.41C108.04,107.46,105.69,107.56,103.31,107.49z   M91.81,104.56c-0.37-1.12-1.79-1.98-3.73-2.22c-1.63-0.21-3.78,0.07-5.54,1.23c-0.06,0.03-0.11,0.07-0.17,0.11  c-0.14,0.1-0.28,0.2-0.42,0.31c-0.51,0.43-0.98,0.96-1.38,1.58c-0.03,0.06-0.04,0.13-0.03,0.2c0.02,0.07,0.07,0.12,0.12,0.17  c1.27,0.71,2.44-0.09,3.37-0.73c0.41-0.28,0.8-0.56,1.11-0.63c-0.16-0.03-0.31-0.06-0.46-0.08h-0.01c-0.13-0.03-0.26-0.06-0.38-0.08  c-0.18,0.11-0.37,0.23-0.56,0.37c-0.83,0.57-1.68,1.15-2.57,0.82c0.42-0.6,0.93-1.1,1.49-1.48c0.16-0.12,0.31-0.22,0.48-0.31  c0.06-0.04,0.11-0.08,0.18-0.1c0,0,0-0.01,0.01,0c1.53-0.86,3.3-1.03,4.68-0.86c1.71,0.21,3,0.95,3.3,1.87  c0.07,0.21,0.08,0.42,0.03,0.63c0.09,0.02,0.17,0.03,0.26,0.07c0.08,0.01,0.17,0.03,0.24,0.06  C91.93,105.13,91.89,104.82,91.81,104.56z M103.31,107.49c-0.09,0-0.18,0-0.28-0.01c0.09,0.01,0.19,0.01,0.28,0.02  c4.6,0.28,6.86-0.4,6.9-0.41C108.04,107.46,105.69,107.56,103.31,107.49z"/>
  <g>
    <path class="st2" d="M70.43,36.08c0.24,4.84,0.06,9.7-0.53,14.51c-0.05,0.4-0.1,0.82,0.05,1.2c0.15,0.39,0.48,0.67,0.81,0.92   c2.29,1.72,4.26,6.4,7.09,5.95c2.83-0.45,6.41-6.18,6.97-9.22c-0.78-4.03-2.18-9.69-3.06-16.12   C78.24,34.48,74.59,35.26,70.43,36.08z"/>
    <path class="st3" d="M81.97,54.85c-0.11,0.17-0.23,0.32-0.36,0.49c0.19-0.14,0.38-0.3,0.58-0.43c0.03-0.03,0.08-0.06,0.11-0.09   c0.03-0.03,0.07-0.08,0.09-0.12v-0.01c0.03-0.06,0.06-0.12,0.07-0.18c0.04-0.1,0.08-0.19,0.11-0.29c0.08-0.21,0.16-0.42,0.22-0.62   C82.53,54.02,82.26,54.44,81.97,54.85z M76.26,58.07c-1.05-0.57-2.01-1.78-2.95-2.97c-0.08-0.1-0.16-0.2-0.24-0.3   c-0.37-0.47-0.72-0.91-1.09-1.3c-0.34-0.39-0.7-0.72-1.07-1c-0.28-0.21-0.59-0.47-0.72-0.8c-0.12-0.32-0.08-0.71-0.03-1.08   c0.02-0.18,0.04-0.34,0.06-0.52c0.03-0.19,0.06-0.38,0.07-0.58c0.02-0.17,0.04-0.34,0.06-0.52c0.01-0.01,0.01-0.02,0.01-0.03   s0-0.02-0.01-0.04c0.02-0.06,0.02-0.12,0.02-0.19c0.02-0.08,0.02-0.16,0.03-0.24c0.1-0.97,0.18-1.94,0.23-2.9   c-0.04,0.34-0.11,0.68-0.18,1.03c-0.1,0.53-0.21,1.13-0.3,1.87v0.03c0,0.07-0.01,0.14-0.02,0.21c-0.01,0.09-0.01,0.18-0.02,0.27   c0,0.01,0,0.01,0,0.02c-0.02,0.21-0.03,0.44-0.04,0.69c-0.02,0.67-0.02,1.42,0.02,2.32c0,0.14,0.01,0.29,0.02,0.44   c0.16,0.16,0.32,0.3,0.5,0.43c0.78,0.59,1.52,1.52,2.3,2.51c0.73,0.92,1.47,1.86,2.27,2.55c0,0,0,0.01,0.01,0.01   c0.19,0.03,0.37,0.06,0.54,0.08c0.09,0.07,0.19,0.12,0.28,0.18c0.06,0.01,0.1,0.01,0.16,0.01c0.14,0,0.28-0.01,0.42-0.02   C76.47,58.18,76.37,58.13,76.26,58.07z M81.97,54.85c-0.11,0.17-0.23,0.32-0.36,0.49c0.19-0.16,0.38-0.3,0.58-0.43   c0.03-0.03,0.08-0.06,0.11-0.09c0.03-0.03,0.07-0.08,0.09-0.12v-0.01c0.03-0.06,0.06-0.12,0.07-0.18c0.04-0.1,0.08-0.19,0.11-0.29   c0.08-0.21,0.16-0.42,0.22-0.62C82.53,54.02,82.26,54.44,81.97,54.85z M73.32,55.1c-0.08-0.1-0.16-0.2-0.24-0.3   c-0.37-0.47-0.72-0.91-1.09-1.3c-0.34-0.39-0.7-0.72-1.07-1c-0.28-0.21-0.59-0.47-0.72-0.8c-0.12-0.32-0.08-0.71-0.03-1.08   c0.02-0.18,0.04-0.34,0.06-0.52c0.03-0.19,0.06-0.38,0.07-0.58c0.02-0.17,0.04-0.34,0.06-0.52c0.01-0.01,0.01-0.02,0.01-0.03   s0-0.02-0.01-0.04c0.02-0.06,0.02-0.12,0.02-0.19c0.02-0.08,0.02-0.16,0.03-0.24c0.1-0.97,0.18-1.94,0.23-2.9   c-0.04,0.34-0.11,0.68-0.18,1.03c-0.1,0.53-0.21,1.13-0.3,1.87v0.03c0,0.07-0.01,0.14-0.02,0.21c-0.01,0.09-0.01,0.18-0.02,0.27   c0,0.01,0,0.01,0,0.02c-0.02,0.21-0.03,0.44-0.04,0.69c-0.02,0.67-0.02,1.42,0.02,2.32c0,0.14,0.01,0.29,0.02,0.44   c0.16,0.16,0.32,0.3,0.5,0.43c0.78,0.59,1.52,1.52,2.3,2.51c0.73,0.92,1.47,1.86,2.27,2.55c0,0,0,0.01,0.01,0.01   c0.19,0.03,0.37,0.06,0.54,0.08c0.09,0.07,0.19,0.12,0.28,0.18c0.06,0.01,0.1,0.01,0.16,0.01c0.14,0,0.28-0.01,0.42-0.02   c-0.11-0.04-0.21-0.09-0.32-0.16C75.22,57.5,74.25,56.29,73.32,55.1z M85.06,49.31C85,49,84.94,48.68,84.87,48.35   c-0.08-0.39-0.17-0.79-0.26-1.2c-0.03-0.19-0.07-0.38-0.12-0.57c-0.06-0.3-0.12-0.61-0.19-0.92c-0.02-0.07-0.03-0.12-0.04-0.19   c-0.01-0.03-0.01-0.07-0.02-0.11c-0.27-1.26-0.56-2.64-0.86-4.09c-0.01-0.1-0.03-0.19-0.06-0.29c-0.01-0.09-0.03-0.18-0.06-0.28   c-0.46-2.3-0.9-4.8-1.26-7.42C82,33.2,81.96,33.13,81.9,33.1c-0.07-0.04-0.16-0.06-0.22-0.03c-3.37,1.11-6.82,1.88-11.3,2.76   c-0.12,0.02-0.21,0.13-0.21,0.27c0.09,1.85,0.12,3.7,0.09,5.56c0.01,0.1,0.01,0.19-0.01,0.29c0.01,0.1,0.01,0.2,0,0.3   c-0.01,1.03-0.06,2.08-0.12,3.11c0,0.1-0.01,0.19-0.01,0.29c-0.07,0.95-0.14,1.88-0.24,2.82v0.01c0,0.08-0.01,0.16-0.02,0.24   c0,0.09-0.01,0.18-0.03,0.27V49c-0.04,0.51-0.1,1.03-0.17,1.55c-0.06,0.42-0.11,0.89,0.06,1.32c0.03,0.08,0.07,0.16,0.12,0.22   c0.07,0.14,0.17,0.27,0.28,0.38c0.16,0.16,0.32,0.3,0.5,0.43c0.78,0.59,1.52,1.52,2.3,2.51c0.73,0.92,1.47,1.86,2.27,2.55   c0,0,0,0.01,0.01,0.01c0.09,0.07,0.16,0.12,0.24,0.2c0.01,0.01,0.01,0.01,0.02,0.01c0.62,0.47,1.29,0.76,2.01,0.76   c0.14,0,0.28-0.01,0.42-0.04c1.36-0.21,2.89-1.58,4.19-3.31c0-0.01,0.01-0.01,0.01-0.01c0.19-0.26,0.38-0.52,0.56-0.8   c0.08-0.1,0.14-0.21,0.21-0.31c0.06-0.08,0.1-0.14,0.13-0.22c0.11-0.16,0.21-0.32,0.3-0.49c0-0.01,0.01-0.01,0.01-0.01   c0.79-1.33,1.4-2.72,1.68-3.86c0.01-0.02,0.01-0.03,0.01-0.06c0.02-0.07,0.03-0.14,0.04-0.21c0.01-0.01,0.01-0.03,0.01-0.04   c0.01-0.03,0.02-0.06,0.02-0.09c0.01-0.03,0.01-0.07,0-0.1c0-0.01,0-0.01,0-0.02C85.06,49.35,85.06,49.32,85.06,49.31z    M83.61,52.06c-0.24,0.5-0.52,1.02-0.82,1.53c-0.26,0.42-0.53,0.85-0.82,1.26c-0.11,0.17-0.23,0.32-0.36,0.49   c-1.2,1.6-2.59,2.86-3.8,3.05c-0.42,0.07-0.8,0-1.2-0.17c-0.01,0-0.01,0-0.02,0c-0.11-0.04-0.21-0.09-0.32-0.16   c-1.05-0.57-2.01-1.78-2.95-2.97c-0.08-0.1-0.16-0.2-0.24-0.3c-0.37-0.47-0.72-0.91-1.09-1.3c-0.34-0.39-0.7-0.72-1.07-1   c-0.28-0.21-0.59-0.47-0.72-0.8c-0.12-0.32-0.08-0.71-0.03-1.08c0.02-0.18,0.04-0.34,0.06-0.52c0.03-0.19,0.06-0.38,0.07-0.58   c0.02-0.17,0.04-0.34,0.06-0.52c0.01-0.01,0.01-0.02,0.01-0.03s0-0.02-0.01-0.04c0.02-0.06,0.02-0.12,0.02-0.19   c0.02-0.08,0.02-0.16,0.03-0.24c0.1-0.97,0.18-1.94,0.23-2.9v-0.03c0.07-1.02,0.11-2.04,0.13-3.06c0.01-0.09,0.01-0.19,0-0.29   c0.01-0.09,0.01-0.18,0-0.28c0.06-1.88,0.03-3.76-0.06-5.63c4.26-0.83,7.6-1.58,10.84-2.64c0.37,2.6,0.81,5.09,1.28,7.38   c0.01,0.09,0.03,0.19,0.06,0.28c0.01,0.09,0.03,0.19,0.06,0.28c0.28,1.4,0.56,2.71,0.81,3.93c0,0.01,0,0.01,0,0.02   c0,0.03,0.01,0.08,0.03,0.12c0,0.01,0.01,0.01,0.01,0.02c0.19,0.95,0.38,1.86,0.55,2.69c0.06,0.26,0.1,0.51,0.14,0.75v0.01   c0.01,0.04,0.02,0.08,0.03,0.12c0.01,0.07,0.02,0.12,0.03,0.18c0,0.03-0.01,0.06-0.02,0.09c0,0.01,0,0.03-0.01,0.06   c-0.01,0.07-0.02,0.13-0.04,0.2c-0.02,0.1-0.06,0.2-0.09,0.31c0,0.01,0,0.01,0,0.01c-0.04,0.18-0.11,0.37-0.18,0.56v0.01   c-0.16,0.43-0.36,0.9-0.58,1.38C83.62,52.05,83.62,52.05,83.61,52.06z M76.26,58.07c-1.05-0.57-2.01-1.78-2.95-2.97   c-0.08-0.1-0.16-0.2-0.24-0.3c-0.37-0.47-0.72-0.91-1.09-1.3c-0.34-0.39-0.7-0.72-1.07-1c-0.28-0.21-0.59-0.47-0.72-0.8   c-0.12-0.32-0.08-0.71-0.03-1.08c0.02-0.18,0.04-0.34,0.06-0.52c0.03-0.19,0.06-0.38,0.07-0.58c0.02-0.17,0.04-0.34,0.06-0.52   c0.01-0.01,0.01-0.02,0.01-0.03s0-0.02-0.01-0.04c0.02-0.06,0.02-0.12,0.02-0.19c0.02-0.08,0.02-0.16,0.03-0.24   c0.1-0.97,0.18-1.94,0.23-2.9c-0.04,0.34-0.11,0.68-0.18,1.03c-0.1,0.53-0.21,1.13-0.3,1.87v0.03c0,0.07-0.01,0.14-0.02,0.21   c-0.01,0.09-0.01,0.18-0.02,0.27c0,0.01,0,0.01,0,0.02c-0.02,0.21-0.03,0.44-0.04,0.69c-0.02,0.67-0.02,1.42,0.02,2.32   c0,0.14,0.01,0.29,0.02,0.44c0.16,0.16,0.32,0.3,0.5,0.43c0.78,0.59,1.52,1.52,2.3,2.51c0.73,0.92,1.47,1.86,2.27,2.55   c0,0,0,0.01,0.01,0.01c0.19,0.03,0.37,0.06,0.54,0.08c0.09,0.07,0.19,0.12,0.28,0.18c0.06,0.01,0.1,0.01,0.16,0.01   c0.14,0,0.28-0.01,0.42-0.02C76.47,58.18,76.37,58.13,76.26,58.07z M81.97,54.85c-0.11,0.17-0.23,0.32-0.36,0.49   c0.19-0.14,0.38-0.3,0.58-0.43c0.03-0.03,0.08-0.06,0.11-0.09c0.03-0.03,0.07-0.08,0.09-0.12v-0.01c0.03-0.06,0.06-0.12,0.07-0.18   c0.04-0.1,0.08-0.19,0.11-0.29c0.08-0.21,0.16-0.42,0.22-0.62C82.53,54.02,82.26,54.44,81.97,54.85z M76.26,58.07   c-1.05-0.57-2.01-1.78-2.95-2.97c-0.08-0.1-0.16-0.2-0.24-0.3c-0.37-0.47-0.72-0.91-1.09-1.3c-0.34-0.39-0.7-0.72-1.07-1   c-0.28-0.21-0.59-0.47-0.72-0.8c-0.12-0.32-0.08-0.71-0.03-1.08c0.02-0.18,0.04-0.34,0.06-0.52c0.03-0.19,0.06-0.38,0.07-0.58   c0.02-0.17,0.04-0.34,0.06-0.52c0.01-0.01,0.01-0.02,0.01-0.03s0-0.02-0.01-0.04c0.02-0.06,0.02-0.12,0.02-0.19   c0.02-0.08,0.02-0.16,0.03-0.24c0.1-0.97,0.18-1.94,0.23-2.9c-0.04,0.34-0.11,0.68-0.18,1.03c-0.1,0.53-0.21,1.13-0.3,1.87v0.03   c0,0.07-0.01,0.14-0.02,0.21c-0.01,0.09-0.01,0.18-0.02,0.27c0,0.01,0,0.01,0,0.02c-0.02,0.21-0.03,0.44-0.04,0.69   c-0.02,0.67-0.02,1.42,0.02,2.32c0,0.14,0.01,0.29,0.02,0.44c0.16,0.16,0.32,0.3,0.5,0.43c0.78,0.59,1.52,1.52,2.3,2.51   c0.73,0.92,1.47,1.86,2.27,2.55c0,0,0,0.01,0.01,0.01c0.19,0.03,0.37,0.06,0.54,0.08c0.09,0.07,0.19,0.12,0.28,0.18   c0.06,0.01,0.1,0.01,0.16,0.01c0.14,0,0.28-0.01,0.42-0.02C76.47,58.18,76.37,58.13,76.26,58.07z M81.97,54.85   c-0.11,0.17-0.23,0.32-0.36,0.49c0.19-0.14,0.38-0.3,0.58-0.43c0.03-0.03,0.08-0.06,0.11-0.09c0.03-0.03,0.07-0.08,0.09-0.12v-0.01   c0.03-0.06,0.06-0.12,0.07-0.18c0.04-0.1,0.08-0.19,0.11-0.29c0.08-0.21,0.16-0.42,0.22-0.62C82.53,54.02,82.26,54.44,81.97,54.85z   "/>
  </g>
  <g>
    <path d="M76.35,89.44c-0.03,0-0.06-0.01-0.07-0.04c-1.45-2.31-3-4.59-4.6-6.79c-0.03-0.04-0.02-0.09,0.02-0.12   c0.04-0.03,0.09-0.02,0.12,0.02c1.61,2.2,3.16,4.49,4.61,6.8c0.03,0.04,0.01,0.09-0.03,0.12C76.38,89.43,76.37,89.44,76.35,89.44z"/>
  </g>
  <g>
    <path d="M75.59,90.96c-0.03,0-0.05-0.01-0.07-0.03c-1.43-1.91-2.85-3.87-4.21-5.83c-0.03-0.04-0.02-0.09,0.02-0.12   c0.04-0.03,0.09-0.02,0.12,0.02c1.36,1.95,2.78,3.91,4.21,5.82c0.03,0.04,0.02,0.09-0.02,0.12C75.62,90.96,75.6,90.96,75.59,90.96z   "/>
  </g>
  <g>
    <path d="M74.89,92.9c-0.03,0-0.06-0.01-0.07-0.04l-2.25-3.46c-0.03-0.04-0.01-0.09,0.03-0.12c0.04-0.03,0.09-0.01,0.12,0.03   l2.25,3.46c0.03,0.04,0.01,0.09-0.03,0.12C74.93,92.9,74.91,92.9,74.89,92.9z"/>
  </g>
  <g>
    <polygon class="st4" points="103.72,109.56 92.27,74.91 65.91,83.58 77.21,118.74  "/>
    <path class="st3" d="M103.49,108.05v-0.02l-0.07-0.18l-0.02-0.08l-0.09-0.27v-0.01l-5.26-15.94l-0.09-0.26l-0.09-0.26l-0.86-2.62   l-0.42-1.27l-4.07-12.32c-0.04-0.13-0.19-0.21-0.33-0.17l-17.68,5.82l-0.53,0.18l-8.14,2.68c-0.13,0.04-0.21,0.19-0.17,0.32   l2.56,7.95l0.08,0.27l0.09,0.24l3.4,10.62l0.09,0.27l0.09,0.28l2.45,7.63l0.09,0.26l0.08,0.26l2.38,7.4   c0.02,0.07,0.07,0.12,0.13,0.16c0.03,0.01,0.08,0.02,0.11,0.02c0.03,0,0.06,0,0.09-0.01l26.51-9.19c0.13-0.04,0.2-0.19,0.16-0.32   L103.49,108.05z M77.37,118.41l-2.25-7.01l-0.09-0.27l-0.08-0.24l-2.44-7.56l-0.08-0.27l-0.09-0.26l-3.44-10.73l-0.09-0.24   l-0.08-0.27l-2.51-7.82l25.87-8.51l5.24,15.85l0.08,0.26l0.09,0.26l5.24,15.86v0.01l0.09,0.28l0.02,0.04l0.07,0.21v0.01l0.46,1.38   L77.37,118.41z"/>
  </g>
  <g>
    <path class="st2" d="M80.36,92.81c-5.15-0.44-8.1-1.34-12.38-0.92c-1.09,0.11-2.94,0.25-2.86,1.97c0.04,0.98,1.66,0.84,2.93,1.11   c-0.72,0.08-1.31,1.03-1.19,1.94c0.12,0.9,0.93,1.56,1.63,1.33c-0.41,0.43-0.54,1.24-0.28,1.83c0.25,0.59,0.86,0.9,1.37,0.71   c-0.23,0.57,0.04,1.3,0.46,1.66c0.42,0.36,0.94,0.45,1.45,0.53c3.68,0.55,6.1-0.87,10.96-0.87c0.51,0,0.89-0.51,1.27-0.9   c0.99-1,1.44-2.59,1.85-4.1c0.27-1,0.55-2.03,0.51-3.09C86.02,92.44,81.46,92.91,80.36,92.81z"/>
    <path class="st3" d="M81.42,92.56h-0.6c-0.08,0-0.17,0-0.23-0.01c-0.08,0.01-0.16,0.01-0.21,0c-0.03,0-0.08-0.01-0.11-0.01   c-0.07,0-0.13-0.01-0.2-0.01c-1.59-0.14-2.95-0.33-4.25-0.51c-0.5-0.07-0.99-0.13-1.47-0.19c-0.08-0.01-0.16-0.02-0.22-0.03   c-1.77-0.21-3.46-0.34-5.37-0.23c-0.09,0.01-0.18,0.01-0.27,0.02c-0.09,0-0.18,0.01-0.27,0.02c-0.09,0-0.18,0.01-0.27,0.02   l-0.08,0.01c-1.08,0.11-3.1,0.3-3.01,2.24c0.04,0.95,1.11,1.08,2.15,1.21c0.08,0,0.14,0.01,0.22,0.02   c-0.07,0.06-0.12,0.12-0.18,0.2c-0.36,0.46-0.52,1.07-0.45,1.65c0.08,0.57,0.4,1.09,0.86,1.37c0.17,0.11,0.36,0.18,0.53,0.21   c-0.22,0.5-0.24,1.13-0.02,1.63c0.23,0.57,0.75,0.92,1.27,0.92c-0.04,0.6,0.24,1.21,0.62,1.55c0.49,0.42,1.1,0.51,1.58,0.59   c0.18,0.02,0.36,0.04,0.52,0.06c0.1,0.02,0.19,0.02,0.28,0.02h0.01c0.09,0.02,0.18,0.02,0.27,0.02c0.23,0.02,0.46,0.02,0.68,0.02   c1.29,0,2.48-0.2,3.8-0.43c0.72-0.13,1.5-0.27,2.36-0.37c0.09-0.01,0.17-0.02,0.26-0.03c0.1-0.01,0.19-0.02,0.29-0.02   c0.48-0.06,0.97-0.1,1.5-0.12c0.06,0,0.11,0,0.18-0.01c0.28-0.01,0.57-0.01,0.86-0.01c0.12,0,0.24-0.02,0.36-0.07   c0.07-0.02,0.13-0.04,0.2-0.08c0.28-0.16,0.51-0.4,0.72-0.63c0.06-0.07,0.11-0.13,0.18-0.19c1.07-1.09,1.53-2.82,1.91-4.23   c0.27-0.96,0.57-2.06,0.52-3.17C86.28,92.5,83.36,92.54,81.42,92.56z M83.18,101.38c-0.08,0.08-0.14,0.14-0.22,0.21   c-0.17,0.14-0.33,0.24-0.51,0.24c-0.26,0-0.49,0-0.73,0.01h-0.18c-0.53,0.02-1.03,0.06-1.51,0.11c-0.1,0-0.2,0.01-0.29,0.03   c-0.09,0-0.18,0.01-0.26,0.02c-0.93,0.11-1.77,0.26-2.56,0.39c-1.58,0.28-2.97,0.52-4.56,0.4c-0.1-0.01-0.19-0.02-0.28-0.03   c-0.09,0-0.19-0.01-0.29-0.03c-0.09-0.01-0.18-0.02-0.27-0.03c-0.53-0.08-0.97-0.17-1.31-0.47c-0.33-0.28-0.58-0.89-0.39-1.37   c0.03-0.09,0.01-0.2-0.06-0.28c-0.06-0.04-0.12-0.08-0.19-0.08c-0.03,0-0.07,0.01-0.1,0.02c-0.37,0.14-0.83-0.11-1.02-0.57   c-0.22-0.5-0.11-1.19,0.22-1.55c0.09-0.09,0.1-0.22,0.03-0.32c-0.07-0.1-0.19-0.14-0.3-0.11c-0.21,0.08-0.45,0.03-0.67-0.1   c-0.33-0.21-0.57-0.59-0.62-1.01c-0.06-0.43,0.07-0.91,0.33-1.25c0.19-0.23,0.4-0.37,0.62-0.4c0.12-0.01,0.22-0.11,0.23-0.24   c0-0.12-0.08-0.23-0.21-0.27c-0.33-0.07-0.68-0.11-1.02-0.16c-1.05-0.12-1.68-0.23-1.69-0.71c-0.07-1.33,1.17-1.56,2.55-1.69   L68,92.15c0.13-0.01,0.27-0.02,0.39-0.03c0.09-0.01,0.18-0.02,0.27-0.02c0.09-0.01,0.18-0.01,0.27-0.02   c1.97-0.1,3.71,0.07,5.57,0.3h0.01c0.08,0.01,0.14,0.02,0.22,0.03c0.33,0.04,0.68,0.09,1.02,0.13c1.28,0.17,2.72,0.37,4.37,0.51   c0.07,0.01,0.12,0.01,0.19,0.02c0.01,0,0.01,0,0.02,0c0.09,0.01,0.2,0.01,0.32,0.01h0.78c1.41-0.02,4.35-0.06,4.39,0.92   c0.03,1.03-0.24,2.04-0.51,3.01c-0.37,1.33-0.81,3-1.78,3.99c-0.07,0.07-0.13,0.13-0.2,0.2C83.28,101.27,83.24,101.33,83.18,101.38   z"/>
  </g>
  <g>
    <path class="st0" d="M110.28,107.34c0,0-2.79,2.13-17.08-1.34c-10.89-2.65-13.77-2.68-13.77-2.68s0.81-3.04,0.92-5.67   c0.14-3.16-0.14-5.79-0.14-5.79s17.87,0.03,23.48-1.32c5.61-1.35,6.66-2.07,6.66-2.07L110.28,107.34z"/>
  </g>
  <g>
    <path class="st3" d="M105.47,108.1c-2.94,0-7.24-0.4-13.01-1.93c-5.35-1.41-12.99-2.59-13.07-2.6c-0.08-0.01-0.14-0.06-0.18-0.12   c-0.04-0.07-0.05-0.15-0.02-0.22c0-0.01,0.47-1.32,0.87-5.19c0.4-3.88-0.09-6.1-0.1-6.12c-0.02-0.08,0-0.16,0.05-0.22   c0.05-0.06,0.12-0.1,0.2-0.1c0,0,0,0,0,0c0.22,0,21.86,0.36,27.09-2.48c0.13-0.07,0.28-0.02,0.35,0.1c0.07,0.13,0.02,0.28-0.1,0.35   c-5.06,2.74-24.2,2.59-27.03,2.55c0.13,0.76,0.37,2.81,0.05,5.97c-0.31,2.96-0.65,4.44-0.81,5.02c1.47,0.23,8.05,1.3,12.83,2.56   c11.86,3.13,17.55,1.44,17.61,1.42c0.14-0.04,0.28,0.03,0.33,0.17c0.04,0.14-0.03,0.28-0.17,0.33   C110.24,107.63,108.65,108.1,105.47,108.1z"/>
  </g>
  <g>
    <path class="st3" d="M96.86,88.47c-0.14,0-0.26-0.11-0.26-0.26l-0.16-15.56c0-0.14,0.11-0.26,0.26-0.26c0.14,0,0.26,0.11,0.26,0.26   l0.16,15.56C97.12,88.35,97.01,88.47,96.86,88.47C96.86,88.47,96.86,88.47,96.86,88.47z"/>
  </g>
  <g>
    <path class="st3" d="M102.5,90.94c-0.11,0-0.2-0.06-0.24-0.17c-1.56-4.19-3.29-7.69-5.61-11.36c-0.08-0.12-0.04-0.28,0.08-0.36   c0.12-0.08,0.28-0.04,0.36,0.08c2.34,3.7,4.08,7.23,5.66,11.45c0.05,0.13-0.02,0.28-0.15,0.33   C102.56,90.94,102.53,90.94,102.5,90.94z"/>
  </g>
  <g>
    <path d="M53.99,75.28c0,0-0.01,0-0.01,0c-0.14-0.01-0.25-0.13-0.25-0.27c0.12-2.71,0.52-5.42,1.2-8.05   c0.04-0.14,0.18-0.22,0.32-0.19c0.14,0.04,0.22,0.18,0.19,0.32c-0.67,2.59-1.06,5.27-1.18,7.94   C54.24,75.17,54.13,75.28,53.99,75.28z"/>
  </g>
  <g>
    <path class="st5" d="M95.12,16.23c-0.89,3.66-1.8,6.92-3.49,11.64c-0.8,2.25-2.07,4.7-3.47,6.69c-0.66,0.94-1.15,1.37-2.35,1.81   c0.02-1-0.97-1.59-1.04-2.6c-0.09-1.24,0.79-2.24,0.15-3.39c-1.22-2.18-1.97-4.53-2.21-6.88c-0.2-1.94-0.03-3.94,1.02-5.62   c1.05-1.68,3.13-2.97,5.46-2.92C90.97,15,93.83,14.99,95.12,16.23z"/>
    <path d="M95.3,16.04c-0.08-0.08-0.16-0.14-0.24-0.21c-0.06-0.04-0.11-0.09-0.18-0.12c-1.39-0.92-3.77-0.96-5.39-0.99l-0.28-0.01   c-0.11,0-0.23,0-0.34,0.01c-0.09,0-0.18,0-0.26,0.01c-0.09,0-0.17,0.01-0.26,0.02c-1.08,0.12-2.11,0.51-3,1.12   c-0.08,0.04-0.16,0.1-0.22,0.14c-0.08,0.06-0.14,0.11-0.22,0.18c-0.54,0.43-1.02,0.96-1.39,1.55c-0.88,1.4-1.25,3.11-1.1,5.22   c0,0.18,0.02,0.36,0.04,0.53v0.03c0.24,2.41,1,4.76,2.25,6.98c0.18,0.33,0.22,0.65,0.19,0.98c-0.02,0.21-0.08,0.43-0.14,0.68   c0,0.06-0.02,0.1-0.03,0.16c-0.11,0.46-0.23,0.93-0.2,1.47c0.04,0.56,0.31,0.98,0.57,1.38c0.26,0.39,0.49,0.76,0.48,1.2   c0,0.08,0.03,0.17,0.1,0.21c0.04,0.03,0.1,0.06,0.16,0.06c0.01,0,0.03,0,0.04-0.01c0.01,0,0.03-0.01,0.04-0.01   c0.1-0.03,0.19-0.07,0.28-0.11c0.11-0.04,0.22-0.09,0.32-0.13c0.88-0.41,1.32-0.88,1.87-1.66c0.82-1.17,1.6-2.5,2.27-3.87   c0.06-0.1,0.1-0.19,0.16-0.29v-0.01c0.04-0.11,0.1-0.22,0.14-0.33c0.36-0.76,0.67-1.51,0.93-2.25c0.18-0.49,0.34-0.97,0.5-1.42   c0.03-0.1,0.07-0.2,0.11-0.3v-0.01c0.02-0.1,0.06-0.19,0.09-0.28c0.75-2.19,1.32-4.06,1.81-5.86c0.03-0.11,0.07-0.22,0.09-0.32   c0.03-0.12,0.07-0.24,0.1-0.36c0.28-1.03,0.53-2.06,0.8-3.11C95.4,16.21,95.37,16.11,95.3,16.04z M93.87,20.04   c-0.02,0.1-0.06,0.2-0.08,0.3c-0.46,1.61-0.98,3.29-1.62,5.2c-0.03,0.09-0.06,0.18-0.09,0.27c-0.03,0.09-0.07,0.18-0.1,0.27v0.01   c-0.18,0.53-0.38,1.09-0.58,1.67c-0.01,0.01-0.01,0.01-0.01,0.02c-0.12,0.36-0.27,0.71-0.41,1.08c-0.21,0.5-0.43,1.01-0.68,1.52   c-0.04,0.1-0.1,0.21-0.16,0.31c-0.04,0.09-0.09,0.18-0.13,0.27c-0.61,1.22-1.32,2.4-2.06,3.45c-0.39,0.56-0.71,0.92-1.21,1.23   c-0.1,0.07-0.21,0.13-0.33,0.19c-0.1,0.06-0.21,0.1-0.32,0.16c-0.01,0-0.02,0.01-0.03,0.01c-0.09-0.42-0.31-0.77-0.52-1.11   c-0.24-0.37-0.47-0.71-0.49-1.13c-0.03-0.44,0.08-0.89,0.19-1.31c0.06-0.21,0.11-0.42,0.14-0.64c0.03-0.22,0.06-0.43,0.03-0.66   c-0.01-0.28-0.09-0.58-0.26-0.88c-1.18-2.14-1.91-4.38-2.17-6.67c0-0.03-0.01-0.08-0.01-0.11c-0.01-0.14-0.02-0.29-0.03-0.43   c-0.14-2.06,0.19-3.69,1.02-5.03c0.31-0.49,0.7-0.93,1.15-1.31c0.07-0.07,0.14-0.12,0.22-0.18c0.07-0.06,0.14-0.11,0.21-0.17   c0.86-0.6,1.87-0.99,2.93-1.1c0.09-0.01,0.17-0.01,0.26-0.02c0.08,0,0.17-0.01,0.26-0.01h0.5c1.67,0.03,4.16,0.08,5.36,1.09   c-0.07,0.29-0.14,0.58-0.21,0.86c-0.01,0,0,0.01,0,0.01c-0.06,0.2-0.11,0.4-0.16,0.6c-0.17,0.66-0.34,1.3-0.52,1.96   C93.92,19.84,93.9,19.94,93.87,20.04z"/>
  </g>
  <g>
    <path class="st2" d="M66.64,19.54c-0.3,3.28-1.43,6.44-1.92,9.7c-0.49,3.26-0.27,6.8,1.87,9.66c1.88,2.51,5.21,4.24,8.64,4.48   c3.43,0.25,6.89-0.99,8.98-3.22c1.96-2.09,3-7.13,3.62-9.64c1.48,0.45,3.23,0.23,4.29-0.68c1.06-0.91,1.29-2.5,0.38-3.6   c-0.91-1.1-2.22-1.44-3.94-0.25c0.41-2.08,0.35-4.18,0.32-5.14c-0.07-2.62,0.44-6.41-1.18-7.76c-0.92-0.76-2.96-1.61-4.11-2.09   c-1.98-0.83-5.02,0.05-7.17-0.26c-2.15-0.32-4.5,0.39-6.39,1.21C67.76,12.93,66.86,17.08,66.64,19.54z"/>
    <path class="st3" d="M92.69,26.07c-0.03-0.04-0.07-0.09-0.11-0.12c-0.07-0.08-0.13-0.14-0.2-0.21c-0.07-0.07-0.14-0.13-0.21-0.19   c-0.91-0.72-2.05-0.75-3.26-0.08c0.29-1.87,0.24-3.66,0.22-4.56v-1.06c0-0.24,0-0.49,0.01-0.75c0.02-1.3,0.04-2.7-0.17-3.88   c-0.01-0.09-0.03-0.18-0.04-0.27c-0.02-0.08-0.04-0.17-0.07-0.24c-0.19-0.76-0.5-1.4-1.01-1.82c-0.91-0.76-2.87-1.58-4.05-2.07   l-0.12-0.06c-1.22-0.51-2.8-0.41-4.33-0.3c-1.06,0.08-2.06,0.14-2.9,0.02c-1.84-0.28-4.04,0.13-6.53,1.22   c-2.54,1.1-3.3,5.69-3.5,7.37c-0.01,0.1-0.02,0.19-0.03,0.27c0,0.06-0.01,0.11-0.01,0.16c0,0.03-0.01,0.07-0.01,0.1   c-0.03,0.36-0.08,0.71-0.13,1.07c-0.02,0.17-0.04,0.34-0.08,0.51c-0.21,1.27-0.51,2.54-0.8,3.77c-0.22,0.93-0.46,1.89-0.65,2.85   c-0.06,0.24-0.1,0.5-0.13,0.75c-0.04,0.21-0.08,0.43-0.11,0.65c-0.61,4.04,0.03,7.35,1.91,9.85c0.98,1.3,2.32,2.39,3.87,3.19   c0.09,0.04,0.17,0.09,0.26,0.12c0.09,0.04,0.17,0.09,0.26,0.12c1.39,0.63,2.91,1.03,4.46,1.16c0.29,0.02,0.59,0.03,0.89,0.03   c2.5,0,4.95-0.76,6.83-2.08c0.08-0.04,0.14-0.1,0.22-0.14c0.08-0.07,0.14-0.12,0.22-0.19c0.37-0.29,0.7-0.59,1.01-0.92   c0.87-0.93,1.57-2.39,2.11-3.97c0.04-0.11,0.08-0.22,0.11-0.34c0.04-0.12,0.09-0.24,0.12-0.38c0.47-1.47,0.83-2.98,1.13-4.22   c0.04-0.21,0.09-0.4,0.13-0.59c0.67,0.17,1.36,0.2,2,0.12c0.11-0.01,0.21-0.02,0.31-0.06h0.01c0.11-0.01,0.21-0.03,0.31-0.07   c0.62-0.16,1.19-0.42,1.63-0.8C93.49,29.01,93.68,27.26,92.69,26.07z M90.94,30.21c-0.1,0.04-0.21,0.08-0.32,0.11h-0.01   c-0.11,0.03-0.2,0.06-0.31,0.07c-0.77,0.17-1.61,0.13-2.4-0.11c-0.07-0.02-0.14-0.01-0.2,0.02c-0.07,0.03-0.11,0.09-0.12,0.17   c-0.07,0.26-0.13,0.54-0.21,0.85c-0.31,1.3-0.72,3.04-1.28,4.68C86.05,36.1,86,36.2,85.97,36.3v0.01   c-0.04,0.11-0.08,0.21-0.11,0.31c-0.5,1.36-1.11,2.58-1.85,3.36c-0.23,0.24-0.48,0.49-0.75,0.71c-0.08,0.06-0.14,0.11-0.22,0.18   c-0.07,0.06-0.14,0.11-0.22,0.17c-2.02,1.5-4.79,2.28-7.57,2.08c-1.56-0.11-3.1-0.53-4.49-1.2c-0.08-0.04-0.17-0.08-0.24-0.12   c-0.09-0.04-0.17-0.09-0.26-0.14c-1.38-0.75-2.58-1.73-3.46-2.91c-1.8-2.39-2.41-5.57-1.82-9.46c0.01-0.08,0.02-0.17,0.04-0.24   c0.02-0.21,0.07-0.42,0.1-0.63c0.21-1.11,0.48-2.24,0.73-3.31c0.3-1.26,0.61-2.55,0.82-3.85c0.03-0.17,0.06-0.34,0.08-0.51   c0.06-0.39,0.11-0.77,0.14-1.16v-0.04c0.01-0.09,0.02-0.18,0.03-0.27c0.01-0.1,0.02-0.19,0.03-0.29c0.34-2.76,1.33-5.97,3.16-6.77   c1.94-0.85,3.68-1.27,5.18-1.27c0.37,0,0.72,0.02,1.07,0.08c0.9,0.13,1.98,0.06,3.01-0.01c1.47-0.1,2.98-0.21,4.09,0.26l0.12,0.06   c1.15,0.48,3.06,1.28,3.91,1.99c0.4,0.33,0.67,0.85,0.83,1.46c0.02,0.08,0.04,0.16,0.06,0.24c0.02,0.09,0.04,0.18,0.06,0.27   c0.21,1.15,0.18,2.54,0.16,3.84c0,0.19-0.01,0.38,0,0.56c-0.01,0.09-0.01,0.19-0.01,0.28v0.99c0.02,0.77,0.06,2.19-0.12,3.74   c-0.04,0.39-0.1,0.8-0.18,1.2v0.01c-0.01,0.02-0.01,0.06-0.01,0.08c-0.02,0.1,0.02,0.2,0.11,0.27c0.09,0.06,0.2,0.06,0.29-0.01   c0,0,0.01,0,0.01-0.01c0.02-0.01,0.06-0.03,0.08-0.04c1.26-0.85,2.32-0.86,3.19-0.07v0.01c0.08,0.06,0.14,0.12,0.21,0.2   c0.03,0.03,0.07,0.07,0.1,0.11c0.03,0.04,0.07,0.09,0.09,0.13c0.7,0.96,0.51,2.29-0.43,3.1C91.67,29.88,91.32,30.07,90.94,30.21z"/>
  </g>
  <g>
    <path class="st4" d="M77.32,15.62c-0.45,1.42-2.89,3.27-4.32,3.29c-1.43,0.02-1.9-0.68-2.35-2.09c-1.36,1-2.4,2.06-3.73,2.43   c-2.03,0.57-4.34-0.87-4.81-3c-0.47-2.13,1.01-4.53,3.06-4.98c-1.37,0.2-2.59-1.28-2.49-2.71c0.1-1.44,1.22-2.65,2.52-3.17   c1.29-0.52,2.73-0.47,4.13-0.54c-0.4-1.44,0.41-3.06,1.65-3.85c1.23-0.79,2.78-0.87,4.19-0.57c0.92,0.2,1.84,0.56,2.52,1.24   c0.68,0.67,1.1,1.7,0.96,2.74c1.38-1.46,3.48-2.34,5.34-1.72c1.85,0.62,3.07,3.06,3.08,4.67c1.02-1.05,2.31-1.87,3.72-1.67   c2.8,0.4,3.22,2.85,1.68,5.82c1.56-0.61,3.74,0.24,4.26,2.48c0.39,1.67-0.44,4.2-1.68,5.37c-1.24,1.17-5.32,1.9-7.93-0.34   c-1.45-1.25-2.05-2.82-2.37-4.28c-0.95,1.34-1.64,2.27-3.76,2.76C79.44,17.86,77.7,17.1,77.32,15.62z"/>
    <path class="st3" d="M96.98,13.94c-0.24-1.1-0.9-1.98-1.84-2.47c-0.68-0.37-1.47-0.49-2.19-0.36c0.75-1.65,0.87-3.1,0.33-4.14   c-0.43-0.85-1.28-1.38-2.46-1.55c-1.18-0.17-2.36,0.29-3.54,1.36c-0.24-1.72-1.49-3.77-3.21-4.35c-1.63-0.54-3.59-0.02-5.14,1.33   c-0.06-0.85-0.43-1.68-1.06-2.29c-0.64-0.63-1.53-1.07-2.66-1.31c-1.66-0.36-3.21-0.14-4.38,0.6c-1.3,0.83-2.05,2.44-1.82,3.83   c-0.16,0.01-0.31,0.01-0.48,0.02c-1.15,0.04-2.34,0.09-3.44,0.52c-1.25,0.51-2.56,1.76-2.67,3.4c-0.07,0.86,0.3,1.76,0.96,2.37   c0.22,0.21,0.48,0.37,0.73,0.48c-1.65,0.9-2.69,3-2.27,4.92c0.24,1.11,0.98,2.1,2,2.72c0.78,0.46,1.67,0.67,2.5,0.58   c0.09,0,0.19-0.01,0.28-0.03c0.09-0.01,0.17-0.03,0.26-0.06c0.03,0,0.07-0.01,0.1-0.02c1.05-0.29,1.92-0.99,2.86-1.72   c0.21-0.18,0.43-0.36,0.67-0.53c0.45,1.26,1.02,1.94,2.42,1.94H73c1.37-0.02,3.47-1.5,4.3-2.89c0.64,1.19,2.19,1.84,3.74,1.47   c1.99-0.47,2.8-1.31,3.59-2.4c0.07,0.27,0.16,0.56,0.27,0.85c0.03,0.08,0.06,0.17,0.1,0.26c0.03,0.09,0.07,0.17,0.1,0.26   c0.38,0.86,0.96,1.75,1.86,2.51c0.5,0.43,1.07,0.77,1.65,1c0.08,0.03,0.17,0.07,0.26,0.09c0.09,0.03,0.18,0.07,0.27,0.09   c0.72,0.23,1.48,0.33,2.2,0.33c0.9,0,1.76-0.16,2.46-0.39c0.1-0.03,0.2-0.08,0.3-0.11c0.1-0.04,0.2-0.09,0.3-0.14   c0.34-0.16,0.63-0.33,0.85-0.53C96.57,18.3,97.39,15.66,96.98,13.94z M94.58,19.41c-0.09,0.07-0.2,0.12-0.31,0.19   c-0.1,0.04-0.21,0.1-0.32,0.14c-1.22,0.51-3.11,0.69-4.82,0.11c-0.09-0.03-0.18-0.07-0.27-0.1c-0.09-0.03-0.17-0.07-0.24-0.1   c-0.47-0.21-0.91-0.49-1.32-0.83c-0.88-0.76-1.42-1.63-1.76-2.46c-0.04-0.08-0.08-0.16-0.1-0.23c-0.03-0.09-0.07-0.18-0.09-0.26   c-0.16-0.42-0.27-0.83-0.34-1.19c-0.02-0.1-0.1-0.18-0.2-0.2h-0.04c-0.09,0-0.17,0.03-0.22,0.11c-0.89,1.26-1.53,2.17-3.6,2.66   c-1.33,0.31-3-0.3-3.36-1.69c-0.03-0.12-0.13-0.2-0.24-0.2c-0.12,0-0.22,0.07-0.26,0.18c-0.42,1.32-2.74,3.09-4.07,3.11h-0.06   c-1.22,0-1.62-0.59-2.05-1.91c-0.02-0.08-0.09-0.14-0.17-0.17c-0.08-0.03-0.17-0.01-0.23,0.03c-0.34,0.26-0.67,0.51-0.98,0.76   c-0.89,0.7-1.66,1.31-2.56,1.6c-0.03,0.01-0.08,0.02-0.11,0.03c-0.06,0.01-0.11,0.03-0.17,0.03c-0.09,0.02-0.18,0.04-0.27,0.06   c-0.76,0.1-1.57-0.08-2.29-0.51c-0.9-0.53-1.55-1.41-1.76-2.38c-0.43-1.98,0.96-4.25,2.86-4.67c0.14-0.03,0.23-0.17,0.2-0.3   c-0.02-0.13-0.16-0.23-0.29-0.21c-0.48,0.08-0.98-0.1-1.4-0.49c-0.53-0.49-0.83-1.25-0.79-1.95c0.1-1.42,1.26-2.5,2.36-2.95   c1.01-0.41,2.1-0.46,3.26-0.5c0.27,0,0.52-0.01,0.79-0.03c0.08,0,0.14-0.04,0.2-0.1c0.04-0.07,0.06-0.14,0.03-0.22   c-0.34-1.25,0.31-2.78,1.53-3.56c1.05-0.68,2.47-0.87,3.99-0.53c1.03,0.22,1.83,0.61,2.4,1.17c0.66,0.66,1,1.62,0.89,2.52   c-0.02,0.11,0.04,0.22,0.14,0.27c0.1,0.04,0.22,0.02,0.3-0.06c1.46-1.55,3.45-2.19,5.06-1.65c1.79,0.6,2.9,2.98,2.9,4.43   c0,0.1,0.07,0.2,0.16,0.23c0.1,0.04,0.21,0.02,0.29-0.06c1.19-1.22,2.37-1.76,3.49-1.6c1.02,0.14,1.71,0.58,2.07,1.27   c0.51,0.99,0.31,2.48-0.58,4.18c-0.04,0.1-0.03,0.21,0.03,0.29c0.08,0.09,0.19,0.11,0.29,0.08c0.72-0.29,1.6-0.22,2.34,0.17   c0.8,0.42,1.36,1.18,1.58,2.12c0.36,1.56-0.41,3.99-1.6,5.13C94.79,19.25,94.69,19.33,94.58,19.41z"/>
  </g>
  <g>
    <path d="M68.48,24.75c-0.01-0.41,0.33-0.75,0.76-0.76c0.43-0.01,0.79,0.31,0.8,0.72c0.01,0.41-0.33,0.75-0.76,0.76   C68.85,25.48,68.49,25.16,68.48,24.75z"/>
  </g>
  <g>
    <path d="M79.75,26.62c-0.01-0.41,0.33-0.75,0.76-0.76c0.43-0.01,0.79,0.31,0.8,0.72c0.01,0.41-0.33,0.75-0.76,0.76   C80.11,27.35,79.76,27.03,79.75,26.62z"/>
  </g>
  <g>
    <path class="st3" d="M76.04,38.53c-0.46,0-0.91-0.08-1.34-0.23c-0.14-0.05-0.2-0.2-0.16-0.33c0.05-0.14,0.2-0.2,0.33-0.16   c1.24,0.45,2.72,0.13,3.66-0.8c0.1-0.1,0.27-0.1,0.37,0c0.1,0.1,0.1,0.27,0,0.37C78.14,38.13,77.09,38.53,76.04,38.53z"/>
  </g>
  <g>
    <path class="st3" d="M74.52,34.3c-0.61,0-1.26-0.16-1.93-0.47c-0.29-0.13-0.62-0.31-0.84-0.62c-0.28-0.39-0.35-0.94-0.18-1.51   c0.12-0.4,0.33-0.75,0.54-1.09l0.09-0.15c1.1-1.83,1.78-3.92,1.96-6.05c0.01-0.14,0.14-0.25,0.28-0.24   c0.14,0.01,0.25,0.14,0.24,0.28c-0.19,2.21-0.89,4.38-2.03,6.28l-0.09,0.16c-0.2,0.32-0.38,0.63-0.49,0.97   c-0.12,0.4-0.09,0.79,0.1,1.05c0.15,0.21,0.41,0.35,0.64,0.45c0.67,0.31,1.31,0.45,1.9,0.41c0.67-0.04,1.28-0.34,1.65-0.79   c0.09-0.11,0.25-0.13,0.37-0.04c0.11,0.09,0.13,0.25,0.04,0.37c-0.46,0.57-1.2,0.93-2.02,0.98C74.67,34.3,74.6,34.3,74.52,34.3z"/>
  </g>
  <g>
    <path d="M88.13,27.97c-0.02,0-0.04,0-0.07-0.01c-0.14-0.04-0.22-0.18-0.19-0.32c0.18-0.71,0.27-1.09,0.43-1.78   c0.03-0.14,0.17-0.23,0.31-0.2c0.14,0.03,0.23,0.17,0.2,0.31c-0.16,0.7-0.24,1.08-0.43,1.8C88.35,27.9,88.25,27.97,88.13,27.97z"/>
  </g>
  <g>
    <path class="st3" d="M88.7,25.08v-0.02c-0.02-0.07-0.04-0.12-0.08-0.19c-0.03-0.08-0.08-0.14-0.13-0.21   c-0.36-0.51-1.02-0.71-1.69-0.85c-1.28-0.27-2.57-0.52-3.86-0.77c-0.09-0.01-0.18-0.03-0.27-0.04c-0.08-0.02-0.17-0.03-0.26-0.04   c-5.18-0.97-10.43-1.71-15.66-2.24c-0.09-0.01-0.17-0.01-0.26-0.02c-0.03,0-0.07-0.01-0.1-0.01c-0.06,0-0.11-0.01-0.17-0.01   c-1.41-0.11-2.29,0.18-2.69,0.89c-0.46,0.81-0.36,1.82-0.29,2.57c0.16,1.55,0.39,3.23,1.32,4.42c0.06,0.09,0.13,0.18,0.22,0.27   c0.07,0.08,0.14,0.16,0.22,0.21c0.12,0.12,0.26,0.22,0.39,0.32c0.77,0.53,1.83,0.79,3.05,0.73c0.91-0.04,2.16-0.29,2.98-1.18   c0.57-0.61,0.82-1.41,1.07-2.19c0.08-0.24,0.16-0.5,0.24-0.75c0.32-0.88,1-1.82,1.91-1.85c0.92-0.01,1.63,0.95,1.86,1.9   c0.11,0.48,0.16,0.96,0.19,1.47c0.04,0.58,0.09,1.17,0.26,1.75c0.33,1.21,1.2,2.24,2.45,2.89c0.86,0.44,1.82,0.68,2.77,0.68   c0.6,0,1.19-0.09,1.73-0.28c0.29-0.1,0.57-0.22,0.83-0.37c0.11-0.04,0.21-0.11,0.31-0.18c0.11-0.06,0.21-0.12,0.31-0.19   c1.31-0.88,2.35-2.25,2.91-3.87v-0.01h0.01c0.19-0.54,0.33-1.12,0.41-1.72c0.01-0.04,0.02-0.08,0.02-0.12   c0.01-0.07,0.02-0.13,0.01-0.2c0.01-0.04,0.02-0.08,0.01-0.12C88.76,25.53,88.76,25.3,88.7,25.08z M85.4,31.14   c-0.08,0.06-0.17,0.12-0.24,0.18c-0.09,0.06-0.18,0.12-0.27,0.17c-0.36,0.23-0.75,0.42-1.15,0.56c-1.29,0.43-2.81,0.3-4.09-0.38   c-1.11-0.58-1.89-1.49-2.19-2.57c-0.16-0.52-0.19-1.07-0.23-1.63c-0.04-0.51-0.08-1.03-0.2-1.55c-0.27-1.11-1.11-2.3-2.35-2.3   h-0.03c-1.48,0.02-2.2,1.68-2.39,2.18c-0.09,0.26-0.18,0.52-0.26,0.77c-0.23,0.76-0.46,1.47-0.96,2c-0.7,0.76-1.8,0.96-2.61,1   c-1.1,0.06-2.05-0.17-2.74-0.64c-0.21-0.16-0.4-0.32-0.58-0.52c-0.07-0.08-0.14-0.17-0.2-0.27v-0.01c-0.08-0.1-0.16-0.2-0.21-0.31   c-0.61-1.05-0.81-2.44-0.93-3.73c-0.09-0.87-0.12-1.63,0.22-2.26c0.24-0.43,0.81-0.66,1.7-0.66c0.14,0,0.29,0.01,0.46,0.02   c0.06,0,0.12,0,0.19,0.01c0.02,0,0.04,0,0.07,0.01c0.09,0,0.18,0.01,0.27,0.02c5.27,0.52,10.55,1.28,15.78,2.26   c0.09,0.01,0.17,0.03,0.26,0.04c0.09,0.02,0.18,0.03,0.27,0.06c1.25,0.23,2.48,0.48,3.71,0.73c0.62,0.12,1.23,0.31,1.45,0.77   c0.13,0.27,0.11,0.6,0.07,0.92C87.95,28.12,86.88,29.98,85.4,31.14z"/>
  </g>
  <g>
    <path class="st4" d="M67.12,48.76c2.29,9.38,5.96,21.56,7.66,25.81c0,0,13.14-24.55,12.78-24.73c-1.06,0-1.96-0.27-2.74-0.22   c-3.89,4.21-7,6.21-9.24,6.16c-2.17-0.05-4.28-3.08-5.59-7.05C68.84,48.73,67.99,48.76,67.12,48.76z"/>
    <path class="st3" d="M87.82,49.77c-0.02-0.07-0.07-0.13-0.13-0.16c-0.03-0.02-0.07-0.03-0.1-0.03h-0.01c-0.01,0-0.01,0-0.02,0   c-0.5,0-0.97-0.07-1.4-0.12c-0.38-0.06-0.75-0.1-1.08-0.1c-0.09-0.01-0.18,0-0.27,0c-0.04,0.01-0.08,0.02-0.11,0.04   c-0.02,0.01-0.04,0.02-0.06,0.04c-0.02,0.02-0.04,0.06-0.07,0.08c-0.02,0.02-0.04,0.04-0.06,0.06c-0.06,0.07-0.1,0.11-0.17,0.17   c0,0,0,0,0,0.01h-0.01c-0.12,0.14-0.26,0.29-0.39,0.42c-3.38,3.5-6.23,5.34-8.27,5.34h-0.08c-1.84-0.04-3.87-2.58-5.23-6.53   c0-0.01-0.01-0.02-0.02-0.03c0-0.01,0-0.02-0.01-0.04c-0.02-0.06-0.04-0.12-0.06-0.19c-0.01-0.02-0.02-0.06-0.03-0.08   c-0.02-0.06-0.06-0.11-0.1-0.13c-0.01-0.01-0.01-0.01-0.02-0.01c-0.01-0.01-0.02-0.01-0.03-0.02c0,0,0,0-0.01,0   c-0.02-0.01-0.04-0.01-0.08-0.01h-0.37c-0.03,0-0.06,0-0.09,0.01c-0.43,0-0.82,0-1.2,0.01h-0.61c-0.21,0.01-0.41,0.01-0.61,0.01   c-0.02,0-0.04,0-0.07,0.01c-0.06,0.01-0.1,0.04-0.13,0.09c-0.04,0.06-0.06,0.11-0.06,0.17v0.06c0.02,0.07,0.03,0.14,0.06,0.21   c1.85,7.55,4.42,16.3,6.24,21.76c0.09,0.26,0.17,0.5,0.24,0.75v0.01c0.14,0.41,0.29,0.8,0.41,1.17c0.27,0.75,0.5,1.36,0.71,1.87   v0.03c0,0.01,0.01,0.03,0.01,0.04c0,0,0,0.01,0.01,0.01c0,0,0.01,0.01,0.02,0.02c0.01,0.03,0.03,0.06,0.07,0.08   c0.01,0.01,0.01,0.01,0.02,0.02c0.02,0.01,0.06,0.02,0.08,0.02h0.01c0.01,0.01,0.01,0.01,0.02,0.01h0.01   c0.04,0,0.09-0.01,0.12-0.03c0,0,0.01-0.01,0.02-0.01c0.01-0.01,0.01-0.01,0.02-0.02s0.02-0.01,0.02-0.02   c0.01-0.01,0.02-0.02,0.03-0.03c0-0.02,0.01-0.03,0.02-0.04c0,0,0,0,0.01-0.01c0.09-0.16,0.52-0.98,1.19-2.22   c0-0.01,0.01-0.01,0.01-0.02c0.22-0.43,0.48-0.9,0.76-1.42v-0.01c0.2-0.37,0.4-0.76,0.61-1.17c1.13-2.11,2.5-4.7,3.86-7.28   c4.82-9.15,6.02-11.66,6.28-12.4c0.06-0.13,0.07-0.21,0.08-0.26C87.83,49.81,87.83,49.79,87.82,49.77z M75.68,72.32   c-0.23,0.43-0.46,0.86-0.68,1.28c-0.07,0.11-0.13,0.23-0.19,0.34c0-0.01-0.01-0.01-0.01-0.01s0,0,0-0.01   c-0.01-0.04-0.03-0.07-0.06-0.11V73.8c0.01-0.01,0.01-0.01,0-0.02c-0.04-0.12-0.09-0.24-0.13-0.38c-0.1-0.27-0.21-0.56-0.32-0.87   c-1.79-5.09-4.75-15.04-6.84-23.51c0.29-0.01,0.59-0.01,0.9-0.02c0.38,0,0.78-0.01,1.23-0.01h0.22V49   c0.01,0.02,0.02,0.04,0.02,0.07c0,0,0,0.01,0,0.03c0.07,0.17,0.12,0.3,0.18,0.46c0.02,0.04,0.03,0.1,0.04,0.14   c0.06,0.13,0.11,0.27,0.16,0.39c0.53,1.33,1.13,2.48,1.77,3.4c0.36,0.5,0.72,0.93,1.09,1.3c0.81,0.79,1.67,1.22,2.51,1.25h0.09   c2.07,0,4.74-1.6,7.94-4.78c0.13-0.14,0.28-0.28,0.41-0.42c0.06-0.06,0.11-0.11,0.18-0.17v-0.01c0.08-0.08,0.14-0.16,0.22-0.23   c0.07-0.07,0.13-0.13,0.2-0.21c0.1-0.11,0.2-0.22,0.31-0.33h0.04c0.34-0.01,0.71,0.03,1.09,0.09c0.36,0.04,0.75,0.1,1.16,0.12   C86.43,52.05,80.37,63.55,75.68,72.32z"/>
  </g>
  <g>
    <path class="st3" d="M74.22,80.93c-0.01,0-0.02,0-0.03,0c-0.14-0.02-0.24-0.15-0.23-0.29l0.1-0.82c0.26-2.04,0.36-2.88,0.45-5.25   c0.01-0.14,0.13-0.26,0.27-0.25c0.14,0.01,0.26,0.13,0.25,0.27c-0.09,2.4-0.2,3.25-0.46,5.3l-0.1,0.82   C74.47,80.83,74.35,80.93,74.22,80.93z"/>
  </g>
  <g>
    <path class="st2" d="M70.37,45.55c-2.99,1.07-7.08,2.41-9.34,4.64c1.65,0.48,4.45,1.16,5.99,1.96c-1.5,1.31-2.85,2.78-4.02,4.39   c-0.24,0.34-0.49,0.72-0.43,1.13c0.04,0.3,0.24,0.55,0.43,0.78c2.16,2.6,4.37,4.74,6.17,7.6c2.39,3.78,4.86,5.22,5.61,8.52   c0-4.75-2.68-9.46-3.41-12.66C68.8,50.6,70.03,47.97,70.37,45.55z"/>
    <path class="st3" d="M75.03,74.11v-0.2c-0.01-0.1-0.01-0.2-0.02-0.31c-0.01-0.22-0.03-0.41-0.07-0.63c0,0,0-0.01,0-0.02   c-0.02-0.24-0.06-0.49-0.1-0.73V72.2c-0.37-2.34-1.21-4.6-1.98-6.65c-0.51-1.35-0.99-2.62-1.23-3.69c-0.77-3.37-1.2-5.97-1.41-8.03   c-0.01-0.13-0.02-0.28-0.03-0.41c-0.03-0.33-0.07-0.65-0.08-0.95c-0.01-0.16-0.02-0.3-0.02-0.44c-0.04-0.9-0.04-1.66-0.02-2.32   c0.01-0.24,0.02-0.48,0.04-0.69c0-0.01,0-0.01,0-0.02c0.01-0.09,0.01-0.18,0.02-0.27c0.01-0.07,0.02-0.14,0.02-0.21v-0.03   c0.09-0.73,0.2-1.33,0.3-1.87c0.07-0.36,0.13-0.69,0.18-1.03v-0.03c0-0.08-0.03-0.16-0.09-0.2c-0.04-0.03-0.1-0.06-0.16-0.06   c-0.03-0.01-0.07,0-0.1,0.01c-0.06,0.02-0.1,0.03-0.16,0.06c-0.17,0.07-0.36,0.13-0.53,0.19c-2.36,0.83-5.18,1.85-7.32,3.3   c-0.14,0.11-0.29,0.21-0.43,0.32c-0.14,0.1-0.28,0.21-0.41,0.33c-0.2,0.14-0.4,0.32-0.58,0.5c-0.07,0.07-0.09,0.16-0.07,0.24   c0.02,0.09,0.09,0.17,0.18,0.19c0.34,0.1,0.75,0.21,1.18,0.33c1.45,0.4,3.21,0.89,4.42,1.45c-1.39,1.25-2.66,2.65-3.76,4.17   c-0.2,0.27-0.56,0.77-0.48,1.32c0.04,0.36,0.27,0.64,0.48,0.91c0.67,0.8,1.35,1.57,2,2.3c1.5,1.7,2.91,3.3,4.16,5.27   c0.92,1.47,1.87,2.6,2.71,3.59c0.86,1.03,1.6,1.92,2.15,2.94c0.31,0.57,0.54,1.16,0.71,1.85c0,0.01,0,0.01,0,0.02v0.03   c0,0.01,0.01,0.03,0.01,0.04h0.01c0,0,0,0,0,0.01c0,0,0.01,0.01,0.02,0.02c0,0.01,0.01,0.02,0.02,0.04   c0.01,0.01,0.02,0.02,0.04,0.03c0.01,0.01,0.01,0.01,0.02,0.02c0.02,0.01,0.06,0.02,0.08,0.02h0.01c0.01,0.01,0.01,0.01,0.02,0.01   h0.01c0.04,0,0.09-0.01,0.12-0.03c0,0,0.01-0.01,0.02-0.01c0.01-0.01,0.01-0.01,0.02-0.02s0.02-0.01,0.02-0.02   c0.01-0.01,0.02-0.02,0.03-0.03c0-0.02,0.01-0.03,0.02-0.04c0-0.01,0-0.01,0-0.02l0.01-0.01v-0.08   C75.04,74.41,75.04,74.27,75.03,74.11z M63.19,58.29c-0.18-0.21-0.33-0.42-0.37-0.66c-0.04-0.31,0.18-0.66,0.39-0.95   c1.16-1.59,2.49-3.05,3.97-4.34c0.07-0.06,0.1-0.14,0.09-0.23c-0.01-0.08-0.06-0.16-0.13-0.2c-1.25-0.64-3.25-1.2-4.87-1.65   c-0.26-0.07-0.5-0.14-0.72-0.2c0.29-0.26,0.6-0.5,0.93-0.72c0.14-0.11,0.29-0.21,0.45-0.31c0,0,0,0,0.01,0   c0.17-0.11,0.34-0.21,0.52-0.32c1.93-1.12,4.29-1.96,6.31-2.68c0.09-0.03,0.19-0.07,0.28-0.1c-0.03,0.19-0.07,0.39-0.11,0.58   c-0.1,0.56-0.21,1.18-0.3,1.96c0,0,0,0,0,0.01c-0.01,0.08-0.01,0.16-0.03,0.24c0,0.09-0.01,0.18-0.01,0.27   c-0.19,2.38-0.03,6.11,1.53,12.98c0.24,1.1,0.73,2.39,1.25,3.76c0.8,2.16,1.7,4.54,2.02,6.98c-0.03-0.07-0.07-0.12-0.1-0.18   c-0.18-0.36-0.39-0.7-0.62-1.03c0,0,0-0.01-0.01-0.01c-0.14-0.23-0.31-0.46-0.5-0.69c-0.33-0.44-0.7-0.89-1.09-1.35   c-0.83-0.98-1.77-2.1-2.68-3.54c-1.26-2-2.69-3.63-4.2-5.34C64.53,59.85,63.86,59.09,63.19,58.29z"/>
  </g>
  <g>
    <path class="st2" d="M84.01,45.55c2.99,1.07,6.11,2.6,8.37,4.84c-1.65,0.48-3.29,0.97-4.83,1.77c4.86,4.23,3.98,3.56,1.01,6.53   c-1.19,1.19-13.03,12.59-13.78,15.89c0-4.75,4.17-9.07,6.49-15.89C84,50.66,85.61,48.03,84.01,45.55z"/>
    <path class="st3" d="M92.57,50.19c-1.94-1.91-4.74-3.54-8.33-4.84c-0.04-0.02-0.09-0.04-0.13-0.06c-0.04-0.01-0.1-0.01-0.14,0   c-0.06,0.01-0.11,0.04-0.14,0.09c-0.03,0.03-0.06,0.09-0.07,0.13c0,0.01,0,0.01,0,0.02c0,0.03,0.01,0.08,0.03,0.12   c0,0.01,0.01,0.01,0.01,0.02c0.28,0.42,0.45,0.85,0.52,1.31c0.01,0.06,0.02,0.12,0.03,0.18c0.06,0.38,0.04,0.77-0.01,1.2   c-0.02,0.27-0.08,0.56-0.13,0.86c-0.02,0.08-0.04,0.16-0.07,0.24c-0.02,0.08-0.04,0.17-0.07,0.26c-0.03,0.14-0.08,0.29-0.12,0.44   c-0.04,0.17-0.1,0.34-0.16,0.52c-0.06,0.18-0.11,0.36-0.18,0.56c-0.23,0.69-0.5,1.46-0.82,2.34c-0.07,0.2-0.14,0.41-0.22,0.62   c-0.03,0.1-0.07,0.19-0.11,0.29c-0.01,0.06-0.03,0.12-0.07,0.18v0.01c-0.01,0.03-0.01,0.07-0.03,0.09   c-0.09,0.26-0.18,0.52-0.27,0.79c0,0-0.01,0-0.01,0.01c-0.32,0.91-0.68,1.9-1.06,3.01c-0.97,2.85-2.28,5.29-3.44,7.46   c-1.18,2.19-2.24,4.16-2.75,6.14v0.01c-0.06,0.24-0.11,0.48-0.16,0.72c-0.03,0.16-0.06,0.31-0.07,0.47   c-0.02,0.12-0.04,0.26-0.06,0.39c0,0.06-0.01,0.11-0.01,0.18c-0.01,0.19-0.02,0.39-0.02,0.59v0.01c0,0.01,0,0.01,0,0.02v0.01   c0,0.02,0.01,0.04,0.02,0.07c0,0,0,0,0,0.01c0,0,0.01,0.01,0.02,0.02c0,0.01,0.01,0.02,0.02,0.04c0.01,0.01,0.02,0.02,0.04,0.03   c0.01,0.01,0.01,0.01,0.02,0.02c0.02,0.01,0.06,0.02,0.08,0.02h0.01c0.01,0.01,0.01,0.01,0.02,0.01h0.01   c0.04,0,0.09-0.01,0.12-0.03c0,0,0.01-0.01,0.02-0.01c0.01-0.01,0.01-0.01,0.02-0.02s0.02-0.01,0.02-0.02   c0.01-0.01,0.02-0.02,0.03-0.03c0-0.02,0.01-0.03,0.02-0.04c0-0.01,0-0.01,0-0.02l0.01-0.01v-0.01c0.1-0.43,0.43-1.12,1.19-2.19   c0-0.01,0.01-0.01,0.01-0.02c1.58-2.25,5.02-6.18,12.01-13.06c0.22-0.22,0.4-0.39,0.49-0.49c0.43-0.43,0.81-0.78,1.15-1.08   c0.86-0.79,1.37-1.27,1.37-1.89c-0.01-0.81-0.86-1.6-3.25-3.69c1.31-0.63,2.7-1.06,4.07-1.47c0.12-0.03,0.26-0.08,0.38-0.11   c0.03-0.01,0.07-0.02,0.09-0.06c0.04-0.02,0.08-0.07,0.09-0.12c0.01-0.04,0.01-0.09,0-0.12C92.62,50.28,92.6,50.24,92.57,50.19z    M91.88,50.26c-0.12,0.03-0.26,0.08-0.38,0.11c-0.01,0-0.01,0-0.02,0c-0.18,0.06-0.36,0.11-0.53,0.18h-0.01   c-1.19,0.37-2.38,0.78-3.5,1.37c-0.08,0.04-0.12,0.12-0.13,0.2c-0.01,0.09,0.02,0.18,0.09,0.23c2.31,2.01,3.34,2.94,3.35,3.55   c0,0.4-0.45,0.81-1.2,1.5c-0.33,0.31-0.72,0.67-1.16,1.1c-0.09,0.09-0.27,0.26-0.49,0.48c-4.6,4.54-8.04,8.15-10.28,10.83   c-0.29,0.36-0.57,0.69-0.82,1.01c0,0.01-0.01,0.02-0.02,0.03c-0.42,0.53-0.78,1.02-1.08,1.47c-0.19,0.28-0.36,0.53-0.5,0.77   c0.38-2.18,1.55-4.35,2.86-6.78c1.17-2.18,2.49-4.65,3.48-7.54c0.57-1.68,1.08-3.11,1.53-4.37c0.08-0.22,0.16-0.43,0.23-0.64   c0-0.01,0.01-0.01,0.01-0.01c0.2-0.57,0.39-1.1,0.57-1.59c0.01-0.02,0.01-0.03,0.02-0.06c0.2-0.6,0.38-1.16,0.53-1.67   c0.04-0.18,0.1-0.34,0.13-0.51V49.9c0.01-0.03,0.02-0.08,0.03-0.11c0.02-0.09,0.04-0.17,0.07-0.26c0.01-0.04,0.02-0.09,0.03-0.13   c0.01-0.04,0.01-0.09,0.02-0.12c0.01-0.07,0.02-0.12,0.03-0.18c0.06-0.27,0.1-0.51,0.12-0.76c0.09-0.87,0-1.61-0.3-2.32   c3.01,1.16,5.43,2.54,7.18,4.14C91.8,50.18,91.83,50.23,91.88,50.26z"/>
  </g>
  <g>
    <path d="M63.6,16.2c-0.04,0-0.07-0.03-0.08-0.06c-0.25-0.96-0.05-2.01,0.54-2.81c0.03-0.04,0.08-0.05,0.12-0.02   c0.04,0.03,0.05,0.08,0.02,0.12c-0.55,0.74-0.75,1.76-0.51,2.66c0.01,0.05-0.02,0.09-0.06,0.11C63.61,16.2,63.6,16.2,63.6,16.2z"/>
  </g>
  <g>
    <path d="M64.95,16.18c-0.03,0-0.06-0.02-0.08-0.05c-0.2-0.44-0.2-0.97,0-1.41c0.02-0.04,0.07-0.06,0.11-0.04   c0.04,0.02,0.06,0.07,0.04,0.11c-0.18,0.4-0.18,0.87,0,1.27c0.02,0.04,0,0.09-0.04,0.11C64.98,16.18,64.97,16.18,64.95,16.18z"/>
  </g>
  <g>
    <path d="M64.23,9.57c-0.02,0-0.05-0.01-0.06-0.03c-0.29-0.31-0.41-0.77-0.33-1.23c0.08-0.46,0.35-0.86,0.72-1.05   c0.04-0.02,0.09-0.01,0.12,0.04c0.02,0.04,0.01,0.09-0.04,0.12C64.3,7.59,64.07,7.93,64,8.34c-0.07,0.41,0.04,0.81,0.29,1.08   c0.03,0.03,0.03,0.09,0,0.12C64.27,9.56,64.25,9.57,64.23,9.57z"/>
  </g>
  <g>
    <path d="M90.15,29.29c-0.04,0-0.07-0.02-0.08-0.06c-0.02-0.05,0.01-0.09,0.05-0.11c0.25-0.09,0.54-0.19,0.73-0.39   c0.1-0.1,0.18-0.23,0.24-0.39c0.12-0.29,0.15-0.59,0.09-0.84c-0.07-0.29-0.26-0.53-0.51-0.62c-0.04-0.02-0.07-0.07-0.05-0.11   c0.02-0.04,0.07-0.07,0.11-0.05c0.29,0.12,0.53,0.4,0.61,0.74c0.09,0.37,0,0.72-0.1,0.95c-0.07,0.18-0.17,0.33-0.28,0.44   c-0.22,0.23-0.53,0.34-0.8,0.43C90.17,29.29,90.16,29.29,90.15,29.29z"/>
  </g>
  <g>
    <path d="M93.91,18.39c-0.02,0-0.05-0.01-0.06-0.03c-0.03-0.04-0.03-0.09,0.01-0.12c0.72-0.65,1.12-1.67,1.02-2.64   c0-0.05,0.03-0.09,0.08-0.09c0.05,0,0.09,0.03,0.09,0.08c0.1,1.03-0.31,2.09-1.08,2.78C93.95,18.39,93.93,18.39,93.91,18.39z"/>
  </g>
  <g>
    <path d="M81.49,102.47c-0.01,0-0.01,0-0.02,0c-0.05-0.01-0.07-0.06-0.06-0.11c0.4-1.57,0.66-3.18,0.78-4.79   c0-0.05,0.05-0.08,0.09-0.08c0.05,0,0.08,0.05,0.08,0.09c-0.12,1.62-0.38,3.24-0.78,4.82C81.57,102.44,81.53,102.47,81.49,102.47z"/>
  </g>
  <g>
    <path d="M82.77,102.95c-0.01,0-0.01,0-0.02,0c-0.05-0.01-0.08-0.06-0.07-0.1l0.47-2.13c0.01-0.05,0.06-0.08,0.1-0.07   c0.05,0.01,0.08,0.06,0.07,0.1l-0.47,2.13C82.84,102.93,82.81,102.95,82.77,102.95z"/>
  </g>
  <g>
    <path d="M74.01,83.05c-0.04,0-0.07-0.02-0.08-0.06c-0.02-0.05,0.01-0.09,0.05-0.11l12.19-4.22c0.05-0.02,0.09,0.01,0.11,0.05   c0.02,0.05-0.01,0.09-0.05,0.11l-12.19,4.22C74.03,83.05,74.02,83.05,74.01,83.05z"/>
  </g>
  <g>
    <path d="M76.16,58.25c-1.13,0-2.33-0.42-3.45-1.22c-1.17-0.83-1.88-2.06-2.94-3.99c-0.02-0.04-0.01-0.09,0.03-0.12   c0.04-0.02,0.09-0.01,0.12,0.03c1.15,2.1,1.81,3.17,2.89,3.94c1.24,0.88,2.59,1.3,3.81,1.16c1.59-0.18,2.83-1.19,4.14-2.25   c0.68-0.55,1.37-1.12,2.12-1.56c0.04-0.02,0.09-0.01,0.12,0.03c0.02,0.04,0.01,0.09-0.03,0.12c-0.74,0.43-1.43,1-2.1,1.54   c-1.27,1.04-2.59,2.11-4.23,2.29C76.49,58.24,76.32,58.25,76.16,58.25z"/>
  </g>
  <g>
    <path class="st0" d="M17.96,49.34c-0.01-0.7,0.93-1.21,0.9-1.91c-0.04-1.22-0.11-2.44-0.19-3.66c0.07-0.04,0.13-0.11,0.21-0.11   c0.07-0.64,0.04-1.83,0.63-2.22c0.53,0.02,1.54,0.47,2.09,0.4c0.21-0.03,0.42-0.05,0.63-0.1c0.13-0.04,0.27-0.06,0.4-0.09   c0,0,0.01,0,0.01,0c0.05,0,0.09-0.01,0.12-0.03c0.03-0.01,0.07-0.01,0.1-0.02c0.45-0.08,0.9-0.14,1.35-0.23   c0.12-0.02,0.21-0.09,0.26-0.18c0,0,0.09,0.1,0.1,0.1c0.3,0.17,1.07,1.24,2.15,3.18c0.84,1.51,1.54,2.97,2.16,4.82   c-1.1,1.41-1.7,2.1-2.94,3.58c-1.02,1.22-2.14,2.25-2.66,2.55c-0.6-2.32-3.31-3.28-4.97-4.6C18.3,50.47,17.97,49.69,17.96,49.34z"/>
  </g>
  <g>
    <path class="st0" d="M23.06,43.26c-0.51-0.62-1.25-1.05-2.05-1.18c-0.5-0.08-1.02-0.05-1.49-0.22c-0.48-0.17-0.91-0.63-0.82-1.13   c0.06-0.32,0.31-0.57,0.58-0.74c0.71-0.45,1.59-0.5,2.43-0.47c0.52,0.01,1.05,0.05,1.53,0.24c0.43,0.17,0.81,0.45,1.16,0.76   c0.22,0.19,0.43,0.4,0.53,0.68c0.14,0.38,0.03,0.8-0.11,1.19c-0.14,0.4-0.32,0.81-0.67,1.05S23.32,43.58,23.06,43.26z"/>
  </g>
  <g>
    <g class="st6">
      <path d="M18.85,46.69C18.85,46.69,18.84,46.69,18.85,46.69C18.74,46.7,18.7,46.71,18.85,46.69z"/>
    </g>
    <g class="st6">
      <path d="M22.71,45.29c0.02-0.03,0.04-0.06,0.05-0.07C22.74,45.24,22.72,45.26,22.71,45.29z"/>
    </g>
    <g class="st6">
      <path d="M22.67,45.33c0.01-0.01,0.02-0.03,0.03-0.04C22.68,45.32,22.66,45.35,22.67,45.33z"/>
    </g>
  </g>
  <g>
    <path class="st0" d="M18.33,50.52c-0.39-0.11-0.17,0.14-0.53-0.06c-0.35-0.21-0.67-0.51-0.81-0.9c-0.14-0.39-0.09-0.87,0.2-1.17   c0.35-0.37,1.71-2.75,2.21-2.72c0.86,0.05,1.66,0.56,2.4,1.29c0.23,0.22,0,1.76,0,2.08c0,0.17-0.1,0.33-0.22,0.45   c-0.34,0.36-0.84,0.56-1.32,0.52c-0.21-0.02-0.42-0.07-0.63-0.07c-0.21,0-0.52,0.03-0.71-0.07C18.38,49.61,18.12,49.32,18.33,50.52   z"/>
  </g>
  <g>
    <path class="st0" d="M18.08,48.46c-0.39-0.11-0.79-0.23-1.14-0.44c-0.35-0.21-0.67-0.51-0.81-0.9c-0.14-0.39-0.09-0.87,0.2-1.17   c0.35-0.37,0.92-0.38,1.42-0.35c0.86,0.05,1.71,0.14,2.53,0.4c0.3,0.09,0.65,0.28,0.66,0.6c0,0.17-0.1,0.33-0.22,0.45   c-0.34,0.36-0.56,0.79-1.04,0.75C19.47,47.79,17.59,47.86,18.08,48.46z"/>
  </g>
  <g>
    <path class="st0" d="M15.98,46.19c-0.35-0.21-0.99-0.87-1.14-1.26c-0.14-0.39,0.11-1.07,0.4-1.37c0.35-0.37,1.53-0.42,2.03-0.39   c0.86,0.05,1.67,0.37,2.49,0.63c0.3,0.09,0.79,0.01,1.2,0.61c0.1,0.14,0.69,0.74,0.43,1.31c-0.21,0.45-2.13-0.22-2.62-0.25   C16.59,45.36,16.34,46.4,15.98,46.19z"/>
  </g>
  <g>
    <path class="st0" d="M15.81,43.75c-0.3,0.29-1.63-0.86-1.85-1.21c-0.44-0.67-0.46-1.32-0.18-1.62c0.35-0.37,1.88-0.55,2.39-0.52   c0.86,0.05,1.8,0.5,2.62,0.75c0.3,0.09,0.84,0.27,0.84,0.59c0,0.17,1.44,1.05,1.33,1.17c-0.34,0.36,0.44,1.23-1.67,0.69   C19.08,43.56,16.6,42.98,15.81,43.75z"/>
  </g>
  <g>
    <path class="st0" d="M20.64,41.72c-0.94-0.47-3.31-0.68-3.02-1.64c0.15-0.49,1.27-0.85,1.77-0.82c0.86,0.05,2.12-0.35,2.94-0.1   c0.3,0.09,1.84,0.84,1.84,1.16c0,0.17,1.12,1.2,1,1.32c-0.34,0.36-1.4,2.18-1.88,2.14C23.08,43.78,22.08,42.44,20.64,41.72z"/>
  </g>
  <g>
    <path class="st3" d="M23.27,55.84c-0.14,0-0.26-0.12-0.26-0.26c0-1.78-2.89-3.41-3.91-3.85c-0.57-0.24-2.06-1.31-2.38-1.92   c-0.33-0.63-0.19-1.38,0.32-1.77c0.6-0.47,1.39-0.44,2.08-0.38c0.61,0.05,2.63,0.3,3.03,1.15c0.09,0.19,0.14,0.5-0.13,0.88   c-0.61,0.87-2.41,0.47-3.39,0.25c-0.09-0.02-0.16-0.04-0.23-0.05c-0.14-0.03-0.23-0.17-0.2-0.31c0.03-0.14,0.17-0.23,0.31-0.2   c0.07,0.01,0.15,0.03,0.24,0.05c0.73,0.16,2.44,0.54,2.85-0.04c0.15-0.22,0.1-0.33,0.08-0.37c-0.2-0.42-1.46-0.75-2.6-0.85   c-0.62-0.06-1.26-0.08-1.71,0.27c-0.35,0.27-0.36,0.78-0.18,1.12c0.23,0.45,1.59,1.46,2.12,1.68c0.04,0.02,4.22,1.84,4.22,4.33   C23.53,55.72,23.41,55.84,23.27,55.84z"/>
  </g>
  <g>
    <path class="st3" d="M16.13,46.52c-0.03,0-0.07-0.01-0.1-0.02c-0.88-0.38-1.51-1.2-1.52-2c-0.01-0.59,0.33-1.08,0.91-1.35   c0.97-0.44,3.4-0.04,4.57,0.44c1.12,0.46,1.79,1.36,1.78,1.81c0,0.22-0.13,0.41-0.35,0.55c-0.37,0.24-0.98,0.3-1.34,0.15   c-0.13-0.06-0.19-0.21-0.14-0.34c0.06-0.13,0.21-0.19,0.34-0.14c0.19,0.08,0.62,0.05,0.85-0.11c0.03-0.02,0.11-0.07,0.11-0.13   c-0.01-0.17-0.47-0.91-1.46-1.31c-1.18-0.48-3.4-0.79-4.16-0.44c-0.4,0.18-0.61,0.48-0.61,0.87c0.01,0.59,0.51,1.23,1.2,1.53   c0.13,0.06,0.19,0.21,0.14,0.34C16.33,46.46,16.23,46.52,16.13,46.52z"/>
  </g>
  <g>
    <path class="st3" d="M21.33,48.7c-0.14,0-0.25-0.11-0.26-0.25c-0.01-0.14,0.1-0.27,0.25-0.27c0.1-0.02,0.52-0.25,0.53-0.51   c0-0.16-0.08-0.34-0.25-0.54c-0.35-0.42-0.86-0.76-1.57-1.05c-0.94-0.39-1.9-0.48-2.78-0.27c-0.34,0.08-0.87,0.47-0.98,0.98   c-0.13,0.58,0.34,1.09,0.75,1.42c0.11,0.09,0.13,0.25,0.04,0.37c-0.09,0.11-0.25,0.13-0.37,0.04c-0.96-0.77-1.03-1.48-0.93-1.94   c0.17-0.76,0.9-1.26,1.37-1.37c0.99-0.24,2.06-0.14,3.1,0.29c0.79,0.32,1.37,0.72,1.77,1.2c0.26,0.31,0.38,0.6,0.37,0.89   c-0.01,0.6-0.73,1.01-1.02,1.02C21.34,48.7,21.34,48.7,21.33,48.7z"/>
  </g>
  <g>
    <path class="st3" d="M28.93,49.74c-0.11,0-0.21-0.07-0.24-0.17c-1.25-3.48-1.92-4.71-2.94-6.57l-0.1-0.18   c-0.66-1.21-1.17-1.84-2.43-2.41c-2.94-1.31-3.73-1.07-4.37-0.87c-0.05,0.02-0.11,0.03-0.16,0.05c-0.53,0.16-0.78,0.42-0.83,0.6   c-0.03,0.09,0,0.17,0.07,0.25c0.42,0.44,1.04,0.58,1.7,0.73c0.66,0.15,1.34,0.3,1.85,0.78c0.24,0.23,0.44,0.42,0.61,0.57   c0.79,0.74,0.81,0.76,1.28,1.5l0.11,0.18c0.08,0.12,0.04,0.28-0.08,0.36c-0.12,0.08-0.28,0.04-0.36-0.08l-0.11-0.18   c-0.44-0.7-0.44-0.7-1.19-1.4c-0.16-0.15-0.36-0.34-0.61-0.57c-0.41-0.39-0.99-0.52-1.61-0.66c-0.7-0.16-1.43-0.32-1.96-0.88   c-0.2-0.21-0.27-0.47-0.19-0.74c0.11-0.42,0.56-0.78,1.19-0.96c0.05-0.01,0.1-0.03,0.15-0.05c0.72-0.22,1.62-0.5,4.73,0.89   c1.39,0.62,1.97,1.35,2.67,2.63l0.1,0.17c1.03,1.89,1.71,3.13,2.97,6.65c0.05,0.14-0.02,0.28-0.16,0.33   C28.99,49.73,28.96,49.74,28.93,49.74z"/>
  </g>
  <g>
    <path class="st3" d="M19.31,43.86c-0.16,0-0.33-0.04-0.51-0.11c-0.13-0.05-0.2-0.2-0.15-0.34c0.05-0.13,0.2-0.2,0.34-0.15   c0.2,0.08,0.38,0.09,0.51,0.03c0.18-0.08,0.26-0.26,0.29-0.34c0.17-0.45-0.44-0.91-0.82-1.12l-0.22-0.12   c-0.78-0.42-1.59-0.84-2.44-1.04c-0.68-0.16-2.09-0.15-2.43,0.56c-0.28,0.58,0.21,1.09,0.82,1.66c0.16,0.15,0.29,0.27,0.39,0.39   c0.09,0.11,0.08,0.27-0.03,0.37c-0.11,0.09-0.27,0.08-0.37-0.03c-0.08-0.1-0.21-0.22-0.35-0.34c-0.55-0.52-1.39-1.29-0.93-2.26   c0.48-1.01,2.11-1.06,3.02-0.85c0.92,0.21,1.75,0.66,2.57,1.09l0.22,0.12c0.67,0.35,1.34,1.02,1.06,1.76   c-0.07,0.17-0.23,0.48-0.57,0.63C19.58,43.84,19.45,43.86,19.31,43.86z"/>
  </g>
  <g>
    <path d="M22.99,57.27c-0.04,0-0.08-0.03-0.09-0.08c-0.01-0.05,0.03-0.09,0.08-0.1c0.74-0.08,1.45-0.41,1.99-0.92   c0.04-0.03,0.09-0.03,0.12,0c0.03,0.04,0.03,0.09,0,0.12C24.52,56.84,23.78,57.18,22.99,57.27C23,57.27,22.99,57.27,22.99,57.27z"/>
  </g>
  <g>
    <path d="M23.27,58.66c-0.05,0-0.08-0.04-0.09-0.08c0-0.05,0.03-0.09,0.08-0.09c0.33-0.02,0.65-0.12,0.93-0.29   c0.04-0.03,0.09-0.01,0.12,0.03c0.03,0.04,0.01,0.09-0.03,0.12C23.98,58.53,23.63,58.64,23.27,58.66   C23.27,58.66,23.27,58.66,23.27,58.66z"/>
  </g>
  <g>
    <path class="st3" d="M12.35,20.51c-0.12,0-0.23-0.08-0.25-0.2c-0.22-1-0.65-2.86-1.07-4.73c-0.42-1.87-0.85-3.73-1.07-4.73   c-0.03-0.14,0.06-0.28,0.2-0.31c0.14-0.03,0.28,0.06,0.31,0.2c0.22,1,0.65,2.86,1.07,4.73c0.42,1.87,0.85,3.73,1.07,4.73   c0.03,0.14-0.06,0.28-0.2,0.31C12.39,20.51,12.37,20.51,12.35,20.51z"/>
  </g>
  <g>
    <path class="st4" d="M11.12,23.62c-0.22-1.03-0.5-2.33-0.72-3.36c-0.01-0.06,3.44-0.84,3.68-0.74c0.12,0.05,0.57,1.98,0.7,3.44   C13.77,23.38,12.66,23.66,11.12,23.62z"/>
    <path class="st3" d="M15.01,22.52c-0.01-0.09-0.02-0.17-0.03-0.26c-0.01-0.09-0.02-0.18-0.04-0.27c-0.07-0.43-0.14-0.89-0.24-1.35   c-0.27-1.28-0.38-1.32-0.49-1.37c-0.17-0.07-0.93,0.06-1.75,0.21c-0.17,0.04-0.34,0.08-0.51,0.11c-0.86,0.2-1.63,0.4-1.69,0.44   c-0.08,0.07-0.11,0.17-0.09,0.27l0.54,2.59l0.06,0.26l0.06,0.26l0.06,0.26c0.02,0.11,0.12,0.2,0.24,0.2h0.27   c1.27,0,2.36-0.21,3.5-0.68c0.11-0.04,0.17-0.16,0.17-0.27C15.04,22.8,15.02,22.67,15.01,22.52z M11.27,23.05l-0.06-0.26l-0.5-2.36   c0.28-0.08,0.79-0.2,1.33-0.31c0.17-0.03,0.34-0.08,0.52-0.1c0.58-0.12,1.11-0.22,1.36-0.24c0.12,0.32,0.34,1.31,0.49,2.32   c0.02,0.09,0.03,0.18,0.03,0.27c0.02,0.09,0.03,0.18,0.03,0.26c0.01,0.06,0.02,0.11,0.02,0.17c-1.02,0.4-2.01,0.58-3.17,0.58   l-0.01-0.07L11.27,23.05z"/>
  </g>
  <g>
    <path class="st2" d="M16.98,21.88c0.71,3.21,1.44,7.2,2.31,10.77c0.47,1.93,0.95,3.87,1.42,5.8c-2.86,0.85-5.46,1.35-8.3,1.75   c-1-5.52-2.43-11.56-3.53-16.56C11.67,22.9,13.68,22.5,16.98,21.88z"/>
    <path class="st3" d="M19.55,32.59c-0.56-2.25-1.05-4.63-1.51-6.93c-0.28-1.37-0.54-2.65-0.8-3.84c-0.03-0.13-0.17-0.22-0.3-0.2   c-0.73,0.14-1.4,0.27-2.01,0.38c-0.09,0.02-0.18,0.04-0.26,0.06c-0.09,0.01-0.18,0.03-0.26,0.04c-1.18,0.23-2.19,0.46-3.2,0.69   c-0.09,0.02-0.17,0.04-0.26,0.07c-0.09,0.01-0.17,0.03-0.26,0.06c-0.6,0.14-1.22,0.3-1.88,0.48c-0.13,0.03-0.21,0.17-0.19,0.31   c0.26,1.15,0.53,2.36,0.81,3.6c0.91,4.08,1.95,8.7,2.72,12.95c0.02,0.12,0.13,0.21,0.26,0.21h0.03c1.47-0.21,2.81-0.43,4.09-0.7   c0.17-0.03,0.34-0.07,0.51-0.11c0.24-0.04,0.48-0.1,0.71-0.16c0.81-0.19,1.6-0.39,2.39-0.61c0.21-0.06,0.41-0.12,0.62-0.18   c0.13-0.04,0.21-0.18,0.19-0.31L19.55,32.59z M12.64,39.91c-0.77-4.18-1.79-8.71-2.69-12.71c-0.26-1.16-0.51-2.29-0.75-3.37   c0.57-0.14,1.09-0.28,1.61-0.4c0.09-0.02,0.17-0.04,0.26-0.07c0.08-0.01,0.17-0.03,0.26-0.06c1-0.23,1.99-0.44,3.16-0.68   c0.09-0.01,0.17-0.03,0.26-0.06c0.09-0.01,0.18-0.03,0.27-0.04c0.54-0.11,1.13-0.22,1.78-0.34c0.24,1.12,0.49,2.31,0.75,3.58   c0.48,2.31,0.97,4.7,1.51,6.95l1.37,5.56C17.96,38.98,15.54,39.49,12.64,39.91z"/>
  </g>
  <g>
    <path d="M11.72,26.42c-0.04,0-0.08-0.03-0.08-0.07c-0.01-0.05,0.02-0.09,0.07-0.1c0.72-0.16,1.6-0.33,2.5-0.48   c0.05-0.01,0.09,0.02,0.1,0.07c0.01,0.05-0.02,0.09-0.07,0.1c-0.9,0.15-1.78,0.33-2.49,0.48C11.73,26.41,11.73,26.42,11.72,26.42z"/>
  </g>
  <g>
    <path d="M12.27,28.92c-0.04,0-0.08-0.03-0.08-0.07c-0.01-0.05,0.02-0.09,0.07-0.1c0.72-0.16,1.61-0.33,2.5-0.48   c0.05-0.01,0.09,0.02,0.1,0.07c0.01,0.05-0.02,0.09-0.07,0.1c-0.89,0.15-1.78,0.33-2.49,0.48C12.28,28.92,12.28,28.92,12.27,28.92z   "/>
  </g>
  <g>
    <path d="M12.82,31.43c-0.04,0-0.08-0.03-0.08-0.07c-0.01-0.05,0.02-0.09,0.07-0.1c0.72-0.16,1.61-0.33,2.5-0.48   c0.05-0.01,0.09,0.02,0.1,0.07c0.01,0.05-0.02,0.09-0.07,0.1c-0.89,0.15-1.78,0.32-2.49,0.48C12.84,31.43,12.83,31.43,12.82,31.43z   "/>
  </g>
  <g>
    <path d="M13.4,34.06c-0.04,0-0.08-0.03-0.08-0.07c-0.01-0.05,0.02-0.09,0.07-0.1c0.72-0.16,1.61-0.33,2.5-0.48   c0.05-0.01,0.09,0.02,0.1,0.07c0.01,0.05-0.02,0.09-0.07,0.1c-0.89,0.15-1.78,0.33-2.49,0.48C13.42,34.06,13.41,34.06,13.4,34.06z"/>
  </g>
  <g>
    <path d="M13.98,36.69c-0.04,0-0.08-0.03-0.08-0.07c-0.01-0.05,0.02-0.09,0.07-0.1c0.72-0.16,1.61-0.33,2.5-0.48   c0.05-0.01,0.09,0.02,0.1,0.07c0.01,0.05-0.02,0.09-0.07,0.1c-0.89,0.15-1.78,0.33-2.49,0.48C13.99,36.69,13.99,36.69,13.98,36.69z   "/>
  </g>
  <g>
    <path class="st3" d="M17.03,40.75c-0.11,0-0.22-0.08-0.25-0.19l-0.28-1c-0.04-0.14,0.04-0.28,0.18-0.32   c0.14-0.04,0.28,0.04,0.32,0.18l0.28,1c0.04,0.14-0.04,0.28-0.18,0.32C17.07,40.75,17.05,40.75,17.03,40.75z"/>
  </g>
  <g>
    <path class="st3" d="M20.5,52.62c-0.11,0-0.22-0.07-0.25-0.19l-0.67-2.4c-0.04-0.14,0.04-0.28,0.18-0.32   c0.14-0.04,0.28,0.04,0.32,0.18l0.67,2.4c0.04,0.14-0.04,0.28-0.18,0.32C20.54,52.62,20.52,52.62,20.5,52.62z"/>
  </g>
  <g>
    <path class="st3" d="M17.52,53.57c-0.11,0-0.22-0.08-0.25-0.19c-0.04-0.14,0.04-0.28,0.18-0.32c1.97-0.55,3.97-1.08,5.95-1.58   c0.14-0.04,0.28,0.05,0.32,0.19c0.04,0.14-0.05,0.28-0.19,0.32c-1.98,0.5-3.98,1.03-5.94,1.58C17.57,53.57,17.55,53.57,17.52,53.57   z"/>
  </g>
  <g>
    <path d="M53.14,104.74v-0.11v-1.3l0.01-1.82c0-0.08-0.06-0.13-0.13-0.13c-0.04,0-0.08,0.02-0.1,0.06   c-0.02,0.02-0.03,0.04-0.03,0.08l-0.01,1.75v0.06L53.14,104.74z"/>
  </g>
  <g>
    <path d="M55.03,109.35v-0.39l-0.01-0.44l-0.12-7.03c0-0.07,0.06-0.13,0.13-0.13c0.07,0,0.12,0.06,0.13,0.13l0.12,7.38l0.01,0.01   v0.39l0.01,0.36C55.21,109.55,55.12,109.46,55.03,109.35z"/>
  </g>
  <g>
    <path d="M57.54,110.47c-0.07,0-0.13-0.06-0.13-0.13l-0.04-9c0-0.07,0.06-0.13,0.13-0.13c0,0,0,0,0,0c0.07,0,0.13,0.06,0.13,0.13   l0.04,9C57.67,110.41,57.61,110.46,57.54,110.47C57.54,110.47,57.54,110.47,57.54,110.47z"/>
  </g>
  <g>
    <path d="M59.91,109.67c-0.07,0-0.13-0.06-0.13-0.13c-0.1-2.56-0.1-5.16,0-7.72c0-0.07,0.06-0.13,0.14-0.13   c0.07,0,0.13,0.06,0.13,0.14c-0.1,2.55-0.1,5.14,0,7.7C60.04,109.61,59.99,109.67,59.91,109.67   C59.91,109.67,59.91,109.67,59.91,109.67z"/>
  </g>
  <g>
    <path d="M62.06,110.13C62.06,110.13,62.06,110.13,62.06,110.13c-0.07,0-0.13-0.06-0.13-0.13l0.12-8.31c0-0.07,0.05-0.13,0.13-0.13   c0.07,0,0.13,0.06,0.13,0.13L62.2,110C62.19,110.08,62.14,110.13,62.06,110.13z"/>
  </g>
  <g>
    <path d="M63.73,110.15c-0.07,0-0.13-0.06-0.13-0.13l-0.01-7.38c0-0.07,0.06-0.13,0.13-0.13c0,0,0,0,0,0c0.07,0,0.13,0.06,0.13,0.13   l0.01,7.38C63.86,110.09,63.8,110.15,63.73,110.15C63.73,110.15,63.73,110.15,63.73,110.15z"/>
  </g>
  <g>
    <path d="M117.77,104.55c-0.05,0.05-0.11,0.09-0.17,0.14l-0.17-0.11l-0.18-0.11l-4.9-3.08c-0.05-0.03-0.06-0.09-0.03-0.14   c0.02-0.03,0.05-0.04,0.09-0.04c0.01,0,0.03,0,0.04,0.01l4.96,3.11l0.19,0.11L117.77,104.55z"/>
  </g>
  <g>
    <path d="M119.34,102.93c-0.03,0.06-0.1,0.07-0.15,0.04l-6.06-3.96c-0.05-0.03-0.07-0.11-0.04-0.17c0,0,0,0,0,0   c0.03-0.06,0.1-0.07,0.15-0.04l6.06,3.96C119.36,102.79,119.38,102.87,119.34,102.93C119.34,102.93,119.34,102.93,119.34,102.93z"/>
  </g>
  <g>
    <path d="M120.49,100.98c-0.03,0.07-0.06,0.15-0.09,0.23l-0.18-0.12l-0.2-0.13l-5.9-3.97c-0.05-0.04-0.07-0.11-0.03-0.17   c0.02-0.04,0.06-0.06,0.08-0.06s0.05,0.01,0.07,0.02l5.86,3.95l0.2,0.13L120.49,100.98z"/>
  </g>
  <g>
    <path d="M121.17,98.47c-0.01,0.09-0.03,0.18-0.06,0.27c-0.08-0.03-0.14-0.08-0.22-0.12c-0.09-0.04-0.18-0.1-0.26-0.14   c-2.05-1.18-4.05-2.44-5.99-3.75c-0.06-0.03-0.08-0.11-0.03-0.18c0.04-0.06,0.12-0.08,0.18-0.03c1.92,1.29,3.9,2.52,5.91,3.68   c0.08,0.06,0.17,0.1,0.24,0.14C121.01,98.38,121.09,98.43,121.17,98.47z"/>
  </g>
  <g>
    <path d="M121.37,96.02c0,0.1,0,0.21-0.01,0.31l-0.24-0.16L120.85,96l-5.13-3.28c-0.07-0.03-0.09-0.11-0.04-0.18   c0.04-0.07,0.12-0.08,0.19-0.04l4.97,3.18l0.27,0.18L121.37,96.02z"/>
  </g>
  <g>
    <path d="M121.28,94.36l-0.27-0.17l-0.3-0.19l-3.38-2.09c-0.07-0.03-0.09-0.11-0.04-0.18c0.02-0.03,0.07-0.06,0.12-0.06   c0.01,0,0.03,0,0.06,0.01l3.2,1.98l0.3,0.19l0.28,0.17C121.27,94.13,121.28,94.24,121.28,94.36z"/>
  </g>
  </svg>