<svg width="150" height="150" viewBox="0 0 150 150" fill="none" xmlns="http://www.w3.org/2000/svg">
<g clip-path="url(#clip0_933_14798)">
<path d="M64.5432 59.7235C59.4594 58.4196 53.7435 60.3548 50.3085 64.1154C46.8734 67.8759 45.6368 73.2423 46.7086 78.1008C47.9314 83.6456 53.5374 87.8865 57.8793 88.3944C64.9142 89.2178 70.6988 86.0063 72.485 83.9613C75.7964 80.1733 77.294 74.9304 76.0712 70.1542C74.8483 65.378 70.7675 61.3155 64.5432 59.7235Z" fill="#333436"/>
<path d="M60.1191 88.861C59.3772 88.861 58.6077 88.8198 57.8383 88.7238C53.304 88.2022 47.6156 83.824 46.3653 78.1557C45.2386 73.0502 46.6538 67.574 50.0476 63.8546C53.6888 59.8607 59.542 58.0628 64.6259 59.3529C70.6853 60.9038 75.0958 64.8977 76.4149 70.0307C77.624 74.7657 76.2225 80.1733 72.76 84.1534C70.9189 86.2808 65.9862 88.861 60.1191 88.861ZM61.2458 59.6686C57.3024 59.6686 53.2903 61.3704 50.5698 64.3487C47.3271 67.9034 45.9806 73.1325 47.0523 78.0185C48.2339 83.3849 53.6201 87.5297 57.9207 88.0238C65.148 88.861 70.6715 85.471 72.2242 83.7005C75.5493 79.8988 76.8958 74.7383 75.7279 70.2229C74.4775 65.3369 70.2593 61.5351 64.4473 60.0529C63.403 59.7921 62.3313 59.6686 61.2458 59.6686Z" fill="white"/>
<g opacity="0.1294">
<path d="M74.038 82.0673C74.4777 81.2164 74.8761 80.3517 75.2334 79.4596C75.3845 79.0616 75.5494 78.6636 75.6731 78.2518C74.7387 79.6106 72.3754 81.7379 71.9495 82.081C69.5999 84.0162 69.1328 84.1397 66.797 85.0593C63.884 86.1298 61.9604 86.6788 59.1162 86.3906C58.5941 86.4043 56.4919 85.9239 56.1484 85.7181C55.7911 85.5808 54.8018 85.1004 53.9087 84.5514C52.9744 83.9476 52.0813 83.2888 51.2157 82.5888C50.7073 82.1634 50.2539 81.6693 49.8142 81.1477C49.1272 80.4752 48.4402 79.7753 47.8493 78.9792C47.8219 78.9381 47.8356 78.9518 47.8768 79.0204C47.4509 78.4714 46.9013 77.4421 46.5578 77.0578C46.7089 76.5362 46.5578 75.9186 46.1318 75.5755C46.1868 76.4539 46.3105 77.3185 46.4891 78.1695C46.5853 78.4028 46.6814 78.6224 46.7776 78.8557C46.8738 79.0753 46.97 79.2812 47.0799 79.5008C47.341 79.9811 47.602 80.4615 47.8631 80.9419C48.6738 82.2869 49.6356 83.5221 50.6661 84.6201C51.6828 85.471 52.782 86.2121 53.9225 86.8572C54.9118 87.3787 55.9285 87.9003 57.0277 88.065C58.9239 88.4767 60.8612 88.5728 62.7711 88.2983C63.7741 88.1473 64.7772 87.9689 65.7802 87.7219C65.8351 87.6258 65.9176 87.5572 66.0412 87.516C68.5419 86.7062 70.7678 85.1691 72.7464 83.3574C73.2136 82.9594 73.6395 82.5202 74.038 82.0673Z" fill="white"/>
</g>
<path d="M48.9205 73.2149C48.8518 73.2149 48.7969 73.16 48.7969 73.0913C48.9343 71.0601 49.635 69.0837 50.8304 67.3819C50.8716 67.327 50.9403 67.3132 50.9953 67.3544C51.0502 67.3956 51.064 67.4642 51.0228 67.5191C49.8549 69.1798 49.1679 71.115 49.0305 73.1188C49.0442 73.16 48.9892 73.2149 48.9205 73.2149Z" fill="white"/>
<path d="M52.0948 66.325C52.0673 66.325 52.0535 66.325 52.0261 66.3113C51.9711 66.2701 51.9574 66.2015 51.9986 66.1466C52.3421 65.6388 52.823 65.2271 53.3726 64.9389C53.4275 64.9114 53.4962 64.9251 53.5375 64.9938C53.5649 65.0486 53.5512 65.1173 53.4825 65.1584C52.9604 65.4329 52.5207 65.8172 52.1909 66.2976C52.1635 66.3113 52.136 66.325 52.0948 66.325Z" fill="white"/>
<path d="M72.4302 79.1302C72.4028 79.1302 72.389 79.1302 72.3753 79.1165C72.3203 79.089 72.3066 79.0067 72.3341 78.9518C73.1585 77.6205 73.6668 76.097 73.8042 74.5599C73.8042 74.4912 73.8729 74.4501 73.9279 74.4501C73.9966 74.4501 74.0378 74.5187 74.0378 74.5736C73.9004 76.1519 73.3783 77.7028 72.5402 79.0753C72.4989 79.1165 72.4715 79.1302 72.4302 79.1302Z" fill="white"/>
<path d="M50.8995 110.889C50.1438 110.889 49.3881 110.862 48.6187 110.779C46.1729 110.546 44.4829 109.832 43.4524 108.611C41.6524 106.442 42.4768 103.299 44.1669 101.447C45.2798 100.225 49.1408 99.1408 54.0598 97.8369C55.791 97.384 57.2749 96.986 57.9894 96.7115C58.2505 96.6017 58.5528 96.739 58.6489 96.9997C58.7589 97.2605 58.6215 97.5624 58.3604 97.6585C57.591 97.9605 56.0795 98.3585 54.3208 98.8251C50.982 99.7035 45.9256 101.035 44.9226 102.133C43.4936 103.684 42.8478 106.291 44.2356 107.952C45.0737 108.968 46.5439 109.558 48.7149 109.764C53.2628 110.203 57.8795 109.146 62.3313 108.117C63.1969 107.925 64.0625 107.719 64.9144 107.54C70.1357 106.401 76.1951 105.55 81.54 107.787C81.801 107.897 81.9247 108.199 81.8148 108.46C81.7048 108.721 81.4026 108.844 81.1415 108.734C76.0577 106.607 70.1906 107.444 65.1343 108.556C64.2824 108.748 63.4168 108.94 62.5649 109.132C58.7589 109.997 54.8429 110.889 50.8995 110.889Z" fill="white"/>
<path d="M42.8204 105.317C42.7792 105.317 42.7517 105.317 42.7105 105.303C41.7762 105.097 41.0342 104.974 40.3884 104.864C36.8022 104.233 36.7061 104.109 31.0177 97.3291C30.0559 96.1763 28.9292 94.8312 27.5826 93.2529C24.5461 89.6708 20.4103 88.4767 18.3081 89.41C17.731 89.6708 17.0715 90.2198 17.2363 91.3452C17.2776 91.6197 17.0852 91.8804 16.8104 91.9216C16.5356 91.9628 16.2745 91.7706 16.2333 91.4962C16.041 90.1511 16.6455 89.0532 17.9096 88.4904C20.3966 87.3787 24.9995 88.6002 28.3796 92.6078C29.7124 94.1862 30.8528 95.5449 31.8146 96.6978C37.3656 103.327 37.3656 103.327 40.567 103.89C41.1991 103.999 41.9823 104.137 42.9303 104.342C43.2051 104.397 43.3838 104.672 43.3151 104.946C43.2601 105.152 43.054 105.317 42.8204 105.317Z" fill="white"/>
<path d="M48.8798 100.321C48.7973 100.321 48.7012 100.294 48.6325 100.253C47.0936 99.3741 45.2387 98.784 43.2738 98.1663C39.8938 97.0958 36.0603 95.888 33.1199 92.8549C32.2543 91.9628 31.636 91.1805 31.0451 90.4256C29.8223 88.8747 28.7643 87.5297 25.9063 85.7729C25.6727 85.622 25.5903 85.3063 25.7414 85.073C25.8926 84.8397 26.2086 84.7573 26.4422 84.9083C29.4513 86.7611 30.6054 88.2434 31.8421 89.7943C32.4191 90.5217 33.0237 91.2903 33.8481 92.1412C36.6099 94.9822 40.1548 96.1076 43.5761 97.1919C45.5959 97.837 47.5058 98.4271 49.1408 99.3604C49.3882 99.4976 49.4706 99.8133 49.3332 100.06C49.237 100.225 49.0584 100.321 48.8798 100.321Z" fill="white"/>
<path d="M127.555 84.0985C120.987 84.8946 115.945 82.1634 110.188 85.2789C102.397 89.4786 101.119 89.2865 97.1896 88.5179C91.034 87.3238 86.17 86.1161 80.0556 87.9689C76.8954 88.9296 72.9108 91.2354 70.0529 92.8412C64.3645 96.0527 64.7354 95.5312 60.9432 96.7664C56.244 95.5587 50.7892 94.0352 46.4336 91.6746C40.8277 88.6277 35.208 85.0318 33.5591 84.126C29.176 81.7379 27.9807 83.975 26.1532 85.3475C23.8449 83.9201 18.129 83.8789 18.6374 88.0924C18.7885 89.3688 16.8787 88.7924 16.7138 91.4001C16.4252 95.7508 27.0189 105.921 35.6476 112.22C43.8093 116.008 57.3982 122.761 69.0636 125.149C74.4497 126.247 96.5575 117.944 109.982 112.783C117.841 109.764 120.74 113.73 128.627 110.381C131.457 107.815 134.027 83.3162 127.555 84.0985Z" fill="#333436"/>
<path d="M70.218 125.753C69.7371 125.753 69.3249 125.712 68.9814 125.643C58.5526 123.502 46.4064 117.806 38.3684 114.032C37.3379 113.552 36.3624 113.085 35.4418 112.673C35.4143 112.66 35.3868 112.646 35.3593 112.618C27.2115 106.703 15.9033 96.1763 16.2194 91.3726C16.3293 89.6296 17.1812 89.0669 17.7445 88.6826C18.1567 88.4081 18.1842 88.3532 18.1567 88.161C17.9231 86.267 18.83 85.2514 19.6407 84.7436C21.4131 83.6044 24.381 83.8378 26.1397 84.7436C26.3321 84.5926 26.5107 84.4279 26.7031 84.2632C28.1733 82.9731 29.8496 81.5046 33.8342 83.6868C34.425 84.0162 35.5242 84.675 36.8982 85.5122C39.5088 87.0905 43.0813 89.259 46.7087 91.2354C50.817 93.4725 55.9695 94.9685 60.9572 96.2449C61.7129 95.9978 62.2899 95.8331 62.8121 95.6822C64.7219 95.1195 65.4364 94.9136 69.8333 92.4157L70.3416 92.1275C73.1171 90.5629 76.9094 88.4081 79.9322 87.4885C85.7031 85.7455 90.4434 86.6788 95.9257 87.763C96.3791 87.8591 96.8326 87.9414 97.2997 88.0375C101.106 88.7786 102.246 88.9982 109.954 84.8397C113.637 82.8496 117.017 83.1652 120.603 83.4946C122.788 83.7005 125.041 83.9064 127.5 83.6044C128.476 83.4809 129.836 83.7966 130.826 85.9239C133.587 91.949 131.444 108.542 128.998 110.766C128.957 110.807 128.902 110.834 128.861 110.862C124.711 112.618 121.867 112.413 119.119 112.207C116.453 112.015 113.939 111.822 110.202 113.263C94.8402 119.165 76.7995 125.753 70.218 125.753ZM35.9089 111.781C36.802 112.193 37.7776 112.646 38.7944 113.126C46.7911 116.873 58.8687 122.541 69.1737 124.655C74.7385 125.794 100.213 115.995 109.803 112.303C113.76 110.779 116.508 110.985 119.16 111.177C121.895 111.383 124.478 111.562 128.352 109.942C130.468 107.774 132.392 91.7844 129.891 86.3356C129.012 84.4279 127.968 84.5652 127.624 84.6063L127.569 84.0985L127.624 84.6063C125.055 84.922 122.746 84.7024 120.507 84.4965C116.934 84.1671 113.857 83.8789 110.435 85.718C102.727 89.8766 101.312 89.8354 97.0936 89.012C96.6265 88.9159 96.1593 88.8335 95.7059 88.7375C90.1274 87.6395 85.7306 86.7611 80.207 88.4493C77.2941 89.3276 73.5431 91.455 70.8225 92.9921L70.3142 93.2803C65.8074 95.8331 65.0654 96.0527 63.0731 96.6292C62.5373 96.7939 61.919 96.9723 61.1083 97.2331C61.0121 97.2605 60.9159 97.2605 60.8197 97.2468C55.7359 95.9429 50.4322 94.4195 46.2003 92.1C42.5591 90.1237 38.973 87.9414 36.3486 86.3494C34.9746 85.5122 33.8891 84.8671 33.3121 84.5514C29.9457 82.7123 28.7366 83.7829 27.3351 85.0044C27.0603 85.2514 26.7718 85.4984 26.4557 85.7318C26.2909 85.8553 26.0573 85.869 25.8787 85.7592C24.4634 84.8808 21.6467 84.6201 20.149 85.5808C19.3384 86.1023 18.9949 86.9121 19.1323 88.0101C19.2422 88.861 18.6789 89.2316 18.2804 89.5061C17.7995 89.8354 17.2911 90.1648 17.2087 91.4138C16.9751 95.2704 26.6756 105.042 35.9089 111.781Z" fill="white"/>
<path d="M56.2028 108.748C53.3174 108.748 51.009 108.062 49.264 105.976C47.4091 103.752 48.632 101.817 50.2259 100.074C51.3388 98.8526 55.1998 97.7683 60.1187 96.4645C61.85 96.0116 63.3339 95.6135 64.0484 95.339C64.3095 95.2292 64.6117 95.3665 64.7079 95.6273C64.8178 95.888 64.6804 96.19 64.4194 96.286C63.6499 96.588 62.1385 96.986 60.3798 97.4527C57.0409 98.331 51.9846 99.6623 50.9816 100.76C49.1541 102.764 48.9068 103.958 50.0472 105.317C52.8502 108.679 57.4257 107.911 64.3369 106.744C68.5826 106.031 73.8588 105.138 79.9045 105.138C80.1793 105.138 80.4129 105.372 80.4129 105.646C80.4129 105.935 80.1793 106.154 79.9045 106.154C73.955 106.154 68.9399 107.005 64.5156 107.746C61.3553 108.281 58.5798 108.748 56.2028 108.748Z" fill="white"/>
<path d="M101.395 80.9693C106.011 80.5164 112.881 79.8988 117.539 79.8576C119.765 79.8439 123.008 80.2968 125.385 80.6811C127.473 81.0242 129.26 82.5339 130.043 84.6612C131.939 89.7668 134.096 100.211 131.898 116.406C131.582 118.698 130.441 122.116 128.545 123.584C126.127 125.437 106.904 125.506 102.741 123.145C103.882 117.601 105.544 110.724 103.524 93.8705C103.071 90.0139 99.952 81.1065 101.395 80.9693Z" fill="#BEE8FF"/>
<path d="M116.893 125.465C111.013 125.465 104.774 124.875 102.494 123.584C102.301 123.475 102.205 123.255 102.246 123.035L102.384 122.363C103.524 116.859 104.939 110.011 103.016 93.9254C102.851 92.5255 102.315 90.3982 101.793 88.3257C100.625 83.7142 100.185 81.6144 100.749 80.8183C100.886 80.6125 101.106 80.4889 101.339 80.4615C106.492 79.9674 112.991 79.3772 117.525 79.3498C119.806 79.3223 123.09 79.789 125.467 80.187C127.734 80.5576 129.672 82.2045 130.523 84.4965C131.897 88.1748 134.824 98.6604 132.406 116.489C132.062 119.055 130.798 122.514 128.847 123.996C127.611 124.943 122.417 125.465 116.893 125.465ZM103.318 122.857C107.907 124.943 126.044 124.847 128.229 123.173C129.864 121.924 131.059 118.781 131.389 116.338C133.766 98.7291 130.908 88.4493 129.562 84.8397C128.833 82.9045 127.198 81.5046 125.288 81.1889C122.966 80.8046 119.737 80.3517 117.525 80.3654C113.06 80.4066 106.657 80.9693 101.546 81.4634C101.298 82.2183 102.178 85.7318 102.768 88.0787C103.304 90.1786 103.84 92.3471 104.019 93.8019C105.956 110.052 104.527 116.997 103.373 122.569L103.318 122.857Z" fill="white"/>
<path d="M113.843 85.3475C111.906 84.9632 110.01 86.2121 109.611 88.1336C109.227 90.0551 110.477 91.9353 112.428 92.3196C114.366 92.7039 116.262 91.455 116.66 89.5335C117.045 87.5983 115.781 85.7318 113.843 85.3475Z" fill="#333436"/>
<path d="M113.129 92.8823C112.868 92.8823 112.593 92.8549 112.318 92.8C111.233 92.5804 110.312 91.9628 109.708 91.057C109.103 90.1511 108.897 89.0806 109.117 88.0238C109.557 85.8279 111.727 84.4005 113.94 84.8397C115.025 85.0593 115.946 85.6769 116.55 86.5827C117.155 87.4885 117.361 88.5591 117.141 89.6159C116.756 91.5511 115.039 92.8823 113.129 92.8823ZM113.129 85.7867C111.686 85.7867 110.408 86.7886 110.106 88.2297C109.941 89.0257 110.106 89.8217 110.56 90.508C111.013 91.1942 111.714 91.6608 112.524 91.8255C114.187 92.1549 115.822 91.0844 116.152 89.4375C116.317 88.6414 116.152 87.8454 115.698 87.1592C115.245 86.4729 114.544 86.0063 113.734 85.8416C113.541 85.8004 113.335 85.7867 113.129 85.7867Z" fill="white"/>
<path d="M127.143 120.62C127.129 120.62 127.115 120.62 127.088 120.606C126.992 120.579 126.951 120.483 126.978 120.4C128.091 116.667 128.654 112.783 128.668 108.858C128.668 108.762 128.751 108.693 128.833 108.693C128.929 108.693 128.998 108.776 128.998 108.858C128.984 112.824 128.407 116.736 127.294 120.496C127.28 120.565 127.212 120.62 127.143 120.62Z" fill="white"/>
<path d="M123.955 121.1C123.928 121.1 123.9 121.1 123.887 121.087C123.804 121.045 123.763 120.949 123.804 120.853C124.409 119.591 124.821 118.246 125.027 116.846C125.041 116.75 125.123 116.695 125.219 116.708C125.316 116.722 125.371 116.804 125.357 116.901C125.151 118.342 124.725 119.728 124.107 121.018C124.079 121.059 124.024 121.1 123.955 121.1Z" fill="white"/>
<path d="M51.2157 107.54C51.147 107.54 51.0783 107.527 51.0096 107.499C42.9991 103.89 35.7031 99.5388 29.9048 94.9548C29.5887 94.694 29.204 94.3783 28.7781 94.0215C26.1812 91.8118 21.8118 88.1199 18.5692 89.3139C18.3081 89.41 18.0058 89.2728 17.9096 89.012C17.8135 88.7512 17.9509 88.4493 18.2119 88.3532C22.0179 86.967 26.6484 90.8923 29.4239 93.2392C29.8498 93.596 30.2208 93.9117 30.5231 94.1587C36.2527 98.7016 43.48 102.997 51.408 106.58C51.6691 106.689 51.779 106.991 51.6691 107.252C51.6004 107.431 51.4218 107.54 51.2157 107.54Z" fill="white"/>
<path d="M51.2155 100.307C51.1743 100.307 51.1468 100.307 51.1056 100.294C44.7576 98.88 38.0937 94.1038 32.7488 90.2746C30.0145 88.312 27.6512 86.6239 25.81 85.7043C25.5627 85.5808 25.4528 85.2788 25.5764 85.0181C25.7001 84.771 26.0024 84.6612 26.2634 84.7848C28.1733 85.7455 30.5778 87.4611 33.3396 89.4374C38.6158 93.2117 45.1836 97.9193 51.3254 99.2918C51.6002 99.3467 51.7788 99.6211 51.7101 99.8956C51.6689 100.156 51.4491 100.307 51.2155 100.307Z" fill="white"/>
<g opacity="0.1294">
<path d="M128.792 119.467C128.71 119.549 128.545 119.687 128.435 119.796C128.312 119.879 128.133 119.961 128.037 120.016C127.803 120.112 127.721 120.167 128.092 119.989C127.02 120.551 123.544 121.169 122.307 121.279C117.251 121.841 113.033 121.526 109.007 120.565C107.207 120.277 106.547 120.167 105.75 120.098C105.16 120.112 104.527 119.851 103.992 120.167C102.453 120.757 102.618 123.241 104.198 123.653C107.399 124.394 108.141 124.257 111.164 124.614C115.341 125.067 119.559 125.122 123.709 124.394C126.278 124.024 129.287 122.885 129.864 122.047C130.386 121.636 131.046 121.196 131.018 120.428C131.06 119.247 129.562 118.602 128.792 119.467Z" fill="white"/>
</g>
<path d="M57.3436 68.3288C50.8171 67.2171 48.3988 80.6262 57.3436 79.5145M59.7756 68.3288V73.4481M59.7756 79.5007V73.4481M64.7083 68.3288V73.4481M64.7083 79.5007V73.4481M59.7756 73.4481H64.7083M67.2227 79.5007V73.4481M71.331 68.3288H69.1189C68.0746 68.3288 67.2365 69.1798 67.2365 70.2091V73.4481M67.2227 73.4481H69.8334" stroke="white" stroke-width="0.5152" stroke-linecap="round"/>
<path d="M39.6745 25.9745C33.1892 24.3138 25.8932 26.7705 21.5101 31.5741C17.127 36.3778 15.5606 43.2127 16.9209 49.43C18.4735 56.5119 25.6458 61.9194 31.1694 62.5645C40.1554 63.6076 47.5201 59.5313 49.8147 56.8962C54.0329 52.0651 55.9565 45.3674 54.3901 39.2874C52.8375 33.1799 47.63 27.992 39.6745 25.9745Z" fill="#333436"/>
<path d="M34.0411 63.1682C33.093 63.1682 32.1174 63.1133 31.1281 63.0035C25.3436 62.331 18.0751 56.7588 16.4812 49.5259C15.0522 43.0066 16.8522 36.0208 21.1803 31.272C25.8245 26.1802 33.2991 23.8744 39.7844 25.5351C47.5201 27.5115 53.1535 32.6033 54.8298 39.1637C56.3825 45.2026 54.5962 52.1198 50.1582 57.1842C47.8224 59.8743 41.5294 63.1682 34.0411 63.1682ZM35.47 25.9057C30.4411 25.9057 25.3161 28.0742 21.8398 31.8759C17.7178 36.4051 16.0003 43.089 17.3606 49.3337C18.872 56.1823 25.742 61.4801 31.2243 62.1114C40.4439 63.1819 47.5064 58.8587 49.4712 56.5941C53.7169 51.7355 55.4207 45.1477 53.9505 39.3833C52.3566 33.1523 46.9705 28.2938 39.5508 26.3998C38.2318 26.0704 36.8578 25.9057 35.47 25.9057Z" fill="white"/>
<g opacity="0.1294">
<path d="M51.8068 54.4806C52.3701 53.3964 52.8785 52.2847 53.332 51.1592C53.5243 50.6652 53.7304 50.1436 53.8953 49.6221C52.6999 51.3514 49.6771 54.0689 49.1412 54.5081C46.1459 56.9922 45.5413 57.1432 42.5735 58.3098C38.8636 59.6823 36.4041 60.3822 32.7768 60.0117C32.1172 60.0254 29.4242 59.4078 28.9845 59.147C28.5311 58.9686 27.267 58.3647 26.1265 57.651C24.9449 56.8824 23.7907 56.0452 22.6915 55.1531C22.032 54.6041 21.4549 53.9728 20.8916 53.314C19.9985 52.4494 19.1328 51.5573 18.3771 50.5554C18.3359 50.5005 18.3496 50.5142 18.4183 50.6103C17.8825 49.9103 17.168 48.5927 16.7283 48.0986C16.9207 47.4261 16.7283 46.6438 16.1787 46.2184C16.2612 47.3301 16.4123 48.4418 16.6321 49.5397C16.7558 49.8279 16.8657 50.1299 16.9894 50.4181C17.113 50.6926 17.2367 50.9671 17.3741 51.2416C17.7039 51.8592 18.0474 52.4768 18.3771 53.0944C19.4076 54.81 20.6305 56.3883 21.9496 57.7883C23.2549 58.8725 24.6564 59.8195 26.1128 60.643C27.3769 61.3018 28.6685 61.9743 30.0837 62.1802C32.502 62.7154 34.9752 62.8252 37.4209 62.4821C38.6987 62.29 39.9903 62.0566 41.2544 61.741C41.3231 61.6175 41.433 61.5351 41.5842 61.4802C44.7719 60.4509 47.6161 58.4882 50.1442 56.1688C50.7488 55.6198 51.2984 55.0708 51.8068 54.4806Z" fill="white"/>
</g>
<path d="M19.7517 43.1852C19.7517 43.1852 19.738 43.1852 19.7517 43.1852C19.6555 43.1852 19.6006 43.1029 19.6006 43.0205C19.7792 40.4265 20.6723 37.9012 22.1975 35.7327C22.2387 35.6641 22.3349 35.6504 22.4036 35.6915C22.4723 35.7327 22.486 35.8288 22.4448 35.8974C20.9471 38.0384 20.0677 40.5089 19.9029 43.048C19.9029 43.1303 19.8342 43.1852 19.7517 43.1852Z" fill="white"/>
<path d="M23.7904 34.4014C23.7629 34.4014 23.7354 34.3877 23.708 34.3739C23.6393 34.3328 23.6255 34.2367 23.6667 34.1681C24.1064 33.523 24.711 32.9878 25.4255 32.6172C25.4942 32.576 25.5904 32.6035 25.6316 32.6858C25.6728 32.7544 25.6453 32.8505 25.5629 32.8917C24.9034 33.2348 24.3263 33.7289 23.9141 34.3328C23.8866 34.3739 23.8454 34.4014 23.7904 34.4014Z" fill="white"/>
<path d="M49.7456 50.7475C49.7182 50.7475 49.6907 50.7338 49.6632 50.7201C49.5945 50.6789 49.567 50.5828 49.6082 50.5142C50.6525 48.8123 51.312 46.8634 51.4769 44.9008C51.4906 44.8184 51.5593 44.7635 51.6418 44.7635C51.7242 44.7773 51.7792 44.8459 51.7792 44.9282C51.6006 46.9321 50.941 48.9221 49.8693 50.6652C49.8418 50.7201 49.8006 50.7475 49.7456 50.7475Z" fill="white"/>
<path d="M30.4959 36.9542C22.1694 35.5269 19.0779 52.6553 30.4959 51.2279M33.5874 36.9542V43.5009M33.5874 51.2142V43.4872M39.8941 36.9542V43.5009M39.8941 51.2142V43.4872M33.5874 43.4872H39.8941M43.1093 51.2142V43.4872M48.3443 36.9542H45.5138C44.1811 36.9542 43.1093 38.0385 43.1093 39.356V43.4872M43.1093 43.4872H46.4344" stroke="white" stroke-width="0.6576" stroke-linecap="round"/>
</g>
<defs>
<clipPath id="clip0_933_14798">
<rect width="118" height="101" fill="white" transform="translate(16 25)"/>
</clipPath>
</defs>
</svg>
