<svg xmlns="http://www.w3.org/2000/svg" xmlns:xlink="http://www.w3.org/1999/xlink" version="1.1" id="Layer_1" x="0px" y="0px" viewBox="0 0 130 119" style="enable-background:new 0 0 130 119;" xml:space="preserve">
    <style type="text/css">
        .st0{fill:#FFFFFF;}
        .st1{fill:#FFFFFF;stroke:#000000;stroke-miterlimit:10;}
        .st2{fill:#FFFFFF;stroke:#000000;stroke-width:0.25;stroke-miterlimit:10;}
        .st3{stroke:#000000;strokeWidth:0.25;stroke-miterlimit:10;}
        .st4{fill:#BEE8FF;stroke:#000000;stroke-width:0.25;stroke-miterlimit:10;}
        .st5{fill:#BEE8FF;}
        .st6{opacity:0.1294;}
        .st7{fill:#BEE8FF;stroke:#000000;stroke-width:2;stroke-miterlimit:10;}
        .st8{fill:#BEE8FF;stroke:#000000;stroke-width:0.5;stroke-miterlimit:10;}
    </style>
    <g>
        <g>
            <path class="st0" d="M60.59,49.63c-0.5,2.14-0.5,5.12-0.5,5.12l1.26,0.51c0,0,1.19,4.89-6.31,3.39c-1.46-0.29-5.67-3.49-5.67-3.49    l3.33-0.95c0,0,0.32-4.85,0.45-7.25C54.9,47.77,58.49,48.97,60.59,49.63z"/>
            <path d="M57.59,59.09c-0.76,0-1.62-0.1-2.58-0.29c-1.47-0.29-5.56-3.39-5.73-3.52c-0.04-0.03-0.07-0.09-0.06-0.14    c0.01-0.05,0.05-0.1,0.1-0.11l3.23-0.92c0.05-0.71,0.32-4.96,0.44-7.15c0-0.05,0.03-0.09,0.07-0.12c0.04-0.02,0.09-0.03,0.14-0.01    c1.66,0.77,5.04,1.92,7.43,2.66c0.07,0.02,0.12,0.1,0.1,0.17c-0.44,1.88-0.49,4.46-0.5,4.99l1.17,0.47    c0.04,0.02,0.08,0.06,0.09,0.1c0.02,0.07,0.39,1.67-0.7,2.8C60.11,58.73,59.04,59.09,57.59,59.09z M49.69,55.22    c0.9,0.67,4.16,3.05,5.38,3.29c2.7,0.54,4.56,0.31,5.51-0.68c0.86-0.89,0.69-2.15,0.64-2.46l-1.18-0.48    c-0.06-0.02-0.09-0.08-0.09-0.14c0-0.03,0.01-2.9,0.48-5.02c-2.29-0.72-5.44-1.79-7.14-2.55c-0.13,2.44-0.43,6.99-0.44,7.04    c0,0.06-0.05,0.11-0.11,0.13L49.69,55.22z"/>
        </g>
        <g>
            <g>
                <g>
                    <path d="M56.92,31.65c-3.35-0.13-6.62,2.03-6.37,3.79c-1.6-0.47-3.44,2.6-3.37,4.04c0.08,1.85,3.68,7.94,4.45,8.91      c0.36,0.46,0.62,0.66,1.24,0.85c-0.04-0.51,0.45-0.83,0.46-1.35c0.01-0.63-0.84-1.73-0.17-1.71c3.17,0.08,2.77,0.8,8.79-5.07      c0.77-0.75,1.27-2.55,1.44-3.92C63.56,35.87,62.61,31.88,56.92,31.65z"/>
                    <path d="M52.88,49.39c-0.01,0-0.03,0-0.04-0.01c-0.68-0.2-0.95-0.44-1.32-0.9c-0.8-1-4.4-7.13-4.48-9      c-0.05-1.1,0.9-2.92,1.96-3.75c0.48-0.38,0.96-0.54,1.4-0.48c0-0.51,0.24-1.04,0.71-1.57c1.01-1.12,3.27-2.29,5.82-2.19      c2.37,0.09,4.23,0.87,5.4,2.24c0.99,1.16,1.32,2.62,1.22,3.47c-0.18,1.45-0.71,3.25-1.48,4c-5.43,5.28-5.72,5.27-7.99,5.15      c-0.27-0.01-0.57-0.03-0.9-0.04c-0.07,0-0.09,0.01-0.1,0.02c-0.05,0.08,0.09,0.43,0.17,0.65c0.12,0.31,0.25,0.63,0.25,0.9      c0,0.28-0.14,0.52-0.25,0.72c-0.11,0.2-0.22,0.39-0.21,0.61c0,0.05-0.02,0.1-0.05,0.13C52.94,49.38,52.91,49.39,52.88,49.39z       M50.22,35.54c-0.4,0-0.78,0.22-1.05,0.43c-1.07,0.84-1.88,2.6-1.84,3.51c0.08,1.81,3.64,7.84,4.42,8.83      c0.3,0.37,0.52,0.57,0.99,0.74c0.03-0.21,0.13-0.39,0.23-0.57c0.11-0.19,0.21-0.37,0.21-0.58c0-0.21-0.12-0.52-0.22-0.79      c-0.15-0.39-0.28-0.72-0.14-0.92c0.07-0.1,0.19-0.15,0.34-0.14c0.34,0.01,0.64,0.02,0.91,0.04c2.21,0.12,2.44,0.13,7.77-5.06      c0.72-0.7,1.22-2.43,1.4-3.83c0.07-0.57-0.08-1.99-1.15-3.25c-1.13-1.33-2.87-2.04-5.18-2.14c-2.46-0.1-4.63,1.02-5.6,2.09      c-0.47,0.53-0.69,1.06-0.62,1.53c0.01,0.05-0.01,0.1-0.05,0.13c-0.04,0.03-0.09,0.04-0.14,0.03      C50.42,35.55,50.32,35.54,50.22,35.54z"/>
                </g>
            </g>
            <g>
                <g>
                    <path class="st0" d="M62.15,40.17c-0.01-0.04-1.15,0.11-2.12-1.27c-0.19,0.73-0.29,1.49-1.78,1.42      c-0.73-0.03-1.79-1.22-2.06-1.93c0,0,1.59-0.38-5.32,2.65c0.01,0.14,0.02,0.28,0.02,0.41c0.01,0.49,0.04,1.56,0.31,2.6      c-0.91-0.56-1.57-0.35-2,0.24c-0.43,0.58-0.27,1.38,0.29,1.81c0.57,0.43,1.46,0.5,2.2,0.22c0.38,1.25,1.05,3.78,2.1,4.79      c1.12,1.07,2.91,1.6,4.65,1.38c1.74-0.22,3.38-1.19,4.27-2.52c1.01-1.51,1.02-3.31,0.68-4.95      C63.05,43.39,62.39,41.82,62.15,40.17z"/>
                    <path d="M57.66,52.7c-1.51,0-2.98-0.53-3.96-1.47c-0.97-0.93-1.6-3.03-2.02-4.43c-0.03-0.1-0.06-0.19-0.08-0.28      c-0.78,0.24-1.64,0.12-2.19-0.29c-0.65-0.49-0.79-1.38-0.32-2.02c0.47-0.64,1.14-0.79,1.9-0.43c-0.2-0.93-0.22-1.82-0.24-2.28      l0-0.03c0-0.12-0.01-0.25-0.02-0.41c0-0.06,0.03-0.12,0.09-0.14c3.69-1.62,4.87-2.23,5.24-2.46c0,0,0,0,0-0.01      c-0.01-0.04-0.01-0.08,0.01-0.12c0.02-0.04,0.05-0.06,0.1-0.07c0.18-0.04,0.29-0.01,0.33,0.1c0.02,0.06,0.03,0.11-0.06,0.2      c0.35,0.67,1.25,1.6,1.83,1.63c1.29,0.06,1.43-0.52,1.6-1.18l0.03-0.13c0.01-0.06,0.06-0.1,0.12-0.11      c0.06-0.01,0.11,0.01,0.15,0.06c0.52,0.74,1.17,1.14,1.94,1.19c0.07,0,0.19,0.01,0.2,0.13l0,0c0.14,0.92,0.41,1.84,0.67,2.73      c0.21,0.69,0.42,1.41,0.57,2.13c0.42,2.03,0.19,3.73-0.7,5.06c-0.91,1.36-2.59,2.35-4.37,2.58C58.2,52.68,57.93,52.7,57.66,52.7      z M51.7,46.19c0.02,0,0.04,0.01,0.07,0.02c0.04,0.02,0.06,0.05,0.07,0.09c0.04,0.13,0.08,0.27,0.13,0.43      c0.38,1.28,1.02,3.42,1.94,4.3c1.09,1.04,2.83,1.56,4.53,1.34c1.7-0.22,3.3-1.16,4.16-2.45c0.84-1.26,1.06-2.89,0.66-4.84      c-0.15-0.71-0.36-1.42-0.56-2.1c-0.26-0.86-0.52-1.75-0.67-2.66c-0.74-0.06-1.39-0.42-1.92-1.07c-0.17,0.64-0.45,1.3-1.86,1.24      c-0.71-0.03-1.66-0.99-2.06-1.75c-0.15,0.09-0.37,0.21-0.69,0.37c-0.89,0.45-2.39,1.14-4.47,2.05c0.01,0.12,0.01,0.22,0.01,0.32      l0,0.03c0.01,0.5,0.05,1.53,0.3,2.53c0.01,0.06-0.01,0.12-0.05,0.15c-0.05,0.04-0.11,0.04-0.16,0.01      c-0.76-0.46-1.36-0.4-1.8,0.2c-0.37,0.51-0.26,1.21,0.26,1.61c0.51,0.39,1.34,0.47,2.06,0.2C51.66,46.19,51.68,46.19,51.7,46.19      z M62.11,40.31L62.11,40.31L62.11,40.31z M62,40.19L62,40.19C62,40.19,62,40.19,62,40.19L62,40.19z"/>
                </g>
            </g>
            <g>
                <path d="M60.96,42.79c-0.01-0.21-0.19-0.37-0.41-0.36c-0.22,0.01-0.39,0.18-0.38,0.39c0.01,0.21,0.19,0.37,0.41,0.36     C60.79,43.17,60.96,43,60.96,42.79z"/>
            </g>
            <g>
                <path d="M55.53,43.87c-0.01-0.21-0.19-0.37-0.41-0.36c-0.22,0.01-0.39,0.18-0.38,0.39s0.19,0.37,0.41,0.36     C55.37,44.26,55.54,44.08,55.53,43.87z"/>
            </g>
            <g>
                <path d="M57.25,49.32c0.5,0,1,0.18,1.38,0.51c0.06,0.05,0.07,0.15,0.01,0.21c-0.05,0.06-0.15,0.07-0.21,0.01     c-0.5-0.44-1.25-0.56-1.87-0.3c-0.07,0.03-0.16,0-0.19-0.08c-0.03-0.07,0-0.16,0.08-0.19C56.7,49.37,56.98,49.32,57.25,49.32z"/>
            </g>
            <g>
                <path d="M58.46,47.89c0,0-0.01,0-0.01,0c-0.42,0-0.81-0.17-1.06-0.45c-0.05-0.06-0.05-0.15,0.01-0.21     c0.06-0.05,0.15-0.05,0.21,0.01c0.2,0.22,0.51,0.35,0.85,0.35c0.3,0,0.62-0.09,0.95-0.26c0.11-0.06,0.24-0.14,0.31-0.24     c0.08-0.13,0.09-0.33,0.02-0.52c-0.06-0.17-0.16-0.32-0.27-0.47l-0.05-0.08c-0.63-0.93-1.05-2.02-1.21-3.13     c-0.01-0.08,0.04-0.15,0.12-0.16c0.08-0.01,0.15,0.04,0.17,0.12c0.15,1.07,0.55,2.11,1.16,3.01l0.05,0.07     c0.11,0.17,0.23,0.34,0.31,0.54c0.1,0.29,0.09,0.57-0.05,0.78c-0.11,0.16-0.27,0.27-0.42,0.34     C59.16,47.79,58.8,47.89,58.46,47.89z"/>
            </g>
            <g>
                <path d="M51.41,45.04c-0.06,0-0.12-0.04-0.14-0.11c-0.13-0.45-0.18-0.69-0.29-1.12c-0.02-0.08,0.03-0.16,0.11-0.18     c0.08-0.02,0.16,0.03,0.18,0.11c0.1,0.43,0.16,0.67,0.28,1.11c0.02,0.08-0.02,0.16-0.1,0.18C51.44,45.03,51.42,45.04,51.41,45.04     z"/>
            </g>
        </g>
        <g>
            <path class="st8" d="M51.41,73.77c0.86-7.52,0.83-14.96,0.22-19.23c-2.94,0.19-7.96,0.95-10.08,2.72    c-4.41,3.68-4.42,9.56-5.46,15.03c-0.96,5.04-1.4,10-0.05,11.73c0.13,0.17,1.12,0.82,1.33,0.78c0.62-0.11,4.92-4.61,4.92-3.27    c0,2.7-0.34,3.79-0.34,3.79h7.43C49.38,85.32,51.11,76.33,51.41,73.77z"/>
        </g>
        <g>
            <path class="st8" d="M73.56,81.27c2.3-0.28,4.37-8.84,0.88-9.44c-0.48-0.08-2.51-8.24-6.6-13.39c-2.18-2.74-6.83-3.41-7.49-3.68    c3,5.19-1.74,30.42-1.74,30.42l6.21,0.01c0,0,1.41-9.29,1.67-11.43c0.2,1.21,1.77,3.96,3.54,6.07c0.66,0.78,1.25,0.63,1.66,1.04    C72.15,81.34,73.03,81.33,73.56,81.27z"/>
        </g>
        <g>
            <path d="M43.63,79.67c-0.01,0-0.02,0-0.04,0c-0.08-0.02-0.13-0.1-0.1-0.18c0.61-2.35,0.98-4.79,1.49-8.16    c0.35-2.29,0.78-5.15,1.41-8.77c0.01-0.08,0.09-0.13,0.17-0.12c0.08,0.01,0.13,0.09,0.12,0.17c-0.63,3.62-1.06,6.47-1.41,8.76    c-0.51,3.38-0.89,5.82-1.5,8.19C43.75,79.62,43.69,79.67,43.63,79.67z"/>
        </g>
        <g>
            <path d="M66.77,73.89c-0.04,0-0.08-0.02-0.11-0.05c-0.04-0.04-0.05-0.11-0.02-0.16c0.05-0.23,0.24-2.43,0.43-4.76    c0.12-1.45,0.26-3.09,0.38-4.5c0.01-0.08,0.08-0.14,0.16-0.13c0.08,0.01,0.14,0.08,0.13,0.16c-0.13,1.41-0.26,3.05-0.38,4.5    c-0.4,4.82-0.41,4.83-0.49,4.9C66.84,73.88,66.81,73.89,66.77,73.89z M66.68,73.64C66.68,73.64,66.68,73.64,66.68,73.64    C66.68,73.64,66.68,73.64,66.68,73.64z M66.68,73.63C66.68,73.63,66.68,73.64,66.68,73.63C66.68,73.64,66.68,73.63,66.68,73.63z"/>
        </g>
        <g>
            <path d="M35.84,79.57c-0.01,0-0.03,0-0.03-0.01c-0.02-0.02-0.02-0.05,0-0.07c1.7-1.69,4.47-2.54,7.06-2.17    c0.03,0,0.05,0.03,0.04,0.06c0,0.03-0.03,0.04-0.06,0.04c-2.56-0.37-5.3,0.47-6.98,2.14C35.87,79.56,35.85,79.57,35.84,79.57z"/>
        </g>
        <g>
            <path d="M36.05,80.38c-0.02,0-0.04-0.01-0.05-0.03c-0.01-0.02,0-0.05,0.03-0.06c0.29-0.12,0.54-0.34,0.77-0.55    c0.09-0.08,0.17-0.16,0.26-0.23c0.55-0.45,1.22-0.75,1.93-0.85c0.03,0,0.05,0.01,0.06,0.04c0,0.03-0.01,0.05-0.04,0.06    c-0.69,0.1-1.34,0.39-1.88,0.83c-0.09,0.07-0.18,0.15-0.26,0.23c-0.24,0.22-0.49,0.44-0.8,0.56    C36.07,80.38,36.06,80.38,36.05,80.38z"/>
        </g>
        <g>
            <path d="M57.47,60.68c-1.37,0-2.73-0.31-3.96-0.92c-0.02-0.01-0.03-0.04-0.02-0.07c0.01-0.02,0.04-0.03,0.07-0.02    c1.63,0.8,3.52,1.09,5.31,0.8c0.95-0.15,1.62-0.46,2.04-0.94c0.02-0.02,0.05-0.02,0.07,0c0.02,0.02,0.02,0.05,0,0.07    c-0.44,0.5-1.12,0.81-2.1,0.97C58.41,60.64,57.94,60.68,57.47,60.68z"/>
        </g>
        <g>
            <g>
                <path class="st0" d="M83.81,64.97c1.47-1.47,0.85-2.48,2.49-4.42c0.68-0.81,1.34-1.51,1.95-2.15c0.32-0.34,0.6-0.77,0.93-0.49     c0.39,0.33-0.04,1.22-0.23,1.51c-0.75,1.11-0.7,1.47-0.66,1.88c1.29-1,3.3-2.33,4.85-2.83c0.12-0.04,0.42-0.02,0.49,0.08     c0.1,0.14,0.01,0.51-0.22,0.67c-0.93,0.66-2.29,1.61-3.21,2.26c1.67-1.06,3.87-2.41,4.22-1.97c0.11,0.14,0.05,0.51-0.19,0.68     c-1,0.73-2.33,1.63-3.33,2.36c0.86-0.74,3.53-2.3,3.74-1.74c0.21,0.56-2.25,2.11-3.29,2.75c0.84-0.52,2.81-1.76,3.03-1.23     c0.17,0.39-0.42,0.75-0.62,0.91c-1.57,1.22-3.42,2.88-5.13,3.5c-0.41,0.15-1.03,0.21-1.38,0.47c-0.37,0.27-0.57,0.59-0.87,0.93     c-8.43,9.61-11.1,12.87-12.62,12.54c-1.28-0.27-0.33-5.47,0.97-8.86C75.42,71.85,80.7,68.08,83.81,64.97z"/>
                <path d="M73.96,80.85c-0.08,0-0.16-0.01-0.24-0.02c-0.2-0.04-0.36-0.17-0.47-0.39c-0.68-1.26,0.16-5.58,1.34-8.67     c0.02-0.06,0.08-0.1,0.14-0.09c0,0,0,0,0.01,0c0.61,0,5.84-3.68,8.97-6.81l0,0c0.71-0.71,0.91-1.29,1.14-1.97     c0.23-0.68,0.5-1.45,1.34-2.44c0.66-0.78,1.3-1.46,1.95-2.15c0.05-0.05,0.09-0.1,0.14-0.15c0.27-0.3,0.61-0.68,0.99-0.35     c0.49,0.42,0,1.39-0.21,1.7c-0.56,0.82-0.65,1.21-0.65,1.52c1.36-1.02,3.24-2.22,4.68-2.69c0.15-0.05,0.53-0.04,0.65,0.14     c0.06,0.08,0.08,0.21,0.06,0.35c-0.03,0.17-0.12,0.39-0.32,0.53c-0.14,0.1-0.29,0.2-0.44,0.31c0.86-0.41,1.3-0.46,1.48-0.23     c0.07,0.09,0.1,0.22,0.08,0.38c-0.03,0.21-0.14,0.4-0.29,0.51c-0.17,0.12-0.34,0.25-0.52,0.37c0.32-0.11,0.58-0.17,0.75-0.12     c0.14,0.04,0.2,0.13,0.23,0.2c0.05,0.14,0.16,0.44-1.01,1.35c0.22-0.06,0.4-0.08,0.53-0.04c0.1,0.03,0.18,0.1,0.22,0.19     c0.19,0.45-0.31,0.82-0.58,1.02c-0.03,0.02-0.06,0.04-0.08,0.06c-0.3,0.23-0.6,0.48-0.93,0.74c-1.33,1.07-2.84,2.28-4.25,2.78     c-0.15,0.05-0.31,0.09-0.49,0.14c-0.32,0.08-0.65,0.16-0.86,0.31c-0.25,0.18-0.42,0.39-0.61,0.62c-0.08,0.09-0.15,0.19-0.24,0.29     c-0.79,0.9-1.53,1.75-2.23,2.54C77.83,78.12,75.44,80.85,73.96,80.85z M74.83,71.95c-1.12,2.96-1.94,7.22-1.32,8.35     c0.08,0.14,0.17,0.22,0.28,0.24c1.29,0.27,3.73-2.51,10.26-9.96c0.69-0.79,1.43-1.64,2.23-2.54c0.08-0.09,0.16-0.19,0.23-0.28     c0.2-0.24,0.38-0.47,0.66-0.68c0.25-0.19,0.61-0.27,0.96-0.36c0.17-0.04,0.33-0.08,0.46-0.13c1.36-0.49,2.85-1.68,4.16-2.73     c0.32-0.26,0.63-0.51,0.93-0.74c0.02-0.02,0.06-0.04,0.09-0.07c0.21-0.15,0.59-0.43,0.49-0.67c0-0.01-0.01-0.02-0.04-0.03     c-0.34-0.11-1.53,0.56-2.28,1.02c-0.16,0.1-0.33,0.2-0.5,0.31c-0.07,0.04-0.16,0.02-0.2-0.05c-0.04-0.07-0.02-0.16,0.05-0.2     l0.02-0.01c0.15-0.1,0.3-0.19,0.45-0.28c2.3-1.44,2.82-2.11,2.76-2.28c0,0,0-0.01-0.03-0.02c-0.34-0.09-1.48,0.48-2.43,1.07     c-0.37,0.26-0.73,0.52-1.06,0.75c-0.06,0.05-0.15,0.03-0.2-0.03c-0.05-0.06-0.04-0.15,0.02-0.2c0.24-0.2,0.62-0.48,1.05-0.75     c0.21-0.15,0.42-0.29,0.62-0.44c0.57-0.4,1.16-0.82,1.66-1.18c0.11-0.08,0.16-0.21,0.18-0.32c0.01-0.09,0-0.14-0.02-0.16     c-0.02-0.02-0.19-0.18-1.44,0.46c-0.8,0.41-1.76,1.01-2.6,1.54c-0.07,0.04-0.16,0.02-0.2-0.04c-0.04-0.07-0.03-0.15,0.04-0.2     c0.46-0.33,1.04-0.73,1.61-1.13c0.57-0.4,1.14-0.8,1.6-1.13c0.11-0.08,0.18-0.23,0.2-0.34c0.01-0.08,0-0.12-0.01-0.13     c-0.04-0.03-0.25-0.06-0.33-0.03c-1.49,0.48-3.46,1.77-4.81,2.81c-0.04,0.03-0.1,0.04-0.15,0.02c-0.05-0.02-0.08-0.07-0.09-0.12     l0-0.04c-0.04-0.42-0.07-0.82,0.69-1.94c0.19-0.29,0.55-1.07,0.26-1.31c-0.15-0.12-0.27-0.03-0.59,0.32     c-0.05,0.05-0.09,0.11-0.14,0.16c-0.65,0.69-1.29,1.36-1.94,2.14c-0.81,0.95-1.05,1.66-1.29,2.35c-0.24,0.68-0.46,1.33-1.21,2.08     l0,0c0,0,0,0,0,0C81.08,67.9,75.94,71.69,74.83,71.95z"/>
            </g>
            <g>
                <path d="M88.21,64.79c-0.04,0-0.08-0.02-0.11-0.05c-0.05-0.06-0.04-0.15,0.02-0.21c0.6-0.5,0.82-1.38,0.52-2.1     c-0.06-0.14-0.13-0.27-0.2-0.41c-0.11-0.19-0.21-0.39-0.28-0.61c-0.02-0.08,0.02-0.16,0.1-0.18c0.08-0.02,0.16,0.02,0.18,0.1     c0.06,0.19,0.15,0.37,0.25,0.55c0.08,0.14,0.16,0.28,0.22,0.44c0.34,0.83,0.08,1.86-0.61,2.44     C88.27,64.78,88.24,64.79,88.21,64.79z"/>
            </g>
        </g>
        <g>
            <path d="M71.65,79.9c-0.02,0-0.04-0.02-0.05-0.04c-0.36-2.28-0.04-4.7,0.9-6.81c0.01-0.02,0.04-0.04,0.06-0.02    c0.02,0.01,0.04,0.04,0.02,0.06c-0.93,2.09-1.24,4.49-0.89,6.75C71.7,79.88,71.68,79.9,71.65,79.9    C71.65,79.9,71.65,79.9,71.65,79.9z"/>
        </g>
        <g>
            <path d="M70.62,79.53c-0.02,0-0.04-0.01-0.05-0.03c-0.24-0.81-0.27-1.67-0.07-2.49c0.01-0.03,0.03-0.04,0.06-0.04    c0.03,0.01,0.04,0.03,0.04,0.06c-0.19,0.81-0.16,1.65,0.07,2.44c0.01,0.03-0.01,0.05-0.03,0.06    C70.63,79.53,70.62,79.53,70.62,79.53z"/>
        </g>
        <g>
            <path class="st0" d="M42.25,79.49c4.14,0.7,8.32,1.35,12.5,2c0.38,0.02,2.27,0.18,2.74,0.21c0.4,0.03,0.79-0.03,1.18-0.11    c1.35-0.29,4.23-0.8,4.74-0.34c1.26,0.7,2.26,1.96,2.94,3.41c0.38,0.81,0.56,2.06,0.29,2.21c-0.17,0.09-0.39,0.1-0.52-0.07    c-0.33-1.51-1.21-2.89-2.43-3.83c0.56,0.5,1.05,1.08,1.47,1.7c0.42,0.63,0.78,1.36,0.74,2.11c0,0.06-0.01,0.12-0.05,0.17    c-0.1,0.1-0.27-0.01-0.36-0.12c-0.18-0.22-2.48-3.14-3.02-3.2c0.64,0.42,2.67,3.01,2.63,3.23c-0.02,0.1-0.06,0.21-0.15,0.27    c-0.11,0.09-0.28,0.09-0.41,0.03c-0.13-0.05-0.24-0.15-0.35-0.25c-0.69-0.67-1.29-1.45-2.08-2.01c-0.39-0.28-0.9-0.5-1.35-0.32    c0.71,0.47,1.34,1.06,1.82,1.76c0.08,0.11,0.13,0.23,0.17,0.36c0.06,0.19,0.11,0.46-0.06,0.58c-0.27,0.18-0.43,0.02-0.59-0.13    c-0.63-0.66-1.3-1.24-2.03-1.74c-0.23-0.15-0.5-0.31-0.76-0.22c-0.22,0.08-1.29,0.45-3.25,0.11c-0.67-0.12-1.34-0.09-2.22-0.05    c-11.52,0.53-15.03,0.99-17.41-0.74c-0.46-0.34-0.58-0.65-0.2-1.49C37.25,80.77,38,79.53,42.25,79.49z"/>
            <path d="M62.48,87.5c-0.2,0-0.34-0.14-0.45-0.24l-0.01-0.01c-0.65-0.68-1.31-1.24-2.01-1.72c-0.19-0.13-0.43-0.27-0.63-0.2    c-0.39,0.14-1.5,0.43-3.32,0.12c-0.67-0.12-1.37-0.08-2.18-0.05c-1.54,0.07-2.95,0.14-4.2,0.2c-8.38,0.42-11.2,0.56-13.3-0.97    c-0.57-0.41-0.63-0.82-0.25-1.67c1.01-2.28,1.79-3.58,6.12-3.63c0.01,0,0.02,0,0.03,0c4.19,0.71,8.41,1.37,12.49,2    c0.29,0.02,1.33,0.1,2.09,0.16c0.28,0.02,0.51,0.04,0.64,0.05c0.41,0.03,0.83-0.04,1.14-0.11c1.26-0.27,4.23-0.83,4.86-0.32    c1.22,0.68,2.25,1.88,2.99,3.47c0.32,0.69,0.66,2.16,0.23,2.4c-0.25,0.14-0.53,0.1-0.69-0.09c-0.01,0.05-0.04,0.1-0.08,0.14    c-0.06,0.06-0.13,0.09-0.22,0.09c-0.15-0.01-0.28-0.12-0.37-0.22c-0.01-0.02-0.04-0.05-0.08-0.1c-0.03-0.03-0.05-0.07-0.08-0.1    c0.03,0.07,0.04,0.12,0.04,0.16c-0.03,0.16-0.1,0.28-0.2,0.36c-0.15,0.11-0.36,0.14-0.56,0.06c-0.16-0.06-0.28-0.18-0.39-0.29    c-0.23-0.23-0.46-0.47-0.68-0.7c-0.43-0.46-0.87-0.93-1.38-1.3c-0.24-0.17-0.57-0.35-0.89-0.36c0.63,0.46,1.15,0.99,1.57,1.59    c0.08,0.12,0.15,0.26,0.19,0.41c0.04,0.14,0.16,0.55-0.11,0.74C62.67,87.47,62.57,87.5,62.48,87.5z M59.49,85.02    c0.25,0,0.49,0.14,0.68,0.27c0.72,0.5,1.4,1.07,2.05,1.76l0.01,0.01c0.17,0.16,0.24,0.21,0.39,0.1c0.03-0.02,0.09-0.1,0-0.41    c-0.03-0.12-0.09-0.23-0.15-0.32c-0.46-0.66-1.06-1.24-1.78-1.72c-0.05-0.03-0.07-0.08-0.06-0.14c0.01-0.05,0.04-0.1,0.09-0.12    c0.53-0.21,1.1,0.07,1.49,0.34c0.54,0.38,0.99,0.87,1.43,1.33c0.22,0.23,0.44,0.47,0.67,0.69c0.1,0.09,0.19,0.18,0.3,0.22    c0.08,0.03,0.2,0.04,0.27-0.01c0.04-0.03,0.07-0.09,0.09-0.16c-0.12-0.35-1.97-2.71-2.57-3.1c-0.06-0.04-0.08-0.11-0.06-0.17    c0.02-0.06,0.09-0.1,0.15-0.1c0.14,0.02,0.56,0.06,3.04,3.16c0.04,0.05,0.06,0.08,0.08,0.1c0.06,0.07,0.13,0.11,0.15,0.11    c0,0,0,0,0,0c-0.01,0,0-0.01,0-0.07c0.04-0.61-0.19-1.25-0.71-2.02c-0.41-0.61-0.9-1.17-1.45-1.67c-0.06-0.05-0.06-0.14-0.01-0.2    c0.05-0.06,0.14-0.07,0.2-0.02c1.24,0.94,2.14,2.35,2.48,3.87c0.08,0.08,0.22,0.06,0.32,0.01c0.13-0.12,0.04-1.17-0.35-2.02    c-0.7-1.51-1.73-2.7-2.88-3.34c-0.01-0.01-0.02-0.01-0.03-0.02c-0.33-0.29-2.18-0.14-4.61,0.37c-0.33,0.07-0.77,0.15-1.22,0.11    c-0.13-0.01-0.36-0.03-0.64-0.05c-0.72-0.06-1.82-0.14-2.09-0.16c0,0-0.01,0-0.01,0c-4.08-0.63-8.3-1.29-12.49-2    c-4.15,0.05-4.86,1.22-5.85,3.45c-0.36,0.82-0.22,1.04,0.16,1.31c2.01,1.47,4.81,1.33,13.12,0.91c1.25-0.06,2.66-0.13,4.2-0.2    c0.83-0.04,1.55-0.07,2.25,0.05c1.76,0.3,2.8,0.03,3.17-0.11C59.35,85.03,59.42,85.02,59.49,85.02z M64.96,86.86L64.96,86.86    L64.96,86.86z"/>
        </g>
    </g>
    </svg>