<svg xmlns="http://www.w3.org/2000/svg" xmlns:xlink="http://www.w3.org/1999/xlink" version="1.1" id="Layer_1" x="0px" y="0px" viewBox="0 0 130 119" style="enable-background:new 0 0 130 119;" xml:space="preserve">
    <style type="text/css">
        .st0{fill:#FFFFFF;}
        .st1{fill:#FFFFFF;stroke:#000000;stroke-miterlimit:10;}
        .st2{fill:#FFFFFF;stroke:#000000;stroke-width:0.25;stroke-miterlimit:10;}
        .st3{stroke:#000000;stroke-width:0.25;stroke-miterlimit:10;}
        .st4{fill:#ACD4F7;stroke:#000000;stroke-width:0.25;stroke-miterlimit:10;}
        .st5{fill:#ACD4F7;}
        .st6{opacity:0.1294;}
        .st7{fill:#ACD4F7;stroke:#000000;stroke-width:2;stroke-miterlimit:10;}
    </style>
    <g>
        <g>
            <rect x="19.3" y="89.39" class="st0" width="24.31" height="18.65"/>
            <path d="M43.61,108.72H19.3c-0.37,0-0.67-0.3-0.67-0.67V89.39c0-0.37,0.3-0.67,0.67-0.67h24.31c0.37,0,0.67,0.3,0.67,0.67v18.65    C44.29,108.42,43.98,108.72,43.61,108.72z M19.97,107.37h22.96V90.07H19.97V107.37z"/>
        </g>
        <g>
            <rect x="55.17" y="72.04" class="st5" width="24.31" height="36.01"/>
            <path d="M79.48,108.72H55.17c-0.37,0-0.67-0.3-0.67-0.67V72.04c0-0.37,0.3-0.67,0.67-0.67h24.31c0.37,0,0.67,0.3,0.67,0.67v36.01    C80.15,108.42,79.85,108.72,79.48,108.72z M55.84,107.37h22.96V72.71H55.84V107.37z"/>
        </g>
        <g>
            <rect x="90.75" y="50.67" class="st0" width="24.31" height="57.37"/>
            <path d="M115.06,108.72H90.75c-0.37,0-0.67-0.3-0.67-0.67V50.67c0-0.37,0.3-0.67,0.67-0.67h24.31c0.37,0,0.67,0.3,0.67,0.67v57.38    C115.73,108.42,115.43,108.72,115.06,108.72z M91.42,107.37h22.96V51.35H91.42V107.37z"/>
        </g>
        <g>
            <path d="M14.94,76.58c-0.3,0-0.57-0.2-0.65-0.5c-0.1-0.36,0.12-0.73,0.48-0.82c19.64-5.24,30-10.26,49.36-21.78    c18.85-11.22,36.45-26.49,49.56-43c0.23-0.29,0.66-0.34,0.95-0.11c0.29,0.23,0.34,0.66,0.11,0.95    C101.53,27.95,83.8,43.33,64.82,54.63C46.2,65.71,35.19,71.2,15.11,76.55C15.06,76.57,15,76.58,14.94,76.58z"/>
        </g>
        <g>
            <path d="M112.4,25.24c-0.35,0-0.65-0.27-0.67-0.63c-0.28-4,0.18-7.97,1.35-11.83c-4.31,2.39-8.99,4.17-13.95,5.29    c-0.36,0.08-0.72-0.15-0.81-0.51c-0.08-0.36,0.15-0.72,0.51-0.81c5.42-1.23,10.5-3.26,15.1-6.03c0.24-0.15,0.55-0.12,0.78,0.06    c0.22,0.18,0.3,0.48,0.21,0.75c-1.52,4.21-2.14,8.58-1.84,12.98c0.03,0.37-0.25,0.69-0.63,0.72    C112.43,25.24,112.42,25.24,112.4,25.24z"/>
        </g>
        <g>
            <path d="M25.5,106.11c-0.05,0-0.09-0.01-0.13-0.04c-1.42-1.04-2.72-2.25-3.85-3.6c-0.08-0.1-0.07-0.24,0.03-0.32    c0.1-0.08,0.24-0.07,0.32,0.03c1.11,1.32,2.37,2.51,3.77,3.52c0.1,0.07,0.12,0.21,0.05,0.31    C25.64,106.08,25.57,106.11,25.5,106.11z"/>
        </g>
        <g>
            <path d="M30.65,106.09c-0.05,0-0.1-0.02-0.14-0.05c-3.2-2.71-6.28-5.63-9.15-8.68c-0.09-0.09-0.08-0.23,0.01-0.32    c0.09-0.08,0.23-0.08,0.32,0.01c2.86,3.04,5.92,5.95,9.11,8.65c0.09,0.08,0.11,0.22,0.03,0.32    C30.78,106.06,30.72,106.09,30.65,106.09z"/>
        </g>
        <g>
            <path d="M35.51,106.14c-0.06,0-0.11-0.02-0.15-0.06c-4.26-4.06-8.51-8.25-12.62-12.46c-0.09-0.09-0.09-0.23,0-0.32    c0.09-0.09,0.23-0.09,0.32,0c4.11,4.2,8.35,8.39,12.61,12.45c0.09,0.09,0.09,0.23,0.01,0.32    C35.62,106.11,35.57,106.14,35.51,106.14z"/>
        </g>
        <g>
            <path d="M40.33,105.81c-0.06,0-0.11-0.02-0.16-0.06L26.14,92.27c-0.09-0.09-0.09-0.23-0.01-0.32c0.09-0.09,0.23-0.09,0.32-0.01    l14.03,13.48c0.09,0.09,0.09,0.23,0.01,0.32C40.45,105.79,40.39,105.81,40.33,105.81z"/>
        </g>
        <g>
            <path d="M41.25,101.73c-0.06,0-0.12-0.02-0.16-0.07c-3.19-3.31-6.55-6.54-10-9.59c-0.09-0.08-0.1-0.22-0.02-0.32    c0.08-0.09,0.22-0.1,0.32-0.02c3.45,3.06,6.82,6.29,10.02,9.62c0.09,0.09,0.08,0.23-0.01,0.32    C41.36,101.71,41.3,101.73,41.25,101.73z"/>
        </g>
        <g>
            <path d="M40.95,96.34c-0.06,0-0.12-0.02-0.17-0.07c-1.4-1.52-2.89-3-4.41-4.39c-0.09-0.08-0.1-0.23-0.01-0.32    c0.08-0.09,0.23-0.1,0.32-0.01c1.54,1.4,3.03,2.89,4.44,4.42c0.08,0.09,0.08,0.23-0.01,0.32C41.06,96.32,41,96.34,40.95,96.34z"/>
        </g>
        <g class="st6">
            <path d="M115.2,105.84c-0.08-1.07-0.05-2.14-0.06-3.21c-0.01-2.65,0.14-5.3,0-7.95c0.01-2.15,0.13-4.31-0.08-6.46    c-0.25-2.6-0.31-5.2-0.29-7.81c-0.18-3.42-0.35-6.83-0.42-10.25c-0.08-2.91,0.1-5.82,0.16-8.74c0.12-3.11,0.02-6.23,0.24-9.33    c0.51-1.93-2.24-2.53-2.44-0.53c-0.32,2.58-0.32,5.18-0.42,7.77c-0.11,2.89-0.26,5.78-0.3,8.67c-0.01,5,0.27,9.99,0.22,14.99    c0.03,2.9,0.51,5.78,0.43,8.68c-0.04,1.96,0.01,3.93,0.15,5.89c-0.02,2.35-0.08,4.7,0.02,7.05c-0.02,0.76-0.02,1.51,0,2.27    c-0.02,0.3-0.06,0.63,0.1,0.9c0.23,0.67,1.02,1.01,1.69,0.83C115.43,108.26,115.31,106.85,115.2,105.84z"/>
        </g>
        <g class="st6">
            <path d="M79.38,105.87c-0.41-2.89-0.58-8.11-0.46-12.16c-0.24-3.32,0.11-6.64,0.06-9.97c-0.09-2.69-0.1-5.39-0.13-8.09    c-0.07-1.07,0.13-2.2-0.15-3.24c-0.46-1.24-2.41-0.85-2.38,0.48c0.01,6.01,0.09,12.02-0.13,18.03c-0.02,1.19,0.15,2.37,0.12,3.56    c0,1.79-0.16,3.58-0.05,5.37c0.01,1.81,0.15,3.6,0.43,5.38c0.06,0.65-0.02,1.31-0.09,1.96c0,0,0,0,0-0.01c0,0.02,0,0.03-0.01,0.05    c-0.04,1.21,1.57,1.88,2.4,0.99C79.63,107.61,79.38,106.67,79.38,105.87z"/>
        </g>
        <g class="st6">
            <path d="M43.01,106.45c-0.04-1.02-0.01-2.03,0-3.05c-0.05-4.44-0.23-8.88-0.3-13.33c-0.03-1.74-2.62-1.74-2.65,0    c-0.08,4.72,0.2,9.44,0.24,14.16c-0.02,0.81,0,1.61-0.02,2.42c0.03,0.43-0.06,0.9,0.14,1.29c0.36,1.04,1.93,1.12,2.45,0.16    C43.19,107.61,43,107.01,43.01,106.45z"/>
        </g>
    </g>
    </svg>