<svg width="130" height="130" viewBox="0 0 138 118" fill="none" xmlns="http://www.w3.org/2000/svg">
<path d="M121.588 65.2181C116.183 65.4276 104.798 65.2181 102.254 65.2181C98.5113 65.2181 96.0166 65.2181 92.2745 68.9892C88.5323 72.7602 80.4242 77.1598 72.3161 76.5313C67.5044 76.1583 58.2768 76.454 51.2017 76.8026C47.0259 77.0083 42.51 77.7434 39.8494 80.9685C37.6301 83.6586 37.6816 86.8591 44.8625 89.2192C47.7153 90.1568 50.7586 90.3639 53.7615 90.343C70.4286 90.2267 80.0507 89.4869 82.919 89.1015M31.7757 82.8164C29.2809 82.8164 25.9128 81.8115 12.4409 72.761C6.8265 68.9892 -1.28044 74.6465 1.21436 77.7891C18.6777 90.9885 32.0252 105.066 55.4763 113.613C78.9273 122.161 87.2847 111.728 92.2745 106.071C97.0561 101.462 109.613 92.7468 121.588 94.758M121.588 94.758C121.588 80.1767 121.588 65.6372 121.588 60.1901C121.588 57.6761 129.339 60.2008 133.439 58.8795C134.858 58.422 137.181 56.4196 137.181 57.0475C137.181 68.5702 137.804 104.815 135.31 102.3C132.943 99.9147 121.588 103.558 121.588 102.3V94.758Z" stroke="black" stroke-linecap="round"/>
<path d="M27.0853 43.021C27.0853 24.0091 70.1894 16.3848 65.9056 46.9814C63.483 64.2848 25.5011 72.3343 27.0853 43.021Z" stroke="black" stroke-linecap="round"/>
<path d="M26.5231 44.1462C28.2944 55.6129 33.609 69.7256 59.2927 58.259C46.8922 68.8436 22.0942 69.7256 26.5231 44.1462Z" fill="white"/>
<path d="M60.1063 11.5514C60.1063 -0.33107 87.0463 -5.09624 84.369 14.0266C82.8548 24.8412 59.1161 29.8722 60.1063 11.5514Z" stroke="black" stroke-linecap="round"/>
<path d="M59.3313 12.1462C60.4531 19.3883 63.819 28.3016 80.0854 21.0596C72.2318 27.7445 56.5263 28.3016 59.3313 12.1462Z" fill="white"/>
<path d="M41.1851 39.0703C34.2724 37.8843 31.7036 52.1156 41.1851 50.9297M43.7543 39.0703V44.5059M43.7543 50.9297V44.5059M48.9873 39.0703V44.5059M48.9873 50.9297V44.5059M43.7543 44.5059H48.9873M51.6541 50.9297V44.5059M56 39.0703H53.6541C52.5495 39.0703 51.6541 39.9657 51.6541 41.0703V44.5059M51.6541 44.5059H54.4197" stroke="black" stroke-linecap="round"/>
<path d="M69.8289 9.04099C65.5496 8.34919 63.9594 16.6508 69.8289 15.959M71.4194 9.04099V12.2118M71.4194 15.959V12.2118M74.6588 9.04099V12.2118M74.6588 15.959V12.2118M71.4194 12.2118H74.6588M76.3097 15.959V12.2118M79 9.04099H78.3097C77.2051 9.04099 76.3097 9.93642 76.3097 11.041V12.2118M76.3097 12.2118H78.0217" stroke="black" stroke-linecap="round"/>
</svg>