<svg width='150' height='150' xmlns="http://www.w3.org/2000/svg" xmlns:xlink="http://www.w3.org/1999/xlink" version="1.1" id="Layer_1" x="0px" y="0px" viewBox="0 0 85.88 73.59" style="enable-background:new 0 0 85.88 73.59;" xml:space="preserve">
    <style type="text/css">
        .st0{fill:#BEE8FF;}
        .st1{fill:#FFFFFF;}
        .st2{opacity:0.1294;}
        .st3{fill:none;stroke:#F2F7F9;stroke-width:0.5152;stroke-linecap:round;}
        .st4{fill:none;stroke:#F2F7F9;stroke-width:0.6576;stroke-linecap:round;}
    </style>
    <g>
        <polygon class="st0" points="85.14,56.48 84.95,51.31 84.05,46.59 82.92,42.76 81.52,41.19 79.85,40.66 76.66,40.06 73.69,39.86    70.64,40.06 66.76,40.43 62.39,40.87 61.98,41.63 62.43,43.61 63.83,49.55 64.21,52.67 64.48,57.52 64.61,62.31 64.19,67.33    63.37,71.6 65.64,72.53 71.67,72.85 77.4,72.91 82.15,71.92 83.64,70.21 84.47,67.17 84.89,63.47  "/>
        <g>
            <g>
                <path class="st1" d="M24.11,35.13c0.1-1.48,0.61-2.92,1.48-4.16c0.03-0.04,0.08-0.05,0.12-0.02c0.04,0.03,0.05,0.08,0.02,0.12     c-0.85,1.21-1.35,2.62-1.45,4.08c0.01,0.03-0.03,0.07-0.08,0.07C24.15,35.22,24.11,35.18,24.11,35.13z"/>
                <path class="st1" d="M26.46,30.19c-0.04-0.03-0.05-0.08-0.02-0.12c0.25-0.37,0.6-0.67,1-0.88c0.04-0.02,0.09-0.01,0.12,0.04     c0.02,0.04,0.01,0.09-0.04,0.12c-0.38,0.2-0.7,0.48-0.94,0.83c-0.02,0.01-0.04,0.02-0.07,0.02C26.49,30.2,26.48,30.2,26.46,30.19     z"/>
                <path class="st1" d="M41.27,39.52c-0.04-0.02-0.05-0.08-0.03-0.12c0.6-0.97,0.97-2.08,1.07-3.2c0-0.05,0.05-0.08,0.09-0.08     c0.05,0,0.08,0.05,0.08,0.09c-0.1,1.15-0.48,2.28-1.09,3.28c-0.03,0.03-0.05,0.04-0.08,0.04C41.29,39.53,41.28,39.53,41.27,39.52     z"/>
                <path class="st1" d="M43.96,32.99c-0.89-3.48-3.86-6.44-8.39-7.6c-3.7-0.95-7.86,0.46-10.36,3.2c-2.12,2.33-3.09,5.5-2.85,8.58     c0.04,0.54,0.11,1.08,0.23,1.61c0.09,0.41,0.21,0.82,0.37,1.21c1.35,3.43,4.92,5.96,7.76,6.29c2.09,0.25,4.03,0,5.68-0.47     c0.02-0.01,0.05-0.01,0.07-0.02c0,0,0-0.01,0.01-0.01c2.35-0.69,4.11-1.86,4.87-2.73c0.29-0.33,0.57-0.68,0.82-1.05     c0.25-0.35,0.47-0.72,0.68-1.09c0.03-0.06,0.06-0.12,0.09-0.18C44.19,38.34,44.62,35.57,43.96,32.99z M41.16,42.86     c-1.13,1.29-5.15,3.76-10.41,3.15c-3.13-0.36-7.05-3.38-7.91-7.29c-0.02-0.09-0.04-0.17-0.05-0.26c-0.68-3.48,0.31-7.17,2.61-9.7     c1.98-2.17,4.9-3.41,7.77-3.41c0.79,0,1.57,0.09,2.33,0.28c4.23,1.08,7.3,3.85,8.21,7.41c0.54,2.07,0.34,4.32-0.48,6.41     c0,0,0,0,0,0.01C42.75,40.68,42.05,41.84,41.16,42.86z"/>
                <path class="st1" d="M44.21,32.9c-0.48-1.87-1.52-3.53-3-4.87c-1.47-1.34-3.38-2.34-5.58-2.91c-3.7-0.94-7.96,0.37-10.61,3.28     c-2.47,2.71-3.5,6.7-2.68,10.42c0.91,4.13,5.05,7.32,8.35,7.7c0.56,0.07,1.12,0.1,1.66,0.1c4.27,0,7.86-1.88,9.2-3.43     C44.07,40.29,45.09,36.35,44.21,32.9z M41.16,42.86c-1.13,1.29-5.15,3.76-10.41,3.15c-3.13-0.36-7.05-3.38-7.91-7.29     c-0.02-0.09-0.04-0.17-0.05-0.26c-0.68-3.48,0.31-7.17,2.61-9.7c1.98-2.17,4.9-3.41,7.77-3.41c0.79,0,1.57,0.09,2.33,0.28     c4.23,1.08,7.3,3.85,8.21,7.41c0.54,2.07,0.34,4.32-0.48,6.41c0,0,0,0,0,0.01C42.75,40.68,42.05,41.84,41.16,42.86z"/>
            </g>
            <g class="st2">
                <path class="st1" d="M43.67,38.89c-0.09,0.3-0.21,0.59-0.32,0.88c-0.13,0.32-0.27,0.64-0.41,0.96c-0.03,0.06-0.06,0.12-0.09,0.18     c-0.12,0.26-0.24,0.51-0.37,0.76c-0.1,0.11-0.2,0.22-0.31,0.33c-0.19,0.21-0.4,0.42-0.63,0.61c-1.44,1.32-3.06,2.44-4.88,3.03     c-0.09,0.03-0.14,0.07-0.18,0.14c-0.01,0-0.01,0.01-0.01,0.01c-0.02,0.01-0.05,0.01-0.07,0.02c-0.71,0.17-1.41,0.29-2.12,0.4     c-1.39,0.2-2.8,0.13-4.18-0.17c-0.8-0.12-1.54-0.5-2.26-0.88c-0.83-0.47-1.63-1.01-2.37-1.63c-0.75-0.8-1.45-1.7-2.04-2.68     c-0.16-0.29-0.31-0.57-0.47-0.86c-0.03-0.06-0.07-0.13-0.1-0.19c-0.08-0.16-0.15-0.31-0.22-0.47c-0.07-0.17-0.14-0.33-0.21-0.5     c-0.13-0.62-0.22-1.25-0.26-1.89c0.08,0.07,0.14,0.14,0.19,0.23c0.16,0.25,0.2,0.57,0.12,0.85c0.09,0.1,0.2,0.26,0.31,0.44     c0.01,0.09,0.03,0.17,0.05,0.26c0.86,3.91,4.78,6.93,7.91,7.29c5.26,0.61,9.28-1.86,10.41-3.15c0.89-1.02,1.59-2.18,2.07-3.4     c0-0.01,0-0.01,0-0.01C43.4,39.25,43.55,39.06,43.67,38.89z"/>
            </g>
            <g>
                <path class="st1" d="M25.73,31.07c-0.85,1.21-1.35,2.62-1.45,4.08c0.01,0.03-0.03,0.07-0.08,0.07c-0.05,0-0.09-0.04-0.09-0.09     c0.1-1.48,0.61-2.92,1.48-4.16c0.03-0.04,0.08-0.05,0.12-0.02C25.75,30.98,25.76,31.03,25.73,31.07z"/>
            </g>
            <g>
                <path class="st1" d="M27.52,29.35c-0.38,0.2-0.7,0.48-0.94,0.83c-0.02,0.01-0.04,0.02-0.07,0.02c-0.02,0-0.03,0-0.05-0.01     c-0.04-0.03-0.05-0.08-0.02-0.12c0.25-0.37,0.6-0.67,1-0.88c0.04-0.02,0.09-0.01,0.12,0.04C27.58,29.27,27.57,29.32,27.52,29.35z     "/>
            </g>
            <g>
                <path class="st1" d="M42.48,36.21c-0.1,1.15-0.48,2.28-1.09,3.28c-0.03,0.03-0.05,0.04-0.08,0.04c-0.02,0-0.03,0-0.04-0.01     c-0.04-0.02-0.05-0.08-0.03-0.12c0.6-0.97,0.97-2.08,1.07-3.2c0-0.05,0.05-0.08,0.09-0.08C42.45,36.12,42.48,36.17,42.48,36.21z"/>
            </g>
        </g>
        <g>
            <g>
                <g>
                    <path class="st1" d="M31.07,53.03c-0.56,0.22-1.66,0.51-2.94,0.85c-0.6,0.16-1.26,0.33-1.94,0.52c-0.3,0.08-0.59,0.17-0.89,0.25      c-0.11,0.03-0.21,0.06-0.32,0.09h-0.01c-0.14-0.04-0.28-0.08-0.42-0.13c-0.26-0.07-0.52-0.16-0.78-0.26      c0.15-0.05,0.3-0.1,0.46-0.15c0.25-0.08,0.5-0.16,0.77-0.23c0,0,0,0,0.01,0c0.31,0.1,0.63,0.18,0.94,0.25h0.01      c1.1-0.58,2.98-1.14,5.27-1.76c0.02,0.03,0.04,0.06,0.05,0.09C31.36,52.74,31.26,52.96,31.07,53.03z"/>
                    <path class="st1" d="M20.15,56.6c0.22,0.12,0.43,0.24,0.65,0.35c-0.13,0.21-0.24,0.43-0.32,0.66c-0.22-0.11-0.44-0.23-0.66-0.36      C19.92,57.02,20.03,56.81,20.15,56.6z"/>
                    <path class="st1" d="M42.75,59.4c-2.65,0.21-5.02,0.61-7.2,0.98c-0.52,0.09-1.03,0.17-1.52,0.25c0.61-0.13,1.21-0.27,1.81-0.4      C38.01,59.76,40.39,59.35,42.75,59.4z"/>
                </g>
                <g>
                    <path class="st1" d="M11.29,51.78l-0.93-0.72c-0.23-0.19-0.51-0.42-0.82-0.68c-0.43-0.37-0.93-0.79-1.48-1.22      c-1.32-1.29-2.82-2.04-4.11-2.28c-0.08-0.02-0.15-0.03-0.22-0.03c-0.46-0.07-0.89-0.07-1.26,0c-0.07,0.01-0.15,0.03-0.22,0.05      c-0.05,0.02-0.09,0.03-0.13,0.04v0.01H2.11c-0.01,0-0.02,0.01-0.03,0.01c-0.01,0-0.01,0-0.02,0H2.05C2,46.98,1.96,47,1.92,47.02      c-0.41,0.19-0.86,0.55-0.79,1.3v0.01c0,0.01,0,0.01,0,0.02s0,0.01,0,0.02c0.01,0.02,0.01,0.04,0.01,0.06      c0.01,0.06,0,0.13-0.02,0.18c-0.05,0.12-0.15,0.22-0.29,0.24H0.78c-0.18,0-0.34-0.13-0.37-0.31C0.4,48.51,0.4,48.48,0.4,48.45      v-0.02c-0.1-0.93,0.35-1.69,1.23-2.08c0.04-0.02,0.08-0.03,0.12-0.05c0.01,0,0.01,0,0.02-0.01c0.06-0.02,0.12-0.04,0.19-0.07      c0.07-0.02,0.14-0.04,0.21-0.05c0.11-0.03,0.23-0.05,0.36-0.07c0.29-0.04,0.61-0.05,0.94-0.03c0.11,0.01,0.21,0.02,0.32,0.04      c0.08,0,0.16,0.02,0.24,0.03c1.57,0.34,3.18,1.41,4.52,2.47c0.01,0.01,0.03,0.02,0.05,0.04c0.22,0.22,0.44,0.45,0.65,0.7      C10.02,50.26,10.69,51.07,11.29,51.78z"/>
                </g>
                <g>
                    <path class="st1" d="M11.52,47c-1.54-1.1-2.89-2.03-3.99-2.6H7.52c-0.03-0.01-0.05-0.02-0.07-0.03c-0.01,0-0.01-0.01-0.02-0.01      c0,0-0.01,0-0.01-0.01l-0.01-0.01c-0.13-0.12-0.17-0.3-0.09-0.45c0-0.01,0-0.02,0.01-0.03c0.11-0.17,0.34-0.23,0.51-0.12      c0.03,0.02,0.07,0.04,0.1,0.07c0.11,0.06,0.22,0.13,0.32,0.2C9.96,45.12,10.77,46.05,11.52,47z"/>
                    <path class="st1" d="M24.55,54.61c-0.26-0.07-0.52-0.16-0.78-0.26h-0.01c-1.3-0.46-2.6-1.08-3.87-1.79      c0.14,0.04,0.28,0.08,0.42,0.13c1.42,0.45,2.76,0.87,3.92,1.51c0.05,0.02,0.09,0.05,0.13,0.07      C24.49,54.34,24.55,54.48,24.55,54.61z"/>
                </g>
            </g>
            <g>
                <path class="st1" d="M3.95,46.88c1.39,0.31,2.86,1.3,4.11,2.28C6.74,47.87,5.24,47.12,3.95,46.88z M2.47,46.85     c0.37-0.07,0.8-0.07,1.26,0C3.29,46.76,2.87,46.76,2.47,46.85z M2.12,46.94v0.01c0.04-0.02,0.09-0.03,0.13-0.05     C2.2,46.92,2.16,46.93,2.12,46.94z M3.95,46.88c1.39,0.31,2.86,1.3,4.11,2.28C6.74,47.87,5.24,47.12,3.95,46.88z M2.47,46.85     c0.37-0.07,0.8-0.07,1.26,0C3.29,46.76,2.87,46.76,2.47,46.85z M2.12,46.94v0.01c0.04-0.02,0.09-0.03,0.13-0.05     C2.2,46.92,2.16,46.93,2.12,46.94z M10.81,50.48c-0.22-0.18-0.49-0.41-0.8-0.67c-0.42-0.35-0.9-0.76-1.41-1.16     c0.22,0.22,0.44,0.45,0.65,0.7c0.77,0.91,1.44,1.72,2.04,2.43c2.53,1.92,5.41,3.76,8.53,5.47c0.1-0.23,0.21-0.44,0.33-0.65     C16.68,54.7,13.52,52.63,10.81,50.48z M3.95,46.88c1.39,0.31,2.86,1.3,4.11,2.28C6.74,47.87,5.24,47.12,3.95,46.88z M2.47,46.85     c0.37-0.07,0.8-0.07,1.26,0C3.29,46.76,2.87,46.76,2.47,46.85z M2.12,46.94v0.01c0.04-0.02,0.09-0.03,0.13-0.05     C2.2,46.92,2.16,46.93,2.12,46.94z M10.81,50.48c-0.22-0.18-0.49-0.41-0.8-0.67c-0.42-0.35-0.9-0.76-1.41-1.16     c0.22,0.22,0.44,0.45,0.65,0.7c0.77,0.91,1.44,1.72,2.04,2.43c2.53,1.92,5.41,3.76,8.53,5.47c0.1-0.23,0.21-0.44,0.33-0.65     C16.68,54.7,13.52,52.63,10.81,50.48z M10.81,50.48c-0.22-0.18-0.49-0.41-0.8-0.67c-0.42-0.35-0.9-0.76-1.41-1.16     c0.22,0.22,0.44,0.45,0.65,0.7c0.77,0.91,1.44,1.72,2.04,2.43c2.53,1.92,5.41,3.76,8.53,5.47c0.1-0.23,0.21-0.44,0.33-0.65     C16.68,54.7,13.52,52.63,10.81,50.48z M3.95,46.88c1.39,0.31,2.86,1.3,4.11,2.28C6.74,47.87,5.24,47.12,3.95,46.88z M2.47,46.85     c0.37-0.07,0.8-0.07,1.26,0C3.29,46.76,2.87,46.76,2.47,46.85z M2.12,46.94v0.01c0.04-0.02,0.09-0.03,0.13-0.05     C2.2,46.92,2.16,46.93,2.12,46.94z M24.45,59.09c-0.12-0.14-0.22-0.29-0.31-0.43v-0.01c-1.14-0.54-2.25-1.11-3.34-1.7     c-0.22-0.11-0.43-0.23-0.65-0.35c-3.47-1.9-6.63-3.97-9.34-6.12c-0.22-0.18-0.49-0.41-0.8-0.67c-0.42-0.35-0.9-0.76-1.41-1.16     c0.22,0.22,0.44,0.45,0.65,0.7c0.77,0.91,1.44,1.72,2.04,2.43c2.53,1.92,5.41,3.76,8.53,5.47c0.22,0.13,0.44,0.25,0.66,0.36     c1.68,0.91,3.43,1.77,5.22,2.58C25.25,59.91,24.83,59.54,24.45,59.09z M3.95,46.88c1.39,0.31,2.86,1.3,4.11,2.28     C6.74,47.87,5.24,47.12,3.95,46.88z M2.47,46.85c0.37-0.07,0.8-0.07,1.26,0C3.29,46.76,2.87,46.76,2.47,46.85z M2.12,46.94v0.01     c0.04-0.02,0.09-0.03,0.13-0.05C2.2,46.92,2.16,46.93,2.12,46.94z M82.92,43.76c0.41,1.13,1.01,3.1,1.43,5.94     C84.27,47.08,83.84,44.81,82.92,43.76z M24.45,59.09c-0.12-0.14-0.22-0.29-0.31-0.43v-0.01c-1.14-0.54-2.25-1.11-3.34-1.7     c-0.22-0.11-0.43-0.23-0.65-0.35c-3.47-1.9-6.63-3.97-9.34-6.12c-0.22-0.18-0.49-0.41-0.8-0.67c-0.42-0.35-0.9-0.76-1.41-1.16     c0.22,0.22,0.44,0.45,0.65,0.7c0.77,0.91,1.44,1.72,2.04,2.43c2.53,1.92,5.41,3.76,8.53,5.47c0.22,0.13,0.44,0.25,0.66,0.36     c1.68,0.91,3.43,1.77,5.22,2.58C25.25,59.91,24.83,59.54,24.45,59.09z M3.95,46.88c1.39,0.31,2.86,1.3,4.11,2.28     C6.74,47.87,5.24,47.12,3.95,46.88z M2.47,46.85c0.37-0.07,0.8-0.07,1.26,0C3.29,46.76,2.87,46.76,2.47,46.85z M2.12,46.94v0.01     c0.04-0.02,0.09-0.03,0.13-0.05C2.2,46.92,2.16,46.93,2.12,46.94z M24.45,59.09c-0.12-0.14-0.22-0.29-0.31-0.43v-0.01     c-1.14-0.54-2.25-1.11-3.34-1.7c-0.22-0.11-0.43-0.23-0.65-0.35c-3.47-1.9-6.63-3.97-9.34-6.12c-0.22-0.18-0.49-0.41-0.8-0.67     c-0.42-0.35-0.9-0.76-1.41-1.16c0.22,0.22,0.44,0.45,0.65,0.7c0.77,0.91,1.44,1.72,2.04,2.43c2.53,1.92,5.41,3.76,8.53,5.47     c0.22,0.13,0.44,0.25,0.66,0.36c1.68,0.91,3.43,1.77,5.22,2.58C25.25,59.91,24.83,59.54,24.45,59.09z M8.06,49.16     c-1.32-1.29-2.82-2.04-4.11-2.28C5.34,47.19,6.81,48.18,8.06,49.16z M2.47,46.85c0.37-0.07,0.8-0.07,1.26,0     C3.29,46.76,2.87,46.76,2.47,46.85z M2.12,46.95c0.04-0.02,0.09-0.03,0.13-0.05c-0.05,0.02-0.09,0.03-0.13,0.04V46.95z      M64.3,50.22c-0.11-0.89-0.4-2.14-0.72-3.43c-0.03-0.12-0.06-0.24-0.09-0.36c-0.13,0.03-0.25,0.06-0.36,0.09     c-0.12,0.03-0.24,0.05-0.36,0.07c-1.18,0.21-2.1,0.04-3.44-0.22c-4.48-0.87-8.02-1.75-12.47-0.4c-2.3,0.7-5.2,2.38-7.28,3.55     c-2.14,1.21-3.1,1.69-3.91,2c-0.76,0.29-1.39,0.43-2.72,0.86c-0.24-0.06-0.48-0.12-0.72-0.19c-3.25-0.85-6.89-1.92-9.84-3.52     c-4.08-2.22-8.17-4.84-9.37-5.5c-2.92-1.59-3.89-0.36-5.06,0.62c0,0.01-0.01,0.01-0.02,0.02c-0.1,0.09-0.2,0.17-0.31,0.25     c-0.09-0.06-0.2-0.12-0.31-0.17c-0.04-0.02-0.08-0.04-0.12-0.05c-1.87-0.81-5.38-0.61-5.04,2.22c0,0.04,0.01,0.06,0.01,0.09     c0,0.01,0,0.01,0,0.02c0,0.33-0.23,0.47-0.5,0.65c-0.38,0.25-0.84,0.59-0.91,1.65c-0.01,0.12,0,0.25,0.02,0.38     c0.36,3.35,7.71,10.37,13.76,14.79c4.69,2.18,11.84,5.7,18.81,7.94c1.87,0.61,3.72,1.11,5.51,1.48c0.33,0.07,0.75,0.09,1.24,0.06     c0.03,0.01,0.06,0,0.09,0c0.13-0.01,0.25-0.02,0.38-0.04h0.04c0.2-0.02,0.4-0.04,0.62-0.07c0.04,0,0.09,0,0.13-0.02     c5.03-0.73,14.71-4.18,22.62-7.17c0.13-0.04,0.27-0.09,0.4-0.15c0.03-0.01,0.07-0.02,0.1-0.03c0.09-0.04,0.19-0.07,0.28-0.11     c0.01-0.13,0.02-0.27,0.04-0.41C65.11,61.68,65.12,57.1,64.3,50.22z M8.49,43.81c1.02-0.89,1.9-1.67,4.35-0.33     c0.42,0.23,1.21,0.7,2.21,1.31c1.91,1.16,4.52,2.75,7.17,4.19c2.71,1.48,6.01,2.52,9.29,3.4c-0.1,0.03-0.19,0.05-0.28,0.08     c-2.29,0.62-4.17,1.18-5.27,1.76h-0.01c-0.31-0.07-0.63-0.15-0.94-0.25c-0.01,0-0.01,0-0.01,0c-4.19-1.23-8.57-4.37-12.14-6.93     c-1.74-1.24-3.28-2.35-4.56-3.07C8.37,43.92,8.43,43.87,8.49,43.81z M2.52,46c-0.1-0.8,0.15-1.39,0.74-1.77     c1.08-0.69,3.08-0.51,4.12,0.09c0.01,0,0.02,0.01,0.03,0.02l0.01,0.01c0,0.01,0.01,0.01,0.01,0.01c0.01,0,0.01,0.01,0.02,0.01     c0.02,0.01,0.04,0.02,0.07,0.03h0.01c1.1,0.57,2.45,1.5,3.99,2.6c0.01,0,0.01,0.01,0.02,0.01c0.29,0.21,0.59,0.42,0.89,0.64     c2.23,1.61,4.79,3.43,7.44,4.9c0.01,0,0.01,0.01,0.02,0.01c1.27,0.71,2.57,1.33,3.87,1.79h0.01c0.26,0.1,0.52,0.19,0.78,0.26     c0.14,0.05,0.28,0.09,0.42,0.13h0.01c0.06,0.02,0.11,0.04,0.17,0.05c-1.05,1.15-1.88,2.42-1.01,3.86     c-1.14-0.54-2.25-1.11-3.34-1.7c-0.22-0.11-0.43-0.23-0.65-0.35c-3.47-1.9-6.63-3.97-9.34-6.12c-0.22-0.18-0.49-0.41-0.8-0.67     c-0.42-0.35-0.9-0.76-1.41-1.16c-0.02-0.02-0.04-0.03-0.05-0.04c-1.34-1.06-2.95-2.13-4.52-2.47c-0.08-0.01-0.16-0.03-0.24-0.03     c-0.11-0.02-0.21-0.03-0.32-0.04c-0.32-0.04-0.64-0.04-0.94,0.01C2.53,46.05,2.53,46.03,2.52,46z M38.94,72.7     c-1.8-0.37-3.68-0.89-5.57-1.5v-0.01c-5.98-1.93-12.12-4.82-16.54-6.89c-0.74-0.35-1.45-0.68-2.1-0.98     C8.11,58.49,1.17,51.51,1.12,48.61c0.02-0.05,0.03-0.12,0.02-0.18c0-0.02,0-0.04-0.01-0.06c0-0.01,0-0.01,0-0.02s0-0.01,0-0.02     v-0.01c0.1-0.77,0.43-1,0.77-1.23c0.06-0.04,0.11-0.08,0.18-0.13c0.01,0,0.02-0.01,0.03-0.01h0.01c0.04-0.02,0.09-0.03,0.13-0.05     c0.07-0.02,0.15-0.04,0.22-0.05c0.37-0.07,0.8-0.07,1.26,0c0.07,0,0.14,0.01,0.22,0.03c1.39,0.31,2.86,1.3,4.11,2.28     c0.55,0.43,1.05,0.85,1.48,1.22c0.31,0.26,0.59,0.49,0.82,0.68l0.93,0.72c2.53,1.92,5.41,3.76,8.53,5.47     c0.22,0.13,0.44,0.25,0.66,0.36c1.68,0.91,3.43,1.77,5.22,2.58c0.01,0,0.01,0.01,0.02,0.01c1.06,0.67,2.32,0.91,3.78,0.91     c1.32,0,2.81-0.2,4.46-0.46c0.02-0.01,0.04-0.01,0.07-0.02c0.49-0.08,1-0.16,1.52-0.25c2.18-0.37,4.55-0.77,7.2-0.98     c1.27-0.12,2.6-0.18,4-0.18c0.2,0,0.37-0.16,0.37-0.37c0-0.2-0.17-0.37-0.37-0.37c-4.4,0-8.24,0.65-11.33,1.17     c-5.03,0.85-8.36,1.41-10.4-1.04c-0.83-0.99-0.65-1.86,0.68-3.32c0.73-0.8,4.41-1.77,6.84-2.41c1.28-0.34,2.38-0.63,2.94-0.85     c0.06-0.02,0.11-0.06,0.15-0.1c0.87-0.31,1.82-0.78,4.14-2.09l0.37-0.21c1.98-1.12,4.71-2.67,6.83-3.31     c4.02-1.23,7.22-0.59,11.28,0.21c0.33,0.07,0.67,0.13,1.01,0.2c1.42,0.28,2.4,0.43,3.6,0.22c0.32,1.27,0.61,2.5,0.71,3.36     c0.74,6.21,0.8,10.53,0.57,13.81c-0.03,0.45-0.07,0.88-0.11,1.29C55.6,68.6,42.3,73.39,38.94,72.7z M2.12,46.94v0.01     c0.04-0.02,0.09-0.03,0.13-0.05C2.2,46.92,2.16,46.93,2.12,46.94z M2.47,46.85c0.37-0.07,0.8-0.07,1.26,0     C3.29,46.76,2.87,46.76,2.47,46.85z M3.95,46.88c1.39,0.31,2.86,1.3,4.11,2.28C6.74,47.87,5.24,47.12,3.95,46.88z M24.45,59.09     c-0.12-0.14-0.22-0.29-0.31-0.43v-0.01c-1.14-0.54-2.25-1.11-3.34-1.7c-0.22-0.11-0.43-0.23-0.65-0.35     c-3.47-1.9-6.63-3.97-9.34-6.12c-0.22-0.18-0.49-0.41-0.8-0.67c-0.42-0.35-0.9-0.76-1.41-1.16c0.22,0.22,0.44,0.45,0.65,0.7     c0.77,0.91,1.44,1.72,2.04,2.43c2.53,1.92,5.41,3.76,8.53,5.47c0.22,0.13,0.44,0.25,0.66,0.36c1.68,0.91,3.43,1.77,5.22,2.58     C25.25,59.91,24.83,59.54,24.45,59.09z M82.36,61.07c-0.06,0-0.12,0.05-0.12,0.12c0,0.16,0,0.33-0.01,0.49     c0,0.2-0.01,0.41-0.01,0.61c0.08-0.07,0.15-0.16,0.24-0.28c0,0,0.01-0.01,0.01-0.02c0-0.27,0.01-0.53,0.01-0.8v-0.01     C82.47,61.12,82.43,61.07,82.36,61.07z M2.12,46.94v0.01c0.04-0.02,0.09-0.03,0.13-0.05C2.2,46.92,2.16,46.93,2.12,46.94z      M2.47,46.85c0.37-0.07,0.8-0.07,1.26,0C3.29,46.76,2.87,46.76,2.47,46.85z M3.95,46.88c1.39,0.31,2.86,1.3,4.11,2.28     C6.74,47.87,5.24,47.12,3.95,46.88z M24.45,59.09c-0.12-0.14-0.22-0.29-0.31-0.43v-0.01c-1.14-0.54-2.25-1.11-3.34-1.7     c-0.22-0.11-0.43-0.23-0.65-0.35c-3.47-1.9-6.63-3.97-9.34-6.12c-0.22-0.18-0.49-0.41-0.8-0.67c-0.42-0.35-0.9-0.76-1.41-1.16     c0.22,0.22,0.44,0.45,0.65,0.7c0.77,0.91,1.44,1.72,2.04,2.43c2.53,1.92,5.41,3.76,8.53,5.47c0.22,0.13,0.44,0.25,0.66,0.36     c1.68,0.91,3.43,1.77,5.22,2.58C25.25,59.91,24.83,59.54,24.45,59.09z M73.42,44.96c-0.44-0.66-1.11-1.11-1.9-1.27     c-0.3-0.06-0.59-0.07-0.88-0.05c-0.59,0.06-1.14,0.29-1.59,0.65c-0.52,0.42-0.9,1.02-1.04,1.72c-0.16,0.77-0.01,1.55,0.43,2.21     c0.44,0.66,1.11,1.11,1.9,1.27c0.2,0.04,0.4,0.06,0.59,0.06c1.39,0,2.64-0.97,2.92-2.38C74.01,46.4,73.86,45.62,73.42,44.96z      M73.13,47.04c-0.24,1.2-1.43,1.98-2.64,1.74c-0.59-0.12-1.1-0.46-1.43-0.96s-0.45-1.08-0.33-1.66c0.22-1.05,1.15-1.78,2.2-1.78     c0.15,0,0.3,0.01,0.44,0.04c0.59,0.12,1.1,0.46,1.43,0.96S73.25,46.46,73.13,47.04z M2.12,46.94v0.01     c0.04-0.02,0.09-0.03,0.13-0.05C2.2,46.92,2.16,46.93,2.12,46.94z M2.47,46.85c0.37-0.07,0.8-0.07,1.26,0     C3.29,46.76,2.87,46.76,2.47,46.85z M3.95,46.88c1.39,0.31,2.86,1.3,4.11,2.28C6.74,47.87,5.24,47.12,3.95,46.88z M24.45,59.09     c-0.12-0.14-0.22-0.29-0.31-0.43v-0.01c-1.14-0.54-2.25-1.11-3.34-1.7c-0.22-0.11-0.43-0.23-0.65-0.35     c-3.47-1.9-6.63-3.97-9.34-6.12c-0.22-0.18-0.49-0.41-0.8-0.67c-0.42-0.35-0.9-0.76-1.41-1.16c0.22,0.22,0.44,0.45,0.65,0.7     c0.77,0.91,1.44,1.72,2.04,2.43c2.53,1.92,5.41,3.76,8.53,5.47c0.22,0.13,0.44,0.25,0.66,0.36c1.68,0.91,3.43,1.77,5.22,2.58     C25.25,59.91,24.83,59.54,24.45,59.09z M2.12,46.94v0.01c0.04-0.02,0.09-0.03,0.13-0.05C2.2,46.92,2.16,46.93,2.12,46.94z      M2.47,46.85c0.37-0.07,0.8-0.07,1.26,0C3.29,46.76,2.87,46.76,2.47,46.85z M3.95,46.88c1.39,0.31,2.86,1.3,4.11,2.28     C6.74,47.87,5.24,47.12,3.95,46.88z M10.81,50.48c-0.22-0.18-0.49-0.41-0.8-0.67c-0.42-0.35-0.9-0.76-1.41-1.16     c0.22,0.22,0.44,0.45,0.65,0.7c0.77,0.91,1.44,1.72,2.04,2.43c2.53,1.92,5.41,3.76,8.53,5.47c0.1-0.23,0.21-0.44,0.33-0.65     C16.68,54.7,13.52,52.63,10.81,50.48z M10.81,50.48c-0.22-0.18-0.49-0.41-0.8-0.67c-0.42-0.35-0.9-0.76-1.41-1.16     c0.22,0.22,0.44,0.45,0.65,0.7c0.77,0.91,1.44,1.72,2.04,2.43c2.53,1.92,5.41,3.76,8.53,5.47c0.1-0.23,0.21-0.44,0.33-0.65     C16.68,54.7,13.52,52.63,10.81,50.48z M2.12,46.94v0.01c0.04-0.02,0.09-0.03,0.13-0.05C2.2,46.92,2.16,46.93,2.12,46.94z      M2.47,46.85c0.37-0.07,0.8-0.07,1.26,0C3.29,46.76,2.87,46.76,2.47,46.85z M3.95,46.88c1.39,0.31,2.86,1.3,4.11,2.28     C6.74,47.87,5.24,47.12,3.95,46.88z M10.81,50.48c-0.22-0.18-0.49-0.41-0.8-0.67c-0.42-0.35-0.9-0.76-1.41-1.16     c0.22,0.22,0.44,0.45,0.65,0.7c0.77,0.91,1.44,1.72,2.04,2.43c2.53,1.92,5.41,3.76,8.53,5.47c0.1-0.23,0.21-0.44,0.33-0.65     C16.68,54.7,13.52,52.63,10.81,50.48z M2.12,46.94v0.01c0.04-0.02,0.09-0.03,0.13-0.05C2.2,46.92,2.16,46.93,2.12,46.94z      M2.47,46.85c0.37-0.07,0.8-0.07,1.26,0C3.29,46.76,2.87,46.76,2.47,46.85z M3.95,46.88c1.39,0.31,2.86,1.3,4.11,2.28     C6.74,47.87,5.24,47.12,3.95,46.88z M2.12,46.94v0.01c0.04-0.02,0.09-0.03,0.13-0.05C2.2,46.92,2.16,46.93,2.12,46.94z      M2.47,46.85c0.37-0.07,0.8-0.07,1.26,0C3.29,46.76,2.87,46.76,2.47,46.85z M3.95,46.88c1.39,0.31,2.86,1.3,4.11,2.28     C6.74,47.87,5.24,47.12,3.95,46.88z"/>
                <path class="st1" d="M2.06,46.96H2.05C2,46.98,1.96,47,1.92,47.02c-0.41,0.19-0.86,0.55-0.79,1.3c0.1-0.77,0.43-1,0.77-1.23     c0.06-0.04,0.11-0.08,0.18-0.13C2.07,46.96,2.07,46.96,2.06,46.96z M1.92,47.02c-0.41,0.19-0.86,0.55-0.79,1.3     c0.1-0.77,0.43-1,0.77-1.23c0.06-0.04,0.11-0.08,0.18-0.13C2.02,46.98,1.97,47,1.92,47.02z M1.92,47.02     c-0.41,0.19-0.86,0.55-0.79,1.3c0.1-0.77,0.43-1,0.77-1.23c0.06-0.04,0.11-0.08,0.18-0.13C2.02,46.98,1.97,47,1.92,47.02z      M64.6,65.19c-0.06,0.03-0.12,0.05-0.18,0.07l-0.39,0.15C55.6,68.6,42.3,73.39,38.94,72.7c-1.8-0.37-3.68-0.89-5.57-1.5v-0.01     c-5.98-1.93-12.12-4.82-16.54-6.89c-0.74-0.35-1.45-0.68-2.1-0.98C8.11,58.49,1.17,51.51,1.12,48.61v-0.13     c0-0.04,0.01-0.07,0.01-0.11c0-0.01,0-0.01,0-0.02s0-0.01,0-0.02v-0.01c0.1-0.77,0.43-1,0.77-1.23c0.06-0.04,0.11-0.08,0.18-0.13     c0.01,0,0.02-0.01,0.03-0.01h0.01v-0.01c0.23-0.19,0.43-0.44,0.41-0.84c0-0.01,0-0.01,0-0.02c0-0.03,0-0.05-0.01-0.08     c-0.1-0.8,0.15-1.39,0.74-1.77c1.08-0.69,3.08-0.51,4.12,0.09c0.01,0,0.02,0.01,0.03,0.02l0.01,0.01c0,0.01,0.01,0.01,0.01,0.01     c0.01,0,0.01,0.01,0.02,0.01c0.02,0.01,0.04,0.02,0.07,0.03h0.01c0.1,0.03,0.23,0.01,0.32-0.06c0.14-0.11,0.28-0.22,0.41-0.33     C8.28,44,8.29,43.99,8.3,43.97c0.07-0.05,0.13-0.1,0.19-0.16c1.02-0.89,1.9-1.67,4.35-0.33c0.42,0.23,1.21,0.7,2.21,1.31     c1.91,1.16,4.52,2.75,7.17,4.19c2.71,1.48,6.01,2.52,9.29,3.4c0.45,0.12,0.9,0.23,1.35,0.35c0.07,0.01,0.14,0.01,0.21-0.01     c0.59-0.19,1.04-0.32,1.43-0.44c0.43-0.12,0.77-0.22,1.13-0.35c0.87-0.31,1.82-0.78,4.14-2.09l0.37-0.21     c1.98-1.12,4.71-2.67,6.83-3.31c4.02-1.23,7.22-0.59,11.28,0.21c0.33,0.07,0.67,0.13,1.01,0.2c1.42,0.28,2.4,0.43,3.6,0.22     c0.11-0.02,0.24-0.04,0.36-0.07c0.12-0.03,0.24-0.06,0.36-0.09c-0.03-0.12-0.06-0.24-0.09-0.36c-0.03-0.11-0.06-0.23-0.09-0.35     c-0.13,0.04-0.25,0.07-0.36,0.09c-0.13,0.03-0.25,0.06-0.36,0.07c-1.12,0.2-1.99,0.03-3.27-0.22c-0.34-0.07-0.67-0.13-1-0.2     c-3.99-0.79-7.44-1.47-11.64-0.2c-2.2,0.67-4.96,2.24-6.98,3.38l-0.37,0.21c-3.2,1.82-3.72,1.97-5.11,2.38     c-0.38,0.11-0.8,0.23-1.35,0.41c-3.63-0.93-7.38-2.02-10.37-3.65c-2.64-1.44-5.24-3.02-7.14-4.17c-1-0.61-1.8-1.09-2.23-1.33     c-2.9-1.59-4.12-0.52-5.19,0.42c-0.14,0.12-0.26,0.23-0.4,0.35H7.62c-1.28-0.66-3.44-0.83-4.73,0c-0.59,0.37-1.25,1.11-1.08,2.49     c0.01,0.08,0.01,0.12-0.04,0.18C1.76,46.3,1.76,46.3,1.75,46.3c-0.02,0.02-0.04,0.04-0.06,0.06c-0.05,0.04-0.1,0.07-0.18,0.13     c-0.41,0.28-1.03,0.69-1.11,1.94v0.02c-0.23,3.5,8,11.17,13.93,15.48c0.02,0.02,0.04,0.03,0.06,0.04     c0.67,0.3,1.38,0.64,2.13,0.99c4.52,2.13,10.84,5.09,16.98,7.05c1.28,0.4,2.55,0.77,3.79,1.07c0.01,0.01,0.02,0.01,0.03,0     c0.01,0.01,0.02,0.01,0.04,0.01c0.49,0.11,0.96,0.23,1.44,0.33c0.25,0.05,0.55,0.08,0.9,0.08c4.11,0,14.35-3.53,24.23-7.24     c0.13-0.05,0.26-0.1,0.4-0.15c0.12-0.05,0.25-0.1,0.38-0.14c0.01-0.14,0.03-0.29,0.05-0.44c0.01-0.13,0.02-0.27,0.04-0.41     C64.74,65.15,64.67,65.17,64.6,65.19z M84.73,49.67c0.01-0.01,0-0.01,0-0.02c-0.07-2.06-0.35-3.92-0.92-5.17     c-0.18-0.38-0.37-0.68-0.57-0.92c-0.22-0.26-0.46-0.45-0.69-0.57c0.13,0.22,0.25,0.45,0.34,0.7c0.01,0.02,0.01,0.04,0.02,0.06     c0,0,0,0.01,0.01,0.01c0.41,1.13,1.01,3.1,1.43,5.94c0,0.01,0,0.01,0,0.02c0,0.01,0,0.01,0,0.02v0.03c0,0.01,0,0.02,0.01,0.03     c0.13,0.86,0.25,1.83,0.34,2.87C84.76,51.66,84.77,50.64,84.73,49.67z M82.23,61.68c0,0.2-0.01,0.41-0.01,0.61     c-0.01,0.14-0.02,0.29-0.03,0.43c0.06-0.02,0.13-0.04,0.19-0.07c0.02-0.01,0.04-0.02,0.06-0.04c0.01-0.2,0.02-0.4,0.02-0.6     c0,0,0.01-0.01,0.01-0.02c0-0.27,0.01-0.53,0.01-0.8C82.4,61.38,82.31,61.54,82.23,61.68z M69.05,44.29     c0.54-0.28,1.07-0.5,1.59-0.65C70.05,43.7,69.5,43.93,69.05,44.29z M1.92,47.02c-0.41,0.19-0.86,0.55-0.79,1.3     c0.1-0.77,0.43-1,0.77-1.23c0.06-0.04,0.11-0.08,0.18-0.13C2.02,46.98,1.97,47,1.92,47.02z M1.92,47.02     c-0.41,0.19-0.86,0.55-0.79,1.3c0.1-0.77,0.43-1,0.77-1.23c0.06-0.04,0.11-0.08,0.18-0.13C2.02,46.98,1.97,47,1.92,47.02z"/>
            </g>
            <g>
                <path class="st1" d="M47.12,58.85c0,0.21-0.17,0.37-0.37,0.37c-1.4,0-2.73,0.06-4,0.18c-2.65,0.21-5.02,0.61-7.2,0.98     c-0.52,0.09-1.03,0.17-1.52,0.25c-0.03,0.01-0.05,0.01-0.07,0.02c-1.65,0.26-3.14,0.46-4.46,0.46c-1.46,0-2.72-0.24-3.78-0.91     c-0.01,0-0.01-0.01-0.02-0.01c-0.45-0.28-0.87-0.65-1.25-1.1c-0.12-0.14-0.22-0.29-0.31-0.43v-0.01     c-0.87-1.44-0.04-2.71,1.01-3.86c0.04-0.05,0.09-0.1,0.15-0.14c0.17-0.15,0.39-0.29,0.65-0.43h0.01c1.1-0.58,2.98-1.14,5.27-1.76     c0.09-0.03,0.18-0.05,0.28-0.08c0.23-0.06,0.47-0.12,0.72-0.19c0.04-0.01,0.08-0.02,0.12-0.03c0.21-0.05,0.42-0.11,0.61-0.16     c0.99-0.26,1.82-0.49,2.25-0.66c0.18-0.08,0.38,0.01,0.46,0.18c0.01,0.01,0.02,0.02,0.02,0.03c0.06,0.13,0.02,0.28-0.06,0.38     c-0.04,0.04-0.09,0.08-0.15,0.1c-0.56,0.22-1.66,0.51-2.94,0.85c-2.43,0.64-6.11,1.61-6.84,2.41c-1.33,1.46-1.51,2.33-0.68,3.32     c2.04,2.45,5.37,1.89,10.4,1.04c3.09-0.52,6.93-1.17,11.33-1.17C46.95,58.48,47.12,58.65,47.12,58.85z"/>
            </g>
            <g>
                <path class="st1" d="M73.42,44.96c-0.44-0.66-1.11-1.11-1.9-1.27c-0.3-0.06-0.59-0.07-0.88-0.05c-0.59,0.06-1.14,0.29-1.59,0.65     c-0.52,0.42-0.9,1.02-1.04,1.72c-0.16,0.77-0.01,1.55,0.43,2.21c0.44,0.66,1.11,1.11,1.9,1.27c0.2,0.04,0.4,0.06,0.59,0.06     c1.39,0,2.64-0.97,2.92-2.38C74.01,46.4,73.86,45.62,73.42,44.96z M73.13,47.04c-0.24,1.2-1.43,1.98-2.64,1.74     c-0.59-0.12-1.1-0.46-1.43-0.96s-0.45-1.08-0.33-1.66c0.22-1.05,1.15-1.78,2.2-1.78c0.15,0,0.3,0.01,0.44,0.04     c0.59,0.12,1.1,0.46,1.43,0.96S73.25,46.46,73.13,47.04z"/>
                <path class="st1" d="M79.73,66.91c-0.07-0.01-0.13,0.03-0.14,0.1c-0.15,1.02-0.45,2-0.89,2.92c-0.03,0.06-0.01,0.12,0.04,0.15     c0,0.01,0.01,0.02,0.02,0.02c0.01,0.01,0.03,0.01,0.05,0.01c0.05,0,0.09-0.03,0.11-0.06c0.45-0.94,0.76-1.95,0.91-3     C79.84,66.98,79.8,66.92,79.73,66.91z M82.36,61.07c-0.06,0-0.12,0.05-0.12,0.12c0,0.16,0,0.33-0.01,0.49     c0.08-0.14,0.17-0.3,0.25-0.49v-0.01C82.47,61.12,82.43,61.07,82.36,61.07z M79.73,66.91c-0.07-0.01-0.13,0.03-0.14,0.1     c-0.15,1.02-0.45,2-0.89,2.92c-0.03,0.06-0.01,0.12,0.04,0.15c0,0.01,0.01,0.02,0.02,0.02c0.01,0.01,0.03,0.01,0.05,0.01     c0.05,0,0.09-0.03,0.11-0.06c0.45-0.94,0.76-1.95,0.91-3C79.84,66.98,79.8,66.92,79.73,66.91z M79.73,66.91     c-0.07-0.01-0.13,0.03-0.14,0.1c-0.15,1.02-0.45,2-0.89,2.92c-0.03,0.06-0.01,0.12,0.04,0.15c0,0.01,0.01,0.02,0.02,0.02     c0.01,0.01,0.03,0.01,0.05,0.01c0.05,0,0.09-0.03,0.11-0.06c0.45-0.94,0.76-1.95,0.91-3C79.84,66.98,79.8,66.92,79.73,66.91z      M81.64,69.38v0.01C81.64,69.39,81.64,69.39,81.64,69.38C81.65,69.38,81.65,69.38,81.64,69.38z M82.36,61.07     c-0.06,0-0.12,0.05-0.12,0.12c0,0.16,0,0.33-0.01,0.49c0,0.2-0.01,0.41-0.01,0.61c-0.01,0.14-0.02,0.29-0.03,0.43     c-0.12,2.33-0.51,4.64-1.18,6.87v0.01c-0.02,0.06,0.01,0.13,0.08,0.15c0.02,0.01,0.03,0.01,0.04,0.01c0.05,0,0.1-0.04,0.11-0.09     c0.02-0.05,0.03-0.11,0.04-0.16c0.66-2.24,1.04-4.55,1.16-6.9c0.01-0.2,0.02-0.4,0.02-0.6c0,0,0.01-0.01,0.01-0.02     c0-0.27,0.01-0.53,0.01-0.8v-0.01C82.47,61.12,82.43,61.07,82.36,61.07z M82.36,61.07c-0.06,0-0.12,0.05-0.12,0.12     c0,0.16,0,0.33-0.01,0.49c0,0.2-0.01,0.41-0.01,0.61c-0.01,0.14-0.02,0.29-0.03,0.43c-0.12,2.33-0.51,4.64-1.18,6.87v0.01     c-0.02,0.06,0.01,0.13,0.08,0.15c0.02,0.01,0.03,0.01,0.04,0.01c0.05,0,0.1-0.04,0.11-0.09c0.02-0.05,0.03-0.11,0.04-0.16     c0.66-2.24,1.04-4.55,1.16-6.9c0.01-0.2,0.02-0.4,0.02-0.6c0,0,0.01-0.01,0.01-0.02c0-0.27,0.01-0.53,0.01-0.8v-0.01     C82.47,61.12,82.43,61.07,82.36,61.07z M81.64,69.39c0,0,0,0,0.01-0.01c0,0,0,0-0.01,0V69.39z M79.73,66.91     c-0.07-0.01-0.13,0.03-0.14,0.1c-0.15,1.02-0.45,2-0.89,2.92c-0.03,0.06-0.01,0.12,0.04,0.15c0,0.01,0.01,0.02,0.02,0.02     c0.01,0.01,0.03,0.01,0.05,0.01c0.05,0,0.09-0.03,0.11-0.06c0.45-0.94,0.76-1.95,0.91-3C79.84,66.98,79.8,66.92,79.73,66.91z      M84.73,49.67c0.01-0.01,0-0.01,0-0.02c-0.39-2.63-0.95-4.65-1.49-6.09c-0.57-1.55-1.87-2.65-3.39-2.9     c-1.73-0.28-4.09-0.61-5.71-0.6c-3.39,0.03-8.39,0.48-11.75,0.81c-0.66,0.06,0,2.67,0.65,5.3c0.04,0.12,0.06,0.23,0.09,0.35     c0.03,0.12,0.06,0.24,0.09,0.36c0.33,1.28,0.62,2.52,0.72,3.39c0.78,6.47,0.81,10.93,0.54,14.28c-0.02,0.25-0.04,0.48-0.06,0.71     c-0.02,0.14-0.03,0.28-0.04,0.41c-0.01,0.04-0.01,0.09-0.01,0.13l-0.01,0.01c-0.01,0.1-0.02,0.2-0.03,0.3     c-0.17,1.43-0.38,2.64-0.6,3.75v0.01c-0.07,0.34-0.14,0.68-0.22,1c0,0,0.01,0.01,0,0.02c-0.04,0.24-0.09,0.48-0.14,0.71     c1.48,0.84,5.59,1.26,9.61,1.3c0.66,0.02,1.33,0.02,1.99-0.01c3.42-0.05,6.43-0.39,7.18-0.97c0.38-0.29,0.72-0.7,1.01-1.16     c0.29-0.45,0.54-0.95,0.74-1.47v-0.01c0.35-0.89,0.58-1.82,0.69-2.59C85.57,59.47,85.36,53.82,84.73,49.67z M84.22,66.64     c-0.1,0.71-0.29,1.51-0.58,2.26c-0.38,1.07-0.94,2.06-1.6,2.62c-0.04,0.04-0.08,0.07-0.12,0.1c-0.23,0.18-0.71,0.33-1.37,0.45     c-0.02,0.01-0.05,0.02-0.08,0.02c-3.92,0.73-13.85,0.59-16.68-0.7l0.04-0.21c0.11-0.54,0.23-1.11,0.34-1.7     c0.2-1.05,0.39-2.19,0.54-3.51c0.01-0.14,0.03-0.29,0.05-0.44c0.01-0.13,0.02-0.27,0.04-0.41c0.31-3.44,0.32-8.02-0.5-14.9     c-0.11-0.89-0.4-2.14-0.72-3.43c-0.03-0.12-0.06-0.24-0.09-0.36c-0.03-0.11-0.06-0.23-0.09-0.35c0-0.01-0.01-0.02-0.01-0.03     c-0.43-1.71-1.07-4.27-0.89-4.82c3.72-0.36,8.38-0.77,11.63-0.8c1.61-0.01,3.96,0.32,5.65,0.6c1.15,0.19,2.16,0.92,2.77,1.96     c0.13,0.22,0.25,0.45,0.34,0.7c0.01,0.02,0.01,0.04,0.02,0.06c0,0,0,0.01,0.01,0.01c0.41,1.13,1.01,3.1,1.43,5.94     c0,0.01,0,0.01,0,0.02c0,0.01,0,0.01,0,0.02v0.03c0,0.01,0,0.02,0.01,0.03c0.13,0.86,0.25,1.83,0.34,2.87v0.03     C85.01,56.33,84.99,60.96,84.22,66.64z M82.36,61.07c-0.06,0-0.12,0.05-0.12,0.12c0,0.16,0,0.33-0.01,0.49     c0,0.2-0.01,0.41-0.01,0.61c-0.01,0.14-0.02,0.29-0.03,0.43c-0.12,2.33-0.51,4.64-1.18,6.87v0.01c-0.02,0.06,0.01,0.13,0.08,0.15     c0.02,0.01,0.03,0.01,0.04,0.01c0.05,0,0.1-0.04,0.11-0.09c0.02-0.05,0.03-0.11,0.04-0.16c0.66-2.24,1.04-4.55,1.16-6.9     c0.01-0.2,0.02-0.4,0.02-0.6c0,0,0.01-0.01,0.01-0.02c0-0.27,0.01-0.53,0.01-0.8v-0.01C82.47,61.12,82.43,61.07,82.36,61.07z      M81.64,69.39c0,0,0,0,0.01-0.01c0,0,0,0-0.01,0V69.39z M79.73,66.91c-0.07-0.01-0.13,0.03-0.14,0.1c-0.15,1.02-0.45,2-0.89,2.92     c-0.03,0.06-0.01,0.12,0.04,0.15c0,0.01,0.01,0.02,0.02,0.02c0.01,0.01,0.03,0.01,0.05,0.01c0.05,0,0.09-0.03,0.11-0.06     c0.45-0.94,0.76-1.95,0.91-3C79.84,66.98,79.8,66.92,79.73,66.91z M79.73,66.91c-0.07-0.01-0.13,0.03-0.14,0.1     c-0.15,1.02-0.45,2-0.89,2.92c-0.03,0.06-0.01,0.12,0.04,0.15c0,0.01,0.01,0.02,0.02,0.02c0.01,0.01,0.03,0.01,0.05,0.01     c0.05,0,0.09-0.03,0.11-0.06c0.45-0.94,0.76-1.95,0.91-3C79.84,66.98,79.8,66.92,79.73,66.91z M81.64,69.38v0.01     C81.64,69.39,81.64,69.39,81.64,69.38C81.65,69.38,81.65,69.38,81.64,69.38z M82.36,61.07c-0.06,0-0.12,0.05-0.12,0.12     c0,0.16,0,0.33-0.01,0.49c0,0.2-0.01,0.41-0.01,0.61c-0.01,0.14-0.02,0.29-0.03,0.43c-0.12,2.33-0.51,4.64-1.18,6.87v0.01     c-0.02,0.06,0.01,0.13,0.08,0.15c0.02,0.01,0.03,0.01,0.04,0.01c0.05,0,0.1-0.04,0.11-0.09c0.02-0.05,0.03-0.11,0.04-0.16     c0.66-2.24,1.04-4.55,1.16-6.9c0.01-0.2,0.02-0.4,0.02-0.6c0,0,0.01-0.01,0.01-0.02c0-0.27,0.01-0.53,0.01-0.8v-0.01     C82.47,61.12,82.43,61.07,82.36,61.07z M82.36,61.07c-0.06,0-0.12,0.05-0.12,0.12c0,0.16,0,0.33-0.01,0.49     c0,0.2-0.01,0.41-0.01,0.61c-0.01,0.14-0.02,0.29-0.03,0.43c-0.12,2.33-0.51,4.64-1.18,6.87v0.01c-0.02,0.06,0.01,0.13,0.08,0.15     c0.02,0.01,0.03,0.01,0.04,0.01c0.05,0,0.1-0.04,0.11-0.09c0.02-0.05,0.03-0.11,0.04-0.16c0.66-2.24,1.04-4.55,1.16-6.9     c0.01-0.2,0.02-0.4,0.02-0.6c0,0,0.01-0.01,0.01-0.02c0-0.27,0.01-0.53,0.01-0.8v-0.01C82.47,61.12,82.43,61.07,82.36,61.07z      M81.64,69.38v0.01C81.64,69.39,81.64,69.39,81.64,69.38C81.65,69.38,81.65,69.38,81.64,69.38z M79.73,66.91     c-0.07-0.01-0.13,0.03-0.14,0.1c-0.15,1.02-0.45,2-0.89,2.92c-0.03,0.06-0.01,0.12,0.04,0.15c0,0.01,0.01,0.02,0.02,0.02     c0.01,0.01,0.03,0.01,0.05,0.01c0.05,0,0.09-0.03,0.11-0.06c0.45-0.94,0.76-1.95,0.91-3C79.84,66.98,79.8,66.92,79.73,66.91z"/>
                <path class="st1" d="M83.59,43.44c-0.62-1.67-2.03-2.87-3.68-3.14c-1.73-0.29-4.12-0.63-5.78-0.61     c-1.65,0.01-3.66,0.12-5.72,0.28c-2.06,0.15-4.18,0.35-6.06,0.53c-0.17,0.02-0.33,0.11-0.43,0.26c-0.41,0.58-0.09,2.11,0.76,5.47     v0.01c0.03,0.12,0.06,0.23,0.09,0.35c0.03,0.12,0.06,0.24,0.09,0.36c0.32,1.27,0.61,2.5,0.71,3.36     c0.74,6.21,0.8,10.53,0.57,13.81c-0.03,0.45-0.07,0.88-0.11,1.29c-0.01,0.14-0.03,0.28-0.05,0.41c-0.01,0.12-0.02,0.24-0.04,0.35     v0.01c0,0.03,0,0.05-0.01,0.08c-0.22,1.87-0.53,3.38-0.82,4.77l-0.1,0.49c-0.03,0.16,0.04,0.32,0.18,0.4     c1.66,0.94,6.2,1.37,10.48,1.37c4.02,0,7.8-0.38,8.7-1.07c1.42-1.08,2.34-3.6,2.59-5.47C86.72,53.76,84.59,46.12,83.59,43.44z      M83.64,68.9c-0.38,1.07-0.94,2.06-1.6,2.62c-0.04,0.04-0.08,0.07-0.12,0.1c-0.23,0.18-0.71,0.33-1.37,0.45     c-0.02,0.01-0.05,0.02-0.08,0.02c-3.92,0.73-13.85,0.59-16.68-0.7l0.04-0.21c0.11-0.54,0.23-1.11,0.34-1.7     c0.2-1.05,0.39-2.19,0.54-3.51c0.01-0.14,0.03-0.29,0.05-0.44c0.01-0.13,0.02-0.27,0.04-0.41c0.31-3.44,0.32-8.02-0.5-14.9     c-0.11-0.89-0.4-2.14-0.72-3.43c-0.03-0.12-0.06-0.24-0.09-0.36c-0.03-0.11-0.06-0.23-0.09-0.35c0-0.01-0.01-0.02-0.01-0.03     c-0.43-1.71-1.07-4.27-0.89-4.82c3.72-0.36,8.38-0.77,11.63-0.8c1.61-0.01,3.96,0.32,5.65,0.6c1.15,0.19,2.16,0.92,2.77,1.96     c0.13,0.22,0.25,0.45,0.34,0.7c0.01,0.02,0.01,0.04,0.02,0.06c0,0,0,0.01,0.01,0.01c0.41,1.13,1.01,3.1,1.43,5.94     c0,0.01,0,0.01,0,0.02c0,0.01,0,0.01,0,0.02v0.03c0,0.01,0,0.02,0.01,0.03c0.13,0.86,0.25,1.83,0.34,2.87v0.03     c0.31,3.63,0.29,8.26-0.48,13.94C84.12,67.35,83.93,68.15,83.64,68.9z"/>
            </g>
            <g>
                <path class="st1" d="M71.45,44.06c-1.41-0.28-2.79,0.63-3.08,2.03c-0.28,1.4,0.63,2.77,2.05,3.05c1.41,0.28,2.79-0.63,3.08-2.03     C73.78,45.7,72.86,44.34,71.45,44.06z M73.13,47.04c-0.24,1.2-1.43,1.98-2.64,1.74c-0.59-0.12-1.1-0.46-1.43-0.96     s-0.45-1.08-0.33-1.66c0.22-1.05,1.15-1.78,2.2-1.78c0.15,0,0.3,0.01,0.44,0.04c0.59,0.12,1.1,0.46,1.43,0.96     S73.25,46.46,73.13,47.04z"/>
                <path class="st1" d="M73.42,44.96c-0.44-0.66-1.11-1.11-1.9-1.27c-0.3-0.06-0.59-0.07-0.88-0.05c-0.59,0.06-1.14,0.29-1.59,0.65     c-0.52,0.42-0.9,1.02-1.04,1.72c-0.16,0.77-0.01,1.55,0.43,2.21c0.44,0.66,1.11,1.11,1.9,1.27c0.2,0.04,0.4,0.06,0.59,0.06     c1.39,0,2.64-0.97,2.92-2.38C74.01,46.4,73.86,45.62,73.42,44.96z M73.13,47.04c-0.24,1.2-1.43,1.98-2.64,1.74     c-0.59-0.12-1.1-0.46-1.43-0.96s-0.45-1.08-0.33-1.66c0.22-1.05,1.15-1.78,2.2-1.78c0.15,0,0.3,0.01,0.44,0.04     c0.59,0.12,1.1,0.46,1.43,0.96S73.25,46.46,73.13,47.04z"/>
            </g>
            <g>
                <path class="st1" d="M82.48,61.18v0.01c0,0.27-0.01,0.53-0.01,0.8c0,0.01-0.01,0.02-0.01,0.02c0,0.2-0.01,0.4-0.02,0.6     c-0.12,2.35-0.5,4.66-1.16,6.9c-0.01,0.05-0.02,0.11-0.04,0.16c-0.01,0.05-0.06,0.09-0.11,0.09c-0.01,0-0.02,0-0.04-0.01     c-0.07-0.02-0.1-0.09-0.08-0.15v-0.01c0.67-2.23,1.06-4.54,1.18-6.87c0.01-0.14,0.02-0.29,0.03-0.43c0-0.2,0.01-0.41,0.01-0.61     c0.01-0.16,0.01-0.33,0.01-0.49c0-0.07,0.06-0.12,0.12-0.12C82.43,61.07,82.47,61.12,82.48,61.18z"/>
            </g>
            <g>
                <path class="st1" d="M79.83,67.05c-0.15,1.05-0.46,2.06-0.91,3c-0.02,0.03-0.06,0.06-0.11,0.06c-0.02,0-0.04,0-0.05-0.01     c-0.01,0-0.02-0.01-0.02-0.02c-0.05-0.03-0.07-0.09-0.04-0.15c0.44-0.92,0.74-1.9,0.89-2.92c0.01-0.07,0.07-0.11,0.14-0.1     C79.8,66.92,79.84,66.98,79.83,67.05z"/>
            </g>
            <g>
                <path class="st1" d="M26.2,60.02c-0.05,0.13-0.18,0.21-0.33,0.21c-0.05,0-0.1-0.01-0.15-0.03c-0.01,0-0.01-0.01-0.02-0.01     c-1.79-0.81-3.54-1.67-5.22-2.58c-0.22-0.11-0.44-0.23-0.66-0.36c-3.12-1.71-6-3.55-8.53-5.47l-0.93-0.72     c-0.23-0.19-0.51-0.42-0.82-0.68c-0.43-0.37-0.93-0.79-1.48-1.22c-1.25-0.98-2.72-1.97-4.11-2.28c-0.08-0.02-0.15-0.03-0.22-0.03     c-0.44-0.09-0.86-0.09-1.26,0c-0.07,0.01-0.15,0.03-0.22,0.05c-0.04,0.02-0.09,0.03-0.13,0.05H2.11c-0.01,0-0.02,0.01-0.03,0.01     c-0.01,0-0.01,0-0.02,0H2.05c-0.14,0.03-0.29-0.03-0.38-0.14c-0.01-0.03-0.03-0.06-0.04-0.09c-0.05-0.13-0.02-0.27,0.06-0.37     c0.02-0.02,0.04-0.04,0.06-0.06c0.01,0,0.01,0,0.02-0.01c0.02-0.02,0.05-0.03,0.08-0.04c0.04-0.01,0.07-0.03,0.11-0.03     c0.07-0.03,0.14-0.05,0.21-0.07c0.12-0.03,0.24-0.05,0.36-0.07c0.3-0.05,0.62-0.05,0.94-0.01c0.11,0.01,0.21,0.02,0.32,0.04     c0.08,0,0.16,0.02,0.24,0.03c1.57,0.34,3.18,1.41,4.52,2.47c0.01,0.01,0.03,0.02,0.05,0.04c0.51,0.4,0.99,0.81,1.41,1.16     c0.31,0.26,0.58,0.49,0.8,0.67c2.71,2.15,5.87,4.22,9.34,6.12c0.22,0.12,0.43,0.24,0.65,0.35c1.09,0.59,2.2,1.16,3.34,1.7v0.01     c0.62,0.3,1.24,0.59,1.87,0.87C26.2,59.61,26.28,59.83,26.2,60.02z"/>
            </g>
            <g>
                <path class="st1" d="M26.23,54.66c-0.03,0.19-0.19,0.3-0.36,0.3c-0.03,0-0.05,0-0.08-0.01c-0.21-0.05-0.43-0.1-0.64-0.16     c-0.06-0.01-0.11-0.03-0.17-0.05h-0.01c-0.14-0.04-0.28-0.08-0.42-0.13c-0.26-0.07-0.52-0.16-0.78-0.26h-0.01     c-1.3-0.46-2.6-1.08-3.87-1.79c-0.01,0-0.01-0.01-0.02-0.01c-2.65-1.47-5.21-3.29-7.44-4.9c-0.3-0.22-0.6-0.43-0.89-0.64     c-0.01,0-0.01-0.01-0.02-0.01c-1.54-1.1-2.89-2.03-3.99-2.6H7.52c-0.04-0.03-0.07-0.05-0.1-0.05l-0.01-0.01     c-0.01-0.01-0.02-0.02-0.03-0.02c-0.17-0.09-0.25-0.29-0.18-0.48c0-0.01,0.01-0.01,0.01-0.02c0.08-0.15,0.24-0.23,0.41-0.2h0.01     c0.03,0.01,0.06,0.01,0.08,0.03c0.08,0.04,0.17,0.08,0.25,0.14c0.11,0.05,0.22,0.11,0.34,0.18c1.28,0.72,2.82,1.83,4.56,3.07     c3.57,2.56,7.95,5.7,12.14,6.93c0,0,0,0,0.01,0c0.31,0.1,0.63,0.18,0.94,0.25h0.01c0.1,0.02,0.18,0.09,0.23,0.18     C26.24,54.47,26.25,54.57,26.23,54.66z"/>
            </g>
            <g class="st2">
                <path class="st1" d="M78.92,70.05c-0.02,0.03-0.06,0.06-0.11,0.06c-0.02,0-0.04,0-0.05-0.01c-0.01,0-0.02-0.01-0.02-0.02     L78.92,70.05z"/>
                <path class="st1" d="M80.47,72.09c-0.6,0.18-1.23,0.33-1.84,0.42c-1.22,0.21-2.44,0.33-3.66,0.38c-0.66,0.03-1.33,0.03-1.99,0.01     c-1.17-0.02-2.33-0.11-3.48-0.23c-2.2-0.26-2.74-0.16-5.07-0.7c-0.53-0.14-0.84-0.59-0.92-1.08c0.01-0.01,0-0.02,0-0.02     c-0.04-0.35,0.03-0.71,0.22-1v-0.01c0.11-0.16,0.25-0.29,0.44-0.38c-0.11,0.59-0.23,1.16-0.34,1.7l-0.04,0.21     C66.62,72.68,76.55,72.82,80.47,72.09z"/>
                <path class="st1" d="M81.28,69.51c-0.01,0.05-0.02,0.11-0.04,0.16c-0.01,0.05-0.06,0.09-0.11,0.09c-0.01,0-0.02,0-0.04-0.01     c-0.07-0.02-0.1-0.09-0.08-0.15v-0.01C81.11,69.57,81.2,69.54,81.28,69.51z"/>
                <path class="st1" d="M81.65,69.38c-0.01,0.01-0.01,0.01-0.01,0.01L81.65,69.38C81.65,69.38,81.65,69.38,81.65,69.38z"/>
                <path class="st1" d="M83.95,69.62c0.02,0.54-0.42,0.85-0.79,1.14c-0.02,0.01-0.03,0.03-0.05,0.04c-0.15,0.23-0.54,0.48-1.07,0.72     c0.66-0.56,1.22-1.55,1.6-2.62c0.11,0.1,0.2,0.23,0.26,0.38v0.01C83.94,69.39,83.95,69.5,83.95,69.62z"/>
            </g>
            <g>
                <g class="st2">
                    <path class="st1" d="M34.65,70.54c-0.01,0-0.02,0-0.03,0C34.64,70.53,34.64,70.54,34.65,70.54L34.65,70.54z"/>
                </g>
                <g class="st2">
                    <path class="st1" d="M64.6,65.19c0,0.16-0.05,0.31-0.12,0.45c-0.03,0.06-0.07,0.11-0.11,0.16l-0.01,0.01      c-0.11,0.15-0.25,0.27-0.42,0.36v0.01c-0.23,0.13-0.5,0.21-0.78,0.22h-0.05c-0.01,0.03-0.54,0.18-0.72,0.26      c-2.18,0.84-4.4,1.57-6.63,2.28c-1.81,0.61-4.54,1.61-5.46,1.79c-2.94,0.94-5.87,1.94-8.94,2.26c-0.04,0.02-0.09,0.02-0.13,0.02      c-0.13,0.02-0.27,0.03-0.4,0.04c-0.08,0.01-0.15,0.02-0.22,0.03h-0.04c-0.13,0.02-0.25,0.03-0.38,0.04c-0.03,0-0.06,0.01-0.09,0      c-0.81,0.07-1.62,0.05-2.43-0.01c-0.1,0-0.21-0.01-0.31-0.02c-0.02,0-0.03,0-0.04-0.01c-0.01,0.01-0.02,0.01-0.03,0      c-1.12-0.07-2.22-0.3-3.28-0.69c-0.22-0.06-0.4-0.2-0.51-0.38c-0.08-0.13-0.13-0.28-0.15-0.43c-0.01-0.13-0.01-0.26,0.02-0.38      c1.89,0.61,3.77,1.13,5.57,1.5c3.36,0.69,16.66-4.1,25.09-7.29c0.04-0.41,0.08-0.84,0.11-1.29c0.12,0.09,0.23,0.21,0.31,0.36      c0.01,0.02,0.02,0.05,0.03,0.07C64.58,64.78,64.62,64.99,64.6,65.19z"/>
                </g>
            </g>
        </g>
        <path class="st3" d="M39.42,35.39h-1.89h-0.01 M37.53,35.39v-2.36c0-0.75,0.61-1.37,1.37-1.37h1.61 M37.52,39.8v-4.41 M35.69,35.39   H32.1 M35.69,39.8v-4.41 M35.69,35.39v-3.73 M32.1,39.8v-4.41 M32.1,35.39v-3.73 M30.33,39.81c-6.51,0.81-4.75-8.96,0-8.15"/>
        <g>
            <g>
                <path class="st1" d="M2.86,13.22c0.13-1.89,0.78-3.73,1.89-5.31c0.03-0.05,0.1-0.06,0.15-0.03c0.05,0.03,0.06,0.1,0.03,0.15     c-1.09,1.56-1.73,3.36-1.85,5.21c0,0.06-0.05,0.1-0.11,0.1C2.9,13.34,2.86,13.28,2.86,13.22z"/>
                <path class="st1" d="M5.85,6.92C5.8,6.89,5.79,6.82,5.82,6.77C6.14,6.3,6.58,5.91,7.1,5.64c0.05-0.03,0.12-0.01,0.15,0.05     C7.28,5.74,7.26,5.81,7.2,5.84C6.72,6.09,6.3,6.45,6,6.89C5.98,6.92,5.95,6.94,5.91,6.94C5.89,6.94,5.87,6.93,5.85,6.92z"/>
                <path class="st1" d="M24.74,18.83c-0.05-0.03-0.07-0.1-0.04-0.15c0.76-1.24,1.24-2.66,1.36-4.09c0.01-0.06,0.06-0.1,0.12-0.1     c0.06,0.01,0.1,0.06,0.1,0.12c-0.13,1.46-0.61,2.91-1.39,4.18c-0.02,0.04-0.05,0.06-0.09,0.06     C24.78,18.85,24.76,18.84,24.74,18.83z"/>
                <path class="st1" d="M28.18,10.5c-1.13-4.45-4.92-8.23-10.71-9.7C12.75-0.41,7.44,1.38,4.25,4.88     c-2.71,2.97-3.94,7.01-3.64,10.94c0.05,0.69,0.15,1.39,0.3,2.07c0.13,0.58,0.3,1.14,0.52,1.68c1.76,4.32,6.28,7.47,9.85,7.89     c2.32,0.27,4.48,0.07,6.39-0.39c0.34-0.08,0.68-0.17,1-0.27c2.98-0.88,5.21-2.35,6.18-3.47c0.34-0.39,0.65-0.79,0.94-1.21     c0.46-0.63,0.86-1.3,1.2-2C28.5,17.14,29,13.7,28.18,10.5z M24.6,23.11c-1.43,1.65-6.57,4.8-13.28,4.02     c-3.99-0.46-8.99-4.32-10.09-9.31c-0.02-0.12-0.05-0.23-0.06-0.35C0.3,13.02,1.57,8.32,4.49,5.1c2.53-2.77,6.26-4.35,9.92-4.35     c1.01,0,2.01,0.12,2.97,0.36c5.4,1.38,9.32,4.92,10.48,9.46c0.67,2.64,0.43,5.53-0.61,8.18C26.64,20.32,25.75,21.8,24.6,23.11z"/>
                <path class="st1" d="M28.5,10.41c-0.61-2.39-1.94-4.51-3.82-6.22c-1.88-1.7-4.31-2.99-7.13-3.71C12.83-0.73,7.39,0.95,4.01,4.66     c-3.15,3.46-4.46,8.55-3.42,13.3c1.16,5.27,6.45,9.33,10.66,9.82c0.72,0.08,1.43,0.12,2.12,0.12c5.45,0,10.03-2.4,11.73-4.36     C28.33,19.85,29.63,14.81,28.5,10.41z M24.6,23.11c-1.43,1.65-6.57,4.8-13.28,4.02c-3.99-0.46-8.99-4.32-10.09-9.31     c-0.02-0.12-0.05-0.23-0.06-0.35C0.3,13.02,1.57,8.32,4.49,5.1c2.53-2.77,6.26-4.35,9.92-4.35c1.01,0,2.01,0.12,2.97,0.36     c5.4,1.38,9.32,4.92,10.48,9.46c0.67,2.64,0.43,5.53-0.61,8.18C26.64,20.32,25.75,21.8,24.6,23.11z"/>
            </g>
            <g class="st2">
                <path class="st1" d="M27.82,18.03c-0.12,0.38-0.27,0.76-0.41,1.12c-0.13,0.33-0.27,0.65-0.42,0.97     c-0.21,0.49-0.44,0.97-0.69,1.45c-0.16,0.19-0.33,0.37-0.51,0.55c-0.22,0.23-0.45,0.45-0.7,0.68c-1.84,1.69-3.91,3.12-6.23,3.87     c-0.08,0.03-0.15,0.07-0.19,0.13c-0.02,0.02-0.04,0.04-0.05,0.06c-0.32,0.08-0.63,0.15-0.95,0.21c-0.61,0.13-1.23,0.24-1.84,0.33     c-1.78,0.25-3.58,0.17-5.34-0.22c-1.03-0.15-1.97-0.64-2.89-1.12c-1.06-0.6-2.08-1.29-3.03-2.08c-0.96-1.02-1.85-2.17-2.6-3.42     c-0.18-0.33-0.36-0.66-0.54-0.99c-0.06-0.12-0.13-0.24-0.19-0.36c-0.1-0.2-0.19-0.4-0.28-0.6c-0.09-0.21-0.17-0.43-0.26-0.64     c-0.16-0.8-0.27-1.61-0.33-2.42c0.1,0.08,0.18,0.17,0.24,0.27c0.21,0.32,0.27,0.73,0.16,1.1c0.11,0.13,0.25,0.32,0.4,0.55     c0.01,0.12,0.04,0.23,0.06,0.35c1.1,4.99,6.1,8.85,10.09,9.31c6.71,0.78,11.85-2.37,13.28-4.02c1.15-1.31,2.04-2.79,2.65-4.36     C27.48,18.5,27.67,18.25,27.82,18.03z"/>
            </g>
            <g>
                <path class="st1" d="M4.93,8.03c-1.09,1.56-1.73,3.36-1.85,5.21c0,0.06-0.05,0.1-0.11,0.1c-0.07,0-0.11-0.06-0.11-0.12     c0.13-1.89,0.78-3.73,1.89-5.31c0.03-0.05,0.1-0.06,0.15-0.03C4.95,7.91,4.96,7.98,4.93,8.03z"/>
            </g>
            <g>
                <path class="st1" d="M7.2,5.84C6.72,6.09,6.3,6.45,6,6.89C5.98,6.92,5.95,6.94,5.91,6.94c-0.02,0-0.04-0.01-0.06-0.02     C5.8,6.89,5.79,6.82,5.82,6.77C6.14,6.3,6.58,5.91,7.1,5.64c0.05-0.03,0.12-0.01,0.15,0.05C7.28,5.74,7.26,5.81,7.2,5.84z"/>
            </g>
            <g>
                <path class="st1" d="M26.28,14.61c-0.13,1.46-0.61,2.91-1.39,4.18c-0.02,0.04-0.05,0.06-0.09,0.06c-0.02,0-0.04-0.01-0.06-0.02     c-0.05-0.03-0.07-0.1-0.04-0.15c0.76-1.24,1.24-2.66,1.36-4.09c0.01-0.06,0.06-0.1,0.12-0.1C26.24,14.5,26.28,14.55,26.28,14.61z     "/>
            </g>
        </g>
        <path class="st4" d="M22.39,13.56h-2.42 M19.97,13.56v-3.01c0-0.96,0.78-1.75,1.75-1.75h2.06 M19.97,19.19v-5.63 M17.63,13.56   h-4.59 M17.63,13.56v0.01v5.62 M17.63,13.57v-0.01V8.8 M13.04,13.56v0.01v5.62 M13.04,13.57v-0.01V8.8 M10.79,19.2   c-8.31,1.04-6.06-11.44,0-10.4"/>
    </g>
    </svg>