<svg xmlns="http://www.w3.org/2000/svg" xmlns:xlink="http://www.w3.org/1999/xlink" version="1.1" id="Layer_1" x="0px" y="0px" viewBox="0 0 93 48" style="enable-background:new 0 0 93 48;" xml:space="preserve">
    <style type="text/css">
        .st0{fill:#FFFFFF;}
        .st1{fill:none;stroke:#000000;}
        .st2{fill:#84CDEE;}
    </style>
    <g>
        <path class="st0" d="M67.4,21.6v4.8h0l-39-0.8c0,0.2,0,0.5,0,0.8h-0.2v-5.6h0.6L67.4,21.6z"/>
        <g>
            <path class="st0" d="M22.5,5.9h-2.9L17,6.3l-1,1.3c0,0-1.2,1.4-1.2,1.5s-0.1,0.7-0.1,0.7h-2.4l-2.5,0.8c0,0-0.9,0.9-0.9,1    l-0.6,1.5c0,0-0.1,2.5-0.1,2.6s0,2.1,0,2.1v1.6L8,20.1c0,0-1.9,0-2,0C5.9,19.9,4,20,4,20l-0.7,0.5L2,21l-0.1,1l1.2,2.6l1,1L6,26.2    h1.9c0,0,0,4.9-0.1,4.9c-0.1,0.1-0.1,2.3-0.1,2.3s-0.6,1.1-0.1,1.5c0.4,0.3,1.6,1.6,1.6,1.6l1.3,1c0,0,2.3,0.1,2.8,0.2    c0.4,0.1,1.1,0.1,1.1,0.1l1.9,2.8c0,0,3,1.2,3.1,1.3c0.1,0,2.2,0.3,2.2,0.3L22.5,5.9z"/>
            <path class="st1" d="M8.5,20c-2.3-0.3-6.7-0.3-6.4,1.6C2.5,24,3.3,26,7.3,26"/>
            <path class="st2" d="M28.8,20.8c-0.1,1.5-0.3,2.5-0.5,4.8c0,0.2,0,0.5,0,0.8c0,0.8,0,1.7,0,2.8c-0.1-0.2-0.1-0.3-0.2-0.5l0,0    c-4.2-10.5-4.9-13.7-2-23.5c0-0.1,1.1-2.5,1.6-2.6c0,0,0,0,0,0c0.1,0,0.2,0.1,0.2,0.4V3c0.1,1.3,0.2,2.4,0.3,3.5    C29,15.5,29,18.6,28.8,20.8z"/>
            <path class="st2" d="M84.1,12.5c1.9,20.2,0.5,13.8,0.5,23.6c-3.9-9.9-4.6-12.6-2.1-21.6C82.6,14.5,84.1,11,84.1,12.5z"/>
            <path class="st2" d="M14.3,9.9c1.9,20.2,0.5,13.8,0.5,23.6c-3.9-9.9-4.6-12.6-2.1-21.6C12.8,11.9,14.3,8.4,14.3,9.9z"/>
            <path class="st1" d="M23,6.1c-2.7-0.8-8-0.8-8,5.6s-0.5,19.5-0.8,25.2c0,1.7,2,5,7.5,5"/>
            <path class="st1" d="M15.8,9.9c-2.4-0.6-7.3-0.6-7.3,4.3S8,29.2,7.8,33.6c0,1.3,1.2,4,6.2,4"/>
            <path class="st0" d="M23,46.5c3.4,4.9,5.2-14.8,5.2-20.8V4.8c0-5.2-6-4-5.2-0.8C23,17.6,19.4,41.3,23,46.5z"/>
            <path class="st1" d="M28.2,4.3c0-0.6-0.1-1-0.3-1.4c-0.1-0.1-0.1-0.2-0.2-0.4c-1.3-2.3-4.7-1.5-4.8,0.6c0,0.1,0,0.1,0,0.2    c0,0.2,0,0.3,0.1,0.5V4c0,0.7,0,1.4,0,2.1c0,1.7-0.1,3.5-0.2,5.3c-0.2,3-0.4,6.3-0.6,9.5c0,0,0,0,0,0c0,0,0,0.1,0,0.1    c-0.2,2.5-0.3,5-0.5,7.3c-0.2,4.1-0.3,7.9-0.2,11.1c0,0.6,0.1,1.3,0.1,1.8c0,0.2,0,0.4,0.1,0.6c0.2,2,0.7,3.6,1.3,4.5    c2.7,3.9,4.4-8,5-16c0-0.1,0-0.2,0-0.3c0-0.2,0-0.3,0-0.5c0-0.1,0-0.2,0-0.3c0-0.2,0-0.4,0-0.6c0-0.1,0-0.2,0-0.3    c0-0.1,0-0.2,0-0.3c0-0.2,0-0.3,0-0.5c0-0.8,0-1.4,0-2v-21C28.2,4.5,28.2,4.4,28.2,4.3z M28.2,25.6h0.2l39,0.8h0.1l0.4,0h0"/>
            <path class="st0" d="M67.9,21.6c1.6-18.8-2.4-20.8,4-20.8c2.8,0,1.6,2.4,1.9,5.6c1.8-0.9,5.3-1.8,5.3,2V12    c1.7-0.5,5.2-0.8,5.2,2.4v8c2.4-0.4,7.1-0.6,6.8,2c-0.4,3.2-1.6,3.2-6.8,3.2v5.6c0,1.5-0.9,4.4-5.2,4.4c-0.1,1.7-1.6,5.2-7,5.2    c-0.1,0.8-0.2,2-0.3,2.8C65.5,48.5,67.9,42.1,67.9,21.6z"/>
            <path class="st1" d="M84.3,27.6c0-1.7,0-3.5,0-5.2 M84.3,27.6c0.3,0,0.5,0,0.8,0c4.5,0,5.6-0.2,6-3.2c0.3-2.4-3.7-2.4-6.2-2.1    c-0.2,0-0.4,0.1-0.6,0.1 M84.3,22.4c0-3.2,0-6.1,0-7.7c0-0.1,0-0.2,0-0.3c0-0.3,0-0.6-0.1-0.9c-0.1-0.4-0.3-0.8-0.6-1.1    c-1.1-1.1-3.3-0.8-4.5-0.5 M84.3,27.6c0,2.1,0,4.1,0,5.6c0,0.4,0,1-0.2,1.5c-0.3,0.9-1,1.9-2.3,2.4c-0.2,0.1-0.3,0.1-0.6,0.2    c-0.2,0.1-0.3,0.1-0.5,0.1c-0.5,0.1-1,0.2-1.6,0.2 M79.1,11.9C79.1,11.9,79.1,11.9,79.1,11.9c0,6.8,0,19.1,0,25.7 M72.1,42.8    L72.1,42.8c0,0,0.1,0,0.1,0c5.3,0,6.8-3.5,6.9-5.2 M72.1,42.9C72.1,42.8,72.1,42.8,72.1,42.9c1.1-11.1,2.4-27.8,1.6-36.5 M79,12    c0-1.6,0-2.9,0-3.6c0-2-1-2.7-2.2-2.8c-0.1,0-0.1,0-0.2,0c-0.1,0-0.2,0-0.3,0c-0.9,0-1.8,0.4-2.5,0.7c0,0-0.1,0-0.1,0.1     M72.2,42.8c-0.1,0.8-0.2,2-0.3,2.8c-0.9,0.4-1.6,0.6-2.2,0.6c-0.2,0-0.3,0-0.4,0c-1.8-0.3-1.9-2.8-1.8-8.2c0-0.6,0-1.2,0.1-1.9    c0-0.3,0-0.7,0-1c0-0.4,0-0.7,0-1.1c0.1-2.2,0.2-4.7,0.2-7.6c0-1.5,0-3.1,0-4.8 M73.8,6.4C73.8,6.3,73.8,6.3,73.8,6.4    c-0.3-3.2,0.9-5.6-1.9-5.6c-6.4,0-2.4,2-4,20.8 M67.9,21.6l-0.4,0l-38.6-0.8h-0.2"/>
        </g>
    </g>
    </svg>