<svg width="257" height="257" viewBox="0 0 257 257" fill="none" xmlns="http://www.w3.org/2000/svg">
    <g filter="url(#filter0_d_37_9)">
    <path d="M184.776 19.7212C201.304 28.6726 212.918 47.1821 222.298 67.0571C231.53 86.9321 238.379 108.173 240.464 132.144C242.399 156.115 239.421 182.969 226.169 203.299C212.918 223.781 189.392 237.588 166.313 236.981C143.234 236.222 120.899 221.05 96.6289 213.313C72.5076 205.424 46.5995 204.968 38.1123 191.162C29.7741 177.356 38.8568 150.198 34.8366 124.71C30.6675 99.2213 13.2465 75.4016 16.3734 57.9541C19.5002 40.6583 43.3238 29.8863 64.9138 23.3625C86.5039 16.8386 106.009 14.4111 126.408 12.894C146.807 11.3768 168.248 10.7699 184.776 19.7212Z" fill="white"/>
    </g>
    <path d="M103.78 189V174.8H113.1V176.04H105.18V181.26H111.86V182.42H105.18V189H103.78ZM115.277 189V178.58H116.637V189H115.277ZM115.277 176.4V174.4H116.637V176.4H115.277ZM124.633 188.5C124.526 188.54 124.359 188.613 124.133 188.72C123.906 188.827 123.633 188.92 123.313 189C122.993 189.08 122.646 189.12 122.273 189.12C121.886 189.12 121.519 189.047 121.173 188.9C120.839 188.753 120.573 188.533 120.373 188.24C120.173 187.933 120.073 187.56 120.073 187.12V179.66H118.633V178.58H120.073V175.06H121.433V178.58H123.833V179.66H121.433V186.74C121.459 187.113 121.593 187.393 121.833 187.58C122.086 187.767 122.373 187.86 122.693 187.86C123.066 187.86 123.406 187.8 123.713 187.68C124.019 187.547 124.206 187.453 124.273 187.4L124.633 188.5ZM135.092 189H133.732V183.18C133.732 181.953 133.552 181.06 133.192 180.5C132.832 179.927 132.265 179.64 131.492 179.64C130.959 179.64 130.432 179.773 129.912 180.04C129.392 180.293 128.932 180.647 128.532 181.1C128.145 181.54 127.865 182.047 127.692 182.62V189H126.332V178.58H127.572V180.94C127.852 180.433 128.219 179.993 128.672 179.62C129.125 179.233 129.639 178.933 130.212 178.72C130.785 178.507 131.379 178.4 131.992 178.4C132.565 178.4 133.052 178.507 133.452 178.72C133.852 178.933 134.172 179.24 134.412 179.64C134.652 180.027 134.825 180.5 134.932 181.06C135.039 181.607 135.092 182.22 135.092 182.9V189ZM142.492 189.2C141.746 189.2 141.052 189.06 140.412 188.78C139.772 188.487 139.219 188.093 138.752 187.6C138.286 187.093 137.919 186.513 137.652 185.86C137.399 185.207 137.272 184.507 137.272 183.76C137.272 182.787 137.492 181.893 137.932 181.08C138.386 180.267 139.006 179.62 139.792 179.14C140.579 178.647 141.472 178.4 142.472 178.4C143.499 178.4 144.392 178.647 145.152 179.14C145.926 179.633 146.532 180.287 146.972 181.1C147.412 181.9 147.632 182.78 147.632 183.74C147.632 183.847 147.632 183.953 147.632 184.06C147.632 184.153 147.626 184.227 147.612 184.28H138.692C138.759 185.027 138.966 185.693 139.312 186.28C139.672 186.853 140.132 187.313 140.692 187.66C141.266 187.993 141.886 188.16 142.552 188.16C143.232 188.16 143.872 187.987 144.472 187.64C145.086 187.293 145.512 186.84 145.752 186.28L146.932 186.6C146.719 187.093 146.392 187.54 145.952 187.94C145.512 188.34 144.992 188.653 144.392 188.88C143.806 189.093 143.172 189.2 142.492 189.2ZM138.652 183.3H146.352C146.299 182.54 146.092 181.873 145.732 181.3C145.386 180.727 144.926 180.28 144.352 179.96C143.792 179.627 143.172 179.46 142.492 179.46C141.812 179.46 141.192 179.627 140.632 179.96C140.072 180.28 139.612 180.733 139.252 181.32C138.906 181.893 138.706 182.553 138.652 183.3ZM153.15 189.2C152.297 189.2 151.504 189.06 150.77 188.78C150.037 188.5 149.404 188.073 148.87 187.5L149.43 186.54C150.017 187.087 150.604 187.487 151.19 187.74C151.79 187.98 152.424 188.1 153.09 188.1C153.904 188.1 154.564 187.94 155.07 187.62C155.577 187.287 155.83 186.813 155.83 186.2C155.83 185.787 155.704 185.473 155.45 185.26C155.21 185.033 154.857 184.853 154.39 184.72C153.937 184.573 153.39 184.42 152.75 184.26C152.03 184.06 151.424 183.853 150.93 183.64C150.45 183.413 150.084 183.133 149.83 182.8C149.59 182.453 149.47 182.007 149.47 181.46C149.47 180.78 149.637 180.22 149.97 179.78C150.317 179.327 150.784 178.987 151.37 178.76C151.97 178.52 152.637 178.4 153.37 178.4C154.17 178.4 154.877 178.527 155.49 178.78C156.104 179.033 156.604 179.387 156.99 179.84L156.33 180.76C155.957 180.333 155.51 180.02 154.99 179.82C154.484 179.607 153.917 179.5 153.29 179.5C152.864 179.5 152.457 179.56 152.07 179.68C151.684 179.787 151.364 179.973 151.11 180.24C150.87 180.493 150.75 180.847 150.75 181.3C150.75 181.673 150.844 181.967 151.03 182.18C151.217 182.38 151.497 182.553 151.87 182.7C152.244 182.833 152.704 182.98 153.25 183.14C154.037 183.353 154.724 183.573 155.31 183.8C155.897 184.013 156.35 184.293 156.67 184.64C156.99 184.987 157.15 185.473 157.15 186.1C157.15 187.073 156.784 187.833 156.05 188.38C155.317 188.927 154.35 189.2 153.15 189.2ZM162.818 189.2C161.965 189.2 161.172 189.06 160.438 188.78C159.705 188.5 159.072 188.073 158.538 187.5L159.098 186.54C159.685 187.087 160.272 187.487 160.858 187.74C161.458 187.98 162.092 188.1 162.758 188.1C163.572 188.1 164.232 187.94 164.738 187.62C165.245 187.287 165.498 186.813 165.498 186.2C165.498 185.787 165.372 185.473 165.118 185.26C164.878 185.033 164.525 184.853 164.058 184.72C163.605 184.573 163.058 184.42 162.418 184.26C161.698 184.06 161.092 183.853 160.598 183.64C160.118 183.413 159.752 183.133 159.498 182.8C159.258 182.453 159.138 182.007 159.138 181.46C159.138 180.78 159.305 180.22 159.638 179.78C159.985 179.327 160.452 178.987 161.038 178.76C161.638 178.52 162.305 178.4 163.038 178.4C163.838 178.4 164.545 178.527 165.158 178.78C165.772 179.033 166.272 179.387 166.658 179.84L165.998 180.76C165.625 180.333 165.178 180.02 164.658 179.82C164.152 179.607 163.585 179.5 162.958 179.5C162.532 179.5 162.125 179.56 161.738 179.68C161.352 179.787 161.032 179.973 160.778 180.24C160.538 180.493 160.418 180.847 160.418 181.3C160.418 181.673 160.512 181.967 160.698 182.18C160.885 182.38 161.165 182.553 161.538 182.7C161.912 182.833 162.372 182.98 162.918 183.14C163.705 183.353 164.392 183.573 164.978 183.8C165.565 184.013 166.018 184.293 166.338 184.64C166.658 184.987 166.818 185.473 166.818 186.1C166.818 187.073 166.452 187.833 165.718 188.38C164.985 188.927 164.018 189.2 162.818 189.2Z" fill="black"/>
    <path d="M83.0205 94.9992C80.1871 94.6658 74.6205 94.5992 75.0205 96.9992C75.5205 99.9992 76.5195 102.499 81.5195 102.499" stroke="black" strokeWidth="2"/>
    <path d="M108.02 96.0004L157.02 96.999M157.02 96.999C159.02 73.4977 154.02 71 162.02 71C165.52 71 163.988 73.9467 164.359 78M157.02 96.999C157.02 122.499 154.02 130.498 162.02 126.999C162.125 126.048 162.233 124.546 162.342 123.5M164.359 78C166.579 76.8333 171.02 75.7 171.02 80.5C171.02 81.4347 171.02 83.0038 171.02 85M164.359 78C165.354 88.8526 163.763 109.856 162.342 123.5M171.02 117C170.901 119.167 169 123.5 162.342 123.5M171.02 117C171.02 108.813 171.02 93.2551 171.02 85M171.02 117C176.348 117 177.573 113.333 177.52 111.5C177.52 109.659 177.52 107.179 177.52 104.5M171.02 85C173.186 84.3333 177.52 84 177.52 88C177.52 89.8636 177.52 93.7532 177.52 98M177.52 98C180.52 97.5 186.42 97.3 186.02 100.5C185.52 104.5 184.02 104.5 177.52 104.5M177.52 98C177.52 100.147 177.52 102.386 177.52 104.5" stroke="black" strokeWidth="2"/>
    <path d="M157.013 103L107.513 102M107.513 102C107.513 109.5 105.217 134.073 101.016 128C96.5203 121.5 101.015 91.9984 101.017 74.999C100.022 70.9985 107.513 69.4998 107.513 76.0001C107.513 85.0246 107.513 95.9995 107.513 102Z" stroke="black" strokeWidth="2"/>
    <path d="M101.02 77.9991C97.6862 76.9991 91.0195 76.9991 91.0195 84.9991C91.0195 92.9991 90.3529 109.332 90.0195 116.499C90.0195 118.666 91.7195 122.999 98.5195 122.999" stroke="black" strokeWidth="2"/>
    <path d="M92.0195 82.3487C88.9892 81.5787 82.9286 81.5787 82.9286 87.7388C82.9286 93.8989 82.3226 106.476 82.0195 111.994C82.0195 113.662 83.565 116.999 89.7468 116.999" stroke="black" strokeWidth="2"/>
    <defs>
    <filter id="filter0_d_37_9" x="0" y="0" width="257" height="257" filterUnits="userSpaceOnUse" color-interpolation-filters="sRGB">
    <feFlood flood-opacity="0" result="BackgroundImageFix"/>
    <feColorMatrix in="SourceAlpha" type="matrix" values="0 0 0 0 0 0 0 0 0 0 0 0 0 0 0 0 0 0 127 0" result="hardAlpha"/>
    <feOffset dy="4"/>
    <feGaussianBlur stdDeviation="8"/>
    <feComposite in2="hardAlpha" operator="out"/>
    <feColorMatrix type="matrix" values="0 0 0 0 0.591667 0 0 0 0 0.591667 0 0 0 0 0.591667 0 0 0 0.25 0"/>
    <feBlend mode="normal" in2="BackgroundImageFix" result="effect1_dropShadow_37_9"/>
    <feBlend mode="normal" in="SourceGraphic" in2="effect1_dropShadow_37_9" result="shape"/>
    </filter>
    </defs>
    </svg>
    