<svg xmlns="http://www.w3.org/2000/svg" width="132" height="104" viewBox="0 0 132 104">
    <g id="Group_245" data-name="Group 245" transform="translate(-568.01 182.679)">
      <g id="Group_215" data-name="Group 215" transform="translate(602.126 -182.591)">
        <path id="Path_190" data-name="Path 190" d="M610.927-180.843c24.6-1.106,49.239-1.19,73.636-.175,1.617,27.24,2.479,54.859-3.1,81.548-.865,4.133-1.929,8.341-4.313,11.8a17.109,17.109,0,0,1-18.837,6.459c-18.938-.315-34.356-2.171-53.685-3.144C613.813-116.122,610.281-148.248,610.927-180.843Z" transform="translate(-603.818 182.534)" fill="#fff"/>
        <path id="Path_191" data-name="Path 191" d="M663.1-79.767a18.014,18.014,0,0,1-4.973-.7c-11.454-.194-21.5-.941-32.14-1.731-6.812-.506-13.857-1.03-21.464-1.413a.809.809,0,0,1-.617-.337.812.812,0,0,1-.119-.694c6.88-23.786,6.6-47.269,6.3-72.13-.1-7.9-.192-16.065-.033-24.146a.807.807,0,0,1,.771-.79c24.861-1.119,49.658-1.177,73.706-.176a.806.806,0,0,1,.772.759c1.564,26.346,2.612,54.362-3.12,81.761-.822,3.928-1.91,8.426-4.439,12.091A17.817,17.817,0,0,1,663.1-79.767Zm-57.482-5.4c7.24.379,13.971.88,20.49,1.363,10.646.792,20.7,1.539,32.155,1.728a.83.83,0,0,1,.214.033,16.35,16.35,0,0,0,17.944-6.143c2.358-3.418,3.4-7.73,4.188-11.505,5.638-26.95,4.665-54.58,3.132-80.6-23.529-.96-47.775-.9-72.08.171-.14,7.809-.046,15.7.046,23.338C611.991-133.228,612.282-108.877,605.622-85.17Z" transform="translate(-603.76 182.591)"/>
      </g>
      <g id="Group_216" data-name="Group 216" transform="translate(579.108 -102.924)">
        <path id="Path_192" data-name="Path 192" d="M581.151-96.154c23.77-.424,47.55-.249,70.886.108a28.485,28.485,0,0,0,3.486,17.879c.966,1.68,2.459,3.434,4.272,3.316-22.212-.207-43.941,1.828-66.387,0-4.183-.561-9.7-2.413-11.978-8.3C579.876-87.151,579.241-91.82,581.151-96.154Z" transform="translate(-579.165 97.21)" fill="#fff"/>
        <path id="Path_193" data-name="Path 193" d="M614.411-73.334c-6.993,0-14.051-.191-21.127-.768-6.4-.856-10.762-3.9-12.666-8.81-1.339-3.451-2.472-8.617-.264-13.625a.81.81,0,0,1,.725-.482c20.392-.363,42.262-.331,70.912.108a.808.808,0,0,1,.6.281.809.809,0,0,1,.188.635,27.543,27.543,0,0,0,3.385,17.368c.609,1.057,1.8,2.769,3.218,2.907l.362,0a.807.807,0,0,1,.8.784.809.809,0,0,1-.755.829,3.694,3.694,0,0,1-.5,0c-8-.063-16.076.162-23.885.381C628.509-73.53,621.493-73.334,614.411-73.334ZM581.635-95.414c-1.714,4.358-.7,8.861.488,11.918,2.12,5.467,7.333,7.253,11.333,7.789,14.111,1.148,28.24.752,41.9.369,6.844-.192,13.89-.389,20.924-.393a11.12,11.12,0,0,1-1.519-2.091,29.158,29.158,0,0,1-3.695-17.487C623.125-95.731,601.648-95.764,581.635-95.414Z" transform="translate(-579.108 97.268)"/>
      </g>
      <g id="Group_217" data-name="Group 217" transform="translate(592.675 -168.661)">
        <path id="Path_194" data-name="Path 194" d="M604.173-144.56c-.419,9.6-.511,18.912-.219,28.582,6.669.021,13.483.774,20.191-.179-.324-9.293-.583-18.588-.671-28.088,3.344,0,6.69,0,10.066-.062-6.408-7.466-12.817-14.932-19.689-22.5q-10.063,10.676-19.348,22.16C597.745-144.644,601.044-144.56,604.173-144.56Z" transform="translate(-593.696 167.615)" fill="#BEE8FF"/>
        <path id="Path_195" data-name="Path 195" d="M616.284-114.927c-2.149,0-4.288-.077-6.394-.151-1.973-.071-4.012-.144-6-.15a.806.806,0,0,1-.8-.782c-.275-9.137-.215-18.241.184-27.8-1.317,0-2.66-.022-4.012-.041-1.6-.021-3.217-.042-4.817-.043a.808.808,0,0,1-.728-.46.809.809,0,0,1,.1-.856c6.3-7.766,12.821-15.237,19.386-22.2a.738.738,0,0,1,.6-.254.8.8,0,0,1,.59.264c6.87,7.566,13.381,15.151,19.677,22.485a.837.837,0,0,1,.138.872.8.8,0,0,1-.708.493c-3.105.06-6.237.063-9.267.062.083,8.071.289,16.521.663,27.252a.806.806,0,0,1-.693.827A56.263,56.263,0,0,1,616.284-114.927Zm-11.6-1.91c1.758.02,3.538.083,5.267.146a84.405,84.405,0,0,0,13.308-.227c-.371-10.756-.57-19.227-.647-27.376a.809.809,0,0,1,.233-.575.809.809,0,0,1,.574-.239h0c2.732,0,5.532,0,8.333-.035-5.783-6.736-11.731-13.641-17.966-20.53-5.968,6.363-11.9,13.139-17.646,20.171,1.049.008,2.1.021,3.145.035,1.635.021,3.256.043,4.834.043a.806.806,0,0,1,.584.249.806.806,0,0,1,.223.594C604.505-135.026,604.426-125.942,604.681-116.838Z" transform="translate(-593.638 167.672)"/>
      </g>
      <g id="Group_218" data-name="Group 218" transform="translate(630.478 -163.305)">
        <path id="Path_196" data-name="Path 196" d="M674.172-160.011h-.021c-13.01-.35-26.2-.4-39.2-.159a.794.794,0,0,1-.823-.792.808.808,0,0,1,.793-.823c13.027-.246,26.242-.192,39.274.16a.806.806,0,0,1,.785.828A.807.807,0,0,1,674.172-160.011Z" transform="translate(-634.126 161.935)"/>
      </g>
      <g id="Group_219" data-name="Group 219" transform="translate(639.108 -148.643)">
        <path id="Path_197" data-name="Path 197" d="M673.677-144.357h-.007l-29.5-.261a.807.807,0,0,1-.8-.814.808.808,0,0,1,.808-.8h.008l29.5.26a.809.809,0,0,1,.8.815A.809.809,0,0,1,673.677-144.357Z" transform="translate(-643.368 146.233)"/>
      </g>
      <g id="Group_220" data-name="Group 220" transform="translate(629.718 -134.032)">
        <path id="Path_198" data-name="Path 198" d="M634.118-128.364a.806.806,0,0,1-.806-.778.807.807,0,0,1,.777-.837c12.7-.466,25.594-.666,38.319-.591a.808.808,0,0,1,.8.812.808.808,0,0,1-.808.8h0c-12.707-.076-25.569.124-38.251.59Z" transform="translate(-633.311 130.584)"/>
      </g>
      <g id="Group_221" data-name="Group 221" transform="translate(629.317 -120.4)">
        <path id="Path_199" data-name="Path 199" d="M633.689-113.713a.807.807,0,0,1-.807-.794.808.808,0,0,1,.794-.822l38.765-.655a.82.82,0,0,1,.822.794.808.808,0,0,1-.794.821l-38.766.656Z" transform="translate(-632.882 115.984)"/>
      </g>
      <g id="Group_222" data-name="Group 222" transform="translate(584.863 -98.908)">
        <path id="Path_200" data-name="Path 200" d="M585.541-87.806a.274.274,0,0,1-.145-.042.269.269,0,0,1-.083-.371,30.456,30.456,0,0,1,3.642-4.664.27.27,0,0,1,.38-.009.27.27,0,0,1,.01.381,29.88,29.88,0,0,0-3.578,4.58A.267.267,0,0,1,585.541-87.806Z" transform="translate(-585.271 92.966)"/>
      </g>
      <g id="Group_223" data-name="Group 223" transform="translate(585.429 -98.77)">
        <path id="Path_201" data-name="Path 201" d="M586.147-80.655A.263.263,0,0,1,586-80.7a.268.268,0,0,1-.076-.373,86.508,86.508,0,0,1,9.3-11.663.271.271,0,0,1,.381-.009.27.27,0,0,1,.009.381,86.013,86.013,0,0,0-9.239,11.588A.267.267,0,0,1,586.147-80.655Z" transform="translate(-585.878 92.818)"/>
      </g>
      <g id="Group_224" data-name="Group 224" transform="translate(589.982 -98.738)">
        <path id="Path_202" data-name="Path 202" d="M591.023-77.848a.263.263,0,0,1-.145-.042.269.269,0,0,1-.082-.372,126.877,126.877,0,0,1,10.738-14.429.269.269,0,0,1,.379-.028.27.27,0,0,1,.029.38A126.1,126.1,0,0,0,591.25-77.971.268.268,0,0,1,591.023-77.848Z" transform="translate(-590.754 92.784)"/>
      </g>
      <g id="Group_225" data-name="Group 225" transform="translate(596.918 -98.487)">
        <path id="Path_203" data-name="Path 203" d="M598.452-77.242a.26.26,0,0,1-.141-.041.268.268,0,0,1-.088-.37,166,166,0,0,1,10.284-14.759.269.269,0,0,1,.378-.047.269.269,0,0,1,.047.377,165.586,165.586,0,0,0-10.251,14.711A.269.269,0,0,1,598.452-77.242Z" transform="translate(-598.183 92.515)"/>
      </g>
      <g id="Group_226" data-name="Group 226" transform="translate(603.259 -98.834)">
        <path id="Path_204" data-name="Path 204" d="M605.243-76.7a.263.263,0,0,1-.148-.045.269.269,0,0,1-.077-.373L615.35-92.765a.268.268,0,0,1,.373-.077.269.269,0,0,1,.077.373L605.467-76.824A.267.267,0,0,1,605.243-76.7Z" transform="translate(-604.974 92.886)"/>
      </g>
      <g id="Group_227" data-name="Group 227" transform="translate(610.389 -99.134)">
        <path id="Path_205" data-name="Path 205" d="M612.88-77.207a.273.273,0,0,1-.148-.043.269.269,0,0,1-.078-.373c3.293-5.041,6.495-10.24,9.516-15.451a.269.269,0,0,1,.368-.1.269.269,0,0,1,.1.368c-3.027,5.219-6.233,10.426-9.531,15.475A.27.27,0,0,1,612.88-77.207Z" transform="translate(-612.61 93.208)"/>
      </g>
      <g id="Group_228" data-name="Group 228" transform="translate(616.553 -98.792)">
        <path id="Path_206" data-name="Path 206" d="M619.482-77.062a.262.262,0,0,1-.15-.047.266.266,0,0,1-.073-.373c3.357-4.977,6.662-10.1,9.824-15.232a.27.27,0,0,1,.371-.088.27.27,0,0,1,.088.371c-3.166,5.136-6.476,10.268-9.837,15.25A.268.268,0,0,1,619.482-77.062Z" transform="translate(-619.212 92.841)"/>
      </g>
      <g id="Group_229" data-name="Group 229" transform="translate(623.669 -98.677)">
        <path id="Path_207" data-name="Path 207" d="M627.1-77.263a.261.261,0,0,1-.15-.046.267.267,0,0,1-.073-.373c3.256-4.824,6.371-9.837,9.26-14.9a.272.272,0,0,1,.368-.1.269.269,0,0,1,.1.367c-2.9,5.075-6.019,10.1-9.282,14.935A.266.266,0,0,1,627.1-77.263Z" transform="translate(-626.833 92.718)"/>
      </g>
      <g id="Group_230" data-name="Group 230" transform="translate(630.424 -98.858)">
        <path id="Path_208" data-name="Path 208" d="M634.338-77.734a.265.265,0,0,1-.133-.035.269.269,0,0,1-.1-.367l8.318-14.64a.267.267,0,0,1,.367-.1.27.27,0,0,1,.1.367l-8.318,14.64A.267.267,0,0,1,634.338-77.734Z" transform="translate(-634.068 92.912)"/>
      </g>
      <g id="Group_231" data-name="Group 231" transform="translate(636.229 -99.323)">
        <path id="Path_209" data-name="Path 209" d="M640.555-77.146a.259.259,0,0,1-.133-.035.27.27,0,0,1-.1-.367c3.012-5.316,6.226-10.612,9.553-15.741a.272.272,0,0,1,.374-.079.27.27,0,0,1,.079.373c-3.322,5.119-6.53,10.406-9.536,15.713A.27.27,0,0,1,640.555-77.146Z" transform="translate(-640.285 93.411)"/>
      </g>
      <g id="Group_232" data-name="Group 232" transform="translate(643.319 -93.068)">
        <path id="Path_210" data-name="Path 210" d="M648.148-77.8a.276.276,0,0,1-.126-.031.27.27,0,0,1-.112-.364,68.325,68.325,0,0,1,5.249-8.409.269.269,0,0,1,.375-.059.269.269,0,0,1,.059.376,67.9,67.9,0,0,0-5.207,8.343A.27.27,0,0,1,648.148-77.8Z" transform="translate(-647.879 86.711)"/>
      </g>
      <g id="Group_233" data-name="Group 233" transform="translate(648.514 -86.192)">
        <path id="Path_211" data-name="Path 211" d="M653.711-76.185a.26.26,0,0,1-.149-.046.268.268,0,0,1-.074-.373l1.761-2.626a.271.271,0,0,1,.373-.074.269.269,0,0,1,.074.373L653.935-76.3A.269.269,0,0,1,653.711-76.185Z" transform="translate(-653.442 79.347)"/>
      </g>
      <g id="Group_237" data-name="Group 237" transform="translate(584.326 -91.219)">
        <g id="Group_234" data-name="Group 234" transform="translate(70.819 6.058)" opacity="0.129">
          <path id="Path_212" data-name="Path 212" d="M660.55-78.231h0l-.006-.013Z" transform="translate(-660.544 78.243)"/>
        </g>
        <g id="Group_235" data-name="Group 235" transform="translate(70.787 5.98)" opacity="0.129">
          <path id="Path_213" data-name="Path 213" d="M660.542-78.249Z" transform="translate(-660.509 78.326)"/>
        </g>
        <g id="Group_236" data-name="Group 236" opacity="0.129">
          <path id="Path_214" data-name="Path 214" d="M658.017-76.607a10.26,10.26,0,0,0-2.08-1.133c-.12-.313-.279-.617-.416-.921l.044.106a22.3,22.3,0,0,1-.961-2.624c-.113-.305-.5-1.834-.584-2.035a1.573,1.573,0,0,0-.436-1.092,1.493,1.493,0,0,0-2.088,0,2.3,2.3,0,0,0-.513,1.176c-.027.077-.045.128-.059.169-.068.125-.226.425-.377.657-.053.066-.158.2-.26.346-.814.851-.182.313-1.325,1.084a7.167,7.167,0,0,1-1.016.536l-.147.057c-.965.322-1.494.493-1.959.6-2.009.013-4.344.118-6.186.232-4.143-.011-8.262.444-12.4.5-4.162.274-8.332.368-12.5.539a81.035,81.035,0,0,1-12.341.119c-3.808-.414-7.178-.785-11.1-1.462a19.57,19.57,0,0,1-3.191-.929,2.681,2.681,0,0,0-2.029-.45,1.955,1.955,0,0,0-.463,3.542,29.383,29.383,0,0,0,7.373,2.5c.342.091,2.222.356,2.869.443.224.035.481.065.632.081a67.431,67.431,0,0,0,10.009.97c3.145.049,6.274-.314,9.412-.447,6.225-.288,12.461-.486,18.667-1.066a1.347,1.347,0,0,0,.345.592c.784.7,1.954.348,2.92.449l-.406-.055a45.125,45.125,0,0,0,6.583-.224,64.358,64.358,0,0,1,7.519-.205c.44.017.879.054,1.317.1a1.67,1.67,0,0,0,.688.49,1.622,1.622,0,0,0,1.738-.214c.231.026.462.053.694.074l.2.038C657.822-73.537,659.255-75.236,658.017-76.607Z" transform="translate(-584.696 84.731)"/>
        </g>
      </g>
      <g id="Group_241" data-name="Group 241" transform="translate(650.928 -102.755)">
        <g id="Group_238" data-name="Group 238" transform="translate(18.306 19.45)" opacity="0.129">
          <path id="Path_215" data-name="Path 215" d="M675.667-76.229l-.034-.026h0Z" transform="translate(-675.633 76.255)"/>
        </g>
        <g id="Group_239" data-name="Group 239" opacity="0.129">
          <path id="Path_216" data-name="Path 216" d="M677.487-79.714a1.965,1.965,0,0,0-.3-.6,4.792,4.792,0,0,0-.677-.8,16.1,16.1,0,0,0-1.428-1.441c-2.363-2.336-4.993-4.374-7.481-6.576-2.888-2.449-5.642-5.06-8.648-7.368-1.843-1.748-4.165.809-2.143,2.308.044.032.09.07.133.1a2,2,0,0,0-.254,2.419c.058.1.12.189.178.284a3.425,3.425,0,0,0-.166.517,8.381,8.381,0,0,0,.613,4.2,6.122,6.122,0,0,0,.139,2.054,11.571,11.571,0,0,0,2.077,4.642c1.91,2.714,7.535,8.154,10.5,4.216a2.207,2.207,0,0,0,.293-.868,2.225,2.225,0,0,0,2.308.334,2.17,2.17,0,0,0,1.334-1.632c.12.1.241.191.365.283a1.334,1.334,0,0,0,.13.082,2.8,2.8,0,0,0,.525.232A1.982,1.982,0,0,0,677.487-79.714Z" transform="translate(-656.027 97.086)"/>
        </g>
        <g id="Group_240" data-name="Group 240" transform="translate(17.929 19.158)" opacity="0.129">
          <path id="Path_217" data-name="Path 217" d="M675.606-76.276l-.377-.291A2.927,2.927,0,0,0,675.606-76.276Z" transform="translate(-675.229 76.567)"/>
        </g>
      </g>
      <g id="Group_244" data-name="Group 244" transform="translate(608.384 -169.356)">
        <g id="Group_242" data-name="Group 242" opacity="0.129">
          <path id="Path_218" data-name="Path 218" d="M638.25-145.158a6.925,6.925,0,0,0-1.6-2.678c-.9-.992-1.8-2-2.726-2.965-3.863-3.978-7.891-7.794-11.7-11.827-1.311-1.458-2.573-2.963-3.944-4.367-.483-.419-.836-1.043-1.443-1.286a1.5,1.5,0,0,0-1.9.622,1.542,1.542,0,0,0,.032,1.576l0,0,0,0a1.379,1.379,0,0,0,.155.205c.085.115.168.231.259.341.03.037.059.076.088.113,4.186,5.246,9.1,9.819,13.647,14.738,1.7,1.894,4.715,5.074,5.607,6.06.028.042.058.09.093.146l.043.078a1.558,1.558,0,0,0-.245.07,47.639,47.639,0,0,0-6.618-.081c-.119.019-.241.03-.364.039a1.679,1.679,0,0,0-1.128.054,3,3,0,0,0-1.539.422,1.615,1.615,0,0,0-.959,1.976c.368,3.443,1.108,11.146,1.214,16.254a59.589,59.589,0,0,1,.209,8.2c-.015.287-.017.574-.009.861l.006-.035a2.18,2.18,0,0,0,.008.221,33.3,33.3,0,0,1-6.582.638,37.246,37.246,0,0,0-6.035-.148,2.377,2.377,0,0,0-2.1.991,1.863,1.863,0,0,0,2.086,2.713l.257-.042a18.807,18.807,0,0,1,3.034-.042,33.845,33.845,0,0,0,4.642.233,40.824,40.824,0,0,0,4.2-.433,14.378,14.378,0,0,0,1.744-.3,3.459,3.459,0,0,0,3.04-1.486,1.156,1.156,0,0,0,.365-.372,7.657,7.657,0,0,0,.129-2.547,27.293,27.293,0,0,0-.147-2.763,2.332,2.332,0,0,0-.26-.99c0-.163,0-.322,0-.471-.16-6.165-.716-12.312-.947-18.475-.013-.324-.024-.649-.036-.973,1.086-.035,2.174-.035,3.26-.012a1.282,1.282,0,0,0,.32.033c.206-.007.419-.01.635-.015a8.637,8.637,0,0,0,2.172-.1,2.163,2.163,0,0,0,.42-.15,3.732,3.732,0,0,0,1.8-.97,3.109,3.109,0,0,0,.74-1.321A3.507,3.507,0,0,0,638.25-145.158Z" transform="translate(-610.463 168.416)"/>
        </g>
        <g id="Group_243" data-name="Group 243" transform="translate(4.702 2.592)" opacity="0.129">
          <path id="Path_219" data-name="Path 219" d="M615.742-165.326l-.019-.024c-.076-.1-.154-.193-.224-.289Z" transform="translate(-615.499 165.64)"/>
        </g>
      </g>
    </g>
    <rect id="Rectangle_203" data-name="Rectangle 203" width="132" height="104" fill="none"/>
  </svg>
  