<svg   viewBox="0 0 71 52" fill="none" xmlns="http://www.w3.org/2000/svg">
<path d="M67.906 22.4389C63.6996 14.4152 54.988 -1.37316 50.0023 1.30134C45.7919 3.55996 46.3314 4.09987 46.3298 5.17863" stroke="black"/>
<path d="M28.0519 43.321C8.85459 45.0662 9.5 44.5 2.31006 41.3257C12.4489 38.1341 15.1333 35.8679 24.9787 41.3254C24.9787 41.3254 29.6814 43.6986 28.0519 43.321Z" fill="#BEE8FF"/>
<path d="M46.5 23C65.5 22.5 58.5 22.5 68.5001 23C65 26.5 57.7587 31.875 47.9134 26.4175C47.9134 26.4175 44.8705 22.6224 46.5 23Z" fill="#BEE8FF"/>
<path d="M31.6971 27.5491H39.5884M31.6971 27.5491C30.3818 25.9308 27.1595 22.6944 24.7921 22.6944C22.4247 22.6944 10.6534 22.6944 5.06362 22.6944C4.19504 22.9794 3.02052 23.6158 2.11251 24.6366M31.6971 27.5491C33.2756 32.986 31.6971 41.4537 27.7511 43.0845C27.1537 43.6113 19.0636 44.69 10.9819 44.0554C-0.818869 43.1288 1.11878 36.0599 1.11793 30.4623C1.11751 27.7081 0.958139 25.9344 2.11251 24.6366M39.5884 27.5491C39.5884 23.6541 47.1115 22.6944 51.4255 22.6944C54.6762 22.6944 63.9202 23.018 68.1947 22.6944C70.4964 24.3127 70.1676 29.0479 70.1676 31.4332C70.1676 33.8185 74.6194 49.5445 43.5341 43.0845C40.6193 42.4787 36.4319 36.8698 39.5884 27.5491ZM2.11251 24.6366C6.3842 16.2218 16.1113 -0.0252421 20.8461 2.30501C25.581 4.63527 28.0799 6.51205 28.7375 7.15916" stroke="black"/>
</svg>
