<svg width="257" height="257" viewBox="0 0 257 257" fill="none" xmlns="http://www.w3.org/2000/svg">
    <g filter="url(#filter0_d_37_9)">
    <path d="M184.776 19.7212C201.304 28.6726 212.918 47.1821 222.298 67.0571C231.53 86.9321 238.379 108.173 240.464 132.144C242.399 156.115 239.421 182.969 226.169 203.299C212.918 223.781 189.392 237.588 166.313 236.981C143.234 236.222 120.899 221.05 96.6289 213.313C72.5076 205.424 46.5995 204.968 38.1123 191.162C29.7741 177.356 38.8568 150.198 34.8366 124.71C30.6675 99.2213 13.2465 75.4016 16.3734 57.9541C19.5002 40.6583 43.3238 29.8863 64.9138 23.3625C86.5039 16.8386 106.009 14.4111 126.408 12.894C146.807 11.3768 168.248 10.7699 184.776 19.7212Z" fill="white"/>
    </g>
    <path d="M94.48 188.1C93.5333 188.1 92.6533 187.9 91.84 187.5C91.0267 187.087 90.32 186.533 89.72 185.84C89.12 185.147 88.6533 184.373 88.32 183.52C88 182.667 87.84 181.787 87.84 180.88C87.84 179.92 88 179.013 88.32 178.16C88.6533 177.293 89.1133 176.527 89.7 175.86C90.2867 175.193 90.98 174.667 91.78 174.28C92.58 173.893 93.4533 173.7 94.4 173.7C95.8 173.7 96.94 173.987 97.82 174.56C98.7 175.133 99.3667 175.88 99.82 176.8L98.74 177.52C98.2867 176.64 97.68 175.993 96.92 175.58C96.16 175.167 95.3133 174.96 94.38 174.96C93.5933 174.96 92.88 175.127 92.24 175.46C91.6133 175.793 91.0733 176.24 90.62 176.8C90.1667 177.36 89.82 177.993 89.58 178.7C89.3533 179.407 89.24 180.14 89.24 180.9C89.24 181.7 89.3733 182.46 89.64 183.18C89.9067 183.887 90.2867 184.52 90.78 185.08C91.2733 185.627 91.84 186.06 92.48 186.38C93.1333 186.687 93.8333 186.84 94.58 186.84C95.4467 186.84 96.2667 186.627 97.04 186.2C97.8133 185.76 98.5533 185.087 99.26 184.18V185.66C97.9133 187.287 96.32 188.1 94.48 188.1ZM99.04 182.1H95.88V181.02H100.22V188H99.04V182.1ZM102.876 173.4H104.236V185.64C104.236 186.16 104.33 186.5 104.516 186.66C104.703 186.82 104.93 186.9 105.196 186.9C105.436 186.9 105.676 186.873 105.916 186.82C106.156 186.767 106.363 186.713 106.536 186.66L106.776 187.76C106.523 187.867 106.21 187.953 105.836 188.02C105.476 188.087 105.163 188.12 104.896 188.12C104.283 188.12 103.79 187.94 103.416 187.58C103.056 187.22 102.876 186.727 102.876 186.1V173.4ZM107.426 185C107.426 184.347 107.612 183.787 107.986 183.32C108.359 182.84 108.872 182.473 109.526 182.22C110.192 181.953 110.959 181.82 111.826 181.82C112.332 181.82 112.859 181.86 113.406 181.94C113.952 182.02 114.439 182.14 114.866 182.3V181.42C114.866 180.54 114.606 179.84 114.086 179.32C113.566 178.8 112.846 178.54 111.926 178.54C111.366 178.54 110.812 178.647 110.266 178.86C109.732 179.06 109.172 179.36 108.586 179.76L108.066 178.8C108.746 178.333 109.412 177.987 110.066 177.76C110.719 177.52 111.386 177.4 112.066 177.4C113.346 177.4 114.359 177.767 115.106 178.5C115.852 179.233 116.226 180.247 116.226 181.54V186.36C116.226 186.547 116.266 186.687 116.346 186.78C116.426 186.86 116.552 186.907 116.726 186.92V188C116.579 188.013 116.452 188.027 116.346 188.04C116.239 188.053 116.159 188.053 116.106 188.04C115.772 188.027 115.519 187.92 115.346 187.72C115.172 187.52 115.079 187.307 115.066 187.08L115.046 186.32C114.579 186.92 113.972 187.387 113.226 187.72C112.479 188.04 111.719 188.2 110.946 188.2C110.279 188.2 109.672 188.06 109.126 187.78C108.592 187.487 108.172 187.1 107.866 186.62C107.572 186.127 107.426 185.587 107.426 185ZM114.406 185.8C114.552 185.613 114.666 185.433 114.746 185.26C114.826 185.087 114.866 184.933 114.866 184.8V183.28C114.412 183.107 113.939 182.973 113.446 182.88C112.966 182.787 112.479 182.74 111.986 182.74C111.012 182.74 110.226 182.933 109.626 183.32C109.026 183.707 108.726 184.233 108.726 184.9C108.726 185.287 108.826 185.653 109.026 186C109.226 186.333 109.519 186.613 109.906 186.84C110.292 187.053 110.746 187.16 111.266 187.16C111.919 187.16 112.526 187.033 113.086 186.78C113.659 186.527 114.099 186.2 114.406 185.8ZM122.584 188.2C121.731 188.2 120.937 188.06 120.204 187.78C119.471 187.5 118.837 187.073 118.304 186.5L118.864 185.54C119.451 186.087 120.037 186.487 120.624 186.74C121.224 186.98 121.857 187.1 122.524 187.1C123.337 187.1 123.997 186.94 124.504 186.62C125.011 186.287 125.264 185.813 125.264 185.2C125.264 184.787 125.137 184.473 124.884 184.26C124.644 184.033 124.291 183.853 123.824 183.72C123.371 183.573 122.824 183.42 122.184 183.26C121.464 183.06 120.857 182.853 120.364 182.64C119.884 182.413 119.517 182.133 119.264 181.8C119.024 181.453 118.904 181.007 118.904 180.46C118.904 179.78 119.071 179.22 119.404 178.78C119.751 178.327 120.217 177.987 120.804 177.76C121.404 177.52 122.071 177.4 122.804 177.4C123.604 177.4 124.311 177.527 124.924 177.78C125.537 178.033 126.037 178.387 126.424 178.84L125.764 179.76C125.391 179.333 124.944 179.02 124.424 178.82C123.917 178.607 123.351 178.5 122.724 178.5C122.297 178.5 121.891 178.56 121.504 178.68C121.117 178.787 120.797 178.973 120.544 179.24C120.304 179.493 120.184 179.847 120.184 180.3C120.184 180.673 120.277 180.967 120.464 181.18C120.651 181.38 120.931 181.553 121.304 181.7C121.677 181.833 122.137 181.98 122.684 182.14C123.471 182.353 124.157 182.573 124.744 182.8C125.331 183.013 125.784 183.293 126.104 183.64C126.424 183.987 126.584 184.473 126.584 185.1C126.584 186.073 126.217 186.833 125.484 187.38C124.751 187.927 123.784 188.2 122.584 188.2ZM132.252 188.2C131.399 188.2 130.605 188.06 129.872 187.78C129.139 187.5 128.505 187.073 127.972 186.5L128.532 185.54C129.119 186.087 129.705 186.487 130.292 186.74C130.892 186.98 131.525 187.1 132.192 187.1C133.005 187.1 133.665 186.94 134.172 186.62C134.679 186.287 134.932 185.813 134.932 185.2C134.932 184.787 134.805 184.473 134.552 184.26C134.312 184.033 133.959 183.853 133.492 183.72C133.039 183.573 132.492 183.42 131.852 183.26C131.132 183.06 130.525 182.853 130.032 182.64C129.552 182.413 129.185 182.133 128.932 181.8C128.692 181.453 128.572 181.007 128.572 180.46C128.572 179.78 128.739 179.22 129.072 178.78C129.419 178.327 129.885 177.987 130.472 177.76C131.072 177.52 131.739 177.4 132.472 177.4C133.272 177.4 133.979 177.527 134.592 177.78C135.205 178.033 135.705 178.387 136.092 178.84L135.432 179.76C135.059 179.333 134.612 179.02 134.092 178.82C133.585 178.607 133.019 178.5 132.392 178.5C131.965 178.5 131.559 178.56 131.172 178.68C130.785 178.787 130.465 178.973 130.212 179.24C129.972 179.493 129.852 179.847 129.852 180.3C129.852 180.673 129.945 180.967 130.132 181.18C130.319 181.38 130.599 181.553 130.972 181.7C131.345 181.833 131.805 181.98 132.352 182.14C133.139 182.353 133.825 182.573 134.412 182.8C134.999 183.013 135.452 183.293 135.772 183.64C136.092 183.987 136.252 184.473 136.252 185.1C136.252 186.073 135.885 186.833 135.152 187.38C134.419 187.927 133.452 188.2 132.252 188.2ZM143 188.2C142.253 188.2 141.56 188.06 140.92 187.78C140.28 187.487 139.727 187.093 139.26 186.6C138.793 186.093 138.427 185.513 138.16 184.86C137.907 184.207 137.78 183.507 137.78 182.76C137.78 181.787 138 180.893 138.44 180.08C138.893 179.267 139.513 178.62 140.3 178.14C141.087 177.647 141.98 177.4 142.98 177.4C144.007 177.4 144.9 177.647 145.66 178.14C146.433 178.633 147.04 179.287 147.48 180.1C147.92 180.9 148.14 181.78 148.14 182.74C148.14 182.847 148.14 182.953 148.14 183.06C148.14 183.153 148.133 183.227 148.12 183.28H139.2C139.267 184.027 139.473 184.693 139.82 185.28C140.18 185.853 140.64 186.313 141.2 186.66C141.773 186.993 142.393 187.16 143.06 187.16C143.74 187.16 144.38 186.987 144.98 186.64C145.593 186.293 146.02 185.84 146.26 185.28L147.44 185.6C147.227 186.093 146.9 186.54 146.46 186.94C146.02 187.34 145.5 187.653 144.9 187.88C144.313 188.093 143.68 188.2 143 188.2ZM139.16 182.3H146.86C146.807 181.54 146.6 180.873 146.24 180.3C145.893 179.727 145.433 179.28 144.86 178.96C144.3 178.627 143.68 178.46 143 178.46C142.32 178.46 141.7 178.627 141.14 178.96C140.58 179.28 140.12 179.733 139.76 180.32C139.413 180.893 139.213 181.553 139.16 182.3ZM153.658 188.2C152.805 188.2 152.012 188.06 151.278 187.78C150.545 187.5 149.912 187.073 149.378 186.5L149.938 185.54C150.525 186.087 151.112 186.487 151.698 186.74C152.298 186.98 152.932 187.1 153.598 187.1C154.412 187.1 155.072 186.94 155.578 186.62C156.085 186.287 156.338 185.813 156.338 185.2C156.338 184.787 156.212 184.473 155.958 184.26C155.718 184.033 155.365 183.853 154.898 183.72C154.445 183.573 153.898 183.42 153.258 183.26C152.538 183.06 151.932 182.853 151.438 182.64C150.958 182.413 150.592 182.133 150.338 181.8C150.098 181.453 149.978 181.007 149.978 180.46C149.978 179.78 150.145 179.22 150.478 178.78C150.825 178.327 151.292 177.987 151.878 177.76C152.478 177.52 153.145 177.4 153.878 177.4C154.678 177.4 155.385 177.527 155.998 177.78C156.612 178.033 157.112 178.387 157.498 178.84L156.838 179.76C156.465 179.333 156.018 179.02 155.498 178.82C154.992 178.607 154.425 178.5 153.798 178.5C153.372 178.5 152.965 178.56 152.578 178.68C152.192 178.787 151.872 178.973 151.618 179.24C151.378 179.493 151.258 179.847 151.258 180.3C151.258 180.673 151.352 180.967 151.538 181.18C151.725 181.38 152.005 181.553 152.378 181.7C152.752 181.833 153.212 181.98 153.758 182.14C154.545 182.353 155.232 182.573 155.818 182.8C156.405 183.013 156.858 183.293 157.178 183.64C157.498 183.987 157.658 184.473 157.658 185.1C157.658 186.073 157.292 186.833 156.558 187.38C155.825 187.927 154.858 188.2 153.658 188.2Z" fill="black"/>
    <path d="M165.674 99.5688C160.853 90.3737 150.87 72.2804 145.156 75.3453C140.331 77.9337 140.95 78.5524 140.948 79.7887" stroke="black" stroke-width="2"/>
    <path d="M124.179 105.425H133.222M124.179 105.425C122.671 103.571 118.979 99.8617 116.266 99.8617C113.553 99.8617 100.063 99.8617 93.6569 99.8617C92.6615 100.188 91.3155 100.918 90.2749 102.087M124.179 105.425C125.988 111.656 124.179 121.36 119.657 123.229C118.972 123.832 109.701 125.069 100.439 124.341C86.9156 123.279 89.1361 115.179 89.1351 108.764C89.1347 105.607 88.952 103.575 90.2749 102.087M133.222 105.425C133.222 100.962 141.844 99.8617 146.787 99.8617C150.513 99.8617 161.106 100.233 166.005 99.8617C168.642 101.716 168.266 107.143 168.266 109.876C168.266 112.61 173.367 130.632 137.744 123.229C134.404 122.534 129.605 116.107 133.222 105.425ZM90.2749 102.087C95.1703 92.4442 106.317 73.8251 111.744 76.4956C117.17 79.166 120.033 81.3168 120.787 82.0584" stroke="black" stroke-width="2"/>
    <defs>
    <filter id="filter0_d_37_9" x="0" y="0" width="257" height="257" filterUnits="userSpaceOnUse" color-interpolation-filters="sRGB">
    <feFlood flood-opacity="0" result="BackgroundImageFix"/>
    <feColorMatrix in="SourceAlpha" type="matrix" values="0 0 0 0 0 0 0 0 0 0 0 0 0 0 0 0 0 0 127 0" result="hardAlpha"/>
    <feOffset dy="4"/>
    <feGaussianBlur stdDeviation="8"/>
    <feComposite in2="hardAlpha" operator="out"/>
    <feColorMatrix type="matrix" values="0 0 0 0 0.591667 0 0 0 0 0.591667 0 0 0 0 0.591667 0 0 0 0.25 0"/>
    <feBlend mode="normal" in2="BackgroundImageFix" result="effect1_dropShadow_37_9"/>
    <feBlend mode="normal" in="SourceGraphic" in2="effect1_dropShadow_37_9" result="shape"/>
    </filter>
    </defs>
    </svg>
    