<svg width="71" height="52" viewBox="0 0 71 72" fill="none" xmlns="http://www.w3.org/2000/svg">
    <path d="M67.906 22.4389C63.6996 14.4152 54.988 -1.37316 50.0023 1.30134C45.7919 3.55996 46.3314 4.09987 46.3298 5.17863" stroke="black"/>
    <path d="M28.0519 43.321C8.85459 45.0662 12.7709 43.4436 2.31006 41.3257C12.4489 38.134 15.1333 35.8679 24.9787 41.3254C24.9787 41.3254 29.6814 43.6986 28.0519 43.321Z" fill="#84CDEE"/>
    <path d="M47.0406 23.8002C66.2379 22.055 59.7038 22.1189 70.1646 24.2368C64.9289 27.7269 57.7586 31.875 47.9132 26.4175C47.9132 26.4175 45.411 23.4226 47.0406 23.8002Z" fill="#84CDEE"/>
    <path d="M31.6971 27.5491H39.5884M31.6971 27.5491C30.3818 25.9309 27.1595 22.6944 24.7921 22.6944C22.4247 22.6944 10.6534 22.6944 5.06362 22.6944C4.19504 22.9795 3.02052 23.6159 2.11251 24.6367M31.6971 27.5491C33.2756 32.9861 31.6971 41.4538 27.7511 43.0845C27.1537 43.6113 19.0636 44.6901 10.9819 44.0555C-0.818869 43.1288 1.11878 36.06 1.11793 30.4623C1.11751 27.7082 0.958139 25.9345 2.11251 24.6367M39.5884 27.5491C39.5884 23.6542 47.1115 22.6944 51.4255 22.6944C54.6762 22.6944 63.9202 23.0181 68.1947 22.6944C70.4964 24.3128 70.1676 29.048 70.1676 31.4333C70.1676 33.8185 74.6194 49.5445 43.5341 43.0845C40.6193 42.4788 36.4319 36.8699 39.5884 27.5491ZM2.11251 24.6367C6.3842 16.2219 16.1113 -0.0251811 20.8461 2.30507C25.581 4.63533 28.0799 6.51211 28.7375 7.15922" stroke="black"/>
    </svg>
    