<svg width="257" height="257" viewBox="0 0 257 257" fill="none" xmlns="http://www.w3.org/2000/svg">
    <g filter="url(#filter0_d_37_9)">
        <path d="M184.776 19.7212C201.304 28.6726 212.918 47.1821 222.298 67.0571C231.53 86.9321 238.379 108.173 240.464 132.144C242.399 156.115 239.421 182.969 226.169 203.299C212.918 223.781 189.392 237.588 166.313 236.981C143.234 236.222 120.899 221.05 96.6289 213.313C72.5076 205.424 46.5995 204.968 38.1123 191.162C29.7741 177.356 38.8568 150.198 34.8366 124.71C30.6675 99.2213 13.2465 75.4016 16.3734 57.9541C19.5002 40.6583 43.3238 29.8863 64.9138 23.3625C86.5039 16.8386 106.009 14.4111 126.408 12.894C146.807 11.3768 168.248 10.7699 184.776 19.7212Z" fill="white" />
    </g>
    <path d="M118.46 176.34C118.46 177.047 118.28 177.68 117.92 178.24C117.56 178.787 117.073 179.22 116.46 179.54C115.86 179.847 115.2 180 114.48 180H107.78V165.8H114.62C115.287 165.8 115.86 165.98 116.34 166.34C116.833 166.687 117.207 167.14 117.46 167.7C117.727 168.247 117.86 168.82 117.86 169.42C117.86 170.127 117.68 170.78 117.32 171.38C116.96 171.98 116.46 172.427 115.82 172.72C116.633 172.96 117.273 173.407 117.74 174.06C118.22 174.713 118.46 175.473 118.46 176.34ZM117.06 176.1C117.06 175.62 116.953 175.18 116.74 174.78C116.527 174.367 116.233 174.033 115.86 173.78C115.5 173.527 115.087 173.4 114.62 173.4H109.18V178.78H114.48C114.96 178.78 115.393 178.653 115.78 178.4C116.167 178.147 116.473 177.82 116.7 177.42C116.94 177.007 117.06 176.567 117.06 176.1ZM109.18 167.02V172.26H114.06C114.527 172.26 114.94 172.14 115.3 171.9C115.66 171.647 115.947 171.32 116.16 170.92C116.373 170.52 116.48 170.093 116.48 169.64C116.48 169.16 116.38 168.727 116.18 168.34C115.98 167.94 115.707 167.62 115.36 167.38C115.013 167.14 114.62 167.02 114.18 167.02H109.18ZM126.02 170.78C125.114 170.807 124.314 171.06 123.62 171.54C122.94 172.02 122.46 172.68 122.18 173.52V180H120.82V169.58H122.1V172.08C122.46 171.347 122.934 170.753 123.52 170.3C124.12 169.847 124.754 169.593 125.42 169.54C125.554 169.527 125.667 169.52 125.76 169.52C125.867 169.52 125.954 169.527 126.02 169.54V170.78ZM127.832 180V169.58H129.192V180H127.832ZM127.832 167.4V165.4H129.192V167.4H127.832ZM132.248 165.4H133.608V177.64C133.608 178.16 133.701 178.5 133.888 178.66C134.074 178.82 134.301 178.9 134.568 178.9C134.808 178.9 135.048 178.873 135.288 178.82C135.528 178.767 135.734 178.713 135.908 178.66L136.148 179.76C135.894 179.867 135.581 179.953 135.208 180.02C134.848 180.087 134.534 180.12 134.268 180.12C133.654 180.12 133.161 179.94 132.788 179.58C132.428 179.22 132.248 178.727 132.248 178.1V165.4ZM137.697 165.4H139.057V177.64C139.057 178.16 139.15 178.5 139.337 178.66C139.523 178.82 139.75 178.9 140.017 178.9C140.257 178.9 140.497 178.873 140.737 178.82C140.977 178.767 141.183 178.713 141.357 178.66L141.597 179.76C141.343 179.867 141.03 179.953 140.657 180.02C140.297 180.087 139.983 180.12 139.717 180.12C139.103 180.12 138.61 179.94 138.237 179.58C137.877 179.22 137.697 178.727 137.697 178.1V165.4ZM147.586 180.2C146.839 180.2 146.146 180.06 145.506 179.78C144.866 179.487 144.313 179.093 143.846 178.6C143.379 178.093 143.013 177.513 142.746 176.86C142.493 176.207 142.366 175.507 142.366 174.76C142.366 173.787 142.586 172.893 143.026 172.08C143.479 171.267 144.099 170.62 144.886 170.14C145.673 169.647 146.566 169.4 147.566 169.4C148.593 169.4 149.486 169.647 150.246 170.14C151.019 170.633 151.626 171.287 152.066 172.1C152.506 172.9 152.726 173.78 152.726 174.74C152.726 174.847 152.726 174.953 152.726 175.06C152.726 175.153 152.719 175.227 152.706 175.28H143.786C143.853 176.027 144.059 176.693 144.406 177.28C144.766 177.853 145.226 178.313 145.786 178.66C146.359 178.993 146.979 179.16 147.646 179.16C148.326 179.16 148.966 178.987 149.566 178.64C150.179 178.293 150.606 177.84 150.846 177.28L152.026 177.6C151.813 178.093 151.486 178.54 151.046 178.94C150.606 179.34 150.086 179.653 149.486 179.88C148.899 180.093 148.266 180.2 147.586 180.2ZM143.746 174.3H151.446C151.393 173.54 151.186 172.873 150.826 172.3C150.479 171.727 150.019 171.28 149.446 170.96C148.886 170.627 148.266 170.46 147.586 170.46C146.906 170.46 146.286 170.627 145.726 170.96C145.166 171.28 144.706 171.733 144.346 172.32C143.999 172.893 143.799 173.553 143.746 174.3Z" fill="black" />
    <path d="M166.674 99.5688C161.853 90.3737 151.87 72.2804 146.156 75.3453C141.331 77.9337 141.95 78.5524 141.948 79.7887" stroke="black" stroke-width="2" />
    <path d="M125.179 105.425H134.222M125.179 105.425C123.671 103.571 119.979 99.8617 117.266 99.8617C114.553 99.8617 101.063 99.8617 94.6569 99.8617C93.6615 100.188 92.3155 100.918 91.2749 102.087M125.179 105.425C126.988 111.656 125.179 121.36 120.657 123.229C119.972 123.832 110.701 125.069 101.439 124.341C87.9156 123.279 90.1361 115.179 90.1351 108.764C90.1347 105.607 89.952 103.575 91.2749 102.087M134.222 105.425C134.222 100.962 142.844 99.8617 147.787 99.8617C151.513 99.8617 162.106 100.233 167.005 99.8617C169.642 101.716 169.266 107.143 169.266 109.876C169.266 112.61 174.367 130.632 138.744 123.229C135.404 122.534 130.605 116.107 134.222 105.425ZM91.2749 102.087C96.1703 92.4442 107.317 73.8251 112.744 76.4956C118.17 79.166 121.033 81.3168 121.787 82.0584" stroke="black" stroke-width="2" />
    <defs>
        <filter id="filter0_d_37_9" x="0" y="0" width="257" height="257" filterUnits="userSpaceOnUse" color-interpolation-filters="sRGB">
            <feFlood flood-opacity="0" result="BackgroundImageFix" />
            <feColorMatrix in="SourceAlpha" type="matrix" values="0 0 0 0 0 0 0 0 0 0 0 0 0 0 0 0 0 0 127 0" result="hardAlpha" />
            <feOffset dy="4" />
            <feGaussianBlur stdDeviation="8" />
            <feComposite in2="hardAlpha" operator="out" />
            <feColorMatrix type="matrix" values="0 0 0 0 0.591667 0 0 0 0 0.591667 0 0 0 0 0.591667 0 0 0 0.25 0" />
            <feBlend mode="normal" in2="BackgroundImageFix" result="effect1_dropShadow_37_9" />
            <feBlend mode="normal" in="SourceGraphic" in2="effect1_dropShadow_37_9" result="shape" />
        </filter>
    </defs>
</svg>
    