<svg width="91" height="48" viewBox="0 0 91 48" fill="none" xmlns="http://www.w3.org/2000/svg">
<path d="M7.07741 20.2374C4.80629 19.9702 0.344203 19.9167 0.664831 21.8405C1.06562 24.2452 1.86645 26.249 5.87431 26.249" stroke="white"/>
<path d="M26.3904 3.18149C27.6484 25.5 26.6484 18.5935 26.6484 29.5C22.2854 18.5924 21.7632 15.4055 24.6451 5.363C24.6451 5.363 26.43 1.48559 26.3904 3.18149Z" fill="#BEE8FF"/>
<path d="M82.6473 12.7604C83.6484 32.5 82.5999 24.666 82.6484 34.5C78.6994 24.6457 78.565 23.7617 81.0968 14.7196C81.0968 14.7196 82.6753 11.2315 82.6473 12.7604Z" fill="#BEE8FF"/>
<path d="M13.3457 10.1319C13.3457 30.5001 13.2972 23.9143 13.3457 33.7483C9.39665 23.894 8.75688 21.144 11.2887 12.1019C11.2887 12.1019 13.3736 8.60298 13.3457 10.1319Z" fill="#BEE8FF"/>
<path d="M21.5048 6.60991C18.8329 5.80834 13.4891 5.80834 13.4891 12.2209C13.4891 18.6335 12.9547 31.7258 12.6875 37.4704C12.6875 39.2071 14.0502 42.6806 19.5009 42.6806" stroke="white"/>
<path d="M14.2911 10.0984C11.8621 9.48123 7.00409 9.48123 7.00409 14.419C7.00409 19.3567 6.51829 29.4379 6.27539 33.8612C6.27539 35.1985 7.51418 37.8731 12.4694 37.8731" stroke="white"/>
<path d="M66.3881 26.6501L26.7102 25.8485M26.7102 25.8485C26.7102 31.8598 24.8695 51.5576 21.5022 46.6889C17.8986 41.4787 21.5017 17.8314 21.5027 4.20521C20.7057 0.998473 26.7102 -0.202832 26.7102 5.00768C26.7102 12.2415 26.7102 21.0386 26.7102 25.8485Z" stroke="white"/>
<path d="M27.1162 21.0396L66.3932 21.8401M66.3932 21.8401C67.9964 3.00205 63.9885 1 70.4011 1C73.2066 1 71.9789 3.36203 72.2766 6.611M66.3932 21.8401C66.3932 42.2802 63.9885 48.6919 70.4011 45.8872C70.4858 45.1245 70.5724 43.9209 70.6597 43.0825M72.2766 6.611C74.0562 5.67583 77.6152 4.76739 77.6152 8.61493C77.6152 9.36414 77.6152 10.6219 77.6152 12.222M72.2766 6.611C73.074 15.3101 71.799 32.1461 70.6597 43.0825M77.6152 37.8723C77.5205 39.609 75.9966 43.0825 70.6597 43.0825M77.6152 37.8723C77.6152 31.3099 77.6152 18.8391 77.6152 12.222M77.6152 37.8723C81.8861 37.8723 82.8682 34.9332 82.8255 33.4637C82.8255 31.988 82.8255 30.0004 82.8255 27.8527M77.6152 12.222C79.352 11.6876 82.8255 11.4204 82.8255 14.6267C82.8255 16.1205 82.8255 19.2383 82.8255 22.6424M82.8255 22.6424C85.2302 22.2417 89.9594 22.0813 89.6388 24.6464C89.238 27.8527 88.0357 27.8527 82.8255 27.8527M82.8255 22.6424C82.8255 24.3636 82.8255 26.158 82.8255 27.8527" stroke="white"/>
</svg>
