<svg xmlns="http://www.w3.org/2000/svg" xmlns:xlink="http://www.w3.org/1999/xlink" version="1.1" id="Layer_1" x="0px" y="0px" viewBox="0 0 130 119" style="enable-background:new 0 0 130 119;" xml:space="preserve">
    <style type="text/css">
        .st0{fill:#FFFFFF;stroke:#000000;stroke-miterlimit:10;}
        .st1{fill:#FFFFFF;stroke:#000000;stroke-width:0.25;stroke-miterlimit:10;}
        .st2{stroke:#000000;stroke-width:0.25;stroke-miterlimit:10;}
        .st3{fill:#ACD4F7;stroke:#000000;stroke-width:0.25;stroke-miterlimit:10;}
        .st4{fill:#FFFFFF;}
        .st5{fill:#ACD4F7;}
        .st6{opacity:0.1294;}
        .st7{fill:#BEE8FF;}
        .st8{fill:none;stroke:#FFFFFF;stroke-width:2;stroke-miterlimit:10;}
        .st9{fill:none;stroke:#000000;stroke-width:1.0991;stroke-linecap:round;}
        .st10{fill:none;stroke:#000000;stroke-width:0.8833;stroke-miterlimit:10;}
    </style>
    <g>
        <path class="st4" d="M58.57,71.45c-0.15-0.06-0.28-0.15-0.39-0.26c0.05,0.18,0.09,0.35,0.14,0.53c0.1-0.03,0.2-0.06,0.3-0.09   c0.11-0.03,0.21-0.07,0.31-0.1C58.81,71.52,58.68,71.49,58.57,71.45z M58.57,71.45c-0.15-0.06-0.28-0.15-0.39-0.26   c0.05,0.18,0.09,0.35,0.14,0.53c0.1-0.03,0.2-0.06,0.3-0.09c0.11-0.03,0.21-0.07,0.31-0.1C58.81,71.52,58.68,71.49,58.57,71.45z    M58.57,71.45c-0.15-0.06-0.28-0.15-0.39-0.26c0.05,0.18,0.09,0.35,0.14,0.53c0.1-0.03,0.2-0.06,0.3-0.09   c0.11-0.03,0.21-0.07,0.31-0.1C58.81,71.52,58.68,71.49,58.57,71.45z M30.74,3.37c-0.13,0-0.23,0.1-0.24,0.24l-0.08,15.67   c0,0.13,0.1,0.24,0.23,0.24c0.14,0,0.24-0.11,0.24-0.24l0.09-15.67C30.98,3.48,30.88,3.37,30.74,3.37z M34.62,3.57   c0-0.13-0.1-0.24-0.23-0.24h-0.01c-0.13,0-0.23,0.11-0.23,0.25l0.27,15.15c0,0.13,0.11,0.24,0.24,0.24s0.24-0.11,0.24-0.25   L34.62,3.57z M39.12,3.3c0-0.13-0.11-0.23-0.24-0.23c-0.13,0-0.24,0.1-0.24,0.24l0.07,16.33c0,0.13,0.11,0.24,0.24,0.24   c0.13-0.01,0.24-0.11,0.24-0.24L39.12,3.3z M43.49,4.22c0-0.13-0.1-0.24-0.23-0.25c-0.14,0-0.24,0.1-0.25,0.23   c-0.18,4.65-0.18,9.36,0,14.01c0,0.13,0.11,0.23,0.24,0.23c0.14-0.01,0.24-0.12,0.23-0.25C43.3,13.55,43.31,8.85,43.49,4.22z    M47.38,3.71c-0.15,0-0.24,0.11-0.24,0.24l-0.22,15.08c0,0.13,0.1,0.24,0.23,0.24c0.01,0,0.01,0,0.01,0c0.13,0,0.23-0.1,0.24-0.23   l0.21-15.09C47.61,3.82,47.51,3.71,47.38,3.71z M50.4,5.66c0-0.13-0.11-0.24-0.24-0.24s-0.24,0.11-0.24,0.24l0.02,13.4   c0,0.13,0.11,0.24,0.24,0.24s0.24-0.11,0.24-0.24L50.4,5.66z M58.57,71.45c-0.15-0.06-0.28-0.15-0.39-0.26   c0.05,0.18,0.09,0.35,0.14,0.53c0.1-0.03,0.2-0.06,0.3-0.09c0.11-0.03,0.21-0.07,0.31-0.1C58.81,71.52,58.68,71.49,58.57,71.45z    M58.57,71.45c-0.15-0.06-0.28-0.15-0.39-0.26c0.05,0.18,0.09,0.35,0.14,0.53c0.1-0.03,0.2-0.06,0.3-0.09   c0.11-0.03,0.21-0.07,0.31-0.1C58.81,71.52,58.68,71.49,58.57,71.45z M82.19,99.48c-0.08-0.1-0.23-0.11-0.33-0.02   c-1,0.87-1.94,1.83-2.79,2.86c-0.08,0.1-0.07,0.25,0.03,0.33c0.05,0.04,0.1,0.06,0.15,0.06c0.07,0,0.14-0.03,0.19-0.09   c0.83-1,1.75-1.95,2.73-2.81C82.27,99.73,82.28,99.58,82.19,99.48z M88.05,100c-0.08-0.1-0.23-0.12-0.34-0.04   c-2.74,2.14-5.4,4.46-7.9,6.88c-0.1,0.1-0.1,0.25-0.01,0.34c0.05,0.05,0.11,0.07,0.17,0.07c0.06,0,0.12-0.02,0.17-0.06   c2.49-2.42,5.13-4.72,7.87-6.85C88.11,100.26,88.13,100.11,88.05,100z M94.09,99.75c-0.09-0.1-0.24-0.12-0.34-0.03   c-4.98,4.25-9.73,8.87-14.12,13.72c-0.09,0.09-0.08,0.24,0.02,0.33c0.04,0.04,0.1,0.06,0.16,0.06s0.13-0.02,0.17-0.07   c4.38-4.84,9.12-9.44,14.08-13.68C94.16,100,94.17,99.85,94.09,99.75z M58.57,71.45c-0.15-0.06-0.28-0.15-0.39-0.26   c0.05,0.18,0.09,0.35,0.14,0.53c0.1-0.03,0.2-0.06,0.3-0.09c0.11-0.03,0.21-0.07,0.31-0.1C58.81,71.52,58.68,71.49,58.57,71.45z    M98.72,90.63c-0.42-0.23-0.6-0.62-0.62-1.01c-0.42,0.05-0.85,0.07-1.27,0.11c-0.51,0.05-1.23,0.26-1.24-0.63   c0.01-0.09,0.03-0.17,0.08-0.24c-1.1,0.14-2.25,0.27-3.43,0.34c-0.38,0.03-0.68,0.35-0.67,0.74s0.33,0.69,0.72,0.69   c3.02,0,5.06,0.21,7.29,0.81c0.04-0.12,0.1-0.24,0.18-0.34C99.4,90.95,99.04,90.78,98.72,90.63z M100.07,75.26   c-0.01,0-0.02,0-0.03-0.01c-0.02-0.11-0.02-0.24-0.01-0.35h-1.48c-0.81,0.01-1.34-0.58-1.46-1.24c-0.43-0.19-0.68-0.74-0.44-1.19   c-2.09,0.26-4.06,0.51-6.49,1.06c-0.36,0.09-0.6,0.44-0.55,0.81c0.05,0.37,0.38,0.63,0.76,0.61c3.34-0.23,7.39-0.04,10.06,0.49   C100.32,75.37,100.2,75.32,100.07,75.26z M100.86,81.56c-0.13-0.06-0.24-0.16-0.32-0.27c-0.13,0.04-0.28,0.06-0.43,0.03   c-0.32-0.07-0.51-0.41-0.47-0.72c-2.07,0.46-4.82,0.71-7.99,0.71c-0.39,0-0.71,0.32-0.71,0.71c0,0.4,0.32,0.72,0.71,0.72   c0.78,0,1.5-0.01,2.16-0.01c2.84-0.01,4.74-0.02,6.42,0.21c0.04-0.29,0.22-0.55,0.54-0.66c0.03-0.01,0.06-0.02,0.09-0.02   c0-0.01,0.01-0.02,0.01-0.03C100.77,82.02,100.76,81.77,100.86,81.56z M101.96,88.94c-0.25-0.06-0.44-0.21-0.57-0.41v-0.01   c-0.03-0.04-0.05-0.09-0.07-0.14c-0.19,0.12-0.39,0.23-0.58,0.34c0.07,0.02,0.15,0.04,0.26,0.06c0,0,0.01,0,0.02,0   c0.11,0,0.22,0.01,0.32,0.05c0.22,0.05,0.42,0.17,0.6,0.33l0.01,0.01c0-0.01,0.01-0.02,0.01-0.02c0.06-0.07,0.12-0.13,0.19-0.19   C102.09,88.97,102.02,88.96,101.96,88.94z M102.48,81.22c-0.06,0.03-0.13,0.06-0.19,0.09c-0.01,0-0.03,0.01-0.04,0.01   s-0.01,0.01-0.02,0.01c-0.03,0.01-0.07,0.03-0.11,0.05c0.09,0.11,0.15,0.24,0.18,0.38c0.05,0.01,0.1,0.02,0.15,0.04   c-0.02-0.19,0.01-0.38,0.06-0.58c0-0.01,0-0.01,0.01-0.02C102.51,81.21,102.49,81.21,102.48,81.22z M104.31,77.24   c0.13,0.56,0.11,1.14-0.04,1.68c0.09-0.16,0.16-0.33,0.2-0.51C104.56,77.99,104.49,77.6,104.31,77.24z M104.82,87.05   c0.04-0.06,0.08-0.12,0.12-0.19c0.22-0.37,0.3-0.8,0.27-1.23C105.18,86.12,105.04,86.61,104.82,87.05z M114.27,47.67   c-0.76-0.05-1.52-0.2-2.28-0.35c-0.01,0.02-0.02,0.05-0.03,0.08c-0.03,0.11-0.06,0.23-0.1,0.35c0.73,0.05,1.46,0.1,2.17,0.15   c-0.04,0.04-0.06,0.1-0.08,0.15c-1.77,5.15-4.12,10.1-7,14.71c-0.2,0.32-0.41,0.65-0.61,0.98c-0.51,0.8-1.03,1.63-1.51,2.47   c-0.16,0.28-0.32,0.56-0.47,0.84c-0.08,0.14-0.17,0.28-0.24,0.42c-0.03,0.04-0.06,0.07-0.09,0.1c-0.07,0.09-0.16,0.17-0.27,0.23   c-0.08,0.05-0.16,0.08-0.24,0.11c0.31,0.76,0.39,1.62,0.17,2.39c-0.29,0.77-0.33,0.89-0.64,1.15c-0.11,0.09-0.24,0.2-0.42,0.34   l-0.01,0.01l-0.01,0.01c-0.09,0.05-0.18,0.11-0.26,0.16c0.07,0.02,0.14,0.03,0.2,0.06c0.28,0.08,0.53,0.22,0.73,0.42   c0.11-0.24,0.23-0.48,0.38-0.7c0.03-0.04,0.06-0.09,0.1-0.13c0.21-0.31,0.47-0.62,0.58-0.99c0.15-0.49,0.04-1-0.07-1.58   c-0.05-0.29-0.1-0.61-0.11-0.94c0.07-0.07,0.13-0.14,0.19-0.21c0.31-0.32,0.6-0.64,0.87-0.98c0.01,0,0.02-0.01,0.03-0.03   c0.25-0.27,0.48-0.56,0.7-0.84c1.81-2.3,3.26-4.86,4.5-7.54c0.03-0.05,0.05-0.1,0.07-0.15c0.25-0.55,0.49-1.11,0.73-1.67   c0.01,0,0.01-0.01,0.01-0.02c0.56-1.33,1.08-2.69,1.57-4.05c0,0,0,0,0-0.01c0.57-1.56,1.1-3.13,1.62-4.68   c0.03-0.08,0.05-0.16,0.08-0.24C114.44,47.69,114.36,47.68,114.27,47.67z M58.18,71.19c0.05,0.18,0.09,0.35,0.14,0.53   c0.1-0.03,0.2-0.06,0.3-0.09c0.11-0.03,0.21-0.07,0.31-0.1c-0.12-0.01-0.25-0.04-0.36-0.08C58.42,71.39,58.29,71.3,58.18,71.19z    M101.01,110.73c-0.1-0.09-0.25-0.08-0.33,0.02l-1.13,1.26v0.01l-3.28,3.67c-0.09,0.1-0.08,0.25,0.02,0.34   c0.04,0.04,0.1,0.06,0.16,0.06s0.13-0.03,0.17-0.08l2.95-3.3l1.46-1.64C101.12,110.97,101.11,110.82,101.01,110.73z M99.62,105.33   c-0.04-0.04-0.09-0.06-0.14-0.06c-0.07-0.01-0.15,0.02-0.2,0.07l-9.33,9.79c-0.09,0.09-0.09,0.24,0.01,0.34   c0.04,0.04,0.1,0.06,0.16,0.06c0.07,0,0.13-0.02,0.18-0.07l9.2-9.65l0.13-0.14C99.72,105.57,99.72,105.42,99.62,105.33z    M99.22,100.56c-0.03-0.03-0.07-0.06-0.11-0.07c-0.08-0.02-0.17-0.01-0.23,0.05c-5.23,4.6-10.15,9.64-14.64,14.97   c-0.08,0.1-0.07,0.25,0.03,0.34c0.04,0.04,0.1,0.05,0.15,0.05c0.07,0,0.14-0.02,0.19-0.08c4.46-5.31,9.37-10.33,14.59-14.92   C99.29,100.81,99.3,100.66,99.22,100.56z M58.57,71.45c-0.15-0.06-0.28-0.15-0.39-0.26c0.05,0.18,0.09,0.35,0.14,0.53   c0.1-0.03,0.2-0.06,0.3-0.09c0.11-0.03,0.21-0.07,0.31-0.1C58.81,71.52,58.68,71.49,58.57,71.45z M58.57,71.45   c-0.15-0.06-0.28-0.15-0.39-0.26c0.05,0.18,0.09,0.35,0.14,0.53c0.1-0.03,0.2-0.06,0.3-0.09c0.11-0.03,0.21-0.07,0.31-0.1   C58.81,71.52,58.68,71.49,58.57,71.45z M58.57,71.45c-0.15-0.06-0.28-0.15-0.39-0.26c0.05,0.18,0.09,0.35,0.14,0.53   c0.1-0.03,0.2-0.06,0.3-0.09c0.11-0.03,0.21-0.07,0.31-0.1C58.81,71.52,58.68,71.49,58.57,71.45z M58.57,71.45   c-0.15-0.06-0.28-0.15-0.39-0.26c0.05,0.18,0.09,0.35,0.14,0.53c0.1-0.03,0.2-0.06,0.3-0.09c0.11-0.03,0.21-0.07,0.31-0.1   C58.81,71.52,58.68,71.49,58.57,71.45z M58.57,71.45c-0.15-0.06-0.28-0.15-0.39-0.26c0.05,0.18,0.09,0.35,0.14,0.53   c0.1-0.03,0.2-0.06,0.3-0.09c0.11-0.03,0.21-0.07,0.31-0.1C58.81,71.52,58.68,71.49,58.57,71.45z"/>
        <g>
            <path class="st4" d="M88.01,100.34c-2.74,2.13-5.38,4.43-7.87,6.85c-0.05,0.04-0.11,0.06-0.17,0.06c-0.06,0-0.12-0.02-0.17-0.07    c-0.09-0.09-0.09-0.24,0.01-0.34c2.5-2.42,5.16-4.74,7.9-6.88c0.11-0.08,0.26-0.06,0.34,0.04    C88.13,100.11,88.11,100.26,88.01,100.34z"/>
        </g>
        <g>
            <path class="st4" d="M94.06,100.08c-4.96,4.24-9.7,8.84-14.08,13.68c-0.04,0.05-0.11,0.07-0.17,0.07s-0.12-0.02-0.16-0.06    c-0.1-0.09-0.11-0.24-0.02-0.33c4.39-4.85,9.14-9.47,14.12-13.72c0.1-0.09,0.25-0.07,0.34,0.03    C94.17,99.85,94.16,100,94.06,100.08z"/>
        </g>
        <g>
            <path class="st4" d="M99.2,100.9c-5.22,4.59-10.13,9.61-14.59,14.92c-0.05,0.06-0.12,0.08-0.19,0.08c-0.05,0-0.11-0.01-0.15-0.05    c-0.1-0.09-0.11-0.24-0.03-0.34c4.49-5.33,9.41-10.37,14.64-14.97c0.06-0.06,0.15-0.07,0.23-0.05c0.04,0.01,0.08,0.04,0.11,0.07    C99.3,100.66,99.29,100.81,99.2,100.9z"/>
        </g>
        <g>
            <path class="st4" d="M99.63,105.67l-0.13,0.14l-9.2,9.65c-0.05,0.05-0.11,0.07-0.18,0.07c-0.06,0-0.12-0.02-0.16-0.06    c-0.1-0.1-0.1-0.25-0.01-0.34l9.33-9.79c0.05-0.05,0.13-0.08,0.2-0.07c0.05,0,0.1,0.02,0.14,0.06    C99.72,105.42,99.72,105.57,99.63,105.67z"/>
        </g>
        <g>
            <path class="st4" d="M101.03,111.07l-1.46,1.64l-2.95,3.3c-0.04,0.05-0.11,0.08-0.17,0.08s-0.12-0.02-0.16-0.06    c-0.1-0.09-0.11-0.24-0.02-0.34l3.28-3.67v-0.01l1.13-1.26c0.08-0.1,0.23-0.11,0.33-0.02    C101.11,110.82,101.12,110.97,101.03,111.07z"/>
        </g>
        <g>
            <path class="st4" d="M82.17,99.81c-0.98,0.86-1.9,1.81-2.73,2.81c-0.05,0.06-0.12,0.09-0.19,0.09c-0.05,0-0.1-0.02-0.15-0.06    c-0.1-0.08-0.11-0.23-0.03-0.33c0.85-1.03,1.79-1.99,2.79-2.86c0.1-0.09,0.25-0.08,0.33,0.02C82.28,99.58,82.27,99.73,82.17,99.81    z"/>
        </g>
        <g>
            <path class="st4" d="M30.98,3.61l-0.09,15.67c0,0.13-0.1,0.24-0.24,0.24c-0.13,0-0.23-0.11-0.23-0.24L30.5,3.61    c0.01-0.14,0.11-0.24,0.24-0.24C30.88,3.37,30.98,3.48,30.98,3.61z"/>
        </g>
        <g>
            <path class="st4" d="M34.9,18.72c0,0.14-0.11,0.25-0.24,0.25s-0.24-0.11-0.24-0.24L34.15,3.58c0-0.14,0.1-0.25,0.23-0.25h0.01    c0.13,0,0.23,0.11,0.23,0.24L34.9,18.72z"/>
        </g>
        <g>
            <path class="st4" d="M39.19,19.64c0,0.13-0.11,0.23-0.24,0.24c-0.13,0-0.24-0.11-0.24-0.24L38.64,3.31c0-0.14,0.11-0.24,0.24-0.24    c0.13,0,0.24,0.1,0.24,0.23L39.19,19.64z"/>
        </g>
        <g>
            <path class="st4" d="M43.48,18.19c0.01,0.13-0.09,0.24-0.23,0.25c-0.13,0-0.24-0.1-0.24-0.23c-0.18-4.65-0.18-9.36,0-14.01    c0.01-0.13,0.11-0.23,0.25-0.23c0.13,0.01,0.23,0.12,0.23,0.25C43.31,8.85,43.3,13.55,43.48,18.19z"/>
        </g>
        <g>
            <path class="st4" d="M47.61,3.95L47.4,19.04c-0.01,0.13-0.11,0.23-0.24,0.23c0,0,0,0-0.01,0c-0.13,0-0.23-0.11-0.23-0.24    l0.22-15.08c0-0.13,0.09-0.24,0.24-0.24C47.51,3.71,47.61,3.82,47.61,3.95z"/>
        </g>
        <g>
            <path class="st4" d="M50.42,19.06c0,0.13-0.11,0.24-0.24,0.24s-0.24-0.11-0.24-0.24l-0.02-13.4c0-0.13,0.11-0.24,0.24-0.24    s0.24,0.11,0.24,0.24L50.42,19.06z"/>
        </g>
        <g>
            <path class="st7" d="M121.53,21.83c-6.59,0.68-13.23,0.91-19.85,0.67c0.78,8.06,1.35,16.13,1.71,24.22    c6.23,0.39,12.46,0.78,18.69,1.17C122.57,39.39,122.48,30.85,121.53,21.83z"/>
        </g>
        <g class="st6">
            <path d="M99.22,100.56c0.08,0.1,0.07,0.25-0.02,0.34c-0.04-0.08-0.05-0.18-0.06-0.27c-0.01-0.05-0.02-0.09-0.03-0.14    C99.15,100.5,99.19,100.53,99.22,100.56z"/>
            <path d="M99.63,105.67l-0.13,0.14c-0.01-0.18-0.01-0.36-0.02-0.54c0.05,0,0.1,0.02,0.14,0.06    C99.72,105.42,99.72,105.57,99.63,105.67z"/>
            <path d="M101.01,110.73c0.1,0.09,0.11,0.24,0.02,0.34l-1.46,1.64c-0.01-0.23-0.02-0.45-0.02-0.69v-0.01l1.13-1.26    C100.76,110.65,100.91,110.64,101.01,110.73z"/>
            <path d="M102.67,96.42c-0.13,0.22-0.27,0.43-0.44,0.6c0.01,0.02,0.02,0.04,0.03,0.06c0.02,0.02,0.02,0.04,0.03,0.06    c0.2,0.52,0.03,1.13,0.08,1.68c-0.13,0.61,0.01,0.54-0.18,1.21c0.06,0.48,0.12,0.95,0.17,1.42c0.61,4.3,0.45,8.64,0.69,12.95    c0.04,0.75,0.07,1.62-0.48,2.2c-0.07,0.08-0.14,0.13-0.22,0.2h-0.01c-0.23-0.07-0.42-0.25-0.49-0.48c0.27-0.1,0.53-0.21,0.79-0.33    c0,0-0.71-14.81-0.74-18.75c0-0.57,0.01-0.91,0.04-0.95c0.13-0.13,0.25-0.27,0.37-0.42c0.65-0.76,1.2-1.67,0.92-2.58    c-0.26-0.86-1.19-1.42-1.6-2.17c-0.11-0.19-0.19-0.4-0.21-0.63c0-0.01,0-0.01,0-0.02c-0.04-0.49,0.18-0.93,0.53-1.3    c0.41,0.41,0.45,1.08,0.18,1.56c-0.04,0.08-0.09,0.15-0.15,0.22c0.08,0.06,0.17,0.13,0.25,0.21c0.05,0.04,0.11,0.09,0.16,0.14    c1.21,1.24,1.33,3.27,0.52,4.75C102.83,96.17,102.76,96.29,102.67,96.42z"/>
            <path d="M103.29,80.63c-0.22,0.23-0.48,0.42-0.77,0.56c0.11-0.35,0.32-0.68,0.57-0.94l0.05-0.05c0.38-0.42,0.84-0.79,1.12-1.26    C104.1,79.58,103.76,80.17,103.29,80.63z"/>
            <path d="M104.81,87.06c-0.28,0.54-0.68,1-1.19,1.34c-0.27,0.13-0.54,0.31-0.83,0.44c-0.21,0.08-0.42,0.14-0.64,0.12    c0.19-0.17,0.41-0.33,0.63-0.46c0.03-0.02,0.06-0.04,0.09-0.06C103.56,88.03,104.34,87.69,104.81,87.06z"/>
            <path d="M102.63,75.51c0.01-0.06,0.01-0.12,0.02-0.18c0.03-0.23,0.05-0.47,0.09-0.7c0.08-0.62,0.19-1.23,0.4-1.81    c0.04-0.13,0.09-0.25,0.14-0.37c0.06,0.06,0.12,0.14,0.17,0.22h0.01c0.01,0.02,0.03,0.04,0.04,0.07c0.5,0.76,0.23,1.62-0.35,2.07    c-0.09,0.08-0.2,0.14-0.31,0.19c0.16,0.12,0.31,0.26,0.45,0.4c0.29,0.29,0.52,0.61,0.69,0.97c0.15,0.27,0.26,0.56,0.32,0.86    C103.96,76.55,103.28,75.97,102.63,75.51z"/>
            <path d="M105.21,85.63c-0.02-0.5-0.2-1.01-0.47-1.44c-0.5-0.79-1.28-1.35-2.07-1.85c-0.03-0.04-0.06-0.08-0.08-0.13    c-0.06-0.08-0.09-0.17-0.11-0.26c-0.02-0.05-0.03-0.1-0.03-0.15c0.2,0.05,0.39,0.12,0.58,0.21c0.13,0.07,0.26,0.14,0.39,0.23    c0.49,0.31,0.93,0.75,1.25,1.23C105.12,84.11,105.28,84.88,105.21,85.63z"/>
            <path d="M114.79,47.59v0.01c0.01,0.12,0.01,0.23,0,0.35c-0.07,0.69-0.52,1.35-0.72,2.01c-0.33,0.93-0.76,1.8-1.24,2.65    c0,0.01,0,0.01,0,0.01c-0.61,1.1-1.3,2.15-1.97,3.22c0.17,0.12,0.31,0.31,0.36,0.54c0.03,0.1,0.04,0.2,0.04,0.29    c0,0.01,0,0.02-0.01,0.02c-0.02,0.47-0.37,0.91-0.55,1.34c-0.06,0.11-0.11,0.22-0.18,0.33c-0.02,0.05-0.04,0.1-0.07,0.15    c-0.81,1.54-1.74,3.02-2.64,4.52c-0.61,1.02-1.23,2.03-1.86,3.02c-0.09,0.15-0.44,0.61-0.49,0.67c-0.06,0.07-0.13,0.13-0.21,0.17    c-0.01,0.02-0.02,0.03-0.03,0.03c-0.1,0.06-0.2,0.1-0.3,0.14c-0.18,0.06-0.37,0.05-0.56-0.01c0.15-0.28,0.31-0.56,0.47-0.84    c0.48-0.84,1-1.67,1.51-2.47c0.2-0.33,0.41-0.66,0.61-0.98c2.88-4.61,5.23-9.56,7-14.71c0.02-0.05,0.04-0.11,0.08-0.15    c-0.71-0.05-1.44-0.1-2.17-0.15c0.04-0.12,0.07-0.24,0.1-0.35c0.01-0.03,0.02-0.06,0.03-0.08c0-0.02,0.01-0.04,0.02-0.06    c0.17-0.5,0.58-0.78,1.02-0.87c0.29-0.06,0.59-0.04,0.86,0.06c0.42,0.15,0.77,0.48,0.86,0.98    C114.77,47.48,114.78,47.53,114.79,47.59z"/>
        </g>
        <g class="st6">
            <path d="M51.12,53.29c-0.97,0.19-1.94,0.36-2.92,0.5c-0.1-0.92,0.81-1.84,1.79-1.54C50.5,52.41,50.84,52.82,51.12,53.29z"/>
            <path d="M61.48,101.72c3.65,2.27,7.5,4.21,11.51,5.79c-0.1,0.3-0.35,0.55-0.67,0.57c-0.02,0-0.04,0.01-0.06,0.01    c-0.1,0.02-0.21,0-0.31-0.03c-0.65-0.24-1.31-0.48-1.95-0.76c-1.64-0.7-3.26-1.44-4.82-2.29c-1.5-0.87-3.01-1.71-4.42-2.72    c-0.6-0.46-1.19-0.93-1.77-1.4c-0.72-0.59-1.44-1.17-2.17-1.75c-0.07-0.06-0.14-0.11-0.21-0.17c-0.09-0.09-0.16-0.18-0.21-0.29    c-0.19-0.36-0.15-0.8,0.06-1.14c0.01-0.02,0.03-0.04,0.05-0.06c0-0.01,0.01-0.02,0.02-0.03c0.01-0.01,0.02-0.03,0.03-0.04    c0-0.01,0.01-0.02,0.02-0.03c0-0.01,0.01-0.02,0.02-0.03c0.2-0.23,0.49-0.37,0.83-0.36c0.01-0.01,0.03,0,0.04,0    c0.11-0.42,0.23-0.91,0.35-1.45c0-0.01,0.01-0.01,0.01-0.02c0.04-0.18,0.08-0.37,0.12-0.56c0.01-0.04,0.01-0.07,0.02-0.11    c0.37-1.76,0.69-3.85,0.72-5.52c0.17-4.83,0.11-8.27-0.44-11.66c0-0.03,0-0.06-0.01-0.09c-0.19-1.51-0.45-2.99-0.77-4.46    c-0.1-0.07-0.17-0.19-0.21-0.32c-0.05-0.17-0.04-0.35,0.03-0.5c-0.96-4.33-2.36-8.67-3.97-13.66c-0.31-0.97-0.63-1.96-0.95-2.98    c0.92,1.99,1.6,4.08,2.31,6.15c0.82,2.1,1.48,3.46,2.19,5.31c0.01,0.02,0.01,0.04,0.02,0.06c0.29,0.75,0.58,1.59,0.89,2.58    c0.14,0.47,0.27,0.95,0.4,1.43c0.05,0.18,0.09,0.35,0.14,0.53c0.06,0.23,0.11,0.45,0.17,0.68c0.09-0.04,0.18-0.07,0.27-0.1    c0.51-0.13,1.07-0.05,1.5,0.3c-0.44,0.15-0.89,0.29-1.34,0.43c1.38,6.6,1.75,13.33,0.39,22.47c-0.11,0.78-1.29,2.55-2.32,3.49    c1.19,0.64,2.37,1.38,3.51,2.11C60.83,101.31,61.16,101.51,61.48,101.72z"/>
            <path d="M76.48,108.19c-0.02,0.05-0.05,0.1-0.07,0.14c0.02,0.16,0.02,0.33-0.01,0.5c-0.01,0.13-0.05,0.26-0.12,0.39    c-0.05,0.12-0.13,0.25-0.22,0.35h-0.01c-0.15,0.18-0.35,0.32-0.6,0.39c-0.04,0.02-0.07,0.03-0.11,0.04    c-0.08-0.06-0.13-0.1-0.2-0.15c-0.01,0-0.02-0.01-0.02-0.01c-0.03-0.03-0.07-0.05-0.1-0.07c-0.38-0.26-0.78-0.5-1.19-0.68    c-0.1-0.05-0.2-0.1-0.31-0.14c-0.03-0.12-0.05-0.23-0.05-0.36c0-0.28,0.06-0.56,0.2-0.81c0.83,0.33,1.67,0.64,2.52,0.93    c0.04,0.01,0.08,0.03,0.12,0.07c0.03-0.35,0.05-0.72,0.07-1.08C76.49,107.82,76.53,107.98,76.48,108.19z"/>
        </g>
        <g class="st6">
            <path d="M52.57,96.19c-0.07-0.31-0.25-0.61-0.52-0.78c-0.06-0.05-0.12-0.09-0.19-0.13c0.08-0.52-0.03-1.08,0.01-1.6    c0-0.38,0.06-0.82-0.25-1.11c-0.51-0.54-1.5-0.13-1.48,0.61c0.04,0.66-0.06,1.36,0.01,2.02c-0.22,0.29-0.26,0.73,0.09,1.17    c0.03,0.03,0.05,0.06,0.08,0.09c0,0,0,0,0,0.01c0,0.02,0,0.04,0,0.07C50.42,98.27,52.98,97.89,52.57,96.19z"/>
        </g>
        <g class="st6">
            <path d="M44.9,96.75v0.01c-0.13,0.23-0.33,0.43-0.59,0.56v0.01c0,0-0.01,0-0.02,0.01h-0.01c-0.18,0.09-0.39,0.14-0.63,0.15h-0.04    c-0.21-0.01-0.4-0.04-0.56-0.11c-0.01,0-0.01,0-0.01,0c-0.08-0.03-0.16-0.07-0.23-0.12v-0.01c-0.22-0.12-0.39-0.31-0.49-0.52    c-0.47-0.88-0.04-2.21,1.29-2.24c0.23,0.01,0.43,0.05,0.61,0.13C45.07,94.98,45.3,96.02,44.9,96.75z"/>
        </g>
        <g class="st6">
            <path d="M35.31,95.31c-0.18,0.08-0.39,0.13-0.63,0.14c-0.06,0-0.12-0.01-0.17-0.02c-0.65-0.07-1.05-0.47-1.22-0.95    c-0.2-0.56-0.07-1.25,0.39-1.65c0.24-0.23,0.57-0.37,1-0.38C36.41,92.49,36.62,94.74,35.31,95.31z"/>
        </g>
        <g class="st6">
            <path class="st4" d="M55.45,10.45c-0.01,0.14-0.03,0.28-0.04,0.41c-0.53-0.2-1.06-0.39-1.59-0.57c-0.05-0.02-0.09-0.03-0.13-0.06    c-0.23,3.4-0.49,7.25-0.75,10.3c0.41-0.01,0.72,0.29,0.73,0.69c0,0.05,0,0.09-0.01,0.14v0.01c-0.25,0.11-0.54,0.14-0.81,0.09    c-0.43-0.09-0.82-0.38-0.96-0.9c-0.05-0.16-0.07-0.34-0.07-0.54c0-0.55,0.3-1.02,0.36-1.56c0.34-2.14,0.62-5.07,0.85-8.05    c-0.01-0.26,0.07-0.49,0.2-0.67c0.03-0.04,0.06-0.09,0.1-0.12c0.12-0.13,0.26-0.23,0.42-0.29c0.58-0.25,1.34-0.09,1.6,0.62    C55.44,10.1,55.45,10.27,55.45,10.45z"/>
        </g>
        <g>
            <g>
                <path class="st4" d="M103.7,46.74c-0.01-0.06-0.01-0.11-0.01-0.17v-0.06c-0.01-0.28-0.02-0.56-0.03-0.83     c-0.15-4.52-0.25-7.03-0.35-9.55c-0.11-2.77-0.21-5.54-0.4-11.03c-0.02-0.51-0.04-1.31-0.24-2.13c-0.03-0.15-0.08-0.3-0.13-0.45     c-0.01-0.05-0.03-0.09-0.04-0.13h-0.01c-0.09-0.28-0.22-0.56-0.38-0.81c-0.01,0-0.01,0-0.01,0c-0.37-0.62-0.94-1.13-1.79-1.38     c-1.31-0.37-3.23,0.18-4.06,1.36c-0.12,0.17-0.22,0.36-0.29,0.56c-0.06,0.17-0.12,0.34-0.16,0.5c-0.05,0.13-0.09,0.25-0.13,0.37     c-0.26,0.83-0.48,1.61-0.64,2.39c-0.17-0.93-0.35-1.77-0.51-2.5c-0.03-0.14-0.06-0.28-0.09-0.41s-0.05-0.25-0.08-0.37l-0.12-0.55     c-0.01-0.02-0.01-0.05-0.02-0.07c-0.39-1.71-1.97-3.03-3.69-3.1c-2.16-0.07-2.8,1.69-3.11,2.63c-0.01,0.04-0.02,0.07-0.03,0.1     c-0.09,0.26-0.17,0.52-0.23,0.78c-0.05,0.17-0.09,0.35-0.13,0.52c-0.04,0.18-0.08,0.37-0.12,0.56c-0.06-0.19-0.12-0.39-0.19-0.57     c-0.07-0.2-0.14-0.4-0.22-0.59c-0.12-0.29-0.25-0.56-0.39-0.8c-0.19-0.37-0.41-0.69-0.66-0.97c-1.37-1.56-3.66-0.82-4.57-0.08     c-0.17,0.14-0.33,0.32-0.48,0.54c-0.14,0.2-0.26,0.42-0.38,0.67c-0.1,0.23-0.19,0.47-0.28,0.73c-0.38,1.1-0.63,2.5-0.8,4     c-0.16-1.21-0.35-2.49-0.62-3.93c-0.01-0.07-0.03-0.14-0.05-0.21c-0.05-0.24-0.12-0.46-0.19-0.65c-0.13-0.31-0.29-0.57-0.47-0.78     c-0.72-0.85-1.82-0.93-2.87-0.93c-0.12-0.01-0.24-0.01-0.35-0.01h-0.29c-0.17,0-0.36,0.08-0.58,0.22     c-0.16,0.1-0.32,0.23-0.49,0.4h-0.01c-1.03,0.94-2.21,2.71-2.32,3.49c-1.36,9.14-0.98,15.87,0.39,22.48     c0.1,0.45,0.19,0.89,0.29,1.33c0.01,0.02,0.02,0.05,0.02,0.07c0.98,4.26,2.35,8.53,3.93,13.42c0.55,1.69,1.12,3.44,1.7,5.31v0.01     c0.04,0.13,0.08,0.26,0.12,0.4c0.1,0.3,0.38,0.5,0.69,0.5c0.07,0,0.14-0.01,0.21-0.03c0.38-0.12,0.59-0.52,0.47-0.9     c-0.03-0.09-0.06-0.18-0.09-0.27c-0.6-1.92-1.18-3.72-1.73-5.45c-1.61-4.99-3.01-9.32-3.97-13.66c-0.07-0.27-0.13-0.55-0.18-0.82     c-1.39-6.54-1.77-13.18-0.43-22.18c0.1-0.66,1.57-2.51,2.12-2.89h0.16c1.73,0,2.26,0.06,2.51,1.41c0.38,2,0.59,3.69,0.8,5.32     c0.26,2.1,0.52,4.08,1.07,6.53c0.09,0.37,0.43,0.61,0.8,0.55c0.37-0.05,0.64-0.38,0.61-0.76c-0.34-5.05,0.28-11.74,1.59-12.8     c0.44-0.36,1.87-0.91,2.6-0.08c1.36,1.55,2.17,5.88,2.17,11.6c0,0.39,0.32,0.71,0.72,0.71c0.39,0,0.72-0.32,0.72-0.71     c0-0.78-0.01-1.5-0.01-2.17c-0.02-4.27-0.02-6.42,0.77-8.86c0.49-1.52,0.98-1.78,1.72-1.75c1.1,0.04,2.14,0.94,2.37,2.04     l0.12,0.55c0.47,2.15,1.26,5.75,1.49,9.6c0.02,0.39,0.35,0.7,0.74,0.67c0.38-0.01,0.69-0.33,0.69-0.71c0-3.93,0.35-6.2,1.44-9.37     c0.25-0.7,1.7-1.27,2.61-1.01c1.28,0.37,1.51,1.93,1.56,3.57c0.19,5.49,0.29,8.27,0.4,11.04c0.11,2.77,0.22,5.54,0.4,11.03     c0.02,0.39,0.35,0.72,0.74,0.69c0.4-0.01,0.71-0.35,0.69-0.74v-0.05C103.7,46.99,103.7,46.86,103.7,46.74z"/>
            </g>
            <g>
                <path class="st4" d="M78.59,97.64c-0.02,0.26-0.05,0.52-0.07,0.79c-0.32,3.52-0.63,8.17-0.88,11.96     c-0.18,2.67-0.32,4.77-0.41,5.78c-0.03,0.37-0.34,0.65-0.71,0.65h-0.07c-0.14-0.02-0.27-0.07-0.38-0.15     c-0.18-0.15-0.29-0.38-0.26-0.63c0.09-0.99,0.23-3.19,0.4-5.75c0.01-0.08,0.01-0.16,0.02-0.24v-0.01     c0.01-0.13,0.01-0.26,0.02-0.4s0.02-0.28,0.03-0.42c0.01-0.14,0.02-0.29,0.03-0.44c0.03-0.35,0.05-0.72,0.07-1.08     c0.22-3.12,0.46-6.49,0.7-9.22c0.02-0.33,0.05-0.66,0.08-0.97c0.02-0.19,0.11-0.36,0.25-0.47c0.14-0.13,0.33-0.2,0.53-0.18     c0.14,0.02,0.26,0.07,0.37,0.15C78.5,97.16,78.61,97.39,78.59,97.64z"/>
            </g>
            <g>
                <path class="st4" d="M115.3,48.52c-1.8,5.24-4.2,10.29-7.13,14.99c-0.21,0.33-0.41,0.66-0.62,1c-0.87,1.37-1.76,2.78-2.46,4.18     c-0.06,0.12-0.14,0.21-0.24,0.27c-0.12,0.08-0.26,0.12-0.4,0.12c-0.06,0-0.12-0.01-0.18-0.03c-0.04,0-0.09-0.02-0.14-0.04     c-0.35-0.18-0.49-0.61-0.32-0.96c0.08-0.15,0.16-0.31,0.24-0.46c0.02-0.04,0.04-0.08,0.07-0.12c0.66-1.26,1.45-2.52,2.22-3.73     c0.2-0.33,0.41-0.66,0.61-0.98c2.88-4.61,5.23-9.56,7-14.71c0.02-0.05,0.04-0.11,0.08-0.15c0.06-0.1,0.14-0.18,0.24-0.23     c0.15-0.09,0.34-0.12,0.52-0.08c0.02,0,0.05,0.01,0.07,0.02c0.19,0.06,0.33,0.2,0.41,0.37C115.35,48.14,115.36,48.33,115.3,48.52     z"/>
            </g>
            <g>
                <path class="st4" d="M103.25,116.08c0.01,0.4-0.29,0.73-0.69,0.74h-0.03c-0.06,0-0.12-0.01-0.18-0.02h-0.01     c-0.23-0.07-0.42-0.25-0.49-0.48c-0.02-0.06-0.03-0.12-0.03-0.19c-0.09-2.56-0.19-6.25-0.28-9.81c-0.09-3.16-0.18-6.42-0.25-8.9     c-0.02-0.31-0.03-0.61-0.04-0.9c-0.01-0.39,0.3-0.73,0.69-0.74c0.14,0,0.26,0.03,0.37,0.09c0.2,0.11,0.34,0.31,0.36,0.55     c0.01,0.02,0.01,0.03,0.01,0.05c0,0.12,0.01,0.25,0.02,0.38c0.08,2.54,0.17,6.04,0.27,9.43     C103.06,109.84,103.16,113.53,103.25,116.08z"/>
            </g>
            <g>
                <path class="st4" d="M101.97,91.21c-0.37,0-0.69-0.29-0.71-0.67c-0.04-0.67,0-1.35,0.13-2.01c0.08-0.39,0.45-0.64,0.84-0.56     c0.39,0.08,0.64,0.45,0.56,0.84c-0.11,0.54-0.14,1.09-0.11,1.64c0.02,0.39-0.27,0.73-0.67,0.76     C102,91.21,101.98,91.21,101.97,91.21z"/>
            </g>
            <g>
                <path class="st4" d="M102.53,82.21c-0.01,0-0.02,0-0.03,0c-0.39-0.02-0.7-0.35-0.68-0.75l0.04-0.85c0.02-0.39,0.34-0.7,0.75-0.68     c0.39,0.02,0.7,0.35,0.68,0.75l-0.04,0.85C103.23,81.91,102.91,82.21,102.53,82.21z"/>
            </g>
            <g>
                <path class="st4" d="M103.02,75.44c0,0-0.01,0-0.01,0c-0.4-0.01-0.71-0.33-0.7-0.73c0.01-0.9,0.1-1.81,0.24-2.7     c0.06-0.39,0.43-0.66,0.82-0.59c0.39,0.06,0.65,0.43,0.59,0.82c-0.14,0.82-0.21,1.66-0.22,2.49     C103.73,75.13,103.41,75.44,103.02,75.44z"/>
            </g>
        </g>
        <g>
            <g>
                <path class="st4" d="M72.75,46.2c-0.04-0.13-0.11-0.24-0.21-0.31c-0.18-0.17-0.43-0.24-0.68-0.16c-0.26,0.08-0.52,0.16-0.78,0.25     c-1.73,0.54-3.37,1.07-4.95,1.58c-12.83,4.13-21.3,6.86-36.65,4.57c-0.66-0.09-2.52-1.57-2.89-2.11v-0.16     c-0.01-1.75,0.05-2.27,1.41-2.52c2-0.37,3.68-0.59,5.31-0.79c2.1-0.27,4.09-0.52,6.54-1.08c0.36-0.08,0.6-0.43,0.55-0.8     c-0.06-0.37-0.37-0.63-0.76-0.61c-5.05,0.34-11.74-0.28-12.8-1.58c-0.36-0.45-0.91-1.88-0.08-2.61     c1.54-1.36,5.88-2.17,11.59-2.17c0.4,0,0.72-0.32,0.72-0.72c0-0.39-0.32-0.71-0.72-0.71h-2.16c-4.28,0.02-6.42,0.03-8.87-0.77     c-1.51-0.49-1.78-0.96-1.75-1.72c0.05-1.09,0.94-2.13,2.05-2.37l0.54-0.12c2.16-0.47,5.76-1.25,9.61-1.49     c0.38-0.02,0.68-0.35,0.67-0.73c-0.01-0.39-0.33-0.7-0.72-0.7c-3.92,0-6.2-0.35-9.37-1.44c-0.7-0.24-1.26-1.7-1-2.6     c0.34-1.21,1.67-1.5,3.57-1.57c5.5-0.18,8.27-0.29,11.05-0.4c2.54-0.1,5.09-0.2,9.73-0.36c0.29-0.01,0.59-0.02,0.9-0.03     c0,0,0,0,0.01,0c0.13,0,0.24-0.01,0.37-0.01c0.36-0.01,0.63-0.27,0.68-0.59v-0.01c0.01-0.05,0.01-0.09,0.01-0.14     c-0.01-0.4-0.32-0.7-0.73-0.69c0,0,0,0-0.01,0c-0.36,0.01-0.7,0.02-1.04,0.03c-0.13,0.01-0.27,0.01-0.4,0.01     c-4.55,0.16-7.06,0.26-9.58,0.36c-2.77,0.11-5.54,0.22-11.04,0.4c-0.52,0.02-1.32,0.04-2.14,0.24c-0.33,0.08-0.66,0.19-0.97,0.34     c-0.16,0.07-0.31,0.15-0.45,0.24c-0.6,0.38-1.1,0.94-1.34,1.78c-0.39,1.37,0.23,3.39,1.49,4.16c0.13,0.07,0.27,0.14,0.42,0.19     c0.04,0.01,0.07,0.03,0.11,0.04c0.26,0.09,0.51,0.17,0.76,0.24c0.83,0.27,1.61,0.49,2.39,0.66c-0.89,0.17-1.7,0.33-2.41,0.48     c-0.28,0.06-0.55,0.12-0.79,0.17c-0.03,0.01-0.05,0.01-0.08,0.02l-0.54,0.12c-0.03,0.01-0.05,0.01-0.08,0.02h-0.01     c-1.7,0.41-3.02,1.98-3.09,3.69c-0.08,2.23,1.82,2.85,2.74,3.14c0.06,0.02,0.13,0.04,0.19,0.06c0.17,0.06,0.34,0.11,0.51,0.15     c0.18,0.05,0.36,0.1,0.54,0.13c0.21,0.06,0.41,0.1,0.61,0.14c-0.18,0.06-0.36,0.11-0.54,0.18c-0.23,0.08-0.46,0.16-0.67,0.25     c-0.28,0.12-0.54,0.25-0.79,0.39c-0.34,0.19-0.65,0.4-0.92,0.64c-1.56,1.38-0.83,3.66-0.08,4.58c0.16,0.2,0.38,0.38,0.64,0.54     c0.19,0.13,0.41,0.25,0.66,0.36c0.2,0.08,0.43,0.17,0.66,0.25c1.09,0.37,2.49,0.62,3.97,0.79c-1.21,0.16-2.48,0.34-3.92,0.61     c-0.05,0.01-0.1,0.02-0.15,0.04c-0.27,0.05-0.51,0.12-0.73,0.21c-0.33,0.14-0.6,0.3-0.81,0.5c-0.9,0.8-0.9,2.05-0.89,3.18v0.29     c0,0.25,0.19,0.59,0.49,0.94c0.09,0.11,0.19,0.22,0.3,0.32c0.97,0.99,2.59,2.03,3.32,2.14c3.94,0.59,7.44,0.85,10.67,0.85     c2.92,0,5.63-0.22,8.26-0.61c0.98-0.14,1.95-0.31,2.92-0.5c0.16-0.03,0.31-0.07,0.47-0.1c0.22-0.04,0.44-0.09,0.66-0.14     c0.25-0.05,0.49-0.11,0.74-0.16c4.31-0.98,8.62-2.37,13.58-3.97c1.54-0.49,3.14-1.01,4.82-1.54c0.03-0.01,0.06-0.02,0.1-0.03     c0.26-0.08,0.52-0.17,0.79-0.25c0.21-0.07,0.36-0.21,0.44-0.39C72.79,46.56,72.81,46.38,72.75,46.2z"/>
            </g>
            <g>
                <path class="st4" d="M122.59,47.79c-0.04,0.37-0.35,0.65-0.72,0.65h-0.06c-1-0.09-3.2-0.24-5.76-0.41     c-0.26-0.02-0.52-0.03-0.78-0.05c-0.16-0.01-0.32-0.02-0.48-0.03c-0.11-0.01-0.22-0.02-0.34-0.02c-0.14-0.01-0.28-0.02-0.42-0.03     c-0.71-0.05-1.44-0.1-2.17-0.15c-2.85-0.2-5.78-0.41-8.15-0.63c-0.15-0.01-0.29-0.03-0.43-0.04c-0.4-0.03-0.69-0.38-0.65-0.78     c0.04-0.32,0.27-0.58,0.57-0.64c0.02,0,0.05-0.01,0.07-0.01h0.08c0.02,0.01,0.04,0.01,0.06,0.01c0.08,0.01,0.16,0.01,0.25,0.02     c0.82,0.07,1.71,0.15,2.65,0.22c2.12,0.17,4.47,0.34,6.72,0.49c0.29,0.02,0.57,0.04,0.86,0.06c0.77,0.05,1.53,0.1,2.26,0.15     c2.67,0.18,4.78,0.32,5.79,0.41c0.07,0.01,0.13,0.02,0.19,0.05C122.42,47.17,122.61,47.47,122.59,47.79z"/>
            </g>
            <g>
                <path class="st4" d="M74.84,19.84c0,0.09-0.02,0.19-0.06,0.27c-0.13,0.25-0.38,0.4-0.65,0.4c-0.1,0-0.21-0.03-0.31-0.08     c-0.27-0.13-0.53-0.27-0.8-0.42h-0.01c-1.19-0.64-2.37-1.38-3.51-2.11c-0.32-0.2-0.65-0.41-0.98-0.61     c-4.13-2.58-8.54-4.74-13.11-6.43c-0.53-0.2-1.06-0.39-1.59-0.57c-0.05-0.02-0.09-0.03-0.13-0.06c-0.18-0.1-0.3-0.27-0.34-0.46     c-0.01-0.05-0.02-0.1-0.02-0.15c0-0.08,0.01-0.15,0.04-0.23c0.07-0.2,0.22-0.35,0.4-0.43c0.15-0.07,0.33-0.08,0.51-0.02     c5.25,1.8,10.3,4.2,15,7.13c0.33,0.21,0.66,0.42,0.99,0.62c1.37,0.87,2.78,1.76,4.18,2.46c0.12,0.06,0.22,0.15,0.28,0.25     C74.82,19.53,74.86,19.68,74.84,19.84z"/>
            </g>
            <g>
                <path class="st4" d="M102.26,22.99c-0.38,0-0.7-0.3-0.71-0.69c-0.01-0.4,0.3-0.73,0.69-0.74c2.55-0.09,6.23-0.19,9.78-0.28     c3.57-0.1,7.27-0.2,9.83-0.29c0.41-0.02,0.73,0.29,0.74,0.69c0.01,0.4-0.3,0.73-0.69,0.74c-2.57,0.09-6.27,0.19-9.84,0.29     c-3.55,0.1-7.22,0.19-9.77,0.28C102.27,22.99,102.27,22.99,102.26,22.99z"/>
            </g>
            <g>
                <path class="st4" d="M95.81,23c-0.51,0-1.02-0.05-1.52-0.15c-0.39-0.08-0.64-0.45-0.56-0.84c0.08-0.39,0.45-0.64,0.84-0.56     c0.54,0.11,1.09,0.14,1.64,0.11c0.41-0.02,0.73,0.27,0.76,0.67c0.02,0.39-0.27,0.73-0.67,0.76C96.14,23,95.97,23,95.81,23z"/>
            </g>
            <g>
                <path class="st4" d="M87.26,22.42c-0.01,0-0.02,0-0.03,0l-0.85-0.04c-0.39-0.02-0.7-0.35-0.68-0.75c0.02-0.39,0.35-0.7,0.75-0.68     l0.85,0.04c0.39,0.02,0.7,0.35,0.68,0.75C87.95,22.13,87.64,22.42,87.26,22.42z"/>
            </g>
            <g>
                <path class="st4" d="M80.49,21.93c0,0-0.01,0-0.01,0c-0.9-0.01-1.81-0.09-2.7-0.24c-0.39-0.06-0.65-0.43-0.59-0.82     c0.06-0.39,0.43-0.65,0.82-0.59c0.82,0.14,1.66,0.21,2.49,0.22c0.4,0.01,0.71,0.33,0.7,0.73C81.2,21.62,80.88,21.93,80.49,21.93z     "/>
            </g>
        </g>
        <g>
            <g>
                <path class="st4" d="M58.92,73.03c-0.05-0.25-0.1-0.49-0.16-0.73c-0.04-0.23-0.1-0.45-0.14-0.67c-0.02-0.06-0.03-0.12-0.05-0.18     c-0.97-4.2-2.33-8.42-3.89-13.25c-0.54-1.69-1.11-3.45-1.69-5.31c-0.05-0.13-0.09-0.27-0.13-0.4c-0.02-0.08-0.06-0.15-0.1-0.21     h-0.01c-0.17-0.25-0.48-0.35-0.78-0.26c-0.38,0.12-0.59,0.52-0.47,0.89c0.03,0.09,0.06,0.19,0.09,0.28     c0.26,0.85,0.52,1.67,0.78,2.47c0.32,1.02,0.64,2.01,0.95,2.98c1.61,4.99,3.01,9.33,3.97,13.66c0.07,0.28,0.13,0.55,0.18,0.82     c0.32,1.47,0.58,2.95,0.77,4.46c0.01,0.03,0.01,0.06,0.01,0.09c0.68,5.05,0.68,10.45-0.28,17.18c-0.01,0.04-0.01,0.07-0.02,0.11     c-0.02,0.11-0.03,0.22-0.05,0.33c-0.01,0.07-0.04,0.14-0.07,0.23c0,0.01-0.01,0.01-0.01,0.02c-0.19,0.47-0.72,1.22-1.22,1.81     c-0.01,0.01-0.02,0.02-0.02,0.03c-0.01,0.01-0.02,0.02-0.02,0.03c-0.01,0.01-0.02,0.03-0.03,0.04c-0.01,0.01-0.02,0.02-0.02,0.03     c-0.02,0.02-0.04,0.04-0.05,0.06c-0.29,0.3-0.53,0.53-0.68,0.64h-0.16c-1.75,0.01-2.26-0.05-2.52-1.41     c-0.37-2-0.58-3.68-0.79-5.31c-0.27-2.1-0.52-4.09-1.08-6.54c-0.08-0.36-0.42-0.6-0.8-0.55c-0.37,0.06-0.63,0.39-0.61,0.76     c0.34,5.05-0.27,11.74-1.58,12.8c-0.44,0.36-1.87,0.92-2.6,0.08c-0.27-0.31-0.52-0.73-0.74-1.25v-0.01     c-0.26-0.59-0.49-1.3-0.68-2.13c-0.49-2.1-0.76-4.93-0.76-8.2c0-0.4-0.32-0.72-0.71-0.72c-0.4,0-0.72,0.32-0.72,0.72     c0,0.78,0.01,1.49,0.01,2.16c0.01,4.27,0.02,6.42-0.77,8.87c-0.49,1.51-0.98,1.77-1.73,1.75c-1.09-0.05-2.13-0.94-2.37-2.05     l-0.12-0.55c-0.47-2.15-1.25-5.75-1.48-9.59c-0.03-0.39-0.36-0.7-0.74-0.68c-0.39,0.02-0.69,0.33-0.69,0.72     c0,2.33-0.12,4.08-0.46,5.78c-0.1,0.55-0.23,1.09-0.39,1.65c-0.16,0.62-0.36,1.26-0.6,1.94c-0.24,0.7-1.7,1.27-2.6,1.01     c-1.28-0.37-1.51-1.94-1.56-3.58c-0.19-5.48-0.3-8.25-0.4-11.02c-0.11-2.77-0.22-5.54-0.41-11.04c-0.01-0.4-0.34-0.71-0.74-0.69     c-0.39,0.01-0.7,0.34-0.69,0.74v0.04c0.02,0.51,0.03,0.99,0.05,1.45c0.16,4.53,0.26,7.04,0.36,9.56c0.1,2.76,0.21,5.53,0.4,11.01     c0.02,0.52,0.05,1.32,0.24,2.13c0.05,0.21,0.11,0.42,0.19,0.63c0.09,0.27,0.21,0.52,0.37,0.76c0.38,0.62,0.95,1.14,1.8,1.38     c1.32,0.37,3.23-0.18,4.06-1.35c0.12-0.17,0.22-0.36,0.29-0.56c0.01-0.03,0.02-0.07,0.03-0.1c0.09-0.27,0.18-0.52,0.26-0.78     c0.06-0.19,0.12-0.39,0.17-0.58c0.19-0.62,0.34-1.21,0.47-1.8c0.11,0.6,0.22,1.16,0.33,1.68c0.06,0.28,0.12,0.55,0.17,0.8     c0.06,0.28,0.12,0.54,0.17,0.79l0.12,0.55c0.01,0.03,0.01,0.05,0.02,0.08v0.01c0.42,1.7,1.98,3.02,3.7,3.09h0.14     c2.04,0,2.67-1.71,2.97-2.64c0.01-0.04,0.02-0.07,0.03-0.1c0.05-0.17,0.11-0.34,0.15-0.51c0.02-0.04,0.03-0.08,0.03-0.12v-0.01     c0.07-0.23,0.13-0.44,0.17-0.66c0.05-0.19,0.09-0.37,0.13-0.55c0.06,0.19,0.12,0.38,0.18,0.56c0.1,0.26,0.19,0.52,0.3,0.76     c0.02,0.05,0.04,0.09,0.06,0.13c0.08,0.18,0.16,0.34,0.24,0.5c0.21,0.37,0.43,0.69,0.67,0.97c1.38,1.56,3.66,0.83,4.58,0.08     c0.17-0.14,0.33-0.32,0.47-0.54c0.14-0.19,0.26-0.41,0.38-0.65c0.1-0.23,0.2-0.48,0.29-0.74c0.03-0.1,0.06-0.2,0.09-0.3V96.8     c0.33-1.05,0.56-2.33,0.71-3.69c0.16,1.21,0.35,2.48,0.62,3.92c0.01,0.08,0.03,0.15,0.05,0.22c0.02,0.12,0.05,0.24,0.09,0.35     c0.07,0.24,0.16,0.45,0.27,0.64c0.08,0.16,0.18,0.3,0.3,0.43c0.71,0.85,1.8,0.93,2.86,0.94h0.64c0.18,0,0.39-0.09,0.62-0.25     c0.1-0.06,0.19-0.13,0.29-0.22c0.06-0.04,0.12-0.09,0.17-0.15c1.03-0.94,2.21-2.71,2.32-3.49C60.67,86.36,60.3,79.63,58.92,73.03     z"/>
            </g>
            <g>
                <path class="st4" d="M54.2,2.96c-0.09,0.99-0.24,3.2-0.41,5.75c-0.01,0.08-0.01,0.16-0.02,0.25c0,0.12-0.01,0.24-0.02,0.37     c-0.01,0.18-0.02,0.37-0.03,0.56c-0.01,0.11-0.02,0.22-0.03,0.34c-0.23,3.4-0.49,7.25-0.75,10.3c-0.03,0.32-0.06,0.63-0.09,0.93     v0.04c-0.02,0.19-0.11,0.35-0.24,0.47c-0.01,0-0.01,0-0.01,0c-0.13,0.11-0.29,0.17-0.46,0.17h-0.07     c-0.14-0.01-0.27-0.06-0.37-0.14c-0.19-0.15-0.3-0.38-0.28-0.64c0.02-0.25,0.05-0.52,0.07-0.79c0.32-3.51,0.62-8.16,0.88-11.95     c0.17-2.67,0.31-4.78,0.41-5.79c0.02-0.19,0.11-0.35,0.24-0.47h0.01c0.14-0.13,0.32-0.2,0.52-0.18     C53.95,2.22,54.24,2.57,54.2,2.96z"/>
            </g>
            <g>
                <path class="st4" d="M26.19,50.95c-0.08,0.15-0.15,0.31-0.24,0.46c-0.67,1.31-1.49,2.61-2.28,3.86     c-0.21,0.32-0.41,0.65-0.62,0.98c-2.87,4.61-5.22,9.56-6.99,14.7c-0.02,0.06-0.05,0.12-0.09,0.17c-0.13,0.2-0.35,0.32-0.59,0.32     c-0.07,0-0.15-0.01-0.23-0.04c-0.02-0.01-0.04-0.01-0.05-0.03c-0.16-0.06-0.29-0.19-0.35-0.34c-0.09-0.16-0.1-0.36-0.04-0.54     c1.8-5.25,4.2-10.3,7.13-15c0.2-0.33,0.41-0.66,0.62-0.99c0.86-1.37,1.76-2.78,2.45-4.18c0.06-0.12,0.15-0.22,0.25-0.28     c0.15-0.1,0.34-0.14,0.52-0.1c0.06,0,0.13,0.02,0.19,0.05C26.23,50.17,26.37,50.6,26.19,50.95z"/>
            </g>
            <g>
                <path class="st4" d="M28.76,22.48c0.01,0.4-0.3,0.73-0.69,0.74h-0.03c-0.28,0-0.52-0.16-0.64-0.4c-0.04-0.09-0.07-0.18-0.07-0.29     c0-0.12-0.01-0.25-0.02-0.38c-0.08-2.54-0.17-6.03-0.27-9.43c-0.1-3.56-0.19-7.24-0.28-9.8c-0.02-0.39,0.29-0.72,0.69-0.74     c0.36-0.02,0.64,0.22,0.72,0.54c0.01,0.05,0.02,0.1,0.02,0.15c0.09,2.56,0.19,6.25,0.28,9.81c0.09,3.16,0.18,6.42,0.26,8.89     C28.74,21.89,28.75,22.19,28.76,22.48z"/>
            </g>
            <g>
                <path class="st4" d="M27.91,31.05c-0.05,0-0.09,0-0.14-0.01c-0.39-0.08-0.64-0.45-0.56-0.84c0.11-0.54,0.14-1.09,0.11-1.64     c-0.02-0.39,0.27-0.73,0.67-0.76c0.4-0.02,0.73,0.28,0.76,0.67c0.04,0.67,0,1.35-0.13,2.01C28.55,30.82,28.25,31.05,27.91,31.05z     "/>
            </g>
            <g>
                <path class="st4" d="M27.43,39.08c-0.01,0-0.02,0-0.03,0c-0.39-0.02-0.7-0.35-0.68-0.75l0.04-0.85c0.02-0.4,0.34-0.7,0.75-0.68     c0.39,0.02,0.7,0.35,0.68,0.75l-0.04,0.85C28.12,38.78,27.81,39.08,27.43,39.08z"/>
            </g>
            <g>
                <path class="st4" d="M26.74,47.59c-0.04,0-0.08,0-0.12-0.01c-0.39-0.06-0.65-0.43-0.59-0.82c0.14-0.82,0.21-1.66,0.22-2.49     c0.01-0.39,0.33-0.7,0.72-0.7c0,0,0.01,0,0.01,0c0.4,0.01,0.71,0.33,0.7,0.73c-0.01,0.9-0.1,1.81-0.24,2.7     C27.39,47.34,27.09,47.59,26.74,47.59z"/>
            </g>
        </g>
        <g>
            <g>
                <path class="st4" d="M101.94,89.16c0.01-0.01,0.02-0.01,0.02-0.01c0.06-0.01,0.12-0.03,0.18-0.04l0.55-0.12     c0.03-0.01,0.05-0.01,0.08-0.02c1.7-0.4,3.02-1.97,3.09-3.69c0.08-2.01-1.47-2.71-2.44-3.04c-0.11-0.04-0.2-0.07-0.29-0.1     c-0.06-0.02-0.12-0.04-0.18-0.05h-0.01c-0.16-0.06-0.31-0.1-0.46-0.14c-0.2-0.06-0.39-0.11-0.59-0.15h-0.01     c-0.2-0.06-0.4-0.1-0.6-0.14c0.18-0.06,0.36-0.11,0.54-0.18c0.1-0.03,0.2-0.07,0.3-0.1c0.04-0.02,0.08-0.04,0.11-0.05     c0.01,0,0.01-0.01,0.02-0.01s0.03-0.01,0.04-0.01c0.08-0.03,0.15-0.06,0.22-0.09c0.27-0.12,0.53-0.24,0.77-0.37     c0.34-0.2,0.65-0.41,0.92-0.64c1.56-1.38,0.82-3.66,0.08-4.58c-0.16-0.2-0.37-0.38-0.63-0.55c-0.15-0.09-0.32-0.18-0.5-0.27     c-0.13-0.06-0.27-0.12-0.41-0.18c-0.14-0.05-0.28-0.1-0.42-0.15c-1.09-0.37-2.49-0.62-3.97-0.79c1.2-0.16,2.48-0.35,3.92-0.62     c0.05-0.01,0.09-0.02,0.14-0.03c0.27-0.06,0.51-0.13,0.73-0.22c0.11-0.04,0.21-0.09,0.31-0.15h0.01c0.19-0.1,0.36-0.22,0.5-0.34     c0.9-0.81,0.9-2.05,0.89-3.19v-0.28c0-0.26-0.2-0.6-0.5-0.96c-0.1-0.11-0.19-0.21-0.3-0.31c-0.01-0.01-0.01-0.02-0.02-0.02     c-0.51-0.52-1.19-1.04-1.82-1.43c-0.58-0.37-1.12-0.63-1.47-0.69c-9.07-1.35-15.76-0.99-22.32,0.37     c-0.47,0.09-0.93,0.19-1.4,0.29v0.01c-4.31,0.98-8.62,2.37-13.58,3.97c-1.45,0.46-2.94,0.95-4.51,1.44     c-0.1,0.03-0.2,0.07-0.31,0.1c-0.1,0.03-0.2,0.06-0.3,0.09c-0.19,0.07-0.39,0.13-0.59,0.19c-0.21,0.06-0.36,0.21-0.44,0.39     c-0.07,0.15-0.08,0.33-0.03,0.5c0.04,0.13,0.11,0.25,0.21,0.32c0.18,0.17,0.43,0.23,0.68,0.15c0.26-0.08,0.52-0.16,0.77-0.24     c0.45-0.14,0.9-0.28,1.34-0.43c1.25-0.39,2.45-0.78,3.62-1.15c12.82-4.13,21.3-6.87,36.65-4.58c0.23,0.04,0.62,0.24,1.04,0.52     c0.75,0.51,1.61,1.25,1.85,1.6v0.16c0,1.75-0.05,2.26-1.41,2.52c-2,0.37-3.68,0.58-5.31,0.79c-0.02,0-0.03,0-0.05,0.01     c-2.09,0.26-4.06,0.51-6.49,1.06c-0.36,0.09-0.6,0.44-0.55,0.81c0.05,0.37,0.38,0.63,0.76,0.61c3.34-0.23,7.39-0.04,10.06,0.49     h0.01c1.37,0.28,2.37,0.65,2.73,1.09s0.91,1.87,0.08,2.6c-0.69,0.61-1.93,1.11-3.61,1.47c-2.07,0.46-4.82,0.71-7.99,0.71     c-0.39,0-0.71,0.32-0.71,0.71c0,0.4,0.32,0.72,0.71,0.72c0.78,0,1.5-0.01,2.16-0.01c2.84-0.01,4.74-0.02,6.42,0.21     c0.85,0.12,1.64,0.29,2.46,0.56c1.51,0.49,1.77,0.97,1.74,1.73c-0.04,1.09-0.94,2.13-2.04,2.37l-0.56,0.12     c-1.49,0.32-3.67,0.8-6.16,1.14c-1.1,0.14-2.25,0.27-3.43,0.34c-0.38,0.03-0.68,0.35-0.67,0.74s0.33,0.69,0.72,0.69     c3.02,0,5.06,0.21,7.29,0.81c0.67,0.17,1.35,0.39,2.08,0.64c0.7,0.24,1.26,1.7,1,2.6c-0.35,1.25-1.84,1.5-3.43,1.55h-0.01     c-0.04,0.01-0.09,0.01-0.13,0.01c-5.49,0.19-8.26,0.3-11.04,0.4c-2.54,0.1-5.09,0.2-9.74,0.37c-0.29,0.01-0.59,0.02-0.9,0.03     c-0.13,0-0.25,0.01-0.38,0.01c-0.4,0.01-0.71,0.34-0.7,0.74c0.02,0.38,0.33,0.69,0.72,0.69c0.01,0,0.02,0,0.02,0h0.01     c0.5-0.02,0.98-0.04,1.44-0.05c4.55-0.16,7.07-0.26,9.59-0.36c2.68-0.1,5.36-0.2,10.5-0.38c0.17-0.01,0.35-0.01,0.53-0.02     c0.52-0.02,1.33-0.04,2.15-0.25c0.21-0.05,0.41-0.11,0.61-0.18c0.12-0.05,0.24-0.1,0.36-0.16c0.15-0.06,0.3-0.14,0.44-0.23     c0.6-0.39,1.1-0.95,1.34-1.78c0.39-1.37-0.23-3.38-1.5-4.15c-0.13-0.08-0.27-0.15-0.41-0.19l-0.01-0.01     c-0.24-0.08-0.47-0.16-0.7-0.23c-0.06-0.02-0.11-0.04-0.16-0.05c-0.83-0.27-1.61-0.48-2.39-0.65c0.89-0.17,1.7-0.34,2.41-0.49     C101.51,89.25,101.73,89.2,101.94,89.16z"/>
            </g>
            <g>
                <path class="st4" d="M27.38,72.7c-0.04,0.37-0.35,0.65-0.71,0.65H26.6c-0.08-0.01-0.17-0.02-0.26-0.02     c-3.56-0.34-8.5-0.66-12.49-0.93c-2.49-0.16-4.49-0.29-5.57-0.39C8.21,72,8.14,72,8.07,71.99c-0.39-0.03-0.68-0.38-0.65-0.78     c0.04-0.39,0.38-0.67,0.78-0.64c0.99,0.09,3.2,0.24,5.75,0.41c0.26,0.02,0.53,0.04,0.8,0.05c0.25,0.02,0.5,0.04,0.75,0.06     c0.15,0.01,0.31,0.02,0.47,0.03c3.48,0.23,7.35,0.5,10.32,0.76c0.15,0.01,0.3,0.03,0.44,0.04C27.13,71.96,27.42,72.31,27.38,72.7     z"/>
            </g>
            <g>
                <path class="st4" d="M76.64,109.62c-0.02,0.04-0.03,0.08-0.07,0.12c-0.07,0.14-0.19,0.25-0.34,0.3v0.01     c-0.08,0.03-0.18,0.05-0.27,0.05c-0.08,0-0.16-0.01-0.23-0.04c-0.09-0.03-0.19-0.06-0.28-0.1c-0.1-0.03-0.21-0.07-0.31-0.11     c-0.01,0-0.02-0.01-0.02-0.01c-5.03-1.77-9.87-4.09-14.39-6.91c-0.33-0.2-0.66-0.41-0.99-0.62c-1.37-0.87-2.79-1.76-4.19-2.45     c-0.12-0.06-0.21-0.15-0.27-0.25h-0.01c-0.08-0.13-0.12-0.28-0.11-0.43c0-0.09,0.02-0.19,0.07-0.28c0.18-0.36,0.61-0.5,0.96-0.33     c0.07,0.04,0.14,0.07,0.21,0.11c0.2,0.1,0.4,0.2,0.59,0.31c1.19,0.64,2.37,1.38,3.51,2.11c0.33,0.21,0.66,0.41,0.98,0.62     c3.65,2.27,7.5,4.21,11.51,5.79c0.22,0.1,0.45,0.19,0.68,0.27c0.83,0.33,1.67,0.64,2.52,0.93c0.04,0.01,0.08,0.03,0.12,0.07     c0.03,0,0.06,0.02,0.09,0.05C76.64,109.01,76.73,109.33,76.64,109.62z"/>
            </g>
            <g>
                <path class="st4" d="M28.46,96.7c0,0.13-0.03,0.24-0.08,0.35c-0.09,0.19-0.27,0.33-0.48,0.37c-0.04,0.01-0.09,0.02-0.13,0.02     c-2.56,0.09-6.25,0.19-9.81,0.29c-3.56,0.09-7.24,0.19-9.8,0.28H8.13c-0.38,0-0.7-0.3-0.71-0.69s0.3-0.72,0.69-0.74     c0.12,0,0.25-0.01,0.38-0.02c2.54-0.08,6.04-0.17,9.43-0.26c3.39-0.1,6.88-0.19,9.42-0.27c0.13-0.01,0.26-0.02,0.38-0.02h0.03     C28.13,96.01,28.45,96.32,28.46,96.7z"/>
            </g>
            <g>
                <path class="st4" d="M35.57,97.57c-0.05,0-0.09,0-0.14-0.01c-0.54-0.11-1.09-0.14-1.64-0.11c-0.4,0.03-0.73-0.28-0.76-0.67     c-0.02-0.39,0.27-0.73,0.67-0.76c0.67-0.04,1.35,0,2.01,0.13c0.39,0.08,0.64,0.45,0.56,0.84C36.2,97.33,35.9,97.57,35.57,97.57z"/>
            </g>
            <g>
                <path class="st4" d="M43.59,98.06c-0.01,0-0.02,0-0.03,0l-0.85-0.04c-0.39-0.02-0.7-0.35-0.68-0.75c0.02-0.39,0.34-0.7,0.75-0.68     l0.85,0.04c0.39,0.02,0.7,0.35,0.68,0.75C44.29,97.76,43.97,98.06,43.59,98.06z"/>
            </g>
            <g>
                <path class="st4" d="M52.11,98.74c-0.04,0-0.08,0-0.12-0.01c-0.82-0.14-1.66-0.21-2.49-0.22c-0.4-0.01-0.71-0.33-0.7-0.73     c0.01-0.39,0.33-0.7,0.72-0.7c0,0,0.01,0,0.01,0c0.9,0.01,1.81,0.09,2.7,0.24c0.39,0.06,0.65,0.43,0.59,0.82     C52.75,98.49,52.45,98.74,52.11,98.74z"/>
            </g>
        </g>
        <g>
            <path class="st4" d="M86.81,16.77c-0.13,0-0.27-0.04-0.39-0.12l-15.1-9.85c-0.33-0.22-0.42-0.66-0.21-0.99    c0.22-0.33,0.66-0.42,0.99-0.21l15.1,9.85c0.33,0.22,0.42,0.66,0.21,0.99C87.28,16.66,87.05,16.77,86.81,16.77z"/>
        </g>
        <g>
            <path class="st4" d="M96.22,14.78c-0.14,0-0.28-0.04-0.41-0.13L81.55,4.83c-0.33-0.22-0.41-0.67-0.18-1    c0.22-0.33,0.67-0.41,1-0.18l14.26,9.82c0.33,0.22,0.41,0.67,0.18,1C96.67,14.67,96.45,14.78,96.22,14.78z"/>
        </g>
        <g>
            <path class="st4" d="M57.19,111.12c-0.02,0-0.04,0-0.06,0c-7.17-0.63-14.27-2.1-21.1-4.36c-0.37-0.12-0.58-0.53-0.45-0.9    c0.12-0.38,0.53-0.58,0.9-0.45c6.73,2.23,13.71,3.67,20.77,4.29c0.39,0.03,0.68,0.38,0.65,0.78    C57.87,110.84,57.56,111.12,57.19,111.12z"/>
        </g>
    </g>
    </svg>