<svg xmlns="http://www.w3.org/2000/svg" xmlns:xlink="http://www.w3.org/1999/xlink" version="1.1" id="Layer_1" x="0px" y="0px" viewBox="0 0 130 119" style="enable-background:new 0 0 130 119;" xml:space="preserve">
    <style type="text/css">
        .st0{fill:#FFFFFF;}
        .st1{fill:#FFFFFF;stroke:#000000;stroke-miterlimit:10;}
        .st2{fill:#FFFFFF;stroke:#000000;strokeWidth:0.25;stroke-miterlimit:10;}
        .st3{stroke:#000000;strokeWidth:0.25;stroke-miterlimit:10;}
        .st4{fill:#BEE8FF;stroke:#000000;strokeWidth:0.25;stroke-miterlimit:10;}
        .st5{fill:#BEE8FF;}
        .st6{opacity:0.1294;}
        .st7{fill:#BEE8FF;stroke:#000000;strokeWidth:2;stroke-miterlimit:10;}
        .st8{fill:#BEE8FF;stroke:#000000;strokeWidth:0.5;stroke-miterlimit:10;}
    </style>
    <g>
        <g>
            <path class="st0" d="M40.79,56.75c-0.39,1.68-0.4,4.02-0.4,4.02l0.99,0.4c0,0,0.93,3.84-4.95,2.66c-1.14-0.23-4.45-2.74-4.45-2.74    l2.61-0.75c0,0,0.25-3.8,0.35-5.69C36.33,55.29,39.14,56.23,40.79,56.75z"/>
            <path d="M38.44,64.17c-0.59,0-1.27-0.08-2.03-0.23c-1.15-0.23-4.36-2.66-4.5-2.76c-0.03-0.03-0.05-0.07-0.04-0.11    c0.01-0.04,0.04-0.08,0.08-0.09l2.54-0.73c0.04-0.56,0.25-3.89,0.34-5.61c0-0.04,0.02-0.07,0.06-0.09    c0.03-0.02,0.07-0.02,0.11-0.01c1.3,0.61,3.95,1.51,5.83,2.09c0.06,0.02,0.09,0.08,0.08,0.14c-0.34,1.48-0.39,3.5-0.39,3.92    l0.91,0.37c0.03,0.01,0.06,0.04,0.07,0.08c0.01,0.05,0.31,1.31-0.55,2.2C40.42,63.89,39.58,64.17,38.44,64.17z M32.24,61.13    c0.71,0.53,3.27,2.39,4.22,2.58c2.12,0.42,3.58,0.24,4.32-0.53c0.67-0.7,0.54-1.69,0.5-1.93l-0.93-0.38    c-0.04-0.02-0.07-0.06-0.07-0.11c0-0.02,0.01-2.28,0.38-3.94c-1.8-0.56-4.26-1.4-5.6-2c-0.1,1.92-0.34,5.49-0.34,5.52    c0,0.05-0.04,0.09-0.08,0.1L32.24,61.13z"/>
        </g>
        <g>
            <g>
                <path d="M37.92,42.65c-2.63-0.1-5.19,1.59-4.99,2.97c-1.26-0.37-2.7,2.04-2.65,3.17c0.06,1.45,2.89,6.23,3.49,6.99     c0.28,0.36,0.49,0.52,0.98,0.67c-0.03-0.4,0.35-0.65,0.36-1.06c0.01-0.49-0.66-1.36-0.13-1.35c2.49,0.06,2.17,0.62,6.9-3.97     c0.6-0.59,1-2,1.13-3.07C43.12,45.96,42.38,42.82,37.92,42.65z"/>
                <path d="M34.74,56.56c-0.01,0-0.02,0-0.03,0c-0.53-0.16-0.75-0.35-1.03-0.71c-0.62-0.79-3.45-5.6-3.52-7.06     c-0.04-0.86,0.71-2.29,1.53-2.94c0.38-0.29,0.75-0.42,1.1-0.38c0-0.4,0.19-0.82,0.56-1.23c0.79-0.88,2.56-1.79,4.57-1.72     c1.86,0.07,3.32,0.68,4.23,1.76c0.78,0.91,1.04,2.05,0.95,2.73c-0.14,1.14-0.56,2.55-1.16,3.14c-4.26,4.14-4.49,4.13-6.27,4.04     c-0.21-0.01-0.44-0.02-0.71-0.03c-0.05,0-0.07,0.01-0.08,0.01c-0.04,0.06,0.07,0.34,0.14,0.51c0.1,0.24,0.2,0.5,0.19,0.71     c0,0.22-0.11,0.4-0.2,0.56c-0.09,0.16-0.17,0.31-0.16,0.48c0,0.04-0.01,0.07-0.04,0.1C34.8,56.55,34.77,56.56,34.74,56.56z      M32.66,45.7c-0.32,0-0.61,0.17-0.82,0.34c-0.84,0.66-1.48,2.04-1.45,2.75c0.06,1.42,2.85,6.15,3.47,6.93     c0.23,0.29,0.4,0.45,0.78,0.58c0.03-0.17,0.11-0.31,0.18-0.45c0.08-0.15,0.17-0.29,0.17-0.46c0-0.17-0.09-0.41-0.18-0.62     c-0.12-0.3-0.22-0.56-0.11-0.72c0.05-0.08,0.15-0.11,0.27-0.11c0.27,0.01,0.51,0.02,0.71,0.03c1.73,0.09,1.91,0.1,6.1-3.97     c0.57-0.55,0.96-1.91,1.1-3c0.06-0.45-0.06-1.56-0.9-2.55c-0.88-1.04-2.25-1.6-4.07-1.68c-1.93-0.08-3.63,0.8-4.39,1.64     c-0.37,0.41-0.54,0.83-0.49,1.2c0.01,0.04-0.01,0.08-0.04,0.1c-0.03,0.03-0.07,0.03-0.11,0.02C32.81,45.71,32.73,45.7,32.66,45.7     z"/>
            </g>
        </g>
        <g>
            <g>
                <path class="st0" d="M42.02,49.33c0-0.03-0.9,0.09-1.66-0.99c-0.15,0.57-0.23,1.17-1.4,1.11c-0.57-0.03-1.4-0.95-1.61-1.51     c0,0,1.25-0.3-4.17,2.08c0.01,0.11,0.01,0.22,0.02,0.32c0.01,0.38,0.03,1.22,0.24,2.04c-0.71-0.44-1.23-0.27-1.57,0.19     c-0.34,0.46-0.21,1.08,0.23,1.42c0.44,0.34,1.15,0.39,1.72,0.18c0.3,0.98,0.82,2.97,1.65,3.75c0.88,0.84,2.28,1.26,3.65,1.08     c1.36-0.17,2.65-0.93,3.35-1.98c0.79-1.18,0.8-2.6,0.53-3.88C42.73,51.86,42.21,50.63,42.02,49.33z"/>
                <path d="M38.49,59.15c-1.19,0-2.33-0.42-3.1-1.15c-0.76-0.73-1.26-2.38-1.58-3.47c-0.02-0.08-0.04-0.15-0.07-0.22     c-0.61,0.19-1.29,0.1-1.72-0.23c-0.51-0.39-0.62-1.08-0.25-1.58c0.37-0.5,0.89-0.62,1.49-0.34c-0.15-0.73-0.17-1.43-0.19-1.79     l0-0.03c0-0.09-0.01-0.2-0.02-0.32c0-0.05,0.02-0.09,0.07-0.11c2.89-1.27,3.82-1.75,4.11-1.93c0,0,0,0,0-0.01     c-0.01-0.03-0.01-0.07,0.01-0.09c0.02-0.03,0.04-0.05,0.07-0.06c0.14-0.03,0.23-0.01,0.26,0.08c0.02,0.05,0.02,0.09-0.05,0.16     c0.28,0.53,0.98,1.25,1.44,1.27c1.01,0.05,1.13-0.4,1.26-0.93l0.02-0.1c0.01-0.04,0.05-0.08,0.09-0.08     c0.04-0.01,0.09,0.01,0.11,0.05c0.41,0.58,0.92,0.9,1.52,0.94c0.05,0,0.15,0.01,0.16,0.11l0,0c0.11,0.73,0.32,1.45,0.53,2.14     c0.16,0.54,0.33,1.1,0.45,1.67c0.33,1.59,0.15,2.93-0.55,3.97c-0.72,1.07-2.03,1.85-3.43,2.03     C38.92,59.14,38.71,59.15,38.49,59.15z M33.82,54.05c0.02,0,0.03,0,0.05,0.01c0.03,0.01,0.05,0.04,0.06,0.07     c0.03,0.1,0.06,0.21,0.1,0.33c0.3,1,0.8,2.68,1.52,3.37c0.86,0.82,2.22,1.22,3.55,1.05c1.33-0.17,2.59-0.91,3.26-1.93     c0.66-0.99,0.83-2.26,0.52-3.8c-0.12-0.56-0.28-1.11-0.44-1.65c-0.2-0.68-0.41-1.37-0.52-2.09c-0.58-0.05-1.09-0.33-1.51-0.84     c-0.13,0.51-0.35,1.02-1.46,0.97c-0.56-0.03-1.3-0.78-1.62-1.37c-0.12,0.07-0.29,0.16-0.54,0.29c-0.7,0.35-1.88,0.9-3.5,1.61     c0.01,0.09,0.01,0.17,0.01,0.25l0,0.03c0.01,0.39,0.04,1.2,0.24,1.99c0.01,0.05-0.01,0.09-0.04,0.12     c-0.04,0.03-0.09,0.03-0.13,0.01c-0.59-0.36-1.07-0.31-1.41,0.16c-0.29,0.4-0.2,0.95,0.21,1.26c0.4,0.3,1.05,0.37,1.62,0.16     C33.79,54.05,33.8,54.05,33.82,54.05z M41.99,49.43L41.99,49.43L41.99,49.43z M41.9,49.34L41.9,49.34     C41.9,49.34,41.9,49.34,41.9,49.34L41.9,49.34z"/>
            </g>
        </g>
        <g>
            <path d="M41.08,51.38c0-0.16-0.15-0.29-0.32-0.28c-0.17,0.01-0.31,0.14-0.3,0.3c0,0.16,0.15,0.29,0.32,0.28    C40.95,51.68,41.09,51.55,41.08,51.38z"/>
        </g>
        <g>
            <path d="M36.83,52.23c0-0.16-0.15-0.29-0.32-0.28c-0.17,0.01-0.31,0.14-0.3,0.3s0.15,0.29,0.32,0.28    C36.7,52.53,36.83,52.4,36.83,52.23z"/>
        </g>
        <g>
            <path d="M38.59,57.1c-0.39,0-0.78-0.14-1.08-0.4c-0.05-0.04-0.05-0.11-0.01-0.16c0.04-0.05,0.11-0.05,0.16-0.01    c0.39,0.34,0.98,0.44,1.46,0.23c0.06-0.02,0.13,0,0.15,0.06c0.02,0.06,0,0.13-0.06,0.15C39.02,57.06,38.81,57.1,38.59,57.1z"/>
        </g>
        <g>
            <path d="M39.12,55.39c0,0-0.01,0-0.01,0c-0.33,0-0.64-0.13-0.83-0.35c-0.04-0.05-0.04-0.12,0.01-0.16    c0.05-0.04,0.12-0.04,0.16,0.01c0.15,0.17,0.4,0.27,0.67,0.27c0.23,0,0.48-0.07,0.74-0.21c0.09-0.05,0.19-0.11,0.24-0.19    c0.07-0.1,0.07-0.26,0.02-0.41c-0.05-0.13-0.13-0.25-0.21-0.37l-0.04-0.06c-0.5-0.73-0.83-1.58-0.95-2.46    c-0.01-0.06,0.04-0.12,0.1-0.13c0.06-0.01,0.12,0.03,0.13,0.1c0.12,0.84,0.43,1.66,0.91,2.36l0.04,0.06    c0.09,0.13,0.18,0.27,0.24,0.42c0.08,0.22,0.07,0.45-0.04,0.61c-0.08,0.13-0.21,0.21-0.33,0.27    C39.67,55.31,39.39,55.39,39.12,55.39z"/>
        </g>
        <g>
            <path d="M33.59,53.15c-0.05,0-0.1-0.03-0.11-0.08c-0.1-0.35-0.14-0.54-0.23-0.88c-0.01-0.06,0.02-0.12,0.08-0.14    c0.06-0.01,0.12,0.02,0.14,0.08c0.08,0.34,0.13,0.52,0.22,0.87c0.02,0.06-0.02,0.12-0.08,0.14C33.61,53.14,33.6,53.15,33.59,53.15    z"/>
        </g>
        <g>
            <path class="st8" d="M33.59,75.68c0.67-5.9,0.65-11.73,0.17-15.09c-2.31,0.15-6.24,0.75-7.9,2.13c-3.46,2.89-3.47,7.5-4.28,11.79    c-0.75,3.95-1.09,7.84-0.04,9.2c0.1,0.13,0.88,0.64,1.04,0.62c0.49-0.09,3.86-3.62,3.86-2.56c0,2.12-0.27,2.97-0.27,2.97H32    C32,84.75,33.36,77.69,33.59,75.68z"/>
        </g>
        <g>
            <path class="st8" d="M50.96,81.57c1.8-0.22,3.42-6.94,0.69-7.4c-0.38-0.06-1.97-6.47-5.18-10.5c-1.71-2.15-5.35-2.68-5.88-2.88    c2.35,4.07-1.37,23.86-1.37,23.86l4.87,0.01c0,0,1.11-7.29,1.31-8.97c0.16,0.95,1.38,3.11,2.77,4.76c0.52,0.61,0.98,0.49,1.3,0.82    C49.86,81.62,50.55,81.62,50.96,81.57z"/>
        </g>
        <g>
            <path d="M27.49,80.31c-0.01,0-0.02,0-0.03,0c-0.06-0.02-0.1-0.08-0.08-0.14c0.48-1.85,0.77-3.75,1.17-6.4    c0.27-1.8,0.61-4.04,1.11-6.88c0.01-0.06,0.07-0.1,0.13-0.09c0.06,0.01,0.1,0.07,0.09,0.13c-0.49,2.84-0.83,5.07-1.11,6.87    c-0.4,2.65-0.69,4.56-1.18,6.42C27.59,80.28,27.54,80.31,27.49,80.31z"/>
        </g>
        <g>
            <path d="M45.64,75.78c-0.03,0-0.06-0.01-0.09-0.04c-0.03-0.04-0.04-0.08-0.02-0.12c0.04-0.18,0.19-1.9,0.34-3.73    c0.09-1.14,0.2-2.42,0.3-3.53c0.01-0.06,0.06-0.11,0.12-0.1c0.06,0.01,0.11,0.06,0.1,0.12c-0.1,1.11-0.21,2.39-0.3,3.53    c-0.32,3.78-0.32,3.79-0.39,3.85C45.7,75.77,45.67,75.78,45.64,75.78z M45.57,75.58C45.57,75.58,45.57,75.58,45.57,75.58    C45.57,75.58,45.57,75.58,45.57,75.58z M45.57,75.58C45.57,75.58,45.57,75.58,45.57,75.58C45.57,75.58,45.57,75.58,45.57,75.58z"/>
        </g>
        <g>
            <path d="M21.38,80.23c-0.01,0-0.02,0-0.03-0.01c-0.01-0.01-0.01-0.04,0-0.05c1.33-1.33,3.51-1.99,5.54-1.7    c0.02,0,0.04,0.02,0.03,0.04c0,0.02-0.02,0.04-0.04,0.03c-2.01-0.29-4.15,0.37-5.47,1.68C21.4,80.23,21.39,80.23,21.38,80.23z"/>
        </g>
        <g>
            <path d="M21.55,80.87c-0.02,0-0.03-0.01-0.04-0.02c-0.01-0.02,0-0.04,0.02-0.05c0.23-0.09,0.42-0.26,0.61-0.43    c0.07-0.06,0.14-0.12,0.21-0.18c0.43-0.36,0.96-0.59,1.51-0.67c0.02,0,0.04,0.01,0.04,0.03c0,0.02-0.01,0.04-0.03,0.04    c-0.54,0.08-1.05,0.31-1.47,0.65c-0.07,0.06-0.14,0.12-0.2,0.18c-0.19,0.17-0.39,0.35-0.63,0.44    C21.56,80.87,21.55,80.87,21.55,80.87z"/>
        </g>
        <g>
            <path d="M38.34,65.42c-1.07,0-2.14-0.25-3.11-0.72c-0.02-0.01-0.03-0.03-0.02-0.05c0.01-0.02,0.03-0.03,0.05-0.02    c1.28,0.63,2.76,0.85,4.17,0.62c0.75-0.12,1.27-0.36,1.6-0.74c0.01-0.02,0.04-0.02,0.05,0c0.02,0.01,0.02,0.04,0,0.05    c-0.34,0.39-0.88,0.64-1.65,0.76C39.09,65.39,38.72,65.42,38.34,65.42z"/>
        </g>
        <g>
            <g>
                <path class="st0" d="M59.01,68.78c1.15-1.15,0.67-1.94,1.96-3.47c0.54-0.63,1.05-1.18,1.53-1.68c0.25-0.26,0.47-0.6,0.73-0.38     c0.31,0.26-0.03,0.96-0.18,1.18c-0.59,0.87-0.55,1.16-0.52,1.48c1.01-0.78,2.59-1.83,3.81-2.22c0.09-0.03,0.33-0.01,0.38,0.07     c0.08,0.11,0,0.4-0.17,0.52c-0.73,0.52-1.79,1.26-2.52,1.78c1.31-0.83,3.04-1.89,3.31-1.54c0.09,0.11,0.04,0.4-0.15,0.54     c-0.79,0.57-1.82,1.28-2.61,1.85c0.68-0.58,2.77-1.81,2.93-1.37c0.17,0.44-1.77,1.66-2.58,2.15c0.66-0.41,2.2-1.38,2.38-0.97     c0.13,0.31-0.33,0.59-0.49,0.71c-1.23,0.95-2.68,2.26-4.03,2.74c-0.32,0.11-0.81,0.17-1.08,0.37c-0.29,0.21-0.45,0.46-0.68,0.73     c-6.62,7.53-8.71,10.09-9.9,9.84c-1-0.21-0.26-4.29,0.76-6.95C52.43,74.18,56.57,71.22,59.01,68.78z"/>
                <path d="M51.28,81.24c-0.06,0-0.13-0.01-0.19-0.02c-0.15-0.03-0.28-0.13-0.37-0.3c-0.54-0.99,0.12-4.38,1.05-6.8     c0.02-0.05,0.06-0.08,0.11-0.07c0,0,0,0,0,0c0.48,0,4.58-2.89,7.03-5.34l0,0c0.55-0.55,0.71-1.01,0.9-1.54     c0.18-0.53,0.39-1.13,1.05-1.91c0.52-0.61,1.02-1.15,1.53-1.69c0.04-0.04,0.07-0.08,0.11-0.12c0.21-0.24,0.48-0.53,0.78-0.28     c0.39,0.33,0,1.09-0.16,1.33c-0.44,0.64-0.51,0.95-0.51,1.19c1.06-0.8,2.54-1.74,3.67-2.11c0.12-0.04,0.41-0.03,0.51,0.11     c0.05,0.07,0.07,0.16,0.05,0.27c-0.02,0.13-0.1,0.31-0.25,0.41c-0.11,0.08-0.22,0.16-0.35,0.25c0.67-0.32,1.02-0.36,1.16-0.18     c0.06,0.07,0.08,0.18,0.06,0.3c-0.02,0.16-0.11,0.32-0.23,0.4c-0.13,0.09-0.27,0.19-0.41,0.29c0.25-0.09,0.46-0.13,0.59-0.1     c0.11,0.03,0.16,0.1,0.18,0.15c0.04,0.11,0.13,0.34-0.79,1.06c0.17-0.05,0.31-0.06,0.42-0.03c0.08,0.03,0.14,0.08,0.17,0.15     c0.15,0.36-0.24,0.64-0.46,0.8c-0.02,0.02-0.05,0.03-0.06,0.05c-0.23,0.18-0.47,0.37-0.73,0.58c-1.04,0.84-2.23,1.79-3.33,2.18     c-0.11,0.04-0.24,0.07-0.38,0.11c-0.25,0.06-0.51,0.13-0.67,0.25c-0.2,0.14-0.33,0.3-0.48,0.49c-0.06,0.07-0.12,0.15-0.19,0.23     c-0.62,0.71-1.2,1.37-1.75,1.99C54.32,79.1,52.44,81.24,51.28,81.24z M51.97,74.26c-0.88,2.32-1.52,5.66-1.04,6.55     c0.06,0.11,0.13,0.17,0.22,0.19c1.01,0.21,2.93-1.97,8.05-7.81c0.54-0.62,1.13-1.28,1.75-1.99c0.07-0.07,0.13-0.15,0.18-0.22     c0.15-0.19,0.3-0.37,0.52-0.53c0.2-0.15,0.48-0.22,0.75-0.28c0.13-0.03,0.26-0.06,0.36-0.1c1.07-0.38,2.24-1.32,3.26-2.14     c0.25-0.2,0.49-0.4,0.73-0.58c0.02-0.02,0.04-0.03,0.07-0.05c0.16-0.12,0.46-0.34,0.38-0.52c0-0.01-0.01-0.01-0.03-0.02     c-0.27-0.08-1.2,0.44-1.79,0.8c-0.12,0.08-0.26,0.16-0.39,0.24c-0.05,0.03-0.12,0.02-0.16-0.04c-0.03-0.05-0.02-0.12,0.04-0.16     l0.02-0.01c0.12-0.08,0.24-0.15,0.35-0.22c1.8-1.13,2.21-1.65,2.16-1.79c0,0,0-0.01-0.02-0.01c-0.27-0.07-1.16,0.37-1.9,0.84     c-0.29,0.2-0.57,0.41-0.83,0.59c-0.05,0.04-0.12,0.03-0.16-0.02c-0.04-0.05-0.03-0.12,0.02-0.16c0.19-0.16,0.49-0.37,0.83-0.59     c0.16-0.11,0.33-0.23,0.49-0.34c0.45-0.32,0.91-0.64,1.3-0.93c0.08-0.06,0.13-0.17,0.14-0.25c0.01-0.07,0-0.11-0.01-0.12     c-0.01-0.02-0.15-0.14-1.13,0.36c-0.63,0.32-1.38,0.79-2.04,1.21c-0.05,0.03-0.12,0.02-0.16-0.03c-0.03-0.05-0.02-0.12,0.03-0.16     c0.36-0.26,0.81-0.57,1.26-0.89c0.45-0.31,0.89-0.63,1.26-0.89c0.09-0.06,0.14-0.18,0.15-0.26c0.01-0.06,0-0.09-0.01-0.1     c-0.03-0.03-0.2-0.04-0.26-0.02c-1.17,0.38-2.71,1.39-3.77,2.2c-0.03,0.03-0.08,0.03-0.12,0.01c-0.04-0.02-0.06-0.05-0.07-0.1     l0-0.03c-0.03-0.33-0.06-0.65,0.54-1.52c0.15-0.22,0.43-0.84,0.2-1.03c-0.12-0.1-0.21-0.03-0.46,0.25     c-0.04,0.04-0.07,0.08-0.11,0.12c-0.51,0.54-1.01,1.07-1.52,1.68c-0.63,0.75-0.83,1.3-1.01,1.84c-0.19,0.53-0.36,1.04-0.95,1.63     l0,0c0,0,0,0,0,0C56.87,71.08,52.83,74.06,51.97,74.26z"/>
            </g>
            <g>
                <path d="M62.46,68.64c-0.03,0-0.07-0.01-0.09-0.04c-0.04-0.05-0.03-0.12,0.01-0.16c0.47-0.39,0.64-1.09,0.41-1.65     c-0.04-0.11-0.1-0.21-0.16-0.32c-0.08-0.15-0.17-0.31-0.22-0.48c-0.02-0.06,0.02-0.12,0.08-0.14c0.06-0.02,0.12,0.02,0.14,0.08     c0.04,0.15,0.12,0.29,0.2,0.43c0.06,0.11,0.12,0.22,0.17,0.34c0.27,0.65,0.06,1.46-0.48,1.91     C62.51,68.63,62.48,68.64,62.46,68.64z"/>
            </g>
        </g>
        <g>
            <path d="M49.47,80.5c-0.02,0-0.03-0.01-0.04-0.03c-0.28-1.79-0.03-3.68,0.7-5.34c0.01-0.02,0.03-0.03,0.05-0.02    c0.02,0.01,0.03,0.03,0.02,0.05c-0.73,1.64-0.97,3.52-0.7,5.3C49.51,80.47,49.49,80.49,49.47,80.5    C49.47,80.5,49.47,80.5,49.47,80.5z"/>
        </g>
        <g>
            <path d="M48.66,80.21c-0.02,0-0.03-0.01-0.04-0.03c-0.19-0.63-0.21-1.31-0.06-1.96c0-0.02,0.03-0.03,0.05-0.03    c0.02,0,0.03,0.03,0.03,0.05c-0.15,0.63-0.13,1.29,0.06,1.92c0.01,0.02-0.01,0.04-0.03,0.05C48.67,80.21,48.66,80.21,48.66,80.21z    "/>
        </g>
        <g>
            <path class="st0" d="M26.41,80.17c3.25,0.55,6.53,1.06,9.81,1.57c0.3,0.02,1.78,0.14,2.15,0.17c0.31,0.02,0.62-0.02,0.93-0.09    c1.06-0.23,3.32-0.63,3.72-0.27c0.99,0.55,1.78,1.53,2.31,2.67c0.3,0.64,0.44,1.62,0.23,1.73c-0.13,0.07-0.31,0.08-0.41-0.05    c-0.26-1.18-0.95-2.27-1.91-3c0.44,0.4,0.82,0.84,1.15,1.33c0.33,0.49,0.61,1.06,0.58,1.66c0,0.05-0.01,0.1-0.04,0.13    c-0.08,0.08-0.21-0.01-0.29-0.1c-0.14-0.17-1.94-2.47-2.37-2.51c0.5,0.33,2.1,2.36,2.07,2.53c-0.01,0.08-0.05,0.16-0.11,0.21    c-0.09,0.07-0.22,0.07-0.32,0.03c-0.1-0.04-0.19-0.12-0.27-0.2c-0.54-0.53-1.01-1.14-1.63-1.58c-0.31-0.22-0.71-0.39-1.06-0.25    c0.56,0.37,1.05,0.83,1.43,1.38c0.06,0.09,0.11,0.18,0.14,0.29c0.04,0.15,0.08,0.36-0.04,0.45c-0.21,0.14-0.33,0.02-0.46-0.1    c-0.5-0.52-1.02-0.97-1.59-1.36c-0.18-0.12-0.39-0.24-0.59-0.17c-0.17,0.06-1.01,0.35-2.55,0.09c-0.52-0.09-1.05-0.07-1.74-0.04    c-9.04,0.42-11.79,0.77-13.65-0.58c-0.36-0.26-0.45-0.51-0.16-1.17C22.49,81.18,23.08,80.21,26.41,80.17z"/>
            <path d="M42.28,86.45c-0.15,0-0.27-0.11-0.35-0.19l-0.01-0.01c-0.51-0.53-1.02-0.97-1.58-1.35c-0.15-0.1-0.34-0.21-0.49-0.16    c-0.31,0.11-1.17,0.34-2.6,0.09c-0.52-0.09-1.07-0.07-1.71-0.04c-1.2,0.06-2.31,0.11-3.29,0.16c-6.57,0.33-8.79,0.44-10.43-0.76    c-0.44-0.32-0.49-0.64-0.2-1.31c0.79-1.79,1.4-2.81,4.8-2.85c0.01,0,0.01,0,0.02,0c3.29,0.56,6.6,1.07,9.8,1.57    c0.23,0.01,1.04,0.08,1.64,0.13c0.22,0.02,0.4,0.03,0.5,0.04c0.32,0.03,0.65-0.03,0.89-0.08c0.99-0.21,3.32-0.65,3.81-0.25    c0.95,0.54,1.76,1.48,2.34,2.72c0.25,0.54,0.52,1.7,0.18,1.88c-0.2,0.11-0.41,0.08-0.54-0.07c-0.01,0.04-0.03,0.08-0.06,0.11    c-0.04,0.05-0.1,0.07-0.17,0.07c-0.11,0-0.22-0.09-0.29-0.17c-0.01-0.01-0.03-0.04-0.06-0.08c-0.02-0.03-0.04-0.05-0.06-0.08    c0.02,0.06,0.03,0.1,0.03,0.12c-0.02,0.12-0.08,0.22-0.16,0.28c-0.11,0.09-0.28,0.11-0.44,0.04c-0.12-0.05-0.22-0.14-0.31-0.22    c-0.18-0.18-0.36-0.37-0.53-0.55c-0.34-0.36-0.68-0.73-1.09-1.02c-0.19-0.14-0.45-0.28-0.7-0.28c0.49,0.36,0.9,0.78,1.23,1.25    c0.07,0.1,0.12,0.2,0.15,0.32c0.03,0.11,0.13,0.43-0.09,0.58C42.43,86.43,42.35,86.45,42.28,86.45z M39.93,84.51    c0.19,0,0.38,0.11,0.53,0.21c0.57,0.39,1.09,0.84,1.61,1.38l0,0c0.13,0.12,0.19,0.16,0.31,0.08c0.02-0.02,0.07-0.08,0-0.32    c-0.03-0.09-0.07-0.18-0.12-0.25c-0.36-0.52-0.83-0.97-1.4-1.35c-0.04-0.02-0.06-0.06-0.05-0.11c0-0.04,0.03-0.08,0.07-0.09    c0.42-0.17,0.86,0.05,1.17,0.27c0.42,0.3,0.78,0.68,1.12,1.05c0.17,0.18,0.34,0.37,0.52,0.54c0.08,0.07,0.15,0.14,0.24,0.18    c0.06,0.03,0.15,0.03,0.21-0.01c0.03-0.03,0.06-0.07,0.07-0.13c-0.09-0.28-1.54-2.12-2.01-2.43c-0.04-0.03-0.06-0.08-0.04-0.13    c0.02-0.05,0.07-0.08,0.12-0.08c0.11,0.01,0.44,0.05,2.38,2.48c0.03,0.04,0.05,0.06,0.06,0.08c0.05,0.06,0.1,0.09,0.12,0.09    c0,0,0,0,0,0c0,0,0-0.01,0-0.05c0.03-0.48-0.15-0.98-0.56-1.59c-0.32-0.48-0.71-0.92-1.13-1.31c-0.05-0.04-0.05-0.11-0.01-0.16    c0.04-0.05,0.11-0.05,0.16-0.02c0.97,0.74,1.68,1.85,1.95,3.04c0.06,0.06,0.17,0.05,0.25,0.01c0.1-0.09,0.03-0.92-0.28-1.58    c-0.55-1.19-1.35-2.12-2.26-2.62c-0.01,0-0.01-0.01-0.02-0.01c-0.26-0.23-1.71-0.11-3.62,0.29c-0.26,0.06-0.61,0.12-0.96,0.09    c-0.1-0.01-0.28-0.02-0.5-0.04c-0.57-0.05-1.43-0.11-1.64-0.13c0,0-0.01,0-0.01,0c-3.2-0.5-6.51-1.01-9.8-1.57    c-3.26,0.04-3.81,0.96-4.59,2.71c-0.28,0.64-0.17,0.81,0.12,1.03c1.58,1.15,3.77,1.04,10.29,0.72c0.98-0.05,2.09-0.1,3.29-0.16    c0.65-0.03,1.21-0.06,1.76,0.04c1.38,0.24,2.2,0.02,2.49-0.08C39.82,84.52,39.88,84.51,39.93,84.51z M44.22,85.95L44.22,85.95    L44.22,85.95z"/>
        </g>
        <g>
            <g>
                <path class="st0" d="M90.74,55.7c0.4,1.7,0.32,3.81,0.32,3.81l-1.54,0.6c0,0-0.95,3.89,5.01,2.7c1.16-0.23,4.51-2.78,4.51-2.78     l-2.65-0.76c0,0-0.25-3.85-0.36-5.77C94.65,54.15,92.41,55.18,90.74,55.7z"/>
                <path d="M92.5,63.15c-1.15,0-2-0.28-2.54-0.84c-0.86-0.9-0.57-2.18-0.55-2.23c0.01-0.04,0.04-0.07,0.07-0.08l1.47-0.57     c0.01-0.39,0.02-2.21-0.32-3.7c-0.01-0.06,0.02-0.12,0.08-0.14c1.73-0.54,4.13-1.66,5.29-2.2c0.04-0.02,0.08-0.01,0.11,0.01     c0.03,0.02,0.05,0.05,0.06,0.09c0.09,1.74,0.31,5.12,0.35,5.68l2.57,0.74c0.04,0.01,0.07,0.05,0.08,0.09     c0.01,0.04-0.01,0.09-0.04,0.11c-0.14,0.1-3.39,2.56-4.56,2.8C93.79,63.07,93.11,63.15,92.5,63.15z M89.62,60.19     c-0.04,0.25-0.17,1.25,0.51,1.96c0.76,0.79,2.23,0.97,4.38,0.54c0.96-0.19,3.56-2.08,4.28-2.62l-2.43-0.69     c-0.05-0.01-0.08-0.06-0.08-0.1c0-0.04-0.24-3.65-0.35-5.6c-1.18,0.55-3.4,1.57-5.06,2.1c0.37,1.68,0.3,3.71,0.3,3.73     c0,0.05-0.03,0.09-0.07,0.1L89.62,60.19z M91.07,59.51L91.07,59.51L91.07,59.51z"/>
            </g>
            <g>
                <g>
                    <path class="st8" d="M87.09,44.98c-0.54,0.13-1.09-0.42-1.1-1c-0.01-0.58,0.4-1.11,0.9-1.37c0.5-0.26,1.08-0.29,1.65-0.37      c-0.21-0.57,0.06-1.25,0.53-1.61c0.47-0.36,1.09-0.45,1.67-0.38c0.38,0.05,0.76,0.16,1.06,0.41c0.3,0.25,0.5,0.64,0.49,1.07      c0.5-0.64,1.32-1.06,2.09-0.88c0.77,0.18,1.35,1.12,1.41,1.77c0.37-0.46,0.86-0.84,1.44-0.81c1.14,0.06,1.4,1.03,0.89,2.28      c0.61-0.3,1.52-0.04,1.8,0.85c0.22,0.66-0.03,1.71-0.48,2.22c-0.08,0.09-0.19,0.18-0.34,0.26c-0.18,0.98-0.4,2-0.74,3.29      c-0.24,0.93-0.66,1.97-1.16,2.81c-0.23,0.4-0.41,0.59-0.88,0.81c-0.03-0.4-0.45-0.61-0.51-1.01c-0.08-0.5,0.24-0.93-0.06-1.37      c-0.57-0.84-0.96-1.75-1.14-2.69c-0.15-0.77-0.15-1.58,0.21-2.3c0.13-0.25,0.31-0.49,0.54-0.7c-0.1-0.2-0.18-0.41-0.24-0.61      c-0.33,0.57-0.58,0.97-1.42,1.25c-0.61,0.2-1.34-0.04-1.55-0.63c-0.13,0.59-1.05,1.42-1.62,1.48c-0.58,0.06-0.79-0.21-1.02-0.76      c-0.51,0.45-0.89,0.91-1.41,1.11c-0.8,0.3-1.78-0.2-2.05-1.04C85.77,46.25,86.28,45.24,87.09,44.98z"/>
                </g>
            </g>
            <g>
                <g>
                    <path class="st0" d="M87.97,48.25c0-0.03,0-0.06,0-0.09c0.04-0.01,0.07-0.02,0.11-0.03c0.52-0.2,0.9-0.66,1.41-1.11      c0.23,0.55,0.45,0.82,1.02,0.76c0.58-0.06,1.49-0.89,1.62-1.48c0.21,0.58,0.93,0.83,1.55,0.63c0.84-0.27,1.08-0.67,1.42-1.25      c0.18,0.58,0.48,1.19,1.11,1.64c0.23,0.16,0.48,0.28,0.74,0.35c0.01,0.11,0.02,0.22,0.03,0.33c0.04,0.39,0.14,1.23,0.05,2.08      c0.65-0.54,1.19-0.45,1.6-0.04s0.37,1.06-0.02,1.46c-0.4,0.4-1.09,0.56-1.7,0.43c-0.16,1.03-0.4,3.09-1.11,4.01      c-0.76,0.97-2.11,1.59-3.5,1.61c-1.39,0.02-2.79-0.55-3.64-1.5c-0.96-1.07-1.18-2.49-1.1-3.82      C87.63,50.9,87.97,49.58,87.97,48.25z"/>
                    <path d="M92.21,57.66c-1.4,0-2.79-0.58-3.65-1.54c-0.85-0.94-1.23-2.26-1.13-3.9c0.04-0.58,0.12-1.17,0.21-1.74      c0.11-0.73,0.22-1.48,0.22-2.23c0-0.03,0-0.06,0-0.09c0-0.05,0.03-0.1,0.08-0.11c0.03-0.01,0.06-0.02,0.1-0.03      c0.37-0.14,0.67-0.42,1.01-0.75c0.12-0.11,0.24-0.22,0.36-0.34c0.03-0.02,0.07-0.03,0.1-0.03c0.04,0.01,0.07,0.03,0.08,0.07      c0.22,0.53,0.4,0.74,0.9,0.69c0.53-0.05,1.4-0.85,1.52-1.39c0.01-0.05,0.05-0.09,0.11-0.09c0.05,0,0.1,0.03,0.12,0.08      c0.19,0.54,0.88,0.73,1.4,0.55c0.82-0.27,1.04-0.66,1.35-1.19c0.02-0.04,0.07-0.06,0.11-0.06c0.05,0.01,0.08,0.04,0.1,0.08      c0.14,0.45,0.41,1.11,1.07,1.58c0.21,0.15,0.44,0.26,0.7,0.33c0.05,0.01,0.08,0.05,0.08,0.1c0.01,0.13,0.02,0.23,0.03,0.32      l0,0.03c0.04,0.36,0.12,1.07,0.07,1.82c0.56-0.36,1.1-0.32,1.54,0.12c0.44,0.45,0.43,1.16-0.02,1.62      c-0.39,0.39-1.05,0.58-1.69,0.48c-0.01,0.07-0.02,0.15-0.03,0.23c-0.17,1.14-0.42,2.87-1.08,3.71c-0.78,1-2.16,1.64-3.59,1.66      C92.26,57.66,92.24,57.66,92.21,57.66z M88.09,48.25C88.09,48.25,88.09,48.25,88.09,48.25C88.09,48.25,88.09,48.25,88.09,48.25      c0,0.77-0.11,1.53-0.22,2.26c-0.08,0.56-0.17,1.15-0.2,1.72c-0.1,1.58,0.26,2.84,1.07,3.73c0.83,0.92,2.19,1.48,3.56,1.46      c1.36-0.02,2.67-0.62,3.41-1.57c0.62-0.79,0.88-2.55,1.04-3.6c0.02-0.13,0.04-0.24,0.05-0.35c0-0.03,0.02-0.06,0.05-0.08      c0.03-0.02,0.06-0.02,0.09-0.02c0.6,0.13,1.24-0.03,1.6-0.39c0.37-0.37,0.38-0.94,0.02-1.3c-0.41-0.42-0.9-0.4-1.44,0.05      c-0.04,0.03-0.09,0.04-0.13,0.01c-0.04-0.02-0.07-0.07-0.06-0.11c0.09-0.82-0.01-1.64-0.05-2.03l0-0.03      c-0.01-0.08-0.02-0.16-0.02-0.25c-0.25-0.08-0.49-0.19-0.7-0.34c-0.6-0.43-0.9-1-1.07-1.46c-0.28,0.46-0.57,0.82-1.35,1.08      c-0.61,0.2-1.25,0-1.56-0.45c-0.29,0.59-1.08,1.25-1.63,1.31c-0.58,0.06-0.85-0.19-1.08-0.68c-0.08,0.08-0.16,0.15-0.24,0.23      c-0.35,0.33-0.68,0.64-1.09,0.8C88.11,48.24,88.1,48.24,88.09,48.25z M87.97,48.25L87.97,48.25L87.97,48.25z"/>
                </g>
            </g>
            <g>
                <path d="M89.21,50.18c-0.02-0.16,0.11-0.31,0.28-0.33c0.17-0.02,0.33,0.1,0.35,0.26c0.02,0.16-0.11,0.31-0.28,0.33     C89.38,50.46,89.23,50.35,89.21,50.18z"/>
            </g>
            <g>
                <path d="M93.6,50.42c-0.02-0.16,0.11-0.31,0.28-0.33c0.17-0.02,0.33,0.1,0.35,0.26c0.02,0.16-0.11,0.31-0.28,0.33     C93.78,50.7,93.62,50.58,93.6,50.42z"/>
            </g>
            <g>
                <path d="M92.3,55.58c-0.14,0-0.27-0.02-0.41-0.05c-0.06-0.02-0.1-0.08-0.08-0.14c0.02-0.06,0.08-0.1,0.14-0.08     c0.51,0.14,1.09-0.04,1.44-0.45c0.04-0.05,0.12-0.05,0.16-0.01c0.05,0.04,0.05,0.12,0.01,0.16     C93.25,55.37,92.77,55.58,92.3,55.58z"/>
            </g>
            <g>
                <path d="M91.55,53.93c-0.21,0-0.43-0.04-0.67-0.13c-0.12-0.04-0.26-0.11-0.37-0.22c-0.13-0.15-0.18-0.37-0.13-0.61     c0.04-0.17,0.11-0.31,0.18-0.46l0.03-0.06c0.38-0.77,0.58-1.64,0.57-2.5c0-0.06,0.05-0.12,0.12-0.12c0,0,0,0,0,0     c0.06,0,0.12,0.05,0.12,0.12c0,0.9-0.2,1.8-0.59,2.6l-0.03,0.07c-0.07,0.14-0.13,0.27-0.16,0.4c-0.03,0.16-0.01,0.31,0.08,0.41     c0.07,0.08,0.17,0.12,0.27,0.16c0.28,0.1,0.54,0.13,0.78,0.1c0.26-0.04,0.5-0.18,0.63-0.37c0.04-0.05,0.11-0.07,0.16-0.03     c0.05,0.04,0.07,0.11,0.03,0.16c-0.17,0.25-0.45,0.42-0.79,0.47C91.7,53.92,91.62,53.93,91.55,53.93z"/>
            </g>
            <g>
                <path d="M96.96,50.86c-0.01,0-0.01,0-0.02,0c-0.06-0.01-0.11-0.07-0.1-0.13c0.05-0.36,0.07-0.56,0.1-0.91     c0.01-0.06,0.06-0.11,0.13-0.11c0.06,0.01,0.11,0.06,0.11,0.13c-0.03,0.35-0.05,0.55-0.1,0.91     C97.07,50.82,97.02,50.86,96.96,50.86z"/>
            </g>
            <g>
                <path d="M86.85,47.37c-0.01,0-0.02,0-0.03-0.01c-0.3-0.31-0.41-0.79-0.27-1.19c0.01-0.02,0.03-0.03,0.05-0.02     c0.02,0.01,0.03,0.03,0.02,0.05c-0.13,0.38-0.03,0.83,0.25,1.11c0.01,0.02,0.01,0.04,0,0.05C86.87,47.37,86.86,47.37,86.85,47.37     z"/>
            </g>
            <g>
                <path d="M98.47,46.96c-0.01,0-0.02,0-0.03-0.01c-0.01-0.02-0.01-0.04,0-0.05c0.5-0.44,0.7-1.19,0.48-1.82     c-0.01-0.02,0-0.04,0.02-0.05c0.02-0.01,0.04,0,0.05,0.02c0.23,0.66,0.03,1.44-0.5,1.91C98.49,46.96,98.48,46.96,98.47,46.96z"/>
            </g>
        </g>
        <g>
            <g>
                <path class="st0" d="M71.02,68.25c-0.7-3.47-1.06-9.67-2.04-13.12c-0.91-0.9-1.86-2.34-2.23-3.65c-0.15-0.53-0.14-0.75,0.21-1.11     c0.26-0.26,0.72-0.17,1.01,0c-0.13-0.34-0.45-0.64-0.03-0.98c0.19-0.15,0.45-0.23,0.66-0.1c-0.11-0.68,0.65-1.08,1.07-0.42     c-0.32-0.84-0.62-1.59-0.95-2.36c-0.21-0.48-0.4-1.05-0.1-1.25c0.38-0.25,0.77,0.29,1.2,1.09c0.73,1.38,0.97,1.84,1.77,3.08     c0.76,1.17,1.37,3.32,0.78,4.11c0.04,1.4,3.25,10.19,4.51,12.13c0.46,0.71-0.14,1.17-0.45,1.95c-0.38,0.95-1.84,4.25-4.09,2.59     C71.7,69.75,71.06,68.46,71.02,68.25z"/>
                <path d="M73.57,70.8c-0.43,0-0.87-0.16-1.3-0.48c-0.67-0.5-1.32-1.81-1.36-2.04l0,0c-0.29-1.45-0.52-3.34-0.77-5.35     c-0.34-2.81-0.7-5.72-1.26-7.74c-0.83-0.83-1.84-2.29-2.24-3.69c-0.16-0.58-0.15-0.83,0.24-1.23c0.21-0.21,0.54-0.24,0.83-0.16     c-0.12-0.24-0.21-0.54,0.15-0.83c0.19-0.16,0.41-0.22,0.6-0.19c0.02-0.3,0.19-0.56,0.45-0.66c0.13-0.05,0.3-0.06,0.46,0     c-0.24-0.61-0.49-1.25-0.77-1.9c-0.24-0.56-0.43-1.16-0.06-1.4c0.12-0.08,0.25-0.1,0.38-0.07c0.3,0.08,0.59,0.43,1,1.21     l0.02,0.03c0.71,1.35,0.96,1.81,1.75,3.04c0.74,1.14,1.4,3.33,0.8,4.22c0.09,1.43,3.21,10.05,4.48,12.03     c0.37,0.57,0.12,1.02-0.15,1.48c-0.1,0.18-0.21,0.37-0.29,0.58c-0.39,0.99-1.24,2.7-2.5,3.06C73.89,70.78,73.73,70.8,73.57,70.8z      M67.41,50.33c-0.14,0-0.26,0.04-0.35,0.13c-0.31,0.32-0.32,0.49-0.18,0.99c0.38,1.37,1.38,2.79,2.19,3.6     c0.02,0.02,0.03,0.03,0.03,0.05c0.57,2.03,0.93,4.97,1.28,7.81c0.24,2,0.47,3.89,0.76,5.33c0.04,0.19,0.66,1.44,1.27,1.89     c0.53,0.39,1.06,0.52,1.56,0.38c1.16-0.33,1.96-1.97,2.34-2.92c0.09-0.23,0.21-0.43,0.31-0.61c0.26-0.45,0.44-0.78,0.15-1.23     c-1.23-1.9-4.49-10.68-4.53-12.19c0-0.03,0.01-0.06,0.02-0.08c0.53-0.71,0-2.75-0.79-3.97c-0.8-1.24-1.04-1.7-1.76-3.06     l-0.02-0.03c-0.23-0.43-0.56-1.01-0.84-1.08c-0.06-0.02-0.12-0.01-0.18,0.03c-0.25,0.16,0.05,0.86,0.15,1.09     c0.35,0.82,0.67,1.62,0.95,2.37c0.02,0.06,0,0.13-0.06,0.16c-0.06,0.03-0.13,0.01-0.16-0.04c-0.15-0.23-0.36-0.33-0.56-0.25     c-0.17,0.07-0.34,0.28-0.29,0.59c0.01,0.05-0.01,0.1-0.05,0.12c-0.04,0.03-0.09,0.03-0.14,0c-0.15-0.1-0.37-0.02-0.51,0.09     c-0.24,0.19-0.18,0.34-0.03,0.62c0.04,0.07,0.08,0.14,0.11,0.22c0.02,0.05,0.01,0.11-0.04,0.14c-0.04,0.03-0.1,0.04-0.15,0.01     C67.76,50.38,67.58,50.33,67.41,50.33z"/>
            </g>
            <g>
                <path d="M68.53,52.41c-0.11,0-0.22-0.03-0.32-0.1c-0.14-0.09-0.23-0.22-0.32-0.33l-0.39-0.53c-0.04-0.06-0.03-0.13,0.03-0.17     c0.06-0.04,0.13-0.03,0.17,0.03l0.39,0.53c0.08,0.1,0.15,0.21,0.25,0.27c0.09,0.06,0.2,0.07,0.27,0.04     c0.09-0.05,0.12-0.17,0.12-0.26c-0.01-0.12-0.06-0.25-0.12-0.36c-0.22-0.43-0.29-0.51-0.47-0.73c-0.07-0.08-0.16-0.19-0.27-0.34     c-0.04-0.05-0.03-0.13,0.02-0.18c0.05-0.04,0.13-0.03,0.18,0.02c0.11,0.15,0.2,0.25,0.27,0.33c0.19,0.23,0.26,0.32,0.5,0.78     c0.07,0.13,0.14,0.29,0.15,0.47c0.01,0.21-0.09,0.4-0.25,0.49C68.68,52.39,68.61,52.41,68.53,52.41z"/>
            </g>
            <g>
                <path d="M69.48,52.18c-0.14,0-0.28-0.08-0.4-0.15c-0.11-0.07-0.22-0.15-0.33-0.23c-0.05-0.04-0.07-0.12-0.02-0.17     c0.04-0.05,0.12-0.07,0.17-0.02c0.1,0.08,0.21,0.15,0.31,0.23c0.1,0.07,0.21,0.13,0.3,0.11c0.11-0.03,0.17-0.19,0.17-0.33     c0-0.22-0.2-0.79-1.16-2.2l-0.03-0.04c-0.04-0.06-0.02-0.13,0.03-0.17c0.06-0.04,0.13-0.02,0.17,0.03l0.03,0.04     c0.81,1.19,1.21,1.96,1.21,2.34c0,0.24-0.11,0.5-0.35,0.57C69.55,52.17,69.52,52.18,69.48,52.18z"/>
            </g>
            <g>
                <path d="M70.11,53.18c-0.05,0-0.1-0.04-0.12-0.09c-0.17-0.61,0.19-1.13,0.46-1.5c0.09-0.13,0.25-0.35,0.22-0.39     c-0.1-0.17-0.66-0.34-0.93-0.42c-0.15-0.05-0.22-0.07-0.26-0.09c-0.29-0.17-0.38-0.36-0.41-0.5c-0.02-0.12-0.01-0.24,0.05-0.31     c0.08-0.1,0.33-0.32,0.5-0.34c0.31-0.03,0.99,0.13,1.61,0.3c0.08,0.02,0.15,0.04,0.2,0.05c0.23,0.06,0.87,0.46,0.89,0.75     c0.01,0.07-0.05,0.13-0.12,0.13c-0.07,0.01-0.13-0.05-0.13-0.12c-0.01-0.12-0.48-0.48-0.7-0.53c-0.05-0.01-0.12-0.03-0.21-0.05     c-0.43-0.11-1.23-0.32-1.52-0.29c-0.07,0.01-0.26,0.15-0.32,0.23c-0.01,0.01-0.02,0.05-0.01,0.12c0.01,0.07,0.07,0.2,0.29,0.33     c0.02,0.01,0.12,0.04,0.21,0.07c0.47,0.14,0.93,0.3,1.07,0.53c0.11,0.19-0.04,0.4-0.23,0.67c-0.25,0.35-0.56,0.79-0.42,1.29     c0.02,0.07-0.02,0.14-0.09,0.15C70.13,53.18,70.12,53.18,70.11,53.18z"/>
            </g>
            <g>
                <path d="M70.15,49.83c-0.05,0-0.1-0.03-0.12-0.09c-0.04-0.12-0.2-0.39-0.32-0.6c-0.07-0.11-0.13-0.22-0.17-0.29     c-0.03-0.06-0.01-0.14,0.05-0.17c0.06-0.03,0.14-0.01,0.17,0.05c0.04,0.07,0.1,0.18,0.16,0.28c0.14,0.23,0.29,0.5,0.34,0.65     c0.02,0.07-0.01,0.14-0.08,0.16C70.17,49.83,70.16,49.83,70.15,49.83z"/>
            </g>
            <g>
                <path d="M70,51.88c-0.06,0-0.12-0.01-0.17-0.04c-0.06-0.03-0.09-0.1-0.06-0.17c0.03-0.06,0.1-0.09,0.17-0.06     c0.05,0.03,0.16,0.02,0.24-0.06c0.12-0.11,0.14-0.32,0.05-0.56c-0.02-0.06,0.01-0.14,0.08-0.16c0.06-0.02,0.14,0.01,0.16,0.08     c0.18,0.49-0.03,0.75-0.12,0.83C70.24,51.83,70.12,51.88,70,51.88z"/>
            </g>
        </g>
        <g>
            <g>
                <path class="st8" d="M107.79,80.95c-0.06,0.15-0.56,0.5-0.72,0.48c-0.48-0.09-2.89-2.36-2.89-1.33c0,2.07,0.93,4.82,0.93,4.82     s-12.2,4.67-18.13,0.54c-0.62-3.34-1.69-12.02-1.48-14.99c-0.04,0.01-0.08,0.02-0.12,0.03c-0.08,0.02-0.15,0.04-0.24,0.05     c-5.67,1.37-13.59,0.19-12.13-0.1c2.83-0.57,3.85-5.2,3.56-5.38c-0.31-0.2,4.23,0.1,7.94-3.22c2-1.79,5.08-1.94,5.59-2.15     c0.58,1.73,0.99,2.18,3.27,2.33c1.37,0.09,3.5-0.43,3.64-2.62c2.25,0.15,6.1,0.73,7.72,2.08c3.38,2.82,3.39,7.32,4.19,11.52     C109.67,76.86,108.19,80.01,107.79,80.95z"/>
            </g>
        </g>
        <g>
            <path d="M85.38,70.06c-0.01-0.57-0.02-1.53-0.08-2.98c-0.01-0.06-0.05-0.12-0.12-0.11c-0.07,0-0.12,0.05-0.12,0.12    c0.05,1.45,0.07,2.41,0.08,2.98c0.01,0.2,0.01,0.35,0.01,0.47c0.08-0.01,0.16-0.03,0.24-0.05C85.39,70.36,85.38,70.22,85.38,70.06    z"/>
        </g>
        <g>
            <path class="st0" d="M107.46,82.49c0.3,0.68,0.21,0.93-0.17,1.21c-1.92,1.4-4.76,1.03-14.08,0.6c-0.71-0.03-1.25-0.05-1.79,0.04    c-1.58,0.27-2.45-0.03-2.63-0.09c-0.21-0.08-0.43,0.05-0.61,0.17c-0.59,0.4-1.13,0.87-1.64,1.41c-0.13,0.12-0.26,0.25-0.48,0.1    c-0.13-0.09-0.09-0.31-0.05-0.47c0.03-0.1,0.08-0.2,0.14-0.29c0.39-0.56,0.9-1.04,1.47-1.42c-0.36-0.15-0.77,0.04-1.09,0.26    c-0.64,0.45-1.12,1.08-1.68,1.63c-0.08,0.08-0.17,0.16-0.28,0.21c-0.11,0.04-0.24,0.04-0.33-0.03c-0.07-0.05-0.1-0.14-0.12-0.22    c-0.03-0.18,1.61-2.27,2.13-2.61c-0.44,0.05-2.29,2.41-2.44,2.59c-0.07,0.09-0.21,0.18-0.29,0.1c-0.03-0.03-0.04-0.09-0.04-0.13    c-0.04-0.61,0.25-1.2,0.6-1.71c0.34-0.5,0.74-0.97,1.19-1.37c-0.99,0.76-1.7,1.87-1.97,3.09c-0.1,0.13-0.28,0.13-0.42,0.06    c-0.22-0.12-0.07-1.13,0.24-1.79c0.55-1.17,1.36-2.19,2.38-2.76c0.41-0.37,2.74,0.04,3.84,0.28c0.31,0.07,0.64,0.11,0.96,0.09    c0.38-0.03,1.91-0.15,2.22-0.17c3.38-0.53,6.76-1.05,10.11-1.62C106.05,79.66,106.65,80.66,107.46,82.49z"/>
            <path d="M86,86.02c-0.22-0.15-0.13-0.49-0.09-0.6c0.04-0.12,0.09-0.23,0.16-0.33c0.34-0.49,0.76-0.92,1.27-1.29    c-0.26,0.01-0.52,0.15-0.72,0.29c-0.41,0.29-0.77,0.68-1.12,1.05c-0.18,0.19-0.36,0.38-0.55,0.57c-0.09,0.09-0.19,0.18-0.32,0.23    c-0.16,0.07-0.33,0.05-0.45-0.04c-0.08-0.07-0.14-0.17-0.16-0.29c0-0.03,0.01-0.07,0.03-0.13c-0.02,0.03-0.04,0.05-0.07,0.08    c-0.03,0.04-0.05,0.07-0.06,0.08c-0.07,0.08-0.18,0.17-0.3,0.17c-0.07,0-0.13-0.02-0.17-0.07c-0.03-0.03-0.05-0.07-0.06-0.12    c-0.13,0.15-0.36,0.18-0.56,0.07c-0.35-0.19-0.07-1.38,0.19-1.94c0.6-1.28,1.43-2.25,2.42-2.8c0.5-0.41,2.91,0.04,3.93,0.26    c0.25,0.05,0.59,0.11,0.92,0.09c0.1-0.01,0.29-0.02,0.52-0.04c0.62-0.05,1.46-0.12,1.69-0.13c3.3-0.51,6.71-1.04,10.1-1.62    c0.01,0,0.01,0,0.02,0c3.51,0.04,4.14,1.09,4.95,2.93c0.3,0.69,0.25,1.02-0.2,1.35c-1.7,1.23-3.98,1.12-10.76,0.78    c-1.01-0.05-2.15-0.11-3.39-0.16c-0.66-0.03-1.23-0.06-1.77,0.04c-1.48,0.26-2.37,0.02-2.69-0.1c-0.16-0.06-0.35,0.06-0.51,0.16    c-0.57,0.39-1.1,0.85-1.63,1.39l-0.01,0.01c-0.09,0.08-0.21,0.19-0.36,0.19C86.18,86.11,86.09,86.08,86,86.02z M88.84,84.13    c0.3,0.11,1.14,0.33,2.57,0.09c0.56-0.1,1.15-0.07,1.82-0.04c1.24,0.06,2.39,0.11,3.4,0.16c6.72,0.33,8.98,0.45,10.61-0.74    c0.31-0.22,0.42-0.4,0.13-1.06c-0.8-1.81-1.37-2.75-4.73-2.79c-3.39,0.57-6.8,1.1-10.1,1.62c0,0-0.01,0-0.01,0    c-0.22,0.01-1.11,0.08-1.69,0.13c-0.23,0.02-0.42,0.03-0.52,0.04c-0.36,0.03-0.72-0.03-0.99-0.09c-1.97-0.42-3.47-0.54-3.73-0.3    c-0.01,0.01-0.01,0.01-0.02,0.02c-0.93,0.52-1.76,1.48-2.33,2.7c-0.32,0.69-0.39,1.54-0.29,1.63c0.08,0.04,0.19,0.06,0.26-0.01    c0.27-1.23,1-2.37,2.01-3.13c0.05-0.04,0.12-0.03,0.16,0.02c0.04,0.05,0.04,0.12-0.01,0.16c-0.44,0.4-0.84,0.86-1.17,1.35    c-0.42,0.63-0.61,1.15-0.58,1.64c0,0.04,0.01,0.06,0,0.06c0,0,0,0,0,0c0.02,0,0.07-0.03,0.12-0.09c0.01-0.01,0.03-0.04,0.06-0.08    c2-2.51,2.34-2.54,2.45-2.56c0.05-0.01,0.11,0.03,0.12,0.08c0.02,0.05,0,0.11-0.05,0.14c-0.48,0.32-1.98,2.22-2.08,2.51    c0.01,0.06,0.04,0.11,0.07,0.13c0.06,0.04,0.15,0.04,0.21,0.01c0.09-0.04,0.16-0.11,0.24-0.18c0.18-0.18,0.36-0.37,0.54-0.56    c0.35-0.38,0.72-0.77,1.16-1.08c0.31-0.22,0.77-0.45,1.2-0.27c0.04,0.02,0.07,0.05,0.07,0.1c0,0.04-0.02,0.09-0.05,0.11    c-0.59,0.39-1.07,0.86-1.44,1.39c-0.05,0.08-0.1,0.17-0.12,0.26c-0.07,0.25-0.03,0.32,0,0.33c0.13,0.09,0.18,0.05,0.32-0.08l0,0    c0.53-0.55,1.07-1.02,1.66-1.42c0.15-0.11,0.35-0.22,0.55-0.22C88.72,84.1,88.78,84.11,88.84,84.13z M84.25,85.59L84.25,85.59    L84.25,85.59z"/>
        </g>
    </g>
    </svg>