<svg xmlns="http://www.w3.org/2000/svg" width="145" height="105" viewBox="0 0 145 105">
    <g id="Group_252" data-name="Group 252" transform="translate(1925.23 2072.253)">
      <path id="Path_312" data-name="Path 312" d="M-1906.039-2004.977s2.354-19.16,2.354-20.036.281-6.892.233-7.505,2.229-1.856,2.229-1.856l7.66.761,5.149-1.145s1.437-2.2,1.636-2.527,3.316-6.32,3.316-6.32l6-8.835,2.019-3.188,8.692-.483a28.771,28.771,0,0,1,4.7.854c.793.408,5.664.864,6.108.921s7.878.416,7.878.416l1.385,2.115s1.68,2.594,1.735,2.868,2.573,4.435,2.573,4.435l5.968,5.857,6.483,4.38,2.942,1.507,5.411.3s1.2,1.423,1.2,1.918.208,14.335.259,15.214.472,6.99.5,7.325.277,3.289.277,3.289l-3.444.307-5.333,1.459-3.426,2.154-5.243,2.685c-2.81,1.426-5.982,2.032-8.757,3.527-3.573,1.923-2.916,14.363-2.916,14.363l.373,3.056-28.307-.879-2.982-21.3h-5.214l-5.045-3.864Z" transform="translate(-2.305 -1.778)" fill="#70b5e9"/>
      <path id="Path_313" data-name="Path 313" d="M-1917.618-2035.4a43.315,43.315,0,0,1,8.36.246,2.9,2.9,0,0,1,1.59.546,2.929,2.929,0,0,1,.748,1.879c1.5,11.19-.934,22.492-3.36,33.519a3.654,3.654,0,0,1-1.395,2.578,3.629,3.629,0,0,1-2.157.216l-8.4-.879" transform="translate(0 -4.713)" fill="none" stroke="#000" stroke-miterlimit="10" strokeWidth="2"/>
      <path id="Path_314" data-name="Path 314" d="M-1905.359-1995.695a56.157,56.157,0,0,1,12.685.569,9.944,9.944,0,0,1,4.265,1.437c.838.6,1.49,1.418,2.3,2.055a3.189,3.189,0,0,0,2.857.769" transform="translate(-2.402 -10.36)" fill="none" stroke="#000" stroke-miterlimit="10" strokeWidth="2"/>
      <path id="Path_315" data-name="Path 315" d="M-1901.794-2033.9l5.194.387c2.39.177,4.954.317,7.014-.908,2.224-1.324,3.306-3.9,4.44-6.222a48.88,48.88,0,0,1,7.449-11.1,5.114,5.114,0,0,0,1.623-2.83" transform="translate(-2.909 -1.997)" fill="none" stroke="#000" stroke-miterlimit="10" strokeWidth="2"/>
      <path id="Path_316" data-name="Path 316" d="M-1874.063-2057.7c-1.983-.291-4.174-.7-5.378-2.3a6.142,6.142,0,0,1-.948-2.171,14.991,14.991,0,0,1-.482-4.151" transform="translate(-5.887 -0.325)" fill="none" stroke="#000" stroke-miterlimit="10" strokeWidth="2"/>
      <path id="Path_317" data-name="Path 317" d="M-1871.905-2057.358a52.214,52.214,0,0,1,8.839-.254c7.2.472,14.425,2.92,21.489,1.451a3.53,3.53,0,0,0,1.366-.509,3.579,3.579,0,0,0,1.091-1.646,22.722,22.722,0,0,0,1.566-10.286" transform="translate(-7.164 0)" fill="none" stroke="#000" stroke-miterlimit="10" strokeWidth="2"/>
      <path id="Path_318" data-name="Path 318" d="M-1838.053-2053.037a10.42,10.42,0,0,0,2.582,6.193c1.408,1.791,3.089,3.362,4.41,5.219a6.415,6.415,0,0,1,1.06,2.073,7.913,7.913,0,0,1,.014,2.892l-.888,7.469" transform="translate(-11.984 -2.215)" fill="none" stroke="#000" stroke-miterlimit="10" strokeWidth="2"/>
      <path id="Path_319" data-name="Path 319" d="M-1827.651-2038.079a65.076,65.076,0,0,0,6.67,5.943,12.051,12.051,0,0,0,2.1,1.474c2.216,1.123,4.859.784,7.316.418" transform="translate(-13.464 -4.345)" fill="none" stroke="#000" stroke-miterlimit="10" strokeWidth="2"/>
      <path id="Path_320" data-name="Path 320" d="M-1796.386-2038.484l-8.4-.027a2.027,2.027,0,0,0-1.34.313,1.943,1.943,0,0,0-.527,1.089,43.683,43.683,0,0,0-.758,10.635q.2,13,1.428,25.962a8.158,8.158,0,0,0,.436,2.262c1.1,2.78,4.641,3.486,7.616,3.791" transform="translate(-16.343 -4.284)" fill="none" stroke="#000" stroke-miterlimit="10" strokeWidth="2"/>
      <path id="Path_321" data-name="Path 321" d="M-1809.732-1996.184a25.347,25.347,0,0,0-5.424.881c-3.82,1.135-7.084,3.588-10.607,5.452" transform="translate(-13.733 -10.309)" fill="none" stroke="#000" stroke-miterlimit="10" strokeWidth="2"/>
      <path id="Path_322" data-name="Path 322" d="M-1818.018-2050.085a32.667,32.667,0,0,0,5.449.807" transform="translate(-14.836 -2.636)" fill="none" stroke="#000" stroke-miterlimit="10" strokeWidth="2"/>
      <path id="Path_323" data-name="Path 323" d="M-1820.891-2053.57l2.281-3" transform="translate(-14.427 -1.713)" fill="none" stroke="#000" stroke-miterlimit="10" strokeWidth="2"/>
      <path id="Path_324" data-name="Path 324" d="M-1825.221-2057.643a19.8,19.8,0,0,1,3.472-9.233" transform="translate(-13.81 -0.246)" fill="none" stroke="#000" stroke-miterlimit="10" strokeWidth="2"/>
      <path id="Path_325" data-name="Path 325" d="M-1879.064-2040.021v8.54" transform="translate(-6.145 -4.068)" fill="none" stroke="#000" stroke-miterlimit="10" strokeWidth="2"/>
      <path id="Path_326" data-name="Path 326" d="M-1894.638-1988.125c-2.5.157-4.413,2.437-6.882,2.858-.889.152-2.025.191-2.357,1.031" transform="translate(-2.613 -11.457)" fill="none" stroke="#000" stroke-miterlimit="10" strokeWidth="2"/>
      <path id="Path_327" data-name="Path 327" d="M-1890.844-1983.366a3.068,3.068,0,0,0-1.744.687" transform="translate(-4.22 -12.134)" fill="none" stroke="#000" stroke-miterlimit="10" strokeWidth="2"/>
      <path id="Path_328" data-name="Path 328" d="M-1889.1-1979.234q-1.365,3.97-2.361,8.055" transform="translate(-4.381 -12.723)" fill="none" stroke="#000" stroke-miterlimit="10" strokeWidth="2"/>
      <path id="Path_329" data-name="Path 329" d="M-1877.829-1956.905c.189-3.056.617-6.549,3.146-8.272a8.328,8.328,0,0,1,3.359-1.17c4.337-.725,8.775-.218,13.143.291l10.064,1.171c2.913.34,5.946.72,8.4,2.326,1.681,1.1,3.074,3.064,2.6,5.015" transform="translate(-6.321 -14.506)" fill="none" stroke="#000" stroke-miterlimit="10" strokeWidth="2"/>
      <path id="Path_330" data-name="Path 330" d="M-1839.09-1974.454c-1.031-5.227-1.964-11.045.866-15.561,1.069-1.705,2.6-3.077,3.684-4.775a17.248,17.248,0,0,0,2.182-6.312c.78-4.4.689-9.378-2.194-12.8-.97-1.15-2.538-2.111-3.924-1.525-1.833.775-1.763,3.361-1.384,5.315" transform="translate(-11.691 -7.545)" fill="none" stroke="#000" stroke-miterlimit="10" strokeWidth="2"/>
      <path id="Path_331" data-name="Path 331" d="M-1841.2-2013.024c-1.333-7.236.414-14.634.974-21.971a3.124,3.124,0,0,0-.136-1.5,3.2,3.2,0,0,0-1.159-1.2c-1.4-1.01-3.134-2.068-4.733-1.423-1.748.7-2.163,2.946-2.323,4.824l-1.112,13.023a39.322,39.322,0,0,0,.064,10.714" transform="translate(-10.279 -4.17)" fill="none" stroke="#000" stroke-miterlimit="10" strokeWidth="2"/>
      <path id="Path_332" data-name="Path 332" d="M-1860.811-2010.1c.542-10.195-2.019-20.815,1.469-30.409a8.175,8.175,0,0,1,2.429-3.815,3.548,3.548,0,0,1,4.244-.24c1.327,1.064,1.341,3.04,1.239,4.738l-.18,2.985" transform="translate(-8.686 -3.337)" fill="none" stroke="#000" stroke-miterlimit="10" strokeWidth="2"/>
      <path id="Path_333" data-name="Path 333" d="M-1869.763-2006.2q.208-9.226-.408-18.447c-.219-3.272-.481-6.73.985-9.664.577-1.156,1.7-2.3,2.967-2.028,1.071.23,1.671,1.359,2.033,2.393a18.959,18.959,0,0,1,1,7.79" transform="translate(-7.387 -4.588)" fill="none" stroke="#000" stroke-miterlimit="10" strokeWidth="2"/>
      <path id="Path_334" data-name="Path 334" d="M-1873.639-1977.557c.435-7.13-1.942-14.086-3.226-21.113a69.7,69.7,0,0,1,.189-25.973c.387-1.959,1.45-4.371,3.442-4.232" transform="translate(-6.298 -5.655)" fill="none" stroke="#000" stroke-miterlimit="10" strokeWidth="2"/>
    </g>
    <g id="Rectangle_198" data-name="Rectangle 198" fill="none" stroke="transparent" strokeWidth="1">
      <rect width="145" height="105" stroke="none"/>
      <rect x="0.5" y="0.5" width="144" height="104" fill="none"/>
    </g>
  </svg>
  