<svg width="107" height="93" viewBox="0 0 107 93" fill="none" xmlns="http://www.w3.org/2000/svg">
<path d="M20.722 78.3737L60.9174 36.6786L85.5348 10.5497" stroke="white" stroke-dasharray="4 4"/>
<path d="M64.1745 25.178C64.2472 25.7141 64.1792 26.0911 64.0324 26.3267C63.1249 27.3869 61.6099 27.6774 59.9034 27.3916C58.1958 27.1056 56.429 26.2572 55.2206 25.2432C53.965 24.1896 52.8691 23.0011 52.3366 21.8062C52.0733 21.2155 51.9554 20.6404 52.0085 20.0866C52.0607 19.5432 52.2805 18.9863 52.7469 18.4245C53.0341 18.1449 53.4907 17.9223 54.0969 17.7923C54.7081 17.6612 55.4355 17.6324 56.2081 17.7138C57.7596 17.8773 59.4176 18.4761 60.6009 19.4692C61.8183 20.4907 62.9058 21.9396 63.5623 23.308C63.8904 23.9917 64.1009 24.6349 64.1745 25.178Z" stroke="white"/>
<path d="M52.3827 19.0862C51.3778 20.5933 50.3788 22.6022 50.8758 23.6074C51.3728 24.6126 55.7306 28.5888 57.9089 29.1334C59.9184 29.6357 62.9311 27.6263 63.9358 26.6216" stroke="white"/>
<path d="M70.365 51.9048C70.4376 52.4409 70.3696 52.8179 70.2229 53.0535C69.3154 54.1137 67.8003 54.4043 66.0938 54.1184C64.3862 53.8324 62.6194 52.984 61.411 51.97C60.1554 50.9165 59.0596 49.7279 58.527 48.533C58.2637 47.9423 58.1458 47.3672 58.199 46.8134C58.2511 46.27 58.4709 45.7131 58.9374 45.1513C59.2246 44.8717 59.6812 44.6491 60.2873 44.5191C60.8985 44.388 61.626 44.3592 62.3985 44.4406C63.95 44.6041 65.608 45.2029 66.7914 46.196C68.0087 47.2175 69.0962 48.6664 69.7527 50.0348C70.0808 50.7185 70.2913 51.3617 70.365 51.9048Z" stroke="white"/>
<path d="M58.5731 45.813C57.5682 47.3201 56.5693 49.329 57.0663 50.3342C57.5633 51.3394 61.921 55.3156 64.0993 55.8602C66.1088 56.3625 69.1215 54.3531 70.1262 53.3484" stroke="white"/>
<path d="M58.3073 64.9666C58.38 65.5026 58.312 65.8797 58.1652 66.1152C57.2577 67.1755 55.7427 67.466 54.0362 67.1802C52.3286 66.8942 50.5618 66.0458 49.3534 65.0318C48.0978 63.9782 47.0019 62.7897 46.4694 61.5948C46.2061 61.0041 46.0882 60.429 46.1414 59.8752C46.1935 59.3318 46.4133 58.7749 46.8798 58.2131C47.167 57.9335 47.6236 57.7108 48.2297 57.5808C48.8409 57.4497 49.5684 57.421 50.3409 57.5024C51.8924 57.6658 53.5504 58.2647 54.7338 59.2577C55.9511 60.2793 57.0386 61.7282 57.6951 63.0965C58.0232 63.7803 58.2337 64.4235 58.3073 64.9666Z" stroke="white"/>
<path d="M46.5155 58.8748C45.5106 60.3818 44.5116 62.3908 45.0086 63.396C45.5057 64.4012 49.8634 68.3774 52.0417 68.922C54.0512 69.4243 57.0639 67.4149 58.0686 66.4102" stroke="white"/>
<path d="M45.2468 79.0323C45.3195 79.5683 45.2514 79.9454 45.1047 80.1809C44.1972 81.2412 42.6822 81.5317 40.9756 81.2459C39.268 80.9599 37.5012 80.1115 36.2928 79.0975C35.0373 78.0439 33.9414 76.8554 33.4088 75.6605C33.1456 75.0698 33.0277 74.4947 33.0808 73.9408C33.133 73.3974 33.3528 72.8406 33.8192 72.2787C34.1064 71.9992 34.563 71.7765 35.1692 71.6465C35.7804 71.5154 36.5078 71.4867 37.2803 71.5681C38.8319 71.7315 40.4898 72.3304 41.6732 73.3234C42.8905 74.3449 43.978 75.7939 44.6346 77.1622C44.9626 77.846 45.1732 78.4891 45.2468 79.0323Z" stroke="white"/>
<path d="M33.455 72.9404C32.4501 74.4475 31.4511 76.4565 31.9481 77.4617C32.4451 78.4669 36.8029 82.4431 38.9812 82.9876C40.9906 83.49 44.0034 81.4805 45.0081 80.4758" stroke="white"/>
<path d="M50.2701 37.8395C50.3428 38.3756 50.2748 38.7526 50.128 38.9882C49.2205 40.0484 47.7055 40.339 45.999 40.0531C44.2914 39.7671 42.5245 38.9188 41.3162 37.9047C40.0606 36.8512 38.9647 35.6626 38.4322 34.4678C38.1689 33.8771 38.051 33.302 38.1041 32.7481C38.1563 32.2047 38.3761 31.6478 38.8425 31.086C39.1297 30.8065 39.5863 30.5838 40.1925 30.4538C40.8037 30.3227 41.5311 30.2939 42.3036 30.3753C43.8552 30.5388 45.5131 31.1377 46.6965 32.1307C47.9139 33.1522 49.0014 34.6011 49.6579 35.9695C49.986 36.6532 50.1965 37.2964 50.2701 37.8395Z" stroke="white"/>
<path d="M38.4784 31.7476C37.4735 33.2546 36.4745 35.2636 36.9715 36.2688C37.4686 37.274 41.8263 41.2502 44.0046 41.7948C46.0141 42.2971 49.0268 40.2877 50.0315 39.283" stroke="white"/>
<path d="M47.5 92.0001C57.535 90.6912 108.5 23.1238 105.276 23.1238C98.1205 23.1238 62.5188 75.0437 39.8311 90.3143C41.4308 91.4778 43.3115 92.0001 47.5 92.0001Z" fill="#BEE8FF"/>
<path d="M38.2136 50.9012C38.2863 51.4372 38.2182 51.8143 38.0715 52.0498C37.164 53.1101 35.649 53.4006 33.9424 53.1148C32.2348 52.8288 30.468 51.9804 29.2596 50.9664C28.0041 49.9128 26.9082 48.7243 26.3756 47.5294C26.1124 46.9387 25.9945 46.3636 26.0476 45.8097C26.0997 45.2663 26.3196 44.7095 26.786 44.1476C27.0732 43.8681 27.5298 43.6454 28.1359 43.5154C28.7472 43.3843 29.4746 43.3556 30.2471 43.437C31.7987 43.6004 33.4566 44.1993 34.64 45.1923C35.8573 46.2138 36.9448 47.6628 37.6014 49.0311C37.9294 49.7149 38.14 50.358 38.2136 50.9012Z" stroke="white"/>
<path d="M26.4218 44.8093C25.4169 46.3164 24.4179 48.3254 24.9149 49.3306C25.4119 50.3358 29.7697 54.3119 31.948 54.8565C33.9574 55.3589 36.9702 53.3494 37.9749 52.3447" stroke="white"/>
<path d="M25.153 64.9666C25.2257 65.5026 25.1577 65.8797 25.011 66.1152C24.1034 67.1755 22.5884 67.466 20.8819 67.1802C19.1743 66.8942 17.4075 66.0458 16.1991 65.0318C14.9435 63.9782 13.8477 62.7897 13.3151 61.5948C13.0518 61.0041 12.9339 60.429 12.9871 59.8752C13.0392 59.3318 13.259 58.7749 13.7255 58.2131C14.0127 57.9335 14.4693 57.7108 15.0754 57.5808C15.6866 57.4497 16.4141 57.421 17.1866 57.5024C18.7381 57.6658 20.3961 58.2647 21.5795 59.2577C22.7968 60.2793 23.8843 61.7282 24.5408 63.0965C24.8689 63.7803 25.0794 64.4235 25.153 64.9666Z" stroke="white"/>
<path d="M13.3602 58.8748C12.3553 60.3818 11.3564 62.3908 11.8534 63.396C12.3504 64.4012 16.7081 68.3774 18.8865 68.922C20.8959 69.4243 23.9086 67.4149 24.9134 66.4102" stroke="white"/>
<path d="M84.4304 37.8392C84.5031 38.3752 84.435 38.7522 84.2883 38.9878C83.3808 40.048 81.8658 40.3386 80.1592 40.0528C78.4516 39.7668 76.6848 38.9184 75.4764 37.9044C74.2209 36.8508 73.125 35.6623 72.5924 34.4674C72.3292 33.8767 72.2113 33.3016 72.2644 32.7477C72.3165 32.2043 72.5364 31.6474 73.0028 31.0856C73.29 30.8061 73.7466 30.5834 74.3527 30.4534C74.964 30.3223 75.6914 30.2936 76.4639 30.3749C78.0155 30.5384 79.6734 31.1373 80.8568 32.1303C82.0741 33.1518 83.1616 34.6008 83.8182 35.9691C84.1462 36.6529 84.3568 37.296 84.4304 37.8392Z" stroke="white"/>
<path d="M72.6386 31.7473C71.6337 33.2544 70.6347 35.2634 71.1317 36.2686C71.6287 37.2738 75.9865 41.2499 78.1648 41.7945C80.1742 42.2969 83.187 40.2874 84.1917 39.2827" stroke="white"/>
<path d="M96.487 24.7774C96.5597 25.3134 96.4917 25.6905 96.3449 25.926C95.4374 26.9863 93.9224 27.2768 92.2159 26.991C90.5083 26.705 88.7415 25.8566 87.5331 24.8426C86.2775 23.789 85.1816 22.6005 84.6491 21.4056C84.3858 20.8149 84.2679 20.2398 84.321 19.686C84.3732 19.1425 84.593 18.5857 85.0594 18.0238C85.3466 17.7443 85.8032 17.5216 86.4094 17.3916C87.0206 17.2605 87.748 17.2318 88.5206 17.3132C90.0721 17.4766 91.7301 18.0755 92.9134 19.0685C94.1308 20.09 95.2183 21.539 95.8748 22.9073C96.2029 23.5911 96.4134 24.2343 96.487 24.7774Z" stroke="white"/>
<path d="M84.6942 18.6855C83.6893 20.1926 82.6903 22.2016 83.1874 23.2068C83.6844 24.212 88.0421 28.1882 90.2204 28.7327C92.2299 29.2351 95.2426 27.2257 96.2473 26.2209" stroke="white"/>
<path d="M75.0259 10.9878C75.1911 11.5029 75.1899 11.886 75.0866 12.1436C74.3782 13.346 72.9372 13.8966 71.207 13.9132C69.4757 13.9298 67.5878 13.403 66.2209 12.6157C64.8007 11.7975 63.5141 10.8187 62.781 9.73513C62.4187 9.19948 62.2021 8.65381 62.1577 8.0992C62.1142 7.55502 62.2334 6.96833 62.5945 6.33367C62.8285 6.00827 63.2392 5.70928 63.8133 5.47542C64.3922 5.2396 65.1035 5.08427 65.8783 5.02949C67.4346 4.91947 69.1716 5.2196 70.5103 5.99071C71.8873 6.78393 73.2111 8.0207 74.0965 9.25335C74.539 9.86932 74.8586 10.4658 75.0259 10.9878Z" stroke="white"/>
<path d="M62.3517 7.04881C61.6254 8.70822 60.9926 10.8608 61.6575 11.7637C62.3224 12.6667 67.3076 15.8207 69.5476 15.9765C71.6139 16.1203 74.2294 13.6156 75.0432 12.4508" stroke="white"/>
<path d="M1.24205 60.7763C-0.744523 64.8031 9.8043 70.329 21.851 78.3599C28.8939 83.055 42.4577 93.4376 47.4713 92.426C56.8609 90.5314 105.557 25.619 105.745 24.105C106.245 20.0849 68.0681 -2.01864 64.5516 1.49882C50.4855 13.0522 8.47238 46.1206 1.24205 60.7763Z" stroke="white"/>
<path d="M40.1116 22.6984L60.9205 36.6717L81.3051 51.8353" stroke="white" stroke-dasharray="4 4"/>
<path d="M26.7565 34.6558L47.3552 49.7315L69.9618 64.8028" stroke="white" stroke-dasharray="4 4"/>
<path d="M12.9318 47.4963L33.5305 62.572L57.9065 78.3672" stroke="white" stroke-dasharray="4 4"/>
<path d="M52.1737 10.6368L72.9773 23.1078L93.574 36.6716" stroke="white" stroke-dasharray="4 4"/>
</svg>
