<svg xmlns="http://www.w3.org/2000/svg" width="451" viewBox="0 0 581 448" fill="none">
    <path d="M351.587 266.541V309.355M351.587 309.355H371.587M351.587 309.355H331.587M371.587 309.355H374.664V317H329.279V309.355H331.587M371.587 309.355V304.003M331.587 309.355V304.003M331.587 274.951V266.541H371.587V274.951M331.587 274.951H371.587M331.587 274.951V281.832M371.587 274.951V281.832M331.587 281.832H371.587M331.587 281.832V289.477M371.587 281.832V289.477M331.587 289.477H371.587M331.587 289.477V296.358M371.587 289.477V296.358M331.587 296.358H371.587M331.587 296.358V304.003M371.587 296.358V304.003M371.587 304.003H331.587M213.126 79.2324H249.279M213.126 79.2324V151.098M213.126 79.2324H204.664V67H258.51V79.2324H249.279M249.279 79.2324V105.991" stroke="black"/>
    <path d="M169.533 378.229V228.599M180.268 378.229V247.109M180.268 214.715V228.599M388.827 214.715V228.599M388.827 378.229V247.109M397.262 226.285V378.229M180.268 247.109H388.827M180.268 247.109V228.599M388.827 247.109V228.599M180.268 228.599H388.827M240.075 370.516V267.163H198.67V370.516M194.836 378.229V370.516H243.142V378.229M284.547 267.163V311.127M284.547 311.127H304.483M284.547 311.127H263.845M304.483 311.127H307.55V319.611H261.545V311.127H263.845M304.483 311.127V304.956M263.845 311.127V304.956M263.845 276.418V267.163H304.483V276.418M263.845 276.418H304.483M263.845 276.418V284.131M304.483 276.418V284.131M263.845 284.131H304.483M263.845 284.131V291.073M304.483 284.131V291.073M263.845 291.073H304.483M263.845 291.073V298.786M304.483 291.073V298.786M263.845 298.786H304.483M263.845 298.786V304.956M304.483 298.786V304.956M263.845 304.956H304.483M160.332 240.168L283.781 80.5109L408.763 240.168L415.664 230.912L283.781 62L152.664 228.599L160.332 240.168ZM230.107 321.925H233.941V331.951H230.107V321.925ZM230.874 279.504V304.185H207.104V279.504H230.874ZM187.168 307.27H194.836V322.696H187.168V307.27Z" stroke="black"/>
    <path d="M178.664 378H397.664" stroke="black"/>
    <path d="M387.162 163H496.662V180.5H491.162V378H533.662V355C524.496 354.167 505.562 348.7 503.162 333.5C500.762 318.3 522.496 286.5 533.662 272.5C545.496 286.667 568.162 319 564.162 335C560.162 351 542.162 355 533.662 355V378H579.663V395H22.6631V378H32.1632V335C-14.2368 328.2 12.3298 234.667 32.1632 188C50.4966 237.5 76.1633 336.2 32.1632 335V378H77.1631V355C47.9631 351.4 64.9964 293.167 77.1631 264.5C88.1631 294.667 103.563 355 77.1631 355V378H443.162V180.5H395.662H387.162V175V163Z" fill="#50B8E7"/>
    <path d="M340 133.5C330 95.5 358.962 19 374.162 1C384.163 9.5 418.162 115 400.662 162M395.662 180.5H387.162V175M395.662 180.5V205.5M395.662 180.5H443.162M443.162 180.5V378M443.162 180.5H467.162M467.162 180.5V378M467.162 180.5H491.162M491.162 180.5H496.662V163H387.162V175M491.162 180.5V378M533.662 320V355M533.662 378V355M533.662 355C524.496 354.167 505.562 348.7 503.162 333.5C500.762 318.3 522.496 286.5 533.662 272.5C545.496 286.667 568.162 319 564.162 335C560.162 351 542.162 355 533.662 355ZM213.662 129.5C200.662 123.333 172.062 119.5 161.662 153.5C159.662 161.1 163.162 171.667 165.162 176C159.996 169.167 146.763 159.6 135.163 176C122.663 168.5 104.663 160 93.1629 173C83.9629 183.4 81.9963 197.333 82.1629 203C72.663 199.333 50.6632 194.7 38.6632 205.5M5.16322 294C-1.33678 308 -5.03678 344.4 32.1632 378V335M77.1631 316.5V355M77.1631 378V355M32.1632 272.5V335M32.1632 335C76.1633 336.2 50.4966 237.5 32.1632 188C12.3298 234.667 -14.2368 328.2 32.1632 335ZM77.1631 355C103.563 355 88.1631 294.667 77.1631 264.5C64.9964 293.167 47.9631 351.4 77.1631 355ZM387.162 175C382.362 180.2 375.163 177.167 372.163 175V91M22.6631 378H579.663V395H22.6631V378Z" stroke="black"/>
    <path d="M495.999 114C499.499 105 509.599 89.3 521.999 98.5C534.399 107.7 525.499 114 519.499 116M62.9992 148.5C49.9986 145 50.5992 124.6 62.9992 127C66.3331 128.167 72.0006 131.5 68 135.5M519.499 131C521.666 134.5 524.699 142.2 519.499 145M521.999 148.5C524.499 146.5 530.1 143.7 532.5 148.5M523.5 131C525.167 134 528.1 139.1 532.5 135.5M536.5 139C533.667 139.833 529.7 142.2 536.5 145" stroke="black"/>
    <path d="M87.4316 123.495C85.1787 120.05 81.9548 112.428 87.0827 109.499M84.4962 106.062C82.0466 108.124 76.5176 111.063 73.9987 106.324M83.4321 123.594C81.6909 120.637 78.6316 115.612 74.3227 119.32M70.2367 115.921C73.0484 115.017 76.9548 112.552 70.0872 109.923" stroke="black"/>
    <path d="M453.432 447.495C451.179 444.05 447.955 436.428 453.083 433.499M450.496 430.062C448.047 432.124 442.518 435.063 439.999 430.324M449.432 447.594C447.691 444.637 444.632 439.612 440.323 443.32M436.237 439.921C439.048 439.017 442.955 436.552 436.087 433.923" stroke="black"/>
    </svg>