<svg xmlns="http://www.w3.org/2000/svg" xmlns:xlink="http://www.w3.org/1999/xlink" version="1.1" id="Layer_1" x="0px" y="0px" viewBox="0 0 715.5 566.2" style="enable-background:new 0 0 715.5 566.2;" xml:space="preserve">
    <style type="text/css">
        .st0{clip-path:url(#SVGID_3_);}
        .st1{clip-path:url(#SVGID_4_);}
        .st2{clip-path:url(#SVGID_7_);}
        .st3{clip-path:url(#SVGID_8_);}
        .st4{fill:#6BB6E1;stroke:#231F20;stroke-width:0.75;stroke-miterlimit:10;}
        .st5{fill:#E8F4FA;stroke:#231F20;stroke-width:0.75;stroke-miterlimit:10;}
        .st6{fill:#FFFFFF;stroke:#231F20;stroke-width:0.75;stroke-miterlimit:10;}
        .st7{fill:none;stroke:#231F20;stroke-width:0.75;stroke-miterlimit:10;}
        .st8{fill:#FFFFFF;}
        .st9{fill:none;stroke:#231F20;stroke-width:0.75;stroke-linecap:round;stroke-linejoin:round;stroke-miterlimit:10;}
        .st10{fill:#FFFFFF;stroke:#231F20;stroke-width:0.75;stroke-linecap:round;stroke-linejoin:round;stroke-miterlimit:10;}
        .st11{fill:none;stroke:#231F20;stroke-width:0.75;stroke-linejoin:round;stroke-miterlimit:10;}
        .st12{fill:#231F20;}
        .st13{fill:#E6E6E6;stroke:#231F20;stroke-width:0.75;stroke-miterlimit:10;}
        .st14{fill:#C5E6FB;stroke:#231F20;stroke-width:0.75;stroke-miterlimit:10;}
        .st15{fill:#484844;stroke:#231F20;stroke-width:0.75;stroke-miterlimit:10;}
        .st16{fill:#6BB6E1;stroke:#231F20;stroke-width:0.5;stroke-miterlimit:10;}
        .st17{fill:#FFFFFF;stroke:#000000;stroke-width:0.75;stroke-linecap:round;stroke-linejoin:round;}
        .st18{fill:none;stroke:#000000;stroke-width:0.75;}
        .st19{fill:none;stroke:#000000;stroke-width:0.75;stroke-linecap:round;stroke-linejoin:round;}
        .st20{fill:#6BB6E1;stroke:#000000;stroke-width:0.75;stroke-linecap:round;stroke-linejoin:round;}
        .st21{fill:#C5E6FB;}
        .st22{fill:#E8F4FA;stroke:#000000;stroke-width:0.75;}
        .st23{fill:#E8F4FA;stroke:#000000;stroke-width:0.75;stroke-linecap:round;stroke-linejoin:round;}
        .st24{fill:none;stroke:#000000;stroke-width:0.25;stroke-linecap:round;stroke-linejoin:round;}
        .st25{fill:#FFFFFF;stroke:#000000;stroke-width:0.5;stroke-linecap:round;stroke-linejoin:round;}
        .st26{fill:none;stroke:#000000;stroke-width:0.4;stroke-linecap:round;}
        .st27{fill:none;stroke:#000000;stroke-width:0.5;stroke-linecap:round;}
        .st28{fill:none;stroke:#000000;stroke-width:0.5;}
        .st29{fill:#FFFFFF;filter:url(#Adobe_OpacityMaskFilter);}
        .st30{mask:url(#path-10-inside-1_836_15546_2_);}
        .st31{fill:#FFFFFF;filter:url(#Adobe_OpacityMaskFilter_1_);}
        .st32{mask:url(#path-10-inside-1_836_15546_1_);}
        .st33{fill:#FFFFFF;stroke:#000000;stroke-width:0.5;}
        .st34{fill:none;stroke:#000000;stroke-width:0.5;stroke-linecap:round;stroke-linejoin:round;}
        .st35{fill:none;stroke:#000000;stroke-width:0.25;}
    </style>
    <g>
        <defs>
            <polygon id="SVGID_1_" points="-27.9,-13.5 -26.9,-13.5 -27.9,-12.5   "/>
        </defs>
        <defs>
            <polygon id="SVGID_2_" points="-29.9,-15.5 -30.9,-15.5 -29.9,-16.5   "/>
        </defs>
        <clipPath id="SVGID_3_">
            <use xlink:href="#SVGID_1_" style="overflow:visible;"/>
        </clipPath>
        <clipPath id="SVGID_4_" class="st0">
            <use xlink:href="#SVGID_2_" style="overflow:visible;"/>
        </clipPath>
        <path class="st1" d="M168.3,246.2L168.3,246.2h2l0,0H168.3z M170.3,246.2L170.3,246.2h-2l0,0H170.3z"/>
    </g>
    <g>
        <defs>
            <polygon id="SVGID_5_" points="-27.9,-13.5 -26.9,-13.5 -27.9,-12.5   "/>
        </defs>
        <defs>
            <polygon id="SVGID_6_" points="-29.9,-15.5 -30.9,-15.5 -29.9,-16.5   "/>
        </defs>
        <clipPath id="SVGID_7_">
            <use xlink:href="#SVGID_5_" style="overflow:visible;"/>
        </clipPath>
        <clipPath id="SVGID_8_" class="st2">
            <use xlink:href="#SVGID_6_" style="overflow:visible;"/>
        </clipPath>
        <path class="st3" d="M229.9,255.3L229.9,255.3h2l0,0H229.9z M231.9,255.3L231.9,255.3h-2l0,0H231.9z"/>
    </g>
    <g>
        <polygon class="st4" points="327,177.2 292.3,263.1 607.6,263.1 572.9,176.5  "/>
        <rect x="302.8" y="267.1" class="st5" width="292.7" height="231.2"/>
        <rect x="458.6" y="301.7" class="st6" width="113.5" height="87.9"/>
        <rect x="451.5" y="389.6" class="st6" width="127.5" height="9.8"/>
        <g>
            <rect x="463.8" y="306.2" class="st6" width="31.8" height="23.2"/>
            <rect x="499.4" y="306.2" class="st6" width="31.8" height="23.2"/>
            <rect x="535.1" y="306.2" class="st6" width="31.8" height="23.2"/>
            <rect x="463.8" y="334.1" class="st6" width="31.8" height="23.2"/>
            <rect x="499.4" y="334.1" class="st6" width="31.8" height="23.2"/>
            <rect x="535.1" y="334.1" class="st6" width="31.8" height="23.2"/>
            <rect x="463.8" y="361.9" class="st6" width="31.8" height="23.2"/>
            <rect x="499.4" y="361.9" class="st6" width="31.8" height="23.2"/>
            <rect x="535.1" y="361.9" class="st6" width="31.8" height="23.2"/>
        </g>
    </g>
    <g>
        <path class="st6" d="M68.9,495.9l2,42.5c0.1,2.8,2.4,4.9,5.2,4.9h0c2.9,0,5.2-2.3,5.2-5.2L81,494.8L68.9,495.9z"/>
        <path class="st6" d="M429.5,495.9l2,42.5c0.1,2.8,2.4,4.9,5.2,4.9l0,0c2.9,0,5.2-2.3,5.2-5.2l-0.3-43.4L429.5,495.9z"/>
        <path class="st6" d="M90.4,456l2,42.5c0.1,2.8,2.4,4.9,5.2,4.9h0c2.9,0,5.2-2.3,5.2-5.2l-0.3-43.4L90.4,456z"/>
        <path class="st6" d="M405.4,456l2,42.5c0.1,2.8,2.4,4.9,5.2,4.9h0c2.9,0,5.2-2.3,5.2-5.2l-0.3-43.4L405.4,456z"/>
        <path class="st6" d="M66,496h377.1c19.3,0,36.5-12,43.1-30.1l19.3-53c6.8-18.6,0.9-39.5-14.7-51.7l-14.4-11.3   c-29.8-23.5-65-39.5-102.3-46.5h0c-11-2.1-22.4-1.8-33.3,0.9l-5.3,1.3c-46.2,11.1-89.7,31-128.3,58.7l0,0   c-10.3,7.4-23.3,10.2-35.7,7.7l-68.1-13.6c-2.1-0.4-4.2-0.7-6.4-0.8l-46.5-2.6c-7-0.4-14,0.8-20.4,3.5l0,0   c-22.5,9.5-33.7,35-25.2,58L23,465.9C29.6,484,46.8,496,66,496z"/>
        <path class="st7" d="M7.4,378.8L7.4,378.8c8.2,3.9,14.4,11.2,16.9,20L47,478.2c1,3.5,1.4,7.1,1.2,10.7l-0.2,3.5"/>
        <path class="st4" d="M427.5,447.2c0,0,1.8-77.3,78.8-63.4c-0.7-1.1-2.6-10.3-9.5-17.6c0,0.4-13.4-1.9-16.9-9.2   c0.7,0.4-10.3-8.4-24.6,13.9c0.4,0.7-35.6,22-34.1,63.8C421.6,434,428.6,441.4,427.5,447.2z"/>
        <path class="st7" d="M78.9,464.8c0,0,9.5-25.7,42.2-22.7c-0.7,0,306.4,5.1,306.4,5.1s0-25.7-49.5-24.6c-0.7-0.4-280-11-293.6,2.2   c0.7,0.4,7.3,15,0,21.3C84.4,447.2,75.6,454.2,78.9,464.8z"/>
    </g>
    <g>
        <polygon class="st8" points="191.4,272.7 208.3,304.3 228.4,287.3 239.2,271.3 244.6,249.8 245.1,241.4 232.8,234 197.9,243    197.1,259.3  "/>
        <g>
            <path class="st6" d="M212.3,520.1l15.7,22.3c2.8,3.9,3.9,8.8,3.2,13.6l0,0c-0.1,0.9-1,1.5-1.9,1.3c-7.1-1.6-35-8.3-44.5-17    c-2.2-2-2.5-5.3-1-7.8c4.1-6.6,13.1-20.6,13.1-20.6L212.3,520.1z"/>
            <circle class="st7" cx="196.5" cy="530.2" r="3"/>
            <path class="st9" d="M212,531.5c0,0,4.1-3.4,6.3-3.2"/>
            <path class="st9" d="M213.6,535.3c0,0,4.1-3.4,6.3-3.2"/>
            <path class="st9" d="M215.8,538.2c0,0,4.1-3.4,6.3-3.2"/>
            <path class="st9" d="M218,541.1c0,0,4.1-3.4,6.3-3.2"/>
        </g>
        <g>
            <path class="st6" d="M189.8,523.2l15.7,22.3c2.8,3.9,3.9,8.8,3.2,13.6l0,0c-0.1,0.9-1,1.5-1.9,1.3c-7.1-1.6-35-8.3-44.5-17    c-2.2-2-2.5-5.3-1-7.8c4.1-6.6,13.1-20.6,13.1-20.6L189.8,523.2z"/>
            <circle class="st7" cx="174" cy="533.2" r="3"/>
            <path class="st9" d="M189.5,534.5c0,0,4.1-3.4,6.3-3.2"/>
            <path class="st9" d="M191.1,538.3c0,0,4.1-3.4,6.3-3.2"/>
            <path class="st9" d="M193.3,541.3c0,0,4.1-3.4,6.3-3.2"/>
            <path class="st9" d="M195.5,544.2c0,0,4.1-3.4,6.3-3.2"/>
        </g>
        <path class="st4" d="M190,513.9l40.4-79.4l-57.6-13.4c-10.5-2.4-16.9-13.1-14.1-23.6l1.4-5.2c2.2-8.2,10.4-13.4,18.8-11.8   c19.8,3.6,57.6,12.3,79.6,26.4c6.1,3.9,9.7,10.9,9.1,18.2c-0.4,5.1-1.5,11-4.1,15.5c-1.9,3.2-3.8,6.3-5.5,9.6   c-10.1,19.2-42.2,76-42.2,76S194.2,522.8,190,513.9z"/>
        <path class="st4" d="M168.5,516.9l40.4-79.4L151.3,424c-10.5-2.4-16.9-13.1-14.1-23.6l1.4-5.2c2.2-8.2,10.4-13.4,18.8-11.8   c19.8,3.6,57.6,12.3,79.6,26.4c6.1,3.9,9.7,10.9,9.1,18.2c-0.4,5.1-1.5,11-4.1,15.5c-1.9,3.2-3.8,6.3-5.5,9.6   c-10.1,19.2-42.2,76-42.2,76S172.7,525.8,168.5,516.9z"/>
        <path class="st10" d="M233,346.8l8.5,8.5c3.6,3.6,8.9,4.7,13.6,3l44-16.4c0,0,12.2,1.1,13.6,0.2c0.2-0.1,7.4-2.1,8.8-4   c0.3-0.4,0-0.9-0.4-1c-0.8-0.2-2.7-0.2-6.4,0.5c-1,0.2-2.1,0.1-3-0.4c-0.8-0.5-1.3-1.1-0.4-2c-0.1-0.1,7.9-4,11.8-2.3   c-0.2-0.5,4.9,0.9,4.9-1.3c0-0.1,0.5-0.5,1.1-1.1c0.7-0.7,0.7-1.8,0.1-2.5l-1.2-1.3l0,0c0.4-0.8,0.3-1.8-0.3-2.5   c-0.3-0.4-0.7-0.7-1.2-1c-0.8-0.4-1.9-1-3.3-1.6c-4.7-1.9-10-1.5-14.4,0.9c-4,2.2-9.2,5-11.5,6.2c-0.8,0.4-1.6,0.7-2.5,0.9   l-43.5,8.6L233,346.8z"/>
        <path class="st9" d="M316.4,328.7c0,0,11.6,0,11.5,2.7"/>
        <path class="st9" d="M315.9,326.1c0,0,13.6,0,13.5,2.7"/>
        <path class="st9" d="M316.5,323.3c0,0,11.6,0,11.5,2.7"/>
        <path class="st6" d="M153.9,351.6c0,0-8.8,20.6-7.9,28.7c0.2,1.5,1.4,2.7,2.9,3c8.5,1.3,49.5,11.1,52.9,9.6   c0.5,0,19.3-0.2,19.5-1.7c0,0,4.1-23.4,3.6-36.4c-0.5-0.5,30.8-11.3,31.1-20.5c0-0.2-18.8-35.4-29.4-40.7c0-0.5-44.3-21-48.2-19.5   c2.4-0.2-0.2,8.9-0.2,8.9l-10.8,0.8c-3.4,0.3-6.6,2.1-8.4,5.1c-6,9.6-18.5,32-15.1,46.5c0.2,0.9,0.6,1.8,1,2.7   C146,340.6,149.8,349.8,153.9,351.6z"/>
        <path class="st11" d="M153.9,351.6c0,0,25.9-5.6,26.7-14.8c0.3-0.5-0.8-5.2-4.5-7.1c1,0.5,3-35.3-8.7-46"/>
        <path class="st7" d="M225.9,315c0,0,2.4,21-0.5,32.5"/>
        <path class="st6" d="M160.3,349.9l3.1,9.9c1.4,4.1,4.4,7.5,8.3,9.4l40.6,19.9c0,0,10.7,5.6,16.3,5.3c1-0.1,2.1,0.3,2.8,1l3.6,3.3   l0.8,0.1c1.2,0.1,2.3-0.8,2.3-2.1v-0.1l1,0.1c1.1,0.1,2.1-0.8,2.2-1.9l0.1-0.8l0,0c1.2-0.1,2.1-1.1,1.9-2.3l-0.1-1.2l1-0.5   c0.7-0.4,1.1-1.1,1.1-1.9v-1.4l-8.7-8.5c-1.1-1.1-2.7-1.6-4.3-1.3c-3.2,0.6-8.8,1.4-11.3,0.2c0.8,0.1-37.4-22.6-39.8-28.5   c0.4,0.2-4.3-6.7-4.3-6.7l-7.7,4.7L160.3,349.9z"/>
        <path class="st7" d="M238.2,396.7c0,0-4.2-5.9-8-6.9"/>
        <path class="st7" d="M241.4,394c0,0-4.2-5.9-8-6.9"/>
        <path class="st7" d="M243.2,390.3c0,0-4.2-5.9-8-6.9"/>
        <path class="st4" d="M233.8,295.8c1.6-1.9,0.3-4.2,2.7-7.8c1.6-2.3,3.9-3.7,4.7-4.4c4.9-4.2,5.6-4.3,6.2-5.6   c1.3-2.7-0.6-6.2-2.6-10.4c-1.7-3.5-2.6-3.9-2.5-5.6c0.2-2.7,2.7-3,5.2-7c0.8-1.2,2.9-4.5,2.6-8.7c-0.1-0.8-0.2-7-3.9-8.3   c-1.8-0.6-4.3,0-5.5,1.7c-1.2,1.8,1.4,3.8,1.8,7.3c0.3,3.1-1.2,4.5-3.3,9.1c-4.1,8.6-2.2,10.8-6.4,17.9c-3.1,5.1-5.3,6-6.1,6.3   c-3.8,1.4-6.4-2.6-9.6-1.5c-3.3,1.2-5.4,7-4.1,11.2C215.6,298.2,230.3,300,233.8,295.8z"/>
        <path class="st7" d="M225.3,266.3c0,0,3.9,1.2,4.4,0c-0.2,0.2-0.5-7.8,1.2-9.8"/>
        <path class="st7" d="M217.7,264.2c0,0-0.3,3.4,2.3,4.4"/>
        <path class="st7" d="M235.1,254.5c0,0,3.9-1.1,5.9,1.2"/>
        <path class="st7" d="M227.3,250.8c0,0,0.2-1.4-3-2"/>
        <circle class="st12" cx="221.9" cy="255.8" r="0.8"/>
        <circle class="st12" cx="234.9" cy="260.7" r="0.8"/>
        <path class="st4" d="M154.7,296.1c-0.9,1.7-3.1-8.9-1.6-11.3c2.4-3.8,5.9-2.9,8.8-6.6c2.8-3.5,0.4-5.5,2.9-10.1   c2.1-3.9,5.8-6.1,11.8-9.6c4.8-2.8,7.5-3.5,8.5-6.4c0.9-2.5-0.7-3.4,0-5.8c1.2-4.1,7.1-4.1,14.2-8.2c6.7-3.7,6.2-6.3,11.2-9.1   c7.3-4.2,16-4.1,22.5-1.4c2.3,0.9,7,2.8,7.8,6.9c0.4,1.9,0.1,4.5-1.6,5.9c-2.2,1.8-4.7-0.4-7.7,1.1c-2.9,1.5-2.4,4.5-4.6,6.9   c-3.3,3.5-10.3,3.6-14.9,1.4c-2.7-1.2-3.7-2.9-5.4-2.4c-1.9,0.6-3.4,3.4-2.9,5.8c0.6,3,4.2,3.2,4.6,5.8c0.4,2.4-2.7,3.3-4.6,7   c-2.6,5.1,1,7.5-1,13.4c-2,6.2-7,6.3-7.4,11.2c-0.4,5.1,4.7,7.9,3.5,10.4c-1.4,3.1-9.1,4.2-14.2,1.3c-5.4-3.1-7.8-10.6-7.9-15.9   c0-2.8,0.2-2.5-0.6-3.2C172.7,280.1,157.7,290.3,154.7,296.1z"/>
    </g>
    <g>
        <path class="st6" d="M611.6,455.8c11.2-13.9,41.3-15.6,54.7-0.6c1.5-0.8,3-1.8,3.5-3.6c1.8-6.9,3.5-13.9,3.1-21.2   c-0.1-1.2-0.2-2.2-1.8-2.7c-7.3-2.1-14.8-2.5-22.3-2.5c-0.7,0-1.1,0.3-1.3,0.8c-1,2.2-2.9,3.1-5.2,3.2c-2.8,0.2-5.5,0.4-8.2-0.1   c-1.5-0.2-2.9-0.8-3.7-2.1c-0.7-1.2-1.7-1.3-2.9-1.2c-7.1,0.4-14,1.5-20.9,3c-1.6,0.4-2.2,1.1-2.2,2.7c-0.1,6.5,1.4,12.8,3.1,19   C608.2,453.1,609.2,454.9,611.6,455.8z"/>
        <path class="st13" d="M603.3,367.4c-1.2,1.2-1.6,2.7-2.1,4.1c-1.2,3.5-0.5,6.3,2.5,8.8c3.9,3.1,8.3,4.9,13.2,5.5   c13.6,1.8,27.1,1.6,40.7-0.1c5.4-0.7,10.4-2.3,14.6-5.9c4.4-3.7,4.6-8.9,0.5-13.1c-1.8,2.4-4.6,3.5-7.4,4.2   c-18.1,5.2-36.2,5.4-54.4,0.6C608,370.9,605.3,369.8,603.3,367.4z"/>
        <path class="st6" d="M604.3,365.9c2.2,2.8,5.5,3.5,8.6,4.4c10.8,3.2,21.9,2.9,33,2.5c7.2-0.2,14.3-2,21.1-4.3   c1.9-0.6,3.5-1.7,4.8-3.3c-3.7-4.3-8.6-6.1-13.9-7.5c-8.2-2.2-16.7-1.5-25.1-1.5c-6.6-0.1-13,1.3-19.3,3.5   C609.8,360.8,606.9,363,604.3,365.9z"/>
        <path class="st4" d="M675.5,379.5c-3,2.7-5.8,4.8-9.1,5.9c-1.4,0.5-1.9,1.1-1.7,2.5c0.7,4.5-1.3,7.7-5,10.2   c-5.2,3.4-11.1,1-12.2-4.9c-0.2-1.5-0.5-2.9-0.7-4.4c-5.7,0.1-11.3,0.2-16.9,0.2c-0.2,1.6-0.4,3.1-0.6,4.5   c-0.9,5.5-6.6,8.2-11.6,5.3c-4-2.3-6.2-5.5-5.8-10.3c0.1-0.7,0.5-1.7-0.5-2.1c-3.8-1.3-7.1-3.2-10.4-6.2c0,3.5,0.3,6.3,0,9.1   c-0.2,2.5,0.9,4,2.8,5.3c3.9,2.7,8.1,5.1,12.7,6.3c14.8,4.1,29.6,4,44.3-0.5c4.6-1.4,8.7-3.9,12.5-6.7c1.2-0.8,2.5-1.7,2.5-3.5   C675.6,386.9,675.6,383.6,675.5,379.5z"/>
        <path class="st6" d="M602.1,395.9c1,3.2,2,5.5,3.5,7.6c3.5,5.1,8.9,6.9,14.6,8.8c7.1,2.3,14.4,1.5,21.7,1.7   c7,0.1,13.6-1.2,20.1-3.9c3.9-1.6,7.2-3.9,9.5-7.4c1.4-2.1,2.5-4.4,3-7.4c-11,7.9-23.1,10.2-36,10.4   C625.5,405.8,613.3,403.7,602.1,395.9z"/>
        <path class="st6" d="M654,539c7.5-4.7,14.4-2.5,21.5,1.2c-0.9-12.2-1-24.2-9.3-34c-0.2,3.6-2.3,5.5-5.2,6.9s-6,1.2-9.2,0.5   C652.7,522,653.6,530.2,654,539z"/>
        <path class="st6" d="M627.3,513.7c-3.3,0.9-6.3,1-9.2-0.3c-3-1.3-5.1-3.4-5.3-7c-8.1,10.3-8,22.2-8.6,34.4c7.2-4,14-6,21.4-1.7   C625.8,530.5,626.6,522.2,627.3,513.7z"/>
        <path class="st6" d="M625.2,472.3c-0.2,0.8-0.3,1.3,0.1,1.8c2.2,2.5,3.5,5.2,4.3,8.3c0.2,1,1.2,1.3,2,1.5   c5.1,0.9,10.2,0.8,15.2-0.2c1.3-0.2,2-1.1,2.3-2.4c0.6-2.7,1.8-5.2,3.7-7.3c0.6-0.7,0.8-1.3,0.2-2   C643.8,472.8,634.5,472.9,625.2,472.3z"/>
        <path class="st6" d="M664.5,500.4c0.6-7.4-0.2-14.6,0-21.6c0.1-2-0.4-3.9-0.6-5.9c-0.1-0.8-0.4-1.6-1.3-1.8   c-2.2-0.5-4.4-0.9-6.6-0.4c-0.6,8.9-3.1,17.5-3.7,26.3C657.2,495.8,658.3,496.1,664.5,500.4z"/>
        <path class="st6" d="M614.1,500.4c-0.6-7.4,0.2-14.6,0-21.6c-0.1-2,0.4-3.9,0.6-5.9c0.1-0.8,0.4-1.6,1.3-1.8   c2.2-0.5,4.4-0.9,6.6-0.4c0.6,8.9,3.1,17.5,3.7,26.3C621.4,495.8,620.3,496.1,614.1,500.4z"/>
        <path class="st6" d="M613.5,456.6c2.2,0.7,4.3,0.6,6.5,0.6c1.4,0,2.4-0.4,3-1.8c0.8-1.7,2.2-2.9,3.9-3.8c7.9-4.5,16-4.5,24-0.3   c1.5,0.8,2.9,1.7,3.5,3.2c0.9,1.9,2.3,2.6,4.4,2.4c1.8-0.2,3.9,0.3,5.5-1.1C654.6,442.2,621,442.6,613.5,456.6z"/>
        <path class="st6" d="M624.6,458.8c9.7-0.1,19.3-0.2,28.8-0.3c0.6-2.2-0.5-3.5-1.9-4.6c-6.2-5.1-19.1-4.9-25.1,0.3   C625,455.5,624,456.8,624.6,458.8z"/>
        <path class="st13" d="M629.7,416c0.2,2.9,0.9,5.6,1.5,8.4c0.5,1.9,1.5,2.9,3.5,3.1c2.8,0.2,5.5,0.2,8.2-0.2c1.5-0.2,2.6-0.9,3-2.4   c0.7-3,1.5-5.9,1.5-9.2C641.5,415.9,635.6,416,629.7,416z"/>
        <path class="st4" d="M628.7,506.9c-0.5-6.9-1.5-8.2-5.8-8.2c-4.4-0.1-8,3.8-7.9,8.2c0.1,3.5,3.5,5.8,8.6,5.7   C627.1,512.5,628.8,510.8,628.7,506.9z"/>
        <path class="st4" d="M650.2,506.3c0,3.9,1,5.4,4.1,5.8c2.8,0.3,5.5-0.1,7.8-1.9c1-0.8,1.7-1.8,1.8-3.2c0.5-4.5-3.4-8.7-8.1-8.7   c-2.8,0-4.5,1.2-5.1,4C650.5,503.6,650.1,505,650.2,506.3z"/>
        <path class="st6" d="M650.2,545.1c9.8,0.8,18.9,0.3,28.4,1.2c-4.4-5.6-9.7-8.5-16.3-8.2C657.4,538.3,653.5,540.7,650.2,545.1z"/>
        <path class="st6" d="M628.9,545.5c0.1-0.2,0.2-0.5,0.2-0.8c-2.9-3.8-6.9-6.1-11.8-6.2c-6.6-0.2-11.9,2.8-16,8.3   C610.8,546.4,619.8,546,628.9,545.5z"/>
        <path class="st14" d="M609.3,475.9c-4.3-2.8-8.9-4.9-13.6-7.2c-3.2-1.5-3.2-1.8-1.5-4.8c1.1-1.8,2.7-3.5,3.1-5.8   c-3.2-0.7-4.3-0.2-5.3,2.3c-0.7,1.7-1.7,3.2-3.2,4.4c-1.8,1.7-1.9,4.2,0.3,5.4c4.8,2.4,8.8,6.2,14.1,7.8   C606.2,479,607.6,478.6,609.3,475.9z"/>
        <path class="st14" d="M699.7,416.6c1.5,2.7,2.5,3.2,5.2,2.5c1.6-0.5,3.3-0.8,5-0.5c3.4,0.3,5.1-1.3,4.4-4.6c-0.6-2.9-1-5.7-1.2-8.6   c-0.2-2.3-1.2-4.4-1.9-6.5c-0.8-2.1-2.6-2.8-5.2-2.2c0.5,4.5,1.6,8.8,2.7,13.2c1.3,5.1,1.3,5.1-4.2,5.8   C702.9,415.5,701.2,415.5,699.7,416.6z"/>
        <path class="st14" d="M628.9,424.3c-0.3-4.2-0.3-4.2-4.2-4.6c-0.2,0-0.5-0.1-0.7-0.1c-5.4,0-10.9-0.7-16,1.6   c-2.8,1.2-3.7,3.3-2.9,6.5C612.9,425.6,620.7,424.6,628.9,424.3z"/>
        <path class="st6" d="M653.4,460.5c-9.6,0.1-19.2,0.2-29,0.3c0.2,1.4-0.1,2.5,0.5,3.6c9.5,0.6,19,0.4,28.4-0.2   C653.6,462.9,653.6,461.8,653.4,460.5z"/>
        <path class="st4" d="M610.7,474.3c0.7-1.1,1.4-1.9,1.9-2.9c1.3-2.2,0.8-3.6-1.3-5.2c-1.3-0.9-2.5-1.9-3.7-3   c-2.4-2.1-4.9-3.8-8.2-4.7c-0.5,3-3,5.1-4.1,7.9C600.5,469.2,605.5,471.7,610.7,474.3z"/>
        <path class="st4" d="M707.6,412.9c-1.2-5.2-2.2-10.2-3.4-15.1c-0.1-0.5-0.2-1.2-0.7-1.2c-1.8,0-3.5,0-5.1,1   c-1.3,0.8-1.5,1.8-1.3,3.2c0.2,1.8,0.1,3.8,0.1,5.6c-0.1,2.9,0.2,5.6,1.5,8.3c1.5-0.3,2.8-0.7,4.3-1   C704.4,413.5,705.9,413.6,707.6,412.9z"/>
        <path class="st6" d="M625.1,466.1c-0.5,4.1-0.5,4.3,2.8,4.5c7.4,0.4,14.9,0.3,22.3-0.2c3.3-0.2,3.5-0.8,2.7-4.5   C643.8,466.6,634.5,466.5,625.1,466.1z"/>
        <path class="st6" d="M648.9,388.7c0.5,3.4-0.2,6.9,3.5,8.7c2.8,1.3,4.9,0.2,7.2-1.4c3.3-2.4,3.7-5.4,2.7-9.1   C657.9,387.7,653.5,388,648.9,388.7z"/>
        <path class="st6" d="M627.5,388.9c-4.5-0.5-8.9-0.9-13.4-1.5c-0.1,1-0.2,1.8-0.2,2.8c-0.1,3.8,3.7,7.8,7.6,8   c2.3,0.2,4.2-0.8,5.2-2.9C627.6,393.4,627.8,391.1,627.5,388.9z"/>
        <path class="st14" d="M598.2,374.3c-2.6-0.5-3.9,0-4.3,2.2c-0.9,5.7-0.8,11.5,0.8,17c0.8,2.8,2,3.2,4.6,2.3   C599.1,388.7,599.1,381.6,598.2,374.3z"/>
        <path class="st14" d="M677.3,395.3c3.1,0.5,4.1-0.1,4.8-3.2c1.2-5.2,1.2-10.5,0.4-15.7c-0.4-2.8-1.6-3.4-4.5-2.9   C677.2,380.7,677.4,388,677.3,395.3z"/>
        <path class="st4" d="M672.4,426.2c-0.4-4.1-1.5-5.4-5.3-6.3c-5-1.2-10.1-0.8-15.2-0.4c-3.3,0.3-3.3,0.4-3.4,4.2   C656.6,423.4,664.5,424.1,672.4,426.2z"/>
        <path class="st4" d="M590.2,458.5c0-3-2.7-5.6-5.8-5.7c-3.2-0.1-5.9,2.8-5.9,6c0.1,2.8,2.8,6,5.5,6   C587.1,464.9,590.2,461.7,590.2,458.5z"/>
        <path class="st4" d="M714.5,425c-0.2-3.5-2.5-4.5-6.3-4.8c-3.1-0.2-5.6,2.7-5.7,6c-0.1,2.6,3,5.3,6.1,5.3   C711.7,431.7,714.4,428.6,714.5,425z"/>
        <path class="st4" d="M674.2,423.6c0.6,3.9,0.7,7.4,0.7,11c0,1.3,1,1.7,2,1.5c2.4-0.5,4.8-1.5,6-3.7s0.5-4.4-1-6.4   C680.1,423.6,677.4,423.5,674.2,423.6z"/>
        <path class="st4" d="M602.6,427.3c-2.5-0.3-4.9-0.4-6,1.8c-1.2,2.2-2,4.8-0.4,7.2c1.5,2.2,3.7,3,6.5,2.5   C602.6,434.9,602.6,431.2,602.6,427.3z"/>
        <path class="st6" d="M595.2,438.6c-3.8,3.7-6.8,7.9-9.8,12.3c1.5,0.6,2.9,1.1,4.2,1.6c2.5-4.3,5.5-8.2,8.8-11.9   C597.6,439.6,596.4,439.1,595.2,438.6z"/>
        <path class="st6" d="M701.6,430.2c-0.5-1.5-1-2.8-1.5-4.2c-5.1,0.8-10.1,1.1-15.1,1.2c-0.1,1.5,0.2,2.5,0.6,3.7   C691,431.3,696.2,431,701.6,430.2z"/>
        <path class="st6" d="M653.3,477.6c-2.5,2.9-2.9,4.9-1.2,6.2C652.6,481.7,652.9,479.6,653.3,477.6z"/>
        <path class="st6" d="M625,477.3c0.5,2.7,0.7,4.8,1.6,6.9C628,482.4,627.5,480.5,625,477.3z"/>
        <path class="st15" d="M667.5,449.5c-0.1,0.9-0.6,1.4-1.5,1.5s-1.4-0.5-1.4-1.3s0.3-1.4,1.2-1.5   C666.7,448.1,667.3,448.6,667.5,449.5z"/>
        <path class="st15" d="M612,448.7c1,0.2,1.4,0.8,1.3,1.7c-0.1,0.8-0.7,1.2-1.5,1.2c-0.8-0.1-1.4-0.5-1.4-1.4   C610.4,449.2,611,448.8,612,448.7z"/>
        <path class="st15" d="M663.8,366.2c-0.1,0.8-0.5,1.2-1.3,1.2s-1.5-0.2-1.5-1.1c0-0.8,0.8-1.2,1.5-1.2   C663.2,365.2,663.7,365.5,663.8,366.2z"/>
        <path class="st15" d="M615.2,366.9c-0.2,0.8-0.8,1.1-1.6,1c-0.8,0-1.2-0.5-1.2-1.2c0.1-0.9,0.8-1.2,1.5-1   C614.6,365.8,615.2,366,615.2,366.9z"/>
        <path class="st15" d="M607.9,468.3c-0.2,1.1-0.9,1.5-1.9,1.4s-1.8-0.5-1.8-1.5s0.7-1.5,1.8-1.5C607,466.7,607.7,467.2,607.9,468.3z   "/>
        <path class="st15" d="M702.9,408.1c1.3,0.2,2.1,0.9,2.2,2.2c0.2,1.1-0.6,1.6-1.5,1.7c-1.3,0.1-1.8-0.8-2-1.9   C701.6,408.9,701.8,408.2,702.9,408.1z"/>
        <path class="st12" d="M632.8,433.5c-0.1,0-0.2-0.9-0.3-2.2c-0.1-1.2-0.1-2.2,0-2.2s0.2,0.9,0.3,2.2   C632.9,432.5,632.9,433.5,632.8,433.5z"/>
        <path class="st12" d="M635.7,439c-0.1,0-0.4-2.2-0.7-4.9c-0.3-2.7-0.5-4.9-0.5-4.9c0.1,0,0.4,2.2,0.7,4.9   C635.6,436.8,635.8,439,635.7,439z"/>
        <path class="st12" d="M636.8,434.7c-0.1,0-0.3-1.1-0.5-2.4c-0.2-1.4-0.2-2.5-0.2-2.5s0.3,1.1,0.5,2.4   C636.9,433.6,636.9,434.7,636.8,434.7z"/>
        <path class="st12" d="M641.7,434c-0.1,0-0.3-0.9-0.5-2.2c-0.2-1.2-0.2-2.2-0.2-2.2c0.1,0,0.3,0.9,0.5,2.2   C641.8,433,641.8,434,641.7,434z"/>
        <path class="st12" d="M644.2,437.9c-0.1,0-0.4-1.8-0.6-4c-0.3-2.2-0.5-4-0.4-4s0.4,1.8,0.6,4C644.2,436,644.3,437.9,644.2,437.9z"/>
        <path class="st12" d="M639.5,437.9c-0.1,0-0.3-1.8-0.5-4s-0.3-4-0.2-4.1c0.1,0,0.3,1.8,0.5,4C639.5,436.1,639.6,437.9,639.5,437.9z   "/>
        <path class="st12" d="M646.1,433c-0.1,0-0.3-0.8-0.6-1.8c-0.2-1-0.4-1.8-0.3-1.9c0.1,0,0.3,0.8,0.6,1.8   C646.1,432.2,646.2,433,646.1,433z"/>
        <path class="st12" d="M606.5,534.2c0.1,0,0.2,1,0.2,2.2c0.1,1.2,0,2.2-0.1,2.2s-0.2-1-0.2-2.2C606.3,535.2,606.4,534.2,606.5,534.2   z"/>
        <path class="st12" d="M608.1,524.9c0.1,0,0.3,2.9,0.5,6.4s0.3,6.4,0.2,6.4s-0.3-2.9-0.5-6.4S608,524.9,608.1,524.9z"/>
        <path class="st12" d="M611.3,533.8c0.1,0,0.1,0.7-0.1,1.5c-0.1,0.8-0.2,1.5-0.3,1.5s-0.1-0.7,0.1-1.5   C611.1,534.4,611.3,533.8,611.3,533.8z"/>
        <path class="st12" d="M669,533.8c0.1,0,0.3,0.8,0.5,1.8s0.2,1.8,0.2,1.9c-0.1,0.1-0.3-0.8-0.5-1.8S669,533.8,669,533.8z"/>
        <path class="st12" d="M669.2,524.9c0.1,0,0.7,3.1,1.5,6.9c0.7,3.8,1.2,6.9,1.2,6.9c-0.1,0.1-0.7-3.1-1.5-6.9   C669.7,528,669.1,524.9,669.2,524.9z"/>
        <path class="st12" d="M673.1,531.3c0.1,0,0.3,1.7,0.5,3.8c0.2,1.7,0.3,3.2,0.3,3.6v0.3l-0.1-0.3c0-0.1,0-0.2,0-0.2s0.1,0,0.1,0.2   h-0.1c-0.1-0.5-0.3-1.9-0.5-3.6C673.1,533,673,531.3,673.1,531.3z"/>
        <path class="st12" d="M676.2,364.4c-0.1,0-0.5-1.1-1.5-2.7c-0.5-0.8-1.2-1.7-2.1-2.7c-0.8-0.9-1.9-1.8-3.1-2.8   c-1.2-0.8-2.4-1.5-3.5-2.1c-1.2-0.5-2.2-0.9-3.2-1.2c-1.8-0.5-3.1-0.6-3.1-0.7c0,0,0.3,0,0.8,0.1c0.3,0,0.6,0.1,1,0.2   s0.8,0.2,1.3,0.3c0.9,0.2,2.1,0.6,3.2,1.2c1.2,0.5,2.4,1.2,3.6,2.1c1.2,0.9,2.2,1.8,3.1,2.9c0.8,1,1.5,1.9,2.1,2.8   c0.3,0.4,0.5,0.8,0.6,1.2c0.2,0.3,0.3,0.6,0.5,0.9C676.1,364.1,676.2,364.4,676.2,364.4z"/>
        <path class="st12" d="M675.6,358.9c-0.1,0.1-0.8-1.8-2.5-3.5c-1.7-1.8-3.5-2.6-3.5-2.7c0,0,0.5,0.2,1.2,0.5   c0.7,0.4,1.6,1.1,2.5,1.9c0.8,0.8,1.5,1.8,1.8,2.5C675.4,358.4,675.6,358.8,675.6,358.9z"/>
    </g>
    <line class="st16" x1="326.8" y1="186.2" x2="345.7" y2="179.5"/>
    <line class="st16" x1="324.6" y1="193.2" x2="363.2" y2="179.5"/>
    <line class="st16" x1="553.2" y1="259" x2="595.5" y2="243.7"/>
    <line class="st16" x1="563.4" y1="261.4" x2="601.9" y2="247.7"/>
    <line class="st16" x1="578.7" y1="261.7" x2="603.8" y2="252.7"/>
    <line class="st16" x1="319.7" y1="201.2" x2="379.8" y2="180.1"/>
    <line class="st16" x1="532.8" y1="259" x2="592.8" y2="237.9"/>
    <line class="st16" x1="316.4" y1="209" x2="399" y2="180.1"/>
    <line class="st16" x1="508.3" y1="259.7" x2="591" y2="230.8"/>
    <line class="st16" x1="313.1" y1="216.8" x2="421.3" y2="180.4"/>
    <line class="st16" x1="480.2" y1="261.2" x2="588.4" y2="224.9"/>
    <line class="st16" x1="309.7" y1="224.5" x2="447.2" y2="179.3"/>
    <line class="st16" x1="450.2" y1="262" x2="587.6" y2="216.8"/>
    <line class="st16" x1="306.4" y1="232.3" x2="468.7" y2="180.8"/>
    <line class="st16" x1="412.7" y1="259" x2="575" y2="207.5"/>
    <line class="st16" x1="423.1" y1="262.3" x2="585.4" y2="210.8"/>
    <line class="st16" x1="303.1" y1="240.1" x2="498.7" y2="179.7"/>
    <line class="st16" x1="380.9" y1="260.5" x2="576.5" y2="200.1"/>
    <line class="st16" x1="299.7" y1="247.9" x2="522" y2="180.4"/>
    <line class="st16" x1="353.5" y1="259.7" x2="575.8" y2="192.3"/>
    <line class="st16" x1="296.4" y1="255.7" x2="543.2" y2="180.4"/>
    <line class="st16" x1="310.8" y1="259" x2="557.6" y2="183.8"/>
    <line class="st16" x1="327.9" y1="260.5" x2="574.7" y2="185.3"/>
    <line class="st16" x1="422.2" y1="430.6" x2="427.6" y2="437.5"/>
    <line class="st16" x1="422.8" y1="427.1" x2="428.2" y2="434"/>
    <line class="st16" x1="423.4" y1="422.7" x2="428.8" y2="429.6"/>
    <line class="st16" x1="424" y1="418.8" x2="429.4" y2="425.8"/>
    <line class="st16" x1="424.5" y1="415" x2="430.7" y2="423.1"/>
    <line class="st16" x1="425.8" y1="411.8" x2="432" y2="420"/>
    <line class="st16" x1="426.8" y1="408.4" x2="433.7" y2="416.6"/>
    <line class="st16" x1="427.9" y1="404.1" x2="435.8" y2="413.8"/>
    <line class="st16" x1="429.8" y1="400.9" x2="437.7" y2="410.6"/>
    <line class="st16" x1="431.9" y1="397.3" x2="439.7" y2="407"/>
    <line class="st16" x1="433.6" y1="393.6" x2="441.5" y2="403.3"/>
    <line class="st16" x1="436.4" y1="390.7" x2="444.3" y2="400.3"/>
    <line class="st16" x1="439.1" y1="387.6" x2="447" y2="397.2"/>
    <line class="st16" x1="441.7" y1="384.6" x2="449.6" y2="394.3"/>
    <line class="st16" x1="444.8" y1="381.7" x2="453.3" y2="391.5"/>
    <line class="st16" x1="447.6" y1="378.7" x2="456.9" y2="389.8"/>
    <line class="st16" x1="450.4" y1="376.4" x2="459.7" y2="387.4"/>
    <line class="st16" x1="453.8" y1="373.7" x2="463.8" y2="385.9"/>
    <line class="st16" x1="456.9" y1="370.7" x2="468.2" y2="384.6"/>
    <line class="st16" x1="459.3" y1="367" x2="472.6" y2="383.5"/>
    <line class="st16" x1="461.6" y1="363.1" x2="477.5" y2="382.5"/>
    <line class="st16" x1="465.2" y1="360.3" x2="483.5" y2="382.2"/>
    <line class="st16" x1="468.8" y1="357.3" x2="489.6" y2="382"/>
    <line class="st16" x1="474.7" y1="355.9" x2="496.4" y2="382.3"/>
    <line class="st16" x1="485.8" y1="362.4" x2="502.7" y2="383.1"/>
    <line class="st16" x1="493.3" y1="365.2" x2="505" y2="381.1"/>
    <path class="st7" d="M217.2,221.7c0,0,18.5-4.2,23.9,0"/>
    <path class="st7" d="M220.6,215.7c0,0,9.9-2.1,14.9,0"/>
    <g>
        <path class="st17" d="M274.3,549v-13.5h14c0.3,5.2,0.8,15.1,0,13.5C287.5,547.4,278.7,548.3,274.3,549z"/>
        <path class="st17" d="M310.8,550v-13.5h14c0.3,5.2,0.8,15.1,0,13.5C324,548.4,315.2,549.3,310.8,550z"/>
        <path class="st17" d="M268.4,538.5c-7.6-2,3.2-90.2,9.5-134c0-2.8,2.3-5.2,3.5-6l40.5,9.5c2-8,6.4-22.2,6.4-23.1c0-1.5,3.5,0,5,1.5   l-5.4,21.6l17,4l-3.5,16c-1.3,8.3-3.8,26.2-3,31c1,6-5.1,76.5-5.6,79.5s-23.9,4.5-27.9,0c-3.2-3.6-4-20.8-4-29   c-1.3,5.8-4.2,18.8-5,24C294.9,540,277.9,541,268.4,538.5z"/>
        <path class="st8" d="M303.3,374.4c-11.2-5.2-3.6-24.8,2-32.9c6.5-7.5,10-3,11.5-3s2.5,0.5,3,7c0.4,5.2,4.7-0.3,6-3   c-0.5,1.3-2.6,5.4-1,9c4,4,3,3.5,3,6.5s4.5,1,4.5,0s1.5-1.1,1.5,4.4c0,4.4-5,4.2-7.5,3.5c-0.5,3.2-1.9,10.6-3.5,15   c-2,5.5-19,5.5-16.9,4c1.7-1.2,0.7-6.8,0-9.5C305,375.2,304.2,374.8,303.3,374.4z"/>
        <path class="st18" d="M319.8,373.4c-2.5,1.4-8.2,3.5-13.9,2 M305.9,375.4c-0.9-0.2-1.8-0.6-2.6-1c-11.2-5.2-3.6-24.8,2-32.9   c6.5-7.5,10-3,11.5-3s2.5,0.5,3,7c0.4,5.2,4.7-0.3,6-3c-0.5,1.3-2.6,5.4-1,9c4,4,3,3.5,3,6.5s4.5,1,4.5,0s1.5-1.1,1.5,4.4   c0,4.4-5,4.2-7.5,3.5c-0.5,3.2-1.9,10.6-3.5,15c-2,5.5-19,5.5-16.9,4C307.6,383.7,306.6,378.1,305.9,375.4z"/>
        <circle cx="317.8" cy="356.5" r="1"/>
        <circle cx="306.8" cy="350.5" r="1"/>
        <path class="st19" d="M306.8,347.5c0.5-0.3,1.7-0.5,2.5,1.5 M318.3,354.2c0.7-0.3,2.1-0.5,2.5,1.5 M310.3,365   c0.5,1.5,3.4,2.6,4.6-1 M308.9,361.2c-1.2-0.5-3.1-1.9-1.5-3.5c1.6-1.6,4.3-3.7,5.5-4.5"/>
        <path class="st20" d="M312.5,340.4c-1.6,2.8-5,2.5-6.5,2c2,2-2.2,6.8-4.5,9c-7,4-6.5-2.5-6.5-3s4-3.5-0.5-7s1-10,7-9.5   c4.8,0.4,8.7-1.2,10-2c35-11.5,37,20.5,36,26c7,12.5-2,12-7,14.5c0,4-5,4-9.5,3c-0.8,2-4.3,1.2-6,0.5c0.2-1,0.7-4.1,1.5-8.5   c5.6,1.6,7-1.3,7-3c-0.2-1.3-1.3-3.7-4.5-2.5c-4,1.5-2.5-2.5-2-5c-4.8-0.8-2.5-7.5-2.5-10.5c-0.5,1.5-0.7,4.4-4,4   c-4-0.5-1.5-9.5-2-8.5S315,341.4,312.5,340.4z"/>
        <path class="st21" d="M290.8,565.1c-0.2-3.3,1.4-10.3,9-11.5c0.5-0.3,1-0.6,1.5-0.9c0.9-0.5,1.7-1,2.5-1.5c1-0.6,1.8-1.1,2.5-1.5   c0.8-0.5,1.5-1,2-1.3c0.5-0.4,0.9-0.6,1-0.8c0.5-0.5,16,1,17.5,0s3,17,1.5,17.5c-0.8,0.3-12.4,0.3-23.5,0.2   C299.7,565.2,294.6,565.1,290.8,565.1z"/>
        <path class="st19" d="M299.8,553.6c-7.6,1.2-9.2,8.2-9,11.5c3.8,0.1,8.8,0.1,14,0.2 M299.8,553.6c0.5-0.3,1-0.6,1.5-0.9    M299.8,553.6c1.8,1.9,5.4,7,5,11.7 M301.3,552.7c0.8,0.5,2.5,1.7,2.5,2.9 M301.3,552.7c0.9-0.5,1.7-1,2.5-1.5 M303.8,551.2   c1,0.6,2.9,2.1,2.5,2.9 M303.8,551.2c1-0.6,1.8-1.1,2.5-1.5 M306.3,549.6c1,0.7,3,2.3,2.8,3 M306.3,549.6c0.8-0.5,1.5-1,2-1.3    M308.3,548.3c0.5-0.4,0.9-0.6,1-0.8c0.5-0.5,16,1,17.5,0s3,17,1.5,17.5c-0.8,0.3-12.4,0.3-23.5,0.2 M308.3,548.3   c1,0.5,3,1.7,3,2.9"/>
        <path class="st21" d="M255.8,562.3c-0.1-3,1.2-9.2,8-10.3c0.5-0.3,0.9-0.5,1.3-0.8c0.8-0.5,1.6-0.9,2.2-1.3c0.9-0.5,1.6-1,2.2-1.4   c0.8-0.5,1.3-0.9,1.8-1.2c0.5-0.3,0.8-0.6,0.9-0.7c0.4-0.4,14.3,0.9,15.6,0c1.3-0.9,2.7,15.3,1.3,15.7c-0.7,0.2-11.1,0.2-21,0.1   C263.7,562.4,259.2,562.3,255.8,562.3z"/>
        <path class="st19" d="M263.9,551.9c-6.8,1.1-8.2,7.3-8,10.3c3.4,0,7.9,0.1,12.5,0.1 M263.9,551.9c0.5-0.3,0.9-0.5,1.3-0.8    M263.9,551.9c1.6,1.7,4.8,6.3,4.5,10.5 M265.2,551.2c0.7,0.4,2.2,1.5,2.2,2.6 M265.2,551.2c0.8-0.5,1.6-0.9,2.2-1.3 M267.4,549.8   c0.9,0.6,2.6,1.9,2.2,2.6 M267.4,549.8c0.9-0.5,1.6-1,2.2-1.4 M269.6,548.4c0.9,0.6,2.6,2.1,2.5,2.7 M269.6,548.4   c0.8-0.5,1.3-0.9,1.8-1.2 M271.4,547.2c0.5-0.3,0.8-0.6,0.9-0.7c0.4-0.4,14.3,0.9,15.6,0c1.3-0.9,2.7,15.3,1.3,15.7   c-0.7,0.2-11.1,0.2-21,0.1 M271.4,547.2c0.9,0.4,2.7,1.5,2.7,2.6"/>
        <path class="st22" d="M255.5,451.2l-6.4-57.5l59.5-6.9l6.9,58L255.5,451.2z"/>
        <path class="st23" d="M274.8,353.4c-1.2-1.6-2.2-0.7-2.5,0l-28.5,41.5l68-8C300.2,376.4,276.4,355,274.8,353.4z"/>
        <path class="st17" d="M271.3,369.4c-2.5,0.6-2.7,0.5-2.5,2c0.3,2.7,0.5,7.6,1,9.5c0.3,1.2,1.7,1.2,2.5,1c2.2-0.3,6.9-0.7,8.5-1   c2-0.4,2-1,2-1.5v0c-0.3-2.8-1.1-8.8-1.5-10c-0.4-1.2-0.8-1.2-2.5-1C277.2,368.5,273.3,368.9,271.3,369.4z"/>
        <path class="st17" d="M293.4,396.6c-2.5,0.6-2.7,0.5-2.5,2c0.3,2.7,0.5,7.6,1,9.5c0.3,1.2,1.7,1.2,2.5,1c2.2-0.3,6.9-0.7,8.5-1   c2-0.4,2-1,2-1.5v0c-0.3-2.8-1.1-8.8-1.5-10s-0.8-1.2-2.5-1C299.2,395.7,295.4,396.1,293.4,396.6z"/>
        <path class="st19" d="M277.8,448.5c-1.8-11.8-4.9-36.3-3.7-36.7c1.5-0.5,12.5-2,13-1c0.4,0.8,3.4,24.7,4.7,36.2"/>
        <path class="st8" d="M345.2,391.5c12,2.5,3,44.5-13,45.5c-1.1-0.2-2.3-0.5-3.5-1c-3.7,5.2-12.8,14.1-20,8.5   c-6.8-5.3-25.9-21-36.1-29.5c-1.2-1-2.1-2.3-2.5-3.8c-1.1-4-2-9.2,0-9.2c0.5,0,0.8-0.1,1,0c0-1.2,0.6-3.4,2.2-3   c0.6,0.2,0.6,0.1,0.8,0.5c0-1.9,1.7-4.5,3.7-2.5c0,0.4-0.1,0.8-0.1,1.4c0.4-1.1,1.7-2.8,3.1-0.9c0.5,3.5,3.5,9,5.5,9s-1.3-5.4,1-6   c2.3-0.6,1,5.5,4,9.5c2.4,3.2,15.3,11,21.5,14.5c-2-2.5,1-6,3.5-6.5s2-1.5,4-6C325,398.4,338.8,392.6,345.2,391.5z"/>
        <path class="st19" d="M322.7,380.5c6.3,3.7,19.8,10.4,22.5,11 M345.2,391.5c12,2.5,3,44.5-13,45.5c-1.1-0.2-2.3-0.5-3.5-1    M345.2,391.5c-6.3,1.2-20.2,6.9-25,20.5c-2,4.5-1.5,5.5-4,6s-5.5,4-3.5,6.5 M312.7,424.5c1.7,2.1,9.4,8.8,16,11.5 M312.7,424.5   c-6.2-3.5-19.1-11.3-21.5-14.5c-3-4-1.7-10.1-4-9.5c-2.3,0.6,1,6-1,6s-5-5.5-5.5-9c-1.4-1.9-2.7-0.2-3.1,0.9 M328.7,436   c-3.7,5.2-12.8,14.1-20,8.5c-6.8-5.3-25.9-21-36.1-29.5c-1.2-1-2.1-2.3-2.5-3.8c-1.1-4-2-9.2,0-9.2c0.5,0,0.8-0.1,1,0 M273.2,409   c-0.3-0.7-1.1-2.2-1.5-3c-0.8-2.5,0.5-3.7-0.7-4 M271,402c0-1.2,0.6-3.4,2.2-3c0.6,0.2,0.6,0.1,0.8,0.5 M276.7,408   c-1.5-1.5-2.2-5.5-2.2-5.9c0-0.3,0-1.8-0.5-2.6 M274,399.5c0-1.9,1.7-4.5,3.7-2.5c0,0.4-0.1,0.8-0.1,1.4 M279.5,405.5   c-0.2-0.3-0.5-1-1-2.5c-0.4-1.2-0.9-3-0.9-4.6"/>
        <path class="st24" d="M269.8,530l64-84.5"/>
        <path class="st24" d="M299.8,500.5l37-49"/>
        <path class="st24" d="M268.8,521.5l61-81"/>
        <path class="st24" d="M268.8,509.5l45-61"/>
        <path class="st24" d="M269.8,497l35-48.5"/>
        <path class="st24" d="M303.3,508l32.5-43.5"/>
        <path class="st24" d="M303.8,522l32.5-43.5"/>
        <path class="st24" d="M305.3,531.5l30-38"/>
        <path class="st24" d="M314.8,531.5l18-22"/>
        <path class="st24" d="M271.8,536.2l17-22.8"/>
    </g>
    <g>
        <path class="st25" d="M336.7,114.6c1.2-0.4,6.5,3.2,9,5c-0.4-1.2,5.2-12.2,8-17.5c-3-3.3-8.7-10.8-10-12c-1.9-1.7-9-3-10-3   c-1,0-7-3.5-9-2.5s5,8,9.5,11C337.2,100.6,335.2,115.1,336.7,114.6z"/>
        <path class="st26" d="M566.8,150.5c0.6,7.1-0.1,21.7-7.5,23.6 M571.4,156.2c0.4,3.3,0.5,10.6-2.3,13.8 M395.3,159.7   c5.6,3.6,18.6,8.1,26.5-3.5 M402.2,166.6c2.9,2.3,10.8,5.5,19.6,0"/>
        <path class="st27" d="M237.7,65.5c4.3,28.8,10.3,48.9,12.8,55.3c2.7,7.9,11.9,22.6,27.1,27.6c17.1,5.4,21.9,10.1,22.1,11.8"/>
        <path class="st4" d="M240.4,78.9l-2.6-13.4c42.1-13.4,43.5-30.1,43.5-30.1c-0.1-0.6,14.3,20.9,49.8,17l1.9,12.9   c-20.3,5-48.7-9.2-48.7-9.2S259.8,76.7,240.4,78.9z"/>
        <path class="st4" d="M309.7,85.1l-10.2-2.4l-4.3,13.1l-4.3,13.1l-14.5-4.4l-2.7,8.3l22.1,7.3L309.7,85.1z"/>
        <path class="st8" d="M444.1,184c2.2-1.5,16.2-3.7,24-4.5c-0.4,0.4,5.2,11.2,8,16.5c-1.3,0.3-4.2,1.4-5,3c-1,2-9.5,4-12.5,4   s-5.5,3.5-10,6c-3.6,2-3.9-1.2-3.6-3c-0.4,0.2-0.7,0.4-0.9,0.5c-4.8,1.2-4.8-1.9-4.1-3.6c-0.3,0.2-0.6,0.4-0.9,0.6   c-4,1.6-3.8-1.8-3.2-3.7c-0.3,0.1-0.6,0.2-0.8,0.2C429.6,197,442.4,185.2,444.1,184z"/>
        <path class="st27" d="M448.6,190.5c-1.2,0-8.5,6-12,9c-0.2,0.1-0.4,0.2-0.7,0.3 M435.9,199.8c-0.3,0.1-0.6,0.2-0.8,0.2   c-5.5-3,7.3-14.8,9-16c2.2-1.5,16.2-3.7,24-4.5c-0.4,0.4,5.2,11.2,8,16.5c-1.3,0.3-4.2,1.4-5,3c-1,2-9.5,4-12.5,4s-5.5,3.5-10,6   c-3.6,2-3.9-1.2-3.6-3 M435.9,199.8c-0.6,1.9-0.8,5.3,3.2,3.7c0.3-0.2,0.6-0.4,0.9-0.6 M451.6,194.5c-1.4,0-7.6,5.6-11.6,8.4    M440,202.9c-0.6,1.7-0.7,4.8,4.1,3.6c0.2-0.1,0.5-0.3,0.9-0.5 M455.1,199.5c-2.6,1.7-7.7,5.1-10.1,6.5 M332.8,65l2.5,22    M336.3,115c1.5,20-34.5,34-36.5,45"/>
        <path class="st28" d="M469.1,30.8c0.1,0.1,0.2,0.2,0.3,0.3c0.1,0.1,0.3,0.1,0.4,0.2c0.2,0,0.3,0,0.5,0c0.1,0,0.3-0.1,0.4-0.2   c1.8-1.7,3.3-1.9,4.5-1.5c0.7,0.2,1.3,0.7,1.8,1.3c0.4,0.6,0.7,1.4,0.7,2.1c0,3.3-1.7,4.8-2.9,5.5c-0.3,0.2-0.6,0.5-0.7,0.8   l6.3,24.3l-18.5,8.6l-2.2-7.1c-8,2.3-12.9-1.9-15.6-5.6c-1.5-2-2.5-4.3-3.1-6.7L436.3,36"/>
        <path class="st8" d="M459.2,32c-1.5-0.2-2.3,0.5-2.7,0.9c-0.1,0.1-0.1,0.2-0.1,0.2c0,0.1,0,0.2,0.1,0.2c0.1,0.1,0.2,0.1,0.2,0.1   c0.1,0,0.2,0,0.2-0.1c0.3-0.3,0.9-0.8,2.1-0.7c0.1,0,0.2,0,0.2-0.1c0.1-0.1,0.1-0.1,0.1-0.2c0,0,0-0.1,0-0.1c0,0,0-0.1-0.1-0.1   c0,0-0.1-0.1-0.1-0.1C459.3,32,459.3,32,459.2,32z"/>
        <defs>
            <filter id="Adobe_OpacityMaskFilter" filterUnits="userSpaceOnUse" x="455.5" y="31" width="5.1" height="3.5">
                <feColorMatrix type="matrix" values="1 0 0 0 0  0 1 0 0 0  0 0 1 0 0  0 0 0 1 0"/>
            </filter>
        </defs>
        <mask maskUnits="userSpaceOnUse" x="455.5" y="31" width="5.1" height="3.5" id="path-10-inside-1_836_15546_2_">
            <path class="st29" d="M459.2,32c-1.5-0.2-2.3,0.5-2.7,0.9c-0.1,0.1-0.1,0.2-0.1,0.2c0,0.1,0,0.2,0.1,0.2c0.1,0.1,0.2,0.1,0.2,0.1    c0.1,0,0.2,0,0.2-0.1c0.3-0.3,0.9-0.8,2.1-0.7c0.1,0,0.2,0,0.2-0.1c0.1-0.1,0.1-0.1,0.1-0.2c0,0,0-0.1,0-0.1c0,0,0-0.1-0.1-0.1    c0,0-0.1-0.1-0.1-0.1C459.3,32,459.3,32,459.2,32z"/>
        </mask>
        <path class="st30" d="M459.2,32l0.1-1l0,0L459.2,32z M456.5,33l-0.7-0.7l0,0l0,0L456.5,33z M457.1,33.4l0.7,0.7l0,0l0,0L457.1,33.4   z M459.1,32.7l0.1-1l0,0l0,0L459.1,32.7z M459.5,32.4l1,0.2v0L459.5,32.4z M459.3,31c-1.9-0.2-3,0.7-3.5,1.3l1.5,1.3   c0.2-0.3,0.8-0.7,1.8-0.6L459.3,31z M455.8,32.3c-0.2,0.3-0.3,0.6-0.3,1l2-0.2c0,0.2,0,0.3-0.1,0.5L455.8,32.3z M455.5,33.3   c0,0.3,0.2,0.7,0.5,0.9l1.3-1.5c0.1,0.1,0.2,0.3,0.2,0.4L455.5,33.3z M455.9,34.2c0.3,0.2,0.6,0.3,0.9,0.3l-0.1-2   c0.2,0,0.3,0.1,0.5,0.2L455.9,34.2z M456.9,34.5c0.3,0,0.7-0.2,0.9-0.4l-1.4-1.4c0.1-0.1,0.3-0.2,0.4-0.2L456.9,34.5z M457.8,34.1   c0.1-0.1,0.5-0.5,1.2-0.4l0.2-2c-1.6-0.2-2.5,0.6-2.9,1L457.8,34.1z M459,33.7c0.3,0,0.7-0.1,0.9-0.3l-1.2-1.6   c0.1-0.1,0.3-0.1,0.5-0.1L459,33.7z M460,33.4c0.3-0.2,0.5-0.5,0.5-0.8l-2-0.4c0-0.2,0.1-0.3,0.3-0.4L460,33.4z M460.5,32.6   c0-0.2,0-0.4,0-0.5l-2,0.4c0-0.1,0-0.2,0-0.3L460.5,32.6z M460.5,32.1c0-0.2-0.1-0.4-0.2-0.5l-1.6,1.2c-0.1-0.1-0.1-0.2-0.1-0.2   L460.5,32.1z M460.3,31.6c-0.1-0.1-0.2-0.3-0.4-0.4l-1,1.7c-0.1,0-0.1-0.1-0.2-0.2L460.3,31.6z M459.9,31.2   c-0.2-0.1-0.3-0.2-0.5-0.2l-0.2,2c-0.1,0-0.2,0-0.3-0.1L459.9,31.2z"/>
        <defs>
            <filter id="Adobe_OpacityMaskFilter_1_" filterUnits="userSpaceOnUse" x="440.5" y="34.7" width="5.1" height="3.5">
                <feColorMatrix type="matrix" values="1 0 0 0 0  0 1 0 0 0  0 0 1 0 0  0 0 0 1 0"/>
            </filter>
        </defs>
        <mask maskUnits="userSpaceOnUse" x="440.5" y="34.7" width="5.1" height="3.5" id="path-10-inside-1_836_15546_1_">
            <path class="st31" d="M444.2,35.7c-1.5-0.2-2.3,0.5-2.7,0.9c-0.1,0.1-0.1,0.2-0.1,0.2c0,0.1,0,0.2,0.1,0.2    c0.1,0.1,0.2,0.1,0.2,0.1c0.1,0,0.2,0,0.2-0.1c0.3-0.3,0.9-0.8,2.1-0.7c0.1,0,0.2,0,0.2-0.1c0.1-0.1,0.1-0.1,0.1-0.2    c0,0,0-0.1,0-0.1c0,0,0-0.1-0.1-0.1c0,0-0.1-0.1-0.1-0.1C444.3,35.8,444.3,35.8,444.2,35.7z"/>
        </mask>
        <path class="st32" d="M444.2,35.7l0.1-1l0,0L444.2,35.7z M441.6,36.7l-0.7-0.7l0,0l0,0L441.6,36.7z M442.1,37.1l0.7,0.7l0,0l0,0   L442.1,37.1z M444.2,36.4l0.1-1l0,0l0,0L444.2,36.4z M444.5,36.2l1,0.2v0L444.5,36.2z M444.4,34.8c-1.9-0.2-3,0.7-3.5,1.3l1.5,1.3   c0.2-0.3,0.8-0.7,1.8-0.6L444.4,34.8z M440.8,36.1c-0.2,0.3-0.3,0.6-0.3,1l2-0.2c0,0.2,0,0.3-0.1,0.5L440.8,36.1z M440.5,37   c0,0.3,0.2,0.7,0.5,0.9l1.3-1.5c0.1,0.1,0.2,0.3,0.2,0.4L440.5,37z M440.9,37.9c0.3,0.2,0.6,0.3,0.9,0.3l-0.1-2   c0.2,0,0.3,0.1,0.5,0.2L440.9,37.9z M441.9,38.2c0.3,0,0.7-0.2,0.9-0.4l-1.4-1.4c0.1-0.1,0.3-0.2,0.4-0.2L441.9,38.2z M442.8,37.8   c0.1-0.1,0.5-0.5,1.2-0.4l0.2-2c-1.6-0.2-2.5,0.6-2.9,1L442.8,37.8z M444.1,37.4c0.3,0,0.7-0.1,0.9-0.3l-1.2-1.6   c0.1-0.1,0.3-0.1,0.5-0.1L444.1,37.4z M445,37.2c0.3-0.2,0.5-0.5,0.5-0.8l-2-0.4c0-0.2,0.1-0.3,0.3-0.4L445,37.2z M445.5,36.3   c0-0.2,0-0.4,0-0.5l-2,0.4c0-0.1,0-0.2,0-0.3L445.5,36.3z M445.5,35.8c0-0.2-0.1-0.4-0.2-0.5l-1.6,1.2c-0.1-0.1-0.1-0.2-0.1-0.2   L445.5,35.8z M445.3,35.3c-0.1-0.1-0.2-0.3-0.4-0.4l-1,1.7c-0.1,0-0.1-0.1-0.2-0.2L445.3,35.3z M444.9,34.9   c-0.2-0.1-0.3-0.2-0.5-0.2l-0.2,2c-0.1,0-0.2,0-0.3-0.1L444.9,34.9z"/>
        <path class="st27" d="M473.9,23c0.8,0.8,2.8,2.3,4.4,1.8 M471.1,11c1.8,1.1,5,4.8,3.6,10.5 M472.8,8.7c2.3,1.7,6.3,6.9,3.7,13.6    M464.5,20.6c0,0.9-0.4,2.9-2.3,3.4 M463.4,24.9c2-0.6,5.6-2.9,4.2-6.8 M468.4,13.8c1.7,2.4,3.6,8.1-2.8,11.8 M449.6,17.6   c0.2,1.1,0.8,3.3,2.2,3.1 M447.4,16.9c0.2,1.8,1.2,5.6,4,6 M465.3,4.6c-0.8,2.4-1.5,7.9,2.2,10.4 M463,5.6c-0.8,2.5-1.5,8,1.8,9.8    M459.6,8.2c-0.2,2,0.2,6.5,3,8.5 M457.5,19.6c-0.1,1-0.5,3-1.7,2.7 M459.3,17.9c0.1,2.1-0.2,6.2-1.9,6.1 M458,11.6   c-1.4,0.8-3.8,3.5-2.3,7.9 M455,9.9c-1.3,1.8-3.5,6-1.5,8.5 M446.8,5.9c1.8-0.8,6.3-1.7,9.6,1.7 M447.2,3.5   c2.2-0.8,7.3-1.4,10.4,2.3 M447,2.5c1.6-1.5,6.2-3.2,11.7,2.1 M446.9,11.1c0.2-1.6,1.9-4.5,6.9-2.7 M451,15.7   c-0.6-1.5-1.1-4.9,1.2-6 M448.9,10.5c-0.7,0.9-1.9,3-1.4,4.4 M444.8,13.5c-1-1.6-2.3-5.5,0.8-8.4 M439.3,8.4   c-0.6-1.5-1.1-4.7,1.3-5.4 M442.9,5.1c-1.1,2.1-2.6,7,0,9.7 M437.2,10.8c-0.9-0.6-2.4-2.2-1.3-4.3 M439.5,12.5   c-1.7,1.1-4.2,4.6-0.9,10.2 M436.4,12.3c-1.7,1.6-4.2,6.4-0.6,12.2 M430.9,15.2c-0.9,0.4-2.2,1.5-0.6,3.2 M428.8,14.5   c-0.9,0.8-2.2,2.9,0,4.8 M429.4,12c-2.4,1-6,4.1-1.6,8.2 M433.2,12.8c-1.3,2.5-3.1,8.6,0.3,13.1 M439.7,25.6   c1.1-0.4,3.3-1.5,3.4-2.9 M439.3,27.4c1.9-0.3,5.8-1.7,5.8-5 M439.5,28.8c0.3-0.4,5.9,0.5,7.2-4.9 M435.1,29.8   c-0.1,0.8-0.8,2.5-2.7,2.5 M437.5,29.1c0.1,1.3-0.7,4-4.1,5.1 M428.9,22.7c0.2,1.6,1,5,3.3,6.1 M440.5,14.5c-0.3,1-0.7,3,0.2,3.4    M427.3,23.3c-0.7,0-1.7,0.5-0.3,2.5 M428.8,29c-0.7,0.7-1.7,2.3-0.2,3.5 M427.6,27.8c-1.2,0.4-3.1,1.8-1.1,4.3"/>
        <path d="M458.9,53.7c-0.7,0-1.3-0.2-1.9-0.6c-0.1-0.1-0.1-0.4-0.1-0.5c0.1-0.1,0.3-0.1,0.5-0.1c0.7,0.6,1.7,0.6,2.7,0.2   c1.1-0.5,2-1.4,2.6-2.5c0.1-0.1,0.3-0.3,0.5-0.1c0.1,0.1,0.3,0.3,0.1,0.5c-0.6,1.3-1.7,2.4-2.9,2.9   C459.9,53.6,459.4,53.7,458.9,53.7z"/>
        <path d="M452.7,48.1c-0.1,0-0.1,0-0.1,0l-1.2-0.6c-0.1-0.1-0.5-0.2-0.5-0.6c-0.1-0.4,0.1-0.8,0.2-1c0.9-1.5,1.2-3.6,0.9-5.4   c-0.1-0.2,0.1-0.4,0.2-0.5c0.2-0.1,0.3,0.1,0.4,0.2c0.5,2,0.1,4.4-0.9,6.1c0,0.1-0.1,0.2-0.1,0.2c0,0,0.1,0.1,0.2,0.1l1.2,0.6   c0.2,0.1,0.3,0.3,0.2,0.5C452.9,48,452.8,48.1,452.7,48.1z"/>
        <path d="M445.3,41.1c0.2,0.3,0.3,0.6,0.3,0.9c0,0.3-0.1,0.6-0.2,0.9c-0.2,0.2-0.4,0.4-0.6,0.5c-0.3,0.1-0.6,0.1-0.8-0.1   c-0.3-0.1-0.5-0.3-0.7-0.6c-0.2-0.3-0.3-0.6-0.3-0.9c0-0.3,0.1-0.6,0.2-0.8s0.4-0.4,0.7-0.5l0.2,0.5c0.1,0.4,0.7,0.6,1.1,0.3   L445.3,41.1z"/>
        <path d="M461.2,35.9c0.2,0.2,0.3,0.5,0.3,0.8c0,0.3,0,0.5-0.2,0.8c-0.1,0.2-0.3,0.4-0.5,0.4c-0.2,0.1-0.5,0-0.7-0.1   c-0.2-0.1-0.4-0.3-0.6-0.5c-0.2-0.2-0.2-0.5-0.2-0.8c0-0.3,0.1-0.5,0.2-0.8c0.1-0.2,0.3-0.4,0.6-0.4l0.1,0.4   C460.1,36.1,460.7,36.3,461.2,35.9L461.2,35.9z"/>
        <path class="st33" d="M491.9,139.8L491.9,139.8l-1.2-24.2v0l0,0l-0.6-43.3l-0.4-0.2c-1.3-0.6-2.4-1.6-3-2.9l-0.5-1.1l-1.4-0.1v0h0   l0-0.2c-0.4,0-0.7-0.2-1-0.4c-0.3-0.2-0.5-0.5-0.6-0.9L491.9,139.8z M491.9,139.8L491.9,139.8l2.9,28.1L491.9,139.8z"/>
        <path class="st21" d="M488.3,71.5c11.8,0.8,35.7,2.6,36.5,3c11-2,17,13,18,14.5s8.5,46.5,12.5,60s-7,21.5-8,22s-65,30.5-70,28   c-3.7-1.8-9.3-14.4-12.2-22l-16.8,2c0.5-2.2,1.3-7.6,0.5-12c-0.8-4.4-4.3-33.5-6-47.5c-10,15.2-32.1,43.6-40.5,36   c-10.5-9.5-60-27-59-34.5c0.8-6,7.3-16.5,10.5-21c16.5,8.3,49.6,25.2,50,26c0.5,1,20-31,25.5-32.5c4.4-1.2,21.2-9.5,29-13.5   c3.7,20.8,10.9,63.2,10.5,66s1.2,18.6,2,26.1c6.6-3,14.4-6.5,22-9.9C488.4,153.2,488,97.9,488.3,71.5z"/>
        <path class="st34" d="M524.8,74.5c-0.8-0.4-24.7-2.2-36.5-3c-0.3,26.5,0.1,81.7,4.5,90.7 M524.8,74.5c1,0.5-14,6.5-10,21   s12,50.5,11,51.5c-0.5,0.5-16.3,7.7-33,15.2 M524.8,74.5c11-2,17,13,18,14.5s8.5,46.5,12.5,60s-7,21.5-8,22s-65,30.5-70,28   c-3.7-1.8-9.3-14.4-12.2-22 M492.8,162.2c-7.6,3.4-15.4,6.9-22,9.9 M470.8,172.1c-2.3,1-4.5,2-6.5,2.9c0.2,0.6,0.5,1.3,0.8,2    M470.8,172.1c-0.8-7.5-2.4-23.3-2-26.1s-6.8-45.2-10.5-66c-7.8,4-25.2,11-29,13.5c-8.6,5.5-25,33.5-25.5,32.5   c-0.4-0.8-33.5-17.7-50-26c-3.2,4.5-9.7,15-10.5,21c-1,7.5,48.5,25,59,34.5c8.4,7.6,30.5-20.8,40.5-36c1.7,14,5.2,43.1,6,47.5   c0.8,4.4,0,9.8-0.5,12l16.8-2"/>
    </g>
    <path class="st28" d="M458.3,80c0,0,3.7-5.2,3.5-7.8l18.5-8.6c0,0,1.1,3,3.4,3.8"/>
    <line class="st35" x1="462.7" y1="72.2" x2="464.4" y2="83.2"/>
    <line class="st35" x1="467.4" y1="69.7" x2="469.1" y2="80.8"/>
    <line class="st35" x1="472.2" y1="67.3" x2="473.9" y2="78.3"/>
    <line class="st35" x1="477.7" y1="64.5" x2="479.5" y2="75.6"/>
    <line class="st35" x1="464.9" y1="70.9" x2="469.7" y2="97.7"/>
    <line class="st35" x1="469.7" y1="68.4" x2="474.5" y2="95.2"/>
    <line class="st35" x1="475.2" y1="65.8" x2="480" y2="92.6"/>
    </svg>