<?xml version="1.0" encoding="utf-8"?>
<!-- Generator: Adobe Illustrator 23.0.6, SVG Export Plug-In . SVG Version: 6.00 Build 0)  -->
<svg version="1.1" id="Layer_1" xmlns="http://www.w3.org/2000/svg" xmlns:xlink="http://www.w3.org/1999/xlink" x="0px" y="0px"
	 viewBox="0 0 610 566.8" style="enable-background:new 0 0 610 566.8;" xml:space="preserve">
<style type="text/css">
	.st0{clip-path:url(#SVGID_5_);}
	.st1{clip-path:url(#SVGID_6_);}
	.st2{clip-path:url(#SVGID_11_);}
	.st3{clip-path:url(#SVGID_12_);}
	.st4{fill:#6BB6E1;stroke:#231F20;stroke-width:0.75;stroke-miterlimit:10;}
	.st5{fill:#E8F4FA;stroke:#231F20;stroke-width:0.75;stroke-miterlimit:10;}
	.st6{fill:#FFFFFF;stroke:#231F20;stroke-width:0.75;stroke-miterlimit:10;}
	.st7{fill:none;stroke:#231F20;stroke-width:0.75;stroke-miterlimit:10;}
	.st8{fill:#FFFFFF;}
	.st9{fill:none;stroke:#231F20;stroke-width:0.75;stroke-linecap:round;stroke-linejoin:round;stroke-miterlimit:10;}
	.st10{fill:#FFFFFF;stroke:#231F20;stroke-width:0.75;stroke-linecap:round;stroke-linejoin:round;stroke-miterlimit:10;}
	.st11{fill:none;stroke:#231F20;stroke-width:0.75;stroke-linejoin:round;stroke-miterlimit:10;}
	.st12{fill:#231F20;}
	.st13{fill:none;stroke:#231F20;stroke-width:0.5;stroke-miterlimit:10;}
	.st14{fill:#FFFFFF;stroke:#000000;stroke-width:0.75;stroke-linecap:round;stroke-linejoin:round;}
	.st15{fill:none;stroke:#000000;stroke-width:0.75;}
	.st16{fill:none;stroke:#000000;stroke-width:0.75;stroke-linecap:round;stroke-linejoin:round;}
	.st17{fill:#6BB6E1;stroke:#000000;stroke-width:0.75;stroke-linecap:round;stroke-linejoin:round;}
	.st18{fill:#C5E6FB;}
	.st19{fill:#E8F4FA;stroke:#000000;stroke-width:0.75;}
	.st20{fill:#E8F4FA;stroke:#000000;stroke-width:0.75;stroke-linecap:round;stroke-linejoin:round;}
	.st21{fill:none;stroke:#000000;stroke-width:0.25;stroke-linecap:round;stroke-linejoin:round;}
	.st22{fill:#E8F4FA;}
	.st23{fill:#FFFFFF;stroke:#000000;stroke-width:0.5;stroke-linecap:round;stroke-linejoin:round;}
	.st24{fill:none;stroke:#000000;stroke-width:0.4;stroke-linecap:round;}
	.st25{fill:none;stroke:#000000;stroke-width:0.5;stroke-linecap:round;}
	.st26{fill:none;stroke:#000000;stroke-width:0.5;}
	.st27{fill:none;stroke:#000000;stroke-width:0.5;stroke-linecap:round;stroke-linejoin:round;}
	.st28{fill:none;stroke:#000000;stroke-width:0.25;}
	.st29{fill:#C5E6FB;stroke:#000000;stroke-width:0.75;}
	.st30{fill:#FFFFFF;stroke:#000000;stroke-width:0.75;}
	.st31{fill:#263238;}
	.st32{fill:#50B8E7;}
	.st33{fill:#BEE8FF;stroke:#000000;stroke-width:0.3;}
</style>
<g>
	<g>
		<g>
			<g>
				<g>
					<defs>
						<polygon id="SVGID_1_" points="-27.7,-13.3 -26.7,-13.3 -27.7,-12.3 						"/>
					</defs>
					<clipPath id="SVGID_2_">
						<use xlink:href="#SVGID_1_"  style="overflow:visible;"/>
					</clipPath>
				</g>
				<g>
					<defs>
						<polygon id="SVGID_3_" points="-27.7,-13.3 -26.7,-13.3 -27.7,-12.3 						"/>
					</defs>
					<defs>
						<polygon id="SVGID_4_" points="-29.7,-15.3 -30.7,-15.3 -29.7,-16.3 						"/>
					</defs>
					<clipPath id="SVGID_5_">
						<use xlink:href="#SVGID_3_"  style="overflow:visible;"/>
					</clipPath>
					<clipPath id="SVGID_6_" class="st0">
						<use xlink:href="#SVGID_4_"  style="overflow:visible;"/>
					</clipPath>
					<path class="st1" d="M168.5,246.4L168.5,246.4h2l0,0H168.5z M170.5,246.4L170.5,246.4h-2l0,0H170.5z"/>
				</g>
			</g>
		</g>
	</g>
	<g>
		<g>
			<g>
				<g>
					<defs>
						<polygon id="SVGID_7_" points="-27.7,-13.3 -26.7,-13.3 -27.7,-12.3 						"/>
					</defs>
					<clipPath id="SVGID_8_">
						<use xlink:href="#SVGID_7_"  style="overflow:visible;"/>
					</clipPath>
				</g>
				<g>
					<defs>
						<polygon id="SVGID_9_" points="-27.7,-13.3 -26.7,-13.3 -27.7,-12.3 						"/>
					</defs>
					<defs>
						<polygon id="SVGID_10_" points="-29.7,-15.3 -30.7,-15.3 -29.7,-16.3 						"/>
					</defs>
					<clipPath id="SVGID_11_">
						<use xlink:href="#SVGID_9_"  style="overflow:visible;"/>
					</clipPath>
					<clipPath id="SVGID_12_" class="st2">
						<use xlink:href="#SVGID_10_"  style="overflow:visible;"/>
					</clipPath>
					<path class="st3" d="M230.1,255.5L230.1,255.5h2l0,0H230.1z M232.1,255.5L232.1,255.5h-2l0,0H232.1z"/>
				</g>
			</g>
		</g>
	</g>
	<g>
		<polygon class="st4" points="327.2,181.2 292.5,267.1 607.8,267.1 573.1,180.5 		"/>
		<rect x="303" y="267.3" class="st5" width="292.7" height="231.2"/>
		<rect x="458.8" y="301.9" class="st6" width="113.5" height="87.9"/>
		<rect x="451.7" y="389.8" class="st6" width="127.5" height="9.8"/>
		<g>
			<rect x="464" y="306.4" class="st6" width="31.8" height="23.2"/>
			<rect x="499.6" y="306.4" class="st6" width="31.8" height="23.2"/>
			<rect x="535.3" y="306.4" class="st6" width="31.8" height="23.2"/>
			<rect x="464" y="334.3" class="st6" width="31.8" height="23.2"/>
			<rect x="499.6" y="334.3" class="st6" width="31.8" height="23.2"/>
			<rect x="535.3" y="334.3" class="st6" width="31.8" height="23.2"/>
			<rect x="464" y="362.1" class="st6" width="31.8" height="23.2"/>
			<rect x="499.6" y="362.1" class="st6" width="31.8" height="23.2"/>
			<rect x="535.3" y="362.1" class="st6" width="31.8" height="23.2"/>
		</g>
	</g>
	<g>
		<path class="st6" d="M69.1,496.1l2,42.5c0.1,2.8,2.4,4.9,5.2,4.9l0,0c2.9,0,5.2-2.3,5.2-5.2L81.2,495L69.1,496.1z"/>
		<path class="st6" d="M429.7,496.1l2,42.5c0.1,2.8,2.4,4.9,5.2,4.9l0,0c2.9,0,5.2-2.3,5.2-5.2l-0.3-43.4L429.7,496.1z"/>
		<path class="st6" d="M90.6,456.2l2,42.5c0.1,2.8,2.4,4.9,5.2,4.9l0,0c2.9,0,5.2-2.3,5.2-5.2l-0.3-43.4L90.6,456.2z"/>
		<path class="st6" d="M405.6,456.2l2,42.5c0.1,2.8,2.4,4.9,5.2,4.9l0,0c2.9,0,5.2-2.3,5.2-5.2l-0.3-43.4L405.6,456.2z"/>
		<path class="st6" d="M66.2,496.2h377.1c19.3,0,36.5-12,43.1-30.1l19.3-53c6.8-18.6,0.9-39.5-14.7-51.7l-14.4-11.3
			c-29.8-23.5-65-39.5-102.3-46.5l0,0c-11-2.1-22.4-1.8-33.3,0.9l-5.3,1.3c-46.2,11.1-89.7,31-128.3,58.7l0,0
			c-10.3,7.4-23.3,10.2-35.7,7.7l-68.1-13.6c-2.1-0.4-4.2-0.7-6.4-0.8l-46.5-2.6c-7-0.4-14,0.8-20.4,3.5l0,0
			c-22.5,9.5-33.7,35-25.2,58l18.1,49.4C29.8,484.2,47,496.2,66.2,496.2z"/>
		<path class="st7" d="M7.6,379L7.6,379c8.2,3.9,14.4,11.2,16.9,20l22.7,79.4c1,3.5,1.4,7.1,1.2,10.7l-0.2,3.5"/>
		<path class="st4" d="M427.7,447.4c0,0,1.8-77.3,78.8-63.4c-0.7-1.1-2.6-10.3-9.5-17.6c0,0.4-13.4-1.9-16.9-9.2
			c0.7,0.4-10.3-8.4-24.6,13.9c0.4,0.7-35.6,22-34.1,63.8C421.8,434.2,428.8,441.6,427.7,447.4z"/>
		<path class="st7" d="M79.1,465c0,0,9.5-25.7,42.2-22.7c-0.7,0,306.4,5.1,306.4,5.1s0-25.7-49.5-24.6c-0.7-0.4-280-11-293.6,2.2
			c0.7,0.4,7.3,15,0,21.3C84.6,447.4,75.8,454.4,79.1,465z"/>
	</g>
	<g>
		<polygon class="st8" points="191.6,272.9 208.5,304.5 228.6,287.5 239.4,271.5 244.8,250 245.3,241.6 233,234.2 198.1,243.2 
			197.3,259.5 		"/>
		<g>
			<path class="st6" d="M212.5,520.3l15.7,22.3c2.8,3.9,3.9,8.8,3.2,13.6l0,0c-0.1,0.9-1,1.5-1.9,1.3c-7.1-1.6-35-8.3-44.5-17
				c-2.2-2-2.5-5.3-1-7.8c4.1-6.6,13.1-20.6,13.1-20.6L212.5,520.3z"/>
			<circle class="st7" cx="196.7" cy="530.4" r="3"/>
			<path class="st9" d="M212.2,531.7c0,0,4.1-3.4,6.3-3.2"/>
			<path class="st9" d="M213.8,535.5c0,0,4.1-3.4,6.3-3.2"/>
			<path class="st9" d="M216,538.4c0,0,4.1-3.4,6.3-3.2"/>
			<path class="st9" d="M218.2,541.3c0,0,4.1-3.4,6.3-3.2"/>
		</g>
		<g>
			<path class="st6" d="M190,523.4l15.7,22.3c2.8,3.9,3.9,8.8,3.2,13.6l0,0c-0.1,0.9-1,1.5-1.9,1.3c-7.1-1.6-35-8.3-44.5-17
				c-2.2-2-2.5-5.3-1-7.8c4.1-6.6,13.1-20.6,13.1-20.6L190,523.4z"/>
			<circle class="st7" cx="174.2" cy="533.4" r="3"/>
			<path class="st9" d="M189.7,534.7c0,0,4.1-3.4,6.3-3.2"/>
			<path class="st9" d="M191.3,538.5c0,0,4.1-3.4,6.3-3.2"/>
			<path class="st9" d="M193.5,541.5c0,0,4.1-3.4,6.3-3.2"/>
			<path class="st9" d="M195.7,544.4c0,0,4.1-3.4,6.3-3.2"/>
		</g>
		<path class="st4" d="M190.2,514.1l40.4-79.4L173,421.3c-10.5-2.4-16.9-13.1-14.1-23.6l1.4-5.2c2.2-8.2,10.4-13.4,18.8-11.8
			c19.8,3.6,57.6,12.3,79.6,26.4c6.1,3.9,9.7,10.9,9.1,18.2c-0.4,5.1-1.5,11-4.1,15.5c-1.9,3.2-3.8,6.3-5.5,9.6
			c-10.1,19.2-42.2,76-42.2,76S194.4,523,190.2,514.1z"/>
		<path class="st4" d="M168.7,517.1l40.4-79.4l-57.6-13.5c-10.5-2.4-16.9-13.1-14.1-23.6l1.4-5.2c2.2-8.2,10.4-13.4,18.8-11.8
			c19.8,3.6,57.6,12.3,79.6,26.4c6.1,3.9,9.7,10.9,9.1,18.2c-0.4,5.1-1.5,11-4.1,15.5c-1.9,3.2-3.8,6.3-5.5,9.6
			c-10.1,19.2-42.2,76-42.2,76S172.9,526,168.7,517.1z"/>
		<path class="st10" d="M233.2,347l8.5,8.5c3.6,3.6,8.9,4.7,13.6,3l44-16.4c0,0,12.2,1.1,13.6,0.2c0.2-0.1,7.4-2.1,8.8-4
			c0.3-0.4,0-0.9-0.4-1c-0.8-0.2-2.7-0.2-6.4,0.5c-1,0.2-2.1,0.1-3-0.4c-0.8-0.5-1.3-1.1-0.4-2c-0.1-0.1,7.9-4,11.8-2.3
			c-0.2-0.5,4.9,0.9,4.9-1.3c0-0.1,0.5-0.5,1.1-1.1c0.7-0.7,0.7-1.8,0.1-2.5l-1.2-1.3l0,0c0.4-0.8,0.3-1.8-0.3-2.5
			c-0.3-0.4-0.7-0.7-1.2-1c-0.8-0.4-1.9-1-3.3-1.6c-4.7-1.9-10-1.5-14.4,0.9c-4,2.2-9.2,5-11.5,6.2c-0.8,0.4-1.6,0.7-2.5,0.9
			l-43.5,8.6L233.2,347z"/>
		<path class="st9" d="M316.6,328.9c0,0,11.6,0,11.5,2.7"/>
		<path class="st9" d="M316.1,326.3c0,0,13.6,0,13.5,2.7"/>
		<path class="st9" d="M316.7,323.5c0,0,11.6,0,11.5,2.7"/>
		<path class="st6" d="M154.1,351.8c0,0-8.8,20.6-7.9,28.7c0.2,1.5,1.4,2.7,2.9,3c8.5,1.3,49.5,11.1,52.9,9.6
			c0.5,0,19.3-0.2,19.5-1.7c0,0,4.1-23.4,3.6-36.4c-0.5-0.5,30.8-11.3,31.1-20.5c0-0.2-18.8-35.4-29.4-40.7c0-0.5-44.3-21-48.2-19.5
			c2.4-0.2-0.2,8.9-0.2,8.9l-10.8,0.8c-3.4,0.3-6.6,2.1-8.4,5.1c-6,9.6-18.5,32-15.1,46.5c0.2,0.9,0.6,1.8,1,2.7
			C146.2,340.8,150,350,154.1,351.8z"/>
		<path class="st11" d="M154.1,351.8c0,0,25.9-5.6,26.7-14.8c0.3-0.5-0.8-5.2-4.5-7.1c1,0.5,3-35.3-8.7-46"/>
		<path class="st7" d="M226.1,315.2c0,0,2.4,21-0.5,32.5"/>
		<path class="st6" d="M160.5,350.1l3.1,9.9c1.4,4.1,4.4,7.5,8.3,9.4l40.6,19.9c0,0,10.7,5.6,16.3,5.3c1-0.1,2.1,0.3,2.8,1l3.6,3.3
			l0.8,0.1c1.2,0.1,2.3-0.8,2.3-2.1v-0.1l1,0.1c1.1,0.1,2.1-0.8,2.2-1.9l0.1-0.8l0,0c1.2-0.1,2.1-1.1,1.9-2.3l-0.1-1.2l1-0.5
			c0.7-0.4,1.1-1.1,1.1-1.9v-1.4l-8.7-8.5c-1.1-1.1-2.7-1.6-4.3-1.3c-3.2,0.6-8.8,1.4-11.3,0.2c0.8,0.1-37.4-22.6-39.8-28.5
			c0.4,0.2-4.3-6.7-4.3-6.7l-7.7,4.7L160.5,350.1z"/>
		<path class="st7" d="M238.4,396.9c0,0-4.2-5.9-8-6.9"/>
		<path class="st7" d="M241.6,394.2c0,0-4.2-5.9-8-6.9"/>
		<path class="st7" d="M243.4,390.5c0,0-4.2-5.9-8-6.9"/>
		<path class="st7" d="M225.5,266.5c0,0,3.9,1.2,4.4,0c-0.2,0.2-0.5-7.8,1.2-9.8"/>
		<path class="st7" d="M217.9,264.4c0,0-0.3,3.4,2.3,4.4"/>
		<path class="st7" d="M235.3,254.7c0,0,3.9-1.1,5.9,1.2"/>
		<path class="st7" d="M227.5,251c0,0,0.2-1.4-3-2"/>
		<circle class="st12" cx="222.1" cy="256" r="0.8"/>
		<circle class="st12" cx="235.1" cy="260.9" r="0.8"/>
		<path class="st4" d="M154.9,296.3c-0.9,1.7-3.1-8.9-1.6-11.3c2.4-3.8,5.9-2.9,8.8-6.6c2.8-3.5,0.4-5.5,2.9-10.1
			c2.1-3.9,5.8-6.1,11.8-9.6c4.8-2.8,7.5-3.5,8.5-6.4c0.9-2.5-0.7-3.4,0-5.8c1.2-4.1,7.1-4.1,14.2-8.2c6.7-3.7,6.2-6.3,11.2-9.1
			c7.3-4.2,16-4.1,22.5-1.4c2.3,0.9,7,2.8,7.8,6.9c0.4,1.9,0.1,4.5-1.6,5.9c-2.2,1.8-4.7-0.4-7.7,1.1c-2.9,1.5-2.4,4.5-4.6,6.9
			c-3.3,3.5-10.3,3.6-14.9,1.4c-2.7-1.2-3.7-2.9-5.4-2.4c-1.9,0.6-3.4,3.4-2.9,5.8c0.6,3,4.2,3.2,4.6,5.8c0.4,2.4-2.7,3.3-4.6,7
			c-2.6,5.1,1,7.5-1,13.4c-2,6.2-7,6.3-7.4,11.2c-0.4,5.1,4.7,7.9,3.5,10.4c-1.4,3.1-9.1,4.2-14.2,1.3c-5.4-3.1-7.8-10.6-7.9-15.9
			c0-2.8,0.2-2.5-0.6-3.2C172.9,280.3,157.9,290.5,154.9,296.3z"/>
		<path class="st4" d="M234,296c1.6-1.9,0.3-4.2,2.7-7.8c1.6-2.3,3.9-3.7,4.7-4.4c4.9-4.2,5.6-4.3,6.2-5.6c1.3-2.7-0.6-6.2-2.6-10.4
			c-1.7-3.5-2.6-3.9-2.5-5.6c0.2-2.7,2.7-3,5.2-7c0.8-1.2,2.9-4.5,2.6-8.7c-0.1-0.8-0.2-7-3.9-8.3c-1.8-0.6-4.3,0-5.5,1.7
			c-1.2,1.8,1.4,3.8,1.8,7.3c0.3,3.1-1.2,4.5-3.3,9.1c-4.1,8.6-2.2,10.8-6.4,17.9c-3.1,5.1-5.3,6-6.1,6.3c-3.8,1.4-6.4-2.6-9.6-1.5
			c-3.3,1.2-5.4,7-4.1,11.2C215.8,298.4,230.5,300.2,234,296z"/>
	</g>
	<g>
		<line class="st13" x1="327" y1="190.4" x2="345.9" y2="183.7"/>
		<line class="st13" x1="324.8" y1="197.4" x2="363.4" y2="183.7"/>
		<line class="st13" x1="553.4" y1="263.2" x2="595.7" y2="247.9"/>
		<line class="st13" x1="563.6" y1="265.6" x2="602.1" y2="251.9"/>
		<line class="st13" x1="578.9" y1="265.9" x2="604" y2="256.9"/>
		<line class="st13" x1="319.9" y1="205.4" x2="380" y2="184.3"/>
		<line class="st13" x1="533" y1="263.2" x2="593" y2="242.1"/>
		<line class="st13" x1="316.6" y1="213.2" x2="399.2" y2="184.3"/>
		<line class="st13" x1="508.5" y1="263.9" x2="591.2" y2="235"/>
		<line class="st13" x1="313.3" y1="221" x2="421.5" y2="184.6"/>
		<line class="st13" x1="480.4" y1="265.4" x2="588.6" y2="229.1"/>
		<line class="st13" x1="309.9" y1="228.7" x2="447.4" y2="183.5"/>
		<line class="st13" x1="450.4" y1="266.2" x2="587.8" y2="221"/>
		<line class="st13" x1="306.6" y1="236.5" x2="468.9" y2="185"/>
		<line class="st13" x1="412.9" y1="263.2" x2="575.2" y2="211.7"/>
		<line class="st13" x1="423.3" y1="266.5" x2="585.6" y2="215"/>
		<line class="st13" x1="303.3" y1="244.3" x2="498.9" y2="183.9"/>
		<line class="st13" x1="381.1" y1="264.7" x2="576.7" y2="204.3"/>
		<line class="st13" x1="299.9" y1="252.1" x2="522.2" y2="184.6"/>
		<line class="st13" x1="353.7" y1="263.9" x2="576" y2="196.5"/>
		<line class="st13" x1="296.6" y1="259.9" x2="543.4" y2="184.6"/>
		<line class="st13" x1="311" y1="263.2" x2="557.8" y2="188"/>
		<line class="st13" x1="328.1" y1="264.7" x2="574.9" y2="189.5"/>
	</g>
	<line class="st13" x1="422.4" y1="430.8" x2="427.8" y2="437.7"/>
	<line class="st13" x1="423" y1="427.3" x2="428.4" y2="434.2"/>
	<line class="st13" x1="423.6" y1="422.9" x2="429" y2="429.8"/>
	<line class="st13" x1="424.2" y1="419" x2="429.6" y2="426"/>
	<line class="st13" x1="424.7" y1="415.2" x2="430.9" y2="423.3"/>
	<line class="st13" x1="426" y1="412" x2="432.2" y2="420.2"/>
	<line class="st13" x1="427" y1="408.6" x2="433.9" y2="416.8"/>
	<line class="st13" x1="428.1" y1="404.3" x2="436" y2="414"/>
	<line class="st13" x1="430" y1="401.1" x2="437.9" y2="410.8"/>
	<line class="st13" x1="432.1" y1="397.5" x2="439.9" y2="407.2"/>
	<line class="st13" x1="433.8" y1="393.8" x2="441.7" y2="403.5"/>
	<line class="st13" x1="436.6" y1="390.9" x2="444.5" y2="400.5"/>
	<line class="st13" x1="439.3" y1="387.8" x2="447.2" y2="397.4"/>
	<line class="st13" x1="441.9" y1="384.8" x2="449.8" y2="394.5"/>
	<line class="st13" x1="445" y1="381.9" x2="453.5" y2="391.7"/>
	<line class="st13" x1="447.8" y1="378.9" x2="457.1" y2="390"/>
	<line class="st13" x1="450.6" y1="376.6" x2="459.9" y2="387.6"/>
	<line class="st13" x1="454" y1="373.9" x2="464" y2="386.1"/>
	<line class="st13" x1="457.1" y1="370.9" x2="468.4" y2="384.8"/>
	<line class="st13" x1="459.5" y1="367.2" x2="472.8" y2="383.7"/>
	<line class="st13" x1="461.8" y1="363.3" x2="477.7" y2="382.7"/>
	<line class="st13" x1="465.4" y1="360.5" x2="483.7" y2="382.4"/>
	<line class="st13" x1="469" y1="357.5" x2="489.8" y2="382.2"/>
	<line class="st13" x1="474.9" y1="356.1" x2="496.6" y2="382.5"/>
	<line class="st13" x1="486" y1="362.6" x2="502.9" y2="383.3"/>
	<line class="st13" x1="493.5" y1="365.4" x2="505.2" y2="381.3"/>
	<path class="st7" d="M217.4,221.9c0,0,18.5-4.2,23.9,0"/>
	<path class="st7" d="M220.8,215.9c0,0,9.9-2.1,14.9,0"/>
	<g>
		<path class="st14" d="M274.5,549.2v-13.5h14c0.3,5.2,0.8,15.1,0,13.5S278.9,548.5,274.5,549.2z"/>
		<path class="st14" d="M311,550.2v-13.5h14c0.3,5.2,0.8,15.1,0,13.5S315.4,549.5,311,550.2z"/>
		<path class="st14" d="M268.6,538.7c-7.6-2,3.2-90.2,9.5-134c0-2.8,2.3-5.2,3.5-6l40.5,9.5c2-8,6.4-22.2,6.4-23.1
			c0-1.5,3.5,0,5,1.5l-5.4,21.6l17,4l-3.5,16c-1.3,8.3-3.8,26.2-3,31c1,6-5.1,76.5-5.6,79.5s-23.9,4.5-27.9,0c-3.2-3.6-4-20.8-4-29
			c-1.3,5.8-4.2,18.8-5,24C295.1,540.2,278.1,541.2,268.6,538.7z"/>
		<path class="st8" d="M303.5,374.6c-11.2-5.2-3.6-24.8,2-32.9c6.5-7.5,10-3,11.5-3s2.5,0.5,3,7c0.4,5.2,4.7-0.3,6-3
			c-0.5,1.3-2.6,5.4-1,9c4,4,3,3.5,3,6.5s4.5,1,4.5,0s1.5-1.1,1.5,4.4c0,4.4-5,4.2-7.5,3.5c-0.5,3.2-1.9,10.6-3.5,15
			c-2,5.5-19,5.5-16.9,4c1.7-1.2,0.7-6.8,0-9.5C305.2,375.4,304.4,375,303.5,374.6z"/>
		<path class="st15" d="M320,373.6c-2.5,1.4-8.2,3.5-13.9,2 M306.1,375.6c-0.9-0.2-1.8-0.6-2.6-1c-11.2-5.2-3.6-24.8,2-32.9
			c6.5-7.5,10-3,11.5-3s2.5,0.5,3,7c0.4,5.2,4.7-0.3,6-3c-0.5,1.3-2.6,5.4-1,9c4,4,3,3.5,3,6.5s4.5,1,4.5,0s1.5-1.1,1.5,4.4
			c0,4.4-5,4.2-7.5,3.5c-0.5,3.2-1.9,10.6-3.5,15c-2,5.5-19,5.5-16.9,4C307.8,383.9,306.8,378.3,306.1,375.6z"/>
		<circle cx="318" cy="356.7" r="1"/>
		<circle cx="307" cy="350.7" r="1"/>
		<path class="st16" d="M307,347.7c0.5-0.3,1.7-0.5,2.5,1.5 M318.5,354.4c0.7-0.3,2.1-0.5,2.5,1.5 M310.5,365.2
			c0.5,1.5,3.4,2.6,4.6-1 M309.1,361.4c-1.2-0.5-3.1-1.9-1.5-3.5s4.3-3.7,5.5-4.5"/>
		<path class="st17" d="M312.7,340.6c-1.6,2.8-5,2.5-6.5,2c2,2-2.2,6.8-4.5,9c-7,4-6.5-2.5-6.5-3s4-3.5-0.5-7s1-10,7-9.5
			c4.8,0.4,8.7-1.2,10-2c35-11.5,37,20.5,36,26c7,12.5-2,12-7,14.5c0,4-5,4-9.5,3c-0.8,2-4.3,1.2-6,0.5c0.2-1,0.7-4.1,1.5-8.5
			c5.6,1.6,7-1.3,7-3c-0.2-1.3-1.3-3.7-4.5-2.5c-4,1.5-2.5-2.5-2-5c-4.8-0.8-2.5-7.5-2.5-10.5c-0.5,1.5-0.7,4.4-4,4
			c-4-0.5-1.5-9.5-2-8.5S315.2,341.6,312.7,340.6z"/>
		<path class="st18" d="M291,565.3c-0.2-3.3,1.4-10.3,9-11.5c0.5-0.3,1-0.6,1.5-0.9c0.9-0.5,1.7-1,2.5-1.5c1-0.6,1.8-1.1,2.5-1.5
			c0.8-0.5,1.5-1,2-1.3c0.5-0.4,0.9-0.6,1-0.8c0.5-0.5,16,1,17.5,0s3,17,1.5,17.5c-0.8,0.3-12.4,0.3-23.5,0.2
			C299.9,565.4,294.8,565.3,291,565.3z"/>
		<path class="st16" d="M300,553.8c-7.6,1.2-9.2,8.2-9,11.5c3.8,0.1,8.8,0.1,14,0.2 M300,553.8c0.5-0.3,1-0.6,1.5-0.9 M300,553.8
			c1.8,1.9,5.4,7,5,11.7 M301.5,552.9c0.8,0.5,2.5,1.7,2.5,2.9 M301.5,552.9c0.9-0.5,1.7-1,2.5-1.5 M304,551.4
			c1,0.6,2.9,2.1,2.5,2.9 M304,551.4c1-0.6,1.8-1.1,2.5-1.5 M306.5,549.8c1,0.7,3,2.3,2.8,3 M306.5,549.8c0.8-0.5,1.5-1,2-1.3
			 M308.5,548.5c0.5-0.4,0.9-0.6,1-0.8c0.5-0.5,16,1,17.5,0s3,17,1.5,17.5c-0.8,0.3-12.4,0.3-23.5,0.2 M308.5,548.5
			c1,0.5,3,1.7,3,2.9"/>
		<path class="st18" d="M256,562.5c-0.1-3,1.2-9.2,8-10.3c0.5-0.3,0.9-0.5,1.3-0.8c0.8-0.5,1.6-0.9,2.2-1.3c0.9-0.5,1.6-1,2.2-1.4
			c0.8-0.5,1.3-0.9,1.8-1.2s0.8-0.6,0.9-0.7c0.4-0.4,14.3,0.9,15.6,0c1.3-0.9,2.7,15.3,1.3,15.7c-0.7,0.2-11.1,0.2-21,0.1
			C263.9,562.6,259.4,562.5,256,562.5z"/>
		<path class="st16" d="M264.1,552.1c-6.8,1.1-8.2,7.3-8,10.3c3.4,0,7.9,0.1,12.5,0.1 M264.1,552.1c0.5-0.3,0.9-0.5,1.3-0.8
			 M264.1,552.1c1.6,1.7,4.8,6.3,4.5,10.5 M265.4,551.4c0.7,0.4,2.2,1.5,2.2,2.6 M265.4,551.4c0.8-0.5,1.6-0.9,2.2-1.3 M267.6,550
			c0.9,0.6,2.6,1.9,2.2,2.6 M267.6,550c0.9-0.5,1.6-1,2.2-1.4 M269.8,548.6c0.9,0.6,2.6,2.1,2.5,2.7 M269.8,548.6
			c0.8-0.5,1.3-0.9,1.8-1.2 M271.6,547.4c0.5-0.3,0.8-0.6,0.9-0.7c0.4-0.4,14.3,0.9,15.6,0c1.3-0.9,2.7,15.3,1.3,15.7
			c-0.7,0.2-11.1,0.2-21,0.1 M271.6,547.4c0.9,0.4,2.7,1.5,2.7,2.6"/>
		<path class="st19" d="M255.7,451.4l-6.4-57.5l59.5-6.9l6.9,58L255.7,451.4z"/>
		<path class="st20" d="M275,353.6c-1.2-1.6-2.2-0.7-2.5,0L244,395.1l68-8C300.4,376.6,276.6,355.2,275,353.6z"/>
		<path class="st14" d="M271.5,369.6c-2.5,0.6-2.7,0.5-2.5,2c0.3,2.7,0.5,7.6,1,9.5c0.3,1.2,1.7,1.2,2.5,1c2.2-0.3,6.9-0.7,8.5-1
			c2-0.4,2-1,2-1.5l0,0c-0.3-2.8-1.1-8.8-1.5-10s-0.8-1.2-2.5-1C277.4,368.7,273.5,369.1,271.5,369.6z"/>
		<path class="st14" d="M293.6,396.8c-2.5,0.6-2.7,0.5-2.5,2c0.3,2.7,0.5,7.6,1,9.5c0.3,1.2,1.7,1.2,2.5,1c2.2-0.3,6.9-0.7,8.5-1
			c2-0.4,2-1,2-1.5l0,0c-0.3-2.8-1.1-8.8-1.5-10s-0.8-1.2-2.5-1C299.4,395.9,295.6,396.3,293.6,396.8z"/>
		<path class="st16" d="M278,448.7c-1.8-11.8-4.9-36.3-3.7-36.7c1.5-0.5,12.5-2,13-1c0.4,0.8,3.4,24.7,4.7,36.2"/>
		<path class="st8" d="M345.4,391.7c12,2.5,3,44.5-13,45.5c-1.1-0.2-2.3-0.5-3.5-1c-3.7,5.2-12.8,14.1-20,8.5
			c-6.8-5.3-25.9-21-36.1-29.5c-1.2-1-2.1-2.3-2.5-3.8c-1.1-4-2-9.2,0-9.2c0.5,0,0.8-0.1,1,0c0-1.2,0.6-3.4,2.2-3
			c0.6,0.2,0.6,0.1,0.8,0.5c0-1.9,1.7-4.5,3.7-2.5c0,0.4-0.1,0.8-0.1,1.4c0.4-1.1,1.7-2.8,3.1-0.9c0.5,3.5,3.5,9,5.5,9s-1.3-5.4,1-6
			s1,5.5,4,9.5c2.4,3.2,15.3,11,21.5,14.5c-2-2.5,1-6,3.5-6.5s2-1.5,4-6C325.2,398.6,339,392.8,345.4,391.7z"/>
		<path class="st16" d="M322.9,380.7c6.3,3.7,19.8,10.4,22.5,11 M345.4,391.7c12,2.5,3,44.5-13,45.5c-1.1-0.2-2.3-0.5-3.5-1
			 M345.4,391.7c-6.3,1.2-20.2,6.9-25,20.5c-2,4.5-1.5,5.5-4,6s-5.5,4-3.5,6.5 M312.9,424.7c1.7,2.1,9.4,8.8,16,11.5 M312.9,424.7
			c-6.2-3.5-19.1-11.3-21.5-14.5c-3-4-1.7-10.1-4-9.5s1,6-1,6s-5-5.5-5.5-9c-1.4-1.9-2.7-0.2-3.1,0.9 M328.9,436.2
			c-3.7,5.2-12.8,14.1-20,8.5c-6.8-5.3-25.9-21-36.1-29.5c-1.2-1-2.1-2.3-2.5-3.8c-1.1-4-2-9.2,0-9.2c0.5,0,0.8-0.1,1,0
			 M273.4,409.2c-0.3-0.7-1.1-2.2-1.5-3c-0.8-2.5,0.5-3.7-0.7-4 M271.2,402.2c0-1.2,0.6-3.4,2.2-3c0.6,0.2,0.6,0.1,0.8,0.5
			 M276.9,408.2c-1.5-1.5-2.2-5.5-2.2-5.9c0-0.3,0-1.8-0.5-2.6 M274.2,399.7c0-1.9,1.7-4.5,3.7-2.5c0,0.4-0.1,0.8-0.1,1.4
			 M279.7,405.7c-0.2-0.3-0.5-1-1-2.5c-0.4-1.2-0.9-3-0.9-4.6"/>
		<path class="st21" d="M270,530.2l64-84.5"/>
		<path class="st21" d="M300,500.7l37-49"/>
		<path class="st21" d="M269,521.7l61-81"/>
		<path class="st21" d="M269,509.7l45-61"/>
		<path class="st21" d="M270,497.2l35-48.5"/>
		<path class="st21" d="M303.5,508.2l32.5-43.5"/>
		<path class="st21" d="M304,522.2l32.5-43.5"/>
		<path class="st21" d="M305.5,531.7l30-38"/>
		<path class="st21" d="M315,531.7l18-22"/>
		<path class="st21" d="M272,536.4l17-22.8"/>
	</g>
	<g>
		<path class="st8" d="M240.4,79.2l41.7-30.4L332.2,60l3.8,33.5l2.4,18.8l-2.1,2.1c0,0,2.8,10.7-14.1,24.4
			c0.1,0-15.1,12.3-15.1,12.3l-3.6,3.4c0,0-3.5,3.7-3.5,5.6h-0.5c0,0-3.1-4.3-8.2-5.8l-10.3-4.2l-8.1-3.1l-6.8-4.3l-5.8-5.6
			c0,0-9-7.7-14.3-31.1C246,105.7,240,82.9,240.4,79.2z"/>
		<path class="st22" d="M454.7,89.3l9.8,88.1l29.4,3.7l11.1-29.5l-14.7-76.5c0,0-8.3-3.4-11.2-11.6c-0.1,0-17.3,9.5-17.3,9.5
			s1.3,3.7-4.1,10.5C457.6,83.5,454.7,89.3,454.7,89.3z"/>
		<path class="st8" d="M475.4,32c0.7,0.2,1.3,0.7,1.8,1.3c0.4,0.6,0.7,1.4,0.7,2.1c0,3.3-1.7,4.8-2.9,5.5c-0.3,0.2-0.6,0.5-0.7,0.8
			l6.3,24.3l-18.5,8.6l-2.2-7.1c-8,2.3-12.9-1.9-15.6-5.6c-1.5-2-2.5-4.3-3.1-6.7l-4.7-16.8c0,0-5.9,0.8-5.4-5.4
			c-0.1-0.1,0.4,4-3.2,4c-1.5,0-2.8-0.7-3.7-1.9c-1.3-1.8-2.7-4.8,0.7-7.3c-0.2-0.2-3-3.1,0.9-5.1c0.3,0-6.8-8.8,7.5-10.4
			c0-0.2-1.2-8.7,10.2-8.5C443.7,4,454-4.5,461.7,6c0.3-0.2,6.1-2.4,7.8,3.2c0.2-0.2,7.8-1.5,9.7,8c0,0,7,6.3,1.5,11.9
			C480.9,29.1,478.9,31,475.4,32z"/>
		<g>
			<path class="st23" d="M336.7,117.1c1.2-0.4,6.5,3.2,9,5c-0.4-1.2,5.2-12.2,8-17.5c-3-3.3-8.7-10.8-10-12c-1.9-1.7-9-3-10-3
				s-7-3.5-9-2.5s5,8,9.5,11C337.2,103.1,335.2,117.6,336.7,117.1z"/>
			<path class="st24" d="M566.8,153c0.6,7.1-0.1,21.7-7.5,23.6 M571.4,158.7c0.4,3.3,0.5,10.6-2.3,13.8 M395.3,162.2
				c5.6,3.6,18.6,8.1,26.5-3.5 M402.2,169.1c2.9,2.3,10.8,5.5,19.6,0"/>
			<path class="st25" d="M237.7,68c4.3,28.8,10.3,48.9,12.8,55.3c2.7,7.9,11.9,20.6,27.1,25.6c17.1,5.4,21.9,10.1,22.1,11.8"/>
			<path class="st4" d="M240.4,81.4L237.8,68c42.1-13.4,43.5-30.1,43.5-30.1c-0.1-0.6,14.3,20.9,49.8,17l1.9,12.9
				c-20.3,5-48.7-9.2-48.7-9.2S259.8,79.2,240.4,81.4z"/>
			<path class="st4" d="M309.7,87.6l-10.2-2.4l-4.3,13.1l-4.3,13.1l-14.5-4.4l-2.7,8.3l22.1,7.3L309.7,87.6z"/>
			<path class="st8" d="M444.1,186.5c2.2-1.5,16.2-3.7,24-4.5c-0.4,0.4,5.2,11.2,8,16.5c-1.3,0.3-4.2,1.4-5,3c-1,2-9.5,4-12.5,4
				s-5.5,3.5-10,6c-3.6,2-3.9-1.2-3.6-3c-0.4,0.2-0.7,0.4-0.9,0.5c-4.8,1.2-4.8-1.9-4.1-3.6c-0.3,0.2-0.6,0.4-0.9,0.6
				c-4,1.6-3.8-1.8-3.2-3.7c-0.3,0.1-0.6,0.2-0.8,0.2C429.6,199.5,442.4,187.7,444.1,186.5z"/>
			<path class="st25" d="M448.6,193c-1.2,0-8.5,6-12,9c-0.2,0.1-0.4,0.2-0.7,0.3 M435.9,202.3c-0.3,0.1-0.6,0.2-0.8,0.2
				c-5.5-3,7.3-14.8,9-16c2.2-1.5,16.2-3.7,24-4.5c-0.4,0.4,5.2,11.2,8,16.5c-1.3,0.3-4.2,1.4-5,3c-1,2-9.5,4-12.5,4s-5.5,3.5-10,6
				c-3.6,2-3.9-1.2-3.6-3 M435.9,202.3c-0.6,1.9-0.8,5.3,3.2,3.7c0.3-0.2,0.6-0.4,0.9-0.6 M451.6,197c-1.4,0-7.6,5.6-11.6,8.4
				 M440,205.4c-0.6,1.7-0.7,4.8,4.1,3.6c0.2-0.1,0.5-0.3,0.9-0.5 M455.1,202c-2.6,1.7-7.7,5.1-10.1,6.5 M332.8,67.5l2.5,22
				 M336.3,116.9c-0.2,19.3-34.6,32.8-36.5,43.6"/>
			<path class="st26" d="M469.1,33.3c0.1,0.1,0.2,0.2,0.3,0.3c0.1,0.1,0.3,0.1,0.4,0.2c0.2,0,0.3,0,0.5,0c0.1,0,0.3-0.1,0.4-0.2
				c1.8-1.7,3.3-1.9,4.5-1.5c0.7,0.2,1.3,0.7,1.8,1.3c0.4,0.6,0.7,1.4,0.7,2.1c0,3.3-1.7,4.8-2.9,5.5c-0.3,0.2-0.6,0.5-0.7,0.8
				l6.3,24.3l-18.5,8.6l-2.2-7.1c-8,2.3-12.9-1.9-15.6-5.6c-1.5-2-2.5-4.3-3.1-6.7l-4.7-16.8"/>
			<path class="st8" d="M459.2,34.5c-1.5-0.2-2.3,0.5-2.7,0.9c-0.1,0.1-0.1,0.2-0.1,0.2c0,0.1,0,0.2,0.1,0.2
				c0.1,0.1,0.2,0.1,0.2,0.1c0.1,0,0.2,0,0.2-0.1c0.3-0.3,0.9-0.8,2.1-0.7c0.1,0,0.2,0,0.2-0.1c0.1-0.1,0.1-0.1,0.1-0.2v-0.1
				c0,0,0-0.1-0.1-0.1L459.2,34.5C459.3,34.5,459.3,34.5,459.2,34.5z"/>
			<path class="st25" d="M473.9,25.5c0.8,0.8,2.8,2.3,4.4,1.8 M471.1,13.5c1.8,1.1,5,4.8,3.6,10.5 M472.8,11.2
				c2.3,1.7,6.3,6.9,3.7,13.6 M464.5,23.1c0,0.9-0.4,2.9-2.3,3.4 M463.4,27.4c2-0.6,5.6-2.9,4.2-6.8 M468.4,16.3
				c1.7,2.4,3.6,8.1-2.8,11.8 M449.6,20.1c0.2,1.1,0.8,3.3,2.2,3.1 M447.4,19.4c0.2,1.8,1.2,5.6,4,6 M465.3,7.1
				c-0.8,2.4-1.5,7.9,2.2,10.4 M463,8.1c-0.8,2.5-1.5,8,1.8,9.8 M459.6,10.7c-0.2,2,0.2,6.5,3,8.5 M457.5,22.1c-0.1,1-0.5,3-1.7,2.7
				 M459.3,20.4c0.1,2.1-0.2,6.2-1.9,6.1 M458,14.1c-1.4,0.8-3.8,3.5-2.3,7.9 M455,12.4c-1.3,1.8-3.5,6-1.5,8.5 M446.8,8.4
				c1.8-0.8,6.3-1.7,9.6,1.7 M447.2,6c2.2-0.8,7.3-1.4,10.4,2.3 M447,5c1.6-1.5,6.2-3.2,11.7,2.1 M446.9,13.6
				c0.2-1.6,1.9-4.5,6.9-2.7 M451,18.2c-0.6-1.5-1.1-4.9,1.2-6 M448.9,13c-0.7,0.9-1.9,3-1.4,4.4 M444.8,16c-1-1.6-2.3-5.5,0.8-8.4
				 M439.3,10.9c-0.6-1.5-1.1-4.7,1.3-5.4 M442.9,7.6c-1.1,2.1-2.6,7,0,9.7 M437.2,13.3c-0.9-0.6-2.4-2.2-1.3-4.3 M439.5,15
				c-1.7,1.1-4.2,4.6-0.9,10.2 M436.4,14.8c-1.7,1.6-4.2,6.4-0.6,12.2 M430.9,17.7c-0.9,0.4-2.2,1.5-0.6,3.2 M428.8,17
				c-0.9,0.8-2.2,2.9,0,4.8 M429.4,14.5c-2.4,1-6,4.1-1.6,8.2 M433.2,15.3c-1.3,2.5-3.1,8.6,0.3,13.1 M439.7,28.1
				c1.1-0.4,3.3-1.5,3.4-2.9 M439.3,29.9c1.9-0.3,5.8-1.7,5.8-5 M439.5,31.3c0.3-0.4,5.9,0.5,7.2-4.9 M435.1,32.3
				c-0.1,0.8-0.8,2.5-2.7,2.5 M437.5,31.6c0.1,1.3-0.7,4-4.1,5.1 M428.9,25.2c0.2,1.6,1,5,3.3,6.1 M440.5,17c-0.3,1-0.7,3,0.2,3.4
				 M427.3,25.8c-0.7,0-1.7,0.5-0.3,2.5 M428.8,31.5c-0.7,0.7-1.7,2.3-0.2,3.5 M427.6,30.3c-1.2,0.4-3.1,1.8-1.1,4.3"/>
			<path d="M458.9,56.2c-0.7,0-1.3-0.2-1.9-0.6c-0.1-0.1-0.1-0.4-0.1-0.5c0.1-0.1,0.3-0.1,0.5-0.1c0.7,0.6,1.7,0.6,2.7,0.2
				c1.1-0.5,2-1.4,2.6-2.5c0.1-0.1,0.3-0.3,0.5-0.1c0.1,0.1,0.3,0.3,0.1,0.5c-0.6,1.3-1.7,2.4-2.9,2.9
				C459.9,56.1,459.4,56.2,458.9,56.2z"/>
			<path d="M452.7,50.6c-0.1,0-0.1,0-0.1,0l-1.2-0.6c-0.1-0.1-0.5-0.2-0.5-0.6c-0.1-0.4,0.1-0.8,0.2-1c0.9-1.5,1.2-3.6,0.9-5.4
				c-0.1-0.2,0.1-0.4,0.2-0.5c0.2-0.1,0.3,0.1,0.4,0.2c0.5,2,0.1,4.4-0.9,6.1c0,0.1-0.1,0.2-0.1,0.2s0.1,0.1,0.2,0.1l1.2,0.6
				c0.2,0.1,0.3,0.3,0.2,0.5C452.9,50.5,452.8,50.6,452.7,50.6z"/>
			<path d="M445.3,43.6c0.2,0.3,0.3,0.6,0.3,0.9c0,0.3-0.1,0.6-0.2,0.9c-0.2,0.2-0.4,0.4-0.6,0.5c-0.3,0.1-0.6,0.1-0.8-0.1
				c-0.3-0.1-0.5-0.3-0.7-0.6s-0.3-0.6-0.3-0.9c0-0.3,0.1-0.6,0.2-0.8s0.4-0.4,0.7-0.5l0.2,0.5c0.1,0.4,0.7,0.6,1.1,0.3L445.3,43.6z
				"/>
			<path d="M461.2,38.4c0.2,0.2,0.3,0.5,0.3,0.8s0,0.5-0.2,0.8c-0.1,0.2-0.3,0.4-0.5,0.4c-0.2,0.1-0.5,0-0.7-0.1s-0.4-0.3-0.6-0.5
				s-0.2-0.5-0.2-0.8s0.1-0.5,0.2-0.8c0.1-0.2,0.3-0.4,0.6-0.4l0.1,0.4C460.1,38.6,460.7,38.8,461.2,38.4L461.2,38.4z"/>
			<path class="st18" d="M488.3,74c11.8,0.8,35.7,2.6,36.5,3c11-2,17,13,18,14.5s8.5,46.5,12.5,60s-7,21.5-8,22s-65,30.5-70,28
				c-3.7-1.8-9-13.2-11.9-20.8l-17,0.1c0.5-2.2,1.2-6.9,0.4-11.3s-4.3-33.5-6-47.5c-10,15.2-32.1,43.6-40.5,36
				c-10.5-9.5-60-27-59-34.5c0.8-6,7.3-16.5,10.5-21c16.5,8.3,49.6,25.2,50,26c0.5,1,20-31,25.5-32.5c4.4-1.2,21.2-9.5,29-13.5
				c3.7,20.8,10.9,63.2,10.5,66s1.2,18.6,2,26.1c6.6-3,14.4-6.5,22-9.9C488.4,155.7,488,100.4,488.3,74z"/>
			<path class="st27" d="M524.8,77c-0.8-0.4-24.7-2.2-36.5-3c-0.3,26.5,0.1,81.7,4.5,90.7 M524.8,77c1,0.5-14,6.5-10,21
				c4,14.5,12,50.5,11,51.5c-0.5,0.5-16.3,7.7-33,15.2 M524.8,77c11-2,17,13,18,14.5s8.5,46.5,12.5,60s-7,21.5-8,22s-65,30.5-70,28
				c-3.7-1.8-9.3-14.4-12.2-22 M492.8,164.7c-7.6,3.4-15.4,6.9-22,9.9 M470.8,174.6c-2.3,1-4.5,2-6.5,2.9c0.2,0.6,0.5,1.3,0.8,2
				 M470.8,174.6c-0.8-7.5-2.4-23.3-2-26.1s-6.8-45.2-10.5-66c-7.8,4-25.2,11-29,13.5c-8.6,5.5-25,33.5-25.5,32.5
				c-0.4-0.8-33.5-17.7-50-26c-3.2,4.5-9.7,15-10.5,21c-1,7.5,48.5,25,59,34.5c8.4,7.6,30.5-20.8,40.5-36c1.7,14,5.2,43.1,6,47.5
				s-0.1,9.5-0.6,11.7l17.2-0.4"/>
		</g>
		<path class="st26" d="M458.5,82.4c0,0,3.7-5.2,3.5-7.8l18.5-8.6c0,0,2.3,5.7,8,7.9"/>
		<line class="st28" x1="462.9" y1="74.6" x2="464.6" y2="85.6"/>
		<line class="st28" x1="467.6" y1="72.1" x2="469.3" y2="83.2"/>
		<line class="st28" x1="472.4" y1="69.7" x2="474.1" y2="80.7"/>
		<line class="st28" x1="477.9" y1="66.9" x2="479.7" y2="78"/>
		<line class="st28" x1="465.1" y1="73.3" x2="469.9" y2="100.1"/>
		<line class="st28" x1="469.9" y1="70.8" x2="474.7" y2="97.6"/>
		<line class="st28" x1="475.4" y1="68.2" x2="480.2" y2="95"/>
		<path class="st27" d="M440.6,42.4c0,0,1.2-2.5,4-2.4"/>
		<path class="st27" d="M458.2,35.4c0,0,2.2-1.6,4.7-0.3"/>
	</g>
	<g>
		<path class="st29" d="M32.5,170.8l0.1,0.1l0.1,0l20.4,2.1l-0.7,7.4l0,0c-0.1,0-0.3,0-0.6,0c-0.5,0-1.3-0.1-2.2-0.1
			c-1.9-0.1-4.4-0.3-7.2-0.6c-2.7-0.3-5.7-0.7-8.2-1.2c-2.6-0.5-4.8-1.1-6.2-1.9c-0.7-0.4-1.3-1-2-1.9c-0.7-0.9-1.3-1.9-1.9-3.1
			c-1.3-2.4-2.4-5.3-3.4-8.1c-1-2.8-1.8-5.5-2.3-7.5c-0.3-1-0.5-1.8-0.6-2.4c-0.1-0.3-0.1-0.5-0.2-0.7c0,0,0,0,0,0l6.4-1.7
			L32.5,170.8z"/>
		<path class="st30" d="M63.3,170.2c3.7,3.3,4,8.9,0.7,12.6c-3.3,3.7-8.9,4-12.6,0.7c-3.7-3.3-4-8.9-0.7-12.6
			C54,167.3,59.6,167,63.3,170.2z"/>
		<path class="st31" d="M57.4,186c-2.1,0-4.2-0.7-5.8-2.1c-1.6-1.3-2.8-3.2-3.2-5.3c-0.4-2.1-0.1-4.2,0.9-6.1c1-1.9,2.6-3.3,4.6-4.1
			c2-0.8,4.1-0.9,6.2-0.3c2,0.6,3.8,1.9,5,3.7c1.2,1.8,1.7,3.9,1.5,6c-0.2,2.1-1.1,4.1-2.6,5.6c-0.8,0.9-1.9,1.5-3,2
			C59.8,185.8,58.6,186,57.4,186L57.4,186z M57.4,167.8c-2.1,0-4.2,0.7-5.8,2.1c-1.6,1.3-2.8,3.2-3.2,5.3c-0.4,2.1-0.1,4.2,0.9,6.1
			c1,1.9,2.6,3.3,4.6,4.1c1.9,0.8,4.1,0.9,6.1,0.3s3.8-1.9,4.9-3.7c1.2-1.8,1.7-3.9,1.5-6c-0.2-2.1-1.1-4.1-2.6-5.6
			c-0.8-0.9-1.8-1.5-3-2C59.8,168,58.6,167.8,57.4,167.8L57.4,167.8z"/>
		<path class="st30" d="M35.7,170.2c0.9,3.6-1.3,7.1-4.9,8c-3.6,0.9-7.1-1.3-8-4.9c-0.9-3.6,1.3-7.1,4.9-8
			C31.2,164.5,34.8,166.7,35.7,170.2z"/>
		<path class="st30" d="M28.6,145.4L28.6,145.4l-4.4,3.7l-1.4-1.6l4.4-3.7c0.2-0.2,0.5-0.2,0.7-0.2c0.3,0,0.5,0.1,0.7,0.3l0.1,0.1
			l0,0l0,0c0.1,0.1,0.1,0.2,0.2,0.3c0,0.1,0.1,0.3,0,0.4s0,0.3-0.1,0.4C28.8,145.2,28.7,145.3,28.6,145.4z"/>
		<path class="st30" d="M22.7,138.4v5.8h-2.1v-5.8c0-0.3,0.1-0.5,0.3-0.7c0.2-0.2,0.4-0.3,0.7-0.3h0.2c0.3,0,0.5,0.1,0.7,0.3
			C22.6,137.9,22.7,138.2,22.7,138.4z"/>
		<path class="st30" d="M18.6,138.5l1.3,5.7l-2.1,0.5l-1.3-5.7c-0.1-0.3,0-0.5,0.1-0.7c0.1-0.2,0.4-0.4,0.6-0.4l0.2,0
			c0.3-0.1,0.5,0,0.7,0.1C18.3,138,18.5,138.3,18.6,138.5z"/>
		<path class="st30" d="M14.1,140l2.9,5l-1.8,1.1l-2.9-5c-0.1-0.2-0.2-0.5-0.1-0.7s0.2-0.5,0.5-0.6l0.2-0.1c0.2-0.1,0.5-0.2,0.7-0.1
			C13.8,139.6,14,139.8,14.1,140z"/>
		<path class="st29" d="M148.7,221.4l-5.8,2.4l-17.6-41.4l5.8-2.4L148.7,221.4z"/>
		<path class="st30" d="M130.8,171c3.8,3.2,4.2,8.8,1,12.6c-3.2,3.8-8.8,4.2-12.6,1c-3.8-3.2-4.2-8.8-1-12.6
			C121.5,168.3,127.1,167.8,130.8,171z"/>
		<path class="st31" d="M125.1,187c-1.4,0-2.8-0.3-4.1-1c-1.3-0.6-2.4-1.6-3.2-2.7c-0.9-1.2-1.4-2.5-1.7-3.9
			c-0.2-1.4-0.1-2.9,0.3-4.2c0.5-1.6,1.4-3.1,2.7-4.2c1.3-1.1,2.8-1.9,4.5-2.1c1.7-0.3,3.4-0.1,4.9,0.5c1.6,0.6,2.9,1.7,3.9,3
			c1,1.4,1.6,3,1.8,4.7c0.1,1.7-0.2,3.4-0.9,4.9c-0.8,1.5-1.9,2.8-3.4,3.7C128.4,186.5,126.8,187,125.1,187L125.1,187z M125.1,168.7
			c-1.7,0-3.3,0.5-4.8,1.4c-1.4,0.9-2.6,2.2-3.4,3.7c-0.8,1.5-1.1,3.2-0.9,4.9c0.1,1.7,0.8,3.3,1.8,4.7c1,1.4,2.4,2.4,3.9,3
			c1.6,0.6,3.3,0.8,4.9,0.5c1.7-0.3,3.2-1,4.5-2.1c1.3-1.1,2.2-2.6,2.7-4.2l0,0c0.7-2.3,0.5-4.8-0.7-7c-1.1-2.1-3.1-3.7-5.4-4.5
			C126.9,168.8,126,168.7,125.1,168.7L125.1,168.7z"/>
		<path class="st30" d="M138.8,196.9c3.5,1,5.6,4.6,4.6,8.2c-1,3.5-4.6,5.6-8.2,4.6s-5.6-4.6-4.6-8.2
			C131.6,198,135.2,195.9,138.8,196.9z"/>
		<path class="st30" d="M140.5,231.7L140.5,231.7L140.5,231.7c-0.1-0.1-0.2-0.2-0.3-0.3c-0.1-0.1-0.1-0.2-0.2-0.3c0-0.1,0-0.3,0-0.4
			s0.1-0.2,0.1-0.4l-0.2-0.1l0.2,0.1l3-5l1.8,1.1l-3,5c-0.1,0.2-0.4,0.4-0.6,0.4c-0.3,0.1-0.5,0-0.7-0.1L140.5,231.7z"/>
		<path class="st30" d="M148.2,228.9l1.8,5.5c0,0.1,0.1,0.2,0,0.4c0,0.1,0,0.3-0.1,0.4c-0.1,0.1-0.1,0.2-0.2,0.3
			c-0.1,0.1-0.2,0.1-0.3,0.2l0,0h0l-0.2,0.1c-0.2,0.1-0.5,0.1-0.7-0.1c-0.2-0.1-0.4-0.3-0.5-0.5l-1.8-5.5L148.2,228.9z"/>
		<path class="st30" d="M151.9,233.7l-3-5l1.8-1.1l3,5c0.1,0.2,0.2,0.5,0.1,0.7c-0.1,0.2-0.2,0.5-0.4,0.6l-0.2,0.1
			c-0.2,0.1-0.5,0.2-0.7,0.1C152.3,234.1,152.1,233.9,151.9,233.7z"/>
		<path class="st30" d="M155.7,230.9l-4.4-3.9l1.4-1.6l4.4,3.9c0.2,0.2,0.3,0.4,0.3,0.7c0,0.3-0.1,0.5-0.2,0.7l-0.1,0.1
			c-0.2,0.2-0.4,0.3-0.7,0.3C156.1,231.2,155.9,231.1,155.7,230.9l-0.1,0.2L155.7,230.9z"/>
		<path class="st29" d="M128.6,167.4C128.6,167.4,128.6,167.4,128.6,167.4L128.6,167.4c0,0.1,0,0.2,0,0.2c0,0.1,0,0.3,0,0.6
			c0,0.5-0.1,1.2-0.1,2.2c-0.1,1.8-0.3,4.5-0.7,7.6c-0.7,6.2-2,14.5-4.4,22.7c-2.4,8.2-6,16.3-11.2,22.3c-5.2,6-11.9,9.9-20.9,9.5
			c-8.9-0.3-15.7-4.5-20.7-10.7c-5.1-6.2-8.5-14.3-10.9-22.3c-2.3-8.1-3.5-16.1-4.2-22.1c-0.3-3-0.5-5.5-0.6-7.3
			c0-0.9-0.1-1.6-0.1-2c0-0.2,0-0.4,0-0.5c0-0.1,0-0.1,0-0.1c0,0,0,0,0,0c0-0.1,0.1-0.1,0.2-0.3c0.2-0.2,0.5-0.6,0.9-1
			c0.9-0.8,2.4-1.9,5-3c5.1-2.2,14.4-4.5,30.8-4.7c16.4-0.2,25.6,2.1,30.8,4.4c2.6,1.2,4.1,2.3,5,3.2c0.4,0.4,0.7,0.8,0.9,1
			C128.5,167.2,128.5,167.3,128.6,167.4z M54.9,167.5C54.9,167.5,54.9,167.5,54.9,167.5L54.9,167.5z"/>
		<path class="st30" d="M105.3,155.9H74.9c-1.9,0-3.4-1.5-3.4-3.4V152c0-1.9,1.5-3.4,3.4-3.4h30.4c1.9,0,3.4,1.5,3.4,3.4v0.5
			C108.7,154.4,107.2,155.9,105.3,155.9z"/>
		<path class="st30" d="M91.2,98.8H89V86h2.2V98.8z"/>
		<path class="st29" d="M135.8,129.3c1,4-1.5,8.1-5.6,9c-4,1-8.1-1.5-9-5.6c-1-4,1.5-8.1,5.6-9C130.8,122.8,134.8,125.3,135.8,129.3
			z"/>
		<path class="st29" d="M57.9,128.9c0.9,4-1.6,8-5.6,9c-4,0.9-8-1.6-9-5.6c-0.9-4,1.6-8,5.6-9C52.9,122.3,57,124.9,57.9,128.9z"/>
		<path class="st29" d="M88.6,96.4L88.6,96.4c15-0.4,25,4.4,31.1,11.1c6.1,6.7,8.3,15.3,7.9,22.6c-0.1,1.6-0.4,3.2-0.8,4.8v0
			c-1.7,6.7-5.1,10.7-9.8,13c-4.8,2.4-10.9,3.1-18.1,3.3h0c-6.5,0.1-13.9,0.1-17.4-0.1h0c-0.3,0-0.6,0-1-0.1
			c-4.2-0.3-11.9-0.7-18.2-4c-3.5-1.8-6.5-4.4-8.4-8.2c-1.9-3.8-2.6-8.9-1.4-15.7c2.5-13.5,11.5-20.2,19.9-23.4
			c4.2-1.6,8.3-2.4,11.3-2.8c1.5-0.2,2.7-0.3,3.6-0.3c0.4,0,0.8,0,1,0C88.3,96.4,88.4,96.4,88.6,96.4C88.5,96.4,88.5,96.4,88.6,96.4
			L88.6,96.4L88.6,96.4L88.6,96.4c0,0,0,0,0-0.2L88.6,96.4z M81.4,151.2c3.5,0.2,10.9,0.3,17.4,0.1L81.4,151.2z"/>
		<path class="st30" d="M111.3,137.4L111.3,137.4l-45.6,0.7h0c-1.1,0-2.2-0.2-3.2-0.6c-1-0.4-2-1-2.8-1.8c-0.8-0.8-1.4-1.7-1.9-2.7
			c-0.4-1-0.7-2.1-0.7-3.2v0c0-1.1,0.2-2.2,0.6-3.2c0.4-1,1-2,1.8-2.8c0.8-0.8,1.7-1.4,2.7-1.9c1-0.4,2.1-0.7,3.2-0.7l0,0l45.6-0.7
			v0c1.1,0,2.2,0.2,3.2,0.6c1,0.4,2,1,2.8,1.8c0.8,0.8,1.4,1.7,1.9,2.7c0.4,1,0.7,2.1,0.7,3.2v0c0,1.1-0.2,2.2-0.6,3.2
			c-0.4,1-1,2-1.8,2.8c-0.8,0.8-1.7,1.4-2.7,1.9C113.5,137.1,112.4,137.3,111.3,137.4z"/>
		<path class="st30" d="M75,128.8c-0.1,0.5-0.3,1-0.7,1.3c-0.4,0.4-0.8,0.6-1.3,0.7c-0.5,0.1-1,0.1-1.5-0.1
			c-0.5-0.2-0.9-0.5-1.1-0.9c-0.3-0.4-0.4-0.9-0.4-1.4c0-0.5,0.1-1,0.4-1.4c0.3-0.4,0.7-0.7,1.1-0.9c0.5-0.2,1-0.2,1.5-0.1
			c0.3,0.1,0.6,0.2,0.9,0.4c0.3,0.2,0.5,0.4,0.7,0.7s0.3,0.6,0.4,0.9C75.1,128.1,75.1,128.5,75,128.8z"/>
		<path class="st30" d="M106.8,128.3c-0.1,0.5-0.3,1-0.7,1.3c-0.4,0.4-0.8,0.6-1.3,0.7c-0.5,0.1-1,0.1-1.5-0.1
			c-0.5-0.2-0.9-0.5-1.1-0.9c-0.3-0.4-0.4-0.9-0.4-1.4c0-0.5,0.1-1,0.4-1.4c0.3-0.4,0.7-0.7,1.1-0.9c0.5-0.2,1-0.2,1.5-0.1
			c0.7,0.1,1.2,0.5,1.6,1.1S107,127.6,106.8,128.3z"/>
		<path class="st30" d="M99.1,192.6c-0.1,1.8-0.8,3.5-1.9,4.9c-1.1,1.4-2.6,2.5-4.3,3c-1.7,0.6-3.5,0.6-5.2,0.1
			c-1.7-0.5-3.3-1.5-4.4-2.8c-1.2-1.4-1.9-3-2.1-4.8c-0.2-1.8,0.1-3.6,0.9-5.2c0.8-1.6,2.1-2.9,3.6-3.8c1.6-0.9,3.3-1.3,5.1-1.2
			c1.2,0.1,2.3,0.4,3.4,0.9c1.1,0.5,2,1.3,2.8,2.2c0.8,0.9,1.4,1.9,1.7,3.1C99,190.2,99.2,191.4,99.1,192.6L99.1,192.6z"/>
		<path class="st32" d="M94.7,194.2c-0.1-0.5-0.1-1-0.1-1.5c0-0.9,0-2.3,0-3.9l0.1,0.2l-4.7-2.7h0.3l-4.7,2.6
			c-0.1,0.2,0.2-0.3,0.1-0.2v0.7v0.7c0,0.5,0,0.9,0,1.4c0,0.9,0,1.8,0,2.6l-0.1-0.2l4.6,2.8H90c1.4-0.8,2.6-1.4,3.4-1.8
			C93.8,194.6,94.3,194.4,94.7,194.2c-0.4,0.3-0.8,0.5-1.2,0.8c-0.8,0.5-2,1.2-3.4,2l-0.1,0.1l-0.1-0.1l-4.7-2.7l-0.1-0.1v-0.2
			c0-0.8,0-1.7,0-2.6c0-0.4,0-0.9,0-1.4v-0.7v-0.7c0,0.1,0.3-0.4,0.1-0.2l4.7-2.6l0.1-0.1l0.1,0.1l4.6,2.8l0.1,0.1v0.1
			c-0.1,1.7-0.1,3.1-0.2,4C94.9,193.3,94.8,193.8,94.7,194.2z"/>
		<path class="st33" d="M93.1,82.5c1.6,1.6,1.6,4.3,0,5.9c-1.6,1.6-4.3,1.6-5.9,0c-1.6-1.6-1.6-4.3,0-5.9
			C88.8,80.9,91.4,80.9,93.1,82.5z"/>
		<path class="st27" d="M93.3,128.7c0,0,0-0.1,0-0.1C93.3,128.6,93.4,128.6,93.3,128.7c0.1,0.6,0,1.2-0.2,1.8l0,0
			c-0.3,0.9-0.9,1.7-1.6,2.3l0,0l0,0c-0.9,0.8-2,1.2-3.2,1.3c-1.2,0-2.4-0.4-3.3-1.1l0,0l0,0c-0.8-0.6-1.3-1.3-1.7-2.2l0,0l0,0
			c-0.3-0.6-0.4-1.2-0.4-1.8c0,0,0-0.1,0-0.1c0,0,0,0.1,0,0.1"/>
		<path class="st31" d="M125,140.2c0,0,0.5-0.9,1.1-2.4c0.7-2,1.1-4.1,1.3-6.2c0.2-2.1,0.2-4.2,0.1-6.4c0-0.8-0.1-1.5-0.1-2
			c0-0.2,0-0.5,0-0.7c0.1,0.2,0.1,0.5,0.1,0.7c0.1,0.5,0.1,1.1,0.2,2c0.2,2.1,0.1,4.3-0.1,6.4c-0.2,2.1-0.6,4.2-1.4,6.3
			c-0.2,0.6-0.5,1.2-0.8,1.8C125.2,139.8,125.1,140,125,140.2L125,140.2z"/>
		<path class="st31" d="M55.8,122.2c0,0.2-0.1,0.5-0.2,0.7c-0.1,0.2-0.1,0.5-0.2,0.8c-0.1,0.3-0.2,0.7-0.2,1.1
			c-0.2,0.9-0.3,1.9-0.3,2.9c-0.1,1.2,0,2.3,0,3.5c0.1,1.2,0.3,2.3,0.6,3.5c0.2,0.9,0.5,1.9,0.8,2.7c0.1,0.4,0.3,0.7,0.4,1
			c0.1,0.3,0.2,0.6,0.3,0.8c0.1,0.2,0.2,0.4,0.3,0.7c-0.1-0.2-0.3-0.4-0.4-0.6c-0.1-0.2-0.3-0.5-0.4-0.8c-0.1-0.3-0.3-0.6-0.4-1
			c-0.4-0.9-0.7-1.8-0.9-2.8c-0.3-1.2-0.5-2.3-0.6-3.5c-0.1-1.2-0.1-2.4,0-3.5c0.1-1,0.2-1.9,0.4-2.9c0.1-0.4,0.2-0.8,0.3-1.1
			s0.2-0.6,0.2-0.8C55.7,122.6,55.7,122.4,55.8,122.2L55.8,122.2z"/>
		<path class="st31" d="M54.5,167.3l0.2,0.1l0.5,0.2l2.1,0.7l1.5,0.5c0.6,0.2,1.2,0.4,1.8,0.6c1.3,0.4,2.8,0.9,4.5,1.3l2.6,0.7
			c0.9,0.2,1.9,0.4,2.9,0.6c2,0.4,4.1,0.8,6.4,1.1c4.9,0.7,9.8,1,14.7,1.1c4.9,0,9.8-0.4,14.7-1.1c2.2-0.4,4.4-0.7,6.4-1.1
			c1-0.2,2-0.4,2.9-0.6l2.6-0.7c1.7-0.4,3.1-0.9,4.4-1.3c0.6-0.2,1.3-0.4,1.8-0.6l1.5-0.5l2.1-0.7l0.5-0.2c0.1,0,0.1,0,0.2-0.1
			l-0.2,0.1l-0.5,0.2l-2.1,0.8l-1.5,0.6c-0.5,0.2-1.2,0.4-1.8,0.6c-1.3,0.4-2.8,0.9-4.4,1.3l-2.6,0.7c-0.9,0.2-1.9,0.4-2.9,0.6
			c-2,0.5-4.1,0.8-6.4,1.1c-4.9,0.7-9.8,1-14.7,1.1c-4.9,0-9.9-0.4-14.7-1.1c-2.2-0.4-4.4-0.7-6.4-1.1c-1-0.2-2-0.4-2.9-0.6
			l-2.6-0.7c-1.7-0.4-3.1-0.9-4.4-1.3c-0.7-0.2-1.3-0.4-1.8-0.6l-1.5-0.6l-2.1-0.8l-0.5-0.2C54.6,167.4,54.6,167.4,54.5,167.3z"/>
		<g>
			<path class="st4" d="M54.7,167.4c0,0,4.3-8.8,37.1-9.2c32.8-0.4,37.1,9.2,37.1,9.2S95.7,183.7,54.7,167.4z"/>
		</g>
		<path d="M84.6,98.2c0,0-0.1,0-0.1,0l-0.3,0c-0.3,0-0.7,0-1.3,0.1c-1.6,0.2-3.1,0.4-4.6,0.8c-7.9,1.8-14.8,6.4-19.6,13
			c-2.3,3.2-4,6.7-5.1,10.4c-0.2,0.5-0.3,0.9-0.3,1.2l-0.1,0.3c0,0,0,0.1,0,0.1c0,0,0-0.1,0-0.1c0-0.1,0-0.2,0.1-0.3
			c0.1-0.3,0.1-0.7,0.3-1.2c0.4-1.5,0.9-3,1.6-4.4c2.1-4.8,5.3-9,9.3-12.3c4-3.3,8.8-5.6,13.9-6.8c1.5-0.3,3.1-0.6,4.7-0.7
			c0.6,0,1,0,1.3-0.1h0.3C84.6,98.2,84.6,98.2,84.6,98.2z"/>
		<path d="M45.7,134.3c0,0-0.1-0.1-0.3-0.3c-0.2-0.3-0.4-0.6-0.6-0.9c-0.5-1-0.7-2.2-0.6-3.3c0.1-1.1,0.6-2.2,1.4-3
			c0.2-0.3,0.5-0.5,0.8-0.7c0.1-0.1,0.2-0.1,0.3-0.2c0,0-0.4,0.3-0.9,1c-0.7,0.8-1.1,1.9-1.3,2.9s0,2.2,0.5,3.2
			C45.3,133.9,45.7,134.3,45.7,134.3z"/>
		<path d="M91.1,82.9c-0.4,0-0.8-0.1-1.1,0c-0.5,0-0.9,0.2-1.3,0.4c-0.4,0.2-0.7,0.6-1,0.9c-0.2,0.4-0.4,0.8-0.5,1.3
			c-0.1,0.5,0,0.9,0.2,1.3c0.1,0.4,0.3,0.7,0.5,1c0,0-0.1-0.1-0.2-0.2c-0.2-0.2-0.3-0.5-0.4-0.8c-0.2-0.5-0.3-1-0.2-1.4
			c0-0.5,0.2-1,0.5-1.4c0.3-0.4,0.6-0.8,1.1-1c0.4-0.2,0.9-0.4,1.4-0.4c0.3,0,0.6,0,0.9,0.1C91,82.8,91.1,82.9,91.1,82.9z"/>
		<path d="M133,127.4c-0.1,0.1-0.8-0.7-2-1.2c-1.1-0.5-2.2-0.7-2.2-0.8c0.8,0,1.6,0.2,2.3,0.6C131.9,126.3,132.5,126.8,133,127.4
			L133,127.4z"/>
		<path d="M46.5,173.9c-1.2,0-2.4,0-3.6-0.1c-1.2,0-2.4-0.2-3.6-0.4c1.2,0,2.4,0,3.6,0.1C44.1,173.6,45.3,173.7,46.5,173.9z"/>
		<path d="M26.7,162.8c-0.7-1-1.3-2.1-1.9-3.2c-0.6-1.1-1.2-2.2-1.6-3.3c0.7,1,1.3,2.1,1.9,3.2C25.7,160.6,26.2,161.7,26.7,162.8
			L26.7,162.8z"/>
		<path d="M84.2,227.4c-0.2,0-0.4,0-0.6-0.1c-0.5-0.1-1-0.2-1.5-0.4c-0.7-0.2-1.5-0.5-2.2-0.8c-0.9-0.4-1.7-0.9-2.5-1.4
			c-0.8-0.6-1.5-1.2-2.2-1.8c-0.6-0.6-1.1-1.1-1.5-1.8c-0.3-0.4-0.6-0.9-0.9-1.3c-0.1-0.2-0.2-0.3-0.3-0.5c0,0,0.4,0.7,1.3,1.7
			c0.5,0.6,1,1.2,1.6,1.7c1.4,1.3,2.9,2.4,4.6,3.2c0.7,0.3,1.4,0.6,2.1,0.9C83.4,227.2,84.2,227.3,84.2,227.4z"/>
		<path d="M91.9,205.4c-0.1,0-0.2,0-0.3,0c-0.3,0-0.7,0-1,0c-1.2,0-2.4-0.2-3.6-0.6c-0.8-0.2-1.6-0.6-2.3-0.9
			c-0.9-0.4-1.7-1-2.4-1.6c-1.8-1.4-3.2-3.1-4-5.2c-0.9-2-1.2-4.3-1-6.5c0.1-1,0.3-1.9,0.5-2.8c0.2-0.8,0.5-1.6,0.9-2.3
			c0.5-1.1,1.2-2.1,2-3c0.2-0.2,0.4-0.5,0.7-0.7c0.1-0.1,0.2-0.2,0.3-0.2c0,0-0.3,0.3-0.9,1c-0.8,0.9-1.4,1.9-2,3
			c-0.8,1.6-1.2,3.4-1.3,5.1c-0.2,2.2,0.2,4.4,1,6.4c0.9,2,2.2,3.8,4,5.1c0.7,0.6,1.5,1.1,2.4,1.6c0.7,0.4,1.5,0.7,2.3,1
			c1.1,0.4,2.3,0.6,3.5,0.7C91.5,205.4,91.9,205.3,91.9,205.4z"/>
		<path class="st30" d="M31.6,167.3c0,0-0.4-0.1-1-0.3c-0.8-0.2-1.6-0.2-2.4,0c-0.8,0.2-1.5,0.6-2.2,1.1c-0.5,0.4-0.7,0.7-0.8,0.7
			c0.1-0.3,0.3-0.6,0.6-0.8c0.6-0.6,1.4-1,2.2-1.2c0.8-0.2,1.7-0.2,2.5,0C31,166.9,31.3,167.1,31.6,167.3L31.6,167.3z"/>
		<path d="M103.8,118.7c0,0.1-6,0.1-13.4,0.1c-7.4,0-13.4-0.1-13.4-0.1c0-0.1,6-0.1,13.4-0.1C97.8,118.5,103.8,118.6,103.8,118.7z"
			/>
		<path d="M80.9,149.3c-0.1,0-0.1,0-0.2,0l-0.7,0.1c-0.3,0-0.6,0-1,0.1c-0.4,0-0.9,0-1.4,0c-1,0-2.2-0.1-3.6-0.2
			c-1.5-0.2-2.9-0.4-4.3-0.7c-1.4-0.3-2.8-0.8-4.2-1.3c-1.1-0.4-2.2-0.9-3.3-1.4c-0.5-0.2-0.9-0.4-1.2-0.6s-0.7-0.4-0.9-0.5
			l-0.6-0.3c-0.1,0-0.1-0.1-0.2-0.1c0,0,0.1,0,0.2,0.1l0.6,0.3c0.2,0.1,0.6,0.3,0.9,0.5c0.4,0.2,0.8,0.4,1.2,0.6
			c0.9,0.4,2,0.9,3.3,1.3c2.7,1,5.6,1.7,8.5,2c1.3,0.2,2.5,0.2,3.6,0.3c0.5,0,1,0,1.4,0c0.4,0,0.7,0,1,0h0.7
			C80.8,149.2,80.8,149.2,80.9,149.3L80.9,149.3z"/>
		<path d="M119.6,173.4c0,0-0.1,0-0.1,0.1l-0.4,0.1l-1.4,0.5c-0.6,0.2-1.3,0.5-2.2,0.7c-0.9,0.2-1.8,0.6-2.9,0.8l-1.7,0.4
			c-0.6,0.2-1.2,0.3-1.9,0.4c-1.3,0.3-2.7,0.6-4.1,0.8c-6.3,1.1-12.8,1.5-19.2,1.2c-1.5-0.1-2.9-0.2-4.2-0.3
			c-0.7-0.1-1.3-0.1-1.9-0.2l-1.7-0.2c-1.1-0.1-2.1-0.3-3-0.5c-0.9-0.2-1.6-0.3-2.2-0.4l-1.4-0.3l-0.4-0.1c0,0-0.1,0-0.1,0
			c0,0,0.1,0,0.1,0l0.4,0.1l1.4,0.3c0.6,0.1,1.4,0.3,2.2,0.4c0.9,0.1,1.9,0.3,3,0.4l1.7,0.2c0.6,0.1,1.2,0.1,1.9,0.2
			c1.3,0.1,2.7,0.2,4.2,0.3c3,0.1,6.2,0.1,9.6-0.1c3.4-0.2,6.6-0.6,9.6-1.1c1.5-0.3,2.8-0.5,4.1-0.8c0.6-0.1,1.3-0.3,1.9-0.4
			l1.7-0.4c1.1-0.3,2.1-0.6,2.9-0.8c0.9-0.2,1.6-0.5,2.2-0.7l1.4-0.4l0.4-0.1L119.6,173.4z"/>
		<path class="st30" d="M23.9,144.8c2.1,2.1,2.1,5.5,0,7.6s-5.5,2.1-7.6,0c-2.1-2.1-2.1-5.5,0-7.6S21.8,142.7,23.9,144.8z"/>
		<path class="st30" d="M152.7,224.6c0,3-2.4,5.4-5.4,5.4c-3,0-5.4-2.4-5.4-5.4s2.4-5.4,5.4-5.4
			C150.3,219.3,152.7,221.7,152.7,224.6z"/>
	</g>
</g>
</svg>
