<svg width="" height="" viewBox="0 0 610 567" fill="none" xmlns="http://www.w3.org/2000/svg">
<path d="M327.2 181.2L292.5 267.1H607.8L573.1 180.5L327.2 181.2Z" fill="#50B8E7" stroke="#231F20" stroke-width="0.75" stroke-miterlimit="10"/>
<path d="M595.7 267.3H303V498.5H595.7V267.3Z" fill="#E8F4FA" stroke="#231F20" stroke-width="0.75" stroke-miterlimit="10"/>
<path d="M572.3 301.9H458.8V389.8H572.3V301.9Z" fill="white" stroke="#231F20" stroke-width="0.75" stroke-miterlimit="10"/>
<path d="M579.2 389.8H451.7V399.6H579.2V389.8Z" fill="white" stroke="#231F20" stroke-width="0.75" stroke-miterlimit="10"/>
<path d="M495.8 306.4H464V329.6H495.8V306.4Z" fill="white" stroke="#231F20" stroke-width="0.75" stroke-miterlimit="10"/>
<path d="M531.4 306.4H499.6V329.6H531.4V306.4Z" fill="white" stroke="#231F20" stroke-width="0.75" stroke-miterlimit="10"/>
<path d="M567.1 306.4H535.3V329.6H567.1V306.4Z" fill="white" stroke="#231F20" stroke-width="0.75" stroke-miterlimit="10"/>
<path d="M495.8 334.3H464V357.5H495.8V334.3Z" fill="white" stroke="#231F20" stroke-width="0.75" stroke-miterlimit="10"/>
<path d="M531.4 334.3H499.6V357.5H531.4V334.3Z" fill="white" stroke="#231F20" stroke-width="0.75" stroke-miterlimit="10"/>
<path d="M567.1 334.3H535.3V357.5H567.1V334.3Z" fill="white" stroke="#231F20" stroke-width="0.75" stroke-miterlimit="10"/>
<path d="M495.8 362.1H464V385.3H495.8V362.1Z" fill="white" stroke="#231F20" stroke-width="0.75" stroke-miterlimit="10"/>
<path d="M531.4 362.1H499.6V385.3H531.4V362.1Z" fill="white" stroke="#231F20" stroke-width="0.75" stroke-miterlimit="10"/>
<path d="M567.1 362.1H535.3V385.3H567.1V362.1Z" fill="white" stroke="#231F20" stroke-width="0.75" stroke-miterlimit="10"/>
<path d="M69.1006 496.1L71.1006 538.6C71.2006 541.4 73.5006 543.5 76.3006 543.5C79.2006 543.5 81.5006 541.2 81.5006 538.3L81.2006 495L69.1006 496.1Z" fill="white" stroke="#231F20" stroke-width="0.75" stroke-miterlimit="10"/>
<path d="M429.7 496.1L431.7 538.6C431.8 541.4 434.1 543.5 436.9 543.5C439.8 543.5 442.1 541.2 442.1 538.3L441.8 494.9L429.7 496.1Z" fill="white" stroke="#231F20" stroke-width="0.75" stroke-miterlimit="10"/>
<path d="M90.6006 456.2L92.6006 498.7C92.7006 501.5 95.0006 503.6 97.8006 503.6C100.701 503.6 103.001 501.3 103.001 498.4L102.701 455L90.6006 456.2Z" fill="white" stroke="#231F20" stroke-width="0.75" stroke-miterlimit="10"/>
<path d="M405.601 456.2L407.601 498.7C407.701 501.5 410.001 503.6 412.801 503.6C415.701 503.6 418.001 501.3 418.001 498.4L417.701 455L405.601 456.2Z" fill="white" stroke="#231F20" stroke-width="0.75" stroke-miterlimit="10"/>
<path d="M66.2002 496.2H443.3C462.6 496.2 479.8 484.2 486.4 466.1L505.7 413.1C512.5 394.5 506.6 373.6 491 361.4L476.6 350.1C446.8 326.6 411.6 310.6 374.3 303.6C363.3 301.5 351.9 301.8 341 304.5L335.7 305.8C289.5 316.9 246 336.8 207.4 364.5C197.1 371.9 184.1 374.7 171.7 372.2L103.6 358.6C101.5 358.2 99.4002 357.9 97.2002 357.8L50.7002 355.2C43.7002 354.8 36.7002 356 30.3002 358.7C7.80018 368.2 -3.39981 393.7 5.10019 416.7L23.2002 466.1C29.8002 484.2 47.0002 496.2 66.2002 496.2Z" fill="white" stroke="#231F20" stroke-width="0.75" stroke-miterlimit="10"/>
<path d="M7.60059 379C15.8006 382.9 22.0006 390.2 24.5006 399L47.2006 478.4C48.2006 481.9 48.6006 485.5 48.4006 489.1L48.2006 492.6" stroke="#231F20" stroke-width="0.75" stroke-miterlimit="10"/>
<path d="M427.7 447.4C427.7 447.4 429.5 370.1 506.5 384C505.8 382.9 503.9 373.7 497 366.4C497 366.8 483.6 364.5 480.1 357.2C480.8 357.6 469.8 348.8 455.5 371.1C455.9 371.8 419.9 393.1 421.4 434.9C421.8 434.2 428.8 441.6 427.7 447.4Z" fill="#50B8E7" stroke="#231F20" stroke-width="0.75" stroke-miterlimit="10"/>
<path d="M79.0998 465C79.0998 465 88.5998 439.3 121.3 442.3C120.6 442.3 427.7 447.4 427.7 447.4C427.7 447.4 427.7 421.7 378.2 422.8C377.5 422.4 98.1998 411.8 84.5998 425C85.2998 425.4 91.8998 440 84.5998 446.3C84.5998 447.4 75.7998 454.4 79.0998 465Z" stroke="#231F20" stroke-width="0.75" stroke-miterlimit="10"/>
<path d="M191.601 272.9L208.501 304.5L228.601 287.5L239.401 271.5L244.801 250L245.301 241.6L233.001 234.2L198.101 243.2L197.301 259.5L191.601 272.9Z" fill="white"/>
<path d="M212.501 520.3L228.201 542.6C231.001 546.5 232.101 551.4 231.401 556.2C231.301 557.1 230.401 557.7 229.501 557.5C222.401 555.9 194.501 549.2 185.001 540.5C182.801 538.5 182.501 535.2 184.001 532.7C188.101 526.1 197.101 512.1 197.101 512.1L212.501 520.3Z" fill="white" stroke="#231F20" stroke-width="0.75" stroke-miterlimit="10"/>
<path d="M196.701 533.4C198.358 533.4 199.701 532.057 199.701 530.4C199.701 528.743 198.358 527.4 196.701 527.4C195.044 527.4 193.701 528.743 193.701 530.4C193.701 532.057 195.044 533.4 196.701 533.4Z" stroke="#231F20" stroke-width="0.75" stroke-miterlimit="10"/>
<path d="M212.201 531.7C212.201 531.7 216.301 528.3 218.501 528.5" stroke="#231F20" stroke-width="0.75" stroke-miterlimit="10" stroke-linecap="round" stroke-linejoin="round"/>
<path d="M213.801 535.5C213.801 535.5 217.901 532.1 220.101 532.3" stroke="#231F20" stroke-width="0.75" stroke-miterlimit="10" stroke-linecap="round" stroke-linejoin="round"/>
<path d="M216.001 538.4C216.001 538.4 220.101 535 222.301 535.2" stroke="#231F20" stroke-width="0.75" stroke-miterlimit="10" stroke-linecap="round" stroke-linejoin="round"/>
<path d="M218.201 541.3C218.201 541.3 222.301 537.9 224.501 538.1" stroke="#231F20" stroke-width="0.75" stroke-miterlimit="10" stroke-linecap="round" stroke-linejoin="round"/>
<path d="M190.001 523.4L205.701 545.7C208.501 549.6 209.601 554.5 208.901 559.3C208.801 560.2 207.901 560.8 207.001 560.6C199.901 559 172.001 552.3 162.501 543.6C160.301 541.6 160.001 538.3 161.501 535.8C165.601 529.2 174.601 515.2 174.601 515.2L190.001 523.4Z" fill="white" stroke="#231F20" stroke-width="0.75" stroke-miterlimit="10"/>
<path d="M174.201 536.4C175.858 536.4 177.201 535.057 177.201 533.4C177.201 531.743 175.858 530.4 174.201 530.4C172.544 530.4 171.201 531.743 171.201 533.4C171.201 535.057 172.544 536.4 174.201 536.4Z" stroke="#231F20" stroke-width="0.75" stroke-miterlimit="10"/>
<path d="M189.701 534.7C189.701 534.7 193.801 531.3 196.001 531.5" stroke="#231F20" stroke-width="0.75" stroke-miterlimit="10" stroke-linecap="round" stroke-linejoin="round"/>
<path d="M191.301 538.5C191.301 538.5 195.401 535.1 197.601 535.3" stroke="#231F20" stroke-width="0.75" stroke-miterlimit="10" stroke-linecap="round" stroke-linejoin="round"/>
<path d="M193.501 541.5C193.501 541.5 197.601 538.1 199.801 538.3" stroke="#231F20" stroke-width="0.75" stroke-miterlimit="10" stroke-linecap="round" stroke-linejoin="round"/>
<path d="M195.701 544.4C195.701 544.4 199.801 541 202.001 541.2" stroke="#231F20" stroke-width="0.75" stroke-miterlimit="10" stroke-linecap="round" stroke-linejoin="round"/>
<path d="M190.201 514.1L230.601 434.7L173.001 421.3C162.501 418.9 156.101 408.2 158.901 397.7L160.301 392.5C162.501 384.3 170.701 379.1 179.101 380.7C198.901 384.3 236.701 393 258.701 407.1C264.801 411 268.401 418 267.801 425.3C267.401 430.4 266.301 436.3 263.701 440.8C261.801 444 259.901 447.1 258.201 450.4C248.101 469.6 216.001 526.4 216.001 526.4C216.001 526.4 194.401 523 190.201 514.1Z" fill="#50B8E7" stroke="#231F20" stroke-width="0.75" stroke-miterlimit="10"/>
<path d="M168.701 517.1L209.101 437.7L151.501 424.2C141.001 421.8 134.601 411.1 137.401 400.6L138.801 395.4C141.001 387.2 149.201 382 157.601 383.6C177.401 387.2 215.201 395.9 237.201 410C243.301 413.9 246.901 420.9 246.301 428.2C245.901 433.3 244.801 439.2 242.201 443.7C240.301 446.9 238.401 450 236.701 453.3C226.601 472.5 194.501 529.3 194.501 529.3C194.501 529.3 172.901 526 168.701 517.1Z" fill="#50B8E7" stroke="#231F20" stroke-width="0.75" stroke-miterlimit="10"/>
<path d="M233.2 347L241.7 355.5C245.3 359.1 250.6 360.2 255.3 358.5L299.3 342.1C299.3 342.1 311.5 343.2 312.9 342.3C313.1 342.2 320.3 340.2 321.7 338.3C322 337.9 321.7 337.4 321.3 337.3C320.5 337.1 318.6 337.1 314.9 337.8C313.9 338 312.8 337.9 311.9 337.4C311.1 336.9 310.6 336.3 311.5 335.4C311.4 335.3 319.4 331.4 323.3 333.1C323.1 332.6 328.2 334 328.2 331.8C328.2 331.7 328.7 331.3 329.3 330.7C330 330 330 328.9 329.4 328.2L328.2 326.9C328.6 326.1 328.5 325.1 327.9 324.4C327.6 324 327.2 323.7 326.7 323.4C325.9 323 324.8 322.4 323.4 321.8C318.7 319.9 313.4 320.3 309 322.7C305 324.9 299.8 327.7 297.5 328.9C296.7 329.3 295.9 329.6 295 329.8L251.5 338.4L233.2 347Z" fill="white" stroke="#231F20" stroke-width="0.75" stroke-miterlimit="10" stroke-linecap="round" stroke-linejoin="round"/>
<path d="M316.601 328.9C316.601 328.9 328.201 328.9 328.101 331.6" stroke="#231F20" stroke-width="0.75" stroke-miterlimit="10" stroke-linecap="round" stroke-linejoin="round"/>
<path d="M316.101 326.3C316.101 326.3 329.701 326.3 329.601 329" stroke="#231F20" stroke-width="0.75" stroke-miterlimit="10" stroke-linecap="round" stroke-linejoin="round"/>
<path d="M316.7 323.5C316.7 323.5 328.3 323.5 328.2 326.2" stroke="#231F20" stroke-width="0.75" stroke-miterlimit="10" stroke-linecap="round" stroke-linejoin="round"/>
<path d="M154.101 351.8C154.101 351.8 145.301 372.4 146.201 380.5C146.401 382 147.601 383.2 149.101 383.5C157.601 384.8 198.601 394.6 202.001 393.1C202.501 393.1 221.301 392.9 221.501 391.4C221.501 391.4 225.601 368 225.101 355C224.601 354.5 255.901 343.7 256.201 334.5C256.201 334.3 237.401 299.1 226.801 293.8C226.801 293.3 182.501 272.8 178.601 274.3C181.001 274.1 178.401 283.2 178.401 283.2L167.601 284C164.201 284.3 161.001 286.1 159.201 289.1C153.201 298.7 140.701 321.1 144.101 335.6C144.301 336.5 144.701 337.4 145.101 338.3C146.201 340.8 150.001 350 154.101 351.8Z" fill="white" stroke="#231F20" stroke-width="0.75" stroke-miterlimit="10"/>
<path d="M154.101 351.8C154.101 351.8 180.001 346.2 180.801 337C181.101 336.5 180.001 331.8 176.301 329.9C177.301 330.4 179.301 294.6 167.601 283.9" stroke="#231F20" stroke-width="0.75" stroke-miterlimit="10" stroke-linejoin="round"/>
<path d="M226.101 315.2C226.101 315.2 228.501 336.2 225.601 347.7" stroke="#231F20" stroke-width="0.75" stroke-miterlimit="10"/>
<path d="M160.501 350.1L163.601 360C165.001 364.1 168.001 367.5 171.901 369.4L212.501 389.3C212.501 389.3 223.201 394.9 228.801 394.6C229.801 394.5 230.901 394.9 231.601 395.6L235.201 398.9L236.001 399C237.201 399.1 238.301 398.2 238.301 396.9V396.8L239.301 396.9C240.401 397 241.401 396.1 241.501 395L241.601 394.2C242.801 394.1 243.701 393.1 243.501 391.9L243.401 390.7L244.401 390.2C245.101 389.8 245.501 389.1 245.501 388.3V386.9L236.801 378.4C235.701 377.3 234.101 376.8 232.501 377.1C229.301 377.7 223.701 378.5 221.201 377.3C222.001 377.4 183.801 354.7 181.401 348.8C181.801 349 177.101 342.1 177.101 342.1L169.401 346.8L160.501 350.1Z" fill="white" stroke="#231F20" stroke-width="0.75" stroke-miterlimit="10"/>
<path d="M238.4 396.9C238.4 396.9 234.2 391 230.4 390" stroke="#231F20" stroke-width="0.75" stroke-miterlimit="10"/>
<path d="M241.601 394.2C241.601 394.2 237.401 388.3 233.601 387.3" stroke="#231F20" stroke-width="0.75" stroke-miterlimit="10"/>
<path d="M243.4 390.5C243.4 390.5 239.2 384.6 235.4 383.6" stroke="#231F20" stroke-width="0.75" stroke-miterlimit="10"/>
<path d="M225.501 266.5C225.501 266.5 229.401 267.7 229.901 266.5C229.701 266.7 229.401 258.7 231.101 256.7" stroke="#231F20" stroke-width="0.75" stroke-miterlimit="10"/>
<path d="M217.9 264.4C217.9 264.4 217.6 267.8 220.2 268.8" stroke="#231F20" stroke-width="0.75" stroke-miterlimit="10"/>
<path d="M235.301 254.7C235.301 254.7 239.201 253.6 241.201 255.9" stroke="#231F20" stroke-width="0.75" stroke-miterlimit="10"/>
<path d="M227.501 251C227.501 251 227.701 249.6 224.501 249" stroke="#231F20" stroke-width="0.75" stroke-miterlimit="10"/>
<path d="M222.101 256.8C222.543 256.8 222.901 256.442 222.901 256C222.901 255.558 222.543 255.2 222.101 255.2C221.659 255.2 221.301 255.558 221.301 256C221.301 256.442 221.659 256.8 222.101 256.8Z" fill="#231F20"/>
<path d="M235.101 261.7C235.543 261.7 235.901 261.342 235.901 260.9C235.901 260.458 235.543 260.1 235.101 260.1C234.659 260.1 234.301 260.458 234.301 260.9C234.301 261.342 234.659 261.7 235.101 261.7Z" fill="#231F20"/>
<path d="M154.901 296.3C154.001 298 151.801 287.4 153.301 285C155.701 281.2 159.201 282.1 162.101 278.4C164.901 274.9 162.501 272.9 165.001 268.3C167.101 264.4 170.801 262.2 176.801 258.7C181.601 255.9 184.301 255.2 185.301 252.3C186.201 249.8 184.601 248.9 185.301 246.5C186.501 242.4 192.401 242.4 199.501 238.3C206.201 234.6 205.701 232 210.701 229.2C218.001 225 226.701 225.1 233.201 227.8C235.501 228.7 240.201 230.6 241.001 234.7C241.401 236.6 241.101 239.2 239.401 240.6C237.201 242.4 234.701 240.2 231.701 241.7C228.801 243.2 229.301 246.2 227.101 248.6C223.801 252.1 216.801 252.2 212.201 250C209.501 248.8 208.501 247.1 206.801 247.6C204.901 248.2 203.401 251 203.901 253.4C204.501 256.4 208.101 256.6 208.501 259.2C208.901 261.6 205.801 262.5 203.901 266.2C201.301 271.3 204.901 273.7 202.901 279.6C200.901 285.8 195.901 285.9 195.501 290.8C195.101 295.9 200.201 298.7 199.001 301.2C197.601 304.3 189.901 305.4 184.801 302.5C179.401 299.4 177.001 291.9 176.901 286.6C176.901 283.8 177.101 284.1 176.301 283.4C172.901 280.3 157.901 290.5 154.901 296.3Z" fill="#50B8E7" stroke="#231F20" stroke-width="0.75" stroke-miterlimit="10"/>
<path d="M234 296C235.6 294.1 234.3 291.8 236.7 288.2C238.3 285.9 240.6 284.5 241.4 283.8C246.3 279.6 247 279.5 247.6 278.2C248.9 275.5 247 272 245 267.8C243.3 264.3 242.4 263.9 242.5 262.2C242.7 259.5 245.2 259.2 247.7 255.2C248.5 254 250.6 250.7 250.3 246.5C250.2 245.7 250.1 239.5 246.4 238.2C244.6 237.6 242.1 238.2 240.9 239.9C239.7 241.7 242.3 243.7 242.7 247.2C243 250.3 241.5 251.7 239.4 256.3C235.3 264.9 237.2 267.1 233 274.2C229.9 279.3 227.7 280.2 226.9 280.5C223.1 281.9 220.5 277.9 217.3 279C214 280.2 211.9 286 213.2 290.2C215.8 298.4 230.5 300.2 234 296Z" fill="#50B8E7" stroke="#231F20" stroke-width="0.75" stroke-miterlimit="10"/>
<path d="M327.001 190.4L345.901 183.7" stroke="#231F20" stroke-width="0.5" stroke-miterlimit="10"/>
<path d="M324.801 197.4L363.401 183.7" stroke="#231F20" stroke-width="0.5" stroke-miterlimit="10"/>
<path d="M553.4 263.2L595.7 247.9" stroke="#231F20" stroke-width="0.5" stroke-miterlimit="10"/>
<path d="M563.601 265.6L602.101 251.9" stroke="#231F20" stroke-width="0.5" stroke-miterlimit="10"/>
<path d="M578.9 265.9L604 256.9" stroke="#231F20" stroke-width="0.5" stroke-miterlimit="10"/>
<path d="M319.9 205.4L380 184.3" stroke="#231F20" stroke-width="0.5" stroke-miterlimit="10"/>
<path d="M533.001 263.2L593.001 242.1" stroke="#231F20" stroke-width="0.5" stroke-miterlimit="10"/>
<path d="M316.601 213.2L399.201 184.3" stroke="#231F20" stroke-width="0.5" stroke-miterlimit="10"/>
<path d="M508.501 263.9L591.201 235" stroke="#231F20" stroke-width="0.5" stroke-miterlimit="10"/>
<path d="M313.301 221L421.501 184.6" stroke="#231F20" stroke-width="0.5" stroke-miterlimit="10"/>
<path d="M480.4 265.4L588.6 229.1" stroke="#231F20" stroke-width="0.5" stroke-miterlimit="10"/>
<path d="M309.9 228.7L447.4 183.5" stroke="#231F20" stroke-width="0.5" stroke-miterlimit="10"/>
<path d="M450.4 266.2L587.8 221" stroke="#231F20" stroke-width="0.5" stroke-miterlimit="10"/>
<path d="M306.601 236.5L468.901 185" stroke="#231F20" stroke-width="0.5" stroke-miterlimit="10"/>
<path d="M412.9 263.2L575.2 211.7" stroke="#231F20" stroke-width="0.5" stroke-miterlimit="10"/>
<path d="M423.301 266.5L585.601 215" stroke="#231F20" stroke-width="0.5" stroke-miterlimit="10"/>
<path d="M303.301 244.3L498.901 183.9" stroke="#231F20" stroke-width="0.5" stroke-miterlimit="10"/>
<path d="M381.101 264.7L576.701 204.3" stroke="#231F20" stroke-width="0.5" stroke-miterlimit="10"/>
<path d="M299.9 252.1L522.2 184.6" stroke="#231F20" stroke-width="0.5" stroke-miterlimit="10"/>
<path d="M353.7 263.9L576 196.5" stroke="#231F20" stroke-width="0.5" stroke-miterlimit="10"/>
<path d="M296.601 259.9L543.401 184.6" stroke="#231F20" stroke-width="0.5" stroke-miterlimit="10"/>
<path d="M311.001 263.2L557.801 188" stroke="#231F20" stroke-width="0.5" stroke-miterlimit="10"/>
<path d="M328.101 264.7L574.901 189.5" stroke="#231F20" stroke-width="0.5" stroke-miterlimit="10"/>
<path d="M422.4 430.8L427.8 437.7" stroke="#231F20" stroke-width="0.5" stroke-miterlimit="10"/>
<path d="M423 427.3L428.4 434.2" stroke="#231F20" stroke-width="0.5" stroke-miterlimit="10"/>
<path d="M423.601 422.9L429.001 429.8" stroke="#231F20" stroke-width="0.5" stroke-miterlimit="10"/>
<path d="M424.2 419L429.6 426" stroke="#231F20" stroke-width="0.5" stroke-miterlimit="10"/>
<path d="M424.7 415.2L430.9 423.3" stroke="#231F20" stroke-width="0.5" stroke-miterlimit="10"/>
<path d="M426 412L432.2 420.2" stroke="#231F20" stroke-width="0.5" stroke-miterlimit="10"/>
<path d="M427 408.6L433.9 416.8" stroke="#231F20" stroke-width="0.5" stroke-miterlimit="10"/>
<path d="M428.101 404.3L436.001 414" stroke="#231F20" stroke-width="0.5" stroke-miterlimit="10"/>
<path d="M430 401.1L437.9 410.8" stroke="#231F20" stroke-width="0.5" stroke-miterlimit="10"/>
<path d="M432.101 397.5L439.901 407.2" stroke="#231F20" stroke-width="0.5" stroke-miterlimit="10"/>
<path d="M433.8 393.8L441.7 403.5" stroke="#231F20" stroke-width="0.5" stroke-miterlimit="10"/>
<path d="M436.601 390.9L444.501 400.5" stroke="#231F20" stroke-width="0.5" stroke-miterlimit="10"/>
<path d="M439.3 387.8L447.2 397.4" stroke="#231F20" stroke-width="0.5" stroke-miterlimit="10"/>
<path d="M441.9 384.8L449.8 394.5" stroke="#231F20" stroke-width="0.5" stroke-miterlimit="10"/>
<path d="M445 381.9L453.5 391.7" stroke="#231F20" stroke-width="0.5" stroke-miterlimit="10"/>
<path d="M447.8 378.9L457.1 390" stroke="#231F20" stroke-width="0.5" stroke-miterlimit="10"/>
<path d="M450.601 376.6L459.901 387.6" stroke="#231F20" stroke-width="0.5" stroke-miterlimit="10"/>
<path d="M454 373.9L464 386.1" stroke="#231F20" stroke-width="0.5" stroke-miterlimit="10"/>
<path d="M457.101 370.9L468.401 384.8" stroke="#231F20" stroke-width="0.5" stroke-miterlimit="10"/>
<path d="M459.5 367.2L472.8 383.7" stroke="#231F20" stroke-width="0.5" stroke-miterlimit="10"/>
<path d="M461.8 363.3L477.7 382.7" stroke="#231F20" stroke-width="0.5" stroke-miterlimit="10"/>
<path d="M465.4 360.5L483.7 382.4" stroke="#231F20" stroke-width="0.5" stroke-miterlimit="10"/>
<path d="M469 357.5L489.8 382.2" stroke="#231F20" stroke-width="0.5" stroke-miterlimit="10"/>
<path d="M474.9 356.1L496.6 382.5" stroke="#231F20" stroke-width="0.5" stroke-miterlimit="10"/>
<path d="M486 362.6L502.9 383.3" stroke="#231F20" stroke-width="0.5" stroke-miterlimit="10"/>
<path d="M493.5 365.4L505.2 381.3" stroke="#231F20" stroke-width="0.5" stroke-miterlimit="10"/>
<path d="M217.4 221.9C217.4 221.9 235.9 217.7 241.3 221.9" stroke="#231F20" stroke-width="0.75" stroke-miterlimit="10"/>
<path d="M220.8 215.9C220.8 215.9 230.7 213.8 235.7 215.9" stroke="#231F20" stroke-width="0.75" stroke-miterlimit="10"/>
<path d="M274.5 549.2V535.7H288.5C288.8 540.9 289.3 550.8 288.5 549.2C287.7 547.6 278.9 548.5 274.5 549.2Z" fill="white" stroke="black" stroke-width="0.75" stroke-linecap="round" stroke-linejoin="round"/>
<path d="M311 550.2V536.7H325C325.3 541.9 325.8 551.8 325 550.2C324.2 548.6 315.4 549.5 311 550.2Z" fill="white" stroke="black" stroke-width="0.75" stroke-linecap="round" stroke-linejoin="round"/>
<path d="M268.6 538.7C261 536.7 271.8 448.5 278.1 404.7C278.1 401.9 280.4 399.5 281.6 398.7L322.1 408.2C324.1 400.2 328.5 386 328.5 385.1C328.5 383.6 332 385.1 333.5 386.6L328.1 408.2L345.1 412.2L341.6 428.2C340.3 436.5 337.8 454.4 338.6 459.2C339.6 465.2 333.5 535.7 333 538.7C332.5 541.7 309.1 543.2 305.1 538.7C301.9 535.1 301.1 517.9 301.1 509.7C299.8 515.5 296.9 528.5 296.1 533.7C295.1 540.2 278.1 541.2 268.6 538.7Z" fill="white" stroke="black" stroke-width="0.75" stroke-linecap="round" stroke-linejoin="round"/>
<path d="M303.5 374.6C292.3 369.4 299.9 349.8 305.5 341.7C312 334.2 315.5 338.7 317 338.7C318.5 338.7 319.5 339.2 320 345.7C320.4 350.9 324.7 345.4 326 342.7C325.5 344 323.4 348.1 325 351.7C329 355.7 328 355.2 328 358.2C328 361.2 332.5 359.2 332.5 358.2C332.5 357.2 334 357.1 334 362.6C334 367 329 366.8 326.5 366.1C326 369.3 324.6 376.7 323 381.1C321 386.6 304 386.6 306.1 385.1C307.8 383.9 306.8 378.3 306.1 375.6C305.2 375.4 304.4 375 303.5 374.6Z" fill="white"/>
<path d="M320 373.6C317.5 375 311.8 377.1 306.1 375.6M306.1 375.6C305.2 375.4 304.3 375 303.5 374.6C292.3 369.4 299.9 349.8 305.5 341.7C312 334.2 315.5 338.7 317 338.7C318.5 338.7 319.5 339.2 320 345.7C320.4 350.9 324.7 345.4 326 342.7C325.5 344 323.4 348.1 325 351.7C329 355.7 328 355.2 328 358.2C328 361.2 332.5 359.2 332.5 358.2C332.5 357.2 334 357.1 334 362.6C334 367 329 366.8 326.5 366.1C326 369.3 324.6 376.7 323 381.1C321 386.6 304 386.6 306.1 385.1C307.8 383.9 306.8 378.3 306.1 375.6Z" stroke="black" stroke-width="0.75"/>
<path d="M318 357.7C318.552 357.7 319 357.252 319 356.7C319 356.148 318.552 355.7 318 355.7C317.448 355.7 317 356.148 317 356.7C317 357.252 317.448 357.7 318 357.7Z" fill="black"/>
<path d="M307 351.7C307.552 351.7 308 351.252 308 350.7C308 350.148 307.552 349.7 307 349.7C306.448 349.7 306 350.148 306 350.7C306 351.252 306.448 351.7 307 351.7Z" fill="black"/>
<path d="M307 347.7C307.5 347.4 308.7 347.2 309.5 349.2M318.5 354.4C319.2 354.1 320.6 353.9 321 355.9M310.5 365.2C311 366.7 313.9 367.8 315.1 364.2M309.1 361.4C307.9 360.9 306 359.5 307.6 357.9C309.2 356.3 311.9 354.2 313.1 353.4" stroke="black" stroke-width="0.75" stroke-linecap="round" stroke-linejoin="round"/>
<path d="M312.7 340.6C311.1 343.4 307.7 343.1 306.2 342.6C308.2 344.6 304 349.4 301.7 351.6C294.7 355.6 295.2 349.1 295.2 348.6C295.2 348.1 299.2 345.1 294.7 341.6C290.2 338.1 295.7 331.6 301.7 332.1C306.5 332.5 310.4 330.9 311.7 330.1C346.7 318.6 348.7 350.6 347.7 356.1C354.7 368.6 345.7 368.1 340.7 370.6C340.7 374.6 335.7 374.6 331.2 373.6C330.4 375.6 326.9 374.8 325.2 374.1C325.4 373.1 325.9 370 326.7 365.6C332.3 367.2 333.7 364.3 333.7 362.6C333.5 361.3 332.4 358.9 329.2 360.1C325.2 361.6 326.7 357.6 327.2 355.1C322.4 354.3 324.7 347.6 324.7 344.6C324.2 346.1 324 349 320.7 348.6C316.7 348.1 319.2 339.1 318.7 340.1C318.2 341.1 315.2 341.6 312.7 340.6Z" fill="#50B8E7" stroke="black" stroke-width="0.75" stroke-linecap="round" stroke-linejoin="round"/>
<path d="M291 565.3C290.8 562 292.4 555 300 553.8C300.5 553.5 301 553.2 301.5 552.9C302.4 552.4 303.2 551.9 304 551.4C305 550.8 305.8 550.3 306.5 549.9C307.3 549.4 308 548.9 308.5 548.6C309 548.2 309.4 548 309.5 547.8C310 547.3 325.5 548.8 327 547.8C328.5 546.8 330 564.8 328.5 565.3C327.7 565.6 316.1 565.6 305 565.5C299.9 565.4 294.8 565.3 291 565.3Z" fill="#BEE8FF"/>
<path d="M300 553.8C292.4 555 290.8 562 291 565.3C294.8 565.4 299.8 565.4 305 565.5M300 553.8C300.5 553.5 301 553.2 301.5 552.9M300 553.8C301.8 555.7 305.4 560.8 305 565.5M301.5 552.9C302.3 553.4 304 554.6 304 555.8M301.5 552.9C302.4 552.4 303.2 551.9 304 551.4M304 551.4C305 552 306.9 553.5 306.5 554.3M304 551.4C305 550.8 305.8 550.3 306.5 549.9M306.5 549.8C307.5 550.5 309.5 552.1 309.3 552.8M306.5 549.8C307.3 549.3 308 548.8 308.5 548.5M308.5 548.5C309 548.1 309.4 547.9 309.5 547.7C310 547.2 325.5 548.7 327 547.7C328.5 546.7 330 564.7 328.5 565.2C327.7 565.5 316.1 565.5 305 565.4M308.5 548.5C309.5 549 311.5 550.2 311.5 551.4" stroke="black" stroke-width="0.75" stroke-linecap="round" stroke-linejoin="round"/>
<path d="M256 562.5C255.9 559.5 257.2 553.3 264 552.2C264.5 551.9 264.9 551.7 265.3 551.4C266.1 550.9 266.9 550.5 267.5 550.1C268.4 549.6 269.1 549.1 269.7 548.7C270.5 548.2 271 547.8 271.5 547.5C272 547.2 272.3 546.9 272.4 546.8C272.8 546.4 286.7 547.7 288 546.8C289.3 545.9 290.7 562.1 289.3 562.5C288.6 562.7 278.2 562.7 268.3 562.6C263.9 562.6 259.4 562.5 256 562.5Z" fill="#BEE8FF"/>
<path d="M264.1 552.1C257.3 553.2 255.9 559.4 256.1 562.4C259.5 562.4 264 562.5 268.6 562.5M264.1 552.1C264.6 551.8 265 551.6 265.4 551.3M264.1 552.1C265.7 553.8 268.9 558.4 268.6 562.6M265.4 551.4C266.1 551.8 267.6 552.9 267.6 554M265.4 551.4C266.2 550.9 267 550.5 267.6 550.1M267.6 550C268.5 550.6 270.2 551.9 269.8 552.6M267.6 550C268.5 549.5 269.2 549 269.8 548.6M269.8 548.6C270.7 549.2 272.4 550.7 272.3 551.3M269.8 548.6C270.6 548.1 271.1 547.7 271.6 547.4M271.6 547.4C272.1 547.1 272.4 546.8 272.5 546.7C272.9 546.3 286.8 547.6 288.1 546.7C289.4 545.8 290.8 562 289.4 562.4C288.7 562.6 278.3 562.6 268.4 562.5M271.6 547.4C272.5 547.8 274.3 548.9 274.3 550" stroke="black" stroke-width="0.75" stroke-linecap="round" stroke-linejoin="round"/>
<path d="M255.7 451.4L249.3 393.9L308.8 387L315.7 445L255.7 451.4Z" fill="#E8F4FA" stroke="black" stroke-width="0.75"/>
<path d="M275 353.6C273.8 352 272.8 352.9 272.5 353.6L244 395.1L312 387.1C300.4 376.6 276.6 355.2 275 353.6Z" fill="#E8F4FA" stroke="black" stroke-width="0.75" stroke-linecap="round" stroke-linejoin="round"/>
<path d="M271.5 369.6C269 370.2 268.8 370.1 269 371.6C269.3 374.3 269.5 379.2 270 381.1C270.3 382.3 271.7 382.3 272.5 382.1C274.7 381.8 279.4 381.4 281 381.1C283 380.7 283 380.1 283 379.6C282.7 376.8 281.9 370.8 281.5 369.6C281.1 368.4 280.7 368.4 279 368.6C277.4 368.7 273.5 369.1 271.5 369.6Z" fill="white" stroke="black" stroke-width="0.75" stroke-linecap="round" stroke-linejoin="round"/>
<path d="M293.6 396.8C291.1 397.4 290.9 397.3 291.1 398.8C291.4 401.5 291.6 406.4 292.1 408.3C292.4 409.5 293.8 409.5 294.6 409.3C296.8 409 301.5 408.6 303.1 408.3C305.1 407.9 305.1 407.3 305.1 406.8C304.8 404 304 398 303.6 396.8C303.2 395.6 302.8 395.6 301.1 395.8C299.4 395.9 295.6 396.3 293.6 396.8Z" fill="white" stroke="black" stroke-width="0.75" stroke-linecap="round" stroke-linejoin="round"/>
<path d="M278 448.7C276.2 436.9 273.1 412.4 274.3 412C275.8 411.5 286.8 410 287.3 411C287.7 411.8 290.7 435.7 292 447.2" stroke="black" stroke-width="0.75" stroke-linecap="round" stroke-linejoin="round"/>
<path d="M345.4 391.7C357.4 394.2 348.4 436.2 332.4 437.2C331.3 437 330.1 436.7 328.9 436.2C325.2 441.4 316.1 450.3 308.9 444.7C302.1 439.4 283 423.7 272.8 415.2C271.6 414.2 270.7 412.9 270.3 411.4C269.2 407.4 268.3 402.2 270.3 402.2C270.8 402.2 271.1 402.1 271.3 402.2C271.3 401 271.9 398.8 273.5 399.2C274.1 399.4 274.1 399.3 274.3 399.7C274.3 397.8 276 395.2 278 397.2C278 397.6 277.9 398 277.9 398.6C278.3 397.5 279.6 395.8 281 397.7C281.5 401.2 284.5 406.7 286.5 406.7C288.5 406.7 285.2 401.3 287.5 400.7C289.8 400.1 288.5 406.2 291.5 410.2C293.9 413.4 306.8 421.2 313 424.7C311 422.2 314 418.7 316.5 418.2C319 417.7 318.5 416.7 320.5 412.2C325.2 398.6 339 392.8 345.4 391.7Z" fill="white"/>
<path d="M322.9 380.7C329.2 384.4 342.7 391.1 345.4 391.7M345.4 391.7C357.4 394.2 348.4 436.2 332.4 437.2C331.3 437 330.1 436.7 328.9 436.2M345.4 391.7C339.1 392.9 325.2 398.6 320.4 412.2C318.4 416.7 318.9 417.7 316.4 418.2C313.9 418.7 310.9 422.2 312.9 424.7M312.9 424.7C314.6 426.8 322.3 433.5 328.9 436.2M312.9 424.7C306.7 421.2 293.8 413.4 291.4 410.2C288.4 406.2 289.7 400.1 287.4 400.7C285.1 401.3 288.4 406.7 286.4 406.7C284.4 406.7 281.4 401.2 280.9 397.7C279.5 395.8 278.2 397.5 277.8 398.6M328.9 436.2C325.2 441.4 316.1 450.3 308.9 444.7C302.1 439.4 283 423.7 272.8 415.2C271.6 414.2 270.7 412.9 270.3 411.4C269.2 407.4 268.3 402.2 270.3 402.2C270.8 402.2 271.1 402.1 271.3 402.2M273.4 409.2C273.1 408.5 272.3 407 271.9 406.2C271.1 403.7 272.4 402.5 271.2 402.2M271.2 402.2C271.2 401 271.8 398.8 273.4 399.2C274 399.4 274 399.3 274.2 399.7M276.9 408.2C275.4 406.7 274.7 402.7 274.7 402.3C274.7 402 274.7 400.5 274.2 399.7M274.2 399.7C274.2 397.8 275.9 395.2 277.9 397.2C277.9 397.6 277.8 398 277.8 398.6M279.7 405.7C279.5 405.4 279.2 404.7 278.7 403.2C278.3 402 277.8 400.2 277.8 398.6" stroke="black" stroke-width="0.75" stroke-linecap="round" stroke-linejoin="round"/>
<path d="M270 530.2L334 445.7" stroke="black" stroke-width="0.25" stroke-linecap="round" stroke-linejoin="round"/>
<path d="M300 500.7L337 451.7" stroke="black" stroke-width="0.25" stroke-linecap="round" stroke-linejoin="round"/>
<path d="M269 521.7L330 440.7" stroke="black" stroke-width="0.25" stroke-linecap="round" stroke-linejoin="round"/>
<path d="M269 509.7L314 448.7" stroke="black" stroke-width="0.25" stroke-linecap="round" stroke-linejoin="round"/>
<path d="M270 497.2L305 448.7" stroke="black" stroke-width="0.25" stroke-linecap="round" stroke-linejoin="round"/>
<path d="M303.5 508.2L336 464.7" stroke="black" stroke-width="0.25" stroke-linecap="round" stroke-linejoin="round"/>
<path d="M304 522.2L336.5 478.7" stroke="black" stroke-width="0.25" stroke-linecap="round" stroke-linejoin="round"/>
<path d="M305.5 531.7L335.5 493.7" stroke="black" stroke-width="0.25" stroke-linecap="round" stroke-linejoin="round"/>
<path d="M315 531.7L333 509.7" stroke="black" stroke-width="0.25" stroke-linecap="round" stroke-linejoin="round"/>
<path d="M272 536.4L289 513.6" stroke="black" stroke-width="0.25" stroke-linecap="round" stroke-linejoin="round"/>
<path d="M240.4 79.2L282.1 48.8L332.2 60L336 93.5L338.4 112.3L336.3 114.4C336.3 114.4 339.1 125.1 322.2 138.8C322.3 138.8 307.1 151.1 307.1 151.1L303.5 154.5C303.5 154.5 300 158.2 300 160.1H299.5C299.5 160.1 296.4 155.8 291.3 154.3L281 150.1L272.9 147L266.1 142.7L260.3 137.1C260.3 137.1 251.3 129.4 246 106C246 105.7 240 82.9 240.4 79.2Z" fill="white"/>
<path d="M454.7 89.3L464.5 177.4L493.9 181.1L505 151.6L490.3 75.1C490.3 75.1 482 71.7 479.1 63.5C479 63.5 461.8 73 461.8 73C461.8 73 463.1 76.7 457.7 83.5C457.6 83.5 454.7 89.3 454.7 89.3Z" fill="#E8F4FA"/>
<path d="M475.4 32C476.1 32.2 476.7 32.6999 477.2 33.2999C477.6 33.8999 477.9 34.7 477.9 35.4C477.9 38.7 476.2 40.2 475 40.9C474.7 41.1 474.4 41.4 474.3 41.7L480.6 66L462.1 74.6L459.9 67.5C451.9 69.8 447 65.6 444.3 61.9C442.8 59.9 441.8 57.6 441.2 55.2L436.5 38.4C436.5 38.4 430.6 39.2 431.1 33C431 32.9 431.5 37 427.9 37C426.4 37 425.1 36.2999 424.2 35.0999C422.9 33.2999 421.5 30.3 424.9 27.8C424.7 27.6 421.9 24.7 425.8 22.7C426.1 22.7 419 13.9 433.3 12.3C433.3 12.1 432.1 3.59995 443.5 3.79995C443.7 3.99995 454 -4.50005 461.7 5.99995C462 5.79995 467.8 3.59995 469.5 9.19995C469.7 8.99995 477.3 7.69995 479.2 17.2C479.2 17.2 486.2 23.5 480.7 29.1C480.9 29.1 478.9 31 475.4 32Z" fill="white"/>
<path d="M336.701 117.1C337.901 116.7 343.201 120.3 345.701 122.1C345.301 120.9 350.901 109.9 353.701 104.6C350.701 101.3 345.001 93.8001 343.701 92.6001C341.801 90.9001 334.701 89.6001 333.701 89.6001C332.701 89.6001 326.701 86.1001 324.701 87.1001C322.701 88.1001 329.701 95.1001 334.201 98.1001C337.201 103.1 335.201 117.6 336.701 117.1Z" fill="white" stroke="black" stroke-width="0.5" stroke-linecap="round" stroke-linejoin="round"/>
<path d="M566.8 153C567.4 160.1 566.7 174.7 559.3 176.6M571.4 158.7C571.8 162 571.9 169.3 569.1 172.5M395.3 162.2C400.9 165.8 413.9 170.3 421.8 158.7M402.2 169.1C405.1 171.4 413 174.6 421.8 169.1" stroke="black" stroke-width="0.4" stroke-linecap="round"/>
<path d="M237.7 68C242 96.8 248 116.9 250.5 123.3C253.2 131.2 262.4 143.9 277.6 148.9C294.7 154.3 299.5 159 299.7 160.7" stroke="black" stroke-width="0.5" stroke-linecap="round"/>
<path d="M240.4 81.4L237.8 68C279.9 54.6 281.3 37.9 281.3 37.9C281.2 37.3 295.6 58.8 331.1 54.9L333 67.8C312.7 72.8 284.3 58.6 284.3 58.6C284.3 58.6 259.8 79.2 240.4 81.4Z" fill="#50B8E7" stroke="#231F20" stroke-width="0.75" stroke-miterlimit="10"/>
<path d="M309.7 87.6L299.5 85.2L295.2 98.3L290.9 111.4L276.4 107L273.7 115.3L295.8 122.6L309.7 87.6Z" fill="#50B8E7" stroke="#231F20" stroke-width="0.75" stroke-miterlimit="10"/>
<path d="M444.1 186.5C446.3 185 460.3 182.8 468.1 182C467.7 182.4 473.3 193.2 476.1 198.5C474.8 198.8 471.9 199.9 471.1 201.5C470.1 203.5 461.6 205.5 458.6 205.5C455.6 205.5 453.1 209 448.6 211.5C445 213.5 444.7 210.3 445 208.5C444.6 208.7 444.3 208.9 444.1 209C439.3 210.2 439.3 207.1 440 205.4C439.7 205.6 439.4 205.8 439.1 206C435.1 207.6 435.3 204.2 435.9 202.3C435.6 202.4 435.3 202.5 435.1 202.5C429.6 199.5 442.4 187.7 444.1 186.5Z" fill="white"/>
<path d="M448.6 193C447.4 193 440.1 199 436.6 202C436.4 202.1 436.2 202.2 435.9 202.3M435.9 202.3C435.6 202.4 435.3 202.5 435.1 202.5C429.6 199.5 442.4 187.7 444.1 186.5C446.3 185 460.3 182.8 468.1 182C467.7 182.4 473.3 193.2 476.1 198.5C474.8 198.8 471.9 199.9 471.1 201.5C470.1 203.5 461.6 205.5 458.6 205.5C455.6 205.5 453.1 209 448.6 211.5C445 213.5 444.7 210.3 445 208.5M435.9 202.3C435.3 204.2 435.1 207.6 439.1 206C439.4 205.8 439.7 205.6 440 205.4M451.6 197C450.2 197 444 202.6 440 205.4M440 205.4C439.4 207.1 439.3 210.2 444.1 209C444.3 208.9 444.6 208.7 445 208.5M455.1 202C452.5 203.7 447.4 207.1 445 208.5M332.8 67.5L335.3 89.5M336.3 116.9C336.1 136.2 301.7 149.7 299.8 160.5" stroke="black" stroke-width="0.5" stroke-linecap="round"/>
<path d="M469.1 33.3C469.2 33.4 469.3 33.5 469.4 33.6C469.5 33.7 469.7 33.7 469.8 33.8C470 33.8 470.1 33.8 470.3 33.8C470.4 33.8 470.6 33.7 470.7 33.6C472.5 31.9 474 31.7 475.2 32.1C475.9 32.3 476.5 32.8 477 33.4C477.4 34 477.7 34.8 477.7 35.5C477.7 38.8 476 40.3 474.8 41C474.5 41.2 474.2 41.5 474.1 41.8L480.4 66.1L461.9 74.7L459.7 67.6C451.7 69.9 446.8 65.7 444.1 62C442.6 60 441.6 57.7 441 55.3L436.3 38.5" stroke="black" stroke-width="0.5"/>
<path d="M459.2 34.5C457.7 34.3 456.9 35 456.5 35.4C456.4 35.5 456.4 35.6 456.4 35.6C456.4 35.7 456.4 35.8 456.5 35.8C456.6 35.9 456.7 35.9 456.7 35.9C456.8 35.9 456.9 35.9 456.9 35.8C457.2 35.5 457.8 35 459 35.1C459.1 35.1 459.2 35.1 459.2 35C459.3 34.9 459.3 34.9 459.3 34.8V34.7C459.3 34.7 459.3 34.6 459.2 34.6V34.5C459.3 34.5 459.3 34.5 459.2 34.5Z" fill="white"/>
<path d="M473.9 25.5C474.7 26.3 476.7 27.8 478.3 27.3M471.1 13.5C472.9 14.6 476.1 18.3 474.7 24M472.8 11.2C475.1 12.9 479.1 18.1 476.5 24.8M464.5 23.1C464.5 24 464.1 26 462.2 26.5M463.4 27.4C465.4 26.8 469 24.5 467.6 20.6M468.4 16.3C470.1 18.7 472 24.4 465.6 28.1M449.6 20.1C449.8 21.2 450.4 23.4 451.8 23.2M447.4 19.4C447.6 21.2 448.6 25 451.4 25.4M465.3 7.10003C464.5 9.50003 463.8 15 467.5 17.5M463 8.10003C462.2 10.6 461.5 16.1 464.8 17.9M459.6 10.7C459.4 12.7 459.8 17.2 462.6 19.2M457.5 22.1C457.4 23.1 457 25.1 455.8 24.8M459.3 20.4C459.4 22.5 459.1 26.6 457.4 26.5M458 14.1C456.6 14.9 454.2 17.6 455.7 22M455 12.4C453.7 14.2 451.5 18.4 453.5 20.9M446.8 8.40003C448.6 7.60003 453.1 6.70003 456.4 10.1M447.2 6.00003C449.4 5.20003 454.5 4.60003 457.6 8.30003M447 5.00003C448.6 3.50003 453.2 1.80003 458.7 7.10003M446.9 13.6C447.1 12 448.8 9.10003 453.8 10.9M451 18.2C450.4 16.7 449.9 13.3 452.2 12.2M448.9 13C448.2 13.9 447 16 447.5 17.4M444.8 16C443.8 14.4 442.5 10.5 445.6 7.60003M439.3 10.9C438.7 9.40003 438.2 6.20003 440.6 5.50003M442.9 7.60003C441.8 9.70003 440.3 14.6 442.9 17.3M437.2 13.3C436.3 12.7 434.8 11.1 435.9 9.00003M439.5 15C437.8 16.1 435.3 19.6 438.6 25.2M436.4 14.8C434.7 16.4 432.2 21.2 435.8 27M430.9 17.7C430 18.1 428.7 19.2 430.3 20.9M428.8 17C427.9 17.8 426.6 19.9 428.8 21.8M429.4 14.5C427 15.5 423.4 18.6 427.8 22.7M433.2 15.3C431.9 17.8 430.1 23.9 433.5 28.4M439.7 28.1C440.8 27.7 443 26.6 443.1 25.2M439.3 29.9C441.2 29.6 445.1 28.2 445.1 24.9M439.5 31.3C439.8 30.9 445.4 31.8 446.7 26.4M435.1 32.3C435 33.1 434.3 34.8 432.4 34.8M437.5 31.6C437.6 32.9 436.8 35.6 433.4 36.7M428.9 25.2C429.1 26.8 429.9 30.2 432.2 31.3M440.5 17C440.2 18 439.8 20 440.7 20.4M427.3 25.8C426.6 25.8 425.6 26.3 427 28.3M428.8 31.5C428.1 32.2 427.1 33.8 428.6 35M427.6 30.3C426.4 30.7 424.5 32.1 426.5 34.6" stroke="black" stroke-width="0.5" stroke-linecap="round"/>
<path d="M458.9 56.2C458.2 56.2 457.6 56 457 55.6C456.9 55.5 456.9 55.2 456.9 55.1C457 55 457.2 55 457.4 55C458.1 55.6 459.1 55.6 460.1 55.2C461.2 54.7 462.1 53.8 462.7 52.7C462.8 52.6 463 52.4 463.2 52.6C463.3 52.7 463.5 52.9 463.3 53.1C462.7 54.4 461.6 55.5 460.4 56C459.9 56.1 459.4 56.2 458.9 56.2Z" fill="black"/>
<path d="M452.7 50.5999C452.6 50.5999 452.6 50.5999 452.6 50.5999L451.4 49.9999C451.3 49.8999 450.9 49.7999 450.9 49.3999C450.8 48.9999 451 48.5999 451.1 48.3999C452 46.8999 452.3 44.7999 452 42.9999C451.9 42.7999 452.1 42.5999 452.2 42.4999C452.4 42.3999 452.5 42.5999 452.6 42.6999C453.1 44.6999 452.7 47.0999 451.7 48.7999C451.7 48.8999 451.6 48.9999 451.6 48.9999C451.6 48.9999 451.7 49.0999 451.8 49.0999L453 49.6999C453.2 49.7999 453.3 49.9999 453.2 50.1999C452.9 50.4999 452.8 50.5999 452.7 50.5999Z" fill="black"/>
<path d="M445.3 43.6C445.5 43.9 445.6 44.2 445.6 44.5C445.6 44.8 445.5 45.1 445.4 45.4C445.2 45.6 445 45.8 444.8 45.9C444.5 46 444.2 46 444 45.8C443.7 45.7 443.5 45.5 443.3 45.2C443.1 44.9 443 44.6 443 44.3C443 44 443.1 43.7 443.2 43.5C443.3 43.3 443.6 43.1 443.9 43L444.1 43.5C444.2 43.9 444.8 44.1 445.2 43.8L445.3 43.6Z" fill="black"/>
<path d="M461.2 38.4001C461.4 38.6001 461.5 38.9001 461.5 39.2001C461.5 39.5001 461.5 39.7 461.3 40C461.2 40.2 461 40.4001 460.8 40.4001C460.6 40.5001 460.3 40.4 460.1 40.3C459.9 40.2 459.7 40 459.5 39.8C459.3 39.6 459.3 39.3 459.3 39C459.3 38.7 459.4 38.5001 459.5 38.2001C459.6 38.0001 459.8 37.8 460.1 37.8L460.2 38.2001C460.1 38.6001 460.7 38.8001 461.2 38.4001Z" fill="black"/>
<path d="M488.3 74C500.1 74.8 524 76.6 524.8 77C535.8 75 541.8 90 542.8 91.5C543.8 93 551.3 138 555.3 151.5C559.3 165 548.3 173 547.3 173.5C546.3 174 482.3 204 477.3 201.5C473.6 199.7 468.3 188.3 465.4 180.7L448.4 180.8C448.9 178.6 449.6 173.9 448.8 169.5C448 165.1 444.5 136 442.8 122C432.8 137.2 410.7 165.6 402.3 158C391.8 148.5 342.3 131 343.3 123.5C344.1 117.5 350.6 107 353.8 102.5C370.3 110.8 403.4 127.7 403.8 128.5C404.3 129.5 423.8 97.5 429.3 96C433.7 94.8 450.5 86.5 458.3 82.5C462 103.3 469.2 145.7 468.8 148.5C468.4 151.3 470 167.1 470.8 174.6C477.4 171.6 485.2 168.1 492.8 164.7C488.4 155.7 488 100.4 488.3 74Z" fill="#BEE8FF"/>
<path d="M524.8 77C524 76.6 500.1 74.8 488.3 74C488 100.5 488.4 155.7 492.8 164.7M524.8 77C525.8 77.5 510.8 83.5 514.8 98C518.8 112.5 526.8 148.5 525.8 149.5C525.3 150 509.5 157.2 492.8 164.7M524.8 77C535.8 75 541.8 90 542.8 91.5C543.8 93 551.3 138 555.3 151.5C559.3 165 548.3 173 547.3 173.5C546.3 174 482.3 204 477.3 201.5C473.6 199.7 468 187.1 465.1 179.5M492.8 164.7C485.2 168.1 477.4 171.6 470.8 174.6M470.8 174.6C468.5 175.6 466.3 176.6 464.3 177.5C464.5 178.1 464.8 178.8 465.1 179.5M470.8 174.6C470 167.1 468.4 151.3 468.8 148.5C469.2 145.7 462 103.3 458.3 82.5C450.5 86.5 433.1 93.5 429.3 96C420.7 101.5 404.3 129.5 403.8 128.5C403.4 127.7 370.3 110.8 353.8 102.5C350.6 107 344.1 117.5 343.3 123.5C342.3 131 391.8 148.5 402.3 158C410.7 165.6 432.8 137.2 442.8 122C444.5 136 448 165.1 448.8 169.5C449.6 173.9 448.7 179 448.2 181.2L465.4 180.8" stroke="black" stroke-width="0.5" stroke-linecap="round" stroke-linejoin="round"/>
<path d="M458.5 82.4C458.5 82.4 462.2 77.2 462 74.6L480.5 66C480.5 66 482.8 71.7 488.5 73.9" stroke="black" stroke-width="0.5"/>
<path d="M462.9 74.5999L464.6 85.5999" stroke="black" stroke-width="0.25"/>
<path d="M467.601 72.0999L469.301 83.1999" stroke="black" stroke-width="0.25"/>
<path d="M472.4 69.7L474.1 80.7" stroke="black" stroke-width="0.25"/>
<path d="M477.9 66.8999L479.7 77.9999" stroke="black" stroke-width="0.25"/>
<path d="M465.101 73.3L469.901 100.1" stroke="black" stroke-width="0.25"/>
<path d="M469.9 70.8L474.7 97.6" stroke="black" stroke-width="0.25"/>
<path d="M475.4 68.2L480.2 95" stroke="black" stroke-width="0.25"/>
<path d="M440.601 42.4C440.601 42.4 441.801 39.9 444.601 40" stroke="black" stroke-width="0.5" stroke-linecap="round" stroke-linejoin="round"/>
<path d="M458.2 35.3999C458.2 35.3999 460.4 33.7999 462.9 35.0999" stroke="black" stroke-width="0.5" stroke-linecap="round" stroke-linejoin="round"/>
<path d="M32.5006 170.8L32.6006 170.9H32.7006L53.1006 173L52.4006 180.4C52.3006 180.4 52.1006 180.4 51.8006 180.4C51.3006 180.4 50.5006 180.3 49.6006 180.3C47.7006 180.2 45.2006 180 42.4006 179.7C39.7006 179.4 36.7006 179 34.2006 178.5C31.6006 178 29.4006 177.4 28.0006 176.6C27.3006 176.2 26.7006 175.6 26.0006 174.7C25.3006 173.8 24.7006 172.8 24.1006 171.6C22.8006 169.2 21.7006 166.3 20.7006 163.5C19.7006 160.7 18.9006 158 18.4006 156C18.1006 155 17.9006 154.2 17.8006 153.6C17.7006 153.3 17.7006 153.1 17.6006 152.9L24.0006 151.2L32.5006 170.8Z" fill="#BEE8FF" stroke="black" stroke-width="0.75"/>
<path d="M63.3005 170.2C67.0005 173.5 67.3005 179.1 64.0005 182.8C60.7005 186.5 55.1005 186.8 51.4005 183.5C47.7005 180.2 47.4005 174.6 50.7005 170.9C54.0005 167.3 59.6005 167 63.3005 170.2Z" fill="white" stroke="black" stroke-width="0.75"/>
<path d="M57.4009 186C55.3009 186 53.2009 185.3 51.6009 183.9C50.0009 182.6 48.8009 180.7 48.4009 178.6C48.0009 176.5 48.3009 174.4 49.3009 172.5C50.3009 170.6 51.9009 169.2 53.9009 168.4C55.9009 167.6 58.0009 167.5 60.1009 168.1C62.1009 168.7 63.9009 170 65.1009 171.8C66.3009 173.6 66.8009 175.7 66.6009 177.8C66.4009 179.9 65.5009 181.9 64.0009 183.4C63.2009 184.3 62.1009 184.9 61.0009 185.4C59.8009 185.8 58.6009 186 57.4009 186ZM57.4009 167.8C55.3009 167.8 53.2009 168.5 51.6009 169.9C50.0009 171.2 48.8009 173.1 48.4009 175.2C48.0009 177.3 48.3009 179.4 49.3009 181.3C50.3009 183.2 51.9009 184.6 53.9009 185.4C55.8009 186.2 58.0009 186.3 60.0009 185.7C62.0009 185.1 63.8009 183.8 64.9009 182C66.1009 180.2 66.6009 178.1 66.4009 176C66.2009 173.9 65.3009 171.9 63.8009 170.4C63.0009 169.5 62.0009 168.9 60.8009 168.4C59.8009 168 58.6009 167.8 57.4009 167.8Z" fill="#263238"/>
<path d="M35.7001 170.2C36.6001 173.8 34.4001 177.3 30.8001 178.2C27.2001 179.1 23.7001 176.9 22.8001 173.3C21.9001 169.7 24.1001 166.2 27.7001 165.3C31.2001 164.5 34.8001 166.7 35.7001 170.2Z" fill="white" stroke="black" stroke-width="0.75"/>
<path d="M28.6008 145.4L24.2008 149.1L22.8008 147.5L27.2008 143.8C27.4008 143.6 27.7008 143.6 27.9008 143.6C28.2008 143.6 28.4008 143.7 28.6008 143.9L28.7008 144C28.8008 144.1 28.8008 144.2 28.9008 144.3C28.9008 144.4 29.0008 144.6 28.9008 144.7C28.8008 144.8 28.9008 145 28.8008 145.1C28.8008 145.2 28.7008 145.3 28.6008 145.4Z" fill="white" stroke="black" stroke-width="0.75"/>
<path d="M22.7006 138.4V144.2H20.6006V138.4C20.6006 138.1 20.7006 137.9 20.9006 137.7C21.1006 137.5 21.3006 137.4 21.6006 137.4H21.8006C22.1006 137.4 22.3006 137.5 22.5006 137.7C22.6006 137.9 22.7006 138.2 22.7006 138.4Z" fill="white" stroke="black" stroke-width="0.75"/>
<path d="M18.6004 138.5L19.9004 144.2L17.8004 144.7L16.5004 139C16.4004 138.7 16.5004 138.5 16.6004 138.3C16.7004 138.1 17.0004 137.9 17.2004 137.9H17.4004C17.7004 137.8 17.9004 137.9 18.1004 138C18.3004 138 18.5004 138.3 18.6004 138.5Z" fill="white" stroke="black" stroke-width="0.75"/>
<path d="M14.1006 140L17.0006 145L15.2006 146.1L12.3006 141.1C12.2006 140.9 12.1006 140.6 12.2006 140.4C12.3006 140.2 12.4006 139.9 12.7006 139.8L12.9006 139.7C13.1006 139.6 13.4006 139.5 13.6006 139.6C13.8006 139.6 14.0006 139.8 14.1006 140Z" fill="white" stroke="black" stroke-width="0.75"/>
<path d="M148.701 221.4L142.901 223.8L125.301 182.4L131.101 180L148.701 221.4Z" fill="#BEE8FF" stroke="black" stroke-width="0.75"/>
<path d="M130.801 171C134.601 174.2 135.001 179.8 131.801 183.6C128.601 187.4 123.001 187.8 119.201 184.6C115.401 181.4 115.001 175.8 118.201 172C121.501 168.3 127.101 167.8 130.801 171Z" fill="white" stroke="black" stroke-width="0.75"/>
<path d="M125.1 187C123.7 187 122.3 186.7 121 186C119.7 185.4 118.6 184.4 117.8 183.3C116.9 182.1 116.4 180.8 116.1 179.4C115.9 178 116 176.5 116.4 175.2C116.9 173.6 117.8 172.1 119.1 171C120.4 169.9 121.9 169.1 123.6 168.9C125.3 168.6 127 168.8 128.5 169.4C130.1 170 131.4 171.1 132.4 172.4C133.4 173.8 134 175.4 134.2 177.1C134.3 178.8 134 180.5 133.3 182C132.5 183.5 131.4 184.8 129.9 185.7C128.4 186.5 126.8 187 125.1 187ZM125.1 168.7C123.4 168.7 121.8 169.2 120.3 170.1C118.9 171 117.7 172.3 116.9 173.8C116.1 175.3 115.8 177 116 178.7C116.1 180.4 116.8 182 117.8 183.4C118.8 184.8 120.2 185.8 121.7 186.4C123.3 187 125 187.2 126.6 186.9C128.3 186.6 129.8 185.9 131.1 184.8C132.4 183.7 133.3 182.2 133.8 180.6C134.5 178.3 134.3 175.8 133.1 173.6C132 171.5 130 169.9 127.7 169.1C126.9 168.8 126 168.7 125.1 168.7Z" fill="#263238"/>
<path d="M138.801 196.9C142.301 197.9 144.401 201.5 143.401 205.1C142.401 208.6 138.801 210.7 135.201 209.7C131.601 208.7 129.601 205.1 130.601 201.5C131.601 198 135.201 195.9 138.801 196.9Z" fill="white" stroke="black" stroke-width="0.75"/>
<path d="M140.5 231.7C140.4 231.6 140.3 231.5 140.2 231.4C140.1 231.3 140.1 231.2 140 231.1C140 231 140 230.8 140 230.7C140 230.6 140.1 230.5 140.1 230.3L139.9 230.2L140.1 230.3L143.1 225.3L144.9 226.4L141.9 231.4C141.8 231.6 141.5 231.8 141.3 231.8C141 231.9 140.8 231.8 140.6 231.7H140.5Z" fill="white" stroke="black" stroke-width="0.75"/>
<path d="M148.2 228.9L150 234.4C150 234.5 150.1 234.6 150 234.8C150 234.9 150 235.1 149.9 235.2C149.8 235.3 149.8 235.4 149.7 235.5C149.6 235.6 149.5 235.6 149.4 235.7L149.2 235.8C149 235.9 148.7 235.9 148.5 235.7C148.3 235.6 148.1 235.4 148 235.2L146.2 229.7L148.2 228.9Z" fill="white" stroke="black" stroke-width="0.75"/>
<path d="M151.9 233.7L148.9 228.7L150.7 227.6L153.7 232.6C153.8 232.8 153.9 233.1 153.8 233.3C153.7 233.5 153.6 233.8 153.4 233.9L153.2 234C153 234.1 152.7 234.2 152.5 234.1C152.3 234.1 152.1 233.9 151.9 233.7Z" fill="white" stroke="black" stroke-width="0.75"/>
<path d="M155.701 230.9L151.301 227L152.701 225.4L157.101 229.3C157.301 229.5 157.401 229.7 157.401 230C157.401 230.3 157.301 230.5 157.201 230.7L157.101 230.8C156.901 231 156.701 231.1 156.401 231.1C156.101 231.2 155.901 231.1 155.701 230.9L155.601 231.1L155.701 230.9Z" fill="white"/>
<path d="M155.701 230.9L151.301 227L152.701 225.4L157.101 229.3C157.301 229.5 157.401 229.7 157.401 230C157.401 230.3 157.301 230.5 157.201 230.7L157.101 230.8C156.901 231 156.701 231.1 156.401 231.1C156.101 231.2 155.901 231.1 155.701 230.9ZM155.701 230.9L155.601 231.1L155.701 230.9Z" stroke="black" stroke-width="0.75"/>
<path d="M128.601 167.4C128.601 167.5 128.601 167.6 128.601 167.6C128.601 167.7 128.601 167.9 128.601 168.2C128.601 168.7 128.501 169.4 128.501 170.4C128.401 172.2 128.201 174.9 127.801 178C127.101 184.2 125.801 192.5 123.401 200.7C121.001 208.9 117.401 217 112.201 223C107.001 229 100.301 232.9 91.3008 232.5C82.4008 232.2 75.6008 228 70.6008 221.8C65.5008 215.6 62.1008 207.5 59.7008 199.5C57.4008 191.4 56.2008 183.4 55.5008 177.4C55.2008 174.4 55.0008 171.9 54.9008 170.1C54.9008 169.2 54.8008 168.5 54.8008 168.1C54.8008 167.9 54.8008 167.7 54.8008 167.6C54.8008 167.5 54.8008 167.5 54.8008 167.5C54.8008 167.4 54.9008 167.4 55.0008 167.2C55.2008 167 55.5008 166.6 55.9008 166.2C56.8008 165.4 58.3008 164.3 60.9008 163.2C66.0008 161 75.3008 158.7 91.7008 158.5C108.101 158.3 117.301 160.6 122.501 162.9C125.101 164.1 126.601 165.2 127.501 166.1C127.901 166.5 128.201 166.9 128.401 167.1C128.501 167.2 128.501 167.3 128.601 167.4Z" fill="#BEE8FF" stroke="black" stroke-width="0.75"/>
<path d="M105.301 155.9H74.901C73.001 155.9 71.501 154.4 71.501 152.5V152C71.501 150.1 73.001 148.6 74.901 148.6H105.301C107.201 148.6 108.701 150.1 108.701 152V152.5C108.701 154.4 107.201 155.9 105.301 155.9Z" fill="white" stroke="black" stroke-width="0.75"/>
<path d="M91.201 98.8H89.001V86H91.201V98.8Z" fill="white" stroke="black" stroke-width="0.75"/>
<path d="M135.801 129.3C136.801 133.3 134.301 137.4 130.201 138.3C126.201 139.3 122.101 136.8 121.201 132.7C120.201 128.7 122.701 124.6 126.801 123.7C130.801 122.8 134.801 125.3 135.801 129.3Z" fill="#BEE8FF" stroke="black" stroke-width="0.75"/>
<path d="M57.9005 128.9C58.8005 132.9 56.3005 136.9 52.3005 137.9C48.3005 138.8 44.3005 136.3 43.3005 132.3C42.4005 128.3 44.9005 124.3 48.9005 123.3C52.9005 122.3 57.0005 124.9 57.9005 128.9Z" fill="#BEE8FF" stroke="black" stroke-width="0.75"/>
<path d="M88.6008 96.4C103.601 96 113.601 100.8 119.701 107.5C125.801 114.2 128.001 122.8 127.601 130.1C127.501 131.7 127.201 133.3 126.801 134.9C125.101 141.6 121.701 145.6 117.001 147.9C112.201 150.3 106.101 151 98.9009 151.2C92.4009 151.3 85.0009 151.3 81.5009 151.1C81.2009 151.1 80.9009 151.1 80.5009 151C76.3009 150.7 68.6009 150.3 62.3008 147C58.8008 145.2 55.8009 142.6 53.9009 138.8C52.0009 135 51.3009 129.9 52.5009 123.1C55.0009 109.6 64.0009 102.9 72.4009 99.7C76.6009 98.1 80.7008 97.3 83.7008 96.9C85.2008 96.7 86.4009 96.6 87.3009 96.6C87.7009 96.6 88.1009 96.6 88.3009 96.6C88.3009 96.4 88.4008 96.4 88.6008 96.4C88.5008 96.4 88.5008 96.4 88.6008 96.4C88.6008 96.4 88.6008 96.4 88.6008 96.2V96.4ZM81.4009 151.2C84.9009 151.4 92.3009 151.5 98.8009 151.3L81.4009 151.2Z" fill="#BEE8FF"/>
<path d="M88.6008 96.4C103.601 96 113.601 100.8 119.701 107.5C125.801 114.2 128.001 122.8 127.601 130.1C127.501 131.7 127.201 133.3 126.801 134.9C125.101 141.6 121.701 145.6 117.001 147.9C112.201 150.3 106.101 151 98.9009 151.2C92.4009 151.3 85.0009 151.3 81.5009 151.1C81.2009 151.1 80.9009 151.1 80.5009 151C76.3009 150.7 68.6009 150.3 62.3008 147C58.8008 145.2 55.8009 142.6 53.9009 138.8C52.0009 135 51.3009 129.9 52.5009 123.1C55.0009 109.6 64.0009 102.9 72.4009 99.7C76.6009 98.1 80.7008 97.3 83.7008 96.9C85.2008 96.7 86.4009 96.6 87.3009 96.6C87.7009 96.6 88.1009 96.6 88.3009 96.6C88.3009 96.4 88.4008 96.4 88.6008 96.4ZM88.6008 96.4C88.5008 96.4 88.5008 96.4 88.6008 96.4ZM88.6008 96.4C88.6008 96.4 88.6008 96.4 88.6008 96.2V96.4ZM81.4009 151.2C84.9009 151.4 92.3009 151.5 98.8009 151.3L81.4009 151.2Z" stroke="black" stroke-width="0.75"/>
<path d="M111.301 137.4L65.7006 138.1C64.6006 138.1 63.5006 137.9 62.5006 137.5C61.5006 137.1 60.5006 136.5 59.7006 135.7C58.9006 134.9 58.3006 134 57.8006 133C57.4006 132 57.1006 130.9 57.1006 129.8C57.1006 128.7 57.3006 127.6 57.7006 126.6C58.1006 125.6 58.7006 124.6 59.5006 123.8C60.3006 123 61.2006 122.4 62.2006 121.9C63.2006 121.5 64.3006 121.2 65.4006 121.2L111.001 120.5C112.101 120.5 113.201 120.7 114.201 121.1C115.201 121.5 116.201 122.1 117.001 122.9C117.801 123.7 118.401 124.6 118.901 125.6C119.301 126.6 119.601 127.7 119.601 128.8C119.601 129.9 119.401 131 119.001 132C118.601 133 118.001 134 117.201 134.8C116.401 135.6 115.501 136.2 114.501 136.7C113.501 137.1 112.401 137.3 111.301 137.4Z" fill="white" stroke="black" stroke-width="0.75"/>
<path d="M75.001 128.8C74.901 129.3 74.701 129.8 74.301 130.1C73.901 130.5 73.501 130.7 73.001 130.8C72.501 130.9 72.001 130.9 71.501 130.7C71.001 130.5 70.601 130.2 70.401 129.8C70.101 129.4 70.001 128.9 70.001 128.4C70.001 127.9 70.101 127.4 70.401 127C70.701 126.6 71.101 126.3 71.501 126.1C72.001 125.9 72.501 125.9 73.001 126C73.301 126.1 73.601 126.2 73.901 126.4C74.201 126.6 74.401 126.8 74.601 127.1C74.801 127.4 74.901 127.7 75.001 128C75.101 128.1 75.101 128.5 75.001 128.8Z" fill="white" stroke="black" stroke-width="0.75"/>
<path d="M106.801 128.3C106.701 128.8 106.501 129.3 106.101 129.6C105.701 130 105.301 130.2 104.801 130.3C104.301 130.4 103.801 130.4 103.301 130.2C102.801 130 102.401 129.7 102.201 129.3C101.901 128.9 101.801 128.4 101.801 127.9C101.801 127.4 101.901 126.9 102.201 126.5C102.501 126.1 102.901 125.8 103.301 125.6C103.801 125.4 104.301 125.4 104.801 125.5C105.501 125.6 106.001 126 106.401 126.6C106.801 127.2 107.001 127.6 106.801 128.3Z" fill="white" stroke="black" stroke-width="0.75"/>
<path d="M99.1006 192.6C99.0006 194.4 98.3006 196.1 97.2006 197.5C96.1006 198.9 94.6006 200 92.9006 200.5C91.2006 201.1 89.4006 201.1 87.7006 200.6C86.0006 200.1 84.4006 199.1 83.3006 197.8C82.1006 196.4 81.4006 194.8 81.2006 193C81.0006 191.2 81.3006 189.4 82.1006 187.8C82.9006 186.2 84.2006 184.9 85.7006 184C87.3006 183.1 89.0006 182.7 90.8006 182.8C92.0006 182.9 93.1006 183.2 94.2006 183.7C95.3006 184.2 96.2006 185 97.0006 185.9C97.8006 186.8 98.4006 187.8 98.7006 189C99.0006 190.2 99.2006 191.4 99.1006 192.6Z" fill="white" stroke="black" stroke-width="0.75"/>
<path d="M94.7006 194.2C94.6006 193.7 94.6006 193.2 94.6006 192.7C94.6006 191.8 94.6006 190.4 94.6006 188.8L94.7006 189L90.0006 186.3H90.3006L85.6006 188.9C85.5006 189.1 85.8006 188.6 85.7006 188.7V189.4V190.1C85.7006 190.6 85.7006 191 85.7006 191.5C85.7006 192.4 85.7006 193.3 85.7006 194.1L85.6006 193.9L90.2006 196.7H90.0006C91.4006 195.9 92.6006 195.3 93.4006 194.9C93.8006 194.6 94.3006 194.4 94.7006 194.2C94.3006 194.5 93.9006 194.7 93.5006 195C92.7006 195.5 91.5006 196.2 90.1006 197L90.0006 197.1L89.9006 197L85.2006 194.3L85.1006 194.2V194C85.1006 193.2 85.1006 192.3 85.1006 191.4C85.1006 191 85.1006 190.5 85.1006 190V189.3V188.6C85.1006 188.7 85.4006 188.2 85.2006 188.4L89.9006 185.8L90.0006 185.7L90.1006 185.8L94.7006 188.6L94.8006 188.7V188.8C94.7006 190.5 94.7006 191.9 94.6006 192.8C94.9006 193.3 94.8006 193.8 94.7006 194.2Z" fill="#50B8E7"/>
<path d="M93.101 82.5C94.701 84.1 94.701 86.8001 93.101 88.4001C91.501 90.0001 88.801 90.0001 87.201 88.4001C85.601 86.8001 85.601 84.1 87.201 82.5C88.801 80.9 91.401 80.9 93.101 82.5Z" fill="#BEE8FF" stroke="black" stroke-width="0.3"/>
<path d="M93.3004 128.7V128.6C93.3004 128.6 93.4004 128.6 93.3004 128.7ZM93.3004 128.7C93.4004 129.3 93.3004 129.9 93.1004 130.5C92.8004 131.4 92.2004 132.2 91.5004 132.8C90.6004 133.6 89.5004 134 88.3004 134.1C87.1004 134.1 85.9004 133.7 85.0004 133C84.2004 132.4 83.7004 131.7 83.3004 130.8C83.0004 130.2 82.9004 129.6 82.9004 129V128.9V129" stroke="black" stroke-width="0.5" stroke-linecap="round" stroke-linejoin="round"/>
<path d="M125.001 140.2C125.001 140.2 125.501 139.3 126.101 137.8C126.801 135.8 127.201 133.7 127.401 131.6C127.601 129.5 127.601 127.4 127.501 125.2C127.501 124.4 127.401 123.7 127.401 123.2C127.401 123 127.401 122.7 127.401 122.5C127.501 122.7 127.501 123 127.501 123.2C127.601 123.7 127.601 124.3 127.701 125.2C127.901 127.3 127.801 129.5 127.601 131.6C127.401 133.7 127.001 135.8 126.201 137.9C126.001 138.5 125.701 139.1 125.401 139.7C125.201 139.8 125.101 140 125.001 140.2Z" fill="#263238"/>
<path d="M55.8004 122.2C55.8004 122.4 55.7004 122.7 55.6004 122.9C55.5004 123.1 55.5004 123.4 55.4004 123.7C55.3004 124 55.2004 124.4 55.2004 124.8C55.0004 125.7 54.9004 126.7 54.9004 127.7C54.8004 128.9 54.9004 130 54.9004 131.2C55.0004 132.4 55.2004 133.5 55.5004 134.7C55.7004 135.6 56.0004 136.6 56.3004 137.4C56.4004 137.8 56.6004 138.1 56.7004 138.4C56.8004 138.7 56.9004 139 57.0004 139.2C57.1004 139.4 57.2004 139.6 57.3004 139.9C57.2004 139.7 57.0004 139.5 56.9004 139.3C56.8004 139.1 56.6004 138.8 56.5004 138.5C56.4004 138.2 56.2004 137.9 56.1004 137.5C55.7004 136.6 55.4004 135.7 55.2004 134.7C54.9004 133.5 54.7004 132.4 54.6004 131.2C54.5004 130 54.5004 128.8 54.6004 127.7C54.7004 126.7 54.8004 125.8 55.0004 124.8C55.1004 124.4 55.2004 124 55.3004 123.7C55.4004 123.4 55.5004 123.1 55.5004 122.9C55.7004 122.6 55.7004 122.4 55.8004 122.2Z" fill="#263238"/>
<path d="M54.501 167.3L54.701 167.4L55.201 167.6L57.301 168.3L58.801 168.8C59.401 169 60.001 169.2 60.601 169.4C61.901 169.8 63.401 170.3 65.101 170.7L67.701 171.4C68.601 171.6 69.601 171.8 70.601 172C72.601 172.4 74.701 172.8 77.001 173.1C81.901 173.8 86.801 174.1 91.701 174.2C96.601 174.2 101.501 173.8 106.401 173.1C108.601 172.7 110.801 172.4 112.801 172C113.801 171.8 114.801 171.6 115.701 171.4L118.301 170.7C120.001 170.3 121.401 169.8 122.701 169.4C123.301 169.2 124.001 169 124.501 168.8L126.001 168.3L128.101 167.6L128.601 167.4C128.701 167.4 128.701 167.4 128.801 167.3L128.601 167.4L128.101 167.6L126.001 168.4L124.501 169C124.001 169.2 123.301 169.4 122.701 169.6C121.401 170 119.901 170.5 118.301 170.9L115.701 171.6C114.801 171.8 113.801 172 112.801 172.2C110.801 172.7 108.701 173 106.401 173.3C101.501 174 96.601 174.3 91.701 174.4C86.801 174.4 81.801 174 77.001 173.3C74.801 172.9 72.601 172.6 70.601 172.2C69.601 172 68.601 171.8 67.701 171.6L65.101 170.9C63.401 170.5 62.001 170 60.701 169.6C60.001 169.4 59.401 169.2 58.901 169L57.401 168.4L55.301 167.6L54.801 167.4C54.601 167.4 54.601 167.4 54.501 167.3Z" fill="#263238"/>
<path d="M54.7002 167.4C54.7002 167.4 59.0002 158.6 91.8002 158.2C124.6 157.8 128.9 167.4 128.9 167.4C128.9 167.4 95.7002 183.7 54.7002 167.4Z" fill="#E7F5FC" stroke="#231F20" stroke-width="0.75" stroke-miterlimit="10"/>
<path d="M84.6002 98.2H84.5002H84.2002C83.9002 98.2 83.5002 98.2 82.9002 98.3C81.3002 98.5 79.8002 98.7 78.3002 99.1C70.4002 100.9 63.5002 105.5 58.7002 112.1C56.4002 115.3 54.7002 118.8 53.6002 122.5C53.4002 123 53.3002 123.4 53.3002 123.7L53.2002 124V124.1V124C53.2002 123.9 53.2002 123.8 53.3002 123.7C53.4002 123.4 53.4002 123 53.6002 122.5C54.0002 121 54.5002 119.5 55.2002 118.1C57.3002 113.3 60.5002 109.1 64.5002 105.8C68.5002 102.5 73.3002 100.2 78.4002 99C79.9002 98.7 81.5002 98.4 83.1002 98.3C83.7002 98.3 84.1002 98.3 84.4002 98.2H84.7002C84.6002 98.2 84.6002 98.2 84.6002 98.2Z" fill="black"/>
<path d="M45.7008 134.3C45.7008 134.3 45.6008 134.2 45.4008 134C45.2008 133.7 45.0008 133.4 44.8008 133.1C44.3008 132.1 44.1008 130.9 44.2008 129.8C44.3008 128.7 44.8008 127.6 45.6008 126.8C45.8008 126.5 46.1008 126.3 46.4008 126.1C46.5008 126 46.6008 126 46.7008 125.9C46.7008 125.9 46.3008 126.2 45.8008 126.9C45.1008 127.7 44.7008 128.8 44.5008 129.8C44.3008 130.8 44.5008 132 45.0008 133C45.3008 133.9 45.7008 134.3 45.7008 134.3Z" fill="black"/>
<path d="M91.1008 82.9001C90.7008 82.9001 90.3008 82.8001 90.0008 82.9001C89.5008 82.9001 89.1008 83.1001 88.7008 83.3001C88.3008 83.5001 88.0008 83.9001 87.7008 84.2001C87.5008 84.6001 87.3008 85.0001 87.2008 85.5001C87.1008 86.0001 87.2008 86.4001 87.4008 86.8001C87.5008 87.2001 87.7008 87.5001 87.9008 87.8001C87.9008 87.8001 87.8008 87.7001 87.7008 87.6001C87.5008 87.4001 87.4008 87.1001 87.3008 86.8001C87.1008 86.3001 87.0008 85.8001 87.1008 85.4001C87.1008 84.9001 87.3008 84.4001 87.6008 84.0001C87.9008 83.6001 88.2008 83.2001 88.7008 83.0001C89.1008 82.8001 89.6008 82.6001 90.1008 82.6001C90.4008 82.6001 90.7008 82.6001 91.0008 82.7001C91.0008 82.8001 91.1008 82.9001 91.1008 82.9001Z" fill="black"/>
<path d="M133.001 127.4C132.901 127.5 132.201 126.7 131.001 126.2C129.901 125.7 128.801 125.5 128.801 125.4C129.601 125.4 130.401 125.6 131.101 126C131.901 126.3 132.501 126.8 133.001 127.4Z" fill="black"/>
<path d="M46.5008 173.9C45.3008 173.9 44.1008 173.9 42.9008 173.8C41.7008 173.8 40.5008 173.6 39.3008 173.4C40.5008 173.4 41.7008 173.4 42.9008 173.5C44.1008 173.6 45.3008 173.7 46.5008 173.9Z" fill="black"/>
<path d="M26.7002 162.8C26.0002 161.8 25.4002 160.7 24.8002 159.6C24.2002 158.5 23.6002 157.4 23.2002 156.3C23.9002 157.3 24.5002 158.4 25.1002 159.5C25.7002 160.6 26.2002 161.7 26.7002 162.8Z" fill="black"/>
<path d="M84.201 227.4C84.001 227.4 83.801 227.4 83.601 227.3C83.101 227.2 82.601 227.1 82.101 226.9C81.401 226.7 80.601 226.4 79.901 226.1C79.001 225.7 78.201 225.2 77.401 224.7C76.601 224.1 75.901 223.5 75.201 222.9C74.601 222.3 74.101 221.8 73.701 221.1C73.401 220.7 73.101 220.2 72.801 219.8C72.701 219.6 72.601 219.5 72.501 219.3C72.501 219.3 72.901 220 73.801 221C74.301 221.6 74.801 222.2 75.401 222.7C76.801 224 78.301 225.1 80.001 225.9C80.701 226.2 81.401 226.5 82.101 226.8C83.401 227.2 84.201 227.3 84.201 227.4Z" fill="black"/>
<path d="M91.9004 205.4C91.8004 205.4 91.7004 205.4 91.6004 205.4C91.3004 205.4 90.9004 205.4 90.6004 205.4C89.4004 205.4 88.2004 205.2 87.0004 204.8C86.2004 204.6 85.4004 204.2 84.7004 203.9C83.8004 203.5 83.0004 202.9 82.3004 202.3C80.5004 200.9 79.1004 199.2 78.3004 197.1C77.4004 195.1 77.1004 192.8 77.3004 190.6C77.4004 189.6 77.6004 188.7 77.8004 187.8C78.0004 187 78.3004 186.2 78.7004 185.5C79.2004 184.4 79.9004 183.4 80.7004 182.5C80.9004 182.3 81.1004 182 81.4004 181.8C81.5004 181.7 81.6004 181.6 81.7004 181.6C81.7004 181.6 81.4004 181.9 80.8004 182.6C80.0004 183.5 79.4004 184.5 78.8004 185.6C78.0004 187.2 77.6004 189 77.5004 190.7C77.3004 192.9 77.7004 195.1 78.5004 197.1C79.4004 199.1 80.7004 200.9 82.5004 202.2C83.2004 202.8 84.0004 203.3 84.9004 203.8C85.6004 204.2 86.4004 204.5 87.2004 204.8C88.3004 205.2 89.5004 205.4 90.7004 205.5C91.5004 205.4 91.9004 205.3 91.9004 205.4Z" fill="black"/>
<path d="M31.6002 167.3C31.6002 167.3 31.2002 167.2 30.6002 167C29.8002 166.8 29.0002 166.8 28.2002 167C27.4002 167.2 26.7002 167.6 26.0002 168.1C25.5002 168.5 25.3002 168.8 25.2002 168.8C25.3002 168.5 25.5002 168.2 25.8002 168C26.4002 167.4 27.2002 167 28.0002 166.8C28.8002 166.6 29.7002 166.6 30.5002 166.8C31.0002 166.9 31.3002 167.1 31.6002 167.3Z" fill="white" stroke="black" stroke-width="0.75"/>
<path d="M103.801 118.7C103.801 118.8 97.801 118.8 90.401 118.8C83.001 118.8 77.001 118.7 77.001 118.7C77.001 118.6 83.001 118.6 90.401 118.6C97.801 118.5 103.801 118.6 103.801 118.7Z" fill="black"/>
<path d="M80.9008 149.3C80.8008 149.3 80.8008 149.3 80.7008 149.3L80.0008 149.4C79.7008 149.4 79.4008 149.4 79.0008 149.5C78.6008 149.5 78.1008 149.5 77.6008 149.5C76.6008 149.5 75.4008 149.4 74.0008 149.3C72.5008 149.1 71.1008 148.9 69.7008 148.6C68.3008 148.3 66.9008 147.8 65.5008 147.3C64.4008 146.9 63.3008 146.4 62.2008 145.9C61.7008 145.7 61.3008 145.5 61.0008 145.3C60.7008 145.1 60.3008 144.9 60.1008 144.8L59.5008 144.5C59.4008 144.5 59.4008 144.4 59.3008 144.4C59.3008 144.4 59.4008 144.4 59.5008 144.5L60.1008 144.8C60.3008 144.9 60.7008 145.1 61.0008 145.3C61.4008 145.5 61.8008 145.7 62.2008 145.9C63.1008 146.3 64.2008 146.8 65.5008 147.2C68.2008 148.2 71.1008 148.9 74.0008 149.2C75.3008 149.4 76.5008 149.4 77.6008 149.5C78.1008 149.5 78.6008 149.5 79.0008 149.5C79.4008 149.5 79.7008 149.5 80.0008 149.5H80.7008C80.8008 149.2 80.8008 149.2 80.9008 149.3Z" fill="black"/>
<path d="M119.601 173.4C119.601 173.4 119.501 173.4 119.501 173.5L119.101 173.6L117.701 174.1C117.101 174.3 116.401 174.6 115.501 174.8C114.601 175 113.701 175.4 112.601 175.6L110.901 176C110.301 176.2 109.701 176.3 109.001 176.4C107.701 176.7 106.301 177 104.901 177.2C98.6008 178.3 92.1008 178.7 85.7008 178.4C84.2008 178.3 82.8008 178.2 81.5008 178.1C80.8008 178 80.2008 178 79.6008 177.9L77.9008 177.7C76.8008 177.6 75.8008 177.4 74.9008 177.2C74.0008 177 73.3008 176.9 72.7008 176.8L71.3008 176.5L70.9008 176.4H70.8008H70.9008L71.3008 176.5L72.7008 176.8C73.3008 176.9 74.1008 177.1 74.9008 177.2C75.8008 177.3 76.8008 177.5 77.9008 177.6L79.6008 177.8C80.2008 177.9 80.8008 177.9 81.5008 178C82.8008 178.1 84.2008 178.2 85.7008 178.3C88.7008 178.4 91.9008 178.4 95.3008 178.2C98.7008 178 101.901 177.6 104.901 177.1C106.401 176.8 107.701 176.6 109.001 176.3C109.601 176.2 110.301 176 110.901 175.9L112.601 175.5C113.701 175.2 114.701 174.9 115.501 174.7C116.401 174.5 117.101 174.2 117.701 174L119.101 173.6L119.501 173.5L119.601 173.4Z" fill="black"/>
<path d="M23.9006 144.8C26.0006 146.9 26.0006 150.3 23.9006 152.4C21.8006 154.5 18.4006 154.5 16.3006 152.4C14.2006 150.3 14.2006 146.9 16.3006 144.8C18.4006 142.7 21.8006 142.7 23.9006 144.8Z" fill="white" stroke="black" stroke-width="0.75"/>
<path d="M152.7 224.6C152.7 227.6 150.3 230 147.3 230C144.3 230 141.9 227.6 141.9 224.6C141.9 221.6 144.3 219.2 147.3 219.2C150.3 219.3 152.7 221.7 152.7 224.6Z" fill="white" stroke="black" stroke-width="0.75"/>
</svg>
