<svg viewBox="0 0 610 567" fill="none" xmlns="http://www.w3.org/2000/svg">
<path d="M327.2 181.2L292.5 267.1H607.8L573.1 180.5L327.2 181.2Z" fill="#50B8E7" stroke="#231F20" stroke-width="0.75" stroke-miterlimit="10"/>
<path d="M595.7 267.3H303V498.5H595.7V267.3Z" fill="#E8F4FA" stroke="#231F20" stroke-width="0.75" stroke-miterlimit="10"/>
<path d="M572.3 301.9H458.8V389.8H572.3V301.9Z" fill="white" stroke="#231F20" stroke-width="0.75" stroke-miterlimit="10"/>
<path d="M579.2 389.8H451.7V399.6H579.2V389.8Z" fill="white" stroke="#231F20" stroke-width="0.75" stroke-miterlimit="10"/>
<path d="M495.8 306.4H464V329.6H495.8V306.4Z" fill="white" stroke="#231F20" stroke-width="0.75" stroke-miterlimit="10"/>
<path d="M531.4 306.4H499.6V329.6H531.4V306.4Z" fill="white" stroke="#231F20" stroke-width="0.75" stroke-miterlimit="10"/>
<path d="M567.1 306.4H535.3V329.6H567.1V306.4Z" fill="white" stroke="#231F20" stroke-width="0.75" stroke-miterlimit="10"/>
<path d="M495.8 334.3H464V357.5H495.8V334.3Z" fill="white" stroke="#231F20" stroke-width="0.75" stroke-miterlimit="10"/>
<path d="M531.4 334.3H499.6V357.5H531.4V334.3Z" fill="white" stroke="#231F20" stroke-width="0.75" stroke-miterlimit="10"/>
<path d="M567.1 334.3H535.3V357.5H567.1V334.3Z" fill="white" stroke="#231F20" stroke-width="0.75" stroke-miterlimit="10"/>
<path d="M495.8 362.1H464V385.3H495.8V362.1Z" fill="white" stroke="#231F20" stroke-width="0.75" stroke-miterlimit="10"/>
<path d="M531.4 362.1H499.6V385.3H531.4V362.1Z" fill="white" stroke="#231F20" stroke-width="0.75" stroke-miterlimit="10"/>
<path d="M567.1 362.1H535.3V385.3H567.1V362.1Z" fill="white" stroke="#231F20" stroke-width="0.75" stroke-miterlimit="10"/>
<path d="M69.1001 496.1L71.1001 538.6C71.2001 541.4 73.5001 543.5 76.3001 543.5C79.2001 543.5 81.5001 541.2 81.5001 538.3L81.2001 495L69.1001 496.1Z" fill="white" stroke="#231F20" stroke-width="0.75" stroke-miterlimit="10"/>
<path d="M429.7 496.1L431.7 538.6C431.8 541.4 434.1 543.5 436.9 543.5C439.8 543.5 442.1 541.2 442.1 538.3L441.8 494.9L429.7 496.1Z" fill="white" stroke="#231F20" stroke-width="0.75" stroke-miterlimit="10"/>
<path d="M90.6001 456.2L92.6001 498.7C92.7001 501.5 95.0001 503.6 97.8001 503.6C100.7 503.6 103 501.3 103 498.4L102.7 455L90.6001 456.2Z" fill="white" stroke="#231F20" stroke-width="0.75" stroke-miterlimit="10"/>
<path d="M405.6 456.2L407.6 498.7C407.7 501.5 410 503.6 412.8 503.6C415.7 503.6 418 501.3 418 498.4L417.7 455L405.6 456.2Z" fill="white" stroke="#231F20" stroke-width="0.75" stroke-miterlimit="10"/>
<path d="M66.2002 496.2H443.3C462.6 496.2 479.8 484.2 486.4 466.1L505.7 413.1C512.5 394.5 506.6 373.6 491 361.4L476.6 350.1C446.8 326.6 411.6 310.6 374.3 303.6C363.3 301.5 351.9 301.8 341 304.5L335.7 305.8C289.5 316.9 246 336.8 207.4 364.5C197.1 371.9 184.1 374.7 171.7 372.2L103.6 358.6C101.5 358.2 99.4002 357.9 97.2002 357.8L50.7002 355.2C43.7002 354.8 36.7002 356 30.3002 358.7C7.80018 368.2 -3.39981 393.7 5.10019 416.7L23.2002 466.1C29.8002 484.2 47.0002 496.2 66.2002 496.2Z" fill="white" stroke="#231F20" stroke-width="0.75" stroke-miterlimit="10"/>
<path d="M7.6001 379C15.8001 382.9 22.0001 390.2 24.5001 399L47.2001 478.4C48.2001 481.9 48.6001 485.5 48.4001 489.1L48.2001 492.6" stroke="#231F20" stroke-width="0.75" stroke-miterlimit="10"/>
<path d="M427.7 447.4C427.7 447.4 429.5 370.1 506.5 384C505.8 382.9 503.9 373.7 497 366.4C497 366.8 483.6 364.5 480.1 357.2C480.8 357.6 469.8 348.8 455.5 371.1C455.9 371.8 419.9 393.1 421.4 434.9C421.8 434.2 428.8 441.6 427.7 447.4Z" fill="#50B8E7" stroke="#231F20" stroke-width="0.75" stroke-miterlimit="10"/>
<path d="M79.1003 465C79.1003 465 88.6003 439.3 121.3 442.3C120.6 442.3 427.7 447.4 427.7 447.4C427.7 447.4 427.7 421.7 378.2 422.8C377.5 422.4 98.2003 411.8 84.6003 425C85.3003 425.4 91.9003 440 84.6003 446.3C84.6003 447.4 75.8003 454.4 79.1003 465Z" stroke="#231F20" stroke-width="0.75" stroke-miterlimit="10"/>
<path d="M191.6 272.9L208.5 304.5L228.6 287.5L239.4 271.5L244.8 250L245.3 241.6L233 234.2L198.1 243.2L197.3 259.5L191.6 272.9Z" fill="white"/>
<path d="M212.5 520.3L228.2 542.6C231 546.5 232.1 551.4 231.4 556.2C231.3 557.1 230.4 557.7 229.5 557.5C222.4 555.9 194.5 549.2 185 540.5C182.8 538.5 182.5 535.2 184 532.7C188.1 526.1 197.1 512.1 197.1 512.1L212.5 520.3Z" fill="white" stroke="#231F20" stroke-width="0.75" stroke-miterlimit="10"/>
<path d="M196.7 533.4C198.357 533.4 199.7 532.057 199.7 530.4C199.7 528.743 198.357 527.4 196.7 527.4C195.043 527.4 193.7 528.743 193.7 530.4C193.7 532.057 195.043 533.4 196.7 533.4Z" stroke="#231F20" stroke-width="0.75" stroke-miterlimit="10"/>
<path d="M212.2 531.7C212.2 531.7 216.3 528.3 218.5 528.5" stroke="#231F20" stroke-width="0.75" stroke-miterlimit="10" stroke-linecap="round" stroke-linejoin="round"/>
<path d="M213.8 535.5C213.8 535.5 217.9 532.1 220.1 532.3" stroke="#231F20" stroke-width="0.75" stroke-miterlimit="10" stroke-linecap="round" stroke-linejoin="round"/>
<path d="M216 538.4C216 538.4 220.1 535 222.3 535.2" stroke="#231F20" stroke-width="0.75" stroke-miterlimit="10" stroke-linecap="round" stroke-linejoin="round"/>
<path d="M218.2 541.3C218.2 541.3 222.3 537.9 224.5 538.1" stroke="#231F20" stroke-width="0.75" stroke-miterlimit="10" stroke-linecap="round" stroke-linejoin="round"/>
<path d="M190 523.4L205.7 545.7C208.5 549.6 209.6 554.5 208.9 559.3C208.8 560.2 207.9 560.8 207 560.6C199.9 559 172 552.3 162.5 543.6C160.3 541.6 160 538.3 161.5 535.8C165.6 529.2 174.6 515.2 174.6 515.2L190 523.4Z" fill="white" stroke="#231F20" stroke-width="0.75" stroke-miterlimit="10"/>
<path d="M174.2 536.4C175.857 536.4 177.2 535.057 177.2 533.4C177.2 531.743 175.857 530.4 174.2 530.4C172.543 530.4 171.2 531.743 171.2 533.4C171.2 535.057 172.543 536.4 174.2 536.4Z" stroke="#231F20" stroke-width="0.75" stroke-miterlimit="10"/>
<path d="M189.7 534.7C189.7 534.7 193.8 531.3 196 531.5" stroke="#231F20" stroke-width="0.75" stroke-miterlimit="10" stroke-linecap="round" stroke-linejoin="round"/>
<path d="M191.3 538.5C191.3 538.5 195.4 535.1 197.6 535.3" stroke="#231F20" stroke-width="0.75" stroke-miterlimit="10" stroke-linecap="round" stroke-linejoin="round"/>
<path d="M193.5 541.5C193.5 541.5 197.6 538.1 199.8 538.3" stroke="#231F20" stroke-width="0.75" stroke-miterlimit="10" stroke-linecap="round" stroke-linejoin="round"/>
<path d="M195.7 544.4C195.7 544.4 199.8 541 202 541.2" stroke="#231F20" stroke-width="0.75" stroke-miterlimit="10" stroke-linecap="round" stroke-linejoin="round"/>
<path d="M190.2 514.1L230.6 434.7L173 421.3C162.5 418.9 156.1 408.2 158.9 397.7L160.3 392.5C162.5 384.3 170.7 379.1 179.1 380.7C198.9 384.3 236.7 393 258.7 407.1C264.8 411 268.4 418 267.8 425.3C267.4 430.4 266.3 436.3 263.7 440.8C261.8 444 259.9 447.1 258.2 450.4C248.1 469.6 216 526.4 216 526.4C216 526.4 194.4 523 190.2 514.1Z" fill="#50B8E7" stroke="#231F20" stroke-width="0.75" stroke-miterlimit="10"/>
<path d="M168.7 517.1L209.1 437.7L151.5 424.2C141 421.8 134.6 411.1 137.4 400.6L138.8 395.4C141 387.2 149.2 382 157.6 383.6C177.4 387.2 215.2 395.9 237.2 410C243.3 413.9 246.9 420.9 246.3 428.2C245.9 433.3 244.8 439.2 242.2 443.7C240.3 446.9 238.4 450 236.7 453.3C226.6 472.5 194.5 529.3 194.5 529.3C194.5 529.3 172.9 526 168.7 517.1Z" fill="#50B8E7" stroke="#231F20" stroke-width="0.75" stroke-miterlimit="10"/>
<path d="M233.2 347L241.7 355.5C245.3 359.1 250.6 360.2 255.3 358.5L299.3 342.1C299.3 342.1 311.5 343.2 312.9 342.3C313.1 342.2 320.3 340.2 321.7 338.3C322 337.9 321.7 337.4 321.3 337.3C320.5 337.1 318.6 337.1 314.9 337.8C313.9 338 312.8 337.9 311.9 337.4C311.1 336.9 310.6 336.3 311.5 335.4C311.4 335.3 319.4 331.4 323.3 333.1C323.1 332.6 328.2 334 328.2 331.8C328.2 331.7 328.7 331.3 329.3 330.7C330 330 330 328.9 329.4 328.2L328.2 326.9C328.6 326.1 328.5 325.1 327.9 324.4C327.6 324 327.2 323.7 326.7 323.4C325.9 323 324.8 322.4 323.4 321.8C318.7 319.9 313.4 320.3 309 322.7C305 324.9 299.8 327.7 297.5 328.9C296.7 329.3 295.9 329.6 295 329.8L251.5 338.4L233.2 347Z" fill="white" stroke="#231F20" stroke-width="0.75" stroke-miterlimit="10" stroke-linecap="round" stroke-linejoin="round"/>
<path d="M316.6 328.9C316.6 328.9 328.2 328.9 328.1 331.6" stroke="#231F20" stroke-width="0.75" stroke-miterlimit="10" stroke-linecap="round" stroke-linejoin="round"/>
<path d="M316.1 326.3C316.1 326.3 329.7 326.3 329.6 329" stroke="#231F20" stroke-width="0.75" stroke-miterlimit="10" stroke-linecap="round" stroke-linejoin="round"/>
<path d="M316.7 323.5C316.7 323.5 328.3 323.5 328.2 326.2" stroke="#231F20" stroke-width="0.75" stroke-miterlimit="10" stroke-linecap="round" stroke-linejoin="round"/>
<path d="M154.1 351.8C154.1 351.8 145.3 372.4 146.2 380.5C146.4 382 147.6 383.2 149.1 383.5C157.6 384.8 198.6 394.6 202 393.1C202.5 393.1 221.3 392.9 221.5 391.4C221.5 391.4 225.6 368 225.1 355C224.6 354.5 255.9 343.7 256.2 334.5C256.2 334.3 237.4 299.1 226.8 293.8C226.8 293.3 182.5 272.8 178.6 274.3C181 274.1 178.4 283.2 178.4 283.2L167.6 284C164.2 284.3 161 286.1 159.2 289.1C153.2 298.7 140.7 321.1 144.1 335.6C144.3 336.5 144.7 337.4 145.1 338.3C146.2 340.8 150 350 154.1 351.8Z" fill="white" stroke="#231F20" stroke-width="0.75" stroke-miterlimit="10"/>
<path d="M154.1 351.8C154.1 351.8 180 346.2 180.8 337C181.1 336.5 180 331.8 176.3 329.9C177.3 330.4 179.3 294.6 167.6 283.9" stroke="#231F20" stroke-width="0.75" stroke-miterlimit="10" stroke-linejoin="round"/>
<path d="M226.1 315.2C226.1 315.2 228.5 336.2 225.6 347.7" stroke="#231F20" stroke-width="0.75" stroke-miterlimit="10"/>
<path d="M160.5 350.1L163.6 360C165 364.1 168 367.5 171.9 369.4L212.5 389.3C212.5 389.3 223.2 394.9 228.8 394.6C229.8 394.5 230.9 394.9 231.6 395.6L235.2 398.9L236 399C237.2 399.1 238.3 398.2 238.3 396.9V396.8L239.3 396.9C240.4 397 241.4 396.1 241.5 395L241.6 394.2C242.8 394.1 243.7 393.1 243.5 391.9L243.4 390.7L244.4 390.2C245.1 389.8 245.5 389.1 245.5 388.3V386.9L236.8 378.4C235.7 377.3 234.1 376.8 232.5 377.1C229.3 377.7 223.7 378.5 221.2 377.3C222 377.4 183.8 354.7 181.4 348.8C181.8 349 177.1 342.1 177.1 342.1L169.4 346.8L160.5 350.1Z" fill="white" stroke="#231F20" stroke-width="0.75" stroke-miterlimit="10"/>
<path d="M238.4 396.9C238.4 396.9 234.2 391 230.4 390" stroke="#231F20" stroke-width="0.75" stroke-miterlimit="10"/>
<path d="M241.6 394.2C241.6 394.2 237.4 388.3 233.6 387.3" stroke="#231F20" stroke-width="0.75" stroke-miterlimit="10"/>
<path d="M243.4 390.5C243.4 390.5 239.2 384.6 235.4 383.6" stroke="#231F20" stroke-width="0.75" stroke-miterlimit="10"/>
<path d="M225.5 266.5C225.5 266.5 229.4 267.7 229.9 266.5C229.7 266.7 229.4 258.7 231.1 256.7" stroke="#231F20" stroke-width="0.75" stroke-miterlimit="10"/>
<path d="M217.9 264.4C217.9 264.4 217.6 267.8 220.2 268.8" stroke="#231F20" stroke-width="0.75" stroke-miterlimit="10"/>
<path d="M235.3 254.7C235.3 254.7 239.2 253.6 241.2 255.9" stroke="#231F20" stroke-width="0.75" stroke-miterlimit="10"/>
<path d="M227.5 251C227.5 251 227.7 249.6 224.5 249" stroke="#231F20" stroke-width="0.75" stroke-miterlimit="10"/>
<path d="M222.1 256.8C222.542 256.8 222.9 256.442 222.9 256C222.9 255.558 222.542 255.2 222.1 255.2C221.658 255.2 221.3 255.558 221.3 256C221.3 256.442 221.658 256.8 222.1 256.8Z" fill="#231F20"/>
<path d="M235.1 261.7C235.542 261.7 235.9 261.342 235.9 260.9C235.9 260.458 235.542 260.1 235.1 260.1C234.658 260.1 234.3 260.458 234.3 260.9C234.3 261.342 234.658 261.7 235.1 261.7Z" fill="#231F20"/>
<path d="M154.9 296.3C154 298 151.8 287.4 153.3 285C155.7 281.2 159.2 282.1 162.1 278.4C164.9 274.9 162.5 272.9 165 268.3C167.1 264.4 170.8 262.2 176.8 258.7C181.6 255.9 184.3 255.2 185.3 252.3C186.2 249.8 184.6 248.9 185.3 246.5C186.5 242.4 192.4 242.4 199.5 238.3C206.2 234.6 205.7 232 210.7 229.2C218 225 226.7 225.1 233.2 227.8C235.5 228.7 240.2 230.6 241 234.7C241.4 236.6 241.1 239.2 239.4 240.6C237.2 242.4 234.7 240.2 231.7 241.7C228.8 243.2 229.3 246.2 227.1 248.6C223.8 252.1 216.8 252.2 212.2 250C209.5 248.8 208.5 247.1 206.8 247.6C204.9 248.2 203.4 251 203.9 253.4C204.5 256.4 208.1 256.6 208.5 259.2C208.9 261.6 205.8 262.5 203.9 266.2C201.3 271.3 204.9 273.7 202.9 279.6C200.9 285.8 195.9 285.9 195.5 290.8C195.1 295.9 200.2 298.7 199 301.2C197.6 304.3 189.9 305.4 184.8 302.5C179.4 299.4 177 291.9 176.9 286.6C176.9 283.8 177.1 284.1 176.3 283.4C172.9 280.3 157.9 290.5 154.9 296.3Z" fill="#50B8E7" stroke="#231F20" stroke-width="0.75" stroke-miterlimit="10"/>
<path d="M234 296C235.6 294.1 234.3 291.8 236.7 288.2C238.3 285.9 240.6 284.5 241.4 283.8C246.3 279.6 247 279.5 247.6 278.2C248.9 275.5 247 272 245 267.8C243.3 264.3 242.4 263.9 242.5 262.2C242.7 259.5 245.2 259.2 247.7 255.2C248.5 254 250.6 250.7 250.3 246.5C250.2 245.7 250.1 239.5 246.4 238.2C244.6 237.6 242.1 238.2 240.9 239.9C239.7 241.7 242.3 243.7 242.7 247.2C243 250.3 241.5 251.7 239.4 256.3C235.3 264.9 237.2 267.1 233 274.2C229.9 279.3 227.7 280.2 226.9 280.5C223.1 281.9 220.5 277.9 217.3 279C214 280.2 211.9 286 213.2 290.2C215.8 298.4 230.5 300.2 234 296Z" fill="#50B8E7" stroke="#231F20" stroke-width="0.75" stroke-miterlimit="10"/>
<path d="M327 190.4L345.9 183.7" stroke="#231F20" stroke-width="0.5" stroke-miterlimit="10"/>
<path d="M324.8 197.4L363.4 183.7" stroke="#231F20" stroke-width="0.5" stroke-miterlimit="10"/>
<path d="M553.4 263.2L595.7 247.9" stroke="#231F20" stroke-width="0.5" stroke-miterlimit="10"/>
<path d="M563.6 265.6L602.1 251.9" stroke="#231F20" stroke-width="0.5" stroke-miterlimit="10"/>
<path d="M578.9 265.9L604 256.9" stroke="#231F20" stroke-width="0.5" stroke-miterlimit="10"/>
<path d="M319.9 205.4L380 184.3" stroke="#231F20" stroke-width="0.5" stroke-miterlimit="10"/>
<path d="M533 263.2L593 242.1" stroke="#231F20" stroke-width="0.5" stroke-miterlimit="10"/>
<path d="M316.6 213.2L399.2 184.3" stroke="#231F20" stroke-width="0.5" stroke-miterlimit="10"/>
<path d="M508.5 263.9L591.2 235" stroke="#231F20" stroke-width="0.5" stroke-miterlimit="10"/>
<path d="M313.3 221L421.5 184.6" stroke="#231F20" stroke-width="0.5" stroke-miterlimit="10"/>
<path d="M480.4 265.4L588.6 229.1" stroke="#231F20" stroke-width="0.5" stroke-miterlimit="10"/>
<path d="M309.9 228.7L447.4 183.5" stroke="#231F20" stroke-width="0.5" stroke-miterlimit="10"/>
<path d="M450.4 266.2L587.8 221" stroke="#231F20" stroke-width="0.5" stroke-miterlimit="10"/>
<path d="M306.6 236.5L468.9 185" stroke="#231F20" stroke-width="0.5" stroke-miterlimit="10"/>
<path d="M412.9 263.2L575.2 211.7" stroke="#231F20" stroke-width="0.5" stroke-miterlimit="10"/>
<path d="M423.3 266.5L585.6 215" stroke="#231F20" stroke-width="0.5" stroke-miterlimit="10"/>
<path d="M303.3 244.3L498.9 183.9" stroke="#231F20" stroke-width="0.5" stroke-miterlimit="10"/>
<path d="M381.1 264.7L576.7 204.3" stroke="#231F20" stroke-width="0.5" stroke-miterlimit="10"/>
<path d="M299.9 252.1L522.2 184.6" stroke="#231F20" stroke-width="0.5" stroke-miterlimit="10"/>
<path d="M353.7 263.9L576 196.5" stroke="#231F20" stroke-width="0.5" stroke-miterlimit="10"/>
<path d="M296.6 259.9L543.4 184.6" stroke="#231F20" stroke-width="0.5" stroke-miterlimit="10"/>
<path d="M311 263.2L557.8 188" stroke="#231F20" stroke-width="0.5" stroke-miterlimit="10"/>
<path d="M328.1 264.7L574.9 189.5" stroke="#231F20" stroke-width="0.5" stroke-miterlimit="10"/>
<path d="M422.4 430.8L427.8 437.7" stroke="#231F20" stroke-width="0.5" stroke-miterlimit="10"/>
<path d="M423 427.3L428.4 434.2" stroke="#231F20" stroke-width="0.5" stroke-miterlimit="10"/>
<path d="M423.6 422.9L429 429.8" stroke="#231F20" stroke-width="0.5" stroke-miterlimit="10"/>
<path d="M424.2 419L429.6 426" stroke="#231F20" stroke-width="0.5" stroke-miterlimit="10"/>
<path d="M424.7 415.2L430.9 423.3" stroke="#231F20" stroke-width="0.5" stroke-miterlimit="10"/>
<path d="M426 412L432.2 420.2" stroke="#231F20" stroke-width="0.5" stroke-miterlimit="10"/>
<path d="M427 408.6L433.9 416.8" stroke="#231F20" stroke-width="0.5" stroke-miterlimit="10"/>
<path d="M428.1 404.3L436 414" stroke="#231F20" stroke-width="0.5" stroke-miterlimit="10"/>
<path d="M430 401.1L437.9 410.8" stroke="#231F20" stroke-width="0.5" stroke-miterlimit="10"/>
<path d="M432.1 397.5L439.9 407.2" stroke="#231F20" stroke-width="0.5" stroke-miterlimit="10"/>
<path d="M433.8 393.8L441.7 403.5" stroke="#231F20" stroke-width="0.5" stroke-miterlimit="10"/>
<path d="M436.6 390.9L444.5 400.5" stroke="#231F20" stroke-width="0.5" stroke-miterlimit="10"/>
<path d="M439.3 387.8L447.2 397.4" stroke="#231F20" stroke-width="0.5" stroke-miterlimit="10"/>
<path d="M441.9 384.8L449.8 394.5" stroke="#231F20" stroke-width="0.5" stroke-miterlimit="10"/>
<path d="M445 381.9L453.5 391.7" stroke="#231F20" stroke-width="0.5" stroke-miterlimit="10"/>
<path d="M447.8 378.9L457.1 390" stroke="#231F20" stroke-width="0.5" stroke-miterlimit="10"/>
<path d="M450.6 376.6L459.9 387.6" stroke="#231F20" stroke-width="0.5" stroke-miterlimit="10"/>
<path d="M454 373.9L464 386.1" stroke="#231F20" stroke-width="0.5" stroke-miterlimit="10"/>
<path d="M457.1 370.9L468.4 384.8" stroke="#231F20" stroke-width="0.5" stroke-miterlimit="10"/>
<path d="M459.5 367.2L472.8 383.7" stroke="#231F20" stroke-width="0.5" stroke-miterlimit="10"/>
<path d="M461.8 363.3L477.7 382.7" stroke="#231F20" stroke-width="0.5" stroke-miterlimit="10"/>
<path d="M465.4 360.5L483.7 382.4" stroke="#231F20" stroke-width="0.5" stroke-miterlimit="10"/>
<path d="M469 357.5L489.8 382.2" stroke="#231F20" stroke-width="0.5" stroke-miterlimit="10"/>
<path d="M474.9 356.1L496.6 382.5" stroke="#231F20" stroke-width="0.5" stroke-miterlimit="10"/>
<path d="M486 362.6L502.9 383.3" stroke="#231F20" stroke-width="0.5" stroke-miterlimit="10"/>
<path d="M493.5 365.4L505.2 381.3" stroke="#231F20" stroke-width="0.5" stroke-miterlimit="10"/>
<path d="M217.4 221.9C217.4 221.9 235.9 217.7 241.3 221.9" stroke="#231F20" stroke-width="0.75" stroke-miterlimit="10"/>
<path d="M220.8 215.9C220.8 215.9 230.7 213.8 235.7 215.9" stroke="#231F20" stroke-width="0.75" stroke-miterlimit="10"/>
<path d="M274.5 549.2V535.7H288.5C288.8 540.9 289.3 550.8 288.5 549.2C287.7 547.6 278.9 548.5 274.5 549.2Z" fill="white" stroke="black" stroke-width="0.75" stroke-linecap="round" stroke-linejoin="round"/>
<path d="M311 550.2V536.7H325C325.3 541.9 325.8 551.8 325 550.2C324.2 548.6 315.4 549.5 311 550.2Z" fill="white" stroke="black" stroke-width="0.75" stroke-linecap="round" stroke-linejoin="round"/>
<path d="M268.6 538.7C261 536.7 271.8 448.5 278.1 404.7C278.1 401.9 280.4 399.5 281.6 398.7L322.1 408.2C324.1 400.2 328.5 386 328.5 385.1C328.5 383.6 332 385.1 333.5 386.6L328.1 408.2L345.1 412.2L341.6 428.2C340.3 436.5 337.8 454.4 338.6 459.2C339.6 465.2 333.5 535.7 333 538.7C332.5 541.7 309.1 543.2 305.1 538.7C301.9 535.1 301.1 517.9 301.1 509.7C299.8 515.5 296.9 528.5 296.1 533.7C295.1 540.2 278.1 541.2 268.6 538.7Z" fill="white" stroke="black" stroke-width="0.75" stroke-linecap="round" stroke-linejoin="round"/>
<path d="M303.5 374.6C292.3 369.4 299.9 349.8 305.5 341.7C312 334.2 315.5 338.7 317 338.7C318.5 338.7 319.5 339.2 320 345.7C320.4 350.9 324.7 345.4 326 342.7C325.5 344 323.4 348.1 325 351.7C329 355.7 328 355.2 328 358.2C328 361.2 332.5 359.2 332.5 358.2C332.5 357.2 334 357.1 334 362.6C334 367 329 366.8 326.5 366.1C326 369.3 324.6 376.7 323 381.1C321 386.6 304 386.6 306.1 385.1C307.8 383.9 306.8 378.3 306.1 375.6C305.2 375.4 304.4 375 303.5 374.6Z" fill="white"/>
<path d="M320 373.6C317.5 375 311.8 377.1 306.1 375.6M306.1 375.6C305.2 375.4 304.3 375 303.5 374.6C292.3 369.4 299.9 349.8 305.5 341.7C312 334.2 315.5 338.7 317 338.7C318.5 338.7 319.5 339.2 320 345.7C320.4 350.9 324.7 345.4 326 342.7C325.5 344 323.4 348.1 325 351.7C329 355.7 328 355.2 328 358.2C328 361.2 332.5 359.2 332.5 358.2C332.5 357.2 334 357.1 334 362.6C334 367 329 366.8 326.5 366.1C326 369.3 324.6 376.7 323 381.1C321 386.6 304 386.6 306.1 385.1C307.8 383.9 306.8 378.3 306.1 375.6Z" stroke="black" stroke-width="0.75"/>
<path d="M318 357.7C318.552 357.7 319 357.252 319 356.7C319 356.148 318.552 355.7 318 355.7C317.448 355.7 317 356.148 317 356.7C317 357.252 317.448 357.7 318 357.7Z" fill="black"/>
<path d="M307 351.7C307.552 351.7 308 351.252 308 350.7C308 350.148 307.552 349.7 307 349.7C306.448 349.7 306 350.148 306 350.7C306 351.252 306.448 351.7 307 351.7Z" fill="black"/>
<path d="M307 347.7C307.5 347.4 308.7 347.2 309.5 349.2M318.5 354.4C319.2 354.1 320.6 353.9 321 355.9M310.5 365.2C311 366.7 313.9 367.8 315.1 364.2M309.1 361.4C307.9 360.9 306 359.5 307.6 357.9C309.2 356.3 311.9 354.2 313.1 353.4" stroke="black" stroke-width="0.75" stroke-linecap="round" stroke-linejoin="round"/>
<path d="M312.7 340.6C311.1 343.4 307.7 343.1 306.2 342.6C308.2 344.6 304 349.4 301.7 351.6C294.7 355.6 295.2 349.1 295.2 348.6C295.2 348.1 299.2 345.1 294.7 341.6C290.2 338.1 295.7 331.6 301.7 332.1C306.5 332.5 310.4 330.9 311.7 330.1C346.7 318.6 348.7 350.6 347.7 356.1C354.7 368.6 345.7 368.1 340.7 370.6C340.7 374.6 335.7 374.6 331.2 373.6C330.4 375.6 326.9 374.8 325.2 374.1C325.4 373.1 325.9 370 326.7 365.6C332.3 367.2 333.7 364.3 333.7 362.6C333.5 361.3 332.4 358.9 329.2 360.1C325.2 361.6 326.7 357.6 327.2 355.1C322.4 354.3 324.7 347.6 324.7 344.6C324.2 346.1 324 349 320.7 348.6C316.7 348.1 319.2 339.1 318.7 340.1C318.2 341.1 315.2 341.6 312.7 340.6Z" fill="#50B8E7" stroke="black" stroke-width="0.75" stroke-linecap="round" stroke-linejoin="round"/>
<path d="M291 565.3C290.8 562 292.4 555 300 553.8C300.5 553.5 301 553.2 301.5 552.9C302.4 552.4 303.2 551.9 304 551.4C305 550.8 305.8 550.3 306.5 549.9C307.3 549.4 308 548.9 308.5 548.6C309 548.2 309.4 548 309.5 547.8C310 547.3 325.5 548.8 327 547.8C328.5 546.8 330 564.8 328.5 565.3C327.7 565.6 316.1 565.6 305 565.5C299.9 565.4 294.8 565.3 291 565.3Z" fill="#BEE8FF"/>
<path d="M300 553.8C292.4 555 290.8 562 291 565.3C294.8 565.4 299.8 565.4 305 565.5M300 553.8C300.5 553.5 301 553.2 301.5 552.9M300 553.8C301.8 555.7 305.4 560.8 305 565.5M301.5 552.9C302.3 553.4 304 554.6 304 555.8M301.5 552.9C302.4 552.4 303.2 551.9 304 551.4M304 551.4C305 552 306.9 553.5 306.5 554.3M304 551.4C305 550.8 305.8 550.3 306.5 549.9M306.5 549.8C307.5 550.5 309.5 552.1 309.3 552.8M306.5 549.8C307.3 549.3 308 548.8 308.5 548.5M308.5 548.5C309 548.1 309.4 547.9 309.5 547.7C310 547.2 325.5 548.7 327 547.7C328.5 546.7 330 564.7 328.5 565.2C327.7 565.5 316.1 565.5 305 565.4M308.5 548.5C309.5 549 311.5 550.2 311.5 551.4" stroke="black" stroke-width="0.75" stroke-linecap="round" stroke-linejoin="round"/>
<path d="M256 562.5C255.9 559.5 257.2 553.3 264 552.2C264.5 551.9 264.9 551.7 265.3 551.4C266.1 550.9 266.9 550.5 267.5 550.1C268.4 549.6 269.1 549.1 269.7 548.7C270.5 548.2 271 547.8 271.5 547.5C272 547.2 272.3 546.9 272.4 546.8C272.8 546.4 286.7 547.7 288 546.8C289.3 545.9 290.7 562.1 289.3 562.5C288.6 562.7 278.2 562.7 268.3 562.6C263.9 562.6 259.4 562.5 256 562.5Z" fill="#BEE8FF"/>
<path d="M264.1 552.1C257.3 553.2 255.9 559.4 256.1 562.4C259.5 562.4 264 562.5 268.6 562.5M264.1 552.1C264.6 551.8 265 551.6 265.4 551.3M264.1 552.1C265.7 553.8 268.9 558.4 268.6 562.6M265.4 551.4C266.1 551.8 267.6 552.9 267.6 554M265.4 551.4C266.2 550.9 267 550.5 267.6 550.1M267.6 550C268.5 550.6 270.2 551.9 269.8 552.6M267.6 550C268.5 549.5 269.2 549 269.8 548.6M269.8 548.6C270.7 549.2 272.4 550.7 272.3 551.3M269.8 548.6C270.6 548.1 271.1 547.7 271.6 547.4M271.6 547.4C272.1 547.1 272.4 546.8 272.5 546.7C272.9 546.3 286.8 547.6 288.1 546.7C289.4 545.8 290.8 562 289.4 562.4C288.7 562.6 278.3 562.6 268.4 562.5M271.6 547.4C272.5 547.8 274.3 548.9 274.3 550" stroke="black" stroke-width="0.75" stroke-linecap="round" stroke-linejoin="round"/>
<path d="M255.7 451.4L249.3 393.9L308.8 387L315.7 445L255.7 451.4Z" fill="#E8F4FA" stroke="black" stroke-width="0.75"/>
<path d="M275 353.6C273.8 352 272.8 352.9 272.5 353.6L244 395.1L312 387.1C300.4 376.6 276.6 355.2 275 353.6Z" fill="#E8F4FA" stroke="black" stroke-width="0.75" stroke-linecap="round" stroke-linejoin="round"/>
<path d="M271.5 369.6C269 370.2 268.8 370.1 269 371.6C269.3 374.3 269.5 379.2 270 381.1C270.3 382.3 271.7 382.3 272.5 382.1C274.7 381.8 279.4 381.4 281 381.1C283 380.7 283 380.1 283 379.6C282.7 376.8 281.9 370.8 281.5 369.6C281.1 368.4 280.7 368.4 279 368.6C277.4 368.7 273.5 369.1 271.5 369.6Z" fill="white" stroke="black" stroke-width="0.75" stroke-linecap="round" stroke-linejoin="round"/>
<path d="M293.6 396.8C291.1 397.4 290.9 397.3 291.1 398.8C291.4 401.5 291.6 406.4 292.1 408.3C292.4 409.5 293.8 409.5 294.6 409.3C296.8 409 301.5 408.6 303.1 408.3C305.1 407.9 305.1 407.3 305.1 406.8C304.8 404 304 398 303.6 396.8C303.2 395.6 302.8 395.6 301.1 395.8C299.4 395.9 295.6 396.3 293.6 396.8Z" fill="white" stroke="black" stroke-width="0.75" stroke-linecap="round" stroke-linejoin="round"/>
<path d="M278 448.7C276.2 436.9 273.1 412.4 274.3 412C275.8 411.5 286.8 410 287.3 411C287.7 411.8 290.7 435.7 292 447.2" stroke="black" stroke-width="0.75" stroke-linecap="round" stroke-linejoin="round"/>
<path d="M345.4 391.7C357.4 394.2 348.4 436.2 332.4 437.2C331.3 437 330.1 436.7 328.9 436.2C325.2 441.4 316.1 450.3 308.9 444.7C302.1 439.4 283 423.7 272.8 415.2C271.6 414.2 270.7 412.9 270.3 411.4C269.2 407.4 268.3 402.2 270.3 402.2C270.8 402.2 271.1 402.1 271.3 402.2C271.3 401 271.9 398.8 273.5 399.2C274.1 399.4 274.1 399.3 274.3 399.7C274.3 397.8 276 395.2 278 397.2C278 397.6 277.9 398 277.9 398.6C278.3 397.5 279.6 395.8 281 397.7C281.5 401.2 284.5 406.7 286.5 406.7C288.5 406.7 285.2 401.3 287.5 400.7C289.8 400.1 288.5 406.2 291.5 410.2C293.9 413.4 306.8 421.2 313 424.7C311 422.2 314 418.7 316.5 418.2C319 417.7 318.5 416.7 320.5 412.2C325.2 398.6 339 392.8 345.4 391.7Z" fill="white"/>
<path d="M322.9 380.7C329.2 384.4 342.7 391.1 345.4 391.7M345.4 391.7C357.4 394.2 348.4 436.2 332.4 437.2C331.3 437 330.1 436.7 328.9 436.2M345.4 391.7C339.1 392.9 325.2 398.6 320.4 412.2C318.4 416.7 318.9 417.7 316.4 418.2C313.9 418.7 310.9 422.2 312.9 424.7M312.9 424.7C314.6 426.8 322.3 433.5 328.9 436.2M312.9 424.7C306.7 421.2 293.8 413.4 291.4 410.2C288.4 406.2 289.7 400.1 287.4 400.7C285.1 401.3 288.4 406.7 286.4 406.7C284.4 406.7 281.4 401.2 280.9 397.7C279.5 395.8 278.2 397.5 277.8 398.6M328.9 436.2C325.2 441.4 316.1 450.3 308.9 444.7C302.1 439.4 283 423.7 272.8 415.2C271.6 414.2 270.7 412.9 270.3 411.4C269.2 407.4 268.3 402.2 270.3 402.2C270.8 402.2 271.1 402.1 271.3 402.2M273.4 409.2C273.1 408.5 272.3 407 271.9 406.2C271.1 403.7 272.4 402.5 271.2 402.2M271.2 402.2C271.2 401 271.8 398.8 273.4 399.2C274 399.4 274 399.3 274.2 399.7M276.9 408.2C275.4 406.7 274.7 402.7 274.7 402.3C274.7 402 274.7 400.5 274.2 399.7M274.2 399.7C274.2 397.8 275.9 395.2 277.9 397.2C277.9 397.6 277.8 398 277.8 398.6M279.7 405.7C279.5 405.4 279.2 404.7 278.7 403.2C278.3 402 277.8 400.2 277.8 398.6" stroke="black" stroke-width="0.75" stroke-linecap="round" stroke-linejoin="round"/>
<path d="M270 530.2L334 445.7" stroke="black" stroke-width="0.25" stroke-linecap="round" stroke-linejoin="round"/>
<path d="M300 500.7L337 451.7" stroke="black" stroke-width="0.25" stroke-linecap="round" stroke-linejoin="round"/>
<path d="M269 521.7L330 440.7" stroke="black" stroke-width="0.25" stroke-linecap="round" stroke-linejoin="round"/>
<path d="M269 509.7L314 448.7" stroke="black" stroke-width="0.25" stroke-linecap="round" stroke-linejoin="round"/>
<path d="M270 497.2L305 448.7" stroke="black" stroke-width="0.25" stroke-linecap="round" stroke-linejoin="round"/>
<path d="M303.5 508.2L336 464.7" stroke="black" stroke-width="0.25" stroke-linecap="round" stroke-linejoin="round"/>
<path d="M304 522.2L336.5 478.7" stroke="black" stroke-width="0.25" stroke-linecap="round" stroke-linejoin="round"/>
<path d="M305.5 531.7L335.5 493.7" stroke="black" stroke-width="0.25" stroke-linecap="round" stroke-linejoin="round"/>
<path d="M315 531.7L333 509.7" stroke="black" stroke-width="0.25" stroke-linecap="round" stroke-linejoin="round"/>
<path d="M272 536.4L289 513.6" stroke="black" stroke-width="0.25" stroke-linecap="round" stroke-linejoin="round"/>
<path d="M240.4 79.2L282.1 48.8L332.2 60L336 93.5L338.4 112.3L336.3 114.4C336.3 114.4 339.1 125.1 322.2 138.8C322.3 138.8 307.1 151.1 307.1 151.1L303.5 154.5C303.5 154.5 300 158.2 300 160.1H299.5C299.5 160.1 296.4 155.8 291.3 154.3L281 150.1L272.9 147L266.1 142.7L260.3 137.1C260.3 137.1 251.3 129.4 246 106C246 105.7 240 82.9 240.4 79.2Z" fill="white"/>
<path d="M454.7 89.3L464.5 177.4L493.9 181.1L505 151.6L490.3 75.1C490.3 75.1 482 71.7 479.1 63.5C479 63.5 461.8 73 461.8 73C461.8 73 463.1 76.7 457.7 83.5C457.6 83.5 454.7 89.3 454.7 89.3Z" fill="#E8F4FA"/>
<path d="M475.4 32C476.1 32.2 476.7 32.6999 477.2 33.2999C477.6 33.8999 477.9 34.7 477.9 35.4C477.9 38.7 476.2 40.2 475 40.9C474.7 41.1 474.4 41.4 474.3 41.7L480.6 66L462.1 74.6L459.9 67.5C451.9 69.8 447 65.6 444.3 61.9C442.8 59.9 441.8 57.6 441.2 55.2L436.5 38.4C436.5 38.4 430.6 39.2 431.1 33C431 32.9 431.5 37 427.9 37C426.4 37 425.1 36.2999 424.2 35.0999C422.9 33.2999 421.5 30.3 424.9 27.8C424.7 27.6 421.9 24.7 425.8 22.7C426.1 22.7 419 13.9 433.3 12.3C433.3 12.1 432.1 3.59995 443.5 3.79995C443.7 3.99995 454 -4.50005 461.7 5.99995C462 5.79995 467.8 3.59995 469.5 9.19995C469.7 8.99995 477.3 7.69995 479.2 17.2C479.2 17.2 486.2 23.5 480.7 29.1C480.9 29.1 478.9 31 475.4 32Z" fill="white"/>
<path d="M336.7 117.1C337.9 116.7 343.2 120.3 345.7 122.1C345.3 120.9 350.9 109.9 353.7 104.6C350.7 101.3 345 93.8001 343.7 92.6001C341.8 90.9001 334.7 89.6001 333.7 89.6001C332.7 89.6001 326.7 86.1001 324.7 87.1001C322.7 88.1001 329.7 95.1001 334.2 98.1001C337.2 103.1 335.2 117.6 336.7 117.1Z" fill="white" stroke="black" stroke-width="0.5" stroke-linecap="round" stroke-linejoin="round"/>
<path d="M566.8 153C567.4 160.1 566.7 174.7 559.3 176.6M571.4 158.7C571.8 162 571.9 169.3 569.1 172.5M395.3 162.2C400.9 165.8 413.9 170.3 421.8 158.7M402.2 169.1C405.1 171.4 413 174.6 421.8 169.1" stroke="black" stroke-width="0.4" stroke-linecap="round"/>
<path d="M237.7 68C242 96.8 248 116.9 250.5 123.3C253.2 131.2 262.4 143.9 277.6 148.9C294.7 154.3 299.5 159 299.7 160.7" stroke="black" stroke-width="0.5" stroke-linecap="round"/>
<path d="M240.4 81.4L237.8 68C279.9 54.6 281.3 37.9 281.3 37.9C281.2 37.3 295.6 58.8 331.1 54.9L333 67.8C312.7 72.8 284.3 58.6 284.3 58.6C284.3 58.6 259.8 79.2 240.4 81.4Z" fill="#50B8E7" stroke="#231F20" stroke-width="0.75" stroke-miterlimit="10"/>
<path d="M309.7 87.6L299.5 85.2L295.2 98.3L290.9 111.4L276.4 107L273.7 115.3L295.8 122.6L309.7 87.6Z" fill="#50B8E7" stroke="#231F20" stroke-width="0.75" stroke-miterlimit="10"/>
<path d="M444.1 186.5C446.3 185 460.3 182.8 468.1 182C467.7 182.4 473.3 193.2 476.1 198.5C474.8 198.8 471.9 199.9 471.1 201.5C470.1 203.5 461.6 205.5 458.6 205.5C455.6 205.5 453.1 209 448.6 211.5C445 213.5 444.7 210.3 445 208.5C444.6 208.7 444.3 208.9 444.1 209C439.3 210.2 439.3 207.1 440 205.4C439.7 205.6 439.4 205.8 439.1 206C435.1 207.6 435.3 204.2 435.9 202.3C435.6 202.4 435.3 202.5 435.1 202.5C429.6 199.5 442.4 187.7 444.1 186.5Z" fill="white"/>
<path d="M448.6 193C447.4 193 440.1 199 436.6 202C436.4 202.1 436.2 202.2 435.9 202.3M435.9 202.3C435.6 202.4 435.3 202.5 435.1 202.5C429.6 199.5 442.4 187.7 444.1 186.5C446.3 185 460.3 182.8 468.1 182C467.7 182.4 473.3 193.2 476.1 198.5C474.8 198.8 471.9 199.9 471.1 201.5C470.1 203.5 461.6 205.5 458.6 205.5C455.6 205.5 453.1 209 448.6 211.5C445 213.5 444.7 210.3 445 208.5M435.9 202.3C435.3 204.2 435.1 207.6 439.1 206C439.4 205.8 439.7 205.6 440 205.4M451.6 197C450.2 197 444 202.6 440 205.4M440 205.4C439.4 207.1 439.3 210.2 444.1 209C444.3 208.9 444.6 208.7 445 208.5M455.1 202C452.5 203.7 447.4 207.1 445 208.5M332.8 67.5L335.3 89.5M336.3 116.9C336.1 136.2 301.7 149.7 299.8 160.5" stroke="black" stroke-width="0.5" stroke-linecap="round"/>
<path d="M469.1 33.3C469.2 33.4 469.3 33.5 469.4 33.6C469.5 33.7 469.7 33.7 469.8 33.8C470 33.8 470.1 33.8 470.3 33.8C470.4 33.8 470.6 33.7 470.7 33.6C472.5 31.9 474 31.7 475.2 32.1C475.9 32.3 476.5 32.8 477 33.4C477.4 34 477.7 34.8 477.7 35.5C477.7 38.8 476 40.3 474.8 41C474.5 41.2 474.2 41.5 474.1 41.8L480.4 66.1L461.9 74.7L459.7 67.6C451.7 69.9 446.8 65.7 444.1 62C442.6 60 441.6 57.7 441 55.3L436.3 38.5" stroke="black" stroke-width="0.5"/>
<path d="M459.2 34.5C457.7 34.3 456.9 35 456.5 35.4C456.4 35.5 456.4 35.6 456.4 35.6C456.4 35.7 456.4 35.8 456.5 35.8C456.6 35.9 456.7 35.9 456.7 35.9C456.8 35.9 456.9 35.9 456.9 35.8C457.2 35.5 457.8 35 459 35.1C459.1 35.1 459.2 35.1 459.2 35C459.3 34.9 459.3 34.9 459.3 34.8V34.7C459.3 34.7 459.3 34.6 459.2 34.6V34.5C459.3 34.5 459.3 34.5 459.2 34.5Z" fill="white"/>
<path d="M473.9 25.5C474.7 26.3 476.7 27.8 478.3 27.3M471.1 13.5C472.9 14.6 476.1 18.3 474.7 24M472.8 11.2C475.1 12.9 479.1 18.1 476.5 24.8M464.5 23.1C464.5 24 464.1 26 462.2 26.5M463.4 27.4C465.4 26.8 469 24.5 467.6 20.6M468.4 16.3C470.1 18.7 472 24.4 465.6 28.1M449.6 20.1C449.8 21.2 450.4 23.4 451.8 23.2M447.4 19.4C447.6 21.2 448.6 25 451.4 25.4M465.3 7.10003C464.5 9.50003 463.8 15 467.5 17.5M463 8.10003C462.2 10.6 461.5 16.1 464.8 17.9M459.6 10.7C459.4 12.7 459.8 17.2 462.6 19.2M457.5 22.1C457.4 23.1 457 25.1 455.8 24.8M459.3 20.4C459.4 22.5 459.1 26.6 457.4 26.5M458 14.1C456.6 14.9 454.2 17.6 455.7 22M455 12.4C453.7 14.2 451.5 18.4 453.5 20.9M446.8 8.40003C448.6 7.60003 453.1 6.70003 456.4 10.1M447.2 6.00003C449.4 5.20003 454.5 4.60003 457.6 8.30003M447 5.00003C448.6 3.50003 453.2 1.80003 458.7 7.10003M446.9 13.6C447.1 12 448.8 9.10003 453.8 10.9M451 18.2C450.4 16.7 449.9 13.3 452.2 12.2M448.9 13C448.2 13.9 447 16 447.5 17.4M444.8 16C443.8 14.4 442.5 10.5 445.6 7.60003M439.3 10.9C438.7 9.40003 438.2 6.20003 440.6 5.50003M442.9 7.60003C441.8 9.70003 440.3 14.6 442.9 17.3M437.2 13.3C436.3 12.7 434.8 11.1 435.9 9.00003M439.5 15C437.8 16.1 435.3 19.6 438.6 25.2M436.4 14.8C434.7 16.4 432.2 21.2 435.8 27M430.9 17.7C430 18.1 428.7 19.2 430.3 20.9M428.8 17C427.9 17.8 426.6 19.9 428.8 21.8M429.4 14.5C427 15.5 423.4 18.6 427.8 22.7M433.2 15.3C431.9 17.8 430.1 23.9 433.5 28.4M439.7 28.1C440.8 27.7 443 26.6 443.1 25.2M439.3 29.9C441.2 29.6 445.1 28.2 445.1 24.9M439.5 31.3C439.8 30.9 445.4 31.8 446.7 26.4M435.1 32.3C435 33.1 434.3 34.8 432.4 34.8M437.5 31.6C437.6 32.9 436.8 35.6 433.4 36.7M428.9 25.2C429.1 26.8 429.9 30.2 432.2 31.3M440.5 17C440.2 18 439.8 20 440.7 20.4M427.3 25.8C426.6 25.8 425.6 26.3 427 28.3M428.8 31.5C428.1 32.2 427.1 33.8 428.6 35M427.6 30.3C426.4 30.7 424.5 32.1 426.5 34.6" stroke="black" stroke-width="0.5" stroke-linecap="round"/>
<path d="M458.9 56.2C458.2 56.2 457.6 56 457 55.6C456.9 55.5 456.9 55.2 456.9 55.1C457 55 457.2 55 457.4 55C458.1 55.6 459.1 55.6 460.1 55.2C461.2 54.7 462.1 53.8 462.7 52.7C462.8 52.6 463 52.4 463.2 52.6C463.3 52.7 463.5 52.9 463.3 53.1C462.7 54.4 461.6 55.5 460.4 56C459.9 56.1 459.4 56.2 458.9 56.2Z" fill="black"/>
<path d="M452.7 50.5999C452.6 50.5999 452.6 50.5999 452.6 50.5999L451.4 49.9999C451.3 49.8999 450.9 49.7999 450.9 49.3999C450.8 48.9999 451 48.5999 451.1 48.3999C452 46.8999 452.3 44.7999 452 42.9999C451.9 42.7999 452.1 42.5999 452.2 42.4999C452.4 42.3999 452.5 42.5999 452.6 42.6999C453.1 44.6999 452.7 47.0999 451.7 48.7999C451.7 48.8999 451.6 48.9999 451.6 48.9999C451.6 48.9999 451.7 49.0999 451.8 49.0999L453 49.6999C453.2 49.7999 453.3 49.9999 453.2 50.1999C452.9 50.4999 452.8 50.5999 452.7 50.5999Z" fill="black"/>
<path d="M445.3 43.6C445.5 43.9 445.6 44.2 445.6 44.5C445.6 44.8 445.5 45.1 445.4 45.4C445.2 45.6 445 45.8 444.8 45.9C444.5 46 444.2 46 444 45.8C443.7 45.7 443.5 45.5 443.3 45.2C443.1 44.9 443 44.6 443 44.3C443 44 443.1 43.7 443.2 43.5C443.3 43.3 443.6 43.1 443.9 43L444.1 43.5C444.2 43.9 444.8 44.1 445.2 43.8L445.3 43.6Z" fill="black"/>
<path d="M461.2 38.4001C461.4 38.6001 461.5 38.9001 461.5 39.2001C461.5 39.5001 461.5 39.7 461.3 40C461.2 40.2 461 40.4001 460.8 40.4001C460.6 40.5001 460.3 40.4 460.1 40.3C459.9 40.2 459.7 40 459.5 39.8C459.3 39.6 459.3 39.3 459.3 39C459.3 38.7 459.4 38.5001 459.5 38.2001C459.6 38.0001 459.8 37.8 460.1 37.8L460.2 38.2001C460.1 38.6001 460.7 38.8001 461.2 38.4001Z" fill="black"/>
<path d="M488.3 74C500.1 74.8 524 76.6 524.8 77C535.8 75 541.8 90 542.8 91.5C543.8 93 551.3 138 555.3 151.5C559.3 165 548.3 173 547.3 173.5C546.3 174 482.3 204 477.3 201.5C473.6 199.7 468.3 188.3 465.4 180.7L448.4 180.8C448.9 178.6 449.6 173.9 448.8 169.5C448 165.1 444.5 136 442.8 122C432.8 137.2 410.7 165.6 402.3 158C391.8 148.5 342.3 131 343.3 123.5C344.1 117.5 350.6 107 353.8 102.5C370.3 110.8 403.4 127.7 403.8 128.5C404.3 129.5 423.8 97.5 429.3 96C433.7 94.8 450.5 86.5 458.3 82.5C462 103.3 469.2 145.7 468.8 148.5C468.4 151.3 470 167.1 470.8 174.6C477.4 171.6 485.2 168.1 492.8 164.7C488.4 155.7 488 100.4 488.3 74Z" fill="#BEE8FF"/>
<path d="M524.8 77C524 76.6 500.1 74.8 488.3 74C488 100.5 488.4 155.7 492.8 164.7M524.8 77C525.8 77.5 510.8 83.5 514.8 98C518.8 112.5 526.8 148.5 525.8 149.5C525.3 150 509.5 157.2 492.8 164.7M524.8 77C535.8 75 541.8 90 542.8 91.5C543.8 93 551.3 138 555.3 151.5C559.3 165 548.3 173 547.3 173.5C546.3 174 482.3 204 477.3 201.5C473.6 199.7 468 187.1 465.1 179.5M492.8 164.7C485.2 168.1 477.4 171.6 470.8 174.6M470.8 174.6C468.5 175.6 466.3 176.6 464.3 177.5C464.5 178.1 464.8 178.8 465.1 179.5M470.8 174.6C470 167.1 468.4 151.3 468.8 148.5C469.2 145.7 462 103.3 458.3 82.5C450.5 86.5 433.1 93.5 429.3 96C420.7 101.5 404.3 129.5 403.8 128.5C403.4 127.7 370.3 110.8 353.8 102.5C350.6 107 344.1 117.5 343.3 123.5C342.3 131 391.8 148.5 402.3 158C410.7 165.6 432.8 137.2 442.8 122C444.5 136 448 165.1 448.8 169.5C449.6 173.9 448.7 179 448.2 181.2L465.4 180.8" stroke="black" stroke-width="0.5" stroke-linecap="round" stroke-linejoin="round"/>
<path d="M458.5 82.4C458.5 82.4 462.2 77.2 462 74.6L480.5 66C480.5 66 482.8 71.7 488.5 73.9" stroke="black" stroke-width="0.5"/>
<path d="M462.9 74.5999L464.6 85.5999" stroke="black" stroke-width="0.25"/>
<path d="M467.6 72.0999L469.3 83.1999" stroke="black" stroke-width="0.25"/>
<path d="M472.4 69.7L474.1 80.7" stroke="black" stroke-width="0.25"/>
<path d="M477.9 66.8999L479.7 77.9999" stroke="black" stroke-width="0.25"/>
<path d="M465.1 73.3L469.9 100.1" stroke="black" stroke-width="0.25"/>
<path d="M469.9 70.8L474.7 97.6" stroke="black" stroke-width="0.25"/>
<path d="M475.4 68.2L480.2 95" stroke="black" stroke-width="0.25"/>
<path d="M440.6 42.4C440.6 42.4 441.8 39.9 444.6 40" stroke="black" stroke-width="0.5" stroke-linecap="round" stroke-linejoin="round"/>
<path d="M458.2 35.3999C458.2 35.3999 460.4 33.7999 462.9 35.0999" stroke="black" stroke-width="0.5" stroke-linecap="round" stroke-linejoin="round"/>
<path d="M32.5001 170.8L32.6001 170.9H32.7001L53.1001 173L52.4001 180.4C52.3001 180.4 52.1001 180.4 51.8001 180.4C51.3001 180.4 50.5001 180.3 49.6001 180.3C47.7001 180.2 45.2001 180 42.4001 179.7C39.7001 179.4 36.7001 179 34.2001 178.5C31.6001 178 29.4001 177.4 28.0001 176.6C27.3001 176.2 26.7001 175.6 26.0001 174.7C25.3001 173.8 24.7001 172.8 24.1001 171.6C22.8001 169.2 21.7001 166.3 20.7001 163.5C19.7001 160.7 18.9001 158 18.4001 156C18.1001 155 17.9001 154.2 17.8001 153.6C17.7001 153.3 17.7001 153.1 17.6001 152.9L24.0001 151.2L32.5001 170.8Z" fill="#BEE8FF" stroke="black" stroke-width="0.75"/>
<path d="M63.3 170.2C67 173.5 67.3 179.1 64 182.8C60.7 186.5 55.1 186.8 51.4 183.5C47.7 180.2 47.4 174.6 50.7 170.9C54 167.3 59.6 167 63.3 170.2Z" fill="white" stroke="black" stroke-width="0.75"/>
<path d="M57.3999 186C55.2999 186 53.1999 185.3 51.5999 183.9C49.9999 182.6 48.7999 180.7 48.3999 178.6C47.9999 176.5 48.2999 174.4 49.2999 172.5C50.2999 170.6 51.8999 169.2 53.8999 168.4C55.8999 167.6 57.9999 167.5 60.0999 168.1C62.0999 168.7 63.8999 170 65.0999 171.8C66.2999 173.6 66.7999 175.7 66.5999 177.8C66.3999 179.9 65.4999 181.9 63.9999 183.4C63.1999 184.3 62.0999 184.9 60.9999 185.4C59.7999 185.8 58.5999 186 57.3999 186ZM57.3999 167.8C55.2999 167.8 53.1999 168.5 51.5999 169.9C49.9999 171.2 48.7999 173.1 48.3999 175.2C47.9999 177.3 48.2999 179.4 49.2999 181.3C50.2999 183.2 51.8999 184.6 53.8999 185.4C55.7999 186.2 57.9999 186.3 59.9999 185.7C61.9999 185.1 63.7999 183.8 64.8999 182C66.0999 180.2 66.5999 178.1 66.3999 176C66.1999 173.9 65.2999 171.9 63.7999 170.4C62.9999 169.5 61.9999 168.9 60.7999 168.4C59.7999 168 58.5999 167.8 57.3999 167.8Z" fill="#263238"/>
<path d="M35.7001 170.2C36.6001 173.8 34.4001 177.3 30.8001 178.2C27.2001 179.1 23.7001 176.9 22.8001 173.3C21.9001 169.7 24.1001 166.2 27.7001 165.3C31.2001 164.5 34.8001 166.7 35.7001 170.2Z" fill="white" stroke="black" stroke-width="0.75"/>
<path d="M28.6003 145.4L24.2003 149.1L22.8003 147.5L27.2003 143.8C27.4003 143.6 27.7003 143.6 27.9003 143.6C28.2003 143.6 28.4003 143.7 28.6003 143.9L28.7003 144C28.8003 144.1 28.8003 144.2 28.9003 144.3C28.9003 144.4 29.0003 144.6 28.9003 144.7C28.8003 144.8 28.9003 145 28.8003 145.1C28.8003 145.2 28.7003 145.3 28.6003 145.4Z" fill="white" stroke="black" stroke-width="0.75"/>
<path d="M22.7001 138.4V144.2H20.6001V138.4C20.6001 138.1 20.7001 137.9 20.9001 137.7C21.1001 137.5 21.3001 137.4 21.6001 137.4H21.8001C22.1001 137.4 22.3001 137.5 22.5001 137.7C22.6001 137.9 22.7001 138.2 22.7001 138.4Z" fill="white" stroke="black" stroke-width="0.75"/>
<path d="M18.5999 138.5L19.8999 144.2L17.7999 144.7L16.4999 139C16.3999 138.7 16.4999 138.5 16.5999 138.3C16.6999 138.1 16.9999 137.9 17.1999 137.9H17.3999C17.6999 137.8 17.8999 137.9 18.0999 138C18.2999 138 18.4999 138.3 18.5999 138.5Z" fill="white" stroke="black" stroke-width="0.75"/>
<path d="M14.1001 140L17.0001 145L15.2001 146.1L12.3001 141.1C12.2001 140.9 12.1001 140.6 12.2001 140.4C12.3001 140.2 12.4001 139.9 12.7001 139.8L12.9001 139.7C13.1001 139.6 13.4001 139.5 13.6001 139.6C13.8001 139.6 14.0001 139.8 14.1001 140Z" fill="white" stroke="black" stroke-width="0.75"/>
<path d="M148.7 221.4L142.9 223.8L125.3 182.4L131.1 180L148.7 221.4Z" fill="#BEE8FF" stroke="black" stroke-width="0.75"/>
<path d="M130.8 171C134.6 174.2 135 179.8 131.8 183.6C128.6 187.4 123 187.8 119.2 184.6C115.4 181.4 115 175.8 118.2 172C121.5 168.3 127.1 167.8 130.8 171Z" fill="white" stroke="black" stroke-width="0.75"/>
<path d="M125.1 187C123.7 187 122.3 186.7 121 186C119.7 185.4 118.6 184.4 117.8 183.3C116.9 182.1 116.4 180.8 116.1 179.4C115.9 178 116 176.5 116.4 175.2C116.9 173.6 117.8 172.1 119.1 171C120.4 169.9 121.9 169.1 123.6 168.9C125.3 168.6 127 168.8 128.5 169.4C130.1 170 131.4 171.1 132.4 172.4C133.4 173.8 134 175.4 134.2 177.1C134.3 178.8 134 180.5 133.3 182C132.5 183.5 131.4 184.8 129.9 185.7C128.4 186.5 126.8 187 125.1 187ZM125.1 168.7C123.4 168.7 121.8 169.2 120.3 170.1C118.9 171 117.7 172.3 116.9 173.8C116.1 175.3 115.8 177 116 178.7C116.1 180.4 116.8 182 117.8 183.4C118.8 184.8 120.2 185.8 121.7 186.4C123.3 187 125 187.2 126.6 186.9C128.3 186.6 129.8 185.9 131.1 184.8C132.4 183.7 133.3 182.2 133.8 180.6C134.5 178.3 134.3 175.8 133.1 173.6C132 171.5 130 169.9 127.7 169.1C126.9 168.8 126 168.7 125.1 168.7Z" fill="#263238"/>
<path d="M138.8 196.9C142.3 197.9 144.4 201.5 143.4 205.1C142.4 208.6 138.8 210.7 135.2 209.7C131.6 208.7 129.6 205.1 130.6 201.5C131.6 198 135.2 195.9 138.8 196.9Z" fill="white" stroke="black" stroke-width="0.75"/>
<path d="M140.5 231.7C140.4 231.6 140.3 231.5 140.2 231.4C140.1 231.3 140.1 231.2 140 231.1C140 231 140 230.8 140 230.7C140 230.6 140.1 230.5 140.1 230.3L139.9 230.2L140.1 230.3L143.1 225.3L144.9 226.4L141.9 231.4C141.8 231.6 141.5 231.8 141.3 231.8C141 231.9 140.8 231.8 140.6 231.7H140.5Z" fill="white" stroke="black" stroke-width="0.75"/>
<path d="M148.2 228.9L150 234.4C150 234.5 150.1 234.6 150 234.8C150 234.9 150 235.1 149.9 235.2C149.8 235.3 149.8 235.4 149.7 235.5C149.6 235.6 149.5 235.6 149.4 235.7L149.2 235.8C149 235.9 148.7 235.9 148.5 235.7C148.3 235.6 148.1 235.4 148 235.2L146.2 229.7L148.2 228.9Z" fill="white" stroke="black" stroke-width="0.75"/>
<path d="M151.9 233.7L148.9 228.7L150.7 227.6L153.7 232.6C153.8 232.8 153.9 233.1 153.8 233.3C153.7 233.5 153.6 233.8 153.4 233.9L153.2 234C153 234.1 152.7 234.2 152.5 234.1C152.3 234.1 152.1 233.9 151.9 233.7Z" fill="white" stroke="black" stroke-width="0.75"/>
<path d="M155.7 230.9L151.3 227L152.7 225.4L157.1 229.3C157.3 229.5 157.4 229.7 157.4 230C157.4 230.3 157.3 230.5 157.2 230.7L157.1 230.8C156.9 231 156.7 231.1 156.4 231.1C156.1 231.2 155.9 231.1 155.7 230.9L155.6 231.1L155.7 230.9Z" fill="white"/>
<path d="M155.7 230.9L151.3 227L152.7 225.4L157.1 229.3C157.3 229.5 157.4 229.7 157.4 230C157.4 230.3 157.3 230.5 157.2 230.7L157.1 230.8C156.9 231 156.7 231.1 156.4 231.1C156.1 231.2 155.9 231.1 155.7 230.9ZM155.7 230.9L155.6 231.1L155.7 230.9Z" stroke="black" stroke-width="0.75"/>
<path d="M128.6 167.4C128.6 167.5 128.6 167.6 128.6 167.6C128.6 167.7 128.6 167.9 128.6 168.2C128.6 168.7 128.5 169.4 128.5 170.4C128.4 172.2 128.2 174.9 127.8 178C127.1 184.2 125.8 192.5 123.4 200.7C121 208.9 117.4 217 112.2 223C107 229 100.3 232.9 91.3003 232.5C82.4003 232.2 75.6003 228 70.6003 221.8C65.5003 215.6 62.1003 207.5 59.7003 199.5C57.4003 191.4 56.2003 183.4 55.5003 177.4C55.2003 174.4 55.0003 171.9 54.9003 170.1C54.9003 169.2 54.8003 168.5 54.8003 168.1C54.8003 167.9 54.8003 167.7 54.8003 167.6C54.8003 167.5 54.8003 167.5 54.8003 167.5C54.8003 167.4 54.9003 167.4 55.0003 167.2C55.2003 167 55.5003 166.6 55.9003 166.2C56.8003 165.4 58.3003 164.3 60.9003 163.2C66.0003 161 75.3003 158.7 91.7003 158.5C108.1 158.3 117.3 160.6 122.5 162.9C125.1 164.1 126.6 165.2 127.5 166.1C127.9 166.5 128.2 166.9 128.4 167.1C128.5 167.2 128.5 167.3 128.6 167.4Z" fill="#BEE8FF" stroke="black" stroke-width="0.75"/>
<path d="M105.3 155.9H74.9C73 155.9 71.5 154.4 71.5 152.5V152C71.5 150.1 73 148.6 74.9 148.6H105.3C107.2 148.6 108.7 150.1 108.7 152V152.5C108.7 154.4 107.2 155.9 105.3 155.9Z" fill="white" stroke="black" stroke-width="0.75"/>
<path d="M91.2 98.8H89V86H91.2V98.8Z" fill="white" stroke="black" stroke-width="0.75"/>
<path d="M135.8 129.3C136.8 133.3 134.3 137.4 130.2 138.3C126.2 139.3 122.1 136.8 121.2 132.7C120.2 128.7 122.7 124.6 126.8 123.7C130.8 122.8 134.8 125.3 135.8 129.3Z" fill="#BEE8FF" stroke="black" stroke-width="0.75"/>
<path d="M57.9 128.9C58.8 132.9 56.3 136.9 52.3 137.9C48.3 138.8 44.3 136.3 43.3 132.3C42.4 128.3 44.9 124.3 48.9 123.3C52.9 122.3 57 124.9 57.9 128.9Z" fill="#BEE8FF" stroke="black" stroke-width="0.75"/>
<path d="M88.5999 96.4C103.6 96 113.6 100.8 119.7 107.5C125.8 114.2 128 122.8 127.6 130.1C127.5 131.7 127.2 133.3 126.8 134.9C125.1 141.6 121.7 145.6 117 147.9C112.2 150.3 106.1 151 98.8999 151.2C92.3999 151.3 84.9999 151.3 81.4999 151.1C81.1999 151.1 80.8999 151.1 80.4999 151C76.2999 150.7 68.5999 150.3 62.2999 147C58.7999 145.2 55.7999 142.6 53.8999 138.8C51.9999 135 51.2999 129.9 52.4999 123.1C54.9999 109.6 63.9999 102.9 72.3999 99.7C76.5999 98.1 80.6999 97.3 83.6999 96.9C85.1999 96.7 86.3999 96.6 87.2999 96.6C87.6999 96.6 88.0999 96.6 88.2999 96.6C88.2999 96.4 88.3999 96.4 88.5999 96.4C88.4999 96.4 88.4999 96.4 88.5999 96.4C88.5999 96.4 88.5999 96.4 88.5999 96.2V96.4ZM81.3999 151.2C84.8999 151.4 92.2999 151.5 98.7999 151.3L81.3999 151.2Z" fill="#BEE8FF"/>
<path d="M88.5999 96.4C103.6 96 113.6 100.8 119.7 107.5C125.8 114.2 128 122.8 127.6 130.1C127.5 131.7 127.2 133.3 126.8 134.9C125.1 141.6 121.7 145.6 117 147.9C112.2 150.3 106.1 151 98.8999 151.2C92.3999 151.3 84.9999 151.3 81.4999 151.1C81.1999 151.1 80.8999 151.1 80.4999 151C76.2999 150.7 68.5999 150.3 62.2999 147C58.7999 145.2 55.7999 142.6 53.8999 138.8C51.9999 135 51.2999 129.9 52.4999 123.1C54.9999 109.6 63.9999 102.9 72.3999 99.7C76.5999 98.1 80.6999 97.3 83.6999 96.9C85.1999 96.7 86.3999 96.6 87.2999 96.6C87.6999 96.6 88.0999 96.6 88.2999 96.6C88.2999 96.4 88.3999 96.4 88.5999 96.4ZM88.5999 96.4C88.4999 96.4 88.4999 96.4 88.5999 96.4ZM88.5999 96.4C88.5999 96.4 88.5999 96.4 88.5999 96.2V96.4ZM81.3999 151.2C84.8999 151.4 92.2999 151.5 98.7999 151.3L81.3999 151.2Z" stroke="black" stroke-width="0.75"/>
<path d="M111.3 137.4L65.7001 138.1C64.6001 138.1 63.5001 137.9 62.5001 137.5C61.5001 137.1 60.5001 136.5 59.7001 135.7C58.9001 134.9 58.3001 134 57.8001 133C57.4001 132 57.1001 130.9 57.1001 129.8C57.1001 128.7 57.3001 127.6 57.7001 126.6C58.1001 125.6 58.7001 124.6 59.5001 123.8C60.3001 123 61.2001 122.4 62.2001 121.9C63.2001 121.5 64.3001 121.2 65.4001 121.2L111 120.5C112.1 120.5 113.2 120.7 114.2 121.1C115.2 121.5 116.2 122.1 117 122.9C117.8 123.7 118.4 124.6 118.9 125.6C119.3 126.6 119.6 127.7 119.6 128.8C119.6 129.9 119.4 131 119 132C118.6 133 118 134 117.2 134.8C116.4 135.6 115.5 136.2 114.5 136.7C113.5 137.1 112.4 137.3 111.3 137.4Z" fill="white" stroke="black" stroke-width="0.75"/>
<path d="M75 128.8C74.9 129.3 74.7 129.8 74.3 130.1C73.9 130.5 73.5 130.7 73 130.8C72.5 130.9 72 130.9 71.5 130.7C71 130.5 70.6 130.2 70.4 129.8C70.1 129.4 70 128.9 70 128.4C70 127.9 70.1 127.4 70.4 127C70.7 126.6 71.1 126.3 71.5 126.1C72 125.9 72.5 125.9 73 126C73.3 126.1 73.6 126.2 73.9 126.4C74.2 126.6 74.4 126.8 74.6 127.1C74.8 127.4 74.9 127.7 75 128C75.1 128.1 75.1 128.5 75 128.8Z" fill="white" stroke="black" stroke-width="0.75"/>
<path d="M106.8 128.3C106.7 128.8 106.5 129.3 106.1 129.6C105.7 130 105.3 130.2 104.8 130.3C104.3 130.4 103.8 130.4 103.3 130.2C102.8 130 102.4 129.7 102.2 129.3C101.9 128.9 101.8 128.4 101.8 127.9C101.8 127.4 101.9 126.9 102.2 126.5C102.5 126.1 102.9 125.8 103.3 125.6C103.8 125.4 104.3 125.4 104.8 125.5C105.5 125.6 106 126 106.4 126.6C106.8 127.2 107 127.6 106.8 128.3Z" fill="white" stroke="black" stroke-width="0.75"/>
<path d="M99.1001 192.6C99.0001 194.4 98.3001 196.1 97.2001 197.5C96.1001 198.9 94.6001 200 92.9001 200.5C91.2001 201.1 89.4001 201.1 87.7001 200.6C86.0001 200.1 84.4001 199.1 83.3001 197.8C82.1001 196.4 81.4001 194.8 81.2001 193C81.0001 191.2 81.3001 189.4 82.1001 187.8C82.9001 186.2 84.2001 184.9 85.7001 184C87.3001 183.1 89.0001 182.7 90.8001 182.8C92.0001 182.9 93.1001 183.2 94.2001 183.7C95.3001 184.2 96.2001 185 97.0001 185.9C97.8001 186.8 98.4001 187.8 98.7001 189C99.0001 190.2 99.2001 191.4 99.1001 192.6Z" fill="white" stroke="black" stroke-width="0.75"/>
<path d="M94.7001 194.2C94.6001 193.7 94.6001 193.2 94.6001 192.7C94.6001 191.8 94.6001 190.4 94.6001 188.8L94.7001 189L90.0001 186.3H90.3001L85.6001 188.9C85.5001 189.1 85.8001 188.6 85.7001 188.7V189.4V190.1C85.7001 190.6 85.7001 191 85.7001 191.5C85.7001 192.4 85.7001 193.3 85.7001 194.1L85.6001 193.9L90.2001 196.7H90.0001C91.4001 195.9 92.6001 195.3 93.4001 194.9C93.8001 194.6 94.3001 194.4 94.7001 194.2C94.3001 194.5 93.9001 194.7 93.5001 195C92.7001 195.5 91.5001 196.2 90.1001 197L90.0001 197.1L89.9001 197L85.2001 194.3L85.1001 194.2V194C85.1001 193.2 85.1001 192.3 85.1001 191.4C85.1001 191 85.1001 190.5 85.1001 190V189.3V188.6C85.1001 188.7 85.4001 188.2 85.2001 188.4L89.9001 185.8L90.0001 185.7L90.1001 185.8L94.7001 188.6L94.8001 188.7V188.8C94.7001 190.5 94.7001 191.9 94.6001 192.8C94.9001 193.3 94.8001 193.8 94.7001 194.2Z" fill="#50B8E7"/>
<path d="M93.1 82.5C94.7 84.1 94.7 86.8001 93.1 88.4001C91.5 90.0001 88.8 90.0001 87.2 88.4001C85.6 86.8001 85.6 84.1 87.2 82.5C88.8 80.9 91.4 80.9 93.1 82.5Z" fill="#BEE8FF" stroke="black" stroke-width="0.3"/>
<path d="M125 140.2C125 140.2 125.5 139.3 126.1 137.8C126.8 135.8 127.2 133.7 127.4 131.6C127.6 129.5 127.6 127.4 127.5 125.2C127.5 124.4 127.4 123.7 127.4 123.2C127.4 123 127.4 122.7 127.4 122.5C127.5 122.7 127.5 123 127.5 123.2C127.6 123.7 127.6 124.3 127.7 125.2C127.9 127.3 127.8 129.5 127.6 131.6C127.4 133.7 127 135.8 126.2 137.9C126 138.5 125.7 139.1 125.4 139.7C125.2 139.8 125.1 140 125 140.2Z" fill="#263238"/>
<path d="M55.7999 122.2C55.7999 122.4 55.6999 122.7 55.5999 122.9C55.4999 123.1 55.4999 123.4 55.3999 123.7C55.2999 124 55.1999 124.4 55.1999 124.8C54.9999 125.7 54.8999 126.7 54.8999 127.7C54.7999 128.9 54.8999 130 54.8999 131.2C54.9999 132.4 55.1999 133.5 55.4999 134.7C55.6999 135.6 55.9999 136.6 56.2999 137.4C56.3999 137.8 56.5999 138.1 56.6999 138.4C56.7999 138.7 56.8999 139 56.9999 139.2C57.0999 139.4 57.1999 139.6 57.2999 139.9C57.1999 139.7 56.9999 139.5 56.8999 139.3C56.7999 139.1 56.5999 138.8 56.4999 138.5C56.3999 138.2 56.1999 137.9 56.0999 137.5C55.6999 136.6 55.3999 135.7 55.1999 134.7C54.8999 133.5 54.6999 132.4 54.5999 131.2C54.4999 130 54.4999 128.8 54.5999 127.7C54.6999 126.7 54.7999 125.8 54.9999 124.8C55.0999 124.4 55.1999 124 55.2999 123.7C55.3999 123.4 55.4999 123.1 55.4999 122.9C55.6999 122.6 55.6999 122.4 55.7999 122.2Z" fill="#263238"/>
<path d="M54.5 167.3L54.7 167.4L55.2 167.6L57.3 168.3L58.8 168.8C59.4 169 60 169.2 60.6 169.4C61.9 169.8 63.4 170.3 65.1 170.7L67.7 171.4C68.6 171.6 69.6 171.8 70.6 172C72.6 172.4 74.7 172.8 77 173.1C81.9 173.8 86.8 174.1 91.7 174.2C96.6 174.2 101.5 173.8 106.4 173.1C108.6 172.7 110.8 172.4 112.8 172C113.8 171.8 114.8 171.6 115.7 171.4L118.3 170.7C120 170.3 121.4 169.8 122.7 169.4C123.3 169.2 124 169 124.5 168.8L126 168.3L128.1 167.6L128.6 167.4C128.7 167.4 128.7 167.4 128.8 167.3L128.6 167.4L128.1 167.6L126 168.4L124.5 169C124 169.2 123.3 169.4 122.7 169.6C121.4 170 119.9 170.5 118.3 170.9L115.7 171.6C114.8 171.8 113.8 172 112.8 172.2C110.8 172.7 108.7 173 106.4 173.3C101.5 174 96.6 174.3 91.7 174.4C86.8 174.4 81.8 174 77 173.3C74.8 172.9 72.6 172.6 70.6 172.2C69.6 172 68.6 171.8 67.7 171.6L65.1 170.9C63.4 170.5 62 170 60.7 169.6C60 169.4 59.4 169.2 58.9 169L57.4 168.4L55.3 167.6L54.8 167.4C54.6 167.4 54.6 167.4 54.5 167.3Z" fill="#263238"/>
<path d="M54.7002 167.4C54.7002 167.4 59.0002 158.6 91.8002 158.2C124.6 157.8 128.9 167.4 128.9 167.4C128.9 167.4 95.7002 183.7 54.7002 167.4Z" fill="#85A2B3" stroke="#231F20" stroke-width="0.75" stroke-miterlimit="10"/>
<path d="M84.6002 98.2H84.5002H84.2002C83.9002 98.2 83.5002 98.2 82.9002 98.3C81.3002 98.5 79.8002 98.7 78.3002 99.1C70.4002 100.9 63.5002 105.5 58.7002 112.1C56.4002 115.3 54.7002 118.8 53.6002 122.5C53.4002 123 53.3002 123.4 53.3002 123.7L53.2002 124V124.1V124C53.2002 123.9 53.2002 123.8 53.3002 123.7C53.4002 123.4 53.4002 123 53.6002 122.5C54.0002 121 54.5002 119.5 55.2002 118.1C57.3002 113.3 60.5002 109.1 64.5002 105.8C68.5002 102.5 73.3002 100.2 78.4002 99C79.9002 98.7 81.5002 98.4 83.1002 98.3C83.7002 98.3 84.1002 98.3 84.4002 98.2H84.7002C84.6002 98.2 84.6002 98.2 84.6002 98.2Z" fill="black"/>
<path d="M45.7003 134.3C45.7003 134.3 45.6003 134.2 45.4003 134C45.2003 133.7 45.0003 133.4 44.8003 133.1C44.3003 132.1 44.1003 130.9 44.2003 129.8C44.3003 128.7 44.8003 127.6 45.6003 126.8C45.8003 126.5 46.1003 126.3 46.4003 126.1C46.5003 126 46.6003 126 46.7003 125.9C46.7003 125.9 46.3003 126.2 45.8003 126.9C45.1003 127.7 44.7003 128.8 44.5003 129.8C44.3003 130.8 44.5003 132 45.0003 133C45.3003 133.9 45.7003 134.3 45.7003 134.3Z" fill="black"/>
<path d="M91.1003 82.9001C90.7003 82.9001 90.3003 82.8001 90.0003 82.9001C89.5003 82.9001 89.1003 83.1001 88.7003 83.3001C88.3003 83.5001 88.0003 83.9001 87.7003 84.2001C87.5003 84.6001 87.3003 85.0001 87.2003 85.5001C87.1003 86.0001 87.2003 86.4001 87.4003 86.8001C87.5003 87.2001 87.7003 87.5001 87.9003 87.8001C87.9003 87.8001 87.8003 87.7001 87.7003 87.6001C87.5003 87.4001 87.4003 87.1001 87.3003 86.8001C87.1003 86.3001 87.0003 85.8001 87.1003 85.4001C87.1003 84.9001 87.3003 84.4001 87.6003 84.0001C87.9003 83.6001 88.2003 83.2001 88.7003 83.0001C89.1003 82.8001 89.6003 82.6001 90.1003 82.6001C90.4003 82.6001 90.7003 82.6001 91.0003 82.7001C91.0003 82.8001 91.1003 82.9001 91.1003 82.9001Z" fill="black"/>
<path d="M133 127.4C132.9 127.5 132.2 126.7 131 126.2C129.9 125.7 128.8 125.5 128.8 125.4C129.6 125.4 130.4 125.6 131.1 126C131.9 126.3 132.5 126.8 133 127.4Z" fill="black"/>
<path d="M46.5003 173.9C45.3003 173.9 44.1003 173.9 42.9003 173.8C41.7003 173.8 40.5003 173.6 39.3003 173.4C40.5003 173.4 41.7003 173.4 42.9003 173.5C44.1003 173.6 45.3003 173.7 46.5003 173.9Z" fill="black"/>
<path d="M26.7002 162.8C26.0002 161.8 25.4002 160.7 24.8002 159.6C24.2002 158.5 23.6002 157.4 23.2002 156.3C23.9002 157.3 24.5002 158.4 25.1002 159.5C25.7002 160.6 26.2002 161.7 26.7002 162.8Z" fill="black"/>
<path d="M84.2 227.4C84 227.4 83.8 227.4 83.6 227.3C83.1 227.2 82.6 227.1 82.1 226.9C81.4 226.7 80.6 226.4 79.9 226.1C79 225.7 78.2 225.2 77.4 224.7C76.6 224.1 75.9 223.5 75.2 222.9C74.6 222.3 74.1 221.8 73.7 221.1C73.4 220.7 73.1 220.2 72.8 219.8C72.7 219.6 72.6 219.5 72.5 219.3C72.5 219.3 72.9 220 73.8 221C74.3 221.6 74.8 222.2 75.4 222.7C76.8 224 78.3 225.1 80 225.9C80.7 226.2 81.4 226.5 82.1 226.8C83.4 227.2 84.2 227.3 84.2 227.4Z" fill="black"/>
<path d="M91.8999 205.4C91.7999 205.4 91.6999 205.4 91.5999 205.4C91.2999 205.4 90.8999 205.4 90.5999 205.4C89.3999 205.4 88.1999 205.2 86.9999 204.8C86.1999 204.6 85.3999 204.2 84.6999 203.9C83.7999 203.5 82.9999 202.9 82.2999 202.3C80.4999 200.9 79.0999 199.2 78.2999 197.1C77.3999 195.1 77.0999 192.8 77.2999 190.6C77.3999 189.6 77.5999 188.7 77.7999 187.8C77.9999 187 78.2999 186.2 78.6999 185.5C79.1999 184.4 79.8999 183.4 80.6999 182.5C80.8999 182.3 81.0999 182 81.3999 181.8C81.4999 181.7 81.5999 181.6 81.6999 181.6C81.6999 181.6 81.3999 181.9 80.7999 182.6C79.9999 183.5 79.3999 184.5 78.7999 185.6C77.9999 187.2 77.5999 189 77.4999 190.7C77.2999 192.9 77.6999 195.1 78.4999 197.1C79.3999 199.1 80.6999 200.9 82.4999 202.2C83.1999 202.8 83.9999 203.3 84.8999 203.8C85.5999 204.2 86.3999 204.5 87.1999 204.8C88.2999 205.2 89.4999 205.4 90.6999 205.5C91.4999 205.4 91.8999 205.3 91.8999 205.4Z" fill="black"/>
<path d="M31.6002 167.3C31.6002 167.3 31.2002 167.2 30.6002 167C29.8002 166.8 29.0002 166.8 28.2002 167C27.4002 167.2 26.7002 167.6 26.0002 168.1C25.5002 168.5 25.3002 168.8 25.2002 168.8C25.3002 168.5 25.5002 168.2 25.8002 168C26.4002 167.4 27.2002 167 28.0002 166.8C28.8002 166.6 29.7002 166.6 30.5002 166.8C31.0002 166.9 31.3002 167.1 31.6002 167.3Z" fill="white" stroke="black" stroke-width="0.75"/>
<path d="M103.8 118.7C103.8 118.8 97.8 118.8 90.4 118.8C83 118.8 77 118.7 77 118.7C77 118.6 83 118.6 90.4 118.6C97.8 118.5 103.8 118.6 103.8 118.7Z" fill="black"/>
<path d="M80.9003 149.3C80.8003 149.3 80.8003 149.3 80.7003 149.3L80.0003 149.4C79.7003 149.4 79.4003 149.4 79.0003 149.5C78.6003 149.5 78.1003 149.5 77.6003 149.5C76.6003 149.5 75.4003 149.4 74.0003 149.3C72.5003 149.1 71.1003 148.9 69.7003 148.6C68.3003 148.3 66.9003 147.8 65.5003 147.3C64.4003 146.9 63.3003 146.4 62.2003 145.9C61.7003 145.7 61.3003 145.5 61.0003 145.3C60.7003 145.1 60.3003 144.9 60.1003 144.8L59.5003 144.5C59.4003 144.5 59.4003 144.4 59.3003 144.4C59.3003 144.4 59.4003 144.4 59.5003 144.5L60.1003 144.8C60.3003 144.9 60.7003 145.1 61.0003 145.3C61.4003 145.5 61.8003 145.7 62.2003 145.9C63.1003 146.3 64.2003 146.8 65.5003 147.2C68.2003 148.2 71.1003 148.9 74.0003 149.2C75.3003 149.4 76.5003 149.4 77.6003 149.5C78.1003 149.5 78.6003 149.5 79.0003 149.5C79.4003 149.5 79.7003 149.5 80.0003 149.5H80.7003C80.8003 149.2 80.8003 149.2 80.9003 149.3Z" fill="black"/>
<path d="M119.6 173.4C119.6 173.4 119.5 173.4 119.5 173.5L119.1 173.6L117.7 174.1C117.1 174.3 116.4 174.6 115.5 174.8C114.6 175 113.7 175.4 112.6 175.6L110.9 176C110.3 176.2 109.7 176.3 109 176.4C107.7 176.7 106.3 177 104.9 177.2C98.6003 178.3 92.1003 178.7 85.7003 178.4C84.2003 178.3 82.8003 178.2 81.5003 178.1C80.8003 178 80.2003 178 79.6003 177.9L77.9003 177.7C76.8003 177.6 75.8003 177.4 74.9003 177.2C74.0003 177 73.3003 176.9 72.7003 176.8L71.3003 176.5L70.9003 176.4H70.8003H70.9003L71.3003 176.5L72.7003 176.8C73.3003 176.9 74.1003 177.1 74.9003 177.2C75.8003 177.3 76.8003 177.5 77.9003 177.6L79.6003 177.8C80.2003 177.9 80.8003 177.9 81.5003 178C82.8003 178.1 84.2003 178.2 85.7003 178.3C88.7003 178.4 91.9003 178.4 95.3003 178.2C98.7003 178 101.9 177.6 104.9 177.1C106.4 176.8 107.7 176.6 109 176.3C109.6 176.2 110.3 176 110.9 175.9L112.6 175.5C113.7 175.2 114.7 174.9 115.5 174.7C116.4 174.5 117.1 174.2 117.7 174L119.1 173.6L119.5 173.5L119.6 173.4Z" fill="black"/>
<path d="M23.9001 144.8C26.0001 146.9 26.0001 150.3 23.9001 152.4C21.8001 154.5 18.4001 154.5 16.3001 152.4C14.2001 150.3 14.2001 146.9 16.3001 144.8C18.4001 142.7 21.8001 142.7 23.9001 144.8Z" fill="white" stroke="black" stroke-width="0.75"/>
<path d="M152.7 224.6C152.7 227.6 150.3 230 147.3 230C144.3 230 141.9 227.6 141.9 224.6C141.9 221.6 144.3 219.2 147.3 219.2C150.3 219.3 152.7 221.7 152.7 224.6Z" fill="white" stroke="black" stroke-width="0.75"/>
<path d="M82.3018 127.783C82.3113 127.731 82.3212 127.683 82.3314 127.638C82.3395 127.683 82.3482 127.731 82.3579 127.783C82.4441 128.243 82.589 128.894 82.9387 129.648C83.3359 130.514 83.9141 131.285 84.6344 131.909C85.4856 132.657 86.5452 133.128 87.6713 133.259L87.6713 133.259L87.684 133.26C88.8155 133.333 89.9427 133.063 90.9185 132.486C91.7381 132.009 92.447 131.363 92.9984 130.592C93.4787 129.922 93.7395 129.307 93.9077 128.867C93.9277 128.815 93.9459 128.767 93.9628 128.722C93.9647 128.768 93.9658 128.817 93.9659 128.87C93.9458 129.56 93.7693 130.236 93.4499 130.848L93.4496 130.848C92.9622 131.788 92.2416 132.586 91.357 133.166L91.3569 133.166L91.3502 133.171C90.2608 133.938 88.9337 134.293 87.6066 134.172C86.2794 134.051 85.0387 133.461 84.1064 132.509L84.1065 132.509L84.1006 132.503C83.3369 131.773 82.7748 130.857 82.4687 129.846L82.4688 129.846L82.4673 129.842C82.2527 129.177 82.196 128.472 82.3018 127.783Z" fill="#BEE8FF" stroke="black" stroke-width="0.5"/>
</svg>
