<svg viewBox="0 0 145 145" fill="none" xmlns="http://www.w3.org/2000/svg">
    <rect width="145" height="145" fill="transparent"/>
    <path d="M56.5 97.6084H83C78 100.275 65.5 102.108 56.5 97.6084Z" fill="white"/>
    <path d="M83.7342 71.1279H55.7441L56.5923 97.4217H82.8861L83.7342 71.1279Z" stroke="white"/>
    <path d="M56.168 79.1855H69.7389M83.3099 79.1855H69.7389M69.7389 79.1855V96.9974" stroke="white"/>
    <path d="M29 52.2369C51.575 51.5902 99.1799 50.4909 109 51.2669C109 56.6023 29 60.4819 29 52.2369Z" fill="white"/>
    <path d="M66.8714 12.8621C83.7646 24.3672 112.379 47.4135 121.497 52.1154C126.026 57.0589 119.347 37.4085 66.8714 12.8621Z" fill="white"/>
    <path d="M31 127.108C53.6183 126.542 98.6611 126.43 108.5 127.108C108.5 131.774 31 134.317 31 127.108Z" fill="white"/>
    <path d="M28.6023 52.8556C24.7668 53.0107 21.1991 53.1665 18 53.316L67 12.6084C72 16.1084 85 24.6084 122.327 53.316C120.296 52.6815 116.435 52.2349 111.3 51.9374M28.6023 52.8556C54.254 51.8182 91.8818 50.812 111.3 51.9374M28.6023 52.8556L30.9289 120.747M111.3 51.9374L108.616 119.899M30.9289 120.747L31.1469 127.108H108.332L108.616 119.899M30.9289 120.747L108.616 119.899M33.6914 56.7091V70.28M37.9323 56.7091V61.3741" stroke="white" strokeLinecap="round"/>
    </svg>
    