<svg xmlns="http://www.w3.org/2000/svg" width="100" viewBox="0 0 108.027 104.313">
  <g id="Group_48" data-name="Group 48" transform="translate(-3148.358 5392.454)">
    <path id="Path_39" data-name="Path 39" d="M3464.631-5349.572s2.338,7.333,12.159,16.565,15.906,5.023,15.906,5.023Z" transform="translate(-254.542 -33.961)" fill="#fff"/>
    <path id="Path_40" data-name="Path 40" d="M3234.105-5307.676s-2.021,13.417-12.039,15.774-12.5,2.9-12.5,2.9Z" transform="translate(-48.532 -67.799)" fill="#fff"/>
    <path id="Path_41" data-name="Path 41" d="M3199.336-5102.977s8.155,9.159.981,27.185q-.363.914-.781,1.858" transform="translate(-40.273 -233.126)" fill="#fff"/>
    <path id="Path_42" data-name="Path 42" d="M3389.939-5085.29c-.012.194-.025.386-.039.579l-.012.171c-.007.105-.015.211-.023.315,0,0-1.081-1.929-2.554-8.559s-9.576-8.4-16.353-9.723-10.549-7.572-10.549-7.572h.005c7.6,1.248,21.315,4.478,26.306.55a1.945,1.945,0,0,1,1.035-.473h.152c1.41-.631,2.069,2.385,2.331,6.555v0A167.825,167.825,0,0,1,3389.939-5085.29Z" transform="translate(-170.367 -227.386)" fill="#fff"/>
    <g id="Group_18" data-name="Group 18" transform="translate(3149.472 -5391.62)">
      <line id="Line_1" data-name="Line 1" y1="10.196" x2="9.193" transform="translate(0 36.878)" fill="none" stroke="#000" stroke-miterlimit="10" stroke-width="3"/>
      <path id="Path_43" data-name="Path 43" d="M3208.877-5391.617c-5.3,7.956-48.616,37.125-46.553,38.3s1.473,57.455,1.473,57.455a17.66,17.66,0,0,0-8.626,3.34s12.555-9.625,37.992,0" transform="translate(-3154.075 5391.618)" fill="none" stroke="#000" stroke-miterlimit="10" stroke-width="3"/>
      <path id="Path_44" data-name="Path 44" d="M3420.59-5391.62a13.87,13.87,0,0,0,1.329,1.629c5.524,5.98,22.2,18.13,33.7,26.813a.043.043,0,0,1,.01.008,133.837,133.837,0,0,1,10.854,8.706c.621.63.87,1.031.664,1.148-2,1.143-1.508,53.95-1.475,57.292,0,.11,0,.166,0,.166.235.019.465.042.692.075a17.816,17.816,0,0,1,7.932,3.262" transform="translate(-3368.444 5391.62)" fill="none" stroke="#000" stroke-miterlimit="10" stroke-width="3"/>
      <path id="Path_45" data-name="Path 45" d="M3403.659-5066.946l0,0c-2.835-1.323-5.476-2.4-7.932-3.262-.233-.083-.464-.163-.695-.24-21.945-7.467-28.868,2.231-28.868,2.231s1.012-8.393,1.671-17.816c.008-.1.015-.21.023-.315,0-.058.008-.113.011-.171.013-.192.027-.384.038-.579a139.56,139.56,0,0,0,.3-18.153v0c-.3-3.878-1-6.467-2.331-6.556h0a.857.857,0,0,0-.15,0,1.947,1.947,0,0,0-1.035.474c-4.991,3.927-18.7.7-26.306-.55h-.006c-3.614-.593-5.847-.737-5.1.55,2.3,3.993,0,43.12,0,43.12" transform="translate(-3297.807 5166.045)" fill="none" stroke="#000" stroke-miterlimit="10" stroke-width="3"/>
      <path id="Path_46" data-name="Path 46" d="M3602.7-5243.744s13.89,11.411,17.425,13.534" transform="translate(-3515.528 5272.186)" fill="none" stroke="#000" stroke-miterlimit="10" stroke-width="3"/>
    </g>
  </g>
</svg>
