<svg width="150" height="150" viewBox="0 0 150 150" fill="none" xmlns="http://www.w3.org/2000/svg">
<path d="M110.542 134.995C86.5248 134.995 61.2862 135.395 37.2689 135.129C37.2689 111.503 36.9975 87.0765 35.6406 60.6479C57.6226 60.114 84.8965 59.847 112.306 59.5801C110.813 86.0087 109.185 117.643 110.542 134.995Z" fill="white"/>
<path d="M50.4327 135.796C45.9549 135.796 41.6128 135.796 37.2707 135.796C36.9993 135.796 36.7279 135.529 36.7279 135.262C36.7279 114.306 36.5922 88.9449 35.0996 60.9145C35.0996 60.7811 35.0996 60.6476 35.2353 60.5141C35.371 60.3806 35.5067 60.3806 35.6424 60.3806C56.2674 59.8467 80.8275 59.5798 107.016 59.4463H112.308C112.444 59.4463 112.579 59.4463 112.715 59.5798C112.851 59.7132 112.851 59.8467 112.851 59.9802C111.494 85.6079 109.865 117.509 111.222 135.128C111.222 135.262 111.222 135.395 111.087 135.529C110.951 135.662 110.815 135.662 110.68 135.662C100.367 135.662 89.7831 135.662 79.3349 135.796C69.7008 135.662 59.9311 135.796 50.4327 135.796ZM37.6777 134.728C51.2469 134.861 65.4944 134.728 79.1992 134.594C89.3761 134.594 99.8243 134.461 110.001 134.461C108.78 116.842 110.408 85.6079 111.629 60.2472H106.88C80.9632 60.5141 56.5388 60.6476 36.0494 61.1815C37.4064 89.0784 37.6777 113.905 37.6777 134.728Z" fill="black"/>
<path d="M123.705 65.4549C88.6969 65.4549 57.2166 66.1223 25.4648 66.1223C40.9336 49.838 57.4879 31.5515 73.2281 15.5342C89.5111 31.1511 105.387 49.571 123.705 65.4549Z" fill="white"/>
<path d="M25.4633 66.5224C25.3276 66.5224 25.0562 66.389 25.0562 66.2555C24.9205 66.122 25.0562 65.8551 25.1919 65.7216C31.0266 59.5816 36.997 53.1747 42.9674 46.7677C52.8729 36.0895 63.1854 25.1443 72.9552 15.1335C73.0909 15 73.2265 15 73.3622 15C73.4979 15 73.6336 15 73.7693 15.1335C80.1468 21.14 86.2529 27.5469 92.6304 34.2208C102.672 44.6321 112.984 55.3103 124.246 65.0542C124.382 65.1877 124.518 65.4546 124.382 65.5881C124.246 65.7216 124.111 65.8551 123.839 65.8551C105.928 65.8551 88.831 65.9885 72.2767 66.122C56.1295 66.389 40.9321 66.5224 25.4633 66.5224ZM73.2266 16.2013C63.4568 26.0787 53.4156 37.0238 43.5102 47.4351C37.9469 53.4416 32.1121 59.7151 26.5488 65.4546C41.6105 65.4546 56.4009 65.3211 72.0053 65.1877C88.1526 65.0542 104.843 64.9207 122.211 64.9207C111.356 55.4438 101.315 45.0325 91.5449 34.8882C85.4388 28.3478 79.4683 22.0743 73.2266 16.2013Z" fill="black"/>
<path d="M86.1165 109.637C78.1108 109.637 70.2407 109.504 62.2349 109.504C61.4207 101.495 61.0137 93.6199 61.0137 85.7447C69.2908 85.3442 77.568 85.3442 86.2522 85.7447C86.6593 93.4864 86.5236 101.228 86.1165 109.637Z" fill="#BEE8FF"/>
<path d="M86.1163 110.17L62.2347 110.037C61.9633 110.037 61.6919 109.903 61.6919 109.636C60.7421 100.56 60.4707 92.9515 60.4707 85.8772C60.4707 85.6103 60.7421 85.3433 61.0135 85.3433C69.2906 84.9429 77.5678 84.9429 86.3877 85.3433C86.6591 85.3433 86.9305 85.6103 86.9305 85.8772C87.0662 93.352 87.0662 100.96 86.6591 109.77C86.6591 109.903 86.3877 110.17 86.1163 110.17ZM62.7774 108.969L85.7092 109.102C85.9806 100.693 86.1163 93.4854 85.9806 86.2776C77.5678 85.8772 69.562 85.8772 61.6919 86.2776C61.5562 93.085 61.9633 100.293 62.7774 108.969Z" fill="black"/>
<path d="M77.704 44.3645C74.9902 42.6292 70.7838 43.4301 68.8841 46.0997C66.9845 48.7692 67.7986 52.907 70.3767 54.9092C72.9549 56.9114 77.1613 56.244 79.1967 53.5744C81.232 50.9049 80.9606 46.3666 77.704 44.3645Z" fill="white"/>
<path d="M74.1744 56.3768C72.8175 56.3768 71.4606 55.9763 70.2394 55.1755C67.3899 53.0398 66.5757 48.6351 68.6111 45.6986C70.6465 42.762 75.1243 41.8277 78.1095 43.8299C79.7378 44.8977 80.6876 46.4994 81.0947 48.3681C81.5018 50.2368 80.959 52.239 79.8735 53.7072C78.5166 55.4424 76.3455 56.3768 74.1744 56.3768ZM74.4458 43.8299C72.5461 43.8299 70.5108 44.7642 69.4252 46.3659C67.6613 48.902 68.3397 52.6394 70.9178 54.5081C73.3603 56.2433 77.2953 55.7094 79.0593 53.3068C80.0091 52.1055 80.4162 50.3703 80.1448 48.6351C79.8735 47.0333 78.9236 45.6986 77.7024 44.7642C76.6169 44.0968 75.5314 43.8299 74.4458 43.8299Z" fill="black"/>
<path d="M61.6943 93.4848C61.5586 93.4848 61.5586 93.3513 61.5586 93.3513C61.5586 93.2178 61.6943 93.2178 61.6943 93.2178C69.8357 93.0843 78.1129 92.9509 86.2544 92.8174C86.3901 92.8174 86.3901 92.9509 86.3901 92.9509C86.3901 93.0843 86.2544 93.0843 86.2544 93.0843C78.1129 93.0843 69.8357 93.2178 61.6943 93.4848Z" fill="black"/>
<path d="M73.6298 109.504C73.4941 109.504 73.4941 109.371 73.4941 109.371L73.9012 93.3532C73.9012 93.2197 74.0369 93.2197 74.0369 93.2197C74.1726 93.2197 74.1726 93.3532 74.1726 93.3532L73.7655 109.371C73.9012 109.371 73.7655 109.504 73.6298 109.504Z" fill="black"/>
<path d="M74.8551 56.3767C74.7194 56.3767 74.7194 56.2432 74.7194 56.2432C74.5837 52.1054 74.1766 47.9676 73.7695 43.8298C73.7695 43.6963 73.7695 43.6963 73.9052 43.6963C74.0409 43.6963 74.0409 43.6963 74.0409 43.8298C74.448 47.9676 74.8551 52.1054 74.9907 56.2432C74.9907 56.3767 74.8551 56.3767 74.8551 56.3767Z" fill="black"/>
<path d="M68.204 49.8364C68.0684 49.8364 68.0684 49.7029 68.0684 49.7029C68.0684 49.5694 68.0684 49.5694 68.204 49.5694L80.5519 48.7686C80.6876 48.7686 80.6876 48.7686 80.6876 48.902C80.6876 49.0355 80.6876 49.0355 80.5519 49.0355L68.204 49.8364Z" fill="black"/>
<path d="M37.9451 130.324C37.6737 130.324 37.4023 130.057 37.4023 129.79C37.4023 129.523 37.6737 129.256 37.9451 129.256L109.726 128.455C109.997 128.455 110.268 128.722 110.268 128.989C110.268 129.256 109.997 129.523 109.726 129.523L37.9451 130.324Z" fill="black"/>
<g opacity="0.1294">
<path d="M112.032 68.1249C111.896 67.858 111.761 67.591 111.625 67.4576C111.625 66.5232 110.947 65.5889 109.861 65.5889C107.283 65.8558 104.84 65.5889 102.262 65.7223C99.6842 65.7223 97.2417 65.9893 94.6636 66.2563C94.1208 66.2563 93.5781 66.2563 93.0353 66.5232C92.3568 66.5232 91.8141 66.5232 91.1356 66.5232C87.0649 66.6567 82.9942 66.5232 78.9234 66.5232C72.6816 66.5232 66.5755 66.6567 60.3337 66.6567C56.8058 66.6567 53.1421 66.3897 49.6141 66.5232C45.6791 66.5232 41.7441 67.0571 37.809 66.6567C35.2309 66.3897 34.9595 70.2606 37.5376 70.3941C42.0154 70.7945 46.4932 70.2606 50.9711 70.2606C60.4694 70.661 69.9678 70.3941 79.4662 70.2606C83.4012 70.2606 87.472 70.3941 91.407 70.3941C96.9703 70.661 102.534 70.928 107.961 70.7945C108.233 70.7945 108.504 70.7945 108.775 70.7945C108.911 70.7945 109.047 70.7945 109.183 70.7945C109.725 70.928 110.132 70.7945 110.675 70.7945C111.761 70.1271 112.303 69.0593 112.032 68.1249Z" fill="black"/>
</g>
</svg>
