<svg viewBox="0 0 145 145" fill="none" xmlns="http://www.w3.org/2000/svg">
  <rect width="145" height="145" fill="transparent"/>
  <path d="M56.5 98.1611H83C78 100.828 65.5 102.661 56.5 98.1611Z" fill="white"/>
  <path d="M83.7342 71.6807H55.7441L56.5923 97.9744H82.8861L83.7342 71.6807Z" stroke="black"/>
  <path d="M56.168 79.7383H69.7389M83.3099 79.7383H69.7389M69.7389 79.7383V97.5502" stroke="black"/>
  <path d="M29 54.2237C51.575 53.1459 99.1799 51.3136 109 52.607C109 61.4992 29 67.9652 29 54.2237Z" fill="white"/>
  <path d="M66.9998 13.1624C83.8613 24.73 112.383 47.9587 121.5 52.6619C126 57.6621 119.5 37.6623 66.9998 13.1624Z" fill="white"/>
  <path d="M31 127.661C53.6183 127.095 98.6611 126.983 108.5 127.661C108.5 132.326 31 134.87 31 127.661Z" fill="white"/>
  <path d="M28.6023 53.4083C24.7668 53.5634 21.1991 53.7192 18 53.8687L67 13.1611C72 16.6611 85 25.1611 122.327 53.8687C120.296 53.2343 116.435 52.7877 111.3 52.4901M28.6023 53.4083C54.254 52.3709 91.8818 51.3647 111.3 52.4901M28.6023 53.4083L30.9289 121.3M111.3 52.4901L108.616 120.452M30.9289 121.3L31.1469 127.661H108.332L108.616 120.452M30.9289 121.3L108.616 120.452M33.6914 57.2618V70.8327M37.9323 57.2618V61.9268" stroke="black" stroke-linecap="round"/>
  </svg>
  