<svg width="150" height="150" viewBox="0 0 150 150" fill="none" xmlns="http://www.w3.org/2000/svg">
<g clip-path="url(#clip0_933_14683)">
<path d="M33.7443 119.85H23.1125C22.266 119.85 21.1953 118.879 21.1953 117.683V83.9206C21.1953 82.2275 22.6892 81.2565 23.5358 81.2565L33.9435 81.5055C34.79 81.5055 35.8607 82.4765 35.8607 83.6717V117.21C36.0599 118.405 35.0141 119.85 33.7443 119.85Z" fill="#BEE8FF"/>
<path d="M22.6892 82.5014C22.1913 82.5014 21.1953 82.9994 21.1953 83.9953V118.854C21.1953 119.103 21.1953 119.352 21.4443 119.601C21.6933 119.85 21.9423 119.85 21.9423 119.85H34.3917C35.1386 119.85 35.8856 118.854 35.8856 118.356V83.9953C35.8856 83.7463 35.6366 83.4974 35.6366 83.2484C35.3876 82.9994 35.1386 82.9994 34.8896 82.9994L22.6892 82.5014Z" stroke="white" stroke-miterlimit="10"/>
<path d="M127.862 119.85H117.231C116.384 119.85 115.313 118.879 115.313 117.683V83.9206C115.313 82.2275 116.807 81.2565 117.654 81.2565L128.062 81.5055C128.908 81.5055 129.979 82.4765 129.979 83.6717V117.21C130.178 118.405 129.132 119.85 127.862 119.85Z" fill="#BEE8FF"/>
<path d="M116.807 82.5014C116.309 82.5014 115.313 82.9994 115.313 83.9953V118.854C115.313 119.103 115.562 119.352 115.562 119.601C115.811 119.85 116.06 119.85 116.06 119.85H128.51C129.257 119.85 130.004 118.854 130.004 118.356V83.9953C130.004 83.7463 129.755 83.4974 129.755 83.2484C129.506 82.9994 129.257 82.9994 129.008 82.9994L116.807 82.5014Z" stroke="white" stroke-miterlimit="10"/>
<path d="M134.485 102.719C134.734 91.8384 135.73 81.7544 135.481 70.8737C135.481 69.8777 135.481 68.8569 134.983 68.085C134.485 67.0891 126.767 62.5326 121.812 60.5158C119.073 52.6727 111.877 35.9905 110.383 33.9737C108.889 31.9569 106.922 30.438 104.905 30.438C87.2771 30.438 69.35 30.438 51.4727 30.438C49.5057 30.438 47.4889 30.438 45.746 31.7079C44.003 32.9777 43.0071 34.9945 42.0111 37.0113C38.2763 44.5806 34.8154 52.1747 30.8316 60.5158C27.3707 62.2836 23.6358 64.3004 20.1251 66.0682C19.1292 66.5911 18.1581 67.0642 17.3862 68.085C15.8923 69.3548 15.6433 72.1186 15.4192 74.3844C14.9213 84.2443 15.1702 91.8136 15.9172 102.171C15.6682 107.724 28.1176 106.952 34.3174 106.952C66.1381 106.952 95.9668 107.201 128.036 107.201C129.53 107.201 131.024 107.201 132.518 106.454C133.738 105.757 134.236 103.989 134.485 102.719Z" fill="#333436"/>
<path d="M127.489 107.4H127.24L35.164 107.151C34.6661 107.151 33.944 107.151 33.2219 107.151C27.5948 107.151 19.7766 107.151 17.1124 104.213C16.3903 103.491 15.8924 102.271 15.8924 101.275C15.1703 90.5188 14.9213 83.1986 15.3944 74.4093C15.6434 71.9692 15.8924 69.0312 17.5855 67.0891C18.5565 66.118 19.7766 65.371 20.7725 64.898L30.7818 59.7688C34.442 51.9506 38.1021 44.6304 41.5381 37.5342C42.5092 35.5921 43.4802 33.3761 45.6962 31.9071C47.6383 30.463 50.0784 30.463 52.0205 30.463C69.126 30.463 87.2025 30.463 104.532 30.463C106.972 30.463 109.163 31.932 110.881 34.3721C112.35 36.5632 119.421 52.1996 122.111 60.0178C126.269 61.7358 134.087 66.118 135.058 67.587C135.556 68.5581 135.78 70.0271 135.78 70.9982C136.029 77.3474 135.531 83.6966 135.282 89.7968C135.033 93.7059 134.784 97.864 134.784 101.997C134.784 103.466 134.062 105.657 132.344 106.628C130.676 107.4 128.958 107.4 127.489 107.4Z" stroke="white" stroke-miterlimit="10"/>
<path d="M41.8613 60.5905C45.0982 53.6188 49.331 41.1694 52.0698 39.9245C54.3107 38.9285 79.2095 39.1775 92.9038 39.1775C95.8917 39.1775 99.1285 39.4265 101.12 41.6674C102.116 42.9123 110.084 60.0925 110.084 60.0925L41.8613 60.5905Z" fill="#333436"/>
<path d="M41.8614 61.5864C41.3634 61.5864 41.1144 61.3374 40.8655 61.0885C40.6165 60.8395 40.6165 60.3415 40.8655 59.8435C41.8614 57.8516 42.6084 55.6107 43.6043 53.1208C47.0901 44.6553 49.331 39.6755 51.5719 38.4306C53.0659 37.6836 62.0294 37.6836 80.9525 37.6836C85.1853 37.6836 89.4181 37.6836 92.9039 37.6836C96.1408 37.6836 99.6266 37.9326 101.867 40.4225C102.863 41.6674 109.088 55.1127 111.08 59.0965C111.329 59.5945 111.329 59.8435 111.08 60.3415C110.831 60.5905 110.582 60.8395 110.084 60.8395L41.8614 61.5864Z" stroke="white" stroke-miterlimit="10"/>
<path d="M66.7604 89.2241C61.5317 89.2241 56.3029 89.2241 51.3232 89.2241C51.0742 89.2241 50.8252 88.9751 50.8252 88.7261C50.8252 88.4771 51.0742 88.2281 51.3232 88.2281C67.5074 88.2281 84.1896 88.2281 100.374 87.9791C100.623 87.9791 100.872 88.2281 100.872 88.4771C100.872 88.7261 100.623 88.9751 100.374 88.9751C89.1693 88.9751 77.9649 89.2241 66.7604 89.2241Z" fill="white"/>
<path d="M66.7604 80.0115C61.5317 80.0115 56.3029 80.0115 51.3232 80.0115C51.0742 80.0115 50.8252 79.7626 50.8252 79.5136C50.8252 79.2646 51.0742 79.0156 51.3232 79.0156C67.5074 79.0156 84.1896 79.0156 100.374 78.7666C100.623 78.7666 100.872 79.0156 100.872 79.2646C100.872 79.5136 100.623 79.7626 100.374 79.7626C89.1693 80.0115 77.9649 80.0115 66.7604 80.0115Z" fill="white"/>
<path d="M119.82 53.6437H129.78M33.9195 53.6437H23.96M111.106 79.7875C112.766 81.4474 119.82 83.5223 124.8 79.7875M23.96 79.7875C25.2049 82.2773 35.1644 84.7672 38.8992 79.7875" stroke="white" strokeLinecap="round"/>
</g>
<defs>
<clipPath id="clip0_933_14683">
<rect width="123" height="93.3704" fill="white" transform="translate(14 27.5)"/>
</clipPath>
</defs>
</svg>
