<svg xmlns="http://www.w3.org/2000/svg" width="22.544" height="12.416" viewBox="0 0 22.544 12.416">
    <path id="Path_70" data-name="Path 70" d="M-658.043,234.434l2.865-2.868q3.172-3.174,6.344-6.349a1.2,1.2,0,0,1,1.2-.422,1.122,1.122,0,0,1,.6,1.823c-.32.371-.684.7-1.031,1.052q-4.533,4.536-9.067,9.07a1.136,1.136,0,0,1-1.487.259,1.474,1.474,0,0,1-.272-.22l-6.014-6.013-3.955-3.957a1.156,1.156,0,0,1-.331-1.39,1.125,1.125,0,0,1,1.808-.343c.468.433.908.9,1.359,1.347q3.889,3.889,7.776,7.778C-658.18,234.267-658.122,234.343-658.043,234.434Z" transform="translate(669.303 -224.757)" fill="#50b8e7"/>
  </svg>
  