<svg width="250" viewBox="0 0 321 322" fill="none" xmlns="http://www.w3.org/2000/svg">
    <path d="M224.395 168.863C224.18 170.539 223.402 172.093 222.189 173.27C220.976 174.446 219.399 175.176 217.717 175.34C215.792 175.511 213.857 175.53 211.929 175.395C211.424 175.386 210.925 175.273 210.465 175.063C210.005 174.853 209.593 174.55 209.255 174.174C208.917 173.797 208.66 173.355 208.501 172.875C208.341 172.395 208.282 171.888 208.327 171.384C208.298 170.881 208.371 170.377 208.541 169.902C208.712 169.428 208.976 168.993 209.318 168.623C209.66 168.252 210.073 167.955 210.533 167.749C210.993 167.542 211.489 167.43 211.993 167.419C213.92 167.317 215.855 167.391 217.791 167.391C219.577 167.391 221.354 167.363 223.142 167.401C224.395 167.421 224.534 167.631 224.395 168.863Z" fill="white"/>
    <path d="M110.553 166.621C110.525 168.937 109.595 171.15 107.963 172.793C106.33 174.435 104.122 175.377 101.806 175.42C99.4909 175.462 97.2498 174.601 95.5582 173.02C93.8665 171.438 92.857 169.26 92.7437 166.947C92.6089 164.498 92.6089 162.045 92.7437 159.596C92.8575 157.284 93.8674 155.107 95.5593 153.526C97.2512 151.945 99.4921 151.086 101.807 151.13C104.122 151.173 106.329 152.116 107.96 153.76C109.591 155.403 110.518 157.616 110.545 159.932C110.582 161.048 110.555 162.165 110.555 163.281C110.555 164.396 110.582 165.504 110.553 166.621Z" fill="white"/>
    <path d="M241.871 131.521C241.861 132.526 241.229 132.964 240.279 133.01C239.981 133.02 239.684 133.01 239.386 133.01C237.906 133.001 237.264 131.968 237.823 130.535C237.861 130.392 237.945 130.265 238.063 130.174C238.181 130.083 238.325 130.033 238.473 130.032C239.14 129.982 239.809 129.989 240.474 130.051C240.662 130.056 240.848 130.097 241.02 130.174C241.192 130.25 241.348 130.36 241.477 130.497C241.607 130.633 241.708 130.794 241.776 130.97C241.844 131.146 241.876 131.333 241.871 131.521Z" fill="white"/>
    <path d="M237.786 126.451C237.86 126.05 238.009 125.74 238.436 125.724C239.091 125.693 239.746 125.7 240.4 125.743C240.548 125.744 240.693 125.775 240.829 125.833C240.964 125.892 241.086 125.977 241.188 126.084C241.289 126.191 241.368 126.317 241.42 126.456C241.472 126.594 241.495 126.741 241.489 126.888C241.507 127.053 241.49 127.22 241.438 127.378C241.386 127.535 241.3 127.68 241.187 127.801C241.074 127.923 240.936 128.018 240.782 128.082C240.629 128.145 240.464 128.174 240.298 128.167C240.014 128.186 239.711 128.167 239.423 128.167C237.869 128.191 237.516 127.809 237.786 126.451Z" fill="white"/>
    <path d="M280.208 127.956C279.762 128.914 278.887 129.008 277.966 128.979C276.422 128.989 276.319 128.868 276.356 127.146C276.393 125.704 276.571 125.528 278.04 125.565C279.846 125.612 280.814 126.673 280.208 127.956Z" fill="white"/>
    <path d="M249.893 144.362C249.041 144.675 248.106 144.682 247.25 144.381C247.425 142.942 247.88 141.551 248.59 140.287C249.338 141.525 249.784 142.921 249.893 144.362Z" fill="white"/>
    <path d="M250.918 130.61C250.021 130.865 249.072 130.868 248.173 130.62C248.41 129.097 248.884 127.621 249.578 126.246C250.225 127.631 250.677 129.1 250.918 130.61Z" fill="white"/>
    <path d="M224.395 168.863C224.18 170.539 223.402 172.093 222.189 173.27C220.976 174.446 219.399 175.176 217.717 175.34C215.792 175.511 213.857 175.53 211.929 175.395C211.424 175.386 210.925 175.273 210.465 175.063C210.005 174.853 209.593 174.55 209.255 174.174C208.917 173.797 208.66 173.355 208.501 172.875C208.341 172.395 208.282 171.888 208.327 171.384C208.298 170.881 208.371 170.377 208.541 169.902C208.712 169.428 208.976 168.993 209.318 168.623C209.66 168.252 210.073 167.955 210.533 167.749C210.993 167.542 211.489 167.43 211.993 167.419C213.92 167.317 215.855 167.391 217.791 167.391C219.577 167.391 221.354 167.363 223.142 167.401C224.395 167.421 224.534 167.631 224.395 168.863Z" fill="white"/>
    <path d="M110.553 166.621C110.525 168.937 109.595 171.15 107.963 172.793C106.33 174.435 104.122 175.377 101.806 175.42C99.4909 175.462 97.2498 174.601 95.5582 173.02C93.8665 171.438 92.857 169.26 92.7437 166.947C92.6089 164.498 92.6089 162.045 92.7437 159.596C92.8575 157.284 93.8674 155.107 95.5593 153.526C97.2512 151.945 99.4921 151.086 101.807 151.13C104.122 151.173 106.329 152.116 107.96 153.76C109.591 155.403 110.518 157.616 110.545 159.932C110.582 161.048 110.555 162.165 110.555 163.281C110.555 164.396 110.582 165.504 110.553 166.621Z" fill="white"/>
    <path d="M241.871 131.521C241.861 132.526 241.229 132.964 240.279 133.01C239.981 133.02 239.684 133.01 239.386 133.01C237.906 133.001 237.264 131.968 237.823 130.535C237.861 130.392 237.945 130.265 238.063 130.174C238.181 130.083 238.325 130.033 238.473 130.032C239.14 129.982 239.809 129.989 240.474 130.051C240.662 130.056 240.848 130.097 241.02 130.174C241.192 130.25 241.348 130.36 241.477 130.497C241.607 130.633 241.708 130.794 241.776 130.97C241.844 131.146 241.876 131.333 241.871 131.521Z" fill="white"/>
    <path d="M241.489 126.889C241.508 127.054 241.49 127.22 241.438 127.378C241.386 127.536 241.301 127.68 241.188 127.802C241.075 127.923 240.936 128.019 240.783 128.082C240.629 128.145 240.464 128.174 240.298 128.167C240.014 128.186 239.711 128.167 239.423 128.167C237.869 128.196 237.515 127.814 237.785 126.462C237.859 126.062 238.008 125.752 238.435 125.736C239.09 125.705 239.746 125.711 240.399 125.755C240.546 125.756 240.691 125.786 240.825 125.844C240.96 125.901 241.082 125.986 241.184 126.091C241.285 126.197 241.365 126.322 241.417 126.459C241.469 126.596 241.494 126.742 241.489 126.889Z" fill="white"/>
    <path d="M280.208 127.956C279.762 128.914 278.887 129.008 277.966 128.979C276.422 128.989 276.319 128.868 276.356 127.146C276.393 125.704 276.571 125.528 278.04 125.565C279.846 125.612 280.814 126.673 280.208 127.956Z" fill="white"/>
    <path d="M249.893 144.362C249.041 144.675 248.106 144.682 247.25 144.381C247.425 142.942 247.88 141.551 248.59 140.287C249.338 141.525 249.784 142.921 249.893 144.362Z" fill="white"/>
    <path d="M250.918 130.61C250.021 130.865 249.072 130.868 248.173 130.62C248.41 129.097 248.884 127.621 249.578 126.246C250.225 127.631 250.677 129.1 250.918 130.61Z" fill="white"/>
    <path d="M110.554 163.281C110.554 162.165 110.582 161.048 110.544 159.931C110.517 157.616 109.59 155.402 107.959 153.759C106.328 152.116 104.121 151.172 101.806 151.129C99.4909 151.085 97.25 151.945 95.5581 153.525C93.8662 155.106 92.8563 157.283 92.7425 159.596C92.6077 162.044 92.6077 164.498 92.7425 166.946C92.8558 169.259 93.8653 171.437 95.557 173.019C97.2487 174.6 99.4897 175.461 101.805 175.419C104.121 175.377 106.329 174.435 107.961 172.792C109.594 171.15 110.523 168.936 110.552 166.621C110.581 165.505 110.554 164.388 110.554 163.281ZM110.554 163.281C110.554 162.165 110.582 161.048 110.544 159.931C110.517 157.616 109.59 155.402 107.959 153.759C106.328 152.116 104.121 151.172 101.806 151.129C99.4909 151.085 97.25 151.945 95.5581 153.525C93.8662 155.106 92.8563 157.283 92.7425 159.596C92.6077 162.044 92.6077 164.498 92.7425 166.946C92.8558 169.259 93.8653 171.437 95.557 173.019C97.2487 174.6 99.4897 175.461 101.805 175.419C104.121 175.377 106.329 174.435 107.961 172.792C109.594 171.15 110.523 168.936 110.552 166.621C110.581 165.505 110.554 164.388 110.554 163.281ZM110.554 163.281C110.554 162.165 110.582 161.048 110.544 159.931C110.517 157.616 109.59 155.402 107.959 153.759C106.328 152.116 104.121 151.172 101.806 151.129C99.4909 151.085 97.25 151.945 95.5581 153.525C93.8662 155.106 92.8563 157.283 92.7425 159.596C92.6077 162.044 92.6077 164.498 92.7425 166.946C92.8558 169.259 93.8653 171.437 95.557 173.019C97.2487 174.6 99.4897 175.461 101.805 175.419C104.121 175.377 106.329 174.435 107.961 172.792C109.594 171.15 110.523 168.936 110.552 166.621C110.581 165.505 110.554 164.388 110.554 163.281ZM110.554 163.281C110.554 162.165 110.582 161.048 110.544 159.931C110.517 157.616 109.59 155.402 107.959 153.759C106.328 152.116 104.121 151.172 101.806 151.129C99.4909 151.085 97.25 151.945 95.5581 153.525C93.8662 155.106 92.8563 157.283 92.7425 159.596C92.6077 162.044 92.6077 164.498 92.7425 166.946C92.8558 169.259 93.8653 171.437 95.557 173.019C97.2487 174.6 99.4897 175.461 101.805 175.419C104.121 175.377 106.329 174.435 107.961 172.792C109.594 171.15 110.523 168.936 110.552 166.621C110.581 165.505 110.554 164.388 110.554 163.281ZM110.554 163.281C110.554 162.165 110.582 161.048 110.544 159.931C110.517 157.616 109.59 155.402 107.959 153.759C106.328 152.116 104.121 151.172 101.806 151.129C99.4909 151.085 97.25 151.945 95.5581 153.525C93.8662 155.106 92.8563 157.283 92.7425 159.596C92.6077 162.044 92.6077 164.498 92.7425 166.946C92.8558 169.259 93.8653 171.437 95.557 173.019C97.2487 174.6 99.4897 175.461 101.805 175.419C104.121 175.377 106.329 174.435 107.961 172.792C109.594 171.15 110.523 168.936 110.552 166.621C110.581 165.505 110.554 164.388 110.554 163.281ZM223.149 167.402C221.363 167.365 219.585 167.392 217.798 167.392C215.862 167.392 213.927 167.317 212 167.421C211.496 167.431 211 167.543 210.54 167.75C210.08 167.956 209.667 168.254 209.325 168.624C208.983 168.994 208.718 169.429 208.548 169.903C208.378 170.378 208.305 170.882 208.334 171.385C208.289 171.889 208.348 172.396 208.507 172.876C208.667 173.356 208.923 173.798 209.261 174.174C209.599 174.551 210.011 174.854 210.471 175.064C210.931 175.274 211.429 175.387 211.935 175.396C213.862 175.531 215.798 175.513 217.722 175.341C219.404 175.177 220.981 174.447 222.194 173.271C223.408 172.094 224.185 170.541 224.401 168.864C224.534 167.637 224.395 167.422 223.147 167.404L223.149 167.402ZM240.475 130.05C239.81 129.988 239.141 129.982 238.475 130.032C238.326 130.033 238.182 130.083 238.064 130.173C237.947 130.264 237.862 130.391 237.824 130.535C237.266 131.967 237.908 133 239.387 133.01C239.685 133.01 239.982 133.02 240.281 133.01C241.23 132.963 241.862 132.527 241.872 131.521C241.877 131.333 241.844 131.145 241.777 130.97C241.709 130.794 241.607 130.633 241.478 130.497C241.348 130.36 241.192 130.251 241.02 130.174C240.848 130.098 240.662 130.056 240.474 130.052L240.475 130.05ZM240.402 125.742C239.748 125.699 239.092 125.693 238.438 125.724C238.012 125.742 237.861 126.049 237.787 126.45C237.517 127.808 237.871 128.19 239.425 128.155C239.71 128.155 240.011 128.173 240.301 128.155C240.466 128.162 240.632 128.133 240.785 128.069C240.939 128.006 241.077 127.911 241.19 127.789C241.303 127.668 241.389 127.523 241.441 127.366C241.493 127.208 241.51 127.041 241.491 126.876C241.495 126.73 241.47 126.585 241.417 126.448C241.364 126.312 241.284 126.188 241.183 126.083C241.081 125.978 240.96 125.895 240.825 125.837C240.691 125.78 240.546 125.75 240.4 125.749L240.402 125.742ZM240.402 125.742C239.748 125.699 239.092 125.693 238.438 125.724C238.012 125.742 237.861 126.049 237.787 126.45C237.517 127.808 237.871 128.19 239.425 128.155C239.71 128.155 240.011 128.173 240.301 128.155C240.466 128.162 240.632 128.133 240.785 128.069C240.939 128.006 241.077 127.911 241.19 127.789C241.303 127.668 241.389 127.523 241.441 127.366C241.493 127.208 241.51 127.041 241.491 126.876C241.495 126.73 241.47 126.585 241.417 126.448C241.364 126.312 241.284 126.188 241.183 126.083C241.081 125.978 240.96 125.895 240.825 125.837C240.691 125.78 240.546 125.75 240.4 125.749L240.402 125.742ZM240.475 130.05C239.81 129.988 239.141 129.982 238.475 130.032C238.326 130.033 238.182 130.083 238.064 130.173C237.947 130.264 237.862 130.391 237.824 130.535C237.266 131.967 237.908 133 239.387 133.01C239.685 133.01 239.982 133.02 240.281 133.01C241.23 132.963 241.862 132.527 241.872 131.521C241.877 131.333 241.844 131.145 241.777 130.97C241.709 130.794 241.607 130.633 241.478 130.497C241.348 130.36 241.192 130.251 241.02 130.174C240.848 130.098 240.662 130.056 240.474 130.052L240.475 130.05ZM223.149 167.402C221.363 167.365 219.585 167.392 217.798 167.392C215.862 167.392 213.927 167.317 212 167.421C211.496 167.431 211 167.543 210.54 167.75C210.08 167.956 209.667 168.254 209.325 168.624C208.983 168.994 208.718 169.429 208.548 169.903C208.378 170.378 208.305 170.882 208.334 171.385C208.289 171.889 208.348 172.396 208.507 172.876C208.667 173.356 208.923 173.798 209.261 174.174C209.599 174.551 210.011 174.854 210.471 175.064C210.931 175.274 211.429 175.387 211.935 175.396C213.862 175.531 215.798 175.513 217.722 175.341C219.404 175.177 220.981 174.447 222.194 173.271C223.408 172.094 224.185 170.541 224.401 168.864C224.534 167.637 224.395 167.422 223.147 167.404L223.149 167.402ZM110.554 163.281C110.554 162.165 110.582 161.048 110.544 159.931C110.517 157.616 109.59 155.402 107.959 153.759C106.328 152.116 104.121 151.172 101.806 151.129C99.4909 151.085 97.25 151.945 95.5581 153.525C93.8662 155.106 92.8563 157.283 92.7425 159.596C92.6077 162.044 92.6077 164.498 92.7425 166.946C92.8558 169.259 93.8653 171.437 95.557 173.019C97.2487 174.6 99.4897 175.461 101.805 175.419C104.121 175.377 106.329 174.435 107.961 172.792C109.594 171.15 110.523 168.936 110.552 166.621C110.581 165.505 110.554 164.388 110.554 163.281ZM110.554 163.281C110.554 162.165 110.582 161.048 110.544 159.931C110.517 157.616 109.59 155.402 107.959 153.759C106.328 152.116 104.121 151.172 101.806 151.129C99.4909 151.085 97.25 151.945 95.5581 153.525C93.8662 155.106 92.8563 157.283 92.7425 159.596C92.6077 162.044 92.6077 164.498 92.7425 166.946C92.8558 169.259 93.8653 171.437 95.557 173.019C97.2487 174.6 99.4897 175.461 101.805 175.419C104.121 175.377 106.329 174.435 107.961 172.792C109.594 171.15 110.523 168.936 110.552 166.621C110.581 165.505 110.554 164.388 110.554 163.281ZM223.149 167.402C221.363 167.365 219.585 167.392 217.798 167.392C215.862 167.392 213.927 167.317 212 167.421C211.496 167.431 211 167.543 210.54 167.75C210.08 167.956 209.667 168.254 209.325 168.624C208.983 168.994 208.718 169.429 208.548 169.903C208.378 170.378 208.305 170.882 208.334 171.385C208.289 171.889 208.348 172.396 208.507 172.876C208.667 173.356 208.923 173.798 209.261 174.174C209.599 174.551 210.011 174.854 210.471 175.064C210.931 175.274 211.429 175.387 211.935 175.396C213.862 175.531 215.798 175.513 217.722 175.341C219.404 175.177 220.981 174.447 222.194 173.271C223.408 172.094 224.185 170.541 224.401 168.864C224.534 167.637 224.395 167.422 223.147 167.404L223.149 167.402ZM240.475 130.05C239.81 129.988 239.141 129.982 238.475 130.032C238.326 130.033 238.182 130.083 238.064 130.173C237.947 130.264 237.862 130.391 237.824 130.535C237.266 131.967 237.908 133 239.387 133.01C239.685 133.01 239.982 133.02 240.281 133.01C241.23 132.963 241.862 132.527 241.872 131.521C241.877 131.333 241.844 131.145 241.777 130.97C241.709 130.794 241.607 130.633 241.478 130.497C241.348 130.36 241.192 130.251 241.02 130.174C240.848 130.098 240.662 130.056 240.474 130.052L240.475 130.05ZM240.402 125.742C239.748 125.699 239.092 125.693 238.438 125.724C238.012 125.742 237.861 126.049 237.787 126.45C237.517 127.808 237.871 128.19 239.425 128.155C239.71 128.155 240.011 128.173 240.301 128.155C240.466 128.162 240.632 128.133 240.785 128.069C240.939 128.006 241.077 127.911 241.19 127.789C241.303 127.668 241.389 127.523 241.441 127.366C241.493 127.208 241.51 127.041 241.491 126.876C241.495 126.73 241.47 126.585 241.417 126.448C241.364 126.312 241.284 126.188 241.183 126.083C241.081 125.978 240.96 125.895 240.825 125.837C240.691 125.78 240.546 125.75 240.4 125.749L240.402 125.742ZM249.586 126.245C248.892 127.621 248.418 129.096 248.181 130.619C249.08 130.867 250.029 130.864 250.926 130.609C250.686 129.1 250.236 127.631 249.589 126.247L249.586 126.245ZM249.586 126.245C248.892 127.621 248.418 129.096 248.181 130.619C249.08 130.867 250.029 130.864 250.926 130.609C250.686 129.1 250.236 127.631 249.589 126.247L249.586 126.245ZM240.402 125.742C239.748 125.699 239.092 125.693 238.438 125.724C238.012 125.742 237.861 126.049 237.787 126.45C237.517 127.808 237.871 128.19 239.425 128.155C239.71 128.155 240.011 128.173 240.301 128.155C240.466 128.162 240.632 128.133 240.785 128.069C240.939 128.006 241.077 127.911 241.19 127.789C241.303 127.668 241.389 127.523 241.441 127.366C241.493 127.208 241.51 127.041 241.491 126.876C241.495 126.73 241.47 126.585 241.417 126.448C241.364 126.312 241.284 126.188 241.183 126.083C241.081 125.978 240.96 125.895 240.825 125.837C240.691 125.78 240.546 125.75 240.4 125.749L240.402 125.742ZM240.475 130.05C239.81 129.988 239.141 129.982 238.475 130.032C238.326 130.033 238.182 130.083 238.064 130.173C237.947 130.264 237.862 130.391 237.824 130.535C237.266 131.967 237.908 133 239.387 133.01C239.685 133.01 239.982 133.02 240.281 133.01C241.23 132.963 241.862 132.527 241.872 131.521C241.877 131.333 241.844 131.145 241.777 130.97C241.709 130.794 241.607 130.633 241.478 130.497C241.348 130.36 241.192 130.251 241.02 130.174C240.848 130.098 240.662 130.056 240.474 130.052L240.475 130.05ZM223.149 167.402C221.363 167.365 219.585 167.392 217.798 167.392C215.862 167.392 213.927 167.317 212 167.421C211.496 167.431 211 167.543 210.54 167.75C210.08 167.956 209.667 168.254 209.325 168.624C208.983 168.994 208.718 169.429 208.548 169.903C208.378 170.378 208.305 170.882 208.334 171.385C208.289 171.889 208.348 172.396 208.507 172.876C208.667 173.356 208.923 173.798 209.261 174.174C209.599 174.551 210.011 174.854 210.471 175.064C210.931 175.274 211.429 175.387 211.935 175.396C213.862 175.531 215.798 175.513 217.722 175.341C219.404 175.177 220.981 174.447 222.194 173.271C223.408 172.094 224.185 170.541 224.401 168.864C224.534 167.637 224.395 167.422 223.147 167.404L223.149 167.402ZM110.554 163.281C110.554 162.165 110.582 161.048 110.544 159.931C110.517 157.616 109.59 155.402 107.959 153.759C106.328 152.116 104.121 151.172 101.806 151.129C99.4909 151.085 97.25 151.945 95.5581 153.525C93.8662 155.106 92.8563 157.283 92.7425 159.596C92.6077 162.044 92.6077 164.498 92.7425 166.946C92.8558 169.259 93.8653 171.437 95.557 173.019C97.2487 174.6 99.4897 175.461 101.805 175.419C104.121 175.377 106.329 174.435 107.961 172.792C109.594 171.15 110.523 168.936 110.552 166.621C110.581 165.505 110.554 164.388 110.554 163.281ZM110.554 163.281C110.554 162.165 110.582 161.048 110.544 159.931C110.517 157.616 109.59 155.402 107.959 153.759C106.328 152.116 104.121 151.172 101.806 151.129C99.4909 151.085 97.25 151.945 95.5581 153.525C93.8662 155.106 92.8563 157.283 92.7425 159.596C92.6077 162.044 92.6077 164.498 92.7425 166.946C92.8558 169.259 93.8653 171.437 95.557 173.019C97.2487 174.6 99.4897 175.461 101.805 175.419C104.121 175.377 106.329 174.435 107.961 172.792C109.594 171.15 110.523 168.936 110.552 166.621C110.581 165.505 110.554 164.388 110.554 163.281ZM223.149 167.402C221.363 167.365 219.585 167.392 217.798 167.392C215.862 167.392 213.927 167.317 212 167.421C211.496 167.431 211 167.543 210.54 167.75C210.08 167.956 209.667 168.254 209.325 168.624C208.983 168.994 208.718 169.429 208.548 169.903C208.378 170.378 208.305 170.882 208.334 171.385C208.289 171.889 208.348 172.396 208.507 172.876C208.667 173.356 208.923 173.798 209.261 174.174C209.599 174.551 210.011 174.854 210.471 175.064C210.931 175.274 211.429 175.387 211.935 175.396C213.862 175.531 215.798 175.513 217.722 175.341C219.404 175.177 220.981 174.447 222.194 173.271C223.408 172.094 224.185 170.541 224.401 168.864C224.534 167.637 224.395 167.422 223.147 167.404L223.149 167.402ZM240.475 130.05C239.81 129.988 239.141 129.982 238.475 130.032C238.326 130.033 238.182 130.083 238.064 130.173C237.947 130.264 237.862 130.391 237.824 130.535C237.266 131.967 237.908 133 239.387 133.01C239.685 133.01 239.982 133.02 240.281 133.01C241.23 132.963 241.862 132.527 241.872 131.521C241.877 131.333 241.844 131.145 241.777 130.97C241.709 130.794 241.607 130.633 241.478 130.497C241.348 130.36 241.192 130.251 241.02 130.174C240.848 130.098 240.662 130.056 240.474 130.052L240.475 130.05ZM240.402 125.742C239.748 125.699 239.092 125.693 238.438 125.724C238.012 125.742 237.861 126.049 237.787 126.45C237.517 127.808 237.871 128.19 239.425 128.155C239.71 128.155 240.011 128.173 240.301 128.155C240.466 128.162 240.632 128.133 240.785 128.069C240.939 128.006 241.077 127.911 241.19 127.789C241.303 127.668 241.389 127.523 241.441 127.366C241.493 127.208 241.51 127.041 241.491 126.876C241.495 126.73 241.47 126.585 241.417 126.448C241.364 126.312 241.284 126.188 241.183 126.083C241.081 125.978 240.96 125.895 240.825 125.837C240.691 125.78 240.546 125.75 240.4 125.749L240.402 125.742ZM249.586 126.245C248.892 127.621 248.418 129.096 248.181 130.619C249.08 130.867 250.029 130.864 250.926 130.609C250.686 129.1 250.236 127.631 249.589 126.247L249.586 126.245ZM278.042 125.566C276.571 125.529 276.395 125.708 276.358 127.147C276.321 128.868 276.423 128.995 277.968 128.98C278.89 129.009 279.764 128.915 280.21 127.957C280.812 126.674 279.845 125.607 278.039 125.567L278.042 125.566ZM278.042 125.566C276.571 125.529 276.395 125.708 276.358 127.147C276.321 128.868 276.423 128.995 277.968 128.98C278.89 129.009 279.764 128.915 280.21 127.957C280.812 126.674 279.845 125.607 278.039 125.567L278.042 125.566ZM249.586 126.245C248.892 127.621 248.418 129.096 248.181 130.619C249.08 130.867 250.029 130.864 250.926 130.609C250.686 129.1 250.236 127.631 249.589 126.247L249.586 126.245ZM240.402 125.742C239.748 125.699 239.092 125.693 238.438 125.724C238.012 125.742 237.861 126.049 237.787 126.45C237.517 127.808 237.871 128.19 239.425 128.155C239.71 128.155 240.011 128.173 240.301 128.155C240.466 128.162 240.632 128.133 240.785 128.069C240.939 128.006 241.077 127.911 241.19 127.789C241.303 127.668 241.389 127.523 241.441 127.366C241.493 127.208 241.51 127.041 241.491 126.876C241.495 126.73 241.47 126.585 241.417 126.448C241.364 126.312 241.284 126.188 241.183 126.083C241.081 125.978 240.96 125.895 240.825 125.837C240.691 125.78 240.546 125.75 240.4 125.749L240.402 125.742ZM240.475 130.05C239.81 129.988 239.141 129.982 238.475 130.032C238.326 130.033 238.182 130.083 238.064 130.173C237.947 130.264 237.862 130.391 237.824 130.535C237.266 131.967 237.908 133 239.387 133.01C239.685 133.01 239.982 133.02 240.281 133.01C241.23 132.963 241.862 132.527 241.872 131.521C241.877 131.333 241.844 131.145 241.777 130.97C241.709 130.794 241.607 130.633 241.478 130.497C241.348 130.36 241.192 130.251 241.02 130.174C240.848 130.098 240.662 130.056 240.474 130.052L240.475 130.05ZM223.149 167.402C221.363 167.365 219.585 167.392 217.798 167.392C215.862 167.392 213.927 167.317 212 167.421C211.496 167.431 211 167.543 210.54 167.75C210.08 167.956 209.667 168.254 209.325 168.624C208.983 168.994 208.718 169.429 208.548 169.903C208.378 170.378 208.305 170.882 208.334 171.385C208.289 171.889 208.348 172.396 208.507 172.876C208.667 173.356 208.923 173.798 209.261 174.174C209.599 174.551 210.011 174.854 210.471 175.064C210.931 175.274 211.429 175.387 211.935 175.396C213.862 175.531 215.798 175.513 217.722 175.341C219.404 175.177 220.981 174.447 222.194 173.271C223.408 172.094 224.185 170.541 224.401 168.864C224.534 167.637 224.395 167.422 223.147 167.404L223.149 167.402ZM110.554 163.281C110.554 162.165 110.582 161.048 110.544 159.931C110.517 157.616 109.59 155.402 107.959 153.759C106.328 152.116 104.121 151.172 101.806 151.129C99.4909 151.085 97.25 151.945 95.5581 153.525C93.8662 155.106 92.8563 157.283 92.7425 159.596C92.6077 162.044 92.6077 164.498 92.7425 166.946C92.8558 169.259 93.8653 171.437 95.557 173.019C97.2487 174.6 99.4897 175.461 101.805 175.419C104.121 175.377 106.329 174.435 107.961 172.792C109.594 171.15 110.523 168.936 110.552 166.621C110.581 165.505 110.554 164.388 110.554 163.281ZM110.554 163.281C110.554 162.165 110.582 161.048 110.544 159.931C110.517 157.616 109.59 155.402 107.959 153.759C106.328 152.116 104.121 151.172 101.806 151.129C99.4909 151.085 97.25 151.945 95.5581 153.525C93.8662 155.106 92.8563 157.283 92.7425 159.596C92.6077 162.044 92.6077 164.498 92.7425 166.946C92.8558 169.259 93.8653 171.437 95.557 173.019C97.2487 174.6 99.4897 175.461 101.805 175.419C104.121 175.377 106.329 174.435 107.961 172.792C109.594 171.15 110.523 168.936 110.552 166.621C110.581 165.505 110.554 164.388 110.554 163.281ZM223.149 167.402C221.363 167.365 219.585 167.392 217.798 167.392C215.862 167.392 213.927 167.317 212 167.421C211.496 167.431 211 167.543 210.54 167.75C210.08 167.956 209.667 168.254 209.325 168.624C208.983 168.994 208.718 169.429 208.548 169.903C208.378 170.378 208.305 170.882 208.334 171.385C208.289 171.889 208.348 172.396 208.507 172.876C208.667 173.356 208.923 173.798 209.261 174.174C209.599 174.551 210.011 174.854 210.471 175.064C210.931 175.274 211.429 175.387 211.935 175.396C213.862 175.531 215.798 175.513 217.722 175.341C219.404 175.177 220.981 174.447 222.194 173.271C223.408 172.094 224.185 170.541 224.401 168.864C224.534 167.637 224.395 167.422 223.147 167.404L223.149 167.402ZM240.475 130.05C239.81 129.988 239.141 129.982 238.475 130.032C238.326 130.033 238.182 130.083 238.064 130.173C237.947 130.264 237.862 130.391 237.824 130.535C237.266 131.967 237.908 133 239.387 133.01C239.685 133.01 239.982 133.02 240.281 133.01C241.23 132.963 241.862 132.527 241.872 131.521C241.877 131.333 241.844 131.145 241.777 130.97C241.709 130.794 241.607 130.633 241.478 130.497C241.348 130.36 241.192 130.251 241.02 130.174C240.848 130.098 240.662 130.056 240.474 130.052L240.475 130.05ZM240.402 125.742C239.748 125.699 239.092 125.693 238.438 125.724C238.012 125.742 237.861 126.049 237.787 126.45C237.517 127.808 237.871 128.19 239.425 128.155C239.71 128.155 240.011 128.173 240.301 128.155C240.466 128.162 240.632 128.133 240.785 128.069C240.939 128.006 241.077 127.911 241.19 127.789C241.303 127.668 241.389 127.523 241.441 127.366C241.493 127.208 241.51 127.041 241.491 126.876C241.495 126.73 241.47 126.585 241.417 126.448C241.364 126.312 241.284 126.188 241.183 126.083C241.081 125.978 240.96 125.895 240.825 125.837C240.691 125.78 240.546 125.75 240.4 125.749L240.402 125.742ZM249.586 126.245C248.892 127.621 248.418 129.096 248.181 130.619C249.08 130.867 250.029 130.864 250.926 130.609C250.686 129.1 250.236 127.631 249.589 126.247L249.586 126.245ZM278.042 125.566C276.571 125.529 276.395 125.708 276.358 127.147C276.321 128.868 276.423 128.995 277.968 128.98C278.89 129.009 279.764 128.915 280.21 127.957C280.812 126.674 279.845 125.607 278.039 125.567L278.042 125.566ZM278.042 125.566C276.571 125.529 276.395 125.708 276.358 127.147C276.321 128.868 276.423 128.995 277.968 128.98C278.89 129.009 279.764 128.915 280.21 127.957C280.812 126.674 279.845 125.607 278.039 125.567L278.042 125.566ZM249.586 126.245C248.892 127.621 248.418 129.096 248.181 130.619C249.08 130.867 250.029 130.864 250.926 130.609C250.686 129.1 250.236 127.631 249.589 126.247L249.586 126.245ZM240.402 125.742C239.748 125.699 239.092 125.693 238.438 125.724C238.012 125.742 237.861 126.049 237.787 126.45C237.517 127.808 237.871 128.19 239.425 128.155C239.71 128.155 240.011 128.173 240.301 128.155C240.466 128.162 240.632 128.133 240.785 128.069C240.939 128.006 241.077 127.911 241.19 127.789C241.303 127.668 241.389 127.523 241.441 127.366C241.493 127.208 241.51 127.041 241.491 126.876C241.495 126.73 241.47 126.585 241.417 126.448C241.364 126.312 241.284 126.188 241.183 126.083C241.081 125.978 240.96 125.895 240.825 125.837C240.691 125.78 240.546 125.75 240.4 125.749L240.402 125.742ZM240.475 130.05C239.81 129.988 239.141 129.982 238.475 130.032C238.326 130.033 238.182 130.083 238.064 130.173C237.947 130.264 237.862 130.391 237.824 130.535C237.266 131.967 237.908 133 239.387 133.01C239.685 133.01 239.982 133.02 240.281 133.01C241.23 132.963 241.862 132.527 241.872 131.521C241.877 131.333 241.844 131.145 241.777 130.97C241.709 130.794 241.607 130.633 241.478 130.497C241.348 130.36 241.192 130.251 241.02 130.174C240.848 130.098 240.662 130.056 240.474 130.052L240.475 130.05ZM223.149 167.402C221.363 167.365 219.585 167.392 217.798 167.392C215.862 167.392 213.927 167.317 212 167.421C211.496 167.431 211 167.543 210.54 167.75C210.08 167.956 209.667 168.254 209.325 168.624C208.983 168.994 208.718 169.429 208.548 169.903C208.378 170.378 208.305 170.882 208.334 171.385C208.289 171.889 208.348 172.396 208.507 172.876C208.667 173.356 208.923 173.798 209.261 174.174C209.599 174.551 210.011 174.854 210.471 175.064C210.931 175.274 211.429 175.387 211.935 175.396C213.862 175.531 215.798 175.513 217.722 175.341C219.404 175.177 220.981 174.447 222.194 173.271C223.408 172.094 224.185 170.541 224.401 168.864C224.534 167.637 224.395 167.422 223.147 167.404L223.149 167.402ZM110.554 163.281C110.554 162.165 110.582 161.048 110.544 159.931C110.517 157.616 109.59 155.402 107.959 153.759C106.328 152.116 104.121 151.172 101.806 151.129C99.4909 151.085 97.25 151.945 95.5581 153.525C93.8662 155.106 92.8563 157.283 92.7425 159.596C92.6077 162.044 92.6077 164.498 92.7425 166.946C92.8558 169.259 93.8653 171.437 95.557 173.019C97.2487 174.6 99.4897 175.461 101.805 175.419C104.121 175.377 106.329 174.435 107.961 172.792C109.594 171.15 110.523 168.936 110.552 166.621C110.581 165.505 110.554 164.388 110.554 163.281ZM110.554 163.281C110.554 162.165 110.582 161.048 110.544 159.931C110.517 157.616 109.59 155.402 107.959 153.759C106.328 152.116 104.121 151.172 101.806 151.129C99.4909 151.085 97.25 151.945 95.5581 153.525C93.8662 155.106 92.8563 157.283 92.7425 159.596C92.6077 162.044 92.6077 164.498 92.7425 166.946C92.8558 169.259 93.8653 171.437 95.557 173.019C97.2487 174.6 99.4897 175.461 101.805 175.419C104.121 175.377 106.329 174.435 107.961 172.792C109.594 171.15 110.523 168.936 110.552 166.621C110.581 165.505 110.554 164.388 110.554 163.281ZM223.149 167.402C221.363 167.365 219.585 167.392 217.798 167.392C215.862 167.392 213.927 167.317 212 167.421C211.496 167.431 211 167.543 210.54 167.75C210.08 167.956 209.667 168.254 209.325 168.624C208.983 168.994 208.718 169.429 208.548 169.903C208.378 170.378 208.305 170.882 208.334 171.385C208.289 171.889 208.348 172.396 208.507 172.876C208.667 173.356 208.923 173.798 209.261 174.174C209.599 174.551 210.011 174.854 210.471 175.064C210.931 175.274 211.429 175.387 211.935 175.396C213.862 175.531 215.798 175.513 217.722 175.341C219.404 175.177 220.981 174.447 222.194 173.271C223.408 172.094 224.185 170.541 224.401 168.864C224.534 167.637 224.395 167.422 223.147 167.404L223.149 167.402ZM240.475 130.05C239.81 129.988 239.141 129.982 238.475 130.032C238.326 130.033 238.182 130.083 238.064 130.173C237.947 130.264 237.862 130.391 237.824 130.535C237.266 131.967 237.908 133 239.387 133.01C239.685 133.01 239.982 133.02 240.281 133.01C241.23 132.963 241.862 132.527 241.872 131.521C241.877 131.333 241.844 131.145 241.777 130.97C241.709 130.794 241.607 130.633 241.478 130.497C241.348 130.36 241.192 130.251 241.02 130.174C240.848 130.098 240.662 130.056 240.474 130.052L240.475 130.05ZM240.402 125.742C239.748 125.699 239.092 125.693 238.438 125.724C238.012 125.742 237.861 126.049 237.787 126.45C237.517 127.808 237.871 128.19 239.425 128.155C239.71 128.155 240.011 128.173 240.301 128.155C240.466 128.162 240.632 128.133 240.785 128.069C240.939 128.006 241.077 127.911 241.19 127.789C241.303 127.668 241.389 127.523 241.441 127.366C241.493 127.208 241.51 127.041 241.491 126.876C241.495 126.73 241.47 126.585 241.417 126.448C241.364 126.312 241.284 126.188 241.183 126.083C241.081 125.978 240.96 125.895 240.825 125.837C240.691 125.78 240.546 125.75 240.4 125.749L240.402 125.742ZM248.59 140.287C247.881 141.551 247.426 142.941 247.25 144.38C248.107 144.682 249.041 144.675 249.893 144.362C249.786 142.921 249.341 141.526 248.595 140.288L248.59 140.287ZM249.585 126.245C248.891 127.621 248.417 129.096 248.18 130.619C249.078 130.867 250.028 130.864 250.925 130.609C250.685 129.1 250.235 127.632 249.589 126.247L249.585 126.245ZM278.04 125.566C276.57 125.529 276.393 125.708 276.356 127.147C276.32 128.868 276.422 128.995 277.966 128.98C278.889 129.009 279.762 128.915 280.209 127.957C280.812 126.674 279.845 125.607 278.039 125.567L278.04 125.566ZM278.04 125.566C276.57 125.529 276.393 125.708 276.356 127.147C276.32 128.868 276.422 128.995 277.966 128.98C278.889 129.009 279.762 128.915 280.209 127.957C280.812 126.674 279.845 125.607 278.039 125.567L278.04 125.566ZM249.585 126.245C248.891 127.621 248.417 129.096 248.18 130.619C249.078 130.867 250.028 130.864 250.925 130.609C250.685 129.1 250.235 127.632 249.589 126.247L249.585 126.245ZM248.59 140.287C247.881 141.551 247.426 142.941 247.25 144.38C248.107 144.682 249.041 144.675 249.893 144.362C249.786 142.921 249.341 141.526 248.595 140.288L248.59 140.287ZM239.424 128.162C239.708 128.162 240.009 128.181 240.299 128.162C240.465 128.169 240.63 128.14 240.784 128.077C240.937 128.013 241.075 127.918 241.189 127.796C241.302 127.675 241.387 127.53 241.439 127.373C241.491 127.215 241.509 127.048 241.49 126.883C241.496 126.736 241.473 126.589 241.421 126.451C241.37 126.312 241.291 126.186 241.189 126.079C241.088 125.972 240.965 125.887 240.83 125.828C240.695 125.77 240.549 125.739 240.402 125.738C239.748 125.695 239.092 125.688 238.438 125.719C238.012 125.738 237.861 126.045 237.787 126.446C237.511 127.81 237.868 128.19 239.423 128.165L239.424 128.162ZM240.475 130.052C239.81 129.99 239.141 129.984 238.475 130.033C238.326 130.034 238.182 130.084 238.064 130.175C237.947 130.266 237.862 130.393 237.824 130.536C237.266 131.969 237.908 133.002 239.387 133.012C239.685 133.012 239.982 133.022 240.281 133.012C241.23 132.965 241.862 132.529 241.872 131.522C241.877 131.334 241.845 131.147 241.777 130.971C241.71 130.795 241.607 130.633 241.478 130.497C241.348 130.36 241.192 130.251 241.02 130.174C240.848 130.098 240.662 130.056 240.474 130.052H240.475ZM223.149 167.404C221.363 167.367 219.585 167.394 217.798 167.394C215.862 167.394 213.927 167.318 212 167.422C211.496 167.432 211 167.544 210.54 167.751C210.08 167.958 209.667 168.255 209.325 168.625C208.983 168.995 208.718 169.43 208.548 169.905C208.378 170.379 208.305 170.883 208.334 171.386C208.289 171.89 208.348 172.398 208.507 172.878C208.667 173.358 208.923 173.8 209.261 174.176C209.599 174.552 210.011 174.855 210.471 175.065C210.931 175.275 211.429 175.389 211.935 175.398C213.862 175.533 215.798 175.514 217.722 175.342C219.404 175.179 220.981 174.449 222.194 173.272C223.408 172.096 224.185 170.542 224.401 168.866C224.534 167.637 224.395 167.422 223.147 167.404H223.149ZM110.554 163.283C110.554 162.166 110.582 161.049 110.544 159.932C110.517 157.617 109.59 155.403 107.959 153.76C106.328 152.117 104.121 151.174 101.806 151.13C99.4909 151.087 97.25 151.946 95.5581 153.527C93.8662 155.107 92.8563 157.285 92.7425 159.597C92.6077 162.045 92.6077 164.499 92.7425 166.947C92.8558 169.261 93.8653 171.439 95.557 173.02C97.2487 174.602 99.4897 175.463 101.805 175.42C104.121 175.378 106.329 174.436 107.961 172.794C109.594 171.151 110.523 168.938 110.552 166.622C110.581 165.505 110.554 164.388 110.554 163.281V163.283ZM319.895 128.658C317.969 113.048 313.217 97.9191 305.872 84.0112C295.005 63.5345 279.377 45.969 260.303 32.7942C229.837 11.3454 195.724 0.97983 158.642 0.0391814C147.628 -0.194639 136.617 0.618464 125.758 2.46753C106.475 5.56435 87.9178 12.1484 70.9953 21.8972C45.5168 36.6932 26.0232 57.1275 13.3671 83.8493C3.67076 104.32 -0.415801 125.994 0.033209 151.211C0.17194 166.478 1.40658 181.716 3.72761 196.807C5.81671 211.006 9.15458 224.993 13.7024 238.606C19.1645 254.611 26.414 269.714 36.845 283.142C47.3697 296.682 60.2475 307.223 76.2158 313.737C92.6984 320.475 109.883 322.056 127.47 320.39C137.832 319.364 148.08 317.396 158.085 314.508C177.829 308.805 196.763 300.603 214.429 290.101C242.605 273.556 267.479 253.103 287.89 227.439C298.116 214.817 306.451 200.773 312.633 185.75C320.168 167.727 322.679 147.999 319.901 128.662L319.895 128.658ZM51.1849 149.577C51.2047 149.782 51.1789 149.99 51.1094 150.185C51.0399 150.379 50.9283 150.556 50.7826 150.703C50.6369 150.85 50.4606 150.962 50.2664 151.033C50.0722 151.104 49.8647 151.131 49.6588 151.113C48.7651 151.15 47.8727 151.178 46.979 151.131C45.8905 151.066 45.5183 151.577 45.5921 152.592C45.6291 153.113 45.6021 153.635 45.6021 154.155V179.589C45.6021 180.185 45.612 180.78 45.5552 181.367C45.5552 181.574 45.5133 181.778 45.432 181.968C45.3506 182.158 45.2316 182.33 45.082 182.473C44.9324 182.615 44.7554 182.726 44.5617 182.798C44.368 182.871 44.1617 182.903 43.9552 182.893C42.6252 182.921 41.2754 182.958 39.9454 182.893C38.5586 182.819 38.2048 182.418 38.1778 180.892C38.1408 178.742 38.1678 176.584 38.1678 174.426V166.842C38.1678 162.162 38.1778 157.471 38.1579 152.791C38.1579 151.199 38.1209 151.191 36.548 151.144C35.7295 151.116 34.9097 151.144 34.1012 151.134C33.8767 151.163 33.6487 151.14 33.4346 151.067C33.2205 150.994 33.026 150.872 32.866 150.712C32.706 150.552 32.5848 150.358 32.5118 150.144C32.4387 149.93 32.4156 149.702 32.4444 149.477C32.4444 148.072 32.4159 146.658 32.4628 145.243C32.4478 145.037 32.478 144.83 32.5513 144.636C32.6245 144.443 32.7391 144.268 32.887 144.123C33.0348 143.979 33.2125 143.868 33.4075 143.8C33.6024 143.731 33.8101 143.706 34.0159 143.725C34.9086 143.679 35.8031 143.679 36.6958 143.725C37.905 143.828 38.2133 143.261 38.1849 142.152C38.1295 139.63 38.2133 137.1 38.1479 134.569C38.0801 134.133 38.1679 133.687 38.396 133.309C38.6241 132.931 38.978 132.646 39.3955 132.503C40.3631 132.112 41.2569 131.562 42.2061 131.135C44.5421 130.093 45.5751 130.734 45.5935 133.247C45.622 136.231 45.6305 139.203 45.5836 142.171C45.5651 143.296 45.909 143.828 47.1097 143.725C48.0022 143.674 48.897 143.674 49.7895 143.725C49.9768 143.709 50.1653 143.734 50.3419 143.799C50.5184 143.863 50.6788 143.966 50.8117 144.099C50.9446 144.231 51.0468 144.392 51.1113 144.568C51.1758 144.745 51.2009 144.933 51.1849 145.121C51.2048 146.607 51.1948 148.096 51.1849 149.575V149.577ZM78.8487 149.194C78.8019 150.692 78.4765 151.009 77.0257 151.13C76.7281 151.148 76.4296 151.148 76.1319 151.13C75.0721 151.063 74.0102 151.226 73.0193 151.608C72.0283 151.99 71.1317 152.581 70.391 153.342C69.6502 154.103 69.0829 155.016 68.7278 156.016C68.3727 157.017 68.2384 158.083 68.3339 159.141C68.5201 164.114 68.3808 169.107 68.3808 174.086C68.3808 176.236 68.4092 178.394 68.3709 180.553C68.3339 182.506 67.9517 182.86 65.988 182.897C65.1781 182.916 64.3596 182.907 63.5412 182.897C61.1967 182.879 60.9551 182.656 60.9551 180.375C60.9366 174.652 60.9452 168.93 60.9452 163.206C60.9452 157.409 60.9452 151.609 60.9452 145.806C60.9452 144.953 60.9452 144.112 61.9313 143.805C62.3165 143.654 62.7401 143.631 63.1393 143.74C63.5384 143.849 63.8917 144.084 64.1465 144.41C64.2919 144.577 64.447 144.736 64.6111 144.885C64.8932 145.13 65.1577 145.394 65.4026 145.676C66.1557 146.671 66.7979 146.813 67.9332 145.973C70.6864 144.148 73.9917 143.343 77.2758 143.7C77.4989 143.678 77.7241 143.707 77.9339 143.786C78.1436 143.865 78.3324 143.992 78.4854 144.156C78.6384 144.319 78.7515 144.516 78.816 144.731C78.8805 144.946 78.8946 145.172 78.8573 145.394C78.8502 146.662 78.8871 147.927 78.8502 149.194H78.8487ZM117.755 168.945C117.171 172.922 115.135 176.542 112.04 179.106C108.944 181.67 105.009 182.997 100.993 182.83C96.9767 182.664 93.1647 181.016 90.2922 178.204C87.4196 175.393 85.6902 171.617 85.4375 167.605C85.3537 166.126 85.4191 164.637 85.4191 163.148H85.3907C85.3907 161.957 85.3537 160.765 85.3907 159.584C85.4762 155.656 86.9801 151.892 89.6247 148.986C92.2693 146.081 95.8759 144.23 99.7786 143.776C103.681 143.323 107.616 144.296 110.857 146.518C114.098 148.739 116.425 152.058 117.41 155.861C117.706 156.861 117.884 157.891 117.94 158.932C118.13 162.27 118.069 165.617 117.756 168.945H117.755ZM153.636 173.272C152.984 178.671 149.515 181.907 144.099 182.615C140.481 183.083 136.818 183.077 133.202 182.596C132.392 182.492 131.594 182.308 130.82 182.048C127.238 180.828 126.158 178.995 126.809 175.311C127.042 173.999 127.721 173.523 129.024 174.073C133.305 175.859 137.79 175.413 142.239 175.403C142.986 175.393 143.719 175.194 144.37 174.826C145.008 174.507 145.536 174.004 145.886 173.382C146.236 172.76 146.392 172.048 146.334 171.337C146.336 170.66 146.116 170.002 145.707 169.463C145.299 168.924 144.725 168.534 144.073 168.353C142.446 167.831 140.762 167.506 139.057 167.385C137.28 167.19 135.505 166.986 133.753 166.659C126.44 165.328 123.758 160.526 124.517 153.302C125.112 147.683 129.206 144.127 135.107 143.745C136.596 143.653 138.091 143.735 139.573 143.735C141.724 143.564 143.888 143.693 146.003 144.118C146.722 144.298 147.428 144.528 148.116 144.807C151.27 146.175 152.236 148.315 151.252 151.627C151.185 151.959 150.991 152.251 150.711 152.441C150.431 152.631 150.087 152.703 149.754 152.642C149.604 152.643 149.455 152.614 149.316 152.558C145.362 150.772 141.165 151.152 137.015 151.137C135.97 151.071 134.923 151.243 133.953 151.64C133.301 151.925 132.751 152.402 132.375 153.007C132 153.612 131.817 154.316 131.85 155.027C131.808 155.702 131.983 156.372 132.35 156.94C132.717 157.508 133.256 157.943 133.888 158.182C135.477 158.817 137.154 159.203 138.861 159.327C141.006 159.55 143.134 159.904 145.235 160.387C151.711 161.96 154.474 166.325 153.637 173.276L153.636 173.272ZM193.612 180.519C193.612 182.566 193.314 182.845 191.314 182.892C190.347 182.91 189.379 182.92 188.412 182.892C186.652 182.836 186.272 182.435 186.196 180.602C186.178 180.081 186.186 179.559 186.186 179.039C186.186 171.818 186.176 164.597 186.196 157.386C186.277 156.532 186.17 155.671 185.884 154.863C185.598 154.055 185.139 153.319 184.54 152.706C184.081 152.211 183.509 151.834 182.874 151.607C176.138 149.68 170.033 152.855 170.015 159.833C169.996 166.533 170.015 173.232 170.005 179.932C170.005 182.788 169.903 182.89 166.943 182.9C166.274 182.9 165.603 182.91 164.932 182.89C163.015 182.835 162.745 182.592 162.727 180.675C162.709 177.101 162.717 173.528 162.717 169.956V156.796C162.717 149.129 162.72 141.465 162.727 133.803C162.727 133.208 162.709 132.612 162.745 132.016C162.733 131.847 162.756 131.677 162.815 131.519C162.873 131.36 162.965 131.216 163.084 131.096C163.203 130.975 163.347 130.882 163.505 130.823C163.664 130.763 163.833 130.738 164.002 130.75C165.565 130.721 167.128 130.713 168.691 130.75C169.593 130.768 169.994 131.355 169.994 132.22C170.004 135.868 169.994 139.515 170.004 143.161C169.891 143.974 169.553 144.738 169.026 145.367C168.803 145.749 168.486 146.148 168.971 146.53C169.38 146.866 169.621 146.438 169.901 146.246C174.582 143.036 179.737 142.998 184.882 144.469C187.441 145.236 189.678 146.819 191.254 148.976C192.83 151.133 193.658 153.746 193.611 156.417C193.649 164.445 193.631 172.485 193.612 180.524V180.519ZM230.982 182.742C229.902 183.207 229.168 182.622 228.442 181.89C227.716 181.158 227.163 180.043 226.116 179.936C225.176 179.844 224.469 180.83 223.612 181.248C222.226 181.968 220.723 182.437 219.173 182.634C216.149 183.041 213.084 183.029 210.063 182.597C207.464 182.082 205.125 180.678 203.448 178.627C201.77 176.575 200.858 174.005 200.868 171.355C200.878 168.705 201.809 166.141 203.502 164.102C205.195 162.064 207.544 160.677 210.147 160.181C212.886 159.916 215.64 159.842 218.389 159.958C219.952 159.921 221.515 159.903 223.069 159.968C224.158 160.005 224.54 159.549 224.456 158.517C224.401 157.773 224.484 157.028 224.438 156.283C224.42 154.999 223.921 153.769 223.038 152.836C222.155 151.904 220.954 151.337 219.673 151.249C215.169 151.063 210.609 150.625 206.246 152.413C204.916 152.961 204.337 152.515 204.198 151.054C204.161 150.608 204.188 150.161 204.188 149.715C204.178 146.523 204.532 145.983 207.482 144.727C210.953 143.238 220.686 143.193 224.138 144.783C226.492 145.768 228.492 147.443 229.876 149.588C231.26 151.732 231.961 154.245 231.889 156.796C231.981 160.667 231.907 164.529 231.907 168.4C231.907 172.411 231.897 176.429 231.907 180.441C231.913 181.353 232.015 182.302 230.982 182.748V182.742ZM243.042 139.276C242.874 140.086 242.297 139.741 241.804 139.677C238.203 139.258 237.878 139.565 237.878 143.259C237.878 143.781 237.85 144.301 237.888 144.814C238 146.293 238.465 146.749 239.962 146.843C240.707 146.88 241.452 146.843 242.196 146.861C242.343 146.843 242.492 146.873 242.62 146.947C242.748 147.021 242.849 147.135 242.907 147.271C242.961 147.41 242.964 147.565 242.915 147.706C242.865 147.848 242.767 147.967 242.637 148.042C241.991 148.415 241.27 148.639 240.526 148.698C239.783 148.758 239.035 148.651 238.338 148.386C237.724 148.212 237.181 147.848 236.787 147.347C236.393 146.845 236.167 146.231 236.143 145.594C236.068 144.784 236.133 143.957 236.133 143.147H236.105C236.105 142.626 236.133 142.104 236.105 141.584C235.91 137.843 239.585 136.977 242.303 138.057C242.558 138.131 242.775 138.299 242.912 138.526C243.049 138.753 243.095 139.024 243.042 139.284V139.276ZM240.39 134.772C239.283 134.828 238.166 134.762 237.06 134.782C236.287 134.801 235.998 134.438 236.008 133.704C236.018 132.224 236.008 130.735 236.008 129.256C236.008 127.851 236.027 126.437 235.998 125.032C235.98 124.203 236.305 123.766 237.152 123.784C238.263 123.747 239.375 123.775 240.483 123.868C240.952 123.878 241.413 124.001 241.825 124.227C242.237 124.453 242.589 124.774 242.851 125.164C243.113 125.554 243.277 126.001 243.33 126.468C243.382 126.935 243.322 127.408 243.154 127.847C243.04 128.216 243 128.604 243.037 128.989C243.073 129.374 243.186 129.747 243.367 130.089C243.625 130.588 243.747 131.146 243.722 131.708C243.697 132.269 243.526 132.814 243.225 133.288C242.924 133.763 242.503 134.15 242.006 134.412C241.509 134.673 240.952 134.8 240.39 134.779V134.772ZM252.617 148.48C252.478 148.537 252.328 148.564 252.178 148.557C252.027 148.55 251.88 148.51 251.747 148.44C251.614 148.37 251.498 148.271 251.407 148.151C251.316 148.031 251.253 147.892 251.222 147.745C250.999 147.158 250.952 146.34 250.085 146.274C248.98 146.126 247.859 146.154 246.763 146.358C246.195 146.5 246.158 147.168 245.973 147.624C245.758 148.154 245.507 148.555 244.828 148.537C244.739 148.552 244.648 148.548 244.562 148.524C244.475 148.5 244.395 148.457 244.327 148.398C244.259 148.339 244.205 148.266 244.169 148.184C244.132 148.102 244.115 148.013 244.117 147.923C244.123 147.702 244.171 147.484 244.259 147.28C245.245 144.396 246.242 141.52 247.218 138.636C247.459 137.925 247.795 137.482 248.639 137.51C248.934 137.496 249.225 137.589 249.457 137.771C249.69 137.954 249.849 138.215 249.905 138.505C250.882 141.389 251.894 144.265 252.889 147.15C253.036 147.62 253.315 148.235 252.617 148.484V148.48ZM253.566 134.717C253.12 134.828 252.486 134.828 252.403 134.373C251.993 132.178 250.374 132.466 248.829 132.466C247.917 132.456 247.248 132.608 247.024 133.638C246.934 133.996 246.752 134.323 246.494 134.587C246.347 134.703 246.171 134.775 245.985 134.795C245.799 134.815 245.611 134.782 245.443 134.7C244.987 134.532 245.024 134.141 245.145 133.779C246.206 130.689 247.273 127.606 248.346 124.529C248.434 124.282 248.604 124.074 248.827 123.938C249.051 123.802 249.314 123.748 249.574 123.784C249.832 123.746 250.095 123.802 250.316 123.942C250.536 124.082 250.699 124.297 250.774 124.547C251.808 127.562 252.844 130.574 253.882 133.583C253.915 133.708 253.939 133.836 253.956 133.965C253.986 134.352 253.902 134.64 253.568 134.724L253.566 134.717ZM260.257 139.518C259.523 139.536 258.778 139.508 258.034 139.536C256.555 139.583 256.35 139.843 256.434 141.202C256.489 141.928 256.769 142.29 257.512 142.28C258.331 142.272 259.141 142.28 259.959 142.299C260.444 142.299 260.843 142.466 260.861 143.033C260.88 143.6 260.665 144.056 259.996 144.076C259.401 144.095 258.815 144.086 258.218 144.095C256.488 144.132 256.488 144.132 256.441 145.77C256.431 146.216 256.459 146.664 256.431 147.11C256.384 147.734 256.573 148.544 255.556 148.589C254.494 148.636 254.672 147.816 254.662 147.184C254.633 145.854 254.652 144.522 254.652 143.183C254.652 141.777 254.68 140.372 254.642 138.967C254.614 138.046 254.926 137.58 255.908 137.598C257.397 137.635 258.876 137.608 260.355 137.617C261.008 137.627 261.528 137.794 261.501 138.611C261.467 139.478 260.871 139.515 260.257 139.532V139.518ZM261.477 133.888C260.826 132.894 260.09 131.962 259.402 130.985C259.067 130.521 258.658 130.222 258.091 130.455C257.598 130.669 257.653 131.181 257.634 131.619C257.616 132.438 257.625 133.247 257.588 134.066C257.592 134.159 257.576 134.251 257.543 134.338C257.509 134.424 257.458 134.503 257.392 134.568C257.327 134.634 257.248 134.685 257.162 134.719C257.075 134.752 256.983 134.768 256.89 134.764C256.397 134.782 256.015 134.622 255.922 134.076C255.877 133.784 255.855 133.488 255.857 133.192V125.394C255.857 125.171 255.865 124.948 255.875 124.725C255.863 124.594 255.881 124.463 255.928 124.34C255.974 124.218 256.049 124.107 256.145 124.018C256.241 123.929 256.357 123.864 256.482 123.826C256.608 123.789 256.741 123.782 256.87 123.804C257.438 123.832 257.605 124.223 257.615 124.716C257.633 125.61 257.633 126.502 257.643 127.386C257.643 127.777 257.698 128.178 258.081 128.335C258.289 128.422 258.522 128.43 258.736 128.359C258.95 128.287 259.131 128.14 259.244 127.945C259.989 126.922 260.705 125.879 261.44 124.856C261.738 124.436 261.98 123.943 262.557 123.841C262.994 123.757 263.477 123.655 263.784 124.083C264.054 124.465 263.71 124.772 263.5 125.06C262.774 126.093 262.068 127.145 261.276 128.121C261.109 128.265 260.974 128.443 260.881 128.643C260.787 128.842 260.737 129.06 260.733 129.281C260.73 129.501 260.773 129.72 260.86 129.923C260.948 130.126 261.077 130.308 261.239 130.457C261.965 131.309 262.569 132.243 263.212 133.157C263.496 133.576 263.938 133.948 263.705 134.577C263.516 134.688 263.306 134.759 263.088 134.784C262.871 134.809 262.65 134.789 262.441 134.725C262.232 134.661 262.038 134.554 261.872 134.412C261.706 134.269 261.571 134.093 261.477 133.895V133.888ZM266.259 142.29C267.078 142.253 267.898 142.28 268.716 142.309C268.828 142.3 268.94 142.316 269.044 142.357C269.148 142.398 269.242 142.461 269.318 142.543C269.394 142.626 269.451 142.724 269.484 142.831C269.517 142.938 269.525 143.051 269.508 143.161C269.498 143.673 269.312 144.037 268.763 144.064C267.953 144.092 267.135 144.137 266.316 144.092C265.302 144.027 265.06 144.53 265.079 145.442C265.097 146.27 265.162 146.912 266.251 146.863C267.209 146.816 268.176 146.863 269.145 146.873C269.759 146.873 270.123 147.124 270.103 147.793C270.085 148.504 269.638 148.646 269.061 148.646C267.498 148.646 265.944 148.628 264.381 148.656C263.469 148.674 263.254 148.181 263.274 147.39C263.302 145.985 263.284 144.571 263.274 143.166C263.274 141.826 263.311 140.486 263.264 139.154C263.227 138.168 263.516 137.6 264.614 137.628C266.103 137.657 267.582 137.638 269.071 137.638C269.648 137.638 270.076 137.816 270.113 138.503C270.16 139.303 269.694 139.536 269.006 139.536C268.122 139.546 267.228 139.583 266.336 139.536C265.342 139.49 265.07 139.983 265.08 140.895C265.096 141.72 265.189 142.363 266.259 142.297V142.29ZM268.995 128.482C269.655 128.426 270.326 128.482 270.995 128.482C271.498 128.492 271.861 128.668 271.879 129.235C271.916 129.859 271.646 130.221 270.995 130.229C270.345 130.238 269.655 130.295 268.995 130.239C267.906 130.147 267.589 130.612 267.574 131.66C267.564 132.786 268.067 133.081 269.063 133.019C269.957 132.963 270.849 133.009 271.743 133.019C271.872 132.999 272.004 133.011 272.128 133.054C272.251 133.096 272.363 133.168 272.452 133.263C272.542 133.359 272.607 133.474 272.643 133.6C272.678 133.726 272.682 133.858 272.655 133.986C272.662 134.097 272.644 134.209 272.603 134.312C272.561 134.415 272.498 134.508 272.416 134.584C272.335 134.66 272.237 134.716 272.131 134.75C272.025 134.783 271.913 134.793 271.802 134.778C270.174 134.788 268.534 134.768 266.907 134.788C266.163 134.798 265.829 134.462 265.829 133.728C265.839 132.239 265.829 130.759 265.829 129.27H265.819C265.819 127.93 265.856 126.599 265.809 125.259C265.772 124.264 266.069 123.723 267.177 123.761C268.583 123.808 269.996 123.771 271.412 123.78C272.017 123.788 272.631 123.817 272.659 124.674C272.696 125.678 271.98 125.668 271.301 125.678C270.556 125.697 269.812 125.725 269.077 125.688C268.082 125.623 267.56 125.93 267.578 127.047C267.599 128.061 267.888 128.591 268.995 128.489V128.482ZM281.111 131.943C281.413 132.454 281.671 132.989 281.884 133.543C282.052 133.944 282.31 134.445 281.742 134.688C281.516 134.826 281.244 134.869 280.987 134.808C280.729 134.747 280.506 134.587 280.365 134.363C279.91 133.516 279.512 132.639 279.174 131.738C279.065 131.386 278.828 131.086 278.509 130.898C278.191 130.711 277.814 130.649 277.452 130.724C276.699 130.752 276.382 131.059 276.391 131.794C276.399 132.529 276.391 133.283 276.354 134.018C276.325 134.548 275.991 134.772 275.46 134.762C274.928 134.752 274.607 134.521 274.595 133.981C274.576 132.428 274.585 130.873 274.585 129.319H274.566C274.566 127.898 274.595 126.5 274.556 125.094C274.528 124.145 274.957 123.736 275.878 123.773C276.99 123.741 278.102 123.785 279.208 123.904C279.82 123.97 280.401 124.202 280.889 124.575C281.378 124.949 281.755 125.449 281.979 126.021C282.204 126.593 282.267 127.216 282.163 127.822C282.058 128.428 281.79 128.994 281.387 129.458C281.022 129.754 280.789 130.181 280.737 130.647C280.686 131.114 280.82 131.582 281.111 131.95V131.943ZM291.484 125.002C290.831 126.575 290.205 128.165 289.52 129.719C288.932 130.841 288.639 132.093 288.667 133.358C288.723 134.001 288.809 134.745 287.765 134.779C286.816 134.808 286.601 134.221 286.677 133.5C286.706 131.937 286.324 130.394 285.57 129.025C285.03 127.722 284.463 126.438 283.941 125.126C283.755 124.651 283.515 124.074 284.248 123.847C284.491 123.741 284.765 123.732 285.014 123.821C285.264 123.911 285.469 124.093 285.588 124.33C285.787 124.728 285.961 125.138 286.11 125.557L287.673 129.717C288.296 128.088 288.855 126.646 289.422 125.212C289.56 124.796 289.761 124.404 290.017 124.048C290.179 123.889 290.388 123.787 290.613 123.757C290.838 123.727 291.067 123.77 291.265 123.881C291.859 124.125 291.648 124.59 291.486 125.009L291.484 125.002ZM278.037 125.56C276.567 125.523 276.391 125.702 276.354 127.142C276.317 128.863 276.419 128.989 277.964 128.975C278.886 129.003 279.76 128.909 280.206 127.952C280.812 126.674 279.845 125.607 278.039 125.567L278.037 125.56ZM248.177 130.613C249.075 130.862 250.025 130.858 250.922 130.603C250.68 129.093 250.229 127.625 249.582 126.24C248.888 127.617 248.414 129.095 248.178 130.62L248.177 130.613ZM247.246 144.376C248.102 144.677 249.037 144.671 249.889 144.358C249.78 142.916 249.334 141.52 248.586 140.282C247.877 141.548 247.423 142.941 247.249 144.382L247.246 144.376ZM239.423 128.165C239.707 128.165 240.008 128.183 240.298 128.165C240.464 128.172 240.629 128.142 240.783 128.079C240.936 128.016 241.074 127.921 241.187 127.799C241.3 127.678 241.386 127.533 241.438 127.376C241.49 127.218 241.507 127.051 241.489 126.886C241.495 126.739 241.472 126.592 241.42 126.453C241.368 126.315 241.289 126.189 241.188 126.082C241.086 125.975 240.964 125.89 240.829 125.831C240.693 125.773 240.548 125.742 240.4 125.741C239.746 125.697 239.091 125.691 238.436 125.722C238.01 125.741 237.86 126.048 237.786 126.448C237.511 127.81 237.868 128.19 239.423 128.165ZM240.474 130.055C239.809 129.993 239.14 129.986 238.473 130.036C238.325 130.037 238.181 130.087 238.063 130.178C237.945 130.269 237.861 130.396 237.823 130.539C237.264 131.971 237.906 133.005 239.386 133.014C239.684 133.014 239.981 133.024 240.279 133.014C241.229 132.968 241.861 132.531 241.871 131.525C241.876 131.337 241.844 131.149 241.777 130.973C241.709 130.797 241.608 130.636 241.478 130.499C241.348 130.362 241.192 130.251 241.02 130.174C240.848 130.098 240.662 130.056 240.474 130.052V130.055ZM223.147 167.406C221.361 167.369 219.584 167.396 217.796 167.396C215.861 167.396 213.926 167.321 211.999 167.425C211.495 167.435 210.998 167.547 210.539 167.754C210.079 167.961 209.666 168.258 209.323 168.628C208.981 168.998 208.717 169.433 208.547 169.908C208.377 170.382 208.304 170.886 208.333 171.389C208.287 171.893 208.346 172.401 208.506 172.881C208.665 173.36 208.922 173.802 209.26 174.179C209.598 174.555 210.009 174.858 210.469 175.068C210.929 175.278 211.428 175.391 211.933 175.4C213.861 175.535 215.796 175.517 217.721 175.345C219.403 175.181 220.98 174.452 222.193 173.275C223.406 172.098 224.184 170.545 224.399 168.869C224.534 167.637 224.395 167.422 223.147 167.404V167.406ZM110.544 159.934C110.517 157.619 109.59 155.405 107.959 153.762C106.328 152.119 104.121 151.175 101.806 151.132C99.4909 151.088 97.25 151.948 95.5581 153.528C93.8662 155.109 92.8563 157.286 92.7425 159.598C92.6077 162.047 92.6077 164.501 92.7425 166.949C92.8558 169.262 93.8653 171.44 95.557 173.022C97.2487 174.603 99.4897 175.464 101.805 175.422C104.121 175.38 106.329 174.437 107.961 172.795C109.594 171.153 110.523 168.939 110.552 166.623C110.581 165.507 110.552 164.39 110.552 163.283C110.552 162.176 110.581 161.048 110.544 159.931V159.934ZM110.554 163.284C110.554 162.167 110.582 161.051 110.544 159.934C110.517 157.619 109.59 155.405 107.959 153.762C106.328 152.119 104.121 151.175 101.806 151.132C99.4909 151.088 97.25 151.948 95.5581 153.528C93.8662 155.109 92.8563 157.286 92.7425 159.598C92.6077 162.047 92.6077 164.501 92.7425 166.949C92.8558 169.262 93.8653 171.44 95.557 173.022C97.2487 174.603 99.4897 175.464 101.805 175.422C104.121 175.38 106.329 174.437 107.961 172.795C109.594 171.153 110.523 168.939 110.552 166.623C110.581 165.505 110.554 164.388 110.554 163.281V163.284ZM223.149 167.405C221.363 167.368 219.585 167.395 217.798 167.395C215.862 167.395 213.927 167.32 212 167.423C211.496 167.434 211 167.546 210.54 167.753C210.08 167.959 209.667 168.257 209.325 168.627C208.983 168.997 208.718 169.432 208.548 169.906C208.378 170.381 208.305 170.885 208.334 171.388C208.289 171.892 208.348 172.399 208.507 172.879C208.667 173.359 208.923 173.801 209.261 174.177C209.599 174.554 210.011 174.856 210.471 175.067C210.931 175.277 211.429 175.39 211.935 175.399C213.862 175.534 215.798 175.515 217.722 175.344C219.404 175.18 220.981 174.45 222.194 173.274C223.408 172.097 224.185 170.543 224.401 168.867C224.534 167.637 224.395 167.422 223.147 167.404L223.149 167.405ZM240.475 130.053C239.81 129.991 239.141 129.985 238.475 130.035C238.326 130.036 238.182 130.085 238.064 130.176C237.947 130.267 237.862 130.394 237.824 130.538C237.266 131.97 237.908 133.003 239.387 133.013C239.685 133.013 239.982 133.023 240.281 133.013C241.23 132.966 241.862 132.53 241.872 131.524C241.877 131.335 241.845 131.148 241.778 130.972C241.71 130.796 241.608 130.635 241.479 130.498C241.349 130.361 241.192 130.251 241.02 130.174C240.848 130.098 240.662 130.056 240.474 130.052L240.475 130.053ZM240.402 125.745C239.748 125.702 239.092 125.696 238.438 125.727C238.012 125.745 237.861 126.052 237.787 126.453C237.517 127.811 237.871 128.193 239.425 128.158C239.71 128.158 240.011 128.176 240.301 128.158C240.466 128.165 240.632 128.135 240.785 128.072C240.939 128.009 241.077 127.914 241.19 127.792C241.303 127.671 241.389 127.526 241.441 127.368C241.493 127.211 241.51 127.044 241.491 126.879C241.496 126.733 241.471 126.587 241.418 126.45C241.365 126.314 241.286 126.189 241.184 126.084C241.082 125.979 240.96 125.895 240.825 125.837C240.691 125.78 240.546 125.75 240.4 125.749L240.402 125.745ZM249.586 126.248C248.892 127.623 248.418 129.099 248.181 130.622C249.08 130.87 250.029 130.867 250.926 130.612C250.686 129.102 250.236 127.632 249.589 126.247L249.586 126.248ZM278.042 125.569C276.571 125.532 276.395 125.711 276.358 127.15C276.321 128.871 276.423 128.998 277.968 128.983C278.89 129.012 279.764 128.918 280.21 127.96C280.812 126.674 279.845 125.607 278.039 125.567L278.042 125.569ZM278.042 125.569C276.571 125.532 276.395 125.711 276.358 127.15C276.321 128.871 276.423 128.998 277.968 128.983C278.89 129.012 279.764 128.918 280.21 127.96C280.812 126.674 279.845 125.607 278.039 125.567L278.042 125.569ZM249.586 126.248C248.892 127.623 248.418 129.099 248.181 130.622C249.08 130.87 250.029 130.867 250.926 130.612C250.686 129.102 250.236 127.632 249.589 126.247L249.586 126.248ZM240.402 125.745C239.748 125.702 239.092 125.696 238.438 125.727C238.012 125.745 237.861 126.052 237.787 126.453C237.517 127.811 237.871 128.193 239.425 128.158C239.71 128.158 240.011 128.176 240.301 128.158C240.466 128.165 240.632 128.135 240.785 128.072C240.939 128.009 241.077 127.914 241.19 127.792C241.303 127.671 241.389 127.526 241.441 127.368C241.493 127.211 241.51 127.044 241.491 126.879C241.496 126.733 241.471 126.587 241.418 126.45C241.365 126.314 241.286 126.189 241.184 126.084C241.082 125.979 240.96 125.895 240.825 125.837C240.691 125.78 240.546 125.75 240.4 125.749L240.402 125.745ZM240.475 130.053C239.81 129.991 239.141 129.985 238.475 130.035C238.326 130.036 238.182 130.085 238.064 130.176C237.947 130.267 237.862 130.394 237.824 130.538C237.266 131.97 237.908 133.003 239.387 133.013C239.685 133.013 239.982 133.023 240.281 133.013C241.23 132.966 241.862 132.53 241.872 131.524C241.877 131.335 241.845 131.148 241.778 130.972C241.71 130.796 241.608 130.635 241.479 130.498C241.349 130.361 241.192 130.251 241.02 130.174C240.848 130.098 240.662 130.056 240.474 130.052L240.475 130.053ZM223.149 167.405C221.363 167.368 219.585 167.395 217.798 167.395C215.862 167.395 213.927 167.32 212 167.423C211.496 167.434 211 167.546 210.54 167.753C210.08 167.959 209.667 168.257 209.325 168.627C208.983 168.997 208.718 169.432 208.548 169.906C208.378 170.381 208.305 170.885 208.334 171.388C208.289 171.892 208.348 172.399 208.507 172.879C208.667 173.359 208.923 173.801 209.261 174.177C209.599 174.554 210.011 174.856 210.471 175.067C210.931 175.277 211.429 175.39 211.935 175.399C213.862 175.534 215.798 175.515 217.722 175.344C219.404 175.18 220.981 174.45 222.194 173.274C223.408 172.097 224.185 170.543 224.401 168.867C224.534 167.637 224.395 167.422 223.147 167.404L223.149 167.405ZM110.554 163.284C110.554 162.167 110.582 161.051 110.544 159.934C110.517 157.619 109.59 155.405 107.959 153.762C106.328 152.119 104.121 151.175 101.806 151.132C99.4909 151.088 97.25 151.948 95.5581 153.528C93.8662 155.109 92.8563 157.286 92.7425 159.598C92.6077 162.047 92.6077 164.501 92.7425 166.949C92.8558 169.262 93.8653 171.44 95.557 173.022C97.2487 174.603 99.4897 175.464 101.805 175.422C104.121 175.38 106.329 174.437 107.961 172.795C109.594 171.153 110.523 168.939 110.552 166.623C110.581 165.505 110.554 164.388 110.554 163.281V163.284ZM110.554 163.284C110.554 162.167 110.582 161.051 110.544 159.934C110.517 157.619 109.59 155.405 107.959 153.762C106.328 152.119 104.121 151.175 101.806 151.132C99.4909 151.088 97.25 151.948 95.5581 153.528C93.8662 155.109 92.8563 157.286 92.7425 159.598C92.6077 162.047 92.6077 164.501 92.7425 166.949C92.8558 169.262 93.8653 171.44 95.557 173.022C97.2487 174.603 99.4897 175.464 101.805 175.422C104.121 175.38 106.329 174.437 107.961 172.795C109.594 171.153 110.523 168.939 110.552 166.623C110.581 165.505 110.554 164.388 110.554 163.281V163.284ZM223.149 167.405C221.363 167.368 219.585 167.395 217.798 167.395C215.862 167.395 213.927 167.32 212 167.423C211.496 167.434 211 167.546 210.54 167.753C210.08 167.959 209.667 168.257 209.325 168.627C208.983 168.997 208.718 169.432 208.548 169.906C208.378 170.381 208.305 170.885 208.334 171.388C208.289 171.892 208.348 172.399 208.507 172.879C208.667 173.359 208.923 173.801 209.261 174.177C209.599 174.554 210.011 174.856 210.471 175.067C210.931 175.277 211.429 175.39 211.935 175.399C213.862 175.534 215.798 175.515 217.722 175.344C219.404 175.18 220.981 174.45 222.194 173.274C223.408 172.097 224.185 170.543 224.401 168.867C224.534 167.637 224.395 167.422 223.147 167.404L223.149 167.405ZM240.475 130.053C239.81 129.991 239.141 129.985 238.475 130.035C238.326 130.036 238.182 130.085 238.064 130.176C237.947 130.267 237.862 130.394 237.824 130.538C237.266 131.97 237.908 133.003 239.387 133.013C239.685 133.013 239.982 133.023 240.281 133.013C241.23 132.966 241.862 132.53 241.872 131.524C241.877 131.335 241.845 131.148 241.778 130.972C241.71 130.796 241.608 130.635 241.479 130.498C241.349 130.361 241.192 130.251 241.02 130.174C240.848 130.098 240.662 130.056 240.474 130.052L240.475 130.053ZM240.402 125.745C239.748 125.702 239.092 125.696 238.438 125.727C238.012 125.745 237.861 126.052 237.787 126.453C237.517 127.811 237.871 128.193 239.425 128.158C239.71 128.158 240.011 128.176 240.301 128.158C240.466 128.165 240.632 128.135 240.785 128.072C240.939 128.009 241.077 127.914 241.19 127.792C241.303 127.671 241.389 127.526 241.441 127.368C241.493 127.211 241.51 127.044 241.491 126.879C241.496 126.733 241.471 126.587 241.418 126.45C241.365 126.314 241.286 126.189 241.184 126.084C241.082 125.979 240.96 125.895 240.825 125.837C240.691 125.78 240.546 125.75 240.4 125.749L240.402 125.745ZM249.586 126.248C248.892 127.623 248.418 129.099 248.181 130.622C249.08 130.87 250.029 130.867 250.926 130.612C250.686 129.102 250.236 127.632 249.589 126.247L249.586 126.248ZM278.042 125.569C276.571 125.532 276.395 125.711 276.358 127.15C276.321 128.871 276.423 128.998 277.968 128.983C278.89 129.012 279.764 128.918 280.21 127.96C280.812 126.674 279.845 125.607 278.039 125.567L278.042 125.569ZM278.042 125.569C276.571 125.532 276.395 125.711 276.358 127.15C276.321 128.871 276.423 128.998 277.968 128.983C278.89 129.012 279.764 128.918 280.21 127.96C280.812 126.674 279.845 125.607 278.039 125.567L278.042 125.569ZM249.586 126.248C248.892 127.623 248.418 129.099 248.181 130.622C249.08 130.87 250.029 130.867 250.926 130.612C250.686 129.102 250.236 127.632 249.589 126.247L249.586 126.248ZM240.402 125.745C239.748 125.702 239.092 125.696 238.438 125.727C238.012 125.745 237.861 126.052 237.787 126.453C237.517 127.811 237.871 128.193 239.425 128.158C239.71 128.158 240.011 128.176 240.301 128.158C240.466 128.165 240.632 128.135 240.785 128.072C240.939 128.009 241.077 127.914 241.19 127.792C241.303 127.671 241.389 127.526 241.441 127.368C241.493 127.211 241.51 127.044 241.491 126.879C241.496 126.733 241.471 126.587 241.418 126.45C241.365 126.314 241.286 126.189 241.184 126.084C241.082 125.979 240.96 125.895 240.825 125.837C240.691 125.78 240.546 125.75 240.4 125.749L240.402 125.745ZM240.475 130.053C239.81 129.991 239.141 129.985 238.475 130.035C238.326 130.036 238.182 130.085 238.064 130.176C237.947 130.267 237.862 130.394 237.824 130.538C237.266 131.97 237.908 133.003 239.387 133.013C239.685 133.013 239.982 133.023 240.281 133.013C241.23 132.966 241.862 132.53 241.872 131.524C241.877 131.335 241.845 131.148 241.778 130.972C241.71 130.796 241.608 130.635 241.479 130.498C241.349 130.361 241.192 130.251 241.02 130.174C240.848 130.098 240.662 130.056 240.474 130.052L240.475 130.053ZM223.149 167.405C221.363 167.368 219.585 167.395 217.798 167.395C215.862 167.395 213.927 167.32 212 167.423C211.496 167.434 211 167.546 210.54 167.753C210.08 167.959 209.667 168.257 209.325 168.627C208.983 168.997 208.718 169.432 208.548 169.906C208.378 170.381 208.305 170.885 208.334 171.388C208.289 171.892 208.348 172.399 208.507 172.879C208.667 173.359 208.923 173.801 209.261 174.177C209.599 174.554 210.011 174.856 210.471 175.067C210.931 175.277 211.429 175.39 211.935 175.399C213.862 175.534 215.798 175.515 217.722 175.344C219.404 175.18 220.981 174.45 222.194 173.274C223.408 172.097 224.185 170.543 224.401 168.867C224.534 167.637 224.395 167.422 223.147 167.404L223.149 167.405ZM110.554 163.284C110.554 162.167 110.582 161.051 110.544 159.934C110.517 157.619 109.59 155.405 107.959 153.762C106.328 152.119 104.121 151.175 101.806 151.132C99.4909 151.088 97.25 151.948 95.5581 153.528C93.8662 155.109 92.8563 157.286 92.7425 159.598C92.6077 162.047 92.6077 164.501 92.7425 166.949C92.8558 169.262 93.8653 171.44 95.557 173.022C97.2487 174.603 99.4897 175.464 101.805 175.422C104.121 175.38 106.329 174.437 107.961 172.795C109.594 171.153 110.523 168.939 110.552 166.623C110.581 165.505 110.554 164.388 110.554 163.281V163.284ZM110.554 163.284C110.554 162.167 110.582 161.051 110.544 159.934C110.517 157.619 109.59 155.405 107.959 153.762C106.328 152.119 104.121 151.175 101.806 151.132C99.4909 151.088 97.25 151.948 95.5581 153.528C93.8662 155.109 92.8563 157.286 92.7425 159.598C92.6077 162.047 92.6077 164.501 92.7425 166.949C92.8558 169.262 93.8653 171.44 95.557 173.022C97.2487 174.603 99.4897 175.464 101.805 175.422C104.121 175.38 106.329 174.437 107.961 172.795C109.594 171.153 110.523 168.939 110.552 166.623C110.581 165.505 110.554 164.388 110.554 163.281V163.284ZM223.149 167.405C221.363 167.368 219.585 167.395 217.798 167.395C215.862 167.395 213.927 167.32 212 167.423C211.496 167.434 211 167.546 210.54 167.753C210.08 167.959 209.667 168.257 209.325 168.627C208.983 168.997 208.718 169.432 208.548 169.906C208.378 170.381 208.305 170.885 208.334 171.388C208.289 171.892 208.348 172.399 208.507 172.879C208.667 173.359 208.923 173.801 209.261 174.177C209.599 174.554 210.011 174.856 210.471 175.067C210.931 175.277 211.429 175.39 211.935 175.399C213.862 175.534 215.798 175.515 217.722 175.344C219.404 175.18 220.981 174.45 222.194 173.274C223.408 172.097 224.185 170.543 224.401 168.867C224.534 167.637 224.395 167.422 223.147 167.404L223.149 167.405ZM240.475 130.053C239.81 129.991 239.141 129.985 238.475 130.035C238.326 130.036 238.182 130.085 238.064 130.176C237.947 130.267 237.862 130.394 237.824 130.538C237.266 131.97 237.908 133.003 239.387 133.013C239.685 133.013 239.982 133.023 240.281 133.013C241.23 132.966 241.862 132.53 241.872 131.524C241.877 131.335 241.845 131.148 241.778 130.972C241.71 130.796 241.608 130.635 241.479 130.498C241.349 130.361 241.192 130.251 241.02 130.174C240.848 130.098 240.662 130.056 240.474 130.052L240.475 130.053ZM240.402 125.745C239.748 125.702 239.092 125.696 238.438 125.727C238.012 125.745 237.861 126.052 237.787 126.453C237.517 127.811 237.871 128.193 239.425 128.158C239.71 128.158 240.011 128.176 240.301 128.158C240.466 128.165 240.632 128.135 240.785 128.072C240.939 128.009 241.077 127.914 241.19 127.792C241.303 127.671 241.389 127.526 241.441 127.368C241.493 127.211 241.51 127.044 241.491 126.879C241.496 126.733 241.471 126.587 241.418 126.45C241.365 126.314 241.286 126.189 241.184 126.084C241.082 125.979 240.96 125.895 240.825 125.837C240.691 125.78 240.546 125.75 240.4 125.749L240.402 125.745ZM249.586 126.248C248.892 127.623 248.418 129.099 248.181 130.622C249.08 130.87 250.029 130.867 250.926 130.612C250.686 129.102 250.236 127.632 249.589 126.247L249.586 126.248ZM249.586 126.248C248.892 127.623 248.418 129.099 248.181 130.622C249.08 130.87 250.029 130.867 250.926 130.612C250.686 129.102 250.236 127.632 249.589 126.247L249.586 126.248ZM240.402 125.745C239.748 125.702 239.092 125.696 238.438 125.727C238.012 125.745 237.861 126.052 237.787 126.453C237.517 127.811 237.871 128.193 239.425 128.158C239.71 128.158 240.011 128.176 240.301 128.158C240.466 128.165 240.632 128.135 240.785 128.072C240.939 128.009 241.077 127.914 241.19 127.792C241.303 127.671 241.389 127.526 241.441 127.368C241.493 127.211 241.51 127.044 241.491 126.879C241.496 126.733 241.471 126.587 241.418 126.45C241.365 126.314 241.286 126.189 241.184 126.084C241.082 125.979 240.96 125.895 240.825 125.837C240.691 125.78 240.546 125.75 240.4 125.749L240.402 125.745ZM240.475 130.053C239.81 129.991 239.141 129.985 238.475 130.035C238.326 130.036 238.182 130.085 238.064 130.176C237.947 130.267 237.862 130.394 237.824 130.538C237.266 131.97 237.908 133.003 239.387 133.013C239.685 133.013 239.982 133.023 240.281 133.013C241.23 132.966 241.862 132.53 241.872 131.524C241.877 131.335 241.845 131.148 241.778 130.972C241.71 130.796 241.608 130.635 241.479 130.498C241.349 130.361 241.192 130.251 241.02 130.174C240.848 130.098 240.662 130.056 240.474 130.052L240.475 130.053ZM223.149 167.405C221.363 167.368 219.585 167.395 217.798 167.395C215.862 167.395 213.927 167.32 212 167.423C211.496 167.434 211 167.546 210.54 167.753C210.08 167.959 209.667 168.257 209.325 168.627C208.983 168.997 208.718 169.432 208.548 169.906C208.378 170.381 208.305 170.885 208.334 171.388C208.289 171.892 208.348 172.399 208.507 172.879C208.667 173.359 208.923 173.801 209.261 174.177C209.599 174.554 210.011 174.856 210.471 175.067C210.931 175.277 211.429 175.39 211.935 175.399C213.862 175.534 215.798 175.515 217.722 175.344C219.404 175.18 220.981 174.45 222.194 173.274C223.408 172.097 224.185 170.543 224.401 168.867C224.534 167.637 224.395 167.422 223.147 167.404L223.149 167.405ZM110.554 163.284C110.554 162.167 110.582 161.051 110.544 159.934C110.517 157.619 109.59 155.405 107.959 153.762C106.328 152.119 104.121 151.175 101.806 151.132C99.4909 151.088 97.25 151.948 95.5581 153.528C93.8662 155.109 92.8563 157.286 92.7425 159.598C92.6077 162.047 92.6077 164.501 92.7425 166.949C92.8558 169.262 93.8653 171.44 95.557 173.022C97.2487 174.603 99.4897 175.464 101.805 175.422C104.121 175.38 106.329 174.437 107.961 172.795C109.594 171.153 110.523 168.939 110.552 166.623C110.581 165.505 110.554 164.388 110.554 163.281V163.284ZM110.554 163.284C110.554 162.167 110.582 161.051 110.544 159.934C110.517 157.619 109.59 155.405 107.959 153.762C106.328 152.119 104.121 151.175 101.806 151.132C99.4909 151.088 97.25 151.948 95.5581 153.528C93.8662 155.109 92.8563 157.286 92.7425 159.598C92.6077 162.047 92.6077 164.501 92.7425 166.949C92.8558 169.262 93.8653 171.44 95.557 173.022C97.2487 174.603 99.4897 175.464 101.805 175.422C104.121 175.38 106.329 174.437 107.961 172.795C109.594 171.153 110.523 168.939 110.552 166.623C110.581 165.505 110.554 164.388 110.554 163.281V163.284ZM223.149 167.405C221.363 167.368 219.585 167.395 217.798 167.395C215.862 167.395 213.927 167.32 212 167.423C211.496 167.434 211 167.546 210.54 167.753C210.08 167.959 209.667 168.257 209.325 168.627C208.983 168.997 208.718 169.432 208.548 169.906C208.378 170.381 208.305 170.885 208.334 171.388C208.289 171.892 208.348 172.399 208.507 172.879C208.667 173.359 208.923 173.801 209.261 174.177C209.599 174.554 210.011 174.856 210.471 175.067C210.931 175.277 211.429 175.39 211.935 175.399C213.862 175.534 215.798 175.515 217.722 175.344C219.404 175.18 220.981 174.45 222.194 173.274C223.408 172.097 224.185 170.543 224.401 168.867C224.534 167.637 224.395 167.422 223.147 167.404L223.149 167.405ZM240.475 130.053C239.81 129.991 239.141 129.985 238.475 130.035C238.326 130.036 238.182 130.085 238.064 130.176C237.947 130.267 237.862 130.394 237.824 130.538C237.266 131.97 237.908 133.003 239.387 133.013C239.685 133.013 239.982 133.023 240.281 133.013C241.23 132.966 241.862 132.53 241.872 131.524C241.877 131.335 241.845 131.148 241.778 130.972C241.71 130.796 241.608 130.635 241.479 130.498C241.349 130.361 241.192 130.251 241.02 130.174C240.848 130.098 240.662 130.056 240.474 130.052L240.475 130.053ZM240.402 125.745C239.748 125.702 239.092 125.696 238.438 125.727C238.012 125.745 237.861 126.052 237.787 126.453C237.517 127.811 237.871 128.193 239.425 128.158C239.71 128.158 240.011 128.176 240.301 128.158C240.466 128.165 240.632 128.135 240.785 128.072C240.939 128.009 241.077 127.914 241.19 127.792C241.303 127.671 241.389 127.526 241.441 127.368C241.493 127.211 241.51 127.044 241.491 126.879C241.496 126.733 241.471 126.587 241.418 126.45C241.365 126.314 241.286 126.189 241.184 126.084C241.082 125.979 240.96 125.895 240.825 125.837C240.691 125.78 240.546 125.75 240.4 125.749L240.402 125.745ZM249.586 126.248C248.892 127.623 248.418 129.099 248.181 130.622C249.08 130.87 250.029 130.867 250.926 130.612C250.686 129.102 250.236 127.632 249.589 126.247L249.586 126.248ZM249.586 126.248C248.892 127.623 248.418 129.099 248.181 130.622C249.08 130.87 250.029 130.867 250.926 130.612C250.686 129.102 250.236 127.632 249.589 126.247L249.586 126.248ZM240.402 125.745C239.748 125.702 239.092 125.696 238.438 125.727C238.012 125.745 237.861 126.052 237.787 126.453C237.517 127.811 237.871 128.193 239.425 128.158C239.71 128.158 240.011 128.176 240.301 128.158C240.466 128.165 240.632 128.135 240.785 128.072C240.939 128.009 241.077 127.914 241.19 127.792C241.303 127.671 241.389 127.526 241.441 127.368C241.493 127.211 241.51 127.044 241.491 126.879C241.496 126.733 241.471 126.587 241.418 126.45C241.365 126.314 241.286 126.189 241.184 126.084C241.082 125.979 240.96 125.895 240.825 125.837C240.691 125.78 240.546 125.75 240.4 125.749L240.402 125.745ZM240.475 130.053C239.81 129.991 239.141 129.985 238.475 130.035C238.326 130.036 238.182 130.085 238.064 130.176C237.947 130.267 237.862 130.394 237.824 130.538C237.266 131.97 237.908 133.003 239.387 133.013C239.685 133.013 239.982 133.023 240.281 133.013C241.23 132.966 241.862 132.53 241.872 131.524C241.877 131.335 241.845 131.148 241.778 130.972C241.71 130.796 241.608 130.635 241.479 130.498C241.349 130.361 241.192 130.251 241.02 130.174C240.848 130.098 240.662 130.056 240.474 130.052L240.475 130.053ZM223.149 167.405C221.363 167.368 219.585 167.395 217.798 167.395C215.862 167.395 213.927 167.32 212 167.423C211.496 167.434 211 167.546 210.54 167.753C210.08 167.959 209.667 168.257 209.325 168.627C208.983 168.997 208.718 169.432 208.548 169.906C208.378 170.381 208.305 170.885 208.334 171.388C208.289 171.892 208.348 172.399 208.507 172.879C208.667 173.359 208.923 173.801 209.261 174.177C209.599 174.554 210.011 174.856 210.471 175.067C210.931 175.277 211.429 175.39 211.935 175.399C213.862 175.534 215.798 175.515 217.722 175.344C219.404 175.18 220.981 174.45 222.194 173.274C223.408 172.097 224.185 170.543 224.401 168.867C224.534 167.637 224.395 167.422 223.147 167.404L223.149 167.405ZM110.554 163.284C110.554 162.167 110.582 161.051 110.544 159.934C110.517 157.619 109.59 155.405 107.959 153.762C106.328 152.119 104.121 151.175 101.806 151.132C99.4909 151.088 97.25 151.948 95.5581 153.528C93.8662 155.109 92.8563 157.286 92.7425 159.598C92.6077 162.047 92.6077 164.501 92.7425 166.949C92.8558 169.262 93.8653 171.44 95.557 173.022C97.2487 174.603 99.4897 175.464 101.805 175.422C104.121 175.38 106.329 174.437 107.961 172.795C109.594 171.153 110.523 168.939 110.552 166.623C110.581 165.505 110.554 164.388 110.554 163.281V163.284ZM110.554 163.284C110.554 162.167 110.582 161.051 110.544 159.934C110.517 157.619 109.59 155.405 107.959 153.762C106.328 152.119 104.121 151.175 101.806 151.132C99.4909 151.088 97.25 151.948 95.5581 153.528C93.8662 155.109 92.8563 157.286 92.7425 159.598C92.6077 162.047 92.6077 164.501 92.7425 166.949C92.8558 169.262 93.8653 171.44 95.557 173.022C97.2487 174.603 99.4897 175.464 101.805 175.422C104.121 175.38 106.329 174.437 107.961 172.795C109.594 171.153 110.523 168.939 110.552 166.623C110.581 165.505 110.554 164.388 110.554 163.281V163.284ZM223.149 167.405C221.363 167.368 219.585 167.395 217.798 167.395C215.862 167.395 213.927 167.32 212 167.423C211.496 167.434 211 167.546 210.54 167.753C210.08 167.959 209.667 168.257 209.325 168.627C208.983 168.997 208.718 169.432 208.548 169.906C208.378 170.381 208.305 170.885 208.334 171.388C208.289 171.892 208.348 172.399 208.507 172.879C208.667 173.359 208.923 173.801 209.261 174.177C209.599 174.554 210.011 174.856 210.471 175.067C210.931 175.277 211.429 175.39 211.935 175.399C213.862 175.534 215.798 175.515 217.722 175.344C219.404 175.18 220.981 174.45 222.194 173.274C223.408 172.097 224.185 170.543 224.401 168.867C224.534 167.637 224.395 167.422 223.147 167.404L223.149 167.405ZM223.149 167.405C221.363 167.368 219.585 167.395 217.798 167.395C215.862 167.395 213.927 167.32 212 167.423C211.496 167.434 211 167.546 210.54 167.753C210.08 167.959 209.667 168.257 209.325 168.627C208.983 168.997 208.718 169.432 208.548 169.906C208.378 170.381 208.305 170.885 208.334 171.388C208.289 171.892 208.348 172.399 208.507 172.879C208.667 173.359 208.923 173.801 209.261 174.177C209.599 174.554 210.011 174.856 210.471 175.067C210.931 175.277 211.429 175.39 211.935 175.399C213.862 175.534 215.798 175.515 217.722 175.344C219.404 175.18 220.981 174.45 222.194 173.274C223.408 172.097 224.185 170.543 224.401 168.867C224.534 167.637 224.395 167.422 223.147 167.404L223.149 167.405ZM110.554 163.284C110.554 162.167 110.582 161.051 110.544 159.934C110.517 157.619 109.59 155.405 107.959 153.762C106.328 152.119 104.121 151.175 101.806 151.132C99.4909 151.088 97.25 151.948 95.5581 153.528C93.8662 155.109 92.8563 157.286 92.7425 159.598C92.6077 162.047 92.6077 164.501 92.7425 166.949C92.8558 169.262 93.8653 171.44 95.557 173.022C97.2487 174.603 99.4897 175.464 101.805 175.422C104.121 175.38 106.329 174.437 107.961 172.795C109.594 171.153 110.523 168.939 110.552 166.623C110.581 165.505 110.554 164.388 110.554 163.281V163.284ZM110.554 163.284C110.554 162.167 110.582 161.051 110.544 159.934C110.517 157.619 109.59 155.405 107.959 153.762C106.328 152.119 104.121 151.175 101.806 151.132C99.4909 151.088 97.25 151.948 95.5581 153.528C93.8662 155.109 92.8563 157.286 92.7425 159.598C92.6077 162.047 92.6077 164.501 92.7425 166.949C92.8558 169.262 93.8653 171.44 95.557 173.022C97.2487 174.603 99.4897 175.464 101.805 175.422C104.121 175.38 106.329 174.437 107.961 172.795C109.594 171.153 110.523 168.939 110.552 166.623C110.581 165.505 110.554 164.388 110.554 163.281V163.284ZM110.554 163.284C110.554 162.167 110.582 161.051 110.544 159.934C110.517 157.619 109.59 155.405 107.959 153.762C106.328 152.119 104.121 151.175 101.806 151.132C99.4909 151.088 97.25 151.948 95.5581 153.528C93.8662 155.109 92.8563 157.286 92.7425 159.598C92.6077 162.047 92.6077 164.501 92.7425 166.949C92.8558 169.262 93.8653 171.44 95.557 173.022C97.2487 174.603 99.4897 175.464 101.805 175.422C104.121 175.38 106.329 174.437 107.961 172.795C109.594 171.153 110.523 168.939 110.552 166.623C110.581 165.505 110.554 164.388 110.554 163.281V163.284Z" fill="white"/>
    <path d="M292.718 107H30V194.708H292.718V107Z" fill="white"/>
    <path d="M173.576 208.719C173.576 214.573 152.623 212.529 145.004 211.005L145.626 165.001L146.751 138.001L147.876 119.438L149.001 111.001L149.563 107.063L150.126 104.251L150.718 107.003L163.29 117.288L175.862 105.86L176.563 116.626L175.862 149.813L173.576 195.004V208.719Z" fill="#BEE8FF" stroke="black" strokeWidth="1.5"/>
    <path d="M170.5 98C175.072 98 184.088 110.659 185.003 125.288" stroke="black" strokeWidth="1.5"/>
    <path d="M65.0007 110.43C67.7436 110.43 69.9532 113.478 70.7151 115.001L76.1148 123.467L71.4672 128.115L66.1446 132.145C66.1446 131.341 63.9236 129.916 62.5193 129.174C61.9474 129.005 61.1461 128.763 60.8001 128.645C59.1625 128.459 54.0427 126.728 49.0013 125.287C47.8584 124.961 41.0011 124.145 42.144 121.859L52.4299 123.002L43.2869 119.573C41.0017 118.43 41.0022 117.287 42.144 117.287L52.4288 119.573L44.4286 116.144C43.2858 115.763 41 114.544 41 112.716C41 110.887 42.1451 111.573 43.2869 112.716L54.7146 116.144C52.0479 114.62 46.7144 112.716 45.5715 111.573C44.925 110.926 44.4298 110.43 44.4286 109.287C44.4277 108.305 45.8001 108.373 46.7144 109.287C49.6902 112.263 60.4141 113.517 62.4479 113.796C61.116 113.245 58.1443 109.208 58.1443 108.144V108.14C58.1443 106.527 58.1443 105.858 59.2863 105.858C60.4291 105.858 62.7149 108.144 65.0007 110.43Z" fill="white"/>
    <path d="M61.0489 128.661C59.7559 128.661 54.3347 126.811 49.0013 125.287C47.8584 124.961 41.0011 124.145 42.144 121.859L52.4299 123.002L43.2869 119.573C41.0017 118.43 41.0022 117.287 42.144 117.287L52.4288 119.573L44.4286 116.144C43.2858 115.763 41 114.544 41 112.716C41 110.887 42.1451 111.573 43.2869 112.716L54.7146 116.144C52.0479 114.62 46.7144 112.716 45.5715 111.573C44.925 110.926 44.4298 110.43 44.4286 109.287C44.4277 108.305 45.8001 108.373 46.7144 109.287C50.1431 112.716 63.8576 113.859 62.7147 113.859C61.5719 113.859 58.1443 109.287 58.1443 108.144C58.1443 106.528 58.1434 105.858 59.2863 105.858C60.4292 105.858 62.7149 108.144 65.0007 110.43C67.7436 110.43 69.9532 113.478 70.7151 115.001L76.1148 123.467L71.4672 128.115L66.1446 132.145C66.1446 131.341 63.9236 129.916 62.5193 129.174M61.0489 128.661C61.3878 128.661 61.9276 128.862 62.5193 129.174M61.0489 128.661C59.8423 128.368 61.5264 128.881 62.5193 129.174" stroke="black" strokeWidth="1.5"/>
    <path d="M175.438 103.688C177.125 113.812 176 137.982 176 139.125" stroke="black" strokeWidth="1.5"/>
    <path d="M156.432 85.2864C157.955 86.4293 161.689 87.8008 164.432 84.1436" stroke="black" strokeWidth="1.5"/>
    <path d="M148.432 63.5726C149.194 63.1917 151.86 62.4295 153.003 63.5761" stroke="black" strokeWidth="1.5"/>
    <path d="M147.289 56.7148C145.765 70.4294 146.603 97.4014 162.147 95.5728C172.433 94.3627 174.719 84.144 175.861 78.4296C181.576 79.5725 183.862 71.5723 180.433 70.4294C177.69 69.5151 177.004 72.3342 177.004 73.8581M158.718 69.2865C159.861 73.8581 150.718 79.5725 158.718 80.7154M166.718 63.5721C167.48 62.8102 169.004 62.4293 171.29 63.5721" stroke="black" strokeWidth="1.5"/>
    <path d="M145.002 143.573C145.002 146.729 142.444 149.288 139.288 149.288C136.132 149.288 133.573 146.729 133.573 143.573C133.573 140.417 134.989 139.002 138.145 139.002C141.301 139.002 145.002 140.417 145.002 143.573Z" fill="black"/>
    <path d="M179.375 139.125C178.994 135.316 179.518 126.202 185.004 125.288C191.862 124.145 194.147 142.431 190.719 143.574" stroke="black" strokeWidth="1.5" strokeLinecap="round"/>
    <path d="M174.874 270.188C174.316 269.909 174.312 209.438 174.312 209.438C174.312 209.438 152.404 211.508 144.785 209.984V235.312V272.415L139.999 273H135.499L126.499 271.312V281.986H158.5C158.881 270.176 159.871 245.643 160.785 241.985C164.443 241.071 168.405 268.272 169.929 281.986L195.072 281.559C196.215 271.273 184.017 274.759 174.874 270.188Z" fill="black"/>
    <path d="M146.532 67.9644C143.72 64.0269 141.585 55.266 142.499 55.266C143.642 55.266 133.355 52.9798 137.928 41.5514C140.937 34.0317 144.785 35.837 145.928 35.837C147.071 33.5519 150.5 29.2103 155.071 30.1246C159.643 31.0389 161.547 35.8393 161.928 38.1252C163.833 37.3633 168.1 36.068 169.929 36.9823C172.214 38.1252 175.643 40.4109 175.643 43.8396C175.643 46.5825 178.032 42.6102 179.937 39.5625C179.564 41.0538 178.966 42.4797 178.164 43.791L177.435 44.9825L179.937 43.5C179.374 44.0625 179.374 44.0625 179.072 44.9825C178.715 46.0682 183.643 47.2682 183.643 51.8397C183.643 56.4113 181.357 70.1259 180.214 70.1259C179.137 70.1259 176.651 72.1891 176.37 73.3827C176.354 73.6692 176.345 73.7576 176.345 73.5894C176.345 73.5241 176.353 73.455 176.37 73.3827C176.465 71.7231 176.786 63.4137 176.786 59.8399C174.119 59.459 168.786 57.3256 168.786 51.8397C167.643 52.9826 156.238 60.1275 147.095 57.8394C146.85 57.7781 147.136 64.716 146.532 67.9644Z" fill="black"/>
    <path d="M173.575 195.003L174.718 270.433C180.052 272.719 193.69 275.919 205.576 270.433L198.719 187.003" stroke="black" strokeWidth="1.5"/>
    <path d="M154.147 68.1439C154.147 68.7751 153.635 69.2867 153.004 69.2867C152.373 69.2867 151.861 68.7751 151.861 68.1439C151.861 67.5127 152.373 67.001 153.004 67.001C153.635 67.001 154.147 67.5127 154.147 68.1439Z" fill="black"/>
    <path d="M167.861 68.1439C167.861 68.7751 167.349 69.2867 166.718 69.2867C166.087 69.2867 165.575 68.7751 165.575 68.1439C165.575 67.5127 166.087 67.001 166.718 67.001C167.349 67.001 167.861 67.5127 167.861 68.1439Z" fill="black"/>
    <path d="M185.004 137.86L147.289 147.003L162.147 198.433L198.719 187.004L191.861 163.004L185.004 137.86Z" fill="white" stroke="black" strokeWidth="1.5"/>
    <path d="M202.836 162.5C204.978 162.57 206.933 162.646 208.551 162.716L202.836 162.5C200.687 162.429 198.351 162.363 195.979 162.312C187.909 162.139 179.431 162.14 176.55 162.716C177.387 163.762 177.92 165.147 178.227 166.72C179.006 170.706 178.33 175.902 177.448 179.859C176.686 179.478 174.036 178.945 173.121 179.859C171.978 181.002 161.693 185.573 157.121 182.145C156.453 181.643 157.372 180.246 158.362 179.829C156.799 179.742 154.836 179.45 154.836 178.716V178.715C154.836 177.573 154.836 177.573 157.121 176.43C159.407 175.287 152.55 177.573 152.55 175.287C152.55 173.459 154.835 173.383 155.978 173.002C154.073 173.383 150.264 172.545 150.264 170.716C150.264 168.887 159.788 167.668 163.979 167.287C161.693 166.906 156.207 167.059 157.121 166.144C158.264 165.002 163.978 162.716 171.978 166.144C176.55 166.144 178.049 166.528 178.227 166.72C177.92 165.147 177.387 163.762 176.55 162.716C179.431 162.14 187.909 162.139 195.979 162.312L197.276 146.973C199.972 151.496 204.63 160.536 202.836 162.5Z" fill="white"/>
    <path d="M146.835 104.429C148.114 104.571 149.199 104.506 150.117 104.279C144.639 123.553 144.169 224.456 144.55 272.432C139.064 275.175 123.978 270.147 115.978 270.147L123.978 184.431V156C121.692 161.333 115.063 173.687 102.263 181.002C89.4628 188.316 74.8335 161.954 69.1189 147.858C66.8331 142.144 59.7474 133.001 63.4045 133.001C67.0617 133.001 74.0714 126.144 77.1191 122.715L101.12 159.287L97.691 152.43C101.882 145.192 111.177 129.344 114.834 123.858C119.406 117.001 136.549 103.286 146.835 104.429Z" fill="white"/>
    <path d="M179 183.5L176.55 183.288C177.725 179.469 179.263 172.024 178.227 166.72M202.836 162.5C204.978 162.57 206.933 162.646 208.551 162.716L202.836 162.5ZM202.836 162.5C204.665 160.498 199.789 151.143 197.122 146.715M202.836 162.5C200.687 162.429 198.351 162.363 195.979 162.312M198.265 135.287L195.979 162.312M195.979 162.312C187.909 162.139 179.431 162.14 176.55 162.716C177.387 163.762 177.92 165.147 178.227 166.72M177.448 179.859C176.686 179.478 174.036 178.945 173.121 179.859C171.978 181.002 161.693 185.573 157.121 182.145C156.207 181.459 158.264 179.097 159.407 179.859C157.883 179.859 154.836 179.63 154.836 178.716C154.836 177.573 154.835 177.573 157.121 176.43C159.407 175.287 152.55 177.573 152.55 175.287C152.55 173.459 154.835 173.383 155.978 173.002C154.073 173.383 150.264 172.545 150.264 170.716C150.264 168.887 159.788 167.668 163.979 167.287C161.693 166.906 156.207 167.059 157.121 166.144C158.264 165.002 163.978 162.716 171.978 166.144C176.55 166.144 178.049 166.528 178.227 166.72M154.5 93.5C155.262 97.6906 155.064 105.343 146.835 104.429C136.549 103.286 119.406 117.001 114.834 123.858C111.177 129.344 101.882 145.192 97.691 152.43L101.12 159.287L77.1191 122.715C74.0714 126.144 67.0617 133.001 63.4045 133.001C59.7474 133.001 66.8331 142.144 69.1189 147.858C74.8335 161.954 89.4628 188.316 102.263 181.002C115.063 173.687 121.692 161.333 123.978 156V143.287V184.431L115.978 270.147C123.978 270.147 139.064 275.175 144.55 272.432C144.169 224.431 144.639 123.45 150.125 104.25" stroke="black" strokeWidth="1.5" strokeLinecap="round"/>
    <path d="M170 92C168.858 96.5715 170.855 103.527 181.576 105.858C207.862 111.573 214.72 129.859 227.291 156.145C233.005 171.002 233.187 194.886 176.5 183" stroke="black" strokeWidth="1.5" strokeLinecap="round"/>
    <path d="M138.147 139.002C137.766 127.574 140.433 103.802 154.148 100.145" stroke="black" strokeWidth="1.5"/>
    <path d="M187.809 273.131L192.875 273.562L195.29 273.131L195.125 281.438H190.625L187.809 273.131Z" fill="black"/>
    <path d="M141.125 141.376C141.125 143.24 138.489 144.751 136.625 144.751C134.761 144.751 134.375 143.24 134.375 141.376C134.375 139.512 135.886 138.001 137.75 138.001C139.614 138.001 141.125 139.512 141.125 141.376Z" fill="black"/>
    </svg>
    