<svg viewBox="0 0 177 27" fill="none" xmlns="http://www.w3.org/2000/svg">
<path d="M13.5 1L17.6715 9.22818L27 10.5557L20.25 16.9569L21.843 26L13.5 21.7282L5.157 26L6.75 16.9569L0 10.5557L9.3285 9.22818L13.5 1Z" fill="#50B8E7"/>
<path d="M43.5 1L47.6715 9.22818L57 10.5557L50.25 16.9569L51.843 26L43.5 21.7282L35.157 26L36.75 16.9569L30 10.5557L39.3285 9.22818L43.5 1Z" fill="#50B8E7"/>
<path d="M72.5 1L76.6715 9.22818L86 10.5557L79.25 16.9569L80.843 26L72.5 21.7282L64.157 26L65.75 16.9569L59 10.5557L68.3285 9.22818L72.5 1Z" fill="#50B8E7"/>
<path d="M102.5 1L106.672 9.22818L116 10.5557L109.25 16.9569L110.843 26L102.5 21.7282L94.157 26L95.75 16.9569L89 10.5557L98.3285 9.22818L102.5 1Z" fill="#50B8E7"/>
<path d="M132.5 1L136.672 9.22818L146 10.5557L139.25 16.9569L140.843 26L132.5 21.7282L124.157 26L125.75 16.9569L119 10.5557L128.328 9.22818L132.5 1Z" fill="#50B8E7"/>
<path d="M162.5 1L166.672 9.22818L176 10.5557L169.25 16.9569L170.843 26L162.5 21.7282L154.157 26L155.75 16.9569L149 10.5557L158.328 9.22818L162.5 1Z" fill="white" stroke="#50B8E7" strokeLinecap="round" stroke-linejoin="round"/>
<path d="M162.5 1V9.22818V13.5V17.5V21.5L154.157 26L155.75 16.9569L149 10.5557L158.328 9.22818L162.5 1Z" fill="#50B8E7"/>
</svg>
