<svg xmlns="http://www.w3.org/2000/svg" width="250"  viewBox="0 0 348 347" fill="none">
    <g filter="url(#filter0_d_338_10386)">
    <path d="M326.057 138.767C324.231 123.876 319.706 109.442 312.702 96.1747C302.334 76.6364 287.418 59.8786 269.214 47.3154C240.157 26.8636 207.61 16.9907 172.239 16.0367C161.734 15.8157 151.233 16.5919 140.875 18.3548C122.478 21.3173 104.776 27.6112 88.6385 36.9274C64.3329 51.0357 45.7126 70.5336 33.6647 96.0698C24.4118 115.549 20.5103 136.229 20.9109 160.277C21.046 174.843 22.2255 189.379 24.4404 203.776C26.441 217.322 29.6331 230.664 33.9795 243.649C39.1878 258.912 46.1037 273.316 56.053 286.127C66.0022 298.938 78.384 309.097 93.6179 315.316C109.338 321.736 125.727 323.253 142.506 321.66C152.389 320.681 162.163 318.804 171.705 316.051C190.541 310.61 208.605 302.785 225.458 292.766C252.339 276.988 276.063 257.471 295.532 232.994C305.288 220.954 313.238 207.557 319.132 193.225C326.323 176.033 328.72 157.213 326.067 138.767H326.057Z" fill="white"/>
    </g>
    <path d="M91 195V103.949C117.099 103.476 165.754 102.6 166.108 105.046C166.658 108.838 166.463 183.308 167.171 195C163.77 193.583 114.973 194.409 91 195Z" fill="white"/>
    <path d="M120.406 132.291L151.937 131.228M120.406 149.297H151.937M120.406 166.303H151.937M107.297 145.046L110.131 149.297L113.674 142.566M107.297 127.331L110.131 131.228L113.674 124.851M105.88 162.76L108.714 166.303L112.257 160.28M91 103.949V195C114.973 194.409 163.77 193.583 167.171 195C166.463 183.308 166.658 108.838 166.108 105.046C165.754 102.6 117.099 103.476 91 103.949ZM97.3771 109.971H159.023C158.668 134.653 159.023 184.051 159.023 187.56C126.429 187.56 99.8571 187.56 99.1486 187.56C98.5817 187.56 97.7314 135.834 97.3771 109.971Z" stroke="black" strokeWidth="1.5"/>
    <path d="M118.634 113.903C116.934 114.186 113.686 113.023 112.268 112.196C112.032 114.204 115.386 118.006 130.691 117.156C149.823 116.093 147.343 110.779 147.343 111.488C147.343 112.054 141.899 113.194 139.537 113.903C133.042 113.785 120.335 113.619 118.634 113.903Z" fill="#D9D9D9"/>
    <path d="M123.28 103.283H109.463C108.896 112.069 114.423 114.265 117.258 114.265H140.995C148.08 114.265 149.379 106.944 149.143 103.283H136.035C136.507 99.9759 135.893 93.2918 129.658 93.0083C123.422 92.7249 122.808 99.7398 123.28 103.283Z" fill="#BEE8FF" stroke="black" strokeWidth="1.5"/>
    <path d="M159.023 188.069C139.515 188.211 100.167 187.482 98.8289 188.505C97.1568 189.783 156.515 191.477 159.023 188.069Z" fill="#D9D9D9"/>
    <path d="M194.118 219.905C194.118 225.49 174.131 223.539 166.863 222.086L167.456 178.202L168.529 152.447L169.602 134.74L170.676 126.691L171.212 122.935L171.749 120.252L172.314 122.877L184.306 132.689L196.299 121.787L196.968 132.057L196.299 163.715L194.118 206.823V219.905Z" fill="#BEE8FF" stroke="black" strokeWidth="1.5"/>
    <path d="M191.184 114.29C195.545 114.29 204.146 126.365 205.019 140.319" stroke="black" strokeWidth="1.5"/>
    <path d="M90.5471 126.147C93.1636 126.147 95.2713 129.054 95.9981 130.508L101.149 138.583L96.7155 143.016L91.6383 146.861C91.6383 146.094 89.5196 144.734 88.1801 144.027C87.6345 143.866 86.8701 143.635 86.5401 143.522C84.9779 143.345 80.0941 141.693 75.2851 140.319C74.1949 140.008 67.6537 139.229 68.7439 137.049L78.5557 138.139L69.834 134.868C67.6542 133.778 67.6547 132.688 68.7439 132.688L78.5546 134.868L70.9232 131.598C69.833 131.234 67.6526 130.071 67.6526 128.327C67.6526 126.583 68.7449 127.237 69.8341 128.327L80.7351 131.598C78.1912 130.144 73.1036 128.327 72.0134 127.237C71.3967 126.62 70.9243 126.147 70.9232 125.057C70.9223 124.119 72.2315 124.184 73.1036 125.057C75.9422 127.895 86.1719 129.091 88.112 129.358C86.8414 128.832 84.0067 124.981 84.0067 123.966V123.962C84.0067 122.423 84.0067 121.786 85.096 121.786C86.1862 121.786 88.3666 123.966 90.5471 126.147Z" fill="white"/>
    <path d="M86.7774 143.537C85.544 143.537 80.3727 141.773 75.2851 140.319C74.1949 140.008 67.6537 139.229 68.7439 137.049L78.5557 138.139L69.834 134.868C67.6542 133.778 67.6547 132.688 68.7439 132.688L78.5546 134.868L70.9232 131.598C69.833 131.234 67.6526 130.071 67.6526 128.327C67.6526 126.583 68.7449 127.237 69.8341 128.327L80.7351 131.598C78.1912 130.144 73.1036 128.327 72.0134 127.237C71.3967 126.62 70.9243 126.147 70.9232 125.057C70.9223 124.119 72.2315 124.184 73.1036 125.057C76.3742 128.327 89.4567 129.417 88.3665 129.417C87.2763 129.417 84.0067 125.057 84.0067 123.966C84.0067 122.425 84.0058 121.786 85.096 121.786C86.1862 121.786 88.3666 123.966 90.5471 126.147C93.1636 126.147 95.2713 129.054 95.9981 130.508L101.149 138.583L96.7155 143.016L91.6383 146.861C91.6383 146.094 89.5196 144.734 88.1801 144.027M86.7774 143.537C87.1007 143.537 87.6156 143.729 88.1801 144.027M86.7774 143.537C85.6265 143.258 87.233 143.747 88.1801 144.027" stroke="black" strokeWidth="1.5"/>
    <path d="M195.894 119.714C197.504 129.373 196.431 152.428 196.431 153.519" stroke="black" strokeWidth="1.5"/>
    <path d="M177.764 102.162C179.218 103.252 182.779 104.561 185.396 101.072" stroke="black" strokeWidth="1.5"/>
    <path d="M170.133 81.4489C170.86 81.0855 173.404 80.3585 174.494 81.4522" stroke="black" strokeWidth="1.5"/>
    <path d="M169.043 74.9067C167.589 87.9892 168.389 113.718 183.216 111.974C193.028 110.819 195.208 101.072 196.298 95.6206C201.749 96.7108 203.93 89.0794 200.659 87.9892C198.043 87.117 197.388 89.8062 197.388 91.2598M179.945 86.899C181.035 91.2598 172.314 96.7108 179.945 97.8011M187.577 81.448C188.303 80.7212 189.757 80.3578 191.937 81.448" stroke="black" strokeWidth="1.5"/>
    <path d="M166.862 157.762C166.862 160.772 164.421 163.213 161.41 163.213C158.4 163.213 155.959 160.772 155.959 157.762C155.959 154.751 157.31 153.401 160.32 153.401C163.331 153.401 166.862 154.751 166.862 157.762Z" fill="black"/>
    <path d="M199.65 153.519C199.287 149.885 199.787 141.192 205.02 140.32C211.561 139.229 213.741 156.673 210.471 157.763" stroke="black" strokeWidth="1.5" strokeLinecap="round"/>
    <path d="M195.357 278.541C194.825 278.275 194.82 220.591 194.82 220.591C194.82 220.591 173.923 222.566 166.655 221.112V245.273V280.665L162.089 281.224H157.797L149.211 279.614V289.796H179.737C180.101 278.53 181.045 255.127 181.918 251.639C185.406 250.767 189.186 276.713 190.639 289.796L214.624 289.388C215.714 279.576 204.078 282.902 195.357 278.541Z" fill="black"/>
    <path d="M168.321 85.6384C165.638 81.8824 163.602 73.5253 164.474 73.5253C165.565 73.5253 155.752 71.3445 160.113 60.4428C162.984 53.2697 166.655 54.9918 167.745 54.9918C168.835 52.812 172.106 48.6705 176.467 49.5427C180.827 50.4148 182.644 54.994 183.008 57.1745C184.825 56.4477 188.895 55.2121 190.639 56.0843C192.82 57.1745 196.09 59.3549 196.09 62.6255C196.09 65.242 198.369 61.4528 200.186 58.5456C199.83 59.9682 199.26 61.3283 198.495 62.5792L197.8 63.7157L200.186 62.3016C199.649 62.8382 199.649 62.8382 199.361 63.7157C199.02 64.7514 203.722 65.8961 203.722 70.257C203.722 74.6178 201.541 87.7003 200.451 87.7003C199.423 87.7003 197.052 89.6684 196.784 90.807C196.769 91.0803 196.76 91.1646 196.76 91.0041C196.76 90.9419 196.768 90.876 196.784 90.807C196.874 89.2239 197.18 81.2975 197.18 77.8884C194.637 77.525 189.549 75.49 189.549 70.257C188.459 71.3472 177.579 78.1627 168.858 75.9801C168.624 75.9216 168.897 82.5398 168.321 85.6384Z" fill="black"/>
    <path d="M194.117 206.822L195.207 278.775C200.295 280.956 213.305 284.008 224.643 278.775L218.102 199.19" stroke="black" strokeWidth="1.5"/>
    <path d="M175.584 85.8094C175.584 86.4115 175.096 86.8996 174.494 86.8996C173.892 86.8996 173.404 86.4115 173.404 85.8094C173.404 85.2073 173.892 84.7192 174.494 84.7192C175.096 84.7192 175.584 85.2073 175.584 85.8094Z" fill="black"/>
    <path d="M188.666 85.8094C188.666 86.4115 188.178 86.8996 187.576 86.8996C186.974 86.8996 186.486 86.4115 186.486 85.8094C186.486 85.2073 186.974 84.7192 187.576 84.7192C188.178 84.7192 188.666 85.2073 188.666 85.8094Z" fill="black"/>
    <path d="M205.02 152.312L169.043 161.034L183.216 210.093L218.102 199.191L211.561 176.297L205.02 152.312Z" fill="white" stroke="black" strokeWidth="1.5"/>
    <path d="M222.03 175.816C224.073 175.884 225.938 175.956 227.481 176.023L222.03 175.816C219.98 175.749 217.751 175.686 215.488 175.637C207.79 175.472 199.703 175.473 196.955 176.023C197.753 177.021 198.262 178.342 198.555 179.842C199.297 183.645 198.653 188.601 197.811 192.376C197.085 192.012 194.556 191.504 193.684 192.376C192.594 193.466 182.782 197.827 178.422 194.556C177.784 194.078 178.661 192.745 179.605 192.347C178.114 192.264 176.241 191.986 176.241 191.286V191.285C176.241 190.195 176.241 190.195 178.421 189.105C180.602 188.015 174.061 190.195 174.061 188.015C174.061 186.271 176.241 186.198 177.331 185.834C175.514 186.198 171.881 185.398 171.881 183.654C171.881 181.91 180.966 180.747 184.963 180.383C182.783 180.02 177.55 180.165 178.422 179.293C179.512 178.203 184.962 176.023 192.594 179.293C196.955 179.293 198.385 179.659 198.555 179.842C198.262 178.342 197.753 177.021 196.955 176.023C199.703 175.473 207.79 175.472 215.488 175.637L216.726 161.006C219.297 165.32 223.741 173.943 222.03 175.816Z" fill="white"/>
    <path d="M168.609 120.422C169.829 120.558 170.865 120.496 171.74 120.28C166.514 138.665 166.066 234.917 166.43 280.682C161.197 283.299 146.806 278.502 139.174 278.502L146.806 196.737V169.616C144.625 174.704 138.302 186.489 126.092 193.466C113.882 200.443 99.9265 175.296 94.4753 161.85C92.2949 156.399 85.5357 147.677 89.0243 147.677C92.5129 147.677 99.1995 141.136 102.107 137.865L125.001 172.752L121.73 166.211C125.728 159.306 134.595 144.189 138.084 138.956C142.444 132.414 158.797 119.332 168.609 120.422Z" fill="white"/>
    <path d="M199.292 195.849L196.955 195.647C198.076 192.003 199.543 184.902 198.555 179.842M222.03 175.816C224.073 175.884 225.938 175.956 227.481 176.023L222.03 175.816ZM222.03 175.816C223.774 173.907 219.122 164.983 216.578 160.76M222.03 175.816C219.98 175.749 217.751 175.686 215.488 175.637M217.669 149.858L215.488 175.637M215.488 175.637C207.79 175.472 199.703 175.473 196.955 176.023C197.753 177.021 198.262 178.342 198.555 179.842M197.811 192.376C197.085 192.012 194.556 191.504 193.684 192.376C192.594 193.466 182.782 197.827 178.422 194.556C177.55 193.902 179.512 191.649 180.602 192.376C179.148 192.376 176.241 192.158 176.241 191.286C176.241 190.195 176.241 190.195 178.421 189.105C180.602 188.015 174.061 190.195 174.061 188.015C174.061 186.271 176.241 186.198 177.331 185.834C175.514 186.198 171.881 185.398 171.881 183.654C171.881 181.91 180.966 180.747 184.963 180.383C182.783 180.02 177.55 180.165 178.422 179.293C179.512 178.203 184.962 176.023 192.594 179.293C196.955 179.293 198.385 179.659 198.555 179.842M175.921 109.997C176.648 113.994 176.459 121.294 168.609 120.422C158.797 119.332 142.444 132.414 138.084 138.956C134.595 144.189 125.728 159.306 121.73 166.211L125.001 172.752L102.107 137.865C99.1995 141.136 92.5129 147.677 89.0243 147.677C85.5357 147.677 92.2949 156.399 94.4753 161.85C99.9265 175.296 113.882 200.443 126.092 193.466C138.302 186.489 144.625 174.704 146.806 169.616V157.489V196.737L139.174 278.502C146.806 278.502 161.197 283.299 166.43 280.682C166.066 234.894 166.515 138.567 171.748 120.252" stroke="black" strokeWidth="1.5" strokeLinecap="round"/>
    <path d="M190.707 108.566C189.617 112.927 191.522 119.563 201.749 121.786C226.824 127.237 233.365 144.68 245.358 169.755C250.808 183.928 250.981 206.71 196.907 195.372" stroke="black" strokeWidth="1.5" strokeLinecap="round"/>
    <path d="M160.322 153.402C159.959 142.5 162.503 119.824 175.585 116.335" stroke="black" strokeWidth="1.5"/>
    <path d="M207.695 281.348L212.529 281.759L214.832 281.348L214.675 289.272H210.382L207.695 281.348Z" fill="black"/>
    <path d="M163.163 155.666C163.163 157.444 160.649 158.886 158.871 158.886C157.093 158.886 156.724 157.444 156.724 155.666C156.724 153.888 158.166 152.447 159.944 152.447C161.722 152.447 163.163 153.888 163.163 155.666Z" fill="black"/>
    <defs>
    <filter id="filter0_d_338_10386" x="0.883057" y="0" width="346.234" height="346.245" filterUnits="userSpaceOnUse" color-interpolation-filters="sRGB">
    <feFlood flood-opacity="0" result="BackgroundImageFix"/>
    <feColorMatrix in="SourceAlpha" type="matrix" values="0 0 0 0 0 0 0 0 0 0 0 0 0 0 0 0 0 0 127 0" result="hardAlpha"/>
    <feOffset dy="4"/>
    <feGaussianBlur stdDeviation="10"/>
    <feComposite in2="hardAlpha" operator="out"/>
    <feColorMatrix type="matrix" values="0 0 0 0 0.5875 0 0 0 0 0.5875 0 0 0 0 0.5875 0 0 0 0.25 0"/>
    <feBlend mode="normal" in2="BackgroundImageFix" result="effect1_dropShadow_338_10386"/>
    <feBlend mode="normal" in="SourceGraphic" in2="effect1_dropShadow_338_10386" result="shape"/>
    </filter>
    </defs>
    </svg>