<svg viewBox="0 0 574 497" fill="none" xmlns="http://www.w3.org/2000/svg">
  <path d="M367.534 247.711L382.034 256.211M349.534 270.211C351.034 272.711 353.934 278.011 353.534 279.211" stroke="black" stroke-linecap="round"/>
  <path d="M327.991 207.217C332.325 203.05 344.034 195.311 354.034 195.711M354.034 195.711C358.034 194.111 359.825 188.05 360.491 185.217M354.034 195.711C355.034 199.711 355.534 211.211 364.034 218.211" stroke="black" stroke-linecap="round"/>
  <path d="M455.367 421.868C539.751 334.447 537.288 195.173 449.868 110.79C362.447 26.4063 223.173 28.8685 138.789 116.289C54.4061 203.71 56.8684 342.984 144.289 427.368" stroke="black" stroke-dasharray="20 20"/>
  <path d="M1.08537 261.741H93.9775L93.9775 197.431H1.08537L1.08537 261.741Z" fill="white"/>
  <path d="M93.9763 262.331H1.08327C0.926236 262.331 0.775615 262.269 0.664575 262.158C0.553534 262.047 0.491211 261.896 0.491211 261.739V197.431C0.491211 197.274 0.553534 197.123 0.664575 197.012C0.775615 196.901 0.926236 196.839 1.08327 196.839H93.9763C94.1334 196.839 94.284 196.901 94.395 197.012C94.5061 197.123 94.5684 197.274 94.5684 197.431V261.741C94.5679 261.897 94.5054 262.048 94.3944 262.158C94.2834 262.269 94.1331 262.331 93.9763 262.331ZM1.6745 261.147H93.3859V198.021H1.6745V261.147Z" fill="black"/>
  <path d="M1.08537 203.177H93.9775V194.691H1.08537V203.177Z" fill="#ACD4F7"/>
  <path d="M93.9763 203.765H1.08327C0.926236 203.765 0.775615 203.703 0.664575 203.592C0.553534 203.481 0.491211 203.33 0.491211 203.173V194.691C0.491211 194.613 0.506474 194.536 0.53623 194.464C0.565986 194.392 0.609593 194.327 0.664575 194.272C0.719556 194.217 0.784894 194.173 0.856731 194.144C0.928568 194.114 1.00551 194.099 1.08327 194.099H93.9763C94.0541 194.099 94.131 194.114 94.2029 194.144C94.2747 194.173 94.34 194.217 94.395 194.272C94.45 194.327 94.4936 194.392 94.5234 194.464C94.5531 194.536 94.5684 194.613 94.5684 194.691V203.173C94.5684 203.33 94.5061 203.481 94.395 203.592C94.284 203.703 94.1334 203.765 93.9763 203.765ZM1.6745 202.581H93.3859V195.281H1.6745V202.581Z" fill="black"/>
  <path d="M22.8182 211.946H11.0117V219.817H22.8182V211.946Z" fill="white"/>
  <path d="M22.8172 220.407H11.0091C10.9313 220.407 10.8543 220.392 10.7825 220.362C10.7107 220.332 10.6453 220.289 10.5904 220.234C10.5354 220.179 10.4918 220.113 10.462 220.042C10.4323 219.97 10.417 219.893 10.417 219.815V211.942C10.417 211.785 10.4793 211.634 10.5904 211.523C10.7014 211.412 10.852 211.35 11.0091 211.35H22.8156C22.9726 211.35 23.1232 211.412 23.2342 211.523C23.3453 211.634 23.4076 211.785 23.4076 211.942V219.817C23.4072 219.973 23.3449 220.123 23.2342 220.234C23.1236 220.344 22.9737 220.407 22.8172 220.407ZM11.6011 219.223H22.2268V212.534H11.6011V219.223Z" fill="black"/>
  <path d="M43.2274 211.946H31.4209V219.817H43.2274V211.946Z" fill="white"/>
  <path d="M43.2286 220.407H31.4213C31.3435 220.407 31.2665 220.392 31.1946 220.362C31.1228 220.332 31.0576 220.289 31.0026 220.234C30.9476 220.179 30.904 220.113 30.8742 220.042C30.8445 219.97 30.8291 219.893 30.8291 219.815V211.942C30.8291 211.785 30.8915 211.634 31.0026 211.523C31.1136 211.412 31.2642 211.35 31.4213 211.35H43.2286C43.3063 211.35 43.3833 211.365 43.4551 211.395C43.527 211.424 43.5923 211.468 43.6473 211.523C43.7023 211.578 43.7459 211.643 43.7756 211.715C43.8054 211.787 43.8206 211.864 43.8206 211.942V219.817C43.8202 219.973 43.7577 220.124 43.6467 220.234C43.5357 220.345 43.3853 220.407 43.2286 220.407ZM32.0125 219.223H42.6374V212.534H32.0125V219.223Z" fill="black"/>
  <path d="M63.6346 211.946H51.8281V219.817H63.6346V211.946Z" fill="white"/>
  <path d="M63.6349 220.407H51.8284C51.7506 220.407 51.6737 220.392 51.6018 220.362C51.53 220.332 51.4647 220.289 51.4097 220.234C51.3547 220.179 51.3111 220.113 51.2813 220.042C51.2516 219.97 51.2363 219.893 51.2363 219.815V211.942C51.2363 211.785 51.2987 211.634 51.4097 211.523C51.5207 211.412 51.6714 211.35 51.8284 211.35H63.6349C63.7919 211.35 63.9425 211.412 64.0536 211.523C64.1646 211.634 64.227 211.785 64.227 211.942V219.817C64.2266 219.973 64.164 220.124 64.053 220.234C63.942 220.345 63.7916 220.407 63.6349 220.407ZM52.4188 219.223H63.0445V212.534H52.4188V219.223Z" fill="black"/>
  <path d="M84.0467 211.946H72.2402V219.817H84.0467V211.946Z" fill="white"/>
  <path d="M84.047 220.407H72.2405C72.1627 220.407 72.0858 220.392 72.014 220.362C71.9421 220.332 71.8769 220.289 71.8219 220.234C71.7669 220.179 71.7233 220.113 71.6936 220.042C71.6638 219.97 71.6484 219.893 71.6484 219.815V211.942C71.6484 211.864 71.6638 211.787 71.6936 211.715C71.7233 211.643 71.7669 211.578 71.8219 211.523C71.8769 211.468 71.9421 211.424 72.014 211.395C72.0858 211.365 72.1627 211.35 72.2405 211.35H84.047C84.204 211.35 84.3547 211.412 84.4657 211.523C84.5767 211.634 84.6392 211.785 84.6392 211.942V219.817C84.6387 219.973 84.5761 220.124 84.4651 220.234C84.3541 220.345 84.2037 220.407 84.047 220.407ZM72.8309 219.223H83.4549V212.534H72.8293L72.8309 219.223Z" fill="black"/>
  <path d="M22.8192 229.585H11.0127V237.456H22.8192V229.585Z" fill="white"/>
  <path d="M22.8182 238.045H11.01C10.853 238.045 10.7024 237.982 10.5913 237.871C10.4803 237.76 10.418 237.61 10.418 237.453V229.586C10.418 229.429 10.4803 229.279 10.5913 229.168C10.7024 229.057 10.853 228.994 11.01 228.994H22.8165C22.9736 228.994 23.1242 229.057 23.2352 229.168C23.3463 229.279 23.4086 229.429 23.4086 229.586V237.453C23.4086 237.609 23.3465 237.76 23.2358 237.871C23.1252 237.982 22.9749 238.044 22.8182 238.045ZM11.6021 236.861H22.2278V230.178H11.6021V236.861Z" fill="black"/>
  <path d="M43.2274 229.585H31.4209V237.456H43.2274V229.585Z" fill="white"/>
  <path d="M43.2286 238.045H31.4213C31.2642 238.045 31.1136 237.982 31.0026 237.871C30.8915 237.76 30.8291 237.61 30.8291 237.453V229.586C30.8291 229.429 30.8915 229.279 31.0026 229.168C31.1136 229.057 31.2642 228.994 31.4213 228.994H43.2286C43.3063 228.994 43.3833 229.009 43.4551 229.039C43.527 229.069 43.5923 229.113 43.6473 229.168C43.7023 229.223 43.7459 229.288 43.7756 229.36C43.8054 229.431 43.8206 229.508 43.8206 229.586V237.453C43.8206 237.53 43.8054 237.607 43.7756 237.679C43.7459 237.751 43.7023 237.816 43.6473 237.871C43.5923 237.926 43.527 237.97 43.4551 238C43.3833 238.03 43.3063 238.045 43.2286 238.045ZM32.0125 236.861H42.6374V230.178H32.0125V236.861Z" fill="black"/>
  <path d="M63.6346 229.585H51.8281V237.456H63.6346V229.585Z" fill="white"/>
  <path d="M63.6349 238.045H51.8284C51.6714 238.045 51.5207 237.982 51.4097 237.871C51.2987 237.76 51.2363 237.61 51.2363 237.453V229.586C51.2363 229.429 51.2987 229.279 51.4097 229.168C51.5207 229.057 51.6714 228.994 51.8284 228.994H63.6349C63.7919 228.994 63.9425 229.057 64.0536 229.168C64.1646 229.279 64.227 229.429 64.227 229.586V237.453C64.227 237.61 64.1646 237.76 64.0536 237.871C63.9425 237.982 63.7919 238.045 63.6349 238.045ZM52.4188 236.861H63.0445V230.178H52.4188V236.861Z" fill="black"/>
  <path d="M84.0467 229.585H72.2402V237.456H84.0467V229.585Z" fill="white"/>
  <path d="M84.047 238.045H72.2405C72.1627 238.045 72.0858 238.03 72.014 238C71.9421 237.97 71.8769 237.926 71.8219 237.871C71.7669 237.816 71.7233 237.751 71.6936 237.679C71.6638 237.607 71.6484 237.53 71.6484 237.453V229.586C71.6484 229.508 71.6638 229.431 71.6936 229.36C71.7233 229.288 71.7669 229.223 71.8219 229.168C71.8769 229.113 71.9421 229.069 72.014 229.039C72.0858 229.009 72.1627 228.994 72.2405 228.994H84.047C84.204 228.994 84.3547 229.057 84.4657 229.168C84.5767 229.279 84.6392 229.429 84.6392 229.586V237.453C84.6392 237.61 84.5767 237.76 84.4657 237.871C84.3547 237.982 84.204 238.045 84.047 238.045ZM72.8309 236.861H83.4549V230.178H72.8293L72.8309 236.861Z" fill="black"/>
  <path d="M22.8192 245.382H11.0127V253.253H22.8192V245.382Z" fill="white"/>
  <path d="M22.8182 253.844H11.01C10.853 253.844 10.7024 253.782 10.5913 253.671C10.4803 253.56 10.418 253.409 10.418 253.252V245.381C10.418 245.224 10.4803 245.074 10.5913 244.962C10.7024 244.851 10.853 244.789 11.01 244.789H22.8165C22.9736 244.789 23.1242 244.851 23.2352 244.962C23.3463 245.074 23.4086 245.224 23.4086 245.381V253.252C23.4086 253.409 23.3465 253.559 23.2358 253.67C23.1252 253.781 22.9749 253.844 22.8182 253.844ZM11.6021 252.66H22.2278V245.973H11.6021V252.66Z" fill="black"/>
  <path d="M43.2274 245.382H31.4209V253.253H43.2274V245.382Z" fill="white"/>
  <path d="M43.2286 253.844H31.4213C31.2642 253.844 31.1136 253.782 31.0026 253.671C30.8915 253.56 30.8291 253.409 30.8291 253.252V245.381C30.8291 245.224 30.8915 245.074 31.0026 244.962C31.1136 244.851 31.2642 244.789 31.4213 244.789H43.2286C43.3063 244.789 43.3833 244.804 43.4551 244.834C43.527 244.864 43.5923 244.908 43.6473 244.962C43.7023 245.017 43.7459 245.083 43.7756 245.155C43.8054 245.226 43.8206 245.303 43.8206 245.381V253.252C43.8206 253.33 43.8054 253.407 43.7756 253.478C43.7459 253.55 43.7023 253.616 43.6473 253.671C43.5923 253.726 43.527 253.769 43.4551 253.799C43.3833 253.829 43.3063 253.844 43.2286 253.844ZM32.0125 252.66H42.6374V245.973H32.0125V252.66Z" fill="black"/>
  <path d="M63.6346 245.382H51.8281V253.253H63.6346V245.382Z" fill="white"/>
  <path d="M63.6349 253.844H51.8284C51.6714 253.844 51.5207 253.782 51.4097 253.671C51.2987 253.56 51.2363 253.409 51.2363 253.252V245.381C51.2363 245.224 51.2987 245.074 51.4097 244.962C51.5207 244.851 51.6714 244.789 51.8284 244.789H63.6349C63.7919 244.789 63.9425 244.851 64.0536 244.962C64.1646 245.074 64.227 245.224 64.227 245.381V253.252C64.227 253.409 64.1646 253.56 64.0536 253.671C63.9425 253.782 63.7919 253.844 63.6349 253.844ZM52.4188 252.66H63.0445V245.973H52.4188V252.66Z" fill="black"/>
  <path d="M84.0467 245.382H72.2402V253.253H84.0467V245.382Z" fill="white"/>
  <path d="M84.047 253.844H72.2405C72.1627 253.844 72.0858 253.829 72.014 253.799C71.9421 253.769 71.8769 253.726 71.8219 253.671C71.7669 253.616 71.7233 253.55 71.6936 253.478C71.6638 253.407 71.6484 253.33 71.6484 253.252V245.381C71.6484 245.303 71.6638 245.226 71.6936 245.155C71.7233 245.083 71.7669 245.017 71.8219 244.962C71.8769 244.908 71.9421 244.864 72.014 244.834C72.0858 244.804 72.1627 244.789 72.2405 244.789H84.047C84.204 244.789 84.3547 244.851 84.4657 244.962C84.5767 245.074 84.6392 245.224 84.6392 245.381V253.252C84.6392 253.409 84.5767 253.56 84.4657 253.671C84.3547 253.782 84.204 253.844 84.047 253.844ZM72.8309 252.66H83.4549V245.973H72.8293L72.8309 252.66Z" fill="black"/>
  <path d="M65.4369 199.522C65.2799 199.522 65.1292 199.46 65.0182 199.349C64.9072 199.238 64.8447 199.087 64.8447 198.93V191.227C64.8447 191.07 64.9072 190.919 65.0182 190.808C65.1292 190.697 65.2799 190.635 65.4369 190.635C65.5939 190.635 65.7445 190.697 65.8556 190.808C65.9666 190.919 66.0289 191.07 66.0289 191.227V198.932C66.0285 199.089 65.966 199.239 65.855 199.349C65.744 199.46 65.5936 199.522 65.4369 199.522Z" fill="black"/>
  <path d="M29.6233 199.522C29.4663 199.522 29.3157 199.46 29.2046 199.349C29.0936 199.238 29.0312 199.087 29.0312 198.93V191.227C29.0312 191.07 29.0936 190.919 29.2046 190.808C29.3157 190.697 29.4663 190.635 29.6233 190.635C29.7803 190.635 29.931 190.697 30.042 190.808C30.153 190.919 30.2155 191.07 30.2155 191.227V198.932C30.215 199.089 30.1524 199.239 30.0414 199.349C29.9304 199.46 29.7801 199.522 29.6233 199.522Z" fill="black"/>
  <path d="M32.6914 214.987C32.6531 214.987 32.6157 214.976 32.5837 214.955C32.5516 214.934 32.5265 214.904 32.5113 214.869C32.4961 214.834 32.4914 214.795 32.4981 214.757C32.5047 214.719 32.5222 214.684 32.5484 214.657C33.1279 214.041 33.7411 213.439 34.3713 212.869C34.4103 212.836 34.461 212.818 34.5124 212.822C34.5639 212.825 34.612 212.848 34.6466 212.886C34.6811 212.925 34.6992 212.975 34.6971 213.026C34.6949 213.078 34.6728 213.127 34.6352 213.162C34.0127 213.724 33.4061 214.318 32.8352 214.926C32.8166 214.946 32.7943 214.961 32.7696 214.972C32.7449 214.982 32.7183 214.987 32.6914 214.987Z" fill="black"/>
  <path d="M40.753 218.507C40.7136 218.508 40.6749 218.496 40.6421 218.475C40.6092 218.453 40.5836 218.422 40.5686 218.385C40.5535 218.349 40.5498 218.309 40.5578 218.27C40.5658 218.232 40.5851 218.196 40.6134 218.169L41.8965 216.881C41.9339 216.847 41.9829 216.829 42.0332 216.83C42.0836 216.831 42.1316 216.852 42.1673 216.887C42.2031 216.923 42.2238 216.971 42.2254 217.021C42.2269 217.071 42.2092 217.12 42.1757 217.158L40.8925 218.446C40.8745 218.465 40.8528 218.48 40.8289 218.491C40.8049 218.501 40.7791 218.507 40.753 218.507Z" fill="black"/>
  <path d="M12.3669 232.108C12.3288 232.108 12.2915 232.097 12.2595 232.076C12.2276 232.055 12.2024 232.025 12.1869 231.991C12.1714 231.956 12.1664 231.917 12.1724 231.88C12.1783 231.842 12.1951 231.807 12.2206 231.779C12.542 231.423 12.8828 231.073 13.2356 230.736C13.2738 230.703 13.3233 230.686 13.3737 230.689C13.4242 230.691 13.4718 230.713 13.5067 230.749C13.5417 230.786 13.5613 230.834 13.5615 230.885C13.5618 230.935 13.5426 230.984 13.508 231.021C13.1637 231.351 12.8313 231.697 12.515 232.043C12.4962 232.064 12.4733 232.08 12.4477 232.091C12.4222 232.102 12.3947 232.108 12.3669 232.108Z" fill="black"/>
  <path d="M12.4158 234.952C12.3782 234.952 12.3413 234.942 12.3096 234.921C12.2779 234.901 12.2526 234.872 12.2368 234.838C12.2211 234.804 12.2154 234.766 12.2206 234.729C12.2258 234.692 12.2416 234.657 12.266 234.628C13.4257 233.275 14.6479 231.944 15.8989 230.673C15.9171 230.654 15.9387 230.64 15.9624 230.63C15.9862 230.62 16.0117 230.614 16.0375 230.614C16.0633 230.614 16.0889 230.619 16.1128 230.629C16.1367 230.638 16.1584 230.653 16.1768 230.671C16.1952 230.689 16.2099 230.71 16.22 230.734C16.23 230.758 16.2353 230.783 16.2355 230.809C16.2356 230.835 16.2308 230.861 16.2211 230.885C16.2114 230.908 16.1971 230.93 16.179 230.949C14.9347 232.217 13.7184 233.538 12.5655 234.884C12.5469 234.906 12.5238 234.923 12.498 234.935C12.4721 234.946 12.4441 234.952 12.4158 234.952Z" fill="black"/>
  <path d="M14.4363 236.397C14.3915 236.397 14.348 236.382 14.3128 236.354C14.2722 236.322 14.2462 236.274 14.2404 236.222C14.2347 236.17 14.2498 236.118 14.2824 236.078C15.7584 234.234 17.3173 232.424 18.9177 230.701C18.9531 230.663 19.0022 230.641 19.0543 230.639C19.1063 230.637 19.157 230.656 19.1951 230.691C19.2332 230.727 19.2558 230.776 19.2577 230.828C19.2596 230.88 19.2407 230.93 19.2052 230.969C17.6125 232.685 16.0587 234.487 14.5894 236.324C14.5711 236.347 14.5478 236.365 14.5213 236.378C14.4948 236.391 14.4657 236.397 14.4363 236.397Z" fill="black"/>
  <path d="M17.491 236.303C17.4535 236.303 17.4168 236.293 17.3851 236.273C17.3534 236.253 17.3282 236.224 17.3123 236.19C17.2965 236.156 17.2907 236.118 17.2957 236.081C17.3007 236.044 17.3163 236.009 17.3405 235.98C18.5509 234.537 19.7825 233.087 21.0006 231.666C21.0358 231.633 21.0822 231.614 21.1308 231.612C21.1793 231.611 21.2266 231.628 21.2636 231.659C21.3007 231.691 21.3247 231.735 21.3313 231.783C21.3378 231.831 21.3264 231.88 21.2992 231.92C20.0828 233.336 18.8521 234.786 17.6417 236.227C17.6239 236.25 17.601 236.269 17.575 236.282C17.5489 236.295 17.5202 236.303 17.491 236.303Z" fill="black"/>
  <path d="M20.4623 236.331C20.4266 236.332 20.3915 236.322 20.3608 236.303C20.3302 236.285 20.3052 236.259 20.2884 236.227C20.2717 236.195 20.2639 236.16 20.2659 236.124C20.268 236.088 20.2797 236.054 20.2999 236.024C20.5723 235.625 20.8658 235.235 21.1736 234.866C21.1903 234.846 21.2107 234.829 21.2337 234.817C21.2567 234.805 21.2819 234.798 21.3078 234.796C21.3336 234.793 21.3596 234.796 21.3844 234.804C21.4091 234.812 21.432 234.824 21.4519 234.841C21.4718 234.858 21.4882 234.878 21.5002 234.901C21.5122 234.924 21.5195 234.949 21.5218 234.975C21.5241 235.001 21.5213 235.027 21.5136 235.052C21.5058 235.076 21.4932 235.099 21.4765 235.119C21.1762 235.479 20.8903 235.859 20.6247 236.247C20.6066 236.273 20.5823 236.295 20.554 236.309C20.5257 236.324 20.4942 236.332 20.4623 236.331Z" fill="black"/>
  <path d="M32.8489 217.328C32.8088 217.328 32.7696 217.316 32.7366 217.293C32.7037 217.27 32.6787 217.237 32.6647 217.2C32.6507 217.162 32.6486 217.121 32.6585 217.082C32.6684 217.044 32.6899 217.009 32.7202 216.982C34.1633 215.737 35.5675 214.417 36.8929 213.058C36.9106 213.037 36.9321 213.021 36.9562 213.009C36.9804 212.998 37.0067 212.991 37.0335 212.99C37.0602 212.989 37.0869 212.994 37.1119 213.003C37.1369 213.013 37.1597 213.028 37.1789 213.046C37.198 213.065 37.2132 213.087 37.2235 213.112C37.2337 213.137 37.2387 213.164 37.2383 213.19C37.2379 213.217 37.232 213.243 37.2211 213.268C37.2101 213.292 37.1942 213.314 37.1745 213.332C35.8414 214.699 34.4289 216.028 32.9774 217.281C32.9417 217.312 32.896 217.328 32.8489 217.328Z" fill="black"/>
  <path d="M34.7095 218.747C34.6701 218.748 34.6314 218.736 34.5985 218.715C34.5657 218.693 34.5401 218.662 34.5252 218.625C34.5104 218.589 34.5068 218.548 34.5151 218.51C34.5234 218.471 34.5431 218.436 34.5717 218.409C36.4427 216.593 38.3866 214.805 40.3506 213.094C40.3696 213.074 40.3925 213.058 40.4179 213.048C40.4432 213.037 40.4705 213.032 40.4979 213.033C40.5253 213.034 40.5521 213.041 40.5769 213.052C40.6016 213.064 40.6236 213.081 40.6414 213.102C40.6592 213.123 40.6724 213.147 40.6802 213.173C40.6881 213.2 40.6903 213.227 40.6868 213.254C40.6833 213.282 40.6742 213.308 40.66 213.331C40.6458 213.355 40.6268 213.375 40.6043 213.39C38.6462 215.097 36.7066 216.88 34.8423 218.691C34.8068 218.726 34.7593 218.746 34.7095 218.747Z" fill="black"/>
  <path d="M37.6396 218.798C37.6004 218.798 37.5621 218.786 37.5296 218.764C37.4972 218.742 37.4719 218.711 37.4574 218.674C37.4428 218.638 37.4395 218.598 37.4479 218.56C37.4562 218.521 37.4758 218.486 37.5042 218.459C38.8652 217.153 40.2753 215.855 41.6938 214.601C41.7129 214.582 41.7357 214.568 41.7606 214.558C41.7855 214.548 41.812 214.544 41.8387 214.545C41.8653 214.546 41.8915 214.553 41.9156 214.564C41.9397 214.575 41.9612 214.592 41.9789 214.612C41.9965 214.632 42.01 214.655 42.0183 214.68C42.0267 214.706 42.0298 214.732 42.0275 214.759C42.0252 214.786 42.0175 214.811 42.0049 214.835C41.9923 214.858 41.9751 214.879 41.9543 214.896C40.54 216.146 39.1334 217.441 37.7758 218.743C37.7394 218.778 37.6905 218.798 37.6396 218.798Z" fill="black"/>
  <path d="M53.1699 248.587C53.1247 248.587 53.0808 248.571 53.0456 248.543C53.0255 248.526 53.0088 248.506 52.9964 248.484C52.9841 248.461 52.9764 248.436 52.9737 248.41C52.971 248.385 52.9734 248.359 52.9808 248.334C52.9882 248.309 53.0004 248.286 53.0168 248.266L54.4217 246.539C54.4555 246.501 54.5027 246.477 54.5533 246.473C54.6039 246.469 54.6541 246.485 54.6935 246.517C54.7329 246.549 54.7584 246.595 54.7647 246.645C54.7709 246.696 54.7574 246.747 54.7271 246.788L53.3222 248.514C53.3039 248.537 53.2806 248.555 53.2543 248.568C53.2279 248.58 53.1991 248.587 53.1699 248.587Z" fill="black"/>
  <path d="M53.2736 251.814C53.2376 251.814 53.2021 251.804 53.1713 251.785C53.1405 251.766 53.1155 251.739 53.0989 251.707C53.0824 251.675 53.075 251.639 53.0777 251.603C53.0803 251.567 53.0928 251.532 53.1138 251.503C54.3702 249.723 55.7301 248.019 57.1866 246.399C57.2033 246.378 57.2242 246.361 57.2479 246.348C57.2716 246.336 57.2976 246.328 57.3243 246.326C57.3511 246.324 57.378 246.327 57.4034 246.336C57.4288 246.344 57.4523 246.358 57.4723 246.376C57.4922 246.394 57.5082 246.415 57.5195 246.44C57.5307 246.464 57.5369 246.491 57.5375 246.517C57.5382 246.544 57.5333 246.571 57.5233 246.596C57.5133 246.621 57.4982 246.643 57.4792 246.662C56.0328 248.271 54.6822 249.963 53.4343 251.73C53.4162 251.756 53.3922 251.777 53.3642 251.791C53.3362 251.806 53.3052 251.814 53.2736 251.814Z" fill="black"/>
  <path d="M56.4071 251.888C56.3698 251.888 56.3332 251.877 56.3016 251.858C56.27 251.838 56.2449 251.809 56.2289 251.775C56.2129 251.741 56.2069 251.704 56.2115 251.667C56.2161 251.63 56.2311 251.595 56.2548 251.566L59.3422 247.85C59.3589 247.83 59.3793 247.814 59.4023 247.802C59.4253 247.79 59.4505 247.782 59.4764 247.78C59.5022 247.778 59.5282 247.781 59.553 247.788C59.5777 247.796 59.6006 247.809 59.6205 247.825C59.6404 247.842 59.6568 247.863 59.6688 247.886C59.6808 247.909 59.6881 247.934 59.6904 247.96C59.6927 247.985 59.6899 248.011 59.6821 248.036C59.6744 248.061 59.6617 248.084 59.6451 248.104L56.5585 251.82C56.5398 251.841 56.5166 251.859 56.4904 251.871C56.4643 251.882 56.4358 251.888 56.4071 251.888Z" fill="black"/>
  <path d="M58.9865 252.01C58.9501 252.01 58.9144 252 58.8835 251.981C58.8525 251.962 58.8274 251.935 58.8111 251.902C58.7947 251.87 58.7877 251.833 58.7907 251.797C58.7938 251.761 58.8068 251.726 58.8283 251.697L59.5337 250.747C59.5658 250.708 59.6117 250.682 59.6619 250.676C59.7121 250.67 59.7627 250.683 59.8033 250.714C59.844 250.744 59.8715 250.788 59.8802 250.838C59.8889 250.888 59.8781 250.939 59.8501 250.981L59.1447 251.932C59.1263 251.956 59.1024 251.976 59.0749 251.99C59.0474 252.004 59.0172 252.011 58.9865 252.01Z" fill="black"/>
  <g opacity="0.129">
  <path d="M93.9732 203.283H1.08105V206.038H93.9732V203.283Z" fill="black"/>
  </g>
  <path d="M86.4149 277.68C100.506 277.68 111.929 266.257 111.929 252.166C111.929 238.075 100.506 226.651 86.4149 226.651C72.3236 226.651 60.9004 238.075 60.9004 252.166C60.9004 266.257 72.3236 277.68 86.4149 277.68Z" fill="white"/>
  <path d="M86.4154 278.272C81.2523 278.272 76.2052 276.741 71.9123 273.873C67.6194 271.004 64.2735 266.927 62.2977 262.157C60.3219 257.387 59.8049 252.138 60.8122 247.075C61.8194 242.011 64.3057 237.359 67.9565 233.708C71.6074 230.058 76.2587 227.571 81.3226 226.564C86.3864 225.557 91.6353 226.074 96.4053 228.05C101.175 230.025 105.252 233.371 108.121 237.664C110.989 241.957 112.52 247.004 112.52 252.167C112.512 259.088 109.759 265.723 104.865 270.617C99.9712 275.511 93.3362 278.264 86.4154 278.272ZM86.4154 227.243C81.4859 227.243 76.6671 228.705 72.5684 231.444C68.4696 234.182 65.275 238.075 63.3886 242.629C61.5021 247.184 61.0086 252.195 61.9703 257.03C62.932 261.865 65.3057 266.306 68.7914 269.791C72.2771 273.277 76.7181 275.651 81.5529 276.613C86.3877 277.574 91.3992 277.081 95.9535 275.194C100.508 273.308 104.4 270.113 107.139 266.014C109.878 261.916 111.339 257.097 111.339 252.167C111.332 245.559 108.704 239.224 104.032 234.551C99.359 229.878 93.0236 227.249 86.4154 227.242V227.243Z" fill="black"/>
  <path d="M86.4164 234.417C86.2593 234.417 86.1087 234.354 85.9977 234.243C85.8866 234.132 85.8242 233.982 85.8242 233.825V230.363C85.8242 230.206 85.8866 230.055 85.9977 229.944C86.1087 229.833 86.2593 229.771 86.4164 229.771C86.5734 229.771 86.724 229.833 86.8351 229.944C86.9461 230.055 87.0084 230.206 87.0084 230.363V233.825C87.0084 233.982 86.9461 234.132 86.8351 234.243C86.724 234.354 86.5734 234.417 86.4164 234.417Z" fill="black"/>
  <path d="M86.4164 274.556C86.2593 274.556 86.1087 274.494 85.9977 274.383C85.8866 274.272 85.8242 274.121 85.8242 273.964V270.501C85.8242 270.344 85.8866 270.194 85.9977 270.083C86.1087 269.972 86.2593 269.909 86.4164 269.909C86.5734 269.909 86.724 269.972 86.8351 270.083C86.9461 270.194 87.0084 270.344 87.0084 270.501V273.969C87.0071 274.125 86.9441 274.275 86.8332 274.385C86.7223 274.495 86.5725 274.556 86.4164 274.556Z" fill="black"/>
  <path d="M108.22 252.756H104.757C104.6 252.756 104.449 252.694 104.338 252.583C104.227 252.472 104.165 252.321 104.165 252.164C104.165 252.007 104.227 251.857 104.338 251.746C104.449 251.635 104.6 251.572 104.757 251.572H108.22C108.377 251.572 108.528 251.635 108.639 251.746C108.75 251.857 108.812 252.007 108.812 252.164C108.812 252.321 108.75 252.472 108.639 252.583C108.528 252.694 108.377 252.756 108.22 252.756Z" fill="black"/>
  <path d="M68.0727 252.756H64.6106C64.4536 252.756 64.3031 252.694 64.192 252.583C64.081 252.472 64.0186 252.321 64.0186 252.164C64.0186 252.007 64.081 251.857 64.192 251.746C64.3031 251.635 64.4536 251.572 64.6106 251.572H68.0727C68.2298 251.572 68.3804 251.635 68.4914 251.746C68.6025 251.857 68.6649 252.007 68.6649 252.164C68.6649 252.321 68.6025 252.472 68.4914 252.583C68.3804 252.694 68.2298 252.756 68.0727 252.756Z" fill="black"/>
  <path d="M87.009 252.165C86.8927 252.164 86.7793 252.129 86.6829 252.064C86.5865 251.999 86.5114 251.907 86.4669 251.8C86.4224 251.692 86.4106 251.574 86.4328 251.46C86.4551 251.346 86.5104 251.241 86.5919 251.158L96.0537 241.696C96.1068 241.634 96.1721 241.584 96.2456 241.548C96.319 241.513 96.399 241.493 96.4806 241.49C96.5621 241.487 96.6434 241.5 96.7194 241.53C96.7954 241.56 96.8644 241.605 96.9221 241.663C96.9798 241.72 97.025 241.789 97.0548 241.865C97.0845 241.941 97.0983 242.023 97.0952 242.104C97.092 242.186 97.072 242.266 97.0365 242.339C97.001 242.413 96.9505 242.478 96.8885 242.531L87.4234 251.992C87.3134 252.102 87.1645 252.164 87.009 252.165Z" fill="black"/>
  <path d="M86.4171 254.92C87.9386 254.92 89.172 253.687 89.172 252.165C89.172 250.644 87.9386 249.41 86.4171 249.41C84.8955 249.41 83.6621 250.644 83.6621 252.165C83.6621 253.687 84.8955 254.92 86.4171 254.92Z" fill="white"/>
  <path d="M86.4176 255.51C85.756 255.51 85.1092 255.314 84.5591 254.946C84.0089 254.579 83.5801 254.056 83.3269 253.445C83.0737 252.834 83.0075 252.161 83.1365 251.512C83.2656 250.863 83.5842 250.267 84.0521 249.799C84.52 249.331 85.116 249.013 85.765 248.884C86.4139 248.755 87.0865 248.821 87.6978 249.074C88.3091 249.327 88.8316 249.756 89.1992 250.306C89.5668 250.856 89.763 251.503 89.763 252.165C89.7621 253.052 89.4094 253.902 88.7822 254.529C88.155 255.156 87.3046 255.509 86.4176 255.51ZM86.4176 250C85.9895 250 85.571 250.127 85.215 250.365C84.8591 250.603 84.5817 250.941 84.4178 251.336C84.254 251.732 84.2111 252.167 84.2946 252.587C84.3782 253.007 84.5843 253.393 84.887 253.695C85.1897 253.998 85.5755 254.204 85.9953 254.288C86.4152 254.371 86.8504 254.328 87.246 254.164C87.6415 254.001 87.9795 253.723 88.2174 253.367C88.4552 253.011 88.5822 252.593 88.5822 252.165C88.5813 251.591 88.3529 251.041 87.9472 250.635C87.5414 250.23 86.9914 250.002 86.4176 250.001V250Z" fill="black"/>
  <g opacity="0.129">
  <path d="M61.6829 248.109C61.7193 247.892 61.7556 247.673 61.7945 247.456C62.2011 245.196 62.9402 243.009 63.9878 240.965C63.8781 240.809 63.7366 240.679 63.5725 240.582C62.1173 242.156 60.9228 243.953 60.0342 245.904C59.3121 247.451 58.7454 249.066 58.3425 250.726C58.2619 251.084 58.1864 251.444 58.1159 251.806C57.8371 254.021 57.9835 256.27 58.5473 258.43C58.7029 259.332 58.983 260.207 59.3796 261.032C59.4401 261.294 59.5694 261.536 59.7541 261.733C59.9388 261.929 60.1723 262.073 60.4309 262.15C60.716 262.223 61.0165 262.209 61.2934 262.109C61.5703 262.009 61.8106 261.828 61.9831 261.59C62.1557 261.351 62.2524 261.066 62.2607 260.772C62.269 260.478 62.1885 260.188 62.0296 259.94V259.93L62.0728 259.985C62.0474 259.943 62.0305 259.901 62.0076 259.855C61.9264 259.561 61.8399 259.268 61.7479 258.977C61.0065 256.981 60.7381 254.84 60.9638 252.723C61.0225 251.162 61.2639 249.614 61.6829 248.109Z" fill="black"/>
  </g>
  <path d="M502.54 182.656C525.619 181.619 548.734 181.54 571.622 182.492C573.139 208.047 573.947 233.958 568.714 258.996C567.902 262.874 566.904 266.821 564.667 270.066C562.723 272.794 559.973 274.845 556.804 275.932C553.635 277.019 550.205 277.086 546.995 276.126C529.229 275.83 514.764 274.089 496.631 273.176C505.248 243.374 501.934 213.235 502.54 182.656Z" fill="white"/>
  <path d="M551.539 277.534C549.961 277.534 548.39 277.313 546.874 276.877C536.128 276.695 526.703 275.994 516.722 275.253C510.331 274.778 503.722 274.287 496.585 273.928C496.471 273.922 496.36 273.89 496.26 273.836C496.159 273.781 496.073 273.704 496.006 273.611C495.94 273.518 495.896 273.411 495.876 273.299C495.857 273.186 495.863 273.07 495.895 272.96C502.349 250.646 502.086 228.615 501.805 205.292C501.711 197.88 501.625 190.22 501.774 182.639C501.778 182.447 501.855 182.263 501.989 182.126C502.123 181.988 502.305 181.907 502.497 181.898C525.821 180.848 549.084 180.794 571.644 181.733C571.832 181.741 572.01 181.818 572.144 181.949C572.278 182.081 572.358 182.258 572.369 182.445C573.836 207.161 574.819 233.445 569.442 259.149C568.671 262.834 567.65 267.054 565.277 270.492C563.722 272.684 561.661 274.468 559.27 275.694C556.878 276.92 554.226 277.551 551.539 277.534ZM497.612 272.468C504.405 272.823 510.719 273.293 516.835 273.747C526.823 274.49 536.255 275.19 547.001 275.368C547.069 275.369 547.137 275.38 547.202 275.399C550.259 276.307 553.523 276.24 556.54 275.207C559.557 274.175 562.177 272.227 564.036 269.636C566.248 266.429 567.226 262.384 567.965 258.842C573.254 233.559 572.342 207.638 570.903 183.227C548.83 182.327 526.083 182.383 503.282 183.388C503.15 190.714 503.238 198.117 503.325 205.282C503.591 227.379 503.864 250.224 497.616 272.465L497.612 272.468Z" fill="black"/>
  <path d="M476.133 256.798C498.433 256.401 520.742 256.565 542.635 256.9C541.859 262.698 543.008 268.59 545.905 273.673C546.811 275.249 548.212 276.894 549.913 276.784C529.075 276.589 508.69 278.499 487.632 276.784C483.708 276.257 478.532 274.52 476.395 268.997C474.937 265.244 474.341 260.864 476.133 256.798Z" fill="white"/>
  <path d="M507.39 278.261C500.83 278.261 494.208 278.082 487.57 277.541C481.566 276.738 477.473 273.882 475.687 269.276C474.431 266.038 473.368 261.192 475.439 256.493C475.498 256.361 475.593 256.248 475.714 256.168C475.834 256.088 475.975 256.044 476.12 256.041C495.25 255.701 515.768 255.731 542.646 256.143C542.753 256.144 542.858 256.169 542.955 256.214C543.052 256.259 543.139 256.325 543.208 256.406C543.278 256.487 543.33 256.583 543.36 256.685C543.391 256.788 543.399 256.896 543.385 257.002C542.622 262.635 543.739 268.362 546.56 273.296C547.132 274.287 548.249 275.893 549.579 276.023H549.919C550.115 276.024 550.303 276.102 550.443 276.239C550.583 276.376 550.664 276.562 550.67 276.758C550.675 276.954 550.604 277.145 550.472 277.29C550.34 277.435 550.157 277.523 549.961 277.536C549.805 277.547 549.648 277.547 549.492 277.536C541.987 277.477 534.411 277.688 527.085 277.894C520.616 278.077 514.034 278.261 507.39 278.261ZM476.641 257.547C475.033 261.635 475.985 265.86 477.099 268.728C479.088 273.857 483.978 275.532 487.731 276.035C500.969 277.112 514.224 276.741 527.04 276.381C533.46 276.201 540.07 276.016 546.669 276.013C546.12 275.416 545.641 274.758 545.244 274.051C542.4 269.08 541.187 263.342 541.778 257.645C515.565 257.25 495.416 257.219 476.641 257.547Z" fill="black"/>
  <path d="M496.827 215.767C496.434 224.773 496.347 233.509 496.621 242.581C502.878 242.6 509.27 243.307 515.563 242.413C515.26 233.695 515.017 224.974 514.934 216.062C518.071 216.062 521.21 216.062 524.377 216.004C518.366 209 512.353 201.995 505.906 194.896C499.612 201.573 493.562 208.502 487.755 215.685C490.796 215.688 493.891 215.767 496.827 215.767Z" fill="#ACD4F7"/>
  <path d="M508.245 243.62C506.229 243.62 504.222 243.548 502.247 243.478C500.396 243.412 498.483 243.343 496.618 243.337C496.422 243.336 496.234 243.259 496.095 243.122C495.955 242.985 495.873 242.799 495.867 242.604C495.609 234.032 495.666 225.491 496.04 216.523C494.804 216.523 493.544 216.503 492.276 216.485C490.775 216.465 489.258 216.445 487.757 216.444C487.614 216.444 487.474 216.404 487.353 216.327C487.232 216.251 487.136 216.142 487.074 216.013C487.012 215.884 486.989 215.74 487.005 215.598C487.022 215.456 487.078 215.321 487.168 215.21C493.078 207.924 499.196 200.915 505.355 194.383C505.424 194.303 505.511 194.24 505.609 194.198C505.706 194.157 505.812 194.139 505.918 194.145C506.022 194.145 506.125 194.167 506.221 194.21C506.316 194.253 506.401 194.315 506.471 194.392C512.916 201.49 519.025 208.606 524.931 215.487C525.027 215.597 525.09 215.733 525.112 215.877C525.135 216.022 525.117 216.17 525.061 216.305C525.006 216.437 524.914 216.551 524.796 216.633C524.678 216.715 524.54 216.762 524.396 216.767C521.483 216.823 518.545 216.826 515.703 216.825C515.78 224.397 515.974 232.324 516.325 242.392C516.331 242.579 516.269 242.761 516.148 242.905C516.028 243.048 515.86 243.142 515.674 243.168C513.212 243.493 510.729 243.644 508.245 243.62ZM497.363 241.828C499.012 241.847 500.682 241.906 502.304 241.965C506.465 242.223 510.639 242.151 514.789 241.752C514.441 231.661 514.254 223.714 514.182 216.069C514.181 215.969 514.2 215.87 514.237 215.778C514.275 215.685 514.33 215.601 514.4 215.53C514.471 215.459 514.555 215.402 514.647 215.364C514.74 215.325 514.839 215.306 514.939 215.306C517.502 215.306 520.129 215.306 522.757 215.273C517.331 208.953 511.751 202.475 505.902 196.013C500.303 201.982 494.738 208.339 489.347 214.936C490.331 214.943 491.317 214.956 492.298 214.969C493.831 214.988 495.352 215.009 496.833 215.009C496.935 215.009 497.036 215.03 497.131 215.07C497.225 215.11 497.31 215.169 497.381 215.243C497.451 215.317 497.506 215.404 497.542 215.5C497.578 215.596 497.594 215.698 497.59 215.8C497.195 224.764 497.121 233.286 497.36 241.827L497.363 241.828Z" fill="black"/>
  <path d="M560.036 200.967H560.016C547.811 200.639 535.437 200.592 523.241 200.818C523.141 200.822 523.041 200.805 522.948 200.77C522.855 200.734 522.769 200.68 522.697 200.611C522.625 200.541 522.568 200.458 522.529 200.366C522.489 200.274 522.469 200.175 522.469 200.075C522.467 199.976 522.485 199.877 522.521 199.784C522.558 199.691 522.612 199.607 522.681 199.535C522.75 199.463 522.833 199.406 522.924 199.366C523.015 199.326 523.113 199.305 523.213 199.303C535.434 199.072 547.832 199.123 560.058 199.453C560.157 199.456 560.255 199.478 560.346 199.518C560.437 199.559 560.519 199.617 560.587 199.689C560.655 199.761 560.709 199.846 560.744 199.939C560.78 200.032 560.797 200.131 560.794 200.23C560.789 200.428 560.707 200.615 560.565 200.753C560.424 200.891 560.234 200.968 560.036 200.967Z" fill="black"/>
  <path d="M558.994 214.677H558.987L531.312 214.432C531.213 214.431 531.114 214.411 531.023 214.372C530.931 214.333 530.848 214.277 530.779 214.206C530.709 214.135 530.654 214.051 530.617 213.959C530.579 213.867 530.561 213.768 530.562 213.668C530.564 213.469 530.644 213.278 530.786 213.137C530.928 212.997 531.12 212.918 531.32 212.918H531.327L559.002 213.162C559.203 213.164 559.395 213.246 559.536 213.389C559.676 213.532 559.754 213.726 559.753 213.926C559.751 214.126 559.67 214.317 559.528 214.458C559.386 214.598 559.194 214.677 558.994 214.677Z" fill="black"/>
  <path d="M522.508 228.707C522.312 228.707 522.123 228.631 521.982 228.495C521.841 228.359 521.758 228.173 521.752 227.977C521.748 227.878 521.764 227.779 521.798 227.685C521.833 227.592 521.885 227.506 521.953 227.433C522.021 227.36 522.102 227.302 522.193 227.26C522.283 227.219 522.381 227.196 522.48 227.192C534.395 226.755 546.491 226.567 558.429 226.637C558.63 226.639 558.821 226.721 558.962 226.863C559.102 227.006 559.181 227.199 559.18 227.399C559.178 227.599 559.097 227.79 558.955 227.93C558.813 228.071 558.622 228.15 558.422 228.15C546.501 228.078 534.434 228.266 522.537 228.703L522.508 228.707Z" fill="black"/>
  <path d="M522.134 241.543C521.935 241.543 521.745 241.465 521.603 241.325C521.461 241.186 521.38 240.996 521.377 240.798C521.375 240.698 521.393 240.599 521.43 240.507C521.466 240.414 521.521 240.329 521.59 240.258C521.659 240.186 521.742 240.129 521.833 240.089C521.924 240.05 522.022 240.028 522.122 240.027L558.489 239.412C558.689 239.412 558.882 239.489 559.026 239.628C559.17 239.767 559.254 239.957 559.26 240.157C559.264 240.358 559.187 240.552 559.047 240.696C558.908 240.841 558.716 240.924 558.516 240.927L522.147 241.543H522.134Z" fill="black"/>
  <path d="M479.922 264.416C479.874 264.416 479.827 264.402 479.786 264.376C479.73 264.341 479.69 264.284 479.675 264.219C479.66 264.153 479.672 264.085 479.708 264.028C480.702 262.462 481.847 260.997 483.125 259.653C483.171 259.605 483.235 259.577 483.301 259.575C483.368 259.574 483.433 259.599 483.481 259.644C483.53 259.691 483.558 259.754 483.56 259.821C483.562 259.888 483.537 259.953 483.491 260.002C482.235 261.322 481.111 262.761 480.134 264.299C480.112 264.334 480.08 264.364 480.043 264.385C480.006 264.405 479.964 264.416 479.922 264.416Z" fill="black"/>
  <path d="M480.454 271.117C480.405 271.117 480.357 271.102 480.316 271.074C480.288 271.056 480.264 271.033 480.245 271.005C480.227 270.978 480.214 270.947 480.207 270.914C480.201 270.882 480.2 270.848 480.207 270.816C480.213 270.783 480.226 270.752 480.244 270.724C482.832 266.833 485.751 263.172 488.969 259.783C489.016 259.735 489.079 259.707 489.146 259.705C489.213 259.704 489.278 259.728 489.327 259.774C489.375 259.821 489.403 259.884 489.405 259.951C489.406 260.018 489.381 260.083 489.335 260.132C486.139 263.499 483.239 267.137 480.668 271.003C480.644 271.039 480.613 271.068 480.575 271.087C480.538 271.107 480.496 271.117 480.454 271.117Z" fill="black"/>
  <path d="M484.724 273.749C484.675 273.749 484.628 273.735 484.587 273.709C484.559 273.691 484.535 273.668 484.516 273.641C484.497 273.614 484.484 273.583 484.477 273.551C484.469 273.518 484.469 273.485 484.475 273.452C484.48 273.419 484.493 273.388 484.511 273.36C487.544 268.615 490.91 264.092 494.584 259.824C494.628 259.773 494.69 259.742 494.757 259.737C494.823 259.732 494.889 259.754 494.94 259.797C494.991 259.841 495.022 259.903 495.027 259.97C495.032 260.037 495.011 260.103 494.967 260.154C491.308 264.404 487.956 268.908 484.936 273.633C484.914 273.669 484.882 273.698 484.845 273.718C484.808 273.738 484.766 273.749 484.724 273.749Z" fill="black"/>
  <path d="M491.231 274.301C491.184 274.301 491.138 274.288 491.099 274.262C491.071 274.245 491.046 274.222 491.026 274.196C491.007 274.169 490.993 274.138 490.985 274.106C490.978 274.074 490.976 274.04 490.982 274.008C490.987 273.975 490.999 273.944 491.016 273.915C493.98 269.129 497.2 264.507 500.664 260.069C500.685 260.043 500.71 260.021 500.739 260.005C500.768 259.988 500.799 259.978 500.832 259.974C500.865 259.97 500.899 259.972 500.931 259.981C500.963 259.99 500.993 260.005 501.019 260.025C501.072 260.066 501.106 260.127 501.114 260.193C501.122 260.259 501.104 260.326 501.063 260.379C497.61 264.802 494.4 269.409 491.446 274.18C491.424 274.217 491.392 274.247 491.354 274.268C491.317 274.29 491.274 274.301 491.231 274.301Z" fill="black"/>
  <path d="M497.178 274.833C497.128 274.833 497.08 274.819 497.039 274.791C497.011 274.773 496.987 274.749 496.968 274.722C496.95 274.694 496.937 274.663 496.93 274.631C496.923 274.598 496.923 274.565 496.929 274.532C496.936 274.5 496.948 274.469 496.966 274.441L506.659 259.762C506.678 259.734 506.701 259.71 506.728 259.691C506.756 259.672 506.787 259.659 506.819 259.653C506.852 259.646 506.885 259.646 506.918 259.652C506.951 259.658 506.982 259.671 507.009 259.69C507.037 259.708 507.061 259.731 507.08 259.759C507.098 259.786 507.111 259.817 507.118 259.849C507.125 259.882 507.125 259.916 507.119 259.948C507.112 259.981 507.1 260.012 507.082 260.039L497.388 274.717C497.365 274.752 497.334 274.781 497.298 274.802C497.261 274.822 497.22 274.833 497.178 274.833Z" fill="black"/>
  <path d="M503.875 274.376C503.825 274.377 503.777 274.363 503.736 274.336C503.708 274.318 503.684 274.294 503.665 274.267C503.646 274.24 503.633 274.209 503.626 274.176C503.62 274.144 503.619 274.11 503.626 274.078C503.632 274.045 503.644 274.014 503.663 273.986C506.752 269.257 509.756 264.379 512.59 259.491C512.606 259.462 512.628 259.437 512.655 259.416C512.681 259.396 512.711 259.381 512.743 259.372C512.775 259.363 512.809 259.361 512.842 259.365C512.875 259.37 512.906 259.38 512.935 259.397C512.964 259.413 512.989 259.435 513.01 259.462C513.03 259.488 513.045 259.518 513.054 259.55C513.063 259.582 513.065 259.616 513.061 259.649C513.056 259.682 513.046 259.713 513.029 259.742C510.189 264.638 507.182 269.523 504.087 274.26C504.065 274.296 504.033 274.325 503.996 274.345C503.959 274.366 503.917 274.376 503.875 274.376Z" fill="black"/>
  <path d="M509.655 274.489C509.605 274.489 509.556 274.473 509.515 274.444C509.487 274.426 509.463 274.403 509.445 274.375C509.426 274.347 509.413 274.316 509.407 274.284C509.401 274.251 509.401 274.218 509.408 274.185C509.414 274.153 509.427 274.122 509.446 274.094C512.596 269.425 515.696 264.619 518.663 259.805C518.698 259.748 518.754 259.707 518.82 259.691C518.885 259.676 518.954 259.687 519.011 259.722C519.068 259.757 519.108 259.814 519.124 259.879C519.139 259.944 519.128 260.013 519.093 260.07C516.123 264.888 513.018 269.703 509.865 274.377C509.842 274.411 509.811 274.439 509.774 274.459C509.738 274.478 509.697 274.489 509.655 274.489Z" fill="black"/>
  <path d="M516.328 274.29C516.278 274.29 516.229 274.275 516.187 274.247C516.16 274.228 516.136 274.205 516.117 274.177C516.099 274.15 516.086 274.119 516.08 274.086C516.073 274.054 516.074 274.02 516.08 273.988C516.087 273.955 516.1 273.924 516.119 273.897C519.173 269.371 522.096 264.668 524.806 259.918C524.84 259.861 524.895 259.818 524.959 259.801C525.024 259.783 525.093 259.792 525.151 259.825C525.209 259.858 525.252 259.913 525.269 259.977C525.287 260.042 525.278 260.111 525.245 260.169C522.524 264.93 519.598 269.644 516.537 274.18C516.514 274.214 516.483 274.242 516.446 274.261C516.41 274.281 516.369 274.29 516.328 274.29Z" fill="black"/>
  <path d="M522.667 273.862C522.623 273.863 522.58 273.851 522.542 273.83C522.484 273.796 522.442 273.741 522.424 273.677C522.406 273.612 522.415 273.543 522.448 273.485L530.252 259.751C530.268 259.722 530.29 259.696 530.316 259.676C530.342 259.656 530.372 259.641 530.404 259.632C530.436 259.623 530.47 259.621 530.503 259.625C530.536 259.629 530.567 259.64 530.596 259.657C530.654 259.69 530.696 259.745 530.714 259.81C530.732 259.874 530.723 259.943 530.69 260.001L522.886 273.736C522.864 273.775 522.832 273.807 522.794 273.829C522.755 273.851 522.711 273.863 522.667 273.862Z" fill="black"/>
  <path d="M528.115 274.447C528.071 274.447 528.028 274.436 527.99 274.414C527.932 274.38 527.89 274.325 527.872 274.261C527.855 274.196 527.863 274.128 527.896 274.069C530.722 269.082 533.737 264.114 536.858 259.302C536.895 259.246 536.953 259.207 537.019 259.193C537.084 259.179 537.153 259.192 537.209 259.228C537.265 259.265 537.305 259.322 537.319 259.388C537.332 259.453 537.32 259.522 537.283 259.578C534.167 264.38 531.157 269.34 528.337 274.319C528.315 274.358 528.282 274.391 528.243 274.413C528.204 274.435 528.16 274.447 528.115 274.447Z" fill="black"/>
  <path d="M534.76 273.417C534.719 273.416 534.679 273.406 534.642 273.387C534.583 273.356 534.539 273.302 534.519 273.238C534.499 273.174 534.506 273.105 534.537 273.046C535.985 270.301 537.631 267.664 539.461 265.157C539.501 265.103 539.56 265.067 539.626 265.057C539.692 265.046 539.759 265.063 539.813 265.102C539.84 265.121 539.863 265.146 539.88 265.174C539.897 265.202 539.909 265.234 539.914 265.267C539.919 265.299 539.918 265.333 539.91 265.365C539.902 265.397 539.888 265.428 539.868 265.454C538.053 267.942 536.42 270.558 534.984 273.281C534.962 273.322 534.93 273.356 534.891 273.38C534.851 273.404 534.806 273.416 534.76 273.417Z" fill="black"/>
  <path d="M539.635 274.472C539.585 274.472 539.536 274.457 539.495 274.429C539.468 274.41 539.444 274.387 539.425 274.359C539.407 274.332 539.394 274.301 539.388 274.268C539.381 274.236 539.381 274.202 539.388 274.17C539.394 274.137 539.407 274.106 539.426 274.079L541.078 271.615C541.115 271.56 541.173 271.522 541.239 271.509C541.304 271.496 541.372 271.509 541.428 271.546C541.483 271.583 541.522 271.641 541.535 271.706C541.548 271.772 541.534 271.84 541.497 271.896L539.845 274.364C539.822 274.398 539.79 274.425 539.753 274.444C539.717 274.463 539.676 274.472 539.635 274.472Z" fill="black"/>
  <g opacity="0.129">
  <path d="M547.953 274.412C547.346 273.984 546.691 273.627 546.002 273.349C545.889 273.056 545.74 272.77 545.612 272.485L545.653 272.585C545.301 271.784 545 270.962 544.751 270.123C544.645 269.837 544.282 268.402 544.203 268.214C544.205 267.832 544.058 267.465 543.794 267.189C543.533 266.933 543.181 266.79 542.815 266.79C542.449 266.79 542.097 266.933 541.835 267.189C541.574 267.504 541.407 267.887 541.354 268.293C541.329 268.365 541.312 268.413 541.299 268.451C541.235 268.568 541.087 268.85 540.945 269.068C540.895 269.13 540.797 269.255 540.701 269.392C539.938 270.191 540.53 269.686 539.458 270.409C539.154 270.602 538.836 270.77 538.505 270.912L538.367 270.965C537.462 271.268 536.966 271.428 536.529 271.528C534.645 271.541 532.454 271.639 530.726 271.746C526.839 271.736 522.975 272.163 519.093 272.215C515.188 272.472 511.276 272.56 507.366 272.721C503.515 273.052 499.645 273.09 495.788 272.832C492.216 272.444 489.054 272.096 485.375 271.461C484.354 271.256 483.353 270.964 482.381 270.589C482.108 270.396 481.799 270.259 481.472 270.186C481.145 270.114 480.807 270.107 480.478 270.167C480.138 270.268 479.835 270.465 479.604 270.735C479.374 271.005 479.227 271.336 479.181 271.688C479.136 272.039 479.193 272.397 479.345 272.716C479.498 273.036 479.741 273.305 480.043 273.49C482.235 274.575 484.561 275.364 486.96 275.835C487.281 275.921 489.045 276.169 489.652 276.251C489.862 276.284 490.103 276.312 490.245 276.327C493.348 276.864 496.487 277.168 499.635 277.237C502.585 277.283 505.521 276.942 508.465 276.818C514.305 276.547 520.155 276.362 525.977 275.818C526.035 276.027 526.147 276.219 526.301 276.373C527.036 277.03 528.134 276.699 529.04 276.794L528.659 276.743C530.72 276.823 532.784 276.753 534.835 276.532C537.181 276.331 539.536 276.267 541.889 276.34C542.302 276.356 542.714 276.391 543.124 276.434C543.297 276.64 543.519 276.798 543.77 276.894C544.032 277.02 544.326 277.068 544.615 277.032C544.904 276.997 545.176 276.879 545.4 276.693C545.617 276.717 545.834 276.743 546.052 276.762L546.239 276.798C547.77 277.292 549.115 275.698 547.953 274.412Z" fill="black"/>
  </g>
  <g opacity="0.129">
  <path d="M527.803 215.305C527.501 214.365 526.987 213.505 526.302 212.793C525.458 211.862 524.614 210.917 523.745 210.011C520.121 206.279 516.342 202.699 512.769 198.916C511.539 197.548 510.355 196.136 509.069 194.819C508.615 194.426 508.284 193.84 507.715 193.612C507.398 193.474 507.041 193.456 506.712 193.564C506.383 193.672 506.106 193.897 505.932 194.196C505.804 194.422 505.739 194.679 505.744 194.939C505.749 195.2 505.825 195.454 505.962 195.675C506.005 195.743 506.053 195.807 506.108 195.867C506.188 195.975 506.265 196.084 506.351 196.187C506.379 196.221 506.406 196.258 506.433 196.293C510.36 201.214 514.97 205.504 519.236 210.119C520.831 211.896 523.66 214.879 524.496 215.804C524.523 215.844 524.551 215.889 524.584 215.941L524.624 216.015C524.546 216.03 524.469 216.052 524.394 216.08C522.329 215.911 520.254 215.886 518.185 216.004C518.074 216.022 517.959 216.032 517.844 216.041C517.496 215.935 517.122 215.953 516.786 216.091C516.278 216.091 515.779 216.227 515.342 216.487C514.986 216.626 514.695 216.894 514.528 217.238C514.362 217.581 514.331 217.976 514.442 218.341C514.788 221.571 515.482 228.798 515.581 233.59C515.823 236.146 515.889 238.717 515.777 241.283C515.763 241.552 515.761 241.821 515.769 242.09L515.774 242.057C515.773 242.127 515.776 242.196 515.782 242.265C513.749 242.669 511.68 242.869 509.607 242.863C507.727 242.664 505.833 242.618 503.945 242.725C503.565 242.698 503.184 242.77 502.839 242.932C502.494 243.095 502.197 243.344 501.975 243.654C501.809 243.953 501.734 244.293 501.759 244.634C501.784 244.974 501.908 245.3 502.116 245.571C502.324 245.842 502.607 246.045 502.93 246.157C503.253 246.269 503.601 246.284 503.932 246.199L504.173 246.16C505.119 246.07 506.071 246.057 507.02 246.121C508.465 246.293 509.92 246.366 511.375 246.339C512.694 246.272 514.009 246.136 515.315 245.933C515.865 245.873 516.412 245.779 516.951 245.652C517.506 245.683 518.06 245.571 518.559 245.327C519.058 245.083 519.487 244.715 519.803 244.257C519.942 244.169 520.059 244.049 520.145 243.908C520.319 243.124 520.36 242.317 520.266 241.519C520.264 240.653 520.218 239.788 520.128 238.927C520.117 238.603 520.034 238.286 519.884 237.998C519.884 237.845 519.884 237.696 519.884 237.556C519.734 231.773 519.213 226.006 518.996 220.224C518.984 219.92 518.974 219.615 518.962 219.311C519.981 219.278 521.002 219.278 522.021 219.3C522.119 219.323 522.22 219.333 522.321 219.331C522.514 219.324 522.714 219.321 522.917 219.317C523.597 219.371 524.282 219.34 524.954 219.223C525.09 219.19 525.222 219.143 525.348 219.082C525.985 218.942 526.57 218.627 527.037 218.172C527.367 217.823 527.605 217.397 527.731 216.933C527.891 216.405 527.916 215.845 527.803 215.305Z" fill="black"/>
  </g>
  <g opacity="0.129">
  <path d="M506.374 196.212L506.357 196.189C506.285 196.095 506.212 196.008 506.146 195.918L506.374 196.212Z" fill="black"/>
  </g>
  <path d="M248.191 395.226C247.858 397.059 249.291 399.626 257.691 395.226C264.043 391.898 268.931 389.669 271.691 387.763M274.191 384.226C274.389 385.411 273.494 386.518 271.691 387.763M271.691 387.763C273.635 392.537 274.925 395.704 276.563 399.726M278.191 403.726C277.597 402.265 277.063 400.956 276.563 399.726M251.991 397.722C255.991 410.055 266.591 433.226 276.191 425.226C286.191 418.426 296.358 408.059 300.191 403.726L314.191 387.763M276.563 399.726C282.272 394.559 294.791 384.226 299.191 384.226M295.991 381.222C273.191 384.422 267.191 385.226 266.191 373.226C255.691 315.726 254.191 317.226 280.691 317.226L344.191 311.726C357.791 310.926 353.191 349.226 355.191 369.226C356.691 378.226 319.991 378.722 320.491 376.722M290.191 288.226C291.025 293.392 292.691 304.326 292.691 306.726M304.191 294.726C303.191 297.392 301.291 303.326 301.691 305.726M314.191 299.226C313.525 301.059 312.191 304.926 312.191 305.726M278.191 300.226C280.358 303.226 284.691 309.326 284.691 309.726M267.691 308.726C269.691 309.892 273.691 312.426 273.691 313.226M294.834 339.726L302.691 331.433M295.691 342.226L305.691 332.226M297.323 344.394L302.691 339.226M305.191 336.726L308.325 332.922M299.094 346.102L310.691 334.726M301.506 347.726C301.906 347.726 309.025 340.018 312.691 336.518M303.975 348.567L313.295 340.226M295.191 341.726C293.191 336.226 299.691 326.226 311.191 334.726C318.072 339.811 307.191 358.726 295.191 341.726Z" stroke="black" stroke-linecap="round"/>
  <path d="M179.691 431.226C176.525 436.726 170.191 457.426 170.191 496.226" stroke="black"/>
  <path d="M189.691 425.226C203.525 428.559 234.891 432.726 249.691 422.726M198.691 419.226C211.191 420.726 238.591 421.926 248.191 414.726" stroke="black"/>
  <path d="M232.191 310.726C231.858 316.559 231.891 328.226 234.691 328.226C238.191 328.226 259.691 337.726 261.691 349.726M208.691 311.726C208.858 318.226 208.191 331.026 204.191 330.226C199.191 329.226 173.691 336.226 159.691 389.226C164.691 392.726 169.191 398.726 184.691 396.726C184.691 393.526 184.691 389.059 184.691 387.226V408.226M162.191 391.726C156.858 409.059 150.591 442.026 168.191 435.226C185.791 428.426 198.525 419.392 202.691 415.726C211.525 415.726 228.991 415.426 228.191 414.226C227.391 413.026 223.191 412.726 221.191 412.726C224.025 412.726 229.691 412.326 229.691 410.726C229.691 409.126 223.358 408.726 220.191 408.726C224.025 408.559 231.591 407.926 231.191 406.726C230.791 405.526 223.691 404.892 220.191 404.726C220.858 403.892 222.491 402.226 223.691 402.226C225.191 402.226 229.691 403.226 230.191 402.226C230.545 401.519 228.899 399.812 225.075 399.226M170.191 414.726C172.144 413.831 175.597 412.285 179.691 410.518M180.691 397.726L179.691 410.518M179.691 410.518C183.985 408.665 188.982 406.569 193.691 404.726C198.227 402.951 201.907 401.876 205.191 401.164M225.191 385.726C229.991 382.526 227.191 380.726 225.191 380.226L204.191 380.726C203.025 380.559 200.791 380.826 201.191 383.226C201.591 385.626 204.358 385.892 205.691 385.726C209.025 385.726 217.591 385.726 225.191 385.726ZM225.191 385.726L225.075 399.226M204.191 386.226L205.191 401.164M205.191 401.164C210.235 400.07 214.347 399.831 219.191 399.226C221.535 398.933 223.492 398.983 225.075 399.226M207.691 416.226C208.691 418.226 218.691 419.226 223.691 416.726M216.191 300.226C216.691 302.726 223.191 306.226 228.191 301.226M221.691 277.726C221.191 281.892 222.791 287.626 225.191 289.226C228.191 291.226 227.191 295.226 221.691 294.726M202.191 271.226C203.358 270.392 206.091 268.726 209.691 268.726M230.191 267.726C231.858 267.392 234.791 267.626 237.191 269.226M185.691 265.226C188.069 266.316 191.895 267.24 194.691 265.88M213.691 253.726C210.191 263.226 204.191 261.226 198.191 259.226C198.029 262.958 196.6 264.951 194.691 265.88M202.191 243.226C203.691 246.559 207.391 251.226 210.191 243.226C212.691 249.726 213.691 257.726 221.691 252.226C223.673 255.693 227.126 261.614 233.024 251.03M233.191 250.726C233.135 250.829 233.079 250.93 233.024 251.03M233.024 251.03C230.229 260.227 236.579 262.607 242.191 260.392M245.191 239.726C253.526 250.144 248.294 257.984 242.191 260.392M194.691 265.88V278.226C191.691 274.726 184.191 287.226 195.691 289.726C199.191 300.226 210.091 319.926 225.691 314.726C241.291 309.526 243.191 276.337 242.191 260.392M207.691 310.726C206.691 314.726 199.691 314.726 203.191 308.726C199.525 310.392 192.191 311.526 192.191 302.726C190.191 303.226 180.191 306.226 183.691 294.726C178.191 296.726 164.691 289.226 174.191 278.226C169.191 275.726 164.191 263.726 177.191 260.392C175.358 258.503 173.091 254.226 178.691 252.226C177.191 247.226 180.691 244.226 182.191 244.726C183.691 245.226 170.691 225.226 195.691 229.726C194.691 224.226 193.692 223.226 201.191 222.726C202.025 219.393 205.491 214.526 212.691 221.726C216.191 215.226 224.191 212.725 234.691 224.225C238.858 222.392 246.791 221.326 245.191 231.726C252.691 224.225 271.191 244.726 257.191 256.226C261.025 257.892 266.591 263.026 258.191 270.226C260.191 271.726 261.191 272.226 259.691 274.726C262.691 275.726 266.691 279.226 260.191 283.726C258.606 284.823 265.191 293.726 251.691 294.726C253 298.059 253.732 304.525 246.191 303.726C242.191 308.726 241.191 311.725 233.191 310.226" stroke="black" stroke-linecap="round"/>
  <path d="M204.191 390.726L190.691 405.226L205.191 400.726L204.191 390.726Z" fill="#BEE8FF"/>
  <path d="M221.191 377.726H212.191C214.412 375.172 216.682 371.903 218.876 368.226C211.191 359.226 199.691 335.726 200.691 330.226C202.691 329.226 206.391 330.126 207.191 327.726C209.191 336.926 215.091 356.515 222.691 361.275C228.671 349.488 233.369 335.794 233.691 327.726C234.691 328.226 236.691 328.226 241.191 330.726C239.991 346.326 227.358 368.726 221.191 377.726Z" fill="#BEE8FF"/>
  <path d="M203.691 381.226V385.226M205.691 380.726V385.226M207.191 380.726V385.226M209.191 380.726V385.311M211.691 380.726V385.311M214.191 380.726V385.226M216.691 380.726V385.311M219.191 380.726V385.226M221.691 380.726V385.226M223.691 380.726V385.226M225.691 380.726V384.726M189.191 393.226C190.191 394.559 192.891 397.126 195.691 396.726M222.691 361.275C228.671 349.488 233.369 335.794 233.691 327.726C234.691 328.226 236.691 328.226 241.191 330.726C239.991 346.326 227.358 368.726 221.191 377.726H212.191C214.412 375.172 216.682 371.903 218.876 368.226M222.691 361.275C215.091 356.515 209.191 336.926 207.191 327.726C206.391 330.126 202.691 329.226 200.691 330.226C199.691 335.726 211.191 359.226 218.876 368.226M222.691 361.275C221.465 363.694 220.184 366.032 218.876 368.226M190.691 405.226L204.191 390.726L205.191 400.726L190.691 405.226Z" stroke="black" stroke-linecap="round"/>
  <path d="M247.691 395.726C250.858 428.392 256.891 494.126 255.691 495.726" stroke="black"/>
  <path d="M251.691 367.726C253.858 375.892 254.891 393.826 241.691 400.226" stroke="black"/>
  <path d="M323.727 225.871C323.868 226.343 323.901 226.858 323.818 227.34C323.736 227.823 323.544 228.248 323.271 228.553C322.997 228.857 322.656 229.025 322.299 229.031C321.942 229.037 321.586 228.881 321.286 228.587C320.985 228.292 320.756 227.875 320.63 227.395C320.505 226.916 320.491 226.401 320.59 225.925C320.689 225.45 320.896 225.04 321.181 224.755C321.465 224.471 321.812 224.327 322.17 224.346L322.177 225.041C322.185 225.791 322.985 226.266 323.647 225.914L323.727 225.871Z" fill="black"/>
  <path d="M347.728 223.831C347.863 224.291 347.895 224.794 347.818 225.265C347.742 225.736 347.562 226.151 347.305 226.447C347.047 226.744 346.726 226.906 346.389 226.911C346.052 226.917 345.717 226.764 345.433 226.476C345.149 226.187 344.931 225.779 344.811 225.311C344.692 224.843 344.678 224.34 344.77 223.876C344.862 223.413 345.057 223.013 345.324 222.736C345.592 222.459 345.919 222.32 346.257 222.338L346.264 222.977C346.273 223.723 347.074 224.19 347.728 223.831Z" fill="black"/>
  <path d="M346.692 288.226C340.692 285.226 347.692 278.726 349.192 275.226L357.692 288.226L351.692 299.226L346.692 288.226Z" fill="#ACD4F7"/>
  <path d="M368.192 299.226C366.992 295.626 362.025 290.392 359.692 288.226C371.292 283.826 380.192 266.059 383.192 257.726L380.192 255.226C383.661 255.857 390.323 257.979 390.692 261.594C390.713 261.8 390.713 262.011 390.692 262.226C389.692 272.226 369.692 303.726 368.192 299.226Z" fill="#ACD4F7"/>
  <path d="M356.191 319.226C357.025 317.726 358.891 315.626 359.691 319.226C360.691 323.726 355.691 322.226 356.191 319.226Z" fill="#ACD4F7"/>
  <path d="M355.691 304.726C356.358 302.559 358.692 300.226 359.191 304.726C359.522 307.707 355.191 305.226 355.691 304.726Z" fill="#ACD4F7"/>
  <path d="M314.191 421.726C314.191 417.726 320.691 414.726 322.191 420.226C322.191 427.226 314.691 424.726 314.191 421.726Z" fill="#ACD4F7"/>
  <path d="M327.192 312.726C327.192 305.726 338.192 293.426 344.192 286.226M358.692 288.226C361.692 299.226 361.692 325.726 362.692 331.226M390.692 261.594C407.692 276.094 440.692 286.226 433.692 398.226C431.305 417.319 440.311 443.248 430.691 447.735M333.192 386.726C333.692 401.726 334.692 435.926 334.692 452.726C337.066 453.426 339.399 454.066 341.691 454.648M399.192 293.226C394.192 303.726 394.692 342.226 392.192 354.226M424.692 340.226C423.525 348.559 420.692 365.826 418.692 368.226M387.692 367.226C386.1 366.726 383.871 364.426 387.692 359.226C391.512 354.026 392.95 354.726 393.192 355.726C402.025 358.726 419.492 366.126 418.692 371.726C417.889 377.343 414.189 381.028 410.692 380.715M387.992 367.217C393.326 370.383 404.992 377.326 408.192 379.726C408.982 380.318 409.831 380.638 410.692 380.715M395.192 369.226L399.192 360.226M398.192 369.226L402.192 361.726M401.692 372.226L405.192 363.226M404.192 373.726L408.192 364.726M406.692 374.726L410.692 366.226M408.192 376.726L413.192 368.226M411.692 378.226L415.692 370.226M393.192 367.226L396.692 359.226M390.192 365.226L394.192 358.226M387.692 363.226L392.192 357.226M299.192 376.726C298.724 373.917 297.803 369.531 296.661 366.226M410.692 380.715C409.692 390.654 383.691 391.226 378.691 388.726C373.691 386.226 337.691 385.226 320.191 386.726C302.691 388.226 299.192 382.726 297.192 382.226C295.192 381.726 290.692 361.726 293.692 361.726C294.744 361.726 295.77 363.647 296.661 366.226M385.191 366.226C375.858 368.726 353.591 373.722 351.991 373.722M296.661 366.226C296.338 363.059 296.392 357.226 299.192 359.226C301.991 361.226 304.025 371.726 304.691 376.726C304.525 370.559 304.791 358.426 307.191 359.226C310.191 360.226 309.691 372.726 311.691 373.726C313.691 374.726 311.691 363.226 315.191 363.226C318.691 363.226 317.691 375.226 320.191 376.726M341.691 454.648C386.508 466.026 415.495 455.361 424.692 448.226C424.358 443.059 424.092 432.926 425.692 433.726C427.292 434.526 428.692 443.726 429.192 448.226C429.736 448.112 430.234 447.948 430.691 447.735M341.691 454.648L342.691 495.726M375.191 469.726C375.191 478.392 375.391 495.726 376.191 495.726M269.191 437.226C275.191 437.392 288.791 433.926 295.191 418.726M271.691 445.726C274.858 446.559 282.591 447.026 288.191 442.226M430.691 447.735V492.226M307.191 215.726C308.483 220.709 310.702 227.804 313.148 234.773C318.638 250.415 329.719 275.663 345.691 271.226V271.226C354.691 268.726 368.191 254.226 367.191 242.226C367.085 240.946 367 239.782 366.936 238.726M363.191 217.726C366.691 212.726 370.191 213.726 371.691 218.726C372.891 222.726 369.191 227.392 367.191 229.226C366.902 229.515 366.513 231.857 366.936 238.726M365.191 218.726C367.025 218.726 369.691 219.926 365.691 224.726M343.191 215.726C345.025 215.226 349.292 214.526 351.692 215.726M315.191 222.226C316.525 221.059 319.891 218.726 322.691 218.726M333.191 230.226C334.858 234.059 337.591 242.726 335.191 246.726C332.791 250.726 337.525 250.059 340.191 249.226M334.691 255.726C337.191 257.226 342.891 258.726 345.691 252.726M327.691 207.726C322.691 214.226 309.191 216.226 307.191 215.226C305.591 214.426 303.191 221.559 302.191 225.226C300.858 223.226 298.491 217.826 299.691 212.226C300.091 209.826 297.191 214.226 295.691 216.726C295.525 210.059 297.191 195.826 305.191 192.226C304.391 191.826 301.858 192.059 300.691 192.226C307.025 182.559 324.591 164.626 344.191 170.226C358.591 175.426 361.191 182.392 360.691 185.226C365.524 183.892 375.691 186.626 377.691 208.226C378.091 229.826 370.687 237.559 366.936 238.726M193.691 281.226C193.025 282.059 192.291 284.126 194.691 285.726M164.691 343.226C167.858 338.559 175.691 328.526 181.691 325.726M162.191 329.226C161.191 331.559 159.191 337.026 159.191 340.226M244.691 268.226C244.358 270.226 243.991 274.326 245.191 274.726M247.191 275.226C247.858 276.726 248.791 280.026 247.191 281.226M248.691 271.726C250.025 273.226 252.191 277.326 250.191 281.726M252.691 271.726C254.025 273.392 255.891 277.726 252.691 281.726M257.191 277.726C257.358 279.392 257.291 282.726 255.691 282.726M259.691 276.726C260.358 278.226 260.991 281.626 258.191 283.226M246.691 285.726C245.025 287.059 242.391 291.426 245.191 298.226M250.691 286.226C248.858 287.392 245.691 291.426 247.691 298.226M254.191 285.726C254.025 287.059 252.991 290.026 250.191 291.226M258.191 285.726C257.858 287.892 255.991 292.326 251.191 292.726M242.691 299.226C242.191 300.559 241.491 303.526 242.691 304.726M239.691 303.226C239.358 304.559 238.991 307.226 240.191 307.226M246.191 263.726C247.691 267.226 252.291 272.526 258.691 265.726M247.691 262.226C249.025 264.059 252.491 267.326 255.691 265.726M250.691 261.726C251.691 261.892 253.891 262.526 254.691 263.726M250.691 256.726C251.691 258.059 254.291 260.626 256.691 260.226M249.191 238.726C251.525 240.726 255.391 246.726 252.191 254.726M252.191 235.726C255.191 238.726 259.891 247.026 254.691 256.226M237.691 251.226C237.525 252.559 236.491 255.326 233.691 255.726M235.191 257.226C238.191 256.726 243.891 254.226 242.691 248.226M244.691 242.226C246.691 246.059 248.191 254.726 238.191 258.726M216.691 243.726C216.691 245.392 217.191 248.726 219.191 248.726M213.691 242.226C213.525 244.892 214.191 250.526 218.191 251.726M242.191 228.226C240.525 231.559 238.391 239.326 243.191 243.726M238.691 229.226C237.025 232.726 234.791 240.526 239.191 243.726M233.191 232.226C232.525 235.059 232.091 241.626 235.691 245.226M227.691 248.226C227.358 249.726 226.291 252.526 224.691 251.726M230.691 246.226C230.358 249.226 229.091 255.126 226.691 254.726M230.191 236.726C228.025 237.559 223.991 240.926 225.191 247.726M226.191 233.726C223.858 236.059 219.791 241.726 222.191 245.726M215.191 226.226C218.025 225.392 224.691 225.126 228.691 230.726M216.191 222.726C219.525 222.102 227.091 222.33 230.691 228.226M216.191 221.226C218.858 219.392 225.891 217.926 232.691 226.726M214.191 233.726C214.858 231.392 217.891 227.626 224.691 231.226M219.191 241.226C218.691 238.892 218.591 233.926 222.191 232.726M217.191 233.226C216.025 234.392 213.791 237.226 214.191 239.226M210.691 236.726C209.525 234.226 208.491 228.326 213.691 224.726M203.691 228.226C203.191 225.892 203.091 221.126 206.691 220.726M209.691 224.226C207.691 227.059 204.491 233.826 207.691 238.226M200.191 231.226C199.025 230.226 197.191 227.526 199.191 224.726M203.191 234.226C200.525 235.392 196.091 239.926 199.691 248.726M198.691 233.226C195.858 235.226 191.191 241.526 195.191 250.726M190.191 236.226C188.858 236.559 186.691 237.926 188.691 240.726M187.191 234.726C185.691 235.726 183.391 238.526 186.191 241.726M188.691 231.226C185.025 232.226 179.091 235.926 184.691 242.726M194.064 233.226C191.606 236.559 187.691 245.026 191.691 252.226M200.691 253.226C202.358 252.892 205.791 251.726 206.191 249.726M199.691 255.726C202.525 255.726 208.391 254.526 209.191 249.726M199.691 257.726C200.191 257.226 208.191 259.726 211.191 252.226M193.191 258.226C192.858 259.392 191.491 261.626 188.691 261.226M196.691 257.726C196.525 259.559 194.891 263.426 189.691 264.226M185.691 246.726C185.586 249.059 186.138 254.226 189.191 256.226M204.191 237.226C203.525 238.559 202.491 241.426 203.691 242.226M203.691 310.726C203.858 310.226 204.391 309.426 205.191 310.226M200.691 305.226C200.358 305.892 199.991 307.326 201.191 307.726M198.191 302.726C197.691 303.559 197.091 305.526 198.691 306.726M196.691 299.226C195.358 301.059 193.491 305.326 196.691 307.726M192.691 297.226C191.858 297.559 190.491 298.626 191.691 300.226M190.691 293.726C189.358 294.892 187.191 298.026 189.191 301.226M189.691 291.226C187.691 292.726 184.191 296.826 186.191 301.226M181.191 268.226C180.525 269.392 179.591 272.126 181.191 273.726M178.191 266.726C177.191 267.559 175.791 270.226 178.191 274.226M179.191 279.726C180.858 279.226 184.091 276.926 183.691 271.726M178.691 284.226C181.191 284.059 186.091 281.526 185.691 272.726M180.691 286.726C182.525 286.392 186.391 284.826 187.191 281.226M181.691 289.726C182.858 289.726 185.591 289.026 187.191 286.226M176.191 280.226C174.858 281.559 173.091 285.226 176.691 289.226M176.691 263.226C174.025 264.559 169.891 269.026 174.691 276.226M183.191 247.226C182.191 247.059 180.591 247.526 182.191 250.726M184.191 255.726C183.025 256.559 181.191 258.726 183.191 260.726M182.691 253.726C180.858 254.059 177.791 255.726 180.191 259.726M349.192 275.226C347.692 278.726 340.692 285.226 346.692 288.226L351.692 299.226L357.692 288.226L349.192 275.226ZM359.692 288.226C362.025 290.392 366.992 295.626 368.192 299.226C369.692 303.726 389.692 272.226 390.692 262.226C391.092 258.226 383.858 255.892 380.192 255.226L383.192 257.726C380.192 266.059 371.292 283.826 359.692 288.226ZM356.191 319.226C357.025 317.726 358.891 315.626 359.691 319.226C360.691 323.726 355.691 322.226 356.191 319.226ZM355.691 304.726C356.358 302.559 358.692 300.226 359.191 304.726C359.522 307.707 355.191 305.226 355.691 304.726ZM314.191 421.726C314.191 417.726 320.691 414.726 322.191 420.226C322.191 427.226 314.691 424.726 314.191 421.726Z" stroke="black" stroke-linecap="round"/>
  <path d="M209.722 275.951C209.88 276.445 209.913 276.985 209.817 277.492C209.721 277.999 209.501 278.446 209.189 278.767C208.877 279.088 208.489 279.266 208.084 279.275C207.679 279.283 207.277 279.122 206.938 278.815C206.6 278.508 206.342 278.071 206.202 277.569C206.063 277.067 206.051 276.527 206.166 276.027C206.281 275.528 206.519 275.097 206.843 274.796C207.167 274.496 207.562 274.344 207.967 274.361L207.972 275.213C207.975 275.953 208.754 276.433 209.416 276.103L209.722 275.951Z" fill="black"/>
  <path d="M234.165 274.803C234.302 275.243 234.332 275.724 234.25 276.175C234.168 276.627 233.978 277.024 233.709 277.31C233.441 277.595 233.107 277.753 232.757 277.759C232.407 277.766 232.06 277.622 231.767 277.348C231.473 277.074 231.25 276.684 231.129 276.237C231.007 275.79 230.995 275.308 231.094 274.864C231.192 274.419 231.397 274.036 231.676 273.769C231.956 273.502 232.296 273.367 232.646 273.383L232.65 273.95C232.655 274.694 233.442 275.172 234.105 274.834L234.165 274.803Z" fill="black"/>
  <path d="M311.967 0.892578H282.255C274.475 0.892578 268.168 7.19964 268.168 14.9798V87.4951C268.168 95.2752 274.475 101.582 282.255 101.582H311.967C319.747 101.582 326.054 95.2752 326.054 87.4951V14.9798C326.054 7.19964 319.747 0.892578 311.967 0.892578Z" fill="#ACD4F7"/>
  <path d="M315.058 102.257H279.169C276.075 102.253 273.109 101.023 270.921 98.835C268.733 96.6472 267.502 93.6808 267.498 90.5866V11.887C267.502 8.79285 268.733 5.82645 270.921 3.63861C273.109 1.45078 276.075 0.220185 279.169 0.216797H315.062C318.155 0.221228 321.12 1.45232 323.307 3.64007C325.494 5.82782 326.724 8.79362 326.728 11.887V90.5817C326.726 93.6766 325.496 96.6443 323.308 98.8332C321.12 101.022 318.153 102.253 315.058 102.257ZM279.169 1.56712C276.432 1.5692 273.808 2.65689 271.871 4.59158C269.935 6.52626 268.846 9.14994 268.841 11.887V90.5817C268.844 93.3201 269.932 95.9458 271.869 97.8822C273.805 99.8186 276.431 100.907 279.169 100.909H315.062C317.799 100.905 320.422 99.8156 322.357 97.8794C324.291 95.9432 325.379 93.3187 325.38 90.5817V11.887C325.377 9.1502 324.289 6.52635 322.353 4.59111C320.418 2.65587 317.794 1.56728 315.058 1.56416L279.169 1.56712Z" fill="black"/>
  <path d="M326.051 11.6006H268.165V87.5306H326.051V11.6006Z" fill="white"/>
  <path d="M326.048 88.2051H268.165C267.986 88.2051 267.815 88.1341 267.689 88.0077C267.562 87.8814 267.491 87.7101 267.491 87.5314V11.6014C267.491 11.4227 267.562 11.2514 267.689 11.125C267.815 10.9987 267.986 10.9277 268.165 10.9277H326.048C326.227 10.9277 326.398 10.9987 326.525 11.125C326.651 11.2514 326.722 11.4227 326.722 11.6014V87.5314C326.722 87.7101 326.651 87.8814 326.525 88.0077C326.398 88.1341 326.227 88.2051 326.048 88.2051ZM268.836 86.8577H325.375V12.2751H268.839L268.836 86.8577Z" fill="black"/>
  <path d="M302.911 93.6598H292.483C292.305 93.6598 292.133 93.5889 292.007 93.4625C291.881 93.3362 291.81 93.1648 291.81 92.9862C291.81 92.8075 291.881 92.6361 292.007 92.5098C292.133 92.3835 292.305 92.3125 292.483 92.3125H302.911C303.089 92.3125 303.261 92.3835 303.387 92.5098C303.513 92.6361 303.584 92.8075 303.584 92.9862C303.584 93.1648 303.513 93.3362 303.387 93.4625C303.261 93.5889 303.089 93.6598 302.911 93.6598Z" fill="black"/>
  <g opacity="0.129">
  <path d="M322.176 11.7362C320.201 11.6801 318.228 11.5894 316.252 11.6141C310.934 11.5589 305.617 11.5678 300.304 11.6407C296.121 11.6692 291.937 11.8435 287.759 11.5609C282.63 11.4023 277.504 11.099 272.37 11.3018C271.651 11.3147 270.931 11.3107 270.213 11.2753C269.779 11.1869 269.327 11.2329 268.919 11.4072C268.507 11.5857 268.169 11.9002 267.96 12.2982C267.752 12.6963 267.687 13.1537 267.776 13.594C267.865 14.0343 268.102 14.4308 268.448 14.7172C268.794 15.0037 269.227 15.1627 269.677 15.1676C272.178 15.3489 274.69 15.1509 277.196 15.209C280.186 15.1942 283.166 15.4424 286.152 15.5045C297.303 15.5714 308.459 15.6168 319.608 15.4217C321.085 15.4444 322.57 15.4148 324.051 15.3853C325.277 15.5222 326.522 14.945 326.537 13.5622C326.388 11.1856 323.83 11.8258 322.176 11.7362Z" fill="black"/>
  </g>
  <path d="M325.894 23.6748C311.881 23.6748 300.52 35.4751 300.52 50.0321C300.502 55.7885 302.332 61.3986 305.74 66.0379L302.633 78.7935L313.278 72.8979C317.09 75.1834 321.451 76.3905 325.895 76.3903C339.908 76.3903 351.269 64.5891 351.269 50.0321C351.269 35.4751 339.907 23.6748 325.894 23.6748Z" fill="white"/>
  <path d="M302.631 79.4681C302.529 79.4678 302.429 79.4445 302.337 79.3997C302.246 79.355 302.165 79.2902 302.102 79.21C302.039 79.1298 301.996 79.0364 301.974 78.9367C301.952 78.8371 301.953 78.7339 301.977 78.6349L305.01 66.1836C301.627 61.4792 299.82 55.8252 299.846 50.031C299.846 35.1263 311.531 23 325.894 23C340.257 23 351.942 35.1263 351.942 50.031C351.942 64.9357 340.257 77.0629 325.894 77.0629C321.461 77.058 317.107 75.8887 313.268 73.6719L302.958 79.3844C302.858 79.4392 302.746 79.468 302.631 79.4681ZM325.894 24.3493C312.274 24.3493 301.193 35.8728 301.193 50.0329C301.167 55.6467 302.952 61.1193 306.281 65.6389C306.34 65.7184 306.38 65.8097 306.399 65.9063C306.418 66.0029 306.416 66.1026 306.393 66.1983L303.65 77.4598L312.95 72.3087C313.053 72.2515 313.17 72.2224 313.288 72.2243C313.405 72.2262 313.521 72.2591 313.622 72.3196C317.331 74.5381 321.571 75.7122 325.893 75.7175C339.513 75.7175 350.594 64.194 350.594 50.0329C350.594 35.8718 339.51 24.3493 325.894 24.3493Z" fill="black"/>
  <path d="M283.098 21.8102C283.097 21.3397 283.237 20.8798 283.498 20.4885C283.759 20.0972 284.131 19.7922 284.565 19.612C285 19.4318 285.478 19.3846 285.94 19.4762C286.401 19.5679 286.825 19.7944 287.158 20.127C287.491 20.4596 287.717 20.8834 287.809 21.3448C287.901 21.8063 287.854 22.2846 287.674 22.7192C287.494 23.1539 287.189 23.5255 286.798 23.7869C286.407 24.0483 285.947 24.1878 285.476 24.1878C284.846 24.1878 284.241 23.9373 283.795 23.4915C283.349 23.0456 283.098 22.4409 283.098 21.8102Z" fill="white"/>
  <path d="M285.477 24.8643C284.873 24.8643 284.283 24.6852 283.781 24.3497C283.279 24.0142 282.887 23.5374 282.656 22.9795C282.425 22.4216 282.365 21.8077 282.482 21.2154C282.6 20.6231 282.891 20.0791 283.318 19.6521C283.745 19.2251 284.289 18.9343 284.881 18.8165C285.474 18.6987 286.088 18.7591 286.645 18.9902C287.203 19.2213 287.68 19.6127 288.016 20.1148C288.351 20.6169 288.53 21.2072 288.53 21.811C288.53 22.6208 288.209 23.3974 287.636 23.97C287.063 24.5426 286.287 24.8643 285.477 24.8643ZM285.477 20.1081C285.14 20.1081 284.81 20.2081 284.53 20.3955C284.249 20.5828 284.031 20.8491 283.902 21.1606C283.773 21.4721 283.739 21.8149 283.805 22.1456C283.871 22.4763 284.033 22.7801 284.272 23.0186C284.51 23.257 284.814 23.4194 285.144 23.4851C285.475 23.5509 285.818 23.5172 286.13 23.3881C286.441 23.2591 286.707 23.0406 286.895 22.7602C287.082 22.4798 287.182 22.1502 287.182 21.813C287.182 21.3607 287.002 20.9268 286.683 20.6068C286.363 20.2868 285.929 20.1067 285.477 20.1062V20.1081Z" fill="black"/>
  <path d="M294.619 21.8102C294.619 21.3399 294.758 20.88 295.019 20.4888C295.28 20.0976 295.652 19.7925 296.086 19.6123C296.521 19.432 296.999 19.3846 297.46 19.476C297.921 19.5675 298.345 19.7936 298.678 20.1259C299.011 20.4582 299.238 20.8818 299.33 21.343C299.422 21.8043 299.376 22.2825 299.196 22.7172C299.017 23.1519 298.712 23.5237 298.321 23.7854C297.931 24.0472 297.471 24.1872 297.001 24.1878C296.688 24.1882 296.379 24.127 296.09 24.0077C295.801 23.8884 295.538 23.7133 295.317 23.4925C295.096 23.2717 294.921 23.0095 294.801 22.7208C294.681 22.4322 294.619 22.1227 294.619 21.8102Z" fill="white"/>
  <path d="M296.999 24.8643C296.395 24.8643 295.804 24.6852 295.302 24.3497C294.8 24.0142 294.409 23.5374 294.178 22.9795C293.947 22.4216 293.886 21.8077 294.004 21.2154C294.122 20.6231 294.413 20.0791 294.84 19.6521C295.267 19.2251 295.811 18.9343 296.403 18.8165C296.995 18.6987 297.609 18.7591 298.167 18.9902C298.725 19.2213 299.202 19.6127 299.537 20.1148C299.873 20.6169 300.052 21.2072 300.052 21.811C300.052 22.6208 299.73 23.3974 299.158 23.97C298.585 24.5426 297.808 24.8643 296.999 24.8643ZM296.999 20.1081C296.661 20.1081 296.332 20.2081 296.051 20.3955C295.771 20.5828 295.553 20.8491 295.423 21.1606C295.294 21.4721 295.261 21.8149 295.326 22.1456C295.392 22.4763 295.555 22.7801 295.793 23.0186C296.031 23.257 296.335 23.4194 296.666 23.4851C296.997 23.5509 297.339 23.5172 297.651 23.3881C297.963 23.2591 298.229 23.0406 298.416 22.7602C298.603 22.4798 298.703 22.1502 298.703 21.813C298.703 21.3607 298.524 20.9268 298.204 20.6068C297.885 20.2868 297.451 20.1067 296.999 20.1062V20.1081Z" fill="black"/>
  <path d="M306.132 21.8102C306.132 21.3397 306.271 20.8798 306.532 20.4885C306.793 20.0972 307.165 19.7922 307.599 19.612C308.034 19.4318 308.512 19.3846 308.974 19.4762C309.435 19.5679 309.859 19.7944 310.192 20.127C310.525 20.4596 310.751 20.8834 310.843 21.3448C310.935 21.8063 310.888 22.2846 310.708 22.7192C310.528 23.1539 310.223 23.5255 309.832 23.7869C309.441 24.0483 308.981 24.1878 308.51 24.1878C307.88 24.1878 307.275 23.9373 306.829 23.4915C306.383 23.0456 306.132 22.4409 306.132 21.8102Z" fill="white"/>
  <path d="M308.511 24.8643C307.907 24.8643 307.317 24.6852 306.815 24.3497C306.313 24.0142 305.922 23.5374 305.69 22.9795C305.459 22.4216 305.399 21.8077 305.517 21.2154C305.634 20.6231 305.925 20.0791 306.352 19.6521C306.779 19.2251 307.323 18.9343 307.916 18.8165C308.508 18.6987 309.122 18.7591 309.68 18.9902C310.238 19.2213 310.714 19.6127 311.05 20.1148C311.385 20.6169 311.564 21.2072 311.564 21.811C311.564 22.6208 311.243 23.3974 310.67 23.97C310.098 24.5426 309.321 24.8643 308.511 24.8643ZM308.511 20.1081C308.174 20.1079 307.844 20.2078 307.564 20.395C307.283 20.5822 307.065 20.8484 306.935 21.1599C306.806 21.4714 306.772 21.8142 306.838 22.145C306.904 22.4758 307.066 22.7797 307.304 23.0182C307.543 23.2567 307.847 23.4192 308.177 23.4851C308.508 23.5509 308.851 23.5172 309.162 23.3882C309.474 23.2592 309.74 23.0407 309.928 22.7603C310.115 22.4799 310.215 22.1503 310.215 21.813C310.215 21.3608 310.036 20.9272 309.716 20.6071C309.397 20.2871 308.963 20.1069 308.511 20.1062V20.1081Z" fill="black"/>
  <g opacity="0.129">
  <path d="M288.607 23.8591C288.513 23.6417 288.364 23.4523 288.175 23.3093C287.986 23.1663 287.763 23.0745 287.528 23.0427C287.293 23.0109 287.054 23.0403 286.833 23.1279C286.613 23.2155 286.419 23.3584 286.27 23.5429L286.257 23.5537C286.174 23.6149 286.086 23.6709 285.995 23.7212C285.884 23.7576 285.771 23.7901 285.657 23.8197H285.594C285.547 23.8197 285.501 23.8147 285.454 23.8108L285.29 23.7763C285.167 23.7419 285.071 23.7094 285.013 23.6897C284.944 23.6532 284.871 23.6118 284.807 23.5715C284.719 23.4815 284.62 23.4042 284.511 23.342C284.273 23.1906 283.995 23.1143 283.713 23.123C283.432 23.1318 283.159 23.2252 282.931 23.3911C282.703 23.5569 282.53 23.7876 282.435 24.0531C282.34 24.3185 282.327 24.6065 282.398 24.8794C282.725 25.8515 283.875 26.277 284.797 26.4937C286.211 26.9005 289.336 25.6743 288.607 23.8591Z" fill="black"/>
  </g>
  <g opacity="0.129">
  <path d="M300.435 23.7349C300.352 23.5414 300.224 23.3709 300.061 23.2383C299.897 23.1056 299.704 23.0149 299.498 22.974C299.292 22.933 299.079 22.943 298.877 23.0032C298.676 23.0634 298.492 23.1719 298.342 23.3193C298.274 23.3902 298.199 23.4532 298.126 23.5162L298.056 23.5625C297.736 23.7321 297.377 23.8153 297.015 23.8038C296.932 23.8038 296.85 23.7979 296.767 23.791C296.678 23.77 296.59 23.7444 296.504 23.7142C296.363 23.649 296.226 23.5749 296.094 23.4926L296.039 23.4562C295.902 23.3045 295.731 23.1873 295.541 23.1144C295.275 23.0058 294.979 22.9922 294.705 23.0758C294.43 23.1594 294.192 23.3351 294.032 23.5734C293.871 23.8117 293.798 24.098 293.823 24.3841C293.849 24.6702 293.973 24.9387 294.174 25.1443C294.738 25.6879 295.438 26.0693 296.201 26.2486C296.963 26.4278 297.76 26.3981 298.507 26.1627C299.487 25.8406 300.965 24.9562 300.435 23.7349Z" fill="black"/>
  </g>
  <g opacity="0.129">
  <path d="M311.88 23.9874C311.816 23.7856 311.703 23.6029 311.55 23.4559C311.398 23.3089 311.211 23.2022 311.007 23.1456C310.803 23.089 310.588 23.0842 310.382 23.1316C310.176 23.179 309.984 23.2772 309.825 23.4172C309.74 23.4713 309.649 23.5181 309.556 23.557L309.418 23.6161C309.372 23.6329 309.251 23.6762 309.106 23.7146C309.048 23.7294 308.996 23.7412 308.948 23.7511C308.84 23.7545 308.733 23.7525 308.626 23.7452C308.343 23.713 308.07 23.6232 307.823 23.4812C307.263 23.1857 306.667 22.6933 305.997 22.8784C305.77 22.9455 305.568 23.077 305.414 23.2569C305.26 23.4369 305.162 23.6576 305.131 23.8923C305.101 24.1269 305.139 24.3654 305.241 24.5788C305.343 24.7922 305.505 24.9714 305.708 25.0945C306.205 25.3917 306.718 25.662 307.245 25.9041C307.881 26.1209 308.555 26.2093 309.226 26.1641C310.397 26.1247 312.235 25.4481 311.88 23.9874Z" fill="black"/>
  </g>
  <path d="M315.801 61.372C315.691 61.3718 315.582 61.3444 315.484 61.2922C315.387 61.2399 315.304 61.1645 315.242 61.0725C315.181 60.9805 315.143 60.8748 315.132 60.7647C315.121 60.6546 315.138 60.5435 315.18 60.4413L325.274 35.9425C325.342 35.7773 325.473 35.6459 325.638 35.5772C325.803 35.5085 325.989 35.5081 326.154 35.5762C326.319 35.6442 326.45 35.7751 326.519 35.9401C326.588 36.105 326.588 36.2905 326.52 36.4557L316.426 60.9544C316.375 61.0782 316.288 61.184 316.177 61.2584C316.066 61.3327 315.935 61.3723 315.801 61.372Z" fill="black"/>
  <path d="M327.272 62.4963C327.184 62.4966 327.098 62.4795 327.017 62.4461C326.935 62.4124 326.861 62.3629 326.798 62.3005C326.735 62.2381 326.685 62.1639 326.651 62.0822C326.617 62.0005 326.6 61.913 326.6 61.8245C326.599 61.736 326.617 61.6484 326.65 61.5666L336.744 37.0678C336.814 36.9062 336.945 36.7786 337.108 36.7124C337.272 36.6462 337.455 36.6467 337.618 36.7137C337.781 36.7807 337.911 36.9089 337.98 37.0709C338.05 37.2328 338.053 37.4156 337.99 37.58L327.9 62.0797C327.849 62.204 327.762 62.3101 327.65 62.3843C327.538 62.4586 327.406 62.4976 327.272 62.4963Z" fill="black"/>
  <path d="M341.067 45.1794H314.573C314.394 45.1794 314.223 45.1084 314.097 44.9821C313.97 44.8557 313.899 44.6844 313.899 44.5057C313.899 44.327 313.97 44.1557 314.097 44.0294C314.223 43.903 314.394 43.832 314.573 43.832H341.067C341.246 43.832 341.417 43.903 341.544 44.0294C341.67 44.1557 341.741 44.327 341.741 44.5057C341.741 44.6844 341.67 44.8557 341.544 44.9821C341.417 45.1084 341.246 45.1794 341.067 45.1794Z" fill="black"/>
  <path d="M337.22 55.318H310.725C310.547 55.318 310.375 55.2471 310.249 55.1208C310.123 54.9944 310.052 54.823 310.052 54.6444C310.052 54.4657 310.123 54.2944 310.249 54.168C310.375 54.0417 310.547 53.9707 310.725 53.9707H337.22C337.398 53.9707 337.57 54.0417 337.696 54.168C337.822 54.2944 337.893 54.4657 337.893 54.6444C337.893 54.823 337.822 54.9944 337.696 55.1208C337.57 55.2471 337.398 55.318 337.22 55.318Z" fill="black"/>
  <path d="M278.823 68.8563C278.778 68.8562 278.734 68.8427 278.697 68.8175C278.66 68.7923 278.631 68.7566 278.615 68.715C278.598 68.6733 278.594 68.6277 278.604 68.5839C278.613 68.5401 278.636 68.5001 278.668 68.4692L297.43 50.524C297.451 50.502 297.476 50.4845 297.504 50.4724C297.532 50.4604 297.562 50.4542 297.592 50.4541C297.623 50.454 297.653 50.4602 297.681 50.4721C297.709 50.484 297.734 50.5014 297.755 50.5234C297.776 50.5453 297.792 50.5713 297.803 50.5998C297.814 50.6282 297.818 50.6586 297.817 50.6889C297.816 50.7193 297.808 50.749 297.795 50.7764C297.782 50.8037 297.763 50.8281 297.74 50.8481L278.978 68.7932C278.937 68.8336 278.881 68.8562 278.823 68.8563Z" fill="black"/>
  <path d="M278.585 76.0074C278.526 76.0078 278.47 75.9851 278.429 75.9444C278.386 75.903 278.361 75.8465 278.36 75.787C278.359 75.7276 278.382 75.6701 278.423 75.6272C284.722 69.0775 291.208 62.5278 297.704 56.1476C297.746 56.1058 297.803 56.0826 297.863 56.083C297.923 56.0835 297.98 56.1076 298.021 56.15C298.063 56.1925 298.086 56.2498 298.086 56.3094C298.085 56.3689 298.061 56.4259 298.019 56.4677C291.526 62.84 285.043 69.3917 278.747 75.9384C278.726 75.9603 278.701 75.9777 278.673 75.9895C278.645 76.0014 278.615 76.0075 278.585 76.0074Z" fill="black"/>
  <path d="M284.825 75.8775C284.781 75.8775 284.737 75.8643 284.7 75.8398C284.664 75.8152 284.635 75.7803 284.618 75.7395C284.601 75.6987 284.596 75.6537 284.605 75.6103C284.613 75.5669 284.634 75.5269 284.665 75.4954L298.829 61.1393C298.871 61.0968 298.928 61.0727 298.988 61.0723C299.047 61.0718 299.104 61.095 299.147 61.1368C299.189 61.1786 299.213 61.2355 299.214 61.2951C299.214 61.3547 299.191 61.412 299.149 61.4544L284.985 75.8115C284.964 75.8325 284.939 75.8492 284.912 75.8605C284.884 75.8719 284.855 75.8776 284.825 75.8775Z" fill="black"/>
  <path d="M291.271 76.1872C291.227 76.1872 291.184 76.1742 291.147 76.1499C291.111 76.1256 291.082 76.091 291.065 76.0505C291.048 76.01 291.043 75.9654 291.051 75.9221C291.059 75.8788 291.079 75.8388 291.11 75.8071C294.18 72.6189 297.194 69.2948 300.072 65.9274C300.092 65.905 300.115 65.8867 300.142 65.8734C300.168 65.8602 300.197 65.8523 300.227 65.8502C300.256 65.8481 300.286 65.8518 300.314 65.8612C300.342 65.8705 300.368 65.8853 300.39 65.9047C300.413 65.9241 300.431 65.9478 300.444 65.9743C300.458 66.0007 300.466 66.0296 300.468 66.0591C300.47 66.0886 300.466 66.1183 300.457 66.1464C300.447 66.1745 300.432 66.2005 300.413 66.2229C297.532 69.5972 294.512 72.9282 291.436 76.1223C291.414 76.1437 291.388 76.1604 291.36 76.1716C291.332 76.1828 291.301 76.1881 291.271 76.1872Z" fill="black"/>
  <path d="M297.769 75.9834C297.715 75.9836 297.662 75.964 297.621 75.9283C297.576 75.8891 297.549 75.8337 297.545 75.7743C297.54 75.7149 297.56 75.6562 297.599 75.6111L301.348 71.2932C301.387 71.2482 301.443 71.2205 301.502 71.2164C301.562 71.2122 301.621 71.2319 301.666 71.2711C301.711 71.3103 301.739 71.3657 301.743 71.4253C301.747 71.4849 301.727 71.5437 301.688 71.5887L297.938 75.9066C297.917 75.9307 297.891 75.9501 297.862 75.9634C297.833 75.9766 297.801 75.9834 297.769 75.9834Z" fill="black"/>
  <g opacity="0.129">
  <path d="M325.149 76.3594C324.857 76.2848 324.551 76.2909 324.263 76.3771C324.151 76.384 324.039 76.387 323.928 76.386C322.32 76.1914 320.742 75.7981 319.231 75.2149L319.055 75.146C318.948 75.0879 318.485 74.8702 318.287 74.7815C317.418 74.4107 316.527 74.0911 315.62 73.8242C314.909 73.5023 314.16 73.2707 313.391 73.1348C313.034 73.1385 312.684 73.2407 312.381 73.4303C312.139 73.5662 311.888 73.6922 311.641 73.8144C309.749 74.7041 307.891 75.6601 306.066 76.6824C305.309 77.1204 304.525 77.5105 303.718 77.8506C303.35 78.0288 302.902 78.1273 302.678 78.5006C302.498 78.7389 302.397 79.0274 302.388 79.3259C302.38 79.6245 302.464 79.9183 302.631 80.1665C302.797 80.4147 303.036 80.605 303.316 80.7108C303.595 80.8166 303.9 80.8328 304.189 80.757C307.308 79.4835 310.262 77.8496 313.312 76.4234C315.201 77.3177 317.278 77.6792 319.206 78.4819C320.823 78.9655 322.514 79.6411 324.229 79.3614L323.827 79.4156C324.403 79.493 324.989 79.4179 325.527 79.1979C325.789 79.0417 325.999 78.8123 326.132 78.5378C326.265 78.2634 326.314 77.9561 326.273 77.654C326.233 77.3519 326.105 77.0682 325.905 76.8381C325.706 76.608 325.443 76.4416 325.149 76.3594Z" fill="black"/>
  </g>
  <path d="M209.992 312.223L211.992 313.723L213.429 314.441C214.468 314.961 215.561 315.365 216.688 315.647L216.933 315.708C219.589 316.372 222.375 316.297 224.991 315.492C226.646 314.983 228.2 314.192 229.585 313.153L231.492 311.723L231.992 325.723C229.728 326.046 227.422 325.58 225.46 324.404L224.742 323.973L220.992 321.723L209.992 315.723V312.223Z" fill="#E2E2E2"/>
  <path d="M163.492 392.723L165.097 393.666C169.611 396.322 174.754 397.723 179.992 397.723V400.723L178.764 400.876C176.928 401.106 175.067 401.038 173.253 400.675L172.563 400.537C171.521 400.328 170.51 399.982 169.559 399.506C167.244 398.348 165.366 396.471 164.209 394.156L163.492 392.723Z" fill="#E2E2E2"/>
  <path d="M250.492 392.223L251.492 390.223C252.156 388.562 252.62 386.828 252.873 385.057L252.992 384.223L253.697 386.056C254.884 389.141 255.492 392.418 255.492 395.723L252.91 396.87C251.684 397.415 250.29 397.442 249.044 396.943L248.886 396.88C248.648 396.785 248.492 396.555 248.492 396.298C248.492 395.597 248.7 394.911 249.089 394.328L250.492 392.223Z" fill="#E2E2E2"/>
  <path d="M208.992 333.223L211.921 339.222C214.573 344.655 217.754 349.814 221.418 354.623L223.908 357.892L222.408 360.892L221.998 360.482C218.322 356.806 215.552 352.324 213.908 347.392L211.408 340.892L208.992 333.223Z" fill="#E2E2E2"/>
  <path d="M268 379L294.492 378.223L295.492 380.723L284.992 382.223L278.492 382.723H273.607C272.55 382.723 271.514 382.436 270.608 381.892C269.873 381.451 269.245 380.854 268.767 380.143L268 379Z" fill="#E2E2E2"/>
  <path d="M354.492 367.223C348.311 371.777 340.87 374.303 333.194 374.454L319.492 374.723L320.492 376.723L322.992 377.223H330.492L333.83 377.056C338.263 376.834 342.667 376.221 346.992 375.223L351.636 373.532C352.547 373.201 353.334 372.596 353.89 371.801C354.596 370.789 354.879 369.541 354.676 368.324L354.492 367.223Z" fill="#E2E2E2"/>
  <path d="M252.492 397.723L254.992 397.223L262.492 393.223L271.492 388.223L272.992 391.723L268.575 393.563C267.522 394.002 266.514 394.541 265.565 395.174L265.473 395.236C262.555 397.181 260.295 399.966 258.992 403.223L256.992 409.223L252.492 397.723Z" fill="#E2E2E2"/>
  <path d="M298.492 385.723L299.992 385.223C303.64 386.549 307.459 387.346 311.333 387.588L313.492 387.723L301.992 400.223L304.607 396.3C304.863 395.917 305.066 395.501 305.212 395.064C305.964 392.806 305.084 390.326 303.076 389.049L300.992 387.723L298.492 385.723Z" fill="#E2E2E2"/>
  <path d="M350 270L351.38 269.08C353.455 267.697 355.388 266.112 357.152 264.348C359.045 262.455 360.733 260.366 362.185 258.116L363.638 255.868C365.196 253.455 366.33 250.795 366.992 248L369 249.5L366.992 256.223L365.492 259.723L362.992 264.223L361.569 266.215C359.22 269.504 356.108 272.176 352.5 274L350 270Z" fill="#E2E2E2"/>
  <path d="M373.535 219.886C374.504 217.451 375.209 214.919 375.64 212.334L376.992 204.223L377.227 209.634C377.403 213.678 377.091 217.729 376.297 221.698L375.885 223.761C375.623 225.067 375.256 226.349 374.787 227.595L373.908 229.932C372.667 233.227 370.423 236.049 367.492 238V230L368.058 229.295C370.34 226.447 372.186 223.276 373.535 219.886Z" fill="#E2E2E2"/>
  <path d="M392.992 353.223L401.388 356.021C407.765 358.147 413.848 361.071 419.492 364.723L418.492 368.223L412.492 363.723L404.992 359.723L393.492 355.223L392.492 354.223L392.992 353.223Z" fill="#E2E2E2"/>
  <path d="M300.492 383.723L313.492 384.723L331.992 384.248L333.98 384.084C344.968 383.178 356.013 383.225 366.992 384.223L381.492 385.723L389.699 386.166C396.473 386.532 403.241 385.355 409.492 382.723L407.492 385.223C405.174 386.547 402.657 387.49 400.039 388.013L393.992 389.223L387.492 389.723L381.492 389.223L375.492 387.223L370.992 386.723L347.992 385.723H331.992L321.492 386.223L314.492 386.723L308.005 386.105C305.36 385.853 302.799 385.041 300.492 383.723Z" fill="#E2E2E2"/>
  <path d="M174.492 410.723C176.458 409.74 178.133 408.261 179.353 406.432L179.492 406.223V409.95C179.492 410.113 179.388 410.257 179.233 410.309C176.412 411.249 173.684 412.449 171.084 413.894L170.492 414.223C170.492 413.303 171.012 412.463 171.834 412.052L174.492 410.723Z" fill="#E2E2E2"/>
  <path d="M261.492 351.223L264.492 365.723L265.992 374.223L266.478 377.302C267.062 381 270.249 383.723 273.992 383.723L272.025 384.706C270.736 385.351 269.228 385.395 267.903 384.827C266.985 384.434 266.208 383.768 265.678 382.921L265.007 381.846C264.338 380.776 263.903 379.577 263.731 378.327L261.992 365.723L261.492 351.223Z" fill="#E2E2E2"/>
  <path d="M342.492 455.223L350.492 457.223L358.992 458.723L367.492 459.723L378.492 460.223H379.93C387.612 460.223 395.267 459.324 402.74 457.545L404.441 457.14C409.795 455.865 415.005 454.05 419.992 451.723L424.992 448.723V444.723V441.223V437.223L425.492 434.223L426.492 435.723L426.992 437.723L427.992 442.723L428.492 448.723H429.992V454.223C422.337 456.885 414.487 458.951 406.513 460.401L401.992 461.223C390.674 462.221 379.298 462.381 367.957 461.701L359.992 461.223L343.992 459.223L342.492 455.223Z" fill="#E2E2E2"/>
  </svg>
  