<svg width="250" viewBox="0 0 347 347" fill="none" xmlns="http://www.w3.org/2000/svg">
    <g filter="url(#filter0_d_273_20652)">
    <path d="M125.575 171.777C125.575 170.711 125.602 169.646 125.565 168.581C125.54 166.372 124.656 164.26 123.1 162.693C121.544 161.126 119.438 160.226 117.23 160.184C115.022 160.143 112.884 160.963 111.271 162.47C109.657 163.978 108.693 166.055 108.585 168.261C108.456 170.596 108.456 172.937 108.585 175.272C108.693 177.479 109.656 179.557 111.269 181.065C112.883 182.574 115.021 183.395 117.23 183.355C119.438 183.314 121.545 182.416 123.102 180.849C124.66 179.282 125.546 177.171 125.574 174.962C125.601 173.898 125.575 172.833 125.575 171.777ZM125.575 171.777C125.575 170.711 125.602 169.646 125.565 168.581C125.54 166.372 124.656 164.26 123.1 162.693C121.544 161.126 119.438 160.226 117.23 160.184C115.022 160.143 112.884 160.963 111.271 162.47C109.657 163.978 108.693 166.055 108.585 168.261C108.456 170.596 108.456 172.937 108.585 175.272C108.693 177.479 109.656 179.557 111.269 181.065C112.883 182.574 115.021 183.395 117.23 183.355C119.438 183.314 121.545 182.416 123.102 180.849C124.66 179.282 125.546 177.171 125.574 174.962C125.601 173.898 125.575 172.833 125.575 171.777ZM125.575 171.777C125.575 170.711 125.602 169.646 125.565 168.581C125.54 166.372 124.656 164.26 123.1 162.693C121.544 161.126 119.438 160.226 117.23 160.184C115.022 160.143 112.884 160.963 111.271 162.47C109.657 163.978 108.693 166.055 108.585 168.261C108.456 170.596 108.456 172.937 108.585 175.272C108.693 177.479 109.656 179.557 111.269 181.065C112.883 182.574 115.021 183.395 117.23 183.355C119.438 183.314 121.545 182.416 123.102 180.849C124.66 179.282 125.546 177.171 125.574 174.962C125.601 173.898 125.575 172.833 125.575 171.777ZM125.575 171.777C125.575 170.711 125.602 169.646 125.565 168.581C125.54 166.372 124.656 164.26 123.1 162.693C121.544 161.126 119.438 160.226 117.23 160.184C115.022 160.143 112.884 160.963 111.271 162.47C109.657 163.978 108.693 166.055 108.585 168.261C108.456 170.596 108.456 172.937 108.585 175.272C108.693 177.479 109.656 179.557 111.269 181.065C112.883 182.574 115.021 183.395 117.23 183.355C119.438 183.314 121.545 182.416 123.102 180.849C124.66 179.282 125.546 177.171 125.574 174.962C125.601 173.898 125.575 172.833 125.575 171.777ZM125.575 171.777C125.575 170.711 125.602 169.646 125.565 168.581C125.54 166.372 124.656 164.26 123.1 162.693C121.544 161.126 119.438 160.226 117.23 160.184C115.022 160.143 112.884 160.963 111.271 162.47C109.657 163.978 108.693 166.055 108.585 168.261C108.456 170.596 108.456 172.937 108.585 175.272C108.693 177.479 109.656 179.557 111.269 181.065C112.883 182.574 115.021 183.395 117.23 183.355C119.438 183.314 121.545 182.416 123.102 180.849C124.66 179.282 125.546 177.171 125.574 174.962C125.601 173.898 125.575 172.833 125.575 171.777ZM232.98 175.707C231.277 175.672 229.581 175.698 227.876 175.698C226.03 175.698 224.184 175.626 222.346 175.725C221.865 175.735 221.391 175.842 220.953 176.039C220.514 176.236 220.12 176.52 219.794 176.873C219.467 177.226 219.215 177.641 219.053 178.094C218.891 178.546 218.821 179.027 218.849 179.507C218.805 179.987 218.862 180.471 219.014 180.929C219.166 181.387 219.411 181.809 219.733 182.168C220.055 182.527 220.448 182.815 220.887 183.016C221.326 183.216 221.801 183.324 222.283 183.333C224.122 183.462 225.968 183.444 227.804 183.28C229.409 183.124 230.913 182.428 232.07 181.306C233.227 180.183 233.969 178.701 234.175 177.102C234.302 175.931 234.169 175.726 232.979 175.709L232.98 175.707ZM249.508 140.077C248.874 140.018 248.236 140.012 247.6 140.06C247.458 140.061 247.321 140.108 247.209 140.195C247.096 140.281 247.016 140.403 246.979 140.54C246.447 141.906 247.059 142.891 248.47 142.901C248.755 142.901 249.038 142.91 249.323 142.901C250.228 142.856 250.831 142.44 250.841 141.48C250.845 141.301 250.814 141.122 250.75 140.954C250.685 140.787 250.588 140.633 250.464 140.503C250.341 140.373 250.192 140.268 250.028 140.196C249.864 140.123 249.687 140.083 249.507 140.079L249.508 140.077ZM249.438 135.968C248.814 135.926 248.189 135.92 247.565 135.95C247.158 135.968 247.014 136.26 246.944 136.643C246.686 137.938 247.024 138.303 248.507 138.269C248.778 138.269 249.065 138.287 249.342 138.269C249.5 138.276 249.658 138.248 249.804 138.188C249.951 138.127 250.082 138.036 250.19 137.92C250.298 137.804 250.38 137.667 250.429 137.516C250.479 137.366 250.495 137.207 250.478 137.049C250.481 136.91 250.457 136.771 250.407 136.641C250.356 136.511 250.28 136.393 250.183 136.293C250.086 136.193 249.97 136.113 249.842 136.058C249.714 136.004 249.576 135.975 249.437 135.974L249.438 135.968ZM249.438 135.968C248.814 135.926 248.189 135.92 247.565 135.95C247.158 135.968 247.014 136.26 246.944 136.643C246.686 137.938 247.024 138.303 248.507 138.269C248.778 138.269 249.065 138.287 249.342 138.269C249.5 138.276 249.658 138.248 249.804 138.188C249.951 138.127 250.082 138.036 250.19 137.92C250.298 137.804 250.38 137.667 250.429 137.516C250.479 137.366 250.495 137.207 250.478 137.049C250.481 136.91 250.457 136.771 250.407 136.641C250.356 136.511 250.28 136.393 250.183 136.293C250.086 136.193 249.97 136.113 249.842 136.058C249.714 136.004 249.576 135.975 249.437 135.974L249.438 135.968ZM249.508 140.077C248.874 140.018 248.236 140.012 247.6 140.06C247.458 140.061 247.321 140.108 247.209 140.195C247.096 140.281 247.016 140.403 246.979 140.54C246.447 141.906 247.059 142.891 248.47 142.901C248.755 142.901 249.038 142.91 249.323 142.901C250.228 142.856 250.831 142.44 250.841 141.48C250.845 141.301 250.814 141.122 250.75 140.954C250.685 140.787 250.588 140.633 250.464 140.503C250.341 140.373 250.192 140.268 250.028 140.196C249.864 140.123 249.687 140.083 249.507 140.079L249.508 140.077ZM232.98 175.707C231.277 175.672 229.581 175.698 227.876 175.698C226.03 175.698 224.184 175.626 222.346 175.725C221.865 175.735 221.391 175.842 220.953 176.039C220.514 176.236 220.12 176.52 219.794 176.873C219.467 177.226 219.215 177.641 219.053 178.094C218.891 178.546 218.821 179.027 218.849 179.507C218.805 179.987 218.862 180.471 219.014 180.929C219.166 181.387 219.411 181.809 219.733 182.168C220.055 182.527 220.448 182.815 220.887 183.016C221.326 183.216 221.801 183.324 222.283 183.333C224.122 183.462 225.968 183.444 227.804 183.28C229.409 183.124 230.913 182.428 232.07 181.306C233.227 180.183 233.969 178.701 234.175 177.102C234.302 175.931 234.169 175.726 232.979 175.709L232.98 175.707ZM125.575 171.777C125.575 170.711 125.602 169.646 125.565 168.581C125.54 166.372 124.656 164.26 123.1 162.693C121.544 161.126 119.438 160.226 117.23 160.184C115.022 160.143 112.884 160.963 111.271 162.47C109.657 163.978 108.693 166.055 108.585 168.261C108.456 170.596 108.456 172.937 108.585 175.272C108.693 177.479 109.656 179.557 111.269 181.065C112.883 182.574 115.021 183.395 117.23 183.355C119.438 183.314 121.545 182.416 123.102 180.849C124.66 179.282 125.546 177.171 125.574 174.962C125.601 173.898 125.575 172.833 125.575 171.777ZM125.575 171.777C125.575 170.711 125.602 169.646 125.565 168.581C125.54 166.372 124.656 164.26 123.1 162.693C121.544 161.126 119.438 160.226 117.23 160.184C115.022 160.143 112.884 160.963 111.271 162.47C109.657 163.978 108.693 166.055 108.585 168.261C108.456 170.596 108.456 172.937 108.585 175.272C108.693 177.479 109.656 179.557 111.269 181.065C112.883 182.574 115.021 183.395 117.23 183.355C119.438 183.314 121.545 182.416 123.102 180.849C124.66 179.282 125.546 177.171 125.574 174.962C125.601 173.898 125.575 172.833 125.575 171.777ZM232.98 175.707C231.277 175.672 229.581 175.698 227.876 175.698C226.03 175.698 224.184 175.626 222.346 175.725C221.865 175.735 221.391 175.842 220.953 176.039C220.514 176.236 220.12 176.52 219.794 176.873C219.467 177.226 219.215 177.641 219.053 178.094C218.891 178.546 218.821 179.027 218.849 179.507C218.805 179.987 218.862 180.471 219.014 180.929C219.166 181.387 219.411 181.809 219.733 182.168C220.055 182.527 220.448 182.815 220.887 183.016C221.326 183.216 221.801 183.324 222.283 183.333C224.122 183.462 225.968 183.444 227.804 183.28C229.409 183.124 230.913 182.428 232.07 181.306C233.227 180.183 233.969 178.701 234.175 177.102C234.302 175.931 234.169 175.726 232.979 175.709L232.98 175.707ZM249.508 140.077C248.874 140.018 248.236 140.012 247.6 140.06C247.458 140.061 247.321 140.108 247.209 140.195C247.096 140.281 247.016 140.403 246.979 140.54C246.447 141.906 247.059 142.891 248.47 142.901C248.755 142.901 249.038 142.91 249.323 142.901C250.228 142.856 250.831 142.44 250.841 141.48C250.845 141.301 250.814 141.122 250.75 140.954C250.685 140.787 250.588 140.633 250.464 140.503C250.341 140.373 250.192 140.268 250.028 140.196C249.864 140.123 249.687 140.083 249.507 140.079L249.508 140.077ZM249.438 135.968C248.814 135.926 248.189 135.92 247.565 135.95C247.158 135.968 247.014 136.26 246.944 136.643C246.686 137.938 247.024 138.303 248.507 138.269C248.778 138.269 249.065 138.287 249.342 138.269C249.5 138.276 249.658 138.248 249.804 138.188C249.951 138.127 250.082 138.036 250.19 137.92C250.298 137.804 250.38 137.667 250.429 137.516C250.479 137.366 250.495 137.207 250.478 137.049C250.481 136.91 250.457 136.771 250.407 136.641C250.356 136.511 250.28 136.393 250.183 136.293C250.086 136.193 249.97 136.113 249.842 136.058C249.714 136.004 249.576 135.975 249.437 135.974L249.438 135.968ZM258.199 136.447C257.537 137.759 257.085 139.167 256.859 140.619C257.716 140.856 258.622 140.853 259.478 140.61C259.248 139.17 258.819 137.77 258.202 136.449L258.199 136.447ZM258.199 136.447C257.537 137.759 257.085 139.167 256.859 140.619C257.716 140.856 258.622 140.853 259.478 140.61C259.248 139.17 258.819 137.77 258.202 136.449L258.199 136.447ZM249.438 135.968C248.814 135.926 248.189 135.92 247.565 135.95C247.158 135.968 247.014 136.26 246.944 136.643C246.686 137.938 247.024 138.303 248.507 138.269C248.778 138.269 249.065 138.287 249.342 138.269C249.5 138.276 249.658 138.248 249.804 138.188C249.951 138.127 250.082 138.036 250.19 137.92C250.298 137.804 250.38 137.667 250.429 137.516C250.479 137.366 250.495 137.207 250.478 137.049C250.481 136.91 250.457 136.771 250.407 136.641C250.356 136.511 250.28 136.393 250.183 136.293C250.086 136.193 249.97 136.113 249.842 136.058C249.714 136.004 249.576 135.975 249.437 135.974L249.438 135.968ZM249.508 140.077C248.874 140.018 248.236 140.012 247.6 140.06C247.458 140.061 247.321 140.108 247.209 140.195C247.096 140.281 247.016 140.403 246.979 140.54C246.447 141.906 247.059 142.891 248.47 142.901C248.755 142.901 249.038 142.91 249.323 142.901C250.228 142.856 250.831 142.44 250.841 141.48C250.845 141.301 250.814 141.122 250.75 140.954C250.685 140.787 250.588 140.633 250.464 140.503C250.341 140.373 250.192 140.268 250.028 140.196C249.864 140.123 249.687 140.083 249.507 140.079L249.508 140.077ZM232.98 175.707C231.277 175.672 229.581 175.698 227.876 175.698C226.03 175.698 224.184 175.626 222.346 175.725C221.865 175.735 221.391 175.842 220.953 176.039C220.514 176.236 220.12 176.52 219.794 176.873C219.467 177.226 219.215 177.641 219.053 178.094C218.891 178.546 218.821 179.027 218.849 179.507C218.805 179.987 218.862 180.471 219.014 180.929C219.166 181.387 219.411 181.809 219.733 182.168C220.055 182.527 220.448 182.815 220.887 183.016C221.326 183.216 221.801 183.324 222.283 183.333C224.122 183.462 225.968 183.444 227.804 183.28C229.409 183.124 230.913 182.428 232.07 181.306C233.227 180.183 233.969 178.701 234.175 177.102C234.302 175.931 234.169 175.726 232.979 175.709L232.98 175.707ZM125.575 171.777C125.575 170.711 125.602 169.646 125.565 168.581C125.54 166.372 124.656 164.26 123.1 162.693C121.544 161.126 119.438 160.226 117.23 160.184C115.022 160.143 112.884 160.963 111.271 162.47C109.657 163.978 108.693 166.055 108.585 168.261C108.456 170.596 108.456 172.937 108.585 175.272C108.693 177.479 109.656 179.557 111.269 181.065C112.883 182.574 115.021 183.395 117.23 183.355C119.438 183.314 121.545 182.416 123.102 180.849C124.66 179.282 125.546 177.171 125.574 174.962C125.601 173.898 125.575 172.833 125.575 171.777ZM125.575 171.777C125.575 170.711 125.602 169.646 125.565 168.581C125.54 166.372 124.656 164.26 123.1 162.693C121.544 161.126 119.438 160.226 117.23 160.184C115.022 160.143 112.884 160.963 111.271 162.47C109.657 163.978 108.693 166.055 108.585 168.261C108.456 170.596 108.456 172.937 108.585 175.272C108.693 177.479 109.656 179.557 111.269 181.065C112.883 182.574 115.021 183.395 117.23 183.355C119.438 183.314 121.545 182.416 123.102 180.849C124.66 179.282 125.546 177.171 125.574 174.962C125.601 173.898 125.575 172.833 125.575 171.777ZM232.98 175.707C231.277 175.672 229.581 175.698 227.876 175.698C226.03 175.698 224.184 175.626 222.346 175.725C221.865 175.735 221.391 175.842 220.953 176.039C220.514 176.236 220.12 176.52 219.794 176.873C219.467 177.226 219.215 177.641 219.053 178.094C218.891 178.546 218.821 179.027 218.849 179.507C218.805 179.987 218.862 180.471 219.014 180.929C219.166 181.387 219.411 181.809 219.733 182.168C220.055 182.527 220.448 182.815 220.887 183.016C221.326 183.216 221.801 183.324 222.283 183.333C224.122 183.462 225.968 183.444 227.804 183.28C229.409 183.124 230.913 182.428 232.07 181.306C233.227 180.183 233.969 178.701 234.175 177.102C234.302 175.931 234.169 175.726 232.979 175.709L232.98 175.707ZM249.508 140.077C248.874 140.018 248.236 140.012 247.6 140.06C247.458 140.061 247.321 140.108 247.209 140.195C247.096 140.281 247.016 140.403 246.979 140.54C246.447 141.906 247.059 142.891 248.47 142.901C248.755 142.901 249.038 142.91 249.323 142.901C250.228 142.856 250.831 142.44 250.841 141.48C250.845 141.301 250.814 141.122 250.75 140.954C250.685 140.787 250.588 140.633 250.464 140.503C250.341 140.373 250.192 140.268 250.028 140.196C249.864 140.123 249.687 140.083 249.507 140.079L249.508 140.077ZM249.438 135.968C248.814 135.926 248.189 135.92 247.565 135.95C247.158 135.968 247.014 136.26 246.944 136.643C246.686 137.938 247.024 138.303 248.507 138.269C248.778 138.269 249.065 138.287 249.342 138.269C249.5 138.276 249.658 138.248 249.804 138.188C249.951 138.127 250.082 138.036 250.19 137.92C250.298 137.804 250.38 137.667 250.429 137.516C250.479 137.366 250.495 137.207 250.478 137.049C250.481 136.91 250.457 136.771 250.407 136.641C250.356 136.511 250.28 136.393 250.183 136.293C250.086 136.193 249.97 136.113 249.842 136.058C249.714 136.004 249.576 135.975 249.437 135.974L249.438 135.968ZM258.199 136.447C257.537 137.759 257.085 139.167 256.859 140.619C257.716 140.856 258.622 140.853 259.478 140.61C259.248 139.17 258.819 137.77 258.202 136.449L258.199 136.447ZM285.343 135.8C283.94 135.764 283.772 135.935 283.737 137.308C283.702 138.95 283.799 139.07 285.273 139.057C286.152 139.084 286.986 138.994 287.412 138.081C287.986 136.857 287.063 135.839 285.341 135.801L285.343 135.8ZM285.343 135.8C283.94 135.764 283.772 135.935 283.737 137.308C283.702 138.95 283.799 139.07 285.273 139.057C286.152 139.084 286.986 138.994 287.412 138.081C287.986 136.857 287.063 135.839 285.341 135.801L285.343 135.8ZM258.199 136.447C257.537 137.759 257.085 139.167 256.859 140.619C257.716 140.856 258.622 140.853 259.478 140.61C259.248 139.17 258.819 137.77 258.202 136.449L258.199 136.447ZM249.438 135.968C248.814 135.926 248.189 135.92 247.565 135.95C247.158 135.968 247.014 136.26 246.944 136.643C246.686 137.938 247.024 138.303 248.507 138.269C248.778 138.269 249.065 138.287 249.342 138.269C249.5 138.276 249.658 138.248 249.804 138.188C249.951 138.127 250.082 138.036 250.19 137.92C250.298 137.804 250.38 137.667 250.429 137.516C250.479 137.366 250.495 137.207 250.478 137.049C250.481 136.91 250.457 136.771 250.407 136.641C250.356 136.511 250.28 136.393 250.183 136.293C250.086 136.193 249.97 136.113 249.842 136.058C249.714 136.004 249.576 135.975 249.437 135.974L249.438 135.968ZM249.508 140.077C248.874 140.018 248.236 140.012 247.6 140.06C247.458 140.061 247.321 140.108 247.209 140.195C247.096 140.281 247.016 140.403 246.979 140.54C246.447 141.906 247.059 142.891 248.47 142.901C248.755 142.901 249.038 142.91 249.323 142.901C250.228 142.856 250.831 142.44 250.841 141.48C250.845 141.301 250.814 141.122 250.75 140.954C250.685 140.787 250.588 140.633 250.464 140.503C250.341 140.373 250.192 140.268 250.028 140.196C249.864 140.123 249.687 140.083 249.507 140.079L249.508 140.077ZM232.98 175.707C231.277 175.672 229.581 175.698 227.876 175.698C226.03 175.698 224.184 175.626 222.346 175.725C221.865 175.735 221.391 175.842 220.953 176.039C220.514 176.236 220.12 176.52 219.794 176.873C219.467 177.226 219.215 177.641 219.053 178.094C218.891 178.546 218.821 179.027 218.849 179.507C218.805 179.987 218.862 180.471 219.014 180.929C219.166 181.387 219.411 181.809 219.733 182.168C220.055 182.527 220.448 182.815 220.887 183.016C221.326 183.216 221.801 183.324 222.283 183.333C224.122 183.462 225.968 183.444 227.804 183.28C229.409 183.124 230.913 182.428 232.07 181.306C233.227 180.183 233.969 178.701 234.175 177.102C234.302 175.931 234.169 175.726 232.979 175.709L232.98 175.707ZM125.575 171.777C125.575 170.711 125.602 169.646 125.565 168.581C125.54 166.372 124.656 164.26 123.1 162.693C121.544 161.126 119.438 160.226 117.23 160.184C115.022 160.143 112.884 160.963 111.271 162.47C109.657 163.978 108.693 166.055 108.585 168.261C108.456 170.596 108.456 172.937 108.585 175.272C108.693 177.479 109.656 179.557 111.269 181.065C112.883 182.574 115.021 183.395 117.23 183.355C119.438 183.314 121.545 182.416 123.102 180.849C124.66 179.282 125.546 177.171 125.574 174.962C125.601 173.898 125.575 172.833 125.575 171.777ZM125.575 171.777C125.575 170.711 125.602 169.646 125.565 168.581C125.54 166.372 124.656 164.26 123.1 162.693C121.544 161.126 119.438 160.226 117.23 160.184C115.022 160.143 112.884 160.963 111.271 162.47C109.657 163.978 108.693 166.055 108.585 168.261C108.456 170.596 108.456 172.937 108.585 175.272C108.693 177.479 109.656 179.557 111.269 181.065C112.883 182.574 115.021 183.395 117.23 183.355C119.438 183.314 121.545 182.416 123.102 180.849C124.66 179.282 125.546 177.171 125.574 174.962C125.601 173.898 125.575 172.833 125.575 171.777ZM232.98 175.707C231.277 175.672 229.581 175.698 227.876 175.698C226.03 175.698 224.184 175.626 222.346 175.725C221.865 175.735 221.391 175.842 220.953 176.039C220.514 176.236 220.12 176.52 219.794 176.873C219.467 177.226 219.215 177.641 219.053 178.094C218.891 178.546 218.821 179.027 218.849 179.507C218.805 179.987 218.862 180.471 219.014 180.929C219.166 181.387 219.411 181.809 219.733 182.168C220.055 182.527 220.448 182.815 220.887 183.016C221.326 183.216 221.801 183.324 222.283 183.333C224.122 183.462 225.968 183.444 227.804 183.28C229.409 183.124 230.913 182.428 232.07 181.306C233.227 180.183 233.969 178.701 234.175 177.102C234.302 175.931 234.169 175.726 232.979 175.709L232.98 175.707ZM249.508 140.077C248.874 140.018 248.236 140.012 247.6 140.06C247.458 140.061 247.321 140.108 247.209 140.195C247.096 140.281 247.016 140.403 246.979 140.54C246.447 141.906 247.059 142.891 248.47 142.901C248.755 142.901 249.038 142.91 249.323 142.901C250.228 142.856 250.831 142.44 250.841 141.48C250.845 141.301 250.814 141.122 250.75 140.954C250.685 140.787 250.588 140.633 250.464 140.503C250.341 140.373 250.192 140.268 250.028 140.196C249.864 140.123 249.687 140.083 249.507 140.079L249.508 140.077ZM249.438 135.968C248.814 135.926 248.189 135.92 247.565 135.95C247.158 135.968 247.014 136.26 246.944 136.643C246.686 137.938 247.024 138.303 248.507 138.269C248.778 138.269 249.065 138.287 249.342 138.269C249.5 138.276 249.658 138.248 249.804 138.188C249.951 138.127 250.082 138.036 250.19 137.92C250.298 137.804 250.38 137.667 250.429 137.516C250.479 137.366 250.495 137.207 250.478 137.049C250.481 136.91 250.457 136.771 250.407 136.641C250.356 136.511 250.28 136.393 250.183 136.293C250.086 136.193 249.97 136.113 249.842 136.058C249.714 136.004 249.576 135.975 249.437 135.974L249.438 135.968ZM258.199 136.447C257.537 137.759 257.085 139.167 256.859 140.619C257.716 140.856 258.622 140.853 259.478 140.61C259.248 139.17 258.819 137.77 258.202 136.449L258.199 136.447ZM285.343 135.8C283.94 135.764 283.772 135.935 283.737 137.308C283.702 138.95 283.799 139.07 285.273 139.057C286.152 139.084 286.986 138.994 287.412 138.081C287.986 136.857 287.063 135.839 285.341 135.801L285.343 135.8ZM285.343 135.8C283.94 135.764 283.772 135.935 283.737 137.308C283.702 138.95 283.799 139.07 285.273 139.057C286.152 139.084 286.986 138.994 287.412 138.081C287.986 136.857 287.063 135.839 285.341 135.801L285.343 135.8ZM258.199 136.447C257.537 137.759 257.085 139.167 256.859 140.619C257.716 140.856 258.622 140.853 259.478 140.61C259.248 139.17 258.819 137.77 258.202 136.449L258.199 136.447ZM249.438 135.968C248.814 135.926 248.189 135.92 247.565 135.95C247.158 135.968 247.014 136.26 246.944 136.643C246.686 137.938 247.024 138.303 248.507 138.269C248.778 138.269 249.065 138.287 249.342 138.269C249.5 138.276 249.658 138.248 249.804 138.188C249.951 138.127 250.082 138.036 250.19 137.92C250.298 137.804 250.38 137.667 250.429 137.516C250.479 137.366 250.495 137.207 250.478 137.049C250.481 136.91 250.457 136.771 250.407 136.641C250.356 136.511 250.28 136.393 250.183 136.293C250.086 136.193 249.97 136.113 249.842 136.058C249.714 136.004 249.576 135.975 249.437 135.974L249.438 135.968ZM249.508 140.077C248.874 140.018 248.236 140.012 247.6 140.06C247.458 140.061 247.321 140.108 247.209 140.195C247.096 140.281 247.016 140.403 246.979 140.54C246.447 141.906 247.059 142.891 248.47 142.901C248.755 142.901 249.038 142.91 249.323 142.901C250.228 142.856 250.831 142.44 250.841 141.48C250.845 141.301 250.814 141.122 250.75 140.954C250.685 140.787 250.588 140.633 250.464 140.503C250.341 140.373 250.192 140.268 250.028 140.196C249.864 140.123 249.687 140.083 249.507 140.079L249.508 140.077ZM232.98 175.707C231.277 175.672 229.581 175.698 227.876 175.698C226.03 175.698 224.184 175.626 222.346 175.725C221.865 175.735 221.391 175.842 220.953 176.039C220.514 176.236 220.12 176.52 219.794 176.873C219.467 177.226 219.215 177.641 219.053 178.094C218.891 178.546 218.821 179.027 218.849 179.507C218.805 179.987 218.862 180.471 219.014 180.929C219.166 181.387 219.411 181.809 219.733 182.168C220.055 182.527 220.448 182.815 220.887 183.016C221.326 183.216 221.801 183.324 222.283 183.333C224.122 183.462 225.968 183.444 227.804 183.28C229.409 183.124 230.913 182.428 232.07 181.306C233.227 180.183 233.969 178.701 234.175 177.102C234.302 175.931 234.169 175.726 232.979 175.709L232.98 175.707ZM125.575 171.777C125.575 170.711 125.602 169.646 125.565 168.581C125.54 166.372 124.656 164.26 123.1 162.693C121.544 161.126 119.438 160.226 117.23 160.184C115.022 160.143 112.884 160.963 111.271 162.47C109.657 163.978 108.693 166.055 108.585 168.261C108.456 170.596 108.456 172.937 108.585 175.272C108.693 177.479 109.656 179.557 111.269 181.065C112.883 182.574 115.021 183.395 117.23 183.355C119.438 183.314 121.545 182.416 123.102 180.849C124.66 179.282 125.546 177.171 125.574 174.962C125.601 173.898 125.575 172.833 125.575 171.777ZM125.575 171.777C125.575 170.711 125.602 169.646 125.565 168.581C125.54 166.372 124.656 164.26 123.1 162.693C121.544 161.126 119.438 160.226 117.23 160.184C115.022 160.143 112.884 160.963 111.271 162.47C109.657 163.978 108.693 166.055 108.585 168.261C108.456 170.596 108.456 172.937 108.585 175.272C108.693 177.479 109.656 179.557 111.269 181.065C112.883 182.574 115.021 183.395 117.23 183.355C119.438 183.314 121.545 182.416 123.102 180.849C124.66 179.282 125.546 177.171 125.574 174.962C125.601 173.898 125.575 172.833 125.575 171.777ZM232.98 175.707C231.277 175.672 229.581 175.698 227.876 175.698C226.03 175.698 224.184 175.626 222.346 175.725C221.865 175.735 221.391 175.842 220.953 176.039C220.514 176.236 220.12 176.52 219.794 176.873C219.467 177.226 219.215 177.641 219.053 178.094C218.891 178.546 218.821 179.027 218.849 179.507C218.805 179.987 218.862 180.471 219.014 180.929C219.166 181.387 219.411 181.809 219.733 182.168C220.055 182.527 220.448 182.815 220.887 183.016C221.326 183.216 221.801 183.324 222.283 183.333C224.122 183.462 225.968 183.444 227.804 183.28C229.409 183.124 230.913 182.428 232.07 181.306C233.227 180.183 233.969 178.701 234.175 177.102C234.302 175.931 234.169 175.726 232.979 175.709L232.98 175.707ZM249.508 140.077C248.874 140.018 248.236 140.012 247.6 140.06C247.458 140.061 247.321 140.108 247.209 140.195C247.096 140.281 247.016 140.403 246.979 140.54C246.447 141.906 247.059 142.891 248.47 142.901C248.755 142.901 249.038 142.91 249.323 142.901C250.228 142.856 250.831 142.44 250.841 141.48C250.845 141.301 250.814 141.122 250.75 140.954C250.685 140.787 250.588 140.633 250.464 140.503C250.341 140.373 250.192 140.268 250.028 140.196C249.864 140.123 249.687 140.083 249.507 140.079L249.508 140.077ZM249.438 135.968C248.814 135.926 248.189 135.92 247.565 135.95C247.158 135.968 247.014 136.26 246.944 136.643C246.686 137.938 247.024 138.303 248.507 138.269C248.778 138.269 249.065 138.287 249.342 138.269C249.5 138.276 249.658 138.248 249.804 138.188C249.951 138.127 250.082 138.036 250.19 137.92C250.298 137.804 250.38 137.667 250.429 137.516C250.479 137.366 250.495 137.207 250.478 137.049C250.481 136.91 250.457 136.771 250.407 136.641C250.356 136.511 250.28 136.393 250.183 136.293C250.086 136.193 249.97 136.113 249.842 136.058C249.714 136.004 249.576 135.975 249.437 135.974L249.438 135.968ZM257.249 149.842C256.572 151.048 256.138 152.374 255.971 153.747C256.788 154.034 257.679 154.028 258.492 153.729C258.389 152.355 257.965 151.024 257.253 149.843L257.249 149.842ZM258.198 136.447C257.536 137.759 257.084 139.167 256.858 140.619C257.715 140.856 258.621 140.853 259.476 140.61C259.247 139.17 258.818 137.77 258.202 136.449L258.198 136.447ZM285.342 135.8C283.939 135.764 283.771 135.935 283.736 137.308C283.701 138.95 283.798 139.07 285.271 139.057C286.151 139.084 286.985 138.994 287.41 138.081C287.986 136.857 287.063 135.839 285.341 135.801L285.342 135.8ZM285.342 135.8C283.939 135.764 283.771 135.935 283.736 137.308C283.701 138.95 283.798 139.07 285.271 139.057C286.151 139.084 286.985 138.994 287.41 138.081C287.986 136.857 287.063 135.839 285.341 135.801L285.342 135.8ZM258.198 136.447C257.536 137.759 257.084 139.167 256.858 140.619C257.715 140.856 258.621 140.853 259.476 140.61C259.247 139.17 258.818 137.77 258.202 136.449L258.198 136.447ZM257.249 149.842C256.572 151.048 256.138 152.374 255.971 153.747C256.788 154.034 257.679 154.028 258.492 153.729C258.389 152.355 257.965 151.024 257.253 149.843L257.249 149.842ZM248.505 138.276C248.777 138.276 249.064 138.294 249.34 138.276C249.499 138.282 249.656 138.255 249.803 138.194C249.949 138.134 250.081 138.043 250.189 137.927C250.297 137.811 250.378 137.673 250.428 137.523C250.477 137.373 250.494 137.213 250.476 137.056C250.482 136.916 250.46 136.775 250.411 136.643C250.362 136.512 250.286 136.391 250.189 136.289C250.092 136.187 249.976 136.106 249.847 136.05C249.718 135.994 249.579 135.965 249.438 135.964C248.814 135.922 248.189 135.916 247.565 135.946C247.158 135.964 247.014 136.256 246.944 136.639C246.681 137.94 247.021 138.303 248.504 138.279L248.505 138.276ZM249.508 140.079C248.874 140.019 248.236 140.014 247.6 140.061C247.458 140.062 247.321 140.109 247.209 140.196C247.096 140.283 247.016 140.404 246.979 140.541C246.447 141.907 247.059 142.893 248.47 142.902C248.755 142.902 249.038 142.912 249.323 142.902C250.228 142.857 250.831 142.441 250.841 141.482C250.846 141.302 250.815 141.123 250.75 140.955C250.686 140.787 250.588 140.633 250.464 140.503C250.341 140.373 250.192 140.268 250.028 140.196C249.864 140.123 249.687 140.083 249.507 140.079H249.508ZM232.98 175.709C231.277 175.674 229.581 175.699 227.876 175.699C226.03 175.699 224.184 175.627 222.346 175.726C221.865 175.736 221.391 175.843 220.953 176.04C220.514 176.238 220.12 176.521 219.794 176.874C219.467 177.227 219.215 177.642 219.053 178.095C218.891 178.547 218.821 179.028 218.849 179.508C218.805 179.989 218.862 180.473 219.014 180.931C219.166 181.388 219.411 181.81 219.733 182.169C220.055 182.528 220.448 182.817 220.887 183.017C221.326 183.218 221.801 183.326 222.283 183.334C224.122 183.463 225.968 183.445 227.804 183.282C229.409 183.126 230.913 182.429 232.07 181.307C233.227 180.185 233.969 178.703 234.175 177.104C234.302 175.931 234.169 175.726 232.979 175.709H232.98ZM125.575 171.778C125.575 170.713 125.602 169.647 125.565 168.582C125.54 166.374 124.656 164.262 123.1 162.694C121.544 161.127 119.438 160.227 117.23 160.186C115.022 160.144 112.884 160.964 111.271 162.472C109.657 163.979 108.693 166.056 108.585 168.262C108.456 170.598 108.456 172.938 108.585 175.274C108.693 177.48 109.656 179.558 111.269 181.067C112.883 182.575 115.021 183.397 117.23 183.356C119.438 183.316 121.545 182.417 123.102 180.85C124.66 179.284 125.546 177.172 125.574 174.963C125.601 173.898 125.575 172.833 125.575 171.777V171.778ZM325.267 138.749C323.43 123.859 318.897 109.427 311.891 96.1601C301.525 76.6272 286.617 59.8713 268.422 47.3037C239.36 26.8435 206.819 16.9557 171.447 16.0584C160.941 15.8353 150.437 16.611 140.078 18.3748C121.684 21.3289 103.982 27.6095 87.8398 36.9089C63.5356 51.023 44.9405 70.5154 32.8677 96.0056C23.6183 115.533 19.7201 136.208 20.1484 160.262C20.2807 174.826 21.4585 189.362 23.6725 203.757C25.6653 217.302 28.8493 230.644 33.1876 243.629C38.3979 258.897 45.3132 273.304 55.2634 286.113C65.3031 299.028 77.5874 309.084 92.8197 315.298C108.543 321.725 124.935 323.234 141.711 321.644C151.596 320.666 161.372 318.788 170.915 316.034C189.749 310.593 207.811 302.769 224.662 292.751C251.54 276.969 275.267 257.459 294.738 232.977C304.493 220.937 312.443 207.541 318.34 193.21C325.528 176.017 327.923 157.198 325.273 138.753L325.267 138.749ZM68.9424 158.704C68.9613 158.9 68.9368 159.098 68.8704 159.284C68.8041 159.469 68.6977 159.638 68.5587 159.778C68.4197 159.918 68.2516 160.026 68.0663 160.093C67.881 160.161 67.6831 160.186 67.4867 160.169C66.6341 160.204 65.7829 160.231 64.9304 160.186C63.8921 160.124 63.537 160.612 63.6075 161.58C63.6427 162.077 63.6169 162.575 63.6169 163.071V187.333C63.6169 187.901 63.6264 188.469 63.5722 189.029C63.5723 189.226 63.5323 189.421 63.4547 189.602C63.3771 189.784 63.2635 189.947 63.1208 190.083C62.9781 190.219 62.8093 190.325 62.6245 190.394C62.4398 190.463 62.243 190.494 62.046 190.484C60.7773 190.511 59.4897 190.547 58.221 190.484C56.8981 190.414 56.5606 190.032 56.5348 188.576C56.4996 186.525 56.5253 184.466 56.5253 182.407V175.173C56.5253 170.709 56.5348 166.234 56.5159 161.77C56.5159 160.252 56.4806 160.243 54.9802 160.199C54.1994 160.172 53.4174 160.199 52.6461 160.189C52.432 160.217 52.2145 160.195 52.0103 160.125C51.8061 160.055 51.6205 159.94 51.4679 159.787C51.3153 159.634 51.1997 159.449 51.13 159.245C51.0602 159.04 51.0383 158.823 51.0657 158.609C51.0657 157.268 51.0386 155.92 51.0833 154.57C51.069 154.373 51.0978 154.175 51.1676 153.991C51.2375 153.807 51.3468 153.64 51.4879 153.502C51.6289 153.364 51.7984 153.258 51.9844 153.193C52.1704 153.127 52.3685 153.103 52.5648 153.122C53.4163 153.078 54.2696 153.078 55.1211 153.122C56.2746 153.22 56.5687 152.679 56.5416 151.622C56.4888 149.216 56.5687 146.802 56.5064 144.388C56.4416 143.972 56.5254 143.546 56.743 143.186C56.9606 142.825 57.2982 142.553 57.6964 142.417C58.6195 142.044 59.472 141.52 60.3775 141.112C62.6058 140.118 63.5912 140.729 63.6088 143.127C63.6359 145.973 63.6441 148.808 63.5993 151.639C63.5817 152.713 63.9097 153.22 65.0551 153.122C65.9065 153.073 66.76 153.073 67.6114 153.122C67.79 153.107 67.9699 153.131 68.1383 153.192C68.3067 153.254 68.4596 153.351 68.5864 153.478C68.7132 153.605 68.8108 153.758 68.8722 153.926C68.9337 154.095 68.9577 154.274 68.9424 154.453C68.9614 155.871 68.9519 157.291 68.9424 158.702V158.704ZM95.3313 158.339C95.2865 159.768 94.9761 160.07 93.5922 160.185C93.3083 160.203 93.0236 160.203 92.7397 160.185C91.7286 160.121 90.7158 160.277 89.7705 160.641C88.8252 161.005 87.9699 161.57 87.2633 162.296C86.5567 163.022 86.0155 163.892 85.6768 164.847C85.3381 165.801 85.2099 166.818 85.3011 167.827C85.4786 172.571 85.3458 177.334 85.3458 182.083C85.3458 184.134 85.3729 186.193 85.3363 188.252C85.3011 190.116 84.9365 190.453 83.0633 190.488C82.2907 190.506 81.5099 190.498 80.7292 190.488C78.4928 190.471 78.2624 190.258 78.2624 188.083C78.2447 182.623 78.2529 177.165 78.2529 171.705C78.2529 166.175 78.2529 160.642 78.2529 155.106C78.2529 154.293 78.2529 153.491 79.1935 153.198C79.561 153.054 79.9651 153.032 80.3459 153.136C80.7266 153.24 81.0636 153.464 81.3066 153.775C81.4453 153.935 81.5933 154.086 81.7499 154.228C82.019 154.462 82.2713 154.714 82.5048 154.983C83.2232 155.932 83.8359 156.067 84.9189 155.266C87.5451 153.525 90.698 152.758 93.8308 153.098C94.0436 153.076 94.2584 153.105 94.4585 153.18C94.6587 153.256 94.8387 153.376 94.9846 153.532C95.1306 153.689 95.2385 153.877 95.3 154.081C95.3616 154.286 95.375 154.502 95.3394 154.713C95.3326 155.924 95.3678 157.13 95.3326 158.339H95.3313ZM132.444 177.179C131.887 180.973 129.945 184.426 126.992 186.872C124.04 189.318 120.286 190.583 116.455 190.425C112.624 190.266 108.987 188.694 106.247 186.012C103.507 183.33 101.857 179.728 101.616 175.901C101.536 174.49 101.599 173.07 101.599 171.649H101.572C101.572 170.513 101.536 169.376 101.572 168.25C101.653 164.503 103.088 160.912 105.611 158.14C108.133 155.369 111.574 153.603 115.296 153.171C119.019 152.738 122.773 153.667 125.864 155.785C128.956 157.904 131.176 161.07 132.115 164.699C132.398 165.652 132.568 166.635 132.62 167.628C132.802 170.812 132.743 174.004 132.446 177.179H132.444ZM166.671 181.307C166.049 186.457 162.741 189.544 157.574 190.219C154.123 190.666 150.628 190.66 147.179 190.201C146.406 190.102 145.646 189.926 144.907 189.678C141.49 188.515 140.46 186.766 141.081 183.252C141.303 182.001 141.951 181.547 143.194 182.071C147.278 183.775 151.556 183.349 155.8 183.34C156.513 183.33 157.212 183.141 157.833 182.79C158.441 182.485 158.945 182.005 159.279 181.412C159.613 180.819 159.761 180.139 159.706 179.461C159.708 178.816 159.498 178.188 159.108 177.673C158.719 177.159 158.171 176.787 157.549 176.614C155.997 176.116 154.391 175.806 152.765 175.691C151.069 175.505 149.376 175.31 147.705 174.999C140.729 173.729 138.171 169.149 138.895 162.258C139.463 156.897 143.368 153.506 148.997 153.141C150.417 153.053 151.843 153.131 153.257 153.131C155.308 152.968 157.372 153.091 159.39 153.496C160.076 153.668 160.75 153.888 161.406 154.153C164.415 155.459 165.336 157.5 164.397 160.66C164.334 160.976 164.148 161.255 163.881 161.436C163.614 161.617 163.286 161.686 162.968 161.627C162.825 161.628 162.684 161.601 162.551 161.547C158.779 159.844 154.775 160.207 150.817 160.192C149.82 160.129 148.821 160.293 147.896 160.672C147.274 160.944 146.749 161.399 146.391 161.976C146.033 162.553 145.858 163.225 145.89 163.903C145.85 164.547 146.017 165.186 146.366 165.728C146.716 166.269 147.231 166.684 147.834 166.912C149.35 167.518 150.95 167.886 152.578 168.005C154.623 168.217 156.654 168.555 158.658 169.016C164.835 170.516 167.471 174.68 166.673 181.311L166.671 181.307ZM204.805 188.219C204.805 190.173 204.52 190.438 202.613 190.483C201.69 190.501 200.767 190.51 199.844 190.483C198.166 190.43 197.803 190.048 197.731 188.299C197.714 187.802 197.722 187.305 197.722 186.808C197.722 179.92 197.712 173.032 197.731 166.153C197.808 165.339 197.706 164.517 197.433 163.746C197.16 162.975 196.723 162.273 196.151 161.688C195.713 161.217 195.168 160.857 194.562 160.641C188.136 158.803 182.313 161.831 182.296 168.487C182.278 174.878 182.296 181.269 182.286 187.66C182.286 190.384 182.188 190.482 179.365 190.491C178.727 190.491 178.087 190.501 177.447 190.482C175.619 190.429 175.361 190.197 175.344 188.369C175.326 184.96 175.334 181.551 175.334 178.143V165.591C175.334 158.277 175.337 150.965 175.344 143.657C175.344 143.089 175.326 142.521 175.361 141.952C175.349 141.791 175.371 141.629 175.427 141.478C175.483 141.326 175.571 141.189 175.684 141.074C175.798 140.96 175.935 140.871 176.086 140.814C176.237 140.757 176.398 140.733 176.559 140.744C178.05 140.717 179.541 140.709 181.032 140.744C181.893 140.762 182.275 141.322 182.275 142.147C182.285 145.626 182.275 149.106 182.285 152.584C182.178 153.359 181.855 154.088 181.352 154.687C181.139 155.052 180.837 155.433 181.299 155.798C181.69 156.117 181.92 155.709 182.187 155.526C186.652 152.465 191.569 152.428 196.477 153.831C198.918 154.563 201.053 156.073 202.556 158.13C204.059 160.188 204.849 162.681 204.804 165.229C204.84 172.887 204.823 180.556 204.805 188.225V188.219ZM240.453 190.341C239.423 190.784 238.722 190.225 238.029 189.527C237.337 188.829 236.809 187.765 235.811 187.664C234.915 187.576 234.24 188.516 233.422 188.915C232.1 189.602 230.666 190.049 229.188 190.238C226.304 190.626 223.379 190.614 220.498 190.202C218.019 189.71 215.788 188.371 214.187 186.415C212.587 184.458 211.717 182.006 211.727 179.478C211.736 176.95 212.624 174.504 214.239 172.56C215.854 170.615 218.095 169.293 220.578 168.819C223.191 168.567 225.817 168.496 228.44 168.606C229.931 168.571 231.422 168.554 232.904 168.616C233.943 168.651 234.307 168.216 234.227 167.232C234.175 166.522 234.254 165.812 234.21 165.101C234.193 163.876 233.717 162.703 232.875 161.813C232.033 160.923 230.887 160.383 229.665 160.299C225.368 160.121 221.019 159.704 216.856 161.409C215.588 161.932 215.036 161.507 214.903 160.113C214.868 159.688 214.894 159.261 214.894 158.835C214.884 155.791 215.222 155.276 218.035 154.078C221.347 152.657 230.631 152.614 233.924 154.13C236.169 155.07 238.078 156.668 239.398 158.714C240.717 160.76 241.387 163.157 241.318 165.591C241.406 169.283 241.335 172.967 241.335 176.659C241.335 180.485 241.326 184.319 241.335 188.145C241.341 189.015 241.438 189.921 240.453 190.346V190.341ZM251.956 148.878C251.796 149.651 251.246 149.321 250.776 149.26C247.341 148.86 247.031 149.153 247.031 152.677C247.031 153.175 247.004 153.671 247.04 154.16C247.147 155.571 247.591 156.006 249.019 156.096C249.729 156.131 250.44 156.096 251.15 156.113C251.29 156.096 251.432 156.125 251.554 156.195C251.676 156.266 251.772 156.374 251.828 156.504C251.88 156.637 251.883 156.784 251.835 156.92C251.788 157.055 251.694 157.168 251.57 157.24C250.954 157.595 250.266 157.809 249.557 157.866C248.848 157.923 248.135 157.821 247.47 157.568C246.884 157.402 246.366 157.055 245.99 156.576C245.614 156.098 245.399 155.513 245.376 154.904C245.304 154.132 245.366 153.343 245.366 152.57H245.339C245.339 152.073 245.366 151.575 245.339 151.079C245.153 147.51 248.659 146.685 251.252 147.715C251.495 147.786 251.702 147.945 251.833 148.162C251.964 148.379 252.008 148.637 251.956 148.885V148.878ZM249.427 144.581C248.371 144.634 247.306 144.572 246.25 144.591C245.513 144.609 245.238 144.263 245.247 143.562C245.257 142.151 245.247 140.731 245.247 139.32C245.247 137.979 245.265 136.63 245.238 135.29C245.22 134.5 245.53 134.082 246.338 134.1C247.398 134.064 248.459 134.091 249.515 134.18C249.963 134.19 250.402 134.307 250.796 134.522C251.189 134.737 251.525 135.044 251.774 135.416C252.024 135.788 252.181 136.215 252.231 136.66C252.281 137.106 252.224 137.557 252.063 137.975C251.955 138.327 251.917 138.698 251.952 139.065C251.987 139.432 252.094 139.788 252.267 140.114C252.513 140.59 252.629 141.123 252.606 141.658C252.582 142.193 252.418 142.713 252.131 143.166C251.844 143.618 251.443 143.988 250.969 144.237C250.494 144.487 249.963 144.608 249.427 144.588V144.581ZM261.091 157.657C260.958 157.712 260.815 157.738 260.671 157.731C260.528 157.724 260.388 157.686 260.261 157.619C260.133 157.553 260.023 157.458 259.936 157.344C259.85 157.229 259.789 157.097 259.76 156.956C259.547 156.397 259.502 155.616 258.675 155.554C257.621 155.412 256.552 155.439 255.506 155.634C254.964 155.769 254.929 156.406 254.753 156.841C254.548 157.347 254.308 157.729 253.66 157.711C253.576 157.726 253.489 157.722 253.407 157.699C253.324 157.676 253.247 157.635 253.183 157.579C253.118 157.523 253.066 157.453 253.032 157.375C252.997 157.297 252.98 157.212 252.982 157.126C252.988 156.915 253.034 156.707 253.118 156.513C254.059 153.762 255.009 151.018 255.94 148.267C256.17 147.589 256.49 147.166 257.295 147.193C257.577 147.18 257.854 147.268 258.076 147.442C258.298 147.617 258.45 147.865 258.503 148.142C259.436 150.894 260.401 153.637 261.35 156.389C261.49 156.837 261.756 157.424 261.091 157.661V157.657ZM261.996 144.529C261.57 144.634 260.966 144.634 260.886 144.201C260.496 142.106 258.95 142.382 257.477 142.382C256.607 142.372 255.968 142.517 255.756 143.5C255.67 143.841 255.495 144.153 255.25 144.405C255.11 144.516 254.941 144.584 254.764 144.603C254.587 144.622 254.407 144.591 254.247 144.512C253.812 144.352 253.847 143.98 253.962 143.634C254.974 140.686 255.992 137.745 257.016 134.81C257.1 134.575 257.262 134.376 257.475 134.247C257.689 134.117 257.94 134.065 258.187 134.1C258.434 134.064 258.685 134.117 258.895 134.251C259.106 134.384 259.261 134.589 259.333 134.828C260.318 137.704 261.307 140.577 262.297 143.447C262.328 143.567 262.352 143.689 262.367 143.812C262.396 144.18 262.316 144.455 261.997 144.535L261.996 144.529ZM268.379 149.109C267.678 149.126 266.968 149.099 266.258 149.126C264.847 149.171 264.651 149.419 264.731 150.715C264.784 151.407 265.051 151.753 265.76 151.743C266.541 151.735 267.313 151.743 268.094 151.761C268.556 151.761 268.937 151.921 268.955 152.462C268.972 153.003 268.768 153.438 268.129 153.457C267.561 153.474 267.003 153.466 266.434 153.474C264.783 153.51 264.783 153.51 264.738 155.072C264.729 155.498 264.756 155.925 264.729 156.351C264.684 156.946 264.864 157.718 263.894 157.762C262.881 157.806 263.051 157.024 263.041 156.421C263.014 155.152 263.032 153.882 263.032 152.604C263.032 151.264 263.059 149.923 263.022 148.583C262.995 147.704 263.293 147.26 264.23 147.277C265.65 147.313 267.061 147.287 268.472 147.295C269.094 147.304 269.591 147.464 269.565 148.244C269.532 149.071 268.964 149.106 268.379 149.122V149.109ZM269.542 143.738C268.921 142.79 268.219 141.9 267.563 140.969C267.243 140.526 266.853 140.241 266.312 140.464C265.841 140.667 265.894 141.156 265.877 141.574C265.859 142.354 265.867 143.127 265.832 143.908C265.836 143.996 265.821 144.084 265.789 144.167C265.757 144.249 265.708 144.324 265.646 144.387C265.583 144.449 265.508 144.498 265.426 144.53C265.343 144.563 265.255 144.577 265.166 144.573C264.696 144.591 264.331 144.438 264.243 143.917C264.2 143.638 264.179 143.356 264.181 143.074V135.636C264.181 135.423 264.189 135.21 264.199 134.997C264.187 134.873 264.204 134.747 264.248 134.63C264.293 134.513 264.364 134.408 264.456 134.323C264.548 134.238 264.658 134.176 264.778 134.14C264.898 134.105 265.024 134.097 265.147 134.119C265.69 134.146 265.848 134.519 265.858 134.989C265.875 135.842 265.875 136.693 265.885 137.536C265.885 137.909 265.938 138.291 266.302 138.441C266.501 138.524 266.723 138.532 266.927 138.464C267.131 138.395 267.304 138.255 267.412 138.069C268.123 137.093 268.806 136.098 269.506 135.122C269.791 134.722 270.022 134.252 270.572 134.154C270.989 134.074 271.45 133.977 271.743 134.385C272 134.749 271.672 135.042 271.472 135.317C270.779 136.302 270.106 137.305 269.351 138.237C269.191 138.374 269.062 138.544 268.973 138.734C268.884 138.925 268.836 139.132 268.833 139.343C268.829 139.553 268.871 139.762 268.954 139.956C269.037 140.149 269.16 140.323 269.315 140.465C270.008 141.278 270.584 142.169 271.197 143.04C271.468 143.44 271.889 143.795 271.667 144.396C271.487 144.501 271.287 144.568 271.079 144.593C270.872 144.617 270.661 144.598 270.462 144.537C270.262 144.476 270.077 144.374 269.919 144.237C269.76 144.101 269.632 143.934 269.542 143.745V143.738ZM274.104 151.753C274.885 151.718 275.667 151.743 276.448 151.771C276.554 151.762 276.661 151.778 276.76 151.817C276.86 151.856 276.949 151.916 277.022 151.995C277.095 152.073 277.148 152.166 277.18 152.269C277.211 152.371 277.219 152.478 277.203 152.584C277.193 153.072 277.016 153.419 276.492 153.445C275.72 153.472 274.939 153.515 274.158 153.472C273.191 153.409 272.96 153.889 272.978 154.759C272.995 155.55 273.058 156.162 274.096 156.115C275.009 156.07 275.933 156.115 276.857 156.124C277.443 156.124 277.789 156.364 277.771 157.003C277.753 157.68 277.327 157.816 276.777 157.816C275.286 157.816 273.803 157.798 272.312 157.825C271.442 157.843 271.237 157.373 271.256 156.618C271.283 155.277 271.266 153.928 271.256 152.588C271.256 151.31 271.292 150.032 271.247 148.762C271.212 147.821 271.487 147.279 272.535 147.306C273.955 147.333 275.366 147.315 276.786 147.315C277.337 147.315 277.745 147.485 277.78 148.141C277.825 148.904 277.38 149.126 276.724 149.126C275.881 149.136 275.028 149.171 274.177 149.126C273.228 149.081 272.97 149.552 272.979 150.422C272.994 151.209 273.083 151.822 274.104 151.76V151.753ZM276.713 138.581C277.344 138.528 277.983 138.581 278.622 138.581C279.102 138.59 279.447 138.758 279.465 139.299C279.5 139.894 279.243 140.24 278.622 140.248C278.001 140.256 277.344 140.31 276.713 140.258C275.675 140.169 275.373 140.613 275.358 141.613C275.348 142.687 275.828 142.968 276.778 142.909C277.631 142.856 278.482 142.899 279.335 142.909C279.458 142.89 279.584 142.902 279.702 142.942C279.82 142.983 279.926 143.052 280.012 143.142C280.097 143.233 280.16 143.343 280.193 143.463C280.227 143.583 280.231 143.71 280.205 143.832C280.211 143.938 280.194 144.044 280.155 144.143C280.116 144.241 280.055 144.33 279.977 144.402C279.899 144.474 279.806 144.528 279.705 144.56C279.604 144.592 279.497 144.601 279.392 144.587C277.838 144.596 276.274 144.577 274.722 144.596C274.012 144.606 273.693 144.286 273.693 143.585C273.703 142.165 273.693 140.754 273.693 139.333H273.684C273.684 138.055 273.719 136.785 273.674 135.507C273.639 134.558 273.922 134.042 274.98 134.078C276.32 134.123 277.669 134.088 279.019 134.096C279.596 134.104 280.182 134.131 280.209 134.948C280.244 135.907 279.561 135.897 278.913 135.907C278.203 135.924 277.493 135.951 276.792 135.916C275.843 135.854 275.344 136.147 275.362 137.212C275.382 138.18 275.657 138.685 276.713 138.588V138.581ZM288.271 141.883C288.559 142.37 288.806 142.881 289.008 143.409C289.168 143.791 289.415 144.27 288.873 144.501C288.657 144.633 288.398 144.674 288.152 144.616C287.907 144.558 287.694 144.405 287.559 144.191C287.125 143.383 286.746 142.547 286.424 141.688C286.319 141.351 286.093 141.065 285.789 140.886C285.485 140.707 285.126 140.648 284.781 140.72C284.062 140.747 283.76 141.04 283.768 141.74C283.776 142.441 283.768 143.161 283.733 143.862C283.706 144.367 283.387 144.581 282.88 144.572C282.374 144.562 282.067 144.341 282.055 143.826C282.037 142.345 282.046 140.862 282.046 139.379H282.028C282.028 138.024 282.055 136.69 282.018 135.35C281.991 134.444 282.401 134.054 283.279 134.089C284.34 134.059 285.401 134.101 286.456 134.214C287.039 134.277 287.594 134.499 288.06 134.855C288.526 135.211 288.885 135.688 289.099 136.234C289.314 136.78 289.374 137.374 289.274 137.952C289.175 138.53 288.919 139.069 288.534 139.512C288.186 139.794 287.964 140.202 287.915 140.647C287.865 141.092 287.993 141.538 288.271 141.89V141.883ZM298.166 135.261C297.544 136.762 296.946 138.279 296.292 139.762C295.732 140.831 295.452 142.026 295.479 143.233C295.532 143.845 295.615 144.556 294.618 144.588C293.713 144.615 293.508 144.055 293.58 143.368C293.608 141.877 293.244 140.405 292.524 139.099C292.009 137.856 291.468 136.632 290.971 135.379C290.793 134.927 290.564 134.376 291.264 134.16C291.495 134.058 291.757 134.05 291.995 134.135C292.232 134.221 292.428 134.395 292.542 134.62C292.731 135 292.897 135.391 293.039 135.791L294.53 139.759C295.125 138.205 295.658 136.83 296.199 135.462C296.331 135.065 296.522 134.691 296.767 134.352C296.921 134.2 297.121 134.103 297.335 134.074C297.55 134.045 297.768 134.087 297.957 134.192C298.523 134.425 298.323 134.868 298.168 135.268L298.166 135.261ZM285.339 135.794C283.936 135.759 283.768 135.93 283.733 137.303C283.698 138.944 283.795 139.065 285.269 139.051C286.148 139.078 286.982 138.989 287.408 138.075C287.986 136.857 287.063 135.839 285.341 135.801L285.339 135.794ZM256.855 140.614C257.712 140.851 258.618 140.848 259.474 140.605C259.243 139.164 258.813 137.763 258.195 136.442C257.533 137.756 257.081 139.166 256.856 140.621L256.855 140.614ZM255.967 153.743C256.784 154.03 257.675 154.024 258.488 153.725C258.384 152.35 257.959 151.018 257.245 149.838C256.569 151.045 256.135 152.374 255.97 153.748L255.967 153.743ZM248.504 138.279C248.775 138.279 249.063 138.296 249.339 138.279C249.497 138.285 249.655 138.257 249.801 138.197C249.948 138.137 250.08 138.046 250.187 137.93C250.295 137.814 250.377 137.676 250.426 137.526C250.476 137.375 250.493 137.216 250.475 137.059C250.481 136.918 250.459 136.778 250.41 136.646C250.36 136.514 250.285 136.394 250.188 136.292C250.091 136.19 249.975 136.108 249.845 136.053C249.716 135.997 249.577 135.967 249.437 135.966C248.813 135.925 248.188 135.919 247.563 135.949C247.157 135.966 247.013 136.259 246.943 136.641C246.681 137.94 247.021 138.303 248.504 138.279ZM249.507 140.081C248.873 140.022 248.234 140.016 247.599 140.064C247.457 140.065 247.319 140.112 247.207 140.199C247.095 140.285 247.014 140.407 246.978 140.544C246.445 141.91 247.058 142.895 248.469 142.905C248.754 142.905 249.037 142.914 249.321 142.905C250.227 142.86 250.83 142.444 250.84 141.484C250.845 141.304 250.814 141.125 250.75 140.957C250.686 140.789 250.589 140.636 250.465 140.505C250.341 140.374 250.192 140.269 250.028 140.196C249.864 140.123 249.687 140.083 249.507 140.079V140.081ZM232.979 175.712C231.275 175.676 229.58 175.702 227.875 175.702C226.028 175.702 224.182 175.63 222.344 175.729C221.864 175.739 221.39 175.846 220.951 176.043C220.513 176.24 220.119 176.524 219.792 176.877C219.466 177.23 219.214 177.645 219.052 178.098C218.889 178.55 218.82 179.031 218.847 179.511C218.804 179.991 218.86 180.476 219.012 180.933C219.165 181.391 219.409 181.813 219.732 182.172C220.054 182.531 220.447 182.82 220.885 183.02C221.324 183.221 221.8 183.328 222.282 183.337C224.121 183.466 225.967 183.448 227.803 183.284C229.407 183.128 230.911 182.432 232.069 181.31C233.226 180.187 233.968 178.705 234.173 177.106C234.302 175.931 234.169 175.726 232.979 175.709V175.712ZM125.565 168.583C125.54 166.375 124.656 164.263 123.1 162.696C121.544 161.128 119.438 160.229 117.23 160.187C115.022 160.145 112.884 160.965 111.271 162.473C109.657 163.981 108.693 166.058 108.585 168.263C108.456 170.599 108.456 172.94 108.585 175.275C108.693 177.482 109.656 179.559 111.269 181.068C112.883 182.577 115.021 183.398 117.23 183.358C119.438 183.317 121.545 182.418 123.102 180.852C124.66 179.285 125.546 177.174 125.574 174.965C125.601 173.899 125.574 172.834 125.574 171.778C125.574 170.722 125.601 169.646 125.565 168.581V168.583ZM125.575 171.779C125.575 170.714 125.602 169.649 125.565 168.583C125.54 166.375 124.656 164.263 123.1 162.696C121.544 161.128 119.438 160.229 117.23 160.187C115.022 160.145 112.884 160.965 111.271 162.473C109.657 163.981 108.693 166.058 108.585 168.263C108.456 170.599 108.456 172.94 108.585 175.275C108.693 177.482 109.656 179.559 111.269 181.068C112.883 182.577 115.021 183.398 117.23 183.358C119.438 183.317 121.545 182.418 123.102 180.852C124.66 179.285 125.546 177.174 125.574 174.965C125.601 173.898 125.575 172.833 125.575 171.777V171.779ZM232.98 175.71C231.277 175.675 229.581 175.701 227.876 175.701C226.03 175.701 224.184 175.629 222.346 175.728C221.865 175.738 221.391 175.845 220.953 176.042C220.514 176.239 220.12 176.522 219.794 176.875C219.467 177.228 219.215 177.644 219.053 178.096C218.891 178.549 218.821 179.029 218.849 179.509C218.805 179.99 218.862 180.474 219.014 180.932C219.166 181.39 219.411 181.811 219.733 182.17C220.055 182.529 220.448 182.818 220.887 183.019C221.326 183.219 221.801 183.327 222.283 183.336C224.122 183.465 225.968 183.447 227.804 183.283C229.409 183.127 230.913 182.431 232.07 181.308C233.227 180.186 233.969 178.704 234.175 177.105C234.302 175.931 234.169 175.726 232.979 175.709L232.98 175.71ZM249.508 140.08C248.874 140.021 248.236 140.015 247.6 140.062C247.458 140.063 247.321 140.111 247.209 140.197C247.096 140.284 247.016 140.405 246.979 140.542C246.447 141.909 247.059 142.894 248.47 142.903C248.755 142.903 249.038 142.913 249.323 142.903C250.228 142.859 250.831 142.443 250.841 141.483C250.846 141.303 250.815 141.124 250.751 140.956C250.686 140.788 250.589 140.634 250.465 140.504C250.341 140.374 250.192 140.269 250.028 140.196C249.864 140.123 249.687 140.083 249.507 140.079L249.508 140.08ZM249.438 135.97C248.814 135.929 248.189 135.923 247.565 135.953C247.158 135.97 247.014 136.263 246.944 136.645C246.686 137.941 247.024 138.306 248.507 138.272C248.778 138.272 249.065 138.29 249.342 138.272C249.5 138.278 249.658 138.251 249.804 138.19C249.951 138.13 250.082 138.039 250.19 137.923C250.298 137.807 250.38 137.669 250.429 137.519C250.479 137.369 250.495 137.209 250.478 137.052C250.482 136.912 250.458 136.773 250.408 136.643C250.357 136.513 250.281 136.394 250.184 136.294C250.087 136.193 249.97 136.113 249.842 136.058C249.714 136.004 249.576 135.975 249.437 135.974L249.438 135.97ZM258.199 136.45C257.537 137.762 257.085 139.17 256.859 140.622C257.716 140.859 258.622 140.856 259.478 140.613C259.248 139.172 258.819 137.771 258.202 136.449L258.199 136.45ZM285.343 135.802C283.94 135.767 283.772 135.938 283.737 137.311C283.702 138.952 283.799 139.073 285.273 139.059C286.152 139.087 286.986 138.997 287.412 138.083C287.986 136.857 287.063 135.839 285.341 135.801L285.343 135.802ZM285.343 135.802C283.94 135.767 283.772 135.938 283.737 137.311C283.702 138.952 283.799 139.073 285.273 139.059C286.152 139.087 286.986 138.997 287.412 138.083C287.986 136.857 287.063 135.839 285.341 135.801L285.343 135.802ZM258.199 136.45C257.537 137.762 257.085 139.17 256.859 140.622C257.716 140.859 258.622 140.856 259.478 140.613C259.248 139.172 258.819 137.771 258.202 136.449L258.199 136.45ZM249.438 135.97C248.814 135.929 248.189 135.923 247.565 135.953C247.158 135.97 247.014 136.263 246.944 136.645C246.686 137.941 247.024 138.306 248.507 138.272C248.778 138.272 249.065 138.29 249.342 138.272C249.5 138.278 249.658 138.251 249.804 138.19C249.951 138.13 250.082 138.039 250.19 137.923C250.298 137.807 250.38 137.669 250.429 137.519C250.479 137.369 250.495 137.209 250.478 137.052C250.482 136.912 250.458 136.773 250.408 136.643C250.357 136.513 250.281 136.394 250.184 136.294C250.087 136.193 249.97 136.113 249.842 136.058C249.714 136.004 249.576 135.975 249.437 135.974L249.438 135.97ZM249.508 140.08C248.874 140.021 248.236 140.015 247.6 140.062C247.458 140.063 247.321 140.111 247.209 140.197C247.096 140.284 247.016 140.405 246.979 140.542C246.447 141.909 247.059 142.894 248.47 142.903C248.755 142.903 249.038 142.913 249.323 142.903C250.228 142.859 250.831 142.443 250.841 141.483C250.846 141.303 250.815 141.124 250.751 140.956C250.686 140.788 250.589 140.634 250.465 140.504C250.341 140.374 250.192 140.269 250.028 140.196C249.864 140.123 249.687 140.083 249.507 140.079L249.508 140.08ZM232.98 175.71C231.277 175.675 229.581 175.701 227.876 175.701C226.03 175.701 224.184 175.629 222.346 175.728C221.865 175.738 221.391 175.845 220.953 176.042C220.514 176.239 220.12 176.522 219.794 176.875C219.467 177.228 219.215 177.644 219.053 178.096C218.891 178.549 218.821 179.029 218.849 179.509C218.805 179.99 218.862 180.474 219.014 180.932C219.166 181.39 219.411 181.811 219.733 182.17C220.055 182.529 220.448 182.818 220.887 183.019C221.326 183.219 221.801 183.327 222.283 183.336C224.122 183.465 225.968 183.447 227.804 183.283C229.409 183.127 230.913 182.431 232.07 181.308C233.227 180.186 233.969 178.704 234.175 177.105C234.302 175.931 234.169 175.726 232.979 175.709L232.98 175.71ZM125.575 171.779C125.575 170.714 125.602 169.649 125.565 168.583C125.54 166.375 124.656 164.263 123.1 162.696C121.544 161.128 119.438 160.229 117.23 160.187C115.022 160.145 112.884 160.965 111.271 162.473C109.657 163.981 108.693 166.058 108.585 168.263C108.456 170.599 108.456 172.94 108.585 175.275C108.693 177.482 109.656 179.559 111.269 181.068C112.883 182.577 115.021 183.398 117.23 183.358C119.438 183.317 121.545 182.418 123.102 180.852C124.66 179.285 125.546 177.174 125.574 174.965C125.601 173.898 125.575 172.833 125.575 171.777V171.779ZM125.575 171.779C125.575 170.714 125.602 169.649 125.565 168.583C125.54 166.375 124.656 164.263 123.1 162.696C121.544 161.128 119.438 160.229 117.23 160.187C115.022 160.145 112.884 160.965 111.271 162.473C109.657 163.981 108.693 166.058 108.585 168.263C108.456 170.599 108.456 172.94 108.585 175.275C108.693 177.482 109.656 179.559 111.269 181.068C112.883 182.577 115.021 183.398 117.23 183.358C119.438 183.317 121.545 182.418 123.102 180.852C124.66 179.285 125.546 177.174 125.574 174.965C125.601 173.898 125.575 172.833 125.575 171.777V171.779ZM232.98 175.71C231.277 175.675 229.581 175.701 227.876 175.701C226.03 175.701 224.184 175.629 222.346 175.728C221.865 175.738 221.391 175.845 220.953 176.042C220.514 176.239 220.12 176.522 219.794 176.875C219.467 177.228 219.215 177.644 219.053 178.096C218.891 178.549 218.821 179.029 218.849 179.509C218.805 179.99 218.862 180.474 219.014 180.932C219.166 181.39 219.411 181.811 219.733 182.17C220.055 182.529 220.448 182.818 220.887 183.019C221.326 183.219 221.801 183.327 222.283 183.336C224.122 183.465 225.968 183.447 227.804 183.283C229.409 183.127 230.913 182.431 232.07 181.308C233.227 180.186 233.969 178.704 234.175 177.105C234.302 175.931 234.169 175.726 232.979 175.709L232.98 175.71ZM249.508 140.08C248.874 140.021 248.236 140.015 247.6 140.062C247.458 140.063 247.321 140.111 247.209 140.197C247.096 140.284 247.016 140.405 246.979 140.542C246.447 141.909 247.059 142.894 248.47 142.903C248.755 142.903 249.038 142.913 249.323 142.903C250.228 142.859 250.831 142.443 250.841 141.483C250.846 141.303 250.815 141.124 250.751 140.956C250.686 140.788 250.589 140.634 250.465 140.504C250.341 140.374 250.192 140.269 250.028 140.196C249.864 140.123 249.687 140.083 249.507 140.079L249.508 140.08ZM249.438 135.97C248.814 135.929 248.189 135.923 247.565 135.953C247.158 135.97 247.014 136.263 246.944 136.645C246.686 137.941 247.024 138.306 248.507 138.272C248.778 138.272 249.065 138.29 249.342 138.272C249.5 138.278 249.658 138.251 249.804 138.19C249.951 138.13 250.082 138.039 250.19 137.923C250.298 137.807 250.38 137.669 250.429 137.519C250.479 137.369 250.495 137.209 250.478 137.052C250.482 136.912 250.458 136.773 250.408 136.643C250.357 136.513 250.281 136.394 250.184 136.294C250.087 136.193 249.97 136.113 249.842 136.058C249.714 136.004 249.576 135.975 249.437 135.974L249.438 135.97ZM258.199 136.45C257.537 137.762 257.085 139.17 256.859 140.622C257.716 140.859 258.622 140.856 259.478 140.613C259.248 139.172 258.819 137.771 258.202 136.449L258.199 136.45ZM285.343 135.802C283.94 135.767 283.772 135.938 283.737 137.311C283.702 138.952 283.799 139.073 285.273 139.059C286.152 139.087 286.986 138.997 287.412 138.083C287.986 136.857 287.063 135.839 285.341 135.801L285.343 135.802ZM285.343 135.802C283.94 135.767 283.772 135.938 283.737 137.311C283.702 138.952 283.799 139.073 285.273 139.059C286.152 139.087 286.986 138.997 287.412 138.083C287.986 136.857 287.063 135.839 285.341 135.801L285.343 135.802ZM258.199 136.45C257.537 137.762 257.085 139.17 256.859 140.622C257.716 140.859 258.622 140.856 259.478 140.613C259.248 139.172 258.819 137.771 258.202 136.449L258.199 136.45ZM249.438 135.97C248.814 135.929 248.189 135.923 247.565 135.953C247.158 135.97 247.014 136.263 246.944 136.645C246.686 137.941 247.024 138.306 248.507 138.272C248.778 138.272 249.065 138.29 249.342 138.272C249.5 138.278 249.658 138.251 249.804 138.19C249.951 138.13 250.082 138.039 250.19 137.923C250.298 137.807 250.38 137.669 250.429 137.519C250.479 137.369 250.495 137.209 250.478 137.052C250.482 136.912 250.458 136.773 250.408 136.643C250.357 136.513 250.281 136.394 250.184 136.294C250.087 136.193 249.97 136.113 249.842 136.058C249.714 136.004 249.576 135.975 249.437 135.974L249.438 135.97ZM249.508 140.08C248.874 140.021 248.236 140.015 247.6 140.062C247.458 140.063 247.321 140.111 247.209 140.197C247.096 140.284 247.016 140.405 246.979 140.542C246.447 141.909 247.059 142.894 248.47 142.903C248.755 142.903 249.038 142.913 249.323 142.903C250.228 142.859 250.831 142.443 250.841 141.483C250.846 141.303 250.815 141.124 250.751 140.956C250.686 140.788 250.589 140.634 250.465 140.504C250.341 140.374 250.192 140.269 250.028 140.196C249.864 140.123 249.687 140.083 249.507 140.079L249.508 140.08ZM232.98 175.71C231.277 175.675 229.581 175.701 227.876 175.701C226.03 175.701 224.184 175.629 222.346 175.728C221.865 175.738 221.391 175.845 220.953 176.042C220.514 176.239 220.12 176.522 219.794 176.875C219.467 177.228 219.215 177.644 219.053 178.096C218.891 178.549 218.821 179.029 218.849 179.509C218.805 179.99 218.862 180.474 219.014 180.932C219.166 181.39 219.411 181.811 219.733 182.17C220.055 182.529 220.448 182.818 220.887 183.019C221.326 183.219 221.801 183.327 222.283 183.336C224.122 183.465 225.968 183.447 227.804 183.283C229.409 183.127 230.913 182.431 232.07 181.308C233.227 180.186 233.969 178.704 234.175 177.105C234.302 175.931 234.169 175.726 232.979 175.709L232.98 175.71ZM125.575 171.779C125.575 170.714 125.602 169.649 125.565 168.583C125.54 166.375 124.656 164.263 123.1 162.696C121.544 161.128 119.438 160.229 117.23 160.187C115.022 160.145 112.884 160.965 111.271 162.473C109.657 163.981 108.693 166.058 108.585 168.263C108.456 170.599 108.456 172.94 108.585 175.275C108.693 177.482 109.656 179.559 111.269 181.068C112.883 182.577 115.021 183.398 117.23 183.358C119.438 183.317 121.545 182.418 123.102 180.852C124.66 179.285 125.546 177.174 125.574 174.965C125.601 173.898 125.575 172.833 125.575 171.777V171.779ZM125.575 171.779C125.575 170.714 125.602 169.649 125.565 168.583C125.54 166.375 124.656 164.263 123.1 162.696C121.544 161.128 119.438 160.229 117.23 160.187C115.022 160.145 112.884 160.965 111.271 162.473C109.657 163.981 108.693 166.058 108.585 168.263C108.456 170.599 108.456 172.94 108.585 175.275C108.693 177.482 109.656 179.559 111.269 181.068C112.883 182.577 115.021 183.398 117.23 183.358C119.438 183.317 121.545 182.418 123.102 180.852C124.66 179.285 125.546 177.174 125.574 174.965C125.601 173.898 125.575 172.833 125.575 171.777V171.779ZM232.98 175.71C231.277 175.675 229.581 175.701 227.876 175.701C226.03 175.701 224.184 175.629 222.346 175.728C221.865 175.738 221.391 175.845 220.953 176.042C220.514 176.239 220.12 176.522 219.794 176.875C219.467 177.228 219.215 177.644 219.053 178.096C218.891 178.549 218.821 179.029 218.849 179.509C218.805 179.99 218.862 180.474 219.014 180.932C219.166 181.39 219.411 181.811 219.733 182.17C220.055 182.529 220.448 182.818 220.887 183.019C221.326 183.219 221.801 183.327 222.283 183.336C224.122 183.465 225.968 183.447 227.804 183.283C229.409 183.127 230.913 182.431 232.07 181.308C233.227 180.186 233.969 178.704 234.175 177.105C234.302 175.931 234.169 175.726 232.979 175.709L232.98 175.71ZM249.508 140.08C248.874 140.021 248.236 140.015 247.6 140.062C247.458 140.063 247.321 140.111 247.209 140.197C247.096 140.284 247.016 140.405 246.979 140.542C246.447 141.909 247.059 142.894 248.47 142.903C248.755 142.903 249.038 142.913 249.323 142.903C250.228 142.859 250.831 142.443 250.841 141.483C250.846 141.303 250.815 141.124 250.751 140.956C250.686 140.788 250.589 140.634 250.465 140.504C250.341 140.374 250.192 140.269 250.028 140.196C249.864 140.123 249.687 140.083 249.507 140.079L249.508 140.08ZM249.438 135.97C248.814 135.929 248.189 135.923 247.565 135.953C247.158 135.97 247.014 136.263 246.944 136.645C246.686 137.941 247.024 138.306 248.507 138.272C248.778 138.272 249.065 138.29 249.342 138.272C249.5 138.278 249.658 138.251 249.804 138.19C249.951 138.13 250.082 138.039 250.19 137.923C250.298 137.807 250.38 137.669 250.429 137.519C250.479 137.369 250.495 137.209 250.478 137.052C250.482 136.912 250.458 136.773 250.408 136.643C250.357 136.513 250.281 136.394 250.184 136.294C250.087 136.193 249.97 136.113 249.842 136.058C249.714 136.004 249.576 135.975 249.437 135.974L249.438 135.97ZM258.199 136.45C257.537 137.762 257.085 139.17 256.859 140.622C257.716 140.859 258.622 140.856 259.478 140.613C259.248 139.172 258.819 137.771 258.202 136.449L258.199 136.45ZM258.199 136.45C257.537 137.762 257.085 139.17 256.859 140.622C257.716 140.859 258.622 140.856 259.478 140.613C259.248 139.172 258.819 137.771 258.202 136.449L258.199 136.45ZM249.438 135.97C248.814 135.929 248.189 135.923 247.565 135.953C247.158 135.97 247.014 136.263 246.944 136.645C246.686 137.941 247.024 138.306 248.507 138.272C248.778 138.272 249.065 138.29 249.342 138.272C249.5 138.278 249.658 138.251 249.804 138.19C249.951 138.13 250.082 138.039 250.19 137.923C250.298 137.807 250.38 137.669 250.429 137.519C250.479 137.369 250.495 137.209 250.478 137.052C250.482 136.912 250.458 136.773 250.408 136.643C250.357 136.513 250.281 136.394 250.184 136.294C250.087 136.193 249.97 136.113 249.842 136.058C249.714 136.004 249.576 135.975 249.437 135.974L249.438 135.97ZM249.508 140.08C248.874 140.021 248.236 140.015 247.6 140.062C247.458 140.063 247.321 140.111 247.209 140.197C247.096 140.284 247.016 140.405 246.979 140.542C246.447 141.909 247.059 142.894 248.47 142.903C248.755 142.903 249.038 142.913 249.323 142.903C250.228 142.859 250.831 142.443 250.841 141.483C250.846 141.303 250.815 141.124 250.751 140.956C250.686 140.788 250.589 140.634 250.465 140.504C250.341 140.374 250.192 140.269 250.028 140.196C249.864 140.123 249.687 140.083 249.507 140.079L249.508 140.08ZM232.98 175.71C231.277 175.675 229.581 175.701 227.876 175.701C226.03 175.701 224.184 175.629 222.346 175.728C221.865 175.738 221.391 175.845 220.953 176.042C220.514 176.239 220.12 176.522 219.794 176.875C219.467 177.228 219.215 177.644 219.053 178.096C218.891 178.549 218.821 179.029 218.849 179.509C218.805 179.99 218.862 180.474 219.014 180.932C219.166 181.39 219.411 181.811 219.733 182.17C220.055 182.529 220.448 182.818 220.887 183.019C221.326 183.219 221.801 183.327 222.283 183.336C224.122 183.465 225.968 183.447 227.804 183.283C229.409 183.127 230.913 182.431 232.07 181.308C233.227 180.186 233.969 178.704 234.175 177.105C234.302 175.931 234.169 175.726 232.979 175.709L232.98 175.71ZM125.575 171.779C125.575 170.714 125.602 169.649 125.565 168.583C125.54 166.375 124.656 164.263 123.1 162.696C121.544 161.128 119.438 160.229 117.23 160.187C115.022 160.145 112.884 160.965 111.271 162.473C109.657 163.981 108.693 166.058 108.585 168.263C108.456 170.599 108.456 172.94 108.585 175.275C108.693 177.482 109.656 179.559 111.269 181.068C112.883 182.577 115.021 183.398 117.23 183.358C119.438 183.317 121.545 182.418 123.102 180.852C124.66 179.285 125.546 177.174 125.574 174.965C125.601 173.898 125.575 172.833 125.575 171.777V171.779ZM125.575 171.779C125.575 170.714 125.602 169.649 125.565 168.583C125.54 166.375 124.656 164.263 123.1 162.696C121.544 161.128 119.438 160.229 117.23 160.187C115.022 160.145 112.884 160.965 111.271 162.473C109.657 163.981 108.693 166.058 108.585 168.263C108.456 170.599 108.456 172.94 108.585 175.275C108.693 177.482 109.656 179.559 111.269 181.068C112.883 182.577 115.021 183.398 117.23 183.358C119.438 183.317 121.545 182.418 123.102 180.852C124.66 179.285 125.546 177.174 125.574 174.965C125.601 173.898 125.575 172.833 125.575 171.777V171.779ZM232.98 175.71C231.277 175.675 229.581 175.701 227.876 175.701C226.03 175.701 224.184 175.629 222.346 175.728C221.865 175.738 221.391 175.845 220.953 176.042C220.514 176.239 220.12 176.522 219.794 176.875C219.467 177.228 219.215 177.644 219.053 178.096C218.891 178.549 218.821 179.029 218.849 179.509C218.805 179.99 218.862 180.474 219.014 180.932C219.166 181.39 219.411 181.811 219.733 182.17C220.055 182.529 220.448 182.818 220.887 183.019C221.326 183.219 221.801 183.327 222.283 183.336C224.122 183.465 225.968 183.447 227.804 183.283C229.409 183.127 230.913 182.431 232.07 181.308C233.227 180.186 233.969 178.704 234.175 177.105C234.302 175.931 234.169 175.726 232.979 175.709L232.98 175.71ZM249.508 140.08C248.874 140.021 248.236 140.015 247.6 140.062C247.458 140.063 247.321 140.111 247.209 140.197C247.096 140.284 247.016 140.405 246.979 140.542C246.447 141.909 247.059 142.894 248.47 142.903C248.755 142.903 249.038 142.913 249.323 142.903C250.228 142.859 250.831 142.443 250.841 141.483C250.846 141.303 250.815 141.124 250.751 140.956C250.686 140.788 250.589 140.634 250.465 140.504C250.341 140.374 250.192 140.269 250.028 140.196C249.864 140.123 249.687 140.083 249.507 140.079L249.508 140.08ZM249.438 135.97C248.814 135.929 248.189 135.923 247.565 135.953C247.158 135.97 247.014 136.263 246.944 136.645C246.686 137.941 247.024 138.306 248.507 138.272C248.778 138.272 249.065 138.29 249.342 138.272C249.5 138.278 249.658 138.251 249.804 138.19C249.951 138.13 250.082 138.039 250.19 137.923C250.298 137.807 250.38 137.669 250.429 137.519C250.479 137.369 250.495 137.209 250.478 137.052C250.482 136.912 250.458 136.773 250.408 136.643C250.357 136.513 250.281 136.394 250.184 136.294C250.087 136.193 249.97 136.113 249.842 136.058C249.714 136.004 249.576 135.975 249.437 135.974L249.438 135.97ZM258.199 136.45C257.537 137.762 257.085 139.17 256.859 140.622C257.716 140.859 258.622 140.856 259.478 140.613C259.248 139.172 258.819 137.771 258.202 136.449L258.199 136.45ZM258.199 136.45C257.537 137.762 257.085 139.17 256.859 140.622C257.716 140.859 258.622 140.856 259.478 140.613C259.248 139.172 258.819 137.771 258.202 136.449L258.199 136.45ZM249.438 135.97C248.814 135.929 248.189 135.923 247.565 135.953C247.158 135.97 247.014 136.263 246.944 136.645C246.686 137.941 247.024 138.306 248.507 138.272C248.778 138.272 249.065 138.29 249.342 138.272C249.5 138.278 249.658 138.251 249.804 138.19C249.951 138.13 250.082 138.039 250.19 137.923C250.298 137.807 250.38 137.669 250.429 137.519C250.479 137.369 250.495 137.209 250.478 137.052C250.482 136.912 250.458 136.773 250.408 136.643C250.357 136.513 250.281 136.394 250.184 136.294C250.087 136.193 249.97 136.113 249.842 136.058C249.714 136.004 249.576 135.975 249.437 135.974L249.438 135.97ZM249.508 140.08C248.874 140.021 248.236 140.015 247.6 140.062C247.458 140.063 247.321 140.111 247.209 140.197C247.096 140.284 247.016 140.405 246.979 140.542C246.447 141.909 247.059 142.894 248.47 142.903C248.755 142.903 249.038 142.913 249.323 142.903C250.228 142.859 250.831 142.443 250.841 141.483C250.846 141.303 250.815 141.124 250.751 140.956C250.686 140.788 250.589 140.634 250.465 140.504C250.341 140.374 250.192 140.269 250.028 140.196C249.864 140.123 249.687 140.083 249.507 140.079L249.508 140.08ZM232.98 175.71C231.277 175.675 229.581 175.701 227.876 175.701C226.03 175.701 224.184 175.629 222.346 175.728C221.865 175.738 221.391 175.845 220.953 176.042C220.514 176.239 220.12 176.522 219.794 176.875C219.467 177.228 219.215 177.644 219.053 178.096C218.891 178.549 218.821 179.029 218.849 179.509C218.805 179.99 218.862 180.474 219.014 180.932C219.166 181.39 219.411 181.811 219.733 182.17C220.055 182.529 220.448 182.818 220.887 183.019C221.326 183.219 221.801 183.327 222.283 183.336C224.122 183.465 225.968 183.447 227.804 183.283C229.409 183.127 230.913 182.431 232.07 181.308C233.227 180.186 233.969 178.704 234.175 177.105C234.302 175.931 234.169 175.726 232.979 175.709L232.98 175.71ZM125.575 171.779C125.575 170.714 125.602 169.649 125.565 168.583C125.54 166.375 124.656 164.263 123.1 162.696C121.544 161.128 119.438 160.229 117.23 160.187C115.022 160.145 112.884 160.965 111.271 162.473C109.657 163.981 108.693 166.058 108.585 168.263C108.456 170.599 108.456 172.94 108.585 175.275C108.693 177.482 109.656 179.559 111.269 181.068C112.883 182.577 115.021 183.398 117.23 183.358C119.438 183.317 121.545 182.418 123.102 180.852C124.66 179.285 125.546 177.174 125.574 174.965C125.601 173.898 125.575 172.833 125.575 171.777V171.779ZM125.575 171.779C125.575 170.714 125.602 169.649 125.565 168.583C125.54 166.375 124.656 164.263 123.1 162.696C121.544 161.128 119.438 160.229 117.23 160.187C115.022 160.145 112.884 160.965 111.271 162.473C109.657 163.981 108.693 166.058 108.585 168.263C108.456 170.599 108.456 172.94 108.585 175.275C108.693 177.482 109.656 179.559 111.269 181.068C112.883 182.577 115.021 183.398 117.23 183.358C119.438 183.317 121.545 182.418 123.102 180.852C124.66 179.285 125.546 177.174 125.574 174.965C125.601 173.898 125.575 172.833 125.575 171.777V171.779ZM232.98 175.71C231.277 175.675 229.581 175.701 227.876 175.701C226.03 175.701 224.184 175.629 222.346 175.728C221.865 175.738 221.391 175.845 220.953 176.042C220.514 176.239 220.12 176.522 219.794 176.875C219.467 177.228 219.215 177.644 219.053 178.096C218.891 178.549 218.821 179.029 218.849 179.509C218.805 179.99 218.862 180.474 219.014 180.932C219.166 181.39 219.411 181.811 219.733 182.17C220.055 182.529 220.448 182.818 220.887 183.019C221.326 183.219 221.801 183.327 222.283 183.336C224.122 183.465 225.968 183.447 227.804 183.283C229.409 183.127 230.913 182.431 232.07 181.308C233.227 180.186 233.969 178.704 234.175 177.105C234.302 175.931 234.169 175.726 232.979 175.709L232.98 175.71ZM232.98 175.71C231.277 175.675 229.581 175.701 227.876 175.701C226.03 175.701 224.184 175.629 222.346 175.728C221.865 175.738 221.391 175.845 220.953 176.042C220.514 176.239 220.12 176.522 219.794 176.875C219.467 177.228 219.215 177.644 219.053 178.096C218.891 178.549 218.821 179.029 218.849 179.509C218.805 179.99 218.862 180.474 219.014 180.932C219.166 181.39 219.411 181.811 219.733 182.17C220.055 182.529 220.448 182.818 220.887 183.019C221.326 183.219 221.801 183.327 222.283 183.336C224.122 183.465 225.968 183.447 227.804 183.283C229.409 183.127 230.913 182.431 232.07 181.308C233.227 180.186 233.969 178.704 234.175 177.105C234.302 175.931 234.169 175.726 232.979 175.709L232.98 175.71ZM125.575 171.779C125.575 170.714 125.602 169.649 125.565 168.583C125.54 166.375 124.656 164.263 123.1 162.696C121.544 161.128 119.438 160.229 117.23 160.187C115.022 160.145 112.884 160.965 111.271 162.473C109.657 163.981 108.693 166.058 108.585 168.263C108.456 170.599 108.456 172.94 108.585 175.275C108.693 177.482 109.656 179.559 111.269 181.068C112.883 182.577 115.021 183.398 117.23 183.358C119.438 183.317 121.545 182.418 123.102 180.852C124.66 179.285 125.546 177.174 125.574 174.965C125.601 173.898 125.575 172.833 125.575 171.777V171.779ZM125.575 171.779C125.575 170.714 125.602 169.649 125.565 168.583C125.54 166.375 124.656 164.263 123.1 162.696C121.544 161.128 119.438 160.229 117.23 160.187C115.022 160.145 112.884 160.965 111.271 162.473C109.657 163.981 108.693 166.058 108.585 168.263C108.456 170.599 108.456 172.94 108.585 175.275C108.693 177.482 109.656 179.559 111.269 181.068C112.883 182.577 115.021 183.398 117.23 183.358C119.438 183.317 121.545 182.418 123.102 180.852C124.66 179.285 125.546 177.174 125.574 174.965C125.601 173.898 125.575 172.833 125.575 171.777V171.779ZM125.575 171.779C125.575 170.714 125.602 169.649 125.565 168.583C125.54 166.375 124.656 164.263 123.1 162.696C121.544 161.128 119.438 160.229 117.23 160.187C115.022 160.145 112.884 160.965 111.271 162.473C109.657 163.981 108.693 166.058 108.585 168.263C108.456 170.599 108.456 172.94 108.585 175.275C108.693 177.482 109.656 179.559 111.269 181.068C112.883 182.577 115.021 183.398 117.23 183.358C119.438 183.317 121.545 182.418 123.102 180.852C124.66 179.285 125.546 177.174 125.574 174.965C125.601 173.898 125.575 172.833 125.575 171.777V171.779Z" fill="white"/>
    </g>
    <path d="M234.169 177.101C233.964 178.7 233.222 180.183 232.064 181.305C230.907 182.427 229.403 183.123 227.798 183.279C225.962 183.443 224.116 183.461 222.278 183.332C221.795 183.324 221.32 183.216 220.881 183.016C220.442 182.815 220.049 182.526 219.726 182.167C219.404 181.808 219.159 181.387 219.007 180.929C218.855 180.471 218.798 179.987 218.842 179.506C218.814 179.026 218.883 178.545 219.046 178.093C219.208 177.64 219.46 177.225 219.786 176.872C220.113 176.519 220.507 176.235 220.946 176.038C221.384 175.841 221.858 175.734 222.339 175.724C224.177 175.627 226.023 175.697 227.869 175.697C229.573 175.697 231.268 175.67 232.973 175.707C234.169 175.726 234.302 175.926 234.169 177.101Z" fill="white"/>
    <path d="M125.575 174.963C125.547 177.172 124.661 179.283 123.103 180.85C121.546 182.416 119.439 183.315 117.231 183.355C115.022 183.396 112.884 182.575 111.27 181.066C109.657 179.557 108.694 177.48 108.586 175.273C108.457 172.938 108.457 170.597 108.586 168.261C108.694 166.055 109.658 163.979 111.272 162.471C112.885 160.963 115.023 160.143 117.231 160.185C119.439 160.226 121.545 161.126 123.101 162.694C124.657 164.261 125.541 166.373 125.567 168.581C125.602 169.647 125.576 170.712 125.576 171.776C125.576 172.84 125.602 173.897 125.575 174.963Z" fill="white"/>
    <path d="M250.839 141.481C250.83 142.44 250.227 142.857 249.321 142.902C249.036 142.911 248.753 142.902 248.468 142.902C247.057 142.892 246.445 141.907 246.978 140.541C247.014 140.404 247.095 140.283 247.207 140.196C247.319 140.109 247.457 140.062 247.598 140.061C248.234 140.013 248.872 140.019 249.507 140.079C249.686 140.083 249.863 140.123 250.027 140.196C250.192 140.269 250.34 140.374 250.464 140.504C250.587 140.634 250.684 140.788 250.749 140.955C250.813 141.123 250.844 141.302 250.839 141.481Z" fill="white"/>
    <path d="M246.942 136.643C247.013 136.261 247.155 135.966 247.563 135.951C248.187 135.921 248.813 135.927 249.436 135.969C249.577 135.969 249.716 135.999 249.845 136.055C249.974 136.111 250.091 136.192 250.188 136.294C250.285 136.396 250.36 136.516 250.409 136.648C250.458 136.78 250.481 136.92 250.474 137.061C250.492 137.218 250.476 137.378 250.426 137.528C250.376 137.678 250.295 137.816 250.187 137.932C250.079 138.048 249.947 138.139 249.801 138.199C249.655 138.259 249.497 138.287 249.339 138.281C249.068 138.298 248.779 138.281 248.504 138.281C247.022 138.304 246.685 137.939 246.942 136.643Z" fill="white"/>
    <path d="M287.41 138.08C286.984 138.993 286.149 139.083 285.271 139.056C283.798 139.065 283.7 138.95 283.735 137.307C283.771 135.932 283.94 135.764 285.342 135.799C287.064 135.843 287.987 136.856 287.41 138.08Z" fill="white"/>
    <path d="M258.491 153.731C257.679 154.029 256.787 154.035 255.97 153.748C256.137 152.376 256.571 151.049 257.248 149.843C257.962 151.024 258.388 152.355 258.491 153.731Z" fill="white"/>
    <path d="M259.47 140.611C258.614 140.854 257.708 140.857 256.851 140.62C257.077 139.168 257.529 137.76 258.192 136.448C258.809 137.77 259.239 139.171 259.47 140.611Z" fill="white"/>
    <path d="M234.169 177.101C233.964 178.7 233.222 180.183 232.064 181.305C230.907 182.427 229.403 183.123 227.798 183.279C225.962 183.443 224.116 183.461 222.278 183.332C221.795 183.324 221.32 183.216 220.881 183.016C220.442 182.815 220.049 182.526 219.726 182.167C219.404 181.808 219.159 181.387 219.007 180.929C218.855 180.471 218.798 179.987 218.842 179.506C218.814 179.026 218.883 178.545 219.046 178.093C219.208 177.64 219.46 177.225 219.786 176.872C220.113 176.519 220.507 176.235 220.946 176.038C221.384 175.841 221.858 175.734 222.339 175.724C224.177 175.627 226.023 175.697 227.869 175.697C229.573 175.697 231.268 175.67 232.973 175.707C234.169 175.726 234.302 175.926 234.169 177.101Z" fill="white"/>
    <path d="M125.575 174.963C125.547 177.172 124.661 179.283 123.103 180.85C121.546 182.416 119.439 183.315 117.231 183.355C115.022 183.396 112.884 182.575 111.27 181.066C109.657 179.557 108.694 177.48 108.586 175.273C108.457 172.938 108.457 170.597 108.586 168.261C108.694 166.055 109.658 163.979 111.272 162.471C112.885 160.963 115.023 160.143 117.231 160.185C119.439 160.226 121.545 161.126 123.101 162.694C124.657 164.261 125.541 166.373 125.567 168.581C125.602 169.647 125.576 170.712 125.576 171.776C125.576 172.84 125.602 173.897 125.575 174.963Z" fill="white"/>
    <path d="M250.839 141.481C250.83 142.44 250.227 142.857 249.321 142.902C249.036 142.911 248.753 142.902 248.468 142.902C247.057 142.892 246.445 141.907 246.978 140.541C247.014 140.404 247.095 140.283 247.207 140.196C247.319 140.109 247.457 140.062 247.598 140.061C248.234 140.013 248.872 140.019 249.507 140.079C249.686 140.083 249.863 140.123 250.027 140.196C250.192 140.269 250.34 140.374 250.464 140.504C250.587 140.634 250.684 140.788 250.749 140.955C250.813 141.123 250.844 141.302 250.839 141.481Z" fill="white"/>
    <path d="M250.475 137.061C250.493 137.219 250.476 137.378 250.427 137.528C250.377 137.679 250.296 137.817 250.188 137.932C250.08 138.048 249.948 138.139 249.802 138.2C249.655 138.26 249.498 138.288 249.339 138.281C249.068 138.299 248.779 138.281 248.504 138.281C247.022 138.308 246.684 137.944 246.942 136.655C247.012 136.272 247.154 135.977 247.562 135.962C248.187 135.933 248.812 135.938 249.436 135.98C249.575 135.981 249.714 136.009 249.842 136.065C249.971 136.12 250.087 136.2 250.184 136.301C250.281 136.402 250.356 136.521 250.406 136.652C250.456 136.782 250.48 136.922 250.475 137.061Z" fill="white"/>
    <path d="M287.41 138.08C286.984 138.993 286.149 139.083 285.271 139.056C283.798 139.065 283.7 138.95 283.735 137.307C283.771 135.932 283.94 135.764 285.342 135.799C287.064 135.843 287.987 136.856 287.41 138.08Z" fill="white"/>
    <path d="M258.491 153.731C257.679 154.029 256.787 154.035 255.97 153.748C256.137 152.376 256.571 151.049 257.248 149.843C257.962 151.024 258.388 152.355 258.491 153.731Z" fill="white"/>
    <path d="M259.47 140.611C258.614 140.854 257.708 140.857 256.851 140.62C257.077 139.168 257.529 137.76 258.192 136.448C258.809 137.77 259.239 139.171 259.47 140.611Z" fill="white"/>
    <path d="M299.343 118.089H48.7339V201.755H299.343V118.089Z" fill="white"/>
    <path d="M187.051 89.0138L186.574 78.9983C218.53 73.7518 221.391 61.8279 221.391 61.8279C221.391 61.3505 229.5 78.5213 255.732 79.4752V89.0143C240.47 90.4452 221.391 77.0904 221.391 77.0904C221.391 77.0904 201.359 89.4908 187.051 89.0138Z" fill="#DEDEDE"/>
    <path d="M186.097 76.1267C186.097 97.4943 188.323 112.693 189.436 117.622C190.549 123.663 195.636 135.269 206.129 140.516C217.957 146.239 220.915 150.214 220.915 151.486" stroke="black" strokeLinecap="round"/>
    <path d="M255.732 76.6035C255.732 97.9711 253.506 113.17 252.394 118.099C251.281 124.14 246.193 135.746 235.7 140.992C223.872 146.716 220.915 150.213 220.915 151.485" stroke="black" strokeLinecap="round"/>
    <path d="M186.574 86.1428L186.097 76.1271C218.053 70.8806 220.915 58.9568 220.915 58.9568C220.915 58.4794 229.023 75.6502 255.255 76.6041V86.1432C239.993 87.5741 220.915 74.2193 220.915 74.2193C220.915 74.2193 200.883 86.6198 186.574 86.1428Z" fill="#BEE8FF" stroke="black" strokeLinecap="round"/>
    <path d="M236.177 98.0573L229.023 95.1956L219.961 113.32L209.944 108.55L207.083 114.274L222.345 121.905L236.177 98.0573Z" stroke="black" strokeLinecap="round"/>
    <path d="M123.574 112.366C144.347 109.556 156.829 98.707 160.474 93.6338C164.574 104.756 168.127 108.561 173.867 112.366C179.771 91.2921 169.22 86.2191 163.207 86.3168C162.569 84.3655 159.982 80.1703 154.734 78.9993C120.841 78.1213 122.481 105.927 123.574 112.366Z" fill="#DEDEDE"/>
    <path d="M179.589 239.853C174.711 246.062 167.451 259.061 176.256 263.044C181.98 264.793 187.112 262.738 191.522 258.75V268.484C191.522 272.35 188.388 275.484 184.523 275.484H116.614C112.57 275.484 109.368 272.069 109.628 268.034L111.374 240.977C112.386 241.049 113.446 241.099 114.554 241.125C128.03 241.447 155.635 242.643 171.803 241.627C174.413 241.463 177.111 240.823 179.589 239.853Z" fill="white"/>
    <path d="M135.228 166.188C128.569 166.034 115.063 168.398 104.113 177.644C97.4685 183.255 94.4886 191.872 92.7135 200.385C89.2211 217.134 87.6031 235.353 111.374 240.977M167.351 166.188C169.006 165.54 171.444 164.974 174.348 164.854C176.83 164.752 179.652 164.976 182.617 165.755C184.793 166.327 187.046 167.197 189.296 168.457C191.883 169.905 194.467 171.868 196.929 174.481C205.164 183.22 207.669 202.017 207.998 216.421C208.184 224.581 206.889 232.753 203.643 240.242C200.681 247.074 196.575 254.181 191.522 258.75M179.755 239.644C174.878 245.766 167.351 259.016 176.256 263.044C181.98 264.793 187.112 262.738 191.522 258.75M111.374 240.977C112.386 241.049 113.446 241.099 114.554 241.125C128.03 241.447 155.635 242.643 171.803 241.627C185.4 240.772 201.382 227.002 176.256 220.984M111.374 240.977L109.628 268.034C109.368 272.069 112.57 275.484 116.614 275.484H184.523C188.388 275.484 191.522 272.35 191.522 268.484V258.75M188.024 201.435C187.812 207.26 188.533 219.325 188.024 220.984M114.554 187.514C114.342 196.103 114.045 213.461 114.554 214.171M196.929 201.435C197.565 203.805 197.883 208.18 197.883 209.136M197.883 192.845C200.234 194.491 201.382 199.302 201.382 200.25" stroke="black" strokeLinecap="round"/>
    <path d="M165.048 244.187C168.151 243.204 179.882 206.279 186.255 182.314C187.692 176.912 186.813 170.438 181.54 168.585C180.421 168.191 179.265 167.997 178.138 168.117C172.942 168.672 106.793 234.006 106.793 238.917C106.793 246.339 160.672 245.574 165.048 244.187Z" fill="#BEE8FF" stroke="black" strokeLinecap="round"/>
    <path d="M159.737 204.494C152.529 215 137.493 236.235 135.021 237.129M171.858 197.565L145.953 238.917M171.858 186.389C156.173 201.886 124.85 233.731 125.04 237.129" stroke="black" strokeLinecap="round"/>
    <path d="M104.061 236.851L137.448 200.603L172.265 168.647L173.261 168.315C174.48 167.908 175.789 167.858 177.035 168.17L171.073 172.701L165.111 177.709L156.049 186.294L140.309 201.556L120.754 221.112L113.123 229.697L105.969 238.282L104.061 236.851Z" fill="#DEDEDE"/>
    <path d="M140.291 166.009C139.689 166.611 149.622 175.928 160.156 166.009M172.196 115.816C174.503 115.115 179.42 114.013 179.42 119.423C179.42 124.048 174.503 125.133 172.497 125.133C172.978 139.32 162.464 148.777 157.146 151.583C127.047 157.894 125.843 131.145 124.94 123.029C122.532 123.63 117.416 125.133 117.416 118.521C117.416 113.231 122.673 114.513 125.301 115.816M172.497 109.504V115.816M146.311 138.959C147.515 140.562 151.127 142.385 155.942 136.855M149.02 121.527C149.521 122.929 149.682 126.396 146.311 129.041C142.94 131.686 146.712 131.746 149.02 131.445M144.505 115.816C146.21 115.115 151.066 114.493 153.233 117.619M144.505 115.816C140.993 111.107 130.827 109.504 128.552 115.816C125.194 125.133 132.164 129.341 137.582 129.041C140.692 128.54 146.431 125.193 144.505 115.816ZM153.233 117.619C153.678 112.51 160.357 111.408 161.962 111.308C166.688 111.013 171.554 116.162 170.05 121.659C168.24 128.273 157.426 131.263 154.288 125.166C153.398 123.438 152.938 121.007 153.233 117.619Z" stroke="black" strokeLinecap="round"/>
    <path d="M189.613 159.227C198.539 149.687 186.637 138.956 180.687 133.888C178.84 132.316 177.769 128.688 177.197 124.349C176.309 124.826 173.798 125.542 172.654 125.84C171.94 141.818 161.943 148.793 157.48 151.774C158.075 153.96 159.027 159.882 160.455 166.083C175.629 166.679 188.72 178.901 191.1 184.863C194.71 183.054 195.121 179.062 194.364 175.181C193.393 170.199 187.327 166.272 188.667 161.377C188.85 160.707 189.156 159.989 189.613 159.227Z" fill="black"/>
    <path d="M177.712 116.003C176.284 115.287 173.745 115.903 172.654 116.301C172.654 112.184 172.224 107.945 170.773 104.093C170.274 102.767 169.768 101.471 169.381 100.501L176.819 94.2415C179.794 98.1167 177.712 114.095 177.712 116.003Z" fill="black"/>
    <path d="M189.613 159.227C198.539 149.687 186.637 138.956 180.687 133.888C178.84 132.316 177.769 128.688 177.197 124.349C176.309 124.826 173.798 125.542 172.654 125.84C171.94 141.818 161.943 148.793 157.48 151.774C158.075 153.96 159.027 159.882 160.455 166.083C175.629 166.679 188.72 178.901 191.1 184.863C194.71 183.054 195.121 179.062 194.364 175.181C193.393 170.199 187.327 166.272 188.667 161.377C188.85 160.707 189.156 159.989 189.613 159.227Z" stroke="black" strokeLinecap="round"/>
    <path d="M177.712 116.003C176.284 115.287 173.745 115.903 172.654 116.301C172.654 112.184 172.224 107.945 170.773 104.093C170.274 102.767 169.768 101.471 169.381 100.501L176.819 94.2415C179.794 98.1167 177.712 114.095 177.712 116.003Z" stroke="black" strokeLinecap="round"/>
    <path d="M111.012 159.227C102.132 149.687 113.973 138.956 119.893 133.888C121.731 132.316 122.568 128.39 123.138 124.051C124.026 123.455 123.73 124.349 124.914 123.455C125.625 139.433 131.45 145.216 140.023 151.476C139.431 153.662 140.899 160.121 140.023 166.083C124.925 166.679 111.9 178.901 109.532 184.863C105.943 183.055 105.532 179.066 106.284 175.188C107.249 170.204 113.293 166.259 111.95 161.364C111.767 160.697 111.464 159.985 111.012 159.227Z" fill="black"/>
    <path d="M122.249 115.108C123.73 115.704 125.604 116.499 126.69 116.897C127.467 112.443 128.402 107.663 130.005 103.435C130.418 102.345 130.821 101.309 131.142 100.501L123.741 94.2415C120.781 98.1167 122.249 113.2 122.249 115.108Z" fill="black"/>
    <path d="M111.012 159.227C102.132 149.687 113.973 138.956 119.893 133.888C121.731 132.316 122.568 128.39 123.138 124.051C124.026 123.455 123.73 124.349 124.914 123.455C125.625 139.433 131.45 145.216 140.023 151.476C139.431 153.662 140.899 160.121 140.023 166.083C124.925 166.679 111.9 178.901 109.532 184.863C105.943 183.055 105.532 179.066 106.284 175.188C107.249 170.204 113.293 166.259 111.95 161.364C111.767 160.697 111.464 159.985 111.012 159.227Z" stroke="black" strokeLinecap="round"/>
    <path d="M122.249 115.108C123.73 115.704 125.604 116.499 126.69 116.897C127.467 112.443 128.402 107.663 130.005 103.435C130.418 102.345 130.821 101.309 131.142 100.501L123.741 94.2415C120.781 98.1167 122.249 113.2 122.249 115.108Z" stroke="black" strokeLinecap="round"/>
    <circle cx="159.864" cy="118.566" r="1.43086" fill="black"/>
    <circle cx="137.925" cy="118.566" r="1.43086" fill="black"/>
    <path d="M175.705 69.284C159.462 59.8292 152.971 70.9062 151.756 77.6265C155.921 77.8582 160.607 81.1026 162.429 83.6517C167.844 83.4663 171.28 86.8187 172.321 88.5181C178.308 84.5786 182.994 74.6603 175.705 69.284Z" fill="black" stroke="black" strokeLinecap="round"/>
    <path d="M165.111 75.1633C168.231 76.1417 174.697 79.0377 175.604 82.7946" stroke="black" strokeLinecap="round"/>
    <path d="M153.017 74L154.788 74.613C158.733 75.9787 162.254 78.3495 165.004 81.4916L168.012 82.5626C170.537 83.4614 172.871 84.8262 174.893 86.5861L173.694 87.4851L173.394 89.2831L150.019 77.1896L152.417 75.4983L153.017 74Z" fill="#292929"/>
    <path d="M119.806 110.458C142.845 107.568 156.689 96.4089 160.731 91.1907C165.278 102.63 169.219 106.545 175.585 110.458C182.133 88.7821 170.432 83.5641 163.762 83.6646C163.055 81.6576 160.185 77.3425 154.365 76.1381C116.774 75.235 118.593 103.835 119.806 110.458Z" fill="black" stroke="black" strokeLinecap="round"/>
    <defs>
    <filter id="filter0_d_273_20652" x="0.116699" y="0.0209961" width="346.205" height="346.207" filterUnits="userSpaceOnUse" color-interpolation-filters="sRGB">
    <feFlood flood-opacity="0" result="BackgroundImageFix"/>
    <feColorMatrix in="SourceAlpha" type="matrix" values="0 0 0 0 0 0 0 0 0 0 0 0 0 0 0 0 0 0 127 0" result="hardAlpha"/>
    <feOffset dy="4"/>
    <feGaussianBlur stdDeviation="10"/>
    <feComposite in2="hardAlpha" operator="out"/>
    <feColorMatrix type="matrix" values="0 0 0 0 0.5875 0 0 0 0 0.5875 0 0 0 0 0.5875 0 0 0 0.25 0"/>
    <feBlend mode="normal" in2="BackgroundImageFix" result="effect1_dropShadow_273_20652"/>
    <feBlend mode="normal" in="SourceGraphic" in2="effect1_dropShadow_273_20652" result="shape"/>
    </filter>
    </defs>
    </svg>
    