<svg width="152" height="150" viewBox="0 0 152 150" fill="none" xmlns="http://www.w3.org/2000/svg">
    <path d="M135.089 18H126.316V29.3623H114.725V37.6538H126.316V49.0161H135.089V37.6538H146.681V29.3623H135.089V18Z" fill="#BEE8FF" stroke="black" stroke-width="0.5" stroke-linecap="round"/>
    <path d="M1.07328 60.3566C0.13171 58.0065 8.59151 57.5369 7.65246 60.3566V130.378C5.39733 133.009 2.3267 131.788 1.07328 130.848V60.3566Z" fill="white"/>
    <path d="M1.07328 60.3566C2.32646 61.2964 5.39674 62.6123 7.65246 60.3566M1.07328 60.3566C0.13171 58.0065 8.59151 57.5369 7.65246 60.3566M1.07328 60.3566V130.848C2.3267 131.788 5.39733 133.009 7.65246 130.378C7.65246 126.994 7.65246 82.2871 7.65246 60.3566" stroke="black" stroke-width="0.5" stroke-linecap="round"/>
    <path d="M143.937 90.5467C143.016 89.1953 151.292 88.9253 150.373 90.5467V130.811C148.167 132.324 145.163 131.622 143.937 131.081V90.5467Z" fill="white"/>
    <path d="M143.937 90.5467C145.163 91.0871 148.166 91.8438 150.373 90.5467M143.937 90.5467C143.016 89.1953 151.292 88.9253 150.373 90.5467M143.937 90.5467V131.081C145.163 131.622 148.167 132.324 150.373 130.811C150.373 128.865 150.373 103.157 150.373 90.5467" stroke="black" stroke-width="0.5" stroke-linecap="round"/>
    <path d="M7.57858 83.3216C7.57858 83.3216 7.65171 92.9395 7.65171 94.1926H148.164C151.382 94.1926 150.984 90.9323 150.984 87.1435C150.984 82.3817 148.007 83.0707 146.754 82.9141C103.206 83.0707 4.19501 83.3216 7.57858 83.3216Z" fill="white" stroke="black" stroke-width="0.5" stroke-linecap="round"/>
    <path d="M45.5831 82.9789C46.0039 84.9505 47.45 86.6206 49.1189 87.7653C50.7879 88.91 52.7376 89.5867 54.6301 90.2641C56.1787 90.8288 57.7844 91.393 59.3329 91.9577C60.9927 92.2307 62.7101 92.5612 64.3698 92.8341C65.5142 92.9964 66.6592 93.2167 67.7415 92.9146C68.8238 92.6125 69.7856 91.7305 70.175 90.7383C71.1891 89.3908 71.6847 87.6419 71.5525 85.9578C73.8394 86.1079 76.1816 86.083 78.3486 85.7113C78.8004 79.8364 77.9383 73.9754 76.962 68.1157C75.989 67.9516 75.0166 67.8457 73.9877 67.7985C73.3896 70.6528 72.9629 73.5052 72.6516 76.4726C71.1005 75.6754 69.5495 74.8782 67.9985 74.081C67.9408 74.0235 67.8265 74.0247 67.7694 74.0253C67.6551 74.0265 67.5415 74.0858 67.4279 74.1452C66.3499 74.854 65.0403 75.2748 63.6693 75.2893C62.7399 73.8462 61.8676 72.4025 61.0511 70.8419C58.8115 69.7614 56.629 68.6803 54.4453 67.483C54.4361 66.6113 54.4839 65.739 54.8168 64.8055C52.5373 65.3528 50.3181 66.1901 48.2733 67.3161C47.5915 67.672 46.9668 68.0274 46.4017 68.6146C45.8932 69.1431 45.4436 69.8453 45.3951 70.6595C48.7834 72.309 52.1717 73.9585 55.5606 75.6661C52.0982 77.7952 48.7549 80.388 45.5831 82.9789Z" fill="#BEE8FF"/>
    <path d="M110.769 83.2757C111.627 83.3828 112.428 83.4325 113.285 83.4233C113.456 83.4215 113.627 83.4197 113.741 83.3604C114.139 83.1818 114.191 82.6582 114.186 82.2514C114.176 81.2634 114.223 80.2749 114.212 79.287C114.205 78.6477 114.256 78.0079 114.135 77.3698C113.453 77.7839 112.946 78.4286 112.668 79.129C112.332 79.83 112.17 80.6454 112.064 81.4021C111.607 81.407 111.207 81.4112 110.75 81.4161C110.756 81.9972 110.763 82.6365 110.769 83.2757Z" fill="#BEE8FF"/>
    <path d="M110.676 73.9798C111.534 74.0869 112.334 74.1366 113.191 74.1275C113.362 74.1256 113.534 74.1238 113.647 74.0645C114.045 73.8859 114.097 73.3623 114.093 72.9555C114.082 71.9675 114.129 70.979 114.118 69.9911C114.112 69.3518 114.162 68.712 114.041 68.0739C113.36 68.488 112.852 69.1327 112.574 69.8331C112.239 70.5341 112.076 71.3495 111.97 72.1062C111.513 72.1111 111.113 72.1153 110.656 72.1202C110.663 72.7594 110.669 73.3987 110.676 73.9798Z" fill="#BEE8FF"/>
    <path d="M77.4833 69.3889C88.5626 68.9807 99.6498 69.3279 110.63 70.3736C110.643 71.594 110.598 72.7569 110.669 73.9767C101.122 73.4387 91.5272 73.7731 81.7705 74.981C82.2957 76.0216 81.6809 77.3068 82.2055 78.2892C89.8696 79.0796 97.4765 79.8707 105.134 80.0799C107.02 80.0599 108.906 80.1561 110.678 80.2535C110.75 81.6476 110.708 83.1011 110.494 84.4401C108.214 84.9293 105.869 84.6636 103.581 84.4554C95.2894 83.7298 86.8956 84.1677 78.5683 85.4766C78.7199 83.6152 78.7002 81.7556 78.4519 79.8984C78.3296 79.1441 78.208 78.4479 78.1434 77.7512C77.7698 74.8492 78.1389 71.9392 77.4833 69.3889Z" fill="white"/>
    <path d="M67.2006 74.384C67.2337 72.117 66.4099 69.8591 64.7925 68.1908C64.7372 68.3657 64.4516 68.3687 64.2796 68.3124C64.1076 68.2561 63.9343 68.0836 63.763 68.0854C63.5916 68.0873 63.3656 68.3221 63.481 68.4372C63.1948 68.3821 62.8508 68.2695 62.5646 68.2144C62.4497 68.1575 62.3354 68.1587 62.2218 68.2181C62.1082 68.2774 62.1094 68.3936 62.1113 68.568C62.1242 69.7883 63.2207 70.8228 63.1759 71.9857C62.8872 71.6982 62.7115 71.2932 62.5364 70.9464C62.3614 70.5995 62.0714 70.1957 61.6709 70.1419C61.6138 70.1425 61.5567 70.1431 61.4424 70.1443C61.3288 70.2036 61.33 70.3198 61.3884 70.4355C61.5783 72.177 62.6791 73.6184 63.7787 74.9434C63.8364 75.0009 63.8364 75.0009 63.8942 75.0585C63.9513 75.0578 64.0084 75.0572 64.0655 75.0566C65.2074 74.9864 66.2903 74.7424 67.2006 74.384Z" fill="white"/>
    <path d="M55.7848 75.3774C52.173 74.1953 49.1741 71.5536 45.2195 70.3751C44.8325 71.5997 44.5599 72.8231 44.4611 74.2772C43.3204 74.4637 42.1791 74.592 40.7479 74.3166C40.1563 72.4049 39.166 70.6137 37.5542 69.4685C35.9423 68.3232 33.8815 67.9382 31.8839 68.1338C29.9435 68.3288 28.0658 69.0462 26.2464 69.8792C23.9725 70.9495 21.8147 72.1929 19.6575 73.4945C21.3419 76.092 23.0853 78.8632 23.3459 81.8827C23.3613 83.3355 23.4339 84.7877 23.5642 86.2975C23.5654 86.4137 23.5673 86.588 23.6822 86.6449C23.797 86.7018 23.9119 86.7587 24.0261 86.7575C25.1693 86.8035 26.313 86.9076 27.4561 86.9536C27.52 87.5922 27.299 88.292 27.42 88.93C27.7173 90.0312 29.2634 90.3635 30.1707 89.7145C31.0773 89.0074 31.2922 87.7265 31.0519 86.6248C33.1048 86.2543 35.0986 85.71 36.9161 84.7027C38.7336 83.6953 40.3171 82.1674 41.1542 80.2987C41.266 80.065 41.3778 79.8313 41.6051 79.7127C41.7187 79.6533 41.8329 79.6521 42.0049 79.7084C42.6339 79.7599 43.2623 79.7532 43.8342 79.8052C44.0056 79.8034 44.1769 79.8016 44.3495 79.916C44.5793 80.0298 44.6966 80.3192 44.814 80.6085C45.0505 81.3616 45.3441 82.114 45.5807 82.867C48.9245 80.3324 52.1547 77.857 55.7848 75.3774Z" fill="white"/>
    <path d="M15.5939 72.8954C15.874 72.3694 16.557 72.1296 17.186 72.1811C17.7008 72.2337 18.2745 72.4601 18.6781 72.8046C18.9662 73.034 19.1977 73.3221 19.4299 73.6684C22.2109 77.3004 23.5747 81.9936 23.5086 86.5277C24.7697 86.9211 26.1419 87.0228 27.4534 86.7764C27.177 87.6511 27.3595 88.6953 27.8816 89.4454C26.1672 89.4054 24.4523 89.3074 22.846 88.6852C21.2397 88.0629 19.7992 86.9158 19.097 85.354C17.7628 83.4502 17.0538 81.2492 16.3455 79.1063C15.814 77.4846 15.3398 75.8622 15.3219 74.177C15.3169 73.712 15.3697 73.3046 15.5939 72.8954Z" fill="white"/>
    <path d="M31.054 86.5629C31.8525 86.4382 32.5933 86.2559 33.3329 85.9575C33.6172 85.8382 33.9588 85.7184 34.245 85.7734C34.1934 86.2971 33.7985 86.7662 33.4029 87.1773C33.0645 87.5877 32.6112 87.9412 32.0977 88.0048C31.5836 88.0103 31.1229 87.6664 31.0031 87.1446C30.9428 86.8547 30.9398 86.5641 31.054 86.5629Z" fill="white"/>
    <path d="M31.774 77.0849C31.7736 77.0501 31.7736 77.0501 31.7732 77.0153C31.7275 76.9463 31.6374 76.9472 31.5477 76.983C31.0546 77.1969 30.2881 77.1007 29.9245 76.7915C29.788 76.6538 29.6514 76.5161 29.6042 76.3079C29.4185 75.7881 29.503 75.2654 29.8599 74.9486C30.0382 74.7728 30.3072 74.6655 30.577 74.6279C30.7121 74.6265 30.8922 74.6245 31.0284 74.7274C31.1188 74.7613 31.2089 74.7603 31.2535 74.7251C31.2978 74.655 31.2971 74.5855 31.2517 74.5512C31.0705 74.4487 30.8446 74.3816 30.5748 74.4192C30.215 74.4578 29.8562 74.6008 29.6333 74.8118C29.1875 75.234 29.1037 75.8262 29.3351 76.4151C29.4277 76.6576 29.565 76.8649 29.7466 77.0021C30.2467 77.449 31.1484 77.5438 31.7758 77.2588C31.73 77.1897 31.7743 77.1197 31.774 77.0849Z" fill="black"/>
    <path d="M36.7116 76.0457C36.7011 75.0577 36.2336 74.0747 35.4271 73.4439C35.3122 73.387 35.198 73.3882 35.1421 73.5051C35.0862 73.6219 35.0874 73.7381 35.2023 73.795C36.1814 74.5402 36.5961 75.9307 36.1508 77.0397C36.095 77.1565 36.1533 77.2721 36.2682 77.329C36.383 77.3859 36.4967 77.3266 36.5526 77.2098C36.6625 76.8018 36.7159 76.4525 36.7116 76.0457Z" fill="black"/>
    <path d="M41.6451 77.8497C41.6302 76.455 41.2733 75.122 40.917 73.8471C40.0845 70.7756 37.3166 68.364 34.1132 67.9912C31.5389 67.6698 28.9781 68.6269 26.59 69.6984C23.8603 70.8898 21.7019 72.0751 19.7732 73.3743C19.7167 73.433 19.6602 73.4917 19.6608 73.5498C18.9083 72.6279 18.0458 72.114 17.1306 72.0075C16.7872 71.953 16.3308 72.0159 15.9334 72.2527C15.3094 72.6661 15.2038 73.4809 15.2099 74.0621C15.075 77.4926 16.5377 80.7317 18.2295 84.0266C18.6386 84.8941 19.1632 85.8765 19.858 86.741C20.5522 87.5473 21.4736 88.2349 22.5633 88.6302C24.0572 89.428 25.8311 89.6998 27.4841 89.3335C27.6008 89.5647 27.7175 89.796 27.9479 89.9679C28.4092 90.3698 29.1537 90.5363 29.8373 90.3547C30.6346 90.1137 31.3139 89.5253 31.5915 88.7668C31.8704 88.1245 31.8052 87.3696 31.5128 86.7334C33.6786 86.2455 35.9569 85.5819 37.8297 84.3996C39.9862 83.04 41.3934 81.049 41.7139 78.9532C41.6531 78.6052 41.6488 78.1984 41.6451 77.8497ZM19.834 73.7223C19.8911 73.7217 19.9483 73.7211 19.9476 73.663C21.8192 72.3645 23.9782 71.2373 26.7079 70.0459C29.0396 69.0331 31.5432 68.0766 34.0604 68.3986C37.0924 68.7732 39.6877 71.0704 40.4612 73.9682C40.8771 75.4749 41.3526 77.2135 41.0849 78.9018C40.7632 80.8813 39.4113 82.6974 37.4261 84.0552C35.4968 85.2962 33.1608 85.9022 30.9379 86.3908C30.8807 86.3914 30.8242 86.4501 30.7677 86.5089C30.7683 86.567 30.769 86.6251 30.7696 86.6832C31.1185 87.2607 31.2402 87.9568 30.9613 88.5991C30.7396 89.2408 30.1733 89.7118 29.4896 89.8934C28.9196 90.0157 28.3477 89.9636 28.0013 89.6186C27.6555 89.3317 27.5363 88.868 27.5301 88.2868C27.5282 88.1125 27.5835 87.9376 27.5823 87.8213C27.6357 87.472 27.6885 87.0646 27.5699 86.6591C27.5116 86.5434 27.4538 86.4859 27.3396 86.4871C25.7984 86.6198 24.4839 86.5756 23.4532 86.3541C23.3547 82.4611 22.3994 78.5772 20.5908 75.0511C20.4716 74.5874 20.1811 74.1255 19.834 73.7223ZM27.3451 87.0102C27.4047 87.242 27.3507 87.5332 27.2967 87.8244C27.2985 87.9987 27.2432 88.1736 27.2451 88.348C27.2475 88.5804 27.2494 88.7548 27.2513 88.9291C25.712 89.2361 24.0522 88.9631 22.6732 88.2222C21.6977 87.8257 20.777 87.1962 20.1405 86.4474C19.4464 85.6411 18.9795 84.7161 18.5704 83.8486C16.9357 80.5532 15.4736 77.3721 15.6098 74.0578C15.6589 73.3017 15.8254 72.835 16.1656 72.5989C16.4494 72.4215 16.8493 72.4173 17.0778 72.4149C18.3358 72.5177 19.3745 73.4947 20.366 75.4022C22.1739 78.8702 23.1293 82.7541 23.1707 86.6477C23.1719 86.7639 23.2296 86.8214 23.3445 86.8783C24.4324 87.0992 25.804 87.1428 27.3451 87.0102Z" fill="black"/>
    <path d="M34.7599 85.9467C34.7592 85.8886 34.7586 85.8304 34.7009 85.7729C34.586 85.716 34.4718 85.7173 34.4153 85.776C33.626 86.7724 32.5486 87.5394 31.3533 87.9589C31.2397 88.0183 31.1838 88.1351 31.2422 88.2507C31.3005 88.3663 31.4154 88.4232 31.529 88.3639C32.7808 87.8857 33.9153 87.118 34.7611 86.0629C34.7611 86.0629 34.7605 86.0048 34.7599 85.9467Z" fill="black"/>
    <path d="M24.6863 73.6145C24.3442 73.6762 24.0622 74.028 24.1802 74.3754C24.241 74.7235 24.5862 74.9523 24.9284 74.8906C25.2705 74.8288 25.5524 74.4771 25.4345 74.1296C25.3737 73.7816 25.0284 73.5527 24.6863 73.6145Z" fill="black"/>
    <path d="M27.698 82.4719C27.3559 82.5337 27.074 82.8854 27.1919 83.2329C27.2527 83.5809 27.598 83.8097 27.9401 83.748C28.2822 83.6862 28.5642 83.3345 28.4462 82.9871C28.3854 82.639 28.0401 82.4102 27.698 82.4719Z" fill="black"/>
    <path d="M44.576 74.4472C44.5754 74.389 44.5754 74.389 44.576 74.4472C44.5747 74.3309 44.4593 74.2159 44.345 74.2171L41.205 74.4248C41.0907 74.4261 40.9777 74.5435 40.9789 74.6597C40.9802 74.776 41.0956 74.891 41.2099 74.8898L44.3499 74.682C44.4636 74.6227 44.5772 74.5634 44.576 74.4472Z" fill="black"/>
    <path d="M71.8828 84.5634C71.8699 83.343 71.7451 82.3563 71.5632 81.3702C71.2628 79.9785 69.0949 74.887 67.6581 74.0886C67.4283 73.9748 67.257 73.9766 67.0291 74.0371C65.4929 74.6347 64.5807 74.8187 63.953 74.8835C63.2116 75.0076 63.1643 75.938 63.114 76.5779C63.1152 76.6941 63.1164 76.8103 63.0605 76.9272C62.7474 79.7202 62.6075 82.6859 62.5911 86.5219C61.104 86.3634 59.9032 86.2599 58.7023 86.1564C57.4443 86.0535 56.1863 85.9507 54.5849 85.7933C54.4707 85.7945 54.3571 85.8538 54.3583 85.9701C54.3595 86.0863 54.4179 86.2019 54.5321 86.2007C56.1335 86.3581 57.3915 86.4609 58.6495 86.5638C59.9075 86.6667 61.1655 86.7696 62.7668 86.9269C62.824 86.9263 62.8811 86.9257 62.9376 86.867C62.9941 86.8083 62.9935 86.7502 62.9929 86.692C63.008 82.7397 63.1473 79.716 63.4598 76.8648C63.4586 76.7486 63.4573 76.6324 63.5132 76.5155C63.5629 75.8175 63.6139 75.2358 64.0138 75.2316C64.698 75.1081 65.6673 74.9234 67.2035 74.3259C67.2607 74.3253 67.3749 74.3241 67.4327 74.3816C68.6391 75.0081 70.7468 79.8096 71.1062 81.3751C71.3459 82.4187 71.4725 83.5797 71.4308 85.0332C71.3946 87.0096 71.1244 88.4655 70.5096 89.7507C69.7837 91.3276 68.4815 92.4457 67.0571 92.8096C65.5755 93.174 63.9717 92.7842 62.5963 92.392C62.0232 92.2237 61.393 92.0561 60.7057 91.889C56.3518 90.7729 49.7645 89.1573 46.8103 85.3528C46.0572 84.3727 45.7586 83.1554 45.4594 81.8799C45.2794 81.0682 45.1 80.3145 44.7492 79.5627C44.6915 79.5052 44.6337 79.4477 44.5766 79.4483C43.4906 79.4017 42.4052 79.4132 41.377 79.4241C41.2627 79.4254 41.1497 79.5428 41.1509 79.659C41.1522 79.7752 41.2677 79.8903 41.3819 79.889C42.4102 79.8781 43.4384 79.8672 44.4673 79.9144C44.7603 80.6087 44.9397 81.3624 45.0614 82.0585C45.3606 83.334 45.6604 84.6676 46.5284 85.7045C49.598 89.6241 55.9568 91.242 60.6541 92.4126C61.3414 92.5797 61.9717 92.7474 62.5448 92.9156C63.9201 93.3079 65.6388 93.7546 67.234 93.3308C68.7727 92.9657 70.1879 91.7302 70.9697 90.0364C71.5845 88.7512 71.9106 87.1785 71.889 85.1446C71.8871 84.9702 71.8853 84.7959 71.8828 84.5634Z" fill="black"/>
    <path d="M54.7655 64.9241C54.7655 64.9241 54.7649 64.8659 54.7655 64.9241C54.7065 64.7503 54.5916 64.6934 54.4774 64.6946C53.053 65.0585 51.572 65.4811 50.2059 65.9605C48.9541 66.4388 47.6458 66.9758 46.6274 67.9165C44.9303 69.5038 44.4421 71.95 44.124 74.2782C44.1253 74.3944 44.1836 74.51 44.2979 74.5088C44.4121 74.5076 44.5258 74.4482 44.5245 74.332C44.7873 72.1788 45.2762 69.7907 46.9161 68.204C47.878 67.322 49.1292 66.7856 50.3245 66.3661C51.6906 65.8866 53.1144 65.4647 54.5388 65.1008C54.6531 65.0996 54.7667 65.0403 54.7655 64.9241Z" fill="black"/>
    <path d="M67.3705 74.206L67.365 73.6829C67.365 73.6829 67.365 73.6829 67.3643 73.6248C67.2452 73.1611 67.2402 72.6962 67.1782 72.2319C67.1751 71.9414 67.1136 71.5352 66.882 71.247C66.5251 69.9141 65.8266 68.701 64.7879 67.7239C64.7301 67.6664 64.673 67.667 64.6159 67.6677C64.5587 67.6683 64.5016 67.6689 64.4451 67.7276C64.3321 67.845 64.2762 67.9619 64.2781 68.1362C64.0471 67.9062 63.759 67.6768 63.4156 67.6223C63.3585 67.6229 63.2442 67.6241 63.1877 67.6828C63.0747 67.8003 63.0195 67.9752 63.0207 68.0914C62.6748 67.8045 62.3309 67.6919 61.9893 67.8118C61.9322 67.8124 61.8763 67.9292 61.8198 67.988C61.7142 68.8028 62.0644 69.4965 62.4145 70.1902C62.5319 70.4795 62.6486 70.7108 62.7659 71.0001C62.7076 70.8845 62.6498 70.827 62.6486 70.7108C62.4158 70.3064 62.0103 69.7876 61.3807 69.6781C61.2665 69.6793 61.1528 69.7386 61.1541 69.8549C60.9348 70.729 61.1738 71.7145 61.8704 72.7533C62.1026 73.0995 62.392 73.4452 62.6242 73.7914C62.9712 74.1946 63.3189 74.6558 63.5524 75.1183C63.6107 75.2339 63.725 75.2327 63.8386 75.1734C63.9522 75.1141 63.951 74.9978 63.8927 74.8822C63.6015 74.3622 63.2544 73.9591 62.9067 73.4978C62.6745 73.1516 62.3858 72.864 62.1536 72.5178C61.7475 71.9409 61.3378 71.0153 61.4428 70.1424C61.7868 70.255 62.019 70.6012 62.1934 70.89C62.2518 71.0056 62.3101 71.1212 62.3691 71.295C62.5442 71.6418 62.6615 71.9312 62.9503 72.2187C63.008 72.2762 63.1229 72.3331 63.1794 72.2744C63.2365 72.2738 63.2924 72.1569 63.3489 72.0982C63.398 71.3421 63.0478 70.6484 62.7548 69.9541C62.4624 69.3179 62.1706 68.7398 62.2215 68.158C62.5643 68.1544 62.8542 68.5582 63.0281 68.7888C63.608 69.5963 64.0742 70.4632 64.484 71.3887C64.5424 71.5044 64.6572 71.5613 64.7709 71.5019C64.8845 71.4426 64.9404 71.3258 64.882 71.2101C64.6443 70.3409 64.2929 69.5309 63.7707 68.7809C63.5385 68.4347 63.4218 68.2034 63.4771 68.0285C63.7639 68.1417 63.9955 68.4298 64.2265 68.6598C64.6325 69.2367 65.0386 69.8136 65.3881 70.4492C65.4465 70.5648 65.5614 70.6217 65.675 70.5624C65.7886 70.5031 65.8445 70.3862 65.7862 70.2706L64.9126 68.7107C64.8536 68.5369 64.7953 68.4213 64.7369 68.3057C65.6031 69.1683 66.1854 70.2083 66.484 71.4256C66.4846 71.4837 66.4846 71.4837 66.5424 71.5412C66.7156 71.7138 66.7187 72.0043 66.7218 72.2949C66.7267 72.7598 66.7888 73.2241 66.9086 73.7459L66.9141 74.2689C66.9154 74.3851 67.0308 74.5002 67.1451 74.4989C67.2587 74.4396 67.3717 74.3222 67.3705 74.206Z" fill="black"/>
    <path d="M78.6339 85.7688C78.6326 85.6526 78.5172 85.5375 78.4029 85.5388C76.4048 85.6762 74.0061 85.7598 71.8918 85.7242C71.7776 85.7254 71.6646 85.8428 71.6658 85.959C71.667 86.0753 71.7825 86.1903 71.8968 86.1891C74.011 86.2247 76.4097 86.1411 78.465 86.0031C78.5221 86.0025 78.6351 85.885 78.6339 85.7688Z" fill="black"/>
    <path d="M78.8307 82.511C78.8276 82.2204 78.8251 81.988 78.8227 81.7555C78.4883 77.1676 78.0397 72.5809 77.4774 68.0535C77.4761 67.9373 77.3613 67.8804 77.3042 67.881C76.161 67.835 75.1315 67.7297 74.1021 67.6244L74.0474 67.8575L74.0499 68.0899L74.0474 67.8575L74.0499 68.0899C75.0222 68.1958 75.9946 68.3017 77.0806 68.3483C77.6422 72.8176 78.0903 77.3462 78.3669 81.8766C78.4388 83.2707 78.2885 85.2484 78.181 85.8889C78.1822 86.0051 78.2406 86.1207 78.3548 86.1195C78.4691 86.1183 78.5827 86.059 78.5815 85.9427C78.7461 85.3017 78.8449 83.8476 78.8307 82.511Z" fill="black"/>
    <path d="M56.1266 75.4324C56.1266 75.4324 56.126 75.3743 56.1266 75.4324C56.1254 75.3162 56.0676 75.2587 56.0105 75.2593C52.0497 73.4996 48.6043 71.8508 45.5016 70.1982C45.3868 70.1413 45.2731 70.2007 45.2172 70.3175C45.1614 70.4343 45.2197 70.55 45.3346 70.6069C48.3224 72.2025 51.6529 73.7945 55.4989 75.4972C52.037 77.6844 48.7491 80.1023 45.6921 82.7501C45.5784 82.8095 45.5803 82.9838 45.6952 83.0407C45.7535 83.1563 45.9249 83.1545 45.9808 83.0377C49.1514 80.3305 52.5524 77.7952 56.1285 75.6068C56.0707 75.5493 56.1272 75.4905 56.1266 75.4324Z" fill="black"/>
    <path d="M48.7063 76.2068C48.7051 76.0906 48.7038 75.9743 48.6455 75.8587C48.5853 75.5687 48.412 75.3962 48.2394 75.2818C47.7222 74.9967 47.1485 74.7703 46.5754 74.6021C46.3463 74.5464 46.1165 74.4326 45.8321 74.5518C45.6043 74.6124 45.264 74.8485 45.1565 75.4889C44.9919 76.13 44.9993 76.8274 45.1781 77.5229C45.2979 78.0447 45.5301 78.391 45.8741 78.5035C46.4478 78.7299 47.0148 78.3171 47.4116 78.0223L48.0909 77.4338C48.261 77.3158 48.4306 77.1396 48.5423 76.906C48.6541 76.6723 48.7088 76.4392 48.7063 76.2068ZM48.0146 75.6329C48.0724 75.6904 48.1879 75.8054 48.1891 75.9217C48.2487 76.1535 48.2512 76.386 48.1388 76.5615C48.0264 76.7371 47.9133 76.8545 47.7432 76.9726L47.0639 77.561C46.7807 77.7965 46.3274 78.15 45.9257 77.9799C45.6966 77.9242 45.5792 77.6349 45.4613 77.2874C45.3409 76.7075 45.3341 76.0682 45.4421 75.4859C45.4968 75.2528 45.608 74.961 45.8358 74.9005C45.9495 74.8412 46.1786 74.8969 46.2935 74.9538C46.9808 75.1208 47.4974 75.3478 48.0146 75.6329Z" fill="black"/>
    <path d="M52.8556 73.9515C52.8556 73.9515 52.855 73.8934 52.8556 73.9515C52.8538 73.7772 52.7389 73.7203 52.6247 73.7215C51.0276 73.9709 49.4902 74.4522 48.0701 75.2229C47.9564 75.2822 47.9005 75.399 47.9589 75.5146C48.0173 75.6303 48.1321 75.6872 48.2458 75.6278C49.6094 74.9159 51.0897 74.4352 52.6296 74.1864C52.8004 74.1265 52.8569 74.0677 52.8556 73.9515Z" fill="black"/>
    <path d="M52.1521 77.6211C52.1509 77.5049 52.0354 77.3899 51.9212 77.3911C50.6073 77.405 49.3487 77.244 48.0876 76.8506C47.9727 76.7937 47.8591 76.853 47.8032 76.9698C47.7473 77.0867 47.8057 77.2023 47.9205 77.2592C49.1816 77.6526 50.5551 77.8705 51.8683 77.7985C52.0975 77.8542 52.1534 77.7373 52.1521 77.6211Z" fill="black"/>
    <path d="M45.5039 75.3115C45.5033 75.2533 45.5027 75.1952 45.445 75.1377C45.1563 74.8502 44.9241 74.5039 44.6918 74.1577C44.6335 74.0421 44.5192 74.0433 44.4056 74.1026C44.292 74.1619 44.2932 74.2782 44.3516 74.3938C44.5838 74.74 44.8166 75.1444 45.1624 75.4313C45.2208 75.5469 45.3922 75.5451 45.4481 75.4283C45.5052 75.4277 45.5046 75.3696 45.5039 75.3115Z" fill="black"/>
    <path d="M45.6434 78.2733C45.6428 78.2152 45.5844 78.0996 45.5273 78.1002C45.4124 78.0433 45.2988 78.1026 45.2423 78.1613L44.4579 79.6227C44.402 79.7395 44.4604 79.8551 44.5181 79.9126C44.633 79.9695 44.7466 79.9102 44.8032 79.8515L45.5875 78.3901C45.5869 78.332 45.6434 78.2733 45.6434 78.2733Z" fill="black"/>
    <path d="M110.863 70.1438C110.862 70.0276 110.746 69.9126 110.689 69.9132C99.4267 69.2191 88.2854 69.1631 77.4297 69.104C77.3154 69.1052 77.2024 69.2227 77.2036 69.3389C77.2049 69.4551 77.3204 69.5701 77.4346 69.5689C88.176 69.6292 99.3173 69.6852 110.465 70.3805C110.469 70.6711 110.472 71.0198 110.476 71.3684C110.485 72.182 110.437 73.1124 110.445 73.8098C101.299 73.3839 91.7641 73.9501 82.5141 74.4552L81.8857 74.4618C81.8286 74.4625 81.7715 74.4631 81.715 74.5218C81.6585 74.5805 81.6591 74.6386 81.6597 74.6967C81.6622 74.9292 81.6659 75.2779 81.7267 75.6259C81.7937 76.5551 81.8054 77.6593 81.87 78.3561C81.8712 78.4723 81.9861 78.5292 82.0432 78.5286C91.4818 79.6488 101.03 80.303 110.457 80.3772C110.462 80.784 110.467 81.307 110.473 81.8301C110.482 82.7018 110.491 83.5735 110.498 84.2127C108.044 84.4131 105.356 84.2092 102.783 84.0041C101.067 83.8479 99.2953 83.7505 97.5816 83.7687C94.6676 83.7415 91.7001 84.0636 88.9034 84.3258L78.7444 85.3055C78.6301 85.3067 78.5171 85.4242 78.5755 85.5398C78.5767 85.656 78.6922 85.771 78.8058 85.7117L88.9655 84.7901C91.8193 84.5273 94.7302 84.2639 97.6436 84.233C99.3003 84.2154 101.073 84.3709 102.788 84.469C105.475 84.6729 108.22 84.8762 110.731 84.6171C110.845 84.6159 110.901 84.499 110.9 84.4409C110.95 83.743 110.94 82.755 110.93 81.8252C110.924 81.2441 110.917 80.6629 110.912 80.198C110.912 80.1399 110.911 80.0818 110.854 80.0243C110.796 79.9668 110.739 79.9674 110.682 79.968C101.254 79.8938 91.706 79.2396 82.2674 78.1194C82.2028 77.4226 82.1917 76.3766 82.126 75.5636C82.1229 75.273 82.1204 75.0406 82.1179 74.8081L82.5749 74.8032C91.8821 74.2976 101.475 73.7888 110.678 74.2142C110.735 74.2136 110.792 74.213 110.848 74.1542C110.905 74.0955 110.904 74.0374 110.904 73.9793C110.84 73.3407 110.885 72.2359 110.876 71.3642C110.871 70.8993 110.866 70.4344 110.863 70.1438Z" fill="black"/>
    <path d="M114.565 80.1602C114.555 79.1723 114.43 78.1856 114.249 77.2576C114.248 77.1995 114.19 77.142 114.133 77.0845C114.075 77.027 114.018 77.0276 113.961 77.0863C113.279 77.3841 112.886 78.0857 112.606 78.6118C112.158 79.4884 111.824 80.3056 111.776 81.1198C111.49 81.0647 111.204 81.0677 110.862 81.1295C110.748 81.1307 110.635 81.2481 110.693 81.3638C110.694 81.48 110.81 81.595 110.923 81.5357C111.265 81.4739 111.609 81.5284 111.895 81.5835C111.952 81.5829 112.009 81.5823 112.066 81.5235C112.122 81.4648 112.122 81.4067 112.121 81.3486C112.17 80.5925 112.447 79.7178 112.951 78.7825C113.175 78.3733 113.455 77.8472 113.909 77.5518C114.151 78.8279 114.165 80.1645 114.066 81.6185C114.013 81.9678 114.017 82.3165 113.907 82.7245C113.907 82.7826 113.852 82.8994 113.795 82.9582C113.682 83.0756 113.454 83.1361 113.283 83.138C112.769 83.1434 112.311 83.0902 111.796 83.0375C111.51 82.9824 111.167 82.9861 110.824 82.9316C110.71 82.9328 110.596 82.9921 110.597 83.1084C110.598 83.2246 110.657 83.3402 110.771 83.339C111.172 83.3929 111.457 83.3898 111.743 83.4449C112.258 83.4976 112.773 83.5502 113.287 83.5448C113.573 83.5417 113.915 83.48 114.141 83.2451C114.254 83.1277 114.253 83.0114 114.309 82.8946C114.418 82.4866 114.471 82.0792 114.468 81.7305C114.577 81.2644 114.571 80.6832 114.565 80.1602Z" fill="black"/>
    <path d="M114.467 70.918C114.457 69.9301 114.332 68.9434 114.151 68.0154C114.15 67.9573 114.093 67.8998 114.035 67.8423C113.977 67.7848 113.92 67.7854 113.864 67.8441C113.181 68.1419 112.789 68.8436 112.509 69.3696C112.061 70.2462 111.727 71.0634 111.678 71.8776C111.392 71.8225 111.106 71.8255 110.764 71.8873C110.65 71.8885 110.537 72.0059 110.595 72.1216C110.597 72.2378 110.712 72.3528 110.826 72.2935C111.168 72.2317 111.511 72.2862 111.797 72.3413C111.855 72.3407 111.912 72.3401 111.968 72.2813C112.025 72.2226 112.024 72.1645 112.023 72.1064C112.073 71.3503 112.349 70.4756 112.853 69.5403C113.077 69.1311 113.357 68.605 113.811 68.3096C114.053 69.5857 114.068 70.9223 113.969 72.3763C113.915 72.7256 113.919 73.0743 113.809 73.4823C113.81 73.5404 113.754 73.6573 113.697 73.716C113.584 73.8334 113.356 73.894 113.185 73.8958C112.671 73.9012 112.213 73.848 111.699 73.7953C111.412 73.7402 111.07 73.7439 110.726 73.6894C110.612 73.6906 110.498 73.75 110.5 73.8662C110.501 73.9824 110.559 74.098 110.673 74.0968C111.074 74.1507 111.36 74.1476 111.646 74.2027C112.161 74.2554 112.675 74.308 113.189 74.3026C113.475 74.2995 113.817 74.2378 114.043 74.0029C114.156 73.8855 114.155 73.7692 114.211 73.6524C114.321 73.2444 114.374 72.837 114.37 72.4883C114.479 71.9641 114.473 71.4411 114.467 70.918Z" fill="black"/>
    <g opacity="0.1294">
    <path d="M41.364 78.4944C41.3609 78.2038 41.3578 77.9133 41.3541 77.5646C41.3529 77.4484 41.3523 77.3902 41.3511 77.274C41.3504 77.2159 41.2921 77.1003 41.2908 76.9841C41.1139 76.4629 40.937 75.9417 40.8737 75.3611C40.8147 75.1874 40.8694 74.9543 40.9246 74.7794C41.2041 74.1952 42.1765 74.3011 42.3546 74.9386C42.5365 75.9247 42.7755 76.9102 42.786 77.8981C42.7891 78.1887 42.7921 78.4792 42.7381 78.7704C42.7406 79.0029 42.6853 79.1778 42.5158 79.354C41.8942 79.9999 40.9715 79.196 41.364 78.4944Z" fill="black"/>
    </g>
    <g opacity="0.1294">
    <path d="M22.8067 84.559C22.5174 84.2133 22.6869 84.0372 22.5659 83.3991C22.5659 83.3991 22.6255 83.631 22.5671 83.5154C22.4461 82.8773 22.325 82.2393 22.2611 81.6007C22.2555 81.0776 21.654 78.2362 21.1878 77.3693C20.7215 76.5025 20.2559 75.6937 19.8467 74.8263C19.7288 74.4788 19.4395 74.1332 19.4929 73.7839C19.6016 73.2596 20.4001 73.1349 20.6335 73.5974C21.16 74.7542 21.8572 75.8511 22.3843 77.066C22.971 78.5128 23.3869 80.0195 23.5179 81.5873C23.5824 82.2841 23.704 82.9802 23.6537 83.6201C23.6574 83.9688 23.7201 84.4912 23.3221 84.6698C23.2091 84.7872 22.9228 84.7321 22.8067 84.559Z" fill="black"/>
    </g>
    <g opacity="0.1294">
    <path d="M45.2351 82.343C45.2879 81.9356 45.6282 81.6995 45.8536 81.4065C47.8333 79.5257 49.4186 78.1721 51.5739 76.6962C52.0837 76.2839 52.6507 75.8711 53.1611 75.5169C52.8742 75.4037 52.6445 75.2899 52.3576 75.1767C52.2428 75.1198 52.0708 75.0636 51.9547 74.8904C51.5492 74.3717 52.1702 73.6676 52.688 74.0108C53.3201 74.3528 53.3772 74.3522 53.8938 74.5792C54.123 74.6349 54.3527 74.7487 54.5824 74.8625C55.0978 74.9733 55.3914 75.7257 54.8245 76.1386C53.6876 76.6737 52.6679 77.4982 51.5893 78.149C49.8873 79.2714 48.8124 80.2708 47.2271 81.6244C46.9446 81.918 46.6614 82.1535 46.3789 82.4471C46.0963 82.7407 46.3242 82.6802 45.9262 82.8588C45.6424 83.0361 45.2394 82.7498 45.2351 82.343Z" fill="black"/>
    </g>
    <g opacity="0.1294">
    <path d="M63.8356 75.2884C63.147 75.0051 63.3638 73.8985 64.107 73.9487C64.6212 73.9433 65.3619 73.761 66.2163 73.5195C66.7274 73.2235 67.3601 73.6236 67.1949 74.2065C67.1408 74.4977 66.7999 74.6757 66.5156 74.7949C66.2312 74.9142 65.3774 75.2139 64.636 75.338C64.4069 75.2823 64.1225 75.4016 63.8356 75.2884Z" fill="black"/>
    </g>
    <g opacity="0.1294">
    <path d="M66.0338 93.3994C65.6898 93.2868 65.5141 92.8818 65.6818 92.5313C65.8501 92.2389 66.2493 92.1766 66.5337 92.0573C66.5908 92.0567 66.6474 91.998 66.7616 91.9968C66.8181 91.9381 66.9317 91.8787 67.1019 91.7607C67.385 91.5252 67.9514 91.0542 68.4587 90.4095C69.1921 89.5299 69.5311 89.1776 69.9758 88.0105C70.3099 87.1933 70.7993 84.8633 70.7366 84.3409C70.7802 83.0618 70.602 82.4243 70.4785 81.5538C70.2377 80.394 69.7124 79.3534 69.3008 78.2535C69.1829 77.906 68.9507 77.5598 69.0041 77.2105C69.055 76.6288 69.9113 76.5615 70.0317 77.1415C70.4452 78.4157 71.0288 79.5719 71.3851 80.8468C71.5645 81.6004 71.5725 82.3559 71.6942 83.052C71.8171 83.8644 71.7115 84.6792 71.663 85.4934C71.5599 86.5407 71.4002 87.6466 70.9537 88.6394C70.8413 88.815 70.7866 89.048 70.6742 89.2236C70.7891 89.2805 70.8475 89.3961 70.8487 89.5123C70.9089 89.8023 70.74 90.0366 70.6282 90.2702C70.4047 90.7376 70.1234 91.1474 69.7843 91.4997C69.105 92.0881 68.253 92.5621 67.3999 92.9199C67.2862 92.9793 67.1726 93.0386 67.059 93.0979C66.7181 93.2759 66.3772 93.4539 66.0338 93.3994Z" fill="black"/>
    </g>
    <g opacity="0.1294">
    <path d="M78.2252 84.7855C78.1091 84.6124 78.1067 84.38 78.1619 84.205C78.2694 83.5645 78.2147 83.7976 78.2651 83.1578C78.4173 81.3544 78.2839 79.5541 78.0934 77.7544C77.9613 76.0703 77.772 74.3869 77.6392 72.6447C77.5722 71.7155 77.4555 71.4842 77.2724 70.3819C77.2128 70.1501 77.0967 69.9769 77.1514 69.7439C77.1998 68.9297 78.3989 68.8588 78.5783 69.6125C78.816 70.4817 78.9973 71.4097 79.1208 72.2802C79.3076 73.7312 79.2665 75.2428 79.3962 76.6944C79.4694 78.2048 79.6003 79.7726 79.5592 81.2842C79.461 82.7963 79.4057 82.9713 79.3081 84.5416C79.2572 85.1233 78.5158 85.2474 78.2252 84.7855Z" fill="black"/>
    </g>
    <path d="M20.1534 76.6802C19.689 75.9877 19.1104 75.2964 18.4764 74.7801C17.7848 74.2062 16.9807 73.8079 16.2368 73.6996C16.1797 73.7002 16.1797 73.7002 16.1803 73.7583C16.1815 73.8745 16.2387 73.8739 16.2958 73.8733C17.0397 73.9817 17.786 74.3225 18.4205 74.8969C19.0545 75.4133 19.576 76.1052 20.0398 76.7396C20.0404 76.7977 20.0975 76.7971 20.1541 76.7383C20.1541 76.7383 20.1541 76.7383 20.1534 76.6802Z" fill="black"/>
    <path d="M21.0321 79.4052C21.0315 79.3471 21.0315 79.3471 21.0321 79.4052C20.2176 78.019 19.0062 76.9276 17.5713 76.3035C17.5142 76.3041 17.5142 76.3041 17.4576 76.3628C17.4583 76.4209 17.4583 76.4209 17.516 76.4784C18.8938 77.1031 20.1052 78.1945 20.8614 79.4651C20.862 79.5232 20.9191 79.5226 20.9756 79.4639C21.0321 79.4052 21.0321 79.4052 21.0321 79.4052Z" fill="black"/>
    <path d="M21.4034 81.5547C20.8216 80.5728 20.0697 79.709 19.206 79.0789C19.1489 79.0795 19.1489 79.0795 19.0918 79.0801C19.0924 79.1382 19.0924 79.1382 19.093 79.1963C19.9567 79.8265 20.708 80.6322 21.232 81.5565C21.2326 81.6146 21.2897 81.614 21.3462 81.5553C21.404 81.6128 21.4034 81.5547 21.4034 81.5547Z" fill="black"/>
    <path d="M54.5755 94.1307C52.0462 94.1307 52.2271 62.1742 48.9375 66.4056C47.5265 59.8247 116.126 63.1558 120.151 63.2584C151.383 64.0544 152.026 85.199 150.443 94.1307C127.972 94.9733 62.0946 94.1307 54.5755 94.1307Z" fill="white" stroke="black" stroke-width="0.5" stroke-linecap="round"/>
    <path d="M57.8613 70.1647C57.8613 70.6346 60.681 90.3721 59.2712 91.782M60.211 76.7439C60.8376 81.13 61.9028 90.2782 61.1509 91.782M92.637 64.5254C93.2636 72.3577 94.3288 88.4924 93.5769 90.3721M95.4566 69.6947C95.9266 74.3942 96.7725 84.5449 96.3965 87.5525M98.2763 73.4543C98.5896 78.6236 99.0282 89.2443 98.2763 90.3721M116.134 66.4052C116.447 73.4543 116.792 87.8345 115.664 88.9623" stroke="black" stroke-width="0.2" stroke-linecap="round"/>
    </svg>
    