<svg viewBox="0 0 145 145" fill="none" xmlns="http://www.w3.org/2000/svg">
    <rect width="145" height="145" fill="transparent"/>
    <path d="M10.5 91C33.1183 90.4345 128.161 90.321 138 90.9995C138 95.6648 10.5 98.2094 10.5 91Z" fill="white"/>
    <path d="M9 100.468C31.6183 99.9023 126.661 99.7888 136.5 100.467C136.5 105.133 9 107.677 9 100.468Z" fill="white"/>
    <path d="M8.71767 70C9.05896 81.1761 9.12749 128.138 8.71794 133C5.90217 133 4.36633 70 8.71767 70Z" fill="white"/>
    <path d="M141.812 98C142.039 104.032 142.085 129.376 141.812 132C139.935 132 138.911 98 141.812 98Z" fill="white"/>
    <path d="M139 100.499V110.499V132.5C139.333 133.166 140.4 134.399 142 134C142 131.2 142 109.167 142 98.5C141.167 98.1662 139.4 98.0987 139 100.499ZM139 100.499C138.669 100.494 138.336 100.489 138 100.484M9 100.499C9 103.7 9 123.166 9 132.5C8.16667 133.5 6 135.2 4 134C4 131.2 4 90.4996 4 70.4996M9 100.499V94.5M9 100.499C12.1748 98.9119 95.6697 99.8181 138 100.484M4 70.4996C4 69.4996 5 67.7996 9 68.9996M4 70.4996C5.33333 70.6664 8.2 70.5999 9 68.9996M9 68.9996V94.5M9 94.5C8.66667 93.1667 9.2 90.6 14 91C19.1966 91.4331 105.407 89.2406 131 90.27M138 100.484C139.333 98.1557 141.2 93 138 91C137.464 90.6653 134.957 90.4291 131 90.27M38.5 79C40.5 80.6 34.5 83 33.5 85.5C36 89.5 39.1 91.3807 53.5 90.5807C53.8333 88.914 54.2 84.5 53 84.5C52.345 84.5 51.118 84.5 49.7769 84.3751M38.5 79C39.5 77.3333 43.3 74.5 50.5 76.5M38.5 79C37.1667 79.5 34.4 80.1 34 78.5C35 76.5 35.5 74.5 34 73.5C32.8 72.7 32.5 73.5 31.5 74C31.8333 73.3333 32.3 72 31.5 72C31 71 30.5 70 30 70.5C29.6 70.9 28.1667 71 27.5 71C26.6667 70.5 24.8 69.6 24 70C23.8732 70.2536 23.8107 70.5072 23.7799 70.7444M45 83C46.1267 83.845 48.0467 84.214 49.7769 84.3751M50.5 76.5C50 79.5 49.0537 84.3182 49.7769 84.3751M50.5 76.5C50.5 74.0707 68.533 73.6086 81.5 77.2377M89.5 80.5C87.3125 79.1685 84.546 78.0902 81.5 77.2377M81.5 77.2377C91.8333 79.0792 114.6 82.2098 123 80C127.5 76.5 128 75.5 132 78.5C136 81.5 133.5 90.3926 131 90.27M23.7799 70.7444V70.7444C23.6811 71.5062 23.5031 72.6223 23.4927 73.3904C23.4702 75.0597 23.378 77.2441 23 78C23.8 78.4 24.6667 78.8333 25 79C24.8333 80.1667 26.5 82 28.5 80C31 82 32 84 31 84C30 84 19 86 18 82.5C17 79 13.5 70.5 20.5 68C22.9 68 23.6866 69.8296 23.7799 70.7444Z" stroke="black" strokeLinecap="round"/>
    <path d="M77.4998 88.7886C78.7105 89.0569 79.7865 89.2133 79.9998 89C80.4998 88.5 78.4998 87.5005 75.9998 86.5005C73.9998 85.7005 60.4998 85.8338 53.9998 86.0005V88.7886H77.4998ZM77.4998 88.7886C76.4403 88.5538 75.2777 88.2334 74.4998 88L77.4998 88.7886ZM25.4998 72C25.1665 72.3333 24.5998 73.3 24.9998 74.5M27 73L26.4999 73.5M8.99957 88C24.4995 89.5 23.9999 87.5 29.4999 90.5M8.99957 88C8.66624 86.3333 9.69992 83.9 14.4999 83.5C16 82 16 82.5 17.5 81M8.99957 88C10.4996 89.1667 17.0999 92.1 29.4999 90.5M29.4999 90.5C30.8333 90.8332 34.0999 90.9996 36.4999 89" stroke="black" strokeLinecap="round"/>
    <path d="M129 37.2823C131.484 36.941 141.92 36.8725 143 37.2821C143 40.0978 129 41.6337 129 37.2823Z" fill="white"/>
    <path d="M116.718 12C117.059 14.4836 117.127 24.9196 116.718 26C113.902 26 112.366 12 116.718 12Z" fill="white"/>
    <path d="M133 28.604H140.539M125.245 41V49.0693M116.618 12H127.598V25.5149H142.5V36.7129H128.382V51H117.402V36.7129H102.5V27.0594H116.618V12Z" stroke="black" strokeLinecap="round"/>
    </svg>
    