<svg xmlns="http://www.w3.org/2000/svg" width="250" viewBox="0 0 348 347" fill="none">
    <g filter="url(#filter0_d_544_10249)">
    <path d="M326.072 138.767C324.246 123.876 319.721 109.442 312.717 96.1747C302.349 76.6364 287.433 59.8786 269.228 47.3154C240.172 26.8636 207.625 16.9907 172.254 16.0367C161.749 15.8157 151.247 16.5919 140.889 18.3548C122.493 21.3173 104.791 27.6112 88.6534 36.9274C64.3478 51.0357 45.7275 70.5336 33.6796 96.0698C24.4267 115.549 20.5252 136.229 20.9258 160.277C21.0609 174.843 22.2404 189.379 24.4553 203.776C26.4559 217.322 29.648 230.664 33.9944 243.649C39.2027 258.912 46.1186 273.316 56.0679 286.127C66.0171 298.938 78.3989 309.097 93.6328 315.316C109.353 321.736 125.741 323.253 142.521 321.66C152.404 320.681 162.177 318.804 171.72 316.051C190.556 310.61 208.62 302.785 225.473 292.766C252.354 276.988 276.078 257.471 295.547 232.994C305.303 220.954 313.253 207.557 319.147 193.225C326.338 176.033 328.735 157.213 326.081 138.767H326.072Z" fill="white"/>
    </g>
    <path d="M91.0146 195V103.949C117.114 103.476 165.769 102.6 166.123 105.046C166.672 108.838 166.477 183.308 167.186 195C163.785 193.583 114.988 194.409 91.0146 195Z" fill="white"/>
    <path d="M120.42 132.291L151.952 131.228M120.42 149.297H151.952M120.42 166.303H151.952M107.312 145.046L110.146 149.297L113.689 142.566M107.312 127.331L110.146 131.228L113.689 124.851M105.895 162.76L108.729 166.303L112.272 160.28M91.0146 103.949V195C114.988 194.409 163.785 193.583 167.186 195C166.477 183.308 166.672 108.838 166.123 105.046C165.769 102.6 117.114 103.476 91.0146 103.949ZM97.3918 109.971H159.037C158.683 134.653 159.037 184.051 159.037 187.56C126.443 187.56 99.8718 187.56 99.1632 187.56C98.5964 187.56 97.7461 135.834 97.3918 109.971Z" stroke="black" strokeWidth="1.5"/>
    <path d="M118.649 113.903C116.949 114.186 113.7 113.023 112.283 112.196C112.047 114.204 115.401 118.006 130.706 117.156C149.838 116.093 147.358 110.779 147.358 111.488C147.358 112.054 141.914 113.194 139.552 113.903C133.057 113.785 120.35 113.619 118.649 113.903Z" fill="#D9D9D9"/>
    <path d="M123.295 103.283H109.478C108.911 112.069 114.438 114.265 117.272 114.265H141.009C148.095 114.265 149.394 106.944 149.158 103.283H136.049C136.522 99.9759 135.908 93.2918 129.672 93.0083C123.437 92.7249 122.823 99.7398 123.295 103.283Z" fill="#BEE8FF" stroke="black" strokeWidth="1.5"/>
    <path d="M159.038 188.069C139.53 188.211 100.181 187.482 98.8438 188.504C97.1717 189.782 156.53 191.477 159.038 188.069Z" fill="#D9D9D9"/>
    <path d="M194.133 219.905C194.133 225.49 174.146 223.539 166.878 222.086L167.471 178.202L168.544 152.447L169.617 134.74L170.691 126.691L171.227 122.935L171.764 120.252L172.329 122.877L184.321 132.689L196.313 121.787L196.983 132.057L196.313 163.715L194.133 206.823V219.905Z" fill="#BEE8FF" stroke="black" strokeWidth="1.5"/>
    <path d="M191.199 114.29C195.56 114.29 204.161 126.365 205.033 140.319" stroke="black" strokeWidth="1.5"/>
    <path d="M90.562 126.147C93.1784 126.147 95.2862 129.054 96.013 130.508L101.164 138.583L96.7304 143.016L91.6532 146.861C91.6532 146.094 89.5345 144.734 88.195 144.027C87.6494 143.866 86.885 143.635 86.5549 143.522C84.9928 143.345 80.109 141.693 75.3 140.319C74.2098 140.008 67.6685 139.229 68.7588 137.049L78.5705 138.139L69.8489 134.868C67.6691 133.778 67.6696 132.688 68.7588 132.688L78.5695 134.868L70.9381 131.598C69.8479 131.234 67.6675 130.071 67.6675 128.327C67.6675 126.583 68.7598 127.237 69.849 128.327L80.7499 131.598C78.2061 130.144 73.1185 128.327 72.0283 127.237C71.4116 126.62 70.9392 126.147 70.9381 125.057C70.9372 124.119 72.2463 124.184 73.1185 125.057C75.9571 127.895 86.1868 129.091 88.1269 129.358C86.8563 128.832 84.0216 124.981 84.0216 123.966V123.962C84.0216 122.423 84.0216 121.786 85.1109 121.786C86.2011 121.786 88.3815 123.966 90.562 126.147Z" fill="white"/>
    <path d="M86.7923 143.537C85.5589 143.537 80.3876 141.773 75.3 140.319C74.2098 140.008 67.6685 139.229 68.7588 137.049L78.5705 138.139L69.8489 134.868C67.6691 133.778 67.6696 132.688 68.7588 132.688L78.5695 134.868L70.9381 131.598C69.8479 131.234 67.6675 130.071 67.6675 128.327C67.6675 126.583 68.7598 127.237 69.849 128.327L80.7499 131.598C78.2061 130.144 73.1185 128.327 72.0283 127.237C71.4116 126.62 70.9392 126.147 70.9381 125.057C70.9372 124.119 72.2463 124.184 73.1185 125.057C76.3891 128.327 89.4716 129.417 88.3814 129.417C87.2912 129.417 84.0216 125.057 84.0216 123.966C84.0216 122.425 84.0207 121.786 85.1109 121.786C86.2011 121.786 88.3815 123.966 90.562 126.147C93.1784 126.147 95.2862 129.054 96.013 130.508L101.164 138.583L96.7304 143.016L91.6532 146.861C91.6532 146.094 89.5345 144.734 88.195 144.027M86.7923 143.537C87.1156 143.537 87.6305 143.729 88.195 144.027M86.7923 143.537C85.6414 143.258 87.2479 143.747 88.195 144.027" stroke="black" strokeWidth="1.5"/>
    <path d="M195.909 119.714C197.519 129.373 196.446 152.428 196.446 153.519" stroke="black" strokeWidth="1.5"/>
    <path d="M177.779 102.162C179.233 103.252 182.794 104.561 185.411 101.072" stroke="black" strokeWidth="1.5"/>
    <path d="M170.148 81.4489C170.875 81.0855 173.419 80.3585 174.509 81.4522" stroke="black" strokeWidth="1.5"/>
    <path d="M169.057 74.9067C167.604 87.9892 168.403 113.718 183.23 111.974C193.042 110.819 195.223 101.072 196.313 95.6206C201.764 96.7108 203.944 89.0794 200.674 87.9892C198.057 87.117 197.403 89.8062 197.403 91.2598M179.96 86.899C181.05 91.2598 172.328 96.7108 179.96 97.8011M187.591 81.448C188.318 80.7212 189.772 80.3578 191.952 81.448" stroke="black" strokeWidth="1.5"/>
    <path d="M166.877 157.762C166.877 160.772 164.436 163.213 161.426 163.213C158.415 163.213 155.975 160.772 155.975 157.762C155.975 154.751 157.325 153.401 160.335 153.401C163.346 153.401 166.877 154.751 166.877 157.762Z" fill="black"/>
    <path d="M199.665 153.519C199.302 149.885 199.802 141.192 205.035 140.32C211.576 139.229 213.756 156.673 210.486 157.763" stroke="black" strokeWidth="1.5" strokeLinecap="round"/>
    <path d="M195.372 278.541C194.84 278.275 194.835 220.591 194.835 220.591C194.835 220.591 173.938 222.566 166.67 221.112V245.273V280.665L162.104 281.224H157.812L149.227 279.614V289.796H179.752C180.116 278.53 181.061 255.127 181.933 251.639C185.421 250.767 189.201 276.713 190.654 289.796L214.639 289.388C215.729 279.576 204.094 282.902 195.372 278.541Z" fill="black"/>
    <path d="M168.336 85.6384C165.653 81.8824 163.617 73.5253 164.489 73.5253C165.58 73.5253 155.767 71.3445 160.129 60.4428C162.999 53.2697 166.67 54.9918 167.76 54.9918C168.85 52.812 172.121 48.6705 176.482 49.5427C180.843 50.4148 182.66 54.994 183.023 57.1745C184.84 56.4477 188.91 55.2121 190.654 56.0843C192.835 57.1745 196.105 59.3549 196.105 62.6255C196.105 65.242 198.384 61.4528 200.201 58.5456C199.845 59.9682 199.275 61.3283 198.51 62.5792L197.815 63.7157L200.201 62.3016C199.665 62.8382 199.665 62.8382 199.376 63.7157C199.036 64.7514 203.737 65.8961 203.737 70.257C203.737 74.6178 201.556 87.7003 200.466 87.7003C199.438 87.7003 197.067 89.6684 196.799 90.807C196.784 91.0803 196.775 91.1646 196.775 91.0041C196.775 90.9419 196.783 90.876 196.799 90.807C196.889 89.2239 197.196 81.2975 197.196 77.8884C194.652 77.525 189.564 75.49 189.564 70.257C188.474 71.3472 177.594 78.1627 168.873 75.9801C168.639 75.9216 168.912 82.5398 168.336 85.6384Z" fill="black"/>
    <path d="M194.132 206.822L195.222 278.775C200.31 280.956 213.319 284.008 224.658 278.775L218.116 199.19" stroke="black" strokeWidth="1.5"/>
    <path d="M175.599 85.8094C175.599 86.4115 175.111 86.8996 174.509 86.8996C173.907 86.8996 173.419 86.4115 173.419 85.8094C173.419 85.2073 173.907 84.7192 174.509 84.7192C175.111 84.7192 175.599 85.2073 175.599 85.8094Z" fill="black"/>
    <path d="M188.681 85.8094C188.681 86.4115 188.193 86.8996 187.591 86.8996C186.989 86.8996 186.501 86.4115 186.501 85.8094C186.501 85.2073 186.989 84.7192 187.591 84.7192C188.193 84.7192 188.681 85.2073 188.681 85.8094Z" fill="black"/>
    <path d="M205.035 152.312L169.058 161.034L183.231 210.093L218.117 199.191L211.576 176.297L205.035 152.312Z" fill="white" stroke="black" strokeWidth="1.5"/>
    <path d="M222.044 175.816C224.087 175.884 225.952 175.956 227.495 176.023L222.044 175.816C219.995 175.749 217.766 175.686 215.503 175.637C207.805 175.472 199.718 175.473 196.97 176.023C197.768 177.021 198.277 178.342 198.57 179.842C199.312 183.645 198.668 188.601 197.826 192.376C197.099 192.012 194.571 191.504 193.699 192.376C192.609 193.466 182.797 197.827 178.437 194.556C177.799 194.078 178.676 192.745 179.62 192.347C178.129 192.264 176.256 191.986 176.256 191.286V191.285C176.256 190.195 176.256 190.195 178.436 189.105C180.617 188.015 174.076 190.195 174.076 188.015C174.076 186.271 176.256 186.198 177.346 185.834C175.529 186.198 171.895 185.398 171.895 183.654C171.895 181.91 180.98 180.747 184.978 180.383C182.798 180.02 177.565 180.165 178.437 179.293C179.527 178.203 184.977 176.023 192.609 179.293C196.97 179.293 198.4 179.659 198.57 179.842C198.277 178.342 197.768 177.021 196.97 176.023C199.718 175.473 207.805 175.472 215.503 175.637L216.741 161.006C219.312 165.32 223.756 173.943 222.044 175.816Z" fill="white"/>
    <path d="M168.624 120.422C169.844 120.558 170.879 120.496 171.755 120.28C166.529 138.665 166.081 234.917 166.444 280.682C161.211 283.299 146.821 278.502 139.189 278.502L146.821 196.737V169.616C144.64 174.704 138.317 186.489 126.107 193.466C113.896 200.443 99.9414 175.296 94.4902 161.85C92.3098 156.399 85.5506 147.677 89.0392 147.677C92.5278 147.677 99.2144 141.136 102.122 137.865L125.016 172.752L121.745 166.211C125.743 159.306 134.61 144.189 138.098 138.956C142.459 132.414 158.812 119.332 168.624 120.422Z" fill="white"/>
    <path d="M199.307 195.849L196.97 195.647C198.091 192.003 199.558 184.902 198.57 179.842M222.044 175.816C224.087 175.884 225.952 175.956 227.495 176.023L222.044 175.816ZM222.044 175.816C223.789 173.907 219.137 164.983 216.593 160.76M222.044 175.816C219.995 175.749 217.766 175.686 215.503 175.637M217.684 149.858L215.503 175.637M215.503 175.637C207.805 175.472 199.718 175.473 196.97 176.023C197.768 177.021 198.277 178.342 198.57 179.842M197.826 192.376C197.099 192.012 194.571 191.504 193.699 192.376C192.609 193.466 182.797 197.827 178.437 194.556C177.565 193.902 179.526 191.649 180.617 192.376C179.163 192.376 176.256 192.158 176.256 191.286C176.256 190.195 176.256 190.195 178.436 189.105C180.617 188.015 174.076 190.195 174.076 188.015C174.076 186.271 176.256 186.198 177.346 185.834C175.529 186.198 171.895 185.398 171.895 183.654C171.895 181.91 180.98 180.747 184.978 180.383C182.798 180.02 177.565 180.165 178.437 179.293C179.527 178.203 184.977 176.023 192.609 179.293C196.97 179.293 198.4 179.659 198.57 179.842M175.936 109.997C176.663 113.994 176.474 121.294 168.624 120.422C158.812 119.332 142.459 132.414 138.098 138.956C134.61 144.189 125.743 159.306 121.745 166.211L125.016 172.752L102.122 137.865C99.2144 141.136 92.5278 147.677 89.0392 147.677C85.5506 147.677 92.3098 156.399 94.4902 161.85C99.9414 175.296 113.896 200.443 126.107 193.466C138.317 186.489 144.64 174.704 146.821 169.616V157.489V196.737L139.189 278.502C146.821 278.502 161.211 283.299 166.444 280.682C166.081 234.894 166.53 138.567 171.763 120.252" stroke="black" strokeWidth="1.5" strokeLinecap="round"/>
    <path d="M190.722 108.566C189.632 112.927 191.537 119.563 201.764 121.786C226.839 127.237 233.38 144.68 245.373 169.755C250.823 183.928 250.996 206.71 196.922 195.372" stroke="black" strokeWidth="1.5" strokeLinecap="round"/>
    <path d="M160.337 153.402C159.974 142.5 162.518 119.824 175.6 116.335" stroke="black" strokeWidth="1.5"/>
    <path d="M207.71 281.348L212.543 281.759L214.847 281.348L214.69 289.272H210.397L207.71 281.348Z" fill="black"/>
    <path d="M163.178 155.666C163.178 157.444 160.664 158.886 158.886 158.886C157.108 158.886 156.739 157.444 156.739 155.666C156.739 153.888 158.181 152.447 159.959 152.447C161.737 152.447 163.178 153.888 163.178 155.666Z" fill="black"/>
    <defs>
    <filter id="filter0_d_544_10249" x="0.897949" y="0" width="346.234" height="346.245" filterUnits="userSpaceOnUse" color-interpolation-filters="sRGB">
    <feFlood flood-opacity="0" result="BackgroundImageFix"/>
    <feColorMatrix in="SourceAlpha" type="matrix" values="0 0 0 0 0 0 0 0 0 0 0 0 0 0 0 0 0 0 127 0" result="hardAlpha"/>
    <feOffset dy="4"/>
    <feGaussianBlur stdDeviation="10"/>
    <feComposite in2="hardAlpha" operator="out"/>
    <feColorMatrix type="matrix" values="0 0 0 0 0.5875 0 0 0 0 0.5875 0 0 0 0 0.5875 0 0 0 0.25 0"/>
    <feBlend mode="normal" in2="BackgroundImageFix" result="effect1_dropShadow_544_10249"/>
    <feBlend mode="normal" in="SourceGraphic" in2="effect1_dropShadow_544_10249" result="shape"/>
    </filter>
    </defs>
    </svg>