<svg width="152" height="116" viewBox="0 0 152 116" fill="none" xmlns="http://www.w3.org/2000/svg">
<path d="M135.089 1H126.316V12.3623H114.725V20.6538H126.316V32.0161H135.089V20.6538H146.681V12.3623H135.089V1Z" fill="#BEE8FF" stroke="black" stroke-width="0.5" stroke-linecap="round"/>
<path d="M1.07328 43.3566C0.13171 41.0065 8.59151 40.5369 7.65246 43.3566V113.378C5.39733 116.009 2.3267 114.788 1.07328 113.848V43.3566Z" fill="white"/>
<path d="M1.07328 43.3566C2.32646 44.2964 5.39674 45.6123 7.65246 43.3566M1.07328 43.3566C0.13171 41.0065 8.59151 40.5369 7.65246 43.3566M1.07328 43.3566V113.848C2.3267 114.788 5.39733 116.009 7.65246 113.378C7.65246 109.994 7.65246 65.2871 7.65246 43.3566" stroke="black" stroke-width="0.5" stroke-linecap="round"/>
<path d="M143.937 73.5467C143.016 72.1953 151.292 71.9253 150.373 73.5467V113.811C148.167 115.324 145.163 114.622 143.937 114.081V73.5467Z" fill="white"/>
<path d="M143.937 73.5467C145.163 74.0871 148.166 74.8438 150.373 73.5467M143.937 73.5467C143.016 72.1953 151.292 71.9253 150.373 73.5467M143.937 73.5467V114.081C145.163 114.622 148.167 115.324 150.373 113.811C150.373 111.865 150.373 86.1574 150.373 73.5467" stroke="black" stroke-width="0.5" stroke-linecap="round"/>
<path d="M7.57858 66.3216C7.57858 66.3216 7.65171 75.9395 7.65171 77.1926H148.164C151.382 77.1926 150.984 73.9323 150.984 70.1435C150.984 65.3817 148.007 66.0707 146.754 65.9141C103.206 66.0707 4.19501 66.3216 7.57858 66.3216Z" fill="white" stroke="black" stroke-width="0.5" stroke-linecap="round"/>
<path d="M45.5831 65.9789C46.0039 67.9505 47.45 69.6206 49.1189 70.7653C50.7879 71.91 52.7376 72.5867 54.6301 73.2641C56.1787 73.8288 57.7844 74.393 59.3329 74.9577C60.9927 75.2307 62.7101 75.5612 64.3698 75.8341C65.5142 75.9964 66.6592 76.2167 67.7415 75.9146C68.8238 75.6125 69.7856 74.7305 70.175 73.7383C71.1891 72.3908 71.6847 70.6419 71.5525 68.9578C73.8394 69.1079 76.1816 69.083 78.3486 68.7113C78.8004 62.8364 77.9383 56.9754 76.962 51.1157C75.989 50.9516 75.0166 50.8457 73.9877 50.7985C73.3896 53.6528 72.9629 56.5052 72.6516 59.4726C71.1005 58.6754 69.5495 57.8782 67.9985 57.081C67.9408 57.0235 67.8265 57.0247 67.7694 57.0253C67.6551 57.0265 67.5415 57.0858 67.4279 57.1452C66.3499 57.854 65.0403 58.2748 63.6693 58.2893C62.7399 56.8462 61.8676 55.4025 61.0511 53.8419C58.8115 52.7614 56.629 51.6803 54.4453 50.483C54.4361 49.6113 54.4839 48.739 54.8168 47.8055C52.5373 48.3528 50.3181 49.1901 48.2733 50.3161C47.5915 50.672 46.9668 51.0274 46.4017 51.6146C45.8932 52.1431 45.4436 52.8453 45.3951 53.6595C48.7834 55.309 52.1717 56.9585 55.5606 58.6661C52.0982 60.7952 48.7549 63.388 45.5831 65.9789Z" fill="#BEE8FF"/>
<path d="M110.769 66.2757C111.627 66.3828 112.428 66.4325 113.285 66.4233C113.456 66.4215 113.627 66.4197 113.741 66.3604C114.139 66.1818 114.191 65.6582 114.186 65.2514C114.176 64.2634 114.223 63.2749 114.212 62.287C114.205 61.6477 114.256 61.0079 114.135 60.3698C113.453 60.7839 112.946 61.4286 112.668 62.129C112.332 62.83 112.17 63.6454 112.064 64.4021C111.607 64.407 111.207 64.4112 110.75 64.4161C110.756 64.9972 110.763 65.6365 110.769 66.2757Z" fill="#BEE8FF"/>
<path d="M110.676 56.9798C111.534 57.0869 112.334 57.1366 113.191 57.1275C113.362 57.1256 113.534 57.1238 113.647 57.0645C114.045 56.8859 114.097 56.3623 114.093 55.9555C114.082 54.9675 114.129 53.979 114.118 52.9911C114.112 52.3518 114.162 51.712 114.041 51.0739C113.36 51.488 112.852 52.1327 112.574 52.8331C112.239 53.5341 112.076 54.3495 111.97 55.1062C111.513 55.1111 111.113 55.1153 110.656 55.1202C110.663 55.7594 110.669 56.3987 110.676 56.9798Z" fill="#BEE8FF"/>
<path d="M77.4833 52.3889C88.5626 51.9807 99.6498 52.3279 110.63 53.3736C110.643 54.594 110.598 55.7569 110.669 56.9767C101.122 56.4387 91.5272 56.7731 81.7705 57.981C82.2957 59.0216 81.6809 60.3068 82.2055 61.2892C89.8696 62.0796 97.4765 62.8707 105.134 63.0799C107.02 63.0599 108.906 63.1561 110.678 63.2535C110.75 64.6476 110.708 66.1011 110.494 67.4401C108.214 67.9293 105.869 67.6636 103.581 67.4554C95.2894 66.7298 86.8956 67.1677 78.5683 68.4766C78.7199 66.6152 78.7002 64.7556 78.4519 62.8984C78.3296 62.1441 78.208 61.4479 78.1434 60.7512C77.7698 57.8492 78.1389 54.9392 77.4833 52.3889Z" fill="white"/>
<path d="M67.2006 57.384C67.2337 55.117 66.4099 52.8591 64.7925 51.1908C64.7372 51.3657 64.4516 51.3687 64.2796 51.3124C64.1076 51.2561 63.9343 51.0836 63.763 51.0854C63.5916 51.0873 63.3656 51.3221 63.481 51.4372C63.1948 51.3821 62.8508 51.2695 62.5646 51.2144C62.4497 51.1575 62.3354 51.1587 62.2218 51.2181C62.1082 51.2774 62.1094 51.3936 62.1113 51.568C62.1242 52.7883 63.2207 53.8228 63.1759 54.9857C62.8872 54.6982 62.7115 54.2932 62.5364 53.9464C62.3614 53.5995 62.0714 53.1957 61.6709 53.1419C61.6138 53.1425 61.5567 53.1431 61.4424 53.1443C61.3288 53.2036 61.33 53.3198 61.3884 53.4355C61.5783 55.177 62.6791 56.6184 63.7787 57.9434C63.8364 58.0009 63.8364 58.0009 63.8942 58.0585C63.9513 58.0578 64.0084 58.0572 64.0655 58.0566C65.2074 57.9864 66.2903 57.7424 67.2006 57.384Z" fill="white"/>
<path d="M55.7848 58.3774C52.173 57.1953 49.1741 54.5536 45.2195 53.3751C44.8325 54.5997 44.5599 55.8231 44.4611 57.2772C43.3204 57.4637 42.1791 57.592 40.7479 57.3166C40.1563 55.4049 39.166 53.6137 37.5542 52.4685C35.9423 51.3232 33.8815 50.9382 31.8839 51.1338C29.9435 51.3288 28.0658 52.0462 26.2464 52.8792C23.9725 53.9495 21.8147 55.1929 19.6575 56.4945C21.3419 59.092 23.0853 61.8632 23.3459 64.8827C23.3613 66.3355 23.4339 67.7877 23.5642 69.2975C23.5654 69.4137 23.5673 69.588 23.6822 69.6449C23.797 69.7018 23.9119 69.7587 24.0261 69.7575C25.1693 69.8035 26.313 69.9076 27.4561 69.9536C27.52 70.5922 27.299 71.292 27.42 71.93C27.7173 73.0312 29.2634 73.3635 30.1707 72.7145C31.0773 72.0074 31.2922 70.7265 31.0519 69.6248C33.1048 69.2543 35.0986 68.71 36.9161 67.7027C38.7336 66.6953 40.3171 65.1674 41.1542 63.2987C41.266 63.065 41.3778 62.8313 41.6051 62.7127C41.7187 62.6533 41.8329 62.6521 42.0049 62.7084C42.6339 62.7599 43.2623 62.7532 43.8342 62.8052C44.0056 62.8034 44.1769 62.8016 44.3495 62.916C44.5793 63.0298 44.6966 63.3192 44.814 63.6085C45.0505 64.3616 45.3441 65.114 45.5807 65.867C48.9245 63.3324 52.1547 60.857 55.7848 58.3774Z" fill="white"/>
<path d="M15.5939 55.8954C15.874 55.3694 16.557 55.1296 17.186 55.1811C17.7008 55.2337 18.2745 55.4601 18.6781 55.8046C18.9662 56.034 19.1977 56.3221 19.4299 56.6684C22.2109 60.3004 23.5747 64.9936 23.5086 69.5277C24.7697 69.9211 26.1419 70.0228 27.4534 69.7764C27.177 70.6511 27.3595 71.6953 27.8816 72.4454C26.1672 72.4054 24.4523 72.3074 22.846 71.6852C21.2397 71.0629 19.7992 69.9158 19.097 68.354C17.7628 66.4502 17.0538 64.2492 16.3455 62.1063C15.814 60.4846 15.3398 58.8622 15.3219 57.177C15.3169 56.712 15.3697 56.3046 15.5939 55.8954Z" fill="white"/>
<path d="M31.054 69.5629C31.8525 69.4382 32.5933 69.2559 33.3329 68.9575C33.6172 68.8382 33.9588 68.7184 34.245 68.7734C34.1934 69.2971 33.7985 69.7662 33.4029 70.1773C33.0645 70.5877 32.6112 70.9412 32.0977 71.0048C31.5836 71.0103 31.1229 70.6664 31.0031 70.1446C30.9428 69.8547 30.9398 69.5641 31.054 69.5629Z" fill="white"/>
<path d="M31.774 60.0849C31.7736 60.0501 31.7736 60.0501 31.7732 60.0153C31.7275 59.9463 31.6374 59.9472 31.5477 59.983C31.0546 60.1969 30.2881 60.1007 29.9245 59.7915C29.788 59.6538 29.6514 59.5161 29.6042 59.3079C29.4185 58.7881 29.503 58.2654 29.8599 57.9486C30.0382 57.7728 30.3072 57.6655 30.577 57.6279C30.7121 57.6265 30.8922 57.6245 31.0284 57.7274C31.1188 57.7613 31.2089 57.7603 31.2535 57.7251C31.2978 57.655 31.2971 57.5855 31.2517 57.5512C31.0705 57.4487 30.8446 57.3816 30.5748 57.4192C30.215 57.4578 29.8562 57.6008 29.6333 57.8118C29.1875 58.234 29.1037 58.8262 29.3351 59.4151C29.4277 59.6576 29.565 59.8649 29.7466 60.0021C30.2467 60.449 31.1484 60.5438 31.7758 60.2588C31.73 60.1897 31.7743 60.1197 31.774 60.0849Z" fill="black"/>
<path d="M36.7116 59.0457C36.7011 58.0577 36.2336 57.0747 35.4271 56.4439C35.3122 56.387 35.198 56.3882 35.1421 56.5051C35.0862 56.6219 35.0874 56.7381 35.2023 56.795C36.1814 57.5402 36.5961 58.9307 36.1508 60.0397C36.095 60.1565 36.1533 60.2721 36.2682 60.329C36.383 60.3859 36.4967 60.3266 36.5526 60.2098C36.6625 59.8018 36.7159 59.4525 36.7116 59.0457Z" fill="black"/>
<path d="M41.6451 60.8497C41.6302 59.455 41.2733 58.122 40.917 56.8471C40.0845 53.7756 37.3166 51.364 34.1132 50.9912C31.5389 50.6698 28.9781 51.6269 26.59 52.6984C23.8603 53.8898 21.7019 55.0751 19.7732 56.3743C19.7167 56.433 19.6602 56.4917 19.6608 56.5498C18.9083 55.6279 18.0458 55.114 17.1306 55.0075C16.7872 54.953 16.3308 55.0159 15.9334 55.2527C15.3094 55.6661 15.2038 56.4809 15.2099 57.0621C15.075 60.4926 16.5377 63.7317 18.2295 67.0266C18.6386 67.8941 19.1632 68.8765 19.858 69.741C20.5522 70.5473 21.4736 71.2349 22.5633 71.6302C24.0572 72.428 25.8311 72.6998 27.4841 72.3335C27.6008 72.5647 27.7175 72.796 27.9479 72.9679C28.4092 73.3698 29.1537 73.5363 29.8373 73.3547C30.6346 73.1137 31.3139 72.5253 31.5915 71.7668C31.8704 71.1245 31.8052 70.3696 31.5128 69.7334C33.6786 69.2455 35.9569 68.5819 37.8297 67.3996C39.9862 66.04 41.3934 64.049 41.7139 61.9532C41.6531 61.6052 41.6488 61.1984 41.6451 60.8497ZM19.834 56.7223C19.8911 56.7217 19.9483 56.7211 19.9476 56.663C21.8192 55.3645 23.9782 54.2373 26.7079 53.0459C29.0396 52.0331 31.5432 51.0766 34.0604 51.3986C37.0924 51.7732 39.6877 54.0704 40.4612 56.9682C40.8771 58.4749 41.3526 60.2135 41.0849 61.9018C40.7632 63.8813 39.4113 65.6974 37.4261 67.0552C35.4968 68.2962 33.1608 68.9022 30.9379 69.3908C30.8807 69.3914 30.8242 69.4501 30.7677 69.5089C30.7683 69.567 30.769 69.6251 30.7696 69.6832C31.1185 70.2607 31.2402 70.9568 30.9613 71.5991C30.7396 72.2408 30.1733 72.7118 29.4896 72.8934C28.9196 73.0157 28.3477 72.9636 28.0013 72.6186C27.6555 72.3317 27.5363 71.868 27.5301 71.2868C27.5282 71.1125 27.5835 70.9376 27.5823 70.8213C27.6357 70.472 27.6885 70.0646 27.5699 69.6591C27.5116 69.5434 27.4538 69.4859 27.3396 69.4871C25.7984 69.6198 24.4839 69.5756 23.4532 69.3541C23.3547 65.4611 22.3994 61.5772 20.5908 58.0511C20.4716 57.5874 20.1811 57.1255 19.834 56.7223ZM27.3451 70.0102C27.4047 70.242 27.3507 70.5332 27.2967 70.8244C27.2985 70.9987 27.2432 71.1736 27.2451 71.348C27.2475 71.5804 27.2494 71.7548 27.2513 71.9291C25.712 72.2361 24.0522 71.9631 22.6732 71.2222C21.6977 70.8257 20.777 70.1962 20.1405 69.4474C19.4464 68.6411 18.9795 67.7161 18.5704 66.8486C16.9357 63.5532 15.4736 60.3721 15.6098 57.0578C15.6589 56.3017 15.8254 55.835 16.1656 55.5989C16.4494 55.4215 16.8493 55.4173 17.0778 55.4149C18.3358 55.5177 19.3745 56.4947 20.366 58.4022C22.1739 61.8702 23.1293 65.7541 23.1707 69.6477C23.1719 69.7639 23.2296 69.8214 23.3445 69.8783C24.4324 70.0992 25.804 70.1428 27.3451 70.0102Z" fill="black"/>
<path d="M34.7599 68.9467C34.7592 68.8886 34.7586 68.8304 34.7009 68.7729C34.586 68.716 34.4718 68.7173 34.4153 68.776C33.626 69.7724 32.5486 70.5394 31.3533 70.9589C31.2397 71.0183 31.1838 71.1351 31.2422 71.2507C31.3005 71.3663 31.4154 71.4232 31.529 71.3639C32.7808 70.8857 33.9153 70.118 34.7611 69.0629C34.7611 69.0629 34.7605 69.0048 34.7599 68.9467Z" fill="black"/>
<path d="M24.6863 56.6145C24.3442 56.6762 24.0622 57.028 24.1802 57.3754C24.241 57.7235 24.5862 57.9523 24.9284 57.8906C25.2705 57.8288 25.5524 57.4771 25.4345 57.1296C25.3737 56.7816 25.0284 56.5527 24.6863 56.6145Z" fill="black"/>
<path d="M27.698 65.4719C27.3559 65.5337 27.074 65.8854 27.1919 66.2329C27.2527 66.5809 27.598 66.8097 27.9401 66.748C28.2822 66.6862 28.5642 66.3345 28.4462 65.9871C28.3854 65.639 28.0401 65.4102 27.698 65.4719Z" fill="black"/>
<path d="M44.576 57.4472C44.5754 57.389 44.5754 57.389 44.576 57.4472C44.5747 57.3309 44.4593 57.2159 44.345 57.2171L41.205 57.4248C41.0907 57.4261 40.9777 57.5435 40.9789 57.6597C40.9802 57.776 41.0956 57.891 41.2099 57.8898L44.3499 57.682C44.4636 57.6227 44.5772 57.5634 44.576 57.4472Z" fill="black"/>
<path d="M71.8828 67.5634C71.8699 66.343 71.7451 65.3563 71.5632 64.3702C71.2628 62.9785 69.0949 57.887 67.6581 57.0886C67.4283 56.9748 67.257 56.9766 67.0291 57.0371C65.4929 57.6347 64.5807 57.8187 63.953 57.8835C63.2116 58.0076 63.1643 58.938 63.114 59.5779C63.1152 59.6941 63.1164 59.8103 63.0605 59.9272C62.7474 62.7202 62.6075 65.6859 62.5911 69.5219C61.104 69.3634 59.9032 69.2599 58.7023 69.1564C57.4443 69.0535 56.1863 68.9507 54.5849 68.7933C54.4707 68.7945 54.3571 68.8538 54.3583 68.9701C54.3595 69.0863 54.4179 69.2019 54.5321 69.2007C56.1335 69.3581 57.3915 69.4609 58.6495 69.5638C59.9075 69.6667 61.1655 69.7696 62.7668 69.9269C62.824 69.9263 62.8811 69.9257 62.9376 69.867C62.9941 69.8083 62.9935 69.7502 62.9929 69.692C63.008 65.7397 63.1473 62.716 63.4598 59.8648C63.4586 59.7486 63.4573 59.6324 63.5132 59.5155C63.5629 58.8175 63.6139 58.2358 64.0138 58.2316C64.698 58.1081 65.6673 57.9234 67.2035 57.3259C67.2607 57.3253 67.3749 57.3241 67.4327 57.3816C68.6391 58.0081 70.7468 62.8096 71.1062 64.3751C71.3459 65.4187 71.4725 66.5797 71.4308 68.0332C71.3946 70.0096 71.1244 71.4655 70.5096 72.7507C69.7837 74.3276 68.4815 75.4457 67.0571 75.8096C65.5755 76.174 63.9717 75.7842 62.5963 75.392C62.0232 75.2237 61.393 75.0561 60.7057 74.889C56.3518 73.7729 49.7645 72.1573 46.8103 68.3528C46.0572 67.3727 45.7586 66.1554 45.4594 64.8799C45.2794 64.0682 45.1 63.3145 44.7492 62.5627C44.6915 62.5052 44.6337 62.4477 44.5766 62.4483C43.4906 62.4017 42.4052 62.4132 41.377 62.4241C41.2627 62.4254 41.1497 62.5428 41.1509 62.659C41.1522 62.7752 41.2677 62.8903 41.3819 62.889C42.4102 62.8781 43.4384 62.8672 44.4673 62.9144C44.7603 63.6087 44.9397 64.3624 45.0614 65.0585C45.3606 66.334 45.6604 67.6676 46.5284 68.7045C49.598 72.6241 55.9568 74.242 60.6541 75.4126C61.3414 75.5797 61.9717 75.7474 62.5448 75.9156C63.9201 76.3079 65.6388 76.7546 67.234 76.3308C68.7727 75.9657 70.1879 74.7302 70.9697 73.0364C71.5845 71.7512 71.9106 70.1785 71.889 68.1446C71.8871 67.9702 71.8853 67.7959 71.8828 67.5634Z" fill="black"/>
<path d="M54.7655 47.9241C54.7655 47.9241 54.7649 47.8659 54.7655 47.9241C54.7065 47.7503 54.5916 47.6934 54.4774 47.6946C53.053 48.0585 51.572 48.4811 50.2059 48.9605C48.9541 49.4388 47.6458 49.9758 46.6274 50.9165C44.9303 52.5038 44.4421 54.95 44.124 57.2782C44.1253 57.3944 44.1836 57.51 44.2979 57.5088C44.4121 57.5076 44.5258 57.4482 44.5245 57.332C44.7873 55.1788 45.2762 52.7907 46.9161 51.204C47.878 50.322 49.1292 49.7856 50.3245 49.3661C51.6906 48.8866 53.1144 48.4647 54.5388 48.1008C54.6531 48.0996 54.7667 48.0403 54.7655 47.9241Z" fill="black"/>
<path d="M67.3705 57.206L67.365 56.6829C67.365 56.6829 67.365 56.6829 67.3643 56.6248C67.2452 56.1611 67.2402 55.6962 67.1782 55.2319C67.1751 54.9414 67.1136 54.5352 66.882 54.247C66.5251 52.9141 65.8266 51.701 64.7879 50.7239C64.7301 50.6664 64.673 50.667 64.6159 50.6677C64.5587 50.6683 64.5016 50.6689 64.4451 50.7276C64.3321 50.845 64.2762 50.9619 64.2781 51.1362C64.0471 50.9062 63.759 50.6768 63.4156 50.6223C63.3585 50.6229 63.2442 50.6241 63.1877 50.6828C63.0747 50.8003 63.0195 50.9752 63.0207 51.0914C62.6748 50.8045 62.3309 50.6919 61.9893 50.8118C61.9322 50.8124 61.8763 50.9292 61.8198 50.988C61.7142 51.8028 62.0644 52.4965 62.4145 53.1902C62.5319 53.4795 62.6486 53.7108 62.7659 54.0001C62.7076 53.8845 62.6498 53.827 62.6486 53.7108C62.4158 53.3064 62.0103 52.7876 61.3807 52.6781C61.2665 52.6793 61.1528 52.7386 61.1541 52.8549C60.9348 53.729 61.1738 54.7145 61.8704 55.7533C62.1026 56.0995 62.392 56.4452 62.6242 56.7914C62.9712 57.1946 63.3189 57.6558 63.5524 58.1183C63.6107 58.2339 63.725 58.2327 63.8386 58.1734C63.9522 58.1141 63.951 57.9978 63.8927 57.8822C63.6015 57.3622 63.2544 56.9591 62.9067 56.4978C62.6745 56.1516 62.3858 55.864 62.1536 55.5178C61.7475 54.9409 61.3378 54.0153 61.4428 53.1424C61.7868 53.255 62.019 53.6012 62.1934 53.89C62.2518 54.0056 62.3101 54.1212 62.3691 54.295C62.5442 54.6418 62.6615 54.9312 62.9503 55.2187C63.008 55.2762 63.1229 55.3331 63.1794 55.2744C63.2365 55.2738 63.2924 55.1569 63.3489 55.0982C63.398 54.3421 63.0478 53.6484 62.7548 52.9541C62.4624 52.3179 62.1706 51.7398 62.2215 51.158C62.5643 51.1544 62.8542 51.5582 63.0281 51.7888C63.608 52.5963 64.0742 53.4632 64.484 54.3887C64.5424 54.5044 64.6572 54.5613 64.7709 54.5019C64.8845 54.4426 64.9404 54.3258 64.882 54.2101C64.6443 53.3409 64.2929 52.5309 63.7707 51.7809C63.5385 51.4347 63.4218 51.2034 63.4771 51.0285C63.7639 51.1417 63.9955 51.4298 64.2265 51.6598C64.6325 52.2367 65.0386 52.8136 65.3881 53.4492C65.4465 53.5648 65.5614 53.6217 65.675 53.5624C65.7886 53.5031 65.8445 53.3862 65.7862 53.2706L64.9126 51.7107C64.8536 51.5369 64.7953 51.4213 64.7369 51.3057C65.6031 52.1683 66.1854 53.2083 66.484 54.4256C66.4846 54.4837 66.4846 54.4837 66.5424 54.5412C66.7156 54.7138 66.7187 55.0043 66.7218 55.2949C66.7267 55.7598 66.7888 56.2241 66.9086 56.7459L66.9141 57.2689C66.9154 57.3851 67.0308 57.5002 67.1451 57.4989C67.2587 57.4396 67.3717 57.3222 67.3705 57.206Z" fill="black"/>
<path d="M78.6339 68.7688C78.6326 68.6526 78.5172 68.5375 78.4029 68.5388C76.4048 68.6762 74.0061 68.7598 71.8918 68.7242C71.7776 68.7254 71.6646 68.8428 71.6658 68.959C71.667 69.0753 71.7825 69.1903 71.8968 69.1891C74.011 69.2247 76.4097 69.1411 78.465 69.0031C78.5221 69.0025 78.6351 68.885 78.6339 68.7688Z" fill="black"/>
<path d="M78.8307 65.511C78.8276 65.2204 78.8251 64.988 78.8227 64.7555C78.4883 60.1676 78.0397 55.5809 77.4774 51.0535C77.4761 50.9373 77.3613 50.8804 77.3042 50.881C76.161 50.835 75.1315 50.7297 74.1021 50.6244L74.0474 50.8575L74.0499 51.0899L74.0474 50.8575L74.0499 51.0899C75.0222 51.1958 75.9946 51.3017 77.0806 51.3483C77.6422 55.8176 78.0903 60.3462 78.3669 64.8766C78.4388 66.2707 78.2885 68.2484 78.181 68.8889C78.1822 69.0051 78.2406 69.1207 78.3548 69.1195C78.4691 69.1183 78.5827 69.059 78.5815 68.9427C78.7461 68.3017 78.8449 66.8476 78.8307 65.511Z" fill="black"/>
<path d="M56.1266 58.4324C56.1266 58.4324 56.126 58.3743 56.1266 58.4324C56.1254 58.3162 56.0676 58.2587 56.0105 58.2593C52.0497 56.4996 48.6043 54.8508 45.5016 53.1982C45.3868 53.1413 45.2731 53.2007 45.2172 53.3175C45.1614 53.4343 45.2197 53.55 45.3346 53.6069C48.3224 55.2025 51.6529 56.7945 55.4989 58.4972C52.037 60.6844 48.7491 63.1023 45.6921 65.7501C45.5784 65.8095 45.5803 65.9838 45.6952 66.0407C45.7535 66.1563 45.9249 66.1545 45.9808 66.0377C49.1514 63.3305 52.5524 60.7952 56.1285 58.6068C56.0707 58.5493 56.1272 58.4905 56.1266 58.4324Z" fill="black"/>
<path d="M48.7063 59.2068C48.7051 59.0906 48.7038 58.9743 48.6455 58.8587C48.5853 58.5687 48.412 58.3962 48.2394 58.2818C47.7222 57.9967 47.1485 57.7703 46.5754 57.6021C46.3463 57.5464 46.1165 57.4326 45.8321 57.5518C45.6043 57.6124 45.264 57.8485 45.1565 58.4889C44.9919 59.13 44.9993 59.8274 45.1781 60.5229C45.2979 61.0447 45.5301 61.391 45.8741 61.5035C46.4478 61.7299 47.0148 61.3171 47.4116 61.0223L48.0909 60.4338C48.261 60.3158 48.4306 60.1396 48.5423 59.906C48.6541 59.6723 48.7088 59.4392 48.7063 59.2068ZM48.0146 58.6329C48.0724 58.6904 48.1879 58.8054 48.1891 58.9217C48.2487 59.1535 48.2512 59.386 48.1388 59.5615C48.0264 59.7371 47.9133 59.8545 47.7432 59.9726L47.0639 60.561C46.7807 60.7965 46.3274 61.15 45.9257 60.9799C45.6966 60.9242 45.5792 60.6349 45.4613 60.2874C45.3409 59.7075 45.3341 59.0682 45.4421 58.4859C45.4968 58.2528 45.608 57.961 45.8358 57.9005C45.9495 57.8412 46.1786 57.8969 46.2935 57.9538C46.9808 58.1208 47.4974 58.3478 48.0146 58.6329Z" fill="black"/>
<path d="M52.8556 56.9515C52.8556 56.9515 52.855 56.8934 52.8556 56.9515C52.8538 56.7772 52.7389 56.7203 52.6247 56.7215C51.0276 56.9709 49.4902 57.4522 48.0701 58.2229C47.9564 58.2822 47.9005 58.399 47.9589 58.5146C48.0173 58.6303 48.1321 58.6872 48.2458 58.6278C49.6094 57.9159 51.0897 57.4352 52.6296 57.1864C52.8004 57.1265 52.8569 57.0677 52.8556 56.9515Z" fill="black"/>
<path d="M52.1521 60.6211C52.1509 60.5049 52.0354 60.3899 51.9212 60.3911C50.6073 60.405 49.3487 60.244 48.0876 59.8506C47.9727 59.7937 47.8591 59.853 47.8032 59.9698C47.7473 60.0867 47.8057 60.2023 47.9205 60.2592C49.1816 60.6526 50.5551 60.8705 51.8683 60.7985C52.0975 60.8542 52.1534 60.7373 52.1521 60.6211Z" fill="black"/>
<path d="M45.5039 58.3115C45.5033 58.2533 45.5027 58.1952 45.445 58.1377C45.1563 57.8502 44.9241 57.5039 44.6918 57.1577C44.6335 57.0421 44.5192 57.0433 44.4056 57.1026C44.292 57.1619 44.2932 57.2782 44.3516 57.3938C44.5838 57.74 44.8166 58.1444 45.1624 58.4313C45.2208 58.5469 45.3922 58.5451 45.4481 58.4283C45.5052 58.4277 45.5046 58.3696 45.5039 58.3115Z" fill="black"/>
<path d="M45.6434 61.2733C45.6428 61.2152 45.5844 61.0996 45.5273 61.1002C45.4124 61.0433 45.2988 61.1026 45.2423 61.1613L44.4579 62.6227C44.402 62.7395 44.4604 62.8551 44.5181 62.9126C44.633 62.9695 44.7466 62.9102 44.8032 62.8515L45.5875 61.3901C45.5869 61.332 45.6434 61.2733 45.6434 61.2733Z" fill="black"/>
<path d="M110.863 53.1438C110.862 53.0276 110.746 52.9126 110.689 52.9132C99.4267 52.2191 88.2854 52.1631 77.4297 52.104C77.3154 52.1052 77.2024 52.2227 77.2036 52.3389C77.2049 52.4551 77.3204 52.5701 77.4346 52.5689C88.176 52.6292 99.3173 52.6852 110.465 53.3805C110.469 53.6711 110.472 54.0198 110.476 54.3684C110.485 55.182 110.437 56.1124 110.445 56.8098C101.299 56.3839 91.7641 56.9501 82.5141 57.4552L81.8857 57.4618C81.8286 57.4625 81.7715 57.4631 81.715 57.5218C81.6585 57.5805 81.6591 57.6386 81.6597 57.6967C81.6622 57.9292 81.6659 58.2779 81.7267 58.6259C81.7937 59.5551 81.8054 60.6593 81.87 61.3561C81.8712 61.4723 81.9861 61.5292 82.0432 61.5286C91.4818 62.6488 101.03 63.303 110.457 63.3772C110.462 63.784 110.467 64.307 110.473 64.8301C110.482 65.7018 110.491 66.5735 110.498 67.2127C108.044 67.4131 105.356 67.2092 102.783 67.0041C101.067 66.8479 99.2953 66.7505 97.5816 66.7687C94.6676 66.7415 91.7001 67.0636 88.9034 67.3258L78.7444 68.3055C78.6301 68.3067 78.5171 68.4242 78.5755 68.5398C78.5767 68.656 78.6922 68.771 78.8058 68.7117L88.9655 67.7901C91.8193 67.5273 94.7302 67.2639 97.6436 67.233C99.3003 67.2154 101.073 67.3709 102.788 67.469C105.475 67.6729 108.22 67.8762 110.731 67.6171C110.845 67.6159 110.901 67.499 110.9 67.4409C110.95 66.743 110.94 65.755 110.93 64.8252C110.924 64.2441 110.917 63.6629 110.912 63.198C110.912 63.1399 110.911 63.0818 110.854 63.0243C110.796 62.9668 110.739 62.9674 110.682 62.968C101.254 62.8938 91.706 62.2396 82.2674 61.1194C82.2028 60.4226 82.1917 59.3766 82.126 58.5636C82.1229 58.273 82.1204 58.0406 82.1179 57.8081L82.5749 57.8032C91.8821 57.2976 101.475 56.7888 110.678 57.2142C110.735 57.2136 110.792 57.213 110.848 57.1542C110.905 57.0955 110.904 57.0374 110.904 56.9793C110.84 56.3407 110.885 55.2359 110.876 54.3642C110.871 53.8993 110.866 53.4344 110.863 53.1438Z" fill="black"/>
<path d="M114.565 63.1602C114.555 62.1723 114.43 61.1856 114.249 60.2576C114.248 60.1995 114.19 60.142 114.133 60.0845C114.075 60.027 114.018 60.0276 113.961 60.0863C113.279 60.3841 112.886 61.0857 112.606 61.6118C112.158 62.4884 111.824 63.3056 111.776 64.1198C111.49 64.0647 111.204 64.0677 110.862 64.1295C110.748 64.1307 110.635 64.2481 110.693 64.3638C110.694 64.48 110.81 64.595 110.923 64.5357C111.265 64.4739 111.609 64.5284 111.895 64.5835C111.952 64.5829 112.009 64.5823 112.066 64.5235C112.122 64.4648 112.122 64.4067 112.121 64.3486C112.17 63.5925 112.447 62.7178 112.951 61.7825C113.175 61.3733 113.455 60.8472 113.909 60.5518C114.151 61.8279 114.165 63.1645 114.066 64.6185C114.013 64.9678 114.017 65.3165 113.907 65.7245C113.907 65.7826 113.852 65.8994 113.795 65.9582C113.682 66.0756 113.454 66.1361 113.283 66.138C112.769 66.1434 112.311 66.0902 111.796 66.0375C111.51 65.9824 111.167 65.9861 110.824 65.9316C110.71 65.9328 110.596 65.9921 110.597 66.1084C110.598 66.2246 110.657 66.3402 110.771 66.339C111.172 66.3929 111.457 66.3898 111.743 66.4449C112.258 66.4976 112.773 66.5502 113.287 66.5448C113.573 66.5417 113.915 66.48 114.141 66.2451C114.254 66.1277 114.253 66.0114 114.309 65.8946C114.418 65.4866 114.471 65.0792 114.468 64.7305C114.577 64.2644 114.571 63.6832 114.565 63.1602Z" fill="black"/>
<path d="M114.467 53.918C114.457 52.9301 114.332 51.9434 114.151 51.0154C114.15 50.9573 114.093 50.8998 114.035 50.8423C113.977 50.7848 113.92 50.7854 113.864 50.8441C113.181 51.1419 112.789 51.8436 112.509 52.3696C112.061 53.2462 111.727 54.0634 111.678 54.8776C111.392 54.8225 111.106 54.8255 110.764 54.8873C110.65 54.8885 110.537 55.0059 110.595 55.1216C110.597 55.2378 110.712 55.3528 110.826 55.2935C111.168 55.2317 111.511 55.2862 111.797 55.3413C111.855 55.3407 111.912 55.3401 111.968 55.2813C112.025 55.2226 112.024 55.1645 112.023 55.1064C112.073 54.3503 112.349 53.4756 112.853 52.5403C113.077 52.1311 113.357 51.605 113.811 51.3096C114.053 52.5857 114.068 53.9223 113.969 55.3763C113.915 55.7256 113.919 56.0743 113.809 56.4823C113.81 56.5404 113.754 56.6573 113.697 56.716C113.584 56.8334 113.356 56.894 113.185 56.8958C112.671 56.9012 112.213 56.848 111.699 56.7953C111.412 56.7402 111.07 56.7439 110.726 56.6894C110.612 56.6906 110.498 56.75 110.5 56.8662C110.501 56.9824 110.559 57.098 110.673 57.0968C111.074 57.1507 111.36 57.1476 111.646 57.2027C112.161 57.2554 112.675 57.308 113.189 57.3026C113.475 57.2995 113.817 57.2378 114.043 57.0029C114.156 56.8855 114.155 56.7692 114.211 56.6524C114.321 56.2444 114.374 55.837 114.37 55.4883C114.479 54.9641 114.473 54.4411 114.467 53.918Z" fill="black"/>
<g opacity="0.1294">
<path d="M41.364 61.4944C41.3609 61.2038 41.3578 60.9133 41.3541 60.5646C41.3529 60.4484 41.3523 60.3902 41.3511 60.274C41.3504 60.2159 41.2921 60.1003 41.2908 59.9841C41.1139 59.4629 40.937 58.9417 40.8737 58.3611C40.8147 58.1874 40.8694 57.9543 40.9246 57.7794C41.2041 57.1952 42.1765 57.3011 42.3546 57.9386C42.5365 58.9247 42.7755 59.9102 42.786 60.8981C42.7891 61.1887 42.7921 61.4792 42.7381 61.7704C42.7406 62.0029 42.6853 62.1778 42.5158 62.354C41.8942 62.9999 40.9715 62.196 41.364 61.4944Z" fill="black"/>
</g>
<g opacity="0.1294">
<path d="M22.8067 67.559C22.5174 67.2133 22.6869 67.0372 22.5659 66.3991C22.5659 66.3991 22.6255 66.631 22.5671 66.5154C22.4461 65.8773 22.325 65.2393 22.2611 64.6007C22.2555 64.0776 21.654 61.2362 21.1878 60.3693C20.7215 59.5025 20.2559 58.6937 19.8467 57.8263C19.7288 57.4788 19.4395 57.1332 19.4929 56.7839C19.6016 56.2596 20.4001 56.1349 20.6335 56.5974C21.16 57.7542 21.8572 58.8511 22.3843 60.066C22.971 61.5128 23.3869 63.0195 23.5179 64.5873C23.5824 65.2841 23.704 65.9802 23.6537 66.6201C23.6574 66.9688 23.7201 67.4912 23.3221 67.6698C23.2091 67.7872 22.9228 67.7321 22.8067 67.559Z" fill="black"/>
</g>
<g opacity="0.1294">
<path d="M45.2351 65.343C45.2879 64.9356 45.6282 64.6995 45.8536 64.4065C47.8333 62.5257 49.4186 61.1721 51.5739 59.6962C52.0837 59.2839 52.6507 58.8711 53.1611 58.5169C52.8742 58.4037 52.6445 58.2899 52.3576 58.1767C52.2428 58.1198 52.0708 58.0636 51.9547 57.8904C51.5492 57.3717 52.1702 56.6676 52.688 57.0108C53.3201 57.3528 53.3772 57.3522 53.8938 57.5792C54.123 57.6349 54.3527 57.7487 54.5824 57.8625C55.0978 57.9733 55.3914 58.7257 54.8245 59.1386C53.6876 59.6737 52.6679 60.4982 51.5893 61.149C49.8873 62.2714 48.8124 63.2708 47.2271 64.6244C46.9446 64.918 46.6614 65.1535 46.3789 65.4471C46.0963 65.7407 46.3242 65.6802 45.9262 65.8588C45.6424 66.0361 45.2394 65.7498 45.2351 65.343Z" fill="black"/>
</g>
<g opacity="0.1294">
<path d="M63.8356 58.2884C63.147 58.0051 63.3638 56.8985 64.107 56.9487C64.6212 56.9433 65.3619 56.761 66.2163 56.5195C66.7274 56.2235 67.3601 56.6236 67.1949 57.2065C67.1408 57.4977 66.7999 57.6757 66.5156 57.7949C66.2312 57.9142 65.3774 58.2139 64.636 58.338C64.4069 58.2823 64.1225 58.4016 63.8356 58.2884Z" fill="black"/>
</g>
<g opacity="0.1294">
<path d="M66.0338 76.3994C65.6898 76.2868 65.5141 75.8818 65.6818 75.5313C65.8501 75.2389 66.2493 75.1766 66.5337 75.0573C66.5908 75.0567 66.6474 74.998 66.7616 74.9968C66.8181 74.9381 66.9317 74.8787 67.1019 74.7607C67.385 74.5252 67.9514 74.0542 68.4587 73.4095C69.1921 72.5299 69.5311 72.1776 69.9758 71.0105C70.3099 70.1933 70.7993 67.8633 70.7366 67.3409C70.7802 66.0618 70.602 65.4243 70.4785 64.5538C70.2377 63.394 69.7124 62.3534 69.3008 61.2535C69.1829 60.906 68.9507 60.5598 69.0041 60.2105C69.055 59.6288 69.9113 59.5615 70.0317 60.1415C70.4452 61.4157 71.0288 62.5719 71.3851 63.8468C71.5645 64.6004 71.5725 65.3559 71.6942 66.052C71.8171 66.8644 71.7115 67.6792 71.663 68.4934C71.5599 69.5407 71.4002 70.6466 70.9537 71.6394C70.8413 71.815 70.7866 72.048 70.6742 72.2236C70.7891 72.2805 70.8475 72.3961 70.8487 72.5123C70.9089 72.8023 70.74 73.0366 70.6282 73.2702C70.4047 73.7376 70.1234 74.1474 69.7843 74.4997C69.105 75.0881 68.253 75.5621 67.3999 75.9199C67.2862 75.9793 67.1726 76.0386 67.059 76.0979C66.7181 76.2759 66.3772 76.4539 66.0338 76.3994Z" fill="black"/>
</g>
<g opacity="0.1294">
<path d="M78.2252 67.7855C78.1091 67.6124 78.1067 67.38 78.1619 67.205C78.2694 66.5645 78.2147 66.7976 78.2651 66.1578C78.4173 64.3544 78.2839 62.5541 78.0934 60.7544C77.9613 59.0703 77.772 57.3869 77.6392 55.6447C77.5722 54.7155 77.4555 54.4842 77.2724 53.3819C77.2128 53.1501 77.0967 52.9769 77.1514 52.7439C77.1998 51.9297 78.3989 51.8588 78.5783 52.6125C78.816 53.4817 78.9973 54.4097 79.1208 55.2802C79.3076 56.7312 79.2665 58.2428 79.3962 59.6944C79.4694 61.2048 79.6003 62.7726 79.5592 64.2842C79.461 65.7963 79.4057 65.9713 79.3081 67.5416C79.2572 68.1233 78.5158 68.2474 78.2252 67.7855Z" fill="black"/>
</g>
<path d="M20.1534 59.6802C19.689 58.9877 19.1104 58.2964 18.4764 57.7801C17.7848 57.2062 16.9807 56.8079 16.2368 56.6996C16.1797 56.7002 16.1797 56.7002 16.1803 56.7583C16.1815 56.8745 16.2387 56.8739 16.2958 56.8733C17.0397 56.9817 17.786 57.3225 18.4205 57.8969C19.0545 58.4133 19.576 59.1052 20.0398 59.7396C20.0404 59.7977 20.0975 59.7971 20.1541 59.7383C20.1541 59.7383 20.1541 59.7383 20.1534 59.6802Z" fill="black"/>
<path d="M21.0321 62.4052C21.0315 62.3471 21.0315 62.3471 21.0321 62.4052C20.2176 61.019 19.0062 59.9276 17.5713 59.3035C17.5142 59.3041 17.5142 59.3041 17.4576 59.3628C17.4583 59.4209 17.4583 59.4209 17.516 59.4784C18.8938 60.1031 20.1052 61.1945 20.8614 62.4651C20.862 62.5232 20.9191 62.5226 20.9756 62.4639C21.0321 62.4052 21.0321 62.4052 21.0321 62.4052Z" fill="black"/>
<path d="M21.4034 64.5547C20.8216 63.5728 20.0697 62.709 19.206 62.0789C19.1489 62.0795 19.1489 62.0795 19.0918 62.0801C19.0924 62.1382 19.0924 62.1382 19.093 62.1963C19.9567 62.8265 20.708 63.6322 21.232 64.5565C21.2326 64.6146 21.2897 64.614 21.3462 64.5553C21.404 64.6128 21.4034 64.5547 21.4034 64.5547Z" fill="black"/>
<path d="M54.5755 77.1307C52.0462 77.1307 52.2271 45.1742 48.9375 49.4056C47.5265 42.8247 116.126 46.1558 120.151 46.2584C151.383 47.0544 152.026 68.199 150.443 77.1307C127.972 77.9733 62.0946 77.1307 54.5755 77.1307Z" fill="white" stroke="black" stroke-width="0.5" stroke-linecap="round"/>
<path d="M57.8613 53.1647C57.8613 53.6346 60.681 73.3721 59.2712 74.782M60.211 59.7439C60.8376 64.13 61.9028 73.2782 61.1509 74.782M92.637 47.5254C93.2636 55.3577 94.3288 71.4924 93.5769 73.3721M95.4566 52.6947C95.9266 57.3942 96.7725 67.5449 96.3965 70.5525M98.2763 56.4543C98.5896 61.6236 99.0282 72.2443 98.2763 73.3721M116.134 49.4052C116.447 56.4543 116.792 70.8345 115.664 71.9623" stroke="black" stroke-width="0.2" stroke-linecap="round"/>
</svg>
