<svg xmlns="http://www.w3.org/2000/svg" width="250" viewBox="0 0 347 347" fill="none">
    <g filter="url(#filter0_d_544_10261)">
    <path d="M325.838 138.767C324.012 123.876 319.487 109.442 312.483 96.1747C302.115 76.6364 287.199 59.8786 268.995 47.3154C239.938 26.8636 207.391 16.9907 172.02 16.0367C161.515 15.8157 151.014 16.5919 140.656 18.3548C122.259 21.3173 104.557 27.6112 88.4195 36.9274C64.1139 51.0357 45.4936 70.5336 33.4457 96.0698C24.1928 115.549 20.2913 136.229 20.6919 160.277C20.827 174.843 22.0065 189.379 24.2214 203.776C26.222 217.322 29.4141 230.664 33.7605 243.649C38.9688 258.912 45.8847 273.316 55.834 286.127C65.7832 298.938 78.165 309.097 93.3989 315.316C109.119 321.736 125.508 323.253 142.287 321.66C152.17 320.681 161.944 318.804 171.486 316.051C190.322 310.61 208.386 302.785 225.239 292.766C252.12 276.988 275.844 257.471 295.313 232.994C305.069 220.954 313.019 207.557 318.913 193.225C326.104 176.033 328.501 157.213 325.848 138.767H325.838Z" fill="white"/>
    </g>
    <path d="M99.6641 133.5V124H109.164L110.164 133.5H120.164V143H110.164V152.5L101.664 153.5L100.664 143L89.6641 144V134.5L99.6641 133.5Z" fill="#BEE8FF" stroke="black" stroke-width="1.5"/>
    <path d="M105.664 183.38V221C105.664 222.105 106.559 223 107.664 223H237.164C238.821 223 240.164 221.657 240.164 220V126C240.164 124.895 239.269 124 238.164 124H139.164" stroke="black" stroke-width="1.5"/>
    <path d="M154.664 142.092V124H187.164C187.331 130.167 187.564 142.8 187.164 144C186.787 145.132 167.682 144.573 156.566 144.086C155.499 144.039 154.664 143.16 154.664 142.092Z" fill="#BEE8FF" stroke="black" stroke-width="1.5"/>
    <path d="M69.6641 110.5V108.18C101.62 102.934 104.482 91.0099 104.482 91.0099C104.482 90.5325 112.932 107.546 139.164 108.5V114" stroke="black" stroke-width="1.5"/>
    <path d="M69.6641 110.18C69.6641 131.547 71.8898 146.746 73.0027 151.675C74.1156 157.716 79.2032 169.322 89.6962 174.569C101.525 180.292 104.482 184.267 104.482 185.539" stroke="black" stroke-width="1.5" stroke-linecap="round"/>
    <path d="M139.164 113C139.164 134.368 137.074 147.223 135.961 152.152C134.848 158.193 129.761 169.799 119.268 175.046C107.439 180.769 104.482 184.267 104.482 185.539" stroke="black" stroke-width="1.5" stroke-linecap="round"/>
    <path d="M115.664 195.5V215M122.664 205V215M234.664 131V144" stroke="black" stroke-width="1.5"/>
    <defs>
    <filter id="filter0_d_544_10261" x="0.664062" y="0" width="346.234" height="346.245" filterUnits="userSpaceOnUse" color-interpolation-filters="sRGB">
    <feFlood flood-opacity="0" result="BackgroundImageFix"/>
    <feColorMatrix in="SourceAlpha" type="matrix" values="0 0 0 0 0 0 0 0 0 0 0 0 0 0 0 0 0 0 127 0" result="hardAlpha"/>
    <feOffset dy="4"/>
    <feGaussianBlur stdDeviation="10"/>
    <feComposite in2="hardAlpha" operator="out"/>
    <feColorMatrix type="matrix" values="0 0 0 0 0.5875 0 0 0 0 0.5875 0 0 0 0 0.5875 0 0 0 0.25 0"/>
    <feBlend mode="normal" in2="BackgroundImageFix" result="effect1_dropShadow_544_10261"/>
    <feBlend mode="normal" in="SourceGraphic" in2="effect1_dropShadow_544_10261" result="shape"/>
    </filter>
    </defs>
    </svg>