<svg viewBox="0 0 574 497" fill="none" xmlns="http://www.w3.org/2000/svg">
    <path d="M367.534 247.711L382.034 256.211M349.534 270.211C351.034 272.711 353.934 278.011 353.534 279.211" stroke="#999898" strokeLinecap="round"/>
    <path d="M327.991 207.217C332.324 203.05 344.034 195.311 354.034 195.711M354.034 195.711C358.034 194.111 359.824 188.05 360.491 185.217M354.034 195.711C355.034 199.711 355.534 211.211 364.034 218.211" stroke="#999898" strokeLinecap="round"/>
    <path d="M455.367 421.868C539.751 334.447 537.288 195.173 449.868 110.79C362.447 26.4063 223.173 28.8685 138.789 116.289C54.4061 203.71 56.8684 342.984 144.289 427.368" stroke="#999898" stroke-dasharray="20 20"/>
    <path d="M1.08537 261.74H93.9775L93.9775 197.43H1.08537L1.08537 261.74Z" fill="#333436"/>
    <path d="M93.9763 262.33H1.08327C0.926236 262.33 0.775615 262.268 0.664575 262.157C0.553534 262.046 0.491211 261.895 0.491211 261.738V197.43C0.491211 197.273 0.553534 197.122 0.664575 197.011C0.775615 196.9 0.926236 196.838 1.08327 196.838H93.9763C94.1334 196.838 94.284 196.9 94.395 197.011C94.5061 197.122 94.5684 197.273 94.5684 197.43V261.74C94.5679 261.896 94.5054 262.047 94.3944 262.157C94.2834 262.268 94.1331 262.33 93.9763 262.33ZM1.6745 261.146H93.3859V198.02H1.6745V261.146Z" fill="#999898"/>
    <path d="M1.08537 203.178H93.9775V194.692H1.08537V203.178Z" fill="#BEE8FF"/>
    <path d="M93.9763 203.766H1.08327C0.926236 203.766 0.775615 203.704 0.664575 203.593C0.553534 203.482 0.491211 203.331 0.491211 203.174V194.692C0.491211 194.614 0.506474 194.537 0.53623 194.465C0.565986 194.393 0.609593 194.328 0.664575 194.273C0.719556 194.218 0.784894 194.174 0.856731 194.145C0.928568 194.115 1.00551 194.1 1.08327 194.1H93.9763C94.0541 194.1 94.131 194.115 94.2029 194.145C94.2747 194.174 94.34 194.218 94.395 194.273C94.45 194.328 94.4936 194.393 94.5234 194.465C94.5531 194.537 94.5684 194.614 94.5684 194.692V203.174C94.5684 203.331 94.5061 203.482 94.395 203.593C94.284 203.704 94.1334 203.766 93.9763 203.766V203.766ZM1.6745 202.582H93.3859V195.282H1.6745V202.582Z" fill="#999898"/>
    <path d="M22.8187 211.947H11.0122V219.818H22.8187V211.947Z" fill="#333436"/>
    <path d="M22.8177 220.407H11.0095C10.9318 220.407 10.8548 220.392 10.783 220.362C10.7112 220.332 10.6458 220.289 10.5908 220.234C10.5359 220.179 10.4923 220.113 10.4625 220.042C10.4327 219.97 10.4175 219.893 10.4175 219.815V211.942C10.4175 211.785 10.4798 211.634 10.5908 211.523C10.7019 211.412 10.8525 211.35 11.0095 211.35H22.816C22.9731 211.35 23.1237 211.412 23.2347 211.523C23.3458 211.634 23.4081 211.785 23.4081 211.942V219.817C23.4077 219.973 23.3454 220.123 23.2347 220.234C23.1241 220.344 22.9741 220.407 22.8177 220.407ZM11.6016 219.223H22.2273V212.534H11.6016V219.223Z" fill="#999898"/>
    <path d="M43.2274 211.947H31.4209V219.818H43.2274V211.947Z" fill="#333436"/>
    <path d="M43.2286 220.407H31.4213C31.3435 220.407 31.2665 220.392 31.1946 220.362C31.1228 220.332 31.0576 220.289 31.0026 220.234C30.9476 220.179 30.904 220.113 30.8742 220.042C30.8445 219.97 30.8291 219.893 30.8291 219.815V211.942C30.8291 211.785 30.8915 211.634 31.0026 211.523C31.1136 211.412 31.2642 211.35 31.4213 211.35H43.2286C43.3063 211.35 43.3833 211.365 43.4551 211.395C43.527 211.424 43.5923 211.468 43.6473 211.523C43.7023 211.578 43.7459 211.643 43.7756 211.715C43.8054 211.787 43.8206 211.864 43.8206 211.942V219.817C43.8202 219.973 43.7577 220.124 43.6467 220.234C43.5357 220.345 43.3853 220.407 43.2286 220.407V220.407ZM32.0125 219.223H42.6374V212.534H32.0125V219.223Z" fill="#999898"/>
    <path d="M63.6351 211.947H51.8286V219.818H63.6351V211.947Z" fill="#333436"/>
    <path d="M63.6354 220.407H51.8289C51.7511 220.407 51.6742 220.392 51.6023 220.362C51.5305 220.332 51.4652 220.289 51.4102 220.234C51.3552 220.179 51.3116 220.113 51.2818 220.042C51.2521 219.97 51.2368 219.893 51.2368 219.815V211.942C51.2368 211.785 51.2991 211.634 51.4102 211.523C51.5212 211.412 51.6718 211.35 51.8289 211.35H63.6354C63.7924 211.35 63.943 211.412 64.0541 211.523C64.1651 211.634 64.2275 211.785 64.2275 211.942V219.817C64.2271 219.973 64.1644 220.124 64.0535 220.234C63.9425 220.345 63.7921 220.407 63.6354 220.407V220.407ZM52.4193 219.223H63.045V212.534H52.4193V219.223Z" fill="#999898"/>
    <path d="M84.0462 211.947H72.2397V219.818H84.0462V211.947Z" fill="#333436"/>
    <path d="M84.047 220.407H72.2405C72.1627 220.407 72.0858 220.392 72.014 220.362C71.9421 220.332 71.8769 220.289 71.8219 220.234C71.7669 220.179 71.7233 220.113 71.6936 220.042C71.6638 219.97 71.6484 219.893 71.6484 219.815V211.942C71.6484 211.864 71.6638 211.787 71.6936 211.715C71.7233 211.643 71.7669 211.578 71.8219 211.523C71.8769 211.468 71.9421 211.424 72.014 211.395C72.0858 211.365 72.1627 211.35 72.2405 211.35H84.047C84.204 211.35 84.3547 211.412 84.4657 211.523C84.5767 211.634 84.6392 211.785 84.6392 211.942V219.817C84.6387 219.973 84.5761 220.124 84.4651 220.234C84.3541 220.345 84.2037 220.407 84.047 220.407ZM72.8309 219.223H83.4549V212.534H72.8293L72.8309 219.223Z" fill="#999898"/>
    <path d="M22.8187 229.584H11.0122V237.455H22.8187V229.584Z" fill="#333436"/>
    <path d="M22.8177 238.045H11.0095C10.8525 238.045 10.7019 237.982 10.5908 237.871C10.4798 237.76 10.4175 237.61 10.4175 237.453V229.586C10.4175 229.429 10.4798 229.279 10.5908 229.168C10.7019 229.057 10.8525 228.994 11.0095 228.994H22.816C22.9731 228.994 23.1237 229.057 23.2347 229.168C23.3458 229.279 23.4081 229.429 23.4081 229.586V237.453C23.4081 237.609 23.346 237.76 23.2354 237.871C23.1247 237.982 22.9744 238.044 22.8177 238.045ZM11.6016 236.861H22.2273V230.178H11.6016V236.861Z" fill="#999898"/>
    <path d="M43.2274 229.584H31.4209V237.455H43.2274V229.584Z" fill="#333436"/>
    <path d="M43.2286 238.045H31.4213C31.2642 238.045 31.1136 237.982 31.0026 237.871C30.8915 237.76 30.8291 237.61 30.8291 237.453V229.586C30.8291 229.429 30.8915 229.279 31.0026 229.168C31.1136 229.057 31.2642 228.994 31.4213 228.994H43.2286C43.3063 228.994 43.3833 229.009 43.4551 229.039C43.527 229.069 43.5923 229.113 43.6473 229.168C43.7023 229.223 43.7459 229.288 43.7756 229.36C43.8054 229.431 43.8206 229.508 43.8206 229.586V237.453C43.8206 237.53 43.8054 237.607 43.7756 237.679C43.7459 237.751 43.7023 237.816 43.6473 237.871C43.5923 237.926 43.527 237.97 43.4551 238C43.3833 238.03 43.3063 238.045 43.2286 238.045V238.045ZM32.0125 236.861H42.6374V230.178H32.0125V236.861Z" fill="#999898"/>
    <path d="M63.6351 229.584H51.8286V237.455H63.6351V229.584Z" fill="#333436"/>
    <path d="M63.6354 238.045H51.8289C51.6718 238.045 51.5212 237.982 51.4102 237.871C51.2991 237.76 51.2368 237.61 51.2368 237.453V229.586C51.2368 229.429 51.2991 229.279 51.4102 229.168C51.5212 229.057 51.6718 228.994 51.8289 228.994H63.6354C63.7924 228.994 63.943 229.057 64.0541 229.168C64.1651 229.279 64.2275 229.429 64.2275 229.586V237.453C64.2275 237.61 64.1651 237.76 64.0541 237.871C63.943 237.982 63.7924 238.045 63.6354 238.045V238.045ZM52.4193 236.861H63.045V230.178H52.4193V236.861Z" fill="#999898"/>
    <path d="M84.0467 229.584H72.2402V237.455H84.0467V229.584Z" fill="#333436"/>
    <path d="M84.047 238.045H72.2405C72.1627 238.045 72.0858 238.03 72.014 238C71.9421 237.97 71.8769 237.926 71.8219 237.871C71.7669 237.816 71.7233 237.751 71.6936 237.679C71.6638 237.607 71.6484 237.53 71.6484 237.453V229.586C71.6484 229.508 71.6638 229.431 71.6936 229.36C71.7233 229.288 71.7669 229.223 71.8219 229.168C71.8769 229.113 71.9421 229.069 72.014 229.039C72.0858 229.009 72.1627 228.994 72.2405 228.994H84.047C84.204 228.994 84.3547 229.057 84.4657 229.168C84.5767 229.279 84.6392 229.429 84.6392 229.586V237.453C84.6392 237.61 84.5767 237.76 84.4657 237.871C84.3547 237.982 84.204 238.045 84.047 238.045V238.045ZM72.8309 236.861H83.4549V230.178H72.8293L72.8309 236.861Z" fill="#999898"/>
    <path d="M22.8187 245.381H11.0122V253.252H22.8187V245.381Z" fill="#333436"/>
    <path d="M22.8177 253.844H11.0095C10.8525 253.844 10.7019 253.782 10.5908 253.671C10.4798 253.56 10.4175 253.409 10.4175 253.252V245.381C10.4175 245.224 10.4798 245.074 10.5908 244.962C10.7019 244.851 10.8525 244.789 11.0095 244.789H22.816C22.9731 244.789 23.1237 244.851 23.2347 244.962C23.3458 245.074 23.4081 245.224 23.4081 245.381V253.252C23.4081 253.409 23.346 253.559 23.2354 253.67C23.1247 253.781 22.9744 253.844 22.8177 253.844ZM11.6016 252.66H22.2273V245.973H11.6016V252.66Z" fill="#999898"/>
    <path d="M43.2274 245.381H31.4209V253.252H43.2274V245.381Z" fill="#333436"/>
    <path d="M43.2286 253.844H31.4213C31.2642 253.844 31.1136 253.782 31.0026 253.671C30.8915 253.56 30.8291 253.409 30.8291 253.252V245.381C30.8291 245.224 30.8915 245.074 31.0026 244.962C31.1136 244.851 31.2642 244.789 31.4213 244.789H43.2286C43.3063 244.789 43.3833 244.804 43.4551 244.834C43.527 244.864 43.5923 244.908 43.6473 244.962C43.7023 245.017 43.7459 245.083 43.7756 245.155C43.8054 245.226 43.8206 245.303 43.8206 245.381V253.252C43.8206 253.33 43.8054 253.407 43.7756 253.478C43.7459 253.55 43.7023 253.616 43.6473 253.671C43.5923 253.726 43.527 253.769 43.4551 253.799C43.3833 253.829 43.3063 253.844 43.2286 253.844V253.844ZM32.0125 252.66H42.6374V245.973H32.0125V252.66Z" fill="#999898"/>
    <path d="M63.6351 245.381H51.8286V253.252H63.6351V245.381Z" fill="#333436"/>
    <path d="M63.6354 253.844H51.8289C51.6718 253.844 51.5212 253.782 51.4102 253.671C51.2991 253.56 51.2368 253.409 51.2368 253.252V245.381C51.2368 245.224 51.2991 245.074 51.4102 244.962C51.5212 244.851 51.6718 244.789 51.8289 244.789H63.6354C63.7924 244.789 63.943 244.851 64.0541 244.962C64.1651 245.074 64.2275 245.224 64.2275 245.381V253.252C64.2275 253.409 64.1651 253.56 64.0541 253.671C63.943 253.782 63.7924 253.844 63.6354 253.844V253.844ZM52.4193 252.66H63.045V245.973H52.4193V252.66Z" fill="#999898"/>
    <path d="M84.0467 245.381H72.2402V253.252H84.0467V245.381Z" fill="#333436"/>
    <path d="M84.047 253.844H72.2405C72.1627 253.844 72.0858 253.829 72.014 253.799C71.9421 253.769 71.8769 253.726 71.8219 253.671C71.7669 253.616 71.7233 253.55 71.6936 253.478C71.6638 253.407 71.6484 253.33 71.6484 253.252V245.381C71.6484 245.303 71.6638 245.226 71.6936 245.155C71.7233 245.083 71.7669 245.017 71.8219 244.962C71.8769 244.908 71.9421 244.864 72.014 244.834C72.0858 244.804 72.1627 244.789 72.2405 244.789H84.047C84.204 244.789 84.3547 244.851 84.4657 244.962C84.5767 245.074 84.6392 245.224 84.6392 245.381V253.252C84.6392 253.409 84.5767 253.56 84.4657 253.671C84.3547 253.782 84.204 253.844 84.047 253.844ZM72.8309 252.66H83.4549V245.973H72.8293L72.8309 252.66Z" fill="#999898"/>
    <path d="M65.4369 199.522C65.2799 199.522 65.1292 199.46 65.0182 199.349C64.9072 199.238 64.8447 199.087 64.8447 198.93V191.227C64.8447 191.07 64.9072 190.919 65.0182 190.808C65.1292 190.697 65.2799 190.635 65.4369 190.635C65.5939 190.635 65.7445 190.697 65.8556 190.808C65.9666 190.919 66.0289 191.07 66.0289 191.227V198.932C66.0285 199.089 65.966 199.239 65.855 199.349C65.744 199.46 65.5936 199.522 65.4369 199.522V199.522Z" fill="#999898"/>
    <path d="M29.6233 199.522C29.4663 199.522 29.3157 199.46 29.2046 199.349C29.0936 199.238 29.0312 199.087 29.0312 198.93V191.227C29.0312 191.07 29.0936 190.919 29.2046 190.808C29.3157 190.697 29.4663 190.635 29.6233 190.635C29.7803 190.635 29.931 190.697 30.042 190.808C30.153 190.919 30.2155 191.07 30.2155 191.227V198.932C30.215 199.089 30.1524 199.239 30.0414 199.349C29.9304 199.46 29.7801 199.522 29.6233 199.522V199.522Z" fill="#999898"/>
    <path d="M32.6919 214.986C32.6536 214.986 32.6162 214.975 32.5841 214.954C32.5521 214.933 32.527 214.903 32.5118 214.868C32.4966 214.833 32.4919 214.794 32.4985 214.756C32.5052 214.718 32.5227 214.683 32.5489 214.656C33.1283 214.04 33.7416 213.438 34.3718 212.868C34.4108 212.835 34.4615 212.817 34.5129 212.821C34.5644 212.824 34.6125 212.847 34.6471 212.885C34.6816 212.924 34.6997 212.974 34.6975 213.025C34.6954 213.077 34.6732 213.126 34.6357 213.161C34.0131 213.723 33.4066 214.317 32.8357 214.925C32.8171 214.945 32.7948 214.96 32.7701 214.971C32.7454 214.981 32.7188 214.987 32.6919 214.986V214.986Z" fill="#999898"/>
    <path d="M40.7525 218.507C40.7131 218.508 40.6744 218.496 40.6416 218.475C40.6087 218.453 40.5831 218.422 40.5681 218.385C40.553 218.349 40.5493 218.309 40.5573 218.27C40.5653 218.232 40.5846 218.196 40.6129 218.169L41.896 216.881C41.9335 216.847 41.9824 216.829 42.0327 216.83C42.0831 216.831 42.1311 216.852 42.1669 216.887C42.2026 216.923 42.2233 216.971 42.2249 217.021C42.2264 217.071 42.2087 217.12 42.1752 217.158L40.892 218.446C40.874 218.465 40.8523 218.48 40.8284 218.491C40.8044 218.501 40.7786 218.507 40.7525 218.507V218.507Z" fill="#999898"/>
    <path d="M12.3674 232.109C12.3293 232.109 12.2919 232.097 12.26 232.077C12.228 232.056 12.2029 232.026 12.1874 231.992C12.1719 231.957 12.1669 231.918 12.1729 231.881C12.1788 231.843 12.1956 231.808 12.2211 231.78C12.5425 231.424 12.8833 231.074 13.2361 230.737C13.2743 230.704 13.3238 230.687 13.3742 230.69C13.4247 230.692 13.4723 230.714 13.5072 230.75C13.5422 230.787 13.5618 230.835 13.562 230.886C13.5623 230.936 13.5431 230.985 13.5084 231.022C13.1642 231.352 12.8318 231.698 12.5154 232.044C12.4967 232.065 12.4737 232.081 12.4482 232.092C12.4227 232.103 12.3952 232.109 12.3674 232.109V232.109Z" fill="#999898"/>
    <path d="M12.4163 234.953C12.3787 234.953 12.3418 234.943 12.3101 234.922C12.2784 234.902 12.2531 234.873 12.2373 234.839C12.2215 234.805 12.2159 234.767 12.2211 234.73C12.2263 234.693 12.2421 234.658 12.2665 234.629C13.4262 233.276 14.6484 231.945 15.8994 230.674C15.9175 230.655 15.9392 230.641 15.9629 230.631C15.9867 230.621 16.0122 230.615 16.038 230.615C16.0638 230.615 16.0894 230.62 16.1133 230.63C16.1372 230.639 16.1589 230.654 16.1773 230.672C16.1957 230.69 16.2104 230.711 16.2205 230.735C16.2305 230.759 16.2357 230.784 16.2359 230.81C16.2361 230.836 16.2313 230.862 16.2216 230.886C16.2119 230.909 16.1976 230.931 16.1795 230.95C14.9352 232.218 13.7189 233.539 12.566 234.885C12.5474 234.907 12.5243 234.924 12.4984 234.936C12.4726 234.947 12.4446 234.953 12.4163 234.953V234.953Z" fill="#999898"/>
    <path d="M14.4358 236.397C14.391 236.397 14.3475 236.382 14.3123 236.354C14.2717 236.322 14.2457 236.274 14.24 236.222C14.2342 236.17 14.2493 236.118 14.2819 236.078C15.7579 234.234 17.3168 232.424 18.9172 230.701C18.9526 230.663 19.0017 230.641 19.0538 230.639C19.1058 230.637 19.1565 230.656 19.1946 230.691C19.2327 230.727 19.2553 230.776 19.2572 230.828C19.2591 230.88 19.2402 230.93 19.2047 230.969C17.612 232.685 16.0582 234.487 14.589 236.324C14.5707 236.347 14.5473 236.365 14.5208 236.378C14.4943 236.391 14.4653 236.397 14.4358 236.397V236.397Z" fill="#999898"/>
    <path d="M17.491 236.304C17.4535 236.304 17.4168 236.294 17.3851 236.274C17.3534 236.254 17.3282 236.225 17.3123 236.191C17.2965 236.157 17.2907 236.119 17.2957 236.082C17.3007 236.045 17.3163 236.01 17.3405 235.981C18.5509 234.538 19.7825 233.088 21.0006 231.667C21.0358 231.634 21.0822 231.615 21.1308 231.613C21.1793 231.612 21.2266 231.629 21.2636 231.66C21.3007 231.692 21.3247 231.736 21.3313 231.784C21.3378 231.832 21.3264 231.881 21.2992 231.921C20.0828 233.337 18.8521 234.787 17.6417 236.228C17.6239 236.251 17.601 236.27 17.575 236.283C17.5489 236.296 17.5202 236.304 17.491 236.304V236.304Z" fill="#999898"/>
    <path d="M20.4628 236.331C20.4271 236.332 20.392 236.322 20.3613 236.303C20.3307 236.285 20.3057 236.259 20.2889 236.227C20.2722 236.195 20.2644 236.16 20.2664 236.124C20.2685 236.088 20.2802 236.054 20.3004 236.024C20.5728 235.625 20.8662 235.235 21.1741 234.866C21.1908 234.846 21.2112 234.829 21.2342 234.817C21.2572 234.805 21.2824 234.798 21.3083 234.796C21.3341 234.793 21.3601 234.796 21.3849 234.804C21.4096 234.812 21.4325 234.824 21.4524 234.841C21.4723 234.858 21.4887 234.878 21.5007 234.901C21.5127 234.924 21.52 234.949 21.5223 234.975C21.5246 235.001 21.5218 235.027 21.514 235.052C21.5063 235.076 21.4936 235.099 21.477 235.119C21.1767 235.479 20.8908 235.859 20.6252 236.247C20.6071 236.273 20.5828 236.295 20.5545 236.309C20.5262 236.324 20.4947 236.332 20.4628 236.331V236.331Z" fill="#999898"/>
    <path d="M32.8489 217.328C32.8088 217.328 32.7696 217.316 32.7366 217.293C32.7037 217.27 32.6787 217.237 32.6647 217.2C32.6507 217.162 32.6486 217.121 32.6585 217.082C32.6684 217.044 32.6899 217.009 32.7202 216.982C34.1633 215.737 35.5675 214.417 36.8929 213.058C36.9106 213.037 36.9321 213.021 36.9562 213.009C36.9804 212.998 37.0067 212.991 37.0335 212.99C37.0602 212.989 37.0869 212.994 37.1119 213.003C37.1369 213.013 37.1597 213.028 37.1789 213.046C37.198 213.065 37.2132 213.087 37.2235 213.112C37.2337 213.137 37.2387 213.164 37.2383 213.19C37.2379 213.217 37.232 213.243 37.2211 213.268C37.2101 213.292 37.1942 213.314 37.1745 213.332C35.8414 214.699 34.4289 216.028 32.9774 217.281C32.9417 217.312 32.896 217.328 32.8489 217.328V217.328Z" fill="#999898"/>
    <path d="M34.7091 218.747C34.6696 218.748 34.6309 218.736 34.5981 218.715C34.5652 218.693 34.5396 218.662 34.5248 218.625C34.5099 218.589 34.5064 218.548 34.5146 218.51C34.5229 218.471 34.5427 218.436 34.5712 218.409C36.4423 216.593 38.3861 214.805 40.3501 213.094C40.3691 213.074 40.392 213.058 40.4174 213.048C40.4427 213.037 40.47 213.032 40.4974 213.033C40.5248 213.034 40.5517 213.041 40.5764 213.052C40.6011 213.064 40.6231 213.081 40.6409 213.102C40.6587 213.123 40.6719 213.147 40.6797 213.173C40.6876 213.2 40.6898 213.227 40.6863 213.254C40.6829 213.282 40.6737 213.308 40.6595 213.331C40.6453 213.355 40.6263 213.375 40.6038 213.39C38.6457 215.097 36.7061 216.88 34.8418 218.691C34.8063 218.726 34.7588 218.746 34.7091 218.747V218.747Z" fill="#999898"/>
    <path d="M37.6396 218.798C37.6004 218.798 37.5621 218.786 37.5296 218.764C37.4972 218.742 37.4719 218.711 37.4574 218.674C37.4428 218.638 37.4395 218.598 37.4479 218.56C37.4562 218.521 37.4758 218.486 37.5042 218.459C38.8652 217.153 40.2753 215.855 41.6938 214.601C41.7129 214.582 41.7357 214.568 41.7606 214.558C41.7855 214.548 41.812 214.544 41.8387 214.545C41.8653 214.546 41.8915 214.553 41.9156 214.564C41.9397 214.575 41.9612 214.592 41.9789 214.612C41.9965 214.632 42.01 214.655 42.0183 214.68C42.0267 214.706 42.0298 214.732 42.0275 214.759C42.0252 214.786 42.0175 214.811 42.0049 214.835C41.9923 214.858 41.9751 214.879 41.9543 214.896C40.54 216.146 39.1334 217.441 37.7758 218.743C37.7394 218.778 37.6905 218.798 37.6396 218.798Z" fill="#999898"/>
    <path d="M53.1699 248.587C53.1247 248.587 53.0808 248.571 53.0456 248.543C53.0255 248.526 53.0088 248.506 52.9964 248.484C52.9841 248.461 52.9764 248.436 52.9737 248.41C52.971 248.385 52.9734 248.359 52.9808 248.334C52.9882 248.309 53.0004 248.286 53.0168 248.266L54.4217 246.539C54.4555 246.501 54.5027 246.477 54.5533 246.473C54.6039 246.469 54.6541 246.485 54.6935 246.517C54.7329 246.549 54.7584 246.595 54.7647 246.645C54.7709 246.696 54.7574 246.747 54.7271 246.788L53.3222 248.514C53.3039 248.537 53.2806 248.555 53.2543 248.568C53.2279 248.58 53.1991 248.587 53.1699 248.587V248.587Z" fill="#999898"/>
    <path d="M53.2736 251.815C53.2376 251.815 53.2021 251.805 53.1713 251.786C53.1405 251.767 53.1155 251.74 53.0989 251.708C53.0824 251.676 53.075 251.64 53.0777 251.604C53.0803 251.568 53.0928 251.533 53.1138 251.504C54.3702 249.724 55.7301 248.02 57.1866 246.4C57.2033 246.379 57.2242 246.362 57.2479 246.349C57.2716 246.337 57.2976 246.329 57.3243 246.327C57.3511 246.325 57.378 246.328 57.4034 246.336C57.4288 246.345 57.4523 246.359 57.4723 246.377C57.4922 246.395 57.5082 246.416 57.5195 246.441C57.5307 246.465 57.5369 246.492 57.5375 246.518C57.5382 246.545 57.5333 246.572 57.5233 246.597C57.5133 246.622 57.4982 246.644 57.4792 246.663C56.0328 248.272 54.6822 249.964 53.4343 251.731C53.4162 251.757 53.3922 251.778 53.3642 251.792C53.3362 251.807 53.3052 251.814 53.2736 251.815V251.815Z" fill="#999898"/>
    <path d="M56.4076 251.888C56.3703 251.888 56.3336 251.877 56.3021 251.858C56.2705 251.838 56.2453 251.809 56.2294 251.775C56.2134 251.741 56.2073 251.704 56.2119 251.667C56.2165 251.63 56.2316 251.595 56.2553 251.566L59.3427 247.85C59.3594 247.83 59.3798 247.814 59.4028 247.802C59.4258 247.79 59.451 247.782 59.4768 247.78C59.5027 247.778 59.5287 247.781 59.5535 247.788C59.5782 247.796 59.6011 247.809 59.621 247.825C59.6409 247.842 59.6573 247.863 59.6693 247.886C59.6813 247.909 59.6886 247.934 59.6909 247.96C59.6932 247.985 59.6904 248.011 59.6826 248.036C59.6748 248.061 59.6622 248.084 59.6456 248.104L56.559 251.82C56.5403 251.841 56.5171 251.859 56.4909 251.871C56.4648 251.882 56.4363 251.888 56.4076 251.888V251.888Z" fill="#999898"/>
    <path d="M58.9865 252.011C58.9501 252.011 58.9144 252.001 58.8835 251.982C58.8525 251.963 58.8274 251.936 58.8111 251.903C58.7947 251.871 58.7877 251.834 58.7907 251.798C58.7938 251.762 58.8068 251.727 58.8283 251.698L59.5337 250.748C59.5658 250.709 59.6117 250.683 59.6619 250.677C59.7121 250.671 59.7627 250.684 59.8033 250.714C59.844 250.745 59.8715 250.789 59.8802 250.839C59.8889 250.889 59.8781 250.94 59.8501 250.982L59.1447 251.933C59.1263 251.957 59.1024 251.977 59.0749 251.991C59.0474 252.005 59.0172 252.012 58.9865 252.011V252.011Z" fill="#999898"/>
    <g opacity="0.129">
    <path d="M93.9737 203.283H1.08154V206.038H93.9737V203.283Z" fill="#999898"/>
    </g>
    <path d="M86.4149 277.679C100.506 277.679 111.929 266.256 111.929 252.165C111.929 238.074 100.506 226.65 86.4149 226.65C72.3236 226.65 60.9004 238.074 60.9004 252.165C60.9004 266.256 72.3236 277.679 86.4149 277.679Z" fill="#333436"/>
    <path d="M86.4159 278.272C81.2528 278.272 76.2057 276.741 71.9128 273.873C67.6199 271.004 64.274 266.927 62.2982 262.157C60.3223 257.387 59.8054 252.138 60.8126 247.075C61.8199 242.011 64.3062 237.359 67.957 233.708C71.6078 230.058 76.2592 227.571 81.3231 226.564C86.3869 225.557 91.6358 226.074 96.4058 228.05C101.176 230.025 105.253 233.371 108.121 237.664C110.99 241.957 112.521 247.004 112.521 252.167C112.512 259.088 109.759 265.723 104.865 270.617C99.9717 275.511 93.3367 278.264 86.4159 278.272V278.272ZM86.4159 227.243C81.4864 227.243 76.6676 228.705 72.5689 231.444C68.4701 234.182 65.2755 238.075 63.389 242.629C61.5026 247.184 61.009 252.195 61.9707 257.03C62.9324 261.865 65.3062 266.306 68.7919 269.791C72.2776 273.277 76.7186 275.651 81.5534 276.613C86.3882 277.574 91.3997 277.081 95.954 275.194C100.508 273.308 104.401 270.113 107.14 266.014C109.878 261.916 111.34 257.097 111.34 252.167C111.333 245.559 108.705 239.224 104.032 234.551C99.3595 229.878 93.0241 227.249 86.4159 227.242V227.243Z" fill="#999898"/>
    <path d="M86.4169 234.418C86.2598 234.418 86.1092 234.355 85.9982 234.244C85.8871 234.133 85.8247 233.983 85.8247 233.826V230.364C85.8247 230.207 85.8871 230.056 85.9982 229.945C86.1092 229.834 86.2598 229.771 86.4169 229.771C86.5739 229.771 86.7245 229.834 86.8356 229.945C86.9466 230.056 87.0089 230.207 87.0089 230.364V233.826C87.0089 233.983 86.9466 234.133 86.8356 234.244C86.7245 234.355 86.5739 234.418 86.4169 234.418Z" fill="#999898"/>
    <path d="M86.4169 274.557C86.2598 274.557 86.1092 274.495 85.9982 274.384C85.8871 274.273 85.8247 274.122 85.8247 273.965V270.502C85.8247 270.345 85.8871 270.195 85.9982 270.084C86.1092 269.973 86.2598 269.91 86.4169 269.91C86.5739 269.91 86.7245 269.973 86.8356 270.084C86.9466 270.195 87.0089 270.345 87.0089 270.502V273.97C87.0076 274.126 86.9446 274.276 86.8337 274.386C86.7228 274.496 86.573 274.557 86.4169 274.557Z" fill="#999898"/>
    <path d="M108.22 252.756H104.757C104.6 252.756 104.449 252.694 104.338 252.583C104.227 252.472 104.165 252.321 104.165 252.164C104.165 252.007 104.227 251.857 104.338 251.746C104.449 251.635 104.6 251.572 104.757 251.572H108.22C108.377 251.572 108.528 251.635 108.639 251.746C108.75 251.857 108.812 252.007 108.812 252.164C108.812 252.321 108.75 252.472 108.639 252.583C108.528 252.694 108.377 252.756 108.22 252.756Z" fill="#999898"/>
    <path d="M68.0732 252.756H64.6111C64.4541 252.756 64.3036 252.694 64.1925 252.583C64.0815 252.472 64.019 252.321 64.019 252.164C64.019 252.007 64.0815 251.857 64.1925 251.746C64.3036 251.635 64.4541 251.572 64.6111 251.572H68.0732C68.2303 251.572 68.3809 251.635 68.4919 251.746C68.603 251.857 68.6654 252.007 68.6654 252.164C68.6654 252.321 68.603 252.472 68.4919 252.583C68.3809 252.694 68.2303 252.756 68.0732 252.756Z" fill="#999898"/>
    <path d="M87.0095 252.166C86.8932 252.165 86.7798 252.13 86.6834 252.065C86.587 252 86.5118 251.908 86.4674 251.801C86.4229 251.693 86.4111 251.575 86.4333 251.461C86.4555 251.347 86.5108 251.242 86.5924 251.159L96.0542 241.697C96.1073 241.635 96.1726 241.585 96.2461 241.549C96.3195 241.514 96.3995 241.494 96.4811 241.491C96.5626 241.488 96.6439 241.501 96.7199 241.531C96.7959 241.561 96.8649 241.606 96.9226 241.664C96.9803 241.721 97.0255 241.79 97.0553 241.866C97.085 241.942 97.0988 242.024 97.0956 242.105C97.0925 242.187 97.0725 242.267 97.037 242.34C97.0015 242.414 96.951 242.479 96.889 242.532L87.4239 251.993C87.3139 252.103 87.165 252.165 87.0095 252.166V252.166Z" fill="#999898"/>
    <path d="M86.4166 254.92C87.9381 254.92 89.1715 253.687 89.1715 252.165C89.1715 250.644 87.9381 249.41 86.4166 249.41C84.8951 249.41 83.6616 250.644 83.6616 252.165C83.6616 253.687 84.8951 254.92 86.4166 254.92Z" fill="#333436"/>
    <path d="M86.4176 255.511C85.756 255.511 85.1092 255.315 84.5591 254.947C84.0089 254.58 83.5801 254.057 83.3269 253.446C83.0737 252.835 83.0075 252.162 83.1365 251.513C83.2656 250.864 83.5842 250.268 84.0521 249.8C84.52 249.332 85.116 249.014 85.765 248.885C86.4139 248.756 87.0865 248.822 87.6978 249.075C88.3091 249.328 88.8316 249.757 89.1992 250.307C89.5668 250.857 89.763 251.504 89.763 252.166C89.7621 253.053 89.4094 253.903 88.7822 254.53C88.155 255.157 87.3046 255.51 86.4176 255.511V255.511ZM86.4176 250.001C85.9895 250.001 85.571 250.128 85.215 250.366C84.8591 250.604 84.5817 250.942 84.4178 251.337C84.254 251.733 84.2111 252.168 84.2946 252.588C84.3782 253.008 84.5843 253.394 84.887 253.696C85.1897 253.999 85.5755 254.205 85.9953 254.289C86.4152 254.372 86.8504 254.329 87.246 254.165C87.6415 254.002 87.9795 253.724 88.2174 253.368C88.4552 253.012 88.5822 252.594 88.5822 252.166C88.5813 251.592 88.3529 251.042 87.9472 250.636C87.5414 250.231 86.9914 250.003 86.4176 250.002V250.001Z" fill="#999898"/>
    <g opacity="0.129">
    <path d="M61.6834 248.109C61.7197 247.892 61.7561 247.673 61.795 247.456C62.2015 245.196 62.9407 243.009 63.9883 240.965C63.8786 240.809 63.7371 240.679 63.573 240.582C62.1178 242.156 60.9233 243.953 60.0347 245.904C59.3126 247.451 58.7459 249.066 58.343 250.726C58.2624 251.084 58.1868 251.444 58.1164 251.806C57.8376 254.021 57.984 256.27 58.5478 258.43C58.7034 259.332 58.9835 260.207 59.3801 261.032C59.4406 261.294 59.5699 261.536 59.7546 261.733C59.9393 261.929 60.1728 262.073 60.4314 262.15C60.7164 262.223 61.017 262.209 61.2939 262.109C61.5708 262.009 61.8111 261.828 61.9836 261.59C62.1562 261.351 62.2529 261.066 62.2612 260.772C62.2695 260.478 62.1889 260.188 62.0301 259.94V259.93L62.0733 259.985C62.0479 259.943 62.0309 259.901 62.0081 259.855C61.9269 259.561 61.8403 259.268 61.7484 258.977C61.007 256.981 60.7386 254.84 60.9643 252.723C61.023 251.162 61.2644 249.614 61.6834 248.109Z" fill="#999898"/>
    </g>
    <path d="M502.539 182.657C525.617 181.62 548.732 181.541 571.62 182.493C573.137 208.048 573.946 233.959 568.712 258.997C567.901 262.875 566.902 266.822 564.666 270.067C562.721 272.795 559.971 274.846 556.802 275.933C553.633 277.02 550.203 277.087 546.994 276.127C529.227 275.831 514.763 274.09 496.629 273.177C505.246 243.375 501.933 213.236 502.539 182.657Z" fill="#333436"/>
    <path d="M551.538 277.535C549.96 277.535 548.389 277.314 546.873 276.878C536.127 276.696 526.702 275.995 516.721 275.254C510.33 274.779 503.721 274.288 496.584 273.929C496.47 273.923 496.359 273.891 496.259 273.837C496.158 273.782 496.072 273.705 496.005 273.612C495.939 273.519 495.895 273.412 495.875 273.3C495.856 273.187 495.862 273.071 495.894 272.961C502.348 250.647 502.085 228.616 501.804 205.293C501.71 197.881 501.624 190.221 501.773 182.64C501.777 182.448 501.854 182.264 501.988 182.127C502.123 181.989 502.304 181.908 502.496 181.899C525.82 180.849 549.083 180.795 571.644 181.734C571.831 181.742 572.009 181.819 572.143 181.95C572.277 182.082 572.357 182.259 572.368 182.446C573.835 207.162 574.818 233.446 569.441 259.15C568.67 262.835 567.649 267.055 565.276 270.493C563.721 272.685 561.66 274.469 559.269 275.695C556.877 276.921 554.225 277.552 551.538 277.535ZM497.611 272.469C504.404 272.824 510.718 273.294 516.834 273.747C526.822 274.49 536.254 275.191 547 275.369C547.068 275.37 547.136 275.381 547.201 275.4C550.258 276.308 553.522 276.241 556.539 275.208C559.556 274.176 562.176 272.228 564.035 269.637C566.247 266.43 567.225 262.385 567.964 258.843C573.253 233.56 572.341 207.639 570.902 183.228C548.829 182.328 526.082 182.384 503.281 183.389C503.149 190.715 503.237 198.118 503.324 205.283C503.59 227.38 503.863 250.225 497.615 272.466L497.611 272.469Z" fill="#999898"/>
    <path d="M476.133 256.799C498.432 256.401 520.741 256.566 542.634 256.901C541.859 262.699 543.008 268.591 545.904 273.674C546.811 275.25 548.211 276.895 549.912 276.785C529.074 276.59 508.689 278.5 487.631 276.785C483.707 276.258 478.531 274.521 476.394 268.998C474.936 265.245 474.341 260.865 476.133 256.799Z" fill="#333436"/>
    <path d="M507.389 278.262C500.829 278.262 494.208 278.083 487.569 277.542C481.565 276.739 477.473 273.883 475.687 269.277C474.43 266.039 473.368 261.193 475.439 256.494C475.498 256.362 475.593 256.249 475.713 256.169C475.834 256.089 475.974 256.045 476.119 256.042C495.25 255.702 515.767 255.732 542.645 256.144C542.752 256.145 542.858 256.17 542.955 256.215C543.052 256.26 543.138 256.326 543.208 256.407C543.278 256.488 543.329 256.583 543.36 256.686C543.39 256.789 543.399 256.897 543.384 257.003C542.622 262.636 543.738 268.363 546.56 273.297C547.131 274.288 548.249 275.894 549.579 276.024H549.919C550.115 276.025 550.302 276.103 550.442 276.24C550.582 276.377 550.663 276.563 550.669 276.759C550.674 276.955 550.604 277.146 550.472 277.291C550.339 277.436 550.156 277.524 549.961 277.537C549.805 277.548 549.648 277.548 549.492 277.537C541.987 277.478 534.41 277.689 527.084 277.895C520.615 278.078 514.033 278.262 507.389 278.262ZM476.641 257.548C475.033 261.636 475.984 265.861 477.099 268.729C479.087 273.858 483.978 275.533 487.731 276.036C500.969 277.113 514.224 276.742 527.039 276.382C533.46 276.202 540.07 276.017 546.669 276.014C546.119 275.417 545.641 274.759 545.244 274.052C542.399 269.081 541.187 263.343 541.777 257.646C515.564 257.251 495.416 257.22 476.641 257.548Z" fill="#999898"/>
    <path d="M496.826 215.767C496.433 224.774 496.347 233.51 496.621 242.582C502.877 242.601 509.27 243.308 515.563 242.414C515.259 233.695 515.016 224.975 514.933 216.063C518.071 216.063 521.21 216.063 524.377 216.005C518.365 209.001 512.353 201.996 505.906 194.896C499.612 201.574 493.562 208.503 487.754 215.686C490.796 215.689 493.891 215.767 496.826 215.767Z" fill="#BEE8FF"/>
    <path d="M508.245 243.621C506.229 243.621 504.222 243.549 502.246 243.479C500.395 243.412 498.482 243.344 496.617 243.338C496.422 243.337 496.234 243.26 496.094 243.123C495.954 242.986 495.873 242.8 495.867 242.605C495.609 234.033 495.665 225.492 496.039 216.524C494.804 216.524 493.544 216.504 492.276 216.486C490.775 216.466 489.258 216.446 487.757 216.445C487.614 216.445 487.474 216.405 487.353 216.328C487.232 216.252 487.135 216.143 487.074 216.014C487.012 215.885 486.988 215.741 487.005 215.599C487.021 215.457 487.078 215.322 487.167 215.211C493.078 207.925 499.195 200.916 505.354 194.384C505.424 194.304 505.51 194.241 505.608 194.199C505.706 194.158 505.811 194.14 505.917 194.146C506.022 194.146 506.125 194.168 506.22 194.211C506.315 194.254 506.401 194.316 506.471 194.393C512.916 201.491 519.024 208.607 524.931 215.488C525.026 215.598 525.089 215.734 525.112 215.878C525.135 216.023 525.117 216.171 525.06 216.306C525.005 216.438 524.913 216.552 524.796 216.634C524.678 216.716 524.539 216.763 524.396 216.768C521.483 216.824 518.545 216.827 515.702 216.826C515.78 224.398 515.973 232.325 516.324 242.393C516.331 242.58 516.268 242.762 516.148 242.905C516.028 243.049 515.859 243.142 515.674 243.169C513.211 243.494 510.729 243.645 508.245 243.621ZM497.362 241.829C499.012 241.848 500.681 241.907 502.303 241.966C506.464 242.224 510.639 242.152 514.788 241.753C514.44 231.662 514.254 223.715 514.181 216.07C514.18 215.97 514.199 215.871 514.237 215.779C514.274 215.686 514.33 215.602 514.4 215.531C514.47 215.46 514.554 215.403 514.647 215.365C514.739 215.326 514.838 215.307 514.938 215.307V215.307C517.501 215.307 520.128 215.307 522.756 215.274C517.331 208.954 511.751 202.476 505.901 196.013C500.302 201.983 494.737 208.34 489.347 214.937C490.331 214.944 491.317 214.957 492.297 214.97C493.831 214.989 495.352 215.01 496.832 215.01C496.935 215.01 497.036 215.03 497.13 215.071C497.224 215.111 497.309 215.17 497.38 215.244C497.451 215.318 497.506 215.405 497.542 215.501C497.578 215.597 497.594 215.699 497.589 215.801C497.194 224.765 497.12 233.287 497.359 241.828L497.362 241.829Z" fill="#999898"/>
    <path d="M479.922 264.417C479.873 264.417 479.826 264.403 479.786 264.377C479.729 264.342 479.689 264.285 479.675 264.219C479.66 264.154 479.672 264.086 479.708 264.029C480.702 262.463 481.846 260.998 483.124 259.654C483.171 259.606 483.234 259.578 483.301 259.576C483.368 259.575 483.432 259.6 483.481 259.645C483.529 259.692 483.558 259.755 483.559 259.822C483.561 259.889 483.536 259.954 483.49 260.003C482.234 261.323 481.11 262.762 480.134 264.3C480.111 264.335 480.08 264.365 480.043 264.386C480.006 264.406 479.964 264.417 479.922 264.417V264.417Z" fill="#999898"/>
    <path d="M480.454 271.119C480.405 271.119 480.357 271.104 480.316 271.076C480.288 271.058 480.264 271.035 480.245 271.007C480.227 270.98 480.214 270.949 480.207 270.916C480.201 270.884 480.2 270.85 480.207 270.818C480.213 270.785 480.226 270.754 480.244 270.726C482.832 266.835 485.751 263.174 488.969 259.785C489.016 259.737 489.079 259.709 489.146 259.707C489.213 259.706 489.278 259.73 489.327 259.776C489.375 259.823 489.403 259.886 489.405 259.953C489.406 260.02 489.381 260.085 489.335 260.134C486.139 263.501 483.239 267.139 480.668 271.005C480.644 271.04 480.613 271.069 480.575 271.089C480.538 271.109 480.496 271.119 480.454 271.119Z" fill="#999898"/>
    <path d="M484.723 273.751C484.674 273.751 484.627 273.737 484.587 273.711C484.559 273.693 484.534 273.67 484.515 273.643C484.496 273.616 484.483 273.585 484.476 273.553C484.468 273.52 484.468 273.487 484.474 273.454C484.479 273.421 484.492 273.39 484.51 273.362C487.543 268.617 490.909 264.094 494.583 259.826C494.627 259.775 494.689 259.744 494.756 259.739C494.822 259.734 494.888 259.756 494.939 259.799C494.99 259.843 495.021 259.905 495.026 259.972C495.031 260.039 495.01 260.105 494.966 260.156C491.307 264.406 487.955 268.91 484.936 273.635C484.913 273.671 484.881 273.7 484.844 273.72C484.807 273.74 484.765 273.751 484.723 273.751V273.751Z" fill="#999898"/>
    <path d="M491.231 274.302C491.184 274.302 491.138 274.289 491.099 274.263C491.071 274.246 491.046 274.223 491.026 274.197C491.007 274.17 490.993 274.139 490.985 274.107C490.978 274.075 490.976 274.041 490.982 274.009C490.987 273.976 490.999 273.945 491.016 273.916C493.98 269.13 497.2 264.508 500.664 260.07C500.685 260.044 500.71 260.022 500.739 260.006C500.768 259.989 500.799 259.979 500.832 259.975C500.865 259.97 500.899 259.973 500.931 259.982C500.963 259.991 500.993 260.006 501.019 260.026C501.072 260.067 501.106 260.128 501.114 260.194C501.122 260.26 501.104 260.327 501.063 260.38C497.61 264.803 494.4 269.41 491.446 274.181C491.424 274.218 491.392 274.248 491.354 274.269C491.317 274.291 491.274 274.302 491.231 274.302V274.302Z" fill="#999898"/>
    <path d="M497.177 274.834C497.128 274.834 497.079 274.82 497.038 274.792C497.01 274.774 496.987 274.75 496.968 274.723C496.949 274.695 496.936 274.664 496.93 274.632C496.923 274.599 496.923 274.566 496.929 274.533C496.935 274.501 496.948 274.47 496.966 274.442L506.659 259.763C506.677 259.735 506.701 259.711 506.728 259.692C506.755 259.673 506.786 259.66 506.819 259.654C506.851 259.647 506.885 259.647 506.918 259.653C506.95 259.659 506.981 259.672 507.009 259.69C507.037 259.709 507.061 259.732 507.079 259.76C507.098 259.787 507.111 259.818 507.118 259.85C507.124 259.883 507.125 259.916 507.118 259.949C507.112 259.982 507.099 260.013 507.081 260.04L497.387 274.718C497.365 274.753 497.334 274.782 497.297 274.803C497.26 274.823 497.219 274.834 497.177 274.834Z" fill="#999898"/>
    <g opacity="0.129">
    <path d="M547.953 274.413C547.345 273.985 546.691 273.628 546.001 273.35C545.889 273.057 545.74 272.771 545.611 272.486L545.652 272.586C545.301 271.785 545 270.963 544.751 270.124C544.645 269.838 544.282 268.403 544.203 268.215C544.204 267.833 544.057 267.466 543.794 267.19C543.532 266.934 543.181 266.791 542.814 266.791C542.448 266.791 542.097 266.934 541.835 267.19C541.573 267.505 541.406 267.888 541.354 268.294C541.328 268.366 541.312 268.414 541.298 268.452C541.235 268.569 541.086 268.851 540.945 269.069C540.895 269.13 540.796 269.256 540.701 269.393C539.937 270.192 540.53 269.687 539.458 270.41C539.154 270.603 538.835 270.771 538.505 270.913L538.367 270.966C537.461 271.269 536.965 271.429 536.529 271.529C534.644 271.542 532.454 271.64 530.725 271.747C526.839 271.737 522.974 272.164 519.092 272.216C515.188 272.473 511.276 272.561 507.366 272.722C503.515 273.053 499.644 273.09 495.788 272.833C492.215 272.445 489.054 272.097 485.374 271.462C484.354 271.257 483.352 270.965 482.381 270.59C482.108 270.397 481.798 270.26 481.472 270.187C481.145 270.115 480.807 270.108 480.477 270.168C480.137 270.269 479.834 270.466 479.604 270.736C479.374 271.006 479.227 271.337 479.181 271.688C479.135 272.04 479.192 272.397 479.345 272.717C479.498 273.037 479.74 273.306 480.043 273.491C482.234 274.576 484.56 275.365 486.96 275.836C487.281 275.922 489.044 276.17 489.651 276.252C489.862 276.285 490.103 276.313 490.244 276.328C493.347 276.865 496.486 277.169 499.634 277.238C502.585 277.284 505.52 276.943 508.464 276.819C514.304 276.548 520.154 276.363 525.977 275.819C526.035 276.028 526.146 276.22 526.3 276.374C527.036 277.031 528.133 276.7 529.04 276.795L528.659 276.744C530.72 276.824 532.784 276.754 534.835 276.533C537.18 276.332 539.535 276.268 541.888 276.341C542.301 276.357 542.713 276.392 543.124 276.435C543.296 276.641 543.518 276.799 543.769 276.895C544.032 277.021 544.325 277.069 544.614 277.033C544.903 276.998 545.176 276.88 545.4 276.694C545.617 276.718 545.833 276.744 546.051 276.763L546.239 276.799C547.77 277.293 549.114 275.699 547.953 274.413Z" fill="#999898"/>
    </g>
    <path d="M248.19 395.227C247.857 397.06 249.29 399.627 257.69 395.227C264.042 391.899 268.931 389.67 271.691 387.764M274.191 384.227C274.388 385.412 273.493 386.519 271.691 387.764M271.691 387.764C273.635 392.537 274.925 395.705 276.562 399.727M278.191 403.727C277.596 402.266 277.063 400.957 276.562 399.727M251.991 397.723C255.991 410.056 266.591 433.227 276.191 425.227C286.191 418.427 296.358 408.06 300.191 403.727L314.191 387.764M276.562 399.727C282.272 394.56 294.791 384.227 299.191 384.227M295.991 381.223C273.191 384.423 267.191 385.227 266.191 373.227C255.691 315.727 254.191 317.227 280.691 317.227L344.191 311.727C357.791 310.927 353.191 349.227 355.191 369.227C356.691 378.227 319.991 378.723 320.491 376.723M290.191 288.227C291.024 293.393 292.691 304.327 292.691 306.727M304.191 294.727C303.191 297.393 301.291 303.327 301.691 305.727M314.191 299.227C313.524 301.06 312.191 304.927 312.191 305.727M278.191 300.227C280.358 303.227 284.691 309.327 284.691 309.727M267.691 308.727C269.691 309.893 273.691 312.427 273.691 313.227M294.834 339.727L302.691 331.434M295.691 342.227L305.691 332.227M297.322 344.395L302.691 339.227M305.191 336.727L308.325 332.923M299.093 346.103L310.691 334.727M301.506 347.727C301.906 347.727 309.024 340.019 312.691 336.519M303.974 348.568L313.294 340.227M295.191 341.727C293.191 336.227 299.691 326.227 311.191 334.727C318.071 339.812 307.191 358.727 295.191 341.727Z" stroke="#999898" strokeLinecap="round"/>
    <path d="M179.691 431.227C176.525 436.727 170.191 457.427 170.191 496.227" stroke="#999898"/>
    <path d="M189.691 425.227C203.525 428.56 234.891 432.727 249.691 422.727M198.691 419.227C211.191 420.727 238.591 421.927 248.191 414.727" stroke="#999898"/>
    <path d="M232.191 310.727C231.858 316.56 231.891 328.227 234.691 328.227C238.191 328.227 259.691 337.727 261.691 349.727M208.691 311.727C208.858 318.227 208.191 331.027 204.191 330.227C199.191 329.227 173.691 336.227 159.691 389.227C164.691 392.727 169.191 398.727 184.691 396.727C184.691 393.527 184.691 389.06 184.691 387.227V408.227M162.191 391.727C156.858 409.06 150.591 442.027 168.191 435.227C185.791 428.427 198.525 419.393 202.691 415.727C211.525 415.727 228.991 415.427 228.191 414.227C227.391 413.027 223.191 412.727 221.191 412.727C224.025 412.727 229.691 412.327 229.691 410.727C229.691 409.127 223.358 408.727 220.191 408.727C224.025 408.56 231.591 407.927 231.191 406.727C230.791 405.527 223.691 404.893 220.191 404.727C220.858 403.893 222.491 402.227 223.691 402.227C225.191 402.227 229.691 403.227 230.191 402.227C230.545 401.52 228.899 399.813 225.075 399.227M170.191 414.727C172.144 413.832 175.597 412.286 179.691 410.519M180.691 397.727L179.691 410.519M179.691 410.519C183.985 408.666 188.982 406.57 193.691 404.727C198.227 402.952 201.907 401.877 205.191 401.165M225.191 385.727C229.991 382.527 227.191 380.727 225.191 380.227L204.191 380.727C203.025 380.56 200.791 380.827 201.191 383.227C201.591 385.627 204.358 385.893 205.691 385.727C209.025 385.727 217.591 385.727 225.191 385.727ZM225.191 385.727L225.075 399.227M204.191 386.227L205.191 401.165M205.191 401.165C210.235 400.071 214.347 399.832 219.191 399.227C221.535 398.934 223.492 398.984 225.075 399.227M207.691 416.227C208.691 418.227 218.691 419.227 223.691 416.727M216.191 300.227C216.691 302.727 223.191 306.227 228.191 301.227M221.691 277.727C221.191 281.893 222.791 287.627 225.191 289.227C228.191 291.227 227.191 295.227 221.691 294.727M202.191 271.227C203.358 270.393 206.091 268.727 209.691 268.727M230.191 267.727C231.858 267.393 234.791 267.627 237.191 269.227M185.691 265.227C188.069 266.316 191.895 267.241 194.691 265.88M213.691 253.727C210.191 263.227 204.191 261.227 198.191 259.227C198.029 262.959 196.6 264.952 194.691 265.88M202.191 243.227C203.691 246.56 207.391 251.227 210.191 243.227C212.691 249.727 213.691 257.727 221.691 252.227C223.673 255.694 227.126 261.615 233.024 251.031M233.191 250.727C233.135 250.83 233.079 250.931 233.024 251.031M233.024 251.031C230.229 260.228 236.579 262.608 242.191 260.393M245.191 239.727C253.526 250.145 248.294 257.985 242.191 260.393M194.691 265.88V278.227C191.691 274.727 184.191 287.227 195.691 289.727C199.191 300.227 210.091 319.927 225.691 314.727C241.291 309.527 243.191 276.338 242.191 260.393M207.691 310.727C206.691 314.727 199.691 314.727 203.191 308.727C199.525 310.393 192.191 311.527 192.191 302.727C190.191 303.227 180.191 306.227 183.691 294.727C178.191 296.727 164.691 289.227 174.191 278.227C169.191 275.727 164.191 263.727 177.191 260.393C175.358 258.504 173.091 254.227 178.691 252.227C177.191 247.227 180.691 244.227 182.191 244.727C183.691 245.227 170.691 225.227 195.691 229.727C194.691 224.227 193.692 223.227 201.191 222.727C202.025 219.393 205.491 214.527 212.691 221.727C216.191 215.227 224.191 212.726 234.691 224.226C238.858 222.393 246.791 221.327 245.191 231.727C252.691 224.226 271.191 244.727 257.191 256.227C261.025 257.893 266.591 263.027 258.191 270.227C260.191 271.727 261.191 272.227 259.691 274.727C262.691 275.727 266.691 279.227 260.191 283.727C258.606 284.824 265.191 293.727 251.691 294.727C253 298.06 253.732 304.526 246.191 303.727C242.191 308.727 241.191 311.726 233.191 310.227" stroke="#999898" strokeLinecap="round"/>
    <path d="M204.191 390.727L190.691 405.227L205.191 400.727L204.191 390.727Z" fill="#BEE8FF"/>
    <path d="M221.191 377.727H212.191C214.412 375.173 216.682 371.904 218.876 368.227C211.191 359.227 199.691 335.727 200.691 330.227C202.691 329.227 206.391 330.127 207.191 327.727C209.191 336.926 215.091 356.516 222.691 361.276C228.671 349.489 233.369 335.795 233.691 327.727C234.691 328.227 236.691 328.227 241.191 330.727C239.991 346.327 227.358 368.727 221.191 377.727Z" fill="#BEE8FF"/>
    <path d="M203.691 381.227V385.227M205.691 380.727V385.227M207.191 380.727V385.227M209.191 380.727V385.312M211.691 380.727V385.312M214.191 380.727V385.227M216.691 380.727V385.312M219.191 380.727V385.227M221.691 380.727V385.227M223.691 380.727V385.227M225.691 380.727V384.727M189.191 393.227C190.191 394.56 192.891 397.127 195.691 396.727M222.691 361.276C228.671 349.489 233.369 335.795 233.691 327.727C234.691 328.227 236.691 328.227 241.191 330.727C239.991 346.327 227.358 368.727 221.191 377.727H212.191C214.412 375.173 216.682 371.904 218.876 368.227M222.691 361.276C215.091 356.516 209.191 336.926 207.191 327.727C206.391 330.127 202.691 329.227 200.691 330.227C199.691 335.727 211.191 359.227 218.876 368.227M222.691 361.276C221.465 363.695 220.184 366.033 218.876 368.227M190.691 405.227L204.191 390.727L205.191 400.727L190.691 405.227Z" stroke="#999898" strokeLinecap="round"/>
    <path d="M247.691 395.727C250.858 428.393 256.891 494.127 255.691 495.727" stroke="#999898"/>
    <path d="M251.691 367.727C253.858 375.893 254.891 393.827 241.691 400.227" stroke="#999898"/>
    <path d="M323.726 225.871C323.868 226.343 323.9 226.858 323.818 227.34C323.736 227.823 323.544 228.248 323.27 228.553C322.996 228.857 322.656 229.025 322.298 229.031C321.941 229.037 321.586 228.881 321.285 228.587C320.985 228.292 320.755 227.875 320.63 227.395C320.504 226.916 320.49 226.401 320.589 225.925C320.688 225.45 320.896 225.04 321.18 224.755C321.465 224.471 321.812 224.327 322.17 224.346L322.177 225.041C322.184 225.791 322.984 226.266 323.647 225.914L323.726 225.871Z" fill="#999898"/>
    <path d="M347.728 223.832C347.863 224.292 347.894 224.795 347.818 225.266C347.742 225.737 347.561 226.152 347.304 226.448C347.047 226.745 346.726 226.907 346.389 226.912C346.052 226.918 345.716 226.765 345.432 226.477C345.148 226.188 344.93 225.78 344.811 225.312C344.692 224.844 344.677 224.341 344.769 223.877C344.862 223.414 345.056 223.014 345.324 222.737C345.592 222.46 345.918 222.321 346.256 222.339L346.264 222.978C346.273 223.724 347.074 224.191 347.728 223.832V223.832Z" fill="#999898"/>
    <path d="M346.692 288.227C340.692 285.227 347.692 278.727 349.192 275.227L357.692 288.227L351.692 299.227L346.692 288.227Z" fill="#BEE8FF"/>
    <path d="M368.192 299.227C366.992 295.627 362.025 290.393 359.692 288.227C371.292 283.827 380.192 266.06 383.192 257.727L380.192 255.227C383.661 255.858 390.323 257.98 390.692 261.595C390.713 261.801 390.713 262.011 390.692 262.227C389.692 272.227 369.692 303.727 368.192 299.227Z" fill="#BEE8FF"/>
    <path d="M356.191 319.227C357.025 317.727 358.891 315.627 359.691 319.227C360.691 323.727 355.691 322.227 356.191 319.227Z" fill="#BEE8FF"/>
    <path d="M355.691 304.727C356.358 302.56 358.692 300.227 359.191 304.727C359.522 307.708 355.191 305.227 355.691 304.727Z" fill="#BEE8FF"/>
    <path d="M314.191 421.727C314.191 417.727 320.691 414.727 322.191 420.227C322.191 427.227 314.691 424.727 314.191 421.727Z" fill="#BEE8FF"/>
    <path d="M327.192 312.727C327.192 305.727 338.192 293.427 344.192 286.227M358.692 288.227C361.692 299.227 361.692 325.727 362.692 331.227M390.692 261.595C407.692 276.095 440.692 286.227 433.692 398.227C431.305 417.32 440.311 443.249 430.691 447.736M333.192 386.727C333.692 401.727 334.692 435.927 334.692 452.727C337.066 453.427 339.399 454.067 341.691 454.649M399.192 293.227C394.192 303.727 394.692 342.227 392.192 354.227M424.692 340.227C423.525 348.56 420.692 365.827 418.692 368.227M387.692 367.227C386.1 366.727 383.871 364.427 387.692 359.227C391.512 354.027 392.95 354.727 393.192 355.727C402.025 358.727 419.492 366.127 418.692 371.727C417.889 377.344 414.189 381.029 410.692 380.716M387.992 367.218C393.326 370.384 404.992 377.327 408.192 379.727C408.982 380.319 409.831 380.639 410.692 380.716M395.192 369.227L399.192 360.227M398.192 369.227L402.192 361.727M401.692 372.227L405.192 363.227M404.192 373.727L408.192 364.727M406.692 374.727L410.692 366.227M408.192 376.727L413.192 368.227M411.692 378.227L415.692 370.227M393.192 367.227L396.692 359.227M390.192 365.227L394.192 358.227M387.692 363.227L392.192 357.227M299.192 376.727C298.724 373.918 297.803 369.532 296.661 366.227M410.692 380.716C409.692 390.655 383.691 391.227 378.691 388.727C373.691 386.227 337.691 385.227 320.191 386.727C302.691 388.227 299.192 382.727 297.192 382.227C295.192 381.727 290.692 361.727 293.692 361.727C294.744 361.727 295.77 363.648 296.661 366.227M385.191 366.227C375.858 368.727 353.591 373.723 351.991 373.723M296.661 366.227C296.338 363.06 296.392 357.227 299.192 359.227C301.991 361.227 304.025 371.727 304.691 376.727C304.525 370.56 304.791 358.427 307.191 359.227C310.191 360.227 309.691 372.727 311.691 373.727C313.691 374.727 311.691 363.227 315.191 363.227C318.691 363.227 317.691 375.227 320.191 376.727M341.691 454.649C386.508 466.027 415.495 455.362 424.692 448.227C424.358 443.06 424.092 432.927 425.692 433.727C427.292 434.527 428.692 443.727 429.192 448.227C429.736 448.113 430.234 447.949 430.691 447.736M341.691 454.649L342.691 495.727M375.191 469.727C375.191 478.393 375.391 495.727 376.191 495.727M269.191 437.227C275.191 437.393 288.791 433.927 295.191 418.727M271.691 445.727C274.858 446.56 282.591 447.027 288.191 442.227M430.691 447.736V492.227M307.191 215.727C308.483 220.71 310.702 227.805 313.148 234.774C318.638 250.416 329.719 275.664 345.691 271.227V271.227C354.691 268.727 368.191 254.227 367.191 242.227C367.085 240.947 367 239.783 366.936 238.727M363.191 217.727C366.691 212.727 370.191 213.727 371.691 218.727C372.891 222.727 369.191 227.393 367.191 229.227C366.902 229.516 366.513 231.858 366.936 238.727M365.191 218.727C367.025 218.727 369.691 219.927 365.691 224.727M343.191 215.727C345.025 215.227 349.292 214.527 351.692 215.727M315.191 222.227C316.525 221.06 319.891 218.727 322.691 218.727M333.191 230.227C334.858 234.06 337.591 242.727 335.191 246.727C332.791 250.727 337.525 250.06 340.191 249.227M334.691 255.727C337.191 257.227 342.891 258.727 345.691 252.727M327.691 207.727C322.691 214.227 309.191 216.227 307.191 215.227C305.591 214.427 303.191 221.56 302.191 225.227C300.858 223.227 298.491 217.827 299.691 212.227C300.091 209.827 297.191 214.227 295.691 216.727C295.525 210.06 297.191 195.827 305.191 192.227C304.391 191.827 301.858 192.06 300.691 192.227C307.025 182.56 324.591 164.627 344.191 170.227C358.591 175.427 361.191 182.393 360.691 185.227C365.524 183.893 375.691 186.627 377.691 208.227C378.091 229.827 370.687 237.56 366.936 238.727M193.691 281.227C193.025 282.06 192.291 284.127 194.691 285.727M164.691 343.227C167.858 338.56 175.691 328.527 181.691 325.727M162.191 329.227C161.191 331.56 159.191 337.027 159.191 340.227M244.691 268.227C244.358 270.227 243.991 274.327 245.191 274.727M247.191 275.227C247.858 276.727 248.791 280.027 247.191 281.227M248.691 271.727C250.025 273.227 252.191 277.327 250.191 281.727M252.691 271.727C254.025 273.393 255.891 277.727 252.691 281.727M257.191 277.727C257.358 279.393 257.291 282.727 255.691 282.727M259.691 276.727C260.358 278.227 260.991 281.627 258.191 283.227M246.691 285.727C245.025 287.06 242.391 291.427 245.191 298.227M250.691 286.227C248.858 287.393 245.691 291.427 247.691 298.227M254.191 285.727C254.025 287.06 252.991 290.027 250.191 291.227M258.191 285.727C257.858 287.893 255.991 292.327 251.191 292.727M242.691 299.227C242.191 300.56 241.491 303.527 242.691 304.727M239.691 303.227C239.358 304.56 238.991 307.227 240.191 307.227M246.191 263.727C247.691 267.227 252.291 272.527 258.691 265.727M247.691 262.227C249.025 264.06 252.491 267.327 255.691 265.727M250.691 261.727C251.691 261.893 253.891 262.527 254.691 263.727M250.691 256.727C251.691 258.06 254.291 260.627 256.691 260.227M249.191 238.727C251.525 240.727 255.391 246.727 252.191 254.727M252.191 235.727C255.191 238.727 259.891 247.027 254.691 256.227M237.691 251.227C237.525 252.56 236.491 255.327 233.691 255.727M235.191 257.227C238.191 256.727 243.891 254.227 242.691 248.227M244.691 242.227C246.691 246.06 248.191 254.727 238.191 258.727M216.691 243.727C216.691 245.393 217.191 248.727 219.191 248.727M213.691 242.227C213.525 244.893 214.191 250.527 218.191 251.727M242.191 228.227C240.525 231.56 238.391 239.327 243.191 243.727M238.691 229.227C237.025 232.727 234.791 240.527 239.191 243.727M233.191 232.227C232.525 235.06 232.091 241.627 235.691 245.227M227.691 248.227C227.358 249.727 226.291 252.527 224.691 251.727M230.691 246.227C230.358 249.227 229.091 255.127 226.691 254.727M230.191 236.727C228.025 237.56 223.991 240.927 225.191 247.727M226.191 233.727C223.858 236.06 219.791 241.727 222.191 245.727M215.191 226.227C218.025 225.393 224.691 225.127 228.691 230.727M216.191 222.727C219.525 222.103 227.091 222.33 230.691 228.227M216.191 221.227C218.858 219.393 225.891 217.927 232.691 226.727M214.191 233.727C214.858 231.393 217.891 227.627 224.691 231.227M219.191 241.227C218.691 238.893 218.591 233.927 222.191 232.727M217.191 233.227C216.025 234.393 213.791 237.227 214.191 239.227M210.691 236.727C209.525 234.227 208.491 228.327 213.691 224.727M203.691 228.227C203.191 225.893 203.091 221.127 206.691 220.727M209.691 224.227C207.691 227.06 204.491 233.827 207.691 238.227M200.191 231.227C199.025 230.227 197.191 227.527 199.191 224.727M203.191 234.227C200.525 235.393 196.091 239.927 199.691 248.727M198.691 233.227C195.858 235.227 191.191 241.527 195.191 250.727M190.191 236.227C188.858 236.56 186.691 237.927 188.691 240.727M187.191 234.727C185.691 235.727 183.391 238.527 186.191 241.727M188.691 231.227C185.025 232.227 179.091 235.927 184.691 242.727M194.064 233.227C191.606 236.56 187.691 245.027 191.691 252.227M200.691 253.227C202.358 252.893 205.791 251.727 206.191 249.727M199.691 255.727C202.525 255.727 208.391 254.527 209.191 249.727M199.691 257.727C200.191 257.227 208.191 259.727 211.191 252.227M193.191 258.227C192.858 259.393 191.491 261.627 188.691 261.227M196.691 257.727C196.525 259.56 194.891 263.427 189.691 264.227M185.691 246.727C185.586 249.06 186.138 254.227 189.191 256.227M204.191 237.227C203.525 238.56 202.491 241.427 203.691 242.227M203.691 310.727C203.858 310.227 204.391 309.427 205.191 310.227M200.691 305.227C200.358 305.893 199.991 307.327 201.191 307.727M198.191 302.727C197.691 303.56 197.091 305.527 198.691 306.727M196.691 299.227C195.358 301.06 193.491 305.327 196.691 307.727M192.691 297.227C191.858 297.56 190.491 298.627 191.691 300.227M190.691 293.727C189.358 294.893 187.191 298.027 189.191 301.227M189.691 291.227C187.691 292.727 184.191 296.827 186.191 301.227M181.191 268.227C180.525 269.393 179.591 272.127 181.191 273.727M178.191 266.727C177.191 267.56 175.791 270.227 178.191 274.227M179.191 279.727C180.858 279.227 184.091 276.927 183.691 271.727M178.691 284.227C181.191 284.06 186.091 281.527 185.691 272.727M180.691 286.727C182.525 286.393 186.391 284.827 187.191 281.227M181.691 289.727C182.858 289.727 185.591 289.027 187.191 286.227M176.191 280.227C174.858 281.56 173.091 285.227 176.691 289.227M176.691 263.227C174.025 264.56 169.891 269.027 174.691 276.227M183.191 247.227C182.191 247.06 180.591 247.527 182.191 250.727M184.191 255.727C183.025 256.56 181.191 258.727 183.191 260.727M182.691 253.727C180.858 254.06 177.791 255.727 180.191 259.727M349.192 275.227C347.692 278.727 340.692 285.227 346.692 288.227L351.692 299.227L357.692 288.227L349.192 275.227ZM359.692 288.227C362.025 290.393 366.992 295.627 368.192 299.227C369.692 303.727 389.692 272.227 390.692 262.227C391.092 258.227 383.858 255.893 380.192 255.227L383.192 257.727C380.192 266.06 371.292 283.827 359.692 288.227ZM356.191 319.227C357.025 317.727 358.891 315.627 359.691 319.227C360.691 323.727 355.691 322.227 356.191 319.227ZM355.691 304.727C356.358 302.56 358.692 300.227 359.191 304.727C359.522 307.708 355.191 305.227 355.691 304.727ZM314.191 421.727C314.191 417.727 320.691 414.727 322.191 420.227C322.191 427.227 314.691 424.727 314.191 421.727Z" stroke="#999898" strokeLinecap="round"/>
    <path d="M209.722 275.952C209.88 276.446 209.913 276.986 209.817 277.493C209.721 278 209.501 278.447 209.189 278.768C208.877 279.089 208.489 279.267 208.084 279.276C207.679 279.284 207.277 279.123 206.938 278.816C206.6 278.509 206.342 278.072 206.202 277.57C206.063 277.068 206.051 276.528 206.166 276.028C206.281 275.529 206.519 275.098 206.843 274.797C207.167 274.497 207.562 274.345 207.967 274.362L207.972 275.214C207.975 275.954 208.754 276.434 209.416 276.104L209.722 275.952Z" fill="#999898"/>
    <path d="M234.165 274.803C234.302 275.243 234.332 275.724 234.25 276.175C234.168 276.627 233.978 277.024 233.709 277.31C233.441 277.595 233.107 277.753 232.757 277.759C232.407 277.766 232.06 277.622 231.767 277.348C231.473 277.074 231.25 276.684 231.129 276.237C231.007 275.79 230.995 275.308 231.094 274.864C231.192 274.419 231.397 274.036 231.676 273.769C231.956 273.502 232.296 273.367 232.646 273.383L232.65 273.95C232.655 274.694 233.442 275.172 234.105 274.834L234.165 274.803Z" fill="#999898"/>
    <path d="M311.966 0.893381H282.254C271.5 0.5 268.167 7.20045 268.167 14.9806V87.4959C268.167 95.276 271 101.001 282.254 101.583H314.5C322.28 101.583 326.053 95.276 326.053 87.4959V14.9806C326.053 7.20045 323 0.893381 311.966 0.893381Z" fill="#BEE8FF"/>
    <path d="M315.057 102.257H279.169C276.075 102.253 273.108 101.023 270.92 98.835C268.732 96.6472 267.501 93.6808 267.498 90.5866V11.887C267.501 8.79285 268.732 5.82645 270.92 3.63861C273.108 1.45078 276.075 0.220185 279.169 0.216797H315.061C318.154 0.221228 321.12 1.45232 323.307 3.64007C325.494 5.82782 326.724 8.79362 326.727 11.887V90.5817C326.725 93.6766 325.495 96.6443 323.307 98.8332C321.119 101.022 318.152 102.253 315.057 102.257V102.257ZM279.169 1.56712C276.432 1.5692 273.807 2.65689 271.871 4.59158C269.935 6.52626 268.845 9.14994 268.841 11.887V90.5817C268.843 93.3201 269.932 95.9458 271.868 97.8822C273.805 99.8186 276.43 100.907 279.169 100.909H315.061C317.798 100.905 320.422 99.8156 322.356 97.8794C324.291 95.9432 325.378 93.3187 325.38 90.5817V11.887C325.377 9.1502 324.288 6.52635 322.353 4.59111C320.418 2.65587 317.794 1.56728 315.057 1.56416L279.169 1.56712Z" fill="#999898"/>
    <path d="M326.051 11.5996H268.165V87.5296H326.051V11.5996Z" fill="#333436"/>
    <path d="M326.048 88.2051H268.164C267.986 88.2051 267.814 88.1341 267.688 88.0077C267.562 87.8814 267.491 87.7101 267.491 87.5314V11.6014C267.491 11.4227 267.562 11.2514 267.688 11.125C267.814 10.9987 267.986 10.9277 268.164 10.9277H326.048C326.226 10.9277 326.398 10.9987 326.524 11.125C326.65 11.2514 326.721 11.4227 326.721 11.6014V87.5314C326.721 87.7101 326.65 87.8814 326.524 88.0077C326.398 88.1341 326.226 88.2051 326.048 88.2051V88.2051ZM268.835 86.8577H325.374V12.2751H268.838L268.835 86.8577Z" fill="#999898"/>
    <path d="M302.91 93.6598H292.483C292.304 93.6598 292.133 93.5889 292.006 93.4625C291.88 93.3362 291.809 93.1648 291.809 92.9862C291.809 92.8075 291.88 92.6361 292.006 92.5098C292.133 92.3835 292.304 92.3125 292.483 92.3125H302.91C303.089 92.3125 303.26 92.3835 303.386 92.5098C303.513 92.6361 303.584 92.8075 303.584 92.9862C303.584 93.1648 303.513 93.3362 303.386 93.4625C303.26 93.5889 303.089 93.6598 302.91 93.6598V93.6598Z" fill="#999898"/>
    <g opacity="0.129">
    <path d="M322.176 11.7352C320.2 11.6791 318.227 11.5885 316.252 11.6131C310.933 11.5579 305.617 11.5668 300.303 11.6397C296.12 11.6683 291.936 11.8426 287.758 11.5599C282.63 11.4013 277.503 11.098 272.37 11.3009C271.651 11.3137 270.931 11.3097 270.213 11.2743C269.778 11.1859 269.327 11.2319 268.919 11.4063C268.507 11.5847 268.168 11.8992 267.96 12.2973C267.752 12.6953 267.687 13.1527 267.775 13.593C267.864 14.0333 268.101 14.4298 268.447 14.7163C268.793 15.0027 269.227 15.1617 269.676 15.1667C272.178 15.3479 274.689 15.1499 277.196 15.208C280.185 15.1932 283.165 15.4414 286.152 15.5035C297.303 15.5705 308.458 15.6158 319.607 15.4208C321.085 15.4434 322.57 15.4139 324.05 15.3843C325.276 15.5212 326.521 14.9441 326.536 13.5612C326.387 11.1846 323.83 11.8249 322.176 11.7352Z" fill="#999898"/>
    </g>
    <path d="M325.893 23.6738C311.88 23.6738 300.519 35.4741 300.519 50.0311C300.501 55.7875 302.331 61.3977 305.739 66.037L302.632 78.7926L313.277 72.8969C317.089 75.1824 321.45 76.3895 325.894 76.3894C339.907 76.3894 351.268 64.5881 351.268 50.0311C351.268 35.4741 339.906 23.6738 325.893 23.6738Z" fill="#333436"/>
    <path d="M302.63 79.4681C302.528 79.4678 302.428 79.4445 302.336 79.3997C302.245 79.355 302.164 79.2902 302.101 79.21C302.038 79.1298 301.995 79.0364 301.973 78.9367C301.951 78.8371 301.952 78.7339 301.976 78.6349L305.009 66.1836C301.626 61.4792 299.819 55.8252 299.845 50.031C299.845 35.1263 311.53 23 325.893 23C340.256 23 351.941 35.1263 351.941 50.031C351.941 64.9357 340.256 77.0629 325.893 77.0629C321.46 77.058 317.106 75.8887 313.267 73.6719L302.957 79.3844C302.857 79.4392 302.745 79.468 302.63 79.4681V79.4681ZM325.893 24.3493C312.273 24.3493 301.192 35.8728 301.192 50.0329C301.166 55.6467 302.951 61.1193 306.28 65.6389C306.339 65.7184 306.379 65.8097 306.398 65.9063C306.417 66.0029 306.415 66.1026 306.392 66.1983L303.649 77.4598L312.949 72.3087C313.052 72.2515 313.169 72.2224 313.287 72.2243C313.404 72.2262 313.52 72.2591 313.621 72.3196C317.33 74.5381 321.57 75.7122 325.892 75.7175C339.512 75.7175 350.593 64.194 350.593 50.0329C350.593 35.8718 339.509 24.3493 325.893 24.3493V24.3493Z" fill="#999898"/>
    <path d="M283.097 21.8092C283.096 21.3388 283.236 20.8788 283.497 20.4875C283.758 20.0962 284.13 19.7912 284.564 19.611C284.999 19.4308 285.477 19.3836 285.939 19.4753C286.4 19.5669 286.824 19.7934 287.157 20.126C287.49 20.4586 287.716 20.8824 287.808 21.3439C287.9 21.8053 287.853 22.2836 287.673 22.7183C287.493 23.1529 287.188 23.5245 286.797 23.7859C286.406 24.0473 285.946 24.1868 285.475 24.1868C284.845 24.1868 284.24 23.9364 283.794 23.4905C283.348 23.0447 283.097 22.4399 283.097 21.8092V21.8092Z" fill="#575757"/>
    <path d="M285.476 24.8643C284.872 24.8643 284.282 24.6852 283.78 24.3497C283.278 24.0142 282.886 23.5374 282.655 22.9795C282.424 22.4216 282.364 21.8077 282.482 21.2154C282.599 20.6231 282.89 20.0791 283.317 19.6521C283.744 19.2251 284.288 18.9343 284.88 18.8165C285.473 18.6987 286.087 18.7591 286.644 18.9902C287.202 19.2213 287.679 19.6127 288.015 20.1148C288.35 20.6169 288.529 21.2072 288.529 21.811C288.529 22.6208 288.208 23.3974 287.635 23.97C287.062 24.5426 286.286 24.8643 285.476 24.8643V24.8643ZM285.476 20.1081C285.139 20.1081 284.809 20.2081 284.529 20.3955C284.249 20.5828 284.03 20.8491 283.901 21.1606C283.772 21.4721 283.738 21.8149 283.804 22.1456C283.87 22.4763 284.032 22.7801 284.271 23.0186C284.509 23.257 284.813 23.4194 285.143 23.4851C285.474 23.5509 285.817 23.5172 286.129 23.3881C286.44 23.2591 286.706 23.0406 286.894 22.7602C287.081 22.4798 287.181 22.1502 287.181 21.813C287.181 21.3607 287.001 20.9268 286.682 20.6068C286.362 20.2868 285.928 20.1067 285.476 20.1062V20.1081Z" fill="#999898"/>
    <path d="M294.618 21.8092C294.618 21.3389 294.757 20.879 295.018 20.4878C295.279 20.0966 295.651 19.7916 296.085 19.6113C296.52 19.431 296.998 19.3836 297.459 19.4751C297.92 19.5665 298.344 19.7926 298.677 20.125C299.01 20.4573 299.237 20.8808 299.329 21.342C299.421 21.8033 299.375 22.2815 299.195 22.7162C299.016 23.151 298.711 23.5227 298.32 23.7845C297.93 24.0462 297.47 24.1862 297 24.1868C296.687 24.1872 296.378 24.126 296.089 24.0067C295.8 23.8874 295.537 23.7123 295.316 23.4915C295.095 23.2707 294.92 23.0085 294.8 22.7199C294.68 22.4312 294.618 22.1218 294.618 21.8092Z" fill="#575757"/>
    <path d="M296.998 24.8643C296.394 24.8643 295.803 24.6852 295.301 24.3497C294.799 24.0142 294.408 23.5374 294.177 22.9795C293.946 22.4216 293.885 21.8077 294.003 21.2154C294.121 20.6231 294.412 20.0791 294.839 19.6521C295.266 19.2251 295.81 18.9343 296.402 18.8165C296.994 18.6987 297.608 18.7591 298.166 18.9902C298.724 19.2213 299.201 19.6127 299.536 20.1148C299.872 20.6169 300.051 21.2072 300.051 21.811C300.051 22.6208 299.729 23.3974 299.157 23.97C298.584 24.5426 297.807 24.8643 296.998 24.8643V24.8643ZM296.998 20.1081C296.66 20.1081 296.331 20.2081 296.05 20.3955C295.77 20.5828 295.552 20.8491 295.422 21.1606C295.293 21.4721 295.26 21.8149 295.325 22.1456C295.391 22.4763 295.554 22.7801 295.792 23.0186C296.03 23.257 296.334 23.4194 296.665 23.4851C296.996 23.5509 297.339 23.5172 297.65 23.3881C297.962 23.2591 298.228 23.0406 298.415 22.7602C298.602 22.4798 298.702 22.1502 298.702 21.813C298.702 21.3607 298.523 20.9268 298.203 20.6068C297.884 20.2868 297.45 20.1067 296.998 20.1062V20.1081Z" fill="#999898"/>
    <path d="M306.131 21.8092C306.131 21.3388 306.27 20.8788 306.531 20.4875C306.792 20.0962 307.164 19.7912 307.598 19.611C308.033 19.4308 308.511 19.3836 308.973 19.4753C309.434 19.5669 309.858 19.7934 310.191 20.126C310.524 20.4586 310.75 20.8824 310.842 21.3439C310.934 21.8053 310.887 22.2836 310.707 22.7183C310.527 23.1529 310.222 23.5245 309.831 23.7859C309.44 24.0473 308.98 24.1868 308.509 24.1868C307.879 24.1868 307.274 23.9364 306.828 23.4905C306.382 23.0447 306.131 22.4399 306.131 21.8092V21.8092Z" fill="#575757"/>
    <path d="M308.51 24.8643C307.906 24.8643 307.316 24.6852 306.814 24.3497C306.312 24.0142 305.921 23.5374 305.689 22.9795C305.458 22.4216 305.398 21.8077 305.516 21.2154C305.634 20.6231 305.924 20.0791 306.351 19.6521C306.778 19.2251 307.322 18.9343 307.915 18.8165C308.507 18.6987 309.121 18.7591 309.679 18.9902C310.237 19.2213 310.713 19.6127 311.049 20.1148C311.384 20.6169 311.563 21.2072 311.563 21.811C311.563 22.6208 311.242 23.3974 310.669 23.97C310.097 24.5426 309.32 24.8643 308.51 24.8643V24.8643ZM308.51 20.1081C308.173 20.1079 307.843 20.2078 307.563 20.395C307.282 20.5822 307.064 20.8484 306.934 21.1599C306.805 21.4714 306.771 21.8142 306.837 22.145C306.903 22.4758 307.065 22.7797 307.303 23.0182C307.542 23.2567 307.846 23.4192 308.176 23.4851C308.507 23.5509 308.85 23.5172 309.161 23.3882C309.473 23.2592 309.739 23.0407 309.927 22.7603C310.114 22.4799 310.214 22.1503 310.214 21.813C310.214 21.3608 310.035 20.9272 309.715 20.6071C309.396 20.2871 308.962 20.1069 308.51 20.1062V20.1081Z" fill="#999898"/>
    <g opacity="0.129">
    <path d="M288.607 23.8581C288.512 23.6407 288.363 23.4513 288.174 23.3083C287.985 23.1654 287.762 23.0735 287.527 23.0417C287.292 23.01 287.053 23.0393 286.833 23.1269C286.613 23.2145 286.419 23.3575 286.27 23.5419L286.257 23.5528C286.173 23.614 286.086 23.6699 285.995 23.7202V23.7202C285.884 23.7566 285.77 23.7891 285.656 23.8187H285.593C285.547 23.8187 285.501 23.8138 285.453 23.8098L285.29 23.7753C285.167 23.7409 285.07 23.7084 285.013 23.6887C284.943 23.6522 284.87 23.6109 284.806 23.5705C284.719 23.4805 284.619 23.4033 284.511 23.341C284.273 23.1896 283.995 23.1133 283.713 23.1221C283.431 23.1308 283.158 23.2242 282.93 23.3901C282.702 23.556 282.529 23.7866 282.434 24.0521C282.339 24.3175 282.326 24.6055 282.397 24.8784C282.725 25.8506 283.874 26.276 284.796 26.4927C286.211 26.8995 289.336 25.6733 288.607 23.8581Z" fill="#999898"/>
    </g>
    <g opacity="0.129">
    <path d="M300.434 23.7349C300.352 23.5414 300.223 23.3709 300.06 23.2383C299.897 23.1056 299.704 23.0149 299.498 22.974C299.291 22.933 299.078 22.943 298.877 23.0032C298.675 23.0634 298.491 23.1719 298.341 23.3193C298.273 23.3902 298.198 23.4532 298.126 23.5162L298.056 23.5625C297.735 23.7321 297.377 23.8153 297.015 23.8038C296.932 23.8038 296.849 23.7979 296.766 23.791C296.677 23.77 296.59 23.7444 296.503 23.7142C296.362 23.649 296.225 23.5749 296.094 23.4926L296.039 23.4562C295.902 23.3045 295.731 23.1873 295.54 23.1144C295.274 23.0058 294.979 22.9922 294.704 23.0758C294.429 23.1594 294.192 23.3351 294.031 23.5734C293.871 23.8117 293.797 24.098 293.823 24.3841C293.849 24.6702 293.973 24.9387 294.173 25.1443C294.737 25.6879 295.437 26.0693 296.2 26.2486C296.963 26.4278 297.76 26.3981 298.507 26.1627C299.487 25.8406 300.964 24.9562 300.434 23.7349Z" fill="#999898"/>
    </g>
    <g opacity="0.129">
    <path d="M311.88 23.9874C311.816 23.7856 311.703 23.6029 311.55 23.4559C311.398 23.3089 311.211 23.2022 311.007 23.1456C310.803 23.089 310.588 23.0842 310.382 23.1316C310.176 23.179 309.984 23.2772 309.825 23.4172C309.74 23.4713 309.649 23.5181 309.556 23.557L309.418 23.6161C309.372 23.6329 309.251 23.6762 309.106 23.7146C309.048 23.7294 308.996 23.7412 308.948 23.7511C308.84 23.7545 308.733 23.7525 308.626 23.7452C308.343 23.713 308.07 23.6232 307.823 23.4812C307.263 23.1857 306.667 22.6933 305.997 22.8784C305.77 22.9455 305.568 23.077 305.414 23.2569C305.26 23.4369 305.162 23.6576 305.131 23.8923C305.101 24.1269 305.139 24.3654 305.241 24.5788C305.343 24.7922 305.505 24.9714 305.708 25.0945C306.205 25.3917 306.718 25.662 307.245 25.9041C307.881 26.1209 308.555 26.2093 309.226 26.1641C310.397 26.1247 312.235 25.4481 311.88 23.9874Z" fill="#999898"/>
    </g>
    <path d="M315.8 61.372C315.69 61.3718 315.581 61.3444 315.483 61.2921C315.386 61.2399 315.303 61.1645 315.241 61.0725C315.18 60.9805 315.142 60.8748 315.131 60.7647C315.12 60.6546 315.137 60.5435 315.179 60.4413L325.273 35.9425C325.341 35.7773 325.472 35.6459 325.637 35.5772C325.802 35.5085 325.988 35.5081 326.153 35.5762C326.318 35.6442 326.449 35.7751 326.518 35.9401C326.587 36.105 326.587 36.2905 326.519 36.4557L316.425 60.9544C316.374 61.0782 316.287 61.184 316.176 61.2584C316.065 61.3327 315.934 61.3723 315.8 61.372V61.372Z" fill="#999898"/>
    <path d="M327.27 62.4973C327.183 62.4976 327.096 62.4805 327.015 62.4471C326.933 62.4134 326.859 62.3639 326.796 62.3015C326.734 62.239 326.684 62.1649 326.65 62.0832C326.616 62.0015 326.598 61.914 326.598 61.8255C326.598 61.737 326.615 61.6494 326.649 61.5676L336.742 37.0688C336.813 36.9072 336.944 36.7796 337.107 36.7134C337.27 36.6472 337.453 36.6476 337.616 36.7147C337.779 36.7817 337.909 36.9099 337.979 37.0719C338.049 37.2338 338.052 37.4166 337.988 37.581L327.899 62.0807C327.848 62.205 327.76 62.311 327.648 62.3853C327.536 62.4596 327.405 62.4986 327.27 62.4973V62.4973Z" fill="#999898"/>
    <path d="M341.067 45.1794H314.573C314.394 45.1794 314.223 45.1084 314.097 44.9821C313.97 44.8557 313.899 44.6844 313.899 44.5057C313.899 44.327 313.97 44.1557 314.097 44.0294C314.223 43.903 314.394 43.832 314.573 43.832H341.067C341.246 43.832 341.417 43.903 341.544 44.0294C341.67 44.1557 341.741 44.327 341.741 44.5057C341.741 44.6844 341.67 44.8557 341.544 44.9821C341.417 45.1084 341.246 45.1794 341.067 45.1794V45.1794Z" fill="#999898"/>
    <path d="M337.219 55.318H310.725C310.546 55.318 310.375 55.2471 310.249 55.1208C310.122 54.9944 310.051 54.823 310.051 54.6444C310.051 54.4657 310.122 54.2944 310.249 54.168C310.375 54.0417 310.546 53.9707 310.725 53.9707H337.219C337.398 53.9707 337.569 54.0417 337.695 54.168C337.822 54.2944 337.893 54.4657 337.893 54.6444C337.893 54.823 337.822 54.9944 337.695 55.1208C337.569 55.2471 337.398 55.318 337.219 55.318V55.318Z" fill="#999898"/>
    <path d="M278.822 68.8572C278.777 68.8572 278.733 68.8437 278.696 68.8185C278.659 68.7933 278.63 68.7576 278.614 68.716C278.597 68.6743 278.593 68.6287 278.603 68.5849C278.612 68.541 278.635 68.5011 278.667 68.4702L297.429 50.525C297.45 50.503 297.475 50.4854 297.503 50.4734C297.531 50.4614 297.561 50.4551 297.591 50.4551C297.622 50.455 297.652 50.4611 297.68 50.4731C297.708 50.485 297.733 50.5024 297.754 50.5244C297.775 50.5463 297.791 50.5723 297.802 50.6007C297.813 50.6292 297.817 50.6595 297.816 50.6899C297.815 50.7202 297.807 50.75 297.794 50.7774C297.781 50.8047 297.762 50.8291 297.739 50.8491L278.977 68.7942C278.936 68.8345 278.88 68.8571 278.822 68.8572V68.8572Z" fill="#999898"/>
    <path d="M278.585 76.0084C278.526 76.0088 278.47 75.9861 278.429 75.9453C278.386 75.904 278.361 75.8474 278.36 75.788C278.359 75.7285 278.382 75.671 278.423 75.6282C284.722 69.0785 291.208 62.5288 297.704 56.1486C297.746 56.1068 297.803 56.0835 297.863 56.084C297.923 56.0845 297.98 56.1086 298.021 56.151C298.063 56.1935 298.086 56.2508 298.086 56.3104C298.085 56.3699 298.061 56.4268 298.019 56.4686C291.526 62.841 285.043 69.3927 278.747 75.9394C278.726 75.9613 278.701 75.9787 278.673 75.9905C278.645 76.0024 278.615 76.0084 278.585 76.0084V76.0084Z" fill="#999898"/>
    <path d="M284.824 75.8775C284.78 75.8775 284.736 75.8643 284.7 75.8398C284.663 75.8152 284.634 75.7803 284.617 75.7395C284.6 75.6987 284.595 75.6537 284.604 75.6103C284.612 75.5669 284.633 75.5269 284.664 75.4954L298.828 61.1393C298.87 61.0968 298.927 61.0727 298.987 61.0723C299.046 61.0718 299.103 61.095 299.146 61.1368C299.188 61.1786 299.212 61.2355 299.213 61.2951C299.213 61.3547 299.19 61.412 299.148 61.4544L284.984 75.8115C284.963 75.8325 284.938 75.8492 284.911 75.8605C284.883 75.8719 284.854 75.8776 284.824 75.8775V75.8775Z" fill="#999898"/>
    <path d="M291.27 76.1872C291.226 76.1872 291.183 76.1742 291.146 76.1499C291.11 76.1256 291.081 76.091 291.064 76.0505C291.047 76.01 291.042 75.9654 291.05 75.9221C291.058 75.8788 291.078 75.8388 291.109 75.8071C294.179 72.6189 297.193 69.2948 300.071 65.9274C300.091 65.905 300.114 65.8867 300.141 65.8734C300.167 65.8602 300.196 65.8523 300.226 65.8502C300.255 65.8481 300.285 65.8518 300.313 65.8612C300.341 65.8705 300.367 65.8853 300.389 65.9047C300.412 65.9241 300.43 65.9478 300.443 65.9743C300.457 66.0007 300.465 66.0296 300.467 66.0591C300.469 66.0886 300.465 66.1183 300.456 66.1464C300.446 66.1745 300.431 66.2005 300.412 66.2229C297.531 69.5972 294.511 72.9282 291.435 76.1223C291.413 76.1437 291.387 76.1604 291.359 76.1716C291.331 76.1828 291.3 76.1881 291.27 76.1872V76.1872Z" fill="#999898"/>
    <path d="M297.768 75.9844C297.714 75.9846 297.662 75.9649 297.621 75.9292C297.576 75.8901 297.548 75.8347 297.544 75.7753C297.54 75.7159 297.559 75.6572 297.598 75.6121L301.348 71.2942C301.387 71.2491 301.442 71.2215 301.502 71.2173C301.561 71.2132 301.62 71.2329 301.665 71.272C301.71 71.3112 301.738 71.3667 301.742 71.4263C301.746 71.4858 301.727 71.5446 301.687 71.5897L297.938 75.9076C297.917 75.9317 297.891 75.9511 297.861 75.9643C297.832 75.9776 297.801 75.9844 297.768 75.9844V75.9844Z" fill="#999898"/>
    <g opacity="0.129">
    <path d="M325.149 76.3594C324.857 76.2848 324.551 76.2909 324.262 76.3771C324.151 76.384 324.039 76.387 323.927 76.386C322.319 76.1914 320.741 75.7981 319.23 75.2149L319.055 75.146C318.948 75.0879 318.485 74.8702 318.287 74.7815C317.417 74.4107 316.527 74.0911 315.62 73.8242C314.908 73.5023 314.16 73.2707 313.391 73.1348C313.033 73.1385 312.683 73.2407 312.38 73.4303C312.139 73.5662 311.888 73.6922 311.641 73.8144C309.749 74.7041 307.891 75.6601 306.066 76.6824C305.308 77.1204 304.524 77.5105 303.718 77.8506C303.35 78.0288 302.901 78.1273 302.678 78.5006C302.498 78.7389 302.396 79.0274 302.388 79.3259C302.379 79.6245 302.464 79.9183 302.63 80.1665C302.796 80.4147 303.036 80.605 303.315 80.7108C303.594 80.8166 303.9 80.8328 304.189 80.757C307.308 79.4835 310.262 77.8496 313.312 76.4234C315.201 77.3177 317.277 77.6792 319.206 78.4819C320.823 78.9655 322.514 79.6411 324.229 79.3614L323.827 79.4156C324.403 79.493 324.989 79.4179 325.527 79.1979C325.789 79.0417 325.999 78.8123 326.131 78.5378C326.264 78.2634 326.313 77.9561 326.273 77.654C326.233 77.3519 326.105 77.0682 325.905 76.8381C325.705 76.608 325.442 76.4416 325.149 76.3594V76.3594Z" fill="#999898"/>
    </g>
    <path d="M209.992 312.223L211.992 313.723L213.429 314.441C214.468 314.961 215.561 315.365 216.688 315.647L216.933 315.708C219.589 316.372 222.375 316.297 224.991 315.492V315.492C226.646 314.983 228.2 314.192 229.585 313.153L231.492 311.723L231.992 325.723V325.723C229.728 326.046 227.422 325.58 225.46 324.404L224.742 323.973L220.992 321.723L209.992 315.723V312.223Z" fill="#333030"/>
    <path d="M163.492 392.723L165.097 393.666C169.611 396.322 174.754 397.723 179.992 397.723V397.723V400.723L178.764 400.876C176.928 401.106 175.067 401.038 173.253 400.675L172.563 400.537C171.521 400.328 170.51 399.982 169.559 399.506V399.506C167.244 398.348 165.366 396.471 164.209 394.156L163.492 392.723Z" fill="#333030"/>
    <path d="M250.492 392.223L251.492 390.223V390.223C252.156 388.562 252.62 386.828 252.873 385.057L252.992 384.223L253.697 386.056C254.884 389.141 255.492 392.418 255.492 395.723V395.723L252.91 396.87C251.684 397.415 250.29 397.442 249.044 396.943L248.886 396.88C248.648 396.785 248.492 396.555 248.492 396.298V396.298C248.492 395.597 248.7 394.911 249.089 394.328L250.492 392.223Z" fill="#333030"/>
    <path d="M208.992 333.223L211.921 339.222C214.573 344.655 217.754 349.814 221.418 354.623L223.908 357.892L222.408 360.892L221.998 360.482C218.322 356.806 215.552 352.324 213.908 347.392V347.392L211.408 340.892L208.992 333.223Z" fill="#333030"/>
    <path d="M268 379L294.492 378.223L295.492 380.723L284.992 382.223L278.492 382.723H273.607C272.55 382.723 271.514 382.436 270.608 381.892V381.892C269.873 381.451 269.245 380.854 268.767 380.143L268 379Z" fill="#333030"/>
    <path d="M354.492 367.223V367.223C348.311 371.777 340.87 374.303 333.194 374.454L319.492 374.723L320.492 376.723L322.992 377.223H330.492L333.83 377.056C338.263 376.834 342.667 376.221 346.992 375.223V375.223L351.636 373.532C352.547 373.201 353.334 372.596 353.89 371.801V371.801C354.596 370.789 354.879 369.541 354.676 368.324L354.492 367.223Z" fill="#333030"/>
    <path d="M252.492 397.723L254.992 397.223L262.492 393.223L271.492 388.223L272.992 391.723L268.575 393.563C267.522 394.002 266.514 394.541 265.565 395.174L265.473 395.236C262.555 397.181 260.295 399.966 258.992 403.223V403.223L256.992 409.223L252.492 397.723Z" fill="#333030"/>
    <path d="M298.492 385.723L299.992 385.223V385.223C303.64 386.549 307.459 387.346 311.333 387.588L313.492 387.723L301.992 400.223L304.607 396.3C304.863 395.917 305.066 395.501 305.212 395.064V395.064C305.964 392.806 305.084 390.326 303.076 389.049L300.992 387.723L298.492 385.723Z" fill="#333030"/>
    <path d="M350 270L351.38 269.08C353.455 267.697 355.388 266.112 357.152 264.348V264.348C359.045 262.455 360.733 260.366 362.185 258.116L363.638 255.868C365.196 253.455 366.33 250.795 366.992 248V248L369 249.5L366.992 256.223L365.492 259.723L362.992 264.223L361.569 266.215C359.22 269.504 356.108 272.176 352.5 274V274L350 270Z" fill="#333030"/>
    <path d="M373.535 219.886C374.504 217.451 375.209 214.919 375.64 212.334L376.992 204.223L377.227 209.634C377.403 213.678 377.091 217.729 376.297 221.698L375.885 223.761C375.623 225.067 375.256 226.349 374.787 227.595L373.908 229.932C372.667 233.227 370.423 236.049 367.492 238V238V230L368.058 229.295C370.34 226.447 372.186 223.276 373.535 219.886V219.886Z" fill="#333030"/>
    <path d="M392.992 353.223L401.388 356.021C407.765 358.147 413.848 361.071 419.492 364.723V364.723L418.492 368.223L412.492 363.723L404.992 359.723L393.492 355.223L392.492 354.223L392.992 353.223Z" fill="#333030"/>
    <path d="M300.492 383.723L313.492 384.723L331.992 384.248L333.98 384.084C344.968 383.178 356.013 383.225 366.992 384.223V384.223L381.492 385.723L389.699 386.166C396.473 386.532 403.241 385.355 409.492 382.723V382.723L407.492 385.223V385.223C405.174 386.547 402.657 387.49 400.039 388.013L393.992 389.223L387.492 389.723L381.492 389.223L375.492 387.223L370.992 386.723L347.992 385.723H331.992L321.492 386.223L314.492 386.723L308.005 386.105C305.36 385.853 302.799 385.041 300.492 383.723V383.723Z" fill="#333030"/>
    <path d="M174.492 410.723V410.723C176.458 409.74 178.133 408.261 179.353 406.432L179.492 406.223V409.95C179.492 410.113 179.388 410.257 179.233 410.309V410.309C176.412 411.249 173.684 412.449 171.084 413.894L170.492 414.223V414.223C170.492 413.303 171.012 412.463 171.834 412.052L174.492 410.723Z" fill="#333030"/>
    <path d="M261.492 351.223L264.492 365.723L265.992 374.223L266.478 377.302C267.062 381 270.249 383.723 273.992 383.723V383.723L272.025 384.706C270.736 385.351 269.228 385.395 267.903 384.827V384.827C266.985 384.434 266.208 383.768 265.678 382.921L265.007 381.846C264.338 380.776 263.903 379.577 263.731 378.327L261.992 365.723L261.492 351.223Z" fill="#333030"/>
    <path d="M342.492 455.223L350.492 457.223L358.992 458.723L367.492 459.723L378.492 460.223H379.93C387.612 460.223 395.267 459.324 402.74 457.545L404.441 457.14C409.795 455.865 415.005 454.05 419.992 451.723V451.723L424.992 448.723V444.723V441.223V437.223L425.492 434.223L426.492 435.723L426.992 437.723L427.992 442.723L428.492 448.723H429.992V454.223V454.223C422.337 456.885 414.487 458.951 406.513 460.401L401.992 461.223V461.223C390.674 462.221 379.298 462.381 367.957 461.701L359.992 461.223L343.992 459.223L342.492 455.223Z" fill="#333030"/>
    </svg>
    