<svg xmlns="http://www.w3.org/2000/svg" xmlns:xlink="http://www.w3.org/1999/xlink" version="1.1" id="Layer_1" x="0px" y="0px" viewBox="0 0 130 119" style="enable-background:new 0 0 130 119;" xml:space="preserve">
    <style type="text/css">
        .st0{fill:#FFFFFF;}
        .st1{fill:#FFFFFF;stroke:#000000;stroke-miterlimit:10;}
        .st2{fill:#FFFFFF;stroke:#000000;stroke-width:0.25;stroke-miterlimit:10;}
        .st3{stroke:#000000;stroke-width:0.25;stroke-miterlimit:10;}
        .st4{fill:#ACD4F7;stroke:#000000;stroke-width:0.25;stroke-miterlimit:10;}
        .st5{fill:#ACD4F7;}
        .st6{opacity:0.1294;}
        .st7{fill:#ACD4F7;stroke:#000000;stroke-width:2;stroke-miterlimit:10;}
    </style>
    <g>
        <g>
            <path class="st5" d="M65.09,29.53c-2.74,13.63-5.32,27.31-7.72,41.04c-0.41,2.33-0.81,4.7-0.6,7.07c0.29,3.33,1.76,6.3,3.19,9.13    c1.75,3.46,3.49,6.92,5.84,10.35c2.8-6.36,5.3-12.92,7.43-19.59c0.72-15.21-4.24-29.99-4.64-45.22c-0.02-0.94-0.04-1.93-0.42-2.74    C67.78,28.74,66.9,28.22,65.09,29.53z"/>
            <path d="M65.79,97.62c-0.17,0-0.32-0.08-0.42-0.22c-2.37-3.46-4.15-6.99-5.87-10.41c-1.38-2.73-2.93-5.82-3.24-9.32    c-0.22-2.48,0.22-4.99,0.61-7.2c2.39-13.67,4.99-27.48,7.72-41.05c0.03-0.13,0.1-0.24,0.2-0.31c1.03-0.74,1.92-1.02,2.64-0.83    c0.52,0.14,0.93,0.5,1.19,1.06c0.41,0.89,0.44,1.9,0.47,2.88l0,0.07c0.18,6.76,1.28,13.55,2.34,20.12    c1.33,8.19,2.7,16.66,2.3,25.14c0,0.04-0.01,0.09-0.02,0.13c-2.1,6.58-4.61,13.19-7.45,19.64c-0.07,0.17-0.24,0.29-0.42,0.3    C65.82,97.62,65.81,97.62,65.79,97.62z M65.54,29.83c-2.72,13.49-5.3,27.23-7.67,40.82c-0.38,2.15-0.8,4.59-0.6,6.94    c0.29,3.3,1.8,6.3,3.13,8.94c1.58,3.13,3.21,6.36,5.29,9.52c2.66-6.13,5.02-12.39,7.02-18.63c0.39-8.35-0.97-16.74-2.29-24.86    c-1.07-6.6-2.18-13.43-2.35-20.25l0-0.07c-0.02-0.87-0.05-1.78-0.37-2.47c-0.13-0.28-0.3-0.45-0.53-0.51    C66.8,29.17,66.22,29.37,65.54,29.83z"/>
        </g>
        <g>
            <path class="st5" d="M68.56,22.56c-1.21-0.88-2.83-0.8-4.13-0.26c-1.92,0.79-3.54,1.92-3.9,3.96c-0.09,0.52,0.92,2.71,1.44,3.5    c0.62,0.93,2.18,2.64,3.53,2.75c1.15,0.09,2.23-0.59,3.09-1.36c1.56-1.39,2.84-3.46,2.34-5.5C70.63,24.42,69.76,23.43,68.56,22.56    z"/>
            <path d="M65.72,33.02c-0.09,0-0.18,0-0.26-0.01c-1.69-0.14-3.4-2.2-3.91-2.98c-0.43-0.65-1.65-3.07-1.51-3.86    c0.44-2.52,2.61-3.69,4.2-4.35c1.67-0.69,3.4-0.57,4.63,0.32c1.42,1.03,2.26,2.14,2.56,3.38c0.48,1.94-0.46,4.18-2.5,6    C67.8,32.53,66.75,33.02,65.72,33.02z M66.39,22.41c-0.63,0-1.26,0.15-1.77,0.36c-2.21,0.91-3.31,2.02-3.59,3.58    c-0.02,0.38,0.81,2.29,1.36,3.13c0.64,0.97,2.07,2.43,3.14,2.52c0.82,0.07,1.7-0.34,2.71-1.23c0.66-0.59,2.75-2.68,2.18-5    c-0.24-1-0.95-1.91-2.17-2.8l0,0C67.7,22.56,67.04,22.41,66.39,22.41z"/>
        </g>
    </g>
    </svg>