<svg width="55" height="67" viewBox="0 0 55 67" fill="none" xmlns="http://www.w3.org/2000/svg">
    <path d="M10.1706 28.9374C9.21414 28.9843 8.23742 29.0377 7.23999 29.0979C0.206636 30.8794 -1.5517 63.5414 8.99833 64.1352C19.5484 64.7291 52.3707 67.6984 52.3707 57.6028C52.3707 49.5264 52.3707 41.9647 52.3707 39.1934C53.1223 36.8001 51.313 33.2708 42.9929 30.9712M10.1706 28.9374C8.41222 18.6974 8.99833 -0.951218 25.4095 2.37437C41.8207 5.69995 43.9697 22.8246 42.9929 30.9712M10.1706 28.9374C26.2257 28.1496 36.5571 29.1925 42.9929 30.9712M27.7539 39.1934C30.6845 38.9812 34.2012 42.7567 28.9262 48.1014C28.9262 52.3772 28.9262 53.0502 28.9262 53.4461H25.4095V48.1014C23.2604 45.5281 19.5484 39.7875 27.7539 39.1934Z" stroke="#2089D4" strokeWidth="3"/>
    </svg>
    