<svg xmlns="http://www.w3.org/2000/svg" height="93" viewBox="0 0 107 93" fill="none">
    <path d="M1.24192 60.7763C-0.74465 64.8031 9.80417 70.329 21.8509 78.3599C28.8938 83.0551 42.4575 93.4376 47.4712 92.426C56.8608 90.5314 105.557 25.619 105.745 24.105C106.245 20.0849 68.068 -2.01864 64.5515 1.49882C50.4854 13.0522 8.47225 46.1206 1.24192 60.7763Z" fill="white" stroke="black"/>
    <path d="M20.722 78.3737L60.9174 36.6786L85.5348 10.5497" stroke="black" stroke-dasharray="4 4"/>
    <path d="M64.1745 25.178C64.2472 25.7141 64.1792 26.0911 64.0324 26.3267C63.1249 27.3869 61.6099 27.6774 59.9034 27.3916C58.1958 27.1056 56.429 26.2572 55.2206 25.2432C53.965 24.1896 52.8691 23.0011 52.3366 21.8062C52.0733 21.2155 51.9554 20.6404 52.0085 20.0866C52.0607 19.5432 52.2805 18.9863 52.7469 18.4245C53.0341 18.1449 53.4907 17.9223 54.0969 17.7923C54.7081 17.6612 55.4355 17.6324 56.2081 17.7138C57.7596 17.8773 59.4176 18.4761 60.6009 19.4692C61.8183 20.4907 62.9058 21.9396 63.5623 23.308C63.8904 23.9917 64.1009 24.6349 64.1745 25.178Z" stroke="black"/>
    <path d="M52.3822 19.0862C51.3773 20.5933 50.3783 22.6022 50.8753 23.6074C51.3724 24.6126 55.7301 28.5888 57.9084 29.1334C59.9179 29.6357 62.9306 27.6263 63.9353 26.6216" stroke="black"/>
    <path d="M70.3654 51.905C70.4381 52.441 70.3701 52.818 70.2234 53.0536C69.3158 54.1138 67.8008 54.4044 66.0943 54.1186C64.3867 53.8326 62.6199 52.9842 61.4115 51.9702C60.1559 50.9166 59.0601 49.7281 58.5275 48.5332C58.2642 47.9425 58.1463 47.3674 58.1995 46.8135C58.2516 46.2701 58.4714 45.7132 58.9379 45.1514C59.2251 44.8719 59.6817 44.6492 60.2878 44.5192C60.899 44.3881 61.6265 44.3594 62.399 44.4407C63.9505 44.6042 65.6085 45.2031 66.7919 46.1961C68.0092 47.2176 69.0967 48.6666 69.7532 50.0349C70.0813 50.7187 70.2918 51.3618 70.3654 51.905Z" stroke="black"/>
    <path d="M58.5731 45.8131C57.5682 47.3202 56.5693 49.3291 57.0663 50.3343C57.5633 51.3396 61.921 55.3157 64.0993 55.8603C66.1088 56.3627 69.1215 54.3532 70.1262 53.3485" stroke="black"/>
    <path d="M58.3073 64.9667C58.38 65.5028 58.312 65.8798 58.1652 66.1154C57.2577 67.1756 55.7427 67.4661 54.0362 67.1803C52.3286 66.8943 50.5618 66.0459 49.3534 65.0319C48.0978 63.9783 47.0019 62.7898 46.4694 61.5949C46.2061 61.0042 46.0882 60.4291 46.1414 59.8753C46.1935 59.3319 46.4133 58.775 46.8798 58.2132C47.167 57.9336 47.6236 57.711 48.2297 57.581C48.8409 57.4499 49.5684 57.4211 50.3409 57.5025C51.8924 57.666 53.5504 58.2648 54.7338 59.2579C55.9511 60.2794 57.0386 61.7283 57.6951 63.0967C58.0232 63.7804 58.2337 64.4236 58.3073 64.9667Z" stroke="black"/>
    <path d="M46.515 58.8749C45.5101 60.382 44.5111 62.3909 45.0082 63.3961C45.5052 64.4013 49.8629 68.3775 52.0412 68.9221C54.0507 69.4244 57.0634 67.415 58.0681 66.4103" stroke="black"/>
    <path d="M45.2473 79.0323C45.32 79.5683 45.2519 79.9454 45.1052 80.1809C44.1977 81.2412 42.6827 81.5317 40.9761 81.2459C39.2685 80.9599 37.5017 80.1115 36.2933 79.0975C35.0378 78.0439 33.9419 76.8554 33.4093 75.6605C33.1461 75.0698 33.0282 74.4947 33.0813 73.9408C33.1334 73.3974 33.3533 72.8406 33.8197 72.2787C34.1069 71.9992 34.5635 71.7765 35.1696 71.6465C35.7808 71.5154 36.5083 71.4867 37.2808 71.5681C38.8324 71.7315 40.4903 72.3304 41.6737 73.3234C42.891 74.3449 43.9785 75.7939 44.6351 77.1622C44.9631 77.846 45.1736 78.4891 45.2473 79.0323Z" stroke="black"/>
    <path d="M33.455 72.9404C32.4501 74.4475 31.4511 76.4565 31.9481 77.4617C32.4451 78.4669 36.8029 82.4431 38.9812 82.9876C40.9906 83.49 44.0034 81.4805 45.0081 80.4758" stroke="black"/>
    <path d="M50.2706 37.8394C50.3433 38.3755 50.2752 38.7525 50.1285 38.9881C49.221 40.0483 47.706 40.3388 45.9994 40.053C44.2919 39.767 42.525 38.9186 41.3166 37.9046C40.0611 36.851 38.9652 35.6625 38.4327 34.4676C38.1694 33.8769 38.0515 33.3018 38.1046 32.748C38.1568 32.2046 38.3766 31.6477 38.843 31.0859C39.1302 30.8063 39.5868 30.5837 40.193 30.4537C40.8042 30.3226 41.5316 30.2938 42.3041 30.3752C43.8557 30.5387 45.5136 31.1375 46.697 32.1306C47.9144 33.1521 49.0019 34.601 49.6584 35.9694C49.9865 36.6531 50.197 37.2963 50.2706 37.8394Z" stroke="black"/>
    <path d="M38.4784 31.7474C37.4735 33.2545 36.4745 35.2635 36.9715 36.2687C37.4686 37.2739 41.8263 41.2501 44.0046 41.7946C46.0141 42.297 49.0268 40.2876 50.0315 39.2828" stroke="black"/>
    <path d="M46.812 91.6231C56.847 90.3142 106.823 21.934 105.276 23.1236C99.6045 27.4866 62.5188 75.0436 39.8311 90.3141C41.4308 91.4776 42.6235 91.6231 46.812 91.6231Z" fill="#84CDEE"/>
    <path d="M38.2136 50.9011C38.2863 51.4371 38.2182 51.8141 38.0715 52.0497C37.164 53.1099 35.649 53.4005 33.9424 53.1146C32.2348 52.8286 30.468 51.9803 29.2596 50.9663C28.0041 49.9127 26.9082 48.7242 26.3756 47.5293C26.1124 46.9386 25.9945 46.3635 26.0476 45.8096C26.0997 45.2662 26.3196 44.7093 26.786 44.1475C27.0732 43.868 27.5298 43.6453 28.1359 43.5153C28.7472 43.3842 29.4746 43.3555 30.2471 43.4368C31.7987 43.6003 33.4566 44.1992 34.64 45.1922C35.8573 46.2137 36.9448 47.6626 37.6014 49.031C37.9294 49.7148 38.14 50.3579 38.2136 50.9011Z" stroke="black"/>
    <path d="M26.4213 44.8092C25.4164 46.3163 24.4174 48.3252 24.9144 49.3304C25.4114 50.3356 29.7692 54.3118 31.9475 54.8564C33.9569 55.3588 36.9697 53.3493 37.9744 52.3446" stroke="black"/>
    <path d="M25.1526 64.9667C25.2252 65.5028 25.1572 65.8798 25.0105 66.1154C24.1029 67.1756 22.5879 67.4661 20.8814 67.1803C19.1738 66.8943 17.407 66.0459 16.1986 65.0319C14.943 63.9783 13.8472 62.7898 13.3146 61.5949C13.0513 61.0042 12.9334 60.4291 12.9866 59.8753C13.0387 59.3319 13.2585 58.775 13.725 58.2132C14.0122 57.9336 14.4688 57.711 15.0749 57.581C15.6861 57.4499 16.4136 57.4211 17.1861 57.5025C18.7376 57.666 20.3956 58.2648 21.579 59.2579C22.7963 60.2794 23.8838 61.7283 24.5403 63.0967C24.8684 63.7804 25.0789 64.4236 25.1526 64.9667Z" stroke="black"/>
    <path d="M13.3602 58.8749C12.3553 60.382 11.3564 62.3909 11.8534 63.3961C12.3504 64.4013 16.7081 68.3775 18.8865 68.9221C20.8959 69.4244 23.9086 67.415 24.9134 66.4103" stroke="black"/>
    <path d="M84.4309 37.8393C84.5035 38.3753 84.4355 38.7524 84.2888 38.9879C83.3813 40.0482 81.8663 40.3387 80.1597 40.0529C78.4521 39.7669 76.6853 38.9185 75.4769 37.9045C74.2214 36.8509 73.1255 35.6624 72.5929 34.4675C72.3297 33.8768 72.2118 33.3017 72.2649 32.7479C72.317 32.2044 72.5369 31.6476 73.0033 31.0857C73.2905 30.8062 73.7471 30.5835 74.3532 30.4535C74.9644 30.3224 75.6919 30.2937 76.4644 30.3751C78.016 30.5385 79.6739 31.1374 80.8573 32.1304C82.0746 33.1519 83.1621 34.6009 83.8187 35.9692C84.1467 36.653 84.3572 37.2961 84.4309 37.8393Z" stroke="black"/>
    <path d="M72.6386 31.7474C71.6337 33.2545 70.6347 35.2635 71.1317 36.2687C71.6287 37.2739 75.9865 41.2501 78.1648 41.7946C80.1742 42.297 83.187 40.2876 84.1917 39.2828" stroke="black"/>
    <path d="M96.487 24.7775C96.5597 25.3135 96.4917 25.6906 96.3449 25.9262C95.4374 26.9864 93.9224 27.2769 92.2159 26.9911C90.5083 26.7051 88.7415 25.8567 87.5331 24.8427C86.2775 23.7891 85.1816 22.6006 84.6491 21.4057C84.3858 20.815 84.2679 20.2399 84.321 19.6861C84.3732 19.1427 84.593 18.5858 85.0594 18.024C85.3466 17.7444 85.8032 17.5218 86.4094 17.3917C87.0206 17.2607 87.748 17.2319 88.5206 17.3133C90.0721 17.4768 91.7301 18.0756 92.9134 19.0687C94.1308 20.0902 95.2183 21.5391 95.8748 22.9074C96.2029 23.5912 96.4134 24.2344 96.487 24.7775Z" stroke="black"/>
    <path d="M84.6947 18.6857C83.6898 20.1927 82.6908 22.2017 83.1878 23.2069C83.6849 24.2121 88.0426 28.1883 90.2209 28.7329C92.2304 29.2352 95.2431 27.2258 96.2478 26.2211" stroke="black"/>
    <path d="M75.0264 10.9879C75.1916 11.503 75.1904 11.8861 75.0871 12.1437C74.3787 13.3461 72.9377 13.8968 71.2074 13.9134C69.4762 13.93 67.5883 13.4032 66.2214 12.6158C64.8012 11.7976 63.5146 10.8188 62.7815 9.73525C62.4191 9.1996 62.2026 8.65393 62.1582 8.09932C62.1147 7.55514 62.2339 6.96845 62.595 6.33379C62.829 6.00839 63.2397 5.7094 63.8138 5.47554C64.3927 5.23972 65.104 5.08439 65.8788 5.02961C67.4351 4.91959 69.1721 5.21973 70.5108 5.99084C71.8878 6.78406 73.2116 8.02082 74.097 9.25347C74.5394 9.86944 74.859 10.466 75.0264 10.9879Z" stroke="black"/>
    <path d="M62.3521 7.04881C61.6259 8.70822 60.9931 10.8608 61.658 11.7637C62.3229 12.6667 67.3081 15.8207 69.5481 15.9765C71.6143 16.1203 74.2299 13.6156 75.0437 12.4508" stroke="black"/>
    <path d="M40.112 22.6984L60.921 36.6717L81.3056 51.8353" stroke="black" stroke-dasharray="4 4"/>
    <path d="M26.757 34.6558L47.3557 49.7315L69.9623 64.8028" stroke="black" stroke-dasharray="4 4"/>
    <path d="M12.9318 47.4964L33.5305 62.5721L57.9065 78.3673" stroke="black" stroke-dasharray="4 4"/>
    <path d="M52.1732 10.6369L72.9768 23.1079L93.5735 36.6717" stroke="black" stroke-dasharray="4 4"/>
    </svg>