<svg xmlns="http://www.w3.org/2000/svg" xmlns:xlink="http://www.w3.org/1999/xlink" version="1.1" id="Layer_1" x="0px" y="0px" viewBox="0 0 130 119" style="enable-background:new 0 0 130 119;" xml:space="preserve">
  <style type="text/css">
    .st0{fill:#FFFFFF;}
    .st1{fill:#ACD4F7;}
    .st2{opacity:0.1294;}
    .st3{fill:#ACD4F7;stroke:#000000;stroke-width:2;stroke-miterlimit:10;}
  </style>
  <g>
    <g>
      <path class="st0" d="M102.08,99.48c-0.03,3.82-3.8,13.04-6.74,15.4c-1.78,1.43-4.17,1.64-6.88,1.75    c-16.39,0.66-27.26,0.73-43.09,0.25c-0.34-0.01-0.66-0.01-1-0.01c-0.74,0-1.46,0.01-2.17,0.03c-2.22,0.07-4.26,0.13-6.08-0.45    c-0.23-0.07-0.46-0.15-0.67-0.24h-0.01c-0.87-0.37-1.66-0.9-2.41-1.67c-0.67-0.71-1.28-1.6-1.83-2.64    c-0.11-0.21-0.22-0.41-0.31-0.63c-2.15-4.47-3.21-11.07-2.96-15.98c0.38-7.75,0.43-15.21,0.48-22.43    c0.05-7.21,0.1-14.65,0.49-22.35c0.09-1.69,0.08-3.36,0.08-4.98c-0.02-6.03-0.03-11.24,4.5-14.69c0.92-0.69,1.9-1.37,2.94-2.08    c1.54-1.05,3.14-2.15,4.5-3.32c2.33-2.01,3.05-9.45,2-13.2l45.37,1.69c-0.66,4.86,1.57,11.6,5.93,13.93    c0.65,0.35,1.32,0.63,1.99,0.9c1.1,0.44,2.13,0.88,2.95,1.58c2.38,2.06,2.54,5.96,2.51,9.45c-0.11,10.74,0.07,20.47,0.22,29.86    C102.03,79.04,102.19,88.76,102.08,99.48z"/>
      <path d="M103.68,69.62c-0.15-9.39-0.31-19.1-0.22-29.82c0.04-3.9-0.17-8.27-3.14-10.83c-1.04-0.91-2.27-1.41-3.45-1.9    c-0.64-0.26-1.24-0.51-1.81-0.81c-3.57-1.92-5.96-8.36-4.81-12.98c0.07-0.27,0-0.55-0.16-0.77c-0.16-0.22-0.41-0.35-0.68-0.36    l-47.85-1.79c-0.35-0.01-0.67,0.16-0.84,0.47c-0.16,0.3-0.14,0.67,0.05,0.95c1.49,2.13,0.75,10.71-1.05,12.26    c-1.29,1.12-2.84,2.18-4.35,3.2c-1.01,0.69-2.05,1.42-3.01,2.14c-5.25,3.99-5.24,9.9-5.22,16.15c0,1.58,0,3.23-0.08,4.88    c-0.39,7.74-0.44,15.2-0.49,22.43c-0.04,7.19-0.1,14.65-0.48,22.35c-0.24,4.71,0.74,12.35,3.46,17.49    c0.1,0.22,0.22,0.42,0.34,0.62c0.54,0.94,1.15,1.78,1.82,2.49c3,3.13,6.83,3.02,10.53,2.91c1-0.02,2.03-0.05,3.06-0.02    c6.86,0.21,12.78,0.31,18.63,0.31c7.69,0,15.25-0.18,24.59-0.56c2.93-0.12,5.74-0.37,7.94-2.15c3.4-2.72,7.38-12.48,7.41-16.79    C104,88.76,103.84,79.03,103.68,69.62z M102.99,99.49c-0.04,4.13-3.97,13.6-7.08,16.09c-2.06,1.66-4.83,1.84-7.42,1.95    c-16.13,0.65-27.01,0.74-43.15,0.24c-4.87-0.14-9.5,1.02-12.97-2.6c-0.67-0.71-1.28-1.57-1.82-2.56    c-0.12-0.21-0.23-0.41-0.34-0.62c-2.43-4.84-3.44-12.03-3.21-16.74c0.77-15.45,0.2-29.33,0.97-44.79    c0.4-8.05-1.24-15.66,4.95-20.35c2.32-1.77,5.18-3.46,7.4-5.38c2.22-1.91,2.91-11.03,1.19-13.47l47.85,1.79    c-1.17,4.75,1.14,11.79,5.27,14.01c1.68,0.9,3.62,1.32,5.1,2.59c2.67,2.31,2.85,6.49,2.82,10.15    C102.35,61.27,103.2,78.02,102.99,99.49z"/>
      <path d="M102.56,39.8c0.03-3.66-0.15-7.84-2.82-10.15c-1.48-1.27-3.42-1.69-5.1-2.59c-4.13-2.22-6.45-9.26-5.27-14.01l-47.85-1.79    c1.71,2.44,1.03,11.56-1.19,13.47c-2.22,1.92-5.08,3.61-7.4,5.38c-6.19,4.69-4.55,12.3-4.95,20.35    c-0.77,15.45-0.2,29.33-0.97,44.79c-0.23,4.71,0.78,11.9,3.21,16.74c0.11,0.21,0.22,0.41,0.34,0.62c0.54,0.99,1.15,1.86,1.82,2.56    c3.47,3.62,8.1,2.46,12.97,2.6c16.14,0.5,27.02,0.41,43.15-0.24c2.59-0.11,5.36-0.29,7.42-1.95c3.1-2.5,7.03-11.96,7.08-16.09    C103.2,78.02,102.35,61.27,102.56,39.8z M102.08,99.48c-0.03,3.82-3.8,13.04-6.74,15.4c-1.78,1.43-4.17,1.64-6.88,1.75    c-16.39,0.66-27.26,0.73-43.09,0.25c-0.34-0.01-0.66-0.01-1-0.01c-0.74,0-1.46,0.01-2.17,0.03c-2.22,0.07-4.26,0.13-6.08-0.45    c-0.23-0.07-0.46-0.15-0.67-0.24h-0.01c-0.87-0.37-1.66-0.9-2.41-1.67c-0.67-0.71-1.28-1.6-1.83-2.64    c-0.11-0.21-0.22-0.41-0.31-0.63c-2.15-4.47-3.21-11.07-2.96-15.98c0.38-7.75,0.43-15.21,0.48-22.43    c0.05-7.21,0.1-14.65,0.49-22.35c0.09-1.69,0.08-3.36,0.08-4.98c-0.02-6.03-0.03-11.24,4.5-14.69c0.92-0.69,1.9-1.37,2.94-2.08    c1.54-1.05,3.14-2.15,4.5-3.32c2.33-2.01,3.05-9.45,2-13.2l45.37,1.69c-0.66,4.86,1.57,11.6,5.93,13.93    c0.65,0.35,1.32,0.63,1.99,0.9c1.1,0.44,2.13,0.88,2.95,1.58c2.38,2.06,2.54,5.96,2.51,9.45c-0.11,10.74,0.07,20.47,0.22,29.86    C102.03,79.04,102.19,88.76,102.08,99.48z"/>
    </g>
    <g>
      <path class="st1" d="M41.1,1.49c-6.32,0.61-3.96,8.53-3.94,11.41c0.01,0.92,0.09,1.86,0.58,2.68c1.35,2.23,4.94,2.53,7.92,2.53    c14.28,0.02,28.55,0.05,42.83,0.07c2.06,0,4.41-0.1,5.7-1.45c0.74-0.77,0.96-1.8,1.08-2.79c0.39-3.14,1.4-8.24-0.37-10.37    c-1.08-1.29-5-1.97-7.1-2.09C74.59,0.78,49.88,0.65,41.1,1.49z"/>
      <path d="M88.58,19.1c-0.03,0-0.06,0-0.09,0l-42.83-0.07c-3.21-0.01-7.1-0.35-8.69-2.97c-0.62-1.02-0.71-2.16-0.71-3.14    c0-0.48-0.08-1.14-0.17-1.91c-0.31-2.64-0.74-6.26,1.09-8.53c0.88-1.09,2.17-1.72,3.84-1.88l0,0C50-0.27,74.7-0.12,87.85,0.6    c0.06,0,6.04,0.35,7.75,2.41c1.8,2.16,1.21,6.39,0.74,9.79c-0.06,0.45-0.12,0.88-0.17,1.27c-0.14,1.09-0.4,2.33-1.33,3.3    C93.33,18.95,90.83,19.1,88.58,19.1z M41.18,2.4L41.18,2.4c-1.18,0.11-2.03,0.51-2.6,1.22c-1.35,1.67-0.98,4.85-0.7,7.18    c0.1,0.82,0.18,1.53,0.18,2.11c0.01,0.77,0.06,1.58,0.45,2.22c1.13,1.87,4.62,2.09,7.14,2.1l42.83,0.07    c2.04,0,4.05-0.14,5.04-1.17c0.56-0.58,0.73-1.43,0.84-2.27c0.05-0.4,0.11-0.84,0.17-1.3c0.38-2.72,0.95-6.83-0.34-8.38    c-0.72-0.87-3.98-1.62-6.45-1.76C74.78,1.7,49.87,1.57,41.18,2.4z"/>
    </g>
    <g>
      <path d="M96.64,43.01C96.64,43.01,96.64,43.01,96.64,43.01l-64.11-0.66c-0.17,0-0.3-0.14-0.3-0.31c0-0.17,0.14-0.3,0.3-0.3    c0,0,0,0,0,0l64.11,0.66c0.17,0,0.3,0.14,0.3,0.31C96.94,42.88,96.81,43.01,96.64,43.01z"/>
    </g>
    <g>
      <polygon class="st1" points="59.65,68.8 59.54,58.97 68.73,59.04 68.8,69.09 79.25,69.46 79.35,77.31 68.8,77.09 68.8,87.06     60.18,87.16 59.86,77.28 48.53,77.18 48.53,68.9   "/>
      <path d="M60.18,87.9c-0.4,0-0.73-0.32-0.74-0.72l-0.3-9.17l-10.62-0.09c-0.41,0-0.73-0.33-0.73-0.74V68.9    c0-0.41,0.33-0.74,0.73-0.74l10.38-0.1l-0.1-9.08c0-0.2,0.08-0.39,0.22-0.53c0.14-0.14,0.34-0.21,0.53-0.22l9.18,0.07    c0.4,0,0.73,0.33,0.73,0.73l0.07,9.34l9.74,0.35c0.39,0.01,0.71,0.34,0.71,0.73l0.11,7.85c0,0.2-0.08,0.39-0.22,0.53    c-0.14,0.14-0.34,0.21-0.54,0.21l-9.8-0.21v9.22c0,0.41-0.33,0.74-0.73,0.74L60.18,87.9C60.19,87.9,60.19,87.9,60.18,87.9z     M49.27,76.45l10.6,0.09c0.4,0,0.72,0.32,0.73,0.72l0.3,9.15l7.16-0.08v-9.24c0-0.2,0.08-0.39,0.22-0.53    c0.14-0.14,0.33-0.22,0.53-0.21l9.79,0.21l-0.09-6.38l-9.74-0.35c-0.4-0.01-0.71-0.34-0.71-0.73L68,59.77l-7.7-0.06l0.1,9.07    c0,0.2-0.07,0.39-0.21,0.53c-0.14,0.14-0.33,0.22-0.52,0.22l-10.38,0.1V76.45z"/>
    </g>
    <g>
      <path d="M29.28,104.87c-0.09,0-0.17-0.03-0.24-0.1c-0.13-0.13-0.12-0.34,0.01-0.47c3.5-3.39,7.23-6.64,11.07-9.64    c0.15-0.11,0.35-0.09,0.47,0.06c0.11,0.15,0.09,0.36-0.06,0.47c-3.83,2.98-7.53,6.21-11.02,9.59    C29.45,104.84,29.36,104.87,29.28,104.87z"/>
    </g>
    <g>
      <path d="M49,94.83c-6.24,5.33-12.22,11.06-17.81,17.07c-0.11-0.21-0.22-0.41-0.31-0.63c5.56-5.97,11.49-11.65,17.69-16.95    c0.14-0.12,0.35-0.1,0.47,0.04C49.16,94.5,49.15,94.71,49,94.83z"/>
    </g>
    <g>
      <path d="M56.19,95.97c-7.15,6.3-13.9,13.2-20.07,20.48c-0.23-0.07-0.46-0.15-0.67-0.24c6.22-7.38,13.05-14.36,20.3-20.74    c0.13-0.12,0.35-0.11,0.47,0.03C56.34,95.65,56.33,95.85,56.19,95.97z"/>
    </g>
    <g>
      <path d="M43.49,116.46c-0.08,0-0.17-0.03-0.23-0.09c-0.13-0.13-0.14-0.34-0.01-0.47l13.07-13.7c0.13-0.13,0.34-0.14,0.47-0.01    c0.13,0.13,0.14,0.34,0.01,0.47l-13.07,13.7C43.67,116.42,43.58,116.46,43.49,116.46z"/>
    </g>
    <g>
      <path d="M52.34,117.24c-0.08,0-0.16-0.03-0.22-0.08c-0.14-0.12-0.15-0.33-0.03-0.47l6.17-6.92c0.12-0.14,0.33-0.15,0.47-0.03    c0.14,0.12,0.15,0.33,0.03,0.47l-6.17,6.92C52.53,117.21,52.43,117.24,52.34,117.24z"/>
    </g>
    <g>
      <path d="M28.28,98.51c-0.08,0-0.15-0.03-0.21-0.08c-0.14-0.12-0.16-0.33-0.04-0.47c1.19-1.43,2.5-2.78,3.9-4.01    c0.14-0.12,0.35-0.11,0.47,0.03c0.12,0.14,0.11,0.35-0.03,0.47c-1.37,1.2-2.66,2.53-3.83,3.93    C28.47,98.47,28.37,98.51,28.28,98.51z"/>
    </g>
  </g>
  </svg>