<svg xmlns="http://www.w3.org/2000/svg" width="145" height="105" viewBox="0 0 145 105">
    <g id="Group_250" data-name="Group 250" transform="translate(989.253 933.32)">
      <path id="Path_223" data-name="Path 223" d="M-858.062-870.665h32.815l3.574,5.887,1.926.7,3.228,1.744,1.562,1.588a13.294,13.294,0,0,1,1.484,1.484c.026.182.6,1.614.625,1.692s1.874,5.44,1.874,6.482a32.729,32.729,0,0,0,.182,3.566c.156,1.588.26,2.473.286,4.009s-.078,2.6-.026,3.176a24.106,24.106,0,0,1,.03,4.061,8.383,8.383,0,0,0-.187,3.124c.13,2.811.113,2.265.187,4.451a18.819,18.819,0,0,0,.126,3.7,38.572,38.572,0,0,1,.234,6.82,13.912,13.912,0,0,1-.234,3.124,33.433,33.433,0,0,0-.677,5.076c-.026,1.952.026,1.64-.026,2.6a18.288,18.288,0,0,1-1.327,4.347c-.286.443-1.38,2.369-2.265,2.5a19.6,19.6,0,0,1-4.061.859,33.886,33.886,0,0,1-4.686.234c-2.655-.1-3.254,0-5.571.052a30.646,30.646,0,0,1-5.571,0,32.2,32.2,0,0,0-4.867-.313c-1.8,0-17.233.722-18.873.452s-1.562.338-5.388-.591a31.171,31.171,0,0,1-5.883-1.943L-871-803.764l-1.848-13.718s.755-6.9.573-7.679a24.868,24.868,0,0,1-.416-3.514c.026-.443.312-15.567.312-15.567l1.015-12,4.243-6.065,2.812-1.848" transform="translate(-80.799 -38.18)" fill="#e3f3ff"/>
      <path id="Path_224" data-name="Path 224" d="M-813.922-782.123c0-3.008.055-5.706-.022-8.4-.042-1.463.406-2.14,1.976-2.139,2.339,0,4.677-.183,7.189-.3v-8.849c3.3,0,6.438-.047,9.567.065.359.013.931.887.984,1.4.186,1.821.184,3.661.261,5.494.023.544.068,1.087.1,1.63,2.24,0,4.324.075,6.4-.029,1.149-.058,1.606.369,1.608,1.437,0,3.148,0,6.3,0,9.612H-793.6c0,2.392-.075,4.623.031,6.844.054,1.143-.334,1.617-1.419,1.618-3.141,0-6.283,0-9.611,0v-8.392Z" transform="translate(-121.686 -85.97)" fill="#70b5e9"/>
      <path id="Path_225" data-name="Path 225" d="M-826.384-908.845H-859.2c-.225,3.576-2.621,5.629-5.7,7.121-5.536,2.683-7.536,7.554-7.783,13.238-.3,6.82-.261,13.654-.33,20.483-.043,4.282.005,8.565-.041,12.846a4.205,4.205,0,0,1-.562,1.382c-.281-.448-.794-.892-.8-1.346-.075-3.464-.081-6.929-.053-10.394.053-6.678-.015-13.362.285-20.029a42.139,42.139,0,0,1,1.627-9.427,11.8,11.8,0,0,1,6.656-7.579,10.432,10.432,0,0,0,3-1.792,15.7,15.7,0,0,0,2.59-3.655c.257-.479-.066-1.327-.25-1.97a19.534,19.534,0,0,1-1.183-3.806c-.184-2.792-.111-5.605-.038-8.407.064-2.44.674-3.139,3.077-3.262,3.457-.176,6.924-.218,10.387-.224q9.784-.017,19.568.081c4.5.049,4.993.6,4.992,5.044,0,2.4.074,4.8-.048,7.186a4.956,4.956,0,0,1-.87,2.822,2.827,2.827,0,0,0-.062,3.892,10.316,10.316,0,0,0,3.691,3.281c7.155,3,9.5,8.951,9.746,15.944.356,10.135.311,20.284.447,30.428.046,3.414.433,6.858.107,10.235-.382,3.956-1.937,7.925-6.834,9.151a31.02,31.02,0,0,1-6.033.841,336.267,336.267,0,0,1-41.1-.246,20.148,20.148,0,0,1-5.624-1.728c-.418-.165-.532-1.1-.786-1.685a11.044,11.044,0,0,1,1.569.189c1.71.451,3.394,1.308,5.111,1.368q12.288.434,24.588.489c5.955.02,11.911-.232,17.866-.394a11.645,11.645,0,0,0,6.664-1.874,6.4,6.4,0,0,0,2.964-5.648c-.108-12.439-.062-24.878-.084-37.317-.007-3.988-.2-7.951-1.847-11.684a11.82,11.82,0,0,0-5.477-5.949c-.5-.258-.985-.534-1.481-.794C-824.05-903.5-826.2-905.462-826.384-908.845Zm-10.5-3.094-.172.013v-12.205h-11.872v12.185h-.3v-12.494c-2.932,0-5.734.129-8.518-.037-2.675-.159-3,.853-2.994,3.039.007,2.853.1,5.707.239,8.557a3,3,0,0,0,.7,1.58c1.253,1.569,2.888,1.213,4.8.791v-11.44l.678-.031c.514,1.837.134,3.774.2,5.654.065,1.965.014,3.933.014,5.929,2.169,0,4.3-.042,6.419.019.935.027,1.251-.305,1.278-1.215.083-2.851.226-5.7.356-8.551.023-.51.095-1.019.144-1.528l.453.038v11.2h3.316v-10.389l.221.006c.165,3.439.329,6.879.5,10.446h9.991v-11.4l.47-.02q.258,5.7.516,11.414c.89.092,1.646.191,2.406.243,1.055.073,2.92-1.333,2.95-2.369.1-3.361.156-6.725.125-10.086-.013-1.334-.819-1.936-2.227-1.89-2.647.086-5.3.049-7.948.061-1.894.009-1.895.007-1.84,1.977.033,1.172.091,2.343.1,3.515C-836.869-916.6-836.88-914.269-836.88-911.94Z" transform="translate(-79.663 0)"/>
      <path id="Path_226" data-name="Path 226" d="M-972.6-709.935c7.586-1.939,15.162-3.92,22.763-5.8,3.183-.786,5.478.339,6.249,2.8A5.7,5.7,0,0,1-947-705.682a45.406,45.406,0,0,1-4.4,1.238c-6.248,1.655-12.508,3.264-18.743,4.97a5.5,5.5,0,0,1-6.2-1.746c-1.551-1.889-1.568-4-.5-6.326-1.25.8-2.493,1.609-3.753,2.394a5.482,5.482,0,0,1-6.915-.442c-2.663-2.532-2.207-6.006.9-8.249,4.492-3.242,9.322-6.016,14-9,2.148-1.369,4.244-2.823,6.43-4.125,3.013-1.8,5.589-1.4,7.133.956a5.7,5.7,0,0,1-1.57,7.977c-3.523,2.422-7.177,4.655-10.772,6.973-.466.3-.916.624-1.374.937Zm-2.991-8.5c.171,2.409.88,3.9,2.49,4.912a2.476,2.476,0,0,0,3.073-.01c2.353-1.609,4.907-2.934,7.186-4.633a11.648,11.648,0,0,0,3.2-3.711,3.43,3.43,0,0,0-.876-3.943,3.01,3.01,0,0,0-3.537-.529,10.525,10.525,0,0,0-1.927.911c-2.806,1.755-5.622,3.5-8.358,5.359A5.437,5.437,0,0,0-975.593-718.436Zm27.344,3.684c-4.17,1.089-8.341,2.174-12.506,3.283a1.055,1.055,0,0,0-.521.476,5.1,5.1,0,0,0,1.188,6.476,2.537,2.537,0,0,0,1.87.413c2.973-.66,5.935-1.388,8.865-2.219a10.528,10.528,0,0,0,3.135-1.5,4.335,4.335,0,0,0,1.383-4.819C-945.421-714.166-946.71-714.516-948.249-714.752Zm-24.545,3.033-.043-.381c-2.869-.948-5.732-1.917-8.617-2.815-.351-.109-.821.159-1.235.252a70.724,70.724,0,0,0,8.678,3.1A3.159,3.159,0,0,0-972.794-711.718Zm3.345,2.591-.111.421c2.475,1.761,4.939,3.539,7.442,5.26.287.2.794.075,1.2.1-2.431-2.084-4.87-3.892-7.347-5.645C-968.55-709.192-969.049-709.09-969.449-709.128Zm-1.68.414-.347.491c2.425,1.862,4.841,3.736,7.294,5.559.182.135.638-.1,1.355-.235C-965.9-704.905-968.358-707.049-971.129-708.714Zm-3.611-1.76c-3.18-1.252-6.228-2.676-9.591-3.009a86.849,86.849,0,0,0,8.356,3.227C-975.627-710.138-975.155-710.392-974.74-710.474Zm-.576,4.333-.479.091c.083.4.027,1,.271,1.173,1.829,1.271,3.066,3.454,5.37,4l.269-.385Zm-12.035-3.918-.448.409c.326.348.588.829.989,1.023,4.52,2.187,5.282,2.373,6.132,1.548Zm19.13,8.756.334-.511c-1.9-1.734-3.79-3.484-5.727-5.178-.2-.178-.7-.024-1.056-.024l.009.383Zm-8.812-7.835c-2.936-1.828-7.638-3.367-8.627-2.956C-982.69-711.033-980.028-709.594-977.031-709.138Zm-2.058,1.525.184-.553c-2.408-1.128-4.809-2.27-7.238-3.35-.175-.078-.555.305-1.1.631Zm13.684,5.3-7.137-5.672-.253.34C-971.421-705.739-966.569-702.046-965.405-702.314Zm2.8-3.572c-.5-2.108-3.5-4.177-5.013-3.516Zm-18.325-9.618,5.875,1.8C-976.36-715.54-979.812-716.554-980.927-715.5Zm8.692,14.829-3.812-3.528C-975.73-702.009-974.717-701.041-972.235-700.674Zm-10.9-5.307-4.387-2.03C-986.311-705.928-985.323-705.463-983.137-705.981Z" transform="translate(0 -137.146)"/>
      <path id="Path_227" data-name="Path 227" d="M-796.115-822.307c-1.464,0-2.727-.04-3.987.006-10.187.38-20.373.785-30.56,1.135-.457.016-.93-.438-1.395-.673.457-.273.905-.766,1.373-.785,11.356-.481,22.715-.885,34.07-1.382,1.557-.068,1.99.388,2.02,1.935.231,11.825.552,23.648.847,35.472.068,2.748.071,2.733-2.819,2.773q-16.667.232-33.333.474c-2.407.032-2.407,0-2.442-2.415-.094-6.575-.289-13.151-.247-19.726.029-4.481.38-8.961.614-13.44a14.924,14.924,0,0,1,.333-1.88l.526.034c0,.552.005,1.105,0,1.657-.106,9.378-.233,18.756-.3,28.134a41.218,41.218,0,0,0,.358,5.181c.043.361.627.948.955.943,11.467-.162,22.934-.381,34.4-.6a3.842,3.842,0,0,0,.71-.177Q-795.555-803.971-796.115-822.307Z" transform="translate(-108.743 -70.563)"/>
      <path id="Path_228" data-name="Path 228" d="M-805.669-909.274c0-2.33.011-4.659,0-6.988-.008-1.172-.066-2.343-.1-3.515-.055-1.97-.054-1.969,1.84-1.977,2.649-.012,5.3.026,7.948-.061,1.408-.046,2.214.556,2.227,1.89.031,3.361-.025,6.725-.125,10.086-.031,1.036-1.9,2.442-2.95,2.369-.76-.052-1.516-.151-2.406-.243q-.259-5.717-.516-11.414l-.47.02v11.4h-9.99c-.171-3.567-.335-7.007-.5-10.446l-.221-.006v10.389h-3.316v-11.2l-.453-.038c-.049.509-.121,1.017-.144,1.527-.13,2.85-.273,5.7-.356,8.551-.027.91-.342,1.242-1.278,1.215-2.123-.061-4.25-.019-6.419-.019,0-2,.05-3.964-.014-5.929-.062-1.88.317-3.817-.2-5.654l-.678.031v11.441c-1.908.422-3.543.778-4.8-.791a3.006,3.006,0,0,1-.7-1.58c-.139-2.849-.232-5.7-.239-8.557-.005-2.186.319-3.2,2.994-3.039,2.784.165,5.586.037,8.518.037v12.494h.3v-12.185h11.872v12.205Zm-14.571-1c.893-1.191.912-7.937,0-9.366Z" transform="translate(-110.873 -2.666)" fill="#70b5e9"/>
      <path id="Path_229" data-name="Path 229" d="M-944.593-715.233a5.439,5.439,0,0,1,1.249-1.645c2.736-1.861,5.552-3.6,8.358-5.359a10.516,10.516,0,0,1,1.927-.91,3.01,3.01,0,0,1,3.537.528,3.429,3.429,0,0,1,.876,3.943,11.646,11.646,0,0,1-3.2,3.711c-2.28,1.7-4.834,3.025-7.187,4.633a2.476,2.476,0,0,1-3.073.01C-943.713-711.335-944.422-712.824-944.593-715.233Z" transform="translate(-31 -140.349)" fill="#70b5e9"/>
      <path id="Path_230" data-name="Path 230" d="M-886.3-684.48c1.539.236,2.828.586,3.414,2.111a4.335,4.335,0,0,1-1.383,4.819,10.524,10.524,0,0,1-3.135,1.5c-2.93.831-5.892,1.559-8.865,2.219a2.537,2.537,0,0,1-1.87-.413,5.1,5.1,0,0,1-1.188-6.476,1.056,1.056,0,0,1,.521-.476C-894.637-682.306-890.465-683.391-886.3-684.48Z" transform="translate(-61.954 -167.418)" fill="#70b5e9"/>
      <path id="Path_231" data-name="Path 231" d="M-957.9-681.875a3.16,3.16,0,0,1-1.217.16,70.713,70.713,0,0,1-8.678-3.1c.414-.093.884-.362,1.235-.252,2.885.9,5.747,1.868,8.617,2.815Z" transform="translate(-14.897 -166.99)" fill="#fff"/>
      <path id="Path_232" data-name="Path 232" d="M-963.569-677.322c-.415.082-.888.336-1.235.219a86.856,86.856,0,0,1-8.356-3.228C-969.8-680-966.749-678.574-963.569-677.322Z" transform="translate(-11.171 -170.298)" fill="#fff"/>
      <path id="Path_233" data-name="Path 233" d="M-984.049-669.137l6.673,2.98c-.85.825-1.612.639-6.132-1.548-.4-.194-.663-.675-.989-1.023Z" transform="translate(-3.301 -178.068)" fill="#fff"/>
      <path id="Path_234" data-name="Path 234" d="M-968.874-672.989c-3-.456-5.659-1.895-8.627-2.956C-976.512-676.356-971.81-674.817-968.874-672.989Z" transform="translate(-8.157 -173.296)" fill="#fff"/>
      <path id="Path_235" data-name="Path 235" d="M-974.539-670.024-982.7-673.3c.55-.326.93-.709,1.1-.631,2.429,1.08,4.83,2.223,7.238,3.35Z" transform="translate(-4.55 -174.736)" fill="#fff"/>
      <path id="Path_236" data-name="Path 236" d="M-962.032-687.9c1.115-1.051,4.567-.037,5.875,1.8Z" transform="translate(-18.895 -164.75)" fill="#fff"/>
      <g id="Group_249" data-name="Group 249" transform="translate(-976.048 -846.673)">
        <path id="Path_237" data-name="Path 237" d="M-924.757-666.093c.4.038.9-.065,1.183.137,2.477,1.753,4.916,3.561,7.347,5.645-.405-.026-.912.1-1.2-.1-2.5-1.721-4.966-3.5-7.442-5.26Z" transform="translate(931.356 666.492)" fill="#fff"/>
        <path id="Path_238" data-name="Path 238" d="M-930.786-664.739c2.771,1.664,5.225,3.808,8.3,5.815-.717.136-1.173.37-1.355.235-2.454-1.823-4.869-3.7-7.294-5.559Z" transform="translate(935.704 665.552)" fill="#fff"/>
        <path id="Path_239" data-name="Path 239" d="M-944.772-656.327l5.432,4.88-.269.385c-2.3-.547-3.541-2.731-5.37-4-.244-.17-.188-.771-.271-1.173Z" transform="translate(945.504 659.713)" fill="#fff"/>
        <path id="Path_240" data-name="Path 240" d="M-935.121-653.615l-6.439-5.329-.009-.383c.359,0,.852-.154,1.056.024,1.937,1.694,3.825,3.444,5.727,5.178Z" transform="translate(942.948 661.839)" fill="#fff"/>
        <path id="Path_241" data-name="Path 241" d="M-928.055-656.686c-1.164.267-6.016-3.425-7.39-5.331l.253-.34Z" transform="translate(938.698 663.899)" fill="#fff"/>
        <path id="Path_242" data-name="Path 242" d="M-913.5-663.756l-5.013-3.516C-916.993-667.933-913.993-665.864-913.5-663.756Z" transform="translate(926.942 667.397)" fill="#fff"/>
        <path id="Path_243" data-name="Path 243" d="M-942.267-646.462c-2.482-.366-3.495-1.335-3.812-3.528Z" transform="translate(946.079 655.314)" fill="#fff"/>
      </g>
      <path id="Path_244" data-name="Path 244" d="M-979.213-660.413c-2.186.518-3.174.054-4.387-2.03Z" transform="translate(-3.924 -182.714)" fill="#fff"/>
      <path id="Path_245" data-name="Path 245" d="M-799.172-905.319v-9.366C-798.26-913.255-798.279-906.51-799.172-905.319Z" transform="translate(-131.942 -7.624)"/>
    </g>
    <g id="Rectangle_196" data-name="Rectangle 196" fill="none" stroke="transparent" strokeWidth="1">
      <rect width="145" height="105" stroke="none"/>
      <rect x="0.5" y="0.5" width="144" height="104" fill="none"/>
    </g>
  </svg>
  