<svg xmlns="http://www.w3.org/2000/svg" xmlns:xlink="http://www.w3.org/1999/xlink" version="1.1" id="Layer_1" x="0px" y="0px" viewBox="0 0 130 119" style="enable-background:new 0 0 130 119;" xml:space="preserve">
    <style type="text/css">
        .st0{fill:#FFFFFF;stroke:#000000;stroke-miterlimit:10;}
        .st1{fill:#FFFFFF;stroke:#000000;stroke-width:0.25;stroke-miterlimit:10;}
        .st2{stroke:#000000;stroke-width:0.25;stroke-miterlimit:10;}
        .st3{fill:#ACD4F7;stroke:#000000;stroke-width:0.25;stroke-miterlimit:10;}
        .st4{fill:#FFFFFF;}
        .st5{fill:#ACD4F7;}
        .st6{opacity:0.1294;}
        .st7{fill:#BEE8FF;}
        .st8{fill:none;stroke:#FFFFFF;stroke-width:2;stroke-miterlimit:10;}
        .st9{fill:none;stroke:#000000;stroke-width:1.0991;stroke-linecap:round;}
        .st10{fill:none;stroke:#000000;stroke-width:0.8833;stroke-miterlimit:10;}
    </style>
    <g>
        <g>
            <path class="st4" d="M28.53,98.39c-0.06,0.08-0.16,0.12-0.25,0.12c-0.08,0-0.16-0.03-0.22-0.08c-0.14-0.12-0.16-0.33-0.04-0.47    c1.19-1.43,2.5-2.78,3.9-4c0.14-0.13,0.35-0.11,0.47,0.03c0.12,0.13,0.11,0.35-0.03,0.47C30.99,95.66,29.7,96.98,28.53,98.39z"/>
            <path class="st4" d="M40.53,95.19c-3.83,2.98-7.53,6.21-11.02,9.59c-0.06,0.06-0.15,0.09-0.23,0.09c-0.09,0-0.17-0.03-0.24-0.1    c-0.13-0.13-0.13-0.34,0.01-0.47c3.5-3.4,7.22-6.64,11.07-9.64c0.14-0.11,0.35-0.09,0.47,0.06C40.7,94.87,40.68,95.08,40.53,95.19    z"/>
            <path class="st4" d="M31.2,111.9c-0.11-0.2-0.22-0.41-0.32-0.63c5.56-5.97,11.49-11.65,17.69-16.95c0.14-0.12,0.35-0.09,0.47,0.05    c0.12,0.13,0.11,0.34-0.04,0.46C42.76,100.16,36.78,105.89,31.2,111.9z"/>
            <path class="st4" d="M36.12,116.45c-0.22-0.07-0.45-0.15-0.67-0.24c6.22-7.38,13.05-14.36,20.3-20.74    c0.13-0.12,0.35-0.11,0.47,0.04c0.12,0.14,0.11,0.34-0.03,0.46C49.04,102.28,42.29,109.17,36.12,116.45z"/>
            <path class="st4" d="M56.8,102.65l-13.07,13.71c-0.06,0.06-0.15,0.1-0.24,0.1c-0.08,0-0.17-0.03-0.23-0.09    c-0.13-0.13-0.14-0.34-0.01-0.48l13.06-13.7c0.13-0.13,0.34-0.13,0.48-0.01C56.92,102.31,56.93,102.52,56.8,102.65z"/>
            <path class="st4" d="M58.74,109.74c0.13,0.12,0.14,0.33,0.02,0.47l-6.11,6.85c-0.2-0.01-0.4-0.01-0.61-0.02    c-0.05-0.12-0.04-0.25,0.05-0.35l6.17-6.92C58.39,109.63,58.6,109.62,58.74,109.74z"/>
            <path class="st4" d="M79.99,69.45l0.1,7.85c0.01,0.2-0.07,0.39-0.21,0.53c-0.15,0.15-0.34,0.22-0.54,0.22l-9.8-0.21v9.22    c0,0.41-0.32,0.74-0.73,0.74l-8.62,0.1c0,0,0,0-0.01,0c-0.4,0-0.72-0.32-0.74-0.72l-0.29-9.17l-10.62-0.09    c-0.41,0-0.73-0.33-0.73-0.74V68.9c0-0.41,0.32-0.74,0.73-0.74l10.37-0.1l-0.09-9.08c-0.01-0.2,0.07-0.39,0.21-0.53    c0.14-0.14,0.34-0.21,0.53-0.22l9.18,0.07c0.41,0,0.74,0.33,0.74,0.73l0.07,9.34l9.74,0.36C79.67,68.74,79.98,69.06,79.99,69.45z"/>
            <path class="st4" d="M42.91,12.23l45.37,1.69c-0.09,0.71-0.13,1.46-0.1,2.24c0,0.13,0.01,0.26,0.02,0.39    c0.01,0.25,0.03,0.49,0.06,0.74c0.03,0.3,0.07,0.6,0.12,0.9c0.01,0.06,0.02,0.13,0.03,0.19c0.02,0.14,0.04,0.27,0.07,0.4    c0.02,0.11,0.04,0.21,0.06,0.32h-0.05l-42.84-0.07c-0.78,0-1.6-0.03-2.41-0.1c0.03-0.3,0.06-0.59,0.08-0.89s0.04-0.61,0.05-0.91    C43.43,15.3,43.28,13.54,42.91,12.23z"/>
            <path class="st4" d="M96.94,42.71c0,0.17-0.13,0.3-0.3,0.3l-64.11-0.66c-0.17,0-0.3-0.13-0.3-0.3s0.14-0.3,0.31-0.3l64.1,0.66    C96.81,42.41,96.95,42.55,96.94,42.71z"/>
            <path class="st4" d="M103.68,69.62c-0.16-9.38-0.32-19.1-0.22-29.82c0.04-3.89-0.17-8.27-3.14-10.83    c-1.04-0.91-2.27-1.41-3.45-1.9c-0.64-0.26-1.24-0.51-1.81-0.81c-2.2-1.18-3.95-4.09-4.7-7.22c-0.07-0.29-0.14-0.59-0.18-0.89    c-0.06-0.3-0.1-0.6-0.13-0.9c-0.16-1.38-0.11-2.74,0.2-3.97c0.07-0.27,0-0.55-0.16-0.77c-0.16-0.22-0.41-0.35-0.68-0.36    l-47.85-1.79c-0.35-0.01-0.67,0.16-0.84,0.47c-0.16,0.3-0.14,0.67,0.06,0.95c0.63,0.89,0.86,2.92,0.78,5.09    c0,0.31-0.02,0.61-0.04,0.92c-0.02,0.3-0.05,0.6-0.08,0.9c-0.27,2.4-0.88,4.64-1.71,5.36c-1.3,1.11-2.85,2.18-4.36,3.2    c-1.01,0.69-2.05,1.42-3,2.14c-5.25,3.99-5.24,9.89-5.22,16.14c0,1.59,0,3.24-0.08,4.89c-0.39,7.73-0.44,15.2-0.49,22.43    c-0.04,7.19-0.09,14.65-0.47,22.35c-0.24,4.71,0.73,12.35,3.46,17.49c0.1,0.22,0.22,0.43,0.33,0.62c0.55,0.95,1.16,1.78,1.83,2.49    c2.99,3.12,6.82,3.02,10.52,2.91c1-0.02,2.03-0.06,3.06-0.02c6.86,0.2,12.79,0.31,18.64,0.31c7.69,0,15.24-0.18,24.59-0.56    c2.93-0.12,5.74-0.37,7.94-2.15c3.4-2.73,7.38-12.48,7.41-16.79C104,88.76,103.84,79.03,103.68,69.62z M102.99,99.49    c-0.04,4.13-3.97,13.6-7.07,16.09c-2.07,1.66-4.83,1.85-7.43,1.95c-16.12,0.66-27.01,0.74-43.14,0.24    c-4.88-0.14-9.5,1.02-12.97-2.6c-0.67-0.71-1.28-1.57-1.82-2.56c-0.12-0.21-0.23-0.41-0.34-0.62c-2.43-4.84-3.44-12.04-3.21-16.74    c0.77-15.46,0.19-29.34,0.96-44.79c0.4-8.05-1.23-15.66,4.95-20.35c2.32-1.77,5.18-3.46,7.4-5.38c1.03-0.88,1.73-3.3,2.02-5.89    v-0.01c0.03-0.3,0.06-0.6,0.08-0.9c0.02-0.3,0.04-0.6,0.04-0.9c0.09-2.42-0.2-4.72-0.94-5.77l47.84,1.79    c-0.32,1.29-0.38,2.74-0.21,4.23c0.03,0.3,0.07,0.6,0.12,0.9s0.11,0.61,0.18,0.91c0.77,3.38,2.63,6.6,5.19,7.97    c1.68,0.9,3.62,1.33,5.1,2.6c2.67,2.31,2.85,6.49,2.82,10.14C102.35,61.27,103.2,78.02,102.99,99.49z"/>
            <path class="st4" d="M102.56,39.8c0.03-3.65-0.15-7.83-2.82-10.14c-1.48-1.27-3.42-1.7-5.1-2.6c-2.56-1.37-4.42-4.59-5.19-7.97    c-0.07-0.3-0.13-0.61-0.18-0.91s-0.09-0.6-0.12-0.9c-0.17-1.49-0.11-2.94,0.21-4.23l-47.84-1.79c0.74,1.05,1.03,3.35,0.94,5.77    c0,0.3-0.02,0.6-0.04,0.9c-0.02,0.3-0.05,0.6-0.08,0.9v0.01c-0.29,2.59-0.99,5.01-2.02,5.89c-2.22,1.92-5.08,3.61-7.4,5.38    c-6.18,4.69-4.55,12.3-4.95,20.35c-0.77,15.45-0.19,29.33-0.96,44.79c-0.23,4.7,0.78,11.9,3.21,16.74    c0.11,0.21,0.22,0.41,0.34,0.62c0.54,0.99,1.15,1.85,1.82,2.56c3.47,3.62,8.09,2.46,12.97,2.6c16.13,0.5,27.02,0.42,43.14-0.24    c2.6-0.1,5.36-0.29,7.43-1.95c3.1-2.49,7.03-11.96,7.07-16.09C103.2,78.02,102.35,61.27,102.56,39.8z M102.08,99.48    c-0.03,3.82-3.8,13.04-6.74,15.4c-1.78,1.43-4.17,1.63-6.88,1.74c-2.93,0.12-5.68,0.22-8.31,0.3c-1.01,0.03-1.99,0.06-2.96,0.09    h-0.16c-0.48,0.01-0.96,0.02-1.43,0.03c-0.5,0.01-1,0.03-1.49,0.03c-0.5,0.02-0.99,0.03-1.47,0.03c-0.47,0.02-0.92,0.02-1.38,0.03    c-0.54,0.01-1.08,0.02-1.62,0.02c-0.45,0.01-0.91,0.01-1.36,0.01c-0.48,0.01-0.96,0.01-1.44,0.01c-2.05,0.02-4.1,0.02-6.17,0    c-0.74,0-1.48-0.01-2.22-0.02c-0.38,0-0.75,0-1.13-0.01c-0.37,0-0.75-0.01-1.13-0.02c-0.38,0-0.76-0.01-1.15-0.02    c-0.76-0.01-1.54-0.02-2.32-0.04h-0.07c-0.2-0.01-0.4-0.01-0.61-0.02c-2.14-0.04-4.35-0.1-6.67-0.17c-0.34-0.01-0.66-0.01-1-0.01    c-0.74,0-1.46,0.01-2.17,0.03c-2.22,0.07-4.26,0.13-6.08-0.44c-0.22-0.07-0.45-0.15-0.67-0.24h-0.01    c-0.87-0.37-1.66-0.9-2.41-1.67c-0.67-0.71-1.28-1.6-1.83-2.64c-0.11-0.2-0.22-0.41-0.32-0.63c-2.15-4.47-3.21-11.07-2.96-15.98    c0.38-7.75,0.43-15.22,0.48-22.43s0.09-14.65,0.48-22.36c0.09-1.69,0.08-3.36,0.08-4.98c-0.02-6.03-0.03-11.24,4.5-14.69    c0.93-0.7,1.9-1.37,2.95-2.09c1.54-1.05,3.13-2.14,4.5-3.32c0.09-0.08,0.17-0.16,0.26-0.25c0.03-0.04,0.07-0.08,0.1-0.12    c0.07-0.07,0.13-0.16,0.18-0.24c0.06-0.08,0.12-0.15,0.16-0.24c0.01,0,0.01-0.01,0.01-0.01c0.05-0.07,0.09-0.14,0.13-0.21    c0.08-0.13,0.16-0.28,0.23-0.43c0.07-0.14,0.14-0.29,0.2-0.45c0.07-0.15,0.13-0.31,0.19-0.48s0.12-0.34,0.17-0.52    c0.06-0.17,0.11-0.35,0.16-0.54c0.04-0.16,0.08-0.32,0.12-0.48c0.08-0.32,0.14-0.66,0.21-1.01c0.05-0.31,0.1-0.62,0.14-0.94    c0.03-0.19,0.05-0.38,0.07-0.57c0.03-0.3,0.06-0.59,0.08-0.89s0.04-0.61,0.05-0.91c0.06-1.83-0.09-3.59-0.46-4.9l45.37,1.69    c-0.09,0.71-0.13,1.46-0.1,2.24c0,0.13,0.01,0.26,0.02,0.39c0.01,0.24,0.03,0.49,0.06,0.74c0.03,0.3,0.07,0.6,0.12,0.9    c0.01,0.06,0.02,0.13,0.03,0.19c0.02,0.14,0.04,0.27,0.07,0.4c0.02,0.11,0.04,0.21,0.06,0.32c0.06,0.27,0.12,0.54,0.2,0.81    c0.04,0.18,0.09,0.37,0.15,0.55c0.01,0.04,0.02,0.07,0.03,0.11c0.08,0.26,0.17,0.52,0.26,0.78c0.03,0.07,0.06,0.15,0.09,0.23    c0.1,0.29,0.22,0.57,0.34,0.85c0.1,0.21,0.19,0.42,0.3,0.63c0.1,0.2,0.2,0.41,0.32,0.61c0.11,0.2,0.22,0.4,0.34,0.59    c0.84,1.35,1.88,2.5,3.11,3.29c0.08,0.05,0.17,0.11,0.26,0.16c0.08,0.05,0.17,0.11,0.26,0.15c0.65,0.34,1.33,0.62,1.99,0.9    c1.09,0.44,2.13,0.87,2.95,1.58c2.38,2.06,2.54,5.96,2.51,9.45c-0.11,10.75,0.06,20.47,0.21,29.87    C102.03,79.04,102.19,88.76,102.08,99.48z"/>
        </g>
        <g>
            <path class="st7" d="M41.1,1.49c-6.32,0.61-3.96,8.53-3.94,11.41c0.01,0.92,0.09,1.86,0.58,2.68c1.35,2.23,4.94,2.53,7.92,2.53    c14.28,0.02,28.55,0.05,42.83,0.07c2.06,0,4.41-0.1,5.7-1.45c0.74-0.77,0.96-1.8,1.08-2.79c0.39-3.14,1.4-8.24-0.37-10.37    c-1.08-1.29-5-1.97-7.1-2.09C74.59,0.78,49.88,0.65,41.1,1.49z"/>
            <path class="st4" d="M95.6,3.01c-1.71-2.06-7.69-2.41-7.75-2.41C80.94,0.22,70.85,0,61.53,0c-8.44,0-16.25,0.18-20.52,0.59    c-1.67,0.16-2.96,0.8-3.84,1.89c-1.83,2.26-1.4,5.88-1.09,8.52c0.09,0.77,0.17,1.44,0.17,1.91c0.01,0.99,0.1,2.13,0.71,3.15    c0.92,1.51,2.6,2.26,4.48,2.63c0.29,0.06,0.6,0.11,0.9,0.14v0.01c0.3,0.04,0.6,0.07,0.9,0.09c0.81,0.07,1.63,0.1,2.41,0.1    l42.84,0.07h0.09c0.29,0,0.58,0,0.87-0.01c0.3-0.01,0.61-0.02,0.91-0.05c1.7-0.11,3.36-0.5,4.48-1.66    c0.93-0.97,1.19-2.22,1.33-3.31c0.05-0.39,0.11-0.82,0.17-1.27C96.82,9.4,97.4,5.18,95.6,3.01z M94.54,12.55    c-0.06,0.46-0.12,0.9-0.17,1.3c-0.1,0.83-0.28,1.69-0.84,2.27c-0.73,0.76-2.03,1.03-3.48,1.13c-0.3,0.01-0.6,0.02-0.9,0.03    c-0.22,0-0.44,0.01-0.66,0.01h-0.23l-42.6-0.08c-0.71,0-1.5-0.02-2.29-0.08c-0.31-0.03-0.61-0.06-0.91-0.1    c-0.3-0.04-0.61-0.1-0.9-0.16c-1.32-0.29-2.48-0.81-3.04-1.75c-0.39-0.64-0.45-1.45-0.46-2.22c0-0.58-0.08-1.29-0.18-2.11    c-0.27-2.32-0.65-5.5,0.7-7.17c0.57-0.71,1.42-1.11,2.6-1.22c8.69-0.83,33.6-0.7,46.57,0.01c2.47,0.14,5.73,0.89,6.46,1.76    C95.5,5.72,94.92,9.83,94.54,12.55z"/>
        </g>
        <g>
            <path class="st4" d="M96.94,42.71c0,0.17-0.13,0.3-0.3,0.3l-64.11-0.66c-0.17,0-0.3-0.13-0.3-0.3s0.14-0.3,0.31-0.3l64.1,0.66    C96.81,42.41,96.95,42.55,96.94,42.71z"/>
        </g>
        <g>
            <polygon class="st7" points="59.65,68.8 59.54,58.97 68.73,59.04 68.8,69.09 79.25,69.46 79.35,77.31 68.8,77.09 68.8,87.06     60.18,87.16 59.86,77.28 48.53,77.18 48.53,68.9   "/>
            <path class="st4" d="M79.99,69.45c-0.01-0.39-0.32-0.71-0.71-0.72l-9.74-0.36l-0.07-9.34c0-0.4-0.33-0.73-0.74-0.73l-9.18-0.07    c-0.19,0.01-0.39,0.08-0.53,0.22c-0.14,0.14-0.22,0.33-0.21,0.53l0.09,9.08l-10.37,0.1c-0.41,0-0.73,0.33-0.73,0.74v8.28    c0,0.41,0.32,0.74,0.73,0.74l10.62,0.09l0.29,9.17c0.02,0.4,0.34,0.72,0.74,0.72c0.01,0,0.01,0,0.01,0l8.62-0.1    c0.41,0,0.73-0.33,0.73-0.74v-9.22l9.8,0.21c0.2,0,0.39-0.07,0.54-0.22c0.14-0.14,0.22-0.33,0.21-0.53L79.99,69.45z M68.06,77.09    v9.24l-7.16,0.08l-0.3-9.15c-0.01-0.4-0.33-0.72-0.73-0.72l-10.6-0.09v-6.82l10.39-0.09c0.19-0.01,0.38-0.09,0.52-0.23    c0.14-0.14,0.21-0.32,0.21-0.52l-0.1-9.07L68,59.77l0.06,9.32c0.01,0.4,0.32,0.72,0.72,0.74l9.74,0.35l0.09,6.37l-9.79-0.2    c-0.2-0.01-0.39,0.07-0.53,0.21C68.14,76.7,68.06,76.89,68.06,77.09z"/>
        </g>
        <g>
            <path class="st4" d="M40.53,95.19c-3.83,2.98-7.53,6.21-11.02,9.59c-0.06,0.06-0.15,0.09-0.23,0.09c-0.09,0-0.17-0.03-0.24-0.1    c-0.13-0.13-0.13-0.34,0.01-0.47c3.5-3.4,7.22-6.64,11.07-9.64c0.14-0.11,0.35-0.09,0.47,0.06C40.7,94.87,40.68,95.08,40.53,95.19    z"/>
        </g>
        <g>
            <path class="st4" d="M49,94.83c-6.24,5.33-12.22,11.06-17.8,17.07c-0.11-0.2-0.22-0.41-0.32-0.63    c5.56-5.97,11.49-11.65,17.69-16.95c0.14-0.12,0.35-0.09,0.47,0.05C49.16,94.5,49.15,94.71,49,94.83z"/>
        </g>
        <g>
            <path class="st4" d="M56.19,95.97c-7.15,6.31-13.9,13.2-20.07,20.48c-0.22-0.07-0.45-0.15-0.67-0.24    c6.22-7.38,13.05-14.36,20.3-20.74c0.13-0.12,0.35-0.11,0.47,0.04C56.34,95.65,56.33,95.85,56.19,95.97z"/>
        </g>
        <g>
            <path class="st4" d="M56.8,102.65l-13.07,13.71c-0.06,0.06-0.15,0.1-0.24,0.1c-0.08,0-0.17-0.03-0.23-0.09    c-0.13-0.13-0.14-0.34-0.01-0.48l13.06-13.7c0.13-0.13,0.34-0.13,0.48-0.01C56.92,102.31,56.93,102.52,56.8,102.65z"/>
        </g>
        <g>
            <path class="st4" d="M58.76,110.21l-6.11,6.85l-0.06,0.07c-0.06,0.08-0.16,0.11-0.25,0.11c-0.08,0-0.16-0.02-0.22-0.08    c-0.04-0.03-0.07-0.08-0.08-0.12c-0.05-0.12-0.04-0.25,0.05-0.35l6.17-6.92c0.13-0.14,0.34-0.15,0.48-0.03    C58.87,109.86,58.88,110.07,58.76,110.21z"/>
        </g>
        <g>
            <path class="st4" d="M32.36,94.46c-1.37,1.2-2.66,2.52-3.83,3.93c-0.06,0.08-0.16,0.12-0.25,0.12c-0.08,0-0.16-0.03-0.22-0.08    c-0.14-0.12-0.16-0.33-0.04-0.47c1.19-1.43,2.5-2.78,3.9-4c0.14-0.13,0.35-0.11,0.47,0.03C32.51,94.12,32.5,94.34,32.36,94.46z"/>
        </g>
    </g>
    </svg>