<svg viewBox="0 0 257 257" fill="none" xmlns="http://www.w3.org/2000/svg">
    <g filter="url(#filter0_d_37_9)">
        <path d="M184.776 19.7212C201.304 28.6726 212.918 47.1821 222.298 67.0571C231.53 86.9321 238.379 108.173 240.464 132.144C242.399 156.115 239.421 182.969 226.169 203.299C212.918 223.781 189.392 237.588 166.313 236.981C143.234 236.222 120.899 221.05 96.6289 213.313C72.5076 205.424 46.5995 204.968 38.1123 191.162C29.7741 177.356 38.8568 150.198 34.8366 124.71C30.6675 99.2213 13.2465 75.4016 16.3734 57.9541C19.5002 40.6583 43.3238 29.8863 64.9138 23.3625C86.5039 16.8386 106.009 14.4111 126.408 12.894C146.807 11.3768 168.248 10.7699 184.776 19.7212Z" fill="white" />
    </g>
    <path d="M96.36 192V180.44L91.22 189.42H90.34L85.18 180.44V192H83.78V177.8H85.22L90.76 187.52L96.34 177.8H97.76V192H96.36ZM105.383 192.2C104.636 192.2 103.943 192.06 103.303 191.78C102.663 191.487 102.109 191.093 101.643 190.6C101.176 190.093 100.809 189.513 100.543 188.86C100.289 188.207 100.163 187.507 100.163 186.76C100.163 185.787 100.383 184.893 100.823 184.08C101.276 183.267 101.896 182.62 102.683 182.14C103.469 181.647 104.363 181.4 105.363 181.4C106.389 181.4 107.283 181.647 108.043 182.14C108.816 182.633 109.423 183.287 109.863 184.1C110.303 184.9 110.523 185.78 110.523 186.74C110.523 186.847 110.523 186.953 110.523 187.06C110.523 187.153 110.516 187.227 110.503 187.28H101.583C101.649 188.027 101.856 188.693 102.203 189.28C102.563 189.853 103.023 190.313 103.583 190.66C104.156 190.993 104.776 191.16 105.443 191.16C106.123 191.16 106.763 190.987 107.363 190.64C107.976 190.293 108.403 189.84 108.643 189.28L109.823 189.6C109.609 190.093 109.283 190.54 108.843 190.94C108.403 191.34 107.883 191.653 107.283 191.88C106.696 192.093 106.063 192.2 105.383 192.2ZM101.543 186.3H109.243C109.189 185.54 108.983 184.873 108.623 184.3C108.276 183.727 107.816 183.28 107.243 182.96C106.683 182.627 106.063 182.46 105.383 182.46C104.703 182.46 104.083 182.627 103.523 182.96C102.963 183.28 102.503 183.733 102.143 184.32C101.796 184.893 101.596 185.553 101.543 186.3ZM111.921 186.82C111.921 185.833 112.121 184.933 112.521 184.12C112.934 183.293 113.501 182.633 114.221 182.14C114.941 181.647 115.761 181.4 116.681 181.4C117.548 181.4 118.321 181.633 119.001 182.1C119.694 182.553 120.234 183.107 120.621 183.76V177.4H121.981V190.36C121.981 190.547 122.021 190.687 122.101 190.78C122.181 190.86 122.301 190.907 122.461 190.92V192C122.194 192.04 121.988 192.053 121.841 192.04C121.561 192.027 121.314 191.913 121.101 191.7C120.888 191.487 120.781 191.253 120.781 191V189.98C120.368 190.66 119.808 191.2 119.101 191.6C118.394 192 117.661 192.2 116.901 192.2C116.181 192.2 115.514 192.053 114.901 191.76C114.301 191.467 113.774 191.067 113.321 190.56C112.881 190.053 112.534 189.48 112.281 188.84C112.041 188.187 111.921 187.513 111.921 186.82ZM120.621 188.42V185.2C120.448 184.72 120.168 184.287 119.781 183.9C119.394 183.5 118.954 183.187 118.461 182.96C117.981 182.72 117.501 182.6 117.021 182.6C116.461 182.6 115.954 182.72 115.501 182.96C115.048 183.187 114.654 183.5 114.321 183.9C114.001 184.3 113.754 184.753 113.581 185.26C113.408 185.767 113.321 186.287 113.321 186.82C113.321 187.38 113.414 187.913 113.601 188.42C113.801 188.927 114.081 189.38 114.441 189.78C114.801 190.167 115.214 190.467 115.681 190.68C116.148 190.893 116.654 191 117.201 191C117.548 191 117.908 190.933 118.281 190.8C118.654 190.667 119.008 190.487 119.341 190.26C119.688 190.02 119.974 189.74 120.201 189.42C120.428 189.1 120.568 188.767 120.621 188.42ZM125.063 192V181.58H126.423V192H125.063ZM125.063 179.4V177.4H126.423V179.4H125.063ZM133.938 192.2C133.178 192.2 132.478 192.06 131.838 191.78C131.211 191.487 130.658 191.087 130.178 190.58C129.711 190.073 129.345 189.493 129.078 188.84C128.825 188.187 128.698 187.493 128.698 186.76C128.698 185.773 128.918 184.873 129.358 184.06C129.798 183.247 130.411 182.6 131.198 182.12C131.985 181.64 132.891 181.4 133.918 181.4C134.891 181.4 135.751 181.627 136.498 182.08C137.245 182.52 137.798 183.12 138.158 183.88L136.838 184.3C136.545 183.767 136.131 183.353 135.598 183.06C135.078 182.753 134.498 182.6 133.858 182.6C133.165 182.6 132.531 182.78 131.958 183.14C131.385 183.5 130.925 183.993 130.578 184.62C130.245 185.247 130.078 185.96 130.078 186.76C130.078 187.547 130.251 188.26 130.598 188.9C130.945 189.54 131.405 190.053 131.978 190.44C132.551 190.813 133.185 191 133.878 191C134.331 191 134.765 190.92 135.178 190.76C135.605 190.6 135.971 190.387 136.278 190.12C136.598 189.84 136.811 189.54 136.918 189.22L138.258 189.62C138.071 190.113 137.758 190.56 137.318 190.96C136.891 191.347 136.385 191.653 135.798 191.88C135.225 192.093 134.605 192.2 133.938 192.2ZM140.395 192V181.58H141.755V192H140.395ZM140.395 179.4V177.4H141.755V179.4H140.395ZM153.51 192H152.15V186.18C152.15 184.953 151.97 184.06 151.61 183.5C151.25 182.927 150.683 182.64 149.91 182.64C149.377 182.64 148.85 182.773 148.33 183.04C147.81 183.293 147.35 183.647 146.95 184.1C146.563 184.54 146.283 185.047 146.11 185.62V192H144.75V181.58H145.99V183.94C146.27 183.433 146.637 182.993 147.09 182.62C147.543 182.233 148.057 181.933 148.63 181.72C149.203 181.507 149.797 181.4 150.41 181.4C150.983 181.4 151.47 181.507 151.87 181.72C152.27 181.933 152.59 182.24 152.83 182.64C153.07 183.027 153.243 183.5 153.35 184.06C153.457 184.607 153.51 185.22 153.51 185.9V192ZM160.91 192.2C160.163 192.2 159.47 192.06 158.83 191.78C158.19 191.487 157.637 191.093 157.17 190.6C156.703 190.093 156.337 189.513 156.07 188.86C155.817 188.207 155.69 187.507 155.69 186.76C155.69 185.787 155.91 184.893 156.35 184.08C156.803 183.267 157.423 182.62 158.21 182.14C158.997 181.647 159.89 181.4 160.89 181.4C161.917 181.4 162.81 181.647 163.57 182.14C164.343 182.633 164.95 183.287 165.39 184.1C165.83 184.9 166.05 185.78 166.05 186.74C166.05 186.847 166.05 186.953 166.05 187.06C166.05 187.153 166.043 187.227 166.03 187.28H157.11C157.177 188.027 157.383 188.693 157.73 189.28C158.09 189.853 158.55 190.313 159.11 190.66C159.683 190.993 160.303 191.16 160.97 191.16C161.65 191.16 162.29 190.987 162.89 190.64C163.503 190.293 163.93 189.84 164.17 189.28L165.35 189.6C165.137 190.093 164.81 190.54 164.37 190.94C163.93 191.34 163.41 191.653 162.81 191.88C162.223 192.093 161.59 192.2 160.91 192.2ZM157.07 186.3H164.77C164.717 185.54 164.51 184.873 164.15 184.3C163.803 183.727 163.343 183.28 162.77 182.96C162.21 182.627 161.59 182.46 160.91 182.46C160.23 182.46 159.61 182.627 159.05 182.96C158.49 183.28 158.03 183.733 157.67 184.32C157.323 184.893 157.123 185.553 157.07 186.3Z" fill="black" />
    <path d="M69.2774 118.651C67.0008 123.265 79.0897 129.598 92.8951 138.801C100.966 144.182 116.51 156.08 122.256 154.921C133.016 152.75 188.822 78.3606 189.037 76.6256C189.61 72.0185 145.86 46.688 141.83 50.719C125.71 63.9591 77.5633 101.855 69.2774 118.651Z" stroke="black" stroke-width="2" />
    <path d="M140.668 91.0259L140.966 90.6248L140.957 90.6176L140.947 90.6108L140.668 91.0259ZM118.033 76.4285C118.262 76.5825 118.573 76.5214 118.727 76.2922C118.88 76.0629 118.819 75.7523 118.59 75.5983L118.033 76.4285ZM121.571 77.6C121.342 77.4461 121.031 77.5071 120.877 77.7364C120.723 77.9656 120.784 78.2763 121.014 78.4302L121.571 77.6ZM123.994 80.4319C124.224 80.5858 124.534 80.5248 124.688 80.2955C124.842 80.0663 124.781 79.7556 124.552 79.6017L123.994 80.4319ZM127.533 81.6033C127.304 81.4494 126.993 81.5104 126.839 81.7397C126.685 81.9689 126.746 82.2796 126.975 82.4335L127.533 81.6033ZM129.956 84.4352C130.185 84.5891 130.496 84.5281 130.65 84.2988C130.804 84.0696 130.743 83.759 130.514 83.605L129.956 84.4352ZM133.495 85.6067C133.265 85.4527 132.955 85.5138 132.801 85.743C132.647 85.9723 132.708 86.2829 132.937 86.4369L133.495 85.6067ZM135.918 88.4385C136.147 88.5925 136.458 88.5314 136.612 88.3022C136.766 88.0729 136.705 87.7623 136.475 87.6083L135.918 88.4385ZM139.456 89.61C139.227 89.4561 138.916 89.5171 138.762 89.7464C138.608 89.9756 138.67 90.2863 138.899 90.4402L139.456 89.61ZM141.83 92.5132C142.051 92.678 142.364 92.632 142.529 92.4105C142.694 92.1889 142.648 91.8757 142.426 91.7109L141.83 92.5132ZM145.347 93.883C145.125 93.7182 144.812 93.7642 144.647 93.9858C144.482 94.2073 144.528 94.5206 144.75 94.6854L145.347 93.883ZM147.67 96.8575C147.891 97.0224 148.205 96.9764 148.369 96.7548C148.534 96.5332 148.488 96.22 148.267 96.0552L147.67 96.8575ZM151.187 98.2274C150.965 98.0625 150.652 98.1085 150.487 98.3301C150.322 98.5517 150.368 98.8649 150.59 99.0297L151.187 98.2274ZM153.51 101.202C153.731 101.367 154.045 101.321 154.209 101.099C154.374 100.878 154.328 100.564 154.107 100.4L153.51 101.202ZM157.027 102.572C156.805 102.407 156.492 102.453 156.327 102.674C156.162 102.896 156.208 103.209 156.43 103.374L157.027 102.572ZM159.35 105.546C159.572 105.711 159.885 105.665 160.05 105.443C160.214 105.222 160.168 104.909 159.947 104.744L159.35 105.546ZM162.867 106.916C162.645 106.751 162.332 106.797 162.167 107.019C162.003 107.24 162.049 107.554 162.27 107.718L162.867 106.916ZM116.542 75.4277L118.033 76.4285L118.59 75.5983L117.1 74.5975L116.542 75.4277ZM121.014 78.4302L123.994 80.4319L124.552 79.6017L121.571 77.6L121.014 78.4302ZM126.975 82.4335L129.956 84.4352L130.514 83.605L127.533 81.6033L126.975 82.4335ZM132.937 86.4369L135.918 88.4385L136.475 87.6083L133.495 85.6067L132.937 86.4369ZM138.899 90.4402L140.389 91.441L140.947 90.6108L139.456 89.61L138.899 90.4402ZM140.37 91.4271L141.83 92.5132L142.426 91.7109L140.966 90.6248L140.37 91.4271ZM144.75 94.6854L147.67 96.8575L148.267 96.0552L145.347 93.883L144.75 94.6854ZM150.59 99.0297L153.51 101.202L154.107 100.4L151.187 98.2274L150.59 99.0297ZM156.43 103.374L159.35 105.546L159.947 104.744L157.027 102.572L156.43 103.374ZM162.27 107.718L163.73 108.804L164.327 108.002L162.867 106.916L162.27 107.718Z" fill="black" />
    <path d="M140.666 91.0339L141.026 91.381L141.03 91.3768L140.666 91.0339ZM96.4019 137.67C96.5936 137.471 96.5878 137.155 96.389 136.963C96.1902 136.772 95.8736 136.777 95.682 136.976L96.4019 137.67ZM98.561 133.99C98.3693 134.189 98.3751 134.505 98.5739 134.697C98.7727 134.888 99.0892 134.883 99.2809 134.684L98.561 133.99ZM102.16 131.697C102.352 131.499 102.346 131.182 102.147 130.99C101.948 130.799 101.632 130.804 101.44 131.003L102.16 131.697ZM104.319 128.017C104.127 128.216 104.133 128.532 104.332 128.724C104.531 128.916 104.847 128.91 105.039 128.711L104.319 128.017ZM107.918 125.725C108.109 125.526 108.104 125.209 107.905 125.018C107.706 124.826 107.39 124.832 107.198 125.031L107.918 125.725ZM110.077 122.044C109.885 122.243 109.891 122.559 110.09 122.751C110.289 122.943 110.605 122.937 110.797 122.738L110.077 122.044ZM113.676 119.752C113.867 119.553 113.862 119.236 113.663 119.045C113.464 118.853 113.148 118.859 112.956 119.058L113.676 119.752ZM115.835 116.071C115.643 116.27 115.649 116.587 115.848 116.778C116.047 116.97 116.363 116.964 116.555 116.765L115.835 116.071ZM119.434 113.779C119.625 113.58 119.62 113.264 119.421 113.072C119.222 112.88 118.905 112.886 118.714 113.085L119.434 113.779ZM121.593 110.099C121.401 110.297 121.407 110.614 121.606 110.805C121.805 110.997 122.121 110.991 122.313 110.793L121.593 110.099ZM125.192 107.806C125.383 107.607 125.378 107.291 125.179 107.099C124.98 106.908 124.663 106.913 124.472 107.112L125.192 107.806ZM127.351 104.126C127.159 104.325 127.165 104.641 127.364 104.833C127.563 105.024 127.879 105.019 128.071 104.82L127.351 104.126ZM130.95 101.833C131.141 101.635 131.136 101.318 130.937 101.126C130.738 100.935 130.421 100.94 130.23 101.139L130.95 101.833ZM133.109 98.1529C132.917 98.3517 132.923 98.6682 133.122 98.8599C133.321 99.0515 133.637 99.0457 133.829 98.8469L133.109 98.1529ZM136.708 95.8605C136.899 95.6617 136.894 95.3452 136.695 95.1536C136.496 94.9619 136.179 94.9677 135.988 95.1665L136.708 95.8605ZM138.867 92.1801C138.675 92.3789 138.681 92.6954 138.88 92.8871C139.078 93.0787 139.395 93.073 139.587 92.8741L138.867 92.1801ZM142.441 89.8796C142.63 89.6786 142.621 89.3622 142.42 89.1728C142.219 88.9835 141.902 88.9929 141.713 89.1939L142.441 89.8796ZM144.534 86.1995C144.345 86.4005 144.354 86.717 144.555 86.9063C144.756 87.0957 145.072 87.0863 145.262 86.8853L144.534 86.1995ZM148.083 83.8909C148.272 83.6899 148.263 83.3735 148.062 83.1841C147.861 82.9948 147.544 83.0042 147.355 83.2052L148.083 83.8909ZM150.176 80.2108C149.987 80.4118 149.996 80.7282 150.197 80.9176C150.398 81.107 150.715 81.0975 150.904 80.8966L150.176 80.2108ZM153.725 77.9022C153.915 77.7012 153.905 77.3848 153.704 77.1954C153.503 77.006 153.187 77.0155 152.997 77.2165L153.725 77.9022ZM155.819 74.2221C155.629 74.4231 155.639 74.7395 155.84 74.9289C156.041 75.1183 156.357 75.1088 156.546 74.9078L155.819 74.2221ZM159.368 71.9135C159.557 71.7125 159.547 71.3961 159.346 71.2067C159.145 71.0173 158.829 71.0268 158.64 71.2278L159.368 71.9135ZM161.461 68.2334C161.271 68.4344 161.281 68.7508 161.482 68.9402C161.683 69.1296 161.999 69.1201 162.189 68.9191L161.461 68.2334ZM165.01 65.9248C165.199 65.7238 165.19 65.4074 164.989 65.218C164.788 65.0286 164.471 65.0381 164.282 65.239L165.01 65.9248ZM167.103 62.2447C166.914 62.4457 166.923 62.7621 167.124 62.9515C167.325 63.1408 167.642 63.1314 167.831 62.9304L167.103 62.2447ZM94.9624 139.163L96.4019 137.67L95.682 136.976L94.2425 138.469L94.9624 139.163ZM99.2809 134.684L102.16 131.697L101.44 131.003L98.561 133.99L99.2809 134.684ZM105.039 128.711L107.918 125.725L107.198 125.031L104.319 128.017L105.039 128.711ZM110.797 122.738L113.676 119.752L112.956 119.058L110.077 122.044L110.797 122.738ZM116.555 116.765L119.434 113.779L118.714 113.085L115.835 116.071L116.555 116.765ZM122.313 110.793L125.192 107.806L124.472 107.112L121.593 110.099L122.313 110.793ZM128.071 104.82L130.95 101.833L130.23 101.139L127.351 104.126L128.071 104.82ZM133.829 98.8469L136.708 95.8605L135.988 95.1665L133.109 98.1529L133.829 98.8469ZM139.587 92.8741L141.026 91.3809L140.306 90.6869L138.867 92.1801L139.587 92.8741ZM141.03 91.3768L142.441 89.8796L141.713 89.1939L140.302 90.6911L141.03 91.3768ZM145.262 86.8853L148.083 83.8909L147.355 83.2052L144.534 86.1995L145.262 86.8853ZM150.904 80.8966L153.725 77.9022L152.997 77.2165L150.176 80.2108L150.904 80.8966ZM156.546 74.9078L159.368 71.9135L158.64 71.2278L155.819 74.2221L156.546 74.9078ZM162.189 68.9191L165.01 65.9248L164.282 65.239L161.461 68.2334L162.189 68.9191ZM167.831 62.9304L169.242 61.4333L168.514 60.7475L167.103 62.2447L167.831 62.9304Z" fill="black" />
    <path d="M125.124 105.993L124.829 106.397L124.838 106.403L124.847 106.409L125.124 105.993ZM102.698 90.2C102.921 90.3631 103.234 90.3147 103.397 90.0918C103.56 89.869 103.512 89.5561 103.289 89.393L102.698 90.2ZM106.24 91.5526C106.017 91.3895 105.704 91.438 105.541 91.6608C105.378 91.8836 105.426 92.1965 105.649 92.3596L106.24 91.5526ZM108.6 94.5192C108.823 94.6823 109.135 94.6338 109.299 94.411C109.462 94.1882 109.413 93.8753 109.19 93.7122L108.6 94.5192ZM112.141 95.8718C111.918 95.7087 111.605 95.7571 111.442 95.98C111.279 96.2028 111.328 96.5157 111.55 96.6788L112.141 95.8718ZM114.501 98.8383C114.724 99.0014 115.037 98.953 115.2 98.7302C115.363 98.5073 115.315 98.1945 115.092 98.0314L114.501 98.8383ZM118.043 100.191C117.82 100.028 117.507 100.076 117.344 100.299C117.181 100.522 117.229 100.835 117.452 100.998L118.043 100.191ZM120.403 103.158C120.626 103.321 120.938 103.272 121.102 103.049C121.265 102.826 121.216 102.514 120.993 102.351L120.403 103.158ZM123.944 104.51C123.721 104.347 123.408 104.395 123.245 104.618C123.082 104.841 123.131 105.154 123.353 105.317L123.944 104.51ZM126.466 107.489C126.696 107.642 127.006 107.58 127.159 107.35C127.313 107.12 127.25 106.81 127.021 106.657L126.466 107.489ZM130.259 108.816C130.029 108.663 129.719 108.725 129.566 108.954C129.413 109.184 129.475 109.495 129.704 109.648L130.259 108.816ZM132.943 111.807C133.173 111.96 133.483 111.898 133.636 111.668C133.789 111.438 133.727 111.128 133.497 110.975L132.943 111.807ZM136.736 113.134C136.506 112.981 136.196 113.043 136.042 113.272C135.889 113.502 135.951 113.813 136.181 113.966L136.736 113.134ZM139.42 116.125C139.649 116.278 139.96 116.216 140.113 115.986C140.266 115.756 140.204 115.446 139.974 115.293L139.42 116.125ZM143.213 117.452C142.983 117.298 142.672 117.361 142.519 117.59C142.366 117.82 142.428 118.131 142.658 118.284L143.213 117.452ZM145.896 120.443C146.126 120.596 146.436 120.534 146.59 120.304C146.743 120.074 146.681 119.764 146.451 119.611L145.896 120.443ZM149.689 121.77C149.46 121.616 149.149 121.678 148.996 121.908C148.843 122.138 148.905 122.448 149.135 122.602L149.689 121.77ZM101.223 89.1202L102.698 90.2L103.289 89.393L101.813 88.3132L101.223 89.1202ZM105.649 92.3596L108.6 94.5192L109.19 93.7122L106.24 91.5526L105.649 92.3596ZM111.55 96.6788L114.501 98.8383L115.092 98.0314L112.141 95.8718L111.55 96.6788ZM117.452 100.998L120.403 103.158L120.993 102.351L118.043 100.191L117.452 100.998ZM123.353 105.317L124.829 106.397L125.419 105.59L123.944 104.51L123.353 105.317ZM124.847 106.409L126.466 107.489L127.021 106.657L125.402 105.577L124.847 106.409ZM129.704 109.648L132.943 111.807L133.497 110.975L130.259 108.816L129.704 109.648ZM136.181 113.966L139.42 116.125L139.974 115.293L136.736 113.134L136.181 113.966ZM142.658 118.284L145.896 120.443L146.451 119.611L143.213 117.452L142.658 118.284ZM149.135 122.602L150.754 123.681L151.309 122.849L149.689 121.77L149.135 122.602Z" fill="black" />
    <path d="M109.279 120.708L108.983 121.111L108.995 121.12L109.007 121.127L109.279 120.708ZM86.8528 104.914C87.0756 105.077 87.3885 105.029 87.5516 104.806C87.7147 104.583 87.6662 104.27 87.4434 104.107L86.8528 104.914ZM90.3941 106.267C90.1713 106.104 89.8584 106.152 89.6954 106.375C89.5323 106.598 89.5807 106.911 89.8035 107.074L90.3941 106.267ZM92.7543 109.233C92.9771 109.397 93.29 109.348 93.4531 109.125C93.6162 108.902 93.5677 108.59 93.3449 108.427L92.7543 109.233ZM96.2956 110.586C96.0728 110.423 95.76 110.471 95.5969 110.694C95.4338 110.917 95.4822 111.23 95.705 111.393L96.2956 110.586ZM98.6558 113.553C98.8786 113.716 99.1915 113.667 99.3546 113.444C99.5177 113.222 99.4692 112.909 99.2464 112.746L98.6558 113.553ZM102.197 114.905C101.974 114.742 101.661 114.791 101.498 115.013C101.335 115.236 101.384 115.549 101.607 115.712L102.197 114.905ZM104.557 117.872C104.78 118.035 105.093 117.986 105.256 117.764C105.419 117.541 105.371 117.228 105.148 117.065L104.557 117.872ZM108.099 119.224C107.876 119.061 107.563 119.11 107.4 119.333C107.237 119.555 107.285 119.868 107.508 120.031L108.099 119.224ZM110.753 122.259C110.985 122.409 111.294 122.343 111.444 122.111C111.594 121.879 111.528 121.57 111.297 121.419L110.753 122.259ZM114.788 123.682C114.557 123.532 114.247 123.598 114.097 123.83C113.947 124.062 114.013 124.371 114.245 124.521L114.788 123.682ZM117.736 126.784C117.968 126.934 118.278 126.868 118.428 126.636C118.578 126.405 118.512 126.095 118.28 125.945L117.736 126.784ZM121.772 128.207C121.54 128.057 121.231 128.123 121.081 128.355C120.93 128.587 120.997 128.896 121.228 129.047L121.772 128.207ZM124.72 131.309C124.952 131.459 125.261 131.393 125.412 131.162C125.562 130.93 125.496 130.62 125.264 130.47L124.72 131.309ZM128.756 132.733C128.524 132.583 128.214 132.649 128.064 132.88C127.914 133.112 127.98 133.422 128.212 133.572L128.756 132.733ZM131.704 135.835C131.936 135.985 132.245 135.919 132.395 135.687C132.545 135.455 132.479 135.146 132.248 134.995L131.704 135.835ZM135.739 137.258C135.508 137.108 135.198 137.174 135.048 137.406C134.898 137.637 134.964 137.947 135.196 138.097L135.739 137.258ZM85.3774 103.835L86.8528 104.914L87.4434 104.107L85.968 103.028L85.3774 103.835ZM89.8035 107.074L92.7543 109.233L93.3449 108.427L90.3941 106.267L89.8035 107.074ZM95.705 111.393L98.6558 113.553L99.2464 112.746L96.2956 110.586L95.705 111.393ZM101.607 115.712L104.557 117.872L105.148 117.065L102.197 114.905L101.607 115.712ZM107.508 120.031L108.983 121.111L109.574 120.304L108.099 119.224L107.508 120.031ZM109.007 121.127L110.753 122.259L111.297 121.419L109.551 120.288L109.007 121.127ZM114.245 124.521L117.736 126.784L118.28 125.945L114.788 123.682L114.245 124.521ZM121.228 129.047L124.72 131.309L125.264 130.47L121.772 128.207L121.228 129.047ZM128.212 133.572L131.704 135.835L132.248 134.995L128.756 132.733L128.212 133.572ZM135.196 138.097L136.942 139.229L137.485 138.389L135.739 137.258L135.196 138.097Z" fill="black" />
    <path d="M154.485 75.4819L154.76 75.0643L154.751 75.0585L154.742 75.0531L154.485 75.4819ZM132.374 62.81C132.611 62.952 132.918 62.8751 133.06 62.6382C133.202 62.4014 133.125 62.0943 132.888 61.9523L132.374 62.81ZM136.862 64.3343C136.625 64.1923 136.318 64.2692 136.176 64.506C136.034 64.7429 136.111 65.05 136.348 65.1919L136.862 64.3343ZM140.321 67.5739C140.558 67.7159 140.865 67.639 141.007 67.4021C141.149 67.1653 141.072 66.8582 140.835 66.7162L140.321 67.5739ZM144.809 69.0982C144.572 68.9562 144.265 69.0331 144.123 69.2699C143.981 69.5068 144.058 69.8139 144.294 69.9559L144.809 69.0982ZM148.268 72.3378C148.505 72.4798 148.812 72.4029 148.954 72.1661C149.096 71.9292 149.019 71.6221 148.782 71.4801L148.268 72.3378ZM152.756 73.8621C152.519 73.7201 152.212 73.797 152.07 74.0339C151.928 74.2707 152.005 74.5778 152.241 74.7198L152.756 73.8621ZM155.685 76.871C155.916 77.0229 156.226 76.959 156.378 76.7284C156.53 76.4978 156.466 76.1877 156.235 76.0358L155.685 76.871ZM159.186 77.9788C158.955 77.827 158.645 77.8908 158.493 78.1214C158.341 78.3521 158.405 78.6621 158.636 78.814L159.186 77.9788ZM161.586 80.757C161.817 80.9089 162.127 80.8451 162.279 80.6144C162.431 80.3838 162.367 80.0737 162.136 79.9219L161.586 80.757ZM165.087 81.8649C164.856 81.713 164.546 81.7768 164.394 82.0074C164.242 82.2381 164.306 82.5481 164.537 82.7L165.087 81.8649ZM167.487 84.643C167.718 84.7949 168.028 84.7311 168.18 84.5004C168.332 84.2698 168.268 83.9597 168.037 83.8079L167.487 84.643ZM170.988 85.7509C170.757 85.599 170.447 85.6628 170.295 85.8935C170.143 86.1241 170.207 86.4342 170.438 86.586L170.988 85.7509ZM173.388 88.529C173.619 88.6809 173.929 88.6171 174.081 88.3865C174.233 88.1558 174.169 87.8457 173.938 87.6939L173.388 88.529ZM176.889 89.6369C176.658 89.485 176.348 89.5488 176.196 89.7795C176.044 90.0101 176.108 90.3202 176.339 90.472L176.889 89.6369ZM130.387 61.619L132.374 62.81L132.888 61.9523L130.902 60.7613L130.387 61.619ZM136.348 65.1919L140.321 67.5739L140.835 66.7162L136.862 64.3343L136.348 65.1919ZM144.294 69.9559L148.268 72.3378L148.782 71.4801L144.809 69.0982L144.294 69.9559ZM152.241 74.7198L154.228 75.9108L154.742 75.0531L152.756 73.8621L152.241 74.7198ZM154.21 75.8995L155.685 76.871L156.235 76.0358L154.76 75.0643L154.21 75.8995ZM158.636 78.814L161.586 80.757L162.136 79.9219L159.186 77.9788L158.636 78.814ZM164.537 82.7L167.487 84.643L168.037 83.8079L165.087 81.8649L164.537 82.7ZM170.438 86.586L173.388 88.529L173.938 87.6939L170.988 85.7509L170.438 86.586ZM176.339 90.472L177.814 91.4435L178.364 90.6084L176.889 89.6369L176.339 90.472Z" fill="black" />
    <path d="M144.469 77.8474C144.554 78.4732 144.476 78.9267 144.293 79.2169C143.229 80.4634 141.459 80.7958 139.49 80.466C137.52 80.136 135.483 79.1581 134.088 77.9878C132.647 76.778 131.381 75.4074 130.764 74.0229C130.458 73.3373 130.319 72.6656 130.382 72.0155C130.443 71.3758 130.702 70.7231 131.247 70.0681C131.589 69.7336 132.128 69.4729 132.832 69.3218C133.542 69.1696 134.383 69.1367 135.275 69.2306C137.064 69.4191 138.979 70.1097 140.348 71.259C141.752 72.4367 143.004 74.1056 143.761 75.6825C144.139 76.4706 144.383 77.2151 144.469 77.8474Z" stroke="black" />
    <path d="M130.883 70.876C129.731 72.6031 128.586 74.9053 129.156 76.0573C129.725 77.2093 134.719 81.7659 137.216 82.39C139.518 82.9657 142.971 80.6629 144.122 79.5115" stroke="black" />
    <path d="M151.564 108.473C151.648 109.099 151.57 109.553 151.387 109.843C150.324 111.089 148.554 111.422 146.585 111.092C144.614 110.762 142.578 109.784 141.183 108.614C139.741 107.404 138.475 106.033 137.858 104.649C137.553 103.963 137.414 103.292 137.476 102.641C137.538 102.002 137.797 101.349 138.342 100.694C138.684 100.36 139.223 100.099 139.927 99.9477C140.636 99.7956 141.478 99.7627 142.369 99.8566C144.159 100.045 146.073 100.736 147.443 101.885C148.846 103.063 150.099 104.732 150.856 106.309C151.234 107.097 151.478 107.841 151.564 108.473Z" stroke="black" />
    <path d="M137.977 101.502C136.826 103.229 135.681 105.531 136.251 106.683C136.82 107.835 141.814 112.392 144.31 113.016C146.613 113.592 150.066 111.289 151.217 110.137" stroke="black" />
    <path d="M137.747 123.442C137.832 124.068 137.754 124.521 137.571 124.812C136.507 126.058 134.737 126.391 132.768 126.061C130.798 125.731 128.761 124.753 127.367 123.583C125.925 122.373 124.659 121.002 124.042 119.618C123.736 118.932 123.598 118.26 123.66 117.61C123.721 116.971 123.981 116.318 124.525 115.663C124.867 115.328 125.406 115.068 126.111 114.916C126.82 114.764 127.662 114.731 128.553 114.825C130.342 115.014 132.257 115.704 133.627 116.854C135.03 118.031 136.283 119.7 137.039 121.277C137.417 122.065 137.662 122.81 137.747 123.442Z" stroke="black" />
    <path d="M124.161 116.471C123.009 118.198 121.865 120.5 122.434 121.652C123.004 122.804 127.998 127.361 130.494 127.985C132.797 128.56 136.249 126.258 137.401 125.106" stroke="black" />
    <path d="M122.779 139.561C122.864 140.187 122.786 140.641 122.603 140.931C121.54 142.177 119.77 142.51 117.8 142.18C115.83 141.85 113.794 140.872 112.399 139.702C110.957 138.492 109.691 137.121 109.074 135.737C108.769 135.051 108.63 134.379 108.692 133.729C108.754 133.09 109.013 132.437 109.557 131.782C109.9 131.447 110.438 131.187 111.143 131.036C111.852 130.883 112.694 130.851 113.585 130.945C115.375 131.133 117.289 131.824 118.659 132.973C120.062 134.151 121.315 135.82 122.071 137.396C122.449 138.184 122.694 138.929 122.779 139.561Z" stroke="black" />
    <path d="M109.193 132.59C108.042 134.317 106.897 136.619 107.466 137.771C108.036 138.923 113.03 143.48 115.526 144.104C117.829 144.68 121.282 142.377 122.433 141.225" stroke="black" />
    <path d="M128.536 92.3542C128.621 92.9801 128.543 93.4336 128.36 93.7237C127.297 94.9702 125.527 95.3026 123.557 94.9728C121.587 94.6428 119.55 93.6649 118.156 92.4947C116.714 91.2849 115.448 89.9142 114.831 88.5297C114.526 87.8442 114.387 87.1724 114.449 86.5223C114.511 85.8826 114.77 85.2299 115.314 84.5749C115.656 84.2404 116.195 83.9797 116.9 83.8286C117.609 83.6764 118.451 83.6436 119.342 83.7375C121.131 83.926 123.046 84.6165 124.416 85.7658C125.819 86.9435 127.072 88.6125 127.828 90.1894C128.206 90.9774 128.451 91.722 128.536 92.3542Z" stroke="black" />
    <path d="M114.95 85.3828C113.798 87.1099 112.654 89.4122 113.223 90.5641C113.793 91.7161 118.787 96.2728 121.283 96.8969C123.586 97.4726 127.038 95.1697 128.19 94.0183" stroke="black" />
    <path d="M114.719 107.323C114.804 107.949 114.726 108.402 114.543 108.692C113.479 109.939 111.709 110.271 109.74 109.942C107.77 109.612 105.733 108.634 104.338 107.463C102.897 106.254 101.631 104.883 101.014 103.498C100.708 102.813 100.569 102.141 100.632 101.491C100.693 100.851 100.952 100.199 101.497 99.5437C101.839 99.2092 102.378 98.9485 103.082 98.7974C103.792 98.6452 104.633 98.6123 105.525 98.7062C107.314 98.8947 109.229 99.5853 110.598 100.735C112.002 101.912 113.254 103.581 114.011 105.158C114.389 105.946 114.633 106.691 114.719 107.323Z" stroke="black" />
    <path d="M101.133 100.352C99.9811 102.079 98.8362 104.381 99.4058 105.533C99.9754 106.685 104.969 111.242 107.466 111.866C109.768 112.441 113.221 110.138 114.372 108.987" stroke="black" />
    <path d="M99.7511 123.442C99.836 124.068 99.758 124.521 99.575 124.812C98.5113 126.058 96.7414 126.391 94.772 126.061C92.802 125.731 90.7653 124.753 89.3707 123.583C87.929 122.373 86.663 121.002 86.0459 119.618C85.7404 118.932 85.6016 118.26 85.664 117.61C85.7254 116.971 85.9845 116.318 86.5292 115.663C86.8713 115.328 87.41 115.068 88.1146 114.916C88.824 114.764 89.6655 114.731 90.5569 114.825C92.3462 115.014 94.2609 115.704 95.6304 116.854C97.0339 118.031 98.2864 119.7 99.043 121.277C99.4211 122.065 99.6654 122.81 99.7511 123.442Z" stroke="black" />
    <path d="M86.1649 116.471C85.0133 118.198 83.8685 120.5 84.438 121.652C85.0076 122.804 90.0016 127.361 92.4979 127.985C94.8007 128.56 98.2533 126.258 99.4047 125.106" stroke="black" />
    <path d="M167.684 92.3542C167.769 92.9801 167.691 93.4336 167.508 93.7237C166.444 94.9702 164.674 95.3026 162.705 94.9728C160.735 94.6428 158.698 93.6649 157.303 92.4947C155.862 91.2849 154.596 89.9142 153.979 88.5297C153.673 87.8442 153.534 87.1724 153.597 86.5223C153.658 85.8826 153.917 85.2299 154.462 84.5749C154.804 84.2404 155.343 83.9797 156.047 83.8286C156.757 83.6764 157.598 83.6436 158.49 83.7375C160.279 83.926 162.193 84.6165 163.563 85.7658C164.967 86.9435 166.219 88.6125 166.976 90.1894C167.354 90.9774 167.598 91.722 167.684 92.3542Z" stroke="black" />
    <path d="M154.098 85.3828C152.946 87.1099 151.801 89.4122 152.371 90.5641C152.94 91.7161 157.934 96.2728 160.431 96.8969C162.733 97.4726 166.186 95.1697 167.337 94.0183" stroke="black" />
    <path d="M181.5 77.3855C181.585 78.0113 181.507 78.4648 181.324 78.7549C180.26 80.0015 178.49 80.3339 176.521 80.004C174.551 79.6741 172.514 78.6961 171.12 77.5259C169.678 76.3161 168.412 74.9455 167.795 73.5609C167.489 72.8754 167.351 72.2036 167.413 71.5536C167.474 70.9139 167.734 70.2612 168.278 69.6062C168.62 69.2717 169.159 69.011 169.864 68.8599C170.573 68.7077 171.415 68.6748 172.306 68.7687C174.095 68.9572 176.01 69.6478 177.379 70.797C178.783 71.9748 180.035 73.6437 180.792 75.2206C181.17 76.0086 181.414 76.7532 181.5 77.3855Z" stroke="black" />
    <path d="M167.914 70.4141C166.762 72.1412 165.617 74.4434 166.187 75.5954C166.757 76.7473 171.751 81.304 174.247 81.9281C176.55 82.5038 180.002 80.201 181.154 79.0496" stroke="black" />
    <path d="M156.903 61.5701C157.096 62.1716 157.098 62.6317 156.969 62.9494C156.139 64.3625 154.454 64.9989 152.458 65.018C150.46 65.0372 148.284 64.4299 146.707 63.5212C145.076 62.5818 143.59 61.4533 142.74 60.1978C142.32 59.5762 142.066 58.939 142.014 58.288C141.963 57.6474 142.104 56.9595 142.526 56.2194C142.804 55.8303 143.289 55.4795 143.956 55.2077C144.628 54.934 145.451 54.7547 146.345 54.6915C148.14 54.5646 150.146 54.9102 151.695 55.8026C153.283 56.7171 154.807 58.1417 155.828 59.5622C156.338 60.2721 156.708 60.9626 156.903 61.5701Z" stroke="black" />
    <path d="M142.309 57.0783C141.477 58.98 140.751 61.4468 141.513 62.4816C142.275 63.5164 147.988 67.1309 150.555 67.3094C152.923 67.4741 155.921 64.6038 156.853 63.269" stroke="black" />
    <defs>
        <filter id="filter0_d_37_9" x="0" y="0" width="257" height="257" filterUnits="userSpaceOnUse" color-interpolation-filters="sRGB">
            <feFlood flood-opacity="0" result="BackgroundImageFix" />
            <feColorMatrix in="SourceAlpha" type="matrix" values="0 0 0 0 0 0 0 0 0 0 0 0 0 0 0 0 0 0 127 0" result="hardAlpha" />
            <feOffset dy="4" />
            <feGaussianBlur stdDeviation="8" />
            <feComposite in2="hardAlpha" operator="out" />
            <feColorMatrix type="matrix" values="0 0 0 0 0.591667 0 0 0 0 0.591667 0 0 0 0 0.591667 0 0 0 0.25 0" />
            <feBlend mode="normal" in2="BackgroundImageFix" result="effect1_dropShadow_37_9" />
            <feBlend mode="normal" in="SourceGraphic" in2="effect1_dropShadow_37_9" result="shape" />
        </filter>
    </defs>
</svg>
    