<svg xmlns="http://www.w3.org/2000/svg" xmlns:xlink="http://www.w3.org/1999/xlink" version="1.1" id="Layer_1" x="0px" y="0px" viewBox="0 0 148.34 130.79" style="enable-background:new 0 0 148.34 130.79;" xml:space="preserve">
    <style type="text/css">
        .st0{fill:#FFFFFF;}
        .st1{fill:#ACD4F7;}
    </style>
    <g>
        <g>
            <g>
                <path class="st0" d="M68.6,39.85H24.14c-0.48,0-0.87,0.39-0.87,0.87v6.84c0,0.48,0.39,0.87,0.87,0.87H68.6     c0.48,0,0.87-0.39,0.87-0.87v-6.84C69.47,40.24,69.08,39.85,68.6,39.85z M67.73,46.69H25.01v-5.1h42.72V46.69z"/>
                <path class="st0" d="M97.37,57.04v6.84c0,0.48-0.39,0.87-0.87,0.87H24.14c-0.48,0-0.87-0.39-0.87-0.87v-6.84     c0-0.48,0.39-0.87,0.87-0.87H96.5C96.98,56.17,97.37,56.56,97.37,57.04z"/>
                <path class="st0" d="M20.23,87.21c0.19,0.39,0.39,0.76,0.6,1.13l0.02-0.13C20.93,87.76,20.66,87.33,20.23,87.21z M96.5,23.52     H24.14c-0.48,0-0.87,0.39-0.87,0.87v6.84c0,0.48,0.39,0.87,0.87,0.87H96.5c0.48,0,0.87-0.39,0.87-0.87v-6.84     C97.37,23.91,96.98,23.52,96.5,23.52z M131.17,41.03c-0.12-2.31-0.27-4.62-0.39-6.93v28.7c0,12.45-8.67,22.87-20.3,25.56     c1.88-0.14,3.59-0.51,6.07-1.29c0.04-0.01,0.07-0.02,0.11-0.04c0.91-0.3,1.92-0.91,2.95-1.71c0-0.01,0.01-0.01,0.01-0.01     c3.84-3.01,8.09-8.83,9.5-12.49c0.17-0.49,0.7-1.63,1.2-3.41c0.03-0.08,0.06-0.17,0.09-0.26c0.04-0.17,0.09-0.33,0.12-0.5     c0.45-1.67,0.53-6.36,0.48-9.79C130.99,52.92,131.36,46.97,131.17,41.03z M44.33,91.65c-0.11-0.11-0.3-0.11-0.41,0l-5.74,5.74     c-0.11,0.11-0.11,0.29-0.01,0.4l0.01,0.01c0.05,0.05,0.13,0.08,0.2,0.08s0.15-0.03,0.21-0.08l5.74-5.74     C44.44,91.95,44.44,91.76,44.33,91.65z M51.58,91.65c-0.11-0.11-0.3-0.11-0.41,0l-1.81,1.81l-3.93,3.93     c-0.11,0.11-0.11,0.3,0,0.41c0.05,0.05,0.13,0.08,0.2,0.08s0.15-0.03,0.21-0.08l5.74-5.74C51.69,91.95,51.69,91.76,51.58,91.65z      M58.54,91.65c-0.11-0.11-0.3-0.11-0.41,0l-1.61,1.61l-4.13,4.13c-0.11,0.11-0.11,0.3,0,0.41c0.05,0.05,0.13,0.08,0.2,0.08     c0.07,0,0.15-0.03,0.21-0.08l5.74-5.74C58.65,91.95,58.65,91.76,58.54,91.65z M65.57,91.65c-0.11-0.11-0.3-0.11-0.41,0     l-1.43,1.43l-4.31,4.31c-0.11,0.11-0.11,0.3,0,0.41c0.06,0.05,0.14,0.08,0.21,0.08c0.08,0,0.15-0.03,0.2-0.08l5.74-5.74     C65.68,91.95,65.68,91.76,65.57,91.65z M71.77,91.65c-0.11-0.11-0.3-0.11-0.41,0l-1.38,1.38l-4.36,4.36     c-0.11,0.11-0.11,0.3,0,0.41c0.06,0.05,0.14,0.08,0.21,0.08s0.15-0.03,0.2-0.08l4.77-4.77l0.97-0.97     C71.88,91.95,71.88,91.76,71.77,91.65z M79.02,91.65c-0.11-0.11-0.3-0.11-0.41,0l-1.31,1.31l-4.43,4.43     c-0.11,0.11-0.11,0.3,0,0.41c0.06,0.05,0.14,0.08,0.21,0.08s0.15-0.03,0.2-0.08l5.74-5.74C79.13,91.95,79.13,91.76,79.02,91.65z      M85.98,91.65c-0.11-0.11-0.3-0.11-0.41,0l-1.21,1.21l-4.53,4.53c-0.11,0.11-0.11,0.3,0,0.41c0.06,0.05,0.14,0.08,0.21,0.08     s0.15-0.03,0.2-0.08l5.74-5.74C86.09,91.95,86.09,91.76,85.98,91.65z M93.03,91.65c-0.11-0.11-0.3-0.11-0.41,0l-1.08,1.08     l-4.66,4.66c-0.11,0.11-0.11,0.3,0,0.41c0.06,0.05,0.14,0.08,0.21,0.08c0.07,0,0.15-0.03,0.2-0.08l5.07-5.07l0.67-0.67     C93.14,91.95,93.14,91.76,93.03,91.65z M100.78,91.65c-0.11-0.11-0.3-0.11-0.41,0l-1.03,1.03l-4.71,4.71     c-0.11,0.11-0.11,0.3,0,0.41c0.05,0.05,0.13,0.08,0.2,0.08s0.15-0.03,0.21-0.08l5.14-5.14l0.6-0.6     C100.89,91.95,100.89,91.76,100.78,91.65z M108.03,91.65c-0.11-0.11-0.3-0.11-0.41,0l-0.81,0.81l-4.93,4.93     c-0.11,0.11-0.11,0.3,0,0.41c0.05,0.05,0.13,0.08,0.2,0.08s0.15-0.03,0.21-0.08l5.35-5.35l0.39-0.39     C108.14,91.95,108.14,91.76,108.03,91.65z M116.01,90.62c-0.11-0.11-0.3-0.11-0.41,0l-1.16,1.16l-5.61,5.61     c-0.11,0.11-0.11,0.3,0,0.41c0.06,0.05,0.14,0.08,0.21,0.08s0.14-0.02,0.2-0.08l6.77-6.77     C116.12,90.92,116.12,90.73,116.01,90.62z M125.63,103.43c-0.11-0.11-0.3-0.11-0.41,0l-5.43,5.43c-0.11,0.11-0.11,0.3,0,0.41     c0.06,0.05,0.14,0.08,0.21,0.08s0.15-0.03,0.2-0.08l5.43-5.43C125.74,103.73,125.74,103.54,125.63,103.43z M126.99,109.29     c-0.11-0.11-0.3-0.11-0.41,0l-3.59,3.59c-0.11,0.11-0.11,0.3,0,0.41c0.06,0.05,0.14,0.08,0.21,0.08c0.08,0,0.15-0.02,0.2-0.08     l3.59-3.59C127.1,109.59,127.1,109.4,126.99,109.29z M128.5,115.2c-0.11-0.11-0.3-0.11-0.41,0l-2.05,2.05     c-0.11,0.11-0.11,0.3,0,0.41c0.05,0.05,0.13,0.08,0.2,0.08s0.15-0.02,0.21-0.08l2.05-2.05     C128.61,115.5,128.61,115.31,128.5,115.2z M135.14,21.23c-0.11-0.11-0.3-0.11-0.41,0l-1.74,1.74c-0.11,0.11-0.11,0.3,0,0.41     c0.06,0.06,0.14,0.09,0.21,0.09c0.08,0,0.15-0.02,0.2-0.09l1.14-1.14l0.6-0.6C135.25,21.53,135.25,21.34,135.14,21.23z      M138.27,25.68c-0.11-0.11-0.3-0.11-0.41,0l-4,4c-0.11,0.11-0.11,0.3,0,0.41c0.06,0.05,0.14,0.08,0.21,0.08s0.14-0.03,0.2-0.08     l4-4C138.38,25.98,138.38,25.79,138.27,25.68z M140.73,29.67c-0.11-0.11-0.3-0.11-0.41,0l-6.97,6.97c-0.11,0.11-0.11,0.3,0,0.41     c0.06,0.05,0.14,0.08,0.21,0.08s0.15-0.03,0.2-0.08l1.41-1.41l5.56-5.56C140.84,29.97,140.84,29.78,140.73,29.67z M145.05,46.51     c-0.11-0.11-0.3-0.11-0.41,0l-9.11,9.11l-1.66,1.66c-0.11,0.11-0.11,0.3,0,0.41c0.06,0.05,0.14,0.08,0.21,0.08     s0.14-0.03,0.2-0.08l1.24-1.24l9.53-9.53C145.16,46.81,145.16,46.62,145.05,46.51z M142.76,34.87c-0.11-0.11-0.3-0.11-0.41,0     l-6.76,6.76l-2.26,2.26c-0.11,0.11-0.11,0.3,0,0.41c0.06,0.05,0.14,0.08,0.21,0.08c0.08,0,0.15-0.03,0.2-0.08l9.02-9.02     C142.87,35.17,142.87,34.98,142.76,34.87z M144.51,40.17c-0.11-0.11-0.3-0.11-0.41,0l-8.46,8.46l-2.31,2.31     c-0.11,0.11-0.11,0.3,0,0.41c0.06,0.05,0.14,0.08,0.21,0.08s0.15-0.03,0.2-0.08l10.77-10.77     C144.62,40.47,144.62,40.28,144.51,40.17z M141.61,86.28c-0.11-0.11-0.3-0.11-0.41,0l-8.72,8.71c-0.11,0.11-0.11,0.3,0,0.41     c0.06,0.05,0.14,0.08,0.21,0.08s0.15-0.03,0.2-0.08l8.72-8.71C141.72,86.58,141.72,86.39,141.61,86.28z M143.48,77.84     c-0.11-0.11-0.3-0.11-0.41,0l-26.45,26.45c-0.11,0.11-0.11,0.3,0,0.41c0.05,0.05,0.13,0.08,0.2,0.08s0.15-0.03,0.21-0.08     l26.45-26.45C143.59,78.14,143.59,77.95,143.48,77.84z M144.41,69.69c-0.11-0.11-0.3-0.11-0.41,0l-30.86,30.87     c-0.11,0.11-0.11,0.3,0,0.41c0.06,0.05,0.14,0.08,0.21,0.08c0.07,0,0.15-0.03,0.2-0.09l30.86-30.86     C144.52,69.99,144.52,69.8,144.41,69.69z M145.04,61.59c-0.11-0.11-0.3-0.11-0.41,0L131.2,75.02c-0.11,0.11-0.11,0.3,0,0.41     c0.06,0.05,0.14,0.08,0.21,0.08c0.07,0,0.15-0.03,0.2-0.08L145.04,62C145.15,61.89,145.15,61.7,145.04,61.59z M145.05,53.96     c-0.11-0.11-0.3-0.11-0.41,0l-9.11,9.11l-1.66,1.66c-0.11,0.11-0.11,0.3,0,0.41c0.06,0.05,0.14,0.08,0.21,0.08     s0.14-0.03,0.2-0.08l1.18-1.18l9.59-9.59C145.16,54.26,145.16,54.07,145.05,53.96z M144.64,53.96l-9.11,9.11l-1.66,1.66     c-0.11,0.11-0.11,0.3,0,0.41c0.06,0.05,0.14,0.08,0.21,0.08s0.14-0.03,0.2-0.08l1.18-1.18l9.59-9.59c0.11-0.11,0.11-0.3,0-0.41     C144.94,53.85,144.75,53.85,144.64,53.96z M144.63,61.59L131.2,75.02c-0.11,0.11-0.11,0.3,0,0.41c0.06,0.05,0.14,0.08,0.21,0.08     c0.07,0,0.15-0.03,0.2-0.08L145.04,62c0.11-0.11,0.11-0.3,0-0.41C144.93,61.48,144.74,61.48,144.63,61.59z M144,69.69     l-30.86,30.87c-0.11,0.11-0.11,0.3,0,0.41c0.06,0.05,0.14,0.08,0.21,0.08c0.07,0,0.15-0.03,0.2-0.09l30.86-30.86     c0.11-0.11,0.11-0.3,0-0.41C144.3,69.58,144.11,69.58,144,69.69z M143.07,77.84l-26.45,26.45c-0.11,0.11-0.11,0.3,0,0.41     c0.05,0.05,0.13,0.08,0.2,0.08s0.15-0.03,0.21-0.08l26.45-26.45c0.11-0.11,0.11-0.3,0-0.41     C143.37,77.73,143.18,77.73,143.07,77.84z M141.2,86.28l-8.72,8.71c-0.11,0.11-0.11,0.3,0,0.41c0.06,0.05,0.14,0.08,0.21,0.08     s0.15-0.03,0.2-0.08l8.72-8.71c0.11-0.11,0.11-0.3,0-0.41C141.5,86.17,141.31,86.17,141.2,86.28z M133.33,50.94     c-0.11,0.11-0.11,0.3,0,0.41c0.06,0.05,0.14,0.08,0.21,0.08s0.15-0.03,0.2-0.08l10.77-10.77c0.11-0.11,0.11-0.3,0-0.41     s-0.3-0.11-0.41,0l-8.46,8.46L133.33,50.94z M133.33,43.89c-0.11,0.11-0.11,0.3,0,0.41c0.06,0.05,0.14,0.08,0.21,0.08     c0.08,0,0.15-0.03,0.2-0.08l9.02-9.02c0.11-0.11,0.11-0.3,0-0.41s-0.3-0.11-0.41,0l-6.76,6.76L133.33,43.89z M133.87,57.28     c-0.11,0.11-0.11,0.3,0,0.41c0.06,0.05,0.14,0.08,0.21,0.08s0.14-0.03,0.2-0.08l1.24-1.24l9.53-9.53c0.11-0.11,0.11-0.3,0-0.41     c-0.11-0.11-0.3-0.11-0.41,0l-9.11,9.11L133.87,57.28z M133.35,36.64c-0.11,0.11-0.11,0.3,0,0.41c0.06,0.05,0.14,0.08,0.21,0.08     s0.15-0.03,0.2-0.08l1.41-1.41l5.56-5.56c0.11-0.11,0.11-0.3,0-0.41c-0.11-0.11-0.3-0.11-0.41,0L133.35,36.64z M133.86,29.68     c-0.11,0.11-0.11,0.3,0,0.41c0.06,0.05,0.14,0.08,0.21,0.08s0.14-0.03,0.2-0.08l4-4c0.11-0.11,0.11-0.3,0-0.41     c-0.11-0.11-0.3-0.11-0.41,0L133.86,29.68z M133.2,23.47c0.08,0,0.15-0.02,0.2-0.09l1.14-1.14l0.6-0.6c0.11-0.11,0.11-0.3,0-0.41     s-0.3-0.11-0.41,0l-1.74,1.74c-0.11,0.11-0.11,0.3,0,0.41C133.05,23.44,133.13,23.47,133.2,23.47z M116.66,87.03     c0.91-0.3,1.92-0.91,2.95-1.71c0-0.01,0.01-0.01,0.01-0.01c3.84-3.01,8.09-8.83,9.5-12.49c0.17-0.49,0.7-1.63,1.2-3.41     c0.03-0.08,0.06-0.17,0.09-0.26c0.04-0.17,0.09-0.33,0.12-0.5c0.45-1.67,0.53-6.36,0.48-9.79c-0.02-5.94,0.35-11.89,0.16-17.83     c-0.12-2.31-0.27-4.62-0.39-6.93v28.7c0,12.45-8.67,22.87-20.3,25.56c1.88-0.14,3.59-0.51,6.07-1.29     C116.59,87.06,116.62,87.05,116.66,87.03z M128.09,115.2l-2.05,2.05c-0.11,0.11-0.11,0.3,0,0.41c0.05,0.05,0.13,0.08,0.2,0.08     s0.15-0.02,0.21-0.08l2.05-2.05c0.11-0.11,0.11-0.3,0-0.41C128.39,115.09,128.2,115.09,128.09,115.2z M126.99,109.29     c-0.11-0.11-0.3-0.11-0.41,0l-3.59,3.59c-0.11,0.11-0.11,0.3,0,0.41c0.06,0.05,0.14,0.08,0.21,0.08c0.08,0,0.15-0.02,0.2-0.08     l3.59-3.59C127.1,109.59,127.1,109.4,126.99,109.29z M125.63,103.43c-0.11-0.11-0.3-0.11-0.41,0l-5.43,5.43     c-0.11,0.11-0.11,0.3,0,0.41c0.06,0.05,0.14,0.08,0.21,0.08s0.15-0.03,0.2-0.08l5.43-5.43     C125.74,103.73,125.74,103.54,125.63,103.43z M116.01,91.03c0.11-0.11,0.11-0.3,0-0.41s-0.3-0.11-0.41,0l-1.16,1.16l-5.61,5.61     c-0.11,0.11-0.11,0.3,0,0.41c0.06,0.05,0.14,0.08,0.21,0.08s0.14-0.02,0.2-0.08L116.01,91.03z M107.62,91.65l-0.81,0.81     l-4.93,4.93c-0.11,0.11-0.11,0.3,0,0.41c0.05,0.05,0.13,0.08,0.2,0.08s0.15-0.03,0.21-0.08l5.35-5.35l0.39-0.39     c0.11-0.11,0.11-0.3,0-0.41C107.92,91.54,107.73,91.54,107.62,91.65z M100.37,91.65l-1.03,1.03l-4.71,4.71     c-0.11,0.11-0.11,0.3,0,0.41c0.05,0.05,0.13,0.08,0.2,0.08s0.15-0.03,0.21-0.08l5.14-5.14l0.6-0.6c0.11-0.11,0.11-0.3,0-0.41     C100.67,91.54,100.48,91.54,100.37,91.65z M92.62,91.65l-1.08,1.08l-4.66,4.66c-0.11,0.11-0.11,0.3,0,0.41     c0.06,0.05,0.14,0.08,0.21,0.08c0.07,0,0.15-0.03,0.2-0.08l5.07-5.07l0.67-0.67c0.11-0.11,0.11-0.3,0-0.41     C92.92,91.54,92.73,91.54,92.62,91.65z M85.57,91.65l-1.21,1.21l-4.53,4.53c-0.11,0.11-0.11,0.3,0,0.41     c0.06,0.05,0.14,0.08,0.21,0.08s0.15-0.03,0.2-0.08l5.74-5.74c0.11-0.11,0.11-0.3,0-0.41C85.87,91.54,85.68,91.54,85.57,91.65z      M78.61,91.65l-1.31,1.31l-4.43,4.43c-0.11,0.11-0.11,0.3,0,0.41c0.06,0.05,0.14,0.08,0.21,0.08s0.15-0.03,0.2-0.08l5.74-5.74     c0.11-0.11,0.11-0.3,0-0.41C78.91,91.54,78.72,91.54,78.61,91.65z M71.36,91.65l-1.38,1.38l-4.36,4.36     c-0.11,0.11-0.11,0.3,0,0.41c0.06,0.05,0.14,0.08,0.21,0.08s0.15-0.03,0.2-0.08l4.77-4.77l0.97-0.97c0.11-0.11,0.11-0.3,0-0.41     C71.66,91.54,71.47,91.54,71.36,91.65z M65.57,91.65c-0.11-0.11-0.3-0.11-0.41,0l-1.43,1.43l-4.31,4.31     c-0.11,0.11-0.11,0.3,0,0.41c0.06,0.05,0.14,0.08,0.21,0.08c0.08,0,0.15-0.03,0.2-0.08l5.74-5.74     C65.68,91.95,65.68,91.76,65.57,91.65z M58.13,91.65l-1.61,1.61l-4.13,4.13c-0.11,0.11-0.11,0.3,0,0.41     c0.05,0.05,0.13,0.08,0.2,0.08c0.07,0,0.15-0.03,0.21-0.08l5.74-5.74c0.11-0.11,0.11-0.3,0-0.41     C58.43,91.54,58.24,91.54,58.13,91.65z M51.17,91.65l-1.81,1.81l-3.93,3.93c-0.11,0.11-0.11,0.3,0,0.41     c0.05,0.05,0.13,0.08,0.2,0.08s0.15-0.03,0.21-0.08l5.74-5.74c0.11-0.11,0.11-0.3,0-0.41C51.47,91.54,51.28,91.54,51.17,91.65z      M43.92,91.65l-5.74,5.74c-0.11,0.11-0.11,0.29-0.01,0.4l0.01,0.01c0.05,0.05,0.13,0.08,0.2,0.08s0.15-0.03,0.21-0.08l5.74-5.74     c0.11-0.11,0.11-0.3,0-0.41C44.22,91.54,44.03,91.54,43.92,91.65z M132.27,16.14c-0.6-0.29-1.21-0.54-1.84-0.77     c-0.57-0.22-1.16-0.42-1.75-0.58c-0.37-0.12-0.74-0.22-1.12-0.31c-0.39-0.1-0.78-0.19-1.17-0.26c0.21,0.33,0.39,0.67,0.58,1.01     c1.88,3.54,2.95,7.58,2.95,11.87v35.71c0,13.98-11.38,25.36-25.36,25.36H38.82c-0.25,0-0.5,0.11-0.66,0.3l-7.59,8.8l-0.59,0.68     c0.25,0.16,0.5,0.31,0.75,0.45c0.26,0.15,0.51,0.29,0.78,0.43c0.03,0.02,0.06,0.03,0.09,0.04c1.16,0.62,2.37,1.14,3.63,1.57     c2.68,0.93,5.56,1.43,8.55,1.43h65.75l24.18,28.05l-5.36-29.03c11.03-3.1,19.12-13.23,19.12-25.25v-35.7     C147.47,29.39,141.25,20.3,132.27,16.14z M146.6,75.63c0,11.31-7.61,21.35-18.49,24.41c-0.43,0.13-0.7,0.56-0.62,1l4.77,25.87     l-22.08-25.61c-0.17-0.19-0.41-0.3-0.66-0.3H43.78c-2.7,0-5.29-0.42-7.73-1.21c-1.37-0.43-2.69-0.99-3.95-1.65l7.11-8.24h65.35     c4.35,0,8.46-1.03,12.1-2.87c0.91-0.3,1.92-0.91,2.95-1.71c0-0.01,0.01-0.01,0.01-0.01c7.26-4.86,12.04-13.14,12.04-22.51V27.1     c0-3.98-0.86-7.77-2.42-11.17c0.01-0.02,0.02-0.04,0.04-0.05c1.32,0.44,2.58,0.99,3.79,1.63c8.04,4.25,13.53,12.71,13.53,22.42     V75.63z M144.64,53.96l-9.11,9.11l-1.66,1.66c-0.11,0.11-0.11,0.3,0,0.41c0.06,0.05,0.14,0.08,0.21,0.08s0.14-0.03,0.2-0.08     l1.18-1.18l9.59-9.59c0.11-0.11,0.11-0.3,0-0.41C144.94,53.85,144.75,53.85,144.64,53.96z M144.63,61.59L131.2,75.02     c-0.11,0.11-0.11,0.3,0,0.41c0.06,0.05,0.14,0.08,0.21,0.08c0.07,0,0.15-0.03,0.2-0.08L145.04,62c0.11-0.11,0.11-0.3,0-0.41     C144.93,61.48,144.74,61.48,144.63,61.59z M144,69.69l-30.86,30.87c-0.11,0.11-0.11,0.3,0,0.41c0.06,0.05,0.14,0.08,0.21,0.08     c0.07,0,0.15-0.03,0.2-0.09l30.86-30.86c0.11-0.11,0.11-0.3,0-0.41C144.3,69.58,144.11,69.58,144,69.69z M143.07,77.84     l-26.45,26.45c-0.11,0.11-0.11,0.3,0,0.41c0.05,0.05,0.13,0.08,0.2,0.08s0.15-0.03,0.21-0.08l26.45-26.45     c0.11-0.11,0.11-0.3,0-0.41C143.37,77.73,143.18,77.73,143.07,77.84z M141.2,86.28l-8.72,8.71c-0.11,0.11-0.11,0.3,0,0.41     c0.06,0.05,0.14,0.08,0.21,0.08s0.15-0.03,0.2-0.08l8.72-8.71c0.11-0.11,0.11-0.3,0-0.41C141.5,86.17,141.31,86.17,141.2,86.28z      M133.33,50.94c-0.11,0.11-0.11,0.3,0,0.41c0.06,0.05,0.14,0.08,0.21,0.08s0.15-0.03,0.2-0.08l10.77-10.77     c0.11-0.11,0.11-0.3,0-0.41s-0.3-0.11-0.41,0l-8.46,8.46L133.33,50.94z M133.33,43.89c-0.11,0.11-0.11,0.3,0,0.41     c0.06,0.05,0.14,0.08,0.21,0.08c0.08,0,0.15-0.03,0.2-0.08l9.02-9.02c0.11-0.11,0.11-0.3,0-0.41s-0.3-0.11-0.41,0l-6.76,6.76     L133.33,43.89z M133.87,57.28c-0.11,0.11-0.11,0.3,0,0.41c0.06,0.05,0.14,0.08,0.21,0.08s0.14-0.03,0.2-0.08l1.24-1.24l9.53-9.53     c0.11-0.11,0.11-0.3,0-0.41c-0.11-0.11-0.3-0.11-0.41,0l-9.11,9.11L133.87,57.28z M133.35,36.64c-0.11,0.11-0.11,0.3,0,0.41     c0.06,0.05,0.14,0.08,0.21,0.08s0.15-0.03,0.2-0.08l1.41-1.41l5.56-5.56c0.11-0.11,0.11-0.3,0-0.41c-0.11-0.11-0.3-0.11-0.41,0     L133.35,36.64z M133.86,29.68c-0.11,0.11-0.11,0.3,0,0.41c0.06,0.05,0.14,0.08,0.21,0.08s0.14-0.03,0.2-0.08l4-4     c0.11-0.11,0.11-0.3,0-0.41c-0.11-0.11-0.3-0.11-0.41,0L133.86,29.68z M133.2,23.47c0.08,0,0.15-0.02,0.2-0.09l1.14-1.14l0.6-0.6     c0.11-0.11,0.11-0.3,0-0.41s-0.3-0.11-0.41,0l-1.74,1.74c-0.11,0.11-0.11,0.3,0,0.41C133.05,23.44,133.13,23.47,133.2,23.47z      M126.04,117.66c0.05,0.05,0.13,0.08,0.2,0.08s0.15-0.02,0.21-0.08l2.05-2.05c0.11-0.11,0.11-0.3,0-0.41     c-0.11-0.11-0.3-0.11-0.41,0l-2.05,2.05C125.93,117.36,125.93,117.55,126.04,117.66z M126.99,109.29c-0.11-0.11-0.3-0.11-0.41,0     l-3.59,3.59c-0.11,0.11-0.11,0.3,0,0.41c0.06,0.05,0.14,0.08,0.21,0.08c0.08,0,0.15-0.02,0.2-0.08l3.59-3.59     C127.1,109.59,127.1,109.4,126.99,109.29z M125.63,103.43c-0.11-0.11-0.3-0.11-0.41,0l-5.43,5.43c-0.11,0.11-0.11,0.3,0,0.41     c0.06,0.05,0.14,0.08,0.21,0.08s0.15-0.03,0.2-0.08l5.43-5.43C125.74,103.73,125.74,103.54,125.63,103.43z M116.01,91.03     c0.11-0.11,0.11-0.3,0-0.41s-0.3-0.11-0.41,0l-1.16,1.16l-5.61,5.61c-0.11,0.11-0.11,0.3,0,0.41c0.06,0.05,0.14,0.08,0.21,0.08     s0.14-0.02,0.2-0.08L116.01,91.03z M107.62,91.65l-0.81,0.81l-4.93,4.93c-0.11,0.11-0.11,0.3,0,0.41     c0.05,0.05,0.13,0.08,0.2,0.08s0.15-0.03,0.21-0.08l5.35-5.35l0.39-0.39c0.11-0.11,0.11-0.3,0-0.41     C107.92,91.54,107.73,91.54,107.62,91.65z M100.37,91.65l-1.03,1.03l-4.71,4.71c-0.11,0.11-0.11,0.3,0,0.41     c0.05,0.05,0.13,0.08,0.2,0.08s0.15-0.03,0.21-0.08l5.14-5.14l0.6-0.6c0.11-0.11,0.11-0.3,0-0.41     C100.67,91.54,100.48,91.54,100.37,91.65z M92.62,91.65l-1.08,1.08l-4.66,4.66c-0.11,0.11-0.11,0.3,0,0.41     c0.06,0.05,0.14,0.08,0.21,0.08c0.07,0,0.15-0.03,0.2-0.08l5.07-5.07l0.67-0.67c0.11-0.11,0.11-0.3,0-0.41     C92.92,91.54,92.73,91.54,92.62,91.65z M85.57,91.65l-1.21,1.21l-4.53,4.53c-0.11,0.11-0.11,0.3,0,0.41     c0.06,0.05,0.14,0.08,0.21,0.08s0.15-0.03,0.2-0.08l5.74-5.74c0.11-0.11,0.11-0.3,0-0.41C85.87,91.54,85.68,91.54,85.57,91.65z      M78.61,91.65l-1.31,1.31l-4.43,4.43c-0.11,0.11-0.11,0.3,0,0.41c0.06,0.05,0.14,0.08,0.21,0.08s0.15-0.03,0.2-0.08l5.74-5.74     c0.11-0.11,0.11-0.3,0-0.41C78.91,91.54,78.72,91.54,78.61,91.65z M71.36,91.65l-1.38,1.38l-4.36,4.36     c-0.11,0.11-0.11,0.3,0,0.41c0.06,0.05,0.14,0.08,0.21,0.08s0.15-0.03,0.2-0.08l4.77-4.77l0.97-0.97c0.11-0.11,0.11-0.3,0-0.41     C71.66,91.54,71.47,91.54,71.36,91.65z M65.57,91.65c-0.11-0.11-0.3-0.11-0.41,0l-1.43,1.43l-4.31,4.31     c-0.11,0.11-0.11,0.3,0,0.41c0.06,0.05,0.14,0.08,0.21,0.08c0.08,0,0.15-0.03,0.2-0.08l5.74-5.74     C65.68,91.95,65.68,91.76,65.57,91.65z M58.13,91.65l-1.61,1.61l-4.13,4.13c-0.11,0.11-0.11,0.3,0,0.41     c0.05,0.05,0.13,0.08,0.2,0.08c0.07,0,0.15-0.03,0.21-0.08l5.74-5.74c0.11-0.11,0.11-0.3,0-0.41     C58.43,91.54,58.24,91.54,58.13,91.65z M51.17,91.65l-1.81,1.81l-3.93,3.93c-0.11,0.11-0.11,0.3,0,0.41     c0.05,0.05,0.13,0.08,0.2,0.08s0.15-0.03,0.21-0.08l5.74-5.74c0.11-0.11,0.11-0.3,0-0.41C51.47,91.54,51.28,91.54,51.17,91.65z      M43.92,91.65l-5.74,5.74c-0.11,0.11-0.11,0.29-0.01,0.4l0.01,0.01c0.05,0.05,0.13,0.08,0.2,0.08s0.15-0.03,0.21-0.08l5.74-5.74     c0.11-0.11,0.11-0.3,0-0.41C44.22,91.54,44.03,91.54,43.92,91.65z M44.33,91.65c-0.11-0.11-0.3-0.11-0.41,0l-5.74,5.74     c-0.11,0.11-0.11,0.29-0.01,0.4l0.01,0.01c0.05,0.05,0.13,0.08,0.2,0.08s0.15-0.03,0.21-0.08l5.74-5.74     C44.44,91.95,44.44,91.76,44.33,91.65z M51.58,91.65c-0.11-0.11-0.3-0.11-0.41,0l-1.81,1.81l-3.93,3.93     c-0.11,0.11-0.11,0.3,0,0.41c0.05,0.05,0.13,0.08,0.2,0.08s0.15-0.03,0.21-0.08l5.74-5.74C51.69,91.95,51.69,91.76,51.58,91.65z      M58.54,91.65c-0.11-0.11-0.3-0.11-0.41,0l-1.61,1.61l-4.13,4.13c-0.11,0.11-0.11,0.3,0,0.41c0.05,0.05,0.13,0.08,0.2,0.08     c0.07,0,0.15-0.03,0.21-0.08l5.74-5.74C58.65,91.95,58.65,91.76,58.54,91.65z M65.57,91.65c-0.11-0.11-0.3-0.11-0.41,0     l-1.43,1.43l-4.31,4.31c-0.11,0.11-0.11,0.3,0,0.41c0.06,0.05,0.14,0.08,0.21,0.08c0.08,0,0.15-0.03,0.2-0.08l5.74-5.74     C65.68,91.95,65.68,91.76,65.57,91.65z M71.77,91.65c-0.11-0.11-0.3-0.11-0.41,0l-1.38,1.38l-4.36,4.36     c-0.11,0.11-0.11,0.3,0,0.41c0.06,0.05,0.14,0.08,0.21,0.08s0.15-0.03,0.2-0.08l4.77-4.77l0.97-0.97     C71.88,91.95,71.88,91.76,71.77,91.65z M79.02,91.65c-0.11-0.11-0.3-0.11-0.41,0l-1.31,1.31l-4.43,4.43     c-0.11,0.11-0.11,0.3,0,0.41c0.06,0.05,0.14,0.08,0.21,0.08s0.15-0.03,0.2-0.08l5.74-5.74C79.13,91.95,79.13,91.76,79.02,91.65z      M85.98,91.65c-0.11-0.11-0.3-0.11-0.41,0l-1.21,1.21l-4.53,4.53c-0.11,0.11-0.11,0.3,0,0.41c0.06,0.05,0.14,0.08,0.21,0.08     s0.15-0.03,0.2-0.08l5.74-5.74C86.09,91.95,86.09,91.76,85.98,91.65z M93.03,91.65c-0.11-0.11-0.3-0.11-0.41,0l-1.08,1.08     l-4.66,4.66c-0.11,0.11-0.11,0.3,0,0.41c0.06,0.05,0.14,0.08,0.21,0.08c0.07,0,0.15-0.03,0.2-0.08l5.07-5.07l0.67-0.67     C93.14,91.95,93.14,91.76,93.03,91.65z M100.78,91.65c-0.11-0.11-0.3-0.11-0.41,0l-1.03,1.03l-4.71,4.71     c-0.11,0.11-0.11,0.3,0,0.41c0.05,0.05,0.13,0.08,0.2,0.08s0.15-0.03,0.21-0.08l5.14-5.14l0.6-0.6     C100.89,91.95,100.89,91.76,100.78,91.65z M108.03,91.65c-0.11-0.11-0.3-0.11-0.41,0l-0.81,0.81l-4.93,4.93     c-0.11,0.11-0.11,0.3,0,0.41c0.05,0.05,0.13,0.08,0.2,0.08s0.15-0.03,0.21-0.08l5.35-5.35l0.39-0.39     C108.14,91.95,108.14,91.76,108.03,91.65z M116.01,90.62c-0.11-0.11-0.3-0.11-0.41,0l-1.16,1.16l-5.61,5.61     c-0.11,0.11-0.11,0.3,0,0.41c0.06,0.05,0.14,0.08,0.21,0.08s0.14-0.02,0.2-0.08l6.77-6.77     C116.12,90.92,116.12,90.73,116.01,90.62z M125.63,103.43c-0.11-0.11-0.3-0.11-0.41,0l-5.43,5.43c-0.11,0.11-0.11,0.3,0,0.41     c0.06,0.05,0.14,0.08,0.21,0.08s0.15-0.03,0.2-0.08l5.43-5.43C125.74,103.73,125.74,103.54,125.63,103.43z M126.99,109.29     c-0.11-0.11-0.3-0.11-0.41,0l-3.59,3.59c-0.11,0.11-0.11,0.3,0,0.41c0.06,0.05,0.14,0.08,0.21,0.08c0.08,0,0.15-0.02,0.2-0.08     l3.59-3.59C127.1,109.59,127.1,109.4,126.99,109.29z M128.5,115.2c-0.11-0.11-0.3-0.11-0.41,0l-2.05,2.05     c-0.11,0.11-0.11,0.3,0,0.41c0.05,0.05,0.13,0.08,0.2,0.08s0.15-0.02,0.21-0.08l2.05-2.05     C128.61,115.5,128.61,115.31,128.5,115.2z M131.17,41.03c-0.12-2.31-0.27-4.62-0.39-6.93v28.7c0,12.45-8.67,22.87-20.3,25.56     c1.88-0.14,3.59-0.51,6.07-1.29c0.04-0.01,0.07-0.02,0.11-0.04c0.91-0.3,1.92-0.91,2.95-1.71c0-0.01,0.01-0.01,0.01-0.01     c3.84-3.01,8.09-8.83,9.5-12.49c0.17-0.49,0.7-1.63,1.2-3.41c0.03-0.08,0.06-0.17,0.09-0.26c0.04-0.17,0.09-0.33,0.12-0.5     c0.45-1.67,0.53-6.36,0.48-9.79C130.99,52.92,131.36,46.97,131.17,41.03z M135.14,21.23c-0.11-0.11-0.3-0.11-0.41,0l-1.74,1.74     c-0.11,0.11-0.11,0.3,0,0.41c0.06,0.06,0.14,0.09,0.21,0.09c0.08,0,0.15-0.02,0.2-0.09l1.14-1.14l0.6-0.6     C135.25,21.53,135.25,21.34,135.14,21.23z M138.27,25.68c-0.11-0.11-0.3-0.11-0.41,0l-4,4c-0.11,0.11-0.11,0.3,0,0.41     c0.06,0.05,0.14,0.08,0.21,0.08s0.14-0.03,0.2-0.08l4-4C138.38,25.98,138.38,25.79,138.27,25.68z M140.73,29.67     c-0.11-0.11-0.3-0.11-0.41,0l-6.97,6.97c-0.11,0.11-0.11,0.3,0,0.41c0.06,0.05,0.14,0.08,0.21,0.08s0.15-0.03,0.2-0.08l1.41-1.41     l5.56-5.56C140.84,29.97,140.84,29.78,140.73,29.67z M145.05,46.51c-0.11-0.11-0.3-0.11-0.41,0l-9.11,9.11l-1.66,1.66     c-0.11,0.11-0.11,0.3,0,0.41c0.06,0.05,0.14,0.08,0.21,0.08s0.14-0.03,0.2-0.08l1.24-1.24l9.53-9.53     C145.16,46.81,145.16,46.62,145.05,46.51z M142.76,34.87c-0.11-0.11-0.3-0.11-0.41,0l-6.76,6.76l-2.26,2.26     c-0.11,0.11-0.11,0.3,0,0.41c0.06,0.05,0.14,0.08,0.21,0.08c0.08,0,0.15-0.03,0.2-0.08l9.02-9.02     C142.87,35.17,142.87,34.98,142.76,34.87z M144.51,40.17c-0.11-0.11-0.3-0.11-0.41,0l-8.46,8.46l-2.31,2.31     c-0.11,0.11-0.11,0.3,0,0.41c0.06,0.05,0.14,0.08,0.21,0.08s0.15-0.03,0.2-0.08l10.77-10.77     C144.62,40.47,144.62,40.28,144.51,40.17z M141.61,86.28c-0.11-0.11-0.3-0.11-0.41,0l-8.72,8.71c-0.11,0.11-0.11,0.3,0,0.41     c0.06,0.05,0.14,0.08,0.21,0.08s0.15-0.03,0.2-0.08l8.72-8.71C141.72,86.58,141.72,86.39,141.61,86.28z M143.48,77.84     c-0.11-0.11-0.3-0.11-0.41,0l-26.45,26.45c-0.11,0.11-0.11,0.3,0,0.41c0.05,0.05,0.13,0.08,0.2,0.08s0.15-0.03,0.21-0.08     l26.45-26.45C143.59,78.14,143.59,77.95,143.48,77.84z M144.41,69.69c-0.11-0.11-0.3-0.11-0.41,0l-30.86,30.87     c-0.11,0.11-0.11,0.3,0,0.41c0.06,0.05,0.14,0.08,0.21,0.08c0.07,0,0.15-0.03,0.2-0.09l30.86-30.86     C144.52,69.99,144.52,69.8,144.41,69.69z M145.04,61.59c-0.11-0.11-0.3-0.11-0.41,0L131.2,75.02c-0.11,0.11-0.11,0.3,0,0.41     c0.06,0.05,0.14,0.08,0.21,0.08c0.07,0,0.15-0.03,0.2-0.08L145.04,62C145.15,61.89,145.15,61.7,145.04,61.59z M145.05,53.96     c-0.11-0.11-0.3-0.11-0.41,0l-9.11,9.11l-1.66,1.66c-0.11,0.11-0.11,0.3,0,0.41c0.06,0.05,0.14,0.08,0.21,0.08     s0.14-0.03,0.2-0.08l1.18-1.18l9.59-9.59C145.16,54.26,145.16,54.07,145.05,53.96z M145.05,53.96c-0.11-0.11-0.3-0.11-0.41,0     l-9.11,9.11l-1.66,1.66c-0.11,0.11-0.11,0.3,0,0.41c0.06,0.05,0.14,0.08,0.21,0.08s0.14-0.03,0.2-0.08l1.18-1.18l9.59-9.59     C145.16,54.26,145.16,54.07,145.05,53.96z M145.04,61.59c-0.11-0.11-0.3-0.11-0.41,0L131.2,75.02c-0.11,0.11-0.11,0.3,0,0.41     c0.06,0.05,0.14,0.08,0.21,0.08c0.07,0,0.15-0.03,0.2-0.08L145.04,62C145.15,61.89,145.15,61.7,145.04,61.59z M144.41,69.69     c-0.11-0.11-0.3-0.11-0.41,0l-30.86,30.87c-0.11,0.11-0.11,0.3,0,0.41c0.06,0.05,0.14,0.08,0.21,0.08c0.07,0,0.15-0.03,0.2-0.09     l30.86-30.86C144.52,69.99,144.52,69.8,144.41,69.69z M143.48,77.84c-0.11-0.11-0.3-0.11-0.41,0l-26.45,26.45     c-0.11,0.11-0.11,0.3,0,0.41c0.05,0.05,0.13,0.08,0.2,0.08s0.15-0.03,0.21-0.08l26.45-26.45     C143.59,78.14,143.59,77.95,143.48,77.84z M141.61,86.28c-0.11-0.11-0.3-0.11-0.41,0l-8.72,8.71c-0.11,0.11-0.11,0.3,0,0.41     c0.06,0.05,0.14,0.08,0.21,0.08s0.15-0.03,0.2-0.08l8.72-8.71C141.72,86.58,141.72,86.39,141.61,86.28z M144.51,40.17     c-0.11-0.11-0.3-0.11-0.41,0l-8.46,8.46l-2.31,2.31c-0.11,0.11-0.11,0.3,0,0.41c0.06,0.05,0.14,0.08,0.21,0.08     s0.15-0.03,0.2-0.08l10.77-10.77C144.62,40.47,144.62,40.28,144.51,40.17z M142.76,34.87c-0.11-0.11-0.3-0.11-0.41,0l-6.76,6.76     l-2.26,2.26c-0.11,0.11-0.11,0.3,0,0.41c0.06,0.05,0.14,0.08,0.21,0.08c0.08,0,0.15-0.03,0.2-0.08l9.02-9.02     C142.87,35.17,142.87,34.98,142.76,34.87z M145.05,46.51c-0.11-0.11-0.3-0.11-0.41,0l-9.11,9.11l-1.66,1.66     c-0.11,0.11-0.11,0.3,0,0.41c0.06,0.05,0.14,0.08,0.21,0.08s0.14-0.03,0.2-0.08l1.24-1.24l9.53-9.53     C145.16,46.81,145.16,46.62,145.05,46.51z M140.73,29.67c-0.11-0.11-0.3-0.11-0.41,0l-6.97,6.97c-0.11,0.11-0.11,0.3,0,0.41     c0.06,0.05,0.14,0.08,0.21,0.08s0.15-0.03,0.2-0.08l1.41-1.41l5.56-5.56C140.84,29.97,140.84,29.78,140.73,29.67z M138.27,25.68     c-0.11-0.11-0.3-0.11-0.41,0l-4,4c-0.11,0.11-0.11,0.3,0,0.41c0.06,0.05,0.14,0.08,0.21,0.08s0.14-0.03,0.2-0.08l4-4     C138.38,25.98,138.38,25.79,138.27,25.68z M135.14,21.23c-0.11-0.11-0.3-0.11-0.41,0l-1.74,1.74c-0.11,0.11-0.11,0.3,0,0.41     c0.06,0.06,0.14,0.09,0.21,0.09c0.08,0,0.15-0.02,0.2-0.09l1.14-1.14l0.6-0.6C135.25,21.53,135.25,21.34,135.14,21.23z      M128.5,115.2c-0.11-0.11-0.3-0.11-0.41,0l-2.05,2.05c-0.11,0.11-0.11,0.3,0,0.41c0.05,0.05,0.13,0.08,0.2,0.08     s0.15-0.02,0.21-0.08l2.05-2.05C128.61,115.5,128.61,115.31,128.5,115.2z M126.99,109.29c-0.11-0.11-0.3-0.11-0.41,0l-3.59,3.59     c-0.11,0.11-0.11,0.3,0,0.41c0.06,0.05,0.14,0.08,0.21,0.08c0.08,0,0.15-0.02,0.2-0.08l3.59-3.59     C127.1,109.59,127.1,109.4,126.99,109.29z M125.63,103.43c-0.11-0.11-0.3-0.11-0.41,0l-5.43,5.43c-0.11,0.11-0.11,0.3,0,0.41     c0.06,0.05,0.14,0.08,0.21,0.08s0.15-0.03,0.2-0.08l5.43-5.43C125.74,103.73,125.74,103.54,125.63,103.43z M116.01,90.62     c-0.11-0.11-0.3-0.11-0.41,0l-1.16,1.16l-5.61,5.61c-0.11,0.11-0.11,0.3,0,0.41c0.06,0.05,0.14,0.08,0.21,0.08     s0.14-0.02,0.2-0.08l6.77-6.77C116.12,90.92,116.12,90.73,116.01,90.62z M108.03,91.65c-0.11-0.11-0.3-0.11-0.41,0l-0.81,0.81     l-4.93,4.93c-0.11,0.11-0.11,0.3,0,0.41c0.05,0.05,0.13,0.08,0.2,0.08s0.15-0.03,0.21-0.08l5.35-5.35l0.39-0.39     C108.14,91.95,108.14,91.76,108.03,91.65z M100.78,91.65c-0.11-0.11-0.3-0.11-0.41,0l-1.03,1.03l-4.71,4.71     c-0.11,0.11-0.11,0.3,0,0.41c0.05,0.05,0.13,0.08,0.2,0.08s0.15-0.03,0.21-0.08l5.14-5.14l0.6-0.6     C100.89,91.95,100.89,91.76,100.78,91.65z M93.03,91.65c-0.11-0.11-0.3-0.11-0.41,0l-1.08,1.08l-4.66,4.66     c-0.11,0.11-0.11,0.3,0,0.41c0.06,0.05,0.14,0.08,0.21,0.08c0.07,0,0.15-0.03,0.2-0.08l5.07-5.07l0.67-0.67     C93.14,91.95,93.14,91.76,93.03,91.65z M85.98,91.65c-0.11-0.11-0.3-0.11-0.41,0l-1.21,1.21l-4.53,4.53     c-0.11,0.11-0.11,0.3,0,0.41c0.06,0.05,0.14,0.08,0.21,0.08s0.15-0.03,0.2-0.08l5.74-5.74C86.09,91.95,86.09,91.76,85.98,91.65z      M79.02,91.65c-0.11-0.11-0.3-0.11-0.41,0l-1.31,1.31l-4.43,4.43c-0.11,0.11-0.11,0.3,0,0.41c0.06,0.05,0.14,0.08,0.21,0.08     s0.15-0.03,0.2-0.08l5.74-5.74C79.13,91.95,79.13,91.76,79.02,91.65z M71.77,91.65c-0.11-0.11-0.3-0.11-0.41,0l-1.38,1.38     l-4.36,4.36c-0.11,0.11-0.11,0.3,0,0.41c0.06,0.05,0.14,0.08,0.21,0.08s0.15-0.03,0.2-0.08l4.77-4.77l0.97-0.97     C71.88,91.95,71.88,91.76,71.77,91.65z M65.57,91.65c-0.11-0.11-0.3-0.11-0.41,0l-1.43,1.43l-4.31,4.31     c-0.11,0.11-0.11,0.3,0,0.41c0.06,0.05,0.14,0.08,0.21,0.08c0.08,0,0.15-0.03,0.2-0.08l5.74-5.74     C65.68,91.95,65.68,91.76,65.57,91.65z M58.54,91.65c-0.11-0.11-0.3-0.11-0.41,0l-1.61,1.61l-4.13,4.13     c-0.11,0.11-0.11,0.3,0,0.41c0.05,0.05,0.13,0.08,0.2,0.08c0.07,0,0.15-0.03,0.21-0.08l5.74-5.74     C58.65,91.95,58.65,91.76,58.54,91.65z M51.58,91.65c-0.11-0.11-0.3-0.11-0.41,0l-1.81,1.81l-3.93,3.93     c-0.11,0.11-0.11,0.3,0,0.41c0.05,0.05,0.13,0.08,0.2,0.08s0.15-0.03,0.21-0.08l5.74-5.74C51.69,91.95,51.69,91.76,51.58,91.65z      M44.33,91.65c-0.11-0.11-0.3-0.11-0.41,0l-5.74,5.74c-0.11,0.11-0.11,0.29-0.01,0.4l0.01,0.01c0.05,0.05,0.13,0.08,0.2,0.08     s0.15-0.03,0.21-0.08l5.74-5.74C44.44,91.95,44.44,91.76,44.33,91.65z"/>
                <path class="st0" d="M24.14,23.52c-0.48,0-0.87,0.39-0.87,0.87v0.67c0.38-0.53,0.78-1.05,1.21-1.54H24.14z M128.11,13.73     c-0.38-0.1-0.76-0.19-1.15-0.27c-0.39-0.09-0.78-0.16-1.18-0.23c0.21,0.32,0.42,0.65,0.61,0.99c0.21,0.33,0.39,0.67,0.58,1.01     c0.38,0.08,0.75,0.18,1.12,0.29c0.38,0.1,0.75,0.21,1.12,0.34c0.03,0,0.05,0.01,0.07,0.02c1.32,0.44,2.58,0.99,3.79,1.63     c8.04,4.25,13.53,12.71,13.53,22.42v35.7c0,11.31-7.61,21.35-18.49,24.41c-0.43,0.13-0.7,0.56-0.62,1l4.77,25.87l-22.08-25.61     c-0.17-0.19-0.41-0.3-0.66-0.3H43.78c-2.7,0-5.29-0.42-7.73-1.21c-1.37-0.43-2.69-0.99-3.95-1.65c-0.19-0.09-0.37-0.19-0.56-0.29     c-0.07-0.04-0.15-0.09-0.22-0.13c-0.25-0.14-0.5-0.29-0.75-0.45l-0.59,0.68l-0.56,0.66c0.24,0.16,0.49,0.31,0.74,0.45     c0.25,0.16,0.51,0.3,0.77,0.44c0.58,0.31,1.17,0.61,1.78,0.87c0.26,0.13,0.53,0.24,0.79,0.35c0.01,0,0.02,0,0.03,0.01     c3.16,1.3,6.63,2.02,10.25,2.02h65.34l23.92,27.74c0.17,0.19,0.41,0.3,0.66,0.3c0.13,0,0.26-0.03,0.39-0.08     c0.35-0.17,0.55-0.55,0.48-0.94l-5.22-28.26c11.22-3.52,18.99-14.04,18.99-25.86v-35.7C148.34,27.38,139.74,16.79,128.11,13.73z      M20.23,87.21c-0.38-0.11-0.75-0.22-1.11-0.34c0.16,0.37,0.34,0.73,0.52,1.08c0.09,0.18,0.18,0.35,0.27,0.52     c0.21,0.4,0.44,0.79,0.68,1.18l0.24-1.31l0.02-0.13C20.93,87.76,20.66,87.33,20.23,87.21z"/>
            </g>
        </g>
        <g>
            <path d="M44.33,92.06l-5.74,5.74c-0.06,0.05-0.14,0.08-0.21,0.08s-0.15-0.03-0.2-0.08l-0.01-0.01c-0.1-0.11-0.1-0.29,0.01-0.4    l5.74-5.74c0.11-0.11,0.3-0.11,0.41,0C44.44,91.76,44.44,91.95,44.33,92.06z"/>
        </g>
        <g>
            <path d="M51.58,92.06l-5.74,5.74c-0.06,0.05-0.14,0.08-0.21,0.08s-0.15-0.03-0.2-0.08c-0.11-0.11-0.11-0.3,0-0.41l3.93-3.93    l1.81-1.81c0.11-0.11,0.3-0.11,0.41,0C51.69,91.76,51.69,91.95,51.58,92.06z"/>
        </g>
        <g>
            <path d="M58.54,92.06L52.8,97.8c-0.06,0.05-0.14,0.08-0.21,0.08c-0.07,0-0.15-0.03-0.2-0.08c-0.11-0.11-0.11-0.3,0-0.41l4.13-4.13    l1.61-1.61c0.11-0.11,0.3-0.11,0.41,0C58.65,91.76,58.65,91.95,58.54,92.06z"/>
        </g>
        <g>
            <path d="M65.57,92.06l-5.74,5.74c-0.05,0.05-0.12,0.08-0.2,0.08c-0.07,0-0.15-0.03-0.21-0.08c-0.11-0.11-0.11-0.3,0-0.41    l4.31-4.31l1.43-1.43c0.11-0.11,0.3-0.11,0.41,0C65.68,91.76,65.68,91.95,65.57,92.06z"/>
        </g>
        <g>
            <path d="M71.77,92.06l-0.97,0.97l-4.77,4.77c-0.05,0.05-0.13,0.08-0.2,0.08s-0.15-0.03-0.21-0.08c-0.11-0.11-0.11-0.3,0-0.41    l4.36-4.36l1.38-1.38c0.11-0.11,0.3-0.11,0.41,0C71.88,91.76,71.88,91.95,71.77,92.06z"/>
        </g>
        <g>
            <path d="M79.02,92.06l-5.74,5.74c-0.05,0.05-0.13,0.08-0.2,0.08s-0.15-0.03-0.21-0.08c-0.11-0.11-0.11-0.3,0-0.41l4.43-4.43    l1.31-1.31c0.11-0.11,0.3-0.11,0.41,0C79.13,91.76,79.13,91.95,79.02,92.06z"/>
        </g>
        <g>
            <path d="M85.98,92.06l-5.74,5.74c-0.05,0.05-0.13,0.08-0.2,0.08s-0.15-0.03-0.21-0.08c-0.11-0.11-0.11-0.3,0-0.41l4.53-4.53    l1.21-1.21c0.11-0.11,0.3-0.11,0.41,0C86.09,91.76,86.09,91.95,85.98,92.06z"/>
        </g>
        <g>
            <path d="M93.03,92.06l-0.67,0.67l-5.07,5.07c-0.05,0.05-0.13,0.08-0.2,0.08c-0.07,0-0.15-0.03-0.21-0.08    c-0.11-0.11-0.11-0.3,0-0.41l4.66-4.66l1.08-1.08c0.11-0.11,0.3-0.11,0.41,0C93.14,91.76,93.14,91.95,93.03,92.06z"/>
        </g>
        <g>
            <path d="M100.78,92.06l-0.6,0.6l-5.14,5.14c-0.06,0.05-0.14,0.08-0.21,0.08s-0.15-0.03-0.2-0.08c-0.11-0.11-0.11-0.3,0-0.41    l4.71-4.71l1.03-1.03c0.11-0.11,0.3-0.11,0.41,0C100.89,91.76,100.89,91.95,100.78,92.06z"/>
        </g>
        <g>
            <path d="M108.03,92.06l-0.39,0.39l-5.35,5.35c-0.06,0.05-0.14,0.08-0.21,0.08s-0.15-0.03-0.2-0.08c-0.11-0.11-0.11-0.3,0-0.41    l4.93-4.93l0.81-0.81c0.11-0.11,0.3-0.11,0.41,0C108.14,91.76,108.14,91.95,108.03,92.06z"/>
        </g>
        <g>
            <path d="M116.01,91.03l-6.77,6.77c-0.06,0.06-0.13,0.08-0.2,0.08s-0.15-0.03-0.21-0.08c-0.11-0.11-0.11-0.3,0-0.41l5.61-5.61    l1.16-1.16c0.11-0.11,0.3-0.11,0.41,0S116.12,90.92,116.01,91.03z"/>
        </g>
        <g>
            <path class="st0" d="M145.04,62l-13.43,13.43c-0.05,0.05-0.13,0.08-0.2,0.08c-0.07,0-0.15-0.03-0.21-0.08    c-0.11-0.11-0.11-0.3,0-0.41l13.43-13.43c0.11-0.11,0.3-0.11,0.41,0C145.15,61.7,145.15,61.89,145.04,62z"/>
        </g>
        <g>
            <path d="M145.05,54.37l-9.59,9.59l-1.18,1.18c-0.06,0.05-0.13,0.08-0.2,0.08s-0.15-0.03-0.21-0.08c-0.11-0.11-0.11-0.3,0-0.41    l1.66-1.66l9.11-9.11c0.11-0.11,0.3-0.11,0.41,0C145.16,54.07,145.16,54.26,145.05,54.37z"/>
        </g>
        <g>
            <path d="M145.05,46.92l-9.53,9.53l-1.24,1.24c-0.06,0.05-0.13,0.08-0.2,0.08s-0.15-0.03-0.21-0.08c-0.11-0.11-0.11-0.3,0-0.41    l1.66-1.66l9.11-9.11c0.11-0.11,0.3-0.11,0.41,0C145.16,46.62,145.16,46.81,145.05,46.92z"/>
        </g>
        <g>
            <path d="M144.51,40.58l-10.77,10.77c-0.05,0.05-0.13,0.08-0.2,0.08s-0.15-0.03-0.21-0.08c-0.11-0.11-0.11-0.3,0-0.41l2.31-2.31    l8.46-8.46c0.11-0.11,0.3-0.11,0.41,0S144.62,40.47,144.51,40.58z"/>
        </g>
        <g>
            <path d="M142.76,35.28l-9.02,9.02c-0.05,0.05-0.12,0.08-0.2,0.08c-0.07,0-0.15-0.03-0.21-0.08c-0.11-0.11-0.11-0.3,0-0.41    l2.26-2.26l6.76-6.76c0.11-0.11,0.3-0.11,0.41,0S142.87,35.17,142.76,35.28z"/>
        </g>
        <g>
            <path d="M140.73,30.08l-5.56,5.56l-1.41,1.41c-0.05,0.05-0.13,0.08-0.2,0.08s-0.15-0.03-0.21-0.08c-0.11-0.11-0.11-0.3,0-0.41    l6.97-6.97c0.11-0.11,0.3-0.11,0.41,0C140.84,29.78,140.84,29.97,140.73,30.08z"/>
        </g>
        <g>
            <path d="M138.27,26.09l-4,4c-0.06,0.05-0.13,0.08-0.2,0.08s-0.15-0.03-0.21-0.08c-0.11-0.11-0.11-0.3,0-0.41l4-4    c0.11-0.11,0.3-0.11,0.41,0C138.38,25.79,138.38,25.98,138.27,26.09z"/>
        </g>
        <g>
            <path d="M135.14,21.64l-0.6,0.6l-1.14,1.14c-0.05,0.07-0.12,0.09-0.2,0.09c-0.07,0-0.15-0.03-0.21-0.09    c-0.11-0.11-0.11-0.3,0-0.41l1.74-1.74c0.11-0.11,0.3-0.11,0.41,0S135.25,21.53,135.14,21.64z"/>
        </g>
        <g>
            <path class="st0" d="M144.41,70.1l-30.86,30.86c-0.05,0.06-0.13,0.09-0.2,0.09c-0.07,0-0.15-0.03-0.21-0.08    c-0.11-0.11-0.11-0.3,0-0.41L144,69.69c0.11-0.11,0.3-0.11,0.41,0C144.52,69.8,144.52,69.99,144.41,70.1z"/>
        </g>
        <g>
            <path class="st0" d="M143.48,78.25l-26.45,26.45c-0.06,0.05-0.14,0.08-0.21,0.08s-0.15-0.03-0.2-0.08c-0.11-0.11-0.11-0.3,0-0.41    l26.45-26.45c0.11-0.11,0.3-0.11,0.41,0C143.59,77.95,143.59,78.14,143.48,78.25z"/>
        </g>
        <g>
            <path class="st0" d="M141.61,86.69l-8.72,8.71c-0.05,0.05-0.13,0.08-0.2,0.08s-0.15-0.03-0.21-0.08c-0.11-0.11-0.11-0.3,0-0.41    l8.72-8.71c0.11-0.11,0.3-0.11,0.41,0C141.72,86.39,141.72,86.58,141.61,86.69z"/>
        </g>
        <g>
            <path d="M125.63,103.84l-5.43,5.43c-0.05,0.05-0.13,0.08-0.2,0.08s-0.15-0.03-0.21-0.08c-0.11-0.11-0.11-0.3,0-0.41l5.43-5.43    c0.11-0.11,0.3-0.11,0.41,0S125.74,103.73,125.63,103.84z"/>
        </g>
        <g>
            <path d="M126.99,109.7l-3.59,3.59c-0.05,0.06-0.12,0.08-0.2,0.08c-0.07,0-0.15-0.03-0.21-0.08c-0.11-0.11-0.11-0.3,0-0.41    l3.59-3.59c0.11-0.11,0.3-0.11,0.41,0S127.1,109.59,126.99,109.7z"/>
        </g>
        <g>
            <path d="M128.5,115.61l-2.05,2.05c-0.06,0.06-0.14,0.08-0.21,0.08s-0.15-0.03-0.2-0.08c-0.11-0.11-0.11-0.3,0-0.41l2.05-2.05    c0.11-0.11,0.3-0.11,0.41,0C128.61,115.31,128.61,115.5,128.5,115.61z"/>
        </g>
        <g>
            <g>
                <path class="st0" d="M68.6,39.85H24.14c-0.48,0-0.87,0.39-0.87,0.87v6.84c0,0.48,0.39,0.87,0.87,0.87H68.6     c0.48,0,0.87-0.39,0.87-0.87v-6.84C69.47,40.24,69.08,39.85,68.6,39.85z M67.73,46.69H25.01v-5.1h42.72V46.69z"/>
                <path class="st0" d="M97.37,57.04v6.84c0,0.48-0.39,0.87-0.87,0.87H24.14c-0.48,0-0.87-0.39-0.87-0.87v-6.84     c0-0.48,0.39-0.87,0.87-0.87H96.5C96.98,56.17,97.37,56.56,97.37,57.04z"/>
                <path class="st0" d="M96.5,23.52H24.14c-0.48,0-0.87,0.39-0.87,0.87v6.84c0,0.48,0.39,0.87,0.87,0.87H96.5     c0.48,0,0.87-0.39,0.87-0.87v-6.84C97.37,23.91,96.98,23.52,96.5,23.52z M96.5,23.52H24.14c-0.48,0-0.87,0.39-0.87,0.87v6.84     c0,0.48,0.39,0.87,0.87,0.87H96.5c0.48,0,0.87-0.39,0.87-0.87v-6.84C97.37,23.91,96.98,23.52,96.5,23.52z M96.5,23.52H24.14     c-0.48,0-0.87,0.39-0.87,0.87v6.84c0,0.48,0.39,0.87,0.87,0.87H96.5c0.48,0,0.87-0.39,0.87-0.87v-6.84     C97.37,23.91,96.98,23.52,96.5,23.52z M96.5,23.52H24.14c-0.48,0-0.87,0.39-0.87,0.87v6.84c0,0.48,0.39,0.87,0.87,0.87H96.5     c0.48,0,0.87-0.39,0.87-0.87v-6.84C97.37,23.91,96.98,23.52,96.5,23.52z M96.5,23.52H24.14c-0.48,0-0.87,0.39-0.87,0.87v6.84     c0,0.48,0.39,0.87,0.87,0.87H96.5c0.48,0,0.87-0.39,0.87-0.87v-6.84C97.37,23.91,96.98,23.52,96.5,23.52z M96.5,23.52H24.14     c-0.48,0-0.87,0.39-0.87,0.87v6.84c0,0.48,0.39,0.87,0.87,0.87H96.5c0.48,0,0.87-0.39,0.87-0.87v-6.84     C97.37,23.91,96.98,23.52,96.5,23.52z M128.71,16.86c-0.19-0.46-0.39-0.9-0.62-1.34c-0.16-0.35-0.34-0.7-0.53-1.04     c-0.19-0.34-0.39-0.69-0.6-1.02c-4.6-7.55-12.91-12.59-22.4-12.59H27.1C12.61,0.87,0.87,12.61,0.87,27.1v35.7     c0,11.89,7.92,21.93,18.77,25.15c0.11,0.03,0.23,0.07,0.35,0.1l-0.08,0.42l-5.28,28.61l15.53-18.02l0.57-0.66l0.59-0.68     l0.44-0.51l0.85-0.99l6.2-7.19h65.74c2.03,0,4.01-0.23,5.9-0.67h0.03c11.63-2.69,20.3-13.11,20.3-25.56V27.1     C130.78,23.47,130.05,20,128.71,16.86z M129.92,62.81c0,13.98-11.38,25.36-25.36,25.36H38.82c-0.25,0-0.5,0.11-0.66,0.3     l-7.59,8.8l-0.59,0.68l-0.56,0.66l-13.34,15.47l4.51-24.43l0.24-1.31l0.02-0.13c0.08-0.45-0.19-0.88-0.62-1     c-0.38-0.11-0.75-0.22-1.11-0.34C8.83,83.46,1.74,73.72,1.74,62.8V27.1c0-13.98,11.38-25.36,25.36-25.36h77.46     c8.86,0,16.68,4.58,21.22,11.49c0.21,0.32,0.42,0.65,0.61,0.99c0.21,0.33,0.39,0.67,0.58,1.01c1.88,3.54,2.95,7.58,2.95,11.87     V62.81z M96.5,23.52H24.14c-0.48,0-0.87,0.39-0.87,0.87v6.84c0,0.48,0.39,0.87,0.87,0.87H96.5c0.48,0,0.87-0.39,0.87-0.87v-6.84     C97.37,23.91,96.98,23.52,96.5,23.52z M96.5,23.52H24.14c-0.48,0-0.87,0.39-0.87,0.87v6.84c0,0.48,0.39,0.87,0.87,0.87H96.5     c0.48,0,0.87-0.39,0.87-0.87v-6.84C97.37,23.91,96.98,23.52,96.5,23.52z M96.5,23.52H24.14c-0.48,0-0.87,0.39-0.87,0.87v6.84     c0,0.48,0.39,0.87,0.87,0.87H96.5c0.48,0,0.87-0.39,0.87-0.87v-6.84C97.37,23.91,96.98,23.52,96.5,23.52z M96.5,23.52H24.14     c-0.48,0-0.87,0.39-0.87,0.87v6.84c0,0.48,0.39,0.87,0.87,0.87H96.5c0.48,0,0.87-0.39,0.87-0.87v-6.84     C97.37,23.91,96.98,23.52,96.5,23.52z M96.5,23.52H24.14c-0.48,0-0.87,0.39-0.87,0.87v6.84c0,0.48,0.39,0.87,0.87,0.87H96.5     c0.48,0,0.87-0.39,0.87-0.87v-6.84C97.37,23.91,96.98,23.52,96.5,23.52z"/>
                <path class="st0" d="M129.24,15.93c-0.01-0.03-0.02-0.05-0.03-0.07c-0.16-0.36-0.33-0.72-0.53-1.07     c-0.17-0.36-0.36-0.71-0.57-1.06C123.45,5.53,114.64,0,104.56,0H27.1C12.16,0,0,12.16,0,27.1v35.7     c0,11.82,7.77,22.34,18.99,25.86l-5.22,28.26c-0.07,0.38,0.13,0.77,0.48,0.94c0.12,0.06,0.25,0.09,0.38,0.09     c0.25,0,0.49-0.11,0.66-0.31L30.93,99.5l0.58-0.67l0.06-0.07l0.53-0.62l7.11-8.24h65.35c4.35,0,8.46-1.03,12.1-2.87     c1.02-0.5,2.01-1.07,2.95-1.71c0-0.01,0.01-0.01,0.01-0.01c7.26-4.86,12.04-13.14,12.04-22.51V27.1     C131.66,23.12,130.8,19.33,129.24,15.93z M104.56,88.17H38.82c-0.25,0-0.5,0.11-0.66,0.3l-7.59,8.8l-0.59,0.68l-0.56,0.66     l-13.34,15.47l4.51-24.43l0.24-1.31l0.02-0.13c0.08-0.45-0.19-0.88-0.62-1c-0.38-0.11-0.75-0.22-1.11-0.34     C8.83,83.46,1.74,73.72,1.74,62.8V27.1c0-13.98,11.38-25.36,25.36-25.36h77.46c8.86,0,16.68,4.58,21.22,11.49     c0.21,0.32,0.42,0.65,0.61,0.99c0.21,0.33,0.39,0.67,0.58,1.01c1.88,3.54,2.95,7.58,2.95,11.87v35.71     C129.92,76.79,118.54,88.17,104.56,88.17z"/>
            </g>
        </g>
        <g>
            <path class="st0" d="M44.33,92.06l-5.74,5.74c-0.06,0.05-0.14,0.08-0.21,0.08s-0.15-0.03-0.2-0.08l-0.01-0.01    c-0.1-0.11-0.1-0.29,0.01-0.4l5.74-5.74c0.11-0.11,0.3-0.11,0.41,0C44.44,91.76,44.44,91.95,44.33,92.06z"/>
        </g>
        <g>
            <path class="st0" d="M51.58,92.06l-5.74,5.74c-0.06,0.05-0.14,0.08-0.21,0.08s-0.15-0.03-0.2-0.08c-0.11-0.11-0.11-0.3,0-0.41    l3.93-3.93l1.81-1.81c0.11-0.11,0.3-0.11,0.41,0C51.69,91.76,51.69,91.95,51.58,92.06z"/>
        </g>
        <g>
            <path class="st0" d="M58.54,92.06L52.8,97.8c-0.06,0.05-0.14,0.08-0.21,0.08c-0.07,0-0.15-0.03-0.2-0.08    c-0.11-0.11-0.11-0.3,0-0.41l4.13-4.13l1.61-1.61c0.11-0.11,0.3-0.11,0.41,0C58.65,91.76,58.65,91.95,58.54,92.06z"/>
        </g>
        <g>
            <path class="st0" d="M65.57,92.06l-5.74,5.74c-0.05,0.05-0.12,0.08-0.2,0.08c-0.07,0-0.15-0.03-0.21-0.08    c-0.11-0.11-0.11-0.3,0-0.41l4.31-4.31l1.43-1.43c0.11-0.11,0.3-0.11,0.41,0C65.68,91.76,65.68,91.95,65.57,92.06z"/>
        </g>
        <g>
            <path class="st0" d="M71.77,92.06l-0.97,0.97l-4.77,4.77c-0.05,0.05-0.13,0.08-0.2,0.08s-0.15-0.03-0.21-0.08    c-0.11-0.11-0.11-0.3,0-0.41l4.36-4.36l1.38-1.38c0.11-0.11,0.3-0.11,0.41,0C71.88,91.76,71.88,91.95,71.77,92.06z"/>
        </g>
        <g>
            <path class="st0" d="M79.02,92.06l-5.74,5.74c-0.05,0.05-0.13,0.08-0.2,0.08s-0.15-0.03-0.21-0.08c-0.11-0.11-0.11-0.3,0-0.41    l4.43-4.43l1.31-1.31c0.11-0.11,0.3-0.11,0.41,0C79.13,91.76,79.13,91.95,79.02,92.06z"/>
        </g>
        <g>
            <path class="st0" d="M85.98,92.06l-5.74,5.74c-0.05,0.05-0.13,0.08-0.2,0.08s-0.15-0.03-0.21-0.08c-0.11-0.11-0.11-0.3,0-0.41    l4.53-4.53l1.21-1.21c0.11-0.11,0.3-0.11,0.41,0C86.09,91.76,86.09,91.95,85.98,92.06z"/>
        </g>
        <g>
            <path class="st0" d="M93.03,92.06l-0.67,0.67l-5.07,5.07c-0.05,0.05-0.13,0.08-0.2,0.08c-0.07,0-0.15-0.03-0.21-0.08    c-0.11-0.11-0.11-0.3,0-0.41l4.66-4.66l1.08-1.08c0.11-0.11,0.3-0.11,0.41,0C93.14,91.76,93.14,91.95,93.03,92.06z"/>
        </g>
        <g>
            <path class="st0" d="M100.78,92.06l-0.6,0.6l-5.14,5.14c-0.06,0.05-0.14,0.08-0.21,0.08s-0.15-0.03-0.2-0.08    c-0.11-0.11-0.11-0.3,0-0.41l4.71-4.71l1.03-1.03c0.11-0.11,0.3-0.11,0.41,0C100.89,91.76,100.89,91.95,100.78,92.06z"/>
        </g>
        <g>
            <path class="st0" d="M108.03,92.06l-0.39,0.39l-5.35,5.35c-0.06,0.05-0.14,0.08-0.21,0.08s-0.15-0.03-0.2-0.08    c-0.11-0.11-0.11-0.3,0-0.41l4.93-4.93l0.81-0.81c0.11-0.11,0.3-0.11,0.41,0C108.14,91.76,108.14,91.95,108.03,92.06z"/>
        </g>
        <g>
            <path class="st0" d="M116.01,91.03l-6.77,6.77c-0.06,0.06-0.13,0.08-0.2,0.08s-0.15-0.03-0.21-0.08c-0.11-0.11-0.11-0.3,0-0.41    l5.61-5.61l1.16-1.16c0.11-0.11,0.3-0.11,0.41,0S116.12,90.92,116.01,91.03z"/>
        </g>
        <g>
            <path class="st0" d="M145.04,62l-13.43,13.43c-0.05,0.05-0.13,0.08-0.2,0.08c-0.07,0-0.15-0.03-0.21-0.08    c-0.11-0.11-0.11-0.3,0-0.41l13.43-13.43c0.11-0.11,0.3-0.11,0.41,0C145.15,61.7,145.15,61.89,145.04,62z"/>
        </g>
        <g>
            <path class="st0" d="M145.05,54.37l-9.59,9.59l-1.18,1.18c-0.06,0.05-0.13,0.08-0.2,0.08s-0.15-0.03-0.21-0.08    c-0.11-0.11-0.11-0.3,0-0.41l1.66-1.66l9.11-9.11c0.11-0.11,0.3-0.11,0.41,0C145.16,54.07,145.16,54.26,145.05,54.37z"/>
        </g>
        <g>
            <path class="st0" d="M145.05,46.92l-9.53,9.53l-1.24,1.24c-0.06,0.05-0.13,0.08-0.2,0.08s-0.15-0.03-0.21-0.08    c-0.11-0.11-0.11-0.3,0-0.41l1.66-1.66l9.11-9.11c0.11-0.11,0.3-0.11,0.41,0C145.16,46.62,145.16,46.81,145.05,46.92z"/>
        </g>
        <g>
            <path class="st0" d="M144.51,40.58l-10.77,10.77c-0.05,0.05-0.13,0.08-0.2,0.08s-0.15-0.03-0.21-0.08c-0.11-0.11-0.11-0.3,0-0.41    l2.31-2.31l8.46-8.46c0.11-0.11,0.3-0.11,0.41,0S144.62,40.47,144.51,40.58z"/>
        </g>
        <g>
            <path class="st0" d="M142.76,35.28l-9.02,9.02c-0.05,0.05-0.12,0.08-0.2,0.08c-0.07,0-0.15-0.03-0.21-0.08    c-0.11-0.11-0.11-0.3,0-0.41l2.26-2.26l6.76-6.76c0.11-0.11,0.3-0.11,0.41,0S142.87,35.17,142.76,35.28z"/>
        </g>
        <g>
            <path class="st0" d="M140.73,30.08l-5.56,5.56l-1.41,1.41c-0.05,0.05-0.13,0.08-0.2,0.08s-0.15-0.03-0.21-0.08    c-0.11-0.11-0.11-0.3,0-0.41l6.97-6.97c0.11-0.11,0.3-0.11,0.41,0C140.84,29.78,140.84,29.97,140.73,30.08z"/>
        </g>
        <g>
            <path class="st0" d="M138.27,26.09l-4,4c-0.06,0.05-0.13,0.08-0.2,0.08s-0.15-0.03-0.21-0.08c-0.11-0.11-0.11-0.3,0-0.41l4-4    c0.11-0.11,0.3-0.11,0.41,0C138.38,25.79,138.38,25.98,138.27,26.09z"/>
        </g>
        <g>
            <path class="st0" d="M135.14,21.64l-0.6,0.6l-1.14,1.14c-0.05,0.07-0.12,0.09-0.2,0.09c-0.07,0-0.15-0.03-0.21-0.09    c-0.11-0.11-0.11-0.3,0-0.41l1.74-1.74c0.11-0.11,0.3-0.11,0.41,0S135.25,21.53,135.14,21.64z"/>
        </g>
        <g>
            <path class="st0" d="M144.41,70.1l-30.86,30.86c-0.05,0.06-0.13,0.09-0.2,0.09c-0.07,0-0.15-0.03-0.21-0.08    c-0.11-0.11-0.11-0.3,0-0.41L144,69.69c0.11-0.11,0.3-0.11,0.41,0C144.52,69.8,144.52,69.99,144.41,70.1z"/>
        </g>
        <g>
            <path class="st0" d="M143.48,78.25l-26.45,26.45c-0.06,0.05-0.14,0.08-0.21,0.08s-0.15-0.03-0.2-0.08c-0.11-0.11-0.11-0.3,0-0.41    l26.45-26.45c0.11-0.11,0.3-0.11,0.41,0C143.59,77.95,143.59,78.14,143.48,78.25z"/>
        </g>
        <g>
            <path class="st0" d="M141.61,86.69l-8.72,8.71c-0.05,0.05-0.13,0.08-0.2,0.08s-0.15-0.03-0.21-0.08c-0.11-0.11-0.11-0.3,0-0.41    l8.72-8.71c0.11-0.11,0.3-0.11,0.41,0C141.72,86.39,141.72,86.58,141.61,86.69z"/>
        </g>
        <g>
            <path class="st0" d="M125.63,103.84l-5.43,5.43c-0.05,0.05-0.13,0.08-0.2,0.08s-0.15-0.03-0.21-0.08c-0.11-0.11-0.11-0.3,0-0.41    l5.43-5.43c0.11-0.11,0.3-0.11,0.41,0S125.74,103.73,125.63,103.84z"/>
        </g>
        <g>
            <path class="st0" d="M126.99,109.7l-3.59,3.59c-0.05,0.06-0.12,0.08-0.2,0.08c-0.07,0-0.15-0.03-0.21-0.08    c-0.11-0.11-0.11-0.3,0-0.41l3.59-3.59c0.11-0.11,0.3-0.11,0.41,0S127.1,109.59,126.99,109.7z"/>
        </g>
        <g>
            <path class="st0" d="M128.5,115.61l-2.05,2.05c-0.06,0.06-0.14,0.08-0.21,0.08s-0.15-0.03-0.2-0.08c-0.11-0.11-0.11-0.3,0-0.41    l2.05-2.05c0.11-0.11,0.3-0.11,0.41,0C128.61,115.31,128.61,115.5,128.5,115.61z"/>
        </g>
        <g>
            <rect x="24.14" y="24.39" class="st1" width="72.37" height="6.84"/>
            <path class="st0" d="M96.5,23.52H24.14c-0.48,0-0.87,0.39-0.87,0.87v6.84c0,0.48,0.39,0.87,0.87,0.87H96.5    c0.48,0,0.87-0.39,0.87-0.87v-6.84C97.37,23.91,96.98,23.52,96.5,23.52z M95.64,30.36H25.01v-5.1h70.63V30.36z"/>
        </g>
        <g>
            <path class="st0" d="M24.14,40.71v6.84H68.6v-6.84H24.14z M67.73,46.69H25.01v-5.1h42.72V46.69z"/>
            <path class="st0" d="M68.6,39.85H24.14c-0.48,0-0.87,0.39-0.87,0.87v6.84c0,0.48,0.39,0.87,0.87,0.87H68.6    c0.48,0,0.87-0.39,0.87-0.87v-6.84C69.47,40.24,69.08,39.85,68.6,39.85z M67.73,46.69H25.01v-5.1h42.72V46.69z"/>
        </g>
        <g>
            <rect x="24.14" y="57.03" class="st1" width="72.37" height="6.84"/>
            <path class="st0" d="M96.5,56.17H24.14c-0.48,0-0.87,0.39-0.87,0.87v6.84c0,0.48,0.39,0.87,0.87,0.87H96.5    c0.48,0,0.87-0.39,0.87-0.87v-6.84C97.37,56.56,96.98,56.17,96.5,56.17z M95.64,63.01H25.01v-5.1h70.63V63.01z"/>
        </g>
    </g>
    </svg>