<?xml version="1.0" encoding="utf-8"?>
<!-- Generator: Adobe Illustrator 27.0.0, SVG Export Plug-In . SVG Version: 6.00 Build 0)  -->
<svg width="87" height="83"  version="1.1" id="Layer_1" xmlns="http://www.w3.org/2000/svg" xmlns:xlink="http://www.w3.org/1999/xlink" x="0px" y="0px"
	 viewBox="0 0 148.34 130.79" style="enable-background:new 0 0 148.34 130.79;" xml:space="preserve">
<style type="text/css">
	.st0{fill:#FFFFFF;}
	.st1{fill:#ACD4F7;}
	.st2{opacity:0.1294;}
</style>
<g>
	<g>
		<g>
			<path class="st0" d="M43.78,13.71h77.46c14.49,0,26.23,11.74,26.23,26.23v35.7c0,12.02-8.09,22.15-19.12,25.25l5.36,29.03
				l-24.18-28.05H43.78c-14.49,0-26.23-11.74-26.23-26.23v-35.7C17.55,25.46,29.29,13.71,43.78,13.71z"/>
			<path d="M133.7,130.79c-0.25,0-0.49-0.11-0.66-0.3l-23.92-27.74H43.78c-14.94,0-27.1-12.16-27.1-27.1v-35.7
				c0-14.94,12.16-27.1,27.1-27.1h77.46c14.94,0,27.1,12.16,27.1,27.1v35.7c0,11.82-7.77,22.34-18.99,25.86l5.22,28.26
				c0.07,0.39-0.13,0.77-0.48,0.94C133.96,130.76,133.83,130.79,133.7,130.79z M43.78,14.58c-13.98,0-25.36,11.38-25.36,25.36v35.7
				c0,13.98,11.38,25.36,25.36,25.36h65.74c0.25,0,0.49,0.11,0.66,0.3l22.08,25.61l-4.77-25.87c-0.08-0.44,0.19-0.87,0.62-1
				c10.88-3.06,18.49-13.1,18.49-24.41v-35.7c0-13.98-11.38-25.36-25.36-25.36H43.78z"/>
		</g>
	</g>
	<g>
		<path d="M38.38,97.88c-0.07,0-0.15-0.03-0.2-0.08c-0.11-0.11-0.11-0.3,0-0.41l5.74-5.74c0.11-0.11,0.3-0.11,0.41,0
			c0.11,0.11,0.11,0.3,0,0.41l-5.74,5.74C38.53,97.85,38.45,97.88,38.38,97.88z"/>
	</g>
	<g>
		<path d="M45.63,97.88c-0.07,0-0.15-0.03-0.2-0.08c-0.11-0.11-0.11-0.3,0-0.41l5.74-5.74c0.11-0.11,0.3-0.11,0.41,0
			c0.11,0.11,0.11,0.3,0,0.41l-5.74,5.74C45.78,97.85,45.7,97.88,45.63,97.88z"/>
	</g>
	<g>
		<path d="M52.59,97.88c-0.07,0-0.15-0.03-0.2-0.08c-0.11-0.11-0.11-0.3,0-0.41l5.74-5.74c0.11-0.11,0.3-0.11,0.41,0
			c0.11,0.11,0.11,0.3,0,0.41l-5.74,5.74C52.74,97.85,52.66,97.88,52.59,97.88z"/>
	</g>
	<g>
		<path d="M59.63,97.88c-0.07,0-0.15-0.03-0.21-0.08c-0.11-0.11-0.11-0.3,0-0.41l5.74-5.74c0.11-0.11,0.3-0.11,0.41,0
			c0.11,0.11,0.11,0.3,0,0.41l-5.74,5.74C59.78,97.85,59.71,97.88,59.63,97.88z"/>
	</g>
	<g>
		<path d="M65.83,97.88c-0.07,0-0.15-0.03-0.21-0.08c-0.11-0.11-0.11-0.3,0-0.41l5.74-5.74c0.11-0.11,0.3-0.11,0.41,0
			c0.11,0.11,0.11,0.3,0,0.41l-5.74,5.74C65.98,97.85,65.9,97.88,65.83,97.88z"/>
	</g>
	<g>
		<path d="M73.08,97.88c-0.07,0-0.15-0.03-0.21-0.08c-0.11-0.11-0.11-0.3,0-0.41l5.74-5.74c0.11-0.11,0.3-0.11,0.41,0
			c0.11,0.11,0.11,0.3,0,0.41l-5.74,5.74C73.23,97.85,73.15,97.88,73.08,97.88z"/>
	</g>
	<g>
		<path d="M80.04,97.88c-0.07,0-0.15-0.03-0.21-0.08c-0.11-0.11-0.11-0.3,0-0.41l5.74-5.74c0.11-0.11,0.3-0.11,0.41,0
			c0.11,0.11,0.11,0.3,0,0.41l-5.74,5.74C80.19,97.85,80.11,97.88,80.04,97.88z"/>
	</g>
	<g>
		<path d="M87.09,97.88c-0.07,0-0.15-0.03-0.21-0.08c-0.11-0.11-0.11-0.3,0-0.41l5.74-5.74c0.11-0.11,0.3-0.11,0.41,0
			c0.11,0.11,0.11,0.3,0,0.41l-5.74,5.74C87.24,97.85,87.16,97.88,87.09,97.88z"/>
	</g>
	<g>
		<path d="M94.83,97.88c-0.07,0-0.15-0.03-0.2-0.08c-0.11-0.11-0.11-0.3,0-0.41l5.74-5.74c0.11-0.11,0.3-0.11,0.41,0
			c0.11,0.11,0.11,0.3,0,0.41l-5.74,5.74C94.98,97.85,94.9,97.88,94.83,97.88z"/>
	</g>
	<g>
		<path d="M102.08,97.88c-0.07,0-0.15-0.03-0.2-0.08c-0.11-0.11-0.11-0.3,0-0.41l5.74-5.74c0.11-0.11,0.3-0.11,0.41,0
			c0.11,0.11,0.11,0.3,0,0.41l-5.74,5.74C102.23,97.85,102.15,97.88,102.08,97.88z"/>
	</g>
	<g>
		<path d="M109.04,97.88c-0.07,0-0.15-0.03-0.21-0.08c-0.11-0.11-0.11-0.3,0-0.41l6.77-6.77c0.11-0.11,0.3-0.11,0.41,0
			c0.11,0.11,0.11,0.3,0,0.41l-6.77,6.77C109.18,97.86,109.11,97.88,109.04,97.88z"/>
	</g>
	<g>
		<path d="M131.41,75.51c-0.07,0-0.15-0.03-0.21-0.08c-0.11-0.11-0.11-0.3,0-0.41l13.43-13.43c0.11-0.11,0.3-0.11,0.41,0
			c0.11,0.11,0.11,0.3,0,0.41l-13.43,13.43C131.56,75.48,131.48,75.51,131.41,75.51z"/>
	</g>
	<g>
		<path d="M134.08,65.22c-0.07,0-0.15-0.03-0.21-0.08c-0.11-0.11-0.11-0.3,0-0.41l10.77-10.77c0.11-0.11,0.3-0.11,0.41,0
			c0.11,0.11,0.11,0.3,0,0.41l-10.77,10.77C134.22,65.19,134.15,65.22,134.08,65.22z"/>
	</g>
	<g>
		<path d="M134.08,57.77c-0.07,0-0.15-0.03-0.21-0.08c-0.11-0.11-0.11-0.3,0-0.41l10.77-10.77c0.11-0.11,0.3-0.11,0.41,0
			c0.11,0.11,0.11,0.3,0,0.41l-10.77,10.77C134.22,57.74,134.15,57.77,134.08,57.77z"/>
	</g>
	<g>
		<path d="M133.54,51.43c-0.07,0-0.15-0.03-0.21-0.08c-0.11-0.11-0.11-0.3,0-0.41l10.77-10.77c0.11-0.11,0.3-0.11,0.41,0
			c0.11,0.11,0.11,0.3,0,0.41l-10.77,10.77C133.69,51.4,133.61,51.43,133.54,51.43z"/>
	</g>
	<g>
		<path d="M133.54,44.38c-0.07,0-0.15-0.03-0.21-0.08c-0.11-0.11-0.11-0.3,0-0.41l9.02-9.02c0.11-0.11,0.3-0.11,0.41,0
			c0.11,0.11,0.11,0.3,0,0.41l-9.02,9.02C133.69,44.35,133.62,44.38,133.54,44.38z"/>
	</g>
	<g>
		<path d="M133.56,37.13c-0.07,0-0.15-0.03-0.21-0.08c-0.11-0.11-0.11-0.3,0-0.41l6.97-6.97c0.11-0.11,0.3-0.11,0.41,0
			c0.11,0.11,0.11,0.3,0,0.41l-6.97,6.97C133.71,37.1,133.63,37.13,133.56,37.13z"/>
	</g>
	<g>
		<path d="M134.07,30.17c-0.07,0-0.15-0.03-0.21-0.08c-0.11-0.11-0.11-0.3,0-0.41l4-4c0.11-0.11,0.3-0.11,0.41,0
			c0.11,0.11,0.11,0.3,0,0.41l-4,4C134.21,30.14,134.14,30.17,134.07,30.17z"/>
	</g>
	<g>
		<path d="M133.2,23.47c-0.07,0-0.15-0.03-0.21-0.09c-0.11-0.11-0.11-0.3,0-0.41l1.74-1.74c0.11-0.11,0.3-0.11,0.41,0
			c0.11,0.11,0.11,0.3,0,0.41l-1.74,1.74C133.35,23.45,133.28,23.47,133.2,23.47z"/>
	</g>
	<g>
		<path d="M113.35,101.05c-0.07,0-0.15-0.03-0.21-0.08c-0.11-0.11-0.11-0.3,0-0.41L144,69.69c0.11-0.11,0.3-0.11,0.41,0
			c0.11,0.11,0.11,0.3,0,0.41l-30.86,30.86C113.5,101.02,113.42,101.05,113.35,101.05z"/>
	</g>
	<g>
		<path d="M116.82,104.78c-0.07,0-0.15-0.03-0.2-0.08c-0.11-0.11-0.11-0.3,0-0.41l26.45-26.45c0.11-0.11,0.3-0.11,0.41,0
			c0.11,0.11,0.11,0.3,0,0.41l-26.45,26.45C116.97,104.75,116.89,104.78,116.82,104.78z"/>
	</g>
	<g>
		<path d="M132.69,95.48c-0.07,0-0.15-0.03-0.21-0.08c-0.11-0.11-0.11-0.3,0-0.41l8.72-8.71c0.11-0.11,0.3-0.11,0.41,0
			c0.11,0.11,0.11,0.3,0,0.41l-8.72,8.71C132.84,95.45,132.76,95.48,132.69,95.48z"/>
	</g>
	<g>
		<path d="M120,109.35c-0.07,0-0.15-0.03-0.21-0.08c-0.11-0.11-0.11-0.3,0-0.41l5.43-5.43c0.11-0.11,0.3-0.11,0.41,0
			c0.11,0.11,0.11,0.3,0,0.41l-5.43,5.43C120.15,109.32,120.07,109.35,120,109.35z"/>
	</g>
	<g>
		<path d="M123.2,113.37c-0.07,0-0.15-0.03-0.21-0.08c-0.11-0.11-0.11-0.3,0-0.41l3.59-3.59c0.11-0.11,0.3-0.11,0.41,0
			c0.11,0.11,0.11,0.3,0,0.41l-3.59,3.59C123.35,113.35,123.28,113.37,123.2,113.37z"/>
	</g>
	<g>
		<path d="M126.24,117.74c-0.07,0-0.15-0.03-0.2-0.08c-0.11-0.11-0.11-0.3,0-0.41l2.05-2.05c0.11-0.11,0.3-0.11,0.41,0
			c0.11,0.11,0.11,0.3,0,0.41l-2.05,2.05C126.39,117.72,126.31,117.74,126.24,117.74z"/>
	</g>
	<g class="st2">
		<path d="M135.64,42.67c-0.19-4.82-0.85-9.62-0.76-14.45c0.06-3.5-0.15-7.11-1.62-10.34c-0.73-1.43-1.21-2.69-2.88-2.51
			c-0.78,0.05-1.46,0.7-1.66,1.43c-0.07,0.37-0.08,0.74,0.01,1.09c0,0,0-0.01-0.01-0.01c0,0,0,0.01,0.01,0.01
			c0.04,0.15,0.1,0.3,0.19,0.44c0.13,0.32,0.08,0.23,0.58,1.22c0,0,0,0.01,0.01,0.01c0.43,1.1,0.72,2.25,0.9,3.42
			c0.33,2.6,0.13,5.22,0.21,7.83c0.13,3.41,0.38,6.81,0.55,10.22c0.19,5.94-0.18,11.89-0.16,17.83c0.05,3.43-0.03,8.12-0.48,9.79
			c-0.03,0.17-0.08,0.33-0.12,0.5c-0.03,0.09-0.06,0.18-0.09,0.26c-0.5,1.78-1.03,2.92-1.2,3.41c-1.8,4.69-8.28,12.92-12.57,14.25
			c-4.35,1.37-6.34,1.47-10.98,1.27c-4.02,0.03-8.05-0.1-12.07-0.1c-4.13-0.13-8.26,0.14-12.39,0.02
			c-4.82-0.23-9.65,0.11-14.48-0.01c-7.58-0.1-15.4-0.5-21.03,0.16c-2.86,0.23-3.3-0.37-5.18,0.42c-3,2.24-5.2,5.41-8.18,7.7
			c-2.23,2.35,1.11,5.76,3.51,3.51c2.15-1.72,5.18-5.24,6.65-6.64c0.67,0.07,1.34,0.1,2.01,0.15c7.27-0.06,14.53-0.45,21.8-0.5
			c7.68-0.04,15.35-0.09,23.02-0.31c5.59-0.04,11.19,0.03,16.77-0.28c2.35,0,4.72,0.01,7.04-0.43c2.21-0.37,4.43-0.84,6.44-1.85
			c1.57-0.74,2.94-1.83,4.24-2.96c2.38-2.14,4.48-4.58,6.26-7.25c1.3-1.88,2.37-3.91,3.2-6.04c0.78-1.74,1.44-3.61,1.68-5.51
			c0.33-1.72,0.52-3.47,0.67-5.2c-0.06-2.71-0.02-5.41,0-8.12C135.43,50.96,135.87,46.81,135.64,42.67z"/>
	</g>
	<g>
		<g>
			<path class="st0" d="M104.56,0.87H27.1C12.61,0.87,0.87,12.61,0.87,27.1v35.7c0,12.02,8.09,22.15,19.12,25.25l-5.36,29.03
				l24.18-28.05h65.74c14.49,0,26.23-11.74,26.23-26.23V27.1C130.79,12.61,119.05,0.87,104.56,0.87z"/>
			<path d="M14.63,117.95c-0.13,0-0.26-0.03-0.38-0.09c-0.35-0.17-0.55-0.56-0.48-0.94l5.22-28.26C7.77,85.14,0,74.62,0,62.8V27.1
				C0,12.16,12.16,0,27.1,0h77.46c14.94,0,27.1,12.16,27.1,27.1v35.7c0,14.94-12.16,27.1-27.1,27.1H39.21l-23.92,27.74
				C15.12,117.84,14.88,117.95,14.63,117.95z M27.1,1.74C13.12,1.74,1.74,13.12,1.74,27.1v35.7c0,11.31,7.6,21.35,18.49,24.41
				c0.43,0.12,0.7,0.55,0.62,1l-4.77,25.87l22.08-25.61c0.16-0.19,0.41-0.3,0.66-0.3h65.74c13.98,0,25.36-11.38,25.36-25.36V27.1
				c0-13.98-11.38-25.36-25.36-25.36H27.1z"/>
		</g>
	</g>
	<g>
		<path d="M38.38,97.88c-0.07,0-0.15-0.03-0.2-0.08c-0.11-0.11-0.11-0.3,0-0.41l5.74-5.74c0.11-0.11,0.3-0.11,0.41,0
			c0.11,0.11,0.11,0.3,0,0.41l-5.74,5.74C38.53,97.85,38.45,97.88,38.38,97.88z"/>
	</g>
	<g>
		<path d="M45.63,97.88c-0.07,0-0.15-0.03-0.2-0.08c-0.11-0.11-0.11-0.3,0-0.41l5.74-5.74c0.11-0.11,0.3-0.11,0.41,0
			c0.11,0.11,0.11,0.3,0,0.41l-5.74,5.74C45.78,97.85,45.7,97.88,45.63,97.88z"/>
	</g>
	<g>
		<path d="M52.59,97.88c-0.07,0-0.15-0.03-0.2-0.08c-0.11-0.11-0.11-0.3,0-0.41l5.74-5.74c0.11-0.11,0.3-0.11,0.41,0
			c0.11,0.11,0.11,0.3,0,0.41l-5.74,5.74C52.74,97.85,52.66,97.88,52.59,97.88z"/>
	</g>
	<g>
		<path d="M59.63,97.88c-0.07,0-0.15-0.03-0.21-0.08c-0.11-0.11-0.11-0.3,0-0.41l5.74-5.74c0.11-0.11,0.3-0.11,0.41,0
			c0.11,0.11,0.11,0.3,0,0.41l-5.74,5.74C59.78,97.85,59.71,97.88,59.63,97.88z"/>
	</g>
	<g>
		<path d="M65.83,97.88c-0.07,0-0.15-0.03-0.21-0.08c-0.11-0.11-0.11-0.3,0-0.41l5.74-5.74c0.11-0.11,0.3-0.11,0.41,0
			c0.11,0.11,0.11,0.3,0,0.41l-5.74,5.74C65.98,97.85,65.9,97.88,65.83,97.88z"/>
	</g>
	<g>
		<path d="M73.08,97.88c-0.07,0-0.15-0.03-0.21-0.08c-0.11-0.11-0.11-0.3,0-0.41l5.74-5.74c0.11-0.11,0.3-0.11,0.41,0
			c0.11,0.11,0.11,0.3,0,0.41l-5.74,5.74C73.23,97.85,73.15,97.88,73.08,97.88z"/>
	</g>
	<g>
		<path d="M80.04,97.88c-0.07,0-0.15-0.03-0.21-0.08c-0.11-0.11-0.11-0.3,0-0.41l5.74-5.74c0.11-0.11,0.3-0.11,0.41,0
			c0.11,0.11,0.11,0.3,0,0.41l-5.74,5.74C80.19,97.85,80.11,97.88,80.04,97.88z"/>
	</g>
	<g>
		<path d="M87.09,97.88c-0.07,0-0.15-0.03-0.21-0.08c-0.11-0.11-0.11-0.3,0-0.41l5.74-5.74c0.11-0.11,0.3-0.11,0.41,0
			c0.11,0.11,0.11,0.3,0,0.41l-5.74,5.74C87.24,97.85,87.16,97.88,87.09,97.88z"/>
	</g>
	<g>
		<path d="M94.83,97.88c-0.07,0-0.15-0.03-0.2-0.08c-0.11-0.11-0.11-0.3,0-0.41l5.74-5.74c0.11-0.11,0.3-0.11,0.41,0
			c0.11,0.11,0.11,0.3,0,0.41l-5.74,5.74C94.98,97.85,94.9,97.88,94.83,97.88z"/>
	</g>
	<g>
		<path d="M102.08,97.88c-0.07,0-0.15-0.03-0.2-0.08c-0.11-0.11-0.11-0.3,0-0.41l5.74-5.74c0.11-0.11,0.3-0.11,0.41,0
			c0.11,0.11,0.11,0.3,0,0.41l-5.74,5.74C102.23,97.85,102.15,97.88,102.08,97.88z"/>
	</g>
	<g>
		<path d="M109.04,97.88c-0.07,0-0.15-0.03-0.21-0.08c-0.11-0.11-0.11-0.3,0-0.41l6.77-6.77c0.11-0.11,0.3-0.11,0.41,0
			c0.11,0.11,0.11,0.3,0,0.41l-6.77,6.77C109.18,97.86,109.11,97.88,109.04,97.88z"/>
	</g>
	<g>
		<path d="M131.41,75.51c-0.07,0-0.15-0.03-0.21-0.08c-0.11-0.11-0.11-0.3,0-0.41l13.43-13.43c0.11-0.11,0.3-0.11,0.41,0
			c0.11,0.11,0.11,0.3,0,0.41l-13.43,13.43C131.56,75.48,131.48,75.51,131.41,75.51z"/>
	</g>
	<g>
		<path d="M134.08,65.22c-0.07,0-0.15-0.03-0.21-0.08c-0.11-0.11-0.11-0.3,0-0.41l10.77-10.77c0.11-0.11,0.3-0.11,0.41,0
			c0.11,0.11,0.11,0.3,0,0.41l-10.77,10.77C134.22,65.19,134.15,65.22,134.08,65.22z"/>
	</g>
	<g>
		<path d="M134.08,57.77c-0.07,0-0.15-0.03-0.21-0.08c-0.11-0.11-0.11-0.3,0-0.41l10.77-10.77c0.11-0.11,0.3-0.11,0.41,0
			c0.11,0.11,0.11,0.3,0,0.41l-10.77,10.77C134.22,57.74,134.15,57.77,134.08,57.77z"/>
	</g>
	<g>
		<path d="M133.54,51.43c-0.07,0-0.15-0.03-0.21-0.08c-0.11-0.11-0.11-0.3,0-0.41l10.77-10.77c0.11-0.11,0.3-0.11,0.41,0
			c0.11,0.11,0.11,0.3,0,0.41l-10.77,10.77C133.69,51.4,133.61,51.43,133.54,51.43z"/>
	</g>
	<g>
		<path d="M133.54,44.38c-0.07,0-0.15-0.03-0.21-0.08c-0.11-0.11-0.11-0.3,0-0.41l9.02-9.02c0.11-0.11,0.3-0.11,0.41,0
			c0.11,0.11,0.11,0.3,0,0.41l-9.02,9.02C133.69,44.35,133.62,44.38,133.54,44.38z"/>
	</g>
	<g>
		<path d="M133.56,37.13c-0.07,0-0.15-0.03-0.21-0.08c-0.11-0.11-0.11-0.3,0-0.41l6.97-6.97c0.11-0.11,0.3-0.11,0.41,0
			c0.11,0.11,0.11,0.3,0,0.41l-6.97,6.97C133.71,37.1,133.63,37.13,133.56,37.13z"/>
	</g>
	<g>
		<path d="M134.07,30.17c-0.07,0-0.15-0.03-0.21-0.08c-0.11-0.11-0.11-0.3,0-0.41l4-4c0.11-0.11,0.3-0.11,0.41,0
			c0.11,0.11,0.11,0.3,0,0.41l-4,4C134.21,30.14,134.14,30.17,134.07,30.17z"/>
	</g>
	<g>
		<path d="M133.2,23.47c-0.07,0-0.15-0.03-0.21-0.09c-0.11-0.11-0.11-0.3,0-0.41l1.74-1.74c0.11-0.11,0.3-0.11,0.41,0
			c0.11,0.11,0.11,0.3,0,0.41l-1.74,1.74C133.35,23.45,133.28,23.47,133.2,23.47z"/>
	</g>
	<g>
		<path d="M113.35,101.05c-0.07,0-0.15-0.03-0.21-0.08c-0.11-0.11-0.11-0.3,0-0.41L144,69.69c0.11-0.11,0.3-0.11,0.41,0
			c0.11,0.11,0.11,0.3,0,0.41l-30.86,30.86C113.5,101.02,113.42,101.05,113.35,101.05z"/>
	</g>
	<g>
		<path d="M116.82,104.78c-0.07,0-0.15-0.03-0.2-0.08c-0.11-0.11-0.11-0.3,0-0.41l26.45-26.45c0.11-0.11,0.3-0.11,0.41,0
			c0.11,0.11,0.11,0.3,0,0.41l-26.45,26.45C116.97,104.75,116.89,104.78,116.82,104.78z"/>
	</g>
	<g>
		<path d="M132.69,95.48c-0.07,0-0.15-0.03-0.21-0.08c-0.11-0.11-0.11-0.3,0-0.41l8.72-8.71c0.11-0.11,0.3-0.11,0.41,0
			c0.11,0.11,0.11,0.3,0,0.41l-8.72,8.71C132.84,95.45,132.76,95.48,132.69,95.48z"/>
	</g>
	<g>
		<path d="M120,109.35c-0.07,0-0.15-0.03-0.21-0.08c-0.11-0.11-0.11-0.3,0-0.41l5.43-5.43c0.11-0.11,0.3-0.11,0.41,0
			c0.11,0.11,0.11,0.3,0,0.41l-5.43,5.43C120.15,109.32,120.07,109.35,120,109.35z"/>
	</g>
	<g>
		<path d="M123.2,113.37c-0.07,0-0.15-0.03-0.21-0.08c-0.11-0.11-0.11-0.3,0-0.41l3.59-3.59c0.11-0.11,0.3-0.11,0.41,0
			c0.11,0.11,0.11,0.3,0,0.41l-3.59,3.59C123.35,113.35,123.28,113.37,123.2,113.37z"/>
	</g>
	<g>
		<path d="M126.24,117.74c-0.07,0-0.15-0.03-0.2-0.08c-0.11-0.11-0.11-0.3,0-0.41l2.05-2.05c0.11-0.11,0.3-0.11,0.41,0
			c0.11,0.11,0.11,0.3,0,0.41l-2.05,2.05C126.39,117.72,126.31,117.74,126.24,117.74z"/>
	</g>
	<g class="st2">
		<path d="M135.64,42.67c-0.19-4.82-0.85-9.62-0.76-14.45c0.06-3.5-0.15-7.11-1.62-10.34c-0.73-1.43-1.21-2.69-2.88-2.51
			c-0.78,0.05-1.46,0.7-1.66,1.43c-0.07,0.37-0.08,0.74,0.01,1.09c0,0,0-0.01-0.01-0.01c0,0,0,0.01,0.01,0.01
			c0.04,0.15,0.1,0.3,0.19,0.44c0.13,0.32,0.08,0.23,0.58,1.22c0,0,0,0.01,0.01,0.01c0.43,1.1,0.72,2.25,0.9,3.42
			c0.33,2.6,0.13,5.22,0.21,7.83c0.13,3.41,0.38,6.81,0.55,10.22c0.19,5.94-0.18,11.89-0.16,17.83c0.05,3.43-0.03,8.12-0.48,9.79
			c-0.03,0.17-0.08,0.33-0.12,0.5c-0.03,0.09-0.06,0.18-0.09,0.26c-0.5,1.78-1.03,2.92-1.2,3.41c-1.8,4.69-8.28,12.92-12.57,14.25
			c-4.35,1.37-6.34,1.47-10.98,1.27c-4.02,0.03-8.05-0.1-12.07-0.1c-4.13-0.13-8.26,0.14-12.39,0.02
			c-4.82-0.23-9.65,0.11-14.48-0.01c-7.58-0.1-15.4-0.5-21.03,0.16c-2.86,0.23-3.3-0.37-5.18,0.42c-3,2.24-5.2,5.41-8.18,7.7
			c-2.23,2.35,1.11,5.76,3.51,3.51c2.15-1.72,5.18-5.24,6.65-6.64c0.67,0.07,1.34,0.1,2.01,0.15c7.27-0.06,14.53-0.45,21.8-0.5
			c7.68-0.04,15.35-0.09,23.02-0.31c5.59-0.04,11.19,0.03,16.77-0.28c2.35,0,4.72,0.01,7.04-0.43c2.21-0.37,4.43-0.84,6.44-1.85
			c1.57-0.74,2.94-1.83,4.24-2.96c2.38-2.14,4.48-4.58,6.26-7.25c1.3-1.88,2.37-3.91,3.2-6.04c0.78-1.74,1.44-3.61,1.68-5.51
			c0.33-1.72,0.52-3.47,0.67-5.2c-0.06-2.71-0.02-5.41,0-8.12C135.43,50.96,135.87,46.81,135.64,42.67z"/>
	</g>
	<g>
		<rect x="24.14" y="24.39" class="st1" width="72.37" height="6.84"/>
		<path d="M96.5,32.1H24.14c-0.48,0-0.87-0.39-0.87-0.87v-6.84c0-0.48,0.39-0.87,0.87-0.87H96.5c0.48,0,0.87,0.39,0.87,0.87v6.84
			C97.37,31.71,96.98,32.1,96.5,32.1z M25.01,30.36h70.63v-5.1H25.01V30.36z"/>
	</g>
	<g>
		<rect x="24.14" y="40.71" class="st0" width="44.46" height="6.84"/>
		<path d="M68.6,48.43H24.14c-0.48,0-0.87-0.39-0.87-0.87v-6.84c0-0.48,0.39-0.87,0.87-0.87H68.6c0.48,0,0.87,0.39,0.87,0.87v6.84
			C69.47,48.04,69.08,48.43,68.6,48.43z M25.01,46.69h42.72v-5.1H25.01V46.69z"/>
	</g>
	<g>
		<rect x="24.14" y="57.03" class="st1" width="72.37" height="6.84"/>
		<path d="M96.5,64.75H24.14c-0.48,0-0.87-0.39-0.87-0.87v-6.84c0-0.48,0.39-0.87,0.87-0.87H96.5c0.48,0,0.87,0.39,0.87,0.87v6.84
			C97.37,64.36,96.98,64.75,96.5,64.75z M25.01,63.01h70.63v-5.1H25.01V63.01z"/>
	</g>
</g>
</svg>
