<svg width="150" height="150" viewBox="0 0 150 150" fill="none" xmlns="http://www.w3.org/2000/svg">
<path d="M80.9022 46.4519C83.8671 47.0519 86.3959 49.1949 88.14 51.6808C89.884 54.1667 90.9305 57.0811 91.9769 59.9099C92.8489 62.2243 93.7209 64.6245 94.593 66.9389C95.029 69.4248 95.5522 71.9964 95.9882 74.4823C96.2498 76.1967 96.5986 77.911 96.1626 79.5397C95.7266 81.1684 94.4186 82.6256 92.9361 83.2257C90.9305 84.7686 88.3144 85.5401 85.7855 85.3687C86.0471 88.7975 86.0471 92.312 85.5239 95.5693C76.7165 96.3408 67.909 95.1407 59.1016 93.7692C58.84 92.312 58.6656 90.8547 58.5784 89.3118C62.8513 88.3689 67.1242 87.6831 71.5715 87.1688C70.3507 84.8544 69.1299 82.5399 67.909 80.2255C67.8218 80.1398 67.8218 79.9683 67.8218 79.8826C67.8218 79.7112 67.909 79.5397 67.9962 79.3683C69.0427 77.7396 69.6531 75.7681 69.6531 73.7108C67.473 72.3393 65.2929 71.0535 62.9385 69.8534C61.2816 66.5103 59.6248 63.253 57.7935 59.9956C56.4855 59.9956 55.1775 60.0813 53.7822 60.5956C54.567 57.1668 55.7879 53.8238 57.4447 50.7379C57.9679 49.7092 58.4912 48.7663 59.3632 47.9091C60.148 47.1376 61.1944 46.4519 62.4153 46.3661C64.9441 51.4236 67.473 56.4811 70.0891 61.5386C73.2284 56.3096 77.0653 51.2522 80.9022 46.4519Z" fill="#BEE8FF"/>
<path d="M82.3875 144.259C82.5619 145.545 82.6491 146.745 82.6491 148.03C82.6491 148.288 82.6491 148.545 82.5619 148.716C82.3003 149.316 81.5155 149.402 80.9051 149.402C79.4226 149.402 77.9402 149.488 76.4578 149.488C75.4985 149.488 74.5393 149.573 73.5801 149.402C74.1905 148.373 75.1497 147.602 76.1962 147.173C77.2426 146.659 78.4634 146.402 79.597 146.23C79.597 145.545 79.597 144.945 79.597 144.259C80.4691 144.259 81.4283 144.259 82.3875 144.259Z" fill="#BEE8FF"/>
<path d="M68.4344 144.259C68.6088 145.545 68.696 146.745 68.696 148.03C68.696 148.288 68.696 148.545 68.6088 148.716C68.3472 149.316 67.5624 149.402 66.952 149.402C65.4695 149.402 63.9871 149.488 62.5046 149.488C61.5454 149.488 60.5862 149.573 59.627 149.402C60.2374 148.373 61.1966 147.602 62.243 147.173C63.2895 146.659 64.5103 146.402 65.6439 146.23C65.6439 145.545 65.6439 144.945 65.6439 144.259C66.6031 144.259 67.5624 144.259 68.4344 144.259Z" fill="#BEE8FF"/>
<path d="M61.0229 94.5385C60.5869 111.168 61.2845 127.798 63.0285 144.256C64.8598 144.256 66.6038 144.17 68.4351 144.256C67.4759 129.941 67.8247 115.54 69.4815 100.882C71.0512 101.653 72.9696 100.71 74.4521 101.482C75.7601 112.968 77.0681 124.369 77.5041 135.855C77.5041 138.684 77.6785 141.513 77.853 144.17C79.9458 144.256 82.1259 144.17 84.1315 143.827C84.8291 140.399 84.3931 136.884 84.0443 133.455C82.8235 121.026 83.3467 108.425 85.178 95.91C82.3875 96.1672 79.597 96.1672 76.8065 95.8243C75.6729 95.6529 74.6265 95.4814 73.58 95.3957C69.2199 94.8814 64.8598 95.4814 61.0229 94.5385Z" fill="#333436"/>
<path d="M57.7979 59.9959C59.4548 63.5104 61.1116 67.0249 62.7685 70.4537C63.2917 71.5681 63.9021 72.7682 64.4253 73.8825C65.6461 76.4541 66.867 79.0257 68.3494 81.5116C69.3086 83.226 70.4423 84.9404 70.9655 86.9119C66.431 88.1977 61.8092 88.8835 57.1875 89.655C56.0539 89.8264 55.0074 89.9978 53.6994 90.0836C51.5194 86.9977 50.1241 83.5689 48.5545 80.2258C45.764 74.3111 42.3631 68.7393 38.875 63.0818C41.2295 62.3103 43.7583 61.7103 46.2 61.2817C48.1185 60.9388 50.1241 60.7674 52.1298 60.5102C53.8738 60.3388 55.7923 60.1674 57.7979 59.9959Z" fill="#333436"/>
<path d="M68.3488 79.0242C64.9479 79.1099 61.547 77.9098 59.0182 75.5097C59.2798 75.424 59.2798 74.9954 59.1926 74.7382C59.1054 74.481 58.8438 74.2239 58.8438 73.9667C58.8438 73.7096 59.1926 73.3667 59.367 73.5381C59.2798 73.1095 59.1054 72.5952 59.0182 72.1666C58.931 71.9952 58.931 71.8237 59.0182 71.6523C59.1054 71.4808 59.2798 71.4808 59.5414 71.4808C61.3726 71.4808 62.9423 73.1095 64.6863 73.0238C64.2503 72.5952 63.6399 72.338 63.1167 72.0809C62.5935 71.8237 61.983 71.3951 61.8958 70.7951C61.8958 70.7094 61.8958 70.6236 61.8958 70.4522C61.983 70.2808 62.1574 70.2808 62.3318 70.3665C64.9479 70.6236 67.128 72.2523 69.1336 73.881C69.2208 73.9667 69.2208 73.9667 69.308 74.0524C69.308 74.1382 69.308 74.2239 69.308 74.3096C69.2208 76.024 68.872 77.6527 68.3488 79.0242Z" fill="#333436"/>
<path d="M47.4151 81.0842C49.2464 81.6842 51.4264 81.427 53.0833 80.4841C53.7809 80.1413 54.3913 79.4555 54.2169 78.684C53.0833 78.7697 52.0368 78.8554 50.9032 79.0269C51.6008 78.084 52.9961 77.6554 53.4321 76.6267C53.4321 76.541 53.5193 76.4553 53.4321 76.3696C53.3449 76.1981 53.0833 76.1981 52.9089 76.1981C51.5136 76.541 50.2056 77.3982 48.8975 77.1411C49.6824 76.7125 50.38 76.1124 50.9904 75.5124C51.3392 75.1695 51.688 74.5695 51.252 74.3123C51.0776 74.1409 50.7288 74.2266 50.4672 74.3123C48.8975 74.7409 47.3279 75.6838 45.7583 75.5124C45.4967 75.4267 45.1478 75.3409 44.8862 75.4267C44.4502 75.5124 44.1886 75.8553 44.1014 76.2839C43.6654 77.3982 44.1886 78.5983 44.9734 79.4555C45.6711 80.1412 46.7175 80.827 47.4151 81.0842Z" fill="#333436"/>
<path d="M69.6597 61.8814C67.8284 56.4811 63.8171 52.0236 61.9858 46.109C63.8171 45.5089 65.6483 45.0803 67.8284 44.9089C68.09 43.1945 68.2644 41.4801 67.8284 39.3371C64.9507 38.4799 62.2475 37.0227 60.5034 34.6225C58.7594 32.2223 58.1489 29.1364 58.4105 26.1362C58.6722 23.2218 59.7186 20.393 60.9394 17.65C62.5091 14.2212 64.3403 10.9638 66.2588 7.70648C70.1829 10.1924 74.3686 12.764 78.9031 13.1068C81.0832 13.1068 83.2632 13.1926 85.5305 13.364C85.7049 13.364 85.9665 13.364 86.0537 13.5354C86.1409 13.7069 86.2281 13.8783 86.2281 14.0497C86.3153 15.7641 86.4897 17.4785 86.5769 19.1929C87.5362 19.2787 88.5826 18.9358 89.5418 19.1072C91.1987 19.5358 91.7219 21.8503 90.7626 23.2218C89.7162 24.5933 87.7978 24.9362 86.1409 24.5933C85.6177 27.6792 84.8329 30.6794 83.3504 33.4224C81.868 36.1655 79.6007 38.5656 76.8103 39.8514C76.4614 40.0229 76.1126 40.1943 75.9382 40.5372C75.851 40.7086 75.851 40.8801 75.9382 41.1372C76.0254 42.0801 76.0254 43.023 76.1126 43.8802C76.1126 44.1374 76.1126 44.3946 76.287 44.6517C76.4614 44.9946 76.8975 45.166 77.3335 45.3375C78.4671 45.6804 79.6007 46.109 80.7344 46.4518C76.9847 51.5093 73.3222 56.3953 69.6597 61.8814Z" fill="#333436"/>
<path d="M65.2939 1.62007C64.5091 2.04867 64.1603 3.0773 64.2475 4.02022C64.3347 4.7917 64.6835 5.6489 65.2067 6.24894C65.5555 6.67754 65.9915 7.02041 66.5147 7.36329C72.0085 11.4778 79.0719 13.4494 85.8737 13.278C86.4841 15.1638 86.6585 17.2211 86.3097 19.1926C87.6177 18.764 89.1873 19.0212 90.321 19.7927C90.2338 17.2211 90.0594 14.6495 89.1001 12.2493C88.1409 9.84917 86.3969 7.70617 84.0424 6.67754C81.1647 4.70598 77.851 3.67734 74.6245 2.6487C72.1829 1.87723 69.7412 1.19147 67.2123 1.19147C66.5147 1.19147 65.9043 1.27719 65.2939 1.62007Z" fill="#333436"/>
<path d="M86.0484 24.5944C85.874 25.7944 85.6124 26.9088 85.1764 28.0232C85.002 28.4517 84.8276 28.9661 84.9148 29.3947C85.6996 29.3089 86.3972 28.7089 87.0077 28.1089C87.6181 27.5946 88.1413 26.9088 88.2285 26.1373C88.2285 25.3658 87.7053 24.6801 86.9205 24.5086C86.4844 24.4229 86.0484 24.4229 86.0484 24.5944Z" fill="#333436"/>
<path d="M45.5895 75.169C45.5023 75.169 45.3279 75.0833 45.3279 74.9976C43.1479 70.883 40.619 66.8542 38.0901 63.0825C38.0029 62.9111 38.0029 62.8254 38.0029 62.7397C38.0029 62.6539 38.0901 62.5682 38.2645 62.5682C45.5895 60.7681 52.1297 60.0823 57.6235 59.6537C57.7979 59.6537 57.8851 59.7395 57.9723 59.8252C58.9315 61.711 59.8035 63.3397 60.6756 64.9684C61.6348 66.6828 62.5068 68.3972 63.3788 70.1116C63.466 70.283 63.3788 70.4544 63.2044 70.5402C63.03 70.6259 62.8556 70.5402 62.7684 70.3687C61.8964 68.6543 61.0244 66.9399 60.0651 65.2255C59.2803 63.6826 58.4083 62.0539 57.4491 60.2538C52.2169 60.6824 45.9384 61.2824 38.875 62.9968C41.4038 66.7685 43.7583 70.6259 45.9384 74.6547C46.0256 74.8262 45.9383 74.9976 45.7639 75.0833C45.7639 75.169 45.6767 75.169 45.5895 75.169Z" fill="white"/>
<path d="M53.6997 90.8559C53.6125 90.8559 53.4381 90.7701 53.4381 90.6844C52.0429 87.6842 50.5604 84.7698 48.8164 81.8553C48.7292 81.6838 48.8164 81.5124 48.9036 81.4267C49.078 81.341 49.2524 81.4267 49.3396 81.5124C50.9965 84.3412 52.4789 87.1699 53.8741 90.0844C59.3679 88.7986 65.4721 87.6842 70.8786 87.0842C70.617 86.5699 70.2682 85.9698 69.9194 85.2841C68.873 83.3982 67.5649 80.9981 66.6929 79.1123C66.6057 78.9408 66.6929 78.7694 66.8673 78.6837C67.0417 78.5979 67.2161 78.6837 67.3033 78.8551C68.1753 80.7409 69.4834 83.0554 70.5298 84.9412C70.9658 85.7984 71.4018 86.5699 71.7506 87.1699C71.8378 87.2556 71.8378 87.3414 71.7506 87.4271C71.6634 87.5128 71.5762 87.5985 71.489 87.5985C65.9081 88.37 59.4551 89.4844 53.6997 90.8559C53.7869 90.8559 53.7869 90.8559 53.6997 90.8559Z" fill="white"/>
<path d="M73.0547 26.6503C72.9675 26.6503 72.9675 26.6503 72.8802 26.6503C72.7058 26.5646 72.7058 26.3931 72.793 26.2217C73.3163 25.2788 73.0547 23.8216 72.2698 23.1358C71.921 22.8786 71.5722 22.6215 71.049 22.5358C69.741 22.1929 68.4329 22.3643 67.6481 23.0501C67.2121 23.393 66.9505 23.9073 66.8633 24.4216C66.8633 24.6788 66.8633 25.0216 67.1249 25.2788C67.2121 25.4502 67.2121 25.6217 67.1249 25.7074C66.9505 25.7931 66.7761 25.7931 66.6889 25.7074C66.4273 25.3645 66.2529 24.9359 66.3401 24.4216C66.4273 23.7358 66.7761 23.0501 67.2993 22.6215C68.3457 21.7643 69.8282 21.5928 71.3106 22.0214C71.921 22.1929 72.4442 22.45 72.793 22.7929C73.9267 23.7358 74.1883 25.4502 73.4907 26.6503C73.3163 26.5646 73.1419 26.6503 73.0547 26.6503Z" fill="white"/>
<path d="M77.3292 32.0492C77.242 32.0492 77.242 32.0492 77.3292 32.0492C74.5388 31.7064 71.9227 30.4206 69.917 28.5347C67.3882 30.1634 63.9001 29.992 61.4584 28.2776C61.3712 28.1918 61.1968 28.1061 61.1096 27.849C61.0224 27.5061 61.284 27.3346 61.284 27.1632C62.3304 25.7917 64.1617 25.1917 66.865 25.1917C69.917 25.1917 74.19 25.8774 76.9804 28.9633C77.5037 29.4776 77.8525 30.6777 77.6781 31.7064C77.5909 31.9635 77.4164 32.0492 77.3292 32.0492ZM69.917 27.7632C70.0042 27.7632 70.0914 27.7632 70.1786 27.849C72.0099 29.7348 74.4516 30.9349 77.0676 31.3635C77.1548 30.592 76.806 29.8205 76.4572 29.3919C73.8411 26.4774 69.8298 25.7917 66.865 25.7917C66.7777 25.7917 66.7778 25.7917 66.6905 25.7917C64.3361 25.7917 62.7664 26.306 61.8072 27.5061C61.72 27.5918 61.72 27.5918 61.72 27.5918C61.72 27.5918 61.72 27.5918 61.8072 27.6775C64.0745 29.3919 67.4754 29.3919 69.7426 27.849C69.7426 27.7632 69.8298 27.7632 69.917 27.7632Z" fill="white"/>
<path d="M70.3583 33.2496C68.8759 33.2496 67.3935 32.5638 66.4342 31.3638C66.347 31.1923 66.347 31.0209 66.5214 30.9352C66.6958 30.8494 66.8702 30.8494 66.9574 31.0209C68.0911 32.4781 70.1839 33.0781 71.8408 32.3924C72.0152 32.3067 72.1896 32.3924 72.2768 32.5638C72.364 32.7353 72.2768 32.9067 72.1024 32.9924C71.492 33.1639 70.9688 33.2496 70.3583 33.2496Z" fill="white"/>
<path d="M73.1456 40.6236C71.0527 40.6236 69.0471 40.1092 67.1286 39.5949C62.5069 38.3948 58.8444 34.2803 58.234 29.48C57.7108 25.6226 59.106 21.7652 60.6757 18.165C62.4197 14.0504 64.1638 10.7931 66.0822 7.87858C66.1694 7.79286 66.2566 7.70714 66.3438 7.70714C64.9486 6.59278 64.1637 5.30698 63.9893 3.93547C63.9021 3.42115 63.9893 2.73539 64.3382 2.13535C64.9486 1.19243 66.1694 1.02099 67.0414 1.02099C72.1864 0.763833 77.0697 2.90683 82.0402 5.3927C83.3483 5.99274 84.8307 6.76422 86.1388 7.79286C87.3596 8.8215 88.406 10.193 89.0164 11.8217C90.2373 14.0504 90.6733 16.7077 90.1501 19.1936C90.4989 19.365 90.8477 19.5365 91.1093 19.8794C91.7197 20.5651 91.9813 21.6795 91.7197 22.7081C91.3709 23.9082 90.4989 24.9368 89.3653 25.3654C88.406 25.794 87.2724 25.7083 86.3132 25.2797C85.6155 28.5371 84.6563 31.9658 82.9123 34.7946C80.9066 38.052 77.9417 40.195 74.8024 40.7093C74.2792 40.6236 73.6688 40.6236 73.1456 40.6236ZM66.6054 7.9643C66.6054 8.05002 66.6054 8.13574 66.5182 8.13574C64.5998 10.9645 62.9429 14.2218 61.1989 18.3364C59.7164 21.8509 58.3212 25.6226 58.8444 29.3943C59.4548 33.9374 62.9429 37.7948 67.303 38.9092C69.5703 39.5092 72.1864 40.195 74.7152 39.7663C77.6801 39.252 80.3834 37.1948 82.3891 34.1946C84.2203 31.2801 85.0923 27.7656 85.79 24.4225C85.79 24.3368 85.8772 24.2511 85.9644 24.1653C86.0516 24.1653 86.1388 24.1653 86.226 24.1653C87.098 24.6797 88.1444 24.8511 89.1036 24.4225C90.0629 24.0796 90.7605 23.2224 91.0221 22.1938C91.1965 21.3366 91.1093 20.4794 90.5861 19.9651C90.1501 19.4508 89.4525 19.2793 88.5804 19.2793C88.3188 19.2793 88.0572 19.365 87.8828 19.365C87.3596 19.4508 86.7492 19.5365 86.1388 19.365C85.9644 19.2793 85.8772 19.1936 85.8772 19.0222C86.0516 16.7077 85.9644 14.7362 85.6155 13.1932C79.773 13.1075 73.9304 11.736 68.6111 9.07866C67.9135 8.90722 67.2158 8.47862 66.6054 7.9643ZM86.662 19.0222C87.0108 19.1079 87.4468 19.0222 87.8828 18.9364C88.1444 18.9364 88.406 18.8507 88.6676 18.8507C89.0164 18.8507 89.278 18.8507 89.5397 18.8507C89.9757 16.5363 89.5397 14.0504 88.406 11.9931C87.7956 10.5359 86.8364 9.16438 85.7027 8.22146C84.4819 7.19282 83.0867 6.50706 81.7786 5.90702C76.8081 3.50687 72.012 1.36387 67.0414 1.62103C65.9078 1.70675 65.2102 1.96391 64.8614 2.47823C64.5998 2.90683 64.5998 3.50687 64.5998 3.84975C64.7742 5.73558 66.2566 7.27854 69.1343 8.73578C74.3664 11.3931 80.209 12.7646 86.0516 12.7646C86.226 12.7646 86.3132 12.8503 86.4004 13.0218C86.7492 14.6504 86.8364 16.7077 86.662 19.0222Z" fill="white"/>
<path d="M85.1815 30.1664C85.0943 30.1664 85.0071 30.1664 84.9199 30.0807C84.8327 29.9092 84.8327 29.7378 84.9199 29.6521C86.4023 28.452 87.536 26.8233 88.1464 25.0232C88.2336 24.8517 88.408 24.766 88.5824 24.8517C88.7568 24.9375 88.844 25.1089 88.7568 25.2803C88.0592 27.1662 86.9255 28.8806 85.3559 30.1664C85.3559 30.1664 85.2687 30.1664 85.1815 30.1664Z" fill="white"/>
<path d="M66.5202 15.2504C66.6074 14.736 67.1306 14.3074 67.6538 14.4789C68.177 14.5646 68.5258 15.0789 68.4386 15.5932C68.3514 16.1076 67.8282 16.5362 67.305 16.3647C66.7818 16.279 66.433 15.7647 66.5202 15.2504Z" fill="white"/>
<path d="M79.8581 19.6219C79.9453 19.1076 80.4685 18.679 80.9917 18.8504C81.5149 18.9361 81.8637 19.4504 81.7765 19.9648C81.6893 20.4791 81.1661 20.9077 80.6429 20.7362C80.1197 20.6505 79.7709 20.1362 79.8581 19.6219Z" fill="white"/>
<path d="M68.0881 45.0792C68.0009 45.0792 68.0009 45.0792 68.0881 45.0792C67.9137 45.0792 67.7393 44.9078 67.7393 44.7364L68.0009 40.0218C68.0009 39.8503 68.1753 39.6789 68.3497 39.6789C68.5241 39.6789 68.6985 39.8503 68.6985 40.0218L68.4369 44.7364C68.3497 44.9078 68.2625 45.0792 68.0881 45.0792Z" fill="white"/>
<path d="M83.6977 85.8835C81.8664 85.8835 80.384 85.7121 78.9015 85.4549C76.8087 85.0263 69.1348 81.8547 67.914 79.7117C67.7396 79.3688 67.7396 79.1117 67.8268 78.7688C68.6988 76.4544 68.9604 75.0828 69.0476 74.1399C69.222 73.0256 70.6173 72.9398 71.5765 72.8541C71.7509 72.8541 71.9253 72.8541 72.0997 72.7684C76.2854 72.2541 80.7328 71.9969 86.4881 71.9112C86.2265 69.6825 86.0521 67.8824 85.8777 66.0823C85.7033 64.1964 85.5289 62.3106 85.2673 59.9104C85.2673 59.739 85.3545 59.5675 85.5289 59.5675C85.7033 59.5675 85.8777 59.6533 85.8777 59.8247C86.1393 62.2249 86.3137 64.1107 86.4881 65.9965C86.6625 67.8824 86.8369 69.7682 87.0985 72.1684C87.0985 72.2541 87.0985 72.3398 87.0113 72.4255C86.9241 72.5112 86.8369 72.5112 86.7497 72.5112C80.82 72.597 76.2854 72.8541 72.0125 73.3684C71.8381 73.3684 71.6637 73.3684 71.4893 73.4542C70.4429 73.5399 69.5709 73.6256 69.5709 74.2256C69.3965 75.2543 69.1348 76.7115 68.2628 79.0259C68.2628 79.1117 68.2628 79.2831 68.35 79.3688C69.3093 81.1689 76.5471 84.2549 78.9015 84.7692C80.4712 85.1121 82.2152 85.2835 84.3953 85.1978C87.3602 85.1121 89.5402 84.6835 91.4587 83.7405C93.8131 82.6262 95.47 80.6546 95.9932 78.5116C96.5164 76.2829 95.906 73.8828 95.2956 71.8255C95.034 70.9683 94.7724 70.0254 94.5108 68.9967C92.7667 62.482 90.2378 52.6242 84.4825 48.2525C83 47.1382 81.1688 46.7096 79.2503 46.281C78.0295 46.0238 76.8959 45.7667 75.7622 45.2523C75.675 45.1666 75.5878 45.0809 75.5878 44.9952C75.5006 43.3665 75.5006 41.7378 75.5006 40.1949C75.5006 40.0234 75.675 39.852 75.8494 39.852C76.0238 39.852 76.1982 40.0234 76.1982 40.1949C76.1982 41.7378 76.1982 43.2808 76.2854 44.8237C77.3319 45.2523 78.4655 45.5095 79.5119 45.6809C81.4304 46.1095 83.436 46.5381 85.0057 47.8239C90.9355 52.3671 93.4643 61.882 95.2956 68.911C95.5572 69.9396 95.8188 70.8826 96.0804 71.7398C96.6908 73.797 97.3884 76.3686 96.778 78.7688C96.2548 81.0832 94.4235 83.2262 91.8947 84.4263C89.9762 85.3692 87.6218 85.8835 84.5697 85.8835C84.3081 85.8835 84.0465 85.8835 83.6977 85.8835Z" fill="white"/>
<path d="M49.2505 81.6832C46.8089 81.6832 44.4544 79.8831 43.7568 77.5686C43.5824 76.7972 43.5824 76.1971 43.7568 75.6828C43.9312 75.2542 44.3672 74.9113 44.8032 74.8256C44.9776 74.7399 45.2392 74.8256 45.3264 74.9113C46.3729 75.0828 47.4193 74.9113 48.3785 74.4827C48.5529 74.397 48.6401 74.397 48.8145 74.3113C49.4249 74.0541 50.2098 73.7113 50.9074 73.8827C50.9946 73.8827 51.2562 73.9684 51.3434 74.1399C51.4306 74.3113 51.605 74.5685 51.2562 75.1685C50.8202 75.7685 50.3842 76.3686 49.7737 76.7972H49.861C50.6458 76.4543 51.4306 76.1971 52.2154 75.94C53.0002 75.6828 53.349 76.0257 53.4362 76.1971C53.6979 76.54 53.5235 77.0543 53.0874 77.4829C52.5642 77.9972 51.9538 78.5116 51.3434 78.8544C51.605 78.7687 51.9538 78.683 52.3026 78.5973C52.6514 78.5116 53.0874 78.3401 53.5235 78.2544C54.0467 78.1687 54.3083 78.3401 54.3955 78.5116C54.6571 78.8544 54.5699 79.3688 54.1339 79.7974C52.8258 81.0832 51.0818 81.7689 49.2505 81.7689C49.3377 81.6832 49.3377 81.6832 49.2505 81.6832ZM45.0648 75.4257C44.8904 75.4257 44.6288 75.5971 44.4544 75.94C44.28 76.2829 44.28 76.7972 44.4544 77.3972C45.0648 79.5402 47.1577 81.0832 49.3377 81.0832C50.9074 81.0832 52.477 80.3974 53.6979 79.283C53.8723 79.1116 53.9595 78.9402 53.9595 78.8544C53.9595 78.8544 53.8723 78.7687 53.6979 78.8544C53.349 78.9402 53.0002 79.0259 52.6514 79.1116C51.8666 79.3688 51.0818 79.6259 50.297 79.283C50.2098 79.1973 50.1226 79.1116 50.1226 79.0259C50.1226 78.9402 50.2098 78.7687 50.297 78.7687C51.2562 78.3401 52.1282 77.7401 52.8258 76.9686C53.0002 76.7972 53.0874 76.54 53.0874 76.4543C53.0874 76.3686 52.913 76.3686 52.6514 76.4543C51.8666 76.7114 51.0818 76.9686 50.3842 77.3115C49.9482 77.4829 49.2505 77.8258 48.6401 77.3972C48.5529 77.3115 48.4657 77.2258 48.4657 77.14C48.4657 77.0543 48.5529 76.8829 48.6401 76.8829C49.5993 76.4543 50.3842 75.7685 50.9074 74.8256C50.9946 74.6542 50.9946 74.5685 50.9946 74.5685C50.9946 74.5685 50.9946 74.5685 50.9074 74.5685C50.3842 74.4827 49.7737 74.6542 49.2505 74.9971C49.0761 75.0828 48.9889 75.0828 48.8145 75.1685C47.6809 75.5971 46.4601 75.7685 45.3264 75.5971C45.2392 75.5114 45.152 75.5114 45.0648 75.4257Z" fill="white"/>
<path d="M53.9601 60.51C53.9601 60.51 53.8729 60.51 53.9601 60.51C53.6985 60.4243 53.6113 60.2528 53.6113 60.0814C54.1345 57.9384 54.745 55.7097 55.4426 53.6524C56.1402 51.7666 56.925 49.795 58.3203 48.252C60.6747 45.6805 64.3372 44.909 67.8253 44.3947C67.9997 44.3947 68.1741 44.4804 68.1741 44.6518C68.1741 44.8233 68.0869 44.9947 67.9125 44.9947C64.686 45.4233 61.1107 46.1948 58.7563 48.6806C57.4482 50.1379 56.6634 52.0237 56.053 53.8238C55.3554 55.8811 54.745 58.0241 54.2217 60.1671C54.2217 60.3385 54.1345 60.51 53.9601 60.51Z" fill="white"/>
<path d="M68.0856 79.2821H67.3008C67.3008 79.2821 67.3008 79.2821 67.2136 79.2821C66.516 79.1106 65.8183 79.1106 65.1207 79.0249C64.6847 79.0249 64.0743 78.9392 63.6383 78.5963C61.6326 78.082 59.8014 77.0534 58.3189 75.5104C58.2317 75.4247 58.2317 75.339 58.2317 75.2532C58.2317 75.1675 58.2317 75.0818 58.3189 74.9961C58.4933 74.8246 58.6677 74.7389 58.9294 74.7389C58.5805 74.396 58.2317 73.9674 58.1445 73.4531C58.1445 73.3674 58.1445 73.196 58.2317 73.1102C58.4061 72.9388 58.6677 72.8531 58.8421 72.8531C58.4061 72.3388 58.2317 71.8244 58.4061 71.3101C58.4061 71.2244 58.5805 71.1387 58.6677 71.053C59.8886 70.8815 60.935 71.3959 61.9814 71.9102C62.4174 72.0816 62.7663 72.253 63.2023 72.4245C63.0279 72.3388 62.9407 72.253 62.7663 72.253C62.1558 71.9102 61.371 71.3101 61.1966 70.3672C61.1966 70.1958 61.2838 70.0243 61.4582 70.0243C62.7663 69.6815 64.2487 70.0243 65.8183 71.053C66.3416 71.3959 66.8648 71.8244 67.388 72.1673C67.9984 72.6816 68.696 73.196 69.3936 73.5388C69.568 73.6246 69.568 73.796 69.4808 73.9674C69.3936 74.1389 69.2192 74.1389 69.0448 74.0532C68.26 73.6246 67.6496 73.1102 66.952 72.5959C66.4288 72.253 65.9927 71.8245 65.4695 71.4816C64.5975 70.8815 63.2023 70.2815 61.8942 70.4529C62.0686 70.9672 62.5919 71.3101 63.0279 71.5673C63.2023 71.653 63.3767 71.7387 63.6383 71.8244C64.1615 72.0816 64.5975 72.253 65.0335 72.6816C65.1207 72.7674 65.2079 72.9388 65.1207 73.0245C65.1207 73.1102 64.9463 73.196 64.8591 73.2817C63.7255 73.3674 62.6791 72.8531 61.6326 72.4245C60.6734 71.9959 59.8014 71.5673 58.9294 71.653C58.9294 72.1673 59.5398 72.5959 59.8886 72.8531C61.1094 73.7103 62.4174 74.396 63.8127 74.9961C63.9871 75.0818 64.0743 75.2532 63.9871 75.4247C63.8999 75.5961 63.7255 75.6818 63.5511 75.5961C62.243 75.2532 61.0222 74.7389 59.8886 73.9674C59.3654 73.6246 59.0166 73.4531 58.7549 73.5388C58.9294 73.9674 59.3654 74.3103 59.7142 74.6532C60.5862 75.2532 61.4582 75.8533 62.4174 76.3676C62.5919 76.4533 62.6791 76.6248 62.5919 76.7962C62.5047 76.9676 62.3302 77.0534 62.1558 76.9676L59.8014 75.6818C59.5398 75.5961 59.3654 75.5104 59.191 75.4247C60.499 76.7105 62.0686 77.5677 63.8999 77.9963C63.9871 77.9963 63.9871 77.9963 64.0743 78.082C64.3359 78.3392 64.7719 78.3392 65.2079 78.3392C65.9055 78.3392 66.6032 78.4249 67.388 78.5963H68.1728C68.3472 78.5963 68.5216 78.7678 68.5216 78.9392C68.4344 79.1106 68.26 79.2821 68.0856 79.2821Z" fill="white"/>
<path d="M85.6144 95.9976C85.44 95.9976 85.2656 95.8262 85.2656 95.6547C85.44 92.6545 85.5272 89.0543 85.44 85.8827C85.44 85.7112 85.6144 85.5398 85.7888 85.5398C85.9632 85.5398 86.1376 85.7112 86.1376 85.8827C86.2249 89.0543 86.1376 92.6545 85.9632 95.7405C85.9632 95.8262 85.7888 95.9976 85.6144 95.9976Z" fill="white"/>
<path d="M80.7294 96.3425C80.2934 96.3425 79.9446 96.3425 79.5957 96.3425C72.7068 95.9139 65.8178 95.3138 59.016 94.5424C58.8416 94.5424 58.7544 94.3709 58.7544 94.2852C58.6672 92.5708 58.4928 91.0279 58.3184 89.4849L58.6672 89.3992H59.016H58.6672H59.016C59.1904 90.8564 59.3648 92.3136 59.452 93.9423C66.1666 94.7138 72.9684 95.3138 79.7702 95.6567C81.863 95.7424 84.8279 95.4853 85.7871 95.3138C85.9615 95.3138 86.1359 95.3996 86.1359 95.571C86.1359 95.7424 86.0487 95.9139 85.8743 95.9139C84.9151 96.171 82.735 96.3425 80.7294 96.3425Z" fill="white"/>
<path d="M69.7434 62.3944C69.7434 62.3944 69.6562 62.3944 69.7434 62.3944C69.569 62.3944 69.4817 62.3087 69.4817 62.223C66.7785 56.3083 64.2496 51.1651 61.7207 46.5363C61.6335 46.3648 61.7207 46.1934 61.8951 46.1077C62.0695 46.0219 62.2439 46.1077 62.3311 46.2791C64.7728 50.7365 67.2145 55.7083 69.8306 61.4515C73.057 56.2226 76.6323 51.2509 80.5565 46.622C80.6437 46.4505 80.9053 46.4505 80.9925 46.622C81.1669 46.7077 81.1669 46.9649 80.9925 47.0506C76.9812 51.8509 73.2315 56.9941 70.005 62.3944C69.9178 62.3087 69.8306 62.3944 69.7434 62.3944Z" fill="white"/>
<path d="M70.7929 51.2524C70.6185 51.2524 70.4441 51.2524 70.2697 51.1667C69.8337 51.0809 69.5721 50.8238 69.3977 50.5666C68.9617 49.7951 68.6129 48.9379 68.3513 48.0807C68.2641 47.7379 68.0897 47.395 68.2641 46.9664C68.3513 46.6235 68.7001 46.1092 69.6593 45.9377C70.6185 45.6806 71.665 45.6806 72.7114 45.9377C73.4962 46.1092 74.0194 46.4521 74.1938 46.9664C74.5427 47.8236 73.9322 48.6808 73.4962 49.2808L72.6242 50.3095C72.4498 50.5666 72.1882 50.8238 71.8394 50.9952C71.4906 51.1667 71.1418 51.2524 70.7929 51.2524ZM69.9209 50.2237C70.0081 50.3095 70.1825 50.4809 70.3569 50.4809C70.7057 50.5666 71.0546 50.5666 71.3162 50.3952C71.5778 50.2237 71.7522 50.0523 71.9266 49.7951L72.7986 48.7665C73.1474 48.3379 73.6706 47.6521 73.409 47.0521C73.3218 46.7092 72.8858 46.5378 72.3626 46.3663C71.4906 46.1949 70.5313 46.1949 69.6593 46.3663C69.3105 46.4521 68.8745 46.6235 68.7873 46.9664C68.7001 47.1378 68.7873 47.4807 68.8745 47.6521C69.1361 48.6808 69.4849 49.4523 69.9209 50.2237Z" fill="white"/>
<path d="M67.4728 57.5108C67.4728 57.5108 67.3856 57.5108 67.4728 57.5108C67.2112 57.5108 67.124 57.3393 67.124 57.1679C67.4728 54.7677 68.1705 52.4533 69.3041 50.3103C69.3913 50.1389 69.5657 50.0531 69.7401 50.1389C69.9145 50.2246 70.0017 50.396 69.9145 50.5675C68.8681 52.6247 68.1705 54.8534 67.8216 57.1679C67.7344 57.425 67.6472 57.5108 67.4728 57.5108Z" fill="white"/>
<path d="M72.9699 56.3959C72.7955 56.3959 72.6211 56.2245 72.6211 56.0531C72.6211 54.0815 72.3595 52.1957 71.7491 50.3098C71.6619 50.1384 71.7491 49.9669 71.9235 49.8812C72.0979 49.7955 72.2723 49.8812 72.3595 50.0527C72.9699 51.9385 73.3187 53.9958 73.2315 55.9673C73.3187 56.3102 73.1443 56.3959 72.9699 56.3959Z" fill="white"/>
<path d="M69.3973 46.4525C69.3101 46.4525 69.2229 46.4525 69.1357 46.3667C68.6997 45.9381 68.1765 45.5953 67.6533 45.2524C67.4789 45.1667 67.4789 44.9952 67.5661 44.8238C67.6533 44.6523 67.8277 44.6523 68.0021 44.7381C68.5253 45.0809 69.1357 45.4238 69.5717 45.9381C69.7461 46.0239 69.7461 46.281 69.5717 46.3667C69.5717 46.4525 69.4845 46.4525 69.3973 46.4525Z" fill="white"/>
<path d="M73.8436 46.6243C73.7564 46.6243 73.582 46.5386 73.582 46.4529C73.4948 46.2814 73.582 46.11 73.6692 46.0243L75.8493 44.8242C76.0237 44.7385 76.1981 44.8242 76.2853 44.9099C76.3725 45.0814 76.2853 45.2528 76.1981 45.3385L74.018 46.5386C73.9308 46.5386 73.8436 46.6243 73.8436 46.6243Z" fill="white"/>
<path d="M62.6837 144.601C62.5093 144.601 62.3349 144.429 62.3349 144.344C61.114 127.457 60.8524 110.741 60.5908 94.4547C60.5908 94.2833 60.7652 94.1118 60.9396 94.1118C61.114 94.1118 61.2884 94.2833 61.2884 94.4547C61.55 110.57 61.8117 127.285 63.0325 144.001C63.4685 144.001 63.9917 144.001 64.5149 144.001C65.7358 144.001 67.131 143.915 68.1774 143.915C67.3926 130.2 68.0902 115.885 68.7006 101.998V101.055C68.7006 100.969 68.7006 100.884 68.7878 100.798C68.875 100.712 68.9623 100.712 69.0495 100.712C69.3983 100.712 69.9215 100.712 70.4447 100.798C71.8399 100.884 73.4968 100.884 74.5432 100.969C74.7176 100.969 74.8048 101.141 74.8048 101.227C76.6361 115.37 77.7697 129.686 78.0313 143.829C78.6417 143.829 79.4265 143.829 80.2114 143.829C81.5194 143.829 82.8274 143.829 83.7867 143.829C84.0483 140.143 83.6995 136.115 83.3506 132.257C83.089 129.686 82.9146 127.028 82.9146 124.457C82.8274 120.085 83.2634 115.627 83.6123 111.427L84.9203 96.1691C84.9203 95.9977 85.0947 95.8262 85.2691 95.9119C85.4435 95.9119 85.6179 96.0834 85.5307 96.2548L84.3099 111.513C83.9611 115.799 83.6123 120.171 83.6123 124.542C83.6123 127.028 83.8739 129.686 84.0483 132.257C84.3971 136.286 84.7459 140.401 84.3971 144.172C84.3971 144.344 84.2227 144.429 84.1355 144.429C83.089 144.515 81.6066 144.515 80.2114 144.515C79.3393 144.515 78.4673 144.515 77.7697 144.515C77.6825 144.515 77.5953 144.515 77.5081 144.429C77.4209 144.344 77.4209 144.258 77.4209 144.172C77.1593 130.028 76.0256 115.713 74.1944 101.569C73.148 101.484 71.5783 101.484 70.3575 101.398C69.9215 101.398 69.5727 101.398 69.2239 101.398V102.084C68.6134 116.056 68.003 130.457 68.7878 144.258C68.7878 144.344 68.7878 144.429 68.7006 144.515C68.6134 144.601 68.5262 144.601 68.439 144.601C67.4798 144.515 65.823 144.601 64.5149 144.601C63.8173 144.601 63.1197 144.601 62.6837 144.601Z" fill="white"/>
<path d="M77.7701 150C76.2877 150 74.8053 149.828 73.41 149.571C73.3228 149.571 73.2356 149.485 73.1484 149.399C73.0612 149.314 73.0612 149.228 73.1484 149.142C73.5844 148.114 74.6309 147.514 75.4157 147.085C76.7237 146.399 77.9445 145.885 79.1654 145.799C79.0782 145.371 79.0782 144.942 79.1654 144.428C79.1654 144.256 79.3398 144.085 79.5142 144.171C79.6886 144.171 79.863 144.342 79.7758 144.513C79.6886 145.028 79.7758 145.542 79.863 145.971C79.863 146.056 79.863 146.142 79.7758 146.228C79.6886 146.314 79.6014 146.314 79.5142 146.314C78.3806 146.399 77.0725 146.828 75.6773 147.599C75.0669 147.942 74.282 148.371 73.846 149.057C75.7645 149.4 77.7701 149.399 79.9502 149.228C80.4734 149.142 80.9966 149.142 81.607 148.971C81.6942 148.971 81.8687 148.885 81.9559 148.799C82.1303 148.628 82.2175 148.285 82.2175 148.028C82.2175 147.257 82.1303 146.571 82.0431 145.799C81.9559 145.371 81.9559 144.856 81.8687 144.342C81.8687 144.171 81.9559 143.999 82.1303 143.999C82.3047 143.999 82.4791 144.085 82.4791 144.256C82.5663 144.856 82.5663 145.285 82.6535 145.714C82.7407 146.485 82.8279 147.257 82.8279 148.028C82.8279 148.457 82.7407 148.971 82.3919 149.314C82.2175 149.485 82.0431 149.485 81.8687 149.571C81.2582 149.742 80.6478 149.828 80.1246 149.828C79.427 150 78.555 150 77.7701 150Z" fill="white"/>
<path d="M63.903 150C62.4205 150 60.9381 149.828 59.5428 149.571C59.4556 149.571 59.3684 149.485 59.2812 149.399C59.194 149.314 59.194 149.228 59.2812 149.142C59.7172 148.114 60.7637 147.514 61.5485 147.085C62.8565 146.399 64.0774 145.885 65.2982 145.799C65.211 145.371 65.211 144.942 65.2982 144.428C65.2982 144.256 65.4726 144.085 65.647 144.171C65.8214 144.171 65.9958 144.342 65.9086 144.513C65.8214 145.028 65.9086 145.542 65.9958 145.971C65.9958 146.056 65.9958 146.142 65.9086 146.228C65.8214 146.314 65.7342 146.314 65.647 146.314C64.5134 146.399 63.2053 146.828 61.8101 147.599C61.1997 147.942 60.4149 148.371 59.9788 149.057C61.8973 149.4 63.903 149.399 66.083 149.228C66.6062 149.142 67.1294 149.142 67.7399 148.971C67.8271 148.971 68.0015 148.885 68.0887 148.799C68.2631 148.628 68.3503 148.285 68.3503 148.028C68.3503 147.257 68.2631 146.571 68.1759 145.799C68.0887 145.371 68.0887 144.856 68.0015 144.342C68.0015 144.171 68.0887 143.999 68.2631 143.999C68.4375 143.999 68.6119 144.085 68.6119 144.256C68.6991 144.856 68.6991 145.285 68.7863 145.714C68.8735 146.485 68.9607 147.257 68.9607 148.028C68.9607 148.457 68.8735 148.971 68.5247 149.314C68.3503 149.485 68.1759 149.485 68.0015 149.571C67.3911 149.742 66.7806 149.828 66.2574 149.828C65.4726 150 64.6878 150 63.903 150Z" fill="white"/>
<g opacity="0.1294">
<path d="M74.1055 40.1945C73.6695 40.1945 73.2335 40.1945 72.7103 40.1945C72.5359 40.1945 72.4487 40.1945 72.2743 40.1945C72.1871 40.1945 72.0127 40.1088 71.8383 40.1088C71.0534 39.8516 70.2686 39.5944 69.3966 39.5087C69.135 39.423 68.7862 39.5087 68.5246 39.5944C67.6526 40.023 67.827 41.4803 68.7862 41.7374C70.2686 41.9946 71.7511 42.3375 73.2335 42.3375C73.6695 42.3375 74.1055 42.3375 74.5415 42.2517C74.8904 42.2517 75.152 42.166 75.4136 41.9089C76.3728 40.9659 75.152 39.5944 74.1055 40.1945Z" fill="white"/>
</g>
<g opacity="0.1294">
<path d="M82.9095 12.2501C82.3863 11.8215 82.1247 12.0787 81.1655 11.9072C81.1655 11.9072 81.5143 11.993 81.3399 11.9072C80.3806 11.7358 79.4214 11.5644 78.4622 11.4786C77.6774 11.4786 73.4044 10.6214 72.0964 9.93568C70.7884 9.24992 69.5675 8.56417 68.2595 7.96413C67.7363 7.79269 67.2131 7.36409 66.6899 7.44981C65.905 7.62125 65.7306 8.82133 66.4282 9.16421C68.1723 9.93568 69.8291 10.9643 71.6604 11.7358C73.8404 12.593 76.1077 13.193 78.4622 13.3645C79.5086 13.4502 80.555 13.6216 81.5143 13.5359C82.0375 13.5359 82.8223 13.6216 83.0839 13.0216C83.2583 12.8502 83.1711 12.4216 82.9095 12.2501Z" fill="white"/>
</g>
<g opacity="0.1294">
<path d="M79.9445 45.9384C79.3341 46.0241 78.9852 46.5385 78.5492 46.8813C75.7588 49.8815 73.7531 52.2817 71.573 55.539C70.9626 56.3105 70.3522 57.1677 69.829 57.9392C69.6546 57.5106 69.4802 57.1677 69.3058 56.7391C69.2186 56.5677 69.1314 56.3105 68.8698 56.1391C68.0849 55.539 67.0385 56.482 67.5617 57.2534C68.0849 58.1963 68.0849 58.2821 68.4338 59.0536C68.521 59.3964 68.6954 59.7393 68.8698 60.0822C69.0442 60.8537 70.1778 61.2823 70.7882 60.4251C71.573 58.7107 72.7939 57.1677 73.7531 55.539C75.4099 52.9674 76.8924 51.3388 78.898 48.9386C79.3341 48.51 79.6829 48.0814 80.1189 47.6528C80.5549 47.2242 80.4677 47.5671 80.7293 46.9671C80.9909 46.5385 80.5549 45.9384 79.9445 45.9384Z" fill="white"/>
</g>
<g opacity="0.1294">
<path d="M69.6569 73.9699C69.2209 72.9412 67.564 73.2841 67.6512 74.3985C67.6512 75.1699 67.3896 76.2843 67.0408 77.5701C66.6048 78.3416 67.2152 79.2845 68.0873 79.0273C68.5233 78.9416 68.7849 78.4273 68.9593 77.9987C69.1337 77.5701 69.5697 76.2843 69.7441 75.1699C69.6569 74.8271 69.8313 74.3985 69.6569 73.9699Z" fill="white"/>
</g>
<g opacity="0.1294">
<path d="M48.2908 79.4536C48.2036 79.4536 48.2036 79.3679 48.2036 79.3679C47.942 79.1964 46.3724 77.9964 46.3724 77.8249C46.0236 77.2249 46.0236 77.1392 45.7619 76.1963C45.6747 75.9391 45.6747 75.5962 45.5003 75.4248C44.9771 74.6533 43.6691 75.2533 43.9307 76.1963C44.1051 77.2249 44.3667 78.425 45.2387 79.1964C46.1108 79.9679 46.4596 80.2251 47.07 80.6537C47.5932 80.9966 48.4652 81.5109 48.9012 80.7394C49.1628 80.2251 48.814 79.7108 48.2908 79.4536Z" fill="white"/>
</g>
<g opacity="0.1294">
<path d="M96.8634 76.971C96.689 76.4567 96.0786 76.1996 95.5554 76.4567C95.1194 76.7139 95.0321 77.3139 94.8577 77.7425C94.8577 77.8282 94.7705 77.914 94.7705 78.0854C94.6833 78.1711 94.5961 78.3426 94.4217 78.5997C94.0729 79.0283 93.3753 79.8855 92.4161 80.657C91.108 81.7713 90.5848 82.2857 88.8408 82.9714C87.6199 83.4857 84.1318 84.2572 83.347 84.1715C81.4286 84.2572 80.4693 84.0001 79.1613 83.8286C77.4173 83.4857 75.8476 82.7143 74.1908 82.1142C73.6676 81.9428 73.1443 81.5999 72.6211 81.6856C71.7491 81.7713 71.6619 83.0571 72.5339 83.2286C74.4524 83.8286 76.1964 84.6858 78.1149 85.2001C79.2485 85.4573 80.3821 85.4573 81.4286 85.6287C82.6494 85.8002 83.8702 85.6287 85.0911 85.543C86.6607 85.3716 88.3176 85.1144 89.8 84.4287C90.0616 84.2572 90.4104 84.1715 90.672 84.0001C90.7592 84.1715 90.9336 84.2572 91.108 84.2572C91.5441 84.3429 91.8929 84.0858 92.2417 83.9143C92.9393 83.5715 93.5497 83.1429 94.0729 82.6286C94.945 81.5999 95.6426 80.3141 96.1658 79.0283C96.253 78.8569 96.3402 78.6854 96.4274 78.514C96.689 77.9997 96.9506 77.4854 96.8634 76.971Z" fill="white"/>
</g>
<g opacity="0.1294">
<path d="M84.1325 95.3988C83.8709 95.2273 83.5221 95.2273 83.2605 95.3131C82.3012 95.4845 82.6501 95.3988 81.6908 95.4845C78.9876 95.7417 76.2843 95.5702 73.581 95.3131C71.0521 95.1416 68.5233 94.8845 65.9072 94.713C64.512 94.6273 64.1631 94.4559 62.5063 94.1987C62.1575 94.113 61.8959 93.9415 61.5471 94.0273C60.3262 94.113 60.239 95.9131 61.3727 96.1703C62.6807 96.5131 64.0759 96.7703 65.384 96.9417C67.564 97.1989 69.8313 97.1132 72.0114 97.2846C74.2786 97.3703 76.6331 97.5418 78.9004 97.4561C81.1676 97.2846 81.4292 97.1989 83.7837 97.0275C84.6557 96.9417 84.8301 95.8274 84.1325 95.3988Z" fill="white"/>
</g>
<path d="M71.0482 8.39221C70.0018 7.70645 68.9553 6.84925 68.1705 5.90633C67.2985 4.87769 66.6881 3.67762 66.5137 2.56326C66.5137 2.47754 66.5137 2.47754 66.6009 2.47754C66.7753 2.47754 66.7753 2.56326 66.7753 2.64898C66.9497 3.76334 67.4729 4.87769 68.3449 5.82061C69.1297 6.76353 70.1762 7.53501 71.1354 8.22077C71.2226 8.22077 71.2226 8.30649 71.1354 8.39221C71.1354 8.39221 71.1354 8.39221 71.0482 8.39221Z" fill="white"/>
<path d="M75.1503 9.67706C75.0631 9.67706 75.0631 9.67706 75.1503 9.67706C73.0575 8.47698 71.4006 6.67686 70.4414 4.53387C70.4414 4.44815 70.4414 4.44815 70.5286 4.36243C70.6158 4.36243 70.6158 4.36243 70.703 4.44815C71.6622 6.50542 73.3191 8.30554 75.2375 9.4199C75.3247 9.4199 75.3247 9.50562 75.2375 9.59134C75.1503 9.67706 75.1503 9.67706 75.1503 9.67706Z" fill="white"/>
<path d="M78.3786 10.1923C76.8962 9.33514 75.5881 8.22079 74.6289 6.93499C74.6289 6.84927 74.6289 6.84927 74.6289 6.76355C74.7161 6.76355 74.7161 6.76355 74.8033 6.76355C75.7625 8.04935 76.9834 9.1637 78.3786 9.93518C78.4658 9.93518 78.4658 10.0209 78.3786 10.1066C78.4658 10.1923 78.3786 10.1923 78.3786 10.1923Z" fill="white"/>
<path d="M60.3842 73.1663L58.4905 88.7888M51.3897 79.3206C50.9159 77.427 52.2418 74.3024 55.6504 75.0599C59.9111 76.0067 57.5437 81.2143 56.1238 81.2143M63.225 81.6877C61.3313 82.1611 59.4377 85.8537 63.225 87.3686C67.0123 88.8835 68.4325 85.0015 67.4857 83.5813" stroke="white" strokeWidth="0.4" strokeLinecap="round"/>
</svg>
