<svg xmlns="http://www.w3.org/2000/svg" xmlns:xlink="http://www.w3.org/1999/xlink" version="1.1" id="Layer_1" x="0px" y="0px" viewBox="0 0 138.09 133.35" style="enable-background:new 0 0 138.09 133.35;" xml:space="preserve">
    <style type="text/css">
        .st0{fill:#BEE8FF;}
        .st1{fill:none;stroke:#FFFFFF;stroke-width:3;stroke-miterlimit:10;}
    </style>
    <g>
        <path class="st0" d="M59.45,57.47c-4.61-0.66-19.2-26.12-26.28-38.96c2.78-0.05,5.62,0.27,8.44,1.01   c8.9,2.3,15.97,11.61,17.81,21.98C60.41,47.02,60.36,52.32,59.45,57.47z"/>
        <path class="st0" d="M100.98,81.35c-2.74-0.85-5.79-1.21-8.18-2.64c-9.28-5.56-14.62-15.41-14.9-25.66c0,0,8.15-4.16,14.18,7.28   s6.78,12.86,6.78,12.86S100.27,76.15,100.98,81.35z"/>
        <path class="st1" d="M135.69,42.87c-1.9-10.34-8.79-19.79-17.6-22.21c-15.19-4.19-30.9,3.83-37.62,19.18   c-1.87,4.27-2.68,8.78-2.57,13.21c0.28,10.25,5.62,20.1,14.9,25.66c2.39,1.43,5.44,1.79,8.18,2.64c0.03,0.01,0.06,0.01,0.08,0.02   c1.29,0.41,3.34,0.49,3.68,1.29c0.43,1.03-0.25,2.81-0.96,3.95c-0.82,1.35-1.65,2.69-2.5,4.03c-0.82,1.31-1.64,2.62-2.48,3.94   c-2.94,4.68-5.94,9.37-8.97,14.14c1.74,1.72,3.81,3.77,6.19,6.13c11.94-10.15,22.89-20.89,30.85-34.27   C133.76,69.01,138.28,56.89,135.69,42.87z"/>
        <path class="st1" d="M59.42,41.5c-1.84-10.37-8.91-19.68-17.81-21.98c-2.82-0.74-5.66-1.06-8.44-1.01   C21.01,18.75,9.81,26.28,4.35,38.6c-6.27,14.17-1.28,30.66,12.08,38.91c2.5,1.54,5.67,2.36,8.63,2.74   c4.15,0.54,4.92,1.57,2.67,5.16c-4.6,7.31-9.26,14.6-14.12,22.24c1.82,1.54,4.02,3.42,6.69,5.71c13.47-11.7,26.3-24.4,34.32-41.21   c2.3-4.81,3.96-9.68,4.83-14.68C60.36,52.32,60.41,47.02,59.42,41.5z"/>
    </g>
    </svg>