<svg width="150" height="150" viewBox="0 0 150 150" fill="none" xmlns="http://www.w3.org/2000/svg">
    <path d="M139.152 57.7347H130.794C130.242 57.7347 129.794 58.1825 129.794 58.7347V61.3426C129.794 61.8887 130.233 62.3316 130.778 62.3584C136.304 62.6298 140.587 64.4976 139.526 69.7888C138.844 73.1911 129.045 71.5108 129.045 71.5108" stroke="#5A5A5A" strokeLinecap="round"/>
    <path d="M78.7461 66.604C80.0469 66.8405 82.2229 66.675 80.52 64.1206" stroke="#5A5A5A"/>
    <path d="M67.7478 80.4403C68.3391 81.3864 69.6636 83.2785 70.2312 83.2785M73.0694 91.7931C73.779 91.7931 75.1981 91.5802 75.1981 90.7288M72.7147 92.5026C73.5425 92.5026 75.269 92.3607 75.5528 91.7931M62.4262 93.9217C62.4262 93.5669 62.4262 90.0192 63.1358 90.0192M62.4262 104.92C62.4262 101.963 62.6391 95.5537 63.4905 93.5669M53.2021 129.399C53.2021 129.281 53.273 129.115 53.5569 129.399M52.8473 128.335C53.3203 128.453 54.2664 128.761 54.2664 129.044M53.2021 127.27C53.6751 127.389 54.6212 127.554 54.6212 127.27M53.2021 124.787C53.6751 124.787 54.6212 124.858 54.6212 125.142M53.2021 123.723L54.6212 124.432M57.1046 124.432H58.1689M63.4905 130.109H64.5548M52.1378 112.015C52.0195 115.445 51.9249 122.304 52.4925 122.304M53.9113 117.692C53.793 119.347 53.6984 122.658 54.2661 122.658M50.0088 100.662C50.0088 107.758 50.1507 122.02 50.7183 122.304M65.2641 81.1499C65.6188 81.8594 66.1865 83.3495 65.6188 83.6333M66.3284 81.5046C66.5649 83.515 66.967 87.6777 66.6832 88.2453M67.3927 81.8594C67.6292 85.7619 68.0313 93.6379 67.7475 93.9217M93.2912 116.982H94.7103" stroke="#5A5A5A" strokeWidth="0.3"/>
    <path d="M56.0412 68.7328C55.8047 69.4423 55.4736 70.8614 56.0412 70.8614M57.4601 66.6041C57.1053 67.5502 56.4667 69.4423 56.7505 69.4423M52.848 74.7639C53.2028 75.5917 54.0542 77.2473 54.6219 77.2473M51.7837 76.183C51.3107 77.4839 50.5065 80.2274 51.0741 80.7951M62.4264 80.4403C63.3725 80.3221 65.2646 80.0146 65.2646 79.7308" stroke="#5A5A5A" strokeWidth="0.3"/>
    <path d="M90.8091 52.413C90.5726 53.5956 90.2415 56.3156 90.8091 57.7347C91.5187 59.5085 91.5184 60.5728 90.0994 60.9276C89.6689 61.0352 89.2385 61.4692 88.7784 61.9919M79.8109 59.8633C80.2115 60.3783 80.9222 61.1924 81.7741 61.9919M86.5516 60.5728C86.8536 61.1641 87.7217 62.2758 88.7784 61.9919M88.7784 61.9919C87.7215 63.1928 86.5079 64.8621 84.7777 64.1206C83.7524 63.6811 82.6829 62.8448 81.7741 61.9919M87.9707 55.2512C88.0692 55.202 88.1914 55.1486 88.3256 55.1001M89.7446 55.2512C89.6172 54.9966 89.3423 54.9228 89.0351 54.9402M86.9064 53.8321C87.5899 53.3591 89.1145 52.6259 89.7446 53.4774M76.9727 57.0251C76.7344 57.2158 76.3885 57.4832 76.0419 57.7347M81.7741 61.9919C81.7741 61.9919 81.3295 62.9985 80.5202 63.8128M81.2296 53.8321C81.0448 53.8732 80.8471 53.9364 80.66 54.0232M81.2296 57.0251C80.945 56.8037 80.7106 56.595 80.5202 56.3985M81.2296 53.1226C81.6366 52.7156 82.2844 52.1466 83.0035 51.6529M85.8417 50.6392C85.0331 50.4775 83.9558 50.9991 83.0035 51.6529M83.0035 51.6529C85.6052 52.6158 91.1633 53.6193 92.5824 49.9296C94.3562 45.3176 86.906 42.8342 83.713 43.5437C81.2056 44.1009 76.2918 45.0957 74.9847 49.4491M80.5202 56.3985C79.4796 57.1587 77.5234 57.8658 76.1064 56.3985M80.5202 56.3985C79.2987 55.1377 79.8897 54.3805 80.66 54.0232M74.9847 49.4491C74.6273 50.6392 74.5395 52.0803 74.8441 53.8321C75.1468 55.0434 75.5909 55.8648 76.1064 56.3985M74.9847 49.4491C73.9916 48.8997 71.7218 48.3686 70.5865 50.6392C69.1674 53.4774 71.6509 57.0251 72.7152 57.0251C73.5666 57.0251 75.3307 56.6074 76.1064 56.3985M76.0419 57.7347C75.5285 58.1071 75.0135 58.4442 74.8441 58.4442C74.4893 58.4442 76.2632 64.8301 78.3918 64.8301C78.7048 64.8301 78.9989 64.7688 79.2728 64.6641M76.0419 57.7347C75.4061 57.6164 73.8506 57.7346 72.7152 59.1537M72.7152 59.1537C71.2959 60.9276 74.5309 67.3135 76.1064 67.3135C77.0584 67.3135 77.8197 67.3218 78.3918 66.7386M72.7152 59.1537C69.3885 58.7989 64.2009 59.8633 59.9437 62.7015C56.5378 64.972 54.5038 71.216 53.9125 74.0542M79.2728 64.6641C79.0599 65.7214 78.7664 66.3568 78.3918 66.7386M79.2728 64.6641C79.7524 64.4808 80.1704 64.1648 80.5202 63.8128M78.3918 66.7386C79.0442 66.6937 80.2414 66.8168 79.8109 67.6683C79.3491 68.5817 80.2333 74.7214 77.6766 76.8924M71.2959 78.6663C71.4141 78.548 72.5418 78.1696 76.1064 77.602C76.7381 77.5014 77.2543 77.251 77.6766 76.8924M71.2959 78.6663C70.2315 77.7202 68.2448 75.5443 68.8124 74.409C69.522 72.9899 73.0706 69.0874 70.9415 67.3135M71.2959 78.6663C73.4247 81.741 77.6115 88.1033 77.3276 88.9547C76.9727 90.0191 76.6179 95.6954 72.7152 93.212C72.3608 91.0834 75.5541 90.0191 74.1346 88.9547C73.2582 88.2976 70.743 85.3441 68.8124 82.9973M71.2959 78.6663C69.4897 77.7635 68.4507 80.1792 67.3108 81.1497M63.4913 69.4422C62.9 71.8073 62.0722 76.7505 63.4913 77.602C64.0363 77.9289 64.4138 78.4568 64.7165 79.0211M67.3108 81.1497C67.1068 81.3233 66.8997 81.4506 66.6844 81.5045C66.1806 81.6304 65.8556 81.3093 65.5667 80.7949M67.3108 81.1497C67.7219 81.6625 68.2416 82.3033 68.8124 82.9973M77.6766 76.8924C78.6243 78.548 81.0163 81.6464 83.0035 80.7949C83.271 80.6803 83.5056 80.5369 83.713 80.3717M80.5202 63.8128C81.2295 63.8599 82.2944 68.7326 81.7741 71.9256C81.2538 75.1185 87.9707 75.4733 86.5516 75.8281C86.2493 75.9037 86.0275 76.1241 85.8417 76.4345M85.8417 76.4345C89.1531 75.5228 95.9178 73.8414 96.4854 74.409C97.0092 74.9328 97.7747 77.511 98.1686 79.0211M85.8417 76.4345C85.2489 77.4246 85.0213 79.3301 83.713 80.3717M93.2924 79.3758C94.0025 80.4402 95.0663 76.4345 95.0663 77.602C95.0663 78.0373 95.5289 78.4084 96.1306 78.7009M93.2924 79.3758C92.924 78.8235 93.0334 78.1419 93.2527 77.602M93.2924 79.3758C93.0558 96.405 92.5824 130.676 92.5824 131.528C92.5824 132.379 94.0018 131.882 94.7115 131.528C94.8298 119.82 94.9953 94.5602 94.7115 87.1809C94.4277 79.8016 95.5393 78.4528 96.1306 78.7009M93.6472 76.8924C93.5225 77.0586 93.3715 77.3095 93.2527 77.602M83.713 80.3717L93.2527 77.602M68.8124 82.9973L69.5226 121.239C67.4027 121.911 64.071 122.701 60.4943 123.069M53.9125 74.0542C55.2023 75.9464 59.1688 79.5887 64.7165 79.0211M53.9125 74.0542C53.1141 74.0221 52.4079 74.3339 51.7839 74.9322M64.7165 79.0211C65.0494 79.6414 65.2917 80.3056 65.5667 80.7949M51.7839 74.9322C45.5239 80.9336 47.5266 115.755 47.5266 121.239C49.1191 122.225 51.0847 122.794 53.2029 123.069M51.7839 74.9322C53.2388 77.7142 58.0323 82.7817 65.5667 80.7949M53.2029 123.069V127.625M53.2029 123.069C54.4652 123.232 55.7816 123.292 57.1055 123.273M53.2029 127.625C53.0418 128.109 52.8038 129.086 52.7583 130.109M53.2029 127.625C53.4887 127.911 54.1428 128.289 54.8314 127.98M57.4602 127.27L57.1055 123.273M57.4602 127.27C57.7614 127.294 58.127 127.335 58.5246 127.397M57.4602 127.27C57.1419 127.058 56.3663 126.827 55.5951 127.397M57.1055 123.273C58.2394 123.257 59.3788 123.183 60.4943 123.069M60.4943 123.069V126.916M60.4943 126.916C59.8377 127 58.5246 127.214 58.5246 127.397M60.4943 126.916C61.2568 127.743 63.3495 129.328 65.62 129.044C67.1735 128.85 67.3763 129.641 67.16 130.463M58.5246 127.397C60.1562 127.652 62.3254 128.258 62.7818 129.399C62.9329 129.777 63.0679 130.138 63.0807 130.463M61.9097 131.622C60.5917 131.981 57.9336 132.02 52.8482 131.528C52.7577 131.075 52.7369 130.587 52.7583 130.109M61.9097 131.622L66.6844 131.528C66.8711 131.229 67.0602 130.843 67.16 130.463M61.9097 131.622C62.8353 131.369 63.1001 130.959 63.0807 130.463M97.5497 76.4345C98.9688 76.3507 101.594 77.1053 100.743 80.7949C99.8912 83.0655 98.6718 80.5584 98.1686 79.0211M98.1686 79.0211C98.2015 79.1474 98.2319 79.2663 98.2593 79.3758C97.6911 79.2679 96.8196 79.0359 96.1306 78.7009M52.7583 130.109C55.9439 130.345 62.4683 130.747 63.0807 130.463M63.0807 130.463C63.1239 130.747 65.8182 130.582 67.16 130.463M54.8314 127.98C54.9977 127.905 55.166 127.791 55.3316 127.625C55.4189 127.538 55.507 127.462 55.5951 127.397M54.8314 127.98C55.1164 128.453 55.7573 129.328 56.0411 129.044C56.325 128.76 55.8621 127.828 55.5951 127.397M81.2301 55.606C80.9683 55.2603 80.4877 54.4599 80.66 54.0232M88.3256 55.1001C88.0891 55.6235 87.829 56.5993 88.6804 56.3155C89.5317 56.0317 89.2716 55.2804 89.0351 54.9402M88.3256 55.1001C88.5466 55.0202 88.8003 54.9536 89.0351 54.9402" stroke="#5A5A5A" strokeLinecap="round"/>
    <path d="M15.3587 49.5904C13.0908 40.0018 18.7032 30.3105 28.1486 27.5052L28.6286 27.3627C36.5888 24.9985 44.8099 23.624 53.1061 23.2701L53.7506 23.2426C63.365 22.8325 72.9867 23.8583 82.2985 26.286C86.7691 27.4515 91.1505 28.9356 95.4091 30.7268L96.673 31.2584C102.314 33.631 107.758 36.4464 112.954 39.6783L117.447 42.4726L128.876 51.7588L104.675 41.5793L96.4053 38.5769L88.4617 35.9191L84.9775 34.866C73.6203 31.4332 61.6796 30.3668 49.8938 31.7328L49.0831 31.8268C44.2928 32.382 39.5644 33.3804 34.9586 34.8093L20.9098 39.1676C15.6118 40.8112 13.1698 46.9142 15.8715 51.7588L15.3587 49.5904Z" fill="#BEE8FF"/>
    <path d="M129.399 52.1934C91.9687 16.916 54.5163 16.599 17.6463 39.568" stroke="#5A5A5A" strokeLinecap="round"/>
    <path d="M128.691 52.0454C87.5371 21.193 50.2858 25.0826 16.2275 52.0454" stroke="#5A5A5A" strokeLinecap="round"/>
    <path d="M78.7458 54.5418C78.8641 55.3696 79.1715 57.0252 79.4554 57.0252M78.0363 55.2514C78.1545 55.8427 78.462 57.0252 78.7458 57.0252M77.3267 55.6061C77.445 56.0792 77.7525 57.0252 78.0363 57.0252M76.6172 55.2514C76.6172 55.8427 76.6881 57.0252 76.972 57.0252M73.779 53.8323C74.1338 54.6601 74.9143 56.3157 75.1981 56.3157M73.779 54.8966C73.8972 55.4879 74.2047 56.6705 74.4885 56.6705M73.0694 55.2514C73.306 55.8427 73.8499 57.0252 74.1338 57.0252M71.6503 50.9941C72.3599 50.4028 73.9918 49.3621 74.8433 49.9298M89.7438 46.0272C90.9264 47.0915 92.582 49.4331 89.7438 50.2845M75.5529 58.0895C75.9076 58.2078 76.6172 58.5153 76.6172 58.7991M76.2624 57.7348C76.7354 57.7348 77.7525 57.8057 78.0363 58.0895M79.4554 61.6373C79.6919 62.3468 80.3068 63.695 80.8745 63.4112M72.3599 60.573C72.9512 59.7452 74.1338 58.2314 74.1338 58.7991M80.5197 66.6041C80.7562 67.3137 81.1583 68.9456 80.8745 69.7971M79.8101 65.5398C80.1649 65.0668 80.8745 64.1917 80.8745 64.4755M84.777 79.0212C85.4865 78.903 87.0475 78.5955 87.6152 78.3117M96.1297 76.5378L97.1941 79.0212M97.9036 77.6021C98.4949 77.7204 99.6775 78.0988 99.6775 78.6664M97.5488 76.8926C97.9709 76.9893 98.8456 77.2665 98.9679 77.6021M94.0011 79.0212C93.8828 79.4942 93.7173 80.5822 94.0011 81.1499M78.391 77.2473C78.6276 76.7743 79.1715 75.8992 79.4554 76.183M78.7458 77.9569C79.1006 77.8386 79.8101 77.5312 79.8101 77.2473M79.4554 78.3117C79.5736 78.1934 79.8811 78.0278 80.1649 78.3117M72.0051 76.8926C72.3599 77.1291 73.0694 77.6731 73.0694 77.9569M70.2312 76.8926C70.9408 77.1291 72.3599 77.6731 72.3599 77.9569M65.6192 79.7308C66.0922 79.849 67.0383 80.0146 67.0383 79.7308M64.5549 78.6664C64.8387 78.6664 65.6192 78.6664 65.974 78.6664M63.1358 76.8926C63.6088 77.1291 64.6258 77.5312 64.9096 77.2473M62.4262 70.5066C62.6627 70.6249 63.1358 70.9324 63.1358 71.2162M62.0714 71.571C62.1897 71.9257 62.4972 72.6353 62.781 72.6353M61.7167 72.6353C61.9532 72.9901 62.4972 73.6286 62.781 73.3448M61.7167 73.6996C61.8349 74.1726 62.2133 75.1187 62.781 75.1187M61.0071 74.7639C61.4801 75.237 62.4972 76.1121 62.781 75.8282M61.0071 75.8282C61.8349 76.656 63.5615 78.2407 63.8453 77.9569M60.6523 77.2473C61.4801 77.6021 63.1358 78.3826 63.1358 78.6664" stroke="#5A5A5A" strokeWidth="0.3"/>
    </svg>
    