<svg xmlns="http://www.w3.org/2000/svg" xmlns:xlink="http://www.w3.org/1999/xlink" version="1.1" id="Layer_1" x="0px" y="0px" viewBox="0 0 200 200" style="enable-background:new 0 0 200 200;" xml:space="preserve">
    <style type="text/css">
        .st0{fill:#FFFFFF;}
        .st1{fill:#ACD4F7;}
        .st2{opacity:0.1294;}
    </style>
    <g>
        <path class="st0" d="M106.81,166.97c-5.83-0.04-11.66-0.19-17.49-0.43c0.3-33.79,0.2-67.65-0.67-101.49   c5.33-0.74,11.93-1.06,18.56-1.4C107.45,97.55,107.69,131.47,106.81,166.97z"/>
        <path d="M106.81,167.97C106.8,167.97,106.8,167.97,106.81,167.97c-5.82-0.04-11.71-0.19-17.53-0.43c-0.54-0.02-0.97-0.47-0.96-1.01   c0.34-37.61,0.12-70.8-0.67-101.46c-0.01-0.51,0.36-0.95,0.87-1.02c5.03-0.7,11.03-1.01,17.38-1.35l1.27-0.07   c0.27-0.01,0.54,0.08,0.74,0.27c0.2,0.19,0.31,0.45,0.32,0.73c0.24,33.38,0.48,67.86-0.41,103.36   C107.8,167.54,107.35,167.97,106.81,167.97z M90.34,165.57c5.14,0.21,10.34,0.33,15.49,0.38c0.85-34.76,0.62-68.55,0.39-101.25   L106,64.71c-5.93,0.31-11.56,0.6-16.32,1.21C90.44,96.08,90.66,128.7,90.34,165.57z"/>
    </g>
    <g>
        <path class="st0" d="M70.84,162.46c-5.83-0.04-11.66-0.19-17.49-0.43c0.3-33.79,0.2-67.65-0.67-101.49   c5.33-0.74,11.93-1.06,18.56-1.4C71.48,93.05,71.72,126.97,70.84,162.46z"/>
        <path d="M70.84,163.47C70.83,163.47,70.83,163.47,70.84,163.47c-5.82-0.04-11.71-0.19-17.53-0.43c-0.54-0.02-0.97-0.47-0.96-1.01   c0.34-37.62,0.12-70.81-0.67-101.46c-0.01-0.51,0.36-0.95,0.87-1.02c5.03-0.7,11.03-1.01,17.38-1.35l1.27-0.07   c0.27-0.01,0.54,0.08,0.74,0.27c0.2,0.19,0.31,0.45,0.32,0.73c0.24,33.36,0.48,67.85-0.41,103.36   C71.83,163.03,71.38,163.47,70.84,163.47z M54.37,161.07c5.14,0.21,10.35,0.33,15.49,0.38c0.85-34.76,0.62-68.55,0.39-101.25   l-0.22,0.01c-5.93,0.31-11.56,0.6-16.32,1.21C54.47,91.57,54.69,124.19,54.37,161.07z"/>
    </g>
    <g>
        <path class="st0" d="M144.25,162.46c-5.83-0.04-11.66-0.19-17.49-0.43c0.3-33.79,0.2-67.65-0.67-101.49   c5.33-0.74,11.93-1.06,18.56-1.4C144.89,93.05,145.13,126.97,144.25,162.46z"/>
        <path d="M144.25,163.47C144.25,163.47,144.24,163.47,144.25,163.47c-5.82-0.04-11.71-0.19-17.53-0.43   c-0.54-0.02-0.97-0.47-0.96-1.01c0.34-37.62,0.12-70.81-0.67-101.46c-0.01-0.51,0.36-0.95,0.87-1.02   c5.03-0.7,11.03-1.01,17.38-1.35l1.27-0.07c0.27-0.01,0.54,0.08,0.74,0.27c0.2,0.19,0.31,0.45,0.32,0.73   c0.24,33.36,0.48,67.85-0.41,103.36C145.24,163.03,144.79,163.47,144.25,163.47z M127.78,161.07c5.14,0.21,10.35,0.33,15.49,0.38   c0.85-34.76,0.62-68.55,0.39-101.25l-0.22,0.01c-5.93,0.31-11.56,0.6-16.32,1.21C127.88,91.57,128.1,124.19,127.78,161.07z"/>
    </g>
    <g>
        <path class="st0" d="M159.45,161.62c-0.05,6.3-0.22,12.59-0.51,18.88c-40.05-0.33-80.18-0.22-120.3,0.72   c-0.88-5.75-1.25-12.89-1.67-20.05C77.18,160.92,117.38,160.66,159.45,161.62z"/>
        <path d="M38.64,182.23c-0.5,0-0.92-0.36-0.99-0.85c-0.83-5.43-1.2-11.9-1.6-18.76l-0.08-1.38c-0.02-0.28,0.08-0.55,0.27-0.75   c0.19-0.2,0.45-0.32,0.73-0.32c39.53-0.25,80.4-0.52,122.5,0.44c0.55,0.01,0.99,0.46,0.98,1.01c-0.05,6.28-0.22,12.65-0.51,18.92   c-0.02,0.54-0.47,0.96-1.01,0.96c0,0-0.01,0-0.01,0c-44.6-0.36-83.94-0.13-120.27,0.72C38.66,182.23,38.65,182.23,38.64,182.23z    M38.04,162.18l0.02,0.33c0.37,6.44,0.72,12.54,1.45,17.7c35.83-0.83,74.61-1.06,118.47-0.71c0.25-5.61,0.4-11.28,0.46-16.89   C117.09,161.68,76.92,161.93,38.04,162.18z"/>
    </g>
    <g>
        <path class="st0" d="M173.69,179.38c-0.06,6.3-0.27,12.59-0.63,18.88c-49.36-0.33-98.83-0.22-148.27,0.72   c-1.08-5.75-1.54-12.89-2.05-20.05C72.28,178.69,121.83,178.43,173.69,179.38z"/>
        <path d="M24.79,200c-0.48,0-0.9-0.34-0.99-0.82c-1.03-5.44-1.48-11.92-1.97-18.79l-0.1-1.38c-0.02-0.28,0.08-0.55,0.27-0.76   c0.19-0.2,0.45-0.32,0.73-0.32c48.72-0.25,99.11-0.52,150.97,0.44c0.55,0.01,0.99,0.46,0.99,1.02c-0.06,6.28-0.28,12.65-0.63,18.93   c-0.03,0.53-0.47,0.95-1,0.95c0,0,0,0-0.01,0c-54.95-0.36-103.44-0.13-148.24,0.72C24.8,200,24.8,200,24.79,200z M23.82,179.95   l0.02,0.31c0.46,6.45,0.89,12.56,1.79,17.72c44.32-0.83,92.26-1.07,146.48-0.72c0.3-5.6,0.49-11.27,0.56-16.88   C121.56,179.44,71.88,179.69,23.82,179.95z"/>
    </g>
    <g>
        <path class="st0" d="M96.93,1.01c-7.24,0.42-12.37,4.5-19.14,9.9C59.31,25.62,42.74,41.56,27.46,57.77   c-1.85,1.96-3.8,4.36-2.79,6.67c1.31,2.98,6.35,3.52,10.39,3.54c40.91,0.16,81.82,0.33,122.72,0.49c3.59,0.01,7.4-0.02,10.42-1.52   c3.02-1.5,4.64-5.04,2.46-7.13c-20.33-18.8-35.82-33.94-58.37-51.15C107.93,5.33,102.97,1.82,96.93,1.01z"/>
        <path d="M164.98,69.04c-2.44,0.46-4.99,0.45-7.19,0.44L35.07,68.99c-6.4-0.03-10.1-1.38-11.31-4.14c-1.38-3.14,1.56-6.27,2.98-7.76   c17.28-18.35,33.78-33.71,50.43-46.97C83.95,4.71,89.31,0.44,96.88,0c0.06,0,0.13,0,0.19,0.01c6.22,0.84,11.24,4.35,15.85,7.86   c19.03,14.53,32.98,27.52,49.14,42.57c3.01,2.8,6.09,5.68,9.3,8.64c1.05,1.01,1.49,2.35,1.27,3.79c-0.31,1.98-1.86,3.94-3.97,4.99   C167.51,68.43,166.26,68.8,164.98,69.04z M94.55,2.31c-5.71,1.07-10.2,4.65-16.14,9.38c-16.57,13.2-33,28.5-50.22,46.77   c-1.79,1.9-3.34,3.88-2.6,5.58c0.58,1.32,2.69,2.91,9.47,2.94l122.72,0.49c3.15,0.01,7.06,0.03,9.97-1.41   c1.51-0.75,2.67-2.15,2.87-3.49c0.12-0.8-0.1-1.48-0.66-2.02c-3.19-2.95-6.28-5.83-9.29-8.63C144.57,36.9,130.65,23.94,111.7,9.47   c-4.37-3.33-9.11-6.65-14.8-7.46C96.09,2.07,95.31,2.17,94.55,2.31z"/>
    </g>
    <g>
        <path class="st1" d="M100.08,28.04c-6.31-1.1-13.03,3.33-14.25,9.4c-1.22,6.07,3.27,12.75,9.52,14.17   c6.25,1.42,13.2-2.67,14.74-8.67c0.42-1.64,0.48-3.37,0.17-5.05C109.33,32.81,104.7,28.85,100.08,28.04z"/>
        <path d="M97.92,52.9c-0.93,0-1.87-0.1-2.79-0.31c-6.81-1.54-11.61-8.71-10.28-15.35c1.33-6.63,8.54-11.4,15.41-10.19l0,0   c5.32,0.93,10.05,5.51,11,10.66c0.33,1.81,0.27,3.71-0.19,5.48C109.61,48.85,103.85,52.9,97.92,52.9z M98.14,28.88   c-5.2,0-10.33,3.81-11.33,8.76c-1.11,5.51,3.07,11.7,8.75,12.99c5.69,1.29,12.15-2.49,13.55-7.94c0.38-1.49,0.44-3.09,0.16-4.62   c-0.8-4.36-4.83-8.25-9.37-9.04C99.32,28.93,98.73,28.88,98.14,28.88z"/>
    </g>
    <g>
        <path d="M97.56,46.11c-0.51,0-0.99-0.06-1.45-0.17c-2.02-0.49-3.72-2.21-4.24-4.27c-0.5-1.99,0.11-4.29,1.54-5.84   c1.41-1.52,3.52-2.33,5.65-2.17l0,0c1.94,0.15,4.05,1.96,4.92,4.23c0.91,2.38,0.22,5.18-1.63,6.67c-0.69,0.55-1.55,0.96-2.62,1.25   C98.97,46.01,98.25,46.11,97.56,46.11z M98.55,34.33c-1.75,0-3.49,0.73-4.64,1.97c-1.29,1.39-1.83,3.44-1.38,5.22   c0.46,1.83,1.96,3.35,3.75,3.78c0.97,0.23,2.07,0.19,3.29-0.13c0.98-0.26,1.76-0.63,2.37-1.12c1.63-1.31,2.23-3.79,1.43-5.9   c-0.78-2.03-2.64-3.67-4.34-3.8l0,0C98.86,34.33,98.7,34.33,98.55,34.33z"/>
    </g>
    <g>
        <path d="M41.88,175.03c-0.18,0-0.33-0.15-0.34-0.33c0-0.19,0.15-0.34,0.33-0.34l112.33-0.71c0,0,0,0,0,0   c0.18,0,0.33,0.15,0.34,0.33c0,0.19-0.15,0.34-0.33,0.34L41.88,175.03C41.88,175.03,41.88,175.03,41.88,175.03z"/>
    </g>
    <g>
        <path d="M27.66,195.25c-0.17,0-0.31-0.13-0.33-0.3c-0.02-0.18,0.11-0.35,0.29-0.37c10.99-1.27,22.07-1.35,32.78-1.43   c36.05-0.26,72.64-0.39,108.75-0.39c0.19,0,0.34,0.15,0.34,0.34c0,0.19-0.15,0.34-0.34,0.34c-36.11,0-72.7,0.13-108.75,0.39   c-10.69,0.08-21.75,0.16-32.7,1.43C27.69,195.25,27.67,195.25,27.66,195.25z"/>
    </g>
    <g class="st2">
        <path d="M159.02,175.11c-1.24-1.89-3.16-1.04-3.1-1.15c-0.34,0.01-0.68,0.03-1.01,0.11c-1.11,0.12-4.37,0.14-6.73,0.17   c-11.64-0.19-23.27-0.57-34.91-0.56c-3.81,0.05-7.6,0.53-11.42,0.6c-7.51,0.05-15.01,0.4-22.52,0.37   c-7.75-0.01-15.49-0.42-23.22-0.99c-5.21-0.18-10.42-0.04-15.62-0.21c-3.71-0.32-4.18,5.17-0.37,5.35   c7.32,0.25,14.67-0.09,21.98,0.59c7.95,0.25,15.92,0.04,23.86-0.19c5.65-0.19,11.3-0.48,16.95-0.51c4.1-0.1,8.18-0.6,12.28-0.52   c12.63,0.01,25.26,0.5,37.89,0.63c2.54-0.11,1.82,0.31,4.44,0C159.08,178.41,159.86,176.49,159.02,175.11z"/>
    </g>
    <g class="st2">
        <path d="M173.27,194.67c-0.34-1.31-1.76-1.98-3.01-1.68c-2.55,0.18-5.12,0.05-7.67,0.09c-3.41-0.02-6.82-0.28-10.23-0.34   c-4.39,0.05-8.77,0.06-13.15-0.05c-10.26-0.12-20.51-0.06-30.77-0.32c-5.42-0.04-10.83,0.09-16.25,0.17   c-4.22-0.07-8.44-0.06-12.65,0.15c-6.36-0.15-12.71-0.16-19.06,0.2c-5.44,0.21-10.89-0.02-16.33,0.3   c-5.52-0.05-11.03-0.18-16.55-0.08c-4.4-0.76-5.33,5.69-0.78,6c5.25,0.12,10.5-0.35,15.74-0.42c4.2-0.29,8.4-0.62,12.62-0.54   c7.62-0.21,15.22-0.65,22.85-0.53c4.21-0.13,8.41-0.61,12.63-0.37c13.99,0.24,27.99-0.25,41.98-0.29   c10.82,0.13,26.08-0.16,34.62,0.42c1.09,0.16,2.19,0.2,3.28,0.29c0.46,0.06,0.94,0.03,1.35-0.18   C173,197.11,173.57,195.79,173.27,194.67z"/>
    </g>
    </svg>