<svg viewBox="0 0 95 99" fill="none" xmlns="http://www.w3.org/2000/svg">
    <rect x="9.5" y="40.5" width="14" height="27" stroke="black"/>
    <path d="M25.4725 36.5C25.2238 38.75 23.3163 40.5 21 40.5H11C8.68372 40.5 6.77619 38.75 6.52746 36.5H25.4725Z" stroke="black"/>
    <path d="M56.4725 36.5C56.2238 38.75 54.3163 40.5 52 40.5H42C39.6837 40.5 37.7762 38.75 37.5275 36.5H56.4725Z" stroke="black"/>
    <path d="M87.4725 36.5C87.2238 38.75 85.3163 40.5 83 40.5H73C70.6837 40.5 68.7762 38.75 68.5275 36.5H87.4725Z" stroke="black"/>
    <rect x="40.5" y="40.5" width="14" height="27" stroke="black"/>
    <rect x="71.5" y="40.5" width="13" height="27" stroke="black"/>
    <path d="M6.5 84.5H26.5V72C26.5 69.5147 24.4853 67.5 22 67.5H11C8.51472 67.5 6.5 69.5147 6.5 72V84.5Z" stroke="black"/>
    <path d="M38.5 84.5H56.5V72C56.5 69.5147 54.4853 67.5 52 67.5H43C40.5147 67.5 38.5 69.5147 38.5 72V84.5Z" stroke="black"/>
    <path d="M69.5 84.5H87.5V72C87.5 69.5147 85.4853 67.5 83 67.5H74C71.5147 67.5 69.5 69.5147 69.5 72V84.5Z" stroke="black"/>
    <path d="M4.5 90C4.5 86.9624 6.96243 84.5 10 84.5H85C88.0376 84.5 90.5 86.9624 90.5 90V90.5H4.5V90Z" stroke="black"/>
    <path d="M0.5 94.5C0.5 92.2909 2.29086 90.5 4.5 90.5H90.5C92.7091 90.5 94.5 92.2909 94.5 94.5C94.5 96.7091 92.7091 98.5 90.5 98.5H4.5C2.29086 98.5 0.5 96.7091 0.5 94.5Z" stroke="black"/>
    <path d="M63 21.975C63 26.9594 58.0751 31 52 31C45.9249 31 41 26.9594 41 21.975C41 16.9906 49.4999 12 55.575 12C61.6501 12 63 16.9906 63 21.975Z" fill="white"/>
    <path d="M57.5 21.975C57.5 26.5771 52.6948 30.5 46.5 30.5C40.3052 30.5 35.5 26.5771 35.5 21.975C35.5 20.8796 35.9894 19.7402 36.8786 18.6254C37.766 17.5129 39.0271 16.4574 40.5006 15.5432C43.4546 13.7107 47.1738 12.5 50.2375 12.5C53.2558 12.5 55.0267 13.6709 56.0742 15.3797C57.148 17.1315 57.5 19.5124 57.5 21.975Z" stroke="black"/>
    <path d="M40.2452 3.05276C44.8993 -0.213219 51.1007 -0.21322 55.7547 3.05276L91.7556 28.3165C95.3548 30.8422 93.5676 36.5 89.1706 36.5H6.82934C2.43235 36.5 0.645243 30.8422 4.24443 28.3165L40.2452 3.05276Z" stroke="black"/>
    </svg>
    