<svg viewBox="0 0 92 93" fill="none" xmlns="http://www.w3.org/2000/svg">
    <path d="M27.499 10.0293C27.4992 36.5293 20.999 41.5293 47.999 56.0293" stroke="black"/>
    <path d="M47.4999 56.0383C75.4999 42.5383 70.9999 36.5383 70 10.0383C56.5 6.52912 51.0001 0.531675 49.5 1.0293C47.1272 1.81641 37.5 8.52958 26.4999 10.0383" stroke="black"/>
    <path d="M40 27.5293L46.3239 33.4015C46.7058 33.7561 47.2937 33.7598 47.6792 33.4092C51.8702 29.5969 59.3644 23.0293 60.5 23.0293" stroke="black"/>
    <path d="M13.1054 65.0293C16.6054 62.8626 27.1 58.3289 33.5 59.5289C41.5 61.0289 57.5 71.0291 67 73.0291C69.5 73.5291 67.5652 76.6347 66 77.5291C62.5 79.5291 39.5 78.5291 36.5 74.0291M70.5 70.0291C75.8333 66.6958 87 60.2291 89 61.0291C91.5 62.0291 91.5 63.0293 91.5 64.0293C91.5 67.635 67.5 91.5291 53.5 92.0291C39.5 92.5291 21.8132 82.5293 15.3132 86.0293M1 64.5289C2.5 62.6957 12.0714 61.0291 12.5 62.5291C14.5 69.5291 15 82.5291 15.5 88.5291C13.5 90.1958 8.7 93.1291 5.5 91.5291C2.3 89.9291 1.16667 72.8623 1 64.5289Z" stroke="black"/>
    <path d="M1.5 64.5293L6 63.0293L9 62.5293H12L13 68.5293L14 75.0293L15 88.5293L12.5 90.0293L10 91.0293L7.5 91.5293L5.5 91.0293L4 88.0293L3.5 85.0293L2 78.0293L1.5 64.5293Z" fill="white"/>
    </svg>
    