<svg width="150" height="150" viewBox="0 0 150 150" fill="none" xmlns="http://www.w3.org/2000/svg">
    <path d="M50.3713 28L65.6466 36.0195L82.0674 45.9484L113.764 63.133H115.673L137.822 73.062L137.058 73.8257H135.149L128.657 72.2982L121.401 68.8613L113.764 65.0425L111.854 64.6606L80.158 50.1491L50.7532 32.9645L15.2383 67.3337L50.3713 28Z" fill="#BEE8FF"/>
    <path d="M39.6787 109.341H41.075L44.8938 108.959H49.8582L60.5509 109.341H70.0979H75.4443L78.8812 108.959H80.4087L80.4089 112.396L80.7908 115.833L39.9295 114.687V114.687C40.1817 112.921 40.1003 111.122 39.6895 109.386L39.6787 109.341Z" fill="#BEE8FF"/>
    <path d="M91.6152 84.5182V82.9907L96.9616 84.9001V86.8095V87.9552V89.1008L97.3434 94.0653L91.6152 93.6834L92.379 88.7189L91.6152 84.5182Z" fill="#BEE8FF"/>
    <path d="M99.6338 86.0459L99.252 84.1365L101.161 84.5184H102.307L102.689 85.664V86.8096V88.3372V89.8647L103.071 93.3016L99.6338 93.6835L100.016 91.0103V88.3372L99.6338 86.0459Z" fill="#BEE8FF"/>
    <path d="M61.0624 77.6444C61.0624 84.5182 61.1388 98.5715 61.4443 99.7935M62.208 77.6444C65.8996 77.0079 73.8172 76.0405 75.9557 77.2625M76.7195 78.4082C76.5922 84.7729 76.414 97.8078 76.7195 99.0298M62.208 100.175C66.6633 100.303 75.7266 100.481 76.3376 100.175M68.7 78.4082C68.4454 84.7729 68.089 97.655 68.7 98.266M62.9718 84.9002C66.7906 84.7729 74.581 84.4419 75.192 84.1364M37.3858 108.577C51.0062 108.577 78.4762 108.577 79.3927 108.577M39.6771 114.687C61.7155 115.394 104.944 116.559 114.144 116.001M115.671 115.833C115.399 115.901 114.881 115.956 114.144 116.001M116.435 116.214C121.781 115.578 132.474 114.229 132.474 113.923M132.856 107.813C132.601 109.595 132.169 113.236 132.474 113.541M117.199 110.104C119.49 109.468 125.677 108.271 132.092 108.577M115.671 107.431C119.617 107.049 128.121 106.286 130.565 106.286M117.581 111.632C117.199 112.905 116.512 115.451 116.817 115.451M113.762 112.014C114.017 113.272 114.449 115.83 114.144 116.001M81.684 110.104C92.3766 110.614 113.838 111.403 114.144 110.486C114.449 109.57 114.271 108.831 114.144 108.577M82.0658 107.049C89.5762 106.449 105.819 105.457 110.707 106.286M91.6129 84.1364C91.231 87.1915 90.62 93.4543 91.231 94.0653M91.6129 83.3727C92.3766 83.3727 97.3411 83.3727 97.3411 84.9002C97.3411 86.1222 97.3411 91.5195 97.3411 94.0653M99.6324 86.4277C99.6324 88.5917 99.6324 93.0724 99.6324 93.6834M99.6324 84.9002C100.651 84.7729 102.764 84.6711 103.069 85.2821C103.375 85.8931 103.197 90.883 103.069 93.3016M104.215 64.6605C104.597 72.8073 105.131 89.8646 104.215 92.9197M83.9752 94.8291C92.122 94.5745 108.95 94.1417 111.089 94.4472M83.5934 95.211C83.7207 97.7568 83.8989 103.154 83.5934 104.376M83.9752 94.4472C83.3388 94.1926 82.0658 93.8362 82.0658 94.4472C82.0658 95.211 81.3021 103.994 81.684 104.758M86.2665 95.9747C86.1392 98.3933 85.961 103.383 86.2665 103.994M88.1759 95.5929C88.1759 98.266 88.2523 103.689 88.5578 103.994M90.0853 95.5929C89.9581 98.266 89.7798 103.689 90.0853 103.994M91.9948 95.9747C92.122 98.6479 92.3003 104.071 91.9948 104.376M94.286 95.5929C94.0314 98.5206 93.675 104.452 94.286 104.758M95.8136 95.9747C96.0681 98.5206 96.5009 103.765 96.1954 104.376M97.723 95.9747C97.723 98.9025 97.7993 104.834 98.1048 105.14M99.6324 95.9747C99.7597 98.3933 99.9379 103.46 99.6324 104.376M101.924 95.5929C101.796 98.1387 101.618 103.46 101.924 104.376M103.833 96.3566C103.833 98.9025 103.833 104.223 103.833 105.14M106.506 95.5929C106.124 98.6479 105.513 104.834 106.124 105.14M107.652 96.7385C107.397 99.4117 106.964 104.758 107.27 104.758M109.561 95.5929C109.816 98.0114 110.249 103.078 109.943 103.994M127.128 73.8256C127.255 80.1903 127.586 93.1488 127.892 94.0653M118.345 85.2821C119.617 85.4094 122.163 85.8931 122.163 86.8096C122.163 87.9552 121.781 92.9197 122.163 92.9197M117.963 85.6639C117.581 88.0825 116.97 92.9961 117.581 93.3016M118.345 88.3371C119.236 88.0825 121.094 87.7261 121.4 88.3371M120.254 88.719C119.999 90.2465 119.643 93.3779 120.254 93.6834M115.671 95.211C120.254 94.8291 129.495 95.2873 131.328 95.5929M117.199 95.5929C117.326 99.1136 117.657 106.258 117.963 106.667M118.726 95.9747C118.981 98.9025 119.414 104.911 119.108 105.522M121.018 95.9747C121.4 95.9747 120.636 104.758 121.4 105.522M122.927 96.7385C123.098 99.539 123.503 105.216 123.756 105.522M125.218 95.9747C125.346 98.9025 125.677 104.834 125.982 105.14M127.51 96.3566C127.637 99.2844 127.968 105.14 128.273 105.14M129.801 96.3566C129.674 99.1571 129.572 104.911 130.183 105.522M130.947 97.5023C131.328 99.7935 131.939 104.529 131.328 105.14M130.947 76.4988C131.074 81.2087 131.405 90.8575 131.71 91.774M113.38 66.188C119.872 69.2431 133.773 76.0405 137.439 74.2075M114.144 67.7155L114.526 105.904M111.089 66.188L112.234 106.286M117.581 68.8612C117.708 69.6249 117.734 71.3052 116.817 71.9162C115.9 72.5272 115.926 73.6983 116.053 74.2075M117.581 72.2981C118.854 72.8073 121.476 73.7493 121.781 73.4438M121.781 70.7706C121.909 71.6616 122.087 73.5965 121.781 74.2075M120.254 70.0068V73.0619M118.345 70.0068C118.217 71.1525 118.039 73.4438 118.345 73.4438M32.0394 115.069C34.3307 115.196 38.9897 115.374 39.2952 115.069M18.2917 115.069C21.0922 115.069 26.7695 114.992 27.075 114.687C27.4569 114.305 31.2757 115.833 31.6576 114.305C31.9631 113.083 31.7849 112.777 31.6576 112.777M14.091 108.195C14.091 109.619 14.176 112.191 14.4729 113.66M14.8548 114.687C14.6996 114.532 14.574 114.16 14.4729 113.66M14.4729 113.66C15.364 113.66 17.2225 113.66 17.528 113.66M13.3273 104.758C13.2 105.649 13.1745 107.431 14.091 107.431C15.2367 107.431 21.729 107.049 22.8746 107.431M16.0008 105.522C19.8196 105.522 27.5336 105.445 27.8391 105.14M29.3666 104.758C30.1303 104.758 38.1492 104.758 39.2952 104.758M27.4572 106.667C30.0031 106.795 35.2476 106.973 35.8586 106.667C37.0803 106.973 39.1681 107.049 40.0593 107.049M23.2565 108.195C26.3115 108.422 32.8035 108.663 34.331 107.813M21.3471 110.486C24.5292 110.614 31.0463 110.715 31.6576 110.104M19.8196 112.014C23.0019 112.396 29.5193 113.007 30.1303 112.396M30.8941 112.396C31.7852 112.396 33.4909 112.166 33.1854 111.25M32.0394 110.486C33.0579 110.614 35.0948 110.639 35.0948 109.722M33.9492 108.577C34.7129 108.637 36.3168 108.569 36.6223 107.813M15.6189 82.6089C15.6189 86.555 15.6952 94.5236 16.0008 94.8291M23.6384 83.7545C23.893 86.9369 24.3258 93.6834 24.0203 95.211M27.8391 86.8096C29.7485 86.555 34.2547 86.1222 37.0042 86.4277M36.2404 86.8096C35.9859 89.9919 35.6294 96.433 36.2404 96.7385M32.0394 86.8096C31.7847 90.1192 32.0394 96.7385 32.0394 96.7385M28.2209 87.1915C28.3482 89.3555 28.5264 93.9126 28.2209 94.8291M30.5122 97.5023C32.549 97.5023 36.699 97.3495 37.0042 96.7385M15.237 96.7385C18.6739 96.4788 25.9297 95.999 27.4572 96.1579M15.6189 97.5023C15.237 99.7935 14.7024 104.452 15.6189 104.758M16.7645 97.5023C16.51 99.6663 16.1538 103.994 16.7645 103.994M18.6739 97.1204C18.5465 99.2844 18.2917 103.689 18.2917 103.994M19.9961 97.5023C19.8003 99.539 19.5262 103.689 19.9961 103.994M21.3471 97.1204C21.0925 99.2844 20.7361 103.689 21.3471 103.994M22.8746 97.5023C23.0019 99.539 23.1801 103.689 22.8746 103.994M24.0203 97.5023C24.1475 99.6663 24.3258 104.071 24.0203 104.376M25.5478 97.1204C25.4205 99.2844 25.2423 103.689 25.5478 103.994M26.6934 96.7385C26.6932 99.1571 26.7692 104.071 27.075 104.376M28.6028 95.9747C28.6028 96.1579 28.9847 104.34 28.6028 105.522M52.2794 34.8738C68.5728 44.6754 103.069 64.5077 110.707 65.4243" stroke="#5A5A5A"/>
    <path d="M80.5392 51.6765L80.9211 115.451M114.145 66.188L114.527 105.904M132.857 76.1169L133.239 105.522M12.9463 81.8451L13.3282 103.612M40.4417 77.6444L40.8236 107.431M40.4417 56.259V76.1169M76.7204 52.8221V69.6249M61.4452 70.3886H75.1929M61.4452 49.7671V69.243M62.2089 49.3852C63.7365 48.876 67.097 47.8577 68.319 47.8577M69.4647 48.6214C71.3741 49.5125 75.3456 51.6001 75.9566 52.8221M69.0828 49.7671C68.9555 55.8772 68.7773 68.2501 69.0828 68.8611M63.7365 56.259C67.0461 55.7499 73.9709 54.8843 75.1929 55.4953M51.1344 52.8221C50.8798 58.423 50.5234 69.9304 51.1344 71.1524M45.0243 59.696C47.8247 58.6776 53.8075 56.7937 55.3351 57.4047M56.8626 50.5308V73.8256M44.6424 74.2075L58.0082 73.0618M43.8786 60.8416V73.8256M43.8786 58.9322C45.788 56.8955 49.836 52.7457 50.7525 52.4402M45.0243 79.1719C47.5702 78.79 53.3493 78.2554 56.0988 79.1719M56.8626 78.4081V99.4116M45.0243 86.0458L55.3351 85.282M50.3706 79.5538C50.2433 85.9185 50.0651 98.8006 50.3706 99.4116M43.8786 80.3175C43.6241 86.0458 43.2676 97.8841 43.8786 99.4116M43.8786 100.175C46.1699 100.43 51.8218 100.634 56.0988 99.4116" stroke="#5A5A5A"/>
    <path d="M14.0911 81.4634C22.1106 81.0815 38.3788 80.2414 39.2953 79.9359M13.7092 80.3177C21.0923 79.554 36.3166 78.1028 38.1496 78.4083M12.9455 80.3177C12.4363 80.4451 11.4943 80.5469 11.7998 79.9359C12.1053 79.3248 11.6726 78.6629 11.418 78.4083M12.1817 78.4083C13.2934 78.3342 14.5878 78.2493 16.0005 78.1584M40.059 76.8808C36.6655 76.8808 24.2944 77.6243 16.0005 78.1584M24.7838 75.3533C22.3652 76.2553 17.2226 78.0792 16.0005 78.1584M25.9294 75.3533L39.6772 74.2076M32.8033 64.2787C32.5487 66.6973 32.1923 71.9163 32.8033 73.4439M37.7678 60.8418C37.895 64.0241 38.0733 70.6943 37.7678 71.9163M33.9489 65.8062C35.4765 65.4244 38.7606 64.737 39.6772 65.0425M32.8033 59.6961C29.8755 62.8785 23.8673 69.5487 23.2563 70.7707C22.4925 72.2982 24.02 74.5895 23.2563 74.9714M18.2918 68.0975C19.9466 68.3521 23.409 68.7849 24.02 68.4794M22.4925 71.5344C22.0337 70.9234 18.228 70.7707 16.3824 70.7707C15.7714 68.3266 14.8549 68.2248 14.473 68.4794M41.9684 55.1136C46.1691 50.0218 55.2579 39.6092 58.0074 38.6927M31.2758 56.6411C37.3859 50.4037 49.9116 37.6234 51.1336 36.4014M50.7517 33.7282C39.5499 45.1847 16.9934 68.403 16.3824 69.625M15.2368 67.7156C26.5659 54.4771 49.3769 28.0764 49.9879 28.3819M50.7517 28.3819C57.3324 31.9531 66.0026 36.6652 74.8102 41.4632M114.144 63.133C113.726 62.7146 93.9436 51.8862 74.8102 41.4632M95.0499 51.6766C104.47 50.531 123.538 48.3161 124.455 48.6216M74.8102 41.4632C80.5384 43.7221 92.6822 48.7743 95.4318 50.9129M124.455 49.7672C121.909 52.4404 116.893 57.9395 117.199 58.5505M121.4 55.1136C122.673 58.9324 125.371 66.57 125.982 66.57M125.6 50.531C127.637 55.6227 131.71 66.1117 131.71 67.3337M112.235 61.2236C120.509 65.297 137.21 73.4438 137.821 73.4438M108.798 59.3142C111.343 59.4415 116.435 59.6197 116.435 59.3142M118.345 63.133C118.854 62.6239 120.101 61.8347 121.018 62.7512C121.934 63.6677 122.418 64.6606 122.545 65.0425M39.6772 108.959C39.6772 110.614 39.7535 113.923 40.059 113.923" stroke="#5A5A5A"/>
    </svg>
    