<svg xmlns="http://www.w3.org/2000/svg" xmlns:xlink="http://www.w3.org/1999/xlink" version="1.1" id="Layer_1" x="0px" y="0px" viewBox="0 0 200 200" style="enable-background:new 0 0 200 200;" xml:space="preserve">
    <style type="text/css">
        .st0{fill:#FFFFFF;}
        .st1{fill:#ACD4F7;}
        .st2{opacity:0.1294;}
    </style>
    <g>
        <g>
            <g>
                <g>
                    <path class="st0" d="M46.54,155.32c0.65,0.37,1.31,0.73,1.97,1.08c-0.4,0.63-0.73,1.31-0.98,2.02      c-0.67-0.36-1.33-0.72-1.99-1.09C45.81,156.63,46.15,155.95,46.54,155.32z"/>
                    <path class="st0" d="M72.23,147.61c-1.32,0.52-3.9,1.2-6.9,1.99c-1.31,0.34-2.77,0.73-4.26,1.14c-1.05,0.29-2.11,0.59-3.15,0.9      c-0.06,0.01-0.11,0.03-0.17,0.05c0.02-0.03,0.04-0.06,0.07-0.08c-0.25-0.07-0.51-0.14-0.76-0.23c-0.93-0.27-1.86-0.59-2.79-0.95      c0.6-0.2,1.23-0.4,1.89-0.6c0.57-0.18,1.16-0.35,1.77-0.52h0.01c0.72,0.22,1.44,0.41,2.16,0.57c2.55-1.35,6.84-2.63,12.05-4.03      c-0.31-0.08-0.62-0.17-0.92-0.26c0.06-0.02,0.12-0.04,0.17-0.06c0.41-0.16,0.85-0.07,1.16,0.21h0.01      c0.09,0.08,0.17,0.18,0.22,0.29c0.03,0.04,0.05,0.09,0.07,0.13C73.09,146.73,72.8,147.39,72.23,147.61z"/>
                    <path class="st0" d="M103.18,162.21c-7.71,0.4-14.46,1.53-20.55,2.56c-3.44,0.59-6.61,1.12-9.51,1.43      c1.91-0.4,3.81-0.84,5.7-1.27c1.47-0.34,2.94-0.68,4.4-1C89.47,162.57,96.42,161.45,103.18,162.21z"/>
                </g>
                <g>
                    <path class="st0" d="M9.14,131.02c-1.22-0.22-2.37-0.28-3.43-0.18c-0.39,0.04-0.76,0.1-1.12,0.18      c-0.06,0.02-0.11,0.03-0.17,0.04c-0.06,0.01-0.12,0.03-0.18,0.05c-0.15,0.04-0.3,0.09-0.44,0.14c-0.11,0.03-0.21,0.07-0.31,0.11      c-0.1,0.04-0.2,0.08-0.29,0.12c-2.2,0.99-3.29,2.89-3,5.25c0,0.05,0,0.09,0.01,0.14c0.08,0.57,0.59,0.99,1.16,0.96      c0.04,0,0.08,0,0.11-0.01c0.62-0.09,1.04-0.66,0.95-1.27c-0.2-1.41,0.37-2.43,1.69-3.02c0.12-0.06,0.26-0.11,0.4-0.16      c0.02,0,0.03,0,0.05-0.01c0.06-0.02,0.12-0.04,0.18-0.06c0,0,0,0,0.01,0c0.07-0.03,0.14-0.05,0.21-0.06      c1.12-0.26,2.59-0.27,4.24,0.09c0.01,0,0.03,0.01,0.05,0.01c2.71,0.59,5.9,2.15,8.87,5.07c1.31,1.02,2.51,2.04,3.54,2.92      c0.73,0.62,1.38,1.17,1.92,1.6c1.25,0.99,2.53,1.97,3.86,2.94c-0.1-0.12-0.2-0.24-0.3-0.36c-1.64-1.97-3.56-4.27-5.84-6.96      c-0.55-0.66-1.13-1.27-1.72-1.84c0,0-0.01,0-0.01-0.01L9.14,131.02z"/>
                </g>
                <g>
                    <path class="st0" d="M27.23,133.83c0.19,0.24,0.38,0.48,0.58,0.73c-4.14-2.96-7.75-5.52-10.64-7.05      c-0.13-0.03-0.25-0.08-0.37-0.15c-0.05-0.03-0.1-0.06-0.14-0.11c-0.39-0.32-0.51-0.88-0.27-1.35c0.01-0.03,0.02-0.05,0.04-0.08      c0.33-0.53,1.02-0.69,1.55-0.37c0.11,0.07,0.22,0.14,0.33,0.21c0.34,0.21,0.67,0.42,0.98,0.63      C23.48,129.09,25.31,131.4,27.23,133.83z"/>
                    <path class="st0" d="M57.06,151.38c-0.93-0.27-1.86-0.59-2.79-0.95c-3.55-1.33-7.11-3.15-10.58-5.18      c1.12,0.37,2.25,0.73,3.37,1.08c3.28,1.04,6.4,2.02,9.1,3.5c0.14,0.07,0.28,0.14,0.41,0.22      C57.04,150.32,57.24,150.89,57.06,151.38z"/>
                </g>
            </g>
            <g>
                <path class="st0" d="M9.26,133.34c3,0.83,6.16,2.95,8.87,5.07C15.16,135.49,11.97,133.93,9.26,133.34z M4.97,133.24     c1.12-0.26,2.59-0.27,4.24,0.09C7.73,132.93,6.3,132.85,4.97,133.24z M171.28,128.37c-1.07-1.61-2.71-2.7-4.61-3.08     c-0.1-0.02-0.2-0.04-0.3-0.05c-2.68-0.42-5.28,0.69-6.85,2.71c-0.66,0.84-1.13,1.84-1.36,2.95c-0.38,1.87,0,3.78,1.05,5.37     c1.07,1.61,2.71,2.7,4.61,3.08c0.48,0.1,0.96,0.14,1.43,0.14c3.37,0,6.39-2.35,7.08-5.75     C172.71,131.87,172.34,129.96,171.28,128.37z M170.13,133.29c-0.54,2.67-3.17,4.4-5.87,3.86c-1.31-0.26-2.44-1.02-3.18-2.12     c-0.72-1.09-0.98-2.4-0.72-3.68c0.48-2.34,2.56-3.96,4.88-3.96c0.33,0,0.66,0.04,0.99,0.1c1.31,0.26,2.44,1.02,3.18,2.12     C170.13,130.71,170.39,132.01,170.13,133.29z M9.26,133.34c3,0.83,6.16,2.95,8.87,5.07C15.16,135.49,11.97,133.93,9.26,133.34z      M4.97,133.24c1.12-0.26,2.59-0.27,4.24,0.09C7.73,132.93,6.3,132.85,4.97,133.24z M192.06,166.06     c-0.03-0.02-0.06-0.02-0.09-0.02c-0.01,0-0.01,0-0.01,0c-0.2,0-0.37,0.16-0.37,0.37c0,0.24,0,0.47-0.01,0.71     c0,0.01,0,0.01,0,0.02c0,0.64-0.02,1.28-0.05,1.91c0.03-0.01,0.06-0.03,0.09-0.04c0.23-0.21,0.46-0.51,0.69-0.89     c0.02-0.57,0.03-1.14,0.03-1.71C192.34,166.24,192.22,166.1,192.06,166.06z M9.26,133.34c3,0.83,6.16,2.95,8.87,5.07     C15.16,135.49,11.97,133.93,9.26,133.34z M4.97,133.24c1.12-0.26,2.59-0.27,4.24,0.09C7.73,132.93,6.3,132.85,4.97,133.24z      M9.26,133.34c3,0.83,6.16,2.95,8.87,5.07C15.16,135.49,11.97,133.93,9.26,133.34z M4.97,133.24c1.12-0.26,2.59-0.27,4.24,0.09     C7.73,132.93,6.3,132.85,4.97,133.24z M56.47,161.66c-0.5-0.6-0.87-1.19-1.13-1.77c-2.32-1.13-4.6-2.29-6.83-3.49     c-0.4,0.63-0.73,1.31-0.98,2.02c3.82,2.04,7.8,4,11.87,5.84C58.34,163.59,57.37,162.73,56.47,161.66z M9.26,133.34     c3,0.83,6.16,2.95,8.87,5.07C15.16,135.49,11.97,133.93,9.26,133.34z M4.97,133.24c1.12-0.26,2.59-0.27,4.24,0.09     C7.73,132.93,6.3,132.85,4.97,133.24z M56.47,161.66c-0.5-0.6-0.87-1.19-1.13-1.77c-2.32-1.13-4.6-2.29-6.83-3.49     c-0.66-0.35-1.32-0.71-1.97-1.08c-7.99-4.4-15.29-9.19-21.55-14.15c-0.53-0.42-1.16-0.95-1.87-1.55     c-1.04-0.88-2.23-1.89-3.53-2.91c0.59,0.57,1.17,1.18,1.72,1.84c2.28,2.69,4.2,4.99,5.84,6.96c0.1,0.12,0.2,0.24,0.3,0.36     c5.45,4.01,11.54,7.87,18.09,11.46c0.66,0.37,1.32,0.73,1.99,1.09c3.82,2.04,7.8,4,11.87,5.84     C58.34,163.59,57.37,162.73,56.47,161.66z M9.26,133.34c3,0.83,6.16,2.95,8.87,5.07C15.16,135.49,11.97,133.93,9.26,133.34z      M4.97,133.24c1.12-0.26,2.59-0.27,4.24,0.09C7.73,132.93,6.3,132.85,4.97,133.24z M56.47,161.66c-0.5-0.6-0.87-1.19-1.13-1.77     c-2.32-1.13-4.6-2.29-6.83-3.49c-0.66-0.35-1.32-0.71-1.97-1.08c-7.99-4.4-15.29-9.19-21.55-14.15     c-0.53-0.42-1.16-0.95-1.87-1.55c-1.04-0.88-2.23-1.89-3.53-2.91c0.59,0.57,1.17,1.18,1.72,1.84c2.28,2.69,4.2,4.99,5.84,6.96     c0.1,0.12,0.2,0.24,0.3,0.36c5.45,4.01,11.54,7.87,18.09,11.46c0.66,0.37,1.32,0.73,1.99,1.09c3.82,2.04,7.8,4,11.87,5.84     C58.34,163.59,57.37,162.73,56.47,161.66z M9.26,133.34c3,0.83,6.16,2.95,8.87,5.07C15.16,135.49,11.97,133.93,9.26,133.34z      M4.97,133.24c1.12-0.26,2.59-0.27,4.24,0.09C7.73,132.93,6.3,132.85,4.97,133.24z M56.47,161.66c-0.5-0.6-0.87-1.19-1.13-1.77     c-2.32-1.13-4.6-2.29-6.83-3.49c-0.66-0.35-1.32-0.71-1.97-1.08c-7.99-4.4-15.29-9.19-21.55-14.15     c-0.53-0.42-1.16-0.95-1.87-1.55c-1.04-0.88-2.23-1.89-3.53-2.91c0.59,0.57,1.17,1.18,1.72,1.84c2.28,2.69,4.2,4.99,5.84,6.96     c0.1,0.12,0.2,0.24,0.3,0.36c5.45,4.01,11.54,7.87,18.09,11.46c0.66,0.37,1.32,0.73,1.99,1.09c3.82,2.04,7.8,4,11.87,5.84     C58.34,163.59,57.37,162.73,56.47,161.66z M18.13,138.41c-2.97-2.92-6.16-4.48-8.87-5.07C12.26,134.17,15.42,136.29,18.13,138.41     z M4.97,133.24c1.12-0.26,2.59-0.27,4.24,0.09C7.73,132.93,6.3,132.85,4.97,133.24z M150.03,140.77     c-0.25-2.05-0.91-4.9-1.64-7.82c-0.09-0.37-0.18-0.73-0.27-1.09c-0.38,0.11-0.74,0.2-1.09,0.28c-0.38,0.09-0.74,0.16-1.1,0.22     c-2.63,0.42-4.74,0.04-7.77-0.55c-10.46-2.04-18.73-4.1-29.13-0.95c-5.37,1.63-12.16,5.57-17.01,8.31     c-4.77,2.7-7.04,3.84-8.89,4.56c-1.89,0.75-3.34,1.04-6.6,2.11c-0.73-0.19-1.47-0.38-2.22-0.57c-7.44-1.97-15.72-4.44-22.44-8.1     c-9.52-5.2-19.08-11.31-21.9-12.85c-6.64-3.62-8.97-0.99-11.6,1.29c-0.02,0.02-0.04,0.03-0.06,0.05c-0.3,0.26-0.6,0.51-0.92,0.75     c-0.3-0.19-0.63-0.36-1-0.51c-0.08-0.04-0.17-0.08-0.26-0.11c-4.4-1.75-12.25-1.2-11.54,5.22v0.01c0,0.02,0.01,0.04,0.01,0.06     c0.12,1.03-0.55,1.35-1.32,1.89c-0.85,0.57-1.81,1.41-1.96,3.74c-0.02,0.35,0,0.72,0.05,1.12c1.16,7.91,18.16,24.11,32.14,34.31     c10.95,5.08,27.64,13.31,43.93,18.56c4.37,1.4,8.71,2.6,12.9,3.46c0.53,0.1,1.16,0.16,1.88,0.17c1.42,0.01,3.19-0.18,5.25-0.53     c11.98-2.06,33.52-9.74,51.29-16.44c0.39-0.15,0.77-0.29,1.16-0.44c0.07-0.03,0.15-0.06,0.23-0.09l0.96-0.36     c0.04-0.41,0.08-0.82,0.12-1.24C151.93,167.24,151.92,156.59,150.03,140.77z M19.57,126.05c2.4-2.11,4.3-3.78,9.87-0.74     c0.97,0.53,2.81,1.64,5.14,3.06c4.46,2.7,10.56,6.4,16.75,9.78c5.85,3.19,12.85,5.5,19.9,7.44c0.3,0.09,0.61,0.18,0.92,0.26     c-5.21,1.4-9.5,2.68-12.05,4.03c-0.72-0.16-1.44-0.35-2.16-0.57h-0.01c-9.72-2.88-19.9-10.18-28.19-16.12     c-3.92-2.81-7.39-5.3-10.33-7C19.46,126.14,19.52,126.1,19.57,126.05z M90.56,193.06c-4.21-0.87-8.6-2.08-13.02-3.52     c-13.95-4.52-28.26-11.25-38.57-16.09c-1.73-0.81-3.36-1.57-4.88-2.28c-15.64-11.43-32.07-27.95-31.65-34.39     c0.13-1.99,0.9-2.5,1.71-3.04c0.18-0.12,0.4-0.27,0.6-0.44c0,0,0,0,0.01,0c0.07-0.03,0.14-0.05,0.21-0.06     c1.12-0.26,2.59-0.27,4.24,0.09c0.01,0,0.03,0.01,0.05,0.01c3,0.83,6.16,2.95,8.87,5.07c1.31,1.02,2.51,2.04,3.54,2.92     c0.73,0.62,1.38,1.17,1.92,1.6c1.25,0.99,2.53,1.97,3.86,2.94c5.45,4.01,11.54,7.87,18.09,11.46c0.66,0.37,1.32,0.73,1.99,1.09     c3.82,2.04,7.8,4,11.87,5.84c2.53,1.63,5.54,2.22,9.04,2.22c1.47,0,3.03-0.1,4.68-0.28c2.9-0.31,6.07-0.84,9.51-1.43     c6.09-1.03,12.84-2.16,20.55-2.56c1.81-0.09,3.66-0.14,5.58-0.14c0.62,0,1.13-0.51,1.13-1.13s-0.51-1.12-1.13-1.12     c-10.29,0-19.28,1.52-26.51,2.74c-11.67,1.98-19.38,3.28-24.05-2.33c-1.86-2.24-1.47-4.11,1.57-7.43     c1.66-1.82,10.2-4.07,15.86-5.56c3-0.79,5.59-1.47,6.9-1.99c0.12-0.05,0.23-0.12,0.33-0.21c2.04-0.73,4.27-1.82,9.71-4.9     l0.88-0.49c4.63-2.63,10.97-6.22,15.9-7.71c9.34-2.84,16.8-1.36,26.24,0.5c0.77,0.16,1.56,0.31,2.35,0.47     c3.25,0.63,5.53,0.99,8.26,0.55c0.72,2.87,1.37,5.64,1.6,7.57c1.72,14.39,1.87,24.43,1.34,32.07c-0.07,1.05-0.16,2.06-0.25,3.02     C129.21,183.56,98.33,194.65,90.56,193.06z M4.97,133.24c1.12-0.26,2.59-0.27,4.24,0.09C7.73,132.93,6.3,132.85,4.97,133.24z      M9.26,133.34c3,0.83,6.16,2.95,8.87,5.07C15.16,135.49,11.97,133.93,9.26,133.34z M56.47,161.66c-0.5-0.6-0.87-1.19-1.13-1.77     c-2.32-1.13-4.6-2.29-6.83-3.49c-0.66-0.35-1.32-0.71-1.97-1.08c-7.99-4.4-15.29-9.19-21.55-14.15     c-0.53-0.42-1.16-0.95-1.87-1.55c-1.04-0.88-2.23-1.89-3.53-2.91c0.59,0.57,1.17,1.18,1.72,1.84c2.28,2.69,4.2,4.99,5.84,6.96     c0.1,0.12,0.2,0.24,0.3,0.36c5.45,4.01,11.54,7.87,18.09,11.46c0.66,0.37,1.32,0.73,1.99,1.09c3.82,2.04,7.8,4,11.87,5.84     C58.34,163.59,57.37,162.73,56.47,161.66z M4.97,133.24c1.12-0.26,2.59-0.27,4.24,0.09C7.73,132.93,6.3,132.85,4.97,133.24z      M9.26,133.34c3,0.83,6.16,2.95,8.87,5.07C15.16,135.49,11.97,133.93,9.26,133.34z M56.47,161.66c-0.5-0.6-0.87-1.19-1.13-1.77     c-2.32-1.13-4.6-2.29-6.83-3.49c-0.66-0.35-1.32-0.71-1.97-1.08c-7.99-4.4-15.29-9.19-21.55-14.15     c-0.53-0.42-1.16-0.95-1.87-1.55c-1.04-0.88-2.23-1.89-3.53-2.91c0.59,0.57,1.17,1.18,1.72,1.84c2.28,2.69,4.2,4.99,5.84,6.96     c0.1,0.12,0.2,0.24,0.3,0.36c5.45,4.01,11.54,7.87,18.09,11.46c0.66,0.37,1.32,0.73,1.99,1.09c3.82,2.04,7.8,4,11.87,5.84     C58.34,163.59,57.37,162.73,56.47,161.66z M4.97,133.24c1.12-0.26,2.59-0.27,4.24,0.09C7.73,132.93,6.3,132.85,4.97,133.24z      M9.26,133.34c3,0.83,6.16,2.95,8.87,5.07C15.16,135.49,11.97,133.93,9.26,133.34z M56.47,161.66c-0.5-0.6-0.87-1.19-1.13-1.77     c-2.32-1.13-4.6-2.29-6.83-3.49c-0.66-0.35-1.32-0.71-1.97-1.08c-7.99-4.4-15.29-9.19-21.55-14.15     c-0.53-0.42-1.16-0.95-1.87-1.55c-1.04-0.88-2.23-1.89-3.53-2.91c0.59,0.57,1.17,1.18,1.72,1.84c2.28,2.69,4.2,4.99,5.84,6.96     c0.1,0.12,0.2,0.24,0.3,0.36c5.45,4.01,11.54,7.87,18.09,11.46c0.66,0.37,1.32,0.73,1.99,1.09c3.82,2.04,7.8,4,11.87,5.84     C58.34,163.59,57.37,162.73,56.47,161.66z M4.97,133.24c1.12-0.26,2.59-0.27,4.24,0.09C7.73,132.93,6.3,132.85,4.97,133.24z      M9.26,133.34c3,0.83,6.16,2.95,8.87,5.07C15.16,135.49,11.97,133.93,9.26,133.34z M4.97,133.24c1.12-0.26,2.59-0.27,4.24,0.09     C7.73,132.93,6.3,132.85,4.97,133.24z M9.26,133.34c3,0.83,6.16,2.95,8.87,5.07C15.16,135.49,11.97,133.93,9.26,133.34z      M4.97,133.24c1.12-0.26,2.59-0.27,4.24,0.09C7.73,132.93,6.3,132.85,4.97,133.24z M9.26,133.34c3,0.83,6.16,2.95,8.87,5.07     C15.16,135.49,11.97,133.93,9.26,133.34z M192.8,125.24c0.05,0.12,0.1,0.25,0.15,0.38c1.06,2.86,2.68,8.16,3.7,16.04     C196.61,134.27,195.54,127.66,192.8,125.24z M4.97,133.24c1.12-0.26,2.59-0.27,4.24,0.09C7.73,132.93,6.3,132.85,4.97,133.24z      M9.26,133.34c3,0.83,6.16,2.95,8.87,5.07C15.16,135.49,11.97,133.93,9.26,133.34z M9.14,131.02c3.65,0.8,7.35,3.26,10.44,5.68     L9.14,131.02z M9.14,131.02c3.65,0.8,7.35,3.26,10.44,5.68L9.14,131.02z M9.14,131.02c3.65,0.8,7.35,3.26,10.44,5.68L9.14,131.02     z M9.14,131.02c-1.16-0.26-2.31-0.35-3.44-0.21c-0.17-1.72,0.37-2.95,1.63-3.76c2.48-1.59,7.13-1.13,9.47,0.31     c0.12,0.07,0.24,0.12,0.37,0.15c2.89,1.53,6.5,4.09,10.64,7.05c0.2,0.15,0.41,0.3,0.62,0.45c4.63,3.32,9.84,7.05,15.26,10.24     c3.47,2.03,7.03,3.85,10.58,5.18c0.93,0.36,1.86,0.68,2.79,0.95c0.25,0.09,0.51,0.16,0.76,0.23c-0.03,0.02-0.05,0.05-0.07,0.08     c-2.1,2.37-3.79,5.14-2.41,8.2c-2.32-1.13-4.6-2.29-6.83-3.49c-0.66-0.35-1.32-0.71-1.97-1.08c-7.99-4.4-15.29-9.19-21.55-14.15     c-0.53-0.42-1.16-0.95-1.87-1.55c-1.04-0.88-2.23-1.89-3.53-2.91c0,0-0.01,0-0.01-0.01L9.14,131.02z M9.14,131.02     c3.65,0.8,7.35,3.26,10.44,5.68L9.14,131.02z M9.14,131.02c3.65,0.8,7.35,3.26,10.44,5.68L9.14,131.02z M9.14,131.02     c3.65,0.8,7.35,3.26,10.44,5.68L9.14,131.02z"/>
                <path class="st0" d="M159.52,127.95c0.41-0.22,0.83-0.45,1.27-0.68c1.9-1.03,3.75-1.66,5.58-2.03     C163.69,124.82,161.09,125.93,159.52,127.95z M195.55,127.27c-0.55-1.19-1.17-2.06-1.81-2.68c-0.64-0.63-1.31-1.01-1.97-1.22     c0.4,0.58,0.75,1.2,1.03,1.87c0.05,0.12,0.1,0.25,0.15,0.38c1.06,2.86,2.68,8.16,3.7,16.04c0.32,2.49,0.59,5.23,0.76,8.24     c0.25-2.86,0.38-5.78,0.34-8.58v-0.04C197.71,135.7,197.06,130.56,195.55,127.27z M192.06,166.06c-0.15,0.41-0.31,0.75-0.48,1.06     c0,0.01,0,0.01,0,0.02c0,0.64-0.02,1.28-0.05,1.91c-0.01,0.41-0.04,0.83-0.06,1.24c0.19-0.07,0.39-0.16,0.59-0.24     c0.06-0.03,0.12-0.06,0.17-0.1c0.04-0.61,0.07-1.22,0.08-1.83c0.02-0.57,0.03-1.14,0.03-1.71     C192.34,166.24,192.22,166.1,192.06,166.06z M150.47,175.52c-0.14,0.05-0.28,0.1-0.43,0.16c-0.38,0.14-0.76,0.29-1.15,0.44     c-19.68,7.44-50.56,18.53-58.33,16.94c-4.21-0.87-8.6-2.08-13.02-3.52c-13.95-4.52-28.26-11.25-38.57-16.09     c-1.73-0.81-3.36-1.57-4.88-2.28c-15.64-11.43-32.07-27.95-31.65-34.39c0.13-1.99,0.9-2.5,1.71-3.04c0.18-0.12,0.4-0.27,0.6-0.44     c0,0,0,0,0.01,0c0.57-0.48,1.1-1.17,0.96-2.35c0-0.04-0.01-0.08-0.01-0.11c0-0.01,0-0.02-0.01-0.03     c-0.17-1.72,0.37-2.95,1.63-3.76c2.48-1.59,7.13-1.13,9.47,0.31c0.12,0.07,0.24,0.12,0.37,0.15c0.31,0.05,0.63-0.01,0.89-0.21     c0.44-0.32,0.84-0.67,1.23-1.01c0.04-0.03,0.08-0.07,0.12-0.1c0.05-0.05,0.11-0.09,0.16-0.14c2.4-2.11,4.3-3.78,9.87-0.74     c0.97,0.53,2.81,1.64,5.14,3.06c4.46,2.7,10.56,6.4,16.75,9.78c5.85,3.19,12.85,5.5,19.9,7.44c0.3,0.09,0.61,0.18,0.92,0.26     c0.21,0.06,0.43,0.12,0.64,0.18c1.16,0.3,2.31,0.61,3.46,0.9c0.21,0.05,0.43,0.04,0.63-0.03c1.38-0.45,2.43-0.76,3.33-1.02     c0.99-0.29,1.81-0.53,2.65-0.84c2.04-0.73,4.27-1.82,9.71-4.9l0.88-0.49c4.63-2.63,10.97-6.22,15.9-7.71     c9.34-2.84,16.8-1.36,26.24,0.5c0.77,0.16,1.56,0.31,2.35,0.47c3.25,0.63,5.53,0.99,8.26,0.55c0.36-0.06,0.73-0.14,1.11-0.23     c0.35-0.07,0.71-0.17,1.08-0.28c-0.09-0.37-0.18-0.73-0.27-1.09c-0.07-0.3-0.15-0.59-0.22-0.88c-0.02-0.07-0.03-0.13-0.05-0.2     c-0.38,0.1-0.74,0.2-1.09,0.28c-0.38,0.09-0.75,0.16-1.1,0.21c-2.46,0.37-4.43-0.01-7.29-0.57c-0.79-0.15-1.57-0.3-2.34-0.46     c-9.37-1.85-17.45-3.45-27.33-0.45c-5.17,1.57-11.63,5.23-16.35,7.9l-0.88,0.5c-7.47,4.23-8.68,4.58-11.9,5.53     c-0.84,0.26-1.82,0.55-3.07,0.95c-8.43-2.17-17.16-4.71-24.09-8.49c-6.15-3.35-12.23-7.04-16.67-9.73     c-2.35-1.43-4.21-2.56-5.23-3.11c-6.95-3.79-9.85-1.24-12.42,1.02c-0.28,0.25-0.55,0.48-0.82,0.71     c-3.08-1.52-8.1-1.86-11.15,0.09c-1.42,0.91-3.04,2.7-2.63,6.06c0.01,0.06,0.01,0.1,0,0.14c0,0.03-0.01,0.06-0.04,0.09     c-0.04,0.04-0.07,0.07-0.1,0.1c-0.09,0.08-0.23,0.17-0.45,0.32c-0.99,0.67-2.49,1.67-2.7,4.76v0.1     c-0.39,8.33,18.82,26.22,32.65,36.32c0.06,0.04,0.13,0.08,0.19,0.11c1.55,0.72,3.21,1.5,4.97,2.32     c10.69,5.02,25.64,12.05,40.13,16.62c2.18,0.68,4.34,1.31,6.48,1.87c1.85,0.49,3.69,0.92,5.49,1.29     c0.61,0.12,1.32,0.18,2.14,0.18c9.61,0,33.37-8.18,56.36-16.83c0.39-0.14,0.78-0.29,1.17-0.44c0.4-0.15,0.8-0.3,1.2-0.45     c0.05-0.41,0.09-0.83,0.13-1.25c0.04-0.41,0.08-0.82,0.12-1.24C150.98,175.32,150.73,175.42,150.47,175.52z"/>
            </g>
            <g>
                <path class="st0" d="M109.89,160.94c0,0.62-0.51,1.13-1.13,1.13c-1.92,0-3.77,0.05-5.58,0.14c-7.71,0.4-14.46,1.53-20.55,2.56     c-3.44,0.59-6.61,1.12-9.51,1.43c-1.65,0.18-3.21,0.28-4.68,0.28c-3.5,0-6.51-0.59-9.04-2.22c-1.06-0.67-2.03-1.53-2.93-2.6     c-0.5-0.6-0.87-1.19-1.13-1.77c-1.38-3.06,0.31-5.83,2.41-8.2c0.02-0.03,0.04-0.06,0.07-0.08c0.09-0.11,0.19-0.22,0.29-0.33     c0.44-0.48,1.11-0.94,1.99-1.4c2.55-1.35,6.84-2.63,12.05-4.03c0.14-0.04,0.27-0.08,0.41-0.11h0.01     c0.57-0.16,1.15-0.31,1.74-0.47c0.25-0.07,0.5-0.13,0.75-0.2c2.93-0.77,5.45-1.44,6.64-1.91c0.56-0.22,1.18,0.03,1.43,0.57     c0.01,0.02,0.02,0.04,0.03,0.06c0.18,0.46,0.04,0.95-0.3,1.25c-0.1,0.09-0.21,0.16-0.33,0.21c-1.31,0.52-3.9,1.2-6.9,1.99     c-5.66,1.49-14.2,3.74-15.86,5.56c-3.04,3.32-3.43,5.19-1.57,7.43c4.67,5.61,12.38,4.31,24.05,2.33     c7.23-1.22,16.22-2.74,26.51-2.74C109.38,159.82,109.89,160.32,109.89,160.94z"/>
            </g>
            <g>
                <path class="st0" d="M171.28,128.37c-1.07-1.61-2.71-2.7-4.61-3.08c-0.1-0.02-0.2-0.04-0.3-0.05c-2.68-0.42-5.28,0.69-6.85,2.71     c-0.66,0.84-1.13,1.84-1.36,2.95c-0.38,1.87,0,3.78,1.05,5.37c1.07,1.61,2.71,2.7,4.61,3.08c0.48,0.1,0.96,0.14,1.43,0.14     c3.37,0,6.39-2.35,7.08-5.75C172.71,131.87,172.34,129.96,171.28,128.37z M170.13,133.29c-0.54,2.67-3.17,4.4-5.87,3.86     c-1.31-0.26-2.44-1.02-3.18-2.12c-0.72-1.09-0.98-2.4-0.72-3.68c0.48-2.34,2.56-3.96,4.88-3.96c0.33,0,0.66,0.04,0.99,0.1     c1.31,0.26,2.44,1.02,3.18,2.12C170.13,130.71,170.39,132.01,170.13,133.29z M171.28,128.37c-1.07-1.61-2.71-2.7-4.61-3.08     c-0.1-0.02-0.2-0.04-0.3-0.05c-2.68-0.42-5.28,0.69-6.85,2.71c-0.66,0.84-1.13,1.84-1.36,2.95c-0.38,1.87,0,3.78,1.05,5.37     c1.07,1.61,2.71,2.7,4.61,3.08c0.48,0.1,0.96,0.14,1.43,0.14c3.37,0,6.39-2.35,7.08-5.75     C172.71,131.87,172.34,129.96,171.28,128.37z M170.13,133.29c-0.54,2.67-3.17,4.4-5.87,3.86c-1.31-0.26-2.44-1.02-3.18-2.12     c-0.72-1.09-0.98-2.4-0.72-3.68c0.48-2.34,2.56-3.96,4.88-3.96c0.33,0,0.66,0.04,0.99,0.1c1.31,0.26,2.44,1.02,3.18,2.12     C170.13,130.71,170.39,132.01,170.13,133.29z M171.28,128.37c-1.07-1.61-2.71-2.7-4.61-3.08c-0.1-0.02-0.2-0.04-0.3-0.05     c-2.68-0.42-5.28,0.69-6.85,2.71c-0.66,0.84-1.13,1.84-1.36,2.95c-0.38,1.87,0,3.78,1.05,5.37c1.07,1.61,2.71,2.7,4.61,3.08     c0.48,0.1,0.96,0.14,1.43,0.14c3.37,0,6.39-2.35,7.08-5.75C172.71,131.87,172.34,129.96,171.28,128.37z M170.13,133.29     c-0.54,2.67-3.17,4.4-5.87,3.86c-1.31-0.26-2.44-1.02-3.18-2.12c-0.72-1.09-0.98-2.4-0.72-3.68c0.48-2.34,2.56-3.96,4.88-3.96     c0.33,0,0.66,0.04,0.99,0.1c1.31,0.26,2.44,1.02,3.18,2.12C170.13,130.71,170.39,132.01,170.13,133.29z M185.82,179.68     c-0.21-0.03-0.4,0.11-0.43,0.31c-0.35,2.38-1.05,4.67-2.08,6.81c-0.07,0.13-0.04,0.29,0.06,0.4c0.02,0.04,0.07,0.08,0.12,0.1     c0.05,0.02,0.11,0.03,0.16,0.03c0.14,0,0.27-0.07,0.34-0.21c0-0.01,0.01-0.02,0.01-0.03c1.06-2.19,1.77-4.54,2.13-6.99     C186.16,179.9,186.02,179.71,185.82,179.68z M191.97,166.04c-0.01,0-0.01,0-0.01,0c-0.2,0-0.37,0.16-0.37,0.37     c0,0.24,0,0.47-0.01,0.71c0.17-0.31,0.33-0.65,0.48-1.06C192.03,166.04,192,166.04,191.97,166.04z M185.82,179.68     c-0.21-0.03-0.4,0.11-0.43,0.31c-0.35,2.38-1.05,4.67-2.08,6.81c-0.07,0.13-0.04,0.29,0.06,0.4c0.02,0.04,0.07,0.08,0.12,0.1     c0.05,0.02,0.11,0.03,0.16,0.03c0.14,0,0.27-0.07,0.34-0.21c0-0.01,0.01-0.02,0.01-0.03c1.06-2.19,1.77-4.54,2.13-6.99     C186.16,179.9,186.02,179.71,185.82,179.68z M171.28,128.37c-1.07-1.61-2.71-2.7-4.61-3.08c-0.1-0.02-0.2-0.04-0.3-0.05     c-2.68-0.42-5.28,0.69-6.85,2.71c-0.66,0.84-1.13,1.84-1.36,2.95c-0.38,1.87,0,3.78,1.05,5.37c1.07,1.61,2.71,2.7,4.61,3.08     c0.48,0.1,0.96,0.14,1.43,0.14c3.37,0,6.39-2.35,7.08-5.75C172.71,131.87,172.34,129.96,171.28,128.37z M170.13,133.29     c-0.54,2.67-3.17,4.4-5.87,3.86c-1.31-0.26-2.44-1.02-3.18-2.12c-0.72-1.09-0.98-2.4-0.72-3.68c0.48-2.34,2.56-3.96,4.88-3.96     c0.33,0,0.66,0.04,0.99,0.1c1.31,0.26,2.44,1.02,3.18,2.12C170.13,130.71,170.39,132.01,170.13,133.29z M171.28,128.37     c-1.07-1.61-2.71-2.7-4.61-3.08c-0.1-0.02-0.2-0.04-0.3-0.05c-2.68-0.42-5.28,0.69-6.85,2.71c-0.66,0.84-1.13,1.84-1.36,2.95     c-0.38,1.87,0,3.78,1.05,5.37c1.07,1.61,2.71,2.7,4.61,3.08c0.48,0.1,0.96,0.14,1.43,0.14c3.37,0,6.39-2.35,7.08-5.75     C172.71,131.87,172.34,129.96,171.28,128.37z M170.13,133.29c-0.54,2.67-3.17,4.4-5.87,3.86c-1.31-0.26-2.44-1.02-3.18-2.12     c-0.72-1.09-0.98-2.4-0.72-3.68c0.48-2.34,2.56-3.96,4.88-3.96c0.33,0,0.66,0.04,0.99,0.1c1.31,0.26,2.44,1.02,3.18,2.12     C170.13,130.71,170.39,132.01,170.13,133.29z M185.82,179.68c-0.21-0.03-0.4,0.11-0.43,0.31c-0.35,2.38-1.05,4.67-2.08,6.81     c-0.07,0.13-0.04,0.29,0.06,0.4c0.02,0.04,0.07,0.08,0.12,0.1c0.05,0.02,0.11,0.03,0.16,0.03c0.14,0,0.27-0.07,0.34-0.21     c0-0.01,0.01-0.02,0.01-0.03c1.06-2.19,1.77-4.54,2.13-6.99C186.16,179.9,186.02,179.71,185.82,179.68z M192.06,166.06     c-0.03-0.02-0.06-0.02-0.09-0.02c-0.01,0-0.01,0-0.01,0c-0.2,0-0.37,0.16-0.37,0.37c0,0.24,0,0.47-0.01,0.71     c0,0.01,0,0.01,0,0.02c0,0.64-0.02,1.28-0.05,1.91c-0.01,0.41-0.04,0.83-0.06,1.24c-0.31,5.35-1.24,10.63-2.76,15.75     c0,0.01,0,0.01,0,0.02c-0.05,0.19,0.07,0.39,0.25,0.45c0.04,0.01,0.07,0.01,0.11,0.01c0.16,0,0.31-0.1,0.36-0.27     c0.04-0.15,0.09-0.3,0.13-0.45c1.5-5.15,2.39-10.47,2.67-15.85c0.04-0.61,0.07-1.22,0.08-1.83c0.02-0.57,0.03-1.14,0.03-1.71     C192.34,166.24,192.22,166.1,192.06,166.06z M192.06,166.06c-0.03-0.02-0.06-0.02-0.09-0.02c-0.01,0-0.01,0-0.01,0     c-0.2,0-0.37,0.16-0.37,0.37c0,0.24,0,0.47-0.01,0.71c0,0.01,0,0.01,0,0.02c0,0.64-0.02,1.28-0.05,1.91     c-0.01,0.41-0.04,0.83-0.06,1.24c-0.31,5.35-1.24,10.63-2.76,15.75c0,0.01,0,0.01,0,0.02c-0.05,0.19,0.07,0.39,0.25,0.45     c0.04,0.01,0.07,0.01,0.11,0.01c0.16,0,0.31-0.1,0.36-0.27c0.04-0.15,0.09-0.3,0.13-0.45c1.5-5.15,2.39-10.47,2.67-15.85     c0.04-0.61,0.07-1.22,0.08-1.83c0.02-0.57,0.03-1.14,0.03-1.71C192.34,166.24,192.22,166.1,192.06,166.06z M185.82,179.68     c-0.21-0.03-0.4,0.11-0.43,0.31c-0.35,2.38-1.05,4.67-2.08,6.81c-0.07,0.13-0.04,0.29,0.06,0.4c0.02,0.04,0.07,0.08,0.12,0.1     c0.05,0.02,0.11,0.03,0.16,0.03c0.14,0,0.27-0.07,0.34-0.21c0-0.01,0.01-0.02,0.01-0.03c1.06-2.19,1.77-4.54,2.13-6.99     C186.16,179.9,186.02,179.71,185.82,179.68z M171.28,128.37c-1.07-1.61-2.71-2.7-4.61-3.08c-0.1-0.02-0.2-0.04-0.3-0.05     c-2.68-0.42-5.28,0.69-6.85,2.71c-0.66,0.84-1.13,1.84-1.36,2.95c-0.38,1.87,0,3.78,1.05,5.37c1.07,1.61,2.71,2.7,4.61,3.08     c0.48,0.1,0.96,0.14,1.43,0.14c3.37,0,6.39-2.35,7.08-5.75C172.71,131.87,172.34,129.96,171.28,128.37z M170.13,133.29     c-0.54,2.67-3.17,4.4-5.87,3.86c-1.31-0.26-2.44-1.02-3.18-2.12c-0.72-1.09-0.98-2.4-0.72-3.68c0.48-2.34,2.56-3.96,4.88-3.96     c0.33,0,0.66,0.04,0.99,0.1c1.31,0.26,2.44,1.02,3.18,2.12C170.13,130.71,170.39,132.01,170.13,133.29z M171.28,128.37     c-1.07-1.61-2.71-2.7-4.61-3.08c-0.1-0.02-0.2-0.04-0.3-0.05c-2.68-0.42-5.28,0.69-6.85,2.71c-0.66,0.84-1.13,1.84-1.36,2.95     c-0.38,1.87,0,3.78,1.05,5.37c1.07,1.61,2.71,2.7,4.61,3.08c0.48,0.1,0.96,0.14,1.43,0.14c3.37,0,6.39-2.35,7.08-5.75     C172.71,131.87,172.34,129.96,171.28,128.37z M170.13,133.29c-0.54,2.67-3.17,4.4-5.87,3.86c-1.31-0.26-2.44-1.02-3.18-2.12     c-0.72-1.09-0.98-2.4-0.72-3.68c0.48-2.34,2.56-3.96,4.88-3.96c0.33,0,0.66,0.04,0.99,0.1c1.31,0.26,2.44,1.02,3.18,2.12     C170.13,130.71,170.39,132.01,170.13,133.29z M185.82,179.68c-0.21-0.03-0.4,0.11-0.43,0.31c-0.35,2.38-1.05,4.67-2.08,6.81     c-0.07,0.13-0.04,0.29,0.06,0.4c0.02,0.04,0.07,0.08,0.12,0.1c0.05,0.02,0.11,0.03,0.16,0.03c0.14,0,0.27-0.07,0.34-0.21     c0-0.01,0.01-0.02,0.01-0.03c1.06-2.19,1.77-4.54,2.13-6.99C186.16,179.9,186.02,179.71,185.82,179.68z M192.06,166.06     c-0.03-0.02-0.06-0.02-0.09-0.02c-0.01,0-0.01,0-0.01,0c-0.2,0-0.37,0.16-0.37,0.37c0,0.24,0,0.47-0.01,0.71     c0,0.01,0,0.01,0,0.02c0,0.64-0.02,1.28-0.05,1.91c-0.01,0.41-0.04,0.83-0.06,1.24c-0.31,5.35-1.24,10.63-2.76,15.75     c0,0.01,0,0.01,0,0.02c-0.05,0.19,0.07,0.39,0.25,0.45c0.04,0.01,0.07,0.01,0.11,0.01c0.16,0,0.31-0.1,0.36-0.27     c0.04-0.15,0.09-0.3,0.13-0.45c1.5-5.15,2.39-10.47,2.67-15.85c0.04-0.61,0.07-1.22,0.08-1.83c0.02-0.57,0.03-1.14,0.03-1.71     C192.34,166.24,192.22,166.1,192.06,166.06z M192.06,166.06c-0.03-0.02-0.06-0.02-0.09-0.02c-0.01,0-0.01,0-0.01,0     c-0.2,0-0.37,0.16-0.37,0.37c0,0.24,0,0.47-0.01,0.71c0,0.01,0,0.01,0,0.02c0,0.64-0.02,1.28-0.05,1.91     c-0.01,0.41-0.04,0.83-0.06,1.24c-0.31,5.35-1.24,10.63-2.76,15.75c0,0.01,0,0.01,0,0.02c-0.05,0.19,0.07,0.39,0.25,0.45     c0.04,0.01,0.07,0.01,0.11,0.01c0.16,0,0.31-0.1,0.36-0.27c0.04-0.15,0.09-0.3,0.13-0.45c1.5-5.15,2.39-10.47,2.67-15.85     c0.04-0.61,0.07-1.22,0.08-1.83c0.02-0.57,0.03-1.14,0.03-1.71C192.34,166.24,192.22,166.1,192.06,166.06z M185.82,179.68     c-0.21-0.03-0.4,0.11-0.43,0.31c-0.35,2.38-1.05,4.67-2.08,6.81c-0.07,0.13-0.04,0.29,0.06,0.4c0.02,0.04,0.07,0.08,0.12,0.1     c0.05,0.02,0.11,0.03,0.16,0.03c0.14,0,0.27-0.07,0.34-0.21c0-0.01,0.01-0.02,0.01-0.03c1.06-2.19,1.77-4.54,2.13-6.99     C186.16,179.9,186.02,179.71,185.82,179.68z M171.28,128.37c-1.07-1.61-2.71-2.7-4.61-3.08c-0.1-0.02-0.2-0.04-0.3-0.05     c-2.68-0.42-5.28,0.69-6.85,2.71c-0.66,0.84-1.13,1.84-1.36,2.95c-0.38,1.87,0,3.78,1.05,5.37c1.07,1.61,2.71,2.7,4.61,3.08     c0.48,0.1,0.96,0.14,1.43,0.14c3.37,0,6.39-2.35,7.08-5.75C172.71,131.87,172.34,129.96,171.28,128.37z M170.13,133.29     c-0.54,2.67-3.17,4.4-5.87,3.86c-1.31-0.26-2.44-1.02-3.18-2.12c-0.72-1.09-0.98-2.4-0.72-3.68c0.48-2.34,2.56-3.96,4.88-3.96     c0.33,0,0.66,0.04,0.99,0.1c1.31,0.26,2.44,1.02,3.18,2.12C170.13,130.71,170.39,132.01,170.13,133.29z M171.28,128.37     c-1.07-1.61-2.71-2.7-4.61-3.08c-0.1-0.02-0.2-0.04-0.3-0.05c-2.68-0.42-5.28,0.69-6.85,2.71c-0.66,0.84-1.13,1.84-1.36,2.95     c-0.38,1.87,0,3.78,1.05,5.37c1.07,1.61,2.71,2.7,4.61,3.08c0.48,0.1,0.96,0.14,1.43,0.14c3.37,0,6.39-2.35,7.08-5.75     C172.71,131.87,172.34,129.96,171.28,128.37z M170.13,133.29c-0.54,2.67-3.17,4.4-5.87,3.86c-1.31-0.26-2.44-1.02-3.18-2.12     c-0.72-1.09-0.98-2.4-0.72-3.68c0.48-2.34,2.56-3.96,4.88-3.96c0.33,0,0.66,0.04,0.99,0.1c1.31,0.26,2.44,1.02,3.18,2.12     C170.13,130.71,170.39,132.01,170.13,133.29z M185.82,179.68c-0.21-0.03-0.4,0.11-0.43,0.31c-0.35,2.38-1.05,4.67-2.08,6.81     c-0.07,0.13-0.04,0.29,0.06,0.4c0.02,0.04,0.07,0.08,0.12,0.1c0.05,0.02,0.11,0.03,0.16,0.03c0.14,0,0.27-0.07,0.34-0.21     c0-0.01,0.01-0.02,0.01-0.03c1.06-2.19,1.77-4.54,2.13-6.99C186.16,179.9,186.02,179.71,185.82,179.68z M192.06,166.06     c-0.03-0.02-0.06-0.02-0.09-0.02c-0.01,0-0.01,0-0.01,0c-0.2,0-0.37,0.16-0.37,0.37c0,0.24,0,0.47-0.01,0.71     c0,0.01,0,0.01,0,0.02c0,0.64-0.02,1.28-0.05,1.91c-0.01,0.41-0.04,0.83-0.06,1.24c-0.31,5.35-1.24,10.63-2.76,15.75     c0,0.01,0,0.01,0,0.02c-0.05,0.19,0.07,0.39,0.25,0.45c0.04,0.01,0.07,0.01,0.11,0.01c0.16,0,0.31-0.1,0.36-0.27     c0.04-0.15,0.09-0.3,0.13-0.45c1.5-5.15,2.39-10.47,2.67-15.85c0.04-0.61,0.07-1.22,0.08-1.83c0.02-0.57,0.03-1.14,0.03-1.71     C192.34,166.24,192.22,166.1,192.06,166.06z M192.06,166.06c-0.03-0.02-0.06-0.02-0.09-0.02c-0.01,0-0.01,0-0.01,0     c-0.2,0-0.37,0.16-0.37,0.37c0,0.24,0,0.47-0.01,0.71c0,0.01,0,0.01,0,0.02c0,0.64-0.02,1.28-0.05,1.91     c-0.01,0.41-0.04,0.83-0.06,1.24c-0.31,5.35-1.24,10.63-2.76,15.75c0,0.01,0,0.01,0,0.02c-0.05,0.19,0.07,0.39,0.25,0.45     c0.04,0.01,0.07,0.01,0.11,0.01c0.16,0,0.31-0.1,0.36-0.27c0.04-0.15,0.09-0.3,0.13-0.45c1.5-5.15,2.39-10.47,2.67-15.85     c0.04-0.61,0.07-1.22,0.08-1.83c0.02-0.57,0.03-1.14,0.03-1.71C192.34,166.24,192.22,166.1,192.06,166.06z M185.82,179.68     c-0.21-0.03-0.4,0.11-0.43,0.31c-0.35,2.38-1.05,4.67-2.08,6.81c-0.07,0.13-0.04,0.29,0.06,0.4c0.02,0.04,0.07,0.08,0.12,0.1     c0.05,0.02,0.11,0.03,0.16,0.03c0.14,0,0.27-0.07,0.34-0.21c0-0.01,0.01-0.02,0.01-0.03c1.06-2.19,1.77-4.54,2.13-6.99     C186.16,179.9,186.02,179.71,185.82,179.68z M171.28,128.37c-1.07-1.61-2.71-2.7-4.61-3.08c-0.1-0.02-0.2-0.04-0.3-0.05     c-2.68-0.42-5.28,0.69-6.85,2.71c-0.66,0.84-1.13,1.84-1.36,2.95c-0.38,1.87,0,3.78,1.05,5.37c1.07,1.61,2.71,2.7,4.61,3.08     c0.48,0.1,0.96,0.14,1.43,0.14c3.37,0,6.39-2.35,7.08-5.75C172.71,131.87,172.34,129.96,171.28,128.37z M170.13,133.29     c-0.54,2.67-3.17,4.4-5.87,3.86c-1.31-0.26-2.44-1.02-3.18-2.12c-0.72-1.09-0.98-2.4-0.72-3.68c0.48-2.34,2.56-3.96,4.88-3.96     c0.33,0,0.66,0.04,0.99,0.1c1.31,0.26,2.44,1.02,3.18,2.12C170.13,130.71,170.39,132.01,170.13,133.29z M171.28,128.37     c-1.07-1.61-2.71-2.7-4.61-3.08c-0.1-0.02-0.2-0.04-0.3-0.05c-2.68-0.42-5.28,0.69-6.85,2.71c-0.66,0.84-1.13,1.84-1.36,2.95     c-0.38,1.87,0,3.78,1.05,5.37c1.07,1.61,2.71,2.7,4.61,3.08c0.48,0.1,0.96,0.14,1.43,0.14c3.37,0,6.39-2.35,7.08-5.75     C172.71,131.87,172.34,129.96,171.28,128.37z M170.13,133.29c-0.54,2.67-3.17,4.4-5.87,3.86c-1.31-0.26-2.44-1.02-3.18-2.12     c-0.72-1.09-0.98-2.4-0.72-3.68c0.48-2.34,2.56-3.96,4.88-3.96c0.33,0,0.66,0.04,0.99,0.1c1.31,0.26,2.44,1.02,3.18,2.12     C170.13,130.71,170.39,132.01,170.13,133.29z M185.82,179.68c-0.21-0.03-0.4,0.11-0.43,0.31c-0.35,2.38-1.05,4.67-2.08,6.81     c-0.07,0.13-0.04,0.29,0.06,0.4c0.02,0.04,0.07,0.08,0.12,0.1c0.05,0.02,0.11,0.03,0.16,0.03c0.14,0,0.27-0.07,0.34-0.21     c0-0.01,0.01-0.02,0.01-0.03c1.06-2.19,1.77-4.54,2.13-6.99C186.16,179.9,186.02,179.71,185.82,179.68z M192.06,166.06     c-0.03-0.02-0.06-0.02-0.09-0.02c-0.01,0-0.01,0-0.01,0c-0.2,0-0.37,0.16-0.37,0.37c0,0.24,0,0.47-0.01,0.71     c0,0.01,0,0.01,0,0.02c0,0.64-0.02,1.28-0.05,1.91c-0.01,0.41-0.04,0.83-0.06,1.24c-0.31,5.35-1.24,10.63-2.76,15.75     c0,0.01,0,0.01,0,0.02c-0.05,0.19,0.07,0.39,0.25,0.45c0.04,0.01,0.07,0.01,0.11,0.01c0.16,0,0.31-0.1,0.36-0.27     c0.04-0.15,0.09-0.3,0.13-0.45c1.5-5.15,2.39-10.47,2.67-15.85c0.04-0.61,0.07-1.22,0.08-1.83c0.02-0.57,0.03-1.14,0.03-1.71     C192.34,166.24,192.22,166.1,192.06,166.06z M192.06,166.06c-0.03-0.02-0.06-0.02-0.09-0.02c-0.01,0-0.01,0-0.01,0     c-0.2,0-0.37,0.16-0.37,0.37c0,0.24,0,0.47-0.01,0.71c0,0.01,0,0.01,0,0.02c0,0.64-0.02,1.28-0.05,1.91     c-0.01,0.41-0.04,0.83-0.06,1.24c-0.31,5.35-1.24,10.63-2.76,15.75c0,0.01,0,0.01,0,0.02c-0.05,0.19,0.07,0.39,0.25,0.45     c0.04,0.01,0.07,0.01,0.11,0.01c0.16,0,0.31-0.1,0.36-0.27c0.04-0.15,0.09-0.3,0.13-0.45c1.5-5.15,2.39-10.47,2.67-15.85     c0.04-0.61,0.07-1.22,0.08-1.83c0.02-0.57,0.03-1.14,0.03-1.71C192.34,166.24,192.22,166.1,192.06,166.06z M185.82,179.68     c-0.21-0.03-0.4,0.11-0.43,0.31c-0.35,2.38-1.05,4.67-2.08,6.81c-0.07,0.13-0.04,0.29,0.06,0.4c0.02,0.04,0.07,0.08,0.12,0.1     c0.05,0.02,0.11,0.03,0.16,0.03c0.14,0,0.27-0.07,0.34-0.21c0-0.01,0.01-0.02,0.01-0.03c1.06-2.19,1.77-4.54,2.13-6.99     C186.16,179.9,186.02,179.71,185.82,179.68z M171.28,128.37c-1.07-1.61-2.71-2.7-4.61-3.08c-0.1-0.02-0.2-0.04-0.3-0.05     c-2.68-0.42-5.28,0.69-6.85,2.71c-0.66,0.84-1.13,1.84-1.36,2.95c-0.38,1.87,0,3.78,1.05,5.37c1.07,1.61,2.71,2.7,4.61,3.08     c0.48,0.1,0.96,0.14,1.43,0.14c3.37,0,6.39-2.35,7.08-5.75C172.71,131.87,172.34,129.96,171.28,128.37z M170.13,133.29     c-0.54,2.67-3.17,4.4-5.87,3.86c-1.31-0.26-2.44-1.02-3.18-2.12c-0.72-1.09-0.98-2.4-0.72-3.68c0.48-2.34,2.56-3.96,4.88-3.96     c0.33,0,0.66,0.04,0.99,0.1c1.31,0.26,2.44,1.02,3.18,2.12C170.13,130.71,170.39,132.01,170.13,133.29z M171.28,128.37     c-1.07-1.61-2.71-2.7-4.61-3.08c-0.1-0.02-0.2-0.04-0.3-0.05c-2.68-0.42-5.28,0.69-6.85,2.71c-0.66,0.84-1.13,1.84-1.36,2.95     c-0.38,1.87,0,3.78,1.05,5.37c1.07,1.61,2.71,2.7,4.61,3.08c0.48,0.1,0.96,0.14,1.43,0.14c3.37,0,6.39-2.35,7.08-5.75     C172.71,131.87,172.34,129.96,171.28,128.37z M170.13,133.29c-0.54,2.67-3.17,4.4-5.87,3.86c-1.31-0.26-2.44-1.02-3.18-2.12     c-0.72-1.09-0.98-2.4-0.72-3.68c0.48-2.34,2.56-3.96,4.88-3.96c0.33,0,0.66,0.04,0.99,0.1c1.31,0.26,2.44,1.02,3.18,2.12     C170.13,130.71,170.39,132.01,170.13,133.29z M185.82,179.68c-0.21-0.03-0.4,0.11-0.43,0.31c-0.35,2.38-1.05,4.67-2.08,6.81     c-0.07,0.13-0.04,0.29,0.06,0.4c0.02,0.04,0.07,0.08,0.12,0.1c0.05,0.02,0.11,0.03,0.16,0.03c0.14,0,0.27-0.07,0.34-0.21     c0-0.01,0.01-0.02,0.01-0.03c1.06-2.19,1.77-4.54,2.13-6.99C186.16,179.9,186.02,179.71,185.82,179.68z M192.06,166.06     c-0.03-0.02-0.06-0.02-0.09-0.02c-0.01,0-0.01,0-0.01,0c-0.2,0-0.37,0.16-0.37,0.37c0,0.24,0,0.47-0.01,0.71     c0,0.01,0,0.01,0,0.02c0,0.64-0.02,1.28-0.05,1.91c-0.01,0.41-0.04,0.83-0.06,1.24c-0.31,5.35-1.24,10.63-2.76,15.75     c0,0.01,0,0.01,0,0.02c-0.05,0.19,0.07,0.39,0.25,0.45c0.04,0.01,0.07,0.01,0.11,0.01c0.16,0,0.31-0.1,0.36-0.27     c0.04-0.15,0.09-0.3,0.13-0.45c1.5-5.15,2.39-10.47,2.67-15.85c0.04-0.61,0.07-1.22,0.08-1.83c0.02-0.57,0.03-1.14,0.03-1.71     C192.34,166.24,192.22,166.1,192.06,166.06z M192.06,166.06c-0.03-0.02-0.06-0.02-0.09-0.02c-0.01,0-0.01,0-0.01,0     c-0.2,0-0.37,0.16-0.37,0.37c0,0.24,0,0.47-0.01,0.71c0,0.01,0,0.01,0,0.02c0,0.64-0.02,1.28-0.05,1.91     c-0.01,0.41-0.04,0.83-0.06,1.24c-0.31,5.35-1.24,10.63-2.76,15.75c0,0.01,0,0.01,0,0.02c-0.05,0.19,0.07,0.39,0.25,0.45     c0.04,0.01,0.07,0.01,0.11,0.01c0.16,0,0.31-0.1,0.36-0.27c0.04-0.15,0.09-0.3,0.13-0.45c1.5-5.15,2.39-10.47,2.67-15.85     c0.04-0.61,0.07-1.22,0.08-1.83c0.02-0.57,0.03-1.14,0.03-1.71C192.34,166.24,192.22,166.1,192.06,166.06z M185.82,179.68     c-0.21-0.03-0.4,0.11-0.43,0.31c-0.35,2.38-1.05,4.67-2.08,6.81c-0.07,0.13-0.04,0.29,0.06,0.4c0.02,0.04,0.07,0.08,0.12,0.1     c0.05,0.02,0.11,0.03,0.16,0.03c0.14,0,0.27-0.07,0.34-0.21c0-0.01,0.01-0.02,0.01-0.03c1.06-2.19,1.77-4.54,2.13-6.99     C186.16,179.9,186.02,179.71,185.82,179.68z M166.67,125.29c-0.1-0.02-0.2-0.04-0.3-0.05c-2.68-0.42-5.28,0.69-6.85,2.71     c-0.66,0.84-1.13,1.84-1.36,2.95c-0.38,1.87,0,3.78,1.05,5.37c1.07,1.61,2.71,2.7,4.61,3.08c0.48,0.1,0.96,0.14,1.43,0.14     c3.37,0,6.39-2.35,7.08-5.75c0.38-1.87,0.01-3.78-1.05-5.37C170.21,126.76,168.57,125.67,166.67,125.29z M170.13,133.29     c-0.54,2.67-3.17,4.4-5.87,3.86c-1.31-0.26-2.44-1.02-3.18-2.12c-0.72-1.09-0.98-2.4-0.72-3.68c0.48-2.34,2.56-3.96,4.88-3.96     c0.33,0,0.66,0.04,0.99,0.1c1.31,0.26,2.44,1.02,3.18,2.12C170.13,130.71,170.39,132.01,170.13,133.29z M197.75,141.32v-0.04     c-0.92-7.03-2.37-12.36-3.75-16.05c-0.08-0.22-0.17-0.43-0.26-0.64c-1.44-3.27-4.31-5.58-7.66-6.13     c-4.06-0.67-9.56-1.44-13.35-1.41c-7.92,0.07-19.59,1.14-27.45,1.9c-1.51,0.15-0.04,6.07,1.48,12.11     c0.09,0.36,0.19,0.72,0.27,1.08c0.1,0.36,0.19,0.73,0.28,1.09c0.72,2.91,1.37,5.69,1.61,7.67c1.8,15.1,1.87,25.5,1.25,33.34v0.01     c-0.04,0.48-0.08,0.96-0.13,1.43c-0.04,0.42-0.08,0.83-0.12,1.24c-0.01,0.1-0.02,0.2-0.03,0.3c-0.04,0.32-0.07,0.64-0.11,0.95     c-0.38,3.24-0.88,6.01-1.38,8.53v0.01c-0.16,0.82-0.32,1.6-0.48,2.38c-0.12,0.56-0.23,1.1-0.34,1.64     c3.47,1.97,13.06,2.94,22.45,3.06h0.2c1.13,0.01,2.25,0.01,3.37,0h0.07c8.41-0.1,15.95-0.9,17.78-2.31     c0.88-0.68,1.67-1.6,2.35-2.67c0.01-0.01,0.01-0.02,0.01-0.02c0.69-1.05,1.27-2.23,1.74-3.45c0-0.01,0-0.01,0-0.01     c0.84-2.1,1.37-4.27,1.61-6.06C199.3,163.44,199.01,150.83,197.75,141.32z M196.05,179.12c-0.22,1.63-0.67,3.43-1.3,5.15     c-0.95,2.63-2.33,5.06-3.98,6.32c-3.68,2.82-33.88,2.98-41.91-0.48l0.06-0.3c0.28-1.34,0.56-2.72,0.84-4.18v-0.01     c0.45-2.36,0.88-4.95,1.22-7.9c0.05-0.41,0.09-0.83,0.13-1.25c0.04-0.41,0.08-0.82,0.12-1.24c0.7-7.99,0.69-18.64-1.2-34.46     c-0.25-2.05-0.91-4.9-1.64-7.82c-0.09-0.37-0.18-0.73-0.27-1.09c-0.07-0.3-0.15-0.59-0.22-0.88c-0.02-0.07-0.03-0.13-0.05-0.2     c-0.95-3.78-2.32-9.24-2.07-10.75c8.66-0.84,19.44-1.79,26.96-1.85c3.74-0.04,9.21,0.74,13.15,1.39c2.36,0.39,4.47,1.78,5.88,3.8     c0.4,0.58,0.75,1.2,1.03,1.87c0.05,0.12,0.1,0.25,0.15,0.38c1.06,2.86,2.68,8.16,3.7,16.04c0.32,2.49,0.59,5.23,0.76,8.24     C197.84,157.81,197.62,167.53,196.05,179.12z M192.06,166.06c-0.03-0.02-0.06-0.02-0.09-0.02c-0.01,0-0.01,0-0.01,0     c-0.2,0-0.37,0.16-0.37,0.37c0,0.24,0,0.47-0.01,0.71c0,0.01,0,0.01,0,0.02c0,0.64-0.02,1.28-0.05,1.91     c-0.01,0.41-0.04,0.83-0.06,1.24c-0.31,5.35-1.24,10.63-2.76,15.75c0,0.01,0,0.01,0,0.02c-0.05,0.19,0.07,0.39,0.25,0.45     c0.04,0.01,0.07,0.01,0.11,0.01c0.16,0,0.31-0.1,0.36-0.27c0.04-0.15,0.09-0.3,0.13-0.45c1.5-5.15,2.39-10.47,2.67-15.85     c0.04-0.61,0.07-1.22,0.08-1.83c0.02-0.57,0.03-1.14,0.03-1.71C192.34,166.24,192.22,166.1,192.06,166.06z M185.82,179.68     c-0.21-0.03-0.4,0.11-0.43,0.31c-0.35,2.38-1.05,4.67-2.08,6.81c-0.07,0.13-0.04,0.29,0.06,0.4c0.02,0.04,0.07,0.08,0.12,0.1     c0.05,0.02,0.11,0.03,0.16,0.03c0.14,0,0.27-0.07,0.34-0.21c0-0.01,0.01-0.02,0.01-0.03c1.06-2.19,1.77-4.54,2.13-6.99     C186.16,179.9,186.02,179.71,185.82,179.68z M166.67,125.29c-0.1-0.02-0.2-0.04-0.3-0.05c-2.68-0.42-5.28,0.69-6.85,2.71     c-0.66,0.84-1.13,1.84-1.36,2.95c-0.38,1.87,0,3.78,1.05,5.37c1.07,1.61,2.71,2.7,4.61,3.08c0.48,0.1,0.96,0.14,1.43,0.14     c3.37,0,6.39-2.35,7.08-5.75c0.38-1.87,0.01-3.78-1.05-5.37C170.21,126.76,168.57,125.67,166.67,125.29z M170.13,133.29     c-0.54,2.67-3.17,4.4-5.87,3.86c-1.31-0.26-2.44-1.02-3.18-2.12c-0.72-1.09-0.98-2.4-0.72-3.68c0.48-2.34,2.56-3.96,4.88-3.96     c0.33,0,0.66,0.04,0.99,0.1c1.31,0.26,2.44,1.02,3.18,2.12C170.13,130.71,170.39,132.01,170.13,133.29z M171.28,128.37     c-1.07-1.61-2.71-2.7-4.61-3.08c-0.1-0.02-0.2-0.04-0.3-0.05c-2.68-0.42-5.28,0.69-6.85,2.71c-0.66,0.84-1.13,1.84-1.36,2.95     c-0.38,1.87,0,3.78,1.05,5.37c1.07,1.61,2.71,2.7,4.61,3.08c0.48,0.1,0.96,0.14,1.43,0.14c3.37,0,6.39-2.35,7.08-5.75     C172.71,131.87,172.34,129.96,171.28,128.37z M170.13,133.29c-0.54,2.67-3.17,4.4-5.87,3.86c-1.31-0.26-2.44-1.02-3.18-2.12     c-0.72-1.09-0.98-2.4-0.72-3.68c0.48-2.34,2.56-3.96,4.88-3.96c0.33,0,0.66,0.04,0.99,0.1c1.31,0.26,2.44,1.02,3.18,2.12     C170.13,130.71,170.39,132.01,170.13,133.29z M185.82,179.68c-0.21-0.03-0.4,0.11-0.43,0.31c-0.35,2.38-1.05,4.67-2.08,6.81     c-0.07,0.13-0.04,0.29,0.06,0.4c0.02,0.04,0.07,0.08,0.12,0.1c0.05,0.02,0.11,0.03,0.16,0.03c0.14,0,0.27-0.07,0.34-0.21     c0-0.01,0.01-0.02,0.01-0.03c1.06-2.19,1.77-4.54,2.13-6.99C186.16,179.9,186.02,179.71,185.82,179.68z M192.06,166.06     c-0.03-0.02-0.06-0.02-0.09-0.02c-0.01,0-0.01,0-0.01,0c-0.2,0-0.37,0.16-0.37,0.37c0,0.24,0,0.47-0.01,0.71     c0,0.01,0,0.01,0,0.02c0,0.64-0.02,1.28-0.05,1.91c-0.01,0.41-0.04,0.83-0.06,1.24c-0.31,5.35-1.24,10.63-2.76,15.75     c0,0.01,0,0.01,0,0.02c-0.05,0.19,0.07,0.39,0.25,0.45c0.04,0.01,0.07,0.01,0.11,0.01c0.16,0,0.31-0.1,0.36-0.27     c0.04-0.15,0.09-0.3,0.13-0.45c1.5-5.15,2.39-10.47,2.67-15.85c0.04-0.61,0.07-1.22,0.08-1.83c0.02-0.57,0.03-1.14,0.03-1.71     C192.34,166.24,192.22,166.1,192.06,166.06z M192.06,166.06c-0.03-0.02-0.06-0.02-0.09-0.02c-0.01,0-0.01,0-0.01,0     c-0.2,0-0.37,0.16-0.37,0.37c0,0.24,0,0.47-0.01,0.71c0,0.01,0,0.01,0,0.02c0,0.64-0.02,1.28-0.05,1.91     c-0.01,0.41-0.04,0.83-0.06,1.24c-0.31,5.35-1.24,10.63-2.76,15.75c0,0.01,0,0.01,0,0.02c-0.05,0.19,0.07,0.39,0.25,0.45     c0.04,0.01,0.07,0.01,0.11,0.01c0.16,0,0.31-0.1,0.36-0.27c0.04-0.15,0.09-0.3,0.13-0.45c1.5-5.15,2.39-10.47,2.67-15.85     c0.04-0.61,0.07-1.22,0.08-1.83c0.02-0.57,0.03-1.14,0.03-1.71C192.34,166.24,192.22,166.1,192.06,166.06z M185.82,179.68     c-0.21-0.03-0.4,0.11-0.43,0.31c-0.35,2.38-1.05,4.67-2.08,6.81c-0.07,0.13-0.04,0.29,0.06,0.4c0.02,0.04,0.07,0.08,0.12,0.1     c0.05,0.02,0.11,0.03,0.16,0.03c0.14,0,0.27-0.07,0.34-0.21c0-0.01,0.01-0.02,0.01-0.03c1.06-2.19,1.77-4.54,2.13-6.99     C186.16,179.9,186.02,179.71,185.82,179.68z M171.28,128.37c-1.07-1.61-2.71-2.7-4.61-3.08c-0.1-0.02-0.2-0.04-0.3-0.05     c-2.68-0.42-5.28,0.69-6.85,2.71c-0.66,0.84-1.13,1.84-1.36,2.95c-0.38,1.87,0,3.78,1.05,5.37c1.07,1.61,2.71,2.7,4.61,3.08     c0.48,0.1,0.96,0.14,1.43,0.14c3.37,0,6.39-2.35,7.08-5.75C172.71,131.87,172.34,129.96,171.28,128.37z M170.13,133.29     c-0.54,2.67-3.17,4.4-5.87,3.86c-1.31-0.26-2.44-1.02-3.18-2.12c-0.72-1.09-0.98-2.4-0.72-3.68c0.48-2.34,2.56-3.96,4.88-3.96     c0.33,0,0.66,0.04,0.99,0.1c1.31,0.26,2.44,1.02,3.18,2.12C170.13,130.71,170.39,132.01,170.13,133.29z M171.28,128.37     c-1.07-1.61-2.71-2.7-4.61-3.08c-0.1-0.02-0.2-0.04-0.3-0.05c-2.68-0.42-5.28,0.69-6.85,2.71c-0.66,0.84-1.13,1.84-1.36,2.95     c-0.38,1.87,0,3.78,1.05,5.37c1.07,1.61,2.71,2.7,4.61,3.08c0.48,0.1,0.96,0.14,1.43,0.14c3.37,0,6.39-2.35,7.08-5.75     C172.71,131.87,172.34,129.96,171.28,128.37z M170.13,133.29c-0.54,2.67-3.17,4.4-5.87,3.86c-1.31-0.26-2.44-1.02-3.18-2.12     c-0.72-1.09-0.98-2.4-0.72-3.68c0.48-2.34,2.56-3.96,4.88-3.96c0.33,0,0.66,0.04,0.99,0.1c1.31,0.26,2.44,1.02,3.18,2.12     C170.13,130.71,170.39,132.01,170.13,133.29z M185.82,179.68c-0.21-0.03-0.4,0.11-0.43,0.31c-0.35,2.38-1.05,4.67-2.08,6.81     c-0.07,0.13-0.04,0.29,0.06,0.4c0.02,0.04,0.07,0.08,0.12,0.1c0.05,0.02,0.11,0.03,0.16,0.03c0.14,0,0.27-0.07,0.34-0.21     c0-0.01,0.01-0.02,0.01-0.03c1.06-2.19,1.77-4.54,2.13-6.99C186.16,179.9,186.02,179.71,185.82,179.68z M192.06,166.06     c-0.03-0.02-0.06-0.02-0.09-0.02c-0.01,0-0.01,0-0.01,0c-0.2,0-0.37,0.16-0.37,0.37c0,0.24,0,0.47-0.01,0.71     c0,0.01,0,0.01,0,0.02c0,0.64-0.02,1.28-0.05,1.91c-0.01,0.41-0.04,0.83-0.06,1.24c-0.31,5.35-1.24,10.63-2.76,15.75     c0,0.01,0,0.01,0,0.02c-0.05,0.19,0.07,0.39,0.25,0.45c0.04,0.01,0.07,0.01,0.11,0.01c0.16,0,0.31-0.1,0.36-0.27     c0.04-0.15,0.09-0.3,0.13-0.45c1.5-5.15,2.39-10.47,2.67-15.85c0.04-0.61,0.07-1.22,0.08-1.83c0.02-0.57,0.03-1.14,0.03-1.71     C192.34,166.24,192.22,166.1,192.06,166.06z M192.06,166.06c-0.03-0.02-0.06-0.02-0.09-0.02c-0.01,0-0.01,0-0.01,0     c-0.2,0-0.37,0.16-0.37,0.37c0,0.24,0,0.47-0.01,0.71c0,0.01,0,0.01,0,0.02c0,0.64-0.02,1.28-0.05,1.91     c-0.01,0.41-0.04,0.83-0.06,1.24c-0.31,5.35-1.24,10.63-2.76,15.75c0,0.01,0,0.01,0,0.02c-0.05,0.19,0.07,0.39,0.25,0.45     c0.04,0.01,0.07,0.01,0.11,0.01c0.16,0,0.31-0.1,0.36-0.27c0.04-0.15,0.09-0.3,0.13-0.45c1.5-5.15,2.39-10.47,2.67-15.85     c0.04-0.61,0.07-1.22,0.08-1.83c0.02-0.57,0.03-1.14,0.03-1.71C192.34,166.24,192.22,166.1,192.06,166.06z M185.82,179.68     c-0.21-0.03-0.4,0.11-0.43,0.31c-0.35,2.38-1.05,4.67-2.08,6.81c-0.07,0.13-0.04,0.29,0.06,0.4c0.02,0.04,0.07,0.08,0.12,0.1     c0.05,0.02,0.11,0.03,0.16,0.03c0.14,0,0.27-0.07,0.34-0.21c0-0.01,0.01-0.02,0.01-0.03c1.06-2.19,1.77-4.54,2.13-6.99     C186.16,179.9,186.02,179.71,185.82,179.68z M171.28,128.37c-1.07-1.61-2.71-2.7-4.61-3.08c-0.1-0.02-0.2-0.04-0.3-0.05     c-2.68-0.42-5.28,0.69-6.85,2.71c-0.66,0.84-1.13,1.84-1.36,2.95c-0.38,1.87,0,3.78,1.05,5.37c1.07,1.61,2.71,2.7,4.61,3.08     c0.48,0.1,0.96,0.14,1.43,0.14c3.37,0,6.39-2.35,7.08-5.75C172.71,131.87,172.34,129.96,171.28,128.37z M170.13,133.29     c-0.54,2.67-3.17,4.4-5.87,3.86c-1.31-0.26-2.44-1.02-3.18-2.12c-0.72-1.09-0.98-2.4-0.72-3.68c0.48-2.34,2.56-3.96,4.88-3.96     c0.33,0,0.66,0.04,0.99,0.1c1.31,0.26,2.44,1.02,3.18,2.12C170.13,130.71,170.39,132.01,170.13,133.29z M171.28,128.37     c-1.07-1.61-2.71-2.7-4.61-3.08c-0.1-0.02-0.2-0.04-0.3-0.05c-2.68-0.42-5.28,0.69-6.85,2.71c-0.66,0.84-1.13,1.84-1.36,2.95     c-0.38,1.87,0,3.78,1.05,5.37c1.07,1.61,2.71,2.7,4.61,3.08c0.48,0.1,0.96,0.14,1.43,0.14c3.37,0,6.39-2.35,7.08-5.75     C172.71,131.87,172.34,129.96,171.28,128.37z M170.13,133.29c-0.54,2.67-3.17,4.4-5.87,3.86c-1.31-0.26-2.44-1.02-3.18-2.12     c-0.72-1.09-0.98-2.4-0.72-3.68c0.48-2.34,2.56-3.96,4.88-3.96c0.33,0,0.66,0.04,0.99,0.1c1.31,0.26,2.44,1.02,3.18,2.12     C170.13,130.71,170.39,132.01,170.13,133.29z M185.82,179.68c-0.21-0.03-0.4,0.11-0.43,0.31c-0.35,2.38-1.05,4.67-2.08,6.81     c-0.07,0.13-0.04,0.29,0.06,0.4c0.02,0.04,0.07,0.08,0.12,0.1c0.05,0.02,0.11,0.03,0.16,0.03c0.14,0,0.27-0.07,0.34-0.21     c0-0.01,0.01-0.02,0.01-0.03c1.06-2.19,1.77-4.54,2.13-6.99C186.16,179.9,186.02,179.71,185.82,179.68z M192.06,166.06     c-0.03-0.02-0.06-0.02-0.09-0.02c-0.01,0-0.01,0-0.01,0c-0.2,0-0.37,0.16-0.37,0.37c0,0.24,0,0.47-0.01,0.71     c0,0.01,0,0.01,0,0.02c0,0.64-0.02,1.28-0.05,1.91c-0.01,0.41-0.04,0.83-0.06,1.24c-0.31,5.35-1.24,10.63-2.76,15.75     c0,0.01,0,0.01,0,0.02c-0.05,0.19,0.07,0.39,0.25,0.45c0.04,0.01,0.07,0.01,0.11,0.01c0.16,0,0.31-0.1,0.36-0.27     c0.04-0.15,0.09-0.3,0.13-0.45c1.5-5.15,2.39-10.47,2.67-15.85c0.04-0.61,0.07-1.22,0.08-1.83c0.02-0.57,0.03-1.14,0.03-1.71     C192.34,166.24,192.22,166.1,192.06,166.06z M192.06,166.06c-0.03-0.02-0.06-0.02-0.09-0.02c-0.01,0-0.01,0-0.01,0     c-0.2,0-0.37,0.16-0.37,0.37c0,0.24,0,0.47-0.01,0.71c0,0.01,0,0.01,0,0.02c0,0.64-0.02,1.28-0.05,1.91     c-0.01,0.41-0.04,0.83-0.06,1.24c-0.31,5.35-1.24,10.63-2.76,15.75c0,0.01,0,0.01,0,0.02c-0.05,0.19,0.07,0.39,0.25,0.45     c0.04,0.01,0.07,0.01,0.11,0.01c0.16,0,0.31-0.1,0.36-0.27c0.04-0.15,0.09-0.3,0.13-0.45c1.5-5.15,2.39-10.47,2.67-15.85     c0.04-0.61,0.07-1.22,0.08-1.83c0.02-0.57,0.03-1.14,0.03-1.71C192.34,166.24,192.22,166.1,192.06,166.06z M185.82,179.68     c-0.21-0.03-0.4,0.11-0.43,0.31c-0.35,2.38-1.05,4.67-2.08,6.81c-0.07,0.13-0.04,0.29,0.06,0.4c0.02,0.04,0.07,0.08,0.12,0.1     c0.05,0.02,0.11,0.03,0.16,0.03c0.14,0,0.27-0.07,0.34-0.21c0-0.01,0.01-0.02,0.01-0.03c1.06-2.19,1.77-4.54,2.13-6.99     C186.16,179.9,186.02,179.71,185.82,179.68z M171.28,128.37c-1.07-1.61-2.71-2.7-4.61-3.08c-0.1-0.02-0.2-0.04-0.3-0.05     c-2.68-0.42-5.28,0.69-6.85,2.71c-0.66,0.84-1.13,1.84-1.36,2.95c-0.38,1.87,0,3.78,1.05,5.37c1.07,1.61,2.71,2.7,4.61,3.08     c0.48,0.1,0.96,0.14,1.43,0.14c3.37,0,6.39-2.35,7.08-5.75C172.71,131.87,172.34,129.96,171.28,128.37z M170.13,133.29     c-0.54,2.67-3.17,4.4-5.87,3.86c-1.31-0.26-2.44-1.02-3.18-2.12c-0.72-1.09-0.98-2.4-0.72-3.68c0.48-2.34,2.56-3.96,4.88-3.96     c0.33,0,0.66,0.04,0.99,0.1c1.31,0.26,2.44,1.02,3.18,2.12C170.13,130.71,170.39,132.01,170.13,133.29z M171.28,128.37     c-1.07-1.61-2.71-2.7-4.61-3.08c-0.1-0.02-0.2-0.04-0.3-0.05c-2.68-0.42-5.28,0.69-6.85,2.71c-0.66,0.84-1.13,1.84-1.36,2.95     c-0.38,1.87,0,3.78,1.05,5.37c1.07,1.61,2.71,2.7,4.61,3.08c0.48,0.1,0.96,0.14,1.43,0.14c3.37,0,6.39-2.35,7.08-5.75     C172.71,131.87,172.34,129.96,171.28,128.37z M170.13,133.29c-0.54,2.67-3.17,4.4-5.87,3.86c-1.31-0.26-2.44-1.02-3.18-2.12     c-0.72-1.09-0.98-2.4-0.72-3.68c0.48-2.34,2.56-3.96,4.88-3.96c0.33,0,0.66,0.04,0.99,0.1c1.31,0.26,2.44,1.02,3.18,2.12     C170.13,130.71,170.39,132.01,170.13,133.29z M185.82,179.68c-0.21-0.03-0.4,0.11-0.43,0.31c-0.35,2.38-1.05,4.67-2.08,6.81     c-0.07,0.13-0.04,0.29,0.06,0.4c0.02,0.04,0.07,0.08,0.12,0.1c0.05,0.02,0.11,0.03,0.16,0.03c0.14,0,0.27-0.07,0.34-0.21     c0-0.01,0.01-0.02,0.01-0.03c1.06-2.19,1.77-4.54,2.13-6.99C186.16,179.9,186.02,179.71,185.82,179.68z M192.06,166.06     c-0.03-0.02-0.06-0.02-0.09-0.02c-0.01,0-0.01,0-0.01,0c-0.2,0-0.37,0.16-0.37,0.37c0,0.24,0,0.47-0.01,0.71     c0,0.01,0,0.01,0,0.02c0,0.64-0.02,1.28-0.05,1.91c-0.01,0.41-0.04,0.83-0.06,1.24c-0.31,5.35-1.24,10.63-2.76,15.75     c0,0.01,0,0.01,0,0.02c-0.05,0.19,0.07,0.39,0.25,0.45c0.04,0.01,0.07,0.01,0.11,0.01c0.16,0,0.31-0.1,0.36-0.27     c0.04-0.15,0.09-0.3,0.13-0.45c1.5-5.15,2.39-10.47,2.67-15.85c0.04-0.61,0.07-1.22,0.08-1.83c0.02-0.57,0.03-1.14,0.03-1.71     C192.34,166.24,192.22,166.1,192.06,166.06z M192.06,166.06c-0.03-0.02-0.06-0.02-0.09-0.02c-0.01,0-0.01,0-0.01,0     c-0.2,0-0.37,0.16-0.37,0.37c0,0.24,0,0.47-0.01,0.71c0,0.01,0,0.01,0,0.02c0,0.64-0.02,1.28-0.05,1.91     c-0.01,0.41-0.04,0.83-0.06,1.24c-0.31,5.35-1.24,10.63-2.76,15.75c0,0.01,0,0.01,0,0.02c-0.05,0.19,0.07,0.39,0.25,0.45     c0.04,0.01,0.07,0.01,0.11,0.01c0.16,0,0.31-0.1,0.36-0.27c0.04-0.15,0.09-0.3,0.13-0.45c1.5-5.15,2.39-10.47,2.67-15.85     c0.04-0.61,0.07-1.22,0.08-1.83c0.02-0.57,0.03-1.14,0.03-1.71C192.34,166.24,192.22,166.1,192.06,166.06z M185.82,179.68     c-0.21-0.03-0.4,0.11-0.43,0.31c-0.35,2.38-1.05,4.67-2.08,6.81c-0.07,0.13-0.04,0.29,0.06,0.4c0.02,0.04,0.07,0.08,0.12,0.1     c0.05,0.02,0.11,0.03,0.16,0.03c0.14,0,0.27-0.07,0.34-0.21c0-0.01,0.01-0.02,0.01-0.03c1.06-2.19,1.77-4.54,2.13-6.99     C186.16,179.9,186.02,179.71,185.82,179.68z M171.28,128.37c-1.07-1.61-2.71-2.7-4.61-3.08c-0.1-0.02-0.2-0.04-0.3-0.05     c-2.68-0.42-5.28,0.69-6.85,2.71c-0.66,0.84-1.13,1.84-1.36,2.95c-0.38,1.87,0,3.78,1.05,5.37c1.07,1.61,2.71,2.7,4.61,3.08     c0.48,0.1,0.96,0.14,1.43,0.14c3.37,0,6.39-2.35,7.08-5.75C172.71,131.87,172.34,129.96,171.28,128.37z M170.13,133.29     c-0.54,2.67-3.17,4.4-5.87,3.86c-1.31-0.26-2.44-1.02-3.18-2.12c-0.72-1.09-0.98-2.4-0.72-3.68c0.48-2.34,2.56-3.96,4.88-3.96     c0.33,0,0.66,0.04,0.99,0.1c1.31,0.26,2.44,1.02,3.18,2.12C170.13,130.71,170.39,132.01,170.13,133.29z M171.28,128.37     c-1.07-1.61-2.71-2.7-4.61-3.08c-0.1-0.02-0.2-0.04-0.3-0.05c-2.68-0.42-5.28,0.69-6.85,2.71c-0.66,0.84-1.13,1.84-1.36,2.95     c-0.38,1.87,0,3.78,1.05,5.37c1.07,1.61,2.71,2.7,4.61,3.08c0.48,0.1,0.96,0.14,1.43,0.14c3.37,0,6.39-2.35,7.08-5.75     C172.71,131.87,172.34,129.96,171.28,128.37z M170.13,133.29c-0.54,2.67-3.17,4.4-5.87,3.86c-1.31-0.26-2.44-1.02-3.18-2.12     c-0.72-1.09-0.98-2.4-0.72-3.68c0.48-2.34,2.56-3.96,4.88-3.96c0.33,0,0.66,0.04,0.99,0.1c1.31,0.26,2.44,1.02,3.18,2.12     C170.13,130.71,170.39,132.01,170.13,133.29z M185.82,179.68c-0.21-0.03-0.4,0.11-0.43,0.31c-0.35,2.38-1.05,4.67-2.08,6.81     c-0.07,0.13-0.04,0.29,0.06,0.4c0.02,0.04,0.07,0.08,0.12,0.1c0.05,0.02,0.11,0.03,0.16,0.03c0.14,0,0.27-0.07,0.34-0.21     c0-0.01,0.01-0.02,0.01-0.03c1.06-2.19,1.77-4.54,2.13-6.99C186.16,179.9,186.02,179.71,185.82,179.68z M192.06,166.06     c-0.03-0.02-0.06-0.02-0.09-0.02c-0.01,0-0.01,0-0.01,0c-0.2,0-0.37,0.16-0.37,0.37c0,0.24,0,0.47-0.01,0.71     c0,0.01,0,0.01,0,0.02c0,0.64-0.02,1.28-0.05,1.91c-0.01,0.41-0.04,0.83-0.06,1.24c-0.31,5.35-1.24,10.63-2.76,15.75     c0,0.01,0,0.01,0,0.02c-0.05,0.19,0.07,0.39,0.25,0.45c0.04,0.01,0.07,0.01,0.11,0.01c0.16,0,0.31-0.1,0.36-0.27     c0.04-0.15,0.09-0.3,0.13-0.45c1.5-5.15,2.39-10.47,2.67-15.85c0.04-0.61,0.07-1.22,0.08-1.83c0.02-0.57,0.03-1.14,0.03-1.71     C192.34,166.24,192.22,166.1,192.06,166.06z M192.06,166.06c-0.03-0.02-0.06-0.02-0.09-0.02c-0.01,0-0.01,0-0.01,0     c-0.2,0-0.37,0.16-0.37,0.37c0,0.24,0,0.47-0.01,0.71c0,0.01,0,0.01,0,0.02c0,0.64-0.02,1.28-0.05,1.91     c-0.01,0.41-0.04,0.83-0.06,1.24c-0.31,5.35-1.24,10.63-2.76,15.75c0,0.01,0,0.01,0,0.02c-0.05,0.19,0.07,0.39,0.25,0.45     c0.04,0.01,0.07,0.01,0.11,0.01c0.16,0,0.31-0.1,0.36-0.27c0.04-0.15,0.09-0.3,0.13-0.45c1.5-5.15,2.39-10.47,2.67-15.85     c0.04-0.61,0.07-1.22,0.08-1.83c0.02-0.57,0.03-1.14,0.03-1.71C192.34,166.24,192.22,166.1,192.06,166.06z M185.82,179.68     c-0.21-0.03-0.4,0.11-0.43,0.31c-0.35,2.38-1.05,4.67-2.08,6.81c-0.07,0.13-0.04,0.29,0.06,0.4c0.02,0.04,0.07,0.08,0.12,0.1     c0.05,0.02,0.11,0.03,0.16,0.03c0.14,0,0.27-0.07,0.34-0.21c0-0.01,0.01-0.02,0.01-0.03c1.06-2.19,1.77-4.54,2.13-6.99     C186.16,179.9,186.02,179.71,185.82,179.68z M171.28,128.37c-1.07-1.61-2.71-2.7-4.61-3.08c-0.1-0.02-0.2-0.04-0.3-0.05     c-2.68-0.42-5.28,0.69-6.85,2.71c-0.66,0.84-1.13,1.84-1.36,2.95c-0.38,1.87,0,3.78,1.05,5.37c1.07,1.61,2.71,2.7,4.61,3.08     c0.48,0.1,0.96,0.14,1.43,0.14c3.37,0,6.39-2.35,7.08-5.75C172.71,131.87,172.34,129.96,171.28,128.37z M170.13,133.29     c-0.54,2.67-3.17,4.4-5.87,3.86c-1.31-0.26-2.44-1.02-3.18-2.12c-0.72-1.09-0.98-2.4-0.72-3.68c0.48-2.34,2.56-3.96,4.88-3.96     c0.33,0,0.66,0.04,0.99,0.1c1.31,0.26,2.44,1.02,3.18,2.12C170.13,130.71,170.39,132.01,170.13,133.29z M171.28,128.37     c-1.07-1.61-2.71-2.7-4.61-3.08c-0.1-0.02-0.2-0.04-0.3-0.05c-2.68-0.42-5.28,0.69-6.85,2.71c-0.66,0.84-1.13,1.84-1.36,2.95     c-0.38,1.87,0,3.78,1.05,5.37c1.07,1.61,2.71,2.7,4.61,3.08c0.48,0.1,0.96,0.14,1.43,0.14c3.37,0,6.39-2.35,7.08-5.75     C172.71,131.87,172.34,129.96,171.28,128.37z M170.13,133.29c-0.54,2.67-3.17,4.4-5.87,3.86c-1.31-0.26-2.44-1.02-3.18-2.12     c-0.72-1.09-0.98-2.4-0.72-3.68c0.48-2.34,2.56-3.96,4.88-3.96c0.33,0,0.66,0.04,0.99,0.1c1.31,0.26,2.44,1.02,3.18,2.12     C170.13,130.71,170.39,132.01,170.13,133.29z M185.82,179.68c-0.21-0.03-0.4,0.11-0.43,0.31c-0.35,2.38-1.05,4.67-2.08,6.81     c-0.07,0.13-0.04,0.29,0.06,0.4c0.21-0.03,0.42-0.07,0.63-0.11c1.06-2.19,1.77-4.54,2.13-6.99     C186.16,179.9,186.02,179.71,185.82,179.68z M191.97,166.04c-0.01,0-0.01,0-0.01,0c-0.2,0-0.37,0.16-0.37,0.37     c0,0.24,0,0.47-0.01,0.71c0.17-0.31,0.33-0.65,0.48-1.06C192.03,166.04,192,166.04,191.97,166.04z M171.28,128.37     c-1.07-1.61-2.71-2.7-4.61-3.08c-0.1-0.02-0.2-0.04-0.3-0.05c-2.68-0.42-5.28,0.69-6.85,2.71c-0.66,0.84-1.13,1.84-1.36,2.95     c-0.38,1.87,0,3.78,1.05,5.37c1.07,1.61,2.71,2.7,4.61,3.08c0.48,0.1,0.96,0.14,1.43,0.14c3.37,0,6.39-2.35,7.08-5.75     C172.71,131.87,172.34,129.96,171.28,128.37z M170.13,133.29c-0.54,2.67-3.17,4.4-5.87,3.86c-1.31-0.26-2.44-1.02-3.18-2.12     c-0.72-1.09-0.98-2.4-0.72-3.68c0.48-2.34,2.56-3.96,4.88-3.96c0.33,0,0.66,0.04,0.99,0.1c1.31,0.26,2.44,1.02,3.18,2.12     C170.13,130.71,170.39,132.01,170.13,133.29z"/>
                <path class="st0" d="M195.06,124.84c-1.48-3.96-4.85-6.83-8.8-7.49c-4.03-0.66-9.66-1.46-13.54-1.42     c-7.72,0.06-18.77,1.05-27.54,1.9c-0.49,0.05-0.91,0.3-1.2,0.71c-1.01,1.43-0.27,4.99,1.68,12.73c0.02,0.08,0.04,0.17,0.06,0.26     c0.07,0.28,0.14,0.55,0.21,0.83c0.09,0.37,0.19,0.73,0.27,1.1c0.72,2.87,1.37,5.64,1.6,7.57c1.72,14.39,1.87,24.43,1.34,32.07     c-0.07,1.05-0.16,2.06-0.25,3.02c-0.05,0.42-0.09,0.84-0.13,1.24c-0.04,0.28-0.07,0.55-0.1,0.82c-0.02,0.14-0.03,0.29-0.05,0.43     c-0.53,4.18-1.23,7.59-1.89,10.74l-0.24,1.16c-0.09,0.47,0.13,0.96,0.55,1.2c3.88,2.2,14.52,3.21,24.55,3.21     c9.48,0,18.41-0.9,20.56-2.55c3.86-2.96,5.67-9.53,6.13-12.95C202.39,149.01,197.39,131.12,195.06,124.84z M194.75,184.27     c-0.95,2.63-2.33,5.06-3.98,6.32c-3.68,2.82-33.88,2.98-41.91-0.48l0.06-0.3c0.28-1.34,0.56-2.72,0.84-4.18v-0.01     c0.45-2.36,0.88-4.95,1.22-7.9c0.05-0.41,0.09-0.83,0.13-1.25c0.04-0.41,0.08-0.82,0.12-1.24c0.7-7.99,0.69-18.64-1.2-34.46     c-0.25-2.05-0.91-4.9-1.64-7.82c-0.09-0.37-0.18-0.73-0.27-1.09c-0.07-0.3-0.15-0.59-0.22-0.88c-0.02-0.07-0.03-0.13-0.05-0.2     c-0.95-3.78-2.32-9.24-2.07-10.75c8.66-0.84,19.44-1.79,26.96-1.85c3.74-0.04,9.21,0.74,13.15,1.39c2.36,0.39,4.47,1.78,5.88,3.8     c0.4,0.58,0.75,1.2,1.03,1.87c0.05,0.12,0.1,0.25,0.15,0.38c1.06,2.86,2.68,8.16,3.7,16.04c0.32,2.49,0.59,5.23,0.76,8.24     c0.43,7.91,0.21,17.63-1.36,29.22C195.83,180.75,195.38,182.55,194.75,184.27z"/>
            </g>
            <g>
                <path class="st0" d="M166.45,126.39c-3.3-0.66-6.52,1.46-7.19,4.74c-0.66,3.27,1.48,6.46,4.78,7.12     c3.31,0.66,6.52-1.46,7.19-4.74C171.89,130.24,169.75,127.05,166.45,126.39z M170.13,133.29c-0.54,2.67-3.17,4.4-5.87,3.86     c-1.31-0.26-2.44-1.02-3.18-2.12c-0.72-1.09-0.98-2.4-0.72-3.68c0.48-2.34,2.56-3.96,4.88-3.96c0.33,0,0.66,0.04,0.99,0.1     c1.31,0.26,2.44,1.02,3.18,2.12C170.13,130.71,170.39,132.01,170.13,133.29z"/>
                <path class="st0" d="M171.28,128.37c-1.07-1.61-2.71-2.7-4.61-3.08c-0.1-0.02-0.2-0.04-0.3-0.05c-2.68-0.42-5.28,0.69-6.85,2.71     c-0.66,0.84-1.13,1.84-1.36,2.95c-0.38,1.87,0,3.78,1.05,5.37c1.07,1.61,2.71,2.7,4.61,3.08c0.48,0.1,0.96,0.14,1.43,0.14     c3.37,0,6.39-2.35,7.08-5.75C172.71,131.87,172.34,129.96,171.28,128.37z M170.13,133.29c-0.54,2.67-3.17,4.4-5.87,3.86     c-1.31-0.26-2.44-1.02-3.18-2.12c-0.72-1.09-0.98-2.4-0.72-3.68c0.48-2.34,2.56-3.96,4.88-3.96c0.33,0,0.66,0.04,0.99,0.1     c1.31,0.26,2.44,1.02,3.18,2.12C170.13,130.71,170.39,132.01,170.13,133.29z"/>
            </g>
            <g>
                <path class="st0" d="M192.34,166.41c0,0.57-0.01,1.14-0.03,1.71c-0.01,0.61-0.04,1.22-0.08,1.83c-0.28,5.38-1.17,10.7-2.67,15.85     c-0.04,0.15-0.09,0.3-0.13,0.45c-0.05,0.17-0.2,0.27-0.36,0.27c-0.04,0-0.07,0-0.11-0.01c-0.18-0.06-0.3-0.26-0.25-0.45     c0-0.01,0-0.01,0-0.02c1.52-5.12,2.45-10.4,2.76-15.75c0.02-0.41,0.05-0.83,0.06-1.24c0.03-0.63,0.05-1.27,0.05-1.91     c0-0.01,0-0.01,0-0.02c0.01-0.24,0.01-0.47,0.01-0.71c0-0.21,0.17-0.37,0.37-0.37c0,0,0,0,0.01,0c0.03,0,0.06,0,0.09,0.02     C192.22,166.1,192.34,166.24,192.34,166.41z"/>
            </g>
            <g>
                <path class="st0" d="M186.13,180.1c-0.36,2.45-1.07,4.8-2.13,6.99c0,0.01-0.01,0.02-0.01,0.03c-0.07,0.14-0.2,0.21-0.34,0.21     c-0.05,0-0.11-0.01-0.16-0.03c-0.05-0.02-0.1-0.06-0.12-0.1c-0.1-0.11-0.13-0.27-0.06-0.4c1.03-2.14,1.73-4.43,2.08-6.81     c0.03-0.2,0.22-0.34,0.43-0.31C186.02,179.71,186.16,179.9,186.13,180.1z"/>
            </g>
            <g>
                <path class="st0" d="M61,163.76c-0.18,0.42-0.59,0.66-1.02,0.66c-0.15,0-0.31-0.03-0.46-0.1c-0.04-0.02-0.08-0.04-0.12-0.06     c-4.07-1.84-8.05-3.8-11.87-5.84c-0.67-0.36-1.33-0.72-1.99-1.09c-6.55-3.59-12.64-7.45-18.09-11.46     c-1.33-0.97-2.61-1.95-3.86-2.94c-0.54-0.43-1.19-0.98-1.92-1.6c-1.03-0.88-2.23-1.9-3.54-2.92c-2.71-2.12-5.87-4.24-8.87-5.07     c-0.02,0-0.04-0.01-0.05-0.01c-1.48-0.4-2.91-0.48-4.24-0.09c-0.07,0.01-0.14,0.03-0.21,0.06c-0.01,0-0.01,0-0.01,0     c-0.06,0.02-0.12,0.04-0.18,0.06c-0.02,0.01-0.03,0.01-0.05,0.01c-0.46,0.15-0.96-0.02-1.24-0.4c-0.06-0.09-0.11-0.18-0.15-0.28     c-0.15-0.4-0.05-0.84,0.22-1.14c0.03-0.03,0.06-0.06,0.1-0.1c0.1-0.08,0.22-0.15,0.35-0.2c0.14-0.05,0.29-0.1,0.44-0.14     c0.06-0.02,0.12-0.04,0.18-0.05c0.05-0.02,0.11-0.04,0.17-0.05c0.36-0.1,0.74-0.17,1.11-0.2c1.13-0.14,2.28-0.05,3.44,0.21     c3.65,0.8,7.35,3.26,10.44,5.68c0,0.01,0.01,0.01,0.01,0.01c1.3,1.02,2.49,2.03,3.53,2.91c0.71,0.6,1.34,1.13,1.87,1.55     c6.26,4.96,13.56,9.75,21.55,14.15c0.65,0.37,1.31,0.73,1.97,1.08c2.23,1.2,4.51,2.36,6.83,3.49c1.68,0.82,3.38,1.61,5.1,2.39     C61.01,162.53,61.26,163.2,61,163.76z"/>
            </g>
            <g>
                <path class="st0" d="M61.08,151.25c-0.12,0.52-0.58,0.88-1.1,0.88c-0.08,0-0.16-0.01-0.24-0.03c-0.6-0.13-1.21-0.29-1.82-0.46     c-0.03-0.01-0.06-0.02-0.1-0.03c-0.25-0.07-0.51-0.14-0.76-0.23c-0.93-0.27-1.86-0.59-2.79-0.95c-3.55-1.33-7.11-3.15-10.58-5.18     c-5.42-3.19-10.63-6.92-15.26-10.24c-0.21-0.15-0.42-0.3-0.62-0.45c-4.14-2.96-7.75-5.52-10.64-7.05     c-0.17-0.09-0.34-0.18-0.51-0.26c-0.54-0.27-0.77-0.91-0.53-1.46c0-0.02,0.01-0.03,0.02-0.05c0.28-0.55,0.95-0.78,1.51-0.5     c0.23,0.12,0.47,0.24,0.71,0.37c0.34,0.18,0.68,0.38,1.04,0.58c2.94,1.7,6.41,4.19,10.33,7c8.29,5.94,18.47,13.24,28.19,16.12     h0.01c0.72,0.22,1.44,0.41,2.16,0.57c0.04,0.01,0.09,0.02,0.13,0.03c0.43,0.09,0.75,0.42,0.84,0.83     C61.11,150.9,61.12,151.08,61.08,151.25z"/>
            </g>
            <g class="st2">
                <path class="st0" d="M184,187.09c0,0.01-0.01,0.02-0.01,0.03c-0.07,0.14-0.2,0.21-0.34,0.21c-0.05,0-0.11-0.01-0.16-0.03     c-0.05-0.02-0.1-0.06-0.12-0.1C183.58,187.17,183.79,187.13,184,187.09z"/>
                <path class="st0" d="M189.56,185.8c-0.04,0.15-0.09,0.3-0.13,0.45c-0.05,0.17-0.2,0.27-0.36,0.27c-0.04,0-0.07,0-0.11-0.01     c-0.18-0.06-0.3-0.26-0.25-0.45C189.01,185.98,189.3,185.89,189.56,185.8z"/>
                <path class="st0" d="M195.67,186.12c0.05,1.27-1,1.99-1.86,2.67c0,0,0,0.01-0.01,0.02c-0.03,0.02-0.06,0.05-0.09,0.07     c-0.98,1.42-6.1,3.35-10.47,3.99c-3.17,0.55-6.37,0.84-9.57,0.92h-0.07c-1.12,0.01-2.24,0.01-3.37,0h-0.2     c-2.71-0.06-5.43-0.27-8.13-0.56c-5.14-0.6-6.42-0.39-11.85-1.64c-1.23-0.32-1.95-1.36-2.13-2.5c-0.13-0.82,0.02-1.7,0.48-2.38     v-0.01c0.29-0.45,0.72-0.82,1.29-1.04c0.02-0.01,0.05-0.03,0.07-0.03c-0.28,1.46-0.56,2.84-0.84,4.18l-0.06,0.3     c8.03,3.46,38.23,3.3,41.91,0.48c1.65-1.26,3.03-3.69,3.98-6.32c0.36,0.26,0.65,0.62,0.8,1.06c0,0,0,0,0,0.01     C195.64,185.58,195.68,185.84,195.67,186.12z"/>
            </g>
            <g>
                <g class="st2">
                    <path class="st0" d="M80.5,188.26c-0.01,0-0.02-0.01-0.03-0.01h0.01C80.49,188.25,80.49,188.26,80.5,188.26z"/>
                </g>
                <g class="st2">
                    <path class="st0" d="M150.17,174.25v-0.01c-0.02-0.05-0.04-0.09-0.07-0.14c-0.24-0.45-0.58-0.77-0.96-1      c-0.07,1.05-0.16,2.06-0.25,3.02c-19.68,7.44-50.56,18.53-58.33,16.94c-4.21-0.87-8.6-2.08-13.02-3.52      c-0.13,0.37-0.16,0.77-0.1,1.16c0.07,0.54,0.31,1.05,0.7,1.4c0.22,0.22,0.5,0.38,0.82,0.46c1.84,0.67,3.74,1.14,5.66,1.41      c0.95,0.14,1.91,0.22,2.88,0.26c1.58,0.12,3.15,0.17,4.72,0.1c0.92-0.04,1.84-0.12,2.76-0.26c0.84-0.07,1.67-0.16,2.49-0.27      c6.68-0.9,13.11-3.09,19.54-5.13c2.15-0.42,8.52-2.76,12.75-4.17c5.21-1.66,10.39-3.36,15.49-5.34      c0.43-0.18,1.67-0.54,1.68-0.61c0.03,0,0.07-0.01,0.11-0.01c0.57-0.01,1.13-0.13,1.62-0.36s0.92-0.56,1.23-0.96      c0.1-0.12,0.19-0.25,0.26-0.39c0.21-0.39,0.33-0.83,0.32-1.31C150.46,175.12,150.37,174.7,150.17,174.25z"/>
                </g>
            </g>
        </g>
        <path class="st0" d="M124.36,48.37c0.54,0.48,0.65,1.27,0.28,1.88l-22.82,37.37c-0.25,0.42-0.69,0.68-1.17,0.71   c-0.04,0.01-0.07,0.01-0.1,0.01c-0.45,0-0.88-0.21-1.16-0.56l-23.62-29.4c-0.47-0.59-0.43-1.45,0.11-1.99l8-7.94   c0.3-0.3,0.71-0.46,1.14-0.43c0.42,0.02,0.81,0.23,1.08,0.56l12.74,16.03l14.82-23.49c0.23-0.37,0.61-0.62,1.05-0.68   c0.43-0.06,0.87,0.08,1.2,0.37L124.36,48.37z"/>
        <path class="st0" d="M101.59,6.05c-5.85,9.43-15.41,18.42-45.76,22.28c-1.24,17.51,0.18,35.2,4.19,52.29   c1.05,4.45,2.29,8.92,4.51,12.93c7.64,13.77,23.31,18.64,36.21,29.19c11.78-13.29,27.99-9.82,36.54-31.46   c7.48-18.97,7.63-40.28,7.63-63.69C127.68,26.92,105.11,13.65,101.59,6.05z M135.89,90.73c-4.95,12.54-12.49,16.25-20.48,20.17   c-5.02,2.47-10.2,5.02-14.82,9.81c-4.25-3.34-8.74-6.11-13.09-8.81c-8.68-5.37-16.87-10.44-21.67-19.08   c-2.15-3.89-3.37-8.33-4.36-12.55c-3.9-16.59-5.32-33.62-4.24-50.62c28.05-3.77,38.32-12.08,44.34-20.85   c6.02,7.8,25.65,18.97,41.85,20.19C143.42,51.14,143.26,72.06,135.89,90.73z"/>
        <path class="st0" d="M144.97,26.1c-16.72-0.65-38.73-13.56-42.03-20.68c-0.23-0.49-0.71-0.83-1.26-0.86   c-0.53-0.03-1.07,0.24-1.35,0.7c-5.57,8.97-14.83,17.79-44.69,21.59c-0.7,0.09-1.25,0.67-1.3,1.38   c-1.25,17.7,0.17,35.44,4.23,52.73c1.04,4.42,2.32,9.1,4.66,13.31c5.17,9.32,13.68,14.59,22.7,20.17   c4.65,2.87,9.45,5.84,13.86,9.46c0.28,0.22,0.61,0.33,0.94,0.33c0.42,0,0.83-0.17,1.12-0.5c4.47-5.04,9.53-7.53,14.88-10.16   c8.14-4,16.56-8.14,21.93-21.74c7.74-19.6,7.74-42.29,7.74-64.24C146.4,26.79,145.77,26.13,144.97,26.1z M115.41,110.9   c-5.02,2.47-10.2,5.02-14.82,9.81c-4.25-3.34-8.74-6.11-13.09-8.81c-8.68-5.37-16.87-10.44-21.67-19.08   c-2.15-3.89-3.37-8.33-4.36-12.55c-3.9-16.59-5.32-33.62-4.24-50.62c28.05-3.77,38.32-12.08,44.34-20.85   c6.02,7.8,25.65,18.97,41.85,20.19c0,22.15-0.16,43.07-7.53,61.74C130.94,103.27,123.4,106.98,115.41,110.9z"/>
        <g>
            <polygon class="st1" points="84.93,49.51 76.93,57.45 100.55,86.85 123.37,49.48 114.92,41.92 98.98,67.18   "/>
            <path class="st0" d="M124.36,48.37l-8.45-7.56c-0.33-0.29-0.77-0.43-1.2-0.37c-0.44,0.06-0.82,0.31-1.05,0.68L98.84,64.61    L86.1,48.58c-0.27-0.33-0.66-0.54-1.08-0.56c-0.43-0.03-0.84,0.13-1.14,0.43l-8,7.94c-0.54,0.54-0.58,1.4-0.11,1.99l23.62,29.4    c0.28,0.35,0.71,0.56,1.16,0.56c0.03,0,0.06,0,0.1-0.01c0.48-0.03,0.92-0.29,1.17-0.71l22.82-37.37    C125.01,49.64,124.9,48.85,124.36,48.37z M78.93,57.56l5.87-5.83l13.01,16.38c0.3,0.37,0.76,0.57,1.25,0.56    c0.48-0.03,0.92-0.29,1.18-0.7l15-23.77l6.21,5.56l-21.07,34.5L78.93,57.56z"/>
        </g>
    </g>
    </svg>