<svg xmlns="http://www.w3.org/2000/svg" xmlns:xlink="http://www.w3.org/1999/xlink" version="1.1" id="Layer_1" x="0px" y="0px" viewBox="0 0 200 200" style="enable-background:new 0 0 200 200;" xml:space="preserve">
    <style type="text/css">
        .st0{fill:#FFFFFF;}
        .st1{fill:#ACD4F7;}
        .st2{opacity:0.1294;}
    </style>
    <g>
        <g>
            <path class="st0" d="M109.04,69.28c0-0.34-0.01-0.68-0.01-1.01c0-0.34,0-0.67-0.01-1l-1-0.01L91.5,67.2l-1.01-0.01    c0.01,0.33,0.02,0.67,0.02,1c0.02,0.34,0.03,0.68,0.03,1.01c0.72,30.25,0.84,60.53,0.61,90.73c0.01,0.34,0.01,0.67,0,1.01    c0,0.34,0,0.67-0.01,1.01h1.02c5.16,0,10.34,0,15.54,0.02h1.01c0.01-0.34,0.02-0.68,0.02-1.01c0.02-0.34,0.02-0.67,0.03-1.01    C109.41,128.94,109.25,99.07,109.04,69.28z M92.17,159.93c0.25-33.25,0.04-63.04-0.62-90.72l16.48,0.06    c0.21,29.38,0.37,59.64-0.28,90.68C102.54,159.94,97.34,159.93,92.17,159.93z"/>
            <path class="st0" d="M110.05,69.28c0-0.33,0-0.67-0.01-1.01v-1h-1.02l-1-0.01c0,0.33,0,0.66,0.01,1v1.01    c0.21,29.38,0.37,59.64-0.28,90.68c-0.01,0.34-0.02,0.67-0.03,1.01c0,0.34-0.01,0.67-0.02,1.01h1.01c0.33,0.01,0.67,0.01,1,0.01    c0.02-0.34,0.02-0.67,0.02-1.01c0.02-0.34,0.03-0.67,0.03-1.01C110.42,128.93,110.25,98.68,110.05,69.28z M91.55,69.21    c-0.01-0.34-0.02-0.67-0.02-1.01c-0.01-0.34-0.02-0.67-0.03-1l-1.01-0.01h-1.01c0.01,0.33,0.02,0.67,0.03,1    c0.01,0.34,0.01,0.67,0.02,1.01c0.67,27.69,0.87,57.48,0.63,90.74c-0.01,0.33-0.01,0.67-0.01,1.01c-0.01,0.33-0.01,0.67-0.01,1.01    c0.33-0.01,0.66-0.01,1-0.01h1.02v-1.01c0.01-0.34,0.01-0.68,0.01-1.01C92.42,126.68,92.21,96.89,91.55,69.21z"/>
        </g>
        <g>
            <path class="st0" d="M73.1,69.13c0-0.34-0.01-0.68-0.01-1.01c0-0.34,0-0.67-0.01-1h-0.99l-16.45-0.07h-1.02    c0.02,0.34,0.02,0.67,0.03,1c0.01,0.34,0.02,0.68,0.02,1.01c0.67,30.35,0.74,60.71,0.48,91v1.02c0,0.32-0.01,0.63-0.01,0.95    c0.34,0.01,0.69,0.03,1.03,0.04h0.08c5.44-0.02,10.9-0.05,16.39-0.07c0.01-0.34,0.02-0.68,0.02-1.01    c0.01-0.34,0.02-0.68,0.03-1.02C73.42,128.86,73.3,98.93,73.1,69.13z M56.17,160.06c0.28-33.38,0.12-63.27-0.49-90.99l16.42,0.06    c0.2,29.44,0.31,59.76-0.42,90.85C66.49,160,61.32,160.03,56.17,160.06z"/>
            <path class="st0" d="M74.11,69.14l-1.01-0.01c0-0.34-0.01-0.68-0.01-1.01h-0.6c-0.01,0-0.01,0-0.02,0c0,0-0.01,0-0.02,0h-0.04    c-0.02,0.01-0.04,0.01-0.05,0c-0.01,0-0.01,0-0.01,0c-0.01,0-0.01,0-0.01,0H72.3c-0.01,0-0.01,0-0.02,0c-0.01,0-0.01,0-0.02,0    s-0.01,0-0.02,0H72.1v1.01c0.2,29.44,0.31,59.76-0.42,90.85c0,0.34-0.01,0.68-0.02,1.02c0.33-0.01,0.67-0.01,1-0.01    c0.01-0.34,0.02-0.68,0.03-1.02c0.33,0.01,0.66,0,1,0C74.43,128.88,74.31,98.58,74.11,69.14z M74.11,69.14l-1.01-0.01    c0-0.34-0.01-0.68-0.01-1.01h-0.6c-0.01,0-0.01,0-0.02,0c0,0-0.01,0-0.02,0h-0.04c-0.02,0.01-0.04,0.01-0.05,0    c-0.01,0-0.01,0-0.01,0c-0.01,0-0.01,0-0.01,0H72.3c-0.01,0-0.01,0-0.02,0c-0.01,0-0.01,0-0.02,0s-0.01,0-0.02,0H72.1v1.01    c0.2,29.44,0.31,59.76-0.42,90.85c0,0.34-0.01,0.68-0.02,1.02c0.33-0.01,0.67-0.01,1-0.01c0.01-0.34,0.02-0.68,0.03-1.02    c0.33,0.01,0.66,0,1,0C74.43,128.88,74.31,98.58,74.11,69.14z M74.11,69.14l-1.01-0.01c0-0.34-0.01-0.68-0.01-1.01h-0.6    c-0.01,0-0.01,0-0.02,0c0,0-0.01,0-0.02,0h-0.04c-0.02,0.01-0.04,0.01-0.05,0c-0.01,0-0.01,0-0.01,0c-0.01,0-0.01,0-0.01,0H72.3    c-0.01,0-0.01,0-0.02,0c-0.01,0-0.01,0-0.02,0s-0.01,0-0.02,0H72.1v1.01c0.2,29.44,0.31,59.76-0.42,90.85    c0,0.34-0.01,0.68-0.02,1.02c0.33-0.01,0.67-0.01,1-0.01c0.01-0.34,0.02-0.68,0.03-1.02c0.33,0.01,0.66,0,1,0    C74.43,128.88,74.31,98.58,74.11,69.14z M74.11,69.14l-1.01-0.01c0-0.34-0.01-0.68-0.01-1.01h-0.6c-0.01,0-0.01,0-0.02,0    c0,0-0.01,0-0.02,0h-0.04c-0.02,0.01-0.04,0.01-0.05,0c-0.01,0-0.01,0-0.01,0c-0.01,0-0.01,0-0.01,0H72.3c-0.01,0-0.01,0-0.02,0    c-0.01,0-0.01,0-0.02,0s-0.01,0-0.02,0H72.1v1.01c0.2,29.44,0.31,59.76-0.42,90.85c0,0.34-0.01,0.68-0.02,1.02    c0.33-0.01,0.67-0.01,1-0.01c0.01-0.34,0.02-0.68,0.03-1.02c0.33,0.01,0.66,0,1,0C74.43,128.88,74.31,98.58,74.11,69.14z     M74.11,69.14l-1.01-0.01c0-0.34-0.01-0.68-0.01-1.01h-0.6c-0.01,0-0.01,0-0.02,0c0,0-0.01,0-0.02,0h-0.04    c-0.02,0.01-0.04,0.01-0.05,0c-0.01,0-0.01,0-0.01,0c-0.01,0-0.01,0-0.01,0H72.3c-0.01,0-0.01,0-0.02,0c-0.01,0-0.01,0-0.02,0    s-0.01,0-0.02,0H72.1v1.01c0.2,29.44,0.31,59.76-0.42,90.85c0,0.34-0.01,0.68-0.02,1.02c0.33-0.01,0.67-0.01,1-0.01    c0.01-0.34,0.02-0.68,0.03-1.02c0.33,0.01,0.66,0,1,0C74.43,128.88,74.31,98.58,74.11,69.14z M74.11,69.14l-1.01-0.01    c0-0.34-0.01-0.68-0.01-1.01h-0.6c-0.01,0-0.01,0-0.02,0c0,0-0.01,0-0.02,0h-0.04c-0.02,0.01-0.04,0.01-0.05,0    c-0.01,0-0.01,0-0.01,0c-0.01,0-0.01,0-0.01,0H72.3c-0.01,0-0.01,0-0.02,0c-0.01,0-0.01,0-0.02,0s-0.01,0-0.02,0H72.1v1.01    c0.2,29.44,0.31,59.76-0.42,90.85c0,0.34-0.01,0.68-0.02,1.02c0.33-0.01,0.67-0.01,1-0.01c0.01-0.34,0.02-0.68,0.03-1.02    c0.33,0.01,0.66,0,1,0C74.43,128.88,74.31,98.58,74.11,69.14z M74.11,69.14l-1.01-0.01c0-0.34-0.01-0.68-0.01-1.01h-0.6    c-0.01,0-0.01,0-0.02,0c0,0-0.01,0-0.02,0h-0.04c-0.02,0.01-0.04,0.01-0.05,0c-0.01,0-0.01,0-0.01,0c-0.01,0-0.01,0-0.01,0H72.3    c-0.01,0-0.01,0-0.02,0c-0.01,0-0.01,0-0.02,0s-0.01,0-0.02,0H72.1v1.01c0.2,29.44,0.31,59.76-0.42,90.85    c0,0.34-0.01,0.68-0.02,1.02c0.33-0.01,0.67-0.01,1-0.01c0.01-0.34,0.02-0.68,0.03-1.02c0.33,0.01,0.66,0,1,0    C74.43,128.88,74.31,98.58,74.11,69.14z M74.11,69.14l-1.01-0.01c0-0.34-0.01-0.68-0.01-1.01h-0.6c-0.01,0-0.01,0-0.02,0    c0,0-0.01,0-0.02,0h-0.04c-0.02,0.01-0.04,0.01-0.05,0c-0.01,0-0.01,0-0.01,0c-0.01,0-0.01,0-0.01,0H72.3c-0.01,0-0.01,0-0.02,0    c-0.01,0-0.01,0-0.02,0s-0.01,0-0.02,0H72.1v1.01c0.2,29.44,0.31,59.76-0.42,90.85c0,0.34-0.01,0.68-0.02,1.02    c0.33-0.01,0.67-0.01,1-0.01c0.01-0.34,0.02-0.68,0.03-1.02c0.33,0.01,0.66,0,1,0C74.43,128.88,74.31,98.58,74.11,69.14z     M74.11,69.14c0-0.34,0-0.68-0.01-1.01v-1l-1.02-0.01h-0.99c0,0.33,0,0.66,0.01,1v1.01c0.2,29.44,0.31,59.76-0.42,90.85    c0,0.34-0.01,0.68-0.02,1.02c0,0.15-0.01,0.3-0.01,0.45c-5.09-0.05-10.25-0.18-15.33-0.38h-0.16c0-0.34,0.01-0.68,0.01-1.01    c0.28-33.38,0.12-63.27-0.49-90.99c-0.01-0.34-0.02-0.68-0.02-1.01c-0.01-0.34-0.02-0.68-0.02-1.01h-2.03    c0.01,0.33,0.02,0.67,0.03,1c0.01,0.34,0.01,0.67,0.02,1.01c0.61,27.74,0.77,57.63,0.49,91.01c-0.01,0.34-0.01,0.67-0.01,1.01    c0,0.31-0.01,0.63-0.01,0.94c0,0.02,0,0.05,0.01,0.07c0.68-0.01,1.34-0.01,2.03-0.02h0.08c5.44-0.02,10.9-0.05,16.39-0.07    c0.33-0.01,0.66-0.01,1-0.01c0.01-0.34,0.02-0.67,0.02-1c0.02-0.34,0.02-0.68,0.03-1.02C74.43,128.88,74.31,98.58,74.11,69.14z     M74.11,69.14l-1.01-0.01c0-0.34-0.01-0.68-0.01-1.01h-0.6c-0.01,0-0.01,0-0.02,0c0,0-0.01,0-0.02,0h-0.04    c-0.02,0.01-0.04,0.01-0.05,0c-0.01,0-0.01,0-0.01,0c-0.01,0-0.01,0-0.01,0H72.3c-0.01,0-0.01,0-0.02,0c-0.01,0-0.01,0-0.02,0    s-0.01,0-0.02,0H72.1v1.01c0.2,29.44,0.31,59.76-0.42,90.85c0,0.34-0.01,0.68-0.02,1.02c0.33-0.01,0.67-0.01,1-0.01    c0.01-0.34,0.02-0.68,0.03-1.02c0.33,0.01,0.66,0,1,0C74.43,128.88,74.31,98.58,74.11,69.14z M74.11,69.14l-1.01-0.01    c0-0.34-0.01-0.68-0.01-1.01h-0.6c-0.01,0-0.01,0-0.02,0c0,0-0.01,0-0.02,0h-0.04c-0.02,0.01-0.04,0.01-0.05,0    c-0.01,0-0.01,0-0.01,0c-0.01,0-0.01,0-0.01,0H72.3c-0.01,0-0.01,0-0.02,0c-0.01,0-0.01,0-0.02,0s-0.01,0-0.02,0H72.1v1.01    c0.2,29.44,0.31,59.76-0.42,90.85c0,0.34-0.01,0.68-0.02,1.02c0.33-0.01,0.67-0.01,1-0.01c0.01-0.34,0.02-0.68,0.03-1.02    c0.33,0.01,0.66,0,1,0C74.43,128.88,74.31,98.58,74.11,69.14z M74.11,69.14l-1.01-0.01c0-0.34-0.01-0.68-0.01-1.01h-0.6    c-0.01,0-0.01,0-0.02,0c0,0-0.01,0-0.02,0h-0.04c-0.02,0.01-0.04,0.01-0.05,0c-0.01,0-0.01,0-0.01,0c-0.01,0-0.01,0-0.01,0H72.3    c-0.01,0-0.01,0-0.02,0c-0.01,0-0.01,0-0.02,0s-0.01,0-0.02,0H72.1v1.01c0.2,29.44,0.31,59.76-0.42,90.85    c0,0.34-0.01,0.68-0.02,1.02c0.33-0.01,0.67-0.01,1-0.01c0.01-0.34,0.02-0.68,0.03-1.02c0.33,0.01,0.66,0,1,0    C74.43,128.88,74.31,98.58,74.11,69.14z M74.11,69.14l-1.01-0.01c0-0.34-0.01-0.68-0.01-1.01h-0.6c-0.01,0-0.01,0-0.02,0    c0,0-0.01,0-0.02,0h-0.04c-0.02,0.01-0.04,0.01-0.05,0c-0.01,0-0.01,0-0.01,0c-0.01,0-0.01,0-0.01,0H72.3c-0.01,0-0.01,0-0.02,0    c-0.01,0-0.01,0-0.02,0s-0.01,0-0.02,0H72.1v1.01c0.2,29.44,0.31,59.76-0.42,90.85c0,0.34-0.01,0.68-0.02,1.02    c0.33-0.01,0.67-0.01,1-0.01c0.01-0.34,0.02-0.68,0.03-1.02c0.33,0.01,0.66,0,1,0C74.43,128.88,74.31,98.58,74.11,69.14z     M74.11,69.14l-1.01-0.01c0-0.34-0.01-0.68-0.01-1.01h-0.6c-0.01,0-0.01,0-0.02,0c0,0-0.01,0-0.02,0h-0.04    c-0.02,0.01-0.04,0.01-0.05,0c-0.01,0-0.01,0-0.01,0c-0.01,0-0.01,0-0.01,0H72.3c-0.01,0-0.01,0-0.02,0c-0.01,0-0.01,0-0.02,0    s-0.01,0-0.02,0H72.1v1.01c0.2,29.44,0.31,59.76-0.42,90.85c0,0.34-0.01,0.68-0.02,1.02c0.33-0.01,0.67-0.01,1-0.01    c0.01-0.34,0.02-0.68,0.03-1.02c0.33,0.01,0.66,0,1,0C74.43,128.88,74.31,98.58,74.11,69.14z M74.11,69.14l-1.01-0.01    c0-0.34-0.01-0.68-0.01-1.01h-0.6c-0.01,0-0.01,0-0.02,0c0,0-0.01,0-0.02,0h-0.04c-0.02,0.01-0.04,0.01-0.05,0    c-0.01,0-0.01,0-0.01,0c-0.01,0-0.01,0-0.01,0H72.3c-0.01,0-0.01,0-0.02,0c-0.01,0-0.01,0-0.02,0s-0.01,0-0.02,0H72.1v1.01    c0.2,29.44,0.31,59.76-0.42,90.85c0,0.34-0.01,0.68-0.02,1.02c0.33-0.01,0.67-0.01,1-0.01c0.01-0.34,0.02-0.68,0.03-1.02    c0.33,0.01,0.66,0,1,0C74.43,128.88,74.31,98.58,74.11,69.14z M74.11,69.14l-1.01-0.01c0-0.34-0.01-0.68-0.01-1.01h-0.6    c-0.01,0-0.01,0-0.02,0c0,0-0.01,0-0.02,0h-0.04c-0.02,0.01-0.04,0.01-0.05,0c-0.01,0-0.01,0-0.01,0c-0.01,0-0.01,0-0.01,0H72.3    c-0.01,0-0.01,0-0.02,0c-0.01,0-0.01,0-0.02,0s-0.01,0-0.02,0H72.1v1.01c0.2,29.44,0.31,59.76-0.42,90.85    c0,0.34-0.01,0.68-0.02,1.02c0.33-0.01,0.67-0.01,1-0.01c0.01-0.34,0.02-0.68,0.03-1.02c0.33,0.01,0.66,0,1,0    C74.43,128.88,74.31,98.58,74.11,69.14z M74.11,69.14l-1.01-0.01c0-0.34-0.01-0.68-0.01-1.01h-0.6c-0.01,0-0.01,0-0.02,0    c0,0-0.01,0-0.02,0h-0.04c-0.02,0.01-0.04,0.01-0.05,0c-0.01,0-0.01,0-0.01,0c-0.01,0-0.01,0-0.01,0H72.3c-0.01,0-0.01,0-0.02,0    c-0.01,0-0.01,0-0.02,0s-0.01,0-0.02,0H72.1v1.01c0.2,29.44,0.31,59.76-0.42,90.85c0,0.34-0.01,0.68-0.02,1.02    c0.33-0.01,0.67-0.01,1-0.01c0.01-0.34,0.02-0.68,0.03-1.02c0.33,0.01,0.66,0,1,0C74.43,128.88,74.31,98.58,74.11,69.14z"/>
        </g>
        <g>
            <path class="st0" d="M146.52,69.43c0-0.33,0-0.67-0.01-1.01v-1l-1.01-0.01l-16.45-0.06l-1-0.01c0,0.34,0.01,0.67,0.02,1    c0.01,0.34,0.01,0.68,0.03,1.01c0.65,30.26,0.73,60.54,0.47,90.74c-0.01,0.33-0.01,0.67-0.01,1c0,0.31-0.01,0.63-0.01,0.94    c0.9,0.04,1.8,0.07,2.7,0.11h0.18c4.85,0.04,9.72,0.11,14.61,0.19c0.01-0.34,0.02-0.68,0.03-1.01c0.01-0.34,0.01-0.67,0.02-1.01    C146.83,129.18,146.71,99.24,146.52,69.43z M129.58,160.1c0.28-33.28,0.12-63.09-0.48-90.74l16.42,0.06    c0.19,29.45,0.3,59.77-0.44,90.87C139.89,160.21,134.73,160.15,129.58,160.1z"/>
            <path class="st0" d="M129.1,69.36c-0.01-0.34-0.02-0.68-0.02-1.01c-0.01-0.33-0.02-0.67-0.03-1l-1-0.01c0,0.34,0.01,0.67,0.02,1    c-0.33,0.01-0.67,0-1.01,0c0.01,0.34,0.02,0.67,0.02,1.01c0.61,27.66,0.76,57.46,0.49,90.73c0.33,0,0.67,0,1,0.01    c0.34,0,0.67,0,1.01,0.01C129.86,126.82,129.7,97.01,129.1,69.36z M129.1,69.36c-0.01-0.34-0.02-0.68-0.02-1.01    c-0.01-0.33-0.02-0.67-0.03-1l-1-0.01c0,0.34,0.01,0.67,0.02,1c-0.33,0.01-0.67,0-1.01,0c0.01,0.34,0.02,0.67,0.02,1.01    c0.61,27.66,0.76,57.46,0.49,90.73c0.33,0,0.67,0,1,0.01c0.34,0,0.67,0,1.01,0.01C129.86,126.82,129.7,97.01,129.1,69.36z     M129.1,69.36c-0.01-0.34-0.02-0.68-0.02-1.01c-0.01-0.33-0.02-0.67-0.03-1l-1-0.01c0,0.34,0.01,0.67,0.02,1    c-0.33,0.01-0.67,0-1.01,0c0.01,0.34,0.02,0.67,0.02,1.01c0.61,27.66,0.76,57.46,0.49,90.73c0.33,0,0.67,0,1,0.01    c0.34,0,0.67,0,1.01,0.01C129.86,126.82,129.7,97.01,129.1,69.36z M129.1,69.36c-0.01-0.34-0.02-0.68-0.02-1.01    c-0.01-0.33-0.02-0.67-0.03-1l-1-0.01c0,0.34,0.01,0.67,0.02,1c-0.33,0.01-0.67,0-1.01,0c0.01,0.34,0.02,0.67,0.02,1.01    c0.61,27.66,0.76,57.46,0.49,90.73c0.33,0,0.67,0,1,0.01c0.34,0,0.67,0,1.01,0.01C129.86,126.82,129.7,97.01,129.1,69.36z     M129.1,69.36c-0.01-0.34-0.02-0.68-0.02-1.01c-0.01-0.33-0.02-0.67-0.03-1l-1-0.01c0,0.34,0.01,0.67,0.02,1    c-0.33,0.01-0.67,0-1.01,0c0.01,0.34,0.02,0.67,0.02,1.01c0.61,27.66,0.76,57.46,0.49,90.73c0.33,0,0.67,0,1,0.01    c0.34,0,0.67,0,1.01,0.01C129.86,126.82,129.7,97.01,129.1,69.36z M129.1,69.36c-0.01-0.34-0.02-0.68-0.02-1.01    c-0.01-0.33-0.02-0.67-0.03-1l-1-0.01c0,0.34,0.01,0.67,0.02,1c-0.33,0.01-0.67,0-1.01,0c0.01,0.34,0.02,0.67,0.02,1.01    c0.61,27.66,0.76,57.46,0.49,90.73c0.33,0,0.67,0,1,0.01c0.34,0,0.67,0,1.01,0.01C129.86,126.82,129.7,97.01,129.1,69.36z     M129.1,69.36c-0.01-0.34-0.02-0.68-0.02-1.01c-0.01-0.33-0.02-0.67-0.03-1l-1-0.01c0,0.34,0.01,0.67,0.02,1    c-0.33,0.01-0.67,0-1.01,0c0.01,0.34,0.02,0.67,0.02,1.01c0.61,27.66,0.76,57.46,0.49,90.73c0.33,0,0.67,0,1,0.01    c0.34,0,0.67,0,1.01,0.01C129.86,126.82,129.7,97.01,129.1,69.36z M147.52,69.43c0-0.34,0-0.67-0.01-1.01v-1h-1l-1.01-0.01    c0,0.33,0.01,0.66,0.01,1c0,0.33,0,0.67,0.01,1.01c0.19,29.45,0.3,59.77-0.44,90.87c0,0.33-0.01,0.67-0.02,1.01v0.15    c-4.69-0.05-9.43-0.16-14.12-0.33h-0.03c-0.45-0.02-0.89-0.03-1.34-0.05c0-0.32,0.01-0.65,0.01-0.97    c0.28-33.28,0.12-63.09-0.48-90.74c-0.01-0.34-0.02-0.68-0.02-1.01c-0.01-0.33-0.02-0.67-0.03-1l-1-0.01h-1.01    c0.01,0.33,0.02,0.67,0.02,1c0.01,0.34,0.02,0.67,0.02,1.01c0.61,27.66,0.76,57.46,0.49,90.73c-0.01,0.33-0.01,0.66-0.01,1    c0,0.31-0.01,0.62-0.01,0.94c0,0.02,0,0.05,0.01,0.07l3.69,0.05h0.18c4.85,0.04,9.72,0.11,14.61,0.19c0.33,0.01,0.66,0.01,1,0.02    c0.01-0.34,0.02-0.68,0.03-1.01c0.01-0.34,0.01-0.68,0.02-1.01C147.83,129.22,147.72,98.89,147.52,69.43z M129.08,68.35    c-0.01-0.33-0.02-0.67-0.03-1l-1-0.01c0,0.34,0.01,0.67,0.02,1c-0.33,0.01-0.67,0-1.01,0c0.01,0.34,0.02,0.67,0.02,1.01h1.02    l1,0.01C129.09,69.02,129.08,68.68,129.08,68.35z M129.1,69.36c-0.01-0.34-0.02-0.68-0.02-1.01c-0.01-0.33-0.02-0.67-0.03-1    l-1-0.01c0,0.34,0.01,0.67,0.02,1c-0.33,0.01-0.67,0-1.01,0c0.01,0.34,0.02,0.67,0.02,1.01c0.61,27.66,0.76,57.46,0.49,90.73    c0.33,0,0.67,0,1,0.01c0.34,0,0.67,0,1.01,0.01C129.86,126.82,129.7,97.01,129.1,69.36z M129.1,69.36    c-0.01-0.34-0.02-0.68-0.02-1.01c-0.01-0.33-0.02-0.67-0.03-1l-1-0.01c0,0.34,0.01,0.67,0.02,1c-0.33,0.01-0.67,0-1.01,0    c0.01,0.34,0.02,0.67,0.02,1.01c0.61,27.66,0.76,57.46,0.49,90.73c0.33,0,0.67,0,1,0.01c0.34,0,0.67,0,1.01,0.01    C129.86,126.82,129.7,97.01,129.1,69.36z M129.1,69.36c-0.01-0.34-0.02-0.68-0.02-1.01c-0.01-0.33-0.02-0.67-0.03-1l-1-0.01    c0,0.34,0.01,0.67,0.02,1c-0.33,0.01-0.67,0-1.01,0c0.01,0.34,0.02,0.67,0.02,1.01c0.61,27.66,0.76,57.46,0.49,90.73    c0.33,0,0.67,0,1,0.01c0.34,0,0.67,0,1.01,0.01C129.86,126.82,129.7,97.01,129.1,69.36z M129.1,69.36    c-0.01-0.34-0.02-0.68-0.02-1.01c-0.01-0.33-0.02-0.67-0.03-1l-1-0.01c0,0.34,0.01,0.67,0.02,1c-0.33,0.01-0.67,0-1.01,0    c0.01,0.34,0.02,0.67,0.02,1.01c0.61,27.66,0.76,57.46,0.49,90.73c0.33,0,0.67,0,1,0.01c0.34,0,0.67,0,1.01,0.01    C129.86,126.82,129.7,97.01,129.1,69.36z M129.1,69.36c-0.01-0.34-0.02-0.68-0.02-1.01c-0.01-0.33-0.02-0.67-0.03-1l-1-0.01    c0,0.34,0.01,0.67,0.02,1c-0.33,0.01-0.67,0-1.01,0c0.01,0.34,0.02,0.67,0.02,1.01c0.61,27.66,0.76,57.46,0.49,90.73    c0.33,0,0.67,0,1,0.01c0.34,0,0.67,0,1.01,0.01C129.86,126.82,129.7,97.01,129.1,69.36z M129.1,69.36    c-0.01-0.34-0.02-0.68-0.02-1.01c-0.01-0.33-0.02-0.67-0.03-1l-1-0.01c0,0.34,0.01,0.67,0.02,1c-0.33,0.01-0.67,0-1.01,0    c0.01,0.34,0.02,0.67,0.02,1.01c0.61,27.66,0.76,57.46,0.49,90.73c0.33,0,0.67,0,1,0.01c0.34,0,0.67,0,1.01,0.01    C129.86,126.82,129.7,97.01,129.1,69.36z"/>
        </g>
        <g>
            <path class="st0" d="M156,173.65h-0.01l-26.98,0.17l-19.11,0.12l-43.3,0.28h-0.08l-22.85,0.14c-0.19,0-0.34,0.15-0.34,0.34    c0,0.18,0.15,0.33,0.34,0.33L156,174.32c0.14,0,0.26-0.09,0.3-0.22c0.02-0.03,0.03-0.08,0.03-0.12    C156.33,173.8,156.18,173.65,156,173.65z M156,173.65h-0.01l-26.98,0.17l-19.11,0.12l-43.3,0.28h-0.08l-22.85,0.14    c-0.19,0-0.34,0.15-0.34,0.34c0,0.18,0.15,0.33,0.34,0.33L156,174.32c0.14,0,0.26-0.09,0.3-0.22c0.02-0.03,0.03-0.08,0.03-0.12    C156.33,173.8,156.18,173.65,156,173.65z M127.56,161.08c-5.97-0.05-11.91-0.09-17.83-0.11c-0.34,0-0.67,0-1-0.01h-1.01    c-5.21-0.02-10.39-0.02-15.56-0.02h-1.01c-0.33,0-0.67,0-1,0.01c-5.51,0-11.01,0.01-16.49,0.04c0,0.33-0.01,0.66-0.02,1    c5.47-0.02,10.97-0.03,16.5-0.03c0.33-0.01,0.66-0.01,1-0.01h1.02c5.16,0,10.34,0,15.54,0.02h1.01c0.33,0.01,0.67,0.01,1,0.01    c5.92,0.02,11.87,0.06,17.85,0.11c-0.01-0.02-0.01-0.05-0.01-0.07C127.55,161.7,127.56,161.39,127.56,161.08z M156,173.65h-0.01    l-26.98,0.17l-19.11,0.12l-43.3,0.28h-0.08l-22.85,0.14c-0.19,0-0.34,0.15-0.34,0.34c0,0.18,0.15,0.33,0.34,0.33L156,174.32    c0.14,0,0.26-0.09,0.3-0.22c0.02-0.03,0.03-0.08,0.03-0.12C156.33,173.8,156.18,173.65,156,173.65z M156,173.65h-0.01l-26.98,0.17    l-19.11,0.12l-43.3,0.28h-0.08l-22.85,0.14c-0.19,0-0.34,0.15-0.34,0.34c0,0.18,0.15,0.33,0.34,0.33L156,174.32    c0.14,0,0.26-0.09,0.3-0.22c0.02-0.03,0.03-0.08,0.03-0.12C156.33,173.8,156.18,173.65,156,173.65z M127.56,161.08    c-5.97-0.05-11.91-0.09-17.83-0.11c-0.34,0-0.67,0-1-0.01h-1.01c-5.21-0.02-10.39-0.02-15.56-0.02h-1.01c-0.33,0-0.67,0-1,0.01    c-5.51,0-11.01,0.01-16.49,0.04c0,0.33-0.01,0.66-0.02,1c5.47-0.02,10.97-0.03,16.5-0.03c0.33-0.01,0.66-0.01,1-0.01h1.02    c5.16,0,10.34,0,15.54,0.02h1.01c0.33,0.01,0.67,0.01,1,0.01c5.92,0.02,11.87,0.06,17.85,0.11c-0.01-0.02-0.01-0.05-0.01-0.07    C127.55,161.7,127.56,161.39,127.56,161.08z M156,173.65h-0.01l-26.98,0.17l-19.11,0.12l-43.3,0.28h-0.08l-22.85,0.14    c-0.19,0-0.34,0.15-0.34,0.34c0,0.18,0.15,0.33,0.34,0.33L156,174.32c0.14,0,0.26-0.09,0.3-0.22c0.02-0.03,0.03-0.08,0.03-0.12    C156.33,173.8,156.18,173.65,156,173.65z M156,173.65h-0.01l-26.98,0.17l-19.11,0.12l-43.3,0.28h-0.08l-22.85,0.14    c-0.19,0-0.34,0.15-0.34,0.34c0,0.18,0.15,0.33,0.34,0.33L156,174.32c0.14,0,0.26-0.09,0.3-0.22c0.02-0.03,0.03-0.08,0.03-0.12    C156.33,173.8,156.18,173.65,156,173.65z M127.56,161.08c-5.97-0.05-11.91-0.09-17.83-0.11c-0.34,0-0.67,0-1-0.01h-1.01    c-5.21-0.02-10.39-0.02-15.56-0.02h-1.01c-0.33,0-0.67,0-1,0.01c-5.51,0-11.01,0.01-16.49,0.04c0,0.33-0.01,0.66-0.02,1    c5.47-0.02,10.97-0.03,16.5-0.03c0.33-0.01,0.66-0.01,1-0.01h1.02c5.16,0,10.34,0,15.54,0.02h1.01c0.33,0.01,0.67,0.01,1,0.01    c5.92,0.02,11.87,0.06,17.85,0.11c-0.01-0.02-0.01-0.05-0.01-0.07C127.55,161.7,127.56,161.39,127.56,161.08z M156,173.65h-0.01    l-26.98,0.17l-19.11,0.12l-43.3,0.28h-0.08l-22.85,0.14c-0.19,0-0.34,0.15-0.34,0.34c0,0.18,0.15,0.33,0.34,0.33L156,174.32    c0.14,0,0.26-0.09,0.3-0.22c0.02-0.03,0.03-0.08,0.03-0.12C156.33,173.8,156.18,173.65,156,173.65z M156,173.65h-0.01l-26.98,0.17    l-19.11,0.12l-43.3,0.28h-0.08l-22.85,0.14c-0.19,0-0.34,0.15-0.34,0.34c0,0.18,0.15,0.33,0.34,0.33L156,174.32    c0.14,0,0.26-0.09,0.3-0.22c0.02-0.03,0.03-0.08,0.03-0.12C156.33,173.8,156.18,173.65,156,173.65z M127.56,161.08    c-5.97-0.05-11.91-0.09-17.83-0.11c-0.34,0-0.67,0-1-0.01h-1.01c-5.21-0.02-10.39-0.02-15.56-0.02h-1.01c-0.33,0-0.67,0-1,0.01    c-5.51,0-11.01,0.01-16.49,0.04c0,0.33-0.01,0.66-0.02,1c5.47-0.02,10.97-0.03,16.5-0.03c0.33-0.01,0.66-0.01,1-0.01h1.02    c5.16,0,10.34,0,15.54,0.02h1.01c0.33,0.01,0.67,0.01,1,0.01c5.92,0.02,11.87,0.06,17.85,0.11c-0.01-0.02-0.01-0.05-0.01-0.07    C127.55,161.7,127.56,161.39,127.56,161.08z M156,173.65h-0.01l-26.98,0.17l-19.11,0.12l-43.3,0.28h-0.08l-22.85,0.14    c-0.19,0-0.34,0.15-0.34,0.34c0,0.18,0.15,0.33,0.34,0.33L156,174.32c0.14,0,0.26-0.09,0.3-0.22c0.02-0.03,0.03-0.08,0.03-0.12    C156.33,173.8,156.18,173.65,156,173.65z M156,173.65h-0.01l-26.98,0.17l-19.11,0.12l-43.3,0.28h-0.08l-22.85,0.14    c-0.19,0-0.34,0.15-0.34,0.34c0,0.18,0.15,0.33,0.34,0.33L156,174.32c0.14,0,0.26-0.09,0.3-0.22c0.02-0.03,0.03-0.08,0.03-0.12    C156.33,173.8,156.18,173.65,156,173.65z M127.56,161.08c-5.97-0.05-11.91-0.09-17.83-0.11c-0.34,0-0.67,0-1-0.01h-1.01    c-5.21-0.02-10.39-0.02-15.56-0.02h-1.01c-0.33,0-0.67,0-1,0.01c-5.51,0-11.01,0.01-16.49,0.04c0,0.33-0.01,0.66-0.02,1    c5.47-0.02,10.97-0.03,16.5-0.03c0.33-0.01,0.66-0.01,1-0.01h1.02c5.16,0,10.34,0,15.54,0.02h1.01c0.33,0.01,0.67,0.01,1,0.01    c5.92,0.02,11.87,0.06,17.85,0.11c-0.01-0.02-0.01-0.05-0.01-0.07C127.55,161.7,127.56,161.39,127.56,161.08z M156,173.65h-0.01    l-26.98,0.17l-19.11,0.12l-43.3,0.28h-0.08l-22.85,0.14c-0.19,0-0.34,0.15-0.34,0.34c0,0.18,0.15,0.33,0.34,0.33L156,174.32    c0.14,0,0.26-0.09,0.3-0.22c0.02-0.03,0.03-0.08,0.03-0.12C156.33,173.8,156.18,173.65,156,173.65z M156,173.65h-0.01l-26.98,0.17    l-19.11,0.12l-43.3,0.28h-0.08l-22.85,0.14c-0.19,0-0.34,0.15-0.34,0.34c0,0.18,0.15,0.33,0.34,0.33L156,174.32    c0.14,0,0.26-0.09,0.3-0.22c0.02-0.03,0.03-0.08,0.03-0.12C156.33,173.8,156.18,173.65,156,173.65z M127.56,161.08    c-5.97-0.05-11.91-0.09-17.83-0.11c-0.34,0-0.67,0-1-0.01h-1.01c-5.21-0.02-10.39-0.02-15.56-0.02h-1.01c-0.33,0-0.67,0-1,0.01    c-5.51,0-11.01,0.01-16.49,0.04c0,0.33-0.01,0.66-0.02,1c5.47-0.02,10.97-0.03,16.5-0.03c0.33-0.01,0.66-0.01,1-0.01h1.02    c5.16,0,10.34,0,15.54,0.02h1.01c0.33,0.01,0.67,0.01,1,0.01c5.92,0.02,11.87,0.06,17.85,0.11c-0.01-0.02-0.01-0.05-0.01-0.07    C127.55,161.7,127.56,161.39,127.56,161.08z M156,173.65h-0.01l-26.98,0.17l-19.11,0.12l-43.3,0.28h-0.08l-22.85,0.14    c-0.19,0-0.34,0.15-0.34,0.34c0,0.18,0.15,0.33,0.34,0.33L156,174.32c0.14,0,0.26-0.09,0.3-0.22c0.02-0.03,0.03-0.08,0.03-0.12    C156.33,173.8,156.18,173.65,156,173.65z M156,173.65h-0.01l-26.98,0.17l-19.11,0.12l-43.3,0.28h-0.08l-22.85,0.14    c-0.19,0-0.34,0.15-0.34,0.34c0,0.18,0.15,0.33,0.34,0.33L156,174.32c0.14,0,0.26-0.09,0.3-0.22c0.02-0.03,0.03-0.08,0.03-0.12    C156.33,173.8,156.18,173.65,156,173.65z M147.07,161.34c-0.33-0.01-0.67-0.01-1-0.02c-0.34,0-0.68-0.01-1.01-0.02    c-4.73-0.07-9.43-0.13-14.12-0.18h-0.03c-0.78-0.01-1.57-0.02-2.35-0.03c-0.33,0-0.66,0-1-0.01c-5.97-0.05-11.91-0.09-17.83-0.11    c-0.34,0-0.67,0-1-0.01h-1.01c-5.21-0.02-10.39-0.02-15.56-0.02h-1.01c-0.33,0-0.67,0-1,0.01c-5.51,0-11.01,0.01-16.49,0.04h-1    c-0.33,0-0.67,0-1,0.01c-5.12,0.01-10.23,0.04-15.34,0.07h-0.16c-0.34,0-0.67,0.01-1.01,0.01h-1.01    c-5.13,0.03-10.25,0.07-15.38,0.1c0.27,4.64,0.52,9.26,0.91,13.51c0.09,1.08,0.2,2.14,0.32,3.17c0,0.06,0.01,0.12,0.02,0.18    c0.03,0.27,0.06,0.55,0.09,0.82c0.05,0.34,0.09,0.68,0.14,1.01h1.02c7.47-0.04,14.99-0.08,22.54-0.11    c31.67-0.1,64-0.08,96.94,0.39c0.02-0.34,0.04-0.67,0.05-1.01c0.02-0.33,0.03-0.67,0.04-1c0.01-0.2,0.02-0.4,0.03-0.6v-0.01    c0.03-0.72,0.05-1.44,0.08-2.16c0.16-4.58,0.26-9.17,0.3-13.75C156.49,161.51,151.77,161.42,147.07,161.34z M40.6,173.79    c-0.31-3.54-0.52-7.35-0.75-11.29l-0.02-0.32c4.75-0.03,9.52-0.06,14.31-0.09c0.68-0.01,1.34-0.01,2.03-0.02h0.08    c5.44-0.02,10.9-0.05,16.39-0.07c0.33-0.01,0.66-0.01,1-0.01c5.47-0.02,10.97-0.03,16.5-0.03c0.33-0.01,0.66-0.01,1-0.01h1.02    c5.16,0,10.34,0,15.54,0.02h1.01c0.33,0.01,0.67,0.01,1,0.01c5.92,0.02,11.87,0.06,17.85,0.11l3.69,0.05h0.18    c4.85,0.04,9.72,0.11,14.61,0.19c0.33,0.01,0.66,0.01,1,0.02c4.38,0.07,8.77,0.15,13.18,0.25c-0.03,3.87-0.12,7.77-0.26,11.65    c-0.03,1.3-0.08,2.59-0.14,3.87c-40.57-0.57-80.2-0.46-118.82-0.27C40.85,176.54,40.72,175.19,40.6,173.79z M156.3,174.1    c0.02-0.03,0.03-0.08,0.03-0.12c0-0.18-0.15-0.33-0.33-0.33h-0.01l-26.98,0.17l-19.11,0.12l-43.3,0.28h-0.08l-22.85,0.14    c-0.19,0-0.34,0.15-0.34,0.34c0,0.18,0.15,0.33,0.34,0.33L156,174.32C156.14,174.32,156.26,174.23,156.3,174.1z M156,173.65h-0.01    l-26.98,0.17l-19.11,0.12l-43.3,0.28h-0.08l-22.85,0.14c-0.19,0-0.34,0.15-0.34,0.34c0,0.18,0.15,0.33,0.34,0.33L156,174.32    c0.14,0,0.26-0.09,0.3-0.22c0.02-0.03,0.03-0.08,0.03-0.12C156.33,173.8,156.18,173.65,156,173.65z M156,173.65h-0.01l-26.98,0.17    l-19.11,0.12l-43.3,0.28h-0.08l-22.85,0.14c-0.19,0-0.34,0.15-0.34,0.34c0,0.18,0.15,0.33,0.34,0.33L156,174.32    c0.14,0,0.26-0.09,0.3-0.22c0.02-0.03,0.03-0.08,0.03-0.12C156.33,173.8,156.18,173.65,156,173.65z M127.56,161.08    c-5.97-0.05-11.91-0.09-17.83-0.11c-0.34,0-0.67,0-1-0.01h-1.01c-5.21-0.02-10.39-0.02-15.56-0.02h-1.01c-0.33,0-0.67,0-1,0.01    c-5.51,0-11.01,0.01-16.49,0.04c0,0.33-0.01,0.66-0.02,1c5.47-0.02,10.97-0.03,16.5-0.03c0.33-0.01,0.66-0.01,1-0.01h1.02    c5.16,0,10.34,0,15.54,0.02h1.01c0.33,0.01,0.67,0.01,1,0.01c5.92,0.02,11.87,0.06,17.85,0.11c-0.01-0.02-0.01-0.05-0.01-0.07    C127.55,161.7,127.56,161.39,127.56,161.08z M156,173.65h-0.01l-26.98,0.17l-19.11,0.12l-43.3,0.28h-0.08l-22.85,0.14    c-0.19,0-0.34,0.15-0.34,0.34c0,0.18,0.15,0.33,0.34,0.33L156,174.32c0.14,0,0.26-0.09,0.3-0.22c0.02-0.03,0.03-0.08,0.03-0.12    C156.33,173.8,156.18,173.65,156,173.65z M156,173.65h-0.01l-26.98,0.17l-19.11,0.12l-43.3,0.28h-0.08l-22.85,0.14    c-0.19,0-0.34,0.15-0.34,0.34c0,0.18,0.15,0.33,0.34,0.33L156,174.32c0.14,0,0.26-0.09,0.3-0.22c0.02-0.03,0.03-0.08,0.03-0.12    C156.33,173.8,156.18,173.65,156,173.65z M127.56,161.08c-5.97-0.05-11.91-0.09-17.83-0.11c-0.34,0-0.67,0-1-0.01h-1.01    c-5.21-0.02-10.39-0.02-15.56-0.02h-1.01c-0.33,0-0.67,0-1,0.01c-5.51,0-11.01,0.01-16.49,0.04c0,0.33-0.01,0.66-0.02,1    c5.47-0.02,10.97-0.03,16.5-0.03c0.33-0.01,0.66-0.01,1-0.01h1.02c5.16,0,10.34,0,15.54,0.02h1.01c0.33,0.01,0.67,0.01,1,0.01    c5.92,0.02,11.87,0.06,17.85,0.11c-0.01-0.02-0.01-0.05-0.01-0.07C127.55,161.7,127.56,161.39,127.56,161.08z M156,173.65h-0.01    l-26.98,0.17l-19.11,0.12l-43.3,0.28h-0.08l-22.85,0.14c-0.19,0-0.34,0.15-0.34,0.34c0,0.18,0.15,0.33,0.34,0.33L156,174.32    c0.14,0,0.26-0.09,0.3-0.22c0.02-0.03,0.03-0.08,0.03-0.12C156.33,173.8,156.18,173.65,156,173.65z M156,173.65h-0.01l-26.98,0.17    l-19.11,0.12l-43.3,0.28h-0.08l-22.85,0.14c-0.19,0-0.34,0.15-0.34,0.34c0,0.18,0.15,0.33,0.34,0.33L156,174.32    c0.14,0,0.26-0.09,0.3-0.22c0.02-0.03,0.03-0.08,0.03-0.12C156.33,173.8,156.18,173.65,156,173.65z M127.56,161.08    c-5.97-0.05-11.91-0.09-17.83-0.11c-0.34,0-0.67,0-1-0.01h-1.01c-5.21-0.02-10.39-0.02-15.56-0.02h-1.01c-0.33,0-0.67,0-1,0.01    c-5.51,0-11.01,0.01-16.49,0.04c0,0.33-0.01,0.66-0.02,1c5.47-0.02,10.97-0.03,16.5-0.03c0.33-0.01,0.66-0.01,1-0.01h1.02    c5.16,0,10.34,0,15.54,0.02h1.01c0.33,0.01,0.67,0.01,1,0.01c5.92,0.02,11.87,0.06,17.85,0.11c-0.01-0.02-0.01-0.05-0.01-0.07    C127.55,161.7,127.56,161.39,127.56,161.08z M156,173.65h-0.01l-26.98,0.17l-19.11,0.12l-43.3,0.28h-0.08l-22.85,0.14    c-0.19,0-0.34,0.15-0.34,0.34c0,0.18,0.15,0.33,0.34,0.33L156,174.32c0.14,0,0.26-0.09,0.3-0.22c0.02-0.03,0.03-0.08,0.03-0.12    C156.33,173.8,156.18,173.65,156,173.65z M156,173.65h-0.01l-26.98,0.17l-19.11,0.12l-43.3,0.28h-0.08l-22.85,0.14    c-0.19,0-0.34,0.15-0.34,0.34c0,0.18,0.15,0.33,0.34,0.33L156,174.32c0.14,0,0.26-0.09,0.3-0.22c0.02-0.03,0.03-0.08,0.03-0.12    C156.33,173.8,156.18,173.65,156,173.65z M127.56,161.08c-5.97-0.05-11.91-0.09-17.83-0.11c-0.34,0-0.67,0-1-0.01h-1.01    c-5.21-0.02-10.39-0.02-15.56-0.02h-1.01c-0.33,0-0.67,0-1,0.01c-5.51,0-11.01,0.01-16.49,0.04c0,0.33-0.01,0.66-0.02,1    c5.47-0.02,10.97-0.03,16.5-0.03c0.33-0.01,0.66-0.01,1-0.01h1.02c5.16,0,10.34,0,15.54,0.02h1.01c0.33,0.01,0.67,0.01,1,0.01    c5.92,0.02,11.87,0.06,17.85,0.11c-0.01-0.02-0.01-0.05-0.01-0.07C127.55,161.7,127.56,161.39,127.56,161.08z M156,173.65h-0.01    l-26.98,0.17l-19.11,0.12l-43.3,0.28h-0.08l-22.85,0.14c-0.19,0-0.34,0.15-0.34,0.34c0,0.18,0.15,0.33,0.34,0.33L156,174.32    c0.14,0,0.26-0.09,0.3-0.22c0.02-0.03,0.03-0.08,0.03-0.12C156.33,173.8,156.18,173.65,156,173.65z M156,173.65h-0.01l-26.98,0.17    l-19.11,0.12l-43.3,0.28h-0.08l-22.85,0.14c-0.19,0-0.34,0.15-0.34,0.34c0,0.18,0.15,0.33,0.34,0.33L156,174.32    c0.14,0,0.26-0.09,0.3-0.22c0.02-0.03,0.03-0.08,0.03-0.12C156.33,173.8,156.18,173.65,156,173.65z M127.56,161.08    c-5.97-0.05-11.91-0.09-17.83-0.11c-0.34,0-0.67,0-1-0.01h-1.01c-5.21-0.02-10.39-0.02-15.56-0.02h-1.01c-0.33,0-0.67,0-1,0.01    c-5.51,0-11.01,0.01-16.49,0.04c0,0.33-0.01,0.66-0.02,1c5.47-0.02,10.97-0.03,16.5-0.03c0.33-0.01,0.66-0.01,1-0.01h1.02    c5.16,0,10.34,0,15.54,0.02h1.01c0.33,0.01,0.67,0.01,1,0.01c5.92,0.02,11.87,0.06,17.85,0.11c-0.01-0.02-0.01-0.05-0.01-0.07    C127.55,161.7,127.56,161.39,127.56,161.08z M156,173.65h-0.01l-26.98,0.17l-19.11,0.12l-43.3,0.28h-0.08l-22.85,0.14    c-0.19,0-0.34,0.15-0.34,0.34c0,0.18,0.15,0.33,0.34,0.33L156,174.32c0.14,0,0.26-0.09,0.3-0.22c0.02-0.03,0.03-0.08,0.03-0.12    C156.33,173.8,156.18,173.65,156,173.65z M156,173.65h-0.01l-26.98,0.17l-19.11,0.12l-43.3,0.28h-0.08l-22.85,0.14    c-0.19,0-0.34,0.15-0.34,0.34c0,0.18,0.15,0.33,0.34,0.33L156,174.32c0.14,0,0.26-0.09,0.3-0.22c0.02-0.03,0.03-0.08,0.03-0.12    C156.33,173.8,156.18,173.65,156,173.65z M127.56,161.08c-5.97-0.05-11.91-0.09-17.83-0.11c-0.34,0-0.67,0-1-0.01h-1.01    c-5.21-0.02-10.39-0.02-15.56-0.02h-1.01c-0.33,0-0.67,0-1,0.01c-5.51,0-11.01,0.01-16.49,0.04c0,0.33-0.01,0.66-0.02,1    c5.47-0.02,10.97-0.03,16.5-0.03c0.33-0.01,0.66-0.01,1-0.01h1.02c5.16,0,10.34,0,15.54,0.02h1.01c0.33,0.01,0.67,0.01,1,0.01    c5.92,0.02,11.87,0.06,17.85,0.11c-0.01-0.02-0.01-0.05-0.01-0.07C127.55,161.7,127.56,161.39,127.56,161.08z M156,173.65h-0.01    l-26.98,0.17l-19.11,0.12l-43.3,0.28h-0.08l-22.85,0.14c-0.19,0-0.34,0.15-0.34,0.34c0,0.18,0.15,0.33,0.34,0.33L156,174.32    c0.14,0,0.26-0.09,0.3-0.22c0.02-0.03,0.03-0.08,0.03-0.12C156.33,173.8,156.18,173.65,156,173.65z M156,173.65h-0.01l-26.98,0.17    l-19.11,0.12l-43.3,0.28h-0.08l-22.85,0.14c-0.19,0-0.34,0.15-0.34,0.34c0,0.18,0.15,0.33,0.34,0.33L156,174.32    c0.14,0,0.26-0.09,0.3-0.22c0.02-0.03,0.03-0.08,0.03-0.12C156.33,173.8,156.18,173.65,156,173.65z"/>
            <path class="st0" d="M128.55,162.03c0-0.31,0.01-0.63,0.01-0.94c0-0.33,0-0.67,0.01-1c-0.33-0.01-0.67-0.01-1-0.01    c-5.96-0.06-11.9-0.1-17.81-0.12c-0.33,0-0.67,0-1-0.01h-1.01c-5.21-0.01-10.41-0.02-15.58-0.02h-1.02c-0.33,0-0.66,0-0.99,0.01    c-5.52,0-11.01,0.01-16.47,0.03c-0.34,0-0.67,0.01-1,0c-0.01,0.34-0.02,0.68-0.03,1.02c0,0.33-0.01,0.67-0.02,1.01    c0.33-0.01,0.66-0.01,1-0.01c5.47-0.02,10.97-0.03,16.5-0.03c0.33-0.01,0.66-0.01,1-0.01h1.02c5.16,0,10.34,0,15.54,0.02h1.01    c0.33,0.01,0.67,0.01,1,0.01c5.92,0.02,11.87,0.06,17.85,0.11l3.69,0.05C130.35,162.1,129.45,162.07,128.55,162.03z     M161.26,160.61c-4.74-0.11-9.46-0.2-14.17-0.28c-0.33-0.01-0.67-0.01-1-0.02c-0.34,0-0.67-0.01-1.01-0.02    c-5.19-0.08-10.35-0.14-15.5-0.19c-0.34-0.01-0.67-0.01-1.01-0.01c-0.33-0.01-0.67-0.01-1-0.01c-5.96-0.06-11.9-0.1-17.81-0.12    c-0.33,0-0.67,0-1-0.01h-1.01c-5.21-0.01-10.41-0.02-15.58-0.02h-1.02c-0.33,0-0.66,0-0.99,0.01c-5.52,0-11.01,0.01-16.47,0.03    c-0.34,0-0.67,0.01-1,0c-0.34,0.01-0.67,0.01-1.01,0.01c-5.19,0.02-10.36,0.05-15.51,0.08h-1.02c-0.33,0.01-0.67,0.01-1,0.01    c-5.15,0.03-10.28,0.07-15.39,0.1c-0.28,0-0.54,0.12-0.73,0.32s-0.29,0.47-0.27,0.75l0.08,1.38c0.31,5.43,0.61,10.62,1.13,15.24    c0.04,0.34,0.08,0.67,0.12,1c0.04,0.35,0.09,0.69,0.14,1.02c0.33,0,0.67-0.01,1.01-0.01h1.02c-0.05-0.33-0.1-0.67-0.14-1.02    c-0.01-0.05-0.01-0.11-0.02-0.17c-0.04-0.27-0.07-0.55-0.1-0.83c-0.15-1.31-0.28-2.66-0.4-4.06c-0.31-3.54-0.52-7.35-0.75-11.29    l-0.02-0.32c4.75-0.03,9.52-0.06,14.31-0.09c0.68-0.01,1.34-0.01,2.03-0.02h0.08c5.44-0.02,10.9-0.05,16.39-0.07    c0.33-0.01,0.66-0.01,1-0.01c5.47-0.02,10.97-0.03,16.5-0.03c0.33-0.01,0.66-0.01,1-0.01h1.02c5.16,0,10.34,0,15.54,0.02h1.01    c0.33,0.01,0.67,0.01,1,0.01c5.92,0.02,11.87,0.06,17.85,0.11l3.69,0.05h0.18c4.85,0.04,9.72,0.11,14.61,0.19    c0.33,0.01,0.66,0.01,1,0.02c4.38,0.07,8.77,0.15,13.18,0.25c-0.03,3.87-0.12,7.77-0.26,11.65c-0.03,1.3-0.08,2.59-0.14,3.87    c0,0.17-0.01,0.34-0.02,0.5c0,0.17-0.01,0.34-0.02,0.51c0,0.12,0,0.24-0.01,0.36c-34.84-0.28-66.47-0.19-95.97,0.27    c31.67-0.1,64-0.08,96.94,0.39c0.34,0,0.67,0.01,1.01,0.02c0.01-0.34,0.03-0.67,0.04-1.01c0.02-0.33,0.03-0.67,0.04-1.01    c0.23-5.5,0.37-11.04,0.41-16.52C162.25,161.08,161.81,160.62,161.26,160.61z M128.55,162.03c0-0.31,0.01-0.63,0.01-0.94    c0-0.33,0-0.67,0.01-1c-0.33-0.01-0.67-0.01-1-0.01c-5.96-0.06-11.9-0.1-17.81-0.12c-0.33,0-0.67,0-1-0.01h-1.01    c-5.21-0.01-10.41-0.02-15.58-0.02h-1.02c-0.33,0-0.66,0-0.99,0.01c-5.52,0-11.01,0.01-16.47,0.03c-0.34,0-0.67,0.01-1,0    c-0.01,0.34-0.02,0.68-0.03,1.02c0,0.33-0.01,0.67-0.02,1.01c0.33-0.01,0.66-0.01,1-0.01c5.47-0.02,10.97-0.03,16.5-0.03    c0.33-0.01,0.66-0.01,1-0.01h1.02c5.16,0,10.34,0,15.54,0.02h1.01c0.33,0.01,0.67,0.01,1,0.01c5.92,0.02,11.87,0.06,17.85,0.11    l3.69,0.05C130.35,162.1,129.45,162.07,128.55,162.03z M128.55,162.03c0-0.31,0.01-0.63,0.01-0.94c0-0.33,0-0.67,0.01-1    c-0.33-0.01-0.67-0.01-1-0.01c-5.96-0.06-11.9-0.1-17.81-0.12c-0.33,0-0.67,0-1-0.01h-1.01c-5.21-0.01-10.41-0.02-15.58-0.02    h-1.02c-0.33,0-0.66,0-0.99,0.01c-5.52,0-11.01,0.01-16.47,0.03c-0.34,0-0.67,0.01-1,0c-0.01,0.34-0.02,0.68-0.03,1.02    c0,0.33-0.01,0.67-0.02,1.01c0.33-0.01,0.66-0.01,1-0.01c5.47-0.02,10.97-0.03,16.5-0.03c0.33-0.01,0.66-0.01,1-0.01h1.02    c5.16,0,10.34,0,15.54,0.02h1.01c0.33,0.01,0.67,0.01,1,0.01c5.92,0.02,11.87,0.06,17.85,0.11l3.69,0.05    C130.35,162.1,129.45,162.07,128.55,162.03z"/>
        </g>
        <g>
            <path class="st0" d="M171.26,193.04c-0.02-0.16-0.16-0.28-0.32-0.28c-5.15,0-10.31,0-15.48,0.01c-0.01,0.01-0.03,0-0.04,0    c-0.43-0.01-0.85-0.02-1.28-0.03c-0.95,0.01-1.91,0.02-2.87,0.03c-1.13,0-2.27,0.01-3.42,0.01c-28.55,0.04-57.27,0.17-85.66,0.37    c-10.71,0.07-21.79,0.15-32.78,1.43c-0.18,0.02-0.31,0.19-0.29,0.37c0.02,0.17,0.16,0.3,0.33,0.3c0.01,0,0.03,0,0.04-0.01    c10.96-1.27,22.01-1.35,32.7-1.42c36.05-0.26,72.64-0.39,108.75-0.39c0.18,0,0.33-0.15,0.33-0.34    C171.27,193.07,171.27,193.06,171.26,193.04z M171.26,193.04c-0.02-0.16-0.16-0.28-0.32-0.28c-5.15,0-10.31,0-15.48,0.01    c-0.01,0.01-0.03,0-0.04,0c-0.43-0.01-0.85-0.02-1.28-0.03c-0.95,0.01-1.91,0.02-2.87,0.03c-1.13,0-2.27,0.01-3.42,0.01    c-28.55,0.04-57.27,0.17-85.66,0.37c-10.71,0.07-21.79,0.15-32.78,1.43c-0.18,0.02-0.31,0.19-0.29,0.37    c0.02,0.17,0.16,0.3,0.33,0.3c0.01,0,0.03,0,0.04-0.01c10.96-1.27,22.01-1.35,32.7-1.42c36.05-0.26,72.64-0.39,108.75-0.39    c0.18,0,0.33-0.15,0.33-0.34C171.27,193.07,171.27,193.06,171.26,193.04z M171.26,193.04c-0.02-0.16-0.16-0.28-0.32-0.28    c-5.15,0-10.31,0-15.48,0.01c-0.01,0.01-0.03,0-0.04,0c-0.43-0.01-0.85-0.02-1.28-0.03c-0.95,0.01-1.91,0.02-2.87,0.03    c-1.13,0-2.27,0.01-3.42,0.01c-28.55,0.04-57.27,0.17-85.66,0.37c-10.71,0.07-21.79,0.15-32.78,1.43    c-0.18,0.02-0.31,0.19-0.29,0.37c0.02,0.17,0.16,0.3,0.33,0.3c0.01,0,0.03,0,0.04-0.01c10.96-1.27,22.01-1.35,32.7-1.42    c36.05-0.26,72.64-0.39,108.75-0.39c0.18,0,0.33-0.15,0.33-0.34C171.27,193.07,171.27,193.06,171.26,193.04z M171.26,193.04    c-0.02-0.16-0.16-0.28-0.32-0.28c-5.15,0-10.31,0-15.48,0.01c-0.01,0.01-0.03,0-0.04,0c-0.43-0.01-0.85-0.02-1.28-0.03    c-0.95,0.01-1.91,0.02-2.87,0.03c-1.13,0-2.27,0.01-3.42,0.01c-28.55,0.04-57.27,0.17-85.66,0.37    c-10.71,0.07-21.79,0.15-32.78,1.43c-0.18,0.02-0.31,0.19-0.29,0.37c0.02,0.17,0.16,0.3,0.33,0.3c0.01,0,0.03,0,0.04-0.01    c10.96-1.27,22.01-1.35,32.7-1.42c36.05-0.26,72.64-0.39,108.75-0.39c0.18,0,0.33-0.15,0.33-0.34    C171.27,193.07,171.27,193.06,171.26,193.04z M171.26,193.04c-0.02-0.16-0.16-0.28-0.32-0.28c-5.15,0-10.31,0-15.48,0.01    c-0.01,0.01-0.03,0-0.04,0c-0.43-0.01-0.85-0.02-1.28-0.03c-0.95,0.01-1.91,0.02-2.87,0.03c-1.13,0-2.27,0.01-3.42,0.01    c-28.55,0.04-57.27,0.17-85.66,0.37c-10.71,0.07-21.79,0.15-32.78,1.43c-0.18,0.02-0.31,0.19-0.29,0.37    c0.02,0.17,0.16,0.3,0.33,0.3c0.01,0,0.03,0,0.04-0.01c10.96-1.27,22.01-1.35,32.7-1.42c36.05-0.26,72.64-0.39,108.75-0.39    c0.18,0,0.33-0.15,0.33-0.34C171.27,193.07,171.27,193.06,171.26,193.04z M171.26,193.04c-0.02-0.16-0.16-0.28-0.32-0.28    c-5.15,0-10.31,0-15.48,0.01c-0.01,0.01-0.03,0-0.04,0c-0.43-0.01-0.85-0.02-1.28-0.03c-0.95,0.01-1.91,0.02-2.87,0.03    c-1.13,0-2.27,0.01-3.42,0.01c-28.55,0.04-57.27,0.17-85.66,0.37c-10.71,0.07-21.79,0.15-32.78,1.43    c-0.18,0.02-0.31,0.19-0.29,0.37c0.02,0.17,0.16,0.3,0.33,0.3c0.01,0,0.03,0,0.04-0.01c10.96-1.27,22.01-1.35,32.7-1.42    c36.05-0.26,72.64-0.39,108.75-0.39c0.18,0,0.33-0.15,0.33-0.34C171.27,193.07,171.27,193.06,171.26,193.04z M171.26,193.04    c-0.02-0.16-0.16-0.28-0.32-0.28c-5.15,0-10.31,0-15.48,0.01c-0.01,0.01-0.03,0-0.04,0c-0.43-0.01-0.85-0.02-1.28-0.03    c-0.95,0.01-1.91,0.02-2.87,0.03c-1.13,0-2.27,0.01-3.42,0.01c-28.55,0.04-57.27,0.17-85.66,0.37    c-10.71,0.07-21.79,0.15-32.78,1.43c-0.18,0.02-0.31,0.19-0.29,0.37c0.02,0.17,0.16,0.3,0.33,0.3c0.01,0,0.03,0,0.04-0.01    c10.96-1.27,22.01-1.35,32.7-1.42c36.05-0.26,72.64-0.39,108.75-0.39c0.18,0,0.33-0.15,0.33-0.34    C171.27,193.07,171.27,193.06,171.26,193.04z M171.26,193.04c-0.02-0.16-0.16-0.28-0.32-0.28c-5.15,0-10.31,0-15.48,0.01    c-0.01,0.01-0.03,0-0.04,0c-0.43-0.01-0.85-0.02-1.28-0.03c-0.95,0.01-1.91,0.02-2.87,0.03c-1.13,0-2.27,0.01-3.42,0.01    c-28.55,0.04-57.27,0.17-85.66,0.37c-10.71,0.07-21.79,0.15-32.78,1.43c-0.18,0.02-0.31,0.19-0.29,0.37    c0.02,0.17,0.16,0.3,0.33,0.3c0.01,0,0.03,0,0.04-0.01c10.96-1.27,22.01-1.35,32.7-1.42c36.05-0.26,72.64-0.39,108.75-0.39    c0.18,0,0.33-0.15,0.33-0.34C171.27,193.07,171.27,193.06,171.26,193.04z M171.26,193.04c-0.02-0.16-0.16-0.28-0.32-0.28    c-5.15,0-10.31,0-15.48,0.01c-0.01,0.01-0.03,0-0.04,0c-0.43-0.01-0.85-0.02-1.28-0.03c-0.95,0.01-1.91,0.02-2.87,0.03    c-1.13,0-2.27,0.01-3.42,0.01c-28.55,0.04-57.27,0.17-85.66,0.37c-10.71,0.07-21.79,0.15-32.78,1.43    c-0.18,0.02-0.31,0.19-0.29,0.37c0.02,0.17,0.16,0.3,0.33,0.3c0.01,0,0.03,0,0.04-0.01c10.96-1.27,22.01-1.35,32.7-1.42    c36.05-0.26,72.64-0.39,108.75-0.39c0.18,0,0.33-0.15,0.33-0.34C171.27,193.07,171.27,193.06,171.26,193.04z M171.26,193.04    c-0.02-0.16-0.16-0.28-0.32-0.28c-5.15,0-10.31,0-15.48,0.01c-0.01,0.01-0.03,0-0.04,0c-0.43-0.01-0.85-0.02-1.28-0.03    c-0.95,0.01-1.91,0.02-2.87,0.03c-1.13,0-2.27,0.01-3.42,0.01c-28.55,0.04-57.27,0.17-85.66,0.37    c-10.71,0.07-21.79,0.15-32.78,1.43c-0.18,0.02-0.31,0.19-0.29,0.37c0.02,0.17,0.16,0.3,0.33,0.3c0.01,0,0.03,0,0.04-0.01    c10.96-1.27,22.01-1.35,32.7-1.42c36.05-0.26,72.64-0.39,108.75-0.39c0.18,0,0.33-0.15,0.33-0.34    C171.27,193.07,171.27,193.06,171.26,193.04z M171.26,193.04c-0.02-0.16-0.16-0.28-0.32-0.28c-5.15,0-10.31,0-15.48,0.01    c-0.01,0.01-0.03,0-0.04,0c-0.43-0.01-0.85-0.02-1.28-0.03c-0.95,0.01-1.91,0.02-2.87,0.03c-1.13,0-2.27,0.01-3.42,0.01    c-28.55,0.04-57.27,0.17-85.66,0.37c-10.71,0.07-21.79,0.15-32.78,1.43c-0.18,0.02-0.31,0.19-0.29,0.37    c0.02,0.17,0.16,0.3,0.33,0.3c0.01,0,0.03,0,0.04-0.01c10.96-1.27,22.01-1.35,32.7-1.42c36.05-0.26,72.64-0.39,108.75-0.39    c0.18,0,0.33-0.15,0.33-0.34C171.27,193.07,171.27,193.06,171.26,193.04z M171.26,193.04c-0.02-0.16-0.16-0.28-0.32-0.28    c-5.15,0-10.31,0-15.48,0.01c-0.01,0.01-0.03,0-0.04,0c-0.43-0.01-0.85-0.02-1.28-0.03c-0.95,0.01-1.91,0.02-2.87,0.03    c-1.13,0-2.27,0.01-3.42,0.01c-28.55,0.04-57.27,0.17-85.66,0.37c-10.71,0.07-21.79,0.15-32.78,1.43    c-0.18,0.02-0.31,0.19-0.29,0.37c0.02,0.17,0.16,0.3,0.33,0.3c0.01,0,0.03,0,0.04-0.01c10.96-1.27,22.01-1.35,32.7-1.42    c36.05-0.26,72.64-0.39,108.75-0.39c0.18,0,0.33-0.15,0.33-0.34C171.27,193.07,171.27,193.06,171.26,193.04z M171.26,193.04    c-0.02-0.16-0.16-0.28-0.32-0.28c-5.15,0-10.31,0-15.48,0.01c-0.01,0.01-0.03,0-0.04,0c-0.43-0.01-0.85-0.02-1.28-0.03    c-0.95,0.01-1.91,0.02-2.87,0.03c-1.13,0-2.27,0.01-3.42,0.01c-28.55,0.04-57.27,0.17-85.66,0.37    c-10.71,0.07-21.79,0.15-32.78,1.43c-0.18,0.02-0.31,0.19-0.29,0.37c0.02,0.17,0.16,0.3,0.33,0.3c0.01,0,0.03,0,0.04-0.01    c10.96-1.27,22.01-1.35,32.7-1.42c36.05-0.26,72.64-0.39,108.75-0.39c0.18,0,0.33-0.15,0.33-0.34    C171.27,193.07,171.27,193.06,171.26,193.04z M171.26,193.04c-0.02-0.16-0.16-0.28-0.32-0.28c-5.15,0-10.31,0-15.48,0.01    c-0.01,0.01-0.03,0-0.04,0c-0.43-0.01-0.85-0.02-1.28-0.03c-0.95,0.01-1.91,0.02-2.87,0.03c-1.13,0-2.27,0.01-3.42,0.01    c-28.55,0.04-57.27,0.17-85.66,0.37c-10.71,0.07-21.79,0.15-32.78,1.43c-0.18,0.02-0.31,0.19-0.29,0.37    c0.02,0.17,0.16,0.3,0.33,0.3c0.01,0,0.03,0,0.04-0.01c10.96-1.27,22.01-1.35,32.7-1.42c36.05-0.26,72.64-0.39,108.75-0.39    c0.18,0,0.33-0.15,0.33-0.34C171.27,193.07,171.27,193.06,171.26,193.04z M171.26,193.04c-0.02-0.16-0.16-0.28-0.32-0.28    c-5.15,0-10.31,0-15.48,0.01c-0.01,0.01-0.03,0-0.04,0c-0.43-0.01-0.85-0.02-1.28-0.03c-0.95,0.01-1.91,0.02-2.87,0.03    c-1.13,0-2.27,0.01-3.42,0.01c-28.55,0.04-57.27,0.17-85.66,0.37c-10.71,0.07-21.79,0.15-32.78,1.43    c-0.18,0.02-0.31,0.19-0.29,0.37c0.02,0.17,0.16,0.3,0.33,0.3c0.01,0,0.03,0,0.04-0.01c10.96-1.27,22.01-1.35,32.7-1.42    c36.05-0.26,72.64-0.39,108.75-0.39c0.18,0,0.33-0.15,0.33-0.34C171.27,193.07,171.27,193.06,171.26,193.04z M171.26,193.04    c-0.02-0.16-0.16-0.28-0.32-0.28c-5.15,0-10.31,0-15.48,0.01c-0.01,0.01-0.03,0-0.04,0c-0.43-0.01-0.85-0.02-1.28-0.03    c-0.95,0.01-1.91,0.02-2.87,0.03c-1.13,0-2.27,0.01-3.42,0.01c-28.55,0.04-57.27,0.17-85.66,0.37    c-10.71,0.07-21.79,0.15-32.78,1.43c-0.18,0.02-0.31,0.19-0.29,0.37c0.02,0.17,0.16,0.3,0.33,0.3c0.01,0,0.03,0,0.04-0.01    c10.96-1.27,22.01-1.35,32.7-1.42c36.05-0.26,72.64-0.39,108.75-0.39c0.18,0,0.33-0.15,0.33-0.34    C171.27,193.07,171.27,193.06,171.26,193.04z M171.26,193.04c-0.02-0.16-0.16-0.28-0.32-0.28c-5.15,0-10.31,0-15.48,0.01    c-0.01,0.01-0.03,0-0.04,0c-0.43-0.01-0.85-0.02-1.28-0.03c-0.95,0.01-1.91,0.02-2.87,0.03c-1.13,0-2.27,0.01-3.42,0.01    c-28.55,0.04-57.27,0.17-85.66,0.37c-10.71,0.07-21.79,0.15-32.78,1.43c-0.18,0.02-0.31,0.19-0.29,0.37    c0.02,0.17,0.16,0.3,0.33,0.3c0.01,0,0.03,0,0.04-0.01c10.96-1.27,22.01-1.35,32.7-1.42c36.05-0.26,72.64-0.39,108.75-0.39    c0.18,0,0.33-0.15,0.33-0.34C171.27,193.07,171.27,193.06,171.26,193.04z M171.26,193.04c-0.02-0.16-0.16-0.28-0.32-0.28    c-5.15,0-10.31,0-15.48,0.01c-0.01,0.01-0.03,0-0.04,0c-0.43-0.01-0.85-0.02-1.28-0.03c-0.95,0.01-1.91,0.02-2.87,0.03    c-1.13,0-2.27,0.01-3.42,0.01c-28.55,0.04-57.27,0.17-85.66,0.37c-10.71,0.07-21.79,0.15-32.78,1.43    c-0.18,0.02-0.31,0.19-0.29,0.37c0.02,0.17,0.16,0.3,0.33,0.3c0.01,0,0.03,0,0.04-0.01c10.96-1.27,22.01-1.35,32.7-1.42    c36.05-0.26,72.64-0.39,108.75-0.39c0.18,0,0.33-0.15,0.33-0.34C171.27,193.07,171.27,193.06,171.26,193.04z M161.79,179.16    c-0.33-0.01-0.67-0.01-1-0.02c-0.34,0-0.67-0.01-1.01-0.01c-19.29-0.27-38.29-0.39-57.12-0.41h-0.08    c-19.94-0.03-39.68,0.04-59.38,0.12c-0.01,0.01-0.02,0-0.02,0c-0.03,0.01-0.05,0.01-0.07,0c-0.01,0-0.02,0-0.02,0    c-0.65,0.01-1.32,0.01-1.97,0.01c-0.34,0.01-0.68,0.01-1.02,0.01h-1.01c-4.85,0.03-9.71,0.05-14.56,0.08    c0.39,5.5,0.75,10.97,1.38,15.82c0.16,1.2,0.34,2.36,0.53,3.47c0.05,0.26,0.09,0.51,0.14,0.76c0.4-0.01,0.79-0.01,1.19-0.02    c5.38-0.1,10.76-0.19,16.14-0.27c0.14-0.01,0.29-0.01,0.43-0.01c43.52-0.66,87.06-0.71,130.51-0.42c0.04-0.68,0.07-1.37,0.1-2.05    c0.04-0.54,0.06-1.08,0.09-1.62c0.24-5.07,0.38-10.14,0.44-15.22C170.9,179.3,166.34,179.22,161.79,179.16z M174.08,193.34    c-0.05,1.31-0.12,2.62-0.19,3.92c-2.78-0.02-5.55-0.04-8.29-0.05c-15.07-0.08-29.65-0.12-43.81-0.11h-0.27    c-10.5,0.01-20.76,0.04-30.82,0.1c-0.86,0.01-1.72,0.01-2.57,0.02c-21.08,0.14-41.25,0.39-60.71,0.75    c-0.24-1.37-0.45-2.81-0.63-4.31c-0.5-4.12-0.83-8.68-1.16-13.41l-0.02-0.3c4.52-0.02,9.06-0.05,13.62-0.07    c0.33,0,0.67-0.01,1.01-0.01h1.02c7.47-0.04,14.99-0.08,22.54-0.11c31.67-0.1,64-0.08,96.94,0.39c0.34,0,0.67,0.01,1.01,0.02    c4.23,0.05,8.46,0.12,12.71,0.2C174.41,184.68,174.28,189.02,174.08,193.34z M155.42,192.77c-0.43-0.01-0.85-0.02-1.28-0.03    c-0.95,0.01-1.91,0.02-2.87,0.03c-1.13,0-2.27,0.01-3.42,0.01c-28.55,0.04-57.27,0.17-85.66,0.37    c-10.71,0.07-21.79,0.15-32.78,1.43c-0.18,0.02-0.31,0.19-0.29,0.37c0.02,0.17,0.16,0.3,0.33,0.3c0.01,0,0.03,0,0.04-0.01    c10.96-1.27,22.01-1.35,32.7-1.42c36.05-0.26,72.64-0.39,108.75-0.39c0.18,0,0.33-0.15,0.33-0.34c0-0.02,0-0.03-0.01-0.05    c-0.02-0.16-0.16-0.28-0.32-0.28c-5.15,0-10.31,0-15.48,0.01C155.45,192.78,155.43,192.77,155.42,192.77z M171.26,193.04    c-0.02-0.16-0.16-0.28-0.32-0.28c-5.15,0-10.31,0-15.48,0.01c-0.01,0.01-0.03,0-0.04,0c-0.43-0.01-0.85-0.02-1.28-0.03    c-0.95,0.01-1.91,0.02-2.87,0.03c-1.13,0-2.27,0.01-3.42,0.01c-28.55,0.04-57.27,0.17-85.66,0.37    c-10.71,0.07-21.79,0.15-32.78,1.43c-0.18,0.02-0.31,0.19-0.29,0.37c0.02,0.17,0.16,0.3,0.33,0.3c0.01,0,0.03,0,0.04-0.01    c10.96-1.27,22.01-1.35,32.7-1.42c36.05-0.26,72.64-0.39,108.75-0.39c0.18,0,0.33-0.15,0.33-0.34    C171.27,193.07,171.27,193.06,171.26,193.04z M171.26,193.04c-0.02-0.16-0.16-0.28-0.32-0.28c-5.15,0-10.31,0-15.48,0.01    c-0.01,0.01-0.03,0-0.04,0c-0.43-0.01-0.85-0.02-1.28-0.03c-0.95,0.01-1.91,0.02-2.87,0.03c-1.13,0-2.27,0.01-3.42,0.01    c-28.55,0.04-57.27,0.17-85.66,0.37c-10.71,0.07-21.79,0.15-32.78,1.43c-0.18,0.02-0.31,0.19-0.29,0.37    c0.02,0.17,0.16,0.3,0.33,0.3c0.01,0,0.03,0,0.04-0.01c10.96-1.27,22.01-1.35,32.7-1.42c36.05-0.26,72.64-0.39,108.75-0.39    c0.18,0,0.33-0.15,0.33-0.34C171.27,193.07,171.27,193.06,171.26,193.04z M171.26,193.04c-0.02-0.16-0.16-0.28-0.32-0.28    c-5.15,0-10.31,0-15.48,0.01c-0.01,0.01-0.03,0-0.04,0c-0.43-0.01-0.85-0.02-1.28-0.03c-0.95,0.01-1.91,0.02-2.87,0.03    c-1.13,0-2.27,0.01-3.42,0.01c-28.55,0.04-57.27,0.17-85.66,0.37c-10.71,0.07-21.79,0.15-32.78,1.43    c-0.18,0.02-0.31,0.19-0.29,0.37c0.02,0.17,0.16,0.3,0.33,0.3c0.01,0,0.03,0,0.04-0.01c10.96-1.27,22.01-1.35,32.7-1.42    c36.05-0.26,72.64-0.39,108.75-0.39c0.18,0,0.33-0.15,0.33-0.34C171.27,193.07,171.27,193.06,171.26,193.04z M171.26,193.04    c-0.02-0.16-0.16-0.28-0.32-0.28c-5.15,0-10.31,0-15.48,0.01c-0.01,0.01-0.03,0-0.04,0c-0.43-0.01-0.85-0.02-1.28-0.03    c-0.95,0.01-1.91,0.02-2.87,0.03c-1.13,0-2.27,0.01-3.42,0.01c-28.55,0.04-57.27,0.17-85.66,0.37    c-10.71,0.07-21.79,0.15-32.78,1.43c-0.18,0.02-0.31,0.19-0.29,0.37c0.02,0.17,0.16,0.3,0.33,0.3c0.01,0,0.03,0,0.04-0.01    c10.96-1.27,22.01-1.35,32.7-1.42c36.05-0.26,72.64-0.39,108.75-0.39c0.18,0,0.33-0.15,0.33-0.34    C171.27,193.07,171.27,193.06,171.26,193.04z M171.26,193.04c-0.02-0.16-0.16-0.28-0.32-0.28c-5.15,0-10.31,0-15.48,0.01    c-0.01,0.01-0.03,0-0.04,0c-0.43-0.01-0.85-0.02-1.28-0.03c-0.95,0.01-1.91,0.02-2.87,0.03c-1.13,0-2.27,0.01-3.42,0.01    c-28.55,0.04-57.27,0.17-85.66,0.37c-10.71,0.07-21.79,0.15-32.78,1.43c-0.18,0.02-0.31,0.19-0.29,0.37    c0.02,0.17,0.16,0.3,0.33,0.3c0.01,0,0.03,0,0.04-0.01c10.96-1.27,22.01-1.35,32.7-1.42c36.05-0.26,72.64-0.39,108.75-0.39    c0.18,0,0.33-0.15,0.33-0.34C171.27,193.07,171.27,193.06,171.26,193.04z M171.26,193.04c-0.02-0.16-0.16-0.28-0.32-0.28    c-5.15,0-10.31,0-15.48,0.01c-0.01,0.01-0.03,0-0.04,0c-0.43-0.01-0.85-0.02-1.28-0.03c-0.95,0.01-1.91,0.02-2.87,0.03    c-1.13,0-2.27,0.01-3.42,0.01c-28.55,0.04-57.27,0.17-85.66,0.37c-10.71,0.07-21.79,0.15-32.78,1.43    c-0.18,0.02-0.31,0.19-0.29,0.37c0.02,0.17,0.16,0.3,0.33,0.3c0.01,0,0.03,0,0.04-0.01c10.96-1.27,22.01-1.35,32.7-1.42    c36.05-0.26,72.64-0.39,108.75-0.39c0.18,0,0.33-0.15,0.33-0.34C171.27,193.07,171.27,193.06,171.26,193.04z M171.26,193.04    c-0.02-0.16-0.16-0.28-0.32-0.28c-5.15,0-10.31,0-15.48,0.01c-0.01,0.01-0.03,0-0.04,0c-0.43-0.01-0.85-0.02-1.28-0.03    c-0.95,0.01-1.91,0.02-2.87,0.03c-1.13,0-2.27,0.01-3.42,0.01c-28.55,0.04-57.27,0.17-85.66,0.37    c-10.71,0.07-21.79,0.15-32.78,1.43c-0.18,0.02-0.31,0.19-0.29,0.37c0.02,0.17,0.16,0.3,0.33,0.3c0.01,0,0.03,0,0.04-0.01    c10.96-1.27,22.01-1.35,32.7-1.42c36.05-0.26,72.64-0.39,108.75-0.39c0.18,0,0.33-0.15,0.33-0.34    C171.27,193.07,171.27,193.06,171.26,193.04z M171.26,193.04c-0.02-0.16-0.16-0.28-0.32-0.28c-5.15,0-10.31,0-15.48,0.01    c-0.01,0.01-0.03,0-0.04,0c-0.43-0.01-0.85-0.02-1.28-0.03c-0.95,0.01-1.91,0.02-2.87,0.03c-1.13,0-2.27,0.01-3.42,0.01    c-28.55,0.04-57.27,0.17-85.66,0.37c-10.71,0.07-21.79,0.15-32.78,1.43c-0.18,0.02-0.31,0.19-0.29,0.37    c0.02,0.17,0.16,0.3,0.33,0.3c0.01,0,0.03,0,0.04-0.01c10.96-1.27,22.01-1.35,32.7-1.42c36.05-0.26,72.64-0.39,108.75-0.39    c0.18,0,0.33-0.15,0.33-0.34C171.27,193.07,171.27,193.06,171.26,193.04z M171.26,193.04c-0.02-0.16-0.16-0.28-0.32-0.28    c-5.15,0-10.31,0-15.48,0.01c-0.01,0.01-0.03,0-0.04,0c-0.43-0.01-0.85-0.02-1.28-0.03c-0.95,0.01-1.91,0.02-2.87,0.03    c-1.13,0-2.27,0.01-3.42,0.01c-28.55,0.04-57.27,0.17-85.66,0.37c-10.71,0.07-21.79,0.15-32.78,1.43    c-0.18,0.02-0.31,0.19-0.29,0.37c0.02,0.17,0.16,0.3,0.33,0.3c0.01,0,0.03,0,0.04-0.01c10.96-1.27,22.01-1.35,32.7-1.42    c36.05-0.26,72.64-0.39,108.75-0.39c0.18,0,0.33-0.15,0.33-0.34C171.27,193.07,171.27,193.06,171.26,193.04z M171.26,193.04    c-0.02-0.16-0.16-0.28-0.32-0.28c-5.15,0-10.31,0-15.48,0.01c-0.01,0.01-0.03,0-0.04,0c-0.43-0.01-0.85-0.02-1.28-0.03    c-0.95,0.01-1.91,0.02-2.87,0.03c-1.13,0-2.27,0.01-3.42,0.01c-28.55,0.04-57.27,0.17-85.66,0.37    c-10.71,0.07-21.79,0.15-32.78,1.43c-0.18,0.02-0.31,0.19-0.29,0.37c0.02,0.17,0.16,0.3,0.33,0.3c0.01,0,0.03,0,0.04-0.01    c10.96-1.27,22.01-1.35,32.7-1.42c36.05-0.26,72.64-0.39,108.75-0.39c0.18,0,0.33-0.15,0.33-0.34    C171.27,193.07,171.27,193.06,171.26,193.04z M171.26,193.04c-0.02-0.16-0.16-0.28-0.32-0.28c-5.15,0-10.31,0-15.48,0.01    c-0.01,0.01-0.03,0-0.04,0c-0.43-0.01-0.85-0.02-1.28-0.03c-0.95,0.01-1.91,0.02-2.87,0.03c-1.13,0-2.27,0.01-3.42,0.01    c-28.55,0.04-57.27,0.17-85.66,0.37c-10.71,0.07-21.79,0.15-32.78,1.43c-0.18,0.02-0.31,0.19-0.29,0.37    c0.02,0.17,0.16,0.3,0.33,0.3c0.01,0,0.03,0,0.04-0.01c10.96-1.27,22.01-1.35,32.7-1.42c36.05-0.26,72.64-0.39,108.75-0.39    c0.18,0,0.33-0.15,0.33-0.34C171.27,193.07,171.27,193.06,171.26,193.04z M171.26,193.04c-0.02-0.16-0.16-0.28-0.32-0.28    c-5.15,0-10.31,0-15.48,0.01c-0.01,0.01-0.03,0-0.04,0c-0.43-0.01-0.85-0.02-1.28-0.03c-0.95,0.01-1.91,0.02-2.87,0.03    c-1.13,0-2.27,0.01-3.42,0.01c-28.55,0.04-57.27,0.17-85.66,0.37c-10.71,0.07-21.79,0.15-32.78,1.43    c-0.18,0.02-0.31,0.19-0.29,0.37c0.02,0.17,0.16,0.3,0.33,0.3c0.01,0,0.03,0,0.04-0.01c10.96-1.27,22.01-1.35,32.7-1.42    c36.05-0.26,72.64-0.39,108.75-0.39c0.18,0,0.33-0.15,0.33-0.34C171.27,193.07,171.27,193.06,171.26,193.04z M171.26,193.04    c-0.02-0.16-0.16-0.28-0.32-0.28c-5.15,0-10.31,0-15.48,0.01c-0.01,0.01-0.03,0-0.04,0c-0.43-0.01-0.85-0.02-1.28-0.03    c-0.95,0.01-1.91,0.02-2.87,0.03c-1.13,0-2.27,0.01-3.42,0.01c-28.55,0.04-57.27,0.17-85.66,0.37    c-10.71,0.07-21.79,0.15-32.78,1.43c-0.18,0.02-0.31,0.19-0.29,0.37c0.02,0.17,0.16,0.3,0.33,0.3c0.01,0,0.03,0,0.04-0.01    c10.96-1.27,22.01-1.35,32.7-1.42c36.05-0.26,72.64-0.39,108.75-0.39c0.18,0,0.33-0.15,0.33-0.34    C171.27,193.07,171.27,193.06,171.26,193.04z M171.26,193.04c-0.02-0.16-0.16-0.28-0.32-0.28c-5.15,0-10.31,0-15.48,0.01    c-0.01,0.01-0.03,0-0.04,0c-0.43-0.01-0.85-0.02-1.28-0.03c-0.95,0.01-1.91,0.02-2.87,0.03c-1.13,0-2.27,0.01-3.42,0.01    c-28.55,0.04-57.27,0.17-85.66,0.37c-10.71,0.07-21.79,0.15-32.78,1.43c-0.18,0.02-0.31,0.19-0.29,0.37    c0.02,0.17,0.16,0.3,0.33,0.3c0.01,0,0.03,0,0.04-0.01c10.96-1.27,22.01-1.35,32.7-1.42c36.05-0.26,72.64-0.39,108.75-0.39    c0.18,0,0.33-0.15,0.33-0.34C171.27,193.07,171.27,193.06,171.26,193.04z M171.26,193.04c-0.02-0.16-0.16-0.28-0.32-0.28    c-5.15,0-10.31,0-15.48,0.01c-0.01,0.01-0.03,0-0.04,0c-0.43-0.01-0.85-0.02-1.28-0.03c-0.95,0.01-1.91,0.02-2.87,0.03    c-1.13,0-2.27,0.01-3.42,0.01c-28.55,0.04-57.27,0.17-85.66,0.37c-10.71,0.07-21.79,0.15-32.78,1.43    c-0.18,0.02-0.31,0.19-0.29,0.37c0.02,0.17,0.16,0.3,0.33,0.3c0.01,0,0.03,0,0.04-0.01c10.96-1.27,22.01-1.35,32.7-1.42    c36.05-0.26,72.64-0.39,108.75-0.39c0.18,0,0.33-0.15,0.33-0.34C171.27,193.07,171.27,193.06,171.26,193.04z M171.26,193.04    c-0.02-0.16-0.16-0.28-0.32-0.28c-5.15,0-10.31,0-15.48,0.01c-0.01,0.01-0.03,0-0.04,0c-0.43-0.01-0.85-0.02-1.28-0.03    c-0.95,0.01-1.91,0.02-2.87,0.03c-1.13,0-2.27,0.01-3.42,0.01c-28.55,0.04-57.27,0.17-85.66,0.37    c-10.71,0.07-21.79,0.15-32.78,1.43c-0.18,0.02-0.31,0.19-0.29,0.37c0.02,0.17,0.16,0.3,0.33,0.3c0.01,0,0.03,0,0.04-0.01    c10.96-1.27,22.01-1.35,32.7-1.42c36.05-0.26,72.64-0.39,108.75-0.39c0.18,0,0.33-0.15,0.33-0.34    C171.27,193.07,171.27,193.06,171.26,193.04z"/>
            <path class="st0" d="M175.5,178.38c-4.57-0.09-9.13-0.16-13.67-0.23c-0.34,0-0.67-0.01-1-0.01c-0.13,0-0.27-0.01-0.4-0.01    c-0.2,0-0.41,0-0.61-0.01c-40.57-0.57-80.2-0.46-118.82-0.27c-0.34,0.01-0.68,0.01-1.01,0.01h-1.02    c-4.83,0.03-9.65,0.05-14.45,0.08c-0.28,0-0.54,0.12-0.73,0.32c-0.19,0.21-0.29,0.48-0.27,0.76l0.1,1.37    c0.49,6.87,0.94,13.35,1.97,18.79c0.09,0.48,0.51,0.82,0.99,0.82c0.01,0,0.01,0,0.02,0c44.8-0.85,93.29-1.09,148.24-0.72    c0,0,0,0,0.01,0c0.53,0,0.97-0.42,1-0.95c0.36-6.28,0.57-12.65,0.63-18.94C176.49,178.84,176.05,178.39,175.5,178.38z     M174.08,193.34c-0.05,1.31-0.12,2.62-0.19,3.92c-2.78-0.02-5.55-0.04-8.29-0.05c-15.07-0.08-29.65-0.12-43.81-0.11h-0.27    c-10.5,0.01-20.76,0.04-30.82,0.1c-0.86,0.01-1.72,0.01-2.57,0.02c-21.08,0.14-41.25,0.39-60.71,0.75    c-0.24-1.37-0.45-2.81-0.63-4.31c-0.5-4.12-0.83-8.68-1.16-13.41l-0.02-0.3c4.52-0.02,9.06-0.05,13.62-0.07    c0.33,0,0.67-0.01,1.01-0.01h1.02c7.47-0.04,14.99-0.08,22.54-0.11c31.67-0.1,64-0.08,96.94,0.39c0.34,0,0.67,0.01,1.01,0.02    c4.23,0.05,8.46,0.12,12.71,0.2C174.41,184.68,174.28,189.02,174.08,193.34z"/>
        </g>
        <g>
            <path class="st0" d="M112.85,43.19c-1.45,5.66-7.21,9.71-13.14,9.71c-0.94,0-1.87-0.1-2.8-0.31c-6.81-1.54-11.61-8.71-10.28-15.34    s8.54-11.4,15.41-10.2c2.66,0.47,5.17,1.84,7.14,3.75c1.97,1.9,3.39,4.34,3.86,6.91C113.37,39.53,113.31,41.42,112.85,43.19z"/>
            <path class="st0" d="M128.05,67.34h-1.01l-17-0.07h-1.02l-1-0.01L91.5,67.2l-1.01-0.01h-1.01L74.1,67.13v1    c5.14,0.02,10.28,0.04,15.41,0.06c0.34,0.01,0.67,0.01,1,0c0.34,0.01,0.68,0.01,1.02,0.01c5.5,0.02,11,0.05,16.5,0.06    c0.34,0.01,0.67,0.01,1,0.01h1.01c5.68,0.03,11.35,0.05,17.02,0.07c0.34,0,0.68,0.01,1.01,0    C128.06,68.01,128.05,67.68,128.05,67.34z M128.05,67.34h-1.01l-17-0.07h-1.02l-1-0.01L91.5,67.2l-1.01-0.01h-1.01L74.1,67.13    l-1.02-0.01c0.01,0.33,0.01,0.66,0.01,1c0.34,0.01,0.68,0.01,1.01,0.01c5.14,0.02,10.28,0.04,15.41,0.06c0.34,0.01,0.67,0.01,1,0    c0.34,0.01,0.68,0.01,1.02,0.01c5.5,0.02,11,0.05,16.5,0.06c0.34,0.01,0.67,0.01,1,0.01h1.01c5.68,0.03,11.35,0.05,17.02,0.07    c0.34,0,0.68,0.01,1.01,0C128.06,68.01,128.05,67.68,128.05,67.34z M172.47,59.82c-20.33-18.8-35.83-33.94-58.37-51.15    c-4.38-3.34-9.34-6.85-15.38-7.66c-7.24,0.42-12.37,4.5-19.14,9.89C61.1,25.62,44.53,41.56,29.25,57.77    c-1.85,1.97-3.79,4.36-2.78,6.68c1.3,2.98,6.34,3.52,10.39,3.53c5.59,0.02,11.19,0.05,16.78,0.07h1.01c0.34,0,0.67,0.01,1.01,0.01    c5.48,0.02,10.96,0.04,16.44,0.06h0.14c0.01,0,0.01,0,0.02,0s0.01,0,0.02,0c0.01,0,0.01,0,0.02,0h0.04c0,0,0,0,0.01,0    c0,0,0,0,0.01,0c0.01,0.01,0.03,0.01,0.05,0h0.04c0.01,0,0.02,0,0.02,0c0.01,0,0.01,0,0.02,0h0.6c0.34,0.01,0.68,0.01,1.01,0.01    c5.14,0.02,10.28,0.04,15.41,0.06c0.34,0.01,0.67,0.01,1,0c0.34,0.01,0.68,0.01,1.02,0.01c5.5,0.02,11,0.05,16.5,0.06    c0.34,0.01,0.67,0.01,1,0.01h1.01c5.68,0.03,11.35,0.05,17.02,0.07c0.34,0,0.68,0.01,1.01,0c0.34,0.01,0.68,0.01,1.01,0.01    c5.48,0.02,10.96,0.04,16.43,0.06c0.34,0.01,0.67,0.01,1,0.01h1c4.02,0.02,8.05,0.03,12.07,0.05c3.59,0.02,7.4-0.02,10.42-1.51    C173.02,65.46,174.64,61.92,172.47,59.82z M172.43,62.57c-0.21,1.33-1.36,2.73-2.87,3.48c-2.91,1.45-6.83,1.43-9.97,1.42    l-12.08-0.05h-1l-1.01-0.01l-16.45-0.06l-1-0.01h-1.01l-17-0.07h-1.02l-1-0.01L91.5,67.2l-1.01-0.01h-1.01L74.1,67.13l-1.02-0.01    h-0.99l-16.45-0.07h-2.03l-16.75-0.07c-6.78-0.03-8.89-1.61-9.47-2.94c-0.74-1.69,0.81-3.68,2.6-5.58    c17.22-18.27,33.64-33.57,50.22-46.77c5.94-4.73,10.43-8.31,16.13-9.38c0.76-0.14,1.54-0.24,2.35-0.29    c5.69,0.8,10.43,4.12,14.8,7.45c18.95,14.47,32.87,27.43,48.99,42.45c3.01,2.8,6.1,5.68,9.29,8.63    C172.33,61.09,172.55,61.77,172.43,62.57z M128.05,67.34h-1.01l-17-0.07h-1.02l-1-0.01L91.5,67.2l-1.01-0.01h-1.01L74.1,67.13v1    c5.14,0.02,10.28,0.04,15.41,0.06c0.34,0.01,0.67,0.01,1,0c0.34,0.01,0.68,0.01,1.02,0.01c5.5,0.02,11,0.05,16.5,0.06    c0.34,0.01,0.67,0.01,1,0.01h1.01c5.68,0.03,11.35,0.05,17.02,0.07c0.34,0,0.68,0.01,1.01,0    C128.06,68.01,128.05,67.68,128.05,67.34z"/>
            <path class="st0" d="M128.07,68.34c-0.01-0.33-0.02-0.66-0.02-1h-1.01l-17-0.07h-1.02l-1-0.01L91.5,67.2l-1.01-0.01h-1.01    L74.1,67.13l-1.02-0.01h-0.99c0,0.33,0,0.66,0.01,1h0.14c0.01,0,0.01,0,0.02,0s0.01,0,0.02,0c0.01,0,0.01,0,0.02,0h0.04    c0,0,0,0,0.01,0c0,0,0,0,0.01,0c0.01,0.01,0.03,0.01,0.05,0h0.04c0.01,0,0.02,0,0.02,0c0.01,0,0.01,0,0.02,0h0.6    c0,0.33,0.01,0.67,0.01,1.01l1.01,0.01l15.42,0.06h1.01l1.01,0.01l16.48,0.06l1.01,0.01h1.01l17.03,0.07    c0-0.34-0.01-0.67-0.02-1.01C127.4,68.34,127.74,68.35,128.07,68.34z M128.07,68.34c-0.01-0.33-0.02-0.66-0.02-1h-1.01l-17-0.07    h-1.02l-1-0.01L91.5,67.2l-1.01-0.01h-1.01L74.1,67.13l-1.02-0.01h-0.99c0,0.33,0,0.66,0.01,1h0.14c0.01,0,0.01,0,0.02,0    s0.01,0,0.02,0c0.01,0,0.01,0,0.02,0h0.04c0,0,0,0,0.01,0c0,0,0,0,0.01,0c0.01,0.01,0.03,0.01,0.05,0h0.04c0.01,0,0.02,0,0.02,0    c0.01,0,0.01,0,0.02,0h0.6c0,0.33,0.01,0.67,0.01,1.01l1.01,0.01l15.42,0.06h1.01l1.01,0.01l16.48,0.06l1.01,0.01h1.01l17.03,0.07    c0-0.34-0.01-0.67-0.02-1.01C127.4,68.34,127.74,68.35,128.07,68.34z M128.07,68.34c-0.01-0.33-0.02-0.66-0.02-1h-1.01l-17-0.07    h-1.02l-1-0.01L91.5,67.2l-1.01-0.01h-1.01L74.1,67.13l-1.02-0.01h-0.99c0,0.33,0,0.66,0.01,1h0.14c0.01,0,0.01,0,0.02,0    s0.01,0,0.02,0c0.01,0,0.01,0,0.02,0h0.04c0,0,0,0,0.01,0c0,0,0,0,0.01,0c0.01,0.01,0.03,0.01,0.05,0h0.04c0.01,0,0.02,0,0.02,0    c0.01,0,0.01,0,0.02,0h0.6c0,0.33,0.01,0.67,0.01,1.01l1.01,0.01l15.42,0.06h1.01l1.01,0.01l16.48,0.06l1.01,0.01h1.01l17.03,0.07    c0-0.34-0.01-0.67-0.02-1.01C127.4,68.34,127.74,68.35,128.07,68.34z M128.07,68.34c-0.01-0.33-0.02-0.66-0.02-1h-1.01l-17-0.07    h-1.02l-1-0.01L91.5,67.2l-1.01-0.01h-1.01L74.1,67.13l-1.02-0.01h-0.99c0,0.33,0,0.66,0.01,1h0.14c0.01,0,0.01,0,0.02,0    s0.01,0,0.02,0c0.01,0,0.01,0,0.02,0h0.04c0,0,0,0,0.01,0c0,0,0,0,0.01,0c0.01,0.01,0.03,0.01,0.05,0h0.04c0.01,0,0.02,0,0.02,0    c0.01,0,0.01,0,0.02,0h0.6c0,0.33,0.01,0.67,0.01,1.01l1.01,0.01l15.42,0.06h1.01l1.01,0.01l16.48,0.06l1.01,0.01h1.01l17.03,0.07    c0-0.34-0.01-0.67-0.02-1.01C127.4,68.34,127.74,68.35,128.07,68.34z M128.07,68.34c-0.01-0.33-0.02-0.66-0.02-1h-1.01l-17-0.07    h-1.02l-1-0.01L91.5,67.2l-1.01-0.01h-1.01L74.1,67.13l-1.02-0.01h-0.99c0,0.33,0,0.66,0.01,1h0.14c0.01,0,0.01,0,0.02,0    s0.01,0,0.02,0c0.01,0,0.01,0,0.02,0h0.04c0,0,0,0,0.01,0c0,0,0,0,0.01,0c0.01,0.01,0.03,0.01,0.05,0h0.04c0.01,0,0.02,0,0.02,0    c0.01,0,0.01,0,0.02,0h0.6c0,0.33,0.01,0.67,0.01,1.01l1.01,0.01l15.42,0.06h1.01l1.01,0.01l16.48,0.06l1.01,0.01h1.01l17.03,0.07    c0-0.34-0.01-0.67-0.02-1.01C127.4,68.34,127.74,68.35,128.07,68.34z M128.07,68.34c-0.01-0.33-0.02-0.66-0.02-1h-1.01l-17-0.07    h-1.02l-1-0.01L91.5,67.2l-1.01-0.01h-1.01L74.1,67.13l-1.02-0.01h-0.99c0,0.33,0,0.66,0.01,1h0.14c0.01,0,0.01,0,0.02,0    s0.01,0,0.02,0c0.01,0,0.01,0,0.02,0h0.04c0,0,0,0,0.01,0c0,0,0,0,0.01,0c0.01,0.01,0.03,0.01,0.05,0h0.04c0.01,0,0.02,0,0.02,0    c0.01,0,0.01,0,0.02,0h0.6c0,0.33,0.01,0.67,0.01,1.01l1.01,0.01l15.42,0.06h1.01l1.01,0.01l16.48,0.06l1.01,0.01h1.01l17.03,0.07    c0-0.34-0.01-0.67-0.02-1.01C127.4,68.34,127.74,68.35,128.07,68.34z M128.07,68.34c-0.01-0.33-0.02-0.66-0.02-1h-1.01l-17-0.07    h-1.02l-1-0.01L91.5,67.2l-1.01-0.01h-1.01L74.1,67.13l-1.02-0.01h-0.99c0,0.33,0,0.66,0.01,1h0.14c0.01,0,0.01,0,0.02,0    s0.01,0,0.02,0c0.01,0,0.01,0,0.02,0h0.04c0,0,0,0,0.01,0c0,0,0,0,0.01,0c0.01,0.01,0.03,0.01,0.05,0h0.04c0.01,0,0.02,0,0.02,0    c0.01,0,0.01,0,0.02,0h0.6c0,0.33,0.01,0.67,0.01,1.01l1.01,0.01l15.42,0.06h1.01l1.01,0.01l16.48,0.06l1.01,0.01h1.01l17.03,0.07    c0-0.34-0.01-0.67-0.02-1.01C127.4,68.34,127.74,68.35,128.07,68.34z M128.07,68.34c-0.01-0.33-0.02-0.66-0.02-1h-1.01l-17-0.07    h-1.02l-1-0.01L91.5,67.2l-1.01-0.01h-1.01L74.1,67.13l-1.02-0.01h-0.99c0,0.33,0,0.66,0.01,1h0.14c0.01,0,0.01,0,0.02,0    s0.01,0,0.02,0c0.01,0,0.01,0,0.02,0h0.04c0,0,0,0,0.01,0c0,0,0,0,0.01,0c0.01,0.01,0.03,0.01,0.05,0h0.04c0.01,0,0.02,0,0.02,0    c0.01,0,0.01,0,0.02,0h0.6c0,0.33,0.01,0.67,0.01,1.01l1.01,0.01l15.42,0.06h1.01l1.01,0.01l16.48,0.06l1.01,0.01h1.01l17.03,0.07    c0-0.34-0.01-0.67-0.02-1.01C127.4,68.34,127.74,68.35,128.07,68.34z M128.07,68.34c-0.01-0.33-0.02-0.66-0.02-1h-1.01l-17-0.07    h-1.02l-1-0.01L91.5,67.2l-1.01-0.01h-1.01L74.1,67.13l-1.02-0.01c0.01,0.33,0.01,0.66,0.01,1c0,0.33,0.01,0.67,0.01,1.01    l1.01,0.01l15.42,0.06h1.01l1.01,0.01l16.48,0.06l1.01,0.01h1.01l17.03,0.07c0-0.34-0.01-0.67-0.02-1.01    C127.4,68.34,127.74,68.35,128.07,68.34z M173.15,59.08c-3.21-2.96-6.29-5.83-9.3-8.64C147.69,35.4,133.74,22.4,114.71,7.87    c-4.61-3.51-9.63-7.02-15.85-7.86C98.79,0,98.73,0,98.67,0C91.1,0.44,85.74,4.71,78.95,10.12C62.3,23.37,45.81,38.74,28.52,57.08    c-1.41,1.5-4.35,4.62-2.97,7.77c1.2,2.76,4.9,4.11,11.31,4.14l16.8,0.07h1.01l1.01,0.01l16.42,0.06h1l1.01,0.01l15.42,0.06h1.01    l1.01,0.01l16.48,0.06l1.01,0.01h1.01l17.03,0.07h1.02l1,0.01l16.42,0.06l1,0.01h1l12.06,0.05c2.2,0.01,4.75,0.02,7.19-0.44    c1.28-0.24,2.53-0.61,3.68-1.18c2.1-1.05,3.66-3,3.97-4.99C174.64,61.43,174.19,60.09,173.15,59.08z M159.59,67.47l-12.08-0.05h-1    l-1.01-0.01l-16.45-0.06l-1-0.01h-1.01l-17-0.07h-1.02l-1-0.01L91.5,67.2l-1.01-0.01h-1.01L74.1,67.13l-1.02-0.01h-0.99    l-16.45-0.07h-2.03l-16.75-0.07c-6.78-0.03-8.89-1.61-9.47-2.94c-0.74-1.69,0.81-3.68,2.6-5.58    c17.22-18.27,33.64-33.57,50.22-46.77c5.94-4.73,10.43-8.31,16.13-9.38c0.76-0.14,1.54-0.24,2.35-0.29    c5.69,0.8,10.43,4.12,14.8,7.45c18.95,14.47,32.87,27.43,48.99,42.45c3.01,2.8,6.1,5.68,9.29,8.63c0.56,0.54,0.78,1.22,0.66,2.02    c-0.21,1.33-1.36,2.73-2.87,3.48C166.65,67.5,162.73,67.48,159.59,67.47z M128.07,68.34c-0.01-0.33-0.02-0.66-0.02-1h-1.01    l-17-0.07h-1.02l-1-0.01L91.5,67.2l-1.01-0.01h-1.01L74.1,67.13l-1.02-0.01h-0.99c0,0.33,0,0.66,0.01,1h0.14c0.01,0,0.01,0,0.02,0    s0.01,0,0.02,0c0.01,0,0.01,0,0.02,0h0.04c0,0,0,0,0.01,0c0,0,0,0,0.01,0c0.01,0.01,0.03,0.01,0.05,0h0.04c0.01,0,0.02,0,0.02,0    c0.01,0,0.01,0,0.02,0h0.6c0,0.33,0.01,0.67,0.01,1.01l1.01,0.01l15.42,0.06h1.01l1.01,0.01l16.48,0.06l1.01,0.01h1.01l17.03,0.07    c0-0.34-0.01-0.67-0.02-1.01C127.4,68.34,127.74,68.35,128.07,68.34z M128.07,68.34c-0.01-0.33-0.02-0.66-0.02-1h-1.01l-17-0.07    h-1.02l-1-0.01L91.5,67.2l-1.01-0.01h-1.01L74.1,67.13l-1.02-0.01h-0.99c0,0.33,0,0.66,0.01,1h0.14c0.01,0,0.01,0,0.02,0    s0.01,0,0.02,0c0.01,0,0.01,0,0.02,0h0.04c0,0,0,0,0.01,0c0,0,0,0,0.01,0c0.01,0.01,0.03,0.01,0.05,0h0.04c0.01,0,0.02,0,0.02,0    c0.01,0,0.01,0,0.02,0h0.6c0,0.33,0.01,0.67,0.01,1.01l1.01,0.01l15.42,0.06h1.01l1.01,0.01l16.48,0.06l1.01,0.01h1.01l17.03,0.07    c0-0.34-0.01-0.67-0.02-1.01C127.4,68.34,127.74,68.35,128.07,68.34z M128.07,68.34c-0.01-0.33-0.02-0.66-0.02-1h-1.01l-17-0.07    h-1.02l-1-0.01L91.5,67.2l-1.01-0.01h-1.01L74.1,67.13l-1.02-0.01h-0.99c0,0.33,0,0.66,0.01,1h0.14c0.01,0,0.01,0,0.02,0    s0.01,0,0.02,0c0.01,0,0.01,0,0.02,0h0.04c0,0,0,0,0.01,0c0,0,0,0,0.01,0c0.01,0.01,0.03,0.01,0.05,0h0.04c0.01,0,0.02,0,0.02,0    c0.01,0,0.01,0,0.02,0h0.6c0,0.33,0.01,0.67,0.01,1.01l1.01,0.01l15.42,0.06h1.01l1.01,0.01l16.48,0.06l1.01,0.01h1.01l17.03,0.07    c0-0.34-0.01-0.67-0.02-1.01C127.4,68.34,127.74,68.35,128.07,68.34z M128.07,68.34c-0.01-0.33-0.02-0.66-0.02-1h-1.01l-17-0.07    h-1.02l-1-0.01L91.5,67.2l-1.01-0.01h-1.01L74.1,67.13l-1.02-0.01h-0.99c0,0.33,0,0.66,0.01,1h0.14c0.01,0,0.01,0,0.02,0    s0.01,0,0.02,0c0.01,0,0.01,0,0.02,0h0.04c0,0,0,0,0.01,0c0,0,0,0,0.01,0c0.01,0.01,0.03,0.01,0.05,0h0.04c0.01,0,0.02,0,0.02,0    c0.01,0,0.01,0,0.02,0h0.6c0,0.33,0.01,0.67,0.01,1.01l1.01,0.01l15.42,0.06h1.01l1.01,0.01l16.48,0.06l1.01,0.01h1.01l17.03,0.07    c0-0.34-0.01-0.67-0.02-1.01C127.4,68.34,127.74,68.35,128.07,68.34z M128.07,68.34c-0.01-0.33-0.02-0.66-0.02-1h-1.01l-17-0.07    h-1.02l-1-0.01L91.5,67.2l-1.01-0.01h-1.01L74.1,67.13l-1.02-0.01h-0.99c0,0.33,0,0.66,0.01,1h0.14c0.01,0,0.01,0,0.02,0    s0.01,0,0.02,0c0.01,0,0.01,0,0.02,0h0.04c0,0,0,0,0.01,0c0,0,0,0,0.01,0c0.01,0.01,0.03,0.01,0.05,0h0.04c0.01,0,0.02,0,0.02,0    c0.01,0,0.01,0,0.02,0h0.6c0,0.33,0.01,0.67,0.01,1.01l1.01,0.01l15.42,0.06h1.01l1.01,0.01l16.48,0.06l1.01,0.01h1.01l17.03,0.07    c0-0.34-0.01-0.67-0.02-1.01C127.4,68.34,127.74,68.35,128.07,68.34z M128.07,68.34c-0.01-0.33-0.02-0.66-0.02-1h-1.01l-17-0.07    h-1.02l-1-0.01L91.5,67.2l-1.01-0.01h-1.01L74.1,67.13l-1.02-0.01h-0.99c0,0.33,0,0.66,0.01,1h0.14c0.01,0,0.01,0,0.02,0    s0.01,0,0.02,0c0.01,0,0.01,0,0.02,0h0.04c0,0,0,0,0.01,0c0,0,0,0,0.01,0c0.01,0.01,0.03,0.01,0.05,0h0.04c0.01,0,0.02,0,0.02,0    c0.01,0,0.01,0,0.02,0h0.6c0,0.33,0.01,0.67,0.01,1.01l1.01,0.01l15.42,0.06h1.01l1.01,0.01l16.48,0.06l1.01,0.01h1.01l17.03,0.07    c0-0.34-0.01-0.67-0.02-1.01C127.4,68.34,127.74,68.35,128.07,68.34z M128.07,68.34c-0.01-0.33-0.02-0.66-0.02-1h-1.01l-17-0.07    h-1.02l-1-0.01L91.5,67.2l-1.01-0.01h-1.01L74.1,67.13l-1.02-0.01h-0.99c0,0.33,0,0.66,0.01,1h0.14c0.01,0,0.01,0,0.02,0    s0.01,0,0.02,0c0.01,0,0.01,0,0.02,0h0.04c0,0,0,0,0.01,0c0,0,0,0,0.01,0c0.01,0.01,0.03,0.01,0.05,0h0.04c0.01,0,0.02,0,0.02,0    c0.01,0,0.01,0,0.02,0h0.6c0,0.33,0.01,0.67,0.01,1.01l1.01,0.01l15.42,0.06h1.01l1.01,0.01l16.48,0.06l1.01,0.01h1.01l17.03,0.07    c0-0.34-0.01-0.67-0.02-1.01C127.4,68.34,127.74,68.35,128.07,68.34z M128.07,68.34c-0.01-0.33-0.02-0.66-0.02-1h-1.01l-17-0.07    h-1.02l-1-0.01L91.5,67.2l-1.01-0.01h-1.01L74.1,67.13l-1.02-0.01h-0.99c0,0.33,0,0.66,0.01,1h0.14c0.01,0,0.01,0,0.02,0    s0.01,0,0.02,0c0.01,0,0.01,0,0.02,0h0.04c0,0,0,0,0.01,0c0,0,0,0,0.01,0c0.01,0.01,0.03,0.01,0.05,0h0.04c0.01,0,0.02,0,0.02,0    c0.01,0,0.01,0,0.02,0h0.6c0,0.33,0.01,0.67,0.01,1.01l1.01,0.01l15.42,0.06h1.01l1.01,0.01l16.48,0.06l1.01,0.01h1.01l17.03,0.07    c0-0.34-0.01-0.67-0.02-1.01C127.4,68.34,127.74,68.35,128.07,68.34z"/>
        </g>
        <g>
            <path class="st1" d="M101.87,28.04c-6.31-1.1-13.03,3.33-14.25,9.4c-1.22,6.07,3.27,12.75,9.52,14.17    c6.25,1.42,13.2-2.67,14.74-8.67c0.42-1.64,0.48-3.37,0.17-5.05C111.12,32.81,106.49,28.85,101.87,28.04z"/>
            <path class="st0" d="M113.04,37.71c-0.47-2.57-1.89-5.01-3.86-6.91c-1.97-1.91-4.48-3.28-7.14-3.75    c-6.87-1.2-14.08,3.57-15.41,10.2s3.47,13.8,10.28,15.34c0.93,0.21,1.86,0.31,2.8,0.31c5.93,0,11.69-4.05,13.14-9.71    C113.31,41.42,113.37,39.53,113.04,37.71z M110.9,42.69c-1.4,5.45-7.85,9.23-13.54,7.94c-5.69-1.29-9.86-7.48-8.76-12.99    c1-4.94,6.13-8.76,11.33-8.76c0.59,0,1.18,0.05,1.76,0.15c4.54,0.8,8.57,4.68,9.37,9.05C111.34,39.6,111.29,41.2,110.9,42.69z"/>
        </g>
        <g>
            <path class="st0" d="M105.77,37.9c-0.43-1.13-1.17-2.15-2.05-2.91c-0.88-0.75-1.89-1.25-2.86-1.32c-2.14-0.16-4.24,0.65-5.65,2.17    c-1.44,1.55-2.05,3.84-1.55,5.84c0.52,2.06,2.23,3.78,4.24,4.27c0.46,0.11,0.95,0.16,1.45,0.16c0.69,0,1.41-0.1,2.17-0.3    c1.08-0.28,1.93-0.69,2.62-1.24C105.99,43.08,106.68,40.28,105.77,37.9z M103.72,44.04c-0.61,0.5-1.39,0.86-2.37,1.12    c-1.21,0.33-2.32,0.37-3.29,0.13c-1.78-0.43-3.29-1.95-3.75-3.78c-0.44-1.78,0.1-3.82,1.39-5.21c1.15-1.24,2.89-1.97,4.64-1.97    c0.15,0,0.31,0,0.47,0.01c1.7,0.13,3.56,1.76,4.34,3.8C105.95,40.25,105.35,42.73,103.72,44.04z"/>
        </g>
        <g>
            <path class="st0" d="M156.33,173.98c0,0.04-0.01,0.09-0.03,0.12c-0.04,0.13-0.16,0.22-0.3,0.22l-112.33,0.71    c-0.19,0-0.34-0.15-0.34-0.33c0-0.19,0.15-0.34,0.34-0.34l22.85-0.14h0.08l43.3-0.28l19.11-0.12l26.98-0.17H156    C156.18,173.65,156.33,173.8,156.33,173.98z"/>
        </g>
        <g>
            <path class="st0" d="M171.27,193.09c0,0.19-0.15,0.34-0.33,0.34c-36.11,0-72.7,0.13-108.75,0.39c-10.69,0.07-21.74,0.15-32.7,1.42    c-0.01,0.01-0.03,0.01-0.04,0.01c-0.17,0-0.31-0.13-0.33-0.3c-0.02-0.18,0.11-0.35,0.29-0.37c10.99-1.28,22.07-1.36,32.78-1.43    c28.39-0.2,57.11-0.33,85.66-0.37c1.15,0,2.29-0.01,3.42-0.01h4.15c0.01,0,0.03,0.01,0.04,0c5.17-0.01,10.33-0.01,15.48-0.01    c0.16,0,0.3,0.12,0.32,0.28C171.27,193.06,171.27,193.07,171.27,193.09z"/>
        </g>
        <g class="st2">
            <path class="st0" d="M156.3,174.1c-0.04,0.13-0.16,0.22-0.3,0.22l-112.33,0.71c-0.19,0-0.34-0.15-0.34-0.33    c0-0.19,0.15-0.34,0.34-0.34l22.85-0.14h0.08c4.84,0.26,9.68,0.42,14.52,0.43c7.51,0.03,15.02-0.32,22.53-0.37    c2.09-0.03,4.17-0.19,6.25-0.34l19.11-0.12c6.99,0.12,13.98,0.3,20.96,0.42C152.09,174.21,154.93,174.19,156.3,174.1z"/>
            <path class="st0" d="M160.86,177.53v0.01c-0.11,0.22-0.25,0.42-0.43,0.59c-0.17,0.2-0.39,0.36-0.63,0.49    c-0.15,0.08-0.31,0.14-0.49,0.19c-2.62,0.31-1.9-0.12-4.44-0.01c-12.63-0.12-25.26-0.61-37.89-0.62    c-4.1-0.07-8.18,0.42-12.28,0.52c-0.68,0-1.36,0.01-2.04,0.02h-0.08c-4.95,0.08-9.89,0.32-14.83,0.49    c-7.95,0.23-15.92,0.44-23.87,0.19c-6.87-0.64-13.79-0.39-20.68-0.56c-0.01,0.01-0.02,0-0.02,0c-0.03,0.01-0.05,0.01-0.07,0    c-0.01,0-0.02,0-0.02,0c-0.39-0.01-0.79-0.02-1.18-0.03c-0.3-0.01-0.57-0.06-0.81-0.13c-0.45-0.13-0.81-0.36-1.09-0.64    c-0.06-0.06-0.11-0.12-0.16-0.18c-0.73-0.89-0.76-2.2-0.18-3.17c0.22-0.37,0.53-0.69,0.93-0.9c0.12,1.4,0.25,2.75,0.4,4.06    c38.62-0.19,78.25-0.3,118.82,0.27c0.06-1.28,0.11-2.57,0.14-3.87c0.3,0.19,0.59,0.46,0.85,0.86c0.05,0.08,0.09,0.17,0.13,0.26    C161.26,176.07,161.2,176.87,160.86,177.53z"/>
        </g>
        <g class="st2">
            <path class="st0" d="M88.13,197.22c-2.77,0.09-5.54,0.33-8.32,0.41c-7.62-0.12-15.23,0.32-22.84,0.53    c-4.22-0.09-8.42,0.25-12.63,0.53c-0.14,0-0.29,0-0.43,0.01c-5.1,0.09-10.2,0.53-15.31,0.41c-0.3-0.02-0.58-0.07-0.83-0.14    c-0.55-0.15-0.99-0.41-1.33-0.74c-0.92-0.91-1.06-2.34-0.53-3.47c0.2-0.42,0.5-0.8,0.88-1.1c0.18,1.5,0.39,2.94,0.63,4.31    C46.88,197.61,67.05,197.36,88.13,197.22z"/>
            <path class="st0" d="M121.52,197.1c-9.69,0.15-19.39,0.33-29.08,0.16c-0.58-0.04-1.16-0.06-1.74-0.06    C100.76,197.14,111.02,197.11,121.52,197.1z"/>
            <path class="st0" d="M171.27,193.09c0,0.19-0.15,0.34-0.33,0.34c-36.11,0-72.7,0.13-108.75,0.39c-10.69,0.07-21.74,0.15-32.7,1.42    c-0.01,0.01-0.03,0.01-0.04,0.01c-0.17,0-0.31-0.13-0.33-0.3c-0.02-0.18,0.11-0.35,0.29-0.37c10.99-1.28,22.07-1.36,32.78-1.43    c28.39-0.2,57.11-0.33,85.66-0.37c1.15,0,2.29-0.01,3.42-0.01c0.96-0.01,1.92-0.02,2.87-0.03c0.43,0.01,0.85,0.02,1.28,0.03    c0.01,0,0.03,0.01,0.04,0c2.97,0.1,5.94,0.3,8.91,0.32c2.29-0.04,4.6,0.05,6.89-0.05C171.27,193.06,171.27,193.07,171.27,193.09z"/>
            <path class="st0" d="M174.95,196.22c-0.22,0.58-0.67,1.07-1.28,1.28c-0.41,0.21-0.89,0.24-1.35,0.18    c-1.09-0.09-2.19-0.12-3.28-0.29c-1.05-0.07-2.2-0.13-3.44-0.18c2.74,0.01,5.51,0.03,8.29,0.05c0.07-1.3,0.14-2.61,0.19-3.92    c0.45,0.28,0.8,0.71,0.96,1.26c0.01,0.02,0.01,0.05,0.02,0.07C175.2,195.18,175.15,195.73,174.95,196.22z"/>
        </g>
    </g>
    </svg>