<svg xmlns="http://www.w3.org/2000/svg" xmlns:xlink="http://www.w3.org/1999/xlink" version="1.1" id="Layer_1" x="0px" y="0px" viewBox="0 0 130 119" style="enable-background:new 0 0 130 119;" xml:space="preserve">
  <style type="text/css">
    .st0{fill:#FFFFFF;}
    .st1{fill:#ACD4F7;}
    .st2{opacity:0.1294;}
    .st3{fill:#ACD4F7;stroke:#000000;stroke-width:2;stroke-miterlimit:10;}
  </style>
  <g>
    <g>
      <g>
        <g>
          <path class="st1" d="M8.59,97.33V14.8c0-7.77,6.3-14.06,14.06-14.06h35.49c7.77,0,14.06,6.3,14.06,14.06v82.52      c0,7.77-6.3,14.06-14.06,14.06H22.66C14.89,111.39,8.59,105.09,8.59,97.33z"/>
          <path d="M60.12,112.13H20.68c-7.07,0-12.83-5.75-12.83-12.82V12.83C7.85,5.75,13.6,0,20.68,0h39.44      c7.07,0,12.82,5.75,12.82,12.83v86.48C72.94,106.38,67.19,112.13,60.12,112.13z M20.68,1.48c-6.26,0-11.34,5.09-11.34,11.34      v86.48c0,6.26,5.09,11.34,11.34,11.34h39.44c6.26,0,11.34-5.09,11.34-11.34V12.83c0-6.26-5.09-11.34-11.34-11.34H20.68z"/>
        </g>
        <g>
          <rect x="8.59" y="12.51" class="st0" width="63.61" height="83.44"/>
          <path d="M72.2,96.69H8.59c-0.41,0-0.74-0.33-0.74-0.74V12.51c0-0.41,0.33-0.74,0.74-0.74H72.2c0.41,0,0.74,0.33,0.74,0.74v83.44      C72.94,96.36,72.61,96.69,72.2,96.69z M9.33,95.21h62.13V13.25H9.33V95.21z"/>
        </g>
        <g>
          <path d="M46.77,102.69H35.32c-0.41,0-0.74-0.33-0.74-0.74s0.33-0.74,0.74-0.74h11.46c0.41,0,0.74,0.33,0.74,0.74      S47.18,102.69,46.77,102.69z"/>
        </g>
      </g>
      <g>
        <path d="M40.73,30.69H18.93c-0.41,0-0.74-0.33-0.74-0.74c0-0.41,0.33-0.74,0.74-0.74h21.79c0.41,0,0.74,0.33,0.74,0.74     C41.47,30.36,41.13,30.69,40.73,30.69z"/>
      </g>
      <g>
        <path d="M29.77,48H18.93c-0.41,0-0.74-0.33-0.74-0.74c0-0.41,0.33-0.74,0.74-0.74h10.84c0.41,0,0.74,0.33,0.74,0.74     C30.51,47.67,30.18,48,29.77,48z"/>
      </g>
      <g>
        <path d="M62.52,65.8H44.06c-0.41,0-0.74-0.33-0.74-0.74c0-0.41,0.33-0.74,0.74-0.74h18.46c0.41,0,0.74,0.33,0.74,0.74     C63.26,65.47,62.93,65.8,62.52,65.8z"/>
      </g>
      <g>
        <path d="M62.52,81.63H35.87c-0.41,0-0.74-0.33-0.74-0.74c0-0.41,0.33-0.74,0.74-0.74h26.65c0.41,0,0.74,0.33,0.74,0.74     C63.26,81.3,62.93,81.63,62.52,81.63z"/>
      </g>
      <g class="st2">
        <path d="M69.11,12.57c-0.65,0.14-2.38,0.06-5.21-0.06c-6.04-0.11-12.09-0.25-18.14-0.24c-5.91-0.18-11.81,0.32-17.72,0.19     c-3.7,0.01-7.41,0.15-11.11,0.16c-2.38,0.12-4.75,0.35-7.14,0.31c-2.09,0.04-2.13,3.15,0,3.21c2.4,0.09,4.8-0.1,7.2-0.16     c2.61,0.03,5.22,0.01,7.83-0.06c4.16-0.04,8.31,0.23,12.47,0.05c7.36-0.19,14.73-0.14,22.09-0.01c2.96,0.1,5.92,0.18,8.88,0.37     c0.01,0,0.02,0,0.04,0c0.06,0.01,0.14,0.02,0.23,0.03c0.31,0.08,0.63,0.07,0.95,0.03c0.89,0.08,1.79-0.51,2.01-1.39     C71.86,13.51,70.54,12.33,69.11,12.57z"/>
      </g>
      <g class="st2">
        <path d="M30.04,76.11c-0.48-0.42-1.29-0.35-1.73,0.1c-0.16,0.18-0.33,0.34-0.51,0.5c-0.11,0.07-0.29,0.19-0.41,0.26     c-0.15,0.11-0.49,0.27-0.65,0.35c-0.18,0.07-0.36,0.13-0.54,0.18c-0.17,0.06-0.49,0.13-0.66,0.16c-0.2,0.02-0.4,0.03-0.6,0.02     c-0.07,0-0.12-0.01-0.16-0.01c-0.41-0.09-1.11-0.33-1.39-0.43c-0.05-0.02-0.09-0.04-0.14-0.07c-0.05-0.03-0.09-0.06-0.12-0.08     c-0.05-0.05-0.11-0.1-0.16-0.15c-0.13-0.27-0.33-0.49-0.58-0.64c-1.08-0.68-2.53,0.44-2.16,1.66c0.35,1.07,1.37,1.76,2.33,2.25     c2.16,1.11,4.89,0.64,6.67-0.96C30.1,78.53,31.22,77.03,30.04,76.11z"/>
      </g>
    </g>
    <g>
      <g>
        <g>
          <g>
            <path d="M110.54,70.49c0.15,0,0.29-0.08,0.37-0.21l0.41-0.72c5.53-9.71,13.88-24.38,9.69-34.46       c-1.85-4.44-5.99-7.56-12.33-9.28c-0.23-0.06-0.46,0.07-0.52,0.3c-0.06,0.22,0.07,0.46,0.3,0.52       c6.07,1.65,10.03,4.6,11.77,8.79c4.04,9.7-4.2,24.16-9.64,33.72l-0.41,0.72c-0.12,0.2-0.04,0.46,0.16,0.57       C110.4,70.47,110.47,70.49,110.54,70.49z"/>
          </g>
        </g>
        <g>
          <path class="st0" d="M110.01,23.97c1.01,0.44,3.01,1.5,3.08,2.6c0.07,1.1-0.82,2.76-1.88,3.08c-1.49,0.44-5.72-1.3-6.32-3.37      c-0.31-1.07,0.54-2.42,1.57-2.87C107.28,23.06,108.85,23.47,110.01,23.97z"/>
          <path d="M107.11,29.06c-0.82-0.45-2.24-1.39-2.61-2.66c-0.38-1.31,0.64-2.86,1.8-3.37c1.19-0.52,3.27,0.29,3.88,0.55l0,0      c0.76,0.33,3.24,1.5,3.34,2.96c0.08,1.26-0.91,3.13-2.18,3.51c-0.2,0.06-0.43,0.09-0.68,0.09      C109.58,30.14,108.15,29.63,107.11,29.06z M109.85,24.36c-1.35-0.58-2.64-0.8-3.21-0.55c-0.81,0.36-1.58,1.49-1.33,2.36      c0.21,0.72,1.01,1.51,2.21,2.16c1.47,0.81,2.98,1.1,3.58,0.92c0.87-0.26,1.64-1.73,1.58-2.65      C112.63,25.87,111.18,24.93,109.85,24.36L109.85,24.36z"/>
        </g>
      </g>
      <g>
        <g>
          <g>
            <path d="M95.12,69.83c0.08,0,0.17-0.02,0.24-0.07c0.19-0.13,0.24-0.39,0.11-0.59c-6.69-9.73-15.18-23.78-11.7-33.4       c1.56-4.31,5.46-7.38,11.59-9.11c0.22-0.06,0.35-0.3,0.29-0.52c-0.06-0.22-0.3-0.35-0.52-0.29c-6.41,1.81-10.5,5.05-12.16,9.63       c-3.61,9.98,5,24.28,11.8,34.16C94.85,69.77,94.98,69.83,95.12,69.83z"/>
          </g>
        </g>
        <g>
          <path class="st0" d="M96.6,28.85c-0.97,0.52-3.05,1.41-3.96,0.78c-0.9-0.63-1.64-2.37-1.23-3.39C92,24.8,96,22.59,97.99,23.41      c1.03,0.43,1.55,1.93,1.26,3.01C99.02,27.29,97.72,28.25,96.6,28.85z"/>
          <path d="M92.4,29.97c-1.04-0.73-1.88-2.67-1.38-3.89c0.42-1.04,2.07-2.12,3.42-2.68c0.86-0.36,2.49-0.88,3.71-0.37      c1.26,0.52,1.83,2.29,1.5,3.51c-0.34,1.26-2.27,2.37-2.86,2.69c-0.55,0.29-2.08,1.04-3.32,1.04      C93.07,30.26,92.7,30.18,92.4,29.97z M94.76,24.18c-1.55,0.65-2.72,1.64-2.96,2.22c-0.34,0.84,0.33,2.36,1.08,2.89      c0.59,0.42,2.24-0.13,3.52-0.81c0,0,0,0,0,0c1.3-0.69,2.28-1.56,2.44-2.16c0.23-0.85-0.17-2.17-1.01-2.52      c-0.24-0.1-0.53-0.15-0.85-0.15C96.35,23.66,95.59,23.83,94.76,24.18z"/>
        </g>
      </g>
      <g>
        <g>
          <path class="st1" d="M49.18,58.75c0-1.42,4.79-0.52,4.88,0.9c1.03,14.81,2.29,35.11,9.39,45.49c5.7,8.33,11.2,7.96,17.46,7.96      c10.05,0,16.43-5.47,18.38-12.78c1.08-4.07,1.21-18.51,1.22-22.93c-1.86-0.35-3.59-1.17-4.95-2.47      c-3.42-3.28-6.95-10.61-7.09-11.54c1.47-0.63,3.64-1.8,4.61-1.8c0.15,1.05,3.14,6.84,6.04,9.62c1.81,1.73,5.52,1.61,7.63-0.26      c2.61-2.31,4.67-6.42,5.96-10.06c2.11,0.75,3.27,1.47,4.5,2.04c-1.71,5.38-3.83,9.04-7.04,11.88c-1.31,1.15-2.86,1.95-4.5,2.39      c0.01,4.96-0.17,19.82-1.4,24.46c-2.14,8.06-6.9,12.05-10.5,13.98c-3.38,1.81-7.82,2.95-12.79,2.95      c-8.35,0-14.22-0.85-20.55-8.39C53.62,102.07,49.18,85.27,49.18,58.75z"/>
          <path d="M60.11,110.46c-7.43-8.85-11.35-26.73-11.35-51.71c0-0.32,0.16-1.08,1.65-1.13c1.57-0.05,3.99,0.72,4.08,2l0.07,0.99      c1,14.44,2.37,34.23,9.25,44.28c5.34,7.8,10.44,7.79,16.34,7.78l0.77,0c9.18,0,15.89-4.66,17.97-12.47      c1.05-3.94,1.19-17.77,1.2-22.47c-1.87-0.41-3.53-1.28-4.82-2.51c-3.44-3.3-7.06-10.71-7.21-11.79      c-0.03-0.19,0.08-0.37,0.25-0.45c0.38-0.16,0.81-0.36,1.26-0.57c1.33-0.62,2.71-1.26,3.52-1.26c0.21,0,0.39,0.15,0.42,0.36      c0.12,0.85,3,6.59,5.91,9.38c1.66,1.6,5.09,1.46,7.06-0.27c2.17-1.91,4.29-5.52,5.84-9.88c0.08-0.22,0.32-0.33,0.54-0.26      c1.5,0.53,2.52,1.05,3.42,1.51c0.38,0.19,0.74,0.38,1.11,0.54c0.19,0.09,0.29,0.31,0.23,0.51c-1.75,5.52-3.96,9.24-7.17,12.07      c-1.23,1.08-2.73,1.91-4.35,2.39c0.01,6.71-0.27,19.97-1.41,24.24c-2.18,8.2-7.03,12.27-10.71,14.25c-3.62,1.94-8.23,3-12.99,3      C72.96,119,66.77,118.39,60.11,110.46z M115.9,62.74c-0.8-0.4-1.69-0.86-2.93-1.32c-0.99,2.71-2.97,7.22-5.93,9.83      c-2.26,2-6.25,2.12-8.2,0.25c-2.76-2.64-5.48-7.74-6.06-9.47c-0.71,0.15-1.88,0.69-2.86,1.14c-0.33,0.15-0.64,0.3-0.94,0.43      c0.57,1.61,3.76,8.01,6.88,11c1.25,1.2,2.88,2.01,4.74,2.36c0.2,0.04,0.34,0.21,0.34,0.42c-0.01,4.36-0.13,18.89-1.23,23.03      c-1.02,3.84-3.2,7.07-6.31,9.36c-3.31,2.44-7.63,3.73-12.48,3.73l-0.77,0c-5.89,0.01-11.45,0.03-17.04-8.14      c-7.01-10.25-8.39-30.16-9.4-44.7l-0.07-0.99c-0.04-0.52-1.76-1.27-3.21-1.22c-0.48,0.02-0.83,0.14-0.83,0.29      c0,24.78,3.86,42.47,11.15,51.16c6.42,7.65,12.43,8.24,20.22,8.24c4.62,0,9.09-1.03,12.59-2.9c3.53-1.89,8.19-5.81,10.3-13.72      c1.14-4.26,1.4-17.79,1.39-24.35c0-0.19,0.13-0.36,0.31-0.41c1.62-0.43,3.12-1.23,4.33-2.29c3.01-2.66,5.12-6.17,6.81-11.34      C116.44,63.01,116.17,62.88,115.9,62.74z"/>
        </g>
      </g>
      <g>
        <g>
          <path class="st0" d="M52.73,48.51c4.78,0.33,8.37,3.97,8.97,9.94c0.59,5.76-5.85,12.96-14.11,9.8c-4.26-1.63-6.95-6.59-6-11.05      C42.55,52.74,46.26,48.06,52.73,48.51z"/>
          <path d="M47.45,68.64c-4.44-1.7-7.25-6.88-6.26-11.53c1.03-4.82,5-9.48,11.57-9.02l0,0c5.16,0.36,8.75,4.32,9.36,10.32      c0.32,3.18-1.33,6.67-4.22,8.88c-1.88,1.44-4.02,2.16-6.28,2.16C50.26,69.45,48.86,69.18,47.45,68.64z M42.01,57.29      c-0.91,4.27,1.67,9.01,5.74,10.57c4.65,1.78,8.04-0.01,9.64-1.24c2.62-2,4.18-5.27,3.89-8.12c-0.57-5.57-3.86-9.23-8.58-9.57      c-0.28-0.02-0.55-0.03-0.82-0.03C46.31,48.9,42.92,53.02,42.01,57.29z M52.73,48.51L52.73,48.51L52.73,48.51z"/>
        </g>
        <g>
          <path d="M49.43,64.85c-2.01-0.8-3.49-2.79-3.86-5.18c-0.11-0.7-0.11-1.35-0.02-1.94c0.32-1.97,1.59-5.24,6.54-5.06      c2.06,0.08,4,1.34,4.94,3.22c1.15,2.3,0.9,5.13-0.62,7.03c-1.17,1.47-3.05,2.3-4.9,2.3C50.79,65.23,50.09,65.11,49.43,64.85z       M52.08,52.95c-4.74-0.17-5.95,2.95-6.25,4.82c-0.09,0.56-0.08,1.19,0.02,1.85c0.35,2.26,1.8,4.2,3.69,4.96      c2.24,0.9,5.1,0.11,6.65-1.83c1.45-1.82,1.69-4.53,0.59-6.73C55.88,54.23,54.04,53.02,52.08,52.95L52.08,52.95z M52.08,52.81      L52.08,52.81L52.08,52.81z"/>
        </g>
      </g>
    </g>
  </g>
  </svg>