<svg xmlns="http://www.w3.org/2000/svg" width="145" height="105" viewBox="0 0 146 105">
    <g id="Group_253" data-name="Group 253" transform="translate(2293.323 378.734)">
      <path id="Path_335" data-name="Path 335" d="M-2289.889-308.6c-.968-1.654-1.914-3.157-2.743-4.722a4.124,4.124,0,0,1-.33-3.913c1.009-2.067,3.244-2.425,4.7-.645,1.154,1.41,2.124,2.972,3.422,4.341-.233-.484-.445-.979-.7-1.45-1.471-2.715-2.956-5.422-4.429-8.137a12.475,12.475,0,0,1-.761-1.549c-.583-1.556-.24-2.984.892-3.637a2.509,2.509,0,0,1,3.458.9c1.36,1.784,2.514,3.724,3.752,5.6a3.808,3.808,0,0,0,1.286,1.38c-.283-.585-.577-1.165-.848-1.755a24.916,24.916,0,0,1-1.262-2.868,3.417,3.417,0,0,1,1.752-4.373c1.381-.566,2.723.116,3.8,1.941a10.676,10.676,0,0,0,1.83,2.495c0-.536.011-1.072,0-1.608q-.416-18.459-.828-36.918a34.57,34.57,0,0,1,.1-4.548c.6-5.427,3.275-8.09,8.765-8.366,5.332-.268,10.679-.277,16.021-.289,5.077-.011,10.17-.093,15.229.251,5.114.348,7.95,3.145,8.187,8.217.243,5.218-.05,10.464-.184,15.7-.231,9.058-.52,18.114-.783,27.171-.012.414,0,.829,0,1.405.84-.268,1.557-.507,2.281-.723,1.084-.324,1.369.174,1.094,1.136-.427,1.493-.891,2.974-1.375,4.579,3.955,1.105,5.857,4.088,7.6,7.258a36.175,36.175,0,0,0,2.751,4.557c1.558,2.047,3.619,2.456,6.031,1.494a11.419,11.419,0,0,0,5.176-4.648c1.188-1.786,2.171-3.722,3.472-5.415,1.232-1.6,2.795-2.948,4.14-4.47a3.343,3.343,0,0,0,.9-1.777c.265-3.9,2.5-6.15,6.386-6.264a6.92,6.92,0,0,1,6.842,6.123,7.359,7.359,0,0,1-3.8,7.359,7.308,7.308,0,0,1-8.2-1.111c-.2-.168-.387-.34-.863-.759-1.119,1.487-2.2,2.916-3.272,4.35a80.939,80.939,0,0,1-5.768,7.6,9.329,9.329,0,0,1-9.491,2.73,8.859,8.859,0,0,1-5.332-4.359c-1.174-1.916-2.135-3.961-3.264-5.907a6.209,6.209,0,0,0-4.156-3.438c-.5,3.751-1.245,7.357-1.411,10.99-.3,6.529-.25,13.074-.342,19.613a4.45,4.45,0,0,1,.012,1.091c-.083.293-.383.524-.587.782-.227-.234-.594-.437-.655-.709-.165-.745-.2-1.518-.325-2.612-2.66,3.274-6.08,3.525-9.605,3.458q-11-.209-22-.41c-.572-.011-1.145,0-2.184,0a12.762,12.762,0,0,0,1.338.739c4.858,1.793,9.731,3.546,14.573,5.38.852.322,2.527.276,2.025,1.743-.437,1.282-1.774.5-2.6.167q-11.492-4.645-22.932-9.422c-1.432-.6-2.879-1.269-3.547-2.9-.152-.372-.7-.6-1.093-.853a48.29,48.29,0,0,1-14.106-14.345,7.513,7.513,0,0,1-.673-1.238C-2293.477-306.528-2292.522-308.2-2289.889-308.6Zm39.057-12.317c0,4.088-.006,8.533.008,12.978a9.149,9.149,0,0,0,.177,1.56c.462,2.6,2.49,3.462,4.6,1.878a9.009,9.009,0,0,0,1.9-2.06c.928-1.329,1.734-2.742,2.6-4.112,1.58-2.491,3.3-4.886,5.867-6.445a2.77,2.77,0,0,0,1.42-2.66c.472-14.234,1.02-28.466,1.5-42.7a35.681,35.681,0,0,0-.24-6.408c-.382-2.569-2.012-3.774-4.6-3.81q-10.68-.147-21.361-.262c-.313,0-.626-.028-.939-.035a56.007,56.007,0,0,0-6.859-.1,7.385,7.385,0,0,0-7.1,6.621,39.1,39.1,0,0,0-.364,7.661q.951,27.316,2.033,54.628c.133,3.5.159,7.02.5,10.5.336,3.4,2.242,5.242,5.578,5.871a15.618,15.618,0,0,0,2.8.313c7.226.033,14.453.08,21.678.018,4.316-.037,6.24-1.908,6.435-6.221.28-6.224.441-12.452.644-18.679a10.226,10.226,0,0,0-.087-1.154l-.36-.172c-.951,1.142-1.98,2.23-2.835,3.441-1.085,1.538-1.916,3.261-3.063,4.745a16.87,16.87,0,0,1-3.765,3.918c-4.022,2.642-8.3.76-9.059-4a41.344,41.344,0,0,1-.176-7.195c.047-2.764.231-5.526.358-8.333-.781-.18-1.507-.29-2.2-.515-4.377-1.422-6.548-4.779-7.34-9.012-.765-4.088-1.169-8.246-1.646-12.384a6.5,6.5,0,0,1,1.689-5.049c1.4-1.687,3.408-1.675,5.192-2.294,1.13-.392,1.855.224,2.077,1.3a1.605,1.605,0,0,1-1.528,2.1c-.931.137-1.866.265-2.8.333-2.246.164-2.907.8-2.694,3.1.174,1.869.592,3.717.928,5.57.053.295.172.72.386.821,1.3.619,1.2,1.843,1.39,2.956.183,1.082.332,2.175.6,3.236,1.313,5.2,4.28,7,9.492,5.853a7.193,7.193,0,0,0,5.993-6.241c.227-1.281.208-2.6.363-3.9a6.994,6.994,0,0,1,.479-2.114,14.746,14.746,0,0,0,1.093-7.922c-.086-.862-.532-1.206-1.429-1.308-1.552-.177-3.084-.542-4.624-.831-1.064-.2-1.791-.726-1.511-1.924a1.722,1.722,0,0,1,2.406-1.335,28,28,0,0,1,4.293,1.481,4.634,4.634,0,0,1,1.8,1.765c1.245,2.051,1.005,4.318.717,6.572a36.791,36.791,0,0,0-.405,4.041c-.027,1.612.282,3.237.173,4.838-.233,3.425-1.413,6.523-4.374,8.483C-2246.587-322.468-2248.495-321.931-2250.833-320.913Zm-25.758,20.275.584-.177c0-2.75.007-5.5-.012-8.251a1.458,1.458,0,0,0-.278-.7c-3-4.707-5.993-9.419-9.029-14.1a17.638,17.638,0,0,0-2.309-2.934,1.748,1.748,0,0,0-1.651-.271c-.389.243-.512,1.045-.578,1.623a2.223,2.223,0,0,0,.361,1.181Q-2283.059-312.448-2276.591-300.638ZM-2233-318.723l.668.058c.078-.894.192-1.787.227-2.683q.627-16.086,1.228-32.173c.16-4.394.382-8.792.341-13.186-.048-5.164-2.188-7.474-7.31-7.636-10.045-.318-20.1-.41-30.148-.592a6.855,6.855,0,0,0-.94.059c-4.712.569-7.4,4.665-6.044,9.551.1-.615.146-1,.218-1.378.826-4.382,3.425-6.816,7.855-7.244a48.536,48.536,0,0,1,5.014-.2c7.322.053,14.644.184,21.966.214,6.318.026,8.484,2.2,8.338,8.534,0,.157-.011.314-.016.471q-.7,22.291-1.394,44.582C-2233.018-319.8-2233-319.262-2233-318.723Zm-43.336,23.922c.868-1.964-.233-2.938-1.11-4.222-3.233-4.736-6.232-9.63-9.345-14.447a21.511,21.511,0,0,0-2.326-3.143,2.171,2.171,0,0,0-1.836-.651,2.1,2.1,0,0,0-.886,1.756,8.382,8.382,0,0,0,1,2.919,58.742,58.742,0,0,0,9.273,12.574C-2279.913-298.244-2278.136-296.584-2276.339-294.8Zm.405,5.437.444-.242c-.278-.912-.3-2.047-.875-2.7-3.93-4.47-7.97-8.843-11.992-13.232a6.406,6.406,0,0,0-1.537-1.313c-1.1-.612-2.04.006-1.9,1.261a4.451,4.451,0,0,0,.683,1.882,48.751,48.751,0,0,0,3.023,4.192A42.829,42.829,0,0,0-2275.934-289.364Zm9.406,3.026.016-.274c-.385-.134-.77-.273-1.157-.4a7.378,7.378,0,0,1-5.24-6.255,23.537,23.537,0,0,1-.3-3.122c-.317-11.669-.6-23.339-.919-35.008-.233-8.585-.5-17.169-.752-25.754a9.778,9.778,0,0,0-.224,2.667q.675,29.515,1.374,59.029a32.018,32.018,0,0,0,.5,4.831,4.666,4.666,0,0,0,4.222,4.03C-2268.192-286.468-2267.356-286.422-2266.527-286.338Zm-9.933-27.2.44-.1c0-2.43,0-4.859-.006-7.289a1.522,1.522,0,0,0-.151-.753c-1.083-1.781-2.124-3.594-3.333-5.287a2.067,2.067,0,0,0-1.774-.767c-.473.192-.748,1.111-.9,1.762a2.274,2.274,0,0,0,.313,1.346C-2280.087-320.923-2278.27-317.234-2276.461-313.54Zm30.775,27.3-.007.252c1.1,0,2.2-.01,3.3,0,1.151.013,2.3.11,3.451.062,3.728-.155,5.461-1.794,5.638-5.529.355-7.474.622-14.953.914-22.43a7.5,7.5,0,0,0-.12-1.116l-.432-.041a13.668,13.668,0,0,0-.31,1.824c-.245,6.589-.419,13.181-.707,19.768-.207,4.749-2.559,7.008-7.329,7.2C-2242.755-286.192-2244.221-286.241-2245.686-286.241Zm49.156-36.323c1.883-2.629,3.706-3.5,5.9-2.96a4.715,4.715,0,0,1,3.408,4.245c.171,3.3-1.84,4.757-4.865,5.273,3.329.266,5.73-1.779,5.946-4.873a5.885,5.885,0,0,0-5.44-6.122A4.786,4.786,0,0,0-2196.53-322.564Zm4.637,4.206a2.539,2.539,0,0,0,3.1-1.865,3.36,3.36,0,0,0-1.972-3.707,3.186,3.186,0,0,0-3.968,1.435c1.033.417,2.348.608,3.06,1.365C-2191.252-320.682-2191.785-319.337-2191.893-318.358Zm-35.627-4.849a2.588,2.588,0,0,0-2.157,3.189c.037.319.369.6.565.9.243-.219.62-.4.7-.665C-2228.085-320.816-2227.853-321.884-2227.52-323.207Z" transform="translate(0)"/>
      <path id="Path_336" data-name="Path 336" d="M-1902.068-284.6c-.772-.4-1.609-.794-2.4-1.26-5.8-3.411-8.066-11-4.969-16.642a10.744,10.744,0,0,1,4.993-4.617c6.164-2.879,12.133-2.068,17.522,1.727,6.349,4.471,5.829,14.028-.842,18.77a45.024,45.024,0,0,1-5.037,2.7c2.178.107,4.252.2,6.325.312,4.746.264,6.634,2.2,6.861,6.972.207,4.34.461,8.677.659,13.017.051,1.119.3,2.739-1.209,2.771-1.453.03-1.551-1.6-1.61-2.792-.22-4.443-.336-8.892-.6-13.332-.18-2.97-.994-3.71-4-3.883-7.421-.427-14.842-.846-22.267-1.2-3.5-.168-3.823.2-4.238,3.812-.507,4.419-1.051,8.833-1.531,13.255-.127,1.165-.516,1.959-1.825,1.78s-1.458-1.114-1.307-2.229c.625-4.614,1.219-9.233,1.842-13.848.341-2.524,1.144-4.778,4.034-5.3a19.414,19.414,0,0,1,3.427-.015Q-1905.16-284.6-1902.068-284.6Zm.752-21.877-.032-.426c-4.394,1.616-7.478,6.782-6.71,11.239,1.442,8.364,11.8,12.073,18.566,6.647a8.858,8.858,0,0,0,3.527-9c-.682-3.617-3.2-5.7-6.6-6.619-2-.539-4.123-.609-6.174-.985A18.625,18.625,0,0,1-1901.316-306.479Z" transform="translate(-291.179 -52.608)"/>
      <path id="Path_337" data-name="Path 337" d="M-1720.1-323.22c2.71-2.825,5.485-5.591,8.1-8.5,1.5-1.662,2.751-3.545,4.094-5.344.85-1.138,1.141-1.121,1.787.186.162.327.3.665.45,1,.718,1.62-.865,3.607-3.065,3.427a17.147,17.147,0,0,1,1.566-1.6c.773-.6.777-1.128.046-1.752-2.011,2.308-3.887,4.684-6,6.824s-4.455,4.035-6.7,6.038Z" transform="translate(-444.239 -30.106)"/>
      <path id="Path_338" data-name="Path 338" d="M-1702.637-244.231l11.462-7.388c.181,1.694.391,3.15.444,4.612.01.271-.567.66-.947.834-2.181,1-4.375,1.969-6.589,2.889a2.041,2.041,0,0,1-1.282-.025.879.879,0,0,1-.239-.8,2.326,2.326,0,0,1,1.036-.771c1.58-.532,3.207-.931,4.774-1.5,2.481-.9,2.467-.938,1.851-3.877l-10.19,6.559Z" transform="translate(-457.772 -96.962)"/>
      <path id="Path_339" data-name="Path 339" d="M-1687.391-181.519c-2.428.762-4.636.412-7.14.335C-1693.17-182.344-1688.753-182.54-1687.391-181.519Z" transform="translate(-464.054 -150.775)"/>
      <path id="Path_340" data-name="Path 340" d="M-2185.182-308.689c2.338-1.018,4.245-1.554,5.818-2.6,2.96-1.961,4.14-5.059,4.374-8.483.109-1.6-.2-3.226-.173-4.838a36.793,36.793,0,0,1,.405-4.041c.289-2.254.529-4.521-.717-6.572a4.631,4.631,0,0,0-1.8-1.765,28,28,0,0,0-4.293-1.481,1.722,1.722,0,0,0-2.406,1.335c-.28,1.2.446,1.724,1.51,1.924,1.54.289,3.071.654,4.624.831.9.1,1.343.446,1.43,1.308a14.747,14.747,0,0,1-1.094,7.922,7,7,0,0,0-.479,2.114c-.155,1.3-.136,2.62-.363,3.9a7.193,7.193,0,0,1-5.993,6.241c-5.213,1.144-8.18-.651-9.492-5.853-.268-1.062-.416-2.155-.6-3.236-.189-1.114-.091-2.338-1.39-2.957-.214-.1-.332-.526-.386-.821-.336-1.853-.754-3.7-.927-5.57-.213-2.3.448-2.937,2.694-3.1.938-.069,1.873-.2,2.8-.333a1.605,1.605,0,0,0,1.528-2.1c-.222-1.074-.947-1.69-2.077-1.3-1.783.619-3.8.607-5.192,2.294a6.5,6.5,0,0,0-1.689,5.049c.478,4.137.881,8.3,1.646,12.384.792,4.233,2.963,7.59,7.34,9.012.689.224,1.415.335,2.2.515-.127,2.808-.311,5.569-.358,8.333a41.3,41.3,0,0,0,.176,7.195c.763,4.756,5.037,6.638,9.059,4a16.862,16.862,0,0,0,3.764-3.918c1.147-1.484,1.979-3.208,3.063-4.745.854-1.211,1.883-2.3,2.835-3.441l.36.172a10.4,10.4,0,0,1,.087,1.154c-.2,6.227-.364,12.456-.645,18.679-.194,4.312-2.118,6.183-6.435,6.221-7.226.063-14.452.015-21.678-.018a15.616,15.616,0,0,1-2.8-.313c-3.336-.629-5.242-2.469-5.578-5.871-.344-3.484-.37-7-.5-10.5q-1.039-27.313-2.033-54.628a39.1,39.1,0,0,1,.364-7.661,7.384,7.384,0,0,1,7.1-6.621,56.015,56.015,0,0,1,6.859.1c.313.007.626.032.939.035q10.681.13,21.361.262c2.586.036,4.216,1.241,4.6,3.81a35.681,35.681,0,0,1,.24,6.408c-.476,14.234-1.025,28.466-1.5,42.7a2.77,2.77,0,0,1-1.42,2.66c-2.563,1.559-4.287,3.954-5.867,6.445-.869,1.37-1.676,2.783-2.6,4.112a9.02,9.02,0,0,1-1.9,2.06c-2.113,1.584-4.14.727-4.6-1.878a9.2,9.2,0,0,1-.177-1.56C-2185.188-300.156-2185.182-304.6-2185.182-308.689Zm-12.153-44.482-.277-.409a1.311,1.311,0,0,1,.437-.126c1.105.092,2.117-.077,2.088-1.447-.029-1.345-.983-1.518-2.129-1.389-.271.031-.61-.374-.889-.612-.4-.341-.73-.9-1.172-1-.249-.055-.655.639-1,.982a11.811,11.811,0,0,1-.914.841c-.522.418-1.066.808-1.6,1.211.571.419,1.135.849,1.718,1.251a2.452,2.452,0,0,0,.6.206c.268,1.081-.332,2.857,1.54,2.645C-2198.33-351.087-2197.865-352.418-2197.335-353.171Zm20.951,70.51q.017-.374.033-.748l-20.193-.789q-.012.277-.024.555Zm-15.752-70.839,18.341.58q.01-.29.019-.58Zm10.587,6.957v-.169h-18.916l-.007.169Zm-4.156,66.334-.016-.369h-4.079l.005.369Z" transform="translate(-65.651 -12.225)" fill="#e3f3ff"/>
      <path id="Path_341" data-name="Path 341" d="M-2264.695-129.98q-6.46-11.814-12.911-23.632a2.217,2.217,0,0,1-.362-1.181c.065-.577.189-1.379.578-1.623a1.749,1.749,0,0,1,1.652.271,17.677,17.677,0,0,1,2.309,2.934c3.036,4.684,6.028,9.4,9.029,14.1a1.463,1.463,0,0,1,.278.7c.019,2.75.012,5.5.012,8.251Z" transform="translate(-11.896 -170.659)" fill="#e3f3ff"/>
      <path id="Path_342" data-name="Path 342" d="M-2171.048-312.529c0-.539-.014-1.079,0-1.618q.694-22.291,1.394-44.582c0-.157.012-.314.016-.471.146-6.338-2.021-8.508-8.338-8.534-7.322-.03-14.644-.161-21.966-.214a48.542,48.542,0,0,0-5.014.2c-4.43.428-7.029,2.862-7.855,7.244-.072.379-.121.763-.218,1.378-1.359-4.886,1.333-8.982,6.044-9.551a6.858,6.858,0,0,1,.94-.059c10.05.181,20.1.274,30.148.592,5.122.162,7.262,2.472,7.31,7.636.041,4.394-.181,8.792-.341,13.186q-.586,16.088-1.227,32.173c-.035.9-.15,1.789-.227,2.683Z" transform="translate(-61.956 -6.194)" fill="#70b5e9"/>
      <path id="Path_343" data-name="Path 343" d="M-2271.259-90.155c-1.8-1.783-3.574-3.443-5.232-5.214a58.749,58.749,0,0,1-9.273-12.574,8.377,8.377,0,0,1-1-2.919,2.1,2.1,0,0,1,.886-1.756,2.171,2.171,0,0,1,1.836.651,21.513,21.513,0,0,1,2.326,3.143c3.114,4.817,6.113,9.712,9.345,14.447C-2271.492-93.092-2270.391-92.119-2271.259-90.155Z" transform="translate(-5.08 -204.646)" fill="#e3f3ff"/>
      <path id="Path_344" data-name="Path 344" d="M-2270.708-49.494a42.836,42.836,0,0,1-12.152-10.15,48.641,48.641,0,0,1-3.023-4.192,4.448,4.448,0,0,1-.683-1.882c-.142-1.255.794-1.873,1.9-1.261a6.416,6.416,0,0,1,1.537,1.313c4.021,4.389,8.061,8.762,11.992,13.232.573.652.6,1.787.875,2.7Z" transform="translate(-5.226 -239.871)" fill="#e3f3ff"/>
      <path id="Path_345" data-name="Path 345" d="M-2203.807-218.9c-.829-.084-1.665-.13-2.487-.259a4.666,4.666,0,0,1-4.222-4.03,32.05,32.05,0,0,1-.5-4.831q-.718-29.514-1.375-59.029a9.788,9.788,0,0,1,.224-2.667c.252,8.584.518,17.169.751,25.754.316,11.669.6,23.339.919,35.008a23.536,23.536,0,0,0,.3,3.122,7.378,7.378,0,0,0,5.24,6.255c.387.13.771.268,1.157.4Z" transform="translate(-62.72 -67.437)" fill="#e3f3ff"/>
      <path id="Path_346" data-name="Path 346" d="M-2238.2-144.911c-1.809-3.693-3.626-7.383-5.416-11.085a2.275,2.275,0,0,1-.313-1.346c.156-.651.431-1.57.9-1.762a2.067,2.067,0,0,1,1.774.767c1.209,1.692,2.251,3.506,3.333,5.287a1.528,1.528,0,0,1,.151.753c.011,2.43.006,4.859.006,7.289Z" transform="translate(-38.262 -168.63)" fill="#e3f3ff"/>
      <path id="Path_347" data-name="Path 347" d="M-2081.644-73.759c1.465,0,2.931.049,4.394-.009,4.77-.189,7.122-2.448,7.329-7.2.287-6.587.462-13.179.707-19.768a13.668,13.668,0,0,1,.31-1.824l.432.041a7.5,7.5,0,0,1,.12,1.116c-.292,7.477-.558,14.956-.914,22.43-.177,3.734-1.91,5.374-5.638,5.529-1.147.048-2.3-.049-3.451-.062-1.1-.013-2.2,0-3.3,0Z" transform="translate(-164.043 -212.482)" fill="#e3f3ff"/>
      <path id="Path_348" data-name="Path 348" d="M-1863.163-151.345a4.787,4.787,0,0,1,4.95-4.437,5.885,5.885,0,0,1,5.44,6.122c-.216,3.095-2.617,5.139-5.946,4.873,3.025-.516,5.036-1.975,4.865-5.273a4.715,4.715,0,0,0-3.408-4.245C-1859.457-154.849-1861.28-153.973-1863.163-151.345Z" transform="translate(-333.367 -171.22)" fill="#e3f3ff"/>
      <path id="Path_349" data-name="Path 349" d="M-1852.339-137.259c.108-.979.641-2.324.22-2.772-.712-.758-2.027-.948-3.06-1.365a3.186,3.186,0,0,1,3.968-1.435,3.36,3.36,0,0,1,1.973,3.707A2.539,2.539,0,0,1-1852.339-137.259Z" transform="translate(-339.554 -181.099)" fill="#e3f3ff"/>
      <path id="Path_350" data-name="Path 350" d="M-2008.442-138.854c-.333,1.323-.564,2.39-.889,3.428-.084.269-.461.446-.7.665-.2-.3-.528-.586-.565-.9A2.587,2.587,0,0,1-2008.442-138.854Z" transform="translate(-219.078 -184.353)" fill="#e3f3ff"/>
      <path id="Path_351" data-name="Path 351" d="M-1868.857-299.779a18.615,18.615,0,0,0,2.572.853c2.051.375,4.173.445,6.174.985,3.4.917,5.923,3,6.6,6.619a8.858,8.858,0,0,1-3.527,9c-6.766,5.425-17.123,1.716-18.566-6.647-.768-4.456,2.316-9.622,6.71-11.238Z" transform="translate(-323.638 -59.309)" fill="#70b5e9"/>
      <path id="Path_352" data-name="Path 352" d="M-2177.305-343.521c-.53.753-.994,2.084-1.6,2.152-1.872.212-1.272-1.564-1.54-2.645a2.462,2.462,0,0,1-.6-.206c-.583-.4-1.147-.831-1.718-1.251.535-.4,1.079-.793,1.6-1.211a11.81,11.81,0,0,0,.914-.841c.348-.344.754-1.037,1-.982.442.1.772.658,1.172,1,.279.238.618.643.889.613,1.146-.129,2.1.044,2.129,1.389.029,1.37-.983,1.539-2.088,1.447a1.312,1.312,0,0,0-.436.126Z" transform="translate(-85.681 -21.875)" fill="#70b5e9"/>
      <path id="Path_353" data-name="Path 353" d="M-2134.906-18.287l-20.184-.982.024-.555,20.193.789Q-2134.889-18.661-2134.906-18.287Z" transform="translate(-107.128 -276.599)"/>
      <path id="Path_354" data-name="Path 354" d="M-2135.4-327.811h18.36l-.019.58Z" transform="translate(-122.39 -37.915)"/>
      <path id="Path_355" data-name="Path 355" d="M-2153.517-297.472h-18.923l.007-.169h18.916Z" transform="translate(-93.683 -61.296)"/>
      <path id="Path_356" data-name="Path 356" d="M-2120.922-3.367h-4.09l-.005-.369h4.079Z" transform="translate(-130.434 -289.067)"/>
    </g>
    <g id="Rectangle_197" data-name="Rectangle 197" transform="translate(1)" fill="none" stroke="#fff" stroke-width="1">
      <rect width="145" height="105" stroke="none"/>
      <rect x="0.5" y="0.5" width="144" height="104" fill="none"/>
    </g>
  </svg>
  