<?xml version="1.0" encoding="utf-8"?>
<!-- Generator: Adobe Illustrator 23.0.6, SVG Export Plug-In . SVG Version: 6.00 Build 0)  -->
<svg version="1.1" id="Layer_1" xmlns="http://www.w3.org/2000/svg" xmlns:xlink="http://www.w3.org/1999/xlink" x="0px" y="0px"
	 viewBox="0 0 184 166" style="enable-background:new 0 0 184 166;" xml:space="preserve">
<style type="text/css">
	.st0{fill:none;stroke:#000000;stroke-linecap:round;}
	.st1{fill:#BEE8FF;}
	.st2{fill:#FFFFFF;}
	.st3{fill:none;stroke:#FFFFFF;stroke-linecap:round;}
</style>
<g>
	<path class="st0" d="M179.3,59.5h-12.2c-0.6,0-1,0.4-1,1v4.5c0,0.5,0.4,1,1,1c8,0.3,14.3,2.9,12.7,10.5c-1,4.8-14.8,2.4-14.8,2.4"
		/>
	<path class="st1" d="M4.8,48c-3.2-13.5,4.7-27.2,18-31.1l0.7-0.2c11.2-3.3,22.8-5.3,34.5-5.8l0.9,0c13.5-0.6,27.1,0.9,40.2,4.3l0,0
		c6.3,1.6,12.5,3.7,18.5,6.3l1.8,0.7c7.9,3.3,15.6,7.3,22.9,11.9l6.3,3.9L164.8,51l-34.1-14.3L119,32.5l-11.2-3.7l-4.9-1.5
		c-16-4.8-32.8-6.3-49.4-4.4l-1.1,0.1c-6.8,0.8-13.4,2.2-19.9,4.2l-19.8,6.1C5.2,35.6,1.7,44.2,5.5,51l0,0L4.8,48z"/>
	<path class="st0" d="M165.5,51.6C112.8,1.9,60,1.5,8,33.9"/>
	<path class="st0" d="M164.5,51.4C106.5,8,54,13.4,6,51.4"/>
	<g>
		<g>
			<path d="M99,66.1c-0.8,0.6-0.8,1.2-0.5,2.1c1,2.8,1.3,5.7,1,8.7c-0.2,1.9,0.1,2.7,1.9,3.5c1.4,0.7,3,1.2,4.4,1.8
				c0.2,0.1,0.6-0.1,0.9-0.1c3.2-0.6,6.3-1.4,9.5-1.9c1.8-0.3,2,0,2.7,1.6c0.3,0.8,0.7,1,1.5,1.1c3.1,0.5,4.8,4.6,2.9,7.2
				c-0.6,0.8-1.3,0.9-2.1,0.3c-0.3-0.3-0.7-0.6-0.8-0.9c-0.5-1.6-1.7-2.2-3.5-2.4c-0.2,1-0.6,2-0.7,3.1c-0.1,3.9-0.1,7.8-0.1,11.7
				c0,12.8,0,25.7,0,38.5c0,4.4-0.1,8.9-0.2,13.3c0,1-1.3,1.7-2.6,1.6c-1.1-0.1-1.3-0.8-1.3-1.7c0.1-8.2,0.2-16.4,0.3-24.6
				c0.1-11.2,0.3-22.3,0.5-33.5c0-2.3,0.1-4.6,0.1-6.9c0-0.9-0.2-1.7-0.3-2.8c-4.1,1.3-8,2.5-11.9,3.8c-1.2,0.4-2.3,0.4-3.3-0.4
				c-1.5-1.2-2.8-2.6-4.3-4c-2,0.4-4.3,0.9-6.7,1.4c1.2,1.8,2.4,3.5,3.5,5.3c1.2,1.9,2.2,3.8,3.3,5.7c0.5,1,0.7,2,0.3,3.1
				c-0.5,1.3-0.7,2.7-1.4,4c-1.1,2-3.5,2.4-5.2,0.8c-0.4-0.4-0.4-1.4-0.2-2c0.5-1.1,1.3-2.1,1.9-3.2c-1.9-2.1-3.8-4.2-5.9-6.5
				c0.3,16,0.6,31.7,0.9,47.7c-3.8,0.8-7.6,1.6-11.6,2.5c0,1.1,0,2.3,0,3.5c0,0.3,0.4,0.8,0.7,1c1.6,1.2,3.3,2,5.4,1.8
				c1-0.1,1.9,0,2.4,1.1c0.3,0.8-0.1,2.7-0.8,3.2c-0.1,0.1-0.3,0.1-0.5,0.1c-4.1,0.1-8.2,0.3-12.2,0.4c-1.7,0-3.5-0.2-5.2-0.4
				c-0.3,0-0.7-0.5-0.7-0.7c0-1.2,0-2.5,0.1-3.7c0.1-2.1,0.3-4.2,0.4-6.1c-2.4-0.9-4.6-1.7-6.6-2.5c-0.4-0.2-0.7-0.8-0.7-1.2
				c-0.2-7.9-0.4-15.9-0.3-23.8c0-8.5,0.2-17,2-25.4c0.6-2.7,1.5-5.3,2.5-7.9c0.6-1.6,1.9-2.9,3.7-3.4c0.3-0.1,0.5-0.5,0.7-0.9
				c1.2-2.9,2.1-5.8,3.4-8.6c1.8-3.7,5-5.9,8.7-7.4c3.6-1.5,7.4-2.4,11.4-2.4c0.9,0,1.7-0.8,2.6-1.4c-2.3,0.5-3.4-0.8-4.4-2.4
				c-1.2-2.1-1.6-4.3-0.5-6.6c0.9-1.9,2.6-2.8,4.7-2.5c0.4,0.1,0.7,0.1,1.1,0.2c4.3-6.8,12.5-9.2,19.7-5.7c0.9,0.4,1.7,1,2.4,1.7
				c2.5,2.4,2.3,6-0.3,8.2c-0.3,0.3-0.5,0.7-0.6,1.2c-0.1,0.5-0.2,1.1-0.2,1.6c-0.1,1.8-0.1,3.5,0.6,5.3c0.8,2.2,0.4,3-1.7,4.1
				c-0.5,0.2-0.8,0.6-1.2,1c-0.7,0.7-1.3,1.5-2.1,2.1c-1.4,1.3-2.8,1.4-4.4,0.5C100.9,67.4,100,66.8,99,66.1z M60,82.9
				c-0.1,0-1.3,2.7-1.4,2.7c-0.4,1.3-0.8,2.7-1.1,4c-1.8,8.1-2.1,16.3-2.2,24.5c-0.1,8.3,0.2,16.7,0.2,25c0,1.1,0.4,1.8,1.5,2.1
				c0.4,0.1,0.8,0.3,1.3,0.5c-0.1-1.2-0.3-2.2-0.3-3.2c-0.2-5.3-0.3-10.5-0.5-15.8c-0.1-2.5,0-5,0-7.5c0-0.3,0.4-0.5,0.6-0.8
				c0.2,0.2,0.5,0.5,0.6,0.7c0.1,0.3,0,0.6,0,0.9c0.2,8.6,0.3,17.2,0.5,25.8c0.5,0.1,0.8,0.2,1,0.2c0-4.1,0-8.1,0-12.2
				c0-1,0.4-1.1,1.2-0.8c0,4.4,0,8.8,0,13.3c0.3,0,0.8,0.1,1,0.1c0-2.1,0-4.1,0-6.1c1.2-0.1,1.3,0,1.3,0.9c0,1.7,0,3.5,0,5.3
				c6.4,0.4,12.6-0.5,18.7-2.3c-0.3-13.8-0.5-27.4-0.8-41.1c-0.1,0-0.2,0-0.3,0c0,2.3,0,4.5,0,6.8c-0.1,0-0.3,0.1-0.4,0.1
				c-0.2-0.5-0.5-0.9-0.6-1.4c-0.1-1.6-0.2-3.1-0.2-4.7c0-0.7,1-1.3,0.2-1.5c-0.2,0-0.4-0.4-0.3-0.6c0.3-2.5-0.5-4.7-1.4-6.9
				c-0.3-0.8-1.6-1.1-2.5-0.9c-4,0.6-7.7-0.2-11-2.6c-1.5-1.1-2.8-2.4-4.4-3.7L60,82.9z M77.6,84.8c-0.3,0.3-0.4,0.5-0.7,0.7
				c0.6,0.1,1.1,0.1,1.7,0.2c0,0.5,0,0.8,0,1.2c0.6,0.3,1.2,0.6,1.9,0.9c0,0.1,0,0.2,0,0.3c-0.6,0.1-1.2,0.3-1.8,0.4
				c0.4,0.9,0.9,0.8,1.4,0.2c1.1-1.2,2.1-2.5,3.1-3.8c0-0.2-0.4-0.8-0.9-1.4c-1-1.4-1.1-2.8,0-4.2c0.9-1.3,1.7-2.6,2.4-4
				c0.6-1,0.7-2.2-0.1-3.2c0.3-0.3,0.5-0.6,1-1.1c0.3,1,0.8,1.7,0.8,2.4c0,0.9-0.2,1.9-0.7,2.7c-0.8,1.5-1.7,3-2.7,4.4
				c-0.5,0.7-0.4,1.3,0,1.9c0.3,0.5,0.4,1.2,1.4,1.1c0.7-0.1,1.5,0.8,2.3,0.1c0,0,0.3,0.1,0.4,0.2c0.8,1.3,2,0.7,3.1,0.6
				c2.8-0.4,4-1.3,4.5-4.1c0.5-2.8,0.6-5.7,1-8.8c-0.6,0.1-1,0.1-1.4,0.3c-2.7,1.1-4.1,0.5-5.4-1.4c-1.7-2.6-3.1-5.3-2.9-8.6
				c-0.6,0-1,0-1.5,0c-4.5,0.4-8.7,1.7-12.6,4c-1.9,1.2-3.4,2.8-4.5,4.8c0.2,0.2,0.6,0.4,0.6,0.5c-0.3,0.9-0.5,1.9-0.9,2.8
				c-0.5,0.9-1.4,1.5-1.4,2.6c0,0.1-0.1,0.2-0.2,0.3c-0.3-0.1-0.5-0.2-0.8-0.4c-1.4,3.7-1.2,4.3,1.9,6.6c1.8,1.3,3.8,2.3,6.3,2.8
				 M95.2,57.8c-1.1,0.5-3.1,1.7-4.7,2.8c0.5,2.3,1.2,4.3,2.4,6.1c1.1,1.6,2.1,1.7,3.5,0.3c-0.4-0.7-0.7-1.5-1.2-2.3
				c0.5-0.2,0.8-0.3,1.1-0.4c0.4,0.6,0.7,1.1,1,1.6c0.7-0.6,0.7-1,0.1-1.5c-0.6-0.5-1.1-1.2-1.6-1.8c0.4-0.3,0.7-0.5,0.8-0.6
				c1.8,1.6,3.5,3.2,5.3,4.5c1.8,1.3,3.1,0.9,4.3-1c-0.6-0.7-1.2-1.3-1.9-2c0.5-0.3,0.8-0.4,1.2-0.6c0.2,0.2,0.3,0.4,0.4,0.5
				c1,1.1,1.2,1.1,2.4,0.2c0.3-0.2,0.6-0.5,1-0.6c1.2-0.3,1.2-1.1,1-2.1c-0.4-1.5-0.7-3-1.1-4.4c0,0,0,0.2-0.1,0.3
				c-0.2,1-1.2,1.7-2,1.4c-1-0.4-0.9-1.3-0.6-2c0.2-0.4,0.6-0.8,1-0.9c0.6-0.1,1.2,0,1.9,0c0-0.5,0.1-1,0.2-1.5
				c-1.3,0.3-2.6,0.6-4,1c-0.1-0.4-0.2-0.8-0.4-1.4c-0.8-0.1-1.8-0.2-2.7-0.5c-1.5-0.6-2.8-0.4-3.8,0.9c0,0-0.1,0-0.3,0
				c-0.2-0.2-0.4-0.5-0.7-0.9c1.9-1.6,3.6-3.2,6.2-3.4c0.6,1.8-1.2,1.1-1.7,1.9c2.7,0.6,5.2,1.1,7.8-0.1c2.6-1.2,3.2-4.6,1.1-6.6
				c-0.7-0.7-1.5-1.2-2.3-1.6c-5.4-2.7-10.5-1.4-15.1,1.7c-3.5,2.4-4.4,8.2-2.2,11.4c0.4,0,0.9-0.2,1.2,0c0.8,0.6,1.2-0.2,1.7-0.5
				c0.2-0.1,0.3-0.5,0.4-0.5c1.1,0.3,1.4-0.7,2-1.1c0.4-0.2,0.8-0.3,1.2-0.5c0.2,0.9-0.7,1.7-0.5,2.6 M81.9,88.8
				c0.6,1.5,2.5,2.3,2.2,4.2c0,0.1,0.2,0.2,0.3,0.4c1.5,1.7,3,3.4,4.5,5.1c0.5,0.5,1.1,1,1.3,1.7c0.1,0.6-0.3,1.3-0.5,1.9
				c0.4,0,0.9,0,1.2,0c0.2,0.6,0.3,1,0.4,1.4c0.1,0,0.2,0,0.4-0.1c0.2-0.7,0.4-1.4,0.6-2.1c0.6-1.5,0.3-2.9-0.6-4.3
				c-1.8-2.7-3.5-5.4-5.1-8.1C84.4,85.4,83.6,86.7,81.9,88.8z M103.7,82.7c-1-0.4-2-0.8-3-1.2c-1.4-0.7-2.5-1.7-2.5-3.4
				c0-0.6,0.1-1.3,0.2-1.9c0.1-0.6,1.1-1.1,0.3-1.3c-0.2,0-0.4-0.4-0.4-0.7c-0.1-0.4-1-0.9-1-1.3c0,0-0.1-2-0.1-2
				c-0.5,3.8-0.9,9.7-1.4,13.5c0.3,0,0.7,0.1,1.1,0.1c0.5,0.9,0.2,1.5-1,1.8c0.4,0.3,0.7,0.5,0.9,0.7c2.5,2.3,4.1,2,5.5-1.1
				C102.8,85,103.2,83.9,103.7,82.7z M114.9,134.7c0-15.2,0-30.2,0-45.3c-0.1,0-0.2-0.1-0.3-0.1c-0.1,0.4-0.4,0.8-0.4,1.2
				c-0.1,5.7-0.2,11.3-0.2,17c-0.1,7.5-0.2,15-0.3,22.6c0,1.6,0,3.2,0,4.8C114.1,134.8,114.4,134.8,114.9,134.7z M118.2,83.7
				c-0.5-2.4-0.7-2.6-3.1-2.1c-3.1,0.6-6.2,1.4-9.3,2.1c-1.3,0.3-1.8,0.9-1.9,2.1c0.9,0.3,2.1-1.2,2.7,0.6c2.4-0.9,4.9-1.1,7.1-2.5
				c0.2,0.1,0.5,0.3,0.7,0.5c-0.2,0.7-0.4,1.3-0.6,1.9c0.1,0,0.2,0.1,0.3,0.1c0.3-0.6,0.6-1.2,0.9-1.8c0.2-0.2,0.5-0.5,0.8-0.5
				c0.2,0,0.4,0.4,0.6,0.6c0.2,0.3,0.4,0.6,0.6,0.9c0.1,0,0.1-0.1,0.2-0.1c-0.2-0.5-0.4-1-0.6-1.8C117.3,83.7,117.7,83.7,118.2,83.7
				z M89,60.8c-0.3,0.7-0.6,1-0.7,1.4c-0.3,0.6-0.8,1.3-0.7,1.8c0.4,2.4,1.5,4.5,2.9,6.4c0.7,0.9,1.7,0.8,2.6,0.6
				c0.9-0.2,1.3-0.8,1.5-1.6C90.6,67.9,90.5,63.9,89,60.8z M89.1,54.2c0-1.5,0-2.9,0-4.5c-1.1,0.5-1.9,1-3,1.5
				c-0.2-0.3-0.4-0.6-0.7-1c-1.2,1.8-1.1,3.8,0.2,5.9c0.5,0.8,0.8,1.7,2.1,1.7c-0.2-0.5-0.4-0.9-0.5-1.3c0.9-0.3,1.6-0.7,1-1.8
				C88.5,54.6,88.8,54.4,89.1,54.2z M113.5,153.9c1.1,0.1,1.3-0.5,1.3-1.5c0-4.6,0-9.3,0.1-13.9c0-0.8,0-1.6,0-2.5
				c-0.5,0-0.8,0-1.4,0C113.5,142,113.5,148,113.5,153.9z M62.6,81.2c0.5,1.3,1.1,2.7,1.6,4c0.1,0.2,0.3,0.3,0.4,0.4
				c2.7,2.1,5.7,3.4,9.3,3.3c0.1-0.3,0.1-0.6,0.2-1c0.6-0.1,1.1-0.2,1.6-0.3C70.4,87.4,66.1,85.1,62.6,81.2z M74,152.3
				c-0.4-1.9-4.8-3.6-7.4-3.3c-0.2,0.9-0.4,1.7-0.5,2.4c-0.6-0.2-1.3-0.4-1.9-0.6c0-0.1,0-0.2,0-0.3c-0.5,0.2-1.1,0.5-1.6,0.7
				c0,0.1,0.1,0.3,0.1,0.4C66.5,151.9,70.2,152.1,74,152.3z M64.5,145.8c-0.2,0.1-0.4,0.1-0.6,0.2c-0.4,0.2-1,0.4-1,0.7
				c0,0.5,0.1,1.2,0.4,1.6c0.3,0.3,1,0.2,1.5,0.1c0.7-0.2,1.3-0.5,2.1-0.8c-0.1-1.1-0.2-2.1-0.3-3.3c-0.8,0-1.6,0-2.5,0
				C64.2,144.7,64.3,145.2,64.5,145.8z M68.4,144.1c-0.1,1.4-0.2,2.6-0.3,4.1c0.9-0.2,1.4-0.3,1.9-0.5c0.3-0.1,0.8-0.4,0.8-0.6
				c0.1-1,0-2.1,0-3.2C69.9,144,69.2,144.1,68.4,144.1z M118.8,84.8c0.6,1.2,2.6,3.6,3.1,4.8c0.2,0,0.4-0.1,0.6-0.1
				c0.1-1.1-0.7-3.5-0.6-4.5C120.9,84.9,119.7,84.9,118.8,84.8z M62.4,153c0,0.2,0,0.4,0,0.6c3.3,0,6.7,0,10,0c0,0,0,0,0-0.1
				C69,153.3,65.7,153.2,62.4,153z M81.5,91.8c-0.1,0-0.2,0-0.3,0c0.1,2.1,0.2,4.2,0.3,6.3c0,0,0,0,0,0C81.5,96.1,81.5,94,81.5,91.8
				z M76.7,151.7c0.4,0.6,1.5,0.7,2.8,0C78.6,151.7,77.6,151.7,76.7,151.7z"/>
			<path class="st2" d="M113.5,155.5c-0.1,0-0.1,0-0.2,0c-1.3-0.1-1.5-1-1.5-1.9c0.1-4.4,0.1-8.8,0.2-13.3c0-3.8,0.1-7.6,0.1-11.4
				c0.1-11.2,0.3-22.3,0.5-33.5c0-0.9,0-1.9,0.1-2.8c0-1.3,0.1-2.7,0.1-4.1c0-0.6-0.1-1.1-0.2-1.8c0-0.2-0.1-0.5-0.1-0.8
				c-1.1,0.3-2.1,0.7-3.2,1c-2.9,0.9-5.7,1.8-8.5,2.7c-1.4,0.5-2.5,0.3-3.5-0.4c-1-0.9-2-1.8-3-2.8c-0.4-0.4-0.8-0.8-1.2-1.2
				l-6.3,1.3c0.3,0.5,0.6,1,0.9,1.4c0.8,1.2,1.6,2.4,2.3,3.6c1.1,1.8,2.2,3.7,3.2,5.6l0.1,0.2c0.6,1.1,0.7,2.2,0.3,3.2
				c-0.2,0.4-0.3,0.9-0.4,1.4c-0.3,0.9-0.5,1.8-1,2.6c-0.5,1-1.4,1.7-2.5,1.8c-1.1,0.2-2.1-0.2-3-1c-0.4-0.4-0.5-1.6-0.2-2.2
				c0.4-0.8,0.9-1.6,1.4-2.3c0.2-0.3,0.3-0.5,0.5-0.8l-5.4-6l0.9,47.3l-11.6,2.5c0,0.2,0,0.5,0,0.7c0,0.8,0,1.7,0,2.6
				c0,0.3,0.3,0.6,0.6,0.8c1.8,1.4,3.4,1.9,5.2,1.7c0.9-0.1,2.1-0.1,2.6,1.2c0.4,0.8-0.1,2.9-0.8,3.4c-0.2,0.1-0.4,0.2-0.6,0.2
				c-1.1,0-2.1,0.1-3.2,0.1c-3,0.1-6,0.2-9.1,0.3c-1.5,0-3-0.2-4.5-0.3l-0.8-0.1c-0.4,0-0.9-0.5-0.9-0.9c0-1.3,0-2.6,0.1-3.8
				c0.1-1.5,0.2-3,0.3-4.4l0.1-1.5c-0.6-0.2-1.1-0.4-1.7-0.6c-1.7-0.6-3.3-1.2-4.9-1.9c-0.5-0.2-0.9-0.9-0.9-1.4
				c0-1.5-0.1-3-0.1-4.5c-0.1-6.3-0.3-12.9-0.3-19.3c0-8.2,0.2-16.8,2-25.5c0.6-2.8,1.6-5.4,2.5-8c0.7-1.8,2-3,3.8-3.5
				c0.2,0,0.4-0.4,0.6-0.8c0.4-1,0.8-2,1.2-3c0.7-1.9,1.4-3.8,2.3-5.6c1.6-3.3,4.3-5.7,8.8-7.5c3.9-1.6,7.6-2.4,11.3-2.4
				c0.1,0,0.1,0,0.2,0c0.6,0,1.2-0.4,1.8-0.8c-1.9,0.1-2.9-1.2-3.8-2.6c-1.4-2.4-1.5-4.6-0.5-6.8c0.9-2,2.7-3,4.9-2.6
				c0.3,0,0.5,0.1,0.8,0.1l0.2,0c4.3-6.8,12.7-9.2,19.9-5.7c0.9,0.4,1.7,1,2.5,1.7c1.2,1.2,1.9,2.7,1.9,4.3c0,1.6-0.8,3.1-2.2,4.3
				c-0.3,0.2-0.4,0.7-0.5,1.1c-0.1,0.5-0.2,1-0.2,1.5c-0.1,1.4-0.2,3.3,0.5,5.2c0.8,2.2,0.4,3.2-1.8,4.4c-0.4,0.2-0.7,0.6-1.1,0.9
				l-0.1,0.1c-0.3,0.3-0.6,0.6-0.8,0.9c-0.4,0.4-0.8,0.9-1.2,1.3c-1.5,1.3-2.9,1.5-4.6,0.6c-0.7-0.4-1.4-0.8-2-1.3
				c-0.3-0.2-0.5-0.3-0.8-0.5c-0.5,0.5-0.6,0.9-0.3,1.8c1,2.8,1.3,5.8,1,8.8c-0.2,1.8,0,2.5,1.7,3.3c1.4,0.6,2.8,1.2,4.2,1.7
				l0.2,0.1c0.1,0,0.3,0,0.5-0.1c0.1,0,0.2,0,0.3-0.1c1-0.2,1.9-0.4,2.9-0.6c2.2-0.5,4.4-0.9,6.7-1.3c1.9-0.3,2.2,0,2.9,1.8
				c0.3,0.6,0.6,0.9,1.3,1c1.5,0.2,2.8,1.3,3.5,2.9c0.7,1.6,0.5,3.4-0.5,4.6c-0.3,0.4-0.7,0.7-1.1,0.7c-0.4,0-0.8-0.1-1.2-0.4
				c-0.4-0.3-0.7-0.6-0.9-1c-0.4-1.3-1.4-2-3.2-2.2c-0.1,0.2-0.1,0.5-0.2,0.7c-0.2,0.7-0.4,1.4-0.4,2.1c-0.1,3.1-0.1,6.3-0.1,9.3
				l0,2.4c0,4.4,0,8.8,0,13.2c0,8.4,0,16.9,0,25.3c0,3.7-0.1,7.4-0.1,11l0,2.3c0,0.4-0.2,0.8-0.5,1.1
				C115.2,155.2,114.4,155.5,113.5,155.5z M112.8,85.5l0,0.2c0,0.4,0.1,0.7,0.1,1c0.1,0.7,0.2,1.2,0.2,1.8c0,1.4,0,2.7-0.1,4.1
				c0,0.9,0,1.9-0.1,2.8c-0.2,11.2-0.3,22.3-0.5,33.5c0,3.8-0.1,7.6-0.1,11.4c0,4.4-0.1,8.8-0.2,13.3c0,1,0.2,1.5,1.1,1.5
				c0.8,0,1.6-0.2,2-0.6c0.3-0.2,0.4-0.5,0.4-0.8l0-2.3c0.1-3.6,0.1-7.4,0.1-11c0-8.4,0-16.9,0-25.3c0-4.4,0-8.8,0-13.2l0-2.4
				c0-3.1,0-6.2,0.1-9.3c0-0.8,0.2-1.5,0.4-2.2c0.1-0.3,0.2-0.6,0.2-0.9l0-0.2l0.2,0c2.1,0.2,3.2,1,3.7,2.5c0.1,0.3,0.5,0.7,0.7,0.8
				c0.3,0.2,0.6,0.4,0.9,0.3c0.3,0,0.6-0.2,0.9-0.6c0.9-1.2,1-2.8,0.4-4.2c-0.6-1.4-1.8-2.4-3.1-2.6c-0.8-0.1-1.3-0.4-1.6-1.2
				c-0.6-1.6-0.8-1.8-2.4-1.5c-2.2,0.3-4.5,0.8-6.7,1.3c-1,0.2-1.9,0.4-2.9,0.6c-0.1,0-0.2,0-0.2,0.1c-0.3,0.1-0.5,0.1-0.8,0.1
				l-0.2-0.1c-1.4-0.5-2.9-1.1-4.2-1.7c-1.7-0.8-2.2-1.6-2-3.7c0.3-3,0-5.8-1-8.6C98,67.4,98,66.7,98.9,66l0.1-0.1l0.1,0.1
				c0.3,0.2,0.6,0.4,0.9,0.6c0.6,0.4,1.3,0.9,2,1.2c1.6,0.8,2.9,0.7,4.2-0.5c0.4-0.4,0.8-0.8,1.2-1.2c0.3-0.3,0.6-0.6,0.8-0.9
				l0.1-0.1c0.4-0.4,0.7-0.7,1.2-1c2.1-1.1,2.4-1.8,1.6-3.9c-0.7-2-0.7-3.9-0.6-5.4c0-0.5,0.1-1.1,0.2-1.6c0.1-0.5,0.3-1,0.6-1.3
				c1.3-1.1,2-2.5,2-4c0-1.5-0.6-2.9-1.7-4c-0.7-0.7-1.6-1.3-2.4-1.7c-7.1-3.4-15.3-1-19.5,5.7l-0.1,0.1l-0.5-0.1
				c-0.3,0-0.5-0.1-0.8-0.1c-2-0.3-3.6,0.6-4.5,2.4c-0.9,2.1-0.8,4.1,0.5,6.4c1,1.8,2.1,2.8,4.2,2.3l1.1-0.3l-0.9,0.6
				c-0.2,0.1-0.4,0.2-0.5,0.4c-0.7,0.5-1.4,1-2.2,1c-0.1,0-0.1,0-0.2,0c-3.6,0-7.3,0.8-11.1,2.4c-4.3,1.8-7,4.1-8.6,7.3
				c-0.9,1.8-1.6,3.7-2.3,5.6c-0.4,1-0.8,2-1.2,3c-0.1,0.3-0.4,0.9-0.8,1c-1.7,0.5-2.9,1.6-3.5,3.3c-1,2.5-2,5.2-2.5,7.9
				c-1.8,8.6-1.9,17.2-1.9,25.4c0,6.4,0.1,13,0.3,19.3c0,1.5,0.1,3,0.1,4.5c0,0.3,0.3,0.9,0.6,1c1.6,0.7,3.1,1.2,4.8,1.9
				c0.6,0.2,1.2,0.4,1.8,0.7l0.1,0.1l-0.1,1.8c-0.1,1.4-0.2,2.9-0.3,4.4c-0.1,1.1-0.1,2.4-0.1,3.7c0,0.1,0.4,0.5,0.6,0.5l0.8,0.1
				c1.5,0.2,3,0.3,4.5,0.3c3,0,6.1-0.2,9-0.3c1.1,0,2.1-0.1,3.2-0.1c0.2,0,0.3,0,0.4-0.1c0.6-0.4,1-2.3,0.7-3c-0.4-0.8-1-1.1-2.2-1
				c-1.9,0.2-3.7-0.4-5.5-1.8c-0.3-0.3-0.7-0.7-0.7-1.1c-0.1-0.9,0-1.8,0-2.6c0-0.3,0-0.6,0-0.9v-0.2l0.2,0l11.4-2.4l-0.9-48.1
				l6.3,7l-0.1,0.1c-0.2,0.3-0.4,0.6-0.6,0.9c-0.5,0.7-1,1.5-1.3,2.3c-0.2,0.5-0.2,1.5,0.1,1.7c0.7,0.7,1.7,1,2.6,0.9
				c0.9-0.1,1.7-0.7,2.2-1.6c0.4-0.8,0.7-1.7,0.9-2.5c0.1-0.5,0.3-0.9,0.4-1.4c0.3-1,0.2-1.9-0.3-2.9l-0.1-0.2
				c-1-1.8-2.1-3.7-3.2-5.6c-0.7-1.2-1.5-2.4-2.3-3.6c-0.4-0.5-0.7-1.1-1.1-1.7l-0.2-0.2l7.1-1.5l0.1,0.1c0.5,0.4,0.9,0.8,1.3,1.3
				c1,1,2,1.9,3,2.7c0.8,0.6,1.8,0.8,3.1,0.3c2.8-0.9,5.6-1.8,8.5-2.7c1.1-0.4,2.3-0.7,3.4-1.1L112.8,85.5z M113.7,154.2
				c-0.1,0-0.1,0-0.2,0l-0.2,0l0-18.3h1.8l0,1.1c0,0.6,0,1.1,0,1.7c0,1.3,0,2.5,0,3.8c0,3.3,0,6.8,0,10.1c0,0.5,0,1-0.4,1.4
				C114.4,154.1,114.1,154.2,113.7,154.2z M113.7,136.2l0,17.5c0.3,0,0.5-0.1,0.6-0.2c0.2-0.2,0.3-0.5,0.3-1.1c0-3.4,0-6.8,0-10.1
				c0-1.3,0-2.5,0-3.8c0-0.5,0-1.1,0-1.6l0-0.7H113.7z M72.4,153.8H62.1l0-1l10.4,0.6l-0.1,0.4L72.4,153.8z M62.6,153.4h3.6
				l-3.6-0.2L62.6,153.4z M74.2,152.5l-11.7-0.6l-0.2-0.7l2.1-1l-0.1,0.5l1.5,0.5l0.5-2.4l0.1,0c2.7-0.4,7.2,1.4,7.6,3.4L74.2,152.5
				z M66.3,151.7l7.5,0.4c-0.7-1.7-4.6-3.1-6.9-2.9L66.3,151.7z M62.9,151.5l3.3,0.2L64,151l0-0.1L62.9,151.5L62.9,151.5z
				 M77.8,152.4c-0.6,0-1.1-0.2-1.3-0.6l-0.2-0.3h3.9l-0.7,0.4C78.9,152.3,78.3,152.4,77.8,152.4z M77.2,151.9
				c0.3,0.1,0.8,0.2,1.3,0H77.2z M64.1,148.6c-0.3,0-0.6-0.1-0.8-0.2c-0.4-0.4-0.5-1.1-0.5-1.7c0-0.3,0.4-0.5,0.8-0.7
				c0.1-0.1,0.2-0.1,0.3-0.2c0.1-0.1,0.3-0.1,0.4-0.1l-0.4-1.6h3l0.3,3.6l-0.1,0.1c-0.2,0.1-0.4,0.2-0.7,0.3
				c-0.5,0.2-0.9,0.4-1.4,0.5C64.8,148.5,64.4,148.6,64.1,148.6z M64.3,144.4l0.4,1.5l-0.2,0.1c-0.1,0-0.1,0-0.2,0
				c-0.1,0-0.2,0-0.3,0.1c-0.1,0.1-0.2,0.1-0.3,0.2c-0.2,0.1-0.5,0.3-0.6,0.4c0,0.5,0.1,1.1,0.4,1.4c0.2,0.2,0.7,0.2,1.3,0
				c0.5-0.1,0.9-0.3,1.4-0.5c0.2-0.1,0.3-0.2,0.5-0.2l-0.3-3H64.3z M67.9,148.5l0.3-4.5l2.9-0.2v0.2c0,0.3,0,0.6,0,0.9
				c0,0.8,0,1.6,0,2.3c0,0.5-0.9,0.8-0.9,0.8c-0.4,0.1-0.7,0.2-1.2,0.3c-0.2,0-0.5,0.1-0.8,0.2L67.9,148.5z M68.6,144.3l-0.3,3.7
				c0.2,0,0.3-0.1,0.5-0.1c0.5-0.1,0.8-0.2,1.2-0.3c0.3-0.1,0.6-0.4,0.6-0.4c0.1-0.8,0.1-1.5,0-2.3c0-0.2,0-0.4,0-0.7L68.6,144.3z
				 M66.7,143c-1,0-2,0-3-0.1l-0.2,0l0-1.8c0-1.3,0-2.5,0-3.7c0-0.4,0-0.6-0.1-0.7c-0.1-0.1-0.4-0.1-0.8,0v6.1l-1.4-0.1v-13.3
				c-0.4-0.1-0.6-0.1-0.7,0c-0.1,0.1-0.2,0.3-0.2,0.7c0,3,0,6,0,8.9l0,3.5l-1.4-0.3l-0.5-26c0-0.1,0-0.2,0-0.3c0-0.2,0-0.4,0-0.5
				c-0.1-0.2-0.2-0.3-0.4-0.5c0,0,0,0-0.1-0.1c0,0-0.1,0.1-0.1,0.1c-0.1,0.1-0.3,0.3-0.3,0.4c0,2.8-0.1,5.1,0,7.4
				c0.1,5.7,0.3,11.5,0.5,15.8c0,0.7,0.1,1.4,0.2,2.1c0,0.4,0.1,0.7,0.1,1.1l0,0.3l-0.3-0.1c-0.2-0.1-0.3-0.1-0.5-0.2
				c-0.3-0.1-0.5-0.2-0.8-0.3c-1.1-0.3-1.6-1-1.6-2.3c0-3.1-0.1-6.3-0.1-9.4c-0.1-5.1-0.2-10.4-0.1-15.6c0.1-7.9,0.4-16.3,2.2-24.5
				c0.2-0.9,0.5-1.9,0.8-2.8c0.1-0.4,0.3-0.8,0.4-1.3l0.1-0.2l0,0c0.1-0.2,0.4-0.8,0.6-1.2c0.7-1.5,0.7-1.5,0.9-1.5l0.1,0l0.8,1
				c0.5,0.4,0.9,0.8,1.4,1.2c1,0.9,1.9,1.7,2.9,2.4c3.2,2.3,6.9,3.1,10.8,2.5c0.9-0.1,2.4,0.1,2.8,1.1c1,2.4,1.7,4.5,1.4,7
				c0,0.1,0.1,0.4,0.2,0.4c0.2,0.1,0.4,0.2,0.4,0.3c0.1,0.2,0,0.5-0.2,0.7c-0.1,0.2-0.3,0.4-0.3,0.6c0,1.5,0.1,3.1,0.2,4.7
				c0,0.3,0.2,0.6,0.3,0.9c0.1,0.1,0.1,0.2,0.2,0.3l0.1,0v-6.8l0.7,0l0,0.2l0.8,41.2l-0.1,0C77,142.2,71.8,143,66.7,143z M113.4,135
				v-0.2c0-0.5,0-1,0-1.5c0-1.1,0-2.2,0-3.3c0.1-5.8,0.2-11.6,0.2-17.4l0.1-8.4c0.1-4.6,0.1-9.2,0.2-13.7c0-0.3,0.1-0.6,0.3-0.9
				c0.1-0.1,0.1-0.2,0.1-0.4l0.1-0.2l0.6,0.2v45.6L113.4,135z M114.7,89.7c0,0,0,0.1-0.1,0.1c-0.1,0.3-0.2,0.5-0.2,0.7
				c-0.1,4.6-0.1,9.2-0.2,13.7l-0.1,8.4c-0.1,5.8-0.2,11.6-0.2,17.4c0,1.1,0,2.2,0,3.3c0,0.4,0,0.9,0,1.3l0.8-0.1V89.7z M91,103.6
				l-0.4-1.5h-1.3l0.1-0.3c0.1-0.2,0.1-0.4,0.2-0.6c0.2-0.4,0.4-0.9,0.3-1.2c-0.1-0.4-0.5-0.8-0.8-1.1c-0.1-0.1-0.3-0.3-0.4-0.4
				c-1.1-1.2-2.1-2.4-3.2-3.6l-1.3-1.5c0,0-0.1-0.1-0.1-0.1c-0.1-0.1-0.3-0.3-0.2-0.4c0.2-1.1-0.4-1.8-1.1-2.5
				c-0.4-0.5-0.8-1-1.1-1.6l0-0.1l0.3-0.4c0.9-1.1,1.6-1.9,2.4-1.8c0.7,0.1,1.4,0.7,2.2,2.2c1.7,2.8,3.4,5.6,5.1,8.1
				c1,1.5,1.2,2.9,0.6,4.5c-0.2,0.5-0.3,0.9-0.4,1.4c-0.1,0.2-0.1,0.4-0.2,0.7l0,0.1L91,103.6z M89.8,101.8h1.1l0.4,1.4l0.1,0
				c0.1-0.2,0.1-0.4,0.2-0.5c0.1-0.5,0.3-1,0.4-1.4c0.5-1.4,0.3-2.7-0.6-4.1c-1.7-2.5-3.4-5.3-5.1-8.1c-0.8-1.3-1.4-2-1.9-2
				c0,0,0,0-0.1,0c-0.6,0-1.2,0.7-2,1.7l-0.2,0.2c0.2,0.5,0.6,0.9,1,1.4c0.7,0.8,1.4,1.5,1.2,2.8c0,0,0.1,0.1,0.1,0.1
				c0,0,0.1,0.1,0.1,0.1l1.3,1.5c1.1,1.2,2.1,2.4,3.2,3.6c0.1,0.1,0.3,0.3,0.4,0.4c0.4,0.4,0.8,0.8,0.9,1.3c0.1,0.5-0.1,1-0.3,1.5
				C89.9,101.6,89.8,101.7,89.8,101.8z M84.2,93C84.2,93,84.2,93,84.2,93C84.2,93,84.2,93,84.2,93z M81.3,98.5l0-0.3l-0.3-6.5l0.7,0
				v6.7l-0.1,0L81.3,98.5z M121.8,89.8l-0.1-0.1c-0.3-0.5-0.9-1.4-1.5-2.3c-0.6-0.9-1.3-1.9-1.6-2.5l-0.2-0.3l0.3,0
				c0.5,0,1,0.1,1.6,0.1c0.5,0,1.1,0.1,1.5,0.1l0.2,0l0,0.2c0,0.4,0.1,1.2,0.3,2c0.2,0.9,0.4,1.9,0.3,2.5l0,0.2L121.8,89.8z
				 M119.1,85c0.3,0.6,0.9,1.4,1.4,2.1c0.6,0.8,1.2,1.6,1.5,2.2l0.3-0.1c0-0.6-0.2-1.4-0.3-2.2c-0.1-0.7-0.3-1.4-0.3-1.9
				c-0.4,0-0.9-0.1-1.3-0.1C119.9,85.1,119.5,85.1,119.1,85z M79.3,89.5C79.3,89.5,79.3,89.5,79.3,89.5c-0.4,0-0.7-0.3-0.9-0.8
				l-0.1-0.2l1.9-0.4l-1.9-0.9V86l-1.9-0.2l1-1l0.3,0.3l-0.4,0.5l1.5,0.2v1.3l1.9,0.9c0.5-0.6,1-1.2,1.5-1.8l0.8-1
				c-0.1-0.2-0.3-0.5-0.5-0.8c-0.1-0.1-0.2-0.3-0.3-0.4c-1.1-1.5-1.1-3,0-4.5c0.9-1.3,1.7-2.7,2.4-4c0.6-1.2,0.6-2.1-0.1-3l-0.1-0.1
				l1.4-1.5l0.1,0.3c0.1,0.3,0.2,0.6,0.3,0.9c0.2,0.6,0.5,1.1,0.4,1.6c0,1-0.3,2-0.7,2.8c-0.8,1.5-1.7,3-2.6,4.4l0,0.1
				c-0.4,0.6-0.4,1.1,0,1.7c0.1,0.1,0.1,0.2,0.2,0.4c0.2,0.4,0.4,0.7,1,0.6c0.3-0.1,0.6,0.1,0.9,0.2c0.4,0.2,0.8,0.3,1.3,0l0.1-0.1
				l0.1,0c0.1,0,0.4,0.1,0.5,0.3c0.6,0.9,1.4,0.8,2.3,0.6c0.2,0,0.4-0.1,0.6-0.1c2.8-0.4,3.9-1.4,4.3-3.9c0.3-1.9,0.5-3.9,0.7-6
				c0.1-0.8,0.2-1.7,0.2-2.5c-0.1,0-0.2,0-0.3,0.1c-0.3,0-0.5,0.1-0.8,0.2c-2.6,1.1-4.2,0.6-5.6-1.5c-1.5-2.3-3.1-5.1-3-8.5
				c-0.1,0-0.2,0-0.3,0c-0.3,0-0.6,0-0.9,0c-4.5,0.4-8.8,1.7-12.5,4c-1.8,1.1-3.2,2.6-4.3,4.5c0,0,0.1,0.1,0.1,0.1
				c0.3,0.2,0.5,0.3,0.4,0.5l-0.1,0.4c-0.2,0.8-0.5,1.7-0.9,2.4c-0.2,0.3-0.4,0.6-0.6,0.8c-0.4,0.5-0.8,1-0.8,1.7
				c0,0.1-0.1,0.2-0.1,0.3c0,0,0,0.1-0.1,0.1l-0.1,0.2L65,76.8c-1.3,3.4-1.1,4,1.9,6.2c2.1,1.5,4,2.3,6.2,2.7l-0.1,0.4
				c-2.3-0.4-4.3-1.3-6.4-2.8c-3.2-2.3-3.4-3.1-2-6.8l0.1-0.2l0.8,0.4c0,0,0-0.1,0-0.1c-0.1-0.8,0.4-1.4,0.8-1.9
				c0.2-0.3,0.4-0.5,0.5-0.8c0.4-0.7,0.6-1.5,0.8-2.3l0.1-0.3c-0.1-0.1-0.2-0.1-0.2-0.2c-0.1-0.1-0.2-0.1-0.3-0.2l-0.1-0.1l0.1-0.1
				c1.2-2.1,2.6-3.7,4.5-4.8c3.8-2.3,8.1-3.7,12.7-4.1c0.3,0,0.6,0,1,0c0.2,0,0.3,0,0.5,0h0.2l0,0.2c-0.2,3.5,1.4,6.3,2.9,8.5
				c1.3,1.9,2.7,2.3,5.1,1.3c0.3-0.1,0.5-0.1,0.8-0.2c0.2,0,0.4-0.1,0.6-0.1l0.3-0.1l0,0.3c-0.1,1-0.2,1.9-0.3,2.8
				c-0.2,2.1-0.4,4-0.7,6c-0.5,2.8-1.7,3.8-4.7,4.3c-0.2,0-0.4,0.1-0.6,0.1c-0.9,0.2-2,0.4-2.7-0.8c0,0-0.1-0.1-0.2-0.1
				c-0.6,0.4-1.1,0.2-1.6,0c-0.3-0.1-0.5-0.2-0.7-0.2c-0.9,0.2-1.2-0.4-1.5-0.8c-0.1-0.1-0.1-0.2-0.2-0.3c-0.5-0.7-0.5-1.4-0.1-2.1
				l0-0.1c0.9-1.4,1.8-2.8,2.6-4.3c0.4-0.8,0.6-1.7,0.6-2.6c0-0.4-0.2-0.9-0.4-1.5c-0.1-0.2-0.2-0.4-0.2-0.6l-0.7,0.8
				c0.7,1,0.7,2.1,0,3.3c-0.7,1.3-1.5,2.7-2.4,4c-1,1.3-1,2.6,0,4c0.1,0.1,0.2,0.3,0.3,0.4c0.4,0.6,0.6,0.9,0.6,1.1l0,0.1l-0.9,1.1
				c-0.7,0.9-1.5,1.8-2.2,2.7C79.9,89.3,79.6,89.5,79.3,89.5z M78.9,88.8c0.1,0.2,0.2,0.3,0.4,0.3c0.2,0,0.4-0.1,0.6-0.4
				c0-0.1,0.1-0.1,0.2-0.2L78.9,88.8z M87,83.9C87,83.9,87,83.9,87,83.9C87,83.9,87,83.9,87,83.9z M73.6,89.1
				c-3.3,0-6.3-1.1-9.1-3.4l-0.1-0.1c-0.1-0.1-0.3-0.2-0.4-0.4c-0.4-1-0.9-2.1-1.3-3.1l-0.8-2l0.8,0.8c3.6,4,7.9,6.1,13,6.4l1.6,0.1
				l-3,0.6l-0.2,1l-0.2,0C73.8,89.1,73.7,89.1,73.6,89.1z M63.2,82.1c0.4,1,0.8,2,1.2,3c0,0.1,0.2,0.2,0.3,0.3l0.1,0.1
				c2.8,2.2,5.7,3.3,8.9,3.3c0,0,0.1,0,0.1,0l0.2-0.9l0.4-0.1C70,87.2,66.4,85.4,63.2,82.1z M99.5,88.8c-0.9,0-1.8-0.5-2.9-1.6
				c-0.1-0.1-0.3-0.2-0.5-0.4c-0.1-0.1-0.2-0.2-0.4-0.3l-0.3-0.2l0.4-0.1c0.5-0.2,0.9-0.4,1-0.7c0.1-0.2,0-0.5-0.1-0.8l-1.2-0.2
				l0-0.2c0.2-1.9,0.5-4.4,0.7-6.8c0.2-2.4,0.5-4.8,0.7-6.7l0-0.2l0.2,0c0.2,0,0.2,0,0.3,1.2c0,0.3,0,0.6,0,0.8l0,0v0.2
				c0,0.1,0.2,0.4,0.5,0.5c0.3,0.2,0.5,0.5,0.6,0.7c0,0.2,0.2,0.5,0.3,0.5c0.2,0,0.4,0.1,0.4,0.3c0.1,0.2-0.1,0.4-0.2,0.6
				c-0.1,0.2-0.3,0.4-0.3,0.6c0,0.2-0.1,0.4-0.1,0.6c-0.1,0.4-0.1,0.9-0.1,1.3c0,1.4,0.8,2.4,2.4,3.2c0.6,0.3,1.3,0.6,2,0.9
				c0.3,0.1,0.6,0.2,0.9,0.4l0.2,0.1l-0.1,0.2c-0.2,0.4-0.3,0.7-0.4,1c-0.3,0.8-0.6,1.5-1,2.2c-0.7,1.6-1.6,2.5-2.5,2.6
				C99.8,88.8,99.7,88.8,99.5,88.8z M96.2,86.5C96.3,86.5,96.3,86.5,96.2,86.5c0.3,0.2,0.5,0.3,0.6,0.5c1.2,1.1,2.2,1.6,3,1.4
				c0.8-0.2,1.5-0.9,2.2-2.4c0.3-0.7,0.6-1.5,1-2.2c0.1-0.3,0.2-0.6,0.4-0.9c-0.3-0.1-0.5-0.2-0.8-0.3c-0.7-0.3-1.4-0.5-2.1-0.9
				c-1.7-0.9-2.6-2-2.6-3.6c0-0.5,0-0.9,0.1-1.4c0-0.2,0.1-0.4,0.1-0.6c0-0.3,0.2-0.6,0.4-0.8c0.1-0.1,0.2-0.2,0.2-0.3
				c0,0-0.1,0-0.1,0C98.2,75,98,74.5,98,74.3c0-0.1-0.3-0.3-0.4-0.5c-0.2-0.2-0.5-0.4-0.6-0.7c-0.2,1.4-0.3,3-0.5,4.6
				c-0.2,2.3-0.4,4.7-0.7,6.6l1,0.1l0,0.1c0.3,0.5,0.3,0.9,0.2,1.2C97,86,96.7,86.3,96.2,86.5z M114.2,86.6l-0.6-0.2l0.6-2l-0.5-0.4
				c-1.4,0.8-2.8,1.2-4.3,1.6c-0.9,0.2-1.9,0.5-2.8,0.8l-0.2,0.1l-0.1-0.2c-0.3-0.9-0.8-0.8-1.4-0.6c-0.4,0.1-0.8,0.3-1.2,0.1
				l-0.1-0.1l0-0.2c0.1-1.3,0.8-2.1,2.1-2.3c1.5-0.3,3.1-0.7,4.6-1c1.5-0.4,3.1-0.7,4.7-1c2.6-0.5,2.9-0.2,3.4,2.3l0,0.2h-1.5
				l0.6,1.7l-0.5,0.3l-0.3-0.4c-0.1-0.2-0.3-0.4-0.4-0.6c0,0-0.1-0.1-0.1-0.1c-0.1-0.1-0.2-0.3-0.3-0.4c-0.2,0-0.5,0.2-0.6,0.4
				c-0.3,0.4-0.5,0.8-0.7,1.2c-0.1,0.2-0.2,0.4-0.3,0.5L114.2,86.6z M105.7,85.3c0.4,0,0.8,0.2,1,0.8c0.9-0.3,1.8-0.6,2.6-0.8
				c1.5-0.4,3-0.8,4.3-1.6l0.1-0.1l0.9,0.7l-0.4,1.5c0,0,0,0,0,0c0.2-0.4,0.4-0.9,0.7-1.3c0.2-0.3,0.6-0.6,0.9-0.6
				c0.2,0,0.5,0.3,0.6,0.5c0,0,0.1,0.1,0.1,0.1c0.1,0.1,0.2,0.3,0.3,0.4l-0.5-1.5h1.6c-0.4-2.1-0.6-2.2-2.9-1.7
				c-1.6,0.3-3.1,0.7-4.7,1c-1.5,0.3-3.1,0.7-4.6,1c-1.1,0.2-1.6,0.8-1.8,1.8c0.2,0,0.5-0.1,0.8-0.2
				C105.1,85.4,105.4,85.3,105.7,85.3z M92.1,71.3c-0.6,0-1.2-0.2-1.7-0.8c-1.6-2.1-2.6-4.2-3-6.4c-0.1-0.5,0.2-0.9,0.4-1.4
				c0.1-0.2,0.2-0.3,0.3-0.5c0.1-0.3,0.3-0.5,0.4-0.9c0.1-0.2,0.2-0.4,0.3-0.6l0.2-0.4l0.2,0.4c0.4,0.8,0.6,1.7,0.9,2.5
				c0.8,2.6,1.7,5,4.6,6.1l0.2,0.1l0,0.2c-0.2,1-0.7,1.6-1.6,1.7C92.8,71.2,92.5,71.3,92.1,71.3z M89,61.2c0,0.1-0.1,0.2-0.1,0.2
				c-0.2,0.3-0.3,0.6-0.4,0.8c-0.1,0.2-0.2,0.4-0.3,0.5c-0.2,0.4-0.5,0.8-0.4,1.1c0.4,2.2,1.3,4.2,2.9,6.3c0.6,0.8,1.4,0.7,2.4,0.5
				c0.7-0.1,1.1-0.5,1.3-1.2c-3-1.2-3.8-3.8-4.6-6.3C89.5,62.6,89.3,61.9,89,61.2z M94.6,68.2c-0.1,0-0.1,0-0.2,0
				c-0.6-0.1-1.2-0.5-1.7-1.3c-1.1-1.6-1.8-3.5-2.4-6.2l0-0.1l0.1-0.1c1.6-1.1,3.6-2.3,4.7-2.8l0.2,0.4c-1.1,0.5-3,1.6-4.5,2.7
				c0.6,2.5,1.3,4.3,2.3,5.9c0.5,0.7,1,1.1,1.4,1.2c0.5,0.1,1-0.2,1.7-0.8L95,64.6l1.5-0.5l0.9,1.6c0.2-0.2,0.3-0.3,0.3-0.5
				c0-0.2-0.1-0.4-0.4-0.6c-0.4-0.4-0.8-0.8-1.1-1.2c-0.2-0.2-0.3-0.4-0.5-0.6l-0.1-0.2l1.1-0.8l0.1,0.1c0.6,0.5,1.1,1,1.6,1.4
				c1.2,1.1,2.4,2.1,3.7,3c0.8,0.6,1.5,0.8,2.1,0.7c0.6-0.1,1.2-0.6,1.8-1.5l-2-2.1l1.6-0.8l0.3,0.3c0.1,0.1,0.2,0.2,0.2,0.3
				c0.9,1,1,1.1,2.1,0.2c0.3-0.2,0.6-0.5,1-0.6c0.9-0.2,1.1-0.7,0.8-1.8c-0.3-1-0.5-2.1-0.8-3.1l-0.1-0.6c-0.2,0.5-0.6,0.9-1,1.1
				c-0.4,0.2-0.8,0.2-1.1,0.1c-0.4-0.2-0.7-0.4-0.8-0.7c-0.2-0.4-0.1-0.9,0.2-1.5c0.2-0.4,0.6-0.9,1.1-1c0.4-0.1,0.9-0.1,1.4-0.1
				c0.1,0,0.3,0,0.4,0l0.1-1l-3.9,0.9l-0.4-1.4c-0.2,0-0.4-0.1-0.6-0.1c-0.6-0.1-1.3-0.2-1.9-0.4c-1.5-0.6-2.6-0.4-3.6,0.8
				c-0.1,0.1-0.2,0.1-0.3,0.1c0,0-0.1,0-0.1,0l-0.1,0l-0.2-0.2c0.1,0.5-0.1,1-0.3,1.5c-0.2,0.4-0.3,0.8-0.3,1.1l-0.4,0.1
				c-0.1-0.5,0.1-0.9,0.3-1.4c0.1-0.3,0.3-0.7,0.3-1c-0.1,0-0.1,0-0.2,0.1c-0.3,0.1-0.6,0.2-0.8,0.3c-0.2,0.1-0.3,0.3-0.5,0.5
				c-0.3,0.4-0.8,0.8-1.5,0.7c0,0,0,0,0,0c-0.1,0.1-0.2,0.3-0.3,0.4c-0.1,0.1-0.2,0.2-0.3,0.3c-0.3,0.3-0.8,0.8-1.6,0.2
				c-0.1-0.1-0.4-0.1-0.6,0c-0.2,0-0.3,0-0.4,0h-0.1l-0.1-0.1c-1.1-1.5-1.5-3.8-1.1-6.1c0.4-2.4,1.6-4.4,3.3-5.5
				c5.4-3.6,10.4-4.2,15.3-1.7c0.9,0.4,1.7,1,2.4,1.7c1,1,1.5,2.4,1.2,3.8c-0.2,1.4-1.1,2.5-2.4,3.1c-2.7,1.2-5.4,0.7-7.9,0.1
				l-0.3-0.1l0.2-0.2c0.2-0.4,0.7-0.5,1-0.6c0.3-0.1,0.6-0.2,0.7-0.4c0.1-0.1,0.1-0.4,0-0.7c-2.3,0.2-3.9,1.6-5.7,3.1L98,53.1
				l0.5,0.6c0,0,0.1,0,0.1,0c1-1.3,2.3-1.6,4-0.9c0.6,0.2,1.2,0.3,1.8,0.4c0.3,0,0.5,0.1,0.8,0.1l0.1,0l0.3,1.3l4.1-1l-0.2,2h-0.2
				c-0.2,0-0.4,0-0.6,0c-0.5,0-0.9,0-1.3,0.1c-0.3,0.1-0.7,0.4-0.8,0.8c-0.2,0.5-0.3,0.9-0.2,1.2c0.1,0.2,0.3,0.4,0.6,0.5
				c0.2,0.1,0.5,0.1,0.8-0.1c0.4-0.2,0.8-0.7,0.9-1.2c0-0.1,0.1-0.3,0.1-0.3l0.2-0.9l0.6,2.2c0.2,1,0.5,2,0.8,3.1
				c0.2,0.9,0.3,1.9-1.1,2.3c-0.3,0.1-0.6,0.3-0.9,0.6c-1.2,1-1.6,1-2.7-0.2c-0.1-0.1-0.2-0.2-0.2-0.3l-0.1-0.1l-0.8,0.4l1.9,2
				l-0.1,0.1c-0.7,1.1-1.4,1.6-2.2,1.8c-0.7,0.1-1.5-0.1-2.4-0.8c-1.3-0.9-2.5-2-3.7-3.1c-0.5-0.4-1-0.9-1.5-1.3l-0.5,0.4
				c0.1,0.1,0.2,0.3,0.4,0.4c0.4,0.4,0.7,0.8,1.1,1.2c0.2,0.2,0.5,0.5,0.5,0.9c0,0.3-0.2,0.6-0.6,0.9l-0.2,0.1l-1-1.7l-0.8,0.3
				l1.1,2.2l-0.1,0.1C95.8,67.8,95.2,68.2,94.6,68.2z M92.3,56.1c0.2,0,0.4,0,0.5,0.1c0.5,0.4,0.7,0.2,1.1-0.2
				c0.1-0.1,0.2-0.2,0.4-0.3c0,0,0.1-0.2,0.2-0.3c0.1-0.1,0.2-0.3,0.4-0.3c0.6,0.2,0.9-0.1,1.3-0.5c0.2-0.2,0.4-0.4,0.6-0.5
				c0.3-0.2,0.6-0.3,0.9-0.4c0.1,0,0.3-0.1,0.4-0.1l0.1,0L97.5,53l0.4-0.4c1.8-1.6,3.6-3.1,6.1-3.2l0.2,0l0,0.1
				c0.2,0.5,0.2,0.9,0,1.1c-0.2,0.4-0.6,0.5-1,0.6c-0.2,0.1-0.4,0.1-0.5,0.2c2.3,0.6,4.8,0.9,7.3-0.2c1.2-0.5,2-1.6,2.2-2.8
				c0.2-1.3-0.2-2.5-1.1-3.4c-0.6-0.6-1.4-1.2-2.3-1.6c-4.8-2.4-9.7-1.8-14.9,1.7c-1.6,1.1-2.8,3-3.2,5.3c-0.4,2.1,0,4.3,1,5.7
				c0.1,0,0.2,0,0.3,0C92,56.1,92.2,56.1,92.3,56.1z M88,58.1l-0.3,0c-1.2,0-1.7-0.8-2.1-1.6c-0.1-0.1-0.1-0.2-0.2-0.3
				c-1.3-2.2-1.4-4.2-0.2-6.1l0.2-0.3l0.8,1.1l3.1-1.6v4.9l-0.9,0.5c0.2,0.4,0.2,0.7,0.1,0.9c-0.1,0.4-0.6,0.7-1.1,0.9L88,58.1z
				 M85.4,50.6c-1,1.7-0.9,3.5,0.3,5.4c0.1,0.1,0.1,0.2,0.2,0.3c0.3,0.6,0.7,1.2,1.4,1.3l-0.5-1.2l0.2-0.1c0.4-0.2,0.9-0.4,1-0.7
				c0.1-0.2,0-0.5-0.2-0.8l-0.1-0.2l1.1-0.6v-4l-2.8,1.4L85.4,50.6z"/>
		</g>
		<g>
			<path d="M74.3,119.9c-0.1,0-0.4,0-0.9,0c-0.1-4.7,0.2-9.3,1-13.9c-1.1-0.1-1.1-0.8-1-1.6c0.1-1,0.2-2,0.4-2.9
				c0.1-0.4,0.4-0.8,0.7-1.1c0.1,0,0.3,0.1,0.4,0.1c-0.1,0.9-0.1,1.8-0.2,2.7c-0.1,0.9-0.4,1.9,0.8,2.3c0.1,0.1,0.2,0.4,0.2,0.7
				C75.3,110.7,74.8,115.2,74.3,119.9z"/>
			<path class="st2" d="M73.3,120.2l0-0.2c-0.1-5.1,0.2-9.5,1-13.7c-0.3-0.1-0.6-0.2-0.7-0.4c-0.3-0.4-0.3-0.9-0.2-1.4
				c0-0.2,0.1-0.4,0.1-0.7c0.1-0.8,0.2-1.5,0.3-2.3c0.1-0.3,0.3-0.6,0.5-0.9c0.1-0.1,0.2-0.2,0.2-0.3l0.1-0.1l0.7,0.2l-0.1,1.1
				c0,0.6-0.1,1.2-0.1,1.8c0,0.1,0,0.3-0.1,0.5c-0.1,0.7-0.2,1.3,0.7,1.6c0.3,0.1,0.4,0.6,0.4,0.9c-0.4,3.8-0.8,7.7-1.2,11.7
				l-0.2,2.2L73.3,120.2z M74.6,100.6c-0.1,0.1-0.1,0.2-0.2,0.2c-0.2,0.2-0.3,0.5-0.4,0.7c-0.2,0.7-0.3,1.5-0.3,2.3
				c0,0.2-0.1,0.4-0.1,0.7c-0.1,0.4-0.1,0.8,0.1,1.1c0.1,0.2,0.4,0.3,0.7,0.3l0.2,0l0,0.2c-0.8,4.2-1.1,8.5-1,13.6l0.5,0l0.2-1.9
				c0.4-4,0.8-7.8,1.2-11.7c0-0.2-0.1-0.4-0.1-0.5c-1.2-0.4-1.1-1.3-1-2.1c0-0.1,0-0.3,0-0.4c0-0.6,0.1-1.2,0.1-1.8l0.1-0.8
				L74.6,100.6z"/>
		</g>
		<g>
			<path d="M109.5,44.2c1.3,1.1,2.3,2.4,2.1,4.2c-0.2,1.2-1.1,1.7-2.5,2.1c0-0.5-0.1-1,0.1-1.2c1.4-1.5,1.5-1.9,0.1-3.5
				C108.8,45.1,108.6,44.6,109.5,44.2z"/>
			<path class="st2" d="M108.9,50.7l0-0.3c0-0.2,0-0.3,0-0.5c0-0.4,0-0.7,0.2-0.9c1.4-1.5,1.4-1.7,0.1-3.2c-0.3-0.3-0.5-0.7-0.4-1.1
				c0.1-0.3,0.3-0.5,0.8-0.8l0.1-0.1l0.1,0.1c1.2,0.9,2.5,2.3,2.1,4.4c-0.2,1.4-1.5,1.9-2.6,2.2L108.9,50.7z M109.5,44.4
				c-0.3,0.1-0.4,0.3-0.4,0.4c0,0.2,0.1,0.4,0.4,0.7c1.4,1.7,1.4,2.2-0.1,3.8c-0.1,0.1-0.1,0.4-0.1,0.6c0,0.1,0,0.2,0,0.2
				c1.3-0.4,1.9-0.9,2.1-1.8C111.6,46.9,111,45.7,109.5,44.4z"/>
		</g>
	</g>
</g>
</svg>
