<?xml version="1.0" encoding="utf-8"?>
<!-- Generator: Adobe Illustrator 23.0.6, SVG Export Plug-In . SVG Version: 6.00 Build 0)  -->
<svg version="1.1" id="Layer_1" xmlns="http://www.w3.org/2000/svg" xmlns:xlink="http://www.w3.org/1999/xlink" x="0px" y="0px"
	 viewBox="0 0 184 166" style="enable-background:new 0 0 184 166;" xml:space="preserve">
<style type="text/css">
	.st0{fill:none;stroke:#000000;stroke-linecap:round;}
	.st1{fill:#BEE8FF;}
	.st2{fill:#FFFFFF;}
	.st3{fill:none;stroke:#FFFFFF;stroke-linecap:round;}
</style>
<g>
	<path class="st3" d="M179.3,59.6h-12.2c-0.6,0-1,0.4-1,1V65c0,0.5,0.4,1,1,1c8,0.3,14.3,2.9,12.7,10.5c-1,4.8-14.8,2.4-14.8,2.4"/>
	<path class="st1" d="M4.8,48.1C1.6,34.6,9.5,20.9,22.8,17l0.7-0.2C34.7,13.4,46.3,11.5,58,11l0.9,0c13.5-0.6,27.1,0.9,40.2,4.3l0,0
		c6.3,1.6,12.5,3.7,18.5,6.3l1.8,0.7c7.9,3.3,15.6,7.3,22.9,11.9l6.3,3.9l16.1,13.1l-34.1-14.3L119,32.6l-11.2-3.7l-4.9-1.5
		c-16-4.8-32.8-6.3-49.4-4.4L52.3,23c-6.8,0.8-13.4,2.2-19.9,4.2l-19.8,6.1C5.2,35.7,1.7,44.3,5.5,51.1l0,0L4.8,48.1z"/>
	<path class="st3" d="M165.5,51.7C112.8,2,60,1.6,8,34"/>
	<path class="st3" d="M164.5,51.5C106.5,8.1,54,13.5,6,51.5"/>
	<g>
		<g>
			<path class="st2" d="M123.5,85.9c-0.6-1.4-1.8-2.4-3.1-2.6c-0.8-0.1-1.3-0.4-1.6-1.2c-0.6-1.6-0.8-1.8-2.4-1.5
				c-2.2,0.3-4.5,0.8-6.7,1.3c-1,0.2-1.9,0.4-2.9,0.6c-0.1,0-0.2,0-0.2,0.1c-0.3,0.1-0.5,0.1-0.8,0.1l-0.2-0.1
				c-1.4-0.5-2.9-1.1-4.2-1.7c-1.7-0.8-2.2-1.6-2-3.7c0.3-3,0-5.8-1-8.6c-0.3-0.9-0.4-1.7,0.6-2.4L99,66l0.1,0.1
				c0.3,0.2,0.6,0.4,0.9,0.6c0.6,0.4,1.3,0.9,2,1.2c1.6,0.8,2.9,0.7,4.2-0.5c0.4-0.4,0.8-0.8,1.2-1.2c0.3-0.3,0.6-0.6,0.8-0.9
				l0.1-0.1c0.4-0.4,0.7-0.7,1.2-1c2.1-1.1,2.4-1.8,1.6-3.9c-0.7-2-0.7-3.9-0.6-5.4c0-0.5,0.1-1.1,0.2-1.6c0.1-0.5,0.3-1,0.6-1.3
				c1.3-1.1,2-2.5,2-4c0-1.5-0.6-2.9-1.7-4c-0.7-0.7-1.6-1.3-2.4-1.7c-7.1-3.4-15.3-1-19.5,5.7l-0.1,0.1l-0.5-0.1
				c-0.3,0-0.5-0.1-0.8-0.1c-2-0.3-3.6,0.6-4.5,2.4c-0.9,2.1-0.8,4.1,0.5,6.4c1,1.8,2.1,2.8,4.2,2.3l1.1-0.3l-0.9,0.6
				c-0.2,0.1-0.4,0.2-0.5,0.4c-0.7,0.5-1.4,1-2.2,1c-0.1,0-0.1,0-0.2,0c-3.6,0-7.3,0.8-11.1,2.4c-4.3,1.8-7,4.1-8.6,7.3
				c-0.9,1.8-1.6,3.7-2.3,5.6c-0.4,1-0.8,2-1.2,3c-0.1,0.3-0.4,0.9-0.8,1c-1.7,0.5-2.9,1.6-3.5,3.3c-1,2.5-2,5.2-2.5,7.9
				c-1.8,8.6-1.9,17.2-1.9,25.4c0,6.4,0.1,13,0.3,19.3c0,1.5,0.1,3,0.1,4.5c0,0.3,0.3,0.9,0.6,1c1.6,0.7,3.1,1.2,4.8,1.9
				c0.6,0.2,1.2,0.4,1.8,0.7l0.1,0.1l-0.1,1.8c-0.1,1.4-0.2,2.9-0.3,4.4c-0.1,1.1-0.1,2.4-0.1,3.7c0,0.1,0.4,0.5,0.6,0.5l0.8,0.1
				c1.5,0.2,3,0.3,4.5,0.3c3,0,6.1-0.2,9-0.3c1.1,0,2.1-0.1,3.2-0.1c0.2,0,0.3,0,0.4-0.1c0.6-0.4,1-2.3,0.7-3c-0.4-0.8-1-1.1-2.2-1
				c-1.9,0.2-3.7-0.4-5.5-1.8c-0.3-0.3-0.7-0.7-0.7-1.1c-0.1-0.9,0-1.8,0-2.6c0-0.3,0-0.6,0-0.9v-0.2l0.2,0l11.4-2.4l-0.9-48.1
				l6.3,7l-0.1,0.1c-0.2,0.3-0.4,0.6-0.6,0.9c-0.5,0.7-1,1.5-1.3,2.3c-0.2,0.5-0.2,1.5,0.1,1.7c0.7,0.7,1.7,1,2.6,0.9
				c0.9-0.1,1.7-0.7,2.2-1.6c0.4-0.8,0.7-1.7,0.9-2.5c0.1-0.5,0.3-0.9,0.4-1.4c0.3-1,0.2-1.9-0.3-2.9l-0.1-0.2
				c-1-1.8-2.1-3.7-3.2-5.6c-0.7-1.2-1.5-2.4-2.3-3.6c-0.4-0.5-0.7-1.1-1.1-1.7l-0.2-0.2l7.1-1.5l0.1,0.1c0.5,0.4,0.9,0.8,1.3,1.3
				c1,1,2,1.9,3,2.7c0.8,0.6,1.8,0.8,3.1,0.3c2.8-0.9,5.6-1.8,8.5-2.7c1.1-0.4,2.3-0.7,3.4-1.1l0.2-0.1l0,0.2c0,0.4,0.1,0.7,0.1,1
				c0.1,0.7,0.2,1.2,0.2,1.8c0,1.4,0,2.7-0.1,4.1c0,0.9,0,1.9-0.1,2.8c-0.2,11.2-0.3,22.3-0.5,33.5c0,3.8-0.1,7.6-0.1,11.4
				c0,4.4-0.1,8.8-0.2,13.3c0,1,0.2,1.5,1.1,1.5c0.8,0,1.6-0.2,2-0.6c0.3-0.2,0.4-0.5,0.4-0.8l0-2.3c0.1-3.6,0.1-7.4,0.1-11
				c0-8.4,0-16.9,0-25.3c0-4.4,0-8.8,0-13.2l0-2.4c0-3.1,0-6.2,0.1-9.3c0-0.8,0.2-1.5,0.4-2.2c0.1-0.3,0.2-0.6,0.2-0.9l0-0.2l0.2,0
				c2.1,0.2,3.2,1,3.7,2.5c0.1,0.3,0.5,0.7,0.7,0.8c0.3,0.2,0.6,0.4,0.9,0.3c0.3,0,0.6-0.2,0.9-0.6C124,89,124.1,87.3,123.5,85.9z
				 M89.3,54.4L88.4,55c0.2,0.4,0.2,0.7,0.1,0.9c-0.1,0.4-0.6,0.7-1.1,0.9l0.6,1.4l-0.3,0c-1.2,0-1.7-0.8-2.1-1.6
				c-0.1-0.1-0.1-0.2-0.2-0.3c-1.3-2.2-1.4-4.2-0.2-6.1l0.2-0.3l0.8,1.1l3.1-1.6V54.4z M80.2,151.6l-0.7,0.4
				c-0.7,0.4-1.3,0.5-1.8,0.5c-0.6,0-1.1-0.2-1.3-0.6l-0.2-0.3H80.2z M90.2,50.5c0.4-2.4,1.6-4.4,3.3-5.5c5.4-3.6,10.4-4.2,15.3-1.7
				c0.9,0.4,1.7,1,2.4,1.7c1,1,1.5,2.4,1.2,3.8c-0.2,1.4-1.1,2.5-2.4,3.1c-2.7,1.2-5.4,0.7-7.9,0.1l-0.3-0.1l0.2-0.2
				c0.2-0.4,0.7-0.5,1-0.6c0.3-0.1,0.6-0.2,0.7-0.4c0.1-0.1,0.1-0.4,0-0.7c-2.3,0.2-3.9,1.6-5.7,3.1L98,53.2l0.5,0.6
				c0,0,0.1,0,0.1,0c1-1.3,2.3-1.6,4-0.9c0.6,0.2,1.2,0.3,1.8,0.4c0.3,0,0.5,0.1,0.8,0.1l0.1,0l0.3,1.3l4.1-1l-0.2,2h-0.2
				c-0.2,0-0.4,0-0.6,0c-0.5,0-0.9,0-1.3,0.1c-0.3,0.1-0.7,0.4-0.8,0.8c-0.2,0.5-0.3,0.9-0.2,1.2c0.1,0.2,0.3,0.4,0.6,0.5
				c0.2,0.1,0.5,0.1,0.8-0.1c0.4-0.2,0.8-0.7,0.9-1.2c0-0.1,0.1-0.3,0.1-0.3l0.2-0.9l0.6,2.2c0.2,1,0.5,2,0.8,3.1
				c0.2,0.9,0.3,1.9-1.1,2.3c-0.3,0.1-0.6,0.3-0.9,0.6c-1.2,1-1.6,1-2.7-0.2c-0.1-0.1-0.2-0.2-0.2-0.3l-0.1-0.1l-0.8,0.4l1.9,2
				l-0.1,0.1c-0.7,1.1-1.4,1.6-2.2,1.8c-0.7,0.1-1.5-0.1-2.4-0.8c-1.3-0.9-2.5-2-3.7-3.1c-0.5-0.4-1-0.9-1.5-1.3l-0.5,0.4
				c0.1,0.1,0.2,0.3,0.4,0.4c0.4,0.4,0.7,0.8,1.1,1.2c0.2,0.2,0.5,0.5,0.5,0.9c0,0.3-0.2,0.6-0.6,0.9l-0.2,0.1l-1-1.7L95.5,65
				l1.1,2.2l-0.1,0.1c-0.7,0.7-1.3,1-1.9,1c-0.1,0-0.1,0-0.2,0c-0.6-0.1-1.2-0.5-1.7-1.3c-1.1-1.6-1.8-3.5-2.4-6.2l0-0.1l0.1-0.1
				c1.6-1.1,3.6-2.3,4.7-2.8l0.1,0.2c0,0,0,0,0,0l2.3-1.3l-0.2,0c-0.1-0.5,0.1-0.9,0.3-1.4c0.1-0.3,0.3-0.7,0.3-1
				c-0.1,0-0.1,0-0.2,0.1c-0.3,0.1-0.6,0.2-0.8,0.3c-0.2,0.1-0.3,0.3-0.5,0.5c-0.3,0.4-0.8,0.8-1.5,0.7c0,0,0,0,0,0
				c-0.1,0.1-0.2,0.3-0.3,0.4c-0.1,0.1-0.2,0.2-0.3,0.3c-0.3,0.3-0.8,0.8-1.6,0.2c-0.1-0.1-0.4-0.1-0.6,0c-0.2,0-0.3,0-0.4,0h-0.1
				l-0.1-0.1C90.2,55.1,89.8,52.8,90.2,50.5z M87.8,62.7c0.1-0.2,0.2-0.3,0.3-0.5c0.1-0.3,0.3-0.5,0.4-0.9c0.1-0.2,0.2-0.4,0.3-0.6
				l0.2-0.4l0.2,0.4c0.4,0.8,0.6,1.7,0.9,2.5c0.8,2.6,1.7,5,4.6,6.1l0.2,0.1l0,0.2c-0.2,1-0.7,1.6-1.6,1.7c-0.3,0.1-0.7,0.1-1.1,0.1
				c-0.6,0-1.2-0.2-1.7-0.8c-1.6-2.1-2.6-4.2-3-6.4C87.3,63.7,87.6,63.2,87.8,62.7z M62.7,81.2c3.6,4,7.9,6.1,13,6.4l1.6,0.1l-3,0.6
				l-0.2,1l-0.2,0c-0.1,0-0.2,0-0.3,0c-3.3,0-6.3-1.1-9.1-3.4l-0.1-0.1c-0.1-0.1-0.3-0.2-0.4-0.4c-0.4-1-0.9-2.1-1.3-3.1l-0.8-2
				L62.7,81.2z M72.5,153.8l-0.2,0.1H62.1l0-1l10.4,0.6L72.5,153.8z M74.2,152.4l0.1,0.3L62.6,152l-0.2-0.7l2.1-1l-0.1,0.5l1.5,0.5
				l0.5-2.4l0.1,0C69.3,148.6,73.8,150.3,74.2,152.4z M63.8,144.1h3l0.3,3.6l-0.1,0.1c-0.2,0.1-0.4,0.2-0.7,0.3
				c-0.5,0.2-0.9,0.4-1.4,0.5c-0.1,0-0.5,0.1-0.9,0.1c-0.3,0-0.6-0.1-0.8-0.2c-0.4-0.4-0.5-1.1-0.5-1.7c0-0.3,0.4-0.5,0.8-0.7
				c0.1-0.1,0.2-0.1,0.3-0.2c0.1-0.1,0.3-0.1,0.4-0.1L63.8,144.1z M71.1,144.9c0,0.8,0,1.6,0,2.3c0,0.5-0.9,0.8-0.9,0.8
				c-0.4,0.1-0.7,0.2-1.2,0.3c-0.2,0-0.5,0.1-0.8,0.2l-0.3,0.1l0.3-4.5l2.9-0.2v0.2C71.1,144.3,71.1,144.6,71.1,144.9z M82.6,140.7
				c-5.5,1.6-10.8,2.4-15.8,2.4c-1,0-2,0-3-0.1l-0.2,0l0-1.8c0-1.3,0-2.5,0-3.7c0-0.4,0-0.6-0.1-0.7c-0.1-0.1-0.4-0.1-0.8,0v6.1
				l-1.4-0.1v-13.3c-0.4-0.1-0.6-0.1-0.7,0c-0.1,0.1-0.2,0.3-0.2,0.7c0,3,0,6,0,8.9l0,3.5l-1.4-0.3l-0.5-26c0-0.1,0-0.2,0-0.3
				c0-0.2,0-0.4,0-0.5c-0.1-0.2-0.2-0.3-0.4-0.5c0,0,0,0-0.1-0.1c0,0-0.1,0.1-0.1,0.1c-0.1,0.1-0.3,0.3-0.3,0.4c0,2.8-0.1,5.1,0,7.4
				c0.1,5.7,0.3,11.5,0.5,15.8c0,0.7,0.1,1.4,0.2,2.1c0,0.4,0.1,0.7,0.1,1.1l0,0.3l-0.3-0.1c-0.2-0.1-0.3-0.1-0.5-0.2
				c-0.3-0.1-0.5-0.2-0.8-0.3c-1.1-0.3-1.6-1-1.6-2.3c0-3.1-0.1-6.3-0.1-9.4c-0.1-5.1-0.2-10.4-0.1-15.6c0.1-7.9,0.4-16.3,2.2-24.5
				c0.2-0.9,0.5-1.9,0.8-2.8c0.1-0.4,0.3-0.8,0.4-1.3l0.1-0.2l0,0c0.1-0.2,0.4-0.8,0.6-1.2c0.7-1.5,0.7-1.5,0.9-1.5l0.1,0l0.8,1
				c0.5,0.4,0.9,0.8,1.4,1.2c1,0.9,1.9,1.7,2.9,2.4c3.2,2.3,6.9,3.1,10.8,2.5c0.9-0.1,2.4,0.1,2.8,1.1c1,2.4,1.7,4.5,1.4,7
				c0,0.1,0.1,0.4,0.2,0.4c0.2,0.1,0.4,0.2,0.4,0.3c0.1,0.2,0,0.5-0.2,0.7c-0.1,0.2-0.3,0.4-0.3,0.6c0,1.5,0.1,3.1,0.2,4.7
				c0,0.3,0.2,0.6,0.3,0.9c0.1,0.1,0.1,0.2,0.2,0.3l0.1,0v-6.8l0.7,0l0,0.2l0.8,41.2L82.6,140.7z M80.9,91.7l0.7,0v6.7l-0.1,0
				l-0.3,0.1l0-0.3L80.9,91.7z M86.6,88.9c1.7,2.8,3.4,5.6,5.1,8.1c1,1.5,1.2,2.9,0.6,4.5c-0.2,0.5-0.3,0.9-0.4,1.4
				c-0.1,0.2-0.1,0.4-0.2,0.7l0,0.1l-0.7,0.1l-0.4-1.5h-1.3l0.1-0.3c0.1-0.2,0.1-0.4,0.2-0.6c0.2-0.4,0.4-0.9,0.3-1.2
				c-0.1-0.4-0.5-0.8-0.8-1.1c-0.1-0.1-0.3-0.3-0.4-0.4c-1.1-1.2-2.1-2.4-3.2-3.6l-1.3-1.5c0,0-0.1-0.1-0.1-0.1
				c-0.1-0.1-0.3-0.3-0.2-0.4c0.2-1.1-0.4-1.8-1.1-2.5c-0.4-0.5-0.8-1-1.1-1.6l0-0.1l0.3-0.4c0.9-1.1,1.6-1.9,2.4-1.8
				C85,86.7,85.7,87.4,86.6,88.9z M90.4,84.8c-0.2,0-0.4,0.1-0.6,0.1c-0.9,0.2-2,0.4-2.7-0.8c0,0-0.1-0.1-0.2-0.1
				c-0.6,0.4-1.1,0.2-1.6,0c-0.3-0.1-0.5-0.2-0.7-0.2c-0.9,0.2-1.2-0.4-1.5-0.8C83.1,83,83,82.9,83,82.8c-0.5-0.7-0.5-1.4-0.1-2.1
				l0-0.1c0.9-1.4,1.8-2.8,2.6-4.3c0.4-0.8,0.6-1.7,0.6-2.6c0-0.4-0.2-0.9-0.4-1.5c-0.1-0.2-0.2-0.4-0.2-0.6l-0.7,0.8
				c0.7,1,0.7,2.1,0,3.3c-0.7,1.3-1.5,2.7-2.4,4c-1,1.3-1,2.6,0,4c0.1,0.1,0.2,0.3,0.3,0.4c0.4,0.6,0.6,0.9,0.6,1.1l0,0.1l-0.9,1.1
				c-0.7,0.9-1.5,1.8-2.2,2.7c-0.3,0.3-0.6,0.5-0.9,0.5c0,0-0.1,0-0.1,0c-0.3,0-0.6-0.3-0.8-0.8l-0.1-0.2l1.9-0.4l-1.9-0.9v-1.2
				l-1.9-0.2l0.8-0.8l-4.1,1l0,0.2c-2.3-0.4-4.3-1.3-6.4-2.8c-3.2-2.3-3.4-3.1-2-6.8l0.1-0.2l0.8,0.4c0,0,0-0.1,0-0.1
				c-0.1-0.8,0.4-1.4,0.8-1.9c0.2-0.3,0.4-0.5,0.5-0.8c0.4-0.7,0.6-1.5,0.8-2.3l0.1-0.3c-0.1-0.1-0.2-0.1-0.2-0.2
				c-0.1-0.1-0.2-0.1-0.3-0.2l-0.1-0.1l0.1-0.1c1.2-2.1,2.6-3.7,4.5-4.8c3.8-2.3,8.1-3.7,12.7-4.1c0.3,0,0.6,0,1,0
				c0.2,0,0.3,0,0.5,0h0.2l0,0.2c-0.2,3.5,1.4,6.3,2.9,8.5c1.3,1.9,2.7,2.3,5.1,1.3c0.3-0.1,0.5-0.1,0.8-0.2c0.2,0,0.4-0.1,0.6-0.1
				l0.3-0.1l0,0.3c-0.1,1-0.2,1.9-0.3,2.8c-0.2,2.1-0.4,4-0.7,6C94.5,83.3,93.3,84.4,90.4,84.8z M102.4,86.2
				c-0.7,1.6-1.6,2.5-2.5,2.6c-0.1,0-0.3,0-0.4,0c-0.9,0-1.8-0.5-2.9-1.6c-0.1-0.1-0.3-0.2-0.5-0.4c-0.1-0.1-0.2-0.2-0.4-0.3
				l-0.3-0.2l0.4-0.1c0.5-0.2,0.9-0.4,1-0.7c0.1-0.2,0-0.5-0.1-0.8l-1.2-0.2l0-0.2c0.2-1.9,0.5-4.4,0.7-6.8c0.2-2.4,0.5-4.8,0.7-6.7
				l0-0.2l0.2,0c0.2,0,0.2,0,0.3,1.2c0,0.3,0,0.6,0,0.8l0,0V73c0,0.1,0.2,0.4,0.5,0.5c0.3,0.2,0.5,0.5,0.6,0.7
				c0,0.2,0.2,0.5,0.3,0.5c0.2,0,0.4,0.1,0.4,0.3c0.1,0.2-0.1,0.4-0.2,0.6c-0.1,0.2-0.3,0.4-0.3,0.6c0,0.2-0.1,0.4-0.1,0.6
				c-0.1,0.4-0.1,0.9-0.1,1.3c0,1.4,0.8,2.4,2.4,3.2c0.6,0.3,1.3,0.6,2,0.9c0.3,0.1,0.6,0.2,0.9,0.4l0.2,0.1l-0.1,0.2
				c-0.2,0.4-0.3,0.7-0.4,1C103.1,84.7,102.8,85.5,102.4,86.2z M115.1,138.6c0,1.3,0,2.5,0,3.8c0,3.3,0,6.8,0,10.1
				c0,0.5,0,1-0.4,1.4c-0.2,0.2-0.5,0.3-0.9,0.3c-0.1,0-0.1,0-0.2,0l-0.2,0l0-18.3h1.8l0,1.1C115.1,137.5,115.1,138.1,115.1,138.6z
				 M113.4,133.4c0-1.1,0-2.2,0-3.3c0.1-5.8,0.2-11.6,0.2-17.4l0.1-8.4c0.1-4.6,0.1-9.2,0.2-13.7c0-0.3,0.1-0.6,0.3-0.9
				c0.1-0.1,0.1-0.2,0.1-0.4l0.1-0.2l0.6,0.2V135l-1.6,0.1v-0.2C113.4,134.4,113.4,133.9,113.4,133.4z M117,86l-0.3-0.4
				c-0.1-0.2-0.3-0.4-0.4-0.6c0,0-0.1-0.1-0.1-0.1c-0.1-0.1-0.2-0.3-0.3-0.4c-0.2,0-0.5,0.2-0.6,0.4c-0.3,0.4-0.5,0.8-0.7,1.2
				c-0.1,0.2-0.2,0.4-0.3,0.5l-0.1,0.2l-0.6-0.2l0.6-2l-0.5-0.4c-1.4,0.8-2.8,1.2-4.3,1.6c-0.9,0.2-1.9,0.5-2.8,0.8l-0.2,0.1
				l-0.1-0.2c-0.3-0.9-0.8-0.8-1.4-0.6c-0.4,0.1-0.8,0.3-1.2,0.1l-0.1-0.1l0-0.2c0.1-1.3,0.8-2.1,2.1-2.3c1.5-0.3,3.1-0.7,4.6-1
				c1.5-0.4,3.1-0.7,4.7-1c2.6-0.5,2.9-0.2,3.4,2.3l0,0.2h-1.5l0.6,1.7L117,86z M122.6,89.7l-0.9,0.2l-0.1-0.1
				c-0.3-0.5-0.9-1.4-1.5-2.3c-0.6-0.9-1.3-1.9-1.6-2.5l-0.2-0.3l0.3,0c0.5,0,1,0.1,1.6,0.1c0.5,0,1.1,0.1,1.5,0.1l0.2,0l0,0.2
				c0,0.4,0.1,1.2,0.3,2c0.2,0.9,0.4,1.9,0.3,2.5L122.6,89.7z"/>
			<polygon class="st2" points="77.6,84.9 77.6,84.9 77.6,84.9 			"/>
		</g>
		<path class="st2" d="M74.5,103.8c0-0.1,0-0.3,0-0.4c0-0.6,0.1-1.2,0.1-1.8l0.1-0.8l-0.2,0c-0.1,0.1-0.1,0.2-0.2,0.2
			c-0.2,0.2-0.3,0.5-0.4,0.7c-0.2,0.7-0.3,1.5-0.3,2.3c0,0.2-0.1,0.4-0.1,0.7c-0.1,0.4-0.1,0.8,0.1,1.1c0.1,0.2,0.4,0.3,0.7,0.3
			l0.2,0l0,0.2c-0.8,4.2-1.1,8.5-1,13.6l0.5,0l0.2-1.9c0.4-4,0.8-7.8,1.2-11.7c0-0.2-0.1-0.4-0.1-0.5
			C74.3,105.4,74.4,104.5,74.5,103.8z"/>
		<g>
			<path class="st2" d="M109.1,45c0,0.2,0.1,0.4,0.4,0.7c1.4,1.7,1.4,2.2-0.1,3.8c-0.1,0.1-0.1,0.4-0.1,0.6c0,0.1,0,0.2,0,0.2
				c1.3-0.4,1.9-0.9,2.1-1.8c0.2-1.5-0.4-2.7-1.9-4C109.2,44.7,109.1,44.8,109.1,45z"/>
		</g>
	</g>
</g>
</svg>
