<svg width="90" height="81" viewBox="0 0 90 81" fill="none" xmlns="http://www.w3.org/2000/svg">
<path d="M47.7752 53.583C62.1732 39.838 61.2123 42.9714 68.2816 38.7493C57.3737 37.4398 50.3927 46.1661 46.4663 54.8921C46.4663 54.8921 46.8135 54.7509 47.7752 53.583Z" fill="#BEE8FF"/>
<path d="M38.6016 58.9792C38.8156 59.1537 39.1306 59.1218 39.3051 58.9078C39.4797 58.6938 39.4477 58.3789 39.2338 58.2043L38.6016 58.9792ZM3.77749 36.367C3.50472 36.4101 3.31852 36.6661 3.36159 36.9389C3.40466 37.2117 3.66069 37.3979 3.93345 37.3548L3.77749 36.367ZM39.2338 58.2043C30.9481 51.4449 23.8207 45.7337 17.9318 41.8444C14.9868 39.8995 12.3342 38.3983 9.98775 37.4491C7.64749 36.5024 5.56422 36.0849 3.77749 36.367L3.93345 37.3548C5.46262 37.1134 7.34764 37.4598 9.61274 38.3761C11.8716 39.2899 14.4615 40.7509 17.3807 42.6789C23.22 46.5354 30.3078 52.2132 38.6016 58.9792L39.2338 58.2043ZM4.3066 37.3398C10.7697 39.2788 14.6251 41.8261 18.3861 45.5718C20.277 47.455 22.1452 49.6424 24.3143 52.2231C26.4803 54.8001 28.9403 57.762 32.0011 61.1725L32.7453 60.5046C29.6978 57.1088 27.2495 54.1611 25.0798 51.5797C22.9132 49.002 21.0184 46.782 19.0918 44.8633C15.2177 41.005 11.2199 38.3698 4.59395 36.382L4.3066 37.3398Z" fill="white"/>
<path d="M69.0215 1C63.9313 7.54453 53.6791 26.6546 55.7733 36.7768" stroke="white"/>
<path d="M18.4111 2.30884C23.6468 10.1623 34.3798 29.9704 33.6817 42.8849" stroke="white"/>
<path d="M47.1479 43.692C47.1116 43.9658 47.3042 44.2171 47.578 44.2533C47.8517 44.2895 48.103 44.097 48.1392 43.8232L47.1479 43.692ZM48.1392 43.8232C48.7875 38.9254 50.891 30.3738 54.4411 22.0069C57.9983 13.6234 62.9672 5.52365 69.2945 1.41948L68.7503 0.580519C62.163 4.85335 57.0969 13.1876 53.5206 21.6163C49.9372 30.0616 47.8085 38.7003 47.1479 43.692L48.1392 43.8232Z" fill="white"/>
<path d="M23.053 44.6301C8.65489 30.8851 9.61587 34.0186 2.54651 29.7964C13.4544 28.4869 20.4354 37.2132 24.3618 45.9392C24.3618 45.9392 24.0146 45.798 23.053 44.6301Z" fill="#BEE8FF"/>
<path d="M40.9995 40.5C26.6014 26.755 28.3058 29.0097 21.2365 24.7876C32.1444 23.4781 38.0731 32.774 41.9995 41.5C41.9995 41.5 41.9611 41.6679 40.9995 40.5Z" fill="#BEE8FF"/>
<path d="M47.6255 39.5313C62.0236 25.7863 60.3192 28.041 67.3885 23.8188C56.4806 22.5094 50.5519 31.8052 46.6255 40.5313C46.6255 40.5313 46.6639 40.6992 47.6255 39.5313Z" fill="#BEE8FF"/>
<path d="M71.2045 56.8465L71.3792 57.315L71.2045 56.8465ZM59.4244 78.6616L59.5582 79.1434L59.6352 79.122L59.7017 79.0777L59.4244 78.6616ZM82.9475 39.1921C83.2229 39.2125 83.4627 39.0058 83.4831 38.7305C83.5035 38.4551 83.2968 38.2153 83.0215 38.1949L82.9475 39.1921ZM84.8878 38.5601C85.1498 38.4728 85.2914 38.1896 85.2041 37.9277C85.1167 37.6657 84.8336 37.5241 84.5716 37.6114L84.8878 38.5601ZM29.7556 77.7893L29.3464 78.0766L29.4347 78.2023L29.5783 78.2568L29.7556 77.7893ZM26.3223 54.2894C26.5967 54.2578 26.7935 54.0099 26.7619 53.7355C26.7304 53.4612 26.4824 53.2644 26.2081 53.2959L26.3223 54.2894ZM41.9088 54.6861C41.9203 54.962 42.1533 55.1763 42.4292 55.1648C42.7051 55.1533 42.9195 54.9203 42.908 54.6444L41.9088 54.6861ZM49.8255 13.2166L50.3172 13.3076L50.6509 11.5054L49.4482 12.8885L49.8255 13.2166ZM47.8743 50.8647C47.944 51.1319 48.2171 51.292 48.4843 51.2223C48.7515 51.1526 48.9116 50.8795 48.8419 50.6123L47.8743 50.8647ZM17.7688 57.3017C25.8657 60.9821 47.8458 66.0886 71.3792 57.315L71.0299 56.378C47.7868 65.0434 26.0833 59.9826 18.1826 56.3913L17.7688 57.3017ZM71.3792 57.315C71.3949 57.3092 71.3145 57.3452 71.1965 57.3015C71.0555 57.2493 71 57.1382 70.986 57.0959C70.9757 57.0649 70.9839 57.0665 70.9805 57.1288C70.9775 57.1846 70.9665 57.2652 70.9432 57.3739C70.8475 57.8198 70.5901 58.5376 70.1924 59.4705C69.4036 61.3205 68.1166 63.8937 66.6745 66.5565C65.2334 69.2176 63.6442 71.9554 62.2547 74.1335C61.5595 75.2231 60.9181 76.1666 60.3727 76.8884C59.8119 77.6306 59.3943 78.0807 59.147 78.2456L59.7017 79.0777C60.1089 78.8062 60.6184 78.222 61.1705 77.4913C61.7381 76.7401 62.3953 75.7722 63.0977 74.6713C64.5032 72.4683 66.1045 69.709 67.5538 67.0327C69.0022 64.3583 70.3058 61.7541 71.1123 59.8627C71.5121 58.9249 71.8035 58.131 71.9209 57.5837C71.9508 57.4441 71.9722 57.3088 71.979 57.1836C71.9855 57.065 71.9814 56.9204 71.935 56.7807C71.8848 56.6297 71.7695 56.4473 71.5437 56.3637C71.3408 56.2886 71.1505 56.333 71.0299 56.378L71.3792 57.315ZM46.3786 59.9632C49.026 59.7328 51.9268 58.2032 54.9222 56.1402C57.9286 54.0697 61.1139 51.4002 64.3194 48.8136C67.5376 46.2168 70.7823 43.698 73.9483 41.8817C77.1204 40.0618 80.1504 38.9848 82.9475 39.1921L83.0215 38.1949C79.9285 37.9657 76.6867 39.1577 73.4507 41.0143C70.2085 42.8744 66.9087 45.4393 63.6915 48.0354C60.4615 50.6417 57.3206 53.2742 54.355 55.3166C51.3786 57.3665 48.6621 58.7607 46.292 58.9669L46.3786 59.9632ZM56.6073 60.7774C62.4003 57.6581 64.3433 53.7051 67.3452 49.8455C70.3373 45.9983 74.5082 42.0198 84.8878 38.5601L84.5716 37.6114C74.0087 41.1322 69.6718 45.2252 66.5558 49.2316C63.4495 53.2255 61.6841 56.908 56.1332 59.8969L56.6073 60.7774ZM29.5783 78.2568C33.868 79.884 46.8651 82.6693 59.5582 79.1434L59.2905 78.1799C46.8527 81.6348 34.0784 78.8943 29.933 77.3218L29.5783 78.2568ZM30.1648 77.502C27.7686 74.0891 24.3075 68.9513 21.7091 64.6278C20.4078 62.4625 19.3338 60.5193 18.7161 59.1047C18.4038 58.3894 18.2265 57.8497 18.1792 57.4993C18.1679 57.4155 18.1655 57.3522 18.1678 57.3067C18.1701 57.2603 18.1768 57.2435 18.176 57.2457C18.1618 57.2819 18.1075 57.3315 18.0578 57.3397L17.8935 56.3533C17.582 56.4052 17.3532 56.6031 17.2442 56.8825C17.1513 57.121 17.1554 57.3903 17.1882 57.6331C17.2551 58.1285 17.4807 58.7744 17.7996 59.5048C18.4445 60.9816 19.5465 62.9706 20.852 65.1429C23.4674 69.4947 26.9433 74.6539 29.3464 78.0766L30.1648 77.502ZM26.2081 53.2959C24.9406 53.4417 22.8374 53.8587 21.0441 54.4196C20.1497 54.6993 19.3064 55.0226 18.6771 55.3785C18.3636 55.5558 18.0794 55.7543 17.8677 55.9775C17.6585 56.1981 17.4757 56.491 17.4757 56.8465H18.4757C18.4757 56.8458 18.4757 56.8427 18.4773 56.8365C18.4789 56.8301 18.4824 56.8193 18.49 56.804C18.5057 56.7721 18.5365 56.7255 18.5932 56.6657C18.7093 56.5434 18.8989 56.4019 19.1694 56.249C19.7081 55.9443 20.4736 55.6458 21.3426 55.374C23.076 54.8319 25.1175 54.4279 26.3223 54.2894L26.2081 53.2959ZM71.6205 56.5691C71.4222 56.2718 71.0667 55.9558 70.6216 55.6551C70.166 55.3473 69.5808 55.0318 68.886 54.7477C67.4958 54.1794 65.6471 53.729 63.484 53.729V54.729C65.5094 54.729 67.23 55.1511 68.5076 55.6734C69.1466 55.9346 69.6698 56.2189 70.0619 56.4838C70.4645 56.7557 70.6959 56.985 70.7885 57.1239L71.6205 56.5691ZM42.908 54.6444C42.6907 49.431 42.7995 41.1048 43.8314 33.0885C44.3474 29.0806 45.0926 25.1619 46.1382 21.7538C47.1862 18.338 48.5242 15.4751 50.2028 13.5446L49.4482 12.8885C47.6365 14.972 46.2475 17.9882 45.1822 21.4605C44.1145 24.9406 43.3599 28.919 42.8396 32.9608C41.7991 41.0441 41.6898 49.4283 41.9088 54.6861L42.908 54.6444ZM49.3339 13.1255C48.602 17.0777 47.7097 24.4724 47.262 31.8817C47.0381 35.588 46.9249 39.3058 46.9995 42.6045C47.0739 45.8945 47.3356 48.7997 47.8743 50.8647L48.8419 50.6123C48.3335 48.6632 48.0732 45.8527 47.9992 42.5818C47.9254 39.3195 48.0373 35.6311 48.2602 31.9421C48.7062 24.5609 49.5947 17.2087 50.3172 13.3076L49.3339 13.1255Z" fill="white"/>
<path d="M18.4111 2.30884C25.8283 11.0349 41.7097 32.7627 42.4078 46.3754" stroke="white"/>
<path d="M41.8217 54.4875C41.9645 54.7238 42.2719 54.7997 42.5082 54.6569C42.7446 54.5141 42.8204 54.2067 42.6776 53.9703L41.8217 54.4875ZM5.51164 19.3231C9.18221 21.4103 15.7456 26.0339 22.656 32.2298C29.566 38.4252 36.7956 46.1683 41.8217 54.4875L42.6776 53.9703C37.5816 45.5355 30.2743 37.7171 23.3236 31.4852C16.3735 25.2538 9.7525 20.5842 6.00594 18.4538L5.51164 19.3231Z" fill="white"/>
<path d="M46.2909 55.3979C46.2142 55.6632 46.367 55.9404 46.6323 56.0171C46.8976 56.0938 47.1748 55.941 47.2515 55.6757L46.2909 55.3979ZM87.7836 9.28881L87.9396 9.76384L87.7836 9.28881ZM54.8525 54.9843C54.7882 55.2528 54.9538 55.5227 55.2223 55.587C55.4909 55.6513 55.7607 55.4857 55.825 55.2171L54.8525 54.9843ZM47.2515 55.6757C48.981 49.6947 53.0996 40.1939 59.8241 31.1948C66.5482 22.1964 75.8513 13.7341 87.9396 9.76384L87.6276 8.81377C75.2819 12.8685 65.8241 21.4947 59.0231 30.5963C52.2224 39.6972 48.0518 49.3079 46.2909 55.3979L47.2515 55.6757ZM87.9396 9.76384C88.1234 9.70347 88.2593 9.66518 88.355 9.64444C88.4723 9.61899 88.4684 9.63424 88.4112 9.62304C88.3763 9.6162 88.2522 9.58532 88.1578 9.4553C88.055 9.31378 88.068 9.16879 88.0823 9.10637C88.1019 9.02058 88.1389 9.00213 88.0674 9.08584C87.9555 9.21676 87.7276 9.4292 87.3679 9.73735C87.0158 10.039 86.5623 10.4115 86.0174 10.8575C83.8411 12.6385 80.274 15.5363 76.2822 19.4699C68.3043 27.3314 58.5922 39.3654 54.8525 54.9843L55.825 55.2171C59.5023 39.8589 69.0668 27.9839 76.9841 20.1822C80.9399 16.2841 84.4751 13.4118 86.6507 11.6313C87.1937 11.1869 87.6563 10.8071 88.0185 10.4968C88.3732 10.1929 88.6581 9.93375 88.8275 9.73567C88.8965 9.65487 89.0164 9.50759 89.0572 9.3289C89.082 9.22004 89.0903 9.0376 88.9669 8.86763C88.8518 8.70918 88.6912 8.65889 88.6035 8.6417C88.4406 8.60978 88.2656 8.64056 88.143 8.66716C87.9986 8.69847 87.8255 8.74876 87.6276 8.81377L87.9396 9.76384ZM5.4647 19.2921C10.191 22.7295 20.5933 33.4688 25.7917 48.7176L26.7382 48.395C21.4655 32.9281 10.9252 22.0269 6.05287 18.4834L5.4647 19.2921Z" fill="white"/>
</svg>
