<svg width="150" height="150" viewBox="0 0 150 150" fill="none" xmlns="http://www.w3.org/2000/svg">
    <path d="M36.8061 90.7707C22.8705 90.4796 19.1137 79.6226 18.625 72.6152H55.5737C54.8895 78.1362 52.0548 91.0892 36.8061 90.7707Z" fill="#BEE8FF" stroke="black" strokeWidth="0.8"/>
    <path d="M111.312 90.4633C96.4318 90.1772 92.4203 79.504 91.8984 72.6152H131.352C130.622 78.0427 127.595 90.7765 111.312 90.4633Z" fill="#BEE8FF" stroke="black" strokeWidth="0.8"/>
    <path d="M72.4966 39.111L73.4231 31.9092L75.9281 32.2223L78.7462 31.9092C78.8545 34.161 78.9599 36.9765 79.0625 39.111H113.816L130.064 71.1632C130.401 71.8285 129.918 72.6154 129.172 72.6154H93.1494C92.3487 72.6154 91.8728 71.7214 92.3197 71.0571L113.816 39.111H79.0625L83.1299 123.655H99.4124C107.501 123.655 107.929 134.301 99.4124 134.301H43.6762C35.5091 134.301 35.9376 123.655 43.6762 123.655H60.585L72.4966 39.111H38.3531L55.418 71.1452C55.7729 71.8113 55.2902 72.6154 54.5355 72.6154H19.7775C18.9978 72.6154 18.518 71.7626 18.9229 71.0962L38.3531 39.111H72.4966Z" fill="white"/>
    <path d="M60.585 123.655H83.1299M60.585 123.655L72.4966 39.111M60.585 123.655H43.6762C35.9376 123.655 35.5091 134.301 43.6762 134.301H99.4124C107.929 134.301 107.501 123.655 99.4124 123.655H83.1299M83.1299 123.655C81.5263 90.3223 80.5826 70.7074 79.0625 39.111M38.3531 39.111H72.4966M38.3531 39.111L18.9229 71.0962C18.518 71.7626 18.9978 72.6154 19.7775 72.6154H54.5355C55.2902 72.6154 55.7729 71.8113 55.418 71.1452L38.3531 39.111ZM72.4966 39.111L73.4231 31.9092L75.9281 32.2223L78.7462 31.9092C78.8545 34.161 78.9599 36.9765 79.0625 39.111M79.0625 39.111H113.816M113.816 39.111L130.064 71.1632C130.401 71.8285 129.918 72.6154 129.172 72.6154H93.1494C92.3487 72.6154 91.8728 71.7214 92.3197 71.0571L113.816 39.111ZM23.3231 76.686H51.5043M98.473 76.686H126.654" stroke="black" strokeWidth="0.8"/>
    <path d="M84.0478 23.7675C84.0478 28.4026 80.4281 32.135 75.9934 32.135C71.5587 32.135 67.9391 28.4026 67.9391 23.7675C67.9391 19.1324 71.5587 15.4 75.9934 15.4C80.4281 15.4 84.0478 19.1324 84.0478 23.7675Z" fill="white" stroke="black" strokeWidth="0.8"/>
    <path d="M70.9163 21.5762C70.3944 23.1418 70.0396 26.7114 72.7951 28.4649" stroke="black" strokeWidth="0.4" strokeLinecap="round"/>
    <path d="M69.853 119.279H80.3752M73.8441 117.102H80.3752M66.2246 114.199H80.3752M69.853 111.659H80.3752M66.2246 108.756H80.3752M72.7556 106.579H80.3752M67.6759 104.402H80.3752" stroke="black" strokeWidth="0.4" strokeLinecap="round"/>
    <path d="M69.8519 101.137H79.6484M73.8431 98.96H78.9228M66.9492 96.0573H79.6484M69.8519 93.5174H79.6484M66.9492 90.6148H79.6484M72.7546 88.4378H79.6484M68.4006 86.2607H79.6484" stroke="black" strokeWidth="0.4" strokeLinecap="round"/>
    </svg>
    