<svg viewBox="0 0 145 145" fill="none" xmlns="http://www.w3.org/2000/svg">
    <rect width="145" height="145" fill="transparent"/>
    <path d="M48.5 89.5C35 96.5 25.3333 93 21 90C41 89.2 52 84.5 55.5 81.5C54.6667 83.1667 53.5 86 48.5 89.5Z" fill="white"/>
    <path d="M46.8007 109.099C47.3393 109.031 47.8465 109 48.3005 109C60.3005 108.833 86.8005 108.6 96.8005 109C97.4367 109.025 98.0366 109.059 98.6023 109.099M46.8007 109.099C42.9888 109.587 38.3002 111.002 38.3002 119C39.3007 122.002 39.8008 125.002 51.3002 125C67.3004 125 90.3005 125 99.8005 125C102.467 125 107.8 123.8 107.8 119C107.8 113.305 109.152 109.863 98.6023 109.099M46.8007 109.099C46.634 105.733 48.0007 98.9997 54.8007 98.9997C57.5257 98.9997 62.3761 98.9997 67.8007 98.9997M98.6023 109.099C98.769 107.999 98.8357 107.009 98.8182 106.121C98.6546 97.8076 86.6161 98.9997 78.3007 98.9997V98.9997M67.8007 98.9997C71.2024 98.9997 74.8299 98.9997 78.3007 98.9997M67.8007 98.9997C67.8007 82.0021 61.8789 56.2173 62.1968 39.002M78.3007 98.9997C77.6516 87.9672 85.2171 58.3982 84.3188 39.002M83.0077 30.002C81.4173 24.477 78.2917 21.0001 72.8007 21C64.9717 21 62.3933 28.3653 62.1968 39.002M83.0077 30.002C83.772 28.6686 90.0007 28.802 108.801 40.002M83.0077 30.002C83.7552 32.5989 84.1635 35.6484 84.3188 39.002M108.801 40.002C107.319 42.4712 107.179 44.5441 107.8 46.1378M108.801 40.002C110.806 40.002 114.153 38.4374 116.301 39.9407M108.801 47.7355L95.3007 69.002M108.801 47.7355C111.006 50.1491 115.337 50.5641 117.301 48.3391M108.801 47.7355C108.379 47.2744 108.035 46.7404 107.8 46.1378M95.3007 69.002C82.8008 69.002 91 92.5 107.8 94.502C133.8 96.502 138.801 74.502 135.801 70.502C135.304 69.8401 133.815 69.3522 131.655 69.002M95.3007 69.002C105.215 68.341 123.371 67.6591 131.655 69.002M117.301 48.3391C117.989 47.5597 118.386 46.4566 118.301 45.002C118.268 44.4534 118.213 43.9547 118.137 43.502M117.301 48.3391L131.655 69.002M84.3188 39.002C86.4793 38.0925 94.2003 38.2466 107.8 46.1378M116.301 39.9407C117.301 38.1278 118.001 34.702 112.801 35.502C110.566 34.3847 115.544 31.6032 119.056 33.1488C121.777 34.3465 122.188 38.1272 121.161 40.9175C120.352 43.116 118.965 43.6148 118.137 43.502M116.301 39.9407C117.158 40.5408 117.824 41.6297 118.137 43.502M62.1968 39.002C59.2314 38.1577 50.5007 38.7224 39.3007 47.7355M39.3007 47.7355C42.3007 36.502 30.8007 38.002 29.3007 43.502C29.3007 44.8282 29.7389 46.5884 31.0257 47.7355M39.3007 47.7355L52.8007 69.002M39.3007 47.7355C35.0455 49.551 32.4878 49.039 31.0257 47.7355M52.8007 69.002H16.3007M52.8007 69.002C63.6007 69.802 54.8007 85.502 48.3005 90.002C41.6339 93.8353 25.9007 98.302 16.3007 85.502C6.70066 72.702 12.3007 69.1686 16.3007 69.002M16.3007 69.002L31.0257 47.7355M29.6681 45.6508C21.8008 40.002 27.8008 30.7877 35.3008 34.002C36.8008 34.6448 29.5704 37.7622 31.3905 40.6112" stroke="black"/>
    <path d="M38.3008 40.002C44.3008 38.502 53.7008 30.202 63.3008 29.002" stroke="black"/>
    <path d="M94.6917 108.448C91.3805 108.137 63.5304 108.5 47.5 108.5C55.445 97.7509 90.9109 107.533 94.6917 108.448C94.8576 108.464 94.9618 108.481 95 108.5C95.0653 108.533 94.9558 108.512 94.6917 108.448Z" fill="white"/>
    <path d="M114 94C123.667 87.5 128.5 83 135.5 71C138 76.5 132.5 92.5 114 94Z" fill="white"/>
    </svg>
    