<svg width="150" height="150" viewBox="0 0 150 150" fill="none" xmlns="http://www.w3.org/2000/svg">
    <path d="M47.7594 93.2789C46.5329 93.2067 45.1356 91.5047 44.3756 90.7C43.7301 90.0166 43.7072 87.7854 44.3759 87.5984C45.2537 87.2083 46.4647 87.512 47.3531 87.7854C47.7532 87.9085 48.4962 88.4896 48.4962 88.4896C48.4962 88.4896 49.233 89.653 49.233 90.3316C49.233 91.7326 48.4277 93.459 49.0887 94.7811C49.7107 96.0251 50.7423 96.8919 52.0926 97.2777C52.2429 97.3206 53.6675 97.6167 53.7414 97.3578C53.86 96.943 52.0483 96.2216 51.7856 96.0628C50.6212 95.3587 50.7066 93.6473 50.7066 92.1737L50.7904 91.8385C50.9767 91.0936 51.5263 90.1738 51.9213 89.5153V89.5153C52.2145 89.0264 52.4396 88.8312 52.8821 88.4717C53.2521 88.1711 53.6844 87.8153 53.9283 87.5984C54.4897 87.0995 55.5544 87.016 56.2327 87.016C56.7252 87.016 57.6378 87.4997 58.0748 87.7854C58.4046 88.001 58.7292 88.6901 58.788 89.0136C58.9678 90.0026 59.0662 90.9772 58.788 91.9508C58.7377 92.1269 58.1699 90.2197 58.0748 90.095C58.0748 90.095 57.9464 89.7064 57.7063 89.2264C57.4745 88.7628 56.1389 88.2328 55.4904 88.5931C54.7731 88.9915 53.851 89.5522 53.5499 90.3316C53.2856 91.0157 53.1335 92.1509 53.5499 92.7985C54.0927 93.643 55.9561 92.7702 56.5117 92.378C56.8302 92.1532 57.231 91.7793 57.473 91.4768C57.473 92.378 57.7288 92.2135 57.473 92.378C55.348 93.744 54.0817 95.418 54.0817 97.9586C54.0817 99.3649 55.0305 100.878 56.2327 101.384C56.3917 101.451 57.065 101.613 56.9695 101.384C56.6011 101.015 56.3794 100.684 55.9109 100.188C55.4879 99.7402 54.8153 98.6585 54.7591 98.0682C54.6895 97.3371 54.9588 96.7407 55.3354 96.0628C55.663 95.4731 56.6011 94.3841 56.6011 94.3841C56.6011 94.3841 57.9231 93.1294 58.4609 92.5916C58.9147 92.1378 59.4382 91.8625 59.9171 91.4369C60.2974 91.0988 60.6539 91.4369 60.6539 91.4369C60.6539 91.4369 60.2335 92.2693 59.7042 92.7985C59.0192 93.4835 58.633 94.1745 58.4609 95.1209C58.3885 95.5193 58.9197 96.4624 59.3955 96.5945C59.7458 96.6919 60.6673 96.8716 61.022 96.7036C62.4602 96.0224 64.3073 93.1508 62.4956 92.1444C61.022 91.8053 62.6534 92.1028 62.8065 92.1444C63.3432 92.2899 63.7855 92.378 64.2061 92.7985C64.8381 93.4306 64.706 94.7525 64.706 95.1209C64.706 95.1209 64.1396 97.1524 63.4808 97.6649C62.4686 98.4521 61.4162 99.5459 60.6539 100.647C60.2479 101.233 59.9796 101.635 59.9257 102.324C59.9173 102.432 59.9424 102.54 59.9907 102.636V102.636C60.1862 103.027 60.4372 103.388 60.7295 103.713C61.0207 104.037 61.3969 104.464 61.6717 104.807C62.425 105.749 63.2768 106.196 64.442 106.196C64.9156 106.196 65.3074 106.006 65.7837 105.956C67.1723 105.809 68.5702 105.595 69.9692 105.595C71.0723 105.595 72.3218 105.577 73.4003 105.328C73.6851 105.262 74.0645 105.051 74.2681 104.848C74.5307 104.585 74.6895 104.239 74.9557 103.973C75.085 103.844 75.4235 103.478 75.3362 103.512C73.2011 104.343 71.0477 105.078 68.7409 105.115C67.3309 105.137 65.9196 104.994 64.5021 104.994C63.4008 104.994 64.2946 104.049 64.6823 103.673C65.4731 102.904 66.2529 102.065 66.7784 101.089C67.5766 99.607 66.9395 97.5447 65.0962 97.5447C64.552 97.5447 64.1014 97.5783 63.7211 97.9586C63.3539 98.3257 62.8115 100.226 63.2327 100.647C63.7036 101.118 65.8116 100.647 65.8116 99.5418C66.18 98.0682 64.0815 97.6246 64.0815 96.7036" stroke="#5A5A5A" strokeLinecap="round"/>
    <path d="M71.7061 64.1747C71.7988 64.0923 71.9815 64.0066 72.1799 63.9386C72.5854 63.7996 72.9967 63.7439 73.4043 63.6113V63.6113C73.7309 63.5049 74.0903 63.4243 74.4284 63.3634C74.5455 63.3423 74.6666 63.3194 74.7862 63.2978C75.2531 63.2137 75.7396 63.1685 76.1945 63.3032C77.117 63.5762 78.5123 64.3102 79.054 64.7296C80.1794 65.28 80.9785 65.5005 82.0095 65.5005C83.6097 65.5005 85.379 65.5005 87.0103 65.4524C87.6865 65.4324 88.399 65.3609 89.0877 65.2596C89.6287 65.18 90.296 65.0933 90.7689 65.356C91.3759 65.6932 92.0824 66.2384 92.5411 66.7481C93.0287 67.2899 93.2639 68.0351 93.6119 68.6595C94.0903 69.5177 95.4035 71.7421 96.3892 73.3849C97.4944 75.2269 98.2581 76.4531 99.2016 78.1042C100.144 79.7526 101.067 81.4239 102.093 83.0193C102.604 83.8151 103.471 84.6364 103.731 85.5464C103.834 85.9062 104.02 86.2774 104.02 86.6547V86.6547C104.02 87.31 103.126 87.6078 102.573 87.9597C102.405 88.0664 102.246 88.1569 102.136 88.1967C101.742 88.3385 101.194 88.5071 100.659 88.6633C99.4842 89.0068 98.3834 89.5541 97.3598 90.2259V90.2259C96.4771 90.8052 95.611 91.3926 94.7148 91.9553C93.984 92.4142 93.2095 92.787 92.4608 93.2082C92.2468 93.3285 91.8935 93.5536 91.6844 93.4491" stroke="#5A5A5A" strokeLinecap="round"/>
    <path d="M93.0352 65.5008C94.6602 65.5008 96.2804 65.0556 97.8539 64.6548C99.6461 64.1983 101.301 63.6754 102.983 62.9201C105.817 61.6477 108.695 60.4869 111.464 59.0651C115.343 57.0739 119.254 55.1626 123.179 53.2612C125.788 51.9973 128.376 50.6553 131.124 49.7168C132.346 49.2995 133.447 48.7411 134.551 48.0784C134.934 47.8489 135.327 47.6375 135.708 47.4038C135.931 47.2666 136.1 47.004 136.307 46.9005" stroke="#5A5A5A" strokeLinecap="round"/>
    <path d="M97.0083 68.5546V68.5546C97.0862 67.4256 97.7868 66.4342 98.8249 65.9836L107.414 62.2562L117.667 58.163L124.092 56.0214L125.005 55.6888C126.666 55.0837 128.273 54.3386 129.808 53.4615V53.4615L138.26 75.463L130.238 79.3409L122.925 83.637L116.271 89.0864L110.72 94.6118L107.058 88.8199L103.814 82.3183L100.569 75.8167L97.0083 68.5546Z" fill="#BEE8FF"/>
    <path d="M92.8408 65.597C93.6788 65.6902 94.7302 67.5199 95.0574 68.151C95.5798 69.1584 96.2751 70.1545 96.7573 71.1746C97.0628 71.8208 97.8625 72.9001 97.8625 72.9001C97.8625 72.9001 98.5721 74.0178 98.9677 74.5599C99.5295 75.3298 100.072 76.0007 100.551 76.8247C101.653 78.7224 102.858 80.5547 103.774 82.5536C104.351 83.8127 105.005 85.0727 105.444 86.3925C105.574 86.7806 105.483 86.8865 105.9 86.794C106.286 86.7081 106.641 86.247 107.029 86.1034C107.273 86.0133 107.486 85.8747 107.704 85.7393C108.11 85.4871 108.641 85.4416 109.091 85.3002C110.616 84.8209 112.183 84.4667 113.754 84.1759C115.168 83.9141 116.691 83.6634 118.069 83.255C118.525 83.12 117.556 82.5701 117.32 82.3876C116.521 81.7713 116.042 80.5615 115.58 79.7052C114.337 77.4031 113.284 75.0863 111.827 72.9001C110.412 70.7785 108.816 68.815 106.869 67.1551C106.377 66.7363 105.028 65.5011 104.234 65.7148C103.637 65.8757 104.08 66.2596 104.272 66.7161C104.662 67.6473 105.367 68.5252 105.91 69.3717C106.983 71.0452 107.91 72.8089 108.85 74.5599C109.817 76.3622 110.75 78.0458 112.164 79.5285C113.409 80.8346 114.512 82.267 115.585 83.7154C116.688 85.2037 117.975 86.6555 118.883 88.2664C119.131 88.7054 119.414 89.1274 119.686 89.5514C119.789 89.7106 119.835 89.9785 119.97 90.1136C120.079 90.2219 122.197 87.4354 122.331 87.2598C124.389 84.5615 126.913 82.3833 129.42 80.1067C130.764 78.887 132.235 77.7853 133.645 76.6426C134.913 75.6143 136.196 74.5951 137.558 73.6925C138.714 72.927 139.94 72.2775 141.156 71.6151C141.949 71.1834 142.672 70.6094 143.491 70.2284C144.436 69.7886 145.561 69.45 146.425 68.8738" stroke="#5A5A5A" strokeLinecap="round"/>
    <path d="M45.9059 61.9233V61.9233C45.828 60.7943 45.1275 59.8028 44.0894 59.3523L35.5007 55.6249L26.6428 50.5438L20.4978 46.4914L19.2761 45.7932C18.3754 45.2785 17.5473 44.6461 16.8138 43.9125V43.9125L4.65379 68.8317L12.6763 72.7095L19.989 77.0056L26.6428 82.455L32.194 87.9805L35.8565 82.1886L39.1007 75.687L42.3449 69.1853L45.9059 61.9233Z" fill="#BEE8FF"/>
    <path d="M18.7666 45.0345L48.2301 64.3892C49.8465 65.451 51.7382 66.0167 53.6722 66.0167V66.0167C54.3954 66.0167 55.1164 65.9376 55.8224 65.7807L56.5727 65.614C59.7685 64.9038 62.8449 63.7357 65.7067 62.1458V62.1458C67.0924 61.376 68.814 61.5711 69.9923 62.6315L71.7069 64.1747L64.2052 67.4363C63.5632 67.7155 62.9794 68.1129 62.4844 68.6079V68.6079C61.7693 69.323 61.262 70.2191 61.0167 71.2002L59.1811 78.5425L59.9179 76.3321L62.4967 76.3321C62.9037 76.3321 63.2336 76.662 63.2336 77.0689V77.0689L63.2336 77.8057V77.8057C63.2336 78.2775 63.0461 78.7299 62.7126 79.0635L62.6809 79.0951C62.3271 79.449 61.8472 79.6477 61.3468 79.6477L60.4305 79.6477C60.3347 79.6477 60.2393 79.636 60.1464 79.6128L58.8723 79.2942C58.842 79.2867 58.8127 79.3096 58.8127 79.3408V79.3408C58.8127 80.2169 59.2724 81.0288 60.0236 81.4795L60.2232 81.5993C60.5088 81.7706 60.8216 81.8916 61.1482 81.9569L61.6657 82.0604C62.2143 82.1701 62.7792 82.1701 63.3278 82.0604V82.0604C63.9921 81.9275 64.6149 81.6373 65.1439 81.2141L66.1808 80.3846L66.4947 80.0707C67.2536 79.3118 67.7919 78.3609 68.0522 77.3198V77.3198C68.2752 76.428 68.2874 75.4965 68.088 74.5991L67.6544 72.648L68.7885 74.6893C69.1162 75.2793 69.9479 75.3241 70.3372 74.7727L73.2455 70.6526C73.3596 70.491 73.6115 70.6183 73.5489 70.806V70.806L73.1485 72.2076C73.0197 72.6582 73.488 73.0469 73.9072 72.8373V72.8373C75.1401 72.2209 76.3227 71.5088 77.4444 70.7076L78.3382 70.0692L76.4961 72.648L75.2069 73.3847C74.5907 73.7368 74.5272 74.6009 75.0852 75.0393L79.075 78.1741L83.4503 81.8763C83.7085 82.0948 84.0597 82.168 84.3836 82.0708L87.5483 81.1214L91.2324 78.1741L88.2583 80.983C86.9427 82.2254 87.822 84.437 89.6315 84.437L92.706 84.437L84.2327 84.0686L85.4054 84.9482C86.5854 85.8332 87.6736 86.8344 88.6535 87.9369V87.9369L89.3411 88.7103C89.8628 89.2973 90.3051 89.9505 90.6563 90.653V90.653C91.2774 91.8952 91.6008 93.265 91.6008 94.6538L91.6008 95.1826C91.6008 95.6148 91.4291 96.0293 91.1235 96.3348L90.9078 96.5506C90.2155 97.2428 89.1684 97.4372 88.2738 97.0396L87.859 96.8553C86.9231 96.4393 86.0717 95.8546 85.3475 95.1304L82.0222 91.8051L75.7593 84.8054L79.8118 90.3315L86.1207 96.9724C86.5642 97.4393 86.8115 98.0587 86.8115 98.7026V98.7026C86.8115 99.4658 86.4646 100.188 85.8687 100.664L85.7467 100.762C85.2436 101.164 84.6185 101.384 83.9742 101.384L83.4491 101.384C82.2996 101.384 81.1972 100.927 80.3844 100.114L76.1277 95.8576L71.3385 89.9631L71.3385 91.0683L72.4437 92.5419L75.3909 95.8576L80.116 101.213C80.5825 101.741 80.6137 102.525 80.1906 103.089V103.089C79.9485 103.412 79.5857 103.622 79.1853 103.672L78.2808 103.785C77.3573 103.901 76.4204 103.74 75.588 103.324L74.466 102.763C73.6146 102.338 72.8373 101.777 72.1642 101.104L69.8649 98.8048L69.2639 98.2897C68.0068 97.2122 66.3463 96.7286 64.7072 96.9628V96.9628" stroke="#5A5A5A"/>
    <path d="M18.6321 88.8234C18.8222 88.9924 19.1097 89.0592 19.3282 89.1875C19.9891 89.5754 20.6525 89.9895 21.3306 90.344C22.6976 91.0585 24.0625 91.7784 25.4265 92.4856C26.1884 92.8807 27.1377 93.3585 27.9804 93.5457C28.4637 93.6531 29.2087 93.9423 29.6938 93.8884C29.724 93.885 29.1298 93.1531 29.0406 93.0639C28.7389 92.7622 28.4943 92.2423 28.3178 91.8538C27.8633 90.8541 27.4649 89.3708 28.0768 88.3629C28.4009 87.8291 28.8804 87.6137 29.4261 87.3778C30.443 86.938 31.9956 86.8959 33.0776 86.8959C33.6073 86.8959 34.1544 86.7803 34.5821 87.1422C35.075 87.5593 35.2085 88.4096 35.2085 89.0161C35.2085 90.5044 33.2978 91.5167 31.9264 91.0882C31.3479 90.9074 30.0466 90.6701 29.9133 89.9371C29.7046 88.7894 31.2389 88.0431 32.1245 87.5919C33.7539 86.7619 34.9569 84.9095 36.0705 83.5175C36.4367 83.0597 36.6455 82.4621 36.9914 81.9808C37.363 81.4639 37.6912 80.8975 38.0034 80.3425C38.7318 79.0475 39.6098 77.8449 40.3913 76.5839C41.2239 75.2403 41.9586 73.8431 42.8221 72.5147C43.7098 71.149 44.5157 69.7116 45.2314 68.2475C46.0741 66.5239 46.8763 64.8411 47.4427 63.0004C47.7757 61.9182 48.0368 60.4463 47.1375 59.547C46.8312 59.2407 46.4283 59.0413 46.1202 58.7332C45.6149 58.2279 45.2076 57.649 44.6318 57.2126C43.5096 56.3621 42.5797 55.602 41.2694 55.0924C40.2703 54.7038 39.188 54.5707 38.1533 54.316C37.2029 54.0821 36.2545 53.836 35.3049 53.5986C32.7269 52.9541 30.131 52.389 27.5521 51.7407C24.8994 51.0738 22.2906 50.3396 19.6869 49.5027C18.6925 49.1831 17.7242 48.7866 16.7207 48.4961C16.3866 48.3994 15.9898 48.1534 15.6445 48.1534" stroke="#5A5A5A" strokeLinecap="round"/>
    </svg>
    