<svg viewBox="0 0 188 146" fill="none" xmlns="http://www.w3.org/2000/svg">
    <path d="M59.0469 97.4999C57.4563 97.4064 55.6441 95.1991 54.6586 94.1556C53.8215 93.2693 53.7918 90.3757 54.659 90.1333C55.7974 89.6273 57.3678 90.0211 58.52 90.3757C59.0388 90.5353 60.0024 91.289 60.0024 91.289C60.0024 91.289 60.9579 92.7978 60.9579 93.6778C60.9579 95.4946 59.9135 97.7335 60.7708 99.4481C61.5774 101.061 62.9152 102.185 64.6664 102.686C64.8612 102.741 66.7087 103.125 66.8046 102.79C66.9583 102.252 64.6088 101.316 64.2682 101.11C62.7581 100.197 62.869 97.9777 62.869 96.0666L62.9776 95.632C63.2191 94.6659 63.9319 93.4731 64.4442 92.6192V92.6192C64.8244 91.9851 65.1163 91.7319 65.6902 91.2658C66.1701 90.8759 66.7307 90.4144 67.047 90.1333C67.7749 89.4862 69.1558 89.3779 70.0354 89.3779C70.6741 89.3779 71.8576 90.0052 72.4242 90.3757C72.852 90.6554 73.2729 91.549 73.3492 91.9685C73.5824 93.2512 73.71 94.5149 73.3492 95.7776C73.2839 96.006 72.5476 93.5326 72.4242 93.371C72.4242 93.371 72.2577 92.867 71.9465 92.2445C71.6458 91.6432 69.9137 90.9559 69.0727 91.4232C68.1426 91.9399 66.9467 92.667 66.5562 93.6778C66.2134 94.5649 66.0162 96.0371 66.5562 96.877C67.2602 97.9721 69.6767 96.8402 70.3972 96.3316C70.8102 96.0401 71.33 95.5552 71.6438 95.1629C71.6438 96.3316 71.9755 96.1183 71.6438 96.3316C68.8881 98.1031 67.2459 100.274 67.2459 103.569C67.2459 105.393 68.4764 107.354 70.0354 108.011C70.2417 108.098 71.1147 108.308 70.991 108.011C70.5132 107.533 70.2256 107.103 69.6181 106.46C69.0695 105.879 68.1973 104.476 68.1244 103.711C68.0341 102.763 68.3833 101.989 68.8717 101.11C69.2965 100.346 70.5132 98.9332 70.5132 98.9332C70.5132 98.9332 72.2275 97.3061 72.925 96.6086C73.5135 96.0201 74.1924 95.6631 74.8135 95.1111C75.3067 94.6727 75.769 95.1111 75.769 95.1111C75.769 95.1111 75.2238 96.1906 74.5375 96.877C73.6491 97.7653 73.1482 98.6613 72.925 99.8887C72.8311 100.405 73.52 101.628 74.137 101.8C74.5914 101.926 75.7863 102.159 76.2464 101.941C78.1115 101.058 80.5068 97.3338 78.1574 96.0286C76.2464 95.5889 78.362 95.9747 78.5606 96.0286C79.2567 96.2174 79.8302 96.3316 80.3756 96.877C81.1952 97.6966 81.024 99.411 81.024 99.8887C81.024 99.8887 80.2895 102.523 79.435 103.188C78.1223 104.209 76.7576 105.627 75.769 107.055C75.2425 107.816 74.8946 108.336 74.8246 109.231C74.8137 109.37 74.8463 109.51 74.9089 109.635V109.635C75.1625 110.142 75.4879 110.61 75.867 111.031C76.2446 111.451 76.7325 112.005 77.089 112.451C78.0658 113.672 79.1705 114.251 80.6816 114.251C81.2957 114.251 81.8039 114.005 82.4216 113.94C84.2224 113.75 86.0352 113.472 87.8495 113.472C89.2801 113.472 90.9004 113.449 92.2991 113.126C92.6684 113.041 93.1604 112.767 93.4245 112.503C93.7651 112.162 93.971 111.714 94.3161 111.369C94.4839 111.201 94.9229 110.727 94.8096 110.771C92.0408 111.848 89.2482 112.801 86.2566 112.849C84.428 112.878 82.5977 112.693 80.7595 112.693C79.3313 112.693 80.4905 111.467 80.9932 110.979C82.0188 109.983 83.03 108.894 83.7115 107.629C84.7466 105.706 83.9204 103.032 81.53 103.032C80.8243 103.032 80.2398 103.076 79.7466 103.569C79.2705 104.045 78.5671 106.509 79.1133 107.055C79.724 107.666 82.4577 107.055 82.4577 105.622C82.9354 103.711 80.2141 103.136 80.2141 101.941" stroke="white" strokeLinecap="round" />
    <path d="M90.1016 59.7574C90.2218 59.6505 90.4587 59.5393 90.7161 59.4511C91.2419 59.2709 91.7753 59.1986 92.3039 59.0266V59.0266C92.7275 58.8887 93.1936 58.7841 93.6321 58.7051C93.7838 58.6778 93.941 58.6481 94.096 58.6202C94.7015 58.511 95.3325 58.4524 95.9224 58.6271C97.1187 58.9811 98.9282 59.933 99.6307 60.4769C101.09 61.1907 102.126 61.4767 103.464 61.4767C105.539 61.4767 107.833 61.4767 109.949 61.4142C110.826 61.3883 111.75 61.2956 112.643 61.1643C113.344 61.0611 114.21 60.9486 114.823 61.2893C115.61 61.7266 116.526 62.4336 117.121 63.0946C117.754 63.7972 118.059 64.7636 118.51 65.5734C119.13 66.6864 120.833 69.571 122.112 71.7015C123.545 74.0903 124.535 75.6804 125.759 77.8216C126.981 79.9595 128.178 82.1269 129.508 84.1957C130.172 85.2278 131.296 86.293 131.633 87.4731C131.766 87.9396 132.008 88.4211 132.008 88.9104V88.9104C132.008 89.7602 130.848 90.1464 130.131 90.6027C129.913 90.7411 129.707 90.8585 129.564 90.9101C129.053 91.094 128.343 91.3126 127.65 91.5152C126.125 91.9607 124.698 92.6704 123.37 93.5416V93.5416C122.226 94.2929 121.103 95.0546 119.94 95.7844C118.993 96.3795 117.988 96.863 117.017 97.4092C116.74 97.5653 116.282 97.8572 116.01 97.7216" stroke="white" strokeLinecap="round" />
    <path d="M117.76 61.4761C119.867 61.4761 121.968 60.8988 124.009 60.379C126.333 59.787 128.479 59.1089 130.661 58.1293C134.336 56.4793 138.068 54.9739 141.659 53.13C146.689 50.5478 151.762 48.0691 156.851 45.6033C160.235 43.9642 163.591 42.2239 167.156 41.0068C168.74 40.4657 170.167 39.7414 171.599 38.8821C172.095 38.5844 172.605 38.3102 173.099 38.0072C173.389 37.8293 173.608 37.4887 173.877 37.3545" stroke="white" strokeLinecap="round" />
    <path d="M122.915 65.4368C123.016 63.9727 123.925 62.6869 125.271 62.1026L136.409 57.2688L149.706 51.9605L158.039 49.1831L159.223 48.7518C161.377 47.9671 163.461 47.0008 165.451 45.8634L176.413 74.3959L166.009 79.4249L156.525 84.9962L147.897 92.0632L140.697 99.2289L135.948 91.7177L131.741 83.2861L127.533 74.8545L122.915 65.4368Z" fill="#50B8E7" />
    <path d="M117.51 61.6006C118.597 61.7213 119.96 64.0943 120.384 64.9126C121.062 66.219 121.963 67.5109 122.589 68.8338C122.985 69.6718 124.022 71.0715 124.022 71.0715C124.022 71.0715 124.942 72.5209 125.455 73.2239C126.184 74.2224 126.888 75.0925 127.508 76.161C128.937 78.6221 130.5 80.9983 131.688 83.5905C132.437 85.2234 133.284 86.8574 133.855 88.569C134.022 89.0723 133.905 89.2097 134.445 89.0898C134.946 88.9784 135.407 88.3804 135.91 88.1941C136.225 88.0772 136.502 87.8976 136.785 87.7219C137.312 87.3949 138 87.3358 138.583 87.1525C140.561 86.5309 142.594 86.0716 144.631 85.6944C146.464 85.3549 148.44 85.0298 150.227 84.5001C150.818 84.3251 149.562 83.6119 149.255 83.3753C148.219 82.576 147.598 81.0071 146.999 79.8966C145.387 76.9112 144.021 73.9066 142.131 71.0715C140.297 68.3201 138.227 65.7738 135.702 63.6211C135.065 63.078 133.315 61.4761 132.285 61.7533C131.51 61.962 132.086 62.4598 132.334 63.0518C132.841 64.2595 133.755 65.3979 134.459 66.4957C135.851 68.666 137.052 70.9533 138.271 73.2239C139.525 75.5614 140.735 77.7447 142.569 79.6675C144.184 81.3612 145.614 83.2189 147.006 85.0973C148.435 87.0274 150.104 88.9101 151.283 90.9992C151.604 91.5685 151.972 92.1157 152.324 92.6656C152.457 92.8721 152.517 93.2194 152.692 93.3947C152.833 93.5352 155.581 89.9216 155.754 89.6938C158.423 86.1945 161.696 83.3697 164.948 80.4174C166.69 78.8355 168.598 77.4068 170.426 75.925C172.071 74.5914 173.735 73.2697 175.502 72.0991C177 71.1064 178.591 70.2641 180.168 69.405C181.195 68.8452 182.132 68.1009 183.195 67.6067C184.421 67.0364 185.879 66.5973 187 65.85" stroke="white" strokeLinecap="round" />
    <path d="M56.6421 56.8374C56.5411 55.3733 55.6326 54.0875 54.2863 53.5032L43.1482 48.6693L31.6609 42.08L23.6918 36.8246L22.1074 35.9192C20.9393 35.2518 19.8654 34.4315 18.9142 33.4803L3.14457 65.7965L13.5485 70.8255L23.032 76.3968L31.6609 83.4638L38.8599 90.6295L43.6095 83.1183L47.8168 74.6867L52.024 66.2551L56.6421 56.8374Z" fill="#50B8E7" />
    <path d="M21.4453 34.9355L59.6549 60.0355C61.7511 61.4125 64.2043 62.1462 66.7124 62.1462V62.1462C67.6502 62.1462 68.5853 62.0435 69.5009 61.8401L70.4739 61.6238C74.6184 60.7028 78.608 59.188 82.3192 57.1262V57.1262C84.1162 56.1278 86.3489 56.3809 87.8769 57.7561L90.1006 59.7573L80.372 63.9872C79.5394 64.3491 78.7824 64.8646 78.1405 65.5065V65.5065C77.2131 66.4339 76.5551 67.5959 76.237 68.8683L73.8566 78.3901L74.8121 75.5236L78.1565 75.5236C78.6842 75.5236 79.112 75.9514 79.112 76.4791V76.4791L79.112 77.4346V77.4346C79.112 78.0464 78.8689 78.6332 78.4363 79.0658L78.3953 79.1068C77.9365 79.5656 77.3141 79.8234 76.6652 79.8234L75.4768 79.8234C75.3527 79.8234 75.229 79.8082 75.1085 79.7781L73.4561 79.365C73.4168 79.3552 73.3788 79.3849 73.3788 79.4253V79.4253C73.3788 80.5615 73.9749 81.6144 74.9492 82.199L75.208 82.3543C75.5783 82.5764 75.9841 82.7333 76.4076 82.818L77.0787 82.9522C77.7902 83.0945 78.5227 83.0945 79.2342 82.9522V82.9522C80.0957 82.7799 80.9033 82.4036 81.5894 81.8548L82.9341 80.779L83.3412 80.3719C84.3253 79.3878 85.0235 78.1547 85.361 76.8044V76.8044C85.6501 75.6479 85.666 74.4399 85.4074 73.2762L84.8452 70.7459L86.4609 73.6542C86.8188 74.2985 87.727 74.3474 88.152 73.7453L92.0959 68.1581C92.2438 67.9485 92.5705 68.1137 92.4894 68.3571V68.3571L91.9701 70.1747C91.8031 70.7591 92.4105 71.2631 92.954 70.9913V70.9913C94.5529 70.1919 96.0866 69.2685 97.5412 68.2295L98.7003 67.4016L96.3115 70.7459L94.2567 71.9201C93.6406 72.2722 93.577 73.1362 94.1351 73.5746L99.6558 77.9124L105.453 82.8175C105.711 83.036 106.062 83.1092 106.386 83.012L110.644 81.7345L115.422 77.9124L110.479 82.5803C109.164 83.8228 110.043 86.0344 111.853 86.0344L117.333 86.0344L106.345 85.5566L107.865 86.6973C109.396 87.845 110.807 89.1434 112.078 90.5731V90.5731L112.969 91.5762C113.646 92.3375 114.219 93.1845 114.675 94.0955V94.0955C115.48 95.7065 115.9 97.4829 115.9 99.284L115.9 99.9697C115.9 100.53 115.677 101.068 115.281 101.464L115.001 101.744C114.103 102.641 112.745 102.894 111.585 102.378L111.047 102.139C109.834 101.599 108.729 100.841 107.79 99.902L103.478 95.5896L95.356 86.5121L100.611 93.6786L108.793 102.291C109.368 102.896 109.689 103.7 109.689 104.535V104.535C109.689 105.524 109.239 106.46 108.466 107.079L108.308 107.205C107.656 107.727 106.845 108.012 106.009 108.012L105.328 108.012C103.838 108.012 102.408 107.419 101.354 106.365L95.8337 100.845L89.6228 93.2008L89.6228 94.6341L91.0561 96.5452L94.8782 100.845L101.006 107.79C101.611 108.475 101.651 109.492 101.103 110.223V110.223C100.789 110.642 100.318 110.915 99.7989 110.98L98.6259 111.126C97.4283 111.276 96.2132 111.068 95.1337 110.528L93.6787 109.801C92.5745 109.249 91.5666 108.522 90.6936 107.649L87.7117 104.667L86.9324 103.999C85.3021 102.602 83.1487 101.975 81.023 102.278V102.278" stroke="white" />
    <path d="M21.2729 91.722C21.5194 91.9412 21.8922 92.0279 22.1755 92.1942C23.0327 92.6973 23.893 93.2343 24.7724 93.694C26.5451 94.6206 28.3152 95.5542 30.0841 96.4714C31.0722 96.9837 32.3032 97.6033 33.3962 97.8462C34.0229 97.9855 34.9891 98.3605 35.6181 98.2906C35.6572 98.2862 34.8868 97.337 34.771 97.2213C34.3797 96.83 34.0626 96.1558 33.8336 95.652C33.2443 94.3555 32.7276 92.432 33.5212 91.1249C33.9415 90.4326 34.5633 90.1533 35.2709 89.8473C36.5897 89.277 38.6032 89.2224 40.0064 89.2224C40.6933 89.2224 41.4028 89.0725 41.9575 89.5418C42.5967 90.0827 42.7699 91.1854 42.7699 91.972C42.7699 93.902 40.292 95.2149 38.5135 94.6591C37.7633 94.4247 36.0756 94.117 35.9028 93.1663C35.6322 91.678 37.6219 90.7102 38.7704 90.125C40.8835 89.0486 42.4435 86.6464 43.8878 84.8411C44.3627 84.2474 44.6334 83.4724 45.082 82.8483C45.5639 82.1779 45.9895 81.4434 46.3943 80.7236C47.339 79.0443 48.4776 77.4847 49.4911 75.8493C50.5709 74.1069 51.5237 72.295 52.6435 70.5723C53.7947 68.8011 54.8397 66.937 55.768 65.0383C56.8608 62.8031 57.9012 60.6208 58.6357 58.2337C59.0675 56.8303 59.4061 54.9214 58.2399 53.7552C57.8426 53.3579 57.3202 53.0993 56.9206 52.6998C56.2653 52.0445 55.737 51.2937 54.9904 50.7278C53.535 49.6248 52.3292 48.6391 50.6299 47.9782C49.3342 47.4743 47.9306 47.3017 46.5888 46.9714C45.3563 46.668 44.1264 46.3489 42.8948 46.041C39.5516 45.2052 36.1851 44.4724 32.8407 43.6316C29.4005 42.7668 26.0173 41.8146 22.6408 40.7292C21.3512 40.3148 20.0955 39.8006 18.7941 39.4239C18.3607 39.2984 17.8462 38.9795 17.3984 38.9795" stroke="white" strokeLinecap="round" />
</svg>
    