<svg width="150" height="150" viewBox="0 0 150 150" fill="none" xmlns="http://www.w3.org/2000/svg">
<path d="M110.542 134.995C86.5248 134.995 61.2862 135.395 37.2689 135.128C37.2689 111.502 36.9975 87.076 35.6406 60.6474C57.6226 60.1135 84.8965 59.8465 112.306 59.5796C110.813 86.0082 109.185 117.642 110.542 134.995Z" fill="#333436"/>
<path d="M50.4327 135.796C45.9549 135.796 41.6128 135.796 37.2707 135.796C36.9993 135.796 36.7279 135.529 36.7279 135.262C36.7279 114.306 36.5922 88.9449 35.0996 60.9145C35.0996 60.7811 35.0996 60.6476 35.2353 60.5141C35.371 60.3806 35.5067 60.3806 35.6424 60.3806C56.2674 59.8467 80.8275 59.5798 107.016 59.4463H112.308C112.444 59.4463 112.579 59.4463 112.715 59.5798C112.851 59.7132 112.851 59.8467 112.851 59.9802C111.494 85.6079 109.865 117.509 111.222 135.128C111.222 135.262 111.222 135.395 111.087 135.529C110.951 135.662 110.815 135.662 110.68 135.662C100.367 135.662 89.7831 135.662 79.3349 135.796C69.7008 135.662 59.9311 135.796 50.4327 135.796ZM37.6777 134.728C51.2469 134.861 65.4944 134.728 79.1992 134.594C89.3761 134.594 99.8243 134.461 110.001 134.461C108.78 116.842 110.408 85.6079 111.629 60.2472H106.88C80.9632 60.5141 56.5388 60.6476 36.0494 61.1815C37.4064 89.0784 37.6777 113.905 37.6777 134.728Z" fill="white"/>
<path d="M123.705 65.4549C88.6969 65.4549 57.2166 66.1223 25.4648 66.1223C40.9336 49.838 57.4879 31.5515 73.2281 15.5342C89.5111 31.1511 105.387 49.571 123.705 65.4549Z" fill="#333436"/>
<path d="M25.4633 66.5224C25.3276 66.5224 25.0562 66.389 25.0562 66.2555C24.9205 66.122 25.0562 65.8551 25.1919 65.7216C31.0266 59.5816 36.997 53.1747 42.9674 46.7677C52.8729 36.0895 63.1854 25.1443 72.9552 15.1335C73.0909 15 73.2265 15 73.3622 15C73.4979 15 73.6336 15 73.7693 15.1335C80.1468 21.14 86.2529 27.5469 92.6304 34.2208C102.672 44.6321 112.984 55.3103 124.246 65.0542C124.382 65.1877 124.518 65.4546 124.382 65.5881C124.246 65.7216 124.111 65.8551 123.839 65.8551C105.928 65.8551 88.831 65.9885 72.2767 66.122C56.1295 66.389 40.9321 66.5224 25.4633 66.5224ZM73.2266 16.2013C63.4568 26.0787 53.4156 37.0238 43.5102 47.4351C37.9469 53.4416 32.1121 59.7151 26.5488 65.4546C41.6105 65.4546 56.4009 65.3211 72.0053 65.1877C88.1526 65.0542 104.843 64.9207 122.211 64.9207C111.356 55.4438 101.315 45.0325 91.5449 34.8882C85.4388 28.3478 79.4683 22.0743 73.2266 16.2013Z" fill="white"/>
<path d="M86.1165 109.636C78.1108 109.636 70.2407 109.503 62.2349 109.503C61.4207 101.494 61.0137 93.6191 61.0137 85.7439C69.2908 85.3435 77.568 85.3435 86.2522 85.7439C86.6593 93.4856 86.5236 101.227 86.1165 109.636Z" fill="#BEE8FF"/>
<path d="M86.1163 110.17L62.2347 110.036C61.9633 110.036 61.6919 109.903 61.6919 109.636C60.7421 100.559 60.4707 92.9512 60.4707 85.8769C60.4707 85.6099 60.7421 85.343 61.0135 85.343C69.2906 84.9426 77.5678 84.9426 86.3877 85.343C86.6591 85.343 86.9305 85.6099 86.9305 85.8769C87.0662 93.3517 87.0662 100.96 86.6591 109.769C86.6591 109.903 86.3877 110.17 86.1163 110.17ZM62.7774 108.969L85.7092 109.102C85.9806 100.693 86.1163 93.4851 85.9806 86.2773C77.5678 85.8769 69.562 85.8769 61.6919 86.2773C61.5562 93.0847 61.9633 100.293 62.7774 108.969Z" fill="white"/>
<path d="M77.704 44.3647C74.9902 42.6295 70.7838 43.4304 68.8841 46.0999C66.9845 48.7695 67.7986 52.9073 70.3767 54.9095C72.9549 56.9116 77.1613 56.2442 79.1967 53.5747C81.232 50.9051 80.9606 46.3669 77.704 44.3647Z" fill="#333436"/>
<path d="M74.1744 56.377C72.8175 56.377 71.4606 55.9765 70.2394 55.1757C67.3899 53.04 66.5757 48.6352 68.6111 45.6987C70.6465 42.7622 75.1243 41.8279 78.1095 43.83C79.7378 44.8979 80.6876 46.4996 81.0947 48.3683C81.5018 50.237 80.959 52.2392 79.8735 53.7074C78.5166 55.4426 76.3455 56.377 74.1744 56.377ZM74.4458 43.83C72.5461 43.83 70.5108 44.7644 69.4252 46.3661C67.6613 48.9022 68.3397 52.6396 70.9178 54.5083C73.3603 56.2435 77.2953 55.7096 79.0593 53.307C80.0091 52.1057 80.4162 50.3705 80.1448 48.6353C79.8735 47.0335 78.9236 45.6987 77.7024 44.7644C76.6169 44.097 75.5314 43.83 74.4458 43.83Z" fill="white"/>
<path d="M61.6943 93.4846C61.5586 93.4846 61.5586 93.3511 61.5586 93.3511C61.5586 93.2176 61.6943 93.2176 61.6943 93.2176C69.8357 93.0842 78.1129 92.9507 86.2544 92.8172C86.3901 92.8172 86.3901 92.9507 86.3901 92.9507C86.3901 93.0842 86.2544 93.0842 86.2544 93.0842C78.1129 93.0842 69.8357 93.2176 61.6943 93.4846Z" fill="#333436"/>
<path d="M73.6298 109.504C73.4941 109.504 73.4941 109.37 73.4941 109.37L73.9012 93.3531C73.9012 93.2197 74.0369 93.2197 74.0369 93.2197C74.1726 93.2197 74.1726 93.3531 74.1726 93.3531L73.7655 109.37C73.9012 109.37 73.7655 109.504 73.6298 109.504Z" fill="#333436"/>
<path d="M74.8551 56.3769C74.7194 56.3769 74.7194 56.2435 74.7194 56.2435C74.5837 52.1056 74.1766 47.9678 73.7695 43.83C73.7695 43.6965 73.7695 43.6965 73.9052 43.6965C74.0409 43.6965 74.0409 43.6965 74.0409 43.83C74.448 47.9678 74.8551 52.1056 74.9907 56.2435C74.9907 56.3769 74.8551 56.3769 74.8551 56.3769Z" fill="white"/>
<path d="M68.204 49.8362C68.0684 49.8362 68.0684 49.7027 68.0684 49.7027C68.0684 49.5692 68.0684 49.5692 68.204 49.5692L80.5519 48.7684C80.6876 48.7684 80.6876 48.7684 80.6876 48.9019C80.6876 49.0353 80.6876 49.0353 80.5519 49.0353L68.204 49.8362Z" fill="white"/>
<path d="M37.9451 130.324C37.6737 130.324 37.4023 130.057 37.4023 129.79C37.4023 129.523 37.6737 129.256 37.9451 129.256L109.726 128.455C109.997 128.455 110.268 128.722 110.268 128.989C110.268 129.256 109.997 129.523 109.726 129.523L37.9451 130.324Z" fill="white"/>
</svg>
