<svg width="257" height="257" viewBox="0 0 257 257" fill="none" xmlns="http://www.w3.org/2000/svg">
    <g filter="url(#filter0_d_37_9)">
    <path d="M184.776 19.7212C201.304 28.6726 212.918 47.1821 222.298 67.0571C231.53 86.9321 238.379 108.173 240.464 132.144C242.399 156.115 239.421 182.969 226.169 203.299C212.918 223.781 189.392 237.588 166.313 236.981C143.234 236.222 120.899 221.05 96.6289 213.313C72.5076 205.424 46.5995 204.968 38.1123 191.162C29.7741 177.356 38.8568 150.198 34.8366 124.71C30.6675 99.2213 13.2465 75.4016 16.3734 57.9541C19.5002 40.6583 43.3238 29.8863 64.9138 23.3625C86.5039 16.8386 106.009 14.4111 126.408 12.894C146.807 11.3768 168.248 10.7699 184.776 19.7212Z" fill="white"/>
    </g>
    <path d="M114.08 178.46C113.88 178.233 113.647 178.033 113.38 177.86C113.113 177.673 112.813 177.513 112.48 177.38C112.147 177.247 111.787 177.14 111.4 177.06C111.027 176.98 110.627 176.94 110.2 176.94C108.96 176.94 108.047 177.18 107.46 177.66C106.887 178.127 106.6 178.767 106.6 179.58C106.6 180.14 106.733 180.58 107 180.9C107.28 181.22 107.713 181.48 108.3 181.68C108.887 181.88 109.633 182.087 110.54 182.3C111.553 182.513 112.427 182.767 113.16 183.06C113.893 183.353 114.46 183.753 114.86 184.26C115.26 184.753 115.46 185.427 115.46 186.28C115.46 186.933 115.333 187.5 115.08 187.98C114.827 188.46 114.473 188.86 114.02 189.18C113.567 189.5 113.027 189.74 112.4 189.9C111.773 190.047 111.087 190.12 110.34 190.12C109.607 190.12 108.9 190.047 108.22 189.9C107.553 189.74 106.92 189.513 106.32 189.22C105.72 188.913 105.16 188.527 104.64 188.06L105.34 186.92C105.593 187.187 105.893 187.44 106.24 187.68C106.6 187.907 106.993 188.113 107.42 188.3C107.86 188.487 108.327 188.633 108.82 188.74C109.327 188.833 109.847 188.88 110.38 188.88C111.513 188.88 112.393 188.673 113.02 188.26C113.66 187.847 113.98 187.233 113.98 186.42C113.98 185.833 113.82 185.367 113.5 185.02C113.18 184.66 112.7 184.367 112.06 184.14C111.42 183.913 110.633 183.693 109.7 183.48C108.713 183.253 107.88 183 107.2 182.72C106.52 182.44 106.007 182.073 105.66 181.62C105.327 181.153 105.16 180.54 105.16 179.78C105.16 178.9 105.373 178.16 105.8 177.56C106.24 176.947 106.84 176.487 107.6 176.18C108.36 175.86 109.233 175.7 110.22 175.7C110.847 175.7 111.427 175.767 111.96 175.9C112.507 176.02 113.007 176.2 113.46 176.44C113.927 176.68 114.36 176.98 114.76 177.34L114.08 178.46ZM122.968 190.2C122.102 190.2 121.322 189.973 120.628 189.52C119.948 189.067 119.408 188.507 119.008 187.84V194.26H117.648V179.58H118.868V181.6C119.282 180.947 119.835 180.42 120.528 180.02C121.222 179.607 121.962 179.4 122.748 179.4C123.468 179.4 124.128 179.553 124.728 179.86C125.328 180.153 125.848 180.553 126.288 181.06C126.728 181.567 127.068 182.147 127.308 182.8C127.562 183.44 127.688 184.107 127.688 184.8C127.688 185.773 127.488 186.673 127.088 187.5C126.702 188.313 126.155 188.967 125.448 189.46C124.742 189.953 123.915 190.2 122.968 190.2ZM122.588 189C123.162 189 123.675 188.887 124.128 188.66C124.582 188.42 124.968 188.1 125.288 187.7C125.622 187.3 125.875 186.853 126.048 186.36C126.222 185.853 126.308 185.333 126.308 184.8C126.308 184.24 126.208 183.707 126.008 183.2C125.822 182.693 125.548 182.247 125.188 181.86C124.828 181.473 124.415 181.167 123.948 180.94C123.482 180.713 122.975 180.6 122.428 180.6C122.082 180.6 121.722 180.667 121.348 180.8C120.975 180.933 120.615 181.127 120.268 181.38C119.935 181.62 119.655 181.893 119.428 182.2C119.202 182.507 119.062 182.833 119.008 183.18V186.38C119.222 186.873 119.508 187.32 119.868 187.72C120.228 188.107 120.642 188.42 121.108 188.66C121.588 188.887 122.082 189 122.588 189ZM134.432 190.2C133.686 190.2 132.992 190.06 132.352 189.78C131.726 189.487 131.179 189.093 130.712 188.6C130.259 188.093 129.906 187.52 129.652 186.88C129.399 186.227 129.272 185.54 129.272 184.82C129.272 184.073 129.399 183.38 129.652 182.74C129.906 182.087 130.266 181.513 130.732 181.02C131.199 180.513 131.746 180.12 132.372 179.84C133.012 179.547 133.706 179.4 134.452 179.4C135.199 179.4 135.886 179.547 136.512 179.84C137.139 180.12 137.686 180.513 138.152 181.02C138.619 181.513 138.979 182.087 139.232 182.74C139.486 183.38 139.612 184.073 139.612 184.82C139.612 185.54 139.486 186.227 139.232 186.88C138.979 187.52 138.619 188.093 138.152 188.6C137.699 189.093 137.152 189.487 136.512 189.78C135.886 190.06 135.192 190.2 134.432 190.2ZM130.652 184.84C130.652 185.613 130.819 186.32 131.152 186.96C131.499 187.587 131.959 188.087 132.532 188.46C133.106 188.82 133.739 189 134.432 189C135.126 189 135.759 188.813 136.332 188.44C136.906 188.067 137.366 187.56 137.712 186.92C138.059 186.267 138.232 185.56 138.232 184.8C138.232 184.027 138.059 183.32 137.712 182.68C137.366 182.04 136.906 181.533 136.332 181.16C135.759 180.787 135.126 180.6 134.432 180.6C133.739 180.6 133.106 180.793 132.532 181.18C131.972 181.567 131.519 182.08 131.172 182.72C130.826 183.347 130.652 184.053 130.652 184.84ZM147.087 180.78C146.18 180.807 145.38 181.06 144.687 181.54C144.007 182.02 143.527 182.68 143.247 183.52V190H141.887V179.58H143.167V182.08C143.527 181.347 144 180.753 144.587 180.3C145.187 179.847 145.82 179.593 146.487 179.54C146.62 179.527 146.733 179.52 146.827 179.52C146.933 179.52 147.02 179.527 147.087 179.54V180.78ZM153.898 189.5C153.792 189.54 153.625 189.613 153.398 189.72C153.172 189.827 152.898 189.92 152.578 190C152.258 190.08 151.912 190.12 151.538 190.12C151.152 190.12 150.785 190.047 150.438 189.9C150.105 189.753 149.838 189.533 149.638 189.24C149.438 188.933 149.338 188.56 149.338 188.12V180.66H147.898V179.58H149.338V176.06H150.698V179.58H153.098V180.66H150.698V187.74C150.725 188.113 150.858 188.393 151.098 188.58C151.352 188.767 151.638 188.86 151.958 188.86C152.332 188.86 152.672 188.8 152.978 188.68C153.285 188.547 153.472 188.453 153.538 188.4L153.898 189.5Z" fill="black"/>
    <path d="M90.5 97.9991C99.3333 90.3325 127.4 78.1991 169 90.9991M110.5 125.499C111.667 127.166 115.8 130.699 123 131.499M139.5 131.499C142.833 130.999 150.4 128.699 154 123.499" stroke="black" strokeWidth="2"/>
    <path d="M169 97C169 119.115 151.516 137 130 137C108.484 137 91 119.115 91 97C91 74.8852 108.484 57 130 57C151.516 57 169 74.8852 169 97Z" stroke="black" strokeWidth="2"/>
    <path d="M140.5 58.5C143.667 73.5 145.8 110.2 129 137" stroke="black" strokeWidth="2"/>
    <path d="M101 69C110.833 74.5 124.6 93.2 101 124" stroke="black" strokeWidth="2"/>
    <path d="M164.999 78C159.832 83.1667 152.599 97.9 164.999 115.5" stroke="black" strokeWidth="2"/>
    <defs>
    <filter id="filter0_d_37_9" x="0" y="0" width="257" height="257" filterUnits="userSpaceOnUse" color-interpolation-filters="sRGB">
    <feFlood flood-opacity="0" result="BackgroundImageFix"/>
    <feColorMatrix in="SourceAlpha" type="matrix" values="0 0 0 0 0 0 0 0 0 0 0 0 0 0 0 0 0 0 127 0" result="hardAlpha"/>
    <feOffset dy="4"/>
    <feGaussianBlur stdDeviation="8"/>
    <feComposite in2="hardAlpha" operator="out"/>
    <feColorMatrix type="matrix" values="0 0 0 0 0.591667 0 0 0 0 0.591667 0 0 0 0 0.591667 0 0 0 0.25 0"/>
    <feBlend mode="normal" in2="BackgroundImageFix" result="effect1_dropShadow_37_9"/>
    <feBlend mode="normal" in="SourceGraphic" in2="effect1_dropShadow_37_9" result="shape"/>
    </filter>
    </defs>
    </svg>
    