<svg xmlns="http://www.w3.org/2000/svg" width="70" height="72" viewBox="0 0 70 72" fill="none">
    <path d="M69.3083 35.7768C69.3083 55.2713 53.8935 71.0536 34.9042 71.0536C15.9148 71.0536 0.5 55.2713 0.5 35.7768C0.5 16.2822 15.9148 0.5 34.9042 0.5C53.8935 0.5 69.3083 16.2822 69.3083 35.7768Z" fill="white" stroke="black"/>
    <path d="M25.3058 31.2957C25.3058 44.3928 16.0435 59.3371 10.4713 59.3371C4.89918 59.3371 16.0576 40.9434 16.0576 27.8464C16.0576 14.7493 5.33576 10.9076 10.9079 10.9076C16.4801 10.9076 25.3058 18.1987 25.3058 31.2957Z" fill="#84CDEE"/>
    <path d="M54.9746 33.5953C54.9746 46.6923 58.5647 52.7934 64.1368 52.7934C69.709 52.7934 63.2643 46.6923 63.2643 33.5953C63.2643 20.4982 67.9636 18.3247 62.3914 18.3247C59.3376 20.9425 54.9746 20.4982 54.9746 33.5953Z" fill="#84CDEE"/>
    <path d="M44.0667 2.18152C46.8299 15.2706 48.6915 47.2952 34.0317 70.681" stroke="black"/>
    <path d="M9.59863 11.3439C18.1792 16.1432 30.1921 32.4609 9.59863 59.3371" stroke="black"/>
    <path d="M65.4447 19.1973C60.9362 23.7057 54.6244 36.5621 65.4447 51.9199" stroke="black"/>
    <path d="M0.436523 36.6486C8.14453 29.9587 32.6356 19.3711 68.936 30.5404M17.8886 60.6452C18.9066 62.0995 22.5134 65.1827 28.7962 65.8808M43.1941 65.8808C46.1028 65.4445 52.7055 63.4375 55.8469 58.9" stroke="black"/>
    </svg>