<svg id="Group_47" data-name="Group 47" xmlns="http://www.w3.org/2000/svg" xmlns:xlink="http://www.w3.org/1999/xlink" width="300" viewBox="0 0 468.63 75.238">
  <defs>
    <clipPath id="clipPath">
      <rect id="Rectangle_25" data-name="Rectangle 25" width="70.98" height="70.98" fill="none"/>
    </clipPath>
  </defs>
  <g id="Group_37" data-name="Group 37" transform="translate(0 4.259)">
    <g id="Group_36" data-name="Group 36" clipPath="url(#clipPath)">
      <g id="Group_35" data-name="Group 35" transform="translate(0 1.578)">
        <path id="Path_57" data-name="Path 57" d="M70.821,28.076a3.223,3.223,0,0,0-2.6-2.2L47.6,22.884,38.384,4.2a3.226,3.226,0,0,0-5.786,0l-9.22,18.681L2.764,25.879a3.226,3.226,0,0,0-1.789,5.5L15.892,45.922,12.368,66.455a3.226,3.226,0,0,0,4.682,3.4l18.441-9.694,18.438,9.694a3.273,3.273,0,0,0,1.51.371,3.224,3.224,0,0,0,3.141-3.949l-3.49-20.358L70.006,31.384A3.226,3.226,0,0,0,70.821,28.076Z" transform="translate(0 -2.405)" fill="#F2C94C"/>
      </g>
    </g>
  </g>
  <g id="Group_40" data-name="Group 40" transform="translate(198.743 1.42)">
    <g id="Group_39" data-name="Group 39" clipPath="url(#clipPath)">
      <g id="Group_38" data-name="Group 38" transform="translate(0.001 1.578)">
        <path id="Path_58" data-name="Path 58" d="M152.708,26.906a3.23,3.23,0,0,0-2.6-2.2l-20.615-2.995L120.271,3.033a3.228,3.228,0,0,0-5.789,0l-9.218,18.681L84.649,24.709a3.228,3.228,0,0,0-1.789,5.5L97.779,44.752,94.255,65.287a3.226,3.226,0,0,0,4.682,3.4l18.438-9.694,18.441,9.694a3.266,3.266,0,0,0,1.51.371,3.224,3.224,0,0,0,3.141-3.949l-3.493-20.356,14.917-14.54A3.227,3.227,0,0,0,152.708,26.906Z" transform="translate(-81.887 -1.235)" fill="#F2C94C"/>
      </g>
    </g>
  </g>
  <g id="Group_43" data-name="Group 43" transform="translate(99.372 2.839)">
    <g id="Group_42" data-name="Group 42" clipPath="url(#clipPath)">
      <g id="Group_41" data-name="Group 41" transform="translate(0 1.578)">
        <path id="Path_59" data-name="Path 59" d="M111.766,27.491a3.233,3.233,0,0,0-2.607-2.2L88.546,22.3,79.326,3.618a3.226,3.226,0,0,0-5.786,0L64.322,22.3,43.707,25.294a3.228,3.228,0,0,0-1.789,5.5L56.834,45.337,53.313,65.872a3.226,3.226,0,0,0,4.682,3.4l18.438-9.694,18.438,9.694a3.273,3.273,0,0,0,1.51.371A3.234,3.234,0,0,0,99.524,65.7L96.031,45.337,110.948,30.8A3.227,3.227,0,0,0,111.766,27.491Z" transform="translate(-40.944 -1.82)" fill="#F2C94C"/>
      </g>
    </g>
  </g>
  <g id="Group_46" data-name="Group 46" transform="translate(298.115)">
    <g id="Group_45" data-name="Group 45" clipPath="url(#clipPath)">
      <g id="Group_44" data-name="Group 44" transform="translate(0 1.578)">
        <path id="Path_60" data-name="Path 60" d="M193.651,26.321a3.22,3.22,0,0,0-2.6-2.194l-20.613-2.995-9.22-18.681a3.224,3.224,0,0,0-5.786,0l-9.22,18.681-20.613,2.995a3.224,3.224,0,0,0-1.789,5.5l14.917,14.54L135.2,64.7a3.227,3.227,0,0,0,4.684,3.4l18.438-9.694L176.759,68.1a3.273,3.273,0,0,0,1.51.371,3.227,3.227,0,0,0,3.223-3.226,3.328,3.328,0,0,0-.08-.721l-3.493-20.358,14.917-14.54A3.225,3.225,0,0,0,193.651,26.321Z" transform="translate(-122.83 -0.65)" fill="#F2C94C"/>
      </g>
    </g>
  </g>
  <path id="Path_61" data-name="Path 61" d="M234.6,25.671a3.233,3.233,0,0,0-2.607-2.2l-20.613-2.995L202.156,1.8a3.226,3.226,0,0,0-5.786,0l-9.218,18.681-20.615,2.995a3.228,3.228,0,0,0-1.789,5.5l14.917,14.538L176.143,64.05a3.226,3.226,0,0,0,4.682,3.4l18.438-9.694L217.7,67.453a3.276,3.276,0,0,0,1.512.371,3.234,3.234,0,0,0,3.141-3.949l-3.493-20.358,14.917-14.538A3.227,3.227,0,0,0,234.6,25.671Z" transform="translate(233.713)" fill="#F2C94C"/>
  <path id="Path_62" data-name="Path 62" d="M197.565,10.486l-9.225-1.42,1.42,15.616,7.1-6.388a15.637,15.637,0,0,0,2.84-3.548C200.4,11.906,198.638,11.039,197.565,10.486Z" transform="translate(268.771 12.938)" fill="#e7e7e7"/>
</svg>
