<svg xmlns="http://www.w3.org/2000/svg" width="132.447" height="105.775" viewBox="0 0 132.447 105.775">
    <g id="Group_184" data-name="Group 184" transform="translate(0 2.175)">
      <g id="Group_171" data-name="Group 171" transform="translate(0 0)">
        <g id="Group_139" data-name="Group 139" transform="translate(0 7.333)">
          <rect id="Rectangle_114" data-name="Rectangle 114" width="109.82" height="76.029" transform="translate(110.517 76.727) rotate(180)" fill="#fff"/>
          <path id="Path_127" data-name="Path 127" d="M1240.192,131.536H1130.371a.7.7,0,0,1-.7-.7V54.809a.7.7,0,0,1,.7-.7h109.821a.7.7,0,0,1,.7.7v76.029A.7.7,0,0,1,1240.192,131.536Zm-109.122-1.4h108.424V55.507H1131.07Z" transform="translate(-1129.674 -54.111)"/>
        </g>
        <g id="Group_140" data-name="Group 140" transform="translate(0 4.094)">
          <rect id="Rectangle_115" data-name="Rectangle 115" width="109.82" height="10.032" transform="translate(110.517 10.729) rotate(180)" fill="#acd4f7"/>
          <path id="Path_128" data-name="Path 128" d="M1240.192,61.5H1130.371a.7.7,0,0,1-.7-.7V50.772a.7.7,0,0,1,.7-.7h109.821a.7.7,0,0,1,.7.7V60.8A.7.7,0,0,1,1240.192,61.5Zm-109.122-1.4h108.424V51.47H1131.07Z" transform="translate(-1129.674 -50.074)"/>
        </g>
        <g id="Group_141" data-name="Group 141" transform="translate(11.736 24.496)">
          <rect id="Rectangle_116" data-name="Rectangle 116" width="13.958" height="9.305" transform="translate(0.698 0.698)" fill="#fff"/>
          <path id="Path_129" data-name="Path 129" d="M1158.96,86.208H1145a.7.7,0,0,1-.7-.7V76.2a.7.7,0,0,1,.7-.7h13.958a.7.7,0,0,1,.7.7V85.51A.7.7,0,0,1,1158.96,86.208Zm-13.26-1.4h12.562V76.9H1145.7Z" transform="translate(-1144.304 -75.507)"/>
        </g>
        <g id="Group_142" data-name="Group 142" transform="translate(35.866 24.496)">
          <rect id="Rectangle_117" data-name="Rectangle 117" width="13.958" height="9.305" transform="translate(0.698 0.698)" fill="#fff"/>
          <path id="Path_130" data-name="Path 130" d="M1189.041,86.208h-13.959a.7.7,0,0,1-.7-.7V76.2a.7.7,0,0,1,.7-.7h13.959a.7.7,0,0,1,.7.7V85.51A.7.7,0,0,1,1189.041,86.208Zm-13.26-1.4h12.561V76.9h-12.561Z" transform="translate(-1174.385 -75.507)"/>
        </g>
        <g id="Group_143" data-name="Group 143" transform="translate(59.995 24.496)">
          <rect id="Rectangle_118" data-name="Rectangle 118" width="13.958" height="9.305" transform="translate(0.698 0.698)" fill="#fff"/>
          <path id="Path_131" data-name="Path 131" d="M1219.121,86.208h-13.958a.7.7,0,0,1-.7-.7V76.2a.7.7,0,0,1,.7-.7h13.958a.7.7,0,0,1,.7.7V85.51A.7.7,0,0,1,1219.121,86.208Zm-13.26-1.4h12.562V76.9h-12.562Z" transform="translate(-1204.465 -75.507)"/>
        </g>
        <g id="Group_144" data-name="Group 144" transform="translate(84.125 24.496)">
          <rect id="Rectangle_119" data-name="Rectangle 119" width="13.958" height="9.305" transform="translate(0.698 0.698)" fill="#fff"/>
          <path id="Path_132" data-name="Path 132" d="M1249.2,86.208h-13.958a.7.7,0,0,1-.7-.7V76.2a.7.7,0,0,1,.7-.7H1249.2a.7.7,0,0,1,.7.7V85.51A.7.7,0,0,1,1249.2,86.208Zm-13.26-1.4H1248.5V76.9h-12.562Z" transform="translate(-1234.545 -75.507)"/>
        </g>
        <g id="Group_145" data-name="Group 145" transform="translate(11.736 45.347)">
          <rect id="Rectangle_120" data-name="Rectangle 120" width="13.958" height="9.305" transform="translate(0.698 0.698)" fill="#fff"/>
          <path id="Path_133" data-name="Path 133" d="M1158.96,112.2H1145a.7.7,0,0,1-.7-.7V102.2a.7.7,0,0,1,.7-.7h13.958a.7.7,0,0,1,.7.7V111.5A.7.7,0,0,1,1158.96,112.2Zm-13.26-1.4h12.562V102.9H1145.7Z" transform="translate(-1144.304 -101.5)"/>
        </g>
        <g id="Group_146" data-name="Group 146" transform="translate(35.866 45.347)">
          <rect id="Rectangle_121" data-name="Rectangle 121" width="13.958" height="9.305" transform="translate(0.698 0.698)" fill="#fff"/>
          <path id="Path_134" data-name="Path 134" d="M1189.041,112.2h-13.959a.7.7,0,0,1-.7-.7V102.2a.7.7,0,0,1,.7-.7h13.959a.7.7,0,0,1,.7.7V111.5A.7.7,0,0,1,1189.041,112.2Zm-13.26-1.4h12.561V102.9h-12.561Z" transform="translate(-1174.385 -101.5)"/>
        </g>
        <g id="Group_147" data-name="Group 147" transform="translate(59.995 45.347)">
          <rect id="Rectangle_122" data-name="Rectangle 122" width="13.958" height="9.305" transform="translate(0.698 0.698)" fill="#fff"/>
          <path id="Path_135" data-name="Path 135" d="M1219.121,112.2h-13.958a.7.7,0,0,1-.7-.7V102.2a.7.7,0,0,1,.7-.7h13.958a.7.7,0,0,1,.7.7V111.5A.7.7,0,0,1,1219.121,112.2Zm-13.26-1.4h12.562V102.9h-12.562Z" transform="translate(-1204.465 -101.5)"/>
        </g>
        <g id="Group_148" data-name="Group 148" transform="translate(84.125 45.347)">
          <rect id="Rectangle_123" data-name="Rectangle 123" width="13.958" height="9.305" transform="translate(0.698 0.698)" fill="#fff"/>
          <path id="Path_136" data-name="Path 136" d="M1249.2,112.2h-13.958a.7.7,0,0,1-.7-.7V102.2a.7.7,0,0,1,.7-.7H1249.2a.7.7,0,0,1,.7.7V111.5A.7.7,0,0,1,1249.2,112.2Zm-13.26-1.4H1248.5V102.9h-12.562Z" transform="translate(-1234.545 -101.5)"/>
        </g>
        <g id="Group_149" data-name="Group 149" transform="translate(11.736 64.024)">
          <rect id="Rectangle_124" data-name="Rectangle 124" width="13.958" height="9.305" transform="translate(0.698 0.698)" fill="#fff"/>
          <path id="Path_137" data-name="Path 137" d="M1158.96,135.485H1145a.7.7,0,0,1-.7-.7v-9.305a.7.7,0,0,1,.7-.7h13.958a.7.7,0,0,1,.7.7v9.305A.7.7,0,0,1,1158.96,135.485Zm-13.26-1.4h12.562V126.18H1145.7Z" transform="translate(-1144.304 -124.784)"/>
        </g>
        <g id="Group_150" data-name="Group 150" transform="translate(35.866 64.024)">
          <rect id="Rectangle_125" data-name="Rectangle 125" width="13.958" height="9.305" transform="translate(0.698 0.698)" fill="#fff"/>
          <path id="Path_138" data-name="Path 138" d="M1189.041,135.485h-13.959a.7.7,0,0,1-.7-.7v-9.305a.7.7,0,0,1,.7-.7h13.959a.7.7,0,0,1,.7.7v9.305A.7.7,0,0,1,1189.041,135.485Zm-13.26-1.4h12.561V126.18h-12.561Z" transform="translate(-1174.385 -124.784)"/>
        </g>
        <g id="Group_151" data-name="Group 151" transform="translate(59.995 64.024)">
          <rect id="Rectangle_126" data-name="Rectangle 126" width="13.958" height="9.305" transform="translate(0.698 0.698)" fill="#fff"/>
          <path id="Path_139" data-name="Path 139" d="M1219.121,135.485h-13.958a.7.7,0,0,1-.7-.7v-9.305a.7.7,0,0,1,.7-.7h13.958a.7.7,0,0,1,.7.7v9.305A.7.7,0,0,1,1219.121,135.485Zm-13.26-1.4h12.562V126.18h-12.562Z" transform="translate(-1204.465 -124.784)"/>
        </g>
        <g id="Group_152" data-name="Group 152" transform="translate(84.125 64.024)">
          <rect id="Rectangle_127" data-name="Rectangle 127" width="13.958" height="9.305" transform="translate(0.698 0.698)" fill="#fff"/>
          <path id="Path_140" data-name="Path 140" d="M1249.2,135.485h-13.958a.7.7,0,0,1-.7-.7v-9.305a.7.7,0,0,1,.7-.7H1249.2a.7.7,0,0,1,.7.7v9.305A.7.7,0,0,1,1249.2,135.485Zm-13.26-1.4H1248.5V126.18h-12.562Z" transform="translate(-1234.545 -124.784)"/>
        </g>
        <g id="Group_155" data-name="Group 155" transform="translate(33.74)">
          <g id="Group_153" data-name="Group 153" transform="translate(42.339)">
            <path id="Path_141" data-name="Path 141" d="M1225.213,55.475a.7.7,0,0,1-.7-.7V45.668a.7.7,0,1,1,1.4,0v9.109A.7.7,0,0,1,1225.213,55.475Z" transform="translate(-1224.515 -44.97)"/>
          </g>
          <g id="Group_154" data-name="Group 154">
            <path id="Path_142" data-name="Path 142" d="M1172.433,55.475a.7.7,0,0,1-.7-.7V45.668a.7.7,0,1,1,1.4,0v9.109A.7.7,0,0,1,1172.433,55.475Z" transform="translate(-1171.735 -44.97)"/>
          </g>
        </g>
        <g id="Group_156" data-name="Group 156" transform="translate(37.835 26.222)">
          <path id="Path_143" data-name="Path 143" d="M1177.072,80.223a.232.232,0,0,1-.169-.391c.685-.728,1.41-1.439,2.155-2.113a.233.233,0,0,1,.312.346c-.736.665-1.453,1.367-2.128,2.086A.233.233,0,0,1,1177.072,80.223Z" transform="translate(-1176.839 -77.658)"/>
        </g>
        <g id="Group_157" data-name="Group 157" transform="translate(47.364 30.96)">
          <path id="Path_144" data-name="Path 144" d="M1188.951,85.554a.233.233,0,0,1-.165-.4l1.517-1.523a.233.233,0,0,1,.33.328l-1.517,1.523A.231.231,0,0,1,1188.951,85.554Z" transform="translate(-1188.718 -83.565)"/>
        </g>
        <g id="Group_158" data-name="Group 158" transform="translate(13.807 47.343)">
          <path id="Path_145" data-name="Path 145" d="M1147.12,105.674a.233.233,0,0,1-.173-.389c.38-.42.783-.834,1.2-1.232a.233.233,0,0,1,.322.336c-.407.391-.8.8-1.174,1.209A.233.233,0,0,1,1147.12,105.674Z" transform="translate(-1146.886 -103.988)"/>
        </g>
        <g id="Group_159" data-name="Group 159" transform="translate(13.861 47.261)">
          <path id="Path_146" data-name="Path 146" d="M1147.186,109.015a.232.232,0,0,1-.177-.383c1.371-1.6,2.816-3.173,4.295-4.676a.232.232,0,1,1,.331.326c-1.471,1.5-2.909,3.061-4.272,4.653A.233.233,0,0,1,1147.186,109.015Z" transform="translate(-1146.953 -103.886)"/>
        </g>
        <g id="Group_160" data-name="Group 160" transform="translate(16.251 47.29)">
          <path id="Path_147" data-name="Path 147" d="M1150.166,110.732a.237.237,0,0,1-.146-.051.233.233,0,0,1-.036-.327c1.745-2.18,3.588-4.319,5.48-6.356a.232.232,0,1,1,.34.316c-1.883,2.029-3.72,4.159-5.457,6.331A.23.23,0,0,1,1150.166,110.732Z" transform="translate(-1149.932 -103.923)"/>
        </g>
        <g id="Group_161" data-name="Group 161" transform="translate(19.864 48.427)">
          <path id="Path_148" data-name="Path 148" d="M1154.669,110.9a.232.232,0,0,1-.178-.382c1.431-1.706,2.887-3.42,4.327-5.1a.233.233,0,0,1,.353.3c-1.438,1.674-2.893,3.388-4.324,5.092A.231.231,0,0,1,1154.669,110.9Z" transform="translate(-1154.436 -105.34)"/>
        </g>
        <g id="Group_162" data-name="Group 162" transform="translate(23.375 52.207)">
          <path id="Path_149" data-name="Path 149" d="M1159.046,111.869a.232.232,0,0,1-.192-.363c.322-.472.669-.933,1.033-1.37a.233.233,0,1,1,.358.3c-.355.425-.693.874-1.007,1.333A.231.231,0,0,1,1159.046,111.869Z" transform="translate(-1158.814 -110.052)"/>
        </g>
        <g id="Group_163" data-name="Group 163" transform="translate(38.015 26.433)">
          <path id="Path_150" data-name="Path 150" d="M1177.3,83.041a.233.233,0,0,1-.152-.409c1.706-1.472,3.366-3.033,4.933-4.64a.233.233,0,1,1,.333.325c-1.576,1.616-3.246,3.187-4.962,4.668A.232.232,0,0,1,1177.3,83.041Z" transform="translate(-1177.064 -77.921)"/>
        </g>
        <g id="Group_164" data-name="Group 164" transform="translate(40.217 26.493)">
          <path id="Path_151" data-name="Path 151" d="M1180.042,84.738a.232.232,0,0,1-.163-.4c2.212-2.147,4.51-4.261,6.832-6.284a.232.232,0,1,1,.3.351c-2.315,2.017-4.608,4.126-6.812,6.267A.231.231,0,0,1,1180.042,84.738Z" transform="translate(-1179.809 -77.997)"/>
        </g>
        <g id="Group_165" data-name="Group 165" transform="translate(43.685 28.271)">
          <path id="Path_152" data-name="Path 152" d="M1184.365,85.234a.232.232,0,0,1-.16-.4c1.609-1.544,3.276-3.079,4.953-4.562a.233.233,0,1,1,.308.349c-1.672,1.478-3.335,3.009-4.94,4.548A.228.228,0,0,1,1184.365,85.234Z" transform="translate(-1184.132 -80.213)"/>
        </g>
        <g id="Group_166" data-name="Group 166" transform="translate(62.046 66.003)">
          <path id="Path_153" data-name="Path 153" d="M1207.255,129.757a.235.235,0,0,1-.147-.052.232.232,0,0,1-.034-.327l1.661-2.042a.233.233,0,0,1,.361.294l-1.661,2.041A.231.231,0,0,1,1207.255,129.757Z" transform="translate(-1207.022 -127.25)"/>
        </g>
        <g id="Group_167" data-name="Group 167" transform="translate(62.165 65.847)">
          <path id="Path_154" data-name="Path 154" d="M1207.4,133.533a.232.232,0,0,1-.189-.367,65.708,65.708,0,0,1,4.815-6.034.233.233,0,1,1,.346.311,65.282,65.282,0,0,0-4.782,5.991A.232.232,0,0,1,1207.4,133.533Z" transform="translate(-1207.17 -127.056)"/>
        </g>
        <g id="Group_168" data-name="Group 168" transform="translate(65.869 67.555)">
          <path id="Path_155" data-name="Path 155" d="M1212.021,134.045a.233.233,0,0,1-.18-.381l3.65-4.393a.232.232,0,1,1,.358.3l-3.649,4.393A.232.232,0,0,1,1212.021,134.045Z" transform="translate(-1211.787 -129.186)"/>
        </g>
        <g id="Group_169" data-name="Group 169" transform="translate(68.918 70.969)">
          <path id="Path_156" data-name="Path 156" d="M1215.822,135.029a.233.233,0,0,1-.187-.371l.834-1.123a.233.233,0,0,1,.374.277l-.834,1.124A.232.232,0,0,1,1215.822,135.029Z" transform="translate(-1215.589 -133.441)"/>
        </g>
        <g id="Group_170" data-name="Group 170" transform="translate(0.697 14.951)" opacity="0.129">
          <rect id="Rectangle_128" data-name="Rectangle 128" width="109.82" height="3.257"/>
        </g>
      </g>
      <g id="Group_183" data-name="Group 183" transform="translate(67.951 41.877)">
        <g id="Group_181" data-name="Group 181" transform="translate(2.773)">
          <g id="Group_172" data-name="Group 172">
            <ellipse id="Ellipse_3" data-name="Ellipse 3" cx="30.164" cy="30.164" rx="30.164" ry="30.164" transform="translate(0.697 0.697)" fill="#fff"/>
            <path id="Path_157" data-name="Path 157" d="M1248.7,158.9a30.862,30.862,0,1,1,30.862-30.862A30.9,30.9,0,0,1,1248.7,158.9Zm0-60.328a29.466,29.466,0,1,0,29.466,29.466A29.5,29.5,0,0,0,1248.7,98.57Z" transform="translate(-1217.839 -97.174)"/>
          </g>
          <g id="Group_175" data-name="Group 175" transform="translate(30.164 4.389)">
            <g id="Group_173" data-name="Group 173">
              <path id="Path_158" data-name="Path 158" d="M1256.14,108.134a.7.7,0,0,1-.7-.7v-4.093a.7.7,0,1,1,1.4,0v4.093A.7.7,0,0,1,1256.14,108.134Z" transform="translate(-1255.442 -102.645)"/>
            </g>
            <g id="Group_174" data-name="Group 174" transform="translate(0 47.456)">
              <path id="Path_159" data-name="Path 159" d="M1256.14,167.294a.7.7,0,0,1-.7-.7V162.5a.7.7,0,1,1,1.4,0V166.6A.7.7,0,0,1,1256.14,167.294Z" transform="translate(-1255.442 -161.805)"/>
            </g>
          </g>
          <g id="Group_178" data-name="Group 178" transform="translate(4.389 30.164)">
            <g id="Group_176" data-name="Group 176" transform="translate(47.456)">
              <path id="Path_160" data-name="Path 160" d="M1287.261,136.173h-4.094a.7.7,0,0,1,0-1.4h4.094a.7.7,0,0,1,0,1.4Z" transform="translate(-1282.47 -134.777)"/>
            </g>
            <g id="Group_177" data-name="Group 177">
              <path id="Path_161" data-name="Path 161" d="M1228.1,136.173h-4.093a.7.7,0,0,1,0-1.4h4.093a.7.7,0,0,1,0,1.4Z" transform="translate(-1223.31 -134.777)"/>
            </g>
          </g>
          <g id="Group_179" data-name="Group 179" transform="translate(30.862 18.28)">
            <path id="Path_162" data-name="Path 162" d="M1257.01,132.544a.7.7,0,0,1-.493-1.191l11.186-11.186a.7.7,0,1,1,.987.987L1257.5,132.339A.7.7,0,0,1,1257.01,132.544Z" transform="translate(-1256.312 -119.962)"/>
          </g>
          <g id="Group_180" data-name="Group 180" transform="translate(26.907 26.907)">
            <ellipse id="Ellipse_4" data-name="Ellipse 4" cx="3.257" cy="3.257" rx="3.257" ry="3.257" transform="translate(0.698 0.698)" fill="#fff"/>
            <path id="Path_163" data-name="Path 163" d="M1255.337,138.626a3.955,3.955,0,1,1,3.955-3.955A3.959,3.959,0,0,1,1255.337,138.626Zm0-6.514a2.559,2.559,0,1,0,2.559,2.559A2.562,2.562,0,0,0,1255.337,132.113Z" transform="translate(-1251.382 -130.717)"/>
          </g>
        </g>
        <g id="Group_182" data-name="Group 182" transform="translate(0 17.167)" opacity="0.129">
          <path id="Path_164" data-name="Path 164" d="M1218.774,127.474c.043-.257.086-.516.132-.772a27.489,27.489,0,0,1,2.593-7.674,1.589,1.589,0,0,0-.491-.453,23.807,23.807,0,0,0-4.183,6.292,30.49,30.49,0,0,0-2,5.7q-.143.635-.268,1.277a20.759,20.759,0,0,0,.51,7.832,11.676,11.676,0,0,0,.984,3.075,1.8,1.8,0,0,0,1.243,1.322,1.732,1.732,0,0,0,1.89-2.612l0-.012.051.065c-.03-.05-.05-.1-.077-.154q-.144-.521-.307-1.038a16.28,16.28,0,0,1-.927-7.394A23.642,23.642,0,0,1,1218.774,127.474Z" transform="translate(-1214.382 -118.575)"/>
        </g>
      </g>
    </g>
    <rect id="Rectangle_201" data-name="Rectangle 201" width="132" height="104" transform="translate(0.241)" fill="none"/>
  </svg>
  