<svg width="50" height="70" viewBox="0 0 50 70" fill="none" xmlns="http://www.w3.org/2000/svg">
<path d="M37.6489 26.9999C17.3308 27.748 23.9232 27.3413 14.1016 26.8474C24.1586 23.4478 26.9397 22.9606 35.8285 25.9872C35.8285 25.9872 39.174 27.1121 37.6489 26.9999Z" fill="#BEE8FF"/>
<path d="M11.6479 61.9999C6.24699 37.8716 9.36819 50.6852 7.78027 38.832C14.0758 50.1031 16.2283 52.8381 14.5809 64.1376C14.5809 64.1376 11.852 63.8483 11.6479 61.9999Z" fill="#BEE8FF"/>
<path d="M39.3286 14.3962C39.3286 15.3302 38.9942 15.6645 38.0602 15.6645C37.1263 15.6645 36.3691 14.9074 36.3691 13.9734C36.3691 13.0394 37.1263 12.7051 38.0602 12.7051C38.9942 12.7051 39.3286 13.4622 39.3286 14.3962Z" fill="white"/>
<path d="M12.6939 14.819C12.6939 15.753 13.0282 16.0874 13.9622 16.0874C14.8962 16.0874 15.6533 15.3302 15.6533 14.3963C15.6533 13.4623 14.8962 13.1279 13.9622 13.1279C13.0282 13.1279 12.6939 13.8851 12.6939 14.819Z" fill="white"/>
<path d="M4.66211 26.236L15.2315 27.0816M15.2315 27.0816C15.2315 17.7789 17.3924 16.2954 25.801 19.8944C28.7604 21.1611 37.3005 9.32333 36.7932 27.0816M15.2315 27.0816C16.0771 41.0316 21.996 32.5774 26.2237 33.4229C32.0866 34.5955 36.5276 36.3786 36.7932 27.0816M15.2315 27.0816H36.7932M36.7932 27.0816L48.6309 25.8117M19.8821 22.8522V32.9989M32.1426 22.4294V31.7305" stroke="white"/>
<path d="M27.9107 47.3706C21.569 44.4115 19.3142 55.6852 19.0324 61.745C18.934 63.8594 18.6096 68.0872 17.3413 68.9327C15.9342 69.8708 9.62903 61.278 8.46294 46.1028C7.19596 29.6144 -0.835321 14.3938 4.65795 6.78451C12.271 -3.76103 19.9451 3.64011 27.9107 2.1338C43.5565 -0.824837 44.863 3.7562 45.6673 4.24769C53.2804 8.89982 46.5129 47.3705 38.9029 61.745C32.8149 73.2445 30.4474 66.5364 30.0246 61.745C30.0246 54.1351 30.0246 48.3569 27.9107 47.3706Z" stroke="white"/>
</svg>
