<svg width="56" height="98" viewBox="0 0 56 70" fill="none" xmlns="http://www.w3.org/2000/svg">
    <path d="M12.2717 63.2651C6.87069 39.1368 9.72024 50.6853 8.13232 38.8322C14.4279 50.1032 16.5803 52.8382 14.9329 64.1377C14.9329 64.1377 12.4758 65.1135 12.2717 63.2651Z" fill="#84CDEE"/>
    <path d="M46.2715 21.4329C40.8706 -2.69534 42.4997 2.49994 43.4999 1.49999C49.4997 6.49997 50.5802 11.0061 48.9328 22.3055C48.9328 22.3055 46.4756 23.2813 46.2715 21.4329Z" fill="#84CDEE"/>
    <path d="M28.2627 47.3706C21.9211 44.4115 19.6663 55.6852 19.3844 61.745C19.2861 63.8594 18.9616 68.0872 17.6933 68.9327C16.2862 69.8708 9.98108 61.278 8.81499 46.1028C7.54801 29.6144 -0.48327 14.3938 5.01 6.78451C12.623 -3.76103 20.2971 3.64011 28.2627 2.1338C43.9085 -0.824837 45.2151 3.7562 46.0194 4.24769C53.6324 8.89982 46.8649 47.3705 39.255 61.745C33.167 73.2445 30.7994 66.5364 30.3766 61.745C30.3766 54.1351 30.3766 48.3569 28.2627 47.3706Z" stroke="black"/>
    <path d="M17.5 9C21 10.3333 29.7 12.2 36.5 9" stroke="black"/>
    </svg>
    