<svg xmlns="http://www.w3.org/2000/svg" viewBox="0 0 97 52" fill="none">
    <path d="M75.7598 40.2672C75.7598 41.231 74.4887 45.9391 72.8019 45.9391C66.6937 45.5028 69.6515 41.231 69.6515 40.2672C69.6515 39.3033 71.0189 38.522 72.7056 38.522C74.3924 38.522 75.7598 39.3033 75.7598 40.2672Z" fill="#84CDEE"/>
    <path d="M31.2568 43.7577C31.2568 44.7215 29.9857 49.4296 28.299 49.4296C22.1907 48.9933 25.1486 44.7215 25.1486 43.7577C25.1486 42.7938 26.516 42.0125 28.2027 42.0125C29.8894 42.0125 31.2568 42.7938 31.2568 43.7577Z" fill="#84CDEE"/>
    <path d="M63.1018 44.6302L37.797 45.1671C33.8703 55.202 20.3442 51.2741 21.2175 43.8568C1.14765 42.1121 1.14765 44.2935 2.02025 32.9494C6.38328 12.4431 25.922 21.6054 26.0169 19.4245C26.4532 9.38953 31.0946 -0.0734824 48.7038 1.09864C61.7922 1.96984 67.4656 13.4616 67.9019 18.5517C68.7745 17.8245 73.1375 16.8065 83.6088 18.5517C96.6978 20.7332 96.6978 40.3668 94.9526 42.1121C93.5564 43.5082 83.8996 42.9852 79.2457 42.5492C80.2795 53.7926 64.5726 52.4837 63.1018 44.6302Z" fill="white"/>
    <path d="M63.1018 44.6302L63.5933 44.5382L63.5895 44.5179L63.584 44.4979L63.1018 44.6302ZM94.9526 42.1121L94.5991 41.7585L94.5991 41.7585L94.9526 42.1121ZM67.9019 18.5517L67.4037 18.5944L67.4856 19.5495L68.222 18.9358L67.9019 18.5517ZM48.7038 1.09864L48.7371 0.599744L48.7038 1.09864ZM26.0169 19.4245L25.5173 19.4028L25.5173 19.4028L26.0169 19.4245ZM2.02025 32.9494L1.5312 32.8454L1.52428 32.8779L1.52173 32.9111L2.02025 32.9494ZM28.1976 40.8029L27.9907 40.3477L27.9907 40.3477L28.1976 40.8029ZM33.4333 43.8568L32.935 43.8983L32.935 43.8983L33.4333 43.8568ZM26.6143 45.9391L26.2143 46.2391L26.2143 46.2391L26.6143 45.9391ZM72.2642 40.8029L72.5012 40.3626L72.4509 40.3355L72.3957 40.3205L72.2642 40.8029ZM71.8279 47.3474L71.7017 46.8636L71.7017 46.8636L71.8279 47.3474ZM62.6655 25.9686H63.1655V25.4686H62.6655V25.9686ZM56.9936 25.4686C56.7174 25.4686 56.4936 25.6925 56.4936 25.9686C56.4936 26.2447 56.7174 26.4686 56.9936 26.4686V25.4686ZM42.5956 25.9686L43.0888 25.8864L43.0192 25.4686H42.5956V25.9686ZM37.36 25.4686C37.0838 25.4686 36.86 25.6925 36.86 25.9686C36.86 26.2447 37.0838 26.4686 37.36 26.4686V25.4686ZM31.6881 18.1152L32.1624 18.2733L32.1675 18.258L32.1716 18.2424L31.6881 18.1152ZM46.9586 19.3994L46.9312 19.8987L46.9449 19.8994H46.9586V19.3994ZM37.8076 45.6669L63.1124 45.1301L63.0912 44.1303L37.7864 44.6672L37.8076 45.6669ZM63.584 44.4979C63.0889 42.6936 63.608 40.9319 64.7526 39.4634C65.9014 37.9895 67.6634 36.8394 69.569 36.306C71.4732 35.773 73.4754 35.8668 75.1326 36.8101C76.7788 37.7471 78.162 39.5667 78.7548 42.6438L79.7367 42.4547C79.1011 39.1551 77.5795 37.0523 75.6273 35.941C73.6863 34.8361 71.3969 34.7559 69.2994 35.343C67.2033 35.9298 65.2535 37.194 63.9638 38.8487C62.6699 40.5088 62.0235 42.5899 62.6196 44.7625L63.584 44.4979ZM78.7478 42.595C78.995 45.2836 78.2407 47.1536 77.0146 48.3666C75.7767 49.5912 73.9982 50.2052 72.1009 50.2512C70.2043 50.2971 68.2333 49.773 66.6573 48.7767C65.0842 47.7822 63.93 46.3361 63.5933 44.5382L62.6104 44.7223C63.009 46.8511 64.3697 48.5136 66.123 49.622C67.8734 50.7285 70.0403 51.3014 72.1251 51.2509C74.2092 51.2003 76.2555 50.5242 77.7178 49.0775C79.1919 47.6192 80.0133 45.4365 79.7436 42.5035L78.7478 42.595ZM79.1991 43.0471C81.5356 43.266 85.1291 43.5069 88.3191 43.5177C89.9126 43.5231 91.4193 43.4712 92.6233 43.3271C93.2245 43.2552 93.7643 43.1587 94.2076 43.0296C94.6349 42.9052 95.0397 42.7321 95.3062 42.4656L94.5991 41.7585C94.5165 41.8411 94.3141 41.957 93.9279 42.0695C93.5577 42.1773 93.0776 42.2657 92.5045 42.3342C91.3597 42.4712 89.8995 42.523 88.3225 42.5177C85.1717 42.5071 81.6098 42.2685 79.2924 42.0514L79.1991 43.0471ZM95.3062 42.4656C95.4878 42.284 95.6207 42.0293 95.7231 41.7638C95.8292 41.4889 95.9191 41.1581 95.9934 40.786C96.1422 40.0412 96.2361 39.0917 96.257 38.0109C96.2987 35.8485 96.0488 33.1162 95.3271 30.3685C93.8894 24.8941 90.5249 19.1975 83.691 18.0585L83.5266 19.0449C89.7817 20.0874 92.9617 25.2984 94.3599 30.6225C95.0563 33.274 95.2972 35.9137 95.2571 37.9916C95.2371 39.031 95.1469 39.9188 95.0128 40.5902C94.9457 40.9262 94.8694 41.1983 94.7901 41.4039C94.7072 41.6187 94.6356 41.7219 94.5991 41.7585L95.3062 42.4656ZM83.691 18.0585C78.431 17.1819 74.685 16.9956 72.1305 17.1252C70.8535 17.19 69.8664 17.3341 69.1327 17.5139C68.4161 17.6895 67.8892 17.9114 67.5818 18.1676L68.222 18.9358C68.3509 18.8284 68.6966 18.6504 69.3707 18.4851C70.0277 18.3241 70.9494 18.1864 72.1812 18.1239C74.6441 17.999 78.3153 18.1764 83.5266 19.0449L83.691 18.0585ZM68.4001 18.509C68.1719 15.8471 66.5954 11.605 63.4266 7.91721C60.2447 4.21418 55.4357 1.04563 48.7371 0.599744L48.6706 1.59754C55.0603 2.02285 59.6322 5.03576 62.6681 8.56893C65.7172 12.1174 67.1956 16.1662 67.4037 18.5944L68.4001 18.509ZM48.7371 0.599744C39.8431 0.0077369 34.1158 2.09664 30.564 5.70832C27.0239 9.30811 25.738 14.3281 25.5173 19.4028L26.5164 19.4462C26.7321 14.4859 27.9851 9.75692 31.277 6.4095C34.5573 3.07396 39.9553 1.01742 48.6706 1.59754L48.7371 0.599744ZM25.5173 19.4028C25.5188 19.3682 25.5336 19.3175 25.57 19.2745C25.6002 19.2387 25.6227 19.2351 25.5995 19.2441C25.5411 19.2666 25.4024 19.2916 25.1391 19.2907C24.6244 19.2891 23.8739 19.1956 22.9011 19.0778C20.9889 18.846 18.3514 18.5386 15.5693 18.8174C12.782 19.0967 9.82145 19.9666 7.27512 22.1092C4.72574 24.2543 2.63988 27.6346 1.5312 32.8454L2.50931 33.0535C3.58214 28.0111 5.57476 24.8468 7.91896 22.8743C10.2662 20.8993 13.0143 20.0785 15.669 19.8124C18.3288 19.5459 20.8665 19.8385 22.7808 20.0705C23.7213 20.1845 24.5468 20.2888 25.1359 20.2907C25.4244 20.2916 25.7195 20.2698 25.9598 20.1769C26.0861 20.1281 26.2242 20.0497 26.3342 19.9195C26.4503 19.7819 26.509 19.617 26.5164 19.4462L25.5173 19.4028ZM21.2609 43.3587C16.2477 42.9229 12.4518 42.7295 9.66698 42.5132C6.83934 42.2937 5.07756 42.05 3.97236 41.5477C3.43881 41.3051 3.08159 41.0113 2.8327 40.6448C2.58022 40.273 2.41401 39.7893 2.3249 39.1274C2.14294 37.7756 2.29841 35.8527 2.51878 32.9878L1.52173 32.9111C1.3058 35.7182 1.13405 37.7766 1.33384 39.2608C1.43562 40.0169 1.63753 40.6649 2.00542 41.2066C2.37691 41.7536 2.89229 42.1552 3.55856 42.458C4.85303 43.0464 6.79981 43.2936 9.58956 43.5102C12.4222 43.7302 16.1524 43.9184 21.1742 44.3549L21.2609 43.3587ZM21.7065 43.9615C22.0054 42.5659 22.9689 41.0708 24.3289 39.8291C25.685 38.5908 27.3902 37.6464 29.1111 37.3126C30.8218 36.9807 32.532 37.2523 33.9711 38.4174C35.4209 39.5911 36.6631 41.7262 37.3051 45.2565L38.289 45.0776C37.6217 41.4084 36.3003 39.0164 34.6004 37.6401C32.8897 36.2553 30.864 35.9539 28.9207 36.3309C26.9876 36.7059 25.1206 37.752 23.6546 39.0906C22.1924 40.4257 21.0838 42.0938 20.7286 43.7521L21.7065 43.9615ZM20.721 43.7984C20.2407 47.877 23.7173 50.8698 27.6216 51.5491C31.5854 52.2388 36.2008 50.6184 38.2627 45.3493L37.3314 44.9849C35.4665 49.7507 31.3555 51.1838 27.793 50.5639C24.1708 49.9337 21.321 47.254 21.7141 43.9153L20.721 43.7984ZM28.4046 41.2581C29.1467 40.9207 30.2344 40.6838 31.1362 40.9639C31.5728 41.0995 31.9714 41.3568 32.2849 41.7994C32.6024 42.2474 32.853 42.9146 32.935 43.8983L33.9315 43.8153C33.839 42.7047 33.5479 41.8522 33.1009 41.2212C32.65 40.5848 32.0615 40.2041 31.4328 40.0089C30.204 39.6273 28.8483 39.9578 27.9907 40.3477L28.4046 41.2581ZM32.935 43.8983C33.0359 45.1088 32.7351 45.7933 32.324 46.1845C31.8987 46.5891 31.2578 46.7745 30.4974 46.7765C29.7428 46.7786 28.9358 46.5984 28.2662 46.3486C27.9329 46.2243 27.6437 46.0864 27.4197 45.9528C27.185 45.8128 27.0599 45.6998 27.0143 45.6391L26.2143 46.2391C26.3764 46.4552 26.6336 46.6483 26.9075 46.8116C27.1921 46.9814 27.5376 47.1441 27.9167 47.2855C28.6716 47.5672 29.5992 47.779 30.5001 47.7765C31.3952 47.7741 32.3306 47.5585 33.0133 46.9089C33.7101 46.2459 34.0488 45.2227 33.9315 43.8153L32.935 43.8983ZM27.0143 45.6391C25.9307 44.1942 26.5427 42.1045 28.4046 41.2581L27.9907 40.3477C25.6534 41.4103 24.6802 44.1936 26.2143 46.2391L27.0143 45.6391ZM72.0271 41.2431C72.4365 41.4636 72.9396 41.8686 73.3803 42.3812C73.8216 42.8944 74.1696 43.4796 74.3124 44.0464C74.4517 44.5996 74.394 45.116 74.0573 45.5716C73.7078 46.0444 73.0051 46.5236 71.7017 46.8636L71.954 47.8312C73.3736 47.461 74.3232 46.8943 74.8615 46.1659C75.4126 45.4203 75.4781 44.5802 75.2821 43.8021C75.0895 43.0376 74.6436 42.3166 74.1386 41.7292C73.6329 41.1412 73.0371 40.6512 72.5012 40.3626L72.0271 41.2431ZM71.7017 46.8636C70.7179 47.1202 70.068 46.832 69.6482 46.3302C69.1993 45.7937 68.9662 44.9507 69.0067 44.0606C69.0472 43.1725 69.3563 42.3286 69.8778 41.7917C70.3737 41.2812 71.1008 41.0039 72.1326 41.2853L72.3957 40.3205C71.0279 39.9474 69.9209 40.3122 69.1605 41.095C68.4257 41.8515 68.0561 42.9524 68.0078 44.0151C67.9594 45.076 68.2272 46.1902 68.8812 46.9719C69.5642 47.7883 70.6192 48.1794 71.954 47.8312L71.7017 46.8636ZM46.4602 23.3907C46.7504 27.0179 47.0655 35.7204 46.0299 41.5886L47.0147 41.7624C48.0734 35.7631 47.7486 26.9554 47.457 23.3109L46.4602 23.3907ZM62.1655 25.9686C62.1655 26.3699 62.1036 26.9622 61.9333 27.4354C61.7497 27.9453 61.5372 28.0864 61.3566 28.0864V29.0864C62.2231 29.0864 62.6651 28.355 62.8742 27.7741C63.0965 27.1565 63.1655 26.4399 63.1655 25.9686H62.1655ZM56.9936 26.4686H59.8295V25.4686H56.9936V26.4686ZM59.8295 26.4686H62.6655V25.4686H59.8295V26.4686ZM61.3566 28.0864C61.1551 28.0864 60.9133 27.9177 60.6848 27.4021C60.4726 26.9235 60.3612 26.328 60.3278 25.9271L59.3313 26.0101C59.3706 26.4818 59.4992 27.1952 59.7706 27.8074C60.0256 28.3825 60.5109 29.0864 61.3566 29.0864V28.0864ZM42.1024 26.0508C42.1699 26.4554 42.2055 27.0448 42.1156 27.5098C42.0705 27.7434 42.0022 27.8992 41.9316 27.9871C41.8771 28.0551 41.8221 28.0864 41.723 28.0864V29.0864C42.1475 29.0864 42.4815 28.8996 42.7115 28.6131C42.9254 28.3465 43.0371 28.0115 43.0974 27.6996C43.2184 27.0739 43.1668 26.3544 43.0888 25.8864L42.1024 26.0508ZM37.36 26.4686H40.4141V25.4686H37.36V26.4686ZM40.4141 26.4686H42.5956V25.4686H40.4141V26.4686ZM41.723 28.0864C41.5804 28.0864 41.4337 28.0197 41.2786 27.8452C41.1197 27.6664 40.9841 27.4063 40.8884 27.1194C40.793 26.8331 40.7505 26.5596 40.7505 26.3776C40.7505 26.2806 40.7627 26.2483 40.7586 26.2591C40.7561 26.2658 40.738 26.3126 40.6845 26.3628C40.6213 26.422 40.5258 26.4686 40.4141 26.4686V25.4686C40.0445 25.4686 39.8776 25.7628 39.8241 25.9031C39.7655 26.057 39.7505 26.2292 39.7505 26.3776C39.7505 26.6865 39.8171 27.0675 39.9398 27.4356C40.0623 27.8031 40.2539 28.1976 40.5312 28.5096C40.8125 28.8259 41.2112 29.0864 41.723 29.0864V28.0864ZM10.4357 21.1254C11.7095 22.131 12.5345 23.9235 12.2914 25.3186C12.1748 25.988 11.8134 26.5785 11.1013 26.9843C10.372 27.3999 9.23404 27.6435 7.54174 27.5017L7.45826 28.4983C9.26596 28.6497 10.6291 28.4043 11.5964 27.8531C12.5808 27.2922 13.1114 26.4382 13.2766 25.4903C13.5971 23.6507 12.5449 21.5165 11.0554 20.3405L10.4357 21.1254ZM63.5869 17.9939C63.1219 16.1338 61.3147 13.002 58.6523 10.395C55.9843 7.78235 52.3641 5.60591 48.2398 5.83504L48.2953 6.8335C52.0244 6.62632 55.385 8.59512 57.9527 11.1094C60.5259 13.6293 62.2092 16.6061 62.6167 18.2364L63.5869 17.9939ZM48.2398 5.83504C44.2621 6.05602 40.5688 6.94184 37.5808 8.85884C34.58 10.7841 32.3257 13.7276 31.2045 17.9879L32.1716 18.2424C33.232 14.213 35.3406 11.4842 38.1208 9.70051C40.9139 7.90857 44.4195 7.04882 48.2953 6.8335L48.2398 5.83504ZM31.2137 17.9571C31.1316 18.2033 31.1823 18.4479 31.3253 18.6402C31.448 18.8053 31.6225 18.9123 31.7768 18.9855C32.0905 19.1341 32.5314 19.2383 33.0284 19.3187C34.0383 19.4819 35.4667 19.5736 37.056 19.6333C40.2774 19.7542 44.1436 19.7456 46.9312 19.8987L46.9861 18.9002C44.2138 18.7479 40.2265 18.7516 37.0935 18.634C35.5057 18.5744 34.1316 18.484 33.1879 18.3315C32.7081 18.2539 32.3844 18.1668 32.205 18.0818C32.1128 18.0381 32.1086 18.0177 32.1278 18.0436C32.1674 18.0969 32.19 18.1906 32.1624 18.2733L31.2137 17.9571ZM46.9586 19.8994C50.8641 19.8994 55.0342 20.0041 58.1523 19.8955C59.7086 19.8413 61.0446 19.7333 61.9743 19.5217C62.4317 19.4176 62.8469 19.2769 63.1424 19.0666C63.2949 18.9581 63.44 18.8139 63.5297 18.6222C63.6239 18.4212 63.6396 18.2046 63.5869 17.9939L62.6167 18.2364C62.6173 18.2385 62.6147 18.2183 62.6241 18.1981C62.6291 18.1874 62.623 18.2088 62.5626 18.2518C62.4323 18.3446 62.1751 18.4505 61.7525 18.5466C60.9224 18.7355 59.6685 18.8421 58.1175 18.8961C55.0209 19.004 50.9066 18.8994 46.9586 18.8994V19.8994ZM47.77 6.28442L46.4611 19.3496L47.4561 19.4493L48.765 6.38411L47.77 6.28442Z" fill="black"/>
    <path d="M0.343572 26.7505C0.533269 25.4887 3.14784 19.5792 5.3878 19.9159C13.4136 21.7066 8.64488 26.7082 8.45518 27.97C8.26548 29.2318 6.29586 29.9816 4.0559 29.6449C1.81594 29.3081 0.153875 28.0123 0.343572 26.7505Z" fill="#84CDEE"/>
    </svg>