<svg width="257" height="257" viewBox="0 0 257 257" fill="none" xmlns="http://www.w3.org/2000/svg">
    <g filter="url(#filter0_d_37_9)">
    <path d="M184.776 19.7212C201.304 28.6726 212.918 47.1821 222.298 67.0571C231.53 86.9321 238.379 108.173 240.464 132.144C242.399 156.115 239.421 182.969 226.169 203.299C212.918 223.781 189.392 237.588 166.313 236.981C143.234 236.222 120.899 221.05 96.6289 213.313C72.5076 205.424 46.5995 204.968 38.1123 191.162C29.7741 177.356 38.8568 150.198 34.8366 124.71C30.6675 99.2213 13.2465 75.4016 16.3734 57.9541C19.5002 40.6583 43.3238 29.8863 64.9138 23.3625C86.5039 16.8386 106.009 14.4111 126.408 12.894C146.807 11.3768 168.248 10.7699 184.776 19.7212Z" fill="white"/>
    </g>
    <path d="M96.86 171.04H91.8V184H90.4V171.04H85.34V169.8H96.86V171.04ZM102.11 174.78C101.203 174.807 100.403 175.06 99.7102 175.54C99.0302 176.02 98.5502 176.68 98.2702 177.52V184H96.9102V173.58H98.1902V176.08C98.5502 175.347 99.0235 174.753 99.6102 174.3C100.21 173.847 100.843 173.593 101.51 173.54C101.643 173.527 101.757 173.52 101.85 173.52C101.957 173.52 102.043 173.527 102.11 173.54V174.78ZM103.043 181C103.043 180.347 103.229 179.787 103.603 179.32C103.976 178.84 104.489 178.473 105.143 178.22C105.809 177.953 106.576 177.82 107.443 177.82C107.949 177.82 108.476 177.86 109.023 177.94C109.569 178.02 110.056 178.14 110.483 178.3V177.42C110.483 176.54 110.223 175.84 109.703 175.32C109.183 174.8 108.463 174.54 107.543 174.54C106.983 174.54 106.429 174.647 105.883 174.86C105.349 175.06 104.789 175.36 104.203 175.76L103.683 174.8C104.363 174.333 105.029 173.987 105.683 173.76C106.336 173.52 107.003 173.4 107.683 173.4C108.963 173.4 109.976 173.767 110.723 174.5C111.469 175.233 111.843 176.247 111.843 177.54V182.36C111.843 182.547 111.883 182.687 111.963 182.78C112.043 182.86 112.169 182.907 112.343 182.92V184C112.196 184.013 112.069 184.027 111.963 184.04C111.856 184.053 111.776 184.053 111.723 184.04C111.389 184.027 111.136 183.92 110.963 183.72C110.789 183.52 110.696 183.307 110.683 183.08L110.663 182.32C110.196 182.92 109.589 183.387 108.843 183.72C108.096 184.04 107.336 184.2 106.563 184.2C105.896 184.2 105.289 184.06 104.743 183.78C104.209 183.487 103.789 183.1 103.483 182.62C103.189 182.127 103.043 181.587 103.043 181ZM110.023 181.8C110.169 181.613 110.283 181.433 110.363 181.26C110.443 181.087 110.483 180.933 110.483 180.8V179.28C110.029 179.107 109.556 178.973 109.063 178.88C108.583 178.787 108.096 178.74 107.603 178.74C106.629 178.74 105.843 178.933 105.243 179.32C104.643 179.707 104.343 180.233 104.343 180.9C104.343 181.287 104.443 181.653 104.643 182C104.843 182.333 105.136 182.613 105.523 182.84C105.909 183.053 106.363 183.16 106.883 183.16C107.536 183.16 108.143 183.033 108.703 182.78C109.276 182.527 109.716 182.2 110.023 181.8ZM123.541 184H122.181V178.18C122.181 176.953 122.001 176.06 121.641 175.5C121.281 174.927 120.715 174.64 119.941 174.64C119.408 174.64 118.881 174.773 118.361 175.04C117.841 175.293 117.381 175.647 116.981 176.1C116.595 176.54 116.315 177.047 116.141 177.62V184H114.781V173.58H116.021V175.94C116.301 175.433 116.668 174.993 117.121 174.62C117.575 174.233 118.088 173.933 118.661 173.72C119.235 173.507 119.828 173.4 120.441 173.4C121.015 173.4 121.501 173.507 121.901 173.72C122.301 173.933 122.621 174.24 122.861 174.64C123.101 175.027 123.275 175.5 123.381 176.06C123.488 176.607 123.541 177.22 123.541 177.9V184ZM129.861 184.2C129.008 184.2 128.215 184.06 127.481 183.78C126.748 183.5 126.115 183.073 125.581 182.5L126.141 181.54C126.728 182.087 127.315 182.487 127.901 182.74C128.501 182.98 129.135 183.1 129.801 183.1C130.615 183.1 131.275 182.94 131.781 182.62C132.288 182.287 132.541 181.813 132.541 181.2C132.541 180.787 132.415 180.473 132.161 180.26C131.921 180.033 131.568 179.853 131.101 179.72C130.648 179.573 130.101 179.42 129.461 179.26C128.741 179.06 128.135 178.853 127.641 178.64C127.161 178.413 126.795 178.133 126.541 177.8C126.301 177.453 126.181 177.007 126.181 176.46C126.181 175.78 126.348 175.22 126.681 174.78C127.028 174.327 127.495 173.987 128.081 173.76C128.681 173.52 129.348 173.4 130.081 173.4C130.881 173.4 131.588 173.527 132.201 173.78C132.815 174.033 133.315 174.387 133.701 174.84L133.041 175.76C132.668 175.333 132.221 175.02 131.701 174.82C131.195 174.607 130.628 174.5 130.001 174.5C129.575 174.5 129.168 174.56 128.781 174.68C128.395 174.787 128.075 174.973 127.821 175.24C127.581 175.493 127.461 175.847 127.461 176.3C127.461 176.673 127.555 176.967 127.741 177.18C127.928 177.38 128.208 177.553 128.581 177.7C128.955 177.833 129.415 177.98 129.961 178.14C130.748 178.353 131.435 178.573 132.021 178.8C132.608 179.013 133.061 179.293 133.381 179.64C133.701 179.987 133.861 180.473 133.861 181.1C133.861 182.073 133.495 182.833 132.761 183.38C132.028 183.927 131.061 184.2 129.861 184.2ZM141.429 184.2C140.563 184.2 139.783 183.973 139.089 183.52C138.409 183.067 137.869 182.507 137.469 181.84V188.26H136.109V173.58H137.329V175.6C137.743 174.947 138.296 174.42 138.989 174.02C139.683 173.607 140.423 173.4 141.209 173.4C141.929 173.4 142.589 173.553 143.189 173.86C143.789 174.153 144.309 174.553 144.749 175.06C145.189 175.567 145.529 176.147 145.769 176.8C146.023 177.44 146.149 178.107 146.149 178.8C146.149 179.773 145.949 180.673 145.549 181.5C145.163 182.313 144.616 182.967 143.909 183.46C143.203 183.953 142.376 184.2 141.429 184.2ZM141.049 183C141.623 183 142.136 182.887 142.589 182.66C143.043 182.42 143.429 182.1 143.749 181.7C144.083 181.3 144.336 180.853 144.509 180.36C144.683 179.853 144.769 179.333 144.769 178.8C144.769 178.24 144.669 177.707 144.469 177.2C144.283 176.693 144.009 176.247 143.649 175.86C143.289 175.473 142.876 175.167 142.409 174.94C141.943 174.713 141.436 174.6 140.889 174.6C140.543 174.6 140.183 174.667 139.809 174.8C139.436 174.933 139.076 175.127 138.729 175.38C138.396 175.62 138.116 175.893 137.889 176.2C137.663 176.507 137.523 176.833 137.469 177.18V180.38C137.683 180.873 137.969 181.32 138.329 181.72C138.689 182.107 139.103 182.42 139.569 182.66C140.049 182.887 140.543 183 141.049 183ZM152.893 184.2C152.146 184.2 151.453 184.06 150.813 183.78C150.186 183.487 149.64 183.093 149.173 182.6C148.72 182.093 148.366 181.52 148.113 180.88C147.86 180.227 147.733 179.54 147.733 178.82C147.733 178.073 147.86 177.38 148.113 176.74C148.366 176.087 148.726 175.513 149.193 175.02C149.66 174.513 150.206 174.12 150.833 173.84C151.473 173.547 152.166 173.4 152.913 173.4C153.66 173.4 154.346 173.547 154.973 173.84C155.6 174.12 156.146 174.513 156.613 175.02C157.08 175.513 157.44 176.087 157.693 176.74C157.946 177.38 158.073 178.073 158.073 178.82C158.073 179.54 157.946 180.227 157.693 180.88C157.44 181.52 157.08 182.093 156.613 182.6C156.16 183.093 155.613 183.487 154.973 183.78C154.346 184.06 153.653 184.2 152.893 184.2ZM149.113 178.84C149.113 179.613 149.28 180.32 149.613 180.96C149.96 181.587 150.42 182.087 150.993 182.46C151.566 182.82 152.2 183 152.893 183C153.586 183 154.22 182.813 154.793 182.44C155.366 182.067 155.826 181.56 156.173 180.92C156.52 180.267 156.693 179.56 156.693 178.8C156.693 178.027 156.52 177.32 156.173 176.68C155.826 176.04 155.366 175.533 154.793 175.16C154.22 174.787 153.586 174.6 152.893 174.6C152.2 174.6 151.566 174.793 150.993 175.18C150.433 175.567 149.98 176.08 149.633 176.72C149.286 177.347 149.113 178.053 149.113 178.84ZM165.548 174.78C164.641 174.807 163.841 175.06 163.148 175.54C162.468 176.02 161.988 176.68 161.708 177.52V184H160.348V173.58H161.628V176.08C161.988 175.347 162.461 174.753 163.048 174.3C163.648 173.847 164.281 173.593 164.948 173.54C165.081 173.527 165.194 173.52 165.288 173.52C165.394 173.52 165.481 173.527 165.548 173.54V174.78ZM172.359 183.5C172.253 183.54 172.086 183.613 171.859 183.72C171.633 183.827 171.359 183.92 171.039 184C170.719 184.08 170.373 184.12 169.999 184.12C169.613 184.12 169.246 184.047 168.899 183.9C168.566 183.753 168.299 183.533 168.099 183.24C167.899 182.933 167.799 182.56 167.799 182.12V174.66H166.359V173.58H167.799V170.06H169.159V173.58H171.559V174.66H169.159V181.74C169.186 182.113 169.319 182.393 169.559 182.58C169.813 182.767 170.099 182.86 170.419 182.86C170.793 182.86 171.133 182.8 171.439 182.68C171.746 182.547 171.933 182.453 171.999 182.4L172.359 183.5Z" fill="black"/>
    <path d="M139.314 115L140.297 114.816L140.29 114.775L140.279 114.735L139.314 115ZM144.815 85.1142L143.819 85.1996L143.983 87.1097L145.455 85.8824L144.815 85.1142ZM122.814 65.113L122.881 64.1152L122.814 65.113ZM96.8153 86.1144L95.8163 86.0709L96.8153 86.1144ZM69.3153 101.614L68.3372 101.406L68.3234 101.471L68.3183 101.537L69.3153 101.614ZM99.3145 110.614L99.7283 111.524L99.3145 110.614ZM105.314 114.114L104.318 114.197L105.314 114.114ZM97.5 116.5L96.7 117.1L97.5 116.5ZM149.814 110.614L150.289 109.733L150.188 109.679L150.078 109.649L149.814 110.614ZM149.314 118.114L149.062 117.146L149.314 118.114ZM132.314 92.6139C131.762 92.6139 131.314 93.0616 131.314 93.6139C131.314 94.1662 131.762 94.6139 132.314 94.6139V92.6139ZM138.814 93.6139H139.814V92.6139H138.814V93.6139ZM109.814 92.6139C109.262 92.6139 108.814 93.0616 108.814 93.6139C108.814 94.1662 109.262 94.6139 109.814 94.6139V92.6139ZM115.814 93.6139L116.801 93.4495L116.662 92.6139H115.814V93.6139ZM103.314 84.6139L104.263 84.9301L104.273 84.8995L104.282 84.8684L103.314 84.6139ZM120.814 86.0857L120.76 87.0841L120.787 87.0857H120.814V86.0857ZM110.337 116.615L139.336 116L139.293 114L110.294 114.615L110.337 116.615ZM140.279 114.735C139.755 112.825 140.295 110.942 141.543 109.341C142.799 107.729 144.738 106.46 146.841 105.872C148.941 105.284 151.113 105.397 152.89 106.409C154.646 107.409 156.172 109.373 156.833 112.804L158.797 112.426C158.051 108.55 156.248 106.019 153.88 104.671C151.534 103.336 148.788 103.25 146.302 103.946C143.818 104.641 141.504 106.139 139.966 108.112C138.419 110.096 137.624 112.618 138.35 115.265L140.279 114.735ZM156.82 112.707C157.093 115.684 156.257 117.693 154.958 118.978C153.635 120.287 151.712 120.964 149.617 121.015C147.524 121.065 145.349 120.486 143.617 119.391C141.891 118.3 140.657 116.735 140.297 114.816L138.332 115.184C138.815 117.765 140.462 119.763 142.549 121.081C144.629 122.397 147.196 123.074 149.665 123.014C152.134 122.954 154.593 122.153 156.365 120.4C158.16 118.624 159.13 115.989 158.811 112.524L156.82 112.707ZM157.722 113.611C160.408 113.862 164.539 114.14 168.212 114.152C170.045 114.158 171.792 114.099 173.197 113.931C173.898 113.847 174.542 113.733 175.081 113.576C175.588 113.428 176.139 113.205 176.522 112.821L175.108 111.407C175.111 111.405 175.076 111.438 174.968 111.491C174.864 111.542 174.717 111.599 174.522 111.655C174.129 111.77 173.604 111.868 172.959 111.945C171.672 112.099 170.019 112.158 168.219 112.152C164.625 112.14 160.556 111.868 157.909 111.62L157.722 113.611ZM176.522 112.821C176.792 112.551 176.971 112.195 177.097 111.869C177.23 111.524 177.339 111.12 177.427 110.678C177.604 109.793 177.713 108.679 177.737 107.423C177.785 104.908 177.495 101.738 176.658 98.5477C174.993 92.2098 171.058 85.4742 162.98 84.1278L162.651 86.1006C169.572 87.2541 173.138 93.0186 174.723 99.0557C175.51 102.053 175.783 105.039 175.737 107.384C175.715 108.557 175.613 109.548 175.466 110.286C175.392 110.656 175.31 110.943 175.231 111.149C175.144 111.374 175.088 111.427 175.108 111.407L176.522 112.821ZM162.98 84.1278C156.931 83.1197 152.606 82.9025 149.64 83.053C148.157 83.1282 146.998 83.296 146.124 83.5101C145.285 83.7158 144.604 83.9889 144.175 84.346L145.455 85.8824C145.527 85.8228 145.846 85.6375 146.6 85.4526C147.32 85.2761 148.349 85.121 149.741 85.0504C152.524 84.9092 156.7 85.1087 162.651 86.1006L162.98 84.1278ZM145.812 85.0288C145.542 81.8785 143.693 76.9345 140.011 72.6488C136.302 68.3326 130.69 64.635 122.881 64.1152L122.748 66.1108C129.939 66.5895 135.077 69.9758 138.494 73.9522C141.937 77.9592 143.589 82.5166 143.819 85.1996L145.812 85.0288ZM122.881 64.1152C112.612 63.4317 105.908 65.8394 101.722 70.0963C97.5589 74.3294 96.0712 80.2065 95.8163 86.0709L97.8144 86.1578C98.0594 80.5222 99.4812 75.227 103.148 71.4987C106.791 67.7941 112.837 65.4511 122.748 66.1108L122.881 64.1152ZM95.8163 86.0709C95.8218 85.9437 95.8701 85.7935 95.9769 85.667C96.0713 85.5551 96.1657 85.5161 96.1832 85.5093C96.194 85.5051 96.1018 85.535 95.8107 85.5341C95.2527 85.5323 94.4246 85.4299 93.296 85.2931C91.1055 85.0277 88.0403 84.6691 84.7998 84.9938C81.549 85.3195 78.0655 86.3374 75.0624 88.8643C72.0532 91.3963 69.623 95.3623 68.3372 101.406L70.2934 101.822C71.5076 96.1154 73.7513 92.5813 76.3501 90.3946C78.955 88.2027 82.0137 87.283 84.9993 86.9838C87.9952 86.6836 90.8608 87.0126 93.0554 87.2786C94.1194 87.4075 95.0975 87.5318 95.8044 87.5341C96.1457 87.5351 96.5506 87.5114 96.9038 87.375C97.0925 87.3021 97.3194 87.1772 97.5052 86.957C97.7034 86.7223 97.802 86.4412 97.8144 86.1578L95.8163 86.0709ZM91.4019 113.117C85.6606 112.618 81.2824 112.394 78.1115 112.148C74.8548 111.895 72.9148 111.618 71.7291 111.079C71.1743 110.827 70.8325 110.536 70.5996 110.193C70.3596 109.839 70.1843 109.355 70.0876 108.637C69.8867 107.144 70.0579 104.998 70.3124 101.691L68.3183 101.537C68.0727 104.729 67.8689 107.146 68.1055 108.904C68.2275 109.81 68.4742 110.623 68.9451 111.316C69.4231 112.02 70.0813 112.527 70.9015 112.899C72.4658 113.61 74.7758 113.895 77.9566 114.142C81.2232 114.396 85.4701 114.609 91.2287 115.11L91.4019 113.117ZM92.2931 114.323C92.6117 112.836 93.654 111.196 95.1688 109.813C96.676 108.437 98.561 107.398 100.443 107.033C102.304 106.672 104.129 106.971 105.662 108.212C107.217 109.471 108.606 111.808 109.331 115.794L111.299 115.436C110.524 111.172 108.976 108.321 106.921 106.658C104.844 104.977 102.388 104.619 100.062 105.07C97.7558 105.517 95.5472 106.759 93.8202 108.336C92.1009 109.906 90.7685 111.892 90.3375 113.904L92.2931 114.323ZM90.3222 113.997C89.7346 118.987 93.9864 122.55 98.5811 123.35C103.295 124.17 108.8 122.233 111.247 115.98L109.384 115.251C107.331 120.498 102.835 122.06 98.9239 121.379C94.8934 120.678 91.8951 117.741 92.3084 114.231L90.3222 113.997ZM99.7283 111.524C100.53 111.16 101.662 110.929 102.555 111.206C102.974 111.336 103.349 111.578 103.65 112.003C103.958 112.438 104.228 113.124 104.318 114.197L106.311 114.031C106.2 112.704 105.85 111.648 105.282 110.846C104.707 110.034 103.951 109.545 103.149 109.296C101.601 108.816 99.9327 109.234 98.9006 109.704L99.7283 111.524ZM104.318 114.197C104.426 115.5 104.098 116.14 103.749 116.472C103.371 116.831 102.763 117.03 101.949 117.033C101.147 117.035 100.273 116.842 99.5423 116.569C99.1799 116.434 98.8724 116.287 98.6417 116.149C98.5267 116.08 98.4392 116.019 98.3772 115.969C98.3115 115.916 98.2937 115.892 98.3 115.9L96.7 117.1C96.9355 117.414 97.2866 117.669 97.6172 117.867C97.9693 118.077 98.3893 118.274 98.8432 118.443C99.7448 118.779 100.859 119.036 101.954 119.033C103.038 119.03 104.235 118.77 105.128 117.921C106.048 117.045 106.452 115.728 106.311 114.031L104.318 114.197ZM98.3 115.9C97.2505 114.501 97.7977 112.402 99.7283 111.524L98.9006 109.704C96.0191 111.014 94.7495 114.499 96.7 117.1L98.3 115.9ZM149.34 111.494C149.756 111.718 150.292 112.146 150.77 112.701C151.248 113.258 151.605 113.87 151.748 114.435C151.883 114.973 151.82 115.427 151.526 115.825C151.206 116.258 150.506 116.77 149.062 117.146L149.567 119.082C151.243 118.644 152.437 117.957 153.134 117.014C153.858 116.035 153.936 114.934 153.687 113.947C153.445 112.986 152.892 112.102 152.286 111.397C151.679 110.691 150.957 110.093 150.289 109.733L149.34 111.494ZM149.062 117.146C148.085 117.401 147.513 117.115 147.144 116.674C146.717 116.164 146.465 115.314 146.508 114.367C146.551 113.423 146.879 112.566 147.386 112.045C147.841 111.576 148.512 111.295 149.551 111.579L150.078 109.649C148.367 109.182 146.936 109.638 145.951 110.651C145.018 111.612 144.569 112.983 144.51 114.276C144.451 115.564 144.773 116.957 145.61 117.958C146.505 119.027 147.887 119.52 149.567 119.082L149.062 117.146ZM119.818 90.6936C120.15 94.8431 120.507 104.771 119.33 111.44L121.299 111.788C122.522 104.857 122.146 94.718 121.811 90.5341L119.818 90.6936ZM137.814 93.6139C137.814 94.0439 137.747 94.6697 137.574 95.1502C137.487 95.3901 137.398 95.5267 137.337 95.5898C137.311 95.6168 137.299 95.6203 137.305 95.6176C137.314 95.6136 137.321 95.6139 137.314 95.6139V97.6139C138.6 97.6139 139.205 96.5236 139.455 95.8276C139.732 95.0581 139.814 94.1839 139.814 93.6139H137.814ZM132.314 94.6139H135.564V92.6139H132.314V94.6139ZM135.564 94.6139H138.814V92.6139H135.564V94.6139ZM137.314 95.6139C137.308 95.6139 137.307 95.6135 137.303 95.6118C137.297 95.6088 137.273 95.5969 137.235 95.5608C137.151 95.4811 137.044 95.3286 136.935 95.0836C136.717 94.5922 136.597 93.9601 136.561 93.5308L134.568 93.6969C134.615 94.2677 134.77 95.1356 135.107 95.8942C135.41 96.5787 136.07 97.6139 137.314 97.6139V95.6139ZM114.828 93.7783C114.901 94.2149 114.935 94.8348 114.845 95.2991C114.8 95.5333 114.74 95.6354 114.72 95.6599C114.717 95.6646 114.73 95.6475 114.763 95.6311C114.797 95.6137 114.821 95.6139 114.814 95.6139V97.6139C115.44 97.6139 115.942 97.3334 116.28 96.9117C116.587 96.5299 116.733 96.0695 116.809 95.6787C116.961 94.893 116.895 94.0128 116.801 93.4495L114.828 93.7783ZM109.814 94.6139H113.314V92.6139H109.814V94.6139ZM113.314 94.6139H115.814V92.6139H113.314V94.6139ZM114.814 95.6139C114.809 95.6139 114.748 95.6201 114.624 95.4808C114.493 95.3327 114.361 95.0921 114.263 94.7977C114.165 94.5044 114.127 94.237 114.127 94.0826C114.127 93.9934 114.14 94.0161 114.108 94.0988C114.087 94.1542 113.882 94.6139 113.314 94.6139V92.6139C112.622 92.6139 112.323 93.1673 112.239 93.3868C112.145 93.6336 112.127 93.8906 112.127 94.0826C112.127 94.4908 112.214 94.9734 112.366 95.4301C112.518 95.8857 112.761 96.3951 113.13 96.8095C113.506 97.2327 114.07 97.6139 114.814 97.6139V95.6139ZM78.6948 88.3988C79.3227 88.8945 79.8928 89.6963 80.2031 90.6139C80.5117 91.5266 80.5384 92.4748 80.2015 93.2974C79.5678 94.845 77.2872 96.6088 70.8911 96.1168L70.7378 98.1109C77.3417 98.6189 80.8945 96.8828 82.0524 94.0554C82.6113 92.6904 82.5235 91.2325 82.0977 89.9733C81.6736 88.719 80.8895 87.5833 79.9341 86.829L78.6948 88.3988ZM140.285 84.3714C139.727 82.1416 137.603 78.4864 134.514 75.4615C131.414 72.4255 127.154 69.8426 122.259 70.1146L122.37 72.1115C126.475 71.8835 130.215 74.051 133.115 76.8905C136.026 79.7409 137.902 83.0862 138.344 84.8564L140.285 84.3714ZM122.259 70.1146C117.657 70.3702 113.344 71.3965 109.837 73.6468C106.304 75.9136 103.658 79.3785 102.347 84.3594L104.282 84.8684C105.471 80.3493 107.825 77.3138 110.917 75.3301C114.035 73.33 117.972 72.3558 122.37 72.1115L122.259 70.1146ZM102.366 84.2977C102.225 84.7204 102.314 85.1451 102.556 85.4704C102.757 85.7411 103.03 85.9007 103.233 85.9971C103.65 86.1946 104.205 86.3214 104.782 86.4146C105.968 86.6063 107.628 86.7119 109.45 86.7803C113.18 86.9203 117.558 86.9083 120.76 87.0841L120.869 85.0872C117.699 84.913 113.078 84.9151 109.525 84.7817C107.706 84.7134 106.155 84.6105 105.101 84.4403C104.559 84.3526 104.238 84.26 104.09 84.1898C104.011 84.1523 104.078 84.1659 104.161 84.2772C104.284 84.443 104.342 84.6949 104.263 84.9301L102.366 84.2977ZM120.814 87.0857C125.272 87.0857 130.075 87.2057 133.657 87.0809C135.443 87.0187 137.009 86.8943 138.117 86.6421C138.656 86.5195 139.199 86.3433 139.609 86.0521C139.823 85.8998 140.048 85.6821 140.192 85.3761C140.344 85.0512 140.367 84.702 140.285 84.3714L138.344 84.8564C138.323 84.7697 138.325 84.6454 138.38 84.5279C138.427 84.4292 138.479 84.4013 138.449 84.4226C138.37 84.4787 138.143 84.5852 137.673 84.692C136.765 84.8987 135.363 85.0203 133.588 85.0821C130.048 85.2054 125.357 85.0857 120.814 85.0857V87.0857ZM121.319 71.0134L119.819 85.986L121.809 86.1853L123.309 71.2127L121.319 71.0134Z" fill="black"/>
    <defs>
    <filter id="filter0_d_37_9" x="0" y="0" width="257" height="257" filterUnits="userSpaceOnUse" color-interpolation-filters="sRGB">
    <feFlood flood-opacity="0" result="BackgroundImageFix"/>
    <feColorMatrix in="SourceAlpha" type="matrix" values="0 0 0 0 0 0 0 0 0 0 0 0 0 0 0 0 0 0 127 0" result="hardAlpha"/>
    <feOffset dy="4"/>
    <feGaussianBlur stdDeviation="8"/>
    <feComposite in2="hardAlpha" operator="out"/>
    <feColorMatrix type="matrix" values="0 0 0 0 0.591667 0 0 0 0 0.591667 0 0 0 0 0.591667 0 0 0 0.25 0"/>
    <feBlend mode="normal" in2="BackgroundImageFix" result="effect1_dropShadow_37_9"/>
    <feBlend mode="normal" in="SourceGraphic" in2="effect1_dropShadow_37_9" result="shape"/>
    </filter>
    </defs>
    </svg>
    