<svg width="257" height="257" viewBox="0 0 257 257" fill="none" xmlns="http://www.w3.org/2000/svg">
    <g filter="url(#filter0_d_37_9)">
    <path d="M184.776 19.7212C201.304 28.6726 212.918 47.1821 222.298 67.0571C231.53 86.9321 238.379 108.173 240.464 132.144C242.399 156.115 239.421 182.969 226.169 203.299C212.918 223.781 189.392 237.588 166.313 236.981C143.234 236.222 120.899 221.05 96.6289 213.313C72.5076 205.424 46.5995 204.968 38.1123 191.162C29.7741 177.356 38.8568 150.198 34.8366 124.71C30.6675 99.2213 13.2465 75.4016 16.3734 57.9541C19.5002 40.6583 43.3238 29.8863 64.9138 23.3625C86.5039 16.8386 106.009 14.4111 126.408 12.894C146.807 11.3768 168.248 10.7699 184.776 19.7212Z" fill="white"/>
    </g>
    <path d="M95.86 171.04H90.8V184H89.4V171.04H84.34V169.8H95.86V171.04ZM101.11 174.78C100.203 174.807 99.4035 175.06 98.7102 175.54C98.0302 176.02 97.5502 176.68 97.2702 177.52V184H95.9102V173.58H97.1902V176.08C97.5502 175.347 98.0235 174.753 98.6102 174.3C99.2102 173.847 99.8435 173.593 100.51 173.54C100.643 173.527 100.757 173.52 100.85 173.52C100.957 173.52 101.043 173.527 101.11 173.54V174.78ZM102.043 181C102.043 180.347 102.229 179.787 102.603 179.32C102.976 178.84 103.489 178.473 104.143 178.22C104.809 177.953 105.576 177.82 106.443 177.82C106.949 177.82 107.476 177.86 108.023 177.94C108.569 178.02 109.056 178.14 109.483 178.3V177.42C109.483 176.54 109.223 175.84 108.703 175.32C108.183 174.8 107.463 174.54 106.543 174.54C105.983 174.54 105.429 174.647 104.883 174.86C104.349 175.06 103.789 175.36 103.203 175.76L102.683 174.8C103.363 174.333 104.029 173.987 104.683 173.76C105.336 173.52 106.003 173.4 106.683 173.4C107.963 173.4 108.976 173.767 109.723 174.5C110.469 175.233 110.843 176.247 110.843 177.54V182.36C110.843 182.547 110.883 182.687 110.963 182.78C111.043 182.86 111.169 182.907 111.343 182.92V184C111.196 184.013 111.069 184.027 110.963 184.04C110.856 184.053 110.776 184.053 110.723 184.04C110.389 184.027 110.136 183.92 109.963 183.72C109.789 183.52 109.696 183.307 109.683 183.08L109.663 182.32C109.196 182.92 108.589 183.387 107.843 183.72C107.096 184.04 106.336 184.2 105.563 184.2C104.896 184.2 104.289 184.06 103.743 183.78C103.209 183.487 102.789 183.1 102.483 182.62C102.189 182.127 102.043 181.587 102.043 181ZM109.023 181.8C109.169 181.613 109.283 181.433 109.363 181.26C109.443 181.087 109.483 180.933 109.483 180.8V179.28C109.029 179.107 108.556 178.973 108.063 178.88C107.583 178.787 107.096 178.74 106.603 178.74C105.629 178.74 104.843 178.933 104.243 179.32C103.643 179.707 103.343 180.233 103.343 180.9C103.343 181.287 103.443 181.653 103.643 182C103.843 182.333 104.136 182.613 104.523 182.84C104.909 183.053 105.363 183.16 105.883 183.16C106.536 183.16 107.143 183.033 107.703 182.78C108.276 182.527 108.716 182.2 109.023 181.8ZM122.541 184H121.181V178.18C121.181 176.953 121.001 176.06 120.641 175.5C120.281 174.927 119.715 174.64 118.941 174.64C118.408 174.64 117.881 174.773 117.361 175.04C116.841 175.293 116.381 175.647 115.981 176.1C115.595 176.54 115.315 177.047 115.141 177.62V184H113.781V173.58H115.021V175.94C115.301 175.433 115.668 174.993 116.121 174.62C116.575 174.233 117.088 173.933 117.661 173.72C118.235 173.507 118.828 173.4 119.441 173.4C120.015 173.4 120.501 173.507 120.901 173.72C121.301 173.933 121.621 174.24 121.861 174.64C122.101 175.027 122.275 175.5 122.381 176.06C122.488 176.607 122.541 177.22 122.541 177.9V184ZM128.861 184.2C128.008 184.2 127.215 184.06 126.481 183.78C125.748 183.5 125.115 183.073 124.581 182.5L125.141 181.54C125.728 182.087 126.315 182.487 126.901 182.74C127.501 182.98 128.135 183.1 128.801 183.1C129.615 183.1 130.275 182.94 130.781 182.62C131.288 182.287 131.541 181.813 131.541 181.2C131.541 180.787 131.415 180.473 131.161 180.26C130.921 180.033 130.568 179.853 130.101 179.72C129.648 179.573 129.101 179.42 128.461 179.26C127.741 179.06 127.135 178.853 126.641 178.64C126.161 178.413 125.795 178.133 125.541 177.8C125.301 177.453 125.181 177.007 125.181 176.46C125.181 175.78 125.348 175.22 125.681 174.78C126.028 174.327 126.495 173.987 127.081 173.76C127.681 173.52 128.348 173.4 129.081 173.4C129.881 173.4 130.588 173.527 131.201 173.78C131.815 174.033 132.315 174.387 132.701 174.84L132.041 175.76C131.668 175.333 131.221 175.02 130.701 174.82C130.195 174.607 129.628 174.5 129.001 174.5C128.575 174.5 128.168 174.56 127.781 174.68C127.395 174.787 127.075 174.973 126.821 175.24C126.581 175.493 126.461 175.847 126.461 176.3C126.461 176.673 126.555 176.967 126.741 177.18C126.928 177.38 127.208 177.553 127.581 177.7C127.955 177.833 128.415 177.98 128.961 178.14C129.748 178.353 130.435 178.573 131.021 178.8C131.608 179.013 132.061 179.293 132.381 179.64C132.701 179.987 132.861 180.473 132.861 181.1C132.861 182.073 132.495 182.833 131.761 183.38C131.028 183.927 130.061 184.2 128.861 184.2ZM140.429 184.2C139.563 184.2 138.783 183.973 138.089 183.52C137.409 183.067 136.869 182.507 136.469 181.84V188.26H135.109V173.58H136.329V175.6C136.743 174.947 137.296 174.42 137.989 174.02C138.683 173.607 139.423 173.4 140.209 173.4C140.929 173.4 141.589 173.553 142.189 173.86C142.789 174.153 143.309 174.553 143.749 175.06C144.189 175.567 144.529 176.147 144.769 176.8C145.023 177.44 145.149 178.107 145.149 178.8C145.149 179.773 144.949 180.673 144.549 181.5C144.163 182.313 143.616 182.967 142.909 183.46C142.203 183.953 141.376 184.2 140.429 184.2ZM140.049 183C140.623 183 141.136 182.887 141.589 182.66C142.043 182.42 142.429 182.1 142.749 181.7C143.083 181.3 143.336 180.853 143.509 180.36C143.683 179.853 143.769 179.333 143.769 178.8C143.769 178.24 143.669 177.707 143.469 177.2C143.283 176.693 143.009 176.247 142.649 175.86C142.289 175.473 141.876 175.167 141.409 174.94C140.943 174.713 140.436 174.6 139.889 174.6C139.543 174.6 139.183 174.667 138.809 174.8C138.436 174.933 138.076 175.127 137.729 175.38C137.396 175.62 137.116 175.893 136.889 176.2C136.663 176.507 136.523 176.833 136.469 177.18V180.38C136.683 180.873 136.969 181.32 137.329 181.72C137.689 182.107 138.103 182.42 138.569 182.66C139.049 182.887 139.543 183 140.049 183ZM151.893 184.2C151.146 184.2 150.453 184.06 149.813 183.78C149.186 183.487 148.64 183.093 148.173 182.6C147.72 182.093 147.366 181.52 147.113 180.88C146.86 180.227 146.733 179.54 146.733 178.82C146.733 178.073 146.86 177.38 147.113 176.74C147.366 176.087 147.726 175.513 148.193 175.02C148.66 174.513 149.206 174.12 149.833 173.84C150.473 173.547 151.166 173.4 151.913 173.4C152.66 173.4 153.346 173.547 153.973 173.84C154.6 174.12 155.146 174.513 155.613 175.02C156.08 175.513 156.44 176.087 156.693 176.74C156.946 177.38 157.073 178.073 157.073 178.82C157.073 179.54 156.946 180.227 156.693 180.88C156.44 181.52 156.08 182.093 155.613 182.6C155.16 183.093 154.613 183.487 153.973 183.78C153.346 184.06 152.653 184.2 151.893 184.2ZM148.113 178.84C148.113 179.613 148.28 180.32 148.613 180.96C148.96 181.587 149.42 182.087 149.993 182.46C150.566 182.82 151.2 183 151.893 183C152.586 183 153.22 182.813 153.793 182.44C154.366 182.067 154.826 181.56 155.173 180.92C155.52 180.267 155.693 179.56 155.693 178.8C155.693 178.027 155.52 177.32 155.173 176.68C154.826 176.04 154.366 175.533 153.793 175.16C153.22 174.787 152.586 174.6 151.893 174.6C151.2 174.6 150.566 174.793 149.993 175.18C149.433 175.567 148.98 176.08 148.633 176.72C148.286 177.347 148.113 178.053 148.113 178.84ZM164.548 174.78C163.641 174.807 162.841 175.06 162.148 175.54C161.468 176.02 160.988 176.68 160.708 177.52V184H159.348V173.58H160.628V176.08C160.988 175.347 161.461 174.753 162.048 174.3C162.648 173.847 163.281 173.593 163.948 173.54C164.081 173.527 164.194 173.52 164.288 173.52C164.394 173.52 164.481 173.527 164.548 173.54V174.78ZM171.359 183.5C171.253 183.54 171.086 183.613 170.859 183.72C170.633 183.827 170.359 183.92 170.039 184C169.719 184.08 169.373 184.12 168.999 184.12C168.613 184.12 168.246 184.047 167.899 183.9C167.566 183.753 167.299 183.533 167.099 183.24C166.899 182.933 166.799 182.56 166.799 182.12V174.66H165.359V173.58H166.799V170.06H168.159V173.58H170.559V174.66H168.159V181.74C168.186 182.113 168.319 182.393 168.559 182.58C168.813 182.767 169.099 182.86 169.419 182.86C169.793 182.86 170.133 182.8 170.439 182.68C170.746 182.547 170.933 182.453 170.999 182.4L171.359 183.5Z" fill="black"/>
    <path d="M144.314 115L145.297 114.816L145.29 114.775L145.279 114.735L144.314 115ZM149.815 85.1142L148.819 85.1996L148.983 87.1097L150.455 85.8824L149.815 85.1142ZM127.814 65.113L127.881 64.1152L127.814 65.113ZM101.815 86.1144L100.816 86.0709L101.815 86.1144ZM74.3153 101.614L73.3372 101.406L73.3234 101.471L73.3183 101.537L74.3153 101.614ZM104.314 110.614L104.728 111.524L104.314 110.614ZM110.314 114.114L109.318 114.197L110.314 114.114ZM102.5 116.5L101.7 117.1L102.5 116.5ZM154.814 110.614L155.289 109.733L155.188 109.679L155.078 109.649L154.814 110.614ZM154.314 118.114L154.062 117.146L154.314 118.114ZM137.314 92.6139C136.762 92.6139 136.314 93.0616 136.314 93.6139C136.314 94.1662 136.762 94.6139 137.314 94.6139V92.6139ZM143.814 93.6139H144.814V92.6139H143.814V93.6139ZM114.814 92.6139C114.262 92.6139 113.814 93.0616 113.814 93.6139C113.814 94.1662 114.262 94.6139 114.814 94.6139V92.6139ZM120.814 93.6139L121.801 93.4495L121.662 92.6139H120.814V93.6139ZM108.314 84.6139L109.263 84.9301L109.273 84.8995L109.282 84.8684L108.314 84.6139ZM125.814 86.0857L125.76 87.0841L125.787 87.0857H125.814V86.0857ZM115.337 116.615L144.336 116L144.293 114L115.294 114.615L115.337 116.615ZM145.279 114.735C144.755 112.825 145.295 110.942 146.543 109.341C147.799 107.729 149.738 106.46 151.841 105.872C153.941 105.284 156.113 105.397 157.89 106.409C159.646 107.409 161.172 109.373 161.833 112.804L163.797 112.426C163.051 108.55 161.248 106.019 158.88 104.671C156.534 103.336 153.788 103.25 151.302 103.946C148.818 104.641 146.504 106.139 144.966 108.112C143.419 110.096 142.624 112.618 143.35 115.265L145.279 114.735ZM161.82 112.707C162.093 115.684 161.257 117.693 159.958 118.978C158.635 120.287 156.712 120.964 154.617 121.015C152.524 121.065 150.349 120.486 148.617 119.391C146.891 118.3 145.657 116.735 145.297 114.816L143.332 115.184C143.815 117.765 145.462 119.763 147.549 121.081C149.629 122.397 152.196 123.074 154.665 123.014C157.134 122.954 159.593 122.153 161.365 120.4C163.16 118.624 164.13 115.989 163.811 112.524L161.82 112.707ZM162.722 113.611C165.408 113.862 169.539 114.14 173.212 114.152C175.045 114.158 176.792 114.099 178.197 113.931C178.898 113.847 179.542 113.733 180.081 113.576C180.588 113.428 181.139 113.205 181.522 112.821L180.108 111.407C180.111 111.405 180.076 111.438 179.968 111.491C179.864 111.542 179.717 111.599 179.522 111.655C179.129 111.77 178.604 111.868 177.959 111.945C176.672 112.099 175.019 112.158 173.219 112.152C169.625 112.14 165.556 111.868 162.909 111.62L162.722 113.611ZM181.522 112.821C181.792 112.551 181.971 112.195 182.097 111.869C182.23 111.524 182.339 111.12 182.427 110.678C182.604 109.793 182.713 108.679 182.737 107.423C182.785 104.908 182.495 101.738 181.658 98.5477C179.993 92.2098 176.058 85.4742 167.98 84.1278L167.651 86.1006C174.572 87.2541 178.138 93.0186 179.723 99.0557C180.51 102.053 180.783 105.039 180.737 107.384C180.715 108.557 180.613 109.548 180.466 110.286C180.392 110.656 180.31 110.943 180.231 111.149C180.144 111.374 180.088 111.427 180.108 111.407L181.522 112.821ZM167.98 84.1278C161.931 83.1197 157.606 82.9025 154.64 83.053C153.157 83.1282 151.998 83.296 151.124 83.5101C150.285 83.7158 149.604 83.9889 149.175 84.346L150.455 85.8824C150.527 85.8228 150.846 85.6375 151.6 85.4526C152.32 85.2761 153.349 85.121 154.741 85.0504C157.524 84.9092 161.7 85.1087 167.651 86.1006L167.98 84.1278ZM150.812 85.0288C150.542 81.8785 148.693 76.9345 145.011 72.6488C141.302 68.3326 135.69 64.635 127.881 64.1152L127.748 66.1108C134.939 66.5895 140.077 69.9758 143.494 73.9522C146.937 77.9592 148.589 82.5166 148.819 85.1996L150.812 85.0288ZM127.881 64.1152C117.612 63.4317 110.908 65.8394 106.722 70.0963C102.559 74.3294 101.071 80.2065 100.816 86.0709L102.814 86.1578C103.059 80.5222 104.481 75.227 108.148 71.4987C111.791 67.7941 117.837 65.4511 127.748 66.1108L127.881 64.1152ZM100.816 86.0709C100.822 85.9437 100.87 85.7935 100.977 85.667C101.071 85.5551 101.166 85.5161 101.183 85.5093C101.194 85.5051 101.102 85.535 100.811 85.5341C100.253 85.5323 99.4246 85.4299 98.296 85.2931C96.1055 85.0277 93.0403 84.6691 89.7998 84.9938C86.549 85.3195 83.0655 86.3374 80.0624 88.8643C77.0532 91.3963 74.623 95.3623 73.3372 101.406L75.2934 101.822C76.5076 96.1154 78.7513 92.5813 81.3501 90.3946C83.955 88.2027 87.0137 87.283 89.9993 86.9838C92.9952 86.6836 95.8608 87.0126 98.0554 87.2786C99.1194 87.4075 100.098 87.5318 100.804 87.5341C101.146 87.5351 101.551 87.5114 101.904 87.375C102.092 87.3021 102.319 87.1772 102.505 86.957C102.703 86.7223 102.802 86.4412 102.814 86.1578L100.816 86.0709ZM96.4019 113.117C90.6606 112.618 86.2824 112.394 83.1115 112.148C79.8548 111.895 77.9148 111.618 76.7291 111.079C76.1743 110.827 75.8325 110.536 75.5996 110.193C75.3596 109.839 75.1843 109.355 75.0876 108.637C74.8867 107.144 75.0579 104.998 75.3124 101.691L73.3183 101.537C73.0727 104.729 72.8689 107.146 73.1055 108.904C73.2275 109.81 73.4742 110.623 73.9451 111.316C74.4231 112.02 75.0813 112.527 75.9015 112.899C77.4658 113.61 79.7758 113.895 82.9566 114.142C86.2232 114.396 90.4701 114.609 96.2287 115.11L96.4019 113.117ZM97.2931 114.323C97.6117 112.836 98.654 111.196 100.169 109.813C101.676 108.437 103.561 107.398 105.443 107.033C107.304 106.672 109.129 106.971 110.662 108.212C112.217 109.471 113.606 111.808 114.331 115.794L116.299 115.436C115.524 111.172 113.976 108.321 111.921 106.658C109.844 104.977 107.388 104.619 105.062 105.07C102.756 105.517 100.547 106.759 98.8202 108.336C97.1009 109.906 95.7685 111.892 95.3375 113.904L97.2931 114.323ZM95.3222 113.997C94.7346 118.987 98.9864 122.55 103.581 123.35C108.295 124.17 113.8 122.233 116.247 115.98L114.384 115.251C112.331 120.498 107.835 122.06 103.924 121.379C99.8934 120.678 96.8951 117.741 97.3084 114.231L95.3222 113.997ZM104.728 111.524C105.53 111.16 106.662 110.929 107.555 111.206C107.974 111.336 108.349 111.578 108.65 112.003C108.958 112.438 109.228 113.124 109.318 114.197L111.311 114.031C111.2 112.704 110.85 111.648 110.282 110.846C109.707 110.034 108.951 109.545 108.149 109.296C106.601 108.816 104.933 109.234 103.901 109.704L104.728 111.524ZM109.318 114.197C109.426 115.5 109.098 116.14 108.749 116.472C108.371 116.831 107.763 117.03 106.949 117.033C106.147 117.035 105.273 116.842 104.542 116.569C104.18 116.434 103.872 116.287 103.642 116.149C103.527 116.08 103.439 116.019 103.377 115.969C103.312 115.916 103.294 115.892 103.3 115.9L101.7 117.1C101.935 117.414 102.287 117.669 102.617 117.867C102.969 118.077 103.389 118.274 103.843 118.443C104.745 118.779 105.859 119.036 106.954 119.033C108.038 119.03 109.235 118.77 110.128 117.921C111.048 117.045 111.452 115.728 111.311 114.031L109.318 114.197ZM103.3 115.9C102.25 114.501 102.798 112.402 104.728 111.524L103.901 109.704C101.019 111.014 99.7495 114.499 101.7 117.1L103.3 115.9ZM154.34 111.494C154.756 111.718 155.292 112.146 155.77 112.701C156.248 113.258 156.605 113.87 156.748 114.435C156.883 114.973 156.82 115.427 156.526 115.825C156.206 116.258 155.506 116.77 154.062 117.146L154.567 119.082C156.243 118.644 157.437 117.957 158.134 117.014C158.858 116.035 158.936 114.934 158.687 113.947C158.445 112.986 157.892 112.102 157.286 111.397C156.679 110.691 155.957 110.093 155.289 109.733L154.34 111.494ZM154.062 117.146C153.085 117.401 152.513 117.115 152.144 116.674C151.717 116.164 151.465 115.314 151.508 114.367C151.551 113.423 151.879 112.566 152.386 112.045C152.841 111.576 153.512 111.295 154.551 111.579L155.078 109.649C153.367 109.182 151.936 109.638 150.951 110.651C150.018 111.612 149.569 112.983 149.51 114.276C149.451 115.564 149.773 116.957 150.61 117.958C151.505 119.027 152.887 119.52 154.567 119.082L154.062 117.146ZM124.818 90.6936C125.15 94.8431 125.507 104.771 124.33 111.44L126.299 111.788C127.522 104.857 127.146 94.718 126.811 90.5341L124.818 90.6936ZM142.814 93.6139C142.814 94.0439 142.747 94.6697 142.574 95.1502C142.487 95.3901 142.398 95.5267 142.337 95.5898C142.311 95.6168 142.299 95.6203 142.305 95.6176C142.314 95.6136 142.321 95.6139 142.314 95.6139V97.6139C143.6 97.6139 144.205 96.5236 144.455 95.8276C144.732 95.0581 144.814 94.1839 144.814 93.6139H142.814ZM137.314 94.6139H140.564V92.6139H137.314V94.6139ZM140.564 94.6139H143.814V92.6139H140.564V94.6139ZM142.314 95.6139C142.308 95.6139 142.307 95.6135 142.303 95.6118C142.297 95.6088 142.273 95.5969 142.235 95.5608C142.151 95.4811 142.044 95.3286 141.935 95.0836C141.717 94.5922 141.597 93.9601 141.561 93.5308L139.568 93.6969C139.615 94.2677 139.77 95.1356 140.107 95.8942C140.41 96.5787 141.07 97.6139 142.314 97.6139V95.6139ZM119.828 93.7783C119.901 94.2149 119.935 94.8348 119.845 95.2991C119.8 95.5333 119.74 95.6354 119.72 95.6599C119.717 95.6646 119.73 95.6475 119.763 95.6311C119.797 95.6137 119.821 95.6139 119.814 95.6139V97.6139C120.44 97.6139 120.942 97.3334 121.28 96.9117C121.587 96.5299 121.733 96.0695 121.809 95.6787C121.961 94.893 121.895 94.0128 121.801 93.4495L119.828 93.7783ZM114.814 94.6139H118.314V92.6139H114.814V94.6139ZM118.314 94.6139H120.814V92.6139H118.314V94.6139ZM119.814 95.6139C119.809 95.6139 119.748 95.6201 119.624 95.4808C119.493 95.3327 119.361 95.0921 119.263 94.7977C119.165 94.5044 119.127 94.237 119.127 94.0826C119.127 93.9934 119.14 94.0161 119.108 94.0988C119.087 94.1542 118.882 94.6139 118.314 94.6139V92.6139C117.622 92.6139 117.323 93.1673 117.239 93.3868C117.145 93.6336 117.127 93.8906 117.127 94.0826C117.127 94.4908 117.214 94.9734 117.366 95.4301C117.518 95.8857 117.761 96.3951 118.13 96.8095C118.506 97.2327 119.07 97.6139 119.814 97.6139V95.6139ZM83.6948 88.3988C84.3227 88.8945 84.8928 89.6963 85.2031 90.6139C85.5117 91.5266 85.5384 92.4748 85.2015 93.2974C84.5678 94.845 82.2872 96.6088 75.8911 96.1168L75.7378 98.1109C82.3417 98.6189 85.8945 96.8828 87.0524 94.0554C87.6113 92.6904 87.5235 91.2325 87.0977 89.9733C86.6736 88.719 85.8895 87.5833 84.9341 86.829L83.6948 88.3988ZM145.285 84.3714C144.727 82.1416 142.603 78.4864 139.514 75.4615C136.414 72.4255 132.154 69.8426 127.259 70.1146L127.37 72.1115C131.475 71.8835 135.215 74.051 138.115 76.8905C141.026 79.7409 142.902 83.0862 143.344 84.8564L145.285 84.3714ZM127.259 70.1146C122.657 70.3702 118.344 71.3965 114.837 73.6468C111.304 75.9136 108.658 79.3785 107.347 84.3594L109.282 84.8684C110.471 80.3493 112.825 77.3138 115.917 75.3301C119.035 73.33 122.972 72.3558 127.37 72.1115L127.259 70.1146ZM107.366 84.2977C107.225 84.7204 107.314 85.1451 107.556 85.4704C107.757 85.7411 108.03 85.9007 108.233 85.9971C108.65 86.1946 109.205 86.3214 109.782 86.4146C110.968 86.6063 112.628 86.7119 114.45 86.7803C118.18 86.9203 122.558 86.9083 125.76 87.0841L125.869 85.0872C122.699 84.913 118.078 84.9151 114.525 84.7817C112.706 84.7134 111.155 84.6105 110.101 84.4403C109.559 84.3526 109.238 84.26 109.09 84.1898C109.011 84.1523 109.078 84.1659 109.161 84.2772C109.284 84.443 109.342 84.6949 109.263 84.9301L107.366 84.2977ZM125.814 87.0857C130.272 87.0857 135.075 87.2057 138.657 87.0809C140.443 87.0187 142.009 86.8943 143.117 86.6421C143.656 86.5195 144.199 86.3433 144.609 86.0521C144.823 85.8998 145.048 85.6821 145.192 85.3761C145.344 85.0512 145.367 84.702 145.285 84.3714L143.344 84.8564C143.323 84.7697 143.325 84.6454 143.38 84.5279C143.427 84.4292 143.479 84.4013 143.449 84.4226C143.37 84.4787 143.143 84.5852 142.673 84.692C141.765 84.8987 140.363 85.0203 138.588 85.0821C135.048 85.2054 130.357 85.0857 125.814 85.0857V87.0857ZM126.319 71.0134L124.819 85.986L126.809 86.1853L128.309 71.2127L126.319 71.0134Z" fill="black"/>
    <defs>
    <filter id="filter0_d_37_9" x="0" y="0" width="257" height="257" filterUnits="userSpaceOnUse" color-interpolation-filters="sRGB">
    <feFlood flood-opacity="0" result="BackgroundImageFix"/>
    <feColorMatrix in="SourceAlpha" type="matrix" values="0 0 0 0 0 0 0 0 0 0 0 0 0 0 0 0 0 0 127 0" result="hardAlpha"/>
    <feOffset dy="4"/>
    <feGaussianBlur stdDeviation="8"/>
    <feComposite in2="hardAlpha" operator="out"/>
    <feColorMatrix type="matrix" values="0 0 0 0 0.591667 0 0 0 0 0.591667 0 0 0 0 0.591667 0 0 0 0.25 0"/>
    <feBlend mode="normal" in2="BackgroundImageFix" result="effect1_dropShadow_37_9"/>
    <feBlend mode="normal" in="SourceGraphic" in2="effect1_dropShadow_37_9" result="shape"/>
    </filter>
    </defs>
    </svg>
    