<svg width="150" height="150" viewBox="0 0 150 150" fill="none" xmlns="http://www.w3.org/2000/svg">
    <path d="M100.628 88.3877L94.4471 97.0082M94.4471 97.0082L100.628 101.689L108.87 88.3877L58.5953 51.3052L49.5293 62.9942L52.2079 65.0226M94.4471 97.0082L91.1504 94.5117M93.2108 91.2092L91.1504 94.5117M91.1504 94.5117L87.0295 91.3912M93.2108 82.7447L87.0295 91.3912M87.0295 91.3912L83.0631 88.3877M85.3811 84.76L83.0631 88.3877M83.0631 88.3877L79.3371 85.5662M85.3811 76.6986L79.3371 85.5662M79.3371 85.5662L75.903 82.9657M78.7877 79.117L75.903 82.9657M75.903 82.9657L72.4175 80.3263M77.5514 72.2648L72.4175 80.3263M72.4175 80.3263L69.2238 77.9078M72.4175 73.4741L69.2238 77.9078M69.2238 77.9078L65.6008 75.1644M71.3701 67.428L65.6008 75.1644M65.6008 75.1644L62.3041 72.6679M64.7766 69.0403L62.3041 72.6679M62.3041 72.6679L58.5953 69.8594M64.3645 61.785L58.5953 69.8594M58.5953 69.8594L54.8865 67.0509M57.7711 62.9942L54.8865 67.0509M54.8865 67.0509L52.2079 65.0226M57.7711 56.9482L52.2079 65.0226" stroke="#5A5A5A" stroke-linecap="round"/>
    <path d="M43.3878 44.5376C41.7938 43.1807 40.5618 43.3612 40.145 43.6211C39.5284 43.797 27.3978 32.6028 27.3854 33.0113C27.3754 33.338 35.0625 40.468 38.9072 43.9921C38.7669 44.1241 38.6422 44.6382 39.2659 45.6384C40.3792 49.3518 46.8397 52.0017 46.3939 53.2147C45.9481 54.4276 49.0415 60.2455 49.8584 60.2704C50.6753 60.2953 55.8133 52.6841 55.8257 52.2756C55.8382 51.8672 54.6875 49.3791 50.999 49.6755C47.3104 49.9719 45.3802 46.2336 43.3878 44.5376Z" fill="black" stroke="black" stroke-linecap="round"/>
    <path d="M109.283 99.1204C109.744 98.6785 110.471 98.6785 110.933 99.1204C111.756 99.646 112.525 100.251 113.23 100.927L113.408 101.096L115.058 102.282L115.607 102.633C116.058 102.921 116.425 103.322 116.673 103.796C116.696 103.84 116.708 103.888 116.708 103.937V104.084C116.708 104.432 116.508 104.748 116.195 104.898L116.101 104.943C115.957 105.012 115.8 105.048 115.64 105.048H115.058L113.82 104.258L112.17 103.072L111.593 102.741C110.607 102.173 109.692 101.489 108.87 100.701V100.044C108.87 99.7064 109.008 99.3836 109.252 99.1502L109.283 99.1204Z" fill="#BEE8FF"/>
    <path d="M111.523 96.881C111.984 96.4392 112.712 96.4392 113.173 96.881C113.996 97.4067 114.765 98.0116 115.471 98.6871L115.648 98.8569L117.298 100.042L117.847 100.393C118.298 100.681 118.666 101.082 118.913 101.557C118.936 101.6 118.948 101.649 118.948 101.698V101.845C118.948 102.192 118.748 102.509 118.435 102.659L118.342 102.704C118.198 102.773 118.04 102.809 117.88 102.809H117.298L116.06 102.018L114.41 100.833L113.834 100.501C112.847 99.934 111.932 99.2491 111.11 98.4617V97.8044C111.11 97.467 111.248 97.1442 111.492 96.9108L111.523 96.881Z" fill="#BEE8FF"/>
    <path d="M107.625 101.651C108.097 101.425 108.659 101.506 109.047 101.857L109.174 101.971L109.675 102.288C110.137 102.58 110.572 102.911 110.978 103.277C111.34 103.604 111.727 103.903 112.134 104.171L113.274 104.921L114.296 105.626L114.908 106.147C115.281 106.395 115.108 106.976 114.661 106.981L113.721 106.992C113.683 106.992 113.644 106.99 113.606 106.984L112.812 106.869L111.617 106.114L110.038 105.011L109.377 104.627C108.484 104.108 107.647 103.498 106.88 102.805L106.906 102.63C106.967 102.204 107.237 101.837 107.625 101.651Z" fill="#BEE8FF"/>
    <path d="M100.629 109.767C99.7944 109.629 98.2915 108.855 98.9594 106.865C99.7944 104.378 111.066 84.8943 113.153 84.8943C115.241 84.8943 117.328 87.7961 116.076 88.6252C115.648 88.908 113.764 91.7947 111.451 95.3611C111.588 95.1732 111.759 94.9844 111.901 94.8435C114.267 96.6398 119.081 100.233 119.415 100.233C119.972 99.1271 121.252 96.9991 121.92 97.3307C122.755 97.7453 124.842 97.7453 121.92 101.891C118.998 106.036 115.658 114.327 113.153 112.669C111.149 111.342 112.597 109.076 113.571 108.109L106.891 103.549L107.309 102.305C109.396 104.102 113.821 107.446 114.823 106.451C115.825 105.456 110.788 102.444 108.144 101.062L108.561 100.233C110.092 101.753 113.571 104.793 115.241 104.793C117.328 104.793 116.076 102.72 115.241 102.305C114.573 101.974 111.623 99.4035 110.231 98.1598L110.648 97.3307C112.597 99.1271 116.827 102.637 118.163 102.305C119.833 101.891 112.318 96.0871 111.483 96.0871C111.138 96.0871 111.15 95.8655 111.299 95.5942C106.844 102.462 100.901 111.658 100.629 109.767Z" fill="black" stroke="black" stroke-linecap="round"/>
    </svg>
    