<svg width="150" height="150" viewBox="0 0 150 150" fill="none" xmlns="http://www.w3.org/2000/svg">

<path d="M93.9874 72.9252C93.495 71.3471 93.0025 69.7691 92.51 68.191C92.8794 67.9482 93.1256 67.5841 93.0025 67.2199C92.7562 66.7344 92.6331 66.1274 92.3869 65.6419C92.2638 65.2777 92.1407 65.0349 92.0175 64.6708C92.2638 63.9424 92.2638 63.2141 91.7713 62.6072C91.5251 62.3644 91.2788 62.1216 90.9095 62.0002C90.5401 61.0291 90.0477 60.058 89.6783 59.0869C89.5552 58.9655 89.4321 58.8441 89.309 58.7228C88.8165 57.2661 88.2009 55.6881 87.5853 54.2314C86.4773 51.5609 85.3692 48.5262 83.5225 46.3412C83.3994 45.4915 82.4144 45.0059 81.5526 44.5204C80.5677 43.9134 79.5827 43.4279 78.5978 43.1851C76.9973 42.4568 75.5199 41.7284 73.9193 41.0001C73.4269 41.0001 69.9796 41.4857 70.4721 42.214C70.9645 42.8209 71.3339 43.5493 71.7032 44.1562C70.3489 44.7631 68.9947 45.4915 67.6404 46.2198C66.4092 46.0984 65.3011 46.0984 64.3162 45.1273C63.5775 44.2776 63.085 43.1851 63.3313 42.0926C63.4544 41.1215 60.8689 41.8498 60.4996 42.0926C59.5146 42.5782 58.5297 43.1851 57.5448 43.6707C55.8211 44.1562 54.2206 44.8845 52.9894 46.0984C52.6201 46.3412 52.2507 46.4626 51.8814 46.7054C51.6352 46.8267 51.2658 47.0695 51.2658 47.3123C50.7733 47.4337 50.2809 47.7978 50.1578 48.0406C48.311 53.8672 44.4944 58.9655 43.017 64.9135C42.7707 65.6419 42.6476 66.3702 42.6476 67.0985C42.4014 67.7055 42.1551 68.191 42.032 68.798C41.9089 69.0407 42.1551 69.1621 42.5245 69.1621C42.5245 73.0465 43.8788 76.8096 46.8336 79.8443C47.3261 80.3298 50.6502 79.6015 50.2809 78.7518C49.0497 75.4743 48.4341 72.1968 48.311 68.798C48.311 68.4338 48.311 68.0696 48.4341 67.7055C48.5572 67.5841 48.6803 67.4627 48.6803 67.3413C49.9115 64.6708 51.1427 62.1216 52.3739 59.4511C52.8663 60.9077 54.0975 62.3644 54.8362 63.6997C54.9593 63.8211 54.9593 64.0638 55.0824 64.1852C54.2206 65.1563 54.0975 66.4916 55.0824 67.4627C54.8362 68.9194 54.59 70.376 55.5749 71.7113L55.698 71.8327C56.1905 72.4396 59.1453 71.5899 59.1453 70.7402C59.1453 70.6188 59.1453 70.6188 59.1453 70.4974C59.6378 70.376 60.0071 70.2546 60.3765 70.1332C60.7458 70.0118 60.9921 69.8904 61.3614 69.7691C61.6076 69.7691 61.977 69.7691 62.1001 69.6477C67.271 68.798 72.5651 68.6766 77.736 69.2835V69.4049C77.4897 70.0118 79.4596 69.7691 80.5677 69.2835C81.3064 69.1621 82.1682 68.798 82.1682 68.3124C82.4144 67.0985 82.5375 66.006 82.7838 64.7922C82.7838 64.6708 82.7838 64.5494 82.6607 64.428C82.6607 63.8211 82.6606 63.2141 82.5375 62.6072C83.03 63.4569 83.7687 64.1852 84.6305 64.9135C84.7536 65.0349 84.9999 65.0349 85.3692 65.0349C85.4923 65.8847 86.1079 66.7344 86.4773 67.5841C86.9697 68.6766 87.5853 69.7691 88.0778 70.7402C88.2009 70.9829 88.6934 71.1043 89.1859 71.1043C89.6783 72.0754 90.1708 73.0465 90.5401 74.0176C90.7864 74.746 94.2337 73.7749 93.9874 72.9252ZM67.3941 57.3875C67.1479 57.0233 67.0248 56.6592 66.7786 56.295C66.7786 56.1736 66.7786 56.1736 66.7786 56.0522C66.9017 56.5378 67.1479 57.0233 67.3941 57.3875ZM72.1957 66.3702C72.1957 66.3702 72.1957 66.4916 72.3188 66.4916C72.1957 66.4916 72.0726 66.4916 71.9495 66.4916C71.9495 66.4916 72.0726 66.3702 72.1957 66.3702ZM60.0071 44.2776H59.884C59.884 44.2776 59.884 44.2776 60.0071 44.2776ZM69.1178 47.3123C68.9947 47.4337 68.9947 47.5551 68.9947 47.6765C68.9947 47.6765 68.9947 47.6765 68.9947 47.7978C68.8715 47.7978 68.8715 47.7978 68.8715 47.7978C68.9947 47.6765 69.1178 47.5551 68.9947 47.4337C68.9947 47.4337 69.1178 47.3123 69.1178 47.3123Z" fill="#C5E7FC"/>
<path d="M46.7145 94.1216C46.1042 92.2906 45.6159 90.2154 45.3718 88.2624C45.4939 85.5769 45.4939 82.8914 46.1042 80.328C46.1042 80.2059 46.1042 79.9618 46.1042 79.8397C46.2263 79.7176 46.2263 79.5956 46.3483 79.4735C46.1042 79.1073 45.738 78.7411 45.4939 78.3749L45.3718 78.2528L45.2497 78.1307C45.1277 78.0087 45.1277 77.8866 45.0056 77.7645C42.4422 84.1121 42.3201 95.4644 42.4422 100.835C42.5642 108.281 46.9587 120.732 51.8414 116.46C55.5034 113.286 56.3579 101.812 56.602 95.9526C57.8227 95.9526 58.9213 95.9526 60.142 95.9526C60.6303 96.3188 60.9965 96.685 61.4847 97.0512V97.1733C62.3392 100.103 62.5833 103.155 63.0716 106.084C62.9496 106.573 62.9495 107.061 62.8275 107.549C62.8275 107.671 62.8275 107.915 62.9495 108.037C62.9495 108.77 62.9496 109.502 63.0716 110.235C63.1937 110.845 63.3158 111.333 63.3158 111.944C63.1937 112.066 63.1937 112.066 63.0716 112.188C62.9496 112.31 62.9495 112.554 62.8275 112.676C61.2406 111.821 59.0434 111.821 57.4565 113.164C54.8931 115.239 55.1372 119.023 55.8696 121.831C56.602 124.639 57.7006 127.812 60.7523 128.789C63.682 129.887 66.6116 127.446 67.2219 124.761C67.4661 123.784 67.4661 122.93 67.4661 121.953C67.5881 122.197 67.8323 122.319 68.0764 122.441C68.5647 122.685 69.175 122.808 69.7853 122.808C70.6398 122.93 71.4943 122.93 72.3488 122.93C75.7667 123.052 79.1846 123.052 82.4804 122.93C86.2645 122.685 90.0486 122.197 93.8327 121.587C93.9548 121.587 93.9548 121.587 93.9548 121.587C93.9548 121.709 94.0768 121.831 94.0768 121.831C94.8092 123.174 96.0299 124.394 97.4947 125.005C98.8375 125.615 100.546 125.615 102.011 125.371C103.598 125.249 105.063 124.761 106.162 123.54C107.138 122.319 107.626 120.854 107.87 119.268C107.993 118.291 108.115 117.192 107.87 116.216C107.626 115.239 107.138 114.507 106.65 113.775C106.162 113.164 105.673 112.554 105.063 112.066C105.307 111.699 105.551 111.333 105.673 110.967H105.795C105.917 110.967 105.917 110.845 106.039 110.845C106.162 110.723 106.162 110.723 106.162 110.601C106.162 110.479 106.284 110.357 106.284 110.357V110.235C106.65 110.235 107.016 109.868 107.016 109.502C107.016 108.281 106.894 107.183 106.894 105.962C106.894 105.352 106.894 104.864 106.772 104.253C106.772 103.887 106.772 103.521 106.528 103.277C106.284 103.033 105.917 103.033 105.551 103.033C105.307 103.033 105.063 103.033 104.819 103.033C104.697 103.033 104.575 103.155 104.575 103.155C104.453 103.155 104.453 103.155 104.331 103.155C103.842 103.155 103.598 103.521 103.598 103.887C103.598 104.253 103.598 104.619 103.598 104.864C100.18 103.277 97.6168 100.225 96.5182 96.563C96.5182 96.4409 96.5182 96.4409 96.3961 96.3188C96.3961 95.3423 96.3961 94.732 96.3961 94.732C96.3961 94.732 95.5416 83.6238 93.2223 78.8631C90.9031 74.1025 88.8279 75.079 88.8279 75.079C88.7058 75.079 88.5838 75.079 88.4617 75.2011C88.7058 75.3232 88.95 75.4453 89.072 75.5673C89.3162 75.8115 89.5603 76.0556 89.8044 76.2997C89.8044 76.2997 89.8045 76.4218 89.9265 76.4218C90.6589 77.0321 91.2693 77.7645 91.7575 78.4969C92.3679 79.4735 92.8561 80.5721 92.8561 81.7928C92.9782 83.0135 92.7341 84.1121 92.7341 85.3327C92.7341 85.4548 92.7341 85.5769 92.612 85.6989C93.5886 90.0934 93.9548 95.8306 93.9548 95.8306C93.9548 95.8306 94.0768 110.723 90.9031 115.361C91.5134 115.972 92.0017 116.704 92.1237 117.681C92.4899 117.192 92.7341 116.704 93.1003 116.094C92.7341 117.437 92.7341 118.779 93.1003 120.244C86.8748 121.343 80.5273 121.831 74.1798 121.587C72.5929 121.587 71.006 121.465 69.5412 121.343C68.8088 121.221 68.3205 121.099 68.1985 120.244C68.0764 119.39 67.9543 118.657 67.9543 117.803V117.681C68.9309 117.681 69.9074 117.681 70.8839 117.681C71.3722 117.681 71.3722 116.948 70.8839 116.948C69.9074 116.948 68.8088 116.948 67.8323 116.948C67.5881 114.141 67.4661 111.333 67.5881 108.404C67.7102 104.986 68.0764 101.446 67.4661 98.0278C67.5881 97.5395 67.5881 97.0512 67.5881 96.563C67.5881 96.1968 67.5881 95.7085 67.4661 95.3423C67.5881 95.0982 67.4661 94.732 67.344 94.4878C67.0999 93.2671 66.6116 92.1685 66.0012 91.192C65.3909 89.9713 64.5364 88.8727 63.682 87.7741L66.7337 88.3844V83.8679C61.4847 83.5017 58.0668 82.7693 57.3344 82.6472C56.9682 80.328 56.3579 77.3983 55.2593 75.079C55.2593 74.957 55.3813 74.8349 55.3813 74.7128C55.5034 74.1025 55.5034 73.4922 55.5034 72.8818C55.7475 72.6377 55.8696 72.2715 55.7476 71.9053C55.6255 71.7832 55.6255 71.6612 55.5034 71.417C55.5034 71.2949 55.3813 71.1729 55.3813 70.9287C55.3813 70.8067 55.3814 70.8067 55.2593 70.6846C54.8931 69.3419 55.0151 67.877 55.0151 66.6564C55.0151 65.6798 55.1372 64.7033 55.1372 63.8488C55.1372 62.9943 54.4048 62.7502 54.2827 62.0178C54.1607 61.6516 53.9165 61.5295 53.6724 61.4075C53.6724 60.553 53.6724 59.8206 53.6724 58.9661C53.6724 58.4778 52.94 58.3558 52.94 58.844V58.9661C52.6959 60.7971 52.5738 62.7502 52.8179 64.5812C52.8179 65.8019 52.8179 67.1446 52.8179 68.3653C52.8179 69.3419 52.8179 70.3184 52.8179 71.417C52.5738 71.1729 52.2076 71.0508 51.9635 70.9287L50.1324 72.8818C49.7662 72.7598 49.5221 72.7598 49.4 72.7598C49.4 73.126 49.5221 73.6142 49.4 73.9804C49.4 74.1025 49.5221 74.3466 49.5221 74.4687C49.6442 75.2011 49.7662 76.0556 49.7662 76.9101C50.1324 77.0321 50.4986 77.3983 50.9869 77.8866C50.7428 78.2528 50.4986 78.619 50.3766 79.1073C50.3766 79.3514 50.6207 79.3514 50.6207 79.2294C50.7428 78.8632 50.8648 78.4969 51.109 78.2528C51.3531 78.619 51.7193 79.1073 51.9635 79.8397C51.8414 80.0838 51.7193 80.328 51.4752 80.5721C51.4752 80.6942 51.4752 80.6942 51.4752 80.8162C51.5972 80.8162 51.5972 80.8162 51.7193 80.8162C51.8414 80.6942 51.9635 80.45 52.0855 80.328C52.6959 81.6707 53.1841 83.7459 53.5503 85.821C53.3062 86.0651 53.1841 86.3093 52.94 86.5534C52.8179 86.6755 52.5738 86.9196 52.4517 87.0417C52.3297 87.1637 52.2076 87.4079 51.9635 87.53C51.8414 87.53 51.9635 87.652 51.9635 87.7741C52.0855 87.8962 52.0855 87.7741 52.2076 87.7741C52.3297 87.652 52.4517 87.4079 52.6959 87.2858C52.8179 87.1638 53.0621 86.9196 53.1841 86.7976C53.3062 86.6755 53.5503 86.4313 53.6724 86.3093C53.9165 88.1403 54.1607 89.9713 54.2827 91.3141C53.7945 91.5582 53.1841 91.6803 52.6959 91.9244C52.6959 91.192 52.5738 90.4596 52.5738 89.7272C52.4517 88.7506 50.8648 88.7506 50.9869 89.7272C51.109 90.5817 51.231 91.8023 51.231 92.6568C51.231 93.1451 51.231 93.5113 51.231 93.9995M46.7145 94.1216C46.7145 94.2437 46.7145 94.2437 46.5925 94.2437C46.1042 94.2437 45.738 93.7554 45.3718 93.3892C45.2497 93.2671 45.2497 93.2671 45.2497 93.2671M46.7145 94.1216C46.7145 94.1216 46.7145 94.1216 46.5925 94.1216M47.0807 93.7554C46.9587 90.8258 46.9587 87.8962 47.2028 84.9665C47.2028 84.7224 46.9587 84.7224 46.8366 84.9665M49.0338 87.1638C49.0338 86.9196 48.7897 86.9196 48.6676 87.1638M47.4469 93.7554C48.6676 92.0465 49.8883 90.3375 51.109 88.7506C51.231 88.6286 50.9869 88.3844 50.8648 88.6286M53.9165 103.277C54.1607 102.178 54.2827 100.347 54.4048 99.4926M53.9165 103.277C53.4283 102.666 52.8179 101.934 52.3297 101.324C52.2076 102.178 52.2076 103.033 52.0855 103.887M53.9165 103.277C53.9165 104.131 53.663 105.662 53.5409 106.638M52.5738 100.835C52.6959 100.103 52.6959 99.2485 52.6959 98.516M54.1607 99.7367C54.2827 99.8588 54.2827 99.4926 54.4048 99.4926M54.4048 99.4926C53.7945 99.0043 53.3062 98.516 52.6959 98.0278C52.6959 97.2954 52.8179 96.685 52.8179 95.9526C53.4283 95.9526 54.0386 95.9526 54.5269 95.9526C54.5269 96.9292 54.4048 98.1499 54.4048 99.4926ZM53.0621 109.136C53.3062 108.281 53.4283 107.427 53.5503 106.573C53.1841 105.962 52.8179 105.352 52.4517 104.742C52.3297 104.619 52.2076 104.375 52.0855 104.253C52.0855 105.108 51.9634 105.962 51.8414 106.817C51.9634 106.939 51.9635 107.183 52.0855 107.305M50.9869 99.3705C50.9869 99.4926 50.9869 99.4926 50.9869 99.3705ZM50.9869 99.3705C50.9869 100.103 50.9869 100.713 50.8648 101.446C49.8883 99.6147 48.9118 97.6616 48.0573 95.8306M45.1277 95.2202C45.2497 95.2202 45.3718 95.0982 45.4939 95.0982C45.738 94.9761 45.9821 94.854 46.2263 94.732C46.2263 94.854 46.2263 95.0982 46.2263 95.2202M48.3014 111.821C48.1794 111.944 48.1794 111.944 48.0573 112.066C46.2263 108.892 45.4939 105.352 45.2497 101.812C45.3718 99.7367 45.738 97.6616 46.4704 95.7085C46.4704 95.7085 46.4704 95.7085 46.5925 95.8306C46.5925 95.9526 46.9587 97.5395 46.9587 97.7836M49.8883 108.892C49.6442 109.868 49.1559 110.723 48.5456 111.455M50.4986 104.864C50.3766 105.962 50.2545 107.183 50.0104 108.281C48.7897 104.253 47.6911 100.225 46.9587 96.0747C46.9587 95.9526 46.9587 95.8306 46.9587 95.7085C47.0807 95.7085 47.0807 95.7085 47.2028 95.7085M50.7428 102.056C50.7428 102.3 50.7428 102.422 50.7428 102.666C50.7428 103.155 50.6207 103.643 50.6207 104.253M47.569 95.8306H47.6911M48.3014 95.8306C48.5456 96.0747 48.6676 96.3188 48.9118 96.563C49.6442 97.4174 50.2545 98.1499 50.9869 99.0043C50.9869 98.394 51.109 97.7836 51.109 97.1733C51.109 96.9292 51.231 96.0747 51.231 95.8306C50.7428 95.8306 50.3766 95.8306 49.8883 95.8306M51.5972 113.042C52.0855 112.188 52.5738 110.967 53.0621 109.502C52.8179 109.014 52.4517 108.404 52.3297 108.159C52.0855 107.915 51.9634 107.549 51.8414 107.305C51.5972 108.526 51.3531 109.624 50.8648 110.723M59.5317 123.174C59.4096 122.93 59.4096 122.808 59.2875 122.685C59.1654 122.319 59.0434 122.075 58.9213 121.709C59.0434 121.587 59.1654 121.587 59.4096 121.465C59.4096 121.587 59.4096 121.709 59.4096 121.709C59.4096 121.953 59.5317 122.075 59.6537 122.197M58.9213 121.465C58.7992 121.221 58.7992 120.854 58.6772 120.488C58.9213 120.732 59.2875 120.854 59.5317 121.099V121.221M58.5551 120C58.433 119.512 58.433 119.023 58.433 118.535C58.6772 119.146 58.9213 119.634 59.1654 120.244V120.366M58.5551 117.803C58.5551 117.437 58.6772 116.948 58.7992 116.582C58.9213 117.437 59.0434 118.413 59.0434 119.268M61.1185 121.099C61.1185 120.977 61.2406 120.854 61.2406 120.854C61.973 120.244 62.5833 119.634 63.4378 119.146C63.5599 119.512 63.682 119.878 63.804 120.244M61.4847 120.122C61.6068 119.878 61.6068 119.756 61.7289 119.512C61.973 118.779 62.2171 118.047 62.5833 117.314C62.5833 117.314 62.5833 117.192 62.7054 117.192C62.9495 117.681 63.1937 118.169 63.4378 118.779M60.9965 121.831C60.9965 121.709 60.9965 121.587 60.9965 121.465C61.8509 121.099 62.8275 120.732 63.804 120.488C63.9261 120.977 64.0482 121.465 64.0482 121.953M60.5082 115.361C60.8744 115.361 61.2406 115.483 61.4847 115.728C61.3627 116.094 61.1185 116.582 60.9965 116.948C60.6303 117.681 60.3861 118.535 60.142 119.268M59.0434 116.094C59.2875 115.728 59.7758 115.361 60.2641 115.361C60.0199 117.07 59.8979 118.657 59.7758 120.366C59.7758 120.488 59.7758 120.488 59.6537 120.61C59.6537 120.488 59.5317 120.366 59.5317 120.244M61.6068 125.981C60.7523 125.615 60.142 124.639 59.7758 123.662C59.8979 123.296 59.8979 122.808 60.0199 122.441M64.0482 124.394C63.804 125.249 63.1937 126.103 62.2171 126.103C62.0951 126.103 62.0951 126.103 61.973 126.103C61.8509 125.737 61.6068 125.371 61.4847 125.005C61.1185 124.15 60.6303 123.418 60.3861 122.563H60.5082M104.819 118.779C104.697 119.634 104.453 120.732 104.086 121.343C104.086 121.465 103.964 121.587 103.842 121.709C102.866 120.854 101.889 120 100.913 119.146M100.913 119.146C100.913 119.023 101.035 119.023 101.035 118.901M100.913 119.146C100.668 119.512 100.546 119.756 100.302 120.122C100.18 120.244 100.18 120.244 100.18 120.244C100.18 120.977 100.18 121.709 100.18 122.441C100.424 122.441 100.791 122.441 101.035 122.441C101.279 122.441 101.523 122.441 101.767 122.441C101.889 122.441 102.011 122.441 102.133 122.441C102.133 122.441 102.133 122.441 102.255 122.441C102.744 122.441 103.11 122.319 103.476 122.075C103.598 121.953 103.598 121.953 103.72 121.831M97.2506 121.221C96.6402 120.488 96.3961 119.634 96.274 118.779C96.8844 118.901 97.4947 118.779 98.1051 118.779C98.5933 118.779 98.9595 118.779 99.4478 118.779C99.3257 118.901 99.3257 119.023 99.2037 119.146M96.152 118.413C96.152 117.559 96.274 116.826 96.6403 116.216C96.7623 115.972 96.8844 115.85 97.0064 115.606C97.7389 116.582 98.7154 117.437 99.5699 118.169C99.5699 118.291 99.4478 118.291 99.4478 118.413M100.302 113.897H100.424C100.668 113.897 101.157 114.019 101.401 114.263C101.523 114.385 101.645 114.507 101.889 114.507C101.279 115.483 100.791 116.338 100.18 117.314M97.2506 115.361C97.7389 114.873 98.3492 114.385 99.0816 114.141C99.3257 114.019 99.6919 113.897 99.9361 113.897C99.9361 115.239 99.9361 116.46 99.814 117.803C99.814 117.803 99.814 117.925 99.6919 117.925M99.814 122.563C99.6919 122.563 99.5699 122.563 99.4478 122.563C98.5933 122.441 97.983 122.075 97.3727 121.465C97.8609 120.977 98.3492 120.488 98.7154 120C98.7154 120.488 99.3257 120.854 99.814 120.61M66.2454 107.549C66.2454 107.427 66.2454 107.427 66.2454 107.305C66.1233 106.939 66.0012 106.573 65.635 106.328C65.3909 106.206 65.0247 106.206 64.7806 106.206C65.1468 104.619 65.8792 103.155 66.4895 101.69C66.4895 103.643 66.3674 105.596 66.2454 107.549ZM56.2358 87.53L58.0668 87.2858C58.0668 87.2858 58.0668 87.0417 58.0668 86.6755L61.4847 87.4079C62.5833 88.7506 63.804 90.2154 64.6585 91.8023C65.1468 92.6568 65.513 93.5113 65.8792 94.4878C64.1702 94.4878 62.4613 94.4878 60.7523 94.4878C60.3861 94.2437 60.0199 93.9995 59.6537 93.6333C58.6772 92.9009 57.7006 92.2906 56.7241 91.8023C56.602 90.7037 56.3579 88.6286 56.1138 86.3093C55.9917 86.6755 56.1138 87.0417 56.2358 87.53ZM47.3249 94.2437C48.6676 94.2437 49.8883 94.3657 51.231 94.3657C49.8883 94.2437 48.5456 94.2437 47.3249 94.2437ZM52.8179 94.3657C53.4283 94.3657 54.0386 94.3657 54.5269 94.3657V94.4878C53.9165 94.3658 53.3062 94.3657 52.8179 94.3657ZM54.4048 91.5582C54.5269 92.9009 54.6489 93.7554 54.6489 93.7554C54.6489 93.7554 54.6489 93.8775 54.6489 93.9995C54.0386 93.9995 53.4283 93.9995 52.94 93.9995C52.94 93.3892 52.94 92.7789 52.94 92.1685C53.3062 91.9244 53.7945 91.8023 54.4048 91.5582ZM47.8131 114.019C48.0573 113.897 48.3014 113.775 48.5456 113.652C48.5456 113.775 48.5456 113.897 48.5456 114.019C48.5456 114.263 48.9118 114.263 48.9118 114.019C48.9118 113.897 48.9118 113.652 48.9118 113.53C49.7662 112.92 50.2545 112.188 50.7428 111.333C50.9869 112.066 51.231 112.676 51.3531 113.408C51.3531 113.53 51.4752 113.53 51.4752 113.53C51.3531 113.775 51.109 114.019 50.9869 114.141C49.7662 114.995 48.6676 114.873 47.8131 114.019ZM56.602 93.6333C57.0903 93.8775 57.4565 94.2437 57.9448 94.4878C57.4565 94.4878 57.0903 94.4878 56.602 94.4878C56.602 94.1216 56.602 93.8775 56.602 93.6333ZM63.0716 96.9292C63.1937 96.685 63.0716 96.4409 62.8275 96.1968C62.7054 96.0747 62.7054 96.0747 62.5833 95.9526C63.804 95.9526 64.9026 95.9526 66.1233 95.9526C66.1233 96.3188 66.2454 96.8071 66.1233 97.1733C66.1233 97.2954 66.1233 97.5395 66.0012 97.6616C66.0012 97.7836 66.0012 97.7836 66.0012 97.9057C65.7571 99.4926 64.9026 100.957 64.2923 102.422C64.1702 102.544 64.1702 102.666 64.0482 102.91C63.9261 100.957 63.682 98.8823 63.0716 96.9292ZM64.1702 122.319C64.1702 122.808 64.1702 123.418 64.0482 124.028C63.4378 123.662 62.8275 123.296 62.2171 123.052C61.7289 122.808 61.3627 122.563 60.8744 122.441C60.9965 122.319 60.9965 122.319 60.9965 122.197C62.0951 122.197 63.0716 122.197 64.1702 122.319ZM64.9026 114.995C64.7806 114.751 64.6585 114.629 64.4144 114.507C64.2923 114.263 64.1702 114.019 63.9261 113.897C64.0482 113.652 64.1702 113.408 64.1702 113.286C64.2923 113.286 64.4144 113.164 64.5364 113.042C64.6585 113.042 64.6585 113.042 64.7806 113.042C65.2688 113.042 65.7571 113.042 66.0012 112.554C66.0012 114.507 66.1233 116.582 66.3674 118.535C66.1233 117.192 65.513 116.094 64.9026 114.995ZM101.767 118.413C101.645 118.413 101.523 118.413 101.279 118.413C101.889 117.314 102.622 116.216 103.232 115.117C103.476 115.361 103.72 115.728 103.964 115.972C104.575 116.704 104.697 117.437 104.697 118.291C103.842 118.413 102.866 118.413 101.767 118.413ZM95.0534 113.286C94.6872 113.775 94.321 114.263 93.9548 114.751C95.4196 110.601 96.0299 104.619 96.274 100.347C97.7389 103.033 100.058 105.23 102.988 106.573C103.232 106.695 103.476 106.695 103.72 106.573C103.72 107.061 103.842 107.549 103.842 108.037C103.842 108.404 103.964 108.77 103.964 109.136C103.964 109.502 104.086 109.868 104.331 110.235C104.453 110.357 104.575 110.357 104.697 110.479C104.453 110.967 104.086 111.333 103.842 111.821C103.598 111.699 103.354 111.699 103.11 111.577C100.424 109.868 97.0064 111.089 95.0534 113.286ZM102.133 122.563C102.011 122.563 102.011 122.563 102.133 122.563Z" stroke="black" stroke-width="0.8" stroke-miterlimit="10" stroke-linecap="round" stroke-linejoin="round"/>
<path d="M67.1015 21.8574C67.1015 21.8574 63.6836 20.5146 62.3408 23.9325C62.3408 23.9325 60.9981 25.2753 61.2422 26.9842C61.2422 26.9842 60.9981 29.4256 61.8526 30.5242L62.3408 31.2566L62.585 27.5945C62.585 27.5945 62.4629 26.2518 64.1719 25.7635C64.1719 25.7635 65.1484 24.2987 67.7118 25.3973L68.8104 25.8856C68.8104 25.8856 69.1766 25.2753 70.8856 25.6415C72.5945 26.0077 72.4725 27.3504 72.4725 27.3504V30.4021C72.4725 30.4021 73.8152 29.4256 73.8152 27.9608C73.8152 27.9608 74.6697 27.2283 74.1814 26.0077C74.1814 26.0077 74.0594 24.5429 73.0828 23.4442C72.1063 22.3456 69.4208 20.1484 67.1015 21.8574Z" fill="#E0E0E0"/>
<path d="M62.4613 27.5944C61.973 32.1109 61.4847 38.8246 67.344 39.9232C67.7102 39.9232 67.8323 39.557 67.466 39.4349C64.2923 38.7025 62.7054 36.3832 62.4613 33.0874C62.3392 31.2564 62.4613 29.4254 62.5833 27.5944C62.7054 27.4723 62.4613 27.4723 62.4613 27.5944Z" fill="black"/>
<path d="M72.2287 26.9842C72.2287 29.1815 72.3508 31.3787 72.3508 33.5759C72.2287 36.8717 70.7639 38.5807 67.5901 39.5572C67.346 39.6793 67.468 40.0455 67.7122 39.9234C69.5432 39.5572 71.6183 38.4586 72.3508 36.7497C72.9611 35.529 72.7169 33.9421 72.7169 32.5994C72.7169 30.7683 72.717 28.8153 72.4728 26.9842C72.5949 26.7401 72.2287 26.7401 72.2287 26.9842Z" fill="black"/>
<path d="M63.5625 37.604C63.4404 38.8247 63.1963 40.4116 63.4404 41.6322C63.4404 41.7543 63.6845 41.7543 63.8066 41.6322C64.1728 40.4116 64.0507 38.9467 63.9287 37.604C63.8066 37.3599 63.5625 37.3599 63.5625 37.604Z" fill="black"/>
<path d="M70.8857 38.0924C70.8857 38.9469 70.8857 39.8014 71.0078 40.5338C71.0078 40.7779 71.374 40.6558 71.4961 40.5338C71.6181 39.8014 71.374 38.9469 71.2519 38.0924C71.1299 37.8483 70.8857 37.8483 70.8857 38.0924Z" fill="black"/>
<path d="M62.3393 31.1345C62.2173 30.7683 61.729 30.4021 61.2407 30.4021C60.7524 30.4021 60.5083 31.0124 60.3862 31.5007C60.2642 32.2331 60.5083 32.9655 60.8745 33.4538C61.2407 33.9421 61.729 34.5524 62.4614 34.3083C62.7055 34.1862 62.5835 33.9421 62.4614 33.9421C61.729 33.9421 61.1187 32.8435 60.9966 32.2331C60.9966 31.989 60.8745 31.5007 60.9966 31.2566C61.2407 30.6462 61.9731 30.8904 62.2173 31.2566C62.2173 31.3786 62.4614 31.2566 62.3393 31.1345Z" fill="black"/>
<path d="M72.8369 31.3785C73.081 31.0123 73.5693 29.9137 74.0576 30.6461C74.3017 30.8902 74.1797 31.5006 74.1797 31.7447C74.1797 32.1109 74.0576 32.5992 73.8134 32.9654C73.6914 33.2095 73.081 33.6978 72.8369 33.5757C72.7148 33.5757 72.5928 33.5757 72.5928 33.8199V33.9419C72.5928 34.064 72.7148 34.064 72.8369 34.064C74.3017 34.1861 74.79 31.9888 74.5459 31.0123C74.4238 30.524 74.1797 30.0358 73.5693 30.0358C72.959 30.0358 72.5928 30.7682 72.4707 31.2564C72.4707 31.3785 72.7148 31.5006 72.8369 31.3785Z" fill="black"/>
<path d="M73.2051 31.0125C73.4492 31.2566 73.5713 31.5007 73.6934 31.8669C73.8154 32.1111 73.8154 32.4773 73.9375 32.7214C74.0596 32.8435 74.1816 32.8435 74.3037 32.7214C74.4258 32.3552 74.1816 31.989 74.0596 31.6228C73.9375 31.2566 73.6934 31.0125 73.4492 30.8904C73.3272 30.7683 73.2051 30.8904 73.2051 31.0125Z" fill="black"/>
<path d="M73.5701 31.5008C73.448 31.7449 73.3259 31.989 73.2039 32.3552C73.0818 32.5994 72.9597 32.8435 73.0818 33.0876H73.2039C73.3259 32.9656 73.448 32.5994 73.448 32.4773C73.5701 32.2332 73.6922 31.989 73.6922 31.6228C73.8142 31.5008 73.5701 31.3787 73.5701 31.5008Z" fill="black"/>
<path d="M61.1182 32.2333C61.4844 31.8671 61.8506 31.623 62.2168 31.5009C62.3388 31.3788 62.2168 31.1347 62.0947 31.2568C61.6064 31.3788 61.2402 31.7451 60.874 32.1113C60.874 32.2333 60.9961 32.3554 61.1182 32.2333Z" fill="black"/>
<path d="M61.2412 31.8669C61.2412 32.1111 61.3633 32.3552 61.4853 32.5993C61.6074 32.8435 61.6074 33.0876 61.7295 33.0876C61.8515 33.0876 61.8516 33.0876 61.9736 32.9656C62.0957 32.7214 61.8516 32.4773 61.8516 32.3552C61.7295 32.1111 61.7295 31.8669 61.6074 31.6228C61.3633 31.6228 61.2412 31.7449 61.2412 31.8669Z" fill="black"/>
<path d="M67.7119 25.1532C66.4912 24.4207 64.9043 24.4208 64.0499 25.6414C63.9278 25.7635 64.1719 26.0076 64.294 25.7635C65.1485 24.6649 66.4912 24.909 67.5898 25.2752C67.7119 25.3973 67.834 25.2752 67.7119 25.1532Z" fill="black"/>
<path d="M64.6591 26.0077C64.1709 26.0077 63.6826 26.0077 63.1943 26.2518C62.8281 26.496 62.4619 27.1063 62.4619 27.5946C62.4619 27.5946 62.584 27.7166 62.584 27.5946C62.8281 27.3504 62.9502 26.8622 63.3164 26.618C63.6826 26.2518 64.1709 26.1298 64.6591 26.1298C64.7812 26.1298 64.7812 26.0077 64.6591 26.0077Z" fill="black"/>
<path d="M67.8318 25.3975C68.0759 25.1533 68.3201 24.9092 68.6863 24.7871C68.9304 24.6651 69.1746 24.4209 69.4187 24.2988C69.5408 24.1768 69.4187 24.0547 69.2966 24.1768C69.0525 24.2989 68.6863 24.4209 68.5642 24.6651C68.3201 24.9092 68.0759 25.1533 67.7097 25.3975C67.5877 25.3975 67.7097 25.5195 67.8318 25.3975Z" fill="black"/>
<path d="M68.0785 25.5194C68.3226 25.3973 68.5667 25.2753 68.8109 25.2753C69.055 25.1532 69.1771 25.1532 69.4212 25.0311C69.5433 25.0311 69.4212 24.787 69.4212 24.787C68.9329 24.787 68.4447 25.1532 68.0785 25.2753C67.8343 25.3973 67.9564 25.6415 68.0785 25.5194Z" fill="black"/>
<path d="M68.8098 25.7636C68.9319 25.7636 69.054 25.6415 69.176 25.6415C69.2981 25.6415 69.4202 25.6415 69.4202 25.5194V25.3974C69.176 25.2753 68.9319 25.3974 68.6878 25.5194C68.4436 25.6415 68.5657 25.8856 68.8098 25.7636Z" fill="black"/>
<path d="M69.7845 25.2753C70.0286 25.1532 70.3948 25.1532 70.639 25.1532C71.0052 25.1532 71.2493 25.2753 71.4934 25.2753C71.6155 25.2753 71.6155 25.1532 71.6155 25.1532C71.1273 24.6649 70.2728 24.9091 69.7845 25.0311C69.5404 25.0311 69.6624 25.2753 69.7845 25.2753Z" fill="black"/>
<path d="M70.8839 25.6415C71.128 25.6415 71.4942 25.7635 71.7384 25.8856C71.9825 26.0077 72.1046 26.2518 72.3487 26.4959C72.4708 26.618 72.5928 26.4959 72.5928 26.3739C72.4708 25.7635 71.6163 25.3973 71.006 25.2753C70.7618 25.5194 70.7618 25.6415 70.8839 25.6415Z" fill="black"/>
<path d="M67.1005 21.8576C65.8798 21.4914 64.9033 21.2472 63.8047 21.9796C62.9502 22.4679 62.2178 23.2003 62.0957 24.1769C62.0957 24.2989 62.2178 24.2989 62.3398 24.1769C62.584 23.2003 63.1943 22.59 64.1709 22.1017C65.0253 21.7355 66.1239 21.8576 67.1005 21.8576C67.2225 21.9796 67.2225 21.9796 67.1005 21.8576Z" fill="black"/>
<path d="M63.3185 23.5664C62.0978 23.4444 60.8771 25.5195 61.1213 26.6181C61.1213 26.7402 61.2433 26.7402 61.2433 26.6181C61.4875 26.1299 61.4875 25.5195 61.7316 25.0312C61.9757 24.543 62.5861 23.8106 63.1964 23.8106C63.4406 23.8106 63.4406 23.5664 63.3185 23.5664Z" fill="black"/>
<path d="M61.9747 25.7634C60.754 26.74 60.6319 28.8151 61.3643 30.0358H61.4864C61.4864 28.571 60.9981 27.1062 62.0967 25.8855C62.3409 25.8855 62.0967 25.6414 61.9747 25.7634Z" fill="black"/>
<path d="M61.7305 29.0592C61.6084 29.5475 61.4863 30.4019 61.8525 30.8902H61.9746C61.9746 30.6461 61.8525 30.4019 61.8525 30.0357C61.8525 29.6695 61.8525 29.4254 61.8525 29.0592C61.8525 28.9371 61.7305 28.9371 61.7305 29.0592Z" fill="black"/>
<path d="M67.2244 21.9794C68.323 20.7587 69.7878 21.6132 71.1306 21.8573C71.2526 21.8573 71.2526 21.7352 71.2526 21.7352C70.154 20.8808 68.0789 20.6366 67.1023 21.7352C66.9803 21.9794 67.1023 22.1014 67.2244 21.9794Z" fill="black"/>
<path d="M69.7869 22.3456C70.2751 22.3456 70.6413 22.3456 71.1296 22.3456C71.6179 22.3456 71.862 22.4677 72.3503 22.7119C72.4724 22.7119 72.5944 22.7119 72.4724 22.5898C72.1061 21.7353 70.3972 21.9794 69.7869 22.2236C69.6648 22.1015 69.6648 22.3456 69.7869 22.3456Z" fill="black"/>
<path d="M71.2525 22.9559C71.7408 23.078 72.107 23.2001 72.5952 23.3221C72.9614 23.4442 73.3276 23.8104 73.6938 24.0545C73.8159 24.0545 73.938 23.9325 73.8159 23.9325C73.2056 23.2001 72.107 22.8339 71.2525 22.8339C71.2525 22.7118 71.1304 22.9559 71.2525 22.9559Z" fill="black"/>
<path d="M72.7166 24.1765C73.0828 24.6647 73.5711 24.7868 73.8152 25.3972C74.0593 26.0075 74.1814 26.6178 74.5476 27.1061C74.5476 27.2282 74.7917 27.2282 74.7917 27.1061C74.6697 26.4958 74.4255 25.7634 74.0593 25.153C73.8152 24.5427 73.2049 24.5427 72.8387 24.1765C72.7166 23.9323 72.5945 24.0544 72.7166 24.1765Z" fill="black"/>
<path d="M73.2051 26.2518C73.8154 26.8622 73.5713 27.8387 73.6934 28.6932C73.6934 28.8153 73.8154 28.6932 73.8154 28.6932C74.0596 28.327 73.9375 27.7166 73.8154 27.2284C73.6933 26.7401 73.5713 26.3739 73.2051 26.1298C73.3271 26.0077 73.2051 26.2518 73.2051 26.2518Z" fill="black"/>
<path d="M73.083 27.961C73.083 28.4492 73.083 28.8154 72.9609 29.1816C72.8389 29.5478 72.5947 29.914 72.5947 30.2802C72.5947 30.4023 72.7168 30.6464 72.8389 30.4023C73.3271 29.792 73.5713 28.5713 73.3271 27.8389C73.3271 27.7168 73.083 27.8389 73.083 27.961Z" fill="black"/>
<path d="M71.1289 40.5337C71.1289 42.975 71.0068 46.1488 67.5889 46.0267C66.4903 46.0267 65.2696 45.5385 64.5372 44.684C63.5607 43.7075 63.6828 42.3647 63.8048 41.144C63.8048 40.8999 63.4386 40.8999 63.4386 41.144C63.1945 42.3647 63.0724 43.9516 63.9269 44.9281C64.7814 45.9047 66.3683 46.3929 67.5889 46.3929C71.0068 46.515 71.7392 43.2192 71.373 40.5337C71.373 40.4116 71.1289 40.4116 71.1289 40.5337Z" fill="black"/>
<path d="M63.4388 40.2897C59.5326 42.1207 55.5044 44.0738 51.7203 46.0269C51.4761 46.1489 51.7203 46.3931 51.9644 46.3931C55.8706 44.562 59.7767 42.4869 63.6829 40.5338C63.6829 40.5338 63.5608 40.2897 63.4388 40.2897Z" fill="black"/>
<path d="M52.5753 47.2477C54.6504 49.4449 54.6504 52.9849 55.1387 55.9145C55.1387 56.1586 55.5049 56.0366 55.5049 55.9145C55.2607 52.9849 55.0166 49.3229 52.8194 47.1256C52.6973 47.0036 52.4532 47.1256 52.5753 47.2477Z" fill="black"/>
<path d="M50.7446 47.6138C47.6929 53.351 44.6412 59.5765 42.5661 65.8019C40.8571 71.0508 44.153 75.9335 46.5943 80.45C46.7164 80.5721 46.9605 80.45 46.8385 80.328C43.4206 73.9805 41.2233 69.7081 43.9088 62.9944C45.984 57.7454 48.4253 52.7407 50.7446 47.6138C50.7446 47.4918 50.8667 47.6138 50.7446 47.6138Z" fill="black"/>
<path d="M46.8367 80.3278C47.447 80.0837 48.0574 79.8395 48.6677 79.5954C49.156 79.4733 49.5222 79.2292 49.8884 78.985C50.0105 78.863 49.8884 78.6188 49.6442 78.7409C48.7898 79.3512 47.6912 79.5954 46.7146 79.9616C46.5926 80.0837 46.7146 80.4499 46.8367 80.3278Z" fill="black"/>
<path d="M48.3027 69.3418C48.9131 72.5155 49.4013 75.8114 49.8896 78.9851C49.8896 79.3513 50.3779 79.2293 50.3779 78.8631C49.8896 75.6893 49.4013 72.3935 48.5469 69.2197C48.5469 69.0976 48.3027 69.0976 48.3027 69.3418Z" fill="black"/>
<path d="M48.5459 69.3419C50.3769 64.9475 52.33 60.7972 54.5272 56.6469C54.6493 56.4027 54.2831 56.2807 54.161 56.4027C51.8417 60.553 49.7666 64.8254 48.1797 69.2199C48.1797 69.464 48.5459 69.464 48.5459 69.3419Z" fill="black"/>
<path d="M53.5518 58.7219C52.8194 60.5529 53.918 62.8722 55.2608 64.0928C55.5049 64.2149 55.749 63.9708 55.5049 63.8487C54.7725 63.1163 54.2842 62.3839 53.918 61.4073C53.6739 60.5529 53.6739 59.6984 53.5518 58.7219C53.6739 58.7219 53.5518 58.5998 53.5518 58.7219Z" fill="black"/>
<path d="M54.8957 64.0928C54.7736 67.1445 54.6515 69.952 55.9943 72.7596C56.1164 73.0037 56.4826 72.8816 56.3605 72.6375C55.8722 71.1727 55.2619 69.83 55.2619 68.2431C55.1398 66.9003 55.2619 65.5576 55.2619 64.0928C55.2619 63.8486 54.8957 63.8486 54.8957 64.0928Z" fill="black"/>
<path d="M56.1162 72.2713C63.074 68.2431 73.2057 69.3417 80.8959 70.3182C81.1401 70.3182 81.1401 69.83 80.8959 69.83C73.2057 68.8534 62.8299 67.6327 55.9941 71.9051C55.75 72.1493 55.9941 72.3934 56.1162 72.2713Z" fill="black"/>
<path d="M81.0166 47.1255C80.6504 50.1772 80.4062 53.2289 80.1621 56.1585C80.1621 56.2805 80.4062 56.4026 80.4062 56.1585C81.0166 53.2289 81.3828 50.0551 81.2607 47.0034C81.2607 46.8813 81.0166 46.8813 81.0166 47.1255Z" fill="black"/>
<path d="M80.0383 56.0364C79.7942 57.0129 79.7942 57.8674 80.1604 58.7219C80.4045 59.2102 80.6487 59.6984 81.0149 60.1867C81.5031 60.9191 81.7473 61.5295 82.1135 62.2619C82.1135 62.3839 82.3576 62.3839 82.3576 62.2619C82.3576 61.4074 81.9914 60.797 81.5031 60.1867C80.6487 58.966 79.9162 57.6233 80.2824 56.1585C80.4045 56.0364 80.1604 55.9143 80.0383 56.0364Z" fill="black"/>
<path d="M82.1152 62.2617C82.6035 63.4824 82.1152 64.581 81.8711 65.6796C81.8711 65.9238 82.1152 66.0458 82.2373 65.8017C82.7256 64.7031 82.9697 63.2383 82.4814 62.1397C82.2373 62.0176 81.9932 62.1397 82.1152 62.2617Z" fill="black"/>
<path d="M81.8711 65.0693C82.1153 66.9003 81.3829 68.121 80.4063 69.5858C80.2842 69.7079 80.5284 69.952 80.6504 69.83C82.1153 68.8534 82.4815 66.6562 82.1153 64.9472C82.1153 64.8252 81.8711 64.8252 81.8711 65.0693Z" fill="black"/>
<path d="M71.252 41.0221C75.2802 42.609 79.4305 43.9517 83.3367 45.5386C83.5808 45.6607 83.7029 45.2945 83.4587 45.1724C79.4305 43.5855 75.4023 41.9986 71.252 40.778C71.252 40.9 71.252 41.0221 71.252 41.0221Z" fill="black"/>
<path d="M83.0918 45.9049C85.289 50.9096 87.4862 55.9144 89.8055 60.7971C89.9276 61.0413 90.2938 60.7971 90.1717 60.6751C88.0966 55.6703 85.8994 50.6655 83.458 45.7828C83.3359 45.5387 83.0918 45.7828 83.0918 45.9049Z" fill="black"/>
<path d="M90.05 61.0412C91.5149 65.1915 92.8576 69.3418 93.4679 73.8583C93.4679 74.1025 93.9562 74.1025 93.9562 73.8583C93.4679 69.4639 92.0031 65.1915 90.4162 61.0412C90.1721 60.7971 89.928 60.9192 90.05 61.0412Z" fill="black"/>
<path d="M82.7261 62.9942C83.2144 63.4825 83.3365 64.2149 83.9468 64.5811C84.313 64.8252 84.8013 65.0693 85.1675 64.8252C85.2895 64.8252 85.1675 64.5811 85.1675 64.5811C84.9233 64.5811 84.6792 64.5811 84.313 64.459C84.0689 64.3369 83.8247 64.0928 83.7027 63.8487C83.3365 63.6045 83.0923 63.2383 82.7261 62.9942C82.6041 62.9942 82.7261 62.8721 82.7261 62.9942Z" fill="black"/>
<path d="M84.8018 64.9472C84.9238 65.5576 85.168 66.1679 85.5342 66.6562C85.9004 67.0224 86.5107 67.5107 86.999 67.3886C87.121 67.3886 87.121 67.2665 86.999 67.2665C86.8769 67.1445 86.6328 67.0224 86.3886 67.0224C86.1445 66.9003 85.9004 66.7783 85.6562 66.5341C85.168 66.1679 84.9238 65.6797 84.8018 65.0693C84.9238 64.8252 84.8018 64.8252 84.8018 64.9472Z" fill="black"/>
<path d="M86.3882 67.5108C86.6323 68.2432 86.8765 68.8535 87.2427 69.4638C87.4868 69.8301 87.7309 70.5625 88.2192 70.3183C88.3413 70.3183 88.3413 70.0742 88.2192 70.0742C87.853 69.708 87.4868 69.2197 87.2427 68.7314C86.9985 68.2432 86.7544 67.877 86.6323 67.3887C86.6323 67.1446 86.2661 67.2666 86.3882 67.5108Z" fill="black"/>
<path d="M88.0987 70.5625C88.587 71.4169 89.5635 71.7831 89.9297 72.6376C90.2959 73.4921 90.54 74.5907 91.0283 75.4452C91.1504 75.6893 91.3945 75.5672 91.3945 75.3231C91.1504 74.3466 90.6621 73.37 90.2959 72.5156C89.8076 71.6611 88.8311 71.4169 88.3428 70.5625C88.2208 70.3183 87.9766 70.4404 88.0987 70.5625Z" fill="black"/>
<path d="M93.4678 73.9804C95.1767 76.91 95.9091 80.0838 95.1767 83.5016C95.1767 83.7458 95.4209 83.7458 95.4209 83.6237C96.1533 80.3279 95.7871 76.6659 93.7119 73.8583C93.7119 73.6142 93.4678 73.7362 93.4678 73.9804Z" fill="black"/>
<path d="M93.4678 77.0322C93.5898 78.1308 93.7119 79.2294 93.956 80.328C94.0781 80.9384 94.0781 81.5487 94.6885 81.7929C94.8105 81.7929 94.8105 81.7929 94.8105 81.6708C94.8105 80.5722 94.9326 79.3515 94.5664 78.2529C94.5664 78.1308 94.4443 78.2529 94.4443 78.2529C94.3223 78.8632 94.4443 79.3515 94.4443 79.9618C94.4443 80.206 94.5664 80.6943 94.4443 80.9384C94.3223 81.3046 94.3223 81.3046 94.2002 80.8163C93.7119 79.7177 93.7119 78.1308 93.4678 76.9102C93.5898 76.9102 93.4678 76.9102 93.4678 77.0322Z" fill="black"/>
<path d="M91.0273 75.4449C91.0273 75.6891 91.0273 75.9332 91.0273 76.0553C91.0273 76.2994 91.0273 76.4215 91.0273 76.6656C91.0273 76.7877 91.2715 76.7877 91.3936 76.6656C91.3936 76.4215 91.3936 76.2994 91.3936 76.0553C91.3936 75.8111 91.3936 75.567 91.3936 75.4449C91.3936 75.2008 91.0273 75.2008 91.0273 75.4449Z" fill="black"/>
<path d="M47.204 80.0838C46.8378 81.6706 46.7157 83.3796 46.8378 85.0885C46.9598 85.943 47.326 86.5533 48.3026 86.9196C48.6688 87.0416 48.7909 86.5533 48.4246 86.4313C46.5936 85.8209 47.326 81.6706 47.4481 80.2058C47.4481 79.9617 47.204 79.8396 47.204 80.0838Z" fill="black"/>
<path d="M47.9355 84.4783C48.1797 85.3327 48.3017 86.3093 48.9121 87.0417C49.2783 87.53 50.0107 88.0182 50.621 88.1403C50.7431 88.1403 50.8652 88.0182 50.7431 87.8962C50.1328 87.4079 49.5224 87.2858 49.0342 86.6755C48.5459 86.0652 48.4238 85.2107 48.0576 84.4783C48.0576 84.3562 47.9355 84.3562 47.9355 84.4783Z" fill="black"/>
<path d="M50.2559 84.2339C50.8663 85.5766 49.7677 88.7504 51.8428 89.2387C51.9649 89.2387 52.0869 89.1166 51.9649 88.9945C50.2559 87.7739 51.2325 85.6987 50.5001 84.1118C50.378 83.8677 50.1339 83.9898 50.2559 84.2339Z" fill="black"/>
<path d="M50.0108 79.2292C51.5977 80.8161 52.6963 82.0368 52.5742 84.4782C52.4521 85.943 52.0859 87.1637 52.3301 88.5064C52.3301 88.6285 52.4521 88.6285 52.4521 88.5064C52.4521 86.5533 53.3066 84.6002 52.9404 82.6471C52.5742 81.1823 51.4756 79.9616 50.2549 78.9851C50.0108 78.9851 49.8887 79.1072 50.0108 79.2292Z" fill="black"/>
<path d="M67.2227 71.9052C71.4951 74.8348 75.6454 75.4451 76.744 81.3044C77.3543 84.8444 76.6219 89.1167 76.6219 92.7788C76.6219 99.8587 77.5985 106.939 77.8426 114.141C77.8426 114.263 78.0867 114.263 78.0867 114.141C77.8426 104.619 76.9881 95.2201 76.9881 85.5768C76.9881 83.0133 77.4764 79.9616 76.2557 77.6424C74.5468 74.5907 70.1523 73.4921 67.4668 71.7831C67.2227 71.661 67.1006 71.7831 67.2227 71.9052Z" fill="black"/>
<path d="M71.8623 115.239C73.6933 113.896 75.7684 113.164 77.9657 113.042C78.2098 113.042 78.2098 112.554 77.9657 112.554C75.6464 112.676 73.4492 113.408 71.7402 114.995C71.4961 115.117 71.7402 115.361 71.8623 115.239Z" fill="black"/>
<path d="M71.3744 114.507C70.2758 113.286 69.0551 111.333 68.8109 109.624C68.5668 107.793 69.5434 105.84 70.1537 104.131C70.2758 103.887 69.7875 103.765 69.6654 104.009C68.933 105.962 67.9565 108.037 68.3227 109.99C68.6889 111.699 69.9096 113.408 71.0082 114.751C71.2523 114.995 71.4964 114.751 71.3744 114.507Z" fill="black"/>
<path d="M69.9086 104.009C67.101 96.8069 66.4907 87.896 67.4672 80.4498C67.4672 80.2057 67.101 80.0836 67.101 80.3278C65.7583 87.6518 66.7348 97.1731 69.6644 104.131C69.7865 104.253 70.0307 104.131 69.9086 104.009Z" fill="black"/>
<path d="M56.1145 72.0272C55.5041 72.8817 55.26 73.9803 55.3821 74.9568C55.3821 75.201 55.7483 75.201 55.7483 74.9568C55.8703 73.9803 55.9924 73.0037 56.3586 72.1493C56.4807 71.9051 56.2366 71.9051 56.1145 72.0272Z" fill="black"/>
<path d="M73.4493 75.0789C74.3038 74.3465 75.0362 73.492 76.0127 72.8817C76.8672 72.2713 77.8437 71.9051 78.6982 71.2948C78.8203 71.1727 78.8203 70.9286 78.5761 70.9286C77.4775 71.1727 76.3789 72.0272 75.5244 72.6375C74.67 73.2479 73.8155 73.9803 73.2051 74.8348C73.0831 75.0789 73.3272 75.201 73.4493 75.0789Z" fill="black"/>
<path d="M87.1209 74.5905C94.3229 78.7408 92.736 86.0648 92.3698 93.2668C92.0036 99.1261 92.2477 105.229 90.7829 110.845C90.7829 110.967 91.027 111.089 91.027 110.967C93.2243 103.276 92.6139 94.6096 92.9801 86.6752C93.2243 80.4497 92.8581 77.5201 87.2429 74.4684C87.1209 74.3463 86.9988 74.4684 87.1209 74.5905Z" fill="black"/>
<path d="M83.8247 102.422C84.0689 97.0513 83.9468 91.6803 84.5571 86.3093C84.5571 86.1873 84.4351 86.1873 84.4351 86.3093C83.2144 91.4362 83.3365 97.1734 83.8247 102.422C83.8247 102.422 83.7027 102.422 83.8247 102.422Z" fill="black"/>
<path d="M84.3141 86.0648C83.4596 84.9662 82.2389 84.3559 81.1403 83.7456C79.7976 83.0132 78.3328 82.0366 76.8679 81.6704C76.7459 81.6704 76.6238 81.7925 76.7459 81.9145C78.821 83.7456 82.1169 84.1118 84.0699 86.309C84.192 86.431 84.4361 86.1869 84.3141 86.0648Z" fill="black"/>
<path d="M80.5291 70.8064C81.8718 71.2947 82.7263 72.1491 83.5808 73.1257C84.3132 73.8581 85.2897 74.2243 86.0221 75.0788C86.1442 75.2008 86.3883 75.0788 86.2663 74.8346C85.5339 73.8581 84.4352 73.4919 83.5808 72.5153C82.7263 71.6609 81.7498 70.9285 80.6511 70.5623C80.5291 70.5623 80.407 70.6843 80.5291 70.8064Z" fill="black"/>
<path d="M71.6175 114.995C71.3733 116.826 70.8851 119.39 71.7395 121.221C71.8616 121.343 72.1057 121.221 71.9837 121.099C71.2513 119.268 71.7395 116.826 71.8616 114.995C71.7395 114.873 71.6175 114.873 71.6175 114.995Z" fill="black"/>
<path d="M71.7384 120.854C73.3253 121.464 75.0342 121.831 76.8652 121.831C77.7197 121.831 79.5507 121.953 80.2831 121.22C81.0155 120.488 80.5273 119.511 80.1611 118.657C79.4287 117.07 78.6962 115.483 77.5976 114.14C77.4756 114.018 77.3535 114.14 77.4756 114.262C78.208 115.117 78.6962 115.971 79.1845 117.07C79.9169 118.535 81.2597 120.732 78.33 121.342C76.2549 121.831 73.8135 121.098 71.8605 120.61C71.6163 120.61 71.6163 120.732 71.7384 120.854Z" fill="black"/>
<path d="M74.182 118.535C75.6468 117.681 77.1116 117.681 78.6985 117.437C78.9426 117.437 78.8205 117.07 78.6985 117.07C77.1116 117.07 75.4026 117.437 74.182 118.291C73.9378 118.413 74.0599 118.535 74.182 118.535Z" fill="black"/>
<path d="M84.1907 114.263C83.9466 116.094 83.4583 118.657 84.3128 120.488C84.4348 120.61 84.679 120.488 84.5569 120.366C83.8245 118.535 84.3128 116.094 84.4348 114.263C84.3128 114.141 84.1907 114.141 84.1907 114.263Z" fill="black"/>
<path d="M84.3126 120C85.8995 120.61 87.6084 120.976 89.4395 120.976C90.2939 120.976 92.1249 121.098 92.8573 120.366C93.5897 119.634 93.1015 118.657 92.7353 117.803C92.0029 116.216 91.2705 114.629 90.1719 113.286C90.0498 113.164 89.9277 113.286 90.0498 113.408C90.7822 114.263 91.2705 115.117 91.7587 116.216C92.4911 117.68 93.8339 119.878 90.9043 120.488C88.8291 120.976 86.3878 120.244 84.4347 119.756C84.1905 119.756 84.1905 120 84.3126 120Z" fill="black"/>
<path d="M86.7523 117.681C88.2171 116.826 89.6819 116.826 91.2688 116.582C91.5129 116.582 91.3909 116.216 91.2688 116.216C89.6819 116.216 87.973 116.582 86.7523 117.436C86.5081 117.559 86.6302 117.803 86.7523 117.681Z" fill="black"/>
<path d="M66.0019 29.792C65.6357 29.4258 65.0254 29.4258 64.5371 29.4258C64.1709 29.5478 63.5605 29.5478 63.3164 30.0361C63.3164 30.1582 63.3164 30.1582 63.4385 30.2803C63.8047 30.4023 64.1709 30.1582 64.5371 30.1582C65.0254 30.1582 65.3916 30.2803 65.8798 30.4023C66.0019 30.2803 66.124 30.0361 66.0019 29.792Z" fill="black"/>
<path d="M65.8806 31.1347C65.2702 30.7685 64.2937 30.8906 63.6833 31.1347C63.5613 31.1347 63.5613 31.3788 63.6833 31.3788C64.0496 31.3788 64.4157 31.2568 64.7819 31.2568C65.1482 31.2568 65.5144 31.2568 65.8806 31.3788C65.8806 31.2568 66.0026 31.1347 65.8806 31.1347Z" fill="black"/>
<path d="M65.0253 31.0125C65.0253 31.1346 64.9032 31.3787 64.7812 31.3787C64.6591 31.3787 64.6591 31.3787 64.537 31.3787C64.537 31.3787 64.415 31.2566 64.415 31.1346C64.2929 31.1346 64.1708 31.1346 64.0488 31.1346C64.1708 31.3787 64.2929 31.7449 64.537 31.7449C65.0253 31.7449 64.7812 31.2566 64.6591 31.0125C64.537 30.7684 64.2929 30.8904 64.1708 31.1346C64.1708 31.3787 64.2929 31.6228 64.537 31.6228C64.6591 31.7449 64.7812 31.6228 64.9033 31.5008C65.0253 31.2566 65.0253 31.0125 64.9033 30.8904C64.6591 30.7684 64.415 30.7684 64.415 31.1346C64.415 31.3787 64.6591 31.6228 64.9033 31.5008C65.1474 31.5008 65.2695 31.2566 65.0253 31.0125C65.0253 30.7684 64.9032 30.7684 64.7812 30.8904C64.6591 30.8904 64.6591 31.0125 64.6591 31.1346V31.2566C64.6591 31.3787 64.9032 31.5008 65.1474 31.3787C65.1474 31.2566 65.2694 31.2566 65.2694 31.1346C65.2694 30.7684 64.7812 30.6463 64.7812 31.0125V30.8904C64.7812 30.8904 64.7812 30.8904 64.7812 31.0125C64.9032 31.0125 65.1474 31.0125 65.2694 31.1346C65.1474 31.1346 65.1474 31.1346 65.0253 31.0125C64.9032 31.0125 64.7812 31.1346 64.6591 31.2566V31.1346H64.7812V31.2566L64.6591 31.3787C64.537 31.3787 64.537 31.3787 64.415 31.3787C64.537 31.3787 64.6591 31.3787 64.7812 31.2566C64.6591 31.2566 64.6591 31.2566 64.6591 31.1346C64.537 31.1346 64.415 31.2566 64.1708 31.2566C64.1708 31.3787 64.2929 31.5008 64.2929 31.5008C64.2929 31.3787 64.415 31.3787 64.415 31.2566C64.537 31.2566 64.415 31.1346 64.415 31.1346C64.415 31.1346 64.415 31.0125 64.2929 31.0125C64.2929 30.8904 64.0488 30.7684 63.9267 31.0125C63.6826 31.3787 64.0488 31.867 64.415 31.867C64.6591 31.867 64.7812 31.7449 64.9033 31.6228C65.0253 31.5008 65.0253 31.2566 65.0253 31.0125C65.1474 31.0125 65.2695 31.0125 65.0253 31.0125Z" fill="black"/>
<path d="M66.3695 33.5759C66.2474 33.8201 66.1253 34.1863 66.3695 34.3083C66.6136 34.5525 67.1019 34.4304 67.346 34.5525C67.7122 34.5525 68.0784 34.6745 68.3225 34.4304C68.5667 34.1863 68.5667 33.9421 68.4446 33.698C68.3225 33.4539 68.0784 33.698 68.2005 33.8201C68.3226 33.9421 68.2005 34.1863 68.0784 34.1863C67.9563 34.1863 67.8343 34.1863 67.8343 34.1863C67.5901 34.1863 67.4681 34.1863 67.2239 34.1863C67.1019 34.1863 66.8577 34.1863 66.7357 34.1863C66.4915 34.0642 66.6136 33.8201 66.6136 33.698C66.4915 33.5759 66.3695 33.5759 66.3695 33.5759Z" fill="black"/>
<path d="M64.1709 31.8671C64.293 31.9891 64.5371 31.9891 64.6592 31.9891C64.7812 31.9891 65.0254 31.9891 65.1474 31.8671C65.2695 31.8671 65.1474 31.745 65.1474 31.745C65.0254 31.745 64.7812 31.745 64.6592 31.745C64.5371 31.745 64.293 31.745 64.1709 31.745C64.1709 31.745 64.1709 31.745 64.1709 31.8671Z" fill="black"/>
<path d="M66.7354 31.2565C66.7354 31.3785 66.7354 31.5006 66.7354 31.6227V31.7447V31.8668C66.8574 31.8668 66.8574 31.7447 66.9795 31.6227C66.9795 31.5006 66.9795 31.3785 66.8574 31.2565C66.8574 31.1344 66.7354 31.1344 66.7354 31.2565Z" fill="black"/>
<path d="M69.053 30.2801C69.5413 30.2801 69.9075 30.036 70.3957 30.036C70.7619 30.036 71.1281 30.2801 71.4943 30.1581C71.6164 30.1581 71.6164 30.036 71.6164 29.9139C71.3723 29.5477 70.7619 29.4257 70.3957 29.3036C69.9075 29.1815 69.2971 29.3036 68.9309 29.6698C68.6868 30.036 68.8089 30.2801 69.053 30.2801Z" fill="black"/>
<path d="M68.9326 31.2566C69.2988 31.2566 69.665 31.1345 70.0312 31.1345C70.3974 31.1345 70.7636 31.2566 71.1298 31.2566C71.2519 31.2566 71.2519 31.1345 71.1298 31.0124C70.5195 30.7683 69.543 30.7683 68.9326 31.0124C68.9326 31.1345 68.9326 31.2566 68.9326 31.2566Z" fill="black"/>
<path d="M69.542 31.0124C69.542 31.2566 69.542 31.3787 69.6641 31.6228C69.7861 31.7449 69.9082 31.8669 70.1523 31.8669C70.5185 31.8669 70.8847 31.3787 70.6406 31.0124C70.5185 30.8904 70.3965 30.8904 70.2744 31.0124C70.2744 31.0124 70.2744 31.1345 70.1523 31.1345C70.1523 31.1345 70.0303 31.2566 70.1523 31.2566C70.1523 31.3787 70.2744 31.3787 70.2744 31.5007C70.2744 31.3787 70.3965 31.2566 70.3965 31.2566C70.2744 31.2566 70.1523 31.1345 69.9082 31.1345C69.9082 31.2566 69.9082 31.2566 69.7861 31.2566C69.9082 31.2566 70.0303 31.2566 70.1523 31.3786C70.1523 31.2566 70.1523 31.3786 70.1523 31.3786C70.0303 31.3786 70.0303 31.3786 69.9082 31.3786L69.7861 31.2566V31.1345H69.9082V31.2566C69.7861 31.1345 69.542 31.1345 69.4199 31.0124C69.6641 31.1345 69.6641 31.1345 69.542 31.0124C69.7861 31.1345 69.9082 31.1345 70.1523 31.0124C70.1523 31.0124 70.1523 31.0124 70.1523 30.8904V31.0124C70.0303 30.7683 69.542 30.7683 69.542 31.0124C69.542 31.2566 69.6641 31.2566 69.6641 31.3786C69.7861 31.5007 70.0303 31.3787 70.1523 31.2566V31.1345C70.1523 31.0125 70.1523 30.8904 70.0303 30.8904C69.9082 30.8904 69.7861 30.8904 69.6641 31.0124C69.542 31.2566 69.542 31.5007 69.9082 31.6228C70.1523 31.7449 70.3965 31.5007 70.3965 31.2566C70.3965 31.0124 70.0303 30.8904 69.9082 31.0124C69.6641 31.1345 69.6641 31.5007 69.9082 31.6228C70.0303 31.7449 70.1523 31.7449 70.2744 31.7449C70.5185 31.6228 70.6406 31.3787 70.6406 31.2566C70.6406 31.0124 70.3965 30.8904 70.1523 31.1345C70.0303 31.3787 69.7861 31.8669 70.2744 31.8669C70.5185 31.8669 70.7627 31.5007 70.7627 31.2566C70.6406 31.2566 70.5185 31.2566 70.3965 31.2566C70.3965 31.2566 70.3965 31.3787 70.3965 31.5007C70.2744 31.6228 70.2744 31.6228 70.1523 31.5007C70.0303 31.3787 69.9082 31.2566 69.9082 31.1345C69.7861 31.0125 69.542 31.0124 69.542 31.0124Z" fill="black"/>
<path d="M70.6423 31.6227C70.5202 31.6227 70.2761 31.6227 70.154 31.6227C70.032 31.6227 69.7878 31.6227 69.6658 31.6227C69.5437 31.6227 69.5437 31.7448 69.6658 31.7448C69.7878 31.8668 70.032 31.8668 70.154 31.8668C70.2761 31.8668 70.5202 31.8668 70.6423 31.7448C70.6423 31.7448 70.6423 31.7447 70.6423 31.6227Z" fill="black"/>
<path d="M67.9551 31.2565C67.9551 31.3785 67.833 31.5006 67.833 31.6227C67.833 31.7447 67.9551 31.8668 68.0771 31.8668C68.0771 31.8668 68.0771 31.8668 68.0771 31.7447V31.6227C68.0771 31.5006 68.0771 31.3785 68.0771 31.2565C68.0771 31.1344 67.9551 31.1344 67.9551 31.2565Z" fill="black"/>
<path d="M66.0037 36.6277C66.9802 36.9939 68.2009 36.8718 69.1774 36.5056C69.2995 36.3835 69.1774 36.2615 69.0554 36.2615C68.5671 36.3835 68.0788 36.5056 67.4685 36.5056C66.9802 36.5056 66.4919 36.5056 66.0037 36.3835C65.8816 36.3835 65.8816 36.6277 66.0037 36.6277Z" fill="black"/>
<path d="M68.8115 36.5055C68.8115 36.5055 68.9336 36.5055 68.8115 36.5055C68.9336 36.5055 68.9336 36.5055 69.0557 36.5055C69.1777 36.5055 69.1777 36.5055 69.1777 36.3834C69.2998 36.2613 69.2998 36.1393 69.2998 36.0172L69.1777 35.8951C69.0557 35.8951 68.9336 35.8951 68.9336 36.0172C68.9336 36.0172 68.9336 36.1393 68.8115 36.1393L68.6895 36.2613C68.6895 36.3834 68.8115 36.5055 68.8115 36.5055C68.9336 36.5055 68.9336 36.3834 69.0557 36.3834L69.1777 36.2613L69.0557 36.1393L68.9336 36.2613C68.8115 36.2613 68.8115 36.3834 68.6895 36.3834C68.6895 36.3834 68.6895 36.5055 68.8115 36.5055Z" fill="black"/>
<path d="M66.125 36.5054C66.125 36.3833 66.0029 36.3833 65.8809 36.3833L65.7588 36.2612L65.6367 36.3833C65.7588 36.3833 65.7588 36.3833 65.7588 36.5054C65.8809 36.5054 66.0029 36.6274 66.125 36.5054C66.2471 36.5054 66.125 36.6274 66.125 36.5054C66.125 36.3833 66.125 36.3833 66.0029 36.3833C66.0029 36.3833 66.0029 36.2612 65.8809 36.2612C65.8809 36.1392 65.7588 36.1392 65.7588 36.1392C65.7588 36.1392 65.6367 36.1392 65.6367 36.2612C65.6367 36.3833 65.6367 36.5054 65.7588 36.6274C65.7588 36.6274 65.8809 36.6274 65.8809 36.7495H66.0029C66.0029 36.7495 66.0029 36.7495 66.125 36.7495C66.125 36.6274 66.125 36.5054 66.125 36.5054Z" fill="black"/>
<path d="M66.2468 36.5054C67.1013 36.2613 67.9558 36.1392 68.8102 36.3834C68.9323 36.3834 69.0544 36.1392 68.9323 36.1392C67.9558 35.773 66.9792 35.8951 66.2468 36.5054C66.1248 36.5054 66.1248 36.5054 66.2468 36.5054Z" fill="black"/>
<path d="M66.0037 36.7496C66.8582 37.482 68.323 37.6041 69.0554 36.6276C69.0554 36.5055 69.0554 36.5055 68.9333 36.5055C67.9568 37.1158 67.1023 37.36 66.1258 36.6276C66.0037 36.5055 65.8816 36.6276 66.0037 36.7496Z" fill="black"/>
<path d="M91.5145 75.201C91.7587 74.8348 92.0028 74.5907 92.369 74.3465C92.7352 74.2245 93.1014 74.1024 93.4676 73.9803C93.7118 73.8583 93.7118 73.4921 93.3456 73.4921C92.369 73.4921 91.3925 74.1024 91.0263 74.9569C90.9042 75.201 91.3925 75.4452 91.5145 75.201Z" fill="black"/>
<path d="M62.4627 41.0218C61.9744 44.4397 62.8289 47.9797 66.8571 48.2238C68.1999 48.3459 70.1529 48.1018 71.1295 47.0032C72.3502 45.6604 72.7164 43.2191 72.7164 41.3881C72.7164 41.1439 72.3502 41.1439 72.3502 41.3881C72.5943 44.8059 71.1295 47.9797 67.3454 47.8576C63.1951 47.7356 62.5847 44.3177 62.8289 41.0218C62.7068 40.8998 62.4627 40.8998 62.4627 41.0218Z" fill="black"/>
<path d="M90.7828 73.614C91.5152 73.0037 92.3696 72.7595 93.2241 72.3933C93.4682 72.2713 93.3462 71.9051 93.102 72.0271C92.2476 72.1492 91.0269 72.6375 90.5386 73.3699C90.2945 73.614 90.5386 73.8581 90.7828 73.614Z" fill="black"/>
<path d="M46.2283 79.3511C47.4489 78.9849 48.5476 78.6187 49.7682 78.2525C50.0124 78.1304 49.8903 77.7642 49.6462 77.8863C48.4255 78.2525 47.3269 78.7407 46.2283 79.229C46.1062 79.229 46.1062 79.3511 46.2283 79.3511Z" fill="black"/>
<path d="M44.5193 66.5342C45.3738 66.9004 46.7165 67.1445 47.2048 67.999C47.3268 68.1211 47.4489 67.999 47.4489 67.8769C47.2048 66.9004 45.3738 66.5342 44.5193 66.4121C44.3972 66.4121 44.3972 66.5342 44.5193 66.5342Z" fill="black"/>
<path d="M86.8769 63.9708C87.2431 63.7267 87.4873 63.4825 87.9755 63.2384C88.3417 63.1163 88.7079 62.9943 89.0741 62.8722C89.1962 62.7501 89.1962 62.628 89.0741 62.628C88.7079 62.506 88.2197 62.7501 87.8535 62.9943C87.3652 63.2384 86.999 63.4825 86.7548 63.8487C86.5107 63.8487 86.7549 64.0929 86.8769 63.9708Z" fill="black"/>
<path d="M55.1377 63.8486C55.1377 64.2148 55.5039 64.581 55.748 64.8252C56.1142 65.0693 56.6025 65.4355 57.0908 65.4355C57.2128 65.4355 57.2128 65.3134 57.2128 65.1914C56.8466 64.9472 56.4804 64.8252 56.1142 64.581C55.9922 64.459 55.748 64.3369 55.626 64.2148C55.5039 64.0928 55.3818 63.8486 55.2598 63.7266C55.1377 63.7266 55.1377 63.7266 55.1377 63.8486Z" fill="black"/>
<path d="M56.6043 76.1775C59.0456 78.0085 62.0973 79.1071 64.9049 80.4499C65.149 80.5719 65.2711 80.2057 65.027 80.0837C62.2194 78.7409 59.4118 77.5202 56.7263 75.9333C56.6043 75.9333 56.4822 76.1775 56.6043 76.1775Z" fill="black"/>
<path d="M76.6228 77.1541C78.82 77.8865 81.1393 78.4968 83.4586 79.2292C83.7028 79.2292 83.7028 78.9851 83.5807 78.9851C81.3835 78.2527 79.0642 77.3982 76.7449 77.032C76.6228 76.9099 76.5008 77.032 76.6228 77.1541Z" fill="black"/>
<path d="M84.19 102.056C81.6266 105.474 81.8707 110.112 82.2369 114.14C82.2369 114.385 82.6031 114.385 82.6031 114.14C82.359 109.868 82.359 106.084 84.19 102.056C84.19 102.056 84.3121 102.056 84.19 102.056Z" fill="black"/>
<path d="M90.0499 109.014C89.6837 110.112 89.5616 111.455 89.8057 112.676C89.8057 112.92 90.1719 112.798 90.1719 112.676C90.0499 111.455 90.1719 110.357 90.294 109.136C90.294 108.892 90.0499 108.892 90.0499 109.014Z" fill="black"/>
<path d="M89.9273 112.31C87.2418 112.676 85.0446 114.019 82.2371 114.019C82.115 114.019 82.115 114.263 82.2371 114.263C84.9225 114.507 87.486 113.286 89.9273 112.676C90.1715 112.554 90.0494 112.188 89.9273 112.31Z" fill="black"/>
<path d="M90.7805 110.723C90.6584 110.967 90.5364 111.211 90.4143 111.333C90.2922 111.577 90.0481 111.577 89.804 111.699C89.5598 111.821 89.6819 112.188 89.926 112.066C90.4143 111.821 90.9026 111.333 91.0246 110.723C91.0246 110.601 90.7805 110.601 90.7805 110.723Z" fill="black"/>
</svg>

