<svg width="82" height="97" viewBox="0 0 82 97" fill="none" xmlns="http://www.w3.org/2000/svg">
<path d="M33.243 59.7389C28.127 62.413 19.7309 65.2849 16 66.0916C19.9326 65.1839 26.5878 59.7389 44.1333 53.0839C61.6789 46.4289 71.3592 50.0586 68.9391 49.4536C66.519 48.8486 39.8982 56.2602 33.243 59.7389Z" fill="#D9D9D9"/>
<path d="M29.3991 61.7896C26.797 62.9309 22.9547 64.5765 19.4163 66.0134M29.3991 61.7896C29.6948 61.6709 29.9974 61.5501 30.3067 61.4272M29.3991 61.7896C28.6731 62.0795 22.1551 46.1619 18.9869 38.1668M78.4056 49.0842C73.2091 46.382 50.9777 53.6032 36.0543 59.2089M58.1375 2.19531C56.5241 7.64048 49.4252 20.7089 33.9368 29.4211C28.2169 32.6386 23.201 35.5975 18.9869 38.1668M66.9553 18.8333C70.0662 18.2283 76.7116 18.5913 78.4056 24.8835C80.0997 31.1757 76.9353 34.6575 75.1413 35.6119M19.4163 66.0134C15.1391 67.7503 12.7611 68.8683 10.6436 68.4448C9.13104 68.1423 3.86401 65.8088 1.56812 58.1595C-0.247788 52.1093 2.67732 48.4792 4.89572 47.2692C6.93087 45.8064 11.7898 42.5548 18.9869 38.1668M19.4163 66.0134C24.4582 71.2606 33.9368 82.3602 35.1468 84.1753C36.5305 86.2509 43.012 99.6032 49.6672 95.0656C56.3224 90.528 51.4823 83.8728 44.2221 78.4276C40.743 75.8183 37.235 71.6173 34.5043 67.8398M30.3067 61.4272C32.0367 60.74 33.9745 59.9901 36.0543 59.2089M30.3067 61.4272C31.1963 62.9718 32.6761 65.3109 34.5043 67.8398M36.0543 59.2089C37.2394 61.38 38.5884 66.1457 34.5043 67.8398M5.80344 53.0168C9.33271 51.1009 16.5728 47.2692 17.2988 47.2692M8.52602 58.1595C11.7528 56.2436 18.5693 52.4723 20.0214 52.7143M10.6436 62.6971C14.7779 61.5879 23.0465 59.1275 23.0465 58.1595M58.1375 40.0089C60.0534 42.5927 63.8247 48.025 63.5827 49.0842M55.7174 44.2441C56.9275 45.6558 58.7793 48.1767 58.7425 49.0842M52.6923 47.2692C53.0957 48.2775 53.9391 49.3867 54.8099 49.6892M49.0622 49.0842C49.6672 49.8909 50.6115 51.5043 50.5748 52.1093" stroke="black" stroke-width="1.5" stroke-linecap="round"/>
<path d="M30.0409 62.092L23.9907 64.8146C29.4359 64.8146 36.0911 71.1673 35.7886 70.5623C35.5466 70.0783 31.7551 64.8146 30.0409 62.092Z" fill="#D9D9D9"/>
<path d="M58.4765 1.03102C57.8714 1.89276 54.6447 9.85893 52.4263 12.7832C57.7706 25.5894 68.1567 49.8559 69.3668 49.1298C70.5768 48.4036 80.9805 50.3063 80.8621 50.0375C73.4002 33.097 59.3108 -0.157372 58.4765 1.03102Z" fill="#BEE8FF" stroke="black" stroke-width="1.5"/>
</svg>
