<svg viewBox="0 0 145 145" fill="none" xmlns="http://www.w3.org/2000/svg">
    <path d="M84.8884 9.95913C85.0059 4.65426 70.2921 5.31341 69.8351 8.14368C73.1934 7.95767 79.0538 10.594 84.8884 9.95913Z" fill="white"/>
    <rect width="145" height="145" fill="transparent"/>
    <path d="M93.6232 64.0517C95.7096 84.7301 97.3732 129.663 99.1234 138.552C103.375 138.015 100.194 63.2225 93.6232 64.0517Z" fill="white"/>
    <path d="M65.6241 20.5528C68.9573 30.5528 72.3173 46.053 74.818 50.5534C79.8173 50.5534 67.624 23.0527 65.6241 20.5528Z" fill="white"/>
    <path d="M52.9922 91.5928C50.9922 142.093 72.5093 96.9177 73.4922 91.0918C68.9922 93.0928 60.4922 95.5928 52.9922 91.5928Z" fill="white"/>
    <path d="M56.124 50.5508C54.6242 61.5506 64.124 60.5508 71.1241 60.051C57.624 58.5508 58.6242 54.5506 56.124 50.5508Z" fill="white"/>
    <path d="M83.6239 60.5527C83.0313 62.0341 82.2288 65.4022 83.1812 66.6945C83.3956 66.9853 83.655 67.4959 83.4704 67.8065V67.8065C82.7137 69.0796 81.2288 66.8882 80.9373 65.4362C80.6145 63.828 80.5945 61.8404 81.6248 60.5527M89.624 60.5523C89.124 61.0527 94.624 141.574 97.1247 141.574C97.1247 142.074 99.124 142.053 99.1247 138.574C99.1247 134.074 93.6239 64.0527 93.1239 62.5527C92.7239 61.3527 90.624 59.0518 89.624 60.5523Z" stroke="black"/>
    <path d="M73.6253 60.5746C74.292 66.9079 72.6244 82.0746 71.6253 89.5746C71.1591 93.0746 40.1253 91.5746 41.1253 76.0746C41.5447 69.5746 43.6242 55.5746 46.1242 48.0746C47.6242 41.5746 47.2242 30.4746 49.6242 26.0746C51.9571 22.0746 59.7896 16.4749 65.7906 20.0749M65.7906 20.0749C70.7904 27.5749 74.624 43.0531 75.6242 46.5753C76.1128 48.2961 75.9575 50.0749 75.6242 51.5749M65.7906 20.0749L69.124 26.0746C69.124 26.0746 69.6264 27.2743 71.6253 26.0746C72.2916 27.0747 74.124 28.5749 76.124 26.5749C78.124 24.5749 78.2907 24.4083 78.124 24.5749C78.624 24.9083 79.624 25.4749 79.624 25.0749C79.624 24.6749 79.9574 23.9083 80.124 23.5749C80.4574 23.7416 81.224 23.9749 81.624 23.5749C82.024 23.1749 82.124 21.0749 82.124 20.0749L85.124 15.5749M65.7906 20.0749L66.853 17.0749M52.015 92.5527C52.3624 95.0527 58.1242 111.575 59.1242 114.075C59.624 115.053 60.3507 118.572 60.5365 123.075M60.5365 123.075C60.7394 127.993 60.8411 133.487 61.6242 135.575C66.1242 137.575 65.6242 135.575 76.6242 130.575C72.6242 115.575 73.6253 101.575 72.6242 91.5749C67.0242 95.5749 56.2908 92.8862 51.6242 90.5527C52.2908 92.8862 52.0199 96.1145 51.6242 98.0749C51.124 100.553 41.6242 126.075 40.1242 126.575C38.6242 127.075 51.1242 133.575 55.6242 133.075C57.224 131.075 59.5656 125.575 60.5365 123.075ZM85.124 15.5749C84.457 15.2418 82.0234 15.4754 77.624 19.0749C75.624 19.0747 73.124 15.5747 72.624 15.5747C72.124 15.5747 70.624 15.5747 69.624 17.5747C68.9205 18.9818 67.4744 18.4089 66.853 17.0749M85.124 15.5749C85.356 14.647 85.5557 12.7338 85.1163 10.7124C84.7197 8.88805 83.4061 7.39162 81.7156 6.59912C74.0983 3.02806 67.2188 9.66945 68.124 10.5747C69.124 11.5747 67.124 12.5747 66.624 15.0747C66.4758 15.8158 66.5912 16.5129 66.853 17.0749M63.6242 58.5749C58.2365 58.0362 56.2505 51.1948 54.9172 44.7984C53.7781 39.3335 52.9548 33.4698 55.9134 28.736C57.0356 26.9406 58.2646 25.4345 59.1242 24.5749C59.3795 24.3195 59.6757 24.1701 60.0022 24.1122C66.9305 22.8815 69.0614 34.5769 68.493 41.5907C68.2699 44.3426 67.9253 47.0875 67.6242 49.0749C69.6245 49.9083 75.9251 51.9749 85.1242 53.5749C96.623 57.0749 94.1242 66.0749 93.6242 63.0749C93.1242 60.0749 88.6242 58.5749 89.6242 58.5749C90.6242 58.5749 89.6242 60.5746 88.6242 61.5749C87.6242 62.5753 87.1242 58.5749 87.6242 59.5749C88.0242 60.3749 86.1242 61.2416 85.1242 61.5749C84.9575 60.9083 84.3242 59.7749 83.1242 60.5746C78.3242 61.3743 68.1242 59.5747 63.6242 58.5749ZM62.624 135.981C62.172 138.091 63.1913 140.123 76.1035 137.537C77.8213 137.192 78.2888 134.88 76.9214 133.785C75.6655 132.779 74.6862 131.976 74.124 131.752C73.624 131.553 65.124 137.553 62.624 135.981ZM41.624 128.09L46.9715 130.739C48.7312 131.61 50.6593 132.05 52.5002 132.733C53.7548 133.199 54.9599 134.003 55.624 135.553C56.4812 137.553 47.7907 136.553 41.124 135.053L41.624 128.09Z" stroke="black"/>
    </svg>
    