<svg width="596" height="480" viewBox="0 0 596 480" fill="none" xmlns="http://www.w3.org/2000/svg">
<path d="M107.267 447.338L135.611 344.704C133.593 341.942 131.66 339.192 129.81 336.456C127.363 347.453 108.274 345.315 99.0359 342.871L20.4007 318.129V302.551V289.721L97.6201 294.303V263.146C94.2889 245.537 95.1165 230.684 99.0359 220.077C124.637 225.941 159.081 222.52 173.103 220.077C177.979 237.793 189.927 280.374 198.705 308.965C207.484 337.556 200.534 358.755 195.962 365.78L131.041 462L122.812 456.925L109.096 448.466L107.267 447.338Z" fill="#50B8E7"/>
<path d="M271.095 75.9333C271.042 76.0282 270.991 76.119 270.942 76.2055C270.991 76.1171 271.042 76.0263 271.095 75.9333Z" fill="#50B8E7"/>
<path d="M67.0342 11.1424C67.0342 10.1671 67.0925 8.80266 67.2555 7.51498C67.3175 4.76492 67.1079 1.9786 66.1199 1.9786C65.2064 1.9786 64.2929 3.35044 63.6073 4.95206C63.343 7.56203 62.4623 10.348 62.4623 9.30961C62.4623 8.39233 62.9204 6.55685 63.6073 4.95206C64.2929 3.35044 65.2064 1.9786 66.1199 1.9786C67.1079 1.9786 67.3175 4.76492 67.2555 7.51498C67.2257 8.83701 67.1332 10.1507 67.0342 11.1424Z" fill="#50B8E7"/>
<path d="M97.6201 263.146C94.2889 245.537 95.1165 230.684 99.0359 220.077C124.637 225.941 159.081 222.52 173.103 220.077C177.979 237.793 189.927 280.374 198.705 308.965C207.484 337.556 200.534 358.755 195.962 365.78L131.041 462L122.812 456.925M97.6201 263.146V294.303L20.4007 289.721M97.6201 263.146C101.646 284.431 111.749 309.743 129.81 336.456M20.4007 289.721H14M20.4007 289.721V302.551M129.81 336.456C131.66 339.192 133.593 341.942 135.611 344.704L107.267 447.338L109.096 448.466M129.81 336.456C127.363 347.453 108.274 345.315 99.0359 342.871L20.4007 318.129V302.551M14 302.551H20.4007M109.096 448.466L106.353 456.502M109.096 448.466L122.812 456.925M119.154 462L122.812 456.925M202.363 122.024C220.651 109.806 257.226 85.186 257.226 84.4529C257.226 83.5365 258.14 68.8745 259.969 69.7909C261.432 70.524 261.798 74.3728 261.798 76.2055C263.932 72.54 268.382 65.3922 269.113 66.1253C269.845 66.8584 267.589 72.5397 266.37 75.2887C268.503 71.623 272.953 64.8416 273.685 67.0413C274.416 69.241 272.161 74.0673 270.942 76.2055C272.466 73.4565 275.879 68.3251 277.342 69.7909C278.805 71.2567 275.514 75.8996 273.685 78.0378C276.123 75.8996 281 71.9897 281 73.4559C281 75.2887 275.514 88.1179 270.942 89.9507C266.37 91.7834 258.14 126.606 206.935 159.595M88.9795 93.6162C71.6062 56.9612 69.7774 26.7208 70.6918 24.888C71.6062 23.0553 77.0925 14.8078 75.2637 12.9751C73.8007 11.5089 70.387 16.0297 68.863 18.4733C69.4726 13.586 70.326 3.81135 68.863 3.81135C67.4 3.81135 67.0342 8.69869 67.0342 11.1424C67.339 8.08778 67.5829 1.9786 66.1199 1.9786C64.2911 1.9786 62.4623 7.47686 62.4623 9.30961C62.4623 11.1424 65.2055 1.06222 62.4623 1.06222C60.2678 1.06222 59.1096 6.56048 58.8048 9.30961C58.5 6.25502 57.5247 0.329122 56.0616 1.06222C54.2329 1.9786 51.4897 5.64453 55.1473 23.0557C52.4041 45.0487 51.2495 81.2959 53.3185 92.7003C55.1473 102.78 58.8048 112.798 65.2055 121.962M127.384 96.3658V97.2822V116.526C129.822 122.024 137.442 132.838 148.414 132.104C159.387 131.371 152.986 122.024 148.414 117.442V113.777C153.291 113.471 163.227 109.562 163.959 96.3658C164.69 83.17 164.264 78.6489 163.959 78.0378C163.959 74.0671 160.221 67.9635 146.586 68.8745M154.815 83.5365C155.729 82.6201 158.107 81.3372 160.301 83.5365M139.271 85.3693C139.88 83.842 141.831 81.1539 144.757 82.6201M144.757 87.1394V87.206C144.757 88.216 143.938 89.0348 142.928 89.0348V89.0348M155.729 91.7839V94.2405C155.729 95.0288 155.529 95.8339 154.957 96.3762C154.298 97.0009 153.486 97.3669 152.986 96.3658M157.558 86.2857V86.2857C157.558 87.2957 156.739 88.1184 155.729 88.1184V88.1184M146.586 100.031C146.281 101.559 146.951 104.613 152.072 104.613" stroke="black" stroke-linecap="round"/>
<path d="M120.908 93.3069C120.177 96.2433 124.871 96.3657 127.31 96.0598L126.209 89.9849C125.728 87.3353 125.117 83.7745 127.525 82.569C129.143 81.7587 131.309 82.897 133.711 82.2944C134.626 77.7062 135.541 76.4215 142.858 71.2826C156.577 65.7767 159.32 72.2003 162.064 72.2003C164.259 72.2003 164.808 78.9297 164.808 82.2944H166.637C167.552 82.6003 169.564 82.845 170.296 81.3768C172.491 82.1109 173.649 79.8474 173.954 78.6238C175.174 78.318 177.247 77.1556 175.783 74.9532C176.698 74.9532 178.527 72.2003 177.613 70.365C179.808 69.6308 178.527 67.0002 177.613 65.7767C177.917 64.8591 178.161 62.6567 176.698 61.1884C177.613 61.1884 177.613 57.5178 175.783 56.6002C176.698 55.6825 174.869 52.9296 172.125 52.9296C173.04 51.0943 172.125 50.1766 169.381 49.2596C169.381 47.425 168.467 46.506 164.808 45.5882C163.345 42.6516 160.54 43.1412 159.32 43.7531C159.32 41.9177 156.577 41.0003 152.918 41.9181C152.918 40.0828 148.345 39.1651 146.516 41.0003C144.321 40.2661 141.333 41.306 140.114 41.9176C139.199 41 136.638 39.8988 133.711 42.8353C130.785 42.1012 128.834 44.3647 128.224 45.5882C127.004 45.5882 124.382 46.3225 123.651 49.2596C122.736 48.342 120.908 48.342 119.078 52.0126C116.334 52.0126 116.334 52.9302 115.419 55.6832C111.761 55.6832 112.065 59.9656 112.675 62.1068C111.455 63.0244 109.383 65.5938 110.845 68.5302C109.93 67.6126 107.188 72.2009 109.931 74.0362C108.102 74.0362 108.102 78.6244 110.845 80.4597C109.382 82.6621 111.455 84.4362 112.675 85.048C112.675 86.2715 113.406 88.7186 116.334 88.7186C115.419 88.7186 116.334 93.3069 120.908 93.3069Z" fill="black"/>
<path d="M55.9699 120.836C66.2135 120.102 83.4081 99.7298 90.7249 89.6357C88.8944 87.8004 116.03 110.436 127.31 116.248C129.749 119.918 136.271 127.994 142.858 130.93C156.76 133.867 155.356 126.036 152.917 121.753C155.966 122.977 164.259 125.424 173.038 125.424C181.817 125.424 204.135 117.165 201.391 119.001C200.476 124.506 205.964 158.46 208.708 162.13C211.781 166.241 189.806 170.389 180.355 171.307L177.613 152.036C178.527 165.189 180.355 196.45 180.355 216.272C131.332 233.891 102.613 223.613 94.382 216.272L95.298 154.789C77.9204 143.777 45.7263 121.57 55.9699 120.836Z" fill="black"/>
<path d="M120.908 93.3069C120.177 96.2433 124.871 96.3657 127.31 96.0598L126.209 89.9849C125.728 87.3353 125.117 83.7745 127.525 82.569C129.143 81.7587 131.309 82.897 133.711 82.2944C134.626 77.7062 135.541 76.4215 142.858 71.2826C156.577 65.7767 159.32 72.2003 162.064 72.2003C164.259 72.2003 164.808 78.9297 164.808 82.2944H166.637C167.552 82.6003 169.564 82.845 170.296 81.3768C172.491 82.1109 173.649 79.8474 173.954 78.6238C175.174 78.318 177.247 77.1556 175.783 74.9532C176.698 74.9532 178.527 72.2003 177.613 70.365C179.808 69.6308 178.527 67.0002 177.613 65.7767C177.917 64.8591 178.161 62.6567 176.698 61.1884C177.613 61.1884 177.613 57.5178 175.783 56.6002C176.698 55.6825 174.869 52.9296 172.125 52.9296C173.04 51.0943 172.125 50.1766 169.381 49.2596C169.381 47.425 168.467 46.506 164.808 45.5882C163.345 42.6516 160.54 43.1412 159.32 43.7531C159.32 41.9177 156.577 41.0003 152.918 41.9181C152.918 40.0828 148.345 39.1651 146.516 41.0003C144.321 40.2661 141.333 41.306 140.114 41.9176C139.199 41 136.638 39.8988 133.711 42.8353C130.785 42.1012 128.834 44.3647 128.224 45.5882C127.004 45.5882 124.382 46.3225 123.651 49.2596C122.736 48.342 120.908 48.342 119.078 52.0126C116.334 52.0126 116.334 52.9302 115.419 55.6832C111.761 55.6832 112.065 59.9656 112.675 62.1068C111.455 63.0244 109.383 65.5938 110.845 68.5302C109.93 67.6126 107.188 72.2009 109.931 74.0362C108.102 74.0362 108.102 78.6244 110.845 80.4597C109.382 82.6621 111.455 84.4362 112.675 85.048C112.675 86.2715 113.406 88.7186 116.334 88.7186C115.419 88.7186 116.334 93.3069 120.908 93.3069Z" stroke="black"/>
<path d="M55.9699 120.836C66.2135 120.102 83.4081 99.7298 90.7249 89.6357C88.8944 87.8004 116.03 110.436 127.31 116.248C129.749 119.918 136.271 127.994 142.858 130.93C156.76 133.867 155.356 126.036 152.917 121.753C155.966 122.977 164.259 125.424 173.038 125.424C181.817 125.424 204.135 117.165 201.391 119.001C200.476 124.506 205.964 158.46 208.708 162.13C211.781 166.241 189.806 170.389 180.355 171.307L177.613 152.036C178.527 165.189 180.355 196.45 180.355 216.272C131.332 233.891 102.613 223.613 94.382 216.272L95.298 154.789C77.9204 143.777 45.7263 121.57 55.9699 120.836Z" stroke="black"/>
<path d="M1 315.478L1.91657 289H13.8319V303.609C13.8319 307.261 5.27731 313.043 1 315.478Z" fill="black"/>
<path d="M101.822 464.304L106.405 455.174C108.849 456.087 115.021 458.643 120.154 461.565C125.286 464.487 125.348 473.739 124.736 478L101.822 464.304Z" fill="black"/>
<path d="M1 315.478L1.91657 289H13.8319V303.609C13.8319 307.261 5.27731 313.043 1 315.478Z" stroke="black"/>
<path d="M101.822 464.304L106.405 455.174C108.849 456.087 115.021 458.643 120.154 461.565C125.286 464.487 125.348 473.739 124.736 478L101.822 464.304Z" stroke="black"/>
<path d="M454.492 261.018L357.839 222.163C356.699 221.705 356.22 220.356 356.716 219.232C364.657 201.259 368.623 137.493 369.635 106.638C383.326 105.48 411.636 103.289 415.338 103.792C419.039 104.296 420.608 124.569 420.929 134.643C416.757 141.326 411.258 156.166 422.637 162.065C434.015 167.963 442.88 158.051 445.89 152.358C455.067 157.292 478.518 169.413 498.899 178.421C505.522 196.36 490.719 223.893 488.091 225.892C485.463 227.89 474.668 216.634 459.872 214.802C460.871 242.635 456.701 257.21 454.492 261.018Z" fill="#50B8E7"/>
<path d="M540.286 312.567L541.14 326.278C541.311 329.02 556.676 339.992 558.333 337.136C559.659 334.851 554.167 319.349 551.255 311.884L540.286 312.567Z" fill="#50B8E7"/>
<path d="M453.136 445.542L445.365 453.367C441.657 476.354 445.911 476.884 448.502 474.276L464.56 452.171L453.136 445.542Z" fill="#50B8E7"/>
<path d="M454.492 261.018L357.839 222.163C356.699 221.705 356.22 220.356 356.716 219.232C364.657 201.259 368.623 137.493 369.635 106.638C383.326 105.48 411.636 103.289 415.338 103.792C419.039 104.296 420.608 124.569 420.929 134.643C416.757 141.326 411.258 156.166 422.637 162.065C434.015 167.963 442.88 158.051 445.89 152.358C455.067 157.292 478.518 169.413 498.899 178.421C505.522 196.36 490.719 223.893 488.091 225.892C485.463 227.89 474.668 216.634 459.872 214.802C460.871 242.635 456.701 257.21 454.492 261.018Z" stroke="black"/>
<path d="M540.286 312.567L541.14 326.278C541.311 329.02 556.676 339.992 558.333 337.136C559.659 334.851 554.167 319.349 551.255 311.884L540.286 312.567Z" stroke="black"/>
<path d="M453.136 445.542L445.365 453.367C441.657 476.354 445.911 476.884 448.502 474.276L464.56 452.171L453.136 445.542Z" stroke="black"/>
<path d="M574.608 234.335C573.259 234.136 571.879 234.021 570.871 233.972C571.894 234.111 573.252 234.256 574.608 234.335C577.345 234.493 580.073 234.381 580.012 233.403C579.921 231.94 574.985 231.269 572.529 231.116C576.185 230.888 583.12 230.273 581.612 229.633C580.466 229.146 578.286 228.385 576.136 227.901C574.75 227.589 573.376 227.393 572.301 227.46C570.945 227.544 573.416 227.839 576.136 227.901C578.286 228.385 580.466 229.146 581.612 229.633C583.12 230.273 576.185 230.888 572.529 231.116C574.985 231.269 579.921 231.94 580.012 233.403C580.073 234.381 577.345 234.493 574.608 234.335Z" fill="#BBE3F6"/>
<path d="M428.871 22.7346C427.713 22.9648 426.534 23.0454 425.586 22.7937C424.274 22.4454 426.411 22.4867 428.871 22.7346Z" fill="#BBE3F6"/>
<path d="M458.763 84.0425C463.515 89.6193 476.504 113.525 482.405 124.78C488.823 119.792 498.816 105.406 487.441 87.7623C478.045 75.1047 466.513 78.5065 460.513 82.6758C454.41 73.0756 440.854 55.7943 435.46 63.4711C430.065 71.1479 440.482 85.1837 446.365 91.2421C451.789 87.2372 456.05 84.7629 458.763 84.0425Z" fill="#BBE3F6"/>
<path d="M387.316 293.5C389.116 337.127 388.804 372.239 396.654 383.379C402.262 391.337 410.991 392.58 420.904 389.681M453.499 260.5C461.677 273.938 452.503 312.61 447.453 329.747C470.039 324.058 517.027 312.385 524.294 311.198C526.38 310.857 528.11 312.095 529.53 314.25M372.352 228.899C355.796 267.552 330.608 348.061 326.278 358.398C324.67 362.236 324.794 366.294 326.034 370.167C331.484 387.187 351.537 395.583 365.255 407.036C390.084 427.764 429.18 458.194 435.886 453.975C437.52 452.947 439.028 451.037 440.405 449.475M420.904 389.681C423.975 389.258 427.433 388.26 431.73 386.7C443.616 382.385 502.537 353.379 532.729 338.313C534.166 337.596 535.029 336.095 534.875 334.497C534.632 331.973 534.241 329.082 533.675 326.214M420.904 389.681L450.058 430.522C448.884 434.942 445.572 443.615 440.405 449.475M440.405 449.475L444.999 453.429M446.919 439.05L452.999 445.5M533.675 326.214L540.543 326.214M533.675 326.214C532.774 321.642 531.428 317.128 529.53 314.25M529.53 314.25L536.634 314.12L539.627 314.25M493.638 216.759C512.089 223.257 550.979 235.761 558.932 233.798C562.929 239.055 566.756 241.569 567.614 240.598C568.299 239.821 568.357 237.799 568.3 236.885C571.994 237.267 579.36 237.664 579.269 236.202C579.178 234.739 573.632 234.106 570.871 233.972C573.956 234.392 580.103 234.865 580.012 233.403C579.921 231.94 574.985 231.269 572.529 231.116C576.185 230.888 583.12 230.273 581.612 229.633C579.727 228.832 575.043 227.289 572.301 227.46C569.559 227.63 582.469 228.662 581.442 226.891C580.414 225.119 570.989 221.118 561.962 223.516C555.839 219.492 518.893 199.893 501.185 190.596M380.264 105.448C381.696 89.1474 388.721 49.6812 405.362 22.2178C403.364 19.5894 403.022 14.1051 405.821 14.8484C408.06 15.443 409.343 17.3818 409.705 18.2769L427.929 16.2245C431.033 16.9488 434.693 18.7397 424.501 20.1084C432.545 19.6075 433.413 20.7769 432.841 21.4243C431.356 22.1285 427.825 23.3883 425.586 22.7937C422.787 22.0504 435.697 23.0816 433.926 24.1095C432.155 25.1374 428.499 25.3651 425.756 25.5359C423.563 25.6725 418.749 25.9722 416.616 26.1051L407.686 103.74M421.202 135.061L430.303 128.025C427.81 122.368 425.086 109.08 434.137 101.175C438.651 97.2333 442.764 93.9005 446.365 91.2421M458.763 84.0425C463.515 89.6193 476.504 113.525 482.405 124.78C488.823 119.792 498.816 105.406 487.441 87.7623C478.045 75.1047 466.513 78.5065 460.513 82.6758M458.763 84.0425C459.275 83.5909 459.861 83.1288 460.513 82.6758M458.763 84.0425C456.05 84.7629 451.789 87.2372 446.365 91.2421M460.513 82.6758C454.41 73.0756 440.854 55.7943 435.46 63.4711C430.065 71.1479 440.482 85.1837 446.365 91.2421M446.846 152.462L457.722 140.999M452.073 109.234C453.048 109.831 453.938 109.234 454.455 108.148M438.131 121.114C438.207 122.333 439.25 124.348 442.816 122.657M443.676 99.3437C443.693 98.0209 446.212 98.0737 446.212 98.0737M453.048 95.4097C453.048 93.7553 451.707 92.5787 449.876 92.5787M443.217 114.374C441.332 113.574 438.785 110.98 443.676 107.005C448.567 103.03 450.361 101.388 450.647 101.065M457.419 101.065C458.636 101.675 460.39 103.373 459.667 104.839" stroke="black" stroke-linecap="round"/>
<path d="M480.911 125.404C467.984 139.055 460.805 141.337 457.092 140.65C455.951 137.052 464.675 128.971 466.275 125.201C467.875 121.431 462.505 123.601 459.706 122.857C457.467 122.263 465.974 110.538 470.507 104.75C471.154 105.322 474.195 111.874 480.911 125.404Z" fill="black" stroke="black"/>
</svg>
