<svg xmlns="http://www.w3.org/2000/svg" viewBox="0 0 577.589 599.412" >
  <g id="Group_3" data-name="Group 3" transform="translate(18.937 73.965)">
    <path id="Path_1" data-name="Path 1" d="M95.788,212.733c-.2-1.765-.515-3.683-2.1-4.757-1.951-1.326-4.352-.537-6.358.23-.329.121-.647.263-.976.384a11.249,11.249,0,0,0,.592-1.337c.395-1.063.811-2.412.2-3.464-.723-1.239-2.149-1.217-3.321-.745a16.839,16.839,0,0,0-6.193,4.845c-1.359,1.568-2.62,3.2-3.859,4.867a2.917,2.917,0,0,0-.373-.581c-1.239-1.557-3.683-2.181-5.448-2.949q-9.652-4.209-19.611-7.662a2.085,2.085,0,0,0,.033-.274,109.813,109.813,0,0,1,5.459-30.967,1.611,1.611,0,0,0,.055-.811A159.262,159.262,0,0,1,67.66,151.029c1.381-1.589-.943-3.924-2.324-2.324a164.787,164.787,0,0,0-29.29,48.923c-2.762-.811-5.525-1.589-8.3-2.313-2.05-.526-2.927,2.642-.877,3.179A269.994,269.994,0,0,1,57.6,208.469q3.782,1.48,7.5,3.08c1.272.548,2.532,1.1,3.793,1.666,1.151.515,2.083.691,2.149,2.072a98.493,98.493,0,0,1-.811,16.761c-.252,2.094,3.036,2.083,3.289,0,0-.033.011-.055.011-.088a66.313,66.313,0,0,0,11.543,4.012c3.31.811,8.452,2.3,9.767-2.149a37.911,37.911,0,0,0,1.019-6.753,71.325,71.325,0,0,0,.34-7.169,68.161,68.161,0,0,0-.406-7.169M45.123,200.478c-.833-.274-1.655-.559-2.477-.833-1.151-.362-2.313-.7-3.464-1.052a159.332,159.332,0,0,1,8.638-18.81,113.36,113.36,0,0,0-2.7,20.7m47.53,25.53c-.1,1.173-.219,2.357-.384,3.53a15.543,15.543,0,0,1-.6,3.409c-.6,1.491-3.606.351-4.757.088a63.3,63.3,0,0,1-12.781-4.374,1.3,1.3,0,0,0-.241-.088c.329-3.541.493-7.1.482-10.666v-.614a1.585,1.585,0,0,0,.46-.438c2.3-3.223,4.692-6.818,7.8-9.318a9.724,9.724,0,0,1,.866-.526,23,23,0,0,1-3.3,4.659,1.65,1.65,0,0,0,2,2.576,43.163,43.163,0,0,1,6.226-2.96,9.456,9.456,0,0,1,2.532-.745c1.1-.055,1.3.658,1.469,1.6a55.9,55.9,0,0,1,.23,13.867" transform="translate(-25.015 42.472) rotate(-11)" fill="#272a46"></path>
    <path id="Path_2" data-name="Path 2" d="M100.89,82.2a1.642,1.642,0,0,1-1.962,1.162c-.044.011-.077.022-.077.033-.186.055-.362.121-.537.186H98.3a.539.539,0,0,0-.1.044.185.185,0,0,1-.055.022.011.011,0,0,1-.011.011.184.184,0,0,1-.055.022c-.164.077-.329.153-.493.241a13.68,13.68,0,0,0-1.885,1.14c-.066.055-.142.1-.208.153-.153.132-.318.263-.471.395-.274.241-.537.493-.8.756s-.5.548-.734.822a2.41,2.41,0,0,0-.153.2c-.011,0,0,0-.011.011-.1.143-.208.3-.318.449a1.677,1.677,0,0,1-2.247.581,1.645,1.645,0,0,1-.592-2.247,15.952,15.952,0,0,1,3.979-4.023,13.34,13.34,0,0,1,2.17-1.261c1.03-.482,2.269-1.107,3.42-.713A1.676,1.676,0,0,1,100.89,82.2" transform="translate(-20.201 34.862) rotate(-11)" fill="#272a46"></path>
    <path id="Path_3" data-name="Path 3" d="M102.615,87.919v.153a2.678,2.678,0,0,1-.121.658,3.682,3.682,0,0,1-.285.592,3.407,3.407,0,0,1-.428.537,4.447,4.447,0,0,1-.5.395,3.384,3.384,0,0,1-.877.417,2.94,2.94,0,0,1-.3.077c-.219.033-.438.066-.658.077a3.721,3.721,0,0,1-.691-.088,1.245,1.245,0,0,1-.274-.066,3.32,3.32,0,0,1-1.085-.647,4.547,4.547,0,0,1-.3-.351,1.986,1.986,0,0,1-.241-.351,3.091,3.091,0,0,1-.351-1.239,2.713,2.713,0,0,1,.055-.669,1.156,1.156,0,0,1,.055-.208,2.689,2.689,0,0,1,.647-1.052,2.748,2.748,0,0,1,.855-.559,2.477,2.477,0,0,1,2.17.11,2.467,2.467,0,0,1,2.006,1.118,1.92,1.92,0,0,1,.241.581,2.787,2.787,0,0,1,.077.515" transform="translate(-19.483 35.246) rotate(-11)" fill="#272a46"></path>
    <path id="Path_4" data-name="Path 4" d="M118.6,98.984a21.657,21.657,0,0,1-9.69,4.538,17.732,17.732,0,0,1-5.744.208,16.511,16.511,0,0,1-5.459-2.192c-1.853-1.041-.186-3.88,1.666-2.839a12.64,12.64,0,0,0,4.582,1.842,14.037,14.037,0,0,0,4.385-.252,18.186,18.186,0,0,0,7.936-3.639,1.686,1.686,0,0,1,2.324,0,1.667,1.667,0,0,1,0,2.335" transform="translate(-19.247 36.257) rotate(-11)" fill="#272a46"></path>
    <path id="Path_5" data-name="Path 5" d="M214.467,133.553a12.459,12.459,0,0,0-.6-6.051c-1.589-3.716-5.733-4.659-9.405-4.779a31.449,31.449,0,0,0-12.672,2.192c-3.793,1.5-8.145,3.727-10.326,7.355a1.6,1.6,0,0,0-.68.877c-.723,2.1.8,3.815,2.116,5.262a61.1,61.1,0,0,1,4.034,4.856,69.1,69.1,0,0,1,5.426,8.517,3.169,3.169,0,0,0-1.962.811c-1.25,1.162-1.293,2.96-1.809,4.494a20.953,20.953,0,0,1-2.609,4.856c-2.2,3.267-4.418,6.3-5.876,9.986-1.535,3.859-2.6,7.838-4.659,11.466a73.5,73.5,0,0,1-4.374,6.621A271.931,271.931,0,0,0,157.7,162.372a112.012,112.012,0,0,0-8.649-12.924c-3-3.837-6.5-7.257-11.1-9.065a66.687,66.687,0,0,0-8.726-2.39c-3.124-.756-6.237-1.513-9.361-2.28.011-.285.033-.57.044-.866.11-3.837.11-7.673,1.283-11.378a1.484,1.484,0,0,0,.066-.68c.121-.219.219-.438.351-.658,4.2-.7,8.956-2.225,12.266-4.977,3.508-2.927,3.53-8.145,2.861-12.3a23.466,23.466,0,0,0-5.569-11.685c1.776-1.48,4.681-4.505,2.368-6.632-.965-.877-2.5-1.052-3.705-1.4-1.063-.318-2.1-.669-3.157-1.019-1.579-2.455-3.135-4.911-4.725-7.355-.263-.406-.537-.789-.811-1.173.022-.022.055-.033.088-.066,2.061-1.8,4.187-3.563,6.171-5.437a10.407,10.407,0,0,0,3.563-5.886c.34-2.412-.822-4.582-3.354-4.944a9.947,9.947,0,0,0-1.71-.1,21.86,21.86,0,0,0,2.6-5.152c1-2.883,1.359-7.191-1.907-8.791-1.8-.877-3.76-.263-5.415.614-1.853,1-3.65,2.192-5.4,3.365-.6.406-1.195.822-1.787,1.261.175-.691.329-1.37.438-2.072.482-3.256-.274-7.388-4.155-7.969a8.805,8.805,0,0,0-5.645,1.6c-1.677,1-3.321,2.083-4.933,3.2q-1.513,1.052-2.927,2.2a19.62,19.62,0,0,0,.438-2.971c.164-2.642-1-7.1-4.418-6.522-7.114,1.195-12.475,7.1-16.925,12.321a104.52,104.52,0,0,0-7.158,9.427,57.5,57.5,0,0,0-5.777,10.162c-1.589,3.891-1.677,7.8-1.513,11.948a40.13,40.13,0,0,0,1.48,10.9c2.258,6.95,8.232,11.181,14.952,13.165a13.473,13.473,0,0,0,.11,5.152,7.873,7.873,0,0,0,5.021,5.667,14.089,14.089,0,0,0,7.268.438,19.694,19.694,0,0,1-1.206,3.08c-.811,1.842-1.622,3.672-2.434,5.514-1.239,2.784-2.423,5.623-3.8,8.353a150.231,150.231,0,0,0-19.1.822c-5.6.636-11.324,1.842-15.927,5.295s-8.265,8.265-11.707,12.825a127.263,127.263,0,0,0-9.263,14.163,151.785,151.785,0,0,0-13.242,31.406c-1.721,5.777-3.387,11.729-3.9,17.758-.471,5.4.011,11.981,4.352,15.829a18.931,18.931,0,0,0,7.5,3.727c3.267.932,6.61,1.611,9.909,2.379q8.106,1.907,16.223,3.8a50.373,50.373,0,0,1,1.4,23.787c-.449,2.729-.6,6.237,2.236,7.739,1.436.767,3.31.647,4.889.756.208.011.417.033.625.044a156.516,156.516,0,0,0,5.843,69.509A154.9,154.9,0,0,0,69.585,361.7C57.977,373,46.554,384.634,37.325,398.007a116.252,116.252,0,0,0-11.587,20.838A91.089,91.089,0,0,0,21.792,430c-.515,1.831-.987,3.683-1.359,5.547a6.748,6.748,0,0,0,.307,4.538c-1.809,1.37-2.817,3.486-3.749,5.558-1.25,2.751-2.883,5.316-3.957,8.145a1.717,1.717,0,0,0-.34.307C7.98,459.722.559,467.055,3.913,475.145c1.469,3.563,4.966,6.04,7.849,8.408q4.834,3.979,9.986,7.531,5.179,3.585,10.655,6.687c3.749,2.138,7.586,4.363,11.937,4.911,1.8.23,3.749.241,5.064-1.217a5.706,5.706,0,0,0,.965-4.626,32.912,32.912,0,0,0-3.793-11.126,64.933,64.933,0,0,0-8.32-11.5c-1.557-1.8-3.168-3.563-4.746-5.338-1.107-1.228-3.574-3.716-1.885-5.393a1.535,1.535,0,0,0,.46-.866,18.3,18.3,0,0,0,1.94-1.458,22.233,22.233,0,0,0,4.834-6.325c1.666,1.239,3.354,2.477,5.042,3.705a1.418,1.418,0,0,0,2.2-.68c17.55-15.818,32.6-34.135,46.478-53.187q5.147-7.087,10.118-14.283c3.4-4.911,7.07-9.789,9.46-15.292a66.072,66.072,0,0,0,4.341-17.473c.855-6.336,1.293-12.716,1.611-19.106q.51-10.079.954-20.148c10.962,8.868,21.989,17.692,33.8,25.42-17.1,11.05-27.24,29.531-35,47.859q-1.677,3.979-3.289,7.991c-.91,2.247-2.225,4.779-1.557,7.268.691,2.565,3.168,3.87,5.251,5.174.23.142.46.285.68.427a50.508,50.508,0,0,0-5.722,7.311c-2.532,3.278-5.086,6.544-7.618,9.833-2.214,2.872-5.24,6.621-5.284,10.458-.011,2.083,1.633,3.683,2.817,5.251q1.907,2.532,3.848,5.053c2.74,3.541,5.547,7.027,8.539,10.348a128.167,128.167,0,0,0,9.2,9.23c2.839,2.565,5.952,5.623,9.92,6.128,1.82.23,3.617-.153,4.549-1.885.888-1.622.8-3.782.7-5.569a39.593,39.593,0,0,0-2.313-12.529c-1.611-3.935-4.166-7.333-6.632-10.764a45.167,45.167,0,0,1-3.6-5.5c-.537-1.052-1.074-2.828-.548-3.99a11.252,11.252,0,0,1,1.25-1.019c.011-.011.022-.011.044-.022a1.483,1.483,0,0,0,.954-.68c.34-.241.68-.482,1.008-.734a44.424,44.424,0,0,0,8.353-8.737,2.307,2.307,0,0,0,2.214-.2,32.434,32.434,0,0,0,9.657-8.868c2.773-3.573,5.152-7.421,7.925-10.995,3.289-4.253,7.4-7.717,11.137-11.554,7.7-7.871,14.13-16.87,20.422-25.859,5.755-8.21,12.442-17.736,9.087-28.26-1.546-4.823-4.308-9.361-6.818-13.735q-3.749-6.511-8-12.727a199,199,0,0,0-40.789-43.847c-1.359-1.085-2.751-2.116-4.133-3.157a1.735,1.735,0,0,0,.34-1.524c-.186-.8-.384-1.611-.581-2.423a1.643,1.643,0,0,0-.066-1.337c-8-16.4-9.175-35.122-9.6-53.066a39.056,39.056,0,0,1,1.052-11.795c7.969,12.727,16.443,25.442,28.523,34.639a118.152,118.152,0,0,0,11.192,7.312c1.633.976,3.365,2.247,5.349,2.214a6.213,6.213,0,0,0,4.4-2.488,86.7,86.7,0,0,0,13.4-20.4,92.169,92.169,0,0,0,4.472-11.258c1.37-4.3,2.357-8.693,3.574-13.034,2.379-8.561,6.391-16.388,10.052-24.445,1.392-3.069,3.913-7.191,2.554-10.666a4.812,4.812,0,0,0-2.938-2.74,129.7,129.7,0,0,0,2.828-14c.329-2.3.614-4.615.811-6.928M79.243,102.827c-4.2-1.151-8.32-3.19-10.984-6.709-3.289-4.352-3.431-10.107-3.617-15.325a23.74,23.74,0,0,1,.921-8.737,39.141,39.141,0,0,1,4.067-7.8A97.1,97.1,0,0,1,79.977,50.518c3.628-4.034,7.739-8.156,13.187-9.318,1.063,1.151.822,3.267.537,4.648a33.8,33.8,0,0,1-2.642,7.673A1.644,1.644,0,0,0,93.9,55.176a25.962,25.962,0,0,1,6.336-6.336c1.217-.9,2.477-1.732,3.749-2.554a21.516,21.516,0,0,1,4.166-2.379c3.354-1.195,3.354,2.434,2.883,4.714a19.94,19.94,0,0,1-3.88,8.386,4.015,4.015,0,0,0-.263.34c-1.1,1.5,1.414,3.453,2.576,2,.088-.11.164-.23.252-.34h.011a28.126,28.126,0,0,1,6.752-6.336c1.25-.866,2.532-1.677,3.826-2.477,1.162-.723,2.762-2.083,4.2-2.127,2.62-.088.976,4.7.5,5.865a18.441,18.441,0,0,1-5.327,7.18c-1.458,1.228.417,3.486,2,2.587a8.764,8.764,0,0,1,5.01-1.25c1.041.088,1.184.5,1,1.491a5.115,5.115,0,0,1-.932,1.973,20.593,20.593,0,0,1-3.354,3.343c-1.447,1.261-2.883,2.521-4.33,3.793a16.077,16.077,0,0,0-2.565-2.291,35.188,35.188,0,0,0-16.245-5.623c-5.393-.537-11.663.055-15.621,4.144A29.707,29.707,0,0,0,79.78,75.8c-1.392,2.675-1.491,5.514-1.272,8.473a41.11,41.11,0,0,0,1.622,9.657,37.082,37.082,0,0,0,3.321,7.1,6.454,6.454,0,0,0-4.209,1.8m2.181,39.364a33.63,33.63,0,0,0,4.637-7.366c1.5-3.113,2.85-6.314,4.253-9.482,1.381-3.124,3.65-6.676,3.4-10.216a1.672,1.672,0,0,0-2.072-1.589c-3.42.636-9.175,1.491-10.425-2.982a9.358,9.358,0,0,1-.132-4.374,1.872,1.872,0,0,0,.8-1.315c1.019-.789,2.784-.647,3.957-.6a1.426,1.426,0,0,0,1.48-.976,1.48,1.48,0,0,0,.186-1.864A48.128,48.128,0,0,1,83.8,94.464a29.8,29.8,0,0,1-1.765-7.487c-.3-2.576-.745-5.5-.022-8.024.647-2.247,2.313-4.22,3.76-6.007a10.961,10.961,0,0,1,5.766-4,23.583,23.583,0,0,1,7.487-.625,33.24,33.24,0,0,1,14.459,4.429,16.626,16.626,0,0,1,5.612,5.667c.833,1.283,1.655,2.576,2.477,3.87-1.4-.559-2.8-1.151-4.165-1.765a1.682,1.682,0,0,0-2.247.581,1.662,1.662,0,0,0,.581,2.258q4.374,1.973,8.912,3.541a1.543,1.543,0,0,0,1.008.362c1.381.46,2.762.9,4.155,1.293.11.033.548.2.932.318a.038.038,0,0,1-.011.022,11.106,11.106,0,0,1-2.127,2.116,12.391,12.391,0,0,1-5.36,2.335,1.663,1.663,0,0,0-1.151,2.028,1.685,1.685,0,0,0,2.028,1.14,14.723,14.723,0,0,0,4.33-1.557,2.333,2.333,0,0,0,.274.428,20.347,20.347,0,0,1,4.746,9.909c.625,3.519.669,7.947-2.708,10.03a29.1,29.1,0,0,1-22.044,3.124c-2.05-.526-2.927,2.653-.877,3.168a33.169,33.169,0,0,0,9.9.943,1.226,1.226,0,0,0-.055.395,1.067,1.067,0,0,0,.022.263,1.7,1.7,0,0,0,.044.23c-1.535,5.623-.844,11.565-1.557,17.309-.186,1.513-.449,3.025-.778,4.505q-.28,1.3-.625,2.565c-.143.537-.263,1.633-.745,2-.395.3-1.195.175-1.655.186-.745.022-1.48.022-2.214.011-1.568-.022-3.124-.1-4.681-.23A65.457,65.457,0,0,1,87.99,145.8c-1.326-.493-2.642-1.041-3.924-1.633-.68-.307-1.337-.625-2.006-.954-.855-.427-1.272-.274-.636-1.019M35.088,480.56c.756-1.293.318-2.927-.132-4.242a15.717,15.717,0,0,0-.625-1.546c1.217,1.348,2.423,2.7,3.574,4.1a52.175,52.175,0,0,1,6.259,9.329c1.491,2.916,3.058,6.61,3.025,9.942-.011.8-.088,1.239-.932,1.381a8.1,8.1,0,0,1-3.025-.351,24.175,24.175,0,0,1-5.7-2.335c-3.354-1.765-6.621-3.683-9.811-5.722a126.529,126.529,0,0,1-18-13.637A9.4,9.4,0,0,1,6.588,472.8a9.9,9.9,0,0,1,.691-5.81,27.086,27.086,0,0,1,4.7-7.059A17.884,17.884,0,0,0,16.859,471.4a53.942,53.942,0,0,0,6.917,6.413c2.269,1.732,5.053,3.563,7.925,4.067a3.173,3.173,0,0,0,3.387-1.315m-2.751-22.329c-1.666,1.633-4.363,2.729-5.36,4.911-1.041,2.269.285,5.075,1.283,7.125,1.173,2.379,2.762,4.593,3.6,7.136a11.529,11.529,0,0,1,.274,1.184c-.2-.077-.669-.186-.691-.2a18.5,18.5,0,0,1-3.628-1.765,36.927,36.927,0,0,1-6.292-5.174c-2.017-1.973-4.078-3.99-5.207-6.632a13.4,13.4,0,0,1-.877-7.465c.559-3.168,2.368-5.854,3.76-8.693,1.019-2.072,1.765-4.724,3.749-6.073,1.1.932,2.324,1.776,3.409,2.631q2.845,2.269,5.722,4.483c1.359,1.063,2.74,2.094,4.122,3.135a19.189,19.189,0,0,1-3.859,5.393m95.74-4.714a11.4,11.4,0,0,0,.691-5.569c.175.241.362.482.526.723a39.12,39.12,0,0,1,5.437,9.164,37.25,37.25,0,0,1,1.9,11.346,10.733,10.733,0,0,1-.132,2.9c-.23.943-.734.9-1.633.767a10.608,10.608,0,0,1-4.681-2.456,99.529,99.529,0,0,1-8.835-8.232A191.531,191.531,0,0,1,105.814,443.5a15.682,15.682,0,0,1-2.017-2.751c-.428-.987.175-2.258.592-3.19a26.3,26.3,0,0,1,3.212-5.13c.57-.767,1.173-1.535,1.754-2.291a19.531,19.531,0,0,0,.153,5.634c1.557,8.715,8.375,15.906,16.541,18.887a1.682,1.682,0,0,0,2.028-1.14m2.5-24.872a40.121,40.121,0,0,1-3.628,3.047l-.2.132a4.932,4.932,0,0,0-2.412,1.874,5.008,5.008,0,0,0-.68.833c-1.71,2.576-.066,6.248.723,8.9.734,2.455,1.436,4.944,1.019,7.421a22.248,22.248,0,0,1-12.727-15.96c-.811-4.714.68-9.109,3.113-13.045.175-.241.362-.471.548-.7a1.836,1.836,0,0,0,.307-.625,52.1,52.1,0,0,1,5.141-6.226l3.815,2.4,7.794,4.9c.734.46,1.469.921,2.192,1.392a42.315,42.315,0,0,1-5.01,5.656M187,323.16c1.655,2.729,3.234,5.492,4.757,8.3a46.341,46.341,0,0,1,4.144,9.065c1.853,6.588-1.052,12.957-4.505,18.46-3.661,5.832-7.794,11.444-11.916,16.969A142.527,142.527,0,0,1,165.8,392c-2.861,2.828-5.9,5.492-8.506,8.572-2.083,2.445-3.924,5.1-5.766,7.739-3.4,4.9-6.928,9.931-12.124,13.034a1.95,1.95,0,0,0-1.173-.592q-8.468-5.311-16.925-10.644a31.4,31.4,0,0,1-4.155-2.708c-1.491-1.293-.965-2.916-.351-4.549,1.217-3.212,2.565-6.38,3.9-9.548,5.174-12.244,11.181-24.423,19.972-34.519a65.744,65.744,0,0,1,15.237-13.056c.428.274.855.559,1.294.833,1.809,1.118,3.453-1.732,1.655-2.839-13.867-8.594-26.582-18.854-39.232-29.115a1.493,1.493,0,0,0-.373-.23c.307-6.621.592-13.253.9-19.874.1-2.116-3.19-2.1-3.289,0q-.888,19.337-1.776,38.662c-.3,6.237-.581,12.486-1.195,18.7a88.852,88.852,0,0,1-3.256,17.944c-1.82,5.777-5.141,10.721-8.539,15.664Q97.149,392.7,92.057,399.8c-6.774,9.427-13.8,18.679-21.277,27.558A285.16,285.16,0,0,1,44.461,454.9q-2.253-1.644-4.494-3.321a1.567,1.567,0,0,0-1.272-.954q-6.643-4.982-13.1-10.205a9.65,9.65,0,0,1-1.809-1.589,3,3,0,0,1-.186-2.4c.362-1.864.844-3.716,1.359-5.547a87.909,87.909,0,0,1,3.8-10.819c6.007-14.119,15.226-26.6,25.453-37.939,5.974-6.6,12.3-12.869,18.69-19.063a1.556,1.556,0,0,0-.23-2.444A152.969,152.969,0,0,1,58.5,294.385,148.907,148.907,0,0,1,59.983,275a1.672,1.672,0,0,0,0-.406c1.03.066,2.072.143,3.1.208,16.848,1.14,33.883,2.379,50.633-.559a83.837,83.837,0,0,0,22.274-7.037A196.037,196.037,0,0,1,187,323.16M210.839,159.6c-.142,1.82-1.129,3.606-1.853,5.24-3.256,7.344-7.059,14.481-9.624,22.11-2.6,7.7-3.99,15.7-7,23.261a87.353,87.353,0,0,1-10.984,19.567q-1.562,2.088-3.234,4.056a13.872,13.872,0,0,1-1.721,1.863,2.009,2.009,0,0,1-2.488.11,88.426,88.426,0,0,1-10.359-6.413c-14.13-9.657-23.36-24.28-32.25-38.553a1.658,1.658,0,0,0-2.839,0c-2.017,4.209-2.565,8.8-2.6,13.439-.022,4.768.219,9.548.493,14.294a141.791,141.791,0,0,0,4,28.161,83.132,83.132,0,0,0,4.977,13.79,1.711,1.711,0,0,0,.033.57c.2.811.395,1.622.581,2.444-13.264,6.851-28.336,9.054-43.135,9.241-8.134.11-16.256-.362-24.368-.9-4.111-.274-8.21-.559-12.31-.833-1.052-.066-3.278.23-3.88-.921-.57-1.107-.186-2.773.011-3.913a51.928,51.928,0,0,0-.987-23.294c.778.175,1.557.362,2.324.537,2.061.482,2.938-2.686.877-3.168l-18.514-4.341-9-2.1a46.341,46.341,0,0,1-7.377-2.072,10.06,10.06,0,0,1-5.338-4.626,17.024,17.024,0,0,1-1.469-7.739c-.022-5.865,1.578-11.685,3.146-17.3a150.3,150.3,0,0,1,11.894-30.046c5.021-9.46,11.137-18.745,18.657-26.418a22.674,22.674,0,0,1,7.355-5.2,34.729,34.729,0,0,1,8.682-2.148,134.2,134.2,0,0,1,18.416-.987c-.34.537-.691,1.085-1.074,1.589-.855,1.14-2.159,2.17-2.269,3.683a3.405,3.405,0,0,0,2.138,3.124,48.812,48.812,0,0,0,4.856,2.258,69,69,0,0,0,18.953,4.911,46.35,46.35,0,0,0,10.162.351c3.552-.373,4.1-3.639,4.768-6.577a57.7,57.7,0,0,0,1.162-7.607c4.977,1.195,10.008,2.28,14.93,3.683,4.812,1.37,8.331,4.33,11.444,8.167,6.38,7.849,11.236,16.958,15.577,26.056,2.28,4.79,4.418,9.657,6.533,14.524a48.017,48.017,0,0,0-9.164,5.021,1.646,1.646,0,1,0,1.666,2.839,45.535,45.535,0,0,1,4.933-3.047c.548-.3,1.1-.559,1.644-.822a42.852,42.852,0,0,0-3.661,6.446,27.239,27.239,0,0,0-1.754,5.13c-.482,2.061,2.686,2.938,3.168.877,1.568-6.742,6.084-12.135,9.975-17.67a49.742,49.742,0,0,0,5.262-9.087c1.5-3.563,2.4-7.377,4.2-10.819,1.611-3.091,3.935-5.722,5.678-8.726a18.924,18.924,0,0,0,1.863-4.264c.164-.559.175-1.666.537-2.127.395-.493,2.434.121,3.1.208,4.264.614,8.561,1.118,12.814,1.831,1.469.241,2.576.625,2.444,2.335m-.175-21.375a123.4,123.4,0,0,1-3.025,15.456c-.011.044-.011.088-.022.132-1.469-.219-2.96-.384-4.429-.592q-3.437-.477-6.873-.976a69.562,69.562,0,0,0-5.93-9.8q-1.694-2.351-3.563-4.549c-.592-.7-1.206-1.392-1.831-2.072a4.511,4.511,0,0,1-1.03-1.348c2-3.8,7.037-5.974,10.918-7.169,4.034-1.25,9.087-2.061,13.209-.756a4.372,4.372,0,0,1,3.19,4.341,41.14,41.14,0,0,1-.614,7.333" transform="translate(-29.176 32.474) rotate(-11)" fill="#272a46"></path>
    <path id="Path_6" data-name="Path 6" d="M46.9,461.111c-.011.8-.088,1.239-.932,1.381a8.1,8.1,0,0,1-3.025-.351,24.178,24.178,0,0,1-5.7-2.335c-3.354-1.765-6.621-3.683-9.811-5.722a126.527,126.527,0,0,1-18-13.637,9.4,9.4,0,0,1-3.135-4.681,9.9,9.9,0,0,1,.691-5.81,27.087,27.087,0,0,1,4.7-7.059,17.884,17.884,0,0,0,4.878,11.466,53.947,53.947,0,0,0,6.917,6.413c2.269,1.732,5.053,3.563,7.925,4.067a3.173,3.173,0,0,0,3.387-1.315c.756-1.293.318-2.927-.132-4.242a15.713,15.713,0,0,0-.625-1.546c1.217,1.348,2.423,2.7,3.574,4.1a52.171,52.171,0,0,1,6.259,9.329c1.491,2.916,3.058,6.61,3.025,9.942" transform="translate(-21.823 68.77) rotate(-11)" fill="#1b7ed3"></path>
    <path id="Path_7" data-name="Path 7" d="M127.671,437.669c-.23.943-.734.9-1.633.767a10.608,10.608,0,0,1-4.681-2.456,99.512,99.512,0,0,1-8.835-8.232A191.537,191.537,0,0,1,96.989,409.08a15.68,15.68,0,0,1-2.017-2.751c-.428-.987.175-2.258.592-3.19a26.3,26.3,0,0,1,3.212-5.13c.57-.767,1.173-1.535,1.754-2.291a19.533,19.533,0,0,0,.153,5.634c1.557,8.715,8.375,15.906,16.541,18.887a1.682,1.682,0,0,0,2.028-1.14,11.4,11.4,0,0,0,.691-5.569c.175.241.362.482.526.724a39.118,39.118,0,0,1,5.437,9.164,37.249,37.249,0,0,1,1.9,11.345,10.733,10.733,0,0,1-.132,2.9" transform="translate(-13.946 64.576) rotate(-11)" fill="#1b7ed3"></path>
    <path id="Path_8" data-name="Path 8" d="M125.989,389.961a42.3,42.3,0,0,1-5.01,5.656,40.115,40.115,0,0,1-3.628,3.047l-.2.132a4.933,4.933,0,0,0-2.412,1.874,5.012,5.012,0,0,0-.68.833c-1.71,2.576-.066,6.248.723,8.9.734,2.455,1.436,4.944,1.019,7.421a22.249,22.249,0,0,1-12.727-15.96c-.811-4.714.68-9.109,3.113-13.045.175-.241.362-.471.548-.7a1.836,1.836,0,0,0,.307-.625,52.094,52.094,0,0,1,5.141-6.226l3.815,2.4,7.794,4.9c.734.46,1.469.921,2.192,1.392" transform="translate(-13.453 63.064) rotate(-11)" fill="#fcfcfc"></path>
    <path id="Path_9" data-name="Path 9" d="M25.909,427.631c-1.041,2.269.285,5.075,1.283,7.125,1.173,2.379,2.762,4.593,3.6,7.136a11.536,11.536,0,0,1,.274,1.184c-.2-.077-.669-.186-.691-.2a18.5,18.5,0,0,1-3.628-1.765,36.93,36.93,0,0,1-6.292-5.174c-2.017-1.973-4.078-3.99-5.207-6.632a13.4,13.4,0,0,1-.877-7.465c.559-3.168,2.368-5.854,3.76-8.693,1.019-2.072,1.765-4.724,3.749-6.073,1.1.932,2.324,1.776,3.409,2.631q2.845,2.269,5.722,4.483c1.359,1.063,2.74,2.094,4.122,3.135a19.189,19.189,0,0,1-3.859,5.393c-1.666,1.633-4.363,2.73-5.36,4.911" transform="translate(-21.352 67.128) rotate(-11)" fill="#fcfcfc"></path>
    <path id="Path_10" data-name="Path 10" d="M189.605,338.86c-3.661,5.832-7.794,11.444-11.915,16.969a142.526,142.526,0,0,1-13.68,16.048c-2.861,2.828-5.9,5.492-8.506,8.572-2.083,2.445-3.924,5.1-5.766,7.739-3.4,4.9-6.928,9.931-12.124,13.034a1.95,1.95,0,0,0-1.173-.592q-8.468-5.311-16.925-10.644a31.4,31.4,0,0,1-4.155-2.708c-1.491-1.293-.965-2.916-.351-4.549,1.217-3.212,2.565-6.38,3.9-9.548,5.174-12.244,11.181-24.423,19.972-34.519a65.743,65.743,0,0,1,15.237-13.056c.428.274.855.559,1.294.833,1.809,1.118,3.453-1.732,1.655-2.839-13.867-8.594-26.582-18.854-39.232-29.115a1.493,1.493,0,0,0-.373-.23c.307-6.621.592-13.253.9-19.874.1-2.116-3.19-2.1-3.289,0q-.888,19.337-1.776,38.662c-.3,6.237-.581,12.486-1.195,18.7a88.851,88.851,0,0,1-3.256,17.944c-1.82,5.777-5.141,10.721-8.539,15.664q-4.949,7.218-10.041,14.327c-6.774,9.427-13.8,18.679-21.277,27.558a285.164,285.164,0,0,1-26.319,27.536q-2.253-1.644-4.494-3.321a1.567,1.567,0,0,0-1.272-.954q-6.643-4.982-13.1-10.205A9.647,9.647,0,0,1,22,418.706a3,3,0,0,1-.186-2.4c.362-1.864.844-3.716,1.359-5.547a87.914,87.914,0,0,1,3.8-10.819C32.983,385.821,42.2,373.335,52.429,362c5.974-6.6,12.3-12.869,18.69-19.063a1.556,1.556,0,0,0-.23-2.444,152.969,152.969,0,0,1-14.174-66.231,148.907,148.907,0,0,1,1.48-19.38,1.673,1.673,0,0,0,0-.406c1.03.066,2.072.143,3.1.208,16.848,1.14,33.883,2.379,50.633-.559a83.834,83.834,0,0,0,22.274-7.037,196.039,196.039,0,0,1,51.005,55.949c1.655,2.73,3.234,5.492,4.757,8.3a46.347,46.347,0,0,1,4.144,9.065c1.853,6.588-1.052,12.957-4.505,18.46" transform="translate(-23.582 51.886) rotate(-11)" fill="#1b7ed3"></path>
    <path id="Path_11" data-name="Path 11" d="M195.406,123.167a41.136,41.136,0,0,1-.614,7.333,123.393,123.393,0,0,1-3.025,15.456c-.011.044-.011.088-.022.132-1.469-.219-2.96-.384-4.429-.592q-3.436-.477-6.873-.976a69.565,69.565,0,0,0-5.93-9.8q-1.694-2.351-3.563-4.549c-.592-.7-1.206-1.392-1.831-2.072a4.512,4.512,0,0,1-1.03-1.348c2-3.8,7.037-5.974,10.918-7.169,4.034-1.25,9.087-2.061,13.209-.756a4.372,4.372,0,0,1,3.19,4.341" transform="translate(-12.123 37.026) rotate(-11)" fill="#fcfcfc"></path>
    <path id="Path_12" data-name="Path 12" d="M122.284,63.643a5.116,5.116,0,0,1-.932,1.973A20.593,20.593,0,0,1,118,68.959c-1.447,1.261-2.883,2.521-4.33,3.793a16.077,16.077,0,0,0-2.565-2.291,35.188,35.188,0,0,0-16.245-5.623c-5.393-.537-11.663.055-15.621,4.144A29.707,29.707,0,0,0,74.381,75.5c-1.392,2.675-1.491,5.514-1.272,8.473a41.111,41.111,0,0,0,1.622,9.657,37.082,37.082,0,0,0,3.321,7.1,6.454,6.454,0,0,0-4.209,1.8c-4.2-1.151-8.32-3.19-10.984-6.709C59.571,91.475,59.429,85.72,59.243,80.5a23.741,23.741,0,0,1,.921-8.737,39.141,39.141,0,0,1,4.067-7.8A97.1,97.1,0,0,1,74.578,50.226c3.628-4.034,7.739-8.156,13.187-9.318,1.063,1.151.822,3.267.537,4.648a33.8,33.8,0,0,1-2.642,7.673A1.644,1.644,0,0,0,88.5,54.884a25.961,25.961,0,0,1,6.336-6.336c1.217-.9,2.477-1.732,3.749-2.554a21.516,21.516,0,0,1,4.166-2.379c3.354-1.195,3.354,2.434,2.883,4.714a19.939,19.939,0,0,1-3.88,8.386,4,4,0,0,0-.263.34c-1.1,1.5,1.414,3.453,2.576,2,.088-.11.164-.23.252-.34h.011a28.126,28.126,0,0,1,6.752-6.336c1.25-.866,2.532-1.677,3.826-2.477,1.162-.723,2.762-2.083,4.2-2.127,2.62-.088.976,4.7.5,5.865a18.441,18.441,0,0,1-5.327,7.18c-1.458,1.228.417,3.486,2,2.587a8.764,8.764,0,0,1,5.01-1.25c1.041.088,1.184.5,1,1.491" transform="translate(-23.821 31.731) rotate(-11)" fill="#1b7ed3"></path>
    <path id="Path_13" data-name="Path 13" d="M126.654,102.627a20.347,20.347,0,0,0-4.746-9.909,2.333,2.333,0,0,1-.274-.428,14.722,14.722,0,0,1-4.33,1.557,1.685,1.685,0,0,1-2.028-1.14,1.663,1.663,0,0,1,1.151-2.028,12.392,12.392,0,0,0,5.36-2.335,11.106,11.106,0,0,0,2.127-2.116.038.038,0,0,0,.011-.022c-.384-.121-.822-.285-.932-.318-1.392-.395-2.773-.833-4.155-1.293a1.543,1.543,0,0,1-1.008-.362q-4.538-1.562-8.912-3.541a1.662,1.662,0,0,1-.581-2.258,1.682,1.682,0,0,1,2.247-.581c1.37.614,2.762,1.206,4.166,1.765-.822-1.293-1.644-2.587-2.477-3.87a16.625,16.625,0,0,0-5.612-5.667A33.24,33.24,0,0,0,92.2,65.653a23.584,23.584,0,0,0-7.487.625,10.961,10.961,0,0,0-5.766,4c-1.447,1.787-3.113,3.76-3.76,6.007-.723,2.521-.274,5.448.022,8.024A29.8,29.8,0,0,0,76.976,91.8a48.127,48.127,0,0,0,3.705,6.961,1.48,1.48,0,0,1-.186,1.864,1.426,1.426,0,0,1-1.48.976c-1.173-.044-2.938-.186-3.957.6a1.872,1.872,0,0,1-.8,1.315,9.358,9.358,0,0,0,.132,4.374c1.25,4.472,7,3.617,10.425,2.982a1.672,1.672,0,0,1,2.072,1.589c.252,3.541-2.017,7.092-3.4,10.216-1.4,3.168-2.751,6.369-4.253,9.482a33.631,33.631,0,0,1-4.637,7.366c-.636.745-.219.592.636,1.019.669.329,1.326.647,2.006.954,1.283.592,2.6,1.14,3.924,1.633a65.457,65.457,0,0,0,17.517,3.99c1.557.132,3.113.208,4.681.23.734.011,1.469.011,2.214-.011.46-.011,1.261.11,1.655-.186.482-.362.6-1.458.745-2q.345-1.266.625-2.565c.329-1.48.592-2.993.778-4.505.713-5.744.022-11.685,1.557-17.309a1.7,1.7,0,0,1-.044-.23,1.067,1.067,0,0,1-.022-.263,1.226,1.226,0,0,1,.055-.395,33.168,33.168,0,0,1-9.9-.943c-2.05-.515-1.173-3.694.877-3.168a29.1,29.1,0,0,0,22.044-3.124c3.376-2.083,3.332-6.511,2.708-10.03M97.025,86.6c-.153.132-.318.263-.471.395-.274.241-.537.493-.8.756s-.5.548-.734.822a2.415,2.415,0,0,0-.153.2c-.011,0,0,0-.011.011-.1.143-.208.3-.318.449a1.677,1.677,0,0,1-2.247.581,1.645,1.645,0,0,1-.592-2.247,15.952,15.952,0,0,1,3.979-4.023,13.342,13.342,0,0,1,2.17-1.261c1.03-.482,2.269-1.107,3.42-.713a1.676,1.676,0,0,1,1.151,2.017,1.642,1.642,0,0,1-1.962,1.162c-.044.011-.077.022-.077.033-.186.055-.362.121-.537.186h-.011c-.044.022-.077.033-.1.044a.185.185,0,0,1-.055.022.011.011,0,0,1-.011.011.185.185,0,0,1-.055.022c-.164.077-.329.153-.493.241a13.683,13.683,0,0,0-1.885,1.14c-.066.055-.143.1-.208.153m1.644,3.387a2.713,2.713,0,0,1,.055-.669,1.157,1.157,0,0,1,.055-.208,2.688,2.688,0,0,1,.647-1.052,2.747,2.747,0,0,1,.855-.559,2.477,2.477,0,0,1,2.17.11,2.467,2.467,0,0,1,2.006,1.118,1.92,1.92,0,0,1,.241.581,2.788,2.788,0,0,1,.077.515v.153a2.678,2.678,0,0,1-.121.658,3.682,3.682,0,0,1-.285.592,3.406,3.406,0,0,1-.428.537,4.447,4.447,0,0,1-.5.395,3.384,3.384,0,0,1-.877.417,2.934,2.934,0,0,1-.3.077c-.219.033-.438.066-.658.077a3.722,3.722,0,0,1-.691-.088,1.244,1.244,0,0,1-.274-.066,3.319,3.319,0,0,1-1.085-.647,4.548,4.548,0,0,1-.3-.351,1.986,1.986,0,0,1-.241-.351,3.091,3.091,0,0,1-.351-1.239M120.8,101.925a21.657,21.657,0,0,1-9.69,4.538,17.73,17.73,0,0,1-5.744.208,16.511,16.511,0,0,1-5.459-2.192c-1.853-1.041-.186-3.88,1.666-2.839a12.64,12.64,0,0,0,4.582,1.842,14.036,14.036,0,0,0,4.385-.252,18.186,18.186,0,0,0,7.936-3.639,1.686,1.686,0,0,1,2.324,0,1.667,1.667,0,0,1,0,2.335" transform="translate(-21.966 33.789) rotate(-11)" fill="#fcfcfc"></path>
    <path id="Path_14" data-name="Path 14" d="M207.541,148.539c-4.253-.713-8.55-1.217-12.814-1.831-.669-.088-2.708-.7-3.1-.208-.362.46-.373,1.568-.537,2.127a18.924,18.924,0,0,1-1.863,4.264c-1.743,3-4.067,5.634-5.678,8.726-1.8,3.442-2.7,7.257-4.2,10.819a49.741,49.741,0,0,1-5.262,9.087c-3.891,5.536-8.408,10.929-9.975,17.67-.482,2.061-3.65,1.184-3.168-.877a27.242,27.242,0,0,1,1.754-5.13,42.852,42.852,0,0,1,3.661-6.446c-.548.263-1.1.526-1.644.822a45.533,45.533,0,0,0-4.933,3.047,1.646,1.646,0,1,1-1.666-2.839,48.017,48.017,0,0,1,9.164-5.02c-2.116-4.867-4.253-9.734-6.533-14.524-4.341-9.1-9.2-18.208-15.577-26.056-3.113-3.837-6.632-6.8-11.444-8.167-4.922-1.4-9.953-2.488-14.93-3.683a57.7,57.7,0,0,1-1.162,7.608c-.669,2.938-1.217,6.2-4.768,6.577a46.35,46.35,0,0,1-10.162-.351,69,69,0,0,1-18.953-4.911,48.81,48.81,0,0,1-4.856-2.258,3.405,3.405,0,0,1-2.138-3.124c.11-1.513,1.414-2.543,2.269-3.683.384-.5.734-1.052,1.074-1.589a134.206,134.206,0,0,0-18.416.987A34.73,34.73,0,0,0,53,131.724a22.673,22.673,0,0,0-7.355,5.2c-7.52,7.673-13.636,16.958-18.657,26.418A150.3,150.3,0,0,0,15.1,193.384c-1.568,5.612-3.168,11.433-3.146,17.3a17.024,17.024,0,0,0,1.469,7.739,10.06,10.06,0,0,0,5.338,4.626,46.34,46.34,0,0,0,7.377,2.072l9,2.1,18.514,4.341c2.061.482,1.184,3.65-.877,3.168-.767-.175-1.546-.362-2.324-.537a51.928,51.928,0,0,1,.987,23.294c-.2,1.14-.581,2.806-.011,3.913.6,1.151,2.828.855,3.88.921,4.1.274,8.2.559,12.31.833,8.112.537,16.234,1.008,24.368.9,14.8-.186,29.871-2.39,43.135-9.241-.186-.822-.384-1.633-.581-2.445a1.712,1.712,0,0,1-.033-.57,83.133,83.133,0,0,1-4.977-13.79,141.792,141.792,0,0,1-4-28.161c-.274-4.746-.515-9.526-.493-14.294.033-4.637.581-9.23,2.6-13.439a1.658,1.658,0,0,1,2.839,0c8.89,14.272,18.12,28.9,32.25,38.553a88.442,88.442,0,0,0,10.359,6.413,2.009,2.009,0,0,0,2.488-.11,13.871,13.871,0,0,0,1.721-1.863q1.677-1.973,3.234-4.056A87.354,87.354,0,0,0,191.5,201.484c3.014-7.564,4.407-15.566,7-23.261,2.565-7.629,6.369-14.766,9.624-22.11.723-1.633,1.71-3.42,1.853-5.24.132-1.71-.976-2.094-2.444-2.335M97.177,228.955a37.911,37.911,0,0,1-1.019,6.752c-1.315,4.451-6.457,2.96-9.767,2.149a66.316,66.316,0,0,1-11.543-4.012c0,.033-.011.055-.011.088-.252,2.083-3.541,2.094-3.289,0a98.491,98.491,0,0,0,.811-16.761c-.066-1.381-1-1.557-2.148-2.072-1.261-.57-2.521-1.118-3.793-1.666q-3.716-1.595-7.5-3.08a269.987,269.987,0,0,0-30.726-9.975c-2.05-.537-1.173-3.705.877-3.179,2.773.723,5.536,1.5,8.3,2.313a164.787,164.787,0,0,1,29.29-48.923c1.381-1.6,3.705.734,2.324,2.324A159.26,159.26,0,0,0,55.2,171.394a1.612,1.612,0,0,1-.055.811,109.813,109.813,0,0,0-5.459,30.967,2.083,2.083,0,0,1-.033.274q9.948,3.453,19.611,7.662c1.765.767,4.209,1.392,5.448,2.949a2.917,2.917,0,0,1,.373.581c1.239-1.666,2.5-3.3,3.859-4.867a16.839,16.839,0,0,1,6.193-4.845c1.173-.471,2.6-.493,3.321.745.614,1.052.2,2.4-.2,3.464a11.257,11.257,0,0,1-.592,1.337c.329-.121.647-.263.976-.384,2.006-.767,4.407-1.557,6.358-.23,1.589,1.074,1.907,2.993,2.1,4.757a68.159,68.159,0,0,1,.406,7.169,71.323,71.323,0,0,1-.34,7.169" transform="translate(-26.673 40.876) rotate(-11)" fill="#7dceea"></path>
    <path id="Path_15" data-name="Path 15" d="M88.426,220.845c-.1,1.173-.219,2.357-.384,3.53a15.544,15.544,0,0,1-.6,3.409c-.6,1.491-3.606.351-4.757.088A63.3,63.3,0,0,1,69.9,223.5a1.3,1.3,0,0,0-.241-.088c.329-3.541.493-7.1.482-10.666v-.614a1.585,1.585,0,0,0,.46-.438c2.3-3.223,4.692-6.818,7.8-9.318a9.725,9.725,0,0,1,.866-.526,23,23,0,0,1-3.3,4.659,1.65,1.65,0,0,0,2,2.576,43.175,43.175,0,0,1,6.226-2.96,9.457,9.457,0,0,1,2.532-.745c1.1-.055,1.3.658,1.469,1.6a55.9,55.9,0,0,1,.23,13.867" transform="translate(-19.88 46.734) rotate(-11)" fill="#fcfcfc"></path>
    <path id="Path_16" data-name="Path 16" d="M524.474,263.183A3.445,3.445,0,0,0,526.9,259.2c-.285-1.776-1.7-3.124-3.015-4.231a29.619,29.619,0,0,0-4.955-3.321,55.713,55.713,0,0,0-22.866-6.665c.384-2.159-1.272-4.286-2.631-6.117q-2.927-3.9-6.073-7.64a161.909,161.909,0,0,0-45.941-37.544,1.717,1.717,0,0,0-.669-.866c-20.071-13.571-42.817-22.439-65.716-29.981-6.193-2.039-12.431-3.957-18.657-5.876a24.7,24.7,0,0,0,2.839-3.826c3.661,2.817,8.21,4.067,12.8,4.626a82.3,82.3,0,0,0,8.375.482c3.552.077,7.114.164,10.666.022a27.471,27.471,0,0,0,9.383-1.885,76.847,76.847,0,0,0,8.353-4.144,26.68,26.68,0,0,0,7.41-5.547,25.042,25.042,0,0,0,4.33-7.454c4.308-11.028,2.719-24.818-7.311-32.206-4.308-3.179-9.635-4.4-14.283-6.95a16.558,16.558,0,0,1-5.854-5.152,49.437,49.437,0,0,1-3.727-7.07,35.5,35.5,0,0,0-4.451-7.575,19.173,19.173,0,0,0-7.377-5.36c-6.511-2.751-13.735-2.116-20.378-.153-6.511-2.894-13.943-2.017-20.268,1.052-6.731,3.289-12.277,8.846-17.133,14.448-4.911,5.656-9.241,12.1-11.06,19.468a30.43,30.43,0,0,0-.669,11.389,27.317,27.317,0,0,0,4.165,10.7c3.859,6.106,9.537,12.4,17.1,12.836-.658.866-1.359,1.7-2.061,2.521-1.644-.669-3.278-1.348-4.889-2.083a118.517,118.517,0,0,1-16.815-9.5c-12.442-8.309-24.741-16.815-37.106-25.234q-2.532-16.311-3.464-32.8c-.307-5.58-.438-11.17-.888-16.739-.175-2.116.033-5.273-1.5-6.961a3.671,3.671,0,0,0-.57-.515c5.908-4.44,11.707-9.1,16.015-15.171a32.529,32.529,0,0,0,4.955-10.227c.5-1.885.734-3.99-.329-5.733a4.187,4.187,0,0,0-4.22-2.05,5.091,5.091,0,0,0-2.192.9,18.623,18.623,0,0,0,.055-3.31,4.061,4.061,0,0,0-1.8-3.376,3.847,3.847,0,0,0-3.826.121,4.462,4.462,0,0,0-.976.822c-.274-2.192-.965-4.319-3.146-5.24a3.654,3.654,0,0,0-4.012.658,3.7,3.7,0,0,0-.581.745,3.626,3.626,0,0,0-.8-.395c-3.256-1.1-4.6,2.412-4.955,4.9-.987,6.873-1.633,14.119-5.327,20.17a19.494,19.494,0,0,1-1.261,1.842c-.274.362-.745.745-1.1,1.14a.272.272,0,0,1-.011-.088c-.088-.822-.131-1.633-.208-2.455-.23-2.631-.745-5.985-3.146-7.6a2.648,2.648,0,0,0-3.88.8c-.844,1.469-.625,3.683-.713,5.306q-.312,5.952-.438,11.915l-2.4-.658a1.533,1.533,0,0,0-.373-.055c-1.03-.625-2.642-.208-2.477,1.283,2.225,20.915-1.5,42.093,2.368,62.877,1.666,8.912,4.736,17.736,10,25.168,5.01,7.07,11.817,12.376,18.767,17.429,7.553,5.481,15.489,10.9,21.014,18.569-.2,1.239-.362,2.5-.46,3.76a44.62,44.62,0,0,0,.428,9.822c.5,3.431,1.337,6.818,1.589,10.282,1.019,13.8-4.889,26.824-10.9,38.871a228.188,228.188,0,0,0-9.8,21.156,1.354,1.354,0,0,0,.066,1.228,1.633,1.633,0,0,0,1.118,1.754c1.381.471,2.751.943,4.133,1.414-5.919,6.829-11.828,13.669-17.561,20.652a269.751,269.751,0,0,0-17.364,22.866,73.6,73.6,0,0,0-6.489,12.343,119.552,119.552,0,0,0-4.867,13.417c-1.206,4.319-1.743,8.956-.438,13.319a21.643,21.643,0,0,0,5.9,9.307c7,6.665,16.695,8.506,25.925,9.844-.066.987-.121,1.962-.132,2.949-.121,9.6,3.65,18.471,11.313,24.368,7.169,5.514,16.355,7.947,25.311,7.7,11.071-.307,21.639-4.176,31.669-8.572,20.718-9.087,40.2-20.674,59.588-32.25,4.812-2.861,9.57-5.93,14.546-8.506a36.371,36.371,0,0,1,7.608-2.85,5.481,5.481,0,0,0,4.264-4.352,8.77,8.77,0,0,0-1.787-6.555c-.3-.438-.6-.866-.921-1.293,6.873,1.787,12.321,7.355,16.9,12.6,1.48,1.688,2.927,3.4,4.429,5.064,1.217,1.348,2.7,3.53,4.494,4.155,1.765.614,3.3-.581,3.946-2.181.756-1.885.46-4.133.153-6.084a85.8,85.8,0,0,0-3.749-13.439,73.265,73.265,0,0,0-5.382-12.453c-1.074-1.918-2.346-3.716-3.431-5.623a58.12,58.12,0,0,1-2.554-6.15A24.5,24.5,0,0,0,421.2,302.9a20.2,20.2,0,0,0-3.968-4.231c-3.6-2.6-8.046-1.513-11.313,1.009a52.2,52.2,0,0,0-15.062-16.443,51.413,51.413,0,0,0-10.238-5.558c-1.918-.778-3.957-1.524-6.051-1.151a7.083,7.083,0,0,0-4.571,3.4c-1.272,2.05-1.622,4.494-2.357,6.753a26.305,26.305,0,0,1-2.466,5.349c-.186-.088-.384-.164-.592-.241-2.05-.691-4.144-.022-6.04.833-2.006.921-3.99,1.951-5.941,2.982-1.513.789-2.993,1.655-4.44,2.554.515-.91,1.041-1.809,1.524-2.74a54.256,54.256,0,0,0,5.755-17.912,8.834,8.834,0,0,0,3.4-.57,1.717,1.717,0,0,0,1.151-2.028,1.8,1.8,0,0,0-.7-.932,156.287,156.287,0,0,1-5.525-41.523,151.8,151.8,0,0,1,1.491-21.036,33.113,33.113,0,0,1,2.2-9.076c.515-1.151,1.3-3.036,2.477-3.661a2.871,2.871,0,0,1,2.028,0c.987.186,1.962.395,2.949.592,14.415,2.9,28.95,5.5,43.266,8.89a38.69,38.69,0,0,1,9.142,3.135,35.041,35.041,0,0,1,7.728,5.8c4.966,4.681,9.712,9.581,14.689,14.25q17.314,16.278,36.031,30.989a1.708,1.708,0,0,0,2.324,0c.219-.208.439-.406.669-.6q2.434,4.472,4.889,8.934c1.436,2.6,2.916,6.182,6.095,7.026,4.166,1.1,4.012-3.782,3.343-6.467a25.331,25.331,0,0,0-2.214-5.514c5.766,2.466,11.477,5.262,16.213,9.372a37.121,37.121,0,0,1,4.144,4.264c1.008,1.217,2.587,3.069,4.2,1.4.932-.954.921-2.7.745-4.144.121.164.23.318.351.482,1.129,1.589,3.475,2.719,4.845.658,1.25-1.885.307-4.4-.526-6.226-.022-.055-.055-.1-.077-.153,1.03.6,2.159,1.118,3.321.537,2.664-1.326,1.5-5.349.274-7.235a12.052,12.052,0,0,0-1.129-1.436,3.614,3.614,0,0,0,1.239-.044M315.805,131.368a27.029,27.029,0,0,1-4.275-9.241A24.837,24.837,0,0,1,311.6,111.8c1.381-6.665,4.977-12.584,9.263-17.769,4.22-5.1,9.011-10.162,14.656-13.68,6.128-3.815,14.086-5.744,20.838-2.346a1.587,1.587,0,0,0,1.611-.044c5.558-1.644,11.488-2.379,17.089-.482,5.031,1.7,8.178,5.36,10.479,10,2.149,4.308,3.859,9.011,7.454,12.376,3.606,3.387,8.353,4.9,12.792,6.84,4.735,2.061,8.649,4.911,11.137,9.537a24.74,24.74,0,0,1,2.1,16.5c-1.085,5.393-3.376,10.819-7.9,14.185a53.451,53.451,0,0,1-7.388,4.308,32.071,32.071,0,0,1-8.484,3.321c-3.431.691-7.048.5-10.534.482-3.245-.033-6.489-.055-9.723-.274-5.437-.362-11.2-1.436-15.182-5.459a1.65,1.65,0,0,0-2.773.976,21.356,21.356,0,0,1-1.589,2.642c-.153.219-.307.438-.471.658a1.9,1.9,0,0,0-.132.153c-.077.11-.164.208-.252.318-.395.471-.811.921-1.239,1.359a1.458,1.458,0,0,0-.34.515c-4.319-1.337-8.638-2.686-12.935-4.1-3.223-1.052-6.435-2.17-9.613-3.365a56.683,56.683,0,0,0,8.342-13.7,16.974,16.974,0,0,0,1.743.526,37.891,37.891,0,0,0,9.953.745c3.409-.1,6.939-.143,10.008-1.809,1.864-1.008.2-3.848-1.666-2.839-2.4,1.3-5.24,1.261-7.9,1.348a40.688,40.688,0,0,1-7.838-.285,15,15,0,0,1-6.818-2.631,17.123,17.123,0,0,1-4.834-6.6,28.854,28.854,0,0,1,1.71-26.933,1.392,1.392,0,0,0,.515-.351,1.244,1.244,0,0,1,.175-.164.011.011,0,0,1,.011-.011c0-.011.011-.022.022-.011a.745.745,0,0,0,.1-.066.985.985,0,0,0,.11-.055c.088-.033.175-.055.274-.088.044-.011.427-.088.46-.1.23-.033.461-.044.7-.066a14.776,14.776,0,0,1,3.047.132,12.333,12.333,0,0,1,1.261.285c.208.055.406.132.614.2.055.022.055.022.088.033.088.044.175.088.252.132a4.476,4.476,0,0,1,.548.318,1.164,1.164,0,0,1,.11.077,2.013,2.013,0,0,1,.175.143c.033.033.252.3.285.318a4.056,4.056,0,0,1,.274.471,1.646,1.646,0,1,0,2.839-1.666c-1.063-2.159-3.519-3.157-5.777-3.508a19.094,19.094,0,0,0-2.85-.23,29.578,29.578,0,0,1,9.449-6.8,6.205,6.205,0,0,0,1.655,6.095c3.015,2.9,6.994,2.554,10.852,2.159a15.89,15.89,0,0,0-3.245,8.123,15.387,15.387,0,0,0-3.65.855,1.834,1.834,0,0,0-.986.756,1.767,1.767,0,0,0-.164,1.272,1.689,1.689,0,0,0,.756.976,1.62,1.62,0,0,0,1.272.175,13.713,13.713,0,0,1,2.949-.756,1.207,1.207,0,0,1,.2-.022c.9,2.861,3.19,5.01,5.667,6.95a20.794,20.794,0,0,0,5.262,3.179,15.348,15.348,0,0,0,5.678.855c1.381,0,3.31-.2,4.451.756,1.315,1.1.8,3.157.044,4.429a7.047,7.047,0,0,1-8.846,2.642c-1.885-.954-3.552,1.874-1.655,2.839a10.262,10.262,0,0,0,9.855-.406c3.08-1.82,5.459-5.591,4.483-9.263-1.1-4.1-5.415-4.264-8.9-4.3-4.472-.044-8.331-2.729-11.323-5.908-4.2-4.483-.219-10.118,2.828-13.922.822-1.041.384-2.861-1.162-2.806-3.4.1-7.191,1.37-10.49.055a3.683,3.683,0,0,1-2.444-2.565c-.154-.833.022-2.159.932-2.532a1.788,1.788,0,0,0,.088-3.256,1.466,1.466,0,0,0-1.82-.767A32.116,32.116,0,0,0,326.164,105.3c-1.765,9.679.855,22.713,9.69,28.051a50.818,50.818,0,0,1-4.242,8h-.077c-6.972.669-12.157-4.637-15.73-9.986M243.7,37.787c.066-1.513.153-3.036.241-4.56,0-.033.033-.263.055-.548a2.465,2.465,0,0,1,.241.384c1.041,2.269.778,5.021,1.129,7.432.164,1.151.471,2.28,1.677,2.708,1.326.482,2.5-.318,3.409-1.217,4.023-3.913,6.139-9.526,7.29-14.908.691-3.2,1.085-6.446,1.535-9.679.066-.428.186-3.047.833-3.2.482-.11.9,2.083.943,2.368a24.3,24.3,0,0,1-4.264,17.879c-1.228,1.732,1.622,3.387,2.839,1.666a27.514,27.514,0,0,0,4.889-18.2c-.066-.68-.153-1.447-.3-2.214a1.563,1.563,0,0,0,.241-.844c0-.526-.088-1.765.6-1.809.932-.055,1.206,1.611,1.3,2.225a42.423,42.423,0,0,1,.318,7.268A26.213,26.213,0,0,1,263.1,36.164c-1.129,1.8,1.71,3.442,2.839,1.655a29.014,29.014,0,0,0,4.012-14.755,1.556,1.556,0,0,0,.121-.164,10.686,10.686,0,0,0,1.107-3.08,5.409,5.409,0,0,1,.8-2.17c.23-.3.647-.6.921-.3.175.2.121.789.121,1.03-.011.548-.044,1.1-.077,1.644a33.118,33.118,0,0,1-3.409,12.453c-.943,1.885,1.885,3.563,2.839,1.666a41.716,41.716,0,0,0,1.918-4.582,28.607,28.607,0,0,0,2.192-3.661c.46-.844,1.831-3.278,3.091-2.291,1.425,1.129.011,4.286-.46,5.6a29.413,29.413,0,0,1-2.576,5.24c-4.461,7.257-11.378,12.475-18.109,17.484-.91-.219-1.809-.384-2.565-.592l-12.507-3.42q.115-5.081.34-10.14m170.423,262.9a9.553,9.553,0,0,1,3.815,3.332,29.782,29.782,0,0,1,3.179,4.56c.877,1.677,1.337,3.541,2.083,5.273a40.427,40.427,0,0,0,3.1,5.437c4.363,6.939,6.862,14.755,9.033,22.592a30.457,30.457,0,0,1,1.3,6.248,12.407,12.407,0,0,1-.175,2.631c-.011.011-.011.022-.022.033a10.456,10.456,0,0,0-1.184-1.14c-2.762-2.883-5.262-5.985-7.947-8.934-5.382-5.941-12.069-11.466-20.29-12.2-.318-.449-.625-.9-.932-1.359a84.608,84.608,0,0,1-7.432-14.206c-.055-.143-.1-.285-.153-.427,2.565-1.853,4.363-4.472,6.325-6.961,2.083-2.653,5.5-6.281,9.3-4.878M370.5,288.45c.811-2.236,1.052-4.834,2.335-6.862,1.589-2.5,3.924-1.918,6.314-.987a46.649,46.649,0,0,1,5.919,2.85,48.776,48.776,0,0,1,18.427,18.58c-2.083,2.423-3.771,5.251-6.215,7.268-.428-1.217-.822-2.444-1.206-3.672a1.676,1.676,0,0,0-2.017-1.151,49.539,49.539,0,0,0-13.669,6.161c-3.047-3.519-6.292-6.95-9.076-10.677-1.294-1.732-2.2-4.034-3.6-5.81a30.826,30.826,0,0,0,2.784-5.7m-16.662,10.205c1.677-.888,3.365-1.732,5.064-2.576,1.568-.756,3.661-1.973,5.316-.822,1.217.833,1.863,2.434,2.543,3.683a29.691,29.691,0,0,0,3.179,4.549c2.5,3.014,5.086,5.952,7.651,8.912-5.295,3.442-10.512,6.95-16.048,10.019-12.08,6.687-24.511,12.792-36.777,19.139L307.8,350.33c8.813-16.991,24.346-29.29,35.516-44.713a1.75,1.75,0,0,0,.712-.384,48.429,48.429,0,0,1,9.811-6.577m-16.388,9.328c-7.586,9.559-16.476,17.988-23.962,27.624a79.239,79.239,0,0,0-10.655,17.572,1.656,1.656,0,0,0,2.247,2.247l37.358-19.3c6.018-3.113,12.058-6.172,18.021-9.372,5.689-3.047,11.126-6.413,16.487-9.986,5.185-3.453,10.49-6.851,16.487-8.671.384,1.195.8,2.379,1.239,3.552a1.818,1.818,0,0,0,.614,1.557,89.658,89.658,0,0,0,8.747,16.728,1.613,1.613,0,0,0,1.184,1.732c.537.767,1.074,1.535,1.644,2.291,1.217,1.622,3.08,3.859,2.225,6.051-.417,1.085-1.392,1.228-2.423,1.48a28.358,28.358,0,0,0-3.76,1.217c-4.977,1.984-9.5,4.944-14.086,7.673-18.975,11.3-37.895,22.779-57.933,32.129-17.276,8.068-38.871,16.717-56.859,5.667a26.668,26.668,0,0,1-8.824-8.594,27.04,27.04,0,0,1-3.771-13.779c-.186-10.458,3.65-20.729,7.07-30.452q5.525-15.769,12.486-30.989c2.247-4.911,4.856-9.679,6.928-14.667,1.71-4.111,3.5-10.205-1.03-13.121-2.269-1.458-4.812-2.6-7.191-3.859-1.863-1-3.53,1.842-1.655,2.839a64.99,64.99,0,0,1,7.355,3.968c2.028,1.48.844,5.086.2,7.038a59.32,59.32,0,0,1-3.321,7.432q-1.891,3.864-3.694,7.761-7.12,15.44-12.814,31.493c-2.883,8.112-6,16.552-7.147,25.19-7.629-1.107-15.632-2.477-21.913-7.2a20.055,20.055,0,0,1-6.544-8.068c-1.655-3.946-1.348-8.265-.3-12.332a106.848,106.848,0,0,1,4.483-12.727,71.268,71.268,0,0,1,6.051-11.926,233.869,233.869,0,0,1,16.213-21.65c6.467-7.947,13.187-15.7,19.9-23.436,9.164,3.179,18.339,6.391,27.69,8.934a215.059,215.059,0,0,0,34.848,6.456c3.288.34,6.6.592,9.9.778q1.611.082,3.223.132c-1.491,11.433-7.651,21.693-14.711,30.594m139.412-48.977q-16.8-13.3-32.535-27.876c-5.24-4.867-10.326-9.888-15.423-14.886a50.573,50.573,0,0,0-7.893-6.61,33.743,33.743,0,0,0-9.153-3.935c-7.2-2.028-14.689-3.267-22.022-4.746q-11.362-2.3-22.724-4.593c-3.135-.636-7.18-2.324-9.844.252-2.192,2.127-3.4,5.393-4.144,8.287a72.587,72.587,0,0,0-1.633,10.194c-.428,3.694-.713,7.41-.877,11.126a159.844,159.844,0,0,0,5.328,47.969c-.395.022-.789.022-1.195.011a1.955,1.955,0,0,0-1.1-.033c-1.392-.044-2.8-.1-4.187-.175q-4.308-.214-8.605-.625-8.764-.822-17.429-2.379a233.042,233.042,0,0,1-33.861-8.967q-9.159-3.108-18.306-6.226c4.812-12.486,12.1-23.853,16.662-36.459a62.145,62.145,0,0,0,4.023-19.786c.132-6.818-2.083-13.319-2.225-20.1a40.526,40.526,0,0,1,5.13-20.63c1.041-1.842-1.8-3.508-2.839-1.655a44.456,44.456,0,0,0-4.133,10.293c-10.008-12.058-25.19-18.449-35.4-30.353-12.321-14.371-13.976-34.486-13.867-52.584.077-11.521.713-23.064-.274-34.563q6.89,1.891,13.79,3.782c2.433.669,5.01,1.162,7.377,2.028,1.019.373.91,1.392,1.008,2.368.143,1.436.263,2.883.373,4.319.745,10.469.987,20.948,2.072,31.406q.937,8.879,2.324,17.7a1.415,1.415,0,0,0,.46.877,1.828,1.828,0,0,0,.34.307q16.9,11.51,33.817,23.02a148.805,148.805,0,0,0,16.454,10.118,143.593,143.593,0,0,0,17.342,7.235c11.576,4.078,23.425,7.41,35.111,11.17,11.587,3.716,23.107,7.673,34.354,12.354a204.709,204.709,0,0,1,34.815,18.306,1.5,1.5,0,0,0,.8,1.041,159.25,159.25,0,0,1,42.806,33.62c2.028,2.258,4,4.571,5.9,6.939.921,1.129,1.809,2.28,2.686,3.442.417.548.822,1.1,1.228,1.644.439.6,1.359,1.557,1.447,2.335a1.086,1.086,0,0,1-.307.91,1.456,1.456,0,0,0-1.041.954l-1.973,1.776q-2.236,2.006-4.45,4.012l-8.21,7.388m46.281.833a20.344,20.344,0,0,1-3.168-1.5,73.2,73.2,0,0,0-12.573-4.615c-1.732-.449-3.014,2.192-1.261,3,4.483,2.094,9.3,4.155,13.165,7.3a10.45,10.45,0,0,1,2.2,2.3,5.029,5.029,0,0,1,.713,1.436c.022.066.055.373.088.669-.077-.044-.143-.077-.208-.121-.625-.351-1.239-.7-1.864-1.052-1.25-.7-2.488-1.4-3.738-2.1a1.651,1.651,0,0,0-1.984,2.587,22.71,22.71,0,0,1,2.762,3.99,16.982,16.982,0,0,1,1.008,2.116.04.04,0,0,0,.011.033,14.027,14.027,0,0,0-1.293-1.491,14.93,14.93,0,0,0-3.859-2.751c-1.326-.658-3.321.811-2.258,2.247a9.937,9.937,0,0,1,1.9,4.231,39.466,39.466,0,0,0-7.421-6.478c-5.525-3.793-11.773-6.369-17.945-8.934-1.359-.559-2.554,1.293-1.852,2.423a39.959,39.959,0,0,1,3.782,7.125,12.137,12.137,0,0,1,.9,3.88,1.389,1.389,0,0,1-.011.175,6.034,6.034,0,0,1-1.063-.822c-1.688-1.918-2.74-4.6-3.968-6.829-1.315-2.4-2.631-4.79-3.946-7.191q2.877-2.582,5.733-5.163,2.022-1.809,4.045-3.639c.921-.833,1.929-1.633,2.85-2.5a52.628,52.628,0,0,1,24.193,6.774,18.681,18.681,0,0,1,4.955,3.76c.384.449,1.14,1.414.11,1.14" transform="translate(31.708 -83.732)" fill="#272a46"></path>
    <path id="Path_17" data-name="Path 17" d="M367.479,110.011c-1.14-.954-3.069-.756-4.451-.756a15.348,15.348,0,0,1-5.678-.855,20.8,20.8,0,0,1-5.262-3.179c-2.477-1.94-4.768-4.089-5.667-6.95a1.207,1.207,0,0,0-.2.022,13.712,13.712,0,0,0-2.949.756A1.62,1.62,0,0,1,342,98.873a1.689,1.689,0,0,1-.756-.976,1.768,1.768,0,0,1,.164-1.272,1.834,1.834,0,0,1,.987-.756,15.386,15.386,0,0,1,3.65-.855,15.889,15.889,0,0,1,3.245-8.123c-3.859.395-7.838.745-10.852-2.159a6.205,6.205,0,0,1-1.655-6.095,29.578,29.578,0,0,0-9.449,6.8,19.093,19.093,0,0,1,2.85.23c2.258.351,4.714,1.348,5.777,3.508a1.646,1.646,0,1,1-2.839,1.666,4.053,4.053,0,0,0-.274-.471c-.033-.022-.252-.285-.285-.318a2.009,2.009,0,0,0-.175-.143,1.161,1.161,0,0,0-.11-.077,4.479,4.479,0,0,0-.548-.318c-.077-.044-.164-.088-.252-.132-.033-.011-.033-.011-.088-.033-.208-.066-.406-.143-.614-.2a12.328,12.328,0,0,0-1.261-.285,14.775,14.775,0,0,0-3.047-.132c-.241.022-.471.033-.7.066-.033.011-.417.088-.46.1-.1.033-.186.055-.274.088a.963.963,0,0,1-.11.055.743.743,0,0,1-.1.066c-.011-.011-.022,0-.022.011a.011.011,0,0,0-.011.011,1.24,1.24,0,0,0-.175.164,1.392,1.392,0,0,1-.515.351,28.854,28.854,0,0,0-1.71,26.933,17.123,17.123,0,0,0,4.834,6.6,15,15,0,0,0,6.818,2.631,40.688,40.688,0,0,0,7.838.285c2.664-.088,5.5-.044,7.9-1.348a1.631,1.631,0,0,1,2.313.833,21.809,21.809,0,0,0,6.007-5.185,11.6,11.6,0,0,1-1.085-.471c-1.9-.965-.23-3.793,1.655-2.839a7.047,7.047,0,0,0,8.846-2.642c.756-1.272,1.272-3.332-.044-4.429M328.564,90.674a1.645,1.645,0,0,1,0,3.289,1.645,1.645,0,0,1,0-3.289m-.636,10.9c.559-.318,1.107-.636,1.644-.987.285-.186.559-.384.833-.592a.645.645,0,0,0,.066-.044.348.348,0,0,1,.066-.055c.154-.121.307-.241.449-.373a17.082,17.082,0,0,0,1.381-1.294q.345-.362.691-.756c.088-.11.186-.219.274-.329.022-.033.121-.153.2-.241a1.69,1.69,0,0,1,2.247-.592,1.643,1.643,0,0,1,.592,2.247,21.117,21.117,0,0,1-5.316,4.988c-.46.3-.932.559-1.4.833a5.428,5.428,0,0,0-.691.406,1.9,1.9,0,0,0-.164.142v-.011a.7.7,0,0,0-.1.088,1.742,1.742,0,0,1,.987,1.5,1.656,1.656,0,0,1-1.644,1.644A2.919,2.919,0,0,1,325.276,105c.077-1.622,1.337-2.7,2.653-3.431m13.187,13.264a13.5,13.5,0,0,1-16.673-1.787c-1.48-1.513.844-3.848,2.324-2.324a10.177,10.177,0,0,0,12.683,1.272,1.659,1.659,0,0,1,2.258.581,1.7,1.7,0,0,1-.592,2.258m4.768-10.578a1.645,1.645,0,0,1,0-3.289,1.645,1.645,0,0,1,0,3.289m.449,24.839a48.36,48.36,0,0,1-4.889.3,37.892,37.892,0,0,1-9.953-.745,16.971,16.971,0,0,1-1.743-.526,56.683,56.683,0,0,1-8.342,13.7c3.179,1.195,6.391,2.313,9.614,3.365,4.3,1.414,8.616,2.762,12.935,4.1a1.458,1.458,0,0,1,.34-.515c.428-.438.844-.888,1.239-1.359.088-.11.175-.208.252-.318a1.922,1.922,0,0,1,.132-.153c.164-.219.318-.438.471-.658a21.357,21.357,0,0,0,1.589-2.642l.033-.132c-5.1-4.889-3.179-11.214-1.677-14.415" transform="translate(40.763 -77.107)" fill="#fcfcfc"></path>
    <path id="Path_18" data-name="Path 18" d="M411.535,126.894c-1.085,5.393-3.376,10.819-7.9,14.185a53.458,53.458,0,0,1-7.388,4.308,32.071,32.071,0,0,1-8.484,3.321c-3.431.691-7.048.5-10.534.482-3.245-.033-6.489-.055-9.723-.274a34.12,34.12,0,0,1-8.649-1.535,16.293,16.293,0,0,1-6.533-3.924,1.639,1.639,0,0,0-2.74.844c-5.1-4.889-3.179-11.214-1.677-14.415a13.936,13.936,0,0,0,5.119-1.513,1.468,1.468,0,0,0,.647-2.006,21.81,21.81,0,0,0,6.007-5.185c.329.121.658.219,1,.307a10.373,10.373,0,0,0,7.772-1.184c3.08-1.82,5.459-5.591,4.483-9.263-1.1-4.1-5.415-4.264-8.9-4.3-4.472-.044-8.331-2.729-11.324-5.908-4.2-4.483-.219-10.118,2.828-13.921.822-1.041.384-2.861-1.162-2.806-3.4.1-7.191,1.37-10.49.055a3.683,3.683,0,0,1-2.444-2.565c-.154-.833.022-2.159.932-2.532a1.788,1.788,0,0,0,.088-3.256,1.466,1.466,0,0,0-1.82-.767,32.116,32.116,0,0,0-21.957,24.423c-1.765,9.679.855,22.713,9.69,28.051a50.818,50.818,0,0,1-4.242,8h-.077c-6.972.669-12.157-4.637-15.73-9.986a27.031,27.031,0,0,1-4.275-9.241,24.836,24.836,0,0,1,.066-10.326c1.381-6.665,4.977-12.584,9.263-17.769,4.22-5.1,9.011-10.162,14.656-13.68,6.128-3.815,14.086-5.744,20.838-2.346a1.587,1.587,0,0,0,1.611-.044c5.558-1.644,11.488-2.379,17.089-.482,5.031,1.7,8.178,5.36,10.48,10,2.148,4.308,3.859,9.011,7.454,12.376,3.606,3.387,8.353,4.9,12.793,6.84,4.735,2.061,8.649,4.911,11.137,9.537a24.74,24.74,0,0,1,2.1,16.5" transform="translate(39.194 -77.898)" fill="#7dceea"></path>
    <path id="Path_19" data-name="Path 19" d="M277.566,28.927a29.415,29.415,0,0,1-2.576,5.24c-4.461,7.257-11.378,12.475-18.109,17.484-.91-.219-1.809-.384-2.565-.592l-12.507-3.42q.115-5.081.34-10.14c.066-1.513.153-3.036.241-4.56,0-.033.033-.263.055-.548a2.455,2.455,0,0,1,.241.384c1.041,2.269.778,5.021,1.129,7.432.164,1.151.471,2.28,1.677,2.708,1.326.482,2.5-.318,3.409-1.217,4.023-3.913,6.139-9.526,7.29-14.908.691-3.2,1.085-6.446,1.535-9.679.066-.428.186-3.047.833-3.2.482-.11.9,2.083.943,2.368a24.3,24.3,0,0,1-4.264,17.879c-1.228,1.732,1.622,3.387,2.839,1.666a27.514,27.514,0,0,0,4.889-18.2c-.066-.68-.153-1.447-.3-2.214a1.563,1.563,0,0,0,.241-.844c0-.526-.088-1.765.6-1.809.932-.055,1.206,1.611,1.3,2.225a42.413,42.413,0,0,1,.318,7.268,26.213,26.213,0,0,1-3.585,13.626c-1.129,1.8,1.71,3.442,2.839,1.655A29.015,29.015,0,0,0,268.4,22.777a1.56,1.56,0,0,0,.121-.164,10.686,10.686,0,0,0,1.107-3.08,5.41,5.41,0,0,1,.8-2.17c.23-.3.647-.6.921-.3.175.2.121.789.121,1.03-.011.548-.044,1.1-.077,1.644a33.118,33.118,0,0,1-3.409,12.453c-.943,1.885,1.885,3.563,2.839,1.666a41.721,41.721,0,0,0,1.918-4.582,28.61,28.61,0,0,0,2.192-3.661c.46-.844,1.831-3.278,3.091-2.291,1.425,1.129.011,4.286-.46,5.6" transform="translate(33.258 -83.444)" fill="#fcfcfc"></path>
    <path id="Path_20" data-name="Path 20" d="M500.724,238.922a20.336,20.336,0,0,1-3.168-1.5,73.2,73.2,0,0,0-12.573-4.615c-1.732-.449-3.015,2.192-1.261,3,4.483,2.094,9.3,4.155,13.165,7.3a10.449,10.449,0,0,1,2.2,2.3,5.028,5.028,0,0,1,.713,1.436c.022.066.055.373.088.669-.077-.044-.143-.077-.208-.121-.625-.351-1.239-.7-1.863-1.052-1.25-.7-2.488-1.4-3.738-2.1a1.651,1.651,0,0,0-1.984,2.587,22.708,22.708,0,0,1,2.762,3.99,16.981,16.981,0,0,1,1.008,2.116.04.04,0,0,0,.011.033,14.028,14.028,0,0,0-1.294-1.491,14.931,14.931,0,0,0-3.859-2.751c-1.326-.658-3.321.811-2.258,2.247a9.939,9.939,0,0,1,1.9,4.231,39.464,39.464,0,0,0-7.421-6.478c-5.525-3.793-11.773-6.369-17.945-8.934-1.359-.559-2.554,1.293-1.853,2.423a39.95,39.95,0,0,1,3.782,7.125,12.132,12.132,0,0,1,.9,3.881,1.394,1.394,0,0,1-.011.175,6.029,6.029,0,0,1-1.063-.822c-1.688-1.918-2.74-4.6-3.968-6.829-1.315-2.4-2.631-4.79-3.946-7.191q2.877-2.581,5.733-5.163,2.023-1.809,4.045-3.639c.921-.833,1.929-1.633,2.85-2.5a52.628,52.628,0,0,1,24.193,6.774,18.683,18.683,0,0,1,4.955,3.76c.384.449,1.14,1.414.11,1.14" transform="translate(54.132 -62.814)" fill="#fcfcfc"></path>
    <path id="Path_21" data-name="Path 21" d="M421.475,322.628a12.4,12.4,0,0,1-.175,2.631c-.011.011-.011.022-.022.033a10.447,10.447,0,0,0-1.184-1.14c-2.762-2.883-5.262-5.985-7.947-8.934-5.382-5.941-12.069-11.466-20.29-12.2-.318-.449-.625-.9-.932-1.359a84.619,84.619,0,0,1-7.432-14.207c-.055-.142-.1-.285-.153-.427,2.565-1.853,4.363-4.473,6.325-6.961,2.083-2.653,5.5-6.281,9.3-4.878a9.551,9.551,0,0,1,3.815,3.332,29.782,29.782,0,0,1,3.179,4.56c.877,1.677,1.337,3.541,2.083,5.273a40.431,40.431,0,0,0,3.1,5.437c4.363,6.939,6.862,14.755,9.033,22.592a30.457,30.457,0,0,1,1.3,6.248" transform="translate(46.87 -58.233)" fill="#1b7ed3"></path>
    <path id="Path_22" data-name="Path 22" d="M370.393,287.394c-5.294,3.442-10.512,6.95-16.048,10.019-12.08,6.687-24.511,12.792-36.777,19.139L300.6,325.322c8.813-16.991,24.346-29.29,35.516-44.713a1.75,1.75,0,0,0,.712-.384,48.435,48.435,0,0,1,9.811-6.577c1.677-.888,3.365-1.732,5.064-2.576,1.568-.756,3.661-1.973,5.316-.822,1.217.833,1.863,2.434,2.543,3.683a29.683,29.683,0,0,0,3.179,4.549c2.5,3.015,5.086,5.952,7.651,8.912" transform="translate(38.912 -58.724)" fill="#7dceea"></path>
    <path id="Path_23" data-name="Path 23" d="M391.038,278.338c-2.083,2.423-3.771,5.251-6.215,7.268-.428-1.217-.822-2.445-1.206-3.672a1.676,1.676,0,0,0-2.017-1.151,49.537,49.537,0,0,0-13.669,6.161c-3.047-3.519-6.292-6.95-9.076-10.677-1.294-1.732-2.2-4.034-3.6-5.81a30.829,30.829,0,0,0,2.784-5.7c.811-2.236,1.052-4.834,2.335-6.862,1.589-2.5,3.924-1.918,6.314-.987a46.67,46.67,0,0,1,5.919,2.85,48.776,48.776,0,0,1,18.427,18.58" transform="translate(44.169 -60.038)" fill="#1b7ed3"></path>
    <path id="Path_24" data-name="Path 24" d="M491.432,241.351a1.456,1.456,0,0,0-1.041.954l-1.973,1.776q-2.236,2.006-4.45,4.012l-8.21,7.388q-16.8-13.3-32.535-27.876c-5.24-4.867-10.326-9.888-15.423-14.886a50.573,50.573,0,0,0-7.893-6.61,33.743,33.743,0,0,0-9.153-3.935c-7.2-2.028-14.689-3.267-22.022-4.746q-11.362-2.3-22.724-4.593c-3.135-.636-7.18-2.324-9.844.252-2.192,2.127-3.4,5.393-4.144,8.287a72.583,72.583,0,0,0-1.633,10.195c-.428,3.694-.713,7.41-.877,11.126a159.842,159.842,0,0,0,5.328,47.969c-.395.022-.789.022-1.195.011a1.955,1.955,0,0,0-1.1-.033c-1.392-.044-2.8-.1-4.187-.175q-4.308-.214-8.605-.625-8.764-.822-17.429-2.379a233.034,233.034,0,0,1-33.861-8.967q-9.158-3.108-18.306-6.226c4.812-12.486,12.1-23.853,16.662-36.459a62.144,62.144,0,0,0,4.023-19.786c.132-6.818-2.083-13.319-2.225-20.1a40.526,40.526,0,0,1,5.13-20.63c1.041-1.842-1.8-3.508-2.839-1.655a44.456,44.456,0,0,0-4.133,10.293c-10.008-12.058-25.19-18.449-35.4-30.353C239.059,119.2,237.4,99.089,237.513,80.991c.077-11.521.712-23.064-.274-34.563q6.89,1.891,13.79,3.782c2.434.669,5.01,1.162,7.377,2.028,1.019.373.91,1.392,1.008,2.368.142,1.436.263,2.883.373,4.319.745,10.469.987,20.948,2.072,31.406q.937,8.879,2.324,17.7a1.415,1.415,0,0,0,.46.877,1.829,1.829,0,0,0,.34.307q16.9,11.51,33.817,23.02a148.8,148.8,0,0,0,16.454,10.118A143.6,143.6,0,0,0,332.6,149.59c11.576,4.078,23.425,7.41,35.111,11.17,11.587,3.716,23.108,7.673,34.354,12.354a204.714,204.714,0,0,1,34.815,18.306,1.5,1.5,0,0,0,.8,1.041,159.251,159.251,0,0,1,42.806,33.62c2.028,2.258,4,4.571,5.9,6.939.921,1.129,1.809,2.28,2.686,3.442.417.548.822,1.1,1.228,1.644.438.6,1.359,1.557,1.447,2.335a1.086,1.086,0,0,1-.307.91" transform="translate(32.818 -80.205)" fill="#1b7ed3"></path>
    <path id="Path_25" data-name="Path 25" d="M408.8,317.952c-.417,1.085-1.392,1.228-2.422,1.48a28.364,28.364,0,0,0-3.76,1.217c-4.977,1.984-9.5,4.944-14.086,7.673-18.975,11.3-37.895,22.779-57.933,32.129-17.276,8.068-38.871,16.717-56.859,5.667a26.669,26.669,0,0,1-8.824-8.594,27.04,27.04,0,0,1-3.771-13.779c-.186-10.458,3.65-20.729,7.07-30.452Q273.74,297.525,280.7,282.3c2.247-4.911,4.856-9.679,6.928-14.667,1.71-4.111,3.5-10.205-1.03-13.121-2.269-1.458-4.812-2.6-7.191-3.859-1.864-1-3.53,1.842-1.655,2.839a64.992,64.992,0,0,1,7.355,3.968c2.028,1.48.844,5.086.2,7.038a59.3,59.3,0,0,1-3.321,7.432q-1.891,3.864-3.694,7.761-7.12,15.44-12.814,31.493c-2.883,8.112-6,16.552-7.147,25.19-7.629-1.107-15.632-2.477-21.913-7.2a20.054,20.054,0,0,1-6.544-8.068c-1.655-3.946-1.348-8.265-.3-12.332a106.857,106.857,0,0,1,4.483-12.727,71.275,71.275,0,0,1,6.051-11.926,233.843,233.843,0,0,1,16.213-21.65c6.467-7.947,13.187-15.7,19.9-23.436,9.164,3.179,18.339,6.391,27.69,8.934a215.067,215.067,0,0,0,34.848,6.457c3.289.34,6.6.592,9.9.778q1.611.082,3.223.132c-1.491,11.433-7.651,21.693-14.711,30.594-7.586,9.559-16.476,17.988-23.962,27.624a79.239,79.239,0,0,0-10.655,17.572,1.656,1.656,0,0,0,2.247,2.247l37.358-19.3c6.018-3.113,12.058-6.171,18.021-9.372,5.689-3.047,11.126-6.413,16.487-9.986,5.185-3.453,10.49-6.851,16.486-8.671.384,1.195.8,2.379,1.239,3.552A1.818,1.818,0,0,0,395,291.15a89.651,89.651,0,0,0,8.747,16.728,1.613,1.613,0,0,0,1.184,1.732c.537.767,1.074,1.535,1.644,2.291,1.217,1.622,3.08,3.859,2.225,6.051" transform="translate(31.998 -61.68)" fill="#7dceea"></path>
    <path id="Path_26" data-name="Path 26" d="M335.893,97.024a21.116,21.116,0,0,1-5.316,4.988c-.46.3-.932.559-1.4.833a5.427,5.427,0,0,0-.691.406,1.911,1.911,0,0,0-.164.142v-.011a.712.712,0,0,0-.1.088,1.741,1.741,0,0,1,.987,1.5,1.656,1.656,0,0,1-1.644,1.644,2.919,2.919,0,0,1-2.762-3.146c.077-1.622,1.337-2.7,2.653-3.431.559-.318,1.107-.636,1.644-.987.285-.186.559-.384.833-.592a.656.656,0,0,0,.066-.044.347.347,0,0,1,.066-.055c.153-.121.307-.241.449-.373a17.092,17.092,0,0,0,1.381-1.293q.345-.362.69-.756c.088-.11.186-.219.274-.329.022-.033.153-.2.219-.285,0,.011-.011.022-.022.044a1.69,1.69,0,0,1,2.247-.592,1.643,1.643,0,0,1,.592,2.247" transform="translate(41.239 -75.576)" fill="#272a46"></path>
    <path id="Path_27" data-name="Path 27" d="M340.754,112.062a13.5,13.5,0,0,1-16.673-1.787c-1.48-1.513.844-3.848,2.324-2.324a10.177,10.177,0,0,0,12.683,1.272,1.659,1.659,0,0,1,2.258.581,1.7,1.7,0,0,1-.592,2.258" transform="translate(41.125 -74.336)" fill="#272a46"></path>
    <path id="Path_28" data-name="Path 28" d="M343.739,102.3a1.645,1.645,0,0,1,0-3.289,1.645,1.645,0,0,1,0,3.289" transform="translate(42.908 -75.148)" fill="#272a46"></path>
    <path id="Path_29" data-name="Path 29" d="M327.939,92.907a1.645,1.645,0,0,1,0-3.289,1.645,1.645,0,0,1,0,3.289" transform="translate(41.389 -76.051)" fill="#272a46"></path>
    <path id="Path_30" data-name="Path 30" d="M423.065,398.321a1.655,1.655,0,0,0-2.022,1.149,101.074,101.074,0,0,1-5.92,21.744,1.659,1.659,0,0,0,1.149,2.022,1.681,1.681,0,0,0,2.022-1.149,101.052,101.052,0,0,0,5.92-21.744,1.7,1.7,0,0,0-1.149-2.022" transform="translate(20.088 -52.62)" fill="#7dceea"></path>
    <path id="Path_31" data-name="Path 31" d="M446.572,413.393a34.035,34.035,0,0,1-18.953-21.585c-.583-2.031-3.757-1.167-3.171.874a37.162,37.162,0,0,0,20.465,23.55,1.7,1.7,0,0,0,2.249-.59,1.655,1.655,0,0,0-.59-2.249" transform="translate(20.986 -53.352)" fill="#7dceea"></path>
    <path id="Path_33" data-name="Path 33" d="M19.7,275.388a1.677,1.677,0,0,0-2.326,0,1.828,1.828,0,0,0-.4.76,1.605,1.605,0,0,0-1.773-.664c-4.514,1.4-4.837,7.914-1.451,10.647a5.8,5.8,0,0,0,5.76.917,5.6,5.6,0,0,0,3.723-4.888c.186-2.657-1.64-5.108-3.529-6.772m.136,7.215c-.007.021-.02.081-.036.138a.788.788,0,0,0-.05.074c-.012.02-.09.174-.159.288l-.044.045c-.049.053-.1.109-.146.16s-.1.1-.156.151-.236.281-.082.082c.127-.167.022-.014-.053.034-.093.059-.183.121-.278.177-.037.022-.149.1-.253.153l-.1.031c-.07.022-.138.049-.209.071-.14.044-.284.08-.429.111-.062.013-.351.127-.109.025.224-.093-.022,0-.111,0a4.162,4.162,0,0,1-.5,0c-.049,0-.1-.008-.146-.012l-.016,0c-.141-.039-.285-.066-.425-.112L16.462,284c-.049-.023-.1-.048-.146-.075-.136-.072-.26-.158-.39-.239-.049-.049-.107-.093-.159-.141-.125-.118-.237-.247-.353-.374a.2.2,0,0,0-.025-.023c-.049-.075-.1-.172-.119-.2-.081-.131-.156-.265-.224-.4-.015-.031-.043-.082-.067-.133,0-.021-.008-.043-.013-.061-.046-.148-.1-.294-.135-.445-.023-.094-.045-.189-.064-.284-.012-.062-.031-.387-.025-.126.007.285,0-.1,0-.128-.007-.1-.009-.194-.01-.29s0-.194.007-.29c0-.066-.02-.385,0-.128s.011-.059.024-.125c.019-.1.041-.19.065-.283s.053-.186.082-.278c.005-.016.024-.066.043-.114.033-.069.08-.172.084-.179.052-.1.107-.194.166-.288.042-.065.086-.128.13-.191l.1-.107c.076-.08.157-.152.236-.229a.2.2,0,0,0,.016-.018c.007,0,0,.005.015,0,.062-.031.126-.071.19-.111a1.124,1.124,0,0,1,.184-.078,1.778,1.778,0,0,0,1.139-1.127,1.306,1.306,0,0,0,.164.185c.33.29.649.593.949.915q.2.217.394.444c.039.047.077.094.115.143,0,.005.158.214.169.23a7.89,7.89,0,0,1,.627,1.063c.022.046.065.156.077.183.018.047.035.1.052.144a6.327,6.327,0,0,1,.175.67v.005l0-.035c0,.016,0,.033,0,.05a.58.58,0,0,1,.008.121c0,.034.005.068.007.1,0,.091,0,.183,0,.274,0,.006-.018.157-.023.231-.009.038-.015.075-.02.09q-.03.131-.069.26" transform="translate(-24.033 54.7) rotate(-11)" fill="#1b7ed3"></path>
    <path id="Path_34" data-name="Path 34" d="M19.192,280.947v-.014c0,.117.008.155.009.135,0-.039-.005-.08-.008-.121" transform="translate(-23.193 55.127) rotate(-11)" fill="#1b7ed3"></path>
    <path id="Path_35" data-name="Path 35" d="M17.057,297.06a1.686,1.686,0,0,0-2.022-1.149c-2.75.43-5.628.93-7.977,2.528a20.4,20.4,0,0,0-3.314,3.024l-3.286,3.5c-1.447,1.542.874,3.872,2.326,2.325q1.506-1.6,3.011-3.207a18.68,18.68,0,0,1,2.922-2.8c2.111-1.437,4.721-1.811,7.191-2.2a1.656,1.656,0,0,0,1.149-2.022" transform="translate(-24.731 56.89) rotate(-11)" fill="#1b7ed3"></path>
    <path id="Path_36" data-name="Path 36" d="M14.874,64.145A12.042,12.042,0,0,0,3.169,57.828a1.684,1.684,0,0,0-1.644,1.644,1.661,1.661,0,0,0,1.644,1.644,9.94,9.94,0,0,1,1.49-.061c.244.009.486.034.728.056l.021,0c.147.025.294.05.44.081a10.332,10.332,0,0,1,1.366.378c.117.042.233.088.351.13l.059.021a.1.1,0,0,0,.03.016c.227.1.452.212.671.329a12.284,12.284,0,0,1,1.2.751l.076.052.009.007c.1.078.193.157.288.238.189.162.372.33.548.505s.347.356.51.544c.066.075.129.151.193.227l.055.065.052.075a10.8,10.8,0,0,1,.777,1.274,1.655,1.655,0,0,0,2.249.59,1.682,1.682,0,0,0,.59-2.249" transform="translate(-28.957 34.38) rotate(-11)" fill="#7dceea"></path>
    <path id="Path_37" data-name="Path 37" d="M20.557,56.7c-2.195-1.751-4.579-3.293-6.87-4.913a1.651,1.651,0,0,0-2.249.59,1.687,1.687,0,0,0,.59,2.249c2.022,1.431,4.077,2.827,6.07,4.3.036.026.184.144.169.13.066.053.133.105.2.159.192.161.38.327.561.5s.355.347.522.532c.065.072.127.147.19.221.024.03.064.08.1.126a5.054,5.054,0,0,1,.358.6c.014.03.025.054.035.077.03.092.061.182.086.276.013.05.022.088.027.115,0,.073.011.147.009.22,0,.038,0,.065,0,.09-.026.112-.054.224-.089.333A1.659,1.659,0,0,0,21.4,64.325a1.683,1.683,0,0,0,2.024-1.149c.825-2.581-.951-4.945-2.868-6.474" transform="translate(-28.155 33.616) rotate(-11)" fill="#7dceea"></path>
    <path id="Path_38" data-name="Path 38" d="M199.875,39.288a71.036,71.036,0,0,1-5.166-15.5,1.645,1.645,0,1,0-3.171.875,74.646,74.646,0,0,0,5.5,16.282,1.658,1.658,0,0,0,2.249.59,1.681,1.681,0,0,0,.59-2.249" transform="translate(-11.667 27.573) rotate(-11)" fill="#1b7ed3"></path>
    <path id="Path_39" data-name="Path 39" d="M217.275,27.812a13.515,13.515,0,0,0-3.275-8,1.66,1.66,0,0,0-2.326,0,1.677,1.677,0,0,0,0,2.325c.084.1.15.2.229.3a12.651,12.651,0,0,0-5.261,4.624c-1.609,2.576-1.652,6.064.97,7.986,2.115,1.55,5.789,2.028,7.7-.058,1.673-1.827,2.124-4.8,1.963-7.185m-3.774,3.87a2.306,2.306,0,0,1-.928,1.332,3.8,3.8,0,0,1-2.435-.282c-1.571-.64-1.641-2.272-.839-3.7a9.106,9.106,0,0,1,4.17-3.723,9.966,9.966,0,0,1,.032,6.369" transform="translate(-10.402 27.009) rotate(-11)" fill="#1b7ed3"></path>
    <path id="Path_40" data-name="Path 40" d="M424.233,15.355a1.668,1.668,0,0,0-2.022,1.149,28.145,28.145,0,0,0-.546,12.718,1.661,1.661,0,0,0,2.024,1.149,1.68,1.68,0,0,0,1.148-2.022,24.372,24.372,0,0,1,.545-10.971,1.671,1.671,0,0,0-1.148-2.022" transform="translate(45.048 -66.223)" fill="#7dceea"></path>
    <path id="Path_41" data-name="Path 41" d="M440.764,15.071a1.68,1.68,0,0,0-2.249.59,62.682,62.682,0,0,0-6.15,10.257,21.516,21.516,0,0,0-2.085,5.66c-.322,2.3,1.677,4.242,3.917,3.2a1.659,1.659,0,0,0,.59-2.25,1.533,1.533,0,0,0-1.148-.764c.116-.284.207-.811.269-.984.231-.658.478-1.311.746-1.954.557-1.34,1.2-2.645,1.887-3.922a69.6,69.6,0,0,1,4.813-7.584,1.657,1.657,0,0,0-.59-2.249" transform="translate(47.808 -73.414)" fill="#7dceea"></path>
    <path id="Path_43" data-name="Path 43" d="M517.115,29.276v0l0,0h0" transform="translate(-21.472 5.899)" fill="#1b7ed3"></path>
    <path id="Path_44" data-name="Path 44" d="M517.1,29.3h0l0-.007h0l0,.005" transform="translate(-21.473 5.901)" fill="#1b7ed3"></path>
    <path id="Path_45" data-name="Path 45" d="M520.913,27.8c-.841-2.379-2.862-3.756-4.964-4.95a1.735,1.735,0,0,0-1.621-.016,2.259,2.259,0,0,0-.247-.061c-2.332-.231-4.1,1.949-4.421,4.051-.33,2.138-.309,5.045,1.812,6.261a6.041,6.041,0,0,0,3.02.657,15.031,15.031,0,0,0,3.434-.406,3.813,3.813,0,0,0,2.92-2.117,4.815,4.815,0,0,0,.066-3.419m-4.4,2.481c-.183.035-.366.065-.549.092h-.037c-.132.009-.264.027-.4.038-.4.031-.8.044-1.193.038-.15,0-.3-.007-.448-.016-.041,0-.118-.005-.184-.013a.4.4,0,0,0-.055-.018c-.151-.031-.293-.08-.44-.119-.038-.023-.078-.044-.116-.064l-.078-.065c-.009-.016-.006-.015-.019-.037s-.014-.023-.021-.035c-.012-.053-.075-.2-.1-.319a.342.342,0,0,0,0-.087c-.006-.09-.014-.18-.02-.27-.023-.378-.034-.759-.03-1.138,0-.218.011-.435.03-.652,0-.023.011-.093.017-.148.016-.073.035-.175.04-.2.021-.093.045-.185.071-.276.007-.022.045-.135.068-.207.019-.039.038-.085.047-.1.049-.091.1-.176.159-.264l.009-.014c.047-.049.119-.118.131-.129s.072-.072.118-.113a.635.635,0,0,0,.082-.039l.034-.019c.054-.019.151-.057.179-.067l.026-.009c.1,0,.228.023.249.025a1.266,1.266,0,0,0,.643-.115c.521.3,1.035.614,1.53.958l.105.079c.024.021.048.041.073.06.147.123.289.25.427.384.118.115.228.237.341.357l.043.046c.051.07.1.141.15.214a4.858,4.858,0,0,1,.273.468c.011.021.042.087.064.134l.011.03c.056.17.1.342.146.513,0,.011.009.023.013.035a2.193,2.193,0,0,1,.006.251c0,.066,0,.132,0,.2v.046c-.017.067-.045.148-.051.176l0,.01a.077.077,0,0,1,.021-.027l-.016.029,0,0,0,.01,0,.009,0,0v0l-.005,0v0c-.027.015-.056.03-.081.046s-.028.005-.053.012c-.4.1-.79.213-1.194.289" transform="translate(-22.204 5.261)" fill="#1b7ed3"></path>
    <path id="Path_46" data-name="Path 46" d="M517.111,29.295l.008-.019c-.052.033-.087.058-.008.019" transform="translate(-21.477 5.899)" fill="#1b7ed3"></path>
  </g>
</svg>