<svg xmlns="http://www.w3.org/2000/svg" width="35" viewBox="0 0 48.516 48.522">
    <g id="Group_80" data-name="Group 80" transform="translate(-142.948 -136.893)">
      <g id="Group_76" data-name="Group 76" transform="translate(142.948 136.893)">
        <path id="Path_72" data-name="Path 72" d="M159.658,161.576c0-.169,0-.338,0-.506a1.346,1.346,0,0,0-2.691-.051,10.109,10.109,0,0,0,0,1.111,1.347,1.347,0,0,0,2.692-.049C159.662,161.912,159.658,161.744,159.658,161.576Zm0,0c0-.169,0-.338,0-.506a1.346,1.346,0,0,0-2.691-.051,10.109,10.109,0,0,0,0,1.111,1.347,1.347,0,0,0,2.692-.049C159.662,161.912,159.658,161.744,159.658,161.576Zm0,0c0-.169,0-.338,0-.506a1.346,1.346,0,0,0-2.691-.051,10.109,10.109,0,0,0,0,1.111,1.347,1.347,0,0,0,2.692-.049C159.662,161.912,159.658,161.744,159.658,161.576Zm0,0c0-.169,0-.338,0-.506a1.346,1.346,0,0,0-2.691-.051,10.109,10.109,0,0,0,0,1.111,1.347,1.347,0,0,0,2.692-.049C159.662,161.912,159.658,161.744,159.658,161.576Zm0,0c0-.169,0-.338,0-.506a1.346,1.346,0,0,0-2.691-.051,10.109,10.109,0,0,0,0,1.111,1.347,1.347,0,0,0,2.692-.049C159.662,161.912,159.658,161.744,159.658,161.576Zm17.019.623c-.27-.006-.539,0-.809,0-.293,0-.585-.011-.876,0a.567.567,0,0,0-.554.6.557.557,0,0,0,.544.606,5.51,5.51,0,0,0,.875-.008,1.128,1.128,0,0,0,1.008-.979C176.887,162.234,176.866,162.2,176.678,162.2Zm2.619-5.646a1.807,1.807,0,0,0-.3,0,.1.1,0,0,0-.1.076c-.084.217.013.373.236.374.045,0,.09,0,.135,0,.143-.007.239-.073.24-.225A.217.217,0,0,0,179.3,156.553Zm-.011-.651a2.613,2.613,0,0,0-.3,0c-.065,0-.087.049-.1.11-.041.205.013.263.248.259.044,0,.089,0,.132,0a.174.174,0,0,0,.18-.193A.166.166,0,0,0,179.285,155.9Zm0,0a2.613,2.613,0,0,0-.3,0c-.065,0-.087.049-.1.11-.041.205.013.263.248.259.044,0,.089,0,.132,0a.174.174,0,0,0,.18-.193A.166.166,0,0,0,179.285,155.9Zm.011.651a1.807,1.807,0,0,0-.3,0,.1.1,0,0,0-.1.076c-.084.217.013.373.236.374.045,0,.09,0,.135,0,.143-.007.239-.073.24-.225A.217.217,0,0,0,179.3,156.553Zm-2.619,5.646c-.27-.006-.539,0-.809,0-.293,0-.585-.011-.876,0a.567.567,0,0,0-.554.6.557.557,0,0,0,.544.606,5.51,5.51,0,0,0,.875-.008,1.128,1.128,0,0,0,1.008-.979C176.887,162.234,176.866,162.2,176.678,162.2Zm-17.019-.623c0-.169,0-.338,0-.506a1.346,1.346,0,0,0-2.691-.051,10.109,10.109,0,0,0,0,1.111,1.347,1.347,0,0,0,2.692-.049C159.662,161.912,159.658,161.744,159.658,161.576Zm0,0c0-.169,0-.338,0-.506a1.346,1.346,0,0,0-2.691-.051,10.109,10.109,0,0,0,0,1.111,1.347,1.347,0,0,0,2.692-.049C159.662,161.912,159.658,161.744,159.658,161.576Zm17.019.623c-.27-.006-.539,0-.809,0-.293,0-.585-.011-.876,0a.567.567,0,0,0-.554.6.557.557,0,0,0,.544.606,5.51,5.51,0,0,0,.875-.008,1.128,1.128,0,0,0,1.008-.979C176.887,162.234,176.866,162.2,176.678,162.2Zm2.619-5.646a1.807,1.807,0,0,0-.3,0,.1.1,0,0,0-.1.076c-.084.217.013.373.236.374.045,0,.09,0,.135,0,.143-.007.239-.073.24-.225A.217.217,0,0,0,179.3,156.553Zm-.011-.651a2.613,2.613,0,0,0-.3,0c-.065,0-.087.049-.1.11-.041.205.013.263.248.259.044,0,.089,0,.132,0a.174.174,0,0,0,.18-.193A.166.166,0,0,0,179.285,155.9Zm1.388.076a2.227,2.227,0,0,0-.212.661.769.769,0,0,0,.415,0A2.485,2.485,0,0,0,180.674,155.978Zm0,0a2.227,2.227,0,0,0-.212.661.769.769,0,0,0,.415,0A2.485,2.485,0,0,0,180.674,155.978Zm-1.388-.076a2.613,2.613,0,0,0-.3,0c-.065,0-.087.049-.1.11-.041.205.013.263.248.259.044,0,.089,0,.132,0a.174.174,0,0,0,.18-.193A.166.166,0,0,0,179.285,155.9Zm.011.651a1.807,1.807,0,0,0-.3,0,.1.1,0,0,0-.1.076c-.084.217.013.373.236.374.045,0,.09,0,.135,0,.143-.007.239-.073.24-.225A.217.217,0,0,0,179.3,156.553Zm-2.619,5.646c-.27-.006-.539,0-.809,0-.293,0-.585-.011-.876,0a.567.567,0,0,0-.554.6.557.557,0,0,0,.544.606,5.51,5.51,0,0,0,.875-.008,1.128,1.128,0,0,0,1.008-.979C176.887,162.234,176.866,162.2,176.678,162.2Zm-17.019-.623c0-.169,0-.338,0-.506a1.346,1.346,0,0,0-2.691-.051,10.109,10.109,0,0,0,0,1.111,1.347,1.347,0,0,0,2.692-.049C159.662,161.912,159.658,161.744,159.658,161.576Zm0,0c0-.169,0-.338,0-.506a1.346,1.346,0,0,0-2.691-.051,10.109,10.109,0,0,0,0,1.111,1.347,1.347,0,0,0,2.692-.049C159.662,161.912,159.658,161.744,159.658,161.576Zm17.019.623c-.27-.006-.539,0-.809,0-.293,0-.585-.011-.876,0a.567.567,0,0,0-.554.6.557.557,0,0,0,.544.606,5.51,5.51,0,0,0,.875-.008,1.128,1.128,0,0,0,1.008-.979C176.887,162.234,176.866,162.2,176.678,162.2Zm2.619-5.646a1.807,1.807,0,0,0-.3,0,.1.1,0,0,0-.1.076c-.084.217.013.373.236.374.045,0,.09,0,.135,0,.143-.007.239-.073.24-.225A.217.217,0,0,0,179.3,156.553Zm-.011-.651a2.613,2.613,0,0,0-.3,0c-.065,0-.087.049-.1.11-.041.205.013.263.248.259.044,0,.089,0,.132,0a.174.174,0,0,0,.18-.193A.166.166,0,0,0,179.285,155.9Zm1.388.076a2.227,2.227,0,0,0-.212.661.769.769,0,0,0,.415,0A2.485,2.485,0,0,0,180.674,155.978Zm4.3-.1c-.222-.006-.249.021-.255.239-.006.26.01.278.243.277.139,0,.272-.01.339-.155C185.394,156.043,185.248,155.882,184.975,155.875Zm0,0c-.222-.006-.249.021-.255.239-.006.26.01.278.243.277.139,0,.272-.01.339-.155C185.394,156.043,185.248,155.882,184.975,155.875Zm-4.3.1a2.227,2.227,0,0,0-.212.661.769.769,0,0,0,.415,0A2.485,2.485,0,0,0,180.674,155.978Zm-1.388-.076a2.613,2.613,0,0,0-.3,0c-.065,0-.087.049-.1.11-.041.205.013.263.248.259.044,0,.089,0,.132,0a.174.174,0,0,0,.18-.193A.166.166,0,0,0,179.285,155.9Zm.011.651a1.807,1.807,0,0,0-.3,0,.1.1,0,0,0-.1.076c-.084.217.013.373.236.374.045,0,.09,0,.135,0,.143-.007.239-.073.24-.225A.217.217,0,0,0,179.3,156.553Zm-2.619,5.646c-.27-.006-.539,0-.809,0-.293,0-.585-.011-.876,0a.567.567,0,0,0-.554.6.557.557,0,0,0,.544.606,5.51,5.51,0,0,0,.875-.008,1.128,1.128,0,0,0,1.008-.979C176.887,162.234,176.866,162.2,176.678,162.2Zm-17.019-.623c0-.169,0-.338,0-.506a1.346,1.346,0,0,0-2.691-.051,10.109,10.109,0,0,0,0,1.111,1.347,1.347,0,0,0,2.692-.049C159.662,161.912,159.658,161.744,159.658,161.576Zm0,0c0-.169,0-.338,0-.506a1.346,1.346,0,0,0-2.691-.051,10.109,10.109,0,0,0,0,1.111,1.347,1.347,0,0,0,2.692-.049C159.662,161.912,159.658,161.744,159.658,161.576Zm17.019.623c-.27-.006-.539,0-.809,0-.293,0-.585-.011-.876,0a.567.567,0,0,0-.554.6.557.557,0,0,0,.544.606,5.51,5.51,0,0,0,.875-.008,1.128,1.128,0,0,0,1.008-.979C176.887,162.234,176.866,162.2,176.678,162.2Zm2.619-5.646a1.807,1.807,0,0,0-.3,0,.1.1,0,0,0-.1.076c-.084.217.013.373.236.374.045,0,.09,0,.135,0,.143-.007.239-.073.24-.225A.217.217,0,0,0,179.3,156.553Zm-.011-.651a2.613,2.613,0,0,0-.3,0c-.065,0-.087.049-.1.11-.041.205.013.263.248.259.044,0,.089,0,.132,0a.174.174,0,0,0,.18-.193A.166.166,0,0,0,179.285,155.9Zm1.388.076a2.227,2.227,0,0,0-.212.661.769.769,0,0,0,.415,0A2.485,2.485,0,0,0,180.674,155.978Zm4.3-.1c-.222-.006-.249.021-.255.239-.006.26.01.278.243.277.139,0,.272-.01.339-.155C185.394,156.043,185.248,155.882,184.975,155.875Zm0,0c-.222-.006-.249.021-.255.239-.006.26.01.278.243.277.139,0,.272-.01.339-.155C185.394,156.043,185.248,155.882,184.975,155.875Zm-4.3.1a2.227,2.227,0,0,0-.212.661.769.769,0,0,0,.415,0A2.485,2.485,0,0,0,180.674,155.978Zm-1.388-.076a2.613,2.613,0,0,0-.3,0c-.065,0-.087.049-.1.11-.041.205.013.263.248.259.044,0,.089,0,.132,0a.174.174,0,0,0,.18-.193A.166.166,0,0,0,179.285,155.9Zm.011.651a1.807,1.807,0,0,0-.3,0,.1.1,0,0,0-.1.076c-.084.217.013.373.236.374.045,0,.09,0,.135,0,.143-.007.239-.073.24-.225A.217.217,0,0,0,179.3,156.553Zm-2.619,5.646c-.27-.006-.539,0-.809,0-.293,0-.585-.011-.876,0a.567.567,0,0,0-.554.6.557.557,0,0,0,.544.606,5.51,5.51,0,0,0,.875-.008,1.128,1.128,0,0,0,1.008-.979C176.887,162.234,176.866,162.2,176.678,162.2Zm-17.019-.623c0-.169,0-.338,0-.506a1.346,1.346,0,0,0-2.691-.051,10.109,10.109,0,0,0,0,1.111,1.347,1.347,0,0,0,2.692-.049C159.662,161.912,159.658,161.744,159.658,161.576Zm0,0c0-.169,0-.338,0-.506a1.346,1.346,0,0,0-2.691-.051,10.109,10.109,0,0,0,0,1.111,1.347,1.347,0,0,0,2.692-.049C159.662,161.912,159.658,161.744,159.658,161.576Zm17.019.623c-.27-.006-.539,0-.809,0-.293,0-.585-.011-.876,0a.567.567,0,0,0-.554.6.557.557,0,0,0,.544.606,5.51,5.51,0,0,0,.875-.008,1.128,1.128,0,0,0,1.008-.979C176.887,162.234,176.866,162.2,176.678,162.2Zm2.619-5.646a1.807,1.807,0,0,0-.3,0,.1.1,0,0,0-.1.076c-.084.217.013.373.236.374.045,0,.09,0,.135,0,.143-.007.239-.073.24-.225A.217.217,0,0,0,179.3,156.553Zm-.011-.651a2.613,2.613,0,0,0-.3,0c-.065,0-.087.049-.1.11-.041.205.013.263.248.259.044,0,.089,0,.132,0a.174.174,0,0,0,.18-.193A.166.166,0,0,0,179.285,155.9Zm1.238,2.2a1.679,1.679,0,0,0-.2.619.59.59,0,0,0,.4,0A1.394,1.394,0,0,0,180.523,158.1Zm.15-2.123a2.227,2.227,0,0,0-.212.661.769.769,0,0,0,.415,0A2.485,2.485,0,0,0,180.674,155.978Zm4.3-.1c-.222-.006-.249.021-.255.239-.006.26.01.278.243.277.139,0,.272-.01.339-.155C185.394,156.043,185.248,155.882,184.975,155.875Zm0,0c-.222-.006-.249.021-.255.239-.006.26.01.278.243.277.139,0,.272-.01.339-.155C185.394,156.043,185.248,155.882,184.975,155.875Zm-4.3.1a2.227,2.227,0,0,0-.212.661.769.769,0,0,0,.415,0A2.485,2.485,0,0,0,180.674,155.978Zm-.15,2.123a1.679,1.679,0,0,0-.2.619.59.59,0,0,0,.4,0A1.394,1.394,0,0,0,180.523,158.1Zm-1.385-1.833c.044,0,.089,0,.132,0a.174.174,0,0,0,.18-.193.166.166,0,0,0-.165-.173,2.613,2.613,0,0,0-.3,0c-.065,0-.087.049-.1.11C178.849,156.214,178.9,156.272,179.138,156.268Zm.159.286a1.807,1.807,0,0,0-.3,0,.1.1,0,0,0-.1.076c-.084.217.013.373.236.374.045,0,.09,0,.135,0,.143-.007.239-.073.24-.225A.217.217,0,0,0,179.3,156.553Zm-2.619,5.646c-.27-.006-.539,0-.809,0-.293,0-.585-.011-.876,0a.567.567,0,0,0-.554.6.557.557,0,0,0,.544.606,5.51,5.51,0,0,0,.875-.008,1.128,1.128,0,0,0,1.008-.979C176.887,162.234,176.866,162.2,176.678,162.2Zm-17.019-.623c0-.169,0-.338,0-.506a1.346,1.346,0,0,0-2.691-.051,10.109,10.109,0,0,0,0,1.111,1.347,1.347,0,0,0,2.692-.049C159.662,161.912,159.658,161.744,159.658,161.576Zm31.643-5.234a19.587,19.587,0,0,0-2.12-6.749,21.867,21.867,0,0,0-6.888-7.742,27.283,27.283,0,0,0-15.367-4.951,26.289,26.289,0,0,0-4.971.367,24.3,24.3,0,0,0-8.278,2.937,21.1,21.1,0,0,0-8.711,9.363,22.145,22.145,0,0,0-2.016,10.182,48.22,48.22,0,0,0,.558,6.892,36.881,36.881,0,0,0,1.508,6.318,22.832,22.832,0,0,0,3.5,6.732,14.346,14.346,0,0,0,5.951,4.625,16.122,16.122,0,0,0,7.747,1.006,25.877,25.877,0,0,0,4.628-.889,36.477,36.477,0,0,0,8.517-3.689,39.546,39.546,0,0,0,11.1-9.472,25.308,25.308,0,0,0,3.74-6.3,16.344,16.344,0,0,0,1.1-8.629ZM150.684,159.5a.213.213,0,0,1-.231.232c-.135.006-.27.01-.405,0-.165-.01-.221.068-.21.221.006.079,0,.158,0,.236v3.844c0,.09,0,.18-.007.269a.231.231,0,0,1-.242.231c-.2,0-.405.01-.606,0s-.263-.072-.267-.3c-.006-.325,0-.651,0-.978v-1.146c0-.707,0-1.416,0-2.124,0-.241-.006-.242-.243-.249-.124,0-.248,0-.37,0a.224.224,0,0,1-.25-.25c0-.212,0-.426,0-.64a.215.215,0,0,1,.235-.229,3.9,3.9,0,0,1,.405,0c.183.015.229-.07.225-.238-.008-.381,0-.764-.006-1.146a.284.284,0,0,1,.188-.312c.146-.059.281-.142.425-.207.353-.158.509-.06.512.319,0,.45.006.9,0,1.349,0,.17.049.25.231.235a3.545,3.545,0,0,1,.405,0,.2.2,0,0,1,.211.211C150.687,159.056,150.686,159.281,150.684,159.5Zm4.182-.058c-.007.226-.056.274-.276.293a1.083,1.083,0,0,1-.135,0,1.113,1.113,0,0,0-1.179,1.211c.028.753.007,1.506.007,2.259,0,.325,0,.651,0,.978-.006.3-.063.349-.36.354-.122,0-.246,0-.37,0-.354,0-.391-.037-.391-.381,0-.865,0-1.73,0-2.6s0-1.754,0-2.63c0-.128,0-.256.149-.3a.29.29,0,0,1,.335.091.85.85,0,0,0,.07.072,1.2,1.2,0,0,1,.12.12c.114.15.211.172.383.045a2.138,2.138,0,0,1,1.412-.343.22.22,0,0,1,.239.256C154.866,159.064,154.872,159.255,154.866,159.447Zm5.881,2.986a2.458,2.458,0,0,1-4.885-.2c-.013-.224,0-.449,0-.674h0c0-.18-.006-.36,0-.539a2.46,2.46,0,0,1,4.84-.563,2.005,2.005,0,0,1,.08.464A10.071,10.071,0,0,1,160.747,162.433Zm5.424.654a1.533,1.533,0,0,1-1.442,1.412,6.325,6.325,0,0,1-1.647,0,1.878,1.878,0,0,1-.36-.083.771.771,0,0,1-.606-1.018c.035-.2.138-.27.335-.187a4.979,4.979,0,0,0,2,.2.674.674,0,0,0,.322-.087.541.541,0,0,0,.3-.527.467.467,0,0,0-.342-.451,3.228,3.228,0,0,0-.758-.146c-.269-.029-.537-.06-.8-.11a1.612,1.612,0,0,1-1.4-2.018,1.588,1.588,0,0,1,1.6-1.445c.225-.014.45,0,.675,0a3.519,3.519,0,0,1,.972.058,2.413,2.413,0,0,1,.319.1.75.75,0,0,1,.474,1.031.2.2,0,0,1-.226.153.172.172,0,0,1-.066-.013,4.394,4.394,0,0,0-1.859-.215,1.046,1.046,0,0,0-.463.076.532.532,0,0,0-.318.512.478.478,0,0,0,.308.477,2.516,2.516,0,0,0,.753.173,8,8,0,0,1,.964.16A1.572,1.572,0,0,1,166.171,163.087Zm6.043,1.1c0,.309-.045.352-.347.359-.146,0-.293,0-.439,0-.266-.008-.324-.069-.335-.346,0-.079,0-.158,0-.236,0-1.092,0-2.183,0-3.273a.892.892,0,0,0-.25-.707.636.636,0,0,0-.252-.166c-1.018-.291-1.941.188-1.944,1.243,0,1.013,0,2.025,0,3.038,0,.432-.015.447-.463.449-.1,0-.2,0-.3,0-.29-.008-.331-.045-.333-.335,0-.54,0-1.08,0-1.62V160.6q0-1.739,0-3.476c0-.09,0-.18,0-.27a.178.178,0,0,1,.19-.191c.236,0,.473-.006.709,0,.136,0,.2.091.2.222,0,.551,0,1.1,0,1.654a.659.659,0,0,1-.148.333c-.034.058-.082.118-.008.176s.1-.014.141-.044a2.572,2.572,0,0,1,2.265-.269,1.852,1.852,0,0,1,1.319,1.806C172.219,161.752,172.216,162.967,172.213,164.182Zm5.649.336c-.163.07-.274-.018-.384-.128s-.194-.28-.352-.3c-.142-.014-.249.135-.378.2a2,2,0,0,1-.671.21,5.014,5.014,0,0,1-1.377-.006,1.726,1.726,0,0,1,.013-3.388,9,9,0,0,1,1.246-.034c.236-.006.473-.008.708,0,.165.006.222-.063.21-.219-.008-.113,0-.225,0-.338a.773.773,0,0,0-.72-.761,4.686,4.686,0,0,0-2.03.176c-.2.083-.288.015-.309-.205-.006-.068,0-.135,0-.2,0-.482.052-.564.5-.754a4.627,4.627,0,0,1,2.518.008A1.91,1.91,0,0,1,178,160.6c.014.585,0,1.169,0,1.754,0,.606,0,1.214,0,1.82C178,164.308,178.018,164.451,177.862,164.519Zm1.823-6.57c-.025.122-.112.07-.187.06-.544-.063-.594-.017-.594.542,0,.079,0,.158,0,.235.017.224.087.293.314.307.113.006.225,0,.338,0a.1.1,0,0,1,.107.062.1.1,0,0,1-.041.117.76.76,0,0,1-.65.052.457.457,0,0,1-.332-.422c-.011-.122,0-.247,0-.37h0c0-.079,0-.158,0-.236-.03-.565.526-.7.937-.533A.159.159,0,0,1,179.685,157.949Zm-.4-.681c-.167.008-.336,0-.5,0-.117,0-.16-.052-.159-.163,0-.224,0-.449,0-.672s0-.426,0-.639c0-.125.046-.191.174-.189a4.281,4.281,0,0,1,.5.013.443.443,0,0,1,.4.6.444.444,0,0,0,.032.339A.486.486,0,0,1,179.284,157.268Zm1.848,2.072a.155.155,0,0,1-.211-.111c-.034-.089-.041-.212-.172-.222a1.583,1.583,0,0,0-.5.013c-.086.023-.091.122-.12.191s-.07.141-.173.138a.092.092,0,0,1-.107-.093.262.262,0,0,1,.021-.1c.149-.436.3-.871.447-1.307.037-.107.087-.174.214-.17a.186.186,0,0,1,.191.15c.148.436.3.871.45,1.307C181.2,159.209,181.238,159.3,181.132,159.34Zm.143-2.08c-.068.017-.163.017-.176-.052-.062-.332-.307-.288-.54-.288-.138,0-.239.022-.273.177a.317.317,0,0,1-.08.144.15.15,0,0,1-.159.017c-.069-.025-.063-.084-.045-.139q.241-.7.484-1.4a.171.171,0,0,1,.186-.113.165.165,0,0,1,.181.115q.234.684.47,1.366a.456.456,0,0,1,.011.058C181.339,157.2,181.326,157.247,181.276,157.259Zm1.011.726c-.111,0-.224,0-.336,0-.224.007-.255.046-.242.252.008.11.051.165.163.163s.246,0,.37,0c.073,0,.134.025.136.111s-.03.155-.131.158-.179,0-.269,0c-.262.006-.262.006-.269.253,0,.068,0,.135,0,.2-.007.094.021.217-.132.224s-.134-.117-.135-.212c0-.2,0-.4,0-.6s0-.425,0-.637c0-.139.044-.21.191-.207.225.006.449,0,.672,0,.1,0,.177.027.173.15S182.38,157.984,182.287,157.985Zm.184-.851c-.1-.15-.21-.291-.314-.439-.051-.07-.113-.115-.2-.08s-.066.11-.069.176c0,.124,0,.246-.007.37a.1.1,0,0,1-.106.105c-.075,0-.132-.021-.146-.1a.837.837,0,0,1-.01-.134V155.85c0-.034,0-.068,0-.1a.129.129,0,0,1,.151-.139c.086,0,.111.063.113.138,0,.135,0,.27,0,.4,0,.059.008.12.066.144a.141.141,0,0,0,.176-.059c.113-.155.221-.312.332-.467.045-.063.082-.138.169-.153.066-.013.139-.028.186.037s-.011.1-.042.148c-.11.156-.217.315-.336.463a.236.236,0,0,0-.006.353c.11.128.2.27.3.408.044.063.11.12.075.215A.239.239,0,0,1,182.471,157.134Zm.723,1.27c.124-.006.248,0,.371,0a.112.112,0,0,1,.12.128c0,.077-.03.132-.113.136-.122,0-.246.011-.37,0-.153-.01-.19.066-.187.2s.013.222.177.214c.145-.007.291,0,.437,0,.093,0,.148.038.145.139s-.07.128-.158.128c-.236,0-.471,0-.708,0-.138,0-.17-.072-.167-.191,0-.212,0-.426,0-.639s.006-.405,0-.606c-.006-.149.038-.235.2-.231.225,0,.449,0,.674,0,.087,0,.152.027.158.131.007.121-.063.156-.167.156-.134,0-.269.007-.4,0-.15-.007-.191.068-.19.205S183.032,158.414,183.194,158.4Zm.413-2.087c.1-.008.2,0,.3,0,.076,0,.131.028.134.114s-.035.149-.134.15-.2.01-.3,0c-.165-.014-.212.056-.214.214s.075.214.225.205c.135-.008.27,0,.405,0a.122.122,0,0,1,.138.146.114.114,0,0,1-.129.12c-.246,0-.494,0-.74,0-.113,0-.163-.049-.163-.16,0-.225,0-.449,0-.674h0c0-.2.006-.4,0-.606-.006-.15.039-.232.207-.226.212.007.426,0,.64,0,.091,0,.184.006.188.135.006.152-.1.15-.205.152s-.225.007-.336,0c-.151-.01-.229.037-.226.205C183.4,156.252,183.44,156.332,183.608,156.317Zm1.831.523a1.6,1.6,0,0,1,.117.242c.025.06.065.136-.021.173a.152.152,0,0,1-.208-.049,3.24,3.24,0,0,1-.18-.4.225.225,0,0,0-.26-.153c-.114,0-.162.051-.16.162s0,.225-.006.336c0,.08-.055.114-.135.113s-.129-.037-.131-.118c0-.235,0-.47,0-.7h0c0-.214,0-.426,0-.639,0-.144.06-.205.2-.2a3.735,3.735,0,0,1,.5.02.509.509,0,0,1,.329.84A.27.27,0,0,0,185.439,156.84Zm1.568-1.049c-.1.238-.193.478-.3.713a1.131,1.131,0,0,0-.128.55c.008.1.023.21-.136.215-.143,0-.176-.084-.165-.194a1.349,1.349,0,0,0-.167-.677c-.082-.2-.167-.391-.246-.589-.028-.072-.065-.159.046-.194a.157.157,0,0,1,.2.073,1.67,1.67,0,0,1,.079.186l.236.629c.094-.246.179-.464.264-.681a.651.651,0,0,1,.09-.176.159.159,0,0,1,.188-.025C187.064,155.657,187.033,155.728,187.007,155.791Zm-2.032.084c-.222-.006-.249.021-.255.239-.006.26.01.278.243.277.139,0,.272-.01.339-.155C185.394,156.043,185.248,155.882,184.975,155.875Zm-4.514.764a.769.769,0,0,0,.415,0,2.485,2.485,0,0,0-.2-.66A2.227,2.227,0,0,0,180.461,156.639Zm-.141,2.08a.59.59,0,0,0,.4,0,1.394,1.394,0,0,0-.2-.616A1.679,1.679,0,0,0,180.321,158.719Zm-1.183-2.452c.044,0,.089,0,.132,0a.174.174,0,0,0,.18-.193.166.166,0,0,0-.165-.173,2.613,2.613,0,0,0-.3,0c-.065,0-.087.049-.1.11C178.849,156.214,178.9,156.272,179.138,156.268Zm.159.286a1.807,1.807,0,0,0-.3,0,.1.1,0,0,0-.1.076c-.084.217.013.373.236.374.045,0,.09,0,.135,0,.143-.007.239-.073.24-.225A.217.217,0,0,0,179.3,156.553Zm-2.619,5.646c-.27-.006-.539,0-.809,0-.293,0-.585-.011-.876,0a.567.567,0,0,0-.554.6.557.557,0,0,0,.544.606,5.51,5.51,0,0,0,.875-.008,1.128,1.128,0,0,0,1.008-.979C176.887,162.234,176.866,162.2,176.678,162.2Zm-17.021-1.13a1.346,1.346,0,0,0-2.691-.051,10.109,10.109,0,0,0,0,1.111,1.347,1.347,0,0,0,2.692-.049c0-.169,0-.338,0-.505S159.662,161.239,159.657,161.07Zm0,.506c0-.169,0-.338,0-.506a1.346,1.346,0,0,0-2.691-.051,10.109,10.109,0,0,0,0,1.111,1.347,1.347,0,0,0,2.692-.049C159.662,161.912,159.658,161.744,159.658,161.576Zm17.019.623c-.27-.006-.539,0-.809,0-.293,0-.585-.011-.876,0a.567.567,0,0,0-.554.6.557.557,0,0,0,.544.606,5.51,5.51,0,0,0,.875-.008,1.128,1.128,0,0,0,1.008-.979C176.887,162.234,176.866,162.2,176.678,162.2Zm2.619-5.646a1.807,1.807,0,0,0-.3,0,.1.1,0,0,0-.1.076c-.084.217.013.373.236.374.045,0,.09,0,.135,0,.143-.007.239-.073.24-.225A.217.217,0,0,0,179.3,156.553Zm-.011-.651a2.613,2.613,0,0,0-.3,0c-.065,0-.087.049-.1.11-.041.205.013.263.248.259.044,0,.089,0,.132,0a.174.174,0,0,0,.18-.193A.166.166,0,0,0,179.285,155.9Zm1.388.076a2.227,2.227,0,0,0-.212.661.769.769,0,0,0,.415,0A2.485,2.485,0,0,0,180.674,155.978Zm4.3-.1c-.222-.006-.249.021-.255.239-.006.26.01.278.243.277.139,0,.272-.01.339-.155C185.394,156.043,185.248,155.882,184.975,155.875Zm0,0c-.222-.006-.249.021-.255.239-.006.26.01.278.243.277.139,0,.272-.01.339-.155C185.394,156.043,185.248,155.882,184.975,155.875Zm-4.3.1a2.227,2.227,0,0,0-.212.661.769.769,0,0,0,.415,0A2.485,2.485,0,0,0,180.674,155.978Zm-1.388-.076a2.613,2.613,0,0,0-.3,0c-.065,0-.087.049-.1.11-.041.205.013.263.248.259.044,0,.089,0,.132,0a.174.174,0,0,0,.18-.193A.166.166,0,0,0,179.285,155.9Zm.011.651a1.807,1.807,0,0,0-.3,0,.1.1,0,0,0-.1.076c-.084.217.013.373.236.374.045,0,.09,0,.135,0,.143-.007.239-.073.24-.225A.217.217,0,0,0,179.3,156.553Zm-2.619,5.646c-.27-.006-.539,0-.809,0-.293,0-.585-.011-.876,0a.567.567,0,0,0-.554.6.557.557,0,0,0,.544.606,5.51,5.51,0,0,0,.875-.008,1.128,1.128,0,0,0,1.008-.979C176.887,162.234,176.866,162.2,176.678,162.2Zm-17.019-.623c0-.169,0-.338,0-.506a1.346,1.346,0,0,0-2.691-.051,10.109,10.109,0,0,0,0,1.111,1.347,1.347,0,0,0,2.692-.049C159.662,161.912,159.658,161.744,159.658,161.576Zm0,0c0-.169,0-.338,0-.506a1.346,1.346,0,0,0-2.691-.051,10.109,10.109,0,0,0,0,1.111,1.347,1.347,0,0,0,2.692-.049C159.662,161.912,159.658,161.744,159.658,161.576Zm17.019.623c-.27-.006-.539,0-.809,0-.293,0-.585-.011-.876,0a.567.567,0,0,0-.554.6.557.557,0,0,0,.544.606,5.51,5.51,0,0,0,.875-.008,1.128,1.128,0,0,0,1.008-.979C176.887,162.234,176.866,162.2,176.678,162.2Zm2.619-5.646a1.807,1.807,0,0,0-.3,0,.1.1,0,0,0-.1.076c-.084.217.013.373.236.374.045,0,.09,0,.135,0,.143-.007.239-.073.24-.225A.217.217,0,0,0,179.3,156.553Zm-.011-.651a2.613,2.613,0,0,0-.3,0c-.065,0-.087.049-.1.11-.041.205.013.263.248.259.044,0,.089,0,.132,0a.174.174,0,0,0,.18-.193A.166.166,0,0,0,179.285,155.9Zm1.388.076a2.227,2.227,0,0,0-.212.661.769.769,0,0,0,.415,0A2.485,2.485,0,0,0,180.674,155.978Zm4.3-.1c-.222-.006-.249.021-.255.239-.006.26.01.278.243.277.139,0,.272-.01.339-.155C185.394,156.043,185.248,155.882,184.975,155.875Zm0,0c-.222-.006-.249.021-.255.239-.006.26.01.278.243.277.139,0,.272-.01.339-.155C185.394,156.043,185.248,155.882,184.975,155.875Zm-4.3.1a2.227,2.227,0,0,0-.212.661.769.769,0,0,0,.415,0A2.485,2.485,0,0,0,180.674,155.978Zm-1.388-.076a2.613,2.613,0,0,0-.3,0c-.065,0-.087.049-.1.11-.041.205.013.263.248.259.044,0,.089,0,.132,0a.174.174,0,0,0,.18-.193A.166.166,0,0,0,179.285,155.9Zm.011.651a1.807,1.807,0,0,0-.3,0,.1.1,0,0,0-.1.076c-.084.217.013.373.236.374.045,0,.09,0,.135,0,.143-.007.239-.073.24-.225A.217.217,0,0,0,179.3,156.553Zm-2.619,5.646c-.27-.006-.539,0-.809,0-.293,0-.585-.011-.876,0a.567.567,0,0,0-.554.6.557.557,0,0,0,.544.606,5.51,5.51,0,0,0,.875-.008,1.128,1.128,0,0,0,1.008-.979C176.887,162.234,176.866,162.2,176.678,162.2Zm-17.019-.623c0-.169,0-.338,0-.506a1.346,1.346,0,0,0-2.691-.051,10.109,10.109,0,0,0,0,1.111,1.347,1.347,0,0,0,2.692-.049C159.662,161.912,159.658,161.744,159.658,161.576Zm0,0c0-.169,0-.338,0-.506a1.346,1.346,0,0,0-2.691-.051,10.109,10.109,0,0,0,0,1.111,1.347,1.347,0,0,0,2.692-.049C159.662,161.912,159.658,161.744,159.658,161.576Zm17.019.623c-.27-.006-.539,0-.809,0-.293,0-.585-.011-.876,0a.567.567,0,0,0-.554.6.557.557,0,0,0,.544.606,5.51,5.51,0,0,0,.875-.008,1.128,1.128,0,0,0,1.008-.979C176.887,162.234,176.866,162.2,176.678,162.2Zm2.619-5.646a1.807,1.807,0,0,0-.3,0,.1.1,0,0,0-.1.076c-.084.217.013.373.236.374.045,0,.09,0,.135,0,.143-.007.239-.073.24-.225A.217.217,0,0,0,179.3,156.553Zm-.011-.651a2.613,2.613,0,0,0-.3,0c-.065,0-.087.049-.1.11-.041.205.013.263.248.259.044,0,.089,0,.132,0a.174.174,0,0,0,.18-.193A.166.166,0,0,0,179.285,155.9Zm1.388.076a2.227,2.227,0,0,0-.212.661.769.769,0,0,0,.415,0A2.485,2.485,0,0,0,180.674,155.978Zm0,0a2.227,2.227,0,0,0-.212.661.769.769,0,0,0,.415,0A2.485,2.485,0,0,0,180.674,155.978Zm-1.388-.076a2.613,2.613,0,0,0-.3,0c-.065,0-.087.049-.1.11-.041.205.013.263.248.259.044,0,.089,0,.132,0a.174.174,0,0,0,.18-.193A.166.166,0,0,0,179.285,155.9Zm.011.651a1.807,1.807,0,0,0-.3,0,.1.1,0,0,0-.1.076c-.084.217.013.373.236.374.045,0,.09,0,.135,0,.143-.007.239-.073.24-.225A.217.217,0,0,0,179.3,156.553Zm-2.619,5.646c-.27-.006-.539,0-.809,0-.293,0-.585-.011-.876,0a.567.567,0,0,0-.554.6.557.557,0,0,0,.544.606,5.51,5.51,0,0,0,.875-.008,1.128,1.128,0,0,0,1.008-.979C176.887,162.234,176.866,162.2,176.678,162.2Zm-17.019-.623c0-.169,0-.338,0-.506a1.346,1.346,0,0,0-2.691-.051,10.109,10.109,0,0,0,0,1.111,1.347,1.347,0,0,0,2.692-.049C159.662,161.912,159.658,161.744,159.658,161.576Zm0,0c0-.169,0-.338,0-.506a1.346,1.346,0,0,0-2.691-.051,10.109,10.109,0,0,0,0,1.111,1.347,1.347,0,0,0,2.692-.049C159.662,161.912,159.658,161.744,159.658,161.576Zm17.019.623c-.27-.006-.539,0-.809,0-.293,0-.585-.011-.876,0a.567.567,0,0,0-.554.6.557.557,0,0,0,.544.606,5.51,5.51,0,0,0,.875-.008,1.128,1.128,0,0,0,1.008-.979C176.887,162.234,176.866,162.2,176.678,162.2Zm2.619-5.646a1.807,1.807,0,0,0-.3,0,.1.1,0,0,0-.1.076c-.084.217.013.373.236.374.045,0,.09,0,.135,0,.143-.007.239-.073.24-.225A.217.217,0,0,0,179.3,156.553Zm-.011-.651a2.613,2.613,0,0,0-.3,0c-.065,0-.087.049-.1.11-.041.205.013.263.248.259.044,0,.089,0,.132,0a.174.174,0,0,0,.18-.193A.166.166,0,0,0,179.285,155.9Zm1.388.076a2.227,2.227,0,0,0-.212.661.769.769,0,0,0,.415,0A2.485,2.485,0,0,0,180.674,155.978Zm0,0a2.227,2.227,0,0,0-.212.661.769.769,0,0,0,.415,0A2.485,2.485,0,0,0,180.674,155.978Zm-1.388-.076a2.613,2.613,0,0,0-.3,0c-.065,0-.087.049-.1.11-.041.205.013.263.248.259.044,0,.089,0,.132,0a.174.174,0,0,0,.18-.193A.166.166,0,0,0,179.285,155.9Zm.011.651a1.807,1.807,0,0,0-.3,0,.1.1,0,0,0-.1.076c-.084.217.013.373.236.374.045,0,.09,0,.135,0,.143-.007.239-.073.24-.225A.217.217,0,0,0,179.3,156.553Zm-2.619,5.646c-.27-.006-.539,0-.809,0-.293,0-.585-.011-.876,0a.567.567,0,0,0-.554.6.557.557,0,0,0,.544.606,5.51,5.51,0,0,0,.875-.008,1.128,1.128,0,0,0,1.008-.979C176.887,162.234,176.866,162.2,176.678,162.2Zm-17.019-.623c0-.169,0-.338,0-.506a1.346,1.346,0,0,0-2.691-.051,10.109,10.109,0,0,0,0,1.111,1.347,1.347,0,0,0,2.692-.049C159.662,161.912,159.658,161.744,159.658,161.576Zm0,0c0-.169,0-.338,0-.506a1.346,1.346,0,0,0-2.691-.051,10.109,10.109,0,0,0,0,1.111,1.347,1.347,0,0,0,2.692-.049C159.662,161.912,159.658,161.744,159.658,161.576Zm17.019.623c-.27-.006-.539,0-.809,0-.293,0-.585-.011-.876,0a.567.567,0,0,0-.554.6.557.557,0,0,0,.544.606,5.51,5.51,0,0,0,.875-.008,1.128,1.128,0,0,0,1.008-.979C176.887,162.234,176.866,162.2,176.678,162.2Zm0,0c-.27-.006-.539,0-.809,0-.293,0-.585-.011-.876,0a.567.567,0,0,0-.554.6.557.557,0,0,0,.544.606,5.51,5.51,0,0,0,.875-.008,1.128,1.128,0,0,0,1.008-.979C176.887,162.234,176.866,162.2,176.678,162.2Zm-17.019-.623c0-.169,0-.338,0-.506a1.346,1.346,0,0,0-2.691-.051,10.109,10.109,0,0,0,0,1.111,1.347,1.347,0,0,0,2.692-.049C159.662,161.912,159.658,161.744,159.658,161.576Zm0,0c0-.169,0-.338,0-.506a1.346,1.346,0,0,0-2.691-.051,10.109,10.109,0,0,0,0,1.111,1.347,1.347,0,0,0,2.692-.049C159.662,161.912,159.658,161.744,159.658,161.576Zm0,0c0-.169,0-.338,0-.506a1.346,1.346,0,0,0-2.691-.051,10.109,10.109,0,0,0,0,1.111,1.347,1.347,0,0,0,2.692-.049C159.662,161.912,159.658,161.744,159.658,161.576Z" transform="translate(-142.948 -136.893)" fill="#fff"/>
        <path id="Path_73" data-name="Path 73" d="M660.816,551.24a1.128,1.128,0,0,1-1.008.979,5.508,5.508,0,0,1-.875.008.557.557,0,0,1-.544-.606.567.567,0,0,1,.554-.6c.291-.016.584,0,.876,0,.27,0,.539,0,.809,0C660.816,551.022,660.837,551.054,660.816,551.24Z" transform="translate(-626.898 -525.713)" fill="#fff"/>
        <path id="Path_74" data-name="Path 74" d="M374.86,513.211a1.347,1.347,0,0,1-2.692.049,10.1,10.1,0,0,1,0-1.111,1.346,1.346,0,0,1,2.691.051c.006.169,0,.338,0,.506S374.864,513.042,374.86,513.211Z" transform="translate(-358.15 -488.024)" fill="#fff"/>
        <path id="Path_75" data-name="Path 75" d="M731.5,458.79c0,.152-.1.218-.24.225-.045,0-.09,0-.135,0-.224,0-.321-.158-.236-.374a.1.1,0,0,1,.1-.076,1.807,1.807,0,0,1,.3,0A.217.217,0,0,1,731.5,458.79Z" transform="translate(-694.937 -438.907)" fill="#fff"/>
        <path id="Path_76" data-name="Path 76" d="M731.065,448.05c.011-.06.034-.107.1-.11a2.617,2.617,0,0,1,.3,0,.166.166,0,0,1,.165.173.174.174,0,0,1-.18.193c-.044,0-.089,0-.132,0C731.078,448.313,731.024,448.255,731.065,448.05Z" transform="translate(-695.123 -428.934)" fill="#fff"/>
        <path id="Path_77" data-name="Path 77" d="M827.254,447.943c-.068.145-.2.159-.339.155-.234,0-.249-.017-.243-.277.006-.218.032-.245.255-.239C827.2,447.589,827.346,447.749,827.254,447.943Z" transform="translate(-784.899 -428.6)" fill="#fff"/>
        <path id="Path_78" data-name="Path 78" d="M755.07,484.63a.59.59,0,0,1-.4,0,1.679,1.679,0,0,1,.2-.619A1.394,1.394,0,0,1,755.07,484.63Z" transform="translate(-717.298 -462.807)" fill="#fff"/>
        <path id="Path_79" data-name="Path 79" d="M757.388,449.932a.769.769,0,0,1-.415,0,2.227,2.227,0,0,1,.212-.661A2.485,2.485,0,0,1,757.388,449.932Z" transform="translate(-719.459 -430.187)" fill="#fff"/>
        <path id="Path_80" data-name="Path 80" d="M660.816,551.24a1.128,1.128,0,0,1-1.008.979,5.508,5.508,0,0,1-.875.008.557.557,0,0,1-.544-.606.567.567,0,0,1,.554-.6c.291-.016.584,0,.876,0,.27,0,.539,0,.809,0C660.816,551.022,660.837,551.054,660.816,551.24Z" transform="translate(-626.898 -525.713)" fill="#fff"/>
        <path id="Path_81" data-name="Path 81" d="M374.86,513.211a1.347,1.347,0,0,1-2.692.049,10.1,10.1,0,0,1,0-1.111,1.346,1.346,0,0,1,2.691.051c.006.169,0,.338,0,.506S374.864,513.042,374.86,513.211Z" transform="translate(-358.15 -488.024)" fill="#fff"/>
        <path id="Path_82" data-name="Path 82" d="M731.5,458.79c0,.152-.1.218-.24.225-.045,0-.09,0-.135,0-.224,0-.321-.158-.236-.374a.1.1,0,0,1,.1-.076,1.807,1.807,0,0,1,.3,0A.217.217,0,0,1,731.5,458.79Z" transform="translate(-694.937 -438.907)" fill="#fff"/>
        <path id="Path_83" data-name="Path 83" d="M731.625,448.116a.174.174,0,0,1-.18.193c-.044,0-.089,0-.132,0-.235,0-.288-.053-.248-.259.011-.06.034-.107.1-.11a2.617,2.617,0,0,1,.3,0A.166.166,0,0,1,731.625,448.116Z" transform="translate(-695.123 -428.934)" fill="#fff"/>
        <path id="Path_84" data-name="Path 84" d="M827.254,447.943c-.068.145-.2.159-.339.155-.234,0-.249-.017-.243-.277.006-.218.032-.245.255-.239C827.2,447.589,827.346,447.749,827.254,447.943Z" transform="translate(-784.899 -428.6)" fill="#fff"/>
        <path id="Path_85" data-name="Path 85" d="M755.07,484.63a.59.59,0,0,1-.4,0,1.679,1.679,0,0,1,.2-.619A1.394,1.394,0,0,1,755.07,484.63Z" transform="translate(-717.298 -462.807)" fill="#fff"/>
        <path id="Path_86" data-name="Path 86" d="M757.388,449.932a.769.769,0,0,1-.415,0,2.227,2.227,0,0,1,.212-.661A2.485,2.485,0,0,1,757.388,449.932Z" transform="translate(-719.459 -430.187)" fill="#fff"/>
      </g>
      <rect id="Rectangle_82" data-name="Rectangle 82" width="39.712" height="13.258" transform="translate(147.35 151.624)" fill="#fff"/>
    </g>
    <path id="Path_87" data-name="Path 87" d="M-538.023,239.356H-553.97c-1.366,0-2.731,0-4.1,0a1.479,1.479,0,0,1-1.5-1.363,1.471,1.471,0,0,1,1.246-1.58,1.634,1.634,0,0,1,.286-.017h20.013c-.06-.063-.1-.1-.134-.142q-3.1-3.1-6.2-6.2a1.466,1.466,0,0,1,.637-2.462,1.393,1.393,0,0,1,1.44.365q1.564,1.547,3.115,3.107l3.732,3.73q1.015,1.014,2.031,2.027a1.475,1.475,0,0,1-.006,2.115q-4.386,4.384-8.769,8.771a1.533,1.533,0,0,1-1.928.283,1.471,1.471,0,0,1-.267-2.277c.835-.848,1.682-1.684,2.523-2.526l3.72-3.719C-538.1,239.442-538.077,239.414-538.023,239.356Z" transform="translate(570.521 -213.607)" fill="#50B8E7"/>
  </svg>
  