<svg xmlns="http://www.w3.org/2000/svg" xmlns:xlink="http://www.w3.org/1999/xlink" version="1.1" id="Layer_1" x="0px" y="0px" viewBox="0 0 1080 1080" style="enable-background:new 0 0 1080 1080;" xml:space="preserve">
    <style type="text/css">
        .st0{stroke:#000000;stroke-width:2;}
        .st1{fill:none;}
    </style>
    <g id="srDw3O.tif">
        <g>
            <path d="M357.9,894.9c40.4,0,79.9-0.3,119.3,0.1c42.4,0.4,84.9,1,127.3,2.1c34.6,0.9,69.2,2.4,103.7,4.3    c37.5,2.1,75.1,4.8,112.5,8.5c28.8,2.8,57.5,6.4,86.2,9c23.7,2.1,47.5,2,70.9-3.5c36-8.4,59.4-30.5,71.1-65.1    c8.1-23.8,12.5-48.4,15.7-73.3c3.8-29.6,5.2-59.3,5.6-89.2c0.6-42.8-0.7-85.6-0.3-128.4c0.2-18.8,2.7-95,3.9-113.8    c1.2-19.1,2.2-38.3-1.6-57.3c-2.2-10.9-6.9-20.5-14.9-28.3c-9.2-9-20-10-30.3-2.3c-12.7,9.5-18.9,23.2-22.5,38.2    c-1,4.2-1.1,8.4-1.1,12.7c0,59.9,0.3,177.3-0.1,237.1c-0.3,40.6-2.6,81.2-7.1,121.6c-1.8,16-2.5,32.2-6.5,47.9    c-5.8,23-18.4,33.2-42,35.5c-18.7,1.8-37.2-0.2-55.8-1.8c-25.4-2.1-50.8-5.3-76.2-8c-20.1-2.1-40.2-4.5-60.4-5.9    c-18.4-1.3-36.9-1.1-55.4,0.2c-16.6,1.2-33.3,2.5-49.9,3.5c-17.4,1.1-34.8,2-52.2,1.1c-28.7-1.4-57.4-3.3-86.1-4.9    c-15.4-0.9-30.8-1.7-46.2-2.4c-41.1-1.9-82.3-3.6-123.4-4.7c-32.7-0.8-65.4,0.1-98-0.9c-30.4-0.9-60.6-3-89.8-12.5    c-43.5-14.2-68.6-44-75.3-89c-4.3-28.8-2.5-57.7-1.6-86.7c0.6-17.7,1.5-35.5,2.5-53.2c1.6-27.3,3.3-54.5,5-81.8    c1.8-28.4,0.8-56.7-1.3-85.1c-2.4-31.3-5.4-62.6-2.4-94.1c0.9-9.5,2.5-19,4.9-28.3c1.2-4.8,2.8-4.3,5.8-1.5    c13.5,12.2,25.4,25.9,36.1,40.5c27.4,37.4,61.2,68.4,96.6,98c32,26.8,65.5,51.7,96.6,79.6c24.4,21.8,48,44.3,73.2,65.2    c22.4,18.6,45.7,36,71.8,49.5c33.9,17.6,67.6,17.4,101.7,0.6c24.2-11.9,45.9-27.7,66.6-44.8c20.7-17.1,41.2-34.3,61.6-51.7    c24.5-20.9,53.1-35.4,80.4-52c37.9-22.9,75.2-46.6,109.5-74.7c14.6-12,28.5-24.6,40.3-39.4c12.4-15.6,13.4-29.2,3.2-42.1    c-10.6-13.5-29.8-18.1-45.7-10.9c-18.6,8.4-35.5,19.8-50.3,33.6c-50.3,46.8-106.5,85.5-164.4,122.2c-37,23.4-71.3,50.4-104,79.5    c-6.9,6.1-14.6,11.3-22.8,15.6c-19.2,10.2-37.4,8.6-55-4.2c-20-14.5-39.1-30.2-57.7-46.4c-26.1-22.8-53.9-43.5-80.4-65.8    c-33.4-27.9-65.6-57.1-97-87.3c-34.1-32.7-67.2-66.4-100.1-100.3c-1.2-1.2-3.4-2.3-3-4.1c0.5-2,3-1.4,4.6-1.7    c22.4-3.7,45-6.2,67.6-8.1c42.5-3.5,85-4.8,127.6-5.6c21.1-0.4,42.2-1,63.3-1.8c41.1-1.6,82.3-3.8,123.4-5    c29.8-0.8,59.7-0.4,89.5-0.5c33.7-0.2,67.4,1.4,101.1,3.6c30.8,2,61.5,5.6,92.1,9c15.9,1.8,31.9,2,47.8,2.7    c23.9,1.1,47.8,2.4,71.2,8.2c16.7,4.1,28.2,13.4,33.9,29.8c3.5,9.9,7.8,19.5,13.1,28.5c1.5,2.4,3,4.8,4.8,7.1    c11.8,15.3,28.5,16,41.2,1.5c14.3-16.4,19.1-35.1,13.2-56.5c-7.4-26.8-24.3-45.7-47.9-59.3c-21.9-12.7-46.3-17.8-70.6-22.9    c-36-7.6-72.3-13-108.8-16.8c-26.3-2.7-52.7-4.5-79.1-5.8c-40.5-2.1-80.9-2.4-121.4-1.6c-44,0.8-87.9,2.9-131.9,5.8    c-31,2.1-61.9,4.4-92.9,6.9c-30.1,2.4-60,5.5-90.1,8.1c-23.2,2.1-46.5,1.5-69.7,1.4c-22.2-0.1-44.4-0.5-66.6,1.1    c-28.1,2.1-55.6,6.7-81.3,19.2c-35.5,17.4-56.9,45.5-64.8,84c-6.2,30.3-7,60.9-5.7,91.7c1,22.3,2.4,44.6,3.7,67    c1,16.9,1.4,33.7,0.9,50.6c-0.7,23.9-3.6,47.7-5.8,71.6c-1.6,17.7-3.5,35.3-4.7,53c-1.4,21.2-2.8,42.5-2.1,63.8    c1,31.5,4.3,62.6,14.4,92.7c15.9,47.7,47.8,79.7,94.4,97.5c25.1,9.6,51.2,14.4,77.8,17C247.4,897,303.2,893.8,357.9,894.9z"/>
        </g>
    </g>
    </svg>