<svg xmlns="http://www.w3.org/2000/svg" xmlns:xlink="http://www.w3.org/1999/xlink" version="1.1" id="Layer_1" x="0px" y="0px" viewBox="0 0 1080 1080" style="enable-background:new 0 0 1080 1080;" xml:space="preserve">
    <style type="text/css">
        ..st0Location{stroke:#000000;stroke-width:2;}
        .st1{fill:none;}
    </style>
    <g id="yMfyWo.tif">
        <g>
            <path class=".st0Location" d="M148.8,360.1c1.6-11.6,2.5-23.4,4.6-34.9c10-55.6,33.8-104.9,68-149.5c43.8-57.2,97.5-102.4,163-133    c41.7-19.5,85.3-32.1,131.3-36.3c60.8-5.6,118.7,4.1,173.1,32.3c32.8,17,62,39.3,90,63.3c30.6,26.2,59.8,54.1,87,83.9    c30,32.8,52.5,69.7,61,114.1c3.8,19.9,6.3,40.2,2.4,60.1c-4.6,23.9-2.7,48.2-6.7,72.1c-6.4,38.1-18,74.4-33.2,109.8    c-17.7,41.4-39.5,80.7-60.8,120.3c-22.3,41.6-44.1,83.6-67.9,124.4c-48.4,82.7-102.5,161.4-165.9,233.4    c-13.3,15.1-27,29.9-41.1,44.4c-5,5.1-10.3,9.3-17.3,10.9c-2.5,0-5,0-7.5,0c-10.4-2.6-16-10.1-21.2-18.9    c-33.1-56.6-71.5-109.6-109.8-162.7c-45-62.3-90.5-124.3-131.7-189.3c-33.3-52.7-63.5-107-85.8-165.5    c-12.7-33.4-22.7-67.6-27.7-103.1c-1.5-10.6-2.6-21.2-3.8-31.8C148.8,389.4,148.8,374.7,148.8,360.1z M194,397.8    c-0.3,10,0.8,23.4,2.6,36.6c5.2,40.2,17.9,78,35.5,114.4c24.1,50.1,55.6,95.5,87.6,140.6c47.1,66.5,94.6,132.8,140.3,200.3    c25.9,38.3,51,77.1,74.7,116.7c2.2,3.7,3.5,3.9,6.4,0.6c8.4-9.7,17.3-19,25.7-28.7c56.2-65,105.2-135.1,148.2-209.3    c35.7-61.6,69.8-124,102.9-187c22.1-42.1,40.8-85.6,51.4-132.3c7.1-31.3,10.1-62.9,6.7-95c-0.5-4.9,0.7-9.6,3.6-13.7    c1.3-1.8,2-3.5,1.8-5.9c-1-15-4-29.7-8.6-44c-12.9-39.4-36-72.4-64.7-101.5c-51-51.8-111.7-88.2-180.2-111.8    c-37.6-13-76.2-20.9-116.4-18.6c-42,2.4-81.4,13.8-118.9,32.3c-49.9,24.6-91.9,59.2-126.2,103C220.1,253.1,194.4,319.2,194,397.8z    "/>
            <path class=".st0Location" d="M677.4,491.8c-5,17.5-12.2,35.3-22.4,51.8c-23.7,38.6-59.1,55-103.3,51.4c-56.3-4.6-103.6-28.8-141.3-70.9    c-25.1-28.1-32.4-61.9-26.2-98.4c8.6-50.2,34.9-89.6,75.6-119.9c11.6-8.6,22.1-18.6,35-25.3c30.3-15.7,62.2-21.1,95.4-12.5    c46.4,12.1,75.7,42.6,89.5,87.9c9.4,31,9.5,62.9,5.6,94.9C683.8,464.4,681.3,477.7,677.4,491.8z M524.9,541    c6.7,1.9,13.5,3.3,20.4,4.3c34.7,5,61.6-10.2,75.2-42.1c10.5-24.6,15.2-50.4,17.2-76.8c1.6-21.7,1-43-7.7-63.6    c-20.7-48.6-77.4-65.1-120.4-34.6c-7.7,5.5-14.6,12.1-22.3,17.5c-29.6,21.1-48,49.4-53.9,85.3c-4.1,24.8,0.7,47.8,18.3,66.7    C471.7,519.4,496.9,532.6,524.9,541z"/>
        </g>
    </g>
    </svg>