<svg xmlns="http://www.w3.org/2000/svg" xmlns:xlink="http://www.w3.org/1999/xlink" version="1.1" id="Layer_1" x="0px" y="0px" viewBox="0 0 1080 1080" style="enable-background:new 0 0 1080 1080;" xml:space="preserve">
    <style type="text/css">
        .st0{stroke:#000000;stroke-width:2;}
        .st1{fill:none;}
    </style>
    <g id="qDjs59.tif">
        <g>
            <path class="st1" d="M477.6,759.4c-0.1,0-0.3,0-0.4,0c0-73.1-0.3-97.7,0.3-170.7c0.1-12.6-36.6-12-45.2-12.3    c-9.3-0.3-14.7,1.4-13.7,12.5c1.2,13,1.4,26.1,1.5,39.2c1,128.9,1.9,229.2,2.8,358c0,1.9-0.1,3.9,0.1,5.8    c0.6,6.4,43.4,17.3,49.9,15.6c8.1-2,4.5-9.6,4.5-14.5C477.7,921.8,477.6,830.6,477.6,759.4z"/>
            <path class="st1" d="M557.9,62.5c-58,2.6-115.8,7.8-173.8,8.1c-31.5,0.2-62.9,1.1-94.3,4.9c-83.3,10-134.2,61.8-139,143.2    c-4.7,79.2-1.9,158.4-1.9,237.6c0,37.1,19,57.2,55.7,63.5c11,1.9,22.1,2.3,33.3,2.6c37.7,0.9,75.1-5.5,112.8-5.2    c79.6,0.7,159.2,0.4,238.8,0.4c15.2,0,15.4-0.1,15.1-15.5c-0.9-55-0.2-110-1.6-165c-1.5-57.6-0.7-115.3,0.8-173    c0.7-26.3,8.9-48.7,24.9-69c9.8-12.4,21.9-22.5,33.3-33.9C626.8,58.6,592.3,61,557.9,62.5z"/>
            <path d="M993.6,479.9c-0.1-1.4-0.2-2.7-0.2-4l-27.3-355.8c-0.1-1.6-0.7-3.1-1.7-4.3c0,0,0,0,0,0c-24.6-32.7-54.8-59.1-91.4-78    c-39.3-20.3-81.5-26.5-125-27.6C690.1,8.7,632,6.6,574,5.8C466.7,4.2,359.3,2.6,252.7,16.9c-76,10.1-129,50.2-154.2,124.3    C89.3,168,85.9,195.8,85,223.9c-1.2,38.5,1.7,76.8,3.8,115.2c2.3,40.8-0.7,81.5-2.8,122.2c-1.4,27.8,0.3,55.3,4.3,82.7    c2.5,17.2,12.8,26.3,29.2,29.8c17,3.6,34.1,5.8,51.5,5.1c58.4-2.6,116.9-2.7,175.3-2.6c9.9,0,13.3,2.8,13.3,13.1    c0.3,66.5,1.2,84.5,1.9,151.1c0.8,80.4-0.8,160.8,2.4,241.1c2.2,55.8,24.3,84,74.3,92.6c25,4.3,73.7-5.1,85-27.8    c3.8-7.6,6.3-15.7,8.3-23.9c5.2-21.1,6-42.7,6.1-64.1c0.5-68.1,0.2-136.2,0.2-193.3c-2.6-81.4-0.9-103.3-1.9-173.6    c-0.2-11.6,3-15.2,14.8-15c64.2,1.1,98.4,1.4,162.7,1.9c48.1,0.4,96.2-0.9,144.1,3.2c32.7,2.8,65.2,2.6,97.7-2.6    c27.2-4.4,34.3-12,38.3-39.2C996.6,519.6,994.8,499.8,993.6,479.9z M472.9,1007.5c-6.5,1.6-49.3-9.2-49.9-15.6    c-0.2-1.9-0.1-3.8-0.1-5.8c-0.9-128.9-1.8-229.2-2.8-358c-0.1-13.1-0.4-26.2-1.5-39.2c-1-11.1,4.5-12.8,13.7-12.5    c8.7,0.3,45.3-0.4,45.2,12.3c-0.5,73.1-0.3,97.7-0.3,170.7c0.1,0,0.3,0,0.4,0c0,71.2,0.1,162.3-0.2,233.5    C477.4,997.9,481,1005.5,472.9,1007.5z M628.6,95.2c-16.1,20.3-24.3,42.7-24.9,69c-1.5,57.7-2.3,115.4-0.8,173    c1.5,55,0.7,110,1.6,165c0.3,15.5,0.1,15.5-15.1,15.5c-79.6-0.1-159.2,0.3-238.8-0.4c-37.8-0.3-75.1,6.1-112.8,5.2    c-11.2-0.3-22.2-0.7-33.3-2.6c-36.6-6.3-55.7-26.4-55.7-63.5c0.1-79.2-2.7-158.5,1.9-237.6c4.8-81.4,55.7-133.3,139-143.2    c31.4-3.8,62.8-4.7,94.3-4.9c58.1-0.3,115.9-5.5,173.8-8.1c34.4-1.5,68.9-4,104-1.3C650.5,72.7,638.5,82.8,628.6,95.2z     M935.7,480.5c-3.7,25.7-25.2,39.7-54.4,41.6c-23.9,1.5-47.6-0.2-71.4-2.1c-43-3.5-86.1-1.6-129.2-2.2    c-15.5-0.2-15.6-0.2-15.7-15.2c-0.6-89.2-1.4-178.5-1.7-267.7c-0.1-23.5,3.3-46.8,10.6-69.3c11.8-36.9,37.3-62.7,67.2-85.6    c12.5-9.6,23.4-10.7,37.9-7c30.9,7.7,79.7,25.3,112.8,44.3c10.8,6.2,17.9,17.4,18.8,29.8l25.5,330    C936.1,478.2,935.9,479.3,935.7,480.5z"/>
        </g>
    </g>
    </svg>