<svg xmlns="http://www.w3.org/2000/svg" xmlns:xlink="http://www.w3.org/1999/xlink" version="1.1" id="Layer_1" x="0px" y="0px" viewBox="0 0 1080 1080" style="enable-background:new 0 0 1080 1080;" xml:space="preserve">
    <style type="text/css">
        .st0{stroke:#000000;stroke-width:2;}
        .st1{fill:none;}
    </style>
    <g id="l50UVg.tif">
        <g>
            <path d="M391.5,1075.2c-39.4,0-78.8,0-118.1,0c-11,0-19.7-4.2-25.1-14.3c-9.3-17.6,0.2-43.1,25.9-42.9c63.5,0.4,70.5,0.1,134,0.1    c15,0,15,0,15-15.1c0-109.9,0-219.7,0.1-329.6c0-5.4-1.4-7.7-6.8-8.6c-9.1-1.5-18.1-3.7-27.1-5.6c-99-21.2-198-42.4-297.1-63.6    c-5.4-1.2-10.4-3.1-14.6-7c-9.6-8.9-12.1-20.1-7-32.4c17.9-42.9,34.4-86.2,38.5-132.9c1.8-20,10.6-31.3,30.5-35.4    c9.8-2,18.4-2.2,27.2,2.4c6.5,3.4,13.1,6.6,19.9,9.5c48.6,20.7,100.1,28.5,152.1,33.8c22.5,2.3,45,4,67.5,6.1    c7.8,0.7,7.9,0.9,7.7-6.9c-1-31.1-2.2-62.1-3.3-93.1c-0.2-7.2-0.6-7.4-7.9-6.9c-28.5,1.8-57.1,4.1-85.7,5.1    c-26.5,1-53.1,0.8-79.6-1.8c-30.2-3-58.8-10.5-85.3-25.7c-35.5-20.5-66.7-47.2-100.9-69.6c-14.4-9.5-15.2-30.9-3.3-42.2    c15-14.2,30-28.6,45.4-42.4c23.3-20.9,48.4-39,79.7-46.3c32.2-7.6,64.9-8.2,97.7-6.8c23.9,1,47.7,3.2,71.6,3.8    c28.2,0.7,56.5,0.2,84.8,0.4c4.4,0,5.9-1.1,4.5-5.5c-1.1-3.5-0.8-7-0.1-10.6c3.2-15.7,8.8-30.3,17-44C463,23.4,483.3,9,510.8,6.5    c32.4-2.9,64.8-2,96.8,3.4c29.7,5,52.3,21.5,66.8,48.3c6.9,12.7,11.3,26.3,14.1,40.4c1.7,8.4,1.6,8.4,10.4,8.4    c67.5,0,134.9,0,202.4,0c7.1,0,14.1,0.5,20,4.7c2.8,2,5.1,2.1,8.3,1.3c15.5-4.2,35.5,4.2,36.2,25c0.1,3.2,0.4,6.4,0.5,9.6    c0.2,23.2,2.4,46.2,3.2,69.4c1.1,28.8,1.3,57.6-5.8,85.9c-3.3,13.4-11.4,21.1-24.7,24c-19.6,4.3-39.4,6.4-59.4,6.7    c-34.5,0.6-68.9-1.5-103.3-3.2c-29.5-1.5-59.1-0.6-88.7-0.6c-5.7,0-7.4,1.7-7.4,7.4c0.2,39,0.1,78,0.1,117    c0,5.7-0.5,11.3-2.8,16.6c-1.4,3.1-0.8,4.1,2.7,4.7c24.2,4,48.5,6.5,72.8,8.8c30.5,2.9,61,6,91.3,11.4    c45.3,8.1,84.5,27.3,116.6,60.8c28.4,29.7,52.2,62.9,75.1,96.7c4.6,6.8,5,14.4,1.7,22.1c-3.9,9.2-10.7,15.3-20,18.7    c-12.9,4.7-26.1,8.7-39.3,12.4c-41.5,11.6-83.6,19.1-126.6,21.8c-26.9,1.7-53.8,1.8-80.7,0.4c-27.6-1.4-55.2-4.4-82.5-8.7    c-5.4-0.9-6.2,1-6.2,5.8c-0.2,31.6-0.2,63.3-0.6,94.9c-0.7,63.5-0.3,127-0.6,190.5c0,5.6,1.9,7,7.2,6.9c34.7-0.2,1.5-0.1,36.2-0.1    c32.8,0,65.6-0.1,98.4,0.1c18.1,0.1,30.5,15.4,27.3,33.1c-2.8,15.8-12.7,23.9-29.3,23.9c-111.7,0-155.6,0-267.4,0    C480.8,1075.2,464.4,1075.2,391.5,1075.2z M957.5,653.1c7.3-1.9,7.3-2,2.6-7.9c-23.1-29.1-49.7-54-83.8-70.1    c-26.4-12.5-54.5-19.6-83.2-24.5C738.6,541.3,684,533,629.2,525c-50.1-7.3-100.1-14.8-150.4-20.4c-30.8-3.4-61.8-5.5-92.7-8.3    c-60.4-5.5-120.6-11.7-179.1-29.2c-13.4-4-26.5-8.5-39.4-13.9c-3.7-1.5-5.3-1.2-6.1,3.1c-5.4,29.1-13.8,57.5-24.2,85.2    c-1.6,4.3-0.6,5.5,3.5,6.4c133.1,28.4,266.1,57,399.2,85.5c48.9,10.5,97.9,20.8,147.4,28.3c26.4,4,53,6.9,79.6,8.6    c14.3,0.9,28.6,0.8,36.6,1C860,671.9,909.1,665.6,957.5,653.1z M471.2,163.8c-49.3-0.3-98.6-4.1-147.9-3    c-47.2,1.1-93.9,5.6-138.9,21.3c-22,7.7-42.8,17.7-62.3,30.4c-3.7,2.4-5,3.9-0.3,6.9c20,13.1,39.2,27.5,60.3,38.9    c18.4,9.9,37.9,15.9,58.8,15.9c60.1,0,120.2,0.4,180.3-0.3c88.7-1.1,177.4-0.5,266.2-1c34.3-0.2,68.6-0.5,102.8-0.9    c18.7-0.2,37.2,1.8,55.8,2.9c11,0.7,21.8,0,32.5-2.6c20.5-4.9,29-19.8,32.1-39.1c3-18.4,1.7-36.8,0.8-55.2c0-0.7-0.2-1.5-0.3-2.2    c-1.4-11.8-1.4-11.8-13.7-11.8c-72.9,0-145.8,0-218.7,0c0,0,0-0.1,0-0.1C609.5,163.9,540.3,164.2,471.2,163.8z M480.2,1006.4    c0,11.7,0,11.7,12,11.7c41.6,0,83.2,0,124.9,0c7.4,0,7.4,0,7.4-7.5c0.2-67.4-0.1-134.9,0.6-202.3c0.3-30.9,0.1-61.8,0.7-92.6    c0.1-5-1.8-6.8-6.4-7.8c-44.2-9.2-88.4-18.6-132.5-28c-6.4-1.3-6.6-1.2-6.6,5.5c0,54.4,0,108.9,0,163.3    C480.2,901.3,480.2,953.8,480.2,1006.4z M474.2,330.1c-4.4,0-6.5,1-6.3,5.9c1.3,35.2,2.4,70.4,3.5,105.6c0.1,3.6,1.8,4.9,5.1,5.4    c42.1,5.6,84.3,11.3,126.4,17c6,0.8,11.9,1.7,17.9,2.4c1.6,0.2,3.2,0.8,3.1-2.2c-1.1-42-0.2-84-0.5-126c-0.1-8.2,0-8.2-8.5-8.2    c-23.2,0-46.3,0-69.5,0c0,0.1,0,0.1,0,0.2C521.6,330.2,497.9,330.3,474.2,330.1z M625.1,107c7.9,0,8.1-0.4,5.7-8.1    c-6.9-21.8-21.5-32.8-45.8-34.4c-18.6-1.3-37.2-1.7-55.8-0.2c-26.2,2.2-36.1,16.1-41.9,38.7c-1.2,4.5,2,3.9,4.6,3.9    c22.6,0,45.2,0,67.7,0c0,0,0,0,0,0.1C581.5,107,603.3,107,625.1,107z"/>
        </g>
    </g>
    </svg>