<svg width="120" height="120" viewBox="0 0 152 109" fill="none" xmlns="http://www.w3.org/2000/svg">
<g clip-path="url(#clip0_896_19331)">
<path d="M46.4603 1L64.6792 10.565L84.2646 22.4073L122.069 42.9036H124.346L150.764 54.7459L149.853 55.6569H147.576L139.832 53.835L131.178 49.7357L122.069 45.181L119.792 44.7255L81.9872 27.4175L46.9157 6.9212L4.55664 47.9138L46.4603 1Z" fill="#BEE8FF"/>
<path d="M33.707 98.016H35.3724L39.9271 97.561H45.8483L58.6015 98.016H69.9884H76.365L80.4643 97.561H82.2862L82.2865 101.66L82.7419 105.759L34.0062 104.393C34.307 102.286 34.2098 100.141 33.7199 98.07L33.707 98.016Z" fill="#BEE8FF"/>
<path d="M95.6523 68.41V66.5881L102.029 68.8655V71.1429V72.5093V73.8757L102.484 79.7969L95.6523 79.3414L96.5633 73.4202L95.6523 68.41Z" fill="#BEE8FF"/>
<path d="M105.216 70.2321L104.761 67.9547L107.038 68.4102H108.405L108.86 69.7766V71.143V72.9649V74.7868L109.315 78.8861L105.216 79.3416L105.672 76.1532V72.9649L105.216 70.2321Z" fill="#BEE8FF"/>
<path d="M59.2115 60.2115C59.2115 68.4101 59.3026 85.1715 59.667 86.629M60.5779 60.2115C64.9808 59.4524 74.4243 58.2985 76.975 59.756M77.8859 61.1225C77.7341 68.7138 77.5215 84.2606 77.8859 85.7181M60.5779 87.0846C65.8918 87.2364 76.7017 87.449 77.4304 87.0846M68.321 61.1225C68.0173 68.7138 67.5922 84.0784 68.321 84.8072M61.4888 68.8656C66.0436 68.7138 75.3353 68.319 76.064 67.9547M30.9721 97.105C47.2173 97.105 79.9811 97.105 81.0742 97.105M33.7049 104.393C59.9905 105.236 111.549 106.626 122.522 105.96M124.344 105.759C124.02 105.84 123.401 105.907 122.522 105.96M125.255 106.214C131.632 105.455 144.385 103.846 144.385 103.482M144.841 96.194C144.537 98.32 144.021 102.662 144.385 103.026M126.166 98.927C128.899 98.168 136.278 96.741 143.93 97.105M124.344 95.739C129.051 95.283 139.193 94.372 142.108 94.372M126.622 100.749C126.166 102.267 125.346 105.304 125.711 105.304M122.067 101.204C122.371 102.705 122.887 105.756 122.522 105.96M83.8071 98.927C96.5604 99.534 122.158 100.476 122.522 99.382C122.887 98.289 122.674 97.409 122.522 97.105M84.2626 95.283C93.2202 94.567 112.593 93.383 118.423 94.372M95.6494 67.9547C95.1939 71.5984 94.4652 79.0682 95.1939 79.797M95.6494 67.0437C96.5604 67.0437 102.482 67.0437 102.482 68.8656C102.482 70.3231 102.482 76.7605 102.482 79.797M105.214 70.6875C105.214 73.2685 105.214 78.6127 105.214 79.3415M105.214 68.8656C106.429 68.7138 108.949 68.5923 109.314 69.3211C109.678 70.0498 109.465 76.0014 109.314 78.886M110.68 44.7255C111.136 54.4423 111.773 74.7868 110.68 78.4306M86.5399 80.7079C96.2567 80.4043 116.328 79.8881 118.879 80.2525M86.0845 81.1634C86.2363 84.1999 86.4488 90.637 86.0845 92.095M86.5399 80.2525C85.7808 79.9488 84.2626 79.5237 84.2626 80.2525C84.2626 81.1634 83.3516 91.639 83.8071 92.55M89.2728 82.0743C89.1209 84.959 88.9084 90.911 89.2728 91.639M91.5501 81.6189C91.5501 84.8072 91.6412 91.275 92.0056 91.639M93.8275 81.6189C93.6757 84.8072 93.4631 91.275 93.8275 91.639M96.1049 82.0743C96.2567 85.2627 96.4693 91.73 96.1049 92.095M98.8377 81.6189C98.5341 85.1108 98.109 92.186 98.8377 92.55M100.66 82.0743C100.963 85.1108 101.479 91.366 101.115 92.095M102.937 82.0743C102.937 85.5663 103.028 92.641 103.392 93.006M105.214 82.0743C105.366 84.959 105.579 91.002 105.214 92.095M107.947 81.6189C107.795 84.6554 107.583 91.002 107.947 92.095M110.225 82.5298C110.225 85.5663 110.225 91.913 110.225 93.006M113.413 81.6189C112.957 85.2627 112.229 92.641 112.957 93.006M114.779 82.9853C114.476 86.1736 113.959 92.55 114.324 92.55M117.057 81.6189C117.36 84.5035 117.877 90.546 117.512 91.639M138.008 55.6568C138.16 63.2481 138.555 78.7038 138.919 79.797M127.533 69.3211C129.051 69.4729 132.087 70.0498 132.087 71.143C132.087 72.5094 131.632 78.4306 132.087 78.4306M127.077 69.7765C126.622 72.6612 125.893 78.5217 126.622 78.886M127.533 72.9649C128.595 72.6612 130.812 72.2361 131.176 72.9649M129.81 73.4203C129.506 75.2422 129.081 78.9771 129.81 79.3415M124.344 81.1634C129.81 80.7079 140.832 81.2545 143.019 81.6189M126.166 81.6189C126.318 85.8181 126.713 94.339 127.077 94.828M127.988 82.0743C128.292 85.5663 128.808 92.732 128.444 93.461M130.721 82.0743C131.176 82.0743 130.265 92.55 131.176 93.461M132.998 82.9853C133.202 86.3254 133.685 93.097 133.987 93.461M135.731 82.0743C135.883 85.5663 136.278 92.641 136.642 93.006M138.464 82.5298C138.616 86.0218 139.011 93.006 139.375 93.006M141.197 82.5298C141.045 85.87 140.924 92.732 141.652 93.461M142.563 83.8962C143.019 86.6291 143.747 92.277 143.019 93.006M142.563 58.8452C142.715 64.4627 143.11 75.971 143.474 77.0641M121.611 46.5474C129.354 50.1912 145.934 58.2986 150.306 56.1123M122.522 48.3693L122.978 93.917M118.879 46.5474L120.245 94.372M126.622 49.7357C126.773 50.6466 126.804 52.6507 125.711 53.3795C124.618 54.1082 124.648 55.505 124.8 56.1123M126.622 53.835C128.14 54.4423 131.267 55.5658 131.632 55.2014M131.632 52.0131C131.784 53.0758 131.996 55.3836 131.632 56.1123M129.81 51.1021V54.7459M127.533 51.1021C127.381 52.4685 127.168 55.2014 127.533 55.2014M24.5954 104.848C27.3283 105 32.8851 105.212 33.2495 104.848M8.19838 104.848C11.5385 104.848 18.3099 104.757 18.6743 104.393C19.1298 103.937 23.6845 105.759 24.14 103.937C24.5044 102.48 24.2918 102.115 24.14 102.115M3.18816 96.65C3.18816 98.348 3.28956 101.416 3.64364 103.168M4.09911 104.393C3.91402 104.207 3.76418 103.764 3.64364 103.168M3.64364 103.168C4.70641 103.168 6.92305 103.168 7.28743 103.168M2.27721 92.55C2.12539 93.613 2.09503 95.739 3.18816 95.739C4.55459 95.739 12.298 95.283 13.6644 95.739M5.46591 93.461C10.0207 93.461 19.2212 93.37 19.5856 93.006M21.4075 92.55C22.3185 92.55 31.8827 92.55 33.2495 92.55M19.1301 94.828C22.1666 94.979 28.4218 95.192 29.1506 94.828C30.6078 95.192 33.0979 95.283 34.1608 95.283M14.1199 96.65C17.7637 96.92 25.5068 97.208 27.3287 96.194M11.8425 99.382C15.6379 99.534 23.4109 99.656 24.14 98.927M10.0207 101.204C13.8163 101.66 21.5897 102.388 22.3185 101.66M23.2294 101.66C24.2922 101.66 26.3266 101.386 25.9622 100.293M24.5954 99.382C25.8102 99.534 28.2396 99.565 28.2396 98.471M26.8732 97.105C27.7841 97.177 29.6971 97.095 30.0615 96.194M5.01043 66.1328C5.01043 70.8393 5.10153 80.3435 5.46591 80.7079M14.5754 67.4992C14.879 71.2948 15.3952 79.3415 15.0309 81.1634M19.5856 71.143C21.863 70.8393 27.2376 70.3231 30.517 70.6875M29.606 71.143C29.3024 74.9386 28.8773 82.6209 29.606 82.9853M24.5954 71.143C24.2917 75.0904 24.5954 82.9853 24.5954 82.9853M20.0411 71.5984C20.1929 74.1795 20.4055 79.6148 20.0411 80.7079M22.7739 83.8962C25.2032 83.8962 30.1529 83.7141 30.517 82.9853M4.55496 82.9853C8.65423 82.6755 17.3082 82.1033 19.1301 82.2929M5.01043 83.8962C4.55496 86.6291 3.9173 92.186 5.01043 92.55M6.37686 83.8962C6.07333 86.4773 5.6484 91.639 6.37686 91.639M8.65423 83.4408C8.50228 86.0218 8.19838 91.275 8.19838 91.639M10.2312 83.8962C9.9977 86.3254 9.6708 91.275 10.2312 91.639M11.8425 83.4408C11.5389 86.0218 11.1138 91.275 11.8425 91.639M13.6644 83.8962C13.8163 86.3254 14.0288 91.275 13.6644 91.639M15.0309 83.8962C15.1827 86.4773 15.3952 91.73 15.0309 92.095M16.8528 83.4408C16.7009 86.0218 16.4884 91.275 16.8528 91.639M18.2192 82.9853C18.2189 85.87 18.3096 91.73 18.6743 92.095M20.4966 82.0743C20.4966 82.2929 20.952 92.052 20.4966 93.461M48.7359 9.19849C68.1693 20.889 109.313 44.5433 118.423 45.6364" stroke="black"/>
<path d="M82.4422 29.2392L82.8976 105.303M122.524 46.5472L122.979 93.917M144.842 58.3895L145.298 93.461M1.82324 65.2216L2.27872 91.184M34.6174 60.2114L35.0729 95.738M34.6174 34.7049V58.3895M77.8874 30.6056V50.6465M59.6685 51.5574H76.0655M59.6685 26.9618V50.191M60.5794 26.5063C62.4013 25.899 66.4095 24.6844 67.867 24.6844M69.2334 25.5954C71.5108 26.6582 76.2477 29.1481 76.9765 30.6056M68.7779 26.9618C68.6261 34.2494 68.4136 49.0068 68.7779 49.7355M62.4013 34.7049C66.3487 34.0976 74.608 33.0652 76.0655 33.7939M47.3707 30.6056C47.067 37.2859 46.6419 51.0109 47.3707 52.4684M40.0831 38.8041C43.4232 37.5895 50.559 35.3425 52.3809 36.0713M54.2028 27.8728V55.6567M39.6276 56.1122L55.5692 54.7457M38.7166 40.1706V55.6567M38.7166 37.8932C40.994 35.464 45.822 30.5145 46.9152 30.1501M40.0831 62.0333C43.1196 61.5779 50.0124 60.9402 53.2918 62.0333M54.2028 61.1224V86.1735M40.0831 70.2319L52.3809 69.3209M46.4597 62.4888C46.3079 70.08 46.0953 85.4447 46.4597 86.1735M38.7166 63.3997C38.413 70.2319 37.9879 84.3516 38.7166 86.1735M38.7166 87.0844C41.4495 87.3881 48.1905 87.631 53.2918 86.1735" stroke="black"/>
<path d="M3.18831 64.7666C12.7533 64.3111 32.1565 63.3091 33.2496 62.9447M2.73283 63.4002C11.5387 62.4892 29.6969 60.7584 31.8832 61.1228M1.82188 63.4002C1.21458 63.552 0.09108 63.6735 0.45546 62.9447C0.81984 62.2159 0.30365 61.4264 0 61.1228M0.91095 61.1228C2.23679 61.0344 3.78069 60.9332 5.46569 60.8247M34.1606 59.3009C30.1131 59.3009 15.3578 60.1877 5.46569 60.8247M15.9416 57.479C13.0569 58.5548 6.92321 60.7302 5.46569 60.8247M17.308 57.479L33.7051 56.1125M25.5066 44.2702C25.2029 47.1549 24.7778 53.3797 25.5066 55.2016M31.4277 40.1709C31.5795 43.9666 31.7921 51.9222 31.4277 53.3797M26.873 46.0921C28.6949 45.6366 32.6119 44.8168 33.7051 45.1812M25.5066 38.8045C22.0146 42.6001 14.8485 50.5558 14.1197 52.0133C13.2087 53.8352 15.0306 56.568 14.1197 57.0235M8.19853 48.825C10.1723 49.1286 14.3019 49.6448 15.0306 49.2804M13.2087 52.9242C12.6616 52.1955 8.12237 52.0133 5.92116 52.0133C5.1924 49.0982 4.09927 48.9768 3.64379 49.2804M36.4379 33.3388C41.4481 27.2658 52.2884 14.8466 55.5678 13.7535M23.6847 35.1607C30.9722 27.7213 45.9118 12.4781 47.3693 11.0206M46.9138 7.83229C33.5533 21.4965 6.64992 49.1893 5.92116 50.6469M4.55474 48.3695C18.0671 32.5797 45.2741 1.09129 46.0029 1.45559M46.9138 1.45559C54.7627 5.71509 65.1037 11.3353 75.6087 17.0579M122.523 42.9038C122.023 42.4047 98.4293 29.4896 75.6087 17.0579M99.749 29.2395C110.984 27.8731 133.727 25.2314 134.82 25.5958M75.6087 17.0579C82.4408 19.752 96.9249 25.7779 100.204 28.3286M134.82 26.9622C131.784 30.1505 125.802 36.7093 126.166 37.4381M131.177 33.3388C132.695 37.8936 135.913 47.003 136.642 47.003M136.187 27.8731C138.616 33.9461 143.474 46.4565 143.474 47.914M120.245 40.6264C130.114 45.4848 150.033 55.2016 150.762 55.2016M116.146 38.349C119.182 38.5009 125.255 38.7134 125.255 38.349M127.533 42.9038C128.14 42.2965 129.628 41.3552 130.721 42.4483C131.814 43.5414 132.391 44.7257 132.543 45.1811M33.7051 97.561C33.7051 99.534 33.7962 103.482 34.1606 103.482" stroke="black"/>
</g>
<defs>
<clipPath id="clip0_896_19331">
<rect width="152" height="109" fill="white"/>
</clipPath>
</defs>
</svg>
