<svg width="152" height="109" viewBox="0 0 152 109" fill="none" xmlns="http://www.w3.org/2000/svg">
<path d="M135.998 35.3591H127.935C127.403 35.3591 126.971 35.7911 126.971 36.3238V38.8396C126.971 39.3665 127.394 39.7937 127.92 39.8196C133.251 40.0814 137.383 41.8832 136.359 46.9876C135.701 50.2698 126.248 48.6488 126.248 48.6488" stroke="white" stroke-linecap="round"/>
<path d="M77.7256 43.9152C78.9805 44.1434 81.0796 43.9837 79.4368 41.5195" stroke="white"/>
<path d="M67.1156 57.2629C67.686 58.1756 68.9638 60.0009 69.5113 60.0009M72.2493 68.2149C72.9338 68.2149 74.3028 68.0095 74.3028 67.1882M71.9071 68.8993C72.7057 68.8993 74.3712 68.7624 74.645 68.2149M61.9819 70.2683C61.9819 69.9261 61.9819 66.5036 62.6664 66.5036M61.9819 80.8783C61.9819 78.0257 62.1873 71.8427 63.0086 69.9261M53.0835 104.493C53.0835 104.379 53.1519 104.219 53.4258 104.493M52.7412 103.467C53.1975 103.58 54.1102 103.878 54.1102 104.151M53.0835 102.439C53.5398 102.554 54.4525 102.713 54.4525 102.439M53.0835 100.044C53.5398 100.044 54.4525 100.112 54.4525 100.386M53.0835 99.0174L54.4525 99.7014M56.8482 99.7014H57.8749M63.0086 105.178H64.0353M52.0568 87.7228C51.9426 91.0317 51.8514 97.6485 52.3989 97.6485M53.7676 93.1993C53.6535 94.7959 53.5623 97.99 54.1099 97.99M50.0029 76.7706C50.0029 83.6161 50.1398 97.3745 50.6874 97.6485M64.7196 57.9475C65.0618 58.6319 65.6094 60.0694 65.0618 60.3432M65.7463 58.2897C65.9745 60.2291 66.3624 64.2448 66.0886 64.7924M66.773 58.6319C67.0012 62.3966 67.3891 69.9946 67.1153 70.2683M91.7571 92.5144H93.1261" stroke="white" stroke-width="0.3"/>
<path d="M55.8218 45.9688C55.5937 46.6533 55.2743 48.0223 55.8218 48.0223M57.1906 43.9153C56.8484 44.828 56.2323 46.6533 56.5061 46.6533M52.7414 51.787C53.0837 52.5855 53.905 54.1827 54.4526 54.1827M51.7147 53.156C51.2584 54.4109 50.4826 57.0576 51.0301 57.6052M61.9816 57.2629C62.8943 57.1489 64.7196 56.8523 64.7196 56.5785" stroke="white" stroke-width="0.3"/>
<path d="M89.3619 30.2252C89.1337 31.3661 88.8143 33.9901 89.3619 35.359C90.0464 37.0702 90.0461 38.0969 88.6772 38.4392C88.2619 38.543 87.8467 38.9617 87.4029 39.4659M78.752 37.4125C79.1385 37.9093 79.8241 38.6947 80.6459 39.4659M85.2547 38.0969C85.546 38.6674 86.3835 39.7398 87.4029 39.4659M87.4029 39.4659C86.3833 40.6244 85.2125 42.2348 83.5434 41.5195C82.5543 41.0955 81.5226 40.2887 80.6459 39.4659M86.6237 32.9632C86.7187 32.9158 86.8366 32.8643 86.9661 32.8175M88.335 32.9632C88.2121 32.7176 87.9469 32.6464 87.6505 32.6632M85.597 31.5942C86.2563 31.1379 87.7271 30.4306 88.335 31.2521M76.014 34.6745C75.7841 34.8585 75.4504 35.1164 75.1161 35.359M80.6459 39.4659C80.6459 39.4659 80.217 40.437 79.4363 41.2225M80.1206 31.5942C79.9423 31.6339 79.7516 31.6949 79.5711 31.7786M80.1206 34.6745C79.8461 34.4609 79.6199 34.2596 79.4363 34.07M80.1206 30.9098C80.5132 30.5172 81.1382 29.9683 81.8319 29.492M84.5699 28.5141C83.7898 28.3581 82.7506 28.8613 81.8319 29.492M81.8319 29.492C84.3417 30.4209 89.7036 31.389 91.0726 27.8295C92.7837 23.3804 85.5966 20.9847 82.5163 21.6691C80.0975 22.2066 75.3572 23.1663 74.0962 27.366M79.4363 34.07C78.4324 34.8034 76.5453 35.4855 75.1783 34.07M79.4363 34.07C78.2579 32.8537 78.828 32.1233 79.5711 31.7786M74.0962 27.366C73.7514 28.5141 73.6667 29.9043 73.9606 31.5942C74.2526 32.7628 74.681 33.5552 75.1783 34.07M74.0962 27.366C73.1382 26.836 70.9485 26.3236 69.8533 28.5141C68.4843 31.2521 70.8801 34.6745 71.9068 34.6745C72.7282 34.6745 74.43 34.2715 75.1783 34.07M75.1161 35.359C74.6208 35.7183 74.124 36.0435 73.9606 36.0435C73.6183 36.0435 75.3296 42.2039 77.383 42.2039C77.685 42.2039 77.9687 42.1448 78.2329 42.0438M75.1161 35.359C74.5027 35.2449 73.0022 35.359 71.9068 36.7279M71.9068 36.7279C70.5377 38.4392 73.6584 44.5996 75.1783 44.5996C76.0967 44.5996 76.8311 44.6076 77.383 44.045M71.9068 36.7279C68.6976 36.3857 63.6932 37.4125 59.5863 40.1505C56.3006 42.3408 54.3385 48.3643 53.768 51.1023M78.2329 42.0438C78.0275 43.0638 77.7444 43.6767 77.383 44.045M78.2329 42.0438C78.6956 41.867 79.0988 41.5621 79.4363 41.2225M77.383 44.045C78.0124 44.0017 79.1673 44.1205 78.752 44.9419C78.3065 45.8231 79.1595 51.746 76.6931 53.8403M70.5377 55.5516C70.6517 55.4375 71.7396 55.0724 75.1783 54.5249C75.7877 54.4278 76.2857 54.1863 76.6931 53.8403M70.5377 55.5516C69.5108 54.6389 67.5943 52.5398 68.1418 51.4446C68.8264 50.0756 72.2497 46.3109 70.1958 44.5996M70.5377 55.5516C72.5913 58.5177 76.6303 64.6554 76.3564 65.4767C76.014 66.5035 75.6717 71.9794 71.9068 69.5837C71.565 67.5303 74.6455 66.5035 73.2761 65.4767C72.4307 64.8428 70.0043 61.9936 68.1418 59.7297M70.5377 55.5516C68.7952 54.6807 67.7929 57.0111 66.6933 57.9473M63.0086 46.6532C62.4382 48.9348 61.6396 53.7034 63.0086 54.5249C63.5344 54.8402 63.8986 55.3495 64.1906 55.8939M66.6933 57.9473C66.4965 58.1148 66.2967 58.2376 66.089 58.2896C65.603 58.411 65.2894 58.1013 65.0107 57.605M66.6933 57.9473C67.0898 58.442 67.5912 59.0602 68.1418 59.7297M76.6931 53.8403C77.6073 55.4375 79.9148 58.4265 81.8319 57.605C82.0899 57.4945 82.3163 57.3561 82.5163 57.1968M79.4363 41.2225C80.1205 41.268 81.1478 45.9686 80.6459 49.0489C80.144 52.1291 86.6237 52.4713 85.2547 52.8136C84.9631 52.8865 84.7491 53.0992 84.5699 53.3986M84.5699 53.3986C87.7643 52.5191 94.2902 50.897 94.8378 51.4446C95.3431 51.9499 96.0815 54.4371 96.4615 55.8939M84.5699 53.3986C83.998 54.3537 83.7784 56.192 82.5163 57.1968M91.7575 56.236C92.4425 57.2629 93.4688 53.3986 93.4688 54.5249C93.4688 54.9448 93.915 55.3028 94.4955 55.585M91.7575 56.236C91.4021 55.7032 91.5076 55.0457 91.7192 54.5249M91.7575 56.236C91.5292 72.664 91.0726 105.725 91.0726 106.547C91.0726 107.368 92.4419 106.888 93.1265 106.547C93.2406 95.2522 93.4003 70.8843 93.1265 63.7656C92.8527 56.6468 93.9251 55.3456 94.4955 55.585M92.0998 53.8403C91.9795 54.0007 91.8338 54.2427 91.7192 54.5249M82.5163 57.1968L91.7192 54.5249M68.1418 59.7297L68.827 96.6211C66.7819 97.2694 63.5679 98.0315 60.1174 98.3865M53.768 51.1023C55.0123 52.9277 58.8387 56.4414 64.1906 55.8939M53.768 51.1023C52.9978 51.0714 52.3166 51.3722 51.7146 51.9493M64.1906 55.8939C64.5117 56.4923 64.7455 57.133 65.0107 57.605M51.7146 51.9493C45.6756 57.7388 47.6076 91.3308 47.6076 96.6211C49.1439 97.5723 51.0401 98.1212 53.0835 98.3865M51.7146 51.9493C53.1181 54.6331 57.7424 59.5217 65.0107 57.605M53.0835 98.3865V102.782M53.0835 98.3865C54.3012 98.5438 55.5711 98.6016 56.8483 98.5833M53.0835 102.782C52.9281 103.249 52.6985 104.191 52.6546 105.178M53.0835 102.782C53.3592 103.058 53.9902 103.422 54.6545 103.124M57.1905 102.439L56.8483 98.5833M57.1905 102.439C57.481 102.462 57.8337 102.502 58.2173 102.562M57.1905 102.439C56.8834 102.235 56.1352 102.012 55.3912 102.562M56.8483 98.5833C57.9422 98.5679 59.0413 98.4965 60.1174 98.3865M60.1174 98.3865V102.098M60.1174 102.098C59.484 102.179 58.2173 102.385 58.2173 102.562M60.1174 102.098C60.853 102.895 62.8718 104.425 65.0622 104.151C66.5608 103.963 66.7565 104.726 66.5478 105.519M58.2173 102.562C59.7913 102.808 61.8839 103.392 62.3242 104.493C62.4699 104.858 62.6002 105.206 62.6125 105.519M61.4829 106.638C60.2114 106.984 57.6472 107.021 52.7413 106.547C52.654 106.11 52.6339 105.639 52.6546 105.178M61.4829 106.638L66.089 106.547C66.2691 106.258 66.4515 105.886 66.5478 105.519M61.4829 106.638C62.3758 106.393 62.6312 105.998 62.6125 105.519M95.8645 53.3986C97.2335 53.3178 99.766 54.0457 98.945 57.605C98.1233 59.7955 96.947 57.3769 96.4615 55.8939M96.4615 55.8939C96.4933 56.0157 96.5226 56.1304 96.549 56.236C96.0009 56.132 95.1602 55.9081 94.4955 55.585M52.6546 105.178C55.7277 105.406 62.0217 105.793 62.6125 105.519M62.6125 105.519C62.6542 105.793 65.2534 105.634 66.5478 105.519M54.6545 103.124C54.8149 103.052 54.9773 102.942 55.137 102.782C55.2212 102.698 55.3062 102.624 55.3912 102.562M54.6545 103.124C54.9294 103.58 55.5477 104.425 55.8215 104.151C56.0954 103.877 55.6488 102.977 55.3912 102.562M80.1211 33.3055C79.8685 32.972 79.4049 32.1999 79.5711 31.7786M86.9661 32.8175C86.7379 33.3224 86.487 34.2637 87.3083 33.99C88.1296 33.7162 87.8787 32.9914 87.6505 32.6632M86.9661 32.8175C87.1793 32.7404 87.424 32.6761 87.6505 32.6632" stroke="white" stroke-linecap="round"/>
<path d="M16.576 27.5023C14.3881 18.2523 19.8024 8.90318 28.9143 6.19693L29.3773 6.05947C37.0565 3.77874 44.9873 2.45277 52.9906 2.11137L53.6123 2.08484C62.8872 1.68922 72.1692 2.6788 81.1522 5.02078C85.465 6.14513 89.6917 7.57683 93.7999 9.30479L95.0192 9.81762C100.461 12.1064 105.713 14.8224 110.725 17.9402L115.06 20.6359L126.085 29.5942L102.739 19.7741L94.761 16.8777L87.0978 14.3138L83.7367 13.2978C72.7805 9.98624 61.2614 8.9575 49.8917 10.2753L49.1096 10.3659C44.4885 10.9015 39.927 11.8647 35.4838 13.2431L21.9311 17.4476C16.8201 19.0331 14.4644 24.9206 17.0707 29.5942L16.576 27.5023Z" fill="#BEE8FF"/>
<path d="M126.59 30.0134C90.4814 -4.01844 54.3514 -4.32425 18.7832 17.8338" stroke="white" stroke-linecap="round"/>
<path d="M125.907 29.8707C86.2058 0.107634 50.2698 3.8599 17.4141 29.8707" stroke="white" stroke-linecap="round"/>
<path d="M77.7252 32.2789C77.8393 33.0775 78.1358 34.6746 78.4097 34.6746M77.0407 32.9635C77.1547 33.5339 77.4514 34.6746 77.7252 34.6746M76.3562 33.3056C76.4703 33.762 76.7669 34.6746 77.0407 34.6746M75.6717 32.9635C75.6717 33.5339 75.7401 34.6746 76.014 34.6746M72.9337 31.5945C73.276 32.393 74.0289 33.9902 74.3027 33.9902M72.9337 32.6212C73.0478 33.1916 73.3444 34.3324 73.6182 34.3324M72.2492 32.9635C72.4774 33.5339 73.0021 34.6746 73.276 34.6746M70.8802 28.8565C71.5647 28.286 73.139 27.2821 73.9604 27.8297M88.3348 24.0649C89.4757 25.0917 91.0728 27.3506 88.3348 28.1719M74.645 35.7013C74.9872 35.8155 75.6717 36.1121 75.6717 36.3859M75.3294 35.3592C75.7857 35.3592 76.7669 35.4276 77.0407 35.7013M78.4097 39.1239C78.6378 39.8083 79.231 41.1089 79.7787 40.8351M71.5647 38.0972C72.1352 37.2986 73.276 35.8382 73.276 36.3859M79.4364 43.9153C79.6646 44.5999 80.0525 46.1741 79.7787 46.9956M78.7519 42.8886C79.0941 42.4323 79.7787 41.5881 79.7787 41.8619M83.5434 55.894C84.2279 55.78 85.7337 55.4833 86.2814 55.2095M94.4953 53.4983L95.5221 55.894M96.2065 54.525C96.777 54.6391 97.9178 55.0041 97.9178 55.5517M95.8643 53.8405C96.2714 53.9338 97.1153 54.2012 97.2333 54.525M92.4418 55.894C92.3277 56.3503 92.168 57.3999 92.4418 57.9475M77.3829 54.1827C77.6111 53.7264 78.1358 52.8822 78.4097 53.156M77.7252 54.8673C78.0674 54.7531 78.7519 54.4566 78.7519 54.1827M78.4097 55.2095C78.5237 55.0954 78.8204 54.9357 79.0942 55.2095M71.2225 53.8405C71.5647 54.0687 72.2492 54.5935 72.2492 54.8673M69.5112 53.8405C70.1957 54.0687 71.5647 54.5935 71.5647 54.8673M65.062 56.5785C65.5183 56.6926 66.431 56.8523 66.431 56.5785M64.0353 55.5517C64.3091 55.5517 65.062 55.5517 65.4043 55.5517M62.6663 53.8405C63.1226 54.0687 64.1037 54.4566 64.3775 54.1827M61.9818 47.68C62.2099 47.7941 62.6663 48.0908 62.6663 48.3646M61.6395 48.7068C61.7536 49.049 62.0503 49.7336 62.324 49.7336M61.2973 49.7336C61.5255 50.0758 62.0503 50.6918 62.324 50.418M61.2973 50.7603C61.4114 51.2166 61.7764 52.1293 62.324 52.1293M60.6128 51.787C61.0691 52.2434 62.0503 53.0876 62.324 52.8137M60.6128 52.8137C61.4113 53.6123 63.077 55.141 63.3508 54.8673M60.2705 54.1827C61.0691 54.525 62.6663 55.2779 62.6663 55.5517" stroke="white" stroke-width="0.3"/>
</svg>
