<svg width="152" height="109" viewBox="0 0 152 109" fill="none" xmlns="http://www.w3.org/2000/svg">
<g clip-path="url(#clip0_896_19490)">
<g clip-path="url(#clip1_896_19490)">
<path d="M95.1391 52.4314C94.6537 50.867 94.1684 49.3025 93.6829 47.7381C94.047 47.4974 94.2897 47.1363 94.1684 46.7753C93.9257 46.294 93.8043 45.6923 93.5616 45.2109C93.4402 44.8499 93.3189 44.6092 93.1975 44.2482C93.4402 43.5261 93.4402 42.8041 92.9549 42.2024C92.7122 41.9617 92.4695 41.721 92.1054 41.6007C91.7414 40.6379 91.256 39.6752 90.892 38.7125C90.7706 38.5921 90.6493 38.4718 90.5279 38.3514C90.0426 36.9073 89.4358 35.3429 88.8291 33.8987C87.7369 31.2513 86.6448 28.2427 84.8247 26.0766C84.7034 25.2342 83.7325 24.7528 82.8831 24.2714C81.9124 23.6697 80.9415 23.1884 79.9708 22.9477C78.3933 22.2256 76.9371 21.5036 75.3597 20.7815C74.8743 20.7815 71.4765 21.2629 71.962 21.9849C72.4474 22.5867 72.8113 23.3087 73.1754 23.9104C71.8406 24.5121 70.5058 25.2342 69.171 25.9562C67.9575 25.8359 66.8654 25.8359 65.8947 24.8731C65.1666 24.0308 64.6811 22.9477 64.9239 21.8646C65.0452 20.9019 62.497 21.6239 62.1329 21.8646C61.1621 22.346 60.1914 22.9477 59.2206 23.429C57.5218 23.9104 55.9443 24.6325 54.7308 25.8359C54.3668 26.0766 54.0027 26.1969 53.6387 26.4376C53.396 26.5579 53.0319 26.7986 53.0319 27.0393C52.5466 27.1596 52.0612 27.5207 51.9398 27.7613C50.1196 33.5377 46.3579 38.5921 44.9018 44.4889C44.6591 45.2109 44.5377 45.9329 44.5377 46.655C44.295 47.2567 44.0523 47.7381 43.931 48.3398C43.8096 48.5805 44.0523 48.7008 44.4164 48.7008C44.4164 52.5517 45.7512 56.2823 48.6635 59.2909C49.1489 59.7722 52.4252 59.0502 52.0612 58.2078C50.8477 54.9586 50.241 51.7094 50.1196 48.3398C50.1196 47.9788 50.1196 47.6178 50.241 47.2567C50.3623 47.1363 50.4837 47.016 50.4837 46.8956C51.6971 44.2482 52.9106 41.721 54.124 39.0735C54.6095 40.5175 55.8229 41.9617 56.5509 43.2854C56.6723 43.4057 56.6723 43.6464 56.7937 43.7668C55.9443 44.7296 55.8229 46.0533 56.7937 47.016C56.551 48.4601 56.3083 49.9042 57.2791 51.228L57.4004 51.3484C57.8858 51.95 60.7981 51.1077 60.7981 50.2652C60.7981 50.1449 60.7981 50.1449 60.7981 50.0245C61.2835 49.9042 61.6476 49.7839 62.0115 49.6635C62.3756 49.5432 62.6183 49.4228 62.9824 49.3025C63.2251 49.3025 63.589 49.3025 63.7104 49.1822C68.8069 48.3398 74.0249 48.2195 79.1214 48.8212V48.9415C78.8787 49.5432 80.8203 49.3025 81.9124 48.8212C82.6404 48.7008 83.4899 48.3398 83.4899 47.8584C83.7325 46.655 83.8539 45.5719 84.0966 44.3685C84.0966 44.2482 84.0966 44.1278 83.9752 44.0075C83.9752 43.4057 83.9752 42.8041 83.8539 42.2024C84.3393 43.0447 85.0673 43.7668 85.9168 44.4889C86.0382 44.6092 86.2808 44.6092 86.6448 44.6092C86.7662 45.4516 87.373 46.294 87.7369 47.1363C88.2224 48.2195 88.8291 49.3025 89.3145 50.2652C89.4358 50.5059 89.9212 50.6263 90.4066 50.6263C90.892 51.589 91.3774 52.5517 91.7414 53.5144C91.9841 54.2366 95.3818 53.2738 95.1391 52.4314ZM68.9283 37.0276C68.6856 36.6666 68.5643 36.3056 68.3216 35.9446C68.3216 35.8242 68.3216 35.8243 68.3216 35.7039C68.443 36.1853 68.6856 36.6666 68.9283 37.0276ZM73.6608 45.9329C73.6608 45.9329 73.6608 46.0533 73.7822 46.0533C73.6608 46.0533 73.5395 46.0533 73.4181 46.0533C73.4181 46.0533 73.5395 45.9329 73.6608 45.9329ZM61.6476 24.0308H61.5262C61.5262 24.0308 61.5262 24.0308 61.6476 24.0308ZM70.6272 27.0393C70.5058 27.1596 70.5058 27.28 70.5058 27.4003C70.5058 27.4003 70.5058 27.4003 70.5058 27.5207C70.3844 27.5207 70.3844 27.5207 70.3844 27.5207C70.5058 27.4003 70.6271 27.28 70.5058 27.1596L70.6272 27.0393Z" fill="#C5E7FC"/>
</g>
<path d="M48.4795 72.8323C47.8799 71.0337 47.4002 68.9951 47.1604 67.0764C47.2803 64.4382 47.2803 61.8001 47.8799 59.2819C47.8799 59.162 47.8799 58.9222 47.8799 58.8022C47.9998 58.6823 47.9998 58.5624 48.1197 58.4425C47.8799 58.0827 47.5202 57.7229 47.2803 57.3632L47.1604 57.2433L47.0405 57.1234C46.9206 57.0035 46.9206 56.8836 46.8007 56.7636C44.2824 62.9993 44.1625 74.1514 44.2824 79.4278C44.4024 86.7426 48.7193 98.9742 53.5159 94.777C57.1135 91.6596 57.9528 80.3871 58.1926 74.6311C59.3918 74.6311 60.4711 74.6311 61.6702 74.6311C62.1499 74.9909 62.5096 75.3506 62.9893 75.7104V75.8302C63.8287 78.7082 64.0685 81.7061 64.5482 84.5841C64.4283 85.0638 64.4283 85.5434 64.3084 86.0231C64.3084 86.143 64.3084 86.3829 64.4283 86.5028C64.4283 87.2222 64.4283 87.9417 64.5482 88.6612C64.6681 89.2608 64.7881 89.7405 64.7881 90.34C64.6681 90.46 64.6681 90.46 64.5482 90.5799C64.4283 90.6998 64.4283 90.9393 64.3084 91.0598C62.7495 90.2201 60.591 90.2201 59.0321 91.5391C56.5138 93.5775 56.7537 97.2955 57.4732 100.053C58.1926 102.811 59.2719 105.929 62.2698 106.889C65.1478 107.968 68.0257 105.57 68.6253 102.931C68.8651 101.972 68.8652 101.132 68.8652 100.173C68.9851 100.413 69.2249 100.532 69.4648 100.653C69.9444 100.893 70.544 101.013 71.1436 101.013C71.983 101.132 72.8224 101.132 73.6618 101.132C77.0194 101.253 80.3771 101.253 83.6147 101.132C87.3321 100.893 91.0495 100.413 94.7669 99.8131C94.8869 99.8131 94.8869 99.8131 94.8869 99.8131C94.8869 99.9336 95.0067 100.053 95.0067 100.053C95.7262 101.372 96.9255 102.572 98.3644 103.171C99.6835 103.77 101.362 103.77 102.801 103.531C104.36 103.411 105.799 102.931 106.878 101.732C107.838 100.532 108.317 99.0938 108.557 97.5347C108.677 96.5753 108.797 95.4963 108.557 94.5369C108.317 93.5775 107.838 92.8581 107.358 92.1388C106.878 91.5391 106.399 90.9393 105.799 90.46C106.039 90.1002 106.279 89.7405 106.399 89.3807H106.519C106.639 89.3807 106.639 89.2608 106.758 89.2608C106.878 89.1409 106.878 89.1409 106.878 89.021C106.878 88.901 106.998 88.7812 106.998 88.7812V88.6612C107.358 88.6612 107.718 88.3015 107.718 87.9417C107.718 86.7426 107.598 85.6633 107.598 84.4642C107.598 83.8646 107.598 83.385 107.478 82.7854C107.478 82.4256 107.478 82.0659 107.238 81.826C106.998 81.5862 106.639 81.5862 106.279 81.5862C106.039 81.5862 105.799 81.5862 105.559 81.5862C105.439 81.5862 105.32 81.7061 105.32 81.7061C105.2 81.7061 105.2 81.7061 105.08 81.7061C104.6 81.7061 104.36 82.0659 104.36 82.4256C104.36 82.7854 104.36 83.1452 104.36 83.385C101.003 81.8261 98.4843 78.8281 97.4051 75.2307C97.4051 75.1108 97.4051 75.1108 97.2852 74.9909C97.2852 74.0315 97.2852 73.4319 97.2852 73.4319C97.2852 73.4319 96.4458 62.5196 94.1674 57.8429C91.889 53.1662 89.8504 54.1255 89.8504 54.1255C89.7305 54.1255 89.6106 54.1255 89.4907 54.2454C89.7305 54.3653 89.9704 54.4853 90.0902 54.6052C90.33 54.845 90.5699 55.0848 90.8097 55.3247C90.8097 55.3247 90.8097 55.4446 90.9297 55.4446C91.6492 56.0441 92.2487 56.7636 92.7284 57.4831C93.328 58.4425 93.8076 59.5217 93.8076 60.7208C93.9276 61.92 93.6877 62.9993 93.6877 64.1984C93.6877 64.3184 93.6877 64.4382 93.5678 64.5582C94.5271 68.8751 94.8869 74.5112 94.8869 74.5112C94.8869 74.5112 95.0067 89.1409 91.889 93.698C92.4886 94.2977 92.9683 95.017 93.0881 95.9764C93.4479 95.4963 93.6877 95.017 94.0474 94.4173C93.6877 95.7364 93.6877 97.0554 94.0474 98.4941C87.9318 99.574 81.6961 100.053 75.4605 99.8131C73.9016 99.8131 72.3427 99.6936 70.9037 99.574C70.1843 99.4535 69.7046 99.3339 69.5846 98.4941C69.4648 97.6552 69.3448 96.9358 69.3448 96.096V95.9764C70.3041 95.9764 71.2634 95.9764 72.2228 95.9764C72.7025 95.9764 72.7025 95.2562 72.2228 95.2562C71.2634 95.2562 70.1843 95.2562 69.2249 95.2562C68.9851 92.4985 68.8651 89.7405 68.9851 86.8625C69.105 83.5048 69.4648 80.0273 68.8652 76.6697C68.9851 76.19 68.9851 75.7104 68.9851 75.2307C68.9851 74.8709 68.9851 74.3913 68.8652 74.0315C68.9851 73.7916 68.8652 73.432 68.7453 73.1921C68.5055 71.993 68.0257 70.9137 67.4262 69.9544C66.8266 68.7552 65.9872 67.676 65.1478 66.5968L68.1457 67.1963V62.7594C62.9893 62.3997 59.6316 61.6802 58.9121 61.5603C58.5524 59.2819 57.9528 56.4039 56.8736 54.1255C56.8736 54.0056 56.9935 53.8857 56.9935 53.7657C57.1135 53.1662 57.1135 52.5666 57.1135 51.9671C57.3533 51.7272 57.4731 51.3674 57.3533 51.0077C57.2333 50.8878 57.2333 50.7679 57.1135 50.528C57.1135 50.4081 56.9935 50.2882 56.9935 50.0483C56.9935 49.9285 56.9935 49.9285 56.8736 49.8085C56.5138 48.4895 56.6338 47.0505 56.6338 45.8513C56.6338 44.892 56.7537 43.9326 56.7537 43.0933C56.7537 42.2538 56.0342 42.014 55.9143 41.2945C55.7943 40.9347 55.5545 40.8149 55.3147 40.6949C55.3147 39.8556 55.3147 39.1361 55.3147 38.2966C55.3147 37.817 54.5952 37.697 54.5952 38.1767V38.2966C54.3554 40.0954 54.2354 42.014 54.4752 43.8128C54.4752 45.0119 54.4752 46.331 54.4752 47.5302C54.4752 48.4895 54.4752 49.4488 54.4752 50.528C54.2354 50.2882 53.8757 50.1683 53.6359 50.0483L51.8371 51.9671C51.4774 51.8471 51.2376 51.8471 51.1176 51.8471C51.1176 52.2069 51.2376 52.6865 51.1176 53.0462C51.1176 53.1662 51.2376 53.406 51.2376 53.5259C51.3575 54.2454 51.4774 55.0848 51.4774 55.9243C51.8371 56.0441 52.1969 56.4039 52.6766 56.8836C52.4368 57.2433 52.1969 57.6031 52.077 58.0827C52.077 58.3226 52.3168 58.3226 52.3168 58.2026C52.4367 57.8429 52.5566 57.4831 52.7964 57.2433C53.0363 57.6031 53.3961 58.0827 53.6359 58.8022C53.5159 59.042 53.3961 59.2819 53.1562 59.5217C53.1562 59.6417 53.1562 59.6417 53.1562 59.7615C53.2761 59.7615 53.2761 59.7615 53.3961 59.7615C53.5159 59.6417 53.6359 59.4018 53.7558 59.2819C54.3554 60.601 54.835 62.6396 55.1947 64.6781C54.9549 64.9179 54.835 65.1577 54.5952 65.3976C54.4752 65.5175 54.2354 65.7573 54.1155 65.8772C53.9956 65.9972 53.8757 66.237 53.6359 66.3569C53.5159 66.3569 53.6359 66.4768 53.6359 66.5968C53.7558 66.7167 53.7558 66.5968 53.8757 66.5968C53.9956 66.4768 54.1156 66.237 54.3554 66.1171C54.4752 65.9972 54.7151 65.7573 54.835 65.6374C54.9549 65.5175 55.1947 65.2777 55.3147 65.1577C55.5545 66.9565 55.7943 68.7552 55.9143 70.0743C55.4346 70.3141 54.835 70.434 54.3554 70.6739C54.3554 69.9544 54.2354 69.2349 54.2354 68.5154C54.1156 67.5561 52.5566 67.5561 52.6766 68.5154C52.7964 69.3548 52.9164 70.554 52.9164 71.3934C52.9164 71.873 52.9164 72.2328 52.9164 72.7125M48.4795 72.8323C48.4795 72.9523 48.4795 72.9523 48.3596 72.9523C47.8799 72.9523 47.5202 72.4726 47.1604 72.1128C47.0405 71.993 47.0405 71.993 47.0405 71.993M48.4795 72.8323C48.4795 72.8323 48.4795 72.8323 48.3596 72.8323M48.8392 72.4726C48.7193 69.5946 48.7193 66.7167 48.9592 63.8387C48.9592 63.5989 48.7193 63.5989 48.5994 63.8387M50.7579 65.9972C50.7579 65.7573 50.5181 65.7573 50.3981 65.9972M49.199 72.4726C50.3981 70.7938 51.5973 69.1149 52.7964 67.5561C52.9164 67.4361 52.6766 67.1963 52.5566 67.4361M55.5545 81.826C55.7944 80.7468 55.9143 78.9481 56.0342 78.1087M55.5545 81.826C55.0749 81.2264 54.4752 80.5069 53.9956 79.9074C53.8757 80.7468 53.8757 81.5862 53.7558 82.4256M55.5545 81.826C55.5545 82.6655 55.3054 84.1691 55.1855 85.1284M54.2354 79.4278C54.3554 78.7082 54.3554 77.8688 54.3554 77.1493M55.7944 78.3485C55.9143 78.4684 55.9143 78.1087 56.0342 78.1087M54.7151 87.582C54.9549 86.7426 55.0749 85.9031 55.1947 85.0638C54.835 84.4642 54.4752 83.8646 54.1155 83.265C53.9956 83.1451 53.8757 82.9053 53.7558 82.7854C53.7558 83.6248 53.6359 84.4642 53.5159 85.3036C53.6359 85.4235 53.6359 85.6633 53.7558 85.7833M52.6766 77.9887C52.6766 78.7083 52.6766 79.3078 52.5566 80.0273C51.5973 78.2285 50.638 76.3099 49.7986 74.5112M46.9206 73.9116C47.0405 73.9116 47.1604 73.7916 47.2803 73.7916C47.5202 73.6718 47.76 73.5518 47.9998 73.4319C47.9998 73.5518 47.9998 73.7916 47.9998 73.9116M50.0384 90.2201C49.9185 90.34 49.9185 90.34 49.7986 90.46C47.9998 87.3422 47.2803 83.8646 47.0405 80.3871C47.1604 78.3485 47.5202 76.3099 48.2397 74.3913C48.2397 74.3913 48.2397 74.3913 48.3596 74.5112C48.3596 74.6311 48.7193 76.19 48.7193 76.4299M51.5973 87.3422C51.3575 88.3015 50.8778 89.1409 50.2782 89.8603M52.1969 83.385C52.077 84.4642 51.957 85.6633 51.7172 86.7426C50.5181 82.7854 49.4388 78.8281 48.7193 74.7511C48.7193 74.6311 48.7193 74.5112 48.7193 74.3913C48.8392 74.3913 48.8392 74.3913 48.9592 74.3913M52.4368 80.6269C52.4368 80.8667 52.4368 80.9866 52.4368 81.2264C52.4368 81.7061 52.3168 82.1858 52.3168 82.7854M49.3189 74.5112H49.4388M50.0384 74.5112C50.2782 74.7511 50.3981 74.9909 50.638 75.2307C51.3575 76.0701 51.9571 76.7896 52.6766 77.629C52.6766 77.0294 52.7964 76.4299 52.7964 75.8302C52.7964 75.5904 52.9164 74.7511 52.9164 74.5112C52.4367 74.5112 52.077 74.5112 51.5973 74.5112M53.2761 91.4195C53.7558 90.5799 54.2354 89.3807 54.7151 87.9417C54.4752 87.4621 54.1156 86.8625 53.9956 86.6227C53.7558 86.3828 53.6359 86.0231 53.5159 85.7833C53.2761 86.9824 53.0363 88.0617 52.5566 89.1409M61.0707 101.372C60.9507 101.132 60.9507 101.013 60.8308 100.893C60.7109 100.532 60.591 100.293 60.4711 99.9336C60.591 99.8131 60.7109 99.8131 60.9507 99.6936C60.9507 99.8131 60.9507 99.9336 60.9507 99.9336C60.9507 100.173 61.0707 100.293 61.1905 100.413M60.4711 99.6936C60.3512 99.4535 60.3512 99.0938 60.2312 98.7342C60.4711 98.9742 60.8309 99.0938 61.0707 99.3339V99.4535M60.1113 98.2549C59.9914 97.7748 59.9914 97.2955 59.9914 96.8153C60.2312 97.4151 60.4711 97.8943 60.7109 98.4941V98.6146M60.1113 96.096C60.1113 95.7364 60.2312 95.2562 60.3512 94.8965C60.4711 95.7364 60.591 96.6958 60.591 97.5347M62.6295 99.3339C62.6295 99.2134 62.7495 99.0938 62.7495 99.0938C63.469 98.4941 64.0685 97.8943 64.9079 97.4151C65.0279 97.7747 65.1478 98.1344 65.2677 98.4941M62.9893 98.3745C63.1092 98.1344 63.1092 98.0148 63.2291 97.7747C63.469 97.0554 63.7088 96.3361 64.0685 95.6168C64.0685 95.6168 64.0685 95.4963 64.1884 95.4963C64.4283 95.9764 64.6681 96.4557 64.9079 97.0554M62.5096 100.053C62.5096 99.9336 62.5096 99.8131 62.5096 99.6936C63.349 99.3339 64.3084 98.9742 65.2677 98.7342C65.3876 99.2134 65.5075 99.6936 65.5075 100.173M62.03 93.698C62.3897 93.698 62.7495 93.8176 62.9893 94.0576C62.8693 94.4173 62.6295 94.8965 62.5096 95.2562C62.1499 95.9764 61.91 96.8153 61.6702 97.5347M60.591 94.4173C60.8308 94.0576 61.3105 93.698 61.7902 93.698C61.5503 95.3767 61.4304 96.9358 61.3105 98.6146C61.3105 98.7342 61.3105 98.7342 61.1905 98.8537C61.1905 98.7342 61.0707 98.6146 61.0707 98.4941M63.1092 104.13C62.2698 103.77 61.6702 102.811 61.3105 101.852C61.4304 101.492 61.4304 101.013 61.5503 100.653M65.5075 102.572C65.2677 103.411 64.6681 104.25 63.7088 104.25C63.5888 104.25 63.5888 104.25 63.469 104.25C63.349 103.891 63.1092 103.531 62.9893 103.171C62.6295 102.332 62.1499 101.612 61.91 100.773H62.03M105.559 97.0554C105.439 97.8943 105.2 98.9742 104.84 99.574C104.84 99.6936 104.72 99.8131 104.6 99.9336C103.641 99.0938 102.681 98.2549 101.722 97.4151M101.722 97.4151C101.722 97.2955 101.842 97.2955 101.842 97.175M101.722 97.4151C101.482 97.7747 101.362 98.0148 101.122 98.3745C101.003 98.4941 101.003 98.4941 101.003 98.4941C101.003 99.2134 101.003 99.9336 101.003 100.653C101.242 100.653 101.602 100.653 101.842 100.653C102.082 100.653 102.322 100.653 102.561 100.653C102.681 100.653 102.801 100.653 102.921 100.653C102.921 100.653 102.921 100.653 103.041 100.653C103.521 100.653 103.881 100.532 104.24 100.293C104.36 100.173 104.36 100.173 104.48 100.053M98.1246 99.4535C97.525 98.7342 97.2852 97.8943 97.1653 97.0554C97.7648 97.175 98.3644 97.0554 98.964 97.0554C99.4436 97.0554 99.8034 97.0554 100.283 97.0554C100.163 97.175 100.163 97.2955 100.043 97.4151M97.0453 96.6958C97.0453 95.8559 97.1653 95.1366 97.525 94.5369C97.645 94.2977 97.7648 94.1772 97.8848 93.9371C98.6043 94.8965 99.5636 95.7364 100.403 96.4557C100.403 96.5753 100.283 96.5753 100.283 96.6958M101.122 92.2584H101.242C101.482 92.2584 101.962 92.3789 102.202 92.6181C102.322 92.7386 102.442 92.8581 102.681 92.8581C102.082 93.8176 101.602 94.6574 101.003 95.6168M98.1246 93.698C98.6043 93.2178 99.2038 92.7386 99.9233 92.4985C100.163 92.3789 100.523 92.2584 100.763 92.2584C100.763 93.5775 100.763 94.777 100.643 96.096C100.643 96.096 100.643 96.2156 100.523 96.2156M100.643 100.773C100.523 100.773 100.403 100.773 100.283 100.773C99.4436 100.653 98.8441 100.293 98.2445 99.6936C98.7241 99.2134 99.2038 98.7342 99.5636 98.2549C99.5636 98.7342 100.163 99.0938 100.643 98.8537M56.0342 78.1087C55.4346 77.629 54.9549 77.1493 54.3554 76.6697C54.3554 75.9502 54.4752 75.3506 54.4752 74.6311C55.0749 74.6311 55.6744 74.6311 56.1541 74.6311C56.1541 75.5904 56.0342 76.7896 56.0342 78.1087ZM52.6766 77.9887C52.6766 78.1087 52.6766 78.1087 52.6766 77.9887V77.9887ZM67.666 86.0231C67.666 85.9031 67.666 85.9031 67.666 85.7833C67.546 85.4235 67.4262 85.0638 67.0664 84.824C66.8266 84.704 66.4669 84.704 66.227 84.704C66.5867 83.1452 67.3062 81.7061 67.9058 80.2671C67.9058 82.1857 67.7859 84.1045 67.666 86.0231ZM57.8329 66.3569L59.6316 66.1171C59.6316 66.1171 59.6316 65.8772 59.6316 65.5175L62.9893 66.237C64.0685 67.5561 65.2677 68.9951 66.1071 70.554C66.5867 71.3934 66.9465 72.2328 67.3062 73.1921C65.6274 73.1921 63.9486 73.1921 62.2698 73.1921C61.91 72.9523 61.5503 72.7125 61.1905 72.3527C60.2312 71.6332 59.2719 71.0337 58.3126 70.554C58.1926 69.4747 57.9528 67.4361 57.713 65.1577C57.5931 65.5175 57.713 65.8772 57.8329 66.3569ZM49.0791 72.9523C50.3981 72.9523 51.5973 73.0722 52.9164 73.0722C51.5973 72.9523 50.2782 72.9523 49.0791 72.9523ZM54.4752 73.0722C55.0749 73.0722 55.6744 73.0722 56.1541 73.0722V73.1921C55.5545 73.0722 54.9549 73.0722 54.4752 73.0722ZM56.0342 70.3141C56.1541 71.6332 56.274 72.4726 56.274 72.4726C56.274 72.4726 56.274 72.5925 56.274 72.7125C55.6744 72.7125 55.0749 72.7125 54.5952 72.7125C54.5952 72.1128 54.5952 71.5133 54.5952 70.9137C54.9549 70.6739 55.4346 70.554 56.0342 70.3141ZM49.5587 92.3789C49.7986 92.2584 50.0384 92.1388 50.2782 92.0192C50.2782 92.1388 50.2782 92.2584 50.2782 92.3789C50.2782 92.6181 50.638 92.6181 50.638 92.3789C50.638 92.2584 50.638 92.0192 50.638 91.8987C51.4774 91.299 51.9571 90.5799 52.4368 89.7405C52.6766 90.46 52.9164 91.0598 53.0363 91.7792C53.0363 91.8987 53.1562 91.8987 53.1562 91.8987C53.0363 92.1388 52.7964 92.3789 52.6766 92.4985C51.4774 93.3383 50.3981 93.2178 49.5587 92.3789ZM58.1926 72.3527C58.6723 72.5925 59.0321 72.9523 59.5117 73.1921C59.0321 73.1921 58.6723 73.1921 58.1926 73.1921C58.1926 72.8323 58.1926 72.5925 58.1926 72.3527ZM64.5482 75.5904C64.6681 75.3506 64.5482 75.1107 64.3084 74.8709C64.1884 74.7511 64.1884 74.7511 64.0685 74.6311C65.2677 74.6311 66.3469 74.6311 67.546 74.6311C67.546 74.9909 67.666 75.4705 67.546 75.8302C67.546 75.9502 67.546 76.19 67.4262 76.3099C67.4262 76.4299 67.4262 76.4299 67.4262 76.5497C67.1863 78.1087 66.3469 79.5476 65.7474 80.9866C65.6274 81.1066 65.6274 81.2264 65.5075 81.4663C65.3876 79.5476 65.1478 77.509 64.5482 75.5904ZM65.6274 100.532C65.6274 101.013 65.6274 101.612 65.5075 102.212C64.9079 101.852 64.3084 101.492 63.7088 101.253C63.2291 101.013 62.8693 100.773 62.3897 100.653C62.5096 100.532 62.5096 100.532 62.5096 100.413C63.5888 100.413 64.5482 100.413 65.6274 100.532ZM66.3469 93.3383C66.227 93.0982 66.1071 92.9786 65.8672 92.8581C65.7474 92.6181 65.6274 92.3789 65.3876 92.2584C65.5076 92.0192 65.6274 91.7792 65.6274 91.6596C65.7474 91.6596 65.8672 91.5391 65.9872 91.4195C66.1071 91.4195 66.1071 91.4195 66.227 91.4195C66.7067 91.4195 67.1863 91.4195 67.4262 90.9393C67.4262 92.8581 67.546 94.8965 67.7859 96.8153C67.546 95.4963 66.9465 94.4173 66.3469 93.3383ZM102.561 96.6958C102.442 96.6958 102.322 96.6958 102.082 96.6958C102.681 95.6168 103.401 94.5369 104 93.4579C104.24 93.698 104.48 94.0576 104.72 94.2977C105.32 95.017 105.439 95.7364 105.439 96.5753C104.6 96.6958 103.641 96.6958 102.561 96.6958ZM95.9661 91.6596C95.6064 92.1388 95.2466 92.6181 94.8869 93.0982C96.3259 89.021 96.9255 83.1452 97.1653 78.9481C98.6043 81.5862 100.883 83.7447 103.761 85.0638C104 85.1836 104.24 85.1836 104.48 85.0638C104.48 85.5434 104.6 86.0231 104.6 86.5028C104.6 86.8625 104.72 87.2222 104.72 87.582C104.72 87.9417 104.84 88.3015 105.08 88.6612C105.2 88.7812 105.32 88.7812 105.439 88.901C105.2 89.3807 104.84 89.7405 104.6 90.2201C104.36 90.1002 104.12 90.1002 103.881 89.9803C101.242 88.3015 97.8848 89.5007 95.9661 91.6596ZM102.921 100.773C102.801 100.773 102.801 100.773 102.921 100.773V100.773Z" stroke="black" strokeWidth="0.8" stroke-miterlimit="10" strokeLinecap="round" stroke-linejoin="round"/>
<path d="M68.5064 1.84213C68.5064 1.84213 65.1488 0.523054 63.8297 3.8807C63.8297 3.8807 62.5106 5.19977 62.7505 6.87859C62.7505 6.87859 62.5106 9.27691 63.3501 10.3561L63.8297 11.0756L64.0695 7.47816C64.0695 7.47816 63.9497 6.1591 65.6285 5.67943C65.6285 5.67943 66.5878 4.24044 69.106 5.31969L70.1852 5.79934C70.1852 5.79934 70.545 5.19977 72.2238 5.55952C73.9026 5.91926 73.7827 7.23833 73.7827 7.23833V10.2362C73.7827 10.2362 75.1018 9.27691 75.1018 7.83792C75.1018 7.83792 75.9412 7.11842 75.4615 5.91926C75.4615 5.91926 75.3417 4.48028 74.3823 3.40103C73.4229 2.32179 70.7848 0.163306 68.5064 1.84213Z" fill="#E0E0E0"/>
<path d="M63.9477 7.478C63.468 11.9149 62.9884 18.5102 68.7444 19.5895C69.104 19.5895 69.224 19.2297 68.8642 19.1098C65.7464 18.3904 64.1875 16.1119 63.9477 12.8742C63.8278 11.0754 63.9477 9.27673 64.0676 7.478C64.1875 7.35808 63.9477 7.35808 63.9477 7.478Z" fill="black"/>
<path d="M73.543 6.87867C73.543 9.03714 73.6629 11.1957 73.6629 13.3541C73.543 16.5918 72.104 18.2706 68.9862 19.23C68.7463 19.3499 68.8663 19.7096 69.1061 19.5897C70.9049 19.2299 72.9434 18.1508 73.6629 16.4719C74.2625 15.2727 74.0227 13.7139 74.0227 12.3948C74.0227 10.596 74.0227 8.6774 73.7828 6.87867C73.9028 6.63883 73.543 6.63883 73.543 6.87867Z" fill="black"/>
<path d="M65.0291 17.3112C64.9092 18.5103 64.6694 20.0693 64.9092 21.2684C64.9092 21.3884 65.1491 21.3884 65.269 21.2684C65.6288 20.0693 65.5088 18.6303 65.3889 17.3112C65.269 17.0713 65.0291 17.0713 65.0291 17.3112Z" fill="black"/>
<path d="M72.2236 17.7909C72.2236 18.6304 72.2236 19.4697 72.3435 20.1892C72.3435 20.4291 72.7032 20.3092 72.8232 20.1892C72.9431 19.4697 72.7032 18.6304 72.5834 17.7909C72.4634 17.5511 72.2236 17.5511 72.2236 17.7909Z" fill="black"/>
<path d="M63.8287 10.9558C63.7088 10.596 63.2292 10.2363 62.7495 10.2363C62.2699 10.2363 62.03 10.8358 61.9101 11.3155C61.7902 12.035 62.0301 12.7545 62.3897 13.2342C62.7495 13.7139 63.2292 14.3134 63.9487 14.0736C64.1885 13.9537 64.0685 13.7139 63.9487 13.7139C63.2292 13.7139 62.6296 12.6346 62.5097 12.035C62.5097 11.7951 62.3897 11.3155 62.5097 11.0756C62.7495 10.4761 63.469 10.716 63.7088 11.0756C63.7088 11.1956 63.9487 11.0756 63.8287 10.9558Z" fill="black"/>
<path d="M74.141 11.1956C74.3808 10.8358 74.8605 9.75654 75.3401 10.4761C75.58 10.7159 75.4601 11.3154 75.4601 11.5552C75.4601 11.915 75.3401 12.3947 75.1003 12.7544C74.9804 12.9943 74.3808 13.474 74.141 13.354C74.0211 13.354 73.9012 13.354 73.9012 13.5938V13.7138C73.9012 13.8337 74.0211 13.8337 74.141 13.8337C75.58 13.9536 76.0596 11.7951 75.8198 10.8358C75.6999 10.3561 75.4601 9.87646 74.8605 9.87646C74.261 9.87646 73.9012 10.5959 73.7812 11.0756C73.7812 11.1956 74.0211 11.3154 74.141 11.1956Z" fill="black"/>
<path d="M74.502 10.8359C74.7418 11.0757 74.8617 11.3155 74.9816 11.6753C75.1015 11.9151 75.1015 12.2748 75.2214 12.5147C75.3413 12.6346 75.4613 12.6346 75.5811 12.5147C75.7011 12.155 75.4613 11.7952 75.3413 11.4355C75.2214 11.0757 74.9816 10.8359 74.7418 10.7159C74.6218 10.596 74.502 10.7159 74.502 10.8359Z" fill="black"/>
<path d="M74.8624 11.3156C74.7424 11.5554 74.6225 11.7952 74.5026 12.155C74.3827 12.3949 74.2628 12.6347 74.3827 12.8745H74.5026C74.6225 12.7545 74.7424 12.3949 74.7424 12.2749C74.8624 12.0351 74.9822 11.7952 74.9822 11.4355C75.1022 11.3156 74.8624 11.1957 74.8624 11.3156Z" fill="black"/>
<path d="M62.6295 12.0352C62.9892 11.6755 63.349 11.4357 63.7087 11.3157C63.8286 11.1959 63.7087 10.956 63.5888 11.0759C63.1091 11.1959 62.7493 11.5556 62.3896 11.9154C62.3896 12.0352 62.5095 12.1552 62.6295 12.0352Z" fill="black"/>
<path d="M62.749 11.6752C62.749 11.9151 62.8689 12.1549 62.9888 12.3947C63.1088 12.6346 63.1088 12.8744 63.2286 12.8744C63.3486 12.8744 63.3486 12.8744 63.4685 12.7544C63.5884 12.5146 63.3486 12.2748 63.3486 12.1549C63.2286 11.9151 63.2286 11.6752 63.1088 11.4354C62.8689 11.4354 62.749 11.5553 62.749 11.6752Z" fill="black"/>
<path d="M69.1058 5.0799C67.9066 4.3604 66.3477 4.3604 65.5082 5.55955C65.3884 5.67947 65.6282 5.91931 65.7481 5.67947C66.5875 4.60023 67.9066 4.84005 68.9858 5.19981C69.1058 5.31972 69.2256 5.19981 69.1058 5.0799Z" fill="black"/>
<path d="M66.1067 5.91937C65.627 5.91937 65.1474 5.91937 64.6677 6.15921C64.3079 6.39904 63.9482 6.99862 63.9482 7.47827C63.9482 7.47827 64.0681 7.59819 64.0681 7.47827C64.3079 7.23844 64.4279 6.75878 64.7876 6.51895C65.1474 6.15921 65.627 6.03928 66.1067 6.03928C66.2266 6.03928 66.2266 5.91937 66.1067 5.91937Z" fill="black"/>
<path d="M69.2252 5.31981C69.4651 5.07998 69.7049 4.84015 70.0647 4.72024C70.3045 4.60032 70.5444 4.36048 70.7842 4.24057C70.904 4.12065 70.7842 4.00074 70.6642 4.12066C70.4244 4.24057 70.0647 4.36048 69.9447 4.60032C69.7049 4.84015 69.4651 5.07998 69.1054 5.31981C68.9854 5.31981 69.1053 5.43973 69.2252 5.31981Z" fill="black"/>
<path d="M69.4656 5.43958C69.7054 5.31967 69.9452 5.19975 70.1851 5.19975C70.4249 5.07984 70.5449 5.07984 70.7847 4.95993C70.9046 4.95993 70.7847 4.72009 70.7847 4.72009C70.305 4.72009 69.8254 5.07984 69.4656 5.19975C69.2258 5.31967 69.3457 5.5595 69.4656 5.43958Z" fill="black"/>
<path d="M70.1852 5.67956C70.3051 5.67956 70.4251 5.55964 70.545 5.55964C70.6649 5.55964 70.7848 5.55964 70.7848 5.43973V5.31982C70.545 5.1999 70.3051 5.31981 70.0653 5.43973C69.8254 5.55964 69.9454 5.79947 70.1852 5.67956Z" fill="black"/>
<path d="M71.1433 5.1999C71.3832 5.07998 71.7429 5.07998 71.9827 5.07998C72.3425 5.07998 72.5824 5.1999 72.8222 5.1999C72.9421 5.1999 72.9421 5.07998 72.9421 5.07998C72.4624 4.60032 71.6231 4.84015 71.1433 4.96007C70.9035 4.96007 71.0234 5.1999 71.1433 5.1999Z" fill="black"/>
<path d="M72.2233 5.55951C72.4631 5.55951 72.8229 5.67942 73.0627 5.79935C73.3026 5.91926 73.4224 6.15909 73.6623 6.39892C73.7822 6.51883 73.9021 6.39892 73.9021 6.27901C73.7822 5.67943 72.9428 5.31968 72.3433 5.19977C72.1034 5.43959 72.1034 5.55951 72.2233 5.55951Z" fill="black"/>
<path d="M68.5055 1.84233C67.3063 1.48258 66.3469 1.24275 65.2677 1.96224C64.4283 2.44191 63.7088 3.1614 63.5889 4.12073C63.5889 4.24064 63.7088 4.24064 63.8288 4.12073C64.0686 3.1614 64.6681 2.56182 65.6274 2.08216C66.4669 1.72241 67.5462 1.84233 68.5055 1.84233C68.6253 1.96224 68.6253 1.96224 68.5055 1.84233Z" fill="black"/>
<path d="M64.7889 3.521C63.5898 3.40108 62.3907 5.43965 62.6305 6.51888C62.6305 6.6388 62.7503 6.6388 62.7503 6.51888C62.9902 6.03923 62.9902 5.43965 63.23 4.95998C63.4698 4.48032 64.0695 3.76083 64.669 3.76083C64.9089 3.76083 64.9089 3.521 64.7889 3.521Z" fill="black"/>
<path d="M63.4696 5.67939C62.2704 6.63872 62.1505 8.67729 62.87 9.87644H62.9899C62.9899 8.43745 62.5103 6.99846 63.5895 5.7993C63.8294 5.7993 63.5895 5.55948 63.4696 5.67939Z" fill="black"/>
<path d="M63.2303 8.91708C63.1103 9.39675 62.9905 10.2362 63.3502 10.7158H63.4701C63.4701 10.476 63.3502 10.2362 63.3502 9.8764C63.3502 9.51666 63.3502 9.27683 63.3502 8.91708C63.3502 8.79717 63.2303 8.79717 63.2303 8.91708Z" fill="black"/>
<path d="M68.6266 1.96199C69.7058 0.762834 71.1449 1.60224 72.4639 1.84208C72.5839 1.84208 72.5839 1.72216 72.5839 1.72216C71.5046 0.882751 69.466 0.64292 68.5067 1.72216C68.3868 1.96199 68.5067 2.08191 68.6266 1.96199Z" fill="black"/>
<path d="M71.1446 2.3218C71.6244 2.3218 71.984 2.3218 72.4637 2.3218C72.9434 2.3218 73.1832 2.44172 73.6628 2.68155C73.7828 2.68155 73.9027 2.68155 73.7828 2.56163C73.423 1.72222 71.7442 1.96205 71.1446 2.20189C71.0247 2.08197 71.0247 2.3218 71.1446 2.3218Z" fill="black"/>
<path d="M72.5836 2.92144C73.0632 3.04135 73.4229 3.16127 73.9026 3.28119C74.2624 3.4011 74.6222 3.76084 74.9819 4.00068C75.1018 4.00068 75.2217 3.88077 75.1018 3.88077C74.5022 3.16127 73.4229 2.80152 72.5836 2.80152C72.5836 2.6816 72.4636 2.92144 72.5836 2.92144Z" fill="black"/>
<path d="M74.0223 4.12046C74.3821 4.60013 74.8618 4.72004 75.1016 5.31962C75.3414 5.9192 75.4613 6.51877 75.8211 6.99844C75.8211 7.11835 76.0609 7.11835 76.0609 6.99844C75.941 6.39886 75.7011 5.67937 75.3414 5.07978C75.1016 4.48021 74.502 4.48021 74.1422 4.12046C74.0223 3.88063 73.9024 4.00055 74.0223 4.12046Z" fill="black"/>
<path d="M74.502 6.15911C75.1015 6.75869 74.8617 7.71801 74.9816 8.55742C74.9816 8.67734 75.1015 8.55742 75.1015 8.55742C75.3413 8.19768 75.2214 7.5981 75.1015 7.11844C74.9816 6.63877 74.8616 6.27903 74.502 6.03919C74.6218 5.91927 74.502 6.15911 74.502 6.15911Z" fill="black"/>
<path d="M74.382 7.83811C74.382 8.31776 74.382 8.67752 74.2621 9.03726C74.1422 9.39701 73.9023 9.75676 73.9023 10.1165C73.9023 10.2364 74.0222 10.4763 74.1422 10.2364C74.6219 9.63684 74.8617 8.43769 74.6218 7.71819C74.6218 7.59828 74.382 7.71819 74.382 7.83811Z" fill="black"/>
<path d="M72.4628 20.1893C72.4628 22.5876 72.3429 25.7054 68.9852 25.5855C67.906 25.5855 66.7069 25.1058 65.9874 24.2664C65.028 23.3071 65.148 21.988 65.2679 20.7889C65.2679 20.549 64.9081 20.549 64.9081 20.7889C64.6683 21.988 64.5483 23.547 65.3878 24.5063C66.2272 25.4656 67.7861 25.9452 68.9852 25.9452C72.3429 26.0652 73.0624 22.8275 72.7026 20.1893C72.7026 20.0694 72.4628 20.0694 72.4628 20.1893Z" fill="black"/>
<path d="M64.9081 19.9494C61.0708 21.7481 57.1136 23.6668 53.3962 25.5855C53.1564 25.7054 53.3962 25.9452 53.6361 25.9452C57.4734 24.1464 61.3107 22.1079 65.1479 20.1892C65.1479 20.1892 65.0281 19.9494 64.9081 19.9494Z" fill="black"/>
<path d="M54.2358 26.7847C56.2744 28.9433 56.2744 32.4208 56.7541 35.2988C56.7541 35.5386 57.1138 35.4187 57.1138 35.2988C56.874 32.4208 56.6341 28.8233 54.4756 26.6649C54.3558 26.5449 54.1159 26.6649 54.2358 26.7847Z" fill="black"/>
<path d="M52.4368 27.1445C49.4389 32.7805 46.4411 38.8962 44.4025 45.012C42.7237 50.1683 45.9614 54.9649 48.3597 59.4019C48.4796 59.5218 48.7195 59.4019 48.5995 59.2819C45.2419 53.0463 43.0834 48.8492 45.7216 42.2539C47.7601 37.0975 50.1584 32.181 52.4368 27.1445C52.5568 27.1445 52.4368 27.0245 52.4368 27.1445Z" fill="black"/>
<path d="M48.5993 59.2816C49.1989 59.0418 49.7984 58.802 50.398 58.5621C50.8777 58.4423 51.2374 58.2025 51.5972 57.9626C51.7171 57.8427 51.5972 57.6028 51.3573 57.7228C50.5179 58.3223 49.4387 58.5621 48.4794 58.9219C48.3594 59.0418 48.4794 59.4016 48.5993 59.2816Z" fill="black"/>
<path d="M50.0391 48.4894C50.6386 51.6072 51.1183 54.8449 51.598 57.9628C51.598 58.3225 52.0776 58.2026 52.0776 57.8428C51.598 54.7251 51.1183 51.4873 50.2789 48.3695C50.2789 48.2496 50.0391 48.2496 50.0391 48.4894Z" fill="black"/>
<path d="M50.2787 48.4895C52.0775 44.1725 53.9961 40.0954 56.1546 36.0182C56.2745 35.7784 55.9147 35.6585 55.7949 35.7784C53.5164 39.8556 51.4779 44.0526 49.9189 48.3695C49.9189 48.6094 50.2787 48.6094 50.2787 48.4895Z" fill="black"/>
<path d="M55.1961 38.0567C54.4767 39.8555 55.5558 42.1339 56.8749 43.333C57.1148 43.4529 57.3546 43.2131 57.1148 43.0932C56.3953 42.3737 55.9156 41.6542 55.5558 40.6949C55.316 39.8555 55.316 39.016 55.1961 38.0567C55.1961 37.9368 55.316 38.0567 55.1961 38.0567Z" fill="black"/>
<path d="M56.5155 43.3329C56.3956 46.3308 56.2757 49.0888 57.5948 51.8469C57.7147 52.0867 58.0744 51.9669 57.9545 51.727C57.4748 50.288 56.8753 48.969 56.8753 47.41C56.7553 46.0909 56.8753 44.7719 56.8753 43.3329C56.8753 43.0931 56.5155 43.0931 56.5155 43.3329Z" fill="black"/>
<path d="M57.7147 51.3673C64.5499 47.4101 74.5029 48.4894 82.0576 49.4487C82.2974 49.4487 82.2974 48.969 82.0576 48.969C74.5029 48.0097 64.3101 46.8106 57.5948 51.0076C57.355 51.2475 57.5948 51.4873 57.7147 51.3673Z" fill="black"/>
<path d="M82.1754 26.6648C81.8156 29.6627 81.5758 32.6606 81.3359 35.5386C81.3359 35.6585 81.5758 35.7784 81.5758 35.5386C82.1754 32.6606 82.5351 29.5428 82.4152 26.5448C82.4152 26.425 82.1754 26.425 82.1754 26.6648Z" fill="black"/>
<path d="M81.215 35.4186C80.9752 36.3779 80.9752 37.2173 81.3349 38.0567C81.5747 38.5364 81.8145 39.0161 82.1743 39.4957C82.654 40.2152 82.8938 40.8148 83.2536 41.5343C83.2536 41.6542 83.4934 41.6542 83.4934 41.5343C83.4934 40.6949 83.1337 40.0953 82.654 39.4957C81.8145 38.2966 81.0951 36.9775 81.4549 35.5385C81.5747 35.4186 81.3349 35.2987 81.215 35.4186Z" fill="black"/>
<path d="M83.2554 41.5342C83.7351 42.7333 83.2554 43.8126 83.0156 44.8919C83.0156 45.1317 83.2554 45.2516 83.3754 45.0117C83.8551 43.9325 84.0949 42.4935 83.6152 41.4143C83.3754 41.2944 83.1356 41.4143 83.2554 41.5342Z" fill="black"/>
<path d="M83.0156 44.2923C83.2555 46.091 82.536 47.2902 81.5766 48.7292C81.4567 48.8491 81.6965 49.0889 81.8165 48.969C83.2555 48.0097 83.6152 45.8512 83.2555 44.1723C83.2555 44.0525 83.0156 44.0524 83.0156 44.2923Z" fill="black"/>
<path d="M72.583 20.669C76.5402 22.2279 80.6174 23.547 84.4547 25.1059C84.6945 25.2258 84.8144 24.866 84.5746 24.7462C80.6174 23.1872 76.6602 21.6283 72.583 20.4292C72.583 20.5491 72.583 20.669 72.583 20.669Z" fill="black"/>
<path d="M84.2148 25.4656C86.3734 30.3821 88.5318 35.2987 90.8102 40.0953C90.9301 40.3352 91.2899 40.0953 91.1699 39.9754C89.1314 35.0588 86.9729 30.1423 84.5746 25.3456C84.4547 25.1058 84.2148 25.3456 84.2148 25.4656Z" fill="black"/>
<path d="M91.0505 40.3352C92.4895 44.4123 93.8085 48.4895 94.4081 52.9264C94.4081 53.1662 94.8877 53.1662 94.8877 52.9264C94.4081 48.6094 92.9691 44.4123 91.4102 40.3352C91.1704 40.0954 90.9305 40.2153 91.0505 40.3352Z" fill="black"/>
<path d="M83.8551 42.2537C84.3348 42.7334 84.4546 43.4529 85.0542 43.8127C85.4139 44.0525 85.8936 44.2923 86.2534 44.0525C86.3733 44.0525 86.2534 43.8127 86.2534 43.8127C86.0136 43.8127 85.7737 43.8126 85.4139 43.6927C85.1741 43.5728 84.9343 43.333 84.8144 43.0932C84.4546 42.8533 84.2148 42.4935 83.8551 42.2537C83.8551 42.1339 83.7351 42.2537 83.8551 42.2537Z" fill="black"/>
<path d="M85.8945 44.1723C86.0144 44.7719 86.2543 45.3716 86.614 45.8512C86.9738 46.2109 87.5733 46.6906 88.053 46.5707C88.1729 46.5707 88.1729 46.4507 88.053 46.4507C87.9331 46.3309 87.6932 46.2109 87.4534 46.2109C87.2136 46.091 86.9738 45.9711 86.7339 45.7313C86.2543 45.3716 86.0144 44.8919 85.8945 44.2923C86.0144 44.0524 85.8945 44.0525 85.8945 44.1723Z" fill="black"/>
<path d="M87.4522 46.6906C87.692 47.41 87.9318 48.0097 88.2916 48.6092C88.5314 48.969 88.7713 49.6885 89.2509 49.4486C89.3708 49.4486 89.3708 49.2088 89.2509 49.2088C88.8911 48.849 88.5314 48.3694 88.2916 47.8897C88.0518 47.41 87.812 47.0504 87.692 46.5707C87.692 46.3309 87.3323 46.4507 87.4522 46.6906Z" fill="black"/>
<path d="M89.1333 49.6886C89.6129 50.528 90.5722 50.8877 90.932 51.7272C91.2917 52.5665 91.5315 53.6458 92.0112 54.4853C92.1312 54.7251 92.371 54.6051 92.371 54.3653C92.1312 53.406 91.6515 52.4467 91.2917 51.6072C90.812 50.7679 89.8527 50.528 89.3731 49.6886C89.2531 49.4488 89.0133 49.5687 89.1333 49.6886Z" fill="black"/>
<path d="M94.4072 53.0462C96.086 55.9243 96.8055 59.0421 96.086 62.3997C96.086 62.6396 96.3259 62.6396 96.3259 62.5196C97.0454 59.2819 96.6856 55.6845 94.647 52.9264C94.647 52.6866 94.4072 52.8064 94.4072 53.0462Z" fill="black"/>
<path d="M94.4072 56.0443C94.5271 57.1235 94.647 58.2027 94.8868 59.282C95.0068 59.8815 95.0068 60.4811 95.6063 60.721C95.7263 60.721 95.7263 60.721 95.7263 60.6011C95.7263 59.5218 95.8462 58.3227 95.4864 57.2434C95.4864 57.1235 95.3665 57.2434 95.3665 57.2434C95.2466 57.843 95.3665 58.3227 95.3665 58.9222C95.3665 59.162 95.4864 59.6417 95.3665 59.8816C95.2466 60.2413 95.2466 60.2413 95.1266 59.7617C94.647 58.6824 94.647 57.1235 94.4072 55.9243C94.5271 55.9243 94.4072 55.9243 94.4072 56.0443Z" fill="black"/>
<path d="M92.0107 54.4851C92.0107 54.7249 92.0107 54.9647 92.0107 55.0846C92.0107 55.3244 92.0107 55.4444 92.0107 55.6842C92.0107 55.8041 92.2506 55.8041 92.3705 55.6842C92.3705 55.4444 92.3705 55.3244 92.3705 55.0846C92.3705 54.8448 92.3705 54.6049 92.3705 54.4851C92.3705 54.2452 92.0107 54.2452 92.0107 54.4851Z" fill="black"/>
<path d="M48.9594 59.042C48.5997 60.6009 48.4797 62.2797 48.5997 63.9585C48.7196 64.798 49.0793 65.3975 50.0386 65.7573C50.3984 65.8772 50.5183 65.3975 50.1586 65.2776C48.3598 64.678 49.0793 60.6009 49.1992 59.162C49.1992 58.9221 48.9594 58.8022 48.9594 59.042Z" fill="black"/>
<path d="M49.6787 63.3591C49.9185 64.1984 50.0385 65.1577 50.638 65.8772C50.9978 66.357 51.7173 66.8366 52.3168 66.9565C52.4368 66.9565 52.5567 66.8367 52.4368 66.7167C51.8372 66.237 51.2376 66.1171 50.758 65.5175C50.2783 64.9179 50.1584 64.0786 49.7986 63.3591C49.7986 63.2391 49.6787 63.2391 49.6787 63.3591Z" fill="black"/>
<path d="M51.9575 63.119C52.557 64.438 51.4778 67.5559 53.5164 68.0356C53.6363 68.0356 53.7562 67.9156 53.6363 67.7957C51.9575 66.5966 52.9168 64.558 52.1974 62.9991C52.0774 62.7592 51.8376 62.8792 51.9575 63.119Z" fill="black"/>
<path d="M51.717 58.2026C53.2758 59.7614 54.3551 60.9607 54.2352 63.359C54.1153 64.7979 53.7555 65.9971 53.9953 67.3162C53.9953 67.4361 54.1153 67.4361 54.1153 67.3162C54.1153 65.3976 54.9547 63.4788 54.5949 61.5602C54.2352 60.1212 53.156 58.9221 51.9568 57.9628C51.717 57.9628 51.597 58.0826 51.717 58.2026Z" fill="black"/>
<path d="M68.6262 51.0077C72.8232 53.8856 76.9003 54.4852 77.9796 60.2411C78.5791 63.7187 77.8596 67.9157 77.8596 71.5133C77.8596 78.4684 78.8189 85.4235 79.0588 92.4985C79.0588 92.6181 79.2986 92.6181 79.2986 92.4985C79.0587 83.1451 78.2194 73.9115 78.2194 64.4382C78.2194 61.92 78.6991 58.9221 77.4999 56.6437C75.8211 53.6458 71.5041 52.5665 68.866 50.8877C68.6262 50.7678 68.5062 50.8877 68.6262 51.0077Z" fill="black"/>
<path d="M73.1825 93.5775C74.9813 92.2584 77.0199 91.5391 79.1783 91.4195C79.4181 91.4195 79.4181 90.9393 79.1783 90.9393C76.8999 91.0598 74.7414 91.7791 73.0626 93.3383C72.8228 93.4579 73.0626 93.698 73.1825 93.5775Z" fill="black"/>
<path d="M72.703 92.8581C71.6237 91.6587 70.4245 89.7403 70.1847 88.0615C69.9449 86.2628 70.9042 84.3441 71.5037 82.6653C71.6237 82.4255 71.144 82.3055 71.0241 82.5454C70.3046 84.464 69.3453 86.5026 69.7051 88.4212C70.0647 90.1001 71.2639 91.7792 72.3432 93.0982C72.583 93.3374 72.8228 93.0982 72.703 92.8581Z" fill="black"/>
<path d="M71.2647 82.5454C68.5066 75.4704 67.907 66.7165 68.8664 59.4017C68.8664 59.1618 68.5066 59.0419 68.5066 59.2817C67.1875 66.4766 68.1468 75.8301 71.0248 82.6653C71.1447 82.7852 71.3845 82.6653 71.2647 82.5454Z" fill="black"/>
<path d="M57.7124 51.1275C57.1128 51.967 56.873 53.0462 56.9928 54.0056C56.9928 54.2454 57.3526 54.2454 57.3526 54.0056C57.4725 53.0462 57.5925 52.0869 57.9523 51.2475C58.0721 51.0077 57.8323 51.0077 57.7124 51.1275Z" fill="black"/>
<path d="M74.7412 54.1255C75.5807 53.406 76.3002 52.5665 77.2595 51.967C78.0989 51.3674 79.0582 51.0077 79.8977 50.4081C80.0175 50.2881 80.0175 50.0483 79.7777 50.0483C78.6984 50.2881 77.6193 51.1276 76.7798 51.7272C75.9405 52.3267 75.101 53.0462 74.5014 53.8856C74.3815 54.1255 74.6214 54.2453 74.7412 54.1255Z" fill="black"/>
<path d="M88.1727 53.6456C95.2477 57.7228 93.6889 64.9177 93.3291 71.9927C92.9693 77.7487 93.2092 83.7444 91.7702 89.2606C91.7702 89.3805 92.01 89.5004 92.01 89.3805C94.1685 81.8258 93.5689 73.3118 93.9287 65.5173C94.1686 59.4016 93.8088 56.5236 88.2926 53.5257C88.1727 53.4058 88.0528 53.5257 88.1727 53.6456Z" fill="black"/>
<path d="M84.9348 80.9867C85.1746 75.7104 85.0547 70.4341 85.6543 65.1578C85.6543 65.0379 85.5343 65.0379 85.5343 65.1578C84.3352 70.1943 84.4551 75.8303 84.9348 80.9867C84.8149 80.9867 84.9348 80.9867 84.9348 80.9867Z" fill="black"/>
<path d="M85.4151 64.9177C84.5757 63.8384 83.3766 63.2388 82.2973 62.6393C80.9782 61.9198 79.5392 60.9605 78.1003 60.6007C77.9803 60.6007 77.8604 60.7207 77.9803 60.8405C80.0189 62.6393 83.2566 62.999 85.1753 65.1575C85.2952 65.2774 85.535 65.0376 85.4151 64.9177Z" fill="black"/>
<path d="M81.6971 49.9282C83.0162 50.4079 83.8556 51.2473 84.695 52.2067C85.4145 52.9261 86.3739 53.2859 87.0934 54.1253C87.2132 54.2453 87.4531 54.1253 87.3332 53.8855C86.6137 52.9261 85.5344 52.5664 84.695 51.607C83.8556 50.7677 82.8963 50.0482 81.817 49.6884C81.6971 49.6884 81.5772 49.8084 81.6971 49.9282Z" fill="black"/>
<path d="M72.9431 93.3383C72.7033 95.1366 72.2236 97.6552 73.0631 99.4535C73.1829 99.574 73.4228 99.4535 73.3029 99.3339C72.5834 97.5347 73.0631 95.1366 73.1829 93.3383C73.0631 93.2178 72.9431 93.2178 72.9431 93.3383Z" fill="black"/>
<path d="M73.0632 99.0938C74.622 99.6936 76.3009 100.053 78.0996 100.053C78.939 100.053 80.7378 100.173 81.4573 99.4535C82.1768 98.7342 81.6971 97.7747 81.3373 96.9349C80.6178 95.3767 79.8983 93.8175 78.8191 92.4985C78.6992 92.378 78.5792 92.4985 78.6992 92.6181C79.4187 93.4579 79.8983 94.2968 80.378 95.3767C81.0975 96.8153 82.4166 98.9742 79.5386 99.5731C77.5001 100.053 75.1017 99.3339 73.183 98.8537C72.9432 98.8537 72.9432 98.9742 73.0632 99.0938Z" fill="black"/>
<path d="M75.4617 96.8154C76.9007 95.9764 78.3397 95.9764 79.8986 95.7364C80.1384 95.7364 80.0185 95.3767 79.8986 95.3767C78.3397 95.3767 76.6609 95.7364 75.4617 96.5753C75.2219 96.6958 75.3418 96.8154 75.4617 96.8154Z" fill="black"/>
<path d="M85.2937 92.6181C85.0538 94.4173 84.5742 96.9349 85.4136 98.7342C85.5335 98.8537 85.7734 98.7342 85.6535 98.6146C84.934 96.8153 85.4136 94.4173 85.5335 92.6181C85.4136 92.4985 85.2937 92.4985 85.2937 92.6181Z" fill="black"/>
<path d="M85.4137 98.254C86.9726 98.8538 88.6514 99.2134 90.4502 99.2134C91.2897 99.2134 93.0883 99.3339 93.8079 98.6137C94.5274 97.8943 94.0477 96.9349 93.6879 96.096C92.9685 94.5369 92.249 92.9777 91.1697 91.6587C91.0498 91.5391 90.9299 91.6587 91.0498 91.7792C91.7693 92.6181 92.249 93.4579 92.7286 94.5369C93.4481 95.9755 94.7672 98.1344 91.8892 98.7342C89.8507 99.2134 87.4523 98.4941 85.5337 98.0148C85.2938 98.0148 85.2938 98.254 85.4137 98.254Z" fill="black"/>
<path d="M87.8123 95.9764C89.2513 95.1366 90.6902 95.1366 92.2492 94.8965C92.489 94.8965 92.3691 94.5369 92.2492 94.5369C90.6902 94.5369 89.0114 94.8965 87.8123 95.7363C87.5725 95.8559 87.6923 96.096 87.8123 95.9764Z" fill="black"/>
<path d="M67.4263 9.63678C67.0666 9.27704 66.4669 9.27704 65.9873 9.27704C65.6275 9.39696 65.028 9.39696 64.7881 9.87662C64.7881 9.99653 64.7881 9.99653 64.908 10.1165C65.2678 10.2363 65.6275 9.99653 65.9873 9.99653C66.4669 9.99653 66.8267 10.1165 67.3064 10.2363C67.4263 10.1165 67.5462 9.87662 67.4263 9.63678Z" fill="black"/>
<path d="M67.307 10.956C66.7075 10.5962 65.7481 10.7161 65.1485 10.956C65.0286 10.956 65.0286 11.1958 65.1485 11.1958C65.5082 11.1958 65.868 11.0758 66.2277 11.0758C66.5875 11.0758 66.9473 11.0758 67.307 11.1958C67.307 11.0758 67.427 10.956 67.307 10.956Z" fill="black"/>
<path d="M66.4674 10.8359C66.4674 10.9558 66.3475 11.1956 66.2276 11.1956C66.1077 11.1956 66.1077 11.1956 65.9878 11.1956C65.9878 11.1956 65.8678 11.0757 65.8678 10.9558C65.748 10.9558 65.628 10.9558 65.5081 10.9558C65.628 11.1956 65.748 11.5553 65.9878 11.5553C66.4674 11.5553 66.2276 11.0757 66.1077 10.8359C65.9878 10.596 65.748 10.7159 65.628 10.9558C65.628 11.1956 65.748 11.4355 65.9878 11.4355C66.1077 11.5553 66.2276 11.4355 66.3475 11.3155C66.4674 11.0757 66.4674 10.8359 66.3475 10.7159C66.1077 10.596 65.8678 10.596 65.8678 10.9558C65.8678 11.1956 66.1077 11.4355 66.3475 11.3155C66.5874 11.3155 66.7073 11.0757 66.4674 10.8359C66.4674 10.596 66.3475 10.596 66.2276 10.7159C66.1077 10.7159 66.1077 10.8359 66.1077 10.9558V11.0757C66.1077 11.1956 66.3475 11.3155 66.5874 11.1956C66.5874 11.0757 66.7073 11.0757 66.7073 10.9558C66.7073 10.596 66.2276 10.4761 66.2276 10.8359V10.7159C66.2276 10.7159 66.2276 10.7159 66.2276 10.8359C66.3475 10.8359 66.5874 10.8359 66.7073 10.9558C66.5874 10.9558 66.5874 10.9558 66.4674 10.8359C66.3475 10.8359 66.2276 10.9558 66.1077 11.0757V10.9558H66.2276V11.0757L66.1077 11.1956C65.9878 11.1956 65.9878 11.1956 65.8678 11.1956C65.9878 11.1956 66.1077 11.1956 66.2276 11.0757C66.1077 11.0757 66.1077 11.0757 66.1077 10.9558C65.9878 10.9558 65.8678 11.0757 65.628 11.0757C65.628 11.1956 65.748 11.3155 65.748 11.3155C65.748 11.1956 65.8678 11.1956 65.8678 11.0757C65.9878 11.0757 65.8678 10.9558 65.8678 10.9558C65.8678 10.9558 65.8678 10.8359 65.748 10.8359C65.748 10.7159 65.5081 10.596 65.3882 10.8359C65.1483 11.1956 65.5081 11.6753 65.8678 11.6753C66.1077 11.6753 66.2276 11.5553 66.3475 11.4355C66.4674 11.3155 66.4674 11.0757 66.4674 10.8359C66.7073 10.8359 66.5874 10.8359 66.4674 10.8359Z" fill="black"/>
<path d="M67.7859 13.3541C67.666 13.594 67.5461 13.9536 67.7859 14.0736C68.0257 14.3134 68.5054 14.1935 68.7452 14.3134C69.105 14.3134 69.4647 14.4333 69.7046 14.1935C69.9444 13.9536 69.9444 13.7138 69.8245 13.474C69.7046 13.2342 69.4647 13.474 69.5847 13.5939C69.7046 13.7138 69.5847 13.9536 69.4647 13.9536C69.3448 13.9536 69.2249 13.9536 69.2249 13.9536C68.985 13.9536 68.8652 13.9536 68.6254 13.9536C68.5054 13.9536 68.2656 13.9536 68.1457 13.9536C67.9059 13.8338 68.0257 13.594 68.0257 13.474C67.9059 13.3541 67.7859 13.3541 67.7859 13.3541Z" fill="black"/>
<path d="M65.627 11.6752C65.7469 11.7952 65.9867 11.7952 66.1067 11.7952C66.2266 11.7952 66.4664 11.7952 66.5864 11.6752C66.7062 11.6752 66.5864 11.5553 66.5864 11.5553C66.4664 11.5553 66.2266 11.5553 66.1067 11.5553C65.9867 11.5553 65.7469 11.5553 65.627 11.5553C65.627 11.5553 65.627 11.5553 65.627 11.6752Z" fill="black"/>
<path d="M68.1455 11.0756C68.1455 11.1956 68.1455 11.3154 68.1455 11.4354V11.5553V11.6752C68.2655 11.6752 68.2655 11.5553 68.3853 11.4354C68.3853 11.3154 68.3853 11.1956 68.2655 11.0756C68.2655 10.9557 68.1455 10.9557 68.1455 11.0756Z" fill="black"/>
<path d="M70.4235 10.1164C70.9031 10.1164 71.2629 9.87653 71.7426 9.87653C72.1023 9.87653 72.462 10.1164 72.8218 9.99643C72.9417 9.99643 72.9417 9.87653 72.9417 9.7566C72.7019 9.39686 72.1023 9.27695 71.7426 9.15703C71.2629 9.03712 70.6633 9.15703 70.3036 9.51677C70.0638 9.87653 70.1836 10.1164 70.4235 10.1164Z" fill="black"/>
<path d="M70.3047 11.0757C70.6644 11.0757 71.0242 10.9557 71.3839 10.9557C71.7437 10.9557 72.1035 11.0757 72.4631 11.0757C72.5831 11.0757 72.5831 10.9557 72.4631 10.8358C71.8636 10.596 70.9042 10.596 70.3047 10.8358C70.3047 10.9557 70.3047 11.0757 70.3047 11.0757Z" fill="black"/>
<path d="M70.9041 10.8358C70.9041 11.0757 70.9041 11.1956 71.024 11.4354C71.1439 11.5553 71.2638 11.6753 71.5037 11.6753C71.8634 11.6753 72.2232 11.1956 71.9833 10.8358C71.8634 10.7159 71.7435 10.7159 71.6235 10.8358C71.6235 10.8358 71.6235 10.9557 71.5037 10.9557C71.5037 10.9557 71.3837 11.0757 71.5037 11.0757C71.5037 11.1956 71.6235 11.1956 71.6235 11.3155C71.6235 11.1956 71.7435 11.0757 71.7435 11.0757C71.6235 11.0757 71.5037 10.9557 71.2638 10.9557C71.2638 11.0757 71.2639 11.0757 71.1439 11.0757C71.2639 11.0757 71.3837 11.0757 71.5037 11.1956C71.5037 11.0757 71.5037 11.1956 71.5037 11.1956C71.3837 11.1956 71.3837 11.1956 71.2638 11.1956L71.1439 11.0757V10.9557H71.2638V11.0757C71.1439 10.9557 70.9041 10.9557 70.7842 10.8358C71.024 10.9557 71.024 10.9557 70.9041 10.8358C71.1439 10.9557 71.2638 10.9557 71.5037 10.8358C71.5037 10.8358 71.5037 10.8358 71.5037 10.7159V10.8358C71.3837 10.596 70.9041 10.596 70.9041 10.8358C70.9041 11.0757 71.024 11.0757 71.024 11.1956C71.1439 11.3155 71.3837 11.1956 71.5037 11.0757V10.9557C71.5037 10.8358 71.5037 10.7159 71.3837 10.7159C71.2638 10.7159 71.1439 10.7159 71.024 10.8358C70.9041 11.0757 70.9041 11.3155 71.2638 11.4354C71.5037 11.5553 71.7435 11.3155 71.7435 11.0757C71.7435 10.8358 71.3837 10.7159 71.2638 10.8358C71.024 10.9557 71.024 11.3155 71.2638 11.4354C71.3837 11.5553 71.5037 11.5553 71.6235 11.5553C71.8634 11.4354 71.9833 11.1956 71.9833 11.0757C71.9833 10.8358 71.7435 10.7159 71.5037 10.9557C71.3837 11.1956 71.1439 11.6753 71.6235 11.6753C71.8634 11.6753 72.1032 11.3155 72.1032 11.0757C71.9833 11.0757 71.8634 11.0757 71.7435 11.0757C71.7435 11.0757 71.7435 11.1956 71.7435 11.3155C71.6235 11.4354 71.6235 11.4354 71.5037 11.3155C71.3837 11.1956 71.2638 11.0757 71.2638 10.9557C71.1439 10.8358 70.9041 10.8358 70.9041 10.8358Z" fill="black"/>
<path d="M71.9838 11.4353C71.864 11.4353 71.6241 11.4353 71.5042 11.4353C71.3843 11.4353 71.1445 11.4353 71.0245 11.4353C70.9046 11.4353 70.9046 11.5553 71.0245 11.5553C71.1445 11.6751 71.3843 11.6751 71.5042 11.6751C71.6241 11.6751 71.864 11.6751 71.9838 11.5553C71.9838 11.5553 71.9838 11.5553 71.9838 11.4353Z" fill="black"/>
<path d="M69.3446 11.0756C69.3446 11.1955 69.2246 11.3154 69.2246 11.4353C69.2246 11.5552 69.3446 11.6751 69.4645 11.6751C69.4645 11.6751 69.4645 11.6751 69.4645 11.5553V11.4353C69.4645 11.3154 69.4645 11.1955 69.4645 11.0756C69.4645 10.9556 69.3446 10.9556 69.3446 11.0756Z" fill="black"/>
<path d="M67.4268 16.352C68.3861 16.7117 69.5853 16.5918 70.5446 16.232C70.6646 16.1121 70.5446 15.9922 70.4247 15.9922C69.9451 16.1121 69.4654 16.232 68.8658 16.232C68.3861 16.232 67.9065 16.232 67.4268 16.1122C67.3069 16.1122 67.3069 16.352 67.4268 16.352Z" fill="black"/>
<path d="M70.1863 16.232C70.1863 16.232 70.3062 16.232 70.1863 16.232C70.3062 16.232 70.3062 16.232 70.4261 16.232C70.546 16.232 70.546 16.232 70.546 16.1121C70.666 15.9921 70.666 15.8723 70.666 15.7523L70.546 15.6324C70.4262 15.6324 70.3062 15.6324 70.3062 15.7523C70.3062 15.7523 70.3062 15.8723 70.1863 15.8723L70.0664 15.9921C70.0664 16.1121 70.1863 16.232 70.1863 16.232C70.3062 16.232 70.3062 16.1121 70.4261 16.1121L70.546 15.9921L70.4261 15.8723L70.3062 15.9921C70.1863 15.9921 70.1863 16.1121 70.0664 16.1121C70.0664 16.1121 70.0664 16.232 70.1863 16.232Z" fill="black"/>
<path d="M67.5461 16.232C67.5461 16.1121 67.4262 16.1121 67.3062 16.1121L67.1864 15.9921L67.0664 16.1121C67.1864 16.1121 67.1864 16.1121 67.1864 16.232C67.3063 16.232 67.4262 16.3519 67.5461 16.232C67.5461 16.3519 67.666 16.232 67.5461 16.232C67.5461 16.1121 67.5461 16.1121 67.4262 16.1121C67.4262 16.1121 67.4262 15.9921 67.3062 15.9921C67.3062 15.8723 67.1864 15.8723 67.1864 15.8723C67.1864 15.8723 67.0664 15.8723 67.0664 15.9921C67.0664 16.1121 67.0664 16.232 67.1864 16.3519C67.1864 16.3519 67.3062 16.3519 67.3062 16.4718H67.4262C67.4262 16.4718 67.4262 16.4718 67.5461 16.4718C67.5461 16.3519 67.5461 16.232 67.5461 16.232Z" fill="black"/>
<path d="M67.6661 16.2319C68.5055 15.9921 69.345 15.8722 70.1843 16.112C70.3043 16.112 70.4241 15.8722 70.3043 15.8722C69.3449 15.5124 68.3856 15.6324 67.6661 16.2319C67.5462 16.2319 67.5462 16.2319 67.6661 16.2319Z" fill="black"/>
<path d="M67.4266 16.4717C68.266 17.1912 69.705 17.3112 70.4245 16.3519C70.4245 16.2319 70.4245 16.2319 70.3046 16.2319C69.3453 16.8315 68.5059 17.0713 67.5465 16.3519C67.4266 16.2319 67.3067 16.3519 67.4266 16.4717Z" fill="black"/>
<path d="M92.489 54.2453C92.7288 53.8856 92.9686 53.6458 93.3284 53.406C93.6881 53.286 94.0479 53.1662 94.4077 53.0462C94.6475 52.9263 94.6475 52.5665 94.2877 52.5665C93.3284 52.5665 92.3691 53.1662 92.0093 54.0055C91.8894 54.2453 92.3691 54.4852 92.489 54.2453Z" fill="black"/>
<path d="M63.9497 20.6688C63.4701 24.0265 64.3095 27.504 68.2667 27.7439C69.5858 27.8637 71.5045 27.6239 72.4638 26.5447C73.6629 25.2256 74.0227 22.8273 74.0227 21.0286C74.0227 20.7887 73.6629 20.7887 73.6629 21.0286C73.9028 24.3862 72.4638 27.504 68.7464 27.3841C64.6692 27.2642 64.0697 23.9065 64.3095 20.6688C64.1896 20.5489 63.9497 20.5489 63.9497 20.6688Z" fill="black"/>
<path d="M91.7698 52.6864C92.4893 52.0868 93.3287 51.8469 94.1681 51.4872C94.4079 51.3673 94.2881 51.0076 94.0482 51.1275C93.2088 51.2474 92.0096 51.7271 91.53 52.4466C91.2902 52.6864 91.53 52.9262 91.7698 52.6864Z" fill="black"/>
<path d="M48.0001 58.3224C49.1992 57.9627 50.2785 57.6029 51.4777 57.2432C51.7175 57.1233 51.5976 56.7635 51.3577 56.8834C50.1586 57.2432 49.0793 57.7229 48.0001 58.2026C47.8802 58.2026 47.8802 58.3224 48.0001 58.3224Z" fill="black"/>
<path d="M46.3224 45.7313C47.1618 46.0911 48.4808 46.3309 48.9605 47.1702C49.0804 47.2902 49.2003 47.1702 49.2003 47.0504C48.9605 46.0911 47.1618 45.7313 46.3224 45.6114C46.2024 45.6114 46.2024 45.7313 46.3224 45.7313Z" fill="black"/>
<path d="M87.9325 43.2131C88.2923 42.9733 88.5321 42.7334 89.0118 42.4936C89.3715 42.3738 89.7313 42.2538 90.091 42.1339C90.2109 42.014 90.2109 41.8941 90.091 41.8941C89.7313 41.7741 89.2516 42.014 88.8918 42.2538C88.4122 42.4936 88.0525 42.7334 87.8126 43.0932C87.5728 43.0932 87.8126 43.3331 87.9325 43.2131Z" fill="black"/>
<path d="M56.7529 43.0932C56.7529 43.4529 57.1127 43.8127 57.3525 44.0525C57.7122 44.2924 58.1919 44.6521 58.6716 44.6521C58.7915 44.6521 58.7915 44.5322 58.7915 44.4123C58.4318 44.1724 58.072 44.0525 57.7122 43.8127C57.5924 43.6927 57.3525 43.5729 57.2326 43.4529C57.1127 43.333 56.9928 43.0932 56.8729 42.9732C56.7529 42.9732 56.7529 42.9732 56.7529 43.0932Z" fill="black"/>
<path d="M58.1942 55.2047C60.5925 57.0034 63.5904 58.0826 66.3485 59.4018C66.5883 59.5216 66.7082 59.1619 66.4683 59.042C63.7103 57.7229 60.9523 56.5237 58.3141 54.9649C58.1942 54.9649 58.0743 55.2047 58.1942 55.2047Z" fill="black"/>
<path d="M77.8593 56.164C80.0178 56.8835 82.2962 57.483 84.5745 58.2026C84.8143 58.2026 84.8143 57.9627 84.6945 57.9627C82.536 57.2432 80.2576 56.4038 77.9792 56.044C77.8593 55.9242 77.7393 56.044 77.8593 56.164Z" fill="black"/>
<path d="M85.2942 80.6268C82.7759 83.9844 83.0158 88.5412 83.3755 92.4985C83.3755 92.7385 83.7353 92.7385 83.7353 92.4985C83.4954 88.3014 83.4954 84.584 85.2942 80.6268C85.4141 80.6268 85.2942 80.6268 85.2942 80.6268Z" fill="black"/>
<path d="M91.0502 87.4621C90.6904 88.5413 90.5705 89.8604 90.8104 91.0598C90.8104 91.299 91.1701 91.1794 91.1701 91.0598C91.0502 89.8604 91.1701 88.7812 91.29 87.582C91.29 87.3422 91.0502 87.3422 91.0502 87.4621Z" fill="black"/>
<path d="M90.9308 90.6997C88.2926 91.0598 86.1341 92.3789 83.376 92.3789C83.2562 92.3789 83.2562 92.6181 83.376 92.6181C86.0142 92.8582 88.5324 91.6587 90.9308 91.0598C91.1706 90.9394 91.0506 90.5798 90.9308 90.6997Z" fill="black"/>
<path d="M91.7688 89.1409C91.6488 89.3808 91.529 89.6206 91.409 89.7405C91.2891 89.9804 91.0493 89.9804 90.8095 90.1002C90.5696 90.2202 90.6895 90.5799 90.9294 90.46C91.409 90.2202 91.8887 89.7405 92.0086 89.1409C92.0086 89.0211 91.7688 89.0211 91.7688 89.1409Z" fill="black"/>
</g>
<defs>
<clipPath id="clip0_896_19490">
<rect width="66.5378" height="107" fill="white" transform="translate(43 1)"/>
</clipPath>
<clipPath id="clip1_896_19490">
<rect width="51.2521" height="38.6639" fill="white" transform="translate(43 20.7815)"/>
</clipPath>
</defs>
</svg>
