<svg xmlns="http://www.w3.org/2000/svg" xmlns:xlink="http://www.w3.org/1999/xlink" version="1.1" id="Layer_1" x="0px" y="0px" viewBox="0 0 109 71" style="enable-background:new 0 0 109 71;" xml:space="preserve">
    <style type="text/css">
        .st0{fill:#FFFFFF;}
        .st1{fill:none;stroke:#010202;stroke-width:1.0337;stroke-miterlimit:1.5801;}
        .st2{fill:#BEE8FF;}
        .st3{fill:none;stroke:#010202;stroke-width:1.0879;stroke-miterlimit:1.5801;}
        .st4{fill:none;stroke:#FFFFFF;stroke-width:1.0337;stroke-miterlimit:1.5801;}
        .st5{fill:none;stroke:#FFFFFF;stroke-width:1.0879;stroke-miterlimit:1.5801;}
        .st6{fill:none;stroke:#010202;stroke-width:0.9604;stroke-miterlimit:1.5801;}
        .st7{fill:none;stroke:#010202;stroke-width:1.0459;stroke-miterlimit:1.5801;}
        .st8{fill:none;stroke:#010202;stroke-width:0.9658;stroke-miterlimit:1.5801;}
        .st9{fill:#FFFFFF;stroke:#010202;stroke-width:1.008;stroke-miterlimit:1.5801;}
        .st10{fill:none;stroke:#010202;stroke-width:1.008;stroke-miterlimit:1.5801;}
        .st11{fill:none;stroke:#010202;stroke-width:0.9387;stroke-miterlimit:1.5801;}
        .st12{fill:none;stroke:#010202;stroke-width:0.9831;stroke-miterlimit:1.5801;}
        .st13{fill:none;stroke:#FFFFFF;stroke-width:0.9604;stroke-miterlimit:1.5801;}
        .st14{fill:none;stroke:#FFFFFF;stroke-width:1.0459;stroke-miterlimit:1.5801;}
        .st15{fill:none;stroke:#FFFFFF;stroke-width:0.9658;stroke-miterlimit:1.5801;}
        .st16{fill:none;stroke:#FFFFFF;stroke-width:1.008;stroke-miterlimit:1.5801;}
        .st17{fill:none;stroke:#FFFFFF;stroke-width:0.9387;stroke-miterlimit:1.5801;}
        .st18{fill:none;stroke:#FFFFFF;stroke-width:0.9831;stroke-miterlimit:1.5801;}
        .st19{fill:#010202;}
        .st20{opacity:0.129;}
        .st21{fill:none;stroke:#010202;stroke-width:0.4807;stroke-miterlimit:1.5801;}
        .st22{fill:none;stroke:#010202;stroke-width:0.5086;stroke-miterlimit:1.5801;}
        .st23{fill:none;stroke:#FFFFFF;stroke-width:0.4807;stroke-miterlimit:1.5801;}
        .st24{fill:#FFFFFF;stroke:#FFFFFF;stroke-width:0.5086;stroke-miterlimit:1.5801;}
        .st25{fill:#FFFFFF;stroke:#040505;stroke-width:0.9862;stroke-miterlimit:1.5801;}
        .st26{fill:#FFFFFF;stroke:#040505;stroke-width:1.1145;stroke-miterlimit:1.5801;}
        .st27{fill:none;stroke:#FFFFFF;stroke-width:0.9862;stroke-miterlimit:1.5801;}
        .st28{fill:none;stroke:#FFFFFF;stroke-width:1.1145;stroke-miterlimit:1.5801;}
        .st29{fill:#84CEEF;}
        .st30{fill:none;stroke:#FFFFFF;stroke-width:1.8618;stroke-miterlimit:1.5801;}
        .st31{fill:none;stroke:#FFFFFF;stroke-width:1.8618;stroke-miterlimit:1.5802;}
        .st32{fill:none;stroke:#FFFFFF;stroke-width:1.862;stroke-miterlimit:1.5803;}
        .st33{fill:none;stroke:#010202;stroke-width:0.9309;stroke-miterlimit:1.5801;}
        .st34{fill:none;stroke:#040506;stroke-width:0.7823;stroke-miterlimit:1.2598;}
        .st35{fill:none;stroke:#040505;stroke-width:0.7823;stroke-miterlimit:1.2598;}
        .st36{fill:#040505;}
        .st37{fill:none;stroke:#FFFFFF;stroke-width:0.9309;stroke-miterlimit:1.5801;}
        .st38{fill:none;stroke:#FFFFFF;stroke-width:0.7823;stroke-miterlimit:1.2598;}
    </style>
    <g>
        <path id="Path_742_1_" class="st38" d="M47.41,20.61c-1,0-1.98-0.21-2.89-0.62c-2.66-1.2-4.2-4.02-3.77-6.91   c0.51-3.13,3.14-5.07,6.84-5.07c3.22,0,6.47,2,6.47,6.48c-0.04,2.04-1.1,3.92-2.83,4.99C50.08,20.21,48.76,20.61,47.41,20.61z"/>
        <path class="st2" d="M46.64,39.02c-1-0.29-2.01-0.6-3-0.93l-0.19-0.06l-0.04-0.02c-2.13-0.72-4.17-1.55-5.94-2.59   c-0.16-0.1-0.33-0.19-0.49-0.3L36,33.96l0.24,0.72c0.05-1.7,0.15-3.39,0.58-5.03c0.5-1.94,1.45-3.69,2.75-5.14   c1.3-1.44,2.94-2.57,4.81-3.27c3.75-1.3,8.3-0.34,10.92,2.59c0.03,0.04,0.07,0.08,0.1,0.12c2.09,2.42,2.74,5.73,3.02,8.9   c0.02,0.29,0.05,0.59,0.06,0.88v0.03l-1.46,0.74l-0.04,0.02l-0.09,0.05l-2.44,1.48l-0.47,0.29c-1.39,0.86-2.27,1.36-2.94,1.7   l-0.11,0.06l-0.02,0.01c-0.77,0.39-1.26,0.55-1.98,0.78c-0.13,0.04-0.26,0.08-0.4,0.13c-0.11,0.03-0.23,0.07-0.36,0.11   c-0.01,0-0.01,0-0.02,0h-1.12L46.64,39.02z"/>
        <path class="st38" d="M46.64,39.02h0.02h1.78h0.09c0.14-0.05,0.27-0.09,0.4-0.13c0.72-0.23,1.21-0.39,1.98-0.78l0.02-0.01   l0.11-0.06c0.67-0.34,1.55-0.84,2.94-1.7l0.47-0.29l2.44-1.48l0.09-0.05l0.04-0.02l1.46-0.74"/>
        <path class="st38" d="M58.67,33.66c0-0.01,0-0.02,0-0.02c-0.02-0.36-0.05-0.72-0.08-1.08c-0.23-2.67-0.8-6.06-3.13-8.55   c-0.02-0.02-0.04-0.04-0.06-0.06c-2.63-2.75-7.17-3.76-11.07-2.48c-1.84,0.62-3.46,1.68-4.76,3.04c-1.35,1.4-2.34,3.13-2.87,5.05   c-0.38,1.65-0.58,3.35-0.59,5.04l0.39-0.14"/>
        <path class="st38" d="M56.89,34.57l-2.44,1.48C55.24,35.53,56.06,35.03,56.89,34.57z"/>
        <path class="st38" d="M58.67,33.64c0.16-0.08,0.33-0.16,0.49-0.23l-0.49,0.25l-0.19,0.09v0.01l-1.46,0.74   c0.48-0.27,0.97-0.52,1.46-0.76v-0.01C58.54,33.7,58.6,33.67,58.67,33.64z"/>
        <path class="st38" d="M36.24,34.79l0.74,0.33c-0.25-0.14-0.5-0.29-0.74-0.44c-0.05-0.03-0.09-0.05-0.13-0.08   c-2.14-1.31-4.19-2.65-5.75-3.68c-1.01-0.66-1.81-1.18-2.24-1.44c-3.09-1.82-4.43-0.53-5.51,0.49c-0.09,0.09-0.18,0.17-0.26,0.25   c-1.48-0.73-3.21-0.72-4.69,0.01c-1.01,0.63-1.53,1.81-1.32,2.98v0.06c-0.06,0.06-0.14,0.11-0.21,0.16   c-0.76,0.5-1.22,1.36-1.2,2.27c-0.23,3.86,8.05,12.21,13.99,16.91c0.03,0.02,0.07,0.05,0.11,0.06c0.66,0.34,1.37,0.7,2.12,1.08   c5.85,2.97,14.69,7.47,22.29,9.15c0.3,0.06,0.61,0.09,0.91,0.09c3.6,0,11.53-3.09,19.88-6.33c3.35-1.31,6.52-2.54,9.28-3.51   c3.39-1.2,4.19-1.16,5.2-1.1c1.14,0.07,2.29-0.01,3.41-0.25c0.12-0.02,0.23-0.08,0.32-0.17c2.13-2.1,1.61-18.11,1.48-21.3   c0-0.04-0.01-0.07-0.02-0.11c-0.07-0.34-0.41-0.55-0.75-0.47c-4.46,1.04-16.57,3.62-19.01,3.11l-1-0.21   c-4.02-0.86-7.51-1.61-11.77-0.2c-0.75,0.29-1.48,0.61-2.21,0.96"/>
        <path class="st38" d="M40.62,44c0.17-0.49,0.43-0.94,0.72-1.35c1.5-2.05,4.2-3.13,6-3.43l-0.3-0.09h-0.01l-0.37-0.11h-0.02"/>
        <g id="Group_354_1_" transform="translate(96.754 38.644)">
            <path id="Path_472_1_" class="st0" d="M-6.3,9.45c-0.01,0-0.03,0-0.04,0C-6.46,9.43-6.54,9.32-6.51,9.2l0,0    c0.64-3.22,0.86-6.5,0.67-9.77c-0.01-0.12,0.08-0.22,0.2-0.23l0,0l0,0c0.12,0,0.22,0.08,0.23,0.2c0.2,3.31-0.03,6.63-0.67,9.88    C-6.12,9.38-6.2,9.45-6.3,9.45z"/>
        </g>
        <g id="Group_355_1_" transform="translate(92.359 46.963)">
            <path id="Path_473_1_" class="st0" d="M-5.34,1.36c-0.02,0-0.05-0.01-0.07-0.01c-0.11-0.04-0.17-0.16-0.13-0.27    c0.39-1.11,0.58-2.29,0.58-3.47c0-0.12,0.1-0.22,0.22-0.22l0,0c0.12,0,0.22,0.1,0.22,0.22c0,1.23-0.21,2.45-0.61,3.61    C-5.17,1.3-5.25,1.36-5.34,1.36z"/>
        </g>
        <path id="Path_745_1_" class="st38" d="M40.64,48.3c0.16,0.5,0.46,0.93,0.87,1.26c3.23,2.82,7.37,1.17,13.64-1.31   c4.73-2.01,9.64-3.57,14.67-4.66c0.07-0.01,0.13-0.02,0.2-0.02"/>
        <path id="Path_746_1_" class="st38" d="M22.35,30.22c0,0,11.71,10.23,19,12.43"/>
        <path class="st38" d="M16.34,33.21c0,0,25.53,19.97,24.38,15.28c-0.01-0.05-0.03-0.11-0.05-0.17c-0.57-1.69-0.51-3.12-0.06-4.32   h0.01c0.17-0.49,0.43-0.94,0.72-1.35c1.5-2.05,4.2-3.13,6-3.43c0.3-0.05,0.56-0.08,0.8-0.09h0.01c0.01,0,0.01,0,0.02,0"/>
        <path class="st38" d="M53.98,36.34c-1.39,0.86-2.27,1.36-2.94,1.7L53.98,36.34z"/>
        <path class="st38" d="M40.61,44L40.61,44c0.18-0.49,0.44-0.94,0.73-1.35c1.5-2.05,4.2-3.13,6-3.43l-0.3-0.09h-0.01l-0.37-0.11   h-0.02l-2.14-0.56l-1.09-0.45l-6.43-2.89"/>
        <path class="st38" d="M50.91,38.11c-0.77,0.39-1.26,0.55-1.98,0.78c-0.13,0.04-0.26,0.08-0.4,0.13c-0.11,0.03-0.23,0.07-0.36,0.11   c-0.04,0.02-0.09,0.04-0.15,0.05l0.12-0.05h0.01l0.29-0.11L50.91,38.11z"/>
    </g>
    </svg>