<?xml version="1.0" encoding="utf-8"?>
<!-- Generator: Adobe Illustrator 25.0.0, SVG Export Plug-In . SVG Version: 6.00 Build 0)  -->
<svg width="80" height="72" version="1.1" id="Layer_1" xmlns="http://www.w3.org/2000/svg" xmlns:xlink="http://www.w3.org/1999/xlink" x="0px" y="0px"
	 viewBox="0 0 635 443" style="enable-background:new 0 0 635 443;" xml:space="preserve">
<style type="text/css">
	.st0{fill:#FFFFFF;}
	.st1{fill:#010202;}
	.st2{fill:#ADD3F1;}
	.st3{opacity:0.129;}
	.st4{fill:none;stroke:#010202;stroke-width:6.5416;stroke-miterlimit:10;}
	.st5{fill:none;stroke:#010202;stroke-width:6.8851;stroke-miterlimit:10;}
	.st6{fill:none;stroke:#010202;stroke-width:6.0779;stroke-miterlimit:10;}
	.st7{fill:none;stroke:#010202;stroke-width:6.6192;stroke-miterlimit:10;}
	.st8{fill:none;stroke:#010202;stroke-width:6.1122;stroke-miterlimit:10;}
	.st9{fill:#FFFFFF;stroke:#010202;stroke-width:6.3794;stroke-miterlimit:10;}
	.st10{fill:none;stroke:#010202;stroke-width:6.3794;stroke-miterlimit:10;}
	.st11{fill:none;stroke:#010202;stroke-width:5.9409;stroke-miterlimit:10;}
	.st12{fill:none;stroke:#010202;stroke-width:6.2218;stroke-miterlimit:10;}
	.st13{fill:none;stroke:#010202;stroke-width:3.0422;stroke-miterlimit:10;}
	.st14{fill:none;stroke:#010202;stroke-width:3.2188;stroke-miterlimit:10;}
	.st15{fill:#84CEEF;}
	.st16{fill:none;stroke:#FFFFFF;stroke-width:11.7826;stroke-miterlimit:10;}
	.st17{fill:none;stroke:#FFFFFF;stroke-width:11.7845;stroke-miterlimit:10.0016;}
	.st18{fill:none;stroke:#010202;stroke-width:5.8913;stroke-miterlimit:10;}
	.st19{fill:none;stroke:#040506;stroke-width:6.2099;stroke-miterlimit:10;}
	.st20{fill:#9ACAEE;}
	.st21{fill:none;stroke:#040505;stroke-width:6.2099;stroke-miterlimit:10;}
	.st22{fill:#040505;}
	.st23{fill:#FFFFFF;stroke:#040505;stroke-width:6.2415;stroke-miterlimit:10;}
	.st24{fill:#FFFFFF;stroke:#040505;stroke-width:7.0529;stroke-miterlimit:10;}
</style>
<g>
	<path id="Path_361_1_" class="st0" d="M262.18,3c-31.53,0-51.59,16.57-55.52,40.49c-3.44,23.25,8.99,45.96,30.43,55.59
		c36.1,16.15,77.2-8.66,77.2-43.9C314.25,19.33,288.71,3,262.18,3z"/>
	<path id="Path_742" class="st19" d="M260.54,103.56c-7.91,0-15.72-1.68-22.94-4.92c-21.12-9.53-33.35-31.92-29.95-54.84
		c4.08-24.84,24.89-40.26,54.27-40.26c25.55,0,51.34,15.9,51.34,51.43c-0.28,16.17-8.75,31.1-22.5,39.63
		C281.77,100.44,271.27,103.56,260.54,103.56z"/>
	<path id="Path_363_1_" class="st20" d="M170.24,250.64c2.73-25.08-0.04-50.83,6.3-75.28c7.84-30.75,30.27-55.69,60.02-66.75
		c29.75-10.3,65.82-2.69,86.61,20.54c17.25,19.3,22.62,46.05,24.78,71.61c1.4,16.59,1.73,33.24,2.06,49.88H170.24z"/>
	<path id="Path_743" class="st19" d="M345.2,249.78H175.55c-3.31,0.08-6.05-2.54-6.14-5.84c0-0.21,0.01-0.41,0.04-0.62
		c0.94-8.25,1.17-16.86,1.4-25.17c-0.17-14.62,1.4-29.22,4.69-43.47c8.31-30.11,31-54.15,60.58-64.19
		c31.23-10.31,67.55-2.05,88.32,20.14c18.5,19.75,23.04,46.65,24.92,67.89c1.34,15.16,1.66,30.49,1.97,45.33
		c-0.01,3.31-2.7,5.98-6,5.97c0,0,0,0-0.01,0h-0.13L345.2,249.78z"/>
	<path id="Path_467" class="st0" d="M629.61,176.28c0,0-130.44,30.76-155.53,25.42c-36.02-7.67-64.51-15.44-100.32-3.56
		c-18.49,6.14-41.88,20.96-58.54,31.27c-33.31,20.58-31.18,17.21-53.35,25.13c-27.49-7.72-59.47-17.46-84.94-32.66
		c-32.79-19.56-65.71-42.59-75.41-48.38c-25.68-15.32-32.62-0.99-43.34,7.85c-13.53-9.13-47.01-9.38-44.03,17.61
		c0.91,8.17-10.29,4.5-11.29,21.18c-1.67,27.94,60.34,93.15,110.85,133.46c47.82,24.26,127.39,67.61,195.69,82.92
		c31.56,7.07,159.31-50.64,239.62-79.3c47.09-16.8,34.93-4.62,70.17-11.18C635.69,329.63,629.61,176.28,629.61,176.28z"/>
	<path id="Path_744" class="st21" d="M315.66,440c-2.41,0.04-4.82-0.19-7.18-0.68c-60.35-13.38-130.54-49.06-176.98-72.66
		c-5.96-3.03-11.58-5.89-16.82-8.52c-0.3-0.15-0.59-0.33-0.85-0.54C66.63,320.35,0.98,254.05,2.81,223.43
		c-0.16-7.24,3.43-14.04,9.49-18.01c0.59-0.4,1.15-0.84,1.67-1.34v-0.42c-1.68-9.29,2.48-18.67,10.49-23.67
		c11.7-5.82,25.45-5.85,37.17-0.07c0.69-0.62,1.38-1.3,2.09-1.97c8.59-8.14,19.25-18.34,43.71-3.91c3.47,2.05,9.79,6.21,17.79,11.44
		c15.03,9.87,35.64,23.39,56.45,35.67c23.25,13.72,52.57,22.98,80.92,30.89c4.06-1.42,7.27-2.45,10.06-3.34
		c10.81-3.47,14.85-4.76,40.05-20.18l2.94-1.81c17.53-11.6,36.21-21.37,55.75-29.13c33.83-11.13,61.48-5.2,93.39,1.63l7.94,1.68
		c19.42,4.06,115.5-16.46,150.96-24.73c2.67-0.61,5.33,1.06,5.95,3.73c0.07,0.3,0.11,0.6,0.12,0.91
		c1.01,25.3,5.2,152.38-11.73,169.08c-0.71,0.69-1.61,1.16-2.58,1.35c-8.89,1.89-18,2.54-27.06,1.94
		c-7.99-0.44-14.33-0.79-41.27,8.73c-21.93,7.74-47.03,17.51-73.63,27.84C407.19,415.51,344.26,440,315.66,440z"/>
	<g id="Group_354" transform="translate(96.754 38.644)">
		<path id="Path_472" class="st22" d="M505.46,283.12c-0.11,0.02-0.22,0.02-0.34,0c-0.92-0.18-1.53-1.07-1.35-1.99l0,0
			c5.05-25.52,6.82-51.58,5.28-77.55c-0.06-0.94,0.65-1.75,1.59-1.81c0,0,0,0,0,0l0,0c0.93-0.03,1.73,0.67,1.81,1.6
			c1.57,26.26-0.23,52.61-5.35,78.41C506.94,282.56,506.26,283.11,505.46,283.12z"/>
	</g>
	<g id="Group_355" transform="translate(92.359 46.963)">
		<path id="Path_473" class="st22" d="M482.57,276.59c-0.19,0-0.38-0.04-0.56-0.1c-0.89-0.31-1.37-1.28-1.06-2.17
			c3.06-8.85,4.63-18.15,4.63-27.52c0-0.95,0.77-1.71,1.71-1.71l0,0c0.95,0,1.71,0.77,1.71,1.71c-0.01,9.75-1.63,19.42-4.81,28.63
			C483.95,276.13,483.3,276.59,482.57,276.59z"/>
	</g>
	<path id="Path_745" class="st21" d="M206.85,323.42c1.27,3.94,3.68,7.42,6.92,9.98c25.63,22.42,58.48,9.31,108.24-10.37
		c37.56-15.95,76.54-28.34,116.41-37.02c0.53-0.11,1.07-0.15,1.6-0.12"/>
	<path id="Path_746" class="st21" d="M61.64,179.89c0,0,92.93,81.23,150.78,98.69"/>
	<path id="Path_747" class="st21" d="M266.65,250.64c-21.2,0.71-76.82,21.59-59.56,72.94c14.16,42.11-193.13-119.94-193.13-119.94"
		/>
</g>
</svg>
