<?xml version="1.0" encoding="utf-8"?>
<!-- Generator: Adobe Illustrator 25.0.0, SVG Export Plug-In . SVG Version: 6.00 Build 0)  -->
<svg version="1.1" id="Layer_1" xmlns="http://www.w3.org/2000/svg" xmlns:xlink="http://www.w3.org/1999/xlink" x="0px" y="0px"
	 viewBox="0 0 1080 1080" style="enable-background:new 0 0 1080 1080;" xml:space="preserve">
<style type="text/css">
	.st0{fill:#FFFFFF;}
	.st1{fill:#010202;}
	.st2{fill:#ADD3F1;}
	.st3{opacity:0.129;}
	.st4{fill:none;stroke:#010202;stroke-width:8.3965;stroke-miterlimit:10;}
	.st5{fill:none;stroke:#010202;stroke-width:8.8374;stroke-miterlimit:10;}
	.st6{fill:none;stroke:#010202;stroke-width:7.7416;stroke-miterlimit:10;}
	.st7{fill:none;stroke:#010202;stroke-width:8.4311;stroke-miterlimit:10;}
	.st8{fill:none;stroke:#010202;stroke-width:7.7852;stroke-miterlimit:10;}
	.st9{fill:#FFFFFF;stroke:#010202;stroke-width:8.1256;stroke-miterlimit:10;}
	.st10{fill:none;stroke:#010202;stroke-width:8.1256;stroke-miterlimit:10;}
	.st11{fill:none;stroke:#010202;stroke-width:7.567;stroke-miterlimit:10;}
	.st12{fill:none;stroke:#010202;stroke-width:7.9249;stroke-miterlimit:10;}
	.st13{fill:none;stroke:#010202;stroke-width:3.945;stroke-miterlimit:10;}
	.st14{fill:none;stroke:#010202;stroke-width:4.174;stroke-miterlimit:10;}
	.st15{fill:#84CEEF;}
	.st16{fill:none;stroke:#FFFFFF;stroke-width:15.0601;stroke-miterlimit:10;}
	.st17{fill:none;stroke:#FFFFFF;stroke-width:15.0626;stroke-miterlimit:10.0016;}
	.st18{fill:none;stroke:#010202;stroke-width:7.5301;stroke-miterlimit:10;}
	.st19{fill:#FFFFFF;stroke:#040505;stroke-width:7.8633;stroke-miterlimit:10;}
	.st20{fill:#FFFFFF;stroke:#040505;stroke-width:8.8856;stroke-miterlimit:10;}
	.st21{fill:#9ACAEE;}
	.st22{fill:none;stroke:#040506;stroke-width:7.9293;stroke-miterlimit:10;}
	.st23{fill:none;stroke:#040505;stroke-width:7.9293;stroke-miterlimit:10;}
	.st24{fill:#040505;}
</style>
<g id="Group_384" transform="translate(-198.04 140.167)">
	<g id="Group_377" transform="translate(511.344 -138.026)">
		<g id="Group_372">
			<path id="Path_480" class="st15" d="M286.8,285.16c-92.14-23.18-195.78,11.21-258.06,78.45
				c-61.09,67.69-85.43,160.86-65.27,249.79c22.11,99.1,123.97,174.7,202.56,183.73c127.68,14.6,232.4-42.55,264.98-79.28
				c60.04-67.67,87.21-161.26,64.99-246.5S399.81,313.58,286.8,285.16z"/>
			<path id="Path_481" class="st2" d="M206.64,805.86c-13.81,0.01-27.61-0.77-41.32-2.34c-82.27-9.41-185.53-87.5-208.12-188.73
				c-20.4-90.98,4.49-186.22,66.81-255.58c65.98-71.21,172.21-103.49,264.36-80.3c109.99,27.66,189.95,98.99,213.85,190.83
				c22.06,84.64-3.39,181.35-66.4,252.4C402.51,759.69,313.14,805.86,206.64,805.86z M227.1,284.34
				c-73.26,0.25-143.23,30.47-193.64,83.64C-26,434.2-49.73,525.11-30.23,611.95c21.4,95.88,119.14,169.83,197.02,178.74
				c130.99,14.99,231.35-45.5,259.41-77.14c60.24-67.88,84.57-160.07,63.58-240.59c-22.73-87.21-99.2-155.12-204.55-181.59l0,0
				C266.21,286.65,246.69,284.28,227.1,284.34L227.1,284.34z"/>
		</g>
		<g id="Group_373" transform="translate(36.205 0.902)">
			
				<rect id="Rectangle_141" x="-66.14" y="535.62" transform="matrix(0.0206 -0.9998 0.9998 0.0206 -347.3884 720.9221)" class="st2" width="520.79" height="4.29"/>
		</g>
		<g id="Group_374" transform="translate(3.787 26.134)">
			
				<rect id="Rectangle_142" x="232.41" y="189.56" transform="matrix(0.0184 -0.9998 0.9998 0.0184 -218.7319 675.3199)" class="st2" width="4.29" height="518.99"/>
		</g>
		<g id="Group_375" transform="translate(2.044 45.668)">
			
				<rect id="Rectangle_143" x="221.07" y="316.98" transform="matrix(0.018 -0.9998 0.9998 0.018 -357.2199 789.3214)" class="st2" width="4.29" height="519.08"/>
		</g>
		<g id="Group_376" transform="translate(15.819 0.511)">
			<path id="Path_482" class="st2" d="M216.68,797.15c-0.23,0-0.47-0.04-0.69-0.12c-58.73-19.66-103.55-64.07-133.09-132
				c-31.82-73.2-37.92-151.29-17.17-219.88c23.22-75.54,77.73-137.49,149.7-170.13c0.6-0.27,1.29-0.25,1.88,0.05
				c100.35,53.28,149.1,132.29,149.1,241.56c0,170.18-50.09,227.94-148.73,280.3C217.35,797.07,217.02,797.15,216.68,797.15z
				 M216.22,279.34C145.84,311.6,92.59,372.36,69.84,446.36c-20.45,67.64-14.41,144.69,17,216.96
				c28.9,66.43,72.5,109.94,129.64,129.35c96.6-51.43,145.64-108.5,145.64-276.07c0.01-107.16-47.72-184.81-145.9-237.24
				L216.22,279.34z"/>
		</g>
	</g>
	<g id="Group_383" transform="translate(510.767 -138.022)">
		<g id="Group_378">
			<path id="Path_483" class="st16" d="M283.03,285.18c-92.15-23.18-195.78,11.23-258.07,78.45
				c-61.08,67.7-85.41,160.87-65.24,249.79c22.1,99.11,123.96,174.75,202.56,183.73c127.68,14.62,232.39-42.54,264.96-79.26
				c60.04-67.68,87.21-161.26,64.99-246.51S396.04,313.6,283.03,285.18z"/>
			<path id="Path_484" class="st16" d="M202.88,805.89c-13.81,0-27.61-0.78-41.32-2.34c-82.27-9.42-185.53-87.5-208.12-188.73
				c-20.41-90.99,4.49-186.22,66.81-255.58c65.98-71.21,172.19-103.49,264.35-80.32c109.98,27.66,189.94,99.01,213.85,190.83
				c22.07,84.65-3.37,181.36-66.4,252.4C398.74,759.72,309.34,805.89,202.88,805.89z M223.34,284.36
				c-73.26,0.25-143.24,30.47-193.64,83.64c-59.47,66.24-83.2,157.17-63.69,244.02c21.39,95.88,119.14,169.82,197,178.73
				c130.99,15.01,231.35-45.5,259.43-77.14c60.24-67.86,84.56-160.05,63.58-240.59c-22.73-87.21-99.22-155.12-204.57-181.59l0,0
				C262.44,286.68,242.92,284.31,223.34,284.36L223.34,284.36z"/>
		</g>
		<g id="Group_379" transform="translate(36.204 0.903)">
			
				<rect id="Rectangle_144" x="-69.92" y="535.65" transform="matrix(0.0206 -0.9998 0.9998 0.0206 -351.1178 717.1804)" class="st16" width="520.79" height="4.29"/>
		</g>
		<g id="Group_380" transform="translate(3.786 26.135)">
			
				<rect id="Rectangle_145" x="228.64" y="189.59" transform="matrix(0.0184 -0.9998 0.9998 0.0184 -222.4695 671.5783)" class="st16" width="4.29" height="518.99"/>
		</g>
		<g id="Group_381" transform="translate(2.043 45.668)">
			
				<rect id="Rectangle_146" x="217.3" y="317" transform="matrix(0.018 -0.9998 0.9998 0.018 -360.9525 785.5732)" class="st17" width="4.29" height="519.08"/>
		</g>
		<g id="Group_382" transform="translate(15.819 0.511)">
			<path id="Path_485" class="st16" d="M212.9,797.15c-0.23,0-0.45-0.04-0.67-0.11c-58.73-19.66-103.55-64.08-133.09-132.01
				c-31.82-73.18-37.93-151.29-17.18-219.88c23.21-75.56,77.72-137.52,149.7-170.18c0.6-0.27,1.3-0.25,1.88,0.07
				c100.33,53.26,149.1,132.27,149.1,241.56c0,170.18-50.09,227.93-148.73,280.28C213.59,797.06,213.25,797.15,212.9,797.15z
				 M212.45,279.34C142.06,311.6,88.8,372.37,66.06,446.38C45.6,514.02,51.64,591.06,83.07,663.32
				c28.89,66.43,72.5,109.94,129.64,129.35c96.6-51.39,145.68-108.47,145.68-276.01c0-107.21-47.76-184.86-145.93-237.28
				L212.45,279.34z"/>
		</g>
	</g>
	<ellipse id="Ellipse_8" class="st18" cx="738.04" cy="399.88" rx="286.85" ry="278.78"/>
</g>
</svg>
