<svg xmlns="http://www.w3.org/2000/svg" xmlns:xlink="http://www.w3.org/1999/xlink" version="1.1" id="Layer_1" x="0px" y="0px" viewBox="0 0 111 71" style="enable-background:new 0 0 111 71;" xml:space="preserve">
    <style type="text/css">
        .stFamilyDarkRech0{fill:#FFFFFF;}
        .stFamilyDarkRech1{fill:none;stroke:#010202;stroke-width:1.0337;stroke-miterlimit:1.5801;}
        .stFamilyDarkRech2{fill:#BEE8FF;}
        .stFamilyDarkRech3{fill:none;stroke:#010202;stroke-width:1.0879;stroke-miterlimit:1.5801;}
        .stFamilyDarkRech4{fill:none;stroke:#FFFFFF;stroke-width:1.0337;stroke-miterlimit:1.5801;}
        .stFamilyDarkRech5{fill:none;stroke:#FFFFFF;stroke-width:1.0879;stroke-miterlimit:1.5801;}
        .stFamilyDarkRech6{fill:none;stroke:#010202;stroke-width:0.9604;stroke-miterlimit:1.5801;}
        .stFamilyDarkRech7{fill:none;stroke:#010202;stroke-width:1.0459;stroke-miterlimit:1.5801;}
        .stFamilyDarkRech8{fill:none;stroke:#010202;stroke-width:0.9658;stroke-miterlimit:1.5801;}
        .stFamilyDarkRech9{fill:#FFFFFF;stroke:#010202;stroke-width:1.008;stroke-miterlimit:1.5801;}
        .stFamilyDarkRech10{fill:none;stroke:#010202;stroke-width:1.008;stroke-miterlimit:1.5801;}
        .stFamilyDarkRech11{fill:none;stroke:#010202;stroke-width:0.9387;stroke-miterlimit:1.5801;}
        .stFamilyDarkRech12{fill:none;stroke:#010202;stroke-width:0.9831;stroke-miterlimit:1.5801;}
        .stFamilyDarkRech13{fill:none;stroke:#FFFFFF;stroke-width:0.9604;stroke-miterlimit:1.5801;}
        .stFamilyDarkRech14{fill:none;stroke:#FFFFFF;stroke-width:1.0459;stroke-miterlimit:1.5801;}
        .stFamilyDarkRech15{fill:none;stroke:#FFFFFF;stroke-width:0.9658;stroke-miterlimit:1.5801;}
        .stFamilyDarkRech16{fill:none;stroke:#FFFFFF;stroke-width:1.008;stroke-miterlimit:1.5801;}
        .stFamilyDarkRech17{fill:none;stroke:#FFFFFF;stroke-width:0.9387;stroke-miterlimit:1.5801;}
        .stFamilyDarkRech18{fill:none;stroke:#FFFFFF;stroke-width:0.9831;stroke-miterlimit:1.5801;}
        .stFamilyDarkRech19{fill:#010202;}
        .stFamilyDarkRech20{opacity:0.129;}
        .stFamilyDarkRech21{fill:none;stroke:#010202;stroke-width:0.4807;stroke-miterlimit:1.5801;}
        .stFamilyDarkRech22{fill:none;stroke:#010202;stroke-width:0.5086;stroke-miterlimit:1.5801;}
        .stFamilyDarkRech23{fill:none;stroke:#FFFFFF;stroke-width:0.4807;stroke-miterlimit:1.5801;}
        .stFamilyDarkRech24{fill:#FFFFFF;stroke:#FFFFFF;stroke-width:0.5086;stroke-miterlimit:1.5801;}
    </style>
    <g>
        <path class="stFamilyDarkRech13" d="M93.08,24.03L93.08,24.03c1-0.35,1.96-0.82,2.85-1.4c3.3-2.02,5.33-5.59,5.37-9.45   c0-8.52-6.22-12.33-12.39-12.33c-7.11,0-12.14,3.69-13.13,9.63c-0.81,5.51,2.15,10.89,7.24,13.15c0.56,0.25,1.13,0.46,1.72,0.63"/>
        <path id="Path_732_1_" class="stFamilyDarkRech14" d="M110.2,68.39c0.01,0.67-0.52,1.23-1.19,1.25H67.94c-0.66,0-1.19-0.54-1.19-1.2   c0-0.03,0-0.07,0.01-0.1c0.23-2.77,0.28-5.63,0.33-8.4c-0.04-4.15,0.24-8.29,0.84-12.4c0.01-0.11,0.03-0.23,0.05-0.33   c0.06-0.48,0.14-0.94,0.22-1.42c1.93-9.65,7.44-17.58,14.39-20.73c0.53-0.24,1.07-0.45,1.62-0.63c0.17-0.06,0.34-0.12,0.52-0.16   c2.71-0.81,5.59-0.89,8.34-0.23c0.18,0.03,0.36,0.08,0.54,0.13c4.19,1.17,7.82,3.8,10.23,7.42c4.35,6.34,5.42,15.05,5.87,21.93   C110.04,58.47,110.12,63.51,110.2,68.39z"/>
        <path id="Path_733_1_" class="stFamilyDarkRech15" d="M20.86,28.63c-1.83,0-3.64-0.38-5.33-1.1c-4.85-2.02-7.71-7.07-6.96-12.27   c0.95-5.54,5.78-8.99,12.6-8.99c5.93,0,11.91,3.56,11.91,11.5c-0.06,3.55-1.93,6.83-4.96,8.69C25.97,27.87,23.44,28.63,20.86,28.63   z"/>
        <path id="Path_734_1_" class="stFamilyDarkRech0" d="M40.95,70.15h-0.49c-0.22,0-0.43-0.06-0.61-0.18c-0.32-0.21-0.51-0.55-0.52-0.93   c0-0.04,0.01-0.09,0.01-0.13c0.17-1.58,0.22-3.24,0.26-4.83c-0.03-2.55,0.21-5.09,0.7-7.59c0.04-0.24,0.1-0.48,0.14-0.71   c0.01,0.13,0.02,0.25,0.03,0.38C40.8,60.8,40.88,65.47,40.95,70.15z"/>
        <path id="Path_735_1_" class="stFamilyDarkRech16" d="M39.34,69.03c0-0.04,0.01-0.09,0.01-0.13c0.17-1.58,0.22-3.24,0.26-4.83   c-0.03-2.55,0.21-5.09,0.7-7.59c-0.01-0.29-0.03-0.58-0.05-0.88c0-0.04-0.01-0.1-0.01-0.14c-0.4-6.09-1.41-13.75-5.37-19.35   c-4.27-6.37-12.46-8.81-19.52-5.81C8.97,33.11,3.9,40.17,2.15,48.75C1.42,52.9,1.08,57.1,1.12,61.31c-0.05,2.46-0.1,4.99-0.31,7.45   v0.1c0,0.64,0.51,1.16,1.14,1.16c0,0,0,0,0,0h37.62c0.1,0,0.2-0.02,0.29-0.05C39.55,69.76,39.35,69.41,39.34,69.03z"/>
        <path id="Path_736_1_" class="stFamilyDarkRech10" d="M40.71,68.85c0.01,0.52-0.34,0.98-0.84,1.12c-0.32-0.21-0.51-0.55-0.52-0.93   c0-0.04,0.01-0.09,0.01-0.13c0.17-1.58,0.22-3.24,0.26-4.83c-0.03-2.55,0.21-5.09,0.7-7.59C40.58,60.62,40.63,64.8,40.71,68.85z"/>
        <path id="Path_737_1_" class="stFamilyDarkRech17" d="M55.56,42c-1.52,0-3.03-0.31-4.43-0.9c-4.01-1.63-6.39-5.78-5.78-10.06   c0.79-4.56,4.81-7.39,10.49-7.39c4.94,0,9.92,2.92,9.92,9.43c-0.08,3.01-1.73,5.77-4.35,7.27C59.64,41.43,57.62,42,55.56,42z"/>
        <path id="Path_738_1_" class="stFamilyDarkRech2" d="M73.08,69.64h-0.61c-0.04,0.06-0.09,0.12-0.14,0.17c-0.21,0.21-0.51,0.34-0.81,0.33H40.47   c-0.22,0-0.43-0.06-0.61-0.18c-0.32-0.21-0.51-0.55-0.52-0.93c0-0.04,0.01-0.09,0.01-0.13c0.17-1.58,0.22-3.24,0.26-4.83   c-0.03-2.55,0.21-5.09,0.7-7.59c-0.01-0.29-0.03-0.58-0.05-0.88c0-0.04-0.01-0.1-0.01-0.14c1.61-5.62,5.79-10.13,11.26-12.17   c5.66-1.96,12.53-0.51,16.48,3.91c0.14,0.16,0.28,0.31,0.41,0.49c2.96,3.63,3.91,8.47,4.3,13.12c0.24,2.79,0.31,5.6,0.37,8.4   C73.07,69.36,73.07,69.5,73.08,69.64z"/>
        <path id="Path_739_1_" class="stFamilyDarkRech18" d="M72.65,69c0,0.07,0,0.15-0.02,0.22c-0.02,0.15-0.07,0.29-0.15,0.42   c-0.04,0.06-0.09,0.12-0.14,0.17c-0.21,0.21-0.51,0.34-0.81,0.33H40.47c-0.22,0-0.43-0.06-0.61-0.18   c-0.32-0.21-0.51-0.55-0.52-0.93c0-0.04,0.01-0.09,0.01-0.13c0.17-1.58,0.22-3.24,0.26-4.83c-0.03-2.55,0.21-5.09,0.7-7.59   c0.04-0.24,0.1-0.48,0.14-0.71c0.01-0.01,0.01-0.02,0.01-0.03c1.44-5.68,5.59-10.29,11.1-12.3c5.67-1.99,11.99-0.49,16.16,3.85   c0.08,0.09,0.15,0.17,0.22,0.25c0.06,0.08,0.1,0.12,0.14,0.17c0.1,0.11,0.19,0.22,0.27,0.33c0.04,0.06,0.1,0.13,0.14,0.19   c2.75,3.67,3.49,8.34,3.8,12.07C72.54,63.22,72.59,66.16,72.65,69z"/>
    </g>
    </svg>