<?xml version="1.0" encoding="utf-8"?>
<!-- Generator: Adobe Illustrator 25.0.0, SVG Export Plug-In . SVG Version: 6.00 Build 0)  -->
<svg width="" height="70" version="1.1" id="Layer_1" xmlns="http://www.w3.org/2000/svg" xmlns:xlink="http://www.w3.org/1999/xlink" x="0px" y="0px"
	 viewBox="0 0 699 443" style="enable-background:new 0 0 699 443;" xml:space="preserve">
<style type="text/css">
	.st0{fill:#FFFFFF;}
	.st1{fill:#010202;}
	.st2{fill:#bee8ff;}
	.st3{opacity:0.129;}
	.st4{fill:none;stroke:#010202;stroke-width:6.5416;stroke-miterlimit:10;}
	.st5{fill:none;stroke:#010202;stroke-width:6.8851;stroke-miterlimit:10;}
	.st6{fill:none;stroke:#010202;stroke-width:6.0779;stroke-miterlimit:10;}
	.st7{fill:none;stroke:#010202;stroke-width:6.6192;stroke-miterlimit:10;}
	.st8{fill:none;stroke:#010202;stroke-width:6.1122;stroke-miterlimit:10;}
	.st9{fill:#FFFFFF;stroke:#010202;stroke-width:6.3794;stroke-miterlimit:10;}
	.st10{fill:none;stroke:#010202;stroke-width:6.3794;stroke-miterlimit:10;}
	.st11{fill:none;stroke:#010202;stroke-width:5.9409;stroke-miterlimit:10;}
	.st12{fill:none;stroke:#010202;stroke-width:6.2218;stroke-miterlimit:10;}
	.st13{fill:none;stroke:#010202;stroke-width:3.0422;stroke-miterlimit:10;}
	.st14{fill:none;stroke:#010202;stroke-width:3.2188;stroke-miterlimit:10;}
</style>
<g id="Group_498" transform="translate(-798.031 21.443)">
	<path id="Path_365" class="st0" d="M1359.2-22.44c-48.82,0-79.87,25.46-85.98,62.21c-5.27,35.82,13.99,70.76,47.1,85.43
		c55.92,24.77,119.54-13.31,119.54-67.47C1439.86,2.62,1400.32-22.44,1359.2-22.44z"/>
	<path id="Path_731" class="st6" d="M1356.7,131.09c-12.11-0.01-24.08-2.55-35.15-7.47c-32.22-14.32-50.95-48.35-45.81-83.23
		c6.25-37.6,38.08-60.98,83.08-60.98c39.06,0,78.46,24.13,78.46,78.03c-0.3,24.46-13.15,47.04-34.02,59.79
		C1389.42,126.28,1373.24,131.09,1356.7,131.09z"/>
	<path id="Path_367" class="st0" d="M1221.52,412.08c4.11-48.96-0.06-99.23,9.45-146.94c11.61-58.39,45.34-110.18,89.83-130.29
		c44.49-20.11,98.54-5.25,129.63,40.09c25.83,37.69,33.84,89.88,37.08,139.79c2.1,32.39,2.6,64.9,3.09,97.4L1221.52,412.08z"/>
	<path id="Path_732" class="st7" d="M1493.55,406.86c0.09,4.25-3.28,7.78-7.54,7.88h-259.91c-4.18-0.02-7.56-3.42-7.54-7.61
		c-0.01-0.21,0.01-0.42,0.07-0.62c1.44-17.54,1.78-35.63,2.12-53.17c-0.24-26.25,1.54-52.48,5.34-78.46
		c0.07-0.69,0.21-1.44,0.34-2.12c0.41-3.01,0.89-5.96,1.37-8.98c12.2-61.05,47.07-111.28,91.07-131.22
		c3.35-1.5,6.79-2.83,10.28-3.97c1.08-0.4,2.17-0.75,3.29-1.03c17.15-5.12,35.36-5.62,52.76-1.44c1.16,0.2,2.3,0.48,3.43,0.82
		c26.5,7.4,49.47,24.06,64.75,46.94c27.55,40.15,34.33,95.25,37.14,138.76C1492.59,344.03,1493.07,375.96,1493.55,406.86z"/>
	<path id="Path_369" class="st0" d="M930.49,12.92c-46.38,0-75.89,23.42-81.69,57.24c-4.81,33.34,13.62,65.7,44.75,78.57
		c53.12,22.78,113.58-12.23,113.58-62.05C1007.13,35.98,969.56,12.92,930.49,12.92z"/>
	<path id="Path_733" class="st8" d="M928.18,155.19c-11.59-0.01-23.06-2.38-33.71-6.97c-30.69-12.8-48.82-44.75-44.05-77.66
		c6.01-35.08,36.58-56.87,79.76-56.87c37.5,0,75.37,22.51,75.37,72.78c-0.38,22.48-12.21,43.22-31.38,54.98
		C960.52,150.43,944.53,155.21,928.18,155.19z"/>
	<path id="Path_734" class="st0" d="M1055.35,417.96h-3.08c-1.37,0.01-2.71-0.39-3.84-1.16c-2-1.3-3.23-3.51-3.29-5.89
		c0-0.27,0.07-0.55,0.07-0.82c1.1-10,1.37-20.49,1.64-30.56c-0.2-16.12,1.3-32.22,4.45-48.03c0.27-1.51,0.62-3.01,0.89-4.52
		c0.07,0.82,0.14,1.58,0.21,2.4C1054.39,358.83,1054.87,388.36,1055.35,417.96z"/>
	<path id="Path_735" class="st9" d="M1045.14,410.91c0-0.27,0.07-0.55,0.07-0.82c1.1-10,1.37-20.49,1.64-30.56
		c-0.2-16.12,1.3-32.22,4.45-48.03c-0.07-1.85-0.21-3.7-0.34-5.55c0-0.27-0.07-0.62-0.07-0.89c-2.54-38.51-8.91-87.02-33.99-122.45
		c-27.04-40.3-78.87-55.74-123.55-36.8c-40.43,17.75-72.5,62.42-83.6,116.76c-4.6,26.24-6.78,52.85-6.51,79.49
		c-0.34,15.55-0.62,31.59-1.99,47.14v0.62c-0.03,4.02,3.21,7.31,7.24,7.33c0.01,0,0.02,0,0.03,0h238.05
		c0.63-0.01,1.26-0.12,1.85-0.34C1046.43,415.49,1045.2,413.29,1045.14,410.91z"/>
	<path id="Path_736" class="st10" d="M1053.77,409.74c0.07,3.31-2.14,6.23-5.34,7.06c-2-1.3-3.23-3.51-3.29-5.89
		c0-0.27,0.07-0.55,0.07-0.82c1.1-10,1.37-20.49,1.64-30.56c-0.2-16.12,1.3-32.22,4.45-48.03
		C1052.95,357.66,1053.29,384.11,1053.77,409.74z"/>
	<path id="Path_373" class="st0" d="M1151.4,120.89c-37.05,0-60.6,19.95-65.23,48.75c-4.16,27.74,10.36,54.93,35.73,66.89
		c42.42,19.41,90.7-10.43,90.7-52.83C1212.61,140.54,1182.6,120.89,1151.4,120.89z"/>
	<path id="Path_737" class="st11" d="M1147.77,239.81c-9.64,0-19.18-1.94-28.06-5.7c-25.38-10.3-40.47-36.55-36.6-63.66
		c5-28.83,30.43-46.74,66.37-46.74c31.26,0,62.78,18.47,62.78,59.7c-0.52,19.08-10.94,36.51-27.5,46.01
		C1173.63,236.23,1160.83,239.83,1147.77,239.81z"/>
	<path id="Path_738" class="st2" d="M1258.65,414.74h-3.84c-0.28,0.38-0.57,0.75-0.89,1.1c-1.36,1.36-3.21,2.13-5.14,2.12h-196.52
		c-1.37,0.01-2.71-0.39-3.84-1.16c-2-1.3-3.23-3.51-3.29-5.89c0-0.27,0.07-0.55,0.07-0.82c1.1-10,1.37-20.49,1.64-30.56
		c-0.2-16.12,1.3-32.22,4.45-48.03c-0.07-1.85-0.21-3.7-0.34-5.55c0-0.27-0.07-0.62-0.07-0.89c10.16-35.54,36.62-64.14,71.26-77.02
		c35.84-12.4,79.28-3.22,104.29,24.74c0.89,1.03,1.78,1.99,2.6,3.08c18.71,22.95,24.74,53.58,27.2,83.05
		c1.51,17.68,1.99,35.43,2.33,53.17C1258.59,412.96,1258.59,413.85,1258.65,414.74z"/>
	<path id="Path_739" class="st12" d="M1255.91,410.7c0.03,0.46-0.02,0.92-0.14,1.37c-0.14,0.94-0.47,1.85-0.96,2.67
		c-0.28,0.38-0.57,0.75-0.89,1.1c-1.36,1.36-3.21,2.13-5.14,2.12h-196.52c-1.37,0.01-2.71-0.39-3.84-1.16
		c-2-1.3-3.23-3.51-3.29-5.89c0-0.27,0.07-0.55,0.07-0.82c1.1-10,1.37-20.49,1.64-30.56c-0.2-16.12,1.3-32.22,4.45-48.03
		c0.27-1.51,0.62-3.01,0.89-4.52c0.05-0.05,0.08-0.13,0.07-0.21c9.09-35.97,35.39-65.11,70.24-77.84
		c35.91-12.61,75.88-3.07,102.24,24.39c0.48,0.55,0.96,1.1,1.37,1.58c0.41,0.48,0.62,0.75,0.89,1.1c0.61,0.68,1.18,1.39,1.71,2.12
		c0.27,0.41,0.62,0.82,0.89,1.23c17.4,23.23,22.06,52.76,24.05,76.4C1255.23,374.11,1255.57,392.75,1255.91,410.7z"/>
</g>
</svg>
