<svg xmlns="http://www.w3.org/2000/svg" xmlns:xlink="http://www.w3.org/1999/xlink" version="1.1" id="Layer_1" x="0px" y="0px" viewBox="0 0 109 71" style="enable-background:new 0 0 109 71;" xml:space="preserve">
    <style type="text/css">
        .stPrivatDarkRech0{fill:#FFFFFF;}
        .stPrivatDarkRech1{fill:none;stroke:#010202;stroke-width:1.0337;stroke-miterlimit:1.5801;}
        .stPrivatDarkRech2{fill:#BEE8FF;}
        .stPrivatDarkRech3{fill:none;stroke:#010202;stroke-width:1.0879;stroke-miterlimit:1.5801;}
        .stPrivatDarkRech4{fill:none;stroke:#FFFFFF;stroke-width:1.0337;stroke-miterlimit:1.5801;}
        .stPrivatDarkRech5{fill:none;stroke:#FFFFFF;stroke-width:1.0879;stroke-miterlimit:1.5801;}
        .stPrivatDarkRech6{fill:none;stroke:#010202;stroke-width:0.9604;stroke-miterlimit:1.5801;}
        .stPrivatDarkRech7{fill:none;stroke:#010202;stroke-width:1.0459;stroke-miterlimit:1.5801;}
        .stPrivatDarkRech8{fill:none;stroke:#010202;stroke-width:0.9658;stroke-miterlimit:1.5801;}
        .stPrivatDarkRech9{fill:#FFFFFF;stroke:#010202;stroke-width:1.008;stroke-miterlimit:1.5801;}
        .stPrivatDarkRech10{fill:none;stroke:#010202;stroke-width:1.008;stroke-miterlimit:1.5801;}
        .stPrivatDarkRech11{fill:none;stroke:#010202;stroke-width:0.9387;stroke-miterlimit:1.5801;}
        .stPrivatDarkRech12{fill:none;stroke:#010202;stroke-width:0.9831;stroke-miterlimit:1.5801;}
        .stPrivatDarkRech13{fill:none;stroke:#FFFFFF;stroke-width:0.9604;stroke-miterlimit:1.5801;}
        .stPrivatDarkRech14{fill:none;stroke:#FFFFFF;stroke-width:1.0459;stroke-miterlimit:1.5801;}
        .stPrivatDarkRech15{fill:none;stroke:#FFFFFF;stroke-width:0.9658;stroke-miterlimit:1.5801;}
        .stPrivatDarkRech16{fill:none;stroke:#FFFFFF;stroke-width:1.008;stroke-miterlimit:1.5801;}
        .stPrivatDarkRech17{fill:none;stroke:#FFFFFF;stroke-width:0.9387;stroke-miterlimit:1.5801;}
        .stPrivatDarkRech18{fill:none;stroke:#FFFFFF;stroke-width:0.9831;stroke-miterlimit:1.5801;}
        .stPrivatDarkRech19{fill:#010202;}
        .stPrivatDarkRech20{opacity:0.129;}
        .stPrivatDarkRech21{fill:none;stroke:#010202;stroke-width:0.4807;stroke-miterlimit:1.5801;}
        .stPrivatDarkRech22{fill:none;stroke:#010202;stroke-width:0.5086;stroke-miterlimit:1.5801;}
        .stPrivatDarkRech23{fill:none;stroke:#FFFFFF;stroke-width:0.4807;stroke-miterlimit:1.5801;}
        .stPrivatDarkRech24{fill:#FFFFFF;stroke:#FFFFFF;stroke-width:0.5086;stroke-miterlimit:1.5801;}
    </style>
    <g>
        <path class="stPrivatDarkRech0" d="M36.4,37.68c0,0.06-0.04,0.1-0.1,0.11h-0.01c-0.06-0.01-0.1-0.05-0.1-0.11c-0.03-1.61-0.11-3.24-0.22-4.84   c0-0.06,0.05-0.11,0.1-0.11c0.06,0,0.11,0.04,0.11,0.1C36.3,34.44,36.37,36.07,36.4,37.68z"/>
        <path class="stPrivatDarkRech0" d="M37.74,35.02c0,0.06-0.05,0.11-0.11,0.11c-0.01,0-0.01,0-0.01,0c-0.06,0-0.11-0.05-0.1-0.11l-0.11-2.14   c0-0.06,0.05-0.11,0.11-0.11s0.11,0.05,0.11,0.11L37.74,35.02z"/>
        <path class="stPrivatDarkRech0" d="M50.08,44.43V45c0,0.18-0.15,0.33-0.32,0.33c-1.09,0-2.29,0.03-3.45,0.05c-1.15,0.02-2.37,0.05-3.46,0.06   c-0.18,0-0.32-0.14-0.33-0.31c-0.09-2.47-0.11-4.61-0.07-6.72c0-0.17,0.13-0.31,0.3-0.32c2.33-0.12,4.66-0.12,6.99-0.01   c0.17,0.01,0.31,0.15,0.31,0.32C50.08,40.42,50.08,42.46,50.08,44.43z"/>
        <path class="stPrivatDarkRech0" d="M50.08,58.54v0.57c0,0.18-0.15,0.32-0.32,0.32c-1.1,0.01-2.29,0.03-3.45,0.06c-1.17,0.02-2.37,0.04-3.46,0.05   c-0.18,0-0.32-0.14-0.33-0.31c-0.09-2.47-0.11-4.61-0.07-6.72c0-0.17,0.14-0.31,0.3-0.32c2.33-0.12,4.66-0.12,6.99,0   c0.17,0,0.31,0.15,0.31,0.32C50.08,54.52,50.08,56.56,50.08,58.54z"/>
        <path class="stPrivatDarkRech0" d="M52.72,15.41l0.12,4.02c0,0.06-0.05,0.11-0.11,0.11s-0.1-0.05-0.1-0.11l-0.12-4.02c0-0.06,0.05-0.11,0.1-0.11   C52.67,15.3,52.72,15.35,52.72,15.41z"/>
        <path class="stPrivatDarkRech0" d="M54.25,15.39l0.01,2.03c0,0.06-0.05,0.11-0.11,0.11s-0.11-0.05-0.11-0.11l-0.01-2.03   c0-0.06,0.05-0.11,0.11-0.11S54.25,15.33,54.25,15.39z"/>
        <path class="stPrivatDarkRech0" d="M55.99,15.47c0.06,0.46,0.07,0.92,0.02,1.38c0,0.05-0.05,0.09-0.1,0.09h-0.02c-0.06,0-0.1-0.06-0.09-0.11   c0.02-0.2,0.03-0.4,0.03-0.6c0-0.25-0.02-0.49-0.05-0.73c0-0.01,0-0.01,0-0.02c0-0.05,0.04-0.1,0.09-0.1   C55.93,15.37,55.99,15.41,55.99,15.47z"/>
        <path class="stPrivatDarkRech0" d="M57.15,31.34c-0.17,0-0.31-0.14-0.32-0.31c-0.09-2.47-0.11-4.61-0.07-6.72c0-0.17,0.13-0.31,0.3-0.32   c2.33-0.12,4.66-0.12,6.99-0.01c0.17,0.01,0.31,0.15,0.31,0.33c0.03,2,0.03,4.04,0.03,6.01v0.58c0,0.18-0.15,0.32-0.33,0.32   c-1.09,0.01-2.29,0.04-3.45,0.06C59.45,31.3,58.25,31.33,57.15,31.34z"/>
        <path class="stPrivatDarkRech0" d="M64.55,38.4c0.03,2.01,0.03,4.05,0.03,6.02V45c0,0.18-0.14,0.32-0.32,0.32c-1.09,0.01-2.29,0.03-3.44,0.06   c-1.16,0.02-2.37,0.05-3.47,0.05c-0.01,0-0.01,0-0.02,0c-0.16,0-0.3-0.14-0.3-0.3c-0.1-2.47-0.12-4.61-0.08-6.72   c0-0.17,0.14-0.31,0.31-0.32c2.33-0.12,4.66-0.12,6.99-0.01C64.42,38.09,64.55,38.23,64.55,38.4z"/>
        <path class="stPrivatDarkRech0" d="M64.55,52.51c0.03,2,0.03,4.04,0.03,6.02v0.58c0,0.17-0.14,0.32-0.32,0.32c-1.09,0.01-2.29,0.03-3.45,0.06   c-1.16,0.02-2.36,0.04-3.46,0.05c-0.17,0-0.32-0.14-0.32-0.31c-0.1-2.47-0.12-4.61-0.08-6.72c0.01-0.17,0.14-0.31,0.31-0.32   c2.33-0.12,4.66-0.12,6.99,0C64.42,52.19,64.55,52.34,64.55,52.51z"/>
        <path class="stPrivatDarkRech0" d="M71.61,31.34c-0.17,0-0.32-0.14-0.32-0.31c-0.09-2.47-0.12-4.61-0.07-6.72c0-0.17,0.13-0.31,0.3-0.32   c2.33-0.12,4.66-0.12,6.99-0.01c0.17,0.01,0.3,0.15,0.3,0.32c0.03,2.02,0.03,4.06,0.03,6.03v0.57c0,0.18-0.14,0.33-0.32,0.33   c-1.09,0-2.29,0.03-3.45,0.05C73.9,31.3,72.7,31.33,71.61,31.34z"/>
        <path class="stPrivatDarkRech0" d="M79.01,38.4c0.03,2.01,0.03,4.05,0.03,6.02V45c0,0.18-0.15,0.32-0.33,0.32c-1.09,0.01-2.28,0.04-3.44,0.06   c-1.16,0.02-2.37,0.05-3.46,0.05c-0.01,0-0.01,0-0.02,0c-0.17,0-0.3-0.14-0.31-0.3c-0.09-2.47-0.12-4.61-0.07-6.72   c0-0.17,0.13-0.31,0.3-0.32c2.33-0.12,4.66-0.12,6.99-0.01C78.87,38.09,79.01,38.23,79.01,38.4z"/>
        <path class="stPrivatDarkRech0" d="M79.01,52.51c0.03,2,0.03,4.04,0.03,6.01v0.58c0,0.18-0.15,0.32-0.33,0.32c-1.09,0.01-2.29,0.04-3.45,0.06   c-1.16,0.02-2.36,0.05-3.45,0.05c-0.01,0-0.01,0-0.02,0c-0.17,0-0.3-0.14-0.31-0.3c-0.09-2.47-0.12-4.61-0.07-6.72   c0-0.17,0.13-0.31,0.3-0.32c2.33-0.12,4.66-0.12,6.99,0C78.87,52.19,79.01,52.34,79.01,52.51z"/>
        <path class="stPrivatDarkRech0" d="M81.15,3.71l-0.12,1.9c-0.01,0.05-0.05,0.1-0.11,0.1h-0.01c-0.06-0.01-0.1-0.06-0.1-0.12l0.13-1.89   c0-0.01,0-0.02,0-0.02c0.01-0.05,0.06-0.09,0.1-0.09c0.01,0,0.01,0,0.02,0C81.12,3.6,81.16,3.65,81.15,3.71z"/>
        <path class="stPrivatDarkRech0" d="M82.85,3.64l-0.12,2.72c0,0.06-0.05,0.11-0.11,0.11c-0.01,0-0.01,0-0.01,0c-0.06-0.01-0.1-0.06-0.1-0.12   l0.13-2.72c0.01-0.06,0.05-0.1,0.11-0.1S82.85,3.58,82.85,3.64z"/>
        <path class="stPrivatDarkRech0" d="M84.51,3.51l0.24,5.75c0,0.06-0.05,0.11-0.11,0.11h-0.01c-0.05,0-0.1-0.05-0.1-0.11l-0.24-5.75   c0-0.06,0.05-0.1,0.11-0.1S84.51,3.46,84.51,3.51z"/>
        <path class="stPrivatDarkRech0" d="M86.78,1.34C80.76,1.33,74.76,1.35,68.8,1.83c0.36,3.86,0.35,7.75-0.03,11.61   c-6.07,0.43-12.15,0.51-18.22,0.25c0.28,5.92,0.27,11.76,0.11,17.59c-5.38-0.55-10.81-0.56-16.19-0.01c0,0.22,0.01,0.43,0.01,0.65   l0.32-0.03v-0.32c5.26-0.52,10.56-0.5,15.82,0.04c0.09,0.01,0.18-0.02,0.25-0.08s0.11-0.14,0.11-0.23   c0.17-6.48,0.14-11.97-0.1-17.27c5.97,0.25,11.95,0.16,17.9-0.26c0.16-0.01,0.29-0.14,0.3-0.29c0.37-3.77,0.39-7.57,0.07-11.35   c5.71-0.44,11.44-0.47,17.3-0.46c0.33,19.58,0.44,40.45,0.33,63.72c-8.85-0.28-22.3-0.17-33.26-0.07   c-5.28,0.05-10.14,0.09-13.81,0.09c-0.03-0.92-0.07-1.83-0.13-2.75c-0.2-3.05-0.69-6.9-2.69-9.72c-0.5-0.75-1.11-1.38-1.8-1.9v0.06   c0.65,0.5,1.22,1.11,1.7,1.82c1.9,2.69,2.49,6.4,2.73,9.96c0.05,0.84,0.09,1.68,0.12,2.53c0.01,0.11,0.01,0.21,0.02,0.32   c0,0.1,0,0.21,0.01,0.31c0.02,0.73,0.03,1.46,0.04,2.2c0.01,0.11,0.01,0.22,0.01,0.33c0.03-0.01,0.05-0.01,0.07,0   c0-0.11-0.01-0.22-0.01-0.33c-0.01-0.72-0.03-1.46-0.05-2.19c3.68,0.01,8.53-0.03,13.79-0.08c10.97-0.09,24.42-0.21,33.26,0.07   c0.11,0,0.22,0.01,0.33,0.01V65.4C87.2,44.28,87.13,22.81,86.78,1.34z"/>
        <path id="Path_408_1_" class="stPrivatDarkRech0" d="M87.1,1.35c0-0.18-0.15-0.33-0.33-0.33c-6.09-0.01-12.06,0.02-18,0.49h-0.01   c-0.18,0.02-0.3,0.18-0.28,0.36c0.35,3.75,0.34,7.53-0.02,11.28c-5.96,0.4-11.94,0.48-17.9,0.22h-0.03   c-0.18,0.01-0.31,0.16-0.3,0.34c0.25,5.29,0.28,10.77,0.11,17.22c-5.29-0.52-10.61-0.51-15.9,0.02c-0.17,0.02-0.3,0.16-0.3,0.32   c0,0.23,0.01,0.46,0.01,0.69l0.33-0.04l0.32-0.03v-0.32c5.26-0.52,10.56-0.5,15.82,0.04c0.09,0.01,0.18-0.02,0.25-0.08   s0.11-0.14,0.11-0.23c0.17-6.48,0.14-11.97-0.1-17.27c5.97,0.25,11.95,0.16,17.9-0.26c0.16-0.01,0.29-0.14,0.3-0.29   c0.37-3.77,0.39-7.57,0.07-11.35c5.71-0.44,11.44-0.47,17.3-0.46c0.33,19.58,0.44,40.45,0.33,63.72v0.65   c0.11,0,0.22,0.01,0.33,0.01c0.11,0,0.22,0.01,0.32,0.01v-0.64c0.03-5.55,0.04-10.97,0.04-16.26C87.47,32.13,87.35,16.36,87.1,1.35   z M39.78,68.24h-0.07c0.01,0.11,0.01,0.22,0.01,0.33c0,0.1,0.01,0.21,0,0.32h0.07v-0.32C39.79,68.46,39.78,68.35,39.78,68.24z"/>
        <g id="Group_294_1_" transform="translate(35.186 21.332)">
            <path id="Path_409_1_" class="stPrivatDarkRech2" d="M36.43,9.68c2.19-0.01,4.72-0.1,6.91-0.11c0-2.11,0-4.39-0.03-6.59    c-2.32-0.11-4.64-0.11-6.95,0.01C36.31,5.14,36.34,7.3,36.43,9.68z"/>
            <path id="Path_410_1_" class="stPrivatDarkRech0" d="M43.63,2.97c0-0.17-0.13-0.31-0.3-0.32C41,2.54,38.67,2.54,36.34,2.66    c-0.17,0.01-0.3,0.15-0.3,0.32c-0.05,2.11-0.02,4.25,0.07,6.72c0,0.17,0.15,0.31,0.32,0.31c1.09-0.01,2.29-0.04,3.46-0.06    c1.16-0.02,2.36-0.05,3.45-0.05c0.18,0,0.32-0.15,0.32-0.33V9C43.66,7.03,43.66,4.99,43.63,2.97z M42.99,3.29    c0.01,0.59,0.02,1.19,0.02,1.79V5.3c0.01,1.24,0.01,2.48,0.01,3.7v0.25c-1.01,0.01-2.1,0.03-3.15,0.05    c-1.04,0.03-2.12,0.05-3.12,0.06c-0.06-1.42-0.08-2.74-0.09-4V5.14c0-0.62,0.01-1.23,0.02-1.84C38.86,3.2,40.94,3.19,42.99,3.29z"/>
        </g>
        <g id="Group_295_1_" transform="translate(21.717 21.333)">
            <path id="Path_411_1_" class="stPrivatDarkRech2" d="M35.45,9.68c2.19-0.01,4.72-0.1,6.91-0.11c0-2.11,0-4.39-0.03-6.59    c-2.32-0.11-4.64-0.11-6.95,0.01C35.33,5.14,35.35,7.3,35.45,9.68z"/>
            <path id="Path_412_1_" class="stPrivatDarkRech0" d="M42.65,2.98c0-0.18-0.14-0.32-0.31-0.33c-2.33-0.11-4.66-0.11-6.99,0.01    c-0.17,0.01-0.3,0.15-0.3,0.32c-0.04,2.11-0.02,4.25,0.07,6.72c0.01,0.17,0.15,0.31,0.32,0.31c1.1-0.01,2.3-0.04,3.46-0.06    c1.16-0.02,2.36-0.05,3.45-0.06c0.18,0,0.33-0.14,0.33-0.32V8.99C42.68,7.02,42.68,4.98,42.65,2.98z M35.68,5.13    c0-0.62,0-1.22,0.01-1.83c2.19-0.1,4.26-0.1,6.31-0.01c0.01,0.6,0.02,1.19,0.02,1.79v0.21c0.01,1.24,0.01,2.48,0.01,3.7v0.26    c-1.01,0.01-2.1,0.03-3.15,0.06c-1.04,0.02-2.12,0.04-3.12,0.05c-0.05-1.44-0.08-2.75-0.08-4.02V5.13z"/>
        </g>
        <g id="Group_296_1_" transform="translate(35.365 34.472)">
            <path id="Path_413_1_" class="stPrivatDarkRech2" d="M36.44,10.64c2.19-0.01,4.72-0.1,6.91-0.11c0-2.11,0-4.39-0.03-6.59    c-2.32-0.11-4.64-0.11-6.95,0.01C36.33,6.1,36.35,8.26,36.44,10.64z"/>
            <path id="Path_414_1_" class="stPrivatDarkRech0" d="M43.65,3.93c0-0.17-0.14-0.31-0.31-0.32c-2.33-0.11-4.66-0.11-6.99,0.01    c-0.17,0.01-0.3,0.15-0.3,0.32c-0.05,2.11-0.02,4.25,0.07,6.72c0.01,0.16,0.14,0.3,0.31,0.3c0.01,0,0.01,0,0.02,0    c1.09,0,2.3-0.03,3.46-0.05c1.16-0.02,2.35-0.05,3.44-0.06c0.18,0,0.33-0.14,0.33-0.32V9.95C43.68,7.98,43.68,5.94,43.65,3.93z     M43,4.25c0.01,0.52,0.01,1.05,0.02,1.57v0.21c0.01,1.32,0.01,2.63,0.01,3.92v0.26c-1,0.01-2.08,0.03-3.13,0.05    c-1.05,0.03-2.14,0.05-3.14,0.06c-0.06-1.53-0.08-2.92-0.08-4.27V5.84c0-0.53,0-1.05,0.01-1.58C38.88,4.16,40.95,4.16,43,4.25z"/>
        </g>
        <g id="Group_297_1_" transform="translate(21.896 34.472)">
            <path id="Path_415_1_" class="stPrivatDarkRech2" d="M35.46,10.64c2.19-0.01,4.72-0.1,6.91-0.11c0-2.11,0-4.39-0.03-6.59    c-2.32-0.11-4.64-0.11-6.95,0.01C35.34,6.1,35.37,8.26,35.46,10.64z"/>
            <path id="Path_416_1_" class="stPrivatDarkRech0" d="M42.66,3.93c0-0.17-0.13-0.31-0.3-0.32C40.03,3.5,37.7,3.5,35.37,3.62    c-0.17,0.01-0.31,0.15-0.31,0.32c-0.04,2.11-0.02,4.25,0.08,6.72c0,0.16,0.14,0.3,0.3,0.3c0.01,0,0.01,0,0.02,0    c1.1,0,2.31-0.03,3.47-0.05c1.15-0.03,2.35-0.05,3.44-0.06c0.18,0,0.32-0.14,0.32-0.32V9.95C42.69,7.98,42.69,5.94,42.66,3.93z     M42.02,4.25c0.01,0.5,0.01,0.99,0.02,1.49v0.21c0.01,1.34,0.01,2.69,0.01,4l-0.01,0.26c-1,0.01-2.07,0.03-3.13,0.05    c-1.05,0.02-2.13,0.05-3.14,0.06c-0.06-1.54-0.08-2.95-0.08-4.3V5.8c0-0.52,0.01-1.03,0.02-1.54C37.9,4.16,39.97,4.15,42.02,4.25z    "/>
        </g>
        <g id="Group_298_1_" transform="translate(35.365 47.612)">
            <path id="Path_417_1_" class="stPrivatDarkRech2" d="M36.44,11.6c2.19-0.01,4.72-0.1,6.91-0.11c0-2.11,0-4.39-0.03-6.59    c-2.32-0.11-4.64-0.11-6.95,0.01C36.33,7.06,36.35,9.22,36.44,11.6z"/>
            <path id="Path_418_1_" class="stPrivatDarkRech0" d="M43.65,4.9c0-0.17-0.14-0.32-0.31-0.32c-2.33-0.12-4.66-0.12-6.99,0    c-0.17,0.01-0.3,0.15-0.3,0.32c-0.05,2.11-0.02,4.25,0.07,6.72c0.01,0.16,0.14,0.3,0.31,0.3c0.01,0,0.01,0,0.02,0    c1.09,0,2.29-0.03,3.45-0.05c1.16-0.02,2.36-0.05,3.45-0.06c0.18,0,0.33-0.14,0.33-0.32v-0.58C43.68,8.94,43.68,6.9,43.65,4.9z     M43,5.21c0.01,0.49,0.01,0.97,0.02,1.46v0.22c0.01,1.35,0.01,2.7,0.01,4.02v0.26c-1.01,0.01-2.09,0.03-3.14,0.05    c-1.05,0.02-2.13,0.05-3.13,0.06c-0.06-1.56-0.08-2.98-0.08-4.35V6.72c0-0.5,0-1,0.01-1.5C38.88,5.12,40.95,5.12,43,5.21z"/>
        </g>
        <g id="Group_299_1_" transform="translate(21.896 47.612)">
            <path id="Path_419_1_" class="stPrivatDarkRech2" d="M35.46,11.6c2.19-0.01,4.72-0.1,6.91-0.11c0-2.11,0-4.39-0.03-6.59    c-2.32-0.11-4.64-0.11-6.95,0.01C35.34,7.06,35.37,9.22,35.46,11.6z"/>
            <path id="Path_420_1_" class="stPrivatDarkRech0" d="M42.66,4.9c0-0.17-0.13-0.32-0.3-0.32c-2.33-0.12-4.66-0.12-6.99,0    c-0.17,0.01-0.3,0.15-0.31,0.32c-0.04,2.11-0.02,4.25,0.08,6.72c0,0.17,0.15,0.31,0.32,0.31c1.1-0.01,2.3-0.03,3.46-0.05    c1.16-0.03,2.36-0.05,3.45-0.06c0.18,0,0.32-0.15,0.32-0.32v-0.58C42.69,8.94,42.69,6.9,42.66,4.9z M42.02,5.21    c0.01,0.47,0.01,0.94,0.02,1.41v0.21c0.01,1.37,0.01,2.74,0.01,4.08v0.26c-1.01,0.01-2.09,0.03-3.14,0.05    c-1.05,0.02-2.14,0.05-3.14,0.06c-0.06-1.61-0.08-3.08-0.08-4.49c0-0.07,0-0.14,0.01-0.21c0-0.46,0-0.91,0.01-1.36    C37.9,5.12,39.97,5.12,42.02,5.21z"/>
        </g>
        <g id="Group_300_1_" transform="translate(35.667 23.67)">
            <path id="Path_421_1_" class="stPrivatDarkRech0" d="M36.14,3.02L36.14,3.02l6.55-0.06c0.06,0,0.11-0.05,0.11-0.11s-0.05-0.11-0.11-0.11l0,0    L36.14,2.8c-0.06,0.01-0.1,0.06-0.1,0.12c0,0,0,0,0,0C36.05,2.97,36.09,3.01,36.14,3.02z"/>
        </g>
        <g id="Group_301_1_" transform="translate(21.994 23.655)">
            <path id="Path_422_1_" class="stPrivatDarkRech0" d="M35.15,3.03L35.15,3.03c1.58-0.09,3.46-0.07,5.29-0.07c0.56,0,1.12,0,1.65,0    c0.06,0.01,0.11-0.03,0.12-0.09s-0.03-0.11-0.09-0.12c-0.01,0-0.02,0-0.03,0c-0.54,0-1.09,0-1.65,0c-1.82-0.01-3.72-0.02-5.3,0.07    c-0.06,0-0.11,0.05-0.1,0.11C35.04,2.99,35.09,3.03,35.15,3.03L35.15,3.03z"/>
        </g>
        <g id="Group_302_1_" transform="translate(35.851 36.596)">
            <path id="Path_423_1_" class="stPrivatDarkRech0" d="M36.16,3.93L36.16,3.93c0.95-0.03,2.07-0.02,3.17-0.01c1.12,0.01,2.28,0.02,3.28-0.01    c0.06,0,0.11-0.05,0.11-0.11c0-0.06-0.05-0.11-0.11-0.11c-1,0.04-2.15,0.03-3.27,0.01c-1.1-0.01-2.23-0.02-3.18,0.01    c-0.06,0-0.11,0.05-0.11,0.11C36.05,3.88,36.1,3.93,36.16,3.93L36.16,3.93z"/>
        </g>
        <g id="Group_303_1_" transform="translate(22.245 36.527)">
            <path id="Path_424_1_" class="stPrivatDarkRech0" d="M35.17,3.97L35.17,3.97c1.56-0.06,3.99-0.09,6.67-0.07l0,0c0.06,0,0.11-0.05,0.11-0.11    c0-0.06-0.05-0.11-0.11-0.11c-1.27-0.01-4.45-0.02-6.68,0.07c-0.06,0-0.11,0.05-0.11,0.11c0,0.06,0.05,0.11,0.11,0.11H35.17z"/>
        </g>
        <g id="Group_304_1_" transform="translate(35.882 49.635)">
            <path id="Path_425_1_" class="stPrivatDarkRech0" d="M39.12,4.91c1.24,0,2.49-0.01,3.67-0.05c0.06,0,0.11-0.05,0.11-0.11    c0-0.06-0.05-0.11-0.11-0.11c-1.65,0.06-3.42,0.05-5.14,0.05h-1.47c-0.06-0.01-0.11,0.03-0.12,0.09    c-0.01,0.06,0.03,0.11,0.09,0.12l0,0c0.01,0,0.02,0,0.03,0h1.46C38.14,4.91,38.63,4.91,39.12,4.91z"/>
        </g>
        <g id="Group_305_1_" transform="translate(22.245 49.545)">
            <path id="Path_426_1_" class="stPrivatDarkRech0" d="M41.87,4.9c0.06,0,0.11-0.05,0.11-0.11c0-0.06-0.05-0.11-0.11-0.11    c-2.23-0.05-4.49-0.06-6.71-0.04c-0.06,0-0.11,0.05-0.11,0.11s0.05,0.11,0.11,0.11l0,0C37.38,4.83,39.64,4.85,41.87,4.9L41.87,4.9    z"/>
        </g>
        <g id="Group_306_1_" transform="translate(8.377 34.472)">
            <path id="Path_427_1_" class="stPrivatDarkRech2" d="M34.47,10.64c2.19-0.01,4.72-0.1,6.91-0.11c0-2.11,0-4.39-0.03-6.59    c-2.32-0.11-4.64-0.11-6.95,0.01C34.35,6.1,34.38,8.26,34.47,10.64z"/>
            <path id="Path_428_1_" class="stPrivatDarkRech0" d="M41.68,3.93c0-0.17-0.14-0.31-0.31-0.32c-2.33-0.11-4.66-0.11-6.99,0.01    c-0.17,0.01-0.3,0.15-0.3,0.32c-0.04,2.11-0.02,4.25,0.07,6.72c0.01,0.17,0.15,0.31,0.33,0.31c1.09-0.01,2.31-0.04,3.46-0.06    c1.16-0.02,2.36-0.05,3.45-0.05c0.17,0,0.32-0.15,0.32-0.33V9.96C41.71,7.99,41.71,5.95,41.68,3.93z M41.04,4.25    c0.01,0.49,0.01,0.99,0.01,1.49v0.21c0.01,1.35,0.01,2.69,0.01,4.01v0.25c-1.01,0.01-2.08,0.03-3.13,0.05    c-1.05,0.03-2.14,0.05-3.14,0.06c-0.06-1.54-0.08-2.95-0.08-4.3V5.8c0-0.51,0-1.03,0.01-1.54C36.91,4.16,38.98,4.16,41.04,4.25z"/>
        </g>
        <g id="Group_307_1_" transform="translate(8.377 47.612)">
            <path id="Path_429_1_" class="stPrivatDarkRech2" d="M34.47,11.6c2.19-0.01,4.72-0.1,6.91-0.11c0-2.11,0-4.39-0.03-6.59    c-2.32-0.11-4.64-0.11-6.95,0.01C34.35,7.06,34.38,9.22,34.47,11.6z"/>
            <path id="Path_430_1_" class="stPrivatDarkRech0" d="M41.68,4.9c0-0.17-0.14-0.32-0.31-0.32c-2.33-0.12-4.66-0.12-6.99,0    c-0.16,0.01-0.3,0.15-0.3,0.32c-0.04,2.11-0.02,4.25,0.07,6.72c0.01,0.17,0.15,0.31,0.33,0.31c1.09-0.01,2.29-0.03,3.46-0.05    c1.16-0.03,2.35-0.05,3.45-0.06c0.17,0,0.32-0.14,0.32-0.32v-0.57C41.71,8.95,41.71,6.91,41.68,4.9z M41.04,5.21    c0,0.47,0.01,0.94,0.01,1.41v0.21c0.01,1.37,0.01,2.75,0.01,4.09v0.25c-1.01,0.01-2.09,0.03-3.14,0.05    c-1.05,0.02-2.13,0.05-3.13,0.06c-0.06-1.61-0.08-3.07-0.08-4.49V6.58c0-0.45,0-0.91,0.01-1.36C36.91,5.12,38.98,5.12,41.04,5.21z    "/>
        </g>
        <g id="Group_308_1_" transform="translate(8.726 36.527)">
            <path id="Path_431_1_" class="stPrivatDarkRech0" d="M34.18,3.97L34.18,3.97c1.56-0.06,3.99-0.09,6.67-0.07l0,0c0.06,0,0.11-0.05,0.11-0.11    c0-0.06-0.05-0.11-0.11-0.11c-1.27-0.01-4.45-0.02-6.68,0.07c-0.06,0.01-0.1,0.06-0.09,0.12c0,0,0,0,0,0    C34.08,3.93,34.12,3.96,34.18,3.97L34.18,3.97z"/>
        </g>
        <g id="Group_309_1_" transform="translate(8.716 49.545)">
            <path id="Path_432_1_" class="stPrivatDarkRech0" d="M40.89,4.9C40.95,4.9,41,4.85,41,4.79c0-0.06-0.05-0.11-0.11-0.11    c-2.23-0.05-4.49-0.06-6.71-0.04c-0.06,0-0.11,0.05-0.11,0.11l0,0c0,0.06,0.04,0.1,0.1,0.11h0.01C36.41,4.84,38.66,4.85,40.89,4.9    L40.89,4.9z"/>
        </g>
        <g id="Group_310_1_" transform="translate(0 59.83)">
            <path class="stPrivatDarkRech0" d="M88.72,5.97c-0.42-0.02-0.85-0.04-1.29-0.05c-0.1-0.01-0.21-0.01-0.32-0.02c-0.11,0-0.22,0-0.33-0.01    C73.77,5.47,51.06,5.93,39.72,5.9h-0.06c0,0.1,0,0.21,0.01,0.31c0.02,0.73,0.03,1.46,0.04,2.2c0.01,0.11,0.01,0.22,0.01,0.33    c0,0.1,0.01,0.21,0,0.32c0.01,0.13,0.01,0.27,0.01,0.4c0,0.08,0.01,0.16,0.01,0.24v0.02c-0.02,0.03-0.04,0.05-0.07,0.08    c0.02-0.01,0.05-0.01,0.07,0c16.14-0.08,32.09,0.03,48.89,0.03C88.8,8.55,88.83,7.26,88.72,5.97z M88.35,9.5    c-6.28,0-12.5-0.02-18.53-0.03C59.54,9.44,49.75,9.41,39.8,9.46c0-0.01,0-0.01,0-0.02c0-0.13,0-0.25-0.01-0.38V8.74    c0-0.11-0.01-0.22-0.01-0.33c-0.01-0.72-0.03-1.46-0.05-2.19c3.68,0.01,8.53-0.03,13.79-0.08c10.97-0.09,24.42-0.21,33.26,0.07    c0.11,0,0.22,0.01,0.33,0.01c0.11,0,0.22,0.01,0.32,0.01c0.34,0.01,0.67,0.03,0.99,0.04C88.5,7.35,88.47,8.43,88.35,9.5z"/>
            <path id="Path_434_1_" class="stPrivatDarkRech0" d="M89.04,5.94c-0.01-0.16-0.14-0.29-0.31-0.3c-0.42-0.02-0.85-0.04-1.3-0.05    c-0.1-0.01-0.21-0.01-0.32-0.02c-0.11,0-0.22,0-0.33-0.01c-8.85-0.28-22.3-0.17-33.26-0.07c-5.28,0.05-10.14,0.09-13.81,0.09    h-0.07c0.01,0.11,0.01,0.21,0.02,0.32c0,0.1,0,0.21,0.01,0.31c0.02,0.01,0.04,0.01,0.06,0.01c3.68,0.01,8.53-0.03,13.79-0.08    c10.97-0.09,24.42-0.21,33.26,0.07c0.11,0,0.22,0.01,0.33,0.01c0.11,0,0.22,0.01,0.32,0.01c0.34,0.01,0.67,0.03,0.99,0.04    c0.08,1.08,0.05,2.16-0.07,3.23c-6.28,0-12.5-0.02-18.53-0.03C59.54,9.44,49.75,9.41,39.8,9.46h-0.07c0,0.08,0.01,0.16,0.01,0.24    v0.02c-0.02,0.03-0.04,0.05-0.07,0.08c-0.06,0.08-0.15,0.14-0.25,0.18H33.9c0.01,0.01,0.02,0.03,0.03,0.04    c0.11,0.12,0.22,0.12,0.31,0.12c11.9-0.09,23.4-0.06,35.58-0.02c6.11,0.01,12.44,0.03,18.8,0.03c0.17,0,0.31-0.12,0.33-0.28    C89.12,8.57,89.15,7.25,89.04,5.94z"/>
        </g>
        <path class="stPrivatDarkRech0" d="M84.75,9.26c0,0.06-0.05,0.11-0.11,0.11h-0.01c-0.05,0-0.1-0.05-0.1-0.11l-0.24-5.75c0-0.06,0.05-0.1,0.11-0.1   s0.11,0.05,0.11,0.1L84.75,9.26z"/>
        <path class="stPrivatDarkRech0" d="M82.85,3.64l-0.12,2.72c0,0.06-0.05,0.11-0.11,0.11c-0.01,0-0.01,0-0.01,0c-0.06-0.01-0.1-0.06-0.1-0.12   l0.13-2.72c0.01-0.06,0.05-0.1,0.11-0.1S82.85,3.58,82.85,3.64z"/>
        <path class="stPrivatDarkRech0" d="M81.15,3.71l-0.12,1.9c-0.01,0.05-0.05,0.1-0.11,0.1h-0.01c-0.06-0.01-0.1-0.06-0.1-0.12l0.13-1.89   c0-0.01,0-0.02,0-0.02c0.01-0.05,0.06-0.09,0.1-0.09c0.01,0,0.01,0,0.02,0C81.12,3.6,81.16,3.65,81.15,3.71z"/>
        <g id="Group_314_1_" transform="translate(17.766 13.317)">
            <path class="stPrivatDarkRech0" d="M35.08,6.11c0,0.06-0.05,0.11-0.11,0.11s-0.1-0.05-0.1-0.11l-0.12-4.02c0-0.06,0.05-0.11,0.1-0.11    c0.06,0,0.11,0.05,0.11,0.11L35.08,6.11z"/>
        </g>
        <g id="Group_315_1_" transform="translate(19.189 13.296)">
            <path class="stPrivatDarkRech0" d="M35.07,4.12c0,0.06-0.05,0.11-0.11,0.11s-0.11-0.05-0.11-0.11l-0.01-2.03c0-0.06,0.05-0.11,0.11-0.11    s0.11,0.05,0.11,0.11L35.07,4.12z"/>
        </g>
        <g id="Group_316_1_" transform="translate(20.818 13.383)">
            <path class="stPrivatDarkRech0" d="M35.19,3.47c0,0.05-0.05,0.09-0.1,0.09h-0.02c-0.06,0-0.1-0.06-0.09-0.11c0.02-0.2,0.03-0.4,0.03-0.6    c0-0.25-0.02-0.49-0.05-0.73c0-0.01,0-0.01,0-0.02C34.96,2.05,35,2,35.05,2c0.06-0.01,0.12,0.03,0.12,0.09    C35.23,2.55,35.24,3.01,35.19,3.47z"/>
        </g>
        <g id="Group_317_1_" transform="translate(2.358 29.552)">
            <path class="stPrivatDarkRech0" d="M34.04,8.13c0,0.06-0.04,0.1-0.1,0.11h-0.01c-0.06-0.01-0.1-0.05-0.1-0.11c-0.03-1.61-0.11-3.24-0.22-4.84    c0-0.06,0.05-0.11,0.1-0.11c0.06,0,0.11,0.04,0.11,0.1C33.94,4.89,34.01,6.52,34.04,8.13z"/>
        </g>
        <g id="Group_318_1_" transform="translate(3.699 29.603)">
            <path class="stPrivatDarkRech0" d="M34.04,5.42c0,0.06-0.05,0.11-0.11,0.11c-0.01,0-0.01,0-0.01,0c-0.06,0-0.11-0.05-0.1-0.11l-0.11-2.14    c0-0.06,0.05-0.11,0.11-0.11s0.11,0.05,0.11,0.11L34.04,5.42z"/>
        </g>
        <path class="stPrivatDarkRech23" d="M35.91,44.07c-0.02,1-0.33,1.96-0.88,2.77c-0.08,0.15-0.19,0.29-0.32,0.42v0.01   c-0.09,0.12-0.2,0.24-0.32,0.35c-0.27,0.28-0.58,0.52-0.92,0.73c-1.06,0.69-2.3,1.06-3.57,1.06c-0.9,0-1.79-0.18-2.62-0.53   c-2.39-1-3.8-3.49-3.43-6.04c0.47-2.73,2.85-4.42,6.2-4.42c1.55,0,3.11,0.49,4.23,1.55c0.12,0.1,0.23,0.22,0.33,0.34   c0.13,0.13,0.23,0.27,0.33,0.42C35.55,41.59,35.91,42.7,35.91,44.07z"/>
        <path class="stPrivatDarkRech0" d="M20.24,69.81h-0.29c0.01-0.08,0.01-0.17,0.02-0.25C20.03,69.67,20.13,69.76,20.24,69.81z"/>
        <path class="stPrivatDarkRech0" d="M23.3,62.76c-0.17,1.71-0.2,3.43-0.08,5.15c0,0.11-0.08,0.2-0.19,0.21h-0.01c-0.11,0-0.2-0.08-0.21-0.19   c-0.11-1.73-0.09-3.48,0.09-5.21c0.01-0.11,0.11-0.19,0.22-0.17C23.23,62.56,23.31,62.65,23.3,62.76z"/>
        <path class="stPrivatDarkRech0" d="M25.81,65.73l0.06,2.18c0.01,0.11-0.08,0.21-0.19,0.21h-0.01c-0.11,0-0.19-0.09-0.2-0.19l-0.06-2.19   c0-0.11,0.08-0.21,0.19-0.21C25.71,65.53,25.81,65.61,25.81,65.73z"/>
        <path class="stPrivatDarkRech0" d="M39.74,69.55v0.26h-0.32c0.1-0.04,0.19-0.1,0.25-0.18C39.7,69.6,39.72,69.58,39.74,69.55z"/>
        <path class="stPrivatDarkRech0" d="M23.3,62.76c-0.17,1.71-0.2,3.43-0.08,5.15c0,0.11-0.08,0.2-0.19,0.21h-0.01c-0.11,0-0.2-0.08-0.21-0.19   c-0.11-1.73-0.09-3.48,0.09-5.21c0.01-0.11,0.11-0.19,0.22-0.17C23.23,62.56,23.31,62.65,23.3,62.76z"/>
        <path class="stPrivatDarkRech0" d="M25.47,67.93l-0.06-2.19c0-0.11,0.08-0.21,0.19-0.21c0.11,0,0.21,0.08,0.21,0.2l0.06,2.18   c0.01,0.11-0.08,0.21-0.19,0.21h-0.01C25.56,68.12,25.48,68.03,25.47,67.93z"/>
        <path class="stPrivatDarkRech24" d="M39.42,69.81c-0.06,0.02-0.12,0.04-0.19,0.04H20.47c-0.08,0-0.16-0.02-0.23-0.04H39.42z"/>
        <path class="stPrivatDarkRech24" d="M39.8,69.27c0,0.01,0,0.01,0,0.02c0,0.09-0.03,0.17-0.06,0.24c0-0.08-0.01-0.16-0.01-0.24   c0-0.13,0-0.27-0.01-0.4c0.01-0.11,0-0.22,0-0.32c0-0.11,0-0.22-0.01-0.33c-0.01-0.74-0.02-1.47-0.04-2.2   c-0.01-0.1-0.01-0.21-0.01-0.31c-0.01-0.11-0.01-0.21-0.02-0.32c-0.03-0.85-0.07-1.69-0.12-2.53c-0.24-3.56-0.83-7.27-2.73-9.96   c-0.48-0.71-1.05-1.32-1.7-1.82c-0.11-0.08-0.22-0.16-0.33-0.24s-0.22-0.15-0.33-0.22c-2.11-1.3-4.77-1.58-7.18-0.57   c-3.27,1.43-5.75,5.12-6.61,9.28c-0.67,3.32-0.4,6.8-0.67,10.2c-0.05-0.08-0.08-0.17-0.08-0.27v-0.05   c0.11-1.23,0.14-2.49,0.16-3.72c-0.02-2.1,0.15-4.2,0.51-6.26c0.88-4.29,3.41-7.81,6.6-9.21c0.84-0.36,1.7-0.55,2.56-0.61   c0.24,0.02,0.48,0.01,0.71-0.02h0.07c1.39,0.05,2.75,0.45,3.93,1.18c0.11,0.06,0.22,0.13,0.33,0.21c0.11,0.07,0.22,0.15,0.33,0.24   c0.69,0.52,1.3,1.15,1.8,1.9c2,2.82,2.49,6.67,2.69,9.72c0.06,0.92,0.1,1.83,0.13,2.75c0.01,0.11,0.01,0.21,0.01,0.32   c0.01,0.11,0.01,0.21,0.01,0.32c0.02,0.73,0.04,1.47,0.05,2.19c0,0.11,0.01,0.22,0.01,0.33v0.32C39.8,69.02,39.8,69.14,39.8,69.27z   "/>
        <g id="Group_322_1_" transform="translate(1194.772 36.339)">
            <path class="stPrivatDarkRech0" d="M-1171.55,31.57c0,0.11-0.08,0.2-0.19,0.21h-0.01c-0.11,0-0.2-0.08-0.21-0.19c-0.11-1.73-0.09-3.48,0.09-5.21    c0.01-0.11,0.11-0.19,0.22-0.17c0.11,0.01,0.19,0.1,0.18,0.21C-1171.64,28.13-1171.67,29.85-1171.55,31.57z"/>
        </g>
        <g id="Group_323_1_" transform="translate(1197.259 39.125)">
            <path class="stPrivatDarkRech0" d="M-1171.39,28.79c0.01,0.11-0.08,0.21-0.19,0.21h-0.01c-0.11,0-0.19-0.09-0.2-0.19l-0.06-2.19    c0-0.11,0.08-0.21,0.19-0.21c0.11,0,0.21,0.08,0.21,0.2L-1171.39,28.79z"/>
        </g>
        <polygon class="stPrivatDarkRech0" points="34.8,40.35 34.8,31.89 34.48,31.92 34.15,31.96 34.14,31.96 34.14,39.94  "/>
        <polyline class="stPrivatDarkRech0" points="34,50 34,47.98 34.8,47.46 34.8,50.72 34.14,50.11  "/>
    </g>
    </svg>