<svg xmlns="http://www.w3.org/2000/svg" xmlns:xlink="http://www.w3.org/1999/xlink" version="1.1" id="Layer_1" x="0px" y="0px" viewBox="0 0 109 70" style="enable-background:new 0 0 109 70;" xml:space="preserve">
    <style type="text/css">
        .stPersonDarkRech0{fill:#FFFFFF;}
        .stPersonDarkRech1{fill:none;stroke:#010202;stroke-width:1.0337;stroke-miterlimit:1.5801;}
        .stPersonDarkRech2{fill:#BEE8FF;}
        .stPersonDarkRech3{fill:none;stroke:#010202;stroke-width:1.0879;stroke-miterlimit:1.5801;}
        .stPersonDarkRech4{fill:none;stroke:#FFFFFF;stroke-width:1.0337;stroke-miterlimit:1.5801;}
        .stPersonDarkRech5{fill:none;stroke:#FFFFFF;stroke-width:1.0879;stroke-miterlimit:1.5801;}
        .stPersonDarkRech6{fill:none;stroke:#010202;stroke-width:0.9604;stroke-miterlimit:1.5801;}
        .stPersonDarkRech7{fill:none;stroke:#010202;stroke-width:1.0459;stroke-miterlimit:1.5801;}
        .stPersonDarkRech8{fill:none;stroke:#010202;stroke-width:0.9658;stroke-miterlimit:1.5801;}
        .stPersonDarkRech9{fill:#FFFFFF;stroke:#010202;stroke-width:1.008;stroke-miterlimit:1.5801;}
        .stPersonDarkRech10{fill:none;stroke:#010202;stroke-width:1.008;stroke-miterlimit:1.5801;}
        .stPersonDarkRech11{fill:none;stroke:#010202;stroke-width:0.9387;stroke-miterlimit:1.5801;}
        .stPersonDarkRech12{fill:none;stroke:#010202;stroke-width:0.9831;stroke-miterlimit:1.5801;}
        .stPersonDarkRech13{fill:none;stroke:#FFFFFF;stroke-width:0.9604;stroke-miterlimit:1.5801;}
        .stPersonDarkRech14{fill:none;stroke:#FFFFFF;stroke-width:1.0459;stroke-miterlimit:1.5801;}
        .stPersonDarkRech15{fill:none;stroke:#FFFFFF;stroke-width:0.9658;stroke-miterlimit:1.5801;}
        .stPersonDarkRech16{fill:none;stroke:#FFFFFF;stroke-width:1.008;stroke-miterlimit:1.5801;}
        .stPersonDarkRech17{fill:none;stroke:#FFFFFF;stroke-width:0.9387;stroke-miterlimit:1.5801;}
        .stPersonDarkRech18{fill:none;stroke:#FFFFFF;stroke-width:0.9831;stroke-miterlimit:1.5801;}
        .stPersonDarkRech19{fill:#010202;}
        .stPersonDarkRech20{opacity:0.129;}
        .stPersonDarkRech21{fill:none;stroke:#010202;stroke-width:0.4807;stroke-miterlimit:1.5801;}
        .stPersonDarkRech22{fill:none;stroke:#010202;stroke-width:0.5086;stroke-miterlimit:1.5801;}
        .stPersonDarkRech23{fill:none;stroke:#FFFFFF;stroke-width:0.4807;stroke-miterlimit:1.5801;}
        .stPersonDarkRech24{fill:#FFFFFF;stroke:#FFFFFF;stroke-width:0.5086;stroke-miterlimit:1.5801;}
    </style>
    <g>
        <path id="Path_363_1_" class="stPersonDarkRech2" d="M29.37,69.67c0.76-6.99-0.01-14.18,1.76-20.99c2.19-8.57,8.44-15.53,16.73-18.62   c8.29-2.87,18.36-0.74,24.15,5.73c4.81,5.38,6.31,12.84,6.91,19.97c0.39,4.63,0.48,9.27,0.58,13.91L29.37,69.67z"/>
        <path id="Path_729_1_" class="stPersonDarkRech4" d="M54.55,28.22c-2.21,0-4.39-0.47-6.4-1.37c-5.89-2.66-9.3-8.9-8.35-15.29   c1.13-6.93,6.94-11.23,15.14-11.23c7.13,0,14.32,4.43,14.32,14.34c-0.08,4.51-2.44,8.67-6.27,11.05   C60.47,27.35,57.54,28.22,54.55,28.22z"/>
        <path id="Path_730_1_" class="stPersonDarkRech5" d="M78.16,69.01H30.84c-0.92,0.02-1.69-0.71-1.71-1.63c0-0.06,0-0.12,0.01-0.18   c0.26-2.3,0.33-4.7,0.39-7.02c-0.05-4.08,0.39-8.15,1.31-12.12c2.32-8.4,8.65-15.1,16.9-17.9c8.71-2.88,18.84-0.57,24.63,5.62   c5.16,5.51,6.42,13.01,6.95,18.93c0.37,4.23,0.46,8.5,0.55,12.64c0,0.92-0.75,1.67-1.68,1.67l0,0L78.16,69.01L78.16,69.01z"/>
    </g>
    </svg>