<?xml version="1.0" encoding="utf-8"?>
<!-- Generator: Adobe Illustrator 25.0.0, SVG Export Plug-In . SVG Version: 6.00 Build 0)  -->
<svg  height="70" version="1.1" id="Layer_1" xmlns="http://www.w3.org/2000/svg" xmlns:xlink="http://www.w3.org/1999/xlink" x="0px" y="0px"
	 viewBox="0 0 332 443" style="enable-background:new 0 0 332 443;" xml:space="preserve">
<style type="text/css">
	.st0BlueBgRech{fill:#FFFFFF;}
	.st1BlueBgRech{fill:#010202;}
	.st2BlueBgRech{fill:#bee8ff;}
	.st3BlueBgRech{opacity:0.129;}
	.st4BlueBgRech{fill:none;stroke:#010202;stroke-width:6.5416;stroke-miterlimit:10;}
	.st5BlueBgRech{fill:none;stroke:#010202;stroke-width:6.8851;stroke-miterlimit:10;}
	.st6BlueBgRech{fill:none;stroke:#010202;stroke-width:6.0779;stroke-miterlimit:10;}
	.st7BlueBgRech{fill:none;stroke:#010202;stroke-width:6.6192;stroke-miterlimit:10;}
	.st8BlueBgRech{fill:none;stroke:#010202;stroke-width:6.1122;stroke-miterlimit:10;}
	.st9BlueBgRech{fill:#FFFFFF;stroke:#010202;stroke-width:6.3794;stroke-miterlimit:10;}
	.st1BlueBgRech0{fill:none;stroke:#010202;stroke-width:6.3794;stroke-miterlimit:10;}
	.st1BlueBgRech1{fill:none;stroke:#010202;stroke-width:5.9409;stroke-miterlimit:10;}
	.st1BlueBgRech2{fill:none;stroke:#010202;stroke-width:6.2218;stroke-miterlimit:10;}
	.st1BlueBgRech3{fill:none;stroke:#010202;stroke-width:3.0422;stroke-miterlimit:10;}
	.st1BlueBgRech4{fill:none;stroke:#010202;stroke-width:3.2188;stroke-miterlimit:10;}
</style>
<g id="Group_497" transform="translate(-957.539 21.244)">
	<path id="Path_361" class="st0BlueBgRech" d="M1127.45-17.9c-55.64,0-91.04,29.25-98,71.46c-6.07,41.03,15.84,81.1,53.67,98.12
		c63.72,28.45,136.24-15.29,136.24-77.48C1219.36,10.91,1174.31-17.9,1127.45-17.9z"/>
	<path id="Path_729" class="st4BlueBgRech" d="M1124.56,159.58c-13.96-0.01-27.76-2.97-40.49-8.68c-37.28-16.81-58.86-56.34-52.86-96.79
		c7.18-43.84,43.92-71.05,95.79-71.05c45.1,0,90.61,28.05,90.61,90.76c-0.48,28.55-15.44,54.89-39.71,69.93
		C1162.04,154.09,1143.5,159.58,1124.56,159.58z"/>
	<path id="Path_363" class="st2BlueBgRech" d="M965.22,419.17c4.82-44.25-0.07-89.71,11.13-132.86c13.84-54.26,53.41-98.29,105.9-117.82
		c52.49-18.15,116.22-4.71,152.86,36.25c30.45,34.07,39.91,81.28,43.74,126.38c2.46,29.28,3.05,58.67,3.64,88.04L965.22,419.17z"/>
	<path id="Path_730" class="st5BlueBgRech" d="M1273.98,417.68H974.53c-5.84,0.12-10.67-4.51-10.81-10.34c0-0.38,0.02-0.75,0.06-1.13
		c1.67-14.57,2.06-29.75,2.49-44.43c-0.3-25.81,2.48-51.57,8.28-76.72c14.68-53.14,54.72-95.57,106.93-113.29
		c55.12-18.21,119.22-3.62,155.89,35.55c32.66,34.86,40.66,82.35,43.98,119.83c2.37,26.76,2.92,53.82,3.48,80
		c-0.02,5.84-4.77,10.56-10.61,10.54c0,0,0,0,0,0H1273.98L1273.98,417.68z"/>
</g>
</svg>
