<svg xmlns="http://www.w3.org/2000/svg" xmlns:xlink="http://www.w3.org/1999/xlink" version="1.1" id="Layer_1" x="0px" y="0px" viewBox="0 0 109 70" style="enable-background:new 0 0 109 70;" xml:space="preserve">
    <style type="text/css">
        .stBuldingDarkRech0{fill:#FFFFFF;}
        .stBuldingDarkRech1{fill:none;stroke:#010202;stroke-width:1.0337;stroke-miterlimit:1.5801;}
        .stBuldingDarkRech2{fill:#BEE8FF;}
        .stBuldingDarkRech3{fill:none;stroke:#010202;stroke-width:1.0879;stroke-miterlimit:1.5801;}
        .stBuldingDarkRech4{fill:none;stroke:#FFFFFF;stroke-width:1.0337;stroke-miterlimit:1.5801;}
        .stBuldingDarkRech5{fill:none;stroke:#FFFFFF;stroke-width:1.0879;stroke-miterlimit:1.5801;}
        .stBuldingDarkRech6{fill:none;stroke:#010202;stroke-width:0.9604;stroke-miterlimit:1.5801;}
        .stBuldingDarkRech7{fill:none;stroke:#010202;stroke-width:1.0459;stroke-miterlimit:1.5801;}
        .stBuldingDarkRech8{fill:none;stroke:#010202;stroke-width:0.9658;stroke-miterlimit:1.5801;}
        .stBuldingDarkRech9{fill:#FFFFFF;stroke:#010202;stroke-width:1.008;stroke-miterlimit:1.5801;}
        .stBuldingDarkRech10{fill:none;stroke:#010202;stroke-width:1.008;stroke-miterlimit:1.5801;}
        .stBuldingDarkRech11{fill:none;stroke:#010202;stroke-width:0.9387;stroke-miterlimit:1.5801;}
        .stBuldingDarkRech12{fill:none;stroke:#010202;stroke-width:0.9831;stroke-miterlimit:1.5801;}
        .stBuldingDarkRech13{fill:none;stroke:#FFFFFF;stroke-width:0.9604;stroke-miterlimit:1.5801;}
        .stBuldingDarkRech14{fill:none;stroke:#FFFFFF;stroke-width:1.0459;stroke-miterlimit:1.5801;}
        .stBuldingDarkRech15{fill:none;stroke:#FFFFFF;stroke-width:0.9658;stroke-miterlimit:1.5801;}
        .stBuldingDarkRech16{fill:none;stroke:#FFFFFF;stroke-width:1.008;stroke-miterlimit:1.5801;}
        .stBuldingDarkRech17{fill:none;stroke:#FFFFFF;stroke-width:0.9387;stroke-miterlimit:1.5801;}
        .stBuldingDarkRech18{fill:none;stroke:#FFFFFF;stroke-width:0.9831;stroke-miterlimit:1.5801;}
        .stBuldingDarkRech19{fill:#010202;}
        .stBuldingDarkRech20{opacity:0.129;}
        .stBuldingDarkRech21{fill:none;stroke:#010202;stroke-width:0.4807;stroke-miterlimit:1.5801;}
        .stBuldingDarkRech22{fill:none;stroke:#010202;stroke-width:0.5086;stroke-miterlimit:1.5801;}
        .stBuldingDarkRech23{fill:none;stroke:#FFFFFF;stroke-width:0.4807;stroke-miterlimit:1.5801;}
        .stBuldingDarkRech24{fill:#FFFFFF;stroke:#FFFFFF;stroke-width:0.5086;stroke-miterlimit:1.5801;}
    </style>
    <g>
        <path class="stBuldingDarkRech0" d="M49.69,44.32c0.05,3,0.02,6.04-0.1,9.56c-0.01,0.26-0.23,0.47-0.49,0.46c-1.48,0-3.11-0.04-4.69-0.08   c-1.57-0.03-3.18-0.07-4.65-0.08c-0.27,0-0.48-0.21-0.48-0.48v-0.81c0-2.82,0-5.72,0.04-8.58c0-0.26,0.2-0.46,0.46-0.48   c3.14-0.16,6.3-0.16,9.45,0.02C49.48,43.86,49.68,44.07,49.69,44.32z"/>
        <path class="stBuldingDarkRech0" d="M49.69,29.6c0.05,3,0.02,6.04-0.1,9.56c-0.01,0.26-0.23,0.46-0.49,0.46c-1.48-0.01-3.11-0.04-4.69-0.08   c-1.57-0.03-3.18-0.07-4.65-0.08c-0.27,0-0.48-0.21-0.48-0.48v-0.81c0-2.82,0-5.72,0.04-8.58c0-0.26,0.2-0.47,0.46-0.48   c3.14-0.16,6.3-0.16,9.45,0.01C49.48,29.14,49.68,29.34,49.69,29.6z"/>
        <path class="stBuldingDarkRech0" d="M49.95,14.87c0.05,3,0.02,6.04-0.1,9.56c-0.01,0.27-0.22,0.47-0.48,0.47c-1.49-0.01-3.11-0.05-4.68-0.08   c-1.58-0.04-3.2-0.07-4.67-0.08c-0.27,0-0.48-0.22-0.48-0.49v-0.81c0-2.81,0-5.72,0.04-8.58c0-0.25,0.2-0.46,0.45-0.47   c3.15-0.17,6.31-0.16,9.46,0.01C49.74,14.41,49.94,14.62,49.95,14.87z"/>
        <path class="stBuldingDarkRech0" d="M69.24,44.32c0.06,3,0.03,6.04-0.1,9.56c-0.01,0.26-0.22,0.47-0.48,0.46c-1.49,0-3.12-0.04-4.69-0.08   c-1.58-0.03-3.19-0.07-4.66-0.08c-0.26,0-0.48-0.21-0.48-0.48v-0.81c0-2.82,0-5.72,0.04-8.58c0.01-0.26,0.21-0.46,0.46-0.48   c3.15-0.16,6.3-0.16,9.45,0.02C69.04,43.86,69.24,44.07,69.24,44.32z"/>
        <path class="stBuldingDarkRech0" d="M69.24,29.6c0.06,3,0.03,6.04-0.1,9.56c-0.01,0.26-0.22,0.46-0.48,0.46c-1.49-0.01-3.12-0.04-4.69-0.08   c-1.58-0.03-3.19-0.07-4.66-0.08c-0.26,0-0.48-0.21-0.48-0.48v-0.81c0-2.82,0-5.72,0.04-8.58c0.01-0.26,0.21-0.47,0.46-0.48   c3.15-0.16,6.3-0.16,9.45,0.01C69.04,29.14,69.24,29.34,69.24,29.6z"/>
        <path class="stBuldingDarkRech0" d="M69.5,14.87c0.06,3.01,0.02,6.05-0.1,9.56c-0.01,0.27-0.22,0.47-0.48,0.47c-1.49-0.01-3.11-0.05-4.68-0.08   c-1.57-0.04-3.19-0.07-4.67-0.08c-0.26,0-0.48-0.22-0.48-0.49v-0.83c0-2.8,0-5.71,0.04-8.56c0.01-0.25,0.2-0.46,0.46-0.47   c3.15-0.17,6.3-0.16,9.45,0.01C69.3,14.41,69.49,14.62,69.5,14.87z"/>
        <path class="stBuldingDarkRech0" d="M31.24,0.69L31.19,5.1v0.75l-0.01,0.21l-0.02,1.89l-0.64,61.36h47.4l0.49-61.24l0.02-1.86V5.48l0.04-4.63   L31.24,0.69z M31.72,0.94L77.99,1.1l-0.03,4.25C62.39,4.83,46.82,4.74,31.68,5.09L31.72,0.94z M77.44,69.06H31.01l0.63-60.8   l0.03-2.21C46.81,5.71,62.38,5.8,77.95,6.33l-0.02,2.11L77.44,69.06z M75.85,7.93c-0.09,0-0.17,0.07-0.16,0.16v0.48   c0.01,2.49-0.08,5.02-0.26,7.5c-0.01,0.09,0.06,0.16,0.14,0.17h0.02c0.08,0,0.15-0.06,0.16-0.15c0.19-2.49,0.27-5.02,0.26-7.53   V8.09C76.01,8,75.93,7.93,75.85,7.93z M73.53,8.5c-0.01-0.07-0.07-0.12-0.15-0.12c-0.07,0.01-0.12,0.05-0.15,0.11   c-0.01,0.02-0.01,0.04-0.01,0.06l0.11,2.82c0.01,0.09,0.08,0.15,0.16,0.15h0.01c0.09,0,0.16-0.08,0.15-0.16l-0.11-2.82   C73.54,8.52,73.54,8.51,73.53,8.5z M39.08,7.8c-0.01-0.09-0.09-0.16-0.18-0.15c-0.08,0.01-0.15,0.09-0.14,0.18l0.02,0.25l0.14,1.45   c0.01,0.08,0.08,0.15,0.16,0.15h0.02c0.09-0.01,0.15-0.09,0.14-0.18l-0.13-1.42L39.08,7.8z M36.34,7.87   c-0.01-0.09-0.08-0.16-0.17-0.16c-0.09,0.01-0.16,0.08-0.16,0.17l0.01,0.23l0.1,2.59c0.01,0.08,0.08,0.15,0.16,0.15h0.01   c0.09,0,0.16-0.08,0.15-0.17L36.35,8.1L36.34,7.87z M34.01,7.61c-0.09,0-0.16,0.07-0.16,0.16v0.45l-0.03,6.18   c0,0.09,0.07,0.16,0.16,0.16c0.09,0,0.16-0.07,0.16-0.16l0.03-6.2V7.77C34.17,7.68,34.1,7.61,34.01,7.61z"/>
        <path id="Path_381_1_" class="stBuldingDarkRech0" d="M78.82,0.47c-0.1-0.07-0.22-0.11-0.34-0.11L31.24,0.2c-0.27,0-0.48,0.16-0.48,0.37   l-0.72,68.85c0,0.11,0.06,0.21,0.14,0.27c0.1,0.07,0.22,0.11,0.34,0.1h47.4c0.23,0.03,0.44-0.13,0.48-0.37l0.56-68.69   C78.96,0.63,78.9,0.53,78.82,0.47z M31.01,69.06l0.63-60.8l0.03-2.21V5.54l0.01-0.45l0.04-4.15L77.99,1.1l-0.03,4.25l-0.01,0.48   v0.5l-0.02,2.11l-0.49,60.62H31.01z"/>
        <g id="Group_273_1_" transform="translate(8.771 12.989)">
            <path id="Path_382_1_" class="stBuldingDarkRech2" d="M40.6,11.43c-2.96-0.02-6.39-0.14-9.34-0.16c0-3.01,0-6.25,0.04-9.39    c3.13-0.16,6.27-0.16,9.4,0.01C40.75,4.97,40.72,8.04,40.6,11.43z"/>
            <path id="Path_383_1_" class="stBuldingDarkRech0" d="M41.18,1.88c-0.01-0.25-0.21-0.46-0.46-0.47c-3.15-0.17-6.31-0.18-9.46-0.01    c-0.25,0.01-0.45,0.22-0.45,0.47c-0.04,2.86-0.04,5.77-0.04,8.58v0.81c0,0.27,0.21,0.49,0.48,0.49c1.47,0.01,3.09,0.04,4.67,0.08    c1.57,0.03,3.19,0.07,4.68,0.08c0.26,0,0.47-0.2,0.48-0.47C41.2,7.92,41.23,4.88,41.18,1.88z M40.24,5c0,1.88-0.03,3.82-0.11,5.94    c-1.34-0.01-2.79-0.04-4.19-0.07c-1.41-0.04-2.85-0.07-4.2-0.08v-0.34c0-1.82,0-3.67,0.01-5.53V4.6c0.01-0.76,0.01-1.51,0.02-2.26    c2.75-0.13,5.52-0.13,8.45,0.01c0.02,0.77,0.02,1.55,0.02,2.33V5z"/>
        </g>
        <g id="Group_274_1_" transform="translate(26.83 12.989)">
            <path id="Path_384_1_" class="stBuldingDarkRech2" d="M42.09,11.43c-2.96-0.02-6.39-0.14-9.34-0.16c0-3.01,0-6.25,0.04-9.39    c3.13-0.16,6.27-0.16,9.4,0.01C42.25,4.97,42.21,8.04,42.09,11.43z"/>
            <path id="Path_385_1_" class="stBuldingDarkRech0" d="M42.67,1.88c-0.01-0.25-0.2-0.46-0.46-0.47c-3.15-0.17-6.3-0.18-9.45-0.01    c-0.26,0.01-0.45,0.22-0.46,0.47c-0.04,2.85-0.04,5.76-0.04,8.56v0.83c0,0.27,0.22,0.49,0.48,0.49c1.48,0.01,3.1,0.04,4.67,0.08    c1.57,0.03,3.19,0.07,4.68,0.08c0.26,0,0.47-0.2,0.48-0.47C42.69,7.93,42.73,4.89,42.67,1.88z M41.62,10.94    c-1.34-0.01-2.79-0.04-4.19-0.07c-1.41-0.04-2.86-0.07-4.21-0.08v-0.36c0-1.81,0-3.66,0.02-5.52c-0.01-0.1-0.01-0.21,0-0.32    c0-0.75,0.01-1.5,0.02-2.25c2.75-0.13,5.52-0.13,8.45,0.01c0.02,0.77,0.02,1.53,0.02,2.31v0.32C41.73,6.87,41.7,8.82,41.62,10.94z    "/>
        </g>
        <g id="Group_275_1_" transform="translate(8.528 26.587)">
            <path id="Path_386_1_" class="stBuldingDarkRech2" d="M40.57,12.56c-2.96-0.02-6.39-0.14-9.34-0.16c0-3.01,0-6.25,0.04-9.39    c3.13-0.16,6.27-0.16,9.41,0.01C40.73,6.09,40.69,9.17,40.57,12.56z"/>
            <path id="Path_387_1_" class="stBuldingDarkRech0" d="M41.16,3.02c-0.01-0.26-0.21-0.46-0.46-0.48c-3.15-0.17-6.31-0.17-9.45-0.01    c-0.26,0.01-0.46,0.22-0.46,0.48c-0.04,2.86-0.04,5.76-0.04,8.58v0.81c0,0.27,0.21,0.48,0.48,0.48c1.47,0.01,3.08,0.05,4.65,0.08    c1.58,0.04,3.21,0.07,4.69,0.08c0.26,0,0.48-0.2,0.49-0.46C41.18,9.06,41.21,6.02,41.16,3.02z M40.22,6.45    c0,1.77-0.04,3.62-0.11,5.63c-1.35-0.02-2.81-0.05-4.21-0.08c-1.4-0.03-2.84-0.06-4.19-0.08v-0.33c0-1.7,0-3.43,0.01-5.17V6.1    c0-0.88,0.01-1.76,0.02-2.63c2.75-0.13,5.53-0.12,8.46,0.01c0.01,0.87,0.02,1.75,0.02,2.65V6.45z"/>
        </g>
        <g id="Group_276_1_" transform="translate(26.587 26.586)">
            <path id="Path_388_1_" class="stBuldingDarkRech2" d="M42.07,12.56c-2.96-0.02-6.39-0.14-9.34-0.16c0-3.01,0-6.25,0.04-9.39    c3.13-0.16,6.27-0.16,9.41,0.01C42.23,6.09,42.19,9.17,42.07,12.56z"/>
            <path id="Path_389_1_" class="stBuldingDarkRech0" d="M42.65,3.02c0-0.26-0.2-0.46-0.46-0.48c-3.15-0.17-6.3-0.17-9.45-0.01    c-0.25,0.01-0.45,0.22-0.46,0.48c-0.04,2.86-0.04,5.76-0.04,8.58v0.81c0,0.27,0.22,0.48,0.48,0.48c1.47,0.01,3.08,0.05,4.66,0.08    c1.57,0.04,3.2,0.07,4.69,0.08c0.26,0,0.47-0.2,0.48-0.46C42.68,9.06,42.71,6.02,42.65,3.02z M41.71,6.09v0.33    c0,1.78-0.04,3.64-0.11,5.66c-1.35-0.02-2.8-0.05-4.2-0.08c-1.4-0.03-2.85-0.06-4.2-0.08v-0.33c0-1.73,0-3.49,0.02-5.26    c-0.01-0.11-0.01-0.21,0-0.32c0-0.85,0.01-1.7,0.02-2.54c2.74-0.13,5.52-0.12,8.45,0.01C41.7,4.34,41.71,5.21,41.71,6.09z"/>
        </g>
        <g id="Group_277_1_" transform="translate(8.528 40.184)">
            <path id="Path_390_1_" class="stBuldingDarkRech2" d="M40.57,13.68c-2.96-0.02-6.39-0.14-9.34-0.16c0-3.01,0-6.25,0.04-9.39    c3.13-0.16,6.27-0.16,9.41,0.01C40.73,7.22,40.69,10.29,40.57,13.68z"/>
            <path id="Path_391_1_" class="stBuldingDarkRech0" d="M41.16,4.14c-0.01-0.25-0.21-0.46-0.46-0.47c-3.15-0.18-6.31-0.18-9.45-0.02    c-0.26,0.02-0.46,0.22-0.46,0.48c-0.04,2.86-0.04,5.76-0.04,8.58v0.81c0,0.27,0.21,0.48,0.48,0.48c1.47,0.01,3.08,0.05,4.65,0.08    c1.58,0.04,3.21,0.08,4.69,0.08c0.26,0.01,0.48-0.2,0.49-0.46C41.18,10.18,41.21,7.14,41.16,4.14z M40.21,8.08    c0,1.62-0.03,3.31-0.1,5.12c-1.35-0.02-2.81-0.05-4.21-0.08c-1.4-0.03-2.84-0.06-4.19-0.08v-0.33c0-1.54,0-3.11,0.01-4.69V7.7    c0-1.04,0.01-2.07,0.02-3.1c2.75-0.13,5.53-0.13,8.46,0.01c0.02,1.03,0.02,2.08,0.02,3.15C40.22,7.86,40.22,7.97,40.21,8.08z"/>
        </g>
        <g id="Group_278_1_" transform="translate(26.587 40.184)">
            <path id="Path_392_1_" class="stBuldingDarkRech2" d="M42.07,13.68c-2.96-0.02-6.39-0.14-9.34-0.16c0-3.01,0-6.25,0.04-9.39    c3.13-0.16,6.27-0.16,9.4,0.01C42.23,7.22,42.19,10.29,42.07,13.68z"/>
            <path id="Path_393_1_" class="stBuldingDarkRech0" d="M42.65,4.14c0-0.25-0.2-0.46-0.46-0.47c-3.15-0.18-6.3-0.18-9.45-0.02    c-0.25,0.02-0.45,0.22-0.46,0.48c-0.04,2.86-0.04,5.76-0.04,8.58v0.81c0,0.27,0.22,0.48,0.48,0.48c1.47,0.01,3.08,0.05,4.66,0.08    c1.57,0.04,3.2,0.08,4.69,0.08c0.26,0.01,0.47-0.2,0.48-0.46C42.68,10.18,42.71,7.14,42.65,4.14z M41.71,7.6    c0,0.11,0,0.22-0.01,0.33c0,1.67-0.03,3.4-0.1,5.27c-1.35-0.02-2.8-0.05-4.2-0.08c-1.4-0.03-2.85-0.06-4.2-0.08v-0.33    c0-1.55,0-3.14,0.01-4.73V7.66c0.01-1.02,0.01-2.04,0.03-3.06c2.74-0.14,5.52-0.13,8.45,0.01C41.7,5.59,41.71,6.58,41.71,7.6z"/>
        </g>
        <path class="stBuldingDarkRech0" d="M78.61,5.86c-0.01,0.13-0.07,0.25-0.16,0.34c-0.01,0.01-0.01,0.01-0.02,0.01c-0.08,0.08-0.19,0.12-0.31,0.12   h-0.17C62.38,5.8,46.81,5.71,31.67,6.05c-0.15,0-0.3,0.01-0.45,0.01h-0.04c-0.06,0-0.11-0.01-0.15-0.04   c-0.18-0.06-0.3-0.23-0.3-0.43c0-0.01,0-0.01,0-0.02c0-0.26,0.2-0.46,0.46-0.47h0.01c0.16,0,0.32-0.01,0.48-0.01   c15.14-0.35,30.71-0.26,46.28,0.26c0.06,0.01,0.12,0.01,0.18,0.01c0.11,0,0.21,0.05,0.29,0.12C78.55,5.56,78.62,5.71,78.61,5.86z"/>
        <g id="Group_280_1_" transform="translate(9.266 16.051)">
            <path id="Path_395_1_" class="stBuldingDarkRech0" d="M39.83,1.94h-0.05l-8.83-0.08c-0.09,0-0.16-0.07-0.16-0.16c0,0,0,0,0,0    c0-0.09,0.07-0.16,0.15-0.16c0,0,0,0,0.01,0l8.87,0.09c0.09,0,0.16,0.07,0.16,0.16c0,0,0,0,0,0C39.99,1.87,39.92,1.94,39.83,1.94z    "/>
        </g>
        <g id="Group_281_1_" transform="translate(27.107 16.032)">
            <path id="Path_396_1_" class="stBuldingDarkRech0" d="M41.84,1.96L41.84,1.96c-2.13-0.12-4.69-0.11-7.15-0.09c-0.76,0-1.52,0.01-2.24,0.01    c-0.09,0-0.16-0.07-0.16-0.16v0c0-0.09,0.07-0.16,0.16-0.16c0,0,0,0,0,0c0.73,0,1.48,0,2.24-0.01c2.47-0.01,5.03-0.03,7.16,0.09    c0.09,0,0.16,0.08,0.15,0.17l0,0C41.99,1.89,41.92,1.96,41.84,1.96z"/>
        </g>
        <g id="Group_282_1_" transform="translate(9.139 29.982)">
            <path id="Path_397_1_" class="stBuldingDarkRech0" d="M39.69,3.05L39.69,3.05C38.41,3,36.88,3.01,35.4,3.03c-1.52,0.02-3.09,0.03-4.45-0.02    c-0.09,0-0.16-0.08-0.15-0.17l0,0c0-0.09,0.08-0.16,0.17-0.15c1.35,0.05,2.92,0.03,4.43,0.02c1.48-0.02,3.01-0.03,4.3,0.02    c0.09,0,0.16,0.08,0.15,0.17v0C39.85,2.98,39.78,3.05,39.69,3.05z"/>
        </g>
        <g id="Group_283_1_" transform="translate(27.107 29.9)">
            <path id="Path_398_1_" class="stBuldingDarkRech0" d="M41.47,3.11L41.47,3.11c-2.12-0.09-5.4-0.12-9.02-0.1l0,0c-0.09,0-0.16-0.07-0.16-0.16    c0-0.09,0.07-0.16,0.16-0.16h0c3.63-0.03,6.92,0.01,9.03,0.1c0.09,0,0.16,0.08,0.15,0.17v0C41.63,3.04,41.56,3.11,41.47,3.11z"/>
        </g>
        <g id="Group_284_1_" transform="translate(8.88 44.024)">
            <path id="Path_399_1_" class="stBuldingDarkRech0" d="M35.9,4.25c-1.68,0-3.36-0.01-4.97-0.07c-0.09,0-0.16-0.08-0.15-0.17    c0.01-0.09,0.08-0.15,0.17-0.15c2.24,0.09,4.63,0.08,6.95,0.07c0.67,0,1.33,0,1.98,0c0.09,0,0.16,0.07,0.16,0.16    s-0.07,0.16-0.16,0.16c-0.66,0-1.32,0-1.98,0C37.23,4.25,36.57,4.25,35.9,4.25z"/>
        </g>
        <g id="Group_285_1_" transform="translate(27.065 43.927)">
            <path id="Path_400_1_" class="stBuldingDarkRech0" d="M32.44,4.24c-0.09,0-0.16-0.07-0.16-0.16c0-0.09,0.07-0.16,0.16-0.16h0    c3.01-0.07,6.06-0.09,9.08-0.05c0.09,0,0.16,0.07,0.16,0.16c0,0.09-0.07,0.16-0.16,0.16l0,0C38.51,4.15,35.45,4.17,32.44,4.24    L32.44,4.24z"/>
        </g>
        <g id="Group_286_1_" transform="translate(3.493 6.837)">
            <path class="stBuldingDarkRech0" d="M30.68,0.94v0.43l-0.03,6.2c0,0.09-0.07,0.16-0.16,0.16c-0.09,0-0.16-0.07-0.16-0.16l0.03-6.18V0.94    c0-0.09,0.07-0.16,0.16-0.16C30.61,0.78,30.68,0.85,30.68,0.94z"/>
        </g>
        <g id="Group_287_1_" transform="translate(5.52 6.935)">
            <path class="stBuldingDarkRech0" d="M30.92,3.75c0.01,0.09-0.06,0.17-0.15,0.17h-0.01c-0.08,0-0.15-0.07-0.16-0.15l-0.1-2.59l-0.01-0.23    c0-0.09,0.07-0.16,0.16-0.17c0.09,0,0.16,0.07,0.17,0.16l0.01,0.23L30.92,3.75z"/>
        </g>
        <g id="Group_288_1_" transform="translate(41.915 7.135)">
            <path class="stBuldingDarkRech0" d="M34.1,0.96v0.47c0.01,2.51-0.07,5.04-0.26,7.53c-0.01,0.09-0.08,0.15-0.16,0.15h-0.02    c-0.08-0.01-0.15-0.08-0.14-0.17c0.18-2.48,0.27-5.01,0.26-7.5V0.96c-0.01-0.09,0.07-0.16,0.16-0.16    C34.01,0.8,34.1,0.87,34.1,0.96z"/>
        </g>
        <g id="Group_289_1_" transform="translate(39.885 7.555)">
            <path class="stBuldingDarkRech0" d="M33.77,3.81c0.01,0.08-0.06,0.16-0.15,0.16H33.6c-0.08,0-0.15-0.06-0.16-0.15L33.33,1    c0-0.02,0-0.04,0.01-0.06c0.03-0.06,0.08-0.1,0.15-0.11c0.08,0,0.14,0.05,0.15,0.12c0.01,0.01,0.01,0.02,0.01,0.04L33.77,3.81z"/>
        </g>
        <g id="Group_290_1_" transform="translate(8.054 6.876)">
            <path class="stBuldingDarkRech0" d="M31.19,2.63c0.01,0.09-0.05,0.17-0.14,0.18h-0.02c-0.08,0-0.15-0.07-0.16-0.15l-0.14-1.45l-0.02-0.25    c-0.01-0.09,0.06-0.17,0.14-0.18c0.09-0.01,0.17,0.06,0.18,0.15l0.03,0.28L31.19,2.63z"/>
        </g>
        <path class="stBuldingDarkRech0" d="M34.17,7.77V8.2c-0.1,0.01-0.21,0.01-0.32,0.02V7.77c0-0.09,0.07-0.16,0.16-0.16   C34.1,7.61,34.17,7.68,34.17,7.77z"/>
        <path class="stBuldingDarkRech0" d="M36.34,7.87l0.01,0.23c-0.11,0-0.22,0.01-0.33,0.01l-0.01-0.23c0-0.09,0.07-0.16,0.16-0.17   C36.26,7.71,36.33,7.78,36.34,7.87z"/>
        <path class="stBuldingDarkRech0" d="M39.08,7.8l0.03,0.28c-0.11-0.01-0.22-0.01-0.33,0l-0.02-0.25c-0.01-0.09,0.06-0.17,0.14-0.18   C38.99,7.64,39.07,7.71,39.08,7.8z"/>
        <path class="stBuldingDarkRech0" d="M73.53,8.5c-0.1-0.01-0.2-0.01-0.3-0.01c0.03-0.06,0.08-0.1,0.15-0.11C73.46,8.38,73.52,8.43,73.53,8.5z"/>
        <path class="stBuldingDarkRech0" d="M76.01,8.09v0.47c-0.1,0.01-0.21,0.01-0.32,0.01V8.09C75.68,8,75.76,7.93,75.85,7.93   C75.93,7.93,76.01,8,76.01,8.09z"/>
        <path class="stBuldingDarkRech0" d="M78.77,7.13c0,0.1-0.01,0.2-0.03,0.31c-0.05,0.24-0.17,0.46-0.33,0.63c-0.13,0.16-0.29,0.28-0.48,0.37   l0.02-2.11C62.38,5.8,46.81,5.71,31.67,6.05l-0.03,2.21c-0.18-0.07-0.34-0.18-0.48-0.31c-0.23-0.24-0.38-0.55-0.42-0.9   c-0.04-0.38,0.07-0.75,0.29-1.03c0.05-0.07,0.1-0.13,0.16-0.17c0.13-0.14,0.3-0.25,0.48-0.31c0.12-0.05,0.25-0.09,0.38-0.1   c2.06-0.18,4.12-0.25,6.18-0.21c2.86-0.03,5.73-0.14,8.59-0.11c3.55,0.14,7.1,0.15,10.65,0.32c4.58-0.13,11.71,0.05,14.99,0.22   c1.31,0.03,2.62,0.11,3.94,0.06c0.36,0.01,0.73,0.02,1.1,0c0.16,0.01,0.31,0.05,0.45,0.11c0.18,0.08,0.35,0.19,0.48,0.34   c0,0.01,0.01,0.02,0.02,0.03C78.66,6.45,78.78,6.78,78.77,7.13z"/>
    </g>
    </svg>