<?xml version="1.0" encoding="utf-8"?>
<!-- Generator: Adobe Illustrator 25.0.0, SVG Export Plug-In . SVG Version: 6.00 Build 0)  -->
<svg version="1.1" id="Layer_1" xmlns="http://www.w3.org/2000/svg" xmlns:xlink="http://www.w3.org/1999/xlink" x="0px" y="0px"
	 viewBox="0 0 200 198" style="enable-background:new 0 0 200 198;" xml:space="preserve">
<style type="text/css">
	.st0{fill:#BEE8FF;}
	.st1{fill:#1A1A1A;}
	.st2{fill:none;stroke:#1A1A1A;stroke-width:2;stroke-miterlimit:10;}
	.st3{fill:none;stroke:#1A1A1A;stroke-width:4;stroke-miterlimit:10;}
	.st4{fill:#FFFFFF;}
	.st5{fill:#1C1C1B;}
	.st6{fill:#2B2A2A;}
	.st7{fill:none;stroke:#000000;stroke-width:0.5;stroke-linecap:round;}
	.st8{fill:none;stroke:#000000;stroke-width:1.21;stroke-linecap:round;}
	.st9{fill:none;stroke:#000000;stroke-width:0.6624;stroke-linecap:round;}
	.st10{fill:none;stroke:#000000;stroke-width:0.2054;stroke-linecap:round;}
</style>
<g>
	<g>
		<path class="st4" d="M101.43,144.42c0,0-36.22-1.11-52.55,8.81c-0.27-28.8-1.35-58.23-4.54-86.82
			c7.2-9.45,17.54-11.15,26.97-11.46c13.62-0.44,28.14,8.51,28.14,8.51L101.43,144.42z"/>
		<path d="M48.88,154c-0.13,0-0.25-0.03-0.37-0.1c-0.23-0.13-0.38-0.39-0.38-0.66c-0.32-34.3-1.76-61.86-4.53-86.74
			c-0.02-0.2,0.03-0.4,0.15-0.56c7.47-9.81,18.11-11.45,27.53-11.75c13.67-0.45,27.95,8.25,28.55,8.62
			c0.22,0.13,0.35,0.37,0.36,0.64l1.98,80.95c0.01,0.21-0.07,0.41-0.22,0.56c-0.15,0.15-0.35,0.23-0.55,0.22
			c-0.36-0.01-36.19-0.99-52.14,8.71C49.14,153.96,49.01,154,48.88,154z M45.12,66.65c2.72,24.53,4.16,51.67,4.5,85.29
			c15.56-8.58,45.66-8.4,51.05-8.29l-1.95-79.72c-2.28-1.33-15.29-8.58-27.38-8.19C62.33,56.02,52.2,57.55,45.12,66.65z"/>
	</g>
	<g>
		<path class="st4" d="M101.43,144.42c0,0,36.21-1.75,53.12,7.09c-1.52-28.76-1.83-59.93-0.42-88.67
			c-7.77-8.97-18.2-9.99-27.62-9.68c-13.62,0.44-27.56,10.33-27.56,10.33L101.43,144.42z"/>
		<path d="M154.55,152.27c-0.12,0-0.23-0.03-0.34-0.08c-16.54-8.65-52.39-7.02-52.75-7.01c-0.2,0.01-0.4-0.06-0.54-0.2
			c-0.15-0.14-0.23-0.33-0.24-0.54L98.2,63.51c-0.01-0.26,0.11-0.5,0.32-0.65c0.58-0.41,14.27-10.02,27.96-10.46
			c9.42-0.31,20.14,0.63,28.2,9.93c0.13,0.15,0.2,0.35,0.19,0.55c-1.34,27.42-1.2,58.05,0.42,88.59c0.01,0.27-0.11,0.53-0.34,0.68
			C154.84,152.23,154.69,152.27,154.55,152.27z M109.22,143.5c11.3,0,32.11,0.88,44.51,6.75c-1.55-30.05-1.68-60.14-0.37-87.14
			c-7.63-8.61-17.84-9.48-26.84-9.19c-12.09,0.39-24.64,8.49-26.82,9.96l2.44,79.74C103.36,143.58,105.88,143.5,109.22,143.5z"/>
	</g>
	<g>
		<path class="st4" d="M101.16,144.43c0,0-40.52-6.99-58.77,3.08c-0.2-29.03-1.85-58.14-5.31-86.94
			c8.06-9.56,19.61-11.3,30.12-11.65c15.2-0.5,31.37,8.48,31.37,8.48L101.16,144.43z"/>
		<path d="M42.39,148.27c-0.13,0-0.26-0.04-0.38-0.11c-0.23-0.14-0.36-0.38-0.37-0.65c-0.21-30.08-1.99-59.3-5.31-86.86
			c-0.03-0.21,0.04-0.43,0.18-0.59c8.34-9.89,20.18-11.57,30.66-11.91c15.23-0.51,31.08,8.2,31.75,8.57
			c0.23,0.13,0.38,0.38,0.39,0.65l2.59,87.03c0.01,0.23-0.09,0.45-0.26,0.6c-0.17,0.15-0.39,0.22-0.61,0.18
			c-0.4-0.07-40.48-6.83-58.29,3C42.63,148.24,42.51,148.27,42.39,148.27z M37.86,60.81c3.25,27.13,5.02,55.87,5.27,85.45
			c17.35-8.58,51.17-3.71,57.26-2.74l-2.55-85.66c-2.51-1.32-17.06-8.63-30.61-8.19C57.16,50.01,45.82,51.6,37.86,60.81z"/>
	</g>
	<g>
		<path class="st4" d="M101.43,144.42c0,0,40-9.61,58.84-0.76c-1.6-28.98-1.77-58.14-0.1-87.11c-8.64-9.01-20.27-10-30.78-9.66
			C114.18,47.39,98.6,57.4,98.6,57.4L101.43,144.42z"/>
		<path d="M101.43,145.19c-0.16,0-0.32-0.05-0.45-0.16c-0.18-0.14-0.28-0.35-0.29-0.58l-2.82-87.03c-0.01-0.27,0.12-0.53,0.35-0.67
			c0.64-0.41,15.92-10.13,31.15-10.62c10.48-0.34,22.4,0.57,31.34,9.89c0.15,0.15,0.23,0.36,0.21,0.58
			c-1.59,27.71-1.56,56.99,0.1,87.02c0.01,0.27-0.11,0.52-0.32,0.67c-0.22,0.15-0.49,0.17-0.73,0.06
			c-18.4-8.65-57.96,0.71-58.36,0.81C101.54,145.18,101.48,145.19,101.43,145.19z M99.37,57.82l2.78,85.65
			c6.02-1.37,39.47-8.43,57.31-1c-1.59-29.54-1.61-58.34-0.06-85.62c-8.51-8.68-19.93-9.52-29.99-9.19
			C115.86,48.1,101.79,56.34,99.37,57.82z"/>
	</g>
	<g>
		<path class="st0" d="M123.35,47.09c2.54,9.62,2.51,19.17,2.67,29.14c-2.2-3.47-4.8-6.51-7.79-9.14c-1.37,3.78-2.98,7.5-4.59,11.22
			c-0.48,0.12-0.78-0.45-0.89-0.91c-2.22-9.27-2.41-17.6-4.33-26.91c3.24-1.99,5.17-2.66,8.96-3.2
			C118.87,47.07,121.79,46.35,123.35,47.09z"/>
		<path class="st0" d="M113.51,79.08c-0.39,0-0.75-0.19-1.03-0.53c-0.28-0.34-0.4-0.76-0.46-0.97c-1.21-5.08-1.83-9.95-2.44-14.66
			c-0.51-3.96-1.03-8.05-1.9-12.27c-0.07-0.32,0.07-0.65,0.35-0.81c3.29-2.02,5.28-2.73,9.24-3.3c0.25-0.04,0.54-0.09,0.87-0.14
			c1.7-0.29,4.02-0.7,5.52,0.01c0.2,0.09,0.35,0.28,0.41,0.49c2.39,9.08,2.53,17.96,2.66,27.36l0.03,1.96
			c0.01,0.34-0.21,0.64-0.53,0.74c-0.32,0.1-0.66-0.03-0.84-0.31c-1.95-3.07-4.25-5.84-6.85-8.25c-1.29,3.45-2.78,6.88-4.22,10.21
			c-0.09,0.22-0.29,0.39-0.51,0.45C113.72,79.07,113.61,79.08,113.51,79.08z M109.26,50.86c0.82,4.09,1.32,8.04,1.81,11.85
			c0.59,4.59,1.19,9.33,2.34,14.23c1.44-3.33,2.89-6.73,4.12-10.13c0.08-0.23,0.28-0.41,0.51-0.47c0.24-0.06,0.49,0,0.67,0.16
			c2.42,2.12,4.61,4.54,6.52,7.21c-0.13-8.96-0.3-17.46-2.51-26.05c-1.14-0.33-3.05,0-4.34,0.22c-0.34,0.06-0.64,0.11-0.91,0.15
			C113.95,48.55,112.09,49.17,109.26,50.86z"/>
	</g>
	<g>
		<path d="M48.62,70.8c-0.09,0-0.17-0.05-0.22-0.13c-0.07-0.12-0.02-0.28,0.1-0.35c5.53-3.07,12.29-4.56,20.11-4.46
			c6.93,0.1,13.84,1.41,20.52,2.68c0.14,0.03,0.22,0.16,0.2,0.3c-0.03,0.14-0.16,0.23-0.29,0.2c-6.66-1.27-13.55-2.57-20.44-2.67
			c-7.73-0.1-14.41,1.37-19.86,4.4C48.7,70.79,48.66,70.8,48.62,70.8z"/>
	</g>
	<g>
		<path d="M49.93,87.26c-0.1,0-0.19-0.06-0.23-0.16c-0.05-0.13,0.01-0.28,0.14-0.33c12.57-4.98,26.61-3.2,38.99-1.63
			c0.14,0.02,0.23,0.14,0.22,0.28c-0.02,0.14-0.14,0.24-0.28,0.22c-12.33-1.56-26.3-3.33-38.75,1.6
			C49.99,87.26,49.96,87.26,49.93,87.26z"/>
	</g>
	<g>
		<path d="M50.96,104.77c-0.09,0-0.18-0.05-0.23-0.15c-0.06-0.13,0-0.28,0.12-0.34c4.77-2.3,9.85-3.69,15.11-4.15
			c2.44-0.21,5.09-0.23,8.09-0.06c5.29,0.3,10.3,1.12,14.88,2.42c0.13,0.04,0.21,0.18,0.17,0.31c-0.04,0.14-0.18,0.21-0.31,0.18
			c-4.54-1.3-9.51-2.11-14.77-2.41c-2.98-0.17-5.6-0.15-8.02,0.06c-5.19,0.45-10.22,1.83-14.94,4.1
			C51.03,104.76,50.99,104.77,50.96,104.77z"/>
	</g>
	<g>
		<path d="M51.19,122.1c-0.09,0-0.17-0.05-0.22-0.13c-0.07-0.12-0.02-0.28,0.1-0.35c10.24-5.7,23.99-6.22,38.72-1.46
			c0.13,0.04,0.2,0.19,0.16,0.32c-0.04,0.13-0.18,0.21-0.31,0.17c-14.6-4.72-28.21-4.21-38.34,1.42
			C51.27,122.09,51.23,122.1,51.19,122.1z"/>
	</g>
	<g>
		<path d="M110.81,85.57c-0.1,0-0.19-0.06-0.23-0.16c-0.05-0.13,0.01-0.28,0.14-0.33c12.03-4.77,26.99-5.39,39.04-1.62
			c0.13,0.04,0.21,0.18,0.17,0.32c-0.04,0.13-0.18,0.21-0.31,0.17c-11.94-3.73-26.78-3.11-38.71,1.61
			C110.87,85.56,110.84,85.57,110.81,85.57z"/>
	</g>
	<g>
		<path d="M111.82,102.79c-0.09,0-0.18-0.05-0.23-0.15c-0.06-0.13,0-0.28,0.12-0.34c4.77-2.3,9.85-3.69,15.11-4.15
			c2.44-0.21,5.09-0.23,8.09-0.06c5.29,0.3,10.3,1.12,14.88,2.42c0.13,0.04,0.21,0.18,0.17,0.31c-0.04,0.14-0.18,0.22-0.31,0.18
			c-4.54-1.3-9.51-2.11-14.77-2.41c-2.98-0.17-5.6-0.15-8.02,0.06c-5.19,0.45-10.22,1.83-14.94,4.1
			C111.9,102.78,111.86,102.79,111.82,102.79z"/>
	</g>
	<g>
		<path d="M112.06,120.4c-0.09,0-0.17-0.05-0.22-0.13c-0.07-0.12-0.02-0.28,0.1-0.35c10.24-5.7,23.99-6.22,38.72-1.46
			c0.13,0.04,0.2,0.19,0.16,0.32c-0.04,0.13-0.18,0.21-0.31,0.17c-14.6-4.72-28.21-4.21-38.34,1.42
			C112.15,120.39,112.1,120.4,112.06,120.4z"/>
	</g>
	<g>
		<path d="M149.16,67.38c-0.03,0-0.07-0.01-0.1-0.02c-5.28-2.36-11.11-3.37-16.85-2.93c-0.13,0.01-0.26-0.09-0.27-0.23
			c-0.01-0.14,0.09-0.26,0.23-0.27c5.83-0.45,11.74,0.58,17.09,2.97c0.13,0.06,0.18,0.21,0.13,0.34
			C149.35,67.32,149.26,67.38,149.16,67.38z"/>
	</g>
	<g>
		<path d="M41.99,68.75c-0.12,0-0.23-0.1-0.25-0.23l-0.88-7.73c-0.02-0.14,0.08-0.27,0.22-0.28c0.14-0.02,0.26,0.08,0.28,0.22
			l0.88,7.73c0.02,0.14-0.08,0.27-0.22,0.28C42.01,68.75,42,68.75,41.99,68.75z"/>
	</g>
	<g>
		<path d="M44.21,62.49c-0.13,0-0.24-0.1-0.25-0.24l-0.32-4.6c-0.01-0.14,0.09-0.26,0.23-0.27c0.13-0.01,0.26,0.1,0.27,0.24
			l0.32,4.6c0.01,0.14-0.09,0.26-0.23,0.27C44.22,62.49,44.22,62.49,44.21,62.49z"/>
	</g>
	<g>
		<path d="M156.11,138.45c-0.12,0-0.23-0.09-0.25-0.21c-0.39-2.51-0.49-5.06-0.3-7.59c0.01-0.14,0.12-0.25,0.27-0.23
			c0.14,0.01,0.24,0.13,0.23,0.27c-0.19,2.49-0.09,5,0.3,7.47c0.02,0.14-0.07,0.27-0.21,0.29
			C156.14,138.45,156.12,138.45,156.11,138.45z"/>
	</g>
	<g>
		<path d="M152.66,137.55c-0.01,0-0.02,0-0.03,0c-0.12-0.02-0.21-0.12-0.22-0.24l-0.14-3.62c-0.01-0.14,0.1-0.26,0.23-0.26
			c0.13-0.01,0.25,0.09,0.26,0.23c0.28,3.19,0.21,3.43,0.13,3.72C152.87,137.48,152.77,137.55,152.66,137.55z"/>
	</g>
</g>
<path class="st7" d="M113.53,55.61c-4.6,0.17-4.33,9.66,1.6,7.62 M115.18,55.26l0.73,3.49 M116.78,62.88l-0.87-4.13 M118.55,54.55
	l0.73,3.49 M120.15,62.17l-0.87-4.13 M115.92,58.75l3.36-0.71 M121.86,61.81l-0.87-4.13 M123.05,53.61l-1.51,0.32
	c-0.71,0.15-1.16,0.85-1.02,1.56l0.46,2.21 M120.99,57.69l1.78-0.37"/>
</svg>
