<?xml version="1.0" encoding="utf-8"?>
<!-- Generator: Adobe Illustrator 25.0.0, SVG Export Plug-In . SVG Version: 6.00 Build 0)  -->
<svg version="1.1" id="Layer_1" xmlns="http://www.w3.org/2000/svg" xmlns:xlink="http://www.w3.org/1999/xlink" x="0px" y="0px"
	 viewBox="0 0 1080 1080" style="enable-background:new 0 0 1080 1080;" xml:space="preserve">
<style type="text/css">
	.st0{fill:#FFFFFF;}
	.st1{fill:#010202;}
	.st2{fill:#ADD3F1;}
	.st3{opacity:0.129;}
	.st4{fill:none;stroke:#010202;stroke-width:8.3965;stroke-miterlimit:10;}
	.st5{fill:none;stroke:#010202;stroke-width:8.8374;stroke-miterlimit:10;}
	.st6{fill:none;stroke:#010202;stroke-width:7.7416;stroke-miterlimit:10;}
	.st7{fill:none;stroke:#010202;stroke-width:8.4311;stroke-miterlimit:10;}
	.st8{fill:none;stroke:#010202;stroke-width:7.7852;stroke-miterlimit:10;}
	.st9{fill:#FFFFFF;stroke:#010202;stroke-width:8.1256;stroke-miterlimit:10;}
	.st10{fill:none;stroke:#010202;stroke-width:8.1256;stroke-miterlimit:10;}
	.st11{fill:none;stroke:#010202;stroke-width:7.567;stroke-miterlimit:10;}
	.st12{fill:none;stroke:#010202;stroke-width:7.9249;stroke-miterlimit:10;}
	.st13{fill:none;stroke:#010202;stroke-width:3.945;stroke-miterlimit:10;}
	.st14{fill:none;stroke:#010202;stroke-width:4.174;stroke-miterlimit:10;}
	.st15{fill:#84CEEF;}
	.st16{fill:none;stroke:#FFFFFF;stroke-width:15.0601;stroke-miterlimit:10;}
	.st17{fill:none;stroke:#FFFFFF;stroke-width:15.0626;stroke-miterlimit:10.0016;}
	.st18{fill:none;stroke:#010202;stroke-width:7.5301;stroke-miterlimit:10;}
	.st19{fill:#FFFFFF;stroke:#040505;stroke-width:7.8633;stroke-miterlimit:10;}
	.st20{fill:#FFFFFF;stroke:#040505;stroke-width:8.8856;stroke-miterlimit:10;}
	.st21{fill:#9ACAEE;}
	.st22{fill:none;stroke:#040506;stroke-width:7.9293;stroke-miterlimit:10;}
	.st23{fill:none;stroke:#040505;stroke-width:7.9293;stroke-miterlimit:10;}
	.st24{fill:#040505;}
</style>
<g id="Group_292" transform="translate(499.447 0.171)">
	<g id="Group_272" transform="translate(0 0)">
		<path id="Path_380" class="st0" d="M-148.27,261.79l-5.81,557.1h384.73l4.53-555.78L-148.27,261.79z"/>
		<path id="Path_381" class="st1" d="M230.65,822.8h-384.73c-1,0.01-1.97-0.29-2.78-0.88c-0.69-0.49-1.12-1.28-1.13-2.14
			l5.81-558.94c0-1.65,1.76-2.96,3.94-2.97l383.45,1.31c0.99-0.01,1.96,0.3,2.77,0.88c0.69,0.49,1.11,1.28,1.13,2.13l-4.53,557.63
			C234.28,821.71,232.55,823.03,230.65,822.8z M-150.14,816.82h376.89l4.47-551.66l-375.62-1.29L-150.14,816.82z"/>
	</g>
	<g id="Group_273" transform="translate(8.771 12.989)">
		<path id="Path_382" class="st2" d="M-9.89,441.45c-24-0.16-51.86-1.15-75.86-1.31c0-24.41,0-50.73,0.33-76.21
			c25.43-1.32,50.92-1.28,76.35,0.11C-8.62,388.97-8.91,413.94-9.89,441.45z"/>
		<path id="Path_383" class="st1" d="M-9.9,445.36L-9.9,445.36c-12.04-0.08-25.23-0.37-37.99-0.65
			c-12.75-0.28-25.89-0.57-37.87-0.65c-2.15-0.01-3.89-1.77-3.89-3.92v-6.6c0-22.85,0-46.43,0.33-69.66
			c0.03-2.06,1.65-3.74,3.7-3.85c25.57-1.33,51.19-1.29,76.76,0.1c2.05,0.11,3.67,1.79,3.71,3.84c0.47,24.37,0.21,49.04-0.8,77.62
			C-6.04,443.7-7.78,445.38-9.9,445.36z M-81.81,436.25c10.96,0.11,22.7,0.37,34.1,0.62c11.4,0.25,23.13,0.51,34.06,0.62
			c0.88-25.43,1.09-47.78,0.73-69.74c-23.79-1.13-46.32-1.17-68.62-0.11c-0.28,21.97-0.27,44.28-0.27,65.87V436.25z"/>
	</g>
	<g id="Group_274" transform="translate(26.83 12.989)">
		<path id="Path_384" class="st2" d="M130.78,441.45c-24-0.16-51.86-1.15-75.86-1.31c0-24.41,0-50.73,0.33-76.21
			c25.43-1.32,50.92-1.28,76.35,0.11C132.06,388.97,131.76,413.94,130.78,441.45z"/>
		<path id="Path_385" class="st1" d="M130.77,445.36L130.77,445.36c-12.04-0.08-25.23-0.37-37.99-0.65
			c-12.75-0.28-25.89-0.57-37.87-0.65c-2.15-0.01-3.89-1.77-3.89-3.92v-6.75c0-22.78,0-46.34,0.32-69.51
			c0.03-2.06,1.65-3.74,3.71-3.85c25.57-1.33,51.19-1.29,76.76,0.1c2.05,0.11,3.67,1.79,3.71,3.84c0.47,24.41,0.21,49.07-0.8,77.62
			C134.63,443.7,132.89,445.37,130.77,445.36z M58.82,436.25c10.96,0.11,22.7,0.37,34.1,0.62c11.4,0.25,23.13,0.51,34.06,0.62
			c0.88-25.4,1.09-47.75,0.73-69.74c-23.79-1.13-46.32-1.17-68.62-0.11c-0.28,21.97-0.27,44.18-0.27,65.72V436.25z"/>
	</g>
	<g id="Group_275" transform="translate(8.528 26.587)">
		<path id="Path_386" class="st2" d="M-11.78,547.37c-24.01-0.16-51.86-1.15-75.86-1.31c0-24.41,0-50.73,0.32-76.21
			c25.44-1.32,50.92-1.28,76.36,0.11C-10.51,494.9-10.81,519.85-11.78,547.37z"/>
		<path id="Path_387" class="st1" d="M-11.78,551.28L-11.78,551.28c-12.06-0.08-25.28-0.37-38.06-0.65
			c-12.78-0.28-25.85-0.57-37.8-0.65c-2.15-0.01-3.89-1.76-3.89-3.91v-6.6c0-22.85,0-46.43,0.33-69.66
			c0.03-2.06,1.65-3.74,3.71-3.85c25.57-1.32,51.19-1.29,76.75,0.1c2.06,0.11,3.68,1.78,3.72,3.84c0.47,24.37,0.2,49.04-0.8,77.62
			C-7.92,549.64-9.67,551.3-11.78,551.28z M-83.73,542.18c10.93,0.11,22.66,0.37,34.03,0.62c11.37,0.25,23.18,0.51,34.13,0.62
			c0.88-25.43,1.08-47.78,0.73-69.74c-23.79-1.13-46.32-1.16-68.63-0.11c-0.27,21.97-0.27,44.28-0.27,65.87L-83.73,542.18z"/>
	</g>
	<g id="Group_276" transform="translate(26.587 26.586)">
		<path id="Path_388" class="st2" d="M128.9,547.37c-24.01-0.16-51.86-1.15-75.86-1.31c0-24.41-0.04-50.73,0.32-76.21
			c25.44-1.32,50.92-1.28,76.36,0.11C130.17,494.89,129.88,519.84,128.9,547.37z"/>
		<path id="Path_389" class="st1" d="M128.89,551.28L128.89,551.28c-12.06-0.08-25.29-0.37-38.06-0.65
			c-12.77-0.28-25.85-0.57-37.8-0.65c-2.15-0.01-3.89-1.76-3.89-3.91v-6.6c0-22.85,0-46.43,0.33-69.66
			c0.03-2.06,1.65-3.74,3.71-3.85c25.57-1.33,51.19-1.29,76.75,0.1c2.06,0.11,3.68,1.78,3.72,3.84c0.47,24.37,0.2,49.04-0.8,77.62
			C132.76,549.63,131.01,551.29,128.89,551.28z M56.94,542.17c10.93,0.11,22.66,0.37,34.03,0.62s23.18,0.51,34.13,0.62
			c0.88-25.43,1.08-47.78,0.73-69.74c-23.79-1.13-46.32-1.17-68.63-0.11c-0.27,21.97-0.27,44.28-0.26,65.87V542.17z"/>
	</g>
	<g id="Group_277" transform="translate(8.528 40.184)">
		<path id="Path_390" class="st2" d="M-11.78,653.29c-24.01-0.16-51.86-1.15-75.86-1.31c0-24.41,0-50.73,0.32-76.21
			c25.44-1.32,50.92-1.28,76.36,0.11C-10.51,600.81-10.81,625.77-11.78,653.29z"/>
		<path id="Path_391" class="st1" d="M-11.78,657.2L-11.78,657.2c-12.06-0.08-25.28-0.37-38.06-0.65s-25.85-0.57-37.8-0.65
			c-2.15-0.01-3.89-1.76-3.89-3.91v-6.6c0-22.85,0-46.43,0.33-69.66c0.03-2.06,1.65-3.74,3.71-3.85c25.57-1.32,51.19-1.29,76.75,0.1
			c2.06,0.11,3.68,1.78,3.72,3.84c0.47,24.37,0.2,49.04-0.8,77.62C-7.92,655.55-9.67,657.22-11.78,657.2z M-83.73,648.09
			c10.93,0.11,22.66,0.37,34.03,0.62s23.18,0.51,34.13,0.62c0.88-25.43,1.08-47.78,0.73-69.74c-23.79-1.13-46.32-1.16-68.63-0.11
			c-0.27,21.97-0.27,44.28-0.27,65.87L-83.73,648.09z"/>
	</g>
	<g id="Group_278" transform="translate(26.587 40.184)">
		<path id="Path_392" class="st2" d="M128.9,653.29c-24.01-0.16-51.86-1.15-75.86-1.31c0-24.41-0.04-50.73,0.32-76.21
			c25.43-1.31,50.91-1.27,76.34,0.11C130.17,600.81,129.88,625.77,128.9,653.29z"/>
		<path id="Path_393" class="st1" d="M128.89,657.2L128.89,657.2c-12.06-0.08-25.29-0.37-38.06-0.65s-25.85-0.57-37.8-0.65
			c-2.15-0.01-3.89-1.76-3.89-3.91v-6.6c0-22.85,0-46.43,0.33-69.66c0.03-2.06,1.65-3.74,3.71-3.85c25.57-1.32,51.19-1.29,76.75,0.1
			c2.06,0.11,3.68,1.78,3.72,3.84c0.47,24.37,0.2,49.04-0.8,77.62C132.76,655.55,131.01,657.22,128.89,657.2z M56.94,648.09
			c10.93,0.11,22.66,0.37,34.03,0.62s23.18,0.51,34.13,0.62c0.88-25.43,1.08-47.78,0.73-69.74c-23.79-1.13-46.32-1.17-68.63-0.11
			c-0.27,21.97-0.27,44.28-0.26,65.87V648.09z"/>
	</g>
	<g id="Group_279" transform="translate(0.625 4.321)">
		<path id="Path_394" class="st1" d="M231.71,303.29h-0.13c-128.08-4.32-256.16-5.05-380.65-2.16c-2.16,0.05-3.96-1.67-4.01-3.83
			c0,0,0,0,0,0c-0.04-2.16,1.67-3.96,3.83-4.01c124.64-2.88,252.87-2.16,381.09,2.17c2.16,0.08,3.85,1.89,3.78,4.05
			C235.55,301.61,233.82,303.29,231.71,303.29z"/>
	</g>
	<g id="Group_280" transform="translate(9.266 16.051)">
		<path id="Path_395" class="st1" d="M-12.54,386.22h-0.37l-71.65-0.69c-0.72,0-1.3-0.59-1.29-1.31c0,0,0-0.01,0-0.01
			c-0.01-0.7,0.55-1.28,1.26-1.29c0.02,0,0.04,0,0.06,0l71.97,0.71c0.72,0,1.3,0.59,1.29,1.31c0,0,0,0.01,0,0.01
			C-11.29,385.65-11.85,386.2-12.54,386.22z"/>
	</g>
	<g id="Group_281" transform="translate(27.107 16.032)">
		<path id="Path_396" class="st1" d="M130.73,386.2h-0.07c-17.27-0.98-37.97-0.88-58.01-0.76c-6.15,0-12.31,0.06-18.2,0.06
			c-0.72,0-1.3-0.57-1.31-1.29c0-0.01,0-0.01,0-0.02c0-0.72,0.58-1.3,1.3-1.3c0,0,0.01,0,0.01,0c5.91,0,12.01,0,18.19-0.07
			c20.06-0.11,40.8-0.22,58.15,0.77c0.72,0.04,1.27,0.65,1.23,1.37c0,0,0,0,0,0C131.97,385.66,131.41,386.19,130.73,386.2z"/>
	</g>
	<g id="Group_282" transform="translate(9.139 29.982)">
		<path id="Path_397" class="st1" d="M-14.61,494.33h-0.04c-10.38-0.4-22.79-0.26-34.79-0.14c-12.31,0.13-25.1,0.26-36.1-0.16
			c-0.72-0.02-1.28-0.63-1.26-1.34c0,0,0,0,0,0c0.04-0.71,0.64-1.27,1.35-1.26c10.93,0.42,23.66,0.28,35.97,0.16
			c12.03-0.12,24.47-0.25,34.93,0.14c0.72,0.02,1.28,0.62,1.26,1.34c0,0,0,0.01,0,0.01C-13.32,493.79-13.91,494.34-14.61,494.33z"/>
	</g>
	<g id="Group_283" transform="translate(27.107 29.9)">
		<path id="Path_398" class="st1" d="M127.74,494.26h-0.05c-17.12-0.72-43.8-1-73.21-0.8l0,0c-0.72,0-1.3-0.58-1.31-1.29
			c-0.01-0.72,0.56-1.31,1.28-1.32c0.01,0,0.01,0,0.02,0c29.45-0.21,56.17,0.07,73.33,0.8c0.72,0.03,1.28,0.63,1.25,1.35
			c0,0,0,0.01,0,0.01C129.02,493.71,128.44,494.26,127.74,494.26z"/>
	</g>
	<g id="Group_284" transform="translate(8.88 44.024)">
		<path id="Path_399" class="st1" d="M-47.24,604.03c-13.62,0-27.25-0.11-40.33-0.61c-0.72-0.03-1.28-0.64-1.26-1.35
			c0.07-0.7,0.65-1.24,1.35-1.26c18.16,0.7,37.6,0.63,56.4,0.57c5.4,0,10.76,0,16.1,0c0.72,0,1.3,0.58,1.31,1.3
			c0,0.72-0.59,1.31-1.31,1.31c-5.33,0-10.7,0-16.09,0C-36.41,604.02-41.83,604.03-47.24,604.03z"/>
	</g>
	<g id="Group_285" transform="translate(27.065 43.927)">
		<path id="Path_400" class="st1" d="M54.13,603.24c-0.71,0-1.28-0.57-1.3-1.27c-0.02-0.72,0.55-1.32,1.27-1.34c0,0,0.01,0,0.01,0
			c24.44-0.55,49.22-0.71,73.69-0.44c0.72,0.01,1.3,0.6,1.29,1.32c-0.01,0.72-0.59,1.29-1.31,1.29l0,0
			c-24.42-0.26-49.22-0.11-73.61,0.45L54.13,603.24z"/>
	</g>
	<g id="Group_286" transform="translate(3.493 6.837)">
		<path id="Path_401" class="st1" d="M-129.48,367.57L-129.48,367.57c-0.72,0-1.31-0.59-1.31-1.32l0.18-53.81
			c0-0.72,0.59-1.3,1.31-1.31l0,0c0.72,0.01,1.3,0.6,1.3,1.32l-0.18,53.82C-128.18,366.99-128.76,367.57-129.48,367.57z"/>
	</g>
	<g id="Group_287" transform="translate(5.52 6.935)">
		<path id="Path_402" class="st1" d="M-112.84,337.37c-0.7,0-1.28-0.55-1.31-1.26l-0.88-22.85c-0.02-0.72,0.54-1.33,1.26-1.35
			c0.72-0.02,1.33,0.54,1.35,1.26l0.88,22.85c0.03,0.72-0.53,1.32-1.25,1.35c0,0-0.01,0-0.01,0H-112.84z"/>
	</g>
	<g id="Group_288" transform="translate(41.915 7.135)">
		<path id="Path_403" class="st1" d="M169.83,380.91h-0.11c-0.72-0.06-1.26-0.69-1.2-1.41c1.61-21.44,2.33-43.22,2.12-64.73
			c-0.01-0.72,0.57-1.32,1.29-1.33l0,0l0,0c0.72,0,1.3,0.58,1.31,1.29c0.2,21.6-0.5,43.45-2.12,64.96
			C171.06,380.38,170.5,380.91,169.83,380.91z"/>
	</g>
	<g id="Group_289" transform="translate(39.885 7.555)">
		<path id="Path_404" class="st1" d="M154.86,342.2c-0.7,0-1.28-0.56-1.31-1.26l-0.88-22.85c-0.02-0.72,0.54-1.32,1.26-1.35
			c0.71-0.01,1.31,0.54,1.34,1.26l0.88,22.85c0.02,0.72-0.53,1.32-1.25,1.35H154.86z"/>
	</g>
	<g id="Group_290" transform="translate(8.054 6.876)">
		<path id="Path_405" class="st1" d="M-92.67,327.88c-0.67,0-1.24-0.51-1.3-1.18l-1.32-13.83c-0.07-0.72,0.46-1.35,1.18-1.42
			c0.71-0.05,1.34,0.47,1.42,1.18l1.32,13.83c0.07,0.72-0.46,1.35-1.18,1.42H-92.67z"/>
	</g>
	<g id="Group_291" transform="translate(0.636 4.527)" class="st3">
		<path id="Path_406" class="st1" d="M226.61,298.11c-2.98,0.18-5.96,0.08-8.93,0c-10.68,0.39-21.32-0.2-31.99-0.47
			c-26.56-1.38-84.44-2.87-121.63-1.76c-28.81-1.39-57.64-1.5-86.46-2.64c-23.26-0.24-46.52,0.66-69.79,0.94
			c-16.72-0.38-33.44,0.18-50.1,1.65c-6.57,0.67-11.35,6.54-10.68,13.1c0.58,5.64,5.04,10.11,10.68,10.68
			c21.46-2.08,43.03-2.83,64.58-2.24c35.87-0.24,71.73,0.26,107.59,0.6c37.67,1.31,75.35,1.33,113.03,1.43
			c10.55,0.36,21.1,1.55,31.64,1.18c7.51-0.29,15.02-0.21,22.52,0.26c9.44,0.68,18.91,0.57,28.33-0.33l-2.76,0.4
			c6.34,1.42,12.63-2.57,14.04-8.91c0.18-0.83,0.28-1.67,0.28-2.52C237.18,303.52,232.58,298.46,226.61,298.11z"/>
	</g>
</g>
</svg>
