<?xml version="1.0" encoding="utf-8"?>
<!-- Generator: Adobe Illustrator 25.0.0, SVG Export Plug-In . SVG Version: 6.00 Build 0)  -->
<svg version="1.1" id="Layer_1" xmlns="http://www.w3.org/2000/svg" xmlns:xlink="http://www.w3.org/1999/xlink" x="0px" y="0px" width="120" height="65"
	 viewBox="0 0 1080 1080" style="enable-background:new 0 0 1080 1080;" xml:space="preserve">
<style type="text/css">
	.st0{fill:#FFFFFF;}
	.st1{fill:#010202;}
	.st2{fill:#ADD3F1;}
	.st3{opacity:0.129;}
	.st4{fill:none;stroke:#010202;stroke-width:8.3965;stroke-miterlimit:10;}
	.st5{fill:none;stroke:#010202;stroke-width:8.8374;stroke-miterlimit:10;}
	.st6{fill:none;stroke:#010202;stroke-width:7.7416;stroke-miterlimit:10;}
	.st7{fill:none;stroke:#010202;stroke-width:8.4311;stroke-miterlimit:10;}
	.st8{fill:none;stroke:#010202;stroke-width:7.7852;stroke-miterlimit:10;}
	.st9{fill:#FFFFFF;stroke:#010202;stroke-width:8.1256;stroke-miterlimit:10;}
	.st10{fill:none;stroke:#010202;stroke-width:8.1256;stroke-miterlimit:10;}
	.st11{fill:none;stroke:#010202;stroke-width:7.567;stroke-miterlimit:10;}
	.st12{fill:none;stroke:#010202;stroke-width:7.9249;stroke-miterlimit:10;}
	.st13{fill:none;stroke:#010202;stroke-width:3.945;stroke-miterlimit:10;}
	.st14{fill:none;stroke:#010202;stroke-width:4.174;stroke-miterlimit:10;}
	.st15{fill:#84CEEF;}
	.st16{fill:none;stroke:#FFFFFF;stroke-width:15.0601;stroke-miterlimit:10;}
	.st17{fill:none;stroke:#FFFFFF;stroke-width:15.0626;stroke-miterlimit:10.0016;}
	.st18{fill:none;stroke:#010202;stroke-width:7.5301;stroke-miterlimit:10;}
	.st19{fill:#FFFFFF;stroke:#040505;stroke-width:7.8633;stroke-miterlimit:10;}
	.st20{fill:#FFFFFF;stroke:#040505;stroke-width:8.8856;stroke-miterlimit:10;}
	.st21{fill:#9ACAEE;}
	.st22{fill:none;stroke:#040506;stroke-width:7.9293;stroke-miterlimit:10;}
	.st23{fill:none;stroke:#040505;stroke-width:7.9293;stroke-miterlimit:10;}
	.st24{fill:#040505;}
</style>
<g id="Group_498" transform="translate(-798.031 21.443)">
	<path id="Path_365" class="st0" d="M1593.35,236.6c-62.18,0-101.73,32.42-109.52,79.24c-6.71,45.63,17.82,90.13,59.99,108.81
		c71.23,31.55,152.27-16.95,152.27-85.93C1696.08,268.52,1645.71,236.6,1593.35,236.6z"/>
	<path id="Path_731" class="st6" d="M1590.16,432.17c-15.42-0.01-30.67-3.25-44.77-9.51c-41.04-18.24-64.9-61.59-58.35-106.02
		c7.96-47.9,48.51-77.68,105.82-77.68c49.75,0,99.93,30.74,99.93,99.39c-0.38,31.15-16.75,59.92-43.33,76.16
		C1631.84,426.03,1611.23,432.16,1590.16,432.17z"/>
	<path id="Path_367" class="st0" d="M1417.97,790.07c5.24-62.36-0.08-126.39,12.04-187.16c14.78-74.37,57.75-140.33,114.42-165.95
		c56.67-25.62,125.51-6.69,165.11,51.06c32.9,48,43.11,114.48,47.23,178.05c2.67,41.26,3.31,82.67,3.94,124.07L1417.97,790.07z"/>
	<path id="Path_732" class="st7" d="M1764.46,783.42c0.11,5.42-4.18,9.91-9.6,10.04h-331.05c-5.33-0.02-9.62-4.36-9.6-9.69
		c-0.01-0.26,0.01-0.53,0.09-0.79c1.83-22.34,2.27-45.38,2.71-67.73c-0.31-33.44,1.97-66.85,6.81-99.93
		c0.09-0.87,0.26-1.83,0.44-2.71c0.52-3.84,1.13-7.59,1.75-11.43c15.54-77.76,59.96-141.74,115.99-167.14
		c4.27-1.91,8.64-3.6,13.09-5.06c1.37-0.52,2.77-0.95,4.19-1.31c21.85-6.53,45.03-7.16,67.2-1.83c1.48,0.26,2.93,0.61,4.36,1.05
		c33.75,9.43,63.01,30.64,82.48,59.79c35.09,51.15,43.73,121.32,47.31,176.74C1763.24,703.38,1763.85,744.05,1764.46,783.42z"/>
	<path id="Path_369" class="st0" d="M1047.29,281.65c-59.08,0-96.66,29.83-104.04,72.9c-6.12,42.47,17.35,83.68,57,100.08
		c67.66,29.02,144.66-15.58,144.66-79.04C1144.9,311.02,1097.05,281.65,1047.29,281.65z"/>
	<path id="Path_733" class="st8" d="M1044.34,462.85c-14.76-0.02-29.37-3.04-42.93-8.88c-39.09-16.3-62.18-57.01-56.11-98.92
		c7.65-44.68,46.6-72.44,101.59-72.44c47.77,0,96.01,28.67,96.01,92.71c-0.48,28.64-15.56,55.05-39.97,70.02
		C1085.53,456.8,1065.16,462.89,1044.34,462.85z"/>
	<path id="Path_734" class="st0" d="M1206.32,797.56h-3.93c-1.74,0.02-3.45-0.5-4.89-1.48c-2.55-1.66-4.11-4.47-4.19-7.51
		c0-0.35,0.09-0.7,0.09-1.05c1.4-12.74,1.75-26.1,2.09-38.93c-0.25-20.54,1.65-41.04,5.67-61.18c0.35-1.92,0.79-3.84,1.13-5.76
		c0.09,1.05,0.17,2.01,0.26,3.05C1205.1,722.24,1205.71,759.85,1206.32,797.56z"/>
	<path id="Path_735" class="st9" d="M1193.32,788.57c0-0.35,0.09-0.7,0.09-1.05c1.4-12.74,1.75-26.1,2.09-38.93
		c-0.25-20.54,1.65-41.04,5.67-61.18c-0.09-2.36-0.26-4.71-0.44-7.07c0-0.35-0.09-0.79-0.09-1.13
		c-3.23-49.05-11.35-110.84-43.29-155.97c-34.44-51.33-100.46-70.99-157.36-46.87c-51.49,22.61-92.34,79.51-106.48,148.72
		c-5.86,33.42-8.63,67.31-8.29,101.24c-0.44,19.81-0.79,40.24-2.53,60.05v0.79c-0.03,5.12,4.09,9.3,9.22,9.34c0.01,0,0.02,0,0.04,0
		h303.2c0.8-0.01,1.6-0.16,2.36-0.44C1194.96,794.41,1193.39,791.61,1193.32,788.57z"/>
	<path id="Path_736" class="st10" d="M1204.31,787.08c0.09,4.21-2.73,7.93-6.81,8.99c-2.55-1.66-4.11-4.47-4.19-7.51
		c0-0.35,0.09-0.7,0.09-1.05c1.4-12.74,1.75-26.1,2.09-38.93c-0.25-20.54,1.65-41.04,5.67-61.18
		C1203.26,720.75,1203.7,754.44,1204.31,787.08z"/>
	<path id="Path_373" class="st0" d="M1328.67,419.17c-47.19,0-77.19,25.41-83.08,62.09c-5.3,35.33,13.19,69.96,45.51,85.2
		c54.03,24.72,115.53-13.28,115.53-67.29C1406.62,444.19,1368.4,419.17,1328.67,419.17z"/>
	<path id="Path_737" class="st11" d="M1324.04,570.63c-12.28,0-24.43-2.47-35.74-7.26c-32.32-13.11-51.55-46.56-46.62-81.09
		c6.37-36.72,38.76-59.53,84.54-59.53c39.82,0,79.96,23.52,79.96,76.04c-0.67,24.3-13.94,46.51-35.02,58.61
		C1356.98,566.08,1340.67,570.66,1324.04,570.63z"/>
	<path id="Path_738" class="st2" d="M1465.27,793.45h-4.89c-0.35,0.49-0.73,0.95-1.13,1.4c-1.74,1.73-4.09,2.71-6.55,2.71h-250.31
		c-1.74,0.02-3.45-0.5-4.89-1.48c-2.55-1.66-4.11-4.47-4.19-7.51c0-0.35,0.09-0.7,0.09-1.05c1.4-12.74,1.75-26.1,2.09-38.93
		c-0.25-20.54,1.65-41.04,5.67-61.18c-0.09-2.36-0.26-4.71-0.44-7.07c0-0.35-0.09-0.79-0.09-1.13
		c12.94-45.27,46.64-81.69,90.77-98.1c45.65-15.8,100.98-4.1,132.84,31.51c1.13,1.31,2.27,2.53,3.32,3.93
		c23.83,29.24,31.51,68.25,34.65,105.78c1.92,22.52,2.53,45.12,2.97,67.73C1465.19,791.19,1465.19,792.32,1465.27,793.45z"/>
	<path id="Path_739" class="st12" d="M1461.78,788.31c0.03,0.59-0.03,1.18-0.17,1.75c-0.18,1.2-0.6,2.36-1.22,3.4
		c-0.35,0.49-0.73,0.95-1.13,1.4c-1.74,1.73-4.09,2.71-6.55,2.71h-250.31c-1.74,0.02-3.45-0.5-4.89-1.48
		c-2.55-1.66-4.11-4.47-4.19-7.51c0-0.35,0.09-0.7,0.09-1.05c1.4-12.74,1.75-26.1,2.09-38.93c-0.25-20.54,1.65-41.04,5.67-61.18
		c0.35-1.92,0.79-3.84,1.13-5.76c0.07-0.07,0.1-0.17,0.09-0.26c11.58-45.81,45.07-82.93,89.46-99.15
		c45.74-16.06,96.66-3.92,130.22,31.07c0.61,0.7,1.22,1.4,1.75,2.01c0.52,0.61,0.79,0.96,1.13,1.4c0.77,0.86,1.5,1.77,2.18,2.71
		c0.35,0.52,0.79,1.05,1.13,1.57c22.17,29.59,28.1,67.2,30.63,97.32C1460.91,741.7,1461.35,765.44,1461.78,788.31z"/>
</g>
</svg>
