<?xml version="1.0" encoding="utf-8"?>
<!-- Generator: Adobe Illustrator 25.0.0, SVG Export Plug-In . SVG Version: 6.00 Build 0)  -->
<svg version="1.1" id="Layer_1" xmlns="http://www.w3.org/2000/svg" xmlns:xlink="http://www.w3.org/1999/xlink" x="0px" y="0px" width="120" height="65"
	 viewBox="0 0 1080 1080" style="enable-background:new 0 0 1080 1080;" xml:space="preserve">
<style type="text/css">
	.st0{fill:#FFFFFF;}
	.st1{fill:#010202;}
	.st2{fill:#ADD3F1;}
	.st3{opacity:0.129;}
	.st4{fill:none;stroke:#010202;stroke-width:8.3965;stroke-miterlimit:10;}
	.st5{fill:none;stroke:#010202;stroke-width:8.8374;stroke-miterlimit:10;}
	.st6{fill:none;stroke:#010202;stroke-width:7.7416;stroke-miterlimit:10;}
	.st7{fill:none;stroke:#010202;stroke-width:8.4311;stroke-miterlimit:10;}
	.st8{fill:none;stroke:#010202;stroke-width:7.7852;stroke-miterlimit:10;}
	.st9{fill:#FFFFFF;stroke:#010202;stroke-width:8.1256;stroke-miterlimit:10;}
	.st10{fill:none;stroke:#010202;stroke-width:8.1256;stroke-miterlimit:10;}
	.st11{fill:none;stroke:#010202;stroke-width:7.567;stroke-miterlimit:10;}
	.st12{fill:none;stroke:#010202;stroke-width:7.9249;stroke-miterlimit:10;}
	.st13{fill:none;stroke:#010202;stroke-width:3.945;stroke-miterlimit:10;}
	.st14{fill:none;stroke:#010202;stroke-width:4.174;stroke-miterlimit:10;}
	.st15{fill:#84CEEF;}
	.st16{fill:none;stroke:#FFFFFF;stroke-width:15.0601;stroke-miterlimit:10;}
	.st17{fill:none;stroke:#FFFFFF;stroke-width:15.0626;stroke-miterlimit:10.0016;}
	.st18{fill:none;stroke:#010202;stroke-width:7.5301;stroke-miterlimit:10;}
	.st19{fill:#FFFFFF;stroke:#040505;stroke-width:7.8633;stroke-miterlimit:10;}
	.st20{fill:#FFFFFF;stroke:#040505;stroke-width:8.8856;stroke-miterlimit:10;}
	.st21{fill:#9ACAEE;}
	.st22{fill:none;stroke:#040506;stroke-width:7.9293;stroke-miterlimit:10;}
	.st23{fill:none;stroke:#040505;stroke-width:7.9293;stroke-miterlimit:10;}
	.st24{fill:#040505;}
</style>
<g id="Group_497" transform="translate(-957.539 21.244)">
	<path id="Path_361" class="st0" d="M1501.6,238.76c-71.42,0-116.86,37.54-125.78,91.73c-7.8,52.66,20.34,104.1,68.89,125.94
		c81.79,36.52,174.87-19.62,174.87-99.44C1619.57,275.73,1561.76,238.76,1501.6,238.76z"/>
	<path id="Path_729" class="st4" d="M1497.9,466.56c-17.92-0.01-35.63-3.81-51.97-11.15c-47.85-21.58-75.55-72.31-67.84-124.23
		c9.22-56.27,56.38-91.19,122.96-91.19c57.88,0,116.3,36,116.3,116.5c-0.62,36.64-19.82,70.46-50.97,89.76
		C1546,459.51,1522.21,466.56,1497.9,466.56z"/>
	<path id="Path_363" class="st2" d="M1293.38,799.76c6.18-56.8-0.09-115.14,14.28-170.54c17.77-69.65,68.56-126.16,135.92-151.22
		c67.37-23.3,149.17-6.05,196.21,46.53c39.08,43.73,51.23,104.32,56.14,162.22c3.16,37.58,3.91,75.31,4.67,113.01L1293.38,799.76z"
		/>
	<path id="Path_730" class="st5" d="M1689.69,797.84h-384.36c-7.49,0.16-13.7-5.78-13.87-13.28c0-0.48,0.03-0.97,0.08-1.45
		c2.14-18.7,2.65-38.19,3.19-57.03c-0.39-33.13,3.18-66.19,10.63-98.48c18.84-68.21,70.24-122.67,137.25-145.41
		c70.75-23.38,153.02-4.65,200.09,45.62c41.92,44.74,52.19,105.7,56.46,153.81c3.04,34.34,3.75,69.08,4.47,102.68
		c-0.03,7.5-6.12,13.55-13.62,13.52c0,0,0,0,0,0H1689.69L1689.69,797.84z"/>
</g>
</svg>
