<?xml version="1.0" encoding="utf-8"?>
<!-- Generator: Adobe Illustrator 25.0.0, SVG Export Plug-In . SVG Version: 6.00 Build 0)  -->
<svg version="1.1" id="Layer_1" xmlns="http://www.w3.org/2000/svg" xmlns:xlink="http://www.w3.org/1999/xlink" x="0px" y="0px"
	 viewBox="0 0 200 200" style="enable-background:new 0 0 200 200;" xml:space="preserve">
<style type="text/css">
	.st0{fill:#BEE8FF;}
	.st1{fill:#1A1A1A;}
	.st2{fill:none;stroke:#1A1A1A;stroke-width:2;stroke-miterlimit:10;}
	.st3{fill:none;stroke:#1A1A1A;stroke-width:4;stroke-miterlimit:10;}
	.st4{fill:#FFFFFF;}
	.st5{fill:#1C1C1B;}
	.st6{fill:#2B2A2A;}
	.st7{fill:none;stroke:#000000;stroke-width:0.5;stroke-linecap:round;}
	.st8{fill:none;stroke:#000000;stroke-width:1.21;stroke-linecap:round;}
	.st9{fill:none;stroke:#000000;stroke-width:0.6624;stroke-linecap:round;}
	.st10{fill:none;stroke:#000000;stroke-width:0.2054;stroke-linecap:round;}
</style>
<path class="st1" d="M145.4,102.61c-1.09-14.54-4.7-25.56-11.03-33.69c-6.93-8.89-17.25-15.48-29.08-18.56
	c-3.92-0.9-7.86-1.36-11.72-1.36c-7.78,0-15.32,1.83-22.43,5.43c-7.19,3.65-20.03,11.53-25.32,23.4
	c-4.89,10.99-6.32,23.42-3.82,33.25c2.27,8.9,7.55,17.84,14.87,25.17C67.52,146.89,82.14,153,96.98,153c0,0,0,0,0,0
	c4.59,0,9.15-0.59,13.55-1.74C132.06,145.59,147.06,124.67,145.4,102.61z M143.46,108.13c-0.23,4.84-1.81,10.54-4.68,16.94
	c-4.3,9.59-11.44,16.92-20.66,21.21c-6.54,3.05-13.63,4.59-21.09,4.59c-11.56,0-23.06-3.81-32.4-10.72
	c-7-5.18-12.82-12.1-16.82-19.99c-4.96-9.77-5.85-19.77-2.88-32.4c1.8-7.65,4.23-12.76,8.12-17.09c3.63-4.04,8.29-7.87,13.83-11.38
	c8.57-5.42,17.62-8.16,26.91-8.16c3.62,0,7.3,0.42,10.94,1.26c10.12,2.63,19.03,7.9,25.77,15.23c5.97,6.49,9.81,15.17,11.75,26.52
	C142.98,98.4,143.69,103.37,143.46,108.13z"/>
<path class="st1" d="M92.91,61.38c-3.38,0-6.71,0.43-9.89,1.27c-17.43,4.62-31.21,23.68-30.08,41.64
	c0.92,7.56,4.87,16.17,10.84,23.63c5.61,7.01,12.82,11.3,22.03,13.13c3.47,0.69,8.04,1.48,12.55,1.48c4.9,0,9.25-0.91,13.29-2.79
	c7.22-3.35,13.49-8.9,17.65-15.61c8.27-13.36,6.6-32.67-4.07-46.97C117.97,67.43,105.58,61.38,92.91,61.38z M130.75,116.33
	c-2.49,7.02-7.47,13.43-14.01,18.02c-5.8,4.08-11.86,6.06-18.54,6.06c-1.38,0-2.81-0.09-4.24-0.26
	c-9.03-1.07-18.35-3.02-25.37-10.01c-7.17-7.14-12.49-17.3-13.53-25.88c-0.89-14.2,8.77-30.51,22-37.11
	c4.77-2.38,10.25-3.64,15.86-3.64c9.7,0,19.26,3.67,26.22,10.06C130.47,83.98,135.57,102.76,130.75,116.33z"/>
<path class="st0" d="M75.34,75.36c-0.19,0-0.37,0.06-0.55,0.17C67.71,80.09,63,87.13,61.54,95.36c-0.06,0.33,0.02,0.65,0.23,0.89
	c0.22,0.26,0.57,0.43,0.91,0.43c0.48,0,0.83-0.3,0.91-0.78c1.37-7.74,5.73-14.32,12.28-18.54c0.41-0.27,0.58-0.72,0.44-1.2
	C76.18,75.69,75.78,75.36,75.34,75.36z"/>
<path class="st0" d="M79.51,74.89c0.17-0.19,0.26-0.45,0.26-0.72c0-0.53-0.35-1.06-1.03-1.06c-0.32,0-0.58,0.12-0.77,0.34
	c-0.17,0.19-0.26,0.45-0.26,0.72c0,0.53,0.35,1.06,1.03,1.06C79.05,75.23,79.32,75.11,79.51,74.89z"/>
<path class="st8" d="M82.15,89.62c-16.73-2.87-22.94,31.57,0,28.7 M88.37,89.62v13.15 M88.37,118.32v-15.55 M101.03,89.62v13.15
	 M101.03,118.32v-15.55 M88.37,102.78h12.66 M107.48,118.32v-15.55 M118,89.62h-5.68c-2.67,0-4.84,2.17-4.84,4.84v8.31
	 M107.48,102.78h6.69"/>
</svg>
