<?xml version="1.0" encoding="utf-8"?>
<!-- Generator: Adobe Illustrator 25.0.0, SVG Export Plug-In . SVG Version: 6.00 Build 0)  -->
<svg version="1.1" id="Layer_1" xmlns="http://www.w3.org/2000/svg" xmlns:xlink="http://www.w3.org/1999/xlink" x="0px" y="0px"
	 viewBox="0 0 200 200" style="enable-background:new 0 0 200 200;" xml:space="preserve">
<style type="text/css">
	.st0{fill:#BEE8FF;}
	.st1{fill:#1A1A1A;}
	.st2{fill:none;stroke:#1A1A1A;stroke-width:2;stroke-miterlimit:10;}
	.st3{fill:none;stroke:#1A1A1A;stroke-width:4;stroke-miterlimit:10;}
	.st4{fill:#FFFFFF;}
	.st5{fill:#1C1C1B;}
	.st6{opacity:0.129;}
	.st7{fill:none;stroke:#000000;stroke-width:0.9332;stroke-linecap:round;}
	.st8{fill:none;stroke:#000000;stroke-miterlimit:10;}
</style>
<g>
	<g id="Group_272" transform="translate(0 0)">
		<path id="Path_380" class="st4" d="M61.37,66.81L60.19,154h78.12l0.92-86.98L61.37,66.81z"/>
		<path id="Path_381" d="M138.31,154.61H60.19c-0.2,0-0.4-0.05-0.56-0.14c-0.14-0.08-0.23-0.2-0.23-0.33l1.18-87.48
			c0-0.26,0.36-0.46,0.8-0.46l77.86,0.2c0.2,0,0.4,0.05,0.56,0.14c0.14,0.08,0.23,0.2,0.23,0.33l-0.92,87.27
			C139.04,154.44,138.69,154.64,138.31,154.61z M60.99,153.67h76.53l0.91-86.34l-76.27-0.2L60.99,153.67z"/>
	</g>
	<path id="Path_382" class="st0" d="M92.13,106.1c-4.87-0.03-10.53-0.23-15.4-0.27c0-4.96,0-10.3,0.07-15.47
		c5.16-0.27,10.34-0.26,15.5,0.02C92.39,95.45,92.33,100.52,92.13,106.1z"/>
	<path id="Path_383" d="M92.13,106.9L92.13,106.9c-2.45-0.02-5.12-0.07-7.71-0.13c-2.59-0.06-5.26-0.12-7.69-0.13
		c-0.44,0-0.79-0.36-0.79-0.8v-1.34c0-4.64,0-9.43,0.07-14.14c0.01-0.42,0.33-0.76,0.75-0.78c5.19-0.27,10.39-0.26,15.59,0.02
		c0.42,0.02,0.75,0.36,0.75,0.78c0.09,4.95,0.04,9.96-0.16,15.76C92.92,106.56,92.56,106.9,92.13,106.9z M77.53,105.05
		c2.23,0.02,4.61,0.07,6.92,0.13c2.31,0.05,4.7,0.1,6.92,0.13c0.18-5.16,0.22-9.7,0.15-14.16c-4.83-0.23-9.41-0.24-13.93-0.02
		c-0.06,4.46-0.06,8.99-0.06,13.37V105.05z"/>
	<g id="Group_274" transform="translate(26.83 12.989)">
		<path id="Path_384" class="st0" d="M97.53,93.11c-4.87-0.03-10.53-0.23-15.4-0.27c0-4.96,0-10.3,0.07-15.47
			c5.16-0.27,10.34-0.26,15.5,0.02C97.79,82.46,97.73,87.53,97.53,93.11z"/>
		<path id="Path_385" d="M97.53,93.91L97.53,93.91c-2.45-0.02-5.12-0.07-7.71-0.13c-2.59-0.06-5.26-0.12-7.69-0.13
			c-0.44,0-0.79-0.36-0.79-0.8v-1.37c0-4.63,0-9.41,0.06-14.11c0.01-0.42,0.34-0.76,0.75-0.78c5.19-0.27,10.39-0.26,15.59,0.02
			c0.42,0.02,0.75,0.36,0.75,0.78c0.09,4.96,0.04,9.96-0.16,15.76C98.31,93.57,97.96,93.91,97.53,93.91z M82.92,92.06
			c2.23,0.02,4.61,0.07,6.92,0.13s4.7,0.1,6.92,0.13c0.18-5.16,0.22-9.7,0.15-14.16c-4.83-0.23-9.41-0.24-13.93-0.02
			c-0.06,4.46-0.06,8.97-0.06,13.34V92.06z"/>
	</g>
	<path id="Path_386" class="st0" d="M91.7,130.37c-4.88-0.03-10.53-0.23-15.4-0.27c0-4.96,0-10.3,0.06-15.47
		c5.16-0.27,10.34-0.26,15.5,0.02C91.96,119.72,91.9,124.78,91.7,130.37z"/>
	<path id="Path_387" d="M91.7,131.17L91.7,131.17c-2.45-0.02-5.13-0.07-7.73-0.13s-5.25-0.12-7.67-0.13c-0.44,0-0.79-0.36-0.79-0.79
		v-1.34c0-4.64,0-9.43,0.07-14.14c0.01-0.42,0.34-0.76,0.75-0.78c5.19-0.27,10.39-0.26,15.58,0.02c0.42,0.02,0.75,0.36,0.75,0.78
		c0.09,4.95,0.04,9.96-0.16,15.76C92.48,130.83,92.13,131.17,91.7,131.17z M77.09,129.32c2.22,0.02,4.6,0.07,6.91,0.13
		c2.31,0.05,4.71,0.1,6.93,0.13c0.18-5.16,0.22-9.7,0.15-14.16c-4.83-0.23-9.41-0.24-13.93-0.02c-0.06,4.46-0.06,8.99-0.06,13.37
		L77.09,129.32z"/>
	<path id="Path_388" class="st0" d="M123.93,130.37c-4.88-0.03-10.53-0.23-15.4-0.27c0-4.96-0.01-10.3,0.06-15.47
		c5.16-0.27,10.34-0.26,15.5,0.02C124.19,119.71,124.13,124.78,123.93,130.37z"/>
	<path id="Path_389" d="M123.93,131.16L123.93,131.16c-2.45-0.02-5.13-0.07-7.73-0.13c-2.59-0.06-5.25-0.12-7.67-0.13
		c-0.44,0-0.79-0.36-0.79-0.79v-1.34c0-4.64,0-9.43,0.07-14.14c0.01-0.42,0.34-0.76,0.75-0.78c5.19-0.27,10.39-0.26,15.58,0.02
		c0.42,0.02,0.75,0.36,0.75,0.78c0.09,4.95,0.04,9.96-0.16,15.76C124.71,130.83,124.36,131.17,123.93,131.16z M109.32,129.31
		c2.22,0.02,4.6,0.07,6.91,0.13c2.31,0.05,4.71,0.1,6.93,0.13c0.18-5.16,0.22-9.7,0.15-14.16c-4.83-0.23-9.41-0.24-13.93-0.02
		c-0.06,4.46-0.06,8.99-0.05,13.37V129.31z"/>
	<g id="Group_279" transform="translate(0.625 4.321)">
		<path id="Path_394" d="M138.91,71.97h-0.03c-26.01-0.88-52.01-1.03-77.29-0.44c-0.44,0.01-0.8-0.34-0.81-0.78c0,0,0,0,0,0
			c-0.01-0.44,0.34-0.8,0.78-0.81c25.31-0.59,51.34-0.44,77.38,0.44c0.44,0.02,0.78,0.38,0.77,0.82
			C139.69,71.63,139.34,71.97,138.91,71.97z"/>
	</g>
	<g id="Group_280" transform="translate(9.266 16.051)">
		<path id="Path_395" d="M82.43,79.46h-0.07l-14.55-0.14c-0.15,0-0.26-0.12-0.26-0.27c0,0,0,0,0,0c0-0.14,0.11-0.26,0.25-0.26
			c0,0,0.01,0,0.01,0l14.61,0.14c0.15,0,0.26,0.12,0.26,0.27c0,0,0,0,0,0C82.68,79.34,82.57,79.46,82.43,79.46z"/>
	</g>
	<g id="Group_281" transform="translate(27.107 16.032)">
		<path id="Path_396" d="M97.3,79.47h-0.01c-3.51-0.2-7.71-0.18-11.78-0.15c-1.25,0-2.5,0.01-3.7,0.01c-0.15,0-0.26-0.12-0.27-0.26
			c0,0,0,0,0,0c0-0.15,0.12-0.26,0.26-0.26c0,0,0,0,0,0c1.2,0,2.44,0,3.69-0.01c4.07-0.02,8.28-0.04,11.81,0.16
			c0.15,0.01,0.26,0.13,0.25,0.28c0,0,0,0,0,0C97.55,79.36,97.44,79.47,97.3,79.47z"/>
	</g>
	<g id="Group_282" transform="translate(9.139 29.982)">
		<path id="Path_397" d="M82.11,90.31L82.11,90.31c-2.12-0.08-4.64-0.05-7.07-0.03c-2.5,0.03-5.1,0.05-7.33-0.03
			c-0.15,0-0.26-0.13-0.26-0.27c0,0,0,0,0,0c0.01-0.14,0.13-0.26,0.27-0.26c2.22,0.09,4.8,0.06,7.3,0.03
			c2.44-0.02,4.97-0.05,7.09,0.03c0.15,0,0.26,0.13,0.26,0.27c0,0,0,0,0,0C82.37,90.2,82.25,90.31,82.11,90.31z"/>
	</g>
	<g id="Group_283" transform="translate(27.107 29.9)">
		<path id="Path_398" d="M96.69,90.36h-0.01c-3.48-0.15-8.89-0.2-14.86-0.16l0,0c-0.15,0-0.26-0.12-0.27-0.26
			c0-0.15,0.11-0.27,0.26-0.27c0,0,0,0,0,0c5.98-0.04,11.41,0.01,14.89,0.16c0.15,0.01,0.26,0.13,0.25,0.27c0,0,0,0,0,0
			C96.95,90.25,96.84,90.36,96.69,90.36z"/>
	</g>
	<g id="Group_286" transform="translate(3.493 6.837)">
		<path id="Path_401" d="M63.29,83.02L63.29,83.02c-0.15,0-0.27-0.12-0.27-0.27l0.04-10.93c0-0.15,0.12-0.26,0.27-0.27l0,0
			c0.15,0,0.26,0.12,0.26,0.27l-0.04,10.93C63.55,82.9,63.43,83.02,63.29,83.02z"/>
	</g>
	<g id="Group_287" transform="translate(5.52 6.935)">
		<path id="Path_402" d="M65.05,76.81c-0.14,0-0.26-0.11-0.27-0.26l-0.18-4.64c-0.01-0.15,0.11-0.27,0.26-0.27
			c0.15-0.01,0.27,0.11,0.27,0.26l0.18,4.64c0.01,0.15-0.11,0.27-0.25,0.27C65.06,76.81,65.06,76.81,65.05,76.81L65.05,76.81z"/>
	</g>
	<g id="Group_288" transform="translate(41.915 7.135)">
		<path id="Path_403" d="M93.44,85.49h-0.02c-0.15-0.01-0.26-0.14-0.24-0.29c0.33-4.35,0.47-8.78,0.43-13.14
			c0-0.15,0.12-0.27,0.26-0.27l0,0l0,0c0.15,0,0.26,0.12,0.27,0.26c0.04,4.38-0.1,8.82-0.43,13.19
			C93.69,85.38,93.58,85.49,93.44,85.49z"/>
	</g>
	<g id="Group_289" transform="translate(39.885 7.555)">
		<path id="Path_404" d="M92.02,77.29c-0.14,0-0.26-0.11-0.27-0.26l-0.18-4.64c0-0.15,0.11-0.27,0.26-0.27
			c0.14,0,0.27,0.11,0.27,0.26l0.18,4.64C92.28,77.16,92.17,77.29,92.02,77.29L92.02,77.29z"/>
	</g>
	<g id="Group_290" transform="translate(8.054 6.876)">
		<path id="Path_405" d="M67.13,74.93c-0.14,0-0.25-0.1-0.26-0.24l-0.27-2.81c-0.01-0.15,0.09-0.27,0.24-0.29
			c0.14-0.01,0.27,0.09,0.29,0.24l0.27,2.81c0.01,0.15-0.09,0.27-0.24,0.29H67.13z"/>
	</g>
	<g id="Group_291" transform="translate(0.636 4.527)" class="st6">
		<path id="Path_406" d="M137.87,70.75c-0.6,0.04-1.21,0.02-1.81,0c-2.17,0.08-4.33-0.04-6.5-0.1c-5.39-0.28-17.15-0.58-24.7-0.36
			c-5.85-0.28-11.7-0.31-17.55-0.54c-4.72-0.05-9.45,0.13-14.17,0.19c-3.39-0.08-6.79,0.04-10.17,0.34
			c-1.33,0.14-2.3,1.33-2.17,2.66c0.12,1.15,1.02,2.05,2.17,2.17c4.36-0.42,8.74-0.57,13.11-0.46c7.28-0.05,14.56,0.05,21.85,0.12
			c7.65,0.27,15.3,0.27,22.95,0.29c2.14,0.07,4.28,0.31,6.42,0.24c1.52-0.06,3.05-0.04,4.57,0.05c1.92,0.14,3.84,0.12,5.75-0.07
			l-0.56,0.08c1.29,0.29,2.56-0.52,2.85-1.81c0.04-0.17,0.06-0.34,0.06-0.51C140.01,71.85,139.08,70.83,137.87,70.75z"/>
	</g>
	<g>
		<path class="st4" d="M133.97,82.96c-22.74-0.5-44.34-0.79-67.05,0.71c0.24-1.39,0.48-3.55,0.48-4.97c0-12.27,0.7-20.53-0.11-31.41
			c22.35-1.81,44.81-2.07,67.54,0.06C134,58.96,133.02,71.43,133.97,82.96z"/>
		<path d="M66.92,84.12c-0.13,0-0.25-0.05-0.34-0.15c-0.09-0.1-0.13-0.24-0.11-0.38c0.23-1.38,0.47-3.51,0.47-4.89
			c0-4.1,0.08-7.7,0.15-11.19c0.15-6.95,0.28-12.95-0.26-20.19c-0.02-0.25,0.17-0.46,0.41-0.48c24.18-1.96,46.3-1.93,67.62,0.06
			c0.24,0.02,0.43,0.24,0.41,0.48l-0.12,1.77c-0.8,11.24-1.62,22.86-0.73,33.77c0.01,0.13-0.03,0.25-0.12,0.35
			c-0.09,0.09-0.21,0.14-0.34,0.14c-22.22-0.49-44.06-0.81-67.01,0.71C66.94,84.12,66.93,84.12,66.92,84.12z M67.77,47.71
			c0.5,7.08,0.38,12.99,0.23,19.82c-0.07,3.48-0.15,7.08-0.15,11.17c0,1.26-0.19,3.09-0.4,4.48c22.6-1.46,44.14-1.16,66.02-0.68
			c-0.83-10.83-0.02-22.31,0.77-33.41l0.09-1.33C113.34,45.82,91.55,45.8,67.77,47.71z"/>
	</g>
	<g>
		<path class="st4" d="M125.71,78.37c0.2-0.78,0.69-1.56,1.3-2.09c0.65-0.58,1.42-0.91,2.25-1.13c0.39-0.1,0.81-0.19,1.23-0.23
			c0.02-3.56,0.11-7.11,0.29-10.67c0.17-3.23,0.41-6.45,0.7-9.67c-0.29-0.01-0.58-0.05-0.86-0.11c-1.03-0.21-1.97-0.75-2.74-1.46
			c-0.93-0.86-1.39-2.09-1.41-3.33c-1.88-0.15-3.77-0.25-5.66-0.34c-8.25-0.38-16.51-0.29-24.76-0.11
			c-6.81,0.15-13.61,0.27-20.4,0.78c0.02,1-0.28,2.04-0.76,2.83c-0.83,1.37-2.4,2.14-3.97,2.14c0,0.43,0,0.86,0,1.28
			c-0.01,5.42-0.03,10.84-0.15,16.26c-0.02,0.77-0.04,1.54-0.06,2.31c0.09-0.02,0.2-0.02,0.31,0.01c1.08,0.25,2.15,0.62,3.03,1.31
			c0.41,0.33,0.74,0.77,1.04,1.19c0.32,0.45,0.63,0.92,0.85,1.42c0.14,0.32,0.26,0.64,0.38,0.97c2.59-0.28,5.2-0.46,7.8-0.57
			c4.16-0.18,8.34-0.2,12.5-0.19C100.82,79,105,79,109.18,79.07c4.17,0.07,8.35,0.2,12.51,0.46c1.31,0.08,2.61,0.18,3.92,0.3
			c0.01-0.03,0.02-0.06,0.02-0.09C125.57,79.29,125.59,78.83,125.71,78.37z"/>
		<path d="M125.61,79.98c0,0-0.01,0-0.01,0c-1.34-0.12-2.66-0.22-3.91-0.3c-3.75-0.24-7.73-0.39-12.51-0.46
			c-4.02-0.06-8.1-0.07-12.05-0.08l-0.49,0c-3.99-0.01-8.27,0.01-12.5,0.19c-2.75,0.12-5.3,0.3-7.79,0.57
			c-0.07,0.01-0.14-0.03-0.16-0.1c-0.13-0.36-0.25-0.68-0.37-0.96c-0.23-0.53-0.57-1.02-0.84-1.4c-0.31-0.44-0.63-0.85-1.01-1.16
			c-0.74-0.59-1.69-1-2.97-1.29c-0.09-0.02-0.17-0.02-0.25-0.01c-0.04,0.01-0.09,0-0.13-0.03c-0.03-0.03-0.05-0.07-0.05-0.12
			l0.02-0.62c0.02-0.56,0.03-1.12,0.04-1.68c0.11-5.5,0.14-11.06,0.15-16.26c0-0.36,0-0.73,0-1.09l0-0.19
			c0-0.04,0.02-0.08,0.04-0.11c0.03-0.03,0.07-0.04,0.11-0.04c1.59,0,3.06-0.8,3.84-2.07c0.49-0.8,0.76-1.8,0.74-2.75
			c0-0.08,0.06-0.15,0.14-0.15c6.48-0.48,13.08-0.62,19.47-0.76l0.94-0.02c7.91-0.17,16.39-0.27,24.77,0.11
			c2.05,0.09,3.9,0.21,5.66,0.34c0.08,0.01,0.14,0.07,0.14,0.15c0.02,1.28,0.5,2.42,1.36,3.22c0.79,0.73,1.71,1.22,2.66,1.42
			c0.26,0.05,0.54,0.09,0.84,0.1c0.04,0,0.08,0.02,0.11,0.05c0.03,0.03,0.04,0.07,0.04,0.11c-0.31,3.41-0.54,6.57-0.7,9.67
			c-0.18,3.43-0.28,7.02-0.29,10.66c0,0.08-0.06,0.14-0.13,0.15c-0.38,0.04-0.78,0.12-1.2,0.23c-0.93,0.25-1.62,0.6-2.19,1.1
			c-0.6,0.53-1.06,1.28-1.25,2.02l0,0c-0.11,0.42-0.13,0.87-0.07,1.32c0,0.02,0,0.04,0,0.05l-0.02,0.08
			C125.74,79.93,125.68,79.98,125.61,79.98z M94.95,78.83c0.57,0,1.13,0,1.68,0l0.49,0c3.95,0.01,8.04,0.02,12.05,0.08
			c4.78,0.07,8.76,0.22,12.52,0.46c1.21,0.08,2.48,0.17,3.77,0.28c-0.05-0.46-0.02-0.9,0.09-1.33l0,0c0.2-0.79,0.7-1.6,1.34-2.17
			c0.6-0.54,1.34-0.91,2.31-1.17c0.39-0.1,0.76-0.18,1.12-0.22c0.02-3.6,0.12-7.14,0.29-10.54c0.16-3.05,0.38-6.16,0.69-9.52
			c-0.25-0.02-0.5-0.05-0.73-0.1c-1.01-0.21-1.98-0.72-2.81-1.49c-0.89-0.82-1.4-1.99-1.45-3.3c-1.72-0.13-3.53-0.24-5.52-0.33
			c-8.38-0.38-16.85-0.28-24.75-0.11l-0.94,0.02c-6.34,0.14-12.88,0.27-19.31,0.75c-0.01,0.96-0.29,1.97-0.78,2.77
			c-0.81,1.33-2.31,2.16-3.95,2.21l0,0.04c0,0.36,0,0.73,0,1.09c-0.01,5.2-0.03,10.77-0.15,16.27c-0.01,0.56-0.03,1.12-0.04,1.69
			l-0.01,0.46c0.06,0,0.12,0.01,0.19,0.02c1.33,0.3,2.31,0.73,3.09,1.34c0.42,0.33,0.74,0.77,1.07,1.22
			c0.28,0.38,0.62,0.9,0.87,1.45c0.11,0.26,0.23,0.54,0.34,0.87c2.46-0.26,4.98-0.44,7.69-0.56C87.77,78.87,91.45,78.83,94.95,78.83
			z"/>
	</g>
	<g>
		<path class="st4" d="M100.66,53.08c-1.72-0.1-3.69,0.71-4.96,1.9c-3.94,3.69-5.22,10.09-3.02,15.1c1.19,2.71,3.47,5.06,6.3,5.63
			c2.77,0.56,5.73-0.7,7.63-2.86s2.83-5.1,2.97-8.02c0.14-2.94-0.54-6.01-2.32-8.31C105.46,54.21,102.91,53.21,100.66,53.08z"/>
		<path d="M100.3,76.29c-0.48,0-0.95-0.05-1.41-0.14c-2.77-0.56-5.24-2.76-6.62-5.89c-2.29-5.2-0.98-11.77,3.12-15.61
			c1.43-1.33,3.5-2.13,5.3-2.02c2.75,0.17,5.27,1.48,6.92,3.61c1.71,2.21,2.57,5.27,2.42,8.61c-0.15,3.27-1.24,6.22-3.08,8.3
			C105.18,75.13,102.69,76.29,100.3,76.29z M100.36,53.52c-1.48,0-3.19,0.7-4.35,1.78c-3.83,3.59-5.06,9.72-2.91,14.58
			c1.26,2.86,3.49,4.87,5.97,5.37c2.48,0.5,5.31-0.56,7.2-2.71c1.7-1.93,2.71-4.68,2.85-7.74c0.14-3.13-0.65-5.97-2.23-8.01
			c-1.49-1.92-3.77-3.11-6.26-3.26l0,0C100.54,53.52,100.45,53.52,100.36,53.52z"/>
	</g>
	<g>
		<path class="st0" d="M83,60.34c1.77,0.15,3.25,1.86,3.14,3.63c-0.11,1.77-1.8,3.28-3.57,3.21c-1.77-0.07-3.32-1.73-3.28-3.5
			C79.32,61.92,80.95,60.17,83,60.34z"/>
		<path d="M82.69,67.64c-0.05,0-0.1,0-0.15,0c-2.02-0.08-3.76-1.93-3.72-3.96c0.02-1.02,0.52-2.07,1.33-2.8
			c0.81-0.73,1.83-1.08,2.88-0.99l0,0c2.02,0.17,3.68,2.09,3.55,4.11C86.46,65.98,84.66,67.64,82.69,67.64z M82.72,60.79
			c-0.71,0-1.4,0.27-1.96,0.77c-0.63,0.57-1.01,1.37-1.03,2.14c-0.03,1.53,1.33,2.97,2.85,3.04c1.52,0.06,3-1.26,3.09-2.79
			c0.1-1.52-1.2-3.02-2.72-3.15l0,0C82.88,60.79,82.8,60.79,82.72,60.79z"/>
	</g>
	<path class="st0" d="M119.88,61.2c-0.97-0.74-2.5-0.63-3.35,0.25c-0.41,0.43-0.67,0.99-0.81,1.56c-0.19,0.77-0.19,1.61,0.12,2.34
		c0.52,1.25,1.94,2.05,3.28,1.86c1.34-0.2,2.47-1.36,2.65-2.7C121.94,63.17,120.98,62.05,119.88,61.2z"/>
	<path d="M118.71,67.69c-1.39,0-2.75-0.87-3.29-2.16c-0.4-0.98-0.3-1.97-0.14-2.62c0.18-0.73,0.49-1.32,0.92-1.77
		c1.02-1.05,2.79-1.18,3.95-0.3l0,0c1.54,1.17,2.23,2.42,2.06,3.73c-0.2,1.54-1.5,2.87-3.03,3.09
		C119.03,67.68,118.87,67.69,118.71,67.69z M118.36,61.16c-0.56,0-1.12,0.21-1.51,0.6c-0.32,0.33-0.55,0.78-0.69,1.35
		c-0.18,0.74-0.15,1.47,0.1,2.06c0.43,1.05,1.66,1.75,2.8,1.58c1.14-0.17,2.11-1.16,2.26-2.31c0.12-0.96-0.45-1.93-1.71-2.89l0,0
		C119.25,61.3,118.81,61.16,118.36,61.16z"/>
	<g>
		<path d="M71.34,52.4c-0.17,0-0.34-0.03-0.5-0.08c-0.77-0.26-1.26-1.14-1.07-1.93c0.12-0.49,0.5-0.89,1.03-1.09
			c0.53-0.2,1.08-0.14,1.49,0.15l0,0c0.58,0.41,0.96,1.23,0.59,2C72.6,52.04,71.97,52.4,71.34,52.4z M71.42,49.49
			c-0.17,0-0.35,0.03-0.52,0.1c-0.43,0.16-0.74,0.49-0.84,0.88c-0.15,0.63,0.26,1.36,0.87,1.57c0.62,0.21,1.38-0.11,1.67-0.71
			c0.3-0.62-0.03-1.3-0.5-1.63C71.92,49.56,71.68,49.49,71.42,49.49z"/>
	</g>
	<g>
		<path d="M71.32,81.38c-0.48,0-0.92-0.18-1.23-0.49c-0.66-0.66-0.66-1.82-0.01-2.49c0.64-0.66,1.8-0.7,2.5-0.1l0,0
			c0.3,0.26,0.47,0.66,0.49,1.13c0.03,0.55-0.16,1.08-0.5,1.44c-0.3,0.32-0.75,0.5-1.23,0.51C71.34,81.38,71.33,81.38,71.32,81.38z
			 M71.38,78.18c-0.4,0-0.81,0.15-1.09,0.43c-0.53,0.55-0.53,1.53,0.01,2.07c0.26,0.26,0.63,0.4,1.04,0.4c0.4,0,0.77-0.16,1.01-0.42
			c0.28-0.29,0.43-0.76,0.41-1.22c-0.02-0.39-0.16-0.71-0.39-0.92l0,0C72.11,78.29,71.75,78.18,71.38,78.18z"/>
	</g>
	<g>
		<path d="M130.35,52.09c-0.63,0-1.27-0.28-1.7-0.8c-0.32-0.39-0.46-0.84-0.36-1.22c0.09-0.37,0.38-0.65,0.59-0.85
			c0.24-0.24,0.55-0.53,0.92-0.7c0.74-0.32,1.7-0.03,2.14,0.64c0.26,0.4,0.34,0.94,0.21,1.47c-0.13,0.53-0.44,0.97-0.85,1.21
			C131.01,52.01,130.68,52.09,130.35,52.09z M130.46,48.68c-0.18,0-0.37,0.04-0.54,0.11c-0.3,0.13-0.55,0.36-0.83,0.64
			c-0.24,0.23-0.44,0.44-0.51,0.71c-0.1,0.41,0.18,0.81,0.3,0.96c0.56,0.67,1.57,0.89,2.27,0.48c0.34-0.2,0.6-0.57,0.71-1.02
			c0.11-0.45,0.05-0.9-0.17-1.23l0,0C131.42,48.92,130.94,48.68,130.46,48.68z"/>
	</g>
	<g>
		<path d="M129.78,80.93c-0.36,0-0.73-0.1-1.06-0.31c-0.44-0.27-0.75-0.68-0.85-1.14c-0.18-0.79,0.23-1.67,0.96-2.08
			c0.68-0.39,1.61-0.35,2.31,0.1l0,0c0.3,0.19,0.61,0.6,0.65,1.1c0.08,1.01-0.63,2.04-1.58,2.28
			C130.08,80.91,129.93,80.93,129.78,80.93z M129.89,77.44c-0.32,0-0.63,0.08-0.9,0.23c-0.61,0.35-0.96,1.1-0.82,1.75
			c0.08,0.38,0.34,0.72,0.71,0.95c0.39,0.24,0.85,0.32,1.27,0.22c0.81-0.21,1.42-1.09,1.35-1.96c-0.03-0.39-0.28-0.72-0.51-0.86
			C130.65,77.55,130.27,77.44,129.89,77.44z"/>
	</g>
	<path class="st7" d="M97.9,60.76c-4.3-0.74-5.9,8.12,0,7.38 M99.5,60.76v3.38 M99.5,68.14v-4 M102.76,60.76v3.38 M102.76,68.14v-4
		 M99.5,64.14h3.26 M104.41,68.14v-4 M107.12,60.76h-1.46c-0.69,0-1.24,0.56-1.24,1.24v2.14 M104.41,64.14h1.72"/>
</g>
<line class="st8" x1="138.31" y1="154.61" x2="60.19" y2="154.61"/>
</svg>
