<?xml version="1.0" encoding="utf-8"?>
<!-- Generator: Adobe Illustrator 25.0.0, SVG Export Plug-In . SVG Version: 6.00 Build 0)  -->
<svg version="1.1" id="Layer_1" xmlns="http://www.w3.org/2000/svg" xmlns:xlink="http://www.w3.org/1999/xlink" x="0px" y="0px"
	 viewBox="0 0 200 200" style="enable-background:new 0 0 200 200;" xml:space="preserve">
<style type="text/css">
	.st0{fill:#BEE8FF;}
	.st1{fill:#1A1A1A;}
	.st2{fill:none;stroke:#1A1A1A;stroke-width:2;stroke-miterlimit:10;}
	.st3{fill:none;stroke:#1A1A1A;stroke-width:4;stroke-miterlimit:10;}
	.st4{fill:#FFFFFF;}
	.st5{fill:#1C1C1B;}
	.st6{opacity:0.1294;}
	.st7{fill:none;stroke:#000000;stroke-width:1.0991;stroke-linecap:round;}
	.st8{fill:none;stroke:#000000;stroke-width:0.8833;stroke-miterlimit:10;}
</style>
<g>
	<g>
		<g>
			<g>
				<path d="M107.57,58.89c-0.57,0-1.15,0.02-1.72,0.08c-1.86,0.18-3.14,0.72-3.92,1.65c-1.37,1.65-0.75,4.04,0.54,5.45
					c0.85,0.93,3.77,1.76,7.49,2.74c1.31,0.34,2.43,0.64,2.97,0.85c0.21,0.08,0.45-0.02,0.53-0.23c0.08-0.21-0.02-0.45-0.23-0.53
					c-0.58-0.23-1.73-0.53-3.06-0.88c-2.52-0.67-6.34-1.67-7.1-2.5c-1.07-1.17-1.56-3.13-0.52-4.38c0.63-0.76,1.74-1.21,3.37-1.36
					c3.44-0.33,6.92,0.47,10.29,1.24c0.65,0.15,1.3,0.3,1.96,0.44c3.95,0.86,8.53,1.51,12.58-0.18c0.21-0.09,0.31-0.33,0.22-0.53
					c-0.09-0.21-0.32-0.31-0.53-0.22c-3.84,1.61-8.27,0.97-12.1,0.14c-0.65-0.14-1.3-0.29-1.95-0.44
					C113.52,59.57,110.56,58.89,107.57,58.89z"/>
			</g>
			<g>
				<path d="M101.46,63.11c-0.03,0-0.06,0-0.09,0.01c-0.71,0.15-1.27,0.25-1.76,0.34c-2.72,0.47-2.8,0.57-7.09,5.71
					c-0.73,0.87-1.58,1.89-2.59,3.09c-2.29,2.7-5.41,3.61-6.99,2.9c-0.43-0.19-0.92-0.6-0.8-1.44c0.03-0.22-0.12-0.43-0.35-0.46
					c-0.22-0.03-0.43,0.12-0.46,0.35c-0.15,1.03,0.32,1.87,1.28,2.3c1.89,0.85,5.38-0.08,7.95-3.12c1.01-1.2,1.87-2.22,2.6-3.09
					c4.19-5.01,4.19-5.01,6.61-5.43c0.48-0.08,1.07-0.19,1.79-0.34c0.22-0.05,0.36-0.26,0.31-0.48
					C101.82,63.24,101.65,63.11,101.46,63.11z"/>
			</g>
			<g>
				<path d="M106.05,66.89c-0.07,0-0.14,0.02-0.2,0.05c-1.16,0.66-2.56,1.11-4.05,1.58c-2.56,0.81-5.47,1.73-7.69,4.02
					c-0.65,0.68-1.12,1.27-1.57,1.84c-0.93,1.17-1.73,2.19-3.88,3.52c-0.19,0.12-0.25,0.37-0.13,0.56c0.12,0.19,0.37,0.25,0.56,0.13
					c2.27-1.41,3.16-2.52,4.09-3.71c0.44-0.55,0.89-1.13,1.51-1.77c2.08-2.15,4.76-3,7.35-3.81c1.53-0.48,2.98-0.94,4.21-1.64
					c0.2-0.11,0.26-0.36,0.15-0.56C106.33,66.96,106.19,66.89,106.05,66.89z"/>
			</g>
		</g>
		<g>
			<path class="st4" d="M165.54,79.19c-4.97-0.6-8.78,1.46-13.13-0.89c-5.89-3.18-6.86-3.03-9.83-2.46
				c-4.65,0.9-8.33,1.82-12.96,0.42c-2.39-0.72-5.41-2.47-7.56-3.69c-4.3-2.43-4.03-2.03-6.89-2.97c-3.55,0.91-7.68,2.06-10.97,3.86
				c-4.24,2.31-8.49,5.03-9.74,5.71c-3.32,1.81-4.21,0.12-5.6-0.93c-1.75,1.08-6.07,1.11-5.69-2.08c0.12-0.96-1.33-0.53-1.46-2.5
				c-0.22-3.3,7.79-11,14.32-15.76c6.17-2.86,16.45-7.98,25.27-9.79c4.08-0.84,20.79,5.46,30.94,9.36c5.95,2.29,8.13-0.72,14.1,1.82
				C168.49,61.23,170.43,79.78,165.54,79.19z"/>
			<path d="M152.41,57.1c2.82,1.09,4.72,0.95,6.73,0.8c2.09-0.15,4.24-0.31,7.38,1.02c0.04,0.02,0.08,0.04,0.11,0.07
				c1.86,1.69,3.49,14.26,1.39,18.83c-0.75,1.63-1.79,1.86-2.53,1.77l0,0c-1.86-0.23-3.56-0.07-5.21,0.08
				c-2.71,0.25-5.27,0.49-8.06-1.02c-5.82-3.14-6.69-2.97-9.56-2.41c-0.35,0.07-0.7,0.14-1.04,0.2c-4.15,0.82-7.74,1.53-12.11,0.2
				c-2.29-0.7-5.16-2.32-7.26-3.51l-0.38-0.22c-3.33-1.88-3.87-2.04-5.31-2.47c-0.39-0.11-0.82-0.24-1.39-0.43
				c-3.76,0.97-7.66,2.1-10.76,3.79c-2.74,1.49-5.44,3.13-7.42,4.33c-1.05,0.63-1.87,1.14-2.32,1.38c-3.03,1.65-4.3,0.54-5.42-0.44
				c-0.14-0.12-0.27-0.24-0.41-0.35c-1.34,0.68-3.58,0.85-4.92-0.01c-0.61-0.39-1.3-1.16-1.13-2.61c0.02-0.14,0.01-0.17-0.3-0.38
				c-0.43-0.29-1.07-0.72-1.16-2.05c-0.24-3.65,8.33-11.62,14.48-16.11c0.02-0.02,0.04-0.03,0.07-0.04
				c0.69-0.32,1.43-0.67,2.21-1.03c6.08-2.86,15.27-7.17,23.15-8.79c0.27-0.05,0.58-0.08,0.94-0.08
				C127.16,47.63,140.8,52.63,152.41,57.1z M82.14,73.64c0.06,0.93,0.44,1.18,0.8,1.42c0.31,0.21,0.74,0.49,0.66,1.15
				c-0.1,0.82,0.16,1.44,0.76,1.82c1.13,0.72,3.24,0.52,4.31-0.14c0.14-0.09,0.32-0.08,0.46,0.02c0.23,0.18,0.45,0.37,0.66,0.55
				c1.05,0.92,1.96,1.72,4.49,0.34c0.43-0.24,1.25-0.73,2.29-1.36c1.98-1.2,4.7-2.85,7.45-4.35c3.21-1.75,7.21-2.91,11.06-3.89
				c0.08-0.02,0.15-0.02,0.23,0.01c0.61,0.2,1.08,0.34,1.48,0.46c1.5,0.45,2.07,0.61,5.48,2.54l0.38,0.22
				c2.06,1.17,4.89,2.77,7.1,3.44c4.18,1.27,7.5,0.61,11.71-0.22c0.34-0.07,0.69-0.14,1.05-0.21c3.19-0.62,4.26-0.65,10.1,2.5
				c2.58,1.39,4.91,1.17,7.6,0.93c1.69-0.16,3.44-0.32,5.38-0.08l0,0c0.26,0.03,1.04,0.13,1.69-1.3c2.01-4.39,0.25-16.35-1.15-17.84
				c-2.92-1.23-4.87-1.08-6.93-0.93c-2.01,0.15-4.09,0.3-7.08-0.85c-7.25-2.79-26.51-10.21-30.72-9.35
				c-7.79,1.6-16.92,5.89-22.97,8.73c-0.77,0.36-1.5,0.7-2.18,1.02C89.28,63.35,81.95,70.74,82.14,73.64z M165.55,79.19
				L165.55,79.19L165.55,79.19z"/>
		</g>
		<g>
			<path d="M111.59,60.51c-2.19,0-3.94,0.52-5.26,2.11c-1.42,1.71-0.43,3.23,0.73,4.5c0.85,0.93,3.77,1.76,7.49,2.74
				c1.31,0.34,2.43,0.64,2.97,0.85c0.21,0.08,0.45-0.02,0.53-0.23c0.08-0.21-0.02-0.45-0.23-0.53c-0.58-0.23-1.73-0.53-3.06-0.88
				c-2.52-0.67-6.34-1.67-7.1-2.5c-1.37-1.5-1.56-2.4-0.7-3.43c2.11-2.54,5.56-1.95,10.79-1.07c3.21,0.54,7.21,1.22,11.77,1.22
				c0.22,0,0.41-0.18,0.41-0.41c0-0.22-0.18-0.41-0.41-0.41c-4.5,0-8.29-0.64-11.64-1.21C115.48,60.86,113.39,60.51,111.59,60.51z"
				/>
		</g>
		<g>
			<path class="st0" d="M145.75,81.56c3.5,0.34,8.68,0.81,12.21,0.84c1.68,0.01,4.13-0.33,5.93-0.63c1.58-0.26,2.93-1.4,3.53-3.01
				c1.44-3.87,3.06-11.78,1.4-24.03c-0.23-1.73-1.1-4.32-2.54-5.43c-1.83-1.4-16.36-1.45-19.51,0.33c0.86,4.2,2.12,9.41,0.59,22.16
				C147.02,74.71,144.67,81.45,145.75,81.56z"/>
			<path d="M166.54,48.98c1.48,1.13,2.43,3.75,2.69,5.7c1.83,13.5-0.39,21.44-1.43,24.23c-0.65,1.73-2.12,2.99-3.84,3.27
				c-1.79,0.3-4.29,0.65-6,0.63c-3.42-0.03-8.34-0.47-12.24-0.85l0,0c-0.19-0.02-0.35-0.12-0.46-0.27c-0.43-0.61-0.09-2.21,0.79-5.7
				c0.39-1.56,0.8-3.18,0.93-4.24c1.45-12.18,0.38-17.36-0.48-21.52l-0.11-0.51c-0.04-0.17,0.04-0.35,0.2-0.44
				c1.72-0.98,6.45-1.43,10.89-1.43C161.65,47.86,165.59,48.25,166.54,48.98z M147.28,50.06c0.87,4.22,1.96,9.47,0.49,21.78
				c-0.13,1.11-0.55,2.75-0.95,4.34c-0.44,1.76-1.1,4.38-0.93,4.98c3.87,0.38,8.71,0.8,12.07,0.83c0.03,0,0.06,0,0.1,0
				c1.66,0,4.04-0.34,5.77-0.62c1.44-0.24,2.67-1.29,3.21-2.75c1.02-2.73,3.18-10.51,1.38-23.84c-0.25-1.85-1.15-4.21-2.38-5.16
				c-1.65-1.27-15.31-1.34-18.8,0.23L147.28,50.06z M145.8,81.15C145.79,81.15,145.79,81.15,145.8,81.15L145.8,81.15
				C145.79,81.15,145.8,81.15,145.8,81.15z"/>
		</g>
		<g>
			<path class="st4" d="M155.17,78.25c-1.47,0.29-2.9-0.65-3.2-2.11c-0.3-1.46,0.66-2.87,2.13-3.17c1.47-0.29,2.9,0.65,3.2,2.11
				C157.59,76.54,156.64,77.96,155.17,78.25z"/>
			<path d="M157.69,75c0.16,0.81,0,1.63-0.45,2.32c-0.46,0.69-1.17,1.17-1.99,1.33c0,0,0,0,0,0c-1.69,0.34-3.34-0.75-3.68-2.42
				c-0.16-0.81,0-1.63,0.45-2.32c0.46-0.69,1.17-1.17,1.99-1.33c0.21-0.04,0.41-0.06,0.62-0.06C156.09,72.52,157.39,73.53,157.69,75
				z M155.09,77.85L155.09,77.85c0.61-0.12,1.13-0.47,1.47-0.98c0.34-0.51,0.45-1.11,0.33-1.7c-0.25-1.23-1.47-2.04-2.72-1.79
				c-0.61,0.12-1.13,0.47-1.47,0.98c-0.34,0.51-0.45,1.11-0.33,1.7c0.22,1.08,1.19,1.83,2.26,1.83
				C154.78,77.9,154.94,77.88,155.09,77.85z"/>
		</g>
		<g>
			<path d="M165.23,51.54c-0.01,0-0.03,0-0.04,0.01c-0.07,0.02-0.11,0.1-0.09,0.17c0.84,2.83,1.27,5.77,1.28,8.74
				c0,0.07,0.06,0.14,0.14,0.14c0,0,0,0,0,0c0.08,0,0.14-0.06,0.14-0.14c-0.01-3-0.45-5.96-1.29-8.82
				C165.34,51.58,165.29,51.54,165.23,51.54z"/>
		</g>
		<g>
			<path d="M162.82,51.18c-0.02,0-0.04,0-0.06,0.01c-0.07,0.03-0.1,0.11-0.06,0.18c0.46,0.95,0.77,1.97,0.93,3.04
				c0.01,0.07,0.08,0.12,0.15,0.11c0.07-0.01,0.13-0.08,0.11-0.15c-0.16-1.09-0.48-2.14-0.95-3.11
				C162.92,51.2,162.87,51.18,162.82,51.18z"/>
		</g>
		<g>
			<path d="M107.82,61.43c-0.06,0-0.11,0.01-0.17,0.04c-6.06,2.74-11.58,6.02-15.96,9.5c-0.24,0.19-0.53,0.43-0.85,0.71
				c-1.96,1.67-5.25,4.46-7.69,3.56c-0.21-0.08-0.45,0.03-0.52,0.24c-0.08,0.21,0.03,0.45,0.24,0.52c2.89,1.06,6.4-1.92,8.5-3.71
				c0.32-0.27,0.6-0.51,0.83-0.69c4.33-3.44,9.79-6.69,15.79-9.4c0.21-0.09,0.3-0.33,0.2-0.54
				C108.12,61.52,107.97,61.43,107.82,61.43z"/>
		</g>
		<g>
			<path d="M107.82,66.9c-0.03,0-0.06,0-0.09,0.01c-4.8,1.07-9.84,4.68-13.89,7.59c-2.07,1.48-3.86,2.76-5.25,3.46
				c-0.2,0.1-0.28,0.34-0.18,0.55c0.1,0.2,0.35,0.28,0.55,0.18c1.45-0.72,3.26-2.02,5.36-3.53c3.99-2.86,8.95-6.42,13.59-7.45
				c0.22-0.05,0.36-0.27,0.31-0.49C108.17,67.02,108,66.9,107.82,66.9z"/>
		</g>
		<g class="st6">
			<path d="M166.47,52.42c-0.07-0.06-0.19-0.17-0.27-0.24c-0.1-0.06-0.22-0.13-0.3-0.17c-0.18-0.08-0.24-0.12,0.04,0.02
				c-0.81-0.42-3.44-0.89-4.37-0.98c-3.83-0.42-7.01-0.18-10.05,0.54c-1.36,0.22-1.86,0.3-2.47,0.35c-0.44-0.01-0.92,0.18-1.33-0.05
				c-1.16-0.45-1.04-2.33,0.16-2.64c2.42-0.56,2.99-0.46,5.27-0.73c3.15-0.34,6.35-0.39,9.49,0.16c1.95,0.28,4.22,1.14,4.66,1.78
				c0.39,0.31,0.89,0.64,0.87,1.22C168.19,52.58,167.06,53.07,166.47,52.42z"/>
		</g>
		<g>
			<g class="st6">
				<path d="M116.94,50.74c-0.01,0-0.02,0-0.03,0C116.92,50.74,116.93,50.74,116.94,50.74C116.94,50.74,116.94,50.74,116.94,50.74z"
					/>
			</g>
			<g class="st6">
				<path d="M146.53,55.06c-0.02,0-0.03,0-0.05-0.01c0-0.03-0.55-0.19-0.74-0.27c-2.27-0.88-4.57-1.64-6.89-2.37
					c-1.88-0.63-4.72-1.67-5.67-1.86c-3.23-1.02-6.46-2.14-9.84-2.41c0.1,0.01,0.2,0.03,0.29,0.04c-1.18-0.2-2.38-0.19-3.57-0.11
					c-1.3,0.05-2.57,0.29-3.8,0.74c-0.8,0.2-0.95,1.43-0.23,1.84c0.22,0.14,0.49,0.17,0.74,0.1c0.06-0.01,0.11-0.02,0.14-0.02
					c-0.03,0-0.07,0.01-0.13,0.02c0.05,0,0.1-0.01,0.15-0.02c0,0,0,0,0.01,0c0.06-0.01,0.08-0.01,0.01,0
					c0.48-0.01,2.24-0.38,3.08-0.42c2.85,0.03,4.54,0.17,6.92,0.73c2,0.45,5.25,1.6,6.18,2c2.89,0.88,6.61,2.3,8.49,2.97
					c1.41,0.47,2.84,0.86,4.25,1.32c0.01,0,0.02,0.01,0.02,0.01c0.01,0,0.02,0.01,0.03,0.01c0.63,0.42,1.59,0.43,1.99-0.32
					C148.44,55.94,147.56,55.07,146.53,55.06z"/>
			</g>
		</g>
	</g>
	<g id="Group_287_1_" transform="translate(5.52 6.935)">
		<path id="Path_402_1_" d="M47.91,103.25c-0.17,0-0.31-0.13-0.31-0.3l-0.21-5.47c-0.01-0.17,0.13-0.32,0.3-0.32
			c0.17-0.01,0.32,0.13,0.32,0.3l0.21,5.47c0.01,0.17-0.13,0.32-0.3,0.32c0,0,0,0,0,0H47.91z"/>
	</g>
	<g id="Group_290_1_" transform="translate(8.054 6.876)">
		<path id="Path_405_1_" d="M50.81,101.02c-0.16,0-0.3-0.12-0.31-0.28l-0.32-3.31c-0.02-0.17,0.11-0.32,0.28-0.34
			c0.17-0.01,0.32,0.11,0.34,0.28l0.32,3.31c0.02,0.17-0.11,0.32-0.28,0.34H50.81z"/>
	</g>
	<g>
		<path class="st4" d="M128.1,109.27c-26.78-0.59-52.23-0.93-78.97,0.83c0.28-1.64,0.56-4.18,0.56-5.85
			c0-14.46,0.82-24.18-0.14-36.99c26.33-2.13,52.77-2.44,79.54,0.08C128.14,80.99,126.99,95.69,128.1,109.27z"/>
		<path d="M49.13,110.63c-0.15,0-0.29-0.06-0.4-0.18c-0.11-0.12-0.16-0.29-0.13-0.45c0.28-1.63,0.56-4.13,0.56-5.76
			c0-4.83,0.09-9.07,0.18-13.18c0.17-8.19,0.32-15.25-0.31-23.77c-0.02-0.29,0.2-0.55,0.49-0.57c28.48-2.3,54.53-2.28,79.64,0.08
			c0.29,0.03,0.5,0.28,0.48,0.57l-0.15,2.08c-0.94,13.24-1.91,26.93-0.86,39.78c0.01,0.15-0.04,0.3-0.14,0.41
			c-0.1,0.11-0.25,0.17-0.4,0.17c-26.17-0.58-51.9-0.95-78.92,0.83C49.15,110.63,49.14,110.63,49.13,110.63z M50.13,67.74
			c0.59,8.33,0.45,15.3,0.28,23.35c-0.09,4.1-0.18,8.34-0.18,13.16c0,1.48-0.22,3.64-0.47,5.28c26.62-1.72,51.98-1.37,77.76-0.81
			c-0.98-12.76-0.02-26.27,0.9-39.35l0.11-1.56C103.8,65.52,78.14,65.5,50.13,67.74z"/>
	</g>
	<g>
		<path class="st4" d="M118.37,103.85c0.23-0.92,0.82-1.84,1.53-2.47c0.77-0.68,1.67-1.07,2.65-1.33c0.46-0.12,0.95-0.22,1.44-0.27
			c0.02-4.19,0.13-8.38,0.35-12.56c0.2-3.8,0.48-7.6,0.83-11.39c-0.34-0.02-0.68-0.06-1.01-0.12c-1.21-0.25-2.32-0.88-3.22-1.72
			c-1.09-1.02-1.63-2.46-1.66-3.92c-2.22-0.17-4.44-0.3-6.66-0.4c-9.72-0.45-19.45-0.34-29.17-0.13
			c-8.02,0.17-16.03,0.32-24.02,0.92c0.02,1.18-0.33,2.4-0.9,3.34c-0.98,1.61-2.82,2.52-4.68,2.53c0,0.5,0,1.01,0,1.51
			c-0.01,6.39-0.04,12.77-0.17,19.16c-0.02,0.91-0.05,1.81-0.07,2.72c0.11-0.02,0.23-0.02,0.36,0.01c1.28,0.29,2.53,0.73,3.56,1.55
			c0.49,0.38,0.87,0.9,1.23,1.4c0.38,0.52,0.74,1.09,1.01,1.68c0.16,0.37,0.31,0.76,0.44,1.14c3.05-0.32,6.12-0.54,9.19-0.67
			c4.9-0.21,9.82-0.23,14.73-0.22c4.93,0.01,9.85,0.02,14.78,0.1c4.92,0.08,9.83,0.23,14.74,0.54c1.54,0.1,3.08,0.22,4.61,0.35
			c0.01-0.03,0.02-0.07,0.03-0.1C118.21,104.94,118.24,104.39,118.37,103.85z"/>
		<path d="M118.26,105.75c0,0-0.01,0-0.02,0c-1.58-0.14-3.13-0.25-4.61-0.35c-4.42-0.28-9.1-0.46-14.73-0.54
			c-4.73-0.07-9.54-0.09-14.19-0.1l-0.58,0c-4.7-0.01-9.74,0.01-14.72,0.22c-3.24,0.14-6.24,0.36-9.18,0.67
			c-0.08,0.01-0.16-0.04-0.19-0.12c-0.15-0.43-0.29-0.8-0.44-1.13c-0.27-0.62-0.67-1.21-0.99-1.64c-0.37-0.51-0.74-1.01-1.19-1.36
			c-0.88-0.69-1.99-1.17-3.49-1.52c-0.1-0.02-0.2-0.02-0.29-0.01c-0.05,0.01-0.11,0-0.15-0.04c-0.04-0.03-0.06-0.09-0.06-0.14
			l0.02-0.73c0.02-0.66,0.04-1.32,0.05-1.98c0.13-6.48,0.16-13.03,0.17-19.15c0-0.43,0-0.86,0-1.28l0-0.23
			c0-0.05,0.02-0.09,0.05-0.13c0.03-0.03,0.08-0.05,0.13-0.05c1.87,0,3.61-0.94,4.52-2.44c0.57-0.94,0.89-2.12,0.87-3.24
			c0-0.09,0.07-0.17,0.16-0.18c7.63-0.57,15.41-0.73,22.93-0.9l1.1-0.02c9.32-0.2,19.3-0.32,29.18,0.13
			c2.41,0.11,4.59,0.24,6.67,0.4c0.09,0.01,0.16,0.08,0.16,0.17c0.02,1.51,0.59,2.86,1.6,3.79c0.93,0.86,2.01,1.44,3.14,1.67
			c0.31,0.06,0.64,0.1,0.99,0.12c0.05,0,0.09,0.02,0.13,0.06c0.03,0.04,0.05,0.08,0.04,0.13c-0.37,4.02-0.64,7.74-0.83,11.38
			c-0.21,4.04-0.32,8.27-0.34,12.55c0,0.09-0.07,0.17-0.16,0.18c-0.45,0.05-0.92,0.14-1.42,0.27c-1.09,0.29-1.91,0.7-2.58,1.3
			c-0.7,0.62-1.25,1.51-1.47,2.38l0,0c-0.13,0.5-0.15,1.02-0.09,1.55c0,0.02,0,0.04,0,0.06l-0.02,0.1
			C118.41,105.69,118.34,105.75,118.26,105.75z M82.15,104.4c0.67,0,1.33,0,1.98,0l0.58,0c4.65,0.01,9.46,0.02,14.2,0.1
			c5.63,0.09,10.32,0.26,14.75,0.54c1.43,0.09,2.92,0.2,4.44,0.33c-0.06-0.54-0.02-1.07,0.11-1.57l0,0
			c0.23-0.93,0.83-1.89,1.58-2.56c0.71-0.63,1.58-1.07,2.73-1.37c0.46-0.12,0.9-0.21,1.31-0.26c0.02-4.24,0.14-8.41,0.34-12.41
			c0.19-3.59,0.45-7.26,0.81-11.22c-0.3-0.02-0.58-0.06-0.85-0.12c-1.19-0.24-2.33-0.85-3.31-1.76c-1.04-0.97-1.65-2.35-1.71-3.89
			c-2.02-0.15-4.15-0.28-6.5-0.39c-9.87-0.45-19.84-0.33-29.16-0.13l-1.1,0.02c-7.46,0.16-15.18,0.32-22.74,0.88
			c-0.01,1.13-0.34,2.31-0.92,3.26c-0.95,1.56-2.72,2.55-4.65,2.61l0,0.05c0,0.43,0,0.86,0,1.29c-0.01,6.12-0.04,12.68-0.17,19.16
			c-0.01,0.66-0.03,1.32-0.05,1.98l-0.02,0.54c0.07,0,0.15,0.01,0.22,0.03c1.56,0.35,2.72,0.86,3.64,1.58
			c0.49,0.39,0.88,0.9,1.26,1.44c0.33,0.45,0.74,1.06,1.02,1.71c0.13,0.31,0.27,0.64,0.4,1.02c2.9-0.31,5.87-0.52,9.06-0.66
			C73.69,104.44,78.02,104.4,82.15,104.4z"/>
	</g>
	<g>
		<path class="st4" d="M88.86,74.07c-2.02-0.12-4.34,0.83-5.84,2.24c-4.64,4.35-6.15,11.89-3.56,17.78
			c1.41,3.19,4.08,5.96,7.41,6.63c3.27,0.66,6.74-0.82,8.98-3.37c2.24-2.54,3.33-6.01,3.49-9.45c0.16-3.47-0.63-7.08-2.74-9.79
			C94.52,75.41,91.52,74.23,88.86,74.07z"/>
		<path d="M88.44,101.4c-0.56,0-1.12-0.05-1.67-0.16c-3.26-0.66-6.17-3.25-7.8-6.94c-2.7-6.13-1.15-13.86,3.68-18.38
			c1.68-1.57,4.13-2.51,6.24-2.38c3.23,0.2,6.2,1.75,8.15,4.25c2.02,2.6,3.03,6.2,2.85,10.14c-0.18,3.85-1.46,7.32-3.63,9.77
			C94.2,100.05,91.26,101.4,88.44,101.4z M88.51,74.59c-1.74,0-3.76,0.82-5.13,2.1c-4.51,4.23-5.96,11.45-3.43,17.18
			c1.48,3.37,4.11,5.73,7.03,6.32c2.92,0.59,6.25-0.66,8.48-3.2c2-2.27,3.19-5.51,3.36-9.12c0.17-3.68-0.76-7.03-2.62-9.44
			c-1.76-2.27-4.44-3.67-7.37-3.84l0,0C88.73,74.59,88.62,74.59,88.51,74.59z"/>
	</g>
	<g>
		<path class="st0" d="M68.07,82.63c2.08,0.17,3.82,2.2,3.69,4.28c-0.13,2.08-2.11,3.87-4.2,3.78c-2.08-0.09-3.91-2.03-3.87-4.12
			C63.73,84.48,65.65,82.42,68.07,82.63z"/>
		<path d="M67.71,91.22c-0.06,0-0.11,0-0.17,0c-2.38-0.1-4.43-2.28-4.38-4.66c0.03-1.2,0.61-2.44,1.56-3.3
			c0.95-0.85,2.15-1.27,3.39-1.16l0,0c2.38,0.2,4.33,2.46,4.18,4.84C72.14,89.26,70.02,91.22,67.71,91.22z M67.74,83.15
			c-0.84,0-1.65,0.32-2.3,0.91c-0.74,0.67-1.19,1.61-1.21,2.53c-0.04,1.8,1.56,3.5,3.36,3.58c1.79,0.07,3.53-1.49,3.65-3.28
			c0.11-1.79-1.42-3.56-3.21-3.71l0,0C67.93,83.15,67.83,83.15,67.74,83.15z"/>
	</g>
	<path class="st0" d="M111.5,83.64c-1.15-0.87-2.94-0.74-3.94,0.29c-0.49,0.5-0.78,1.16-0.95,1.84c-0.22,0.91-0.22,1.89,0.14,2.75
		c0.61,1.47,2.29,2.41,3.86,2.18c1.58-0.23,2.91-1.6,3.12-3.18C113.93,85.95,112.8,84.63,111.5,83.64z"/>
	<path d="M110.13,91.28c-1.64,0-3.24-1.03-3.87-2.55c-0.48-1.15-0.35-2.31-0.16-3.09c0.21-0.86,0.57-1.56,1.08-2.08
		c1.2-1.23,3.28-1.39,4.65-0.35l0,0c1.81,1.38,2.63,2.85,2.43,4.39c-0.24,1.81-1.77,3.38-3.57,3.64
		C110.5,91.27,110.31,91.28,110.13,91.28z M109.72,83.59c-0.66,0-1.32,0.24-1.78,0.71c-0.38,0.39-0.65,0.92-0.81,1.59
		c-0.21,0.87-0.17,1.73,0.11,2.42c0.51,1.24,1.96,2.06,3.29,1.86c1.34-0.2,2.49-1.37,2.66-2.72c0.15-1.13-0.53-2.27-2.02-3.4l0,0
		C110.76,83.75,110.24,83.59,109.72,83.59z"/>
	<g>
		<path d="M54.34,73.27c-0.2,0-0.4-0.03-0.59-0.1c-0.91-0.31-1.48-1.35-1.26-2.27c0.14-0.57,0.59-1.05,1.21-1.28
			c0.62-0.23,1.27-0.16,1.75,0.18l0,0c0.68,0.48,1.13,1.45,0.7,2.36C55.82,72.84,55.08,73.27,54.34,73.27z M54.43,69.84
			c-0.2,0-0.41,0.04-0.61,0.11c-0.51,0.19-0.88,0.58-0.99,1.03c-0.18,0.74,0.3,1.61,1.03,1.85c0.73,0.25,1.63-0.14,1.96-0.83
			c0.35-0.73-0.04-1.53-0.58-1.92C55.01,69.92,54.73,69.84,54.43,69.84z"/>
	</g>
	<g>
		<path d="M54.32,107.4c-0.56,0-1.09-0.21-1.45-0.57c-0.77-0.77-0.78-2.15-0.01-2.94c0.75-0.77,2.13-0.82,2.94-0.11l0,0
			c0.35,0.3,0.55,0.78,0.58,1.33c0.03,0.64-0.19,1.28-0.58,1.69c-0.36,0.37-0.88,0.59-1.45,0.6C54.34,107.4,54.33,107.4,54.32,107.4
			z M54.39,103.63c-0.48,0-0.95,0.17-1.28,0.51c-0.63,0.64-0.62,1.81,0.01,2.44c0.3,0.3,0.75,0.47,1.22,0.47
			c0.47-0.01,0.9-0.18,1.19-0.49c0.33-0.34,0.51-0.89,0.49-1.43c-0.02-0.46-0.18-0.84-0.46-1.08l0,0
			C55.24,103.77,54.82,103.63,54.39,103.63z"/>
	</g>
	<g>
		<path d="M123.83,72.9c-0.74,0-1.5-0.33-2-0.94c-0.38-0.46-0.54-0.98-0.42-1.44c0.11-0.43,0.44-0.76,0.69-1
			c0.29-0.28,0.65-0.63,1.09-0.82c0.87-0.38,2-0.04,2.52,0.76c0.31,0.47,0.4,1.1,0.25,1.73c-0.15,0.62-0.51,1.15-1,1.43
			C124.61,72.81,124.23,72.9,123.83,72.9z M123.96,68.89c-0.22,0-0.43,0.04-0.63,0.13c-0.36,0.16-0.64,0.42-0.98,0.75
			c-0.28,0.27-0.52,0.52-0.59,0.83c-0.12,0.49,0.21,0.95,0.35,1.13c0.65,0.79,1.85,1.04,2.67,0.57c0.4-0.23,0.71-0.67,0.83-1.2
			c0.13-0.53,0.05-1.06-0.2-1.45l0,0C125.1,69.17,124.53,68.89,123.96,68.89z"/>
	</g>
	<g>
		<path d="M123.17,106.87c-0.42,0-0.86-0.12-1.24-0.36c-0.51-0.32-0.88-0.8-1-1.34c-0.21-0.93,0.27-1.96,1.13-2.45
			c0.81-0.45,1.9-0.41,2.72,0.11l0,0c0.35,0.22,0.72,0.71,0.77,1.29c0.09,1.19-0.74,2.4-1.86,2.68
			C123.52,106.85,123.34,106.87,123.17,106.87z M123.29,102.76c-0.38,0-0.75,0.09-1.06,0.27c-0.72,0.41-1.13,1.29-0.96,2.06
			c0.1,0.44,0.41,0.85,0.84,1.11c0.46,0.28,1.01,0.38,1.49,0.25c0.96-0.24,1.67-1.28,1.59-2.31c-0.04-0.46-0.33-0.84-0.6-1.02
			C124.2,102.89,123.74,102.76,123.29,102.76z"/>
	</g>
	<path class="st7" d="M85.62,83.12c-5.07-0.87-6.95,9.56,0,8.69 M87.5,83.12v3.98 M87.5,91.81V87.1 M91.34,83.12v3.98 M91.34,91.81
		V87.1 M87.5,87.1h3.83 M93.29,91.81V87.1 M96.48,83.12h-1.72c-0.81,0-1.47,0.66-1.47,1.47v2.52 M93.29,87.1h2.03"/>
	<g>
		<g>
			<g>
				<path d="M80.64,135.74c0.57,0,1.15-0.02,1.72-0.08c1.86-0.18,3.14-0.72,3.92-1.65c1.37-1.65,0.75-4.04-0.54-5.45
					c-0.85-0.93-3.77-1.76-7.49-2.74c-1.31-0.34-2.43-0.64-2.97-0.85c-0.21-0.08-0.45,0.02-0.53,0.23
					c-0.08,0.21,0.02,0.45,0.23,0.53c0.58,0.23,1.73,0.53,3.06,0.88c2.52,0.67,6.34,1.67,7.1,2.5c1.07,1.17,1.56,3.13,0.52,4.38
					c-0.63,0.76-1.74,1.21-3.37,1.36c-3.44,0.33-6.92-0.47-10.29-1.24c-0.65-0.15-1.3-0.3-1.96-0.44
					c-3.95-0.86-8.53-1.51-12.58,0.18c-0.21,0.09-0.31,0.33-0.22,0.53c0.09,0.21,0.32,0.31,0.53,0.22c3.84-1.61,8.27-0.97,12.1-0.14
					c0.65,0.14,1.3,0.29,1.95,0.44C74.7,135.07,77.66,135.74,80.64,135.74z"/>
			</g>
			<g>
				<path d="M86.76,131.52c0.03,0,0.06,0,0.09-0.01c0.71-0.15,1.27-0.25,1.76-0.34c2.72-0.47,2.8-0.57,7.09-5.71
					c0.73-0.87,1.58-1.89,2.59-3.09c2.29-2.7,5.41-3.61,6.99-2.9c0.43,0.19,0.92,0.6,0.8,1.44c-0.03,0.22,0.12,0.43,0.35,0.46
					c0.22,0.03,0.43-0.12,0.46-0.35c0.15-1.03-0.32-1.87-1.28-2.3c-1.89-0.85-5.38,0.08-7.95,3.12c-1.01,1.2-1.87,2.22-2.6,3.09
					c-4.19,5.01-4.19,5.01-6.61,5.43c-0.48,0.08-1.07,0.19-1.79,0.34c-0.22,0.05-0.36,0.26-0.31,0.48
					C86.4,131.39,86.57,131.52,86.76,131.52z"/>
			</g>
			<g>
				<path d="M82.17,127.74c0.07,0,0.14-0.02,0.2-0.05c1.16-0.66,2.56-1.11,4.05-1.58c2.56-0.81,5.47-1.73,7.69-4.02
					c0.65-0.68,1.12-1.27,1.57-1.84c0.93-1.17,1.73-2.19,3.88-3.52c0.19-0.12,0.25-0.37,0.13-0.56c-0.12-0.19-0.37-0.25-0.56-0.13
					c-2.27,1.41-3.16,2.52-4.09,3.71c-0.44,0.55-0.89,1.13-1.51,1.77c-2.08,2.15-4.76,3-7.35,3.81c-1.53,0.48-2.98,0.94-4.21,1.64
					c-0.2,0.11-0.26,0.36-0.15,0.56C81.89,127.67,82.02,127.74,82.17,127.74z"/>
			</g>
		</g>
		<g>
			<path class="st4" d="M22.67,115.44c4.97,0.6,8.78-1.46,13.13,0.89c5.89,3.18,6.86,3.03,9.83,2.46c4.65-0.9,8.33-1.82,12.96-0.42
				c2.39,0.72,5.41,2.47,7.56,3.69c4.3,2.43,4.03,2.03,6.89,2.97c3.55-0.91,7.68-2.06,10.97-3.86c4.24-2.31,8.49-5.03,9.74-5.71
				c3.32-1.81,4.21-0.12,5.6,0.93c1.75-1.08,6.07-1.11,5.69,2.08c-0.12,0.96,1.33,0.53,1.46,2.5c0.22,3.3-7.79,11-14.32,15.76
				c-6.17,2.86-16.45,7.98-25.27,9.79c-4.08,0.84-20.79-5.46-30.94-9.36c-5.95-2.29-8.13,0.72-14.1-1.82
				C19.72,133.4,17.79,114.85,22.67,115.44z"/>
			<path d="M35.81,137.54c-2.82-1.09-4.72-0.95-6.73-0.8c-2.09,0.15-4.24,0.31-7.38-1.02c-0.04-0.02-0.08-0.04-0.11-0.07
				c-1.86-1.69-3.49-14.26-1.39-18.83c0.75-1.63,1.79-1.86,2.53-1.77l0,0c1.86,0.23,3.56,0.07,5.21-0.08
				c2.71-0.25,5.27-0.49,8.06,1.02c5.82,3.14,6.69,2.97,9.56,2.41c0.35-0.07,0.7-0.14,1.04-0.2c4.15-0.82,7.74-1.53,12.11-0.2
				c2.29,0.7,5.16,2.32,7.26,3.51l0.38,0.22c3.33,1.88,3.87,2.04,5.31,2.47c0.39,0.11,0.82,0.24,1.39,0.43
				c3.76-0.97,7.66-2.1,10.76-3.79c2.74-1.49,5.44-3.13,7.42-4.33c1.05-0.63,1.87-1.14,2.32-1.38c3.03-1.65,4.3-0.54,5.42,0.44
				c0.14,0.12,0.27,0.24,0.41,0.35c1.34-0.68,3.58-0.85,4.92,0.01c0.61,0.39,1.3,1.16,1.13,2.61c-0.02,0.14-0.01,0.17,0.3,0.38
				c0.43,0.29,1.07,0.72,1.16,2.05c0.24,3.65-8.33,11.62-14.48,16.11c-0.02,0.02-0.04,0.03-0.07,0.04
				c-0.69,0.32-1.43,0.67-2.21,1.03c-6.08,2.86-15.27,7.17-23.15,8.79c-0.27,0.05-0.58,0.08-0.94,0.08
				C61.06,147,47.41,142,35.81,137.54z M106.08,121c-0.06-0.93-0.44-1.18-0.8-1.42c-0.31-0.21-0.74-0.49-0.66-1.15
				c0.1-0.82-0.16-1.44-0.76-1.82c-1.13-0.72-3.24-0.52-4.31,0.14c-0.14,0.09-0.32,0.08-0.46-0.02c-0.23-0.18-0.45-0.37-0.66-0.55
				c-1.05-0.92-1.96-1.72-4.49-0.34c-0.43,0.24-1.25,0.73-2.29,1.36c-1.98,1.2-4.7,2.85-7.45,4.35c-3.21,1.75-7.21,2.91-11.06,3.89
				c-0.08,0.02-0.15,0.02-0.23-0.01c-0.61-0.2-1.08-0.34-1.48-0.46c-1.5-0.45-2.07-0.61-5.48-2.54l-0.38-0.22
				c-2.06-1.17-4.89-2.77-7.1-3.44c-4.18-1.27-7.5-0.61-11.71,0.22c-0.34,0.07-0.69,0.14-1.04,0.21c-3.19,0.62-4.26,0.65-10.1-2.5
				c-2.58-1.39-4.91-1.17-7.6-0.93c-1.69,0.16-3.44,0.32-5.38,0.08l0,0c-0.26-0.03-1.04-0.13-1.69,1.3
				c-2.01,4.39-0.25,16.35,1.15,17.84c2.92,1.23,4.87,1.08,6.93,0.93c2.01-0.15,4.09-0.3,7.08,0.85
				c7.25,2.79,26.51,10.21,30.72,9.35c7.79-1.6,16.92-5.89,22.97-8.73c0.77-0.36,1.5-0.7,2.18-1.02
				C98.94,131.28,106.27,123.89,106.08,121z M22.67,115.44L22.67,115.44L22.67,115.44z"/>
		</g>
		<g>
			<path d="M76.63,134.12c2.19,0,3.94-0.52,5.26-2.11c1.42-1.71,0.43-3.23-0.73-4.5c-0.85-0.93-3.77-1.76-7.49-2.74
				c-1.31-0.34-2.43-0.64-2.97-0.85c-0.21-0.08-0.45,0.02-0.53,0.23c-0.08,0.21,0.02,0.45,0.23,0.53c0.58,0.23,1.73,0.53,3.06,0.88
				c2.52,0.67,6.34,1.67,7.1,2.5c1.37,1.5,1.56,2.4,0.7,3.43c-2.11,2.54-5.56,1.95-10.79,1.07c-3.21-0.54-7.21-1.22-11.77-1.22
				c-0.22,0-0.41,0.18-0.41,0.41s0.18,0.41,0.41,0.41c4.5,0,8.29,0.64,11.64,1.21C72.74,133.77,74.83,134.12,76.63,134.12z"/>
		</g>
		<g>
			<path class="st0" d="M42.46,113.07c-3.5-0.34-8.68-0.81-12.21-0.84c-1.68-0.01-4.13,0.33-5.93,0.63
				c-1.58,0.26-2.93,1.4-3.53,3.01c-1.44,3.87-3.06,11.78-1.4,24.03c0.23,1.73,1.1,4.32,2.54,5.43c1.83,1.4,16.36,1.45,19.51-0.33
				c-0.86-4.2-2.12-9.41-0.59-22.16C41.19,119.92,43.55,113.18,42.46,113.07z"/>
			<path d="M21.68,145.65c-1.48-1.13-2.43-3.75-2.69-5.7c-1.83-13.5,0.39-21.44,1.43-24.23c0.65-1.73,2.12-2.99,3.84-3.27
				c1.79-0.3,4.29-0.65,6-0.63c3.42,0.03,8.34,0.47,12.24,0.85l0,0c0.19,0.02,0.35,0.12,0.46,0.27c0.43,0.61,0.09,2.21-0.79,5.7
				c-0.39,1.56-0.8,3.18-0.93,4.24c-1.45,12.18-0.38,17.36,0.48,21.52l0.11,0.51c0.04,0.17-0.04,0.35-0.2,0.44
				c-1.72,0.98-6.45,1.43-10.89,1.43C26.56,146.78,22.63,146.38,21.68,145.65z M40.94,144.57c-0.87-4.22-1.96-9.47-0.49-21.78
				c0.13-1.11,0.55-2.75,0.95-4.34c0.44-1.76,1.1-4.38,0.93-4.98c-3.87-0.38-8.71-0.8-12.07-0.83c-0.03,0-0.06,0-0.1,0
				c-1.66,0-4.04,0.34-5.77,0.62c-1.44,0.24-2.67,1.29-3.21,2.75c-1.02,2.73-3.18,10.51-1.38,23.84c0.25,1.85,1.15,4.21,2.38,5.16
				c1.65,1.27,15.31,1.34,18.8-0.23L40.94,144.57z M42.42,113.48C42.42,113.48,42.42,113.48,42.42,113.48L42.42,113.48
				C42.42,113.48,42.42,113.48,42.42,113.48z"/>
		</g>
		<g>
			<path class="st4" d="M33.05,116.38c1.47-0.29,2.9,0.65,3.2,2.11c0.3,1.46-0.66,2.87-2.13,3.17c-1.47,0.29-2.9-0.65-3.2-2.11
				C30.63,118.09,31.58,116.68,33.05,116.38z"/>
			<path d="M30.52,119.63c-0.16-0.81,0-1.63,0.45-2.32c0.46-0.69,1.17-1.17,1.99-1.33c0,0,0,0,0,0c1.69-0.34,3.34,0.75,3.68,2.42
				c0.16,0.81,0,1.63-0.45,2.32c-0.46,0.69-1.17,1.17-1.99,1.33c-0.21,0.04-0.41,0.06-0.62,0.06
				C32.13,122.12,30.82,121.1,30.52,119.63z M33.13,116.78L33.13,116.78c-0.61,0.12-1.13,0.47-1.47,0.98
				c-0.34,0.51-0.45,1.11-0.33,1.7c0.25,1.23,1.47,2.04,2.72,1.79c0.61-0.12,1.13-0.47,1.47-0.98c0.34-0.51,0.45-1.11,0.33-1.7
				c-0.22-1.08-1.19-1.83-2.26-1.83C33.43,116.74,33.28,116.75,33.13,116.78z"/>
		</g>
		<g>
			<path d="M22.99,143.09c0.01,0,0.03,0,0.04-0.01c0.07-0.02,0.11-0.1,0.09-0.17c-0.84-2.83-1.27-5.77-1.28-8.74
				c0-0.07-0.06-0.14-0.14-0.14c0,0,0,0,0,0c-0.08,0-0.14,0.06-0.14,0.14c0.01,3,0.45,5.96,1.29,8.82
				C22.88,143.06,22.93,143.09,22.99,143.09z"/>
		</g>
		<g>
			<path d="M25.4,143.46c0.02,0,0.04,0,0.06-0.01c0.07-0.03,0.1-0.11,0.06-0.18c-0.46-0.95-0.77-1.97-0.93-3.04
				c-0.01-0.07-0.08-0.12-0.15-0.11c-0.07,0.01-0.13,0.08-0.11,0.15c0.16,1.09,0.48,2.14,0.95,3.11
				C25.3,143.43,25.35,143.46,25.4,143.46z"/>
		</g>
		<g>
			<path d="M80.4,133.2c0.06,0,0.11-0.01,0.17-0.04c6.06-2.74,11.58-6.02,15.96-9.5c0.24-0.19,0.53-0.43,0.85-0.71
				c1.96-1.67,5.25-4.46,7.69-3.56c0.21,0.08,0.45-0.03,0.52-0.24c0.08-0.21-0.03-0.45-0.24-0.52c-2.89-1.06-6.4,1.92-8.5,3.71
				c-0.32,0.27-0.6,0.51-0.83,0.69c-4.33,3.44-9.79,6.69-15.79,9.4c-0.21,0.09-0.3,0.33-0.2,0.54
				C80.1,133.12,80.24,133.2,80.4,133.2z"/>
		</g>
		<g>
			<path d="M80.4,127.74c0.03,0,0.06,0,0.09-0.01c4.8-1.07,9.84-4.68,13.89-7.59c2.07-1.48,3.86-2.76,5.25-3.46
				c0.2-0.1,0.28-0.34,0.18-0.55c-0.1-0.2-0.35-0.28-0.55-0.18c-1.45,0.72-3.26,2.02-5.36,3.53c-3.99,2.86-8.95,6.42-13.59,7.45
				c-0.22,0.05-0.36,0.27-0.31,0.49C80.04,127.61,80.21,127.74,80.4,127.74z"/>
		</g>
		<g class="st6">
			<path d="M21.75,142.21c0.07,0.06,0.19,0.17,0.27,0.24c0.09,0.06,0.22,0.13,0.3,0.17c0.18,0.08,0.24,0.12-0.04-0.02
				c0.81,0.42,3.44,0.89,4.37,0.98c3.83,0.42,7.01,0.18,10.05-0.54c1.36-0.22,1.86-0.3,2.47-0.35c0.44,0.01,0.92-0.18,1.33,0.05
				c1.16,0.45,1.04,2.33-0.16,2.64c-2.42,0.56-2.99,0.46-5.27,0.73c-3.15,0.34-6.35,0.39-9.49-0.16c-1.95-0.28-4.22-1.14-4.66-1.78
				c-0.39-0.31-0.89-0.64-0.87-1.22C20.03,142.05,21.16,141.56,21.75,142.21z"/>
		</g>
		<g>
			<g class="st6">
				<path d="M71.28,143.9c0.01,0,0.02,0,0.03,0C71.29,143.89,71.29,143.89,71.28,143.9C71.28,143.9,71.28,143.9,71.28,143.9z"/>
			</g>
			<g class="st6">
				<path d="M41.68,139.57c0.02,0,0.03,0,0.05,0.01c0,0.03,0.55,0.19,0.74,0.27c2.27,0.88,4.57,1.64,6.89,2.37
					c1.88,0.63,4.72,1.67,5.67,1.86c3.23,1.02,6.46,2.14,9.84,2.41c-0.1-0.01-0.2-0.03-0.29-0.04c1.18,0.2,2.38,0.19,3.57,0.11
					c1.3-0.05,2.57-0.29,3.8-0.74c0.8-0.2,0.95-1.43,0.23-1.84c-0.22-0.14-0.49-0.17-0.74-0.1c-0.06,0.01-0.11,0.02-0.14,0.02
					c0.03,0,0.07-0.01,0.13-0.02c-0.05,0-0.1,0.01-0.15,0.02c0,0,0,0-0.01,0c-0.06,0.01-0.08,0.01-0.01,0
					c-0.48,0.01-2.24,0.38-3.08,0.42c-2.85-0.03-4.54-0.17-6.92-0.73c-2-0.45-5.25-1.6-6.18-2c-2.89-0.88-6.61-2.3-8.49-2.97
					c-1.41-0.47-2.84-0.86-4.25-1.32c-0.01,0-0.02-0.01-0.02-0.01c-0.01,0-0.02-0.01-0.03-0.01c-0.63-0.42-1.59-0.43-1.99,0.32
					C39.78,138.69,40.66,139.56,41.68,139.57z"/>
			</g>
		</g>
	</g>
	<g>
		<path d="M111.59,60.51c-2.19,0-3.94,0.52-5.26,2.11c-1.42,1.71-0.43,3.23,0.73,4.5c0.85,0.93,3.77,1.76,7.49,2.74
			c1.31,0.34,2.43,0.64,2.97,0.85c0.21,0.08,0.45-0.02,0.53-0.23c0.08-0.21-0.02-0.45-0.23-0.53c-0.58-0.23-1.73-0.53-3.06-0.88
			c-2.52-0.67-6.34-1.67-7.1-2.5c-1.37-1.5-1.56-2.4-0.7-3.43c2.11-2.54,5.56-1.95,10.79-1.07c3.21,0.54,7.21,1.22,11.77,1.22
			c0.22,0,0.41-0.18,0.41-0.41c0-0.22-0.18-0.41-0.41-0.41c-4.5,0-8.29-0.64-11.64-1.21C115.48,60.86,113.39,60.51,111.59,60.51z"/>
	</g>
	<line class="st8" x1="117.24" y1="70.19" x2="129.92" y2="76.35"/>
	<path class="st4" d="M106.5,64.78c0,0,0.68,1.97,2.03,2.34l2.42,0.89l2.96,0.84l3.25,0.88l10.39,4.84c0,0,3.53,1.18,4.71,1.18
		c1.18,0,4.71-4.71,4.71-5.89s-22.38-7.07-22.38-7.07L106.5,64.78z"/>
	<g>
		<g>
			<path class="st4" d="M128.25,74.93c0.75,0,0.75-1.17,0-1.17C127.5,73.76,127.5,74.93,128.25,74.93L128.25,74.93z"/>
		</g>
	</g>
	<g>
		<g>
			<path class="st4" d="M129.39,74.24c0.08-0.01,0.08-0.01,0.01-0.01c-0.07,0-0.06,0,0.02,0.01c-0.04,0.01-0.14-0.04-0.18-0.06
				c0.13,0.05-0.06-0.03-0.08-0.05c-0.05-0.03-0.11-0.06-0.16-0.09c-0.28-0.15-0.57-0.27-0.89-0.26c-0.25,0-0.51,0.18-0.56,0.43
				c-0.06,0.27,0.05,0.5,0.27,0.66c0.42,0.3,0.9,0.48,1.38,0.67c0.5,0.2,0.99,0.4,1.49,0.6c0.28,0.11,0.65-0.12,0.72-0.41
				c0.08-0.34-0.1-0.6-0.41-0.72c-0.48-0.19-0.96-0.38-1.44-0.58c-0.11-0.04-0.22-0.09-0.33-0.13c-0.02-0.01-0.04-0.02-0.07-0.03
				c0.07,0.03,0.07,0.03,0.01,0c-0.05-0.02-0.1-0.05-0.15-0.07c-0.21-0.1-0.42-0.21-0.61-0.35c-0.1,0.36-0.2,0.73-0.29,1.09
				c0.01,0,0.09,0,0.09,0c0,0.01-0.12-0.03-0.02,0c0.04,0.01,0.07,0.02,0.11,0.03c0.08,0.02-0.08-0.05-0.01-0.01
				c0.11,0.06,0.23,0.13,0.35,0.19c0.35,0.18,0.7,0.27,1.09,0.2c0.3-0.06,0.5-0.44,0.41-0.72C130,74.33,129.71,74.18,129.39,74.24
				L129.39,74.24z"/>
		</g>
	</g>
	<g>
		<g>
			<path class="st4" d="M130.03,66.51c-0.36-0.06-0.68-0.03-1.04,0.03c-0.08,0.01-0.16,0.03-0.24,0.04c0.1-0.01-0.05,0-0.07,0.01
				c-0.13,0.01-0.26,0.01-0.39,0.01c-0.13,0-0.26-0.01-0.39-0.03c0.12,0.01-0.06-0.01-0.07-0.01c-0.07-0.01-0.15-0.03-0.22-0.05
				c-0.13-0.03-0.25-0.07-0.38-0.11c-0.05-0.02-0.11-0.04-0.16-0.06c0.1,0.04-0.1-0.05-0.12-0.06c-0.28-0.13-0.64-0.08-0.8,0.21
				c-0.14,0.26-0.08,0.66,0.21,0.8c0.56,0.27,1.14,0.43,1.76,0.47c0.3,0.02,0.59,0,0.89-0.04c0.08-0.01,0.16-0.02,0.24-0.04
				c0.01,0,0.19-0.03,0.09-0.02c0.08-0.01,0.16-0.02,0.24-0.02c0.02,0,0.24,0.01,0.15,0c0.3,0.05,0.64-0.08,0.72-0.41
				C130.51,66.94,130.36,66.56,130.03,66.51L130.03,66.51z"/>
		</g>
	</g>
</g>
</svg>
