<?xml version="1.0" encoding="utf-8"?>
<!-- Generator: Adobe Illustrator 25.0.0, SVG Export Plug-In . SVG Version: 6.00 Build 0)  -->
<svg version="1.1" id="Layer_1" xmlns="http://www.w3.org/2000/svg" xmlns:xlink="http://www.w3.org/1999/xlink" x="0px" y="0px"
	 viewBox="0 0 200 200" style="enable-background:new 0 0 200 200;" xml:space="preserve">
<style type="text/css">
	.st0{fill:#BEE8FF;}
	.st1{fill:#1A1A1A;}
	.st2{fill:none;stroke:#1A1A1A;stroke-width:2;stroke-miterlimit:10;}
	.st3{fill:none;stroke:#1A1A1A;stroke-width:4;stroke-miterlimit:10;}
	.st4{fill:#FFFFFF;}
	.st5{fill:#1C1C1B;}
	.st6{fill:#2B2A2A;}
	.st7{fill:none;stroke:#000000;stroke-width:0.5;stroke-linecap:round;}
	.st8{fill:none;stroke:#000000;stroke-width:1.21;stroke-linecap:round;}
	.st9{fill:none;stroke:#000000;stroke-width:0.6624;stroke-linecap:round;}
	.st10{fill:none;stroke:#000000;stroke-width:0.2054;stroke-linecap:round;}
</style>
<polygon class="st0" points="124.1,67.53 129.24,66.21 134.33,67.53 136.48,71.2 136.73,75.33 133.83,79.58 129.01,81.29 
	124.7,81.29 121.15,77.68 120.16,73.55 121.85,69.7 "/>
<path class="st2" d="M68.47,149.85c-0.27,0-0.54-0.01-0.81-0.01c-5.44-0.19-10.52-2.99-13.6-7.49c-2.77-4.04-3.47-8.94-1.9-13.45
	c1.03-2.98,3.39-8.36,7.58-10.91c3.55-2.16,7.85-2.37,12.01-2.58c0,0,0.68-0.03,0.91-0.03c4.69,0,9.06,2.34,11.99,6.41
	c3.07,4.26,3.97,9.59,2.42,14.27C84.2,144.7,77.25,149.85,68.47,149.85z"/>
<path class="st2" d="M115.73,71.29c1.98-6.3,6.49-9.42,14.2-9.82l0.25,0c3.58,0,6.8,1.75,8.84,4.8c2.19,3.27,2.61,7.35,1.14,10.91
	c-2.2,5.33-7.13,8.77-12.56,8.77c-1.01,0-2.03-0.12-3.05-0.35c-3.31-0.75-6.16-2.85-7.83-5.76
	C115.18,77.18,114.83,74.14,115.73,71.29z"/>
<path class="st2" d="M130.01,66.63c2.07,0,3.99,1.02,5.26,2.8c1.27,1.79,1.63,4.04,0.97,6.03c-1.26,3.8-4.06,5.81-8.1,5.82
	c-2.38,0-4.7-1.15-6.07-2.99c-1.17-1.58-1.51-3.51-0.94-5.42c1.19-4.05,3.89-5.98,8.74-6.24H130.01z"/>
<path class="st2" d="M94.63,78.12c0.53,0,0.98-0.33,1.19-0.86c2.23-5.84,5.88-10.84,10.84-14.86c0.26-0.21,0.39-0.49,0.38-0.82
	c-0.01-0.41-0.24-0.85-0.6-1.11c-3.85-2.86-7.99-5.43-11.99-7.9c-1.8-1.12-3.61-2.23-5.39-3.38c-0.19-0.13-0.4-0.19-0.62-0.19
	c-0.35,0-0.68,0.17-0.92,0.46c-0.26,0.32-0.36,0.71-0.27,1.09l1.44,6.76C75.06,59.52,62.9,66.8,55.3,77.31
	c-6.68,9.24-9.23,20.08-7.38,31.35c0.09,0.54,0.47,0.89,0.97,0.9l0.21,0.02c0.11,0,0.22-0.01,0.33-0.04
	c6.59-1.7,13.63-3.41,20.89-4.12c0.42-0.04,0.81-0.26,1.03-0.59c0.19-0.29,0.24-0.63,0.13-0.97c-4.37-14.14,4.6-30.05,19.59-34.85
	c0.65,2.97,1.43,5.68,2.38,8.25C93.66,77.79,94.11,78.12,94.63,78.12z"/>
<path class="st2" d="M110.13,143.18c-0.29,0.06-0.55,0.24-0.72,0.52c-0.19,0.3-0.24,0.67-0.15,0.99l1.5,5.3
	c-4.87-2.4-9.63-5.09-14.18-8c3.59-3.6,6.36-7.77,8.23-12.43c0.87,2.25,1.52,4.22,2.04,6.15c0.14,0.54,0.6,0.88,1.17,0.88
	c0.21,0,0.42-0.05,0.61-0.14c15.25-6.98,24.71-23.53,22.09-38.57c5.49-0.99,10.51-2.59,16.45-4.56c2.07,10.32,0.05,20.47-5.84,29.37
	C134.47,133.11,123.09,140.57,110.13,143.18z"/>
<path class="st1" d="M144.24,110.89c0.12,0,0.15-0.24,0.28-0.63c1.25-3.71,1.26-7.6,0.31-11.6c-0.17-0.74-0.21-1.15-0.38-1.15
	c-0.1,0-0.19,0.13-0.25,0.36c-0.04,0.15-0.08,0.42-0.06,0.84c0.12,3.31,0.26,7.06-0.22,10.33c-0.06,0.4-0.06,0.83,0.01,1.2
	C143.99,110.64,144.12,110.89,144.24,110.89z"/>
<path class="st1" d="M143.29,112.62c0.18,0.08,0.37,0.06,0.55-0.05c0.16-0.1,0.29-0.27,0.38-0.46c0.17-0.39,0.15-0.86-0.23-1.03
	c-0.18-0.08-0.37-0.06-0.55,0.05c-0.16,0.1-0.29,0.27-0.38,0.46C142.88,111.98,142.91,112.45,143.29,112.62z"/>
<path class="st1" d="M51.21,93.29c-0.12,0-0.15,0.24-0.28,0.63c-1.25,3.71-1.26,7.6-0.31,11.6c0.17,0.74,0.21,1.15,0.38,1.15
	c0.1,0,0.19-0.13,0.25-0.36c0.04-0.15,0.08-0.42,0.06-0.84c-0.12-3.31-0.26-7.06,0.22-10.33c0.06-0.4,0.06-0.83-0.01-1.2
	C51.46,93.55,51.34,93.29,51.21,93.29z"/>
<path class="st1" d="M52.17,91.56c-0.18-0.08-0.37-0.06-0.55,0.05c-0.16,0.1-0.29,0.27-0.38,0.46c-0.17,0.39-0.15,0.86,0.23,1.03
	c0.18,0.08,0.37,0.06,0.55-0.05c0.16-0.1,0.29-0.27,0.38-0.46C52.57,92.21,52.55,91.73,52.17,91.56z"/>
<polygon class="st0" points="64.43,126.15 69.57,124.83 74.67,126.15 76.81,129.82 77.06,133.95 74.17,138.2 69.34,139.91 
	65.03,139.91 61.49,136.29 60.49,132.17 62.19,128.32 "/>
<path class="st2" d="M70.35,125.25c2.07,0,3.99,1.02,5.26,2.8c1.27,1.79,1.63,4.04,0.97,6.03c-1.26,3.8-4.06,5.81-8.1,5.82
	c-2.38,0-4.7-1.15-6.07-2.99c-1.17-1.58-1.51-3.51-0.94-5.42c1.19-4.05,3.89-5.98,8.74-6.24H70.35z"/>
<path class="st10" d="M126.92,71.25c-2.84-0.49-3.89,5.36,0,4.87 M127.97,71.25v2.23 M127.97,76.12v-2.64 M130.12,71.25v2.23
	 M130.12,76.12v-2.64 M127.97,73.48h2.15 M131.22,76.12v-2.64 M133,71.25h-0.96c-0.45,0-0.82,0.37-0.82,0.82v1.41 M131.22,73.48
	h1.14"/>
<path class="st10" d="M66.92,130.25c-2.84-0.49-3.89,5.36,0,4.87 M67.97,130.25v2.23 M67.97,135.12v-2.64 M70.12,130.25v2.23
	 M70.12,135.12v-2.64 M67.97,132.48h2.15 M71.22,135.12v-2.64 M73,130.25h-0.96c-0.45,0-0.82,0.37-0.82,0.82v1.41 M71.22,132.48
	h1.14"/>
</svg>
