<svg width="86" height="86" viewBox="0 0 86 86" fill="none" xmlns="http://www.w3.org/2000/svg">
<g clip-path="url(#clip0_886_17614)">
<path d="M46.5221 53.6052C50.0248 57.0508 53.527 60.4965 57.0297 63.9422C58.8794 65.7619 60.7336 67.5856 62.7493 69.1643C63.8369 70.016 65.0465 70.821 66.3692 70.8214C67.692 70.822 69.097 69.7069 69.0873 68.2124C69.0791 67.0459 68.2743 66.1091 67.52 65.3132C61.9434 59.4315 56.1146 53.8549 50.0617 48.6091C48.9518 50.2345 47.8424 51.8604 46.5221 53.6052V53.6052Z" fill="white"/>
<path d="M47.1874 53.5556L57.3814 63.5847C59.1912 65.3652 61.0629 67.2055 63.059 68.7693C64.0864 69.5743 65.1987 70.319 66.3692 70.3197H66.3703C66.9433 70.3197 67.5466 70.0574 67.9837 69.6181C68.3751 69.2237 68.589 68.7255 68.5856 68.2153C68.5786 67.2402 67.8758 66.4181 67.1557 65.6586C61.7427 59.9488 56.0258 54.4671 50.158 49.3575C49.2291 50.7171 48.2725 52.1042 47.1874 53.5556V53.5556ZM66.3704 71.323H66.3686C64.8948 71.3225 63.6097 70.4748 62.4404 69.5592C60.3992 67.961 58.5075 66.0997 56.678 64.2996L46.1703 53.9626C45.991 53.7862 45.9696 53.5031 46.1225 53.3024C47.4295 51.575 48.5499 49.9341 49.6332 48.3472C49.7139 48.229 49.8483 48.1403 49.9901 48.1218C50.132 48.104 50.2819 48.1362 50.3902 48.2302C56.4318 53.4657 62.3175 59.0971 67.8839 64.9685C68.7038 65.8333 69.5796 66.8684 69.5889 68.2083C69.5941 68.9884 69.2769 69.7397 68.6952 70.325C68.0741 70.95 67.2047 71.323 66.3704 71.323H66.3704Z" fill="black"/>
<path d="M32.8546 53.9338C23.6921 53.9338 16.2645 46.5062 16.2645 37.3437C16.2645 28.1819 23.6921 20.7543 32.8546 20.7543C42.0166 20.7543 49.4441 28.1818 49.4441 37.3437C49.4441 46.5062 42.0166 53.9338 32.8546 53.9338ZM32.8546 53.9338C23.6921 53.9338 16.2645 46.5062 16.2645 37.3437C16.2645 28.1819 23.6921 20.7543 32.8546 20.7543C42.0166 20.7543 49.4441 28.1818 49.4441 37.3437C49.4441 46.5062 42.0166 53.9338 32.8546 53.9338ZM32.8546 15.5011C20.7913 15.5011 11.0118 25.2805 11.0118 37.3437C11.0118 49.4072 20.7913 59.1865 32.8546 59.1865C44.9178 59.1865 54.6967 49.4071 54.6967 37.3437C54.6967 25.2805 44.9178 15.5011 32.8546 15.5011V15.5011Z" fill="white"/>
<path d="M16.7662 37.3437C16.7662 46.2151 23.9832 53.4322 32.8545 53.4322C41.7253 53.4322 48.9423 46.2151 48.9423 37.3437C48.9423 28.473 41.7253 21.2559 32.8545 21.2559C23.9832 21.2559 16.7662 28.4729 16.7662 37.3437ZM32.8545 54.4354C23.4303 54.4354 15.7628 46.768 15.7628 37.3437C15.7628 27.9195 23.4303 20.2527 32.8545 20.2527C42.2782 20.2527 49.9457 27.9196 49.9457 37.3437C49.9457 46.768 42.2782 54.4354 32.8545 54.4354ZM32.8545 16.0027C21.087 16.0027 11.5135 25.5763 11.5135 37.3437C11.5135 49.1113 21.087 58.6848 32.8545 58.6848C44.6214 58.6848 54.1956 49.1113 54.1956 37.3437C54.1956 25.5763 44.6214 16.0027 32.8545 16.0027V16.0027ZM32.8545 59.6881C20.5335 59.6881 10.5101 49.6647 10.5101 37.3437C10.5101 25.0234 20.5335 15 32.8545 15C45.175 15 55.1988 25.0234 55.1988 37.3437C55.1988 49.6647 45.175 59.6881 32.8545 59.6881Z" fill="black"/>
<path d="M49.3385 54.2308L49.2924 54.2245C49.2035 54.1991 49.1522 54.1063 49.1777 54.0175L49.5627 52.6729C49.5876 52.5847 49.6786 52.531 49.7691 52.5587C49.8579 52.5842 49.9092 52.6763 49.8839 52.7651L49.4993 54.1097C49.478 54.1836 49.411 54.2308 49.3384 54.2308H49.3385Z" fill="black"/>
<path d="M51.1767 56.5862L51.1548 56.585C51.0631 56.5729 50.9985 56.4887 51.0101 56.3975C51.2159 54.8247 51.4639 53.2374 51.7469 51.6782C51.7638 51.5871 51.8518 51.529 51.9419 51.5438C52.0325 51.5606 52.0929 51.6471 52.0763 51.7381C51.7944 53.2915 51.5469 54.8736 51.3423 56.4402C51.3313 56.5243 51.2592 56.5861 51.1767 56.5861V56.5862Z" fill="black"/>
<path d="M53.5625 58.8724C53.4703 58.8724 53.3953 58.7973 53.3953 58.705C53.3953 57.9181 53.5159 56.5987 53.6231 55.4352C53.6882 54.7256 53.7442 54.112 53.7639 53.7269C53.7684 53.6345 53.8358 53.5568 53.939 53.5682C54.0312 53.5729 54.1021 53.6512 54.0976 53.7436C54.0779 54.1357 54.0214 54.752 53.9557 55.4652C53.8496 56.6224 53.7297 57.9335 53.7297 58.705C53.7297 58.7973 53.6548 58.8723 53.5625 58.8723V58.8724Z" fill="black"/>
<path d="M56.0056 61.1244C55.9144 61.1244 55.84 61.0519 55.8382 60.9613L55.7121 55.3822C55.7102 55.2899 55.783 55.2133 55.8752 55.2116H55.8792C55.9698 55.2116 56.0446 55.2837 56.0464 55.3747L56.1728 60.9531C56.1744 61.0455 56.1012 61.1221 56.009 61.1244H56.0056Z" fill="black"/>
<path d="M58.3303 63.5916C58.241 63.5916 58.1667 63.5206 58.1631 63.4307L57.9441 57.5888C57.9411 57.4965 58.0127 57.4187 58.1056 57.4152C58.2018 57.4157 58.275 57.4844 58.2785 57.5761L58.4976 63.4181C58.5011 63.5103 58.429 63.5881 58.3366 63.5916H58.3303V63.5916Z" fill="black"/>
<path d="M60.6961 65.6713C60.6073 65.6713 60.5341 65.6027 60.5294 65.5133L60.2337 60.0566C60.2284 59.9638 60.2994 59.8853 60.3916 59.8801C60.4953 59.8698 60.5628 59.9458 60.5674 60.0381L60.8627 65.4954C60.8678 65.5878 60.7969 65.6661 60.7052 65.6713H60.696H60.6961Z" fill="black"/>
<path d="M63.0382 67.5938C62.9522 67.5938 62.8785 67.5274 62.8721 67.4391L62.4622 62.1265C62.4551 62.0343 62.5238 61.954 62.616 61.9472C62.6997 61.9333 62.7884 62.0089 62.7954 62.1012L63.2054 67.4138C63.2122 67.506 63.1436 67.5863 63.0514 67.5931L63.0382 67.5938V67.5938Z" fill="black"/>
<path d="M65.2557 69.3216C65.1709 69.3216 65.0988 69.2577 65.0897 69.1713L64.6105 64.5119C64.6013 64.4195 64.6675 64.3377 64.7598 64.3285C64.8452 64.3176 64.9339 64.385 64.9432 64.4779L65.4223 69.1373C65.4316 69.2288 65.3653 69.3113 65.2729 69.3205L65.2557 69.3216V69.3216Z" fill="black"/>
<path d="M67.427 69.0737C67.347 69.0737 67.2753 69.015 67.2628 68.9332L66.9261 66.8511C66.911 66.76 66.9733 66.674 67.0643 66.6597C67.1555 66.6428 67.2414 66.7063 67.2559 66.7974L67.5926 68.8795C67.6074 68.9712 67.5451 69.0566 67.4541 69.0714L67.427 69.0737H67.427Z" fill="black"/>
<path d="M32.8545 53.4323C23.9833 53.4323 16.7662 46.2151 16.7662 37.3438C16.7662 36.5799 16.8198 35.828 16.9236 35.0917C17.0856 35.6504 17.2667 36.2045 17.4622 36.7523C17.461 37.6269 17.5589 37.9872 17.875 39.016C18.0894 39.7649 18.294 40.5157 18.5657 41.2468C18.8344 41.9582 19.2824 43.5207 20.5889 45.3083L20.5894 45.3094C21.8043 46.7791 23.5912 48.3531 24.3939 48.9164C26.2821 50.1885 27.1557 50.6837 28.9643 51.1046C30.136 51.3951 31.1646 51.5007 32.0923 51.5007C33.2081 51.5007 34.1778 51.3479 35.0728 51.1807C38.5265 50.5448 40.5784 49.8235 43.3092 47.8475C43.4003 47.7909 43.4949 47.7558 43.5894 47.7368C44.1251 47.329 44.6509 46.8979 45.1986 46.4084C45.8323 45.8064 46.9531 44.5453 47.0391 44.3868C47.3614 44.0068 47.5822 43.5323 47.8694 43.1224C45.5435 49.147 39.6899 53.4323 32.8545 53.4323V53.4323ZM19.4744 47.9674C19.4466 47.9373 19.419 47.9067 19.3914 47.8762C18.1816 46.5167 17.5025 45.1502 17.04 43.8269C17.6563 45.3254 18.4797 46.7168 19.4744 47.9674ZM46.4463 47.6946C47.1452 46.779 47.7547 45.7902 48.2592 44.7437C48.2182 44.8573 48.1773 44.9709 48.1363 45.0845C47.8958 45.6426 47.6387 46.1955 47.3735 46.7444C47.1192 47.035 46.805 47.3568 46.4463 47.6946H46.4463Z" fill="#DEDEDE"/>
<path d="M32.3046 53.9707C31.6808 53.9707 31.0574 53.9206 30.4416 53.8081L30.4249 53.8047C29.4244 53.6871 28.416 53.5695 27.4475 53.2881C25.6727 52.7115 24.0728 51.7192 22.5678 50.6341C21.9341 50.1122 20.9315 49.55 19.4745 47.9674C18.4798 46.7168 17.6564 45.3254 17.0401 43.8269C16.7916 43.1142 16.6053 42.4143 16.4336 41.7344C16.1482 39.4869 16.1067 37.2232 16.3984 34.966C16.4221 34.9642 16.4456 34.963 16.4693 34.963C16.6227 34.963 16.775 34.9988 16.915 35.0623C16.9178 35.0721 16.9207 35.0819 16.9237 35.0917C16.8199 35.828 16.7663 36.5799 16.7663 37.3437C16.7663 46.2152 23.9834 53.4322 32.8546 53.4322C39.69 53.4322 45.5436 49.1469 47.8695 43.1224C47.9974 42.9401 48.1382 42.7706 48.3072 42.6276C48.4345 42.5515 48.5758 42.5163 48.7164 42.5163C48.8254 42.5163 48.9349 42.5377 49.0364 42.5775C48.7805 43.3006 48.5197 44.0224 48.2592 44.7437C47.7547 45.7903 47.1452 46.7791 46.4464 47.6947C45.3636 48.7158 43.8772 49.8846 42.4254 50.7881C42.1261 51.0128 41.9047 51.1668 41.2664 51.5607C39.6941 52.3921 37.9747 52.9191 36.2523 53.3417C35.4221 53.5648 34.5959 53.8168 33.735 53.8878C33.2599 53.9413 32.7825 53.9708 32.3046 53.9708L32.3046 53.9707Z" fill="black"/>
<path d="M47.5131 55.283C47.3915 55.1936 47.2825 55.0864 47.1908 54.9664L47.5131 55.283Z" fill="#DEDEDE"/>
<path d="M49.0566 55.3948L47.6837 54.044C48.9713 52.9001 50.125 51.6102 51.1202 50.2005C51.6633 50.6784 52.2053 51.1599 52.7455 51.6437C52.7272 51.6822 52.7064 51.7203 52.6839 51.7578C52.4515 52.1407 52.1759 52.4963 51.8835 52.8366C51.9458 52.4694 52.0099 52.1031 52.0762 51.7381C52.0929 51.6471 52.0324 51.5606 51.9419 51.5438C51.9321 51.5422 51.9227 51.541 51.9136 51.541C51.834 51.541 51.7619 51.5969 51.7469 51.6782C51.6484 52.2226 51.5533 52.7709 51.4634 53.3204C50.8192 54.15 50.0259 54.861 49.1033 55.3683C49.0878 55.3776 49.0722 55.3863 49.0567 55.3948L49.0566 55.3948ZM49.7213 52.5511C49.6481 52.5511 49.5831 52.6001 49.5628 52.6729L49.1777 54.0175C49.1522 54.1062 49.2036 54.199 49.2925 54.2244L49.3385 54.2307C49.4111 54.2307 49.4781 54.1835 49.4994 54.1096L49.884 52.765C49.9093 52.6763 49.858 52.5841 49.7692 52.5586C49.7531 52.5536 49.7369 52.5511 49.7213 52.5511Z" fill="#DEDEDE"/>
<path d="M48.3722 55.5748C48.057 55.5748 47.7588 55.4646 47.5132 55.283L47.1909 54.9664C47.1119 54.8633 47.0461 54.7508 46.9954 54.632C47.2289 54.4406 47.4584 54.2446 47.6838 54.0439L49.0567 55.3948C48.8284 55.5193 48.596 55.5747 48.3722 55.5747V55.5748ZM52.7456 51.6437C52.2054 51.1599 51.6634 50.6784 51.1203 50.2005C51.2367 50.0356 51.3509 49.8695 51.4627 49.7012C51.4736 49.7012 51.4846 49.7005 51.4956 49.7005C51.6137 49.7005 51.7378 49.7179 51.8692 49.7559C52.6684 49.9669 53.0984 50.9108 52.7455 51.6437H52.7456Z" fill="black"/>
<path d="M46.9954 54.6321C46.8079 54.1922 46.8316 53.6658 47.2052 53.2062C47.354 52.9473 47.6359 52.8303 47.8729 52.6661L47.8879 52.6538C49.085 51.571 49.2901 51.6426 50.0154 50.7955L50.0715 50.7293C50.4105 50.2045 50.8498 49.7179 51.4627 49.7013C51.3509 49.8696 51.2367 50.0357 51.1203 50.2006C50.1251 51.6103 48.9714 52.9001 47.6838 54.0441C47.4584 54.2448 47.2289 54.4408 46.9954 54.6322V54.6321Z" fill="black"/>
<path d="M49.3385 54.2308L49.2924 54.2245C49.2035 54.1991 49.1522 54.1063 49.1777 54.0175L49.5627 52.6729C49.583 52.6002 49.648 52.5511 49.7213 52.5511C49.7368 52.5511 49.753 52.5536 49.7692 52.5587C49.8579 52.5841 49.9092 52.6763 49.8839 52.7651L49.4993 54.1097C49.478 54.1836 49.411 54.2308 49.3385 54.2308Z" fill="black"/>
<path d="M51.4632 53.3205C51.5531 52.7709 51.6482 52.2226 51.7468 51.6782C51.7619 51.597 51.8339 51.5411 51.9135 51.5411C51.9227 51.5411 51.9319 51.5422 51.9417 51.5439C52.0323 51.5607 52.0927 51.6471 52.0761 51.7382C52.0097 52.1032 51.9457 52.4694 51.8834 52.8367C51.767 52.9722 51.6482 53.1047 51.5282 53.2357C51.5069 53.2644 51.485 53.2927 51.4631 53.3205L51.4632 53.3205Z" fill="black"/>
<path d="M33.3136 36.0764C33.3136 33.4818 35.4171 31.3784 38.0117 31.3784C40.6063 31.3784 42.7097 33.4818 42.7097 36.0764C42.7097 38.671 40.6064 40.7745 38.0117 40.7745C35.4171 40.7745 33.3136 38.6711 33.3136 36.0764Z" fill="#BEE8FF"/>
<path d="M38.0116 31.8801C35.6971 31.8801 33.8146 33.7625 33.8146 36.0764C33.8146 38.3909 35.6971 40.2728 38.0116 40.2728C40.3254 40.2728 42.2079 38.3909 42.2079 36.0764C42.2079 33.7626 40.3254 31.8801 38.0116 31.8801ZM38.0116 41.2761C35.1442 41.2761 32.8114 38.9438 32.8114 36.0764C32.8114 33.2096 35.1442 30.8768 38.0116 30.8768C40.8783 30.8768 43.2112 33.2096 43.2112 36.0764C43.2112 38.9438 40.8783 41.2761 38.0116 41.2761Z" fill="black"/>
<path d="M11.5562 63.2589C11.4379 63.2589 11.3192 63.2174 11.2234 63.1326C11.0165 62.9487 10.9974 62.6317 11.1814 62.4246C13.6173 59.6801 16.0114 56.8307 18.297 53.9564C18.4699 53.7402 18.7853 53.7039 19.0021 53.8762C19.219 54.0486 19.2546 54.3641 19.0823 54.5808C16.7858 57.4694 14.3797 60.3323 11.9314 63.0906C11.8322 63.2024 11.6945 63.259 11.5562 63.259V63.2589Z" fill="black"/>
<path d="M65.4502 48.6967C65.3619 48.6967 65.2748 48.6736 65.1975 48.6287L54.3157 42.2898C54.0765 42.1502 53.9951 41.8435 54.1347 41.6041C54.2743 41.3644 54.5815 41.2837 54.8208 41.4231L65.2483 47.4975L73.7829 31.146C73.9115 30.9004 74.2142 30.8059 74.4599 30.9334C74.7054 31.0619 74.8005 31.3645 74.6725 31.6109L65.8946 48.4275C65.8312 48.5491 65.7205 48.6391 65.5891 48.677L65.4502 48.6967V48.6967Z" fill="black"/>
<path d="M7.50159 64.2183C7.50159 62.5566 8.84852 61.2097 10.5102 61.2097C12.1719 61.2097 13.5188 62.5567 13.5188 64.2183C13.5188 65.8801 12.1719 67.2269 10.5102 67.2269C8.84852 67.2269 7.50159 65.88 7.50159 64.2183Z" fill="white"/>
<path d="M10.5102 61.7114C9.12814 61.7114 8.00321 62.8356 8.00321 64.2183C8.00321 65.6011 9.12819 66.7254 10.5102 66.7254C11.8923 66.7254 13.0173 65.6011 13.0173 64.2183C13.0173 62.8356 11.8923 61.7114 10.5102 61.7114V61.7114ZM10.5102 67.7286C8.5746 67.7286 7 66.1534 7 64.2184C7 62.2828 8.5746 60.7082 10.5102 60.7082C12.4458 60.7082 14.0204 62.2828 14.0204 64.2184C14.0204 66.1534 12.4458 67.7286 10.5102 67.7286V67.7286Z" fill="black"/>
<path d="M72.5552 28.3698C72.5552 26.7081 73.9021 25.3612 75.5638 25.3612C77.2255 25.3612 78.5724 26.7082 78.5724 28.3698C78.5724 30.0316 77.2254 31.3784 75.5638 31.3784C73.9021 31.3784 72.5552 30.0315 72.5552 28.3698Z" fill="white"/>
<path d="M75.5639 25.8628C74.1814 25.8628 73.0569 26.9871 73.0569 28.3698C73.0569 29.7526 74.1814 30.8769 75.5639 30.8769C76.9466 30.8769 78.071 29.7526 78.071 28.3698C78.071 26.9871 76.9466 25.8628 75.5639 25.8628ZM75.5639 31.8801C73.629 31.8801 72.0537 30.3055 72.0537 28.3699C72.0537 26.4349 73.629 24.8597 75.5639 24.8597C77.4995 24.8597 79.0741 26.4349 79.0741 28.3699C79.0741 30.3055 77.4995 31.8801 75.5639 31.8801Z" fill="black"/>
<path d="M62.4414 48.1951C62.4414 46.534 63.7881 45.1871 65.45 45.1871C67.1111 45.1871 68.458 46.534 68.458 48.1951C68.458 49.8567 67.111 51.2037 65.45 51.2037C63.7881 51.2037 62.4414 49.8567 62.4414 48.1951Z" fill="white"/>
<path d="M65.4501 45.6887C64.0674 45.6887 62.9431 46.813 62.9431 48.1951C62.9431 49.5778 64.0674 50.7021 65.4501 50.7021C66.8322 50.7021 67.9565 49.5778 67.9565 48.1951C67.9565 46.813 66.8322 45.6887 65.4501 45.6887ZM65.4501 51.7053C63.5145 51.7053 61.9397 50.1307 61.9397 48.1951C61.9397 46.2601 63.5144 44.6855 65.4501 44.6855C67.3851 44.6855 68.9597 46.2601 68.9597 48.1951C68.9597 50.1307 67.3851 51.7053 65.4501 51.7053Z" fill="black"/>
<path d="M25.3827 51.9562C25.2741 51.9562 25.1646 51.921 25.0725 51.8483C24.8551 51.677 24.8175 51.3617 24.9894 51.1443L34.2355 39.4096C34.4067 39.1922 34.7227 39.1548 34.9401 39.3261C35.1575 39.4979 35.1949 39.8127 35.0231 40.0307L25.7771 51.7653C25.6779 51.8905 25.5308 51.9562 25.3827 51.9562H25.3827Z" fill="black"/>
<path d="M48.3393 43.0312C48.2499 43.0312 48.1595 43.0076 48.0776 42.9574L41.7404 39.0626C41.5039 38.9173 41.4302 38.6087 41.5754 38.3724C41.7201 38.1366 42.0298 38.0633 42.2657 38.2075L48.6022 42.1023C48.8386 42.2476 48.9125 42.5567 48.7672 42.7925C48.6726 42.9465 48.5083 43.0311 48.3393 43.0311V43.0312Z" fill="black"/>
</g>
<defs>
<clipPath id="clip0_886_17614">
<rect width="86" height="86" fill="white"/>
</clipPath>
</defs>
</svg>
