<svg width="86" height="96" viewBox="0 0 86 86" fill="none" xmlns="http://www.w3.org/2000/svg">
<g clip-path="url(#clip0_948_21187)">
<path d="M46.5225 48.6052C50.0251 52.0509 53.5274 55.4966 57.0301 58.9422C58.8798 60.762 60.734 62.5857 62.7497 64.1644C63.8373 65.016 65.0469 65.821 66.3696 65.8215C67.6923 65.8221 69.0974 64.707 69.0876 63.2124C69.0795 62.0459 68.2747 61.1091 67.5204 60.3133C61.9438 54.4315 56.1149 48.8549 50.0621 43.6091C48.9521 45.2346 47.8427 46.8605 46.5225 48.6052Z" fill="white"/>
<path d="M47.1874 48.5557L57.3814 58.5847C59.1912 60.3653 61.0629 62.2056 63.059 63.7694C64.0864 64.5743 65.1987 65.3191 66.3692 65.3198H66.3703C66.9433 65.3198 67.5466 65.0575 67.9837 64.6181C68.3751 64.2238 68.589 63.7256 68.5856 63.2154C68.5786 62.2403 67.8758 61.4182 67.1557 60.6587C61.7427 54.9489 56.0258 49.4672 50.158 44.3575C49.2291 45.7172 48.2725 47.1043 47.1874 48.5557ZM66.3704 66.323H66.3686C64.8948 66.3225 63.6097 65.4749 62.4404 64.5593C60.3992 62.961 58.5075 61.0998 56.678 59.2996L46.1703 48.9626C45.991 48.7863 45.9696 48.5032 46.1225 48.3025C47.4295 46.5751 48.5499 44.9342 49.6332 43.3473C49.7139 43.2291 49.8483 43.1403 49.9901 43.1219C50.132 43.1041 50.2819 43.1363 50.3902 43.2303C56.4318 48.4658 62.3175 54.0971 67.8839 59.9686C68.7038 60.8333 69.5796 61.8684 69.5889 63.2083C69.5941 63.9884 69.2769 64.7398 68.6952 65.3251C68.0741 65.9501 67.2047 66.323 66.3704 66.323H66.3704Z" fill="black"/>
<path d="M32.8545 48.9339C23.692 48.9339 16.2644 41.5064 16.2644 32.3438C16.2644 23.182 23.6919 15.7544 32.8545 15.7544C42.0165 15.7544 49.4439 23.1819 49.4439 32.3438C49.4439 41.5064 42.0165 48.9339 32.8545 48.9339ZM32.8545 48.9339C23.692 48.9339 16.2644 41.5064 16.2644 32.3438C16.2644 23.182 23.6919 15.7544 32.8545 15.7544C42.0165 15.7544 49.4439 23.1819 49.4439 32.3438C49.4439 41.5064 42.0165 48.9339 32.8545 48.9339ZM32.8545 10.5012C20.7912 10.5012 11.0117 20.2806 11.0117 32.3438C11.0117 44.4073 20.7912 54.1866 32.8545 54.1866C44.9177 54.1866 54.6966 44.4072 54.6966 32.3438C54.6966 20.2806 44.9177 10.5012 32.8545 10.5012Z" fill="white"/>
<path d="M16.7658 32.3437C16.7658 41.2151 23.9829 48.4322 32.8541 48.4322C41.7249 48.4322 48.942 41.2151 48.942 32.3437C48.942 23.473 41.7249 16.2559 32.8541 16.2559C23.9829 16.2559 16.7658 23.4729 16.7658 32.3437ZM32.8541 49.4354C23.4299 49.4354 15.7624 41.768 15.7624 32.3437C15.7624 22.9195 23.4299 15.2527 32.8541 15.2527C42.2778 15.2527 49.9453 22.9196 49.9453 32.3437C49.9453 41.768 42.2778 49.4354 32.8541 49.4354ZM32.8541 11.0027C21.0867 11.0027 11.5131 20.5763 11.5131 32.3437C11.5131 44.1113 21.0867 53.6848 32.8541 53.6848C44.6211 53.6848 54.1953 44.1113 54.1953 32.3437C54.1953 20.5763 44.621 11.0027 32.8541 11.0027ZM32.8541 54.6881C20.5331 54.6881 10.5098 44.6647 10.5098 32.3437C10.5098 20.0234 20.5331 10 32.8541 10C45.1747 10 55.1985 20.0234 55.1985 32.3437C55.1985 44.6647 45.1747 54.6881 32.8541 54.6881Z" fill="black"/>
<path d="M49.3383 49.2307L49.2922 49.2244C49.2033 49.199 49.1519 49.1062 49.1774 49.0174L49.5625 47.6728C49.5873 47.5845 49.6784 47.5309 49.7689 47.5586C49.8577 47.584 49.9089 47.6762 49.8836 47.765L49.499 49.1096C49.4778 49.1835 49.4108 49.2307 49.3382 49.2307H49.3383Z" fill="black"/>
<path d="M51.1767 51.5862L51.1548 51.585C51.0631 51.5729 50.9985 51.4887 51.0101 51.3975C51.2159 49.8247 51.4639 48.2374 51.7469 46.6782C51.7638 46.5871 51.8518 46.529 51.9419 46.5438C52.0325 46.5606 52.0929 46.6471 52.0763 46.7381C51.7944 48.2915 51.5469 49.8736 51.3423 51.4402C51.3313 51.5243 51.2592 51.5861 51.1767 51.5861V51.5862Z" fill="black"/>
<path d="M53.5627 53.8724C53.4705 53.8724 53.3955 53.7974 53.3955 53.7051C53.3955 52.9181 53.5161 51.5988 53.6234 50.4353C53.6884 49.7256 53.7445 49.112 53.7641 48.727C53.7687 48.6346 53.836 48.5569 53.9393 48.5683C54.0315 48.573 54.1024 48.6513 54.0978 48.7436C54.0782 49.1357 54.0216 49.7521 53.9559 50.4653C53.8499 51.6225 53.7299 52.9336 53.7299 53.705C53.7299 53.7974 53.655 53.8724 53.5627 53.8724V53.8724Z" fill="black"/>
<path d="M56.0055 56.1245C55.9143 56.1245 55.8399 56.0519 55.8381 55.9614L55.7119 50.3823C55.7101 50.29 55.7829 50.2133 55.875 50.2117H55.8791C55.9696 50.2117 56.0445 50.2837 56.0463 50.3748L56.1727 55.9532C56.1743 56.0455 56.1011 56.1222 56.0089 56.1245H56.0055Z" fill="black"/>
<path d="M58.3307 58.5916C58.2414 58.5916 58.167 58.5207 58.1635 58.4308L57.9444 52.5889C57.9415 52.4966 58.0131 52.4188 58.1059 52.4153C58.2022 52.4158 58.2754 52.4844 58.2788 52.5761L58.498 58.4182C58.5014 58.5103 58.4294 58.5881 58.337 58.5916H58.3307Z" fill="black"/>
<path d="M60.6961 60.6713C60.6073 60.6713 60.5341 60.6027 60.5294 60.5133L60.2337 55.0566C60.2284 54.9638 60.2994 54.8853 60.3916 54.8801C60.4953 54.8698 60.5628 54.9458 60.5674 55.0381L60.8627 60.4954C60.8678 60.5878 60.7969 60.6661 60.7052 60.6713H60.696H60.6961Z" fill="black"/>
<path d="M63.0384 62.5938C62.9524 62.5938 62.8787 62.5274 62.8723 62.4392L62.4624 57.1265C62.4554 57.0343 62.524 56.954 62.6162 56.9472C62.6999 56.9333 62.7887 57.009 62.7957 57.1012L63.2056 62.4138C63.2125 62.506 63.1439 62.5863 63.0516 62.5931L63.0384 62.5938Z" fill="black"/>
<path d="M65.2555 64.3217C65.1707 64.3217 65.0986 64.2578 65.0894 64.1713L64.6102 59.512C64.6011 59.4196 64.6673 59.3377 64.7596 59.3286C64.8449 59.3176 64.9337 59.3851 64.943 59.478L65.4221 64.1373C65.4314 64.2289 65.365 64.3114 65.2726 64.3205L65.2555 64.3217Z" fill="black"/>
<path d="M67.427 64.0737C67.347 64.0737 67.2753 64.0151 67.2628 63.9332L66.9261 61.8511C66.911 61.7601 66.9733 61.6741 67.0643 61.6597C67.1555 61.6428 67.2414 61.7063 67.2559 61.7975L67.5926 63.8796C67.6074 63.9712 67.5451 64.0566 67.4541 64.0715L67.427 64.0737H67.427Z" fill="black"/>
<path d="M32.8549 48.4323C23.9837 48.4323 16.7666 41.2152 16.7666 32.3438C16.7666 31.5799 16.8202 30.8281 16.924 30.0918C17.086 30.6504 17.2671 31.2045 17.4625 31.7524C17.4614 32.6269 17.5593 32.9873 17.8754 34.016C18.0898 34.7649 18.2944 35.5158 18.5661 36.2469C18.8348 36.9583 19.2828 38.5208 20.5893 40.3083L20.5898 40.3095C21.8047 41.7792 23.5916 43.3532 24.3942 43.9165C26.2825 45.1885 27.156 45.6838 28.9647 46.1046C30.1364 46.3952 31.1649 46.5008 32.0926 46.5008C33.2084 46.5008 34.1781 46.3479 35.0731 46.1808C38.5268 45.5448 40.5788 44.8235 43.3096 42.8475C43.4006 42.791 43.4952 42.7559 43.5897 42.7369C44.1255 42.3291 44.6513 41.8979 45.199 41.4084C45.8326 40.8065 46.9535 39.5454 47.0395 39.3868C47.3618 39.0068 47.5826 38.5323 47.8697 38.1225C45.5438 44.1471 39.6903 48.4323 32.8549 48.4323ZM19.4748 42.9675C19.447 42.9374 19.4194 42.9068 19.3918 42.8763C18.182 41.5168 17.5029 40.1503 17.0403 38.827C17.6567 40.3254 18.4801 41.7168 19.4748 42.9675ZM46.4467 42.6947C47.1455 41.7791 47.755 40.7903 48.2596 39.7438C48.2185 39.8574 48.1777 39.971 48.1367 40.0845C47.8962 40.6427 47.6391 41.1956 47.3738 41.7445C47.1195 42.0351 46.8054 42.3569 46.4466 42.6947H46.4467Z" fill="#DEDEDE"/>
<path d="M32.3043 48.9708C31.6804 48.9708 31.057 48.9207 30.4412 48.8082L30.4245 48.8048C29.4241 48.6872 28.4157 48.5696 27.4471 48.2882C25.6723 47.7116 24.0724 46.7193 22.5674 45.6342C21.9338 45.1123 20.9311 44.5501 19.4741 42.9675C18.4795 41.7169 17.656 40.3255 17.0397 38.827C16.7913 38.1143 16.6049 37.4144 16.4332 36.7345C16.1478 34.487 16.1063 32.2233 16.398 29.9661C16.4217 29.9643 16.4453 29.9631 16.469 29.9631C16.6223 29.9631 16.7746 29.9989 16.9147 30.0623C16.9174 30.0722 16.9204 30.082 16.9233 30.0918C16.8196 30.8281 16.766 31.58 16.766 32.3438C16.766 41.2152 23.983 48.4323 32.8542 48.4323C39.6897 48.4323 45.5432 44.147 47.8691 38.1224C47.9971 37.9402 48.1378 37.7707 48.3068 37.6277C48.4341 37.5516 48.5755 37.5164 48.716 37.5164C48.825 37.5164 48.9345 37.5378 49.0361 37.5776C48.7801 38.3007 48.5194 39.0225 48.2589 39.7438C47.7543 40.7904 47.1448 41.7791 46.446 42.6947C45.3632 43.7159 43.8769 44.8847 42.425 45.7882C42.1258 46.0129 41.9043 46.1668 41.2661 46.5608C39.6937 47.3922 37.9743 47.9192 36.252 48.3418C35.4217 48.5649 34.5955 48.8169 33.7347 48.8879C33.2596 48.9414 32.7821 48.9709 32.3042 48.9709L32.3043 48.9708Z" fill="black"/>
<path d="M47.5127 50.2829C47.3911 50.1935 47.2821 50.0863 47.1904 49.9663L47.5127 50.2829Z" fill="#DEDEDE"/>
<path d="M49.0565 50.3948L47.6836 49.0439C48.9712 47.9 50.1249 46.6101 51.1201 45.2004C51.6632 45.6783 52.2052 46.1598 52.7454 46.6436C52.7271 46.6822 52.7063 46.7203 52.6838 46.7577C52.4513 47.1407 52.1758 47.4963 51.8834 47.8366C51.9457 47.4693 52.0097 47.103 52.0761 46.7381C52.0928 46.647 52.0323 46.5606 51.9418 46.5438C51.9319 46.5421 51.9226 46.541 51.9135 46.541C51.8339 46.541 51.7618 46.5969 51.7468 46.6781C51.6482 47.2225 51.5531 47.7709 51.4632 48.3203C50.8191 49.15 50.0258 49.8609 49.1032 50.3682C49.0877 50.3776 49.0721 50.3862 49.0566 50.3947L49.0565 50.3948ZM49.7212 47.551C49.6479 47.551 49.5829 47.6 49.5627 47.6728L49.1776 49.0174C49.1521 49.1062 49.2034 49.199 49.2923 49.2243L49.3384 49.2307C49.411 49.2307 49.478 49.1835 49.4992 49.1096L49.8838 47.765C49.9092 47.6762 49.8579 47.584 49.7691 47.5586C49.753 47.5535 49.7368 47.551 49.7212 47.551Z" fill="#DEDEDE"/>
<path d="M48.372 50.5747C48.0567 50.5747 47.7586 50.4645 47.5129 50.2829L47.1906 49.9663C47.1117 49.8632 47.0458 49.7508 46.9951 49.6319C47.2287 49.4405 47.4582 49.2445 47.6836 49.0438L49.0565 50.3947C48.8281 50.5192 48.5957 50.5746 48.372 50.5746V50.5747ZM52.7453 46.6436C52.2051 46.1598 51.6632 45.6783 51.1201 45.2004C51.2364 45.0355 51.3507 44.8694 51.4625 44.7011C51.4734 44.7011 51.4844 44.7004 51.4953 44.7004C51.6134 44.7004 51.7375 44.7178 51.8689 44.7558C52.6682 44.9669 53.0982 45.9107 52.7453 46.6436H52.7453Z" fill="black"/>
<path d="M46.9956 49.632C46.8081 49.1921 46.8319 48.6657 47.2055 48.2061C47.3542 47.9472 47.6362 47.8302 47.8731 47.666L47.8882 47.6537C49.0852 46.5709 49.2903 46.6425 50.0157 45.7954L50.0717 45.7292C50.4107 45.2044 50.85 44.7178 51.4629 44.7012C51.3511 44.8695 51.2369 45.0356 51.1206 45.2005C50.1254 46.6102 48.9717 47.9 47.684 49.044C47.4587 49.2447 47.2292 49.4407 46.9956 49.6321V49.632Z" fill="black"/>
<path d="M49.3383 49.2309L49.2922 49.2246C49.2033 49.1993 49.1519 49.1064 49.1774 49.0176L49.5625 47.673C49.5828 47.6003 49.6478 47.5513 49.721 47.5513C49.7365 47.5513 49.7527 47.5537 49.7689 47.5588C49.8577 47.5843 49.909 47.6764 49.8837 47.7652L49.4991 49.1098C49.4778 49.1837 49.4108 49.2309 49.3383 49.2309Z" fill="black"/>
<path d="M51.463 48.3204C51.5529 47.7709 51.648 47.2225 51.7466 46.6781C51.7616 46.5969 51.8337 46.541 51.9133 46.541C51.9224 46.541 51.9317 46.5422 51.9415 46.5438C52.032 46.5606 52.0925 46.6471 52.0758 46.7381C52.0095 47.1031 51.9454 47.4694 51.8831 47.8366C51.7668 47.9721 51.6479 48.1047 51.528 48.2356C51.5067 48.2643 51.4848 48.2926 51.4629 48.3204L51.463 48.3204Z" fill="black"/>
<path d="M33.3135 31.0764C33.3135 28.4818 35.417 26.3784 38.0116 26.3784C40.6062 26.3784 42.7096 28.4817 42.7096 31.0764C42.7096 33.671 40.6063 35.7745 38.0116 35.7745C35.417 35.7745 33.3135 33.671 33.3135 31.0764Z" fill="#BEE8FF"/>
<path d="M38.0117 26.8802C35.6972 26.8802 33.8147 28.7627 33.8147 31.0765C33.8147 33.391 35.6972 35.2729 38.0117 35.2729C40.3255 35.2729 42.2081 33.391 42.2081 31.0765C42.2081 28.7627 40.3255 26.8802 38.0117 26.8802ZM38.0117 36.2762C35.1443 36.2762 32.8115 33.9439 32.8115 31.0765C32.8115 28.2097 35.1443 25.877 38.0117 25.877C40.8785 25.877 43.2113 28.2098 43.2113 31.0765C43.2113 33.9439 40.8785 36.2762 38.0117 36.2762Z" fill="black"/>
<path d="M11.556 58.2589C11.4376 58.2589 11.319 58.2174 11.2232 58.1326C11.0163 57.9487 10.9972 57.6317 11.1812 57.4246C13.6171 54.6801 16.0112 51.8307 18.2967 48.9564C18.4696 48.7402 18.7851 48.7039 19.0018 48.8762C19.2187 49.0486 19.2543 49.3641 19.0821 49.5808C16.7856 52.4694 14.3794 55.3323 11.9312 58.0906C11.832 58.2024 11.6942 58.259 11.556 58.259V58.2589Z" fill="black"/>
<path d="M65.4502 43.6967C65.3619 43.6967 65.2748 43.6737 65.1975 43.6287L54.3157 37.2898C54.0765 37.1502 53.9951 36.8435 54.1347 36.6042C54.2743 36.3644 54.5815 36.2837 54.8208 36.4231L65.2483 42.4975L73.7829 26.1461C73.9115 25.9004 74.2142 25.806 74.4599 25.9334C74.7054 26.0619 74.8005 26.3646 74.6725 26.6109L65.8946 43.4275C65.8312 43.5491 65.7205 43.6392 65.5891 43.6771L65.4502 43.6967Z" fill="black"/>
<path d="M7.50195 59.2183C7.50195 57.5566 8.84889 56.2097 10.5106 56.2097C12.1723 56.2097 13.5192 57.5567 13.5192 59.2183C13.5192 60.88 12.1722 62.2269 10.5106 62.2269C8.84889 62.2269 7.50195 60.88 7.50195 59.2183Z" fill="white"/>
<path d="M10.5102 56.7114C9.12814 56.7114 8.00321 57.8357 8.00321 59.2184C8.00321 60.6011 9.12819 61.7255 10.5102 61.7255C11.8923 61.7255 13.0173 60.6011 13.0173 59.2184C13.0173 57.8357 11.8923 56.7114 10.5102 56.7114ZM10.5102 62.7287C8.5746 62.7287 7 61.1534 7 59.2185C7 57.2828 8.5746 55.7083 10.5102 55.7083C12.4458 55.7083 14.0204 57.2828 14.0204 59.2185C14.0204 61.1534 12.4458 62.7287 10.5102 62.7287Z" fill="black"/>
<path d="M72.5557 23.3699C72.5557 21.7082 73.9026 20.3613 75.5643 20.3613C77.226 20.3613 78.5729 21.7083 78.5729 23.3699C78.5729 25.0316 77.2259 26.3785 75.5643 26.3785C73.9026 26.3785 72.5557 25.0316 72.5557 23.3699Z" fill="white"/>
<path d="M75.5639 20.8628C74.1814 20.8628 73.0569 21.9871 73.0569 23.3698C73.0569 24.7525 74.1814 25.8768 75.5639 25.8768C76.9466 25.8768 78.071 24.7525 78.071 23.3698C78.071 21.9871 76.9466 20.8628 75.5639 20.8628ZM75.5639 26.88C73.629 26.88 72.0537 25.3054 72.0537 23.3698C72.0537 21.4349 73.629 19.8596 75.5639 19.8596C77.4995 19.8596 79.0741 21.4349 79.0741 23.3698C79.0741 25.3054 77.4995 26.88 75.5639 26.88Z" fill="black"/>
<path d="M62.4414 43.195C62.4414 41.5339 63.7881 40.187 65.45 40.187C67.1111 40.187 68.458 41.5339 68.458 43.195C68.458 44.8566 67.111 46.2036 65.45 46.2036C63.7881 46.2036 62.4414 44.8566 62.4414 43.195Z" fill="white"/>
<path d="M65.4499 40.6888C64.0671 40.6888 62.9429 41.813 62.9429 43.1951C62.9429 44.5778 64.0671 45.7021 65.4499 45.7021C66.8319 45.7021 67.9562 44.5778 67.9562 43.1951C67.9562 41.813 66.8319 40.6888 65.4499 40.6888ZM65.4499 46.7053C63.5142 46.7053 61.9395 45.1307 61.9395 43.1951C61.9395 41.2601 63.5142 39.6855 65.4499 39.6855C67.3848 39.6855 68.9594 41.2601 68.9594 43.1951C68.9594 45.1307 67.3848 46.7053 65.4499 46.7053Z" fill="black"/>
<path d="M25.383 46.9561C25.2745 46.9561 25.165 46.921 25.0728 46.8482C24.8555 46.677 24.8179 46.3616 24.9898 46.1443L34.2358 34.4095C34.4071 34.1921 34.723 34.1547 34.9404 34.326C35.1578 34.4978 35.1953 34.8126 35.0235 35.0306L25.7775 46.7652C25.6782 46.8904 25.5312 46.9561 25.3831 46.9561H25.383Z" fill="black"/>
<path d="M48.3393 38.0311C48.2499 38.0311 48.1595 38.0075 48.0776 37.9573L41.7404 34.0625C41.5039 33.9172 41.4302 33.6086 41.5754 33.3723C41.7201 33.1365 42.0298 33.0632 42.2657 33.2074L48.6022 37.1022C48.8386 37.2475 48.9125 37.5566 48.7672 37.7924C48.6726 37.9464 48.5083 38.031 48.3393 38.031V38.0311Z" fill="black"/>
</g>
<defs>
<clipPath id="clip0_948_21187">
<rect width="86" height="86" fill="white"/>
</clipPath>
</defs>
</svg>
