<svg width="86" height="86" viewBox="0 0 86 86" fill="none" xmlns="http://www.w3.org/2000/svg">
<path d="M11.4264 74.5599H59.0782V58.7706H11.4264V74.5599Z" fill="white"/>
<path d="M11.853 74.1197H58.6517V59.2101H11.853V74.1197V74.1197ZM59.0782 75H11.4265C11.1906 75 11 74.8027 11 74.5598V58.7699C11 58.527 11.1907 58.3297 11.4265 58.3297H59.0782C59.3136 58.3297 59.5047 58.527 59.5047 58.7699V74.5598C59.5047 74.8027 59.3136 75 59.0782 75Z" fill="black"/>
<path d="M11.4264 32.8997H59.0782V17.1101H11.4264V32.8997Z" fill="white"/>
<path d="M11.853 32.4596H58.6517V17.5506H11.853V32.4596V32.4596ZM59.0782 33.3399H11.4265C11.1912 33.3399 11 33.1426 11 32.8997V17.1102C11 16.8674 11.1912 16.67 11.4265 16.67H59.0782C59.3136 16.67 59.5047 16.8674 59.5047 17.1102V32.8997C59.5047 33.1426 59.3136 33.3399 59.0782 33.3399Z" fill="black"/>
<path d="M11.4264 53.7298H59.0782V37.9403H11.4264V53.7298Z" fill="white"/>
<path d="M11.853 53.2896H58.6517V38.3806H11.853V53.2896V53.2896ZM59.0782 54.1699H11.4265C11.1912 54.1699 11 53.9726 11 53.7298V37.9404C11 37.6975 11.1912 37.5001 11.4265 37.5001H59.0782C59.3136 37.5001 59.5047 37.6975 59.5047 37.9404V53.7298C59.5047 53.9726 59.3136 54.1699 59.0782 54.1699Z" fill="black"/>
<path d="M17.3955 45.8348C17.3955 44.7591 18.2406 43.8868 19.2834 43.8868C20.3257 43.8868 21.1709 44.7591 21.1709 45.8348C21.1709 46.911 20.3257 47.7833 19.2834 47.7833C18.2406 47.7833 17.3955 46.911 17.3955 45.8348Z" fill="white"/>
<path d="M19.2836 44.3269C18.4781 44.3269 17.8222 45.0035 17.8222 45.8348C17.8222 46.6667 18.4781 47.3431 19.2836 47.3431C20.0891 47.3431 20.7446 46.6667 20.7446 45.8348C20.7446 45.0035 20.0891 44.3269 19.2836 44.3269ZM19.2836 48.2236C18.0074 48.2236 16.969 47.1519 16.969 45.8348C16.969 44.5182 18.0074 43.4466 19.2836 43.4466C20.5592 43.4466 21.5976 44.5182 21.5976 45.8348C21.5976 47.1519 20.5592 48.2236 19.2836 48.2236V48.2236Z" fill="black"/>
<path d="M17.3955 66.6649C17.3955 65.5891 18.2406 64.7168 19.2834 64.7168C20.3257 64.7168 21.1709 65.5892 21.1709 66.6649C21.1709 67.7412 20.3257 68.6134 19.2834 68.6134C18.2406 68.6134 17.3955 67.7412 17.3955 66.6649Z" fill="white"/>
<path d="M19.2836 65.157C18.4781 65.157 17.8222 65.8336 17.8222 66.6649C17.8222 67.4962 18.4781 68.1727 19.2836 68.1727C20.0891 68.1727 20.7446 67.4962 20.7446 66.6649C20.7446 65.8335 20.0891 65.157 19.2836 65.157ZM19.2836 69.0537C18.0074 69.0537 16.969 67.982 16.969 66.6649C16.969 65.3483 18.0074 64.2766 19.2836 64.2766C20.5592 64.2766 21.5976 65.3483 21.5976 66.6649C21.5976 67.982 20.5592 69.0537 19.2836 69.0537V69.0537Z" fill="black"/>
<path d="M17.3955 66.6649C17.3955 65.5891 18.2406 64.7168 19.2834 64.7168C20.3257 64.7168 21.1709 65.5892 21.1709 66.6649C21.1709 67.7412 20.3257 68.6134 19.2834 68.6134C18.2406 68.6134 17.3955 67.7412 17.3955 66.6649Z" fill="white"/>
<path d="M19.2836 65.157C18.4781 65.157 17.8222 65.8336 17.8222 66.6649C17.8222 67.4962 18.4781 68.1727 19.2836 68.1727C20.0891 68.1727 20.7446 67.4962 20.7446 66.6649C20.7446 65.8335 20.0891 65.157 19.2836 65.157ZM19.2836 69.0537C18.0074 69.0537 16.969 67.982 16.969 66.6649C16.969 65.3483 18.0074 64.2766 19.2836 64.2766C20.5592 64.2766 21.5976 65.3483 21.5976 66.6649C21.5976 67.982 20.5592 69.0537 19.2836 69.0537V69.0537Z" fill="black"/>
<path d="M27.0791 66.6649C27.0791 65.5891 27.9239 64.7168 28.9666 64.7168C30.0094 64.7168 30.8547 65.5892 30.8547 66.6649C30.8547 67.7412 30.0094 68.6134 28.9666 68.6134C27.9239 68.6134 27.0791 67.7412 27.0791 66.6649Z" fill="white"/>
<path d="M28.9664 65.157C28.1609 65.157 27.505 65.8336 27.505 66.6649C27.505 67.4962 28.161 68.1727 28.9664 68.1727C29.7725 68.1727 30.4278 67.4962 30.4278 66.6649C30.4278 65.8335 29.7725 65.157 28.9664 65.157V65.157ZM28.9664 69.0537C27.6902 69.0537 26.6519 67.982 26.6519 66.6649C26.6519 65.3483 27.6902 64.2766 28.9664 64.2766C30.2426 64.2766 31.281 65.3483 31.281 66.6649C31.281 67.982 30.2426 69.0537 28.9664 69.0537Z" fill="black"/>
<path d="M17.3955 25.0048C17.3955 23.929 18.2406 23.0567 19.2834 23.0567C20.3257 23.0567 21.1709 23.9291 21.1709 25.0048C21.1709 26.0809 20.3257 26.9533 19.2834 26.9533C18.2406 26.9533 17.3955 26.0809 17.3955 25.0048Z" fill="white"/>
<path d="M19.2836 23.4969C18.4781 23.4969 17.8222 24.1739 17.8222 25.0048C17.8222 25.8367 18.4781 26.513 19.2836 26.513C20.0891 26.513 20.7446 25.8367 20.7446 25.0048C20.7446 24.1739 20.0891 23.4969 19.2836 23.4969V23.4969ZM19.2836 27.3936C18.0074 27.3936 16.969 26.3219 16.969 25.0048C16.969 23.6882 18.0074 22.6165 19.2836 22.6165C20.5592 22.6165 21.5976 23.6882 21.5976 25.0048C21.5976 26.3219 20.5592 27.3936 19.2836 27.3936V27.3936Z" fill="black"/>
<path d="M27.0791 25.0048C27.0791 23.929 27.9239 23.0567 28.9666 23.0567C30.0094 23.0567 30.8547 23.9291 30.8547 25.0048C30.8547 26.0809 30.0094 26.9533 28.9666 26.9533C27.9239 26.9533 27.0791 26.0809 27.0791 25.0048Z" fill="white"/>
<path d="M28.9664 23.4969C28.1609 23.4969 27.505 24.1739 27.505 25.0048C27.505 25.8367 28.161 26.513 28.9664 26.513C29.7725 26.513 30.4278 25.8367 30.4278 25.0048C30.4278 24.1739 29.7725 23.4969 28.9664 23.4969V23.4969ZM28.9664 27.3936C27.6902 27.3936 26.6519 26.3219 26.6519 25.0048C26.6519 23.6882 27.6902 22.6165 28.9664 22.6165C30.2426 22.6165 31.281 23.6882 31.281 25.0048C31.281 26.3219 30.2426 27.3936 28.9664 27.3936Z" fill="black"/>
<path d="M41.4268 20.5926C46.5226 11.8925 57.497 8.85972 65.9382 13.8178C74.3791 18.7764 77.0912 29.8485 71.995 38.5485C66.8987 47.2486 55.9248 50.2814 47.4834 45.3232C39.0422 40.3651 36.3305 29.2924 41.4268 20.5926Z" fill="white"/>
<path d="M41.7917 20.8202C39.3625 24.9674 38.6633 29.7809 39.8223 34.3737C40.9577 38.8729 43.7537 42.6253 47.6949 44.9407C50.3707 46.5129 53.3128 47.2593 56.2347 47.2593C62.2977 47.2597 68.2764 44.0457 71.6298 38.3209C74.0591 34.1739 74.7587 29.3604 73.5997 24.768C72.4643 20.2687 69.6684 16.5153 65.7271 14.2003C57.499 9.36617 46.7614 12.3373 41.7917 20.8202V20.8202ZM56.2302 48.1381C53.1652 48.1381 50.0799 47.3548 47.2723 45.7058C43.1296 43.2725 40.1905 39.3263 38.9967 34.5958C37.7789 29.7707 38.5124 24.7169 41.0617 20.3644C46.2682 11.4766 57.5217 8.36788 66.1492 13.4353C70.2925 15.8691 73.231 19.8147 74.4253 24.5458C75.6426 29.3705 74.9092 34.4243 72.3598 38.7768C68.8481 44.7723 62.583 48.1381 56.2302 48.1381V48.1381Z" fill="black"/>
<path d="M71.1334 18.5128C68.8145 19.9434 66.4957 21.3743 64.1885 22.8249C60.711 25.0113 57.337 27.6556 53.9484 29.9877C55.8991 31.9839 62.6113 38.5704 65.1322 41.1965C65.9348 42.0324 66.7368 42.8687 67.5383 43.7056C69.2744 42.3177 70.7981 40.5917 71.9949 38.5486C75.8257 32.0092 75.2437 24.1289 71.1334 18.5128H71.1334Z" fill="white"/>
<path d="M54.6204 30.0525C55.4788 30.9208 56.8521 32.2854 58.4082 33.8317C61.0017 36.4087 63.9408 39.3298 65.4356 40.8868C66.1489 41.6296 66.8613 42.3722 67.5737 43.1156C69.1934 41.7646 70.5568 40.1536 71.63 38.3208C75.1996 32.2282 74.949 24.7265 71.0206 19.0957C68.8448 20.4382 66.6043 21.8216 64.4104 23.2008C62.2572 24.5549 60.1074 26.1113 58.0287 27.6166C56.912 28.4252 55.7613 29.2586 54.6205 30.0524L54.6204 30.0525ZM67.5383 44.1458C67.428 44.1458 67.3182 44.1017 67.2352 44.0147C66.4338 43.1783 65.6322 42.342 64.8296 41.5061C63.3416 39.9567 60.4064 37.0396 57.8168 34.4657C56.0088 32.6695 54.4474 31.1176 53.6483 30.3004C53.5575 30.2068 53.512 30.0767 53.5242 29.9452C53.5364 29.8136 53.6056 29.6942 53.7119 29.6213C54.9861 28.7445 56.2838 27.8043 57.5389 26.8956C59.6289 25.3826 61.7899 23.8181 63.9668 22.4489C66.2753 20.9973 68.634 19.542 70.9146 18.1348C71.102 18.0195 71.3432 18.0686 71.4741 18.2471C75.8305 24.2002 76.1786 32.2585 72.3599 38.7767C71.1677 40.8123 69.6336 42.5878 67.7996 44.0532C67.7226 44.1155 67.6304 44.1457 67.5383 44.1457V44.1458Z" fill="black"/>
<path d="M53.9484 29.9877C56.6493 28.3999 59.3854 26.876 62.1618 25.4334C64.8062 24.059 67.4806 22.7475 70.1823 21.4992C70.9119 21.1618 71.6443 20.8222 72.3807 20.4884C70.9168 17.797 68.7469 15.4679 65.9382 13.8179C63.2634 12.2467 60.334 11.4807 57.4185 11.4402C56.8435 14.2997 56.3262 17.1691 55.7785 20.0334C55.1441 23.3476 54.543 26.6671 53.9484 29.9877L53.9484 29.9877Z" fill="#BEE8FF"/>
<path d="M57.7643 11.8889C57.4152 13.6397 57.0818 15.4178 56.7593 17.1406C56.5729 18.1335 56.3867 19.1267 56.197 20.1184C55.6092 23.1938 55.0527 26.253 54.5345 29.1387C57.0597 27.6702 59.5572 26.2935 61.9703 25.0402C64.6058 23.6704 67.3097 22.3443 70.0081 21.097L70.3561 20.9361C70.8272 20.7185 71.2988 20.5005 71.773 20.2839C70.31 17.766 68.2284 15.6692 65.727 14.2003C63.3125 12.7821 60.5666 11.9862 57.7643 11.8889H57.7643ZM53.9486 30.428C53.8613 30.428 53.775 30.4006 53.7011 30.3465C53.5661 30.2473 53.499 30.0757 53.5289 29.9078C54.0942 26.7509 54.7075 23.3603 55.3601 19.9484C55.5498 18.9572 55.7356 17.9649 55.9214 16.9731C56.267 15.1293 56.6245 13.2229 57.0009 11.3507C57.0421 11.1463 57.2166 11 57.4187 11H57.4241C60.4916 11.0425 63.5087 11.8845 66.1491 13.4353C68.9226 15.0647 71.2062 17.4285 72.7525 20.2727C72.8118 20.381 72.8231 20.5101 72.7853 20.6274C72.7471 20.7453 72.6623 20.841 72.5525 20.8911C71.9342 21.1714 71.3185 21.4563 70.7052 21.7396L70.3571 21.9006C67.6705 23.1423 64.978 24.4629 62.3541 25.8265C59.7003 27.2053 56.9431 28.734 54.1594 30.3702C54.0936 30.4088 54.0211 30.428 53.9486 30.428V30.428Z" fill="black"/>
<path d="M56.5609 31.0902L56.4878 31.0696C56.4207 31.0275 56.3986 30.9375 56.4393 30.8682L57.4625 29.1083C57.5032 29.0391 57.5909 29.0163 57.6571 29.0577C57.7247 29.0993 57.7468 29.1898 57.7061 29.2591L56.683 31.0195C56.6565 31.065 56.6089 31.0902 56.5609 31.0902Z" fill="black"/>
<path d="M57.9911 32.6001L57.9199 32.5809C57.8519 32.5405 57.8282 32.4504 57.8675 32.3805L60.6026 27.4815C60.6418 27.4113 60.7286 27.3874 60.7968 27.4279C60.8648 27.4685 60.8885 27.558 60.8493 27.6283L58.114 32.5272C58.0876 32.5738 58.0399 32.6001 57.9911 32.6001V32.6001Z" fill="black"/>
<path d="M59.6999 34.1312L59.6337 34.1146C59.5641 34.0766 59.5377 33.9881 59.574 33.9168C60.8824 31.3518 62.1645 28.7227 63.3853 26.1023C63.4196 26.0288 63.5044 25.998 63.575 26.0338C63.6461 26.0688 63.6754 26.1563 63.6417 26.2292C62.4194 28.8528 61.1355 31.4855 59.8259 34.0533C59.7999 34.1029 59.7509 34.1312 59.6999 34.1312V34.1312Z" fill="black"/>
<path d="M61.2602 35.9225L61.1985 35.9083C61.1279 35.8729 61.0981 35.7854 61.1318 35.7125L66.1815 24.8363C66.2154 24.763 66.3011 24.7326 66.3711 24.7674C66.4418 24.8024 66.4718 24.8899 66.4379 24.9633L61.3882 35.839C61.3637 35.8917 61.3132 35.9225 61.2602 35.9225V35.9225Z" fill="black"/>
<path d="M63.0554 37.5928L62.997 37.5796C62.9254 37.5468 62.8935 37.4597 62.9258 37.3859L68.9908 23.4783C69.0232 23.4039 69.1085 23.3715 69.1791 23.4044C69.2507 23.4377 69.2825 23.5248 69.2503 23.5986L63.1852 37.5063C63.1617 37.5604 63.1097 37.5928 63.0554 37.5928V37.5928Z" fill="black"/>
<path d="M64.8835 39.4826L64.828 39.471C64.7559 39.4396 64.7217 39.3536 64.7526 39.2786L71.7245 22.186C71.755 22.1121 71.8383 22.0767 71.9109 22.1079C71.9829 22.1394 72.0172 22.2254 71.9869 22.3003L65.0145 39.3925C64.9914 39.4488 64.9389 39.4826 64.8836 39.4826L64.8835 39.4826Z" fill="black"/>
<path d="M66.6663 40.8109L66.6104 40.7987C66.5383 40.7669 66.5051 40.6803 66.5359 40.606L72.6764 25.8113C72.7078 25.7365 72.7912 25.7026 72.8632 25.7344C72.9353 25.7663 72.9687 25.8528 72.9378 25.9272L66.7972 40.7219C66.7741 40.7775 66.7217 40.8109 66.6663 40.8109V40.8109Z" fill="black"/>
<path d="M69.8353 39.1329L69.7779 39.1203C69.7058 39.0874 69.6735 39.0003 69.7054 38.9265C70.8639 36.2442 72.0287 33.5075 73.1676 30.7913C73.1984 30.7163 73.2824 30.682 73.3544 30.7142C73.4265 30.7466 73.4593 30.8331 73.4285 30.9076C72.289 33.6247 71.1242 36.3626 69.9657 39.046C69.9416 39.1006 69.8897 39.1329 69.8353 39.1329V39.1329Z" fill="black"/>
<path d="M55.3438 49.8711C52.7852 49.8711 50.2377 49.3372 47.9183 48.1963C44.7988 46.6413 41.8965 44.3243 40.0938 41.2309C39.8629 40.8225 39.5878 40.4374 39.4124 39.9982L39.3677 39.8935C39.1873 39.5561 39.0383 39.2079 39.1427 38.8148C39.1839 38.6497 39.2662 38.5019 39.376 38.3806H40.4041C41.9367 41.4241 44.2934 43.956 47.2722 45.7058C50.0798 47.3548 53.1651 48.138 56.2302 48.138C57.0406 48.138 57.8496 48.0834 58.6516 47.9751V49.6915C58.4805 49.7324 58.2982 49.742 58.1237 49.7558C57.504 49.8084 56.8822 49.8367 56.2606 49.8483C55.9551 49.8635 55.6498 49.8711 55.3438 49.8711L55.3438 49.8711Z" fill="#DEDEDE"/>
<path d="M58.6516 49.6915V47.9751C58.7835 47.9575 58.9154 47.9382 59.0467 47.9174C59.4532 48.2843 59.5616 48.9998 59.1213 49.4269C58.9908 49.5741 58.8271 49.6495 58.6516 49.6915V49.6915ZM40.4041 38.3806H39.376C39.5751 38.16 39.8629 38.0239 40.1556 38.0239C40.1806 38.0239 40.2055 38.0249 40.2305 38.0269C40.2875 38.1458 40.3447 38.2637 40.4041 38.3806H40.4041Z" fill="black"/>
<path d="M56.2368 47.2592C56.2364 47.2592 56.2354 47.2592 56.2349 47.2592C53.313 47.2592 50.3708 46.5128 47.6951 44.9407C44.7035 43.1834 42.3723 40.5984 40.9255 37.4871C40.927 37.4861 40.9284 37.4851 40.9293 37.4839C40.9245 37.4775 40.9196 37.4709 40.9148 37.4643C40.4608 36.4832 40.094 35.4494 39.8224 34.3737C39.6935 33.8626 39.5876 33.3496 39.5048 32.8345C39.5465 32.8274 39.5891 32.8233 39.6317 32.8233C39.7562 32.8233 39.8809 32.8562 39.993 32.9276C40.1588 33.0277 40.2837 33.1942 40.3347 33.3854C40.5122 33.889 40.474 33.7907 40.5609 33.9983C41.2182 35.4019 41.7153 35.8481 42.6512 37.0509L42.6904 37.0777C43.2788 37.6929 42.9218 37.4364 43.4846 38.0107C44.1582 38.7257 44.9045 39.3627 45.6188 40.0331C46.562 40.9586 49.683 42.8323 50.8983 43.4081C51.4278 43.6231 51.9799 43.7719 52.5343 43.9004C53.2119 44.0609 53.9027 44.1434 54.5861 44.2723L54.5729 44.2713C55.65 44.4206 55.6308 44.4879 56.9575 44.5743C57.0418 44.5759 57.1227 44.5763 57.2001 44.5763C58.2371 44.5763 58.6749 44.4843 59.2842 44.3739C61.837 43.7232 62.6768 43.1945 64.4623 42.3636C64.7476 42.2221 65.0134 42.0864 65.2615 41.9563C65.8056 42.5236 66.3498 43.0908 66.8936 43.658C63.7887 46.0013 60.0294 47.2592 56.2367 47.2592L56.2368 47.2592Z" fill="#DEDEDE"/>
<path d="M56.2303 48.138C53.1653 48.138 50.08 47.3548 47.2723 45.7058C44.2935 43.956 41.9368 41.4241 40.4042 38.3806C40.3449 38.2637 40.2876 38.1458 40.2307 38.0269C40.2954 38.0325 40.3606 38.0446 40.4238 38.0638C40.4931 38.08 40.5553 38.1044 40.6131 38.1332C40.6205 37.8736 40.7402 37.6414 40.9254 37.4871C42.3722 40.5984 44.7033 43.1834 47.695 44.9407C50.3707 46.5128 53.3128 47.2592 56.2347 47.2592C56.2353 47.2592 56.2363 47.2592 56.2367 47.2592C60.0294 47.2592 63.7887 46.0013 66.8936 43.658C67.0073 43.7769 67.1215 43.8958 67.2352 44.0147C67.2642 44.0451 67.2965 44.0705 67.3308 44.0901C66.5965 44.6543 65.7958 45.1244 64.9727 45.5363C63.2547 46.3564 61.4399 47.0066 59.5935 47.4378C58.5311 47.6067 57.4457 47.544 56.373 47.5713C55.3705 47.5451 54.3796 47.3644 53.3794 47.3017C52.5186 47.2304 51.6401 47.2126 50.7782 47.1083C52.3514 47.6012 53.9855 47.8143 55.7984 47.8143C56.6313 47.8143 57.5026 47.7693 58.4228 47.6858C58.4331 47.6858 58.4428 47.6852 58.4531 47.6852C58.6861 47.6852 58.8891 47.7753 59.0468 47.9174C58.9155 47.9382 58.7837 47.9575 58.6517 47.9751C57.8497 48.0834 57.0408 48.138 56.2303 48.138V48.138ZM41.6746 39.9274C41.7952 40.1439 41.9176 40.3595 42.0339 40.5781C42.6158 41.4697 42.6393 41.4763 43.4781 42.4407L43.5997 42.558C43.213 42.0612 42.8491 41.5258 42.5413 40.9723C42.2452 40.6302 41.9593 40.2791 41.6746 39.9274V39.9274ZM40.9147 37.4643C40.6385 37.0913 40.3734 36.7092 40.1253 36.3131C39.7312 35.6831 39.3575 35.0344 39.0904 34.3352C38.9864 34.0321 38.8103 33.7154 38.9017 33.3854C38.9771 33.0899 39.2281 32.8839 39.5047 32.8345C39.5875 33.3495 39.6934 33.8626 39.8223 34.3736C40.0939 35.4493 40.4607 36.4832 40.9147 37.4642V37.4643Z" fill="black"/>
<path d="M67.5735 43.1157C67.0656 42.5858 66.5576 42.056 66.0497 41.5268C67.0171 40.9739 67.6833 40.4799 68.2725 39.8677C68.6687 39.4766 68.5671 39.5981 69.1521 38.9822C69.6055 38.4879 70.033 37.9713 70.2164 37.7415C70.0463 38.1373 69.8757 38.533 69.7055 38.9266C69.6737 39.0004 69.706 39.0875 69.7781 39.1203L69.8355 39.133C69.8898 39.133 69.9418 39.1007 69.9659 39.0461C70.2919 38.2906 70.6185 37.5311 70.9449 36.7686C71.0277 36.6386 71.1273 36.4807 71.2651 36.2687C71.5405 35.8163 71.7803 35.3421 71.9808 34.8493C72.1514 34.4183 72.2725 33.8323 72.8231 33.8323C72.8285 33.8323 72.8334 33.8323 72.8388 33.8323C73.1246 33.8485 73.3178 33.9776 73.4231 34.1618C73.0069 35.5928 72.4093 36.9902 71.6297 38.321C71.3847 38.7395 71.1248 39.1462 70.8498 39.541C70.4066 40.0773 69.9741 40.5474 69.8021 40.7482C69.4486 41.186 68.9897 41.656 68.4505 42.1256C68.4798 42.168 68.5058 42.2136 68.5275 42.2611C68.2201 42.5566 67.9018 42.8416 67.5734 43.1158L67.5735 43.1157Z" fill="#DEDEDE"/>
<path d="M67.3305 44.0902C67.2961 44.0705 67.2639 44.0451 67.2349 44.0147C67.1212 43.8958 67.007 43.7769 66.8933 43.658C66.3495 43.0909 65.8053 42.5236 65.2612 41.9564C65.5456 41.8076 65.8068 41.6649 66.0495 41.5268C66.5574 42.056 67.0653 42.5859 67.5733 43.1157C67.9017 42.8415 68.2199 42.5564 68.5273 42.261C68.6233 42.472 68.6381 42.7245 68.5351 42.9315C68.4401 43.2148 68.1587 43.3666 67.9595 43.5679C67.7566 43.7507 67.5464 43.9248 67.3305 44.0902H67.3305ZM70.8496 39.5408C71.1247 39.1461 71.3845 38.7393 71.6296 38.3208C72.4092 36.99 73.0068 35.5926 73.423 34.1616C73.5657 34.41 73.5505 34.7597 73.3906 35.0684C73.1617 35.6963 72.9034 36.3141 72.5832 36.8985C72.2077 37.5441 71.8301 38.1898 71.4193 38.8112C71.2419 39.0556 71.0448 39.305 70.8497 39.5408L70.8496 39.5408Z" fill="black"/>
<path d="M69.8353 39.1329L69.7779 39.1203C69.7058 39.0874 69.6735 39.0003 69.7054 38.9265C69.8755 38.5329 70.0462 38.1372 70.2163 37.7415C70.278 37.6636 70.3123 37.619 70.3099 37.619C70.3094 37.619 70.3074 37.6205 70.3045 37.6236C70.6345 37.2431 70.7399 37.0897 70.9448 36.7684C70.6183 37.5311 70.2918 38.2905 69.9657 39.046C69.9416 39.1006 69.8897 39.1329 69.8353 39.1329V39.1329Z" fill="black"/>
<path d="M54.5873 44.273L54.5861 44.2723L54.5873 44.273Z" fill="#DEDEDE"/>
</svg>
