<svg width="86" height="86" viewBox="0 0 86 86" fill="none" xmlns="http://www.w3.org/2000/svg">
<path d="M13.3994 72.5874H58.073V57.785H13.3994V72.5874Z" fill="#333436"/>
<path d="M13.7997 72.1747H57.6735V58.1969H13.7997V72.1747V72.1747ZM58.0733 73H13.3998C13.1787 73 13 72.815 13 72.5873V57.7842C13 57.5566 13.1788 57.3716 13.3998 57.3716H58.0733C58.294 57.3716 58.4731 57.5566 58.4731 57.7842V72.5873C58.4731 72.815 58.294 73 58.0733 73Z" fill="white"/>
<path d="M13.3994 33.531H58.073V18.7282H13.3994V33.531Z" fill="#333436"/>
<path d="M13.7997 33.1183H57.6735V19.1412H13.7997V33.1183V33.1183ZM58.0733 33.9437H13.3998C13.1793 33.9437 13 33.7587 13 33.531V18.7283C13 18.5007 13.1793 18.3157 13.3998 18.3157H58.0733C58.294 18.3157 58.4731 18.5007 58.4731 18.7283V33.531C58.4731 33.7587 58.294 33.9437 58.0733 33.9437Z" fill="white"/>
<path d="M13.3994 53.0592H58.073V38.2565H13.3994V53.0592Z" fill="#333436"/>
<path d="M13.7997 52.6465H57.6735V38.6693H13.7997V52.6465V52.6465ZM58.0733 53.4718H13.3998C13.1793 53.4718 13 53.2868 13 53.0592V38.2567C13 38.0289 13.1793 37.8439 13.3998 37.8439H58.0733C58.294 37.8439 58.4731 38.0289 58.4731 38.2567V53.0592C58.4731 53.2868 58.294 53.4718 58.0733 53.4718Z" fill="white"/>
<path d="M18.9961 45.6576C18.9961 44.6491 19.7884 43.8314 20.766 43.8314C21.7431 43.8314 22.5356 44.6492 22.5356 45.6576C22.5356 46.6665 21.7431 47.4844 20.766 47.4844C19.7883 47.4844 18.9961 46.6665 18.9961 45.6576Z" fill="#333436"/>
<path d="M20.7656 44.244C20.0105 44.244 19.3955 44.8783 19.3955 45.6576C19.3955 46.4375 20.0105 47.0717 20.7656 47.0717C21.5208 47.0717 22.1353 46.4375 22.1353 45.6576C22.1353 44.8783 21.5208 44.244 20.7656 44.244ZM20.7656 47.8972C19.5692 47.8972 18.5957 46.8924 18.5957 45.6576C18.5957 44.4234 19.5692 43.4186 20.7656 43.4186C21.9615 43.4186 22.935 44.4234 22.935 45.6576C22.935 46.8924 21.9615 47.8972 20.7656 47.8972V47.8972Z" fill="white"/>
<path d="M18.9961 65.1858C18.9961 64.1773 19.7884 63.3596 20.766 63.3596C21.7431 63.3596 22.5356 64.1774 22.5356 65.1858C22.5356 66.1949 21.7431 67.0126 20.766 67.0126C19.7883 67.0126 18.9961 66.1949 18.9961 65.1858Z" fill="#333436"/>
<path d="M20.7656 63.7722C20.0105 63.7722 19.3955 64.4065 19.3955 65.1858C19.3955 65.9652 20.0105 66.5995 20.7656 66.5995C21.5208 66.5995 22.1353 65.9652 22.1353 65.1858C22.1353 64.4065 21.5208 63.7722 20.7656 63.7722ZM20.7656 67.4254C19.5692 67.4254 18.5957 66.4206 18.5957 65.1858C18.5957 63.9516 19.5692 62.9468 20.7656 62.9468C21.9615 62.9468 22.935 63.9516 22.935 65.1858C22.935 66.4206 21.9615 67.4254 20.7656 67.4254V67.4254Z" fill="white"/>
<path d="M18.9961 65.1858C18.9961 64.1773 19.7884 63.3596 20.766 63.3596C21.7431 63.3596 22.5356 64.1774 22.5356 65.1858C22.5356 66.1949 21.7431 67.0126 20.766 67.0126C19.7883 67.0126 18.9961 66.1949 18.9961 65.1858Z" fill="#333436"/>
<path d="M20.7656 63.7722C20.0105 63.7722 19.3955 64.4065 19.3955 65.1858C19.3955 65.9652 20.0105 66.5995 20.7656 66.5995C21.5208 66.5995 22.1353 65.9652 22.1353 65.1858C22.1353 64.4065 21.5208 63.7722 20.7656 63.7722ZM20.7656 67.4254C19.5692 67.4254 18.5957 66.4206 18.5957 65.1858C18.5957 63.9516 19.5692 62.9468 20.7656 62.9468C21.9615 62.9468 22.935 63.9516 22.935 65.1858C22.935 66.4206 21.9615 67.4254 20.7656 67.4254V67.4254Z" fill="white"/>
<path d="M28.0742 65.1858C28.0742 64.1773 28.8662 63.3596 29.8437 63.3596C30.8214 63.3596 31.6138 64.1774 31.6138 65.1858C31.6138 66.1949 30.8214 67.0126 29.8437 67.0126C28.8662 67.0126 28.0742 66.1949 28.0742 65.1858Z" fill="#333436"/>
<path d="M29.8437 63.7722C29.0886 63.7722 28.4737 64.4065 28.4737 65.1858C28.4737 65.9652 29.0886 66.5995 29.8437 66.5995C30.5994 66.5995 31.2138 65.9652 31.2138 65.1858C31.2138 64.4065 30.5994 63.7722 29.8437 63.7722V63.7722ZM29.8437 67.4254C28.6473 67.4254 27.6738 66.4206 27.6738 65.1858C27.6738 63.9516 28.6473 62.9468 29.8437 62.9468C31.0402 62.9468 32.0136 63.9516 32.0136 65.1858C32.0136 66.4206 31.0402 67.4254 29.8437 67.4254Z" fill="white"/>
<path d="M18.9961 26.1295C18.9961 25.121 19.7884 24.3032 20.766 24.3032C21.7431 24.3032 22.5356 25.121 22.5356 26.1295C22.5356 27.1384 21.7431 27.9562 20.766 27.9562C19.7883 27.9562 18.9961 27.1384 18.9961 26.1295Z" fill="#333436"/>
<path d="M20.7656 24.7158C20.0105 24.7158 19.3955 25.3505 19.3955 26.1294C19.3955 26.9094 20.0105 27.5435 20.7656 27.5435C21.5208 27.5435 22.1353 26.9094 22.1353 26.1294C22.1353 25.3505 21.5208 24.7158 20.7656 24.7158V24.7158ZM20.7656 28.369C19.5692 28.369 18.5957 27.3642 18.5957 26.1294C18.5957 24.8952 19.5692 23.8904 20.7656 23.8904C21.9615 23.8904 22.935 24.8952 22.935 26.1294C22.935 27.3642 21.9615 28.369 20.7656 28.369V28.369Z" fill="white"/>
<path d="M28.0742 26.1295C28.0742 25.121 28.8662 24.3032 29.8437 24.3032C30.8214 24.3032 31.6138 25.121 31.6138 26.1295C31.6138 27.1384 30.8214 27.9562 29.8437 27.9562C28.8662 27.9562 28.0742 27.1384 28.0742 26.1295Z" fill="#333436"/>
<path d="M29.8437 24.7158C29.0886 24.7158 28.4737 25.3505 28.4737 26.1294C28.4737 26.9094 29.0886 27.5435 29.8437 27.5435C30.5994 27.5435 31.2138 26.9094 31.2138 26.1294C31.2138 25.3505 30.5994 24.7158 29.8437 24.7158V24.7158ZM29.8437 28.369C28.6473 28.369 27.6738 27.3642 27.6738 26.1294C27.6738 24.8952 28.6473 23.8904 29.8437 23.8904C31.0402 23.8904 32.0136 24.8952 32.0136 26.1294C32.0136 27.3642 31.0402 28.369 29.8437 28.369Z" fill="white"/>
<path d="M41.5247 21.993C46.302 13.8368 56.5905 10.9935 64.5042 15.6417C72.4175 20.2904 74.9601 30.6705 70.1824 38.8268C65.4046 46.983 55.1166 49.8263 47.2028 45.178C39.2891 40.5298 36.747 30.1492 41.5247 21.993Z" fill="#333436"/>
<path d="M41.8676 22.2065C39.5902 26.0944 38.9347 30.6071 40.0213 34.9128C41.0858 39.1309 43.707 42.6488 47.4019 44.8195C49.9104 46.2934 52.6687 46.9931 55.4079 46.9931C61.092 46.9935 66.6971 43.9804 69.8408 38.6133C72.1183 34.7255 72.7742 30.2128 71.6876 25.9075C70.6232 21.6895 68.002 18.1706 64.3071 16.0003C56.5933 11.4683 46.5267 14.2538 41.8676 22.2065V22.2065ZM55.4038 47.8169C52.5303 47.8169 49.6378 47.0826 47.0057 45.5367C43.1219 43.2555 40.3665 39.5559 39.2473 35.1211C38.1056 30.5975 38.7933 25.8596 41.1832 21.7791C46.0644 13.4468 56.6145 10.5324 64.7028 15.2831C68.5871 17.5648 71.342 21.2638 72.4617 25.6992C73.6028 30.2223 72.9153 34.9603 70.5252 39.0408C67.233 44.6615 61.3595 47.8169 55.4038 47.8169V47.8169Z" fill="white"/>
<path d="M69.3747 20.0433C67.2007 21.3845 65.0268 22.7259 62.8638 24.0859C59.6036 26.1357 56.4405 28.6147 53.2637 30.801C55.0925 32.6725 61.3851 38.8472 63.7485 41.3092C64.5009 42.0928 65.2528 42.8769 66.0043 43.6615C67.6318 42.3603 69.0603 40.7423 70.1823 38.8268C73.7737 32.6961 73.2281 25.3083 69.3746 20.0433H69.3747Z" fill="#333436"/>
<path d="M53.8948 30.8617C54.6995 31.6757 55.987 32.955 57.4458 34.4047C59.8772 36.8207 62.6326 39.5592 64.034 41.0188C64.7028 41.7152 65.3706 42.4115 66.0385 43.1084C67.5569 41.8418 68.8352 40.3314 69.8412 38.6132C73.1877 32.9014 72.9528 25.8686 69.2699 20.5897C67.2302 21.8483 65.1297 23.1452 63.0729 24.4382C61.0543 25.7077 59.0389 27.1668 57.0901 28.578C56.0431 29.3361 54.9644 30.1174 53.8948 30.8616L53.8948 30.8617ZM66.0053 44.0741C65.9019 44.0741 65.799 44.0328 65.7212 43.9512C64.9698 43.1672 64.2183 42.3831 63.4659 41.5994C62.0709 40.1469 59.3192 37.4121 56.8914 34.999C55.1964 33.3151 53.7326 31.8602 52.9834 31.0941C52.8983 31.0063 52.8556 30.8844 52.8671 30.7611C52.8785 30.6377 52.9434 30.5258 53.0431 30.4574C54.2376 29.6355 55.4542 28.754 56.6309 27.9021C58.5902 26.4837 60.6162 25.017 62.657 23.7333C64.8213 22.3724 67.0325 21.0082 69.1706 19.6889C69.3462 19.5808 69.5724 19.6268 69.6952 19.7942C73.7792 25.3752 74.1056 32.9298 70.5256 39.0406C69.4079 40.949 67.9696 42.6136 66.2503 43.9874C66.1781 44.0457 66.0917 44.0741 66.0053 44.0741V44.0741Z" fill="white"/>
<path d="M53.2637 30.801C55.7958 29.3124 58.3609 27.8837 60.9637 26.5313C63.4429 25.2428 65.9502 24.0133 68.483 22.843C69.167 22.5267 69.8536 22.2084 70.544 21.8953C69.1716 19.3722 67.1373 17.1886 64.5041 15.6418C61.9965 14.1688 59.2502 13.4506 56.5169 13.4127C55.9778 16.0934 55.4929 18.7835 54.9794 21.4688C54.3847 24.5759 53.8212 27.6879 53.2637 30.801L53.2637 30.801Z" fill="#BEE8FF"/>
<path d="M56.8416 13.8334C56.5143 15.4747 56.2017 17.1416 55.8994 18.7568C55.7246 19.6876 55.5501 20.6188 55.3722 21.5485C54.8211 24.4317 54.2995 27.2997 53.8136 30.005C56.181 28.6283 58.5224 27.3376 60.7847 26.1627C63.2555 24.8785 65.7903 23.6352 68.3201 22.4659L68.6463 22.3151C69.088 22.1111 69.5302 21.9067 69.9747 21.7037C68.6032 19.3431 66.6516 17.3773 64.3066 16.0003C62.043 14.6707 59.4687 13.9246 56.8415 13.8334H56.8416ZM53.2643 31.2137C53.1825 31.2137 53.1016 31.188 53.0323 31.1374C52.9058 31.0443 52.8428 30.8835 52.8708 30.726C53.4008 27.7664 53.9758 24.5878 54.5876 21.3891C54.7654 20.4599 54.9396 19.5296 55.1138 18.5998C55.4378 16.8713 55.773 15.0839 56.1259 13.3288C56.1645 13.1372 56.3281 13 56.5175 13H56.5226C59.3984 13.0398 62.2269 13.8292 64.7023 15.2831C67.3024 16.8106 69.4433 19.0267 70.893 21.6932C70.9486 21.7947 70.9592 21.9157 70.9238 22.0257C70.8879 22.1363 70.8085 22.2259 70.7055 22.2729C70.1259 22.5356 69.5486 22.8028 68.9736 23.0684L68.6473 23.2193C66.1286 24.3834 63.6044 25.6215 61.1445 26.8998C58.6566 28.1924 56.0717 29.6256 53.462 31.1596C53.4003 31.1957 53.3323 31.2138 53.2643 31.2138V31.2137Z" fill="white"/>
<path d="M55.7132 31.8346L55.6447 31.8152C55.5818 31.7758 55.5611 31.6914 55.5992 31.6265L56.5585 29.9766C56.5967 29.9116 56.6789 29.8902 56.7409 29.9291C56.8044 29.9681 56.8251 30.0529 56.7869 30.1179L55.8278 31.7683C55.8029 31.8109 55.7583 31.8346 55.7132 31.8346Z" fill="white"/>
<path d="M57.0545 33.2501L56.9879 33.2321C56.924 33.1942 56.9019 33.1097 56.9387 33.0442L59.5029 28.4514C59.5396 28.3856 59.621 28.3632 59.6849 28.4011C59.7487 28.4392 59.7709 28.5231 59.7341 28.589L57.1698 33.1818C57.1451 33.2255 57.1004 33.2501 57.0545 33.2501V33.2501Z" fill="white"/>
<path d="M58.6557 34.6855L58.5937 34.6699C58.5284 34.6343 58.5037 34.5513 58.5377 34.4845C59.7643 32.0798 60.9663 29.6151 62.1108 27.1584C62.1429 27.0895 62.2224 27.0606 62.2886 27.0942C62.3553 27.127 62.3828 27.2091 62.3511 27.2774C61.2053 29.737 60.0016 32.2051 58.7739 34.6124C58.7495 34.659 58.7035 34.6855 58.6557 34.6855V34.6855Z" fill="white"/>
<path d="M60.1188 36.3649L60.0609 36.3515C59.9947 36.3183 59.9667 36.2363 59.9984 36.168L64.7324 25.9715C64.7642 25.9028 64.8446 25.8743 64.9103 25.9069C64.9765 25.9397 65.0046 26.0218 64.9728 26.0906L60.2387 36.2866C60.2158 36.3359 60.1684 36.3649 60.1188 36.3649V36.3649Z" fill="white"/>
<path d="M61.8022 37.9307L61.7475 37.9184C61.6804 37.8876 61.6505 37.806 61.6808 37.7368L67.3667 24.6984C67.3971 24.6286 67.477 24.5983 67.5432 24.6292C67.6103 24.6603 67.6402 24.742 67.6099 24.8112L61.9239 37.8497C61.9019 37.9004 61.8532 37.9308 61.8022 37.9308V37.9307Z" fill="white"/>
<path d="M63.5162 39.7024L63.4642 39.6915C63.3966 39.6621 63.3645 39.5815 63.3935 39.5112L69.9297 23.4868C69.9582 23.4176 70.0364 23.3844 70.1044 23.4137C70.1719 23.4431 70.204 23.5238 70.1757 23.594L63.639 39.618C63.6174 39.6707 63.5681 39.7025 63.5163 39.7025L63.5162 39.7024Z" fill="white"/>
<path d="M65.1867 40.9477L65.1344 40.9363C65.0667 40.9065 65.0356 40.8252 65.0645 40.7556L70.8212 26.8856C70.8506 26.8154 70.9288 26.7837 70.9963 26.8135C71.0639 26.8434 71.0952 26.9245 71.0663 26.9942L65.3094 40.8642C65.2878 40.9164 65.2387 40.9477 65.1867 40.9477V40.9477Z" fill="white"/>
<path d="M68.1587 39.3746L68.1049 39.3627C68.0373 39.332 68.007 39.2503 68.0369 39.1811C69.123 36.6665 70.215 34.1007 71.2827 31.5543C71.3116 31.484 71.3903 31.4519 71.4578 31.4821C71.5254 31.5125 71.5562 31.5936 71.5273 31.6633C70.459 34.2107 69.367 36.7775 68.2809 39.2931C68.2584 39.3443 68.2097 39.3746 68.1587 39.3746V39.3746Z" fill="white"/>
<path d="M57.6734 49.2733V47.6642C57.7971 47.6476 57.9207 47.6296 58.0438 47.6101C58.4249 47.9541 58.5265 48.6248 58.1138 49.0252C57.9915 49.1632 57.838 49.2339 57.6734 49.2733V49.2733ZM40.5664 38.6693H39.6025C39.7892 38.4625 40.0591 38.3349 40.3334 38.3349C40.3569 38.3349 40.3802 38.3359 40.4037 38.3378C40.4571 38.4492 40.5107 38.5597 40.5664 38.6693H40.5664Z" fill="white"/>
<path d="M55.4032 47.8169C52.5298 47.8169 49.6373 47.0826 47.0052 45.5367C44.2125 43.8963 42.0031 41.5226 40.5663 38.6693C40.5107 38.5597 40.457 38.4492 40.4036 38.3378C40.4643 38.343 40.5254 38.3543 40.5847 38.3723C40.6496 38.3875 40.7079 38.4104 40.7621 38.4374C40.7691 38.194 40.8812 37.9763 41.0549 37.8316C42.4113 40.7485 44.5967 43.1719 47.4014 44.8194C49.9099 46.2933 52.6681 46.993 55.4074 46.993C55.4079 46.993 55.4088 46.993 55.4092 46.993C58.9649 46.993 62.4892 45.8138 65.4001 43.6169C65.5066 43.7284 65.6137 43.8398 65.7203 43.9513C65.7475 43.9798 65.7778 44.0036 65.8099 44.022C65.1215 44.551 64.3709 44.9916 63.5992 45.3778C61.9886 46.1467 60.2872 46.7562 58.5563 47.1604C57.5602 47.3188 56.5427 47.2601 55.537 47.2856C54.5971 47.261 53.6682 47.0916 52.7305 47.0328C51.9236 46.966 51.0999 46.9493 50.2919 46.8516C51.7668 47.3136 53.2987 47.5134 54.9983 47.5134C55.7792 47.5134 56.596 47.4712 57.4587 47.3929C57.4684 47.3929 57.4775 47.3924 57.4871 47.3924C57.7055 47.3924 57.8959 47.4768 58.0437 47.6101C57.9206 47.6296 57.797 47.6476 57.6733 47.6642C56.9214 47.7657 56.1631 47.8169 55.4032 47.8169V47.8169ZM41.7572 40.1194C41.8703 40.3225 41.9851 40.5246 42.0941 40.7295C42.6396 41.5653 42.6617 41.5715 43.4481 42.4757L43.5621 42.5857C43.1995 42.1199 42.8584 41.6179 42.5698 41.099C42.2922 40.7783 42.0242 40.4491 41.7572 40.1194V40.1194ZM41.0448 37.8103C40.786 37.4606 40.5374 37.1024 40.3048 36.731C39.9353 36.1404 39.585 35.5322 39.3346 34.8767C39.2371 34.5926 39.072 34.2957 39.1576 33.9863C39.2284 33.7093 39.4637 33.5162 39.7229 33.4698C39.8006 33.9527 39.8999 34.4337 40.0208 34.9128C40.2754 35.9213 40.6192 36.8905 41.0448 37.8102V37.8103Z" fill="white"/>
<path d="M65.81 44.022C65.7778 44.0036 65.7476 43.9798 65.7204 43.9513C65.6138 43.8399 65.5067 43.7284 65.4002 43.6169C64.8903 43.0853 64.3802 42.5534 63.8701 42.0216C64.1367 41.8822 64.3816 41.7484 64.6091 41.6189C65.0853 42.115 65.5615 42.6118 66.0377 43.1085C66.3455 42.8514 66.6439 42.5842 66.9321 42.3072C67.0221 42.505 67.0359 42.7418 66.9394 42.9358C66.8503 43.2014 66.5865 43.3437 66.3997 43.5324C66.2095 43.7038 66.0124 43.867 65.8101 44.022H65.81ZM69.1092 39.757C69.3671 39.387 69.6107 39.0056 69.8404 38.6133C70.5713 37.3657 71.1316 36.0556 71.5218 34.714C71.6556 34.9469 71.6413 35.2748 71.4914 35.5641C71.2768 36.1528 71.0346 36.732 70.7345 37.2799C70.3824 37.8851 70.0284 38.4905 69.6433 39.073C69.477 39.3021 69.2922 39.5359 69.1093 39.757L69.1092 39.757Z" fill="white"/>
<path d="M68.1587 39.3746L68.1049 39.3627C68.0373 39.3319 68.007 39.2503 68.0369 39.1811C68.1964 38.8121 68.3564 38.4411 68.5158 38.0701C68.5737 37.9971 68.6058 37.9553 68.6037 37.9553C68.6031 37.9553 68.6013 37.9567 68.5986 37.9596C68.9079 37.6029 69.0068 37.4591 69.1988 37.1579C68.8928 37.8729 68.5866 38.5848 68.2809 39.2931C68.2584 39.3443 68.2097 39.3745 68.1587 39.3745V39.3746Z" fill="white"/>
<path d="M53.8625 44.1934L53.8613 44.1927L53.8625 44.1934Z" fill="#DEDEDE"/>
</svg>
