<svg width="86" height="86" viewBox="0 0 86 86" fill="none" xmlns="http://www.w3.org/2000/svg">
<path d="M11.4268 73.56H59.0786V57.7708H11.4268V73.56Z" fill="white"/>
<path d="M11.853 73.1198H58.6517V58.2102H11.853V73.1198ZM59.0782 74.0001H11.4265C11.1906 74.0001 11 73.8028 11 73.5599V57.77C11 57.5272 11.1907 57.3298 11.4265 57.3298H59.0782C59.3136 57.3298 59.5047 57.5272 59.5047 57.77V73.5599C59.5047 73.8028 59.3136 74.0001 59.0782 74.0001Z" fill="black"/>
<path d="M11.4268 31.8998H59.0786V16.1101H11.4268V31.8998Z" fill="white"/>
<path d="M11.853 31.4594H58.6517V16.5505H11.853V31.4594ZM59.0782 32.3398H11.4265C11.1912 32.3398 11 32.1425 11 31.8996V16.1101C11 15.8673 11.1912 15.6699 11.4265 15.6699H59.0782C59.3136 15.6699 59.5047 15.8673 59.5047 16.1101V31.8996C59.5047 32.1425 59.3136 32.3398 59.0782 32.3398Z" fill="black"/>
<path d="M11.4268 52.7297H59.0786V36.9402H11.4268V52.7297Z" fill="white"/>
<path d="M11.853 52.2897H58.6517V37.3807H11.853V52.2897ZM59.0782 53.1701H11.4265C11.1912 53.1701 11 52.9727 11 52.7299V36.9406C11 36.6976 11.1912 36.5002 11.4265 36.5002H59.0782C59.3136 36.5002 59.5047 36.6976 59.5047 36.9406V52.7299C59.5047 52.9727 59.3136 53.1701 59.0782 53.1701Z" fill="black"/>
<path d="M17.3955 44.8348C17.3955 43.759 18.2406 42.8867 19.2834 42.8867C20.3257 42.8867 21.1709 43.7591 21.1709 44.8348C21.1709 45.9109 20.3257 46.7833 19.2834 46.7833C18.2406 46.7833 17.3955 45.9109 17.3955 44.8348Z" fill="white"/>
<path d="M19.2833 43.3269C18.4778 43.3269 17.8219 44.0035 17.8219 44.8348C17.8219 45.6667 18.4779 46.3431 19.2833 46.3431C20.0888 46.3431 20.7444 45.6667 20.7444 44.8348C20.7444 44.0035 20.0888 43.3269 19.2833 43.3269ZM19.2833 47.2236C18.0072 47.2236 16.9688 46.1519 16.9688 44.8348C16.9688 43.5182 18.0071 42.4465 19.2833 42.4465C20.559 42.4465 21.5973 43.5182 21.5973 44.8348C21.5973 46.1519 20.559 47.2236 19.2833 47.2236Z" fill="black"/>
<path d="M17.3955 65.6648C17.3955 64.5891 18.2406 63.7168 19.2834 63.7168C20.3257 63.7168 21.1709 64.5891 21.1709 65.6648C21.1709 66.7411 20.3257 67.6134 19.2834 67.6134C18.2406 67.6134 17.3955 66.7411 17.3955 65.6648Z" fill="white"/>
<path d="M19.2833 64.157C18.4778 64.157 17.8219 64.8336 17.8219 65.6649C17.8219 66.4962 18.4779 67.1727 19.2833 67.1727C20.0888 67.1727 20.7444 66.4962 20.7444 65.6649C20.7444 64.8335 20.0888 64.157 19.2833 64.157ZM19.2833 68.0537C18.0072 68.0537 16.9688 66.982 16.9688 65.6649C16.9688 64.3483 18.0071 63.2766 19.2833 63.2766C20.559 63.2766 21.5973 64.3483 21.5973 65.6649C21.5973 66.982 20.559 68.0537 19.2833 68.0537Z" fill="black"/>
<path d="M17.3955 65.6648C17.3955 64.5891 18.2406 63.7168 19.2834 63.7168C20.3257 63.7168 21.1709 64.5891 21.1709 65.6648C21.1709 66.7411 20.3257 67.6134 19.2834 67.6134C18.2406 67.6134 17.3955 66.7411 17.3955 65.6648Z" fill="white"/>
<path d="M19.2833 64.157C18.4778 64.157 17.8219 64.8336 17.8219 65.6649C17.8219 66.4962 18.4779 67.1727 19.2833 67.1727C20.0888 67.1727 20.7444 66.4962 20.7444 65.6649C20.7444 64.8335 20.0888 64.157 19.2833 64.157ZM19.2833 68.0537C18.0072 68.0537 16.9688 66.982 16.9688 65.6649C16.9688 64.3483 18.0071 63.2766 19.2833 63.2766C20.559 63.2766 21.5973 64.3483 21.5973 65.6649C21.5973 66.982 20.559 68.0537 19.2833 68.0537Z" fill="black"/>
<path d="M27.0791 65.6648C27.0791 64.5891 27.9239 63.7168 28.9666 63.7168C30.0094 63.7168 30.8547 64.5891 30.8547 65.6648C30.8547 66.7411 30.0094 67.6134 28.9666 67.6134C27.9239 67.6134 27.0791 66.7411 27.0791 65.6648Z" fill="white"/>
<path d="M28.9669 64.157C28.1614 64.157 27.5055 64.8336 27.5055 65.6649C27.5055 66.4962 28.1615 67.1727 28.9669 67.1727C29.773 67.1727 30.4283 66.4962 30.4283 65.6649C30.4283 64.8335 29.773 64.157 28.9669 64.157ZM28.9669 68.0537C27.6907 68.0537 26.6523 66.982 26.6523 65.6649C26.6523 64.3483 27.6907 63.2766 28.9669 63.2766C30.2431 63.2766 31.2815 64.3483 31.2815 65.6649C31.2815 66.982 30.2431 68.0537 28.9669 68.0537Z" fill="black"/>
<path d="M17.3955 24.0047C17.3955 22.9289 18.2406 22.0566 19.2834 22.0566C20.3257 22.0566 21.1709 22.929 21.1709 24.0047C21.1709 25.0808 20.3257 25.9532 19.2834 25.9532C18.2406 25.9532 17.3955 25.0808 17.3955 24.0047Z" fill="white"/>
<path d="M19.2833 22.4968C18.4778 22.4968 17.8219 23.1738 17.8219 24.0047C17.8219 24.8366 18.4779 25.513 19.2833 25.513C20.0888 25.513 20.7444 24.8366 20.7444 24.0047C20.7444 23.1738 20.0888 22.4968 19.2833 22.4968ZM19.2833 26.3935C18.0072 26.3935 16.9688 25.3218 16.9688 24.0047C16.9688 22.6882 18.0071 21.6165 19.2833 21.6165C20.559 21.6165 21.5973 22.6882 21.5973 24.0047C21.5973 25.3218 20.559 26.3935 19.2833 26.3935Z" fill="black"/>
<path d="M27.0791 24.0047C27.0791 22.9289 27.9239 22.0566 28.9666 22.0566C30.0094 22.0566 30.8547 22.929 30.8547 24.0047C30.8547 25.0808 30.0094 25.9532 28.9666 25.9532C27.9239 25.9532 27.0791 25.0808 27.0791 24.0047Z" fill="white"/>
<path d="M28.9669 22.4968C28.1614 22.4968 27.5055 23.1738 27.5055 24.0047C27.5055 24.8366 28.1615 25.513 28.9669 25.513C29.773 25.513 30.4283 24.8366 30.4283 24.0047C30.4283 23.1738 29.773 22.4968 28.9669 22.4968ZM28.9669 26.3935C27.6907 26.3935 26.6523 25.3218 26.6523 24.0047C26.6523 22.6882 27.6907 21.6165 28.9669 21.6165C30.2431 21.6165 31.2815 22.6882 31.2815 24.0047C31.2815 25.3218 30.2431 26.3935 28.9669 26.3935Z" fill="black"/>
<path d="M41.4266 19.5926C46.5224 10.8926 57.4969 7.85976 65.9381 12.8178C74.3789 17.7765 77.0911 28.8486 71.9949 37.5486C66.8985 46.2486 55.9247 49.2814 47.4833 44.3232C39.042 39.3651 36.3304 28.2925 41.4266 19.5926Z" fill="white"/>
<path d="M41.7921 19.8203C39.3629 23.9675 38.6637 28.781 39.8227 33.3738C40.9581 37.873 43.754 41.6254 47.6953 43.9408C50.371 45.513 53.3132 46.2594 56.2351 46.2594C62.2981 46.2598 68.2768 43.0458 71.6302 37.321C74.0595 33.174 74.7591 28.3605 73.6001 23.7681C72.4647 19.2688 69.6687 15.5154 65.7275 13.2004C57.4994 8.36626 46.7618 11.3374 41.7921 19.8203ZM56.2306 47.1382C53.1656 47.1382 50.0803 46.3549 47.2727 44.7059C43.1299 42.2726 40.1908 38.3264 38.9971 33.5959C37.7793 28.7708 38.5128 23.717 41.062 19.3645C46.2686 10.4767 57.5221 7.36798 66.1496 12.4354C70.2928 14.8692 73.2314 18.8148 74.4257 23.5459C75.643 28.3706 74.9096 33.4244 72.3602 37.7769C68.8485 43.7724 62.5834 47.1382 56.2306 47.1382Z" fill="black"/>
<path d="M71.1333 17.5129C68.8144 18.9435 66.4956 20.3744 64.1883 21.825C60.7109 24.0114 57.3369 26.6557 53.9482 28.9878C55.899 30.984 62.6111 37.5705 65.1321 40.1966C65.9347 41.0325 66.7366 41.8688 67.5382 42.7057C69.2742 41.3178 70.7979 39.5918 71.9947 37.5487C75.8256 31.0093 75.2436 23.129 71.1333 17.5129H71.1333Z" fill="white"/>
<path d="M54.6206 29.0524C55.4791 29.9208 56.8523 31.2854 58.4084 32.8317C61.0019 35.4087 63.941 38.3298 65.4358 39.8867C66.1491 40.6296 66.8615 41.3722 67.5739 42.1156C69.1936 40.7645 70.5571 39.1535 71.6302 37.3207C75.1998 31.2281 74.9492 23.7264 71.0208 18.0956C68.8451 19.4382 66.6046 20.8215 64.4107 22.2008C62.2574 23.5549 60.1077 25.1112 58.029 26.6165C56.9122 27.4252 55.7615 28.2585 54.6207 29.0524L54.6206 29.0524ZM67.5386 43.1457C67.4282 43.1457 67.3184 43.1017 67.2355 43.0146C66.434 42.1783 65.6324 41.342 64.8299 40.506C63.3419 38.9567 60.4067 36.0396 57.8171 33.4656C56.0091 31.6694 54.4476 30.1175 53.6485 29.3004C53.5578 29.2067 53.5122 29.0766 53.5244 28.9451C53.5366 28.8136 53.6058 28.6941 53.7121 28.6212C54.9864 27.7445 56.2841 26.8043 57.5391 25.8955C59.6291 24.3826 61.7901 22.8181 63.967 21.4489C66.2756 19.9973 68.6342 18.542 70.9149 17.1348C71.1022 17.0195 71.3435 17.0685 71.4744 17.2471C75.8307 23.2002 76.1788 31.2585 72.3602 37.7767C71.1679 39.8122 69.6338 41.5878 67.7998 43.0532C67.7228 43.1154 67.6307 43.1457 67.5386 43.1457V43.1457Z" fill="black"/>
<path d="M53.9483 28.9876C56.6492 27.3999 59.3853 25.8759 62.1616 24.4333C64.8061 23.059 67.4805 21.7474 70.1822 20.4992C70.9118 20.1617 71.6442 19.8222 72.3806 19.4883C70.9167 16.797 68.7468 14.4678 65.938 12.8178C63.2632 11.2467 60.3339 10.4806 57.4184 10.4402C56.8433 13.2996 56.3261 16.169 55.7784 19.0334C55.144 22.3476 54.5429 25.667 53.9482 28.9877L53.9483 28.9876Z" fill="#BEE8FF"/>
<path d="M57.7639 10.8889C57.4149 12.6397 57.0815 14.4178 56.7589 16.1406C56.5726 17.1335 56.3863 18.1267 56.1966 19.1184C55.6088 22.1938 55.0524 25.253 54.5341 28.1387C57.0594 26.6702 59.5568 25.2935 61.9699 24.0402C64.6055 22.6704 67.3093 21.3443 70.0077 20.097L70.3557 19.9361C70.8268 19.7185 71.2985 19.5005 71.7726 19.2839C70.3097 16.766 68.228 14.6692 65.7267 13.2003C63.3122 11.7821 60.5662 10.9862 57.7639 10.8889H57.7639ZM53.9482 29.428C53.8609 29.428 53.7746 29.4006 53.7007 29.3465C53.5658 29.2473 53.4986 29.0757 53.5285 28.9078C54.0938 25.7509 54.7071 22.3603 55.3597 18.9484C55.5494 17.9572 55.7352 16.9649 55.921 15.9731C56.2666 14.1293 56.6241 12.2229 57.0006 10.3507C57.0417 10.1463 57.2162 10 57.4183 10H57.4237C60.4912 10.0425 63.5083 10.8845 66.1488 12.4353C68.9222 14.0647 71.2058 16.4285 72.7521 19.2727C72.8115 19.381 72.8228 19.5101 72.7849 19.6274C72.7467 19.7453 72.662 19.841 72.5521 19.8911C71.9339 20.1714 71.3181 20.4563 70.7048 20.7396L70.3567 20.9006C67.6701 22.1423 64.9777 23.4629 62.3538 24.8265C59.7 26.2053 56.9427 27.734 54.159 29.3702C54.0933 29.4088 54.0207 29.428 53.9482 29.428V29.428Z" fill="black"/>
<path d="M56.561 30.0903L56.4879 30.0697C56.4208 30.0277 56.3987 29.9376 56.4394 29.8683L57.4626 28.1084C57.5034 28.0392 57.591 28.0164 57.6572 28.0578C57.7248 28.0994 57.747 28.1899 57.7063 28.2592L56.6831 30.0196C56.6566 30.0651 56.6091 30.0903 56.561 30.0903Z" fill="black"/>
<path d="M57.9912 31.6001L57.9201 31.5809C57.852 31.5405 57.8283 31.4504 57.8677 31.3805L60.6027 26.4815C60.6419 26.4113 60.7288 26.3874 60.7969 26.4279C60.865 26.4685 60.8886 26.558 60.8494 26.6283L58.1142 31.5272C58.0877 31.5738 58.0401 31.6001 57.9912 31.6001Z" fill="black"/>
<path d="M59.6998 33.1311L59.6336 33.1145C59.564 33.0765 59.5376 32.988 59.5739 32.9167C60.8823 30.3517 62.1644 27.7227 63.3852 25.1022C63.4195 25.0288 63.5043 24.9979 63.5748 25.0337C63.646 25.0687 63.6753 25.1563 63.6416 25.2291C62.4193 27.8527 61.1353 30.4854 59.8258 33.0532C59.7998 33.1029 59.7508 33.1311 59.6998 33.1311V33.1311Z" fill="black"/>
<path d="M61.2605 34.9224L61.1988 34.9082C61.1282 34.8728 61.0983 34.7853 61.1321 34.7125L66.1817 23.8362C66.2156 23.7629 66.3014 23.7325 66.3714 23.7673C66.442 23.8023 66.472 23.8898 66.4381 23.9633L61.3885 34.839C61.364 34.8916 61.3134 34.9224 61.2605 34.9224Z" fill="black"/>
<path d="M63.0553 36.5928L62.9969 36.5797C62.9253 36.5468 62.8934 36.4597 62.9257 36.3859L68.9907 22.4784C69.0231 22.4039 69.1084 22.3715 69.179 22.4045C69.2505 22.4377 69.2824 22.5248 69.2501 22.5987L63.185 36.5064C63.1616 36.5605 63.1096 36.5929 63.0553 36.5929V36.5928Z" fill="black"/>
<path d="M64.8835 38.4825L64.828 38.4709C64.7559 38.4394 64.7217 38.3535 64.7526 38.2785L71.7245 21.1858C71.755 21.112 71.8383 21.0765 71.9109 21.1078C71.9829 21.1392 72.0172 21.2253 71.9869 21.3002L65.0145 38.3924C64.9914 38.4487 64.9389 38.4825 64.8836 38.4825L64.8835 38.4825Z" fill="black"/>
<path d="M66.6663 39.8109L66.6104 39.7987C66.5383 39.7668 66.5051 39.6802 66.5359 39.6059L72.6764 24.8113C72.7078 24.7364 72.7912 24.7025 72.8632 24.7344C72.9353 24.7662 72.9687 24.8527 72.9378 24.9271L66.7972 39.7218C66.7741 39.7774 66.7217 39.8109 66.6663 39.8109Z" fill="black"/>
<path d="M69.8356 38.1329L69.7782 38.1203C69.706 38.0875 69.6738 38.0004 69.7056 37.9265C70.8641 35.2443 72.0289 32.5075 73.1678 29.7913C73.1987 29.7163 73.2826 29.682 73.3546 29.7143C73.4267 29.7467 73.4595 29.8332 73.4287 29.9076C72.2893 32.6248 71.1244 35.3627 69.9659 38.046C69.9419 38.1006 69.8899 38.1329 69.8356 38.1329V38.1329Z" fill="black"/>
<path d="M55.344 48.8711C52.7854 48.8711 50.238 48.3372 47.9185 47.1963C44.7991 45.6413 41.8968 43.3243 40.094 40.2309C39.8632 39.8225 39.588 39.4374 39.4126 38.9982L39.3679 38.8935C39.1875 38.5561 39.0386 38.2079 39.1429 37.8148C39.1842 37.6497 39.2664 37.5019 39.3762 37.3806H40.4044C41.9369 40.4241 44.2936 42.956 47.2725 44.7058C50.0801 46.3548 53.1654 47.138 56.2304 47.138C57.0409 47.138 57.8498 47.0834 58.6519 46.9751V48.6915C58.4808 48.7324 58.2985 48.742 58.1239 48.7558C57.5042 48.8084 56.8825 48.8367 56.2608 48.8483C55.9554 48.8635 55.6501 48.8711 55.3441 48.8711L55.344 48.8711Z" fill="#DEDEDE"/>
<path d="M58.6516 48.6915V46.9751C58.7835 46.9575 58.9154 46.9382 59.0467 46.9174C59.4532 47.2843 59.5616 47.9998 59.1213 48.4269C58.9908 48.5741 58.8271 48.6495 58.6516 48.6915ZM40.4041 37.3806H39.376C39.5751 37.16 39.8629 37.0239 40.1556 37.0239C40.1806 37.0239 40.2055 37.0249 40.2305 37.0269C40.2875 37.1458 40.3447 37.2637 40.4041 37.3806H40.4041Z" fill="black"/>
<path d="M56.2369 46.2591C56.2365 46.2591 56.2356 46.2591 56.235 46.2591C53.3131 46.2591 50.3709 45.5127 47.6952 43.9406C44.7036 42.1833 42.3724 39.5983 40.9256 36.487C40.9271 36.486 40.9285 36.485 40.9295 36.4838C40.9246 36.4774 40.9198 36.4708 40.9149 36.4642C40.4609 35.4831 40.0941 34.4493 39.8226 33.3736C39.6936 32.8625 39.5877 32.3495 39.5049 31.8344C39.5466 31.8273 39.5892 31.8232 39.6318 31.8232C39.7563 31.8232 39.881 31.8561 39.9931 31.9275C40.1589 32.0276 40.2838 32.1941 40.3348 32.3853C40.5123 32.8889 40.4741 32.7906 40.561 32.9982C41.2183 34.4018 41.7154 34.848 42.6514 36.0508L42.6906 36.0776C43.2789 36.6928 42.9219 36.4363 43.4848 37.0106C44.1583 37.7256 44.9046 38.3626 45.6189 39.033C46.5621 39.9585 49.6831 41.8322 50.8984 42.408C51.4279 42.623 51.9801 42.7718 52.5344 42.9003C53.2121 43.0608 53.9029 43.1433 54.5862 43.2722L54.573 43.2712C55.6501 43.4205 55.631 43.4878 56.9576 43.5742C57.0419 43.5758 57.1228 43.5763 57.2002 43.5763C58.2372 43.5763 58.675 43.4842 59.2844 43.3738C61.8371 42.7231 62.6769 42.1944 64.4624 41.3635C64.7477 41.222 65.0136 41.0863 65.2617 40.9562C65.8058 41.5235 66.3499 42.0907 66.8937 42.6579C63.7888 45.0012 60.0295 46.2591 56.2368 46.2591L56.2369 46.2591Z" fill="#DEDEDE"/>
<path d="M56.23 47.1381C53.165 47.1381 50.0797 46.3548 47.2721 44.7058C44.2932 42.9561 41.9366 40.4241 40.404 37.3806C40.3447 37.2637 40.2874 37.1458 40.2304 37.0269C40.2952 37.0325 40.3604 37.0446 40.4236 37.0638C40.4928 37.08 40.5551 37.1044 40.6129 37.1332C40.6203 36.8736 40.7399 36.6414 40.9251 36.4871C42.372 39.5984 44.7031 42.1834 47.6947 43.9407C50.3705 45.5129 53.3126 46.2592 56.2345 46.2592C56.2351 46.2592 56.236 46.2592 56.2365 46.2592C60.0292 46.2592 63.7884 45.0013 66.8933 42.658C67.007 42.7769 67.1213 42.8958 67.2349 43.0147C67.264 43.0451 67.2962 43.0705 67.3305 43.0901C66.5962 43.6544 65.7956 44.1244 64.9725 44.5363C63.2545 45.3564 61.4397 46.0066 59.5933 46.4378C58.5308 46.6067 57.4455 46.5441 56.3727 46.5713C55.3702 46.5451 54.3793 46.3644 53.3792 46.3017C52.5184 46.2304 51.6398 46.2126 50.7779 46.1084C52.3512 46.6012 53.9852 46.8143 55.7981 46.8143C56.6311 46.8143 57.5023 46.7693 58.4226 46.6858C58.4329 46.6858 58.4426 46.6852 58.4529 46.6852C58.6858 46.6852 58.8888 46.7753 59.0466 46.9175C58.9153 46.9382 58.7834 46.9575 58.6515 46.9751C57.8495 47.0834 57.0406 47.1381 56.23 47.1381ZM41.6743 38.9274C41.7949 39.144 41.9174 39.3595 42.0337 39.5781C42.6155 40.4697 42.6391 40.4763 43.4779 41.4407L43.5995 41.558C43.2127 41.0612 42.8489 40.5258 42.541 39.9723C42.2449 39.6302 41.959 39.2791 41.6743 38.9274ZM40.9144 36.4643C40.6383 36.0913 40.3731 35.7093 40.1251 35.3131C39.7309 34.6831 39.3572 34.0344 39.0901 33.3352C38.9862 33.0322 38.8101 32.7154 38.9014 32.3854C38.9769 32.0899 39.2279 31.8839 39.5044 31.8345C39.5873 32.3495 39.6931 32.8626 39.8221 33.3736C40.0937 34.4494 40.4604 35.4832 40.9144 36.4642V36.4643Z" fill="black"/>
<path d="M67.5736 42.1157C67.0657 41.5858 66.5578 41.056 66.0498 40.5268C67.0172 39.9739 67.6834 39.4799 68.2726 38.8677C68.6688 38.4766 68.5673 38.5981 69.1522 37.9822C69.6056 37.4879 70.0331 36.9713 70.2165 36.7415C70.0464 37.1373 69.8758 37.533 69.7057 37.9266C69.6739 38.0004 69.7061 38.0875 69.7782 38.1203L69.8356 38.133C69.89 38.133 69.9419 38.1007 69.966 38.0461C70.292 37.2906 70.6186 36.5311 70.945 35.7685C71.0279 35.6386 71.1274 35.4807 71.2652 35.2687C71.5407 34.8163 71.7804 34.3421 71.9809 33.8493C72.1515 33.4183 72.2726 32.8323 72.8232 32.8323C72.8286 32.8323 72.8335 32.8323 72.8389 32.8323C73.1248 32.8485 73.3179 32.9775 73.4233 33.1617C73.007 34.5928 72.4094 35.9902 71.6298 37.3209C71.3848 37.7395 71.125 38.1462 70.8499 38.541C70.4067 39.0773 69.9742 39.5474 69.8022 39.7482C69.4487 40.186 68.9898 40.656 68.4506 41.1256C68.4799 41.168 68.5059 41.2136 68.5276 41.2611C68.2202 41.5566 67.9019 41.8415 67.5735 42.1158L67.5736 42.1157Z" fill="#DEDEDE"/>
<path d="M67.331 43.0902C67.2966 43.0705 67.2644 43.0451 67.2354 43.0147C67.1217 42.8959 67.0074 42.7769 66.8938 42.658C66.3499 42.0909 65.8058 41.5237 65.2617 40.9564C65.546 40.8076 65.8073 40.6649 66.0499 40.5268C66.5579 41.056 67.0658 41.5859 67.5738 42.1157C67.9022 41.8415 68.2204 41.5564 68.5278 41.261C68.6238 41.472 68.6386 41.7246 68.5356 41.9315C68.4406 42.2148 68.1591 42.3666 67.96 42.5679C67.7571 42.7507 67.5468 42.9248 67.331 43.0902H67.331ZM70.8501 38.5408C71.1252 38.1461 71.385 37.7394 71.6301 37.3208C72.4097 35.9901 73.0073 34.5926 73.4235 33.1616C73.5662 33.4101 73.5509 33.7598 73.3911 34.0684C73.1622 34.6963 72.9039 35.3141 72.5837 35.8985C72.2082 36.5441 71.8306 37.1898 71.4198 37.8112C71.2423 38.0556 71.0453 38.305 70.8502 38.5408L70.8501 38.5408Z" fill="black"/>
<path d="M69.8356 38.133L69.7782 38.1204C69.706 38.0875 69.6738 38.0005 69.7056 37.9266C69.8757 37.5331 70.0464 37.1373 70.2165 36.7416C70.2782 36.6637 70.3125 36.6191 70.3102 36.6191C70.3096 36.6191 70.3077 36.6206 70.3048 36.6237C70.6347 36.2432 70.7402 36.0898 70.945 35.7686C70.6186 36.5312 70.292 37.2906 69.9659 38.0461C69.9419 38.1007 69.8899 38.133 69.8356 38.133V38.133Z" fill="black"/>
<path d="M54.5871 43.2729L54.5859 43.2722L54.5871 43.2729Z" fill="#DEDEDE"/>
</svg>
