<svg width="86" height="86" viewBox="0 0 86 86" fill="none" xmlns="http://www.w3.org/2000/svg">
<g clip-path="url(#clip0_886_17692)">
<path d="M42.3525 70.6218H62.6835V55.7209H42.3525V70.6218Z" fill="#BEE8FF"/>
<path d="M42.7397 70.2345H62.2961V56.1082H42.7397V70.2345ZM62.6834 71.0092H42.3524C42.1383 71.0092 41.9651 70.8356 41.9651 70.6219V55.7209C41.9651 55.5072 42.1383 55.3336 42.3524 55.3336H62.6834C62.897 55.3336 63.0707 55.5072 63.0707 55.7209V70.6219C63.0707 70.8356 62.897 71.0092 62.6834 71.0092Z" fill="black"/>
<path d="M23.3702 33.3699H43.7011V18.4696H23.3702V33.3699Z" fill="white"/>
<path d="M23.7572 32.9826H43.3139V18.8569H23.7572V32.9826V32.9826ZM43.7012 33.7573H23.3704C23.1562 33.7573 22.9829 33.5838 22.9829 33.37V18.4696C22.9829 18.2554 23.1562 18.0822 23.3704 18.0822H43.7012C43.9149 18.0822 44.0886 18.2554 44.0886 18.4696V33.37C44.0886 33.5838 43.9149 33.7573 43.7012 33.7573Z" fill="black"/>
<path d="M4.38745 70.6218H24.7183V55.7209H4.38745V70.6218Z" fill="white"/>
<path d="M4.77467 70.2345H24.3309V56.1082H4.77467V70.2345V70.2345ZM24.7183 71.0092H4.38736C4.17369 71.0092 4 70.8356 4 70.6219V55.7209C4 55.5072 4.17369 55.3336 4.38736 55.3336H24.7183C24.9324 55.3336 25.1056 55.5072 25.1056 55.7209V70.6219C25.1056 70.8356 24.9324 71.0092 24.7183 71.0092Z" fill="black"/>
<path d="M33.2952 47.1467C33.0828 47.1467 32.91 46.9757 32.9079 46.763C32.89 45.0035 32.8927 42.8441 32.8954 40.5573C32.8981 38.1336 32.9007 35.6269 32.8789 33.4626C32.8772 33.2485 33.0485 33.0735 33.2627 33.0712H33.2667C33.4787 33.0712 33.6518 33.2422 33.6541 33.455C33.6754 35.6233 33.6727 38.1321 33.6701 40.5582C33.6675 42.8426 33.6652 44.9998 33.6826 46.7553C33.6849 46.9691 33.513 47.1445 33.2992 47.1467H33.2953H33.2952Z" fill="black"/>
<path d="M53.2855 55.9101H53.2771C53.0634 55.9057 52.8938 55.729 52.8982 55.5149C52.9498 53.0625 52.964 50.5755 52.9401 48.1226C52.9378 47.8864 52.9357 47.6423 52.8546 47.454C52.7678 47.2531 52.7499 47.2269 52.5723 47.2228C44.3312 47.0162 35.0788 47.1218 26.9155 47.2143C22.6779 47.2624 18.6749 47.3078 15.1335 47.3078L15.1054 47.3064C15.0155 47.2976 14.8539 47.3764 14.7955 47.4753C14.7159 47.6106 14.7055 47.8078 14.7011 48.0518C14.6536 50.4347 14.6705 52.8527 14.7519 55.2386C14.759 55.4524 14.5921 55.6313 14.3779 55.6389C14.1655 55.6486 13.9852 55.4792 13.9777 55.2648C13.8957 52.8646 13.8784 50.4329 13.9265 48.0361C13.9318 47.7695 13.939 47.403 14.1285 47.0819C14.3298 46.7405 14.7559 46.5095 15.1459 46.5331C18.6797 46.5331 22.6761 46.4876 26.9071 46.4391C35.0765 46.3469 44.3361 46.2414 52.5915 46.448C53.2723 46.4649 53.4703 46.9258 53.5655 47.147C53.7085 47.4787 53.7121 47.8313 53.7147 48.1148C53.7388 50.5756 53.7246 53.0708 53.6724 55.5311C53.6684 55.7422 53.4957 55.9099 53.2855 55.9099L53.2855 55.9101Z" fill="black"/>
<path d="M5.50678 59.7209L5.42752 59.6932C5.37148 59.6496 5.36163 59.5685 5.40528 59.512L7.61227 56.6884C7.65633 56.6318 7.73698 56.6216 7.7939 56.6662C7.85004 56.7102 7.85979 56.7909 7.81572 56.8474L5.60874 59.6709L5.50678 59.7209V59.7209Z" fill="black"/>
<path d="M5.84483 62.4225L5.77001 62.3985C5.71212 62.3571 5.69834 62.2764 5.73972 62.2181C7.0322 60.4024 8.39547 58.6012 9.79172 56.8646C9.83677 56.8095 9.91819 56.8006 9.97345 56.8451C10.0291 56.8896 10.0376 56.9711 9.99301 57.0267C8.59981 58.7591 7.23968 60.556 5.95036 62.3682C5.92497 62.4034 5.88534 62.4225 5.84483 62.4225Z" fill="black"/>
<path d="M5.90486 65.3512L5.82472 65.323C5.7691 65.2785 5.75976 65.1975 5.80429 65.1414L12.3879 56.878C12.4324 56.822 12.5138 56.8125 12.5695 56.8576C12.6251 56.9021 12.6345 56.983 12.5899 57.0387L6.0063 65.3027L5.90481 65.3512H5.90486Z" fill="black"/>
<path d="M5.70613 69.128L5.62155 69.0964C5.56768 69.0498 5.56185 68.9688 5.60865 68.9142C8.93722 65.069 12.191 61.0708 15.2795 57.0315C15.3227 56.9749 15.4037 56.9644 15.4602 57.0075C15.5173 57.0508 15.5279 57.1317 15.4847 57.1884C12.393 61.232 9.13572 65.234 5.80365 69.0835L5.70608 69.128L5.70613 69.128Z" fill="black"/>
<path d="M8.3677 69.6663L8.28581 69.6369C8.23106 69.5913 8.22312 69.5101 8.26852 69.4548C11.6674 65.345 15.1379 61.1963 18.5832 57.1238C18.6294 57.07 18.7109 57.0628 18.7653 57.1086C18.8195 57.155 18.8262 57.2365 18.7804 57.2906C15.3356 61.3624 11.8659 65.5106 8.4676 69.6192L8.36775 69.6662L8.3677 69.6663Z" fill="black"/>
<path d="M11.2086 69.6538L11.1272 69.6249C11.0719 69.5795 11.064 69.4985 11.1089 69.4433L21.298 56.963C21.3425 56.908 21.424 56.8994 21.4797 56.9445C21.5349 56.9898 21.5429 57.0713 21.4979 57.1266L11.3088 69.6065L11.2086 69.6539V69.6538Z" fill="black"/>
<path d="M14.458 69.6695L14.3805 69.6437C14.3236 69.6004 14.3119 69.5199 14.3551 69.4629C17.2477 65.6215 20.3127 61.8348 23.4644 58.2074C23.5116 58.154 23.5931 58.1477 23.647 58.1951C23.7009 58.2419 23.7062 58.3233 23.6595 58.3772C20.5116 61.9995 17.4503 65.7817 14.5611 69.6184L14.4579 69.6695L14.458 69.6695Z" fill="black"/>
<path d="M17.4869 69.6677L17.409 69.6409C17.3521 69.5978 17.3409 69.5167 17.3841 69.4602C19.3507 66.8765 21.4152 64.3132 23.521 61.8419C23.5674 61.7875 23.6489 61.7814 23.7028 61.8277C23.7576 61.8739 23.7637 61.9554 23.7174 62.0092C21.6151 64.477 19.5533 67.0363 17.5897 69.6163L17.4869 69.6677V69.6677Z" fill="black"/>
<path d="M20.356 69.6823L20.2763 69.6548C20.2202 69.6106 20.2105 69.5296 20.2545 69.4736C21.2095 68.259 22.2323 67.0761 23.2946 65.9583C23.3439 65.9069 23.4254 65.905 23.4771 65.9541C23.5287 66.0034 23.531 66.0851 23.4821 66.1364C22.4251 67.2483 21.4077 68.4246 20.4576 69.6328L20.356 69.6823H20.356Z" fill="black"/>
<path d="M22.8536 69.7349L22.7704 69.7042C22.716 69.6584 22.7089 69.577 22.7547 69.5225L23.4136 68.7407C23.4595 68.686 23.541 68.6794 23.5957 68.7256C23.65 68.7715 23.6572 68.8524 23.6109 68.9072L22.9523 69.6892L22.8535 69.7349H22.8536Z" fill="black"/>
<path d="M64.2771 44.9816C66.9813 47.6423 69.6862 50.3029 72.3904 52.9637C73.8192 54.3687 75.251 55.7769 76.8075 56.9961C77.6468 57.6537 78.581 58.2753 79.6023 58.2761C80.6236 58.2765 81.7091 57.4151 81.7011 56.261C81.6949 55.3602 81.0733 54.6368 80.491 54.0223C76.1847 49.4806 71.6839 45.1743 67.0099 41.1241C66.1533 42.3792 65.2966 43.6343 64.2772 44.9815L64.2771 44.9816Z" fill="white"/>
<path d="M64.7901 44.9432L72.6618 52.6876C74.0599 54.0624 75.5051 55.4846 77.046 56.6915C77.8394 57.3129 78.6983 57.8877 79.6025 57.8882H79.6034C80.046 57.8882 80.5112 57.6856 80.8487 57.3463C81.151 57.0418 81.3161 56.6577 81.3135 56.2632C81.3086 55.5103 80.7654 54.8749 80.2098 54.2891C76.0295 49.8799 71.6152 45.6472 67.0845 41.7016C66.3681 42.7491 65.6291 43.8217 64.7902 44.9432H64.7901ZM79.6034 58.6629H79.602C78.4631 58.6626 77.4707 58.0081 76.5683 57.3015C74.9931 56.0674 73.5319 54.6301 72.1186 53.2397L64.0053 45.2576C63.8663 45.1213 63.8502 44.9027 63.9677 44.7478C64.9784 43.4121 65.8444 42.1437 66.682 40.9166C66.7443 40.8257 66.8467 40.7595 66.9562 40.7456C67.0652 40.7301 67.1797 40.759 67.2634 40.8312C71.9285 44.8739 76.4734 49.2224 80.7717 53.7562C81.4047 54.4235 82.0811 55.2226 82.0881 56.2578C82.0921 56.8607 81.8473 57.4409 81.398 57.8928C80.9186 58.3755 80.2477 58.6629 79.6034 58.6629V58.6629Z" fill="black"/>
<path d="M53.7227 45.2353C46.6475 45.2353 40.9125 39.4999 40.9125 32.4252C40.9125 25.3501 46.6475 19.6147 53.7227 19.6147C60.7973 19.6147 66.5328 25.3501 66.5328 32.4252C66.5328 39.4999 60.7973 45.2353 53.7227 45.2353ZM53.7227 45.2353C46.6475 45.2353 40.9125 39.4999 40.9125 32.4252C40.9125 25.3501 46.6475 19.6147 53.7227 19.6147C60.7973 19.6147 66.5328 25.3501 66.5328 32.4252C66.5328 39.4999 60.7973 45.2353 53.7227 45.2353ZM53.7227 15.5585C44.4076 15.5585 36.8561 23.1101 36.8561 32.4251C36.8561 41.7402 44.4076 49.2914 53.7227 49.2914C63.0377 49.2914 70.5893 41.7402 70.5893 32.4251C70.5893 23.1101 63.0377 15.5585 53.7227 15.5585V15.5585Z" fill="white"/>
<path d="M41.3001 32.4252C41.3001 39.275 46.873 44.848 53.7228 44.848C60.5727 44.848 66.1456 39.275 66.1456 32.4252C66.1456 25.5749 60.5727 20.002 53.7228 20.002C46.873 20.002 41.3001 25.5749 41.3001 32.4252V32.4252ZM53.7228 45.6227C46.4455 45.6227 40.5253 39.702 40.5253 32.4252C40.5253 25.148 46.4455 19.2273 53.7228 19.2273C61 19.2273 66.9203 25.1479 66.9203 32.4252C66.9203 39.702 61 45.6227 53.7228 45.6227ZM53.7228 15.946C44.6361 15.946 37.2435 23.3386 37.2435 32.4252C37.2435 41.5114 44.6361 48.9041 53.7228 48.9041C62.8094 48.9041 70.202 41.5114 70.202 32.4252C70.202 23.3386 62.8094 15.946 53.7228 15.946V15.946ZM53.7228 49.6793C44.2088 49.6793 36.4689 41.9389 36.4689 32.4252C36.4689 22.9111 44.2088 15.1712 53.7228 15.1712C63.2364 15.1712 70.9763 22.9111 70.9763 32.4252C70.9763 41.9389 63.2364 49.6793 53.7228 49.6793Z" fill="black"/>
<path d="M66.4518 45.4651L66.4162 45.4601C66.3475 45.4406 66.3079 45.3689 66.3276 45.3004L66.6245 44.2616C66.6441 44.1934 66.7162 44.1529 66.7839 44.1735C66.8524 44.1925 66.8921 44.2643 66.8725 44.3329L66.5759 45.3716C66.5595 45.4281 66.5078 45.4651 66.4517 45.4651L66.4518 45.4651Z" fill="black"/>
<path d="M67.8708 47.2838L67.8539 47.283C67.7831 47.2736 67.7332 47.2085 67.7426 47.1377C67.9015 45.9227 68.0925 44.6966 68.3112 43.4936C68.3241 43.4237 68.3908 43.3787 68.4612 43.3899C68.5315 43.4027 68.5783 43.4695 68.5653 43.5403C68.3476 44.7389 68.1567 45.9606 67.9986 47.1711C67.9901 47.2361 67.9344 47.2838 67.8709 47.2838H67.8708Z" fill="black"/>
<path d="M69.7133 49.0487C69.642 49.0487 69.5842 48.9908 69.5842 48.9196C69.5842 48.3122 69.6778 47.2932 69.76 46.3942C69.8104 45.8462 69.8536 45.3733 69.8687 45.0755C69.8723 45.0043 69.9328 44.9458 70.004 44.953C70.0753 44.9566 70.1301 45.0171 70.1265 45.0883C70.1114 45.3911 70.0677 45.867 70.0174 46.4178C69.9355 47.3109 69.8425 48.3239 69.8425 48.9196C69.8425 48.9908 69.7851 49.0487 69.7134 49.0487L69.7133 49.0487Z" fill="black"/>
<path d="M71.5993 50.7877C71.5289 50.7877 71.4715 50.7316 71.4702 50.6619L71.3726 46.3537C71.3713 46.2825 71.4278 46.2237 71.4991 46.2219C71.578 46.2309 71.6296 46.2767 71.6308 46.3479L71.7284 50.6555C71.7298 50.7267 71.6733 50.786 71.6019 50.7877H71.5993L71.5993 50.7877Z" fill="black"/>
<path d="M73.3949 52.6933C73.3254 52.6933 73.2684 52.6386 73.2657 52.5688L73.097 48.0576C73.0943 47.9864 73.15 47.9266 73.2212 47.9237C73.2929 47.9289 73.3526 47.9766 73.3549 48.0482L73.524 52.5593C73.5266 52.6306 73.471 52.6903 73.3998 52.6933H73.3949Z" fill="black"/>
<path d="M75.2214 54.2993C75.1532 54.2993 75.0962 54.2459 75.0926 54.1769L74.8642 49.9632C74.8606 49.8919 74.9149 49.8311 74.9862 49.8274C75.0512 49.818 75.1185 49.8777 75.122 49.949L75.3505 54.163C75.354 54.2343 75.2992 54.2954 75.2284 54.2988L75.2214 54.2993V54.2993Z" fill="black"/>
<path d="M77.0306 55.7838C76.9638 55.7838 76.9067 55.732 76.9018 55.6645L76.5853 51.5615C76.58 51.4907 76.633 51.4285 76.7042 51.4231C76.7759 51.412 76.8373 51.4708 76.8427 51.5421L77.1592 55.6448C77.1646 55.7161 77.1116 55.7779 77.0403 55.7832L77.0306 55.7838Z" fill="black"/>
<path d="M78.7427 57.1177C78.6772 57.1177 78.6212 57.0681 78.614 57.0013L78.2441 53.4035C78.2369 53.3327 78.2885 53.2691 78.3593 53.2619C78.4301 53.2512 78.4934 53.306 78.5009 53.3772L78.8713 56.975C78.8784 57.0458 78.8267 57.1095 78.756 57.1166L78.7427 57.1177H78.7427Z" fill="black"/>
<path d="M80.4196 56.9261C80.3572 56.9261 80.3026 56.8807 80.2922 56.8175L80.0322 55.2097C80.0206 55.1398 80.0687 55.073 80.1391 55.0619C80.2094 55.049 80.2758 55.0984 80.2874 55.1687L80.5469 56.7761C80.5585 56.8465 80.5104 56.9128 80.4401 56.9242L80.4196 56.9261H80.4196Z" fill="black"/>
<path d="M64.2771 44.9816C66.9813 47.6423 69.6862 50.3029 72.3904 52.9637C73.8192 54.3687 75.251 55.7769 76.8075 56.9961C77.6468 57.6537 78.581 58.2753 79.6023 58.2761C80.6236 58.2765 81.7091 57.4151 81.7011 56.261C81.6949 55.3602 81.0733 54.6368 80.491 54.0223C76.1847 49.4806 71.6839 45.1743 67.0099 41.1241C66.1533 42.3792 65.2966 43.6343 64.2772 44.9815L64.2771 44.9816Z" fill="white"/>
<path d="M64.7901 44.9432L72.6618 52.6876C74.0599 54.0624 75.5051 55.4846 77.046 56.6915C77.8394 57.3129 78.6983 57.8877 79.6025 57.8882H79.6034C80.046 57.8882 80.5112 57.6856 80.8487 57.3463C81.151 57.0418 81.3161 56.6577 81.3135 56.2632C81.3086 55.5103 80.7654 54.8749 80.2098 54.2891C76.0295 49.8799 71.6152 45.6472 67.0845 41.7016C66.3681 42.7491 65.6291 43.8217 64.7902 44.9432H64.7901ZM79.6034 58.6629H79.602C78.4631 58.6626 77.4707 58.0081 76.5683 57.3015C74.9931 56.0674 73.5319 54.6301 72.1186 53.2397L64.0053 45.2576C63.8663 45.1213 63.8502 44.9027 63.9677 44.7478C64.9784 43.4121 65.8444 42.1437 66.682 40.9166C66.7443 40.8257 66.8467 40.7595 66.9562 40.7456C67.0652 40.7301 67.1797 40.759 67.2634 40.8312C71.9285 44.8739 76.4734 49.2224 80.7717 53.7562C81.4047 54.4235 82.0811 55.2226 82.0881 56.2578C82.0921 56.8607 81.8473 57.4409 81.398 57.8928C80.9186 58.3755 80.2477 58.6629 79.6034 58.6629V58.6629Z" fill="black"/>
<path d="M53.7227 45.2353C46.6475 45.2353 40.9125 39.4999 40.9125 32.4252C40.9125 25.3501 46.6475 19.6147 53.7227 19.6147C60.7973 19.6147 66.5328 25.3501 66.5328 32.4252C66.5328 39.4999 60.7973 45.2353 53.7227 45.2353ZM53.7227 45.2353C46.6475 45.2353 40.9125 39.4999 40.9125 32.4252C40.9125 25.3501 46.6475 19.6147 53.7227 19.6147C60.7973 19.6147 66.5328 25.3501 66.5328 32.4252C66.5328 39.4999 60.7973 45.2353 53.7227 45.2353ZM53.7227 15.5585C44.4076 15.5585 36.8561 23.1101 36.8561 32.4251C36.8561 41.7402 44.4076 49.2914 53.7227 49.2914C63.0377 49.2914 70.5893 41.7402 70.5893 32.4251C70.5893 23.1101 63.0377 15.5585 53.7227 15.5585V15.5585Z" fill="white"/>
<path d="M41.3001 32.4252C41.3001 39.275 46.873 44.848 53.7228 44.848C60.5727 44.848 66.1456 39.275 66.1456 32.4252C66.1456 25.5749 60.5727 20.002 53.7228 20.002C46.873 20.002 41.3001 25.5749 41.3001 32.4252V32.4252ZM53.7228 45.6227C46.4455 45.6227 40.5253 39.702 40.5253 32.4252C40.5253 25.148 46.4455 19.2273 53.7228 19.2273C61 19.2273 66.9203 25.1479 66.9203 32.4252C66.9203 39.702 61 45.6227 53.7228 45.6227ZM53.7228 15.946C44.6361 15.946 37.2435 23.3386 37.2435 32.4252C37.2435 41.5114 44.6361 48.9041 53.7228 48.9041C62.8094 48.9041 70.202 41.5114 70.202 32.4252C70.202 23.3386 62.8094 15.946 53.7228 15.946V15.946ZM53.7228 49.6793C44.2088 49.6793 36.4689 41.9389 36.4689 32.4252C36.4689 22.9111 44.2088 15.1712 53.7228 15.1712C63.2364 15.1712 70.9763 22.9111 70.9763 32.4252C70.9763 41.9389 63.2364 49.6793 53.7228 49.6793Z" fill="black"/>
<path d="M66.4518 45.4651L66.4162 45.4601C66.3475 45.4406 66.3079 45.3689 66.3276 45.3004L66.6245 44.2616C66.6441 44.1934 66.7162 44.1529 66.7839 44.1735C66.8524 44.1925 66.8921 44.2643 66.8725 44.3329L66.5759 45.3716C66.5595 45.4281 66.5078 45.4651 66.4517 45.4651L66.4518 45.4651Z" fill="black"/>
<path d="M67.8708 47.2838L67.8539 47.283C67.7831 47.2736 67.7332 47.2085 67.7426 47.1377C67.9015 45.9227 68.0925 44.6966 68.3112 43.4936C68.3241 43.4237 68.3908 43.3787 68.4612 43.3899C68.5315 43.4027 68.5783 43.4695 68.5653 43.5403C68.3476 44.7389 68.1567 45.9606 67.9986 47.1711C67.9901 47.2361 67.9344 47.2838 67.8709 47.2838H67.8708Z" fill="black"/>
<path d="M69.7133 49.0487C69.642 49.0487 69.5842 48.9908 69.5842 48.9196C69.5842 48.3122 69.6778 47.2932 69.76 46.3942C69.8104 45.8462 69.8536 45.3733 69.8687 45.0755C69.8723 45.0043 69.9328 44.9458 70.004 44.953C70.0753 44.9566 70.1301 45.0171 70.1265 45.0883C70.1114 45.3911 70.0677 45.867 70.0174 46.4178C69.9355 47.3109 69.8425 48.3239 69.8425 48.9196C69.8425 48.9908 69.7851 49.0487 69.7134 49.0487L69.7133 49.0487Z" fill="black"/>
<path d="M71.5993 50.7877C71.5289 50.7877 71.4715 50.7316 71.4702 50.6619L71.3726 46.3537C71.3713 46.2825 71.4278 46.2237 71.4991 46.2219C71.578 46.2309 71.6296 46.2767 71.6308 46.3479L71.7284 50.6555C71.7298 50.7267 71.6733 50.786 71.6019 50.7877H71.5993L71.5993 50.7877Z" fill="black"/>
<path d="M73.3949 52.6933C73.3254 52.6933 73.2684 52.6386 73.2657 52.5688L73.097 48.0576C73.0943 47.9864 73.15 47.9266 73.2212 47.9237C73.2929 47.9289 73.3526 47.9766 73.3549 48.0482L73.524 52.5593C73.5266 52.6306 73.471 52.6903 73.3998 52.6933H73.3949Z" fill="black"/>
<path d="M75.2214 54.2993C75.1532 54.2993 75.0962 54.2459 75.0926 54.1769L74.8642 49.9632C74.8606 49.8919 74.9149 49.8311 74.9862 49.8274C75.0512 49.818 75.1185 49.8777 75.122 49.949L75.3505 54.163C75.354 54.2343 75.2992 54.2954 75.2284 54.2988L75.2214 54.2993V54.2993Z" fill="black"/>
<path d="M77.0306 55.7838C76.9638 55.7838 76.9067 55.732 76.9018 55.6645L76.5853 51.5615C76.58 51.4907 76.633 51.4285 76.7042 51.4231C76.7759 51.412 76.8373 51.4708 76.8427 51.5421L77.1592 55.6448C77.1646 55.7161 77.1116 55.7779 77.0403 55.7832L77.0306 55.7838Z" fill="black"/>
<path d="M78.7427 57.1177C78.6772 57.1177 78.6212 57.0681 78.614 57.0013L78.2441 53.4035C78.2369 53.3327 78.2885 53.2691 78.3593 53.2619C78.4301 53.2512 78.4934 53.306 78.5009 53.3772L78.8713 56.975C78.8784 57.0458 78.8267 57.1095 78.756 57.1166L78.7427 57.1177H78.7427Z" fill="black"/>
<path d="M80.4196 56.9261C80.3572 56.9261 80.3026 56.8807 80.2922 56.8175L80.0322 55.2097C80.0206 55.1398 80.0687 55.073 80.1391 55.0619C80.2094 55.049 80.2758 55.0984 80.2874 55.1687L80.5469 56.7761C80.5585 56.8465 80.5104 56.9128 80.4401 56.9242L80.4196 56.9261H80.4196Z" fill="black"/>
<path d="M49.1551 39.1433C48.9415 39.1433 48.7678 38.9701 48.7678 38.756V30.2529C48.7678 30.0392 48.9415 29.8656 49.1551 29.8656C49.3693 29.8656 49.5424 30.0393 49.5424 30.2529V38.756C49.5424 38.9701 49.3693 39.1433 49.1551 39.1433Z" fill="black"/>
<path d="M57.6769 39.1433C57.4632 39.1433 57.2896 38.9701 57.2896 38.756V30.2529C57.2896 30.0392 57.4632 29.8656 57.6769 29.8656C57.8911 29.8656 58.0642 30.0393 58.0642 30.2529V38.756C58.0642 38.9701 57.8911 39.1433 57.6769 39.1433Z" fill="black"/>
<path d="M53.4159 39.1433C53.2023 39.1433 53.0286 38.9701 53.0286 38.756V25.0696C53.0286 24.8559 53.2023 24.6823 53.4159 24.6823C53.6301 24.6823 53.8032 24.856 53.8032 25.0696V38.756C53.8032 38.9701 53.6301 39.1433 53.4159 39.1433V39.1433Z" fill="black"/>
<path d="M64.2771 44.9816C66.9813 47.6423 69.6862 50.3029 72.3904 52.9637C73.8192 54.3687 75.251 55.7769 76.8075 56.9961C77.6468 57.6537 78.581 58.2753 79.6023 58.2761C80.6236 58.2765 81.7091 57.4151 81.7011 56.261C81.6949 55.3602 81.0733 54.6368 80.491 54.0223C76.1847 49.4806 71.6839 45.1743 67.0099 41.1241C66.1533 42.3792 65.2966 43.6343 64.2772 44.9815L64.2771 44.9816Z" fill="white"/>
<path d="M64.7901 44.9432L72.6618 52.6876C74.0599 54.0624 75.5051 55.4846 77.046 56.6915C77.8394 57.3129 78.6983 57.8877 79.6025 57.8882H79.6034C80.046 57.8882 80.5112 57.6856 80.8487 57.3463C81.151 57.0418 81.3161 56.6577 81.3135 56.2632C81.3086 55.5103 80.7654 54.8749 80.2098 54.2891C76.0295 49.8799 71.6152 45.6472 67.0845 41.7016C66.3681 42.7491 65.6291 43.8217 64.7902 44.9432H64.7901ZM79.6034 58.6629H79.602C78.4631 58.6626 77.4707 58.0081 76.5683 57.3015C74.9931 56.0674 73.5319 54.6301 72.1186 53.2397L64.0053 45.2576C63.8663 45.1213 63.8502 44.9027 63.9677 44.7478C64.9784 43.4121 65.8444 42.1437 66.682 40.9166C66.7443 40.8257 66.8467 40.7595 66.9562 40.7456C67.0652 40.7301 67.1797 40.759 67.2634 40.8312C71.9285 44.8739 76.4734 49.2224 80.7717 53.7562C81.4047 54.4235 82.0811 55.2226 82.0881 56.2578C82.0921 56.8607 81.8473 57.4409 81.398 57.8928C80.9186 58.3755 80.2477 58.6629 79.6034 58.6629V58.6629Z" fill="black"/>
<path d="M53.7227 45.2353C46.6475 45.2353 40.9125 39.4999 40.9125 32.4252C40.9125 25.3501 46.6475 19.6147 53.7227 19.6147C60.7973 19.6147 66.5328 25.3501 66.5328 32.4252C66.5328 39.4999 60.7973 45.2353 53.7227 45.2353ZM53.7227 45.2353C46.6475 45.2353 40.9125 39.4999 40.9125 32.4252C40.9125 25.3501 46.6475 19.6147 53.7227 19.6147C60.7973 19.6147 66.5328 25.3501 66.5328 32.4252C66.5328 39.4999 60.7973 45.2353 53.7227 45.2353ZM53.7227 15.5585C44.4076 15.5585 36.8561 23.1101 36.8561 32.4251C36.8561 41.7402 44.4076 49.2914 53.7227 49.2914C63.0377 49.2914 70.5893 41.7402 70.5893 32.4251C70.5893 23.1101 63.0377 15.5585 53.7227 15.5585V15.5585Z" fill="white"/>
<path d="M41.3001 32.4252C41.3001 39.275 46.873 44.848 53.7228 44.848C60.5727 44.848 66.1456 39.275 66.1456 32.4252C66.1456 25.5749 60.5727 20.002 53.7228 20.002C46.873 20.002 41.3001 25.5749 41.3001 32.4252V32.4252ZM53.7228 45.6227C46.4455 45.6227 40.5253 39.702 40.5253 32.4252C40.5253 25.148 46.4455 19.2273 53.7228 19.2273C61 19.2273 66.9203 25.1479 66.9203 32.4252C66.9203 39.702 61 45.6227 53.7228 45.6227ZM53.7228 15.946C44.6361 15.946 37.2435 23.3386 37.2435 32.4252C37.2435 41.5114 44.6361 48.9041 53.7228 48.9041C62.8094 48.9041 70.202 41.5114 70.202 32.4252C70.202 23.3386 62.8094 15.946 53.7228 15.946V15.946ZM53.7228 49.6793C44.2088 49.6793 36.4689 41.9389 36.4689 32.4252C36.4689 22.9111 44.2088 15.1712 53.7228 15.1712C63.2364 15.1712 70.9763 22.9111 70.9763 32.4252C70.9763 41.9389 63.2364 49.6793 53.7228 49.6793Z" fill="black"/>
<path d="M66.4518 45.4651L66.4162 45.4601C66.3475 45.4406 66.3079 45.3689 66.3276 45.3004L66.6245 44.2616C66.6441 44.1934 66.7162 44.1529 66.7839 44.1735C66.8524 44.1925 66.8921 44.2643 66.8725 44.3329L66.5759 45.3716C66.5595 45.4281 66.5078 45.4651 66.4517 45.4651L66.4518 45.4651Z" fill="black"/>
<path d="M67.8708 47.2838L67.8539 47.283C67.7831 47.2736 67.7332 47.2085 67.7426 47.1377C67.9015 45.9227 68.0925 44.6966 68.3112 43.4936C68.3241 43.4237 68.3908 43.3787 68.4612 43.3899C68.5315 43.4027 68.5783 43.4695 68.5653 43.5403C68.3476 44.7389 68.1567 45.9606 67.9986 47.1711C67.9901 47.2361 67.9344 47.2838 67.8709 47.2838H67.8708Z" fill="black"/>
<path d="M69.7133 49.0487C69.642 49.0487 69.5842 48.9908 69.5842 48.9196C69.5842 48.3122 69.6778 47.2932 69.76 46.3942C69.8104 45.8462 69.8536 45.3733 69.8687 45.0755C69.8723 45.0043 69.9328 44.9458 70.004 44.953C70.0753 44.9566 70.1301 45.0171 70.1265 45.0883C70.1114 45.3911 70.0677 45.867 70.0174 46.4178C69.9355 47.3109 69.8425 48.3239 69.8425 48.9196C69.8425 48.9908 69.7851 49.0487 69.7134 49.0487L69.7133 49.0487Z" fill="black"/>
<path d="M71.5993 50.7877C71.5289 50.7877 71.4715 50.7316 71.4702 50.6619L71.3726 46.3537C71.3713 46.2825 71.4278 46.2237 71.4991 46.2219C71.578 46.2309 71.6296 46.2767 71.6308 46.3479L71.7284 50.6555C71.7298 50.7267 71.6733 50.786 71.6019 50.7877H71.5993L71.5993 50.7877Z" fill="black"/>
<path d="M73.3949 52.6933C73.3254 52.6933 73.2684 52.6386 73.2657 52.5688L73.097 48.0576C73.0943 47.9864 73.15 47.9266 73.2212 47.9237C73.2929 47.9289 73.3526 47.9766 73.3549 48.0482L73.524 52.5593C73.5266 52.6306 73.471 52.6903 73.3998 52.6933H73.3949Z" fill="black"/>
<path d="M75.2214 54.2993C75.1532 54.2993 75.0962 54.2459 75.0926 54.1769L74.8642 49.9632C74.8606 49.8919 74.9149 49.8311 74.9862 49.8274C75.0512 49.818 75.1185 49.8777 75.122 49.949L75.3505 54.163C75.354 54.2343 75.2992 54.2954 75.2284 54.2988L75.2214 54.2993V54.2993Z" fill="black"/>
<path d="M77.0306 55.7838C76.9638 55.7838 76.9067 55.732 76.9018 55.6645L76.5853 51.5615C76.58 51.4907 76.633 51.4285 76.7042 51.4231C76.7759 51.412 76.8373 51.4708 76.8427 51.5421L77.1592 55.6448C77.1646 55.7161 77.1116 55.7779 77.0403 55.7832L77.0306 55.7838Z" fill="black"/>
<path d="M78.7427 57.1177C78.6772 57.1177 78.6212 57.0681 78.614 57.0013L78.2441 53.4035C78.2369 53.3327 78.2885 53.2691 78.3593 53.2619C78.4301 53.2512 78.4934 53.306 78.5009 53.3772L78.8713 56.975C78.8784 57.0458 78.8267 57.1095 78.756 57.1166L78.7427 57.1177H78.7427Z" fill="black"/>
<path d="M80.4196 56.9261C80.3572 56.9261 80.3026 56.8807 80.2922 56.8175L80.0322 55.2097C80.0206 55.1398 80.0687 55.073 80.1391 55.0619C80.2094 55.049 80.2758 55.0984 80.2874 55.1687L80.5469 56.7761C80.5585 56.8465 80.5104 56.9128 80.4401 56.9242L80.4196 56.9261H80.4196Z" fill="black"/>
<path d="M41.2999 32.3975V32.4252C41.2999 39.275 46.8728 44.848 53.7227 44.848C59.0009 44.848 63.5203 41.5391 65.3169 36.8874C65.0952 37.2039 64.9246 37.5703 64.6758 37.8637C64.6094 37.9857 63.7439 38.9598 63.2549 39.4246C62.8316 39.8022 62.4255 40.1353 62.0123 40.45C61.9393 40.4646 61.8663 40.4923 61.7955 40.5355C59.6869 42.0613 58.1023 42.6188 55.4354 43.1093C54.7444 43.239 53.996 43.357 53.1345 43.357C52.418 43.357 51.6233 43.2751 50.7186 43.0507C49.3219 42.7256 48.6479 42.3432 47.1893 41.361C46.57 40.926 45.1898 39.711 44.2521 38.5757L44.2512 38.5751C43.2424 37.1949 42.8964 35.9884 42.6889 35.4385C42.4793 34.874 42.3212 34.2944 42.1556 33.7164C41.9116 32.9217 41.8359 32.6438 41.8368 31.968C41.6859 31.5451 41.5466 31.1176 41.421 30.6862C41.3426 31.2454 41.3012 31.8171 41.2999 32.3976V32.3975ZM43.3924 40.6299C43.3706 40.6063 43.3488 40.5823 43.3265 40.5582C42.3911 39.507 41.8667 38.4509 41.51 37.4278C41.9864 38.5868 42.6231 39.6633 43.3924 40.6299V40.6299ZM64.2185 40.4174C64.7581 39.7104 65.2283 38.9469 65.6183 38.1384C65.5866 38.2261 65.5551 38.3142 65.5234 38.4019C65.3373 38.8334 65.1387 39.2599 64.934 39.6838C64.7376 39.9082 64.495 40.1566 64.2186 40.4175L64.2185 40.4174Z" fill="#DEDEDE"/>
<path d="M53.2983 45.2638C52.8166 45.2638 52.3352 45.2251 51.8597 45.1382L51.8464 45.1361C51.0739 45.0448 50.2956 44.9539 49.5472 44.7367C48.1772 44.2916 46.9413 43.5252 45.7793 42.6873C45.2904 42.2848 44.5166 41.8512 43.3924 40.6299C42.623 39.6633 41.9863 38.5868 41.51 37.4278C41.3185 36.8789 41.1752 36.3393 41.0425 35.8152C40.8221 34.0801 40.79 32.3316 41.0158 30.5886C41.0341 30.5874 41.0522 30.5868 41.0705 30.5868C41.1885 30.5868 41.3065 30.6145 41.4142 30.663C41.4164 30.6705 41.4187 30.6781 41.4209 30.6862C41.3413 31.2542 41.2998 31.8353 41.2998 32.4252C41.2998 39.2751 46.8727 44.848 53.7226 44.848C59.0008 44.848 63.5202 41.5391 65.3168 36.8874C65.4156 36.7461 65.5243 36.6153 65.6547 36.5053C65.7531 36.4461 65.8621 36.4189 65.9708 36.4189C66.0554 36.4189 66.1396 36.4354 66.2179 36.4661C66.0207 37.0244 65.8194 37.5814 65.6182 38.1385C65.2282 38.9469 64.758 39.7105 64.2184 40.4175C63.3818 41.206 62.2339 42.1085 61.1129 42.8066C60.8823 42.9798 60.7113 43.0987 60.2179 43.4027C59.0038 44.0448 57.6762 44.4518 56.3463 44.7786C55.7052 44.9508 55.0672 45.1449 54.4025 45.1997C54.0356 45.2411 53.6669 45.2639 53.2983 45.2639V45.2638Z" fill="black"/>
<path d="M65.0422 46.2781C64.9478 46.2085 64.8636 46.1254 64.7925 46.0322L65.0422 46.2781Z" fill="#A8A8A8"/>
<path d="M66.2342 46.3635L65.1741 45.3209C66.1678 44.4371 67.0587 43.4411 67.8277 42.3525C68.2466 42.7216 68.6656 43.0933 69.0828 43.4669C69.0681 43.4968 69.0525 43.5261 69.0347 43.5551C68.8553 43.8512 68.6425 44.1258 68.4162 44.3886C68.4643 44.1049 68.5142 43.8218 68.5654 43.5403C68.5784 43.4695 68.5315 43.4027 68.4613 43.3899C68.4541 43.3885 68.447 43.3881 68.4398 43.3881C68.378 43.3881 68.3228 43.4308 68.3111 43.4936C68.235 43.9144 68.162 44.3373 68.0926 44.762C67.5948 45.4022 66.9826 45.9512 66.2698 46.3435C66.2578 46.3507 66.2462 46.3573 66.2341 46.3635H66.2342ZM66.748 44.1681C66.6924 44.1681 66.6407 44.2055 66.6247 44.2616L66.3277 45.3004C66.308 45.3689 66.3477 45.4406 66.4163 45.4601L66.4519 45.4651C66.508 45.4651 66.5597 45.4281 66.5762 45.3715L66.8727 44.3328C66.8923 44.2642 66.8527 44.1925 66.7841 44.1734C66.772 44.1699 66.7601 44.168 66.748 44.168L66.748 44.1681Z" fill="#DEDEDE"/>
<path d="M65.7052 46.5025C65.4621 46.5025 65.232 46.4178 65.0423 46.2781L64.7925 46.0322C64.732 45.953 64.6812 45.8661 64.642 45.7745C64.8219 45.6271 65 45.4753 65.1741 45.3208L66.2342 46.3635C66.0574 46.4597 65.878 46.5025 65.7053 46.5025L65.7052 46.5025ZM69.0828 43.4669C68.6655 43.0933 68.2465 42.7216 67.8276 42.3525C67.9171 42.2251 68.0052 42.0969 68.0917 41.9669C68.1001 41.9669 68.1086 41.9669 68.117 41.9669C68.2083 41.9669 68.3039 41.9803 68.4055 42.0092C69.0226 42.1721 69.3547 42.9009 69.0827 43.4669H69.0828Z" fill="black"/>
<path d="M64.6419 45.7745C64.4972 45.4352 64.5155 45.0282 64.804 44.6739C64.9193 44.4734 65.137 44.3831 65.3196 44.2563L65.3316 44.2469C66.2554 43.4108 66.414 43.4659 66.9744 42.8123L67.0177 42.7607C67.2794 42.3556 67.6184 41.9803 68.0916 41.9669C68.0051 42.0969 67.9171 42.2251 67.8276 42.3525C67.0586 43.4411 66.1677 44.437 65.174 45.3209C64.9999 45.4754 64.8218 45.6272 64.6419 45.7746V45.7745Z" fill="black"/>
<path d="M66.4518 45.4651L66.4162 45.4601C66.3475 45.4406 66.3079 45.3689 66.3276 45.3004L66.6245 44.2616C66.6406 44.2055 66.6922 44.1681 66.7478 44.1681C66.7598 44.1681 66.7718 44.17 66.7839 44.1735C66.8524 44.1925 66.8921 44.2643 66.8725 44.3329L66.5759 45.3716C66.5595 45.4281 66.5078 45.4651 66.4517 45.4651L66.4518 45.4651Z" fill="black"/>
<path d="M68.0925 44.762C68.1619 44.3373 68.235 43.9144 68.3111 43.4936C68.3227 43.4308 68.3779 43.3881 68.4397 43.3881C68.4469 43.3881 68.454 43.3885 68.4612 43.3899C68.5315 43.4027 68.5783 43.4695 68.5653 43.5403C68.5142 43.8217 68.4643 44.1048 68.4162 44.3886C68.3267 44.4927 68.235 44.5952 68.1428 44.6966C68.1259 44.7184 68.1095 44.7403 68.0925 44.762V44.762Z" fill="black"/>
<path d="M49.1551 39.1433C48.9415 39.1433 48.7678 38.9701 48.7678 38.756V30.2529C48.7678 30.0392 48.9415 29.8656 49.1551 29.8656C49.3693 29.8656 49.5424 30.0393 49.5424 30.2529V38.756C49.5424 38.9701 49.3693 39.1433 49.1551 39.1433Z" fill="black"/>
<path d="M57.6769 39.1433C57.4632 39.1433 57.2896 38.9701 57.2896 38.756V30.2529C57.2896 30.0392 57.4632 29.8656 57.6769 29.8656C57.8911 29.8656 58.0642 30.0393 58.0642 30.2529V38.756C58.0642 38.9701 57.8911 39.1433 57.6769 39.1433Z" fill="black"/>
<path d="M53.4159 39.1433C53.2023 39.1433 53.0286 38.9701 53.0286 38.756V25.0696C53.0286 24.8559 53.2023 24.6823 53.4159 24.6823C53.6301 24.6823 53.8032 24.856 53.8032 25.0696V38.756C53.8032 38.9701 53.6301 39.1433 53.4159 39.1433V39.1433Z" fill="black"/>
</g>
<defs>
<clipPath id="clip0_886_17692">
<rect width="86" height="86" fill="white"/>
</clipPath>
</defs>
</svg>
