<svg width="86" height="86" viewBox="0 0 86 86" fill="none" xmlns="http://www.w3.org/2000/svg">
<g clip-path="url(#clip0_963_23537)">
<path d="M10.4336 45.8494H16.5176V20.7596H10.4336V45.8494Z" fill="#333436"/>
<path d="M10.8686 45.4148H16.0835V21.1943H10.8686V45.4148V45.4148ZM16.518 46.2839H10.4341C10.1944 46.2839 10 46.0891 10 45.8494V20.7598C10 20.5201 10.1944 20.3253 10.4341 20.3253H16.518C16.7577 20.3253 16.9521 20.5201 16.9521 20.7598V45.8494C16.9521 46.0891 16.7577 46.2839 16.518 46.2839Z" fill="white"/>
<path d="M23.4697 37.5239H29.5509V12.4344H23.4697V37.5239Z" fill="#333436"/>
<path d="M23.9057 37.0889H29.1195V12.869H23.9057V37.0889ZM29.5525 37.9581H23.4706C23.231 37.9581 23.0361 37.7637 23.0361 37.524V12.4345C23.0361 12.1947 23.231 12 23.4706 12H29.5525C29.7922 12 29.987 12.1947 29.987 12.4345V37.524C29.987 37.7637 29.7922 37.9581 29.5525 37.9581Z" fill="white"/>
<path d="M36.7236 42.2508H42.807V17.1616H36.7236V42.2508Z" fill="#333436"/>
<path d="M37.158 41.8163H42.3723V17.5963H37.158V41.8163ZM42.8068 42.6853H36.7236C36.4837 42.6853 36.2891 42.4905 36.2891 42.2508V17.1617C36.2891 16.9215 36.4837 16.7272 36.7236 16.7272H42.8068C43.0465 16.7272 43.2414 16.9215 43.2414 17.1617V42.2508C43.2414 42.4905 43.0465 42.6853 42.8068 42.6853Z" fill="white"/>
<path d="M21.3941 52.668C33.2076 52.7993 45.0197 52.9306 56.8367 53.062C60.0783 53.0981 63.3597 53.13 66.5112 52.3728C69.6629 51.616 72.7244 49.9759 74.5425 47.2913C76.3604 44.6069 76.6602 40.7769 74.7272 38.1739C73.174 36.0777 70.417 35.0748 67.8148 35.2445C65.2077 35.4138 64.2087 36.0522 62.166 37.6799C62.6305 36.1955 62.9501 35.3919 62.8252 33.6134C62.7003 31.8343 61.8114 30.1766 60.6476 28.8285C57.5859 25.297 52.4116 23.7586 47.9215 25.0462C43.4314 26.3337 39.8554 30.3799 39.1312 34.9957C37.9424 30.4173 32.1837 27.8401 27.806 29.6271C23.4263 31.4137 21.0754 36.8313 22.3315 41.3918C21.3007 39.4169 18.7975 38.4861 16.6114 38.9166C14.4257 39.347 12.5917 40.9288 11.4295 42.8292C10.7921 43.8717 10.3187 45.0797 10.4595 46.2935C10.6913 48.2963 12.4877 49.7386 14.2848 50.6521C17.1352 52.1011 20.3507 52.6566 21.3941 52.668V52.668Z" fill="#333436"/>
<path d="M21.3986 52.2333L56.842 52.627C60.0085 52.6629 63.2898 52.6993 66.4065 51.9502C69.8377 51.1271 72.5997 49.386 74.183 47.0476C76.0059 44.3561 76.0859 40.733 74.3778 38.4324C72.9893 36.5615 70.4869 35.5066 67.845 35.6779C65.3726 35.8383 64.4486 36.4147 62.4358 38.0195C62.291 38.1388 62.0762 38.1463 61.9213 38.0385C61.7615 37.9306 61.6967 37.7322 61.7516 37.55L61.8664 37.1904C62.261 35.9442 62.5007 35.1915 62.3908 33.6437C62.256 31.7213 61.1871 30.1186 60.3181 29.1131C57.3864 25.7314 52.3418 24.2305 48.0416 25.4641C43.7413 26.6968 40.2551 30.6434 39.5608 35.0632C39.5309 35.2665 39.361 35.4198 39.1563 35.4298C38.9516 35.4428 38.7617 35.3048 38.7118 35.1051C38.2074 33.1537 36.7489 31.4505 34.7162 30.4317C32.5435 29.3419 30.0213 29.1915 27.97 30.0291C23.9175 31.6829 21.5265 36.8332 22.7508 41.2759C22.8092 41.4901 22.6974 41.7143 22.4911 41.7958C22.2848 41.8782 22.0491 41.7898 21.9462 41.5924C21.0602 39.8944 18.8016 38.9264 16.6959 39.3424C14.7989 39.7159 13.0149 41.0695 11.8003 43.0553C11.087 44.2221 10.7808 45.295 10.8912 46.2428C11.1139 48.1718 12.9669 49.4948 14.4823 50.265C17.1703 51.6315 20.3139 52.2213 21.3987 52.2332L21.3986 52.2333ZM58.8947 53.5116C58.2004 53.5116 57.5162 53.5039 56.8319 53.4966L21.3892 53.1024C20.3504 53.091 17.0699 52.5551 14.0882 51.0396C12.3835 50.1726 10.2949 48.6547 10.0276 46.3428C9.8948 45.197 10.2419 43.9389 11.059 42.6024C12.4 40.4093 14.3934 38.9104 16.5275 38.4899C18.3854 38.1232 20.2933 38.6501 21.5964 39.7835C21.1739 35.3542 23.6461 30.8547 27.6419 29.2245C29.9213 28.2934 32.7133 28.4543 35.1057 29.655C36.8637 30.535 38.2323 31.8849 39.0213 33.4743C40.2151 29.2938 43.5914 25.8347 47.8018 24.6284C52.4866 23.2854 57.7809 24.8587 60.9723 28.5442C61.9313 29.6495 63.105 31.4206 63.2548 33.5826C63.3447 34.8483 63.2198 35.647 62.9851 36.5015C64.4686 35.4172 65.5824 34.9542 67.7849 34.8108C70.7267 34.6185 73.5137 35.8092 75.077 37.9149C76.9999 40.5016 76.925 44.5472 74.9021 47.535C73.199 50.0531 70.2521 51.921 66.6112 52.7951C64.0691 53.4056 61.4619 53.5115 58.8947 53.5115L58.8947 53.5116Z" fill="white"/>
<path d="M40.3253 53.3327C40.2603 53.3327 40.2004 53.3253 40.1455 53.3105L40.9446 53.3196C40.7448 53.3243 40.545 53.3283 40.3453 53.3327C40.3403 53.3327 40.3353 53.3327 40.3253 53.3327Z" fill="#DEDEDE"/>
<path d="M71.3623 50.8594C71.5771 50.7237 71.7919 50.5828 72.0017 50.4374C71.8268 50.5921 71.6121 50.7326 71.3623 50.8594Z" fill="#DEDEDE"/>
<path d="M40.9439 53.3196L40.1449 53.3105C39.7503 53.2133 39.5405 52.8052 39.5855 52.4356L56.8417 52.627C57.5208 52.635 58.2051 52.6425 58.8893 52.6425C61.4066 52.6425 63.9588 52.539 66.4062 51.9502C68.6587 51.4105 70.6166 50.4762 72.1449 49.2387C72.3146 49.4114 72.3996 49.6732 72.3346 50.0033C72.2597 50.1592 72.1449 50.304 72 50.4374C71.7902 50.5828 71.5755 50.7237 71.3607 50.8595C70.4368 51.326 69.0683 51.6135 67.8346 51.7899C67.6996 52.0396 67.445 52.2265 67.1503 52.2877C66.7107 52.458 66.2563 52.5931 65.7918 52.687C64.1587 53.0152 62.4754 52.9905 60.8122 53.0875C59.7134 53.1713 58.6147 53.2005 57.5158 53.2005C55.7628 53.2005 54.0097 53.1266 52.2516 53.0837C48.4858 53.151 44.7148 53.2393 40.9439 53.3197V53.3196ZM34.2513 52.5229C31.6042 52.4306 28.9585 52.3488 26.3101 52.3488C26.1925 52.3488 26.0748 52.3488 25.9578 52.3491C25.9499 52.3491 25.9424 52.3491 25.9349 52.3491C25.3516 52.3491 24.7711 52.3087 24.1904 52.2643L38.1021 52.4192C36.8186 52.4595 35.535 52.514 34.2513 52.523V52.5229ZM17.9587 51.6006C16.6051 51.2805 15.2401 50.9218 13.8531 50.6375C13.3007 50.5047 13.038 49.9463 13.1174 49.4479C13.5684 49.768 14.0394 50.0401 14.482 50.2651C15.6226 50.8449 16.8459 51.2848 17.9587 51.6006Z" fill="white"/>
<path d="M43.2412 62.9062L51.0427 73.4267L58.8492 62.9062H54.454L54.7437 33.7392H47.9211L47.6314 62.9062H43.2412Z" fill="#BEE8FF"/>
<path d="M44.1065 63.3408L51.0439 72.6975L57.9863 63.3408H54.4552C54.3403 63.3408 54.2304 63.2942 54.1456 63.2124C54.0656 63.1294 54.0207 63.0183 54.0207 62.9023L54.3053 34.1737H48.3569L48.0672 62.9107C48.0672 63.149 47.8724 63.3408 47.6326 63.3408H44.1065V63.3408ZM51.0439 73.8613C50.9091 73.8613 50.7792 73.7963 50.6944 73.6854L42.8929 63.1655C42.7929 63.0335 42.7779 62.8579 42.8529 62.7109C42.9278 62.5646 43.0776 62.4717 43.2424 62.4717H47.203L47.4877 33.7346C47.4928 33.4964 47.6875 33.3045 47.9222 33.3045H54.7449C54.8597 33.3045 54.9747 33.351 55.0545 33.433C55.1345 33.5159 55.1794 33.6272 55.1794 33.7432L54.8946 62.4718H58.8503C59.0151 62.4718 59.1651 62.5646 59.235 62.7109C59.3099 62.8579 59.2949 63.0336 59.2 63.1655L51.3936 73.6854C51.3136 73.7963 51.1837 73.8613 51.0438 73.8613L51.0439 73.8613Z" fill="white"/>
<path d="M28.7003 27.7766L28.5965 27.7327C27.1411 26.2294 25.7047 24.6664 24.3267 23.0877C24.2742 23.0273 24.2803 22.936 24.3406 22.883C24.4006 22.8311 24.4925 22.8366 24.5449 22.897C25.9195 24.4722 27.3524 26.0316 28.8043 27.5314C28.8602 27.5889 28.8582 27.6808 28.8009 27.7361L28.7004 27.7766L28.7003 27.7766Z" fill="white"/>
<path d="M28.6259 25.4058L28.52 25.3603C27.1075 23.8594 25.704 22.311 24.3479 20.7573C24.2956 20.6969 24.3021 20.6054 24.362 20.5525C24.4218 20.5005 24.5139 20.5061 24.5668 20.5665C25.9203 22.1178 27.3212 23.6641 28.7312 25.1616C28.7861 25.2199 28.7832 25.3113 28.7247 25.3663L28.6258 25.4058H28.6259Z" fill="white"/>
<path d="M28.6089 22.7731L28.509 22.7326C27.1 21.3812 25.7366 19.9496 24.4555 18.4778C24.403 18.4174 24.4095 18.3255 24.4695 18.2735C24.5299 18.2205 24.6213 18.2271 24.6738 18.2875C25.9492 19.7529 27.3068 21.1783 28.7093 22.5238C28.7672 22.5788 28.7692 22.6706 28.7133 22.7281L28.6089 22.7731V22.7731Z" fill="white"/>
<path d="M28.531 20.4227L28.4221 20.3732C27.1366 18.9048 25.784 17.4608 24.403 16.0803C24.3461 16.0239 24.3461 15.9325 24.403 15.8756C24.4595 15.8191 24.5508 15.8191 24.6077 15.8756C25.9938 17.2606 27.3498 18.7095 28.6399 20.1824C28.6924 20.2428 28.6863 20.3343 28.6264 20.3867L28.531 20.4226V20.4227Z" fill="white"/>
<path d="M28.4642 17.7345L28.3587 17.689C27.1236 16.377 25.8225 15.0929 24.4905 13.8723C24.4316 13.8183 24.4271 13.727 24.4814 13.668C24.5354 13.6085 24.6273 13.6051 24.6863 13.659C26.0233 14.8841 27.3298 16.1733 28.5695 17.4903C28.6244 17.5488 28.6215 17.6406 28.5635 17.6956L28.4641 17.7345H28.4642Z" fill="white"/>
<path d="M28.3413 15.3767L28.2338 15.3293C27.7434 14.7873 27.2245 14.2558 26.6916 13.75C26.6335 13.6945 26.6312 13.6031 26.6865 13.5451C26.7415 13.4868 26.8334 13.4852 26.8914 13.5402C27.4292 14.0511 27.9532 14.5876 28.4491 15.1345C28.5025 15.1939 28.4981 15.2859 28.4387 15.3398L28.3412 15.3767H28.3413Z" fill="white"/>
<path d="M26.9278 28.5717L26.8214 28.5252C26.0383 27.6772 25.2612 26.8076 24.512 25.9396C24.4596 25.8792 24.4659 25.7877 24.527 25.7353C24.5874 25.6829 24.6788 25.6899 24.7307 25.7503C25.4784 26.6154 26.2531 27.483 27.0342 28.329C27.0887 28.3873 27.0847 28.4788 27.0263 28.5333L26.9279 28.5717L26.9278 28.5717Z" fill="white"/>
<path d="M25.594 29.735L25.4832 29.6836L24.4118 28.4145C24.3605 28.3536 24.3684 28.2622 24.4292 28.2107C24.4903 28.1592 24.5822 28.1667 24.6335 28.2281L25.7044 29.4968C25.7564 29.5583 25.7483 29.6491 25.6874 29.701L25.594 29.735V29.735Z" fill="white"/>
<path d="M10.8191 43.0171C10.6178 42.959 10.4275 42.8223 10.2781 42.5889C9.94105 41.9057 10.415 41.1965 10.8685 40.5742V42.9272C10.8521 42.9571 10.8355 42.987 10.8191 43.0171ZM16.0833 38.5934V37.5904C16.3345 37.8212 16.4639 38.1773 16.4094 38.5145C16.3001 38.5379 16.1912 38.5643 16.0833 38.5934Z" fill="white"/>
<path d="M11.0537 43.0499C10.9747 43.0499 10.8958 43.039 10.8184 43.0171C10.8348 42.987 10.8513 42.9571 10.8678 42.9272C10.9282 42.8197 10.9917 42.7114 11.058 42.6025C12.3058 40.5623 14.1172 39.1227 16.0826 38.5934C16.1905 38.5643 16.2994 38.5379 16.4087 38.5145C16.3897 38.6303 16.3493 38.7437 16.2843 38.8496C16.153 39.0733 15.9337 39.2432 15.6825 39.3122C15.5826 39.3346 15.4543 39.3786 15.3788 39.405C14.399 39.8535 13.809 40.1436 13.4045 40.5712C12.6533 41.3714 12.57 41.4238 12.0995 42.1825C11.9645 42.6964 11.5091 43.05 11.0536 43.05L11.0537 43.0499Z" fill="white"/>
<path d="M23.0345 32.1109C22.9011 31.9271 22.8342 31.6904 22.8812 31.4156C22.9031 31.2623 22.959 31.121 23.0345 30.9876V32.1108V32.1109Z" fill="#DEDEDE"/>
<path d="M23.583 32.4845C23.3657 32.4221 23.1685 32.2926 23.0361 32.1109V30.9876C23.2114 30.678 23.4906 30.4087 23.6849 30.1201C23.7558 30.0347 23.8293 29.9527 23.9057 29.8738V32.0599C23.7944 32.1988 23.6874 32.3401 23.5831 32.4845H23.583ZM29.1194 28.7855V27.6917C29.3927 27.9659 29.4626 28.399 29.3178 28.7491C29.2528 28.7605 29.1864 28.7724 29.1194 28.7854V28.7855Z" fill="white"/>
<path d="M23.8792 32.527C23.7788 32.527 23.6784 32.5124 23.582 32.4845C23.6864 32.3401 23.7932 32.1988 23.9047 32.06C24.896 30.8219 26.1647 29.8269 27.6416 29.2246C28.1145 29.0313 28.61 28.8855 29.1184 28.7856C29.1854 28.7726 29.2518 28.7607 29.3167 28.7492C29.2208 28.9919 29.022 29.1952 28.7228 29.2776C26.7181 30.1796 25.2856 31.0312 24.7063 32.046C24.5155 32.3807 24.1973 32.5271 23.8792 32.5271V32.527Z" fill="white"/>
<path d="M28.7008 27.7767L28.597 27.7327C28.5056 27.6387 28.4143 27.5445 28.3232 27.4495C28.3772 27.443 28.4317 27.4396 28.4862 27.4396C28.5601 27.4396 28.6344 27.4461 28.7093 27.46C28.7219 27.4631 28.7338 27.4665 28.7458 27.4704C28.7658 27.4909 28.7854 27.5109 28.8048 27.5315C28.8607 27.589 28.8587 27.6808 28.8014 27.7362L28.7009 27.7767H28.7008Z" fill="white"/>
<path d="M26.927 28.5717L26.8205 28.5252C26.7136 28.4094 26.6073 28.2935 26.501 28.1771C26.5913 28.1326 26.6817 28.0887 26.7721 28.0447C26.859 28.1397 26.9463 28.2345 27.0333 28.329C27.0878 28.3873 27.0838 28.4788 27.0254 28.5333L26.927 28.5717V28.5717Z" fill="white"/>
<path d="M25.5937 29.735L25.4829 29.6836L24.9365 29.0357C25.0179 28.9823 25.1003 28.931 25.1837 28.88L25.7042 29.4968C25.7561 29.5583 25.748 29.6492 25.6872 29.701L25.5937 29.735Z" fill="white"/>
<path d="M43.2412 27.0564V26.943C43.2562 26.9675 43.2712 26.9925 43.2862 27.0185C43.2712 27.0309 43.2562 27.0434 43.2412 27.0564V27.0564Z" fill="#DEDEDE"/>
<path d="M37.1585 31.0451C36.8938 30.8078 36.6142 30.5841 36.3145 30.3753C36.3844 29.9538 36.699 29.5721 37.1585 29.5187V31.0451ZM42.3728 27.846V26.5484C42.4127 26.5415 42.4578 26.538 42.5026 26.538C42.7923 26.538 43.077 26.7027 43.2418 26.943V27.0564C42.9371 27.3066 42.6474 27.5703 42.3728 27.846L42.3728 27.846Z" fill="white"/>
<path d="M38.7457 33.5278C38.501 33.5278 38.2513 33.4375 38.0715 33.2452C37.9466 33.1512 37.7967 32.7792 37.7767 32.7013C37.7269 32.5984 37.6769 32.4954 37.6269 32.3916C37.2573 31.7094 37.4821 32.0435 37.0575 31.5934L37.0126 31.553C36.9377 31.5046 36.8678 31.4587 36.7929 31.4126C36.3833 31.1789 36.2484 30.7604 36.3134 30.3753C36.6131 30.5841 36.8927 30.8078 37.1574 31.0451C37.9415 31.7503 38.5759 32.5739 39.0203 33.4744C39.6297 31.3433 40.8084 29.3994 42.3718 27.846C42.6464 27.5704 42.9361 27.3066 43.2408 27.0565C43.2558 27.0434 43.2708 27.0309 43.2858 27.0185C43.3706 27.1738 43.4056 27.3536 43.3706 27.5379C43.3656 27.7796 43.2008 27.9804 43.026 28.1367C42.4716 28.5858 42.8213 28.2596 42.3467 28.6836C41.208 29.8754 40.7535 30.287 40.1492 31.5401L40.1043 31.645L40.0943 31.6644C39.9045 32.1138 39.8295 32.6033 39.6098 33.0403C39.4351 33.3555 39.0904 33.5278 38.7458 33.5278L38.7457 33.5278Z" fill="white"/>
</g>
<defs>
<clipPath id="clip0_963_23537">
<rect width="86" height="86" fill="white"/>
</clipPath>
</defs>
</svg>
