<svg width="86" height="86" viewBox="0 0 86 86" fill="none" xmlns="http://www.w3.org/2000/svg">
<g clip-path="url(#clip0_948_21488)">
<path d="M8.46094 45.9588H14.9241V19.3054H8.46094V45.9588Z" fill="white"/>
<path d="M8.92274 45.4971H14.4626V19.7671H8.92274V45.4971ZM14.9242 46.4204H8.46115C8.20652 46.4204 8 46.2134 8 45.9588V19.3056C8 19.051 8.20652 18.844 8.46115 18.844H14.9242C15.1788 18.844 15.3853 19.051 15.3853 19.3056V45.9588C15.3853 46.2134 15.1788 46.4204 14.9242 46.4204Z" fill="black"/>
<path d="M22.3096 37.1145H28.7697V10.4614H22.3096V37.1145Z" fill="white"/>
<path d="M22.7714 36.6524H28.3101V10.9231H22.7714V36.6524ZM28.7701 37.5757H22.3092C22.0546 37.5757 21.8477 37.3693 21.8477 37.1146V10.4616C21.8477 10.2068 22.0546 10 22.3092 10H28.7701C29.0248 10 29.2317 10.2068 29.2317 10.4616V37.1146C29.2317 37.3693 29.0248 37.5757 28.7701 37.5757Z" fill="black"/>
<path d="M36.3896 42.1359H42.8521V15.4832H36.3896V42.1359Z" fill="white"/>
<path d="M36.8509 41.6743H42.3901V15.9449H36.8509V41.6743ZM42.8517 42.5975H36.3893C36.1345 42.5975 35.9277 42.3906 35.9277 42.1359V15.4833C35.9277 15.2281 36.1345 15.0217 36.3893 15.0217H42.8517C43.1063 15.0217 43.3133 15.2281 43.3133 15.4833V42.1359C43.3133 42.3906 43.1063 42.5975 42.8517 42.5975Z" fill="black"/>
<path d="M20.1044 53.2024C32.6541 53.342 45.2024 53.4814 57.7559 53.621C61.1994 53.6594 64.6853 53.6932 68.0332 52.8889C71.3813 52.085 74.6336 50.3426 76.565 47.4907C78.4963 44.639 78.8147 40.5703 76.7612 37.8051C75.1112 35.5783 72.1825 34.5128 69.4181 34.6931C66.6485 34.873 65.5872 35.5512 63.4172 37.2803C63.9107 35.7034 64.2501 34.8497 64.1175 32.9604C63.9848 31.0704 63.0405 29.3094 61.8042 27.8773C58.5517 24.1257 53.0549 22.4914 48.285 23.8593C43.5151 25.2271 39.7162 29.5254 38.9469 34.4289C37.684 29.5651 31.5665 26.8274 26.916 28.7257C22.2633 30.6236 19.7659 36.3788 21.1003 41.2235C20.0052 39.1256 17.346 38.1367 15.0237 38.5941C12.7018 39.0513 10.7535 40.7317 9.51884 42.7506C8.84173 43.858 8.3388 45.1413 8.48841 46.4307C8.73462 48.5583 10.643 50.0905 12.5521 51.0609C15.5801 52.6003 18.996 53.1903 20.1044 53.2025V53.2024Z" fill="white"/>
<path d="M20.109 52.7405L57.7611 53.1588C61.125 53.197 64.6108 53.2356 67.9217 52.4398C71.5667 51.5655 74.5009 49.7159 76.1828 47.2317C78.1193 44.3724 78.2043 40.5235 76.3898 38.0796C74.9148 36.0921 72.2564 34.9715 69.4498 35.1534C66.8234 35.3238 65.8419 35.9361 63.7036 37.6409C63.5498 37.7677 63.3216 37.7756 63.1571 37.6611C62.9873 37.5465 62.9184 37.3358 62.9768 37.1422L63.0987 36.7602C63.5179 35.4364 63.7725 34.6367 63.6558 32.9925C63.5126 30.9502 62.3771 29.2477 61.454 28.1795C58.3395 24.5871 52.9805 22.9927 48.4123 24.3031C43.844 25.6126 40.1406 29.8052 39.403 34.5004C39.3713 34.7164 39.1908 34.8793 38.9733 34.8898C38.7559 34.9036 38.5542 34.7571 38.5011 34.5449C37.9652 32.472 36.4159 30.6626 34.2565 29.5803C31.9484 28.4226 29.269 28.2628 27.0899 29.1526C22.7848 30.9095 20.2449 36.3807 21.5454 41.1003C21.6075 41.3278 21.4887 41.566 21.2695 41.6526C21.0504 41.7401 20.8 41.6462 20.6906 41.4365C19.7495 39.6327 17.3501 38.6044 15.1132 39.0464C13.098 39.4431 11.2028 40.8811 9.91247 42.9906C9.15477 44.2301 8.82942 45.3698 8.94679 46.3768C9.18337 48.4259 11.1518 49.8314 12.7617 50.6496C15.6172 52.1013 18.9567 52.7279 20.1091 52.7405L20.109 52.7405ZM59.9418 54.0985C59.2042 54.0985 58.4774 54.0904 57.7505 54.0826L20.0989 53.6638C18.9955 53.6517 15.5105 53.0824 12.3429 51.4725C10.5321 50.5514 8.31326 48.939 8.0293 46.4829C7.88824 45.2657 8.25698 43.9293 9.12495 42.5095C10.5496 40.1797 12.6672 38.5873 14.9343 38.1406C16.908 37.7511 18.9348 38.3109 20.3191 39.5148C19.8703 34.8096 22.4966 30.0297 26.7413 28.2978C29.1628 27.3088 32.1288 27.4796 34.6703 28.7552C36.5378 29.6901 37.9917 31.1241 38.8299 32.8125C40.0981 28.3715 43.6848 24.6968 48.1576 23.4153C53.1343 21.9886 58.7585 23.66 62.1489 27.5751C63.1677 28.7493 64.4145 30.6308 64.5736 32.9276C64.6691 34.2721 64.5365 35.1206 64.2871 36.0284C65.863 34.8764 67.0462 34.3847 69.386 34.2323C72.5112 34.028 75.4718 35.2929 77.1325 37.5298C79.1753 40.2778 79.0957 44.5755 76.9468 47.7495C75.1375 50.4245 72.007 52.4088 68.1392 53.3374C65.4386 53.9859 62.669 54.0984 59.9417 54.0984L59.9418 54.0985Z" fill="black"/>
<path d="M40.2144 53.9085C40.1454 53.9085 40.0818 53.9007 40.0234 53.885L40.8723 53.8946C40.6601 53.8996 40.4479 53.9038 40.2357 53.9085C40.2304 53.9085 40.2251 53.9085 40.2144 53.9085Z" fill="#DEDEDE"/>
<path d="M59.9369 53.1754C59.2101 53.1754 58.4831 53.1674 57.7617 53.159L39.4301 52.9556C39.4301 52.9362 39.4353 52.9175 39.4406 52.8985C38.9101 52.9069 38.3795 52.9212 37.8542 52.9382L23.0755 52.7736C22.6112 52.7381 22.1469 52.6995 21.6822 52.6744C20.5684 52.6526 19.4499 52.6644 18.3469 52.4835C17.7187 52.3597 17.0883 52.2182 16.4554 52.0686C15.2733 51.7331 13.9739 51.2659 12.7621 50.6498C12.2919 50.4108 11.7915 50.1218 11.3125 49.7817C11.3608 49.4763 11.53 49.1923 11.8303 49.0279C11.9974 48.9205 12.1762 48.8831 12.3588 48.8831C12.6028 48.8831 12.8538 48.9507 13.092 49.0113C13.8061 49.1769 14.5319 49.2899 15.2477 49.449C17.3648 49.8853 18.409 50.1615 19.182 50.2098C20.8014 50.2911 22.4222 50.2837 24.0395 50.4193C26.538 50.4481 29.0359 50.4216 31.535 50.5148C32.2831 50.5648 33.0312 50.5822 33.7793 50.5822C35.4824 50.5822 37.1856 50.4904 38.8941 50.4751C39.6794 50.4675 40.4646 50.4644 41.2551 50.4644C44.3484 50.4644 47.4417 50.5155 50.5404 50.5726C52.5989 50.6008 54.6683 50.5345 56.7216 50.7133C57.0612 50.7366 57.4008 50.7456 57.7402 50.7456C58.8174 50.7456 59.8892 50.6549 60.9662 50.6507C64.0223 50.5775 67.8479 50.6692 70.0445 50.2001C70.9252 49.9975 71.8324 49.8685 72.6815 49.5508L72.7292 49.5284C72.9414 49.3783 73.1749 49.3084 73.3924 49.3084C73.6365 49.3084 73.8646 49.3968 74.0185 49.5592C72.395 50.8739 70.3151 51.8664 67.9222 52.4397C65.3222 53.0652 62.611 53.1751 59.9369 53.1751L59.9369 53.1754Z" fill="#DEDEDE"/>
<path d="M73.1855 51.2811C73.4137 51.1369 73.6419 50.9872 73.8648 50.8328C73.679 50.9972 73.4509 51.1463 73.1855 51.2811Z" fill="#DEDEDE"/>
<path d="M40.8723 53.8946L40.0234 53.8849C39.6043 53.7816 39.3814 53.3481 39.4292 52.9555L57.7608 53.1588C58.4823 53.1673 59.2092 53.1752 59.936 53.1752C62.6101 53.1752 65.3214 53.0653 67.9214 52.4398C70.3142 51.8665 72.3941 50.874 74.0177 49.5593C74.198 49.7428 74.2883 50.0209 74.2192 50.3716C74.1397 50.5372 74.0177 50.6911 73.8638 50.8328C73.6409 50.9872 73.4128 51.1369 73.1846 51.2811C72.2031 51.7767 70.7493 52.0822 69.4387 52.2696C69.2954 52.5348 69.0249 52.7334 68.7119 52.7984C68.2449 52.9793 67.7621 53.1228 67.2686 53.2225C65.5338 53.5712 63.7456 53.545 61.9787 53.648C60.8115 53.7371 59.6443 53.7681 58.477 53.7681C56.6147 53.7681 54.7523 53.6895 52.8846 53.644C48.8841 53.7154 44.8782 53.8092 40.8723 53.8947V53.8946ZM33.7626 53.0482C30.9505 52.9502 28.14 52.8633 25.3264 52.8633C25.2016 52.8633 25.0765 52.8633 24.9523 52.8636C24.9438 52.8636 24.9359 52.8636 24.9279 52.8636C24.3083 52.8636 23.6916 52.8207 23.0747 52.7735L37.8533 52.938C36.4898 52.9809 35.1263 53.0388 33.7626 53.0483V53.0482ZM16.4546 52.0684C15.0166 51.7284 13.5666 51.3474 12.0932 51.0454C11.5063 50.9043 11.2273 50.3111 11.3117 49.7816C11.7907 50.1216 12.2911 50.4107 12.7612 50.6497C13.973 51.2657 15.2725 51.733 16.4546 52.0684Z" fill="black"/>
<path d="M43.3135 64.0787L51.6012 75.2549L59.8941 64.0787H55.2251L55.5328 33.094H48.285L47.9773 64.0787H43.3135Z" fill="#BEE8FF"/>
<path d="M44.2315 64.5404L51.6012 74.4802L58.9763 64.5404H55.2252C55.103 64.5404 54.9863 64.4909 54.8962 64.404C54.8112 64.3159 54.7636 64.1978 54.7636 64.0746L55.0659 33.5556H48.7468L48.4391 64.0835C48.4391 64.3366 48.2321 64.5404 47.9774 64.5404H44.2315V64.5404ZM51.6012 75.7165C51.458 75.7165 51.32 75.6475 51.2299 75.5297L42.9422 64.3542C42.8361 64.214 42.8201 64.0274 42.8998 63.8713C42.9794 63.7159 43.1385 63.6172 43.3136 63.6172H47.521L47.8235 33.0892C47.8289 32.8361 48.0357 32.6323 48.285 32.6323H55.5329C55.6548 32.6323 55.777 32.6816 55.8618 32.7688C55.9467 32.8569 55.9944 32.9751 55.9944 33.0983L55.692 63.6173H59.8942C60.0692 63.6173 60.2285 63.7159 60.3028 63.8713C60.3824 64.0274 60.3664 64.2141 60.2656 64.3542L51.9727 75.5297C51.8877 75.6475 51.7498 75.7166 51.6012 75.7166L51.6012 75.7165Z" fill="black"/>
<path d="M27.8658 26.7599L27.7555 26.7133C26.2094 25.1162 24.6834 23.4559 23.2196 21.7788C23.1638 21.7146 23.1702 21.6176 23.2343 21.5614C23.2981 21.5062 23.3957 21.512 23.4513 21.5762C24.9116 23.2496 26.4338 24.9061 27.9762 26.4994C28.0356 26.5605 28.0335 26.6581 27.9726 26.7169L27.8658 26.7599L27.8658 26.7599Z" fill="black"/>
<path d="M27.7863 24.2413L27.6738 24.193C26.1733 22.5986 24.6823 20.9536 23.2418 19.3031C23.1861 19.2389 23.193 19.1418 23.2566 19.0855C23.3203 19.0303 23.418 19.0362 23.4743 19.1004C24.9121 20.7484 26.4003 22.391 27.8982 23.9818C27.9565 24.0438 27.9534 24.1409 27.8913 24.1993L27.7862 24.2413H27.7863Z" fill="black"/>
<path d="M27.7694 21.4446L27.6632 21.4016C26.1664 19.9659 24.7181 18.4452 23.3571 16.8816C23.3013 16.8174 23.3082 16.7198 23.372 16.6646C23.4362 16.6083 23.5332 16.6153 23.589 16.6795C24.944 18.2361 26.3862 19.7504 27.876 21.1798C27.9376 21.2381 27.9397 21.3357 27.8802 21.3968L27.7694 21.4446Z" fill="black"/>
<path d="M27.6864 18.9475L27.5708 18.8949C26.2051 17.335 24.7682 15.801 23.3012 14.3345C23.2407 14.2746 23.2407 14.1775 23.3012 14.117C23.3612 14.057 23.4582 14.057 23.5187 14.117C24.9911 15.5884 26.4316 17.1276 27.8021 18.6922C27.8579 18.7564 27.8514 18.8536 27.7878 18.9092L27.6864 18.9474V18.9475Z" fill="black"/>
<path d="M27.6152 16.0919L27.5031 16.0436C26.191 14.6499 24.8088 13.2857 23.3938 11.989C23.3313 11.9317 23.3265 11.8347 23.3842 11.772C23.4415 11.7088 23.5391 11.7052 23.6018 11.7625C25.0222 13.0639 26.4101 14.4335 27.727 15.8325C27.7854 15.8946 27.7822 15.9922 27.7207 16.0506L27.6151 16.0919H27.6152Z" fill="black"/>
<path d="M27.484 13.5873L27.3698 13.5369C26.8489 12.9611 26.2976 12.3965 25.7315 11.8592C25.6698 11.8002 25.6673 11.7032 25.7261 11.6415C25.7845 11.5796 25.8822 11.5779 25.9437 11.6363C26.5151 12.1791 27.0717 12.749 27.5986 13.33C27.6553 13.3931 27.6506 13.4908 27.5875 13.548L27.484 13.5873H27.484Z" fill="black"/>
<path d="M25.9829 27.6045L25.8698 27.5552C25.038 26.6543 24.2124 25.7305 23.4165 24.8084C23.3609 24.7442 23.3676 24.647 23.4325 24.5914C23.4967 24.5357 23.5937 24.5431 23.6489 24.6073C24.4432 25.5263 25.2662 26.4479 26.0959 27.3467C26.1538 27.4087 26.1496 27.5058 26.0875 27.5637L25.983 27.6045L25.9829 27.6045Z" fill="black"/>
<path d="M24.5653 28.8401L24.4475 28.7855L23.3095 27.4373C23.2549 27.3726 23.2633 27.2755 23.328 27.2209C23.3928 27.1661 23.4904 27.1741 23.545 27.2394L24.6826 28.5871C24.7378 28.6524 24.7292 28.7489 24.6646 28.804L24.5653 28.8401Z" fill="black"/>
<path d="M8.92285 42.8544V40.3548C9.08784 40.1287 9.24966 39.914 9.37389 39.7143C10.2435 38.4467 11.5519 37.5719 12.994 37.0773C13.2413 37.0009 13.5022 36.915 13.7629 36.915C13.8546 36.915 13.9463 36.9256 14.0377 36.9516C14.2012 36.9946 14.3444 37.0769 14.4627 37.185V38.2505C12.3748 38.8128 10.4505 40.3421 9.125 42.5095C9.05447 42.6252 8.98706 42.7402 8.92285 42.8544V42.8544Z" fill="#DEDEDE"/>
<path d="M8.87065 42.9499C8.65678 42.8882 8.45464 42.7429 8.29598 42.4951C7.93789 41.7692 8.44141 41.0159 8.92313 40.3547V42.8544C8.90567 42.8861 8.88811 42.918 8.87065 42.9499ZM14.463 38.2505V37.1851C14.7298 37.4303 14.8673 37.8085 14.8093 38.1667C14.6932 38.1916 14.5776 38.2197 14.463 38.2505Z" fill="black"/>
<path d="M9.12007 42.9848C9.03617 42.9848 8.95237 42.9732 8.87012 42.9499C8.88758 42.918 8.90514 42.8861 8.9226 42.8544C8.9868 42.7402 9.05422 42.6252 9.12474 42.5095C10.4502 40.3421 12.3746 38.8128 14.4624 38.2505C14.577 38.2197 14.6927 38.1916 14.8088 38.1667C14.7887 38.2898 14.7458 38.4102 14.6767 38.5227C14.5372 38.7604 14.3042 38.9408 14.0374 39.0141C13.9312 39.0379 13.795 39.0846 13.7148 39.1127C12.6739 39.5892 12.0471 39.8974 11.6175 40.3516C10.8194 41.2017 10.7309 41.2573 10.231 42.0633C10.0877 42.6092 9.60389 42.9848 9.12003 42.9848L9.12007 42.9848Z" fill="black"/>
<path d="M21.8477 31.3642C21.706 31.169 21.6349 30.9175 21.6849 30.6256C21.7082 30.4627 21.7676 30.3126 21.8477 30.1709V31.3642V31.3642Z" fill="#DEDEDE"/>
<path d="M22.7715 31.3102V28.9878C23.0988 28.6478 23.4708 28.3571 23.8672 28.0974L24.4476 28.7857L24.5654 28.8402L24.6646 28.8041C24.7293 28.7491 24.7379 28.6525 24.6827 28.5873L24.1298 27.932C24.5819 27.6571 25.0578 27.4167 25.53 27.1854C25.643 27.309 25.7559 27.4322 25.8695 27.5552L25.9826 27.6046L26.0871 27.5638C26.1492 27.5059 26.1534 27.4088 26.0955 27.3468C26.0031 27.2465 25.9103 27.1457 25.818 27.0448C25.8222 27.0427 25.827 27.0406 25.8319 27.0385C26.3625 26.8544 26.8994 26.4798 27.4649 26.4124C27.5616 26.5133 27.6586 26.6134 27.7558 26.7133L27.866 26.7599L27.9728 26.7169C28.0337 26.6581 28.0358 26.5605 27.9764 26.4995C27.9558 26.4777 27.935 26.4565 27.9138 26.4346C28.074 26.4841 28.2062 26.5662 28.3101 26.6697V27.8317C27.77 27.9379 27.2436 28.0928 26.7413 28.2981C25.1723 28.9379 23.8246 29.9949 22.7715 31.3102H22.7715Z" fill="#DEDEDE"/>
<path d="M22.4287 31.7612C22.1978 31.6949 21.9883 31.5574 21.8477 31.3643V30.171C22.0338 29.8421 22.3305 29.556 22.5368 29.2494C22.6122 29.1587 22.6902 29.0716 22.7715 28.9878V31.3102C22.6531 31.4577 22.5396 31.6078 22.4287 31.7612H22.4287ZM28.31 27.8317V26.6697C28.6003 26.961 28.6746 27.4211 28.5207 27.793C28.4517 27.8052 28.3812 27.8178 28.31 27.8316V27.8317Z" fill="black"/>
<path d="M22.7444 31.8062C22.6378 31.8062 22.5311 31.7907 22.4287 31.7611C22.5396 31.6077 22.6531 31.4576 22.7715 31.31C23.8246 29.9948 25.1723 28.9378 26.7413 28.298C27.2436 28.0927 27.77 27.9378 28.3101 27.8316C28.3813 27.8178 28.4518 27.8051 28.5208 27.793C28.4189 28.0508 28.2077 28.2667 27.8899 28.3543C25.7602 29.3125 24.2385 30.2172 23.6231 31.2952C23.4203 31.6508 23.0823 31.8063 22.7444 31.8063V31.8062Z" fill="black"/>
<path d="M27.866 26.7599L27.7557 26.7133C27.6585 26.6134 27.5615 26.5133 27.4648 26.4124C27.5221 26.4055 27.5801 26.4019 27.638 26.4019C27.7165 26.4019 27.7954 26.4088 27.875 26.4235C27.8883 26.4268 27.901 26.4304 27.9138 26.4346C27.935 26.4564 27.9558 26.4776 27.9764 26.4995C28.0358 26.5606 28.0337 26.6581 27.9728 26.7169L27.866 26.7599H27.866Z" fill="black"/>
<path d="M25.9828 27.6045L25.8697 27.5551C25.7562 27.4321 25.6432 27.3089 25.5303 27.1853C25.6262 27.1381 25.7223 27.0914 25.8183 27.0447C25.9106 27.1456 26.0034 27.2463 26.0958 27.3467C26.1537 27.4086 26.1495 27.5058 26.0873 27.5637L25.9828 27.6045V27.6045Z" fill="black"/>
<path d="M24.5654 28.8401L24.4476 28.7856L23.8672 28.0973C23.9537 28.0406 24.0412 27.986 24.1298 27.9319L24.6827 28.5872C24.7379 28.6524 24.7293 28.749 24.6646 28.804L24.5654 28.8401Z" fill="black"/>
<path d="M43.3135 25.9947V25.8743C43.3294 25.9003 43.3454 25.9268 43.3613 25.9544C43.3453 25.9677 43.3294 25.9809 43.3135 25.9947Z" fill="#DEDEDE"/>
<path d="M38.8305 32.8127C38.3584 31.856 37.6845 30.9811 36.8516 30.232V28.6105C36.8887 28.6063 36.9259 28.6041 36.9682 28.6041C37.0319 28.6041 37.0956 28.6094 37.1593 28.6205C37.5625 28.6466 37.8702 28.9734 38.1779 29.203C38.2841 29.2971 38.3849 29.3984 38.4804 29.5029C38.8624 28.758 39.2763 28.1388 39.7855 27.586C40.4967 26.7747 41.2607 25.8891 42.2846 25.4805C42.3218 25.4694 42.3536 25.4614 42.3908 25.4551V26.8335C40.73 28.4837 39.4778 30.5487 38.8305 32.8127H38.8305Z" fill="#DEDEDE"/>
<path d="M36.8508 30.2319C36.5695 29.9798 36.2725 29.7422 35.9541 29.5203C36.0284 29.0725 36.3626 28.6671 36.8508 28.6104V30.2319ZM42.39 26.8334V25.455C42.4324 25.4476 42.4803 25.4438 42.5279 25.4438C42.8356 25.4438 43.1381 25.6189 43.3132 25.8741V25.9946C42.9895 26.2604 42.6818 26.5405 42.39 26.8334L42.39 26.8334Z" fill="black"/>
<path d="M38.5379 32.8693C38.278 32.8693 38.0127 32.7734 37.8217 32.5691C37.689 32.4693 37.5297 32.074 37.5085 31.9913C37.4556 31.8819 37.4025 31.7726 37.3494 31.6623C36.9567 30.9376 37.1956 31.2925 36.7445 30.8144L36.6968 30.7714C36.6172 30.72 36.543 30.6713 36.4634 30.6223C36.0283 30.374 35.885 29.9295 35.954 29.5203C36.2724 29.7422 36.5694 29.9798 36.8507 30.2319C37.6836 30.981 38.3575 31.8559 38.8296 32.8126C39.477 30.5486 40.7292 28.4836 42.3899 26.8335C42.6817 26.5406 42.9894 26.2604 43.3131 25.9947C43.3291 25.9808 43.345 25.9676 43.3609 25.9543C43.451 26.1193 43.4882 26.3103 43.451 26.5062C43.4457 26.7629 43.2707 26.9762 43.0849 27.1422C42.496 27.6193 42.8675 27.2728 42.3633 27.7232C41.1537 28.9893 40.6709 29.4265 40.0288 30.7577L39.9812 30.8691L39.9705 30.8897C39.7689 31.3672 39.6892 31.8872 39.4558 32.3515C39.2702 32.6862 38.904 32.8693 38.538 32.8693L38.5379 32.8693Z" fill="black"/>
</g>
<defs>
<clipPath id="clip0_948_21488">
<rect width="86" height="86" fill="white"/>
</clipPath>
</defs>
</svg>
