<svg xmlns="http://www.w3.org/2000/svg" xmlns:xlink="http://www.w3.org/1999/xlink" version="1.1" id="Layer_1" x="0px" y="0px" viewBox="0 0 683 580" style="enable-background:new 0 0 683 580;" xml:space="preserve">
    <style type="text/css">
        .stRechtsLawLight0{fill:#FFFFFF;}
        .stRechtsLawLight1{fill:transparent;stroke:#000000;stroke-width:0.97;stroke-miterlimit:10;}
        .stRechtsLawLight2{fill:#FFFFFF;stroke:#000000;stroke-miterlimit:10;}
        .stRechtsLawLight3{fill:#BEE8FF;stroke:#000000;stroke-width:1.47;stroke-miterlimit:10;}
        .stRechtsLawLight4{fill:#BEE8FF;stroke:#000000;stroke-width:1.52;stroke-miterlimit:10;}
        .stRechtsLawLight5{fill:#BEE8FF;stroke:#000000;stroke-miterlimit:10;}
        .stRechtsLawLight6{fill:#50B8E7;stroke:#000000;stroke-miterlimit:10;}
        .stRechtsLawLight7{fill:none;stroke:#000000;stroke-width:0.97;stroke-miterlimit:10;}
        .stRechtsLawLight8{fill:#06005A;}
        .stRechtsLawLight9{opacity:0.13;}
        .stRechtsLawLight10{fill:#BEE8FF;}
    </style>
    <g>
        <polygon class="stRechtsLawLight0" points="331.2,47.5 334.2,46.5 361.1,46.4 362.2,48.5 362.2,52.5 361.7,57 360.7,60 360.7,65 360.9,77.1    360.9,102.1 360.4,104.9 360.4,110.1 360.3,116.8 360.3,132.6 359.9,140.5 359.7,152 359.4,162.8 354.2,164.2 351.7,166 351.7,168    350.7,170 348.7,171 346.2,171 344.7,172 343,172.7 340.7,175 340.7,177.7 341.7,180 342.7,181 343.7,181 342.4,182.1 340.7,184    339.7,186 339.7,189.8 341.4,192.1 342.7,193 345.7,194 346.6,194.2 346.7,197 345.7,202 343.7,211 343.7,217 344.7,221 346,224.2    349.7,228 351.8,230.3 352.5,230.9 352.5,241.2 350.7,242 348.7,243 347.7,244 347.7,245 345.7,245 340.2,245.6 333.7,247    329.7,249 329.3,246.9 329.6,230.1 330,213.6 330,204 330.2,195.8 330.3,186.9 330.4,178.5 330.6,170.2 330.7,161.5 330.8,155.6    330.9,149.7 331,145.3 331.2,130 331.5,112.7 331.9,89.2 332.1,74.7 332.3,58.3 331.7,56 330.7,52  "/>
        <path class="stRechtsLawLight1" d="M15,333l0.5-1.4l76.2-230.1c0-0.1,0.1-0.1,0.1-0.1c0.1,0,0.1,0,0.2,0.1l84.3,231.9l0.6,1.7   c0,0.1,0,0.2-0.1,0.2c-0.1,0-0.2,0-0.2-0.1l-0.7-1.8L91.8,102.1l-76,229.6L15,334"/>
        <path class="stRechtsLawLight2" d="M1.4,553l7.2-15.5c0,17.2,50,21.3,111.7,21.3c61.7,0,111.7-1.3,111.7-21.3c0-0.3-0.1-0.5-0.1-0.8l0.1-0.2   l7.3,16.8c0.5,0.9,0.7,1.9,0.7,3c0,21.4-53.6,22.8-119.7,22.8c-66.1,0-119.7-4.4-119.7-22.8C0.6,555.1,0.9,554,1.4,553L1.4,553z"/>
        <path class="stRechtsLawLight2" d="M120.3,517.5c60.5,0,109.7,5.5,111.6,19.2c0,0.3,0.1,0.5,0.1,0.8c0,20-50,21.3-111.7,21.3   c-61.7,0-111.7-4.1-111.7-21.3C8.6,521.9,58.6,517.5,120.3,517.5L120.3,517.5z"/>
        <path class="stRechtsLawLight3" d="M312,491.5L463.7,527l64.7,15.1l20.4-30.6l-68-15.9l-154.9-36.3c0.5,13.7-0.1,25.6-3.1,32.8   C322.8,492.2,318.8,491.9,312,491.5L312,491.5z"/>
        <path class="stRechtsLawLight4" d="M223.1,469.6c1,0.5,2,0.9,3.1,1.2l77.3,18.5l52.3,12.6c-0.2-10.2-0.4-23-0.4-35.6l-43.6-10.4l-77.9-18.7   c-1.1-0.3-2.2-0.4-3.3-0.4c-6.3,0.1-12.1,4.5-13.5,11.1l-1.3,5.7C214.2,460.1,217.5,466.7,223.1,469.6L223.1,469.6z"/>
        <path class="stRechtsLawLight5" d="M620.3,545c1.7-7.2-2.8-14.5-10.1-16.2c-7.2-1.7-14.5,2.8-16.2,10.1c-1.7,7.2,2.8,14.5,10.1,16.2   C611.4,556.7,618.7,552.2,620.3,545z"/>
        <path class="stRechtsLawLight6" d="M222.6,472l8.5-36.4c1.3-5.6-2.2-11.2-7.8-12.5c-5.6-1.3-11.2,2.2-12.5,7.8l-8.5,36.4   c-1.3,5.6,2.2,11.2,7.8,12.5C215.7,481.1,221.3,477.6,222.6,472z"/>
        <path class="stRechtsLawLight6" d="M182.4,538.6c-0.6,2.8-3.4,4.5-6.2,3.8l-75.1-17.6c-2.8-0.6-4.5-3.4-3.8-6.2c0.6-2.8,3.4-4.5,6.2-3.8   l75.1,17.6C181.3,533.1,183,535.9,182.4,538.6z"/>
        <path class="stRechtsLawLight5" d="M206.7,484.2c-3.1,13.1-16.3,21.3-29.4,18.2l-59.6-13.9c-13.1-3.1-21.3-16.3-18.2-29.4   c3.1-13.1,16.3-21.3,29.4-18.2l59.6,13.9C201.6,457.9,209.8,471.2,206.7,484.2z"/>
        <path class="stRechtsLawLight5" d="M198.6,523.2c-1.9,8.2-10.2,13.3-18.4,11.4L100.9,516c-8.2-1.9-13.3-10.2-11.4-18.4   c1.9-8.2,10.2-13.3,18.4-11.4l79.3,18.6C195.4,506.7,200.5,515,198.6,523.2z"/>
        <path class="stRechtsLawLight6" d="M224.6,358.1c0.6-2.8-1.1-5.6-3.8-6.2l-75.1-17.6c-2.8-0.6-5.6,1.1-6.2,3.8c-0.6,2.8,1.1,5.6,3.8,6.2   l75.1,17.6C221.2,362.6,224,360.9,224.6,358.1z"/>
        <path class="stRechtsLawLight5" d="M222.3,417.6c3.1-13.1-5.1-26.3-18.2-29.4l-59.6-13.9c-13.1-3.1-26.3,5.1-29.4,18.2   c-3.1,13.1,5.1,26.3,18.2,29.4l59.6,13.9C206,438.9,219.2,430.7,222.3,417.6z"/>
        <path class="stRechtsLawLight6" d="M214.5,450.9c5.4-23.2-9-46.4-32.2-51.8l-23.2-5.4c-23.2-5.4-46.4,9-51.8,32.2c-5.4,23.1,9.1,46.4,32.2,51.8   l23.2,5.4C185.8,488.5,209.1,474,214.5,450.9z"/>
        <path class="stRechtsLawLight5" d="M232.3,379.2c1.9-8.2-3.2-16.5-11.4-18.4l-79.3-18.6c-8.2-1.9-16.5,3.2-18.4,11.4s3.2,16.5,11.4,18.4   l79.3,18.6C222.1,392.5,230.4,387.4,232.3,379.2z"/>
        <path class="stRechtsLawLight6" d="M607.4,541.9c3.3-14.2-5.6-28.6-19.8-31.9l-47.5-11.1c-14.2-3.3-28.6,5.6-31.9,19.8   c-3.3,14.2,5.6,28.6,19.8,31.9l47.5,11.1C589.7,565.1,604.1,556.2,607.4,541.9z"/>
        <path class="stRechtsLawLight2" d="M361.3,47.5l0.3-20.9L345.3,1l-12.4,25.6l-0.3,21"/>
        <path class="stRechtsLawLight2" d="M357.6,297.5l3.6-239.7"/>
        <path class="stRechtsLawLight2" d="M327.6,358.3l4.8-300.4"/>
        <path class="stRechtsLawLight5" d="M177.4,333.5l-162.5-1.8c0,0-0.5,40,21.6,50.5c22,10.5,99,15,123.4-6.5C177.3,360.2,177.4,333.5,177.4,333.5   L177.4,333.5z"/>
        <path class="stRechtsLawLight7" d="M519.9,333l0.5-1.4l76.2-230.1c0-0.1,0.1-0.1,0.2-0.1c0.1,0,0.1,0,0.1,0.1l84.3,231.9l0.6,1.7   c0,0.1,0,0.2-0.1,0.2c-0.1,0-0.2,0-0.2-0.1l-0.7-1.8l-84.1-231.4l-76,229.6l-0.8,2.3"/>
        <path class="stRechtsLawLight5" d="M682.4,333.5l-162.5-1.8c0,0-0.5,40,21.6,50.5c22,10.5,99,15,123.4-6.5C682.2,360.2,682.4,333.5,682.4,333.5z"/>
        <path class="stRechtsLawLight2" d="M361.1,57.8c153.3-3,231.4,43.2,232.2,43.7c0.9,0.5,1.9,0.8,2.9,0.8c1.3,0,2.6-0.4,3.6-1.3l26.5-22.7   c2.2-1.9,2.4-5.2,0.5-7.3c-2-2.1-5.4-2.3-7.6-0.4l-23.6,20.2c-7.6-4.1-27.6-13.8-60.2-23.1C499.3,57.4,440.5,46,361.3,47.5"/>
        <path class="stRechtsLawLight2" d="M332.5,47.6c-81.8-2.1-142.4,9.6-179.2,20.1c-32.6,9.3-52.5,19-60.2,23.1L69.5,70.6c-2.2-1.9-5.6-1.7-7.6,0.4   c-2,2.1-1.8,5.4,0.4,7.3L88.9,101c1,0.9,2.3,1.3,3.6,1.3c1,0,2-0.3,2.9-0.8c0.8-0.5,80.5-47.6,237-43.6"/>
        <path class="stRechtsLawLight8" d="M596.1,104.9c1.1,0,2-0.9,2-2V90.5c0-1.1-0.9-2-2-2c-1.1,0-2,0.9-2,2v12.3C594.1,104,595,104.9,596.1,104.9z"/>
        <path class="stRechtsLawLight8" d="M92.1,103.4c1.1,0,2-0.9,2-2V89c0-1.1-0.9-2-2-2c-1.1,0-2,0.9-2,2v12.3C90,102.5,90.9,103.4,92.1,103.4z"/>
        <path class="stRechtsLawLight0" d="M294.8,175.4c2.5-4.8,1.9-10.9,4.7-15.5c0.2-0.4,0.6-0.8,1-0.9c0.8-0.1,1.2,0.9,1.3,1.6   c0.5,3.3-0.4,6.7-0.9,10c-0.8,4.8-0.9,9.8-0.3,14.9c0.5,2.6-0.9,5.1-2.1,7.4c-2,4-3.4,8.3-4.3,12.9c-3.7,0.8-7.4-0.6-10.9-2   c-1.3-0.5-2.6-1.1-3.6-1.9c-0.3-5.6-0.2-11.3,0.2-16.9c0.1-1.5,0.2-3.1,0.6-4.6c0.3-1.2,0.7-2.3,1.6-3.1c0.9-0.8,2.4-0.9,3.3,0.1   c0.2-0.9,1-1.5,1.9-1.8c0.9-0.2,1.8-0.1,2.7,0.2c0.2,0.1,0.5,0.2,0.6,0.4c1.1-0.9,2.7-1,4-0.4C294.6,175.5,294.6,175.3,294.8,175.4   L294.8,175.4z"/>
        <path d="M279.9,204.3C279.9,204.3,279.9,204.3,279.9,204.3c0.4,0,0.6-0.3,0.6-0.6c-0.3-7.4,0-14.9,0.6-22.3c0.1-1.1,0.2-2.1,0.7-3   c0.4-0.7,1.2-1.4,2.1-1.2c0.7,0.1,1.3,0.7,1.9,1.8c1,1.8,1.7,3.8,2.1,5.8c0.1,0.6,0.2,1.2,0,1.8c-0.2,0.4-0.6,0.7-0.9,0.6   c-0.2-0.1-0.4-0.3-0.6-0.5c-1.1-1.1-1.9-2.5-2.3-4c-0.1-0.3-0.5-0.5-0.8-0.4s-0.5,0.5-0.4,0.8c0.5,1.7,1.4,3.2,2.6,4.5   c0.3,0.3,0.7,0.7,1.2,0.8c1.1,0.3,2.1-0.5,2.4-1.3c0.3-0.8,0.2-1.7,0.1-2.4c-0.4-2.2-1.1-4.3-2.2-6.2c-0.5-0.9-1.4-2.2-2.8-2.4   c-1.2-0.2-2.6,0.6-3.4,1.9c-0.6,1-0.7,2.2-0.8,3.5c-0.7,7.4-0.9,15-0.6,22.4C279.3,204,279.6,204.3,279.9,204.3L279.9,204.3z"/>
        <path d="M289.8,188.2c0.2,0,0.4,0,0.6-0.1c0.5-0.2,1-0.7,1.3-1.4c0.6-1.1,0.8-2.4,0.8-4.1c0-2-0.4-4-1.1-5.9   c-0.2-0.4-0.4-0.9-0.8-1.3c-0.3-0.3-0.7-0.4-1.2-0.5c-1.7-0.3-3.4,0.4-4.6,1.6c-0.2,0.3-0.2,0.7,0.1,0.9c0.3,0.2,0.7,0.2,0.9-0.1   c0.8-0.9,2.2-1.4,3.4-1.2c0.3,0.1,0.5,0.1,0.7,0.2c0.2,0.2,0.3,0.5,0.4,0.7c0.7,1.7,1,3.6,1,5.4c0,1.5-0.2,2.6-0.7,3.5   c-0.2,0.4-0.4,0.7-0.7,0.8c-0.2,0.1-0.4,0-0.4-0.1c-0.2-0.1-0.3-0.3-0.3-0.5c0-0.3-0.3-0.6-0.6-0.6c-0.3,0-0.6,0.3-0.6,0.6   c0,0.6,0.3,1.2,0.8,1.6C289.1,188.1,289.5,188.2,289.8,188.2L289.8,188.2z"/>
        <path d="M292.6,188.3c0.6,0,1.3-0.3,1.7-0.9c0.4-0.5,0.6-1.1,0.7-1.7c0.5-1.9,0.8-3.8,1-5.7c0.1-0.8,0.1-1.7-0.1-2.5   c-0.2-1-0.8-1.9-1.6-2.3c-1.4-0.7-2.9-0.1-4,0.4c-0.3,0.2-0.4,0.5-0.3,0.8c0.2,0.3,0.5,0.4,0.8,0.3c1.3-0.6,2.2-0.8,2.9-0.4   c0.5,0.2,0.8,0.8,1,1.4c0.2,0.7,0.1,1.4,0,2.1c-0.2,1.9-0.5,3.7-1,5.5c-0.1,0.5-0.3,0.9-0.5,1.2c-0.2,0.2-0.5,0.5-0.8,0.4   c-0.2,0-0.6-0.3-0.7-0.5c0.1-0.3-0.1-0.6-0.4-0.7c-0.3-0.1-0.7,0.1-0.8,0.4c-0.1,0.3,0,0.7,0.2,1c0.3,0.5,1,0.9,1.5,1   C292.4,188.3,292.5,188.3,292.6,188.3z"/>
        <path d="M300.6,185.8C300.6,185.8,300.6,185.8,300.6,185.8c0.4,0,0.7-0.4,0.6-0.7c-0.6-4.8-0.4-9.7,0.4-14.4   c0.1-0.6,0.2-1.2,0.3-1.8c0.5-2.7,1-5.5,0.6-8.4c-0.2-1.1-0.9-2.3-2-2.1c-0.8,0.1-1.2,0.7-1.5,1.2c-1.5,2.5-2.2,5.6-2.8,8.6   c-0.5,2.5-1.1,5.2-2.2,7.4c-0.2,0.3,0,0.7,0.3,0.8c0.3,0.2,0.7,0,0.8-0.3c1.2-2.3,1.8-5.1,2.3-7.7c0.6-2.9,1.2-5.8,2.6-8.2   c0.2-0.4,0.4-0.6,0.6-0.6c0.3,0,0.6,0.6,0.6,1.1c0.4,2.6-0.1,5.3-0.6,7.9c-0.1,0.6-0.2,1.2-0.3,1.8c-0.8,4.9-1,9.9-0.4,14.8   C300,185.6,300.3,185.9,300.6,185.8L300.6,185.8z"/>
        <path class="stRechtsLawLight0" d="M294.8,188.2c0.4-1.5,0.2-3.1-0.6-4.5c-0.4-0.9-1.1-1.6-1.4-2.5c-0.3-0.9-0.1-2.1,0.8-2.5   c0.5-0.3,1.2-0.2,1.8,0.1c1.5,0.6,2.6,1.9,3.5,3.2c0.6,0.8,1.1,1.7,1.4,2.6c0.2,0.9,0.3,1.8,0.2,2.6c0,0.6-0.1,1.1-0.4,1.6   c-0.4,0.6-1.2,0.9-1.9,1.2c-0.8,0.2-1.6,0.4-2.3,0.2C295.1,189.8,294.6,188.9,294.8,188.2L294.8,188.2z"/>
        <path d="M294.3,207.4c0.3,0,0.6-0.2,0.6-0.5c0.9-4.8,2.3-9.4,4.3-13.8l0.2-0.5c1.1-2.4,2.3-5.1,1.7-7.8c-0.4-1.8-1.5-3.3-2.7-4.7   c-0.8-0.9-1.6-1.8-2.7-2.2c-1.3-0.5-3-0.1-3.6,1.3c-0.6,1.3,0.3,2.6,1,3.6c0.1,0.2,0.3,0.4,0.4,0.6c1.3,2.1,1.1,5.1-0.4,7   c-0.2,0.3-0.2,0.7,0.1,0.9c0.3,0.2,0.7,0.2,0.9-0.1c1.9-2.3,2.1-5.9,0.5-8.4c-0.1-0.2-0.3-0.4-0.4-0.6c-0.6-0.9-1.2-1.7-0.8-2.5   c0.3-0.6,1.3-0.8,2-0.6c0.8,0.3,1.5,1.1,2.2,1.9c1.1,1.3,2.1,2.6,2.4,4.1c0.5,2.3-0.6,4.7-1.6,7.1l-0.2,0.5   c-2,4.5-3.5,9.3-4.4,14.1C293.6,207,293.9,207.4,294.3,207.4C294.2,207.4,294.3,207.4,294.3,207.4L294.3,207.4z"/>
        <g class="stRechtsLawLight9">
            <path d="M282.5,183.8c0.1-0.5,0.7-0.7,1.1-0.5c0.5,0.2,0.5,0.8,0.7,1.2c0.1,0.2,0.2,0.4,0.3,0.6c0.2,0.1,0.1,0.2,0.4,0.4    c0,0,0,0,0,0.1c0.4,0.4,0.2,0.3,0.8,0.9c0.1,0.1,0.3,0.2,0.4,0.3c1,0.5,0.7,0.3,1.4,0.5c1,0.2,1.4-0.1,2.9,0.2    c0.3,0.1,0.7,0.2,1,0.2c0.4-0.1,0.3,0,1.2-0.3c0,0,0,0,0,0c0.4-0.2,0.7-0.7,1.1-0.7c1.2-0.3,1.9,1.3,0.9,2    c-0.9,0.9-2.2,1.4-3.5,1.4c-0.1,0-0.3,0-0.4,0c-1.3-0.2-1.1-0.2-2.2-0.2c-0.7,0-0.4,0-1.6,0c-0.6-0.1-1.1-0.4-1.7-0.7    c-0.6-0.4-1.1-0.9-1.6-1.5c-0.1-0.1-0.1-0.1-0.2-0.2c-0.1-0.1-0.1-0.2-0.1-0.3c0,0,0,0,0,0c-0.2-0.3-0.5-0.6-0.5-1    c-0.2-0.4-0.3-0.7-0.4-1.1C282.6,184.5,282.3,184.1,282.5,183.8L282.5,183.8z"/>
        </g>
        <g class="stRechtsLawLight9">
            <path d="M284.8,185.5C284.7,185.4,284.7,185.3,284.8,185.5L284.8,185.5z"/>
        </g>
        <g class="stRechtsLawLight9">
            <path d="M294.7,175.3c0.2-0.5,0.9-0.7,1.4-0.3c0.4,0.4,0.4,1.2,0.8,1.7c0.4,0.7,2.7,3.5,3.4,5c0.3,0.9-1,1.5-1.5,0.7    c-0.9-1.5-1.9-2.9-3-4.3c-0.4-0.6-0.7-1.3-0.9-2C294.6,175.9,294.5,175.6,294.7,175.3L294.7,175.3z"/>
        </g>
        <path class="stRechtsLawLight0" d="M391.3,348.1c5.9-9.3,20-26.3,27-34.9c-1-3.9-17.2-18.9-25.3-28.5c-4.2,38.6-1.3,48.4-8,54.7   c-9.1,8.5-49.7,10-54.7,5.2c-3.3-3.2-5.8-8.5-6.3-12.4c-1.9-15.8,1.2-35.6,1.8-51.5c-9.5,8.5-31.4,24.7-43.4,21.8   c-7.4-1.8-9.1-9.9-9.8-13c-6.1-26.8,0-58.9,4-85.5c6.6,1.4,14.3,4,21,2.3c-1.5,21.3-3.5,49.5-2.5,63c13.6-8.8,23.1-17,38.9-22.5   c11.1-3.8,48.2-0.5,54.6,1.4c13.8,4.1,52.9,47.7,53.8,61.7c1.1,16.8-32.8,41.1-40.4,50.7C400.5,356.7,395,350.2,391.3,348.1   L391.3,348.1z"/>
        <path d="M402,361.3c0.2,0,0.4-0.1,0.5-0.2c2.1-2.6,6.2-6.5,11.1-10.9c12.8-11.7,30.3-27.8,29.5-40.3c-0.5-7.8-11.8-23.1-22.2-34.9   c-9.8-11.1-24.1-25-32-27.3c-6.5-1.9-43.8-5.2-55-1.4c-12,4.1-20.5,10-29.6,16.2c-2.7,1.9-5.6,3.8-8.6,5.8   c-0.8-13.9,1.2-41.5,2.6-61.8c0-0.2-0.1-0.4-0.2-0.5c-0.2-0.1-0.4-0.2-0.6-0.1c-5.3,1.4-11.5-0.1-17-1.4c-1.3-0.3-2.5-0.6-3.7-0.9   c-0.2,0-0.3,0-0.5,0.1c-0.1,0.1-0.2,0.3-0.3,0.4c-0.4,2.6-0.8,5.3-1.2,8c-3.9,25.1-8.2,53.5-2.7,77.7l0,0.1   c0.7,3.2,2.6,11.5,10.3,13.4c11.8,2.8,32.5-12,42.8-21c-0.2,4.7-0.6,9.6-1,14.8c-1,12.1-2,24.6-0.7,35.4c0.5,4.3,3.2,9.7,6.4,12.8   c2.9,2.8,15.7,3.3,26.3,2.6c5.3-0.4,23.2-2,29.3-7.8c4.5-4.2,4.9-9.9,5.7-23.7c0.4-7.2,1-16.9,2.4-29.9c3.1,3.6,7.2,7.8,11.1,11.9   c5.9,6.2,12,12.6,13,15l-1.9,2.3c-7.3,8.9-19.6,23.9-25,32.4c-0.1,0.1-0.1,0.3-0.1,0.5c0,0.2,0.2,0.3,0.3,0.4   c3.4,2,8.9,8.3,10.4,12.2C401.6,361.1,401.8,361.2,402,361.3C402,361.3,402.1,361.3,402,361.3L402,361.3z M351.7,245.7   c14.6,0,32.4,1.9,36.7,3.2c6.2,1.8,18.8,12.7,31.4,26.9c12.9,14.6,21.5,28,21.9,34.2c0.8,11.8-16.5,27.7-29.1,39.3   c-4.4,4-8.3,7.6-10.5,10.2c-1.9-3.9-6.6-9.3-10-11.5c5.5-8.5,17.4-23,24.5-31.7l2.1-2.6c0.1-0.2,0.2-0.4,0.1-0.6   c-0.7-2.5-6.6-8.7-13.4-15.8c-4.3-4.5-8.8-9.1-11.9-12.9c-0.2-0.2-0.4-0.3-0.7-0.2c-0.2,0.1-0.4,0.3-0.4,0.5   c-1.5,13.8-2.1,24-2.5,31.4c-0.8,13.4-1.1,19-5.3,22.9c-4.6,4.3-17.8,6.7-28.5,7.4c-12.2,0.9-23.1-0.1-25.3-2.2   c-3-2.9-5.6-8.1-6.1-12.1c-1.3-10.7-0.3-23.1,0.7-35.1c0.5-5.7,0.9-11.2,1.1-16.3c0-0.3-0.1-0.5-0.4-0.6c-0.2-0.1-0.5-0.1-0.7,0.1   c-11.3,10.1-32,24.3-42.8,21.7c-6.9-1.7-8.7-9.5-9.3-12.4v-0.1c-5.5-24-1.1-52.3,2.7-77.3c0.4-2.5,0.8-4.9,1.1-7.3   c1,0.2,2,0.5,3,0.7c5.3,1.3,11.4,2.7,16.8,1.6c-1.5,20.8-3.4,48.8-2.5,62.2c0,0.2,0.2,0.4,0.3,0.5c0.2,0.1,0.4,0.1,0.6,0   c3.4-2.2,6.5-4.3,9.5-6.4c9.4-6.4,17.5-12,29.3-16.1C337.9,246.1,344.4,245.6,351.7,245.7L351.7,245.7z"/>
        <path class="stRechtsLawLight0" d="M360,263.8c-2.6,11.5-5,23-7.3,34.5c-0.4,2-0.8,4-0.6,6c0.2,2.8,1.4,5.4,2.5,7.8c1.4,3,2.8,5.9,4.7,8.8   c2.5-5.3,4.7-10.8,6.6-16.4c0.9-12.8-3-25.4-3.1-38.3c0-0.8,0-1.6-0.3-2.3C362.3,263.2,361.6,262.7,360,263.8z"/>
        <path d="M359.4,321.5C359.4,321.5,359.5,321.5,359.4,321.5c0.3,0,0.5-0.2,0.6-0.4c2.5-5.4,4.8-11,6.6-16.5c0-0.1,0-0.1,0-0.2   c0.5-7.2-0.5-14.4-1.5-21.3c-0.8-5.6-1.6-11.3-1.6-17v-0.1c0-0.8,0-1.7-0.4-2.5c-0.2-0.5-0.6-0.9-1.1-1c-0.7-0.2-1.5,0-2.4,0.7   c-0.1,0.1-0.2,0.2-0.3,0.4c-2.5,11.4-5,23-7.3,34.5c-0.4,1.9-0.8,4-0.6,6.1c0.2,3,1.5,5.7,2.6,8c1.4,2.9,2.8,5.9,4.8,8.9   C359.1,321.4,359.3,321.5,359.4,321.5L359.4,321.5z M365.4,304.4c-1.8,5.1-3.8,10.2-6.1,15.2c-1.6-2.6-2.9-5.2-4.1-7.8   c-1.1-2.2-2.3-4.8-2.5-7.5c-0.1-2,0.3-4,0.6-5.8c2.2-11.4,4.7-23,7.2-34.3c0.7-0.4,1-0.4,1.2-0.4c0.1,0,0.2,0.1,0.3,0.3   c0.2,0.6,0.3,1.3,0.3,2v0.1c0,5.8,0.8,11.6,1.6,17.2C364.9,290.2,365.9,297.3,365.4,304.4z"/>
        <path class="stRechtsLawLight0" d="M363.7,255.9c-0.9-0.8-2.2-0.9-3.2-0.5c-1.6,0.5-2.9,1.2-3.4,2.8c-0.1,0.4,0.5,2.2,0.9,2.9   c0.4,0.8,1.5,2.2,2.6,2.4c0.9,0.2,1.8-0.3,2.5-0.8c1.3-1,2.5-2.5,2.3-4.2C365.2,257.5,364.6,256.7,363.7,255.9L363.7,255.9z"/>
        <path d="M360.9,264.1c0.8,0,1.6-0.3,2.5-1c1.8-1.3,2.8-3.1,2.5-4.7c-0.2-1.1-0.7-2-1.8-3c-1-0.9-2.4-1.1-3.8-0.7   c-1.4,0.4-3.2,1.2-3.8,3.3c-0.2,0.8,0.7,2.9,0.9,3.3c0.4,0.8,1.7,2.5,3,2.8C360.6,264.1,360.8,264.2,360.9,264.1L360.9,264.1z    M361.7,255.8c0.6,0,1.2,0.2,1.6,0.6c0.8,0.8,1.3,1.5,1.4,2.2c0.3,1.8-1.5,3.2-2,3.6c-0.8,0.6-1.5,0.8-2.1,0.7   c-0.7-0.1-1.7-1.3-2.1-2.1c-0.3-0.6-0.8-2.1-0.8-2.4c0.3-1.1,1.2-1.8,3-2.4C361,255.8,361.4,255.8,361.7,255.8L361.7,255.8z"/>
        <path class="stRechtsLawLight0" d="M352.3,224.6c0.4,7.8,0.1,15.7-0.9,23.5c-0.1,0.7-0.2,1.3,0.1,1.9c0.2,0.6,0.8,1.1,1.3,1.5   c3.7,2.8,8.5,4.4,13,3.6c4.6-0.7,8.8-4,9.7-8.9c-1.3-6.5-3.5-15.7-5-26.1C364.9,222,359,223.3,352.3,224.6L352.3,224.6z"/>
        <path d="M363.6,256c0.8,0,1.6-0.1,2.4-0.2c5.2-0.8,9.4-4.6,10.2-9.4c0-0.1,0-0.2,0-0.2c-0.4-1.9-0.8-4.1-1.3-6.4   c-1.2-5.5-2.6-12.4-3.6-19.7c0-0.2-0.1-0.4-0.3-0.4c-0.2-0.1-0.4-0.1-0.5-0.1c-5.4,1.8-11,3-18.3,4.5c-0.3,0.1-0.5,0.3-0.5,0.6   c0.4,7.8,0.1,15.7-0.9,23.4c-0.1,0.7-0.2,1.5,0.1,2.2c0.3,0.8,0.9,1.3,1.5,1.8C355.8,254.6,359.8,256,363.6,256L363.6,256z    M374.9,246.3c-1,4.9-5.3,7.7-9.2,8.3c-4.1,0.7-8.7-0.6-12.6-3.5c-0.4-0.3-0.9-0.7-1.1-1.2c-0.2-0.5-0.1-1.1,0-1.6   c0.9-7.6,1.2-15.4,0.9-23.1c6.7-1.3,12-2.5,17.2-4.2c1,7.1,2.4,13.7,3.5,19.1C374.1,242.3,374.6,244.4,374.9,246.3z"/>
        <path d="M380,259.1c0.2,0,0.4-0.1,0.5-0.3c1.1-1.7,2.2-3.5,3.2-5.3c0.2-0.3,0.1-0.7-0.3-0.8s-0.7-0.1-0.8,0.3c-1,1.8-2,3.5-3.1,5.2   c-0.2,0.3-0.1,0.7,0.2,0.9C379.8,259.1,379.9,259.1,380,259.1L380,259.1z"/>
        <path d="M385,257.8c0.2,0,0.5-0.1,0.6-0.4l1.5-3.2c0.2-0.3,0-0.7-0.3-0.8c-0.3-0.2-0.7,0-0.8,0.3l-1.5,3.2c-0.2,0.3,0,0.7,0.3,0.8   C384.9,257.7,385,257.8,385,257.8z"/>
        <path class="stRechtsLawLight0" d="M363.4,255.3c2,3.1,4,6.2,6.5,9.5c4-6.2,8-12.6,10.3-19.6c-1.4-0.8-4.3-3.2-5.7-4c0.3,1.6,1,3,0.7,3.5   C375.1,245,367.3,252.3,363.4,255.3L363.4,255.3z"/>
        <path d="M369.9,265.4C369.9,265.4,369.9,265.4,369.9,265.4c0.2,0,0.4-0.1,0.5-0.3c3.8-5.8,8-12.5,10.4-19.8c0.1-0.3,0-0.6-0.3-0.7   c-0.7-0.4-1.7-1.2-2.8-2c-1.1-0.8-2.2-1.6-2.9-2c-0.2-0.1-0.5-0.1-0.7,0c-0.2,0.1-0.3,0.4-0.3,0.6c0.1,0.7,0.3,1.3,0.5,1.9   c0.1,0.4,0.3,0.9,0.3,1.2c-0.9,0.9-8,7.6-11.7,10.4c-0.3,0.2-0.3,0.6-0.1,0.8c2,3.1,4,6.3,6.5,9.5   C369.5,265.3,369.7,265.4,369.9,265.4L369.9,265.4z M379.4,245.4c-2.2,6.7-6.1,12.8-9.6,18.3c-2.1-2.8-3.9-5.6-5.6-8.3   c3.8-3,11.3-10,11.6-10.5c0.3-0.5,0.1-1.1-0.2-2.1c0-0.1,0-0.2-0.1-0.3c0.5,0.3,1,0.7,1.5,1.1C377.9,244.3,378.8,245,379.4,245.4z"/>
        <path class="stRechtsLawLight10" d="M393.3,188.9c-1.4,5.9-2.9,11.2-5.7,18.9c-1.3,3.6-3.4,7.6-5.6,10.8c-1.1,1.5-1.9,2.2-3.8,2.9   c0-1.6-1.6-2.6-1.7-4.2c-0.2-2,1.3-3.6,0.2-5.5c-2-3.5-3.2-7.3-3.6-11.2c-0.3-3.1-0.1-6.4,1.7-9.1c1.7-2.7,5.1-4.8,8.9-4.7   C386.5,186.9,391.2,186.9,393.3,188.9L393.3,188.9z"/>
        <path d="M378.2,222.2c0.1,0,0.1,0,0.2,0c2.2-0.8,3-1.6,4.1-3.2c2.3-3.2,4.4-7.2,5.7-11c2.8-7.7,4.2-13,5.7-18.9   c0-0.2,0-0.4-0.2-0.6c-2.2-2.1-6.6-2.2-9.6-2.2h-0.5c-3.7-0.1-7.4,1.9-9.4,5c-1.6,2.5-2.1,5.6-1.7,9.5c0.4,3.9,1.6,7.8,3.7,11.4   c0.5,0.9,0.3,1.7,0,2.8c-0.2,0.7-0.4,1.6-0.3,2.5c0.1,0.9,0.5,1.7,1,2.3c0.4,0.6,0.8,1.2,0.7,1.8c0,0.2,0.1,0.4,0.3,0.5   C377.9,222.2,378.1,222.2,378.2,222.2L378.2,222.2z M392.6,189.2c-1.4,5.8-2.9,10.9-5.5,18.4c-1.3,3.6-3.3,7.5-5.6,10.7   c-0.9,1.2-1.5,1.8-2.8,2.4c-0.2-0.6-0.5-1.1-0.8-1.6c-0.4-0.6-0.7-1.1-0.8-1.7c0-0.7,0.1-1.4,0.3-2.1c0.3-1.1,0.6-2.4-0.1-3.7   c-1.9-3.5-3.1-7.2-3.5-10.9c-0.4-3.6,0.1-6.4,1.6-8.7c1.7-2.8,5-4.5,8.3-4.4h0.5C386.7,187.6,390.6,187.6,392.6,189.2L392.6,189.2z   "/>
        <path class="stRechtsLawLight0" d="M347.1,194.3c-0.5,5.3-2.3,10.4-3.1,15.7c-0.8,5.3-0.4,11,3,15.7c3.1,4.1,8.4,6.9,14,7.3   c5.6,0.4,11.2-1.6,14.5-5.2c3.2-3.4,4.9-11.6,5.9-15.6c2.4,0.7,5.2,0.4,7-1.1s2.1-4,0.6-5.8c-1.5-1.8-3.6-2.3-6.4-0.4   c0.7-3.4,0.6-6.8,0.5-8.3c-0.1-4.2,0.7-10.4-1.9-12.6c-1.5-1.2-4.8-2.6-6.6-3.4c-3.2-1.4-8.1,0.1-11.6-0.4c-3.5-0.5-7.3,0.6-10.3,2   C348.9,183.6,347.5,190.3,347.1,194.3L347.1,194.3z"/>
        <path d="M362.4,233.6c5.3,0,10.4-2,13.6-5.5c3-3.2,4.6-10,5.7-14.5c0.1-0.3,0.1-0.5,0.2-0.8c2.5,0.6,5.2,0,6.9-1.4   c2-1.8,2.4-4.7,0.7-6.7c-1-1.2-3-2.7-6-1.2c0.4-2.9,0.3-5.6,0.3-7v-0.1c0-0.9,0-1.8,0-2.8c0.1-3.9,0.2-8.3-2.2-10.2   c-1.5-1.2-4.7-2.6-6.6-3.4l-0.2-0.1c-2-0.9-4.6-0.7-7.1-0.5c-1.7,0.1-3.3,0.2-4.7,0c-3-0.4-6.6,0.2-10.7,2c-4.6,2-5.7,11-5.9,12.8   c-0.3,3-1,5.9-1.7,8.8c-0.5,2.2-1.1,4.6-1.4,6.9c-1,6.6,0.1,12,3.1,16.1c3.2,4.2,8.7,7.1,14.5,7.5   C361.5,233.6,362,233.6,362.4,233.6L362.4,233.6z M381.4,211.5c-0.1,0-0.2,0-0.3,0.1c-0.2,0.1-0.3,0.2-0.3,0.4   c-0.1,0.4-0.2,0.9-0.3,1.4c-1,4.1-2.6,11-5.4,14c-3.3,3.5-8.6,5.4-14,5c-5.4-0.4-10.6-3.1-13.5-7c-2.9-3.8-3.8-8.9-2.9-15.2   c0.3-2.3,0.9-4.6,1.4-6.8c0.7-2.9,1.4-5.9,1.7-9c0.4-4.6,2-10.4,5.1-11.8c3.9-1.7,7.2-2.3,10-1.9c1.5,0.2,3.2,0.1,4.9,0   c2.4-0.2,4.8-0.3,6.5,0.4l0.2,0.1c1.8,0.8,4.9,2.1,6.3,3.2c1.8,1.5,1.8,5.6,1.7,9.2c0,1,0,2,0,2.9v0.1c0,1.6,0.1,4.9-0.5,8.1   c-0.1,0.3,0.1,0.5,0.3,0.6c0.2,0.1,0.5,0.1,0.7,0c2.2-1.6,4.1-1.5,5.6,0.3c1.2,1.5,1,3.7-0.5,5c-1.5,1.3-4.1,1.7-6.4,1   C381.6,211.5,381.5,211.5,381.4,211.5L381.4,211.5z"/>
        <path class="stRechtsLawLight10" d="M364.4,187.9c-0.7,2.3-4.7,5.3-7,5.3c-2.3,0-3.1-1.1-3.8-3.4c-2.2,1.6-3.9,3.3-6,3.9c-3.3,0.9-7-1.4-7.8-4.9   c-0.8-3.4,1.6-7.3,5-8.1c-2.2,0.3-4.2-2.1-4-4.4c0.2-2.3,2-4.3,4.1-5.1c2.1-0.8,4.4-0.8,6.7-0.9c-0.6-2.3,0.7-5,2.7-6.2   c2-1.3,4.5-1.4,6.8-0.9c1.5,0.3,3,0.9,4.1,2c1.1,1.1,1.8,2.8,1.6,4.4c2.2-2.4,5.6-3.8,8.6-2.8c3,1,5,5,5,7.6c1.7-1.7,3.7-3,6-2.7   c4.5,0.7,5.2,4.6,2.7,9.4c2.5-1,6.1,0.4,6.9,4c0.6,2.7-0.7,6.8-2.7,8.7c-2,1.9-8.6,3.1-12.8-0.6c-2.3-2-3.3-4.6-3.8-6.9   c-1.5,2.2-2.7,3.7-6.1,4.5C367.8,191.6,365,190.3,364.4,187.9L364.4,187.9z"/>
        <path d="M387.1,196.4c2.8,0,5.3-0.9,6.5-2c2.2-2.1,3.6-6.4,2.9-9.3c-0.4-1.8-1.5-3.3-3.1-4.1c-1-0.5-2.2-0.8-3.3-0.7   c1.1-2.6,1.2-4.9,0.4-6.5c-0.7-1.4-2.2-2.3-4.1-2.6c-1.9-0.3-3.8,0.4-5.6,2c-0.5-2.8-2.5-5.9-5.3-6.8c-2.6-0.9-5.7-0.1-8.2,1.9   c-0.2-1.3-0.8-2.5-1.7-3.5c-1.1-1-2.5-1.8-4.4-2.2c-2.8-0.6-5.3-0.2-7.3,1c-2.1,1.3-3.3,3.9-3.1,6.2c-0.2,0-0.4,0-0.5,0   c-1.9,0.1-3.8,0.1-5.6,0.9c-2.5,1-4.3,3.3-4.5,5.7c-0.1,1.5,0.5,3,1.6,4c0.3,0.3,0.6,0.5,0.9,0.7c-2.6,1.6-4.1,4.9-3.4,8   c0.4,1.9,1.6,3.5,3.3,4.5c1.6,1,3.5,1.3,5.2,0.8c1.7-0.5,3.2-1.6,4.7-2.9c0.3-0.2,0.6-0.5,0.9-0.7c0.7,1.9,1.8,3,4.1,3   c2.2,0,5.5-2.3,7-4.5c1.2,1.8,3.6,2.8,6.1,2.2c3-0.7,4.3-1.9,5.7-3.6c0.5,1.9,1.6,4.1,3.7,6C382,195.7,384.6,196.4,387.1,196.4   L387.1,196.4z M390.7,181.6c0.7,0,1.5,0.2,2.1,0.5c1.2,0.7,2.1,1.8,2.4,3.3c0.6,2.5-0.6,6.3-2.5,8.1c-1.9,1.8-8.1,2.8-12-0.6   c-2.4-2.1-3.2-4.8-3.6-6.6c-0.1-0.2-0.2-0.4-0.5-0.5c-0.2-0.1-0.5,0.1-0.6,0.3c-1.4,2-2.4,3.5-5.7,4.2c-2.1,0.5-4.6-0.4-5.2-2.6   c-0.1-0.3-0.3-0.5-0.6-0.5c-0.3,0-0.5,0.2-0.6,0.4c-0.6,2-4.4,4.9-6.4,4.9c-1.8,0-2.5-0.6-3.2-3c-0.1-0.2-0.2-0.3-0.4-0.4   s-0.4,0-0.6,0.1c-0.6,0.4-1.1,0.8-1.6,1.2c-1.5,1.2-2.8,2.2-4.3,2.6c-1.4,0.4-2.9,0.1-4.3-0.7c-1.4-0.9-2.4-2.2-2.8-3.7   c-0.7-3.1,1.5-6.7,4.5-7.3c0.3-0.1,0.5-0.4,0.5-0.7c-0.1-0.3-0.4-0.6-0.7-0.5c-0.7,0.1-1.5-0.2-2.1-0.7c-0.8-0.8-1.3-1.9-1.2-3   c0.2-2.2,2-3.9,3.7-4.6c1.6-0.6,3.4-0.7,5.2-0.8c0.4,0,0.9,0,1.3-0.1c0.2,0,0.4-0.1,0.5-0.3c0.1-0.2,0.2-0.4,0.1-0.5   c-0.5-1.9,0.5-4.3,2.4-5.5c1.7-1.1,3.9-1.3,6.3-0.8c1.6,0.4,2.9,1,3.8,1.8c1,1,1.6,2.5,1.4,3.9c0,0.3,0.1,0.5,0.4,0.6   c0.2,0.1,0.5,0.1,0.7-0.1c2.3-2.4,5.4-3.5,8-2.6c2.8,0.9,4.6,4.8,4.6,7c0,0.3,0.2,0.5,0.4,0.6c0.2,0.1,0.5,0,0.7-0.1   c1.9-1.9,3.7-2.8,5.5-2.5c1.6,0.2,2.7,0.9,3.2,1.9c0.8,1.5,0.5,3.9-0.9,6.6c-0.1,0.2-0.1,0.5,0.1,0.7c0.2,0.2,0.5,0.3,0.7,0.2   C389.6,181.7,390.1,181.6,390.7,181.6L390.7,181.6z"/>
        <path d="M351.4,202.4c0-0.7,0.5-1.2,1.2-1.2c0.7,0,1.3,0.5,1.3,1.2c0,0.7-0.5,1.2-1.2,1.2C352,203.6,351.4,203.1,351.4,202.4z"/>
        <path d="M368.8,204.9c0-0.7,0.5-1.2,1.2-1.2c0.7,0,1.3,0.5,1.3,1.2s-0.5,1.2-1.2,1.2C369.4,206.1,368.8,205.6,368.8,204.9z"/>
        <path d="M362.3,225.3c1.8,0,3.5-0.7,4.8-1.9c0.3-0.2,0.3-0.6,0-0.9c-0.2-0.3-0.6-0.3-0.9,0c-1.4,1.4-3.8,1.9-5.7,1.2   c-0.3-0.1-0.7,0.1-0.8,0.4c-0.1,0.3,0.1,0.7,0.4,0.8C360.8,225.2,361.6,225.3,362.3,225.3L362.3,225.3z"/>
        <path d="M359.9,218.4c0.1,0,0.3,0,0.4,0c1.4-0.1,2.6-0.7,3.4-1.7c0.2-0.3,0.2-0.7-0.1-0.9c-0.3-0.2-0.7-0.2-0.9,0.1   c-0.6,0.7-1.5,1.1-2.5,1.2c-0.9,0.1-1.9-0.2-3-0.7c-0.4-0.2-0.7-0.4-1-0.7c-0.3-0.4-0.3-0.9-0.1-1.5c0.2-0.5,0.5-1,0.8-1.5l0.2-0.3   c1.9-3.1,3-6.6,3.3-10.3c0-0.3-0.2-0.6-0.6-0.7c-0.3,0-0.6,0.2-0.7,0.6c-0.3,3.4-1.4,6.8-3.1,9.7l-0.2,0.2   c-0.3,0.6-0.7,1.1-0.9,1.8c-0.3,1-0.2,1.9,0.3,2.6c0.4,0.5,0.9,0.8,1.4,1.1C357.8,218.2,358.9,218.4,359.9,218.4L359.9,218.4z"/>
        <path d="M381.9,208.2c0.3,0,0.5-0.2,0.6-0.5c0.3-1.2,0.4-1.8,0.7-2.9c0.1-0.3-0.1-0.7-0.5-0.7c-0.3-0.1-0.7,0.1-0.7,0.5   c-0.3,1.1-0.4,1.7-0.7,2.9c-0.1,0.3,0.1,0.7,0.4,0.8C381.8,208.2,381.9,208.2,381.9,208.2L381.9,208.2z"/>
        <path d="M386.9,194c0,0,0.1,0,0.2,0c2.6-0.6,4.6-3,4.9-5.6c0-0.3-0.2-0.6-0.6-0.7c-0.3,0-0.6,0.2-0.7,0.6c-0.2,2.1-1.8,4-3.9,4.5   c-0.3,0.1-0.5,0.4-0.5,0.8C386.4,193.8,386.6,194,386.9,194L386.9,194z"/>
        <g class="stRechtsLawLight9">
            <path d="M347.5,193.3c1.1-0.7,2.3-1.3,3.4-2.1c0.7-0.4,1.3-1.1,2.1-1.3c1.1-0.2,1.8,0.9,1.6,1.8c0.2,0.1,0.4,0.2,0.6,0.3    c0,0,0,0.1,0.1,0.1c0,0,0,0.1,0.1,0.1c0.1,0.1,0.2,0.1,0.2,0.2c0,0,0.1,0.1,0.1,0.1c0.1,0,0.2,0.1,0.2,0.1    c0.3,0.1,0.5,0.1,0.8,0.2c0,0,0,0,0,0c1.2,0,2.6-0.6,3.3-0.9c0,0,0,0,0.1-0.1c0.1,0,0.4-0.2,0.5-0.3c0.6-0.4,1.3-0.9,1.9-1.4    c0.2-0.1,0.3-0.3,0.4-0.4c0.1-0.5,0.5-1,1.1-0.9c0.5,0,1,0.6,0.9,1.1c0,0.1,0,0.1-0.1,0.2c0,0,0,0,0,0.1c0,0,0,0.1,0,0.1    c0,0,0.1,0,0.1,0.1c0.2,0,0.3,0.1,0.5,0.2c0.1,0,0.2,0.1,0.2,0.1c0.5,0.3,1.1,0.5,1.5,0.6c0.2-0.2,0.5-0.3,0.8-0.3    c1.5-0.1,2-0.2,3.7-0.9c0.7-0.2,0.5-0.4,1.6-0.6c0.3,0,0.6,0.1,0.8,0.3c0.1-0.1,0.2-0.2,0.3-0.3c0.2-0.2,0.3-0.3,0.3-0.4    c0.4-0.3,0.7-0.5,1.1-0.8c0.4,0.1,0.8,0.4,0.8,0.9c0,0.2-0.1,0.4-0.2,0.6c-0.2,0.3-0.4,0.6-0.6,0.9c0.1-0.1,0.2-0.3,0.1-0.1    c-0.5,0.8-1.2,1.4-2,2c-1.2,0.9-2.6,1.5-4.1,1.8c-1,0.2-2,0.4-3,0.3c-0.1,0-0.2,0-0.2,0c0,0,0.1,0,0.1,0c-0.8-0.1-1.6-0.5-2.2-1    c-0.4-0.4-0.8-0.9-1-1.5c-0.7,0.6-1.4,1.2-2.2,1.7c-0.8,0.4-1.4,0.8-2.7,1.2c-1.4,0.4-3.1,0.3-4.2-0.7c-0.3-0.3-0.5-0.6-0.8-0.9    c-0.9,0.7-1.8,1.3-2.7,1.9c-0.8,0.5-1.6,1-2.6,1.1C346.4,196.1,346.1,194.1,347.5,193.3L347.5,193.3z"/>
        </g>
        <g class="stRechtsLawLight9">
            <path d="M391.7,196.4c-0.2-0.7-0.9-0.6-1.5-0.5c-0.8,0.1-1.7,0-2.5,0.1c-0.6,0-1.2,0.1-1.8,0.1c0,0,0,0,0,0c-0.2,0-0.3,0,0,0    c-0.3,0-0.7-0.1-1-0.1c-0.1-0.2-0.1-0.3-0.3-0.4c-0.6-0.6-1.6,0-1.5,0.8c0.1,0.6,0.1,1.2,0.1,1.9c-0.1,0.9-0.3,2.3,1,2.3    c0.3,0,0.5-0.2,0.7-0.3c0,0.1,0.6-0.4,0.8-0.4c0.7-0.4,1.9-0.9,3.2-1.5c0.6-0.3,1.3-0.5,2-0.7c0,0,0.1,0,0.2,0c0,0,0.1,0,0.2,0    C391.6,197.3,391.8,196.8,391.7,196.4L391.7,196.4z"/>
        </g>
        <g class="stRechtsLawLight9">
            <path d="M372,231c-0.8,0.5-1.6,0.8-2.5,1.1c0,0-0.1,0-0.1,0.1c0,0,0,0,0,0c-1.8,0.5-3.8,0.7-5.6,0.9c-0.4,0-0.7,0.1-1.1,0.1    c0,0-0.4,0-0.8,0c-0.7,0-4.3-0.8-9-2.3c0,0.4-0.1,1.9-0.1,2.3c-0.1,4.1-0.2,6.2-0.2,6.5c-0.3,1.1-0.6,1.9-0.2,2.8    c0.3,0.6,0.8,1.1,1.1,1.3c0.3-0.1,0.5-0.3,0.8-0.4c1.3-0.6,2.7-1.3,4-2c5.1-2.7,9.8-5.5,13.9-8.4C373,232.5,372.8,231.2,372,231    L372,231z"/>
        </g>
        <g class="stRechtsLawLight9">
            <path d="M361.4,263.7c-0.3-0.3-0.6-0.6-0.9-0.7c-1-0.3-1.7,1.1-0.8,1.8c0.6,0.6,1,0.9,1.2,1.1c0.2,0.3,0.4,0.6,0.8,0.7    c0.6,0.2,1.2-0.4,1.2-1c0.1-0.8,0-1,0.2-1.4C363.4,262.9,361.8,262.5,361.4,263.7L361.4,263.7z"/>
        </g>
        <g class="stRechtsLawLight9">
            <path d="M369.6,264.1c-0.2-0.4-0.7-0.7-1-1.1c-0.7-0.8-1.5-1.8-1.6-2.1c-0.2-0.3-0.3-0.5-0.5-0.8c-0.1-0.3-0.3-0.6-0.6-0.7    c-0.7-0.3-1.4,0.5-1.1,1.2c0.1,0.2,0.2,0.3,0.3,0.5c-0.1,0-0.2-0.1-0.2-0.1c-0.9-0.3-1.5,1-0.7,1.6c0.9,0.6,1.8,1.3,2.7,2    c0.9,0.6,1.5,1,2,1.2C369.8,265.9,370.4,264.6,369.6,264.1L369.6,264.1z"/>
        </g>
        <g class="stRechtsLawLight9">
            <path d="M357.9,260.4c-0.2-0.4-0.3-0.9-0.6-1.3c-0.1-0.2-0.1-0.5-0.4-0.6c-0.5-0.5-1.2-0.2-1.4,0.3c0,0-0.1,0-0.1,0    c-0.4,0.1-0.6,0.4-0.9,0.6c-0.5,0.4-0.4,0.5-0.5,0.7c0,0,0,0,0,0c-0.1,0.1-0.1,0.2-0.2,0.3c-0.4,0.1-0.8,0.2-1.1,0.4    c-0.6,0.2-1.3,0.3-1.7,0.7c-0.7,0.7,0.1,1.8,1,1.4c0.6-0.3,1.3-0.4,2.5-0.8c0.6-0.2,1.3-0.2,2-0.3c0.2,0,0.3-0.1,0.4-0.2    C357.6,261.8,358.3,261.1,357.9,260.4L357.9,260.4z"/>
        </g>
        <path class="stRechtsLawLight0" d="M361,531.7c1.2,5.7,2.2,11.4,3,17.2c0.1,0.8,0.2,3.3-0.4,3.8c-0.4,0.4-21.8,1.2-33.1,0   c-0.2-2.3,0.8-6.4,2.5-7.7c2.1-1.6,13.3-1.4,15.4-3.1c3.2-2.5,3.3-7.8,3-12.2C354.8,529.4,358.3,530,361,531.7L361,531.7z"/>
        <path d="M346.6,553.9c1.7,0,3.2,0,4.5,0c3.2-0.1,6.3-0.1,8.7-0.3c3.8-0.2,4-0.3,4.2-0.5c0.9-0.9,0.6-4.3,0.6-4.3   c-0.8-5.8-1.8-11.6-3-17.2c0-0.2-0.1-0.3-0.3-0.4c-2.6-1.6-6.1-2.4-10-2.2c-0.2,0-0.3,0.1-0.4,0.2c-0.1,0.1-0.2,0.3-0.2,0.5   c0.3,4.3,0.3,9.4-2.7,11.7c-0.9,0.7-4.4,1.1-7.4,1.4c-3.5,0.4-6.8,0.7-8,1.6c-2,1.5-3,5.9-2.7,8.3c0,0.3,0.3,0.5,0.6,0.6   C335.3,553.8,341.6,553.9,346.6,553.9L346.6,553.9z M363.2,552.1c-2.1,0.4-21.2,1-32.1,0c0-2.3,0.9-5.6,2.3-6.7   c0.9-0.7,4.3-1.1,7.4-1.4c3.5-0.4,6.8-0.7,8.1-1.7c3.3-2.5,3.5-7.5,3.3-12.1c3.3-0.1,6.2,0.5,8.4,1.9c1.2,5.6,2.2,11.2,2.9,16.9   C363.4,549.9,363.4,551.6,363.2,552.1L363.2,552.1z"/>
        <path class="stRechtsLawLight0" d="M432.6,529.6c-1.2,5.7,3.8,22.5,4.4,23.1c0.4,0.4,21.8,1.2,33.1,0c0.2-2.3-0.8-6.4-2.5-7.7   c-2.1-1.6-13.3-1.4-15.4-3.1c-3.2-2.5-10-7.8-9.7-12.3C439,529.3,435.3,527.9,432.6,529.6L432.6,529.6z"/>
        <path d="M453.9,553.9c5,0,11.3-0.1,16.2-0.6c0.3,0,0.5-0.3,0.6-0.6c0.2-2.4-0.7-6.8-2.7-8.3c-1.2-0.9-4.5-1.3-8-1.6   c-3.1-0.3-6.5-0.7-7.4-1.4c-2.4-1.9-9.8-7.5-9.5-11.7c0-0.2,0-0.3-0.2-0.5c-0.1-0.1-0.3-0.2-0.4-0.2c-1-0.1-2-0.2-3-0.4   c-2.5-0.4-5.2-0.9-7.3,0.5c-0.1,0.1-0.2,0.2-0.3,0.4c-1.2,5.9,3.8,22.9,4.5,23.6c0.2,0.2,0.3,0.3,4.2,0.5c2.4,0.1,5.5,0.2,8.7,0.3   C450.7,553.9,452.2,553.9,453.9,553.9L453.9,553.9z M469.5,552.1c-10.9,1-29.8,0.4-32.1,0c-0.9-2-5.1-16.8-4.2-22.1   c1.7-0.9,3.8-0.6,6.2-0.2c0.8,0.1,1.7,0.3,2.5,0.4c0.3,4.8,7.3,10.1,9.9,12.2c1.2,0.9,4.5,1.3,8.1,1.7c3,0.3,6.4,0.7,7.4,1.4   C468.5,546.4,469.5,549.8,469.5,552.1L469.5,552.1z"/>
        <path class="stRechtsLawLight0" d="M391.9,349.2c-2.2,2.8-4.2,5.9-5.2,9.3c-1,3.4-1.1,7.2,0.2,10.5c0.8,1.9,2,3.6,3.3,5.2c1.5,1.8,3,3.6,4.6,5.3   c1.5,1.6,3.5,3.3,5.7,2.8c0.3-0.1,0.5-0.1,0.7-0.3c0.4-0.5,0-1.3-0.4-1.8c-2.1-2.7-4.1-5.5-6.3-8c1.9,2.3,3.9,4.6,5.9,6.7   c0.8,0.8,1.9,1.7,3,1.5c0.4-1.1-0.2-2.3-0.9-3.3c-1.5-2.3-3-4.6-4.5-6.9c1.5,2.1,3.1,4.1,4.8,6c0.4,0.5,1.1,1,1.6,0.6   c0.4-0.3,0.4-0.9,0.3-1.3c-0.6-3.2-3-5.6-4.8-8.3c-1.8-2.7-2.8-6.5-0.7-8.9c0.2-0.2,0.5-0.5,0.5-0.8c0.1-0.3-0.1-0.6-0.3-0.9   c-1.3-2.1-2.8-4.1-4.4-6C394.3,349.6,392.7,348.1,391.9,349.2L391.9,349.2z"/>
        <path d="M399.8,383.1c0.3,0,0.6,0,0.9-0.1c0.3-0.1,0.7-0.2,1-0.5c0.2-0.3,0.5-0.8,0.2-1.6c0.5,0.3,1.1,0.4,1.8,0.2   c0.2-0.1,0.4-0.2,0.4-0.4c0.5-1.1,0-2.3-0.5-3.2c0.5,0.2,0.9,0.2,1.3-0.1c0.3-0.2,0.8-0.7,0.6-2c-0.5-2.5-2-4.5-3.4-6.5   c-0.5-0.7-1-1.4-1.5-2c-1.6-2.4-2.7-5.9-0.8-8.2l0.1-0.1c0.2-0.3,0.5-0.6,0.6-1c0.1-0.6-0.2-1-0.4-1.3c-1.3-2.1-2.8-4.2-4.4-6   c-0.8-0.9-2-2-3.1-2h0c-0.5,0-0.9,0.2-1.2,0.6c-2.6,3.3-4.4,6.4-5.3,9.5c-1.2,3.8-1.1,7.7,0.3,11c0.8,2,2.1,3.8,3.4,5.4   c1.5,1.8,3,3.6,4.7,5.3C395.7,381.4,397.6,383.1,399.8,383.1L399.8,383.1z M395.9,374.8c1.5,1.9,3,3.9,4.5,5.9   c0.4,0.5,0.5,0.9,0.4,1c0,0-0.1,0.1-0.3,0.1c-1.9,0.4-3.9-1.3-5.1-2.6c-1.6-1.7-3.2-3.4-4.6-5.2c-1.2-1.5-2.4-3.2-3.2-5.1   c-1.2-3-1.3-6.5-0.2-10.1c0.9-3,2.6-5.9,5.1-9.1c0.1-0.1,0.2-0.1,0.3-0.2c0.5,0,1.3,0.6,2.1,1.6c1.6,1.8,3,3.8,4.3,5.9   c0.1,0.1,0.2,0.4,0.2,0.5c0,0.1-0.2,0.3-0.3,0.4l-0.1,0.1c-2.3,2.8-1.1,7,0.7,9.7c0.5,0.7,1,1.4,1.5,2.1c1.4,1.9,2.8,3.7,3.2,5.9   c0.1,0.4,0,0.7-0.1,0.7c-0.1,0.1-0.4-0.1-0.8-0.5c-1.7-1.9-3.3-3.9-4.7-5.9c-0.2-0.3-0.6-0.4-0.9-0.2c-0.3,0.2-0.4,0.6-0.2,0.9   l4.5,6.9c0.5,0.8,1,1.7,0.9,2.4c-0.7,0-1.5-0.7-2-1.3c-1.4-1.5-2.8-3-4.2-4.6c-0.6-0.7-1.1-1.4-1.7-2.1c-0.2-0.3-0.6-0.3-0.9-0.1   c-0.3,0.2-0.3,0.6-0.1,0.9C394.7,373.4,395.3,374.1,395.9,374.8L395.9,374.8z"/>
        <path class="stRechtsLawLight0" d="M352.1,240.8c1.4,4.7,4.7,11.4,8.5,14.2c-2.4,1.7-5.4,4.5-10.4,7.4c-0.8-8.3-2.1-12.3-2.5-18.8   C348.9,243,350.7,241.5,352.1,240.8z"/>
        <path d="M350.2,263.1c0.1,0,0.2,0,0.3-0.1c3.5-2.1,6.1-4.1,8.1-5.7c0.9-0.7,1.6-1.2,2.3-1.7c0.2-0.1,0.3-0.3,0.3-0.5   c0-0.2-0.1-0.4-0.3-0.5c-3.5-2.6-6.8-9-8.3-13.9c-0.1-0.2-0.2-0.3-0.3-0.4c-0.2-0.1-0.4-0.1-0.5,0c-0.9,0.4-2,1.2-2.9,1.8   c-0.6,0.4-1.1,0.8-1.5,1c-0.2,0.1-0.3,0.3-0.3,0.6c0.2,3.5,0.6,6.2,1.2,9.3c0.4,2.6,0.9,5.6,1.3,9.5c0,0.2,0.2,0.4,0.3,0.5   C350.1,263.1,350.2,263.1,350.2,263.1L350.2,263.1z M359.6,255c-0.5,0.4-1.1,0.8-1.7,1.3c-1.9,1.5-4.1,3.2-7.2,5.1   c-0.4-3.4-0.8-6.2-1.2-8.6c-0.5-3-0.9-5.6-1.1-8.8c0.4-0.3,0.8-0.6,1.2-0.9c0.7-0.5,1.4-1,2.1-1.4   C353.2,246.4,356.3,252.1,359.6,255L359.6,255z"/>
        <path class="stRechtsLawLight10" d="M385,340.4c6.7,13.8,46.6,140.4,65.7,193.4c-8.8,0-19.8-0.2-24.3,0c-20.5-44-51.2-112.6-67.3-157.3   c-1.6,7.5,1.6,56.7,1.5,69.3c-0.1,10.9,6.1,74.8,7,88c-1,0.9-24.6,0-24.6,0c-8.1-46.7-14.4-108.3-16-155.7   c-0.4-11.3-1.4-21.6-0.7-39.2C338,345.2,365.7,347.9,385,340.4L385,340.4z"/>
        <path d="M360.9,534.8c6.6,0,6.9-0.3,7.2-0.6c0.1-0.1,0.2-0.3,0.2-0.5c-0.3-4.1-1.1-13.1-2-23.6c-2.1-24-5-56.8-5-64.3   c0-4.6-0.4-14-0.8-24.8c-0.7-15.4-1.5-34.2-1-41.8c18.2,50.1,52.4,124.7,66.4,154.9c0.1,0.2,0.4,0.4,0.6,0.4c3-0.2,8.8-0.1,14.9,0   c3.2,0,6.4,0,9.4,0c0.2,0,0.4-0.1,0.5-0.3c0.1-0.2,0.2-0.4,0.1-0.6c-9.1-25.1-23.1-67.5-35.5-105c-14.4-43.5-26.8-81.2-30.3-88.4   c-0.1-0.3-0.5-0.4-0.8-0.3c-18.5,7.2-46,5.1-58.3-1.5c-0.2-0.1-0.4-0.1-0.6,0c-0.2,0.1-0.3,0.3-0.3,0.5   c-0.5,13.2-0.1,22.1,0.4,30.7c0.2,2.9,0.3,5.7,0.4,8.5c1.6,47.7,7.9,108.9,16,155.8c0,0.3,0.3,0.5,0.6,0.5c0.1,0,6,0.2,12,0.3   C357.3,534.8,359.3,534.8,360.9,534.8L360.9,534.8z M367,533.3c-2.4,0.4-15.2,0.1-23.5-0.2c-8.1-46.8-14.3-107.6-15.9-155.1   c-0.1-2.9-0.2-5.6-0.4-8.6c-0.4-8.4-0.8-17-0.4-29.6c12.8,6.3,39.5,8.2,57.9,1.3c3.8,8.4,16.5,47,30,87.8   c12.2,37.1,26.1,79,35.2,104.2c-2.7,0-5.7,0-8.6-0.1c-5.9,0-11.4-0.1-14.5,0c-14.4-30.9-49.2-107.1-67.1-156.9   c-0.1-0.3-0.4-0.4-0.6-0.4c-0.3,0-0.5,0.2-0.6,0.5c-1,4.8-0.1,26,0.7,44.7c0.5,10.8,0.9,20.1,0.8,24.7c-0.1,7.6,2.9,40.4,5,64.5   C365.9,520.3,366.6,529,367,533.3L367,533.3z"/>
        <g class="stRechtsLawLight9">
            <path d="M280.4,201.8c0.5-0.1,1,0,1.4,0.2c0.3,0.1,0.2,0.1,1.2,0.4c1.6,0.4,3.3,0.7,4.9,0.9c1.3,0.2,2.6,0.3,4,0.4    c0.8,0.1,1.7-0.2,2.4,0.1c1.5,0.6,1,2.9-0.6,2.9c-3.1,0.2-6.2-0.4-9.2-1c-1.9-0.4-3-0.7-4.2-0.8    C278.9,204.4,278.9,202.2,280.4,201.8z"/>
        </g>
        <g class="stRechtsLawLight9">
            <path d="M392.5,348.6c0.8-0.2,1.3,0.6,1.9,1.1c1.8,1.7,3.4,3.6,4.7,5.7c0.4,0.6,1,1.2,0.8,1.9c-0.3,1-1.8,1.2-2.3,0.3    c-1.6-2.5-3.7-5.1-5.6-6.5C390.9,350.5,391.3,348.7,392.5,348.6z"/>
        </g>
        <g class="stRechtsLawLight9">
            <path d="M326.1,339.7c0.8-1.2,1.9-0.6,2.9-0.1c0.3,0.1,1,0.4,0.3,0.2c1.1,0.5,2.4,1,4.3,1.6c1.7,0.6,3.4,1.1,5.2,1.5    c1.8,0.4,3.5,0.7,5.3,1c-0.1,0-0.3,0-0.4,0c3.5,0.5,6.9,0.9,11.3,0.9c3.8,0,7.6,0.3,11.4-0.1c6.1-0.5,11.2-0.8,15.9-3.5    c0.6-0.3,1.3-0.9,2-1c1.4-0.3,2.1,1.8,0.9,2.5c-4.2,2.9-9.3,4.2-14.3,4.5c-3.8,0.4-7.5,0.7-11.3,0.6c-3.3-0.2-6.6,0.2-9.9-0.1    c-4.7-0.3-9.4-1.2-13.9-2.6c-2.3-0.8-4.6-1.6-7-2.5c-0.8-0.3-1.5-0.6-2.2-1C326,341.3,325.7,340.3,326.1,339.7L326.1,339.7z"/>
        </g>
        <g class="stRechtsLawLight9">
            <path d="M434.3,532.9C434.3,532.9,434.3,532.9,434.3,532.9c2.3,0,4.4,0.2,6.6,0.2c1,0.1,2-0.4,2.9,0c1.7,0.7,1.2,3.3-0.7,3.3    c-2.5,0.3-5,0.4-7.5,0.2c-0.5,0-1-0.1-1.5-0.1c-0.5,0-0.9,0-1.3-0.3C431.1,535.1,432.3,532.4,434.3,532.9L434.3,532.9z"/>
        </g>
        <g class="stRechtsLawLight9">
            <path d="M352.4,534.1c2.1-0.1,4.1-0.1,6.2-0.1c0.7,0,1.3,0,2-0.1c0.4,0,0.7-0.1,1.1,0.1c1.5,0.6,1,2.9-0.6,2.8    c-2.3,0.2-4.6,0.2-6.9,0.3c-0.8,0-1.6,0.2-2.4-0.1C350.2,536.5,350.7,534.1,352.4,534.1L352.4,534.1z"/>
        </g>
        <path d="M363.8,259.8c0,0,0.1,0,0.1-0.1c0.1-0.1,0.1-0.2,0-0.3c-0.8-0.9-1.6-1.9-2.3-2.9c-0.1-0.1-0.2-0.1-0.3,0   c-0.1,0.1-0.1,0.2-0.1,0.3c0.7,1,1.5,2,2.3,2.9C363.7,259.8,363.7,259.8,363.8,259.8L363.8,259.8z"/>
        <path d="M362.7,261.1c0,0,0.1,0,0.2-0.1c0.1-0.1,0.1-0.2,0-0.3c-1.1-1-2-2.1-2.7-3.4c-0.1-0.1-0.2-0.1-0.3-0.1   c-0.1,0.1-0.1,0.2-0.1,0.3c0.7,1.3,1.7,2.5,2.8,3.5C362.6,261.1,362.6,261.1,362.7,261.1z"/>
        <path d="M360.9,261.9c0,0,0.1,0,0.2-0.1c0.1-0.1,0.1-0.2,0-0.3c-0.6-0.6-1.2-1.2-1.6-1.9c-0.1-0.1-0.2-0.1-0.3-0.1   c-0.1,0.1-0.1,0.2-0.1,0.3c0.5,0.7,1,1.4,1.7,2C360.8,261.9,360.8,261.9,360.9,261.9L360.9,261.9z"/>
        <path d="M362,268.5c0,0,0.1,0,0.1,0c0.1-0.1,0.1-0.2,0-0.3c-0.5-0.6-1-1.3-1.5-1.9c-0.1-0.1-0.2-0.1-0.3,0c-0.1,0.1-0.1,0.2,0,0.3   c0.5,0.6,1,1.2,1.5,1.9C361.9,268.5,361.9,268.5,362,268.5L362,268.5z"/>
        <path d="M362.1,272c0,0,0.1,0,0.1,0c0.1-0.1,0.1-0.2,0-0.3l-1.9-2.5c-0.1-0.1-0.2-0.1-0.3,0c-0.1,0.1-0.1,0.2,0,0.3l1.9,2.5   C362,271.9,362.1,272,362.1,272L362.1,272z"/>
        <path d="M362.3,275.9c0,0,0.1,0,0.1,0c0.1-0.1,0.1-0.2,0.1-0.3c-0.8-1.5-1.7-2.9-2.6-4.3c-0.1-0.1-0.2-0.1-0.3-0.1   c-0.1,0.1-0.1,0.2-0.1,0.3c0.9,1.4,1.8,2.8,2.6,4.2C362.2,275.9,362.2,275.9,362.3,275.9L362.3,275.9z"/>
        <polygon class="stRechtsLawLight1" points="520.4,332 681.3,333.9 596.9,101.9  "/>
        <path d="M363,281.1c0,0,0.1,0,0.1,0c0.1-0.1,0.1-0.2,0.1-0.3c-1.2-2.2-2.5-4.5-3.8-6.6c-0.1-0.1-0.2-0.1-0.3-0.1   c-0.1,0.1-0.1,0.2-0.1,0.3c1.3,2.2,2.6,4.4,3.8,6.6C362.8,281,362.9,281.1,363,281.1L363,281.1z"/>
        <path d="M363.4,286.1C363.4,286.1,363.5,286.1,363.4,286.1c0.2-0.1,0.2-0.2,0.2-0.3c-1.5-2.9-3.2-5.8-4.9-8.6   c-0.1-0.1-0.2-0.1-0.3-0.1c-0.1,0.1-0.1,0.2-0.1,0.3c1.8,2.8,3.4,5.6,4.9,8.6C363.3,286.1,363.3,286.1,363.4,286.1L363.4,286.1z"/>
        <path d="M364.1,291.2c0,0,0.1,0,0.1,0c0.1-0.1,0.1-0.2,0.1-0.3l-6.1-10.1c-0.1-0.1-0.2-0.1-0.3-0.1c-0.1,0.1-0.1,0.2-0.1,0.3   l6.1,10.1C363.9,291.1,364,291.2,364.1,291.2L364.1,291.2z"/>
        <path d="M364.4,295.8c0,0,0.1,0,0.1,0c0.1-0.1,0.1-0.2,0.1-0.3c-2.5-3.6-4.9-7.4-7.1-11.2c-0.1-0.1-0.2-0.1-0.3-0.1   c-0.1,0.1-0.1,0.2-0.1,0.3c2.2,3.8,4.6,7.6,7.1,11.2C364.3,295.7,364.3,295.8,364.4,295.8L364.4,295.8z"/>
        <path d="M364.5,300.2c0,0,0.1,0,0.1,0c0.1-0.1,0.1-0.2,0.1-0.3c-2.8-4.1-5.5-8.2-8.1-12.5c-0.1-0.1-0.2-0.1-0.3-0.1   c-0.1,0.1-0.1,0.2-0.1,0.3c2.5,4.2,5.3,8.4,8.1,12.5C364.4,300.2,364.4,300.2,364.5,300.2L364.5,300.2z"/>
        <path d="M364.5,304.6c0,0,0.1,0,0.1,0c0.1-0.1,0.1-0.2,0-0.3c-3.1-4.1-5.9-8.5-8.5-13c-0.1-0.1-0.2-0.1-0.3-0.1   c-0.1,0.1-0.1,0.2-0.1,0.3c2.5,4.5,5.4,8.9,8.5,13.1C364.4,304.6,364.5,304.6,364.5,304.6L364.5,304.6z"/>
        <path d="M363.2,307.9c0,0,0.1,0,0.1,0c0.1-0.1,0.1-0.2,0.1-0.3l-8-11.6c-0.1-0.1-0.2-0.1-0.3-0.1c-0.1,0.1-0.1,0.2-0.1,0.3l8,11.6   C363,307.8,363.1,307.9,363.2,307.9z"/>
        <path d="M361.9,311.2c0,0,0.1,0,0.1,0c0.1-0.1,0.1-0.2,0.1-0.3c-2.4-3.7-4.9-7.5-7.5-11c-0.1-0.1-0.2-0.1-0.3-0.1   c-0.1,0.1-0.1,0.2-0.1,0.3c2.6,3.6,5.1,7.3,7.5,11C361.7,311.1,361.8,311.2,361.9,311.2L361.9,311.2z"/>
        <path d="M360.6,313.6c0,0,0.1,0,0.1,0c0.1-0.1,0.1-0.2,0-0.3c-2.3-3.1-4.6-6.3-6.8-9.4c-0.1-0.1-0.2-0.1-0.3-0.1   c-0.1,0.1-0.1,0.2,0,0.3c2.2,3.2,4.5,6.3,6.8,9.5C360.5,313.6,360.5,313.7,360.6,313.6L360.6,313.6z"/>
        <path d="M359.5,316.8c0,0,0.1,0,0.1,0c0.1-0.1,0.1-0.2,0.1-0.3l-3.6-5.6c-0.1-0.1-0.2-0.1-0.3-0.1c-0.1,0.1-0.1,0.2-0.1,0.3   l3.6,5.6C359.3,316.7,359.4,316.8,359.5,316.8z"/>
        <path d="M153.9,366.9c0,0.1,0,0.2,0.1,0.3c0.2,0.2,0.5,0.3,0.8,0.1c1.7-1.3,3.3-2.6,4.9-4c0.2-0.2,0.3-0.5,0.1-0.8   c-0.2-0.2-0.5-0.3-0.8-0.1c-1.6,1.4-3.2,2.7-4.9,3.9C153.9,366.5,153.9,366.7,153.9,366.9L153.9,366.9z"/>
        <path d="M144.9,367.2c0,0.1,0,0.2,0.1,0.3c0.2,0.2,0.5,0.3,0.8,0.1l6.5-4.8c0.2-0.2,0.3-0.5,0.1-0.8c-0.2-0.2-0.5-0.3-0.8-0.1   l-6.5,4.8C145,366.9,144.9,367.1,144.9,367.2L144.9,367.2z"/>
        <path d="M134.8,367.7c0,0.1,0,0.2,0.1,0.3c0.2,0.3,0.5,0.4,0.7,0.2c3.8-2.1,7.5-4.5,11.1-6.9c0.3-0.2,0.3-0.5,0.1-0.8   c-0.2-0.3-0.5-0.3-0.8-0.1c-3.6,2.4-7.3,4.7-11,6.8C134.9,367.3,134.8,367.5,134.8,367.7L134.8,367.7z"/>
        <path d="M121.4,369.4c0,0.1,0,0.2,0.1,0.3c0.1,0.3,0.5,0.4,0.7,0.2c5.8-3.1,11.6-6.5,17.2-9.9c0.3-0.2,0.3-0.5,0.2-0.7   c-0.2-0.3-0.5-0.3-0.7-0.2c-5.6,3.4-11.4,6.8-17.1,9.9C121.5,369,121.4,369.2,121.4,369.4L121.4,369.4z"/>
        <path d="M108.3,370.6c0,0.1,0,0.2,0.1,0.3c0.1,0.3,0.5,0.4,0.7,0.2c7.6-3.9,15.1-8.2,22.3-12.8c0.3-0.2,0.3-0.5,0.2-0.7   c-0.2-0.3-0.5-0.3-0.7-0.2c-7.2,4.6-14.6,8.9-22.2,12.8C108.4,370.2,108.3,370.4,108.3,370.6L108.3,370.6z"/>
        <path d="M95.1,372.3c0,0.1,0,0.2,0.1,0.3c0.2,0.3,0.5,0.3,0.7,0.2l26.3-15.8c0.3-0.2,0.3-0.5,0.2-0.7c-0.2-0.3-0.5-0.3-0.7-0.2   l-26.3,15.8C95.2,372,95.1,372.1,95.1,372.3z"/>
        <path d="M83.3,373.2c0,0.1,0,0.2,0.1,0.3c0.2,0.3,0.5,0.3,0.8,0.1c9.4-6.5,19.2-12.7,29-18.5c0.3-0.2,0.3-0.5,0.2-0.7   c-0.2-0.3-0.5-0.3-0.7-0.2c-9.9,5.8-19.7,12-29.1,18.5C83.4,372.8,83.3,373,83.3,373.2z"/>
        <path d="M71.7,373.4c0,0.1,0,0.2,0.1,0.3c0.2,0.3,0.5,0.3,0.8,0.1c10.5-7.3,21.4-14.4,32.3-21c0.3-0.2,0.3-0.5,0.2-0.7   c-0.2-0.3-0.5-0.3-0.7-0.2c-11,6.6-21.9,13.7-32.4,21C71.7,373.1,71.7,373.3,71.7,373.4L71.7,373.4z"/>
        <path d="M60.3,373.4c0,0.1,0,0.2,0.1,0.3c0.2,0.2,0.5,0.3,0.8,0.1c10.7-8,22.1-15.4,33.8-22c0.3-0.2,0.4-0.5,0.2-0.7   c-0.2-0.3-0.5-0.4-0.7-0.2C82.7,357.5,71.3,365,60.5,373C60.4,373.1,60.3,373.3,60.3,373.4L60.3,373.4z"/>
        <path d="M51.8,369.9c0,0.1,0,0.2,0.1,0.3c0.2,0.3,0.5,0.3,0.8,0.1l30.1-20.8c0.2-0.2,0.3-0.5,0.1-0.8c-0.2-0.3-0.5-0.3-0.8-0.1   L52,369.5C51.8,369.6,51.8,369.8,51.8,369.9L51.8,369.9z"/>
        <path d="M43.3,366.5c0,0.1,0,0.2,0.1,0.3c0.2,0.3,0.5,0.3,0.7,0.2c9.7-6.1,19.3-12.7,28.6-19.5c0.2-0.2,0.3-0.5,0.1-0.8   c-0.2-0.2-0.5-0.3-0.8-0.1c-9.3,6.8-18.9,13.3-28.6,19.4C43.3,366.1,43.2,366.3,43.3,366.5L43.3,366.5z"/>
        <path d="M36.8,363.3c0,0.1,0,0.2,0.1,0.3c0.2,0.2,0.5,0.3,0.8,0.1c8-6,16.3-12,24.5-17.8c0.3-0.2,0.3-0.5,0.1-0.8   c-0.2-0.3-0.5-0.3-0.8-0.1c-8.2,5.8-16.5,11.7-24.5,17.8C36.9,362.9,36.9,363.1,36.8,363.3L36.8,363.3z"/>
        <path d="M28.7,360.3c0,0.1,0,0.2,0.1,0.3c0.2,0.3,0.5,0.3,0.7,0.2l14.6-9.5c0.3-0.2,0.3-0.5,0.2-0.8c-0.2-0.3-0.5-0.3-0.7-0.2   l-14.6,9.5C28.8,360,28.7,360.1,28.7,360.3L28.7,360.3z"/>
        <path d="M541.3,366.9c0,0.1,0,0.2-0.1,0.3c-0.2,0.2-0.5,0.3-0.8,0.1c-1.7-1.3-3.3-2.6-4.9-4c-0.2-0.2-0.3-0.5-0.1-0.8   c0.2-0.2,0.5-0.3,0.8-0.1c1.6,1.4,3.2,2.7,4.9,3.9C541.2,366.5,541.3,366.7,541.3,366.9L541.3,366.9z"/>
        <path d="M550.2,367.2c0,0.1,0,0.2-0.1,0.3c-0.2,0.2-0.5,0.3-0.8,0.1l-6.5-4.8c-0.2-0.2-0.3-0.5-0.1-0.8c0.2-0.2,0.5-0.3,0.8-0.1   l6.5,4.8C550.1,366.9,550.2,367.1,550.2,367.2L550.2,367.2z"/>
        <path d="M560.3,367.7c0,0.1,0,0.2-0.1,0.3c-0.2,0.3-0.5,0.4-0.7,0.2c-3.8-2.1-7.5-4.5-11.1-6.9c-0.3-0.2-0.3-0.5-0.1-0.8   c0.2-0.3,0.5-0.3,0.8-0.1c3.6,2.4,7.3,4.7,11,6.8C560.3,367.3,560.4,367.5,560.3,367.7L560.3,367.7z"/>
        <path d="M573.7,369.4c0,0.1,0,0.2-0.1,0.3c-0.1,0.3-0.5,0.4-0.7,0.2c-5.8-3.1-11.6-6.5-17.2-9.9c-0.3-0.2-0.3-0.5-0.2-0.7   c0.2-0.3,0.5-0.3,0.7-0.2c5.6,3.4,11.4,6.8,17.1,9.9C573.6,369,573.7,369.2,573.7,369.4L573.7,369.4z"/>
        <path d="M586.9,370.6c0,0.1,0,0.2-0.1,0.3c-0.1,0.3-0.5,0.4-0.7,0.2c-7.6-3.9-15.1-8.2-22.3-12.8c-0.3-0.2-0.3-0.5-0.2-0.7   c0.2-0.3,0.5-0.3,0.7-0.2c7.2,4.6,14.6,8.9,22.2,12.8C586.8,370.2,586.9,370.4,586.9,370.6L586.9,370.6z"/>
        <path d="M600,372.3c0,0.1,0,0.2-0.1,0.3c-0.2,0.3-0.5,0.3-0.7,0.2L572.9,357c-0.3-0.2-0.3-0.5-0.2-0.7c0.2-0.3,0.5-0.3,0.7-0.2   l26.3,15.8C599.9,372,600,372.1,600,372.3z"/>
        <path d="M611.9,373.2c0,0.1,0,0.2-0.1,0.3c-0.2,0.3-0.5,0.3-0.8,0.1c-9.4-6.5-19.2-12.7-29-18.5c-0.3-0.2-0.3-0.5-0.2-0.7   c0.2-0.3,0.5-0.3,0.7-0.2c9.9,5.8,19.7,12,29.1,18.5C611.8,372.8,611.9,373,611.9,373.2z"/>
        <polygon class="stRechtsLawLight1" points="15.4,331.7 176.3,333.5 91.9,101.5  "/>
        <path d="M623.5,373.4c0,0.1,0,0.2-0.1,0.3c-0.2,0.3-0.5,0.3-0.8,0.1c-10.5-7.3-21.4-14.4-32.3-21c-0.3-0.2-0.3-0.5-0.2-0.7   c0.2-0.3,0.5-0.3,0.7-0.2c11,6.6,21.9,13.7,32.4,21C623.4,373.1,623.5,373.3,623.5,373.4L623.5,373.4z"/>
        <path d="M634.8,373.4c0,0.1,0,0.2-0.1,0.3c-0.2,0.2-0.5,0.3-0.8,0.1c-10.7-8-22.1-15.4-33.8-22c-0.3-0.2-0.4-0.5-0.2-0.7   c0.2-0.3,0.5-0.4,0.7-0.2c11.7,6.6,23.1,14.1,33.9,22.1C634.7,373.1,634.8,373.3,634.8,373.4L634.8,373.4z"/>
        <path d="M643.4,369.9c0,0.1,0,0.2-0.1,0.3c-0.2,0.3-0.5,0.3-0.8,0.1l-30.1-20.8c-0.2-0.2-0.3-0.5-0.1-0.8c0.2-0.3,0.5-0.3,0.8-0.1   l30.1,20.8C643.3,369.6,643.4,369.8,643.4,369.9L643.4,369.9z"/>
        <path d="M651.9,366.5c0,0.1,0,0.2-0.1,0.3c-0.2,0.3-0.5,0.3-0.7,0.2c-9.7-6.1-19.3-12.7-28.6-19.5c-0.2-0.2-0.3-0.5-0.1-0.8   c0.2-0.2,0.5-0.3,0.8-0.1c9.3,6.8,18.9,13.3,28.6,19.4C651.8,366.1,651.9,366.3,651.9,366.5L651.9,366.5z"/>
        <path d="M658.3,363.3c0,0.1,0,0.2-0.1,0.3c-0.2,0.2-0.5,0.3-0.8,0.1c-8-6-16.3-12-24.5-17.8c-0.3-0.2-0.3-0.5-0.1-0.8   c0.2-0.3,0.5-0.3,0.8-0.1c8.2,5.8,16.5,11.7,24.5,17.8C658.2,362.9,658.3,363.1,658.3,363.3L658.3,363.3z"/>
        <path d="M666.4,360.3c0,0.1,0,0.2-0.1,0.3c-0.2,0.3-0.5,0.3-0.7,0.2l-14.6-9.5c-0.3-0.2-0.3-0.5-0.2-0.8c0.2-0.3,0.5-0.3,0.7-0.2   l14.6,9.5C666.3,360,666.4,360.1,666.4,360.3L666.4,360.3z"/>
    </g>
    </svg>