<svg xmlns="http://www.w3.org/2000/svg" xmlns:xlink="http://www.w3.org/1999/xlink" version="1.1" id="Layer_1" x="0px" y="0px" viewBox="0 0 683 580" style="enable-background:new 0 0 683 580;" xml:space="preserve">
    <style type="text/css">
        .stJawDark0{clip-path:url(#SVGID_2_);}
        .stJawDark1{fill:none;stroke:#FFFFFF;stroke-width:0.97;stroke-miterlimit:10;}
        .stJawDark2{fill:#FFFFFF;stroke:#000000;stroke-miterlimit:10;}
        .stJawDark3{fill:#BEE8FF;stroke:#000000;stroke-width:1.47;stroke-miterlimit:10;}
        .stJawDark4{fill:#BEE8FF;stroke:#000000;stroke-width:1.52;stroke-miterlimit:10;}
        .stJawDark5{fill:#BEE8FF;stroke:#000000;stroke-miterlimit:10;}
        .stJawDark6{fill:#50B8E7;stroke:#000000;stroke-miterlimit:10;}
        .stJawDark7{fill:none;stroke:#000000;stroke-miterlimit:10;}
        .stJawDark8{fill:#06005A;}
        .stJawDark9{fill:#FFFFFF;}
        .stJawDark10{opacity:0.13;}
        .stJawDark11{fill:#BEE8FF;}
    </style>
    <g>
        <g>
            <defs>
                <rect id="SVGID_1_" y="0" width="683" height="580"/>
            </defs>
            <clipPath id="SVGID_2_">
                <use xlink:href="#SVGID_1_" style="overflow:visible;"/>
            </clipPath>
            <g class="stJawDark0">
                <path class="stJawDark1" d="M15,333.4l0.5-1.4l76.2-230.1c0-0.1,0.1-0.1,0.1-0.1c0.1,0,0.1,0,0.2,0.1l84.3,231.9l0.6,1.7     c0,0.1,0,0.2-0.1,0.2s-0.2,0-0.2-0.1l-0.7-1.8L91.8,102.4L15.8,332l-0.8,2.3"/>
                <path class="stJawDark2" d="M1.4,553.3l7.2-15.5c0,17.2,50,21.3,111.7,21.3S232,557.8,232,537.8c0-0.3-0.1-0.5-0.1-0.8l0.1-0.2l7.3,16.8     c0.5,0.9,0.7,1.9,0.7,3c0,21.4-53.6,22.8-119.7,22.8S0.6,575,0.6,556.6C0.6,555.4,0.9,554.3,1.4,553.3L1.4,553.3z"/>
                <path class="stJawDark2" d="M120.3,517.8c60.5,0,109.7,5.5,111.6,19.2c0,0.3,0.1,0.5,0.1,0.8c0,20-50,21.3-111.7,21.3S8.6,555,8.6,537.8     C8.6,522.2,58.6,517.8,120.3,517.8L120.3,517.8z"/>
                <path class="stJawDark3" d="M312,491.9l151.6,35.5l64.7,15.1l20.4-30.6l-68-15.9l-154.9-36.3c0.5,13.7-0.1,25.6-3.1,32.8     C322.8,492.5,318.8,492.3,312,491.9L312,491.9z"/>
                <path class="stJawDark4" d="M223.1,470c1,0.5,2,0.9,3.1,1.2l77.3,18.5l52.3,12.6c-0.2-10.2-0.4-23-0.4-35.6l-43.6-10.4l-77.9-18.7     c-1.1-0.3-2.2-0.4-3.3-0.4c-6.3,0.1-12.1,4.5-13.5,11.1l-1.3,5.7C214.3,460.4,217.5,467,223.1,470L223.1,470z"/>
                <path class="stJawDark5" d="M620.3,545.3c1.7-7.2-2.8-14.5-10.1-16.2c-7.2-1.7-14.5,2.8-16.2,10.1c-1.7,7.2,2.8,14.5,10.1,16.2     C611.4,557,618.7,552.5,620.3,545.3z"/>
                <path class="stJawDark6" d="M222.6,472.4l8.5-36.4c1.3-5.6-2.2-11.2-7.8-12.5s-11.2,2.2-12.5,7.8l-8.5,36.4c-1.3,5.6,2.2,11.2,7.8,12.5     C215.7,481.5,221.3,478,222.6,472.4z"/>
                <path class="stJawDark6" d="M182.4,539c-0.6,2.8-3.4,4.5-6.2,3.8l-75.1-17.6c-2.8-0.6-4.5-3.4-3.8-6.2c0.6-2.8,3.4-4.5,6.2-3.8     l75.1,17.6C181.3,533.4,183,536.2,182.4,539z"/>
                <path class="stJawDark5" d="M206.7,484.6c-3.1,13.1-16.3,21.3-29.4,18.2l-59.6-13.9c-13.1-3.1-21.3-16.3-18.2-29.4     c3.1-13.1,16.3-21.3,29.4-18.2l59.6,13.9C201.6,458.3,209.8,471.5,206.7,484.6z"/>
                <path class="stJawDark5" d="M198.6,523.5c-1.9,8.2-10.2,13.3-18.4,11.4l-79.3-18.6c-8.2-1.9-13.3-10.2-11.4-18.4     c1.9-8.2,10.2-13.3,18.4-11.4l79.3,18.6C195.4,507,200.5,515.3,198.6,523.5z"/>
                <path class="stJawDark6" d="M224.6,358.4c0.6-2.8-1.1-5.6-3.8-6.2l-75.1-17.6c-2.8-0.6-5.6,1.1-6.2,3.8c-0.6,2.8,1.1,5.6,3.8,6.2     l75.1,17.6C221.2,362.9,224,361.2,224.6,358.4z"/>
                <path class="stJawDark5" d="M222.3,418c3.1-13.1-5.1-26.3-18.2-29.4l-59.6-13.9c-13.1-3.1-26.3,5.1-29.4,18.2s5.1,26.3,18.2,29.4     l59.6,13.9C206,439.3,219.2,431.1,222.3,418z"/>
                <path class="stJawDark6" d="M214.5,451.3c5.4-23.2-9-46.4-32.2-51.8l-23.2-5.4c-23.2-5.4-46.4,9-51.8,32.2c-5.4,23.1,9.1,46.4,32.2,51.8     l23.2,5.4C185.8,488.8,209.1,474.3,214.5,451.3z"/>
                <path class="stJawDark5" d="M232.3,379.5c1.9-8.2-3.2-16.5-11.4-18.4l-79.3-18.6c-8.2-1.9-16.5,3.2-18.4,11.4s3.2,16.5,11.4,18.4     l79.3,18.6C222.1,392.8,230.4,387.7,232.3,379.5z"/>
                <path class="stJawDark6" d="M607.4,542.3c3.3-14.2-5.6-28.6-19.8-31.9l-47.5-11.1c-14.2-3.3-28.6,5.6-31.9,19.8     c-3.3,14.2,5.6,28.6,19.8,31.9l47.5,11.1C589.7,565.4,604.1,556.5,607.4,542.3z"/>
                <polyline class="stJawDark7" points="344.1,3.6 345.3,1.3 346.8,3.6    "/>
                <line class="stJawDark7" x1="357.9" y1="277.8" x2="357.6" y2="297.8"/>
                <line class="stJawDark7" x1="328.9" y1="277.8" x2="327.6" y2="358.6"/>
                <path class="stJawDark5" d="M177.4,333.8L14.9,332c0,0-0.5,40,21.6,50.5c22,10.5,99,15,123.4-6.5C177.3,360.5,177.4,333.8,177.4,333.8     L177.4,333.8z"/>
                <path class="stJawDark1" d="M519.9,333.4l0.5-1.4l76.2-230.1c0-0.1,0.1-0.1,0.2-0.1c0.1,0,0.1,0,0.1,0.1l84.3,231.9l0.6,1.7     c0,0.1,0,0.2-0.1,0.2s-0.2,0-0.2-0.1l-0.7-1.8l-84.1-231.4l-76,229.6l-0.8,2.3"/>
                <path class="stJawDark5" d="M682.4,333.8L519.9,332c0,0-0.5,40,21.6,50.5c22,10.5,99,15,123.4-6.5C682.2,360.5,682.4,333.8,682.4,333.8z     "/>
                <path class="stJawDark2" d="M626.3,78.7l-26.5,22.7c-1,0.9-2.3,1.3-3.6,1.3c-1,0-2-0.3-2.9-0.8c-0.8-0.5-78.9-46.6-232.2-43.7     l-3.2,219.6h-29l3.5-219.5c-156.5-4-236.2,43.1-237,43.6c-0.4,0.3-0.9,0.5-1.4,0.6s-1,0.2-1.5,0.2c-0.8,0-1.6-0.2-2.4-0.5     c-0.4-0.2-0.8-0.5-1.2-0.8L62.4,78.7c-2.2-1.9-2.4-5.2-0.4-7.3c2-2.1,5.4-2.3,7.6-0.4l20.6,17.7c0.3-0.7,1-1.3,1.9-1.3     c1.1,0,2,0.9,2,2v1.2c8.3-4.3,27.9-13.6,59.2-22.5c36.9-10.5,97.4-22.2,179.2-20.1l0.3-21.1l11.3-23.2h2.6l14.9,23.2l-0.3,20.9     c79.2-1.5,138,10,174.1,20.2c32.6,9.3,52.5,19,60.2,23.1l23.6-20.2c2.2-1.9,5.6-1.7,7.6,0.4C628.7,73.5,628.5,76.8,626.3,78.7z"/>
                <path class="stJawDark8" d="M596.1,105.2c1.1,0,2-0.9,2-2V90.9c0-1.1-0.9-2-2-2s-2,0.9-2,2v12.3C594.1,104.3,595,105.2,596.1,105.2z"/>
                <path class="stJawDark8" d="M94,102.4c-0.3,0.8-1,1.3-1.9,1.3c-1,0-1.8-0.7-2-1.6c0.7,0.4,1.6,0.5,2.4,0.5C93,102.6,93.5,102.6,94,102.4     z"/>
                <path class="stJawDark9" d="M294.8,175.7c2.5-4.8,1.9-10.9,4.7-15.5c0.2-0.4,0.6-0.8,1-0.9c0.8-0.1,1.2,0.9,1.3,1.6     c0.5,3.3-0.4,6.7-0.9,10c-0.8,4.8-0.9,9.8-0.3,14.9c0.5,2.6-0.9,5.1-2.1,7.4c-2,4-3.4,8.3-4.3,12.9c-3.7,0.8-7.4-0.6-10.9-2     c-1.3-0.5-2.6-1.1-3.6-1.9c-0.3-5.6-0.2-11.3,0.2-16.9c0.1-1.5,0.2-3.1,0.6-4.6c0.3-1.2,0.7-2.3,1.6-3.1s2.4-0.9,3.3,0.1     c0.2-0.9,1-1.5,1.9-1.8c0.9-0.2,1.8-0.1,2.7,0.2c0.2,0.1,0.5,0.2,0.6,0.4c1.1-0.9,2.7-1,4-0.4     C294.6,175.9,294.7,175.7,294.8,175.7L294.8,175.7z"/>
                <path d="M279.9,204.6L279.9,204.6c0.4,0,0.6-0.3,0.6-0.6c-0.3-7.4,0-14.9,0.6-22.3c0.1-1.1,0.2-2.1,0.7-3     c0.4-0.7,1.2-1.4,2.1-1.2c0.7,0.1,1.3,0.7,1.9,1.8c1,1.8,1.7,3.8,2.1,5.8c0.1,0.6,0.2,1.2,0,1.8c-0.2,0.4-0.6,0.7-0.9,0.6     c-0.2-0.1-0.4-0.3-0.6-0.5c-1.1-1.1-1.9-2.5-2.3-4c-0.1-0.3-0.5-0.5-0.8-0.4s-0.5,0.5-0.4,0.8c0.5,1.7,1.4,3.2,2.6,4.5     c0.3,0.3,0.7,0.7,1.2,0.8c1.1,0.3,2.1-0.5,2.4-1.3s0.2-1.7,0.1-2.4c-0.4-2.2-1.1-4.3-2.2-6.2c-0.5-0.9-1.4-2.2-2.8-2.4     c-1.2-0.2-2.6,0.6-3.4,1.9c-0.6,1-0.7,2.2-0.8,3.5c-0.7,7.4-0.9,15-0.6,22.4C279.3,204.3,279.6,204.6,279.9,204.6L279.9,204.6z"/>
                <path d="M289.8,188.5c0.2,0,0.4,0,0.6-0.1c0.5-0.2,1-0.7,1.3-1.4c0.6-1.1,0.8-2.4,0.8-4.1c0-2-0.4-4-1.1-5.9     c-0.2-0.4-0.4-0.9-0.8-1.3c-0.3-0.3-0.7-0.4-1.2-0.5c-1.7-0.3-3.4,0.4-4.6,1.6c-0.2,0.3-0.2,0.7,0.1,0.9c0.3,0.2,0.7,0.2,0.9-0.1     c0.8-0.9,2.2-1.4,3.4-1.2c0.3,0.1,0.5,0.1,0.7,0.2c0.2,0.2,0.3,0.5,0.4,0.7c0.7,1.7,1,3.6,1,5.4c0,1.5-0.2,2.6-0.7,3.5     c-0.2,0.4-0.4,0.7-0.7,0.8c-0.2,0.1-0.4,0-0.4-0.1c-0.2-0.1-0.3-0.3-0.3-0.5c0-0.3-0.3-0.6-0.6-0.6c-0.3,0-0.6,0.3-0.6,0.6     c0,0.6,0.3,1.2,0.8,1.6C289.1,188.4,289.5,188.5,289.8,188.5L289.8,188.5z"/>
                <path d="M292.6,188.6c0.6,0,1.3-0.3,1.7-0.9c0.4-0.5,0.6-1.1,0.7-1.7c0.5-1.9,0.8-3.8,1-5.7c0.1-0.8,0.1-1.7-0.1-2.5     c-0.2-1-0.8-1.9-1.6-2.3c-1.4-0.7-2.9-0.1-4,0.4c-0.3,0.2-0.4,0.5-0.3,0.8c0.2,0.3,0.5,0.4,0.8,0.3c1.3-0.6,2.2-0.8,2.9-0.4     c0.5,0.2,0.8,0.8,1,1.4c0.2,0.7,0.1,1.4,0,2.1c-0.2,1.9-0.5,3.7-1,5.5c-0.1,0.5-0.3,0.9-0.5,1.2c-0.2,0.2-0.5,0.5-0.8,0.4     c-0.2,0-0.6-0.3-0.7-0.5c0.1-0.3-0.1-0.6-0.4-0.7c-0.3-0.1-0.7,0.1-0.8,0.4c-0.1,0.3,0,0.7,0.2,1c0.3,0.5,1,0.9,1.5,1     C292.4,188.6,292.5,188.6,292.6,188.6z"/>
                <path d="M300.6,186.2L300.6,186.2c0.4,0,0.7-0.4,0.6-0.7c-0.6-4.8-0.4-9.7,0.4-14.4c0.1-0.6,0.2-1.2,0.3-1.8     c0.5-2.7,1-5.5,0.6-8.4c-0.2-1.1-0.9-2.3-2-2.1c-0.8,0.1-1.2,0.7-1.5,1.2c-1.5,2.5-2.2,5.6-2.8,8.6c-0.5,2.5-1.1,5.2-2.2,7.4     c-0.2,0.3,0,0.7,0.3,0.8c0.3,0.2,0.7,0,0.8-0.3c1.2-2.3,1.8-5.1,2.3-7.7c0.6-2.9,1.2-5.8,2.6-8.2c0.2-0.4,0.4-0.6,0.6-0.6     c0.3,0,0.6,0.6,0.6,1.1c0.4,2.6-0.1,5.3-0.6,7.9c-0.1,0.6-0.2,1.2-0.3,1.8c-0.8,4.9-1,9.9-0.4,14.8     C300,186,300.3,186.2,300.6,186.2L300.6,186.2z"/>
                <path class="stJawDark9" d="M294.8,188.5c0.4-1.5,0.2-3.1-0.6-4.5c-0.4-0.9-1.1-1.6-1.4-2.5s-0.1-2.1,0.8-2.5c0.5-0.3,1.2-0.2,1.8,0.1     c1.5,0.6,2.6,1.9,3.5,3.2c0.6,0.8,1.1,1.7,1.4,2.6c0.2,0.9,0.3,1.8,0.2,2.6c0,0.6-0.1,1.1-0.4,1.6c-0.4,0.6-1.2,0.9-1.9,1.2     c-0.8,0.2-1.6,0.4-2.3,0.2C295.1,190.1,294.7,189.3,294.8,188.5L294.8,188.5z"/>
                <path d="M294.3,207.8c0.3,0,0.6-0.2,0.6-0.5c0.9-4.8,2.3-9.4,4.3-13.8l0.2-0.5c1.1-2.4,2.3-5.1,1.7-7.8c-0.4-1.8-1.5-3.3-2.7-4.7     c-0.8-0.9-1.6-1.8-2.7-2.2c-1.3-0.5-3-0.1-3.6,1.3c-0.6,1.3,0.3,2.6,1,3.6c0.1,0.2,0.3,0.4,0.4,0.6c1.3,2.1,1.1,5.1-0.4,7     c-0.2,0.3-0.2,0.7,0.1,0.9c0.3,0.2,0.7,0.2,0.9-0.1c1.9-2.3,2.1-5.9,0.5-8.4c-0.1-0.2-0.3-0.4-0.4-0.6c-0.6-0.9-1.2-1.7-0.8-2.5     c0.3-0.6,1.3-0.8,2-0.6c0.8,0.3,1.5,1.1,2.2,1.9c1.1,1.3,2.1,2.6,2.4,4.1c0.5,2.3-0.6,4.7-1.6,7.1l-0.2,0.5     c-2,4.5-3.5,9.3-4.4,14.1C293.6,207.4,293.9,207.7,294.3,207.8C294.2,207.8,294.3,207.8,294.3,207.8L294.3,207.8z"/>
                <g class="stJawDark10">
                    <path d="M282.5,184.1c0.1-0.5,0.7-0.7,1.1-0.5c0.5,0.2,0.5,0.8,0.7,1.2c0.1,0.2,0.2,0.4,0.3,0.6c0.2,0.1,0.1,0.2,0.4,0.4      c0,0,0,0,0,0.1c0.4,0.4,0.2,0.3,0.8,0.9c0.1,0.1,0.3,0.2,0.4,0.3c1,0.5,0.7,0.3,1.4,0.5c1,0.2,1.4-0.1,2.9,0.2      c0.3,0.1,0.7,0.2,1,0.2c0.4-0.1,0.3,0,1.2-0.3l0,0c0.4-0.2,0.7-0.7,1.1-0.7c1.2-0.3,1.9,1.3,0.9,2c-0.9,0.9-2.2,1.4-3.5,1.4      c-0.1,0-0.3,0-0.4,0c-1.3-0.2-1.1-0.2-2.2-0.2c-0.7,0-0.4,0-1.6,0c-0.6-0.1-1.1-0.4-1.7-0.7c-0.6-0.4-1.1-0.9-1.6-1.5      c-0.1-0.1-0.1-0.1-0.2-0.2c-0.1-0.1-0.1-0.2-0.1-0.3l0,0c-0.2-0.3-0.5-0.6-0.5-1c-0.2-0.4-0.3-0.7-0.4-1.1      C282.6,184.8,282.3,184.4,282.5,184.1L282.5,184.1z"/>
                </g>
                <g class="stJawDark10">
                    <path d="M284.9,185.9C284.7,185.7,284.7,185.7,284.9,185.9L284.9,185.9z"/>
                </g>
                <g class="stJawDark10">
                    <path d="M294.7,175.6c0.2-0.5,0.9-0.7,1.4-0.3c0.4,0.4,0.4,1.2,0.8,1.7c0.4,0.7,2.7,3.5,3.4,5c0.3,0.9-1,1.5-1.5,0.7      c-0.9-1.5-1.9-2.9-3-4.3c-0.4-0.6-0.7-1.3-0.9-2C294.6,176.2,294.6,175.9,294.7,175.6L294.7,175.6z"/>
                </g>
                <path class="stJawDark9" d="M391.3,348.5c5.9-9.3,20-26.3,27-34.9c-1-3.9-17.2-18.9-25.3-28.5c-4.2,38.6-1.3,48.4-8,54.7     c-9.1,8.5-49.7,10-54.7,5.2c-3.3-3.2-5.8-8.5-6.3-12.4c-1.9-15.8,1.2-35.6,1.8-51.5c-9.5,8.5-31.4,24.7-43.4,21.8     c-7.4-1.8-9.1-9.9-9.8-13c-6.1-26.8,0-58.9,4-85.5c6.6,1.4,14.3,4,21,2.3c-1.5,21.3-3.5,49.5-2.5,63c13.6-8.8,23.1-17,38.9-22.5     c11.1-3.8,48.2-0.5,54.6,1.4c13.8,4.1,52.9,47.7,53.8,61.7c1.1,16.8-32.8,41.1-40.4,50.7C400.5,357.1,395,350.6,391.3,348.5     L391.3,348.5z"/>
                <path d="M402,361.6c0.2,0,0.4-0.1,0.5-0.2c2.1-2.6,6.2-6.5,11.1-10.9c12.8-11.7,30.3-27.8,29.5-40.3     c-0.5-7.8-11.8-23.1-22.2-34.9c-9.8-11.1-24.1-25-32-27.3c-6.5-1.9-43.8-5.2-55-1.4c-12,4.1-20.5,10-29.6,16.2     c-2.7,1.9-5.6,3.8-8.6,5.8c-0.8-13.9,1.2-41.5,2.6-61.8c0-0.2-0.1-0.4-0.2-0.5c-0.2-0.1-0.4-0.2-0.6-0.1     c-5.3,1.4-11.5-0.1-17-1.4c-1.3-0.3-2.5-0.6-3.7-0.9c-0.2,0-0.3,0-0.5,0.1c-0.1,0.1-0.2,0.3-0.3,0.4c-0.4,2.6-0.8,5.3-1.2,8     c-3.9,25.1-8.2,53.5-2.7,77.7v0.1c0.7,3.2,2.6,11.5,10.3,13.4c11.8,2.8,32.5-12,42.8-21c-0.2,4.7-0.6,9.6-1,14.8     c-1,12.1-2,24.6-0.7,35.4c0.5,4.3,3.2,9.7,6.4,12.8c2.9,2.8,15.7,3.3,26.3,2.6c5.3-0.4,23.2-2,29.3-7.8c4.5-4.2,4.9-9.9,5.7-23.7     c0.4-7.2,1-16.9,2.4-29.9c3.1,3.6,7.2,7.8,11.1,11.9c5.9,6.2,12,12.6,13,15l-1.9,2.3c-7.3,8.9-19.6,23.9-25,32.4     c-0.1,0.1-0.1,0.3-0.1,0.5s0.2,0.3,0.3,0.4c3.4,2,8.9,8.3,10.4,12.2C401.6,361.4,401.8,361.5,402,361.6     C402,361.6,402.1,361.6,402,361.6L402,361.6z M351.7,246c14.6,0,32.4,1.9,36.7,3.2c6.2,1.8,18.8,12.7,31.4,26.9     c12.9,14.6,21.5,28,21.9,34.2c0.8,11.8-16.5,27.7-29.1,39.3c-4.4,4-8.3,7.6-10.5,10.2c-1.9-3.9-6.6-9.3-10-11.5     c5.5-8.5,17.4-23,24.5-31.7l2.1-2.6c0.1-0.2,0.2-0.4,0.1-0.6c-0.7-2.5-6.6-8.7-13.4-15.8c-4.3-4.5-8.8-9.1-11.9-12.9     c-0.2-0.2-0.4-0.3-0.7-0.2c-0.2,0.1-0.4,0.3-0.4,0.5c-1.5,13.8-2.1,24-2.5,31.4c-0.8,13.4-1.1,19-5.3,22.9     c-4.6,4.3-17.8,6.7-28.5,7.4c-12.2,0.9-23.1-0.1-25.3-2.2c-3-2.9-5.6-8.1-6.1-12.1c-1.3-10.7-0.3-23.1,0.7-35.1     c0.5-5.7,0.9-11.2,1.1-16.3c0-0.3-0.1-0.5-0.4-0.6c-0.2-0.1-0.5-0.1-0.7,0.1c-11.3,10.1-32,24.3-42.8,21.7     c-6.9-1.7-8.7-9.5-9.3-12.4v-0.1c-5.5-24-1.1-52.3,2.7-77.3c0.4-2.5,0.8-4.9,1.1-7.3c1,0.2,2,0.5,3,0.7     c5.3,1.3,11.4,2.7,16.8,1.6c-1.5,20.8-3.4,48.8-2.5,62.2c0,0.2,0.2,0.4,0.3,0.5c0.2,0.1,0.4,0.1,0.6,0c3.4-2.2,6.5-4.3,9.5-6.4     c9.4-6.4,17.5-12,29.3-16.1C337.9,246.4,344.4,246,351.7,246L351.7,246z"/>
                <path class="stJawDark9" d="M360,264.1c-2.6,11.5-5,23-7.3,34.5c-0.4,2-0.8,4-0.6,6c0.2,2.8,1.4,5.4,2.5,7.8c1.4,3,2.8,5.9,4.7,8.8     c2.5-5.3,4.7-10.8,6.6-16.4c0.9-12.8-3-25.4-3.1-38.3c0-0.8,0-1.6-0.3-2.3C362.3,263.5,361.6,263,360,264.1z"/>
                <path d="M359.4,321.9C359.4,321.9,359.5,321.9,359.4,321.9c0.3,0,0.5-0.2,0.6-0.4c2.5-5.4,4.8-11,6.6-16.5c0-0.1,0-0.1,0-0.2     c0.5-7.2-0.5-14.4-1.5-21.3c-0.8-5.6-1.6-11.3-1.6-17v-0.1c0-0.8,0-1.7-0.4-2.5c-0.2-0.5-0.6-0.9-1.1-1c-0.7-0.2-1.5,0-2.4,0.7     c-0.1,0.1-0.2,0.2-0.3,0.4c-2.5,11.4-5,23-7.3,34.5c-0.4,1.9-0.8,4-0.6,6.1c0.2,3,1.5,5.7,2.6,8c1.4,2.9,2.8,5.9,4.8,8.9     C359.1,321.7,359.3,321.8,359.4,321.9L359.4,321.9z M365.4,304.7c-1.8,5.1-3.8,10.2-6.1,15.2c-1.6-2.6-2.9-5.2-4.1-7.8     c-1.1-2.2-2.3-4.8-2.5-7.5c-0.1-2,0.3-4,0.6-5.8c2.2-11.4,4.7-23,7.2-34.3c0.7-0.4,1-0.4,1.2-0.4c0.1,0,0.2,0.1,0.3,0.3     c0.2,0.6,0.3,1.3,0.3,2v0.1c0,5.8,0.8,11.6,1.6,17.2C364.9,290.6,365.9,297.7,365.4,304.7z"/>
                <path class="stJawDark9" d="M363.8,256.2c-0.9-0.8-2.2-0.9-3.2-0.5c-1.6,0.5-2.9,1.2-3.4,2.8c-0.1,0.4,0.5,2.2,0.9,2.9     c0.4,0.8,1.5,2.2,2.6,2.4c0.9,0.2,1.8-0.3,2.5-0.8c1.3-1,2.5-2.5,2.3-4.2C365.2,257.8,364.6,257,363.8,256.2L363.8,256.2z"/>
                <path d="M361,264.5c0.8,0,1.6-0.3,2.5-1c1.8-1.3,2.8-3.1,2.5-4.7c-0.2-1.1-0.7-2-1.8-3c-1-0.9-2.4-1.1-3.8-0.7     c-1.4,0.4-3.2,1.2-3.8,3.3c-0.2,0.8,0.7,2.9,0.9,3.3c0.4,0.8,1.7,2.5,3,2.8C360.6,264.5,360.8,264.5,361,264.5L361,264.5z      M361.7,256.1c0.6,0,1.2,0.2,1.6,0.6c0.8,0.8,1.3,1.5,1.4,2.2c0.3,1.8-1.5,3.2-2,3.6c-0.8,0.6-1.5,0.8-2.1,0.7     c-0.7-0.1-1.7-1.3-2.1-2.1c-0.3-0.6-0.8-2.1-0.8-2.4c0.3-1.1,1.2-1.8,3-2.4C361,256.2,361.4,256.1,361.7,256.1L361.7,256.1z"/>
                <path class="stJawDark9" d="M352.3,224.9c0.4,7.8,0.1,15.7-0.9,23.5c-0.1,0.7-0.2,1.3,0.1,1.9c0.2,0.6,0.8,1.1,1.3,1.5     c3.7,2.8,8.5,4.4,13,3.6c4.6-0.7,8.8-4,9.7-8.9c-1.3-6.5-3.5-15.7-5-26.1C364.9,222.4,359,223.6,352.3,224.9L352.3,224.9z"/>
                <path d="M363.6,256.3c0.8,0,1.6-0.1,2.4-0.2c5.2-0.8,9.4-4.6,10.2-9.4c0-0.1,0-0.2,0-0.2c-0.4-1.9-0.8-4.1-1.3-6.4     c-1.2-5.5-2.6-12.4-3.6-19.7c0-0.2-0.1-0.4-0.3-0.4c-0.2-0.1-0.4-0.1-0.5-0.1c-5.4,1.8-11,3-18.3,4.5c-0.3,0.1-0.5,0.3-0.5,0.6     c0.4,7.8,0.1,15.7-0.9,23.4c-0.1,0.7-0.2,1.5,0.1,2.2c0.3,0.8,0.9,1.3,1.5,1.8C355.8,254.9,359.8,256.3,363.6,256.3L363.6,256.3z      M374.9,246.6c-1,4.9-5.3,7.7-9.2,8.3c-4.1,0.7-8.7-0.6-12.6-3.5c-0.4-0.3-0.9-0.7-1.1-1.2s-0.1-1.1,0-1.6     c0.9-7.6,1.2-15.4,0.9-23.1c6.7-1.3,12-2.5,17.2-4.2c1,7.1,2.4,13.7,3.5,19.1C374.1,242.6,374.6,244.7,374.9,246.6z"/>
                <path d="M380,259.4c0.2,0,0.4-0.1,0.5-0.3c1.1-1.7,2.2-3.5,3.2-5.3c0.2-0.3,0.1-0.7-0.3-0.8s-0.7-0.1-0.8,0.3     c-1,1.8-2,3.5-3.1,5.2c-0.2,0.3-0.1,0.7,0.2,0.9C379.8,259.4,379.9,259.4,380,259.4L380,259.4z"/>
                <path d="M385.1,258.1c0.2,0,0.5-0.1,0.6-0.4l1.5-3.2c0.2-0.3,0-0.7-0.3-0.8c-0.3-0.2-0.7,0-0.8,0.3l-1.5,3.2     c-0.2,0.3,0,0.7,0.3,0.8C384.9,258.1,385,258.1,385.1,258.1z"/>
                <path class="stJawDark9" d="M363.4,255.6c2,3.1,4,6.2,6.5,9.5c4-6.2,8-12.6,10.3-19.6c-1.4-0.8-4.3-3.2-5.7-4c0.3,1.6,1,3,0.7,3.5     C375.1,245.3,367.3,252.6,363.4,255.6L363.4,255.6z"/>
                <path d="M369.9,265.7L369.9,265.7c0.2,0,0.4-0.1,0.5-0.3c3.8-5.8,8-12.5,10.4-19.8c0.1-0.3,0-0.6-0.3-0.7c-0.7-0.4-1.7-1.2-2.8-2     c-1.1-0.8-2.2-1.6-2.9-2c-0.2-0.1-0.5-0.1-0.7,0s-0.3,0.4-0.3,0.6c0.1,0.7,0.3,1.3,0.5,1.9c0.1,0.4,0.3,0.9,0.3,1.2     c-0.9,0.9-8,7.6-11.7,10.4c-0.3,0.2-0.3,0.6-0.1,0.8c2,3.1,4,6.3,6.5,9.5C369.5,265.6,369.7,265.7,369.9,265.7L369.9,265.7z      M379.4,245.7c-2.2,6.7-6.1,12.8-9.6,18.3c-2.1-2.8-3.9-5.6-5.6-8.3c3.8-3,11.3-10,11.6-10.5c0.3-0.5,0.1-1.1-0.2-2.1     c0-0.1,0-0.2-0.1-0.3c0.5,0.3,1,0.7,1.5,1.1C377.9,244.7,378.8,245.3,379.4,245.7z"/>
                <path class="stJawDark11" d="M393.3,189.3c-1.4,5.9-2.9,11.2-5.7,18.9c-1.3,3.6-3.4,7.6-5.6,10.8c-1.1,1.5-1.9,2.2-3.8,2.9     c0-1.6-1.6-2.6-1.7-4.2c-0.2-2,1.3-3.6,0.2-5.5c-2-3.5-3.2-7.3-3.6-11.2c-0.3-3.1-0.1-6.4,1.7-9.1c1.7-2.7,5.1-4.8,8.9-4.7     C386.5,187.3,391.2,187.3,393.3,189.3L393.3,189.3z"/>
                <path d="M378.2,222.5c0.1,0,0.1,0,0.2,0c2.2-0.8,3-1.6,4.1-3.2c2.3-3.2,4.4-7.2,5.7-11c2.8-7.7,4.2-13,5.7-18.9     c0-0.2,0-0.4-0.2-0.6c-2.2-2.1-6.6-2.2-9.6-2.2h-0.5c-3.7-0.1-7.4,1.9-9.4,5c-1.6,2.5-2.1,5.6-1.7,9.5s1.6,7.8,3.7,11.4     c0.5,0.9,0.3,1.7,0,2.8c-0.2,0.7-0.4,1.6-0.3,2.5s0.5,1.7,1,2.3c0.4,0.6,0.8,1.2,0.7,1.8c0,0.2,0.1,0.4,0.3,0.5     C377.9,222.5,378.1,222.5,378.2,222.5L378.2,222.5z M392.6,189.5c-1.4,5.8-2.9,10.9-5.5,18.4c-1.3,3.6-3.3,7.5-5.6,10.7     c-0.9,1.2-1.5,1.8-2.8,2.4c-0.2-0.6-0.5-1.1-0.8-1.6c-0.4-0.6-0.7-1.1-0.8-1.7c0-0.7,0.1-1.4,0.3-2.1c0.3-1.1,0.6-2.4-0.1-3.7     c-1.9-3.5-3.1-7.2-3.5-10.9c-0.4-3.6,0.1-6.4,1.6-8.7c1.7-2.8,5-4.5,8.3-4.4h0.5C386.7,187.9,390.7,188,392.6,189.5L392.6,189.5z     "/>
                <path class="stJawDark9" d="M347.1,194.6c-0.5,5.3-2.3,10.4-3.1,15.7c-0.8,5.3-0.4,11,3,15.7c3.1,4.1,8.4,6.9,14,7.3     c5.6,0.4,11.2-1.6,14.5-5.2c3.2-3.4,4.9-11.6,5.9-15.6c2.4,0.7,5.2,0.4,7-1.1s2.1-4,0.6-5.8s-3.6-2.3-6.4-0.4     c0.7-3.4,0.6-6.8,0.5-8.3c-0.1-4.2,0.7-10.4-1.9-12.6c-1.5-1.2-4.8-2.6-6.6-3.4c-3.2-1.4-8.1,0.1-11.6-0.4s-7.3,0.6-10.3,2     C348.9,183.9,347.5,190.6,347.1,194.6L347.1,194.6z"/>
                <path d="M362.5,233.9c5.3,0,10.4-2,13.6-5.5c3-3.2,4.6-10,5.7-14.5c0.1-0.3,0.1-0.5,0.2-0.8c2.5,0.6,5.2,0,6.9-1.4     c2-1.8,2.4-4.7,0.7-6.7c-1-1.2-3-2.7-6-1.2c0.4-2.9,0.3-5.6,0.3-7v-0.1c0-0.9,0-1.8,0-2.8c0.1-3.9,0.2-8.3-2.2-10.2     c-1.5-1.2-4.7-2.6-6.6-3.4l-0.2-0.1c-2-0.9-4.6-0.7-7.1-0.5c-1.7,0.1-3.3,0.2-4.7,0c-3-0.4-6.6,0.2-10.7,2     c-4.6,2-5.7,11-5.9,12.8c-0.3,3-1,5.9-1.7,8.8c-0.5,2.2-1.1,4.6-1.4,6.9c-1,6.6,0.1,12,3.1,16.1c3.2,4.2,8.7,7.1,14.5,7.5     C361.5,233.9,362,233.9,362.5,233.9L362.5,233.9z M381.4,211.8c-0.1,0-0.2,0-0.3,0.1c-0.2,0.1-0.3,0.2-0.3,0.4     c-0.1,0.4-0.2,0.9-0.3,1.4c-1,4.1-2.6,11-5.4,14c-3.3,3.5-8.6,5.4-14,5s-10.6-3.1-13.5-7c-2.9-3.8-3.8-8.9-2.9-15.2     c0.3-2.3,0.9-4.6,1.4-6.8c0.7-2.9,1.4-5.9,1.7-9c0.4-4.6,2-10.4,5.1-11.8c3.9-1.7,7.2-2.3,10-1.9c1.5,0.2,3.2,0.1,4.9,0     c2.4-0.2,4.8-0.3,6.5,0.4l0.2,0.1c1.8,0.8,4.9,2.1,6.3,3.2c1.8,1.5,1.8,5.6,1.7,9.2c0,1,0,2,0,2.9v0.1c0,1.6,0.1,4.9-0.5,8.1     c-0.1,0.3,0.1,0.5,0.3,0.6c0.2,0.1,0.5,0.1,0.7,0c2.2-1.6,4.1-1.5,5.6,0.3c1.2,1.5,1,3.7-0.5,5s-4.1,1.7-6.4,1     C381.6,211.8,381.5,211.8,381.4,211.8L381.4,211.8z"/>
                <path class="stJawDark11" d="M364.4,188.3c-0.7,2.3-4.7,5.3-7,5.3s-3.1-1.1-3.8-3.4c-2.2,1.6-3.9,3.3-6,3.9c-3.3,0.9-7-1.4-7.8-4.9     c-0.8-3.4,1.6-7.3,5-8.1c-2.2,0.3-4.2-2.1-4-4.4c0.2-2.3,2-4.3,4.1-5.1s4.4-0.8,6.7-0.9c-0.6-2.3,0.7-5,2.7-6.2     c2-1.3,4.5-1.4,6.8-0.9c1.5,0.3,3,0.9,4.1,2s1.8,2.8,1.6,4.4c2.2-2.4,5.6-3.8,8.6-2.8s5,5,5,7.6c1.7-1.7,3.7-3,6-2.7     c4.5,0.7,5.2,4.6,2.7,9.4c2.5-1,6.1,0.4,6.9,4c0.6,2.7-0.7,6.8-2.7,8.7s-8.6,3.1-12.8-0.6c-2.3-2-3.3-4.6-3.8-6.9     c-1.5,2.2-2.7,3.7-6.1,4.5C367.9,191.9,365,190.7,364.4,188.3L364.4,188.3z"/>
                <path d="M387.1,196.8c2.8,0,5.3-0.9,6.5-2c2.2-2.1,3.6-6.4,2.9-9.3c-0.4-1.8-1.5-3.3-3.1-4.1c-1-0.5-2.2-0.8-3.3-0.7     c1.1-2.6,1.2-4.9,0.4-6.5c-0.7-1.4-2.2-2.3-4.1-2.6s-3.8,0.4-5.6,2c-0.5-2.8-2.5-5.9-5.3-6.8c-2.6-0.9-5.7-0.1-8.2,1.9     c-0.2-1.3-0.8-2.5-1.7-3.5c-1.1-1-2.5-1.8-4.4-2.2c-2.8-0.6-5.3-0.2-7.3,1c-2.1,1.3-3.3,3.9-3.1,6.2c-0.2,0-0.4,0-0.5,0     c-1.9,0.1-3.8,0.1-5.6,0.9c-2.5,1-4.3,3.3-4.5,5.7c-0.1,1.5,0.5,3,1.6,4c0.3,0.3,0.6,0.5,0.9,0.7c-2.6,1.6-4.1,4.9-3.4,8     c0.4,1.9,1.6,3.5,3.3,4.5c1.6,1,3.5,1.3,5.2,0.8s3.2-1.6,4.7-2.9c0.3-0.2,0.6-0.5,0.9-0.7c0.7,1.9,1.8,3,4.1,3     c2.2,0,5.5-2.3,7-4.5c1.2,1.8,3.6,2.8,6.1,2.2c3-0.7,4.3-1.9,5.7-3.6c0.5,1.9,1.6,4.1,3.7,6C382,196,384.7,196.7,387.1,196.8     L387.1,196.8z M390.7,181.9c0.7,0,1.5,0.2,2.1,0.5c1.2,0.7,2.1,1.8,2.4,3.3c0.6,2.5-0.6,6.3-2.5,8.1s-8.1,2.8-12-0.6     c-2.4-2.1-3.2-4.8-3.6-6.6c-0.1-0.2-0.2-0.4-0.5-0.5c-0.2-0.1-0.5,0.1-0.6,0.3c-1.4,2-2.4,3.5-5.7,4.2c-2.1,0.5-4.6-0.4-5.2-2.6     c-0.1-0.3-0.3-0.5-0.6-0.5c-0.3,0-0.5,0.2-0.6,0.4c-0.6,2-4.4,4.9-6.4,4.9c-1.8,0-2.5-0.6-3.2-3c-0.1-0.2-0.2-0.3-0.4-0.4     s-0.4,0-0.6,0.1c-0.6,0.4-1.1,0.8-1.6,1.2c-1.5,1.2-2.8,2.2-4.3,2.6c-1.4,0.4-2.9,0.1-4.3-0.7c-1.4-0.9-2.4-2.2-2.8-3.7     c-0.7-3.1,1.5-6.7,4.5-7.3c0.3-0.1,0.5-0.4,0.5-0.7c-0.1-0.3-0.4-0.6-0.7-0.5c-0.7,0.1-1.5-0.2-2.1-0.7c-0.8-0.8-1.3-1.9-1.2-3     c0.2-2.2,2-3.9,3.7-4.6c1.6-0.6,3.4-0.7,5.2-0.8c0.4,0,0.9,0,1.3-0.1c0.2,0,0.4-0.1,0.5-0.3s0.2-0.4,0.1-0.5     c-0.5-1.9,0.5-4.3,2.4-5.5c1.7-1.1,3.9-1.3,6.3-0.8c1.6,0.4,2.9,1,3.8,1.8c1,1,1.6,2.5,1.4,3.9c0,0.3,0.1,0.5,0.4,0.6     c0.2,0.1,0.5,0.1,0.7-0.1c2.3-2.4,5.4-3.5,8-2.6c2.8,0.9,4.6,4.8,4.6,7c0,0.3,0.2,0.5,0.4,0.6c0.2,0.1,0.5,0,0.7-0.1     c1.9-1.9,3.7-2.8,5.5-2.5c1.6,0.2,2.7,0.9,3.2,1.9c0.8,1.5,0.5,3.9-0.9,6.6c-0.1,0.2-0.1,0.5,0.1,0.7s0.5,0.3,0.7,0.2     C389.6,182.1,390.1,182,390.7,181.9L390.7,181.9z"/>
                <path d="M351.4,202.8c0-0.7,0.5-1.2,1.2-1.2s1.3,0.5,1.3,1.2s-0.5,1.2-1.2,1.2C352,203.9,351.4,203.4,351.4,202.8z"/>
                <path d="M368.8,205.3c0-0.7,0.5-1.2,1.2-1.2s1.3,0.5,1.3,1.2s-0.5,1.2-1.2,1.2C369.4,206.4,368.8,205.9,368.8,205.3z"/>
                <path d="M362.3,225.6c1.8,0,3.5-0.7,4.8-1.9c0.3-0.2,0.3-0.6,0-0.9c-0.2-0.3-0.6-0.3-0.9,0c-1.4,1.4-3.8,1.9-5.7,1.2     c-0.3-0.1-0.7,0.1-0.8,0.4c-0.1,0.3,0.1,0.7,0.4,0.8C360.8,225.5,361.6,225.6,362.3,225.6L362.3,225.6z"/>
                <path d="M359.9,218.7c0.1,0,0.3,0,0.4,0c1.4-0.1,2.6-0.7,3.4-1.7c0.2-0.3,0.2-0.7-0.1-0.9c-0.3-0.2-0.7-0.2-0.9,0.1     c-0.6,0.7-1.5,1.1-2.5,1.2c-0.9,0.1-1.9-0.2-3-0.7c-0.4-0.2-0.7-0.4-1-0.7c-0.3-0.4-0.3-0.9-0.1-1.5c0.2-0.5,0.5-1,0.8-1.5     l0.2-0.3c1.9-3.1,3-6.6,3.3-10.3c0-0.3-0.2-0.6-0.6-0.7c-0.3,0-0.6,0.2-0.7,0.6c-0.3,3.4-1.4,6.8-3.1,9.7l-0.2,0.2     c-0.3,0.6-0.7,1.1-0.9,1.8c-0.3,1-0.2,1.9,0.3,2.6c0.4,0.5,0.9,0.8,1.4,1.1C357.8,218.5,358.9,218.7,359.9,218.7L359.9,218.7z"/>
                <path d="M381.9,208.5c0.3,0,0.5-0.2,0.6-0.5c0.3-1.2,0.4-1.8,0.7-2.9c0.1-0.3-0.1-0.7-0.5-0.7c-0.3-0.1-0.7,0.1-0.7,0.5     c-0.3,1.1-0.4,1.7-0.7,2.9c-0.1,0.3,0.1,0.7,0.4,0.8C381.8,208.5,381.9,208.5,381.9,208.5L381.9,208.5z"/>
                <path d="M386.9,194.3c0,0,0.1,0,0.2,0c2.6-0.6,4.6-3,4.9-5.6c0-0.3-0.2-0.6-0.6-0.7c-0.3,0-0.6,0.2-0.7,0.6     c-0.2,2.1-1.8,4-3.9,4.5c-0.3,0.1-0.5,0.4-0.5,0.8C386.4,194.1,386.6,194.3,386.9,194.3L386.9,194.3z"/>
                <g class="stJawDark10">
                    <path d="M347.5,193.7c1.1-0.7,2.3-1.3,3.4-2.1c0.7-0.4,1.3-1.1,2.1-1.3c1.1-0.2,1.8,0.9,1.6,1.8c0.2,0.1,0.4,0.2,0.6,0.3      c0,0,0,0.1,0.1,0.1c0,0,0,0.1,0.1,0.1c0.1,0.1,0.2,0.1,0.2,0.2l0.1,0.1c0.1,0,0.2,0.1,0.2,0.1c0.3,0.1,0.5,0.1,0.8,0.2l0,0      c1.2,0,2.6-0.6,3.3-0.9c0,0,0,0,0.1-0.1c0.1,0,0.4-0.2,0.5-0.3c0.6-0.4,1.3-0.9,1.9-1.4c0.2-0.1,0.3-0.3,0.4-0.4      c0.1-0.5,0.5-1,1.1-0.9c0.5,0,1,0.6,0.9,1.1c0,0.1,0,0.1-0.1,0.2c0,0,0,0,0,0.1v0.1c0,0,0.1,0,0.1,0.1c0.2,0,0.3,0.1,0.5,0.2      c0.1,0,0.2,0.1,0.2,0.1c0.5,0.3,1.1,0.5,1.5,0.6c0.2-0.2,0.5-0.3,0.8-0.3c1.5-0.1,2-0.2,3.7-0.9c0.7-0.2,0.5-0.4,1.6-0.6      c0.3,0,0.6,0.1,0.8,0.3c0.1-0.1,0.2-0.2,0.3-0.3c0.2-0.2,0.3-0.3,0.3-0.4c0.4-0.3,0.7-0.5,1.1-0.8c0.4,0.1,0.8,0.4,0.8,0.9      c0,0.2-0.1,0.4-0.2,0.6c-0.2,0.3-0.4,0.6-0.6,0.9c0.1-0.1,0.2-0.3,0.1-0.1c-0.5,0.8-1.2,1.4-2,2c-1.2,0.9-2.6,1.5-4.1,1.8      c-1,0.2-2,0.4-3,0.3c-0.1,0-0.2,0-0.2,0h0.1c-0.8-0.1-1.6-0.5-2.2-1c-0.4-0.4-0.8-0.9-1-1.5c-0.7,0.6-1.4,1.2-2.2,1.7      c-0.8,0.4-1.4,0.8-2.7,1.2c-1.4,0.4-3.1,0.3-4.2-0.7c-0.3-0.3-0.5-0.6-0.8-0.9c-0.9,0.7-1.8,1.3-2.7,1.9c-0.8,0.5-1.6,1-2.6,1.1      C346.4,196.4,346.1,194.4,347.5,193.7L347.5,193.7z"/>
                </g>
                <g class="stJawDark10">
                    <path d="M391.7,196.7c-0.2-0.7-0.9-0.6-1.5-0.5c-0.8,0.1-1.7,0-2.5,0.1c-0.6,0-1.2,0.1-1.8,0.1l0,0c-0.2,0-0.3,0,0,0      c-0.3,0-0.7-0.1-1-0.1c-0.1-0.2-0.1-0.3-0.3-0.4c-0.6-0.6-1.6,0-1.5,0.8c0.1,0.6,0.1,1.2,0.1,1.9c-0.1,0.9-0.3,2.3,1,2.3      c0.3,0,0.5-0.2,0.7-0.3c0,0.1,0.6-0.4,0.8-0.4c0.7-0.4,1.9-0.9,3.2-1.5c0.6-0.3,1.3-0.5,2-0.7c0,0,0.1,0,0.2,0c0,0,0.1,0,0.2,0      C391.6,197.6,391.8,197.2,391.7,196.7L391.7,196.7z"/>
                </g>
                <g class="stJawDark10">
                    <path d="M372,231.3c-0.8,0.5-1.6,0.8-2.5,1.1c0,0-0.1,0-0.1,0.1l0,0c-1.8,0.5-3.8,0.7-5.6,0.9c-0.4,0-0.7,0.1-1.1,0.1      c0,0-0.4,0-0.8,0c-0.7,0-4.3-0.8-9-2.3c0,0.4-0.1,1.9-0.1,2.3c-0.1,4.1-0.2,6.2-0.2,6.5c-0.3,1.1-0.6,1.9-0.2,2.8      c0.3,0.6,0.8,1.1,1.1,1.3c0.3-0.1,0.5-0.3,0.8-0.4c1.3-0.6,2.7-1.3,4-2c5.1-2.7,9.8-5.5,13.9-8.4      C373,232.8,372.8,231.5,372,231.3L372,231.3z"/>
                </g>
                <g class="stJawDark10">
                    <path d="M361.5,264c-0.3-0.3-0.6-0.6-0.9-0.7c-1-0.3-1.7,1.1-0.8,1.8c0.6,0.6,1,0.9,1.2,1.1c0.2,0.3,0.4,0.6,0.8,0.7      c0.6,0.2,1.2-0.4,1.2-1c0.1-0.8,0-1,0.2-1.4C363.4,263.3,361.8,262.9,361.5,264L361.5,264z"/>
                </g>
                <g class="stJawDark10">
                    <path d="M369.6,264.4c-0.2-0.4-0.7-0.7-1-1.1c-0.7-0.8-1.5-1.8-1.6-2.1c-0.2-0.3-0.3-0.5-0.5-0.8c-0.1-0.3-0.3-0.6-0.6-0.7      c-0.7-0.3-1.4,0.5-1.1,1.2c0.1,0.2,0.2,0.3,0.3,0.5c-0.1,0-0.2-0.1-0.2-0.1c-0.9-0.3-1.5,1-0.7,1.6c0.9,0.6,1.8,1.3,2.7,2      c0.9,0.6,1.5,1,2,1.2C369.8,266.2,370.4,265,369.6,264.4L369.6,264.4z"/>
                </g>
                <g class="stJawDark10">
                    <path d="M357.9,260.7c-0.2-0.4-0.3-0.9-0.6-1.3c-0.1-0.2-0.1-0.5-0.4-0.6c-0.5-0.5-1.2-0.2-1.4,0.3h-0.1      c-0.4,0.1-0.6,0.4-0.9,0.6c-0.5,0.4-0.4,0.5-0.5,0.7l0,0c-0.1,0.1-0.1,0.2-0.2,0.3c-0.4,0.1-0.8,0.2-1.1,0.4      c-0.6,0.2-1.3,0.3-1.7,0.7c-0.7,0.7,0.1,1.8,1,1.4c0.6-0.3,1.3-0.4,2.5-0.8c0.6-0.2,1.3-0.2,2-0.3c0.2,0,0.3-0.1,0.4-0.2      C357.6,262.1,358.3,261.4,357.9,260.7L357.9,260.7z"/>
                </g>
                <path class="stJawDark9" d="M361,532c1.2,5.7,2.2,11.4,3,17.2c0.1,0.8,0.2,3.3-0.4,3.8c-0.4,0.4-21.8,1.2-33.1,0     c-0.2-2.3,0.8-6.4,2.5-7.7c2.1-1.6,13.3-1.4,15.4-3.1c3.2-2.5,3.3-7.8,3-12.2C354.8,529.7,358.3,530.3,361,532L361,532z"/>
                <path d="M346.6,554.2c1.7,0,3.2,0,4.5,0c3.2-0.1,6.3-0.1,8.7-0.3c3.8-0.2,4-0.3,4.2-0.5c0.9-0.9,0.6-4.3,0.6-4.3     c-0.8-5.8-1.8-11.6-3-17.2c0-0.2-0.1-0.3-0.3-0.4c-2.6-1.6-6.1-2.4-10-2.2c-0.2,0-0.3,0.1-0.4,0.2c-0.1,0.1-0.2,0.3-0.2,0.5     c0.3,4.3,0.3,9.4-2.7,11.7c-0.9,0.7-4.4,1.1-7.4,1.4c-3.5,0.4-6.8,0.7-8,1.6c-2,1.5-3,5.9-2.7,8.3c0,0.3,0.3,0.5,0.6,0.6     C335.3,554.1,341.7,554.2,346.6,554.2L346.6,554.2z M363.2,552.4c-2.1,0.4-21.2,1-32.1,0c0-2.3,0.9-5.6,2.3-6.7     c0.9-0.7,4.3-1.1,7.4-1.4c3.5-0.4,6.8-0.7,8.1-1.7c3.3-2.5,3.5-7.5,3.3-12.1c3.3-0.1,6.2,0.5,8.4,1.9c1.2,5.6,2.2,11.2,2.9,16.9     C363.4,550.2,363.4,551.9,363.2,552.4L363.2,552.4z"/>
                <path class="stJawDark9" d="M432.6,529.9c-1.2,5.7,3.8,22.5,4.4,23.1c0.4,0.4,21.8,1.2,33.1,0c0.2-2.3-0.8-6.4-2.5-7.7     c-2.1-1.6-13.3-1.4-15.4-3.1c-3.2-2.5-10-7.8-9.7-12.3C439,529.7,435.3,528.2,432.6,529.9L432.6,529.9z"/>
                <path d="M453.9,554.2c5,0,11.3-0.1,16.2-0.6c0.3,0,0.5-0.3,0.6-0.6c0.2-2.4-0.7-6.8-2.7-8.3c-1.2-0.9-4.5-1.3-8-1.6     c-3.1-0.3-6.5-0.7-7.4-1.4c-2.4-1.9-9.8-7.5-9.5-11.7c0-0.2,0-0.3-0.2-0.5c-0.1-0.1-0.3-0.2-0.4-0.2c-1-0.1-2-0.2-3-0.4     c-2.5-0.4-5.2-0.9-7.3,0.5c-0.1,0.1-0.2,0.2-0.3,0.4c-1.2,5.9,3.8,22.9,4.5,23.6c0.2,0.2,0.3,0.3,4.2,0.5     c2.4,0.1,5.5,0.2,8.7,0.3C450.7,554.2,452.2,554.2,453.9,554.2L453.9,554.2z M469.5,552.4c-10.9,1-29.8,0.4-32.1,0     c-0.9-2-5.1-16.8-4.2-22.1c1.7-0.9,3.8-0.6,6.2-0.2c0.8,0.1,1.7,0.3,2.5,0.4c0.3,4.8,7.3,10.1,9.9,12.2c1.2,0.9,4.5,1.3,8.1,1.7     c3,0.3,6.4,0.7,7.4,1.4C468.5,546.7,469.5,550.1,469.5,552.4L469.5,552.4z"/>
                <path class="stJawDark9" d="M391.9,349.6c-2.2,2.8-4.2,5.9-5.2,9.3s-1.1,7.2,0.2,10.5c0.8,1.9,2,3.6,3.3,5.2c1.5,1.8,3,3.6,4.6,5.3     c1.5,1.6,3.5,3.3,5.7,2.8c0.3-0.1,0.5-0.1,0.7-0.3c0.4-0.5,0-1.3-0.4-1.8c-2.1-2.7-4.1-5.5-6.3-8c1.9,2.3,3.9,4.6,5.9,6.7     c0.8,0.8,1.9,1.7,3,1.5c0.4-1.1-0.2-2.3-0.9-3.3c-1.5-2.3-3-4.6-4.5-6.9c1.5,2.1,3.1,4.1,4.8,6c0.4,0.5,1.1,1,1.6,0.6     c0.4-0.3,0.4-0.9,0.3-1.3c-0.6-3.2-3-5.6-4.8-8.3c-1.8-2.7-2.8-6.5-0.7-8.9c0.2-0.2,0.5-0.5,0.5-0.8c0.1-0.3-0.1-0.6-0.3-0.9     c-1.3-2.1-2.8-4.1-4.4-6C394.3,349.9,392.7,348.4,391.9,349.6L391.9,349.6z"/>
                <path d="M399.8,383.4c0.3,0,0.6,0,0.9-0.1s0.7-0.2,1-0.5c0.2-0.3,0.5-0.8,0.2-1.6c0.5,0.3,1.1,0.4,1.8,0.2     c0.2-0.1,0.4-0.2,0.4-0.4c0.5-1.1,0-2.3-0.5-3.2c0.5,0.2,0.9,0.2,1.3-0.1c0.3-0.2,0.8-0.7,0.6-2c-0.5-2.5-2-4.5-3.4-6.5     c-0.5-0.7-1-1.4-1.5-2c-1.6-2.4-2.7-5.9-0.8-8.2l0.1-0.1c0.2-0.3,0.5-0.6,0.6-1c0.1-0.6-0.2-1-0.4-1.3c-1.3-2.1-2.8-4.2-4.4-6     c-0.8-0.9-2-2-3.1-2l0,0c-0.5,0-0.9,0.2-1.2,0.6c-2.6,3.3-4.4,6.4-5.3,9.5c-1.2,3.8-1.1,7.7,0.3,11c0.8,2,2.1,3.8,3.4,5.4     c1.5,1.8,3,3.6,4.7,5.3C395.7,381.7,397.6,383.4,399.8,383.4L399.8,383.4z M395.9,375.1c1.5,1.9,3,3.9,4.5,5.9     c0.4,0.5,0.5,0.9,0.4,1c0,0-0.1,0.1-0.3,0.1c-1.9,0.4-3.9-1.3-5.1-2.6c-1.6-1.7-3.2-3.4-4.6-5.2c-1.2-1.5-2.4-3.2-3.2-5.1     c-1.2-3-1.3-6.5-0.2-10.1c0.9-3,2.6-5.9,5.1-9.1c0.1-0.1,0.2-0.1,0.3-0.2c0.5,0,1.3,0.6,2.1,1.6c1.6,1.8,3,3.8,4.3,5.9     c0.1,0.1,0.2,0.4,0.2,0.5s-0.2,0.3-0.3,0.4l-0.1,0.1c-2.3,2.8-1.1,7,0.7,9.7c0.5,0.7,1,1.4,1.5,2.1c1.4,1.9,2.8,3.7,3.2,5.9     c0.1,0.4,0,0.7-0.1,0.7c-0.1,0.1-0.4-0.1-0.8-0.5c-1.7-1.9-3.3-3.9-4.7-5.9c-0.2-0.3-0.6-0.4-0.9-0.2c-0.3,0.2-0.4,0.6-0.2,0.9     l4.5,6.9c0.5,0.8,1,1.7,0.9,2.4c-0.7,0-1.5-0.7-2-1.3c-1.4-1.5-2.8-3-4.2-4.6c-0.6-0.7-1.1-1.4-1.7-2.1c-0.2-0.3-0.6-0.3-0.9-0.1     c-0.3,0.2-0.3,0.6-0.1,0.9C394.7,373.7,395.3,374.4,395.9,375.1L395.9,375.1z"/>
                <path class="stJawDark9" d="M352.1,241.2c1.4,4.7,4.7,11.4,8.5,14.2c-2.4,1.7-5.4,4.5-10.4,7.4c-0.8-8.3-2.1-12.3-2.5-18.8     C348.9,243.3,350.7,241.8,352.1,241.2z"/>
                <path d="M350.3,263.4c0.1,0,0.2,0,0.3-0.1c3.5-2.1,6.1-4.1,8.1-5.7c0.9-0.7,1.6-1.2,2.3-1.7c0.2-0.1,0.3-0.3,0.3-0.5     s-0.1-0.4-0.3-0.5c-3.5-2.6-6.8-9-8.3-13.9c-0.1-0.2-0.2-0.3-0.3-0.4c-0.2-0.1-0.4-0.1-0.5,0c-0.9,0.4-2,1.2-2.9,1.8     c-0.6,0.4-1.1,0.8-1.5,1c-0.2,0.1-0.3,0.3-0.3,0.6c0.2,3.5,0.6,6.2,1.2,9.3c0.4,2.6,0.9,5.6,1.3,9.5c0,0.2,0.2,0.4,0.3,0.5     C350.1,263.4,350.2,263.4,350.3,263.4L350.3,263.4z M359.6,255.3c-0.5,0.4-1.1,0.8-1.7,1.3c-1.9,1.5-4.1,3.2-7.2,5.1     c-0.4-3.4-0.8-6.2-1.2-8.6c-0.5-3-0.9-5.6-1.1-8.8c0.4-0.3,0.8-0.6,1.2-0.9c0.7-0.5,1.4-1,2.1-1.4     C353.2,246.7,356.3,252.4,359.6,255.3L359.6,255.3z"/>
                <path class="stJawDark11" d="M385.1,340.7c6.7,13.8,46.6,140.4,65.7,193.4c-8.8,0-19.8-0.2-24.3,0C406,490,375.2,421.5,359.2,376.8     c-1.6,7.5,1.6,56.7,1.5,69.3c-0.1,10.9,6.1,74.8,7,88c-1,0.9-24.6,0-24.6,0c-8.1-46.7-14.4-108.3-16-155.7     c-0.4-11.3-1.4-21.6-0.7-39.2C338,345.5,365.7,348.2,385.1,340.7L385.1,340.7z"/>
                <path d="M360.9,535.1c6.6,0,6.9-0.3,7.2-0.6c0.1-0.1,0.2-0.3,0.2-0.5c-0.3-4.1-1.1-13.1-2-23.6c-2.1-24-5-56.8-5-64.3     c0-4.6-0.4-14-0.8-24.8c-0.7-15.4-1.5-34.2-1-41.8c18.2,50.1,52.4,124.7,66.4,154.9c0.1,0.2,0.4,0.4,0.6,0.4     c3-0.2,8.8-0.1,14.9,0c3.2,0,6.4,0,9.4,0c0.2,0,0.4-0.1,0.5-0.3s0.2-0.4,0.1-0.6c-9.1-25.1-23.1-67.5-35.5-105     c-14.4-43.5-26.8-81.2-30.3-88.4c-0.1-0.3-0.5-0.4-0.8-0.3c-18.5,7.2-46,5.1-58.3-1.5c-0.2-0.1-0.4-0.1-0.6,0s-0.3,0.3-0.3,0.5     c-0.5,13.2-0.1,22.1,0.4,30.7c0.2,2.9,0.3,5.7,0.4,8.5c1.6,47.7,7.9,108.9,16,155.8c0,0.3,0.3,0.5,0.6,0.5c0.1,0,6,0.2,12,0.3     C357.3,535.1,359.3,535.1,360.9,535.1L360.9,535.1z M367,533.7c-2.4,0.4-15.2,0.1-23.5-0.2c-8.1-46.8-14.3-107.6-15.9-155.1     c-0.1-2.9-0.2-5.6-0.4-8.6c-0.4-8.4-0.8-17-0.4-29.6c12.8,6.3,39.5,8.2,57.9,1.3c3.8,8.4,16.5,47,30,87.8     c12.2,37.1,26.1,79,35.2,104.2c-2.7,0-5.7,0-8.6-0.1c-5.9,0-11.4-0.1-14.5,0c-14.4-30.9-49.2-107.1-67.1-156.9     c-0.1-0.3-0.4-0.4-0.6-0.4c-0.3,0-0.5,0.2-0.6,0.5c-1,4.8-0.1,26,0.7,44.7c0.5,10.8,0.9,20.1,0.8,24.7c-0.1,7.6,2.9,40.4,5,64.5     C365.9,520.6,366.7,529.4,367,533.7L367,533.7z"/>
                <g class="stJawDark10">
                    <path d="M280.4,202.1c0.5-0.1,1,0,1.4,0.2c0.3,0.1,0.2,0.1,1.2,0.4c1.6,0.4,3.3,0.7,4.9,0.9c1.3,0.2,2.6,0.3,4,0.4      c0.8,0.1,1.7-0.2,2.4,0.1c1.5,0.6,1,2.9-0.6,2.9c-3.1,0.2-6.2-0.4-9.2-1c-1.9-0.4-3-0.7-4.2-0.8      C278.9,204.7,278.9,202.5,280.4,202.1z"/>
                </g>
                <g class="stJawDark10">
                    <path d="M392.5,348.9c0.8-0.2,1.3,0.6,1.9,1.1c1.8,1.7,3.4,3.6,4.7,5.7c0.4,0.6,1,1.2,0.8,1.9c-0.3,1-1.8,1.2-2.3,0.3      c-1.6-2.5-3.7-5.1-5.6-6.5C390.9,350.8,391.3,349,392.5,348.9z"/>
                </g>
                <g class="stJawDark10">
                    <path d="M326.1,340c0.8-1.2,1.9-0.6,2.9-0.1c0.3,0.1,1,0.4,0.3,0.2c1.1,0.5,2.4,1,4.3,1.6c1.7,0.6,3.4,1.1,5.2,1.5      c1.8,0.4,3.5,0.7,5.3,1c-0.1,0-0.3,0-0.4,0c3.5,0.5,6.9,0.9,11.3,0.9c3.8,0,7.6,0.3,11.4-0.1c6.1-0.5,11.2-0.8,15.9-3.5      c0.6-0.3,1.3-0.9,2-1c1.4-0.3,2.1,1.8,0.9,2.5c-4.2,2.9-9.3,4.2-14.3,4.5c-3.8,0.4-7.5,0.7-11.3,0.6c-3.3-0.2-6.6,0.2-9.9-0.1      c-4.7-0.3-9.4-1.2-13.9-2.6c-2.3-0.8-4.6-1.6-7-2.5c-0.8-0.3-1.5-0.6-2.2-1C326,341.6,325.7,340.7,326.1,340L326.1,340z"/>
                </g>
                <g class="stJawDark10">
                    <path d="M434.3,533.3L434.3,533.3c2.3,0,4.4,0.2,6.6,0.2c1,0.1,2-0.4,2.9,0c1.7,0.7,1.2,3.3-0.7,3.3c-2.5,0.3-5,0.4-7.5,0.2      c-0.5,0-1-0.1-1.5-0.1s-0.9,0-1.3-0.3C431.1,535.5,432.3,532.7,434.3,533.3L434.3,533.3z"/>
                </g>
                <g class="stJawDark10">
                    <path d="M352.4,534.4c2.1-0.1,4.1-0.1,6.2-0.1c0.7,0,1.3,0,2-0.1c0.4,0,0.7-0.1,1.1,0.1c1.5,0.6,1,2.9-0.6,2.8      c-2.3,0.2-4.6,0.2-6.9,0.3c-0.8,0-1.6,0.2-2.4-0.1C350.2,536.9,350.7,534.4,352.4,534.4L352.4,534.4z"/>
                </g>
                <path d="M363.8,260.1c0,0,0.1,0,0.1-0.1c0.1-0.1,0.1-0.2,0-0.3c-0.8-0.9-1.6-1.9-2.3-2.9c-0.1-0.1-0.2-0.1-0.3,0     c-0.1,0.1-0.1,0.2-0.1,0.3c0.7,1,1.5,2,2.3,2.9C363.7,260.1,363.7,260.1,363.8,260.1L363.8,260.1z"/>
                <path d="M362.7,261.5c0,0,0.1,0,0.2-0.1s0.1-0.2,0-0.3c-1.1-1-2-2.1-2.7-3.4c-0.1-0.1-0.2-0.1-0.3-0.1c-0.1,0.1-0.1,0.2-0.1,0.3     c0.7,1.3,1.7,2.5,2.8,3.5C362.6,261.5,362.6,261.5,362.7,261.5z"/>
                <path d="M360.9,262.2c0,0,0.1,0,0.2-0.1s0.1-0.2,0-0.3c-0.6-0.6-1.2-1.2-1.6-1.9c-0.1-0.1-0.2-0.1-0.3-0.1     c-0.1,0.1-0.1,0.2-0.1,0.3c0.5,0.7,1,1.4,1.7,2C360.8,262.2,360.8,262.2,360.9,262.2L360.9,262.2z"/>
                <path d="M362,268.9h0.1c0.1-0.1,0.1-0.2,0-0.3c-0.5-0.6-1-1.3-1.5-1.9c-0.1-0.1-0.2-0.1-0.3,0c-0.1,0.1-0.1,0.2,0,0.3     c0.5,0.6,1,1.2,1.5,1.9C361.9,268.8,361.9,268.9,362,268.9L362,268.9z"/>
                <path d="M362.1,272.3h0.1c0.1-0.1,0.1-0.2,0-0.3l-1.9-2.5c-0.1-0.1-0.2-0.1-0.3,0c-0.1,0.1-0.1,0.2,0,0.3l1.9,2.5     C362,272.2,362.1,272.3,362.1,272.3L362.1,272.3z"/>
                <path d="M362.3,276.2h0.1c0.1-0.1,0.1-0.2,0.1-0.3c-0.8-1.5-1.7-2.9-2.6-4.3c-0.1-0.1-0.2-0.1-0.3-0.1c-0.1,0.1-0.1,0.2-0.1,0.3     c0.9,1.4,1.8,2.8,2.6,4.2C362.2,276.2,362.2,276.2,362.3,276.2L362.3,276.2z"/>
                <path d="M363,281.4h0.1c0.1-0.1,0.1-0.2,0.1-0.3c-1.2-2.2-2.5-4.5-3.8-6.6c-0.1-0.1-0.2-0.1-0.3-0.1c-0.1,0.1-0.1,0.2-0.1,0.3     c1.3,2.2,2.6,4.4,3.8,6.6C362.8,281.4,362.9,281.4,363,281.4L363,281.4z"/>
                <path d="M363.4,286.5C363.4,286.5,363.5,286.5,363.4,286.5c0.2-0.1,0.2-0.2,0.2-0.3c-1.5-2.9-3.2-5.8-4.9-8.6     c-0.1-0.1-0.2-0.1-0.3-0.1c-0.1,0.1-0.1,0.2-0.1,0.3c1.8,2.8,3.4,5.6,4.9,8.6C363.3,286.4,363.3,286.5,363.4,286.5L363.4,286.5z"/>
                <path d="M364.1,291.5h0.1c0.1-0.1,0.1-0.2,0.1-0.3l-6.1-10.1c-0.1-0.1-0.2-0.1-0.3-0.1c-0.1,0.1-0.1,0.2-0.1,0.3l6.1,10.1     C364,291.5,364,291.5,364.1,291.5L364.1,291.5z"/>
                <path d="M364.4,296.1h0.1c0.1-0.1,0.1-0.2,0.1-0.3c-2.5-3.6-4.9-7.4-7.1-11.2c-0.1-0.1-0.2-0.1-0.3-0.1c-0.1,0.1-0.1,0.2-0.1,0.3     c2.2,3.8,4.6,7.6,7.1,11.2C364.3,296.1,364.3,296.1,364.4,296.1L364.4,296.1z"/>
                <path d="M364.5,300.5h0.1c0.1-0.1,0.1-0.2,0.1-0.3c-2.8-4.1-5.5-8.2-8.1-12.5c-0.1-0.1-0.2-0.1-0.3-0.1c-0.1,0.1-0.1,0.2-0.1,0.3     c2.5,4.2,5.3,8.4,8.1,12.5C364.4,300.5,364.4,300.5,364.5,300.5L364.5,300.5z"/>
                <path d="M364.5,304.9h0.1c0.1-0.1,0.1-0.2,0-0.3c-3.1-4.1-5.9-8.5-8.5-13c-0.1-0.1-0.2-0.1-0.3-0.1c-0.1,0.1-0.1,0.2-0.1,0.3     c2.5,4.5,5.4,8.9,8.5,13.1C364.4,304.9,364.5,304.9,364.5,304.9L364.5,304.9z"/>
                <path d="M363.2,308.2h0.1c0.1-0.1,0.1-0.2,0.1-0.3l-8-11.6c-0.1-0.1-0.2-0.1-0.3-0.1c-0.1,0.1-0.1,0.2-0.1,0.3l8,11.6     C363,308.1,363.1,308.2,363.2,308.2z"/>
                <path d="M361.9,311.5h0.1c0.1-0.1,0.1-0.2,0.1-0.3c-2.4-3.7-4.9-7.5-7.5-11c-0.1-0.1-0.2-0.1-0.3-0.1c-0.1,0.1-0.1,0.2-0.1,0.3     c2.6,3.6,5.1,7.3,7.5,11C361.7,311.5,361.8,311.5,361.9,311.5L361.9,311.5z"/>
                <path d="M360.6,314h0.1c0.1-0.1,0.1-0.2,0-0.3c-2.3-3.1-4.6-6.3-6.8-9.4c-0.1-0.1-0.2-0.1-0.3-0.1c-0.1,0.1-0.1,0.2,0,0.3     c2.2,3.2,4.5,6.3,6.8,9.5C360.5,313.9,360.5,314,360.6,314L360.6,314z"/>
                <path d="M359.5,317.1h0.1c0.1-0.1,0.1-0.2,0.1-0.3l-3.6-5.6c-0.1-0.1-0.2-0.1-0.3-0.1c-0.1,0.1-0.1,0.2-0.1,0.3l3.6,5.6     C359.3,317,359.4,317.1,359.5,317.1z"/>
                <path d="M153.9,367.2c0,0.1,0,0.2,0.1,0.3c0.2,0.2,0.5,0.3,0.8,0.1c1.7-1.3,3.3-2.6,4.9-4c0.2-0.2,0.3-0.5,0.1-0.8     c-0.2-0.2-0.5-0.3-0.8-0.1c-1.6,1.4-3.2,2.7-4.9,3.9C153.9,366.9,153.9,367,153.9,367.2L153.9,367.2z"/>
                <path d="M145,367.5c0,0.1,0,0.2,0.1,0.3c0.2,0.2,0.5,0.3,0.8,0.1l6.5-4.8c0.2-0.2,0.3-0.5,0.1-0.8c-0.2-0.2-0.5-0.3-0.8-0.1     l-6.5,4.8C145,367.2,145,367.4,145,367.5L145,367.5z"/>
                <path d="M134.8,368c0,0.1,0,0.2,0.1,0.3c0.2,0.3,0.5,0.4,0.7,0.2c3.8-2.1,7.5-4.5,11.1-6.9c0.3-0.2,0.3-0.5,0.1-0.8     s-0.5-0.3-0.8-0.1c-3.6,2.4-7.3,4.7-11,6.8C134.9,367.6,134.8,367.8,134.8,368L134.8,368z"/>
                <path d="M121.4,369.7c0,0.1,0,0.2,0.1,0.3c0.1,0.3,0.5,0.4,0.7,0.2c5.8-3.1,11.6-6.5,17.2-9.9c0.3-0.2,0.3-0.5,0.2-0.7     c-0.2-0.3-0.5-0.3-0.7-0.2c-5.6,3.4-11.4,6.8-17.1,9.9C121.5,369.3,121.4,369.5,121.4,369.7L121.4,369.7z"/>
                <path d="M108.3,370.9c0,0.1,0,0.2,0.1,0.3c0.1,0.3,0.5,0.4,0.7,0.2c7.6-3.9,15.1-8.2,22.3-12.8c0.3-0.2,0.3-0.5,0.2-0.7     c-0.2-0.3-0.5-0.3-0.7-0.2c-7.2,4.6-14.6,8.9-22.2,12.8C108.4,370.5,108.3,370.7,108.3,370.9L108.3,370.9z"/>
                <path d="M95.1,372.7c0,0.1,0,0.2,0.1,0.3c0.2,0.3,0.5,0.3,0.7,0.2l26.3-15.8c0.3-0.2,0.3-0.5,0.2-0.7c-0.2-0.3-0.5-0.3-0.7-0.2     l-26.3,15.8C95.2,372.3,95.1,372.5,95.1,372.7z"/>
                <path d="M83.3,373.5c0,0.1,0,0.2,0.1,0.3c0.2,0.3,0.5,0.3,0.8,0.1c9.4-6.5,19.2-12.7,29-18.5c0.3-0.2,0.3-0.5,0.2-0.7     c-0.2-0.3-0.5-0.3-0.7-0.2c-9.9,5.8-19.7,12-29.1,18.5C83.4,373.1,83.3,373.3,83.3,373.5z"/>
                <path d="M71.7,373.8c0,0.1,0,0.2,0.1,0.3c0.2,0.3,0.5,0.3,0.8,0.1c10.5-7.3,21.4-14.4,32.3-21c0.3-0.2,0.3-0.5,0.2-0.7     c-0.2-0.3-0.5-0.3-0.7-0.2c-11,6.6-21.9,13.7-32.4,21C71.7,373.4,71.7,373.6,71.7,373.8L71.7,373.8z"/>
                <path d="M60.3,373.8c0,0.1,0,0.2,0.1,0.3c0.2,0.2,0.5,0.3,0.8,0.1c10.7-8,22.1-15.4,33.8-22c0.3-0.2,0.4-0.5,0.2-0.7     c-0.2-0.3-0.5-0.4-0.7-0.2c-11.7,6.6-23.1,14.1-33.9,22.1C60.4,373.4,60.3,373.6,60.3,373.8L60.3,373.8z"/>
                <path d="M51.8,370.3c0,0.1,0,0.2,0.1,0.3c0.2,0.3,0.5,0.3,0.8,0.1L82.8,350c0.2-0.2,0.3-0.5,0.1-0.8c-0.2-0.3-0.5-0.3-0.8-0.1     L52,369.8C51.9,369.9,51.8,370.1,51.8,370.3L51.8,370.3z"/>
                <path d="M43.3,366.8c0,0.1,0,0.2,0.1,0.3c0.2,0.3,0.5,0.3,0.7,0.2c9.7-6.1,19.3-12.7,28.6-19.5c0.2-0.2,0.3-0.5,0.1-0.8     c-0.2-0.2-0.5-0.3-0.8-0.1c-9.3,6.8-18.9,13.3-28.6,19.4C43.3,366.5,43.3,366.7,43.3,366.8L43.3,366.8z"/>
                <path d="M36.8,363.6c0,0.1,0,0.2,0.1,0.3c0.2,0.2,0.5,0.3,0.8,0.1c8-6,16.3-12,24.5-17.8c0.3-0.2,0.3-0.5,0.1-0.8     s-0.5-0.3-0.8-0.1C53.3,351.1,45,357,37,363.1C36.9,363.3,36.9,363.4,36.8,363.6L36.8,363.6z"/>
                <path d="M28.7,360.7c0,0.1,0,0.2,0.1,0.3c0.2,0.3,0.5,0.3,0.7,0.2l14.6-9.5c0.3-0.2,0.3-0.5,0.2-0.8c-0.2-0.3-0.5-0.3-0.7-0.2     L29,360.2C28.8,360.3,28.7,360.5,28.7,360.7L28.7,360.7z"/>
                <path d="M541.3,367.2c0,0.1,0,0.2-0.1,0.3c-0.2,0.2-0.5,0.3-0.8,0.1c-1.7-1.3-3.3-2.6-4.9-4c-0.2-0.2-0.3-0.5-0.1-0.8     c0.2-0.2,0.5-0.3,0.8-0.1c1.6,1.4,3.2,2.7,4.9,3.9C541.2,366.9,541.3,367,541.3,367.2L541.3,367.2z"/>
                <path d="M550.2,367.5c0,0.1,0,0.2-0.1,0.3c-0.2,0.2-0.5,0.3-0.8,0.1l-6.5-4.8c-0.2-0.2-0.3-0.5-0.1-0.8c0.2-0.2,0.5-0.3,0.8-0.1     l6.5,4.8C550.1,367.2,550.2,367.4,550.2,367.5L550.2,367.5z"/>
                <path d="M560.3,368c0,0.1,0,0.2-0.1,0.3c-0.2,0.3-0.5,0.4-0.7,0.2c-3.8-2.1-7.5-4.5-11.1-6.9c-0.3-0.2-0.3-0.5-0.1-0.8     s0.5-0.3,0.8-0.1c3.6,2.4,7.3,4.7,11,6.8C560.3,367.6,560.4,367.8,560.3,368L560.3,368z"/>
                <path d="M573.7,369.7c0,0.1,0,0.2-0.1,0.3c-0.1,0.3-0.5,0.4-0.7,0.2c-5.8-3.1-11.6-6.5-17.2-9.9c-0.3-0.2-0.3-0.5-0.2-0.7     c0.2-0.3,0.5-0.3,0.7-0.2c5.6,3.4,11.4,6.8,17.1,9.9C573.6,369.3,573.7,369.5,573.7,369.7L573.7,369.7z"/>
                <path d="M586.9,370.9c0,0.1,0,0.2-0.1,0.3c-0.1,0.3-0.5,0.4-0.7,0.2c-7.6-3.9-15.1-8.2-22.3-12.8c-0.3-0.2-0.3-0.5-0.2-0.7     c0.2-0.3,0.5-0.3,0.7-0.2c7.2,4.6,14.6,8.9,22.2,12.8C586.8,370.5,586.9,370.7,586.9,370.9L586.9,370.9z"/>
                <path d="M600,372.7c0,0.1,0,0.2-0.1,0.3c-0.2,0.3-0.5,0.3-0.7,0.2l-26.3-15.8c-0.3-0.2-0.3-0.5-0.2-0.7c0.2-0.3,0.5-0.3,0.7-0.2     l26.3,15.8C599.9,372.3,600,372.5,600,372.7z"/>
                <path d="M611.9,373.5c0,0.1,0,0.2-0.1,0.3c-0.2,0.3-0.5,0.3-0.8,0.1c-9.4-6.5-19.2-12.7-29-18.5c-0.3-0.2-0.3-0.5-0.2-0.7     c0.2-0.3,0.5-0.3,0.7-0.2c9.9,5.8,19.7,12,29.1,18.5C611.8,373.1,611.9,373.3,611.9,373.5z"/>
                <path d="M623.5,373.8c0,0.1,0,0.2-0.1,0.3c-0.2,0.3-0.5,0.3-0.8,0.1c-10.5-7.3-21.4-14.4-32.3-21c-0.3-0.2-0.3-0.5-0.2-0.7     c0.2-0.3,0.5-0.3,0.7-0.2c11,6.6,21.9,13.7,32.4,21C623.4,373.4,623.5,373.6,623.5,373.8L623.5,373.8z"/>
                <path d="M634.8,373.8c0,0.1,0,0.2-0.1,0.3c-0.2,0.2-0.5,0.3-0.8,0.1c-10.7-8-22.1-15.4-33.8-22c-0.3-0.2-0.4-0.5-0.2-0.7     c0.2-0.3,0.5-0.4,0.7-0.2c11.7,6.6,23.1,14.1,33.9,22.1C634.7,373.4,634.8,373.6,634.8,373.8L634.8,373.8z"/>
                <path d="M643.4,370.3c0,0.1,0,0.2-0.1,0.3c-0.2,0.3-0.5,0.3-0.8,0.1L612.4,350c-0.2-0.2-0.3-0.5-0.1-0.8s0.5-0.3,0.8-0.1     l30.1,20.8C643.3,369.9,643.4,370.1,643.4,370.3L643.4,370.3z"/>
                <path d="M651.9,366.8c0,0.1,0,0.2-0.1,0.3c-0.2,0.3-0.5,0.3-0.7,0.2c-9.7-6.1-19.3-12.7-28.6-19.5c-0.2-0.2-0.3-0.5-0.1-0.8     c0.2-0.2,0.5-0.3,0.8-0.1c9.3,6.8,18.9,13.3,28.6,19.4C651.8,366.5,651.9,366.7,651.9,366.8L651.9,366.8z"/>
                <path d="M658.3,363.6c0,0.1,0,0.2-0.1,0.3c-0.2,0.2-0.5,0.3-0.8,0.1c-8-6-16.3-12-24.5-17.8c-0.3-0.2-0.3-0.5-0.1-0.8     s0.5-0.3,0.8-0.1c8.2,5.8,16.5,11.7,24.5,17.8C658.2,363.3,658.3,363.4,658.3,363.6L658.3,363.6z"/>
                <path d="M666.4,360.7c0,0.1,0,0.2-0.1,0.3c-0.2,0.3-0.5,0.3-0.7,0.2l-14.6-9.5c-0.3-0.2-0.3-0.5-0.2-0.8c0.2-0.3,0.5-0.3,0.7-0.2     l14.6,9.5C666.3,360.3,666.4,360.5,666.4,360.7L666.4,360.7z"/>
                <path d="M596.1,105.2c1.1,0,2-0.9,2-2V90.9c0-1.1-0.9-2-2-2s-2,0.9-2,2v12.3C594.1,104.3,595,105.2,596.1,105.2z"/>
                <path d="M92.1,103.7c1.1,0,2-0.9,2-2V89.4c0-1.1-0.9-2-2-2s-2,0.9-2,2v12.3C90,102.8,90.9,103.7,92.1,103.7z"/>
            </g>
        </g>
    </g>
    </svg>