<svg width="286" height="183" viewBox="0 0 286 183" fill="none" xmlns="http://www.w3.org/2000/svg">
<path d="M59.9931 101.498L62.4999 97.5002C71.9999 99.5002 96.4999 95.5002 113 91.5002C126.2 88.3002 143.833 104.167 151 112.5C157.167 103.167 177.9 86.8 211.5 96C224.7 99.2 232.667 99 235 98.5C235.308 99.2936 235.634 100.128 235.979 101C243.096 119.014 257.724 152.676 266.5 161C240.5 162 229.5 147 205 147.5C194.333 147 170.2 149.2 159 162C155.4 165.2 152.167 169.333 151.5 171C148.5 163.5 139 160 130.5 154C122 147.999 81.4999 136 53.9999 150C31.9999 161.2 25.8332 159 25.4999 156.5L59.9931 101.498Z" fill="#282424"/>
<path d="M246 104C252.764 120.757 267.726 155.27 277.227 169M47.669 109C47.6201 108.707 47.845 109.345 47.669 109ZM47.669 109C48.6126 107 51.1999 103.5 53.9999 105.5M47.669 109C39.1523 122.518 22.8087 150.107 12.7576 166.5M53.9999 105.5C50.3999 110.7 28.4999 145.666 17.9999 162.5C21 164.333 31.2001 166.6 48 161C68.9999 154 102.5 147 114.5 154C131 160.5 141.5 166.5 146.5 172.5M53.9999 105.5C54.4999 103.666 56.3999 100.3 59.9999 101.5M151.5 171C148.5 163.5 139 160 130.5 154C122 147.999 81.4999 136 53.9999 150C31.9999 161.2 25.8332 159 25.4999 156.5L62.4999 97.5002C71.9999 99.5002 96.4999 95.5002 113 91.5002C126.2 88.3002 143.833 104.167 151 112.5M151.5 171C151.1 158.6 151 127.333 151 112.5M151.5 171C152.167 169.333 155.4 165.2 159 162C170.2 149.2 194.333 147 205 147.5C229.5 147 240.5 162 266.5 161C257.724 152.676 243.096 119.014 235.979 101M151 112.5C157.167 103.167 177.9 86.8 211.5 96C224.7 99.2 232.667 99 235 98.5C235.308 99.2936 235.634 100.128 235.979 101M155.5 172C162 163.167 184.8 148.9 214 156.5C243.2 164.1 262 164.5 269 164.5H272C261.167 145.667 239.8 106.6 241 101C239 101 236.819 101 235.979 101M12.7576 166.5C10.417 170.317 8.43555 173.582 7 176C32.2532 171.608 91.2443 169.672 124.456 169.119C130.059 169.026 135.492 170.598 140.337 173.414C144.365 175.754 148.714 178 151 178C158.5 178 160.5 174 161.5 173C161.78 172.719 162.763 172.097 164.003 171.405C167.205 169.615 170.864 169.011 174.533 169.046C200.284 169.292 249.799 170.143 279.5 172C278.786 171.162 278.026 170.154 277.227 169M12.7576 166.5C14.005 168.667 25.8999 171.2 63.4999 164C101.1 156.8 125.833 162.333 133.5 166C136.667 167.666 142.8 170.6 144 173M159 172.5C163.167 169 175.4 162.3 191 163.5C210.5 165 239.197 167 241 167C245.5 167 265.651 168 277.227 169" stroke="white"/>
<path d="M219.273 84.442C211.194 113.76 182.223 135.5 150.409 135.5C112.901 135.5 82.5 105.276 82.5 68C82.5 30.7236 112.901 0.5 150.409 0.5C167.279 0.5 181.568 2.73122 192.968 10.207C204.354 17.6731 212.939 30.425 218.28 51.644C220.996 62.4351 222.206 73.7952 219.273 84.442Z" fill="#282424" stroke="white"/>
<path d="M122.577 77.507C111.265 77.2707 108.215 68.4575 107.818 62.7693H137.811C137.256 67.2509 134.955 77.7655 122.577 77.507Z" fill="#50B8E7" stroke="white"/>
<path d="M183.055 77.2575C170.976 77.0252 167.719 68.3612 167.296 62.7693H199.322C198.729 67.175 196.272 77.5116 183.055 77.2575Z" fill="#50B8E7" stroke="white"/>
<path d="M141.878 104.2H160.179M141.878 104.2L151.548 35.5714M141.878 104.2H128.153C122.815 104.2 120.426 111.012 128.153 112.842H173.396C179.242 111.825 181.937 107.25 173.396 104.2H160.179M160.179 104.2C158.877 77.142 158.111 61.2197 156.877 35.5714M123.832 35.5714H151.548M123.832 35.5714L107.818 62.7685M123.832 35.5714L137.811 62.7685M151.548 35.5714L152.3 29.7253L154.333 29.9795L156.621 29.7253C156.709 31.5533 156.794 33.8387 156.877 35.5714M156.877 35.5714H185.089M185.089 35.5714L167.296 62.7685M185.089 35.5714L199.323 62.7685M111.631 66.0728H134.507M172.634 66.0728H195.51" stroke="white"/>
<path d="M160.749 23.117C160.749 26.7888 157.883 29.734 154.386 29.734C150.889 29.734 148.023 26.7888 148.023 23.117C148.023 19.4452 150.889 16.5 154.386 16.5C157.883 16.5 160.749 19.4452 160.749 23.117Z" stroke="white"/>
<path d="M141.5 174C144.743 172.668 154.384 170.659 161 173.274" stroke="white"/>
<path d="M241.5 102.5C242.5 102.166 244.8 102 246 104" stroke="white"/>
<path d="M47.1928 110.469C47.1928 107.284 44.5149 108.147 43.176 108.976C30.1215 129.543 4.26746 171.995 2.25907 174.782C1.45963 175.891 1.111 176.879 1.02318 177.709C0.840383 179.436 2.73647 180.182 4.46848 180.055C36.8713 177.668 100.203 173.369 126.982 172.844C130.109 172.783 133.115 173.893 135.708 175.64C152.087 186.677 159.734 180.096 160.666 179.633C161.537 179.202 164.376 177.683 167.466 175.777C170.448 173.937 173.865 172.838 177.368 172.923L268.575 175.149C272.115 175.236 275.639 175.781 279.18 175.822C282.716 175.862 285.448 175.073 284.939 172.791C283.253 165.233 250.796 105.617 250.294 104.622C249.792 103.627 246.277 103.627 246.78 106.115C247.282 112.583 272 163 279.416 172.791C265.357 169.308 178.24 169.184 171.967 169.184C166.354 169.184 161.168 174.657 156.65 177.145C153.035 179.136 146.36 176.938 143.348 175.279C136.555 171.24 128.952 168.855 121.049 168.847C96.2627 168.821 38.9158 172.787 7.28003 175.279C19.4977 156.039 43.9794 115.644 47.1928 110.469Z" fill="#50B8E7" stroke="white"/>
<path d="M234.5 99.5C241.5 117.333 256.9 154.1 264.5 160.5C250.5 154 232 110.5 234.5 99.5Z" fill="#D9D9D9"/>
</svg>
