<svg width="683" height="580" viewBox="0 0 683 580" fill="none" xmlns="http://www.w3.org/2000/svg">
    <g clip-path="url(#clip0_12_562)">
    <path d="M14.9597 333.368L15.4264 331.98L91.6502 101.865C91.6754 101.802 91.7259 101.764 91.789 101.764C91.8647 101.764 91.9151 101.802 91.9403 101.865L176.275 333.797L176.88 335.475C176.918 335.564 176.88 335.652 176.792 335.69C176.716 335.715 176.628 335.677 176.603 335.589L175.947 333.797L91.8016 102.395L15.7543 331.993L14.9849 334.302" stroke="black" strokeWidth="0.97" stroke-miterlimit="10"/>
    <path d="M1.38748 553.3L8.62766 537.805C8.62766 554.978 58.6279 559.079 120.308 559.079C181.989 559.079 231.989 557.78 231.989 537.805C231.989 537.528 231.938 537.263 231.901 536.998L231.989 536.846L239.254 553.603C239.721 554.549 239.973 555.534 239.973 556.568C239.973 577.981 186.403 579.369 120.308 579.369C54.2131 579.369 0.643322 574.978 0.643322 556.568C0.643322 555.42 0.908176 554.335 1.40011 553.3H1.38748Z" stroke="black" stroke-miterlimit="10"/>
    <path d="M120.296 517.831C180.79 517.831 230.021 523.307 231.888 537.01C231.926 537.275 231.976 537.54 231.976 537.818C231.976 557.792 181.976 559.092 120.296 559.092C58.6153 559.092 8.61503 554.991 8.61503 537.818C8.61503 522.222 58.6153 517.844 120.296 517.844V517.831Z" stroke="black" stroke-miterlimit="10"/>
    <path d="M312.047 491.851L463.662 527.307L528.32 542.424L548.766 511.812L480.766 495.914L325.821 459.662C326.275 473.403 325.708 485.264 322.769 492.481C322.769 492.481 318.821 492.267 312.035 491.838L312.047 491.851Z" fill="#BEE8FF" stroke="black" strokeWidth="1.47" stroke-miterlimit="10"/>
    <path d="M223.096 469.958C224.068 470.476 225.102 470.867 226.199 471.119L303.457 489.655L355.728 502.21C355.514 491.989 355.324 479.22 355.312 466.564L311.757 456.116L233.881 437.416C232.784 437.139 231.686 437.025 230.601 437.038C224.282 437.088 218.543 441.568 217.054 448.129L215.755 453.858C214.254 460.419 217.458 467.043 223.096 469.946V469.958Z" fill="#BEE8FF" stroke="black" strokeWidth="1.52" stroke-miterlimit="10"/>
    <path d="M620.336 545.3C622.026 538.083 617.498 530.79 610.283 529.112C603.068 527.433 595.777 531.951 594.099 539.168C592.409 546.386 596.938 553.679 604.153 555.357C611.367 557.048 618.658 552.518 620.336 545.3Z" fill="#BEE8FF" stroke="black" stroke-miterlimit="10"/>
    <path d="M222.604 472.368L231.119 435.965C232.43 430.376 228.924 424.735 223.336 423.436C217.748 422.123 212.11 425.631 210.811 431.221L202.297 467.624C200.985 473.214 204.491 478.854 210.079 480.154C215.667 481.466 221.305 477.958 222.604 472.368Z" fill="#50B8E7" stroke="black" stroke-miterlimit="10"/>
    <path d="M182.38 538.954C181.736 541.717 178.936 543.458 176.174 542.802L101.098 525.225C98.3354 524.582 96.5947 521.78 97.2507 519.017C97.894 516.254 100.694 514.512 103.457 515.169L178.533 532.745C181.295 533.389 183.036 536.19 182.38 538.954Z" fill="#50B8E7" stroke="black" stroke-miterlimit="10"/>
    <path d="M206.711 484.57C203.646 497.655 190.44 505.869 177.36 502.803L117.786 488.86C104.705 485.794 96.4939 472.583 99.559 459.498C102.624 446.413 115.83 438.199 128.911 441.265L188.485 455.208C201.565 458.274 209.776 471.485 206.711 484.57Z" fill="#BEE8FF" stroke="black" stroke-miterlimit="10"/>
    <path d="M198.626 523.496C196.709 531.686 188.434 536.821 180.248 534.903L100.946 516.342C92.7602 514.424 87.6265 506.147 89.5438 497.958C91.461 489.769 99.7355 484.633 107.922 486.551L187.223 505.112C195.41 507.03 200.543 515.307 198.626 523.496Z" fill="#BEE8FF" stroke="black" stroke-miterlimit="10"/>
    <path d="M224.61 358.428C225.253 355.664 223.525 352.863 220.763 352.219L145.687 334.643C142.924 333.999 140.124 335.728 139.481 338.491C138.838 341.254 140.566 344.056 143.328 344.699L218.404 362.276C221.166 362.92 223.967 361.191 224.61 358.428Z" fill="#50B8E7" stroke="black" stroke-miterlimit="10"/>
    <path d="M222.289 417.972C225.354 404.887 217.155 391.663 204.062 388.61L144.489 374.667C131.408 371.601 118.189 379.802 115.137 392.9C112.072 405.985 120.27 419.209 133.363 422.262L192.937 436.205C206.018 439.271 219.237 431.069 222.289 417.972Z" fill="#BEE8FF" stroke="black" stroke-miterlimit="10"/>
    <path d="M214.506 451.258C219.93 428.066 205.538 404.874 182.354 399.449L159.145 394.01C135.962 388.585 112.778 402.982 107.354 426.174C101.956 449.265 116.423 472.583 139.506 477.983L162.715 483.422C185.798 488.822 209.108 474.349 214.506 451.258Z" fill="#50B8E7" stroke="black" stroke-miterlimit="10"/>
    <path d="M232.304 379.5C234.222 371.311 229.088 363.033 220.902 361.115L141.6 342.554C133.414 340.636 125.139 345.772 123.222 353.961C121.305 362.15 126.438 370.427 134.625 372.345L213.926 390.906C222.112 392.824 230.387 387.689 232.304 379.5Z" fill="#BEE8FF" stroke="black" stroke-miterlimit="10"/>
    <path d="M607.394 542.272C610.724 528.052 601.806 513.692 587.591 510.361L540.088 499.245C525.873 495.913 511.518 504.834 508.188 519.055C504.858 533.275 513.776 547.635 527.992 550.966L575.494 562.082C589.71 565.414 604.064 556.493 607.394 542.272Z" fill="#50B8E7" stroke="black" stroke-miterlimit="10"/>
    <path d="M361.303 47.7971L361.619 26.8638L345.271 1.28705L332.86 26.8638L332.519 47.9106" stroke="black" stroke-miterlimit="10"/>
    <path d="M357.595 297.836L361.152 58.1691" stroke="black" stroke-miterlimit="10"/>
    <path d="M327.587 358.642L332.355 58.27" stroke="black" stroke-miterlimit="10"/>
    <path d="M177.423 333.822L14.9471 331.993C14.9471 331.993 14.4677 372.004 36.5163 382.465C58.5648 392.925 135.546 397.506 159.902 375.929C177.296 360.509 177.41 333.835 177.41 333.835L177.423 333.822Z" fill="#BEE8FF" stroke="black" stroke-miterlimit="10"/>
    <path d="M519.894 333.368L520.361 331.98L596.584 101.865C596.61 101.802 596.673 101.764 596.736 101.764C596.799 101.764 596.862 101.802 596.874 101.865L681.221 333.797L681.827 335.475C681.852 335.564 681.814 335.652 681.739 335.69C681.65 335.715 681.562 335.677 681.537 335.589L680.881 333.797L596.736 102.395L520.688 331.993L519.919 334.302" stroke="black" strokeWidth="0.97" stroke-miterlimit="10"/>
    <path d="M682.369 333.822L519.894 331.993C519.894 331.993 519.415 372.004 541.463 382.465C563.512 392.925 640.492 397.506 664.849 375.929C682.243 360.497 682.369 333.822 682.369 333.822Z" fill="#BEE8FF" stroke="black" stroke-miterlimit="10"/>
    <path d="M361.152 58.1691C514.47 55.2038 592.548 101.348 593.343 101.827C594.226 102.37 595.222 102.635 596.206 102.635C597.493 102.635 598.779 102.193 599.788 101.323L626.264 78.6607C628.484 76.7554 628.686 73.4747 626.718 71.3423C624.738 69.1972 621.345 69.008 619.125 70.9133L595.55 91.0895C587.919 87.0013 567.977 77.298 535.371 68.0364C499.296 57.7779 440.529 46.3081 361.303 47.7971" stroke="black" stroke-miterlimit="10"/>
    <path d="M332.519 47.9106C250.67 45.8034 190.15 57.5508 153.28 68.0364C120.687 77.298 100.745 87.0013 93.1134 91.0895L69.5386 70.9133C67.3186 69.008 63.9256 69.1972 61.9453 71.3423C59.9649 73.4747 60.1668 76.7554 62.3868 78.6608L88.8753 101.323C89.8844 102.193 91.1583 102.635 92.4449 102.635C93.4414 102.635 94.4378 102.37 95.3208 101.827C96.1281 101.348 175.833 54.2323 332.355 58.27" stroke="black" stroke-miterlimit="10"/>
    <path d="M596.143 105.222C597.265 105.222 598.186 104.301 598.186 103.178V90.875C598.186 89.752 597.265 88.8309 596.143 88.8309C595.02 88.8309 594.099 89.752 594.099 90.875V103.178C594.099 104.301 595.02 105.222 596.143 105.222Z" fill="#06005A"/>
    <path d="M92.0665 103.708C93.1891 103.708 94.1099 102.786 94.1099 101.663V89.3608C94.1099 88.2378 93.1891 87.3167 92.0665 87.3167C90.9439 87.3167 90.0231 88.2378 90.0231 89.3608V101.663C90.0231 102.786 90.9439 103.708 92.0665 103.708Z" fill="#06005A"/>
    <path d="M294.83 175.706C297.289 170.873 296.697 164.854 299.497 160.211C299.736 159.807 300.064 159.378 300.531 159.328C301.301 159.252 301.742 160.186 301.855 160.943C302.385 164.249 301.502 167.593 300.947 170.898C300.127 175.719 300.001 180.665 300.607 185.75C301.086 188.337 299.711 190.848 298.551 193.195C296.57 197.22 295.12 201.497 294.25 206.115C290.592 206.91 286.845 205.497 283.377 204.084C282.065 203.554 280.74 202.999 279.744 202.153C279.492 196.513 279.555 190.86 279.908 185.233C280.009 183.693 280.122 182.166 280.463 180.665C280.715 179.504 281.144 178.318 282.052 177.573C282.96 176.816 284.487 176.703 285.332 177.674C285.571 176.791 286.379 176.135 287.274 175.908C288.157 175.681 289.103 175.832 289.974 176.122C290.201 176.198 290.428 176.299 290.541 176.501C291.651 175.643 293.253 175.479 294.527 176.085C294.59 175.87 294.653 175.655 294.83 175.681V175.706Z" fill="white"/>
    <path d="M279.933 204.601C279.933 204.601 279.946 204.601 279.958 204.601C280.299 204.601 280.576 204.298 280.564 203.958C280.312 196.551 280.526 189.043 281.207 181.662C281.308 180.526 281.434 179.529 281.888 178.709C282.292 178.002 283.124 177.346 283.944 177.485C284.613 177.599 285.231 178.166 285.861 179.289C286.883 181.094 287.59 183.05 287.943 185.081C288.056 185.687 288.119 186.33 287.917 186.835C287.766 187.214 287.337 187.554 286.984 187.453C286.782 187.39 286.568 187.188 286.379 186.986C285.319 185.838 284.512 184.438 284.045 182.936C283.944 182.608 283.591 182.419 283.263 182.52C282.935 182.621 282.746 182.974 282.847 183.302C283.364 184.98 284.26 186.545 285.445 187.832C285.761 188.173 286.126 188.513 286.631 188.652C287.69 188.955 288.687 188.198 289.053 187.302C289.381 186.494 289.292 185.649 289.154 184.854C288.763 182.671 288.018 180.589 286.921 178.659C286.391 177.725 285.533 176.463 284.121 176.236C282.872 176.034 281.497 176.791 280.766 178.091C280.185 179.125 280.047 180.261 279.92 181.548C279.239 188.98 279.025 196.538 279.277 203.996C279.277 204.336 279.567 204.601 279.895 204.601H279.933Z" fill="black"/>
    <path d="M289.797 188.526C290.011 188.526 290.226 188.488 290.428 188.4C290.97 188.185 291.411 187.731 291.777 187.024C292.332 185.939 292.597 184.602 292.597 182.949C292.597 180.942 292.231 178.961 291.525 177.081C291.361 176.652 291.159 176.173 290.73 175.82C290.415 175.555 290.011 175.391 289.482 175.302C287.817 175.025 286.038 175.668 284.928 176.943C284.701 177.208 284.726 177.599 284.991 177.826C285.256 178.053 285.647 178.028 285.874 177.763C286.694 176.816 288.031 176.324 289.28 176.539C289.582 176.589 289.797 176.665 289.936 176.779C290.125 176.943 290.251 177.233 290.365 177.523C291.02 179.264 291.361 181.094 291.361 182.949C291.361 184.4 291.147 185.548 290.68 186.444C290.465 186.86 290.238 187.125 289.986 187.226C289.797 187.302 289.633 187.226 289.545 187.176C289.381 187.062 289.267 186.848 289.28 186.633C289.28 186.292 289.002 186.002 288.662 186.002C288.321 186.002 288.044 186.28 288.031 186.621C288.031 187.251 288.321 187.844 288.838 188.198C289.141 188.4 289.482 188.513 289.822 188.513L289.797 188.526Z" fill="black"/>
    <path d="M292.559 188.614C293.19 188.614 293.833 188.274 294.275 187.68C294.653 187.163 294.83 186.57 294.981 186.002C295.46 184.135 295.801 182.217 296.003 180.312C296.078 179.542 296.142 178.646 295.94 177.775C295.7 176.741 295.107 175.92 294.3 175.504C292.938 174.797 291.361 175.416 290.301 175.933C289.986 176.084 289.86 176.463 290.024 176.766C290.175 177.081 290.554 177.207 290.856 177.043C292.156 176.4 293.064 176.261 293.72 176.602C294.186 176.842 294.552 177.384 294.716 178.04C294.88 178.722 294.817 179.466 294.754 180.173C294.565 182.028 294.237 183.882 293.77 185.687C293.644 186.154 293.518 186.608 293.278 186.936C293.102 187.176 292.786 187.403 292.496 187.365C292.269 187.34 291.916 187.05 291.84 186.886C291.916 186.57 291.739 186.255 291.424 186.154C291.096 186.04 290.743 186.217 290.629 186.545C290.516 186.873 290.579 187.239 290.793 187.58C291.109 188.084 291.765 188.526 292.32 188.602C292.395 188.602 292.484 188.614 292.559 188.614Z" fill="black"/>
    <path d="M300.569 186.166C300.569 186.166 300.619 186.166 300.645 186.166C300.985 186.128 301.237 185.813 301.187 185.472C300.619 180.665 300.746 175.794 301.553 171.025C301.654 170.419 301.767 169.813 301.881 169.22C302.385 166.495 302.915 163.681 302.461 160.867C302.272 159.719 301.578 158.609 300.455 158.735C299.699 158.81 299.232 159.441 298.954 159.908C297.416 162.457 296.785 165.511 296.167 168.463C295.637 171.012 295.082 173.637 293.959 175.845C293.808 176.148 293.922 176.526 294.237 176.69C294.54 176.842 294.918 176.728 295.082 176.413C296.28 174.066 296.848 171.353 297.403 168.728C297.996 165.877 298.614 162.937 300.039 160.564C300.266 160.198 300.455 159.997 300.607 159.984C300.872 159.959 301.162 160.539 301.25 161.082C301.666 163.668 301.162 166.381 300.67 169.006C300.556 169.611 300.443 170.23 300.342 170.835C299.509 175.731 299.383 180.715 299.963 185.649C300.001 185.964 300.266 186.204 300.582 186.204L300.569 186.166Z" fill="black"/>
    <path d="M294.83 188.488C295.183 186.986 294.981 185.359 294.275 183.996C293.833 183.138 293.19 182.368 292.9 181.447C292.61 180.526 292.812 179.327 293.669 178.898C294.212 178.621 294.88 178.722 295.448 178.949C296.936 179.542 298.008 180.854 298.929 182.166C299.497 182.987 300.039 183.845 300.317 184.804C300.556 185.662 300.569 186.57 300.493 187.453C300.455 188.009 300.367 188.576 300.064 189.031C299.648 189.674 298.891 189.977 298.16 190.204C297.403 190.444 296.57 190.62 295.826 190.355C295.082 190.091 294.653 189.27 294.842 188.488H294.83Z" fill="white"/>
    <path d="M294.262 207.768C294.552 207.768 294.817 207.554 294.88 207.251C295.763 202.494 297.226 197.838 299.207 193.422L299.408 192.967C300.493 190.57 301.729 187.857 301.111 185.119C300.708 183.327 299.572 181.838 298.437 180.463C297.655 179.517 296.873 178.646 295.738 178.23C294.477 177.763 292.761 178.116 292.181 179.491C291.613 180.829 292.458 182.103 293.14 183.138C293.266 183.327 293.392 183.517 293.505 183.693C294.817 185.813 294.628 188.753 293.064 190.696C292.849 190.961 292.887 191.365 293.165 191.579C293.43 191.794 293.833 191.756 294.048 191.478C295.927 189.144 296.154 185.586 294.577 183.037C294.464 182.848 294.325 182.646 294.199 182.444C293.606 181.548 293.039 180.703 293.354 179.983C293.631 179.34 294.628 179.138 295.334 179.403C296.167 179.718 296.835 180.463 297.504 181.271C298.589 182.583 299.585 183.882 299.926 185.409C300.455 187.731 299.358 190.141 298.311 192.463L298.109 192.917C296.078 197.422 294.59 202.179 293.694 207.037C293.631 207.377 293.858 207.705 294.199 207.768C294.237 207.768 294.275 207.768 294.313 207.768H294.262Z" fill="black"/>
    <g opacity="0.13">
    <path d="M282.468 184.11C282.569 183.655 283.137 183.428 283.553 183.63C284.02 183.857 284.045 184.425 284.234 184.854C284.323 185.069 284.411 185.283 284.499 185.498C284.663 185.586 284.625 185.649 284.852 185.863C284.865 185.876 284.878 185.889 284.89 185.914C285.294 186.343 285.092 186.179 285.723 186.772C285.811 186.86 286.025 187.012 286.152 187.1C287.199 187.58 286.845 187.352 287.526 187.554C288.573 187.744 288.939 187.491 290.465 187.731C290.806 187.807 291.147 187.92 291.5 187.971C291.941 187.92 291.815 187.958 292.673 187.63C292.673 187.63 292.685 187.63 292.698 187.63C293.102 187.403 293.379 186.974 293.833 186.886C295.006 186.57 295.738 188.198 294.741 188.892C293.821 189.75 292.509 190.292 291.247 190.255C291.121 190.255 290.995 190.242 290.869 190.217C289.532 190.015 289.797 190.002 288.7 190.027C287.955 190.002 288.271 190.065 287.148 189.99C286.543 189.889 286 189.624 285.496 189.27C284.878 188.867 284.36 188.324 283.919 187.731C283.856 187.68 283.793 187.63 283.742 187.542C283.692 187.453 283.641 187.365 283.604 187.277C283.604 187.277 283.591 187.251 283.578 187.239C283.389 186.936 283.112 186.633 283.074 186.28C282.897 185.927 282.746 185.573 282.632 185.195C282.557 184.841 282.342 184.45 282.468 184.084V184.11Z" fill="black"/>
    </g>
    <g opacity="0.13">
    <path d="M284.852 185.863C284.726 185.725 284.663 185.662 284.852 185.863V185.863Z" fill="black"/>
    </g>
    <g opacity="0.13">
    <path d="M294.691 175.618C294.918 175.1 295.637 174.949 296.066 175.315C296.495 175.731 296.495 176.514 296.835 177.031C297.277 177.737 299.497 180.526 300.228 182.078C300.481 182.974 299.207 183.542 298.689 182.785C297.769 181.296 296.772 179.845 295.662 178.482C295.221 177.889 294.918 177.22 294.729 176.514C294.628 176.223 294.552 175.92 294.704 175.63L294.691 175.618Z" fill="black"/>
    </g>
    <path d="M391.336 348.472C397.265 339.147 411.354 322.163 418.342 313.608C417.308 309.747 401.175 294.744 393.077 285.092C388.851 323.741 391.815 333.456 385.055 339.778C375.922 348.308 335.307 349.797 330.337 344.989C327.083 341.822 324.547 336.46 324.081 332.548C322.163 316.725 325.317 296.953 325.91 281.029C316.449 289.546 294.489 305.709 282.531 302.845C275.178 301.091 273.387 292.902 272.693 289.874C266.613 263.098 272.668 230.986 276.654 204.361C283.213 205.762 290.995 208.387 297.655 206.62C296.167 227.957 294.199 256.133 295.12 269.597C308.768 260.815 318.253 252.575 334.045 247.124C345.12 243.313 382.267 246.67 388.624 248.55C402.424 252.638 441.5 296.221 442.459 310.227C443.607 327.034 409.702 351.286 402.045 360.951C400.494 357.065 395.032 350.567 391.349 348.472H391.336Z" fill="white"/>
    <path d="M402.033 361.582C402.222 361.582 402.398 361.494 402.524 361.342C404.618 358.705 408.768 354.882 413.587 350.466C426.389 338.718 443.922 322.63 443.077 310.189C442.547 302.429 431.233 287.06 420.827 275.262C411.001 264.133 396.722 250.304 388.801 247.957C382.267 246.026 344.956 242.708 333.843 246.531C321.861 250.657 313.296 256.524 304.239 262.732C301.502 264.6 298.689 266.53 295.687 268.486C294.931 254.632 296.873 226.986 298.286 206.658C298.298 206.456 298.21 206.267 298.059 206.128C297.907 206.002 297.693 205.951 297.504 206.002C292.206 207.402 285.988 205.913 280.501 204.601C279.214 204.298 277.991 203.996 276.792 203.743C276.628 203.705 276.452 203.743 276.3 203.844C276.162 203.945 276.061 204.097 276.035 204.261C275.644 206.872 275.228 209.547 274.812 212.26C270.952 237.332 266.575 265.748 272.087 290L272.113 290.088C272.832 293.243 274.724 301.621 282.393 303.451C294.174 306.265 314.923 291.489 325.241 282.467C325.027 287.123 324.623 292.044 324.194 297.218C323.198 309.306 322.176 321.81 323.475 332.611C323.992 336.926 326.704 342.314 329.921 345.431C332.847 348.27 345.587 348.749 356.195 348.005C361.518 347.626 379.353 345.961 385.496 340.232C390.037 335.993 390.378 330.302 391.185 316.536C391.601 309.356 392.181 299.602 393.569 286.593C396.684 290.202 400.721 294.404 404.631 298.492C410.547 304.675 416.664 311.047 417.673 313.482L415.794 315.779C408.478 324.7 396.243 339.639 390.844 348.131C390.756 348.27 390.718 348.447 390.769 348.623C390.806 348.787 390.92 348.926 391.071 349.014C394.502 350.97 399.964 357.342 401.503 361.191C401.591 361.393 401.768 361.544 401.995 361.582C402.02 361.582 402.058 361.582 402.083 361.582H402.033ZM351.717 245.988C366.349 245.988 384.146 247.881 388.448 249.155C394.654 250.998 407.292 261.824 419.893 276.095C432.81 290.719 441.425 304.145 441.841 310.277C442.648 322.125 425.368 337.974 412.754 349.557C408.352 353.595 404.492 357.141 402.209 359.79C400.279 355.891 395.612 350.491 392.219 348.283C397.744 339.765 409.601 325.293 416.74 316.586L418.834 314.025C418.96 313.873 419.01 313.659 418.947 313.47C418.279 310.984 412.363 304.814 405.501 297.659C401.2 293.167 396.747 288.524 393.556 284.713C393.392 284.524 393.14 284.448 392.9 284.511C392.661 284.587 392.484 284.789 392.459 285.041C390.958 298.807 390.352 309.028 389.923 316.485C389.141 329.886 388.813 335.437 384.638 339.336C379.997 343.664 366.853 346.024 356.094 346.781C343.859 347.639 332.973 346.68 330.778 344.548C327.802 341.658 325.191 336.472 324.711 332.472C323.425 321.785 324.446 309.356 325.43 297.331C325.897 291.59 326.351 286.177 326.54 281.054C326.54 280.801 326.414 280.574 326.174 280.461C325.947 280.347 325.683 280.398 325.493 280.562C314.229 290.694 293.543 304.839 282.67 302.239C275.758 300.587 273.992 292.763 273.324 289.823V289.735C267.849 265.71 272.214 237.421 276.048 212.462C276.426 209.977 276.805 207.529 277.171 205.119C278.155 205.333 279.151 205.573 280.211 205.825C285.559 207.112 291.588 208.551 296.987 207.415C295.536 228.235 293.594 256.259 294.502 269.622C294.514 269.836 294.653 270.038 294.842 270.139C295.044 270.24 295.271 270.228 295.46 270.101C298.828 267.944 301.931 265.811 304.946 263.742C314.33 257.319 322.428 251.767 334.26 247.692C337.905 246.43 344.426 245.963 351.73 245.963L351.717 245.988Z" fill="black"/>
    <path d="M360.042 264.108C357.481 275.578 355.06 287.085 352.789 298.643C352.411 300.599 352.02 302.605 352.158 304.612C352.348 307.438 353.533 309.962 354.694 312.384C356.107 315.337 357.519 318.29 359.437 321.23C361.909 315.905 364.141 310.403 366.059 304.801C366.942 291.968 363.019 279.388 362.943 266.505C362.943 265.71 362.943 264.878 362.64 264.184C362.338 263.49 361.606 263.023 360.042 264.108Z" fill="white"/>
    <path d="M359.436 321.861C359.436 321.861 359.462 321.861 359.487 321.861C359.714 321.848 359.916 321.709 360.004 321.495C362.514 316.081 364.759 310.542 366.651 305.015C366.664 304.965 366.677 304.915 366.689 304.851C367.181 297.672 366.172 290.479 365.201 283.527C364.419 277.962 363.612 272.209 363.586 266.518V266.467C363.586 265.66 363.586 264.739 363.233 263.944C362.994 263.414 362.615 263.061 362.123 262.922C361.442 262.732 360.66 262.947 359.714 263.603C359.588 263.691 359.487 263.83 359.462 263.982C356.914 275.401 354.467 287.022 352.209 298.53C351.843 300.41 351.427 302.53 351.566 304.65C351.767 307.653 353.029 310.302 354.151 312.649C355.552 315.577 356.989 318.592 358.945 321.57C359.058 321.747 359.26 321.848 359.462 321.848L359.436 321.861ZM365.441 304.687C363.687 309.798 361.644 314.921 359.348 319.93C357.746 317.331 356.485 314.681 355.249 312.119C354.177 309.873 352.966 307.337 352.777 304.574C352.65 302.618 353.041 300.574 353.407 298.77C355.652 287.35 358.074 275.817 360.597 264.499C361.291 264.057 361.631 264.083 361.757 264.12C361.808 264.133 361.947 264.171 362.073 264.449C362.312 265.004 362.325 265.748 362.325 266.467V266.518C362.35 272.297 363.17 278.101 363.952 283.704C364.911 290.568 365.907 297.659 365.441 304.687Z" fill="black"/>
    <path d="M363.75 256.209C362.867 255.427 361.581 255.351 360.509 255.679C358.932 256.158 357.57 256.916 357.128 258.505C357.015 258.909 357.645 260.714 357.986 261.37C358.402 262.152 359.499 263.616 360.546 263.818C361.455 263.982 362.35 263.527 363.082 262.985C364.419 262.001 365.592 260.474 365.352 258.833C365.213 257.849 364.608 256.991 363.725 256.222L363.75 256.209Z" fill="white"/>
    <path d="M360.95 264.461C361.732 264.461 362.565 264.133 363.473 263.477C365.289 262.152 366.235 260.373 365.996 258.733C365.844 257.673 365.251 256.701 364.167 255.742C363.208 254.884 361.77 254.644 360.332 255.086C358.97 255.502 357.103 256.285 356.535 258.341C356.321 259.098 357.242 261.281 357.443 261.673C357.885 262.518 359.096 264.196 360.446 264.436C360.61 264.461 360.773 264.486 360.95 264.486V264.461ZM361.72 256.108C362.287 256.108 362.88 256.259 363.334 256.663C364.179 257.42 364.646 258.152 364.759 258.897C365.012 260.65 363.271 262.064 362.741 262.455C361.934 263.048 361.253 263.288 360.685 263.174C359.954 263.035 358.982 261.862 358.566 261.054C358.238 260.436 357.759 258.972 357.759 258.619C358.087 257.509 358.995 256.777 360.71 256.259C361.013 256.171 361.379 256.108 361.732 256.108H361.72Z" fill="black"/>
    <path d="M352.272 224.941C352.663 232.79 352.373 240.664 351.414 248.449C351.339 249.105 351.25 249.786 351.49 250.392C351.73 251.023 352.272 251.477 352.814 251.881C356.523 254.67 361.278 256.234 365.857 255.515C370.436 254.783 374.686 251.502 375.582 246.594C374.32 240.058 372.05 230.897 370.625 220.475C364.923 222.355 359.02 223.629 352.272 224.954V224.941Z" fill="white"/>
    <path d="M363.574 256.323C364.368 256.323 365.163 256.259 365.945 256.133C371.192 255.3 375.304 251.502 376.187 246.708C376.2 246.632 376.2 246.556 376.187 246.48C375.822 244.575 375.355 242.405 374.876 240.121C373.702 234.607 372.252 227.755 371.243 220.386C371.218 220.197 371.117 220.033 370.953 219.945C370.801 219.844 370.6 219.819 370.423 219.882C364.974 221.673 359.386 222.923 352.146 224.336C351.843 224.399 351.629 224.677 351.641 224.979C352.032 232.765 351.742 240.638 350.784 248.386C350.695 249.08 350.594 249.862 350.897 250.632C351.187 251.389 351.805 251.931 352.423 252.398C355.829 254.947 359.777 256.335 363.574 256.335V256.323ZM374.939 246.594C373.98 251.465 369.641 254.278 365.743 254.897C361.606 255.553 357.027 254.278 353.18 251.389C352.739 251.061 352.259 250.67 352.07 250.178C351.894 249.711 351.957 249.118 352.032 248.537C352.978 240.903 353.268 233.143 352.928 225.459C359.651 224.134 364.961 222.948 370.108 221.295C371.117 228.424 372.517 235.036 373.652 240.373C374.131 242.607 374.573 244.727 374.939 246.594Z" fill="black"/>
    <path d="M380.034 259.414C380.236 259.414 380.438 259.313 380.564 259.136C381.687 257.408 382.759 255.629 383.73 253.824C383.894 253.521 383.781 253.143 383.478 252.979C383.175 252.815 382.797 252.928 382.633 253.231C381.674 255.01 380.627 256.764 379.517 258.455C379.328 258.745 379.404 259.136 379.694 259.326C379.795 259.389 379.921 259.427 380.034 259.427V259.414Z" fill="black"/>
    <path d="M385.055 258.102C385.282 258.102 385.509 257.975 385.622 257.748L387.161 254.556C387.312 254.241 387.174 253.875 386.871 253.723C386.556 253.572 386.19 253.711 386.038 254.013L384.5 257.206C384.348 257.521 384.487 257.887 384.79 258.039C384.878 258.076 384.966 258.102 385.055 258.102Z" fill="black"/>
    <path d="M363.397 255.616C365.415 258.745 367.421 261.862 369.893 265.117C373.892 258.909 377.941 252.512 380.173 245.471C378.811 244.663 375.897 242.291 374.522 241.496C374.787 243.061 375.506 244.525 375.254 244.992C375.09 245.282 367.307 252.613 363.397 255.628V255.616Z" fill="white"/>
    <path d="M369.893 265.736C369.893 265.736 369.906 265.736 369.918 265.736C370.12 265.736 370.309 265.622 370.423 265.445C374.182 259.603 378.445 252.979 380.779 245.648C380.867 245.37 380.753 245.067 380.501 244.916C379.845 244.525 378.773 243.73 377.739 242.96C376.629 242.14 375.569 241.358 374.863 240.929C374.648 240.802 374.396 240.815 374.194 240.954C373.993 241.093 373.892 241.332 373.929 241.572C374.043 242.266 374.245 242.922 374.409 243.49C374.535 243.894 374.686 244.436 374.699 244.663C373.829 245.597 366.651 252.31 363.031 255.086C362.779 255.288 362.716 255.641 362.893 255.919C364.873 258.998 366.929 262.19 369.414 265.458C369.527 265.609 369.717 265.71 369.906 265.71L369.893 265.736ZM379.429 245.736C377.222 252.424 373.362 258.556 369.855 264.019C367.761 261.206 365.958 258.442 364.23 255.755C368.039 252.739 375.531 245.774 375.809 245.282C376.074 244.79 375.885 244.133 375.594 243.162C375.569 243.086 375.544 242.998 375.519 242.91C375.985 243.238 376.477 243.616 376.982 243.982C377.89 244.651 378.76 245.294 379.429 245.736Z" fill="black"/>
    <path d="M393.266 189.258C391.816 195.188 390.352 200.475 387.615 208.122C386.316 211.768 384.26 215.743 381.99 218.961C380.917 220.475 380.135 221.194 378.18 221.901C378.218 220.273 376.604 219.326 376.49 217.686C376.339 215.68 377.764 214.052 376.73 212.197C374.762 208.664 373.538 204.866 373.147 201.043C372.832 197.901 373.097 194.658 374.8 191.945C376.503 189.232 379.87 187.138 383.655 187.214C386.53 187.277 391.172 187.251 393.253 189.258H393.266Z" fill="#BEE8FF"/>
    <path d="M378.193 222.531C378.269 222.531 378.332 222.531 378.407 222.494C380.564 221.711 381.409 220.891 382.507 219.326C384.79 216.096 386.871 212.084 388.208 208.336C390.97 200.627 392.421 195.377 393.872 189.409C393.922 189.195 393.859 188.968 393.695 188.816C391.538 186.734 387.085 186.658 384.134 186.595H383.68C379.934 186.494 376.25 188.475 374.283 191.605C372.706 194.103 372.138 197.22 372.542 201.106C372.946 205.03 374.169 208.866 376.2 212.5C376.704 213.396 376.49 214.229 376.213 215.276C376.023 216.008 375.809 216.828 375.872 217.737C375.935 218.683 376.414 219.415 376.831 220.058C377.234 220.689 377.587 221.232 377.562 221.888C377.562 222.09 377.65 222.292 377.827 222.405C377.941 222.481 378.067 222.519 378.193 222.519V222.531ZM392.572 189.485C391.16 195.264 389.709 200.425 387.035 207.92C385.736 211.566 383.705 215.465 381.485 218.607C380.627 219.819 380.009 220.449 378.71 221.03C378.533 220.412 378.205 219.882 377.89 219.39C377.524 218.822 377.171 218.279 377.133 217.648C377.083 216.954 377.259 216.286 377.436 215.592C377.726 214.481 378.041 213.232 377.297 211.894C375.355 208.412 374.182 204.74 373.791 200.98C373.425 197.384 373.929 194.532 375.355 192.273C377.083 189.51 380.35 187.769 383.667 187.832H384.121C386.745 187.895 390.655 187.971 392.585 189.472L392.572 189.485Z" fill="black"/>
    <path d="M347.113 194.608C346.621 199.933 344.805 205.043 343.997 210.33C343.203 215.617 343.556 221.358 347.025 225.989C350.077 230.064 355.463 232.853 361.026 233.257C366.588 233.661 372.189 231.654 375.569 228.046C378.748 224.651 380.425 216.487 381.422 212.424C383.818 213.156 386.644 212.79 388.372 211.314C390.1 209.838 390.466 207.264 388.99 205.484C387.514 203.705 385.395 203.15 382.595 205.081C383.251 201.712 383.15 198.305 383.112 196.753C383.011 192.513 383.818 186.356 381.195 184.185C379.706 182.949 376.402 181.573 374.547 180.804C371.344 179.453 366.412 180.892 362.93 180.375C359.449 179.857 355.64 181.006 352.587 182.33C348.929 183.92 347.466 190.646 347.1 194.62L347.113 194.608Z" fill="white"/>
    <path d="M362.451 233.938C367.711 233.938 372.819 231.907 376.036 228.475C379 225.307 380.64 218.468 381.712 213.939C381.775 213.674 381.838 213.421 381.889 213.181C384.399 213.749 387.111 213.219 388.788 211.781C390.832 210.027 391.147 207.087 389.482 205.081C388.523 203.907 386.53 202.355 383.453 203.857C383.869 200.967 383.793 198.242 383.755 196.829V196.728C383.73 195.857 383.755 194.911 383.755 193.914C383.831 190.015 383.907 185.611 381.598 183.693C380.097 182.444 376.906 181.106 375.002 180.299L374.787 180.211C372.756 179.353 370.171 179.542 367.673 179.706C365.97 179.819 364.368 179.933 363.019 179.731C360.017 179.289 356.422 179.958 352.335 181.737C347.693 183.756 346.646 192.766 346.482 194.545C346.205 197.51 345.498 200.475 344.817 203.339C344.288 205.585 343.733 207.907 343.379 210.229C342.383 216.815 343.442 222.241 346.52 226.355C349.686 230.582 355.223 233.459 360.988 233.875C361.48 233.913 361.959 233.926 362.451 233.926V233.938ZM381.434 211.794C381.334 211.794 381.22 211.819 381.132 211.869C380.98 211.958 380.879 212.096 380.829 212.26C380.728 212.677 380.615 213.144 380.501 213.636C379.517 217.762 377.865 224.676 375.128 227.604C371.861 231.086 366.487 233.017 361.089 232.626C355.69 232.235 350.493 229.547 347.542 225.61C344.666 221.787 343.695 216.677 344.641 210.431C344.981 208.16 345.536 205.863 346.066 203.642C346.76 200.727 347.479 197.724 347.756 194.671C348.172 190.078 349.774 184.236 352.865 182.898C356.737 181.22 360.105 180.576 362.867 180.98C364.368 181.207 366.109 181.081 367.799 180.955C370.158 180.791 372.58 180.614 374.333 181.359L374.547 181.447C376.389 182.217 379.467 183.517 380.829 184.652C382.671 186.192 382.608 190.28 382.532 193.889C382.519 194.898 382.494 195.857 382.519 196.753V196.854C382.557 198.431 382.645 201.712 382.015 204.942C381.964 205.194 382.078 205.447 382.28 205.585C382.494 205.724 382.772 205.724 382.973 205.585C385.219 204.033 387.085 204.122 388.523 205.876C389.747 207.352 389.507 209.535 387.981 210.835C386.467 212.122 383.907 212.525 381.624 211.819C381.561 211.806 381.498 211.794 381.447 211.794H381.434Z" fill="black"/>
    <path d="M364.431 188.261C363.7 190.57 359.752 193.573 357.443 193.598C355.123 193.624 354.366 192.488 353.634 190.204C351.439 191.832 349.749 193.535 347.592 194.153C344.313 195.075 340.554 192.74 339.797 189.296C339.04 185.851 341.437 181.964 344.754 181.22C342.534 181.548 340.567 179.151 340.73 176.816C340.894 174.482 342.711 172.514 344.805 171.668C346.899 170.823 349.219 170.911 351.502 170.785C350.859 168.451 352.171 165.826 354.164 164.552C356.17 163.265 358.667 163.151 360.95 163.63C362.451 163.946 363.927 164.539 365.037 165.637C366.147 166.735 366.815 168.387 366.601 170.078C368.846 167.719 372.239 166.293 375.241 167.302C378.243 168.312 380.224 172.274 380.224 174.873C381.876 173.17 383.957 171.832 386.253 172.16C390.794 172.816 391.475 176.778 388.977 181.599C391.513 180.614 395.032 181.977 395.877 185.624C396.508 188.337 395.171 192.437 393.153 194.33C391.147 196.223 384.537 197.409 380.312 193.775C377.966 191.756 376.995 189.207 376.465 186.835C374.926 189.018 373.803 190.507 370.36 191.314C367.85 191.895 365.037 190.671 364.419 188.261H364.431Z" fill="#BEE8FF"/>
    <path d="M387.123 196.753C389.923 196.753 392.446 195.857 393.594 194.784C395.801 192.702 397.164 188.362 396.495 185.485C396.066 183.655 394.981 182.179 393.417 181.359C392.383 180.816 391.223 180.589 390.113 180.703C391.21 178.116 391.349 175.82 390.491 174.154C389.759 172.728 388.322 171.832 386.354 171.542C384.487 171.277 382.595 171.946 380.728 173.548C380.211 170.772 378.18 167.63 375.456 166.709C372.845 165.826 369.729 166.596 367.219 168.652C367.042 167.353 366.437 166.129 365.478 165.183C364.419 164.135 362.943 163.403 361.076 163.012C358.326 162.419 355.753 162.785 353.823 164.022C351.717 165.372 350.481 167.921 350.746 170.192C350.569 170.192 350.38 170.204 350.203 170.217C348.324 170.293 346.381 170.356 344.565 171.088C342.055 172.097 340.264 174.381 340.1 176.766C339.999 178.217 340.617 179.756 341.714 180.766C342.004 181.031 342.307 181.245 342.623 181.422C340.062 183.024 338.511 186.356 339.179 189.409C339.583 191.264 340.806 192.917 342.522 193.939C344.161 194.923 346.066 195.213 347.756 194.734C349.497 194.242 350.935 193.094 352.449 191.882C352.726 191.655 353.016 191.428 353.306 191.201C354.05 193.144 355.097 194.229 357.431 194.204C359.6 194.179 362.893 191.933 364.381 189.699C365.554 191.516 368.026 192.475 370.499 191.895C373.501 191.201 374.838 190.027 376.175 188.248C376.717 190.103 377.739 192.362 379.883 194.217C382.002 196.034 384.651 196.715 387.098 196.715L387.123 196.753ZM390.68 181.927C391.412 181.927 392.156 182.103 392.825 182.469C394.061 183.125 394.931 184.299 395.272 185.775C395.839 188.236 394.628 192.097 392.736 193.889C390.832 195.68 384.601 196.652 380.728 193.321C378.319 191.251 377.499 188.564 377.083 186.721C377.032 186.482 376.843 186.292 376.591 186.242C376.351 186.192 376.099 186.292 375.96 186.494C374.548 188.501 373.513 189.952 370.234 190.721C368.165 191.201 365.592 190.28 365.037 188.122C364.974 187.857 364.722 187.655 364.444 187.655C364.167 187.655 363.914 187.832 363.826 188.097C363.183 190.128 359.474 192.967 357.418 192.993C355.64 193.005 354.959 192.374 354.214 190.04C354.151 189.851 354 189.699 353.811 189.636C353.622 189.573 353.407 189.611 353.243 189.725C352.688 190.141 352.171 190.545 351.666 190.949C350.178 192.135 348.904 193.144 347.403 193.573C346.041 193.952 344.489 193.712 343.152 192.917C341.727 192.059 340.731 190.709 340.39 189.182C339.709 186.078 341.891 182.52 344.88 181.851C345.208 181.775 345.423 181.46 345.36 181.132C345.297 180.804 344.994 180.577 344.653 180.627C343.934 180.741 343.19 180.476 342.559 179.883C341.727 179.113 341.26 177.965 341.336 176.879C341.487 174.659 343.304 172.968 345.019 172.274C346.621 171.63 348.374 171.555 350.229 171.492C350.657 171.479 351.086 171.454 351.503 171.441C351.692 171.441 351.868 171.34 351.982 171.176C352.095 171.025 352.133 170.823 352.07 170.646C351.528 168.703 352.562 166.318 354.467 165.107C356.119 164.047 358.364 163.757 360.786 164.274C362.413 164.627 363.687 165.246 364.57 166.116C365.604 167.138 366.134 168.64 365.958 170.04C365.92 170.305 366.071 170.57 366.311 170.684C366.55 170.798 366.841 170.747 367.03 170.545C369.338 168.097 372.479 167.075 375.027 167.933C377.802 168.867 379.58 172.69 379.58 174.911C379.58 175.163 379.732 175.391 379.971 175.491C380.211 175.592 380.476 175.529 380.652 175.353C382.532 173.422 384.373 172.577 386.139 172.829C387.716 173.056 388.801 173.712 389.343 174.772C390.138 176.312 389.797 178.659 388.397 181.359C388.284 181.586 388.309 181.876 388.486 182.065C388.662 182.255 388.94 182.33 389.179 182.229C389.633 182.053 390.138 181.965 390.642 181.965L390.68 181.927Z" fill="black"/>
    <path d="M351.364 202.759C351.351 202.103 351.894 201.548 352.6 201.535C353.294 201.522 353.874 202.04 353.886 202.696C353.899 203.352 353.357 203.907 352.65 203.92C351.957 203.932 351.376 203.415 351.364 202.759Z" fill="black"/>
    <path d="M368.808 205.257C368.796 204.601 369.338 204.046 370.044 204.033C370.738 204.021 371.318 204.538 371.331 205.194C371.344 205.85 370.801 206.406 370.095 206.418C369.389 206.431 368.821 205.913 368.808 205.257Z" fill="black"/>
    <path d="M362.338 225.61C364.091 225.61 365.844 224.941 367.118 223.692C367.37 223.453 367.37 223.049 367.118 222.809C366.878 222.557 366.475 222.557 366.235 222.809C364.785 224.235 362.426 224.74 360.521 224.058C360.193 223.945 359.84 224.109 359.727 224.437C359.613 224.765 359.777 225.118 360.105 225.232C360.824 225.497 361.581 225.623 362.35 225.623L362.338 225.61Z" fill="black"/>
    <path d="M359.891 218.746C360.017 218.746 360.143 218.746 360.269 218.746C361.656 218.658 362.905 218.052 363.687 217.08C363.902 216.815 363.864 216.412 363.599 216.197C363.334 215.983 362.93 216.021 362.716 216.286C362.161 216.98 361.215 217.421 360.193 217.484C359.272 217.547 358.276 217.32 357.216 216.828C356.863 216.664 356.485 216.462 356.258 216.159C355.993 215.793 355.942 215.226 356.132 214.645C356.296 214.128 356.586 213.636 356.901 213.118L357.052 212.866C358.919 209.762 360.067 206.216 360.37 202.608C360.395 202.267 360.143 201.964 359.802 201.926C359.462 201.888 359.159 202.153 359.121 202.494C358.831 205.914 357.746 209.283 355.98 212.223L355.829 212.462C355.488 213.017 355.135 213.598 354.933 214.267C354.631 215.238 354.744 216.197 355.249 216.891C355.64 217.421 356.195 217.737 356.687 217.964C357.797 218.481 358.881 218.733 359.903 218.733L359.891 218.746Z" fill="black"/>
    <path d="M381.939 208.488C382.217 208.488 382.469 208.298 382.545 208.021C382.847 206.86 382.986 206.242 383.251 205.106C383.327 204.765 383.112 204.437 382.784 204.361C382.444 204.286 382.116 204.5 382.04 204.828C381.788 205.951 381.649 206.57 381.346 207.705C381.258 208.033 381.46 208.387 381.788 208.475C381.838 208.488 381.889 208.5 381.952 208.5L381.939 208.488Z" fill="black"/>
    <path d="M386.896 194.292C386.896 194.292 386.997 194.292 387.048 194.28C389.608 193.636 391.652 191.264 391.904 188.639C391.942 188.299 391.689 187.996 391.336 187.958C390.996 187.92 390.693 188.173 390.655 188.526C390.453 190.646 388.813 192.564 386.745 193.068C386.404 193.157 386.202 193.485 386.291 193.825C386.366 194.116 386.619 194.305 386.896 194.305V194.292Z" fill="black"/>
    <g opacity="0.13">
    <path d="M347.466 193.674C348.601 192.993 349.774 192.362 350.859 191.605C351.578 191.226 352.196 190.456 353.004 190.318C354.114 190.128 354.807 191.201 354.605 192.109C354.782 192.248 354.984 192.349 355.211 192.412C355.236 192.45 355.261 192.475 355.274 192.513C355.299 192.538 355.312 192.564 355.324 192.576C355.4 192.652 355.476 192.715 355.551 192.791C355.577 192.816 355.615 192.841 355.652 192.866C355.728 192.904 355.816 192.942 355.879 192.967C356.144 193.043 356.409 193.094 356.674 193.119C356.674 193.119 356.674 193.119 356.687 193.119C357.86 193.119 359.247 192.551 359.954 192.185C359.979 192.172 360.004 192.16 360.042 192.135C360.105 192.097 360.446 191.895 360.559 191.819C361.202 191.39 361.858 190.961 362.451 190.469C362.602 190.33 362.729 190.191 362.867 190.04C362.993 189.535 363.41 189.056 363.952 189.106C364.494 189.094 364.961 189.687 364.848 190.217C364.835 190.292 364.81 190.355 364.785 190.431C364.785 190.444 364.785 190.456 364.785 190.482C364.785 190.52 364.797 190.532 364.797 190.545C364.835 190.557 364.873 190.583 364.911 190.608C365.087 190.608 365.251 190.658 365.39 190.759C365.466 190.797 365.541 190.848 365.579 190.873C366.071 191.125 366.664 191.378 367.055 191.516C367.257 191.314 367.534 191.176 367.888 191.176C369.363 191.087 369.843 190.974 371.609 190.318C372.264 190.128 372.1 189.964 373.223 189.737C373.526 189.737 373.778 189.838 373.98 189.99C374.081 189.876 374.194 189.762 374.295 189.649C374.472 189.409 374.548 189.308 374.598 189.245C374.976 188.98 375.342 188.703 375.695 188.412C376.112 188.463 376.49 188.791 376.452 189.296C376.465 189.51 376.339 189.699 376.225 189.876C376.036 190.179 375.834 190.482 375.62 190.759C375.695 190.658 375.784 190.482 375.67 190.684C375.153 191.466 374.434 192.122 373.69 192.69C372.479 193.56 371.066 194.141 369.616 194.494C368.619 194.734 367.597 194.898 366.576 194.772C366.5 194.772 366.412 194.747 366.336 194.734C366.361 194.734 366.399 194.734 366.437 194.734C365.63 194.658 364.848 194.28 364.242 193.737C363.813 193.333 363.473 192.829 363.233 192.286C362.552 192.917 361.795 193.447 361.001 193.939C360.193 194.381 359.651 194.747 358.289 195.1C356.889 195.478 355.236 195.403 354.088 194.418C353.798 194.128 353.546 193.813 353.319 193.472C352.423 194.128 351.515 194.759 350.582 195.352C349.774 195.806 348.955 196.374 348.009 196.475C346.419 196.425 346.079 194.393 347.454 193.687L347.466 193.674Z" fill="black"/>
    </g>
    <g opacity="0.13">
    <path d="M391.677 196.702C391.45 196.046 390.743 196.147 390.188 196.198C389.368 196.261 388.536 196.21 387.716 196.261C387.111 196.299 386.505 196.362 385.887 196.336C385.887 196.336 385.887 196.336 385.9 196.336C385.711 196.336 385.559 196.336 385.9 196.336C385.572 196.336 385.244 196.261 384.916 196.286C384.865 196.135 384.79 195.983 384.651 195.87C384.058 195.314 383.011 195.857 383.112 196.664C383.175 197.283 383.251 197.901 383.238 198.519C383.112 199.415 382.973 200.828 384.247 200.778C384.5 200.753 384.714 200.627 384.903 200.463C384.865 200.526 385.509 200.109 385.673 200.046C386.354 199.668 387.615 199.112 388.851 198.57C389.495 198.305 390.151 198.065 390.819 197.863C390.869 197.851 390.92 197.838 390.97 197.825C391.008 197.825 391.084 197.8 391.147 197.787C391.588 197.649 391.828 197.157 391.677 196.728V196.702Z" fill="black"/>
    </g>
    <g opacity="0.13">
    <path d="M371.974 231.288C371.18 231.743 370.335 232.096 369.452 232.373C369.414 232.399 369.376 232.411 369.338 232.437C369.338 232.437 369.313 232.437 369.313 232.411C367.484 232.941 365.529 233.156 363.675 233.282C363.309 233.32 362.943 233.358 362.59 233.383C362.59 233.383 362.199 233.408 361.808 233.408C361.127 233.408 357.557 232.613 352.802 231.074C352.802 231.44 352.751 232.992 352.739 233.358C352.625 237.496 352.575 239.578 352.512 239.831C352.247 240.903 351.906 241.686 352.285 242.607C352.549 243.25 353.041 243.667 353.407 243.919C353.672 243.818 353.924 243.629 354.164 243.503C355.488 242.872 356.825 242.216 358.175 241.522C363.309 238.872 367.938 236.033 372.1 233.168C372.983 232.802 372.807 231.515 371.987 231.314L371.974 231.288Z" fill="black"/>
    </g>
    <g opacity="0.13">
    <path d="M361.455 264.032C361.165 263.729 360.874 263.401 360.509 263.313C359.474 263.035 358.831 264.461 359.701 265.079C360.332 265.635 360.685 265.937 360.862 266.165C361.076 266.442 361.265 266.808 361.656 266.846C362.249 267.023 362.855 266.467 362.83 265.862C362.968 265.016 362.867 264.878 363.069 264.436C363.435 263.262 361.757 262.859 361.455 264.02V264.032Z" fill="black"/>
    </g>
    <g opacity="0.13">
    <path d="M369.578 264.385C369.376 263.956 368.884 263.691 368.607 263.313C367.913 262.556 367.156 261.559 366.979 261.193C366.815 260.928 366.651 260.676 366.525 260.398C366.412 260.108 366.248 259.818 365.932 259.704C365.239 259.414 364.495 260.209 364.835 260.878C364.911 261.029 364.999 261.18 365.087 261.332C365.012 261.294 364.936 261.256 364.86 261.244C363.952 260.991 363.372 262.266 364.141 262.808C365.062 263.452 365.958 264.12 366.841 264.814C367.698 265.407 368.38 265.824 368.846 265.988C369.78 266.24 370.372 264.953 369.59 264.385H369.578Z" fill="black"/>
    </g>
    <g opacity="0.13">
    <path d="M357.948 260.714C357.759 260.272 357.607 259.818 357.393 259.389C357.292 259.162 357.254 258.897 357.04 258.745C356.561 258.266 355.867 258.518 355.615 259.01C355.589 259.01 355.551 259.01 355.526 259.01C355.148 259.073 354.896 259.376 354.618 259.616C354.151 260.032 354.189 260.133 354.114 260.272C354.114 260.272 354.114 260.272 354.114 260.285C354.038 260.385 353.975 260.499 353.95 260.613C353.559 260.714 353.18 260.84 352.802 260.979C352.234 261.193 351.54 261.281 351.086 261.698C350.418 262.354 351.225 263.464 352.07 263.073C352.701 262.808 353.407 262.644 354.53 262.316C355.173 262.152 355.829 262.139 356.485 262.051C356.649 262.026 356.788 261.963 356.914 261.887C357.557 262.127 358.314 261.445 357.973 260.701L357.948 260.714Z" fill="black"/>
    </g>
    <path d="M360.963 532.001C362.174 537.679 363.158 543.408 363.952 549.174C364.066 549.969 364.116 552.43 363.586 552.96C363.17 553.363 341.778 554.133 330.501 552.96C330.274 550.625 331.27 546.524 332.986 545.237C335.13 543.622 346.268 543.812 348.4 542.184C351.629 539.698 351.667 534.386 351.364 529.944C354.82 529.717 358.314 530.31 360.963 532.014V532.001Z" fill="white"/>
    <path d="M346.621 554.209C348.324 554.209 349.85 554.196 351.099 554.184C354.29 554.133 357.393 554.045 359.828 553.931C363.662 553.742 363.788 553.616 363.99 553.414C364.923 552.505 364.545 549.124 364.545 549.099C363.763 543.332 362.754 537.54 361.556 531.875C361.518 531.711 361.417 531.572 361.278 531.484C358.718 529.843 355.173 529.074 351.301 529.326C351.137 529.326 350.985 529.414 350.872 529.541C350.758 529.667 350.708 529.831 350.721 529.995C351.011 534.247 350.973 539.408 347.996 541.692C347.063 542.411 343.606 542.777 340.567 543.105C337.085 543.483 333.793 543.837 332.595 544.745C330.577 546.259 329.631 550.663 329.858 553.035C329.883 553.326 330.123 553.565 330.413 553.591C335.281 554.095 341.651 554.221 346.621 554.221V554.209ZM363.17 552.417C361.026 552.77 341.979 553.439 331.069 552.392C331.031 550.121 331.989 546.752 333.339 545.729C334.272 545.035 337.678 544.657 340.693 544.341C344.225 543.963 347.542 543.597 348.753 542.676C352.032 540.152 352.285 535.193 352.007 530.537C355.261 530.424 358.2 531.08 360.382 532.392C361.556 537.944 362.539 543.622 363.309 549.263C363.435 550.221 363.385 551.912 363.17 552.43V552.417Z" fill="black"/>
    <path d="M432.633 529.894C431.422 535.572 436.455 552.442 436.997 552.96C437.414 553.363 458.806 554.133 470.083 552.96C470.31 550.625 469.313 546.524 467.598 545.237C465.454 543.622 454.316 543.812 452.184 542.184C448.955 539.698 442.182 534.335 442.484 529.894C439.028 529.667 435.294 528.19 432.646 529.894H432.633Z" fill="white"/>
    <path d="M453.937 554.209C458.907 554.209 465.277 554.083 470.146 553.578C470.436 553.553 470.676 553.313 470.701 553.023C470.928 550.663 469.982 546.259 467.964 544.733C466.765 543.824 463.473 543.471 459.992 543.092C456.939 542.764 453.483 542.386 452.563 541.679C450.153 539.824 442.812 534.171 443.102 529.932C443.102 529.768 443.064 529.604 442.951 529.477C442.837 529.351 442.686 529.276 442.522 529.263C441.563 529.2 440.554 529.036 439.571 528.872C437.023 528.455 434.399 528.014 432.305 529.364C432.166 529.452 432.065 529.591 432.028 529.755C430.779 535.66 435.786 552.644 436.569 553.401C436.77 553.59 436.896 553.729 440.731 553.919C443.165 554.045 446.268 554.133 449.46 554.171C450.708 554.184 452.247 554.196 453.937 554.196V554.209ZM469.477 552.392C458.604 553.439 439.671 552.783 437.401 552.43C436.48 550.411 432.28 535.673 433.188 530.285C434.84 529.364 437.035 529.73 439.343 530.108C440.163 530.247 440.996 530.386 441.828 530.462C442.106 535.231 449.081 540.594 451.768 542.663C452.979 543.597 456.309 543.95 459.828 544.329C462.843 544.657 466.261 545.023 467.182 545.717C468.531 546.726 469.503 550.095 469.452 552.379L469.477 552.392Z" fill="black"/>
    <path d="M391.866 349.557C389.646 352.358 387.703 355.462 386.669 358.882C385.635 362.314 385.547 366.099 386.909 369.405C387.691 371.311 388.927 373.001 390.214 374.616C391.677 376.446 393.216 378.213 394.843 379.903C396.382 381.506 398.387 383.159 400.557 382.705C400.809 382.654 401.061 382.566 401.238 382.377C401.679 381.872 401.276 381.102 400.885 380.572C398.829 377.847 396.773 375.109 394.628 372.61C396.508 374.944 398.488 377.191 400.557 379.348C401.364 380.194 402.424 381.09 403.546 380.799C403.988 379.702 403.332 378.503 402.688 377.519C401.2 375.209 399.699 372.9 398.211 370.591C399.661 372.699 401.263 374.705 402.979 376.597C403.407 377.064 404.076 377.569 404.606 377.216C405.009 376.951 405.009 376.358 404.921 375.878C404.341 372.724 401.919 370.288 400.166 367.601C398.412 364.913 397.353 361.115 399.421 358.667C399.623 358.428 399.876 358.175 399.913 357.86C399.964 357.532 399.787 357.229 399.611 356.939C398.299 354.844 396.836 352.85 395.221 350.97C394.338 349.936 392.724 348.434 391.853 349.532L391.866 349.557Z" fill="white"/>
    <path d="M399.825 383.424C400.103 383.424 400.393 383.399 400.683 383.335C400.973 383.272 401.389 383.159 401.705 382.806C401.944 382.541 402.222 382.023 401.944 381.216C402.487 381.468 403.067 381.569 403.698 381.418C403.887 381.367 404.051 381.228 404.126 381.052C404.593 379.903 404.101 378.705 403.622 377.859C404.101 378.049 404.568 378.023 404.959 377.758C405.274 377.544 405.766 377.014 405.539 375.79C405.085 373.317 403.584 371.298 402.146 369.33C401.654 368.661 401.15 367.967 400.695 367.285C399.144 364.913 398.009 361.342 399.913 359.096L399.989 359.008C400.216 358.756 400.494 358.428 400.557 357.973C400.632 357.405 400.342 356.926 400.166 356.636C398.841 354.516 397.353 352.484 395.726 350.592C394.918 349.658 393.745 348.548 392.635 348.548H392.61C392.131 348.548 391.715 348.775 391.399 349.166C388.776 352.472 387.035 355.588 386.102 358.705C384.941 362.541 385.029 366.427 386.354 369.658C387.174 371.664 388.473 373.418 389.747 375.02C391.21 376.862 392.787 378.654 394.414 380.358C395.726 381.72 397.643 383.436 399.85 383.436L399.825 383.424ZM395.877 375.109C397.416 377.014 398.917 379.008 400.38 380.963C400.771 381.481 400.872 381.872 400.771 381.985C400.746 382.011 400.67 382.074 400.431 382.124C398.488 382.528 396.571 380.825 395.297 379.5C393.695 377.834 392.143 376.068 390.706 374.251C389.482 372.724 388.258 371.046 387.489 369.191C386.266 366.238 386.19 362.642 387.275 359.084C388.17 356.131 389.835 353.153 392.358 349.961C392.446 349.847 392.534 349.822 392.623 349.809C393.077 349.809 393.922 350.44 394.754 351.412C396.344 353.254 397.794 355.235 399.081 357.305C399.157 357.431 399.321 357.683 399.295 357.797C399.283 357.898 399.144 358.049 399.03 358.188L398.942 358.289C396.596 361.065 397.845 365.241 399.636 367.967C400.103 368.686 400.632 369.393 401.124 370.074C402.55 372.005 403.887 373.822 404.29 376.017C404.366 376.446 404.29 376.673 404.24 376.724C404.152 376.787 403.811 376.635 403.42 376.206C401.73 374.339 400.14 372.333 398.703 370.263C398.513 369.986 398.122 369.91 397.845 370.099C397.555 370.288 397.479 370.667 397.668 370.957L402.146 377.885C402.676 378.692 403.13 379.537 403.042 380.257C402.323 380.219 401.578 379.55 400.998 378.944C399.573 377.456 398.173 375.903 396.823 374.326C396.255 373.62 395.675 372.913 395.095 372.232C394.868 371.967 394.49 371.941 394.225 372.156C393.96 372.37 393.922 372.762 394.136 373.027C394.704 373.733 395.284 374.427 395.864 375.121L395.877 375.109Z" fill="black"/>
    <path d="M352.108 241.168C353.508 245.887 356.851 252.55 360.647 255.364C358.263 257.067 355.211 259.818 350.254 262.796C349.434 254.493 348.135 250.455 347.782 243.995C348.917 243.313 350.708 241.824 352.108 241.168Z" fill="white"/>
    <path d="M350.254 263.414C350.367 263.414 350.481 263.389 350.582 263.326C354.101 261.206 356.662 259.212 358.718 257.61C359.575 256.941 360.319 256.36 361.013 255.868C361.177 255.755 361.278 255.565 361.278 255.364C361.278 255.162 361.19 254.972 361.026 254.859C357.494 252.234 354.177 245.887 352.713 240.992C352.663 240.815 352.537 240.676 352.373 240.6C352.209 240.525 352.02 240.525 351.856 240.6C350.948 241.029 349.888 241.787 348.967 242.443C348.412 242.834 347.895 243.212 347.479 243.452C347.277 243.566 347.163 243.793 347.176 244.02C347.365 247.49 347.819 250.203 348.337 253.357C348.778 255.994 349.27 258.985 349.648 262.846C349.674 263.061 349.8 263.25 349.989 263.338C350.077 263.389 350.178 263.401 350.266 263.401L350.254 263.414ZM359.613 255.338C359.096 255.729 358.541 256.158 357.935 256.625C356.081 258.076 353.798 259.843 350.771 261.736C350.405 258.304 349.951 255.578 349.547 253.155C349.056 250.165 348.614 247.553 348.425 244.323C348.803 244.07 349.232 243.768 349.674 243.452C350.342 242.973 351.074 242.455 351.73 242.064C353.243 246.745 356.283 252.449 359.613 255.326V255.338Z" fill="black"/>
    <path d="M385.055 340.724C391.715 354.478 431.611 481.163 450.797 534.096C442.018 534.096 431.006 533.856 426.452 534.096C405.955 490.046 375.229 421.543 359.159 376.774C357.557 384.269 360.748 433.467 360.647 446.11C360.559 456.987 366.702 520.948 367.661 534.096C366.677 535.017 343.014 534.096 343.014 534.096C334.916 487.409 328.584 425.77 326.982 378.414C326.603 367.083 325.556 356.8 326.238 339.198C337.968 345.545 365.718 348.232 385.055 340.737V340.724Z" fill="#BEE8FF"/>
    <path d="M360.887 535.13C367.459 535.13 367.825 534.79 368.077 534.55C368.216 534.424 368.291 534.234 368.279 534.045C367.989 529.982 367.181 520.922 366.248 510.437C364.116 486.45 361.202 453.605 361.265 446.11C361.303 441.467 360.912 432.129 360.446 421.316C359.79 405.871 358.995 387.134 359.474 379.5C377.688 429.581 411.859 504.229 425.872 534.373C425.986 534.6 426.225 534.739 426.465 534.739C429.442 534.588 435.219 534.638 441.324 534.689C444.49 534.714 447.769 534.739 450.771 534.739C450.973 534.739 451.162 534.638 451.289 534.474C451.402 534.31 451.44 534.096 451.364 533.906C442.282 508.847 428.269 466.375 415.895 428.912C401.528 385.367 389.116 347.753 385.584 340.485C385.446 340.194 385.105 340.056 384.79 340.169C366.286 347.349 338.75 345.292 326.49 338.668C326.301 338.567 326.074 338.567 325.884 338.668C325.695 338.769 325.582 338.971 325.569 339.185C325.064 352.358 325.506 361.279 325.935 369.91C326.086 372.825 326.212 375.588 326.313 378.452C327.928 426.199 334.235 487.346 342.358 534.222C342.408 534.512 342.66 534.727 342.951 534.739C343.014 534.739 348.942 534.966 354.921 535.08C357.317 535.13 359.273 535.143 360.862 535.143L360.887 535.13ZM366.992 533.654C364.57 534.083 351.805 533.793 343.531 533.477C335.458 486.715 329.202 425.909 327.587 378.377C327.486 375.5 327.348 372.736 327.209 369.809C326.793 361.431 326.364 352.762 326.805 340.182C339.583 346.516 366.349 348.384 384.714 341.494C388.523 349.898 401.263 388.471 414.722 429.252C426.957 466.312 440.794 508.267 449.888 533.44C447.139 533.44 444.2 533.414 441.336 533.389C435.484 533.339 429.934 533.288 426.818 533.427C412.464 502.551 377.6 426.338 359.727 376.534C359.638 376.269 359.373 376.105 359.096 376.118C358.818 376.131 358.579 376.333 358.528 376.61C357.494 381.443 358.39 402.628 359.184 421.328C359.638 432.129 360.042 441.442 359.992 446.06C359.928 453.618 362.842 486.5 364.974 510.513C365.869 520.607 366.651 529.364 366.967 533.629L366.992 533.654Z" fill="black"/>
    <g opacity="0.13">
    <path d="M280.425 202.115C280.904 201.977 281.384 202.115 281.825 202.343C282.115 202.456 282.065 202.481 283.049 202.709C284.663 203.062 286.303 203.365 287.943 203.604C289.255 203.768 290.579 203.945 291.903 203.97C292.698 204.059 293.568 203.781 294.325 204.071C295.826 204.639 295.347 206.948 293.745 206.936C290.655 207.087 287.59 206.582 284.588 205.939C282.683 205.51 281.56 205.22 280.425 205.106C278.924 204.702 278.924 202.532 280.425 202.115Z" fill="black"/>
    </g>
    <g opacity="0.13">
    <path d="M392.522 348.914C393.329 348.75 393.871 349.519 394.426 349.973C396.192 351.689 397.807 353.582 399.144 355.652C399.497 356.257 400.14 356.838 399.913 357.595C399.661 358.642 398.135 358.844 397.618 357.898C396.041 355.424 393.922 352.749 392.017 351.399C390.933 350.806 391.273 349.014 392.522 348.914Z" fill="black"/>
    </g>
    <g opacity="0.13">
    <path d="M326.111 340.005C326.906 338.806 327.991 339.425 329 339.93C329.315 340.068 329.971 340.359 329.34 340.081C330.4 340.56 331.737 341.04 333.591 341.696C335.307 342.276 337.022 342.832 338.788 343.223C340.541 343.627 342.307 343.967 344.086 344.207C343.947 344.194 343.808 344.169 343.682 344.157C347.151 344.661 350.594 345.015 354.984 345.04C358.793 345.09 362.602 345.317 366.399 344.951C372.517 344.434 377.613 344.144 382.33 341.482C382.973 341.204 383.617 340.535 384.285 340.434C385.698 340.182 386.417 342.213 385.143 342.92C380.943 345.797 375.885 347.084 370.852 347.45C367.093 347.841 363.321 348.169 359.55 348.056C356.27 347.904 352.978 348.207 349.699 348.005C345.007 347.664 340.327 346.794 335.836 345.418C333.503 344.636 331.195 343.778 328.886 342.92C328.13 342.617 327.385 342.289 326.641 341.961C325.973 341.582 325.733 340.661 326.124 340.005H326.111Z" fill="black"/>
    </g>
    <g opacity="0.13">
    <path d="M434.273 533.275C434.273 533.275 434.323 533.275 434.348 533.288C436.531 533.301 438.7 533.465 440.882 533.503C441.854 533.604 442.901 533.149 443.821 533.515C445.524 534.171 444.982 536.796 443.165 536.771C440.693 537.023 438.17 537.137 435.698 536.935C435.206 536.897 434.727 536.809 434.235 536.796C433.768 536.783 433.302 536.783 432.898 536.531C431.119 535.471 432.28 532.733 434.273 533.263V533.275Z" fill="black"/>
    </g>
    <g opacity="0.13">
    <path d="M352.398 534.449C354.454 534.323 356.523 534.335 358.591 534.335C359.247 534.335 359.903 534.31 360.559 534.285C360.912 534.285 361.291 534.209 361.619 534.398C363.107 534.966 362.628 537.263 361.051 537.237C358.768 537.427 356.472 537.477 354.189 537.528C353.407 537.49 352.549 537.755 351.805 537.465C350.229 536.859 350.733 534.436 352.411 534.449H352.398Z" fill="black"/>
    </g>
    <path d="M363.788 260.108C363.788 260.108 363.889 260.095 363.927 260.057C364.015 259.982 364.015 259.843 363.94 259.767C363.12 258.859 362.35 257.875 361.644 256.865C361.581 256.777 361.455 256.752 361.354 256.815C361.265 256.878 361.24 257.016 361.303 257.105C362.022 258.127 362.804 259.111 363.624 260.045C363.662 260.095 363.725 260.108 363.776 260.108H363.788Z" fill="black"/>
    <path d="M362.666 261.471C362.666 261.471 362.779 261.445 362.817 261.408C362.893 261.319 362.893 261.193 362.804 261.117C361.707 260.133 360.799 258.985 360.105 257.698C360.055 257.597 359.928 257.559 359.828 257.61C359.727 257.66 359.689 257.786 359.739 257.887C360.458 259.225 361.404 260.411 362.527 261.42C362.565 261.458 362.615 261.471 362.666 261.471Z" fill="black"/>
    <path d="M360.862 262.228C360.862 262.228 360.975 262.203 361.013 262.165C361.089 262.076 361.089 261.95 361.001 261.874C360.382 261.307 359.84 260.663 359.386 259.957C359.323 259.856 359.197 259.83 359.096 259.893C358.995 259.957 358.97 260.083 359.033 260.184C359.512 260.915 360.08 261.597 360.723 262.19C360.761 262.228 360.811 262.24 360.862 262.24V262.228Z" fill="black"/>
    <path d="M362.01 268.877C362.01 268.877 362.098 268.865 362.136 268.84C362.224 268.764 362.249 268.638 362.174 268.549C361.682 267.906 361.177 267.262 360.647 266.644C360.572 266.556 360.446 266.543 360.357 266.619C360.269 266.695 360.256 266.821 360.332 266.909C360.849 267.515 361.354 268.146 361.833 268.789C361.871 268.84 361.934 268.877 361.997 268.877H362.01Z" fill="black"/>
    <path d="M362.136 272.31C362.136 272.31 362.224 272.297 362.262 272.272C362.35 272.209 362.375 272.07 362.3 271.981L360.446 269.496C360.382 269.407 360.244 269.382 360.155 269.458C360.067 269.521 360.042 269.66 360.118 269.748L361.972 272.234C361.972 272.234 362.073 272.322 362.136 272.322V272.31Z" fill="black"/>
    <path d="M362.325 276.234C362.325 276.234 362.401 276.234 362.426 276.208C362.527 276.158 362.565 276.019 362.502 275.931C361.682 274.48 360.799 273.041 359.853 271.653C359.79 271.552 359.663 271.54 359.563 271.603C359.462 271.666 359.449 271.792 359.512 271.893C360.446 273.268 361.329 274.694 362.136 276.133C362.174 276.196 362.249 276.234 362.312 276.234H362.325Z" fill="black"/>
    <path d="M362.981 281.382C362.981 281.382 363.044 281.382 363.082 281.357C363.183 281.306 363.221 281.18 363.17 281.079C361.972 278.846 360.685 276.625 359.348 274.467C359.285 274.366 359.159 274.341 359.058 274.404C358.957 274.467 358.932 274.593 358.995 274.694C360.319 276.852 361.593 279.073 362.804 281.294C362.842 281.369 362.918 281.407 362.993 281.407L362.981 281.382Z" fill="black"/>
    <path d="M363.422 286.454C363.422 286.454 363.485 286.454 363.511 286.429C363.612 286.379 363.649 286.252 363.599 286.152C362.111 283.224 360.446 280.322 358.68 277.546C358.617 277.445 358.49 277.42 358.39 277.483C358.289 277.546 358.263 277.672 358.326 277.773C360.092 280.536 361.732 283.413 363.221 286.341C363.258 286.416 363.334 286.454 363.41 286.454H363.422Z" fill="black"/>
    <path d="M364.103 291.514C364.103 291.514 364.179 291.514 364.204 291.489C364.305 291.426 364.331 291.3 364.28 291.199L358.226 281.079C358.162 280.978 358.036 280.953 357.935 281.003C357.835 281.066 357.809 281.193 357.86 281.294L363.914 291.413C363.952 291.476 364.028 291.514 364.091 291.514H364.103Z" fill="black"/>
    <path d="M364.419 296.082C364.419 296.082 364.494 296.082 364.532 296.044C364.633 295.981 364.646 295.855 364.583 295.754C362.098 292.12 359.714 288.36 357.481 284.562C357.418 284.461 357.292 284.435 357.191 284.486C357.09 284.549 357.065 284.675 357.116 284.776C359.348 288.574 361.745 292.347 364.23 295.994C364.267 296.057 364.331 296.082 364.406 296.082H364.419Z" fill="black"/>
    <path d="M364.52 300.549C364.52 300.549 364.608 300.549 364.633 300.511C364.722 300.448 364.747 300.322 364.684 300.221C361.883 296.17 359.172 291.981 356.624 287.767C356.561 287.666 356.434 287.64 356.334 287.691C356.233 287.754 356.207 287.88 356.258 287.981C358.806 292.208 361.518 296.41 364.331 300.46C364.368 300.523 364.431 300.549 364.507 300.549H364.52Z" fill="black"/>
    <path d="M364.52 304.927C364.52 304.927 364.608 304.914 364.646 304.889C364.734 304.826 364.759 304.687 364.684 304.599C361.606 300.46 358.755 296.082 356.233 291.59C356.182 291.489 356.043 291.451 355.942 291.514C355.842 291.565 355.804 291.703 355.867 291.792C358.402 296.309 361.265 300.7 364.356 304.851C364.394 304.902 364.457 304.94 364.52 304.94V304.927Z" fill="black"/>
    <path d="M363.183 308.22C363.183 308.22 363.258 308.22 363.296 308.183C363.397 308.119 363.41 307.993 363.347 307.892L355.375 296.284C355.312 296.195 355.186 296.17 355.085 296.233C354.984 296.296 354.971 296.423 355.034 296.524L363.006 308.132C363.006 308.132 363.107 308.22 363.183 308.22Z" fill="black"/>
    <path d="M361.858 311.501C361.858 311.501 361.934 311.501 361.972 311.463C362.073 311.4 362.098 311.274 362.035 311.173C359.676 307.426 357.166 303.716 354.568 300.145C354.505 300.057 354.366 300.031 354.278 300.094C354.189 300.158 354.164 300.296 354.227 300.385C356.825 303.956 359.336 307.653 361.682 311.388C361.72 311.451 361.795 311.489 361.858 311.489V311.501Z" fill="black"/>
    <path d="M360.622 313.974C360.622 313.974 360.71 313.962 360.748 313.936C360.837 313.873 360.862 313.735 360.786 313.646C358.478 310.555 356.182 307.375 353.962 304.208C353.899 304.107 353.76 304.094 353.672 304.157C353.584 304.221 353.559 304.359 353.622 304.448C355.829 307.615 358.137 310.795 360.446 313.899C360.483 313.949 360.546 313.987 360.61 313.987L360.622 313.974Z" fill="black"/>
    <path d="M359.5 317.116C359.5 317.116 359.575 317.116 359.613 317.078C359.714 317.015 359.739 316.889 359.676 316.788L356.031 311.173C355.968 311.072 355.842 311.047 355.741 311.11C355.64 311.173 355.615 311.299 355.678 311.4L359.323 317.015C359.323 317.015 359.424 317.116 359.5 317.116Z" fill="black"/>
    <path d="M153.86 367.197C153.86 367.311 153.898 367.424 153.974 367.525C154.151 367.765 154.491 367.815 154.731 367.626C156.408 366.364 158.061 365.027 159.663 363.664C159.89 363.475 159.915 363.121 159.726 362.894C159.537 362.667 159.196 362.642 158.969 362.831C157.392 364.181 155.74 365.506 154.087 366.755C153.949 366.856 153.873 367.02 153.873 367.184L153.86 367.197Z" fill="black"/>
    <path d="M144.955 367.55C144.955 367.664 144.993 367.777 145.056 367.878C145.233 368.118 145.573 368.169 145.813 367.992L152.271 363.172C152.511 362.995 152.561 362.655 152.385 362.415C152.208 362.175 151.867 362.125 151.628 362.301L145.17 367.121C145.031 367.222 144.955 367.386 144.955 367.563V367.55Z" fill="black"/>
    <path d="M134.789 368.017C134.789 368.106 134.814 368.194 134.864 368.282C135.016 368.547 135.344 368.636 135.596 368.484C139.367 366.352 143.101 364.03 146.683 361.595C146.936 361.431 146.999 361.09 146.822 360.838C146.658 360.585 146.318 360.522 146.065 360.699C142.508 363.121 138.8 365.431 135.054 367.538C134.877 367.639 134.776 367.815 134.776 368.017H134.789Z" fill="black"/>
    <path d="M121.406 369.733C121.406 369.822 121.431 369.91 121.469 369.986C121.607 370.251 121.935 370.352 122.2 370.2C127.977 367.058 133.754 363.715 139.367 360.257C139.62 360.106 139.708 359.765 139.544 359.513C139.393 359.26 139.052 359.172 138.8 359.336C133.212 362.781 127.448 366.125 121.683 369.241C121.507 369.342 121.393 369.531 121.393 369.721L121.406 369.733Z" fill="black"/>
    <path d="M108.262 370.894C108.262 370.982 108.288 371.058 108.325 371.147C108.464 371.411 108.792 371.525 109.057 371.386C116.676 367.5 124.181 363.185 131.37 358.579C131.623 358.415 131.698 358.087 131.534 357.834C131.37 357.582 131.042 357.506 130.79 357.67C123.626 362.263 116.146 366.554 108.565 370.427C108.376 370.528 108.275 370.718 108.275 370.907L108.262 370.894Z" fill="black"/>
    <path d="M95.1316 372.661C95.1316 372.762 95.1568 372.85 95.2073 372.938C95.3587 373.191 95.6866 373.279 95.9515 373.128L122.226 357.355C122.478 357.204 122.566 356.863 122.415 356.611C122.263 356.358 121.935 356.27 121.671 356.421L95.3965 372.194C95.2325 372.295 95.1316 372.471 95.1316 372.661Z" fill="black"/>
    <path d="M83.2748 373.481C83.2748 373.582 83.3 373.695 83.3757 373.784C83.5397 374.036 83.8803 374.099 84.1326 373.922C93.5549 367.449 103.318 361.229 113.169 355.424C113.434 355.273 113.51 354.945 113.358 354.68C113.207 354.428 112.879 354.339 112.614 354.491C102.738 360.308 92.9495 366.541 83.5145 373.027C83.3631 373.128 83.2748 373.304 83.2748 373.481Z" fill="black"/>
    <path d="M71.6577 373.758C71.6577 373.859 71.683 373.973 71.7586 374.061C71.9226 374.314 72.2632 374.364 72.5155 374.2C83.0226 366.907 93.9081 359.841 104.844 353.216C105.096 353.065 105.185 352.724 105.033 352.472C104.882 352.219 104.541 352.131 104.289 352.283C93.3279 358.92 82.4297 365.986 71.8974 373.304C71.746 373.405 71.6577 373.582 71.6577 373.746V373.758Z" fill="black"/>
    <path d="M60.3307 373.758C60.3307 373.872 60.3685 373.986 60.4316 374.086C60.6082 374.326 60.9488 374.377 61.1884 374.2C71.9226 366.175 83.2874 358.768 94.9676 352.169C95.2325 352.018 95.3208 351.69 95.1694 351.425C95.018 351.16 94.6901 351.071 94.4378 351.223C82.7198 357.847 71.3297 365.279 60.5451 373.329C60.4064 373.43 60.3307 373.594 60.3307 373.771V373.758Z" fill="black"/>
    <path d="M51.7661 370.276C51.7661 370.377 51.7913 370.49 51.867 370.579C52.031 370.831 52.3715 370.894 52.6238 370.717L82.7576 349.961C82.9973 349.797 83.0604 349.456 82.8964 349.204C82.7324 348.951 82.3919 348.888 82.1396 349.065L52.0057 369.822C51.8544 369.923 51.7661 370.099 51.7661 370.263V370.276Z" fill="black"/>
    <path d="M43.2646 366.819C43.2646 366.919 43.2898 367.02 43.3529 367.109C43.5169 367.361 43.8448 367.437 44.0971 367.285C53.8095 361.153 63.4463 354.604 72.7173 347.828C72.9569 347.652 73.0074 347.311 72.8308 347.071C72.6542 346.832 72.3136 346.781 72.074 346.958C62.8156 353.721 53.2041 360.257 43.5042 366.377C43.3403 366.478 43.2519 366.654 43.2519 366.831L43.2646 366.819Z" fill="black"/>
    <path d="M36.8443 363.588C36.8443 363.702 36.8821 363.815 36.9578 363.916C37.1344 364.156 37.475 364.207 37.7146 364.03C45.7495 357.998 53.9861 352.03 62.1976 346.276C62.4498 346.1 62.5003 345.772 62.3363 345.519C62.1597 345.267 61.8318 345.216 61.5795 345.38C53.3555 351.147 45.1061 357.128 37.0713 363.159C36.9326 363.26 36.8569 363.424 36.8569 363.588H36.8443Z" fill="black"/>
    <path d="M28.6959 360.661C28.6959 360.762 28.7212 360.863 28.7842 360.951C28.9482 361.204 29.2761 361.279 29.5284 361.115L44.0971 351.614C44.3494 351.45 44.425 351.109 44.261 350.857C44.0971 350.604 43.7691 350.529 43.5168 350.693L28.9481 360.194C28.7842 360.295 28.6959 360.472 28.6959 360.648V360.661Z" fill="black"/>
    <path d="M541.274 367.197C541.274 367.311 541.236 367.424 541.16 367.525C540.984 367.765 540.643 367.815 540.403 367.626C538.726 366.364 537.073 365.027 535.472 363.664C535.245 363.475 535.219 363.121 535.408 362.894C535.598 362.667 535.938 362.642 536.165 362.831C537.742 364.181 539.394 365.506 541.047 366.755C541.186 366.856 541.261 367.02 541.261 367.184L541.274 367.197Z" fill="black"/>
    <path d="M550.179 367.55C550.179 367.664 550.141 367.777 550.078 367.878C549.902 368.118 549.561 368.169 549.321 367.992L542.863 363.172C542.623 362.995 542.573 362.655 542.75 362.415C542.926 362.175 543.267 362.125 543.506 362.301L549.965 367.121C550.103 367.222 550.179 367.386 550.179 367.563V367.55Z" fill="black"/>
    <path d="M560.346 368.017C560.346 368.106 560.32 368.194 560.27 368.282C560.118 368.547 559.791 368.636 559.538 368.484C555.767 366.352 552.033 364.03 548.451 361.595C548.199 361.431 548.136 361.09 548.312 360.838C548.476 360.585 548.817 360.522 549.069 360.699C552.626 363.121 556.334 365.431 560.081 367.538C560.257 367.639 560.358 367.815 560.358 368.017H560.346Z" fill="black"/>
    <path d="M573.729 369.733C573.729 369.822 573.703 369.91 573.666 369.986C573.527 370.251 573.199 370.352 572.934 370.2C567.157 367.058 561.38 363.715 555.767 360.257C555.515 360.106 555.426 359.765 555.59 359.513C555.742 359.26 556.082 359.172 556.334 359.336C561.922 362.781 567.687 366.125 573.451 369.241C573.628 369.342 573.741 369.531 573.741 369.721L573.729 369.733Z" fill="black"/>
    <path d="M586.872 370.894C586.872 370.982 586.847 371.058 586.809 371.147C586.67 371.411 586.342 371.525 586.077 371.386C578.459 367.5 570.954 363.185 563.764 358.579C563.512 358.415 563.436 358.087 563.6 357.834C563.764 357.582 564.092 357.506 564.344 357.67C571.509 362.263 578.988 366.554 586.569 370.427C586.758 370.528 586.859 370.718 586.859 370.907L586.872 370.894Z" fill="black"/>
    <path d="M600.003 372.661C600.003 372.762 599.977 372.85 599.927 372.938C599.776 373.191 599.448 373.279 599.183 373.128L572.909 357.355C572.656 357.204 572.568 356.863 572.72 356.611C572.871 356.358 573.199 356.27 573.464 356.421L599.738 372.194C599.902 372.295 600.003 372.471 600.003 372.661Z" fill="black"/>
    <path d="M611.859 373.481C611.859 373.582 611.834 373.695 611.759 373.784C611.595 374.036 611.254 374.099 611.002 373.922C601.579 367.449 591.816 361.229 581.965 355.424C581.7 355.273 581.625 354.945 581.776 354.68C581.927 354.428 582.255 354.339 582.52 354.491C592.397 360.308 602.185 366.541 611.62 373.027C611.771 373.128 611.859 373.304 611.859 373.481Z" fill="black"/>
    <path d="M623.477 373.758C623.477 373.859 623.451 373.973 623.376 374.061C623.212 374.314 622.871 374.364 622.619 374.2C612.112 366.907 601.226 359.841 590.29 353.216C590.038 353.065 589.95 352.724 590.101 352.472C590.252 352.219 590.593 352.131 590.845 352.283C601.806 358.92 612.705 365.986 623.237 373.304C623.388 373.405 623.477 373.582 623.477 373.746V373.758Z" fill="black"/>
    <path d="M634.816 373.758C634.816 373.872 634.778 373.986 634.715 374.086C634.539 374.326 634.198 374.377 633.958 374.2C623.224 366.175 611.859 358.768 600.179 352.169C599.914 352.018 599.826 351.69 599.977 351.425C600.129 351.16 600.457 351.071 600.709 351.223C612.427 357.847 623.817 365.279 634.602 373.329C634.74 373.43 634.816 373.594 634.816 373.771V373.758Z" fill="black"/>
    <path d="M643.381 370.276C643.381 370.377 643.356 370.49 643.28 370.579C643.116 370.831 642.775 370.894 642.523 370.717L612.389 349.961C612.15 349.797 612.086 349.456 612.25 349.204C612.414 348.951 612.755 348.888 613.007 349.065L643.141 369.822C643.292 369.923 643.381 370.099 643.381 370.263V370.276Z" fill="black"/>
    <path d="M651.87 366.819C651.87 366.919 651.844 367.02 651.781 367.109C651.617 367.361 651.289 367.437 651.037 367.285C641.325 361.153 631.688 354.604 622.417 347.828C622.177 347.652 622.127 347.311 622.303 347.071C622.48 346.832 622.821 346.781 623.06 346.958C632.319 353.721 641.93 360.257 651.63 366.377C651.794 366.478 651.882 366.654 651.882 366.831L651.87 366.819Z" fill="black"/>
    <path d="M658.29 363.588C658.29 363.702 658.252 363.815 658.176 363.916C658 364.156 657.659 364.207 657.42 364.03C649.385 357.998 641.148 352.03 632.937 346.276C632.684 346.1 632.634 345.772 632.798 345.519C632.975 345.267 633.302 345.216 633.555 345.38C641.779 351.147 650.028 357.128 658.063 363.159C658.202 363.26 658.277 363.424 658.277 363.588H658.29Z" fill="black"/>
    <path d="M666.438 360.661C666.438 360.762 666.413 360.863 666.35 360.951C666.186 361.204 665.858 361.279 665.606 361.115L651.037 351.614C650.785 351.45 650.709 351.109 650.873 350.857C651.037 350.604 651.365 350.529 651.617 350.693L666.186 360.194C666.35 360.295 666.438 360.472 666.438 360.648V360.661Z" fill="black"/>
    </g>
    <defs>
    <clipPath id="clip0_12_562">
    <rect width="683" height="580" fill="white" transform="matrix(-1 0 0 1 683 0)"/>
    </clipPath>
    </defs>
    </svg>
    