<svg xmlns="http://www.w3.org/2000/svg" xmlns:xlink="http://www.w3.org/1999/xlink" version="1.1" id="Logo_Pantone" x="0px" y="0px" viewBox="0 0 113.39 38.62" style="enable-background:new 0 0 113.39 38.62;" xml:space="preserve">
    <style type="text/css">
        .st0{fill:#179F96;}
        .st1{fill:none;}
        .st2{fill:#FFFFFF;}
    </style>
    <g>
        <polygon class="st0" points="63.63,5.65 61.39,0 58.07,0 60.31,5.65  "/>
        <rect y="5.65" class="st0" width="113.39" height="32.97"/>
    </g>
    <g>
        <g>
            <g>
                <g>
                    <g>
                        <polygon class="st1" points="94.22,26 101.41,26 97.91,18.22      "/>
                        <path class="st2" d="M20.67,26.09c-0.73-2.67-3.11-4.34-5.74-5.37l-1.6-0.62c-1.39-0.53-2.88-1.23-2.88-2.97       c0-1.95,1.75-2.84,3.31-2.84c1.5,0,2.94,1.19,3.81,2.44l2.75-1.5c-1.21-2.16-3.89-3.69-6.38-3.69c-3.37,0-6.75,1.99-6.75,5.59       c0,3.41,2.39,4.75,4.94,5.85l1.54,0.65c1.43,0.59,2.89,1.21,3.54,2.47c0.23,0.43,0.35,0.94,0.35,1.55c0,2.33-1.54,4-3.94,4       c-2.4,0-4.31-1.85-5.06-4.12L5.5,28.09c1.06,3.94,4.11,6.5,7.72,6.5c3.99,0,7.66-2.76,7.66-6.75       C20.9,27.21,20.82,26.63,20.67,26.09L20.67,26.09z"/>
                        <polygon class="st2" points="55.41,26.09 51.97,34.15 55.34,34.15 58.78,26.09 64.78,11.97 61.44,11.96      "/>
                        <polygon class="st2" points="50.15,11.96 44.65,26.09 44.09,27.52 43.56,26.09 38.22,11.47 37.9,11.47 32.67,26.09        32.15,27.52 31.58,26.09 25.98,11.96 22.51,11.96 28.33,26.09 31.84,34.58 32.59,34.58 35.66,26.09 38.15,19.16 40.6,26.09        43.59,34.58 44.4,34.58 47.76,26.09 53.34,11.97      "/>
                        <path class="st2" d="M105,26.09l-6.69-14.87h-0.39l-7.03,14.87l-3.78,7.99l3.33,0.03l2.54-5.34l9.77-0.03l2.54,5.34h3.31       L105,26.09z M94.22,26l3.69-7.78l3.5,7.78H94.22z"/>
                        <path class="st2" d="M77.97,14.6c2.1,0,3.94,1.06,5.56,2.31v-3.75c-1.69-1.03-3.36-1.56-5.31-1.56       c-6.57,0-11.78,4.81-11.78,11.69c0,0.98,0.12,1.91,0.34,2.8l0,0c1.26,4.97,5.85,8.43,11.25,8.43c1.95,0,3.6-0.49,5.31-1.5v-3.5       c-1.44,1.19-3.5,1.94-5.38,1.94c-3.74,0-6.78-2.1-7.91-5.36v-0.01c-0.31-0.88-0.47-1.85-0.47-2.89       C69.6,18.26,72.97,14.6,77.97,14.6z"/>
                    </g>
                </g>
            </g>
        </g>
        <polygon class="st2" points="64.83,8.64 61.51,8.64 60.31,5.65 63.63,5.65  "/>
    </g>
    </svg>