<svg xmlns="http://www.w3.org/2000/svg" width="1181" height="477" viewBox="0 0 1181 477" fill="none">
    <g clipPath="url(#clip0_358_14343)">
    <path d="M1181 0H0V477H1181V0Z" fill="white"/>
    <path d="M1180 477H-1V0H1180V477Z" fill="#891350"/>
    <path d="M36 37V440H1143V37H36ZM-1 0H1180V477H-1V0Z" fill="#9185BE"/>
    <path d="M116.5 234H127.55L130.8 217.8C131.35 214.95 131.8 211.95 132.3 209.15H132.5C132.85 211.95 133.35 214.95 133.95 217.8L137.3 234H148.55L155 196.75H146.55L144.1 213.75C143.65 217.6 143.15 221.55 142.7 225.55H142.45C141.7 221.55 141.05 217.55 140.3 213.75L136.45 196.75H128.9L125.1 213.75C124.35 217.6 123.6 221.55 122.9 225.55H122.7C122.2 221.55 121.7 217.65 121.2 213.75L118.85 196.75H109.75L116.5 234ZM159.329 234H168.229V205.55H159.329V234ZM163.779 201.6C166.729 201.6 168.729 199.8 168.729 197C168.729 194.25 166.729 192.45 163.779 192.45C160.779 192.45 158.829 194.25 158.829 197C158.829 199.8 160.779 201.6 163.779 201.6ZM175.393 234H184.293V217.75C185.743 214 188.293 212.65 190.393 212.65C191.643 212.65 192.493 212.85 193.543 213.1L194.993 205.45C194.193 205.1 193.243 204.85 191.543 204.85C188.693 204.85 185.543 206.7 183.443 210.5H183.293L182.643 205.55H175.393V234ZM225.212 234.7C231.312 234.7 237.162 229.1 237.162 219.25C237.162 210.55 232.812 204.85 226.012 204.85C223.412 204.85 220.762 206 218.662 207.9L218.912 203.65V194.05H210.012V234H216.962L217.662 230.95H217.912C220.112 233.4 222.712 234.7 225.212 234.7ZM223.112 227.4C221.762 227.4 220.262 227 218.912 225.75V214.5C220.412 212.85 221.762 212.1 223.412 212.1C226.562 212.1 228.012 214.45 228.012 219.45C228.012 225.15 225.812 227.4 223.112 227.4ZM242.922 234H251.822V205.55H242.922V234ZM247.372 201.6C250.322 201.6 252.322 199.8 252.322 197C252.322 194.25 250.322 192.45 247.372 192.45C244.372 192.45 242.422 194.25 242.422 197C242.422 199.8 244.372 201.6 247.372 201.6ZM271.887 234.7C275.187 234.7 279.087 233.55 282.037 231.45L279.087 226.1C277.037 227.3 275.137 227.9 273.087 227.9C269.487 227.9 266.787 226.3 265.987 222.4H282.687C282.887 221.7 283.087 220.15 283.087 218.55C283.087 210.8 279.087 204.85 270.887 204.85C264.037 204.85 257.387 210.55 257.387 219.75C257.387 229.2 263.687 234.7 271.887 234.7ZM265.837 216.55C266.437 213.2 268.587 211.65 271.037 211.65C274.287 211.65 275.537 213.75 275.537 216.55H265.837ZM299.044 234.7C301.944 234.7 303.994 234.1 305.494 233.65L304.094 227.2C303.394 227.45 302.394 227.75 301.494 227.75C299.394 227.75 297.894 226.5 297.894 223.35V212.5H304.594V205.55H297.894V198H290.544L289.544 205.55L285.144 205.9V212.5H288.994V223.45C288.994 230.15 291.894 234.7 299.044 234.7ZM321.594 234.7C324.894 234.7 328.794 233.55 331.744 231.45L328.794 226.1C326.744 227.3 324.844 227.9 322.794 227.9C319.194 227.9 316.494 226.3 315.694 222.4H332.394C332.594 221.7 332.794 220.15 332.794 218.55C332.794 210.8 328.794 204.85 320.594 204.85C313.744 204.85 307.094 210.55 307.094 219.75C307.094 229.2 313.394 234.7 321.594 234.7ZM315.544 216.55C316.144 213.2 318.294 211.65 320.744 211.65C323.994 211.65 325.244 213.75 325.244 216.55H315.544ZM338.479 234H347.379V215C349.079 213.35 350.279 212.45 352.279 212.45C354.529 212.45 355.579 213.55 355.579 217.5V234H364.479V216.4C364.479 209.3 361.829 204.85 355.629 204.85C351.779 204.85 348.879 206.8 346.529 209.1H346.379L345.729 205.55H338.479V234ZM395.715 234.7C399.015 234.7 402.915 233.55 405.865 231.45L402.915 226.1C400.865 227.3 398.965 227.9 396.915 227.9C393.315 227.9 390.615 226.3 389.815 222.4H406.515C406.715 221.7 406.915 220.15 406.915 218.55C406.915 210.8 402.915 204.85 394.715 204.85C387.865 204.85 381.215 210.55 381.215 219.75C381.215 229.2 387.515 234.7 395.715 234.7ZM389.665 216.55C390.265 213.2 392.415 211.65 394.865 211.65C398.115 211.65 399.365 213.75 399.365 216.55H389.665ZM412.6 234H421.5V205.55H412.6V234ZM417.05 201.6C420 201.6 422 199.8 422 197C422 194.25 420 192.45 417.05 192.45C414.05 192.45 412.1 194.25 412.1 197C412.1 199.8 414.05 201.6 417.05 201.6ZM428.664 234H437.564V215C439.264 213.35 440.464 212.45 442.464 212.45C444.714 212.45 445.764 213.55 445.764 217.5V234H454.664V216.4C454.664 209.3 452.014 204.85 445.814 204.85C441.964 204.85 439.064 206.8 436.714 209.1H436.564L435.914 205.55H428.664V234ZM474.475 234.7C477.775 234.7 481.675 233.55 484.625 231.45L481.675 226.1C479.625 227.3 477.725 227.9 475.675 227.9C472.075 227.9 469.375 226.3 468.575 222.4H485.275C485.475 221.7 485.675 220.15 485.675 218.55C485.675 210.8 481.675 204.85 473.475 204.85C466.625 204.85 459.975 210.55 459.975 219.75C459.975 229.2 466.275 234.7 474.475 234.7ZM468.425 216.55C469.025 213.2 471.175 211.65 473.625 211.65C476.875 211.65 478.125 213.75 478.125 216.55H468.425ZM509.886 234H520.636L531.786 196.75H522.686L518.486 213.75C517.436 217.75 516.686 221.55 515.586 225.65H515.336C514.286 221.55 513.536 217.75 512.436 213.75L508.186 196.75H498.736L509.886 234ZM546.398 234.7C549.698 234.7 553.598 233.55 556.548 231.45L553.598 226.1C551.548 227.3 549.648 227.9 547.598 227.9C543.998 227.9 541.298 226.3 540.498 222.4H557.198C557.398 221.7 557.598 220.15 557.598 218.55C557.598 210.8 553.598 204.85 545.398 204.85C538.548 204.85 531.898 210.55 531.898 219.75C531.898 229.2 538.198 234.7 546.398 234.7ZM540.348 216.55C540.948 213.2 543.098 211.65 545.548 211.65C548.798 211.65 550.048 213.75 550.048 216.55H540.348ZM563.284 234H572.184V217.75C573.634 214 576.184 212.65 578.284 212.65C579.534 212.65 580.384 212.85 581.434 213.1L582.884 205.45C582.084 205.1 581.134 204.85 579.434 204.85C576.584 204.85 573.434 206.7 571.334 210.5H571.184L570.534 205.55H563.284V234ZM594.098 234.7C601.848 234.7 605.948 230.65 605.948 225.4C605.948 220.25 601.998 218.2 598.448 216.85C595.498 215.8 593.048 215.15 593.048 213.45C593.048 212.1 593.998 211.4 596.048 211.4C597.898 211.4 599.898 212.35 601.948 213.8L605.898 208.5C603.498 206.65 600.198 204.85 595.748 204.85C589.098 204.85 584.748 208.5 584.748 213.85C584.748 218.6 588.598 220.9 591.998 222.25C594.898 223.4 597.648 224.2 597.648 225.9C597.648 227.3 596.648 228.15 594.298 228.15C592.048 228.15 589.698 227.1 587.098 225.15L583.148 230.7C586.048 233.1 590.398 234.7 594.098 234.7ZM611.086 234H619.986V205.55H611.086V234ZM615.536 201.6C618.486 201.6 620.486 199.8 620.486 197C620.486 194.25 618.486 192.45 615.536 192.45C612.536 192.45 610.586 194.25 610.586 197C610.586 199.8 612.536 201.6 615.536 201.6ZM639.701 234.7C642.701 234.7 646.301 233.8 649.101 231.35L645.651 225.5C644.201 226.65 642.501 227.5 640.701 227.5C637.251 227.5 634.651 224.5 634.651 219.75C634.651 215.05 637.101 212.05 641.051 212.05C642.251 212.05 643.351 212.5 644.651 213.55L648.801 207.9C646.651 206.05 643.951 204.85 640.501 204.85C632.551 204.85 625.551 210.35 625.551 219.75C625.551 229.2 631.701 234.7 639.701 234.7ZM654.006 234H662.906V215C664.606 213.35 665.806 212.45 667.806 212.45C670.056 212.45 671.106 213.55 671.106 217.5V234H680.006V216.4C680.006 209.3 677.356 204.85 671.156 204.85C667.306 204.85 664.506 206.8 662.456 208.7L662.906 203.65V194.05H654.006V234ZM699.816 234.7C703.116 234.7 707.016 233.55 709.966 231.45L707.016 226.1C704.966 227.3 703.066 227.9 701.016 227.9C697.416 227.9 694.716 226.3 693.916 222.4H710.616C710.816 221.7 711.016 220.15 711.016 218.55C711.016 210.8 707.016 204.85 698.816 204.85C691.966 204.85 685.316 210.55 685.316 219.75C685.316 229.2 691.616 234.7 699.816 234.7ZM693.766 216.55C694.366 213.2 696.516 211.65 698.966 211.65C702.216 211.65 703.466 213.75 703.466 216.55H693.766ZM716.702 234H725.602V217.75C727.052 214 729.602 212.65 731.702 212.65C732.952 212.65 733.802 212.85 734.852 213.1L736.302 205.45C735.502 205.1 734.552 204.85 732.852 204.85C730.002 204.85 726.852 206.7 724.752 210.5H724.602L723.952 205.55H716.702V234ZM748.495 234.7C752.345 234.7 754.995 232.9 757.345 230.1H757.545L758.195 234H765.445V205.55H756.545V224.2C755.045 226.3 753.795 227.1 751.795 227.1C749.545 227.1 748.495 225.95 748.495 222.05V205.55H739.595V223.15C739.595 230.25 742.245 234.7 748.495 234.7ZM772.61 234H781.51V215C783.21 213.35 784.41 212.45 786.41 212.45C788.66 212.45 789.71 213.55 789.71 217.5V234H798.61V216.4C798.61 209.3 795.96 204.85 789.76 204.85C785.91 204.85 783.01 206.8 780.66 209.1H780.51L779.86 205.55H772.61V234ZM815.72 245.95C825.62 245.95 831.87 241.7 831.87 235.7C831.87 230.55 827.87 228.4 820.87 228.4H816.37C813.32 228.4 812.17 227.8 812.17 226.5C812.17 225.5 812.47 225.1 813.07 224.5C814.32 224.85 815.47 225 816.42 225C822.72 225 827.77 222.1 827.77 215.45C827.77 214.1 827.42 212.8 827.02 212H831.37V205.55H820.92C819.62 205.1 818.07 204.85 816.42 204.85C810.27 204.85 804.52 208.25 804.52 215.15C804.52 218.5 806.37 221.15 808.42 222.55V222.75C806.52 224.05 805.22 226.05 805.22 228.05C805.22 230.45 806.32 231.95 807.82 232.95V233.2C805.17 234.55 803.82 236.45 803.82 238.8C803.82 243.9 809.17 245.95 815.72 245.95ZM816.42 219.65C814.37 219.65 812.82 218.15 812.82 215.15C812.82 212.3 814.37 210.8 816.42 210.8C818.52 210.8 820.07 212.3 820.07 215.15C820.07 218.15 818.52 219.65 816.42 219.65ZM817.12 240.4C813.52 240.4 811.12 239.4 811.12 237.4C811.12 236.45 811.52 235.65 812.42 234.85C813.32 235.1 814.42 235.2 816.47 235.2H819.17C821.82 235.2 823.32 235.55 823.32 237.25C823.32 239.05 820.77 240.4 817.12 240.4ZM837.18 245.35C844.13 243.25 847.83 238.4 847.83 231.95C847.83 226.75 845.68 223.65 841.78 223.65C838.68 223.65 836.23 225.65 836.23 228.65C836.23 231.85 838.78 233.65 841.53 233.65C842.73 233.65 843.83 233.3 844.68 232.55L841.88 227.65L841.98 233.5C842.03 236.4 839.73 239.1 835.38 240.6L837.18 245.35ZM875.486 234.7C878.186 234.7 880.936 233.25 882.936 231.25H883.136L883.786 234H891.036V194.05H882.136V203.55L882.436 207.8C880.586 206 878.736 204.85 875.586 204.85C869.686 204.85 863.836 210.45 863.836 219.75C863.836 229.05 868.386 234.7 875.486 234.7ZM877.836 227.4C874.786 227.4 872.986 225.1 872.986 219.65C872.986 214.4 875.236 212.1 877.686 212.1C879.186 212.1 880.786 212.55 882.136 213.8V225C880.886 226.85 879.536 227.4 877.836 227.4ZM898.196 234H907.096V205.55H898.196V234ZM902.646 201.6C905.596 201.6 907.596 199.8 907.596 197C907.596 194.25 905.596 192.45 902.646 192.45C899.646 192.45 897.696 194.25 897.696 197C897.696 199.8 899.646 201.6 902.646 201.6ZM927.16 234.7C930.46 234.7 934.36 233.55 937.31 231.45L934.36 226.1C932.31 227.3 930.41 227.9 928.36 227.9C924.76 227.9 922.06 226.3 921.26 222.4H937.96C938.16 221.7 938.36 220.15 938.36 218.55C938.36 210.8 934.36 204.85 926.16 204.85C919.31 204.85 912.66 210.55 912.66 219.75C912.66 229.2 918.96 234.7 927.16 234.7ZM921.11 216.55C921.71 213.2 923.86 211.65 926.31 211.65C929.56 211.65 930.81 213.75 930.81 216.55H921.11ZM117.4 296H127.55L129.85 285.15C130.35 282.5 130.75 279.9 131.2 276.8H131.45C131.95 279.9 132.4 282.5 132.95 285.15L135.35 296H145.75L152.45 267.55H144.2L141.75 280.25C141.25 283.1 140.95 285.9 140.5 288.8H140.25C139.65 285.9 139.15 283.1 138.5 280.25L135.45 267.55H127.8L124.85 280.25C124.15 283.05 123.7 285.9 123.2 288.8H122.95C122.5 285.9 122.2 283.1 121.75 280.25L119.2 267.55H110.4L117.4 296ZM157.473 296H166.373V267.55H157.473V296ZM161.923 263.6C164.873 263.6 166.873 261.8 166.873 259C166.873 256.25 164.873 254.45 161.923 254.45C158.923 254.45 156.973 256.25 156.973 259C156.973 261.8 158.923 263.6 161.923 263.6ZM186.438 296.7C189.738 296.7 193.638 295.55 196.588 293.45L193.638 288.1C191.588 289.3 189.688 289.9 187.638 289.9C184.038 289.9 181.338 288.3 180.538 284.4H197.238C197.438 283.7 197.638 282.15 197.638 280.55C197.638 272.8 193.638 266.85 185.438 266.85C178.588 266.85 171.938 272.55 171.938 281.75C171.938 291.2 178.238 296.7 186.438 296.7ZM180.388 278.55C180.988 275.2 183.137 273.65 185.588 273.65C188.838 273.65 190.088 275.75 190.088 278.55H180.388ZM215.448 296H224.398V258.75H215.448V296ZM232.229 296H241.129V277C242.829 275.35 244.029 274.45 246.029 274.45C248.279 274.45 249.329 275.55 249.329 279.5V296H258.229V278.4C258.229 271.3 255.579 266.85 249.379 266.85C245.529 266.85 242.729 268.8 240.679 270.7L241.129 265.65V256.05H232.229V296ZM265.139 296H274.039V279.75C275.489 276 278.039 274.65 280.139 274.65C281.389 274.65 282.239 274.85 283.289 275.1L284.739 267.45C283.939 267.1 282.989 266.85 281.289 266.85C278.439 266.85 275.289 268.7 273.189 272.5H273.039L272.389 267.55H265.139V296ZM300.305 296.7C303.605 296.7 307.505 295.55 310.455 293.45L307.505 288.1C305.455 289.3 303.555 289.9 301.505 289.9C297.905 289.9 295.205 288.3 294.405 284.4H311.105C311.305 283.7 311.505 282.15 311.505 280.55C311.505 272.8 307.505 266.85 299.305 266.85C292.455 266.85 285.805 272.55 285.805 281.75C285.805 291.2 292.105 296.7 300.305 296.7ZM294.255 278.55C294.855 275.2 297.005 273.65 299.455 273.65C302.705 273.65 303.955 275.75 303.955 278.55H294.255ZM329.316 296H352.766V288.5H338.266V258.75H329.316V296ZM358.498 296H367.398V267.55H358.498V296ZM362.948 263.6C365.898 263.6 367.898 261.8 367.898 259C367.898 256.25 365.898 254.45 362.948 254.45C359.948 254.45 357.998 256.25 357.998 259C357.998 261.8 359.948 263.6 362.948 263.6ZM387.463 296.7C390.763 296.7 394.663 295.55 397.613 293.45L394.663 288.1C392.613 289.3 390.713 289.9 388.663 289.9C385.063 289.9 382.363 288.3 381.563 284.4H398.263C398.463 283.7 398.663 282.15 398.663 280.55C398.663 272.8 394.663 266.85 386.463 266.85C379.613 266.85 372.963 272.55 372.963 281.75C372.963 291.2 379.263 296.7 387.463 296.7ZM381.413 278.55C382.013 275.2 384.163 273.65 386.613 273.65C389.863 273.65 391.113 275.75 391.113 278.55H381.413ZM419.548 296.7C425.648 296.7 431.498 291.1 431.498 281.25C431.498 272.55 427.148 266.85 420.348 266.85C417.748 266.85 415.098 268 412.998 269.9L413.248 265.65V256.05H404.348V296H411.298L411.998 292.95H412.248C414.448 295.4 417.048 296.7 419.548 296.7ZM417.448 289.4C416.098 289.4 414.598 289 413.248 287.75V276.5C414.748 274.85 416.098 274.1 417.748 274.1C420.898 274.1 422.348 276.45 422.348 281.45C422.348 287.15 420.148 289.4 417.448 289.4ZM445.358 296.7C447.358 296.7 448.808 296.35 449.758 295.95L448.708 289.4C448.208 289.5 448.008 289.5 447.708 289.5C447.008 289.5 446.158 288.95 446.158 287.05V256.05H437.258V286.75C437.258 292.7 439.258 296.7 445.358 296.7ZM453.86 296H462.76V267.55H453.86V296ZM458.31 263.6C461.26 263.6 463.26 261.8 463.26 259C463.26 256.25 461.26 254.45 458.31 254.45C455.31 254.45 453.36 256.25 453.36 259C453.36 261.8 455.31 263.6 458.31 263.6ZM469.924 296H478.824V277C480.524 275.35 481.724 274.45 483.724 274.45C485.974 274.45 487.024 275.55 487.024 279.5V296H495.924V278.4C495.924 271.3 493.274 266.85 487.074 266.85C483.224 266.85 480.324 268.8 477.974 271.1H477.824L477.174 267.55H469.924V296ZM513.034 307.95C522.934 307.95 529.184 303.7 529.184 297.7C529.184 292.55 525.184 290.4 518.184 290.4H513.684C510.634 290.4 509.484 289.8 509.484 288.5C509.484 287.5 509.784 287.1 510.384 286.5C511.634 286.85 512.784 287 513.734 287C520.034 287 525.084 284.1 525.084 277.45C525.084 276.1 524.734 274.8 524.334 274H528.684V267.55H518.234C516.934 267.1 515.384 266.85 513.734 266.85C507.584 266.85 501.834 270.25 501.834 277.15C501.834 280.5 503.684 283.15 505.734 284.55V284.75C503.834 286.05 502.534 288.05 502.534 290.05C502.534 292.45 503.634 293.95 505.134 294.95V295.2C502.484 296.55 501.134 298.45 501.134 300.8C501.134 305.9 506.484 307.95 513.034 307.95ZM513.734 281.65C511.684 281.65 510.134 280.15 510.134 277.15C510.134 274.3 511.684 272.8 513.734 272.8C515.834 272.8 517.384 274.3 517.384 277.15C517.384 280.15 515.834 281.65 513.734 281.65ZM514.434 302.4C510.834 302.4 508.434 301.4 508.434 299.4C508.434 298.45 508.834 297.65 509.734 296.85C510.634 297.1 511.734 297.2 513.784 297.2H516.484C519.134 297.2 520.634 297.55 520.634 299.25C520.634 301.05 518.084 302.4 514.434 302.4ZM542.145 296.7C549.895 296.7 553.995 292.65 553.995 287.4C553.995 282.25 550.045 280.2 546.495 278.85C543.545 277.8 541.095 277.15 541.095 275.45C541.095 274.1 542.045 273.4 544.095 273.4C545.945 273.4 547.945 274.35 549.995 275.8L553.945 270.5C551.545 268.65 548.245 266.85 543.795 266.85C537.145 266.85 532.795 270.5 532.795 275.85C532.795 280.6 536.645 282.9 540.045 284.25C542.945 285.4 545.695 286.2 545.695 287.9C545.695 289.3 544.695 290.15 542.345 290.15C540.095 290.15 537.745 289.1 535.145 287.15L531.195 292.7C534.095 295.1 538.445 296.7 542.145 296.7ZM557.633 307.05C565.633 307.05 568.133 301.65 568.133 295.35V267.55H559.183V295.65C559.183 298.75 558.433 300.1 556.283 300.1C555.533 300.1 554.833 299.95 554.083 299.7L552.533 306.25C553.733 306.7 555.183 307.05 557.633 307.05ZM563.633 263.6C566.583 263.6 568.633 261.8 568.633 259C568.633 256.25 566.583 254.45 563.633 254.45C560.733 254.45 558.683 256.25 558.683 259C558.683 261.8 560.733 263.6 563.633 263.6ZM588.195 296.7C591.495 296.7 595.395 295.55 598.345 293.45L595.395 288.1C593.345 289.3 591.445 289.9 589.395 289.9C585.795 289.9 583.095 288.3 582.295 284.4H598.995C599.195 283.7 599.395 282.15 599.395 280.55C599.395 272.8 595.395 266.85 587.195 266.85C580.345 266.85 573.695 272.55 573.695 281.75C573.695 291.2 579.995 296.7 588.195 296.7ZM582.145 278.55C582.745 275.2 584.895 273.65 587.345 273.65C590.595 273.65 591.845 275.75 591.845 278.55H582.145ZM611.255 296.7C614.405 296.7 617.055 295.25 619.405 293.15H619.655L620.255 296H627.505V279.85C627.505 270.95 623.355 266.85 616.005 266.85C611.555 266.85 607.505 268.35 603.755 270.6L606.855 276.45C609.705 274.85 612.055 273.95 614.305 273.95C617.205 273.95 618.405 275.3 618.605 277.6C607.505 278.8 602.805 282.05 602.805 288.05C602.805 292.8 606.005 296.7 611.255 296.7ZM614.305 289.8C612.455 289.8 611.255 289 611.255 287.35C611.255 285.35 613.055 283.7 618.605 283V287.55C617.305 288.95 616.105 289.8 614.305 289.8ZM634.377 296H643.277V277C644.977 275.35 646.177 274.45 648.177 274.45C650.427 274.45 651.477 275.55 651.477 279.5V296H660.377V278.4C660.377 271.3 657.727 266.85 651.527 266.85C647.677 266.85 644.777 268.8 642.427 271.1H642.277L641.627 267.55H634.377V296ZM675.788 296.7C683.538 296.7 687.638 292.65 687.638 287.4C687.638 282.25 683.688 280.2 680.138 278.85C677.188 277.8 674.738 277.15 674.738 275.45C674.738 274.1 675.688 273.4 677.738 273.4C679.588 273.4 681.588 274.35 683.638 275.8L687.588 270.5C685.188 268.65 681.888 266.85 677.438 266.85C670.788 266.85 666.438 270.5 666.438 275.85C666.438 280.6 670.287 282.9 673.688 284.25C676.588 285.4 679.338 286.2 679.338 287.9C679.338 289.3 678.338 290.15 675.988 290.15C673.738 290.15 671.388 289.1 668.788 287.15L664.838 292.7C667.738 295.1 672.088 296.7 675.788 296.7ZM712.702 296.7C720.452 296.7 724.552 292.65 724.552 287.4C724.552 282.25 720.602 280.2 717.052 278.85C714.102 277.8 711.652 277.15 711.652 275.45C711.652 274.1 712.602 273.4 714.652 273.4C716.502 273.4 718.502 274.35 720.552 275.8L724.502 270.5C722.102 268.65 718.802 266.85 714.352 266.85C707.702 266.85 703.352 270.5 703.352 275.85C703.352 280.6 707.202 282.9 710.602 284.25C713.502 285.4 716.252 286.2 716.252 287.9C716.252 289.3 715.252 290.15 712.902 290.15C710.652 290.15 708.302 289.1 705.702 287.15L701.752 292.7C704.652 295.1 709.002 296.7 712.702 296.7ZM729.69 296H738.59V267.55H729.69V296ZM734.14 263.6C737.09 263.6 739.09 261.8 739.09 259C739.09 256.25 737.09 254.45 734.14 254.45C731.14 254.45 729.19 256.25 729.19 259C729.19 261.8 731.14 263.6 734.14 263.6ZM756.954 296.7C759.854 296.7 761.904 296.1 763.404 295.65L762.004 289.2C761.304 289.45 760.304 289.75 759.404 289.75C757.304 289.75 755.804 288.5 755.804 285.35V274.5H762.504V267.55H755.804V260H748.454L747.454 267.55L743.054 267.9V274.5H746.904V285.45C746.904 292.15 749.804 296.7 756.954 296.7ZM766.62 296H789.67V289.05H777.72L789.27 272.3V267.55H767.92V274.5H778.17L766.62 291.25V296ZM805.831 296.7C808.731 296.7 810.781 296.1 812.281 295.65L810.881 289.2C810.181 289.45 809.181 289.75 808.281 289.75C806.181 289.75 804.681 288.5 804.681 285.35V274.5H811.381V267.55H804.681V260H797.331L796.331 267.55L791.931 267.9V274.5H795.781V285.45C795.781 292.15 798.681 296.7 805.831 296.7ZM821.902 278.4C824.952 278.4 827.202 276 827.202 272.9C827.202 269.8 824.952 267.4 821.902 267.4C818.802 267.4 816.602 269.8 816.602 272.9C816.602 276 818.802 278.4 821.902 278.4ZM821.902 296.7C824.952 296.7 827.202 294.25 827.202 291.15C827.202 288.05 824.952 285.65 821.902 285.65C818.802 285.65 816.602 288.05 816.602 291.15C816.602 294.25 818.802 296.7 821.902 296.7ZM122.8 369.95C132.7 369.95 138.95 365.7 138.95 359.7C138.95 354.55 134.95 352.4 127.95 352.4H123.45C120.4 352.4 119.25 351.8 119.25 350.5C119.25 349.5 119.55 349.1 120.15 348.5C121.4 348.85 122.55 349 123.5 349C129.8 349 134.85 346.1 134.85 339.45C134.85 338.1 134.5 336.8 134.1 336H138.45V329.55H128C126.7 329.1 125.15 328.85 123.5 328.85C117.35 328.85 111.6 332.25 111.6 339.15C111.6 342.5 113.45 345.15 115.5 346.55V346.75C113.6 348.05 112.3 350.05 112.3 352.05C112.3 354.45 113.4 355.95 114.9 356.95V357.2C112.25 358.55 110.9 360.45 110.9 362.8C110.9 367.9 116.25 369.95 122.8 369.95ZM123.5 343.65C121.45 343.65 119.9 342.15 119.9 339.15C119.9 336.3 121.45 334.8 123.5 334.8C125.6 334.8 127.15 336.3 127.15 339.15C127.15 342.15 125.6 343.65 123.5 343.65ZM124.2 364.4C120.6 364.4 118.2 363.4 118.2 361.4C118.2 360.45 118.6 359.65 119.5 358.85C120.4 359.1 121.5 359.2 123.55 359.2H126.25C128.9 359.2 130.4 359.55 130.4 361.25C130.4 363.05 127.85 364.4 124.2 364.4ZM154.895 358.7C158.195 358.7 162.095 357.55 165.045 355.45L162.095 350.1C160.045 351.3 158.145 351.9 156.095 351.9C152.495 351.9 149.795 350.3 148.995 346.4H165.695C165.895 345.7 166.095 344.15 166.095 342.55C166.095 334.8 162.095 328.85 153.895 328.85C147.045 328.85 140.395 334.55 140.395 343.75C140.395 353.2 146.695 358.7 154.895 358.7ZM148.845 340.55C149.445 337.2 151.595 335.65 154.045 335.65C157.295 335.65 158.545 337.75 158.545 340.55H148.845ZM171.78 358H180.68V339C182.38 337.35 183.58 336.45 185.58 336.45C187.83 336.45 188.88 337.55 188.88 341.5V358H197.78V340.4C197.78 333.3 195.13 328.85 188.93 328.85C185.08 328.85 182.18 330.8 179.83 333.1H179.68L179.03 329.55H171.78V358ZM211.89 358.7C215.04 358.7 217.69 357.25 220.04 355.15H220.29L220.89 358H228.14V341.85C228.14 332.95 223.99 328.85 216.64 328.85C212.19 328.85 208.14 330.35 204.39 332.6L207.49 338.45C210.34 336.85 212.69 335.95 214.94 335.95C217.84 335.95 219.04 337.3 219.24 339.6C208.14 340.8 203.44 344.05 203.44 350.05C203.44 354.8 206.64 358.7 211.89 358.7ZM214.94 351.8C213.09 351.8 211.89 351 211.89 349.35C211.89 347.35 213.69 345.7 219.24 345V349.55C217.94 350.95 216.74 351.8 214.94 351.8ZM243.612 358.7C247.462 358.7 250.112 356.9 252.462 354.1H252.662L253.312 358H260.562V329.55H251.662V348.2C250.162 350.3 248.912 351.1 246.912 351.1C244.662 351.1 243.612 349.95 243.612 346.05V329.55H234.712V347.15C234.712 354.25 237.362 358.7 243.612 358.7ZM279.153 358H288.053V341.75C289.503 338 292.053 336.65 294.153 336.65C295.403 336.65 296.253 336.85 297.303 337.1L298.753 329.45C297.953 329.1 297.003 328.85 295.303 328.85C292.453 328.85 289.303 330.7 287.203 334.5H287.053L286.403 329.55H279.153V358ZM302.346 358H311.246V329.55H302.346V358ZM306.796 325.6C309.746 325.6 311.746 323.8 311.746 321C311.746 318.25 309.746 316.45 306.796 316.45C303.796 316.45 301.846 318.25 301.846 321C301.846 323.8 303.796 325.6 306.796 325.6ZM330.961 358.7C333.961 358.7 337.561 357.8 340.361 355.35L336.911 349.5C335.461 350.65 333.761 351.5 331.961 351.5C328.511 351.5 325.911 348.5 325.911 343.75C325.911 339.05 328.361 336.05 332.311 336.05C333.511 336.05 334.611 336.5 335.911 337.55L340.061 331.9C337.911 330.05 335.211 328.85 331.761 328.85C323.811 328.85 316.811 334.35 316.811 343.75C316.811 353.2 322.961 358.7 330.961 358.7ZM345.266 358H354.166V339C355.866 337.35 357.066 336.45 359.066 336.45C361.316 336.45 362.366 337.55 362.366 341.5V358H371.266V340.4C371.266 333.3 368.616 328.85 362.416 328.85C358.566 328.85 355.766 330.8 353.716 332.7L354.166 327.65V318.05H345.266V358ZM389.376 358.7C392.276 358.7 394.326 358.1 395.826 357.65L394.426 351.2C393.726 351.45 392.726 351.75 391.826 351.75C389.726 351.75 388.226 350.5 388.226 347.35V336.5H394.926V329.55H388.226V322H380.876L379.876 329.55L375.476 329.9V336.5H379.326V347.45C379.326 354.15 382.226 358.7 389.376 358.7ZM400.442 358H409.342V329.55H400.442V358ZM404.892 325.6C407.842 325.6 409.842 323.8 409.842 321C409.842 318.25 407.842 316.45 404.892 316.45C401.892 316.45 399.942 318.25 399.942 321C399.942 323.8 401.892 325.6 404.892 325.6ZM426.706 369.95C436.606 369.95 442.856 365.7 442.856 359.7C442.856 354.55 438.856 352.4 431.856 352.4H427.356C424.306 352.4 423.156 351.8 423.156 350.5C423.156 349.5 423.456 349.1 424.056 348.5C425.306 348.85 426.456 349 427.406 349C433.706 349 438.756 346.1 438.756 339.45C438.756 338.1 438.406 336.8 438.006 336H442.356V329.55H431.906C430.606 329.1 429.056 328.85 427.406 328.85C421.256 328.85 415.506 332.25 415.506 339.15C415.506 342.5 417.356 345.15 419.406 346.55V346.75C417.506 348.05 416.206 350.05 416.206 352.05C416.206 354.45 417.306 355.95 418.806 356.95V357.2C416.156 358.55 414.806 360.45 414.806 362.8C414.806 367.9 420.156 369.95 426.706 369.95ZM427.406 343.65C425.356 343.65 423.806 342.15 423.806 339.15C423.806 336.3 425.356 334.8 427.406 334.8C429.506 334.8 431.056 336.3 431.056 339.15C431.056 342.15 429.506 343.65 427.406 343.65ZM428.106 364.4C424.506 364.4 422.106 363.4 422.106 361.4C422.106 360.45 422.506 359.65 423.406 358.85C424.306 359.1 425.406 359.2 427.456 359.2H430.156C432.806 359.2 434.306 359.55 434.306 361.25C434.306 363.05 431.756 364.4 428.106 364.4ZM452.517 358.7C455.567 358.7 457.817 356.25 457.817 353.15C457.817 350.05 455.567 347.65 452.517 347.65C449.417 347.65 447.217 350.05 447.217 353.15C447.217 356.25 449.417 358.7 452.517 358.7Z" fill="#FDF374"/>
    <path d="M111.58 130H118.3C124.81 130 129.31 126.49 129.31 118.72C129.31 110.95 124.81 107.65 118 107.65H111.58V130ZM116.95 125.68V111.94H117.67C121.27 111.94 123.82 113.41 123.82 118.72C123.82 124.03 121.27 125.68 117.67 125.68H116.95ZM133.015 130H138.355V112.93H133.015V130ZM135.685 110.56C137.455 110.56 138.655 109.48 138.655 107.8C138.655 106.15 137.455 105.07 135.685 105.07C133.885 105.07 132.715 106.15 132.715 107.8C132.715 109.48 133.885 110.56 135.685 110.56ZM150.394 130.42C152.374 130.42 154.714 129.73 156.484 128.47L154.714 125.26C153.484 125.98 152.344 126.34 151.114 126.34C148.954 126.34 147.334 125.38 146.854 123.04H156.874C156.994 122.62 157.114 121.69 157.114 120.73C157.114 116.08 154.714 112.51 149.794 112.51C145.684 112.51 141.694 115.93 141.694 121.45C141.694 127.12 145.474 130.42 150.394 130.42ZM146.764 119.53C147.124 117.52 148.414 116.59 149.884 116.59C151.834 116.59 152.584 117.85 152.584 119.53H146.764ZM167.381 130H172.721V120.25C173.591 118 175.121 117.19 176.381 117.19C177.131 117.19 177.641 117.31 178.271 117.46L179.141 112.87C178.661 112.66 178.091 112.51 177.071 112.51C175.361 112.51 173.471 113.62 172.211 115.9H172.121L171.731 112.93H167.381V130ZM181.297 130H186.637V112.93H181.297V130ZM183.967 110.56C185.737 110.56 186.937 109.48 186.937 107.8C186.937 106.15 185.737 105.07 183.967 105.07C182.167 105.07 180.997 106.15 180.997 107.8C180.997 109.48 182.167 110.56 183.967 110.56ZM198.465 130.42C200.265 130.42 202.425 129.88 204.105 128.41L202.035 124.9C201.165 125.59 200.145 126.1 199.065 126.1C196.995 126.1 195.435 124.3 195.435 121.45C195.435 118.63 196.905 116.83 199.275 116.83C199.995 116.83 200.655 117.1 201.435 117.73L203.925 114.34C202.635 113.23 201.015 112.51 198.945 112.51C194.175 112.51 189.975 115.81 189.975 121.45C189.975 127.12 193.665 130.42 198.465 130.42ZM207.049 130H212.389V118.6C213.409 117.61 214.129 117.07 215.329 117.07C216.679 117.07 217.309 117.73 217.309 120.1V130H222.649V119.44C222.649 115.18 221.059 112.51 217.339 112.51C215.029 112.51 213.349 113.68 212.119 114.82L212.389 111.79V106.03H207.049V130ZM233.515 130.42C235.255 130.42 236.485 130.06 237.385 129.79L236.545 125.92C236.125 126.07 235.525 126.25 234.985 126.25C233.725 126.25 232.825 125.5 232.825 123.61V117.1H236.845V112.93H232.825V108.4H228.415L227.815 112.93L225.175 113.14V117.1H227.485V123.67C227.485 127.69 229.225 130.42 233.515 130.42ZM240.154 130H245.494V112.93H240.154V130ZM242.824 110.56C244.594 110.56 245.794 109.48 245.794 107.8C245.794 106.15 244.594 105.07 242.824 105.07C241.024 105.07 239.854 106.15 239.854 107.8C239.854 109.48 241.024 110.56 242.824 110.56ZM255.913 137.17C261.853 137.17 265.603 134.62 265.603 131.02C265.603 127.93 263.203 126.64 259.003 126.64H256.303C254.473 126.64 253.783 126.28 253.783 125.5C253.783 124.9 253.963 124.66 254.323 124.3C255.073 124.51 255.763 124.6 256.333 124.6C260.113 124.6 263.143 122.86 263.143 118.87C263.143 118.06 262.933 117.28 262.693 116.8H265.303V112.93H259.033C258.253 112.66 257.323 112.51 256.333 112.51C252.643 112.51 249.193 114.55 249.193 118.69C249.193 120.7 250.303 122.29 251.533 123.13V123.25C250.393 124.03 249.613 125.23 249.613 126.43C249.613 127.87 250.273 128.77 251.173 129.37V129.52C249.583 130.33 248.773 131.47 248.773 132.88C248.773 135.94 251.983 137.17 255.913 137.17ZM256.333 121.39C255.103 121.39 254.173 120.49 254.173 118.69C254.173 116.98 255.103 116.08 256.333 116.08C257.593 116.08 258.523 116.98 258.523 118.69C258.523 120.49 257.593 121.39 256.333 121.39ZM256.753 133.84C254.593 133.84 253.153 133.24 253.153 132.04C253.153 131.47 253.393 130.99 253.933 130.51C254.473 130.66 255.133 130.72 256.363 130.72H257.983C259.573 130.72 260.473 130.93 260.473 131.95C260.473 133.03 258.943 133.84 256.753 133.84ZM275.17 130.42C277.15 130.42 279.49 129.73 281.26 128.47L279.49 125.26C278.26 125.98 277.12 126.34 275.89 126.34C273.73 126.34 272.11 125.38 271.63 123.04H281.65C281.77 122.62 281.89 121.69 281.89 120.73C281.89 116.08 279.49 112.51 274.57 112.51C270.46 112.51 266.47 115.93 266.47 121.45C266.47 127.12 270.25 130.42 275.17 130.42ZM271.54 119.53C271.9 117.52 273.19 116.59 274.66 116.59C276.61 116.59 277.36 117.85 277.36 119.53H271.54ZM292.576 130H297.946V124.15L300.376 120.85L305.656 130H311.506L303.496 116.62L310.246 107.65H304.366L298.036 116.5H297.946V107.65H292.576V130ZM313.396 130H318.736V120.25C319.606 118 321.136 117.19 322.396 117.19C323.146 117.19 323.656 117.31 324.286 117.46L325.156 112.87C324.676 112.66 324.106 112.51 323.086 112.51C321.376 112.51 319.486 113.62 318.226 115.9H318.136L317.746 112.93H313.396V130ZM330.431 130.42C332.321 130.42 333.911 129.55 335.321 128.29H335.471L335.831 130H340.181V120.31C340.181 114.97 337.691 112.51 333.281 112.51C330.611 112.51 328.181 113.41 325.931 114.76L327.791 118.27C329.501 117.31 330.911 116.77 332.261 116.77C334.001 116.77 334.721 117.58 334.841 118.96C328.181 119.68 325.361 121.63 325.361 125.23C325.361 128.08 327.281 130.42 330.431 130.42ZM332.261 126.28C331.151 126.28 330.431 125.8 330.431 124.81C330.431 123.61 331.511 122.62 334.841 122.2V124.93C334.061 125.77 333.341 126.28 332.261 126.28ZM344.305 130H349.645V118.6C350.665 117.61 351.385 117.07 352.585 117.07C353.935 117.07 354.565 117.73 354.565 120.1V130H359.905V119.44C359.905 115.18 358.315 112.51 354.595 112.51C352.285 112.51 350.545 113.68 349.135 115.06H349.045L348.655 112.93H344.305V130ZM364.051 130H369.301V125.77L371.281 123.52L374.971 130H380.761L374.401 120.04L380.341 112.93H374.491L369.451 119.35H369.301V106.03H364.051V130ZM389.574 130.42C391.554 130.42 393.894 129.73 395.664 128.47L393.894 125.26C392.664 125.98 391.524 126.34 390.294 126.34C388.134 126.34 386.514 125.38 386.034 123.04H396.054C396.174 122.62 396.294 121.69 396.294 120.73C396.294 116.08 393.894 112.51 388.974 112.51C384.864 112.51 380.874 115.93 380.874 121.45C380.874 127.12 384.654 130.42 389.574 130.42ZM385.944 119.53C386.304 117.52 387.594 116.59 389.064 116.59C391.014 116.59 391.764 117.85 391.764 119.53H385.944ZM399.705 130H405.045V118.6C406.065 117.61 406.785 117.07 407.985 117.07C409.335 117.07 409.965 117.73 409.965 120.1V130H415.305V119.44C415.305 115.18 413.715 112.51 409.995 112.51C407.685 112.51 405.945 113.68 404.535 115.06H404.445L404.055 112.93H399.705V130ZM423.381 130H429.561L435.081 112.93H429.951L427.851 120.79C427.431 122.47 427.011 124.24 426.591 126.04H426.441C425.991 124.24 425.601 122.47 425.151 120.79L423.081 112.93H417.711L423.381 130ZM444.886 130.42C446.866 130.42 449.206 129.73 450.976 128.47L449.206 125.26C447.976 125.98 446.836 126.34 445.606 126.34C443.446 126.34 441.826 125.38 441.346 123.04H451.366C451.486 122.62 451.606 121.69 451.606 120.73C451.606 116.08 449.206 112.51 444.286 112.51C440.176 112.51 436.186 115.93 436.186 121.45C436.186 127.12 439.966 130.42 444.886 130.42ZM441.256 119.53C441.616 117.52 442.906 116.59 444.376 116.59C446.326 116.59 447.076 117.85 447.076 119.53H441.256ZM455.017 130H460.357V120.25C461.227 118 462.757 117.19 464.017 117.19C464.767 117.19 465.277 117.31 465.907 117.46L466.777 112.87C466.297 112.66 465.727 112.51 464.707 112.51C462.997 112.51 461.107 113.62 459.847 115.9H459.757L459.367 112.93H455.017V130ZM473.506 130.42C478.156 130.42 480.616 127.99 480.616 124.84C480.616 121.75 478.246 120.52 476.116 119.71C474.346 119.08 472.876 118.69 472.876 117.67C472.876 116.86 473.446 116.44 474.676 116.44C475.786 116.44 476.986 117.01 478.216 117.88L480.586 114.7C479.146 113.59 477.166 112.51 474.496 112.51C470.506 112.51 467.896 114.7 467.896 117.91C467.896 120.76 470.206 122.14 472.246 122.95C473.986 123.64 475.636 124.12 475.636 125.14C475.636 125.98 475.036 126.49 473.626 126.49C472.276 126.49 470.866 125.86 469.306 124.69L466.936 128.02C468.676 129.46 471.286 130.42 473.506 130.42ZM483.699 130H489.039V112.93H483.699V130ZM486.369 110.56C488.139 110.56 489.339 109.48 489.339 107.8C489.339 106.15 488.139 105.07 486.369 105.07C484.569 105.07 483.399 106.15 483.399 107.8C483.399 109.48 484.569 110.56 486.369 110.56ZM500.868 130.42C502.668 130.42 504.828 129.88 506.508 128.41L504.438 124.9C503.568 125.59 502.548 126.1 501.468 126.1C499.398 126.1 497.838 124.3 497.838 121.45C497.838 118.63 499.308 116.83 501.678 116.83C502.398 116.83 503.058 117.1 503.838 117.73L506.328 114.34C505.038 113.23 503.418 112.51 501.348 112.51C496.578 112.51 492.378 115.81 492.378 121.45C492.378 127.12 496.068 130.42 500.868 130.42ZM509.451 130H514.791V118.6C515.811 117.61 516.531 117.07 517.731 117.07C519.081 117.07 519.711 117.73 519.711 120.1V130H525.051V119.44C525.051 115.18 523.461 112.51 519.741 112.51C517.431 112.51 515.751 113.68 514.521 114.82L514.791 111.79V106.03H509.451V130ZM536.937 130.42C538.917 130.42 541.257 129.73 543.027 128.47L541.257 125.26C540.027 125.98 538.887 126.34 537.657 126.34C535.497 126.34 533.877 125.38 533.397 123.04H543.417C543.537 122.62 543.657 121.69 543.657 120.73C543.657 116.08 541.257 112.51 536.337 112.51C532.227 112.51 528.237 115.93 528.237 121.45C528.237 127.12 532.017 130.42 536.937 130.42ZM533.307 119.53C533.667 117.52 534.957 116.59 536.427 116.59C538.377 116.59 539.127 117.85 539.127 119.53H533.307ZM547.068 130H552.408V120.25C553.278 118 554.808 117.19 556.068 117.19C556.818 117.19 557.328 117.31 557.958 117.46L558.828 112.87C558.348 112.66 557.778 112.51 556.758 112.51C555.048 112.51 553.158 113.62 551.898 115.9H551.808L551.418 112.93H547.068V130ZM566.144 130.42C568.454 130.42 570.044 129.34 571.454 127.66H571.574L571.964 130H576.314V112.93H570.974V124.12C570.074 125.38 569.324 125.86 568.124 125.86C566.774 125.86 566.144 125.17 566.144 122.83V112.93H560.804V123.49C560.804 127.75 562.394 130.42 566.144 130.42ZM580.613 130H585.953V118.6C586.973 117.61 587.693 117.07 588.893 117.07C590.243 117.07 590.873 117.73 590.873 120.1V130H596.213V119.44C596.213 115.18 594.623 112.51 590.903 112.51C588.593 112.51 586.853 113.68 585.443 115.06H585.353L584.963 112.93H580.613V130ZM606.479 137.17C612.419 137.17 616.169 134.62 616.169 131.02C616.169 127.93 613.769 126.64 609.569 126.64H606.869C605.039 126.64 604.349 126.28 604.349 125.5C604.349 124.9 604.529 124.66 604.889 124.3C605.639 124.51 606.329 124.6 606.899 124.6C610.679 124.6 613.709 122.86 613.709 118.87C613.709 118.06 613.499 117.28 613.259 116.8H615.869V112.93H609.599C608.819 112.66 607.889 112.51 606.899 112.51C603.209 112.51 599.759 114.55 599.759 118.69C599.759 120.7 600.869 122.29 602.099 123.13V123.25C600.959 124.03 600.179 125.23 600.179 126.43C600.179 127.87 600.839 128.77 601.739 129.37V129.52C600.149 130.33 599.339 131.47 599.339 132.88C599.339 135.94 602.549 137.17 606.479 137.17ZM606.899 121.39C605.669 121.39 604.739 120.49 604.739 118.69C604.739 116.98 605.669 116.08 606.899 116.08C608.159 116.08 609.089 116.98 609.089 118.69C609.089 120.49 608.159 121.39 606.899 121.39ZM607.319 133.84C605.159 133.84 603.719 133.24 603.719 132.04C603.719 131.47 603.959 130.99 604.499 130.51C605.039 130.66 605.699 130.72 606.929 130.72H608.549C610.139 130.72 611.039 130.93 611.039 131.95C611.039 133.03 609.509 133.84 607.319 133.84Z" fill="white"/>
    </g>
    <defs>
    <clipPath id="clip0_358_14343">
    <rect width="1181" height="477" fill="white"/>
    </clipPath>
    </defs>
    </svg>