<svg xmlns="http://www.w3.org/2000/svg" width="305" height="50" viewBox="0 0 305 50" fill="none">
    <path d="M42.5 5.33608C24 -1.84964 12 1.1504 1.01889 5.33603C0.518886 34.836 10 43.1505 23.0181 48.336C44.0188 35.336 42 24.8361 42.5 5.33608Z" fill="#DC0018"/>
    <path d="M27 8.65039H18V35.6504H27V8.65039Z" fill="white"/>
    <path d="M36 26.6504V17.6504H8V26.6504H36Z" fill="white"/>
    <path d="M56 30.03V18.01H64.7V19.43H57.59V23.11H64.24V24.52H57.59V28.61H64.97V30.03H56Z" fill="white"/>
    <path d="M66.9902 30.0301V21.3201H68.3202V22.5601C68.9602 21.6001 69.8802 21.1201 71.0902 21.1201C71.6202 21.1201 72.1002 21.2101 72.5402 21.4001C72.9802 21.5901 73.3102 21.8401 73.5302 22.1401C73.7502 22.4501 73.9002 22.8101 73.9902 23.2301C74.0402 23.5001 74.0702 23.9801 74.0702 24.6701V30.0301H72.5902V24.7301C72.5902 24.1301 72.5302 23.6801 72.4202 23.3801C72.3102 23.0801 72.1002 22.8401 71.8102 22.6701C71.5202 22.4901 71.1702 22.4001 70.7802 22.4001C70.1502 22.4001 69.6102 22.6001 69.1502 23.0001C68.6902 23.4001 68.4702 24.1601 68.4702 25.2701V30.0301H66.9902Z" fill="white"/>
    <path d="M79.5595 28.71L79.7695 30.01C79.3495 30.1 78.9795 30.14 78.6495 30.14C78.1095 30.14 77.6995 30.06 77.3995 29.89C77.0995 29.72 76.8995 29.5 76.7795 29.22C76.6595 28.94 76.5995 28.36 76.5995 27.48V22.47H75.5195V21.32H76.5995V19.16L78.0695 18.27V21.31H79.5595V22.46H78.0695V27.56C78.0695 27.98 78.0995 28.25 78.1495 28.37C78.1995 28.49 78.2895 28.59 78.3995 28.66C78.5195 28.73 78.6895 28.77 78.8995 28.77C79.0795 28.77 79.2895 28.75 79.5595 28.71Z" fill="white"/>
    <path d="M82.6095 30.0301L79.9395 21.3201H81.4695L82.8595 26.3501L83.3795 28.2201C83.3995 28.1301 83.5495 27.5301 83.8295 26.4201L85.2195 21.3201H86.7395L88.0395 26.3701L88.4695 28.0401L88.9695 26.3601L90.4594 21.3201H91.8995L89.1795 30.0301H87.6395L86.2595 24.8201L85.9195 23.3301L84.1595 30.0301H82.6095Z" fill="white"/>
    <path d="M93.1504 19.7V18H94.6304V19.7H93.1504ZM93.1504 30.03V21.32H94.6304V30.03H93.1504Z" fill="white"/>
    <path d="M102.56 26.8401L104.01 27.0301C103.85 28.0301 103.45 28.8101 102.79 29.3801C102.14 29.9501 101.33 30.2301 100.38 30.2301C99.1902 30.2301 98.2302 29.8401 97.5002 29.0601C96.7802 28.2801 96.4102 27.1601 96.4102 25.7101C96.4102 24.7701 96.5702 23.9501 96.8802 23.2401C97.1902 22.5301 97.6702 22.0101 98.3002 21.6501C98.9402 21.3001 99.6302 21.1201 100.38 21.1201C101.33 21.1201 102.1 21.3601 102.7 21.8401C103.3 22.3201 103.69 23.0001 103.86 23.8801L102.42 24.1001C102.28 23.5101 102.04 23.0701 101.69 22.7801C101.34 22.4901 100.92 22.3401 100.43 22.3401C99.6902 22.3401 99.0802 22.6101 98.6202 23.1401C98.1602 23.6701 97.9202 24.5201 97.9202 25.6701C97.9202 26.8401 98.1402 27.6901 98.5902 28.2201C99.0402 28.7501 99.6202 29.0201 100.35 29.0201C100.93 29.0201 101.41 28.8401 101.8 28.4901C102.21 28.1301 102.45 27.5801 102.56 26.8401Z" fill="white"/>
    <path d="M105.279 30.03V18.01H106.759V24.87L110.259 21.33H112.169L108.839 24.56L112.509 30.04H110.689L107.809 25.58L106.769 26.58V30.03H105.279Z" fill="white"/>
    <path d="M113.65 30.03V18.01H115.13V30.04H113.65V30.03Z" fill="white"/>
    <path d="M123.121 30.0301V28.7501C122.441 29.7301 121.521 30.2301 120.361 30.2301C119.851 30.2301 119.361 30.1301 118.921 29.9301C118.471 29.7301 118.141 29.4901 117.931 29.1901C117.711 28.8901 117.561 28.5301 117.471 28.0901C117.411 27.8001 117.381 27.3401 117.381 26.7101V21.3101H118.861V26.1401C118.861 26.9101 118.891 27.4301 118.951 27.7001C119.041 28.0901 119.241 28.3901 119.541 28.6201C119.841 28.8501 120.211 28.9501 120.661 28.9501C121.111 28.9501 121.521 28.8401 121.911 28.6101C122.301 28.3801 122.571 28.0701 122.741 27.6801C122.901 27.2901 122.981 26.7201 122.981 25.9801V21.3101H124.461V30.0201H123.121V30.0301Z" fill="white"/>
    <path d="M126.76 30.0301V21.3201H128.09V22.5601C128.73 21.6001 129.65 21.1201 130.86 21.1201C131.39 21.1201 131.87 21.2101 132.31 21.4001C132.75 21.5901 133.08 21.8401 133.3 22.1401C133.52 22.4501 133.67 22.8101 133.76 23.2301C133.81 23.5001 133.84 23.9801 133.84 24.6701V30.0301H132.36V24.7301C132.36 24.1301 132.3 23.6801 132.19 23.3801C132.08 23.0801 131.87 22.8401 131.58 22.6701C131.29 22.4901 130.94 22.4001 130.55 22.4001C129.92 22.4001 129.38 22.6001 128.92 23.0001C128.46 23.4001 128.24 24.1601 128.24 25.2701V30.0301H126.76Z" fill="white"/>
    <path d="M135.829 30.7601L137.269 30.9701C137.329 31.4101 137.499 31.7401 137.769 31.9401C138.139 32.2101 138.639 32.3501 139.269 32.3501C139.949 32.3501 140.479 32.2101 140.849 31.9401C141.219 31.6701 141.469 31.2801 141.599 30.7901C141.679 30.4901 141.709 29.8601 141.709 28.8901C141.059 29.6501 140.259 30.0301 139.299 30.0301C138.099 30.0301 137.179 29.6001 136.519 28.7301C135.859 27.8601 135.539 26.8301 135.539 25.6201C135.539 24.7901 135.689 24.0201 135.989 23.3201C136.289 22.6201 136.729 22.0701 137.299 21.6901C137.869 21.3101 138.539 21.1201 139.309 21.1201C140.339 21.1201 141.189 21.5401 141.849 22.3701V21.3201H143.209V28.8501C143.209 30.2101 143.069 31.1701 142.789 31.7301C142.509 32.3001 142.079 32.7401 141.479 33.0701C140.879 33.4001 140.139 33.5601 139.269 33.5601C138.229 33.5601 137.389 33.3301 136.749 32.8601C136.119 32.4001 135.809 31.7001 135.829 30.7601ZM137.049 25.5201C137.049 26.6601 137.279 27.5001 137.729 28.0201C138.179 28.5401 138.749 28.8101 139.439 28.8101C140.119 28.8101 140.689 28.5501 141.149 28.0301C141.609 27.5101 141.839 26.6901 141.839 25.5701C141.839 24.5001 141.599 23.7001 141.129 23.1601C140.659 22.6201 140.089 22.3501 139.419 22.3501C138.759 22.3501 138.209 22.6201 137.749 23.1501C137.279 23.6801 137.049 24.4701 137.049 25.5201Z" fill="white"/>
    <path d="M152.541 30.0301L149.221 21.3201H150.781L152.651 26.5401C152.851 27.1001 153.041 27.6901 153.211 28.3001C153.341 27.8401 153.521 27.2901 153.761 26.6401L155.701 21.3201H157.221L153.921 30.0301H152.541Z" fill="white"/>
    <path d="M157.971 25.6801C157.971 24.0701 158.421 22.8701 159.321 22.0901C160.071 21.4401 160.981 21.1201 162.061 21.1201C163.261 21.1201 164.241 21.5101 165.001 22.3001C165.761 23.0901 166.141 24.1701 166.141 25.5501C166.141 26.6701 165.971 27.5501 165.641 28.2001C165.301 28.8401 164.811 29.3401 164.171 29.7001C163.531 30.0601 162.831 30.2301 162.071 30.2301C160.851 30.2301 159.861 29.8401 159.111 29.0601C158.351 28.2801 157.971 27.1501 157.971 25.6801ZM159.491 25.6801C159.491 26.8001 159.731 27.6301 160.221 28.1901C160.711 28.7501 161.321 29.0201 162.061 29.0201C162.791 29.0201 163.401 28.7401 163.891 28.1801C164.381 27.6201 164.621 26.7701 164.621 25.6301C164.621 24.5501 164.371 23.7401 163.891 23.1801C163.411 22.6201 162.791 22.3501 162.061 22.3501C161.321 22.3501 160.711 22.6301 160.221 23.1801C159.731 23.7301 159.491 24.5601 159.491 25.6801Z" fill="white"/>
    <path d="M167.869 30.0301V21.3201H169.189V22.5401C169.459 22.1101 169.829 21.7701 170.279 21.5101C170.729 21.2501 171.249 21.1201 171.829 21.1201C172.479 21.1201 172.999 21.2501 173.419 21.5201C173.829 21.7901 174.119 22.1601 174.289 22.6401C174.979 21.6201 175.879 21.1101 176.979 21.1101C177.839 21.1101 178.509 21.3501 178.969 21.8301C179.429 22.3101 179.669 23.0501 179.669 24.0401V30.0201H178.199V24.5301C178.199 23.9401 178.149 23.5101 178.059 23.2501C177.969 22.9901 177.789 22.7801 177.539 22.6201C177.289 22.4601 176.989 22.3801 176.649 22.3801C176.039 22.3801 175.529 22.5801 175.119 22.9901C174.709 23.4001 174.509 24.0501 174.509 24.9501V30.0101H173.029V24.3501C173.029 23.6901 172.909 23.2001 172.669 22.8701C172.429 22.5401 172.039 22.3801 171.489 22.3801C171.069 22.3801 170.689 22.4901 170.339 22.7101C169.989 22.9301 169.729 23.2501 169.569 23.6701C169.409 24.0901 169.329 24.7001 169.329 25.4901V30.0101H167.869V30.0301Z" fill="white"/>
    <path d="M186.66 30.03V18.01H191.17C192.09 18.01 192.83 18.13 193.38 18.38C193.93 18.62 194.37 19 194.68 19.5C194.99 20.01 195.15 20.54 195.15 21.09C195.15 21.6 195.01 22.09 194.73 22.54C194.45 22.99 194.03 23.36 193.47 23.64C194.2 23.85 194.76 24.22 195.15 24.73C195.54 25.24 195.74 25.85 195.74 26.55C195.74 27.11 195.62 27.64 195.38 28.12C195.14 28.6 194.85 28.98 194.5 29.24C194.15 29.5 193.71 29.7 193.18 29.83C192.65 29.96 192.01 30.03 191.24 30.03H186.66ZM188.25 23.06H190.85C191.56 23.06 192.06 23.01 192.37 22.92C192.78 22.8 193.08 22.6 193.29 22.32C193.5 22.04 193.6 21.69 193.6 21.27C193.6 20.87 193.5 20.52 193.31 20.22C193.12 19.92 192.85 19.71 192.49 19.6C192.13 19.49 191.52 19.43 190.66 19.43H188.26V23.06H188.25ZM188.25 28.62H191.25C191.76 28.62 192.13 28.6 192.33 28.56C192.7 28.49 193 28.39 193.25 28.23C193.5 28.08 193.7 27.85 193.86 27.56C194.02 27.27 194.1 26.93 194.1 26.55C194.1 26.1 193.99 25.71 193.76 25.38C193.53 25.05 193.21 24.82 192.8 24.68C192.39 24.55 191.81 24.48 191.04 24.48H188.26V28.62H188.25Z" fill="white"/>
    <path d="M203.43 28.9601C202.88 29.4201 202.36 29.7501 201.85 29.9401C201.34 30.1301 200.8 30.2301 200.22 30.2301C199.26 30.2301 198.53 30.0001 198.01 29.5301C197.5 29.0601 197.24 28.4601 197.24 27.7401C197.24 27.3101 197.34 26.9201 197.53 26.5701C197.72 26.2201 197.98 25.9301 198.29 25.7201C198.6 25.5101 198.96 25.3501 199.35 25.2401C199.64 25.1601 200.08 25.0901 200.66 25.0201C201.85 24.8801 202.73 24.7101 203.29 24.5101C203.29 24.3101 203.3 24.1801 203.3 24.1201C203.3 23.5201 203.16 23.0901 202.88 22.8501C202.5 22.5201 201.94 22.3501 201.2 22.3501C200.51 22.3501 199.99 22.4701 199.66 22.7201C199.33 22.9601 199.08 23.3901 198.93 24.0101L197.49 23.8101C197.62 23.1901 197.84 22.6901 198.14 22.3101C198.44 21.9301 198.88 21.6401 199.44 21.4301C200.01 21.2201 200.67 21.1201 201.42 21.1201C202.16 21.1201 202.77 21.2101 203.23 21.3801C203.69 21.5501 204.04 21.7801 204.26 22.0401C204.48 22.3101 204.63 22.6401 204.72 23.0501C204.77 23.3001 204.79 23.7601 204.79 24.4101V26.3801C204.79 27.7501 204.82 28.6201 204.88 28.9901C204.94 29.3501 205.07 29.7001 205.25 30.0401H203.71C203.57 29.7301 203.47 29.3701 203.43 28.9601ZM203.3 25.6601C202.76 25.8801 201.96 26.0601 200.89 26.2201C200.28 26.3101 199.85 26.4101 199.6 26.5201C199.35 26.6301 199.15 26.7901 199.02 27.0001C198.88 27.2101 198.81 27.4401 198.81 27.7001C198.81 28.0901 198.96 28.4201 199.26 28.6801C199.56 28.9401 199.99 29.0701 200.57 29.0701C201.14 29.0701 201.65 28.9501 202.09 28.7001C202.53 28.4501 202.86 28.1101 203.07 27.6801C203.23 27.3501 203.31 26.8501 203.31 26.2001V25.6601H203.3Z" fill="white"/>
    <path d="M212.801 30.0301V28.7501C212.121 29.7301 211.201 30.2301 210.041 30.2301C209.531 30.2301 209.041 30.1301 208.601 29.9301C208.151 29.7301 207.821 29.4901 207.611 29.1901C207.391 28.8901 207.241 28.5301 207.151 28.0901C207.091 27.8001 207.061 27.3401 207.061 26.7101V21.3101H208.541V26.1401C208.541 26.9101 208.571 27.4301 208.631 27.7001C208.721 28.0901 208.921 28.3901 209.221 28.6201C209.521 28.8501 209.891 28.9501 210.341 28.9501C210.791 28.9501 211.201 28.8401 211.591 28.6101C211.981 28.3801 212.251 28.0701 212.421 27.6801C212.581 27.2901 212.661 26.7201 212.661 25.9801V21.3101H214.141V30.0201H212.801V30.0301Z" fill="white"/>
    <path d="M216.439 30.03V18.01H217.919V24.87L221.419 21.33H223.329L219.999 24.56L223.669 30.04H221.849L218.969 25.58L217.929 26.58V30.03H216.439Z" fill="white"/>
    <path d="M224.279 25.6801C224.279 24.0701 224.729 22.8701 225.629 22.0901C226.379 21.4401 227.289 21.1201 228.369 21.1201C229.569 21.1201 230.549 21.5101 231.309 22.3001C232.069 23.0901 232.449 24.1701 232.449 25.5501C232.449 26.6701 232.279 27.5501 231.949 28.2001C231.609 28.8401 231.119 29.3401 230.479 29.7001C229.839 30.0601 229.139 30.2301 228.379 30.2301C227.159 30.2301 226.169 29.8401 225.419 29.0601C224.659 28.2801 224.279 27.1501 224.279 25.6801ZM225.799 25.6801C225.799 26.8001 226.039 27.6301 226.529 28.1901C227.019 28.7501 227.629 29.0201 228.369 29.0201C229.099 29.0201 229.709 28.7401 230.199 28.1801C230.689 27.6201 230.929 26.7701 230.929 25.6301C230.929 24.5501 230.679 23.7401 230.199 23.1801C229.719 22.6201 229.099 22.3501 228.369 22.3501C227.629 22.3501 227.019 22.6301 226.529 23.1801C226.049 23.7301 225.799 24.5601 225.799 25.6801Z" fill="white"/>
    <path d="M233.59 27.4299L235.05 27.1999C235.13 27.7899 235.36 28.2299 235.73 28.5499C236.11 28.8599 236.63 29.0199 237.3 29.0199C237.98 29.0199 238.48 28.8799 238.81 28.6099C239.14 28.3399 239.3 28.0099 239.3 27.6399C239.3 27.3099 239.16 27.0399 238.87 26.8499C238.67 26.7199 238.16 26.5499 237.36 26.3499C236.28 26.0799 235.53 25.8399 235.11 25.6399C234.69 25.4399 234.37 25.1599 234.16 24.8099C233.94 24.4599 233.84 24.0699 233.84 23.6399C233.84 23.2499 233.93 22.8899 234.11 22.5599C234.29 22.2299 234.53 21.9499 234.84 21.7399C235.07 21.5699 235.38 21.4299 235.78 21.3099C236.18 21.1899 236.6 21.1299 237.06 21.1299C237.74 21.1299 238.34 21.2299 238.86 21.4299C239.38 21.6299 239.76 21.8899 240 22.2299C240.24 22.5699 240.42 23.0199 240.51 23.5799L239.07 23.7799C239 23.3299 238.81 22.9799 238.5 22.7299C238.19 22.4799 237.74 22.3499 237.17 22.3499C236.49 22.3499 236.01 22.4599 235.72 22.6899C235.43 22.9099 235.28 23.1799 235.28 23.4799C235.28 23.6699 235.34 23.8399 235.46 23.9999C235.58 24.1599 235.77 24.2899 236.03 24.3899C236.18 24.4399 236.61 24.5699 237.33 24.7699C238.37 25.0499 239.1 25.2799 239.52 25.4599C239.93 25.6399 240.26 25.8999 240.49 26.2399C240.72 26.5799 240.84 26.9999 240.84 27.4999C240.84 27.9899 240.7 28.4599 240.41 28.8899C240.12 29.3299 239.71 29.6599 239.17 29.8999C238.63 30.1399 238.02 30.2599 237.33 30.2599C236.2 30.2599 235.33 30.0299 234.74 29.5499C234.13 29.0599 233.75 28.3599 233.59 27.4299Z" fill="white"/>
    <path d="M245.81 28.71L246.02 30.01C245.6 30.1 245.23 30.14 244.9 30.14C244.36 30.14 243.95 30.06 243.65 29.89C243.35 29.72 243.15 29.5 243.03 29.22C242.91 28.94 242.85 28.36 242.85 27.48V22.47H241.77V21.32H242.85V19.16L244.32 18.27V21.31H245.81V22.46H244.32V27.56C244.32 27.98 244.35 28.25 244.4 28.37C244.45 28.49 244.54 28.59 244.65 28.66C244.77 28.73 244.94 28.77 245.15 28.77C245.32 28.77 245.54 28.75 245.81 28.71Z" fill="white"/>
    <path d="M253.22 27.2299L254.75 27.4199C254.51 28.3099 254.06 28.9999 253.41 29.4999C252.76 29.9899 251.93 30.2399 250.92 30.2399C249.64 30.2399 248.63 29.8499 247.89 29.0599C247.14 28.2799 246.77 27.1699 246.77 25.7599C246.77 24.2899 247.15 23.1599 247.9 22.3499C248.65 21.5399 249.63 21.1399 250.84 21.1399C252.01 21.1399 252.96 21.5399 253.69 22.3299C254.43 23.1199 254.8 24.2399 254.8 25.6799C254.8 25.7699 254.8 25.8999 254.79 26.0699H248.29C248.34 27.0299 248.62 27.7599 249.1 28.2699C249.59 28.7799 250.19 29.0299 250.92 29.0299C251.46 29.0299 251.92 28.8899 252.31 28.5999C252.69 28.3099 252.99 27.8499 253.22 27.2299ZM248.37 24.8399H253.24C253.17 24.1099 252.99 23.5599 252.68 23.1899C252.21 22.6199 251.6 22.3399 250.85 22.3399C250.17 22.3399 249.6 22.5699 249.14 23.0199C248.67 23.4699 248.42 24.0799 248.37 24.8399Z" fill="white"/>
    <path d="M256.6 30.0301V21.3201H257.93V22.5601C258.57 21.6001 259.49 21.1201 260.7 21.1201C261.23 21.1201 261.71 21.2101 262.15 21.4001C262.59 21.5901 262.92 21.8401 263.14 22.1401C263.36 22.4501 263.51 22.8101 263.6 23.2301C263.65 23.5001 263.68 23.9801 263.68 24.6701V30.0301H262.2V24.7301C262.2 24.1301 262.14 23.6801 262.03 23.3801C261.92 23.0801 261.71 22.8401 261.42 22.6701C261.13 22.4901 260.78 22.4001 260.39 22.4001C259.76 22.4001 259.22 22.6001 258.76 23.0001C258.3 23.4001 258.08 24.1601 258.08 25.2701V30.0301H256.6Z" fill="white"/>
    <path d="M265.949 19.7V18H267.429V19.7H265.949ZM265.949 30.03V21.32H267.429V30.03H265.949Z" fill="white"/>
    <path d="M269.68 30.0301V21.3201H271.01V22.5601C271.65 21.6001 272.57 21.1201 273.78 21.1201C274.31 21.1201 274.79 21.2101 275.23 21.4001C275.67 21.5901 276 21.8401 276.22 22.1401C276.44 22.4501 276.59 22.8101 276.68 23.2301C276.73 23.5001 276.76 23.9801 276.76 24.6701V30.0301H275.28V24.7301C275.28 24.1301 275.22 23.6801 275.11 23.3801C275 23.0801 274.79 22.8401 274.5 22.6701C274.21 22.4901 273.86 22.4001 273.47 22.4001C272.84 22.4001 272.3 22.6001 271.84 23.0001C271.38 23.4001 271.16 24.1601 271.16 25.2701V30.0301H269.68Z" fill="white"/>
    <path d="M284.67 30.03V28.93C284.12 29.79 283.31 30.23 282.23 30.23C281.53 30.23 280.9 30.04 280.31 29.66C279.72 29.28 279.28 28.74 278.96 28.06C278.64 27.37 278.48 26.58 278.48 25.69C278.48 24.82 278.62 24.03 278.91 23.32C279.2 22.61 279.64 22.07 280.21 21.69C280.79 21.31 281.44 21.12 282.16 21.12C282.68 21.12 283.15 21.23 283.56 21.45C283.97 21.67 284.3 21.96 284.56 22.32V18H286.03V30.03H284.67ZM280.01 25.69C280.01 26.81 280.25 27.64 280.72 28.19C281.19 28.74 281.75 29.02 282.39 29.02C283.04 29.02 283.58 28.76 284.03 28.23C284.48 27.7 284.71 26.9 284.71 25.81C284.71 24.62 284.48 23.74 284.02 23.18C283.56 22.62 282.99 22.34 282.32 22.34C281.66 22.34 281.12 22.61 280.68 23.14C280.24 23.67 280.01 24.53 280.01 25.69Z" fill="white"/>
    <path d="M294.331 27.2299L295.861 27.4199C295.621 28.3099 295.171 28.9999 294.521 29.4999C293.871 29.9899 293.041 30.2399 292.031 30.2399C290.751 30.2399 289.741 29.8499 289.001 29.0599C288.251 28.2799 287.881 27.1699 287.881 25.7599C287.881 24.2899 288.261 23.1599 289.011 22.3499C289.761 21.5399 290.741 21.1399 291.951 21.1399C293.121 21.1399 294.071 21.5399 294.801 22.3299C295.541 23.1199 295.911 24.2399 295.911 25.6799C295.911 25.7699 295.911 25.8999 295.901 26.0699H289.401C289.451 27.0299 289.731 27.7599 290.211 28.2699C290.701 28.7799 291.301 29.0299 292.031 29.0299C292.571 29.0299 293.031 28.8899 293.421 28.5999C293.801 28.3099 294.111 27.8499 294.331 27.2299ZM289.481 24.8399H294.351C294.281 24.1099 294.101 23.5599 293.791 23.1899C293.321 22.6199 292.711 22.3399 291.961 22.3399C291.281 22.3399 290.711 22.5699 290.251 23.0199C289.791 23.4699 289.531 24.0799 289.481 24.8399Z" fill="white"/>
    <path d="M296.73 30.0301L299.91 25.5001L296.96 21.3201H298.81L300.15 23.3601C300.4 23.7501 300.6 24.0701 300.76 24.3401C301 23.9801 301.22 23.6601 301.43 23.3801L302.9 21.3201H304.66L301.65 25.4201L304.89 30.0301H303.08L301.29 27.3201L300.81 26.5901L298.52 30.0301H296.73Z" fill="white"/>
    </svg>