<svg xmlns="http://www.w3.org/2000/svg" width="294" height="50" viewBox="0 0 294 50" fill="none">
    <path d="M56 29.03V17.01H64.7V18.43H57.59V22.11H64.24V23.52H57.59V27.61H64.97V29.03H56Z" fill="white"/>
    <path d="M66.9902 29.0301V20.3201H68.3202V21.5601C68.9602 20.6001 69.8802 20.1201 71.0902 20.1201C71.6202 20.1201 72.1002 20.2101 72.5402 20.4001C72.9802 20.5901 73.3102 20.8401 73.5302 21.1401C73.7502 21.4501 73.9002 21.8101 73.9902 22.2301C74.0402 22.5001 74.0702 22.9801 74.0702 23.6701V29.0301H72.5902V23.7301C72.5902 23.1301 72.5302 22.6801 72.4202 22.3801C72.3102 22.0801 72.1002 21.8401 71.8102 21.6701C71.5202 21.4901 71.1702 21.4001 70.7802 21.4001C70.1502 21.4001 69.6102 21.6001 69.1502 22.0001C68.6902 22.4001 68.4702 23.1601 68.4702 24.2701V29.0301H66.9902Z" fill="white"/>
    <path d="M79.5595 27.71L79.7695 29.01C79.3495 29.1 78.9795 29.14 78.6495 29.14C78.1095 29.14 77.6995 29.06 77.3995 28.89C77.0995 28.72 76.8995 28.5 76.7795 28.22C76.6595 27.94 76.5995 27.36 76.5995 26.48V21.47H75.5195V20.32H76.5995V18.16L78.0695 17.27V20.31H79.5595V21.46H78.0695V26.56C78.0695 26.98 78.0995 27.25 78.1495 27.37C78.1995 27.49 78.2895 27.59 78.3995 27.66C78.5195 27.73 78.6895 27.77 78.8995 27.77C79.0795 27.77 79.2895 27.75 79.5595 27.71Z" fill="white"/>
    <path d="M82.6095 29.0301L79.9395 20.3201H81.4695L82.8595 25.3501L83.3795 27.2201C83.3995 27.1301 83.5495 26.5301 83.8295 25.4201L85.2195 20.3201H86.7395L88.0395 25.3701L88.4695 27.0401L88.9695 25.3601L90.4595 20.3201H91.8995L89.1795 29.0301H87.6395L86.2495 23.8101L85.9095 22.3201L84.1495 29.0201H82.6095V29.0301Z" fill="white"/>
    <path d="M93.1504 18.7V17H94.6304V18.7H93.1504ZM93.1504 29.03V20.32H94.6304V29.03H93.1504Z" fill="white"/>
    <path d="M102.56 25.8401L104.01 26.0301C103.85 27.0301 103.45 27.8101 102.79 28.3801C102.14 28.9501 101.33 29.2301 100.38 29.2301C99.1902 29.2301 98.2302 28.8401 97.5002 28.0601C96.7802 27.2801 96.4102 26.1601 96.4102 24.7101C96.4102 23.7701 96.5702 22.9501 96.8802 22.2401C97.1902 21.5301 97.6702 21.0101 98.3002 20.6501C98.9402 20.3001 99.6302 20.1201 100.38 20.1201C101.33 20.1201 102.1 20.3601 102.7 20.8401C103.3 21.3201 103.69 22.0001 103.86 22.8801L102.42 23.1001C102.28 22.5101 102.04 22.0701 101.69 21.7801C101.34 21.4901 100.92 21.3401 100.43 21.3401C99.6902 21.3401 99.0802 21.6101 98.6202 22.1401C98.1602 22.6701 97.9202 23.5201 97.9202 24.6701C97.9202 25.8401 98.1402 26.6901 98.5902 27.2201C99.0402 27.7501 99.6202 28.0201 100.35 28.0201C100.93 28.0201 101.41 27.8401 101.8 27.4901C102.21 27.1301 102.45 26.5801 102.56 25.8401Z" fill="white"/>
    <path d="M105.279 29.03V17.01H106.759V23.87L110.259 20.33H112.169L108.839 23.56L112.509 29.04H110.689L107.809 24.58L106.769 25.58V29.03H105.279Z" fill="white"/>
    <path d="M113.641 29.03V17.01H115.121V29.04H113.641V29.03Z" fill="white"/>
    <path d="M123.121 29.0301V27.7501C122.441 28.7301 121.521 29.2301 120.361 29.2301C119.851 29.2301 119.361 29.1301 118.921 28.9301C118.471 28.7301 118.141 28.4901 117.931 28.1901C117.711 27.8901 117.561 27.5301 117.471 27.0901C117.411 26.8001 117.381 26.3401 117.381 25.7101V20.3101H118.861V25.1401C118.861 25.9101 118.891 26.4301 118.951 26.7001C119.041 27.0901 119.241 27.3901 119.541 27.6201C119.841 27.8501 120.211 27.9501 120.661 27.9501C121.111 27.9501 121.521 27.8401 121.911 27.6101C122.301 27.3801 122.571 27.0701 122.741 26.6801C122.901 26.2901 122.981 25.7201 122.981 24.9801V20.3101H124.461V29.0201H123.121V29.0301Z" fill="white"/>
    <path d="M126.76 29.0301V20.3201H128.09V21.5601C128.73 20.6001 129.65 20.1201 130.86 20.1201C131.39 20.1201 131.87 20.2101 132.31 20.4001C132.75 20.5901 133.08 20.8401 133.3 21.1401C133.52 21.4501 133.67 21.8101 133.76 22.2301C133.81 22.5001 133.84 22.9801 133.84 23.6701V29.0301H132.36V23.7301C132.36 23.1301 132.3 22.6801 132.19 22.3801C132.08 22.0801 131.87 21.8401 131.58 21.6701C131.29 21.4901 130.94 21.4001 130.55 21.4001C129.92 21.4001 129.38 21.6001 128.92 22.0001C128.46 22.4001 128.24 23.1601 128.24 24.2701V29.0301H126.76Z" fill="white"/>
    <path d="M135.829 29.7601L137.269 29.9701C137.329 30.4101 137.499 30.7401 137.769 30.9401C138.139 31.2101 138.639 31.3501 139.269 31.3501C139.949 31.3501 140.479 31.2101 140.849 30.9401C141.219 30.6701 141.469 30.2801 141.599 29.7901C141.679 29.4901 141.709 28.8601 141.709 27.8901C141.059 28.6501 140.259 29.0301 139.299 29.0301C138.099 29.0301 137.179 28.6001 136.519 27.7301C135.859 26.8601 135.539 25.8301 135.539 24.6201C135.539 23.7901 135.689 23.0201 135.989 22.3201C136.289 21.6201 136.729 21.0701 137.299 20.6901C137.869 20.3101 138.539 20.1201 139.309 20.1201C140.339 20.1201 141.189 20.5401 141.849 21.3701V20.3201H143.209V27.8501C143.209 29.2101 143.069 30.1701 142.789 30.7301C142.509 31.3001 142.079 31.7401 141.479 32.0701C140.879 32.4001 140.139 32.5601 139.269 32.5601C138.229 32.5601 137.389 32.3301 136.749 31.8601C136.119 31.4001 135.809 30.7001 135.829 29.7601ZM137.049 24.5201C137.049 25.6601 137.279 26.5001 137.729 27.0201C138.179 27.5401 138.749 27.8101 139.439 27.8101C140.119 27.8101 140.689 27.5501 141.149 27.0301C141.609 26.5101 141.839 25.6901 141.839 24.5701C141.839 23.5001 141.599 22.7001 141.129 22.1601C140.659 21.6201 140.089 21.3501 139.419 21.3501C138.759 21.3501 138.209 21.6201 137.749 22.1501C137.279 22.6801 137.049 23.4701 137.049 24.5201Z" fill="white"/>
    <path d="M152.541 29.0301L149.221 20.3201H150.781L152.651 25.5401C152.851 26.1001 153.041 26.6901 153.211 27.3001C153.341 26.8401 153.521 26.2901 153.761 25.6401L155.701 20.3201H157.221L153.921 29.0301H152.541Z" fill="white"/>
    <path d="M157.971 24.6801C157.971 23.0701 158.421 21.8701 159.321 21.0901C160.071 20.4401 160.981 20.1201 162.061 20.1201C163.261 20.1201 164.241 20.5101 165.001 21.3001C165.761 22.0901 166.141 23.1701 166.141 24.5501C166.141 25.6701 165.971 26.5501 165.641 27.2001C165.301 27.8401 164.811 28.3401 164.171 28.7001C163.531 29.0601 162.831 29.2301 162.071 29.2301C160.851 29.2301 159.861 28.8401 159.111 28.0601C158.341 27.2801 157.971 26.1501 157.971 24.6801ZM159.491 24.6801C159.491 25.8001 159.731 26.6301 160.221 27.1901C160.711 27.7501 161.321 28.0201 162.061 28.0201C162.791 28.0201 163.401 27.7401 163.891 27.1801C164.381 26.6201 164.621 25.7701 164.621 24.6301C164.621 23.5501 164.371 22.7401 163.891 22.1801C163.411 21.6201 162.791 21.3501 162.061 21.3501C161.321 21.3501 160.711 21.6301 160.221 22.1801C159.731 22.7301 159.491 23.5601 159.491 24.6801Z" fill="white"/>
    <path d="M167.859 29.0301V20.3201H169.179V21.5401C169.449 21.1101 169.819 20.7701 170.269 20.5101C170.719 20.2501 171.239 20.1201 171.819 20.1201C172.469 20.1201 172.989 20.2501 173.409 20.5201C173.819 20.7901 174.109 21.1601 174.279 21.6401C174.969 20.6201 175.869 20.1101 176.969 20.1101C177.829 20.1101 178.499 20.3501 178.959 20.8301C179.419 21.3101 179.659 22.0501 179.659 23.0401V29.0201H178.189V23.5301C178.189 22.9401 178.139 22.5101 178.049 22.2501C177.959 21.9901 177.779 21.7801 177.529 21.6201C177.279 21.4601 176.979 21.3801 176.639 21.3801C176.029 21.3801 175.519 21.5801 175.109 21.9901C174.699 22.4001 174.499 23.0501 174.499 23.9501V29.0101H173.019V23.3501C173.019 22.6901 172.899 22.2001 172.659 21.8701C172.419 21.5401 172.029 21.3801 171.479 21.3801C171.059 21.3801 170.679 21.4901 170.329 21.7101C169.979 21.9301 169.719 22.2501 169.559 22.6701C169.399 23.0901 169.319 23.7001 169.319 24.4901V29.0101H167.859V29.0301Z" fill="white"/>
    <path d="M186.67 29.03V17.01H189.07L191.92 25.53C192.18 26.32 192.37 26.92 192.49 27.31C192.63 26.87 192.84 26.23 193.13 25.38L196.01 17.01H198.15V29.04H196.62V18.97L193.12 29.04H191.68L188.2 18.8V29.04H186.67V29.03Z" fill="white"/>
    <path d="M200.539 18.7V17H202.019V18.7H200.539ZM200.539 29.03V20.32H202.019V29.03H200.539Z" fill="white"/>
    <path d="M210.229 26.2299L211.759 26.4199C211.519 27.3099 211.069 27.9999 210.419 28.4999C209.769 28.9899 208.939 29.2399 207.929 29.2399C206.649 29.2399 205.639 28.8499 204.899 28.0599C204.149 27.2799 203.779 26.1699 203.779 24.7599C203.779 23.2899 204.159 22.1599 204.909 21.3499C205.659 20.5399 206.639 20.1399 207.849 20.1399C209.019 20.1399 209.969 20.5399 210.699 21.3299C211.439 22.1199 211.809 23.2399 211.809 24.6799C211.809 24.7699 211.809 24.8999 211.799 25.0699H205.299C205.349 26.0299 205.629 26.7599 206.109 27.2699C206.599 27.7799 207.199 28.0299 207.929 28.0299C208.469 28.0299 208.929 27.8899 209.319 27.5999C209.699 27.3099 209.999 26.8499 210.229 26.2299ZM205.379 23.8399H210.249C210.179 23.1099 209.999 22.5599 209.689 22.1899C209.219 21.6199 208.609 21.3399 207.859 21.3399C207.179 21.3399 206.609 21.5699 206.149 22.0199C205.679 22.4699 205.429 23.0799 205.379 23.8399Z" fill="white"/>
    <path d="M216.829 27.71L217.039 29.01C216.619 29.1 216.249 29.14 215.919 29.14C215.379 29.14 214.969 29.06 214.669 28.89C214.369 28.72 214.169 28.5 214.049 28.22C213.929 27.94 213.869 27.36 213.869 26.48V21.47H212.789V20.32H213.869V18.16L215.339 17.27V20.31H216.829V21.46H215.339V26.56C215.339 26.98 215.369 27.25 215.419 27.37C215.469 27.49 215.559 27.59 215.669 27.66C215.789 27.73 215.959 27.77 216.169 27.77C216.349 27.77 216.569 27.75 216.829 27.71Z" fill="white"/>
    <path d="M218.279 32.3701V20.3201H219.629V21.4501C219.949 21.0101 220.309 20.6701 220.709 20.4501C221.109 20.2301 221.589 20.1201 222.159 20.1201C222.899 20.1201 223.559 20.3101 224.129 20.6901C224.699 21.0701 225.129 21.6101 225.419 22.3101C225.709 23.0101 225.849 23.7701 225.849 24.6001C225.849 25.4901 225.689 26.2901 225.369 27.0101C225.049 27.7201 224.589 28.2701 223.979 28.6501C223.369 29.0301 222.729 29.2201 222.059 29.2201C221.569 29.2201 221.129 29.1201 220.729 28.9101C220.339 28.7001 220.019 28.4401 219.769 28.1201V32.3601H218.279V32.3701ZM219.609 24.7301C219.609 25.8501 219.839 26.6801 220.289 27.2201C220.739 27.7601 221.289 28.0201 221.939 28.0201C222.599 28.0201 223.159 27.7401 223.629 27.1901C224.099 26.6301 224.329 25.7701 224.329 24.6101C224.329 23.5001 224.099 22.6701 223.639 22.1201C223.179 21.5701 222.639 21.2901 221.999 21.2901C221.369 21.2901 220.809 21.5801 220.329 22.1701C219.859 22.7501 219.609 23.6101 219.609 24.7301Z" fill="white"/>
    <path d="M227.609 29.0301V20.3201H228.939V21.6401C229.279 21.0201 229.589 20.6101 229.879 20.4201C230.169 20.2301 230.479 20.1201 230.829 20.1201C231.329 20.1201 231.829 20.2801 232.349 20.6001L231.839 21.9701C231.479 21.7601 231.119 21.6501 230.759 21.6501C230.439 21.6501 230.149 21.7501 229.889 21.9401C229.629 22.1301 229.449 22.4001 229.339 22.7501C229.179 23.2801 229.089 23.8501 229.089 24.4701V29.0301H227.609Z" fill="white"/>
    <path d="M239.18 26.2299L240.71 26.4199C240.47 27.3099 240.02 27.9999 239.37 28.4999C238.72 28.9899 237.89 29.2399 236.88 29.2399C235.6 29.2399 234.59 28.8499 233.85 28.0599C233.1 27.2799 232.73 26.1699 232.73 24.7599C232.73 23.2899 233.11 22.1599 233.86 21.3499C234.61 20.5399 235.59 20.1399 236.8 20.1399C237.97 20.1399 238.92 20.5399 239.65 21.3299C240.39 22.1199 240.76 23.2399 240.76 24.6799C240.76 24.7699 240.76 24.8999 240.75 25.0699H234.25C234.3 26.0299 234.58 26.7599 235.06 27.2699C235.55 27.7799 236.15 28.0299 236.88 28.0299C237.42 28.0299 237.88 27.8899 238.27 27.5999C238.66 27.3099 238.96 26.8499 239.18 26.2299ZM234.33 23.8399H239.2C239.13 23.1099 238.95 22.5599 238.64 22.1899C238.17 21.6199 237.56 21.3399 236.81 21.3399C236.13 21.3399 235.56 21.5699 235.1 22.0199C234.64 22.4699 234.38 23.0799 234.33 23.8399Z" fill="white"/>
    <path d="M242.57 18.7V17H244.05V18.7H242.57ZM242.57 29.03V20.32H244.05V29.03H242.57Z" fill="white"/>
    <path d="M245.711 26.4299L247.171 26.1999C247.251 26.7899 247.481 27.2299 247.851 27.5499C248.231 27.8599 248.751 28.0199 249.421 28.0199C250.101 28.0199 250.601 27.8799 250.931 27.6099C251.261 27.3299 251.421 27.0099 251.421 26.6399C251.421 26.3099 251.281 26.0399 250.991 25.8499C250.791 25.7199 250.281 25.5499 249.481 25.3499C248.401 25.0799 247.651 24.8399 247.231 24.6399C246.811 24.4399 246.491 24.1599 246.281 23.8099C246.061 23.4599 245.961 23.0699 245.961 22.6399C245.961 22.2499 246.051 21.8899 246.231 21.5599C246.411 21.2299 246.651 20.9499 246.961 20.7399C247.191 20.5699 247.501 20.4299 247.901 20.3099C248.301 20.1899 248.721 20.1299 249.181 20.1299C249.861 20.1299 250.461 20.2299 250.981 20.4299C251.501 20.6299 251.881 20.8899 252.121 21.2299C252.361 21.5699 252.541 22.0199 252.631 22.5799L251.191 22.7799C251.121 22.3299 250.931 21.9799 250.621 21.7299C250.311 21.4799 249.861 21.3499 249.291 21.3499C248.611 21.3499 248.131 21.4599 247.841 21.6899C247.551 21.9099 247.401 22.1799 247.401 22.4799C247.401 22.6699 247.461 22.8399 247.581 22.9999C247.701 23.1599 247.891 23.2899 248.151 23.3899C248.301 23.4399 248.731 23.5699 249.451 23.7699C250.491 24.0499 251.221 24.2799 251.641 24.4599C252.051 24.6399 252.381 24.8999 252.611 25.2399C252.841 25.5799 252.961 25.9999 252.961 26.4999C252.961 26.9899 252.821 27.4599 252.531 27.8899C252.241 28.3299 251.831 28.6599 251.291 28.8999C250.751 29.1399 250.141 29.2599 249.451 29.2599C248.321 29.2599 247.451 29.0299 246.861 28.5499C246.251 28.0599 245.871 27.3599 245.711 26.4299Z" fill="white"/>
    <path d="M254.711 18.7V17H256.191V18.7H254.711ZM254.711 29.03V20.32H256.191V29.03H254.711Z" fill="white"/>
    <path d="M258.43 29.0301V20.3201H259.76V21.5601C260.4 20.6001 261.32 20.1201 262.53 20.1201C263.06 20.1201 263.54 20.2101 263.98 20.4001C264.42 20.5901 264.75 20.8401 264.97 21.1401C265.19 21.4501 265.34 21.8101 265.43 22.2301C265.48 22.5001 265.51 22.9801 265.51 23.6701V29.0301H264.03V23.7301C264.03 23.1301 263.97 22.6801 263.86 22.3801C263.75 22.0801 263.54 21.8401 263.25 21.6701C262.96 21.4901 262.61 21.4001 262.22 21.4001C261.59 21.4001 261.05 21.6001 260.59 22.0001C260.13 22.4001 259.91 23.1601 259.91 24.2701V29.0301H258.43Z" fill="white"/>
    <path d="M273.43 29.03V27.93C272.88 28.79 272.07 29.23 270.99 29.23C270.29 29.23 269.66 29.04 269.07 28.66C268.48 28.28 268.04 27.74 267.72 27.06C267.4 26.37 267.24 25.58 267.24 24.69C267.24 23.82 267.38 23.03 267.67 22.32C267.96 21.61 268.4 21.07 268.97 20.69C269.55 20.31 270.2 20.12 270.92 20.12C271.44 20.12 271.91 20.23 272.32 20.45C272.73 20.67 273.06 20.96 273.32 21.32V17H274.79V29.03H273.43ZM268.76 24.69C268.76 25.81 269 26.64 269.47 27.19C269.94 27.74 270.5 28.02 271.14 28.02C271.79 28.02 272.33 27.76 272.78 27.23C273.23 26.7 273.46 25.9 273.46 24.81C273.46 23.62 273.23 22.74 272.77 22.18C272.31 21.62 271.74 21.34 271.07 21.34C270.41 21.34 269.87 21.61 269.43 22.14C268.99 22.67 268.76 23.53 268.76 24.69Z" fill="white"/>
    <path d="M283.091 26.2299L284.621 26.4199C284.381 27.3099 283.931 27.9999 283.281 28.4999C282.631 28.9899 281.801 29.2399 280.791 29.2399C279.511 29.2399 278.501 28.8499 277.761 28.0599C277.011 27.2799 276.641 26.1699 276.641 24.7599C276.641 23.2899 277.021 22.1599 277.771 21.3499C278.521 20.5399 279.501 20.1399 280.711 20.1399C281.881 20.1399 282.831 20.5399 283.561 21.3299C284.301 22.1199 284.671 23.2399 284.671 24.6799C284.671 24.7699 284.671 24.8999 284.661 25.0699H278.161C278.211 26.0299 278.491 26.7599 278.971 27.2699C279.461 27.7799 280.061 28.0299 280.791 28.0299C281.331 28.0299 281.791 27.8899 282.181 27.5999C282.561 27.3099 282.871 26.8499 283.091 26.2299ZM278.241 23.8399H283.111C283.041 23.1099 282.861 22.5599 282.551 22.1899C282.081 21.6199 281.471 21.3399 280.721 21.3399C280.041 21.3399 279.471 21.5699 279.011 22.0199C278.551 22.4699 278.291 23.0799 278.241 23.8399Z" fill="white"/>
    <path d="M285.49 29.0301L288.67 24.5001L285.72 20.3201H287.57L288.91 22.3601C289.16 22.7501 289.36 23.0701 289.52 23.3401C289.76 22.9801 289.98 22.6601 290.19 22.3801L291.66 20.3201H293.42L290.41 24.4201L293.65 29.0301H291.84L290.05 26.3201L289.57 25.5901L287.28 29.0301H285.49Z" fill="white"/>
    <path d="M42.5 5.33608C24 -1.84964 12 1.1504 1.01889 5.33603C0.518886 34.836 10 43.1505 23.0181 48.336C44.0188 35.336 42 24.8361 42.5 5.33608Z" fill="#DC0018"/>
    <path d="M27 8.65039H18V35.6504H27V8.65039Z" fill="white"/>
    <path d="M36 26.6504V17.6504H8V26.6504H36Z" fill="white"/>
    </svg>