<svg xmlns="http://www.w3.org/2000/svg" xmlns:xlink="http://www.w3.org/1999/xlink" version="1.1" id="Layer_1" x="0px" y="0px" viewBox="0 0 369.3 82" style="enable-background:new 0 0 369.3 82;" xml:space="preserve">
    <style type="text/css">
        .stubs0{fill:#00FECF;}
        .stubs1{fill:#FFFFFF;}
        .stubs2{fill:#333333;enable-background:new    ;}
        .stubs3{fill:#D22F7D;}
        .stubs4{fill:#98297D;}
        .stubs5{fill:#91A5D1;}
        .stubs6{fill:#E59535;}
        .stubs7{fill:#E6A0AA;}
        .stubs8{fill:#67BDAB;}
        .stubs9{fill:#D22D1F;}
    </style>
    <g>
        <path class="stubs9" d="M197.9,46.8c0,11.7-6.4,13.1-12.8,13.1c-10.9,0-13.3-5.7-13.3-13.6V23.6h-4.1v-2.2h15.4v2.2h-4.3v22   c0,7.7,2,11.7,7.6,11.7c5.7,0,8.5-2.8,8.5-10.9V23.6h-4.1v-2.2h10.9v2.2h-3.7L197.9,46.8z M208.6,57.2V23.6h-4.3v-2.2h17   c7.2,0,10.8,4.1,10.8,8.8c0,5.2-4.7,8-8.7,8.8c8,0.7,10.2,5.9,10.2,9.7c0,7.7-6.6,10.7-13,10.7h-16.5v-2.2   C204.1,57.2,208.6,57.2,208.6,57.2z M225.2,30.7c0-3.6-1.8-7.1-5.9-7.1h-4.4v14.6h3.9C223.2,38.2,225.2,34.6,225.2,30.7z    M226.7,48.9c0-5-2.2-8.5-7.2-8.5h-4.3v17h3.6C224,57.2,226.7,54,226.7,48.9z M250.6,23.1c-4.1,0-6.6,2.3-6.6,6.5   c0,3.7,4.1,5.5,8,6.9c2.3,0.9,5.3,2,7.4,3.8c2.2,2.1,3.4,4.9,3.3,8.5c-0.1,6.6-4.8,11.2-13,11.2c-3.1,0-7.9-0.7-10.7-2.3l-0.4-10   h2.5c0.2,6.8,3.3,10.2,8.8,10.2c4.4,0,6.9-2.9,6.9-7.5c0-3.9-3.2-5.5-8.1-7.2c-1.6-0.5-4.8-1.7-7-3.9c-2-2-2.9-4.5-2.9-7.1   c0-7.7,5.5-11.2,12.4-11.2c2.7,0,6.8,1,9.2,2.3l0.2,8.7h-2.5C257.8,25.8,255.1,23.1,250.6,23.1z"/>
        <path d="M148.5,29.1l-1,0.9l1.1,3.6l-3.2-1.7l-1.1,0.9l3.6,2l-3.8,3.1l-1-1.4l1.4-1.1l-1-1.2l-1.4,1.1l-1.1-1.5l1.4-1.1l-1-1.4   l-6.9,5.8l6.6,5.3l1.2-1.5c0.9,0,1.5,0.7,1.8,1.5l-1.2,1.5l0.7,0.6c1.6-1.5,3.8-2.5,6-2.5c4.7,0,8.2,3.8,8.2,8.5   c0,1.5-0.4,3.2-1.2,4.5l1.2,1c0,0.9-0.9,1.8-1.7,2.1l-1.2-1c-1.6,1.6-3.8,2.5-6,2.5c-4.7,0-8.2-3.7-8.2-8.4c0-1.5,0.5-3.1,1.1-4.4   L141,46l-1.2,1.6c-0.9-0.1-1.6-0.7-1.8-1.6l1.2-1.4l-5.5-4.7v7.4h1.8c0.2,0.4,0.4,0.7,0.4,1.1c0,0.4-0.1,0.9-0.4,1.2h-1.8v0.9   c4.1,0.7,7.5,4.2,7.5,8.4c0,4.3-3.3,7.7-7.5,8.5v1.5c-0.4,0.2-0.9,0.4-1.4,0.4s-1.1-0.1-1.5-0.4v-1.5c-4.2-0.6-7.4-4.2-7.4-8.5   c0-4.2,3.2-7.6,7.4-8.2v-1h-2c-0.2-0.4-0.4-0.7-0.4-1.2c0-0.5,0.1-0.9,0.4-1.2h2v-7.4l-5.7,4.7l1.2,1.4c-0.2,0.9-1,1.5-1.8,1.6   l-1.2-1.6l-0.7,0.7c0.7,1.4,1.2,2.8,1.2,4.4c0,4.7-3.7,8.4-8.2,8.4c-2.2,0-4.4-0.9-6-2.5l-1.2,1c-0.7-0.2-1.6-1.2-1.7-2.1l1.2-1   c-0.7-1.4-1.2-2.9-1.2-4.5c0-4.7,3.6-8.5,8.2-8.5c2.2,0,4.4,1,6,2.5l0.7-0.5l-1.2-1.5c0.2-0.7,1-1.4,1.8-1.5l1.2,1.5l6.6-5.3   l-6.9-5.8l-1,1.4l1.4,1.1l-1,1.4l-1.4-1.1l-1,1.2l1.1,0.9l-1,1.4l-3.7-3.1l3.4-2l-1-0.9l-3.2,1.7l1-3.3l-1-0.9l-1.2,3.8l-3.8-3.1   l1-1.2l1.4,1.1l1.1-1.2l-1.4-1.2l1-1.2l1.4,1l1-1.2l-2.9-2.2c0.2-1,0.9-1.7,1.8-2.3L130.8,34v-8.5h-1.6v1.6h-1.6v-1.6h-1.6v1.6   h-1.6v-4.8l3.7,1.6v-1.4l-3.4-1.5l3.4-1.4v-1.2l-3.7,1.5v-4.9h1.6v1.7h1.6v-1.7h1.6v1.7h1.6V13c0.5-0.1,1-0.2,1.5-0.2   s1,0.1,1.4,0.2v21l15.6-12.8c0.9,0.6,1.5,1.4,1.8,2.3l-2.9,2.3l1,1.2l1.4-1l1,1.2l-1.4,1.2l1,1.2l1.4-1.1l1,1.2l-3.8,3.1   C149.6,33,148.5,29.1,148.5,29.1z M116.7,52.2c0,1.4,1,2.2,2.2,2.3l-2,1.5c-1.4-0.5-2.6-2.1-2.6-3.6c0-0.5,0.1-0.7,0.2-1.1h-0.4   c-1.8,0-3.3-1.7-3.7-3.4l2.1-1.6v0.6c0,1.1,1.1,2.1,2.2,2.1c1.2,0,2.3-1,2.3-2.2c0-1.5-1.1-2.5-2.6-2.5c-2.7,0-5.4,2.7-5.4,6.1   c0,1,0.2,2,0.6,2.8l1.2-1c0.9,0.4,1.5,1.2,1.7,2.2l-1.2,1c1.2,1,2.7,1.5,4.2,1.5c3.2,0,5.7-2.6,5.7-4.8c0-1.4-0.9-2.5-2.2-2.5   C117.7,50,116.7,51,116.7,52.2z M133.4,57.1c0,1.2,1,2.2,2.2,2.2c0.9,0,1.2-0.4,1.8-0.9V61c-0.6,0.4-1.2,0.5-2,0.5   c-1.4,0-2.5-0.4-3.2-1.6c-0.7,1.2-2,1.6-3.3,1.6c-0.6,0-1.4-0.1-2-0.5v-2.6c0.6,0.6,1,0.9,1.8,0.9c1.2,0,2.2-1,2.2-2.2   s-0.7-2.2-2.1-2.2c-2.3,0-3.3,2.2-3.3,4.3c0,2.9,2.2,5.5,5,6v-1.5c0.5-0.2,1-0.2,1.4-0.2c0.5,0,1,0,1.5,0.2v1.5c2.7-0.4,5-3.2,5-6   c0-2.1-0.9-4.3-3.3-4.3C134.3,54.8,133.4,55.9,133.4,57.1z M147.4,46.9c0,1.1,1.2,2.2,2.3,2.2c1.1,0,2.2-1,2.2-2.1v-0.6l2,1.6   c-0.4,2-2.1,3.6-4.1,3.4c0.1,0.4,0.1,0.7,0.1,1.1c0,1.5-1.2,3.1-2.6,3.6l-1.8-1.6c1.2-0.1,2.2-1,2.2-2.3s-1.1-2.2-2.3-2.2   c-1.4,0-2.2,1.1-2.2,2.5c0,1.6,2,4.8,5.8,4.8c1.5,0,2.9-0.5,4.1-1.5l-1.2-1c0.2-1,0.9-1.8,1.7-2.2l1.2,1c0.5-0.9,0.7-1.8,0.7-2.8   c0-2.7-2.1-6.1-5.4-6.1C148.7,44.6,147.4,45.4,147.4,46.9z"/>
    </g>
    </svg>