<svg xmlns="http://www.w3.org/2000/svg" xmlns:xlink="http://www.w3.org/1999/xlink" version="1.1" id="Layer_1" x="0px" y="0px" viewBox="0 0 320.24 91.85" style="enable-background:new 0 0 320.24 91.85;" xml:space="preserve">
    <style type="text/css">
        .st0{fill:#67BDAB;}
        .st1{fill:none;}
        .st2{fill:#D22F7D;}
        .st3{fill:#98297D;}
        .st4{fill:#91A5D1;}
        .st5{fill:#E59535;}
        .st6{fill:#E6A0AA;}
        .st7{fill:#1D1D1B;}
        .st8{fill:#3377A6;}
        .st9{fill:#5AA7DB;}
        .st101{fill:#D22D1F;}
    </style>
    <g>
        <path class="st101" d="M170.92,50.62c0,9.5-5.2,10.7-10.4,10.7c-8.9,0-10.8-4.6-10.8-11.1v-18.5h-3.3v-1.8h12.5v1.8h-3.5v17.9   c0,6.3,1.6,9.5,6.2,9.5c4.6,0,6.9-2.3,6.9-8.9v-18.5h-3.3v-1.8h8.9v1.8h-3L170.92,50.62z M179.62,59.12v-27.4h-3.5v-1.8h13.8   c5.9,0,8.8,3.3,8.8,7.2c0,4.2-3.8,6.5-7.1,7.2c6.5,0.6,8.3,4.8,8.3,7.9c0,6.3-5.4,8.7-10.6,8.7h-13.4v-1.8   C175.92,59.12,179.62,59.12,179.62,59.12z M193.12,37.52c0-2.9-1.5-5.8-4.8-5.8h-3.6v11.9h3.2   C191.52,43.62,193.12,40.72,193.12,37.52z M194.32,52.32c0-4.1-1.8-6.9-5.9-6.9h-3.5v13.8h2.9   C192.12,59.12,194.32,56.52,194.32,52.32z M213.82,31.32c-3.3,0-5.4,1.9-5.4,5.3c0,3,3.3,4.5,6.5,5.6c1.9,0.7,4.3,1.6,6,3.1   c1.8,1.7,2.8,4,2.7,6.9c-0.1,5.4-3.9,9.1-10.6,9.1c-2.5,0-6.4-0.6-8.7-1.9l-0.3-8.1h2c0.2,5.5,2.7,8.3,7.2,8.3   c3.6,0,5.6-2.4,5.6-6.1c0-3.2-2.6-4.5-6.6-5.9c-1.3-0.4-3.9-1.4-5.7-3.2c-1.6-1.6-2.4-3.7-2.4-5.8c0-6.3,4.5-9.1,10.1-9.1   c2.2,0,5.5,0.8,7.5,1.9l0.2,7.1h-2C219.62,33.52,217.42,31.32,213.82,31.32z"/>
        <path d="M130.72,36.22l-0.8,0.7l0.9,2.9l-2.6-1.4l-0.9,0.7l2.9,1.6l-3.1,2.5l-0.8-1.1l1.1-0.9l-0.8-1l-1.1,0.9l-0.9-1.2l1.1-0.9   l-0.8-1.1l-5.6,4.7l5.4,4.3l1-1.2c0.7,0,1.2,0.6,1.5,1.2l-1,1.2l0.6,0.5c1.3-1.2,3.1-2,4.9-2c3.8,0,6.7,3.1,6.7,6.9   c0,1.2-0.3,2.6-1,3.7l1,0.8c0,0.7-0.7,1.5-1.4,1.7l-1-0.8c-1.3,1.3-3.1,2-4.9,2c-3.8,0-6.7-3-6.7-6.8c0-1.2,0.4-2.5,0.9-3.6   l-0.7-0.5l-1,1.3c-0.7-0.1-1.3-0.6-1.5-1.3l1-1.1l-4.5-3.8v6h1.5c0.2,0.3,0.3,0.6,0.3,0.9s-0.1,0.7-0.3,1h-1.5v0.7   c3.3,0.6,6.1,3.4,6.1,6.8c0,3.5-2.7,6.3-6.1,6.9v1.2c-0.3,0.2-0.7,0.3-1.1,0.3s-0.9-0.1-1.2-0.3v-1.2c-3.4-0.5-6-3.4-6-6.9   c0-3.4,2.6-6.2,6-6.7v-0.8h-1.6c-0.2-0.3-0.3-0.6-0.3-1c0-0.4,0.1-0.7,0.3-1h1.6v-6l-4.6,3.8l1,1.1c-0.2,0.7-0.8,1.2-1.5,1.3   l-1-1.3l-0.6,0.6c0.6,1.1,1,2.3,1,3.6c0,3.8-3,6.8-6.7,6.8c-1.8,0-3.6-0.7-4.9-2l-1,0.8c-0.6-0.2-1.3-1-1.4-1.7l1-0.8   c-0.6-1.1-1-2.4-1-3.7c0-3.8,2.9-6.9,6.7-6.9c1.8,0,3.6,0.8,4.9,2l0.6-0.4l-1-1.2c0.2-0.6,0.8-1.1,1.5-1.2l1,1.2l5.4-4.3l-5.6-4.7   l-0.8,1.1l1.1,0.9l-0.8,1.1l-1.1-0.9l-0.8,1l0.9,0.7l-0.8,1.1l-3-2.5l2.8-1.6l-0.8-0.7l-2.6,1.4l0.8-2.7l-0.8-0.7l-1,3.1l-3.1-2.5   l0.8-1l1.1,0.9l0.9-1l-1.1-1l0.8-1l1.1,0.8l0.8-1l-2.4-1.8c0.2-0.8,0.7-1.4,1.5-1.9l12.7,10.4v-6.9h-1.3v1.3h-1.3v-1.3h-1.3v1.3   h-1.3v-3.9l3,1.3v-1.1l-2.8-1.2l2.8-1.1v-1l-3,1.2v-4h1.3v1.4h1.3v-1.4h1.3v1.4h1.3v-3.1c0.4-0.1,0.8-0.2,1.2-0.2s0.8,0.1,1.1,0.2   v17.1l12.7-10.4c0.7,0.5,1.2,1.1,1.5,1.9l-2.4,1.9l0.8,1l1.1-0.8l0.8,1l-1.1,1l0.8,1l1.1-0.9l0.8,1l-3.1,2.5   C131.62,39.42,130.72,36.22,130.72,36.22z M104.82,55.02c0,1.1,0.8,1.8,1.8,1.9l-1.6,1.2c-1.1-0.4-2.1-1.7-2.1-2.9   c0-0.4,0.1-0.6,0.2-0.9h-0.3c-1.5,0-2.7-1.4-3-2.8l1.7-1.3v0.5c0,0.9,0.9,1.7,1.8,1.7c1,0,1.9-0.8,1.9-1.8c0-1.2-0.9-2-2.1-2   c-2.2,0-4.4,2.2-4.4,5c0,0.8,0.2,1.6,0.5,2.3l1-0.8c0.7,0.3,1.2,1,1.4,1.8l-1,0.8c1,0.8,2.2,1.2,3.4,1.2c2.6,0,4.6-2.1,4.6-3.9   c0-1.1-0.7-2-1.8-2C105.62,53.22,104.82,54.02,104.82,55.02z M118.42,59.02c0,1,0.8,1.8,1.8,1.8c0.7,0,1-0.3,1.5-0.7v2.1   c-0.5,0.3-1,0.4-1.6,0.4c-1.1,0-2-0.3-2.6-1.3c-0.6,1-1.6,1.3-2.7,1.3c-0.5,0-1.1-0.1-1.6-0.4v-2.1c0.5,0.5,0.8,0.7,1.5,0.7   c1,0,1.8-0.8,1.8-1.8s-0.6-1.8-1.7-1.8c-1.9,0-2.7,1.8-2.7,3.5c0,2.4,1.8,4.5,4.1,4.9v-1.2c0.4-0.2,0.8-0.2,1.1-0.2   c0.4,0,0.8,0,1.2,0.2v1.2c2.2-0.3,4.1-2.6,4.1-4.9c0-1.7-0.7-3.5-2.7-3.5C119.12,57.12,118.42,58.02,118.42,59.02z M129.82,50.72   c0,0.9,1,1.8,1.9,1.8c0.9,0,1.8-0.8,1.8-1.7v-0.5l1.6,1.3c-0.3,1.6-1.7,2.9-3.3,2.8c0.1,0.3,0.1,0.6,0.1,0.9c0,1.2-1,2.5-2.1,2.9   l-1.5-1.3c1-0.1,1.8-0.8,1.8-1.9s-0.9-1.8-1.9-1.8c-1.1,0-1.8,0.9-1.8,2c0,1.3,1.6,3.9,4.7,3.9c1.2,0,2.4-0.4,3.3-1.2l-1-0.8   c0.2-0.8,0.7-1.5,1.4-1.8l1,0.8c0.4-0.7,0.6-1.5,0.6-2.3c0-2.2-1.7-5-4.4-5C130.82,48.82,129.82,49.52,129.82,50.72z"/>
    </g>
    </svg>