<svg xmlns="http://www.w3.org/2000/svg" xmlns:xlink="http://www.w3.org/1999/xlink" version="1.1" id="Layer_1" x="0px" y="0px" viewBox="0 0 369.3 82" style="enable-background:new 0 0 369.3 82;" xml:space="preserve">
    <style type="text/css">
        .sthomegateDark0{fill:#00FECF;}
        .sthomegateDark1{fill:#FFFFFF;}
        .sthomegateDark2{fill:#333333;enable-background:new    ;}
        .sthomegateDark3{fill:#D22F7D;}
        .sthomegateDark4{fill:#98297D;}
        .sthomegateDark5{fill:#91A5D1;}
        .sthomegateDark6{fill:#E59535;}
        .sthomegateDark7{fill:#E6A0AA;}
        .sthomegateDark8{fill:#67BDAB;}
    </style>
    <g>
        <path class="sthomegateDark3" d="M79.9,41l9.7-9.7l9.7,9.7l-9.7,9.7L79.9,41z"/>
        <path class="sthomegateDark4" d="M89.6,50.7l9.7-9.7l9.7,9.7l-9.7,9.7L89.6,50.7z"/>
        <path class="sthomegateDark5" d="M70.2,50.7l9.7-9.7l9.7,9.7l-9.7,9.7L70.2,50.7z"/>
        <path class="sthomegateDark6" d="M70.2,31.3l9.7-9.7l9.7,9.7L79.9,41L70.2,31.3z"/>
        <path class="sthomegateDark7" d="M89.6,31.3l9.7-9.7l9.7,9.7L99.3,41L89.6,31.3z"/>
        <path class="sthomegateDark1" d="M125.4,33.1h-2.3v-2.6h5.2v8.3c1.2-1.7,3.1-2.3,4.9-2.3c4.2,0,6.3,2.9,6.3,7.1v5.3h2.3v2.6h-7v-2.6h1.8v-5.3   c0-2.7-1.5-4.4-3.9-4.3c-2.6,0-4.3,2-4.3,4.5V49h2.3v2.6H123V49h2.4L125.4,33.1L125.4,33.1z M150.6,39.1c-2.9,0-4.8,2.1-4.8,5.1   c0,2.8,1.9,4.9,4.8,4.9c2.9,0,4.8-2.1,4.8-4.9C155.4,41.2,153.4,39.1,150.6,39.1 M150.6,36.4c4.7,0,7.8,3.3,7.8,7.8   c0,4.4-3.1,7.7-7.8,7.7c-4.6,0-7.7-3.3-7.7-7.7C142.9,39.7,146.1,36.4,150.6,36.4 M160.2,51.5v-2.7h2.4v-9.5h-2.3v-2.6h5.1l0.3,2   c0.8-1.6,2.6-2.2,4.1-2.2c2.4,0,4,0.8,4.7,3c1.2-2.1,3.1-3,5.1-3c4.3,0,6.2,2.6,6.2,6.8v5.6h2.4v2.7h-7.5v-2.7h2.2v-5.6   c0-2.3-0.9-3.9-3.4-3.9c-2.2,0-3.7,1.9-3.7,4v5.6h2.2v2.7h-7.5v-2.7h2.3v-5.6c0-2.3-1.1-4-3.6-4c-2.2,0-3.6,1.8-3.6,4v5.6h2.3v2.7   L160.2,51.5L160.2,51.5z M201.6,42.8c-0.2-2.5-2-3.8-4.5-3.8c-2.3,0-4.4,1.4-4.8,3.8H201.6L201.6,42.8z M203.6,49.3   c-1.5,1.7-4.1,2.5-6.4,2.5c-4.8,0-7.9-3.1-7.9-7.8c0-4.4,3.2-7.7,7.8-7.7c4.7,0,8,3,7.4,8.9h-12.2c0.3,2.2,2.2,3.8,5,3.8   c1.5,0,3.4-0.6,4.3-1.6L203.6,49.3z M214.7,48.5c2.8,0,4.9-2.1,4.9-4.7c0-3-2.3-4.7-5-4.7c-2.5,0-5,1.6-5,4.7   C209.8,46.8,212,48.5,214.7,48.5 M209.7,53.8c0.1,2.8,2.4,3.8,4.9,3.8c2.4,0,4.8-0.8,4.8-3.2c0-2-2-3.3-4.8-3.3   c-4.7,0-7.9-2.8-7.9-7.4c0-4.9,4-7.4,7.9-7.4c1.2,0,3,0.3,4,1l1.6-2l2.1,1.7l-1.7,2.1c1.2,1.4,1.8,2.7,1.8,4.6   c0,2.6-1.2,4.8-3.9,5.8c3,1,3.8,3,3.8,4.8c0,3.9-3.8,6-7.9,6c-4.7,0-7.8-2.5-7.7-6.5L209.7,53.8L209.7,53.8z M228,44.2   c0,3,2.1,5,4.9,5c3.2,0,5-2.2,5.2-4.8c0.1-2.8-1.7-5.2-5.2-5.2C230.2,39.3,228,41.3,228,44.2 M243.2,48.9v2.6h-4.9   c0,0.4-0.4-2.4-0.4-2c-1.2,1.9-3.2,2.4-5.1,2.4c-4.4,0-7.7-2.9-7.7-7.8c0-4.8,3.4-7.7,7.7-7.7c2.1,0,4,0.9,5.2,2.6l0-2.3h5.1v2.7   h-2.2v9.5C240.8,48.9,243.2,48.9,243.2,48.9z M251,32.5v4.3h4.3v2.5H251v7.2c0,1.6,0.6,2.5,2.1,2.5c0.6,0,1.2-0.2,1.9-0.5l0.8,2.5   c-1,0.4-1.8,0.7-2.9,0.7c-3.2,0.1-4.9-1.8-4.9-5.2v-7.2h-2.9v-2.5h2.9v-3.9L251,32.5L251,32.5z M269.9,42.8c-0.2-2.5-2-3.8-4.5-3.8   c-2.3,0-4.4,1.4-4.8,3.8H269.9z M271.8,49.3c-1.5,1.7-4.1,2.5-6.4,2.5c-4.8,0-7.9-3.1-7.9-7.8c0-4.4,3.2-7.7,7.8-7.7   c4.7,0,8,3,7.4,8.9h-12.1c0.3,2.2,2.2,3.8,5,3.8c1.5,0,3.4-0.6,4.4-1.6L271.8,49.3z M275.4,44.3c0-0.7,0.5-1.1,1.1-1.1   c0.6,0,1.1,0.4,1.1,1.1s-0.6,1.1-1.1,1.1C275.9,45.4,275.4,45,275.4,44.3 M287,44c-0.9,1-2.1,1.4-3.4,1.4c-2.4,0-4.8-1.6-4.8-4.5   c0-3.3,2.3-4.6,4.7-4.6c1.1,0,2.2,0.3,3.2,0.8l-0.1,2.4H285v-1.4c-0.4-0.2-1.1-0.2-1.5-0.2c-1.8,0-2.9,1.3-2.9,3   c0,1.9,1.6,2.9,3,2.9c0.8,0,1.6-0.3,2.2-0.9C285.9,42.9,287,44,287,44z M289.4,34.3h-1.3v-1.6h3.1v4.9c0.8-1,1.8-1.4,2.9-1.4   c2.5,0,3.7,1.7,3.7,4.2v3.2h1.4v1.5H295v-1.5h1.1v-3.1c0-1.6-0.9-2.6-2.3-2.5c-1.6,0-2.6,1.2-2.6,2.7v3h1.4v1.5H288v-1.5h1.4   L289.4,34.3L289.4,34.3z"/>
    </g>
    </svg>