<svg xmlns="http://www.w3.org/2000/svg" xmlns:xlink="http://www.w3.org/1999/xlink" version="1.1" id="Layer_1" x="0px" y="0px" viewBox="0 0 320.24 91.85" style="enable-background:new 0 0 320.24 91.85;" xml:space="preserve">
    <style type="text/css">
        .st0{fill:#67BDAB;}
        .st1{fill:none;}
        .st2{fill:#D22F7D;}
        .st3{fill:#98297D;}
        .st4{fill:#91A5D1;}
        .st5{fill:#E59535;}
        .st6{fill:#E6A0AA;}
        .st7{fill:#1D1D1B;}
        .st8{fill:#3377A6;}
        .st9{fill:#5AA7DB;}
    </style>
    <g>
        <path class="st2" d="M13.56,45.92l13.55-13.55l13.55,13.55L27.11,59.47C27.11,59.47,13.56,45.92,13.56,45.92z"/>
        <path class="st3" d="M27.12,59.48l13.55-13.56l13.55,13.56L40.68,73.04L27.12,59.48z"/>
        <path class="st4" d="M0,59.48l13.55-13.56l13.56,13.56L13.55,73.04L0,59.48z"/>
        <path class="st5" d="M0,32.36l13.55-13.55l13.56,13.55L13.55,45.92L0,32.36z"/>
        <path class="st6" d="M27.12,32.36l13.55-13.55l13.55,13.55L40.68,45.92L27.12,32.36z"/>
        <path class="st7" d="M77.26,34.88h-3.17v-3.61h7.3v11.65c1.74-2.31,4.34-3.22,6.82-3.22c5.87,0,8.78,4.09,8.78,9.86v7.48h3.26v3.61   h-9.82v-3.61h2.52v-7.43c0-3.82-2.04-6.09-5.43-6.04c-3.7,0.05-6.08,2.83-6.08,6.35v7.13h3.21v3.61H73.92v-3.61h3.35V34.88z    M112.47,43.23c-4,0-6.69,2.91-6.69,7.13c0,3.87,2.65,6.82,6.65,6.82c4.09,0,6.7-2.96,6.74-6.82   C119.21,46.14,116.34,43.23,112.47,43.23 M112.43,39.45c6.52,0,10.87,4.57,10.87,10.91c0,6.13-4.39,10.74-10.87,10.74   c-6.38,0-10.82-4.61-10.82-10.74C101.65,44.05,106.12,39.45,112.43,39.45 M125.95,60.66v-3.74h3.35V43.57h-3.22v-3.65h7.13   l0.35,2.74c1.18-2.17,3.57-3.09,5.7-3.09c3.3,0,5.56,1.17,6.61,4.22c1.61-3,4.3-4.22,7.09-4.22c6.08,0,8.73,3.65,8.73,9.47v7.86   h3.3v3.74h-10.43v-3.74h3.04v-7.86c0-3.17-1.26-5.52-4.78-5.52c-3.13,0-5.17,2.61-5.17,5.61v7.78h3.13v3.74h-10.43v-3.74h3.17V49.1   c0-3.17-1.56-5.61-5.04-5.61c-3.13-0.04-5.09,2.56-5.09,5.61v7.78h3.17v3.74h-10.6L125.95,60.66z M183.8,48.45   c-0.27-3.44-2.74-5.3-6.26-5.3c-3.17,0-6.13,1.91-6.78,5.3H183.8L183.8,48.45z M186.58,57.53c-2.13,2.39-5.74,3.56-8.91,3.56   c-6.69,0-11.09-4.39-11.09-10.95c0-6.22,4.52-10.78,10.91-10.78c6.56,0,11.13,4.13,10.34,12.47h-17c0.35,3.09,3.13,5.34,7,5.34   c2.13,0,4.78-0.78,6.08-2.26L186.58,57.53z M202.14,56.44c3.95,0,6.87-2.87,6.87-6.61c0-4.21-3.21-6.61-6.95-6.61   c-3.44,0-6.96,2.17-6.96,6.52C195.23,54.05,198.32,56.44,202.14,56.44 M195.14,63.83c0.09,3.87,3.35,5.3,6.82,5.34   c3.3,0,6.74-1.08,6.74-4.47c0-2.82-2.82-4.65-6.65-4.65c-6.61,0-11.09-3.87-11.09-10.3c0-6.87,5.65-10.34,11.09-10.34   c1.74,0,4.17,0.44,5.65,1.44l2.26-2.74l2.91,2.35l-2.43,2.87c1.74,1.96,2.56,3.83,2.56,6.43c0,3.61-1.7,6.74-5.39,8.17   c4.13,1.35,5.3,4.13,5.3,6.69c0,5.48-5.35,8.35-11,8.35c-6.61,0-10.95-3.48-10.82-9.13L195.14,63.83L195.14,63.83z M220.7,50.44   c0,4.17,2.95,7,6.82,7c4.43,0,7.04-3.13,7.22-6.69c0.17-3.95-2.35-7.22-7.22-7.22C223.74,43.53,220.7,46.31,220.7,50.44    M241.91,56.96v3.69H235c0,0.57-0.52-3.39-0.52-2.82c-1.65,2.61-4.52,3.35-7.17,3.39c-6.13,0-10.74-4.09-10.74-10.96   c0-6.78,4.78-10.78,10.83-10.78c2.91,0,5.65,1.22,7.21,3.57l0.04-3.17h7.13v3.78h-3.09v13.3   C238.69,56.96,241.91,56.96,241.91,56.96z M252.95,34.01v5.96h6.08v3.56h-6.13v10.09c0,2.22,0.87,3.56,2.95,3.56   c0.87,0,1.74-0.26,2.61-0.65l1.18,3.43c-1.44,0.61-2.56,0.91-4,0.96c-4.43,0.13-6.86-2.56-6.86-7.3V43.53h-4.04v-3.56h4.04v-5.48   L252.95,34.01L252.95,34.01z M279.25,48.45c-0.26-3.44-2.74-5.3-6.26-5.3c-3.17,0-6.13,1.91-6.78,5.3H279.25z M282.03,57.53   c-2.13,2.39-5.74,3.56-8.91,3.56c-6.69,0-11.08-4.39-11.08-10.95c0-6.22,4.52-10.78,10.91-10.78c6.57,0,11.13,4.13,10.34,12.47   H266.3c0.35,3.09,3.13,5.34,7,5.34c2.13,0,4.78-0.78,6.09-2.26L282.03,57.53z M286.95,50.57c0-1.04,0.73-1.52,1.52-1.52   c0.78,0,1.52,0.52,1.52,1.52c0,1-0.79,1.52-1.52,1.52C287.68,52.09,286.95,51.57,286.95,50.57 M303.24,50.18   c-1.3,1.35-3,1.91-4.74,1.91c-3.39,0-6.65-2.22-6.65-6.35c0-4.6,3.17-6.39,6.52-6.39c1.56,0,3.04,0.39,4.43,1.08l-0.13,3.35h-2.17   v-1.95c-0.57-0.22-1.52-0.26-2.04-0.26c-2.52,0.04-4.08,1.87-4.08,4.22c0,2.61,2.17,4.04,4.21,4.04c1.09,0,2.3-0.35,3.09-1.26   C301.68,48.57,303.24,50.18,303.24,50.18z M306.59,36.62h-1.87v-2.18h4.3v6.91c1.05-1.34,2.57-1.91,4.04-1.91   c3.48,0,5.22,2.43,5.22,5.83v4.43h1.96v2.13h-5.82v-2.13h1.48v-4.35c0-2.26-1.22-3.61-3.22-3.56c-2.17,0.05-3.61,1.65-3.61,3.74   v4.21h1.91v2.13h-6.35v-2.13h2V36.62L306.59,36.62z"/>
    </g>
    </svg>