<svg xmlns="http://www.w3.org/2000/svg" xmlns:xlink="http://www.w3.org/1999/xlink" version="1.1" id="Layer_1" x="0px" y="0px" viewBox="0 0 369.3 82" style="enable-background:new 0 0 369.3 82;" xml:space="preserve">
    <style type="text/css">
        .stimmoDark0{fill:#00FECF;}
        .stimmoDark1{fill:#FFFFFF;}
        .stimmoDark2{fill:#333333;enable-background:new    ;}
    </style>
    <g>
        <path class="stimmoDark0" d="M140.8,17.8c1.9-0.1,3.2,0.7,4.7,1.2c5.2,2.1,10.3,4.3,15.4,6.5c3.4,1.5,6.8,3,10.3,4.5   c0.4,0.2,0.7,2.1,0.3,2.4c-0.4,0.3-0.5,0.6-0.2,1c0.3,0.4,0,0.9-0.2,1.1c-1,1.3-1.4,2.9-1.8,4.4c-0.3,1.1-0.4,2.2-1.2,3.2   c-0.3,0.4,0.1,1.5-0.3,2.3c-0.4,0.8,0,2-1.1,2.6c0.4,1.4-1.3,2.2-0.8,3.7c0.4,1-0.6,1.7-1,2.6c-0.3,0.7-1,1.2-0.3,2   c0.1,0.1,0.2,0.4,0,0.4c-0.9,0.2-0.7,1.3-1.3,1.7c-0.8,0.6-1,1.6-1.1,2.5c-0.1,0.4,0,0.8-0.6,1c-0.4,0.1-0.2,0.5-0.1,0.8   c0.1,0.3,0.3,0.5,0.2,1c-0.6,2-0.6,2.1-2.6,1.3c-6-2.1-12.1-3.7-18.1-5.7c-1.2-0.4-2.4-0.2-3.5-0.1c-4.8,0.5-9.5,1.1-14.3,1.5   c-3.3,0.3-6.7,0.5-10,0.8c-6.3,0.6-12.5,1.1-18.8,1.8c-3.1,0.3-6.2,0.5-9.3,0.8c-3.8,0.4-7.6,0.7-11.4,1.1   c-0.9,0.1-1.2,0.1-1.5-1.1c-0.3-1.7-0.2-3.5-0.7-5.2C71.1,56,71.3,54,71,52.2c-0.5-2.9,0-5.9-0.9-8.7c-0.2-0.7-0.2-1.5-0.3-2.2   c0-0.3-0.2-0.8,0.4-0.8c1.8,0.2,1.4-1.2,1.1-2c-0.5-1.5,0-3-0.3-4.4c0-0.1,0.1-0.3,0.1-0.4c-1.1-1.2-0.3-2.6-0.2-3.9   c0-0.3,0.1-0.7-0.1-1c-0.7-1.1,0-2.3-0.3-3.4c-0.1-0.3,0.3-0.4,0.6-0.4c4.4-0.4,8.8-0.9,13.2-1.3c5.8-0.6,11.6-1.2,17.4-1.8   c6-0.6,12-1.5,18-1.9c6.8-0.5,13.5-1.2,20.2-2.1C140.3,17.8,140.7,17.8,140.8,17.8z"/>
        <path class="stimmoDark1" d="M183,28.6c2.8,0.2,5.2,1.1,6.8,3.6c0.4,0.6,0.4,0.9-0.4,1.1c-0.5,0.1-0.9,0.3-1.4,0.5   c-0.7,0.3-1.1,0.3-1.6-0.5c-1.2-1.6-4-2.2-5.8-1.2c-1.2,0.6-2,1.6-2,3c-0.1,1.7,0.8,2.8,2.1,3.5c1.8,1,3.7,1.5,5.6,2.4   c2.4,1.1,4.4,2.6,4.9,5.5c0.5,3.1-0.9,5.7-3.9,7.2c-4,1.9-9.8,1.2-12.6-3.6c-0.9-1.5-0.8-1.6,0.8-2.2c0.3-0.1,0.7-0.2,1-0.3   c0.7-0.3,0.9-0.1,1.2,0.6c1.3,3,4.9,4.3,7.9,2.9c1.2-0.6,1.9-1.5,2-2.9c0.1-1.6-0.6-2.8-2-3.6c-1.8-1.1-3.9-1.6-5.8-2.5   c-2.4-1.1-4.3-2.6-4.7-5.4C174.5,31.9,178.1,28.3,183,28.6z"/>
        <path class="stimmoDark1" d="M271.2,53.7c-2.5,0-5.1,0-7.6,0c-0.8,0-1-0.1-1.1-1c-0.1-1.5,0.4-2.4,1.6-3.3c3.2-2.3,6.5-4.6,9.2-7.5   c1.7-1.8,2.9-3.8,2.5-6.4c-0.3-2.4-1.9-3.8-4.3-4c-2.5-0.2-4.7,1.2-5.1,3.5c-0.3,1.8-1.7,1.9-2.8,2.3c-0.6,0.2-0.8-0.2-0.7-0.7   c0.2-5.4,4.2-8.1,8.7-8.1c2.5,0,4.8,0.8,6.3,3c1.7,2.5,1.7,5.1,0.6,7.8c-1.1,2.8-3.3,4.7-5.4,6.6c-1.4,1.2-3,2.3-4.5,3.5   c-0.3,0.2-0.9,0.3-0.7,0.8c0.1,0.4,0.6,0.2,1,0.2c3.3,0,6.6,0.1,9.8,0c1,0,1.5,0.2,1.3,1.3c-0.1,0.3,0,0.7,0,1.1   c0.1,0.7-0.2,0.9-0.9,0.9C276.5,53.7,273.8,53.7,271.2,53.7z"/>
        <path class="stimmoDark1" d="M293,28.6c-3.2,5.3-6.4,10.4-9.6,15.7c2.7,0,5.1,0,7.6,0c0.6,0,0.5-0.5,0.5-0.8c0-1.4,0.1-2.8,0-4.3   c-0.1-1,0.3-1.4,1.1-1.6c0.7-0.2,1.4-0.5,2.3-0.8c0,2.2,0,4.2,0,6.3c0,0.8,0.2,1.2,1.1,1.1c0.8-0.1,1.7,0,2.5,0c0.9-0.1,1,0.2,1,1   c0,2.3,0,2.3-2.3,2.3c-2.3,0-2.3,0-2.3,2.3c0,0.8,0,1.5,0,2.3c0,0.5,0.3,1.4-0.3,1.5c-0.9,0.2-1.9,0.1-2.9,0   c-0.3,0-0.2-0.5-0.2-0.8c0-1.4-0.1-2.8,0-4.3c0-0.8-0.2-1-1-1c-3.5,0-6.9,0-10.4,0c-0.7,0-0.8-0.2-0.9-0.9   c-0.2-1.6,0.7-2.7,1.4-3.8c2.7-4.5,5.5-8.9,8.2-13.4c0.4-0.6,0.8-1,1.6-0.9C291.1,28.6,291.9,28.6,293,28.6z"/>
        <path class="stimmoDark1" d="M229.1,42.8c-0.8-6-6-9.5-11.7-7.9c-3.8,1.1-6.4,4.9-6.4,9.8c-0.1,0.9,0.1,2,0.4,3.1c1.6,6.2,8.7,8.9,13.9,5.2   C228.7,50.5,229.7,46.9,229.1,42.8z M220.8,51.4c-2.1,0.3-3.8-0.5-5.1-2.1c-2.1-2.5-2-7.4,0.2-9.7c3.1-3.3,8.2-2.3,9.7,2   c0.4,1,0.5,2.1,0.5,3.5C226.1,48.2,224,51.1,220.8,51.4z"/>
        <path class="stimmoDark1" d="M244.5,51.7c-1.3,1.6-2.7,2.6-4.6,2.9c-4.5,0.6-7.3-2.3-7.5-6c-0.2-4.1-0.1-8.2-0.1-12.4   c0-0.6,0.2-0.7,0.8-0.8c2.5-0.1,2.4-0.2,2.4,2.3c0,3.1,0,6.3,0,9.4c0,2.6,1,4.2,3,4.5c2.3,0.4,4.7-0.9,5.6-3.1   c0.3-0.8,0.5-1.6,0.5-2.5c0-3.1,0-6.3,0-9.4c0-1,0.3-1.3,1.3-1.2c2,0.1,2,0,2,1.9c0,5.2,0,10.5,0,15.7c0,0.5,0.3,1.3-0.7,1.2   c-0.8-0.1-2,0.5-2.2-1C244.9,52.8,244.7,52.3,244.5,51.7z"/>
        <path class="stimmoDark1" d="M202.4,34.4c3.1,0.1,5.7,1.2,7.4,3.9c0.4,0.6,0.4,1-0.4,1.2c-0.3,0.1-0.7,0.2-1,0.4c-0.8,0.4-1.3,0.4-1.9-0.4   c-2.3-2.7-6.6-2.3-8.5,0.7c-1.6,2.5-1.6,6.5,0.1,8.9c2.1,3,6.7,3.3,9,0.5c0.8-1,1.3-0.8,2.2-0.5c1.6,0.7,1.7,0.9,0.5,2.3   c-2.6,3-5.8,4.1-9.7,3c-3.8-1.1-5.8-3.8-6.4-7.6c-0.3-2-0.3-4.1,0.4-6C195.4,36.8,198.5,34.5,202.4,34.4z"/>
        <path class="stimmoDark1" d="M255.8,30.7c0,1.2,0,2.3,0,3.4c0,2-0.2,1.7,1.8,1.7c0.2,0,0.4,0,0.5,0c1.2-0.2,1.4,0.3,1.4,1.4   c0,1.2-0.4,1.5-1.5,1.4c-2.3-0.1-2.3,0-2.3,2.3c0,2.6,0,5.2,0,7.8c0,2.1,0.8,3.7,3.6,2.6c0.2,0.7,0.1,1.5,0.1,2.2   c0,0.5-0.3,0.7-0.7,0.8c-2.8,0.5-5-0.2-5.7-3.3c-0.2-0.7-0.2-1.4-0.2-2.1c0-3.1-0.1-6.1,0-9.2c0-0.9-0.2-1.4-1.2-1.3   c-1.6,0.1-2.2-0.8-1.7-2.4c0.2-0.6,0.7-0.4,1.1-0.4c1.8-0.1,1.8,0,1.8-1.8C252.9,31.6,252.9,31.6,255.8,30.7z"/>
        <path class="stimmoDark1" d="M116.8,36.6c3-3.2,7.9-3,9.9,0.8c2.8-3.1,5.5-3.9,8.8-2.4c2.2,0.9,3.2,2.7,3.2,4.9c0.1,4.3,0,8.7,0.1,13   c0,0.7-0.3,0.9-0.9,0.9c-2.6,0.1-2.6,0.1-2.6-2.4c0-3.4,0-6.9,0-10.3c0-1.4-0.4-2.7-2-3.3c-1.6-0.6-3-0.2-4.2,0.9   c-1,0.9-1.2,2.2-1.2,3.5c0,3.4-0.1,6.8,0,10.2c0,1.2-0.3,1.6-1.5,1.4c-0.3-0.1-0.7-0.1-1.1,0c-0.9,0.1-1-0.3-1-1.1   c0-3.6,0-7.3,0-10.9c0-2.9-1-4.3-3.3-4.3c-2.4-0.1-4,1.7-4.1,4.4c-0.1,3.5-0.1,7,0,10.5c0,1.1-0.2,1.7-1.4,1.5   c-0.3-0.1-0.6,0-0.9,0c-0.9,0.1-1.2-0.2-1.2-1.2c0-5.5,0-11,0-16.5c0-0.4-0.4-1.4,0.6-1.3c0.9,0.1,2.2-0.7,2.6,1   C116.8,36,116.8,36.3,116.8,36.6z"/>
        <path class="stimmoDark1" d="M89.7,36.5c3.5-3.5,8-2.4,9.9,0.9c2.8-4.2,8.4-3.6,10.6-1.2c1.1,1.2,1.5,2.7,1.5,4.3c0.1,4.1,0,8.2,0,12.2   c0,1-0.4,1.1-1.2,1.1c-2.3,0-2.3,0-2.3-2.3c0-3.3,0-6.7,0-10c0-2.9-1.7-4.5-4.2-4c-1.9,0.4-3.2,1.9-3.2,4c-0.1,3.6-0.1,7.3,0,10.9   c0,1.1-0.3,1.5-1.4,1.4c-0.3-0.1-0.7,0-1.1,0c-0.8,0.1-1.1-0.2-1-1c0-3.7,0-7.4,0-11c0-2.8-1.1-4.1-3.3-4.2   c-2.3-0.1-4.1,1.7-4.1,4.3c0,3.5-0.1,7.1,0,10.6c0,1.1-0.3,1.4-1.4,1.4c-2.2-0.1-2.2,0-2.2-2.2c0-5.1,0-10.2,0-15.3   c0-0.5-0.5-1.5,0.7-1.5c0.9,0.1,2.3-0.8,2.5,1C89.5,36.1,89.6,36.3,89.7,36.5z"/>
        <path class="stimmoDark1" d="M160.3,44.1c-0.1,3.9-1.2,6.8-4,8.9c-4.2,3.2-11,1.9-13.3-3.2c-1.9-4.1-1.8-8.1,0.8-11.8   c2.2-3.1,5.4-4.2,9.1-3.4c3.8,0.8,6,3.3,7,6.9C160.2,42.5,160.2,43.6,160.3,44.1z"/>
        <path class="stimmoDark1" d="M83.5,41.2c0,3.8,0,7.6,0,11.4c0,0.9-0.3,1.2-1.2,1.2c-2.8,0-2.8,0-2.8-2.8c0-6.7,0-13.3,0-20   c0-1,0.2-1.5,1.2-1.6c0,0,0.1,0,0.1,0c2.6-0.9,2.6-0.9,2.6,1.8C83.5,34.6,83.5,37.9,83.5,41.2C83.5,41.2,83.5,41.2,83.5,41.2z"/>
        <path class="stimmoDark0" d="M151.1,37.7c1.8,0,3.2,0.8,4.3,2.2c1.9,2.6,1.9,6.3,0.2,9c-1.8,2.8-5.8,3.2-8.2,1c-3.1-2.8-2.9-8.5,0.4-11.1   C148.8,38.1,149.9,37.7,151.1,37.7z"/>
    </g>
    </svg>