<svg xmlns="http://www.w3.org/2000/svg" xmlns:xlink="http://www.w3.org/1999/xlink" version="1.1" id="Layer_1" x="0px" y="0px" viewBox="0 0 369.3 82" style="enable-background:new 0 0 369.3 82;" xml:space="preserve">
<style type="text/css">
	.stnewHome0{fill:#00FECF;}
	.stnewHome1{fill:#FFFFFF;}
	.stnewHome2{fill:#333333;enable-background:new    ;}
	.stnewHome3{fill:#D22F7D;}
	.stnewHome4{fill:#98297D;}
	.stnewHome5{fill:#91A5D1;}
	.stnewHome6{fill:#E59535;}
	.stnewHome7{fill:#E6A0AA;}
	.stnewHome8{fill:#67BDAB;}
</style>
<g>
	<path id="logo-typo_1_" class="stnewHome2" d="M299.7,45.4c0-6.2-2.9-11.1-9.7-11.1c-7.1,0-11.9,6.2-11.9,13c0,8.2,4.1,11.3,11.9,11.3   c3.5,0.1,6.9-1.3,9.3-3.9l-0.6-1.5c-2.1,0.5-4.3,0.8-6.5,0.8c-4.5,0-7.7-1.9-8.1-7.7h15.6L299.7,45.4z M284.1,44.1   c0.1-5.1,2.1-7.3,4.8-7.3c3.2,0,4.5,2.9,4.5,7.3H284.1z M277,56.8l-2.7-0.6c-0.6-0.2-0.7-0.4-0.7-1.3l-0.1-8.4V42   c0-4.5-0.8-7.8-7.4-7.8c-3.8,0-6.4,2.1-8.4,3.9c-0.7-1.9-2.5-3.9-6.8-3.9c-3.7,0-6.2,2.1-8.2,3.8v-2.2c0-1-0.4-1.5-1.7-1.5   c-2.6,0.1-5.2,0.4-7.7,0.9v2h3.7v9.3l-0.1,7.7c0.1,0.9-0.4,1.8-1.3,2.1l-2,0.7c0,0.4,0.1,0.8,0.2,1.3H246c0.2-0.5,0.3-1,0.3-1.5   l-2.7-0.8c-0.6-0.2-0.6-0.9-0.7-1.7l-0.1-7.8v-6.9c1.8-0.8,3.8-1.2,5.8-1.2c3.6,0,3.7,2.2,3.7,5.3v2.8l-0.1,8   c0.1,0.7-0.3,1.4-0.9,1.7l-1.5,0.7c0,0.5,0,0.9,0.2,1.4h11.7c0.1-0.5,0.2-1,0.2-1.5l-2.9-0.6c-0.5-0.1-0.6-0.5-0.6-1.3l-0.1-8.4   v-4.7c0-0.8,0-1.5-0.1-2.3c1.8-0.7,3.7-1,5.6-1.1c3.6,0,4,2.2,4,5.3v2.8l-0.1,7.7c0.1,0.8-0.3,1.5-0.9,1.9l-1.5,0.7   c0,0.5,0.1,0.9,0.2,1.4h11.6C277,57.8,277,57.3,277,56.8L277,56.8z M186.7,56.8l-2.6-0.7c-0.6-0.1-0.7-0.4-0.7-1.2l-0.1-8.5V42   c0-4.5-0.9-7.8-7.4-7.8c-4,0-6.6,2.3-8.4,3.8V24.9c0-1-0.4-1.5-1.7-1.5c-2.6,0.1-5.2,0.4-7.8,0.9v2h3.7v20.3l-0.1,7.6   c0,1.2-0.4,1.8-1.2,2.2l-2,0.7c0,0.4,0,0.9,0.1,1.3h12.5c0.2-0.5,0.2-1,0.2-1.5l-2.8-0.8c-0.6-0.2-0.7-0.8-0.7-1.7l-0.1-7.8v-6.8   c1.9-0.9,3.9-1.3,5.9-1.3c3.6,0,4,2,4,5.3v2.8l-0.1,7.7c0,0.8-0.4,1.5-1,1.9l-1.6,0.7c0,0.5,0.1,1,0.2,1.4h11.7   C186.6,57.8,186.7,57.3,186.7,56.8L186.7,56.8z M121,45.4c0-6.2-2.9-11.1-9.7-11.1c-7.1,0-11.9,6.2-11.9,13   c0,8.2,4.1,11.3,11.9,11.3c3.5,0.1,6.9-1.3,9.3-3.9l-0.6-1.5c-2.1,0.5-4.3,0.8-6.5,0.8c-4.5,0-7.7-1.9-8.1-7.7H121V45.4z    M105.3,44.1c0.1-5.1,2.1-7.3,4.8-7.3c3.2,0,4.5,2.9,4.5,7.3H105.3z M98.3,56.8l-2.6-0.6c-0.6-0.1-0.7-0.4-0.7-1.2l-0.1-8.5V42   c0-4.5-0.9-7.8-7.4-7.8c-4,0-6.6,2.3-8.4,3.8v-2.2c0-1-0.4-1.5-1.7-1.5c-2.6,0.1-5.2,0.4-7.8,0.9v1.9h3.7v9.3l-0.1,7.7   c0.1,0.9-0.4,1.8-1.2,2.1L70,57c0,0.4,0,0.8,0.1,1.3h12.5c0.1-0.5,0.2-1,0.2-1.5L80,56c-0.6-0.2-0.7-0.8-0.7-1.7l-0.1-7.8v-6.9   c1.9-0.8,3.9-1.2,5.9-1.2c3.6,0,4,2,4,5.3v2.8L89,54.2c0,0.8-0.4,1.5-1,2l-1.6,0.7c0,0.5,0.1,0.9,0.2,1.4h11.7   C98.3,57.8,98.3,57.3,98.3,56.8L98.3,56.8z M150.7,36.3c0-0.5,0-0.9,0-1.4h7.3v1.2c-0.9,0.9-1.6,2.1-2,3.4l-6.5,18.9l-4.6,0   l-5.6-15.5l-5.7,15.5h-4.3l-5.5-18.7c0-0.1-0.1-0.2-0.1-0.3c-0.9-2.6-1.6-2.9-2.1-3.3v-1.2h9.9c0,0.4-0.1,2.2-0.1,2.2H129l4,15.9   l6.5-18.1h3.1l6.2,18.3l4.6-14.2c0.3-0.8-0.1-1.8-0.9-2.1c0,0,0,0-0.1,0L150.7,36.3z"/>
	<path class="stnewHome8" d="M209.8,25.5c-12.1,0-21.9,9.8-21.9,21.9c0,3.7,1,7.4,2.8,10.7h15.1l0-11.5l8.7-8.7l8.7,8.7l0,11.5h5.9   c5.9-10.6,2.1-23.9-8.4-29.8C217.2,26.4,213.6,25.5,209.8,25.5"/>
</g>
</svg>