<svg xmlns="http://www.w3.org/2000/svg" width="291" height="50" viewBox="0 0 291 50" fill="none">
    <path d="M42.5 5.33607C24 -1.84965 12 1.15039 1.01889 5.33602C0.518888 34.836 10 43.1505 23.0181 48.336C44.0188 35.336 42 24.8361 42.5 5.33607Z" fill="#DC0018"/>
    <rect x="18" y="8.65039" width="9" height="27" fill="white"/>
    <rect x="36" y="17.6504" width="9" height="28" transform="rotate(90 36 17.6504)" fill="white"/>
    <path d="M56 29.23V17.21H60.51C61.43 17.21 62.17 17.33 62.72 17.58C63.27 17.82 63.71 18.2 64.02 18.7C64.33 19.21 64.49 19.74 64.49 20.29C64.49 20.8 64.35 21.29 64.07 21.74C63.79 22.19 63.37 22.56 62.81 22.84C63.54 23.05 64.1 23.42 64.49 23.93C64.88 24.44 65.08 25.05 65.08 25.75C65.08 26.31 64.96 26.84 64.72 27.32C64.48 27.8 64.19 28.18 63.84 28.44C63.49 28.7 63.05 28.9 62.52 29.03C61.99 29.16 61.35 29.23 60.58 29.23H56V29.23ZM57.59 22.26H60.19C60.9 22.26 61.4 22.21 61.71 22.12C62.12 22 62.42 21.8 62.63 21.52C62.84 21.24 62.94 20.89 62.94 20.47C62.94 20.07 62.84 19.72 62.65 19.42C62.46 19.12 62.19 18.91 61.83 18.8C61.47 18.69 60.86 18.63 60 18.63H57.6V22.26H57.59ZM57.59 27.82H60.59C61.1 27.82 61.47 27.8 61.67 27.76C62.04 27.69 62.34 27.59 62.59 27.43C62.84 27.28 63.04 27.05 63.2 26.76C63.36 26.47 63.44 26.13 63.44 25.75C63.44 25.3 63.33 24.91 63.1 24.58C62.87 24.25 62.55 24.02 62.14 23.88C61.73 23.75 61.15 23.68 60.38 23.68H57.6V27.82H57.59Z" fill="black"/>
    <path d="M73.0398 26.4301L74.5698 26.6201C74.3298 27.5101 73.8799 28.2001 73.2299 28.7001C72.5799 29.1901 71.7498 29.4401 70.7398 29.4401C69.4598 29.4401 68.4498 29.0501 67.7098 28.2601C66.9598 27.4801 66.5898 26.3701 66.5898 24.9601C66.5898 23.4901 66.9698 22.3601 67.7198 21.5501C68.4698 20.7401 69.4499 20.3401 70.6599 20.3401C71.8299 20.3401 72.7798 20.7401 73.5098 21.5301C74.2498 22.3201 74.6199 23.4401 74.6199 24.8801C74.6199 24.9701 74.6198 25.1001 74.6098 25.2701H68.1098C68.1598 26.2301 68.4398 26.9601 68.9198 27.4701C69.4098 27.9801 70.0098 28.2301 70.7398 28.2301C71.2798 28.2301 71.7398 28.0901 72.1298 27.8001C72.5198 27.5101 72.8198 27.0501 73.0398 26.4301ZM68.1998 24.0401H73.0698C72.9998 23.3101 72.8198 22.7601 72.5098 22.3901C72.0398 21.8201 71.4298 21.5401 70.6798 21.5401C69.9998 21.5401 69.4298 21.7701 68.9698 22.2201C68.4998 22.6701 68.2498 23.2801 68.1998 24.0401Z" fill="black"/>
    <path d="M75.6504 29.23V28.03L81.2004 21.66C80.5704 21.69 80.0204 21.71 79.5304 21.71H75.9804V20.51H83.1004V21.49L78.3804 27.02L77.4704 28.03C78.1304 27.98 78.7504 27.96 79.3304 27.96H83.3604V29.23H75.6504V29.23Z" fill="black"/>
    <path d="M90.5408 29.23V27.95C89.8608 28.93 88.9408 29.43 87.7808 29.43C87.2708 29.43 86.7808 29.33 86.3408 29.13C85.8908 28.93 85.5608 28.69 85.3508 28.39C85.1308 28.09 84.9808 27.73 84.8908 27.29C84.8308 27 84.8008 26.54 84.8008 25.91V20.51H86.2808V25.34C86.2808 26.11 86.3108 26.63 86.3708 26.9C86.4608 27.29 86.6608 27.59 86.9608 27.82C87.2608 28.05 87.6308 28.15 88.0808 28.15C88.5308 28.15 88.9408 28.04 89.3308 27.81C89.7208 27.58 89.9908 27.27 90.1608 26.88C90.3208 26.49 90.4008 25.92 90.4008 25.18V20.51H91.8808V29.22H90.5408V29.23Z" fill="black"/>
    <path d="M93.8994 29.9601L95.3394 30.1701C95.3994 30.6101 95.5694 30.9401 95.8394 31.1401C96.2094 31.4101 96.7094 31.5501 97.3394 31.5501C98.0194 31.5501 98.5494 31.4101 98.9194 31.1401C99.2894 30.8701 99.5394 30.4801 99.6694 29.9901C99.7494 29.6901 99.7794 29.0601 99.7794 28.0901C99.1294 28.8501 98.3294 29.2301 97.3694 29.2301C96.1694 29.2301 95.2494 28.8001 94.5894 27.9301C93.9294 27.0601 93.6094 26.0301 93.6094 24.8201C93.6094 23.9901 93.7594 23.2201 94.0594 22.5201C94.3594 21.8201 94.7994 21.2701 95.3694 20.8901C95.9394 20.5101 96.6094 20.3201 97.3794 20.3201C98.4094 20.3201 99.2594 20.7401 99.9194 21.5701V20.5201H101.279V28.0501C101.279 29.4101 101.139 30.3701 100.859 30.9301C100.579 31.5001 100.149 31.9401 99.5494 32.2701C98.9494 32.6001 98.2094 32.7601 97.3394 32.7601C96.2994 32.7601 95.4594 32.5301 94.8194 32.0601C94.1894 31.6001 93.8794 30.9001 93.8994 29.9601ZM95.1294 24.7201C95.1294 25.8601 95.3594 26.7001 95.8094 27.2201C96.2594 27.7401 96.8294 28.0101 97.5194 28.0101C98.1994 28.0101 98.7694 27.7501 99.2294 27.2301C99.6894 26.7101 99.9194 25.8901 99.9194 24.7701C99.9194 23.7001 99.6794 22.9001 99.2094 22.3601C98.7394 21.8201 98.1694 21.5501 97.4994 21.5501C96.8394 21.5501 96.2894 21.8201 95.8294 22.3501C95.3494 22.8801 95.1294 23.6701 95.1294 24.7201Z" fill="black"/>
    <path d="M113.84 29.2299V28.13C113.29 28.99 112.48 29.43 111.4 29.43C110.7 29.43 110.07 29.24 109.48 28.86C108.89 28.48 108.45 27.94 108.13 27.26C107.81 26.57 107.65 25.78 107.65 24.89C107.65 24.02 107.79 23.23 108.08 22.52C108.37 21.81 108.81 21.27 109.38 20.89C109.96 20.51 110.61 20.32 111.33 20.32C111.85 20.32 112.32 20.43 112.73 20.65C113.14 20.87 113.47 21.16 113.73 21.52V17.2H115.2V29.2299H113.84V29.2299ZM109.17 24.89C109.17 26.01 109.41 26.84 109.88 27.39C110.35 27.94 110.91 28.22 111.55 28.22C112.2 28.22 112.74 27.96 113.19 27.43C113.64 26.9 113.87 26.1 113.87 25.01C113.87 23.82 113.64 22.94 113.18 22.38C112.72 21.82 112.15 21.54 111.48 21.54C110.82 21.54 110.28 21.81 109.84 22.34C109.4 22.87 109.17 23.73 109.17 24.89Z" fill="black"/>
    <path d="M123.501 26.4301L125.031 26.6201C124.791 27.5101 124.341 28.2001 123.691 28.7001C123.041 29.1901 122.211 29.4401 121.201 29.4401C119.921 29.4401 118.911 29.0501 118.171 28.2601C117.421 27.4801 117.051 26.3701 117.051 24.9601C117.051 23.4901 117.431 22.3601 118.181 21.5501C118.931 20.7401 119.911 20.3401 121.121 20.3401C122.291 20.3401 123.241 20.7401 123.971 21.5301C124.711 22.3201 125.081 23.4401 125.081 24.8801C125.081 24.9701 125.081 25.1001 125.071 25.2701H118.571C118.621 26.2301 118.901 26.9601 119.381 27.4701C119.871 27.9801 120.471 28.2301 121.201 28.2301C121.741 28.2301 122.201 28.0901 122.591 27.8001C122.971 27.5101 123.271 27.0501 123.501 26.4301ZM118.651 24.0401H123.521C123.451 23.3101 123.271 22.7601 122.961 22.3901C122.491 21.8201 121.881 21.5401 121.131 21.5401C120.451 21.5401 119.881 21.7701 119.421 22.2201C118.951 22.6701 118.701 23.2801 118.651 24.0401Z" fill="black"/>
    <path d="M126.859 29.2301V20.5201H128.189V21.8401C128.529 21.2201 128.839 20.8101 129.129 20.6201C129.419 20.4301 129.729 20.3201 130.079 20.3201C130.579 20.3201 131.079 20.4801 131.599 20.8001L131.089 22.1701C130.729 21.9601 130.369 21.8501 130.009 21.8501C129.689 21.8501 129.399 21.9501 129.139 22.1401C128.879 22.3301 128.699 22.6001 128.589 22.9501C128.429 23.4801 128.339 24.0501 128.339 24.6701V29.2301H126.859Z" fill="black"/>
    <path d="M138.501 29.23H137.131V17.21H138.611V21.5C139.231 20.72 140.031 20.33 141.001 20.33C141.541 20.33 142.041 20.44 142.521 20.65C143.001 20.87 143.391 21.17 143.701 21.56C144.011 21.95 144.251 22.42 144.431 22.98C144.601 23.53 144.691 24.12 144.691 24.75C144.691 26.24 144.321 27.4 143.581 28.21C142.841 29.02 141.961 29.43 140.921 29.43C139.891 29.43 139.081 29 138.501 28.14V29.23V29.23ZM138.491 24.81C138.491 25.85 138.631 26.61 138.921 27.07C139.381 27.83 140.011 28.21 140.811 28.21C141.451 28.21 142.011 27.93 142.481 27.37C142.951 26.81 143.191 25.97 143.191 24.86C143.191 23.72 142.961 22.88 142.511 22.34C142.061 21.8 141.511 21.53 140.871 21.53C140.221 21.53 139.671 21.81 139.201 22.37C138.721 22.94 138.491 23.75 138.491 24.81Z" fill="black"/>
    <path d="M152.45 26.4301L153.98 26.6201C153.74 27.5101 153.29 28.2001 152.64 28.7001C151.99 29.1901 151.16 29.4401 150.15 29.4401C148.87 29.4401 147.86 29.0501 147.12 28.2601C146.37 27.4801 146 26.3701 146 24.9601C146 23.4901 146.38 22.3601 147.13 21.5501C147.88 20.7401 148.86 20.3401 150.07 20.3401C151.24 20.3401 152.19 20.7401 152.92 21.5301C153.66 22.3201 154.03 23.4401 154.03 24.8801C154.03 24.9701 154.03 25.1001 154.02 25.2701H147.52C147.57 26.2301 147.85 26.9601 148.33 27.4701C148.82 27.9801 149.42 28.2301 150.15 28.2301C150.69 28.2301 151.15 28.0901 151.54 27.8001C151.93 27.5101 152.23 27.0501 152.45 26.4301ZM147.6 24.0401H152.47C152.4 23.3101 152.22 22.7601 151.91 22.3901C151.44 21.8201 150.83 21.5401 150.08 21.5401C149.4 21.5401 148.83 21.7701 148.37 22.2201C147.91 22.6701 147.65 23.2801 147.6 24.0401Z" fill="black"/>
    <path d="M155.82 29.2301V20.5201H157.15V21.8401C157.49 21.2201 157.8 20.8101 158.09 20.6201C158.38 20.4301 158.69 20.3201 159.04 20.3201C159.54 20.3201 160.04 20.4801 160.56 20.8001L160.05 22.1701C159.69 21.9601 159.33 21.8501 158.97 21.8501C158.65 21.8501 158.36 21.9501 158.1 22.1401C157.84 22.3301 157.66 22.6001 157.55 22.9501C157.39 23.4801 157.3 24.0501 157.3 24.6701V29.2301H155.82Z" fill="black"/>
    <path d="M167.14 29.23V27.95C166.46 28.93 165.54 29.43 164.38 29.43C163.87 29.43 163.38 29.33 162.94 29.13C162.49 28.93 162.16 28.69 161.95 28.39C161.73 28.09 161.58 27.73 161.49 27.29C161.43 27 161.4 26.54 161.4 25.91V20.51H162.88V25.34C162.88 26.11 162.91 26.63 162.97 26.9C163.06 27.29 163.26 27.59 163.56 27.82C163.86 28.05 164.23 28.15 164.68 28.15C165.13 28.15 165.54 28.04 165.93 27.81C166.32 27.58 166.59 27.27 166.76 26.88C166.92 26.49 167 25.92 167 25.18V20.51H168.48V29.22H167.14V29.23Z" fill="black"/>
    <path d="M171.13 29.23V21.67H169.83V20.52H171.13V19.59C171.13 19.01 171.18 18.57 171.29 18.29C171.43 17.91 171.68 17.6 172.04 17.36C172.4 17.12 172.9 17 173.55 17C173.97 17 174.43 17.05 174.93 17.15L174.71 18.44C174.4 18.39 174.11 18.36 173.84 18.36C173.39 18.36 173.07 18.46 172.89 18.65C172.7 18.84 172.61 19.2 172.61 19.72V20.52H174.31V21.67H172.61V29.23H171.13Z" fill="black"/>
    <path d="M175.41 29.23V17.21H176.89V29.24H175.41V29.23Z" fill="black"/>
    <path d="M179.189 18.9V17.2H180.669V18.9H179.189ZM179.189 29.2299V20.52H180.669V29.2299H179.189Z" fill="black"/>
    <path d="M188.599 26.0401L190.049 26.2301C189.889 27.2301 189.489 28.0101 188.829 28.5801C188.179 29.1501 187.369 29.4301 186.419 29.4301C185.229 29.4301 184.269 29.0401 183.539 28.2601C182.819 27.4801 182.449 26.3601 182.449 24.9101C182.449 23.9701 182.609 23.1501 182.919 22.4401C183.229 21.7301 183.709 21.2101 184.339 20.8501C184.979 20.5001 185.669 20.3201 186.419 20.3201C187.369 20.3201 188.139 20.5601 188.739 21.0401C189.339 21.5201 189.729 22.2001 189.899 23.0801L188.459 23.3001C188.319 22.7101 188.079 22.2701 187.729 21.9801C187.379 21.6901 186.959 21.5401 186.469 21.5401C185.729 21.5401 185.119 21.8101 184.659 22.3401C184.199 22.8701 183.959 23.7201 183.959 24.8701C183.959 26.0401 184.179 26.8901 184.629 27.4201C185.079 27.9501 185.659 28.2201 186.389 28.2201C186.969 28.2201 187.449 28.0401 187.839 27.6901C188.249 27.3301 188.489 26.7801 188.599 26.0401Z" fill="black"/>
    <path d="M191.311 29.23V17.21H192.791V21.53C193.481 20.73 194.351 20.33 195.401 20.33C196.051 20.33 196.611 20.46 197.081 20.71C197.551 20.96 197.901 21.32 198.101 21.76C198.311 22.21 198.411 22.86 198.411 23.71V29.23H196.931V23.71C196.931 22.97 196.771 22.43 196.451 22.1C196.131 21.77 195.681 21.6 195.091 21.6C194.651 21.6 194.241 21.71 193.851 21.94C193.461 22.17 193.191 22.47 193.031 22.86C192.871 23.25 192.781 23.78 192.781 24.47V29.24H191.311V29.23Z" fill="black"/>
    <path d="M206.62 26.4301L208.15 26.6201C207.91 27.5101 207.46 28.2001 206.81 28.7001C206.16 29.1901 205.33 29.4401 204.32 29.4401C203.04 29.4401 202.03 29.0501 201.29 28.2601C200.54 27.4801 200.17 26.3701 200.17 24.9601C200.17 23.4901 200.55 22.3601 201.3 21.5501C202.05 20.7401 203.03 20.3401 204.24 20.3401C205.41 20.3401 206.36 20.7401 207.09 21.5301C207.83 22.3201 208.2 23.4401 208.2 24.8801C208.2 24.9701 208.2 25.1001 208.19 25.2701H201.69C201.74 26.2301 202.02 26.9601 202.5 27.4701C202.99 27.9801 203.59 28.2301 204.32 28.2301C204.86 28.2301 205.32 28.0901 205.71 27.8001C206.1 27.5101 206.4 27.0501 206.62 26.4301ZM201.77 24.0401H206.64C206.57 23.3101 206.39 22.7601 206.08 22.3901C205.61 21.8201 205 21.5401 204.25 21.5401C203.57 21.5401 203 21.7701 202.54 22.2201C202.08 22.6701 201.82 23.2801 201.77 24.0401Z" fill="black"/>
    <path d="M210 29.2301V20.5201H211.33V21.7601C211.97 20.8001 212.89 20.3201 214.1 20.3201C214.63 20.3201 215.11 20.4101 215.55 20.6001C215.99 20.7901 216.32 21.0401 216.54 21.3401C216.76 21.6501 216.91 22.0101 217 22.4301C217.05 22.7001 217.08 23.1801 217.08 23.8701V29.2301H215.6V23.9301C215.6 23.3301 215.54 22.8801 215.43 22.5801C215.32 22.2801 215.11 22.0401 214.82 21.8701C214.53 21.6901 214.18 21.6001 213.79 21.6001C213.16 21.6001 212.62 21.8001 212.16 22.2001C211.7 22.6001 211.48 23.3601 211.48 24.4701V29.2301H210V29.2301Z" fill="black"/>
    <path d="M227.64 29.2299L222.98 17.2H224.7L227.83 25.94C228.08 26.64 228.29 27.3 228.46 27.91C228.65 27.25 228.86 26.6 229.11 25.94L232.36 17.2H233.98L229.27 29.2299H227.64Z" fill="black"/>
    <path d="M233.75 24.8801C233.75 23.2701 234.2 22.0701 235.1 21.2901C235.85 20.6401 236.76 20.3201 237.84 20.3201C239.04 20.3201 240.02 20.7101 240.78 21.5001C241.54 22.2901 241.92 23.3701 241.92 24.7501C241.92 25.8701 241.75 26.7501 241.42 27.4001C241.08 28.0401 240.59 28.5401 239.95 28.9001C239.31 29.2601 238.61 29.4301 237.85 29.4301C236.63 29.4301 235.64 29.0401 234.89 28.2601C234.13 27.4801 233.75 26.3501 233.75 24.8801ZM235.27 24.8801C235.27 26.0001 235.51 26.8301 236 27.3901C236.49 27.9501 237.1 28.2201 237.84 28.2201C238.57 28.2201 239.18 27.9401 239.67 27.3801C240.16 26.8201 240.4 25.9701 240.4 24.8301C240.4 23.7501 240.15 22.9401 239.67 22.3801C239.19 21.8201 238.57 21.5501 237.84 21.5501C237.1 21.5501 236.49 21.8301 236 22.3801C235.51 22.9301 235.27 23.7601 235.27 24.8801Z" fill="black"/>
    <path d="M243.631 29.2301V20.5201H244.961V21.8401C245.301 21.2201 245.611 20.8101 245.901 20.6201C246.191 20.4301 246.501 20.3201 246.851 20.3201C247.351 20.3201 247.851 20.4801 248.371 20.8001L247.861 22.1701C247.501 21.9601 247.141 21.8501 246.781 21.8501C246.461 21.8501 246.171 21.9501 245.911 22.1401C245.651 22.3301 245.471 22.6001 245.361 22.9501C245.201 23.4801 245.111 24.0501 245.111 24.6701V29.2301H243.631Z" fill="black"/>
    <path d="M248.65 26.6301L250.11 26.4001C250.19 26.9901 250.42 27.4301 250.79 27.7501C251.17 28.0601 251.69 28.2201 252.36 28.2201C253.04 28.2201 253.54 28.0801 253.87 27.8101C254.2 27.5401 254.36 27.2101 254.36 26.8401C254.36 26.5101 254.22 26.2401 253.93 26.0501C253.73 25.9201 253.22 25.7501 252.42 25.5501C251.34 25.2801 250.59 25.0401 250.17 24.8401C249.75 24.6401 249.43 24.3601 249.22 24.0101C249 23.6601 248.9 23.2701 248.9 22.8401C248.9 22.4501 248.99 22.0901 249.17 21.7601C249.35 21.4301 249.59 21.1501 249.9 20.9401C250.13 20.7701 250.44 20.6301 250.84 20.5101C251.24 20.3901 251.66 20.3301 252.12 20.3301C252.8 20.3301 253.4 20.4301 253.92 20.6301C254.44 20.8301 254.82 21.0901 255.06 21.4301C255.3 21.7701 255.48 22.2201 255.57 22.7801L254.13 22.9801C254.06 22.5301 253.87 22.1801 253.56 21.9301C253.25 21.6801 252.8 21.5501 252.23 21.5501C251.55 21.5501 251.07 21.6601 250.78 21.8901C250.49 22.1101 250.34 22.3801 250.34 22.6801C250.34 22.8701 250.4 23.0401 250.52 23.2001C250.64 23.3601 250.83 23.4901 251.09 23.5901C251.24 23.6401 251.67 23.7701 252.39 23.9701C253.43 24.2501 254.16 24.4801 254.58 24.6601C254.99 24.8401 255.32 25.1001 255.55 25.4401C255.78 25.7801 255.9 26.2001 255.9 26.7001C255.9 27.1901 255.76 27.6601 255.47 28.0901C255.18 28.5301 254.77 28.8601 254.23 29.1001C253.69 29.3401 253.08 29.4601 252.39 29.4601C251.26 29.4601 250.39 29.2301 249.8 28.7501C249.19 28.2601 248.81 27.5601 248.65 26.6301Z" fill="black"/>
    <path d="M257.09 24.8801C257.09 23.2701 257.54 22.0701 258.44 21.2901C259.19 20.6401 260.1 20.3201 261.18 20.3201C262.38 20.3201 263.36 20.7101 264.12 21.5001C264.88 22.2901 265.26 23.3701 265.26 24.7501C265.26 25.8701 265.09 26.7501 264.76 27.4001C264.42 28.0401 263.93 28.5401 263.29 28.9001C262.65 29.2601 261.95 29.4301 261.19 29.4301C259.97 29.4301 258.98 29.0401 258.23 28.2601C257.47 27.4801 257.09 26.3501 257.09 24.8801ZM258.61 24.8801C258.61 26.0001 258.85 26.8301 259.34 27.3901C259.83 27.9501 260.44 28.2201 261.18 28.2201C261.91 28.2201 262.52 27.9401 263.01 27.3801C263.5 26.8201 263.74 25.9701 263.74 24.8301C263.74 23.7501 263.49 22.9401 263.01 22.3801C262.53 21.8201 261.91 21.5501 261.18 21.5501C260.44 21.5501 259.83 21.8301 259.34 22.3801C258.85 22.9301 258.61 23.7601 258.61 24.8801Z" fill="black"/>
    <path d="M266.971 29.2301V20.5201H268.301V21.8401C268.641 21.2201 268.951 20.8101 269.241 20.6201C269.531 20.4301 269.841 20.3201 270.191 20.3201C270.691 20.3201 271.191 20.4801 271.711 20.8001L271.201 22.1701C270.841 21.9601 270.481 21.8501 270.121 21.8501C269.801 21.8501 269.511 21.9501 269.251 22.1401C268.991 22.3301 268.811 22.6001 268.701 22.9501C268.541 23.4801 268.451 24.0501 268.451 24.6701V29.2301H266.971Z" fill="black"/>
    <path d="M272.31 29.9601L273.75 30.1701C273.81 30.6101 273.98 30.9401 274.25 31.1401C274.62 31.4101 275.12 31.5501 275.75 31.5501C276.43 31.5501 276.96 31.4101 277.33 31.1401C277.7 30.8701 277.95 30.4801 278.08 29.9901C278.16 29.6901 278.19 29.0601 278.19 28.0901C277.54 28.8501 276.74 29.2301 275.78 29.2301C274.58 29.2301 273.66 28.8001 273 27.9301C272.34 27.0601 272.02 26.0301 272.02 24.8201C272.02 23.9901 272.17 23.2201 272.47 22.5201C272.77 21.8201 273.21 21.2701 273.78 20.8901C274.35 20.5101 275.02 20.3201 275.79 20.3201C276.82 20.3201 277.67 20.7401 278.33 21.5701V20.5201H279.69V28.0501C279.69 29.4101 279.55 30.3701 279.27 30.9301C278.99 31.5001 278.56 31.9401 277.96 32.2701C277.36 32.6001 276.62 32.7601 275.75 32.7601C274.71 32.7601 273.87 32.5301 273.23 32.0601C272.6 31.6001 272.29 30.9001 272.31 29.9601ZM273.54 24.7201C273.54 25.8601 273.77 26.7001 274.22 27.2201C274.67 27.7401 275.24 28.0101 275.93 28.0101C276.61 28.0101 277.18 27.7501 277.64 27.2301C278.1 26.7101 278.33 25.8901 278.33 24.7701C278.33 23.7001 278.09 22.9001 277.62 22.3601C277.15 21.8201 276.58 21.5501 275.91 21.5501C275.25 21.5501 274.7 21.8201 274.24 22.3501C273.76 22.8801 273.54 23.6701 273.54 24.7201Z" fill="black"/>
    <path d="M287.889 26.4301L289.419 26.6201C289.179 27.5101 288.729 28.2001 288.079 28.7001C287.429 29.1901 286.599 29.4401 285.589 29.4401C284.309 29.4401 283.299 29.0501 282.559 28.2601C281.809 27.4801 281.439 26.3701 281.439 24.9601C281.439 23.4901 281.819 22.3601 282.569 21.5501C283.319 20.7401 284.299 20.3401 285.509 20.3401C286.679 20.3401 287.629 20.7401 288.359 21.5301C289.099 22.3201 289.469 23.4401 289.469 24.8801C289.469 24.9701 289.469 25.1001 289.459 25.2701H282.959C283.009 26.2301 283.289 26.9601 283.769 27.4701C284.259 27.9801 284.859 28.2301 285.589 28.2301C286.129 28.2301 286.589 28.0901 286.979 27.8001C287.369 27.5101 287.669 27.0501 287.889 26.4301ZM283.039 24.0401H287.909C287.839 23.3101 287.659 22.7601 287.349 22.3901C286.879 21.8201 286.269 21.5401 285.519 21.5401C284.839 21.5401 284.269 21.7701 283.809 22.2201C283.349 22.6701 283.089 23.2801 283.039 24.0401Z" fill="black"/>
    </svg>