<svg xmlns="http://www.w3.org/2000/svg" xmlns:xlink="http://www.w3.org/1999/xlink" version="1.1" id="Layer_1" x="0px" y="0px" viewBox="0 0 369.3 82" style="enable-background:new 0 0 369.3 82;" xml:space="preserve">
    <style type="text/css">
        .stsvitDark0{fill:#00FECF;}
        .stsvitDark1{fill:#FFFFFF;}
        .stsvitDark2{fill:#333333;enable-background:new    ;}
        .stsvitDark3{fill:#D22F7D;}
        .stsvitDark4{fill:#98297D;}
        .stsvitDark5{fill:#91A5D1;}
        .stsvitDark6{fill:#E59535;}
        .stsvitDark7{fill:#E6A0AA;}
        .stsvitDark8{fill:#67BDAB;}
        .stsvitDark9{fill:#3377A6;}
        .stsvitDark10{fill:#5AA7DB;}
    </style>
    <g id="Page-1">
        <g id="SVIT_Logo_Maklerkammer_DE_rgb">
            <g id="Group" transform="translate(3.000000, 156.000000)">
                <polygon id="Path" class="stsvitDark1" points="116.6,-96.2 118.2,-96.2 118.2,-85 117,-85 117,-94.6 117,-94.6 112.1,-85 111,-85      106.2,-94.7 106.1,-94.7 106.1,-85 105,-85 105,-96.1 106.7,-96.1 111.6,-86.5    "/>
                <path id="Shape" class="stsvitDark1" d="M128.7-88.4h-5.8l-1.5,3.4h-1.3l5-11.1h1.3l5,11.1h-1.3L128.7-88.4z M125.8-95l-2.5,5.5h4.9     L125.8-95z"/>
                <polygon id="Path_00000042728836896690754610000010915529631976855220_" class="stsvitDark1" points="133.7,-96.2 134.8,-96.2      134.8,-90.1 142,-96.2 143.7,-96.2 138.2,-91.6 144,-85.1 142.4,-85.1 137.3,-90.8 134.9,-88.8 134.9,-85 133.7,-85 133.7,-96.2         "/>
                <polygon id="Path_00000035530168667627043530000006800752819423592616_" class="stsvitDark1" points="146,-96.2 147.2,-96.2 147.2,-86.1      154.2,-86.1 154.2,-85 146,-85    "/>
                <polygon id="Path_00000119105755960613746080000013594013134236020631_" class="stsvitDark1" points="156.5,-96.2 165.3,-96.2      165.3,-95.1 157.6,-95.1 157.6,-91.3 165,-91.3 165,-90.3 157.6,-90.3 157.6,-86.1 165.4,-86.1 165.4,-85 156.5,-85    "/>
                <path id="Shape_00000121977998547337965350000006388935780217291187_" class="stsvitDark1" d="M168.1-96.2h6c1.9,0,3.6,0.7,3.6,3     c0,1.2-0.7,2.4-2.2,2.7v0c1.6,0.2,1.9,1.3,2,3.1c0,0.7,0.1,2.1,0.4,2.3h-1.3c-0.2-0.2-0.3-1.1-0.3-2.3c0-2-0.8-2.6-2.7-2.6h-4.4     v4.9h-1.2V-96.2L168.1-96.2z M169.3-91h4.9c1.3,0,2.4-0.5,2.4-2.2c0-1.6-1.2-1.9-2.3-1.9h-5L169.3-91L169.3-91z"/>
                <polygon id="Path_00000118359451787325269300000010101889518268735124_" class="stsvitDark1" points="180.7,-96.2 181.8,-96.2      181.8,-90.1 189,-96.2 190.7,-96.2 185.1,-91.6 191,-85 189.4,-85 184.3,-90.8 181.9,-88.8 181.9,-85 180.7,-85 180.7,-96.2         "/>
                <path id="Shape_00000067948461231183260580000007284084906009335479_" class="stsvitDark1" d="M200.5-88.4h-5.9l-1.5,3.4h-1.3l5-11.1h1.3     l5,11.1H202L200.5-88.4z M197.6-95l-2.5,5.5h4.9L197.6-95z"/>
                <polygon id="Path_00000041988251455840023160000006268475172849813896_" class="stsvitDark1" points="216.8,-96.2 218.5,-96.2 218.5,-85      217.3,-85 217.3,-94.6 217.3,-94.6 212.4,-85 211.3,-85 206.4,-94.7 206.4,-94.7 206.4,-85 205.2,-85 205.2,-96.1 206.9,-96.1      211.9,-86.5    "/>
                <polygon id="Path_00000030460054038004654860000013730293262409178265_" class="stsvitDark1" points="233.1,-96.2 234.7,-96.2 234.7,-85      233.6,-85 233.6,-94.6 233.5,-94.6 228.7,-85 227.6,-85 222.7,-94.7 222.7,-94.7 222.7,-85 221.5,-85 221.5,-96.1 223.2,-96.1      228.1,-86.5    "/>
                <polygon id="Path_00000060012968543923921370000004762418557213472900_" class="stsvitDark1" points="237.8,-96.2 246.6,-96.2      246.6,-95.1 239,-95.1 239,-91.3 246.4,-91.3 246.4,-90.3 239,-90.3 239,-86.1 246.8,-86.1 246.8,-85 237.8,-85    "/>
                <path id="Shape_00000012440175543003624370000012823061636237450924_" class="stsvitDark1" d="M249.5-96.2h6c1.9,0,3.6,0.7,3.6,3     c0,1.2-0.7,2.4-2.2,2.7v0c1.6,0.2,1.9,1.3,2,3.1c0,0.7,0.1,2.1,0.4,2.3h-1.3c-0.2-0.2-0.3-1.1-0.3-2.3c0-2-0.8-2.6-2.7-2.6h-4.4     v4.9h-1.2L249.5-96.2L249.5-96.2z M250.6-91h4.9c1.3,0,2.4-0.5,2.4-2.2c0-1.6-1.2-1.9-2.3-1.9h-5L250.6-91L250.6-91z"/>
            </g>
            <path id="Path_00000026157437515089229130000015841089740563507615_" class="stsvitDark1" d="M122.2,55.2c-9.8,0-14.6-3.2-14.6-9.6h3    c0,2.5,0.9,4.3,2.8,5.5c1.8,1.2,4.8,1.8,8.9,1.8c6.7,0,10.1-1.5,10.1-4.4c0-1.9-2.3-3.2-6.8-4c-2.1-0.2-4.2-0.5-6.4-0.7    c-3-0.3-5.3-0.9-6.9-1.7c-2.1-1.1-3.2-2.6-3.2-4.5c0-2.4,1.5-4.3,4.5-5.5c2.2-0.9,4.7-1.3,7.6-1.3c9.4,0,14.1,2.9,14.1,8.5h-3.1    c0-2.1-0.8-3.7-2.5-4.7c-1.7-1-4.4-1.5-8.2-1.5c-2.2,0-4.2,0.3-5.9,0.9c-2.3,0.8-3.5,2-3.5,3.6c0,1.9,2.2,3.1,6.7,3.7l7.1,0.9    c6.4,0.8,9.6,2.9,9.6,6.4c0,2.6-1.6,4.5-4.9,5.6C128.3,54.8,125.5,55.2,122.2,55.2z"/>
            <polygon id="Path_00000168800305152054256360000010755241330576031655_" class="stsvitDark1" points="153.9,54.7 151.3,54.7 135.6,31.5     139.1,31.5 152.6,51.9 165,31.5 168.3,31.5   "/>
            <polygon id="Path_00000168078636659721795950000003795095443589684109_" class="stsvitDark1" points="170.6,54.7 170.6,31.5 173.5,31.5     173.5,54.7   "/>
            <polygon id="Path_00000163065175078025860730000010766503368510444686_" class="stsvitDark1" points="185.6,34.3 185.6,54.7 182.8,54.7     182.8,34.3 176.2,34.3 176.2,31.5 192.3,31.5 192.3,34.2 185.6,34.2   "/>
            <polygon id="Path_00000101071682373262065510000000085164272043539858_" class="stsvitDark1" points="172.1,11 172.1,11 107,27.3     112.8,27.3 172.1,15.5 172.1,15.5 188.6,27.3 192.3,27.3   "/>
        </g>
    </g>
    </svg>