<svg xmlns="http://www.w3.org/2000/svg" xmlns:xlink="http://www.w3.org/1999/xlink" version="1.1" id="Layer_1" x="0px" y="0px" viewBox="0 0 320.24 91.85" style="enable-background:new 0 0 320.24 91.85;" xml:space="preserve">
    <style type="text/css">
        .st0{fill:#67BDAB;}
        .st1{fill:none;}
        .st2{fill:#D22F7D;}
        .st3{fill:#98297D;}
        .st4{fill:#91A5D1;}
        .st5{fill:#E59535;}
        .st6{fill:#E6A0AA;}
        .st7{fill:#1D1D1B;}
        .st8{fill:#3377A6;}
        .st9{fill:#5AA7DB;}
    </style>
    <g id="Page-1">
        <g id="SVIT_Logo_Maklerkammer_DE_rgb">
            <g id="Group" transform="translate(3.000000, 156.000000)">
                <polygon id="Path" class="st8" points="57.45,-81.24 59.95,-81.24 59.95,-64.2 58.17,-64.2 58.17,-78.89 58.12,-78.89      50.64,-64.2 49,-64.2 41.52,-78.93 41.47,-78.93 41.47,-64.2 39.7,-64.2 39.7,-81.19 42.29,-81.19 49.87,-66.41    " />
                <path id="Shape" class="st8" d="M76.07-69.38h-8.93l-2.3,5.18h-1.92l7.73-16.99h2.06l7.68,16.99h-2.06L76.07-69.38z M71.61-79.46     l-3.79,8.45h7.53L71.61-79.46z" />
                <polygon id="Path_00000042728836896690754610000010915529631976855220_" class="st8" points="83.65,-81.24 85.43,-81.24      85.43,-72.02 96.42,-81.24 98.96,-81.24 90.51,-74.23 99.53,-64.25 97.04,-64.25 89.17,-73.03 85.47,-69.96 85.47,-64.2      83.7,-64.2 83.7,-81.24    " />
                <polygon id="Path_00000035530168667627043530000006800752819423592616_" class="st8" points="102.56,-81.24 104.33,-81.24      104.33,-65.83 115.13,-65.83 115.13,-64.2 102.56,-64.2    " />
                <polygon id="Path_00000119105755960613746080000013594013134236020631_" class="st8" points="118.54,-81.24 132.07,-81.24      132.07,-79.61 120.31,-79.61 120.31,-73.85 131.64,-73.85 131.64,-72.22 120.31,-72.22 120.31,-65.83 132.26,-65.83      132.26,-64.2 118.54,-64.2    " />
                <path id="Shape_00000121977998547337965350000006388935780217291187_" class="st8" d="M136.39-81.24h9.26     c2.88,0,5.52,1.01,5.52,4.61c0,1.82-1.1,3.6-3.31,4.13v0.05c2.4,0.38,2.93,1.92,3.02,4.7c0.05,1.06,0.19,3.17,0.58,3.5h-1.92     c-0.29-0.34-0.43-1.63-0.43-3.46c-0.05-3.02-1.2-3.98-4.13-3.98h-6.81v7.49h-1.78V-81.24L136.39-81.24z M138.16-73.32h7.44     c1.92,0,3.65-0.72,3.65-3.31c0-2.5-1.87-2.98-3.5-2.98h-7.63v6.29H138.16z" />
                <polygon id="Path_00000118359451787325269300000010101889518268735124_" class="st8" points="155.58,-81.24 157.36,-81.24      157.36,-72.02 168.35,-81.24 170.89,-81.24 162.45,-74.18 171.47,-64.2 168.97,-64.2 161.1,-72.98 157.41,-69.91 157.41,-64.15      155.63,-64.15 155.63,-81.24    " />
                <path id="Shape_00000067948461231183260580000007284084906009335479_" class="st8" d="M185.96-69.38h-8.97l-2.3,5.18h-1.92     l7.73-16.99h2.06l7.73,16.99h-2.06L185.96-69.38z M181.5-79.46l-3.79,8.45h7.53L181.5-79.46z" />
                <polygon id="Path_00000041988251455840023160000006268475172849813896_" class="st8" points="210.96,-81.24 213.45,-81.24      213.45,-64.2 211.68,-64.2 211.68,-78.89 211.63,-78.89 204.15,-64.2 202.51,-64.2 195.03,-78.93 194.98,-78.93 194.98,-64.2      193.2,-64.2 193.2,-81.19 195.8,-81.19 203.38,-66.41    " />
                <polygon id="Path_00000030460054038004654860000013730293262409178265_" class="st8" points="235.86,-81.24 238.36,-81.24      238.36,-64.2 236.58,-64.2 236.58,-78.89 236.54,-78.89 229.05,-64.2 227.42,-64.2 219.93,-78.93 219.89,-78.93 219.89,-64.2      218.11,-64.2 218.11,-81.19 220.7,-81.19 228.28,-66.41    " />
                <polygon id="Path_00000060012968543923921370000004762418557213472900_" class="st8" points="243.06,-81.24 256.59,-81.24      256.59,-79.61 244.84,-79.61 244.84,-73.85 256.16,-73.85 256.16,-72.22 244.84,-72.22 244.84,-65.83 256.79,-65.83      256.79,-64.2 243.06,-64.2    " />
                <path id="Shape_00000012440175543003624370000012823061636237450924_" class="st8" d="M260.91-81.24h9.26     c2.88,0,5.52,1.01,5.52,4.61c0,1.82-1.1,3.6-3.31,4.13v0.05c2.4,0.38,2.93,1.92,3.02,4.7c0.05,1.06,0.19,3.17,0.58,3.5h-1.92     c-0.29-0.34-0.43-1.63-0.43-3.46c-0.05-3.02-1.2-3.98-4.13-3.98h-6.81v7.49h-1.78V-81.24L260.91-81.24z M262.69-73.32h7.44     c1.92,0,3.65-0.72,3.65-3.31c0-2.5-1.87-2.98-3.5-2.98h-7.63v6.29H262.69z" />
            </g>
            <path id="Path_00000026157437515089229130000015841089740563507615_" class="st9" d="M64.53,67.61    c-14.97,0-22.41-4.89-22.41-14.68h4.61c0,3.84,1.44,6.62,4.27,8.4c2.83,1.78,7.39,2.69,13.58,2.69c10.32,0,15.45-2.26,15.45-6.81    c0-2.88-3.5-4.89-10.46-6.09c-3.22-0.34-6.48-0.72-9.79-1.1c-4.65-0.53-8.16-1.44-10.61-2.64c-3.26-1.63-4.94-3.93-4.94-6.96    c0-3.69,2.3-6.53,6.91-8.45c3.36-1.39,7.25-2.06,11.61-2.06c14.4,0,21.59,4.37,21.59,13.05h-4.7c0-3.22-1.3-5.61-3.89-7.15    c-2.59-1.54-6.77-2.3-12.48-2.3c-3.41,0-6.43,0.48-9.07,1.39c-3.55,1.2-5.33,3.07-5.33,5.52c0,2.88,3.41,4.75,10.22,5.66    l10.85,1.39c9.79,1.25,14.68,4.46,14.68,9.74c0,4.03-2.5,6.91-7.49,8.64C73.84,66.99,69.62,67.61,64.53,67.61z" />
            <polygon id="Path_00000168800305152054256360000010755241330576031655_" class="st9" points="112.95,66.89 109.06,66.89     85.02,31.38 90.3,31.38 111.03,62.67 130.08,31.38 135.02,31.38   " />
            <polygon id="Path_00000168078636659721795950000003795095443589684109_" class="st9" points="138.62,66.89 138.62,31.34     143.04,31.34 143.04,66.89   " />
            <polygon id="Path_00000163065175078025860730000010766503368510444686_" class="st9" points="161.61,35.61 161.61,66.94     157.24,66.94 157.24,35.61 147.16,35.61 147.16,31.34 171.88,31.34 171.88,35.56 161.61,35.56   " />
            <polygon id="Path_00000101071682373262065510000000085164272043539858_" class="st8" points="140.83,0 140.83,0 41.26,24.91     50.13,24.91 140.83,6.96 140.83,6.96 166.21,24.91 171.88,24.91   " />
        </g>
    </g>
</svg>