<svg xmlns="http://www.w3.org/2000/svg" xmlns:xlink="http://www.w3.org/1999/xlink" version="1.1" id="Layer_1" x="0px" y="0px" viewBox="0 0 369.3 82" style="enable-background:new 0 0 369.3 82;" xml:space="preserve">
    <style type="text/css">
        .stsvit0{fill:#00FECF;}
        .stsvit1{fill:#FFFFFF;}
        .stsvit2{fill:#333333;enable-background:new    ;}
        .stsvit3{fill:#D22F7D;}
        .stsvit4{fill:#98297D;}
        .stsvit5{fill:#91A5D1;}
        .stsvit6{fill:#E59535;}
        .stsvit7{fill:#E6A0AA;}
        .stsvit8{fill:#67BDAB;}
        .stsvit9{fill:#3377A6;}
        .stsvit10{fill:#5AA7DB;}
    </style>
    <g id="Page-1_1_">
        <g id="SVIT_Logo_Maklerkammer_DE_rgb_1_">
            <g id="Group_1_" transform="translate(3.000000, 156.000000)">
                <polygon id="Path_13_" class="stsvit9" points="116.3,-96.1 117.9,-96.1 117.9,-84.9 116.7,-84.9 116.7,-94.5 116.7,-94.5      111.8,-84.9 110.7,-84.9 105.8,-94.6 105.8,-94.6 105.8,-84.9 104.6,-84.9 104.6,-96 106.3,-96 111.3,-86.3    "/>
                <path id="Shape_4_" class="stsvit9" d="M128.5-88.3h-5.9l-1.5,3.4h-1.3l5.1-11.1h1.4l5,11.1H130L128.5-88.3z M125.6-94.9l-2.5,5.5     h4.9L125.6-94.9z"/>
                <polygon id="Path_12_" class="stsvit9" points="133.5,-96.1 134.6,-96.1 134.6,-90 141.8,-96.1 143.5,-96.1 138,-91.5 143.9,-84.9      142.2,-84.9 137.1,-90.7 134.6,-88.7 134.6,-84.9 133.5,-84.9 133.5,-96.1    "/>
                <polygon id="Path_11_" class="stsvit9" points="145.9,-96.1 147,-96.1 147,-86 154.1,-86 154.1,-84.9 145.9,-84.9    "/>
                <polygon id="Path_10_" class="stsvit9" points="156.3,-96.1 165.2,-96.1 165.2,-95 157.5,-95 157.5,-91.2 164.9,-91.2 164.9,-90.2      157.5,-90.2 157.5,-86 165.4,-86 165.4,-84.9 156.3,-84.9    "/>
                <path id="Shape_3_" class="stsvit9" d="M168.1-96.1h6.1c1.9,0,3.6,0.7,3.6,3c0,1.2-0.7,2.4-2.2,2.7v0c1.6,0.2,1.9,1.3,2,3.1     c0,0.7,0.1,2.1,0.4,2.3h-1.3c-0.2-0.2-0.3-1.1-0.3-2.3c0-2-0.8-2.6-2.7-2.6h-4.5v4.9h-1.2L168.1-96.1L168.1-96.1z M169.2-90.9     h4.9c1.3,0,2.4-0.5,2.4-2.2c0-1.6-1.2-2-2.3-2h-5L169.2-90.9L169.2-90.9z"/>
                <polygon id="Path_9_" class="stsvit9" points="180.7,-96.1 181.8,-96.1 181.8,-90 189,-96.1 190.7,-96.1 185.2,-91.4 191.1,-84.9      189.4,-84.9 184.3,-90.7 181.9,-88.6 181.9,-84.9 180.7,-84.9 180.7,-96.1    "/>
                <path id="Shape_2_" class="stsvit9" d="M200.6-88.3h-5.9l-1.5,3.4h-1.3L197-96h1.4l5.1,11.1h-1.4L200.6-88.3z M197.7-94.9l-2.5,5.5     h4.9L197.7-94.9z"/>
                <polygon id="Path_8_" class="stsvit9" points="217,-96.1 218.6,-96.1 218.6,-84.9 217.5,-84.9 217.5,-94.5 217.4,-94.5 212.5,-84.9      211.5,-84.9 206.5,-94.6 206.5,-94.6 206.5,-84.9 205.3,-84.9 205.3,-96 207,-96 212,-86.3    "/>
                <polygon id="Path_7_" class="stsvit9" points="233.3,-96.1 235,-96.1 235,-84.9 233.8,-84.9 233.8,-94.5 233.8,-94.5 228.9,-84.9      227.8,-84.9 222.9,-94.6 222.9,-94.6 222.9,-84.9 221.7,-84.9 221.7,-96 223.4,-96 228.4,-86.3    "/>
                <polygon id="Path_6_" class="stsvit9" points="238.1,-96.1 246.9,-96.1 246.9,-95 239.2,-95 239.2,-91.2 246.7,-91.2 246.7,-90.2      239.2,-90.2 239.2,-86 247.1,-86 247.1,-84.9 238.1,-84.9    "/>
                <path id="Shape_1_" class="stsvit9" d="M249.8-96.1h6.1c1.9,0,3.6,0.7,3.6,3c0,1.2-0.7,2.4-2.2,2.7v0c1.6,0.2,1.9,1.3,2,3.1     c0,0.7,0.1,2.1,0.4,2.3h-1.3c-0.2-0.2-0.3-1.1-0.3-2.3c0-2-0.8-2.6-2.7-2.6h-4.5v4.9h-1.2L249.8-96.1L249.8-96.1z M250.9-90.9     h4.9c1.3,0,2.4-0.5,2.4-2.2c0-1.6-1.2-2-2.3-2h-5L250.9-90.9L250.9-90.9z"/>
            </g>
            <path id="Path_5_" class="stsvit10" d="M121.9,55.2c-9.8,0-14.7-3.2-14.7-9.6h3c0,2.5,0.9,4.3,2.8,5.5c1.9,1.2,4.8,1.8,8.9,1.8    c6.8,0,10.1-1.5,10.1-4.5c0-1.9-2.3-3.2-6.9-4c-2.1-0.2-4.3-0.5-6.4-0.7c-3.1-0.3-5.4-0.9-7-1.7c-2.1-1.1-3.2-2.6-3.2-4.6    c0-2.4,1.5-4.3,4.5-5.5c2.2-0.9,4.8-1.4,7.6-1.4c9.4,0,14.2,2.9,14.2,8.6h-3.1c0-2.1-0.9-3.7-2.6-4.7s-4.4-1.5-8.2-1.5    c-2.2,0-4.2,0.3-6,0.9c-2.3,0.8-3.5,2-3.5,3.6c0,1.9,2.2,3.1,6.7,3.7l7.1,0.9c6.4,0.8,9.6,2.9,9.6,6.4c0,2.6-1.6,4.5-4.9,5.7    C128,54.8,125.3,55.2,121.9,55.2z"/>
            <polygon id="Path_4_" class="stsvit10" points="153.7,54.8 151.2,54.8 135.4,31.5 138.8,31.5 152.5,52 165,31.5 168.2,31.5   "/>
            <polygon id="Path_3_" class="stsvit10" points="170.6,54.8 170.6,31.4 173.5,31.4 173.5,54.8   "/>
            <polygon id="Path_2_" class="stsvit10" points="185.6,34.2 185.6,54.8 182.8,54.8 182.8,34.2 176.2,34.2 176.2,31.4 192.4,31.4     192.4,34.2 185.6,34.2   "/>
            <polygon id="Path_1_" class="stsvit9" points="172,10.9 172,10.9 106.7,27.2 112.5,27.2 172,15.4 172,15.4 188.7,27.2 192.4,27.2       "/>
        </g>
    </g>
    </svg>