<svg viewBox="0 0 369 345" fill="none" xmlns="http://www.w3.org/2000/svg">
    <path d="M332.191 63.5C332.172 64.5306 331.696 66.6929 329.942 67.0972" stroke="black" strokeLinecap="round" />
    <path d="M207 208.5L230.5 152L251.5 150.091M280 147.5L251.5 150.091M251.5 150.091L254.5 173L280 310.973M282.5 324.5L280 310.973M280 310.973L346 303L348 316.5L345 297.5" stroke="black" strokeLinecap="round" />
    <path d="M273.5 274.5L332.5 266L327.5 221.5L279 229" stroke="black" strokeLinecap="round" />
    <path d="M57.5 40.5V42" stroke="black" strokeLinecap="round" />
    <path d="M48 43V44.5" stroke="black" strokeLinecap="round" />
    <path d="M56 38.0003C56.3333 37.667 57.4 37.2003 59 38.0003" stroke="black" strokeLinecap="round" />
    <path d="M46 41.5C46.1667 40.8333 46.9 39.6 48.5 40" stroke="black" strokeLinecap="round" />
    <path d="M45.5 54C46 55.6667 47.5 59 49.5 59" stroke="black" strokeLinecap="round" />
    <path d="M45.5 54C46.8333 55.1667 50 57.4 52 57" stroke="black" strokeLinecap="round" />
    <path d="M121.5 268.5L130 273" stroke="black" strokeLinecap="round" />
    <path d="M94.5 274L101 271" stroke="black" strokeLinecap="round" />
    <path d="M111.5 307.5L64 286.5L73.5 282.5" stroke="black" strokeLinecap="round" />
    <path d="M199 247.5V258.5C202.167 261.334 210.7 265.5 219.5 259.5C219.5 255.1 219.5 250.334 219.5 248.5M199 247.5C208.6 236.3 216.667 243.5 219.5 248.5M199 247.5C201.833 251 209.9 256.1 219.5 248.5" stroke="black" strokeLinecap="round" />
    <path d="M125 83.9301V94.9301C128.167 97.7634 136.7 101.93 145.5 95.9301C145.5 91.5301 145.5 86.7634 145.5 84.9301M125 83.9301C134.6 72.7301 142.667 79.9301 145.5 84.9301M125 83.9301C127.833 87.43 135.9 92.53 145.5 84.9301" stroke="black" strokeLinecap="round" />
    <path d="M171.5 236.5V246C174.667 248.833 183.7 252.93 192.5 246.93C192.5 242.53 192.5 236.333 192.5 234.5M171.5 236.5C181.1 225.3 189.667 229.5 192.5 234.5M171.5 236.5C174.333 240 182.9 242.1 192.5 234.5" stroke="black" strokeLinecap="round" />
    <path d="M198.5 225.5V235C201.667 237.834 210.2 241.5 219 235.5C219 231.1 219 225.936 219 224.103M198.5 225.5C201 216 215 219.5 219 224.103M198.5 225.5C201.333 229 209.4 231.703 219 224.103" stroke="black" strokeLinecap="round" />
    <path d="M226 234.93V245.93C229.167 248.763 237.7 252.93 246.5 246.93C246.5 242.53 246.5 237.763 246.5 235.93M226 234.93C235.6 223.73 243.667 230.93 246.5 235.93M226 234.93C228.833 238.43 236.9 243.53 246.5 235.93" stroke="black" strokeLinecap="round" />
    <path d="M129 273.93V284.93C132.167 287.763 140.7 291.93 149.5 285.93C149.5 281.53 149.5 276.763 149.5 274.93M129 273.93C138.6 262.73 146.667 269.93 149.5 274.93M129 273.93C131.833 277.43 139.9 282.53 149.5 274.93" stroke="black" strokeLinecap="round" />
    <path d="M149.5 281L159 286V248.5L110.266 227M110.266 227V256.5M110.266 227L109.763 190M55 45C55.6699 46.1667 56.8087 48.7 56.0048 49.5" stroke="black" strokeLinecap="round" />
    <path d="M102 285.93V296.93C105.167 299.763 113.7 303.93 122.5 297.93C122.5 293.53 122.5 288.763 122.5 286.93M102 285.93C111.6 274.73 119.667 281.93 122.5 286.93M102 285.93C104.833 289.43 112.9 294.53 122.5 286.93" stroke="black" strokeLinecap="round" />
    <path d="M101 262.93V273.93C104.167 276.763 112.7 280.93 121.5 274.93C121.5 270.53 121.5 265.763 121.5 263.93M101 262.93C110.6 251.73 118.667 258.93 121.5 263.93M101 262.93C103.833 266.43 111.9 271.53 121.5 263.93" stroke="black" strokeLinecap="round" />
    <path d="M74 273.93V284.93C77.1667 287.763 85.7 291.93 94.5 285.93C94.5 281.53 94.5 276.763 94.5 274.93M74 273.93C83.6 262.73 91.6667 269.93 94.5 274.93M74 273.93C76.8333 277.43 84.9 282.53 94.5 274.93" stroke="black" strokeLinecap="round" />
    <path d="M159 286.5L111.5 307.5L112 343L160 321.5L159 286.5Z" fill="white" />
    <path d="M64 286.5V321L111.5 343.5M111.5 307.5L159 286.5L160 321.5L112 343L111.5 307.5Z" stroke="black" strokeLinecap="round" />
    <path d="M176 284L178 284.5" stroke="black" strokeWidth="0.5" strokeLinecap="round" />
    <path d="M184 270H186" stroke="black" strokeWidth="0.5" strokeLinecap="round" />
    <path d="M200 284.5H202.5" stroke="black" strokeWidth="0.5" strokeLinecap="round" />
    <path d="M181 286L200 293.5" stroke="black" strokeWidth="0.5" strokeLinecap="round" />
    <path d="M165 279.5L172.5 282" stroke="black" strokeWidth="0.5" strokeLinecap="round" />
    <path d="M177 276L195 282.5" stroke="black" strokeWidth="0.5" strokeLinecap="round" />
    <path d="M164.5 271L171.5 273.5" stroke="black" strokeWidth="0.5" strokeLinecap="round" />
    <path d="M291 121L286 136.5L288 141.5" stroke="black" strokeLinecap="round" />
    <path d="M314.5 48.0005C316.167 47.1671 319.5 45.1005 319.5 43.5005C319.5 41.5005 320 47.5005 318.5 48.0005" stroke="black" strokeLinecap="round" />
    <path d="M308.5 41C308.5 41.6667 308.2 43.1 307 43.5" stroke="black" strokeLinecap="round" />
    <path d="M301 35.9998C301.5 35.1664 302.8 33.5998 304 33.9998" stroke="black" strokeLinecap="round" />
    <path d="M290.496 25.9998C269.696 26.7998 267.163 40.3331 268.496 46.9998C270.33 51.9998 275.098 61.9998 279.498 61.9998C288.998 56 294.998 58.5 300.998 61.9998C303.187 63.2764 308.831 60.3333 309.998 58.5V55.5C309.665 55.8333 308.198 56.1 304.998 54.4998C300.998 52.4996 296.498 37.5 298.997 29C308.996 34.5 319.998 28.5 323.998 24.5C323.998 28.9 325.665 31.3333 326.498 32C326.331 33 326.298 35.5 327.498 37.5C331.498 35 332.998 35.5 334.998 37.5C336.598 39.1 331.665 42.8333 328.998 44.5C329.331 47.3333 329.998 54 329.998 58C353.498 69.0002 357.498 83.5 358.998 88.5C377.498 72.5 360.498 71 357.498 58.5C363.998 38.5 357.498 38.5 348.998 32C350.998 12.8 341.831 9.66667 336.998 10.5C337.498 7.83326 336.898 2.29982 330.498 1.49992C324.098 0.700033 319.165 5.16655 317.498 7.49979C316.165 4.99979 310.998 0.499789 300.998 2.49979C288.498 4.99979 290.496 17.4998 290.496 25.9998Z" fill="#50B8E7" stroke="black" strokeLinecap="round" />
    <path d="M314.5 32.5C315.333 32.6667 317.1 33.3 317.5 34.5" stroke="black" strokeLinecap="round" />
    <path d="M311.5 75.4997L263 95.9998L215.5 76.4997L224.5 71.9997M311.5 75.4997L309.5 107M311.5 75.4997L301 70.9995M224.5 71.9997V60.9997M224.5 71.9997C233.3 83.1998 242.833 77.3331 246.5 72.9997V61.9997M224.5 60.9997C225.5 57.9999 239 50.9997 246.5 60.9997M224.5 60.9997C227.667 64.9998 236.5 70.5998 246.5 60.9997M246.5 60.9997V61.9997M246.5 61.9997L253 59.4997M253 59.4997V52.4997M253 59.4997C253 59.6663 253.1 60.7995 253.5 63.9995C263.5 69.5995 269 65.3333 271.5 62.4999L271 53.4999M253 52.4997C256.167 55.4997 262.6 60.6999 271 53.4999M253 52.4997C256 45.5 271 48.4995 271 53.4999M253 74.4995C256.333 70.3329 265.3 64.4995 274.5 74.4995M253 74.4995C253.5 83.9995 276.5 80.9995 274.5 74.4995M253 74.4995V85.9995C257 88.8329 266.8 92.7995 274 85.9995C274 79.9995 274.333 75.8329 274.5 74.4995M271.333 59.4997L279.5 61.9997M279.5 61.9997V74.4995C283 77.6662 292.2 82.0995 301 74.4995C301 73.2747 301 72.0997 301 70.9995M279.5 61.9997C290.7 54.7998 298.5 59.9996 301 63.4995M279.5 61.9997C285.5 71.5998 296.333 66.9996 301 63.4995M301 63.4995C301 63.9404 301 64.6232 301 65.4995M301 70.9995C301 68.8019 301 66.9026 301 65.4995M301 65.4995L307.5 60.9997C306.5 67.1663 309.6 75.1995 330 57.9995C346 63.9995 359 78.9995 359.5 93.9995C360 109 367.5 127.5 339 127M339 127C338.5 122 334.5 103 330 104.5C328.579 104.973 327.806 105.896 327.429 107M339 127C334.5 130 334 127.5 332.5 127C332.25 126.916 331.971 126.554 331.679 126M327.429 107C326.614 109.391 327.658 112.631 328 114C328.417 115.666 330.221 123.231 331.679 126M327.429 107L294 108C293.167 104.666 290.9 98.0995 288.5 98.4995C287.7 98.8995 288.167 102 288.5 103.5C286 103.666 280.7 103.3 279.5 100.5C278 96.9995 279 104 280 104C278 104.5 279.5 102 278 102C276.5 102 278 106.5 279 106.5C280 106.5 274.5 102.5 276 104.5C276 106 277 108 278 108.5C279 108.5 273 106.5 274.5 108C276 109.5 280.5 110.5 282 110.5C283.5 110.5 288 113 291 112C295 114 295 117 306.5 120C318 123 322.859 126.5 331.679 126" stroke="black" strokeLinecap="round" />
    <path d="M260.998 248C254.331 228.667 242.998 187.5 250.998 177.5C258.751 167.808 278.247 146.362 287.179 137.919C287.613 137.508 288.304 137.574 288.669 138.047C293.481 144.277 303.509 153.734 314.498 151.5C328.498 148.654 343.998 139.929 348.998 139.5C353.998 139.071 360.998 139 359.498 155.5C357.998 172 358.498 192 346.998 213C348.998 229 357.998 270 356.998 272C356.214 273.569 345.896 277.597 340.998 278.78C339.651 279.106 338.714 279.216 338.498 279C337.498 278 309.997 221 310.998 207.5C311.842 196.107 311.618 178.66 313.931 171.388C307.81 182.18 295.459 198.961 284.498 197.5C282.898 208.3 281.831 234.667 281.498 246.5L278.21 246.741L260.998 248Z" fill="#50B8E7" />
    <path d="M357.498 121.5C358.998 127.333 359.539 139 357.039 141.5M265.998 248C266.665 253 267.598 263.2 265.998 264C263.998 265 256.998 267.5 258.498 272C259.698 275.6 271.665 272.833 277.498 271L278.21 246.741M278.21 246.741L281.498 246.5C281.831 234.667 282.898 208.3 284.498 197.5C296.498 199.1 310.165 178.833 315.498 168.5C311.498 172 311.998 194 310.998 207.5C309.997 221 337.498 278 338.498 279C338.714 279.216 339.651 279.106 340.998 278.78M278.21 246.741L260.998 248C254.331 228.667 242.998 187.5 250.998 177.5C258.751 167.808 278.247 146.362 287.179 137.919C287.613 137.508 288.304 137.574 288.669 138.047C293.481 144.277 303.509 153.734 314.498 151.5C328.498 148.654 343.998 139.929 348.998 139.5C353.998 139.071 360.998 139 359.498 155.5C357.998 172 358.498 192 346.998 213C348.998 229 357.998 270 356.998 272C356.214 273.569 345.896 277.597 340.998 278.78M340.998 278.78L342.998 291.5C340.665 292.667 336.498 295.5 338.498 297.5C340.998 300 356.998 293.5 356.998 292.5C356.998 291.7 355.665 283.02 354.998 278.78L353.998 275" stroke="black" strokeLinecap="round" />
    <path d="M37.9976 23.5003C24.7976 20.3003 24.1642 28.8336 25.4976 33.5003C26.4971 36.5005 37.0284 38.2121 43.998 37.5608C49.998 37 57.1647 33 59.498 31C59.6718 30.9198 59.8383 30.8361 59.998 30.749C64.6186 28.2293 63.4813 22.9165 62.998 20.4999C62.598 16.8999 58.998 16.6821 56.998 16.5002C51.498 16 47.998 19.9999 47.498 20.5002C47.1446 20.8539 42.998 25.0002 37.9976 23.5003Z" fill="#50B8E7" />
    <path d="M54.4976 64.0003C57.6642 63.5003 63.7976 60.6003 62.9976 53.0003C62.1976 45.4003 60.6647 34.749 59.998 30.749M25.4976 33.5003C25.3309 36.5003 25.4976 43.0003 27.4976 45.0003M25.4976 33.5003C24.1642 28.8336 24.7976 20.3003 37.9976 23.5003C42.998 25.0002 47.1446 20.8539 47.498 20.5002C47.998 19.9999 51.498 16 56.998 16.5002C58.998 16.6821 62.598 16.8999 62.998 20.4999C63.498 23 64.698 28.6 59.498 31C57.1647 33 49.998 37 43.998 37.5608C37.0284 38.2121 26.4971 36.5005 25.4976 33.5003Z" stroke="black" strokeLinecap="round" />
    <path d="M215.5 76V110.5L261.5 132L299 117.5" stroke="black" strokeLinecap="round" />
    <path d="M95.4962 98.9994C100.496 90.4995 117.346 95.4992 116.996 98.9994C116.83 100.666 116.996 105.5 116.496 111C104.496 119.4 97.4962 112.833 95.4962 108.5V98.9994Z" fill="white" />
    <path d="M69.4962 112.5C68.6962 111.7 65.8296 115.5 64.4962 117.5L65.9962 124.5C67.9962 124.666 72.1962 125 72.9962 125C73.9962 125 78.9962 121.5 79.4962 120.5C79.8962 119.7 76.6629 120.166 74.9962 120.5C76.6629 119.833 79.7962 118.3 78.9962 117.5C78.1962 116.7 74.9962 118.166 73.4962 119C74.9962 118.166 77.9962 116.3 77.9962 115.5C77.9962 114.7 73.9962 116.166 71.9962 117C73.6629 116.166 76.7962 114.3 75.9962 113.5C75.1962 112.7 71.6629 114.5 69.9962 115.5C70.1629 114.833 70.2962 113.3 69.4962 112.5Z" fill="white" />
    <path d="M95.4962 98.9994C97.9961 102.5 108.596 108.999 116.996 98.9994M95.4962 98.9994C100.496 90.4995 117.346 95.4992 116.996 98.9994M95.4962 98.9994V108.5C97.4962 112.833 104.496 119.4 116.496 111C116.996 105.5 116.83 100.666 116.996 98.9994M17.9961 285.5C17.8294 283.833 17.3961 280.7 16.9961 281.5C16.4961 282.5 14.4961 287.5 12.9962 289C11.4962 289.5 12.9962 295.5 21.4962 298.5C40.9962 300.5 38.9962 296 39.4962 295.5C39.9962 295 34.4962 290 32.9962 290C31.7962 290 30.1629 285.666 29.4962 283.5C28.8295 284.666 27.2961 287.3 26.4961 288.5M64.4962 117.5C65.8296 115.5 68.6962 111.7 69.4962 112.5C70.2962 113.3 70.1629 114.833 69.9962 115.5C71.6629 114.5 75.1962 112.7 75.9962 113.5C76.7962 114.3 73.6629 116.166 71.9962 117C73.9962 116.166 77.9962 114.7 77.9962 115.5C77.9962 116.3 74.9962 118.166 73.4962 119C74.9962 118.166 78.1962 116.7 78.9962 117.5C79.7962 118.3 76.6629 119.833 74.9962 120.5C76.6629 120.166 79.8962 119.7 79.4962 120.5C78.9962 121.5 73.9962 125 72.9962 125C72.1962 125 67.9962 124.666 65.9962 124.5L64.4962 117.5Z" stroke="black" strokeLinecap="round" />
    <path d="M32.9958 46.9998C30.3291 45.4998 25.4958 44.0998 27.4958 50.4998C29.4958 56.8998 31.9958 55.8333 32.9958 54.5C33.3292 56.8333 34.6 61.1 35 61.5C35.5 62 35.4961 69 35.4961 69.5" stroke="black" strokeLinecap="round" />
    <path d="M66 96.5C69 101.167 77.7 107.9 88.5 97.5C88.5 91.9 88.5 87.1667 88.5 85.5" stroke="black" strokeLinecap="round" />
    <path d="M145.5 94L158 99" stroke="black" strokeLinecap="round" />
    <path d="M118 80.5L125 85" stroke="black" strokeLinecap="round" />
    <path d="M88.5 86L97 81.5" stroke="black" strokeLinecap="round" />
    <path d="M142 115L151 111.5V134.5L143 138" stroke="black" strokeLinecap="round" />
    <path d="M107.5 121V161" stroke="black" strokeLinecap="round" />
    <path d="M124.5 121L114 124.5L115 148.5L124.5 145.5" stroke="black" strokeLinecap="round" />
    <path d="M36.4976 75.2308L50.4976 86C51.2972 85.2 53.831 77.3333 54.998 73.5V64.5C59.5563 64.5 62.0179 66.191 63.1776 67.7664C63.915 68.7681 63.6434 70.091 63.0035 71.1576L54.998 84.5C57.998 80.1667 64.298 71.5 65.498 71.5C71.998 71 84.498 78.5 86.498 81.5C70.898 79.5 66.3314 83.6667 65.998 86V96L56.498 99.5C55.998 100.167 54.998 104.5 54.998 116.5C41.7979 121.3 34.498 119.5 32.498 118V104.5C30.3314 106.5 26.998 112 30.9976 118C36.7445 122.598 53.9615 118.081 62.8725 114.91C63.462 114.7 64.0971 115.069 64.2043 115.686L65.998 126C67.498 127.667 65.298 133.4 44.498 143C18.498 155 11.497 141.5 9.99702 141.5C8.49702 141.5 -0.00297678 131.5 1.49702 110.5C2.69702 93.7 11.3307 87.1667 15.4976 86C12.8309 85.3333 9.09759 81.9 15.4976 73.5C23.4976 63 33.498 64.5 33.498 66.5C33.498 68.1 35.8309 70.1667 36.4976 71V75.2308Z" fill="#50B8E7" />
    <path d="M54.998 212C58.8313 217.167 66.798 228.7 67.998 233.5C69.198 238.3 72.8313 254.833 74.498 262.5M74.498 262.5C80.498 260.333 93.598 256.2 97.998 257C97.998 247.5 90.998 195 89.998 192C88.998 189 82.998 164.5 81.498 164M74.498 262.5C73.1645 263.167 72.098 266.3 74.498 273.5M17.498 264C15.998 263.5 13.098 263.9 13.498 269.5C13.498 274 13.9976 275.5 15.9976 275.5C17.284 275.5 25.8109 276.948 31.9976 277.848M38.4976 267C40.4976 267 40.4976 268.5 40.4976 270C40.4976 271.803 39.4976 278 38.4976 278.5C38.1408 278.678 35.4292 278.348 31.9976 277.848M17.498 276L17.4976 285C18.6643 286.333 21.198 288.6 21.998 289C22.998 289.5 26.4976 288.5 26.9976 288C27.4976 287.5 29.4976 284 29.9976 283C30.3976 282.2 31.4976 279.232 31.9976 277.848M30.9976 71L36.4976 75.2308M36.4976 75.2308L50.4976 86C51.2972 85.2 53.831 77.3333 54.998 73.5C54.998 72.6667 54.998 69.7 54.998 64.5C59.5563 64.5 62.0179 66.191 63.1776 67.7664C63.915 68.7681 63.6434 70.091 63.0035 71.1576L54.998 84.5C57.998 80.1667 64.298 71.5 65.498 71.5C71.998 71 84.498 78.5 86.498 81.5C70.898 79.5 66.3314 83.6667 65.998 86V96L56.498 99.5C55.998 100.167 54.998 104.5 54.998 116.5C41.7979 121.3 34.498 119.5 32.498 118V104.5C30.3314 106.5 26.998 112 30.9976 118C36.7445 122.598 53.9615 118.081 62.8725 114.91C63.462 114.7 64.0971 115.069 64.2043 115.686L65.998 126C67.498 127.667 65.298 133.4 44.498 143C18.498 155 11.497 141.5 9.99702 141.5C8.49702 141.5 -0.00297678 131.5 1.49702 110.5C2.69702 93.7 11.3307 87.1667 15.4976 86C12.8309 85.3333 9.09759 81.9 15.4976 73.5C23.4976 63 33.498 64.5 33.498 66.5C33.498 68.1 35.8309 70.1667 36.4976 71V75.2308Z" stroke="black" strokeLinecap="round" />
    <path d="M85.5 81.5C87 82 89.7 83.6 88.5 86C87 89 72.5 96 66 86.5" stroke="black" strokeLinecap="round" />
    <path d="M12.996 166.5C10.496 173.667 7.89595 194.4 17.496 220C17.496 247.6 17.496 260.833 17.496 264L38.4961 267C43.4961 256.333 52.8014 231.947 53.9961 220C54.8804 211.157 55.9385 200.923 56.5557 193.5M56.9961 183.5C57.2013 184.526 56.9854 188.332 56.5557 193.5M56.5557 193.5C58.5358 194 62.2961 191 61.4961 175" stroke="black" strokeLinecap="round" />
    <path d="M8 164V140.5C19.5 153.5 45 144.5 54.5 139L80 149C80.5 149.333 81.9 152.6 83.5 163C49.5 179 19 170.333 8 164Z" fill="#50B8E7" />
    <path d="M80 149C80.5 149.333 81.9 152.6 83.5 163C49.5 179 19 170.333 8 164V140.5C19.5 153.5 45 144.5 54.5 139L80 149ZM80 149L107.5 161L158 139V99.5L107.5 121L56.5 99.5" stroke="black" strokeLinecap="round" />
    <path d="M110.5 190L157.5 210L206 190L197 186C196.692 186.231 196.358 186.468 196 186.707M176 176.5C176 177 176 179.6 176 186C181.23 193.846 190.939 190.089 196 186.707M176 176.5C179 172.5 187.2 166.6 196 175M176 176.5C185.6 183.7 193.333 178.5 196 175M196 175C196.4 181 196.167 185.305 196 186.707M175.5 177L169.5 174M169.5 174V165.5M169.5 174C169.333 177.833 165.1 184.2 149.5 179C147.9 179 147.833 170.667 148 166.5M169.5 165.5C165.5 162.5 155.7 158.3 148.5 165.5C145.5 171 170.5 172.5 169.5 165.5ZM149 188.5C152.667 185.333 161.7 181.1 168.5 189.5M149 188.5C149.5 197.5 169.5 193.5 168.5 189.5M149 188.5V201C152.5 203.667 161.2 207.3 168 200.5C168.4 195.7 168.5 191.167 168.5 189.5M119.5 176.5C123.167 172.167 132.8 165.9 142 175.5M119.5 176.5C118.5 185.5 145 183 142 175.5M119.5 176.5V187.5C121.5 191.667 128.8 197.8 142 189C142 182.6 142 177.333 142 175.5M110 190L119 186" stroke="black" strokeLinecap="round" />
    <path d="M147.5 173L142 175" stroke="black" strokeLinecap="round" />
    <path d="M171.5 243L159 248.5L157.5 210L206 190C206 197.333 207 213.5 207 219.5C201.4 219.1 199 223.667 198.5 226V232.5C197.5 233 195.4 233.1 193 233.5C181.4 225.1 174.167 232.833 172 237L171.5 243Z" fill="#50B8E7" />
    <path d="M208.99 306.298L208.5 270.5L255.5 249.5L256.5 286.75L257.5 322L209.5 343.5L160 321.5L159 286.5L208.5 306.5L208.99 306.298Z" fill="#50B8E7" />
    <path d="M159 249.5L208.5 270.5M208.5 270.5L209.5 343.5M208.5 270.5L255.5 249.5L256.5 286.75M209.5 343.5L160 321.5L159 286.5L208.5 306.5L256.5 286.75M209.5 343.5L257.5 322L256.5 286.75M159 248.5L171.5 243L172 237C174.167 232.833 181.4 225.1 193 233.5C195.4 233.1 197.5 233 198.5 232.5V226C199 223.667 201.4 219.1 207 219.5C207 213.5 206 197.333 206 190L157.5 210L159 248.5Z" stroke="black" strokeLinecap="round" />
    <path d="M191.5 273L202.5 278" stroke="black" strokeWidth="0.5" strokeLinecap="round" />
    <path d="M166 263L177 268" stroke="black" strokeWidth="0.5" strokeLinecap="round" />
    <path d="M97 74.2325V83.9067C100.167 86.7919 109.2 90.9637 118 84.8538C118 80.3732 118 74.0629 118 72.196M97 74.2325C106.6 62.8273 115.167 67.1044 118 72.196M97 74.2325C99.8333 77.7965 108.4 79.9352 118 72.196" stroke="black" strokeLinecap="round" />
    <path d="M267.059 248.264L267.498 248L274.998 247.5L275.498 248.265L275.998 270.765L272.998 271.765L270.498 272.265L267.998 268.765L267.059 248.264Z" fill="white" />
    <path d="M329.793 62C328.726 63.8034 325.851 67.4565 322.884 67.6421" stroke="black" strokeLinecap="round" />
    <circle cx="305" cy="38" r="1" fill="black" />
    <circle cx="315" cy="37" r="1" fill="black" />
    <path d="M155.422 321.147C154.671 321.111 130.447 313.213 116.119 308.485" stroke="black" strokeWidth="0.5" strokeLinecap="round" />
    <path d="M150.656 322.258C149.945 322.223 129.082 315.534 115.528 310.694" stroke="black" strokeWidth="0.5" strokeLinecap="round" />
    <path d="M146.336 323.837C145.625 323.802 129.406 318.235 115.851 313.395" stroke="black" strokeWidth="0.5" strokeLinecap="round" />
    <path d="M141.547 325.394C140.836 325.359 129.26 320.914 115.706 316.074" stroke="black" strokeWidth="0.5" strokeLinecap="round" />
    <path d="M136.805 326.057C136.093 326.022 130.521 323.661 116.967 318.821" stroke="black" strokeWidth="0.5" strokeLinecap="round" />
    <path d="M129.129 328.816C128.418 328.781 131.171 329.065 117.616 324.225M132.955 327.66L117.292 321.524" stroke="black" strokeWidth="0.5" strokeLinecap="round" />
    <path d="M124.5 332C124.072 331.991 124.171 331.628 117.5 329M126.845 330.681L117.337 326.538" stroke="black" strokeWidth="0.5" strokeLinecap="round" />
    <path d="M150.943 303.073C150.378 302.661 152.667 304.144 139.05 299.465M153.068 306.314L136.962 301.321" stroke="black" strokeWidth="0.5" strokeLinecap="round" />
    <path d="M154.469 312.597C153.757 312.562 141.665 308.987 128.11 304.147M155.094 318.446L119.965 306.883M155.238 315.768L123.791 305.727M153.23 309.403L131.96 302.545" stroke="black" strokeWidth="0.5" strokeLinecap="round" />
    <path d="M35.0859 24.625C36.5678 25.7901 40.0104 27.7741 41.9258 26.3896" stroke="black" strokeWidth="0.5" strokeLinecap="round" />
</svg>
    