<svg viewBox="0 0 628 339" fill="none" xmlns="http://www.w3.org/2000/svg">
<path d="M379 216.5L380.5 217M369 233L377 237.5M371 229.5L378 233.5M371 226L380 231M371.5 223L379.5 226.5M371.5 219L380 223.5M375 217L380 220M368 235.5L375.5 240.5M366 238.5L373.5 243M364 240.5L371.5 246.5M361.5 243L369.5 249M358.5 244.5L366 251M354.5 246L363 253.5M353 249L360 255M354 253L356.5 256M315 200.5C325 187.833 351.6 170.5 378 202.5C370.4 207.7 367.5 210 367 210.5C365 206.167 358.4 197.6 348 198C335 198.5 327.5 207.5 327.5 208.5C327.5 209.3 319.167 203.5 315 200.5ZM369 216.5L382 214C384 227.167 380.8 254.5 352 258.5C351.2 250.1 350.667 245.667 350.5 244.5C357.333 244.5 370.6 238.9 369 216.5Z" stroke="black" stroke-linecap="round"/>
<path d="M599 309.5C602.333 309.167 609.2 308.6 610 309" stroke="black" stroke-linecap="round"/>
<path d="M589 272.5C593.833 272.333 604.6 272 609 272" stroke="black" stroke-linecap="round"/>
<path d="M585 264C593.5 263.667 611.1 263 613.5 263" stroke="black" stroke-linecap="round"/>
<path d="M429 274.5L338.5 274L368.5 338" stroke="black" stroke-linecap="round"/>
<path d="M454 261.5C455.931 265.056 458.375 269.855 460.751 275M469 305C471.225 300.273 466.168 286.734 460.751 275M460.751 275C456 285 445.9 305.1 443.5 305.5M429 275L459 337" stroke="black" stroke-linecap="round"/>
<path d="M478 216.5C466.333 218.833 442.5 226 440.5 236C438 248.5 430 268.5 429.5 275" stroke="black" stroke-linecap="round"/>
<path d="M528.5 219C528.5 220.833 528.4 224.5 528 224.5" stroke="black" stroke-linecap="round"/>
<path d="M524 219.5C523.667 222.167 522.9 227.6 522.5 228" stroke="black" stroke-linecap="round"/>
<path d="M459.5 322.5C459.167 325.333 459.4 329.7 463 324.5" stroke="black" stroke-linecap="round"/>
<path d="M506.499 323.5C500.832 323.5 488.799 323 485.999 321C481.499 321 472.499 331.5 471.999 327.5C473.332 324.333 477.099 318.1 481.499 318.5C479.165 318 472.999 318.7 466.999 325.5C462.499 329 462.999 322.5 465.999 320.5C468.999 317.5 474.999 313.5 477.499 314M506.499 308C501.999 308.5 493.25 307.476 489.999 306.5C484.999 305 473.999 302 469.499 305.5C464.166 309 454.499 317.7 458.499 324.5C461 319.5 466 311 470.5 311" stroke="black" stroke-linecap="round"/>
<path d="M501.5 323.5C501.167 324.5 500.7 326.9 501.5 328.5" stroke="black" stroke-linecap="round"/>
<path d="M526 152.5C522 154.9 517 153.5 515 152.5C515.5 155.5 516 161 515.5 163.5C517.9 163.1 520.333 165.333 521.5 166C522.5 163.5 525.2 156.5 526 152.5Z" fill="#84CDEE"/>
<path d="M517.5 175.5C516.3 176.3 513.666 175.833 512.5 175.5C511.5 178.333 509.6 184.3 510 185.5C512.5 186 519 174.5 517.5 175.5Z" fill="#84CDEE"/>
<path d="M526 152.5C522 154.9 517 153.5 515 152.5C515.5 155.5 516 161 515.5 163.5C517.9 163.1 520.333 165.333 521.5 166C522.5 163.5 525.2 156.5 526 152.5Z" stroke="black" stroke-linecap="round"/>
<path d="M517.5 175.5C516.3 176.3 513.666 175.833 512.5 175.5C511.5 178.333 509.6 184.3 510 185.5C512.5 186 519 174.5 517.5 175.5Z" stroke="black" stroke-linecap="round"/>
<path d="M469.502 150.5C454.003 150 460.003 134 466.502 134C454.903 123.2 467.668 120.499 475.5 120.499C474.5 105.499 496.5 111.499 495 119.5C505.4 110.7 510.667 120.167 512 126C524 117 526.5 129.499 522.5 135C527.5 130 539 142.5 529.5 149.5C517.1 159.9 509 148.5 506.5 141.5C500.5 150.5 493 147.5 491 143C484.5 154 479 149 477.5 145C475.1 148.2 471.168 150 469.502 150.5Z" fill="#84CDEE"/>
<path d="M527 140.5C527 142.667 525.9 147.1 521.5 147.5M466.502 134C460.003 134 454.003 150 469.502 150.5C471.168 150 475.1 148.2 477.5 145C479 149 484.5 154 491 143C493 147.5 500.5 150.5 506.5 141.5C509 148.5 517.1 159.9 529.5 149.5C539 142.5 527.5 130 522.5 135C526.5 129.499 524 117 512 126C510.667 120.167 505.4 110.7 495 119.5C496.5 111.499 474.5 105.499 475.5 120.499C467.668 120.499 454.903 123.2 466.502 134Z" stroke="black" stroke-linecap="round"/>
<path d="M97.5 122C97.5 123.5 98.3 126.6 101.5 127" stroke="black" stroke-linecap="round"/>
<path d="M101 120C102.5 122.833 107 128.1 113 126.5" stroke="black" stroke-linecap="round"/>
<path d="M231 201L230.5 149.5C242 150 272.5 153.2 272.5 172" stroke="black"/>
<path d="M240.5 167C244.5 167 253.4 167.7 257 170.5" stroke="black"/>
<path d="M240 175.5C242.5 175 248.2 174.5 251 176.5" stroke="black"/>
<path d="M246 246L249.5 248.5" stroke="black"/>
<path d="M239.5 241L243.5 244" stroke="black"/>
<path d="M211 261L220 234L230 243L238.5 219.5L253.5 241L265 209.5M210 244L214 247M217 249L221 252M223.5 254L227.5 256.5M230 254L232.5 250.5M192.5 208.5C218 204.5 272.5 196.5 272.5 170C270.5 182.5 273.5 236 274.5 260C260.5 278.4 216 288 195.5 290.5L192.5 208.5Z" stroke="black"/>
<path d="M235 247L237.5 243.5" stroke="black"/>
<path d="M83 241H72.5L72 277.5H82.5L83 241Z" fill="white"/>
<path d="M64.5 258H55L54.5 275.5H64L64.5 258Z" fill="white"/>
<path d="M47.5 273.5L48.5 253H43H37.5V273.5H47.5Z" fill="white"/>
<path d="M30 263.5H20V271H30V263.5Z" fill="white"/>
<path d="M123.5 253L114.5 275.5C117.167 277.667 120.3 282.2 111.5 283C103.5 282.5 111 273.5 114.5 275.5L123.5 253C121.333 249.833 119 243.7 127 244.5C131.025 246.647 131.162 249.226 129.651 251L143.5 260.5C145.222 259.984 147.672 259.68 149.309 260.5L158.897 246.649L159 246.5C156 244.5 154.5 237.5 163.5 239.5C165.598 241.933 167.614 246.769 158.897 246.649L149.309 260.5C150.841 261.267 151.66 263.019 150.5 266.5C143.5 271 141 263.5 143.5 260.5L129.651 251C128.347 252.531 125.816 253.463 123.5 253Z" fill="white"/>
<path d="M114.5 275.5L123.5 253M114.5 275.5C117.167 277.667 120.3 282.2 111.5 283C103.5 282.5 111 273.5 114.5 275.5ZM123.5 253C121.333 249.833 119 243.7 127 244.5C131.025 246.647 131.162 249.226 129.651 251M123.5 253C125.816 253.463 128.347 252.531 129.651 251M129.651 251L143.5 260.5M143.5 260.5C141 263.5 143.5 271 150.5 266.5C151.66 263.019 150.841 261.267 149.309 260.5M143.5 260.5C145.222 259.984 147.672 259.68 149.309 260.5M149.309 260.5L158.897 246.649M158.897 246.649L159 246.5C156 244.5 154.5 237.5 163.5 239.5C165.598 241.933 167.614 246.769 158.897 246.649ZM72.5 241H83L82.5 277.5H72L72.5 241ZM55 258H64.5L64 275.5H54.5L55 258ZM37.5 253V273.5H47.5L48.5 253H43H37.5ZM20 263.5H30V271H20V263.5Z" stroke="black"/>
<path d="M16 240.5C17.3333 241.333 21.1 243 25.5 243" stroke="black"/>
<path d="M17.5 232C19.6667 232.667 25.2 234 30 234" stroke="black"/>
<path d="M141 225.5C141.472 227.035 142.53 229.156 143.64 228.839C145.139 228.412 145.009 226.203 144.962 224.645C144.83 220.351 144.329 214.329 143 213C141.4 211.4 144.667 214 146.5 215.5C147.5 217.5 149.5 222.1 149.5 224.5C149.5 227.5 150.5 230.5 152.5 226.5C154.5 222.5 151.5 213 149 211" stroke="black" stroke-linecap="round"/>
<path d="M201.999 56.0002C200.499 49.0005 201.199 32.8002 197.999 34.0002C196.999 33.5003 194.999 35.1005 194.999 45.5005C194.999 55.9005 193.666 62.5002 192.999 64.5C192.789 65.0766 192.603 66.0818 192.557 67.5M195.499 92.5C195.499 91.6667 195.499 88.5 195.499 82.5C193.031 75.645 192.459 70.5913 192.557 67.5M192.557 67.5C192.58 67 196.5 58 201.5 59C205.5 59.8 203.167 63 201.5 64.5C200.167 65.6667 198.1 69.3 200.5 74.5" stroke="black"/>
<path d="M206.5 56.9998C205.167 55.6665 202.1 53.9998 200.5 57.9998" stroke="black"/>
<path d="M207.001 70.0005C204.167 71.5005 200.201 71.0005 207.001 57.0005C210.5 54.5005 213 58.5005 212 59.5005" stroke="black"/>
<path d="M200.5 66C200.166 68.1667 200.3 72 203.5 70M218 88.5C215.833 118 211 171.5 194 183C185.5 188.5 165.5 196 161 177" stroke="black"/>
<path d="M158.5 211.5L157.5 180.5C160.833 177 167.2 169 166 165C164.8 161 158.5 146.667 155.5 140" stroke="black"/>
<path d="M241 183C244.5 182.333 252.5 181.9 256.5 185.5" stroke="black"/>
<path d="M121 98.4998L124.5 114C132.667 112.833 150.5 112.1 156.5 118.5C162.5 124.9 174.667 140.5 180 147.5M180 147.5L177.5 153M180 147.5C184.333 137.5 192.6 112.1 191 90.4998C195.771 93.1024 208.069 94.9524 215.161 90.4998M215.5 86.4998C216.333 86.4998 218 86.7998 218 87.9998C217.205 88.9932 216.244 89.82 215.161 90.4998M215.5 86.4998L215.161 90.4998M215.5 86.4998C217.333 75.9998 219.6 55.7998 214 58.9998C208.4 62.1998 207 67.6666 207 70C207.667 71.6667 209.9 73.3 213.5 66.5" stroke="black"/>
<path d="M77 193.5C80 181.166 85.9 156.4 85.5 156C85.1 155.6 87.3333 180.833 88.5 193.5" stroke="black"/>
<path d="M95.5009 26.5003C87.9009 26.5003 79.3343 34.8336 76.0009 39.0003C66.0018 37.5006 62.5009 28 62.0009 26.5003C61.5009 25.0006 60.0009 9.50029 74.5009 5.50029C89.0009 1.50029 101.001 17.5003 95.5009 26.5003Z" fill="#84CDEE" stroke="black"/>
<path d="M84.0001 70.4996C80.8001 68.4996 77.3334 70.6663 76.0001 71.9996C66.8872 61.7824 69.483 49.865 74.3771 41.0516C78.2169 34.1367 85.0644 29.3824 92.6862 27.2689C122.634 18.9643 135.187 41.2089 132.5 42.9995C112.307 54.0142 89.1642 50.2847 86.6598 49.598C87.8036 51.1684 85.4406 70.9797 84.0001 70.4996Z" fill="#84CDEE" stroke="black"/>
<path d="M135.5 82.9994C132.893 90.4313 125.441 95.9435 121 98.5C121.683 101.969 123.68 109.617 124.5 114C132.698 111.809 146.936 113.721 152.743 115C155.305 102.4 137.037 78.6169 135.5 82.9994Z" fill="#84CDEE" stroke="black"/>
<path d="M85.4359 80L81.4228 81.5C82.2266 94.7 77.0748 102 73.3951 104.5C65.8705 107.167 49.5169 115.3 52.3261 122.5C55.1353 129.7 50.4877 134.5 47.8128 136C36.778 146.5 39.2861 159.5 54.3341 163C59.5512 126.6 88.9474 116.167 102.993 115.5C103.328 115.333 104.197 112.1 105 100.5C92.9606 98.9 86.9409 86.1667 85.4359 80Z" fill="#84CDEE" stroke="black"/>
<path d="M84.5015 76.0004V70.5004C81.1682 69.3338 74.7015 69.0004 75.5015 77.0004C75.9003 82.6001 82.3333 81.3333 85.5 80C87.3333 88.3333 95.4 104 113 100C127.8 98.4 134.167 87 135.5 81.5C136.167 77.6667 135.9 67.5 129.5 57.5C128.3 50.7 127.667 46.6667 127.5 45.5" stroke="black"/>
<path d="M84.5 70.0001L91 68.0001M91 68.0001C91.3333 64.5001 93.5 57.7001 99.5 58.5001C104.5 59.1667 107.056 61.1666 108.5 63.6109M91 68.0001C91.5 75.0005 95.5 77.9997 101.5 78.4997C107.5 78.9997 111 71.4997 110 67.4997C109.667 66.1663 109.222 64.8331 108.5 63.6109M108.5 63.6109C109.833 61.5738 113.5 58.1997 117.5 60.9997M117.5 60.9997C118 55.4997 121.5 51.9997 124 51.9997C126.5 51.9997 134.5 51.4997 135.5 59.9997C136.5 68.4997 131 71.5 130.5 71.5C130 71.5 119.5 74.9994 117.5 60.9997ZM117 65.5C116 71 125.5 74 119 76.5M105 85.5C107 87.3333 111.9 90.1 115.5 86.5" stroke="black"/>
<path d="M53.999 163.5C48.4999 182.5 37.199 218.4 49.999 218H115.5C115.667 211.333 118 197.8 126 197C127.2 197 127.833 198.667 128 199.5" stroke="black"/>
<path d="M126 197C113.833 195.5 85.4 192.8 69 194" stroke="black"/>
<circle cx="102.5" cy="66.5" r="1.5" fill="black"/>
<circle cx="125.5" cy="60.5" r="1.5" fill="black"/>
<path d="M122.5 215.5L122.89 215.812L123 215.675V215.5H122.5ZM137.5 227.5L137.012 227.608L137.025 227.668L137.053 227.723L137.5 227.5ZM141 225L140.515 225.121L140.52 225.14L140.526 225.158L141 225ZM137.854 215.146C137.658 214.951 137.342 214.951 137.146 215.146C136.951 215.342 136.951 215.658 137.146 215.853L137.854 215.146ZM115.688 218.89C116.856 219.825 119.632 219.885 122.89 215.812L122.11 215.187C118.968 219.114 116.811 218.508 116.312 218.109L115.688 218.89ZM123 215.5C123 215.706 122.852 215.776 122.9 215.746C122.926 215.73 122.999 215.695 123.142 215.66C123.42 215.591 123.854 215.543 124.412 215.554C125.522 215.577 127.053 215.83 128.679 216.522C131.91 217.899 135.548 221.021 137.012 227.608L137.988 227.391C136.452 220.479 132.59 217.101 129.071 215.602C127.322 214.857 125.665 214.579 124.432 214.555C123.818 214.542 123.291 214.592 122.901 214.689C122.71 214.737 122.522 214.803 122.371 214.897C122.242 214.978 122 215.169 122 215.5H123ZM137.053 227.723C137.466 228.55 138.029 229.048 138.723 229.085C139.381 229.12 139.953 228.726 140.367 228.277C140.795 227.814 141.14 227.205 141.347 226.61C141.548 226.032 141.651 225.373 141.474 224.842L140.526 225.158C140.599 225.377 140.577 225.78 140.403 226.281C140.235 226.764 139.955 227.249 139.633 227.598C139.297 227.962 138.994 228.098 138.777 228.087C138.596 228.077 138.284 227.95 137.947 227.276L137.053 227.723ZM141.485 224.879C141.149 223.536 140.571 221.447 139.924 219.539C139.6 218.586 139.257 217.669 138.915 216.91C138.583 216.171 138.225 215.517 137.854 215.146L137.146 215.853C137.375 216.082 137.671 216.583 138.003 217.32C138.327 218.039 138.658 218.922 138.976 219.86C139.613 221.736 140.184 223.797 140.515 225.121L141.485 224.879Z" fill="black"/>
<path d="M17.5 224C20.3333 225.5 28.7 228.3 39.5 227.5" stroke="black"/>
<path d="M75.5 182L83 166L76.5 193.214H71L75.5 182Z" fill="#DEDEDE"/>
<path d="M44 207.5C31.3333 205.333 5.3 200.6 2.5 199C2.5 207.5 2.5 282.5 1 286C5 290 118 306 179.5 292.5C180.5 276.5 178.5 224 177 210L156 211.5" stroke="black"/>
<path d="M161.5 177L164.5 172L166.615 176.229C167.53 178.06 168.786 179.699 170.315 181.058C171.76 182.342 173.424 183.355 175.228 184.049L175.512 184.158C177.812 185.043 180.271 185.439 182.733 185.322L189.5 185L188.768 185.325C186.261 186.44 183.662 187.335 181 188L176.5 188.5H174.15C172.407 188.5 170.688 188.094 169.13 187.315C168.05 186.775 167.065 186.065 166.212 185.212L165.49 184.49C164.831 183.831 164.24 183.11 163.724 182.336C162.913 181.119 162.296 179.784 161.894 178.379L161.5 177Z" fill="#E2E2E2"/>
<path d="M106 101C110.323 101 114.635 100.573 118.874 99.7252L120 99.5L123 111L114 106L106 102.5V101Z" fill="#E2E2E2"/>
<path d="M196.5 91H196.64C202.516 91 208.362 90.1581 214 88.5V90.5L213.774 90.5846C211.267 91.5249 208.657 92.1678 206 92.5H201L196.5 92V91Z" fill="#E2E2E2"/>
<path d="M194.5 61.5L198 57L201 53.5L201.5 56L200.836 56.6638C200.615 56.8849 200.449 57.1544 200.35 57.4511C200.132 58.1044 199.595 58.6011 198.927 58.7682L198.671 58.8323C198.232 58.942 197.831 59.169 197.511 59.4889L194 63L194.5 61.5Z" fill="#E2E2E2"/>
<path d="M121.5 199.5C141 200.5 148 202.5 156 211.5C159.5 217.333 164.7 228 157.5 224C155.1 220 152.5 216.167 151.5 215" stroke="black"/>
<path d="M74 35.5C75.6667 32.3333 80.1 26 84.5 26" stroke="black" stroke-linecap="round"/>
<path d="M129.999 248.733C130.499 251 126.499 253 124.499 252.5C123.499 253 122 249.5 121.999 247.667C121.5 246 123.499 244.5 125.499 245C126.999 244.5 129.999 246.5 129.999 248.733Z" fill="#84CDEE"/>
<path d="M270.5 181L271.5 177.5L272 219L273.5 259.5L270 263.5L266.5 266.5L270.5 181Z" fill="#E2E2E2"/>
<path d="M275.397 84.0147C276.931 86.2244 278.035 88.7418 278.591 91.4523L278.101 91.5528C278.363 92.8285 278.5 94.1483 278.5 95.5C278.5 96.8517 278.363 98.1715 278.101 99.4472L278.591 99.5477C278.035 102.258 276.931 104.776 275.397 106.985L274.986 106.7C273.479 108.872 271.544 110.741 269.3 112.19L269.571 112.61C267.329 114.058 264.785 115.097 262.052 115.619L261.958 115.128C260.678 115.372 259.354 115.5 258 115.5C256.646 115.5 255.322 115.372 254.042 115.128L253.948 115.619C251.215 115.097 248.671 114.058 246.429 112.61L246.7 112.19C244.456 110.741 242.521 108.872 241.014 106.7L240.603 106.985C239.069 104.776 237.965 102.258 237.409 99.5477L237.899 99.4472C237.637 98.1715 237.5 96.8517 237.5 95.5C237.5 94.1483 237.637 92.8285 237.899 91.5528L237.409 91.4523C237.965 88.7418 239.069 86.2244 240.603 84.0147L241.014 84.2999C242.521 82.1277 244.456 80.2594 246.7 78.8102L246.429 78.3901C248.671 76.9421 251.215 75.9028 253.948 75.3812L254.042 75.8724C255.322 75.6281 256.646 75.5 258 75.5C259.354 75.5 260.678 75.6281 261.958 75.8724L262.052 75.3812C264.785 75.9028 267.329 76.9421 269.571 78.3901L269.3 78.8102C271.544 80.2594 273.479 82.1277 274.986 84.2999L275.397 84.0147Z" stroke="black" stroke-dasharray="8 8"/>
<path d="M268.502 88.9996C281.999 89.4996 279.501 76.4996 279.501 67.9996H257.999H257.001C256.201 89.1996 262.249 88.4996 268.502 88.9996Z" fill="#84CDEE"/>
<path d="M255 38.5C257.966 39.159 260.015 42.668 261.4 47.1964C262.319 47.357 263.21 47.3157 264 46.9996C265.707 46.3168 267.473 44.4097 268.859 42.0745C266.514 37.2711 265.716 27.2298 269.5 29.5C272.793 31.4756 271.532 37.571 268.859 42.0745C269.613 43.6187 270.527 44.6216 271.5 44.5C272.445 44.8149 273.705 44.8234 275.058 44.626C276.617 40.5659 278.965 37.9394 282.5 39C286.575 40.2226 280.153 43.8829 275.058 44.626C273.705 44.8234 272.445 44.8149 271.5 44.5C270.527 44.6216 269.613 43.6187 268.859 42.0745C267.473 44.4097 265.707 46.3168 264 46.9996C263.21 47.3157 262.319 47.357 261.4 47.1964C256.504 46.3413 250.79 39.7629 255 38.5Z" fill="#84CDEE"/>
<path d="M257.999 67.9996H257.001C256.201 89.1996 262.249 88.4996 268.502 88.9996C281.999 89.4996 279.501 76.4996 279.501 67.9996H257.999ZM257.999 67.9996C258.333 65.6663 257.099 59.4996 249.499 53.4996C239.999 45.9996 238.499 15.4996 270.499 14.9996C291.76 14.6674 296.33 29.4865 295.836 40.7253C295.655 44.8478 293.327 48.4522 290.365 51.3245C284.136 57.3633 276.925 65.2949 278.5 67.5M264 67.5C264 58.5 262.2 40.1 255 38.5C250 40 259 48.9993 264 46.9996C269 45 274.5 32.5 269.5 29.5C264.5 26.5 267.5 45 271.5 44.5C276 46 287.658 40.5474 282.5 39C272.5 36 272 62.5 272 67.5" stroke="black" stroke-linecap="round"/>
<line x1="284.224" y1="1.67082" x2="280.671" y2="8.77639" stroke="black" stroke-linecap="round"/>
<line x1="306.51" y1="16.6854" x2="299.684" y2="20.75" stroke="black" stroke-linecap="round"/>
<line x1="0.5" y1="-0.5" x2="8.44427" y2="-0.5" transform="matrix(-0.964286 -0.264862 -0.264862 0.964286 237.625 24.3691)" stroke="black" stroke-linecap="round"/>
<line x1="0.5" y1="-0.5" x2="8.44427" y2="-0.5" transform="matrix(-0.90388 0.427785 0.427785 0.90388 236.086 48)" stroke="black" stroke-linecap="round"/>
<line x1="0.5" y1="-0.5" x2="8.44427" y2="-0.5" transform="matrix(-0.882021 -0.471209 -0.471209 0.882021 309.891 47.2148)" stroke="black" stroke-linecap="round"/>
<line x1="0.5" y1="-0.5" x2="8.44427" y2="-0.5" transform="matrix(-0.429346 -0.90314 -0.90314 0.429346 258.84 9.07812)" stroke="black" stroke-linecap="round"/>
<path d="M469 151C463 165.667 457.3 196.1 482.5 200.5C506.5 203 510 184.5 512.5 175.5C519.5 177 526.5 170.5 521.5 166M485.5 161.5C485.5 170.755 475.65 177.012 480.92 180.667C481.886 181.337 483.107 181.521 484.278 181.417C486.349 181.233 488.895 180.709 489.5 179.5" stroke="black" stroke-linecap="round"/>
<path d="M485 189.5C486.667 190 490.8 190.3 494 187.5" stroke="black" stroke-linecap="round"/>
<circle cx="498" cy="165" r="2" fill="black"/>
<circle cx="476" cy="161" r="2" fill="black"/>
<path d="M495.5 229.5C496.333 229.833 498.3 230.4 499.5 230C501 229.5 504 234.5 501.5 237.5C500.346 238.885 497.229 239.485 494.5 238.5C497.204 239.98 499.72 238.5 500.5 238.5C501 238.5 505 283 505.5 284C506 285 499.5 305 497.5 305.5C495.5 306 495.5 300 490 293C485.6 287.4 490.599 254.173 494.5 238.5C493.907 238.286 494.5 238.5 494 238C490.047 234.047 495.318 229.43 495.5 229.5Z" fill="#84CDEE"/>
<path d="M483 201L483.5 212.5M483.5 212.5C486.167 218.167 492.7 229.5 497.5 229.5C502.3 229.5 501.167 229.5 500 229.5C504.167 225.333 512.7 216.5 513.5 214.5C513.741 213.898 513.444 212.226 512.84 210M483.5 212.5L478.5 216.5C480.167 224.167 483.6 239.6 484 240C484.4 240.4 489.5 235.833 492 233.5M506.5 192C508.365 196.661 511.435 204.826 512.84 210M512.84 210C515.393 211.167 520.4 213.7 520 214.5M494.5 238.5C497.229 239.485 500.346 238.885 501.5 237.5C504 234.5 501 229.5 499.5 230C498.3 230.4 496.333 229.833 495.5 229.5C495.318 229.43 490.047 234.047 494 238C494.5 238.5 493.907 238.286 494.5 238.5ZM494.5 238.5C490.599 254.173 485.6 287.4 490 293C495.5 300 495.5 306 497.5 305.5C499.5 305 506 285 505.5 284C505 283 501 238.5 500.5 238.5C499.72 238.5 497.204 239.98 494.5 238.5Z" stroke="black" stroke-linecap="round"/>
<path d="M483.5 201C485.822 201.332 488.178 201.332 490.5 201L493.5 200.5L494.378 200.249C496.121 199.751 497.803 199.062 499.394 198.194C501.454 197.071 503.343 195.657 505.002 193.998L506 193L509 202L512 211.5L497.5 207.5L483.5 203V201Z" fill="#E2E2E2"/>
<path d="M503.002 234.5C504.668 236.5 508.202 240.5 509.002 240.5C510.002 240.5 521.002 217 520.002 214.5C519.332 212.826 562.502 220 567.502 231C580.168 257.833 601.902 315.2 587.502 330C574.302 340 525.335 333.167 502.502 328.5C506.168 326.833 511.702 319.6 504.502 304M504.502 304C518.918 301.707 542.816 300.822 558.502 300.577M504.502 304C503.668 304.167 502.102 305.2 502.502 308M558.502 300.577C561.966 300.523 565.029 300.5 567.502 300.5L558.502 300.577ZM558.502 300.577L545.502 261" stroke="black" stroke-linecap="round"/>
<path d="M402.5 305.5C402.5 308.749 399.436 311.5 395.5 311.5C391.564 311.5 388.5 308.749 388.5 305.5C388.5 303.754 388.833 302.252 389.601 301.198C390.348 300.172 391.56 299.5 393.5 299.5C395.468 299.5 397.751 300.196 399.536 301.326C401.339 302.468 402.5 303.962 402.5 305.5Z" stroke="black"/>
<path d="M448.5 90.5C448.5 92.6609 446.536 94.5 444 94.5C441.464 94.5 439.5 92.6609 439.5 90.5C439.5 89.3037 439.72 88.2987 440.207 87.6052C440.672 86.9427 441.425 86.5 442.667 86.5C443.94 86.5 445.429 86.9695 446.594 87.7358C447.774 88.5118 448.5 89.5048 448.5 90.5Z" stroke="black"/>
<path d="M467.5 90.5C467.5 92.6609 465.536 94.5 463 94.5C460.464 94.5 458.5 92.6609 458.5 90.5C458.5 89.3037 458.72 88.2987 459.207 87.6052C459.672 86.9427 460.425 86.5 461.667 86.5C462.94 86.5 464.429 86.9695 465.594 87.7358C466.774 88.5118 467.5 89.5048 467.5 90.5Z" stroke="black"/>
<path d="M486.5 90.5C486.5 92.6609 484.536 94.5 482 94.5C479.464 94.5 477.5 92.6609 477.5 90.5C477.5 89.3037 477.72 88.2987 478.207 87.6052C478.672 86.9427 479.425 86.5 480.667 86.5C481.94 86.5 483.429 86.9695 484.594 87.7358C485.774 88.5118 486.5 89.5048 486.5 90.5Z" stroke="black"/>
<path d="M321.5 157.5L341 121L353.5 142L378.5 114L390 139L404.5 125.5L419 149L435.5 121M327.5 139.5L330.5 144M332 146.5L334.5 150.5M336 153L339 157.5M341 160.5L343.5 164.5M346.5 158.5L345 162.5M348.5 155L349.5 152.5L350.5 154.5M352.5 157.5L355 161.5M357 164.5L360 161M362.5 158.5L365.5 155M368.5 152L371 149M374 146L376.5 142.5M379 140L382.5 136.5M385 134L388 130.5M390.5 128L392.5 126L393.5 128M395 131L397 135M399 138.5L401 142M403 145.5L405 149.5M406.5 152.5L409 157M410.5 159.5L412 162.5" stroke="black" stroke-linecap="round"/>
<path d="M456 330.5L488 330V337" stroke="black" stroke-linecap="round"/>
<path d="M570 236.5C587.833 236 624.1 235.3 626.5 236.5C625 245.5 612 309 610.5 335.5C584.1 335.9 438.167 337.167 368.5 338" stroke="black" stroke-linecap="round"/>
<path d="M587.5 282L600 312.5L608.5 335L580.5 335.5L584.847 332.964C585.944 332.324 586.955 331.545 587.853 330.647C589.27 329.23 590.384 327.541 591.128 325.681L591.382 325.045C591.793 324.017 592.109 322.954 592.326 321.868L592.481 321.094C592.826 319.369 593 317.614 593 315.854V313.598C593 310.871 592.775 308.148 592.326 305.458L591.5 300.5L590 291L587.5 282Z" fill="#E2E2E2"/>
<path d="M507.5 326L531 329L552.5 331.5L565 332L571.956 331.684C574.633 331.562 577.271 330.992 579.759 329.997C582.235 329.006 584.529 327.608 586.545 325.861L591 322L589.284 325.678C588.125 328.161 586.202 330.208 583.797 331.52C582.607 332.169 581.321 332.626 579.987 332.873L572.897 334.186C569.97 334.728 567.006 335.044 564.031 335.131L560.073 335.248C554.367 335.416 548.655 335.137 542.992 334.414L528 332.5L505 328.5L507.5 326Z" fill="#E2E2E2"/>
<path d="M492 99C492 92.7084 492 86.5031 492 83.4998C488.4 81.4998 363.5 82.6665 301.5 83.4998L300.5 230H309M492 99C492 104.44 492 109.945 492 113.5V99ZM492 99L300.5 98M382.5 230H444.5" stroke="black" stroke-linecap="round"/>
<path d="M324.999 215L310.499 211C303.299 246.2 327.499 257.333 340.499 258.5C340.666 257.667 341.399 253.8 342.999 245C324.599 243.8 323.332 224.5 324.999 215Z" fill="#84CDEE" stroke="black" stroke-linecap="round"/>
<path d="M322.5 251L340.5 254.5L340 258L335 257C332.341 256.335 329.763 255.382 327.312 254.156L327 254L322.5 251Z" fill="#7FB1C8"/>
</svg>
