<svg viewBox="0 0 90 118" fill="none" xmlns="http://www.w3.org/2000/svg">
    <path d="M89.097 66.7806H89.847V65.9064L88.983 66.0393L89.097 66.7806ZM83.7619 116.797L83.58 117.525L83.7619 116.797ZM1.06762 100.792H0.317617V101.152L0.599096 101.378L1.06762 100.792ZM19.7387 38.1043L19.899 37.3716L19.1282 37.203L18.9989 37.9813L19.7387 38.1043ZM41.0792 42.7725H41.8292V42.1689L41.2395 42.0399L41.0792 42.7725ZM71.7561 72.1157L71.1234 72.5183L71.4753 73.0713L72.0704 72.7966L71.7561 72.1157ZM50.4156 1.42539L50.1202 2.11475L50.4156 1.42539ZM55.1189 14.8657C54.8072 15.1385 54.7756 15.6123 55.0484 15.924C55.3212 16.2357 55.795 16.2673 56.1067 15.9945L55.1189 14.8657ZM61.7528 13.9526L62.4854 13.7923L61.7528 13.9526ZM51.8682 10.9169C51.5854 11.2196 51.6017 11.6942 51.9044 11.9769C52.2071 12.2596 52.6817 12.2434 52.9644 11.9407L51.8682 10.9169ZM59.9312 9.42811L60.5739 9.04144L59.9312 9.42811ZM49.0387 7.18602C48.9053 7.57819 49.1152 8.00419 49.5073 8.13752C49.8995 8.27085 50.3255 8.06103 50.4588 7.66886L49.0387 7.18602ZM55.0839 4.13213L55.5364 3.53402L55.0839 4.13213ZM55.7211 26.9562L55.0832 27.3506L55.7211 26.9562ZM88.347 66.7806C88.347 75.329 88.0805 88.0791 87.2822 98.5509C86.8826 103.792 86.352 108.433 85.6625 111.684C85.3157 113.319 84.9398 114.547 84.5481 115.316C84.3507 115.704 84.1789 115.916 84.0559 116.014C83.9999 116.059 83.9684 116.069 83.9617 116.071C83.9593 116.072 83.9573 116.073 83.9438 116.07L83.58 117.525C84.1177 117.659 84.6075 117.495 84.9945 117.184C85.3561 116.894 85.6448 116.469 85.885 115.997C86.3686 115.046 86.7764 113.662 87.1298 111.995C87.8408 108.643 88.3772 103.921 88.7778 98.6649C89.5801 88.1407 89.847 75.349 89.847 66.7806H88.347ZM83.9438 116.07C82.7253 115.765 81.1378 114.981 79.4051 113.909C77.6864 112.845 75.8774 111.53 74.2271 110.21C72.5764 108.889 71.0975 107.574 70.0375 106.514C69.5058 105.982 69.0916 105.527 68.8158 105.175C68.677 104.998 68.5854 104.862 68.5322 104.767C68.463 104.643 68.5066 104.672 68.5066 104.793H67.0066C67.0066 105.081 67.1335 105.339 67.2232 105.499C67.3289 105.688 67.4718 105.892 67.6352 106.1C67.9637 106.519 68.4248 107.022 68.9768 107.574C70.0842 108.682 71.6063 110.034 73.2901 111.381C74.9742 112.728 76.833 114.081 78.6156 115.184C80.384 116.279 82.131 117.163 83.58 117.525L83.9438 116.07ZM68.5066 104.793C68.5066 104.478 68.3304 104.229 68.1059 104.098C67.9345 103.997 67.7648 103.981 67.6844 103.976C67.5081 103.966 67.3159 103.996 67.1574 104.027C66.8174 104.093 66.342 104.225 65.7711 104.395C64.562 104.755 63 105.26 60.8755 105.887C56.7257 107.111 50.9303 108.642 44.3133 109.552C31.0575 111.375 14.6376 110.687 1.53614 100.206L0.599096 101.378C14.1732 112.237 31.0978 112.883 44.5176 111.038C51.2384 110.114 57.1135 108.561 61.2999 107.326C63.3434 106.723 65.1158 106.155 66.1992 105.833C66.7745 105.661 67.1848 105.55 67.4439 105.499C67.585 105.472 67.6208 105.475 67.5976 105.474C67.5936 105.474 67.4818 105.47 67.349 105.393C67.1632 105.284 67.0066 105.067 67.0066 104.793H68.5066ZM1.81762 100.792C1.81762 88.7071 -0.15908 75.6179 9.71341 59.1638L8.42717 58.392C-1.70702 75.2823 0.317617 88.8687 0.317617 100.792H1.81762ZM9.71341 59.1638C13.7222 52.4824 16.3448 47.6286 17.9955 44.2705C18.8207 42.5917 19.4053 41.282 19.7995 40.3013C20.1864 39.3388 20.4086 38.648 20.4786 38.2273L18.9989 37.9813C18.9579 38.2275 18.7915 38.7872 18.4077 39.7419C18.0312 40.6786 17.4631 41.9531 16.6493 43.6087C15.0219 46.9195 12.421 51.7356 8.42717 58.392L9.71341 59.1638ZM19.5784 38.837L40.9189 43.5052L41.2395 42.0399L19.899 37.3716L19.5784 38.837ZM40.3292 42.7725C40.3292 47.5196 39.8314 55.3284 39.331 61.9726C39.0811 65.29 38.8313 68.3092 38.6438 70.4991C38.5501 71.594 38.4721 72.4815 38.4174 73.0951C38.3901 73.4019 38.3687 73.6402 38.354 73.8017C38.3467 73.8825 38.3411 73.9441 38.3374 73.9855C38.3355 74.0061 38.334 74.0217 38.3331 74.0322C38.3326 74.0374 38.3322 74.0413 38.332 74.0439C38.3319 74.0452 38.3318 74.0462 38.3317 74.0468C38.3317 74.0471 38.3317 74.0474 38.3317 74.0475C38.3317 74.0477 38.3317 74.0478 39.0785 74.1163C39.8254 74.1849 39.8254 74.1848 39.8254 74.1847C39.8254 74.1845 39.8254 74.1842 39.8255 74.1839C39.8255 74.1832 39.8256 74.1822 39.8257 74.1808C39.826 74.1782 39.8264 74.1742 39.8268 74.1689C39.8278 74.1583 39.8293 74.1425 39.8312 74.1217C39.835 74.08 39.8406 74.0181 39.8479 73.937C39.8626 73.7747 39.8841 73.5357 39.9115 73.2281C39.9663 72.613 40.0445 71.7238 40.1384 70.627C40.3261 68.4335 40.5764 65.409 40.8267 62.0853C41.3267 55.4473 41.8292 47.5843 41.8292 42.7725H40.3292ZM39.0785 74.1163C38.5846 73.5519 38.5846 73.552 38.5845 73.5521C38.5844 73.5521 38.5842 73.5523 38.584 73.5524C38.5837 73.5528 38.5831 73.5532 38.5825 73.5538C38.5811 73.555 38.5791 73.5568 38.5764 73.5591C38.5711 73.5637 38.5633 73.5706 38.5531 73.5796C38.5325 73.5976 38.5022 73.6243 38.4628 73.659C38.384 73.7285 38.2686 73.8304 38.1219 73.9607C37.8286 74.2213 37.4099 74.5955 36.9076 75.0507C35.9036 75.9606 34.5633 77.1961 33.2215 78.496C31.8825 79.7932 30.5302 81.1658 29.5082 82.3474C28.9986 82.9367 28.5571 83.4945 28.2388 83.9818C28.0798 84.2254 27.9417 84.4661 27.8412 84.6953C27.7454 84.9139 27.6583 85.1783 27.6583 85.4535H29.1583C29.1583 85.4786 29.1545 85.4356 29.215 85.2976C29.2708 85.1702 29.362 85.0052 29.4947 84.802C29.76 84.3958 30.1521 83.8959 30.6428 83.3286C31.6215 82.197 32.9367 80.8603 34.2652 79.5733C35.591 78.289 36.9183 77.0654 37.9149 76.1622C38.413 75.7108 38.8279 75.3399 39.1181 75.0821C39.2632 74.9532 39.3771 74.8526 39.4545 74.7844C39.4933 74.7502 39.5229 74.7242 39.5427 74.7068C39.5527 74.6981 39.5602 74.6915 39.5651 74.6871C39.5676 74.685 39.5695 74.6833 39.5707 74.6823C39.5713 74.6817 39.5717 74.6814 39.572 74.6811C39.5722 74.681 39.5723 74.6809 39.5723 74.6808C39.5724 74.6808 39.5724 74.6808 39.0785 74.1163ZM39.5144 74.7266C43.3524 71.9852 49.5573 68.6103 55.6834 67.3655C61.8041 66.1218 67.6294 67.0278 71.1234 72.5183L72.3888 71.713C68.4136 65.4663 61.7903 64.5939 55.3847 65.8955C48.9844 67.196 42.585 70.69 38.6426 73.506L39.5144 74.7266ZM72.0704 72.7966C78.9277 69.6317 86.3718 67.9586 89.2111 67.5218L88.983 66.0393C86.0414 66.4917 78.4558 68.1975 71.4418 71.4347L72.0704 72.7966ZM26.3777 22.4949C28.915 18.4132 33.1811 12.4966 37.7216 8.01096C39.9944 5.76564 42.3021 3.91304 44.4667 2.81776C46.6391 1.71859 48.5456 1.43991 50.1202 2.11475L50.7111 0.736031C48.5511 -0.189663 46.1451 0.28746 43.7895 1.47934C41.4263 2.6751 38.9906 4.64878 36.6675 6.94387C32.0161 11.539 27.6793 17.5597 25.1038 21.703L26.3777 22.4949ZM56.359 26.5619C56.3302 26.5151 56.3022 26.4664 56.2753 26.4156L54.9504 27.1189C54.992 27.1973 55.0362 27.2747 55.0832 27.3506L56.359 26.5619ZM56.2753 26.4156C55.7485 25.4234 55.7001 23.8825 55.8281 22.8589L54.3397 22.6729C54.1985 23.8025 54.2068 25.7182 54.9504 27.1189L56.2753 26.4156ZM55.077 26.2425C54.0078 27.3342 52.2728 28.9385 50.5544 30.1968C49.6935 30.8272 48.8603 31.3533 48.1326 31.6876C47.37 32.038 46.8674 32.1094 46.5962 32.0416L46.2324 33.4968C47.0282 33.6958 47.9368 33.4283 48.7588 33.0506C49.6158 32.6569 50.5406 32.066 51.4406 31.407C53.2436 30.0867 55.0408 28.4232 56.1487 27.292L55.077 26.2425ZM61.0201 14.1128C61.7719 17.5509 61.2043 21.4898 58.529 25.7013L59.7951 26.5056C62.6598 21.9961 63.3305 17.6566 62.4854 13.7923L61.0201 14.1128ZM56.1067 15.9945C56.7537 15.4284 57.8113 14.6893 58.8617 14.2981C59.9485 13.8934 60.7288 13.9545 61.2044 14.4642L62.3012 13.4409C61.1761 12.2351 59.5764 12.4313 58.3382 12.8924C57.0638 13.367 55.8516 14.2245 55.1189 14.8657L56.1067 15.9945ZM59.2886 9.81478C60.0912 11.1487 60.6867 12.5885 61.0201 14.1128L62.4854 13.7923C62.1143 12.0951 61.4535 10.5034 60.5739 9.04144L59.2886 9.81478ZM52.9644 11.9407C53.6423 11.2148 54.805 10.2572 56.0592 9.73753C57.3066 9.22071 58.4861 9.18844 59.447 10.0009L60.4154 8.85536C58.8522 7.53374 57.0008 7.72376 55.4851 8.35177C53.9762 8.97693 52.6435 10.0867 51.8682 10.9169L52.9644 11.9407ZM50.1202 2.11475C51.7107 2.79639 53.2406 3.67803 54.6314 4.73025L55.5364 3.53402C54.0462 2.40663 52.4104 1.46433 50.7111 0.736031L50.1202 2.11475ZM54.6314 4.73025C56.5041 6.1471 58.1166 7.86694 59.2886 9.81478L60.5739 9.04144C59.2909 6.90915 57.5414 5.0509 55.5364 3.53402L54.6314 4.73025ZM50.4588 7.66886C50.6433 7.12636 51.1047 6.30161 51.8594 5.68002C52.5917 5.07693 53.6028 4.65895 54.9676 4.87307L55.2001 3.3912C53.3639 3.10312 51.9297 3.67895 50.9058 4.52214C49.9045 5.34683 49.2988 6.42084 49.0387 7.18602L50.4588 7.66886ZM55.0832 27.3506C55.3774 27.8266 55.7917 28.1439 56.2815 28.2818C56.7562 28.4154 57.2395 28.3637 57.6688 28.2232C58.5135 27.9469 59.3027 27.2808 59.7951 26.5056L58.529 25.7013C58.1941 26.2286 57.6685 26.6451 57.2024 26.7976C56.9763 26.8716 56.8052 26.8709 56.6879 26.8379C56.5858 26.8091 56.4705 26.7421 56.359 26.5619L55.0832 27.3506Z" fill="black"/>
    <path d="M65.0871 79.4514C66.4209 78.7845 69.0885 77.0506 69.0885 75.45M65.0871 84.7865C67.5324 82.5635 72.4229 77.8508 72.4229 76.7838M76.4242 106.794C77.758 108.35 80.9591 111.462 83.0931 111.462M28.4082 78.1176C29.742 76.3392 32.9431 72.7825 35.0771 72.7825" stroke="black" stroke-width="0.5" stroke-linecap="round"/>
    <path d="M18.0639 35.227C16.928 31.3078 18.9617 27.4204 21.1103 24.8408C22.2937 23.4199 24.0956 22.6602 25.934 22.8599C32.8221 23.6083 40.935 28.6483 44.4399 32.1532C48.4413 36.1546 43.1061 42.1566 42.4392 42.8235C41.8398 43.4229 28.8474 41.3282 21.381 38.4768C19.8569 37.8947 18.5181 36.794 18.0639 35.227Z" fill="#BEE8FF" stroke="black" stroke-width="1.5"/>
    <path d="M22.4052 28.1011C24.8504 28.5457 29.8743 29.7016 30.4078 30.7686M21.7383 32.1024C22.8498 32.1024 25.2061 32.2358 25.7396 32.7693" stroke="black" stroke-width="0.5" stroke-linecap="round"/>
    </svg>
    