<svg width="152.447" height="115.775" id="Layer_1" data-name="Layer 1" xmlns="http://www.w3.org/2000/svg" viewBox="0 0 1080 1080"><defs><style>.cls-1{fill:#fff;}.cls-2{fill:#bee8ff;}.cls-3{opacity:0.13;}</style></defs><title>Ikonattt</title><path class="cls-1" d="M78.09,767.77h774V232.06h-774Z"/><path d="M852.81,773H78.09c-1.5,0-2.25-.74-3.74-1.49a5.73,5.73,0,0,1-1.5-3.75V232.06c0-1.5.75-2.25,1.5-3.75a5.72,5.72,0,0,1,3.74-1.49h774c1.5,0,2.25.75,3.75,1.49a5.72,5.72,0,0,1,1.49,3.75V767.77c0,1.5-.74,2.25-1.49,3.75A5.66,5.66,0,0,1,852.81,773ZM83.34,763.27H847.56v-526H83.34Z"/><path class="cls-2" d="M78.09,280h774V209.58h-774Z"/><path d="M852.81,284.51H78.09c-1.5,0-2.25-.75-3.74-1.5a5.73,5.73,0,0,1-1.5-3.75V208.83a2.75,2.75,0,0,1,.75-2.24,2.63,2.63,0,0,1,.74-1.5c.75-.75.75-.75,1.5-.75s1.5-.75,2.25-.75h774a2.76,2.76,0,0,1,2.25.75,2.62,2.62,0,0,1,1.5.75c.75.75.75.75.75,1.5s.74,1.5.74,2.24v70.43c0,1.5-.74,2.25-1.49,3.75A3,3,0,0,1,852.81,284.51ZM83.34,274.77H847.56V214.08H83.34Z"/><path class="cls-1" d="M259.41,352.69H161.26v65.93h98.15Z"/><path d="M259.41,423.87H161.26a2.76,2.76,0,0,1-2.25-.75,2.62,2.62,0,0,1-1.5-.75c-.75-.75-.75-.75-.75-1.5s-.75-1.5-.75-2.25V352.69c0-1.5.75-2.25,1.5-3.75a5.73,5.73,0,0,1,3.75-1.5h98.15c1.5,0,2.25.75,3.74,1.5a5.73,5.73,0,0,1,1.5,3.75v65.93c0,1.5-.75,2.25-1.5,3.75C261.66,423.12,260.91,423.87,259.41,423.87Zm-93.66-10.49h88.41V357.93H165.75Z"/><path class="cls-1" d="M429.49,352.69H331.34v65.93h98.15Z"/><path d="M429.49,423.87H331.34a2.76,2.76,0,0,1-2.25-.75,2.62,2.62,0,0,1-1.5-.75c-.75-.75-.75-.75-.75-1.5s-.75-1.5-.75-2.25V352.69c0-1.5.75-2.25,1.5-3.75a5.73,5.73,0,0,1,3.75-1.5H431.73a2.62,2.62,0,0,1,1.5.75c.75.75.75.75.75,1.5s.75,1.5.75,2.25v65.93c0,1.5-.75,2.25-1.5,3.75A4.12,4.12,0,0,1,429.49,423.87Zm-93.66-10.49h88.41V357.93H335.83Z"/><path class="cls-1" d="M599.56,352.69H501.41v65.93h98.15Z"/><path d="M599.56,423.87H501.41a2.74,2.74,0,0,1-2.24-.75,2.62,2.62,0,0,1-1.5-.75c-.75-.75-.75-.75-.75-1.5s-.75-1.5-.75-2.25V352.69c0-1.5.75-2.25,1.5-3.75a5.72,5.72,0,0,1,3.74-1.5h98.15c1.5,0,2.25.75,3.75,1.5a5.73,5.73,0,0,1,1.5,3.75v65.93c0,1.5-.75,2.25-1.5,3.75A5.73,5.73,0,0,1,599.56,423.87Zm-93.65-10.49h88.41V357.93H505.91Z"/><path class="cls-1" d="M769.64,352.69H671.49v65.93h98.15Z"/><path d="M769.64,423.87H671.49a2.76,2.76,0,0,1-2.25-.75,2.62,2.62,0,0,1-1.49-.75c-.75-.75-.75-.75-.75-1.5s-.75-1.5-.75-2.25V352.69a2.76,2.76,0,0,1,.75-2.25,2.32,2.32,0,0,0,.75-1.5c.75-.75.75-.75,1.49-.75h100.4c1.5,0,2.25.75,3.75,1.5a5.73,5.73,0,0,1,1.5,3.75v65.93c0,1.5-.75,2.25-1.5,3.75C772.64,423.12,771.14,423.87,769.64,423.87ZM676,413.38H764.4V357.93H676Z"/><path class="cls-1" d="M259.41,500.29H161.26v65.93h98.15Z"/><path d="M259.41,570.72H161.26c-1.5,0-2.25-.75-3.75-1.5a5.73,5.73,0,0,1-1.5-3.75V499.54c0-1.5.75-2.25,1.5-3.75a5.77,5.77,0,0,1,3.75-1.49h98.15c1.5,0,2.25.75,3.74,1.49a5.73,5.73,0,0,1,1.5,3.75v65.93c0,1.5-.75,2.25-1.5,3.75C261.66,570,260.91,570.72,259.41,570.72ZM165.75,561h88.41V504.79H165.75Z"/><path class="cls-1" d="M429.49,500.29H331.34v65.93h98.15Z"/><path d="M429.49,570.72H331.34c-1.5,0-2.25-.75-3.75-1.5a5.73,5.73,0,0,1-1.5-3.75V499.54c0-1.5.75-2.25,1.5-3.75a5.77,5.77,0,0,1,3.75-1.49h98.15a2.73,2.73,0,0,1,2.24.75,2.63,2.63,0,0,1,1.5.74c.75.75.75.75.75,1.5s.75,1.5.75,2.25v65.93a2.76,2.76,0,0,1-.75,2.25,2.32,2.32,0,0,0-.75,1.5c-.75.75-.75.75-1.5.75A2.74,2.74,0,0,1,429.49,570.72ZM335.83,561h88.41V504.79H335.83Z"/><path class="cls-1" d="M599.56,500.29H501.41v65.93h98.15Z"/><path d="M599.56,570.72H501.41c-1.49,0-2.24-.75-3.74-1.5a5.73,5.73,0,0,1-1.5-3.75V499.54c0-1.5.75-2.25,1.5-3.75a5.77,5.77,0,0,1,3.74-1.49h98.15c1.5,0,2.25.75,3.75,1.49a5.73,5.73,0,0,1,1.5,3.75v65.93c0,1.5-.75,2.25-1.5,3.75A5.73,5.73,0,0,1,599.56,570.72ZM505.91,561h88.41V504.79H505.91Z"/><path class="cls-1" d="M769.64,500.29H671.49v65.93h98.15Z"/><path d="M769.64,570.72H669.24a2.62,2.62,0,0,1-1.49-.75c-.75-.75-.75-.75-.75-1.5s-.75-1.5-.75-2.25V500.29A2.76,2.76,0,0,1,667,498a2.62,2.62,0,0,1,.75-1.5c.75-.75.75-.75,1.49-.75s1.5-.74,2.25-.74h98.15c1.5,0,2.25.74,3.75,1.49a5.73,5.73,0,0,1,1.5,3.75v65.93c0,1.5-.75,2.25-1.5,3.75C772.64,570,771.14,570.72,769.64,570.72ZM676,561H764.4V504.79H676Z"/><path class="cls-1" d="M259.41,631.41H161.26v65.93h98.15Z"/><path d="M259.41,702.59H161.26c-1.5,0-2.25-.75-3.75-1.5a5.73,5.73,0,0,1-1.5-3.75V631.41c0-1.5.75-2.25,1.5-3.75a5.73,5.73,0,0,1,3.75-1.5h98.15c1.5,0,2.25.75,3.74,1.5a5.73,5.73,0,0,1,1.5,3.75v65.93c0,1.5-.75,2.25-1.5,3.75C261.66,701.84,260.91,702.59,259.41,702.59ZM165.75,692.1h88.41V636.65H165.75Z"/><path class="cls-1" d="M429.49,631.41H331.34v65.93h98.15Z"/><path d="M429.49,702.59H331.34c-1.5,0-2.25-.75-3.75-1.5a5.73,5.73,0,0,1-1.5-3.75V631.41c0-1.5.75-2.25,1.5-3.75a5.73,5.73,0,0,1,3.75-1.5h98.15a2.73,2.73,0,0,1,2.24.75,2.62,2.62,0,0,1,1.5.75c.75.75.75.75.75,1.5s.75,1.5.75,2.25v65.93a2.76,2.76,0,0,1-.75,2.25,2.62,2.62,0,0,1-.75,1.5c-.75.75-.75.75-1.5.75S430.24,702.59,429.49,702.59ZM335.83,692.1h88.41V636.65H335.83Z"/><path class="cls-1" d="M599.56,631.41H501.41v65.93h98.15Z"/><path d="M599.56,702.59H501.41c-1.49,0-2.24-.75-3.74-1.5a5.73,5.73,0,0,1-1.5-3.75V631.41c0-1.5.75-2.25,1.5-3.75a5.72,5.72,0,0,1,3.74-1.5h98.15c1.5,0,2.25.75,3.75,1.5a5.73,5.73,0,0,1,1.5,3.75v65.93c0,1.5-.75,2.25-1.5,3.75A5.73,5.73,0,0,1,599.56,702.59ZM505.91,692.1h88.41V636.65H505.91Z"/><path class="cls-1" d="M769.64,631.41H671.49v65.93h98.15Z"/><path d="M769.64,702.59H669.24a2.62,2.62,0,0,1-1.49-.75c-.75-.75-.75-.75-.75-1.5s-.75-1.5-.75-2.25V632.16a2.76,2.76,0,0,1,.75-2.25,2.62,2.62,0,0,1,.75-1.5c.75-.75.75-.75,1.49-.75s1.5-.75,2.25-.75h98.15c1.5,0,2.25.75,3.75,1.5a5.73,5.73,0,0,1,1.5,3.75v65.93c0,1.5-.75,2.25-1.5,3.75C772.64,701.84,771.14,702.59,769.64,702.59ZM676,692.1H764.4V636.65H676Z"/><path d="M614.55,249.29c-1.5,0-2.25-.75-3.75-1.5a5.68,5.68,0,0,1-1.5-3.74V179.61c0-1.49.75-2.24,1.5-3.74a5.73,5.73,0,0,1,3.75-1.5c1.5,0,2.25.75,3.75,1.5a5.72,5.72,0,0,1,1.49,3.74v64.44c0,1.5-.74,2.25-1.49,3.74S616.05,249.29,614.55,249.29Z"/><path d="M316.35,249.29c-1.5,0-2.25-.75-3.75-1.5a5.72,5.72,0,0,1-1.49-3.74V179.61c0-1.49.75-2.24,1.49-3.74a5.73,5.73,0,0,1,3.75-1.5c1.5,0,2.25.75,3.75,1.5a5.72,5.72,0,0,1,1.5,3.74v64.44c0,1.5-.75,2.25-1.5,3.74A4.13,4.13,0,0,1,316.35,249.29Z"/><path d="M341.82,378.16h0l-1.49-.75v-.75a.73.73,0,0,1,.75-.74,141.34,141.34,0,0,1,15-15,2.62,2.62,0,0,1,1.5-.75c.75,0,.75,0,.75.75a2.62,2.62,0,0,1,.75,1.5c0,.75,0,.75-.75,1.5a141.34,141.34,0,0,0-15,15c-.75-.75-.75-.75-1.5-.75Z"/><path d="M409.26,407.38h0l-1.5-.75v-.74a.73.73,0,0,1,.75-.75L419,394.65a2.62,2.62,0,0,1,1.5-.75c.74,0,.74,0,.74.75l.75.75c0,.75,0,.75-.75,1.49l-10.48,10.49Z"/><path d="M172.5,521.27h-.75l-.75-.75v-.75a.73.73,0,0,1,.75-.75c3-3,5.24-6,8.24-9a2.62,2.62,0,0,1,1.5-.75c.75,0,.75,0,.75.75a2.62,2.62,0,0,1,.75,1.5c0,.75,0,.75-.75,1.5L174,521.27c-.74-.75-.74-.75-1.49,0Z"/><path d="M172.5,544.5h-.75l-.75-.75V543a.73.73,0,0,1,.75-.75c9.74-11.24,19.48-22.48,30-33h3v3c-10.49,10.49-20.23,21.73-30,33-.75-.74-.75-.74-2.24-.74Z"/><path d="M189.73,556.48H189l-.75-.75v-1.49c12-15.74,25.47-30.72,39-45a2.62,2.62,0,0,1,1.5-.75c.75,0,.75,0,1.5.75a2.62,2.62,0,0,1,.75,1.5c0,.75,0,.75-.75,1.5a547.13,547.13,0,0,0-38.21,45c-1.5-.75-1.5-.75-2.25-.75Z"/><path d="M215.2,555.73h-.75l-.75-.75v-1.49c9.74-12,20.23-24,30.72-36l.75-.75c.75,0,.75,0,.75.75l.75.75v1.5c-10.49,12-20.23,24-30.72,36Z"/><path d="M239.93,556.48h-.75a.73.73,0,0,1-.75-.75v-1.49c2.25-3,4.49-6.75,7.49-9.74l.75-.75h2.25l.75.75v2.24c-2.25,3-5.25,6-6.75,9.74a.73.73,0,0,1-.74.75A5.8,5.8,0,0,0,239.93,556.48Z"/><path d="M343.32,397.64h0l-1.5-.75v-.74a.73.73,0,0,1,.75-.75c12-10.49,24-21.73,34.47-33l.75-.75H380v2.25a.73.73,0,0,1-.75.75c-11.24,11.24-23.23,22.47-36,33Z"/><path d="M358.31,409.63h0l-1.5-.75v-.75a.73.73,0,0,1,.75-.75c15.73-15,31.47-30,47.95-44.2l.75-.75h1.5a.73.73,0,0,1,.75.75v2.25l-.75.75c-16.48,14.23-32.22,29.22-47.95,44.2C359.06,409.63,359.06,409.63,358.31,409.63Z"/><path d="M383,410.38h0l-1.5-.75v-.75a.73.73,0,0,1,.75-.75c11.24-11.24,23.23-21.73,35.22-32.21h2.25a.73.73,0,0,1,.75.74v2.25l-.75.75c-12,10.49-23.23,21-34.47,32.22C383.78,409.63,383.78,410.38,383,410.38Z"/><path d="M512.65,658.38h0c-.75,0-.75,0-1.5-.75v-2.25l12-14.23.75-.75h1.5l.75.75v1.5l-12,14.23c-.75,1.5-.75,1.5-1.5,1.5Z"/><path d="M513.4,685.35h0l-1.5-.75v-1.49a468.9,468.9,0,0,1,33.72-42.71l.75-.75h2.25l.75.75v2.25c-12,13.48-23.23,27.72-33.72,42a.73.73,0,0,1-.75.75Z"/><path d="M539.63,686.1h0l-1.5-.75v-1.5l25.47-30.71.75-.75h2.25l.75.75v2.24L541.87,686.1c-1.5-.75-1.5-.75-2.24,0Z"/><path d="M560.6,686.85h0l-1.49-.75v-1.5l6-8.24.75-.75h1.5l.75.75v1.5l-6,8.24c0,.75,0,.75-1.5.75Z"/><g class="cls-3"><path d="M852.81,280.76H78.09V304h774l.75-23.23Z"/></g><path class="cls-1" d="M789.87,901.14A212.79,212.79,0,1,0,577.09,688.35,212.65,212.65,0,0,0,789.87,901.14Z"/><path d="M789.87,905.63c-42.7,0-85.41-12.74-120.63-36.71a216.55,216.55,0,0,1-80.16-97.4,218.91,218.91,0,0,1-12.74-125.88c8.24-41.95,29.22-80.91,59.19-111.63a213.68,213.68,0,0,1,111.64-59.19A219.52,219.52,0,0,1,873,487.55a217.33,217.33,0,0,1-83.17,418.08Zm0-424.82A205.15,205.15,0,0,0,674.49,516C640,538.5,613.8,571.47,598.07,608.93c-15.74,38.21-19.48,79.42-12,119.88A208.21,208.21,0,0,0,749.41,892.14,207.46,207.46,0,0,0,962.2,803.73c22.48-34.46,35.21-74.17,35.21-115.38A207.21,207.21,0,0,0,789.87,480.81Z"/><path d="M789.87,540c-1.5,0-2.25-.75-3.74-1.5a5.72,5.72,0,0,1-1.5-3.74V505.53c0-1.49.75-2.24,1.5-3.74a5.7,5.7,0,0,1,3.74-1.5c1.5,0,2.25.75,3.75,1.5a5.72,5.72,0,0,1,1.5,3.74v29.23c0,1.49-.75,2.24-1.5,3.74A4.85,4.85,0,0,1,789.87,540Z"/><path d="M789.87,874.91c-1.5,0-2.25-.75-3.74-1.5s-1.5-2.24-1.5-3.74V840.45c0-1.5.75-2.25,1.5-3.75a5.7,5.7,0,0,1,3.74-1.5c1.5,0,2.25.75,3.75,1.5a5.73,5.73,0,0,1,1.5,3.75v29.22c0,1.5-.75,2.24-1.5,3.74A12.67,12.67,0,0,1,789.87,874.91Z"/><path d="M971.19,692.85H942c-1.5,0-2.25-.75-3.75-1.5a5.73,5.73,0,0,1-1.5-3.75c0-1.5.75-2.25,1.5-3.75a5.77,5.77,0,0,1,3.75-1.49h29.22c1.5,0,2.25.75,3.75,1.49a5.72,5.72,0,0,1,1.49,3.75c0,1.5-.74,2.25-1.49,3.75S972.69,692.85,971.19,692.85Z"/><path d="M636.28,692.85H607.06c-1.5,0-2.25-.75-3.75-1.5a5.73,5.73,0,0,1-1.5-3.75c0-1.5.75-2.25,1.5-3.75a5.77,5.77,0,0,1,3.75-1.49h29.22c1.5,0,2.25.75,3.74,1.49a5.73,5.73,0,0,1,1.5,3.75c0,1.5-.75,2.25-1.5,3.75S637.78,692.85,636.28,692.85Z"/><path d="M794.37,688.35c-.75,0-2.25,0-3-.75s-1.5-1.5-1.5-2.25-.75-2.24,0-3c0-.75.75-1.5,1.5-2.25L870,601.44l1.5-1.5c.75,0,1.5-.75,2.25-.75H876a2.62,2.62,0,0,1,1.49.75c.75.75.75.75.75,1.5v2.25a2.74,2.74,0,0,1-.75,2.24c-.75.75-.75,1.5-1.49,1.5l-77.93,79.42A5.68,5.68,0,0,1,794.37,688.35Z"/><path class="cls-1" d="M789.87,711.58a23.23,23.23,0,1,0-23.22-23.23A23.35,23.35,0,0,0,789.87,711.58Z"/><path d="M789.87,716.07a27.63,27.63,0,0,1-26.22-17.23c-2.25-5.25-3-10.49-1.5-15.73a27.12,27.12,0,0,1,21.73-21.73c5.24-.75,11.24-.75,15.73,1.5a29.18,29.18,0,0,1,12.74,10.49,27.66,27.66,0,0,1,4.5,15.73,27.19,27.19,0,0,1-8.25,19.48C804.11,713.08,796.62,716.07,789.87,716.07Zm0-45.7a15.06,15.06,0,0,0-9.74,3,18.3,18.3,0,0,0-6.74,8.24c-1.5,3-1.5,6.74-.75,10.49s2.25,6.74,5.24,9a21.91,21.91,0,0,0,9,5.24c3.74.75,7.49,0,10.49-.75a23.47,23.47,0,0,0,8.24-6.74,16.52,16.52,0,0,0,3-9.74c0-4.5-2.24-9-5.24-12.74-4.5-4.49-9-6-13.49-6Z"/><g class="cls-3"><path d="M583.08,654.63c0-1.49.75-3.74.75-5.24a228.75,228.75,0,0,1,18-53.95c-.75-1.49-2.25-2.24-3.74-3a188.29,188.29,0,0,0-29.22,44.2,234.79,234.79,0,0,0-14.24,40.46l-2.25,9a153,153,0,0,0,3.75,55.45,104.48,104.48,0,0,0,6.74,21.72c.75,2.25,1.5,4.5,3,6a16.22,16.22,0,0,0,6,3.74,12.78,12.78,0,0,0,7.5,0,11.61,11.61,0,0,0,6-4.49,12.09,12.09,0,0,0,2.25-6.74c0-2.25-.75-5.25-2.25-6.75h0v.75a.73.73,0,0,0-.75-.75c-.75-2.24-1.5-5.24-2.25-7.49a123.75,123.75,0,0,1-6.74-52.45C577.84,680.11,580.08,667.37,583.08,654.63Z"/></g></svg>