<svg width="132.447" height="105.775"  id="Layer_1" data-name="Layer 1" xmlns="http://www.w3.org/2000/svg" viewBox="0 0 1080 1080"><defs><style>.cls-1{fill:#fff;}.cls-2{fill:#bee8ff;}.cls-3{opacity:0.13;}</style></defs><title>Ikonattt</title><path class="cls-1" d="M361.41,149c192.56-9,385.12-9,575.42-1.49,12.74,212.78,19.48,429.31-24,637.6-6.75,32.22-15,65.19-33.72,92.16C862.66,899.74,840.18,917,814,926a132.23,132.23,0,0,1-81.67,1.5c-148.35-2.25-269-17.23-419.58-24.73C383.89,654.73,356.17,403.74,361.41,149Z"/><path d="M769.75,939.45a135.74,135.74,0,0,1-39-5.25c-89.91-1.5-167.83-7.49-251-13.48C426.6,917,371.15,912.47,312,909.48c-.75,0-2.24,0-3-.75s-1.5-.75-2.25-2.25a2.76,2.76,0,0,1-.75-2.25v-3c53.95-185.82,51.7-369.38,49.45-564.18-.75-61.44-1.5-125.88,0-188.81a10.66,10.66,0,0,1,1.5-4.5c.75-1.5,3-1.5,4.49-2.25,194.06-9,388.11-9,576.17-1.5a10.66,10.66,0,0,1,4.5,1.5,12.21,12.21,0,0,1,2.25,4.5c12,206,20.22,424.82-24.73,639.1-6.74,30.72-15,65.94-34.46,94.41A141,141,0,0,1,834.94,923,135.89,135.89,0,0,1,769.75,939.45Zm-449.54-42c56.94,3,109.39,6.74,160.33,10.49,83.17,6,161.84,12,251.75,13.48h1.5c25.47,7.5,52.45,6.75,77.92-1.49a120.86,120.86,0,0,0,62.19-46.46c18.73-27,26.22-60.69,33-89.91,44.21-210.53,36.72-427.07,24.73-630.11C747.28,146,557.72,146.75,368.16,155c-.75,60.69,0,122.87,0,182.81,1.5,183.57,3.74,373.88-48,559.69Z"/><path class="cls-1" d="M141.14,766.37c185.81-3,371.62-2.25,554.44.75-6.75,48.7,3,97.4,27,140.11,7.49,13.49,19.48,27,33.72,26.22-173.83-1.5-343.91,14.24-519.23,0-33-4.49-75.67-18.73-93.66-65.18C131.4,836.8,126.15,800.84,141.14,766.37Z"/><path d="M401.87,945.44c-54.69,0-110.14-1.5-164.83-6-50.2-6.75-83.92-30.72-98.9-68.93-10.49-27-19.48-67.44-2.25-106.4.75-.75,1.5-2.24,2.25-3s2.25-.75,3.75-.75c159.58-3,330.41-2.25,554.44.75a2.74,2.74,0,0,1,2.24.75c.75.75,1.5.75,2.25,1.49s.75,1.5,1.5,2.25v3a218.87,218.87,0,0,0,26.22,135.61C733,912.47,742.78,926,754,926.71h3a10.67,10.67,0,0,1,4.49,1.5c1.5,1.5,1.5,3,2.25,4.49a10.66,10.66,0,0,1-1.5,4.5c-.75,1.5-3,2.25-4.5,2.25H754c-62.19-.75-125.87,1.5-186.56,3C512,943.94,457.32,945.44,401.87,945.44ZM145.63,773.11c-13.48,33.72-5.24,68.94,3.75,92.91,16.48,42.71,57.69,56.94,88.41,60.69,110.14,9,221,6,327.42,3,53.19-1.5,108.64-3,163.33-3a133,133,0,0,1-12-16.48c-24-41.21-33.72-89.16-29.22-137.12C470.05,770.12,301.47,770.12,145.63,773.11Z"/><path class="cls-2" d="M313.46,424.72c-3,74.92-3.74,147.6-1.5,223.27,52.45,0,105.65,6,158.09-1.5-2.24-72.67-4.49-145.35-5.24-219.53,26.22,0,52.45,0,78.67-.75-50.2-58.44-100.4-116.88-153.59-176.07-52.45,55.45-102.65,113.14-151.35,173.08C263.26,424,288.74,424.72,313.46,424.72Z"/><path d="M408.62,657c-16.49,0-33.72-.75-50.2-1.5-15.74-.75-31.47-.75-47.21-1.5a10.64,10.64,0,0,1-4.49-1.49c-1.5-1.5-1.5-3-2.25-4.5-2.25-71.18-1.5-142.36,1.5-217.28H237c-1.5,0-2.25,0-3-.75l-2.24-2.25c-.75-.75-.75-2.24-.75-3.74a3.92,3.92,0,0,1,1.49-3C282,360.28,332.94,301.84,383.89,247.15c.75-.75,1.5-1.5,2.25-1.5s1.5-.75,2.25-.75a2.73,2.73,0,0,1,2.24.75c.75,0,1.5.75,2.25,1.5,53.95,59.19,104.9,118.38,153.6,176.07a5.69,5.69,0,0,1,1.5,3,6.76,6.76,0,0,1-.75,3.75c-.75.75-1.5,2.25-2.25,3s-2.25.75-3,.75c-24,.75-48.7.75-72.67.75.74,62.93,2.24,128.87,5.24,212.78a10.66,10.66,0,0,1-1.5,4.5,4.11,4.11,0,0,1-3.74,2.24C449.82,655.48,429.6,657,408.62,657ZM318,642c13.48,0,27.72.75,41.21,1.5A692.41,692.41,0,0,0,463.31,642c-3-83.92-4.49-150.6-5.24-214.29a2.73,2.73,0,0,1,.75-2.24c0-.75.74-1.5,1.49-2.25s1.5-.75,2.25-1.5c.75,0,1.5-.75,2.25-.75H530c-44.95-52.45-91.4-106.39-140.1-160.34C343.43,310.08,297,363.28,252,418.72h62.19a2.76,2.76,0,0,1,2.25.75c.75,0,1.5.75,2.25,1.5s.75,1.5,1.5,2.25c0,.75.74,1.5.74,2.25-4.49,74.17-5.24,145.35-3,216.53Z"/><path d="M840.18,301.09h0c-101.9-3-205.29-3-306.44-1.5a2.76,2.76,0,0,1-2.25-.75c-.75,0-1.5-.75-2.25-1.5s-.74-1.49-1.49-2.24c0-.75-.75-1.5-.75-2.25a2.76,2.76,0,0,1,.75-2.25c0-.75.75-1.5,1.49-2.25s1.5-.75,2.25-1.49c.75,0,1.5-.75,2.25-.75,101.9-2.25,205.29-1.5,307.19,1.49a2.76,2.76,0,0,1,2.25.75c.75,0,1.5.75,2.25,1.5s.74,1.5,1.49,2.25c0,.75.75,1.5.75,2.25a6.49,6.49,0,0,1-2.24,4.49A8.1,8.1,0,0,1,840.18,301.09Z"/><path d="M831.94,415.73h0l-230.77-2.25a2.76,2.76,0,0,1-2.25-.75c-.74,0-1.49-.75-2.24-1.5s-.75-1.5-1.5-2.25c0-.75-.75-1.5-.75-2.25a6.48,6.48,0,0,1,2.25-4.49,5.49,5.49,0,0,1,4.49-1.5h0L831.94,403a6.44,6.44,0,0,1,4.49,2.25,5.48,5.48,0,0,1,1.5,4.49,6.51,6.51,0,0,1-2.24,4.5A5.73,5.73,0,0,1,831.94,415.73Z"/><path d="M527.75,532.61a10.66,10.66,0,0,1-4.5-1.5c-1.5-1.5-1.5-3-2.25-4.5a2.73,2.73,0,0,1,.75-2.24c0-.75.75-1.5,1.5-2.25s1.5-.75,2.25-1.5c.75,0,1.5-.75,2.25-.75,99.65-3.75,200-5.24,299.69-4.5a6.48,6.48,0,0,1,4.5,2.25,5.51,5.51,0,0,1,1.5,4.5,10.62,10.62,0,0,1-1.5,4.49,5.51,5.51,0,0,1-4.5,1.5c-99.65-.75-200.79.75-299.69,4.5Z"/><path d="M524.75,639.75a10.66,10.66,0,0,1-4.5-1.5c-1.49-.75-1.49-3-2.24-4.49a2.76,2.76,0,0,1,.75-2.25c0-.75.74-1.5,1.49-2.25s1.5-.75,2.25-1.5c.75,0,1.5-.75,2.25-.75l303.44-5.24a10.66,10.66,0,0,1,4.5,1.5,6.44,6.44,0,0,1,2.25,4.49,10.66,10.66,0,0,1-1.5,4.5,6.47,6.47,0,0,1-4.5,2.24l-304.19,5.25Z"/><path d="M172.6,830.06h-1.49c-.75,0-.75-.75-.75-1.5v-1.5a267.22,267.22,0,0,1,28.47-36.71c.75-.75.75-.75,1.5-.75s.75,0,1.5.75.74.75.74,1.5,0,.75-.74,1.49a256.13,256.13,0,0,0-27.73,36l-.75.75Z"/><path d="M177.1,886.25h-1.5a.73.73,0,0,1-.75-.75v-2.25a708.21,708.21,0,0,1,72.68-91.4c.75-.75.75-.75,1.5-.75s.75,0,1.5.75.75.74.75,1.49,0,.75-.75,1.5A596.88,596.88,0,0,0,178.6,885.5l-.75.75Z"/><path d="M212.32,908h-1.5a.73.73,0,0,1-.75-.75V905A1026.38,1026.38,0,0,1,294,791.85c0-.75.75-.75,1.5-.75s.75,0,1.5.75c.75,0,.75.74.75,1.49s0,.75-.75,1.5a953.79,953.79,0,0,0-83.92,112.39l-.74.75Z"/><path d="M267,912.47h0c-.75,0-1.5,0-1.5-.75v-2.24a1378.33,1378.33,0,0,1,80.17-115.39l.75-.75h2.25c.75,0,.75.75.75,1.5s0,.75-.75,1.5a1263,1263,0,0,0-80.17,115.38l-1.5.75Z"/><path d="M316.46,917H315a.73.73,0,0,1-.75-.75V914l80.92-122.12a.73.73,0,0,1,.75-.75h2.25a.73.73,0,0,1,.75.75v2.24L318,916.22l-.75.75Z"/><path d="M371.9,913.22h-1.49a.73.73,0,0,1-.75-.75v-2.24c25.47-39.71,50.94-80.17,74.17-120.63a.73.73,0,0,1,.75-.75h2.25a.73.73,0,0,1,.75.75v2.25c-24,40.45-48.7,81.66-74.18,121.37l-.75.75C372.65,913.22,372.65,913.22,371.9,913.22Z"/><path d="M420.6,914h-1.49a.73.73,0,0,1-.75-.75V911c26.22-39,52.44-78.68,77.17-119.13,0-.75.75-.75,1.5-.75h1.5c.75,0,.75.75.75,1.5v1.49c-24.73,40.46-50.95,80.17-77.18,119.13l-.75.75Z"/><path d="M476.05,912.47h-1.5a.73.73,0,0,1-.75-.75v-2.24c25.48-37.47,49.45-77.18,72.68-116.14,0-.75.75-.75,1.5-.75h1.49c.75,0,.75.75.75,1.5v1.5c-22.47,39.71-47.2,78.67-72.67,116.88l-.75.75A.73.73,0,0,0,476.05,912.47Z"/><path d="M529.24,908.73h0c-1.49,0-1.49-.75-1.49-1.5v-1.5L592.93,791.1a.73.73,0,0,1,.75-.75h2.25c.75,0,.75.75.75,1.5v1.49L531.49,908l-.75.75Z"/><path d="M574.2,914h0c-1.5,0-1.5-.75-1.5-1.5V911c23.23-41.21,48.7-83.17,74.93-122.88,0-.75.74-.75,1.49-.75h1.5c.75,0,.75.75.75,1.5v1.5c-26.22,39.71-51,81.66-74.92,122.87l-.75.75Z"/><path d="M629.64,905h0c-1.5,0-1.5-.75-1.5-1.5V902a463.11,463.11,0,0,1,41.21-65.93c0-.75.75-.75,1.5-.75s.75,0,1.5.75a.73.73,0,0,1,.75.75v2.25a588.93,588.93,0,0,0-40.46,65.18l-.75.75Z"/><g class="cls-3"><path d="M739.78,913.22a70.77,70.77,0,0,0-16.48-9c-.75-2.25-2.25-4.49-3-7.49v.75c-3-6.74-5.24-13.49-7.49-20.23-.75-2.25-3.75-14.24-4.5-15.73a12,12,0,0,0-3.74-8.25,11.3,11.3,0,0,0-8.24-3c-3,0-6,1.5-8.25,3-2.24,3-3.74,6-3.74,9,0,.75,0,.75-.75,1.5s-1.5,3-3,5.25a10.43,10.43,0,0,0-2.25,3c-6,6.75-1.49,2.25-10.48,8.25a81.86,81.86,0,0,1-8.25,4.49l-1.5.75c-7.49,2.25-12,3.75-15,4.5-15.73,0-33.72.75-48.7,1.5-32.22,0-64.44,3.74-96.65,3.74-32.22,2.25-65.19,3-97.41,4.5a596.39,596.39,0,0,1-96.65.75c-30-3-56.19-6-86.91-11.24-8.24-1.5-16.48-4.5-24.72-7.49-2.25-1.5-4.5-3-7.5-3a15.37,15.37,0,0,0-8.24,0,15.59,15.59,0,0,0-7.49,4.49c-2.25,2.25-3,5.25-3.75,8.25a10.4,10.4,0,0,0,1.5,8.24c1.5,3,3,5.24,6,6.74A218.47,218.47,0,0,0,230.3,926c3,.75,17.23,3,22.47,3.75,1.5,0,3.75.75,5.25.75A549.34,549.34,0,0,0,335.94,938c24.73.75,48.7-2.25,73.43-3.75,48.7-2.24,97.4-3.74,146.1-8.24a15.69,15.69,0,0,0,3,4.5c6,5.24,15,3,22.47,3.74l-3-.75a396.75,396.75,0,0,0,51.69-1.5,509.31,509.31,0,0,1,58.45-1.49c3.74,0,6.74.75,10.48.75a13.53,13.53,0,0,0,5.25,3.74,21.84,21.84,0,0,0,6.74,1.5c2.25,0,4.5-1.5,6.75-3,1.49,0,3.74.75,5.24.75h1.5C738.28,937.2,749.52,924.46,739.78,913.22Z"/></g><g class="cls-3"><path d="M855.17,895.24l-2.25-4.49c-1.5-2.25-3-4.5-5.25-6l-11.24-11.24c-18.73-18-39-34.46-58.44-51.69-22.47-19.48-44.2-39.71-67.43-57.7-14.23-13.48-32.22,6-16.48,18l.75.74c-2.25,2.25-3.75,6-4.5,9a20.75,20.75,0,0,0,2.25,9.74c.75.75.75,1.49,1.5,2.24-.75,1.5-.75,3-1.5,3.75-1.5,11.24.75,22.48,4.5,33-.75,5.24,0,10.49.74,15.73,3,13.49,8.25,25.47,16.49,36,15,21,59.19,63.69,82.41,33a12.07,12.07,0,0,0,2.25-6.74,12.41,12.41,0,0,0,9,3.74c3,.75,6.75,0,9.74-1.49a12,12,0,0,0,6.75-5.25,34.91,34.91,0,0,0,3.74-7.49c.75.75,2.25,1.5,3,2.25l.75.75a12.87,12.87,0,0,0,3.75,1.49,15.37,15.37,0,0,0,8.24,0,23.49,23.49,0,0,0,7.49-3.74,17.56,17.56,0,0,0,4.49-6.75A28.23,28.23,0,0,0,855.17,895.24Z"/></g><g class="cls-3"><path d="M572,421a51.2,51.2,0,0,0-12.74-21c-6.74-7.49-14.23-15.73-21-23.23-30-31.46-61.44-60.68-91.41-92.15-10.49-11.24-20.23-23.23-30.72-34.47-3.75-3-6.74-8.24-11.24-9.74a10.84,10.84,0,0,0-8.24-.75,15,15,0,0,0-6.74,5.25c-.75,2.25-1.5,3.74-1.5,6a14.13,14.13,0,0,0,1.5,6c0,.74.74.74,1.49,1.49a10.35,10.35,0,0,1,2.25,3l.75.75c33,41.21,71.18,76.42,106.39,115.38,13.49,15,36.72,39.71,44.21,47.21a2.62,2.62,0,0,1,.75,1.49V427a2.76,2.76,0,0,0-2.25.75,396.5,396.5,0,0,0-51.7-.75h-3a12.54,12.54,0,0,0-9,.75c-4.49,0-8.24,1.5-12,3a17.77,17.77,0,0,0-6.75,6,12.54,12.54,0,0,0-.75,9c3,27,9,86.91,9.74,127.37,2.25,21,2.25,42.7,1.5,64.43v6.74h0v1.5c-17.23,3-34.46,5.25-51.69,5.25a331.11,331.11,0,0,0-47.21-1.5,37.65,37.65,0,0,0-9,1.5,29.28,29.28,0,0,0-7.49,6,10.4,10.4,0,0,0-1.5,8.24c0,3,1.5,5.25,3,7.5s3.74,3.74,6.74,5.24a15.37,15.37,0,0,0,8.24,0h2.25a128.07,128.07,0,0,1,24,0,192.46,192.46,0,0,0,36,1.5c11.24-.75,21.73-1.5,33-3.75l13.48-2.24a29.38,29.38,0,0,0,13.49-3c4.49-2.25,7.49-5.25,10.49-9a5.86,5.86,0,0,0,3-3,61.72,61.72,0,0,0,.75-20.23,211.7,211.7,0,0,0-1.5-21.73,12.66,12.66,0,0,0-2.25-7.49v-3.75c-1.5-47.95-5.25-95.9-7.49-144.6v-7.49h33c6,.75,11.24,0,17.24-.75a3.89,3.89,0,0,0,3-1.5c5.25-1.5,10.49-3.75,14.24-7.49,3-3,4.49-6.75,6-10.49C572.7,430,572.7,425.47,572,421Z"/></g><g class="cls-3"><path d="M392.88,261.38h0l-2.25-2.25Z"/></g></svg>