<svg id="Layer_1"  width="132.447" height="115.775"  data-name="Layer 1" xmlns="http://www.w3.org/2000/svg" viewBox="0 0 1080 1080"><defs><style>.cls-1{opacity:0.13;}.cls-2{fill:#fff;}.cls-3{fill:#bee8ff;}</style></defs><title>Ikonattt</title><g class="cls-1"><path d="M852.81,280.76H78.09V304h774l.75-23.23Z"/></g><g class="cls-1"><path d="M583.08,654.63c0-1.49.75-3.74.75-5.24a228.75,228.75,0,0,1,18-53.95c-.75-1.49-2.25-2.24-3.74-3a188.29,188.29,0,0,0-29.22,44.2,234.79,234.79,0,0,0-14.24,40.46l-2.25,9a153,153,0,0,0,3.75,55.45,104.48,104.48,0,0,0,6.74,21.72c.75,2.25,1.5,4.5,3,6a16.22,16.22,0,0,0,6,3.74,12.78,12.78,0,0,0,7.5,0,11.61,11.61,0,0,0,6-4.49,12.09,12.09,0,0,0,2.25-6.74c0-2.25-.75-5.25-2.25-6.75h0v.75a.73.73,0,0,0-.75-.75c-.75-2.24-1.5-5.24-2.25-7.49a123.75,123.75,0,0,1-6.74-52.45C577.84,680.11,580.08,667.37,583.08,654.63Z"/></g><path class="cls-2" d="M641.53,687.6c0,1.5-.75,2.25-1.5,3.75s-2.25,1.5-3.75,1.5H607.06a4.29,4.29,0,0,1-2.25-.67c-.45-.25-.92-.54-1.5-.83a5.72,5.72,0,0,1-1.49-3.75c0-1.5.74-2.25,1.49-3.74a5.14,5.14,0,0,1,1.5-1,5.66,5.66,0,0,1,2.25-.51h29.22c1.5,0,2.25.75,3.75,1.5A5.68,5.68,0,0,1,641.53,687.6Z"/><path class="cls-2" d="M795.12,505.54v29.22c0,1.49-.75,2.24-1.5,3.74a4.83,4.83,0,0,1-3.74,1.5c-1.5,0-2.25-.75-3.75-1.5a5.72,5.72,0,0,1-1.5-3.74V505.54c0-1.5.75-2.25,1.5-3.75a5.73,5.73,0,0,1,3.75-1.5c1.49,0,2.24.75,3.74,1.5A5.73,5.73,0,0,1,795.12,505.54Z"/><path class="cls-2" d="M852.06,619.42v12.45l-4.49,4.58-35.64,36.32q.23.3.42.6a27.66,27.66,0,0,1,4.5,15.73,27.22,27.22,0,0,1-8.24,19.48c-4.5,4.5-12,7.49-18.73,7.49a29.56,29.56,0,0,1-15.74-4.49,29.23,29.23,0,0,1-8.56-9,30.15,30.15,0,0,1-1.93-3.75c-.21-.5-.41-1-.59-1.5a26,26,0,0,1-1.41-5.24,20.75,20.75,0,0,1,.5-9,22.86,22.86,0,0,1,2.25-7,28.5,28.5,0,0,1,5.25-7.28,27.58,27.58,0,0,1,5.24-4.11,23.93,23.93,0,0,1,9-3.38c5.25-.75,11.24-.75,15.74,1.5a29.36,29.36,0,0,1,5.72,3.26Z"/><path class="cls-2" d="M855.81,228.31c-1.5-.74-2.25-1.49-3.75-1.49h-774a5.77,5.77,0,0,0-3.74,1.49c-.75,1.5-1.5,2.25-1.5,3.75V767.77a5.73,5.73,0,0,0,1.5,3.75c1.5.75,2.25,1.49,3.74,1.49H600.22q-1.17-2.6-2.25-5.24-.93-2.24-1.8-4.5H83.34v-526H847.57V489c1.5.44,3,.89,4.49,1.35q2.64.82,5.25,1.73v-260A5.73,5.73,0,0,0,855.81,228.31Zm-8.24,395.6v12.54l4.49-4.58,5.25-5.35V614.17Z"/><path class="cls-3" d="M78.09,280h774V209.58h-774Z"/><path class="cls-2" d="M852.81,284.51H78.09c-1.5,0-2.25-.75-3.74-1.5a5.73,5.73,0,0,1-1.5-3.75V208.83a2.75,2.75,0,0,1,.75-2.24,2.63,2.63,0,0,1,.74-1.5c.75-.75.75-.75,1.5-.75s1.5-.75,2.25-.75h774a2.76,2.76,0,0,1,2.25.75,2.62,2.62,0,0,1,1.5.75c.75.75.75.75.75,1.5s.74,1.5.74,2.24v70.43c0,1.5-.74,2.25-1.49,3.75A3,3,0,0,1,852.81,284.51ZM83.34,274.77H847.56V214.08H83.34Z"/><path class="cls-2" d="M259.41,423.87H161.26a2.76,2.76,0,0,1-2.25-.75,2.62,2.62,0,0,1-1.5-.75c-.75-.75-.75-.75-.75-1.5s-.75-1.5-.75-2.25V352.69c0-1.5.75-2.25,1.5-3.75a5.73,5.73,0,0,1,3.75-1.5h98.15c1.5,0,2.25.75,3.74,1.5a5.73,5.73,0,0,1,1.5,3.75v65.93c0,1.5-.75,2.25-1.5,3.75C261.66,423.12,260.91,423.87,259.41,423.87Zm-93.66-10.49h88.41V357.93H165.75Z"/><path class="cls-2" d="M429.49,423.87H331.34a2.76,2.76,0,0,1-2.25-.75,2.62,2.62,0,0,1-1.5-.75c-.75-.75-.75-.75-.75-1.5s-.75-1.5-.75-2.25V352.69c0-1.5.75-2.25,1.5-3.75a5.73,5.73,0,0,1,3.75-1.5H431.73a2.62,2.62,0,0,1,1.5.75c.75.75.75.75.75,1.5s.75,1.5.75,2.25v65.93c0,1.5-.75,2.25-1.5,3.75A4.12,4.12,0,0,1,429.49,423.87Zm-93.66-10.49h88.41V357.93H335.83Z"/><path class="cls-2" d="M599.56,423.87H501.41a2.74,2.74,0,0,1-2.24-.75,2.62,2.62,0,0,1-1.5-.75c-.75-.75-.75-.75-.75-1.5s-.75-1.5-.75-2.25V352.69c0-1.5.75-2.25,1.5-3.75a5.72,5.72,0,0,1,3.74-1.5h98.15c1.5,0,2.25.75,3.75,1.5a5.73,5.73,0,0,1,1.5,3.75v65.93c0,1.5-.75,2.25-1.5,3.75A5.73,5.73,0,0,1,599.56,423.87Zm-93.65-10.49h88.41V357.93H505.91Z"/><path class="cls-2" d="M769.64,423.87H671.49a2.76,2.76,0,0,1-2.25-.75,2.62,2.62,0,0,1-1.49-.75c-.75-.75-.75-.75-.75-1.5s-.75-1.5-.75-2.25V352.69a2.76,2.76,0,0,1,.75-2.25,2.32,2.32,0,0,0,.75-1.5c.75-.75.75-.75,1.49-.75h100.4c1.5,0,2.25.75,3.75,1.5a5.73,5.73,0,0,1,1.5,3.75v65.93c0,1.5-.75,2.25-1.5,3.75C772.64,423.12,771.14,423.87,769.64,423.87ZM676,413.38H764.4V357.93H676Z"/><path class="cls-2" d="M259.41,570.72H161.26c-1.5,0-2.25-.75-3.75-1.5a5.73,5.73,0,0,1-1.5-3.75V499.54c0-1.5.75-2.25,1.5-3.75a5.77,5.77,0,0,1,3.75-1.49h98.15c1.5,0,2.25.75,3.74,1.49a5.73,5.73,0,0,1,1.5,3.75v65.93c0,1.5-.75,2.25-1.5,3.75C261.66,570,260.91,570.72,259.41,570.72ZM165.75,561h88.41V504.79H165.75Z"/><path class="cls-2" d="M429.49,570.72H331.34c-1.5,0-2.25-.75-3.75-1.5a5.73,5.73,0,0,1-1.5-3.75V499.54c0-1.5.75-2.25,1.5-3.75a5.77,5.77,0,0,1,3.75-1.49h98.15a2.73,2.73,0,0,1,2.24.75,2.63,2.63,0,0,1,1.5.74c.75.75.75.75.75,1.5s.75,1.5.75,2.25v65.93a2.76,2.76,0,0,1-.75,2.25,2.32,2.32,0,0,0-.75,1.5c-.75.75-.75.75-1.5.75A2.74,2.74,0,0,1,429.49,570.72ZM335.83,561h88.41V504.79H335.83Z"/><path class="cls-2" d="M599.56,570.72H501.41c-1.49,0-2.24-.75-3.74-1.5a5.73,5.73,0,0,1-1.5-3.75V499.54c0-1.5.75-2.25,1.5-3.75a5.77,5.77,0,0,1,3.74-1.49h98.15c1.5,0,2.25.75,3.75,1.49a5.73,5.73,0,0,1,1.5,3.75v65.93c0,1.5-.75,2.25-1.5,3.75A5.73,5.73,0,0,1,599.56,570.72ZM505.91,561h88.41V504.79H505.91Z"/><path class="cls-2" d="M702.2,500.29q-4.55,2.13-9,4.5Q684.41,509.45,676,515l-1.5,1c-1,.65-2,1.32-3,2V500.29Z"/><path class="cls-2" d="M671.5,495.05c-.75,0-1.5.74-2.25.74s-.75,0-1.5.75A2.62,2.62,0,0,0,667,498a2.76,2.76,0,0,0-.75,2.25v21.43q2.6-1.9,5.25-3.71c1-.67,2-1.34,3-2l1.5-1V504.79h17.22q4.44-2.37,9-4.5,6-2.84,12.15-5.24Z"/><path class="cls-2" d="M259.41,702.59H161.26c-1.5,0-2.25-.75-3.75-1.5a5.73,5.73,0,0,1-1.5-3.75V631.41c0-1.5.75-2.25,1.5-3.75a5.73,5.73,0,0,1,3.75-1.5h98.15c1.5,0,2.25.75,3.74,1.5a5.73,5.73,0,0,1,1.5,3.75v65.93c0,1.5-.75,2.25-1.5,3.75C261.66,701.84,260.91,702.59,259.41,702.59ZM165.75,692.1h88.41V636.65H165.75Z"/><path class="cls-2" d="M429.49,702.59H331.34c-1.5,0-2.25-.75-3.75-1.5a5.73,5.73,0,0,1-1.5-3.75V631.41c0-1.5.75-2.25,1.5-3.75a5.73,5.73,0,0,1,3.75-1.5h98.15a2.73,2.73,0,0,1,2.24.75,2.62,2.62,0,0,1,1.5.75c.75.75.75.75.75,1.5s.75,1.5.75,2.25v65.93a2.76,2.76,0,0,1-.75,2.25,2.62,2.62,0,0,1-.75,1.5c-.75.75-.75.75-1.5.75S430.24,702.59,429.49,702.59ZM335.83,692.1h88.41V636.65H335.83Z"/><path class="cls-2" d="M603.31,683.86c-.75,1.49-1.49,2.24-1.49,3.74a5.72,5.72,0,0,0,1.49,3.75c.58.29,1.05.58,1.5.83v-9.31A5.14,5.14,0,0,0,603.31,683.86Zm-101.89-57.7a5.73,5.73,0,0,0-3.75,1.5c-.75,1.5-1.5,2.25-1.5,3.75v65.93a5.73,5.73,0,0,0,1.5,3.75c1.5.75,2.25,1.5,3.75,1.5h81.4c-.12-1.75-.22-3.5-.28-5.25s-.13-3.49-.15-5.24H505.91V636.65h83q.68-2.62,1.41-5.24t1.57-5.25Z"/><path class="cls-2" d="M769.65,668.87v28.47h-6.59a26,26,0,0,1-1.41-5.24,20.75,20.75,0,0,1,.5-9,22.86,22.86,0,0,1,2.25-7A28.5,28.5,0,0,1,769.65,668.87Z"/><path class="cls-2" d="M769.65,668.87a28.5,28.5,0,0,0-5.25,7.28v16h-2.75a26,26,0,0,0,1.41,5.24c.18.5.38,1,.59,1.5a30.15,30.15,0,0,0,1.93,3.75h4.07a7.09,7.09,0,0,0,1.73-.26,11.29,11.29,0,0,1,2-.49c.75-1.5,1.5-2.25,1.5-3.75V664.76A27.58,27.58,0,0,0,769.65,668.87Z"/><path class="cls-2" d="M614.55,249.29c-1.5,0-2.25-.75-3.75-1.5a5.68,5.68,0,0,1-1.5-3.74V179.61c0-1.49.75-2.24,1.5-3.74a5.73,5.73,0,0,1,3.75-1.5c1.5,0,2.25.75,3.75,1.5a5.72,5.72,0,0,1,1.49,3.74v64.44c0,1.5-.74,2.25-1.49,3.74S616.05,249.29,614.55,249.29Z"/><path class="cls-2" d="M316.35,249.29c-1.5,0-2.25-.75-3.75-1.5a5.72,5.72,0,0,1-1.49-3.74V179.61c0-1.49.75-2.24,1.49-3.74a5.73,5.73,0,0,1,3.75-1.5c1.5,0,2.25.75,3.75,1.5a5.72,5.72,0,0,1,1.5,3.74v64.44c0,1.5-.75,2.25-1.5,3.74A4.13,4.13,0,0,1,316.35,249.29Z"/><path class="cls-2" d="M341.82,378.16h0l-1.49-.75v-.75a.73.73,0,0,1,.75-.74,141.34,141.34,0,0,1,15-15,2.62,2.62,0,0,1,1.5-.75c.75,0,.75,0,.75.75a2.62,2.62,0,0,1,.75,1.5c0,.75,0,.75-.75,1.5a141.34,141.34,0,0,0-15,15c-.75-.75-.75-.75-1.5-.75Z"/><path class="cls-2" d="M409.26,407.38h0l-1.5-.75v-.74a.73.73,0,0,1,.75-.75L419,394.65a2.62,2.62,0,0,1,1.5-.75c.74,0,.74,0,.74.75l.75.75c0,.75,0,.75-.75,1.49l-10.48,10.49Z"/><path class="cls-2" d="M172.5,521.27h-.75l-.75-.75v-.75a.73.73,0,0,1,.75-.75c3-3,5.24-6,8.24-9a2.62,2.62,0,0,1,1.5-.75c.75,0,.75,0,.75.75a2.62,2.62,0,0,1,.75,1.5c0,.75,0,.75-.75,1.5L174,521.27c-.74-.75-.74-.75-1.49,0Z"/><path class="cls-2" d="M172.5,544.5h-.75l-.75-.75V543a.73.73,0,0,1,.75-.75c9.74-11.24,19.48-22.48,30-33h3v3c-10.49,10.49-20.23,21.73-30,33-.75-.74-.75-.74-2.24-.74Z"/><path class="cls-2" d="M189.73,556.48H189l-.75-.75v-1.49c12-15.74,25.47-30.72,39-45a2.62,2.62,0,0,1,1.5-.75c.75,0,.75,0,1.5.75a2.62,2.62,0,0,1,.75,1.5c0,.75,0,.75-.75,1.5a547.13,547.13,0,0,0-38.21,45c-1.5-.75-1.5-.75-2.25-.75Z"/><path class="cls-2" d="M215.2,555.73h-.75l-.75-.75v-1.49c9.74-12,20.23-24,30.72-36l.75-.75c.75,0,.75,0,.75.75l.75.75v1.5c-10.49,12-20.23,24-30.72,36Z"/><path class="cls-2" d="M239.93,556.48h-.75a.73.73,0,0,1-.75-.75v-1.49c2.25-3,4.49-6.75,7.49-9.74l.75-.75h2.25l.75.75v2.24c-2.25,3-5.25,6-6.75,9.74a.73.73,0,0,1-.74.75A5.8,5.8,0,0,0,239.93,556.48Z"/><path class="cls-2" d="M343.32,397.64h0l-1.5-.75v-.74a.73.73,0,0,1,.75-.75c12-10.49,24-21.73,34.47-33l.75-.75H380v2.25a.73.73,0,0,1-.75.75c-11.24,11.24-23.23,22.47-36,33Z"/><path class="cls-2" d="M358.31,409.63h0l-1.5-.75v-.75a.73.73,0,0,1,.75-.75c15.73-15,31.47-30,47.95-44.2l.75-.75h1.5a.73.73,0,0,1,.75.75v2.25l-.75.75c-16.48,14.23-32.22,29.22-47.95,44.2C359.06,409.63,359.06,409.63,358.31,409.63Z"/><path class="cls-2" d="M383,410.38h0l-1.5-.75v-.75a.73.73,0,0,1,.75-.75c11.24-11.24,23.23-21.73,35.22-32.21h2.25a.73.73,0,0,1,.75.74v2.25l-.75.75c-12,10.49-23.23,21-34.47,32.22C383.78,409.63,383.78,410.38,383,410.38Z"/><path class="cls-2" d="M512.65,658.38h0c-.75,0-.75,0-1.5-.75v-2.25l12-14.23.75-.75h1.5l.75.75v1.5l-12,14.23c-.75,1.5-.75,1.5-1.5,1.5Z"/><path class="cls-2" d="M513.4,685.35h0l-1.5-.75v-1.49a468.9,468.9,0,0,1,33.72-42.71l.75-.75h2.25l.75.75v2.25c-12,13.48-23.23,27.72-33.72,42a.73.73,0,0,1-.75.75Z"/><path class="cls-2" d="M539.63,686.1h0l-1.5-.75v-1.5l25.47-30.71.75-.75h2.25l.75.75v2.24L541.87,686.1c-1.5-.75-1.5-.75-2.24,0Z"/><path class="cls-2" d="M560.6,686.85h0l-1.49-.75v-1.5l6-8.24.75-.75h1.5l.75.75v1.5l-6,8.24c0,.75,0,.75-1.5.75Z"/><path class="cls-2" d="M641.53,687.6c0,1.5-.75,2.25-1.5,3.75s-2.25,1.5-3.75,1.5H607.06a4.29,4.29,0,0,1-2.25-.67c-.45-.25-.92-.54-1.5-.83a5.72,5.72,0,0,1-1.49-3.75c0-1.5.74-2.25,1.49-3.74a5.14,5.14,0,0,1,1.5-1,5.66,5.66,0,0,1,2.25-.51h29.22c1.5,0,2.25.75,3.75,1.5A5.68,5.68,0,0,1,641.53,687.6Z"/><path class="cls-2" d="M795.12,505.54v29.22c0,1.49-.75,2.24-1.5,3.74a4.83,4.83,0,0,1-3.74,1.5c-1.5,0-2.25-.75-3.75-1.5a5.72,5.72,0,0,1-1.5-3.74V505.54c0-1.5.75-2.25,1.5-3.75a5.73,5.73,0,0,1,3.75-1.5c1.49,0,2.24.75,3.74,1.5A5.73,5.73,0,0,1,795.12,505.54Z"/><path class="cls-2" d="M795.12,840.45v29.22c0,1.5-.75,2.25-1.5,3.74a12.64,12.64,0,0,1-3.74,1.5c-1.5,0-2.25-.75-3.75-1.5s-1.5-2.24-1.5-3.74V840.45c0-1.5.75-2.25,1.5-3.75a5.73,5.73,0,0,1,3.75-1.5c1.49,0,2.24.75,3.74,1.5A5.73,5.73,0,0,1,795.12,840.45Z"/><path class="cls-2" d="M976.44,687.6c0,1.5-.75,2.25-1.5,3.75s-2.25,1.5-3.75,1.5H942c-1.5,0-2.25-.75-3.74-1.5a5.73,5.73,0,0,1-1.5-3.75c0-1.5.75-2.25,1.5-3.74a5.7,5.7,0,0,1,3.74-1.5h29.22c1.5,0,2.25.75,3.75,1.5A5.68,5.68,0,0,1,976.44,687.6Z"/><path class="cls-2" d="M812.35,673.37q-.2-.3-.42-.6l-2.72,2.78-3.73,3.8-7.36,7.5a5.73,5.73,0,0,1-3.75,1.5c-.75,0-2.25,0-3-.75s-1.49-1.5-1.49-2.25-.75-2.24,0-3c0-.75.75-1.5,1.49-2.25l7.37-7.37,3.81-3.81,2.79-2.79a29.36,29.36,0,0,0-5.72-3.26c-4.5-2.25-10.49-2.25-15.74-1.5a23.93,23.93,0,0,0-9,3.38,27.58,27.58,0,0,0-5.24,4.11,28.5,28.5,0,0,0-5.25,7.28,22.86,22.86,0,0,0-2.25,7,20.75,20.75,0,0,0-.5,9,26,26,0,0,0,1.41,5.24c.18.5.38,1,.59,1.5a30.15,30.15,0,0,0,1.93,3.75,29.23,29.23,0,0,0,8.56,9,29.56,29.56,0,0,0,15.74,4.49c6.74,0,14.23-3,18.73-7.49a27.22,27.22,0,0,0,8.24-19.48A27.66,27.66,0,0,0,812.35,673.37Zm45-186.91q-2.61-.88-5.25-1.67c-1.49-.46-3-.9-4.49-1.33a214.14,214.14,0,0,0-146.83,11.59q-5.38,2.47-10.58,5.24-4.1,2.16-8.06,4.5-3.09,1.81-6.11,3.73c-1.51,1-3,1.93-4.49,2.93q-2.65,1.77-5.25,3.64a213.11,213.11,0,0,0-66.78,78.09h0a209.46,209.46,0,0,0-13.16,33q-.81,2.61-1.53,5.25t-1.38,5.24a212.24,212.24,0,0,0-6.28,48.63s0,0,0,0q0,1.51,0,3c0,1.25,0,2.5,0,3.75,0,1.75.07,3.5.15,5.24s.16,3.51.28,5.25a211.82,211.82,0,0,0,13.07,60.68q.84,2.26,1.75,4.5,1.05,2.64,2.19,5.24A212.83,212.83,0,1,0,857.31,486.46Zm12,393.7a204.8,204.8,0,0,1-119.88,12A208.07,208.07,0,0,1,600.22,773q-1.17-2.6-2.25-5.24-.93-2.24-1.8-4.5a212.94,212.94,0,0,1-10.09-34.46,220.64,220.64,0,0,1-3.26-26.22c-.12-1.75-.22-3.5-.28-5.25s-.13-3.49-.15-5.24a210,210,0,0,1,6.48-55.45q.68-2.62,1.41-5.24t1.57-5.25q2.71-8.7,6.22-17.23c14.45-34.41,37.76-65,68.18-87.21q2.6-1.9,5.25-3.71c1-.67,2-1.34,3-2l1.5-1q8.41-5.58,17.22-10.24,4.44-2.37,9-4.5,6-2.84,12.15-5.24a205.55,205.55,0,0,1,75.53-14.24A208.13,208.13,0,0,1,847.57,489c1.5.44,3,.89,4.49,1.35q2.64.82,5.25,1.73A206.89,206.89,0,0,1,997.42,688.35c0,41.21-12.74,80.92-35.22,115.38A206.49,206.49,0,0,1,869.3,880.16Zm6.74-281h-2.25c-.75,0-1.5.75-2.25.75l-1.5,1.5-64.7,64.7a29.36,29.36,0,0,0-5.72-3.26c-4.5-2.25-10.49-2.25-15.74-1.5a23.93,23.93,0,0,0-9,3.38,27.58,27.58,0,0,0-5.24,4.11,28.5,28.5,0,0,0-5.25,7.28,22.86,22.86,0,0,0-2.25,7,20.75,20.75,0,0,0-.5,9,26,26,0,0,0,1.41,5.24c.18.5.38,1,.59,1.5a30.15,30.15,0,0,0,1.93,3.75,29.23,29.23,0,0,0,8.56,9,29.56,29.56,0,0,0,15.74,4.49c6.74,0,14.23-3,18.73-7.49a27.22,27.22,0,0,0,8.24-19.48,27.66,27.66,0,0,0-4.5-15.73q-.2-.3-.42-.6l35.64-36.32,4.49-4.58,5.25-5.35L876,607.43c.75,0,.75-.75,1.5-1.5a2.74,2.74,0,0,0,.75-2.24v-2.25c0-.75,0-.75-.75-1.5A2.62,2.62,0,0,0,876,599.19Zm-63.69,74.18q-.2-.3-.42-.6l-2.72,2.78-3.73,3.8-7.36,7.5a5.73,5.73,0,0,1-3.75,1.5c-.75,0-2.25,0-3-.75s-1.49-1.5-1.49-2.25-.75-2.24,0-3c0-.75.75-1.5,1.49-2.25l7.37-7.37,3.81-3.81,2.79-2.79a29.36,29.36,0,0,0-5.72-3.26c-4.5-2.25-10.49-2.25-15.74-1.5a23.93,23.93,0,0,0-9,3.38,27.58,27.58,0,0,0-5.24,4.11,28.5,28.5,0,0,0-5.25,7.28,22.86,22.86,0,0,0-2.25,7,20.75,20.75,0,0,0-.5,9,26,26,0,0,0,1.41,5.24c.18.5.38,1,.59,1.5a30.15,30.15,0,0,0,1.93,3.75,29.23,29.23,0,0,0,8.56,9,29.56,29.56,0,0,0,15.74,4.49c6.74,0,14.23-3,18.73-7.49a27.22,27.22,0,0,0,8.24-19.48A27.66,27.66,0,0,0,812.35,673.37Z"/><path class="cls-2" d="M970.44,567.72A216.58,216.58,0,0,0,873,487.55q-7.75-3.23-15.73-5.83-2.61-.86-5.25-1.64c-1.49-.45-3-.89-4.49-1.31a219.22,219.22,0,0,0-100.4-3.95,215.77,215.77,0,0,0-58.51,20.23q-4.83,2.47-9.52,5.24-3.87,2.25-7.64,4.69c-1.77,1.12-3.52,2.29-5.25,3.48A216.57,216.57,0,0,0,635.53,534a225.38,225.38,0,0,0-45.91,68.66l0,0a220.78,220.78,0,0,0-8.46,23.46q-.78,2.61-1.48,5.25c-.48,1.74-.92,3.49-1.34,5.24q-1.1,4.47-2,9a220.43,220.43,0,0,0-4,46.46c0,1.75.09,3.5.17,5.24s.18,3.5.3,5.25a218.2,218.2,0,0,0,13,60.68c.3.83.62,1.66.94,2.49h0c.25.67.51,1.33.78,2,.49,1.25,1,2.5,1.51,3.75.21.5.41,1,.64,1.49a216.41,216.41,0,0,0,79.53,95.91c35.21,24,77.92,36.71,120.63,36.71A217.1,217.1,0,0,0,970.44,567.72ZM869.3,880.16a204.8,204.8,0,0,1-119.88,12A208.07,208.07,0,0,1,600.22,773q-1.17-2.6-2.25-5.24-.93-2.24-1.8-4.5a212.94,212.94,0,0,1-10.09-34.46,220.64,220.64,0,0,1-3.26-26.22c-.12-1.75-.22-3.5-.28-5.25s-.13-3.49-.15-5.24a210,210,0,0,1,6.48-55.45q.68-2.62,1.41-5.24t1.57-5.25q2.71-8.7,6.22-17.23c14.45-34.41,37.76-65,68.18-87.21q2.6-1.9,5.25-3.71c1-.67,2-1.34,3-2l1.5-1q8.41-5.58,17.22-10.24,4.44-2.37,9-4.5,6-2.84,12.15-5.24a205.55,205.55,0,0,1,75.53-14.24A208.13,208.13,0,0,1,847.57,489c1.5.44,3,.89,4.49,1.35q2.64.82,5.25,1.73A206.89,206.89,0,0,1,997.42,688.35c0,41.21-12.74,80.92-35.22,115.38A206.49,206.49,0,0,1,869.3,880.16Z"/><path class="cls-2" d="M795.12,505.54v29.22c0,1.49-.75,2.24-1.5,3.74a4.83,4.83,0,0,1-3.74,1.5c-1.5,0-2.25-.75-3.75-1.5a5.72,5.72,0,0,1-1.5-3.74V505.54c0-1.5.75-2.25,1.5-3.75a5.73,5.73,0,0,1,3.75-1.5c1.49,0,2.24.75,3.74,1.5A5.73,5.73,0,0,1,795.12,505.54Z"/><path class="cls-2" d="M795.12,840.45v29.22c0,1.5-.75,2.25-1.5,3.74a12.64,12.64,0,0,1-3.74,1.5c-1.5,0-2.25-.75-3.75-1.5s-1.5-2.24-1.5-3.74V840.45c0-1.5.75-2.25,1.5-3.75a5.73,5.73,0,0,1,3.75-1.5c1.49,0,2.24.75,3.74,1.5A5.73,5.73,0,0,1,795.12,840.45Z"/><path class="cls-2" d="M976.44,687.6c0,1.5-.75,2.25-1.5,3.75s-2.25,1.5-3.75,1.5H942c-1.5,0-2.25-.75-3.74-1.5a5.73,5.73,0,0,1-1.5-3.75c0-1.5.75-2.25,1.5-3.74a5.7,5.7,0,0,1,3.74-1.5h29.22c1.5,0,2.25.75,3.75,1.5A5.68,5.68,0,0,1,976.44,687.6Z"/><path class="cls-2" d="M641.53,687.6c0,1.5-.75,2.25-1.5,3.75s-2.25,1.5-3.75,1.5H607.06a4.29,4.29,0,0,1-2.25-.67c-.45-.25-.92-.54-1.5-.83a5.72,5.72,0,0,1-1.49-3.75c0-1.5.74-2.25,1.49-3.74a5.14,5.14,0,0,1,1.5-1,5.66,5.66,0,0,1,2.25-.51h29.22c1.5,0,2.25.75,3.75,1.5A5.68,5.68,0,0,1,641.53,687.6Z"/><path class="cls-2" d="M878.29,601.44v2.25a2.74,2.74,0,0,1-.75,2.24c-.75.75-.75,1.5-1.5,1.5l-18.73,19.09-5.25,5.35-4.49,4.58-35.64,36.32-2.72,2.78-3.73,3.8-7.36,7.5a5.73,5.73,0,0,1-3.75,1.5c-.75,0-2.25,0-3-.75s-1.49-1.5-1.49-2.25-.75-2.24,0-3c0-.75.75-1.5,1.49-2.25l7.37-7.37,3.81-3.81,2.79-2.79,64.7-64.7,1.5-1.5c.75,0,1.5-.75,2.25-.75H876a2.62,2.62,0,0,1,1.5.75C878.29,600.69,878.29,600.69,878.29,601.44Z"/><path class="cls-2" d="M789.87,711.58a23.23,23.23,0,1,0-23.22-23.23A23.35,23.35,0,0,0,789.87,711.58Z"/><path class="cls-2" d="M812.35,673.37q-.2-.3-.42-.6a28.21,28.21,0,0,0-6.59-6.63,29.36,29.36,0,0,0-5.72-3.26c-4.5-2.25-10.49-2.25-15.74-1.5a23.93,23.93,0,0,0-9,3.38,27.58,27.58,0,0,0-5.24,4.11,28.5,28.5,0,0,0-5.25,7.28,22.86,22.86,0,0,0-2.25,7,20.75,20.75,0,0,0-.5,9,26,26,0,0,0,1.41,5.24c.18.5.38,1,.59,1.5a30.15,30.15,0,0,0,1.93,3.75,29.23,29.23,0,0,0,8.56,9,29.56,29.56,0,0,0,15.74,4.49c6.74,0,14.23-3,18.73-7.49a27.22,27.22,0,0,0,8.24-19.48A27.66,27.66,0,0,0,812.35,673.37Zm-15,32.21c-3,.75-6.74,1.5-10.49.75a21.88,21.88,0,0,1-9-5.24,12.51,12.51,0,0,1-3-3.18,16.13,16.13,0,0,1-2.25-5.81c-.75-3.75-.75-7.5.75-10.49a16,16,0,0,1,1.5-2.92,20.4,20.4,0,0,1,5.25-5.32,15,15,0,0,1,9.74-3,17.19,17.19,0,0,1,8.86,2.37,22.48,22.48,0,0,1,4.62,3.62,29.89,29.89,0,0,1,2.12,3,18.86,18.86,0,0,1,3.13,9.75,16.47,16.47,0,0,1-3,9.74A23.38,23.38,0,0,1,797.37,705.58Z"/></svg>