<svg id="Layer_1"  width="132.447" height="115.775"  data-name="Layer 1" xmlns="http://www.w3.org/2000/svg" viewBox="0 0 1080 1080"><defs><style>.cls-1{opacity:0.13;}.cls-2{opacity:0.13;}.cls-3{fill:#c5e6fb;}.cls-4{fill:#fff;}</style></defs><title>Ikonattt</title><g class="cls-1"><path d="M679.73,225.32a15.84,15.84,0,0,1-3.82,9.65c-.21.25-.44.49-.67.72a16,16,0,0,1-5.25,3.42,21.85,21.85,0,0,1-11.24,1.19H622c-92.91,1.5-185.81,1.5-278.72.75-25.47,0-50.2-2.25-74.92-2.25-21,0-42,1.5-62.94,0a16.52,16.52,0,0,1-6.74-1.52,19.91,19.91,0,0,1-3.75-2.22,25.3,25.3,0,0,1-2.12-2.42h0a.61.61,0,0,1-.13-.16,15.76,15.76,0,0,1-3-6.4c-.75-3,0-7.49,1.49-10.49.5-.82,1-1.57,1.5-2.25a15.16,15.16,0,0,1,3.37-3.41h0l.48-.33a15.23,15.23,0,0,1,2.23-1.21l.67-.28c3-.75,6.74-1.5,10.48-.75h18c42.7-1.5,85.41.75,128.12,2.24,35.21,2.25,69.68.75,104.89.75q66.32-1.12,132.62,0c16.48-.75,33,0,49.45.75,8.44.44,19.25-1.48,27,.94a15.8,15.8,0,0,1,3.17,1.37,11.77,11.77,0,0,1,2.08,1.49C677.71,217.07,679.35,220.37,679.73,225.32Z"/></g><g class="cls-1"><path d="M678.23,759.53a22.13,22.13,0,0,1-1.5,7.49c-.25.37-.49.72-.75,1.06s-.48.63-.74.92a17.19,17.19,0,0,1-3.75,3.27c-.49.16-1,.32-1.5.46a30,30,0,0,1-12.74,1l3-.74c-14.24,2.24-28.47-3.75-42-7.5-16.48-6.74-33.71-9.74-49.45-17.23-24.72,12-49.45,25.47-75.67,36a25.41,25.41,0,0,1-7.49-.75,11.59,11.59,0,0,1-6-4.49,8.9,8.9,0,0,1-2.05-4.63,11.25,11.25,0,0,1,2.05-8.86,9.22,9.22,0,0,1,2.38-2.17c2.06-1.34,4.52-2,6.61-3.07,6.75-3,13.49-6,19.48-9.74,15-8.24,30.72-16.49,46.46-24a22.81,22.81,0,0,0,6-3,16.37,16.37,0,0,1,8.24-2.25l2.11.48h0a71,71,0,0,1,16.61,5.5c7.5,2.25,15,5.25,22.48,8.24,2.25.75,6,2.25,6.74,3l1.5.75c12.74,4.49,25.48,8.24,39,9.74h3a12.75,12.75,0,0,1,7.49,0,11.82,11.82,0,0,1,2.06.71l.19.09c1.72.8,3.1,1.87,5.25,2.95a8.06,8.06,0,0,1,.74.86,11.5,11.5,0,0,1,.88,1.37A10.11,10.11,0,0,1,678.23,759.53Z"/></g><g class="cls-2"><path d="M331.33,334c-8.24-1.5-17.23-5.25-20.23-13.49a10.38,10.38,0,0,1,0-6.74c1.49-2.23,2.24-3.73,4.45-5.22l.05,0a12.73,12.73,0,0,1,5.52-2.16,8.33,8.33,0,0,1,1.22-.08c2.25-.75,4.5,0,6.74,1.5l2.25,2.24a2.62,2.62,0,0,0,1.5.75c.75,0,1.5.75,2.25.75h3.75c1.49,0,2.24-.75,3-.75.75-.75,1.5-.75,2.25-1.5a7.7,7.7,0,0,1,4.5-3.74,14.89,14.89,0,0,1,5.26-.75h.73a8,8,0,0,1,4.92,2l.32.29c1.5.75,3,3,3.75,4.49C369.54,327.22,343.32,337,331.33,334Z"/></g><g class="cls-2"><path d="M446,331.71a37.93,37.93,0,0,1-36.72-8.24c-1.49-1.5-3-3.75-3-6-.75-2.25,0-4.5,1.5-6.75a6.52,6.52,0,0,1,2.92-3.41,10.39,10.39,0,0,1,2.32-1.08,10.27,10.27,0,0,1,4.3-.51,10.62,10.62,0,0,1,2.44.51,9.62,9.62,0,0,1,4.5,3H425c1.5,0,2.25.75,3.74,1.5.75,0,1.5.75,2.25.75h2.25a19.93,19.93,0,0,0,9-2.25l.75-.75c0-.74.75-.74,1.5-1.49a15.79,15.79,0,0,1,4.49-3h5.25l1.93,1,2.56,1.28a15.65,15.65,0,0,1,3,4.49C466.2,321.22,454.21,328.71,446,331.71Z"/></g><g class="cls-2"><path d="M535.13,331.71a62.4,62.4,0,0,1-16.49-2.25c-4.49-2.24-8.24-4.49-12.73-6.74a19.88,19.88,0,0,1-3.75-4.5,16.43,16.43,0,0,1-.75-6,6.77,6.77,0,0,1,2.25-5.24,4.4,4.4,0,0,1,1.73-1.8,13.33,13.33,0,0,1,2.76-1.2,8.33,8.33,0,0,1,3.61-.18c4,.63,7.91,3.7,11.38,5.42a12.07,12.07,0,0,0,6.74,2.25h4.5c.75,0,1.5-.75,2.25-.75l1.49-.75c.75-.75,1.5-.75,2.25-1.5l4.13-2.06.37-.18a6.38,6.38,0,0,1,5.24,0,4.19,4.19,0,0,1,1.3.2,7.56,7.56,0,0,1,3.2,2,15.64,15.64,0,0,1,3,4.5C560.6,325,544.87,331,535.13,331.71Z"/></g><path class="cls-3" d="M670,439l-16.62,40.36H676V489.8H649.06l-30.24,73.43H676v10.49H614.5l-19.43,47.2c-.75.75-1.5,2.25-2.25,2.25a3.9,3.9,0,0,1-3,1.5,5.67,5.67,0,0,1-3-.75c-.74-.75-1.49-.75-2.24-1.5a2.76,2.76,0,0,1-.75-2.25,5.67,5.67,0,0,1,.75-3l17.82-43.45H547.86a5.25,5.25,0,1,1,0-10.49h58.85l30.12-73.43H580.08a5.25,5.25,0,1,1,0-10.49h61.06l27.35-66.68a6.18,6.18,0,0,1,1.5-2,7.05,7.05,0,0,1,1.5-1,4.66,4.66,0,0,1,3.75-.3,3.83,3.83,0,0,1,.74.3v14.78l-.74,1.79Z"/><path class="cls-3" d="M363.55,311.48c-.75-1.5-2.25-3.74-3.75-4.49l-.32-.29a25.47,25.47,0,0,0,2.57-10.95,24.72,24.72,0,0,0-4.49-14.24c-2.25-4.49-6.75-7.49-11.24-9.74-5.25-2.25-9.74-2.25-15-1.5A23.58,23.58,0,0,0,318.6,277a23.27,23.27,0,0,0-6.75,12.73c-.75,5.25-.75,10.49,1.5,15a32.59,32.59,0,0,0,2.2,3.77c-2.21,1.49-3,3-4.45,5.22a10.38,10.38,0,0,0,0,6.74c3,8.24,12,12,20.23,13.49C343.32,337,369.54,327.22,363.55,311.48Zm-39.71-21.73a12,12,0,0,1,5.24-6.74,17.1,17.1,0,0,1,8.25-2.25A15.51,15.51,0,0,1,351.56,295a15.11,15.11,0,0,1-2.25,8.24c-2.24,2.25-4.49,4.5-6.74,5.24-3,.75-5.24,1.5-8.24.75s-5.25-1.49-7.49-3.74a23.46,23.46,0,0,1-3.75-7.5A14.87,14.87,0,0,1,323.84,289.75Z"/><path class="cls-3" d="M281.13,686.85l-.75-.75v-.75a.73.73,0,0,1,.75-.75l156.6-149.84a.73.73,0,0,0,.74-.75H440a.73.73,0,0,1,.75.75.73.73,0,0,0,.75.75V537a.73.73,0,0,1-.75.75L284.13,687.6c-1.5-.75-1.5-.75-2.25-.75Z"/><path class="cls-3" d="M281.13,746l-1.5.75c-.74,0-.74,0-1.49-.75a2.62,2.62,0,0,1-.75-1.5c0-.75,0-.75.75-1.49,52.44-54.7,106.39-109.39,160.33-162.59a2.62,2.62,0,0,1,1.5-.75c.75,0,.75,0,1.5.75a2.62,2.62,0,0,1,.75,1.5c0,.75,0,.75-.75,1.5C387.53,636.65,333.58,691.35,281.13,746Z"/><path class="cls-3" d="M452.71,626.16,334.33,746c-1.5-.75-1.5-.75-2.25-.75h-.75l-.75-.75v-.75a.73.73,0,0,1,.75-.74L449.71,623.17a2.62,2.62,0,0,1,1.5-.75c.75,0,.75,0,1.5.75a2.62,2.62,0,0,1,.75,1.5C453.46,625.41,453.46,625.41,452.71,626.16Z"/><path class="cls-3" d="M461.7,310.73a15.65,15.65,0,0,0-3-4.49L456.14,305a25.05,25.05,0,0,0,1.81-9.21,24.65,24.65,0,0,0-4.49-14.24c-2.25-4.49-6.74-7.49-11.24-9.74-5.24-2.25-9.74-2.25-15-1.5A23.58,23.58,0,0,0,414.5,277a23.2,23.2,0,0,0-6.74,12.73c-.75,5.25-.75,10.49,1.49,15,.44.89.92,1.75,1.43,2.58a6.52,6.52,0,0,0-2.92,3.41c-1.5,2.25-2.25,4.5-1.5,6.75,0,2.24,1.5,4.49,3,6A37.93,37.93,0,0,0,446,331.71C454.21,328.71,466.2,321.22,461.7,310.73Zm-42-21A12,12,0,0,1,425,283a17,17,0,0,1,8.24-2.25A15.53,15.53,0,0,1,447.47,295a15.11,15.11,0,0,1-2.25,8.24c-2.25,2.25-4.5,4.5-6.75,5.24-3,.75-5.24,1.5-8.24.75s-5.24-1.49-7.49-3.74A23.46,23.46,0,0,1,419,298,14.87,14.87,0,0,1,419.74,289.75Z"/><path class="cls-3" d="M384.53,746c25.47-26.22,51-53.94,74.92-82.41l.75-.75h2.25l.75.75v2.24c-24,28.47-49.45,56.2-74.92,82.42-1.5-.75-1.5-.75-3,0h-.75l-.75-.75v-.75A.73.73,0,0,1,384.53,746Z"/><path class="cls-3" d="M438.47,742.3l31.47-36c0-.75.75-.75,1.5-.75s.75,0,1.5.75c.75,0,.75.75.75,1.5s0,.75-.75,1.5l-31.47,36a.73.73,0,0,0-.75.75H440c-.75,0-.75,0-1.5-.75a2.62,2.62,0,0,1-.75-1.5C437.72,743.05,437.72,743.05,438.47,742.3Z"/><path class="cls-3" d="M557.6,313a15.64,15.64,0,0,0-3-4.5,7.56,7.56,0,0,0-3.2-2,25.46,25.46,0,0,0,2.45-10.69,24.66,24.66,0,0,0-4.5-14.24c-2.24-4.49-6.74-7.49-11.24-9.74-5.24-2.25-9.74-2.25-15-1.5A23.61,23.61,0,0,0,510.4,277a23.26,23.26,0,0,0-6.74,12.73c-.75,5.25-.75,10.49,1.5,15l.23.45a4.4,4.4,0,0,0-1.73,1.8,6.77,6.77,0,0,0-2.25,5.24,16.43,16.43,0,0,0,.75,6,19.88,19.88,0,0,0,3.75,4.5c4.49,2.25,8.24,4.5,12.73,6.74a62.4,62.4,0,0,0,16.49,2.25C544.87,331,560.6,325,557.6,313Zm-42-23.23a12,12,0,0,1,5.24-6.74,17.09,17.09,0,0,1,8.24-2.25A15.53,15.53,0,0,1,543.37,295a15.11,15.11,0,0,1-2.25,8.24c-2.25,2.25-4.49,4.5-6.74,5.24-3,.75-5.25,1.5-8.24.75s-6-1.49-7.5-3.74a23.44,23.44,0,0,1-3.74-7.5A14.87,14.87,0,0,1,515.65,289.75Z"/><path class="cls-3" d="M675.91,235c-.11-3-.34-6-.67-9a118.4,118.4,0,0,0-2.08-12.61c-.28-1.28-.58-2.55-.91-3.81-.45-1.76-.93-3.51-1.47-5.24s1.37-13.78.73-15.54c-12.15-34.05-29.78-51.43-63.74-63-11.78-4-36.32-5.41-49.42-5.41h-248c-13.23,0-35.18-.86-47,3.13a117.39,117.39,0,0,0-72.51,70.35c-.91,2.44,7.52,7.93,6.78,10.44-.52,1.73-1,3.48-1.42,5.24a1.32,1.32,0,0,0-.08.33h0a116.2,116.2,0,0,0-3.24,22.71h0c-.09,1.8-.13,3.6-.13,5.42V842.69q0,2.64.12,5.25c.57,13.15-5.28,27.5-.76,39.16a117.46,117.46,0,0,0,63.53,65.66l8.58-1.76a117.86,117.86,0,0,0,46.16,9.33h248c16.34,0,33,5.89,47.08-.07a117.43,117.43,0,0,0,63.71-65.66c4.54-11.7,6.16-33.5,6.72-46.7.08-1.72.12-3.46.12-5.21V744.53h-1.49c-1.5,0-3,0-4.5,0a195.81,195.81,0,0,1-98.15-28.42c-.75-.75-2.25-.75-3-.75-1.5,0-2.24,0-3,.75l-77.18,42.71,23.23-93.66v-2.24a2.76,2.76,0,0,0-.75-2.25,222.43,222.43,0,0,1-42.71-130.37C468.44,413.44,558.18,318.52,670,316c1.5,0,3,0,4.5,0H676V238.06C676,237,675.94,236,675.91,235ZM670,304.05C552.53,307,458,407,458,529.51a222.43,222.43,0,0,0,42.71,134.86L475.19,768.52v2.25a2.76,2.76,0,0,0,.75,2.25,6.47,6.47,0,0,0,1.69,1.36c.3,1.76,4-12.43,5.05-11.37a11.59,11.59,0,0,0,6,4.49c2.24.75,5.24-4.25,7.49-4.25,26.22-10.49,47.95-29,72.67-41,15.74,7.49,33,14.49,49.45,21.23,13.49,3.75,27.72,9.74,42,7.5l-3,.74c4,.67,8.6-.85,12.74-2v90H198.72V207.28a16.52,16.52,0,0,0,6.74,1.52c21,1.5,42,0,62.94,0,24.72,0,49.45,2.25,74.92,2.25,92.91.75,185.81.75,278.72-.75h36.71A21.85,21.85,0,0,0,670,209.11Z"/><path class="cls-4" d="M670,563.23v10.49h11.24V563.23ZM652.76,142.9c-18.73-18-43.46-28.47-68.93-28.47h-299A97.51,97.51,0,0,0,216,142.9c-17.29,18-27.66,41.58-28.42,66,0,1-.05,2-.05,2.92V868.17A97.51,97.51,0,0,0,216,937.1c18.73,18,43.46,28.47,68.93,28.47h299c25.47,0,50.2-10.49,68.93-29.22,18-18.73,28.47-43.46,28.47-68.93v-123c-.25,0-.5,0-.75,0-1.5,0-3,.07-4.5.08h-1.49c-1.5,0-3,0-4.5,0V867.42a84.1,84.1,0,0,1-2,18,86.51,86.51,0,0,1-23.52,42.69,83,83,0,0,1-40.19,23,85.85,85.85,0,0,1-20.5,2.5h-299A84.5,84.5,0,0,1,264.19,951h0a86.64,86.64,0,0,1-40-22.88,83.22,83.22,0,0,1-23.56-42.78,85,85,0,0,1-1.91-17.91V211.83c0-.75,0-1.5,0-2.25,0-.4,0-.81,0-1.21,0-1.35.13-2.69.26-4q.33-3.74,1-7.42a86.25,86.25,0,0,1,24.13-45.78,85.13,85.13,0,0,1,60.69-25.47h299a77.59,77.59,0,0,1,12,.93c18.1,2.76,35.15,11.64,48.68,24.54A83.62,83.62,0,0,1,669,199c.27,1.78.49,3.57.64,5.36s.26,3.49.3,5.24c0,.75,0,1.5,0,2.25V316c1.5,0,3,0,4.5,0H676c1.5,0,3,0,4.5.08l.75,0V211.83A97.51,97.51,0,0,0,652.76,142.9Zm27.72,482.51a2.76,2.76,0,0,0-.75,2.25c0,.75.75,1.5.75,2.25a.85.85,0,0,1,.75.47v-6.8ZM670,563.23v10.49h11.24V563.23Zm9-150.6a5.86,5.86,0,0,0-3-3,3.83,3.83,0,0,0-.74-.3,4.66,4.66,0,0,0-3.75.3,7.05,7.05,0,0,0-1.5,1V439l5.25-12.75.74-1.79,3-7.29A4.76,4.76,0,0,0,679,412.63Zm-9,66.68V489.8h11.24V479.31Z"/><path class="cls-4" d="M281.13,686.85l-.75-.75v-.75a.73.73,0,0,1,.75-.75l156.6-149.84a.73.73,0,0,0,.74-.75H440a.73.73,0,0,1,.75.75.73.73,0,0,0,.75.75V537a.73.73,0,0,1-.75.75L284.13,687.6c-1.5-.75-1.5-.75-2.25-.75Z"/><path class="cls-4" d="M281.13,746l-1.5.75c-.74,0-.74,0-1.49-.75a2.62,2.62,0,0,1-.75-1.5c0-.75,0-.75.75-1.49,52.44-54.7,106.39-109.39,160.33-162.59a2.62,2.62,0,0,1,1.5-.75c.75,0,.75,0,1.5.75a2.62,2.62,0,0,1,.75,1.5c0,.75,0,.75-.75,1.5C387.53,636.65,333.58,691.35,281.13,746Z"/><path class="cls-4" d="M452.71,626.16,334.33,746c-1.5-.75-1.5-.75-2.25-.75h-.75l-.75-.75v-.75a.73.73,0,0,1,.75-.74L449.71,623.17a2.62,2.62,0,0,1,1.5-.75c.75,0,.75,0,1.5.75a2.62,2.62,0,0,1,.75,1.5C453.46,625.41,453.46,625.41,452.71,626.16Z"/><path class="cls-4" d="M384.53,746c25.47-26.22,51-53.94,74.92-82.41l.75-.75h2.25l.75.75v2.24c-24,28.47-49.45,56.2-74.92,82.42-1.5-.75-1.5-.75-3,0h-.75l-.75-.75v-.75A.73.73,0,0,1,384.53,746Z"/><path class="cls-4" d="M438.47,742.3l31.47-36c0-.75.75-.75,1.5-.75s.75,0,1.5.75c.75,0,.75.75.75,1.5s0,.75-.75,1.5l-31.47,36a.73.73,0,0,0-.75.75H440c-.75,0-.75,0-1.5-.75a2.62,2.62,0,0,1-.75-1.5C437.72,743.05,437.72,743.05,438.47,742.3Z"/><path class="cls-4" d="M670,439l-16.62,40.36h21.87V489.8H649.06l-30.24,73.43h56.42v10.49H614.5l-19.43,47.2c-.75.75-1.5,2.25-2.25,2.25a3.9,3.9,0,0,1-3,1.5,5.67,5.67,0,0,1-3-.75c-.74-.75-1.49-.75-2.24-1.5a2.76,2.76,0,0,1-.75-2.25,5.67,5.67,0,0,1,.75-3l17.82-43.45H547.86a5.25,5.25,0,1,1,0-10.49h58.85l30.12-73.43H580.08a5.25,5.25,0,1,1,0-10.49h61.06l27.35-66.68a6.18,6.18,0,0,1,1.5-2,7.05,7.05,0,0,1,1.5-1,4.66,4.66,0,0,1,3.75-.3V426.2Z"/><path class="cls-4" d="M670,563.23v10.49h10.49V563.23Zm9-357.39a5.72,5.72,0,0,0-3.74-1.5H192.72a5.7,5.7,0,0,0-3.74,1.5,5.77,5.77,0,0,0-1.45,3.07,5,5,0,0,0-.05.67V842.7a5.13,5.13,0,0,0,5.24,5.24H675.24a4.3,4.3,0,0,0,.62,0,5.09,5.09,0,0,0,4.62-5.21V744.45c-1.5,0-3,.07-4.5.08h-1.49c-1.5,0-3,0-4.5,0V836.7H198.72V215.58H670V316c1.5,0,3,0,4.5,0H676c1.5,0,3,0,4.5.08V209.58A5.72,5.72,0,0,0,679,205.84Zm.75,421.82c0,.75.75,1.5.75,2.25v-4.5A2.76,2.76,0,0,0,679.73,627.66Zm-.75-215a5.86,5.86,0,0,0-3-3,3.83,3.83,0,0,0-.74-.3,4.66,4.66,0,0,0-3.75.3,7.05,7.05,0,0,0-1.5,1V439l5.25-12.75.74-1.79,3-7.29A4.76,4.76,0,0,0,679,412.63Zm-9,66.68V489.8h10.49V479.31Z"/><path class="cls-4" d="M482.68,893.64H395.77a5.25,5.25,0,1,1,0-10.49h86.91a5.25,5.25,0,1,1,0,10.49Z"/><path class="cls-4" d="M804.85,480.81a5.68,5.68,0,0,0-3.74-1.5H752.75l-4.3,10.49h51.91a10.58,10.58,0,0,0,4.49-1.5,5.43,5.43,0,0,0,0-7.49Zm-30-59.94a5.8,5.8,0,0,0-3-3,4.78,4.78,0,0,0-4.5,0,5.8,5.8,0,0,0-3,3l-24,58.44h12.33l22.13-53.94A4.78,4.78,0,0,0,774.88,420.87ZM653.37,479.31,670,439l5.25-12.75.74-1.79,3-7.29a4.76,4.76,0,0,0,0-4.49,5.86,5.86,0,0,0-3-3,3.83,3.83,0,0,0-.74-.3,4.66,4.66,0,0,0-3.75.3,7.05,7.05,0,0,0-1.5,1,6.18,6.18,0,0,0-1.5,2l-27.35,66.68H580.08a5.25,5.25,0,1,0,0,10.49h56.75l-30.12,73.43h12.11l30.24-73.43h87.06l4.3-10.49Zm-51,94.41-17.82,43.45a5.67,5.67,0,0,0-.75,3,2.76,2.76,0,0,0,.75,2.25c.75.75,1.5.75,2.24,1.5a5.67,5.67,0,0,0,3,.75,3.9,3.9,0,0,0,3-1.5c.75,0,1.5-1.5,2.25-2.25l19.43-47.2Zm-54.54-10.49a5.25,5.25,0,1,0,0,10.49H602.4l4.31-10.49Zm257-82.42a5.68,5.68,0,0,0-3.74-1.5H752.75l22.13-53.94a4.78,4.78,0,0,0,0-4.5,5.8,5.8,0,0,0-3-3,4.78,4.78,0,0,0-4.5,0,5.8,5.8,0,0,0-3,3l-24,58.44h-87L670,439l5.25-12.75.74-1.79,3-7.29a4.76,4.76,0,0,0,0-4.49,5.86,5.86,0,0,0-3-3,3.83,3.83,0,0,0-.74-.3,4.66,4.66,0,0,0-3.75.3,7.05,7.05,0,0,0-1.5,1,6.18,6.18,0,0,0-1.5,2l-27.35,66.68H580.08a5.25,5.25,0,1,0,0,10.49h56.75l-30.12,73.43H547.86a5.25,5.25,0,1,0,0,10.49H602.4l-17.82,43.45a5.67,5.67,0,0,0-.75,3,2.76,2.76,0,0,0,.75,2.25c.75.75,1.5.75,2.24,1.5a5.67,5.67,0,0,0,3,.75,3.9,3.9,0,0,0,3-1.5c.75,0,1.5-1.5,2.25-2.25l19.43-47.2h87.19l-20.46,49.86-.75,1.83a2.76,2.76,0,0,0-.75,2.25c0,.75.75,1.5.75,2.25a.85.85,0,0,1,.75.47,6.19,6.19,0,0,0,.75,1,1.61,1.61,0,0,0,1.5,1.5,2.75,2.75,0,0,0,2.24.75,3,3,0,0,0,3-1.5c.75,0,1.5-1.5,2.25-2.25l23-56.19h54.87a4.13,4.13,0,0,0,3.75-1.5,5.25,5.25,0,0,0-3.75-9H718.32l30.13-73.43h51.91a10.58,10.58,0,0,0,4.49-1.5,5.43,5.43,0,0,0,0-7.49ZM706,563.23H618.82l30.24-73.43h87.06Zm98.86-82.42a5.68,5.68,0,0,0-3.74-1.5H752.75l22.13-53.94a4.78,4.78,0,0,0,0-4.5,5.8,5.8,0,0,0-3-3,4.78,4.78,0,0,0-4.5,0,5.8,5.8,0,0,0-3,3l-24,58.44h-87L670,439l5.25-12.75.74-1.79,3-7.29a4.76,4.76,0,0,0,0-4.49,5.86,5.86,0,0,0-3-3,3.83,3.83,0,0,0-.74-.3,4.66,4.66,0,0,0-3.75.3,7.05,7.05,0,0,0-1.5,1,6.18,6.18,0,0,0-1.5,2l-27.35,66.68H580.08a5.25,5.25,0,1,0,0,10.49h56.75l-30.12,73.43H547.86a5.25,5.25,0,1,0,0,10.49H602.4l-17.82,43.45a5.67,5.67,0,0,0-.75,3,2.76,2.76,0,0,0,.75,2.25c.75.75,1.5.75,2.24,1.5a5.67,5.67,0,0,0,3,.75,3.9,3.9,0,0,0,3-1.5c.75,0,1.5-1.5,2.25-2.25l19.43-47.2h87.19l-20.46,49.86-.75,1.83a2.76,2.76,0,0,0-.75,2.25c0,.75.75,1.5.75,2.25a.85.85,0,0,1,.75.47,6.19,6.19,0,0,0,.75,1,1.61,1.61,0,0,0,1.5,1.5,2.75,2.75,0,0,0,2.24.75,3,3,0,0,0,3-1.5c.75,0,1.5-1.5,2.25-2.25l23-56.19h54.87a4.13,4.13,0,0,0,3.75-1.5,5.25,5.25,0,0,0-3.75-9H718.32l30.13-73.43h51.91a10.58,10.58,0,0,0,4.49-1.5,5.43,5.43,0,0,0,0-7.49ZM706,563.23H618.82l30.24-73.43h87.06ZM681.23,310.09l-.75,0c-1.5-.05-3-.07-4.5-.08h-1.49c-1.5,0-3,0-4.5,0-114.8,2.48-206.79,99.66-206.79,219.48a225.22,225.22,0,0,0,43.46,133.37l-24.6,100.47L480.43,770l86.94-48.63,1.47-.82c.7.42,1.4.83,2.11,1.23h0a207.12,207.12,0,0,0,98.84,27.94H670c1.25,0,2.5,0,3.75,0H676q2.25,0,4.5-.09l.75,0C794.63,745.57,885,649,885,530.26,885,411.24,794.25,313.83,681.23,310.09Zm0,434.33c-.25,0-.5,0-.75,0-1.5,0-3,.07-4.5.08h-1.49c-1.5,0-3,0-4.5,0a195.81,195.81,0,0,1-98.15-28.42c-.75-.75-2.25-.75-3-.75-1.5,0-2.24,0-3,.75l-77.18,42.71,23.23-93.66v-2.24a2.76,2.76,0,0,0-.75-2.25,222.43,222.43,0,0,1-42.71-130.37C468.44,413.44,558.18,318.52,670,316c1.5,0,3,0,4.5,0H676c1.5,0,3,0,4.5.08l.75,0c110.06,3.71,199.3,98.14,199.3,214.16S792,740.73,681.23,744.42ZM801.11,479.31H752.75l22.13-53.94a4.78,4.78,0,0,0,0-4.5,5.8,5.8,0,0,0-3-3,4.78,4.78,0,0,0-4.5,0,5.8,5.8,0,0,0-3,3l-24,58.44h-87L670,439l5.25-12.75.74-1.79,3-7.29a4.76,4.76,0,0,0,0-4.49,5.86,5.86,0,0,0-3-3,3.83,3.83,0,0,0-.74-.3,4.66,4.66,0,0,0-3.75.3,7.05,7.05,0,0,0-1.5,1,6.18,6.18,0,0,0-1.5,2l-27.35,66.68H580.08a5.25,5.25,0,1,0,0,10.49h56.75l-30.12,73.43H547.86a5.25,5.25,0,1,0,0,10.49H602.4l-17.82,43.45a5.67,5.67,0,0,0-.75,3,2.76,2.76,0,0,0,.75,2.25c.75.75,1.5.75,2.24,1.5a5.67,5.67,0,0,0,3,.75,3.9,3.9,0,0,0,3-1.5c.75,0,1.5-1.5,2.25-2.25l19.43-47.2h87.19l-20.46,49.86-.75,1.83a2.76,2.76,0,0,0-.75,2.25c0,.75.75,1.5.75,2.25a.85.85,0,0,1,.75.47,6.19,6.19,0,0,0,.75,1,1.61,1.61,0,0,0,1.5,1.5,2.75,2.75,0,0,0,2.24.75,3,3,0,0,0,3-1.5c.75,0,1.5-1.5,2.25-2.25l23-56.19h54.87a4.13,4.13,0,0,0,3.75-1.5,5.25,5.25,0,0,0-3.75-9H718.32l30.13-73.43h51.91a10.58,10.58,0,0,0,4.49-1.5,5.25,5.25,0,0,0-3.74-9ZM706,563.23H618.82l30.24-73.43h87.06Zm-52.62-83.92L670,439l5.25-12.75.74-1.79,3-7.29a4.76,4.76,0,0,0,0-4.49,5.86,5.86,0,0,0-3-3,3.83,3.83,0,0,0-.74-.3,4.66,4.66,0,0,0-3.75.3,7.05,7.05,0,0,0-1.5,1,6.18,6.18,0,0,0-1.5,2l-27.35,66.68H580.08a5.25,5.25,0,1,0,0,10.49h56.75l-30.12,73.43H547.86a5.25,5.25,0,1,0,0,10.49H602.4l-17.82,43.45a5.67,5.67,0,0,0-.75,3,2.76,2.76,0,0,0,.75,2.25c.75.75,1.5.75,2.24,1.5a5.67,5.67,0,0,0,3,.75,3.9,3.9,0,0,0,3-1.5c.75,0,1.5-1.5,2.25-2.25l19.43-47.2H670V563.23H618.82l30.24-73.43h87.06l4.3-10.49Zm121.51-58.44a5.8,5.8,0,0,0-3-3,4.78,4.78,0,0,0-4.5,0,5.8,5.8,0,0,0-3,3l-24,58.44h12.33l22.13-53.94A4.78,4.78,0,0,0,774.88,420.87Zm30,59.94a5.68,5.68,0,0,0-3.74-1.5H752.75l-4.3,10.49h51.91a10.58,10.58,0,0,0,4.49-1.5,5.43,5.43,0,0,0,0-7.49Zm-257,82.42a5.25,5.25,0,1,0,0,10.49H602.4l4.31-10.49Zm54.54,10.49-17.82,43.45a5.67,5.67,0,0,0-.75,3,2.76,2.76,0,0,0,.75,2.25c.75.75,1.5.75,2.24,1.5a5.67,5.67,0,0,0,3,.75,3.9,3.9,0,0,0,3-1.5c.75,0,1.5-1.5,2.25-2.25l19.43-47.2Zm66.09-161.09-27.35,66.68H580.08a5.25,5.25,0,1,0,0,10.49h56.75l-30.12,73.43h12.11l30.24-73.43,4.31-10.49L670,439V410.59A6.18,6.18,0,0,0,668.49,412.63Zm10.49,0a5.86,5.86,0,0,0-3-3v14.78l3-7.29A4.76,4.76,0,0,0,679,412.63Zm2.25,66.68V489.8h54.89l4.3-10.49Zm93.65-58.44a5.8,5.8,0,0,0-3-3,4.78,4.78,0,0,0-4.5,0,5.8,5.8,0,0,0-3,3l-24,58.44h12.33l22.13-53.94A4.78,4.78,0,0,0,774.88,420.87Zm30,59.94a5.68,5.68,0,0,0-3.74-1.5H752.75l-4.3,10.49h51.91a10.58,10.58,0,0,0,4.49-1.5,5.43,5.43,0,0,0,0-7.49Z"/><path class="cls-4" d="M681.23,304.07l-.75,0c-1.5,0-3-.05-4.5-.05h-.74q-2.64,0-5.25.06C552.53,307,458,407,458,529.51a222.43,222.43,0,0,0,42.71,134.86L475.19,768.52v2.25a2.76,2.76,0,0,0,.75,2.25,6.47,6.47,0,0,0,1.69,1.36,1.42,1.42,0,0,0,.55.13,3.75,3.75,0,0,0,4.5,0l87.66-48A205.76,205.76,0,0,0,670,755c1.75,0,3.5.07,5.25.07h1.62c1.21,0,2.42,0,3.62,0l.75,0c117.11-3.31,211.29-103.14,211.29-225.44S798.34,307.38,681.23,304.07Zm-6,440.46h-.75c-1.5,0-3,0-4.5,0a195.81,195.81,0,0,1-98.15-28.42c-.75-.75-2.25-.75-3-.75-1.5,0-2.24,0-3,.75l-77.18,42.71,23.23-93.66v-2.24a2.76,2.76,0,0,0-.75-2.25,222.43,222.43,0,0,1-42.71-130.37C468.44,413.44,558.18,318.52,670,316c1.5,0,3,0,4.5,0H676c1.5,0,3,0,4.5.08l.75,0c110.06,3.71,199.3,98.14,199.3,214.16S792,740.73,681.23,744.42c-.25,0-.5,0-.75,0-1.5,0-3,.07-4.5.08Z"/><path class="cls-4" d="M357.56,281.51c-2.25-4.49-6.75-7.49-11.24-9.74-5.25-2.25-9.74-2.25-15-1.5A23.58,23.58,0,0,0,318.6,277a23.27,23.27,0,0,0-6.75,12.73c-.75,5.25-.75,10.49,1.5,15a32.59,32.59,0,0,0,2.2,3.77,27.23,27.23,0,0,0,7.54,7.47,24.72,24.72,0,0,0,14.24,4.49c6.74,0,13.48-3,17.23-6.74a26.25,26.25,0,0,0,7.49-18A24.72,24.72,0,0,0,357.56,281.51Zm-33.72,8.24a12,12,0,0,1,5.24-6.74,17.1,17.1,0,0,1,8.25-2.25A15.51,15.51,0,0,1,351.56,295a15.11,15.11,0,0,1-2.25,8.24c-2.24,2.25-4.49,4.5-6.74,5.24-3,.75-5.24,1.5-8.24.75s-5.25-1.49-7.49-3.74a23.46,23.46,0,0,1-3.75-7.5A14.87,14.87,0,0,1,323.84,289.75Z"/><path class="cls-4" d="M453.46,281.51c-2.25-4.49-6.74-7.49-11.24-9.74-5.24-2.25-9.74-2.25-15-1.5A23.58,23.58,0,0,0,414.5,277a23.2,23.2,0,0,0-6.74,12.73c-.75,5.25-.75,10.49,1.49,15,.44.89.92,1.75,1.43,2.58A27.57,27.57,0,0,0,419,316a24.72,24.72,0,0,0,14.24,4.49c6.74,0,13.49-3,17.23-6.74a25.78,25.78,0,0,0,5.68-8.77,25.05,25.05,0,0,0,1.81-9.21A24.65,24.65,0,0,0,453.46,281.51Zm-33.72,8.24A12,12,0,0,1,425,283a17,17,0,0,1,8.24-2.25A15.53,15.53,0,0,1,447.47,295a15.11,15.11,0,0,1-2.25,8.24c-2.25,2.25-4.5,4.5-6.75,5.24-3,.75-5.24,1.5-8.24.75s-5.24-1.49-7.49-3.74A23.46,23.46,0,0,1,419,298,14.87,14.87,0,0,1,419.74,289.75Z"/><path class="cls-4" d="M549.36,281.51c-2.24-4.49-6.74-7.49-11.24-9.74-5.24-2.25-9.74-2.25-15-1.5A23.61,23.61,0,0,0,510.4,277a23.26,23.26,0,0,0-6.74,12.73c-.75,5.25-.75,10.49,1.5,15l.23.45A27.86,27.86,0,0,0,514.9,316a24.69,24.69,0,0,0,14.23,4.49c6.75,0,13.49-3,17.24-6.74a26.28,26.28,0,0,0,7.49-18A24.66,24.66,0,0,0,549.36,281.51Zm-33.71,8.24a12,12,0,0,1,5.24-6.74,17.09,17.09,0,0,1,8.24-2.25A15.53,15.53,0,0,1,543.37,295a15.11,15.11,0,0,1-2.25,8.24c-2.25,2.25-4.49,4.5-6.74,5.24-3,.75-5.25,1.5-8.24.75s-6-1.49-7.5-3.74a23.44,23.44,0,0,1-3.74-7.5A14.87,14.87,0,0,1,515.65,289.75Z"/><path class="cls-4" d="M679,417.12l-3,7.29-.74,1.79L670,439l-16.62,40.36-4.31,10.49-30.24,73.43-4.32,10.49-19.43,47.2c-.75.75-1.5,2.25-2.25,2.25a3.9,3.9,0,0,1-3,1.5,5.67,5.67,0,0,1-3-.75c-.74-.75-1.49-.75-2.24-1.5a2.76,2.76,0,0,1-.75-2.25,5.67,5.67,0,0,1,.75-3l17.82-43.45,4.31-10.49,30.12-73.43,4.31-10.49,27.35-66.68a6.18,6.18,0,0,1,1.5-2,7.05,7.05,0,0,1,1.5-1,4.66,4.66,0,0,1,3.75-.3,3.83,3.83,0,0,1,.74.3,5.86,5.86,0,0,1,3,3A4.76,4.76,0,0,1,679,417.12Z"/><path class="cls-4" d="M774.88,425.37l-22.13,53.94-4.3,10.49-30.13,73.43L714,573.72l-23,56.19c-.75.75-1.5,2.25-2.25,2.25a3,3,0,0,1-3,1.5,2.75,2.75,0,0,1-2.24-.75,1.61,1.61,0,0,1-1.5-1.5,6.19,6.19,0,0,1-.75-1,.85.85,0,0,0-.75-.47c0-.75-.75-1.5-.75-2.25a2.76,2.76,0,0,1,.75-2.25l.75-1.83,20.46-49.86,4.3-10.49,30.13-73.43,4.3-10.49,24-58.44a5.8,5.8,0,0,1,3-3,4.78,4.78,0,0,1,4.5,0,5.8,5.8,0,0,1,3,3A4.78,4.78,0,0,1,774.88,425.37Z"/><path class="cls-4" d="M806.35,484.56a5.7,5.7,0,0,1-1.5,3.74,10.58,10.58,0,0,1-4.49,1.5H580.08a5.25,5.25,0,1,1,0-10.49h221a5.13,5.13,0,0,1,5.24,5.25Z"/><path class="cls-4" d="M774.14,568.47a5.73,5.73,0,0,1-1.5,3.75,4.13,4.13,0,0,1-3.75,1.5h-221a5.25,5.25,0,1,1,0-10.49h221a5.13,5.13,0,0,1,5.25,5.24Z"/><path class="cls-4" d="M441.47,535.51V537a.73.73,0,0,1-.75.75L284.13,687.6c-1.5-.75-1.5-.75-2.25-.75h-.75l-.75-.75v-.75a.73.73,0,0,1,.75-.75l156.6-149.84a.73.73,0,0,0,.74-.75H440a.73.73,0,0,1,.75.75A.73.73,0,0,0,441.47,535.51Z"/><path class="cls-4" d="M442.22,582c0,.75,0,.75-.75,1.5C387.53,636.65,333.58,691.35,281.13,746l-1.5.75c-.74,0-.74,0-1.49-.75a2.62,2.62,0,0,1-.75-1.5c0-.75,0-.75.75-1.49,52.44-54.7,106.39-109.39,160.33-162.59a2.62,2.62,0,0,1,1.5-.75c.75,0,.75,0,1.5.75A2.62,2.62,0,0,1,442.22,582Z"/><path class="cls-4" d="M453.46,624.67c0,.74,0,.74-.75,1.49L334.33,746c-1.5-.75-1.5-.75-2.25-.75h-.75l-.75-.75v-.75a.73.73,0,0,1,.75-.74L449.71,623.17a2.62,2.62,0,0,1,1.5-.75c.75,0,.75,0,1.5.75A2.62,2.62,0,0,1,453.46,624.67Z"/><path class="cls-4" d="M463.2,663.63v2.24c-24,28.47-49.45,56.2-74.92,82.42-1.5-.75-1.5-.75-3,0h-.75l-.75-.75v-.75a.73.73,0,0,1,.75-.75c25.47-26.22,51-53.94,74.92-82.41l.75-.75h2.25Z"/><path class="cls-4" d="M473.69,707.83c0,.75,0,.75-.75,1.5l-31.47,36a.73.73,0,0,0-.75.75H440c-.75,0-.75,0-1.5-.75a2.62,2.62,0,0,1-.75-1.5c0-.74,0-.74.75-1.49l31.47-36c0-.75.75-.75,1.5-.75s.75,0,1.5.75C473.69,706.33,473.69,707.08,473.69,707.83Z"/></svg>