<svg width="133" height="111" viewBox="0 0 133 121" fill="none" xmlns="http://www.w3.org/2000/svg">
<path d="M0.743042 92.8421H110.102V17.1511H0.743042V92.8421Z" fill="white"/>
<path d="M110.204 93.5811H0.743293C0.531357 93.5811 0.425389 93.4766 0.214866 93.3706C0.0822547 93.2256 0.00692621 93.0372 0.00292969 92.8408V17.1513C0.00292969 16.9393 0.108898 16.8333 0.214866 16.6214C0.359678 16.4895 0.547459 16.4147 0.743293 16.4109H110.102C110.314 16.4109 110.42 16.5169 110.632 16.6214C110.764 16.7666 110.839 16.9549 110.843 17.1513V92.8422C110.843 93.0541 110.738 93.1601 110.632 93.372C110.514 93.4836 110.365 93.5565 110.204 93.5811ZM1.48507 92.2064H109.462V17.8874H1.48507V92.2064Z" fill="black"/>
<path d="M0.743042 23.9243H110.102V13.9746H0.743042V23.9243Z" fill="#BEE8FF"/>
<path d="M110.204 24.5617H0.743197C0.531261 24.5617 0.425293 24.4557 0.21477 24.3497C0.0821587 24.2047 0.00683023 24.0164 0.00283371 23.8199V13.8688C-0.00412616 13.8115 0.00177336 13.7533 0.0201038 13.6986C0.0384342 13.6438 0.0687347 13.5938 0.108802 13.5523C0.119662 13.4721 0.156371 13.3977 0.213357 13.3403C0.319325 13.2344 0.319325 13.2344 0.425293 13.2344C0.531261 13.2344 0.637229 13.1284 0.743197 13.1284H110.102C110.16 13.1213 110.218 13.1272 110.273 13.1455C110.328 13.1638 110.378 13.1942 110.42 13.2344C110.501 13.2455 110.575 13.2828 110.632 13.3403C110.738 13.4463 110.738 13.4463 110.738 13.5523C110.738 13.6582 110.843 13.7642 110.843 13.8688V23.8199C110.843 24.0318 110.738 24.1378 110.632 24.3497C110.59 24.424 110.527 24.4839 110.451 24.5217C110.374 24.5595 110.288 24.5735 110.204 24.5617ZM1.48497 23.1855H109.462V14.6105H1.48497V23.1855Z" fill="black"/>
<path d="M26.362 34.1951H12.4943V43.5104H26.362V34.1951Z" fill="white"/>
<path d="M26.362 44.2522H12.4943C12.4368 44.2593 12.3784 44.2535 12.3234 44.2351C12.2684 44.2168 12.2182 44.1864 12.1764 44.1463C12.0961 44.1351 12.0216 44.0979 11.9645 44.0403C11.8585 43.9343 11.8585 43.9343 11.8585 43.8284C11.8585 43.7224 11.7526 43.6164 11.7526 43.5105V34.1951C11.7526 33.9832 11.8585 33.8772 11.9645 33.6653C12.1095 33.5327 12.2979 33.4574 12.4943 33.4534H26.362C26.574 33.4534 26.6799 33.5593 26.8905 33.6653C27.0231 33.8103 27.0984 33.9987 27.1024 34.1951V43.5105C27.1024 43.7224 26.9964 43.8284 26.8905 44.0403C26.6799 44.1463 26.574 44.2522 26.362 44.2522ZM13.1287 42.7701H25.6203V34.9355H13.1287V42.7701Z" fill="black"/>
<path d="M50.393 34.1951H36.5253V43.5104H50.393V34.1951Z" fill="white"/>
<path d="M50.3928 44.2522H36.5251C36.4676 44.2593 36.4092 44.2535 36.3542 44.2351C36.2992 44.2168 36.249 44.1864 36.2072 44.1463C36.1269 44.1351 36.0524 44.0979 35.9953 44.0403C35.8893 43.9343 35.8893 43.9343 35.8893 43.8284C35.8893 43.7224 35.7833 43.6164 35.7833 43.5105V34.1951C35.7833 33.9832 35.8893 33.8772 35.9953 33.6653C36.1403 33.5327 36.3286 33.4574 36.5251 33.4534H50.7093C50.7896 33.4645 50.8641 33.5017 50.9212 33.5593C51.0272 33.6653 51.0272 33.6653 51.0272 33.7713C51.0272 33.8772 51.1332 33.9832 51.1332 34.0892V43.4045C51.1332 43.6164 51.0272 43.7224 50.9212 43.9343C50.8718 44.0315 50.796 44.1128 50.7026 44.169C50.6091 44.2252 50.5018 44.254 50.3928 44.2522V44.2522ZM37.1595 42.7701H49.651V34.9355H37.1595V42.7701Z" fill="black"/>
<path d="M74.422 34.1951H60.5543V43.5104H74.422V34.1951Z" fill="white"/>
<path d="M74.422 44.2522H60.5543C60.497 44.2593 60.4388 44.2534 60.3841 44.2351C60.3293 44.2168 60.2793 44.1864 60.2378 44.1463C60.1575 44.1351 60.083 44.0979 60.0259 44.0403C59.9199 43.9343 59.9199 43.9343 59.9199 43.8284C59.9199 43.7224 59.814 43.6164 59.814 43.5105V34.1951C59.814 33.9832 59.9199 33.8772 60.0259 33.6653C60.1705 33.5329 60.3583 33.4576 60.5543 33.4534H74.422C74.634 33.4534 74.7399 33.5593 74.9519 33.6653C75.0845 33.8103 75.1598 33.9987 75.1638 34.1951V43.5105C75.1638 43.7224 75.0578 43.8284 74.9519 44.0403C74.8068 44.1729 74.6185 44.2482 74.422 44.2522V44.2522ZM61.1901 42.7701H73.6817V34.9355H61.1901V42.7701Z" fill="black"/>
<path d="M98.4529 34.1951H84.5852V43.5104H98.4529V34.1951Z" fill="white"/>
<path d="M98.4528 44.2522H84.5851C84.5275 44.2593 84.4692 44.2535 84.4142 44.2351C84.3592 44.2168 84.309 44.1864 84.2672 44.1462C84.1873 44.1348 84.1134 44.0976 84.0566 44.0403C83.9507 43.9343 83.9507 43.9343 83.9507 43.8283C83.9507 43.7224 83.8447 43.6164 83.8447 43.5104V34.1951C83.8376 34.1376 83.8435 34.0792 83.8618 34.0242C83.8801 33.9692 83.9105 33.919 83.9507 33.8772C84.0112 33.8223 84.049 33.7467 84.0566 33.6653C84.1626 33.5593 84.1626 33.5593 84.2672 33.5593H98.4528C98.6647 33.5593 98.7707 33.6653 98.9826 33.7713C99.1152 33.9163 99.1906 34.1046 99.1946 34.3011V43.6164C99.1946 43.8283 99.0886 43.9343 98.9826 44.1462C98.8767 44.1462 98.6647 44.2522 98.4528 44.2522ZM85.2223 42.7701H97.7124V34.9355H85.2223V42.7701Z" fill="black"/>
<path d="M26.362 55.0493H12.4943V64.3646H26.362V55.0493Z" fill="white"/>
<path d="M26.362 65.0006H12.4943C12.2824 65.0006 12.1764 64.8946 11.9645 64.7886C11.8319 64.6436 11.7566 64.4553 11.7526 64.2588V54.9435C11.7526 54.7316 11.8585 54.6256 11.9645 54.4137C12.11 54.282 12.2981 54.2072 12.4943 54.2031H26.362C26.574 54.2031 26.6799 54.3091 26.8905 54.4137C27.0231 54.5587 27.0984 54.747 27.1024 54.9435V64.2588C27.1024 64.4707 26.9964 64.5767 26.8905 64.7886C26.6799 64.8988 26.574 65.0006 26.362 65.0006ZM13.1287 63.6272H25.6203V55.6853H13.1287V63.6272Z" fill="black"/>
<path d="M50.393 55.0493H36.5253V64.3646H50.393V55.0493Z" fill="white"/>
<path d="M50.3928 65.0006H36.5251C36.3132 65.0006 36.2072 64.8946 35.9953 64.7887C35.8627 64.6436 35.7873 64.4553 35.7833 64.2588V54.9435C35.7833 54.7316 35.8893 54.6256 35.9953 54.4137C36.1408 54.282 36.3289 54.2073 36.5251 54.2032H50.3928C50.4501 54.196 50.5083 54.2018 50.5631 54.2202C50.6179 54.2385 50.6678 54.2689 50.7093 54.3091C50.7894 54.32 50.8638 54.3567 50.9212 54.4137C51.0272 54.5197 51.0272 54.5197 51.0272 54.6256C51.0272 54.7316 51.1332 54.8376 51.1332 54.9435V64.2588C51.1402 64.3164 51.1344 64.3748 51.1161 64.4298C51.0977 64.4848 51.0674 64.535 51.0272 64.5767C50.9667 64.6317 50.9289 64.7073 50.9212 64.7887C50.8153 64.8946 50.8153 64.8946 50.7093 64.8946C50.6678 64.9348 50.6178 64.9652 50.5631 64.9835C50.5083 65.0018 50.4501 65.0077 50.3928 65.0006V65.0006ZM37.1595 63.6273H49.651V55.6853H37.1595V63.6273Z" fill="black"/>
<path d="M74.422 55.0493H60.5543V64.3646H74.422V55.0493Z" fill="white"/>
<path d="M74.422 65.0006H60.5543C60.3438 65.0006 60.2378 64.8946 60.0259 64.7886C59.8933 64.6436 59.818 64.4553 59.814 64.2588V54.9435C59.814 54.7316 59.9199 54.6256 60.0259 54.4137C60.1711 54.2823 60.3586 54.2076 60.5543 54.2031H74.422C74.634 54.2031 74.7399 54.3091 74.9519 54.4137C75.0845 54.5587 75.1598 54.747 75.1638 54.9435V64.2588C75.1638 64.4707 75.0578 64.5767 74.9519 64.7886C74.8068 64.9212 74.6185 64.9966 74.422 65.0006ZM61.1901 63.6272H73.6817V55.6853H61.1901V63.6272Z" fill="black"/>
<path d="M98.4529 55.0493H84.5852V64.3646H98.4529V55.0493Z" fill="white"/>
<path d="M98.4528 65.0008H84.2672C84.1874 64.9894 84.1134 64.9522 84.0567 64.8949C83.9507 64.7889 83.9507 64.7889 83.9507 64.6829C83.9507 64.577 83.8447 64.471 83.8447 64.365V55.0497C83.8368 54.9913 83.8422 54.9318 83.8606 54.8758C83.8789 54.8197 83.9097 54.7686 83.9507 54.7262C83.9619 54.6458 83.9991 54.5714 84.0567 54.5142C84.1627 54.4083 84.1627 54.4083 84.2672 54.4083C84.3718 54.4083 84.4791 54.3037 84.5851 54.3037H98.4528C98.6647 54.3037 98.7707 54.4083 98.9827 54.5142C99.1153 54.6593 99.1906 54.8476 99.1946 55.0441V64.3594C99.1946 64.5713 99.0886 64.6773 98.9827 64.8892C98.8767 64.8991 98.6647 65.0008 98.4528 65.0008ZM85.2223 63.6275H97.7124V55.6855H85.2223V63.6275Z" fill="black"/>
<path d="M26.362 73.5754H12.4943V82.8908H26.362V73.5754Z" fill="white"/>
<path d="M26.362 83.6326H12.4943C12.2824 83.6326 12.1764 83.5266 11.9645 83.4207C11.8319 83.2756 11.7566 83.0873 11.7526 82.8908V73.5755C11.7526 73.3636 11.8585 73.2576 11.9645 73.0457C12.1095 72.9131 12.2979 72.8377 12.4943 72.8337H26.362C26.574 72.8337 26.6799 72.9397 26.8905 73.0457C27.0231 73.1907 27.0984 73.379 27.1024 73.5755V82.8908C27.1024 83.1028 26.9964 83.2087 26.8905 83.4207C26.6799 83.5266 26.574 83.6326 26.362 83.6326ZM13.1287 82.1505H25.6203V74.3159H13.1287V82.1505Z" fill="black"/>
<path d="M50.393 73.5754H36.5253V82.8908H50.393V73.5754Z" fill="white"/>
<path d="M50.3928 83.6329H36.5251C36.3132 83.6329 36.2072 83.5269 35.9953 83.421C35.8627 83.2759 35.7873 83.0876 35.7833 82.8911V73.5758C35.7833 73.3639 35.8893 73.2579 35.9953 73.046C36.1403 72.9134 36.3286 72.838 36.5251 72.834H50.3928C50.4501 72.8269 50.5083 72.8327 50.5631 72.851C50.6179 72.8694 50.6678 72.8998 50.7093 72.94C50.7896 72.9511 50.8641 72.9884 50.9212 73.046C51.0272 73.1519 51.0272 73.1519 51.0272 73.2579C51.0272 73.3639 51.1332 73.4698 51.1332 73.5758V82.8911C51.1402 82.9487 51.1344 83.007 51.1161 83.062C51.0977 83.117 51.0674 83.1672 51.0272 83.209C51.016 83.2894 50.9788 83.3638 50.9212 83.421C50.8153 83.5269 50.8153 83.5269 50.7093 83.5269C50.6033 83.5269 50.4988 83.6329 50.3928 83.6329ZM37.1595 82.1508H49.651V74.3162H37.1595V82.1508Z" fill="black"/>
<path d="M74.422 73.5754H60.5543V82.8908H74.422V73.5754Z" fill="white"/>
<path d="M74.422 83.6326H60.5543C60.3438 83.6326 60.2378 83.5266 60.0259 83.4207C59.8933 83.2756 59.818 83.0873 59.814 82.8908V73.5755C59.814 73.3636 59.9199 73.2576 60.0259 73.0457C60.1705 72.9133 60.3583 72.8379 60.5543 72.8337H74.422C74.634 72.8337 74.7399 72.9397 74.9519 73.0457C75.0845 73.1907 75.1598 73.379 75.1638 73.5755V82.8908C75.1638 83.1028 75.0578 83.2087 74.9519 83.4207C74.8068 83.5533 74.6185 83.6286 74.422 83.6326ZM61.1901 82.1505H73.6817V74.3159H61.1901V82.1505Z" fill="black"/>
<path d="M98.4529 73.5754H84.5852V82.8908H98.4529V73.5754Z" fill="white"/>
<path d="M98.4528 83.6324H84.2672C84.1873 83.6209 84.1134 83.5837 84.0566 83.5264C83.9507 83.4204 83.9507 83.4204 83.9507 83.3144C83.9507 83.2085 83.8447 83.1025 83.8447 82.9965V73.6812C83.8376 73.6237 83.8435 73.5653 83.8618 73.5103C83.8801 73.4553 83.9105 73.4051 83.9507 73.3633C83.9618 73.283 83.9991 73.2085 84.0566 73.1514C84.1626 73.0454 84.1626 73.0454 84.2672 73.0454C84.3717 73.0454 84.4791 72.9395 84.5851 72.9395H98.4528C98.6647 72.9395 98.7707 73.0454 98.9826 73.1514C99.1152 73.2964 99.1906 73.4847 99.1946 73.6812V82.9965C99.1946 83.2085 99.0886 83.3144 98.9826 83.5264C98.8767 83.5264 98.6647 83.6324 98.4528 83.6324ZM85.2223 82.1502H97.7124V74.3156H85.2223V82.1502Z" fill="black"/>
<path d="M76.5401 19.5855C76.3282 19.5855 76.2222 19.4795 76.0103 19.3736C75.8774 19.2293 75.802 19.0413 75.7983 18.8451V9.74036C75.7983 9.52984 75.9043 9.42387 76.0103 9.21194C76.1553 9.07932 76.3436 9.004 76.5401 9C76.7521 9 76.858 9.10597 77.07 9.21194C77.2018 9.35675 77.2767 9.54453 77.2805 9.74036V18.8451C77.2805 19.0571 77.1759 19.1631 77.07 19.3736C76.964 19.5841 76.7521 19.5855 76.5401 19.5855Z" fill="black"/>
<path d="M34.4071 19.5855C34.1952 19.5855 34.0892 19.4795 33.8773 19.3736C33.7454 19.2288 33.6706 19.041 33.6667 18.8451V9.74036C33.6667 9.52984 33.7727 9.42387 33.8773 9.21194C34.0223 9.07932 34.2106 9.004 34.4071 9C34.6191 9 34.725 9.10597 34.937 9.21194C35.0694 9.35654 35.1447 9.54435 35.1489 9.74036V18.8451C35.1489 19.0571 35.0429 19.1631 34.937 19.3736C34.8742 19.4513 34.7925 19.5116 34.6997 19.5487C34.6069 19.5858 34.5062 19.5985 34.4071 19.5855V19.5855Z" fill="black"/>
<path d="M38.0058 37.7935L37.7953 37.6876V37.5816C37.7951 37.5677 37.7977 37.5539 37.803 37.541C37.8083 37.5282 37.8161 37.5165 37.826 37.5067C37.8359 37.497 37.8477 37.4893 37.8606 37.4842C37.8735 37.4791 37.8874 37.4767 37.9013 37.477C38.5536 36.7185 39.2621 36.01 40.0206 35.3577C40.0778 35.3001 40.1522 35.2629 40.2326 35.2517C40.3385 35.2517 40.3385 35.2517 40.3385 35.3577C40.3961 35.4148 40.4334 35.4893 40.4445 35.5696C40.4445 35.6756 40.4445 35.6756 40.3385 35.7815C39.58 36.4339 38.8715 37.1424 38.2192 37.9009C38.1132 37.7949 38.1132 37.7949 38.0072 37.7949L38.0058 37.7935Z" fill="black"/>
<path d="M47.5346 41.9224L47.3227 41.8165V41.7119C47.3223 41.6979 47.3248 41.6839 47.3299 41.6709C47.3351 41.6579 47.3429 41.646 47.3528 41.6361C47.3628 41.6262 47.3746 41.6184 47.3876 41.6132C47.4007 41.608 47.4146 41.6055 47.4286 41.6059L48.9108 40.1238C48.9679 40.0662 49.0424 40.029 49.1227 40.0178C49.2273 40.0178 49.2273 40.0178 49.2273 40.1238L49.3332 40.2298C49.3332 40.3357 49.3332 40.3357 49.2273 40.4403L47.7465 41.9224H47.5346Z" fill="black"/>
<path d="M14.0825 58.0136H13.9765L13.8705 57.9076V57.8017C13.8701 57.7877 13.8726 57.7737 13.8778 57.7607C13.883 57.7476 13.8908 57.7358 13.9007 57.7259C13.9106 57.716 13.9225 57.7082 13.9355 57.703C13.9485 57.6978 13.9625 57.6953 13.9765 57.6957C14.4004 57.2718 14.7169 56.848 15.1407 56.4241C15.1979 56.3665 15.2723 56.3293 15.3527 56.3181C15.4586 56.3181 15.4586 56.3181 15.4586 56.4241C15.5162 56.4812 15.5535 56.5557 15.5646 56.636C15.5646 56.742 15.5646 56.742 15.4586 56.848L14.2944 58.0136C14.1898 57.9076 14.1898 57.9076 14.0839 58.0136H14.0825Z" fill="black"/>
<path d="M14.0825 61.2959H13.9765L13.8705 61.19V61.084C13.8701 61.07 13.8726 61.056 13.8778 61.043C13.883 61.03 13.8908 61.0181 13.9007 61.0082C13.9106 60.9983 13.9225 60.9905 13.9355 60.9853C13.9485 60.9801 13.9625 60.9776 13.9765 60.978C15.3527 59.3899 16.7288 57.8018 18.2152 56.3154H18.6391V56.7393C17.1569 58.2214 15.7808 59.8096 14.4004 61.4019C14.2944 61.2973 14.2944 61.2973 14.0839 61.2973L14.0825 61.2959Z" fill="black"/>
<path d="M16.5168 62.9888H16.4137L16.3077 62.8828V62.6723C18.0032 60.4484 19.9064 58.3319 21.8181 56.3142C21.8752 56.2566 21.9497 56.2194 22.03 56.2083C22.136 56.2083 22.136 56.2083 22.242 56.3142C22.2995 56.3713 22.3368 56.4458 22.3479 56.5262C22.3479 56.6321 22.3479 56.6321 22.242 56.7381C20.3293 58.7588 18.5271 60.8812 16.8432 63.0962C16.6313 62.9902 16.6313 62.9902 16.5253 62.9902L16.5168 62.9888Z" fill="black"/>
<path d="M20.1155 62.8825H20.0095L19.9036 62.7765V62.566C21.2797 60.8705 22.7619 59.175 24.244 57.4795L24.35 57.3735C24.456 57.3735 24.456 57.3735 24.456 57.4795L24.5619 57.5855V57.7974C23.0798 59.4929 21.7036 61.1884 20.2215 62.8839L20.1155 62.8825Z" fill="black"/>
<path d="M23.6098 62.9888H23.5038C23.4898 62.9892 23.4759 62.9867 23.4628 62.9815C23.4498 62.9764 23.438 62.9686 23.428 62.9586C23.4181 62.9487 23.4103 62.9369 23.4051 62.9239C23.4 62.9108 23.3975 62.8969 23.3979 62.8828V62.6723C23.7158 62.2485 24.0323 61.7186 24.4561 61.2962L24.5621 61.1902H24.88L24.986 61.2962V61.6126C24.6681 62.0365 24.2442 62.4604 24.0323 62.9888C24.0326 63.0027 24.0302 63.0166 24.0251 63.0295C24.02 63.0424 24.0123 63.0542 24.0026 63.0641C23.9928 63.074 23.9811 63.0818 23.9683 63.0871C23.9554 63.0924 23.9416 63.095 23.9277 63.0948C23.8302 63.0379 23.7219 63.0019 23.6098 62.9888V62.9888Z" fill="black"/>
<path d="M38.2176 40.5458L38.0057 40.4398V40.3352C38.0053 40.3212 38.0077 40.3073 38.0129 40.2942C38.0181 40.2812 38.0259 40.2693 38.0358 40.2594C38.0457 40.2495 38.0576 40.2417 38.0706 40.2365C38.0836 40.2313 38.0976 40.2289 38.1116 40.2293C39.8071 38.7471 41.5026 37.159 42.9819 35.5667L43.0879 35.4607H43.4001V35.7786C43.4005 35.7926 43.3981 35.8066 43.3929 35.8196C43.3877 35.8326 43.3799 35.8445 43.37 35.8544C43.36 35.8643 43.3482 35.8721 43.3352 35.8773C43.3221 35.8825 43.3082 35.885 43.2942 35.8846C41.7061 37.4727 40.012 39.0594 38.2077 40.5472L38.2176 40.5458Z" fill="black"/>
<path d="M40.3358 42.2398L40.1238 42.1338V42.0278C40.1234 42.0138 40.1259 41.9999 40.1311 41.9868C40.1363 41.9738 40.1441 41.962 40.154 41.952C40.1639 41.9421 40.1757 41.9343 40.1888 41.9291C40.2018 41.9239 40.2158 41.9215 40.2298 41.9219C42.4523 39.8025 44.6762 37.6831 47.0047 35.6768L47.1107 35.5708H47.3226C47.3366 35.5705 47.3506 35.5729 47.3636 35.5781C47.3766 35.5833 47.3885 35.5911 47.3984 35.601C47.4083 35.6109 47.4161 35.6228 47.4213 35.6358C47.4265 35.6488 47.4289 35.6628 47.4286 35.6768V35.9947L47.3226 36.1007C44.9941 38.1113 42.7702 40.2292 40.5477 42.3457C40.4417 42.2398 40.4417 42.2398 40.3358 42.2398Z" fill="black"/>
<path d="M43.8243 42.346L43.6123 42.24V42.134C43.612 42.12 43.6144 42.1061 43.6196 42.093C43.6248 42.08 43.6326 42.0682 43.6425 42.0582C43.6524 42.0483 43.6643 42.0405 43.6773 42.0353C43.6903 42.0301 43.7043 42.0277 43.7183 42.0281C45.3064 40.44 47.0005 38.9578 48.6946 37.4771H49.0125C49.0264 37.4767 49.0402 37.4791 49.0532 37.4842C49.0661 37.4893 49.0779 37.497 49.0878 37.5068C49.0977 37.5165 49.1055 37.5282 49.1108 37.5411C49.116 37.5539 49.1186 37.5677 49.1184 37.5816V37.8995L49.0125 38.0055C47.317 39.4877 45.7303 40.9726 44.1422 42.5579C43.9345 42.24 43.9345 42.346 43.8243 42.346Z" fill="black"/>
<path d="M62.1426 77.3861C62.0366 77.3861 62.0366 77.3861 61.9307 77.2801V76.9622L63.6262 74.9517L63.7321 74.8457H63.9441L64.05 74.9517V75.1636L62.3545 77.1742C62.2486 77.3861 62.2486 77.3861 62.1426 77.3861Z" fill="black"/>
<path d="M62.2486 81.1967L62.0366 81.0908V80.8802C63.5066 78.7782 65.0974 76.7633 66.8009 74.8457L66.9069 74.7397H67.2248L67.3308 74.8457V75.1636C65.6353 77.0682 64.0486 79.0802 62.5665 81.0978C62.5669 81.1119 62.5644 81.1258 62.5592 81.1388C62.554 81.1519 62.5462 81.1637 62.5363 81.1736C62.5264 81.1835 62.5145 81.1913 62.5015 81.1965C62.4885 81.2017 62.4745 81.2042 62.4605 81.2038L62.2486 81.1967Z" fill="black"/>
<path d="M65.9546 81.3025L65.7427 81.1965V80.9846L69.3413 76.6455L69.4473 76.5396H69.7652L69.8712 76.6455V76.962L66.2711 81.3025C66.0592 81.1965 66.0592 81.1965 65.9546 81.3025Z" fill="black"/>
<path d="M68.9176 81.4087L68.707 81.3027V81.0908L69.5548 79.9265L69.6607 79.8206H69.8727L69.9786 79.9265V80.1385L69.1309 81.3027C69.1309 81.4087 69.1309 81.4087 68.919 81.4087H68.9176Z" fill="black"/>
<g opacity="0.13">
<path d="M110.204 24.0317H0.743042V27.3153H110.102L110.208 24.0331L110.204 24.0317Z" fill="black"/>
</g>
<path d="M101.311 111.686C107.257 111.686 113.07 109.923 118.015 106.62C122.959 103.316 126.813 98.6206 129.089 93.1269C131.365 87.6332 131.96 81.5881 130.8 75.7559C129.64 69.9237 126.777 64.5665 122.572 60.3616C118.368 56.1568 113.011 53.2932 107.178 52.133C101.346 50.9728 95.3011 51.5681 89.8073 53.8436C84.3135 56.1192 79.6179 59.9727 76.3142 64.9169C73.0105 69.8612 71.2472 75.6741 71.2472 81.6205C71.2446 85.5693 72.0204 89.4799 73.5303 93.1287C75.0403 96.7775 77.2546 100.093 80.0468 102.885C82.839 105.677 86.1542 107.892 89.8029 109.402C93.4516 110.912 97.3622 111.688 101.311 111.686V111.686Z" fill="white"/>
<path d="M101.311 112.32C95.2781 112.32 89.2436 110.52 84.2674 107.134C79.21 103.772 75.2674 98.9814 72.9415 93.3718C70.6039 87.7497 69.9778 81.5626 71.1414 75.5861C72.3057 69.659 75.27 64.1543 79.5044 59.8138C83.799 55.4997 89.2974 52.5845 95.2781 51.4508C101.252 50.2933 107.435 50.9188 113.057 53.2494C119.617 55.9701 125.031 60.8806 128.378 67.1448C131.724 73.4089 132.796 80.6393 131.41 87.6048C130.024 94.5702 126.267 100.84 120.778 105.347C115.289 109.853 108.408 112.317 101.306 112.32H101.311ZM101.311 52.2971C95.5017 52.2833 89.8221 54.0156 85.0091 57.2692C80.136 60.4482 76.4342 65.1066 74.2117 70.3993C71.9878 75.7981 71.4593 81.6207 72.5162 87.3373C73.6554 93.0324 76.4548 98.2629 80.5618 102.37C84.6688 106.476 89.8994 109.275 95.5946 110.414C101.28 111.537 107.17 110.95 112.521 108.726C117.872 106.503 122.444 102.744 125.66 97.9228C128.836 93.0539 130.635 87.4432 130.635 81.6206C130.641 77.7681 129.887 73.9522 128.415 70.3918C126.944 66.8313 124.784 63.5963 122.06 60.8721C119.336 58.1479 116.101 55.9882 112.54 54.5168C108.98 53.0453 105.164 52.291 101.311 52.2971V52.2971Z" fill="black"/>
<path d="M101.311 60.66C101.099 60.66 100.993 60.554 100.783 60.448C100.65 60.3034 100.575 60.1156 100.571 59.9196V55.7897C100.571 55.5792 100.677 55.4732 100.783 55.2613C100.927 55.1286 101.115 55.0533 101.311 55.0493C101.523 55.0493 101.629 55.1553 101.841 55.2613C101.974 55.4059 102.049 55.5937 102.053 55.7897V59.9196C102.053 60.1301 101.947 60.2361 101.841 60.448C101.773 60.5194 101.691 60.5752 101.599 60.6118C101.508 60.6484 101.41 60.6648 101.311 60.66V60.66Z" fill="black"/>
<path d="M101.311 107.98C101.099 107.98 100.993 107.874 100.783 107.768C100.572 107.662 100.571 107.451 100.571 107.239V103.111C100.571 102.899 100.677 102.793 100.783 102.581C100.927 102.448 101.115 102.373 101.311 102.369C101.523 102.369 101.629 102.475 101.841 102.581C101.974 102.726 102.049 102.914 102.053 103.111V107.239C102.053 107.451 101.947 107.556 101.841 107.768C101.677 107.866 101.498 107.938 101.311 107.98V107.98Z" fill="black"/>
<path d="M126.93 82.2568H122.806C122.594 82.2568 122.488 82.1508 122.276 82.0449C122.143 81.8998 122.068 81.7115 122.064 81.515C122.064 81.3031 122.17 81.1971 122.276 80.9852C122.422 80.8535 122.61 80.7788 122.806 80.7747H126.934C127.146 80.7747 127.252 80.8806 127.464 80.9852C127.596 81.1304 127.671 81.3187 127.675 81.515C127.675 81.727 127.57 81.8329 127.464 82.0449C127.358 82.2568 127.142 82.2568 126.93 82.2568Z" fill="black"/>
<path d="M79.6103 82.2568H75.4818C75.2698 82.2568 75.1639 82.1508 74.9519 82.0449C74.8193 81.8998 74.744 81.7115 74.74 81.515C74.74 81.3031 74.846 81.1971 74.9519 80.9852C75.0974 80.8535 75.2856 80.7788 75.4818 80.7747H79.6103C79.8222 80.7747 79.9282 80.8806 80.1387 80.9852C80.2713 81.1302 80.3467 81.3185 80.3507 81.515C80.3507 81.727 80.2447 81.8329 80.1387 82.0449C80.0327 82.2568 79.8222 82.2568 79.6103 82.2568Z" fill="black"/>
<path d="M101.947 81.6207C101.841 81.6207 101.629 81.6207 101.523 81.5147C101.417 81.4087 101.311 81.3028 101.311 81.1968C101.311 81.0908 101.205 80.8803 101.311 80.7729C101.311 80.667 101.417 80.561 101.523 80.455L112.633 69.3411L112.845 69.1292C112.951 69.1292 113.057 69.0232 113.163 69.0232H113.481C113.56 69.0346 113.634 69.0718 113.691 69.1292C113.797 69.2351 113.797 69.2351 113.797 69.3411V69.659C113.804 69.7163 113.798 69.7745 113.78 69.8293C113.762 69.884 113.731 69.934 113.691 69.9755C113.585 70.0815 113.585 70.1874 113.481 70.1874L102.47 81.4087C102.327 81.5403 102.141 81.6156 101.947 81.6207V81.6207Z" fill="black"/>
<path d="M101.311 84.9025C101.96 84.9028 102.595 84.7105 103.135 84.3501C103.675 83.9896 104.096 83.4771 104.345 82.8773C104.593 82.2776 104.658 81.6176 104.532 80.9809C104.405 80.3441 104.093 79.7591 103.634 79.3C103.175 78.8408 102.59 78.5281 101.953 78.4013C101.317 78.2745 100.657 78.3395 100.057 78.5878C99.457 78.8362 98.9444 79.2569 98.5836 79.7967C98.2229 80.3365 98.0304 80.9711 98.0304 81.6203C98.0348 82.4892 98.3819 83.3212 98.9961 83.9358C99.6104 84.5503 100.442 84.8977 101.311 84.9025Z" fill="white"/>
<path d="M101.311 85.5374C100.52 85.5551 99.7414 85.3318 99.0798 84.897C98.4181 84.4622 97.9043 83.8365 97.6065 83.103C97.2886 82.3612 97.1826 81.6208 97.3946 80.8805C97.5357 80.1182 97.9047 79.4166 98.4528 78.8685C99.001 78.3203 99.7025 77.9513 100.465 77.8102C101.205 77.7042 102.053 77.7042 102.687 78.0221C103.417 78.3327 104.042 78.8473 104.487 79.5043C104.919 80.164 105.14 80.9388 105.123 81.7268C105.123 82.2402 105.019 82.7482 104.819 83.221C104.619 83.6937 104.326 84.1215 103.958 84.4791C103.323 85.1149 102.265 85.5374 101.311 85.5374ZM101.311 79.0804C100.817 79.0575 100.33 79.2073 99.935 79.5043C99.5092 79.7894 99.1777 80.1946 98.9827 80.6685C98.7707 81.0924 98.7707 81.6208 98.8767 82.1507C98.9827 82.6805 99.1946 83.103 99.6171 83.4223C99.9753 83.7677 100.411 84.0216 100.889 84.1626C101.417 84.2686 101.947 84.1626 102.371 84.0567C102.827 83.8326 103.225 83.5068 103.535 83.1044C103.818 82.7018 103.966 82.2201 103.959 81.7282C103.959 81.0924 103.642 80.4566 103.219 79.9282C102.583 79.2938 101.947 79.0804 101.313 79.0804H101.311Z" fill="black"/>
<g opacity="0.13">
<path d="M72.0937 76.8562C72.0937 76.6457 72.1997 76.3278 72.1997 76.1159C72.727 73.4791 73.5814 70.9184 74.7429 68.4932C74.637 68.2827 74.425 68.1767 74.2145 68.0693C72.5509 69.946 71.1609 72.0485 70.086 74.3144C69.2423 76.1546 68.5688 78.0681 68.074 80.031L67.7561 81.3026C67.4529 83.9246 67.6325 86.5799 68.2859 89.1372C68.4908 90.1918 68.8101 91.2208 69.2382 92.2061C69.3442 92.524 69.4502 92.8419 69.6621 93.0538C69.9024 93.2901 70.1919 93.4706 70.5099 93.5822C70.8551 93.6882 71.2243 93.6882 71.5695 93.5822C71.9145 93.4703 72.2126 93.2472 72.4173 92.9478C72.6162 92.6694 72.727 92.3376 72.7352 91.9955C72.7352 91.6776 72.6292 91.2538 72.4173 91.0418V91.1478C72.4177 91.1338 72.4152 91.1198 72.41 91.1068C72.4048 91.0937 72.397 91.0819 72.3871 91.072C72.3772 91.0621 72.3654 91.0543 72.3523 91.0491C72.3393 91.0439 72.3253 91.0414 72.3113 91.0418C72.2053 90.7253 72.0994 90.3014 71.9934 89.9835C71.1457 87.6108 70.8209 85.0828 71.0411 82.5728C71.3534 80.4563 71.6699 78.6563 72.0937 76.8562Z" fill="black"/>
</g>
</svg>
