<svg width="133" height="111" viewBox="0 0 133 121" fill="none" xmlns="http://www.w3.org/2000/svg">
<g clip-path="url(#clip0_956_10503)">
<g opacity="0.13">
<path d="M110.233 23.6516H0.691406V26.9376H110.132L110.238 23.653L110.233 23.6516Z" fill="black"/>
</g>
<g opacity="0.13">
<path d="M72.0949 76.5153C72.0949 76.3046 72.2009 75.9865 72.2009 75.7744C72.7286 73.1357 73.5836 70.5731 74.746 68.1461C74.64 67.9354 74.4279 67.8294 74.2172 67.7219C72.5523 69.6 71.1614 71.7041 70.0856 73.9716C69.2413 75.8131 68.5674 77.7281 68.0722 79.6925L67.754 80.965C67.4506 83.5889 67.6303 86.2462 68.2842 88.8054C68.4892 89.8607 68.8088 90.8905 69.2372 91.8765C69.3433 92.1947 69.4493 92.5128 69.6614 92.7249C69.9019 92.9614 70.1916 93.142 70.5098 93.2537C70.8553 93.3598 71.2247 93.3598 71.5703 93.2537C71.9155 93.1417 72.2138 92.9184 72.4186 92.6189C72.6178 92.3402 72.7286 92.0082 72.7368 91.6658C72.7368 91.3477 72.6307 90.9235 72.4186 90.7114V90.8175C72.419 90.8034 72.4166 90.7895 72.4114 90.7764C72.4062 90.7634 72.3984 90.7515 72.3885 90.7416C72.3785 90.7317 72.3667 90.7239 72.3536 90.7187C72.3406 90.7135 72.3266 90.711 72.3126 90.7114C72.2066 90.3947 72.1005 89.9705 71.9945 89.6524C71.1461 87.2778 70.8211 84.748 71.0415 82.2362C71.3539 80.1181 71.6707 78.3167 72.0949 76.5153Z" fill="black"/>
</g>
<path d="M80.3591 81.1771C80.3591 81.3892 80.253 81.4953 80.147 81.7074C80.0409 81.9195 79.8288 81.9195 79.6168 81.9195H75.4852C75.3724 81.9181 75.2622 81.8853 75.167 81.8247C75.1034 81.7894 75.037 81.7484 74.9549 81.7074C74.8226 81.5621 74.7477 81.3736 74.7443 81.1771C74.7443 80.965 74.8489 80.859 74.9549 80.6483C75.0168 80.5891 75.0886 80.5412 75.167 80.5069C75.267 80.4613 75.3753 80.4368 75.4852 80.4348H79.6168C79.8288 80.4348 79.9349 80.5409 80.147 80.6469C80.2803 80.7917 80.3557 80.9804 80.3591 81.1771V81.1771Z" fill="white"/>
<path d="M102.076 55.435V59.5665C102.076 59.7772 101.97 59.8833 101.864 60.0953C101.797 60.1667 101.714 60.2226 101.623 60.2592C101.532 60.2958 101.434 60.3122 101.335 60.3074C101.123 60.3074 101.017 60.2014 100.805 60.0953C100.673 59.9506 100.597 59.7627 100.593 59.5665V55.435C100.593 55.2229 100.699 55.1168 100.805 54.9047C100.95 54.772 101.139 54.6966 101.335 54.6926C101.546 54.6926 101.652 54.7987 101.864 54.9047C101.997 55.0499 102.072 55.2383 102.076 55.435V55.435Z" fill="white"/>
<path d="M110.127 71.5369V73.2972L109.492 73.9448L104.453 79.0803C104.475 79.1086 104.495 79.1369 104.512 79.1652C104.944 79.8254 105.166 80.6007 105.149 81.3893C105.148 81.9029 105.045 82.4112 104.845 82.8843C104.645 83.3573 104.352 83.7856 103.984 84.1437C103.347 84.78 102.287 85.2027 101.335 85.2027C100.548 85.2048 99.777 84.9848 99.1097 84.5679C98.6197 84.2353 98.207 83.8013 97.8994 83.2953C97.7961 83.1252 97.7049 82.948 97.6265 82.7651C97.5968 82.6944 97.5685 82.6237 97.543 82.553C97.4509 82.3137 97.3841 82.0653 97.3437 81.8121C97.2737 81.3878 97.2978 80.9534 97.4144 80.5395C97.4663 80.1946 97.5737 79.8604 97.7325 79.5498C97.924 79.1696 98.1746 78.8221 98.4748 78.5204C98.6974 78.2975 98.9462 78.1023 99.2157 77.9393C99.6032 77.6955 100.036 77.5329 100.488 77.4613C101.231 77.3553 102.078 77.3553 102.714 77.6734C103 77.7963 103.271 77.9509 103.523 78.1344L110.127 71.5369Z" fill="white"/>
<path d="M110.658 16.2356C110.445 16.1309 110.339 16.0249 110.127 16.0249H0.687201C0.491351 16.0294 0.303645 16.1041 0.158382 16.2356C0.0523357 16.4477 -0.0537109 16.5537 -0.0537109 16.7658V92.5128C-0.0497115 92.7094 0.0256728 92.8979 0.158382 93.043C0.370476 93.1491 0.476522 93.2537 0.687201 93.2537H74.5183C74.408 93.0086 74.3019 92.7617 74.2001 92.5128C74.1125 92.3017 74.0276 92.0896 73.9456 91.8765H1.43377V17.5025H109.492V53.096C109.705 53.1582 109.917 53.2218 110.127 53.2869C110.376 53.3642 110.624 53.4457 110.87 53.5315V16.7686C110.866 16.571 110.791 16.3815 110.658 16.2356V16.2356ZM109.492 72.1716V73.9448L110.127 73.2972L110.87 72.5407V70.7945L109.492 72.1716Z" fill="white"/>
<path d="M0.691406 23.544H110.132V13.5869H0.691406V23.544Z" fill="#BEE8FF"/>
<path d="M110.233 24.1822H0.69138C0.479287 24.1822 0.37324 24.0761 0.162561 23.9701C0.0298514 23.825 -0.0455329 23.6365 -0.0495324 23.4399V13.4814C-0.0564974 13.424 -0.0505935 13.3658 -0.0322495 13.311C-0.0139055 13.2563 0.0164175 13.2063 0.0565143 13.1647C0.0673828 13.0845 0.104119 13.01 0.161147 12.9526C0.267193 12.8465 0.267193 12.8465 0.37324 12.8465C0.479287 12.8465 0.585333 12.7405 0.69138 12.7405H110.132C110.189 12.7334 110.248 12.7392 110.303 12.7576C110.358 12.7759 110.408 12.8063 110.45 12.8465C110.53 12.8577 110.605 12.8949 110.662 12.9526C110.768 13.0586 110.768 13.0586 110.768 13.1647C110.768 13.2707 110.872 13.3767 110.872 13.4814V23.4399C110.872 23.652 110.768 23.758 110.662 23.9701C110.62 24.0444 110.557 24.1044 110.48 24.1422C110.404 24.1801 110.318 24.194 110.233 24.1822ZM1.43371 22.805H109.491V14.2237H1.43371V22.805Z" fill="white"/>
<path d="M26.3292 43.8869H12.4512C12.3936 43.894 12.3352 43.8882 12.2801 43.8698C12.2251 43.8515 12.1749 43.8211 12.133 43.7809C12.0526 43.7697 11.9781 43.7325 11.921 43.6748C11.8149 43.5688 11.8149 43.5688 11.8149 43.4628C11.8149 43.3567 11.7089 43.2507 11.7089 43.1446V33.8224C11.7089 33.6103 11.8149 33.5043 11.921 33.2922C12.0661 33.1595 12.2546 33.0841 12.4512 33.0801H26.3292C26.5413 33.0801 26.6473 33.1861 26.858 33.2922C26.9907 33.4373 27.0661 33.6258 27.0701 33.8224V43.1446C27.0701 43.3567 26.964 43.4628 26.858 43.6748C26.6473 43.7809 26.5413 43.8869 26.3292 43.8869ZM13.0861 42.4037H25.5868V34.5633H13.0861V42.4037Z" fill="white"/>
<path d="M50.378 43.8869H36.5C36.4424 43.894 36.384 43.8882 36.329 43.8698C36.2739 43.8515 36.2237 43.8211 36.1819 43.7809C36.1015 43.7697 36.027 43.7325 35.9698 43.6748C35.8637 43.5688 35.8637 43.5688 35.8637 43.4628C35.8637 43.3567 35.7577 43.2507 35.7577 43.1446V33.8224C35.7577 33.6103 35.8637 33.5043 35.9698 33.2922C36.1149 33.1595 36.3034 33.0841 36.5 33.0801H50.6947C50.7751 33.0912 50.8496 33.1285 50.9068 33.1861C51.0129 33.2922 51.0129 33.2922 51.0129 33.3982C51.0129 33.5043 51.1189 33.6103 51.1189 33.7164V43.0386C51.1189 43.2507 51.0129 43.3567 50.9068 43.5688C50.8573 43.666 50.7815 43.7474 50.688 43.8036C50.5945 43.8599 50.4871 43.8888 50.378 43.8869V43.8869ZM37.1349 42.4037H49.6357V34.5633H37.1349V42.4037Z" fill="white"/>
<path d="M74.4249 43.8869H60.5469C60.4896 43.894 60.4314 43.8881 60.3766 43.8698C60.3218 43.8514 60.2718 43.8211 60.2302 43.7809C60.1498 43.7697 60.0753 43.7325 60.0181 43.6748C59.9121 43.5688 59.9121 43.5688 59.9121 43.4628C59.9121 43.3567 59.806 43.2507 59.806 43.1446V33.8224C59.806 33.6103 59.9121 33.5043 60.0181 33.2922C60.1628 33.1597 60.3508 33.0843 60.5469 33.0801H74.4249C74.637 33.0801 74.7431 33.1861 74.9551 33.2922C75.0879 33.4373 75.1632 33.6258 75.1672 33.8224V43.1446C75.1672 43.3567 75.0612 43.4628 74.9551 43.6748C74.81 43.8076 74.6215 43.8829 74.4249 43.8869V43.8869ZM61.1832 42.4037H73.684V34.5633H61.1832V42.4037Z" fill="white"/>
<path d="M98.4735 43.8871H84.5955C84.5379 43.8942 84.4795 43.8883 84.4245 43.87C84.3694 43.8516 84.3192 43.8213 84.2774 43.781C84.1975 43.7696 84.1235 43.7324 84.0667 43.675C83.9606 43.569 83.9606 43.569 83.9606 43.4629C83.9606 43.3569 83.8546 43.2508 83.8546 43.1448V33.8226C83.8475 33.765 83.8534 33.7066 83.8717 33.6515C83.8901 33.5965 83.9204 33.5462 83.9606 33.5044C84.0212 33.4494 84.059 33.3738 84.0667 33.2923C84.1727 33.1863 84.1727 33.1863 84.2774 33.1863H98.4735C98.6856 33.1863 98.7916 33.2923 99.0037 33.3984C99.1364 33.5435 99.2118 33.732 99.2158 33.9286V43.2508C99.2158 43.4629 99.1098 43.569 99.0037 43.781C98.8977 43.781 98.6856 43.8871 98.4735 43.8871ZM85.2332 42.4039H97.7326V34.5635H85.2332V42.4039Z" fill="white"/>
<path d="M26.3292 64.6511H12.4512C12.2391 64.6511 12.133 64.5451 11.921 64.4391C11.7882 64.2939 11.7129 64.1054 11.7089 63.9088V54.5866C11.7089 54.3745 11.8149 54.2685 11.921 54.0564C12.0666 53.9246 12.2548 53.8498 12.4512 53.8457H26.3292C26.5413 53.8457 26.6473 53.9518 26.858 54.0564C26.9907 54.2015 27.0661 54.39 27.0701 54.5866V63.9088C27.0701 64.1209 26.964 64.227 26.858 64.4391C26.6473 64.5493 26.5413 64.6511 26.3292 64.6511ZM13.0861 63.2768H25.5868V55.3289H13.0861V63.2768Z" fill="white"/>
<path d="M50.378 64.6512H36.5C36.2879 64.6512 36.1819 64.5451 35.9698 64.4391C35.8371 64.294 35.7617 64.1055 35.7577 63.9089V54.5867C35.7577 54.3746 35.8637 54.2685 35.9698 54.0564C36.1154 53.9247 36.3037 53.8499 36.5 53.8458H50.378C50.4354 53.8386 50.4936 53.8444 50.5484 53.8627C50.6032 53.8811 50.6532 53.9115 50.6947 53.9518C50.7749 53.9627 50.8494 53.9994 50.9068 54.0564C51.0129 54.1625 51.0129 54.1625 51.0129 54.2685C51.0129 54.3746 51.1189 54.4806 51.1189 54.5867V63.9089C51.126 63.9664 51.1201 64.0249 51.1018 64.0799C51.0834 64.135 51.0531 64.1852 51.0129 64.227C50.9523 64.282 50.9145 64.3577 50.9068 64.4391C50.8008 64.5451 50.8008 64.5451 50.6947 64.5451C50.6532 64.5853 50.6032 64.6157 50.5484 64.6341C50.4936 64.6524 50.4353 64.6583 50.378 64.6512V64.6512ZM37.1349 63.2768H49.6357V55.329H37.1349V63.2768Z" fill="white"/>
<path d="M74.4249 64.6511H60.5469C60.3363 64.6511 60.2302 64.5451 60.0181 64.4391C59.8854 64.2939 59.81 64.1054 59.806 63.9088V54.5866C59.806 54.3745 59.9121 54.2685 60.0181 54.0564C60.1634 53.9249 60.3511 53.8502 60.5469 53.8457H74.4249C74.637 53.8457 74.7431 53.9518 74.9551 54.0564C75.0879 54.2015 75.1632 54.39 75.1672 54.5866V63.9088C75.1672 64.1209 75.0612 64.227 74.9551 64.4391C74.81 64.5718 74.6215 64.6471 74.4249 64.6511ZM61.1832 63.2768H73.684V55.3289H61.1832V63.2768Z" fill="white"/>
<path d="M88.9376 54.6926C88.5087 54.8934 88.0846 55.1055 87.6651 55.3289C86.8365 55.7682 86.0258 56.2494 85.2331 56.7726L85.021 56.9139C84.8796 57.0059 84.7382 57.1006 84.5968 57.1967V54.6926H88.9376Z" fill="white"/>
<path d="M84.5969 53.9514C84.4909 53.9514 84.3848 54.0561 84.2788 54.0561C84.1727 54.0561 84.1727 54.0561 84.0667 54.1621C84.0101 54.2178 83.973 54.2901 83.9606 54.3685C83.9204 54.4103 83.8901 54.4606 83.8717 54.5156C83.8534 54.5707 83.8475 54.6291 83.8546 54.6867V57.7168C84.0997 57.5377 84.3471 57.3628 84.5969 57.1922C84.7383 57.0975 84.8797 57.0027 85.0211 56.9094L85.2332 56.768V55.3286H87.668C88.0866 55.1052 88.5108 54.8931 88.9406 54.6923C89.5062 54.4246 90.0788 54.1776 90.6586 53.9514H84.5969Z" fill="white"/>
<path d="M26.3292 83.2969H12.4512C12.2391 83.2969 12.133 83.1908 11.921 83.0848C11.7882 82.9396 11.7129 82.7512 11.7089 82.5545V73.2323C11.7089 73.0202 11.8149 72.9142 11.921 72.7021C12.0661 72.5694 12.2546 72.494 12.4512 72.49H26.3292C26.5413 72.49 26.6473 72.596 26.858 72.7021C26.9907 72.8472 27.0661 73.0357 27.0701 73.2323V82.5545C27.0701 82.7666 26.964 82.8727 26.858 83.0848C26.6473 83.1908 26.5413 83.2969 26.3292 83.2969ZM13.0861 81.8136H25.5868V73.9732H13.0861V81.8136Z" fill="white"/>
<path d="M50.378 83.2969H36.5C36.2879 83.2969 36.1819 83.1909 35.9698 83.0848C35.8371 82.9397 35.7617 82.7512 35.7577 82.5546V73.2324C35.7577 73.0203 35.8637 72.9142 35.9698 72.7021C36.1149 72.5694 36.3034 72.494 36.5 72.49H50.378C50.4354 72.4829 50.4936 72.4887 50.5484 72.507C50.6032 72.5254 50.6532 72.5558 50.6947 72.5961C50.7751 72.6072 50.8496 72.6445 50.9068 72.7021C51.0129 72.8082 51.0129 72.8082 51.0129 72.9142C51.0129 73.0203 51.1189 73.1263 51.1189 73.2324V82.5546C51.126 82.6122 51.1201 82.6706 51.1018 82.7256C51.0834 82.7807 51.0531 82.8309 51.0129 82.8727C51.0017 82.9531 50.9644 83.0276 50.9068 83.0848C50.8008 83.1909 50.8008 83.1909 50.6947 83.1909C50.5887 83.1909 50.484 83.2969 50.378 83.2969ZM37.1349 81.8137H49.6357V73.9733H37.1349V81.8137Z" fill="white"/>
<path d="M74.9551 80.6485C74.8491 80.8592 74.7445 80.9652 74.7445 81.1773C74.7479 81.3738 74.8228 81.5623 74.9551 81.7076C75.0372 81.7486 75.1036 81.7896 75.1672 81.8249V80.5085C75.0889 80.5424 75.0171 80.5898 74.9551 80.6485ZM60.5484 72.49C60.3517 72.494 60.1633 72.5694 60.0181 72.7021C59.9121 72.9142 59.806 73.0202 59.806 73.2323V82.5545C59.81 82.7512 59.8854 82.9396 60.0181 83.0848C60.2302 83.1908 60.3363 83.2969 60.5484 83.2969H72.058C72.041 83.0494 72.0268 82.802 72.0184 82.5545C72.0099 82.3071 72 82.0611 71.9972 81.8136H61.1832V73.9732H72.919C72.9831 73.7263 73.0496 73.4793 73.1184 73.2323C73.1872 72.9853 73.2612 72.7379 73.3404 72.49H60.5484Z" fill="white"/>
<path d="M98.4748 78.5288V82.5543H97.543C97.4509 82.315 97.3841 82.0667 97.3437 81.8134C97.2737 81.3892 97.2978 80.9547 97.4144 80.5409C97.4663 80.1959 97.5737 79.8617 97.7325 79.5511C97.9247 79.1734 98.1752 78.8284 98.4748 78.5288Z" fill="white"/>
<path d="M98.475 78.5291C98.1748 78.8309 97.9242 79.1783 97.7327 79.5585V81.8208H97.3439C97.3843 82.0741 97.4511 82.3224 97.5432 82.5617C97.5687 82.6324 97.597 82.7031 97.6267 82.7738C97.7051 82.9567 97.7963 83.1339 97.8996 83.3041H98.475C98.5578 83.302 98.6399 83.2896 98.7196 83.2673C98.8116 83.2356 98.9063 83.2124 99.0024 83.198C99.1085 82.9859 99.2145 82.8799 99.2145 82.6678V77.948C98.9455 78.1112 98.6972 78.3063 98.475 78.5291Z" fill="white"/>
<path d="M76.5446 19.202C76.3325 19.202 76.2264 19.0959 76.0143 18.9899C75.8814 18.8455 75.8059 18.6574 75.8022 18.4611V9.34956C75.8022 9.13888 75.9083 9.03283 76.0143 8.82074C76.1595 8.68803 76.3479 8.61264 76.5446 8.60864C76.7567 8.60864 76.8627 8.71469 77.0748 8.82074C77.2068 8.96565 77.2817 9.15358 77.2855 9.34956V18.4611C77.2855 18.6732 77.1809 18.7792 77.0748 18.9899C76.9688 19.2006 76.7567 19.202 76.5446 19.202Z" fill="white"/>
<path d="M34.3802 19.202C34.1681 19.202 34.0621 19.0959 33.85 18.9899C33.718 18.845 33.6431 18.6571 33.6393 18.4611V9.34956C33.6393 9.13888 33.7453 9.03283 33.85 8.82074C33.9951 8.68803 34.1836 8.61264 34.3802 8.60864C34.5923 8.60864 34.6983 8.71469 34.9104 8.82074C35.0429 8.96545 35.1183 9.15339 35.1225 9.34956V18.4611C35.1225 18.6732 35.0165 18.7792 34.9104 18.9899C34.8476 19.0677 34.7659 19.1281 34.673 19.1652C34.5802 19.2023 34.4793 19.215 34.3802 19.202V19.202Z" fill="white"/>
<path d="M37.9817 37.4241L37.771 37.318V37.212C37.7708 37.1981 37.7734 37.1843 37.7787 37.1714C37.784 37.1585 37.7918 37.1468 37.8017 37.1371C37.8116 37.1273 37.8234 37.1196 37.8364 37.1145C37.8493 37.1094 37.8631 37.107 37.8771 37.1074C38.5299 36.3482 39.2389 35.6393 39.998 34.9864C40.0552 34.9288 40.1297 34.8915 40.2101 34.8804C40.3161 34.8804 40.3161 34.8804 40.3161 34.9864C40.3738 35.0436 40.411 35.1181 40.4222 35.1985C40.4222 35.3046 40.4222 35.3046 40.3161 35.4106C39.557 36.0635 38.848 36.7724 38.1952 37.5315C38.0891 37.4255 38.0891 37.4255 37.9831 37.4255L37.9817 37.4241Z" fill="white"/>
<path d="M47.5176 41.5549L47.3055 41.4489V41.3443C47.3051 41.3302 47.3075 41.3163 47.3127 41.3032C47.3179 41.2902 47.3257 41.2783 47.3357 41.2684C47.3456 41.2585 47.3574 41.2507 47.3705 41.2455C47.3835 41.2403 47.3975 41.2378 47.4115 41.2382L48.8947 39.755C48.9519 39.6973 49.0264 39.6601 49.1068 39.6489C49.2115 39.6489 49.2115 39.6489 49.2115 39.755L49.3175 39.861C49.3175 39.9671 49.3175 39.9671 49.2115 40.0717L47.7296 41.5549H47.5176Z" fill="white"/>
<path d="M14.0406 57.6589H13.9346L13.8285 57.5529V57.4468C13.8281 57.4328 13.8306 57.4188 13.8358 57.4058C13.841 57.3927 13.8488 57.3809 13.8587 57.371C13.8686 57.361 13.8805 57.3532 13.8935 57.348C13.9066 57.3429 13.9205 57.3404 13.9346 57.3408C14.3588 56.9166 14.6755 56.4924 15.0997 56.0682C15.1568 56.0106 15.2314 55.9733 15.3118 55.9622C15.4178 55.9622 15.4178 55.9622 15.4178 56.0682C15.4754 56.1254 15.5127 56.1999 15.5239 56.2803C15.5239 56.3863 15.5239 56.3863 15.4178 56.4924L14.2527 57.6589C14.1481 57.5529 14.1481 57.5529 14.042 57.6589H14.0406Z" fill="white"/>
<path d="M14.0406 60.9434H13.9346L13.8285 60.8374V60.7313C13.8281 60.7173 13.8306 60.7033 13.8358 60.6903C13.841 60.6772 13.8488 60.6654 13.8587 60.6555C13.8686 60.6455 13.8805 60.6377 13.8935 60.6326C13.9066 60.6274 13.9205 60.6249 13.9346 60.6253C15.3118 59.036 16.689 57.4467 18.1764 55.9592H18.6006V56.3834C17.1174 57.8667 15.7402 59.4559 14.3588 61.0495C14.2527 60.9448 14.2527 60.9448 14.042 60.9448L14.0406 60.9434Z" fill="white"/>
<path d="M16.4767 62.6376H16.3735L16.2675 62.5316V62.3209C17.9642 60.0953 19.8688 57.9772 21.7819 55.9581C21.8391 55.9005 21.9136 55.8632 21.994 55.8521C22.1 55.8521 22.1 55.8521 22.2061 55.9581C22.2637 56.0153 22.301 56.0898 22.3121 56.1702C22.3121 56.2762 22.3121 56.2762 22.2061 56.3823C20.292 58.4044 18.4884 60.5285 16.8033 62.7451C16.5913 62.639 16.5913 62.639 16.4852 62.639L16.4767 62.6376Z" fill="white"/>
<path d="M20.0782 62.5313H19.9721L19.8661 62.4253V62.2146C21.2433 60.5178 22.7265 58.8211 24.2098 57.1244L24.3158 57.0183C24.4219 57.0183 24.4219 57.0183 24.4219 57.1244L24.5279 57.2304V57.4425C23.0447 59.1392 21.6675 60.836 20.1842 62.5327L20.0782 62.5313Z" fill="white"/>
<path d="M23.5749 62.6371H23.4689C23.4548 62.6375 23.4409 62.635 23.4278 62.6298C23.4148 62.6247 23.403 62.6169 23.393 62.6069C23.3831 62.597 23.3753 62.5852 23.3701 62.5721C23.3649 62.5591 23.3624 62.5451 23.3628 62.5311V62.3204C23.681 61.8962 23.9977 61.366 24.4219 60.9432L24.5279 60.8372H24.8461L24.9521 60.9432V61.2599C24.634 61.6841 24.2098 62.1083 23.9977 62.6371C23.9981 62.651 23.9956 62.6649 23.9905 62.6778C23.9854 62.6908 23.9778 62.7025 23.968 62.7125C23.9582 62.7224 23.9465 62.7302 23.9337 62.7355C23.9208 62.7407 23.907 62.7434 23.8931 62.7432C23.7955 62.6863 23.6871 62.6502 23.5749 62.6371V62.6371Z" fill="white"/>
<path d="M38.1938 40.1779L37.9817 40.0719V39.9673C37.9813 39.9532 37.9838 39.9393 37.989 39.9262C37.9942 39.9132 38.002 39.9013 38.0119 39.8914C38.0218 39.8815 38.0337 39.8737 38.0467 39.8685C38.0598 39.8633 38.0737 39.8608 38.0878 39.8612C39.7845 38.378 41.4813 36.7887 42.9617 35.1952L43.0677 35.0891H43.3802V35.4073C43.3806 35.4213 43.3781 35.4352 43.3729 35.4483C43.3677 35.4613 43.3599 35.4732 43.35 35.4831C43.3401 35.493 43.3282 35.5008 43.3152 35.506C43.3022 35.5112 43.2882 35.5137 43.2742 35.5133C41.6849 37.1026 39.9895 38.6905 38.1839 40.1793L38.1938 40.1779Z" fill="white"/>
<path d="M40.3132 41.8731L40.1011 41.7671V41.661C40.1007 41.647 40.1032 41.633 40.1084 41.62C40.1136 41.607 40.1214 41.5951 40.1313 41.5852C40.1412 41.5753 40.1531 41.5675 40.1661 41.5623C40.1792 41.5571 40.1931 41.5546 40.2072 41.555C42.4313 39.4341 44.6569 37.3131 46.9871 35.3053L47.0931 35.1993H47.3052C47.3193 35.1989 47.3332 35.2013 47.3463 35.2065C47.3593 35.2117 47.3711 35.2195 47.3811 35.2295C47.391 35.2394 47.3988 35.2512 47.404 35.2643C47.4092 35.2773 47.4117 35.2913 47.4113 35.3053V35.6234L47.3052 35.7295C44.975 37.7415 42.7495 39.8611 40.5253 41.9792C40.4193 41.8731 40.4193 41.8731 40.3132 41.8731Z" fill="white"/>
<path d="M43.8047 41.9795L43.5926 41.8734V41.7674C43.5922 41.7533 43.5947 41.7394 43.5998 41.7263C43.605 41.7133 43.6128 41.7014 43.6228 41.6915C43.6327 41.6816 43.6445 41.6738 43.6576 41.6686C43.6706 41.6634 43.6846 41.6609 43.6986 41.6613C45.2879 40.072 46.9832 38.5888 48.6786 37.107H48.9967C49.0106 37.1066 49.0245 37.109 49.0374 37.1141C49.0504 37.1192 49.0621 37.1269 49.072 37.1367C49.0819 37.1465 49.0898 37.1581 49.0951 37.171C49.1003 37.1839 49.1029 37.1977 49.1028 37.2116V37.5297L48.9967 37.6358C47.3 39.119 45.7121 40.6051 44.1228 42.1916C43.915 41.8734 43.915 41.9795 43.8047 41.9795Z" fill="white"/>
<path d="M62.1362 77.0455C62.0301 77.0455 62.0301 77.0455 61.9241 76.9394V76.6213L63.6208 74.6092L63.7269 74.5032H63.939L64.045 74.6092V74.8213L62.3483 76.8334C62.2422 77.0455 62.2422 77.0455 62.1362 77.0455Z" fill="white"/>
<path d="M62.2424 80.8592L62.0303 80.7532V80.5425C63.5013 78.4389 65.0933 76.4225 66.7981 74.5035L66.9042 74.3975H67.2223L67.3284 74.5035V74.8216C65.6316 76.7277 64.0437 78.7411 62.5605 80.7603C62.5609 80.7743 62.5584 80.7883 62.5532 80.8013C62.548 80.8143 62.5402 80.8262 62.5303 80.8361C62.5204 80.846 62.5085 80.8538 62.4955 80.859C62.4825 80.8642 62.4685 80.8667 62.4545 80.8663L62.2424 80.8592Z" fill="white"/>
<path d="M65.9511 80.9654L65.739 80.8594V80.6473L69.3404 76.305L69.4464 76.199H69.7645L69.8706 76.305V76.6217L66.2678 80.9654C66.0557 80.8594 66.0557 80.8594 65.9511 80.9654Z" fill="white"/>
<path d="M68.9162 81.071L68.7056 80.9649V80.7528L69.5539 79.5877L69.66 79.4817H69.8721L69.9781 79.5877V79.7998L69.1298 80.9649C69.1298 81.071 69.1298 81.071 68.9177 81.071H68.9162Z" fill="white"/>
<path d="M80.3591 81.1771C80.3591 81.3892 80.253 81.4953 80.147 81.7074C80.0409 81.9195 79.8288 81.9195 79.6168 81.9195H75.4852C75.3724 81.9181 75.2622 81.8853 75.167 81.8247C75.1034 81.7894 75.037 81.7484 74.9549 81.7074C74.8226 81.5621 74.7477 81.3736 74.7443 81.1771C74.7443 80.965 74.8489 80.859 74.9549 80.6483C75.0168 80.5891 75.0886 80.5412 75.167 80.5069C75.267 80.4613 75.3753 80.4368 75.4852 80.4348H79.6168C79.8288 80.4348 79.9349 80.5409 80.147 80.6469C80.2803 80.7917 80.3557 80.9804 80.3591 81.1771V81.1771Z" fill="white"/>
<path d="M102.076 55.435V59.5665C102.076 59.7772 101.97 59.8833 101.864 60.0953C101.797 60.1667 101.714 60.2226 101.623 60.2592C101.532 60.2958 101.434 60.3122 101.335 60.3074C101.123 60.3074 101.017 60.2014 100.805 60.0953C100.673 59.9506 100.597 59.7627 100.593 59.5665V55.435C100.593 55.2229 100.699 55.1168 100.805 54.9047C100.95 54.772 101.139 54.6966 101.335 54.6926C101.546 54.6926 101.652 54.7987 101.864 54.9047C101.997 55.0499 102.072 55.2383 102.076 55.435V55.435Z" fill="white"/>
<path d="M102.076 102.789V106.921C102.076 107.133 101.97 107.239 101.864 107.45C101.7 107.548 101.522 107.62 101.335 107.662C101.123 107.662 101.017 107.556 100.805 107.45C100.593 107.344 100.593 107.133 100.593 106.921V102.789C100.593 102.577 100.699 102.471 100.805 102.259C100.95 102.127 101.139 102.051 101.335 102.047C101.546 102.047 101.652 102.153 101.864 102.259C101.997 102.404 102.072 102.593 102.076 102.789V102.789Z" fill="white"/>
<path d="M127.714 81.1769C127.714 81.389 127.608 81.4951 127.502 81.7072C127.396 81.9193 127.184 81.9193 126.972 81.9193H122.844C122.632 81.9193 122.526 81.8132 122.316 81.7072C122.183 81.562 122.108 81.3736 122.104 81.1769C122.104 80.9649 122.21 80.8588 122.316 80.6481C122.46 80.5154 122.648 80.44 122.844 80.436H126.976C127.188 80.436 127.294 80.5421 127.506 80.6481C127.638 80.7932 127.712 80.9812 127.714 81.1769V81.1769Z" fill="white"/>
<path d="M104.512 79.1651C104.494 79.1368 104.474 79.1085 104.453 79.0802L104.068 79.4733L103.541 80.0106L102.5 81.0711C102.355 81.2038 102.167 81.2792 101.97 81.2832C101.864 81.2832 101.652 81.2832 101.546 81.1771C101.44 81.0711 101.335 80.965 101.335 80.859C101.335 80.7529 101.229 80.5423 101.335 80.4348C101.335 80.3287 101.441 80.2227 101.546 80.1167L102.588 79.0746L103.127 78.5359L103.521 78.1414C103.27 77.9579 102.998 77.8033 102.712 77.6804C102.076 77.3623 101.229 77.3623 100.487 77.4683C100.035 77.5399 99.6018 77.7025 99.2143 77.9462C98.9448 78.1093 98.696 78.3044 98.4734 78.5274C98.1731 78.8291 97.9226 79.1766 97.7311 79.5567C97.5723 79.8673 97.4649 80.2016 97.4129 80.5465C97.2964 80.9604 97.2723 81.3948 97.3422 81.8191C97.3827 82.0723 97.4495 82.3206 97.5416 82.56C97.567 82.6307 97.5953 82.7014 97.625 82.7721C97.7035 82.955 97.7947 83.1321 97.8979 83.3023C98.2055 83.8083 98.6183 84.2423 99.1082 84.5749C99.7756 84.9917 100.547 85.2118 101.334 85.2097C102.287 85.2097 103.346 84.7855 103.982 84.1507C104.35 83.7925 104.643 83.3643 104.843 82.8913C105.043 82.4182 105.147 81.9099 105.147 81.3963C105.166 80.6055 104.945 79.8275 104.512 79.1651V79.1651ZM110.875 52.7368C110.629 52.6539 110.382 52.5752 110.133 52.5007C109.922 52.4357 109.709 52.3734 109.498 52.3126C102.602 50.3869 95.2458 50.9675 88.7369 53.9514C88.2298 54.1842 87.7311 54.4312 87.2409 54.6923C86.8544 54.8959 86.4746 55.108 86.1013 55.3286C85.81 55.4992 85.522 55.675 85.2374 55.856C85.0238 55.9974 84.8132 56.1289 84.6025 56.2703C84.3527 56.4372 84.1052 56.6087 83.8602 56.785C79.8592 59.6403 76.6176 63.431 74.4178 67.8266C73.6665 69.3264 73.044 70.8874 72.557 72.4926C72.4806 72.7386 72.4085 72.9861 72.3407 73.2349C72.2728 73.4838 72.2078 73.7308 72.1455 73.9758C71.5849 76.2259 71.2869 78.5333 71.2576 80.8519C71.2576 80.8519 71.2576 80.8519 71.2576 80.8519C71.2576 80.9943 71.2576 81.1356 71.2576 81.2761C71.2576 81.4528 71.2576 81.6296 71.2576 81.8063C71.2576 82.0538 71.2675 82.3012 71.2788 82.5472C71.2901 82.7933 71.3014 83.0435 71.3184 83.2896C71.5097 86.2248 72.1324 89.1158 73.1664 91.8695C73.2456 92.0825 73.3281 92.2946 73.4139 92.5057C73.5128 92.7546 73.616 93.0016 73.7235 93.2467C75.7188 97.8505 78.8337 101.882 82.7847 104.975C86.7356 108.068 91.3973 110.124 96.3455 110.956C101.294 111.788 106.371 111.37 111.117 109.739C115.862 108.108 120.124 105.316 123.515 101.618C126.906 97.9197 129.319 93.4322 130.533 88.5638C131.748 83.6953 131.726 78.6004 130.469 73.7427C129.212 68.885 126.761 64.4186 123.338 60.7499C119.915 57.0811 115.629 54.3266 110.87 52.7368H110.875ZM112.572 108.404C107.22 110.657 101.314 111.248 95.6214 110.101C91.0141 109.182 86.694 107.172 83.0225 104.241C79.351 101.31 76.4349 97.5417 74.5181 93.2523C74.4079 93.0072 74.3018 92.7602 74.2 92.5114C74.1123 92.3002 74.0275 92.0881 73.9455 91.8751C73.3336 90.294 72.8564 88.6641 72.5188 87.0026C72.2913 85.7771 72.1373 84.5391 72.0579 83.2952C72.0409 83.0478 72.0268 82.8003 72.0183 82.5529C72.0098 82.3055 71.9999 82.0594 71.9971 81.812C71.9522 79.1694 72.2603 76.5326 72.9133 73.9716C72.9774 73.7246 73.0439 73.4777 73.1127 73.2307C73.1815 72.9837 73.2555 72.7363 73.3347 72.4884C73.5901 71.6683 73.8833 70.8562 74.2142 70.0521C76.2573 65.1867 79.5532 60.8614 83.8545 57.721C84.0996 57.5419 84.347 57.3671 84.5968 57.1964C84.7382 57.1017 84.8796 57.007 85.021 56.9137L85.2331 56.7723C86.0259 56.2463 86.8375 55.7636 87.6679 55.3244C88.0865 55.101 88.5106 54.8889 88.9405 54.6881C89.5061 54.4204 90.0787 54.1734 90.6585 53.9472C94.0601 52.6105 97.6833 51.9274 101.338 51.9337C104.097 51.937 106.842 52.3282 109.492 53.096C109.704 53.1582 109.917 53.2218 110.127 53.2869C110.376 53.3642 110.623 53.4457 110.87 53.5315C116.658 55.5056 121.683 59.2446 125.236 64.2225C128.79 69.2004 130.694 75.167 130.68 81.2832C130.68 87.1101 128.879 92.7249 125.701 97.5974C122.492 102.424 117.919 106.186 112.565 108.404H112.572ZM113.525 68.6721H113.207C113.101 68.6721 112.995 68.7782 112.889 68.7782L112.677 68.9902L103.528 78.1385C103.277 77.955 103.006 77.8004 102.719 77.6776C102.083 77.3594 101.236 77.3594 100.494 77.4655C100.042 77.5371 99.6089 77.6997 99.2214 77.9434C98.9518 78.1065 98.703 78.3016 98.4805 78.5246C98.1802 78.8263 97.9296 79.1737 97.7381 79.5539C97.5794 79.8645 97.4719 80.1987 97.42 80.5437C97.3035 80.9576 97.2793 81.392 97.3493 81.8162C97.3897 82.0695 97.4565 82.3178 97.5487 82.5571C97.5741 82.6278 97.6024 82.6985 97.6321 82.7692C97.7106 82.9521 97.8017 83.1293 97.905 83.2995C98.2126 83.8055 98.6254 84.2395 99.1153 84.572C99.7826 84.9889 100.554 85.209 101.341 85.2069C102.294 85.2069 103.353 84.7827 103.989 84.1478C104.357 83.7897 104.65 83.3615 104.85 82.8884C105.05 82.4154 105.154 81.9071 105.154 81.3935C105.171 80.6049 104.95 79.8296 104.518 79.1693C104.499 79.141 104.479 79.1128 104.459 79.0845L109.498 73.949L110.133 73.3014L110.875 72.5449L113.512 69.8414C113.618 69.8414 113.618 69.7354 113.724 69.6294C113.764 69.5878 113.795 69.5378 113.813 69.483C113.832 69.4282 113.837 69.37 113.83 69.3126V68.9945C113.83 68.8884 113.83 68.8884 113.724 68.7824C113.667 68.7248 113.593 68.6875 113.512 68.6763L113.525 68.6721ZM104.519 79.1608C104.501 79.1326 104.481 79.1043 104.46 79.076L104.075 79.4691L103.548 80.0064L102.507 81.0668C102.362 81.1995 102.174 81.2749 101.977 81.2789C101.871 81.2789 101.659 81.2789 101.553 81.1729C101.447 81.0668 101.342 80.9608 101.342 80.8547C101.342 80.7487 101.236 80.538 101.342 80.4306C101.342 80.3245 101.448 80.2185 101.553 80.1124L102.595 79.0703L103.134 78.5316L103.528 78.1371C103.277 77.9536 103.006 77.799 102.719 77.6762C102.083 77.358 101.236 77.358 100.494 77.4641C100.042 77.5357 99.6089 77.6982 99.2214 77.942C98.9518 78.1051 98.703 78.3002 98.4805 78.5231C98.1802 78.8249 97.9296 79.1723 97.7381 79.5525C97.5794 79.8631 97.4719 80.1973 97.42 80.5423C97.3035 80.9561 97.2793 81.3906 97.3493 81.8148C97.3897 82.0681 97.4565 82.3164 97.5487 82.5557C97.5741 82.6264 97.6024 82.6971 97.6321 82.7678C97.7106 82.9507 97.8017 83.1279 97.905 83.2981C98.2126 83.8041 98.6254 84.238 99.1153 84.5706C99.7826 84.9875 100.554 85.2076 101.341 85.2055C102.294 85.2055 103.353 84.7813 103.989 84.1464C104.357 83.7883 104.65 83.3601 104.85 82.887C105.05 82.414 105.154 81.9057 105.154 81.392C105.17 80.6019 104.946 79.8255 104.512 79.1651L104.519 79.1608Z" fill="white"/>
<path d="M126.866 64.2269C123.5 59.1646 118.704 55.2185 113.088 52.8912C112.358 52.5867 111.616 52.3119 110.864 52.0669C110.618 51.9858 110.371 51.9085 110.122 51.835C109.911 51.7713 109.698 51.7091 109.487 51.6497C104.862 50.367 100.002 50.1758 95.2908 51.0912C92.4099 51.6421 89.6236 52.6055 87.0177 53.9517C86.5624 54.1845 86.1137 54.4315 85.6716 54.6926C85.3068 54.9047 84.9467 55.1257 84.5914 55.3557C84.3411 55.5141 84.0936 55.6795 83.849 55.8478C82.2949 56.9154 80.8428 58.1243 79.511 59.459C76.7676 62.2676 74.5669 65.5589 73.0195 69.1672V69.1672C72.5586 70.2495 72.1593 71.357 71.8233 72.4844C71.7498 72.7304 71.6801 72.9778 71.6141 73.2267C71.5462 73.4727 71.484 73.7202 71.4246 73.9676C71.3209 74.389 71.2267 74.8132 71.1418 75.2402C70.7215 77.4038 70.532 79.6058 70.5762 81.8094C70.5762 82.0568 70.589 82.3043 70.6003 82.5503C70.6116 82.7963 70.6257 83.0452 70.6427 83.2926C70.8435 86.2256 71.4625 89.1147 72.4808 91.8725C72.5232 91.9899 72.5685 92.1072 72.6137 92.2246C72.6491 92.3193 72.6859 92.4126 72.724 92.5074C72.7933 92.6841 72.8654 92.8609 72.9375 93.0376C72.9672 93.1083 72.9955 93.179 73.028 93.2483C75.366 98.7733 79.2765 103.489 84.2732 106.81C89.2518 110.203 95.2908 112 101.33 112C106.893 112.005 112.353 110.498 117.127 107.64C121.9 104.782 125.806 100.68 128.429 95.774C131.052 90.8675 132.292 85.3405 132.016 79.7839C131.741 74.2273 129.961 68.85 126.866 64.2269V64.2269ZM112.565 108.404C107.213 110.657 101.307 111.248 95.6146 110.101C91.0085 109.181 86.6898 107.171 83.0196 104.24C79.3494 101.308 76.4344 97.5411 74.5183 93.2525C74.408 93.0075 74.302 92.7605 74.2002 92.5116C74.1125 92.3005 74.0277 92.0884 73.9457 91.8754C73.3338 90.2943 72.8565 88.6643 72.519 87.0029C72.2914 85.7774 72.1375 84.5394 72.0581 83.2955C72.0411 83.048 72.0269 82.8006 72.0185 82.5531C72.01 82.3057 72.0001 82.0597 71.9973 81.8122C71.9524 79.1696 72.2605 76.5329 72.9135 73.9719C72.9776 73.7249 73.0441 73.4779 73.1129 73.2309C73.1817 72.984 73.2557 72.7365 73.3349 72.4886C73.5903 71.6685 73.8835 70.8564 74.2143 70.0524C76.2575 65.1869 79.5534 60.8617 83.8547 57.7213C84.0998 57.5422 84.3472 57.3673 84.597 57.1967C84.7384 57.1019 84.8798 57.0072 85.0212 56.9139L85.2333 56.7725C86.0261 56.2465 86.8377 55.7639 87.6681 55.3246C88.0867 55.1012 88.5108 54.8891 88.9407 54.6883C89.5063 54.4206 90.0789 54.1736 90.6586 53.9474C94.0602 52.6107 97.6834 51.9276 101.338 51.9339C104.097 51.9372 106.842 52.3284 109.493 53.0962C109.705 53.1584 109.917 53.2221 110.127 53.2871C110.376 53.3644 110.624 53.4459 110.87 53.5317C116.659 55.5059 121.683 59.2448 125.237 64.2227C128.79 69.2007 130.694 75.1672 130.681 81.2834C130.681 87.1103 128.879 92.7251 125.701 97.5976C122.492 102.424 117.919 106.186 112.565 108.404V108.404Z" fill="white"/>
<path d="M102.076 55.435V59.5665C102.076 59.7772 101.97 59.8833 101.864 60.0953C101.797 60.1667 101.714 60.2226 101.623 60.2592C101.532 60.2958 101.434 60.3122 101.335 60.3074C101.123 60.3074 101.017 60.2014 100.805 60.0953C100.673 59.9506 100.597 59.7627 100.593 59.5665V55.435C100.593 55.2229 100.699 55.1168 100.805 54.9047C100.95 54.772 101.139 54.6966 101.335 54.6926C101.546 54.6926 101.652 54.7987 101.864 54.9047C101.997 55.0499 102.072 55.2383 102.076 55.435V55.435Z" fill="white"/>
<path d="M102.076 102.789V106.921C102.076 107.133 101.97 107.239 101.864 107.45C101.7 107.548 101.522 107.62 101.335 107.662C101.123 107.662 101.017 107.556 100.805 107.45C100.593 107.344 100.593 107.133 100.593 106.921V102.789C100.593 102.577 100.699 102.471 100.805 102.259C100.95 102.127 101.139 102.051 101.335 102.047C101.546 102.047 101.652 102.153 101.864 102.259C101.997 102.404 102.072 102.593 102.076 102.789V102.789Z" fill="white"/>
<path d="M127.714 81.1769C127.714 81.389 127.608 81.4951 127.502 81.7072C127.396 81.9193 127.184 81.9193 126.972 81.9193H122.844C122.632 81.9193 122.526 81.8132 122.316 81.7072C122.183 81.562 122.108 81.3736 122.104 81.1769C122.104 80.9649 122.21 80.8588 122.316 80.6481C122.46 80.5154 122.648 80.44 122.844 80.436H126.976C127.188 80.436 127.294 80.5421 127.506 80.6481C127.638 80.7932 127.712 80.9812 127.714 81.1769V81.1769Z" fill="white"/>
<path d="M80.3591 81.1771C80.3591 81.3892 80.253 81.4953 80.147 81.7074C80.0409 81.9195 79.8288 81.9195 79.6168 81.9195H75.4852C75.3724 81.9181 75.2622 81.8853 75.167 81.8247C75.1034 81.7894 75.037 81.7484 74.9549 81.7074C74.8226 81.5621 74.7477 81.3736 74.7443 81.1771C74.7443 80.965 74.8489 80.859 74.9549 80.6483C75.0168 80.5891 75.0886 80.5412 75.167 80.5069C75.267 80.4613 75.3753 80.4368 75.4852 80.4348H79.6168C79.8288 80.4348 79.9349 80.5409 80.147 80.6469C80.2803 80.7917 80.3557 80.9804 80.3591 81.1771V81.1771Z" fill="white"/>
<path d="M113.836 68.9944V69.3125C113.843 69.3699 113.837 69.4281 113.819 69.4829C113.801 69.5377 113.77 69.5877 113.73 69.6292C113.624 69.7353 113.624 69.8413 113.518 69.8413L110.87 72.5406L110.127 73.297L109.492 73.9446L104.453 79.0801L104.069 79.4732L103.541 80.0105L102.5 81.0709C102.355 81.2037 102.167 81.279 101.97 81.283C101.864 81.283 101.652 81.283 101.546 81.177C101.44 81.0709 101.335 80.9649 101.335 80.8589C101.335 80.7528 101.229 80.5421 101.335 80.4347C101.335 80.3286 101.441 80.2226 101.546 80.1165L102.588 79.0744L103.127 78.5357L103.521 78.1412L112.67 68.9929L112.882 68.7809C112.988 68.7809 113.094 68.6748 113.2 68.6748H113.512C113.593 68.686 113.667 68.7232 113.724 68.7809C113.836 68.8883 113.836 68.8883 113.836 68.9944Z" fill="white"/>
<path d="M101.334 84.5678C101.984 84.5681 102.619 84.3757 103.159 84.0149C103.699 83.6542 104.121 83.1413 104.369 82.5411C104.618 81.9409 104.684 81.2805 104.557 80.6432C104.43 80.006 104.118 79.4206 103.658 78.9611C103.199 78.5016 102.614 78.1886 101.977 78.0618C101.339 77.9349 100.679 77.9999 100.079 78.2484C99.4784 78.497 98.9653 78.918 98.6043 79.4582C98.2433 79.9984 98.0507 80.6335 98.0507 81.2832C98.0551 82.1527 98.4024 82.9853 99.0171 83.6003C99.6318 84.2153 100.464 84.5629 101.334 84.5678Z" fill="white"/>
<path d="M104.512 79.165C104.494 79.1367 104.474 79.1085 104.453 79.0802C104.197 78.718 103.882 78.4012 103.521 78.1427C103.27 77.9592 102.999 77.8046 102.713 77.6818C102.076 77.3636 101.229 77.3636 100.487 77.4697C100.035 77.5413 99.6019 77.7038 99.2144 77.9476C98.9449 78.1107 98.6961 78.3058 98.4735 78.5287C98.1732 78.8305 97.9227 79.1779 97.7312 79.5581C97.5724 79.8687 97.465 80.2029 97.413 80.5479C97.2965 80.9617 97.2724 81.3962 97.3423 81.8204C97.3828 82.0737 97.4496 82.322 97.5417 82.5613C97.5671 82.632 97.5954 82.7027 97.6251 82.7734C97.7036 82.9563 97.7948 83.1335 97.898 83.3037C98.2056 83.8097 98.6184 84.2436 99.1084 84.5762C99.7757 84.9931 100.547 85.2132 101.334 85.2111C102.287 85.2111 103.346 84.7869 103.982 84.152C104.35 83.7939 104.643 83.3657 104.843 82.8926C105.043 82.4196 105.147 81.9113 105.147 81.3976C105.167 80.6063 104.945 79.8278 104.512 79.165V79.165ZM102.392 83.7194C101.967 83.8254 101.439 83.9315 100.908 83.8254C100.431 83.6845 99.9941 83.4303 99.6358 83.0845C99.4691 82.9607 99.3255 82.8085 99.2116 82.6348C99.0531 82.3843 98.9451 82.1052 98.8934 81.8133C98.7874 81.2831 98.7874 80.7529 98.9995 80.3301C99.0558 80.1856 99.1269 80.0472 99.2116 79.9172C99.4106 79.6229 99.6622 79.3679 99.9539 79.165C100.349 78.8672 100.837 78.7171 101.331 78.7408C101.771 78.737 102.204 78.8528 102.584 79.0759C102.823 79.2173 103.043 79.3893 103.237 79.5878C103.346 79.7229 103.446 79.8646 103.537 80.012C103.809 80.4219 103.962 80.899 103.979 81.3906C103.987 81.8829 103.839 82.3651 103.555 82.7678C103.246 83.1698 102.849 83.4954 102.394 83.7194H102.392Z" fill="white"/>
</g>
<defs>
<clipPath id="clip0_956_10503">
<rect width="132.447" height="120.775" fill="white"/>
</clipPath>
</defs>
</svg>
