<?xml version="1.0" encoding="utf-8"?>
<!-- Generator: Adobe Illustrator 23.0.6, SVG Export Plug-In . SVG Version: 6.00 Build 0)  -->
<svg width="132.447" height="120.775"   version="1.1" id="Layer_1" xmlns="http://www.w3.org/2000/svg" xmlns:xlink="http://www.w3.org/1999/xlink" x="0px" y="0px"
	 viewBox="0 0 1080 1080" style="enable-background:new 0 0 1080 1080;" xml:space="preserve">
<style type="text/css">
	.st0{opacity:0.129;}
	.st1{opacity:0.13;}
	.st2{fill:#FFFFFF;}
	.st3{fill:#BEE8FF;}
	.st4{fill:#C5E6FB;}
</style>
<g class="st0">
	<path d="M739.8,913.2c-5.2-3.7-10.5-6.7-16.5-9c-0.7-2.2-2.2-4.5-3-7.5v0.7c-3-6.7-5.2-13.5-7.5-20.2c-0.7-2.2-3.7-14.2-4.5-15.7
		c0-3-1.5-6-3.7-8.2c-2.2-2.2-5.2-3-8.2-3s-6,1.5-8.2,3c-2.2,3-3.7,6-3.7,9c0,0.7,0,0.7-0.7,1.5c-0.7,0.7-1.5,3-3,5.2
		c-0.7,0.7-1.5,1.5-2.2,3c-6,6.7-1.5,2.2-10.5,8.2c-2.2,1.5-5.2,3-8.2,4.5l-1.5,0.7c-7.5,2.2-12,3.7-15,4.5
		c-15.7,0-33.7,0.7-48.7,1.5c-32.2,0-64.4,3.7-96.7,3.7c-32.2,2.2-65.2,3-97.4,4.5c-32.2,3-64.4,3-96.7,0.7c-30-3-56.2-6-86.9-11.2
		c-8.2-1.5-16.5-4.5-24.7-7.5c-2.2-1.5-4.5-3-7.5-3c-3-0.7-5.2-0.7-8.2,0c-3,0.7-5.2,2.2-7.5,4.5c-2.2,2.2-3,5.2-3.7,8.2
		c-0.7,3,0,6,1.5,8.2c1.5,3,3,5.2,6,6.7c18,9,37.5,15.7,57.7,19.5c3,0.7,17.2,3,22.5,3.7c1.5,0,3.7,0.7,5.2,0.7
		c26.2,4.5,51.7,6.7,77.9,7.5c24.7,0.7,48.7-2.2,73.4-3.7c48.7-2.2,97.4-3.7,146.1-8.2c0.7,1.5,1.5,3,3,4.5c6,5.2,15,3,22.5,3.7
		l-3-0.7c17.2,0.7,34.5,0,51.7-1.5c19.5-1.5,39-2.2,58.4-1.5c3.7,0,6.7,0.7,10.5,0.7c1.5,1.5,3,3,5.2,3.7c2.2,0.7,4.5,1.5,6.7,1.5
		c2.2,0,4.5-1.5,6.7-3c1.5,0,3.7,0.7,5.2,0.7h1.5C738.3,937.2,749.5,924.5,739.8,913.2z"/>
</g>
<g>
	<g class="st0">
		<path d="M855.2,895.2c-0.7-1.5-1.5-3-2.2-4.5c-1.5-2.2-3-4.5-5.2-6c-3.7-3.7-7.5-7.5-11.2-11.2c-18.7-18-39-34.5-58.4-51.7
			c-22.5-19.5-44.2-39.7-67.4-57.7c-14.2-13.5-32.2,6-16.5,18l0.7,0.7c-2.2,2.2-3.7,6-4.5,9c0,3.7,0.7,6.7,2.2,9.7
			c0.7,0.7,0.7,1.5,1.5,2.2c-0.7,1.5-0.7,3-1.5,3.7c-1.5,11.2,0.7,22.5,4.5,33c-0.7,5.2,0,10.5,0.7,15.7c3,13.5,8.2,25.5,16.5,36
			c15,21,59.2,63.7,82.4,33c1.5-2.2,2.2-4.5,2.2-6.7c2.2,2.2,5.2,3.7,9,3.7c3,0.7,6.7,0,9.7-1.5c3-0.7,5.2-3,6.7-5.2
			c1.5-2.2,3-5.2,3.7-7.5c0.7,0.7,2.2,1.5,3,2.2l0.7,0.7c1.5,0.7,3,1.5,3.7,1.5c3,0.7,5.2,0.7,8.2,0c3-0.7,5.2-2.2,7.5-3.7
			c2.2-2.2,3.7-4.5,4.5-6.7C855.9,901.2,855.9,898.2,855.2,895.2z"/>
	</g>
	<g class="st0">
		<path d="M572,421c-2.2-7.5-6.7-15-12.7-21c-6.7-7.5-14.2-15.7-21-23.2c-30-31.5-61.4-60.7-91.4-92.2
			c-10.5-11.2-20.2-23.2-30.7-34.5c-3.7-3-6.7-8.2-11.2-9.7c-3-1.5-6-1.5-8.2-0.7c-2.2,0.7-5.2,3-6.7,5.2c-0.7,2.2-1.5,3.7-1.5,6
			s0.7,4.5,1.5,6c0,0.7,0.7,0.7,1.5,1.5c0.7,0.7,1.5,1.5,2.2,3l0.7,0.7c33,41.2,71.2,76.4,106.4,115.4c13.5,15,36.7,39.7,44.2,47.2
			c0,0,0.7,0.7,0.7,1.5v0.7c-0.7,0-1.5,0-2.2,0.7c-17.2-1.5-34.5-1.5-51.7-0.7c-0.7,0-2.2,0-3,0c-3-0.7-6-0.7-9,0.7
			c-4.5,0-8.2,1.5-12,3c-3,1.5-5.2,3.7-6.7,6c-1.5,3-1.5,6-0.7,9c3,27,9,86.9,9.7,127.4c2.2,21,2.2,42.7,1.5,64.4c0,2.2,0,4.5,0,6.7
			l0,0c0,0.7,0,1.5,0,1.5c-17.2,3-34.5,5.2-51.7,5.2c-15.7-1.5-31.5-2.2-47.2-1.5c-3,0-6,0.7-9,1.5c-3,1.5-5.2,3.7-7.5,6
			c-1.5,2.2-2.2,5.2-1.5,8.2c0,3,1.5,5.2,3,7.5c1.5,2.2,3.7,3.7,6.7,5.2c3,0.7,5.2,0.7,8.2,0h2.2c8.2-0.7,15.7-0.7,24,0
			c12,1.5,24,2.2,36,1.5c11.2-0.7,21.7-1.5,33-3.7c4.5-0.7,9-1.5,13.5-2.2c4.5,0,9-0.7,13.5-3s7.5-5.2,10.5-9c1.5-0.7,2.2-1.5,3-3
			c1.5-6.7,1.5-13.5,0.7-20.2c0-7.5-0.7-14.2-1.5-21.7c0-3-0.7-5.2-2.2-7.5c0-1.5,0-2.2,0-3.7c-1.5-48-5.2-95.9-7.5-144.6
			c0-2.2,0-5.2,0-7.5c8.2,0,17.2,0,25.5,0c0.7,0,1.5,0,2.2,0c1.5,0,3,0,5.2,0c6,0.7,11.2,0,17.2-0.7c1.5,0,2.2-0.7,3-1.5
			c5.2-1.5,10.5-3.7,14.2-7.5c3-3,4.5-6.7,6-10.5C572.7,430,572.7,425.5,572,421z"/>
	</g>
	<path class="st2" d="M326.2,819.9c-0.6,2.9-1.2,5.8-1.9,8.8c5.7-7.8,11.4-15.4,17.2-23.1c0.5-2.7,1-5.4,1.5-8.1
		C337.4,804.9,331.7,812.3,326.2,819.9z M716.6,933.9c1.5,0,2.9,0.1,4.4,0.1c3.3,0.1,6.5,0.1,9.8,0.2c0.2,0.1,0.4,0.1,0.6,0.2
		c9.3,2.7,18.6,4.2,28.2,4.8c3.3,0.2,6.7,0.3,10.1,0.3c22.5,0,44.2-5.2,65.2-16.5c20.2-10.5,37.5-25.5,50.2-43.5
		c19.5-28.5,27.7-63.7,34.5-94.4c45-214.3,36.7-433.1,24.7-639.1c-0.8-2.2-1.5-3.7-2.2-4.5c-1.5-0.8-3-1.5-4.5-1.5
		c-188.1-7.5-382.1-7.5-576.2,1.5c-1.5,0.8-3.8,0.8-4.5,2.2c-0.8,1.5-1.5,3-1.5,4.5c-1,43.3-1,87.3-0.6,130.6c0,3,0.1,6,0.1,9.1
		c0,3.6,0.1,7.1,0.1,10.6c0.1,13,0.3,25.8,0.4,38.5c1.2,104.5,2.4,205.8-5.1,306c-0.1,1.9-0.3,3.8-0.4,5.8c-0.2,2.1-0.3,4.2-0.5,6.4
		c-2.8,34.6-6.7,69-12.1,103.4c-0.3,2-0.6,4-1,6.1c-0.3,2.1-0.7,4.3-1,6.4c4.1,0,8.2,0,12.3,0c0.4-2.1,0.7-4.3,1-6.4
		c0.3-2,0.6-4,0.9-6c4.2-27.8,7.5-55.7,10.1-83.5c0.6-6.4,1.2-12.9,1.7-19.4c0.1-1.1,0.2-2.3,0.3-3.4c0.1-1,0.2-2,0.2-3
		c0.2-1.8,0.3-3.7,0.4-5.5c7.7-102.8,6.7-205.3,5.9-305.9c0-17.7-0.1-35.6-0.1-53.6c0-3.5,0-7.1-0.1-10.6c0-3.1,0-6.1,0-9.2
		c-0.1-36.5-0.2-73.2,0.2-109.4c189.6-8.2,379.1-9,563.4-1.5c12,203,19.5,419.6-24.7,630.1c-6.8,29.2-14.2,62.9-33,89.9
		c-5.4,7.9-11.8,15.1-18.9,21.5c-6.9,6.2-14.6,11.7-22.8,16.1c-2.4,1.3-4.9,2.6-7.4,3.7c-4.3,2-8.6,3.7-13.1,5.1
		c-2.2,0.7-4.4,1.4-6.6,1.9c-2.5,0.7-5,1.3-7.5,1.8c-16.7,3.5-33.9,3.9-50.6,0.9h0c0,0-0.1,0-0.1,0c-1.2-0.2-2.4-0.4-3.6-0.7
		c-3.2-0.7-6.4-1.5-9.5-2.4c0,0-0.6,0-1.2,0h-0.3c-2.7-0.1-5.4-0.1-8.1-0.1"/>
	<path class="st2" d="M201.8,793.3c-10.5,11.2-19.5,23.2-27.7,36l-0.8,0.8c0,0,0,0-0.8,0s-0.8,0-1.5,0s-0.8-0.8-0.8-1.5
		c0-0.7,0-0.7,0-1.5c8.2-12.7,18-25.5,28.5-36.7c0.8-0.8,0.8-0.8,1.5-0.8s0.8,0,1.5,0.8s0.8,0.8,0.8,1.5S202.6,792.6,201.8,793.3z"
		/>
	<path class="st2" d="M201.8,790.3c-0.8-0.8-0.8-0.8-1.5-0.8s-0.8,0-1.5,0.8c-10.5,11.2-20.2,24-28.5,36.7c0,0.8,0,0.8,0,1.5
		c0,0.8,0,1.5,0.8,1.5s0.8,0,1.5,0s0.8,0,0.8,0l0.8-0.8c8.2-12.7,17.2-24.7,27.7-36c0.8-0.8,0.8-0.8,0.8-1.5
		S202.6,791.1,201.8,790.3z M398.1,791.1h-2.2c-0.8,0-0.8,0.8-0.8,0.8L325,897.7c1.7,0.1,3.4,0.2,5.1,0.3l68.9-103.9v-2.2
		C398.9,791.1,398.1,791.1,398.1,791.1z M349.4,794.8c0-0.8,0-1.5-0.8-1.5h-2.2l-0.8,0.8c-0.9,1.1-1.8,2.3-2.6,3.4
		c-0.5,2.7-1,5.4-1.5,8.1c2.4-3.1,4.7-6.2,7.1-9.3C349.4,795.6,349.4,795.6,349.4,794.8z M200.3,789.6c-0.8,0-0.8,0-1.5,0.8
		c-10.5,11.2-20.2,24-28.5,36.7c0,0.8,0,0.8,0,1.5c0,0.8,0,1.5,0.8,1.5s0.8,0,1.5,0s0.8,0,0.8,0l0.8-0.8c8.2-12.7,17.2-24.7,27.7-36
		c0.8-0.8,0.8-0.8,0.8-1.5s0-0.8-0.8-1.5S201.1,789.6,200.3,789.6z M171.1,830.1c0.8,0,0.8,0,1.5,0s0.8,0,0.8,0l0.8-0.8
		c8.2-12.7,17.2-24.7,27.7-36c0.8-0.8,0.8-0.8,0.8-1.5s0-0.8-0.8-1.5s-0.8-0.8-1.5-0.8s-0.8,0-1.5,0.8c-10.5,11.2-20.2,24-28.5,36.7
		c0,0.8,0,0.8,0,1.5C170.4,829.3,170.4,830.1,171.1,830.1z M398.1,791.1h-2.2c-0.8,0-0.8,0.8-0.8,0.8L325,897.7
		c1.7,0.1,3.4,0.2,5.1,0.3l68.9-103.9v-2.2C398.9,791.1,398.1,791.1,398.1,791.1z"/>
	<path class="st2" d="M756.3,933.5c-0.8,0-1.7,0-2.5,0C754.6,933.4,755.4,933.4,756.3,933.5z"/>
	<path class="st2" d="M761.5,928.2c-1.5-0.7-3-1.5-4.5-1.5h-3c-2.4-0.2-4.7-0.9-6.8-2c-0.1-0.1-0.2-0.1-0.3-0.2
		c-1.2-0.6-2.3-1.3-3.4-2.2c-1.6-1.2-3.2-2.6-4.6-4.1c0,0,0,0-0.1-0.1c-3.3-3.4-6.2-7.4-8.3-10.9c-0.7-1.1-1.3-2.2-1.8-3.2
		c-23.2-41.2-32.2-88.4-26.2-135.6v-3c-0.8-0.8-0.8-1.5-1.5-2.2c-0.8-0.8-1.5-0.8-2.2-1.5s-1.5-0.8-2.2-0.8c-0.7,0-1.4,0-2.1,0
		c-130.1-1.7-242.2-2.7-344.7-2.6c-4.1,0-8.2,0-12.2,0c-68.6,0.1-132.9,0.7-195.4,1.9c-1.5,0-3,0-3.8,0.8s-1.5,2.2-2.2,3
		c-17.2,39-8.2,79.4,2.2,106.4c15,38.2,48.7,62.2,98.9,68.9c54.7,4.5,110.1,6,164.8,6c55.4,0,110.1-1.5,165.6-3
		c60.7-1.5,124.4-3.8,186.6-3h3.8c0.5,0,1.2-0.1,1.8-0.3c1.1-0.3,2.2-1,2.6-1.9c0.6-1.2,1.2-2.4,1.4-3.7c0.1-0.3,0.1-0.6,0.1-0.8
		C763,931.2,763,929.7,761.5,928.2z M335.3,771c4.1,0,8.2,0,12.3,0c101.3-0.3,212.1,0.4,339.7,2.2c-2.5,26.3-0.6,52.6,5.5,77.8
		c5,20.7,12.9,40.7,23.8,59.3c2.5,4,4.9,7.6,7.6,11.1c1.4,1.8,2.8,3.6,4.4,5.4c-43.8,0-88,0.9-131.2,2.1
		c-10.8,0.3-21.5,0.6-32.1,0.9c-2.4,0.1-4.8,0.1-7.3,0.2c-34.9,1-70.4,1.9-106.1,2.4c-70.7,1-142.6,0.2-214.1-5.6
		c-23.4-2.9-52.8-11.8-72.8-34.7c-6.3-7.2-11.7-15.8-15.6-26c-9-24-17.2-59.2-3.7-92.9C206.2,771.9,268.8,771.2,335.3,771z"/>
	<path class="st3" d="M313.5,424.7c-3,74.9-3.7,147.6-1.5,223.3c52.4,0,105.6,6,158.1-1.5c-2.2-72.7-4.5-145.4-5.2-219.5
		c26.2,0,52.4,0,78.7-0.7c-50.2-58.4-100.4-116.9-153.6-176.1c-52.4,55.4-102.6,113.1-151.3,173.1
		C263.3,424,288.7,424.7,313.5,424.7z"/>
	<path class="st2" d="M408.6,657c-16.5,0-33.7-0.7-50.2-1.5c-15.7-0.7-31.5-0.7-47.2-1.5c-1.5,0-3-0.7-4.5-1.5
		c-1.5-1.5-1.5-3-2.2-4.5c-2.2-71.2-1.5-142.4,1.5-217.3c-10.5,0-21,0-31.5,0c-12.7,0-25.5,0-37.5,0c-1.5,0-2.2,0-3-0.7
		c-0.7-0.7-1.5-1.5-2.2-2.2c-0.7-0.7-0.7-2.2-0.7-3.7s0.7-2.2,1.5-3c49.4-60.7,100.4-119.1,151.3-173.8c0.7-0.7,1.5-1.5,2.2-1.5
		c0.7,0,1.5-0.7,2.2-0.7c0.7,0,1.5,0,2.2,0.7c0.7,0,1.5,0.7,2.2,1.5c53.9,59.2,104.9,118.4,153.6,176.1c0.7,0.7,1.5,2.2,1.5,3
		c0,1.5,0,2.2-0.7,3.7c-0.7,0.7-1.5,2.2-2.2,3c-0.7,0.7-2.2,0.7-3,0.7c-24,0.7-48.7,0.7-72.7,0.7c0.7,62.9,2.2,128.9,5.2,212.8
		c0,1.5-0.7,3-1.5,4.5c-0.7,1.5-2.2,2.2-3.7,2.2C449.8,655.5,429.6,657,408.6,657z M318,642c13.5,0,27.7,0.7,41.2,1.5
		c34.5,2.2,69.7,1.5,104.1-1.5c-3-83.9-4.5-150.6-5.2-214.3c0-0.7,0-1.5,0.7-2.2c0-0.7,0.7-1.5,1.5-2.2c0.7-0.7,1.5-0.7,2.2-1.5
		c0.7,0,1.5-0.7,2.2-0.7c21.7,0,43.5,0,65.2,0c-45-52.4-91.4-106.4-140.1-160.3C343.4,310.1,297,363.3,252,418.7
		c8.2,0,16.5,0,24.7,0c12.7,0,25.5,0,37.5,0c0.7,0,1.5,0,2.2,0.7c0.7,0,1.5,0.7,2.2,1.5c0.7,0.7,0.7,1.5,1.5,2.2
		c0,0.7,0.7,1.5,0.7,2.2C316.5,499.6,315.7,570.8,318,642L318,642z"/>
	<path class="st2" d="M840.2,301.1L840.2,301.1c-101.9-3-205.3-3-306.4-1.5c-0.7,0-1.5,0-2.2-0.7c-0.7,0-1.5-0.7-2.2-1.5
		c-0.7-0.7-0.7-1.5-1.5-2.2c0-0.7-0.7-1.5-0.7-2.2c0-0.7,0-1.5,0.7-2.2c0-0.7,0.7-1.5,1.5-2.2c0.7-0.7,1.5-0.7,2.2-1.5
		c0.7,0,1.5-0.7,2.2-0.7c101.9-2.2,205.3-1.5,307.2,1.5c0.7,0,1.5,0,2.2,0.7c0.7,0,1.5,0.7,2.2,1.5c0.7,0.7,0.7,1.5,1.5,2.2
		c0,0.7,0.7,1.5,0.7,2.2c0,1.5-0.7,3-2.2,4.5C843.9,300.3,841.7,301.1,840.2,301.1z"/>
	<path class="st2" d="M831.9,415.7L831.9,415.7l-230.8-2.2c-0.7,0-1.5,0-2.2-0.7c-0.7,0-1.5-0.7-2.2-1.5c-0.7-0.7-0.7-1.5-1.5-2.2
		c0-0.7-0.7-1.5-0.7-2.2c0-1.5,0.7-3,2.2-4.5c1.5-1.5,3-1.5,4.5-1.5l0,0l230.8,2.2c1.5,0,3,0.7,4.5,2.2c1.5,1.5,1.5,3,1.5,4.5
		c0,1.5-0.7,3-2.2,4.5C834.9,415,833.4,415.7,831.9,415.7z"/>
	<path class="st2" d="M527.7,532.6c-1.5,0-3-0.7-4.5-1.5c-1.5-1.5-1.5-3-2.2-4.5c0-0.7,0-1.5,0.7-2.2c0-0.7,0.7-1.5,1.5-2.2
		c0.7-0.7,1.5-0.7,2.2-1.5c0.7,0,1.5-0.7,2.2-0.7c99.6-3.7,200-5.2,299.7-4.5c1.5,0,3,0.7,4.5,2.2c1.5,1.5,1.5,3,1.5,4.5
		s-0.7,3-1.5,4.5c-1.5,1.5-3,1.5-4.5,1.5C727.8,527.4,626.6,528.9,527.7,532.6L527.7,532.6z"/>
	<path class="st2" d="M524.7,639.7c-1.5,0-3-0.7-4.5-1.5c-1.5-0.7-1.5-3-2.2-4.5c0-0.7,0-1.5,0.7-2.2c0-0.7,0.7-1.5,1.5-2.2
		c0.7-0.7,1.5-0.7,2.2-1.5c0.7,0,1.5-0.7,2.2-0.7l303.4-5.2c1.5,0,3,0.7,4.5,1.5c1.5,1.5,2.2,3,2.2,4.5s-0.7,3-1.5,4.5
		c-1.5,1.5-3,2.2-4.5,2.2L524.7,639.7L524.7,639.7z"/>
	<path class="st2" d="M202.6,791.8c0,0.8,0,0.8-0.8,1.5c-10.5,11.2-19.5,23.2-27.7,36l-0.8,0.8c0,0,0,0-0.8,0s-0.8,0-1.5,0
		s-0.8-0.8-0.8-1.5c0-0.7,0-0.7,0-1.5c8.2-12.7,18-25.5,28.5-36.7c0.8-0.8,0.8-0.8,1.5-0.8s0.8,0,1.5,0.8S202.6,791.1,202.6,791.8z"
		/>
	<path class="st2" d="M251.3,793.3c0,0.8,0,0.8-0.8,1.5c-25,25.7-47.4,54-67.3,83.6c-1.6,2.3-3.1,4.7-4.6,7l-0.8,0.8h-0.8
		c-0.8,0-0.8,0-1.5,0c0,0-0.8,0-0.8-0.8v-2.2c1.1-1.6,2.2-3.2,3.3-4.9c20.8-30.4,43.8-59.5,69.4-86.6c0.8-0.8,0.8-0.8,1.5-0.8
		s0.8,0,1.5,0.8S251.3,792.6,251.3,793.3z"/>
	<path class="st2" d="M297.7,793.3c0,0.8,0,0.8-0.8,1.5c-26.4,30.2-50.5,62.1-72.9,95.6c-3.7,5.6-7.4,11.1-11,16.8l-0.8,0.7
		c-0.8,0-0.8,0-1.5,0c0,0-0.8,0-0.8-0.7V905c3.3-5.1,6.6-10.2,9.9-15.2c22.7-34.1,47.2-66.6,74-97.9c0-0.8,0.8-0.8,1.5-0.8
		c0.8,0,0.8,0,1.5,0.8C297.7,791.8,297.7,792.6,297.7,793.3z"/>
	<path class="st2" d="M349.4,794.8c0,0.8,0,0.8-0.8,1.5c-2.4,3.1-4.8,6.2-7.1,9.3c-5.8,7.6-11.6,15.3-17.2,23.1
		c-16.3,22.3-32.1,45.3-47.1,69c-2.9,4.6-5.9,9.3-8.7,14l-1.5,0.8c-0.8,0-1.5,0-1.5-0.8v-2.2c2.6-4.1,5.1-8.2,7.7-12.2
		c16.8-26.3,34.5-52.2,52.9-77.3c5.6-7.6,11.2-15,16.9-22.4c0.9-1.1,1.7-2.3,2.6-3.4l0.8-0.8h2.2
		C349.4,793.3,349.4,794.1,349.4,794.8z"/>
	<path class="st2" d="M398.9,791.8v2.2L330,898l-2.5,3.7l-5.5,8.3l-4.1,6.2l-0.8,0.8h-0.8c-0.8,0-0.8,0-1.5,0c0,0-0.7,0-0.7-0.8V914
		l2.8-4.2l5.4-8.2l2.5-3.8l70.2-105.9c0,0,0-0.8,0.8-0.8h2.2C398.1,791.1,398.9,791.1,398.9,791.8z"/>
	<path class="st2" d="M447.6,789.6v2.2c-21.5,36.3-43.7,73.3-66.4,109.2c0,0-0.1,0.1-0.1,0.1c-2.5,4-5.1,8-7.6,11.9
		c0,0-0.1,0.1-0.1,0.1l-0.8,0.8c0-0.8,0-0.8-0.8-0.8s-0.8,0-1.5,0c0,0-0.4,0-0.6-0.4c-0.1-0.1-0.1-0.2-0.1-0.4v-2.2
		c1.9-2.9,3.7-5.8,5.6-8.8c0.2-0.3,0.3-0.5,0.5-0.8c23.4-36.7,46.7-73.9,68.1-111.1c0,0,0-0.8,0.7-0.8h2.2
		C446.8,788.8,447.6,788.8,447.6,789.6z"/>
	<path class="st2" d="M499.3,792.6c0,0.8,0,0.8,0,1.5c-21.6,35.4-44.4,70.1-67.2,104.3c-1.3,1.9-2.6,3.8-3.9,5.8c-2,3-4,6-6.1,9
		l-0.8,0.8h-0.8c-0.8,0-0.8,0-1.5,0c0,0-0.8,0-0.8-0.8V911c1.6-2.4,3.2-4.7,4.8-7.1c1.2-1.7,2.3-3.5,3.5-5.2
		c23.4-35,46.8-70.6,68.9-106.8c0-0.8,0.8-0.8,1.5-0.8s0.8,0,1.5,0S499.3,791.8,499.3,792.6z"/>
	<path class="st2" d="M550.2,794.1c0,0.8,0,0.8,0,1.5c-19.2,34-40.1,67.4-61.7,100.2c-2.7,4.1-5.3,8.1-8,12.1h0c-1,1.5-2,3-3,4.5
		l-0.8,0.8c0-0.8-0.8-0.8-0.8-0.8c-0.8,0-0.8,0-1.5,0c0,0-0.8,0-0.8-0.8v-2.2c0.4-0.6,0.9-1.3,1.3-1.9c2.6-3.8,5.1-7.6,7.6-11.4
		c22.2-33.5,43.3-68.5,63.8-102.9c0-0.8,0.8-0.8,1.5-0.8s0.8,0,1.5,0S550.2,793.3,550.2,794.1z"/>
	<path class="st2" d="M596.7,791.8c0,0.8,0,0.8,0,1.5l-57.1,100.4l-8.1,14.2l-0.8,0.8c-0.8,0-1.5,0-1.5,0c-1.5,0-1.5-0.8-1.5-1.5
		c0-0.8,0-0.8,0-1.5l6.6-11.7l58.5-102.9c0,0,0-0.8,0.8-0.8h2.2C596.7,790.3,596.7,791.1,596.7,791.8z"/>
	<path class="st2" d="M651.4,788.8c0,0.8,0,0.8,0,1.5c-21.6,32.8-42.2,67-62.3,101.2c-4.2,7.2-8.5,14.5-12.7,21.7l-0.8,0.8
		c-0.8,0-0.8,0-1.5,0c-1.5,0-1.5-0.8-1.5-1.5s0-0.8,0-1.5c3.6-6.4,7.3-12.9,11.1-19.4c20.1-34.9,41.7-70,63.9-103.5
		c0-0.8,0.8-0.8,1.5-0.8s0.8,0,1.5,0S651.4,788.1,651.4,788.8z"/>
	<path class="st2" d="M673.1,836.8v2.2c-11.8,16.5-22.7,33.5-32.6,51c-2.7,4.7-5.3,9.4-7.9,14.2l-0.8,0.8c-1.5,0-1.5,0-2.2,0
		c-1.5,0-1.5-0.8-1.5-1.5s0-0.8,0-1.5c2.1-4,4.2-8,6.4-11.9c10.4-18.8,21.8-36.6,34.8-54c0-0.8,0.8-0.8,1.5-0.8c0.7,0,0.7,0,1.5,0.8
		C672.3,836.1,673.1,836.1,673.1,836.8z"/>
	<g class="st0">
		<path class="st2" d="M392.9,261.4L392.9,261.4c-0.7-0.7-1.5-1.5-2.2-2.2L392.9,261.4z"/>
	</g>
</g>
</svg>
