<svg width="133" height="111" viewBox="0 0 133 121" fill="none" xmlns="http://www.w3.org/2000/svg">
<g clip-path="url(#clip0_956_10563)">
<path d="M68.6039 0.85161H32.7649C30.531 0.846361 28.3182 1.27532 26.2534 2.11385C24.1885 2.95237 22.3125 4.18395 20.7329 5.73782C19.1533 7.2917 17.9014 9.13727 17.049 11.1685C16.1966 13.1998 15.7606 15.3767 15.7659 17.5742V103.531C15.7604 105.729 16.1963 107.906 17.0486 109.937C17.9009 111.969 19.1528 113.814 20.7324 115.368C22.312 116.922 24.1881 118.154 26.253 118.993C28.3179 119.831 30.5309 120.26 32.7649 120.255H68.6039C70.8379 120.26 73.051 119.831 75.116 118.993C77.1809 118.154 79.0572 116.923 80.6369 115.368C82.2166 113.814 83.4686 111.969 84.3211 109.937C85.1735 107.906 85.6096 105.729 85.6043 103.531V17.5742C85.4944 8.30802 77.9148 0.85161 68.6039 0.85161Z" fill="#C5E6FB"/>
<path d="M72.2846 121H29.0755C25.3948 121 21.821 119.509 19.1143 116.953C16.4771 114.352 14.9973 110.827 15 107.153V13.8466C15 10.2257 16.5159 6.71006 19.1143 4.04736C21.7583 1.45308 25.3411 -0.00263847 29.0755 3.59014e-06H72.2846C75.9653 3.59014e-06 79.5391 1.49128 82.2458 4.04736C84.883 6.64843 86.3627 10.1729 86.3601 13.8466V107.047C86.3601 110.668 84.8441 114.183 82.2458 116.846C79.5348 119.509 75.9653 121 72.2846 121ZM29.0755 1.59791C25.8283 1.59791 22.5797 2.87737 20.305 5.21878C19.1439 6.34742 18.221 7.69067 17.5894 9.17132C16.9577 10.652 16.6297 12.2409 16.6243 13.8466V107.047C16.6243 110.243 17.9249 113.444 20.305 115.675C21.4524 116.817 22.8179 117.725 24.323 118.346C25.8281 118.967 27.4432 119.29 29.0755 119.295H72.2846C75.5332 119.295 78.7876 118.016 81.055 115.675C82.2164 114.546 83.1396 113.203 83.7715 111.722C84.4034 110.242 84.7316 108.653 84.7372 107.047V13.8466C84.7372 10.6508 83.4366 7.44931 81.0565 5.21878C78.6764 2.98825 75.5347 1.59791 72.286 1.59791H29.0755Z" fill="black"/>
<path d="M85.4944 13.5269H15.7659V103.531H85.4944V13.5269Z" fill="white"/>
<path d="M85.4943 104.277H15.7657C15.6655 104.279 15.5657 104.262 15.4726 104.225C15.3795 104.188 15.2949 104.133 15.224 104.064C15.153 103.994 15.0972 103.911 15.06 103.819C15.0227 103.728 15.0047 103.629 15.007 103.531V13.5264C15.0049 13.4279 15.023 13.3299 15.0604 13.2385C15.0978 13.147 15.1536 13.064 15.2245 12.9944C15.2954 12.9247 15.3799 12.87 15.473 12.8334C15.566 12.7968 15.6656 12.7791 15.7657 12.7815H85.4943C85.5943 12.7793 85.6937 12.7971 85.7866 12.8338C85.8794 12.8705 85.9638 12.9253 86.0345 12.9949C86.1053 13.0645 86.161 13.1475 86.1983 13.2388C86.2356 13.3301 86.2537 13.428 86.2515 13.5264V103.531C86.2539 103.629 86.2359 103.727 86.1987 103.819C86.1615 103.91 86.1058 103.993 86.0351 104.063C85.9643 104.133 85.8799 104.188 85.7869 104.225C85.694 104.261 85.5944 104.279 85.4943 104.277V104.277ZM16.6314 102.679H84.737V14.3794H16.6314V102.679Z" fill="black"/>
<path d="M57.6671 110.774H45.1076C45.0053 110.779 44.9031 110.763 44.8072 110.727C44.7114 110.692 44.6238 110.637 44.5498 110.568C44.4759 110.498 44.417 110.414 44.3768 110.322C44.3365 110.229 44.3158 110.129 44.3158 110.029C44.3158 109.928 44.3365 109.828 44.3768 109.735C44.417 109.643 44.4759 109.559 44.5498 109.489C44.6238 109.42 44.7114 109.366 44.8072 109.33C44.9031 109.295 45.0053 109.279 45.1076 109.283H57.6671C57.7695 109.279 57.8716 109.295 57.9675 109.33C58.0633 109.366 58.1509 109.42 58.2249 109.489C58.2989 109.559 58.3577 109.643 58.398 109.735C58.4382 109.828 58.4589 109.928 58.4589 110.029C58.4589 110.129 58.4382 110.229 58.398 110.322C58.3577 110.414 58.2989 110.498 58.2249 110.568C58.1509 110.637 58.0633 110.692 57.9675 110.727C57.8716 110.763 57.7695 110.779 57.6671 110.774V110.774Z" fill="black"/>
<g opacity="0.13">
<path d="M80.8354 13.74C78.4538 13.6333 76.0665 13.5267 73.6893 13.6333C67.3018 13.5272 60.9134 13.5272 54.5241 13.6333C49.4358 13.6333 44.4545 13.8466 39.3662 13.5267C33.1941 13.3149 27.0234 12.995 20.8513 13.2083H18.2617C17.7197 13.1017 17.1793 13.2083 16.7457 13.3149C16.2038 13.5267 15.8786 13.8466 15.5549 14.3797C15.3382 14.8062 15.2298 15.4445 15.3382 15.871C15.439 16.388 15.7225 16.8533 16.1386 17.1845C16.5546 17.5157 17.0763 17.6915 17.6113 17.6807C20.6461 17.894 23.6809 17.6807 26.7069 17.6807C30.2793 17.6807 33.8531 18.0006 37.5338 18.0006C50.9604 18.1072 64.387 18.1072 77.8122 17.894H83.1172C84.6332 18.1072 86.0407 17.3623 86.152 15.7615C85.928 12.995 82.8961 13.8466 80.8354 13.74Z" fill="black"/>
</g>
<path d="M85.386 27.8027C68.4955 27.8027 54.8521 41.7531 54.8521 59.0088C54.8412 65.8253 57.0414 72.4674 61.1326 77.969L57.3435 93.1974L70.1198 86.1675C74.7045 88.8592 79.9386 90.2936 85.2777 90.3214C102.168 90.3243 115.807 76.3711 115.807 59.1154C115.807 41.8597 102.168 27.8027 85.386 27.8027Z" fill="white"/>
<path d="M57.3435 93.9451C57.2846 93.9522 57.2249 93.9463 57.1687 93.9279C57.1124 93.9095 57.0611 93.8789 57.0183 93.8385C56.91 93.8385 56.8016 93.7319 56.6932 93.6252C56.652 93.5835 56.6209 93.5333 56.6022 93.4781C56.5834 93.423 56.5775 93.3645 56.5848 93.3068V92.9869L60.2655 78.1807C56.1441 72.6205 53.9796 65.8891 54.1006 59.0087C54.1006 41.328 68.1703 26.9497 85.4944 26.9497C102.819 26.9497 116.894 41.328 116.894 59.0087C116.894 76.6894 102.819 91.0649 85.4944 91.0649C80.1643 91.0742 74.9292 89.6765 70.3351 87.0175L57.6672 93.8413C57.6244 93.8811 57.5732 93.9111 57.5172 93.929C57.4612 93.947 57.4019 93.9525 57.3435 93.9451V93.9451ZM85.3861 28.6557C68.9276 28.6557 55.6166 42.289 55.6166 59.1182C55.637 65.7814 57.7967 72.2679 61.7872 77.6519C61.8283 77.6939 61.8594 77.7444 61.8781 77.7998C61.8969 77.8551 61.9029 77.9139 61.8956 77.9718V78.2902L58.5401 91.6051L69.6921 85.5334C69.8004 85.4267 69.9088 85.4267 70.1256 85.4267C70.234 85.4267 70.4493 85.4267 70.5591 85.5334C75.0297 88.2026 80.1637 89.6034 85.3933 89.5807C101.85 89.5807 115.163 75.9474 115.163 59.1182C115.163 42.289 101.736 28.6557 85.3861 28.6557Z" fill="black"/>
<path d="M33.8473 25.6705C33.8473 25.1374 34.0641 24.6043 34.2808 24.0726C34.6045 23.6461 35.0381 23.2196 35.5814 23.0078C36.1248 22.796 36.6638 22.6879 37.2057 22.7945C37.7477 22.9012 38.2881 23.221 38.7217 23.5395C39.1394 23.9372 39.4065 24.4633 39.4789 25.0307C39.5873 25.6705 39.4789 26.0955 39.2622 26.6287C39.0617 27.1649 38.6794 27.6168 38.1798 27.9081C37.7462 28.228 37.2057 28.3346 36.5554 28.3346C35.7826 28.3254 35.0441 28.0193 34.4976 27.4816C34.0641 27.0551 33.8473 26.4154 33.8473 25.6705Z" fill="white"/>
<path d="M36.6624 29.291C35.9262 29.2929 35.2075 29.0709 34.6045 28.6556C33.9981 28.2569 33.5119 27.7049 33.197 27.0577C32.8733 26.418 32.8733 25.673 32.9816 24.9252C33.102 24.2341 33.4432 23.5987 33.9557 23.1113C34.4525 22.6101 35.0963 22.2746 35.7967 22.1517C36.554 22.045 37.2043 22.045 37.9644 22.3649C38.6147 22.6848 39.265 23.1113 39.5887 23.7496C40.0126 24.3421 40.2393 25.0494 40.2376 25.774C40.2256 26.7323 39.8378 27.649 39.1552 28.3329C38.6118 28.8646 37.6364 29.291 36.6624 29.291ZM36.6624 23.6458C36.2442 23.651 35.8344 23.7611 35.4716 23.9657C35.1078 24.1827 34.8377 24.5237 34.7129 24.9238C34.5648 25.2963 34.5273 25.7025 34.6045 26.0952C34.7186 26.4798 34.9022 26.841 35.1464 27.1615C35.4716 27.4799 35.7967 27.5879 36.2288 27.6931C36.6609 27.7983 36.9875 27.6931 37.4196 27.5865C37.7448 27.4799 38.0699 27.16 38.3951 26.8416C38.6153 26.4899 38.7277 26.0832 38.7188 25.6702C38.6768 25.1473 38.4467 24.6562 38.0698 24.2852C37.6929 23.9141 37.1939 23.6874 36.6624 23.6458V23.6458Z" fill="black"/>
<path d="M47.7059 25.6705C47.7059 25.1374 47.9227 24.6043 48.1395 24.0726C48.4646 23.6461 48.8967 23.2196 49.4401 23.0078C49.9834 22.796 50.5225 22.6879 51.0644 22.7945C51.6063 22.9012 52.1468 23.221 52.5803 23.5395C52.9985 23.9369 53.2657 24.4632 53.3376 25.0307C53.4641 25.5621 53.4264 26.1185 53.2292 26.6287C53.0292 27.1652 52.6468 27.6172 52.1468 27.9081C51.7133 28.228 51.1728 28.3346 50.5225 28.3346C50.1531 28.315 49.7886 28.2432 49.4401 28.1214C49.0693 27.9855 48.7358 27.7665 48.4661 27.4816C48.1996 27.1978 47.9801 26.8744 47.8158 26.5235C47.7059 26.4154 47.7059 25.9903 47.7059 25.6705Z" fill="white"/>
<path d="M50.5209 29.291C49.7853 29.2928 49.067 29.0709 48.4645 28.6556C47.8575 28.2575 47.3712 27.7054 47.057 27.0577C46.7318 26.418 46.7318 25.673 46.8402 24.9252C46.9612 24.2343 47.3023 23.599 47.8142 23.1113C48.3112 22.6104 48.9549 22.2749 49.6553 22.1517C50.4125 22.045 51.0629 22.045 51.823 22.3649C52.4733 22.6848 53.1236 23.1113 53.4473 23.7496C53.8716 24.342 54.0988 25.0493 54.0976 25.774C54.0849 26.7321 53.6972 27.6486 53.0152 28.3329C52.4704 28.8646 51.4993 29.291 50.5209 29.291ZM50.5209 23.6458C50.1035 23.6513 49.6943 23.7609 49.3316 23.9642C48.9683 24.1815 48.6988 24.5225 48.5744 24.9224C48.4253 25.2956 48.3872 25.7029 48.4645 26.0967C48.5781 26.4811 48.7612 26.8423 49.005 27.1629C49.3302 27.4813 49.6553 27.5894 50.0888 27.6946C50.5224 27.7998 50.8461 27.6946 51.2796 27.5879C51.6033 27.4813 51.9285 27.1615 52.2536 26.843C52.4743 26.4914 52.5872 26.0847 52.5788 25.6716C52.5362 25.1487 52.3057 24.6577 51.9286 24.2868C51.5515 23.9158 51.0525 23.6891 50.5209 23.6472V23.6458Z" fill="black"/>
<path d="M61.566 25.6705C61.566 25.1374 61.7814 24.6043 61.9996 24.0726C62.3247 23.6461 62.7583 23.2196 63.3002 23.0078C63.8421 22.796 64.384 22.6879 64.9245 22.7945C65.465 22.9012 66.0069 23.221 66.4404 23.5395C66.859 23.9367 67.1268 24.463 67.1991 25.0307C67.3075 25.6705 67.1991 26.0955 66.9824 26.6287C66.7814 27.1646 66.3992 27.6164 65.9 27.9081C65.4664 28.228 64.9245 28.3346 64.2756 28.3346C63.5028 28.3257 62.7641 28.0195 62.2178 27.4816C61.809 26.9621 61.5806 26.3273 61.566 25.6705V25.6705Z" fill="white"/>
<path d="M64.3811 29.291C63.645 29.2929 62.9263 29.0709 62.3233 28.6556C61.7163 28.2575 61.2299 27.7054 60.9157 27.0577C60.5906 26.418 60.5906 25.673 60.699 24.9252C60.8205 24.2345 61.1615 23.5994 61.673 23.1113C62.1702 22.6107 62.8138 22.2752 63.5141 22.1517C64.2728 22.045 64.9216 22.045 65.6818 22.3649C66.3306 22.6848 66.9824 23.1113 67.3061 23.7496C67.7293 24.3424 67.9559 25.0495 67.9549 25.774C67.9422 26.7321 67.5545 27.6486 66.8725 28.3329C66.3292 28.8646 65.3552 29.291 64.3811 29.291ZM64.3811 23.6458C63.9626 23.6514 63.5524 23.7614 63.1889 23.9657C62.8256 24.1829 62.5562 24.5239 62.4317 24.9238C62.2836 25.2963 62.246 25.7025 62.3233 26.0952C62.4374 26.4798 62.621 26.841 62.8652 27.1615C63.0805 27.4799 63.5141 27.5879 63.9476 27.6931C64.3811 27.7983 64.7049 27.6931 65.1384 27.5865C65.4635 27.4799 65.7887 27.16 66.1124 26.8416C66.3331 26.49 66.4459 26.0833 66.4376 25.6702C66.3956 25.1473 66.1655 24.6562 65.7886 24.2852C65.4117 23.9141 64.9127 23.6874 64.3811 23.6458Z" fill="black"/>
<g opacity="0.13">
<path d="M40.4514 28.013C40.3431 27.7997 40.1277 27.4799 39.911 27.3747C39.7059 27.181 39.4363 27.0673 39.1523 27.0548C38.859 27.0374 38.5651 27.0735 38.2852 27.1614C38.0055 27.2472 37.7717 27.4383 37.6349 27.6931V27.6931C37.5265 27.7997 37.4181 27.7997 37.3112 27.9064C37.2028 27.9064 37.0944 28.013 36.8777 28.013H36.3357C36.2274 28.013 36.119 27.9064 36.0106 27.9064C35.9288 27.8953 35.8531 27.8577 35.7953 27.7997L35.4701 27.4799C35.145 27.268 34.8198 27.1614 34.4947 27.268C34.145 27.2764 33.8058 27.3873 33.5206 27.5865C33.1955 27.7997 33.0871 28.013 32.8718 28.3328C32.7634 28.6433 32.7634 28.9805 32.8718 29.291C33.3053 30.4624 34.6059 30.997 35.7953 31.2088C37.528 31.641 41.3185 30.2492 40.4514 28.013Z" fill="black"/>
</g>
<g opacity="0.13">
<path d="M54.6354 27.9064C54.53 27.6703 54.3833 27.4542 54.2018 27.2681L53.5515 26.9482H52.8001C52.5598 27.0523 52.3398 27.1966 52.1498 27.3747C52.0414 27.4799 51.933 27.4799 51.933 27.5866L51.8246 27.6932C51.4227 27.8991 50.9771 28.0087 50.524 28.013H50.1988C50.0919 28.013 49.9835 27.9064 49.8751 27.9064C49.6584 27.7998 49.55 27.6932 49.3332 27.6932H49.2248C49.0547 27.4926 48.8294 27.3446 48.576 27.2667C48.2598 27.1601 47.9166 27.1601 47.6005 27.2667C47.2768 27.3733 46.9517 27.5851 46.8433 27.905C46.6265 28.2249 46.5181 28.5447 46.6265 28.8632C46.6265 29.183 46.8433 29.5029 47.06 29.7161C47.7641 30.3493 48.6241 30.7906 49.5548 30.9963C50.4856 31.202 51.4548 31.165 52.3665 30.889C53.553 30.4625 55.2857 29.3977 54.6354 27.9064Z" fill="black"/>
</g>
<g opacity="0.13">
<path d="M68.4954 28.2289C68.3896 27.9926 68.2429 27.7761 68.0619 27.5891C67.9804 27.4963 67.8809 27.4204 67.7692 27.3657C67.6576 27.311 67.536 27.2787 67.4116 27.2707C67.2925 27.218 67.1635 27.1907 67.033 27.1907C66.9024 27.1907 66.7734 27.218 66.6543 27.2707L66.004 27.5891C65.8971 27.6958 65.7887 27.6958 65.6803 27.8024L65.4636 27.909C65.3552 27.909 65.2468 28.0156 65.1384 28.0156H64.4895C64.1392 28.0076 63.7993 27.8962 63.5141 27.6958C62.8652 27.3773 62.1065 26.7376 61.3464 26.9508C61.0213 27.0575 60.8045 27.1641 60.6961 27.3773C60.5901 27.4708 60.5061 27.5858 60.4499 27.7145C60.3937 27.8431 60.3668 27.9823 60.371 28.1223C60.3531 28.4107 60.3899 28.6999 60.4793 28.9752C60.6269 29.2136 60.8095 29.4292 61.0213 29.615C61.6701 29.9348 62.212 30.2533 62.8623 30.5731C63.6381 30.784 64.4391 30.8915 65.2439 30.893C66.6543 30.7878 68.9275 29.9348 68.4954 28.2289Z" fill="black"/>
</g>
<path d="M73.1501 72.5354C72.9985 72.5401 72.8485 72.5037 72.7165 72.4302C72.6082 72.3236 72.4998 72.3236 72.3914 72.2169C72.3503 72.1749 72.3192 72.1244 72.3005 72.069C72.2817 72.0137 72.2758 71.955 72.283 71.8971C72.2783 71.7478 72.3158 71.6001 72.3914 71.4706L84.5203 42.3927C84.6049 42.2018 84.7598 42.0494 84.9538 41.9662C85.0539 41.9137 85.1656 41.8862 85.279 41.8862C85.3924 41.8862 85.5041 41.9137 85.6041 41.9662C85.7982 42.0494 85.9531 42.2018 86.0377 42.3927C86.0911 42.4909 86.119 42.6005 86.119 42.7119C86.119 42.8232 86.0911 42.9328 86.0377 43.031L73.9117 72.0037C73.8033 72.1103 73.6949 72.3236 73.5865 72.3236C73.5345 72.3888 73.4683 72.4417 73.3928 72.4783C73.3173 72.515 73.2343 72.5345 73.1501 72.5354Z" fill="black"/>
<path d="M87.0103 73.8148C86.9515 73.8219 86.8917 73.816 86.8355 73.7976C86.7793 73.7792 86.7279 73.7486 86.6852 73.7082C86.6289 73.7045 86.5759 73.6809 86.536 73.6416C86.4962 73.6024 86.4721 73.5503 86.4684 73.4949C86.36 73.3883 86.36 73.2817 86.2516 73.2817C86.2516 73.1751 86.1432 73.0685 86.1432 72.9618C86.136 72.9039 86.142 72.8452 86.1607 72.7899C86.1795 72.7345 86.2105 72.684 86.2516 72.642L98.3791 43.5641C98.4644 43.3737 98.619 43.2215 98.8126 43.1376C98.9124 43.0851 99.0239 43.0576 99.137 43.0576C99.2502 43.0576 99.3617 43.0851 99.4615 43.1376C99.6551 43.2215 99.8097 43.3737 99.895 43.5641C99.9484 43.6625 99.9763 43.7724 99.9763 43.884C99.9763 43.9955 99.9484 44.1054 99.895 44.2038L87.7719 73.2817C87.6635 73.3883 87.5551 73.6016 87.4467 73.6016C87.4041 73.676 87.3397 73.7362 87.2619 73.7742C87.184 73.8122 87.0964 73.8264 87.0103 73.8148Z" fill="black"/>
<path d="M103.576 53.3636H71.7427C71.6404 53.368 71.5382 53.3519 71.4424 53.3165C71.3465 53.281 71.259 53.2267 71.185 53.1571C71.111 53.0874 71.0521 53.0037 71.0119 52.9111C70.9717 52.8184 70.9509 52.7187 70.9509 52.6179C70.9509 52.5172 70.9717 52.4175 71.0119 52.3248C71.0521 52.2322 71.111 52.1485 71.185 52.0788C71.259 52.0091 71.3465 51.9549 71.4424 51.9194C71.5382 51.8839 71.6404 51.8679 71.7427 51.8723H103.68C103.83 51.8735 103.976 51.9181 104.101 52.0006C104.226 52.083 104.323 52.1996 104.38 52.3359C104.438 52.4722 104.454 52.6222 104.426 52.7673C104.398 52.9123 104.327 53.046 104.222 53.1518C104.025 53.2689 103.805 53.3412 103.576 53.3636V53.3636Z" fill="black"/>
<path d="M99.0279 65.2935H67.0907C66.9884 65.2979 66.8862 65.2819 66.7904 65.2464C66.6945 65.2109 66.607 65.1567 66.533 65.087C66.459 65.0173 66.4001 64.9336 66.3599 64.841C66.3197 64.7483 66.299 64.6486 66.299 64.5479C66.299 64.4471 66.3197 64.3474 66.3599 64.2547C66.4001 64.1621 66.459 64.0784 66.533 64.0087C66.607 63.9391 66.6945 63.8848 66.7904 63.8493C66.8862 63.8139 66.9884 63.7978 67.0907 63.8022H99.0279C99.178 63.8035 99.3244 63.8481 99.449 63.9305C99.5736 64.0129 99.6707 64.1296 99.7285 64.2659C99.7862 64.4022 99.802 64.5522 99.7737 64.6972C99.7455 64.8423 99.6746 64.976 99.5698 65.0817C99.5055 65.1596 99.4218 65.2201 99.327 65.2571C99.2321 65.2942 99.1291 65.3067 99.0279 65.2935Z" fill="black"/>
<path d="M28.6506 81.3766H28.5423L28.4339 81.2699V81.1633C28.4335 81.1492 28.436 81.1352 28.4413 81.1221C28.4466 81.1089 28.4546 81.097 28.4647 81.087C28.4749 81.0771 28.487 81.0692 28.5003 81.064C28.5136 81.0588 28.5279 81.0563 28.5423 81.0567L51.1714 59.7551C51.1857 59.7555 51.2 59.753 51.2133 59.7478C51.2267 59.7426 51.2388 59.7347 51.2489 59.7247C51.2591 59.7148 51.267 59.7028 51.2723 59.6897C51.2777 59.6766 51.2802 59.6626 51.2798 59.6485H51.4994C51.5138 59.6481 51.5281 59.6506 51.5414 59.6558C51.5547 59.661 51.5668 59.6688 51.577 59.6788C51.5871 59.6888 51.5951 59.7007 51.6004 59.7138C51.6057 59.7269 51.6082 59.741 51.6078 59.7551C51.6074 59.769 51.6099 59.7829 51.6152 59.7958C51.6204 59.8088 51.6283 59.8205 51.6383 59.8304C51.6483 59.8402 51.6602 59.8479 51.6734 59.8531C51.6865 59.8582 51.7006 59.8607 51.7148 59.8603V60.0735C51.7152 60.0875 51.7127 60.1014 51.7075 60.1145C51.7022 60.1275 51.6944 60.1393 51.6844 60.1493C51.6744 60.1592 51.6625 60.1671 51.6493 60.1724C51.6362 60.1777 51.6221 60.1804 51.6078 60.1802L28.9744 81.4832C28.7576 81.3766 28.7576 81.3766 28.6506 81.3766Z" fill="black"/>
<path d="M28.3254 89.8975C28.217 89.8975 28.217 89.8975 28.1086 89.7909C28.0497 89.7334 28.0116 89.6585 28.0002 89.5776C28.0002 89.471 28.0002 89.471 28.1086 89.3658C35.6883 81.5895 43.4833 73.8147 51.2797 66.2516C51.3381 66.1937 51.4143 66.1562 51.4965 66.145C51.6048 66.145 51.6048 66.145 51.7118 66.2516C51.7707 66.3091 51.8088 66.384 51.8202 66.4649C51.8202 66.5715 51.8202 66.5715 51.7118 66.6781C43.9168 74.2397 36.1204 82.016 28.5422 89.7852L28.3254 89.8918V89.8975Z" fill="black"/>
<path d="M35.9036 89.6845H35.7966L35.6882 89.5779V89.4713C35.688 89.4573 35.6907 89.4434 35.6961 89.4305C35.7015 89.4175 35.7095 89.4058 35.7196 89.3959C35.7298 89.3861 35.7418 89.3784 35.755 89.3733C35.7683 89.3681 35.7824 89.3657 35.7966 89.3661L52.904 72.3237C52.962 72.266 53.0376 72.2286 53.1193 72.217C53.2277 72.217 53.2277 72.217 53.3361 72.3237C53.3947 72.3808 53.4327 72.4551 53.4444 72.5355C53.4444 72.6421 53.4444 72.6421 53.3361 72.7487L36.2287 89.7855C36.0119 89.6788 36.0119 89.6788 35.9036 89.6788V89.6845Z" fill="black"/>
<path d="M43.5916 90.1108H43.4832L43.3748 90.0042V89.8976C43.3744 89.8835 43.3769 89.8694 43.3822 89.8563C43.3875 89.8432 43.3955 89.8313 43.4057 89.8213C43.4158 89.8113 43.4279 89.8035 43.4412 89.7983C43.4546 89.7931 43.4688 89.7906 43.4832 89.791C47.1653 86.0635 50.8533 82.1227 54.3115 78.0754L54.4199 77.9688H54.7436L54.8519 78.0754V78.3938C51.3837 82.4412 47.7058 86.3833 44.0251 90.1108C43.8083 90.0042 43.8083 90.0042 43.5916 90.1108Z" fill="black"/>
<path d="M51.4995 89.7854C51.3911 89.7854 51.3911 89.7854 51.2827 89.6788C51.2238 89.6213 51.1857 89.5464 51.1743 89.4656C51.1743 89.3604 51.1743 89.3604 51.2827 89.2538L55.8305 84.1359C55.8305 84.0293 55.9374 84.0293 56.0458 84.0293C56.1542 84.0293 56.1542 84.0293 56.2626 84.1359C56.371 84.1359 56.371 84.2425 56.371 84.3492C56.371 84.4558 56.371 84.4558 56.2626 84.5624L51.7148 89.6802C51.7006 89.68 51.6865 89.6827 51.6733 89.688C51.6601 89.6933 51.6482 89.7012 51.6382 89.7111C51.6282 89.7211 51.6204 89.7329 51.6152 89.7459C51.6099 89.759 51.6075 89.7729 51.6079 89.7869L51.4995 89.7854Z" fill="black"/>
<g opacity="0.13">
<path d="M84.412 90.2116C84.0588 90.105 83.6813 90.105 83.3281 90.2116H82.8946C80.9451 89.9984 79.1041 89.4653 77.2586 88.827L77.0419 88.7203C76.9335 88.6137 76.3916 88.4005 76.0664 88.2939C74.984 87.8674 73.8987 87.4409 72.8192 87.1224C71.9522 86.696 71.0851 86.4841 70.1125 86.2695C69.6923 86.2612 69.2786 86.3718 68.9203 86.5879C68.6548 86.7723 68.3625 86.9161 68.0532 87.0144C65.78 88.0792 63.5054 89.252 61.3406 90.4263C60.4736 90.958 59.4996 91.3845 58.5255 91.811C58.092 92.0242 57.5501 92.1308 57.2249 92.5559C57.0212 92.8365 56.908 93.1708 56.8998 93.5155C56.8998 93.8339 57.0082 94.2604 57.2249 94.4737C57.434 94.7751 57.7391 94.9996 58.092 95.112C58.4454 95.2001 58.8102 95.236 59.1744 95.2186C62.965 93.7273 66.5373 91.8067 70.1111 90.1007C72.3842 91.1655 74.88 91.592 77.2572 92.5502C79.2052 93.0833 81.2631 93.9349 83.3267 93.615L82.8932 93.7216C83.586 93.8097 84.2903 93.7372 84.9496 93.5098C85.2538 93.3172 85.5125 93.0627 85.7083 92.7634C85.8427 92.4236 85.9161 92.0633 85.925 91.6986C85.8956 91.34 85.7426 91.002 85.4915 90.7405C85.0608 90.5372 84.8441 90.3239 84.412 90.2116Z" fill="black"/>
</g>
</g>
<defs>
<clipPath id="clip0_956_10563">
<rect width="132.447" height="120.775" fill="white"/>
</clipPath>
</defs>
</svg>
