<svg width="133" height="111" viewBox="0 0 133 121" fill="none" xmlns="http://www.w3.org/2000/svg">
<g clip-path="url(#clip0_956_10678)">
<g opacity="0.13">
<path d="M89.214 15.7644C89.1918 16.2697 88.9972 16.753 88.6614 17.1363C88.631 17.1719 88.5977 17.206 88.5645 17.2387C88.3464 17.4483 88.0883 17.6136 87.8049 17.7249C87.2874 17.9204 86.7266 17.9788 86.1789 17.894H80.8622C67.4209 18.1073 53.9811 18.1073 40.5398 18.0007C36.855 18.0007 33.2774 17.6808 29.7011 17.6808C26.663 17.6808 23.625 17.894 20.5956 17.6808C20.2587 17.6771 19.9264 17.6035 19.6205 17.4647C19.4285 17.3793 19.2465 17.2735 19.078 17.1491C18.9684 17.0409 18.866 16.926 18.7713 16.8051V16.8051C18.7638 16.7986 18.7574 16.7909 18.7525 16.7823C18.5396 16.5152 18.3912 16.2041 18.3185 15.8725C18.21 15.446 18.3185 14.8077 18.534 14.3812C18.6064 14.2646 18.6787 14.158 18.751 14.0613C18.8864 13.8754 19.0509 13.7117 19.2386 13.5766V13.5766L19.308 13.5297C19.4105 13.4636 19.5184 13.4061 19.6306 13.3576L19.7276 13.3178C20.1616 13.2112 20.7026 13.1046 21.2437 13.2112H23.8478C30.0252 12.998 36.204 13.3178 42.3829 13.5297C47.4767 13.8495 52.4635 13.6363 57.5573 13.6363C63.9537 13.5301 70.3491 13.5301 76.7435 13.6363C79.1276 13.5297 81.5176 13.6363 83.8974 13.7429C85.1184 13.8054 86.6823 13.5325 87.8035 13.8765C87.9632 13.9248 88.1169 13.9901 88.2621 14.0713C88.3699 14.1309 88.4708 14.202 88.563 14.2831C88.9218 14.5916 89.1591 15.0607 89.214 15.7644Z" fill="black"/>
</g>
<g opacity="0.13">
<path d="M88.997 91.7088C88.988 92.0734 88.9146 92.4337 88.78 92.7736C88.7438 92.8262 88.7091 92.8759 88.6715 92.9243C88.6339 92.9726 88.6021 93.0138 88.5645 93.0551C88.4075 93.2351 88.2248 93.3917 88.0219 93.5199C87.9511 93.5427 87.8773 93.5654 87.8049 93.5853C87.2081 93.7622 86.5795 93.8107 85.9618 93.7275L86.3959 93.6223C84.3358 93.9407 82.2771 93.0892 80.3197 92.5561C77.9356 91.5979 75.4429 91.1714 73.1658 90.1066C69.5895 91.8126 66.0118 93.7275 62.2186 95.2245C61.854 95.242 61.4888 95.2061 61.135 95.1178C60.7817 95.0054 60.4764 94.7809 60.267 94.4795C60.1054 94.293 60.0023 94.0643 59.9704 93.8213C59.9279 93.6027 59.9324 93.3777 59.9834 93.1608C60.0345 92.9439 60.1311 92.7399 60.267 92.5618C60.3625 92.4399 60.479 92.3355 60.6113 92.2533C60.9093 92.0628 61.2652 91.9689 61.5676 91.8168C62.5441 91.3903 63.5192 90.9639 64.3857 90.4322C66.5558 89.2608 68.83 88.0879 71.1071 87.0203C71.4163 86.9209 71.7088 86.7772 71.9751 86.5938C72.3367 86.3854 72.7481 86.275 73.1672 86.2739L73.4725 86.3422C74.3032 86.5044 75.1103 86.7671 75.8755 87.1241C76.9605 87.4439 78.0455 87.8704 79.1276 88.2955C79.4531 88.4021 79.9957 88.6153 80.1027 88.722L80.3197 88.8286C82.1628 89.4669 84.0059 90 85.9618 90.2132H86.3959C86.7489 90.1066 87.1264 90.1066 87.4794 90.2132C87.5817 90.2378 87.6815 90.2716 87.7775 90.3142L87.8049 90.327C88.0538 90.4407 88.2534 90.5928 88.5645 90.7464C88.603 90.7846 88.6388 90.8254 88.6715 90.8686C88.7186 90.9305 88.7611 90.9956 88.7988 91.0634C88.916 91.26 88.984 91.4813 88.997 91.7088V91.7088Z" fill="black"/>
</g>
<g opacity="0.13">
<path d="M38.8111 31.214C37.619 31.0007 36.3185 30.4676 35.8844 29.2962C35.776 28.9857 35.776 28.6485 35.8844 28.338C36.1 28.021 36.2085 27.8078 36.5282 27.5959H36.5355C36.7734 27.4333 37.047 27.3281 37.334 27.2889C37.3925 27.2808 37.4515 27.277 37.5105 27.2775C37.836 27.1709 38.1616 27.2775 38.4856 27.4907L38.8111 27.8092C38.8696 27.8671 38.9459 27.9046 39.0281 27.9158C39.1366 27.9158 39.2451 28.0224 39.3536 28.0224H39.8961C40.1117 28.0224 40.2202 27.9158 40.3302 27.9158C40.4387 27.8092 40.5472 27.8092 40.6557 27.7026C40.793 27.4481 41.0269 27.257 41.3067 27.1709C41.5518 27.0908 41.8095 27.0547 42.0676 27.0643H42.1733C42.4365 27.0766 42.6876 27.1769 42.885 27.3486L42.9313 27.3898C43.1483 27.4964 43.3653 27.8163 43.4738 28.0281C44.339 30.2501 40.5457 31.6405 38.8111 31.214Z" fill="black"/>
</g>
<g opacity="0.13">
<path d="M55.4003 30.8887C54.4877 31.1645 53.5176 31.2015 52.5859 30.9961C51.6542 30.7907 50.7932 30.3499 50.088 29.7173C49.8725 29.5041 49.654 29.1842 49.654 28.8643C49.5455 28.5445 49.654 28.2246 49.871 27.9048C49.949 27.6991 50.0987 27.5273 50.2935 27.42C50.3985 27.3554 50.5112 27.3038 50.6291 27.2664C50.8289 27.1991 51.0409 27.1744 51.2512 27.1939C51.3713 27.2044 51.4898 27.2287 51.6042 27.2664C51.8582 27.3445 52.0841 27.4925 52.2552 27.6929H52.3622C52.5792 27.6929 52.6877 27.7996 52.9033 27.9062C53.0118 27.9062 53.1203 28.0128 53.2288 28.0128H53.5543C54.0079 28.0083 54.454 27.8987 54.8563 27.6929L54.9649 27.5863C54.9649 27.4811 55.0734 27.4811 55.1819 27.3745C55.3719 27.1967 55.5916 27.0525 55.8314 26.948H56.5909L56.8702 27.0902L57.2405 27.2721C57.4217 27.4586 57.5686 27.6746 57.6745 27.9104C58.3226 29.3975 56.5881 30.4622 55.4003 30.8887Z" fill="black"/>
</g>
<g opacity="0.13">
<path d="M68.2946 30.8886C67.4885 30.8872 66.6861 30.7796 65.909 30.5688C65.2595 30.2503 64.717 29.9305 64.0674 29.6106C63.8554 29.4249 63.6726 29.2093 63.5249 28.9709C63.4353 28.6956 63.3985 28.4064 63.4164 28.1179C63.4122 27.9779 63.4392 27.8388 63.4954 27.7101C63.5516 27.5815 63.6357 27.4664 63.7419 27.373C63.7984 27.2657 63.8853 27.1768 63.9922 27.1171C64.1183 27.0456 64.2522 26.9884 64.3914 26.9465C64.5615 26.9005 64.7398 26.8918 64.9137 26.9209C65.4924 27.0105 66.058 27.4469 66.56 27.6914C66.8451 27.8918 67.1848 28.0032 67.5351 28.0113H68.1861C68.2946 28.0113 68.4031 27.9047 68.5116 27.9047L68.7272 27.798C68.8357 27.6914 68.9442 27.6914 69.0527 27.5848L69.6502 27.2919L69.7037 27.2664C69.8229 27.2136 69.9521 27.1863 70.0828 27.1863C70.2134 27.1863 70.3426 27.2136 70.4618 27.2664C70.5256 27.266 70.5891 27.2756 70.6499 27.2948C70.8262 27.3496 70.9854 27.4474 71.1128 27.5791C71.2942 27.766 71.4411 27.9824 71.5468 28.2188C71.9794 29.9347 69.7037 30.7877 68.2946 30.8886Z" fill="black"/>
</g>
<path d="M87.8062 46.1416L85.4017 51.8793H88.6742V53.3635H84.7768L80.402 63.8025H88.6742V65.2937H79.777L76.966 72.0038C76.8575 72.1104 76.749 72.3237 76.6405 72.3237C76.5889 72.3887 76.5231 72.4416 76.448 72.4785C76.373 72.5154 76.2905 72.5353 76.2065 72.5369C76.0546 72.5416 75.9043 72.5047 75.7725 72.4303C75.6655 72.3237 75.557 72.3237 75.4485 72.217C75.4073 72.175 75.3762 72.1245 75.3574 72.0692C75.3387 72.0138 75.3327 71.9551 75.3399 71.8972C75.3352 71.7479 75.3728 71.6002 75.4485 71.4707L78.0265 65.2937H70.1362C70.0337 65.2981 69.9315 65.2821 69.8355 65.2466C69.7395 65.2111 69.6519 65.1569 69.5778 65.0873C69.5037 65.0176 69.4448 64.9339 69.4045 64.8412C69.3643 64.7486 69.3435 64.6489 69.3435 64.5481C69.3435 64.4473 69.3643 64.3476 69.4045 64.255C69.4448 64.1623 69.5037 64.0786 69.5778 64.009C69.6519 63.9393 69.7395 63.8851 69.8355 63.8496C69.9315 63.8141 70.0337 63.7981 70.1362 63.8025H78.65L83.0075 53.3635H74.7974C74.695 53.3679 74.5927 53.3519 74.4968 53.3164C74.4008 53.2809 74.3131 53.2267 74.2391 53.157C74.165 53.0873 74.1061 53.0036 74.0658 52.911C74.0255 52.8183 74.0048 52.7186 74.0048 52.6178C74.0048 52.5171 74.0255 52.4174 74.0658 52.3247C74.1061 52.2321 74.165 52.1484 74.2391 52.0787C74.3131 52.009 74.4008 51.9548 74.4968 51.9193C74.5927 51.8838 74.695 51.8678 74.7974 51.8722H83.631L87.5877 42.3928C87.6396 42.2845 87.7134 42.1878 87.8047 42.1085C87.8706 42.0522 87.9435 42.0044 88.0217 41.9663C88.1042 41.9226 88.195 41.8962 88.2884 41.8888C88.3818 41.8815 88.4758 41.8934 88.5642 41.9237C88.6013 41.9342 88.6372 41.9485 88.6713 41.9663V44.0675L88.5642 44.322L87.8062 46.1416Z" fill="#C5E6FB"/>
<path d="M43.4724 28.0129C43.3639 27.7996 43.1469 27.4812 42.9299 27.3745L42.8836 27.3333C43.124 26.8481 43.251 26.3163 43.2554 25.7766C43.2564 25.0522 43.0295 24.3451 42.6058 23.7523C42.2803 23.1139 41.6293 22.6875 40.9797 22.3676C40.2202 22.0477 39.5706 22.0477 38.8097 22.1543C38.1098 22.277 37.4664 22.6115 36.9695 23.1111C36.4573 23.5976 36.1154 24.2313 35.9929 24.9208C35.8844 25.6672 35.8844 26.4121 36.21 27.0533C36.3037 27.2387 36.4101 27.4177 36.5282 27.5892C36.2085 27.801 36.0942 28.0157 35.8844 28.3313C35.776 28.6418 35.776 28.979 35.8844 29.2895C36.3185 30.4609 37.6205 30.9954 38.8111 31.2072C40.5457 31.6408 44.339 30.2505 43.4724 28.0129ZM37.7275 24.9237C37.8522 24.5238 38.1219 24.1828 38.4856 23.9655C38.8495 23.7613 39.2601 23.6512 39.6791 23.6456C40.2112 23.6873 40.7108 23.914 41.0881 24.285C41.4654 24.6561 41.6958 25.1471 41.7378 25.67C41.7462 26.0831 41.6332 26.4899 41.4123 26.8414C41.0882 27.1613 40.7627 27.4812 40.4372 27.5864C40.0032 27.693 39.6791 27.7996 39.2451 27.693C38.8111 27.5864 38.4856 27.4812 38.1616 27.1613C37.917 26.8408 37.7332 26.4796 37.619 26.0951C37.5417 25.7024 37.5793 25.2962 37.7275 24.9237Z" fill="#C5E6FB"/>
<path d="M31.5486 81.3763L31.4401 81.2697V81.1631C31.4397 81.149 31.4422 81.1349 31.4475 81.1218C31.4529 81.1087 31.4608 81.0968 31.471 81.0868C31.4812 81.0768 31.4933 81.069 31.5066 81.0638C31.52 81.0585 31.5342 81.0561 31.5486 81.0564L54.2039 59.7549C54.2182 59.7551 54.2323 59.7524 54.2455 59.7471C54.2586 59.7418 54.2706 59.7339 54.2806 59.724C54.2906 59.714 54.2984 59.7022 54.3037 59.6892C54.3089 59.6761 54.3114 59.6622 54.311 59.6482H54.5323C54.5467 59.6478 54.561 59.6503 54.5743 59.6555C54.5877 59.6608 54.5998 59.6686 54.6099 59.6786C54.6201 59.6886 54.6281 59.7005 54.6334 59.7136C54.6387 59.7267 54.6412 59.7407 54.6408 59.7549C54.6404 59.769 54.643 59.783 54.6483 59.7961C54.6536 59.8092 54.6616 59.8211 54.6717 59.8311C54.6819 59.8411 54.694 59.8489 54.7073 59.8542C54.7207 59.8594 54.735 59.8619 54.7493 59.8615V60.0733C54.7497 60.0874 54.7472 60.1014 54.7419 60.1146C54.7366 60.1277 54.7286 60.1396 54.7184 60.1496C54.7083 60.1595 54.6962 60.1674 54.6828 60.1726C54.6695 60.1778 54.6552 60.1803 54.6408 60.1799L31.9826 81.4829C31.7656 81.3763 31.7656 81.3763 31.6571 81.3763H31.5486Z" fill="#C5E6FB"/>
<path d="M31.5485 89.7855L31.3315 89.8921C31.2244 89.8921 31.2245 89.8921 31.1159 89.7855C31.057 89.728 31.0189 89.6531 31.0074 89.5723C31.0074 89.4656 31.0074 89.4656 31.1159 89.3604C38.7024 81.5842 46.5074 73.8093 54.3109 66.2463C54.3694 66.1883 54.4456 66.1509 54.5279 66.1396C54.6364 66.1396 54.6364 66.1396 54.7449 66.2463C54.8039 66.3037 54.842 66.3787 54.8534 66.4595C54.8534 66.5661 54.8534 66.5661 54.7449 66.6728C46.9414 74.2401 39.1365 82.0163 31.5485 89.7855Z" fill="#C5E6FB"/>
<path d="M56.371 72.7487L39.2449 89.7855C39.0279 89.6788 39.0279 89.6788 38.9194 89.6788H38.8109L38.7024 89.5722V89.4656C38.7022 89.4516 38.7049 89.4377 38.7103 89.4248C38.7157 89.4118 38.7237 89.4001 38.7338 89.3903C38.744 89.3804 38.756 89.3727 38.7693 89.3676C38.7825 89.3625 38.7967 89.36 38.8109 89.3604L55.9369 72.3237C55.9954 72.2657 56.0717 72.2283 56.154 72.217C56.2625 72.217 56.2625 72.217 56.371 72.3237C56.4299 72.3811 56.468 72.4561 56.4795 72.5369C56.4795 72.6421 56.4795 72.6421 56.371 72.7487Z" fill="#C5E6FB"/>
<path d="M57.6716 27.9066C57.5657 27.6708 57.4188 27.4548 57.2376 27.2683L56.8672 27.0921C57.0377 26.6757 57.1265 26.2315 57.1291 25.7827C57.1307 25.0582 56.9038 24.3509 56.4795 23.7584C56.154 23.12 55.5044 22.6936 54.8534 22.3737C54.0953 22.0538 53.4443 22.0538 52.6834 22.1604C51.9842 22.2816 51.3409 22.614 50.8432 23.1115C50.331 23.5978 49.9895 24.2316 49.8681 24.9212C49.7596 25.6676 49.7596 26.4125 50.0836 27.0537C50.1473 27.1802 50.2167 27.3025 50.2905 27.4205C50.0958 27.5278 49.9461 27.6996 49.8681 27.9052C49.6511 28.2251 49.5426 28.545 49.6511 28.8648C49.6511 29.1833 49.8681 29.5031 50.0851 29.7178C50.7906 30.3508 51.6521 30.7919 52.5843 30.9974C53.5165 31.2028 54.4872 31.1655 55.4003 30.8892C56.588 30.4627 58.3226 29.3979 57.6716 27.9066ZM51.5955 24.9212C51.7225 24.5205 51.9955 24.1798 52.3622 23.9645C52.7254 23.7599 53.1357 23.6498 53.5543 23.6446C54.0864 23.6869 54.5858 23.914 54.9631 24.2852C55.3403 24.6564 55.5707 25.1475 55.6129 25.6704C55.6213 26.0835 55.5083 26.4903 55.2874 26.8419C54.9619 27.1617 54.6364 27.4816 54.3109 27.5868C53.8769 27.6934 53.5528 27.8 53.1188 27.6934C52.6848 27.5868 52.3608 27.4816 52.0352 27.1617C51.7914 26.8415 51.6081 26.4809 51.4942 26.0969C51.4161 25.7039 51.4532 25.2972 51.6012 24.9241L51.5955 24.9212Z" fill="#C5E6FB"/>
<path d="M46.5072 89.7851C50.192 86.0576 53.8854 82.1169 57.3459 78.0695L57.4544 77.9629H57.7799L57.8884 78.0695V78.388C54.4163 82.4353 50.7345 86.3775 47.0497 90.105C46.8327 89.9983 46.8327 89.9983 46.6157 90.105H46.5072L46.3987 89.9983V89.8917C46.3983 89.8776 46.4009 89.8636 46.4062 89.8505C46.4115 89.8374 46.4195 89.8254 46.4296 89.8155C46.4398 89.8055 46.4519 89.7976 46.4652 89.7924C46.4786 89.7872 46.4929 89.7847 46.5072 89.7851V89.7851Z" fill="#C5E6FB"/>
<path d="M54.3109 89.2591L58.8637 84.1413C58.8637 84.0347 58.9722 84.0347 59.0807 84.0347C59.1892 84.0347 59.1892 84.0347 59.2977 84.1413C59.4062 84.1413 59.4062 84.2479 59.4062 84.3545C59.4062 84.4612 59.4062 84.4612 59.2977 84.5678L54.7449 89.6856C54.7306 89.6852 54.7163 89.6877 54.703 89.6929C54.6896 89.6982 54.6775 89.706 54.6673 89.716C54.6572 89.726 54.6492 89.7379 54.6439 89.751C54.6386 89.7641 54.636 89.7781 54.6364 89.7922H54.5323C54.4238 89.7922 54.4238 89.7922 54.3153 89.6856C54.2563 89.6281 54.2182 89.5532 54.2068 89.4724C54.2024 89.3658 54.2024 89.3658 54.3109 89.2591Z" fill="#C5E6FB"/>
<path d="M71.5454 28.2292C71.4396 27.9928 71.2927 27.7763 71.1114 27.5895C70.984 27.4578 70.8247 27.3599 70.6484 27.3051C70.8775 26.8299 70.9985 26.3113 71.0029 25.7854C71.004 25.0607 70.7766 24.3535 70.3518 23.761C70.0278 23.1227 69.3768 22.6962 68.7258 22.3764C67.9677 22.0565 67.3167 22.0565 66.5557 22.1631C65.8575 22.284 65.2149 22.6154 64.7169 23.1114C64.2052 23.598 63.8638 24.2317 63.7419 24.9211C63.6334 25.6674 63.6334 26.4124 63.9589 27.0535L63.9922 27.1175C63.8853 27.1773 63.7984 27.2661 63.7419 27.3734C63.6357 27.4668 63.5516 27.5819 63.4954 27.7105C63.4392 27.8392 63.4122 27.9784 63.4164 28.1183C63.3985 28.4068 63.4353 28.696 63.5249 28.9713C63.6726 29.2097 63.8554 29.4253 64.0674 29.611C64.717 29.9309 65.2595 30.2507 65.909 30.5692C66.6861 30.78 67.4885 30.8876 68.2946 30.8891C69.7037 30.7881 71.9794 29.9351 71.5454 28.2292ZM65.4692 24.9268C65.5939 24.5269 65.8636 24.1859 66.2273 23.9686C66.5907 23.7645 67.0009 23.6545 67.4194 23.6487C67.9524 23.6889 68.4533 23.9146 68.8322 24.2851C69.2111 24.6556 69.4432 25.1467 69.4867 25.6703C69.4951 26.0834 69.3821 26.4901 69.1612 26.8417C68.8357 27.1616 68.5116 27.4814 68.1861 27.5866C67.7521 27.6932 67.4266 27.7999 66.9941 27.6932C66.5615 27.5866 66.126 27.4814 65.909 27.1616C65.665 26.841 65.4817 26.4798 65.368 26.0953C65.2906 25.7026 65.3283 25.2964 65.4765 24.9239L65.4692 24.9268Z" fill="#C5E6FB"/>
<path d="M88.6613 17.1405C88.6454 16.714 88.6121 16.2875 88.5644 15.861C88.497 15.2586 88.3965 14.6602 88.2635 14.0684C88.2229 13.8864 88.1795 13.7059 88.1318 13.5267C88.0667 13.2765 87.9973 13.0277 87.9191 12.7818C87.841 12.5359 88.1173 10.8228 88.0248 10.5726C86.267 5.73197 83.7165 3.26119 78.8035 1.61637C77.0993 1.04772 73.5491 0.847275 71.6539 0.847275H35.7757C33.8617 0.847275 30.6862 0.725015 28.9762 1.29224C26.5803 2.0867 24.3952 3.39688 22.5803 5.12714C20.7655 6.8574 19.3667 8.96407 18.4862 11.2934C18.3546 11.6402 19.5741 12.4207 19.4671 12.7775C19.3918 13.0235 19.3224 13.2723 19.2616 13.5225C19.2557 13.5375 19.2518 13.5533 19.2501 13.5694V13.5694C18.9858 14.6277 18.8288 15.7092 18.7813 16.7979V16.7979C18.7683 17.0538 18.7625 17.3097 18.7625 17.5684V103.531C18.7625 103.781 18.7683 104.03 18.7799 104.277C18.8623 106.147 18.016 108.187 18.6699 109.845C19.4897 111.925 20.7254 113.823 22.304 115.426C23.8825 117.029 25.772 118.305 27.8608 119.179L29.1021 118.929C31.2146 119.808 33.4859 120.259 35.7801 120.255H71.6582C74.0221 120.255 76.4323 121.092 78.4693 120.245C80.5631 119.374 82.4577 118.1 84.0409 116.496C85.6241 114.893 86.8637 112.993 87.6862 110.911C88.343 109.247 88.5774 106.148 88.6584 104.272C88.67 104.027 88.6758 103.78 88.6758 103.531V89.5764H88.4602C88.2432 89.5764 88.0262 89.5764 87.8092 89.5764C82.7956 89.4884 77.8956 88.0941 73.6098 85.5362C73.5013 85.4296 73.2843 85.4296 73.1758 85.4296C72.9588 85.4296 72.8518 85.4296 72.7418 85.5362L61.5762 91.6079L64.9369 78.293V77.9746C64.9441 77.9167 64.9381 77.8579 64.9194 77.8026C64.9006 77.7473 64.8695 77.6967 64.8284 77.6547C60.833 72.2708 58.6705 65.7843 58.6495 59.121C58.6466 42.5079 71.6293 29.0139 87.8063 28.6556C88.0233 28.6556 88.2403 28.6556 88.4573 28.6556H88.6743V17.5755C88.6743 17.4248 88.6656 17.2827 88.6613 17.1405ZM87.8063 26.9568C70.8119 27.3762 57.1362 41.5924 57.1362 59.0087C57.0179 65.8898 59.1872 72.621 63.3151 78.1807L59.6231 92.9869V93.3068C59.6159 93.3647 59.6219 93.4234 59.6406 93.4787C59.6594 93.5341 59.6905 93.5846 59.7316 93.6266C59.8015 93.7041 59.8841 93.7695 59.9761 93.82C60.0195 94.0702 60.5548 92.0529 60.7067 92.2036C60.9161 92.5049 61.2214 92.7295 61.5747 92.8419C61.8988 92.9485 62.3328 92.2377 62.6583 92.2377C66.4516 90.7464 69.5952 88.115 73.1715 86.4091C75.4486 87.4739 77.9456 88.469 80.3254 89.4272C82.277 89.9603 84.3357 90.8118 86.4015 90.4934L85.9675 90.5986C86.5462 90.6938 87.2117 90.4777 87.8106 90.3143V103.109H19.6262V13.1998C19.9321 13.3385 20.2644 13.4122 20.6013 13.4158C23.6394 13.6291 26.6774 13.4158 29.7068 13.4158C33.2831 13.4158 36.8607 13.7357 40.5455 13.7357C53.9868 13.8423 67.4266 13.8423 80.8679 13.6291H86.1788C86.727 13.7141 87.2883 13.6557 87.8063 13.4599V26.9568Z" fill="#C5E6FB"/>
<path d="M87.8063 63.8024V65.2937H89.4324V63.8024H87.8063ZM85.3122 4.04736C82.6025 1.48844 79.0248 0 75.3401 0H32.0837C28.3503 0.00112314 24.7695 1.45655 22.1261 4.04736C19.6247 6.60628 18.1245 9.95847 18.0146 13.4301C18.0146 13.5722 18.0073 13.7144 18.0073 13.8452V107.153C18.0046 110.827 19.486 114.352 22.1261 116.953C24.8358 119.512 28.4134 121 32.0982 121H75.3545C79.0393 121 82.617 119.509 85.3266 116.846C87.9307 114.183 89.4454 110.668 89.4454 107.047V89.5608C89.4092 89.5608 89.3731 89.5608 89.3369 89.5608C89.1199 89.5608 88.9029 89.5708 88.6859 89.5722H88.4703C88.2533 89.5722 88.0363 89.5722 87.8193 89.5722V107.047C87.8169 107.907 87.7199 108.765 87.53 109.606C87.0111 111.907 85.83 114.014 84.1273 115.675C82.5441 117.284 80.5275 118.419 78.313 118.944C77.3426 119.18 76.3468 119.299 75.3473 119.3H32.091C31.0815 119.298 30.0761 119.173 29.0977 118.929C26.9054 118.378 24.9057 117.254 23.3109 115.676C21.5814 114.029 20.3941 111.911 19.9025 109.594C19.7189 108.758 19.6263 107.904 19.6262 107.048V13.8466C19.6262 13.74 19.6262 13.6334 19.6262 13.5267C19.6262 13.4699 19.6262 13.4116 19.6262 13.3547C19.6262 13.1628 19.645 12.9723 19.6638 12.7861C19.6956 12.4316 19.7439 12.08 19.8085 11.7312C20.2668 9.26185 21.4852 6.99017 23.2994 5.22304C24.445 4.07708 25.8114 3.16672 27.3189 2.54506C28.8263 1.9234 30.4446 1.60287 32.0794 1.60217H75.3357C75.917 1.602 76.4974 1.6462 77.0718 1.73438C79.6903 2.12675 82.1569 3.38915 84.1143 5.22304C86.026 7.04421 87.2729 9.43428 87.6616 12.0227C87.7007 12.2757 87.7325 12.5302 87.7542 12.7847C87.7759 13.0391 87.7918 13.2808 87.7976 13.5296C87.7976 13.6362 87.7976 13.7428 87.7976 13.8494V28.6557C88.0146 28.6557 88.2316 28.6557 88.4486 28.6557H88.6743C88.8913 28.6557 89.1083 28.6556 89.3253 28.667H89.4338V13.8466C89.4357 10.1725 87.9533 6.64797 85.3122 4.04736V4.04736ZM89.3224 72.6421C89.2813 72.6841 89.2502 72.7346 89.2314 72.79C89.2127 72.8453 89.2067 72.9041 89.2139 72.9619C89.2139 73.0686 89.3224 73.1752 89.3224 73.2818C89.345 73.2821 89.3671 73.2885 89.3862 73.3002C89.4054 73.312 89.4208 73.3288 89.4309 73.3486V72.3819L89.3224 72.6421ZM87.8063 63.8024V65.2937H89.4324V63.8024H87.8063ZM89.1083 42.3928C89.0229 42.2024 88.8681 42.0502 88.6743 41.9663C88.6402 41.9485 88.6043 41.9342 88.5672 41.9237C88.4788 41.8933 88.3848 41.8815 88.2914 41.8888C88.198 41.8961 88.1072 41.9225 88.0247 41.9663C87.9465 42.0044 87.8736 42.0522 87.8077 42.1085V46.1416L88.5672 44.329L88.6743 44.0746L89.1083 43.0382C89.163 42.9391 89.1917 42.8282 89.1917 42.7155C89.1917 42.6028 89.163 42.4919 89.1083 42.3928ZM87.8063 51.8722V53.3635H89.4324V51.8722H87.8063Z" fill="white"/>
<path d="M31.5486 81.3763L31.4401 81.2697V81.1631C31.4397 81.149 31.4422 81.1349 31.4475 81.1218C31.4529 81.1087 31.4608 81.0968 31.471 81.0868C31.4812 81.0768 31.4933 81.069 31.5066 81.0638C31.52 81.0585 31.5342 81.0561 31.5486 81.0564L54.2039 59.7549C54.2182 59.7551 54.2323 59.7524 54.2455 59.7471C54.2586 59.7418 54.2706 59.7339 54.2806 59.724C54.2906 59.714 54.2984 59.7022 54.3037 59.6892C54.3089 59.6761 54.3114 59.6622 54.311 59.6482H54.5323C54.5467 59.6478 54.561 59.6503 54.5743 59.6555C54.5877 59.6608 54.5998 59.6686 54.6099 59.6786C54.6201 59.6886 54.6281 59.7005 54.6334 59.7136C54.6387 59.7267 54.6412 59.7407 54.6408 59.7549C54.6404 59.769 54.643 59.783 54.6483 59.7961C54.6536 59.8092 54.6616 59.8211 54.6717 59.8311C54.6819 59.8411 54.694 59.8489 54.7073 59.8542C54.7207 59.8594 54.735 59.8619 54.7493 59.8615V60.0733C54.7497 60.0874 54.7472 60.1014 54.7419 60.1146C54.7366 60.1277 54.7286 60.1396 54.7184 60.1496C54.7083 60.1595 54.6962 60.1674 54.6828 60.1726C54.6695 60.1778 54.6552 60.1803 54.6408 60.1799L31.9826 81.4829C31.7656 81.3763 31.7656 81.3763 31.6571 81.3763H31.5486Z" fill="white"/>
<path d="M31.5485 89.7855L31.3315 89.8921C31.2244 89.8921 31.2245 89.8921 31.1159 89.7855C31.057 89.728 31.0189 89.6531 31.0074 89.5723C31.0074 89.4656 31.0074 89.4656 31.1159 89.3604C38.7024 81.5842 46.5074 73.8093 54.3109 66.2463C54.3694 66.1883 54.4456 66.1509 54.5279 66.1396C54.6364 66.1396 54.6364 66.1396 54.7449 66.2463C54.8039 66.3037 54.842 66.3787 54.8534 66.4595C54.8534 66.5661 54.8534 66.5661 54.7449 66.6728C46.9414 74.2401 39.1365 82.0163 31.5485 89.7855Z" fill="white"/>
<path d="M56.371 72.7487L39.2449 89.7855C39.0279 89.6788 39.0279 89.6788 38.9194 89.6788H38.8109L38.7024 89.5722V89.4656C38.7022 89.4516 38.7049 89.4377 38.7103 89.4248C38.7157 89.4118 38.7237 89.4001 38.7338 89.3903C38.744 89.3804 38.756 89.3727 38.7693 89.3676C38.7825 89.3625 38.7967 89.36 38.8109 89.3604L55.9369 72.3237C55.9954 72.2657 56.0717 72.2283 56.154 72.217C56.2625 72.217 56.2625 72.217 56.371 72.3237C56.4299 72.3811 56.468 72.4561 56.4795 72.5369C56.4795 72.6421 56.4795 72.6421 56.371 72.7487Z" fill="white"/>
<path d="M46.5072 89.7851C50.192 86.0576 53.8854 82.1169 57.3459 78.0695L57.4544 77.9629H57.7799L57.8884 78.0695V78.388C54.4163 82.4353 50.7345 86.3775 47.0497 90.105C46.8327 89.9983 46.8327 89.9983 46.6157 90.105H46.5072L46.3987 89.9983V89.8917C46.3983 89.8776 46.4009 89.8636 46.4062 89.8505C46.4115 89.8374 46.4195 89.8254 46.4296 89.8155C46.4398 89.8055 46.4519 89.7976 46.4652 89.7924C46.4786 89.7872 46.4929 89.7847 46.5072 89.7851V89.7851Z" fill="white"/>
<path d="M54.3109 89.2591L58.8637 84.1413C58.8637 84.0347 58.9722 84.0347 59.0807 84.0347C59.1892 84.0347 59.1892 84.0347 59.2977 84.1413C59.4062 84.1413 59.4062 84.2479 59.4062 84.3545C59.4062 84.4612 59.4062 84.4612 59.2977 84.5678L54.7449 89.6856C54.7306 89.6852 54.7163 89.6877 54.703 89.6929C54.6896 89.6982 54.6775 89.706 54.6673 89.716C54.6572 89.726 54.6492 89.7379 54.6439 89.751C54.6386 89.7641 54.636 89.7781 54.6364 89.7922H54.5323C54.4238 89.7922 54.4238 89.7922 54.3153 89.6856C54.2563 89.6281 54.2182 89.5532 54.2068 89.4724C54.2024 89.3658 54.2024 89.3658 54.3109 89.2591Z" fill="white"/>
<path d="M87.8062 46.1416L85.4017 51.8793H88.5657V53.3635H84.7768L80.402 63.8025H88.5642V65.2937H79.777L76.966 72.0038C76.8575 72.1104 76.749 72.3237 76.6405 72.3237C76.5889 72.3887 76.5231 72.4416 76.448 72.4785C76.373 72.5154 76.2905 72.5353 76.2065 72.5369C76.0546 72.5416 75.9043 72.5047 75.7725 72.4303C75.6655 72.3237 75.557 72.3237 75.4485 72.217C75.4073 72.175 75.3762 72.1245 75.3574 72.0692C75.3387 72.0138 75.3327 71.9551 75.3399 71.8972C75.3352 71.7479 75.3728 71.6002 75.4485 71.4707L78.0265 65.2937H70.1362C70.0337 65.2981 69.9315 65.2821 69.8355 65.2466C69.7395 65.2111 69.6519 65.1569 69.5778 65.0873C69.5037 65.0176 69.4448 64.9339 69.4045 64.8412C69.3643 64.7486 69.3435 64.6489 69.3435 64.5481C69.3435 64.4473 69.3643 64.3476 69.4045 64.255C69.4448 64.1623 69.5037 64.0786 69.5778 64.009C69.6519 63.9393 69.7395 63.8851 69.8355 63.8496C69.9315 63.8141 70.0337 63.7981 70.1362 63.8025H78.65L83.0075 53.3635H74.7974C74.695 53.3679 74.5927 53.3519 74.4968 53.3164C74.4008 53.2809 74.3131 53.2267 74.2391 53.157C74.165 53.0873 74.1061 53.0036 74.0658 52.911C74.0255 52.8183 74.0048 52.7186 74.0048 52.6178C74.0048 52.5171 74.0255 52.4174 74.0658 52.3247C74.1061 52.2321 74.165 52.1484 74.2391 52.0787C74.3131 52.009 74.4008 51.9548 74.4968 51.9193C74.5927 51.8838 74.695 51.8678 74.7974 51.8722H83.631L87.5877 42.3928C87.6396 42.2845 87.7134 42.1878 87.8047 42.1085C87.8706 42.0522 87.9435 42.0044 88.0217 41.9663C88.1042 41.9226 88.195 41.8962 88.2884 41.8888C88.3818 41.8815 88.4758 41.8934 88.5642 41.9237V44.322L87.8062 46.1416Z" fill="white"/>
<path d="M87.8064 63.8021V65.2934H89.324V63.8021H87.8064ZM89.1084 12.9947C88.9603 12.8615 88.768 12.7857 88.5673 12.7815H18.7582C18.5575 12.7855 18.3651 12.8613 18.2172 12.9947C18.1043 13.1163 18.0312 13.2683 18.0074 13.4312C18.0028 13.4627 18.0004 13.4946 18.0002 13.5264V103.532C17.998 103.631 18.0161 103.728 18.0535 103.82C18.0908 103.911 18.1465 103.994 18.2174 104.064C18.2882 104.133 18.3726 104.188 18.4656 104.225C18.5585 104.261 18.6581 104.279 18.7582 104.277H88.5644C88.5943 104.279 88.6243 104.279 88.6541 104.277C88.8405 104.26 89.0132 104.174 89.1374 104.037C89.2615 103.899 89.3277 103.72 89.3225 103.536V89.5648C89.1055 89.5648 88.8885 89.5747 88.6715 89.5761H88.4559C88.2389 89.5761 88.0219 89.5761 87.8049 89.5761V102.679H19.6263V14.3794H87.8064V28.6553C88.0234 28.6553 88.2404 28.6553 88.4574 28.6553H88.6744C88.8914 28.6553 89.1084 28.6553 89.3254 28.6667V13.5264C89.3211 13.3292 89.244 13.1402 89.1084 12.9947ZM89.2169 72.9616C89.2169 73.0682 89.3254 73.1749 89.3254 73.2815V72.6418C89.2838 72.6835 89.2521 72.734 89.2329 72.7893C89.2136 72.8446 89.2071 72.9035 89.214 72.9616H89.2169ZM89.1084 42.3967C89.023 42.2063 88.8682 42.0542 88.6744 41.9703C88.6403 41.9524 88.6044 41.9381 88.5673 41.9276C88.4789 41.8973 88.3849 41.8854 88.2915 41.8927C88.1981 41.9001 88.1073 41.9265 88.0248 41.9703C87.9466 42.0083 87.8737 42.0561 87.8078 42.1124V46.1413L88.5673 44.3287L88.6744 44.0743L89.1084 43.0379C89.1631 42.9388 89.1918 42.8279 89.1918 42.7152C89.1918 42.6025 89.1631 42.4915 89.1084 42.3925V42.3967ZM87.8064 51.8761V53.3631H89.324V51.8719L87.8064 51.8761Z" fill="white"/>
<path d="M60.7065 110.774H48.1332C48.0308 110.779 47.9285 110.763 47.8326 110.727C47.7366 110.692 47.6489 110.637 47.5749 110.568C47.5008 110.498 47.4419 110.414 47.4016 110.322C47.3613 110.229 47.3406 110.129 47.3406 110.029C47.3406 109.928 47.3613 109.828 47.4016 109.735C47.4419 109.643 47.5008 109.559 47.5749 109.489C47.6489 109.42 47.7366 109.366 47.8326 109.33C47.9285 109.295 48.0308 109.279 48.1332 109.283H60.7065C60.8089 109.279 60.9112 109.295 61.0072 109.33C61.1031 109.366 61.1908 109.42 61.2649 109.489C61.3389 109.559 61.3979 109.643 61.4381 109.735C61.4784 109.828 61.4992 109.928 61.4992 110.029C61.4992 110.129 61.4784 110.229 61.4381 110.322C61.3979 110.414 61.3389 110.498 61.2649 110.568C61.1908 110.637 61.1031 110.692 61.0072 110.727C60.9112 110.763 60.8089 110.779 60.7065 110.774V110.774Z" fill="white"/>
<path d="M107.315 52.0853C107.167 51.9516 106.975 51.8757 106.774 51.872H99.7777L99.1556 53.3633H106.665C106.896 53.3413 107.118 53.2684 107.315 53.1501C107.454 53.0065 107.532 52.8159 107.532 52.6177C107.532 52.4194 107.454 52.2288 107.315 52.0853V52.0853ZM102.975 43.5641C102.89 43.3731 102.735 43.2208 102.541 43.1376C102.441 43.0851 102.329 43.0576 102.215 43.0576C102.102 43.0576 101.99 43.0851 101.89 43.1376C101.696 43.2208 101.541 43.3731 101.456 43.5641L97.9838 51.872H99.7676L102.969 44.2038C103.024 44.1062 103.054 43.9967 103.056 43.8852C103.057 43.7736 103.031 43.6633 102.979 43.5641H102.975ZM85.4004 51.872L87.8062 46.1415L88.5658 44.3289L88.6728 44.0744L89.1068 43.0381C89.1603 42.9399 89.1882 42.8303 89.1882 42.7189C89.1882 42.6076 89.1603 42.4979 89.1068 42.3998C89.0214 42.2093 88.8666 42.0572 88.6728 41.9733C88.6387 41.9554 88.6029 41.9411 88.5658 41.9306C88.4773 41.9003 88.3833 41.8884 88.2899 41.8958C88.1965 41.9031 88.1057 41.9295 88.0232 41.9733C87.945 42.0113 87.8721 42.0591 87.8062 42.1154C87.7149 42.1947 87.6411 42.2914 87.5892 42.3998L83.6325 51.8791H74.7975C74.6951 51.8747 74.5928 51.8908 74.4968 51.9263C74.4009 51.9617 74.3132 52.016 74.2392 52.0856C74.1651 52.1553 74.1061 52.239 74.0659 52.3317C74.0256 52.4243 74.0049 52.524 74.0049 52.6248C74.0049 52.7255 74.0256 52.8252 74.0659 52.9179C74.1061 53.0106 74.1651 53.0942 74.2392 53.1639C74.3132 53.2336 74.4009 53.2878 74.4968 53.3233C74.5928 53.3588 74.6951 53.3748 74.7975 53.3704H83.0075L78.6501 63.8094H80.402L84.7768 53.3704H97.3718L97.9939 51.8791L85.4004 51.872ZM78.0222 65.2936L75.4442 71.4705C75.3685 71.6 75.3309 71.7477 75.3357 71.897C75.3284 71.9549 75.3344 72.0136 75.3532 72.069C75.372 72.1243 75.403 72.1748 75.4442 72.2169C75.5527 72.3235 75.6612 72.3235 75.7682 72.4301C75.9001 72.5045 76.0503 72.5414 76.2022 72.5367C76.2862 72.5352 76.3687 72.5152 76.4438 72.4783C76.5189 72.4414 76.5846 72.3885 76.6363 72.3235C76.7448 72.3235 76.8533 72.1102 76.9618 72.0036L79.7727 65.2936H78.0222ZM70.1319 63.8023C70.0295 63.7979 69.9272 63.8139 69.8312 63.8494C69.7353 63.8849 69.6476 63.9391 69.5735 64.0088C69.4995 64.0785 69.4405 64.1621 69.4003 64.2548C69.36 64.3475 69.3392 64.4472 69.3392 64.5479C69.3392 64.6487 69.36 64.7484 69.4003 64.841C69.4405 64.9337 69.4995 65.0174 69.5735 65.0871C69.6476 65.1567 69.7353 65.211 69.8312 65.2464C69.9272 65.2819 70.0295 65.298 70.1319 65.2936H78.0265L78.6501 63.8023H70.1319ZM107.312 52.0853C107.164 51.9516 106.972 51.8757 106.771 51.872H99.7777L102.979 44.2038C103.033 44.1054 103.061 43.9955 103.061 43.8839C103.061 43.7724 103.033 43.6625 102.979 43.5641C102.895 43.3731 102.74 43.2208 102.545 43.1376C102.445 43.0851 102.333 43.0576 102.22 43.0576C102.106 43.0576 101.994 43.0851 101.894 43.1376C101.7 43.2208 101.545 43.3731 101.46 43.5641L97.9881 51.872H85.4018L87.8062 46.1415L88.5658 44.3289L88.6728 44.0744L89.1068 43.0381C89.1603 42.9399 89.1882 42.8303 89.1882 42.7189C89.1882 42.6076 89.1603 42.4979 89.1068 42.3998C89.0214 42.2093 88.8666 42.0572 88.6728 41.9733C88.6387 41.9554 88.6029 41.9411 88.5658 41.9306C88.4773 41.9003 88.3833 41.8884 88.2899 41.8958C88.1965 41.9031 88.1057 41.9295 88.0232 41.9733C87.945 42.0113 87.8721 42.0591 87.8062 42.1154C87.7149 42.1947 87.6411 42.2914 87.5892 42.3998L83.6325 51.8791H74.7975C74.6951 51.8747 74.5928 51.8908 74.4968 51.9263C74.4009 51.9617 74.3132 52.016 74.2392 52.0856C74.1651 52.1553 74.1061 52.239 74.0659 52.3317C74.0256 52.4243 74.0049 52.524 74.0049 52.6248C74.0049 52.7255 74.0256 52.8252 74.0659 52.9179C74.1061 53.0106 74.1651 53.0942 74.2392 53.1639C74.3132 53.2336 74.4009 53.2878 74.4968 53.3233C74.5928 53.3588 74.6951 53.3748 74.7975 53.3704H83.0075L78.6501 63.8094H70.1362C70.0338 63.805 69.9315 63.821 69.8356 63.8565C69.7396 63.892 69.6519 63.9462 69.5779 64.0159C69.5038 64.0856 69.4449 64.1693 69.4046 64.2619C69.3643 64.3546 69.3436 64.4543 69.3436 64.555C69.3436 64.6558 69.3643 64.7555 69.4046 64.8482C69.4449 64.9408 69.5038 65.0245 69.5779 65.0942C69.6519 65.1638 69.7396 65.2181 69.8356 65.2536C69.9315 65.289 70.0338 65.3051 70.1362 65.3007H78.0265L75.4485 71.4776C75.3728 71.6072 75.3353 71.7548 75.34 71.9041C75.3328 71.962 75.3388 72.0207 75.3575 72.0761C75.3763 72.1314 75.4074 72.1819 75.4485 72.224C75.557 72.3306 75.6655 72.3306 75.7726 72.4372C75.9044 72.5116 76.0547 72.5485 76.2066 72.5438C76.2905 72.5423 76.373 72.5223 76.4481 72.4854C76.5232 72.4485 76.589 72.3956 76.6406 72.3306C76.7491 72.3306 76.8576 72.1173 76.9661 72.0107L79.777 65.3007H92.3908L89.4309 72.3889L89.3224 72.649C89.2812 72.6911 89.2502 72.7416 89.2314 72.7969C89.2126 72.8523 89.2066 72.911 89.2139 72.9689C89.2139 73.0755 89.3224 73.1822 89.3224 73.2888C89.345 73.289 89.367 73.2954 89.3862 73.3072C89.4053 73.319 89.4208 73.3357 89.4309 73.3556C89.4621 73.4064 89.4984 73.4541 89.5394 73.4977C89.5431 73.5531 89.5672 73.6052 89.6071 73.6445C89.647 73.6837 89.7001 73.7073 89.7564 73.711C89.7989 73.7513 89.8501 73.7818 89.9062 73.8002C89.9622 73.8187 90.0218 73.8246 90.0804 73.8176C90.1662 73.8286 90.2533 73.8142 90.3306 73.7762C90.4079 73.7382 90.472 73.6783 90.5145 73.6044C90.623 73.6044 90.7315 73.3911 90.84 73.2845L94.1674 65.2964H102.105C102.207 65.3095 102.31 65.2967 102.405 65.2594C102.5 65.2221 102.584 65.1614 102.648 65.0832C102.756 64.9788 102.831 64.8448 102.861 64.6986C102.891 64.5524 102.876 64.4006 102.818 64.2629C102.759 64.1252 102.66 64.0078 102.533 63.926C102.406 63.8441 102.257 63.8015 102.105 63.8037H94.7967L99.1556 53.3647H106.665C106.896 53.3428 107.118 53.2699 107.315 53.1515C107.454 53.0079 107.532 52.8173 107.532 52.6191C107.532 52.4209 107.454 52.2302 107.315 52.0867L107.312 52.0853ZM93.0144 63.8023H80.402L84.7768 53.3633H97.3718L93.0144 63.8023ZM107.316 52.0853C107.169 51.9516 106.976 51.8757 106.775 51.872H99.7777L102.979 44.2038C103.033 44.1054 103.061 43.9955 103.061 43.8839C103.061 43.7724 103.033 43.6625 102.979 43.5641C102.895 43.3731 102.74 43.2208 102.545 43.1376C102.445 43.0851 102.333 43.0576 102.22 43.0576C102.106 43.0576 101.994 43.0851 101.894 43.1376C101.7 43.2208 101.545 43.3731 101.46 43.5641L97.9881 51.872H85.4018L87.8062 46.1415L88.5658 44.3289L88.6728 44.0744L89.1068 43.0381C89.1603 42.9399 89.1882 42.8303 89.1882 42.7189C89.1882 42.6076 89.1603 42.4979 89.1068 42.3998C89.0214 42.2093 88.8666 42.0572 88.6728 41.9733C88.6387 41.9554 88.6029 41.9411 88.5658 41.9306C88.4773 41.9003 88.3833 41.8884 88.2899 41.8958C88.1965 41.9031 88.1057 41.9295 88.0232 41.9733C87.945 42.0113 87.8721 42.0591 87.8062 42.1154C87.7149 42.1947 87.6411 42.2914 87.5892 42.3998L83.6325 51.8791H74.7975C74.6951 51.8747 74.5928 51.8908 74.4968 51.9263C74.4009 51.9617 74.3132 52.016 74.2392 52.0856C74.1651 52.1553 74.1061 52.239 74.0659 52.3317C74.0256 52.4243 74.0049 52.524 74.0049 52.6248C74.0049 52.7255 74.0256 52.8252 74.0659 52.9179C74.1061 53.0106 74.1651 53.0942 74.2392 53.1639C74.3132 53.2336 74.4009 53.2878 74.4968 53.3233C74.5928 53.3588 74.6951 53.3748 74.7975 53.3704H83.0075L78.6501 63.8094H70.1362C70.0338 63.805 69.9315 63.821 69.8356 63.8565C69.7396 63.892 69.6519 63.9462 69.5779 64.0159C69.5038 64.0856 69.4449 64.1693 69.4046 64.2619C69.3643 64.3546 69.3436 64.4543 69.3436 64.555C69.3436 64.6558 69.3643 64.7555 69.4046 64.8482C69.4449 64.9408 69.5038 65.0245 69.5779 65.0942C69.6519 65.1638 69.7396 65.2181 69.8356 65.2536C69.9315 65.289 70.0338 65.3051 70.1362 65.3007H78.0265L75.4485 71.4776C75.3728 71.6072 75.3353 71.7548 75.34 71.9041C75.3328 71.962 75.3388 72.0207 75.3575 72.0761C75.3763 72.1314 75.4074 72.1819 75.4485 72.224C75.557 72.3306 75.6655 72.3306 75.7726 72.4372C75.9044 72.5116 76.0547 72.5485 76.2066 72.5438C76.2905 72.5423 76.373 72.5223 76.4481 72.4854C76.5232 72.4485 76.589 72.3956 76.6406 72.3306C76.7491 72.3306 76.8576 72.1173 76.9661 72.0107L79.777 65.3007H92.3908L89.4309 72.3889L89.3224 72.649C89.2812 72.6911 89.2502 72.7416 89.2314 72.7969C89.2126 72.8523 89.2066 72.911 89.2139 72.9689C89.2139 73.0755 89.3224 73.1822 89.3224 73.2888C89.345 73.289 89.367 73.2954 89.3862 73.3072C89.4053 73.319 89.4208 73.3357 89.4309 73.3556C89.4621 73.4064 89.4984 73.4541 89.5394 73.4977C89.5431 73.5531 89.5672 73.6052 89.6071 73.6445C89.647 73.6837 89.7001 73.7073 89.7564 73.711C89.7989 73.7513 89.8501 73.7818 89.9062 73.8002C89.9622 73.8187 90.0218 73.8246 90.0804 73.8176C90.1662 73.8286 90.2533 73.8142 90.3306 73.7762C90.4079 73.7382 90.472 73.6783 90.5145 73.6044C90.623 73.6044 90.7315 73.3911 90.84 73.2845L94.1674 65.2964H102.105C102.207 65.3095 102.31 65.2967 102.405 65.2594C102.5 65.2221 102.584 65.1614 102.648 65.0832C102.756 64.9788 102.831 64.8448 102.861 64.6986C102.891 64.5524 102.876 64.4006 102.818 64.2629C102.759 64.1252 102.66 64.0078 102.533 63.926C102.406 63.8441 102.257 63.8015 102.105 63.8037H94.7967L99.1556 53.3647H106.665C106.896 53.3428 107.118 53.2699 107.315 53.1515C107.454 53.0079 107.532 52.8173 107.532 52.6191C107.532 52.4209 107.454 52.2302 107.315 52.0867L107.316 52.0853ZM93.0144 63.8023H80.402L84.7768 53.3633H97.3718L93.0144 63.8023ZM89.4309 27.8153H89.3224C89.1054 27.8082 88.8884 27.8054 88.6714 27.804H88.4558C88.2388 27.804 88.0218 27.804 87.8048 27.804C71.1967 28.1565 57.8885 41.9718 57.8885 59.0057C57.8769 65.8223 60.0796 72.4647 64.1758 77.9659L60.6169 92.249L60.3811 93.1972L72.9587 86.2838L73.1714 86.1672C73.2727 86.227 73.374 86.2852 73.4767 86.3421C77.8281 88.8249 82.7457 90.1909 87.7759 90.3141H87.8062C87.9871 90.3141 88.1679 90.3141 88.3487 90.3141H88.6743C88.8913 90.3141 89.1083 90.3099 89.3253 90.3013H89.4338C105.836 89.7241 118.91 75.9955 118.91 59.1152C118.91 42.195 105.781 28.347 89.4309 27.8153ZM89.4309 89.5607C89.3947 89.5607 89.3585 89.5607 89.3224 89.5607C89.1054 89.5607 88.8884 89.5706 88.6714 89.572H88.4558C88.2388 89.572 88.0218 89.572 87.8048 89.572C82.7912 89.484 77.8912 88.0898 73.6054 85.5318C73.4969 85.4252 73.2799 85.4252 73.1714 85.4252C72.9544 85.4252 72.8474 85.4252 72.7374 85.5318L61.5718 91.6035L64.9325 78.2886V77.9702C64.9397 77.9123 64.9337 77.8535 64.915 77.7982C64.8962 77.7429 64.8651 77.6923 64.824 77.6503C60.8286 72.2665 58.6661 65.7799 58.6451 59.1166C58.6465 42.5078 71.6292 29.0138 87.8062 28.6555C88.0232 28.6555 88.2402 28.6555 88.4573 28.6555H88.6743C88.8913 28.6555 89.1083 28.6555 89.3253 28.6669H89.4338C105.356 29.1943 118.267 42.6187 118.267 59.1123C118.267 75.606 105.456 89.0361 89.4309 89.5607ZM106.774 51.872H99.7777L102.979 44.2038C103.033 44.1054 103.061 43.9955 103.061 43.8839C103.061 43.7724 103.033 43.6625 102.979 43.5641C102.895 43.3731 102.74 43.2208 102.545 43.1376C102.445 43.0851 102.333 43.0576 102.22 43.0576C102.106 43.0576 101.994 43.0851 101.894 43.1376C101.7 43.2208 101.545 43.3731 101.46 43.5641L97.9881 51.872H85.4018L87.8062 46.1415L88.5658 44.3289L88.6728 44.0744L89.1068 43.0381C89.1603 42.9399 89.1882 42.8303 89.1882 42.7189C89.1882 42.6076 89.1603 42.4979 89.1068 42.3998C89.0214 42.2093 88.8666 42.0572 88.6728 41.9733C88.6387 41.9554 88.6029 41.9411 88.5658 41.9306C88.4773 41.9003 88.3833 41.8884 88.2899 41.8958C88.1965 41.9031 88.1057 41.9295 88.0232 41.9733C87.945 42.0113 87.8721 42.0591 87.8062 42.1154C87.7149 42.1947 87.6411 42.2914 87.5892 42.3998L83.6325 51.8791H74.7975C74.6951 51.8747 74.5928 51.8908 74.4968 51.9263C74.4009 51.9617 74.3132 52.016 74.2392 52.0856C74.1651 52.1553 74.1061 52.239 74.0659 52.3317C74.0256 52.4243 74.0049 52.524 74.0049 52.6248C74.0049 52.7255 74.0256 52.8252 74.0659 52.9179C74.1061 53.0106 74.1651 53.0942 74.2392 53.1639C74.3132 53.2336 74.4009 53.2878 74.4968 53.3233C74.5928 53.3588 74.6951 53.3748 74.7975 53.3704H83.0075L78.6501 63.8094H70.1362C70.0338 63.805 69.9315 63.821 69.8356 63.8565C69.7396 63.892 69.6519 63.9462 69.5779 64.0159C69.5038 64.0856 69.4449 64.1693 69.4046 64.2619C69.3643 64.3546 69.3436 64.4543 69.3436 64.555C69.3436 64.6558 69.3643 64.7555 69.4046 64.8482C69.4449 64.9408 69.5038 65.0245 69.5779 65.0942C69.6519 65.1638 69.7396 65.2181 69.8356 65.2536C69.9315 65.289 70.0338 65.3051 70.1362 65.3007H78.0265L75.4485 71.4776C75.3728 71.6072 75.3353 71.7548 75.34 71.9041C75.3328 71.962 75.3388 72.0207 75.3575 72.0761C75.3763 72.1314 75.4074 72.1819 75.4485 72.224C75.557 72.3306 75.6655 72.3306 75.7726 72.4372C75.9044 72.5116 76.0547 72.5485 76.2066 72.5438C76.2905 72.5423 76.373 72.5223 76.4481 72.4854C76.5232 72.4485 76.589 72.3956 76.6406 72.3306C76.7491 72.3306 76.8576 72.1173 76.9661 72.0107L79.777 65.3007H92.3908L89.4309 72.3889L89.3224 72.649C89.2812 72.6911 89.2502 72.7416 89.2314 72.7969C89.2126 72.8523 89.2066 72.911 89.2139 72.9689C89.2139 73.0755 89.3224 73.1822 89.3224 73.2888C89.345 73.289 89.367 73.2954 89.3862 73.3072C89.4053 73.319 89.4208 73.3357 89.4309 73.3556C89.4621 73.4064 89.4984 73.4541 89.5394 73.4977C89.5431 73.5531 89.5672 73.6052 89.6071 73.6445C89.647 73.6837 89.7001 73.7073 89.7564 73.711C89.7989 73.7513 89.8501 73.7818 89.9062 73.8002C89.9622 73.8187 90.0218 73.8246 90.0804 73.8176C90.1662 73.8286 90.2533 73.8142 90.3306 73.7762C90.4079 73.7382 90.472 73.6783 90.5145 73.6044C90.623 73.6044 90.7315 73.3911 90.84 73.2845L94.1674 65.2964H102.105C102.207 65.3095 102.31 65.2967 102.405 65.2594C102.5 65.2221 102.584 65.1614 102.648 65.0832C102.756 64.9788 102.831 64.8448 102.861 64.6986C102.891 64.5524 102.876 64.4006 102.818 64.2629C102.759 64.1252 102.66 64.0078 102.533 63.926C102.406 63.8441 102.257 63.8015 102.105 63.8037H94.7967L99.1556 53.3647H106.665C106.896 53.3428 107.118 53.2699 107.315 53.1515C107.423 53.0472 107.497 52.9134 107.528 52.7673C107.558 52.6212 107.543 52.4696 107.485 52.3319C107.427 52.1943 107.328 52.0769 107.201 51.9949C107.074 51.9129 106.926 51.8701 106.774 51.872V51.872ZM93.0144 63.8023H80.402L84.7768 53.3633H97.3718L93.0144 63.8023ZM85.4018 51.872L87.8062 46.1415L88.5658 44.3289L88.6728 44.0744L89.1068 43.0381C89.1603 42.9399 89.1882 42.8303 89.1882 42.7189C89.1882 42.6076 89.1603 42.4979 89.1068 42.3998C89.0214 42.2093 88.8666 42.0572 88.6728 41.9733C88.6387 41.9554 88.6029 41.9411 88.5658 41.9306C88.4773 41.9003 88.3833 41.8884 88.2899 41.8958C88.1965 41.9031 88.1057 41.9295 88.0232 41.9733C87.945 42.0113 87.8721 42.0591 87.8062 42.1154C87.7149 42.1947 87.6411 42.2914 87.5892 42.3998L83.6325 51.8791H74.7975C74.6951 51.8747 74.5928 51.8908 74.4968 51.9263C74.4009 51.9617 74.3132 52.016 74.2392 52.0856C74.1651 52.1553 74.1061 52.239 74.0659 52.3317C74.0256 52.4243 74.0049 52.524 74.0049 52.6248C74.0049 52.7255 74.0256 52.8252 74.0659 52.9179C74.1061 53.0106 74.1651 53.0942 74.2392 53.1639C74.3132 53.2336 74.4009 53.2878 74.4968 53.3233C74.5928 53.3588 74.6951 53.3748 74.7975 53.3704H83.0075L78.6501 63.8094H70.1362C70.0338 63.805 69.9315 63.821 69.8356 63.8565C69.7396 63.892 69.6519 63.9462 69.5779 64.0159C69.5038 64.0856 69.4449 64.1693 69.4046 64.2619C69.3643 64.3546 69.3436 64.4543 69.3436 64.555C69.3436 64.6558 69.3643 64.7555 69.4046 64.8482C69.4449 64.9408 69.5038 65.0245 69.5779 65.0942C69.6519 65.1638 69.7396 65.2181 69.8356 65.2536C69.9315 65.289 70.0338 65.3051 70.1362 65.3007H78.0265L75.4485 71.4776C75.3728 71.6072 75.3353 71.7548 75.34 71.9041C75.3328 71.962 75.3388 72.0207 75.3575 72.0761C75.3763 72.1314 75.4074 72.1819 75.4485 72.224C75.557 72.3306 75.6655 72.3306 75.7726 72.4372C75.9044 72.5116 76.0547 72.5485 76.2066 72.5438C76.2905 72.5423 76.373 72.5223 76.4481 72.4854C76.5232 72.4485 76.589 72.3956 76.6406 72.3306C76.7491 72.3306 76.8576 72.1173 76.9661 72.0107L79.777 65.3007H87.8062V63.8023H80.402L84.7768 53.3633H97.3718L97.9939 51.872H85.4018ZM102.981 43.5641C102.896 43.3731 102.741 43.2208 102.547 43.1376C102.446 43.0851 102.335 43.0576 102.221 43.0576C102.108 43.0576 101.996 43.0851 101.896 43.1376C101.701 43.2208 101.546 43.3731 101.462 43.5641L97.9896 51.872H99.7733L102.975 44.2038C103.029 44.1057 103.058 43.996 103.058 43.8845C103.059 43.7729 103.032 43.6628 102.979 43.5641H102.981ZM107.321 52.0853C107.173 51.9516 106.981 51.8757 106.78 51.872H99.7777L99.1556 53.3633H106.665C106.896 53.3413 107.118 53.2684 107.315 53.1501C107.454 53.0065 107.532 52.8159 107.532 52.6177C107.532 52.4194 107.454 52.2288 107.315 52.0853H107.321ZM70.1406 63.8023C70.0381 63.7979 69.9359 63.8139 69.8399 63.8494C69.7439 63.8849 69.6563 63.9391 69.5822 64.0088C69.5082 64.0785 69.4492 64.1621 69.4089 64.2548C69.3687 64.3475 69.3479 64.4472 69.3479 64.5479C69.3479 64.6487 69.3687 64.7484 69.4089 64.841C69.4492 64.9337 69.5082 65.0174 69.5822 65.0871C69.6563 65.1567 69.7439 65.211 69.8399 65.2464C69.9359 65.2819 70.0381 65.298 70.1406 65.2936H78.0265L78.6501 63.8023H70.1406ZM78.0309 65.2936L75.4529 71.4705C75.3772 71.6 75.3396 71.7477 75.3444 71.897C75.3371 71.9549 75.3431 72.0136 75.3619 72.069C75.3806 72.1243 75.4117 72.1748 75.4529 72.2169C75.5614 72.3235 75.6699 72.3235 75.7769 72.4301C75.9087 72.5045 76.059 72.5414 76.2109 72.5367C76.2949 72.5352 76.3774 72.5152 76.4525 72.4783C76.5275 72.4414 76.5933 72.3885 76.6449 72.3235C76.7534 72.3235 76.8619 72.1102 76.9704 72.0036L79.7814 65.2936H78.0309ZM87.5921 42.3926L83.6354 51.872H74.7975C74.6951 51.8676 74.5928 51.8837 74.4968 51.9191C74.4009 51.9546 74.3132 52.0089 74.2392 52.0785C74.1651 52.1482 74.1061 52.2319 74.0659 52.3245C74.0256 52.4172 74.0049 52.5169 74.0049 52.6177C74.0049 52.7184 74.0256 52.8181 74.0659 52.9108C74.1061 53.0034 74.1651 53.0871 74.2392 53.1568C74.3132 53.2265 74.4009 53.2807 74.4968 53.3162C74.5928 53.3517 74.6951 53.3677 74.7975 53.3633H83.0075L78.6501 63.8023H80.402L84.7768 53.3633L85.4004 51.872L87.8062 46.1415V42.1026C87.7138 42.1834 87.6394 42.2822 87.5878 42.3926H87.5921ZM89.1097 42.3926C89.0243 42.2022 88.8695 42.0501 88.6757 41.9662V44.0673L89.1097 43.031C89.1629 42.9327 89.1906 42.823 89.1904 42.7116C89.1901 42.6003 89.1619 42.4907 89.1083 42.3926H89.1097ZM89.4352 51.872V53.3633H97.3762L97.9982 51.872H89.4352ZM102.984 43.5641C102.899 43.3731 102.744 43.2208 102.55 43.1376C102.449 43.0851 102.338 43.0576 102.224 43.0576C102.111 43.0576 101.999 43.0851 101.899 43.1376C101.704 43.2208 101.549 43.3731 101.465 43.5641L97.9924 51.872H99.7762L102.978 44.2038C103.031 44.1055 103.06 43.9957 103.06 43.8841C103.06 43.7725 103.032 43.6626 102.979 43.5641H102.984ZM107.324 52.0853C107.176 51.9516 106.983 51.8757 106.783 51.872H99.7777L99.1556 53.3633H106.665C106.896 53.3413 107.118 53.2684 107.315 53.1501C107.454 53.0065 107.532 52.8159 107.532 52.6177C107.532 52.4194 107.454 52.2288 107.315 52.0853H107.324Z" fill="white"/>
<path d="M89.4313 26.9593H89.3228C89.1057 26.9593 88.8887 26.9521 88.6717 26.9521H88.5647C88.3101 26.9521 88.0569 26.955 87.8052 26.9607C70.8122 27.3758 57.1366 41.592 57.1366 59.0083C57.0182 65.8894 59.1875 72.6207 63.3154 78.1803L59.6234 92.9865V93.3064C59.6162 93.3643 59.6222 93.423 59.6409 93.4784C59.6597 93.5337 59.6908 93.5842 59.7319 93.6263C59.8018 93.7038 59.8844 93.7691 59.9764 93.8196C60.0014 93.8309 60.0285 93.8372 60.056 93.8381C60.1499 93.9073 60.2641 93.9447 60.3815 93.9447C60.4989 93.9447 60.6131 93.9073 60.707 93.8381L73.3888 87.0143C77.7643 89.5512 82.7277 90.9456 87.8066 91.0645C88.0598 91.0645 88.313 91.0744 88.5661 91.0744H88.8005C88.9755 91.0744 89.1506 91.0744 89.3242 91.0744H89.4327C106.375 90.6039 120 76.4118 120 59.0254C120 41.6389 106.374 27.4298 89.4313 26.9593ZM88.5632 89.5761H88.4547C88.2377 89.5761 88.0207 89.5761 87.8037 89.5761C82.7901 89.488 77.8902 88.0938 73.6044 85.5358C73.4959 85.4292 73.2788 85.4292 73.1703 85.4292C72.9533 85.4292 72.8463 85.4292 72.7363 85.5358L61.5707 91.6075L64.9314 78.2926V77.9742C64.9386 77.9163 64.9326 77.8575 64.9139 77.8022C64.8951 77.7469 64.864 77.6964 64.8229 77.6543C60.8275 72.2705 58.665 65.7839 58.644 59.1206C58.6469 42.5075 71.6296 29.0135 87.8066 28.6553C88.0236 28.6553 88.2406 28.6553 88.4576 28.6553H88.6746C88.8916 28.6553 89.1086 28.6553 89.3256 28.6666H89.4342C105.357 29.194 118.267 42.6184 118.267 59.1121C118.267 75.6058 105.456 89.0358 89.4313 89.5604C89.3951 89.5604 89.3589 89.5604 89.3228 89.5604C89.1057 89.5604 88.8887 89.5704 88.6717 89.5718L88.5632 89.5761Z" fill="white"/>
<path d="M42.6057 23.7523C42.2802 23.1139 41.6292 22.6875 40.9796 22.3676C40.2201 22.0477 39.5706 22.0477 38.8096 22.1543C38.1097 22.277 37.4664 22.6115 36.9694 23.1111C36.4572 23.5976 36.1153 24.2313 35.9929 24.9208C35.8844 25.6672 35.8844 26.4121 36.2099 27.0533C36.3037 27.2387 36.41 27.4177 36.5281 27.5892C36.8173 28.0101 37.188 28.3709 37.619 28.6512C38.2223 29.0675 38.9418 29.2904 39.6791 29.2895C40.6541 29.2895 41.6292 28.863 42.1717 28.3313C42.8538 27.6466 43.2418 26.7304 43.2553 25.7724C43.2554 25.0494 43.0286 24.3439 42.6057 23.7523V23.7523ZM37.7275 24.9237C37.8521 24.5238 38.1219 24.1828 38.4855 23.9655C38.8494 23.7613 39.2601 23.6512 39.6791 23.6456C40.2112 23.6873 40.7107 23.914 41.088 24.285C41.4653 24.6561 41.6957 25.1471 41.7377 25.67C41.7461 26.0831 41.6331 26.4899 41.4122 26.8414C41.0881 27.1613 40.7626 27.4812 40.4371 27.5864C40.0031 27.693 39.6791 27.7996 39.2451 27.693C38.811 27.5864 38.4855 27.4812 38.1615 27.1613C37.9169 26.8408 37.7332 26.4796 37.619 26.0951C37.5416 25.7024 37.5792 25.2962 37.7275 24.9237Z" fill="white"/>
<path d="M56.4795 23.7523C56.154 23.1139 55.5044 22.6875 54.8534 22.3676C54.0953 22.0477 53.4443 22.0477 52.6833 22.1543C51.9835 22.277 51.3401 22.6115 50.8431 23.1111C50.3309 23.5974 49.9895 24.2312 49.8681 24.9208C49.7596 25.6672 49.7596 26.4121 50.0836 27.0533C50.1473 27.1798 50.2167 27.302 50.2905 27.42C50.5943 27.9139 51.0053 28.3357 51.4942 28.6554C52.0975 29.0718 52.817 29.2947 53.5543 29.2937C54.5293 29.2937 55.5059 28.8672 56.0469 28.3356C56.4046 27.9794 56.6842 27.5551 56.8686 27.0888C57.0391 26.6725 57.1279 26.2282 57.1305 25.7795C57.1323 25.0538 56.9049 24.3455 56.4795 23.7523V23.7523ZM51.6012 24.9237C51.7262 24.5228 51.9971 24.1812 52.3622 23.9641C52.7254 23.7595 53.1357 23.6494 53.5543 23.6442C54.0864 23.6865 54.5858 23.9136 54.963 24.2848C55.3403 24.656 55.5706 25.1471 55.6129 25.67C55.6213 26.0831 55.5083 26.4899 55.2874 26.8414C54.9619 27.1613 54.6364 27.4812 54.3109 27.5864C53.8769 27.693 53.5528 27.7996 53.1188 27.693C52.6848 27.5864 52.3607 27.4812 52.0352 27.1613C51.7914 26.8411 51.6081 26.4804 51.4942 26.0965C51.4161 25.7035 51.4532 25.2968 51.6012 24.9237V24.9237Z" fill="white"/>
<path d="M70.3533 23.7523C70.0293 23.1139 69.3782 22.6875 68.7272 22.3676C67.9692 22.0477 67.3181 22.0477 66.5572 22.1543C65.8574 22.2773 65.2141 22.6118 64.717 23.1111C64.2053 23.5978 63.8639 24.2314 63.7419 24.9208C63.6334 25.6672 63.6334 26.4121 63.9589 27.0533L63.9922 27.1172C64.3056 27.7396 64.7801 28.2701 65.368 28.6554C65.9708 29.0717 66.6899 29.2947 67.4266 29.2937C68.4032 29.2937 69.3782 28.8672 69.9208 28.3356C70.6025 27.6507 70.9904 26.7346 71.0043 25.7766C71.0055 25.0519 70.778 24.3447 70.3533 23.7523V23.7523ZM65.4765 24.9237C65.6011 24.5238 65.8709 24.1828 66.2346 23.9655C66.598 23.7614 67.0081 23.6514 67.4266 23.6456C67.9588 23.6875 68.4584 23.9143 68.8359 24.2852C69.2134 24.6562 69.4441 25.1471 69.4867 25.67C69.4951 26.0831 69.3821 26.4899 69.1612 26.8414C68.8357 27.1613 68.5117 27.4812 68.1862 27.5864C67.7521 27.693 67.4266 27.7996 66.9941 27.693C66.5615 27.5864 66.1261 27.4812 65.9091 27.1613C65.665 26.8407 65.4817 26.4795 65.368 26.0951C65.2907 25.7024 65.3283 25.2962 65.4765 24.9237Z" fill="white"/>
<path d="M89.1085 43.0314L88.6745 44.0677L88.5675 44.3222L87.8065 46.1419L85.4021 51.8795L84.7786 53.3708L80.4037 63.8098L79.7788 65.3011L76.9678 72.0111C76.8593 72.1178 76.7508 72.331 76.6423 72.331C76.5907 72.396 76.5249 72.4489 76.4498 72.4858C76.3747 72.5227 76.2922 72.5427 76.2083 72.5442C76.0564 72.5489 75.9061 72.512 75.7743 72.4376C75.6672 72.331 75.5587 72.331 75.4502 72.2244C75.4091 72.1823 75.378 72.1318 75.3592 72.0765C75.3405 72.0212 75.3345 71.9624 75.3417 71.9045C75.337 71.7552 75.3746 71.6076 75.4502 71.478L78.0282 65.3011L78.6518 63.8098L83.0092 53.3708L83.6328 51.8795L87.5895 42.4002C87.6414 42.2918 87.7152 42.1951 87.8065 42.1158C87.8723 42.0595 87.9453 42.0117 88.0235 41.9737C88.106 41.9299 88.1968 41.9035 88.2902 41.8962C88.3836 41.8888 88.4775 41.9007 88.566 41.931C88.6031 41.9415 88.639 41.9558 88.6731 41.9737C88.8669 42.0576 89.0217 42.2097 89.1071 42.4002C89.1595 42.4973 89.187 42.6056 89.1873 42.7156C89.1875 42.8256 89.1605 42.9339 89.1085 43.0314V43.0314Z" fill="white"/>
<path d="M102.979 44.204L99.7777 51.8722L99.1556 53.3635L94.7967 63.8024L94.1717 65.2937L90.8443 73.2818C90.7358 73.3884 90.6273 73.6017 90.5188 73.6017C90.4763 73.6757 90.4123 73.7355 90.3349 73.7735C90.2576 73.8115 90.1705 73.8259 90.0848 73.8149C90.0261 73.8219 89.9665 73.816 89.9105 73.7976C89.8544 73.7791 89.8033 73.7486 89.7607 73.7083C89.7044 73.7046 89.6513 73.681 89.6114 73.6418C89.5715 73.6025 89.5474 73.5504 89.5437 73.4951C89.5027 73.4514 89.4664 73.4038 89.4352 73.3529C89.4251 73.333 89.4096 73.3163 89.3905 73.3045C89.3714 73.2927 89.3493 73.2864 89.3267 73.2861C89.3267 73.1795 89.2182 73.0728 89.2182 72.9662C89.211 72.9083 89.2169 72.8496 89.2357 72.7943C89.2545 72.7389 89.2856 72.6884 89.3267 72.6464L89.4352 72.3862L92.3951 65.298L93.0172 63.8067L97.3761 53.3677L97.9982 51.8764L101.47 43.5685C101.555 43.3776 101.71 43.2252 101.904 43.142C102.004 43.0895 102.116 43.062 102.23 43.062C102.343 43.062 102.455 43.0895 102.555 43.142C102.75 43.2252 102.905 43.3776 102.989 43.5685C103.04 43.6672 103.066 43.7767 103.065 43.8875C103.063 43.9982 103.033 44.1069 102.979 44.204V44.204Z" fill="white"/>
<path d="M107.532 52.6186C107.528 52.8159 107.451 53.005 107.315 53.1503C107.118 53.2687 106.896 53.3416 106.665 53.3636H74.7975C74.6951 53.368 74.5928 53.3519 74.4969 53.3165C74.4009 53.281 74.3133 53.2267 74.2392 53.1571C74.1651 53.0874 74.1062 53.0037 74.0659 52.9111C74.0256 52.8184 74.0049 52.7187 74.0049 52.6179C74.0049 52.5172 74.0256 52.4175 74.0659 52.3248C74.1062 52.2322 74.1651 52.1485 74.2392 52.0788C74.3133 52.0091 74.4009 51.9549 74.4969 51.9194C74.5928 51.8839 74.6951 51.8679 74.7975 51.8723H106.77C106.87 51.8702 106.97 51.888 107.063 51.9248C107.156 51.9615 107.24 52.0165 107.311 52.0862C107.382 52.156 107.438 52.2391 107.475 52.3306C107.512 52.4221 107.53 52.5201 107.528 52.6186H107.532Z" fill="white"/>
<path d="M102.873 64.5469C102.868 64.7446 102.791 64.9341 102.656 65.08C102.591 65.1582 102.508 65.2189 102.413 65.2563C102.318 65.2936 102.214 65.3063 102.113 65.2933H70.1409C70.0385 65.2977 69.9362 65.2816 69.8402 65.2461C69.7443 65.2107 69.6566 65.1564 69.5826 65.0868C69.5085 65.0171 69.4496 64.9334 69.4093 64.8407C69.369 64.7481 69.3483 64.6484 69.3483 64.5476C69.3483 64.4469 69.369 64.3472 69.4093 64.2545C69.4496 64.1618 69.5085 64.0782 69.5826 64.0085C69.6566 63.9388 69.7443 63.8846 69.8402 63.8491C69.9362 63.8136 70.0385 63.7976 70.1409 63.802H102.113C102.213 63.7997 102.313 63.8173 102.406 63.8539C102.499 63.8905 102.584 63.9453 102.655 64.0149C102.726 64.0845 102.782 64.1676 102.819 64.259C102.857 64.3504 102.875 64.4484 102.873 64.5469V64.5469Z" fill="white"/>
<path d="M54.745 59.8615V60.0733C54.7454 60.0874 54.7429 60.1014 54.7376 60.1146C54.7322 60.1277 54.7243 60.1396 54.7141 60.1496C54.704 60.1595 54.6918 60.1674 54.6785 60.1726C54.6651 60.1778 54.6509 60.1803 54.6365 60.1799L31.9826 81.4829C31.7656 81.3763 31.7656 81.3763 31.6571 81.3763H31.5486L31.4401 81.2697V81.1631C31.4397 81.149 31.4422 81.1349 31.4475 81.1218C31.4529 81.1087 31.4608 81.0968 31.471 81.0868C31.4812 81.0768 31.4933 81.069 31.5066 81.0638C31.52 81.0585 31.5342 81.0561 31.5486 81.0564L54.2039 59.7549C54.2182 59.7551 54.2323 59.7524 54.2455 59.7471C54.2587 59.7418 54.2706 59.7339 54.2806 59.724C54.2906 59.714 54.2984 59.7022 54.3037 59.6892C54.3089 59.6761 54.3114 59.6622 54.311 59.6482H54.5323C54.5467 59.6478 54.561 59.6503 54.5743 59.6555C54.5877 59.6608 54.5998 59.6686 54.6099 59.6786C54.6201 59.6886 54.6281 59.7005 54.6334 59.7136C54.6387 59.7267 54.6412 59.7407 54.6408 59.7549C54.6405 59.7686 54.6429 59.7823 54.6479 59.7951C54.6529 59.8079 54.6605 59.8197 54.6702 59.8296C54.6799 59.8395 54.6915 59.8474 54.7044 59.8529C54.7172 59.8584 54.731 59.8613 54.745 59.8615V59.8615Z" fill="white"/>
<path d="M54.8534 66.4709C54.8534 66.5775 54.8534 66.5775 54.7449 66.6841C46.9414 74.2401 39.1365 82.0163 31.5485 89.7855L31.3315 89.8921C31.2244 89.8921 31.2245 89.8921 31.1159 89.7855C31.057 89.728 31.0189 89.6531 31.0074 89.5723C31.0074 89.4656 31.0074 89.4656 31.1159 89.3604C38.7024 81.5842 46.5074 73.8093 54.3109 66.2463C54.3694 66.1883 54.4456 66.1509 54.5279 66.1396C54.6364 66.1396 54.6364 66.1396 54.7449 66.2463C54.8062 66.3067 54.8445 66.386 54.8534 66.4709V66.4709Z" fill="white"/>
<path d="M56.4795 72.5369C56.4795 72.6421 56.4795 72.6421 56.371 72.7487L39.2449 89.7855C39.0279 89.6788 39.0279 89.6788 38.9194 89.6788H38.8109L38.7024 89.5722V89.4656C38.7022 89.4516 38.7049 89.4377 38.7103 89.4248C38.7157 89.4118 38.7237 89.4001 38.7338 89.3903C38.744 89.3804 38.756 89.3727 38.7693 89.3676C38.7825 89.3625 38.7967 89.36 38.8109 89.3604L55.9369 72.3237C55.9954 72.2657 56.0717 72.2283 56.154 72.217C56.2625 72.217 56.2625 72.217 56.371 72.3237C56.4299 72.3811 56.468 72.4561 56.4795 72.5369V72.5369Z" fill="white"/>
<path d="M57.8884 78.0756V78.3941C54.4163 82.4414 50.7345 86.3836 47.0497 90.1111C46.8327 90.0044 46.8327 90.0044 46.6157 90.1111H46.5072L46.3987 90.0044V89.8978C46.3983 89.8837 46.4009 89.8697 46.4062 89.8566C46.4115 89.8435 46.4195 89.8315 46.4296 89.8216C46.4398 89.8116 46.4519 89.8037 46.4652 89.7985C46.4786 89.7933 46.4929 89.7908 46.5072 89.7912C50.192 86.0637 53.8854 82.123 57.3459 78.0756L57.4544 77.969H57.7799L57.8884 78.0756Z" fill="white"/>
<path d="M59.4062 84.359C59.4062 84.4656 59.4062 84.4656 59.2977 84.5722L54.745 89.6901C54.7306 89.6897 54.7163 89.6922 54.703 89.6974C54.6896 89.7026 54.6775 89.7104 54.6673 89.7204C54.6572 89.7304 54.6492 89.7423 54.6439 89.7554C54.6386 89.7685 54.6361 89.7826 54.6365 89.7967H54.5323C54.4238 89.7967 54.4238 89.7967 54.3153 89.6901C54.2563 89.6326 54.2182 89.5577 54.2068 89.4768C54.2068 89.3716 54.2068 89.3716 54.3153 89.265L58.8681 84.1471C58.8681 84.0405 58.9766 84.0405 59.0851 84.0405C59.1936 84.0405 59.1936 84.0405 59.3021 84.1471C59.4062 84.1457 59.4062 84.2523 59.4062 84.359Z" fill="white"/>
</g>
<defs>
<clipPath id="clip0_956_10678">
<rect width="132.447" height="120.775" fill="white"/>
</clipPath>
</defs>
</svg>
