<svg xmlns="http://www.w3.org/2000/svg" xmlns:xlink="http://www.w3.org/1999/xlink" version="1.1" id="Layer_1" x="0px" y="0px" viewBox="0 0 130 119" style="enable-background:new 0 0 130 119;" xml:space="preserve">
    <style type="text/css">
        .st0{fill:#FFFFFF;stroke:#FFFFFF;stroke-width:0.25;stroke-miterlimit:10;}
        .st1{fill:#BEE8FF;stroke:#FFFFFF;stroke-width:0.25;stroke-miterlimit:10;}
        .st2{fill:#FFFFFF;}
        .st3{fill:#ACD4F7;}
        .st4{fill:#BEE8FF;}
        .st5{fill:none;stroke:#FFFFFF;stroke-width:0.25;stroke-miterlimit:10;}
        .st6{fill:#BEE8FF;stroke:#000000;stroke-width:0.25;stroke-miterlimit:10;}
        .st7{opacity:0.1294;}
        .st8{fill:none;stroke:#FFFFFF;stroke-width:2.6;stroke-miterlimit:10;}
        .st9{fill:none;stroke:#000000;stroke-width:1.0991;stroke-linecap:round;}
        .st10{fill:none;stroke:#000000;stroke-width:0.8833;stroke-miterlimit:10;}
    </style>
    <g>
        <g>
            <path class="st4" d="M4.56,32.63c-0.12,0-0.25-0.04-0.34-0.13c-0.21-0.19-0.22-0.51-0.04-0.72C13.58,21.4,23.74,11.52,34.4,2.42    c0.22-0.18,0.54-0.16,0.72,0.06c0.18,0.21,0.16,0.54-0.06,0.72C24.44,12.27,14.3,22.12,4.94,32.46    C4.84,32.57,4.7,32.63,4.56,32.63z"/>
        </g>
        <g>
            <path class="st4" d="M14.44,37.06c-0.12,0-0.23-0.04-0.33-0.12c-0.22-0.18-0.24-0.5-0.06-0.72c9.6-11.41,20.14-22.19,31.33-32.04    c0.21-0.19,0.53-0.17,0.72,0.05c0.19,0.21,0.17,0.53-0.05,0.72C34.9,14.76,24.4,25.51,14.83,36.88    C14.73,37,14.59,37.06,14.44,37.06z"/>
        </g>
        <g>
            <path class="st8" d="M66.39,118C50.4,102.39,14.24,58.36,10.83,52.51c-4.1-7.04-6.52-15.22-5.62-23.28    C6.87,14.49,20.84,2.06,36.02,1.81s26.92,11.73,29.97,25.71C67.94,16.31,80.18,0.85,94.27,1c14.1,0.15,29.54,8.45,31.51,25.52    c0.9,7.8-1.89,18.26-6.3,27.11C106.25,80.2,78.29,106.56,66.39,118z"/>
        </g>
        <g>
            <path class="st4" d="M26.64,36.26c-0.13,0-0.25-0.05-0.35-0.14c-0.2-0.2-0.21-0.52-0.02-0.72l19.98-20.95    c0.2-0.2,0.52-0.21,0.72-0.02c0.2,0.2,0.21,0.52,0.02,0.72L27.01,36.1C26.91,36.21,26.77,36.26,26.64,36.26z"/>
        </g>
        <g>
            <path class="st4" d="M40.17,37.46c-0.12,0-0.24-0.04-0.34-0.13c-0.21-0.19-0.23-0.51-0.04-0.72l9.44-10.58    c0.19-0.21,0.51-0.23,0.72-0.04c0.21,0.19,0.23,0.51,0.04,0.72l-9.44,10.58C40.45,37.4,40.31,37.46,40.17,37.46z"/>
        </g>
    </g>
    </svg>