<svg width="67" height="80" viewBox="0 0 67 80" fill="none" xmlns="http://www.w3.org/2000/svg">
<path d="M66.041 8.05947V78.6035L1.87235 78.6035V8.05947L66.041 8.05947Z" stroke="white"/>
<path d="M1.45703 79.1012V78.9426H1.78717H66.1275H66.457V79.1022C66.4569 79.1692 66.4448 79.2232 66.4314 79.26H1.48265C1.46912 79.2229 1.45703 79.1686 1.45703 79.1012ZM66.457 7.71592H66.1275H1.78717H1.45703V7.55909C1.45703 7.49171 1.46913 7.43741 1.48265 7.40039H66.4314C66.4449 7.43742 66.457 7.49172 66.457 7.55909V7.71592ZM66.4137 7.35921C66.4098 7.35583 66.4081 7.35374 66.4081 7.35371C66.4081 7.35369 66.4097 7.35556 66.4125 7.36001C66.4125 7.36002 66.4125 7.36003 66.4125 7.36003L66.4138 7.35923C66.4138 7.35922 66.4137 7.35922 66.4137 7.35921Z" stroke="white"/>
<path d="M1.37235 13.9502L66.541 13.9502V4.50998L1.37235 4.50998V13.9502Z" fill="#BEE8FF"/>
<path d="M66.5417 14.6064H1.37239C1.26222 14.6064 1.15656 14.537 1.07865 14.4135C1.00075 14.2899 0.957031 14.1224 0.957031 13.9477V4.51125C0.957031 4.42474 0.967739 4.33909 0.988614 4.25917C1.00949 4.17925 1.04008 4.10664 1.07865 4.04547C1.11723 3.98431 1.16306 3.93579 1.21346 3.90268C1.26386 3.86958 1.31784 3.85254 1.37239 3.85254H66.5417C66.5962 3.85254 66.6502 3.86958 66.7006 3.90268C66.751 3.93579 66.7968 3.98431 66.8354 4.04547C66.874 4.10664 66.9046 4.17925 66.9255 4.25917C66.9463 4.33909 66.957 4.42474 66.957 4.51125V13.9477C66.957 14.1224 66.9133 14.2899 66.8354 14.4135C66.7575 14.537 66.6518 14.6064 66.5417 14.6064ZM1.78717 13.289H66.1275V5.16807H1.78717V13.289Z" fill="white"/>
<path d="M19.688 33.0763H8.51714C8.44358 33.0763 8.37078 33.0593 8.30282 33.0262C8.23486 32.9931 8.17305 32.9446 8.12104 32.8834C8.06902 32.8222 8.02777 32.7496 7.99962 32.6697C7.97147 32.5898 7.95703 32.5041 7.95703 32.4176V23.6587C7.95703 23.484 8.01599 23.3165 8.12104 23.1929C8.22609 23.0694 8.36858 23 8.51714 23H19.6865C19.835 23 19.9775 23.0694 20.0826 23.1929C20.1876 23.3165 20.2466 23.484 20.2466 23.6587V32.4195C20.2461 32.5936 20.1872 32.7603 20.0826 32.8834C19.9779 33.0065 19.836 33.0758 19.688 33.0763ZM9.07725 31.7589H19.1295V24.3174H9.07725V31.7589Z" fill="white"/>
<path d="M38.9979 33.0763H27.8278C27.7542 33.0763 27.6813 33.0593 27.6134 33.0262C27.5454 32.9931 27.4837 32.9446 27.4317 32.8834C27.3797 32.8222 27.3384 32.7496 27.3103 32.6697C27.2821 32.5898 27.2676 32.5041 27.2676 32.4176V23.6587C27.2676 23.484 27.3266 23.3165 27.4317 23.1929C27.5367 23.0694 27.6792 23 27.8278 23H38.9979C39.0714 23 39.1442 23.017 39.2122 23.0501C39.2802 23.0832 39.342 23.1318 39.394 23.1929C39.446 23.2541 39.4873 23.3267 39.5154 23.4066C39.5436 23.4865 39.558 23.5722 39.558 23.6587V32.4195C39.5576 32.5939 39.4984 32.7609 39.3934 32.8841C39.2884 33.0072 39.1462 33.0763 38.9979 33.0763ZM28.3871 31.7589H38.4386V24.3174H28.3871V31.7589Z" fill="white"/>
<path d="M58.3056 33.0763H47.1363C47.0627 33.0763 46.9899 33.0593 46.922 33.0262C46.854 32.9931 46.7922 32.9446 46.7402 32.8834C46.6882 32.8222 46.6469 32.7496 46.6188 32.6697C46.5906 32.5898 46.5762 32.5041 46.5762 32.4176V23.6587C46.5762 23.484 46.6351 23.3165 46.7402 23.1929C46.8452 23.0694 46.9877 23 47.1363 23H58.3056C58.4542 23 58.5967 23.0694 58.7017 23.1929C58.8067 23.3165 58.8658 23.484 58.8658 23.6587V32.4195C58.8654 32.5939 58.8061 32.7609 58.7011 32.8841C58.5961 33.0072 58.4539 33.0763 58.3056 33.0763ZM47.6948 31.7589H57.7471V24.3174H47.6948V31.7589Z" fill="white"/>
<path d="M19.688 52.6967H8.51714C8.36858 52.6967 8.22609 52.6273 8.12104 52.5038C8.01599 52.3803 7.95703 52.2127 7.95703 52.038V43.2866C7.95703 43.1119 8.01599 42.9444 8.12104 42.8209C8.22609 42.6973 8.36858 42.6279 8.51714 42.6279H19.6865C19.835 42.6279 19.9775 42.6973 20.0826 42.8209C20.1876 42.9444 20.2466 43.1119 20.2466 43.2866V52.038C20.2466 52.2124 20.1878 52.3797 20.0831 52.5031C19.9784 52.6266 19.8363 52.6962 19.688 52.6967ZM9.07725 51.3793H19.1295V43.9453H9.07725V51.3793Z" fill="white"/>
<path d="M38.9979 52.6967H27.8278C27.6792 52.6967 27.5367 52.6273 27.4317 52.5038C27.3266 52.3803 27.2676 52.2127 27.2676 52.038V43.2866C27.2676 43.1119 27.3266 42.9444 27.4317 42.8209C27.5367 42.6973 27.6792 42.6279 27.8278 42.6279H38.9979C39.0714 42.6279 39.1442 42.645 39.2122 42.6781C39.2802 42.7112 39.342 42.7597 39.394 42.8209C39.446 42.882 39.4873 42.9546 39.5154 43.0346C39.5436 43.1145 39.558 43.2001 39.558 43.2866V52.038C39.558 52.1245 39.5436 52.2102 39.5154 52.2901C39.4873 52.37 39.446 52.4426 39.394 52.5038C39.342 52.565 39.2802 52.6135 39.2122 52.6466C39.1442 52.6797 39.0714 52.6967 38.9979 52.6967ZM28.3871 51.3793H38.4386V43.9453H28.3871V51.3793Z" fill="white"/>
<path d="M58.3056 52.6967H47.1363C46.9877 52.6967 46.8452 52.6273 46.7402 52.5038C46.6351 52.3803 46.5762 52.2127 46.5762 52.038V43.2866C46.5762 43.1119 46.6351 42.9444 46.7402 42.8209C46.8452 42.6973 46.9877 42.6279 47.1363 42.6279H58.3056C58.4542 42.6279 58.5967 42.6973 58.7017 42.8209C58.8067 42.9444 58.8658 43.1119 58.8658 43.2866V52.038C58.8658 52.2127 58.8067 52.3803 58.7017 52.5038C58.5967 52.6273 58.4542 52.6967 58.3056 52.6967ZM47.6948 51.3793H57.7471V43.9453H47.6948V51.3793Z" fill="white"/>
<path d="M19.688 70.2727H8.51714C8.36858 70.2727 8.22609 70.2033 8.12104 70.0798C8.01599 69.9563 7.95703 69.7887 7.95703 69.614V60.8579C7.95703 60.6832 8.01599 60.5157 8.12104 60.3921C8.22609 60.2686 8.36858 60.1992 8.51714 60.1992H19.6865C19.835 60.1992 19.9775 60.2686 20.0826 60.3921C20.1876 60.5157 20.2466 60.6832 20.2466 60.8579V69.614C20.2466 69.7884 20.1878 69.9557 20.0831 70.0791C19.9784 70.2026 19.8363 70.2722 19.688 70.2727ZM9.07725 68.9553H19.1295V61.5166H9.07725V68.9553Z" fill="white"/>
<path d="M38.9979 70.2727H27.8278C27.6792 70.2727 27.5367 70.2033 27.4317 70.0798C27.3266 69.9563 27.2676 69.7887 27.2676 69.614V60.8579C27.2676 60.6832 27.3266 60.5157 27.4317 60.3921C27.5367 60.2686 27.6792 60.1992 27.8278 60.1992H38.9979C39.0714 60.1992 39.1442 60.2163 39.2122 60.2494C39.2802 60.2825 39.342 60.331 39.394 60.3921C39.446 60.4533 39.4873 60.5259 39.5154 60.6058C39.5436 60.6858 39.558 60.7714 39.558 60.8579V69.614C39.558 69.7005 39.5436 69.7862 39.5154 69.8661C39.4873 69.946 39.446 70.0186 39.394 70.0798C39.342 70.141 39.2802 70.1895 39.2122 70.2226C39.1442 70.2557 39.0714 70.2727 38.9979 70.2727ZM28.3871 68.9553H38.4386V61.5166H28.3871V68.9553Z" fill="white"/>
<path d="M58.3056 70.2727H47.1363C46.9877 70.2727 46.8452 70.2033 46.7402 70.0798C46.6351 69.9563 46.5762 69.7887 46.5762 69.614V60.8579C46.5762 60.6832 46.6351 60.5157 46.7402 60.3921C46.8452 60.2686 46.9877 60.1992 47.1363 60.1992H58.3056C58.4542 60.1992 58.5967 60.2686 58.7017 60.3921C58.8068 60.5157 58.8658 60.6832 58.8658 60.8579V69.614C58.8658 69.7887 58.8068 69.9563 58.7017 70.0798C58.5967 70.2033 58.4542 70.2727 58.3056 70.2727ZM47.6948 68.9553H57.7471V61.5166H47.6948V68.9553Z" fill="white"/>
<path d="M50.3971 9.88719C50.2486 9.88719 50.1061 9.81779 50.001 9.69426C49.896 9.57073 49.8369 9.40319 49.8369 9.22849V0.658708C49.8369 0.484008 49.896 0.316465 50.001 0.192934C50.1061 0.0694024 50.2486 0 50.3971 0C50.5457 0 50.6882 0.0694024 50.7932 0.192934C50.8983 0.316465 50.9572 0.484008 50.9572 0.658708V9.23037C50.9568 9.40474 50.8976 9.5718 50.7926 9.69493C50.6876 9.81805 50.5454 9.88719 50.3971 9.88719Z" fill="white"/>
<path d="M16.5171 9.88719C16.3686 9.88719 16.2261 9.81779 16.121 9.69426C16.016 9.57073 15.957 9.40319 15.957 9.22849V0.658708C15.957 0.484008 16.016 0.316465 16.121 0.192934C16.2261 0.0694024 16.3686 0 16.5171 0C16.6657 0 16.8082 0.0694024 16.9132 0.192934C17.0183 0.316465 17.0773 0.484008 17.0773 0.658708V9.23037C17.0769 9.40474 17.0177 9.5718 16.9127 9.69493C16.8076 9.81805 16.6654 9.88719 16.5171 9.88719Z" fill="white"/>
<path d="M29.0314 27.0444C28.9952 27.0444 28.9597 27.032 28.9295 27.0086C28.8992 26.9852 28.8754 26.9519 28.861 26.9127C28.8466 26.8736 28.8422 26.8304 28.8485 26.7884C28.8547 26.7464 28.8713 26.7075 28.8961 26.6765C29.4443 25.9914 30.0245 25.3224 30.6206 24.6881C30.6575 24.6506 30.7055 24.6316 30.7542 24.6352C30.8028 24.6388 30.8484 24.6646 30.881 24.7072C30.9137 24.7498 30.9308 24.8057 30.9288 24.863C30.9268 24.9203 30.9058 24.9744 30.8703 25.0137C30.2813 25.6395 29.7076 26.3001 29.1674 26.9767C29.1499 26.9983 29.1288 27.0154 29.1054 27.0271C29.082 27.0387 29.0568 27.0446 29.0314 27.0444Z" fill="white"/>
<path d="M36.6573 30.9611C36.62 30.9615 36.5834 30.9489 36.5523 30.9247C36.5213 30.9005 36.497 30.8659 36.4828 30.8254C36.4686 30.7849 36.4651 30.7403 36.4726 30.6974C36.4802 30.6545 36.4985 30.6152 36.5252 30.5846L37.7391 29.1515C37.7745 29.114 37.8208 29.0939 37.8684 29.0953C37.916 29.0967 37.9615 29.1195 37.9953 29.159C38.0291 29.1985 38.0487 29.2517 38.0502 29.3077C38.0517 29.3637 38.0349 29.4183 38.0032 29.4601L36.7892 30.8933C36.7722 30.9144 36.7517 30.9313 36.729 30.9429C36.7064 30.9546 36.682 30.9607 36.6573 30.9611Z" fill="white"/>
<path d="M9.80548 46.0924C9.76943 46.0924 9.73412 46.0801 9.70389 46.057C9.67367 46.0339 9.64987 46.001 9.63522 45.9622C9.62058 45.9235 9.61579 45.8806 9.62145 45.8387C9.62711 45.7969 9.64293 45.7578 9.66707 45.7264C9.97115 45.3311 10.2936 44.9415 10.6273 44.567C10.6634 44.5303 10.7102 44.5113 10.758 44.5139C10.8057 44.5166 10.8507 44.5407 10.8838 44.5812C10.9169 44.6218 10.9354 44.6757 10.9357 44.7319C10.9359 44.7881 10.9177 44.8423 10.885 44.8832C10.5593 45.2511 10.2448 45.636 9.94556 46.0209C9.92783 46.0438 9.9061 46.0619 9.88197 46.0743C9.85783 46.0866 9.8318 46.0928 9.80548 46.0924Z" fill="white"/>
<path d="M48.1863 63.6627C48.1503 63.6627 48.115 63.6504 48.0848 63.6273C48.0545 63.6042 48.0307 63.5713 48.0161 63.5326C48.0014 63.4938 47.9967 63.4509 48.0023 63.4091C48.008 63.3672 48.0238 63.3282 48.0479 63.2967C48.352 62.9014 48.6745 62.5119 49.0081 62.1373C49.0443 62.1006 49.0911 62.0816 49.1388 62.0842C49.1866 62.0869 49.2316 62.111 49.2647 62.1515C49.2977 62.1921 49.3163 62.2461 49.3165 62.3023C49.3167 62.3585 49.2986 62.4126 49.2658 62.4535C48.9401 62.8215 48.6257 63.2063 48.3264 63.5912C48.3087 63.6141 48.287 63.6323 48.2628 63.6446C48.2387 63.6569 48.2127 63.6631 48.1863 63.6627Z" fill="white"/>
<path d="M9.84752 49.2555C9.81195 49.2556 9.7771 49.2438 9.7471 49.2213C9.7171 49.1988 9.69316 49.1667 9.67824 49.1287C9.66332 49.0908 9.65801 49.0486 9.6629 49.0071C9.66779 48.9657 9.68273 48.9268 9.70588 48.8951C10.803 47.3894 11.9592 45.9092 13.1427 44.4949C13.1598 44.4744 13.1803 44.4582 13.2028 44.447C13.2253 44.4358 13.2494 44.4299 13.2738 44.4297C13.2982 44.4295 13.3224 44.4349 13.345 44.4457C13.3676 44.4565 13.3882 44.4724 13.4056 44.4925C13.423 44.5127 13.4369 44.5366 13.4464 44.5631C13.4559 44.5895 13.4609 44.6179 13.4611 44.6466C13.4612 44.6753 13.4567 44.7038 13.4475 44.7304C13.4383 44.757 13.4248 44.7812 13.4076 44.8017C12.2305 46.2132 11.0798 47.6821 9.98916 49.1802C9.97154 49.204 9.94972 49.223 9.92527 49.236C9.90083 49.249 9.87434 49.2556 9.84752 49.2555Z" fill="white"/>
<path d="M48.2284 66.8258C48.1928 66.8259 48.158 66.8141 48.128 66.7916C48.098 66.7691 48.074 66.737 48.0591 66.699C48.0442 66.6611 48.0389 66.6189 48.0438 66.5774C48.0486 66.536 48.0636 66.4971 48.0867 66.4654C49.1838 64.9598 50.3401 63.4795 51.5236 62.0652C51.5407 62.0448 51.5612 62.0285 51.5836 62.0173C51.6061 62.0061 51.6303 62.0002 51.6547 62C51.6791 61.9998 51.7033 62.0052 51.7259 62.016C51.7485 62.0268 51.769 62.0427 51.7864 62.0628C51.8038 62.083 51.8178 62.107 51.8273 62.1334C51.8368 62.1598 51.8417 62.1882 51.8419 62.2169C51.8421 62.2456 51.8375 62.2741 51.8283 62.3007C51.8192 62.3273 51.8056 62.3515 51.7885 62.372C50.6114 63.7835 49.4607 65.2524 48.37 66.7505C48.3524 66.7743 48.3306 66.7933 48.3061 66.8063C48.2817 66.8193 48.2552 66.8259 48.2284 66.8258Z" fill="white"/>
<path d="M11.7606 50.8635C11.7182 50.8633 11.6771 50.8464 11.6438 50.8155C11.6054 50.7791 11.5807 50.7263 11.5753 50.6687C11.5699 50.611 11.5842 50.5531 11.615 50.5078C13.0114 48.4564 14.4861 46.4436 16.0001 44.5267C16.0337 44.4843 16.0801 44.4593 16.1294 44.4572C16.1786 44.4551 16.2265 44.476 16.2626 44.5155C16.2987 44.5549 16.32 44.6096 16.3218 44.6674C16.3236 44.7253 16.3057 44.7817 16.2722 44.8241C14.7654 46.7334 13.2955 48.7378 11.9055 50.7816C11.8882 50.8073 11.8661 50.828 11.841 50.8421C11.8159 50.8563 11.7885 50.8636 11.7606 50.8635Z" fill="white"/>
<path d="M50.1415 68.4338C50.0991 68.4336 50.058 68.4167 50.0247 68.3858C49.9862 68.3495 49.9616 68.2967 49.9562 68.239C49.9508 68.1813 49.9651 68.1234 49.9959 68.0781C51.3922 66.0267 52.867 64.0139 54.381 62.0971C54.4145 62.0546 54.461 62.0296 54.5102 62.0275C54.5594 62.0254 54.6074 62.0463 54.6435 62.0858C54.6795 62.1252 54.7009 62.1799 54.7027 62.2378C54.7045 62.2956 54.6866 62.352 54.653 62.3944C53.1462 64.3037 51.6763 66.3081 50.2864 68.3519C50.2691 68.3776 50.247 68.3983 50.2219 68.4125C50.1968 68.4266 50.1693 68.4339 50.1415 68.4338Z" fill="white"/>
<path d="M14.6513 50.7577C14.6158 50.7579 14.5811 50.7461 14.5511 50.7237C14.5211 50.7014 14.4972 50.6694 14.4822 50.6316C14.4672 50.5938 14.4618 50.5517 14.4665 50.5103C14.4712 50.469 14.4859 50.4301 14.5089 50.3982C15.654 48.7929 16.8191 47.18 17.9714 45.5991C18.0048 45.5619 18.0487 45.5406 18.0946 45.5391C18.1405 45.5377 18.1853 45.5563 18.2203 45.5912C18.2553 45.6262 18.2781 45.6752 18.2843 45.7288C18.2905 45.7823 18.2797 45.8367 18.2539 45.8814C17.1032 47.4566 15.9389 49.0695 14.7938 50.673C14.777 50.6987 14.7554 50.7197 14.7307 50.7344C14.7061 50.749 14.6789 50.757 14.6513 50.7577Z" fill="white"/>
<path d="M53.0322 68.328C52.9967 68.3282 52.9619 68.3164 52.9319 68.2941C52.902 68.2717 52.8781 68.2397 52.8631 68.2019C52.8481 68.1641 52.8426 68.122 52.8474 68.0806C52.8521 68.0393 52.8668 68.0004 52.8897 67.9685C54.0348 66.3632 55.2 64.7503 56.3523 63.1694C56.3856 63.1322 56.4295 63.1109 56.4755 63.1095C56.5214 63.108 56.5662 63.1266 56.6012 63.1616C56.6362 63.1966 56.659 63.2455 56.6651 63.2991C56.6713 63.3526 56.6606 63.407 56.6348 63.4517C55.4841 65.0269 54.3198 66.6398 53.1747 68.2433C53.1578 68.269 53.1362 68.29 53.1116 68.3047C53.0869 68.3193 53.0598 68.3273 53.0322 68.328Z" fill="white"/>
<path d="M17.4595 50.7929C17.4257 50.793 17.3925 50.7822 17.3635 50.7617C17.3345 50.7412 17.3108 50.7118 17.295 50.6766C17.2792 50.6415 17.2718 50.6019 17.2737 50.5622C17.2757 50.5225 17.2868 50.4841 17.3059 50.4513C17.5635 50.0071 17.8412 49.5733 18.1325 49.1621C18.1482 49.14 18.1675 49.1217 18.1893 49.1084C18.2111 49.0951 18.2349 49.0869 18.2593 49.0843C18.2838 49.0818 18.3084 49.085 18.3318 49.0936C18.3552 49.1023 18.3769 49.1163 18.3957 49.1348C18.4145 49.1534 18.4301 49.1761 18.4414 49.2017C18.4528 49.2272 18.4597 49.2552 18.4618 49.284C18.464 49.3127 18.4614 49.3417 18.454 49.3692C18.4467 49.3967 18.4347 49.4223 18.419 49.4444C18.1349 49.8443 17.8644 50.2669 17.6132 50.6988C17.5961 50.728 17.5731 50.7519 17.5463 50.7683C17.5195 50.7847 17.4897 50.7931 17.4595 50.7929Z" fill="white"/>
<path d="M55.8404 68.3632C55.8066 68.3633 55.7734 68.3525 55.7444 68.332C55.7154 68.3115 55.6917 68.2821 55.6759 68.247C55.6601 68.2118 55.6527 68.1722 55.6546 68.1325C55.6565 68.0928 55.6676 68.0544 55.6867 68.0216C55.9444 67.5774 56.222 67.1436 56.5133 66.7324C56.5291 66.7103 56.5484 66.6921 56.5702 66.6787C56.5919 66.6654 56.6158 66.6572 56.6402 66.6547C56.6646 66.6521 56.6893 66.6553 56.7127 66.6639C56.7361 66.6726 56.7578 66.6866 56.7766 66.7051C56.7954 66.7237 56.8109 66.7464 56.8223 66.772C56.8336 66.7976 56.8405 66.8255 56.8427 66.8543C56.8449 66.883 56.8422 66.912 56.8349 66.9395C56.8275 66.967 56.8156 66.9926 56.7998 67.0147C56.5157 67.4147 56.2453 67.8372 55.994 68.2691C55.9769 68.2983 55.9539 68.3222 55.9271 68.3386C55.9003 68.355 55.8706 68.3635 55.8404 68.3632Z" fill="white"/>
<path d="M29.1781 29.6473C29.1402 29.6472 29.1031 29.6334 29.0719 29.6079C29.0408 29.5824 29.0171 29.5463 29.0039 29.5044C28.9906 29.4626 28.9886 29.417 28.998 29.3738C29.0074 29.3305 29.0277 29.2917 29.0564 29.2625C30.4216 27.8773 31.75 26.4084 33.0039 24.8962C33.0206 24.8737 33.0409 24.8555 33.0638 24.8427C33.0867 24.8299 33.1116 24.8226 33.1369 24.8215C33.1622 24.8203 33.1875 24.8252 33.2111 24.8359C33.2348 24.8466 33.2563 24.8628 33.2744 24.8836C33.2925 24.9044 33.3069 24.9294 33.3166 24.9569C33.3263 24.9845 33.3311 25.0141 33.3307 25.0438C33.3303 25.0736 33.3247 25.103 33.3144 25.1302C33.304 25.1574 33.289 25.1818 33.2703 25.202C32.0092 26.7227 30.6729 28.201 29.2997 29.5946C29.2659 29.6288 29.2227 29.6475 29.1781 29.6473Z" fill="white"/>
<path d="M30.9381 31.2294C30.9008 31.23 30.8642 31.2173 30.8331 31.1931C30.802 31.1688 30.7778 31.1341 30.7637 31.0935C30.7496 31.0529 30.7463 31.0082 30.7541 30.9653C30.762 30.9224 30.7806 30.8833 30.8077 30.853C32.5777 28.8327 34.4166 26.8434 36.2747 24.9397C36.2927 24.9177 36.3143 24.9004 36.3383 24.8888C36.3623 24.8773 36.3881 24.8718 36.414 24.8726C36.4399 24.8735 36.4654 24.8808 36.4887 24.8939C36.5121 24.9071 36.533 24.9259 36.5498 24.949C36.5666 24.9722 36.5791 24.9993 36.5865 25.0285C36.5939 25.0577 36.5961 25.0884 36.5928 25.1186C36.5895 25.1489 36.5808 25.178 36.5674 25.204C36.5539 25.2301 36.536 25.2526 36.5147 25.27C34.6622 27.168 32.8274 29.1526 31.0637 31.1673C31.0301 31.2061 30.9852 31.2283 30.9381 31.2294Z" fill="white"/>
<path d="M33.713 31.284C33.6759 31.284 33.6397 31.2709 33.609 31.2464C33.5783 31.222 33.5544 31.1873 33.5406 31.1467C33.5268 31.1062 33.5237 31.0618 33.5316 31.0192C33.5395 30.9765 33.5581 30.9377 33.5849 30.9076C34.8725 29.4546 36.2064 28.0102 37.5484 26.6147C37.5665 26.594 37.588 26.5779 37.6116 26.5673C37.6351 26.5566 37.6602 26.5518 37.6854 26.5529C37.7106 26.554 37.7354 26.5612 37.7582 26.5739C37.781 26.5866 37.8014 26.6047 37.8181 26.6269C37.8348 26.6492 37.8475 26.6752 37.8554 26.7033C37.8633 26.7315 37.8663 26.7613 37.8641 26.7908C37.8619 26.8204 37.8546 26.8491 37.8427 26.8753C37.8308 26.9015 37.8145 26.9245 37.7948 26.9431C36.4569 28.3339 35.1262 29.7746 33.8419 31.2228C33.8074 31.2624 33.7611 31.2844 33.713 31.284Z" fill="white"/>
<g opacity="0.129">
<path d="M66.9575 14.0708H1.51758V17.1357H66.9575V14.0708Z" fill="white"/>
</g>
</svg>
