<svg xmlns="http://www.w3.org/2000/svg" xmlns:xlink="http://www.w3.org/1999/xlink" version="1.1" id="Layer_1" x="0px" y="0px" viewBox="0 0 683 580" style="enable-background:new 0 0 683 580;" xml:space="preserve">
    <style type="text/css">
        .stHausMainDark0{fill:#FFFFFF;}
        .stHausMainDark1{fill:#BEE8FF;}
        .stHausMainDark2{opacity:0.1294;}
        .stHausMainDark3{fill:#FFFFFF;stroke:#FFFFFF;stroke-width:0.25;stroke-miterlimit:10;}
        .stHausMainDark4{fill:#FFFFFF;stroke:#000000;stroke-width:0.25;stroke-miterlimit:10;}
        .stHausMainDark5{stroke:#000000;stroke-width:0.25;stroke-miterlimit:10;}
        .stHausMainDark6{fill:#FFFFFF;stroke:#000000;stroke-width:0.5;stroke-miterlimit:10;}
        .stHausMainDark7{stroke:#000000;stroke-width:0.5;stroke-miterlimit:10;}
        .stHausMainDark8{fill:#BEE8FF;stroke:#000000;stroke-width:0.5;stroke-miterlimit:10;}
        .stHausMainDark9{fill:#FFFFFF;stroke:#000000;stroke-width:1.5;stroke-miterlimit:10;}
    </style>
    <circle class="stHausMainDark0" cx="273.4" cy="194.6" r="4.1"/>
    <circle class="stHausMainDark0" cx="304.5" cy="207.8" r="4.1"/>
    <circle class="stHausMainDark0" cx="34.3" cy="18.4" r="4.1"/>
    <g>
        <g>
            <g>
                <g>
                    <polygon class="stHausMainDark0" points="274.6,523.4 276,578.9 180.3,578.9 179.2,523.5     "/>
                    <path d="M179.5,578.9l-1.1-55.3c0-0.2,0.1-0.5,0.2-0.6c0.2-0.2,0.4-0.3,0.6-0.3l95.3-0.1l0,0c0.5,0,0.8,0.4,0.9,0.8l1.4,55.5      c0,0.2-0.1,0.5-0.2,0.6c-0.2,0.2-0.4,0.3-0.6,0.3h-95.7C179.9,579.7,179.5,579.4,179.5,578.9z M273.7,524.3l-93.6,0.1l1.1,53.6      h93.9L273.7,524.3z"/>
                </g>
                <g>
                    <path class="stHausMainDark0" d="M235.2,578.9c27.3,0,55.8,0.4,83.1,0.2c0-27.2,0.3-55.4,1.9-85.7c-24.9-0.6-55.9-0.9-86.9-1.2      C234.8,522.4,236.6,558.8,235.2,578.9z"/>
                    <path d="M270.6,579.9c-11.7-0.1-23.8-0.1-35.5-0.1l0,0c-0.2,0-0.5-0.1-0.6-0.3c-0.2-0.2-0.2-0.4-0.2-0.6      c1.5-20.3-0.4-57-1.9-86.6c0-0.2,0.1-0.5,0.2-0.6c0.2-0.2,0.4-0.3,0.6-0.3l5.9,0.1c29.6,0.3,57.6,0.5,81,1.1      c0.2,0,0.4,0.1,0.6,0.3c0.2,0.2,0.2,0.4,0.2,0.6c-1.7,32.4-1.9,61.5-1.9,85.7c0,0.5-0.4,0.9-0.8,0.9c-4.9,0-9.9,0.1-15,0.1      C292.4,580,281.4,579.9,270.6,579.9z M319.2,494.2c-23.2-0.6-50.8-0.8-80.1-1.1h-5c1.5,29,3.3,64.6,1.9,85      c11.4,0,23.2,0.1,34.6,0.1c15.4,0.1,31.4,0.2,46.8,0.1C317.4,554.4,317.6,525.9,319.2,494.2z"/>
                </g>
                <g>
                    <path class="stHausMainDark0" d="M220.1,498.7c39.8,0,75.4,0.7,111.4,0.7c-17.5-18.7-36.2-39.8-54.1-58.2      C258.9,459.2,240.9,480.5,220.1,498.7z"/>
                    <path d="M278.6,499.9c-18.7-0.2-38.1-0.4-58.5-0.4c-0.4,0-0.7-0.2-0.8-0.6c-0.1-0.3,0-0.7,0.2-0.9      c12.7-11.1,24.4-23.5,35.7-35.4c7.4-7.8,14.3-15.1,21.5-22.1c0.2-0.2,0.4-0.2,0.6-0.2s0.4,0.1,0.6,0.3      c11.2,11.6,22.8,24.2,34,36.5c6.7,7.3,13.5,14.8,20.1,21.8c0.2,0.2,0.3,0.6,0.2,0.9c-0.1,0.3-0.4,0.5-0.8,0.5      C314,500.2,296.8,500.1,278.6,499.9z M256.5,463.8c-10.9,11.5-22.1,23.3-34.2,34.1c19.6,0,38.2,0.2,56.2,0.4      c17.5,0.2,34.1,0.3,50.9,0.3c-6.2-6.6-12.6-13.6-18.8-20.3c-11-12-22.4-24.4-33.4-35.8C270.4,449.1,263.7,456.3,256.5,463.8z"/>
                </g>
                <g>
                    <path class="stHausMainDark1" d="M262.7,549.6c9-0.1,18-0.1,27-0.2c0.9-9.3,1.5-18.3,1.3-27.3c-9.4-0.5-18.7-0.5-28.7,0      C262.2,531,262.3,539.9,262.7,549.6z"/>
                    <path d="M261.8,549.7c-0.4-10.1-0.5-18.9-0.3-27.5c0-0.4,0.4-0.8,0.8-0.8c10-0.5,19.4-0.5,28.7,0c0.5,0,0.8,0.4,0.8,0.8      c0.1,8.2-0.3,16.9-1.3,27.4c0,0.4-0.4,0.8-0.8,0.8l-27,0.2l0,0C262.2,550.5,261.9,550.1,261.8,549.7z M290.2,522.9      c-8.8-0.4-17.6-0.4-27,0c-0.1,8.1-0.1,16.4,0.3,25.8l25.4-0.2C289.9,538.9,290.3,530.7,290.2,522.9z"/>
                </g>
                <g>
                    <path class="stHausMainDark0" d="M272.2,474.4c3.1-2.1,7.8-1.1,9.9,2s1.3,7.9-1.8,10.1c-3,2.2-7.8,1.5-10-1.6      C268.2,481.9,268.6,476.8,272.2,474.4z"/>
                    <path d="M269.7,485.4c-1.3-1.7-1.8-4.1-1.4-6.4c0.4-2.2,1.6-4.1,3.5-5.4l0,0c3.5-2.3,8.7-1.3,11.1,2.2s1.5,8.8-2,11.3      c-1.3,1-3,1.5-4.6,1.5C273.8,488.6,271.3,487.5,269.7,485.4z M272.7,475.1L272.7,475.1c-1.4,1-2.4,2.5-2.7,4.2      c-0.3,1.8,0.1,3.7,1.1,5.1c2,2.6,6.2,3.3,8.8,1.4c2.7-1.9,3.4-6.2,1.6-8.9c-1.2-1.8-3.3-2.7-5.4-2.7      C274.9,474.1,273.7,474.4,272.7,475.1z"/>
                </g>
                <g>
                    <path d="M223.8,579.7L223.8,579.7c0.5,0,0.9-0.4,0.9-0.9c-0.3-12.4-0.1-24.8,0.2-35.2c0-0.2-0.1-0.5-0.2-0.6      c-0.2-0.2-0.4-0.3-0.6-0.3l0,0c-10.5,0-21.4,0-32.2,0l0,0c-0.2,0-0.4,0.1-0.6,0.2c-0.2,0.2-0.3,0.4-0.3,0.6c0,3.1,0,6.1,0,9.1      c0,9.3-0.1,18.2,0.3,25.6c0,0.5,0.4,0.8,0.9,0.8s0.8-0.4,0.8-0.9c-0.3-7.4-0.3-16.2-0.3-25.5c0-2.7,0-5.5,0-8.3      c10.2,0.1,20.5,0,30.5,0c-0.2,10.3-0.4,22.3-0.1,34.4C222.9,579.4,223.3,579.7,223.8,579.7z"/>
                </g>
                <g>
                    <path d="M223.2,548.8c0.2,0,0.3-0.1,0.3-0.3s-0.1-0.3-0.3-0.3c-10.1-0.5-20.3-0.7-30.4-0.4c-0.2,0-0.3,0.1-0.3,0.3      s0.1,0.3,0.3,0.3l0,0C202.9,548.2,213.1,548.3,223.2,548.8L223.2,548.8z"/>
                </g>
                <g>
                    <path d="M217,552.8c2.2,0,4.4,0,6.7,0c0.2,0,0.3-0.1,0.3-0.3s-0.1-0.3-0.3-0.3c-10.4,0.1-21-0.1-31.4-0.6      c-0.2,0-0.3,0.1-0.3,0.3s0.1,0.3,0.3,0.3C200.4,552.6,208.7,552.8,217,552.8z"/>
                </g>
                <g>
                    <path d="M223.8,557.8c0.1,0,0.3-0.1,0.3-0.3s-0.1-0.3-0.3-0.3c-10.6-0.7-21.3-0.9-32-0.7c-0.2,0-0.3,0.1-0.3,0.3      s0.1,0.3,0.3,0.3C202.4,556.9,213.2,557.1,223.8,557.8C223.7,557.8,223.8,557.8,223.8,557.8z"/>
                </g>
                <g>
                    <path d="M223.5,562.7c0.2,0,0.3-0.1,0.3-0.3s-0.1-0.3-0.3-0.3l-31.6-1c-0.1,0-0.3,0.1-0.3,0.3s0.1,0.3,0.3,0.3L223.5,562.7      L223.5,562.7z"/>
                </g>
                <g>
                    <path d="M212.8,566.7c3.6,0,7.3,0,10.9,0c0.2,0,0.3-0.1,0.3-0.3s-0.1-0.3-0.3-0.3l0,0c-10.5,0.1-21.2,0-31.7-0.1      c-0.1,0-0.3,0.1-0.3,0.3s0.1,0.3,0.3,0.3C198.9,566.7,205.9,566.7,212.8,566.7z"/>
                </g>
                <g>
                    <path d="M223.6,570.8c0.2,0,0.3-0.1,0.3-0.3s-0.1-0.3-0.3-0.3h-31l0,0c-0.2,0-0.3,0.1-0.3,0.3s0.1,0.3,0.3,0.3H223.6      L223.6,570.8z"/>
                </g>
                <g>
                    <path d="M209.1,574.8c4.8,0,9.5-0.1,14.2-0.3c0.2,0,0.3-0.1,0.3-0.3s-0.1-0.3-0.3-0.3c-10.4,0.4-20.9,0.3-31.3-0.1      c-0.2,0-0.3,0.1-0.3,0.3s0.1,0.3,0.3,0.3C197.7,574.6,203.4,574.8,209.1,574.8z"/>
                </g>
                <g>
                    <path d="M290.5,531c0.2,0,0.3-0.1,0.3-0.3s-0.1-0.3-0.3-0.3c-9.2-0.2-18.6-0.3-27.8-0.5l0,0c-0.2,0-0.3,0.1-0.3,0.3      s0.1,0.3,0.3,0.3C271.9,530.7,281.2,530.8,290.5,531L290.5,531z"/>
                </g>
                <g>
                    <path d="M276.8,549.5L276.8,549.5c0.2,0,0.3-0.1,0.3-0.3l-0.5-18.5c0-0.2-0.2-0.3-0.3-0.3c-0.2,0-0.3,0.1-0.3,0.3l0.5,18.5      C276.6,549.4,276.7,549.5,276.8,549.5z"/>
                </g>
                <g>
                    <path d="M275.6,488.4c0.2,0,0.3-0.1,0.3-0.3c0.2-4.7,0.6-9.5,1.1-14.2c0-0.2-0.1-0.3-0.3-0.3c-0.2,0-0.3,0.1-0.3,0.3      c-0.5,4.7-0.9,9.5-1.1,14.3C275.3,488.3,275.4,488.4,275.6,488.4L275.6,488.4z"/>
                </g>
                <g>
                    <path d="M283,480.9c0.1,0,0.3-0.1,0.3-0.3c0-0.2-0.1-0.3-0.3-0.3l-14-0.9c-0.2,0-0.3,0.1-0.3,0.3c0,0.2,0.1,0.3,0.3,0.3      L283,480.9L283,480.9z"/>
                </g>
                <g>
                    <path d="M314.2,518.4c0.2,0,0.3-0.1,0.3-0.3l0.5-14c0-0.2-0.1-0.3-0.3-0.3c-0.1,0-0.3,0.1-0.3,0.3l-0.5,14      C313.9,518.3,314,518.4,314.2,518.4L314.2,518.4z"/>
                </g>
                <g>
                    <path d="M310.5,509.7c0.2,0,0.3-0.1,0.3-0.3l0.3-5.7c0-0.2-0.1-0.3-0.3-0.3c-0.2,0-0.3,0.1-0.3,0.3l-0.3,5.7      C310.2,509.5,310.3,509.6,310.5,509.7L310.5,509.7z"/>
                </g>
                <g>
                    <path d="M317.3,573.8c0.5,0,0.9-0.4,0.9-0.8c0-0.5-0.4-0.9-0.8-0.9l-81.3-0.9l0,0c-0.5,0-0.9,0.4-0.9,0.8c0,0.5,0.4,0.9,0.8,0.9      L317.3,573.8L317.3,573.8z"/>
                </g>
                <g class="stHausMainDark2">
                    <path d="M233.4,501.8c0.1-0.3,0.3-0.6,0.5-0.8c0-1.1,0.7-2.2,2-2.2c2.9,0.3,5.7,0.1,8.6,0.1c2.9,0,5.7,0.3,8.6,0.6      c0.6,0.1,1.3,0,1.8,0.3c0.7,0,1.4,0,2.1,0c4.6,0.1,9.2-0.1,13.8-0.1c7,0,14.1,0.1,21.1,0.1c4.1,0,8.1-0.3,12.2-0.2      c4.5,0.1,8.9,0.6,13.4,0.2c3-0.3,3.3,4.2,0.3,4.3c-5.1,0.5-10.1-0.2-15.2-0.1c-10.8,0.4-21.5,0.2-32.3,0c-4.5,0-9,0.1-13.5,0.1      c-6.3,0.3-12.5,0.7-18.8,0.5c-0.3,0-0.6,0-0.8,0s-0.3,0-0.5,0.1c-0.6,0.1-1.2,0-1.7-0.1C233.8,504.1,233.1,502.9,233.4,501.8z"/>
                </g>
                <g class="stHausMainDark2">
                    <path d="M192.5,543.8c0.5-0.3,1-0.3,1.6-0.2c1.6,0,3.3,0,4.9,0c3.3,0,6.7-0.2,10-0.1c4.2,0.2,8.4,0.2,12.6-0.1      c0.9-0.1,1.9-0.2,2.6,0.5c1.3,1.2,0.3,3.7-1.5,3.6c-4.7,0.4-9.5,0.3-14.2,0.1c-4.6,0-9.1,0.2-13.7,0.3c-0.7,0-1.4,0.1-2-0.2      C191.1,547.1,191,544.6,192.5,543.8z"/>
                </g>
            </g>
            <g>
                <g>
                    <path class="stHausMainDark3" d="M150.8,580c-1.9,0-3.7,0-5.5,0c-0.3,0-0.5-0.2-0.5-0.5s0.2-0.5,0.5-0.5c3.9,0.1,7.9,0.1,11.8,0      c0.3,0,0.5,0.2,0.5,0.5s-0.2,0.5-0.5,0.5C155,580,152.9,580,150.8,580z"/>
                </g>
                <g>
                    <polygon class="stHausMainDark4" points="149.8,560.7 149.8,579.5 152.7,579.5 152.7,560.7     "/>
                    <path class="stHausMainDark5" d="M152.7,580h-2.9c-0.1,0-0.3-0.1-0.4-0.1c-0.1-0.1-0.1-0.2-0.1-0.4v-18.8c0-0.1,0.1-0.3,0.2-0.4      c0.1-0.1,0.2-0.2,0.4-0.1h2.8c0.3,0,0.5,0.2,0.5,0.5v18.7C153.2,579.7,152.9,580,152.7,580z M150.3,579h1.8v-17.7h-1.8V579z"/>
                </g>
                <g>
                    <path class="stHausMainDark4" d="M138.2,553.9c0-0.9,0.3-1.9,1-2.3c0.7-0.4,1.6-0.5,2.4-0.5c6.6-0.1,13.2-0.2,19.7-0.3c0.9,0,1.8,0.2,2.1,1      c0.5,1.2,0.3,3.2,0.3,4.8c0,3.3,0.2,2.8,0.2,6.2c0,0.7,0,1.4-0.3,2s-2,0.8-2.6,0.8c-6.7-0.4-13,0.1-20.1,0.1      c-0.7-0.1-1.4-0.3-1.9-0.9c-0.5-0.7-0.6-1.7-0.6-2.6C138.2,558.2,138.2,558.3,138.2,553.9z"/>
                    <path class="stHausMainDark5" d="M140.9,566.2C140.9,566.2,140.8,566.2,140.9,566.2c-1.1-0.1-1.8-0.5-2.3-1.1c-0.6-0.8-0.7-1.8-0.7-2.9      l-0.1-1.8c-0.1-2.4-0.1-2.9-0.1-6.6c0-1.3,0.4-2.3,1.2-2.7c0.9-0.5,1.8-0.5,2.6-0.5l19.7-0.3c1.7,0,2.3,0.7,2.6,1.3      c0.4,1.1,0.4,2.5,0.3,3.9c0,0.4,0,0.7,0,1.1c0,1.7,0,2.4,0.1,3c0.1,0.7,0.1,1.4,0.1,3.1c0,0.7,0,1.5-0.4,2.3      c-0.5,1-2.6,1.1-3.1,1c-4.4-0.3-8.7-0.1-13.2,0C145.5,566.1,143.2,566.2,140.9,566.2L140.9,566.2z M161.4,551.3      C161.4,551.3,161.3,551.3,161.4,551.3l-19.8,0.3c-0.7,0-1.5,0-2.1,0.4s-0.7,1.3-0.7,1.9c0,3.7,0,4.2,0.1,6.5l0.1,1.8      c0,0.9,0.1,1.7,0.5,2.3c0.3,0.4,0.8,0.6,1.5,0.7c2.3,0,4.6-0.1,6.8-0.1c4.5-0.1,8.8-0.2,13.3,0c0.8,0,2-0.2,2.1-0.5      c0.3-0.5,0.3-1.2,0.3-1.8c0-1.7,0-2.4-0.1-3c-0.1-0.7-0.1-1.4-0.1-3.1c0-0.4,0-0.7,0-1.1c0-1.2,0.1-2.6-0.3-3.5      C162.8,551.6,162.2,551.3,161.4,551.3z"/>
                </g>
                <g>
                    <path d="M139.8,554.5c-0.1,0-0.2-0.1-0.2-0.2c0-0.3,0.1-0.6,0.2-0.9c0.1-0.1,0.2-0.1,0.2,0c0.1,0.1,0.1,0.2,0,0.2      c-0.1,0.2-0.2,0.4-0.2,0.7C140,554.5,139.9,554.5,139.8,554.5C139.9,554.5,139.8,554.5,139.8,554.5z"/>
                </g>
                <g>
                    <path d="M140.5,553.4h-0.1c-0.1-0.1-0.1-0.2,0-0.2c0.2-0.2,0.5-0.3,0.8-0.4c0.4-0.1,0.7-0.2,1.1-0.2c0.1,0,0.2,0.1,0.2,0.1      c0,0.1-0.1,0.2-0.1,0.2c-0.4,0-0.7,0.1-1.1,0.2c-0.3,0.1-0.5,0.2-0.6,0.3C140.6,553.4,140.5,553.4,140.5,553.4z"/>
                </g>
                <g>
                    <path d="M161.7,563.9c-0.1,0-0.1,0-0.2-0.1c0-0.1,0-0.2,0.1-0.2c0.1-0.1,0.2-0.2,0.3-0.4s0.1-0.4,0.2-0.6c0.1-0.5,0.1-1,0.1-1.5      c0-0.1,0.1-0.2,0.2-0.2l0,0c0.1,0,0.2,0.1,0.2,0.2c0,0.5,0,1-0.1,1.5c0,0.2-0.1,0.4-0.2,0.7      C162.1,563.6,161.9,563.8,161.7,563.9L161.7,563.9z"/>
                </g>
                <g>
                    <path d="M160.2,564.1c-0.1,0-0.2,0-0.3,0s-0.2-0.1-0.2-0.2c0-0.1,0.1-0.2,0.2-0.2c0.4,0,0.7,0,1.1-0.1c0.1,0,0.2,0,0.2,0.1      s0,0.2-0.1,0.2C160.8,564.1,160.5,564.1,160.2,564.1z"/>
                </g>
                <g class="stHausMainDark2">
                    <path class="stHausMainDark5" d="M151.6,565.5C151.3,565.6,151.5,565.5,151.6,565.5c-0.5,0.1-1.2,0-1.6,0.4c-0.7,0.6-0.2,1.8,0.7,1.8      c0.2,0,0.7-0.1,0.9-0.1l0,0c0.4,0,0.8,0,1.1-0.3C153.6,566.4,152.7,565.1,151.6,565.5z"/>
                </g>
            </g>
            <g>
                <g>
                    <g>
                        <g>
                            <path class="stHausMainDark0" d="M489.6,259.6c-0.3-0.3,0-2.9,0-3.2c-2.2-0.1-2.7-0.1-5.1-0.2c0-2.1,0.1-4.4,0.2-6.6c1.5,0,3.6,0,5,0.2        c1-6.2,1.2-11.1,1.4-16.9c-7.4,0.6-7.8-8.2-7.7-10.3c0.5-7.4,8.9-8.5,10.4-8.6c5.3-0.4,10.9,4.8,10.9,8.2        c0,1.8-0.8,10.4-6.5,10.4c-0.7,4-2.2,27.2-2.5,27.4C495.1,260.4,489.9,260,489.6,259.6z M495.4,229.8c4.8-0.9,4.7-5.2,4.6-6.4        c-0.5-3.2-2.5-4.6-7-4s-5,3.6-5,5.3C487.9,230.5,494.2,230,495.4,229.8z"/>
                            <path d="M493.6,260.9c-1.9,0-4.2-0.2-4.6-0.8l0,0c-0.4-0.5-0.3-2-0.2-3c-0.6,0-1.1,0-1.6-0.1c-0.7,0-1.5,0-2.7-0.1        c-0.4,0-0.7-0.3-0.7-0.7c0-2,0.1-4,0.2-6v-0.6c0-0.4,0.4-0.7,0.8-0.7s0.9,0,1.4,0c1,0,2,0,3,0.1c0.9-5.6,1.1-10.3,1.2-15.3        c-1.9,0-3.5-0.6-4.8-1.9c-3.2-3.2-2.9-9-2.9-9.3c0.5-8.2,10-9.2,11.1-9.3c2.8-0.2,6,1,8.6,3.4c1.9,1.8,3.1,3.9,3.1,5.6        c0,3-1.2,10.5-6.6,11.1c-0.4,2.8-1,10.3-1.4,16.4c-0.8,10.6-0.8,10.6-1.3,10.9C495.9,260.8,494.8,260.9,493.6,260.9z         M490.2,259.1c0.9,0.2,3.8,0.4,4.9,0.3c0.2-1.3,0.5-5.6,0.8-9.8c0.5-7,1.2-14.9,1.5-17.1c0.1-0.4,0.4-0.6,0.7-0.6        c5.5,0,5.8-9.5,5.8-9.6c0-1.3-1-3-2.6-4.5c-2.2-2.1-5-3.2-7.4-3c-0.9,0.1-9.3,0.9-9.7,7.9c-0.1,1.9,0.2,5.9,2.4,8.1        c1.1,1.1,2.6,1.6,4.4,1.4c0.2,0,0.4,0.1,0.6,0.2c0.2,0.1,0.2,0.4,0.2,0.6c-0.1,5.5-0.3,10.7-1.4,17c-0.1,0.4-0.4,0.7-0.9,0.6        c-1-0.1-2.3-0.2-3.5-0.2c-0.2,0-0.5,0-0.7,0c-0.1,1.7-0.2,3.4-0.2,5.1c0.8,0,1.4,0,2,0.1c0.7,0,1.3,0,2.4,0.1        c0.2,0,0.4,0.1,0.6,0.3c0.1,0.2,0.2,0.4,0.1,0.6C490.3,256.8,490.2,258.4,490.2,259.1z M494,230.7c-1.5,0-3.5-0.3-4.9-1.5        c-1.3-1.1-1.9-2.6-1.9-4.6c0-3.4,2-5.5,5.7-6c4.7-0.6,7.3,0.9,7.9,4.7c0.3,2.3-0.4,6.3-5.2,7.2l0,0        C495.2,230.6,494.6,230.7,494,230.7z M495.4,229.8L495.4,229.8L495.4,229.8z M494.8,220c-0.5,0-1.1,0-1.7,0.1        c-2.9,0.4-4.4,1.9-4.4,4.5c0,1.5,0.5,2.6,1.4,3.4c1.6,1.4,4.4,1.2,5.2,1l0,0c4.5-0.9,4-5.1,4-5.5        C498.9,221.7,498.2,220,494.8,220z"/>
                        </g>
                        <g>
                            <path d="M490.5,255L490.5,255h-4.1c-0.1,0-0.3-0.1-0.3-0.3c0-0.1,0.1-0.3,0.3-0.3l0,0h4.1c0.1,0,0.3,0.1,0.3,0.3        C490.7,254.9,490.6,255,490.5,255z"/>
                        </g>
                        <g>
                            <path d="M488.4,253.6c-0.7,0-1.3,0-2-0.1c-0.1,0-0.2-0.1-0.2-0.3c0-0.1,0.1-0.2,0.3-0.2c1,0.1,2,0.1,3,0.1        c0.1,0,0.3,0.1,0.3,0.2c0,0.1-0.1,0.3-0.2,0.3C489.1,253.6,488.7,253.6,488.4,253.6z"/>
                        </g>
                    </g>
                    <g>
                        <path d="M494.7,221.1c-0.9,0-1.7-0.3-2.4-0.9c-1.4-1.1-1.8-2.9-2-4.1c-0.4-2.4-0.4-5,0.2-7.3c0.6-2.4,1.6-4.3,3.1-5.4       c1.7-1.3,4.5-1.7,6.3,0c0.6,0.6,1.1,1.4,1.5,2.4c1.1,3.2,0.6,6.9-1.2,9.7c-0.2,0.3-0.7,0.4-1,0.2s-0.4-0.7-0.2-1       c1.6-2.4,2-5.6,1-8.4c-0.3-0.8-0.6-1.4-1.1-1.8c-1.2-1.1-3.2-0.8-4.4,0.1c-1.2,0.9-2,2.4-2.5,4.5c-0.5,2.2-0.6,4.5-0.2,6.7       c0.3,1.6,0.8,2.6,1.5,3.2c0.4,0.4,1.1,0.6,1.7,0.5c0.3,0,0.7-0.1,0.9-0.5c0.2-0.3,0.7-0.4,1.1-0.2c0.3,0.2,0.4,0.7,0.2,1.1       c-0.5,0.6-1.2,1-2,1.1C495,221.1,494.9,221.1,494.7,221.1z"/>
                    </g>
                </g>
                <g>
                    <path class="stHausMainDark0" d="M514.2,228.8c0.5-1.5,2-2.3,3.4-2.8c6.8-2.7,14.1-4.1,21.4-4.1c1,0,2.3,0.1,2.9,1c0.9,1.2-0.1,2.9-1.2,3.9      c-1.3,1.1-2.8,2-4.3,2.7c-3.3,1.7-6.8,3.2-10.5,3.9c-3.7,0.6-7.6,0.3-10.9-1.5c-0.4-0.2-0.9-0.5-1.1-0.9      C513.6,230.5,513.8,230,514.2,228.8z"/>
                    <path d="M522.5,234.4c-2.9,0-5.6-0.6-7.9-1.9c-0.5-0.3-1.1-0.6-1.4-1.2c-0.4-0.7-0.2-1.3,0.1-2.4l0.1-0.4      c0.6-1.8,2.3-2.7,3.9-3.3c6.8-2.8,14.3-4.2,21.7-4.1c0.8,0,2.6,0,3.5,1.3c1.1,1.6,0.1,3.6-1.3,4.9c-1.3,1.1-2.7,1.9-4.4,2.8      c-2.8,1.5-6.6,3.2-10.7,3.9C524.8,234.3,523.7,234.4,522.5,234.4z M538.4,222.7c-7,0-14,1.4-20.5,4c-1.3,0.5-2.6,1.2-3,2.4l0,0      l-0.1,0.4c-0.1,0.5-0.3,1-0.3,1.1c0.2,0.3,0.5,0.5,0.9,0.7c2.9,1.6,6.6,2.1,10.4,1.4c3.9-0.7,7.5-2.4,10.3-3.8      c1.6-0.9,3-1.6,4.1-2.6c0.7-0.7,1.7-2,1.1-2.9c-0.4-0.6-1.4-0.7-2.3-0.7C538.8,222.7,538.6,222.7,538.4,222.7z M514.2,228.8      L514.2,228.8L514.2,228.8z"/>
                </g>
                <g>
                    <path class="stHausMainDark0" d="M242.5,307.9c0.5,1.3,2,5.4,1.9,6.8c-0.6,7-3.2,7.6-8.6,12.1c-0.8,0.6-9.1,2.4-10.1,2.2      c-1.3-0.3-1.6-2-1.3-3.4c0.3-1.5,0.9-3,1.5-4.5c1.4-3.2,3.1-6.4,5.4-9.1c2.3-2.7,5.4-4.9,8.8-5.8c0.5-0.1,0.9-0.2,1.4-0.1      C242,306.3,242.1,306.8,242.5,307.9z"/>
                    <path d="M225.9,329.7c-0.1,0-0.2,0-0.3,0c-1.8-0.4-2.2-2.5-1.9-4.2s1-3.3,1.6-4.6c1.2-2.7,2.9-6.3,5.5-9.3      c2.6-3.1,5.9-5.2,9.2-6c0.6-0.1,1.2-0.2,1.8-0.1c0.7,0.2,1,0.9,1.3,1.8l0.1,0.3c0.8,2,2.1,5.6,1.9,7.1      c-0.5,6.1-2.6,7.7-6.3,10.6c-0.8,0.6-1.6,1.3-2.5,2C235.4,328.1,227.6,329.7,225.9,329.7z M241.1,306.9c-0.2,0-0.5,0.1-0.7,0.1      c-3,0.7-6,2.7-8.4,5.5c-2.5,2.9-4.1,6.3-5.3,8.9c-0.7,1.6-1.2,2.9-1.5,4.3c-0.2,0.9-0.1,2.3,0.7,2.5c1,0.1,8.6-1.5,9.5-2.1      c0.9-0.8,1.8-1.5,2.6-2.1c3.6-2.8,5.3-4.1,5.8-9.5c0.1-0.8-0.6-3.4-1.8-6.5l0,0l-0.1-0.4c-0.1-0.3-0.3-0.7-0.4-0.8      C241.3,306.9,241.2,306.9,241.1,306.9z"/>
                </g>
                <g>
                    <path class="stHausMainDark0" d="M519.1,233.1c-1.1-6.3-4.2-12.2-8.7-16.7c-1-1-2.2-2-3.4-2.8c-3.1-2-6.8-3-9.8-5.2      c-0.7-0.5-1.4-1.1-1.9-1.9c-0.3-0.4-0.5-0.8-0.4-1.3c0-0.6,0.4-1.1,0.9-1.5c1.6-1.2,3.8-1,5.7-0.7c5.5,0.9,10.8,2.6,16,4.2      c0.8,0.3,1.6,0.5,2.3,1.1c0.6,0.5,1,1.2,1.4,2c0.8,1.7,1.3,3.5,1.8,5.4c1.5,5.6,2.4,11.5,1.2,17.1c-0.3,1.2-0.8,2.6-2,2.9      c-0.9,0.3-1.8-0.2-2.4-0.8C519.3,234.4,518.9,233.6,519.1,233.1z"/>
                </g>
                <g>
                    <path d="M518.7,230.3c-0.3,0-0.6-0.2-0.7-0.5c-2.3-7.6-8-14.2-15.1-17.7c-0.5-0.2-1-0.5-1.5-0.7c-2.2-1-4.5-2.1-6.1-4.1      c-0.7-0.8-1-1.6-0.9-2.4c0.2-2.1,2.6-2.8,4.9-2.6c6.4,0.5,12.7,2.1,18.6,4.5c0.4,0.2,0.6,0.6,0.4,1c-0.2,0.4-0.6,0.6-1,0.4      c-5.8-2.4-11.9-3.9-18.2-4.4c-1.2-0.1-3.1,0.1-3.2,1.2c0,0.4,0.2,0.8,0.6,1.3c1.4,1.7,3.4,2.6,5.5,3.6c0.5,0.2,1.1,0.5,1.6,0.7      c7.5,3.7,13.4,10.6,15.9,18.6c0.1,0.4-0.1,0.8-0.5,0.9C518.8,230.3,518.7,230.3,518.7,230.3z"/>
                </g>
                <g>
                    <path class="stHausMainDark0" d="M520.4,229.6c0.4,3.2-1.1,6-0.7,9.2c0.5,3.6,1,7.3,3.3,10.1c1.5,1.9,4,3.2,6.3,2.5s3.6-3.1,4.6-5.3      c2.1-5,3.4-10.3,3.8-15.7c0.2-2.8,0.2-5.6,0.3-8.4c0.2-5.3,0.8-10.8,3.2-15.6c3.2-6.4,9.3-10.8,13.4-16.6      c0.4-0.6,0.9-1.4,0.7-2.1c-0.3-1.3-2.3-1.4-3.6-0.9c-5.6,2.2-8.3,8.9-13.7,11.5c-0.5-0.5-1-0.9-1.5-1.4c0.4-5.9,0.5-12.1,0-18.4      c-0.2-2.5-0.5-5.1-1.8-7.3c-0.2-0.3-0.5-0.7-0.8-0.9c-0.9-0.5-2.1,0.1-2.6,1.1c-0.5,0.9-0.4,2-0.3,3.1c0.5,7,0.1,14.1-1.3,21      c-0.7-6.9-5.2-12.8-9.5-18.3c-0.5-0.7-1.1-1.4-1.9-1.9c-0.7-0.5-1.7-0.7-2.5-0.4c-1.3,0.5-1.8,2.2-1.5,3.6      c0.3,1.4,1.3,2.5,2.1,3.6c2.9,3.9,4.7,8.5,5.3,13.3c-1.4-1.9-2.7-3.7-4.3-5.1c-1.6-1.4-3.8-2.3-5.9-2.1      c-5.8,4.5-10.3,10.7-12.6,17.6c-0.3,0.9-0.5,2.1,0.2,2.8c0.5,0.6,1.5,0.6,2.2,0.3s1.3-0.9,1.8-1.5c2.4-2.7,3.8-6.4,6.5-8.6      c0.7-0.6,1.5-1.2,2.3-1.8s1.8-0.9,2.8-0.6c1.7,0.6,2.1,2.7,2.3,4.4c0.2,2.3,0.5,4.7,0.4,7.5      C516.6,215.8,519.7,223.9,520.4,229.6z"/>
                </g>
                <g>
                    <path class="stHausMainDark0" d="M508,191.2c-3.8,4.5-7.7,9.2-9.1,14.8c-0.2,0.7-0.3,1.4,0,2c0.5,0.8,1.7,1,2.5,0.6c0.9-0.4,1.5-1.2,2.1-2      c2.3-3,4.7-5.9,7.2-8.7c0.3-0.3,0.6-0.7,0.7-1.1c0.3-0.8-0.2-1.7-0.6-2.5c-0.4-0.6-0.8-1.3-1.3-1.8      C509,192.1,508.3,191.7,508,191.2z"/>
                </g>
                <g>
                    <g>
                        <path class="stHausMainDark0" d="M234.3,327.2c2.9-0.4,8.1-5,11.1-7.2c-2.7-17.5-25.9-24.6-33.9-31.9c-0.7-0.6-1.8-1.1-2.7-0.6       c-0.7,0.4-0.9,1.3-0.7,2c0.2,0.8,0.7,1.4,1.2,2c2.5,3.2,5.1,6.4,7.6,9.5c0.4,0.5,0.7,1,0.5,1.6c-0.2,0.3-0.5,0.5-0.9,0.7       c-2.1,0.7-4.3,0.1-6.4-0.7c-6.7-2.6-12.7-6.8-19.1-10c-0.7-0.4-1.6-0.7-2.3-0.4c-0.9,0.3-1.2,1.4-1,2.3s0.8,1.7,1.4,2.7       c-1.4-1-3.1-1.5-4.8-1.9c-0.6-0.1-1.1-0.3-1.7-0.2c-0.6,0.1-1.1,0.3-1.4,0.9c-0.3,0.6-0.1,1.3,0.2,2c0.4,0.8,0.9,1.6,1.6,2.5       c-0.4-0.2-0.8-0.3-1.3-0.4c-0.4-0.1-0.9,0-1.3,0.3c-0.4,0.3-0.6,0.8-0.7,1.2c0,0.5,0.1,1,0.2,1.4c0.3,1,0.7,1.9,1.1,2.9       c-0.6,0.3-0.9,1.1-0.7,1.8c0.2,0.7,0.6,1.3,1.1,1.8c2.7,2.9,6.1,5.1,9.5,7.2c2.6,1.6,5.2,3.2,8,4.3c1.4,0.5,2.8,0.9,4.3,1.3       c1.6,0.5,3.3,0.9,5,1.1c1.3,0.2,2.7,0.1,4,0.2c3.3,0,6.6,0.2,9.9,0.6C225,324.5,231.5,325.6,234.3,327.2z"/>
                    </g>
                    <g>
                        <path d="M202.9,305.4c-0.1,0-0.2,0-0.3,0c-4.7-1.7-9.3-4-13.4-6.9c-3.8-2.6-5.8-2.7-6.6-2.5c-0.5,0.1-0.7,0.4-0.7,0.4       c-0.4,0.9,1,2.8,1.4,3.4c0.2,0.3,0.3,0.4,0.4,0.6c0.1,0.4-0.1,0.8-0.5,1c-0.4,0.1-0.8,0-0.9-0.4c0-0.1-0.1-0.2-0.2-0.3       c-0.8-1-2.4-3.2-1.6-5c0.2-0.5,0.8-1,1.6-1.2c1.3-0.4,3.7-0.2,7.9,2.7c4.1,2.8,8.5,5,13.1,6.7c0.4,0.1,0.6,0.6,0.5,1       C203.5,305.2,203.3,305.4,202.9,305.4z M182.4,300.8L182.4,300.8L182.4,300.8z"/>
                    </g>
                    <g>
                        <path d="M245.4,320.8c-0.3,0-0.7-0.2-0.7-0.6c-3.2-14.1-14.1-19.8-22.1-24c-2.8-1.5-5.2-2.7-6.8-4.1c-1.7-1.4-3.4-2.9-5.4-3.6       c-0.5-0.2-1.1-0.3-1.4,0c-0.3,0.4,0.1,1.3,0.6,2c2.3,3,4.8,5.9,7.3,8.7c0.8,0.9,1.6,2.4,1.3,3.5c-0.1,0.6-0.5,1.1-1.1,1.3       c-0.5,0.2-1,0.2-1.4,0.2c-5.7-0.4-10.8-3-15.8-5.6c-0.5-0.2-0.9-0.5-1.4-0.7c-1.1-0.5-2.2-1.2-3.3-1.9       c-2.3-1.4-6.1-3.6-6.8-2.9c0,0-0.1,0.2-0.1,0.4c0.1,1.3,1.4,3.4,1.9,3.7c0.3,0.2,0.5,0.5,0.4,0.9s-0.5,0.6-0.9,0.5       c-0.9-0.2-2.4-2.8-2.7-4.2c-0.3-1.1-0.2-1.9,0.4-2.4c1.6-1.5,4.8,0.4,8.6,2.7c1.1,0.7,2.3,1.3,3.3,1.9c0.5,0.2,1,0.5,1.4,0.7       c4.8,2.5,9.8,5.1,15.2,5.5c0.3,0,0.5,0,0.7,0c0.1-0.1,0.2-0.1,0.2-0.3c0.1-0.5-0.3-1.5-1-2.2c-2.6-2.8-5.1-5.8-7.4-8.8       c-1.2-1.6-1.4-3-0.5-4c0.7-0.7,1.7-0.8,3-0.4c2.3,0.8,4.2,2.4,5.9,3.9c1.5,1.3,3.8,2.5,6.5,3.9c8.2,4.3,19.5,10.2,22.9,25       c0.1,0.4-0.2,0.8-0.6,0.9C245.5,320.8,245.5,320.8,245.4,320.8z M190.1,297.2L190.1,297.2L190.1,297.2z"/>
                    </g>
                    <g>
                        <path d="M200,309.9c-0.1,0-0.2,0-0.2,0c-5.7-1.9-11-4.6-16-7.9h-0.1c-0.6-0.4-1.1-0.7-1.7-0.9c-0.4-0.1-1-0.1-1.3,0.3       c-0.6,0.7,0,2.6,1.4,4.2c0.3,0.3,0.2,0.8-0.1,1.1c-0.3,0.3-0.8,0.2-1.1-0.1c-1.6-2-2.7-4.6-1.4-6.1c0.6-0.7,1.7-1,2.8-0.7       c0.8,0.2,1.5,0.7,2.1,1.1h0.1c4.8,3.3,10.1,5.9,15.6,7.7c0.4,0.1,0.6,0.6,0.5,1C200.6,309.7,200.3,309.9,200,309.9z"/>
                    </g>
                    <g>
                        <path d="M232.7,328c-0.1,0-0.2,0-0.3-0.1c-4.6-2.3-11.3-2.7-17.3-3.1c-1.4-0.1-2.7-0.2-4-0.3c-7.6-0.6-14.9-3.1-21.3-7.3       c-1-0.7-1.9-1.3-2.8-1.9c-1.1-0.7-2.1-1.3-3-2.1c-2.1-1.6-3.5-3.5-4.2-5.6c-0.2-0.5-0.3-1.2,0-1.8c0.4-0.7,1.4-1,2.5-0.7       s2.1,0.9,3,1.5l0.2,0.1c4.1,2.5,8.5,4.6,13,6.3c0.4,0.1,0.6,0.6,0.4,1c-0.1,0.4-0.6,0.6-1,0.4c-4.6-1.7-9.1-3.9-13.3-6.4       l-0.2-0.1c-0.9-0.5-1.8-1-2.7-1.3c-0.4-0.1-0.7-0.1-0.8,0c0,0-0.1,0.1,0.1,0.6c0.6,1.7,1.9,3.4,3.7,4.9c0.9,0.7,1.9,1.3,2.9,2       c0.9,0.6,1.9,1.2,2.9,1.9c6.1,4,13.2,6.4,20.5,7c1.2,0.1,2.5,0.2,3.9,0.3c6.1,0.4,13,0.8,17.9,3.2c0.4,0.2,0.5,0.6,0.3,1       C233.3,327.8,233,328,232.7,328z"/>
                    </g>
                </g>
                <g>
                    <path class="stHausMainDark1" d="M432.4,179.3c7.1,12.5-1.8,31.8,5.5,42c4,5.6,10.1,9.3,14.5,14.6c4.5,5.2,7.1,13.3,3.1,19.2      c-1,1.5-2.4,2.7-3.1,4.4c-1.9,4.4,1.6,8.9,4.1,13c12.7,21.4-12.1,34.3-36.4,27.4c-10.9-3.1-15-5.2-23.2-13      c-8-7.6-12.6-18.6-14-29.8c-1.4-11.2,0-22.7,2.6-33.8c3-12.8,8-25.8,17.8-34.7C412.9,179.7,421.5,170.4,432.4,179.3z"/>
                    <path d="M433.1,302.4c-4.4,0-8.9-0.6-13.4-1.9c-10.6-3-15-5.1-23.5-13.2c-7.6-7.2-12.7-18-14.3-30.2c-1.3-9.9-0.4-21.1,2.7-34.1      c3.9-16.3,9.6-27.5,18-35.1c0.7-0.6,1.3-1.2,2-1.8c9.1-8.3,17.6-16.2,28.2-7.5c0.1,0.1,0.1,0.1,0.2,0.2      c3.6,6.4,3.2,14.4,2.8,22.2c-0.4,7.6-0.8,14.9,2.7,19.8c2.2,3,5.1,5.6,7.9,8.1c2.3,2,4.6,4.1,6.6,6.4c4.5,5.3,7.4,13.9,3.1,20.1      c-0.4,0.6-0.8,1.1-1.2,1.6c-0.7,0.9-1.4,1.7-1.8,2.7c-1.5,3.4,0.8,7,2.9,10.5c0.4,0.6,0.7,1.2,1.1,1.7      c4.6,7.7,4.7,15.1,0.3,20.9C452.6,299,443.4,302.4,433.1,302.4z M423.5,176.5c-6.1,0-11.7,5.2-17.9,10.9c-0.6,0.6-1.3,1.2-2,1.8      c-8.2,7.4-13.7,18.3-17.5,34.3c-3,12.8-3.9,23.8-2.6,33.5c1.5,11.9,6.4,22.3,13.8,29.3c8.3,7.9,12.3,9.8,22.8,12.8      c14.5,4.1,29.7,1.1,36-7.1c4.1-5.3,3.9-11.9-0.4-19.2c-0.3-0.6-0.7-1.1-1.1-1.7c-2.3-3.6-4.9-7.8-3-11.9c0.5-1.1,1.3-2.1,2-3      c0.4-0.5,0.8-1,1.2-1.5c3.8-5.6,1.1-13.4-3-18.3c-1.9-2.3-4.2-4.3-6.5-6.3c-2.9-2.5-5.8-5.2-8.1-8.3c-3.9-5.4-3.4-12.9-3-20.8      c0.4-7.5,0.8-15.2-2.5-21.2C428.9,177.4,426.1,176.5,423.5,176.5z"/>
                </g>
                <g>
                    <path d="M528.1,252.3c-2.2,0-4.3-1.4-5.6-3c-2.5-3-3-7.1-3.4-10.5l-1.3-9.6c-0.1-0.4,0.2-0.8,0.6-0.9c0.4-0.1,0.8,0.2,0.8,0.7      l1.3,9.6c0.4,3.1,0.9,7,3.1,9.7c1.3,1.6,3.5,2.9,5.5,2.2c2.1-0.6,3.3-2.9,4.1-4.8c2.1-4.9,3.3-10.1,3.7-15.5      c0.1-1.9,0.2-3.8,0.2-5.6c0-0.9,0-1.8,0.1-2.8c0.1-4.7,0.6-10.7,3.3-15.9c1.9-3.8,4.9-7,7.7-10c2-2.1,4.1-4.3,5.7-6.7      c0.3-0.5,0.7-1.1,0.6-1.5c0-0.1-0.1-0.3-0.4-0.4c-0.5-0.3-1.4-0.2-2.2,0.1c-2.7,1.1-4.7,3.3-6.9,5.7c-2,2.2-4.1,4.5-6.8,5.8      c-0.3,0.1-0.6,0.1-0.9-0.1l-1.5-1.4c-0.2-0.2-0.2-0.4-0.2-0.6c0.4-6.1,0.4-12.3,0-18.3c-0.2-2.4-0.5-4.9-1.7-6.9      c-0.1-0.2-0.3-0.5-0.5-0.6s-0.4-0.1-0.6,0c-0.4,0.1-0.7,0.4-0.9,0.8c-0.4,0.7-0.3,1.7-0.2,2.7c0.5,7.1,0.1,14.3-1.3,21.3      c-0.1,0.4-0.4,0.6-0.8,0.6c-0.4,0-0.7-0.3-0.7-0.7c-0.7-6.9-5.5-13-9.4-17.9c-0.5-0.6-1-1.3-1.7-1.7c-0.5-0.3-1.2-0.6-1.9-0.4      c-0.9,0.3-1.3,1.7-1,2.7s0.9,1.9,1.7,2.9c0.1,0.2,0.2,0.3,0.3,0.5c2.9,4,4.8,8.7,5.5,13.6c0,0.3-0.1,0.7-0.5,0.8      c-0.3,0.1-0.7,0-0.9-0.2l-0.5-0.7c-1.2-1.6-2.3-3.1-3.6-4.2c-1.4-1.2-4-1.9-5.6-1.1c-5.2,2.8-9.1,8.3-11.6,16.2      c-0.3,1-0.3,1.7,0,2s0.9,0.3,1.3,0.1c0.6-0.2,1-0.7,1.5-1.3c1.3-1.5,2.1-2.7,2.9-4c0.6-1,1.3-2,2.2-3.3c0.7-0.9,3.1-2.7,3.8-3.3      c1.1-0.8,2.4-1,3.5-0.7c2.1,0.7,2.6,3.2,2.8,5.1l0.7,7c0,0.4-0.3,0.8-0.7,0.8s-0.8-0.3-0.8-0.7l-0.7-7c-0.2-2.3-0.8-3.5-1.8-3.8      c-0.6-0.2-1.4,0-2.1,0.5c-0.9,0.7-3,2.3-3.5,3c-0.9,1.2-1.5,2.2-2.1,3.1c-0.8,1.3-1.6,2.6-3,4.2c-0.5,0.6-1.2,1.3-2.1,1.7      c-1.1,0.5-2.4,0.3-3.1-0.5c-1.1-1.2-0.5-2.9-0.3-3.5c2.7-8.3,6.8-14.1,12.4-17.1c2.2-1.2,5.5-0.3,7.3,1.2      c0.9,0.8,1.7,1.7,2.5,2.6c-0.9-3.5-2.4-6.9-4.6-9.8l-0.3-0.4c-0.8-1-1.6-2.1-1.9-3.4c-0.4-1.7,0.2-3.8,1.9-4.5      c1-0.4,2.2-0.2,3.2,0.5c0.8,0.6,1.5,1.4,2,2.1c3.2,4.1,7.1,9.1,8.8,14.7c0.8-5.6,1-11.3,0.6-16.9c-0.1-1.1-0.2-2.4,0.4-3.5      c0.4-0.7,1.1-1.3,1.8-1.6c0.6-0.2,1.3-0.1,1.8,0.2s0.8,0.7,1.1,1.1c1.4,2.3,1.7,5,1.9,7.6c0.5,5.9,0.5,12,0,18.1l0.8,0.8      c2.3-1.2,4-3.2,5.9-5.2c2.2-2.4,4.4-4.8,7.4-6c0.9-0.4,2.3-0.6,3.4,0c0.6,0.3,1,0.8,1.2,1.4c0.3,1-0.3,2-0.8,2.7      c-1.7,2.5-3.8,4.7-5.9,6.9c-2.8,3-5.7,6-7.5,9.6c-2.5,4.9-3,10.7-3.1,15.3c0,0.9,0,1.8-0.1,2.7c0,1.9-0.1,3.8-0.2,5.7      c-0.4,5.5-1.7,10.9-3.8,16c-0.9,2.2-2.4,4.9-5,5.7C529.1,252.2,528.6,252.3,528.1,252.3z"/>
                </g>
                <g>
                    <path class="stHausMainDark1" d="M356.9,184.6c-7.1,12.5,1.8,31.8-5.5,42c-4,5.6-10.1,9.3-14.5,14.6c-4.5,5.2-7.1,13.3-3.1,19.2      c1,1.5,2.4,2.7,3.1,4.4c1.9,4.4-1.6,8.9-4.1,13c-12.7,21.4,12.1,34.3,36.4,27.4c10.9-3.1,15-5.2,23.2-13      c8-7.6,12.6-18.6,14-29.8c1.4-11.2,0-22.7-2.6-33.8c-3-12.8-8-25.8-17.8-34.7C376.3,184.9,367.7,175.7,356.9,184.6z"/>
                    <path d="M356.1,307.7c-10.3,0-19.5-3.4-24.2-9.5c-4.4-5.7-4.3-13.1,0.3-20.9c0.3-0.6,0.7-1.1,1.1-1.7c2.2-3.5,4.4-7.1,2.9-10.5      c-0.4-1-1.1-1.8-1.8-2.7c-0.4-0.5-0.9-1-1.2-1.6c-4.3-6.3-1.4-14.8,3.1-20.1c2-2.4,4.3-4.4,6.6-6.5c2.8-2.5,5.7-5,7.9-8.1      c3.5-4.9,3.1-12.2,2.7-19.8c-0.4-7.7-0.9-15.8,2.8-22.2c0-0.1,0.1-0.2,0.2-0.2c10.6-8.7,19.2-0.8,28.2,7.5      c0.6,0.6,1.3,1.2,2,1.8c8.4,7.6,14.1,18.8,18,35.1c3.1,13,3.9,24.1,2.7,34.1c-1.6,12.2-6.6,23-14.3,30.2      c-8.5,8-12.8,10.1-23.5,13.2C365,307.1,360.4,307.7,356.1,307.7z M357.4,185c-3.3,6-2.9,13.7-2.5,21.2c0.4,7.9,0.9,15.4-3,20.8      c-2.3,3.2-5.2,5.8-8.1,8.3c-2.2,2-4.5,4-6.5,6.3c-4.1,4.9-6.9,12.7-3,18.3c0.3,0.5,0.7,1,1.2,1.5c0.8,0.9,1.5,1.9,2,3      c1.8,4.2-0.8,8.3-3,11.9c-0.4,0.6-0.7,1.1-1.1,1.7c-4.3,7.3-4.5,13.9-0.4,19.2c6.3,8.2,21.5,11.2,36,7.1      c10.5-3,14.6-4.9,22.8-12.8c7.4-7,12.3-17.4,13.8-29.3c1.3-9.8,0.4-20.7-2.6-33.5c-3.8-16-9.4-26.9-17.5-34.3      c-0.7-0.6-1.3-1.2-2-1.8C374.7,184.4,367,177.4,357.4,185z"/>
                </g>
                <g>
                    <path class="stHausMainDark0" d="M381.4,277.8c2.4-11.1,3.6-22.4,4.7-35.4c4.6-1.3,9.4-1.8,14.2-1.5c2.1,0.1,4.5,0.5,5.9,2.2      c0.8,1.1,1.1,2.5,1.4,3.8c1.8,9.3,3.7,18.6,5.5,27.9c0.1,0.7,0.3,1.5,0.1,2.2c-0.2,1-1.1,1.7-1.9,2.3      C402.7,285.7,390,285.4,381.4,277.8z"/>
                    <path d="M397.4,284.6c-5.9,0-11.9-2.1-16.6-6.2c-0.2-0.2-0.3-0.5-0.2-0.7c2.3-10.8,3.5-21.9,4.7-35.3c0-0.3,0.2-0.6,0.6-0.7      c4.7-1.3,9.5-1.8,14.4-1.6c2.2,0.1,4.8,0.5,6.4,2.5c1,1.2,1.3,2.9,1.6,4.2l5.5,27.9c0.1,0.7,0.3,1.6,0.1,2.5      c-0.3,1.2-1.3,2.1-2.2,2.8C407.5,283.1,402.5,284.6,397.4,284.6z M382.2,277.5c8.1,6.8,20.3,7.4,28.6,1.2      c0.7-0.5,1.4-1.1,1.6-1.9c0.1-0.6,0-1.2-0.1-1.8l-5.5-27.9c-0.2-1.2-0.5-2.6-1.3-3.5c-1.2-1.5-3.5-1.9-5.3-2      c-4.5-0.3-9,0.2-13.4,1.4C385.7,256,384.4,266.9,382.2,277.5z"/>
                </g>
                <g>
                    <path class="stHausMainDark0" d="M426.9,179.5c0,0,1.4,14.4,1.4,21.7c4.1-4.5,12.5-0.5,9.6,6.5c-2.4,5.9-9.2,4.6-9.2,4.6      s-5.5,36.6-31.4,35.5c-31.4,1.4-35.9-37.1-35.9-37.1c-4.3,5.7-12,0.9-11.6-4.8c0.4-6.2,6.9-11.2,12.1-4.7      c0.4-7.8,1.4-14.3,3.1-22.2c0.6-4.7,4.2-8.7,8.5-11s9.4-3.1,14.3-3.3c5.9-0.3,11.8,0.2,17.5,1.4      C413.2,167.7,421.3,171.2,426.9,179.5z"/>
                    <path d="M395.7,248.5c-12.4,0-22.3-6.3-28.8-18.4c-3.9-7.3-5.5-14.6-6-17.7c-1.9,1.6-4.2,2.1-6.6,1.2c-3.3-1.2-5.5-4.5-5.2-7.8      c0.3-3.8,2.6-7.2,5.7-8.2c1.4-0.4,3.9-0.7,6.5,1.7c0.4-6.7,1.3-12.8,3-20.5c0.6-4.6,3.9-8.9,8.9-11.5c3.9-2,8.5-3.1,14.7-3.4      c5.9-0.3,11.9,0.2,17.7,1.4c10,2.1,17.2,6.6,22,13.7c0.1,0.1,0.1,0.2,0.1,0.3s1.2,12.6,1.4,20.1c2.4-1.5,5.3-1.2,7.3,0      c2.7,1.7,3.6,5,2.3,8.3c-2.1,5.1-7.3,5.3-9.3,5.2c-0.4,2.3-2,10-6,17.7c-6.2,12.1-15.2,18.2-26.1,17.7      C396.8,248.5,396.2,248.5,395.7,248.5z M361.4,209.9c0.1,0,0.1,0,0.2,0c0.3,0.1,0.5,0.3,0.6,0.6c0,0.1,1.2,9.6,6.1,18.8      c6.6,12.2,16.3,18.1,29,17.6c0,0,0,0,0.1,0c10.4,0.5,18.7-5.2,24.7-16.9c4.5-8.8,5.9-17.9,5.9-18c0-0.2,0.1-0.4,0.3-0.5      c0.2-0.1,0.4-0.2,0.6-0.1c0.3,0,6.2,1,8.4-4.2c1.3-3.2,0-5.4-1.7-6.5c-1.9-1.2-4.8-1.3-6.7,0.8c-0.2,0.2-0.5,0.3-0.8,0.2      s-0.5-0.4-0.5-0.7c0-6.7-1.2-19.7-1.4-21.4c-4.6-6.7-11.4-10.9-21-12.9c-5.7-1.2-11.5-1.7-17.3-1.4c-5.9,0.3-10.4,1.3-14,3.2      c-4.5,2.4-7.5,6.3-8.1,10.4c0,0,0,0,0,0.1c-1.8,8.4-2.7,14.8-3.1,22.1c0,0.3-0.2,0.6-0.5,0.7c-0.3,0.1-0.6,0-0.8-0.2      c-1.9-2.3-4-3.2-6.1-2.5c-2.5,0.8-4.4,3.7-4.6,6.8c-0.2,2.6,1.7,5.3,4.3,6.2c2.3,0.8,4.5,0.1,6-1.9      C361,210,361.2,209.9,361.4,209.9z M429,201.1L429,201.1L429,201.1z"/>
                </g>
                <g>
                    <ellipse class="stHausMainDark1" cx="421" cy="145.5" rx="22.7" ry="21.8"/>
                    <path d="M421,168.1c-11.6,0-21.7-8.3-23.2-19.6c-0.8-5.8,0.8-11.6,4.4-16.4c3.8-5,9.4-8.2,15.8-9c12.8-1.6,24.6,7.1,26.3,19.4      l0,0c0.8,5.8-0.8,11.6-4.4,16.4c-3.8,5-9.4,8.2-15.8,9C423,168,422,168.1,421,168.1z M421,124.4c-1,0-1.9,0.1-2.9,0.2      c-6,0.8-11.2,3.7-14.8,8.4c-3.4,4.4-4.8,9.8-4.1,15.2c1.5,10.6,10.9,18.3,21.7,18.3c1,0,1.9-0.1,2.9-0.2      c6-0.8,11.2-3.7,14.8-8.4c3.4-4.4,4.8-9.8,4.1-15.2l0,0C441.3,132.1,431.8,124.4,421,124.4z"/>
                </g>
                <g>
                    <path class="stHausMainDark1" d="M441.8,403c13,26.5,22.8,45.7,23.1,72.6c0.4,32.1-9.4,73-11.3,103.6c-40.5,0.3-62-0.4-101.3-1      c-1.3-30.9-15.4-64.8-13.9-95.7c1.4-29.4,0.4-41.5,28.2-82.5C389.6,402.7,412.8,405.4,441.8,403z"/>
                    <path d="M435.6,580c-20.8,0-36.9-0.3-56.3-0.6c-8.4-0.1-17-0.3-26.9-0.4c-0.4,0-0.7-0.3-0.7-0.7c-0.6-13.8-3.8-28.5-6.9-42.7      c-3.9-17.6-7.8-35.9-7-53c0.1-1.7,0.2-3.3,0.2-4.9c1.2-26.1,1.7-39.2,28.2-78c0.2-0.2,0.4-0.4,0.7-0.3c22.6,2.7,45.9,5.4,75,3      c0.3,0,0.6,0.1,0.7,0.4l0.8,1.7c12.8,26,22,44.8,22.3,71.3c0.2,18.7-3,40.4-6.1,61.3c-2.3,15.2-4.4,29.5-5.2,42.3      c0,0.4-0.4,0.7-0.7,0.7C447.2,580,441.2,580,435.6,580z M353.1,577.4c9.6,0.1,18,0.3,26.2,0.4c24.5,0.4,43.8,0.8,73.7,0.6      c0.8-12.6,2.9-26.8,5.1-41.7c3.1-20.9,6.3-42.5,6.1-61.1c-0.3-26.2-9.5-44.8-22.2-70.6l-0.6-1.2c-28.8,2.3-52-0.4-74.4-3      c-25.9,38.2-26.5,51.2-27.6,76.9c-0.1,1.6-0.1,3.2-0.2,4.9c-0.8,16.9,3.2,35.1,7,52.6C349.2,549.2,352.4,563.7,353.1,577.4z"/>
                </g>
                <g>
                    <path class="stHausMainDark1" d="M411.6,167.9c-18,16.3-38.2,21.9-58.3,25.5c-1.2-3.2-1.3-11.1-0.6-14.5c1.7-8.3,4.4-15.8,15.2-23.5      c7.6-5.4,16.8-9.1,26.2-9.8c9.3-0.7,18.3,5.7,22.2,11.6c6.8-0.8,14.1,4.7,17.3,11.7c2.8,6,4.8,15.9-2,26.6      C430.5,194.7,415.9,177.7,411.6,167.9z"/>
                    <path d="M431.7,196.2c-0.1,0-0.3,0-0.4-0.1c-1.2-0.7-15.1-16.8-19.9-26.9c-18,16-38.4,21.5-57.9,25c-0.4,0.1-0.7-0.1-0.8-0.5      c-1.3-3.4-1.3-11.6-0.6-14.9c1.8-9.3,5.1-16.5,15.5-24c7.9-5.7,17.3-9.2,26.6-9.9c9.2-0.7,18.2,5.2,22.6,11.6      c6.6-0.5,14.1,4.7,17.6,12.2c2.4,5.2,5.4,15.6-2,27.3C432.2,196,431.9,196.2,431.7,196.2z M411.6,167.1c0.1,0,0.1,0,0.2,0      c0.2,0.1,0.4,0.2,0.5,0.4c3.9,8.9,16.2,23.6,19.2,26.7c6.4-10.7,3.7-20.3,1.5-25.1c-3.3-7.1-10.4-12-16.6-11.3      c-0.3,0-0.6-0.1-0.7-0.3c-3.9-6-12.8-11.9-21.5-11.3c-9,0.7-18.2,4.1-25.8,9.6c-11.1,8-13.4,15.8-14.9,23.1      c-0.6,3.2-0.5,10.2,0.4,13.5c19.3-3.5,39.5-9.1,57.2-25.2C411.2,167.2,411.4,167.1,411.6,167.1z"/>
                </g>
                <g>
                    <path d="M396.1,234.5c-2,0-3.8-0.7-5.1-2.1c-0.3-0.3-0.3-0.8,0.1-1.1c0.3-0.3,0.8-0.3,1.1,0.1c1.2,1.4,3.4,1.9,5.7,1.4      c2.6-0.6,4.9-2.1,6.5-4.4c0.2-0.3,0.7-0.4,1.1-0.2c0.3,0.2,0.4,0.7,0.2,1.1c-1.8,2.5-4.4,4.3-7.4,5      C397.5,234.5,396.8,234.5,396.1,234.5z"/>
                </g>
                <g>
                    <path d="M413.8,204.6c0-1.1-0.9-2-2.1-2s-2.2,0.8-2.2,1.9c0,1.1,0.9,2,2.1,2C412.7,206.5,413.7,205.7,413.8,204.6z"/>
                </g>
                <g>
                    <path class="stHausMainDark0" d="M526,358.3c40.1-10.8,16.2-135,16.2-135s-2,5.4-11.7,7.5c-8.9,1.9-16.7-0.7-16.7-0.7s-5.7,71.6-6.4,84.1      c-6.6-8.8-40.6-30.6-53-39.6c-11.4-8.3-43-9.1-43-9.1s-2.1,12.6-15.4,13.1s-12.4-11.4-12.4-11.4s-30.8,5.1-41.2,13.3      c-14.2,11.2-43.3,46.1-52.5,62c-9.9-8-21.2-17-46.9-35.5c-3.1-2.2,1.6,1.7-6.2,13.9c-4.6,7.2-11.5,7.8-11.5,7.8      s45.8,55.4,69.8,58.5c17.3,2.3,52.2-51.9,52.2-51.9s-1,5.1,0.3,8.2c1,2.5,7.5,8.5,7.5,8.5s6,40.4,2,53.2      c-4.7,15.2-16.3,30.4-16.3,30.4s21.8,4,64.4,4c37.7,0,54.9-8.3,54.9-8.3s-15.6-24.6-16.1-32.4c-0.3-4.8,0.5-38,2.3-51.8      c1.8-1.9,6.6-8.9,6.5-11.3c-0.2-5.9-3.7-11.6-3.7-11.6S500.2,365.3,526,358.3z"/>
                    <path d="M405,440.3c-42.1,0-64.3-4-64.5-4c-0.3,0-0.5-0.2-0.6-0.5c-0.1-0.2-0.1-0.5,0.1-0.7c0.1-0.2,11.6-15.3,16.2-30.2      c3.7-11.9-1.5-49.1-2-52.6c-1.2-1.2-6.5-6.2-7.5-8.6c-0.7-1.6-0.8-3.7-0.7-5.4c-7.2,10.8-34.3,49.7-50,49.7      c-0.4,0-0.8,0-1.2-0.1c-24-3.1-68.4-56.5-70.3-58.8c-0.2-0.2-0.2-0.5-0.1-0.8c0.1-0.3,0.4-0.4,0.6-0.5c0.1,0,6.6-0.6,10.9-7.4      c4.6-7.1,4.7-11.3,4.8-13.1c0-0.8,0.1-1.4,0.6-1.6c0.6-0.3,1.1,0.1,1.9,0.6c25.8,18.6,37.3,27.7,46.3,35      c9.4-15.8,38-50.2,52.3-61.5c10.5-8.3,40.3-13.3,41.6-13.5c0.2,0,0.5,0,0.6,0.2c0.2,0.2,0.3,0.4,0.2,0.6c0,0-0.3,4.6,2.7,7.7      c2,2.1,5,3,9,2.9c12.5-0.5,14.6-12,14.7-12.5c0.1-0.4,0.4-0.6,0.8-0.6c1.3,0,32,0.9,43.4,9.2c3.2,2.3,7.7,5.4,13,9      c14.6,10,32.5,22.2,38.9,29.2c1-16.4,6.2-81.5,6.3-82.2c0-0.2,0.1-0.4,0.3-0.6c0.2-0.1,0.4-0.2,0.7-0.1c0.1,0,7.7,2.6,16.3,0.7      c9.1-2,11.2-7,11.2-7.1c0.1-0.3,0.4-0.5,0.8-0.5c0.3,0,0.6,0.3,0.7,0.6c0.1,0.3,6,31.5,7,63.5c0.6,18.9-0.7,34.4-3.7,46.1      c-3.8,14.8-10.6,23.6-20,26.2l0,0c-2.1,0.6-4.3,0.8-6.7,0.8c-10.5,0-24.6-5.1-42.1-15.4c-11.7-6.8-21.7-14.2-26.3-17.7      c1,2.3,2.1,5.5,2.2,8.9c0.1,2.7-4.7,9.6-6.5,11.7c-1.8,13.9-2.6,46.7-2.3,51.4c0.5,7.6,15.8,31.8,16,32.1      c0.1,0.2,0.1,0.4,0.1,0.6c-0.1,0.2-0.2,0.4-0.4,0.5C460,432,442.4,440.3,405,440.3z M341.9,435c5.1,0.8,26.6,3.8,63,3.8      c32.7,0,50-6.3,53.7-7.9c-2.7-4.3-15.3-24.8-15.8-32c-0.3-4.7,0.5-38.1,2.3-51.9c0-0.2,0.1-0.3,0.2-0.4c2-2.2,6.4-8.8,6.3-10.8      c-0.2-5.7-3.5-11.2-3.6-11.2c-0.2-0.3-0.1-0.7,0.1-1c0.3-0.2,0.7-0.3,1,0c0.5,0.4,51.4,40.8,76.5,34l0.2,0.7l-0.2-0.7      c20.2-5.5,23.4-41.5,22.6-70.8c-0.8-27.4-5.3-54.1-6.6-61.4c-1.5,1.9-4.7,4.7-11.2,6.2c-7.3,1.6-13.8,0.2-16.2-0.5      c-0.7,8.5-5.7,71.5-6.3,83.1c0,0.3-0.2,0.6-0.5,0.7s-0.6,0-0.8-0.3c-4.9-6.5-25.1-20.3-39.8-30.4c-5.3-3.6-9.8-6.7-13-9.1      c-10.2-7.4-37.5-8.7-42-8.9c-0.7,2.7-4,12.6-16,13.1c-4.4,0.2-7.8-1-10.1-3.4c-2.6-2.7-3-6.2-3.1-7.9c-5.1,0.9-30.8,5.8-40,13      c-14.4,11.3-43.5,46.5-52.3,61.8c-0.1,0.2-0.3,0.3-0.5,0.4c-0.2,0-0.4,0-0.6-0.2c-9.1-7.4-20.5-16.5-46.9-35.5      c0,0-0.1,0-0.1-0.1c-0.1,2-0.4,6.4-5.1,13.7c-3.6,5.6-8.4,7.3-10.7,7.9c6.3,7.5,46.8,54.5,68.5,57.3c16.7,2.2,51.1-51,51.5-51.6      c0.2-0.3,0.6-0.4,0.9-0.3s0.5,0.5,0.5,0.9c0,0-1,4.9,0.2,7.8c0.8,1.9,5.6,6.6,7.3,8.2c0.1,0.1,0.2,0.3,0.2,0.4      c0.2,1.7,6,40.7,2,53.5C353.6,418.3,344.6,431.4,341.9,435z"/>
                </g>
                <g>
                    <path d="M382.2,203.4c0-1.1-0.9-2-2.1-2s-2.2,0.8-2.2,1.9c0,1.1,0.9,2,2.1,2C381.1,205.3,382.1,204.5,382.2,203.4z"/>
                </g>
                <g>
                    <path d="M394.4,222.5c-0.1,0-0.3,0-0.4-0.1l-2.7-1.5c-0.3-0.2-0.9-0.5-1.1-1.2c-0.2-0.8,0.5-1.4,0.8-1.8c2.6-2.4,4-5.9,3.6-9.3      c0-0.4,0.2-0.8,0.7-0.8c0.4,0,0.8,0.2,0.8,0.7c0.4,3.9-1.1,7.8-4,10.6c-0.1,0.1-0.3,0.2-0.3,0.3c0,0,0.1,0.1,0.3,0.2l2.7,1.5      c0.4,0.2,0.5,0.7,0.3,1C395,222.3,394.7,222.5,394.4,222.5z"/>
                </g>
                <g>
                    <g>
                        <path d="M413.4,220.5c-6.9,0-12.6-5.8-12.9-13.1c-0.1-3.7,1.2-7.4,3.6-10.1c2.3-2.5,5.4-3.9,8.6-4c7.1-0.3,13.1,5.6,13.3,13.1       l0,0c0.1,3.7-1.2,7.4-3.6,10.1c-2.3,2.5-5.4,3.9-8.6,4C413.7,220.5,413.6,220.5,413.4,220.5z M413.2,194.8c-0.1,0-0.3,0-0.4,0       c-2.9,0.1-5.6,1.4-7.6,3.5c-2.2,2.4-3.4,5.6-3.2,9c0.3,6.7,5.5,11.9,11.8,11.7c2.9-0.1,5.6-1.4,7.6-3.5c2.2-2.4,3.4-5.6,3.2-9       l0,0C424.4,200,419.3,194.8,413.2,194.8z"/>
                    </g>
                    <g>
                        <path d="M377.7,219c-6.9,0-12.6-5.8-12.9-13.1c-0.1-3.7,1.2-7.4,3.6-10.1c2.3-2.5,5.4-3.9,8.6-4c7.1-0.3,13.1,5.6,13.3,13.1       l0,0c0.1,3.7-1.2,7.4-3.6,10.1c-2.3,2.5-5.4,3.9-8.6,4C378,219,377.9,219,377.7,219z M377.6,193.3c-0.1,0-0.3,0-0.4,0       c-2.9,0.1-5.6,1.4-7.6,3.5c-2.2,2.4-3.4,5.6-3.2,9c0.3,6.7,5.5,11.9,11.8,11.7c2.9-0.1,5.6-1.4,7.6-3.5c2.2-2.4,3.4-5.6,3.2-9       l0,0C388.7,198.4,383.6,193.3,377.6,193.3z"/>
                    </g>
                    <g>
                        <path d="M389.7,203.4C389.6,203.4,389.6,203.4,389.7,203.4c-0.5,0-0.8-0.4-0.8-0.8c0.1-1.9,2.2-3.1,4.2-3.4       c3.2-0.5,6.7,0.6,8.8,2.8c0.3,0.3,0.3,0.8,0,1.1s-0.8,0.3-1.1,0c-1.9-1.9-4.8-2.8-7.5-2.4c-1.4,0.2-2.8,1-2.9,2       C390.4,203.1,390.1,203.4,389.7,203.4z"/>
                    </g>
                </g>
                <g>
                    <path d="M431.9,159.6c-0.3,0-0.5-0.1-0.6-0.4c-1.4-2.3-3.5-4.2-6.4-5.9c-2.6-1.5-5.6-2.6-8.4-3.6c-0.4-0.1-0.6-0.6-0.5-1      s0.6-0.6,1-0.5c2.9,1,5.9,2.1,8.6,3.7c3.1,1.8,5.4,4,6.9,6.4c0.2,0.4,0.1,0.8-0.2,1C432.2,159.6,432,159.6,431.9,159.6z"/>
                </g>
                <g class="stHausMainDark2">
                    <path d="M384.5,258.2c0.1-0.7,0.3-1.5,0.4-2.2c0.4-1.4,0.7-2.8,0.8-4.2c0.2-1.3,0.5-2.6,0.7-4c0-0.2,0-0.3-0.1-0.4      c0-0.1,0.1-0.2,0.1-0.3c0.1-0.3-0.1-0.5-0.3-0.6c0.9-0.7,2.2,0,3.2,0.4c0.7,0.2,1.6,0.5,3.2,0.7c1.3,0.2,5.3,0,6.5,0.2      c0.4,0.1,0.7,0.3,0.9,0.6c0.7-0.4,1.3-0.7,2-1.1c0.4-0.2,0.9-0.5,1.3-0.7c1.1-0.1,2.1-0.2,3.2-0.4c0,0.1,0,0.3,0,0.4      c0,0.2,0,0.3,0.1,0.5c0,0.1,0.1,0.2,0.1,0.3c0.2,0.4,0.4,0.8,0.5,1.2c-0.1,0.1-0.2,0.2-0.3,0.2c-3.8,2.3-7.8,4.4-11.5,6.9      c-1.9,1.2-3.7,2.4-5.6,3.6c-0.8,0.5-1.6,1-2.6,1.3l0,0c0,0,0,0-0.1,0h-0.1c-0.1,0-0.1,0-0.2,0.1c-0.1,0-0.2,0-0.3,0.1l0,0l0,0      c-0.2,0-0.4,0-0.6,0c-0.7-0.1-1.2-0.6-1.4-1.2c-0.1-0.1-0.2-0.3-0.3-0.4C384.4,258.9,384.5,258.5,384.5,258.2z"/>
                </g>
                <g>
                    <path d="M361.4,206.2C361.3,206.2,361.3,206.2,361.4,206.2c-0.5,0-0.8-0.4-0.8-0.8l0.4-4.5c0-0.4,0.4-0.7,0.8-0.7      s0.7,0.4,0.7,0.8l-0.4,4.5C362.1,205.9,361.7,206.2,361.4,206.2z"/>
                </g>
                <g>
                    <path d="M428.1,206.3L428.1,206.3c-0.4,0-0.8-0.4-0.8-0.8l0.1-5.6c0-0.4,0.3-0.7,0.8-0.7c0.4,0,0.7,0.4,0.7,0.8l-0.1,5.6      C428.9,206,428.6,206.3,428.1,206.3z"/>
                </g>
                <g>
                    <path d="M298.7,352.7c-0.2,0-0.4-0.1-0.6-0.2c-1.6-1.7-2.4-2.8-3.1-3.6c-1.3-1.5-1.9-2.3-5.8-5.7c-0.3-0.3-0.3-0.8-0.1-1.1      c0.3-0.3,0.8-0.3,1.1-0.1c4,3.5,4.6,4.3,5.9,5.9c0.7,0.8,1.5,1.8,3.1,3.5c0.3,0.3,0.3,0.8,0,1.1      C299.1,352.7,298.9,352.7,298.7,352.7z"/>
                </g>
                <g>
                    <path d="M386.1,287.5c-0.2,0-0.3-0.1-0.5-0.2c-4.7-3.6-8-8.8-9.4-14.6c-0.1-0.4,0.2-0.8,0.6-0.9s0.8,0.2,0.9,0.6      c1.2,5.4,4.4,10.4,8.8,13.7c0.3,0.3,0.4,0.7,0.1,1.1C386.6,287.4,386.4,287.5,386.1,287.5z"/>
                </g>
                <g>
                    <path d="M374.4,281.2c-0.2,0-0.4-0.1-0.6-0.3c-1.7-2-2.9-4.5-3.4-7.1c-0.1-0.4,0.2-0.8,0.6-0.9s0.8,0.2,0.9,0.6      c0.5,2.4,1.6,4.6,3.1,6.4c0.3,0.3,0.2,0.8-0.1,1.1C374.8,281.1,374.6,281.2,374.4,281.2z"/>
                </g>
                <g>
                    <path d="M508.4,329.6c-0.3,0-0.6-0.2-0.7-0.6c-1.6-6.5-1.5-8.2-1.1-13.3c0.1-1,0.2-2.1,0.2-3.3c0-0.4,0.4-0.7,0.8-0.7      s0.7,0.4,0.7,0.8c-0.1,1.3-0.2,2.4-0.2,3.3c-0.4,5-0.5,6.5,1.1,12.8c0.1,0.4-0.1,0.8-0.6,0.9      C508.5,329.6,508.4,329.6,508.4,329.6z"/>
                </g>
                <g>
                    <path d="M448.8,324.9c-0.3,0-0.5-0.1-0.7-0.4c-0.9-1.5-2.1-3.8-3.4-6.5c-1.2-2.4-2.6-5.2-4.1-7.9c-0.2-0.4-0.1-0.8,0.3-1      s0.8-0.1,1,0.3c1.5,2.7,2.9,5.4,4.1,7.9c1.3,2.6,2.5,4.9,3.4,6.4c0.2,0.4,0.1,0.8-0.3,1C449.1,324.9,449,324.9,448.8,324.9z"/>
                </g>
                <g>
                    <path d="M434.2,356.3c-0.3,0-0.6-0.2-0.7-0.5c-0.2-0.4,0-0.8,0.4-1c4.9-2.2,7.9-4.6,11.6-8.3c0.3-0.3,0.8-0.3,1.1,0      c0.3,0.3,0.3,0.8,0,1.1c-3.8,3.8-6.9,6.3-12.1,8.6C434.4,356.2,434.3,356.3,434.2,356.3z"/>
                </g>
                <g>
                    <path d="M347.1,336.1c-0.1,0-0.1,0-0.2,0c-0.4-0.1-0.6-0.5-0.5-0.9c1.8-5.8,5.4-13.6,8.4-19.8c0.5-1.1,1-2.1,1.5-3.1      c0.2-0.4,0.6-0.5,1-0.4c0.4,0.2,0.5,0.6,0.4,1c-0.5,1-0.9,2-1.5,3.1c-2.9,6.2-6.5,13.9-8.3,19.6      C347.8,335.8,347.5,336.1,347.1,336.1z"/>
                </g>
                <g>
                    <path d="M366.6,358.2c-0.1,0-0.2,0-0.3,0h-0.1c-2.3-0.8-7.6-2.7-11.8-5.5c-0.3-0.2-0.4-0.7-0.2-1.1c0.2-0.3,0.7-0.4,1.1-0.2      c4.1,2.8,9.2,4.6,11.4,5.4h0.1c0.4,0.1,0.6,0.6,0.5,1C367.2,358,366.9,358.2,366.6,358.2z"/>
                </g>
                <g class="stHausMainDark2">
                    <path d="M433.5,162.1c-0.1-0.6-0.6-0.9-1.1-1.2c-0.6-0.6-1.3-1.1-2.1-1.6c-2.1-1.5-4.3-2.9-6.7-3.8c-1.4-0.5-2.9-0.9-4.4-1.2      c-0.3,0-0.6-0.1-1-0.2c-0.1-0.2-0.3-0.2-0.5-0.6c-1.4-1.8-3.5-3-5.4-4.3c-2.6-1.7-5.2-3.7-8.1-4.9c-1-0.5-2-0.7-3.1-1      c-0.7-0.1-1.4-0.4-2.1-0.3c-1.6,0.1-1.8,2.6-0.2,2.9c2,0.3,4.1,0.9,5,1.4c2.9,1.3,7.9,5.2,9.2,6.1c0.7,0.5,1.3,1.1,1.8,1.7      c0.4,0.5,0.6,1.1,1.1,1.4c0.2,0.3,0.5,0.6,0.9,0.7c4.2,0.8,6.5,1.3,9.9,3.5c1.6,1.1,2.2,1.5,3.1,2.3c0.5,0.4,0.7,0.9,1.3,1.1      C432.4,164.7,433.9,163.4,433.5,162.1z"/>
                </g>
                <g class="stHausMainDark2">
                    <path d="M428.7,192c-0.1-0.5-0.6-0.8-0.9-1.2c-1.5-2-3.3-3.6-4.8-5.5c-1.7-2.1-2.3-2.9-4.3-6.1c-1.9-2.9-3.9-5.7-5.6-8.7      c-0.4-0.7-0.7-1.6-1.6-1.8c-0.3-0.1-0.7-0.1-1,0c-0.9,0-1.6,1-2.2,1.6c-1.8,1.6-1.9,1.8-3.5,2.9c-6.1,4.1-15.2,8.9-20.6,11.3      c-3.2,1.4-6.6,2.7-10.7,3.8c-1.6,0.4-3.2,1-4.8,1.2c-0.1,0-0.1,0-0.2,0c-0.9,0.1-1.7,0.2-2.6,0.4c-0.7,0.2-1.4,0.3-2.1,0.5      c-0.4,0.1-0.9,0.1-1.3,0.4c-1.5,1.1-0.3,3.6,1.5,3.1c1.2-0.2,2.5-0.5,3.7-0.7s2.4-0.4,3.6-0.7c4.9-1.4,8.9-3,12.7-4.8      c3.3-1.4,7.2-2.9,10.7-5c2.8-1.6,6.7-3.8,8.3-5.1c2.4-1.6,3.9-2.7,5.9-4.4c0.7-0.6,0.9-0.8,1.3-1c2,3.6,4.3,7,6.6,10.4      c1,1.4,2.4,2.9,3.6,4.5c1.1,1.5,2.4,2.8,3.6,4.1c0.5,0.6,1,1.2,1.6,1.8c0.4,0.5,0.9,1,1.6,1C428.2,193.9,429,192.9,428.7,192z"/>
                </g>
                <g class="stHausMainDark2">
                    <path d="M238.4,306.9c-0.4,1.7-0.9,3.4-1.6,5l0,0c-0.1,0.1-0.1,0.2-0.2,0.3c-1.3,2.7-3.9,6.5-4.8,7.6c-1.6,1.9-4,4.4-4.9,5      c-0.9,0.8-2.3,1.2-2.6,2.4c-0.3,1.1,0.6,2.2,1.7,2.2c0.6,0,1.1-0.4,1.5-0.7c0.7-0.5,1.5-1.1,2.2-1.6c-0.1,0.1-0.2,0.2-0.4,0.3      c2.8-2,5.2-4.6,7.1-7.6c1.9-2.9,3.7-5.9,4.7-9.3c0.3-1.1,0.8-2.3,0.8-3.5C241.7,305.2,238.9,305,238.4,306.9z"/>
                </g>
                <g class="stHausMainDark2">
                    <path d="M539,222.5c-0.1,0.1-0.1,0.2-0.2,0.3c-0.1,0-0.1,0-0.2,0c-0.9,0-1.6,0.7-2.5,1c-0.1,0.1-0.2,0.1-0.3,0.2c0,0,0,0-0.1,0      c-2.6,1-5.3,1.7-8.1,2.2c-0.7,0.2-4.5,0.4-7,0.5c-1.4,0-2.8,0.1-4.2,0.2c-0.3,0-0.6,0.1-0.8,0.2c-2.2,0.8-1.5,4.2,0.8,4.2      c2.6-0.1,5.2-0.2,7.8-0.5c-0.2,0.6,0.1,1.2,0.6,1.5c0.6,0.3,1.4,0.1,2.1,0.1c1.1-0.1,2.2-0.2,3.3-0.5c3.6-1.1,7.2-2.6,9.9-5.3      c0.6-0.6,1.1-1.3,1.6-2c0.2-0.3,0.5-0.7,0.5-1.1C542.4,221.8,539.9,220.9,539,222.5z"/>
                </g>
                <g class="stHausMainDark2">
                    <path d="M457,434c-0.7-1.3-2.4-1.5-3.5-0.7c-0.1,0.1-0.2,0.1-0.3,0.2c-0.1,0-0.7,0.2-1.2,0.4c0,0-0.4,0.1-0.9,0.3      c-0.2,0.1-0.4,0.2-0.6,0.2c-1.2,0.5-2.5,0.7-3.7,1c-3.3,0.7-6.6,1.4-9.9,2.1c-0.3,0-1.2,0.2-1.4,0.3c-3.7,0.4-6,0.9-7.5,0.9      c-5.6,0-11.2,0.6-16.8,0.7c-2.6,0-5.3-0.1-7.9-0.1c-2.6,0.1-5.1,0.2-7.7,0.1c-4.3,0-5.6,0.2-9.9-0.1c-3.8-0.2-7.7-0.2-11.5-0.4      c-2.3-0.1-4.6-0.4-6.9-0.5c-2.6-0.2-5.2-0.2-7.8-0.4c0.1,0,0.3,0,0.5,0.1c-3.2-0.4-3.2-0.5-5.9-0.8c-2.8-0.4-2.6-0.2-5-0.8      c-0.9-0.1-1.8-0.7-2.8-0.5c-2.4,0.2-2.7,3.9-0.3,4.5c2.5,0.8,5.2,1.1,7.8,1.3c1.4,0.1,3.7,0.3,6.5,0.4      c6.9,0.4,13.7,0.7,20.6,0.8c5.6,0.3,9.1,0.8,13.7,0.8c3.4,0.2,6.8,0.5,10.2,0.4c4.6,0,6.9-0.5,10.7-0.6c2.9-0.1,5.9-0.5,8.8-0.5      c4-0.2,4.1-0.3,7.9-1c0.1,0,0.1,0,0.2,0c1.9-0.3,3.9-0.3,5.8-0.6c4.4-0.9,4.6-0.8,9.9-2.1c1.4-0.3,2.7-0.6,4.1-0.9      c0.9-0.2,1.7-0.6,2.6-0.8c0.1,0,0.2-0.1,0.3-0.1c0.3-0.1,0.5-0.2,0.8-0.3C457.3,436.7,457.7,435.1,457,434z"/>
                </g>
            </g>
            <g>
                <g>
                    <g>
                        <polygon class="stHausMainDark0" points="513.2,428.8 510.7,578.9 661.2,579.1 663.2,429.4      "/>
                        <path d="M661.2,580l-150.5-0.2c-0.2,0-0.5-0.1-0.6-0.3c-0.2-0.2-0.3-0.4-0.3-0.6l2.5-150.1c0-0.5,0.4-0.9,0.9-0.9l0,0l150,0.6       c0.2,0,0.5,0.1,0.6,0.3c0.2,0.2,0.3,0.4,0.3,0.6l-2,149.7C662.1,579.6,661.7,580,661.2,580z M511.6,578l148.7,0.2l2-148       l-148.2-0.6L511.6,578z"/>
                    </g>
                    <g>
                        <path class="stHausMainDark1" d="M565.1,494c-9.1-0.1-18.3-0.2-27.4-0.2c-0.9-11.2-1.4-22.1-1.3-33c9.5-0.6,19-0.5,29,0.1       C565.7,471.5,565.5,482.2,565.1,494z"/>
                        <path d="M565.1,494.9L565.1,494.9l-27.4-0.2c-0.5,0-0.8-0.4-0.9-0.8c-1-12.7-1.4-23.2-1.3-33.1c0-0.5,0.4-0.8,0.8-0.9       c9.5-0.6,19-0.5,29.1,0.1c0.5,0,0.8,0.4,0.8,0.9c0.2,10.4,0,21-0.4,33.2C566,494.5,565.6,494.9,565.1,494.9z M538.6,492.9       l25.7,0.2c0.4-11.5,0.5-21.6,0.3-31.5c-9.5-0.5-18.4-0.6-27.3-0.1C537.3,471,537.6,481,538.6,492.9z"/>
                    </g>
                    <g>
                        <path class="stHausMainDark1" d="M566.2,559.4c-9.1-0.1-18.3-0.2-27.4-0.2c-0.9-11.2-1.4-22.1-1.3-33c9.5-0.6,19-0.5,29,0.1       C566.7,536.9,566.6,547.6,566.2,559.4z"/>
                        <path d="M566.2,560.3L566.2,560.3l-27.4-0.2c-0.5,0-0.8-0.4-0.9-0.8c-1-12.7-1.4-23.2-1.3-33.1c0-0.5,0.4-0.8,0.8-0.9       c9.5-0.6,19-0.5,29.1,0.1c0.5,0,0.8,0.4,0.8,0.9c0.2,10.4,0,21-0.4,33.2C567,559.9,566.6,560.3,566.2,560.3z M539.6,558.3       l25.7,0.2c0.4-11.5,0.5-21.6,0.3-31.5c-9.5-0.5-18.4-0.6-27.3-0.1C538.3,536.4,538.7,546.4,539.6,558.3z"/>
                    </g>
                    <g>
                        <path class="stHausMainDark1" d="M634.8,494.1c-9.1-0.1-18.3-0.2-27.4-0.2c-0.9-11.2-1.4-22.1-1.3-33c9.5-0.6,19-0.5,29,0.1       C635.3,471.6,635.2,482.3,634.8,494.1z"/>
                        <path d="M634.8,495L634.8,495l-27.4-0.2c-0.5,0-0.8-0.4-0.9-0.8c-1-12.7-1.4-23.2-1.3-33.1c0-0.5,0.4-0.8,0.8-0.9       c9.5-0.6,19-0.5,29.1,0.1c0.5,0,0.8,0.4,0.8,0.9c0.2,10.4,0,21-0.4,33.2C635.7,494.6,635.3,495,634.8,495z M608.3,493l25.7,0.2       c0.4-11.5,0.5-21.6,0.3-31.5c-9.5-0.5-18.4-0.6-27.3-0.1C606.9,471.1,607.3,481.1,608.3,493z"/>
                    </g>
                    <g>
                        <path class="stHausMainDark0" d="M680.8,442.7c-63.2-0.3-126.6-1.1-189.8-1.4c10.7-17.2,20-34.2,33.3-52.4c39.8-0.6,81.5-1.4,122-0.2       C660.1,410.9,674.2,432.1,680.8,442.7z"/>
                        <path d="M680.8,443.6L680.8,443.6c-31.6-0.1-63.7-0.4-94.8-0.7c-31.1-0.3-63.3-0.5-94.9-0.7c-0.3,0-0.6-0.2-0.8-0.5       c-0.2-0.3-0.1-0.6,0-0.9c3.2-5.1,6.3-10.3,9.3-15.3c7.2-12,14.6-24.3,24-37.2c0.2-0.2,0.4-0.4,0.7-0.4       c4.6-0.1,9.2-0.1,13.8-0.2c35.6-0.5,72.3-1.1,108.1,0c0.3,0,0.6,0.2,0.7,0.4c8.2,13.1,16.5,26,23.2,36.3       c4.6,7.1,8.6,13.3,11.3,17.6c0.2,0.3,0.2,0.6,0,0.9C681.4,443.4,681.1,443.6,680.8,443.6z M492.6,440.4       c31.1,0.1,62.7,0.4,93.4,0.7c30.6,0.3,62.2,0.5,93.2,0.7c-2.7-4.2-6.3-9.8-10.5-16.3c-6.6-10.2-14.9-23-23-36       c-35.6-1.1-72.2-0.6-107.6,0c-4.5,0.1-9,0.1-13.4,0.2c-9.2,12.7-16.6,24.9-23.7,36.7C498.3,431.1,495.5,435.8,492.6,440.4z"/>
                    </g>
                    <g>
                        <path d="M608.1,579.9L608.1,579.9c-0.5,0-0.9-0.4-0.9-0.9c0.2-18.7,0.1-37.4-0.1-53.1c0-0.2,0.1-0.5,0.3-0.6       c0.2-0.2,0.4-0.3,0.6-0.3l0,0c8.9,0,18.1,0,27.3,0c0.2,0,0.5,0.1,0.6,0.3c0.2,0.2,0.3,0.4,0.3,0.6c0,4.7,0,9.3,0,13.8       c0,14.1,0,27.4-0.3,38.6c0,0.5-0.4,0.9-0.9,0.9l0,0c-0.5,0-0.9-0.4-0.9-0.9c0.3-11.2,0.3-24.5,0.3-38.5c0-4.2,0-8.5,0-12.9       c-8.6,0.1-17.2,0-25.5,0c0.2,15.6,0.3,33.9,0,52.3C609,579.5,608.6,579.9,608.1,579.9z"/>
                    </g>
                    <g>
                        <path d="M674.5,435.1L674.5,435.1c-59.8-1.2-119.6-1.5-177.8-0.9l0,0c-0.5,0-0.9-0.4-0.9-0.9s0.4-0.9,0.9-0.9       c58.2-0.7,118-0.4,177.8,0.9c0.5,0,0.9,0.4,0.9,0.9S675,435.1,674.5,435.1z"/>
                    </g>
                    <g>
                        <path d="M566.2,472.2L566.2,472.2c-9.6,0-19.3-0.3-28.9-0.9c-0.2,0-0.3-0.1-0.3-0.3c0-0.2,0.1-0.3,0.3-0.3       c9.6,0.6,19.3,0.9,28.9,0.9c0.2,0,0.3,0.1,0.3,0.3S566.3,472.2,566.2,472.2z"/>
                    </g>
                    <g>
                        <path d="M551.4,493.2c-0.2,0-0.3-0.1-0.3-0.3v-20.5c0-0.2,0.1-0.3,0.3-0.3s0.3,0.1,0.3,0.3v20.5       C551.6,493,551.5,493.2,551.4,493.2z"/>
                    </g>
                    <g>
                        <path d="M612.3,472.2c-2,0-3.9,0-5.8,0c-0.2,0-0.3-0.1-0.3-0.3c0-0.2,0.1-0.3,0.3-0.3l0,0c9.2,0.1,18.6,0,27.8-0.3       c0.2,0,0.3,0.1,0.3,0.3c0,0.2-0.1,0.3-0.3,0.3C626.9,472.1,619.6,472.3,612.3,472.2z"/>
                    </g>
                    <g>
                        <path d="M620.9,494.5c-0.2,0-0.3-0.1-0.3-0.3l-1-22.1c0-0.2,0.1-0.3,0.3-0.3s0.3,0.1,0.3,0.3l1,22.1       C621.2,494.3,621.1,494.5,620.9,494.5C621,494.5,620.9,494.5,620.9,494.5z"/>
                    </g>
                    <g>
                        <path d="M537.8,537.8c-0.2,0-0.3-0.1-0.3-0.3s0.1-0.3,0.3-0.3h28.9l0,0c0.2,0,0.3,0.1,0.3,0.3s-0.1,0.3-0.3,0.3H537.8       L537.8,537.8z"/>
                    </g>
                    <g>
                        <path d="M553.1,559.2c-0.2,0-0.3-0.1-0.3-0.3c-0.4-7-0.7-14.2-0.9-21.3c0-0.2,0.1-0.3,0.3-0.3s0.3,0.1,0.3,0.3       c0.2,7.1,0.6,14.2,0.9,21.2C553.4,559,553.3,559.2,553.1,559.2L553.1,559.2z"/>
                    </g>
                    <g>
                        <path d="M628.5,552.7c-0.5,0-1-0.1-1.4-0.4c-0.8-0.5-1.3-1.3-1.3-2.1s0.4-1.6,1.2-2.2c0.8-0.5,1.7-0.6,2.5-0.3l0,0       c0.9,0.4,1.5,1.2,1.5,2.2c0,1.1-0.5,2.1-1.4,2.5C629.2,552.6,628.9,552.7,628.5,552.7z M628.5,548.1c-0.4,0-0.8,0.1-1.2,0.4       c-0.6,0.4-1,1-1,1.7c0,0.6,0.4,1.2,1,1.6c0.6,0.4,1.3,0.4,1.9,0.2c0.6-0.3,1.1-1.2,1.1-2c0-0.5-0.2-1.3-1.1-1.7l0,0       C629,548.1,628.8,548.1,628.5,548.1z"/>
                    </g>
                    <g>
                        <path d="M655.7,427.6c-0.1,0-0.2-0.1-0.3-0.2L638.6,395c-0.1-0.1,0-0.3,0.1-0.4s0.3,0,0.4,0.1l16.8,32.4c0.1,0.1,0,0.3-0.1,0.4       S655.7,427.6,655.7,427.6z"/>
                    </g>
                    <g>
                        <path d="M631.7,404.2c-0.1,0-0.2-0.1-0.3-0.2l-4.1-8.9c-0.1-0.1,0-0.3,0.1-0.4s0.3,0,0.4,0.1l4.1,8.9c0.1,0.1,0,0.3-0.1,0.4       C631.7,404.2,631.7,404.2,631.7,404.2z"/>
                    </g>
                    <g>
                        <path d="M636.5,415.7c-0.1,0-0.2-0.1-0.3-0.2l-2.6-5.7c-0.1-0.1,0-0.3,0.1-0.4s0.3,0,0.4,0.1l2.6,5.7c0.1,0.1,0,0.3-0.1,0.4       C636.6,415.7,636.6,415.7,636.5,415.7z"/>
                    </g>
                    <g>
                        <path d="M622.4,414.5c-0.1,0-0.2-0.1-0.3-0.2c-2.6-6.3-5.5-12.5-8.5-18.6c-0.1-0.1,0-0.3,0.1-0.4s0.3,0,0.4,0.1       c3.1,6.1,5.9,12.4,8.5,18.6c0.1,0.2,0,0.3-0.2,0.4C622.5,414.5,622.5,414.5,622.4,414.5z"/>
                    </g>
                    <g>
                        <path d="M602.3,400.8c-0.1,0-0.2-0.1-0.3-0.2l-1.5-5.6c0-0.2,0-0.3,0.2-0.4c0.2,0,0.3,0,0.4,0.2l1.5,5.6       C602.6,400.6,602.5,400.7,602.3,400.8L602.3,400.8z"/>
                    </g>
                </g>
                <g class="stHausMainDark2">
                    <path d="M661.7,442.8c-0.8-0.5-1.7-0.5-2.5-0.4c-0.2,0-0.4,0-0.7,0c-2.7-0.2-2.2,0.2-5.7-0.2c-10.6-0.7-21.1,0.5-31.7,0      c-5.2,0.1-10.3-0.2-15.5-0.4c-4.1-0.1-8.2,0.1-12.3,0c-8.8,0-17.5-0.7-26.3-0.5c-7.2,0-14.5-0.6-21.7-0.6c-5,0.2-10,0.1-15-0.1      c-4,0-8.1,0.1-12.1,0c-2,0.1-4.5-0.5-6.1,1c-2.2,2-0.6,6.1,2.5,6c11.1,0,22.2,0,33.2-0.1c9.8,0.4,19.7,0.7,29.5,0.6      c6.4-0.1,12.7,0,19.1,0c6-0.1,11.9-0.1,17.9,0.3c11.2,0.1,22.3-0.2,33.5-0.3c3.2,0,7.8,0.4,8.4,0.5c1.5,0.2,3,0.3,4.5,0.1      c0.1,0,0.1,0,0.1,0l0,0c-0.2,0-0.9,0.1-0.8,0.1c0.1,0,0.3,0,0.4,0c-0.1,0-0.2,0-0.2,0c0.3,0,0.5,0,0.8-0.1c0.1,0,0.1,0,0,0      c0.6-0.1,1.1-0.4,1.6-0.9C664,446.6,663.6,443.8,661.7,442.8z"/>
                </g>
            </g>
            <g>
                <g>
                    <path class="stHausMainDark4" d="M106.6,560.8c-2.7,2.3-4.3,1.9-7.5,0c-3.1-1.9-4.6-5.8-3.3-9c-6.5,1.5-13.2-3.8-15-9.8      c-1.3-4.3,0.2-9.9,4.9-11c-4.1-3.3-4.9-9.5-1.8-13.5s9.7-5.3,14.5-2.9c-0.8-5.2,1.5-10.7,5.8-14c1.6-1.2,3.5-2.2,5.6-2.3      c4.3-0.2,8,3.5,8.9,7.4s-0.2,7.9-1.3,11.7c2.8-2.3,7.8-1.3,9.8,1.6c2,2.9,1.1,7.1-1.6,9.4c4.4,2.3,7.2,6.9,7,11.5      s-3.4,8.9-7.9,10.8c-1.3,0.5-2.8,1-3.2,2.2c-0.2,0.7,1.1,6.1-6.2,9.8C112.9,563.8,109.7,562.8,106.6,560.8z"/>
                    <path class="stHausMainDark5" d="M126.6,528.3c2.6-2.7,3.1-6.7,1.1-9.6c-1.1-1.6-3.1-2.7-5.3-3c-1.5-0.2-2.8,0-4,0.5      c0.9-3.3,1.8-6.9,0.9-10.5c-1-4-4.8-8.1-9.5-7.8c-2,0.1-4,0.9-6,2.4c-4.2,3.2-6.5,8.5-6.2,13.5c-4.9-1.9-11.2-0.5-14.3,3.5      c-3.1,4-2.5,10,1.1,13.6c-1.4,0.6-2.6,1.6-3.4,3c-1.4,2.3-1.7,5.6-0.8,8.4c0.3,1,0.7,1.9,1.2,2.8c0.6,1,1.3,2,2.1,2.9      c0.1,0.1,0.2,0.3,0.4,0.4c2.4,2.5,5.6,4.2,9,4.4c0.7,0,1.4,0,2-0.1c-0.1,0.4-0.2,0.8-0.2,1.2c-0.2,2.9,1.4,6,4,7.6      c2.8,1.7,4.7,2.3,6.9,0.9c0.3-0.2,0.6-0.4,0.9-0.7c0.1,0,0.2,0.1,0.3,0.2c1.8,1.1,4,2,6.1,2c0.9,0,1.7-0.2,2.5-0.6      c6.6-3.3,6.6-8,6.5-9.8V553c0.3-0.8,1.4-1.3,2.5-1.7l0.4-0.1c4.8-2,8.1-6.5,8.3-11.3C133.4,535.3,130.8,530.8,126.6,528.3z       M132,539.8c-0.2,4.3-3.2,8.5-7.6,10.2l-0.3,0.1c-1,0.4-2.2,0.9-2.8,1.7c-0.1,0.2-0.3,0.5-0.4,0.7s-0.1,0.4,0,0.8      c0,1.6,0,5.7-5.9,8.7c-1.9,1-4.8,0.3-8.1-1.8l0,0c-0.1-0.1-0.2-0.1-0.3-0.1c-0.1,0-0.3,0.1-0.4,0.2c-0.2,0.1-0.3,0.3-0.5,0.4      c-0.3,0.2-0.5,0.4-0.8,0.5h-0.1c-1.6,0.9-3,0.4-5.4-1.1c-2.9-1.7-4.2-5.3-3.1-8.2c0.1-0.2,0-0.4-0.1-0.6      c-0.2-0.2-0.4-0.2-0.6-0.2c-5.5,1.3-11-2.5-13.4-7.3c-0.4-0.7-0.6-1.4-0.9-2.1c-0.8-2.5-0.5-5.4,0.7-7.5      c0.8-1.4,2.1-2.4,3.7-2.7c0.2-0.1,0.4-0.2,0.5-0.4c0-0.2,0-0.5-0.2-0.6c-3.8-3.1-4.6-8.9-1.7-12.7s9.2-5,13.7-2.7      c0.2,0.1,0.4,0.1,0.6-0.1c0.2-0.1,0.3-0.3,0.2-0.6c-0.8-5,1.4-10.3,5.6-13.5c1.8-1.4,3.6-2.1,5.3-2.2c4.1-0.2,7.5,3.4,8.3,6.9      c0.9,3.8-0.3,7.8-1.3,11.4c-0.1,0.2,0,0.5,0.2,0.7c0.2,0.1,0.5,0.1,0.7,0c1.1-0.9,2.8-1.3,4.5-1.1c1.9,0.3,3.5,1.2,4.5,2.5      c1.8,2.6,1.1,6.4-1.5,8.6c-0.2,0.1-0.2,0.3-0.2,0.5s0.1,0.4,0.3,0.5C129.5,531.1,132.2,535.5,132,539.8z"/>
                </g>
                <g>
                    <path class="stHausMainDark3" d="M107.4,579.4c0,0.3-0.2,0.6-0.6,0.6l0,0c-0.3,0-0.6-0.2-0.6-0.6c-0.1-5.7-0.3-11.4-0.4-17.2      c0.3-0.2,0.6-0.4,0.9-0.7c0.1,0,0.2,0.1,0.3,0.2C107.1,567.7,107.2,573.5,107.4,579.4z"/>
                    <path class="stHausMainDark5" d="M108.6,517.3c-0.3,2.9-0.6,5.8-0.8,8.8c-0.1,0.8-0.1,1.6-0.2,2.4c-0.6,8.2-0.7,16.3-0.7,24.5      c0,0.9,0,1.8,0,2.7c0,1,0,2.1,0,3.1c0,0.5,0,1,0,1.5c0,0.2,0,0.5,0,0.7s0,0.4,0,0.6v0.1c-0.1,0-0.2-0.1-0.3-0.2      c-0.3,0.3-0.6,0.5-0.9,0.7v-0.6c0,0,0,0,0-0.1v-0.7c0-0.7,0-1.3,0-2c0-4.1,0-8.3,0-12.5c0-1,0-1.9,0-2.9      c0.2-8.8,0.7-17.6,1.6-26.3c0-0.3,0.3-0.6,0.7-0.5C108.4,516.7,108.7,517,108.6,517.3z"/>
                </g>
                <g>
                    <path class="stHausMainDark5" d="M107.2,528.7c-0.1,0-0.2,0-0.3-0.1c-0.3-0.2-0.4-0.5-0.2-0.8c1.3-2.1,2.8-4.1,4.5-5.8      c0.2-0.2,0.6-0.2,0.8,0c0.2,0.2,0.2,0.6,0,0.8c-1.6,1.7-3.1,3.6-4.3,5.6C107.6,528.6,107.4,528.7,107.2,528.7z"/>
                </g>
                <g>
                    <path class="stHausMainDark5" d="M106.2,546.6c-0.2,0-0.5-0.1-0.6-0.4c-2.8-6.5-5.4-12.7-10.6-18c-0.2-0.2-0.2-0.6,0-0.8s0.6-0.2,0.8,0      c5.3,5.5,8,11.8,10.8,18.4c0.1,0.3,0,0.7-0.3,0.8C106.4,546.6,106.3,546.6,106.2,546.6z"/>
                </g>
                <g>
                    <path class="stHausMainDark5" d="M101.4,536.4c-0.1,0-0.2,0-0.3-0.1c-2.2-1.2-4.6-2-7.1-2.3c-0.3,0-0.6-0.3-0.5-0.7c0-0.3,0.3-0.6,0.7-0.5      c2.6,0.3,5.3,1.1,7.6,2.5c0.3,0.2,0.4,0.5,0.2,0.8C101.8,536.3,101.6,536.4,101.4,536.4z"/>
                </g>
                <g>
                    <path class="stHausMainDark5" d="M106.6,555.7c-0.1,0-0.2,0-0.2,0c-0.3-0.1-0.4-0.5-0.3-0.8c3-7.1,7.5-13.6,13.3-18.7c0.2-0.2,0.6-0.2,0.8,0      c0.2,0.2,0.2,0.6,0,0.8c-5.6,5-10.1,11.3-13,18.3C107.1,555.6,106.8,555.7,106.6,555.7z"/>
                </g>
                <g>
                    <path class="stHausMainDark5" d="M86.5,526.8c-0.1,0-0.1,0-0.2-0.1c-1.3-2.1-1.3-4.9,0-7c0.1-0.1,0.2-0.1,0.3-0.1c0.1,0.1,0.1,0.2,0.1,0.3      c-1.2,2-1.2,4.6,0,6.6c0.1,0.1,0,0.2-0.1,0.3C86.6,526.8,86.6,526.8,86.5,526.8z"/>
                </g>
                <g>
                    <path class="stHausMainDark5" d="M89,526.1c-0.1,0-0.2-0.1-0.2-0.1c-0.4-1.1-0.6-2.3-0.7-3.5c0-0.1,0.1-0.2,0.2-0.2s0.2,0.1,0.2,0.2      c0.1,1.1,0.3,2.3,0.7,3.4C89.3,525.9,89.2,526,89,526.1C89.1,526.1,89.1,526.1,89,526.1z"/>
                </g>
                <g>
                    <path class="stHausMainDark5" d="M122.8,526c-0.1,0-0.1,0-0.2-0.1c0-0.1,0-0.2,0.1-0.3c0.7-0.3,1.2-1,1.5-1.9c0.3-0.8,0.3-1.7,0.3-2.5      c0-0.1,0.1-0.2,0.2-0.2s0.2,0.1,0.2,0.2c0,0.9-0.1,1.8-0.4,2.6C124.3,524.9,123.6,525.7,122.8,526      C122.9,526,122.8,526,122.8,526z"/>
                </g>
                <g class="stHausMainDark2">
                    <path class="stHausMainDark5" d="M121.5,552.1c-0.5-0.8-1.8-0.6-2,0.3c-0.3,1.6-0.4,2.6-0.9,3.5c-1.1,1.8-1.9,2.9-2.8,3.5      c-0.9,0.5-0.3,0.3-1.3,0.5c-0.1,0-0.2,0-0.2,0c-1.1,0.1-2.2,0.3-3.2,0.2c-0.1,0-0.2,0-0.2,0c-0.8-0.1-1.5-0.3-2.2-0.5      c0,0,0,0-0.1,0c-0.5-0.3-1-0.6-1.5-0.7c-0.9-0.2-2.1,0-2.4,0.9c-0.1-0.1-0.2-0.2-0.3-0.2c-1-0.4-0.5,0-1.6-0.4      c-1.5-0.7-2-1.1-2.8-1.7c-1.5-1.4-1.7-2.2-1.9-3.6c-0.1-0.8,0.1-1.7-0.2-2.5c-0.4-1-1.5-1.2-2.2-0.7c-0.2-0.3-0.5-0.5-0.8-0.6      h-0.1c-0.9-0.1-1.7,0-2.6-0.1c-0.7,0-2.1-0.3-2.7-0.6c-1.6-0.8-2.6-1.7-2.9-1.9c-0.9-0.7-1.8-1.4-2.4-2.3      c-0.4-0.5-0.8-1.1-1.5-1.1c-0.9,0-1.5,1.2-0.8,1.9c0.6,0.6,0.6,0.7,1.4,1.7c0.7,0.7,1.3,1.4,2,2.1c1.1,0.9,2.2,1.8,3.5,2.4      c0.9,0.4,1.9,0.5,2.9,0.7c0.5,0.1,1,0,1.5,0.1c0.6,0.1,1.2,0.2,1.7,0c0,3.4,1.2,5.9,4.2,7.9c1.3,0.8,4.3,2.6,5.6,1.3      c0.2-0.2,0.3-0.4,0.4-0.7c0.4,0.3,0.9,0.4,1.3,0.2l0,0c0.1,0,0.2-0.1,0.3-0.1c0.2,0.1,0.9,0.5,1.1,0.5c1.9,0.9,4.1,1,6.2,0.6      c1.4-0.2,2.8-0.6,3.9-1.5c0.7-0.6,1.3-1.4,1.8-2.1c0.7-1,1.4-2.2,1.7-3.4c0.2-0.6,0.3-1.3,0.4-2      C121.6,553.1,121.8,552.6,121.5,552.1z"/>
                </g>
            </g>
            <g>
                <g>
                    <path class="stHausMainDark4" d="M470.7,560.8c-2.7,2.3-4.4,1.8-7.5-0.1c-3.1-1.9-4.5-5.9-3.2-9c-6.6,1.5-13.2-3.9-14.9-9.9      c-1.2-4.3,0.3-9.9,5-10.9c-4.1-3.4-4.8-9.5-1.7-13.5c3.1-4,9.8-5.3,14.5-2.8c-0.8-5.2,1.6-10.7,5.9-14c1.6-1.2,3.6-2.2,5.7-2.3      c4.3-0.2,8,3.6,8.9,7.5s-0.3,7.9-1.5,11.7c2.8-2.3,7.8-1.3,9.8,1.7c2,2.9,1.1,7.1-1.7,9.4c4.4,2.3,7.1,7,6.9,11.5      c-0.2,4.6-3.5,8.9-8,10.7c-1.3,0.5-2.8,1-3.2,2.2c-0.2,0.7,1,6.1-6.3,9.7C477,563.9,473.8,562.8,470.7,560.8z"/>
                    <path class="stHausMainDark5" d="M491,528.4c2.6-2.6,3.2-6.7,1.2-9.6c-1.1-1.6-3.1-2.8-5.2-3.1c-1.4-0.2-2.8-0.1-4,0.5c1-3.3,1.8-6.9,1-10.5      c-0.9-4-4.7-8.1-9.5-7.9c-2,0.1-4,0.9-6,2.4s-3.6,3.5-4.7,5.7l0,0c-0.5,0.9-0.8,1.9-1.1,2.9l0,0c-0.4,1.4-0.6,2.8-0.5,4.2      c0,0.2,0,0.5,0,0.7h-0.1c-0.2-0.1-0.5-0.2-0.7-0.3c-4.7-1.5-10.5,0-13.5,3.7c-3.1,4-2.6,10,1,13.6c-1.4,0.5-2.6,1.5-3.4,3      c-1.4,2.3-1.8,5.5-0.9,8.4c0.3,1,0.7,1.9,1.2,2.8l0,0c0.3,0.5,0.6,1,0.9,1.5c0.1,0.1,0.2,0.2,0.3,0.4c0.2,0.3,0.4,0.6,0.7,0.8      c0.2,0.2,0.4,0.5,0.6,0.7c2.1,2.1,4.7,3.7,7.5,4.2c0.2,0,0.5,0.1,0.8,0.1c0.1,0,0.2,0,0.3,0c0.1,0,0.2,0,0.4,0c0,0,0,0,0.1,0      l0,0c0.6,0,1.2,0,1.8-0.1c-0.1,0.4-0.2,0.8-0.2,1.2l0,0c-0.2,2.9,1.3,5.9,4,7.5c2.8,1.7,4.7,2.3,6.9,1c0.3-0.2,0.6-0.4,0.9-0.7      c0.1,0.1,0.2,0.1,0.3,0.2c1.8,1.1,4,2.1,6.1,2.1c0.9,0,1.7-0.2,2.5-0.6c6.6-3.2,6.6-7.9,6.6-9.7c0-0.2,0-0.4,0-0.4      c0.3-0.8,1.4-1.3,2.5-1.7l0.3-0.1c4.8-1.9,8.2-6.4,8.4-11.2C497.7,535.6,495.1,531,491,528.4z M496.3,540.1      c-0.2,4.3-3.3,8.4-7.7,10.2l-0.3,0.1c-1,0.4-2.2,0.8-2.8,1.7c-0.2,0.2-0.3,0.5-0.4,0.7s-0.1,0.4-0.1,0.8c0,1.6,0,5.7-6,8.6      c-1.9,1-4.8,0.3-8-1.8l0,0c-0.1,0-0.2-0.1-0.3-0.1c-0.1,0-0.3,0.1-0.4,0.2c-0.2,0.1-0.3,0.3-0.5,0.4c-0.3,0.2-0.5,0.4-0.8,0.5      c0,0-0.1,0-0.1,0.1c-1.6,0.9-3,0.4-5.4-1.1c-2.9-1.8-4.2-5.4-3-8.3c0.1-0.2,0-0.5-0.1-0.6c-0.2-0.2-0.4-0.2-0.6-0.2      c-0.8,0.2-1.6,0.2-2.4,0.2c-0.2,0-0.5,0-0.8,0c-0.2,0-0.5-0.1-0.8-0.1c-4.1-0.7-7.6-3.8-9.4-7.5c-0.4-0.7-0.6-1.4-0.8-2.1      c-0.7-2.6-0.4-5.4,0.8-7.5c0.9-1.4,2.1-2.4,3.7-2.7c0.2,0,0.4-0.2,0.4-0.4c0.1-0.2,0-0.5-0.2-0.6c-3.8-3.1-4.5-9-1.6-12.7      c2.7-3.4,8-4.7,12.4-3.2c0.2,0.1,0.5,0.2,0.7,0.3s0.5,0.2,0.7,0.3l0,0c0.2,0.1,0.4,0.1,0.6,0s0.3-0.4,0.2-0.6      c-0.7-5,1.5-10.2,5.7-13.4c1.8-1.4,3.6-2.1,5.3-2.1c4.1-0.1,7.4,3.4,8.2,7c0.9,3.8-0.4,7.8-1.4,11.4c-0.1,0.2,0,0.5,0.2,0.7      c0.2,0.1,0.5,0.1,0.7,0c1.1-0.9,2.8-1.3,4.5-1c1.9,0.3,3.5,1.2,4.4,2.6c1.8,2.6,1,6.4-1.6,8.5c-0.2,0.1-0.2,0.3-0.2,0.5      s0.1,0.4,0.3,0.5C493.9,531.3,496.5,535.7,496.3,540.1z"/>
                </g>
                <g>
                    <path class="stHausMainDark3" d="M471.3,579.4c0,0.3-0.3,0.6-0.6,0.6l0,0c-0.3,0-0.6-0.3-0.6-0.6c-0.1-5.7-0.2-11.4-0.2-17.2      c0.3-0.2,0.6-0.4,0.9-0.7c0.1,0.1,0.2,0.1,0.3,0.2C471.1,567.7,471.2,573.5,471.3,579.4z"/>
                    <path class="stHausMainDark5" d="M473.1,517.3c-0.3,2.9-0.7,5.8-0.9,8.8l0,0c-0.1,0.8-0.1,1.6-0.2,2.4c-0.6,8.1-0.9,16.3-0.9,24.5      c0,0.9,0,1.8,0,2.7c0,1,0,2.1,0,3.1c0,0.5,0,1,0,1.5c0,0.2,0,0.5,0,0.7v0.7c-0.1,0-0.2-0.1-0.3-0.2c-0.3,0.2-0.6,0.5-0.9,0.7      c0-0.2,0-0.4,0-0.6v-0.8c0-0.7,0-1.3,0-2c0-4.2,0-8.3,0.1-12.5c0-1,0.1-1.9,0.1-2.8c0.3-8.8,0.8-17.6,1.9-26.3      c0-0.3,0.3-0.6,0.7-0.5C472.9,516.7,473.1,517,473.1,517.3z"/>
                </g>
                <g>
                    <path class="stHausMainDark5" d="M471.6,528.7c-0.1,0-0.2,0-0.3-0.1c-0.3-0.2-0.4-0.5-0.2-0.8c1.3-2.1,2.8-4,4.5-5.8c0.2-0.2,0.6-0.2,0.8,0      c0.2,0.2,0.2,0.6,0,0.8c-1.7,1.7-3.1,3.6-4.4,5.6C472,528.6,471.8,528.7,471.6,528.7z"/>
                </g>
                <g>
                    <path class="stHausMainDark5" d="M470.4,546.6c-0.2,0-0.5-0.1-0.6-0.4c-2.7-6.5-5.3-12.7-10.4-18.1c-0.2-0.2-0.2-0.6,0-0.8s0.6-0.2,0.8,0      c5.2,5.6,7.9,11.8,10.6,18.5c0.1,0.3,0,0.7-0.3,0.8C470.6,546.6,470.5,546.6,470.4,546.6z"/>
                </g>
                <g>
                    <path class="stHausMainDark5" d="M465.7,536.4c-0.1,0-0.2,0-0.3-0.1c-2.2-1.3-4.6-2.1-7.1-2.4c-0.3,0-0.6-0.3-0.5-0.7c0-0.3,0.3-0.6,0.7-0.5      c2.6,0.3,5.3,1.2,7.6,2.5c0.3,0.2,0.4,0.5,0.2,0.8C466.1,536.3,465.9,536.4,465.7,536.4z"/>
                </g>
                <g>
                    <path class="stHausMainDark5" d="M470.7,555.7c-0.1,0-0.2,0-0.2,0c-0.3-0.1-0.4-0.5-0.3-0.8c3-7.1,7.7-13.5,13.4-18.6      c0.2-0.2,0.6-0.2,0.8,0.1c0.2,0.2,0.2,0.6-0.1,0.8c-5.6,5-10.2,11.2-13.1,18.1C471.2,555.6,471,555.7,470.7,555.7z"/>
                </g>
                <g>
                    <path class="stHausMainDark5" d="M450.9,526.6c-0.1,0-0.1,0-0.2-0.1c-1.3-2.1-1.3-4.9,0-7c0.1-0.1,0.2-0.1,0.3-0.1c0.1,0.1,0.1,0.2,0.1,0.3      c-1.2,2-1.2,4.6,0,6.6C451.2,526.4,451.1,526.5,450.9,526.6C451,526.6,450.9,526.6,450.9,526.6z"/>
                </g>
                <g>
                    <path class="stHausMainDark5" d="M453.4,525.9c-0.1,0-0.2-0.1-0.2-0.1c-0.4-1.1-0.6-2.3-0.7-3.5c0-0.1,0.1-0.2,0.2-0.2s0.2,0.1,0.2,0.2      c0,1.1,0.3,2.3,0.6,3.4C453.6,525.8,453.6,525.9,453.4,525.9C453.5,525.9,453.4,525.9,453.4,525.9z"/>
                </g>
                <g>
                    <path class="stHausMainDark5" d="M487.2,526.2c-0.1,0-0.1,0-0.2-0.1c0-0.1,0-0.2,0.1-0.3c0.7-0.3,1.2-1,1.5-1.8s0.3-1.7,0.4-2.5      c0-0.1,0.1-0.2,0.2-0.2s0.2,0.1,0.2,0.2c-0.1,0.9-0.1,1.8-0.4,2.6C488.7,525.1,488,525.8,487.2,526.2L487.2,526.2z"/>
                </g>
                <g class="stHausMainDark2">
                    <path class="stHausMainDark5" d="M485.7,552.3c-0.4-0.8-1.8-0.6-2,0.3c-0.3,1.6-0.4,2.6-1,3.5c-1.1,1.8-2,2.9-2.8,3.4      c-0.9,0.5-0.3,0.3-1.3,0.5c-0.1,0-0.2,0-0.2,0c-1.1,0.1-2.2,0.3-3.2,0.2c-0.1,0-0.2,0-0.2,0c-0.8-0.1-1.5-0.3-2.2-0.6      c0,0,0,0-0.1,0c-0.5-0.3-1-0.6-1.5-0.8c-0.9-0.2-2.1,0-2.4,0.9c-0.1-0.1-0.2-0.2-0.3-0.2c-1-0.4-0.5,0-1.6-0.4      c-1.5-0.7-2-1.1-2.8-1.7c-1.5-1.5-1.7-2.2-1.8-3.6c-0.1-0.8,0.1-1.7-0.2-2.5c-0.4-1-1.4-1.2-2.2-0.8c-0.2-0.3-0.5-0.5-0.8-0.6      H459c-0.9-0.1-1.7-0.1-2.6-0.1c-0.7,0-2.1-0.3-2.6-0.6c-1.6-0.9-2.6-1.7-2.9-1.9c-0.9-0.7-1.7-1.4-2.4-2.3      c-0.4-0.5-0.8-1.1-1.5-1.1c-0.9,0-1.5,1.2-0.8,1.9c0.6,0.6,0.6,0.7,1.3,1.7c0.6,0.7,1.3,1.4,2,2.1c1.1,0.9,2.2,1.8,3.5,2.4      c0.9,0.4,1.9,0.6,2.9,0.7c0.5,0.1,1,0,1.4,0.1c0.6,0.1,1.2,0.2,1.7,0.1c0,3.4,1.2,5.9,4.1,8c1.2,0.8,4.2,2.7,5.5,1.4      c0.2-0.2,0.3-0.4,0.4-0.7c0.4,0.3,0.9,0.4,1.3,0.3l0,0c0.1,0,0.2-0.1,0.3-0.1c0.2,0.1,0.9,0.5,1.1,0.6c1.9,0.9,4.1,1.1,6.2,0.7      c1.4-0.2,2.9-0.5,4-1.5c0.7-0.6,1.3-1.4,1.8-2.1c0.8-1,1.4-2.1,1.8-3.4c0.2-0.6,0.3-1.3,0.4-2      C485.7,553.2,485.9,552.7,485.7,552.3z"/>
                </g>
            </g>
            <g>
                <g>
                    <path class="stHausMainDark4" d="M57,530.8c-6-0.7-12.2,2.7-15.2,8s-2.8,12.1,0.1,17.4c1.4,2.5,3.4,4.8,6,6c2.2,1,4.6,1.1,7,1.2      c1.9,0,3.8,0,5.5-0.7c1.5-0.6,2.7-1.6,3.8-2.7c4.3-4.4,6.5-11,5.2-17C68.1,536.8,63.1,531.5,57,530.8z"/>
                    <path class="stHausMainDark5" d="M70.1,542.7c-0.7-3.3-2.5-6.2-4.8-8.5c-2.3-2.2-5.2-3.7-8.2-4.1c-6.1-0.7-12.6,2.7-15.8,8.3      c-3,5.3-2.9,12.4,0.1,18c1.1,2.1,3.1,4.8,6.3,6.2c2.1,0.9,4.3,1.1,6.4,1.2c0.3,0,0.6,0,0.8,0h0.4c0.1,0,0.3,0,0.4,0      c1.6,0,3.4-0.1,5-0.8c1.4-0.5,2.7-1.5,4-2.8C69.3,555.7,71.4,548.8,70.1,542.7z M60.3,562.1c-1.6,0.6-3.3,0.7-5,0.7H55      c-0.3,0-0.6,0-0.9,0c-1.8-0.1-3.8-0.2-5.6-1l0,0c-0.1,0-0.2-0.1-0.3-0.1c-0.3-0.2-0.7-0.3-1-0.5l0,0c-2.1-1.2-3.5-3.1-4.4-4.7      c-0.1-0.2-0.2-0.3-0.3-0.5c-2.9-5.3-2.9-11.9-0.1-16.9c2.7-4.7,7.9-7.8,13.1-7.8c0.5,0,1,0,1.5,0.1c5.6,0.7,10.6,5.6,12,11.7      c1,4.3,0.1,9-2.3,13c-0.8,1.3-1.7,2.5-2.7,3.5C62.6,560.8,61.5,561.6,60.3,562.1z"/>
                </g>
                <g>
                    <path class="stHausMainDark3" d="M55.4,579.4c0,0.3-0.3,0.6-0.6,0.6s-0.6-0.3-0.6-0.6v-15.5c0.3,0,0.6,0,0.8,0h0.4L55.4,579.4z"/>
                    <path class="stHausMainDark5" d="M55.3,562.7v1.2H55c-0.3,0-0.6,0-0.8,0v-1.2v-2v-21.2c0-0.3,0.3-0.6,0.6-0.6s0.6,0.3,0.6,0.6v13.6v2.7v5.2      L55.3,562.7z"/>
                </g>
                <g>
                    <path class="stHausMainDark5" d="M54.8,556.1c-0.1,0-0.2,0-0.2,0c-0.3-0.1-0.5-0.5-0.3-0.8c1.4-3.5,3.9-6.5,7.1-8.6c0.3-0.2,0.6-0.1,0.8,0.2      s0.1,0.6-0.2,0.8c-2.9,1.9-5.3,4.8-6.6,8C55.2,556,55,556.1,54.8,556.1z"/>
                </g>
                <g>
                    <path class="stHausMainDark5" d="M43.4,545.6c-0.1,0-0.2-0.1-0.2-0.2c-0.3-1.8,0.2-3.7,1.3-5.1c0.1-0.1,0.2-0.1,0.3,0s0.1,0.2,0,0.3      c-1,1.4-1.5,3.1-1.2,4.8C43.6,545.5,43.5,545.6,43.4,545.6L43.4,545.6z"/>
                </g>
                <g>
                    <path class="stHausMainDark5" d="M45.8,546L45.8,546c-0.1,0-0.2-0.1-0.2-0.2l0.4-2.9c0-0.1,0.1-0.2,0.2-0.2c0.1,0,0.2,0.1,0.2,0.2l-0.4,2.9      C46,545.9,45.9,546,45.8,546z"/>
                </g>
                <g>
                    <path class="stHausMainDark5" d="M62,558.3c-0.1,0-0.1,0-0.2-0.1c-0.1-0.1-0.1-0.2,0-0.3c1.3-1,2.3-2.4,3-3.9c0-0.1,0.2-0.1,0.3-0.1      c0.1,0,0.1,0.2,0.1,0.3c-0.7,1.6-1.7,3-3.1,4C62.1,558.3,62,558.3,62,558.3z"/>
                </g>
                <g class="stHausMainDark2">
                    <path d="M66,555.8c-0.5,0-0.8,0.4-1.1,0.7c-0.6,0.6-1.1,1.2-1.8,1.8c-0.6,0.5-1.8,1.3-3.1,1.9c-0.1,0.1-0.3,0.1-0.4,0.2      c-0.5,0.2-1.1,0.3-1.6,0.4h-0.1c-0.1,0-0.2,0-0.2,0c-1.8,0.2-3.6-0.1-6.9-0.9c-1.3-0.4-0.8-0.2-2.1-0.7c-0.2-0.1-1-0.4-1.3-0.5      c-1.2-0.6-1.8-1-2.4-1.5c-0.5-0.3-0.8-0.8-1.3-1.1c-1.1-0.5-2.1,1-1.2,1.8c1,1,2.1,1.8,3.4,2.5c0.2,0.2,1.4,0.6,1.7,0.7      c1.4,0.8,1.7,0.9,2.9,1.4c1.2,0.4,2.4,0.7,3.6,0.9c1.2,0.2,2.5,0.3,3.7-0.1c1-0.2,1.9-0.6,2.7-1.1c1.7-0.8,3.4-1.9,4.7-3.3      c0.5-0.5,1-1,1.5-1.6c0.2-0.2,0.3-0.5,0.3-0.7C67,556.3,66.5,555.8,66,555.8z"/>
                </g>
            </g>
            <g>
                <path class="stHausMainDark4" d="M582.7,362.9c0-1.7-1.4-3.2-3.2-3.2c-1.7,0-3.2,1.4-3.2,3.2s1.4,3.2,3.2,3.2     C581.3,366,582.7,364.6,582.7,362.9z"/>
                <path class="stHausMainDark5" d="M579.6,366.5c-2,0-3.7-1.6-3.7-3.7c0-2,1.6-3.7,3.7-3.7c2,0,3.7,1.6,3.7,3.7     C583.2,364.9,581.6,366.5,579.6,366.5z M579.6,360.2c-1.5,0-2.7,1.2-2.7,2.7s1.2,2.7,2.7,2.7s2.7-1.2,2.7-2.7     C582.2,361.4,581,360.2,579.6,360.2z"/>
            </g>
            <g>
                <g>
                    <path class="stHausMainDark3" d="M629.9,364.2L629.9,364.2c-0.3,0-0.5-0.2-0.5-0.5l0.2-13.4c0-0.3,0.2-0.5,0.5-0.5s0.5,0.2,0.5,0.5      l-0.2,13.4C630.4,364,630.2,364.2,629.9,364.2z"/>
                </g>
                <g>
                    <path class="stHausMainDark3" d="M637.6,364.2L637.6,364.2c-0.3,0-0.5-0.2-0.5-0.5l0.2-10.6c0-0.3,0.2-0.5,0.5-0.5s0.5,0.2,0.5,0.5      l-0.2,10.6C638.1,364,637.9,364.2,637.6,364.2z"/>
                </g>
                <g>
                    <path class="stHausMainDark3" d="M645.2,364.2L645.2,364.2c-0.3,0-0.5-0.2-0.5-0.5l0.2-16.1c0-0.3,0.2-0.5,0.5-0.5l0,0      c0.3,0,0.5,0.2,0.5,0.5l-0.2,16.1C645.7,364,645.5,364.2,645.2,364.2z"/>
                </g>
                <g>
                    <path class="stHausMainDark3" d="M622,364.2L622,364.2c-0.3,0-0.5-0.2-0.5-0.5l0.2-8.9c0-0.3,0.2-0.5,0.5-0.5s0.5,0.2,0.5,0.5l-0.2,8.9      C622.5,364,622.3,364.2,622,364.2z"/>
                </g>
            </g>
            <g>
                <g>
                    <path class="stHausMainDark3" d="M9.8,580L9.8,580c-0.3,0-0.5-0.2-0.5-0.5l0.2-13.4c0-0.3,0.2-0.5,0.5-0.5s0.5,0.2,0.5,0.5l-0.2,13.4      C10.3,579.8,10,580,9.8,580z"/>
                </g>
                <g>
                    <path class="stHausMainDark3" d="M17.4,580L17.4,580c-0.3,0-0.5-0.2-0.5-0.5l0.2-10.6c0-0.3,0.2-0.5,0.5-0.5s0.5,0.2,0.5,0.5l-0.2,10.6      C17.9,579.8,17.7,580,17.4,580z"/>
                </g>
                <g>
                    <path class="stHausMainDark3" d="M25.1,580L25.1,580c-0.3,0-0.5-0.2-0.5-0.5l0.2-16.1c0-0.3,0.2-0.5,0.5-0.5l0,0c0.3,0,0.5,0.2,0.5,0.5      l-0.2,16.1C25.6,579.8,25.3,580,25.1,580z"/>
                </g>
                <g>
                    <path class="stHausMainDark3" d="M1.8,580L1.8,580c-0.3,0-0.5-0.2-0.5-0.5l0.2-8.9c0-0.3,0.2-0.5,0.5-0.5s0.5,0.2,0.5,0.5l-0.2,8.9      C2.3,579.8,2.1,580,1.8,580z"/>
                </g>
            </g>
            <g>
                <g>
                    <path class="stHausMainDark4" d="M510.7,566.4c-2.3,1.1-6.2,0.3-8.2-1.2c-4.6-3.6-6.4-10.2-4.3-15.6c1-2.6,2.8-4.9,3.5-7.6      c1-4.2-0.8-8.6-0.1-12.8c0.7-4.3,4.1-8.1,8.4-9.2c2.7-0.7,5.9-0.2,7.5,2c1.2,1.6,1.5,3.7,1.3,5.7c-0.3,3.2-1.6,6.5-0.5,9.6      c0.8,2.3,2.8,4,4.2,5.9c3.8,5,4.2,12.2,1.1,17.6C520.4,566.2,515,569.3,510.7,566.4z"/>
                    <path class="stHausMainDark5" d="M514.2,568c-1.3,0-2.5-0.3-3.6-1c-2.5,1.1-6.5,0.2-8.5-1.4c-4.7-3.7-6.6-10.6-4.5-16.2      c0.4-1.1,1-2.2,1.6-3.2c0.8-1.5,1.5-2.8,1.9-4.4c0.5-2.1,0.3-4.3,0-6.7c-0.2-2-0.5-4.1-0.1-6.1c0.7-4.5,4.3-8.5,8.7-9.6      c2.6-0.7,6.2-0.2,8.1,2.2c1.1,1.5,1.6,3.6,1.4,6.1c-0.1,1-0.3,1.9-0.4,2.9c-0.4,2.3-0.8,4.5-0.1,6.5c0.5,1.5,1.6,2.8,2.7,4.1      c0.5,0.6,1,1.1,1.4,1.7c3.9,5.1,4.4,12.6,1.1,18.2c-2.1,3.6-5,6-7.9,6.7C515.4,567.9,514.8,568,514.2,568z M510.7,565.9      c0.1,0,0.2,0,0.3,0.1c1.5,1,3.1,1.2,4.8,0.8c2.7-0.6,5.4-3,7.3-6.3c3-5.2,2.6-12.2-1.1-17.1c-0.4-0.6-0.9-1.1-1.4-1.7      c-1.2-1.3-2.3-2.7-2.9-4.4c-0.8-2.3-0.4-4.7,0.1-7c0.2-0.9,0.3-1.9,0.4-2.8c0.1-1.6,0.1-3.8-1.2-5.3c-1.6-2.1-4.7-2.4-7-1.8      c-4.1,1-7.3,4.6-8,8.8c-0.3,1.9-0.1,3.9,0.2,5.9c0.3,2.3,0.5,4.7,0,7c-0.4,1.6-1.2,3.1-2,4.6c-0.5,1-1.1,2-1.5,3.1      c-2,5.2-0.2,11.6,4.2,15.1c1.8,1.4,5.6,2.2,7.7,1.2C510.5,565.9,510.6,565.9,510.7,565.9z"/>
                </g>
                <g>
                    <path class="stHausMainDark5" d="M511.1,579.5c-0.3,0-0.5-0.2-0.5-0.5c0-3.3-0.2-6.7-0.3-9.9c0-0.9-0.1-1.7-0.1-2.6      c-0.5-11.3-0.6-22.8-0.4-34.1c0-0.3,0.2-0.5,0.5-0.5s0.5,0.2,0.5,0.5c-0.2,11.3-0.1,22.8,0.4,34.1c0,0.9,0.1,1.7,0.1,2.6      c0.1,3.3,0.3,6.6,0.3,9.9C511.6,579.2,511.4,579.5,511.1,579.5L511.1,579.5z"/>
                </g>
                <g>
                    <path class="stHausMainDark5" d="M510.3,555.2c-0.1,0-0.1,0-0.2,0c-0.3-0.1-0.4-0.4-0.3-0.7c1.5-3.6,3.4-7,5.9-10c0.2-0.2,0.5-0.3,0.7-0.1      s0.3,0.5,0.1,0.7c-2.4,3-4.3,6.2-5.7,9.8C510.7,555,510.5,555.2,510.3,555.2z"/>
                </g>
                <g>
                    <path class="stHausMainDark5" d="M510.4,561.8c-0.1,0-0.3-0.1-0.4-0.2c-2.1-2.6-4.5-5-7.2-7c-0.2-0.2-0.3-0.5-0.1-0.7      c0.2-0.2,0.5-0.3,0.7-0.1c2.7,2.1,5.2,4.5,7.3,7.2c0.2,0.2,0.1,0.5-0.1,0.7C510.6,561.7,510.5,561.8,510.4,561.8z"/>
                </g>
                <g>
                    <path class="stHausMainDark5" d="M505,529.2c-0.1,0-0.2-0.1-0.2-0.2c-0.1-1.7,0.4-3.5,1.5-4.9c0.1-0.1,0.2-0.1,0.2,0c0.1,0.1,0.1,0.2,0,0.2      c-1,1.3-1.5,3-1.4,4.6C505.1,529.1,505.1,529.2,505,529.2L505,529.2z"/>
                </g>
                <g>
                    <path class="stHausMainDark5" d="M503.2,530.6c-0.1,0-0.2-0.1-0.2-0.2v-2.2c0-0.1,0.1-0.2,0.2-0.2s0.2,0.1,0.2,0.2v2.2      C503.4,530.6,503.3,530.6,503.2,530.6z"/>
                </g>
                <g>
                    <path class="stHausMainDark5" d="M522,553.8C521.9,553.8,521.9,553.8,522,553.8c-0.1,0-0.2-0.1-0.2-0.2c0.4-1.3,0.5-2.6,0.3-4      c0-0.1,0.1-0.2,0.2-0.2c0.1,0,0.2,0.1,0.2,0.2c0.1,1.4,0,2.8-0.4,4.1C522.1,553.8,522,553.8,522,553.8z"/>
                </g>
                <g class="stHausMainDark2">
                    <path class="stHausMainDark5" d="M521.6,562.1c-0.4,0-0.6,0.3-0.8,0.5s-0.5,0.4-0.7,0.6l0,0c-0.7,0.5-2.2,1.3-2.3,1.3      c-0.9,0.3-1.6,0.7-2,0.8c-1.1,0.4-1.7,0.3-2,0.3c-0.9-0.2-0.5-0.1-1.2-0.5c-0.4-0.3-0.9-0.5-1.3-0.8c-0.2-0.1-0.4-0.3-0.7-0.3      c-0.6-0.1-1,0.3-1.1,0.8c-0.1,0.1-0.2,0.1-0.7,0.3c-0.5,0.1-1.1,0.2-2.2,0.2l0,0c-0.2,0-0.8-0.2-1-0.2c-0.5-0.1-0.2,0-0.9-0.4      c-1.1-0.7-1.4-0.7-2.3-1.2c-1-0.6-1.8,0.9-0.9,1.5c0.9,0.5,1,0.5,1.6,0.8c1.5,0.9,3.2,1.6,4.9,1.5c0.6,0,1.2-0.1,1.8-0.2      c0.4-0.1,0.9-0.2,1.1-0.5c0.6,0.4,1.3,0.8,2.1,0.9c0.6,0.1,1.2,0.1,1.8,0c0.1,0,0.1,0,0.1,0h0.1c0.8-0.1,1.6-0.4,2.3-0.7      c0.7-0.4,0.9-0.3,1.9-0.8s1.8-1.1,2.6-1.9c0.3-0.3,0.8-0.6,0.8-1.1C522.4,562.5,522,562.1,521.6,562.1z"/>
                </g>
            </g>
            <g>
                <g>
                    <path class="stHausMainDark6" d="M580.5,308.1c1.7,0.4,5.7,0,7.1-2.2c2.1-3.1,1-6.3,0-8c1.8-1.1,5.2-2.4,8.6-3.9c-0.1,0.8,1.9,3.4,4.2,4.3      c5.4,2,8.5-1.5,9.4-2.9c2.6,2,5.1,4.3,7.3,6.7c-2.1,1.9-2.9,5-2,7.6s3.5,4.6,6.4,5c-0.5,3-1.4,5.9-2.6,8.4c-2-0.6-4.1-1.1-6-0.3      c-1.4,0.7-2.4,2.1-2.8,3.7c-0.4,1.5-0.3,3.1-0.3,4.8c-2.8,0.9-5.6,1.6-8.6,2c-0.3-1.7-1.3-3.4-2.8-4.4c-0.8-0.6-1.7-1-2.7-1      c-0.9,0-1.8,0.4-2.6,0.8c-1.2,0.6-2.5,1.4-3.2,2.8c-2.3-1.4-4.5-2.9-6.4-4.8c1.4-1.4,2.3-3.4,2.4-5.4c0-0.7,0-1.3-0.3-1.9      c-0.5-1.1-1.7-1.7-2.8-2.1c-1.3-0.4-2.7-0.7-4-0.7C579.2,313.9,579.7,311,580.5,308.1z"/>
                    <path class="stHausMainDark7" d="M601.5,334c-0.2,0-0.5-0.2-0.5-0.4c-0.3-1.6-1.2-3.1-2.6-4.1c-0.6-0.4-1.4-0.9-2.4-0.9      c-0.8,0-1.6,0.4-2.4,0.8c-1.2,0.6-2.4,1.3-3,2.6c-0.1,0.1-0.2,0.2-0.3,0.3c-0.1,0-0.3,0-0.4,0c-2.7-1.6-4.8-3.2-6.5-4.9      c-0.2-0.2-0.2-0.5,0-0.7c1.3-1.4,2.1-3.2,2.3-5.1c0-0.7,0-1.3-0.2-1.7c-0.4-0.8-1.2-1.4-2.5-1.8c-1.2-0.4-2.5-0.6-3.9-0.7      c-0.1,0-0.3-0.1-0.4-0.2c-0.1-0.1-0.1-0.2-0.1-0.4c0.1-2.9,0.6-5.9,1.4-8.8c0.1-0.3,0.3-0.4,0.6-0.4c1.6,0.3,5.3,0,6.6-2      c2.2-3.3,0.6-6.5,0-7.4c-0.1-0.2-0.1-0.5,0.2-0.7c1.4-0.9,3.8-1.9,6.3-2.9c0.8-0.3,1.6-0.7,2.4-1c0.2-0.1,0.4,0,0.5,0.1      s0.2,0.3,0.2,0.5c-0.1,0.5,1.7,2.9,3.9,3.7c5.3,1.9,8.1-1.6,8.8-2.7c0.1-0.1,0.2-0.2,0.3-0.2s0.3,0,0.4,0.1      c2.8,2.2,5.2,4.4,7.4,6.8c0.1,0.1,0.1,0.2,0.1,0.4c0,0.1-0.1,0.3-0.2,0.3c-1.9,1.7-2.7,4.7-1.8,7.1c0.8,2.4,3.2,4.3,6,4.6      c0.1,0,0.3,0.1,0.3,0.2c0.1,0.1,0.1,0.2,0.1,0.4c-0.5,3-1.4,5.9-2.6,8.6c-0.1,0.2-0.4,0.3-0.6,0.3c-2-0.6-4-1.1-5.6-0.3      c-1.2,0.6-2.1,1.8-2.5,3.3c-0.3,1.2-0.3,2.5-0.3,3.8c0,0.3,0,0.6,0,0.9c0,0.2-0.1,0.4-0.3,0.5      C607.2,332.9,604.4,333.5,601.5,334L601.5,334z M596.1,327.6c0.9,0,1.9,0.4,2.9,1c1.4,1,2.4,2.6,2.9,4.2c2.5-0.4,5-1,7.7-1.8      c0-0.2,0-0.3,0-0.5c0-1.4,0-2.7,0.3-4.1c0.5-1.8,1.6-3.3,3-4c1.8-0.9,3.9-0.5,5.9,0.1c1-2.3,1.8-4.8,2.3-7.4      c-2.9-0.6-5.4-2.6-6.3-5.2c-0.9-2.6-0.2-5.8,1.8-7.8c-1.9-2.1-4.1-4.1-6.5-6c-1.1,1.4-4.3,4.6-9.7,2.7c-2-0.7-3.9-2.7-4.4-4.1      c-0.6,0.3-1.2,0.5-1.8,0.8c-2.2,0.9-4.4,1.8-5.8,2.6c0.7,1.4,1.9,4.7-0.3,8.1c-1.5,2.2-5.2,2.8-7.2,2.5      c-0.7,2.6-1.1,5.2-1.3,7.7c1.3,0.1,2.5,0.3,3.7,0.7c1.6,0.5,2.6,1.3,3.1,2.4c0.3,0.6,0.4,1.3,0.3,2.2c-0.1,1.9-0.9,3.9-2.2,5.3      c1.5,1.5,3.3,2.8,5.6,4.2c0.8-1.2,2-2,3.2-2.6C594,328.1,595,327.6,596.1,327.6L596.1,327.6z"/>
                </g>
                <g>
                    <path class="stHausMainDark8" d="M599.3,304.6c-3,0.7-5.1,2.5-6.5,5.3c-1.3,2.8-1.2,6.2,0.4,8.9c1.6,2.6,4.6,4.4,7.8,4.4      c2.6,0,5.2-1.2,6.9-3.1s2.3-4.5,2.2-7c0-1.3-1.1-5.9-4.8-7.7C603.5,304.4,601.1,304.2,599.3,304.6z"/>
                    <path class="stHausMainDark7" d="M601.1,323.3L601.1,323.3c-3.2,0-6.3-1.8-7.9-4.5c-1.6-2.7-1.8-6.1-0.4-9c1.4-2.9,3.6-4.7,6.6-5.4l0,0      c2-0.4,4.4-0.1,6.3,0.8c3.9,1.9,4.8,6.7,4.9,7.8c0.1,3.1-0.7,5.4-2.3,7.2C606.3,322.1,603.7,323.3,601.1,323.3z M599.4,304.8      L599.4,304.8c-2.9,0.7-5,2.4-6.3,5.2c-1.3,2.8-1.1,6.1,0.4,8.7c1.6,2.6,4.6,4.3,7.6,4.3l0,0c2.5,0,5.1-1.1,6.8-3      c1.5-1.7,2.2-3.9,2.2-6.9c0-1.4-1.2-5.8-4.7-7.5C603.6,304.6,601.3,304.3,599.4,304.8z"/>
                </g>
                <g>
                    <path class="stHausMainDark6" d="M602.9,307.6c-1.8-0.7-3.9-0.1-5.3,1.1c-1.5,1.2-2.3,3-2.5,4.9c-0.1,0.8-0.1,1.5,0.1,2.3      c0.2,0.7,0.6,1.4,1.2,2c1.8,1.9,4.9,2.5,7.2,1.3c2.4-1.1,3.9-3.9,3.4-6.4C606.6,310.5,605.1,308.4,602.9,307.6z"/>
                    <path class="stHausMainDark7" d="M601,320.2c-1.8,0-3.7-0.7-5-2.1c-0.6-0.7-1.1-1.4-1.3-2.2c-0.2-0.7-0.3-1.5-0.1-2.5c0.3-2.1,1.3-4,2.7-5.2      c1.7-1.4,3.9-1.8,5.8-1.1l0,0c2.3,0.8,4,3,4.4,5.5c0.4,2.7-1.2,5.7-3.7,6.9C602.9,320,601.9,320.2,601,320.2z M601.2,307.8      c-1.2,0-2.4,0.4-3.3,1.2c-1.3,1-2.1,2.7-2.4,4.6c-0.1,0.8-0.1,1.5,0.1,2.1c0.2,0.6,0.5,1.2,1.1,1.7c1.6,1.7,4.5,2.3,6.7,1.2      c2.2-1,3.5-3.5,3.2-5.9c-0.3-2.1-1.8-4-3.8-4.7C602.2,307.9,601.7,307.8,601.2,307.8z"/>
                </g>
            </g>
        </g>
    </g>
    <path class="stHausMainDark9" d="M54.6,193.4c5.3,8.1,11.3,12.3,20.6,13.9c9.3,1.7,17.8-0.8,25.3-6.3c11.5,20.6,38.6,23.6,53.9,4.7  c18.9,15.7,46.8,6.8,52.3-18.2c0.2,0,0.5-0.1,0.7-0.1c22.7,4.2,40.2-15.4,37.1-34.7c-0.4-2.5,1.1-2.9,2.7-3.7  c15.7-7.2,22.8-24.9,16.3-40.5c-3.7-9-10.4-14.8-19.4-18.1c8.6-16.8,7.1-31-4.2-41.6c-11.3-10.5-25.5-11-41.8-1.3  c-4.5-10.1-11.9-17-22.8-19.3c-11.1-2.4-20.7,1-29,8.4c-15.8-17.1-42.6-13.9-53.2,8c-18-2.9-33.1,6.5-38.2,24.6  C40.8,67.3,29.1,71.5,21.7,84c-7.9,13.2-5.5,26,3.8,37.7c-17.2,19.8-11.1,34,6.1,49.6C31.6,171.3,31.9,197,54.6,193.4z"/>
    <g>
        <g>
            <path class="stHausMainDark0" d="M113.6,158.1c-0.2-19.7-0.4-39.3-0.6-59c-11.6-0.1-20.2-0.4-34.1-0.4c0.6,19.6,0.4,39.3,0.4,59.1    C91.3,157.4,103.3,157.4,113.6,158.1z"/>
            <path d="M113.6,158.7L113.6,158.7c-9-0.6-20.2-0.7-34.3-0.3c-0.2,0-0.3-0.1-0.5-0.2c-0.1-0.1-0.2-0.3-0.2-0.5c0-2.7,0-5.3,0-8    c0.1-16.8,0.1-34.2-0.4-51.1c0-0.2,0.1-0.3,0.2-0.5c0.1-0.1,0.3-0.2,0.5-0.2c7.8,0,13.9,0.1,19.7,0.2c4.8,0.1,9.3,0.2,14.4,0.2    c0.3,0,0.6,0.3,0.6,0.6l0.6,59c0,0.2-0.1,0.3-0.2,0.5C113.9,158.7,113.8,158.7,113.6,158.7z M95.2,156.9c6.7,0,12.6,0.2,17.7,0.5    l-0.5-57.7c-4.9,0-9.2-0.1-13.8-0.2c-5.7-0.1-11.6-0.2-19.1-0.2c0.5,16.8,0.4,33.9,0.4,50.5c0,2.4,0,4.9,0,7.3    C85.4,157,90.5,156.9,95.2,156.9z"/>
        </g>
        <g>
            <path d="M112.7,108L112.7,108c-11-0.3-22.1-0.3-33.1,0c-0.3,0-0.6-0.3-0.7-0.6c0-0.3,0.3-0.6,0.6-0.7c11-0.3,22.2-0.3,33.2,0    c0.3,0,0.6,0.3,0.6,0.7C113.3,107.7,113,108,112.7,108z"/>
        </g>
        <g>
            <path d="M112.7,116.5L112.7,116.5c-11-0.3-22.1-0.3-33.1,0c-0.3,0-0.6-0.3-0.7-0.6c0-0.3,0.3-0.6,0.6-0.7c11-0.3,22.2-0.3,33.2,0    c0.3,0,0.6,0.3,0.6,0.7C113.3,116.2,113,116.5,112.7,116.5z"/>
        </g>
        <g>
            <path d="M112.7,124.9L112.7,124.9c-11-0.3-22.1-0.3-33.1,0l0,0c-0.3,0-0.6-0.3-0.6-0.6s0.3-0.6,0.6-0.7c11-0.3,22.2-0.3,33.2,0    c0.3,0,0.6,0.3,0.6,0.7C113.3,124.6,113,124.9,112.7,124.9z"/>
        </g>
        <g>
            <path d="M112.8,133.4L112.8,133.4c-11-0.3-22.1-0.3-33.1,0c-0.4,0-0.6-0.3-0.7-0.6c0-0.3,0.3-0.6,0.6-0.7c11-0.3,22.2-0.3,33.2,0    c0.3,0,0.6,0.3,0.6,0.7C113.4,133.1,113.1,133.4,112.8,133.4z"/>
        </g>
        <g>
            <path d="M112.7,141.8L112.7,141.8c-11-0.3-22.1-0.3-33.1,0c-0.3,0-0.6-0.3-0.7-0.6c0-0.3,0.3-0.6,0.6-0.7c11-0.3,22.2-0.3,33.2,0    c0.3,0,0.6,0.3,0.6,0.7C113.3,141.5,113,141.8,112.7,141.8z"/>
        </g>
        <g>
            <path d="M112.7,150.2L112.7,150.2c-11-0.3-22.1-0.3-33.1,0c-0.3,0-0.6-0.3-0.7-0.6c0-0.3,0.3-0.6,0.6-0.7c11-0.3,22.2-0.3,33.2,0    c0.3,0,0.6,0.3,0.6,0.7C113.3,150,113,150.2,112.7,150.2z"/>
        </g>
        <g class="stHausMainDark2">
            <path d="M113.2,106.2c-0.2-0.8-1.1-0.9-1.9-0.9c-8-0.7-16.1-0.4-24.1-0.1c-1.7,0.1-3.4,0-5.1-0.1c-0.8,0-1.7-0.2-2.5,0.1    c-1.4,0.5-0.9,2.4,0.5,2.4c2.9,0,5.7,0.1,8.6-0.1c3.1-0.2,6.2-0.1,9.4-0.2c2.2,0,4.5-0.1,6.7,0.1c2.2,0.1,4.5,0.4,6.7,0.3    C112.5,107.8,113.4,107,113.2,106.2z"/>
        </g>
        <g class="stHausMainDark2">
            <path d="M111.6,113.6c-3.4,0-6.7-0.3-10.1-0.3c-4.5,0.1-8.9,0.4-13.4,0.5c-2,0-3.9,0-5.9,0c-0.8,0-1.7-0.2-2.4,0    c-1.2,0.4-0.9,2.2,0.5,2.2c6,0.5,12,0,18-0.1c4.3-0.1,10.8,0.2,13.6,0.4C114,116.1,113.7,113.4,111.6,113.6z"/>
        </g>
        <g class="stHausMainDark2">
            <path d="M111.3,121.7c0.1,0,0.2,0,0.4,0c-1.7-0.2-3.3,0-5-0.1c-4.2-0.1-8.4,0-12.6-0.2c-2.6,0-5.1-0.2-7.7,0    c-1.6,0.1-3.2,0.2-4.7,0.3c-0.6,0.1-1.3-0.1-1.8,0.1c-1.3,0.4-0.9,2.3,0.5,2.2c2.6-0.1,5.2-0.4,7.8-0.4c3.3,0,6.6,0.2,9.9,0.3    c3.1,0.1,6.1-0.1,9.2,0c2.4,0.1,3,0,4.2,0.3c0.7,0.2,1.6-0.1,1.8-0.8C113.6,122.2,112.5,121.8,111.3,121.7z"/>
        </g>
        <g class="stHausMainDark2">
            <path d="M113.3,131.3c-0.2-0.7-1.1-1-1.9-1c0,0-0.1,0-0.2,0c-0.8,0.1-1.6-0.1-2.4-0.1c-1.5,0-2.9,0-4.4,0    C99,130,93.6,130,88.2,130c-2-0.1-4-0.1-6.1,0c-0.9,0.1-1.9-0.2-2.6,0.4c-1,0.8-0.2,2.4,1.1,2.3c2.5-0.1,5-0.3,7.5-0.2    c3.6-0.1,7.3-0.1,10.9,0c3.2,0,6.4,0,9.6,0.1c1.6,0.1,1.6,0.1,2.7,0.2C112.5,133.1,113.5,132.4,113.3,131.3z"/>
        </g>
        <g class="stHausMainDark2">
            <path d="M113,138.9c-0.3-0.2-0.6-0.4-1-0.4c0,0,0.1,0,0.2,0h-0.1c0,0-0.1,0-0.2,0c0,0,0,0-0.1,0l0,0l0,0c-1.2-0.1-2.5,0-3.7,0    c-3.4-0.1-6.7,0.1-10.1,0.1c-2.7,0.3-5.5,0.1-8.2,0.2c-2.1,0.1-4.3,0.1-6.4,0.2c-1.2,0-2.4-0.1-3.6,0.2c-1.2,0.4-0.8,2.1,0.5,2.1    c2.8-0.2,5.7,0,8.5-0.1c1.3,0,2.5-0.1,3.8-0.2c1.7,0,3.5,0,5.2-0.1c3.3,0.1,6.7-0.1,10,0.1c2,0,3,0,4.2,0.2    C113.2,141.1,113.9,139.7,113,138.9z"/>
        </g>
        <g class="stHausMainDark2">
            <path d="M111.3,147.4L111.3,147.4c-0.2,0-0.3,0-0.4,0.1c-2.5,0.2-7.9-0.1-11.4-0.2c-3.9,0.1-7.8,0.1-11.7,0.1c-2,0-4-0.2-6-0.2    c-0.7,0-1.5-0.2-2.1,0.1c-1.5,0.5-1,2.6,0.6,2.6c2.3,0,4.7,0.1,7,0c2.8-0.1,5.7-0.3,8.5-0.3c3.2,0,6.3,0.1,9.5,0.1    c1.7,0,5.2-0.1,6,0c0.9,0.3,1.9-0.2,1.9-1.1C113.2,147.6,112.2,147.1,111.3,147.4z"/>
        </g>
        <g class="stHausMainDark2">
            <path d="M113.7,156.5c-0.3-0.9-1.4-0.8-2.3-0.8c-3.6,0-7.1-0.3-10.7-0.4c-1.9-0.1-3.7,0-5.6,0s-3.7-0.1-5.6-0.1    c-2.6-0.1-5.2-0.3-7.8,0c-0.9,0.1-2.4-0.1-2.8,0.9c-0.4,0.7,0.3,1.7,1.2,1.7c2-0.1,3.9-0.3,5.9-0.3c2,0.1,4,0.2,6,0.1    c2.8,0,5.6-0.2,8.3-0.1c4,0,7.9,0.2,11.9,0.4C113.1,158,114,157.3,113.7,156.5z"/>
        </g>
        <g>
            <path class="stHausMainDark0" d="M163.4,158.1c-0.2-7.2-0.4-14.4-0.6-21.5c-11.6,0-20.2-0.2-34.1-0.2c0.6,7.2,0.4,14.4,0.4,21.6    C141.1,157.9,153.1,157.8,163.4,158.1z"/>
            <path d="M163.4,158.7L163.4,158.7c-9-0.2-20.2-0.3-34.3-0.1c-0.2,0-0.3-0.1-0.5-0.2c-0.1-0.1-0.2-0.3-0.2-0.5c0-1,0-1.9,0-2.9    c0.1-6.1,0.1-12.5-0.4-18.6c0-0.2,0-0.4,0.2-0.5c0.1-0.1,0.3-0.2,0.5-0.2c7.8,0,13.8,0,19.7,0.1c4.8,0,9.3,0.1,14.4,0.1    c0.3,0,0.6,0.3,0.6,0.6L164,158c0,0.2-0.1,0.3-0.2,0.5C163.7,158.7,163.6,158.7,163.4,158.7z M145,157.3c6.7,0,12.6,0.1,17.7,0.2    l-0.5-20.3c-4.9,0-9.2,0-13.8-0.1c-5.7,0-11.6-0.1-19-0.1c0.4,6,0.4,12.1,0.3,18.1c0,0.8,0,1.5,0,2.3    C135.3,157.3,140.4,157.3,145,157.3z"/>
        </g>
        <g>
            <path d="M162.5,144.4L162.5,144.4c-11-0.3-22.1-0.3-33.1,0c-0.4,0-0.6-0.3-0.6-0.6c0-0.4,0.3-0.6,0.6-0.6c11-0.3,22.2-0.3,33.2,0    c0.3,0,0.6,0.3,0.6,0.6C163.1,144.1,162.9,144.4,162.5,144.4z"/>
        </g>
        <g>
            <path d="M162.5,151.5L162.5,151.5c-11-0.3-22.1-0.3-33.1,0c-0.4,0-0.6-0.3-0.6-0.6c0-0.4,0.3-0.6,0.6-0.6c11-0.3,22.2-0.3,33.2,0    c0.3,0,0.6,0.3,0.6,0.6C163.1,151.3,162.9,151.5,162.5,151.5z"/>
        </g>
        <g class="stHausMainDark2">
            <path d="M162.8,141.8c-0.3-0.2-0.6-0.3-1-0.3c0,0,0.1,0,0.2,0h-0.1c0,0-0.1,0-0.2,0c0,0,0,0-0.1,0l0,0l0,0c-1.2-0.1-2.5,0-3.7,0    c-3.4-0.1-6.7,0.1-10.1,0.1c-2.7,0.2-5.5,0.1-8.2,0.2c-2.1,0.1-4.3,0.1-6.4,0.1c-1.2,0-2.4,0-3.6,0.2c-1.2,0.3-0.8,1.8,0.5,1.8    c2.8-0.1,5.7,0,8.5-0.1c1.3,0,2.5-0.1,3.8-0.1c1.7,0,3.5,0,5.2-0.1c3.3,0.1,6.7,0,10,0.1c2,0,3,0,4.2,0.2    C163,143.7,163.7,142.5,162.8,141.8z"/>
        </g>
        <g class="stHausMainDark2">
            <path d="M161.2,149C161.1,149,161.1,149,161.2,149c-0.2,0-0.3,0-0.4,0.1c-2.5,0.2-7.9-0.1-11.4-0.2c-3.9,0-7.8,0.1-11.7,0.1    c-2,0-4-0.1-6-0.2c-0.7,0-1.5-0.1-2.1,0.1c-1.5,0.4-1,2.2,0.6,2.2c2.3,0,4.7,0,7,0c2.8,0,5.7-0.2,8.5-0.2c3.2,0,6.3,0.1,9.5,0.1    c1.7,0,5.2-0.1,6,0c0.9,0.3,1.9-0.2,1.9-0.9C163,149.2,162,148.7,161.2,149z"/>
        </g>
        <g class="stHausMainDark2">
            <path d="M163.6,156.7c-0.3-0.8-1.4-0.7-2.3-0.7c-3.6,0-7.1-0.2-10.7-0.3c-1.9-0.1-3.7,0-5.6,0c-1.9,0-3.7-0.1-5.6-0.1    c-2.6-0.1-5.2-0.2-7.8,0c-0.9,0.1-2.4-0.1-2.8,0.7c-0.4,0.6,0.3,1.4,1.2,1.4c2-0.1,3.9-0.2,5.9-0.3c2,0,4,0.2,6,0.1    c2.8,0,5.6-0.2,8.3-0.1c4,0,7.9,0.2,11.9,0.4C163,158,163.8,157.4,163.6,156.7z"/>
        </g>
        <g>
            <g>
                <g>
                    <path class="stHausMainDark1" d="M139.8,101.6c-0.4,9-1.1,9.1-0.8,18.2c6.7,0,13.5,0.7,20.2-0.2c-0.3-8.7,0-8.8-0.1-17.7      c3.4,0,3.5,0,6.9-0.1c-6.4-7-9.3-11.2-16.2-18.3c-6.7,6.7-10.5,10.5-16.7,17.7C136.3,101.3,136.6,101.6,139.8,101.6z"/>
                    <path d="M151.4,120.7c-2.1,0-4.3-0.1-6.4-0.1c-2-0.1-4-0.1-6-0.1c-0.3,0-0.6-0.3-0.6-0.6c-0.2-5.8,0-8,0.3-11.1      c0.1-1.7,0.3-3.6,0.5-6.5c-1.2,0-2-0.1-2.7-0.2c-0.9-0.1-1.8-0.2-3.4-0.2c-0.2,0-0.5-0.1-0.6-0.4c-0.1-0.2-0.1-0.5,0.1-0.7      c6.3-7.3,10.1-11.2,16.7-17.7c0.1-0.1,0.3-0.2,0.4-0.2l0,0c0.2,0,0.3,0.1,0.4,0.2c3.9,4.1,6.6,7.1,9.3,10.4      c2,2.4,4.2,4.9,6.9,7.9c0.2,0.2,0.2,0.4,0.1,0.7c-0.1,0.2-0.3,0.4-0.6,0.4c-3.2,0.1-3.5,0.1-6.2,0.1c0,3.2,0,5.2,0,6.9      c0,2.7-0.1,4.9,0.1,10.1c0,0.3-0.2,0.6-0.6,0.7C156.7,120.6,154,120.7,151.4,120.7z M139.6,119.1c1.8,0,3.7,0.1,5.4,0.1      c4.4,0.1,9,0.3,13.5-0.2c-0.2-4.8-0.1-6.9-0.1-9.6c0-1.9,0-4,0-7.5c0-0.2,0.1-0.3,0.2-0.5c0.1-0.1,0.3-0.2,0.5-0.2l0,0h0.2      c2.6,0,3.2,0,5.2,0c-2.3-2.6-4.2-4.7-6-6.9c-2.7-3.1-5.2-6.1-8.8-9.9c-6,6-9.7,9.8-15.3,16.2c0.9,0,1.5,0.1,2.1,0.1      c0.9,0.1,1.7,0.2,3.2,0.2c0.2,0,0.3,0.1,0.5,0.2c0.1,0.1,0.2,0.3,0.2,0.5c-0.2,3.3-0.3,5.4-0.5,7.2      C139.6,111.8,139.5,113.9,139.6,119.1z"/>
                </g>
                <g>
                    <path class="stHausMainDark0" d="M152.2,112.2c-2.3-0.2-4.7-0.2-7-0.1c0-2,0.1-4.1,0.2-6.2c2.4-0.1,4.7-0.1,7-0.1      C152.4,107.8,152.4,109.8,152.2,112.2z"/>
                    <path d="M152.2,112.8C152.1,112.8,152.1,112.8,152.2,112.8c-2.3-0.2-4.7-0.2-7-0.1c-0.2,0-0.3-0.1-0.5-0.2      c-0.1-0.1-0.2-0.3-0.2-0.5c0-2,0.1-4.2,0.2-6.2c0-0.3,0.3-0.6,0.6-0.6c2.2-0.1,4.4-0.1,7-0.1c0.3,0,0.6,0.3,0.6,0.6      c0.1,2,0,3.9-0.1,6.4C152.8,112.6,152.5,112.8,152.2,112.8z M147.9,111.4c1.2,0,2.4,0,3.6,0.1c0.1-1.9,0.2-3.5,0.1-5.1      c-2.1,0-4,0-5.8,0c-0.1,1.6-0.1,3.3-0.2,4.9C146.5,111.4,147.2,111.4,147.9,111.4z"/>
                </g>
            </g>
            <g>
                <path class="stHausMainDark0" d="M175,134.8c10.5,7.9,18,19.1,27.3,28.5c2.1,2.2,4.7,4.4,7.8,4.3c2.7-0.1,5.1-2.3,5.5-5     c0.3-2.2-0.6-4.4-1.9-6.1c-1.3-1.7-3.1-3-4.8-4.3c-9.9-7.4-19.4-15.4-28.5-23.9C178.5,130.4,176.7,132.6,175,134.8z"/>
                <path d="M209.8,168.2c-3.1,0-5.8-2.2-8-4.4c-3.4-3.4-6.6-7.2-9.7-10.8c-5.4-6.2-10.9-12.6-17.5-17.6c-0.3-0.2-0.3-0.6-0.1-0.9     c1.7-2.3,3.5-4.5,5.4-6.6c0.1-0.1,0.3-0.2,0.4-0.2c0.2,0,0.3,0.1,0.5,0.2c9,8.4,18.6,16.4,28.5,23.8l0.1,0.1     c1.7,1.3,3.5,2.6,4.8,4.3c1.6,2,2.3,4.4,2,6.5c-0.5,3-3.1,5.4-6.1,5.5C210,168.2,209.9,168.2,209.8,168.2z M175.9,134.7     c6.5,5,11.9,11.3,17.2,17.4c3.1,3.6,6.3,7.3,9.7,10.7c2,2,4.4,4.1,7.1,4.1c0.1,0,0.1,0,0.2,0c2.4-0.1,4.6-2.1,4.9-4.5     c0.3-1.8-0.4-3.8-1.8-5.6c-1.3-1.6-2.9-2.9-4.6-4.1l-0.1-0.1c-9.7-7.3-19.2-15.2-28.1-23.5C178.9,131,177.3,132.8,175.9,134.7z"/>
            </g>
            <g>
                <path class="stHausMainDark1" d="M169.5,134c0.3,1.7,1.3,3.3,2.7,4.3c0.5,0.3,1.1,0.6,1.7,0.6c0.6,0,1.1-0.3,1.6-0.7c3.1-2.1,5.5-5.2,7.7-8.2     c0.6-0.9,1.3-1.8,1.5-2.8c0.2-0.8,0.1-1.7-0.1-2.5c-0.7-2.2-3.1-4-5.3-3.3c-1.2,0.3-2,1.3-2.9,2.1c-2.2,2.4-4.3,5-6.2,7.7     C169.7,132.4,169,133.5,169.5,134z"/>
                <path d="M173.9,139.5c-0.6,0-1.3-0.2-2-0.7c-1.5-1-2.6-2.7-3-4.6c-0.7-0.9,0.4-2.4,0.9-3.2c1.9-2.7,4-5.3,6.2-7.8     c0.9-1,1.8-1.9,3.1-2.3c2.6-0.8,5.3,1.3,6.1,3.7c0.3,1,0.4,1.9,0.2,2.8c-0.3,1.2-1,2.2-1.7,3.1c-2.2,2.9-4.6,6.2-7.9,8.3     C175.3,139.2,174.7,139.5,173.9,139.5L173.9,139.5z M170,133.5c0.1,0.1,0.2,0.2,0.2,0.3c0.2,1.6,1.2,3,2.5,3.9     c0.5,0.3,0.9,0.5,1.3,0.5c0.4,0,0.9-0.3,1.3-0.5c3.1-2,5.4-5.1,7.6-8c0.6-0.8,1.2-1.6,1.4-2.6c0.1-0.6,0.1-1.4-0.1-2.1     c-0.6-1.8-2.6-3.4-4.5-2.9c-1,0.3-1.8,1.1-2.6,2c-2.2,2.4-4.2,5-6.1,7.7C170.1,133,170,133.4,170,133.5z"/>
            </g>
            <g>
                <g>
                    <path class="stHausMainDark0" d="M147.5,64.9c-14.4,0.8-27.3,11.7-32.9,24.9c-5.6,13.3-3.6,29.5,5.1,40.9c5.7,7.5,17.5,14,32.9,12.3      c10.8-1.2,20.3-8.3,26.5-17.2c4.9-7,8-15.4,8.2-24C187.6,93.3,182.9,63,147.5,64.9z M166.3,130.7c-16.1,11.6-36.8,4.9-43.1-9.5      c-4.8-10.8-4.1-21.3-3-24.9c2-6,7.5-18.2,19.2-22c14.2-4.6,24.8,0.3,30,4.5s8.9,10.3,10.1,16.9      C182,108.3,176.7,123.2,166.3,130.7z"/>
                    <path d="M147.7,143.9c-13.7,0-23.5-6.3-28.4-12.8c-8.9-11.7-10.9-28-5.2-41.6c6.1-14.4,19.5-24.6,33.4-25.3l0,0      c12.3-0.7,22.2,2.5,29.3,9.3c9.2,8.9,11.4,22,11.3,28.3c-0.2,8.3-3,16.8-8.3,24.3c-6.9,10-16.7,16.3-27,17.4      C151,143.8,149.3,143.9,147.7,143.9z M147.5,64.9v0.6C134,66.2,121,76.1,115.2,90c-5.5,13.1-3.5,29,5.1,40.3      c4.7,6.2,14.2,12.3,27.4,12.3c1.6,0,3.3-0.1,5-0.3c9.9-1.1,19.4-7.3,26.1-16.9c5-7.3,7.9-15.6,8.1-23.6      c0.1-6.1-2-18.8-10.9-27.4c-6.8-6.6-16.3-9.6-28.3-9L147.5,64.9z M148.3,137.2c-2.6,0-5.3-0.3-7.9-1      c-8.1-2.2-14.7-7.7-17.8-14.7c-4.7-10.7-4.3-21.2-3-25.4c1.7-5.4,7.1-18.4,19.6-22.4c16.6-5.3,27.6,2.2,30.6,4.6      c5.3,4.3,9.1,10.6,10.3,17.3c2.5,13.2-3.2,28.1-13.5,35.6l0,0C161.2,135.1,154.8,137.2,148.3,137.2z M150.7,73.1      c-3.3,0-7,0.5-11,1.8c-11.9,3.8-17.1,16.3-18.8,21.6c-1.1,3.4-1.8,13.8,2.9,24.5c2.9,6.7,9.3,11.9,17,14      c8.5,2.3,17.7,0.6,25.1-4.8l0,0c10-7.2,15.4-21.6,13-34.3c-1.2-6.4-4.8-12.4-9.9-16.5C166.9,77.6,160.5,73.1,150.7,73.1z"/>
                </g>
            </g>
            <g>
                <path d="M182.9,139.2L182.9,139.2c-0.2,0-0.2-0.1-0.2-0.2l0.8-4.6c0-0.1,0.1-0.2,0.2-0.2c0.1,0,0.2,0.1,0.2,0.2l-0.8,4.6     C183.1,139.1,183,139.2,182.9,139.2z"/>
            </g>
            <g>
                <path d="M186.1,143.3L186.1,143.3c-0.1,0-0.2-0.1-0.2-0.2c0.1-2.2,0.3-4.3,0.5-6.5c0-0.1,0.1-0.2,0.2-0.2c0.1,0,0.2,0.1,0.2,0.2     c-0.2,2.1-0.4,4.3-0.5,6.4C186.3,143.2,186.2,143.3,186.1,143.3z"/>
            </g>
            <g>
                <path d="M189.7,147.5c-0.1,0-0.2-0.1-0.2-0.2c-0.1-2.5,0.1-5,0.4-7.5c0-0.1,0.1-0.2,0.2-0.2c0.1,0,0.2,0.1,0.2,0.2     c-0.3,2.4-0.5,4.9-0.4,7.4C189.9,147.4,189.8,147.5,189.7,147.5L189.7,147.5z"/>
            </g>
            <g>
                <path d="M193.4,151.2c-0.1,0-0.2-0.1-0.2-0.2c0-2.7,0.1-5.3,0.3-8c0-0.1,0.1-0.2,0.2-0.2c0.1,0,0.2,0.1,0.2,0.2     c-0.2,2.6-0.3,5.3-0.3,8C193.6,151.1,193.5,151.2,193.4,151.2L193.4,151.2z"/>
            </g>
            <g>
                <path d="M197.5,156.4c-0.1,0-0.2-0.1-0.2-0.2l-0.1-10.2c0-0.1,0.1-0.2,0.2-0.2c0.1,0,0.2,0.1,0.2,0.2l0.1,10.2     C197.7,156.3,197.6,156.4,197.5,156.4L197.5,156.4z"/>
            </g>
            <g>
                <path d="M202.1,160.3c-0.1,0-0.2-0.1-0.2-0.2l-0.2-9.5c0-0.1,0.1-0.2,0.2-0.2c0.1,0,0.2,0.1,0.2,0.2l0.2,9.5     C202.3,160.2,202.2,160.3,202.1,160.3L202.1,160.3z"/>
            </g>
            <g>
                <path d="M207.1,164.8c-0.1,0-0.2-0.1-0.2-0.2l-0.6-10.4c0-0.1,0.1-0.2,0.2-0.2c0.1,0,0.2,0.1,0.2,0.2l0.6,10.4     C207.3,164.6,207.2,164.7,207.1,164.8L207.1,164.8z"/>
            </g>
            <g>
                <path d="M211.2,163.6c-0.1,0-0.2-0.1-0.2-0.2l-0.1-5.3c0-0.1,0.1-0.2,0.2-0.2l0,0c0.1,0,0.2,0.1,0.2,0.2l0.1,5.3     C211.4,163.5,211.3,163.6,211.2,163.6L211.2,163.6z"/>
            </g>
            <g class="stHausMainDark2">
                <path d="M183.3,131.5c-0.9,0.3-1.3,1.2-2,1.8c-0.5,0.4-0.9,0.9-1.4,1.3c-0.4,0.5-1,0.8-1.3,1.4c-0.8,1.8,1.6,3.5,3,2     c1.4-1.3,3-3,3.4-3.6c0,0,0,0,0-0.1C186.3,133.1,185,131.1,183.3,131.5z"/>
            </g>
            <g class="stHausMainDark2">
                <path d="M160.4,131.5c-4.4,1.2-5.6,1.5-9.6,1.7c-2.4,0.5-5.8,0.1-7.8-0.2c-2.9-0.6-7-1.9-10-4.1c-1.4-0.9-3.6-2.9-5.3-5     c-0.2-0.3-0.9-1.2-0.4-0.5c-1.4-1.7-3-5-3.5-5.9c-0.3-0.8-0.6-1.7-0.8-2.5c-0.5-2.2-1.2-4.3-1.7-6.4c-0.2-0.6-0.2-1.3-0.8-1.7     c-0.6-0.4-1.6,0-1.7,0.7c-0.2,1.1,0.9,3.8,1.2,5.8c0.4,1.8,0.7,3.5,1.3,5.2c0.8,1.9,1.8,3.8,2.9,5.5c3.7,5.5,8.1,8.7,14.8,11.1     c2.9,1,6,1.3,9.1,1.3c1.7-0.2,1.5-0.2,3.3-0.5c1.6-0.2,4.7-0.6,7.1-1.4c1.4-0.5,1.3-0.5,2.7-0.9c0.3-0.1,0.5-0.3,0.7-0.5     C162.3,132.4,161.4,131.2,160.4,131.5z"/>
            </g>
        </g>
    </g>
    <g>
        <ellipse class="stHausMainDark0" cx="59.5" cy="51.9" rx="24" ry="23.7"/>
        <path d="M59.5,76.2C45.9,76.2,35,65.3,35,51.9s11-24.2,24.5-24.2S84,38.5,84,51.9C84.1,65.3,73,76.2,59.5,76.2z M59.5,28.7   c-13,0-23.5,10.5-23.5,23.2s10.5,23.2,23.5,23.2S83,64.7,83,51.9S72.4,28.7,59.5,28.7z"/>
        <polygon class="stHausMainDark1" points="63,48.5 63.4,40.5 56.4,40.2 56,48.4 48,48.3 47.6,54.7 55.6,55 55.2,63.2 61.7,63.6 62.4,55.5    71.1,55.9 71.4,49  "/>
        <path d="M61.7,64.1L61.7,64.1l-6.6-0.4c-0.4,0-0.5-0.3-0.5-0.6l0.4-7.6l-7.5-0.2c-0.2,0-0.3-0.1-0.4-0.2s-0.2-0.3-0.2-0.4l0.4-6.5   c0-0.3,0.3-0.5,0.6-0.5l7.5,0.1l0.4-7.7c0-0.4,0.3-0.5,0.6-0.5l7,0.4c0.2,0,0.3,0.1,0.4,0.2c0.1,0.1,0.2,0.3,0.2,0.4l-0.4,7.5   l7.9,0.5c0.4,0,0.5,0.3,0.5,0.6L71.6,56c0,0.4-0.3,0.5-0.6,0.5l-8-0.4l-0.6,7.5C62.3,64,62.1,64.1,61.7,64.1z M55.8,62.6l5.4,0.4   l0.6-7.5c0-0.3,0.3-0.5,0.6-0.5l8.1,0.4l0.3-5.7L62.9,49c-0.4,0-0.5-0.3-0.5-0.6l0.4-7.5L57,40.7l-0.4,7.6c0,0.3-0.3,0.5-0.5,0.5   l0,0l-7.5-0.1L48.2,54l7.5,0.2c0.2,0,0.3,0.1,0.4,0.2s0.2,0.3,0.2,0.4L55.8,62.6z"/>
    </g>
    <path d="M34.3,23.6c-2.7,0-4.9-2.2-4.9-4.9s2.2-4.9,4.9-4.9s4.9,2.2,4.9,4.9C39.2,21.3,36.9,23.6,34.3,23.6z M34.3,15.1  c-2,0-3.6,1.6-3.6,3.6s1.6,3.6,3.6,3.6s3.6-1.6,3.6-3.6C37.8,16.7,36.2,15.1,34.3,15.1z"/>
    <path d="M273.4,199.5c-2.7,0-4.9-2.2-4.9-4.9s2.2-4.9,4.9-4.9s4.9,2.2,4.9,4.9C278.2,197.3,276,199.5,273.4,199.5z M273.4,191.1  c-2,0-3.6,1.6-3.6,3.6s1.6,3.6,3.6,3.6s3.6-1.6,3.6-3.6C276.9,192.7,275.2,191.1,273.4,191.1z"/>
    <path d="M304.5,212.6c-2.7,0-4.9-2.2-4.9-4.9s2.2-4.9,4.9-4.9s4.9,2.2,4.9,4.9C309.3,210.4,307.1,212.6,304.5,212.6z M304.5,204.2  c-2,0-3.6,1.6-3.6,3.6s1.6,3.6,3.6,3.6s3.6-1.6,3.6-3.6C308,205.8,306.4,204.2,304.5,204.2z"/>
    </svg>