<svg width="87" height="83" viewBox="0 0 87 83" fill="none" xmlns="http://www.w3.org/2000/svg">
<path d="M54.5573 57.3806L69.0245 71.5506C71.6909 74.1735 74.4421 76.8856 77.3799 79.1866C78.8997 80.3711 80.5385 81.4682 82.2537 81.4699H82.2621C83.1029 81.4699 83.9944 81.0829 84.6397 80.4349C85.2087 79.8551 85.5312 79.1215 85.5228 78.3698C85.5144 76.934 84.4785 75.7224 83.417 74.6049C75.4439 66.198 68.1912 59.0888 59.5472 51.563C58.1888 53.5472 56.1622 55.2272 54.5573 57.3806ZM82.2621 82.9464H82.2537C80.0884 82.9457 78.1949 81.6975 76.4713 80.3491C73.4655 77.9978 70.6805 75.2561 67.9886 72.6034L52.8938 57.8835C52.6305 57.6238 53.3383 57.1819 53.559 56.8856C55.5034 54.3196 57.6178 52.5732 59.2143 50.2322C60.799 51.0513 59.3347 49.9255 59.547 49.8993C59.7506 49.8703 59.7184 49.4287 59.8796 49.567C68.7785 57.2785 76.2929 64.9436 84.4867 73.5886C85.6926 74.8614 86.9832 76.3864 87.0001 78.3605C87.0088 79.5084 86.5416 80.6148 85.684 81.4758C84.7669 82.3971 83.4848 82.9464 82.2621 82.9464Z" fill="white"/>
<path d="M9.21301 32.9054C9.21301 45.9689 19.8352 56.5962 32.9031 56.5962C45.9623 56.5962 56.5932 45.9689 56.5932 32.9054C56.5932 19.8409 45.9623 9.21365 32.9031 9.21365C19.8352 9.21365 9.21301 19.8409 9.21301 32.9054ZM32.9031 58.0746C19.0203 58.0746 7.73537 46.784 7.73537 32.9054C7.73537 19.0267 19.0202 7.73537 32.9031 7.73537C46.7775 7.73537 58.0705 19.0267 58.0705 32.9054C58.0705 46.7839 46.7775 58.0746 32.9031 58.0746ZM32.9031 1.47737C15.5728 1.47737 1.47764 15.5758 1.47764 32.9054C1.47764 50.2348 15.5728 64.3325 32.9031 64.3325C50.2333 64.3325 64.3285 50.2348 64.3285 32.9054C64.3285 15.5758 50.2334 1.47737 32.9031 1.47737ZM32.9031 65.8099C14.7575 65.8099 0 51.049 0 32.9054C0 14.7616 14.7575 0 32.9031 0C51.0483 0 65.8059 14.7616 65.8059 32.9054C65.8059 51.049 51.0484 65.8099 32.9031 65.8099Z" fill="white"/>
<path d="M57.1791 57.7756L57.1112 57.7661C56.9752 57.7288 56.9073 57.5929 56.9413 57.4622L57.5103 55.482C57.5442 55.3513 57.6799 55.2723 57.8072 55.313C57.9432 55.3496 58.0195 55.487 57.9772 55.6169L57.4168 57.5971C57.3828 57.7057 57.2808 57.7755 57.179 57.7755L57.1791 57.7756Z" fill="white"/>
<path d="M59.8878 61.2442L59.8539 61.2425C59.7181 61.2247 59.6248 61.1014 59.6416 60.9664C59.9389 58.6552 60.304 56.3167 60.7202 54.0174C60.7457 53.8823 60.8814 53.7967 61.0088 53.8186C61.1447 53.8434 61.2295 53.9707 61.2126 54.1057C60.7965 56.3973 60.4313 58.7265 60.1256 61.0302C60.1088 61.1541 60.0067 61.2441 59.8878 61.2441V61.2442Z" fill="white"/>
<path d="M63.3947 64.6107C63.2589 64.6107 63.1484 64.5011 63.1484 64.3644C63.1484 63.2062 63.3268 61.2626 63.4881 59.5491C63.5815 58.504 63.6664 57.6014 63.6919 57.0331C63.7004 56.8983 63.8024 56.7818 63.9552 56.7997C64.091 56.8067 64.1928 56.9219 64.1843 57.0579C64.1588 57.6361 64.0739 58.543 63.9805 59.5933C63.8192 61.2974 63.6408 63.2282 63.6408 64.3643C63.6408 64.501 63.5305 64.6106 63.3946 64.6106L63.3947 64.6107Z" fill="white"/>
<path d="M66.9946 67.9274C66.8588 67.9274 66.7483 67.8204 66.7483 67.6863L66.5615 59.4712C66.5615 59.3353 66.6718 59.2224 66.7993 59.219C66.9606 59.2241 67.054 59.3242 67.054 59.4592L67.2407 67.6751C67.2407 67.8111 67.1389 67.924 67.0029 67.9274H66.9945L66.9946 67.9274Z" fill="white"/>
<path d="M70.4167 71.5606C70.2893 71.5606 70.1789 71.4561 70.1704 71.3238L69.8477 62.7207C69.8477 62.5847 69.9497 62.4701 70.0855 62.4651C70.2214 62.4785 70.3401 62.5659 70.3401 62.7019L70.6629 71.3059C70.6713 71.4408 70.5611 71.5555 70.4251 71.5606H70.4167Z" fill="white"/>
<path d="M73.9069 74.6242C73.7711 74.6242 73.6606 74.5223 73.6606 74.3916L73.2192 66.3547C73.2105 66.2189 73.3211 66.1027 73.4568 66.0957C73.6012 66.0772 73.703 66.1927 73.7116 66.3277L74.1446 74.3644C74.153 74.5002 74.0512 74.6166 73.9152 74.6234L73.9068 74.6241L73.9069 74.6242Z" fill="white"/>
<path d="M77.3536 77.4552C77.2262 77.4552 77.1158 77.3567 77.1073 77.2277L76.5044 69.404C76.496 69.2681 76.5978 69.1492 76.7338 69.139C76.8524 69.1262 76.98 69.2298 76.9968 69.3657L77.5997 77.1902C77.6082 77.3251 77.5063 77.4441 77.3704 77.4544L77.3535 77.4551L77.3536 77.4552Z" fill="white"/>
<path d="M80.6148 79.9991C80.4959 79.9991 80.3855 79.905 80.377 79.7776L79.6636 72.9151C79.6552 72.78 79.7486 72.6594 79.8845 72.6459C80.0119 72.6289 80.1477 72.729 80.1563 72.865L80.8611 79.7283C80.8779 79.8633 80.7761 79.9839 80.6401 79.9974L80.6148 79.9991Z" fill="white"/>
<path d="M83.8152 79.634C83.6963 79.634 83.5945 79.5483 83.569 79.427L83.0765 76.3615C83.051 76.2274 83.1444 76.1008 83.2803 76.079C83.4161 76.0551 83.5435 76.1476 83.5605 76.2825L84.0614 79.3487C84.0785 79.4828 83.9851 79.6094 83.8578 79.6306L83.8152 79.634Z" fill="white"/>
<path d="M32.0963 57.3926C31.1708 57.3926 30.2538 57.3187 29.3451 57.1531L29.3196 57.148C27.8507 56.9756 26.3649 56.8014 24.9382 56.3872C22.3231 55.538 19.9711 54.0775 17.7548 52.4786C16.8209 51.7103 15.3434 50.8824 13.1952 48.5491C11.7347 46.7107 10.5204 44.6627 9.612 42.4594C9.24686 41.408 8.97511 40.3757 8.72051 39.3728C8.29592 36.0638 8.23647 32.7294 8.66951 29.4052C8.70345 29.4025 8.7374 29.4019 8.77134 29.4019C9.0007 29.4019 9.22144 29.4543 9.4253 29.547C9.43374 29.5614 9.43374 29.5758 9.44218 29.5903C9.28933 30.6745 9.213 31.7825 9.213 32.9077C9.213 45.9712 19.8352 56.5985 32.9031 56.5985C42.9649 56.5985 51.5834 50.2888 55.0137 41.4174C55.2005 41.1483 55.4128 40.8987 55.659 40.6881C55.8458 40.5759 56.0496 40.5242 56.2619 40.5242C56.4231 40.5242 56.5844 40.5554 56.7288 40.6142C56.3552 41.679 55.973 42.7412 55.5911 43.8034C54.8438 45.3462 53.9438 46.8017 52.9163 48.1508C51.32 49.6547 49.1379 51.3748 46.9981 52.7055C46.5564 53.0366 46.2255 53.2634 45.2914 53.8435C42.9733 55.0679 40.4429 55.8438 37.9041 56.4663C36.6814 56.7948 35.4673 57.166 34.202 57.2704C33.4972 57.3494 32.7925 57.3927 32.0962 57.3927L32.0963 57.3926Z" fill="white"/>
<path d="M54.4873 59.3268C54.309 59.1945 54.1477 59.0346 54.0117 58.8572L54.4873 59.3268Z" fill="#DEDEDE"/>
<path d="M55.7529 59.7547C55.2944 59.7547 54.853 59.5934 54.4879 59.3268L54.0123 58.8572C53.902 58.706 53.8 58.5404 53.7236 58.3664C54.0716 58.0846 54.4113 57.7958 54.7425 57.5004L56.7633 59.4897C56.4237 59.6731 56.0841 59.7547 55.7529 59.7547ZM62.1976 53.9656C61.3996 53.2522 60.6014 52.5441 59.8033 51.8394C59.973 51.5975 60.1429 51.353 60.3042 51.105C60.3213 51.105 60.3382 51.104 60.3552 51.104C60.5249 51.104 60.7117 51.1302 60.9072 51.1856C62.0788 51.4964 62.7157 52.8863 62.1977 53.9656H62.1976Z" fill="white"/>
<path d="M53.7225 58.3665C53.4508 57.7185 53.4847 56.9435 54.0366 56.2674C54.2573 55.8854 54.6735 55.7131 55.0215 55.4709L55.0386 55.4531C56.8048 53.8586 57.1018 53.964 58.1717 52.7174L58.2566 52.6189C58.7577 51.8461 59.4031 51.1296 60.303 51.105C60.1417 51.3529 59.9718 51.5975 59.8021 51.8394C58.3331 53.9153 56.6348 55.8158 54.7413 57.5004C54.4101 57.7957 54.0705 58.0846 53.7225 58.3664V58.3665Z" fill="white"/>
<path d="M57.1791 57.7757L57.1112 57.7662C56.9752 57.7289 56.9073 57.593 56.9413 57.4623L57.5103 55.4821C57.5358 55.3742 57.6376 55.302 57.7394 55.302C57.7649 55.302 57.7904 55.3054 57.8072 55.3131C57.9432 55.3497 58.0195 55.4871 57.9772 55.617L57.4168 57.5972C57.3828 57.7058 57.2808 57.7756 57.179 57.7756L57.1791 57.7757Z" fill="white"/>
<path d="M60.3037 56.4356C60.4397 55.6265 60.5755 54.8199 60.7199 54.0174C60.7454 53.8969 60.8557 53.8152 60.9661 53.8152C60.983 53.8152 61.0001 53.8162 61.0085 53.8185C61.1445 53.8433 61.2292 53.9707 61.2124 54.1056C61.1103 54.6431 61.0169 55.1823 60.9235 55.723C60.7539 55.9219 60.5755 56.1171 60.4055 56.3098C60.3716 56.3522 60.3377 56.3939 60.3037 56.4355V56.4356Z" fill="white"/>
<path d="M25.3541 27.2255L21.5244 30.7969L31.9601 42.3923L43.4993 25.5977L39.2199 22.2004L31.1704 33.5531L25.3541 27.2255Z" fill="#BEE8FF"/>
<path d="M22.561 30.8421L31.8842 41.2011L42.4983 25.748L39.3734 23.2645L31.774 33.9801C31.6467 34.1618 31.4428 34.2765 31.2135 34.2902C30.9928 34.303 30.7805 34.2172 30.6277 34.0524L25.3123 28.2734L22.5612 30.8421H22.561ZM31.9607 43.1311C31.7569 43.1311 31.5532 43.0427 31.4088 42.8865L20.9818 31.2912C20.7101 30.9915 20.727 30.5311 21.0242 30.257L24.8536 26.6856C24.998 26.5515 25.1848 26.4777 25.3887 26.4877C25.5839 26.4955 25.7707 26.5811 25.8982 26.7263L31.0948 32.3806L38.6178 21.7726C38.7367 21.6073 38.9235 21.4975 39.1188 21.4687C39.3226 21.4424 39.5262 21.4959 39.6878 21.6224L43.9586 25.0205C44.2643 25.2617 44.3237 25.6974 44.103 26.0165L32.5721 42.811C32.4448 42.9971 32.2325 43.1151 32.0118 43.1295L31.9608 43.1312L31.9607 43.1311Z" fill="white"/>
<path d="M32.9031 65.8124C32.6908 65.8124 32.487 65.8107 32.2747 65.8064C30.7634 65.7785 29.2773 65.6478 27.8168 65.4201C27.6384 65.3923 27.4516 65.3617 27.2648 65.3301C25.9319 65.0983 24.6158 64.7851 23.342 64.3962C23.1721 64.3445 23.0024 64.2908 22.8325 64.2367C19.9117 63.2948 17.1605 61.9559 14.6642 60.2831C14.0952 59.9052 13.5432 59.5095 13 59.0996C13.2886 58.8685 13.6453 58.7258 14.0528 58.7258C14.0698 58.7258 14.0952 58.7258 14.1122 58.7268C14.1377 58.7258 14.1632 58.7251 14.1801 58.7251C14.9104 58.7251 15.42 59.2693 15.9292 59.7201C16.1755 59.9045 17.0333 60.6288 18.2984 61.3794C21.6863 63.3714 25.8469 64.9099 28.7677 65.2598C29.6679 65.3234 30.8056 65.3532 31.8416 65.3532C33.0898 65.3532 34.1937 65.3099 34.6012 65.2293C34.6183 65.2293 34.6267 65.2283 34.6438 65.2283C35.0684 65.2283 35.4248 65.415 35.6797 65.6962C35.4758 65.714 35.2635 65.7292 35.0512 65.7429C34.3549 65.7886 33.6418 65.8118 32.9285 65.8125C32.9199 65.8125 32.9115 65.8125 32.903 65.8125L32.9031 65.8124Z" fill="white"/>
</svg>
