        <svg width="98" height="52" viewBox="0 0 98 52" fill="none" xmlns="http://www.w3.org/2000/svg">
                                    <path d="M76.7383 40.0608C76.7383 41.0246 75.4672 45.7327 73.7805 45.7327C67.6722 45.2964 70.6301 41.0246 70.6301 40.0608C70.6301 39.0969 71.9975 38.3156 73.6842 38.3156C75.371 38.3156 76.7383 39.0969 76.7383 40.0608Z" fill="#84CDEE" />
                                    <path d="M1.32209 26.5441C1.51178 25.2823 4.12636 19.3728 6.36632 19.7095C14.3921 21.5002 9.62339 26.5018 9.43369 27.7636C9.244 29.0253 7.27437 29.7752 5.03441 29.4385C2.79446 29.1017 1.13239 27.8058 1.32209 26.5441Z" fill="#84CDEE" />
                                    <path d="M32.2355 43.5512C32.2355 44.5151 30.9644 49.2232 29.2777 49.2232C23.1694 48.7869 26.1273 44.5151 26.1273 43.5512C26.1273 42.5874 27.4947 41.806 29.1814 41.806C30.8681 41.806 32.2355 42.5874 32.2355 43.5512Z" fill="#84CDEE" />
                                    <path d="M64.0803 44.4238L64.5718 44.3318L64.568 44.3114L64.5625 44.2915L64.0803 44.4238ZM95.9311 41.9056L96.2847 42.2592L95.9311 41.9056ZM68.8804 18.3453L68.3822 18.388L68.4641 19.3431L69.2005 18.7294L68.8804 18.3453ZM49.6824 0.892219L49.7156 0.393323L49.6824 0.892219ZM26.9954 19.2181L26.4959 19.1963L26.9954 19.2181ZM2.99877 32.743L2.50972 32.639L2.50279 32.6715L2.50024 32.7047L2.99877 32.743ZM29.1762 40.5965L29.3831 41.0516L29.1762 40.5965ZM34.4118 43.6504L33.9135 43.6919L34.4118 43.6504ZM27.5929 45.7327L27.1929 46.0327L27.5929 45.7327ZM73.2427 40.5965L73.4797 40.1562L73.4294 40.1291L73.3742 40.1141L73.2427 40.5965ZM72.8064 47.141L72.6802 46.6572L72.8064 47.141ZM57.9721 25.2622C57.696 25.2622 57.4721 25.486 57.4721 25.7622C57.4721 26.0383 57.696 26.2622 57.9721 26.2622V25.2622ZM63.644 25.7622H64.144V25.2622H63.644V25.7622ZM38.3385 25.2622C38.0624 25.2622 37.8385 25.486 37.8385 25.7622C37.8385 26.0383 38.0624 26.2622 38.3385 26.2622V25.2622ZM43.5741 25.7622L44.0673 25.68L43.9977 25.2622H43.5741V25.7622ZM32.6666 17.9087L33.1409 18.0669L33.146 18.0516L33.1501 18.036L32.6666 17.9087ZM47.9371 19.193L47.9097 19.6923L47.9234 19.693H47.9371V19.193ZM38.7862 45.4605L64.0909 44.9237L64.0697 43.9239L38.7649 44.4608L38.7862 45.4605ZM64.5625 44.2915C64.0675 42.4871 64.5865 40.7255 65.7311 39.257C66.8799 37.7831 68.6419 36.633 70.5475 36.0996C72.4517 35.5665 74.4539 35.6603 76.1111 36.6037C77.7573 37.5407 79.1405 39.3603 79.7333 42.4374L80.7152 42.2482C80.0796 38.9487 78.558 36.8458 76.6058 35.7346C74.6648 34.6297 72.3754 34.5495 70.2779 35.1366C68.1818 35.7233 66.232 36.9876 64.9424 38.6422C63.6484 40.3024 63.0021 42.3835 63.5981 44.5561L64.5625 44.2915ZM79.7264 42.3886C79.9736 45.0772 79.2192 46.9472 77.9931 48.1602C76.7552 49.3848 74.9767 49.9987 73.0794 50.0447C71.1828 50.0907 69.2119 49.5666 67.6359 48.5703C66.0627 47.5758 64.9085 46.1297 64.5718 44.3318L63.5889 44.5158C63.9876 46.6447 65.3483 48.3072 67.1015 49.4155C68.8519 50.5221 71.0188 51.095 73.1036 51.0444C75.1877 50.9939 77.234 50.3178 78.6964 48.8711C80.1704 47.4128 80.9918 45.2301 80.7222 42.297L79.7264 42.3886ZM80.1776 42.8406C82.5141 43.0595 86.1076 43.3005 89.2976 43.3113C90.8911 43.3167 92.3978 43.2648 93.6018 43.1207C94.203 43.0488 94.7428 42.9523 95.1861 42.8232C95.6134 42.6987 96.0182 42.5257 96.2847 42.2592L95.5776 41.5521C95.495 41.6346 95.2926 41.7506 94.9064 41.8631C94.5362 41.9709 94.0561 42.0592 93.483 42.1278C92.3382 42.2648 90.8781 42.3166 89.301 42.3113C86.1502 42.3006 82.5883 42.0621 80.2709 41.845L80.1776 42.8406ZM96.2847 42.2592C96.4663 42.0776 96.5992 41.8229 96.7016 41.5574C96.8077 41.2825 96.8976 40.9517 96.9719 40.5796C97.1207 39.8347 97.2146 38.8852 97.2355 37.8045C97.2772 35.6421 97.0273 32.9098 96.3057 30.1621C94.8679 24.6876 91.5034 18.9911 84.6695 17.8521L84.5051 18.8385C90.7602 19.881 93.9402 25.092 95.3385 30.4161C96.0348 33.0676 96.2757 35.7073 96.2357 37.7852C96.2156 38.8246 96.1254 39.7124 95.9913 40.3837C95.9242 40.7198 95.8479 40.9919 95.7687 41.1974C95.6858 41.4123 95.6141 41.5155 95.5776 41.5521L96.2847 42.2592ZM84.6695 17.8521C79.4095 16.9754 75.6635 16.7892 73.109 16.9188C71.832 16.9836 70.8449 17.1276 70.1112 17.3075C69.3946 17.4831 68.8677 17.705 68.5603 17.9612L69.2005 18.7294C69.3294 18.622 69.6751 18.4439 70.3492 18.2787C71.0062 18.1177 71.9279 17.98 73.1597 17.9175C75.6227 17.7926 79.2938 17.9699 84.5051 18.8385L84.6695 17.8521ZM69.3786 18.3026C69.1504 15.6407 67.5739 11.3986 64.4051 7.71079C61.2232 4.00776 56.4143 0.839207 49.7156 0.393323L49.6491 1.39112C56.0388 1.81643 60.6107 4.82934 63.6467 8.36251C66.6957 11.9109 68.1741 15.9597 68.3822 18.388L69.3786 18.3026ZM49.7156 0.393323C40.8216 -0.198684 35.0944 1.89022 31.5425 5.5019C28.0024 9.10169 26.7165 14.1217 26.4959 19.1963L27.4949 19.2398C27.7106 14.2795 28.9636 9.5505 32.2555 6.20308C35.5358 2.86754 40.9338 0.811 49.6491 1.39112L49.7156 0.393323ZM26.4959 19.1963C26.4974 19.1618 26.5122 19.1111 26.5485 19.068C26.5787 19.0323 26.6012 19.0287 26.578 19.0377C26.5197 19.0602 26.3809 19.0851 26.1176 19.0843C25.6029 19.0827 24.8524 18.9892 23.8796 18.8713C21.9674 18.6396 19.3299 18.3322 16.5478 18.611C13.7605 18.8903 10.8 19.7602 8.25364 21.9027C5.70425 24.0479 3.6184 27.4281 2.50972 32.639L3.48782 32.8471C4.56066 27.8047 6.55328 24.6404 8.89747 22.6679C11.2447 20.6928 13.9928 19.872 16.6475 19.606C19.3073 19.3395 21.845 19.6321 23.7593 19.8641C24.6998 19.9781 25.5254 20.0824 26.1144 20.0843C26.4029 20.0852 26.698 20.0633 26.9384 19.9705C27.0646 19.9217 27.2027 19.8433 27.3127 19.7131C27.4288 19.5755 27.4875 19.4106 27.4949 19.2398L26.4959 19.1963ZM22.2394 43.1523C17.2262 42.7165 13.4303 42.523 10.6455 42.3068C7.81786 42.0872 6.05608 41.8436 4.95088 41.3412C4.41732 41.0987 4.0601 40.8049 3.81122 40.4384C3.55874 40.0666 3.39252 39.5829 3.30342 38.921C3.12145 37.5692 3.27692 35.6463 3.4973 32.7814L2.50024 32.7047C2.28432 35.5117 2.11256 37.5702 2.31236 39.0544C2.41414 39.8105 2.61605 40.4585 2.98394 41.0002C3.35542 41.5472 3.8708 41.9488 4.53708 42.2516C5.83154 42.84 7.77833 43.0872 10.5681 43.3038C13.4007 43.5238 17.131 43.712 22.1528 44.1485L22.2394 43.1523ZM22.685 43.7551C22.9839 42.3594 23.9474 40.8644 25.3074 39.6227C26.6635 38.3844 28.3687 37.44 30.0896 37.1062C31.8004 36.7743 33.5105 37.0459 34.9496 38.2109C36.3994 39.3846 37.6416 41.5198 38.2836 45.0501L39.2675 44.8712C38.6002 41.202 37.2789 38.81 35.5789 37.4337C33.8683 36.0488 31.8425 35.7475 29.8992 36.1245C27.9661 36.4995 26.0991 37.5456 24.6331 38.8842C23.1709 40.2193 22.0623 41.8873 21.7072 43.5457L22.685 43.7551ZM21.6995 43.5919C21.2193 47.6706 24.6958 50.6634 28.6001 51.3427C32.5639 52.0324 37.1793 50.4119 39.2412 45.1428L38.3099 44.7784C36.445 49.5443 32.3341 50.9774 28.7715 50.3575C25.1493 49.7273 22.2995 47.0475 22.6926 43.7089L21.6995 43.5919ZM29.3831 41.0516C30.1252 40.7142 31.2129 40.4774 32.1147 40.7575C32.5513 40.8931 32.9499 41.1504 33.2635 41.5929C33.5809 42.0409 33.8315 42.7082 33.9135 43.6919L34.9101 43.6089C34.8175 42.4983 34.5264 41.6457 34.0794 41.0148C33.6285 40.3784 33.04 39.9977 32.4113 39.8025C31.1825 39.4209 29.8268 39.7514 28.9692 40.1413L29.3831 41.0516ZM33.9135 43.6919C34.0144 44.9024 33.7136 45.5869 33.3025 45.9781C32.8772 46.3827 32.2363 46.5681 31.4759 46.5701C30.7213 46.5722 29.9143 46.392 29.2447 46.1422C28.9115 46.0179 28.6222 45.88 28.3983 45.7464C28.1636 45.6064 28.0384 45.4934 27.9929 45.4327L27.1929 46.0327C27.3549 46.2488 27.6121 46.4419 27.886 46.6052C28.1707 46.775 28.5161 46.9377 28.8952 47.0791C29.6501 47.3608 30.5777 47.5725 31.4786 47.5701C32.3737 47.5677 33.3091 47.3521 33.9918 46.7025C34.6886 46.0395 35.0273 45.0163 34.9101 43.6089L33.9135 43.6919ZM27.9929 45.4327C26.9092 43.9878 27.5212 41.8981 29.3831 41.0516L28.9692 40.1413C26.632 41.2038 25.6587 43.9872 27.1929 46.0327L27.9929 45.4327ZM73.0056 41.0367C73.415 41.2571 73.9181 41.6622 74.3588 42.1748C74.8001 42.688 75.1481 43.2731 75.2909 43.84C75.4302 44.3932 75.3725 44.9096 75.0358 45.3652C74.6863 45.838 73.9837 46.3172 72.6802 46.6572L72.9326 47.6248C74.3521 47.2546 75.3017 46.6879 75.84 45.9595C76.3911 45.2139 76.4566 44.3738 76.2606 43.5957C76.068 42.8312 75.6221 42.1102 75.1171 41.5228C74.6114 40.9348 74.0156 40.4448 73.4797 40.1562L73.0056 41.0367ZM72.6802 46.6572C71.6964 46.9138 71.0466 46.6256 70.6267 46.1238C70.1778 45.5872 69.9447 44.7443 69.9852 43.8542C70.0257 42.966 70.3348 42.1222 70.8563 41.5853C71.3523 41.0747 72.0793 40.7974 73.1111 41.0788L73.3742 40.1141C72.0064 39.741 70.8994 40.1058 70.139 40.8886C69.4042 41.6451 69.0347 42.7459 68.9863 43.8087C68.938 44.8696 69.2058 45.9837 69.8597 46.7654C70.5427 47.5818 71.5977 47.973 72.9326 47.6248L72.6802 46.6572ZM47.4387 23.1842C47.7289 26.8115 48.044 35.514 47.0085 41.3822L47.9932 41.556C49.0519 35.5567 48.7271 26.7489 48.4356 23.1045L47.4387 23.1842ZM63.144 25.7622C63.144 26.1635 63.0821 26.7558 62.9118 27.229C62.7282 27.7389 62.5157 27.88 62.3351 27.88V28.88C63.2016 28.88 63.6436 28.1485 63.8527 27.5677C64.075 26.9501 64.144 26.2335 64.144 25.7622H63.144ZM57.9721 26.2622H60.8081V25.2622H57.9721V26.2622ZM60.8081 26.2622H63.644V25.2622H60.8081V26.2622ZM62.3351 27.88C62.1337 27.88 61.8919 27.7113 61.6633 27.1957C61.4511 26.7171 61.3397 26.1216 61.3063 25.7207L60.3098 25.8037C60.3491 26.2754 60.4777 26.9888 60.7491 27.601C61.0041 28.1761 61.4895 28.88 62.3351 28.88V27.88ZM43.0809 25.8444C43.1484 26.249 43.184 26.8384 43.0941 27.3034C43.049 27.537 42.9807 27.6928 42.9101 27.7807C42.8556 27.8487 42.8006 27.88 42.7015 27.88V28.88C43.126 28.88 43.46 28.6932 43.69 28.4066C43.9039 28.1401 44.0157 27.805 44.0759 27.4932C44.1969 26.8675 44.1453 26.148 44.0673 25.68L43.0809 25.8444ZM38.3385 26.2622H41.3926V25.2622H38.3385V26.2622ZM41.3926 26.2622H43.5741V25.2622H41.3926V26.2622ZM42.7015 27.88C42.5589 27.88 42.4122 27.8132 42.2572 27.6388C42.0982 27.4599 41.9626 27.1999 41.867 26.913C41.7715 26.6266 41.729 26.3532 41.729 26.1712C41.729 26.0742 41.7413 26.0419 41.7371 26.0527C41.7346 26.0594 41.7165 26.1062 41.663 26.1564C41.5998 26.2156 41.5043 26.2622 41.3926 26.2622V25.2622C41.023 25.2622 40.8561 25.5564 40.8027 25.6967C40.744 25.8506 40.729 26.0228 40.729 26.1712C40.729 26.4801 40.7956 26.8611 40.9183 27.2292C41.0408 27.5967 41.2324 27.9912 41.5098 28.3031C41.791 28.6195 42.1897 28.88 42.7015 28.88V27.88ZM11.4142 20.919C12.0232 21.3997 12.5605 22.1616 12.8525 23.025C13.1436 23.886 13.1783 24.8084 12.843 25.6272C12.1923 27.2161 9.96523 28.7501 4.34528 28.3178L4.26858 29.3148C9.99249 29.7551 12.8556 28.235 13.7684 26.0062C14.2147 24.9162 14.1495 23.7389 13.7998 22.7047C13.4509 21.6729 12.8066 20.7441 12.0339 20.1341L11.4142 20.919ZM64.5654 17.7875C64.1004 15.9274 62.2932 12.7956 59.6308 10.1885C56.9628 7.57593 53.3426 5.39949 49.2183 5.62861L49.2738 6.62708C53.0029 6.4199 56.3636 8.3887 58.9312 10.903C61.5044 13.4229 63.1877 16.3997 63.5953 18.03L64.5654 17.7875ZM49.2183 5.62861C45.2407 5.8496 41.5473 6.73542 38.5593 8.65242C35.5585 10.5777 33.3042 13.5212 32.183 17.7815L33.1501 18.036C34.2105 14.0066 36.3192 11.2778 39.0993 9.49409C41.8924 7.70215 45.398 6.8424 49.2738 6.62708L49.2183 5.62861ZM32.1922 17.7506C32.1101 17.9969 32.1608 18.2415 32.3038 18.4338C32.4265 18.5989 32.601 18.7059 32.7553 18.779C33.069 18.9277 33.5099 19.0319 34.0069 19.1123C35.0169 19.2755 36.4452 19.3672 38.0345 19.4268C41.2559 19.5478 45.1221 19.5391 47.9097 19.6923L47.9646 18.6938C45.1923 18.5415 41.205 18.5452 38.072 18.4276C36.4842 18.3679 35.1101 18.2776 34.1665 18.1251C33.6866 18.0475 33.3629 17.9604 33.1835 17.8754C33.0913 17.8317 33.0871 17.8113 33.1064 17.8372C33.1459 17.8905 33.1685 17.9842 33.1409 18.0669L32.1922 17.7506ZM47.9371 19.693C51.8426 19.693 56.0127 19.7977 59.1308 19.6891C60.6871 19.6349 62.0231 19.5268 62.9529 19.3153C63.4102 19.2112 63.8254 19.0705 64.1209 18.8602C64.2734 18.7517 64.4185 18.6075 64.5083 18.4158C64.6024 18.2147 64.6181 17.9982 64.5654 17.7875L63.5953 18.03C63.5958 18.0321 63.5932 18.0119 63.6027 17.9917C63.6077 17.981 63.6015 18.0024 63.5411 18.0454C63.4108 18.1382 63.1536 18.2441 62.731 18.3402C61.9009 18.5291 60.647 18.6357 59.096 18.6897C55.9994 18.7976 51.8851 18.693 47.9371 18.693V19.693ZM48.7485 6.078L47.4396 19.1432L48.4347 19.2429L49.7436 6.17769L48.7485 6.078Z" fill="black" />
                                </svg>