<svg viewBox="0 0 540 407" fill="none" xmlns="http://www.w3.org/2000/svg">
    <path d="M170.559 277.355C182.228 277.355 194.511 272.442 203.519 263.229C214.778 251.765 221.534 234.773 223.581 213.278C224.605 201.404 223.786 192.396 221.125 184.412C219.487 179.909 217.235 175.609 214.983 171.72C213.345 168.854 211.708 165.783 210.479 162.712C201.062 141.217 204.952 117.265 210.479 90.2417C210.479 89.8323 210.275 89.4228 209.865 89.2181C209.456 89.0134 208.842 89.2181 208.637 89.4228C186.732 117.06 166.26 149.405 148.04 185.641C141.08 199.562 134.119 214.711 133.096 230.884C132.072 248.899 139.851 265.276 152.749 272.851C158.071 275.922 164.213 277.355 170.559 277.355ZM207.613 93.9266C202.495 119.516 199.425 142.445 208.637 163.531C210.07 166.602 211.708 169.673 213.345 172.743C215.597 176.838 217.849 180.932 219.282 185.231C221.944 192.806 222.762 201.609 221.534 213.278C219.692 234.569 213.141 250.946 202.086 262.001C188.779 275.512 168.103 279.607 153.772 271.213C141.489 264.048 134.119 248.285 135.143 231.088C135.962 215.12 142.922 200.38 149.883 186.664C167.284 151.862 186.732 120.745 207.613 93.9266Z" fill="black"/>
    <path d="M209.469 89.8325C204.556 114.194 199.643 140.193 209.674 162.917C212.949 170.287 217.658 177.043 220.319 184.617C223.39 193.625 223.595 203.452 222.776 213.073C221.138 231.089 215.815 249.513 203.123 262.411C190.43 275.308 169.344 281.04 153.581 271.828C139.865 263.844 133.518 246.647 134.542 230.884C135.361 215.121 142.117 200.176 149.282 186.05C166.274 151.862 186.131 119.312 209.469 89.8325Z" fill="#BEE8FF"/>
    <path d="M303.627 172.675C289.626 192.013 280.188 252.989 274.001 256.745C269.342 259.492 228.428 238.234 199.364 224.291C184.035 216.859 156.441 215.111 153.286 227.946C147.003 253.158 267.728 313.876 299.334 309.903C314.68 307.889 316.528 246.549 325.58 198.115C327.712 187.053 340.76 182.058 351.115 177.635C373.147 168.135 377.479 164.726 376.505 161.091C375.605 157.735 355.046 167.14 347.858 167.718C360.062 158.453 379.987 148.918 376.333 142.553C373.913 138.556 360.623 152.158 345.133 158.107C358.205 142.016 377.147 136.641 373.241 129.894C370.167 124.573 351.903 143.105 341.222 146.866C346.489 138.561 365.733 128.159 361.922 122.886C359.399 119.066 345.408 130.608 341.001 133.737C334.377 138.659 330.979 143.316 323.346 146.71C322.544 138.683 327.828 120.932 323.204 121.571C318.402 122.108 317.364 127.182 313.2 138.489C309.65 148.732 308.329 166.17 303.627 172.675Z" fill="white"/>
    <path d="M306.896 304.577C313.243 293.585 316.449 269.197 320.1 241.993C321.994 227.248 324.092 212.149 326.593 197.991C328.39 187.918 339.863 183.196 349.938 178.848L351.541 178.118C373.014 168.768 378.642 165.162 377.545 160.51C377.395 159.951 377.143 159.569 376.611 159.262C374.661 158.136 369.422 159.839 361.183 162.646C358.181 163.75 355.003 164.752 352.486 165.426C354.88 163.736 357.452 162.147 360.024 160.559C371 153.422 380.55 147.116 377.476 141.795C377.149 141.134 376.617 140.827 375.983 140.697C373.725 140.103 369.905 142.625 364.277 146.231C359.973 149.183 354.727 152.537 349.257 155.052C354.537 149.59 360.192 145.527 364.981 142.146C372.062 137.252 377.056 133.516 374.663 129.061C374.336 128.4 373.729 127.813 372.815 127.758C369.822 127.211 364.855 130.49 356.908 136.067C352.883 138.944 348.756 141.998 345.066 143.886C347.413 141.459 350.217 139.059 353.3 136.584C360.156 130.85 366.044 125.976 363.446 121.876C363.119 121.214 362.41 120.805 361.496 120.75C357.588 120.149 349.716 126.005 342.505 131.534C342.021 131.963 341.359 132.29 340.875 132.72C338.76 134.335 336.823 136.054 335.09 137.417C331.802 140.246 328.895 142.823 324.646 144.861C324.633 142.017 325.235 138.109 325.734 134.379C326.629 127.095 327.183 122.451 325.54 120.793C325.111 120.309 324.299 120.077 323.563 120.124C318.938 120.764 317.321 124.794 314.542 132.882C314.003 134.225 313.539 135.848 312.795 137.546C311.252 141.856 309.907 147.462 308.841 152.993C307.209 160.324 305.753 167.757 303.147 171.453C295.15 182.438 288.54 206.988 283.323 226.67C279.861 240.036 276.092 253.934 273.725 255.168C273.064 255.495 269.94 255.583 254.303 248.683C243.761 244.014 230.307 237.429 217.385 231.15C211.329 228.127 205.628 225.308 200.003 222.769C188.676 217.412 170.051 214.459 159.39 219.414C155.522 221.2 153.352 223.729 152.499 227.255C151.413 231.593 153.648 237.138 159.409 243.537C184.573 272.013 272.499 313.794 299.583 310.283C302.325 310.448 304.747 308.3 306.896 304.577ZM326.568 192.303C325.646 193.899 324.902 195.597 324.69 197.602C322.087 211.937 319.989 227.036 318.095 241.781C313.678 275.635 309.473 307.484 299.311 308.708C287.293 310.28 260.54 302.162 229.779 287.475C198.841 272.686 172.357 255.504 160.76 242.426C155.606 236.613 153.241 231.702 154.197 227.999C154.818 225.285 156.783 223.11 159.989 221.651C169.709 217.099 187.802 219.744 198.774 224.897C204.12 227.51 209.999 230.431 215.979 233.175C249.474 249.677 270.252 259.546 274.25 257.126C277.101 255.462 279.914 245.267 284.742 227.489C289.856 207.984 296.364 183.611 304.156 172.981L303.372 172.292L304.156 172.981C306.967 168.931 308.599 161.6 310.259 153.812C311.4 148.56 312.568 142.852 314.008 138.72C314.752 137.022 315.217 135.399 315.756 134.055C318.814 125.893 319.995 123.028 323.323 122.586C323.5 122.689 323.5 122.689 323.5 122.689C324.537 123.76 323.798 129.952 323.067 134.494C322.438 138.859 321.782 143.68 322.047 146.906C322.122 147.186 322.197 147.466 322.551 147.671C322.906 147.875 323.185 147.8 323.465 147.725C328.833 145.388 332.122 142.558 335.614 139.375C337.45 137.834 339.107 136.191 341.222 134.575C341.604 134.323 342.089 133.893 342.853 133.389C347.082 130.157 356.892 122.583 360.166 123.055C360.445 122.98 360.52 123.26 360.697 123.362C362.388 125.756 356.398 130.808 350.995 135.253C346.561 138.839 342.202 142.705 339.875 146.326C339.67 146.68 339.643 147.137 339.895 147.519C340.147 147.901 340.604 147.929 341.061 147.956C345.74 146.403 351.498 142.162 357.153 138.099C362.808 134.036 369.125 129.646 371.485 130.063C371.662 130.165 371.839 130.268 372.017 130.37C373.503 133.119 370.037 135.846 362.956 140.741C357.301 144.804 350.015 150.053 343.888 157.389C343.684 157.744 343.656 158.201 343.908 158.583C344.161 158.965 344.618 158.992 345.075 159.02C352.4 156.158 359.174 151.795 364.625 148.086C369.106 145.237 373.309 142.463 374.754 142.824C374.932 142.927 374.932 142.927 375.109 143.029C377.277 146.645 367.167 153.1 358.278 159.078C354.458 161.601 350.359 164.198 346.893 166.925C346.511 167.177 346.484 167.634 346.456 168.091C346.429 168.548 347.063 168.678 347.52 168.705C350.746 168.44 356.087 166.56 361.325 164.856C366.284 163.228 373.685 160.645 375.205 161.287C375.777 163.981 371.902 167.417 350.355 176.488L348.752 177.217C340.839 180.686 330.867 184.857 326.568 192.303Z" fill="black"/>
    <path d="M272.368 274.714C272.47 274.537 272.47 274.537 272.395 274.257C272.881 267.683 275.722 257.031 277.906 251.2C278.213 250.668 277.886 250.007 277.252 249.877C276.72 249.57 276.059 249.897 275.929 250.531C273.567 256.259 270.699 267.368 270.11 274.12C270.083 274.577 270.513 275.061 271.147 275.191C271.781 275.321 272.163 275.069 272.368 274.714Z" fill="black"/>
    <path d="M71.2682 281.859C74.339 281.859 75.5673 280.222 76.7956 277.765C78.0239 275.308 79.457 272.442 86.2127 271.419C100.338 269.167 114.259 261.387 125.314 249.514C134.526 239.687 142.101 226.995 148.652 210.822C157.045 190.35 159.297 174.177 155.817 159.642C151.927 143.265 136.983 126.682 116.921 128.32C116.306 128.32 115.897 128.73 115.897 129.344C116.306 146.745 105.661 163.122 90.3071 168.445C85.5986 170.083 80.2759 170.697 75.3626 171.311C71.2682 171.721 67.1739 172.335 63.0795 173.358C54.0718 175.815 44.2453 182.775 44.0406 192.807C44.0406 193.625 44.0406 194.444 44.2453 195.468C44.6548 202.224 45.2689 213.279 29.7103 220.239C23.9781 222.696 20.7027 229.247 21.1121 237.231C21.7263 250.947 33.8047 270.6 65.5361 280.836C67.9927 281.45 69.8352 281.859 71.2682 281.859ZM119.582 129.753C137.188 129.753 150.29 144.698 153.77 159.642C157.045 173.768 154.998 189.531 146.81 209.594C140.258 225.562 132.684 238.049 123.881 247.671C113.031 259.34 99.5195 266.915 85.8033 268.962C78.2287 270.19 76.3862 273.875 74.9532 276.537C73.5201 279.198 72.906 280.631 66.1503 278.584C35.4424 268.553 23.7734 249.718 23.1593 236.616C22.7498 229.451 25.6159 223.719 30.5292 221.672C47.3161 214.302 46.702 202.224 46.2925 194.854C46.2925 193.83 46.0878 193.011 46.2925 192.192C46.2925 183.39 55.3002 176.839 63.6936 174.791C67.5833 173.768 71.6777 173.358 75.772 172.744C80.89 172.13 86.2127 171.516 91.126 169.673C106.889 164.146 117.944 147.359 117.944 129.548C118.558 129.753 119.172 129.753 119.582 129.753Z" fill="black"/>
    <path d="M117.132 128.933C117.541 145.925 107.101 163.531 90.9278 169.058C82.1249 172.129 72.5031 171.72 63.4954 173.972C54.4878 176.224 45.2755 183.184 45.2755 192.396C45.2755 198.538 48.7557 212.664 30.331 220.852C14.9771 227.608 18.662 264.253 65.9521 279.607C80.4871 284.315 71.0701 272.441 86.2193 270.19C101.164 267.938 114.47 259.544 124.911 248.489C135.147 237.435 142.517 223.923 148.044 210.002C154.595 194.034 159.099 176.224 155.005 159.437C150.91 142.65 135.966 127.5 117.132 128.933Z" fill="#BEE8FF"/>
    <path d="M99.9372 305.401C89.2918 310.519 68.4105 323.417 57.7651 329.149C51.2141 332.834 52.6471 331.81 55.7179 326.283C66.568 308.063 111.401 215.735 80.2841 210.821C41.1828 204.475 -12.6582 353.101 2.69569 385.242C8.83727 397.934 41.797 398.753 104.032 341.227C112.22 333.653 123.48 332.629 133.921 332.629C141.495 332.629 149.274 333.857 156.849 331.605C157.463 331.401 158.282 331.196 158.692 330.582C160.329 328.739 160.125 326.488 153.164 325.873C147.841 325.464 141.29 324.85 135.763 322.803C142.723 322.188 151.117 320.141 157.873 319.732C161.148 319.527 165.243 318.708 167.085 315.637C167.494 315.023 167.699 314.409 167.494 313.795C167.29 312.567 165.857 312.362 164.628 312.157C156.235 311.748 146.204 313.59 137.81 313.181C155.621 303.968 173.227 306.425 173.227 299.055C173.227 293.323 150.093 302.74 139.653 301.921C147.637 296.599 167.699 294.756 167.29 288.615C166.88 284.315 150.503 289.024 145.59 290.457C138.015 292.299 133.102 295.166 125.527 295.166C128.393 287.796 144.975 275.717 141.495 273.67C135.968 270.395 126.755 281.04 119.795 286.977C111.401 293.937 103.622 303.559 99.9372 305.401Z" fill="white"/>
    <path d="M174.867 211.435C174.458 198.537 174.458 193.215 175.891 178.475C170.773 175.814 165.041 173.971 159.308 173.152C156.647 172.743 153.781 172.538 151.734 174.176C150.505 175.199 149.891 176.632 149.277 178.065C144.978 187.892 139.041 199.561 134.947 209.592C134.537 210.411 136.175 209.387 136.175 210.206C136.175 211.435 131.057 223.308 131.876 224.332C140.679 233.34 167.292 287.181 174.867 211.435Z" fill="white"/>
    <path d="M159.094 252.379C159.708 252.379 160.527 252.379 161.141 252.174C168.511 250.127 173.424 237.025 176.086 211.64C176.086 211.64 176.086 211.64 176.086 211.435C175.676 198.333 175.676 193.215 177.109 178.475C177.109 178.066 176.905 177.656 176.495 177.451C171.173 174.79 165.44 172.948 159.504 171.924C156.842 171.515 153.567 171.31 151.315 173.152C149.882 174.381 149.063 176.018 148.449 177.451C146.402 182.365 143.74 187.892 141.284 193.215C138.827 198.538 136.166 204.065 134.118 208.978C133.914 209.592 134.118 210.002 134.323 210.207C134.528 210.411 134.937 210.616 135.142 210.616C134.733 211.64 134.118 213.277 133.709 214.71C130.843 222.285 130.433 223.923 131.252 224.742C132.685 226.175 134.528 228.836 136.575 231.907C142.717 240.505 151.11 252.379 159.094 252.379ZM174.039 211.435C171.582 235.387 167.078 248.489 160.732 250.127C153.567 251.969 144.354 239.277 138.213 230.678C136.166 227.608 134.323 225.151 132.89 223.513C132.89 222.285 134.528 217.986 135.551 215.529C136.984 211.844 137.394 210.616 137.394 210.002C137.394 209.592 137.189 209.183 136.984 208.978L136.78 208.773C138.827 204.065 141.284 199.152 143.535 194.238C145.992 188.916 148.653 183.388 150.701 178.475C151.315 177.247 151.929 175.814 152.953 174.995C154.795 173.562 157.456 173.767 159.708 174.176C165.236 174.995 170.354 176.633 175.472 179.089C173.629 193.215 173.424 198.538 174.039 211.435Z" fill="black"/>
    <path d="M214.985 95.7681C213.347 107.847 210.89 120.334 214.166 132.208C215.804 138.759 215.599 171.719 189.19 181.136C175.269 186.049 159.301 185.026 144.766 176.427C134.94 170.491 123.066 152.066 125.523 133.846C117.539 136.098 109.555 130.57 109.35 123.405C109.35 119.311 113.854 113.988 118.767 114.193C122.452 114.398 123.066 114.398 125.932 116.649C127.979 108.051 129.003 99.453 129.003 89.4218C138.215 79.3906 152.955 74.0679 167.695 72.0207C172.608 71.2018 177.521 70.7924 182.434 71.4065C196.355 73.249 216.623 83.485 214.985 95.7681Z" fill="white"/>
    <path d="M172.006 185.23C177.943 185.23 183.675 184.207 189.612 182.16C216.225 172.743 217.249 139.988 215.202 132.004C212.54 121.768 213.973 110.918 215.611 100.272C215.816 98.8391 216.021 97.4061 216.225 95.973C216.635 92.4928 215.611 89.0126 212.95 85.7371C206.604 77.5483 192.478 71.8162 182.651 70.5879C177.124 69.9737 171.801 70.5879 167.502 71.202C155.424 73.0445 138.637 77.5483 128.196 89.0126C127.991 89.2173 127.991 89.422 127.991 89.6267C128.196 98.0202 127.377 106.209 125.33 115.012C123.283 113.579 122.259 113.579 118.984 113.374C116.527 113.169 114.071 114.398 112.023 116.24C109.976 118.287 108.543 121.153 108.543 123.405C108.543 126.886 110.386 130.366 113.456 132.618C116.527 134.87 120.622 135.893 124.511 135.279C122.874 153.909 134.747 171.514 144.369 177.451C152.967 182.569 162.384 185.23 172.006 185.23ZM177.533 72.2256C179.171 72.2256 180.604 72.2256 182.242 72.4304C191.864 73.6587 205.375 79.1861 211.312 86.7607C213.564 89.6267 214.588 92.6975 214.178 95.5636C213.973 96.9966 213.769 98.4297 213.564 99.8627C212.131 110.508 210.493 121.768 213.359 132.413C214.588 136.917 216.021 170.695 188.998 180.113C174.463 185.23 159.109 183.593 145.597 175.404C136.385 169.877 124.511 151.861 126.763 133.846C126.763 133.437 126.763 133.232 126.354 133.027C126.149 132.822 125.74 132.822 125.33 132.822C121.645 133.846 117.551 133.232 114.48 130.775C112.023 128.933 110.386 126.067 110.386 123.201C110.386 121.358 111.409 119.106 113.252 117.469C114.889 115.831 116.937 115.012 118.779 115.012C122.464 115.217 122.669 115.217 125.33 117.264C125.535 117.469 125.944 117.469 126.354 117.469C126.763 117.264 126.968 117.059 126.968 116.65C129.22 107.233 130.039 98.6344 130.039 89.6267C140.07 78.7766 156.038 74.4775 167.707 72.8398C170.573 72.6351 173.849 72.2256 177.533 72.2256Z" fill="black"/>
    <path d="M156.645 141.421C165.243 141.421 172.817 134.256 174.25 124.634C174.865 119.721 173.841 114.603 170.975 110.713C168.109 106.619 164.219 104.162 159.511 103.548C155.007 102.934 150.298 104.367 146.613 107.437C142.928 110.508 140.677 115.012 139.858 120.13C139.244 125.043 140.267 130.161 143.133 134.051C145.999 138.145 149.889 140.602 154.597 141.216C155.416 141.421 156.03 141.421 156.645 141.421ZM157.464 105.39C158.078 105.39 158.692 105.39 159.306 105.595C163.4 106.209 166.881 108.256 169.337 111.941C171.794 115.421 172.817 119.925 172.203 124.429C170.975 133.641 163.196 140.397 155.007 139.374C150.912 138.759 147.432 136.712 144.976 133.027C142.519 129.547 141.495 125.043 142.11 120.539C142.724 116.036 144.771 111.941 148.046 109.075C150.708 106.619 154.188 105.39 157.464 105.39Z" fill="black"/>
    <path d="M204.741 143.47C213.339 143.47 220.914 136.304 222.347 126.683C223.78 116.242 217.024 106.825 207.607 105.597C198.19 104.368 189.387 111.738 188.159 122.179C186.726 132.619 193.482 142.037 202.899 143.265C203.308 143.47 203.922 143.47 204.741 143.47ZM205.56 107.644C206.174 107.644 206.788 107.644 207.403 107.848C215.796 108.872 221.528 117.266 220.3 126.683C219.072 135.895 211.292 142.651 203.104 141.627C194.71 140.604 188.978 132.21 190.206 122.793C191.025 113.99 197.781 107.644 205.56 107.644Z" fill="black"/>
    <path d="M114.877 22.6846C119.791 6.51183 136.782 -2.4958 152.955 2.41745C169.128 7.33071 178.135 24.3224 173.222 40.4952C168.309 56.668 151.317 65.6756 135.144 60.7624C119.176 55.8491 109.964 38.8574 114.877 22.6846Z" fill="#BEE8FF"/>
    <path d="M144.169 63.0139C157.681 63.0139 170.168 54.2109 174.263 40.6995C179.381 24.1173 169.964 6.51144 153.177 1.39347C136.594 -3.7245 118.989 5.69257 113.871 22.4795C108.753 39.0618 118.17 56.6676 134.957 61.7856C138.028 62.6044 141.098 63.0139 144.169 63.0139ZM144.169 2.00763C147.035 2.00763 149.901 2.41706 152.767 3.23594C168.326 7.94447 177.129 24.5267 172.42 40.0853C167.712 55.644 151.13 64.4469 135.571 59.7384C120.012 55.0298 111.209 38.4476 115.918 22.889C119.808 10.1964 131.477 2.00763 144.169 2.00763Z" fill="black"/>
    <path d="M126.953 117.879C134.733 105.8 139.441 97.2023 142.102 82.6672C170.763 99.6589 197.991 96.5881 225.423 95.5645C226.037 90.856 225.014 86.1475 223.171 81.6436C218.463 70.7935 212.526 61.3765 195.943 54.0066C184.274 48.8886 168.716 45.4084 156.228 47.2509C143.74 49.0933 133.095 55.8491 124.292 63.8331C117.331 70.1794 111.395 80.8248 109.347 91.2654C107.505 100.273 109.757 106.824 113.851 115.832C116.103 114.603 118.15 113.375 120.812 113.989C123.064 114.603 124.906 116.036 126.953 117.879Z" fill="#BEE8FF"/>
    <path d="M126.967 118.902C126.967 118.902 127.172 118.902 126.967 118.902C127.376 118.902 127.581 118.697 127.786 118.492C134.746 107.642 140.069 98.8391 142.73 84.304C168.73 99.2485 193.91 98.0202 218.272 96.9966C220.524 96.7919 222.98 96.7919 225.232 96.7919C225.642 96.7919 226.051 96.3824 226.256 95.973C226.87 91.4692 226.051 86.5559 223.799 81.6427C219.5 71.8162 213.768 61.3755 196.162 53.5962C185.721 48.8876 169.753 44.7933 155.832 46.6357C144.573 48.2735 133.723 54.0056 123.282 63.6274C115.912 70.3831 110.18 81.0285 108.133 91.6739C106.29 101.296 108.952 108.461 112.637 116.854C112.841 117.059 113.046 117.264 113.251 117.468C113.456 117.468 113.865 117.468 114.07 117.468L114.274 117.264C116.322 116.24 118.164 115.217 120.211 115.626C122.668 116.035 124.306 117.468 126.148 119.106C126.558 118.902 126.762 118.902 126.967 118.902ZM142.116 81.6427C141.912 81.6427 141.912 81.6427 141.707 81.6427C141.502 81.8474 141.093 82.0521 141.093 82.4615C138.636 96.9966 133.518 105.799 126.762 116.445C124.92 114.807 123.282 113.579 120.621 113.169C118.164 112.76 115.912 113.579 113.865 114.602C109.975 105.595 108.338 99.6579 109.975 91.4692C112.023 81.4379 117.755 70.9973 124.51 64.651C134.542 55.2339 145.187 49.9112 155.832 48.2735C169.344 46.2263 184.903 50.5254 195.138 55.0292C212.13 62.6038 217.658 72.635 221.752 82.0521C223.594 86.3512 224.413 90.6503 224.004 94.54C221.957 94.54 219.909 94.7447 217.862 94.7447C193.501 95.7683 168.116 96.9966 142.116 81.6427C142.321 81.6427 142.526 81.6427 142.116 81.6427Z" fill="black"/>
    <path d="M168.516 163.735C170.563 163.735 172.406 163.121 174.044 161.893C174.453 161.483 174.453 160.869 174.248 160.46C173.839 160.05 173.225 160.05 172.815 160.255C170.768 161.893 167.902 162.098 165.036 160.869C161.76 159.436 159.099 156.775 157.461 153.499C157.257 153.09 156.643 152.681 156.028 153.09C155.619 153.295 155.209 153.909 155.619 154.523C157.461 158.413 160.532 161.483 164.217 162.917C165.445 163.531 167.083 163.735 168.516 163.735Z" fill="black"/>
    <path d="M154.062 121.769C154.267 120.336 155.7 119.312 157.338 119.517C158.975 119.722 159.999 121.155 159.794 122.588C159.59 124.021 158.157 125.044 156.519 124.839C154.881 124.635 153.858 123.406 154.062 121.769Z" fill="black"/>
    <path d="M196.242 124.634C196.447 123.201 197.88 122.177 199.517 122.382C201.155 122.587 202.179 124.02 201.974 125.453C201.769 126.886 200.336 127.909 198.699 127.705C197.061 127.5 196.037 126.067 196.242 124.634Z" fill="black"/>
    <path d="M185.1 145.925C185.305 145.925 185.305 145.925 185.509 145.925L189.399 144.492C189.809 144.287 190.832 143.878 191.037 143.059C191.446 142.035 190.832 141.012 190.423 140.602C187.557 136.713 186.533 131.595 187.761 126.886C187.966 126.272 187.557 125.863 187.147 125.658C186.533 125.453 186.124 125.863 185.919 126.272C184.486 131.39 185.509 137.327 188.785 141.626C188.785 141.831 189.194 142.035 189.194 142.24C189.194 142.24 188.99 142.445 188.58 142.445L184.691 143.878C184.076 144.083 183.872 144.697 184.076 145.106C184.281 145.72 184.691 145.925 185.1 145.925Z" fill="black"/>
    <path d="M189.398 120.336C190.012 120.336 190.422 119.926 190.422 119.312C190.422 116.651 187.965 114.808 185.304 114.194C181.005 113.171 176.296 114.194 173.021 117.06C172.611 117.47 172.611 118.084 173.021 118.493C173.43 118.903 174.044 118.903 174.454 118.493C177.115 116.037 181.21 115.218 184.894 116.037C186.737 116.446 188.579 117.674 188.579 119.312C188.375 119.926 188.784 120.336 189.398 120.336Z" fill="black"/>
    <path d="M128.388 118.084L141.695 117.674C142.309 117.674 142.719 117.265 142.719 116.651C142.719 116.036 142.309 115.627 141.695 115.627L128.388 116.036C127.774 116.036 127.365 116.446 127.365 117.06C127.365 117.674 127.774 118.084 128.388 118.084Z" fill="black"/>
    <path d="M125.727 127.911C126.342 127.911 126.751 127.501 126.751 126.887C126.751 123.407 127.365 119.927 128.798 116.856C129.003 116.446 128.798 115.832 128.184 115.628C127.775 115.423 127.16 115.628 126.956 116.242C125.523 119.722 124.704 123.407 124.704 127.092C124.704 127.501 125.113 127.911 125.727 127.911Z" fill="black"/>
    <path d="M212.736 97.6106C212.326 96.7917 211.302 96.1775 210.279 96.1775C209.869 96.1775 208.027 96.3823 207.618 96.3823C204.752 96.587 202.09 96.7917 199.224 96.7917C193.901 96.587 188.374 96.7917 183.051 96.1775C176.5 95.5634 170.768 94.3351 163.398 92.4926C156.847 90.4454 152.139 87.9888 145.792 83.6897C144.769 83.0755 143.541 81.8472 142.312 82.2567C140.674 82.6661 140.265 85.1227 141.698 85.9416C148.659 90.4454 155.824 95.154 163.808 97.4059C168.516 98.8389 173.225 99.8625 178.138 100.681C182.028 101.091 185.917 101.296 189.807 101.705C195.744 101.91 201.681 102.319 207.618 101.91C208.641 101.91 209.46 101.705 210.484 101.705C211.098 101.705 211.712 101.5 212.121 101.091C212.94 100.272 213.35 98.6342 212.736 97.6106Z" fill="black"/>
    <path d="M174.858 200.789C174.858 199.766 174.858 198.742 174.858 197.718C174.858 195.671 174.858 193.829 175.062 191.782C175.062 189.939 175.267 188.097 175.267 186.254C175.267 186.049 175.267 185.845 175.472 185.845C175.472 185.64 175.472 185.64 175.472 185.435C175.472 185.026 175.676 184.821 176.086 184.616C175.062 183.388 173.22 184.002 171.787 184.207C170.763 184.412 169.535 184.412 167.283 184.412C165.441 184.412 160.323 182.979 158.685 182.979C158.071 182.979 157.661 183.183 157.252 183.593C156.433 182.979 155.614 182.365 155 181.546C154.59 181.136 153.976 180.727 153.567 180.317C152.134 179.908 150.701 179.498 149.472 178.884C149.472 179.089 149.472 179.294 149.268 179.294C149.268 179.498 149.063 179.703 149.063 179.908C149.063 180.113 148.858 180.113 148.858 180.317C148.449 180.727 148.039 181.341 147.835 181.75C147.835 181.955 148.039 181.955 148.039 182.16C152.339 186.459 157.047 190.349 161.346 194.648C163.393 196.9 165.645 198.947 167.692 201.199C168.716 202.018 169.535 203.041 170.763 203.655C170.763 203.655 170.763 203.655 170.968 203.655C170.968 203.655 171.173 203.655 171.173 203.86C171.377 203.86 171.377 204.065 171.582 204.065C171.787 204.065 171.992 204.269 172.401 204.269C173.425 204.269 174.243 203.86 174.653 203.041C174.858 202.836 175.062 202.836 175.267 202.632C174.858 201.813 174.858 201.403 174.858 200.789Z" fill="black"/>
    <path d="M67.9984 406.532C94.2024 406.532 139.036 406.327 161.964 406.327C169.13 406.327 173.838 406.327 174.862 406.327C175.476 406.327 175.885 405.918 175.885 405.304C175.885 403.052 176.909 391.792 177.318 385.037C177.523 382.375 177.728 380.328 177.728 379.509C180.389 362.722 190.216 350.644 197.995 341.227C202.294 336.109 205.979 331.605 207.617 327.306C211.711 317.07 210.687 308.881 209.254 297.622C207.412 283.086 204.955 263.229 210.688 225.56C210.688 225.151 210.687 224.946 210.278 224.742C203.932 219.009 188.578 213.073 178.547 209.183C177.318 208.774 176.09 208.159 175.066 207.75C174.657 207.545 174.452 207.75 174.043 207.75C173.838 207.955 173.633 208.159 173.633 208.569C173.633 221.466 171.177 230.064 166.673 234.159C164.012 236.411 160.941 237.229 157.051 236.82C146.201 235.592 139.036 223.309 137.808 204.065C137.808 203.86 137.603 203.451 137.398 203.451C137.193 203.246 136.989 203.246 136.579 203.246C132.075 203.451 127.367 203.656 123.068 203.86C107.714 204.474 93.3835 205.089 79.8721 210.002C79.6674 210.002 79.4626 210.207 79.2579 210.411C63.4946 242.143 52.6445 283.496 49.7784 323.826C48.9595 334.266 48.7548 347.982 48.5501 362.313C48.3454 377.871 47.936 394.044 46.9124 405.508C46.9124 405.713 46.9123 406.123 47.1171 406.327C47.3218 406.532 47.5265 406.737 47.7312 406.737C49.9831 406.532 57.5577 406.532 67.9984 406.532ZM173.838 404.28C171.996 404.28 167.697 404.28 161.964 404.28C131.052 404.485 60.6285 404.69 49.369 404.485C50.3926 392.816 50.5973 377.257 50.802 362.108C51.0067 347.778 51.2115 334.266 52.0303 323.826C54.8964 284.52 65.9512 242.552 81.1004 211.64C94.2024 206.931 108.328 206.522 123.272 205.907C127.367 205.703 131.666 205.498 135.965 205.293C137.398 224.946 145.177 237.434 156.846 238.867C161.35 239.481 165.24 238.253 168.106 235.592C173.019 231.293 175.681 222.694 175.885 210.002C176.499 210.207 177.318 210.616 177.932 210.821C187.554 214.71 202.089 220.238 208.64 225.56C202.908 263.229 205.365 283.086 207.207 297.622C208.64 309.086 209.459 316.456 205.57 326.282C203.932 330.172 200.452 334.676 196.357 339.589C188.373 349.415 178.342 361.494 175.681 378.895C175.681 379.714 175.476 381.761 175.271 384.422C174.862 391.178 174.043 400.8 173.838 404.28Z" fill="black"/>
    <path d="M174.866 405.304C170.158 405.304 56.3342 405.918 48.3502 405.508C50.3974 383.399 49.5785 345.935 51.2162 323.825C54.0823 286.567 64.1135 244.19 80.6958 210.821C98.0969 204.474 117.545 205.498 137.198 204.27C138.426 223.308 145.592 236.41 157.465 237.843C164.016 238.662 175.276 236.82 175.276 208.569C184.898 212.458 203.118 219.009 210.078 225.356C199.842 293.322 216.015 304.172 207.007 326.896C202.299 338.565 181.008 353.1 176.914 379.304C176.504 382.375 174.866 402.233 174.866 405.304Z" fill="white"/>
    <path d="M173.633 238.254H173.838C179.57 232.522 182.64 224.538 182.436 216.553C182.436 216.349 182.231 216.144 182.026 216.144C181.822 216.144 181.617 216.349 181.617 216.553C181.822 224.333 178.751 232.317 173.223 237.844C173.019 238.049 173.019 238.254 173.223 238.254C173.428 238.254 173.633 238.254 173.633 238.254Z" fill="black"/>
    <path d="M186.122 227.609C186.326 227.609 186.326 227.609 186.326 227.404C187.759 224.333 188.578 220.853 188.578 217.577C188.578 217.373 188.373 217.168 188.169 217.168C187.964 217.168 187.759 217.373 187.759 217.577C187.759 220.853 186.94 224.128 185.712 227.199C185.712 227.404 185.917 227.609 186.122 227.609Z" fill="black"/>
    <path d="M181.006 87.3759C182.234 87.3759 183.462 87.3759 184.895 87.1711C185.1 87.1711 185.305 86.9664 185.305 86.7617C185.305 86.557 185.1 86.3523 184.895 86.3523C170.974 87.1711 156.644 83.6909 144.566 76.7305C144.361 76.7305 144.156 76.7305 144.156 76.9352C144.156 77.1399 144.156 77.3446 144.361 77.3446C155.211 83.8956 168.108 87.3759 181.006 87.3759Z" fill="black"/>
    <path d="M125.122 50.526H125.327C128.193 47.8646 131.673 45.8174 135.358 44.7938C135.563 44.7938 135.562 44.5891 135.562 44.3844C135.562 44.1797 135.358 44.1797 135.153 44.1797C131.263 45.2033 127.783 47.2505 124.917 50.1165C124.712 50.3213 124.712 50.526 124.917 50.526C125.122 50.526 125.122 50.526 125.122 50.526Z" fill="black"/>
    <path d="M123.279 46.0222C124.917 44.9986 126.759 43.975 128.397 43.1561C128.602 43.1561 128.602 42.9514 128.602 42.7467C128.602 42.542 128.397 42.542 128.192 42.542C126.35 43.3609 124.712 44.1797 123.074 45.4081C122.869 45.6128 122.869 45.8175 123.074 45.8175C123.074 46.0222 123.074 46.0222 123.279 46.0222Z" fill="black"/>
    <path d="M535.977 240.737C538.533 238.212 539.969 234.788 539.969 231.218V131.462C539.969 127.892 538.533 124.468 535.977 121.944C533.421 119.419 529.954 118.001 526.339 118.001L269.192 118C265.577 118 262.11 119.418 259.554 121.943C256.998 124.467 255.562 139 226.5 148L252.5 158.5V231.679C252.5 238.859 258.321 244.679 265.5 244.679L282.821 244.678L526.339 244.679C529.954 244.679 533.421 243.261 535.977 240.737Z" fill="white"/>
    <path d="M288.892 169.385V180.745H287.788V175.433H281.052V180.745H279.932V169.385H281.052V174.441H287.788V169.385H288.892ZM290.77 178.345C290.77 177.822 290.92 177.374 291.218 177.001C291.517 176.617 291.928 176.323 292.45 176.121C292.984 175.907 293.597 175.801 294.29 175.801C294.696 175.801 295.117 175.833 295.554 175.897C295.992 175.961 296.381 176.057 296.722 176.185V175.481C296.722 174.777 296.514 174.217 296.098 173.801C295.682 173.385 295.106 173.177 294.37 173.177C293.922 173.177 293.48 173.262 293.042 173.433C292.616 173.593 292.168 173.833 291.698 174.153L291.282 173.385C291.826 173.011 292.36 172.734 292.882 172.553C293.405 172.361 293.938 172.265 294.482 172.265C295.506 172.265 296.317 172.558 296.914 173.145C297.512 173.731 297.81 174.542 297.81 175.577V179.433C297.81 179.582 297.842 179.694 297.906 179.769C297.97 179.833 298.072 179.87 298.21 179.881V180.745C298.093 180.755 297.992 180.766 297.906 180.777C297.821 180.787 297.757 180.787 297.714 180.777C297.448 180.766 297.245 180.681 297.106 180.521C296.968 180.361 296.893 180.19 296.882 180.009L296.866 179.401C296.493 179.881 296.008 180.254 295.41 180.521C294.813 180.777 294.205 180.905 293.586 180.905C293.053 180.905 292.568 180.793 292.13 180.569C291.704 180.334 291.368 180.025 291.122 179.641C290.888 179.246 290.77 178.814 290.77 178.345ZM296.354 178.985C296.472 178.835 296.562 178.691 296.626 178.553C296.69 178.414 296.722 178.291 296.722 178.185V176.969C296.36 176.83 295.981 176.723 295.586 176.649C295.202 176.574 294.813 176.537 294.418 176.537C293.64 176.537 293.01 176.691 292.53 177.001C292.05 177.31 291.81 177.731 291.81 178.265C291.81 178.574 291.89 178.867 292.05 179.145C292.21 179.411 292.445 179.635 292.754 179.817C293.064 179.987 293.426 180.073 293.842 180.073C294.365 180.073 294.85 179.971 295.298 179.769C295.757 179.566 296.109 179.305 296.354 178.985ZM300.209 169.065H301.297V178.857C301.297 179.273 301.372 179.545 301.521 179.673C301.67 179.801 301.852 179.865 302.065 179.865C302.257 179.865 302.449 179.843 302.641 179.801C302.833 179.758 302.998 179.715 303.137 179.673L303.329 180.553C303.126 180.638 302.876 180.707 302.577 180.761C302.289 180.814 302.038 180.841 301.825 180.841C301.334 180.841 300.94 180.697 300.641 180.409C300.353 180.121 300.209 179.726 300.209 179.225V169.065ZM304.568 169.065H305.656V178.857C305.656 179.273 305.731 179.545 305.88 179.673C306.03 179.801 306.211 179.865 306.424 179.865C306.616 179.865 306.808 179.843 307 179.801C307.192 179.758 307.358 179.715 307.496 179.673L307.688 180.553C307.486 180.638 307.235 180.707 306.936 180.761C306.648 180.814 306.398 180.841 306.184 180.841C305.694 180.841 305.299 180.697 305 180.409C304.712 180.121 304.568 179.726 304.568 179.225V169.065ZM312.432 180.905C311.834 180.905 311.28 180.793 310.768 180.569C310.266 180.334 309.829 180.019 309.456 179.625C309.093 179.219 308.81 178.761 308.608 178.249C308.405 177.726 308.304 177.177 308.304 176.601C308.304 176.003 308.405 175.449 308.608 174.937C308.81 174.414 309.098 173.955 309.472 173.561C309.845 173.155 310.282 172.841 310.784 172.617C311.296 172.382 311.85 172.265 312.448 172.265C313.045 172.265 313.594 172.382 314.096 172.617C314.597 172.841 315.034 173.155 315.408 173.561C315.781 173.955 316.069 174.414 316.272 174.937C316.474 175.449 316.576 176.003 316.576 176.601C316.576 177.177 316.474 177.726 316.272 178.249C316.069 178.761 315.781 179.219 315.408 179.625C315.045 180.019 314.608 180.334 314.096 180.569C313.594 180.793 313.04 180.905 312.432 180.905ZM309.408 176.617C309.408 177.235 309.541 177.801 309.808 178.313C310.085 178.814 310.453 179.214 310.912 179.513C311.37 179.801 311.877 179.945 312.432 179.945C312.986 179.945 313.493 179.795 313.952 179.497C314.41 179.198 314.778 178.793 315.056 178.281C315.333 177.758 315.472 177.193 315.472 176.585C315.472 175.966 315.333 175.401 315.056 174.889C314.778 174.377 314.41 173.971 313.952 173.673C313.493 173.374 312.986 173.225 312.432 173.225C311.877 173.225 311.37 173.379 310.912 173.689C310.464 173.998 310.101 174.409 309.824 174.921C309.546 175.422 309.408 175.987 309.408 176.617ZM322.393 177.305V172.409H323.481V177.113C323.481 178.062 323.641 178.771 323.961 179.241C324.292 179.71 324.777 179.945 325.417 179.945C325.844 179.945 326.255 179.854 326.649 179.673C327.055 179.481 327.412 179.214 327.721 178.873C328.031 178.521 328.265 178.115 328.425 177.657V172.409H329.513V179.433C329.513 179.582 329.545 179.694 329.609 179.769C329.673 179.833 329.769 179.87 329.897 179.881V180.745C329.769 180.755 329.668 180.761 329.593 180.761C329.519 180.771 329.449 180.777 329.385 180.777C329.172 180.755 328.985 180.67 328.825 180.521C328.676 180.371 328.596 180.19 328.585 179.977L328.553 178.857C328.191 179.497 327.695 179.998 327.065 180.361C326.447 180.723 325.775 180.905 325.049 180.905C324.175 180.905 323.513 180.601 323.065 179.993C322.617 179.385 322.393 178.489 322.393 177.305ZM338.981 180.745H337.893V176.089C337.893 175.107 337.749 174.393 337.461 173.945C337.173 173.486 336.72 173.257 336.101 173.257C335.675 173.257 335.253 173.363 334.837 173.577C334.421 173.779 334.053 174.062 333.733 174.425C333.424 174.777 333.2 175.182 333.061 175.641V180.745H331.973V172.409H332.965V174.297C333.189 173.891 333.483 173.539 333.845 173.241C334.208 172.931 334.619 172.691 335.077 172.521C335.536 172.35 336.011 172.265 336.501 172.265C336.96 172.265 337.349 172.35 337.669 172.521C337.989 172.691 338.245 172.937 338.437 173.257C338.629 173.566 338.768 173.945 338.853 174.393C338.939 174.83 338.981 175.321 338.981 175.865V180.745ZM352.388 180.745H351.3V176.089C351.3 175.15 351.134 174.446 350.804 173.977C350.473 173.497 349.998 173.257 349.38 173.257C348.974 173.257 348.569 173.363 348.164 173.577C347.769 173.779 347.417 174.062 347.108 174.425C346.809 174.777 346.596 175.182 346.468 175.641V180.745H345.38V169.065H346.468V174.297C346.798 173.678 347.257 173.187 347.844 172.825C348.441 172.451 349.076 172.265 349.748 172.265C350.228 172.265 350.633 172.35 350.964 172.521C351.305 172.691 351.577 172.942 351.78 173.273C351.993 173.593 352.148 173.971 352.244 174.409C352.34 174.835 352.388 175.321 352.388 175.865V180.745ZM358.308 180.905C357.71 180.905 357.156 180.793 356.644 180.569C356.132 180.334 355.689 180.019 355.316 179.625C354.942 179.219 354.649 178.755 354.436 178.233C354.233 177.71 354.132 177.15 354.132 176.553C354.132 175.774 354.308 175.059 354.66 174.409C355.022 173.758 355.518 173.241 356.148 172.857C356.777 172.462 357.492 172.265 358.292 172.265C359.113 172.265 359.828 172.462 360.436 172.857C361.054 173.251 361.54 173.774 361.892 174.425C362.244 175.065 362.42 175.769 362.42 176.537C362.42 176.622 362.42 176.707 362.42 176.793C362.42 176.867 362.414 176.926 362.404 176.969H355.268C355.321 177.566 355.486 178.099 355.764 178.569C356.052 179.027 356.42 179.395 356.868 179.673C357.326 179.939 357.822 180.073 358.356 180.073C358.9 180.073 359.412 179.934 359.892 179.657C360.382 179.379 360.724 179.017 360.916 178.569L361.86 178.825C361.689 179.219 361.428 179.577 361.076 179.897C360.724 180.217 360.308 180.467 359.828 180.649C359.358 180.819 358.852 180.905 358.308 180.905ZM355.236 176.185H361.396C361.353 175.577 361.188 175.043 360.9 174.585C360.622 174.126 360.254 173.769 359.796 173.513C359.348 173.246 358.852 173.113 358.308 173.113C357.764 173.113 357.268 173.246 356.82 173.513C356.372 173.769 356.004 174.131 355.716 174.601C355.438 175.059 355.278 175.587 355.236 176.185ZM368.258 173.369C367.533 173.39 366.893 173.593 366.338 173.977C365.794 174.361 365.41 174.889 365.186 175.561V180.745H364.098V172.409H365.122V174.409C365.41 173.822 365.789 173.347 366.258 172.985C366.738 172.622 367.245 172.419 367.778 172.377C367.885 172.366 367.976 172.361 368.05 172.361C368.136 172.361 368.205 172.366 368.258 172.377V173.369ZM369.004 180.009L374.588 173.225H369.132V172.409H375.82V173.145L370.268 179.929H375.804V180.745H369.004V180.009ZM377.631 169.065H378.719V178.857C378.719 179.273 378.793 179.545 378.943 179.673C379.092 179.801 379.273 179.865 379.487 179.865C379.679 179.865 379.871 179.843 380.063 179.801C380.255 179.758 380.42 179.715 380.559 179.673L380.751 180.553C380.548 180.638 380.297 180.707 379.999 180.761C379.711 180.814 379.46 180.841 379.247 180.841C378.756 180.841 378.361 180.697 378.063 180.409C377.775 180.121 377.631 179.726 377.631 179.225V169.065ZM381.942 180.745V172.409H383.03V180.745H381.942ZM381.942 170.665V169.065H383.03V170.665H381.942ZM389.043 180.905C388.435 180.905 387.875 180.793 387.363 180.569C386.861 180.334 386.419 180.014 386.035 179.609C385.661 179.203 385.368 178.739 385.155 178.217C384.952 177.694 384.851 177.139 384.851 176.553C384.851 175.763 385.027 175.043 385.379 174.393C385.731 173.742 386.221 173.225 386.851 172.841C387.48 172.457 388.205 172.265 389.027 172.265C389.805 172.265 390.493 172.446 391.091 172.809C391.688 173.161 392.131 173.641 392.419 174.249L391.363 174.585C391.128 174.158 390.797 173.827 390.371 173.593C389.955 173.347 389.491 173.225 388.979 173.225C388.424 173.225 387.917 173.369 387.459 173.657C387 173.945 386.632 174.339 386.355 174.841C386.088 175.342 385.955 175.913 385.955 176.553C385.955 177.182 386.093 177.753 386.371 178.265C386.648 178.777 387.016 179.187 387.475 179.497C387.933 179.795 388.44 179.945 388.995 179.945C389.357 179.945 389.704 179.881 390.035 179.753C390.376 179.625 390.669 179.454 390.915 179.241C391.171 179.017 391.341 178.777 391.427 178.521L392.499 178.841C392.349 179.235 392.099 179.593 391.747 179.913C391.405 180.222 391 180.467 390.531 180.649C390.072 180.819 389.576 180.905 389.043 180.905ZM401.216 180.745H400.128V176.089C400.128 175.15 399.962 174.446 399.632 173.977C399.301 173.497 398.826 173.257 398.208 173.257C397.802 173.257 397.397 173.363 396.992 173.577C396.597 173.779 396.245 174.062 395.936 174.425C395.637 174.777 395.424 175.182 395.296 175.641V180.745H394.208V169.065H395.296V174.297C395.626 173.678 396.085 173.187 396.672 172.825C397.269 172.451 397.904 172.265 398.576 172.265C399.056 172.265 399.461 172.35 399.792 172.521C400.133 172.691 400.405 172.942 400.608 173.273C400.821 173.593 400.976 173.971 401.072 174.409C401.168 174.835 401.216 175.321 401.216 175.865V180.745ZM417.657 172.409H418.729L415.145 180.745H414.201L412.457 176.601L410.729 180.745H409.785L406.201 172.409H407.257L410.297 179.625L411.833 175.865L410.425 172.425H411.401L412.457 175.129L413.529 172.425H414.489L413.097 175.865L414.633 179.625L417.657 172.409ZM420.177 180.745V172.409H421.265V180.745H420.177ZM420.177 170.665V169.065H421.265V170.665H420.177ZM423.709 169.065H424.797V178.857C424.797 179.273 424.872 179.545 425.021 179.673C425.17 179.801 425.352 179.865 425.565 179.865C425.757 179.865 425.949 179.843 426.141 179.801C426.333 179.758 426.498 179.715 426.637 179.673L426.829 180.553C426.626 180.638 426.376 180.707 426.077 180.761C425.789 180.814 425.538 180.841 425.325 180.841C424.834 180.841 424.44 180.697 424.141 180.409C423.853 180.121 423.709 179.726 423.709 179.225V169.065ZM428.068 169.065H429.156V178.857C429.156 179.273 429.231 179.545 429.38 179.673C429.53 179.801 429.711 179.865 429.924 179.865C430.116 179.865 430.308 179.843 430.5 179.801C430.692 179.758 430.858 179.715 430.996 179.673L431.188 180.553C430.986 180.638 430.735 180.707 430.436 180.761C430.148 180.814 429.898 180.841 429.684 180.841C429.194 180.841 428.799 180.697 428.5 180.409C428.212 180.121 428.068 179.726 428.068 179.225V169.065ZM438.332 180.745L435.244 176.473L433.468 178.137V180.745H432.38V169.065H433.468V176.969L438.188 172.425H439.388L435.98 175.833L439.516 180.745H438.332ZM443.979 180.905C443.381 180.905 442.827 180.793 442.315 180.569C441.813 180.334 441.376 180.019 441.003 179.625C440.64 179.219 440.357 178.761 440.155 178.249C439.952 177.726 439.851 177.177 439.851 176.601C439.851 176.003 439.952 175.449 440.155 174.937C440.357 174.414 440.645 173.955 441.019 173.561C441.392 173.155 441.829 172.841 442.331 172.617C442.843 172.382 443.397 172.265 443.995 172.265C444.592 172.265 445.141 172.382 445.643 172.617C446.144 172.841 446.581 173.155 446.955 173.561C447.328 173.955 447.616 174.414 447.819 174.937C448.021 175.449 448.123 176.003 448.123 176.601C448.123 177.177 448.021 177.726 447.819 178.249C447.616 178.761 447.328 179.219 446.955 179.625C446.592 180.019 446.155 180.334 445.643 180.569C445.141 180.793 444.587 180.905 443.979 180.905ZM440.955 176.617C440.955 177.235 441.088 177.801 441.355 178.313C441.632 178.814 442 179.214 442.459 179.513C442.917 179.801 443.424 179.945 443.979 179.945C444.533 179.945 445.04 179.795 445.499 179.497C445.957 179.198 446.325 178.793 446.603 178.281C446.88 177.758 447.019 177.193 447.019 176.585C447.019 175.966 446.88 175.401 446.603 174.889C446.325 174.377 445.957 173.971 445.499 173.673C445.04 173.374 444.533 173.225 443.979 173.225C443.424 173.225 442.917 173.379 442.459 173.689C442.011 173.998 441.648 174.409 441.371 174.921C441.093 175.422 440.955 175.987 440.955 176.617ZM462.342 180.745H461.254V176.089C461.254 175.118 461.1 174.403 460.79 173.945C460.481 173.486 460.022 173.257 459.414 173.257C458.785 173.257 458.22 173.481 457.718 173.929C457.228 174.377 456.881 174.953 456.678 175.657V180.745H455.59V176.089C455.59 175.107 455.441 174.393 455.142 173.945C454.844 173.486 454.385 173.257 453.766 173.257C453.148 173.257 452.588 173.475 452.086 173.913C451.585 174.35 451.233 174.926 451.03 175.641V180.745H449.942V172.409H450.934V174.297C451.286 173.646 451.734 173.145 452.278 172.793C452.833 172.441 453.446 172.265 454.118 172.265C454.812 172.265 455.372 172.462 455.798 172.857C456.225 173.251 456.486 173.769 456.582 174.409C456.966 173.705 457.425 173.171 457.958 172.809C458.502 172.446 459.116 172.265 459.798 172.265C460.268 172.265 460.662 172.35 460.982 172.521C461.313 172.691 461.574 172.937 461.766 173.257C461.969 173.566 462.113 173.945 462.198 174.393C462.294 174.83 462.342 175.321 462.342 175.865V180.745ZM468.245 180.905C467.648 180.905 467.093 180.793 466.581 180.569C466.069 180.334 465.627 180.019 465.253 179.625C464.88 179.219 464.587 178.755 464.373 178.233C464.171 177.71 464.069 177.15 464.069 176.553C464.069 175.774 464.245 175.059 464.597 174.409C464.96 173.758 465.456 173.241 466.085 172.857C466.715 172.462 467.429 172.265 468.229 172.265C469.051 172.265 469.765 172.462 470.373 172.857C470.992 173.251 471.477 173.774 471.829 174.425C472.181 175.065 472.357 175.769 472.357 176.537C472.357 176.622 472.357 176.707 472.357 176.793C472.357 176.867 472.352 176.926 472.341 176.969H465.205C465.259 177.566 465.424 178.099 465.701 178.569C465.989 179.027 466.357 179.395 466.805 179.673C467.264 179.939 467.76 180.073 468.293 180.073C468.837 180.073 469.349 179.934 469.829 179.657C470.32 179.379 470.661 179.017 470.853 178.569L471.797 178.825C471.627 179.219 471.365 179.577 471.013 179.897C470.661 180.217 470.245 180.467 469.765 180.649C469.296 180.819 468.789 180.905 468.245 180.905ZM465.173 176.185H471.333C471.291 175.577 471.125 175.043 470.837 174.585C470.56 174.126 470.192 173.769 469.733 173.513C469.285 173.246 468.789 173.113 468.245 173.113C467.701 173.113 467.205 173.246 466.757 173.513C466.309 173.769 465.941 174.131 465.653 174.601C465.376 175.059 465.216 175.587 465.173 176.185ZM481.044 180.745H479.956V176.089C479.956 175.107 479.812 174.393 479.524 173.945C479.236 173.486 478.783 173.257 478.164 173.257C477.737 173.257 477.316 173.363 476.9 173.577C476.484 173.779 476.116 174.062 475.796 174.425C475.487 174.777 475.263 175.182 475.124 175.641V180.745H474.036V172.409H475.028V174.297C475.252 173.891 475.545 173.539 475.908 173.241C476.271 172.931 476.681 172.691 477.14 172.521C477.599 172.35 478.073 172.265 478.564 172.265C479.023 172.265 479.412 172.35 479.732 172.521C480.052 172.691 480.308 172.937 480.5 173.257C480.692 173.566 480.831 173.945 480.916 174.393C481.001 174.83 481.044 175.321 481.044 175.865V180.745ZM483.54 182.041L483.812 180.697H483.444V179.177H484.5V180.697L484.1 182.041H483.54ZM284.204 188.465H285.26L286.86 192.497L288.476 188.465H289.548L287.564 193.313L289.74 198.449L293.852 188.385H295.068L290.252 199.745H289.26L286.876 194.129L284.476 199.745H283.5L278.7 188.385H279.9L284.028 198.449L286.188 193.313L284.204 188.465ZM296.442 199.745V191.409H297.53V199.745H296.442ZM296.442 189.665V188.065H297.53V189.665H296.442ZM303.527 199.905C302.929 199.905 302.375 199.793 301.863 199.569C301.351 199.334 300.908 199.019 300.535 198.625C300.161 198.219 299.868 197.755 299.655 197.233C299.452 196.71 299.351 196.15 299.351 195.553C299.351 194.774 299.527 194.059 299.879 193.409C300.241 192.758 300.737 192.241 301.367 191.857C301.996 191.462 302.711 191.265 303.511 191.265C304.332 191.265 305.047 191.462 305.655 191.857C306.273 192.251 306.759 192.774 307.111 193.425C307.463 194.065 307.639 194.769 307.639 195.537C307.639 195.622 307.639 195.707 307.639 195.793C307.639 195.867 307.633 195.926 307.623 195.969H300.487C300.54 196.566 300.705 197.099 300.983 197.569C301.271 198.027 301.639 198.395 302.087 198.673C302.545 198.939 303.041 199.073 303.575 199.073C304.119 199.073 304.631 198.934 305.111 198.657C305.601 198.379 305.943 198.017 306.135 197.569L307.079 197.825C306.908 198.219 306.647 198.577 306.295 198.897C305.943 199.217 305.527 199.467 305.047 199.649C304.577 199.819 304.071 199.905 303.527 199.905ZM300.455 195.185H306.615C306.572 194.577 306.407 194.043 306.119 193.585C305.841 193.126 305.473 192.769 305.015 192.513C304.567 192.246 304.071 192.113 303.527 192.113C302.983 192.113 302.487 192.246 302.039 192.513C301.591 192.769 301.223 193.131 300.935 193.601C300.657 194.059 300.497 194.587 300.455 195.185ZM320.403 199.745H319.315V195.089C319.315 194.15 319.15 193.446 318.819 192.977C318.489 192.497 318.014 192.257 317.395 192.257C316.99 192.257 316.585 192.363 316.179 192.577C315.785 192.779 315.433 193.062 315.123 193.425C314.825 193.777 314.611 194.182 314.483 194.641V199.745H313.395V188.065H314.483V193.297C314.814 192.678 315.273 192.187 315.859 191.825C316.457 191.451 317.091 191.265 317.763 191.265C318.243 191.265 318.649 191.35 318.979 191.521C319.321 191.691 319.593 191.942 319.795 192.273C320.009 192.593 320.163 192.971 320.259 193.409C320.355 193.835 320.403 194.321 320.403 194.865V199.745ZM326.323 199.905C325.726 199.905 325.171 199.793 324.659 199.569C324.147 199.334 323.705 199.019 323.331 198.625C322.958 198.219 322.665 197.755 322.451 197.233C322.249 196.71 322.147 196.15 322.147 195.553C322.147 194.774 322.323 194.059 322.675 193.409C323.038 192.758 323.534 192.241 324.163 191.857C324.793 191.462 325.507 191.265 326.307 191.265C327.129 191.265 327.843 191.462 328.451 191.857C329.07 192.251 329.555 192.774 329.907 193.425C330.259 194.065 330.435 194.769 330.435 195.537C330.435 195.622 330.435 195.707 330.435 195.793C330.435 195.867 330.43 195.926 330.419 195.969H323.283C323.337 196.566 323.502 197.099 323.779 197.569C324.067 198.027 324.435 198.395 324.883 198.673C325.342 198.939 325.838 199.073 326.371 199.073C326.915 199.073 327.427 198.934 327.907 198.657C328.398 198.379 328.739 198.017 328.931 197.569L329.875 197.825C329.705 198.219 329.443 198.577 329.091 198.897C328.739 199.217 328.323 199.467 327.843 199.649C327.374 199.819 326.867 199.905 326.323 199.905ZM323.251 195.185H329.411C329.369 194.577 329.203 194.043 328.915 193.585C328.638 193.126 328.27 192.769 327.811 192.513C327.363 192.246 326.867 192.113 326.323 192.113C325.779 192.113 325.283 192.246 324.835 192.513C324.387 192.769 324.019 193.131 323.731 193.601C323.454 194.059 323.294 194.587 323.251 195.185ZM332.114 199.745V191.409H333.202V199.745H332.114ZM332.114 189.665V188.065H333.202V189.665H332.114ZM338.334 199.905C337.652 199.905 337.017 199.793 336.43 199.569C335.844 199.345 335.337 199.003 334.91 198.545L335.358 197.777C335.828 198.214 336.297 198.534 336.766 198.737C337.246 198.929 337.753 199.025 338.286 199.025C338.937 199.025 339.465 198.897 339.87 198.641C340.276 198.374 340.478 197.995 340.478 197.505C340.478 197.174 340.377 196.923 340.174 196.753C339.982 196.571 339.7 196.427 339.326 196.321C338.964 196.203 338.526 196.081 338.014 195.953C337.438 195.793 336.953 195.627 336.558 195.457C336.174 195.275 335.881 195.051 335.678 194.785C335.486 194.507 335.39 194.15 335.39 193.713C335.39 193.169 335.524 192.721 335.79 192.369C336.068 192.006 336.441 191.734 336.91 191.553C337.39 191.361 337.924 191.265 338.51 191.265C339.15 191.265 339.716 191.366 340.206 191.569C340.697 191.771 341.097 192.054 341.406 192.417L340.878 193.153C340.58 192.811 340.222 192.561 339.806 192.401C339.401 192.23 338.948 192.145 338.446 192.145C338.105 192.145 337.78 192.193 337.47 192.289C337.161 192.374 336.905 192.523 336.702 192.737C336.51 192.939 336.414 193.222 336.414 193.585C336.414 193.883 336.489 194.118 336.638 194.289C336.788 194.449 337.012 194.587 337.31 194.705C337.609 194.811 337.977 194.929 338.414 195.057C339.044 195.227 339.593 195.403 340.062 195.585C340.532 195.755 340.894 195.979 341.15 196.257C341.406 196.534 341.534 196.923 341.534 197.425C341.534 198.203 341.241 198.811 340.654 199.249C340.068 199.686 339.294 199.905 338.334 199.905ZM346.069 199.905C345.386 199.905 344.751 199.793 344.165 199.569C343.578 199.345 343.071 199.003 342.645 198.545L343.093 197.777C343.562 198.214 344.031 198.534 344.501 198.737C344.981 198.929 345.487 199.025 346.021 199.025C346.671 199.025 347.199 198.897 347.605 198.641C348.01 198.374 348.213 197.995 348.213 197.505C348.213 197.174 348.111 196.923 347.909 196.753C347.717 196.571 347.434 196.427 347.061 196.321C346.698 196.203 346.261 196.081 345.749 195.953C345.173 195.793 344.687 195.627 344.293 195.457C343.909 195.275 343.615 195.051 343.413 194.785C343.221 194.507 343.125 194.15 343.125 193.713C343.125 193.169 343.258 192.721 343.525 192.369C343.802 192.006 344.175 191.734 344.645 191.553C345.125 191.361 345.658 191.265 346.245 191.265C346.885 191.265 347.45 191.366 347.941 191.569C348.431 191.771 348.831 192.054 349.141 192.417L348.613 193.153C348.314 192.811 347.957 192.561 347.541 192.401C347.135 192.23 346.682 192.145 346.181 192.145C345.839 192.145 345.514 192.193 345.205 192.289C344.895 192.374 344.639 192.523 344.437 192.737C344.245 192.939 344.149 193.222 344.149 193.585C344.149 193.883 344.223 194.118 344.373 194.289C344.522 194.449 344.746 194.587 345.045 194.705C345.343 194.811 345.711 194.929 346.149 195.057C346.778 195.227 347.327 195.403 347.797 195.585C348.266 195.755 348.629 195.979 348.885 196.257C349.141 196.534 349.269 196.923 349.269 197.425C349.269 198.203 348.975 198.811 348.389 199.249C347.802 199.686 347.029 199.905 346.069 199.905ZM355.067 199.345C354.982 199.377 354.849 199.435 354.667 199.521C354.486 199.606 354.267 199.681 354.011 199.745C353.755 199.809 353.478 199.841 353.179 199.841C352.87 199.841 352.577 199.782 352.299 199.665C352.033 199.547 351.819 199.371 351.659 199.137C351.499 198.891 351.419 198.593 351.419 198.241V192.273H350.267V191.409H351.419V188.593H352.507V191.409H354.427V192.273H352.507V197.937C352.529 198.235 352.635 198.459 352.827 198.609C353.03 198.758 353.259 198.833 353.515 198.833C353.814 198.833 354.086 198.785 354.331 198.689C354.577 198.582 354.726 198.507 354.779 198.465L355.067 199.345ZM359.945 195.601C359.945 194.811 360.105 194.091 360.425 193.441C360.755 192.779 361.209 192.251 361.785 191.857C362.361 191.462 363.017 191.265 363.753 191.265C364.446 191.265 365.065 191.451 365.609 191.825C366.163 192.187 366.595 192.63 366.905 193.153V188.065H367.993V198.433C367.993 198.582 368.025 198.694 368.089 198.769C368.153 198.833 368.249 198.87 368.377 198.881V199.745C368.163 199.777 367.998 199.787 367.881 199.777C367.657 199.766 367.459 199.675 367.289 199.505C367.118 199.334 367.033 199.147 367.033 198.945V198.129C366.702 198.673 366.254 199.105 365.689 199.425C365.123 199.745 364.537 199.905 363.929 199.905C363.353 199.905 362.819 199.787 362.329 199.553C361.849 199.318 361.427 198.998 361.065 198.593C360.713 198.187 360.435 197.729 360.233 197.217C360.041 196.694 359.945 196.155 359.945 195.601ZM366.905 196.881V194.305C366.766 193.921 366.542 193.574 366.233 193.265C365.923 192.945 365.571 192.694 365.177 192.513C364.793 192.321 364.409 192.225 364.025 192.225C363.577 192.225 363.171 192.321 362.809 192.513C362.446 192.694 362.131 192.945 361.865 193.265C361.609 193.585 361.411 193.947 361.273 194.353C361.134 194.758 361.065 195.174 361.065 195.601C361.065 196.049 361.139 196.475 361.289 196.881C361.449 197.286 361.673 197.649 361.961 197.969C362.249 198.278 362.579 198.518 362.953 198.689C363.326 198.859 363.731 198.945 364.169 198.945C364.446 198.945 364.734 198.891 365.033 198.785C365.331 198.678 365.614 198.534 365.881 198.353C366.158 198.161 366.387 197.937 366.569 197.681C366.75 197.425 366.862 197.158 366.905 196.881ZM370.378 196.305V191.409H371.466V196.113C371.466 197.062 371.626 197.771 371.946 198.241C372.276 198.71 372.762 198.945 373.402 198.945C373.828 198.945 374.239 198.854 374.634 198.673C375.039 198.481 375.396 198.214 375.706 197.873C376.015 197.521 376.25 197.115 376.41 196.657V191.409H377.498V198.433C377.498 198.582 377.53 198.694 377.594 198.769C377.658 198.833 377.754 198.87 377.882 198.881V199.745C377.754 199.755 377.652 199.761 377.578 199.761C377.503 199.771 377.434 199.777 377.37 199.777C377.156 199.755 376.97 199.67 376.81 199.521C376.66 199.371 376.58 199.19 376.57 198.977L376.538 197.857C376.175 198.497 375.679 198.998 375.05 199.361C374.431 199.723 373.759 199.905 373.034 199.905C372.159 199.905 371.498 199.601 371.05 198.993C370.602 198.385 370.378 197.489 370.378 196.305ZM381.222 196.513C381.222 196.043 381.27 195.643 381.366 195.313C381.472 194.971 381.622 194.678 381.814 194.433C382.016 194.187 382.272 193.974 382.582 193.793C382.784 193.665 383.014 193.531 383.27 193.393C383.536 193.254 383.782 193.094 384.006 192.913C384.24 192.721 384.432 192.491 384.582 192.225C384.731 191.947 384.806 191.617 384.806 191.233C384.806 190.763 384.699 190.379 384.486 190.081C384.283 189.771 384.016 189.542 383.686 189.393C383.355 189.233 383.003 189.153 382.63 189.153C382.256 189.153 381.899 189.227 381.558 189.377C381.227 189.515 380.934 189.707 380.678 189.953C380.422 190.198 380.214 190.475 380.054 190.785L379.302 190.305C379.504 189.867 379.776 189.494 380.118 189.185C380.47 188.875 380.864 188.641 381.302 188.481C381.739 188.321 382.187 188.241 382.646 188.241C383.04 188.241 383.424 188.305 383.798 188.433C384.171 188.55 384.502 188.737 384.79 188.993C385.088 189.249 385.323 189.569 385.494 189.953C385.675 190.326 385.766 190.774 385.766 191.297C385.766 191.723 385.707 192.086 385.59 192.385C385.472 192.673 385.307 192.923 385.094 193.137C384.891 193.339 384.662 193.521 384.406 193.681C384.15 193.841 383.883 193.995 383.606 194.145C383.36 194.283 383.126 194.438 382.902 194.609C382.678 194.779 382.496 195.014 382.358 195.313C382.219 195.601 382.15 196.001 382.15 196.513H381.222ZM381.238 199.745V198.033H382.182V199.745H381.238Z" fill="#5A5A5A"/>
    </svg>
    