<svg width="291" height="228" viewBox="0 0 291 228" fill="none" xmlns="http://www.w3.org/2000/svg">
<path d="M95.6309 154.877C102.147 154.877 109.006 152.134 114.036 146.989C120.323 140.588 124.096 131.099 125.239 119.096C125.811 112.466 125.353 107.436 123.867 102.977C122.953 100.462 121.695 98.0618 120.438 95.8898C119.523 94.2893 118.609 92.5746 117.923 90.8598C112.664 78.8565 114.836 65.4815 117.923 50.3916C117.923 50.163 117.808 49.9344 117.58 49.8201C117.351 49.7057 117.008 49.8201 116.894 49.9344C104.662 65.3672 93.2303 83.4292 83.0561 103.663C79.1693 111.437 75.2825 119.896 74.7109 128.927C74.1394 138.987 78.4834 148.133 85.6854 152.362C88.6576 154.077 92.0871 154.877 95.6309 154.877ZM116.322 52.4493C113.464 66.739 111.75 79.5424 116.894 91.3171C117.694 93.0318 118.609 94.7466 119.523 96.4613C120.781 98.7477 122.038 101.034 122.838 103.435C124.324 107.664 124.782 112.58 124.096 119.096C123.067 130.985 119.409 140.13 113.236 146.304C105.805 153.848 94.2591 156.135 86.257 151.448C79.3979 147.447 75.2825 138.644 75.8541 129.042C76.3114 120.125 80.1981 111.894 84.0849 104.235C93.8019 84.801 104.662 67.4249 116.322 52.4493Z" fill="black"/>
<path d="M117.351 50.1631C114.608 63.7668 111.864 78.2851 117.466 90.9742C119.295 95.0896 121.924 98.8621 123.41 103.092C125.125 108.122 125.239 113.609 124.782 118.982C123.867 129.042 120.895 139.33 113.807 146.532C106.72 153.734 94.9452 156.935 86.1428 151.791C78.4835 147.332 74.9397 137.73 75.5113 128.927C75.9686 120.125 79.741 111.78 83.7421 103.892C93.2304 84.8011 104.319 66.6247 117.351 50.1631Z" fill="#BEE8FF"/>
<path d="M169.932 96.4232C162.114 107.222 156.843 141.271 153.388 143.368C150.787 144.902 127.94 133.032 111.711 125.246C103.151 121.096 87.7419 120.12 85.9801 127.287C82.4718 141.365 149.886 175.271 167.535 173.052C176.104 171.928 177.136 137.675 182.191 110.629C183.381 104.452 190.667 101.663 196.449 99.1929C208.752 93.8878 211.171 91.9844 210.627 89.9543C210.125 88.0804 198.645 93.3324 194.631 93.6548C201.446 88.4813 212.572 83.1568 210.532 79.6029C209.18 77.3707 201.759 84.9662 193.109 88.2882C200.409 79.3026 210.986 76.3011 208.805 72.5339C207.088 69.5627 196.89 79.9108 190.925 82.0112C193.867 77.3734 204.612 71.5652 202.484 68.6206C201.076 66.4874 193.262 72.9326 190.802 74.6799C187.103 77.4284 185.205 80.029 180.943 81.9242C180.495 77.4415 183.446 67.5291 180.864 67.8862C178.183 68.1862 177.603 71.0195 175.278 77.3332C173.295 83.0529 172.557 92.7908 169.932 96.4232Z" fill="white"/>
<path d="M171.758 170.079C175.301 163.941 177.092 150.322 179.13 135.131C180.188 126.898 181.36 118.466 182.756 110.56C183.76 104.935 190.166 102.298 195.792 99.8702L196.687 99.463C208.678 94.2417 211.821 92.228 211.208 89.6304C211.125 89.3181 210.984 89.1048 210.687 88.9333C209.598 88.3046 206.673 89.2558 202.072 90.8234C200.396 91.4398 198.621 91.9991 197.215 92.3757C198.552 91.4316 199.988 90.5447 201.424 89.6578C207.554 85.6723 212.887 82.1512 211.17 79.18C210.987 78.8106 210.69 78.6391 210.336 78.5666C209.076 78.2349 206.942 79.6433 203.8 81.657C201.396 83.3053 198.467 85.1781 195.412 86.5824C198.361 83.5328 201.519 81.264 204.193 79.3758C208.147 76.6427 210.935 74.5565 209.599 72.0692C209.417 71.6997 209.078 71.372 208.567 71.3414C206.896 71.0362 204.122 72.8672 199.685 75.9811C197.437 77.5875 195.132 79.293 193.072 80.3473C194.382 78.9919 195.948 77.6518 197.67 76.2699C201.498 73.0682 204.786 70.3462 203.336 68.0569C203.153 67.6874 202.757 67.4588 202.247 67.4281C200.064 67.0923 195.668 70.3623 191.642 73.4497C191.371 73.6895 191.002 73.8722 190.732 74.1121C189.551 75.0143 188.469 75.9737 187.501 76.7351C185.665 78.315 184.042 79.754 181.669 80.892C181.662 79.3039 181.998 77.1218 182.276 75.0386C182.777 70.9714 183.086 68.3779 182.168 67.4522C181.929 67.1817 181.475 67.052 181.064 67.0786C178.482 67.4357 177.579 69.6862 176.027 74.2026C175.726 74.9527 175.467 75.8591 175.051 76.8072C174.19 79.2139 173.439 82.3442 172.843 85.4327C171.932 89.5265 171.119 93.6774 169.664 95.7411C165.198 101.875 161.507 115.584 158.594 126.575C156.661 134.039 154.556 141.799 153.234 142.488C152.865 142.671 151.121 142.72 142.389 138.867C136.502 136.26 128.989 132.582 121.773 129.076C118.392 127.388 115.209 125.814 112.067 124.396C105.742 121.405 95.3419 119.756 89.3884 122.523C87.2287 123.52 86.0172 124.933 85.5405 126.902C84.9342 129.324 86.1823 132.42 89.3993 135.994C103.451 151.895 152.55 175.226 167.674 173.265C169.205 173.357 170.557 172.158 171.758 170.079ZM182.742 107.384C182.228 108.275 181.812 109.223 181.694 110.343C180.24 118.348 179.068 126.779 178.011 135.013C175.545 153.917 173.197 171.702 167.522 172.385C160.811 173.263 145.872 168.73 128.695 160.529C111.418 152.27 96.6294 142.676 90.1536 135.373C87.2755 132.127 85.9548 129.385 86.4887 127.317C86.8357 125.801 87.9329 124.587 89.7232 123.772C95.151 121.23 105.254 122.707 111.381 125.584C114.367 127.044 117.649 128.675 120.988 130.207C139.693 139.422 151.295 144.933 153.527 143.581C155.12 142.653 156.691 136.96 159.386 127.032C162.242 116.141 165.876 102.53 170.227 96.5944L169.789 96.2096L170.227 96.5944C171.797 94.3327 172.709 90.2389 173.635 85.8899C174.272 82.9576 174.925 79.7702 175.729 77.4625C176.144 76.5143 176.404 75.608 176.705 74.8578C178.412 70.2997 179.072 68.7003 180.93 68.4534C181.029 68.5105 181.029 68.5105 181.029 68.5105C181.608 69.1087 181.196 72.5666 180.787 75.1029C180.436 77.5402 180.07 80.2326 180.218 82.0341C180.26 82.1902 180.301 82.3464 180.499 82.4607C180.697 82.575 180.854 82.5332 181.01 82.4913C184.007 81.186 185.844 79.6061 187.794 77.8282C188.819 76.9678 189.745 76.0503 190.925 75.148C191.139 75.0072 191.409 74.7673 191.836 74.4857C194.198 72.6812 199.676 68.4518 201.504 68.7151C201.66 68.6733 201.702 68.8295 201.801 68.8866C202.745 70.2237 199.4 73.0447 196.383 75.5268C193.907 77.5293 191.472 79.6879 190.173 81.7097C190.059 81.9077 190.043 82.1629 190.184 82.3762C190.325 82.5895 190.58 82.6049 190.835 82.6202C193.448 81.7527 196.663 79.3849 199.821 77.116C202.979 74.8472 206.507 72.3957 207.824 72.6284C207.923 72.6856 208.022 72.7428 208.121 72.7999C208.951 74.335 207.016 75.8577 203.062 78.5909C199.904 80.8598 195.836 83.791 192.414 87.8878C192.3 88.0858 192.285 88.3409 192.425 88.5542C192.566 88.7676 192.821 88.7829 193.077 88.7982C197.167 87.2 200.95 84.7638 203.994 82.6929C206.496 81.1018 208.843 79.5525 209.65 79.7546C209.749 79.8118 209.749 79.8118 209.848 79.869C211.059 81.8878 205.413 85.4926 200.45 88.831C198.317 90.2395 196.027 91.6898 194.092 93.2125C193.879 93.3534 193.863 93.6085 193.848 93.8637C193.833 94.1188 194.187 94.1913 194.442 94.2066C196.244 94.0587 199.226 93.0085 202.151 92.0573C204.92 91.148 209.053 89.7059 209.902 90.0642C210.221 91.5686 208.058 93.4874 196.025 98.5526L195.13 98.9598C190.712 100.897 185.143 103.226 182.742 107.384Z" fill="black"/>
<path d="M152.477 153.403C152.534 153.304 152.534 153.304 152.492 153.148C152.764 149.477 154.35 143.529 155.57 140.273C155.741 139.976 155.559 139.606 155.205 139.534C154.908 139.362 154.538 139.545 154.466 139.899C153.147 143.098 151.545 149.301 151.217 153.072C151.201 153.327 151.441 153.597 151.795 153.67C152.149 153.742 152.363 153.601 152.477 153.403Z" fill="black"/>
<path d="M40.1863 157.392C41.9011 157.392 42.587 156.478 43.2729 155.106C43.9588 153.734 44.759 152.134 48.5314 151.562C56.4193 150.305 64.1928 145.961 70.366 139.33C75.5102 133.843 79.74 126.756 83.3981 117.724C88.0851 106.293 89.3426 97.2618 87.3992 89.1453C85.2272 79.9999 76.882 70.7402 65.679 71.6548C65.336 71.6548 65.1074 71.8834 65.1074 72.2264C65.336 81.9433 59.3916 91.0887 50.8178 94.0609C48.1885 94.9754 45.2163 95.3184 42.4726 95.6613C40.1863 95.89 37.9 96.2329 35.6136 96.8045C30.5837 98.1763 25.0965 102.063 24.9822 107.665C24.9822 108.122 24.9822 108.579 25.0965 109.151C25.3251 112.923 25.6681 119.096 16.98 122.983C13.7791 124.355 11.95 128.013 12.1787 132.471C12.5216 140.131 19.2663 151.105 36.9854 156.821C38.3572 157.164 39.3861 157.392 40.1863 157.392ZM67.1651 72.455C76.9964 72.455 84.3126 80.8001 86.256 89.1453C88.0851 97.0331 86.9419 105.836 82.3692 117.039C78.7111 125.955 74.4814 132.929 69.5657 138.302C63.507 144.818 55.962 149.047 48.3028 150.191C44.0731 150.876 43.0442 152.934 42.244 154.42C41.4438 155.906 41.1008 156.707 37.3284 155.563C20.1808 149.962 13.6648 139.445 13.3218 132.128C13.0932 128.127 14.6936 124.926 17.4372 123.783C26.8112 119.668 26.4683 112.923 26.2396 108.808C26.2396 108.236 26.1253 107.779 26.2396 107.322C26.2396 102.406 31.2696 98.7479 35.9566 97.6047C38.1286 97.0331 40.4149 96.8045 42.7013 96.4616C45.5592 96.1186 48.5314 95.7757 51.275 94.7468C60.0774 91.6602 66.2506 82.2863 66.2506 72.3407C66.5935 72.455 66.9365 72.455 67.1651 72.455Z" fill="black"/>
<path d="M65.7943 71.9976C66.0229 81.4859 60.1928 91.3172 51.1618 94.4038C46.2461 96.1185 40.8732 95.8899 35.8433 97.1473C30.8133 98.4048 25.6691 102.292 25.6691 107.436C25.6691 110.865 27.6125 118.753 17.3239 123.326C8.75017 127.098 10.8079 147.561 37.2151 156.135C45.3316 158.764 40.073 152.134 48.5325 150.876C56.8776 149.619 64.3082 144.932 70.1384 138.759C75.8542 132.586 79.9696 125.041 83.0562 117.267C86.7143 108.35 89.2293 98.4048 86.9429 89.0309C84.6566 79.6569 76.3115 71.1974 65.7943 71.9976Z" fill="#BEE8FF"/>
<path d="M56.1909 170.539C50.2464 173.397 38.5861 180.599 32.6416 183.799C28.9834 185.857 29.7837 185.286 31.4984 182.199C37.5572 172.025 62.5926 120.468 45.2164 117.724C23.3819 114.18 -6.68342 197.174 1.89035 215.122C5.31986 222.21 23.7249 222.667 58.4772 190.544C63.0499 186.314 69.3373 185.743 75.1675 185.743C79.3972 185.743 83.7413 186.429 87.971 185.171C88.3139 185.057 88.7712 184.943 88.9998 184.6C89.9144 183.571 89.8 182.313 85.9133 181.97C82.941 181.742 79.2829 181.399 76.1963 180.256C80.0831 179.913 84.7701 178.769 88.5426 178.541C90.3716 178.426 92.658 177.969 93.6868 176.254C93.9155 175.912 94.0298 175.569 93.9155 175.226C93.8011 174.54 93.0009 174.425 92.315 174.311C87.628 174.082 82.0265 175.111 77.3395 174.883C87.2851 169.738 97.1163 171.11 97.1163 166.995C97.1163 163.794 84.1985 169.052 78.3684 168.595C82.8267 165.623 94.0298 164.594 93.8011 161.165C93.5725 158.764 84.4272 161.393 81.6836 162.193C77.4538 163.222 74.7102 164.823 70.4805 164.823C72.0809 160.707 81.3406 153.963 79.3972 152.819C76.3107 150.99 71.1664 156.935 67.2796 160.25C62.5926 164.137 58.2486 169.51 56.1909 170.539Z" fill="white"/>
<path d="M98.0336 118.067C97.805 110.865 97.805 107.893 98.6052 99.6623C95.7473 98.1761 92.5464 97.1473 89.3455 96.69C87.8594 96.4614 86.259 96.3471 85.1158 97.2616C84.4299 97.8332 84.087 98.6334 83.744 99.4336C81.3434 104.921 78.0282 111.437 75.7418 117.038C75.5132 117.496 76.4277 116.924 76.4277 117.381C76.4277 118.067 73.5698 124.698 74.0271 125.269C78.9427 130.299 93.8039 160.365 98.0336 118.067Z" fill="white"/>
<path d="M89.2293 140.931C89.5722 140.931 90.0295 140.931 90.3725 140.816C94.4879 139.673 97.2315 132.357 98.7176 118.181C98.7176 118.181 98.7176 118.181 98.7176 118.067C98.489 110.751 98.489 107.893 99.2892 99.6621C99.2892 99.4335 99.1749 99.2049 98.9462 99.0905C95.974 97.6044 92.7731 96.5756 89.4579 96.004C87.9718 95.7753 86.1428 95.661 84.8853 96.6899C84.085 97.3758 83.6278 98.2903 83.2848 99.0905C82.1417 101.834 80.6555 104.921 79.2837 107.893C77.9119 110.865 76.4258 113.952 75.2826 116.695C75.1683 117.038 75.2826 117.267 75.397 117.381C75.5113 117.496 75.7399 117.61 75.8542 117.61C75.6256 118.181 75.2826 119.096 75.054 119.896C73.4536 124.126 73.2249 125.04 73.6822 125.498C74.4824 126.298 75.5113 127.784 76.6544 129.499C80.0839 134.3 84.7709 140.931 89.2293 140.931ZM97.5744 118.067C96.2026 131.442 93.6877 138.758 90.1438 139.673C86.1427 140.702 80.9985 133.614 77.569 128.813C76.4258 127.098 75.397 125.726 74.5967 124.812C74.5967 124.126 75.5113 121.725 76.0829 120.353C76.8831 118.296 77.1117 117.61 77.1117 117.267C77.1117 117.038 76.9974 116.81 76.8831 116.695L76.7688 116.581C77.9119 113.952 79.2837 111.208 80.5412 108.465C81.913 105.492 83.3991 102.406 84.5423 99.6621C84.8853 98.9762 85.2282 98.176 85.7998 97.7187C86.8286 96.9185 88.3148 97.0328 89.5722 97.2615C92.6588 97.7187 95.5167 98.6333 98.3746 100.005C97.3458 107.893 97.2315 110.865 97.5744 118.067Z" fill="black"/>
<path d="M120.438 53.4779C119.524 60.2226 118.152 67.196 119.981 73.8264C120.895 77.4845 120.781 95.8895 106.034 101.148C98.2607 103.892 89.344 103.32 81.2275 98.5188C75.7403 95.2036 69.1099 84.9151 70.4817 74.7409C66.0234 75.9984 61.565 72.9118 61.4507 68.9107C61.4507 66.6244 63.9657 63.6521 66.7093 63.7665C68.767 63.8808 69.1099 63.8808 70.7104 65.1383C71.8535 60.337 72.4251 55.5356 72.4251 49.9341C77.5694 44.3326 85.8002 41.3604 94.031 40.2172C96.7746 39.7599 99.5182 39.5313 102.262 39.8742C110.035 40.9031 121.353 46.6189 120.438 53.4779Z" fill="white"/>
<path d="M96.4331 103.435C99.7483 103.435 102.949 102.863 106.264 101.72C121.126 96.4613 121.697 78.1706 120.554 73.7123C119.068 67.9964 119.868 61.9376 120.783 55.9932C120.897 55.1929 121.011 54.3927 121.126 53.5925C121.354 51.6491 120.783 49.7057 119.296 47.8767C115.753 43.304 107.865 40.1031 102.378 39.4172C99.291 39.0743 96.3188 39.4172 93.9181 39.7602C87.1734 40.789 77.7994 43.304 71.9693 49.7057C71.8549 49.82 71.8549 49.9344 71.8549 50.0487C71.9693 54.7357 71.512 59.3083 70.3688 64.224C69.2256 63.4238 68.6541 63.4238 66.825 63.3094C65.4532 63.1951 64.0814 63.881 62.9382 64.9099C61.795 66.053 60.9948 67.6535 60.9948 68.911C60.9948 70.8544 62.0237 72.7977 63.7384 74.0552C65.4532 75.3127 67.7395 75.8843 69.9115 75.5414C68.997 85.9442 75.6274 95.7754 81.0003 99.0906C85.8016 101.949 91.0602 103.435 96.4331 103.435ZM99.5196 40.3317C100.434 40.3317 101.234 40.3317 102.149 40.4461C107.522 41.132 115.067 44.2185 118.382 48.4482C119.639 50.0487 120.211 51.7634 119.982 53.3639C119.868 54.1641 119.754 54.9643 119.639 55.7645C118.839 61.709 117.925 67.9964 119.525 73.9409C120.211 76.4559 121.011 95.3182 105.921 100.577C97.8049 103.435 89.2311 102.52 81.6862 97.9475C76.5419 94.8609 69.9116 84.801 71.169 74.7411C71.169 74.5125 71.169 74.3982 70.9404 74.2839C70.8261 74.1695 70.5974 74.1695 70.3688 74.1695C68.3111 74.7411 66.0248 74.3982 64.31 73.0264C62.9382 71.9975 62.0237 70.3971 62.0237 68.7967C62.0237 67.7678 62.5953 66.5103 63.6241 65.5958C64.5387 64.6812 65.6818 64.224 66.7107 64.224C68.7684 64.3383 68.8827 64.3383 70.3688 65.4815C70.4831 65.5958 70.7118 65.5958 70.9404 65.5958C71.169 65.4815 71.2833 65.3671 71.2833 65.1385C72.5408 59.8799 72.9981 55.0786 72.9981 50.0487C78.5996 43.9899 87.5164 41.5892 94.0324 40.6747C95.6329 40.5604 97.4619 40.3317 99.5196 40.3317Z" fill="black"/>
<path d="M87.859 78.9708C92.6603 78.9708 96.8901 74.9697 97.6903 69.5969C98.0332 66.8532 97.4617 63.9953 95.8612 61.8233C94.2608 59.537 92.0888 58.1652 89.4595 57.8222C86.9445 57.4793 84.3152 58.2795 82.2575 59.9942C80.1998 61.709 78.9423 64.224 78.4851 67.0819C78.1421 69.8255 78.7137 72.6834 80.3141 74.8554C81.9146 77.1418 84.0866 78.5136 86.7159 78.8565C87.1731 78.9708 87.5161 78.9708 87.859 78.9708ZM88.3163 58.8511C88.6593 58.8511 89.0022 58.8511 89.3452 58.9654C91.6315 59.3083 93.5749 60.4515 94.9467 62.5092C96.3185 64.4526 96.8901 66.9676 96.5471 69.4825C95.8612 74.6268 91.5172 78.3993 86.9445 77.8277C84.6582 77.4847 82.7148 76.3416 81.343 74.2838C79.9712 72.3405 79.3996 69.8255 79.7425 67.3105C80.0855 64.7955 81.2287 62.5092 83.0577 60.9088C84.5438 59.537 86.4872 58.8511 88.3163 58.8511Z" fill="black"/>
<path d="M114.719 80.1142C119.521 80.1142 123.75 76.1131 124.551 70.7402C125.351 64.91 121.578 59.6514 116.32 58.9655C111.061 58.2796 106.146 62.395 105.46 68.2252C104.66 74.0554 108.432 79.3139 113.691 79.9998C113.919 80.1141 114.262 80.1142 114.719 80.1142ZM115.177 60.1087C115.52 60.1087 115.863 60.1087 116.206 60.223C120.892 60.7946 124.093 65.4816 123.407 70.7402C122.722 75.8844 118.378 79.6569 113.805 79.0853C109.118 78.5137 105.917 73.8267 106.603 68.5681C107.06 63.6525 110.833 60.1087 115.177 60.1087Z" fill="black"/>
<path d="M64.5356 12.6673C67.2792 3.63622 76.7675 -1.39373 85.7986 1.34988C94.8296 4.09349 99.8595 13.5818 97.1159 22.6128C94.3723 31.6439 84.884 36.6738 75.853 33.9302C66.9363 31.1866 61.792 21.6983 64.5356 12.6673Z" fill="#BEE8FF"/>
<path d="M80.8848 35.1875C88.4297 35.1875 95.4031 30.2719 97.6894 22.727C100.547 13.4673 95.2887 3.63605 85.9148 0.778126C76.6551 -2.0798 66.8238 3.17878 63.9659 12.5528C61.108 21.8124 66.3666 31.6437 75.7406 34.5016C77.4553 34.9589 79.1701 35.1875 80.8848 35.1875ZM80.8848 1.12108C82.4853 1.12108 84.0857 1.34971 85.6861 1.80698C94.3742 4.43627 99.2898 13.6959 96.6605 22.384C94.0313 31.0721 84.7716 35.9877 76.0835 33.3584C67.3954 30.7292 62.4798 21.4695 65.1091 12.7814C67.2811 5.69376 73.7972 1.12108 80.8848 1.12108Z" fill="black"/>
<path d="M71.2791 65.8245C75.6231 59.0798 78.2524 54.2785 79.7386 46.162C95.7429 55.6503 110.947 53.9356 126.266 53.364C126.608 50.7347 126.037 48.1054 125.008 45.5904C122.379 39.5316 119.064 34.2731 109.804 30.1576C103.288 27.2997 94.5997 25.3563 87.6264 26.3852C80.6531 27.414 74.7086 31.1865 69.793 35.6449C65.9062 39.1887 62.591 45.1332 61.4478 50.9633C60.419 55.9933 61.6765 59.6514 63.9628 64.6814C65.2203 63.9955 66.3635 63.3096 67.8496 63.6525C69.1071 63.9955 70.1359 64.7957 71.2791 65.8245Z" fill="#BEE8FF"/>
<path d="M71.2815 66.396C71.2815 66.396 71.3958 66.396 71.2815 66.396C71.5102 66.396 71.6245 66.2816 71.7388 66.1673C75.6256 60.1085 78.5978 55.1929 80.0839 47.0764C94.6022 55.4215 108.663 54.7356 122.267 54.1641C123.524 54.0497 124.896 54.0497 126.154 54.0497C126.382 54.0497 126.611 53.8211 126.725 53.5925C127.068 51.0775 126.611 48.3339 125.353 45.5903C122.953 40.1031 119.752 34.2729 109.921 29.9289C104.09 27.2996 95.1738 25.0132 87.4002 26.0421C81.1128 26.9566 75.054 30.1575 69.2238 35.5304C65.1084 39.3029 61.9075 45.2473 60.7644 51.1918C59.7355 56.5647 61.2216 60.5658 63.2793 65.2528C63.3937 65.3671 63.508 65.4814 63.6223 65.5957C63.7366 65.5957 63.9652 65.5957 64.0795 65.5957L64.1939 65.4814C65.337 64.9098 66.3659 64.3383 67.5091 64.5669C68.8809 64.7955 69.7954 65.5957 70.8243 66.5103C71.0529 66.396 71.1672 66.396 71.2815 66.396ZM79.741 45.5903C79.6267 45.5903 79.6266 45.5903 79.5123 45.5903C79.398 45.7046 79.1694 45.8189 79.1694 46.0476C77.7976 54.1641 74.9397 59.0797 71.1672 65.0242C70.1384 64.1096 69.2238 63.4237 67.7377 63.1951C66.3659 62.9665 65.1084 63.4237 63.9652 63.9953C61.7932 58.9654 60.8787 55.6502 61.7932 51.0775C62.9364 45.476 66.1373 39.6458 69.9097 36.102C75.5112 30.8434 81.4557 27.8712 87.4002 26.9566C94.9451 25.8135 103.633 28.2141 109.349 30.7291C118.837 34.9588 121.924 40.5603 124.21 45.8189C125.239 48.2196 125.696 50.6202 125.468 52.7923C124.325 52.7923 123.181 52.9066 122.038 52.9066C108.435 53.4782 94.2592 54.1641 79.741 45.5903C79.9696 45.5903 79.8553 45.5903 79.741 45.5903Z" fill="black"/>
<path d="M94.4862 91.4313C95.6294 91.4313 96.6583 91.0883 97.5728 90.4024C97.8014 90.1738 97.8014 89.8308 97.6871 89.6022C97.4585 89.3736 97.1155 89.3736 96.8869 89.4879C95.7437 90.4024 94.1433 90.5167 92.5429 89.8308C90.7138 89.0306 89.2277 87.5445 88.3131 85.7154C88.1988 85.4868 87.8559 85.2582 87.5129 85.4868C87.2843 85.6011 87.0556 85.9441 87.2843 86.287C88.3131 88.459 90.0279 90.1738 92.0856 90.974C92.7715 91.317 93.686 91.4313 94.4862 91.4313Z" fill="black"/>
<path d="M86.416 67.9964C86.5303 67.1962 87.3305 66.6246 88.245 66.7389C89.1596 66.8532 89.7312 67.6535 89.6169 68.4537C89.5025 69.2539 88.7023 69.8255 87.7878 69.7112C86.8732 69.5969 86.3017 68.911 86.416 67.9964Z" fill="black"/>
<path d="M109.966 69.597C110.08 68.7968 110.88 68.2252 111.795 68.3395C112.709 68.4538 113.281 69.2541 113.167 70.0543C113.052 70.8545 112.252 71.4261 111.337 71.3118C110.423 71.1974 109.851 70.3972 109.966 69.597Z" fill="black"/>
<path d="M103.747 81.4857C103.861 81.4857 103.861 81.4857 103.975 81.4857L106.148 80.6855C106.376 80.5712 106.948 80.3426 107.062 79.8853C107.291 79.3137 106.948 78.7421 106.719 78.5135C105.119 76.3415 104.547 73.4835 105.233 70.8542C105.347 70.5113 105.119 70.2827 104.89 70.1683C104.547 70.054 104.318 70.2827 104.204 70.5113C103.404 73.3692 103.975 76.6844 105.805 79.0851C105.805 79.1994 106.033 79.3137 106.033 79.428C106.033 79.428 105.919 79.5423 105.69 79.5423L103.518 80.3426C103.175 80.4569 103.061 80.7998 103.175 81.0285C103.29 81.3714 103.518 81.4857 103.747 81.4857Z" fill="black"/>
<path d="M106.148 67.1963C106.491 67.1963 106.72 66.9677 106.72 66.6247C106.72 65.1386 105.348 64.1098 103.862 63.7668C101.461 63.1952 98.8317 63.7668 97.0027 65.3673C96.774 65.5959 96.774 65.9388 97.0027 66.1675C97.2313 66.3961 97.5742 66.3961 97.8029 66.1675C99.289 64.7957 101.575 64.3384 103.633 64.7957C104.662 65.0243 105.691 65.7102 105.691 66.6247C105.576 66.9677 105.805 67.1963 106.148 67.1963Z" fill="black"/>
<path d="M72.0806 65.9388L79.5112 65.7102C79.8541 65.7102 80.0828 65.4816 80.0828 65.1386C80.0828 64.7957 79.8541 64.567 79.5112 64.567L72.0806 64.7957C71.7376 64.7957 71.509 65.0243 71.509 65.3672C71.509 65.7102 71.7376 65.9388 72.0806 65.9388Z" fill="black"/>
<path d="M70.5955 71.4261C70.9385 71.4261 71.1671 71.1974 71.1671 70.8545C71.1671 68.9111 71.5101 66.9677 72.3103 65.2529C72.4246 65.0243 72.3103 64.6814 71.9673 64.567C71.7387 64.4527 71.3957 64.567 71.2814 64.91C70.4812 66.8534 70.0239 68.9111 70.0239 70.9688C70.0239 71.1974 70.2526 71.4261 70.5955 71.4261Z" fill="black"/>
<path d="M94.6026 21.3551C94.1453 21.0121 93.5738 21.0121 93.0022 21.0121C92.0876 21.0121 91.2874 20.8978 90.3729 21.0121C85.3429 21.1264 80.4273 22.8412 75.969 25.3562C74.8258 26.0421 73.7969 26.8423 72.6538 27.6425C72.0822 28.0998 71.1676 28.557 70.939 29.3572C70.0245 31.1863 72.4251 33.0154 74.0256 31.5293C76.3119 29.4716 80.9989 26.8423 84.0854 26.0421C87.0577 25.1275 87.8579 25.1275 90.6015 24.8989C91.4017 24.7846 92.202 24.7846 93.0022 24.7846C93.6881 24.8989 94.374 24.7846 94.9456 24.3273C95.7458 23.4128 95.6315 21.9267 94.6026 21.3551Z" fill="black"/>
<path d="M119.181 54.5069C118.952 54.0497 118.38 53.7067 117.809 53.7067C117.58 53.7067 116.551 53.821 116.323 53.821C114.722 53.9353 113.236 54.0497 111.636 54.0497C108.663 53.9353 105.577 54.0497 102.605 53.7067C98.9465 53.3638 95.7456 52.6779 91.6302 51.649C87.9721 50.5058 85.3428 49.134 81.7989 46.7334C81.2273 46.3904 80.5415 45.7045 79.8556 45.9332C78.941 46.1618 78.7124 47.5336 79.5126 47.9909C83.3994 50.5058 87.4005 53.1351 91.8588 54.3926C94.4881 55.1928 97.1174 55.7644 99.861 56.2217C102.033 56.4503 104.205 56.5646 106.377 56.7933C109.692 56.9076 113.007 57.1362 116.323 56.9076C116.894 56.9076 117.352 56.7933 117.923 56.7933C118.266 56.7933 118.609 56.6789 118.838 56.4503C119.295 55.993 119.524 55.0785 119.181 54.5069Z" fill="black"/>
<path d="M98.031 112.123C98.031 111.551 98.031 110.979 98.031 110.408C98.031 109.265 98.031 108.236 98.1453 107.093C98.1453 106.064 98.2597 105.035 98.2597 104.006C98.2597 103.892 98.2596 103.777 98.374 103.777C98.374 103.663 98.374 103.663 98.374 103.549C98.374 103.32 98.4883 103.206 98.7169 103.092C98.1453 102.406 97.1165 102.749 96.3163 102.863C95.7447 102.977 95.0588 102.977 93.8013 102.977C92.7724 102.977 89.9145 102.177 89 102.177C88.657 102.177 88.4284 102.291 88.1998 102.52C87.7425 102.177 87.2852 101.834 86.9423 101.377C86.7136 101.148 86.3707 100.919 86.1421 100.691C85.3418 100.462 84.5416 100.234 83.8557 99.8906C83.8557 100.005 83.8557 100.119 83.7414 100.119C83.7414 100.234 83.6271 100.348 83.6271 100.462C83.6271 100.577 83.5128 100.577 83.5128 100.691C83.2841 100.919 83.0555 101.262 82.9412 101.491C82.9412 101.605 83.0555 101.605 83.0555 101.72C85.4562 104.12 88.0854 106.292 90.4861 108.693C91.6293 109.951 92.8868 111.094 94.0299 112.351C94.6015 112.808 95.0588 113.38 95.7447 113.723C95.7447 113.723 95.7447 113.723 95.859 113.723C95.859 113.723 95.9733 113.723 95.9733 113.837C96.0876 113.837 96.0876 113.952 96.202 113.952C96.3163 113.952 96.4306 114.066 96.6592 114.066C97.2308 114.066 97.6881 113.837 97.9167 113.38C98.031 113.266 98.1453 113.266 98.2597 113.151C98.031 112.694 98.031 112.465 98.031 112.123Z" fill="black"/>
<path d="M38.3583 227.011C52.9909 227.011 78.0263 226.897 90.8298 226.897C94.8309 226.897 97.4602 226.897 98.0318 226.897C98.3747 226.897 98.6034 226.668 98.6034 226.325C98.6034 225.068 99.1749 218.781 99.4036 215.008C99.5179 213.522 99.6322 212.379 99.6322 211.922C101.118 202.548 106.606 195.803 110.95 190.544C113.35 187.686 115.408 185.171 116.322 182.771C118.609 177.055 118.037 172.482 117.237 166.195C116.208 158.078 114.836 146.989 118.037 125.955C118.037 125.727 118.037 125.612 117.809 125.498C114.265 122.297 105.691 118.982 100.089 116.81C99.4036 116.581 98.7177 116.238 98.1461 116.01C97.9174 115.895 97.8031 116.01 97.5745 116.01C97.4602 116.124 97.3459 116.238 97.3459 116.467C97.3459 123.669 95.9741 128.47 93.4591 130.756C91.973 132.014 90.2582 132.471 88.0862 132.243C82.0274 131.557 78.0263 124.698 77.3404 113.952C77.3404 113.838 77.2261 113.609 77.1118 113.609C76.9975 113.495 76.8831 113.495 76.6545 113.495C74.1395 113.609 71.5102 113.723 69.1096 113.838C60.5358 114.181 52.5336 114.523 44.9887 117.267C44.8744 117.267 44.7601 117.381 44.6458 117.496C35.8434 135.215 29.7846 158.307 28.1841 180.827C27.7269 186.657 27.6125 194.317 27.4982 202.319C27.3839 211.007 27.1553 220.038 26.5837 226.44C26.5837 226.554 26.5837 226.783 26.698 226.897C26.8123 227.011 26.9266 227.126 27.041 227.126C28.2984 227.011 32.5282 227.011 38.3583 227.011ZM97.4602 225.754C96.4313 225.754 94.0307 225.754 90.8298 225.754C73.5679 225.868 34.2429 225.982 27.9555 225.868C28.5271 219.352 28.6414 210.664 28.7557 202.205C28.87 194.202 28.9844 186.657 29.4416 180.827C31.0421 158.878 37.2152 135.443 45.6746 118.182C52.9909 115.552 60.8788 115.324 69.2239 114.981C71.5102 114.866 73.9109 114.752 76.3116 114.638C77.1118 125.612 81.4558 132.586 87.9719 133.386C90.4869 133.729 92.6589 133.043 94.2593 131.557C97.0029 129.156 98.489 124.355 98.6034 117.267C98.9463 117.381 99.4036 117.61 99.7465 117.724C105.119 119.896 113.236 122.983 116.894 125.955C113.693 146.989 115.065 158.078 116.094 166.195C116.894 172.596 117.351 176.712 115.179 182.199C114.265 184.371 112.321 186.886 110.035 189.63C105.577 195.117 99.9752 201.862 98.489 211.579C98.489 212.036 98.3747 213.179 98.2604 214.665C98.0318 218.438 97.5745 223.81 97.4602 225.754Z" fill="black"/>
<path d="M10.1236 219.581C17.0969 219.581 32.301 215.579 58.9369 191.001C63.2809 187 69.3397 186.429 75.1699 186.429C75.1699 186.429 75.1699 186.429 75.2842 186.429C76.313 186.429 77.4562 186.429 78.4851 186.543C81.6859 186.657 85.0011 186.772 88.202 185.857C88.6593 185.743 89.1165 185.514 89.5738 185.171C90.1454 184.6 90.374 183.914 90.1454 183.228C89.8024 182.313 88.4306 181.742 86.1443 181.513C84.0866 181.399 81.5716 181.17 79.0567 180.599C80.1998 180.484 81.4573 180.256 82.6005 180.027C84.6582 179.684 86.8302 179.341 88.7736 179.112C90.8313 178.884 93.2319 178.541 94.3751 176.597C94.7181 176.14 94.8324 175.683 94.7181 175.226C94.6038 174.654 94.1465 173.968 92.5461 173.854C90.1454 173.739 87.5161 173.968 85.0011 174.197C83.4007 174.311 81.6859 174.425 80.0855 174.54C83.7436 172.939 87.4018 172.139 90.374 171.567C94.7181 170.653 97.9189 169.853 97.9189 167.223C97.9189 166.766 97.6903 166.309 97.3474 166.08C96.0899 165.051 93.0033 165.737 88.0877 166.88C85.687 167.452 83.1721 168.024 81.1144 168.252C82.7148 167.566 84.5439 166.995 86.4873 166.423C91.0599 165.051 94.9467 163.908 94.7181 161.393C94.7181 160.936 94.4894 160.593 94.1465 160.364C92.546 159.221 87.5161 160.364 82.8291 161.622C82.4862 161.736 82.1432 161.851 81.8003 161.851C80.4285 162.193 79.171 162.651 78.0278 162.994C75.8558 163.68 74.0267 164.366 71.6261 164.48C72.6549 162.765 74.5983 160.707 76.4274 158.878C79.0567 156.135 80.5428 154.534 80.4285 153.391C80.4285 153.048 80.1998 152.819 79.8569 152.591C76.9989 150.99 73.3408 154.42 69.6827 157.735C68.7681 158.535 67.8536 159.336 67.0534 160.021C64.8814 161.851 62.8236 163.908 60.9946 165.852C58.9369 167.909 57.2221 169.738 56.1933 170.196C52.4208 172.025 46.2477 175.569 40.8748 178.769C37.7883 180.599 34.816 182.313 32.644 183.456C32.301 183.685 31.8438 183.914 31.3865 184.142L31.5008 184.028C31.7294 183.685 31.9581 183.228 32.301 182.771C35.159 177.969 41.2178 165.737 45.7904 153.734C49.9058 142.874 54.1356 128.356 50.9347 121.497C49.9058 119.21 48.0768 117.839 45.5618 117.496C40.1889 116.581 34.1301 120.582 27.614 129.156C19.4975 139.902 11.2667 157.392 5.66519 175.797C0.0636571 194.317 -1.53675 209.292 1.54981 215.694C2.57866 217.752 4.52201 219.123 7.37994 219.695C8.06584 219.466 8.9804 219.581 10.1236 219.581ZM75.1699 185.286C69.1111 185.286 62.8237 185.857 58.1367 190.201C46.2477 201.176 35.5019 209.063 26.0136 213.865C16.411 218.666 10.6951 218.895 7.49426 218.323C5.09361 217.866 3.26454 216.723 2.46432 214.894C-3.82311 201.747 11.2667 152.248 28.3 129.499C34.4731 121.382 40.3032 117.496 45.1045 118.296C47.2766 118.639 48.6484 119.782 49.5629 121.725C55.2787 133.957 36.5308 172.711 30.9292 181.97C30.7006 182.428 30.3576 182.885 30.129 183.228C29.3288 184.485 29.1002 184.943 29.4431 185.4C29.9004 185.857 30.472 185.514 32.7583 184.371C34.9303 183.228 37.9026 181.513 40.9891 179.684C46.362 176.483 52.5351 172.939 56.3076 171.225C57.4508 170.653 59.1655 168.938 61.4519 166.652C63.2809 164.823 65.3386 162.651 67.3963 160.936C68.1966 160.25 69.1111 159.45 70.0256 158.535C73.2265 155.563 76.7703 152.248 78.828 153.505C78.828 154.191 76.656 156.478 75.1699 158.078C72.9979 160.364 70.5972 162.879 69.797 164.823C69.6827 165.051 69.797 165.166 69.797 165.394C69.9113 165.509 70.0256 165.623 70.2543 165.623C73.2265 165.623 75.5128 164.823 77.9135 164.137C79.0567 163.794 80.3141 163.337 81.6859 162.994C81.9146 162.879 82.2575 162.879 82.7148 162.765C85.2298 162.079 91.7458 160.364 93.1176 161.393C93.232 161.508 93.2319 161.508 93.2319 161.622C93.3463 163.222 89.3452 164.366 85.8013 165.509C82.9434 166.423 79.9712 167.338 78.0278 168.595C77.7992 168.71 77.6848 168.938 77.7992 169.167C77.9135 169.395 78.0278 169.51 78.2564 169.624C80.7714 169.853 84.4296 168.938 87.9734 168.138C91.5172 167.338 95.404 166.423 96.3185 167.223C96.4328 167.223 96.4328 167.338 96.4328 167.452C96.4328 169.167 94.1465 169.738 89.6881 170.767C86.03 171.567 81.5716 172.596 76.8846 174.883C76.656 174.997 76.5417 175.226 76.5417 175.454C76.5417 175.683 76.7703 175.912 77.1133 175.912C79.5139 176.026 82.1432 175.797 84.6582 175.569C87.1731 175.34 89.8024 175.226 92.0888 175.226C92.4317 175.226 93.1176 175.34 93.2319 175.683C93.2319 175.797 93.2319 176.026 93.0033 176.254C92.0888 177.741 90.2597 178.084 88.3163 178.198C86.3729 178.312 84.2009 178.769 82.1432 179.112C80.0855 179.455 77.9135 179.798 75.9701 180.027C75.7415 180.027 75.5128 180.256 75.5128 180.484C75.5128 180.713 75.6271 180.941 75.8558 181.056C79.171 182.313 82.9434 182.542 85.8013 182.771C88.4306 182.999 88.7736 183.571 88.7736 183.799C88.8879 184.028 88.545 184.371 88.4306 184.485C88.202 184.714 87.9734 184.828 87.6304 184.943C84.5439 185.857 81.343 185.743 78.2564 185.628C77.4562 185.286 76.3131 185.286 75.1699 185.286Z" fill="black"/>
<path d="M98.0328 226.325C95.4035 226.325 31.8433 226.668 27.385 226.44C28.5281 214.093 28.0709 193.173 28.9854 180.827C30.5858 160.021 36.1874 136.358 45.447 117.724C55.164 114.18 66.0241 114.752 76.9985 114.066C77.6844 124.698 81.6855 132.014 88.3159 132.814C91.974 133.271 98.2614 132.242 98.2614 116.467C103.634 118.639 113.809 122.297 117.695 125.841C111.979 163.794 121.011 169.853 115.981 182.542C113.351 189.058 101.462 197.174 99.176 211.807C98.9473 213.522 98.0328 224.61 98.0328 226.325Z" fill="white"/>
<path d="M97.3436 133.043H97.458C100.659 129.842 102.374 125.384 102.259 120.925C102.259 120.811 102.145 120.697 102.031 120.697C101.916 120.697 101.802 120.811 101.802 120.925C101.916 125.269 100.202 129.728 97.115 132.814C97.0007 132.929 97.0007 133.043 97.115 133.043C97.2293 133.043 97.3436 133.043 97.3436 133.043Z" fill="black"/>
<path d="M104.319 127.099C104.434 127.099 104.434 127.099 104.434 126.984C105.234 125.27 105.691 123.326 105.691 121.497C105.691 121.383 105.577 121.268 105.463 121.268C105.348 121.268 105.234 121.383 105.234 121.497C105.234 123.326 104.777 125.155 104.091 126.87C104.091 126.984 104.205 127.099 104.319 127.099Z" fill="black"/>
<path d="M101.46 48.7912C102.146 48.7912 102.832 48.7912 103.632 48.6768C103.746 48.6768 103.86 48.5625 103.86 48.4482C103.86 48.3339 103.746 48.2196 103.632 48.2196C95.8583 48.6768 87.8561 46.7335 81.1114 42.8467C80.9971 42.8467 80.8828 42.8467 80.8828 42.961C80.8828 43.0753 80.8828 43.1896 80.9971 43.1896C87.0559 46.8478 94.2579 48.7912 101.46 48.7912Z" fill="black"/>
<path d="M70.2513 28.2141H70.3656C71.966 26.728 73.9094 25.5848 75.9671 25.0132C76.0814 25.0132 76.0814 24.8989 76.0814 24.7846C76.0814 24.6703 75.9671 24.6703 75.8528 24.6703C73.6808 25.2419 71.7374 26.385 70.1369 27.9855C70.0226 28.0998 70.0226 28.2141 70.1369 28.2141C70.2513 28.2141 70.2513 28.2141 70.2513 28.2141Z" fill="black"/>
<path d="M69.2218 25.6994C70.1364 25.1278 71.1652 24.5562 72.0798 24.0989C72.1941 24.0989 72.1941 23.9846 72.1941 23.8703C72.1941 23.756 72.0798 23.756 71.9655 23.756C70.9366 24.2132 70.0221 24.6705 69.1075 25.3564C68.9932 25.4707 68.9932 25.5851 69.1075 25.5851C69.1075 25.6994 69.1075 25.6994 69.2218 25.6994Z" fill="black"/>
<path d="M287.775 73.8986C289.202 72.4889 290.004 70.577 290.004 68.5834V12.8787C290.004 10.8851 289.202 8.9732 287.775 7.56353C286.347 6.15386 284.412 5.36192 282.393 5.36192L138.8 5.36133C136.781 5.36133 134.845 6.15327 133.418 7.56294C131.991 8.97261 131.189 10.8845 131.189 12.8781V76.0996L113.004 95.3613L146.41 76.0996L282.393 76.1002C284.412 76.1002 286.347 75.3082 287.775 73.8986Z" fill="white" stroke="black" stroke-linecap="round" stroke-linejoin="round"/>
<path d="M154.384 18.0013V29.3613H153.28V24.0493H146.544V29.3613H145.424V18.0013H146.544V23.0573H153.28V18.0013H154.384ZM159.03 29.5213C158.636 29.5213 158.268 29.4573 157.926 29.3293C157.596 29.1907 157.302 29.004 157.046 28.7693C156.801 28.5347 156.609 28.2627 156.47 27.9533C156.332 27.6333 156.262 27.292 156.262 26.9293C156.262 26.5667 156.348 26.2307 156.518 25.9213C156.689 25.612 156.929 25.3453 157.238 25.1213C157.548 24.8973 157.916 24.7267 158.342 24.6093C158.769 24.4813 159.238 24.4173 159.75 24.4173C160.177 24.4173 160.609 24.4547 161.046 24.5293C161.484 24.604 161.873 24.7107 162.214 24.8493V24.0973C162.214 23.3613 162.006 22.78 161.59 22.3533C161.174 21.916 160.598 21.6973 159.862 21.6973C159.436 21.6973 158.998 21.7827 158.55 21.9533C158.102 22.124 157.649 22.3693 157.19 22.6893L156.806 21.9693C157.884 21.244 158.929 20.8813 159.942 20.8813C160.988 20.8813 161.809 21.1747 162.406 21.7613C163.004 22.348 163.302 23.1587 163.302 24.1933V27.9533C163.302 28.252 163.436 28.4013 163.702 28.4013V29.3613C163.521 29.3933 163.382 29.4093 163.286 29.4093C163.009 29.4093 162.79 29.34 162.63 29.2013C162.481 29.0627 162.401 28.8707 162.39 28.6253L162.358 27.9693C161.974 28.4707 161.489 28.8547 160.902 29.1213C160.326 29.388 159.702 29.5213 159.03 29.5213ZM159.286 28.6893C159.852 28.6893 160.369 28.5827 160.838 28.3693C161.318 28.156 161.681 27.8733 161.926 27.5213C162.022 27.4253 162.092 27.324 162.134 27.2173C162.188 27.1 162.214 26.9933 162.214 26.8973V25.5373C161.852 25.3987 161.473 25.292 161.078 25.2173C160.694 25.1427 160.3 25.1053 159.894 25.1053C159.126 25.1053 158.502 25.2653 158.022 25.5853C157.542 25.9053 157.302 26.3267 157.302 26.8493C157.302 27.1053 157.35 27.3453 157.446 27.5693C157.553 27.7933 157.692 27.9907 157.862 28.1613C158.044 28.3213 158.257 28.4493 158.502 28.5453C158.748 28.6413 159.009 28.6893 159.286 28.6893ZM165.701 17.6813H166.789V27.4733C166.789 27.7827 166.874 28.028 167.045 28.2093C167.216 28.38 167.456 28.4653 167.765 28.4653C167.882 28.4653 168.021 28.4493 168.181 28.4173C168.341 28.3853 168.49 28.3427 168.629 28.2893L168.821 29.1693C168.618 29.2547 168.368 29.324 168.069 29.3773C167.781 29.4307 167.53 29.4573 167.317 29.4573C166.816 29.4573 166.421 29.3187 166.133 29.0413C165.845 28.7533 165.701 28.3533 165.701 27.8413V17.6813ZM170.061 17.6813H171.149V27.4733C171.149 27.7827 171.234 28.028 171.405 28.2093C171.575 28.38 171.815 28.4653 172.125 28.4653C172.242 28.4653 172.381 28.4493 172.541 28.4173C172.701 28.3853 172.85 28.3427 172.989 28.2893L173.181 29.1693C172.978 29.2547 172.727 29.324 172.429 29.3773C172.141 29.4307 171.89 29.4573 171.677 29.4573C171.175 29.4573 170.781 29.3187 170.493 29.0413C170.205 28.7533 170.061 28.3533 170.061 27.8413V17.6813ZM177.924 29.5213C177.316 29.5213 176.761 29.4093 176.26 29.1853C175.759 28.9507 175.321 28.636 174.948 28.2413C174.585 27.8467 174.303 27.388 174.1 26.8653C173.897 26.3427 173.796 25.7933 173.796 25.2173C173.796 24.6307 173.897 24.076 174.1 23.5533C174.313 23.0307 174.601 22.572 174.964 22.1773C175.337 21.7827 175.775 21.468 176.276 21.2333C176.777 20.9987 177.327 20.8813 177.924 20.8813C178.521 20.8813 179.071 20.9987 179.572 21.2333C180.084 21.468 180.521 21.7827 180.884 22.1773C181.257 22.572 181.545 23.0307 181.748 23.5533C181.961 24.076 182.068 24.6307 182.068 25.2173C182.068 25.7933 181.967 26.3427 181.764 26.8653C181.561 27.388 181.273 27.8467 180.9 28.2413C180.537 28.636 180.1 28.9507 179.588 29.1853C179.087 29.4093 178.532 29.5213 177.924 29.5213ZM174.9 25.2333C174.9 25.7027 174.98 26.14 175.14 26.5453C175.3 26.94 175.513 27.292 175.78 27.6013C176.057 27.9 176.377 28.1347 176.74 28.3053C177.113 28.476 177.508 28.5613 177.924 28.5613C178.34 28.5613 178.729 28.476 179.092 28.3053C179.465 28.124 179.791 27.884 180.068 27.5853C180.345 27.276 180.564 26.9187 180.724 26.5133C180.884 26.108 180.964 25.6707 180.964 25.2013C180.964 24.7427 180.884 24.3107 180.724 23.9053C180.564 23.4893 180.345 23.132 180.068 22.8333C179.791 22.524 179.465 22.284 179.092 22.1133C178.729 21.932 178.34 21.8413 177.924 21.8413C177.508 21.8413 177.119 21.932 176.756 22.1133C176.393 22.284 176.073 22.524 175.796 22.8333C175.519 23.1427 175.3 23.5053 175.14 23.9213C174.98 24.3267 174.9 24.764 174.9 25.2333ZM190.574 29.5213C189.667 29.5213 188.99 29.2227 188.542 28.6253C188.104 28.0173 187.886 27.116 187.886 25.9213V21.0253H188.974V25.7293C188.974 27.6173 189.619 28.5613 190.91 28.5613C191.23 28.5613 191.544 28.508 191.854 28.4013C192.163 28.2947 192.446 28.14 192.702 27.9373C192.968 27.7347 193.203 27.4947 193.406 27.2173C193.619 26.94 193.79 26.6253 193.918 26.2733V21.0253H195.006V27.9533C195.006 28.252 195.134 28.4013 195.39 28.4013V29.3613C195.262 29.3827 195.155 29.3933 195.07 29.3933C194.995 29.3933 194.942 29.3933 194.91 29.3933C194.654 29.3827 194.446 29.292 194.286 29.1213C194.126 28.9507 194.046 28.7213 194.046 28.4333V27.4733C193.683 28.124 193.187 28.6307 192.558 28.9933C191.939 29.3453 191.278 29.5213 190.574 29.5213ZM204.474 29.3613H203.386V24.7053C203.386 23.7133 203.236 22.9933 202.938 22.5453C202.65 22.0973 202.202 21.8733 201.594 21.8733C201.274 21.8733 200.954 21.932 200.634 22.0493C200.314 22.1667 200.015 22.332 199.738 22.5453C199.471 22.7587 199.231 23.0147 199.018 23.3133C198.804 23.6013 198.65 23.916 198.554 24.2573V29.3613H197.466V21.0253H198.458V22.9133C198.799 22.3053 199.284 21.8147 199.914 21.4413C200.554 21.068 201.247 20.8813 201.994 20.8813C202.452 20.8813 202.842 20.9667 203.162 21.1373C203.482 21.308 203.738 21.548 203.93 21.8573C204.122 22.1667 204.26 22.5453 204.346 22.9933C204.431 23.4413 204.474 23.9373 204.474 24.4813V29.3613ZM217.88 29.3613H216.792V24.7053C216.792 23.756 216.627 23.0467 216.296 22.5773C215.976 22.108 215.501 21.8733 214.872 21.8733C214.563 21.8733 214.253 21.9373 213.944 22.0653C213.645 22.1827 213.363 22.348 213.096 22.5613C212.829 22.7747 212.595 23.0253 212.392 23.3133C212.2 23.6013 212.056 23.916 211.96 24.2573V29.3613H210.872V17.6813H211.96V22.9133C212.291 22.284 212.749 21.788 213.336 21.4253C213.923 21.0627 214.557 20.8813 215.24 20.8813C215.72 20.8813 216.125 20.972 216.456 21.1533C216.787 21.324 217.059 21.5693 217.272 21.8893C217.485 22.1987 217.64 22.5773 217.736 23.0253C217.832 23.4627 217.88 23.948 217.88 24.4813V29.3613ZM223.8 29.5213C223.192 29.5213 222.632 29.4093 222.12 29.1853C221.619 28.9507 221.181 28.636 220.808 28.2413C220.435 27.836 220.141 27.372 219.928 26.8493C219.725 26.3267 219.624 25.7667 219.624 25.1693C219.624 24.5827 219.725 24.0333 219.928 23.5213C220.141 22.9987 220.429 22.5453 220.792 22.1613C221.165 21.7667 221.608 21.4573 222.12 21.2333C222.632 20.9987 223.187 20.8813 223.784 20.8813C224.392 20.8813 224.947 20.9987 225.448 21.2333C225.96 21.4573 226.397 21.7667 226.76 22.1613C227.123 22.556 227.405 23.0093 227.608 23.5213C227.811 24.0333 227.912 24.5773 227.912 25.1533C227.912 25.2387 227.912 25.324 227.912 25.4093C227.912 25.4947 227.907 25.5533 227.896 25.5853H220.76C220.792 26.0333 220.893 26.4493 221.064 26.8333C221.245 27.2067 221.475 27.532 221.752 27.8093C222.029 28.0867 222.344 28.3053 222.696 28.4653C223.059 28.6147 223.443 28.6893 223.848 28.6893C224.115 28.6893 224.381 28.652 224.648 28.5773C224.915 28.5027 225.16 28.4013 225.384 28.2733C225.608 28.1453 225.811 27.9907 225.992 27.8093C226.173 27.6173 226.312 27.4093 226.408 27.1853L227.352 27.4413C227.224 27.7507 227.043 28.0333 226.808 28.2893C226.573 28.5347 226.301 28.7533 225.992 28.9453C225.683 29.1267 225.341 29.2653 224.968 29.3613C224.595 29.468 224.205 29.5213 223.8 29.5213ZM226.872 24.7533C226.84 24.3053 226.733 23.9 226.552 23.5373C226.381 23.164 226.157 22.844 225.88 22.5773C225.613 22.3107 225.299 22.1027 224.936 21.9533C224.584 21.804 224.205 21.7293 223.8 21.7293C223.395 21.7293 223.011 21.804 222.648 21.9533C222.285 22.1027 221.965 22.3107 221.688 22.5773C221.421 22.844 221.203 23.164 221.032 23.5373C220.872 23.9107 220.776 24.316 220.744 24.7533H226.872ZM233.751 21.9853C233.015 22.0067 232.375 22.2093 231.831 22.5933C231.287 22.9773 230.903 23.5053 230.679 24.1773V29.3613H229.591V21.0253H230.615V23.0253C230.924 22.3853 231.34 21.884 231.863 21.5213C232.385 21.1587 232.945 20.9773 233.543 20.9773C233.628 20.9773 233.697 20.9827 233.751 20.9933V21.9853ZM234.496 28.6253L240.128 21.8413H234.624V21.0253H241.312V21.7613L235.696 28.5453H241.296V29.3613H234.496V28.6253ZM243.123 17.6813H244.211V27.4733C244.211 27.7827 244.296 28.028 244.467 28.2093C244.638 28.38 244.878 28.4653 245.187 28.4653C245.304 28.4653 245.443 28.4493 245.603 28.4173C245.763 28.3853 245.912 28.3427 246.051 28.2893L246.243 29.1693C246.04 29.2547 245.79 29.324 245.491 29.3773C245.203 29.4307 244.952 29.4573 244.739 29.4573C244.238 29.4573 243.843 29.3187 243.555 29.0413C243.267 28.7533 243.123 28.3533 243.123 27.8413V17.6813ZM247.434 29.3613V21.0253H248.522V29.3613H247.434ZM247.434 19.2813V17.6813H248.522V19.2813H247.434ZM250.343 25.1693C250.343 24.5827 250.444 24.028 250.647 23.5053C250.849 22.9827 251.132 22.5293 251.495 22.1453C251.868 21.7507 252.311 21.4413 252.823 21.2173C253.335 20.9933 253.9 20.8813 254.519 20.8813C255.308 20.8813 255.996 21.0627 256.583 21.4253C257.169 21.7773 257.612 22.2573 257.911 22.8653L256.855 23.2013C256.62 22.7747 256.289 22.444 255.863 22.2093C255.447 21.964 254.983 21.8413 254.471 21.8413C254.044 21.8413 253.644 21.9267 253.271 22.0973C252.908 22.268 252.588 22.5027 252.311 22.8013C252.044 23.0893 251.831 23.436 251.671 23.8413C251.521 24.2467 251.447 24.6893 251.447 25.1693C251.447 25.6387 251.527 26.0813 251.687 26.4973C251.847 26.9133 252.065 27.276 252.343 27.5853C252.62 27.884 252.94 28.124 253.303 28.3053C253.676 28.476 254.071 28.5613 254.487 28.5613C254.753 28.5613 255.015 28.524 255.271 28.4493C255.537 28.3747 255.783 28.2733 256.007 28.1453C256.231 28.0067 256.423 27.852 256.583 27.6813C256.743 27.5107 256.855 27.3293 256.919 27.1373L257.991 27.4573C257.873 27.756 257.703 28.0333 257.479 28.2893C257.255 28.5347 256.988 28.7533 256.679 28.9453C256.38 29.1267 256.044 29.2653 255.671 29.3613C255.308 29.468 254.929 29.5213 254.535 29.5213C253.927 29.5213 253.367 29.4093 252.855 29.1853C252.343 28.9507 251.9 28.636 251.527 28.2413C251.153 27.836 250.86 27.372 250.647 26.8493C250.444 26.3267 250.343 25.7667 250.343 25.1693ZM266.708 29.3613H265.62V24.7053C265.62 23.756 265.455 23.0467 265.124 22.5773C264.804 22.108 264.329 21.8733 263.7 21.8733C263.391 21.8733 263.081 21.9373 262.772 22.0653C262.473 22.1827 262.191 22.348 261.924 22.5613C261.657 22.7747 261.423 23.0253 261.22 23.3133C261.028 23.6013 260.884 23.916 260.788 24.2573V29.3613H259.7V17.6813H260.788V22.9133C261.119 22.284 261.577 21.788 262.164 21.4253C262.751 21.0627 263.385 20.8813 264.068 20.8813C264.548 20.8813 264.953 20.972 265.284 21.1533C265.615 21.324 265.887 21.5693 266.1 21.8893C266.313 22.1987 266.468 22.5773 266.564 23.0253C266.66 23.4627 266.708 23.948 266.708 24.4813V29.3613ZM155.696 40.0253H156.768L153.184 48.3613H152.288L150.496 44.1053L148.72 48.3613H147.824L144.24 40.0253H145.296L148.336 47.2413L149.92 43.4333L148.496 40.0413H149.408L150.496 42.7613L151.584 40.0413H152.512L151.088 43.4333L152.672 47.2413L155.696 40.0253ZM158.216 48.3613V40.0253H159.304V48.3613H158.216ZM158.216 38.2813V36.6813H159.304V38.2813H158.216ZM161.748 36.6813H162.836V46.4733C162.836 46.7827 162.921 47.028 163.092 47.2093C163.263 47.38 163.503 47.4653 163.812 47.4653C163.929 47.4653 164.068 47.4493 164.228 47.4173C164.388 47.3853 164.537 47.3427 164.676 47.2893L164.868 48.1693C164.665 48.2547 164.415 48.324 164.116 48.3773C163.828 48.4307 163.577 48.4573 163.364 48.4573C162.863 48.4573 162.468 48.3187 162.18 48.0413C161.892 47.7533 161.748 47.3533 161.748 46.8413V36.6813ZM166.107 36.6813H167.195V46.4733C167.195 46.7827 167.281 47.028 167.451 47.2093C167.622 47.38 167.862 47.4653 168.171 47.4653C168.289 47.4653 168.427 47.4493 168.587 47.4173C168.747 47.3853 168.897 47.3427 169.035 47.2893L169.227 48.1693C169.025 48.2547 168.774 48.324 168.475 48.3773C168.187 48.4307 167.937 48.4573 167.723 48.4573C167.222 48.4573 166.827 48.3187 166.539 48.0413C166.251 47.7533 166.107 47.3533 166.107 46.8413V36.6813ZM176.371 48.3613L173.299 44.0893L171.507 45.7533V48.3613H170.419V36.6813H171.507V44.6173L176.195 40.0413H177.427L174.019 43.4493L177.555 48.3613H176.371ZM182.018 48.5213C181.41 48.5213 180.855 48.4093 180.354 48.1853C179.852 47.9507 179.415 47.636 179.042 47.2413C178.679 46.8467 178.396 46.388 178.194 45.8653C177.991 45.3427 177.89 44.7933 177.89 44.2173C177.89 43.6307 177.991 43.076 178.194 42.5533C178.407 42.0307 178.695 41.572 179.058 41.1773C179.431 40.7827 179.868 40.468 180.37 40.2333C180.871 39.9987 181.42 39.8813 182.018 39.8813C182.615 39.8813 183.164 39.9987 183.666 40.2333C184.178 40.468 184.615 40.7827 184.978 41.1773C185.351 41.572 185.639 42.0307 185.842 42.5533C186.055 43.076 186.162 43.6307 186.162 44.2173C186.162 44.7933 186.06 45.3427 185.858 45.8653C185.655 46.388 185.367 46.8467 184.994 47.2413C184.631 47.636 184.194 47.9507 183.682 48.1853C183.18 48.4093 182.626 48.5213 182.018 48.5213ZM178.994 44.2333C178.994 44.7027 179.074 45.14 179.234 45.5453C179.394 45.94 179.607 46.292 179.874 46.6013C180.151 46.9 180.471 47.1347 180.834 47.3053C181.207 47.476 181.602 47.5613 182.018 47.5613C182.434 47.5613 182.823 47.476 183.186 47.3053C183.559 47.124 183.884 46.884 184.162 46.5853C184.439 46.276 184.658 45.9187 184.818 45.5133C184.978 45.108 185.058 44.6707 185.058 44.2013C185.058 43.7427 184.978 43.3107 184.818 42.9053C184.658 42.4893 184.439 42.132 184.162 41.8333C183.884 41.524 183.559 41.284 183.186 41.1133C182.823 40.932 182.434 40.8413 182.018 40.8413C181.602 40.8413 181.212 40.932 180.85 41.1133C180.487 41.284 180.167 41.524 179.89 41.8333C179.612 42.1427 179.394 42.5053 179.234 42.9213C179.074 43.3267 178.994 43.764 178.994 44.2333ZM200.381 48.3613H199.293V43.7053C199.293 42.7347 199.139 42.02 198.829 41.5613C198.52 41.1027 198.061 40.8733 197.453 40.8733C197.133 40.8733 196.829 40.932 196.541 41.0493C196.264 41.1667 196.003 41.332 195.757 41.5453C195.523 41.7587 195.315 42.0147 195.133 42.3133C194.952 42.6013 194.813 42.9213 194.717 43.2733V48.3613H193.629V43.7053C193.629 42.7133 193.48 41.9933 193.181 41.5453C192.883 41.0973 192.424 40.8733 191.805 40.8733C191.176 40.8733 190.616 41.092 190.125 41.5293C189.635 41.9667 189.283 42.5427 189.069 43.2573V48.3613H187.981V40.0253H188.973V41.9133C189.315 41.2733 189.763 40.7773 190.317 40.4253C190.872 40.0627 191.485 39.8813 192.157 39.8813C192.861 39.8813 193.421 40.0787 193.837 40.4733C194.264 40.868 194.525 41.3853 194.621 42.0253C195.4 40.596 196.472 39.8813 197.837 39.8813C198.307 39.8813 198.701 39.9667 199.021 40.1373C199.352 40.308 199.613 40.5533 199.805 40.8733C200.008 41.1827 200.152 41.5613 200.237 42.0093C200.333 42.4467 200.381 42.9373 200.381 43.4813V48.3613ZM206.284 48.5213C205.676 48.5213 205.116 48.4093 204.604 48.1853C204.103 47.9507 203.666 47.636 203.292 47.2413C202.919 46.836 202.626 46.372 202.412 45.8493C202.21 45.3267 202.108 44.7667 202.108 44.1693C202.108 43.5827 202.21 43.0333 202.412 42.5213C202.626 41.9987 202.914 41.5453 203.276 41.1613C203.65 40.7667 204.092 40.4573 204.604 40.2333C205.116 39.9987 205.671 39.8813 206.268 39.8813C206.876 39.8813 207.431 39.9987 207.932 40.2333C208.444 40.4573 208.882 40.7667 209.244 41.1613C209.607 41.556 209.89 42.0093 210.092 42.5213C210.295 43.0333 210.396 43.5773 210.396 44.1533C210.396 44.2387 210.396 44.324 210.396 44.4093C210.396 44.4947 210.391 44.5533 210.38 44.5853H203.244C203.276 45.0333 203.378 45.4493 203.548 45.8333C203.73 46.2067 203.959 46.532 204.236 46.8093C204.514 47.0867 204.828 47.3053 205.18 47.4653C205.543 47.6147 205.927 47.6893 206.332 47.6893C206.599 47.6893 206.866 47.652 207.132 47.5773C207.399 47.5027 207.644 47.4013 207.868 47.2733C208.092 47.1453 208.295 46.9907 208.476 46.8093C208.658 46.6173 208.796 46.4093 208.892 46.1853L209.836 46.4413C209.708 46.7507 209.527 47.0333 209.292 47.2893C209.058 47.5347 208.786 47.7533 208.476 47.9453C208.167 48.1267 207.826 48.2653 207.452 48.3613C207.079 48.468 206.69 48.5213 206.284 48.5213ZM209.356 43.7533C209.324 43.3053 209.218 42.9 209.036 42.5373C208.866 42.164 208.642 41.844 208.364 41.5773C208.098 41.3107 207.783 41.1027 207.42 40.9533C207.068 40.804 206.69 40.7293 206.284 40.7293C205.879 40.7293 205.495 40.804 205.132 40.9533C204.77 41.1027 204.45 41.3107 204.172 41.5773C203.906 41.844 203.687 42.164 203.516 42.5373C203.356 42.9107 203.26 43.316 203.228 43.7533H209.356ZM219.083 48.3613H217.995V43.7053C217.995 42.7133 217.846 41.9933 217.547 41.5453C217.259 41.0973 216.811 40.8733 216.203 40.8733C215.883 40.8733 215.563 40.932 215.243 41.0493C214.923 41.1667 214.624 41.332 214.347 41.5453C214.08 41.7587 213.84 42.0147 213.627 42.3133C213.414 42.6013 213.259 42.916 213.163 43.2573V48.3613H212.075V40.0253H213.067V41.9133C213.408 41.3053 213.894 40.8147 214.523 40.4413C215.163 40.068 215.856 39.8813 216.603 39.8813C217.062 39.8813 217.451 39.9667 217.771 40.1373C218.091 40.308 218.347 40.548 218.539 40.8573C218.731 41.1667 218.87 41.5453 218.955 41.9933C219.04 42.4413 219.083 42.9373 219.083 43.4813V48.3613ZM221.579 49.6573L221.851 48.3133H221.483V46.7933H222.539V48.3133L222.139 49.6573H221.579ZM149.696 56.0813H150.752L152.352 60.1133L153.968 56.0813H155.04L153.056 60.9293L155.232 66.0653L159.344 56.0013H160.56L155.744 67.3613H154.752L152.368 61.7453L149.968 67.3613H148.992L144.192 56.0013H145.392L149.52 66.0653L151.68 60.9293L149.696 56.0813ZM161.934 67.3613V59.0253H163.022V67.3613H161.934ZM161.934 57.2813V55.6813H163.022V57.2813H161.934ZM169.019 67.5213C168.411 67.5213 167.851 67.4093 167.339 67.1853C166.837 66.9507 166.4 66.636 166.027 66.2413C165.653 65.836 165.36 65.372 165.147 64.8493C164.944 64.3267 164.843 63.7667 164.843 63.1693C164.843 62.5827 164.944 62.0333 165.147 61.5213C165.36 60.9987 165.648 60.5453 166.011 60.1613C166.384 59.7667 166.827 59.4573 167.339 59.2333C167.851 58.9987 168.405 58.8813 169.003 58.8813C169.611 58.8813 170.165 58.9987 170.667 59.2333C171.179 59.4573 171.616 59.7667 171.979 60.1613C172.341 60.556 172.624 61.0093 172.827 61.5213C173.029 62.0333 173.131 62.5773 173.131 63.1533C173.131 63.2387 173.131 63.324 173.131 63.4093C173.131 63.4947 173.125 63.5533 173.115 63.5853H165.979C166.011 64.0333 166.112 64.4493 166.283 64.8333C166.464 65.2067 166.693 65.532 166.971 65.8093C167.248 66.0867 167.563 66.3053 167.915 66.4653C168.277 66.6147 168.661 66.6893 169.067 66.6893C169.333 66.6893 169.6 66.652 169.867 66.5773C170.133 66.5027 170.379 66.4013 170.603 66.2733C170.827 66.1453 171.029 65.9907 171.211 65.8093C171.392 65.6173 171.531 65.4093 171.627 65.1853L172.571 65.4413C172.443 65.7507 172.261 66.0333 172.027 66.2893C171.792 66.5347 171.52 66.7533 171.211 66.9453C170.901 67.1267 170.56 67.2653 170.187 67.3613C169.813 67.468 169.424 67.5213 169.019 67.5213ZM172.091 62.7533C172.059 62.3053 171.952 61.9 171.771 61.5373C171.6 61.164 171.376 60.844 171.099 60.5773C170.832 60.3107 170.517 60.1027 170.155 59.9533C169.803 59.804 169.424 59.7293 169.019 59.7293C168.613 59.7293 168.229 59.804 167.867 59.9533C167.504 60.1027 167.184 60.3107 166.907 60.5773C166.64 60.844 166.421 61.164 166.251 61.5373C166.091 61.9107 165.995 62.316 165.963 62.7533H172.091ZM185.896 67.3613H184.808V62.7053C184.808 61.756 184.642 61.0467 184.312 60.5773C183.992 60.108 183.517 59.8733 182.888 59.8733C182.578 59.8733 182.269 59.9373 181.96 60.0653C181.661 60.1827 181.378 60.348 181.112 60.5613C180.845 60.7747 180.61 61.0253 180.408 61.3133C180.216 61.6013 180.072 61.916 179.976 62.2573V67.3613H178.888V55.6813H179.976V60.9133C180.306 60.284 180.765 59.788 181.352 59.4253C181.938 59.0627 182.573 58.8813 183.256 58.8813C183.736 58.8813 184.141 58.972 184.472 59.1533C184.802 59.324 185.074 59.5693 185.288 59.8893C185.501 60.1987 185.656 60.5773 185.752 61.0253C185.848 61.4627 185.896 61.948 185.896 62.4813V67.3613ZM191.816 67.5213C191.208 67.5213 190.648 67.4093 190.136 67.1853C189.634 66.9507 189.197 66.636 188.824 66.2413C188.45 65.836 188.157 65.372 187.944 64.8493C187.741 64.3267 187.64 63.7667 187.64 63.1693C187.64 62.5827 187.741 62.0333 187.944 61.5213C188.157 60.9987 188.445 60.5453 188.808 60.1613C189.181 59.7667 189.624 59.4573 190.136 59.2333C190.648 58.9987 191.202 58.8813 191.8 58.8813C192.408 58.8813 192.962 58.9987 193.464 59.2333C193.976 59.4573 194.413 59.7667 194.776 60.1613C195.138 60.556 195.421 61.0093 195.624 61.5213C195.826 62.0333 195.928 62.5773 195.928 63.1533C195.928 63.2387 195.928 63.324 195.928 63.4093C195.928 63.4947 195.922 63.5533 195.912 63.5853H188.776C188.808 64.0333 188.909 64.4493 189.08 64.8333C189.261 65.2067 189.49 65.532 189.768 65.8093C190.045 66.0867 190.36 66.3053 190.712 66.4653C191.074 66.6147 191.458 66.6893 191.864 66.6893C192.13 66.6893 192.397 66.652 192.664 66.5773C192.93 66.5027 193.176 66.4013 193.4 66.2733C193.624 66.1453 193.826 65.9907 194.008 65.8093C194.189 65.6173 194.328 65.4093 194.424 65.1853L195.368 65.4413C195.24 65.7507 195.058 66.0333 194.824 66.2893C194.589 66.5347 194.317 66.7533 194.008 66.9453C193.698 67.1267 193.357 67.2653 192.984 67.3613C192.61 67.468 192.221 67.5213 191.816 67.5213ZM194.888 62.7533C194.856 62.3053 194.749 61.9 194.568 61.5373C194.397 61.164 194.173 60.844 193.896 60.5773C193.629 60.3107 193.314 60.1027 192.952 59.9533C192.6 59.804 192.221 59.7293 191.816 59.7293C191.41 59.7293 191.026 59.804 190.664 59.9533C190.301 60.1027 189.981 60.3107 189.704 60.5773C189.437 60.844 189.218 61.164 189.048 61.5373C188.888 61.9107 188.792 62.316 188.76 62.7533H194.888ZM197.606 67.3613V59.0253H198.694V67.3613H197.606ZM197.606 57.2813V55.6813H198.694V57.2813H197.606ZM203.859 67.5213C203.208 67.5213 202.573 67.4147 201.955 67.2013C201.336 66.988 200.803 66.6787 200.355 66.2733L200.851 65.5373C201.32 65.9213 201.795 66.2093 202.275 66.4013C202.765 66.5933 203.288 66.6893 203.843 66.6893C204.515 66.6893 205.048 66.556 205.443 66.2893C205.848 66.012 206.051 65.6227 206.051 65.1213C206.051 64.8867 205.997 64.6947 205.891 64.5453C205.784 64.3853 205.624 64.2467 205.411 64.1293C205.208 64.012 204.947 63.9107 204.627 63.8253C204.317 63.7293 203.955 63.6333 203.539 63.5373C203.059 63.42 202.643 63.3027 202.291 63.1853C201.939 63.068 201.645 62.9347 201.411 62.7853C201.187 62.636 201.016 62.4547 200.899 62.2413C200.792 62.0173 200.739 61.74 200.739 61.4093C200.739 60.9933 200.819 60.6253 200.979 60.3053C201.149 59.9853 201.373 59.724 201.651 59.5213C201.939 59.308 202.269 59.148 202.643 59.0413C203.027 58.9347 203.432 58.8813 203.859 58.8813C204.499 58.8813 205.08 58.988 205.603 59.2013C206.125 59.404 206.547 59.676 206.867 60.0173L206.339 60.6573C206.029 60.3373 205.651 60.0973 205.203 59.9373C204.765 59.7773 204.307 59.6973 203.827 59.6973C203.539 59.6973 203.272 59.7293 203.027 59.7933C202.781 59.8467 202.563 59.9373 202.371 60.0653C202.189 60.1933 202.045 60.3587 201.939 60.5613C201.832 60.7533 201.779 60.9827 201.779 61.2493C201.779 61.4733 201.816 61.6547 201.891 61.7933C201.965 61.932 202.088 62.0547 202.259 62.1613C202.429 62.2573 202.643 62.348 202.899 62.4333C203.165 62.508 203.485 62.588 203.859 62.6733C204.392 62.8013 204.861 62.9293 205.267 63.0573C205.672 63.1853 206.008 63.3347 206.275 63.5053C206.552 63.676 206.76 63.884 206.899 64.1293C207.037 64.3747 207.107 64.6733 207.107 65.0253C207.107 65.7933 206.813 66.4013 206.227 66.8493C205.64 67.2973 204.851 67.5213 203.859 67.5213ZM211.656 67.5213C211.005 67.5213 210.37 67.4147 209.752 67.2013C209.133 66.988 208.6 66.6787 208.152 66.2733L208.648 65.5373C209.117 65.9213 209.592 66.2093 210.072 66.4013C210.562 66.5933 211.085 66.6893 211.64 66.6893C212.312 66.6893 212.845 66.556 213.24 66.2893C213.645 66.012 213.848 65.6227 213.848 65.1213C213.848 64.8867 213.794 64.6947 213.688 64.5453C213.581 64.3853 213.421 64.2467 213.208 64.1293C213.005 64.012 212.744 63.9107 212.424 63.8253C212.114 63.7293 211.752 63.6333 211.336 63.5373C210.856 63.42 210.44 63.3027 210.088 63.1853C209.736 63.068 209.442 62.9347 209.208 62.7853C208.984 62.636 208.813 62.4547 208.696 62.2413C208.589 62.0173 208.536 61.74 208.536 61.4093C208.536 60.9933 208.616 60.6253 208.776 60.3053C208.946 59.9853 209.17 59.724 209.448 59.5213C209.736 59.308 210.066 59.148 210.44 59.0413C210.824 58.9347 211.229 58.8813 211.656 58.8813C212.296 58.8813 212.877 58.988 213.4 59.2013C213.922 59.404 214.344 59.676 214.664 60.0173L214.136 60.6573C213.826 60.3373 213.448 60.0973 213 59.9373C212.562 59.7773 212.104 59.6973 211.624 59.6973C211.336 59.6973 211.069 59.7293 210.824 59.7933C210.578 59.8467 210.36 59.9373 210.168 60.0653C209.986 60.1933 209.842 60.3587 209.736 60.5613C209.629 60.7533 209.576 60.9827 209.576 61.2493C209.576 61.4733 209.613 61.6547 209.688 61.7933C209.762 61.932 209.885 62.0547 210.056 62.1613C210.226 62.2573 210.44 62.348 210.696 62.4333C210.962 62.508 211.282 62.588 211.656 62.6733C212.189 62.8013 212.658 62.9293 213.064 63.0573C213.469 63.1853 213.805 63.3347 214.072 63.5053C214.349 63.676 214.557 63.884 214.696 64.1293C214.834 64.3747 214.904 64.6733 214.904 65.0253C214.904 65.7933 214.61 66.4013 214.024 66.8493C213.437 67.2973 212.648 67.5213 211.656 67.5213ZM220.684 66.9613C220.62 66.9933 220.524 67.036 220.396 67.0893C220.279 67.1427 220.14 67.196 219.98 67.2493C219.82 67.3027 219.639 67.3507 219.436 67.3933C219.234 67.436 219.02 67.4573 218.796 67.4573C218.562 67.4573 218.338 67.4253 218.124 67.3613C217.911 67.2973 217.724 67.2013 217.564 67.0733C217.404 66.9347 217.276 66.764 217.18 66.5613C217.084 66.3587 217.036 66.124 217.036 65.8573V59.8893H215.884V59.0253H217.036V56.2093H218.124V59.0253H220.044V59.8893H218.124V65.5533C218.146 65.8627 218.252 66.092 218.444 66.2413C218.647 66.38 218.876 66.4493 219.132 66.4493C219.442 66.4493 219.714 66.4013 219.948 66.3053C220.183 66.1987 220.332 66.124 220.396 66.0813L220.684 66.9613ZM229.546 67.5213C228.97 67.5213 228.437 67.404 227.946 67.1693C227.455 66.924 227.034 66.604 226.682 66.2093C226.33 65.8147 226.053 65.3613 225.85 64.8493C225.658 64.3267 225.562 63.7827 225.562 63.2173C225.562 62.6307 225.658 62.076 225.85 61.5533C226.042 61.02 226.303 60.556 226.634 60.1613C226.975 59.7667 227.375 59.4573 227.834 59.2333C228.303 58.9987 228.815 58.8813 229.37 58.8813C230.074 58.8813 230.698 59.068 231.242 59.4413C231.786 59.804 232.213 60.2467 232.522 60.7693V55.6813H233.61V65.9533C233.61 66.252 233.738 66.4013 233.994 66.4013V67.3613C233.834 67.3933 233.706 67.4093 233.61 67.4093C233.354 67.4093 233.13 67.3293 232.938 67.1693C232.746 66.9987 232.65 66.796 232.65 66.5613V65.7453C232.319 66.2893 231.871 66.7213 231.306 67.0413C230.741 67.3613 230.154 67.5213 229.546 67.5213ZM229.786 66.5613C230.053 66.5613 230.335 66.508 230.634 66.4013C230.943 66.2947 231.231 66.1507 231.498 65.9693C231.765 65.7773 231.989 65.5587 232.17 65.3133C232.362 65.0573 232.479 64.7853 232.522 64.4973V61.9213C232.415 61.6333 232.261 61.3667 232.058 61.1213C231.855 60.8653 231.621 60.6413 231.354 60.4493C231.098 60.2573 230.821 60.108 230.522 60.0013C230.223 59.8947 229.93 59.8413 229.642 59.8413C229.194 59.8413 228.789 59.9373 228.426 60.1293C228.063 60.3213 227.749 60.5773 227.482 60.8973C227.226 61.2067 227.029 61.564 226.89 61.9693C226.751 62.3747 226.682 62.7907 226.682 63.2173C226.682 63.6653 226.762 64.092 226.922 64.4973C227.082 64.9027 227.301 65.26 227.578 65.5693C227.855 65.868 228.181 66.108 228.554 66.2893C228.938 66.4707 229.349 66.5613 229.786 66.5613ZM238.683 67.5213C237.776 67.5213 237.099 67.2227 236.651 66.6253C236.214 66.0173 235.995 65.116 235.995 63.9213V59.0253H237.083V63.7293C237.083 65.6173 237.728 66.5613 239.019 66.5613C239.339 66.5613 239.654 66.508 239.963 66.4013C240.272 66.2947 240.555 66.14 240.811 65.9373C241.078 65.7347 241.312 65.4947 241.515 65.2173C241.728 64.94 241.899 64.6253 242.027 64.2733V59.0253H243.115V65.9533C243.115 66.252 243.243 66.4013 243.499 66.4013V67.3613C243.371 67.3827 243.264 67.3933 243.179 67.3933C243.104 67.3933 243.051 67.3933 243.019 67.3933C242.763 67.3827 242.555 67.292 242.395 67.1213C242.235 66.9507 242.155 66.7213 242.155 66.4333V65.4733C241.792 66.124 241.296 66.6307 240.667 66.9933C240.048 67.3453 239.387 67.5213 238.683 67.5213ZM246.839 64.1293C246.839 63.4253 246.946 62.8653 247.159 62.4493C247.383 62.0333 247.73 61.6867 248.199 61.4093C248.412 61.2813 248.647 61.1533 248.903 61.0253C249.159 60.8867 249.399 60.7213 249.623 60.5293C249.847 60.3373 250.034 60.108 250.183 59.8413C250.343 59.5747 250.423 59.244 250.423 58.8493C250.423 58.4973 250.359 58.1933 250.231 57.9373C250.114 57.6813 249.954 57.468 249.751 57.2973C249.548 57.116 249.314 56.9827 249.047 56.8973C248.791 56.812 248.524 56.7693 248.247 56.7693C247.671 56.7693 247.154 56.9293 246.695 57.2493C246.247 57.5587 245.906 57.9427 245.671 58.4013L244.919 57.9213C245.068 57.5907 245.26 57.2973 245.495 57.0413C245.73 56.7853 245.991 56.572 246.279 56.4013C246.578 56.22 246.892 56.0867 247.223 56.0013C247.564 55.9053 247.911 55.8573 248.263 55.8573C248.658 55.8573 249.042 55.9213 249.415 56.0493C249.788 56.1667 250.119 56.3533 250.407 56.6093C250.706 56.8653 250.94 57.1853 251.111 57.5693C251.292 57.9533 251.383 58.4013 251.383 58.9133C251.383 59.34 251.319 59.7027 251.191 60.0013C251.074 60.2893 250.914 60.54 250.711 60.7533C250.508 60.9667 250.274 61.1533 250.007 61.3133C249.751 61.4627 249.49 61.612 249.223 61.7613C249.031 61.868 248.85 61.98 248.679 62.0973C248.508 62.204 248.354 62.348 248.215 62.5293C248.076 62.7 247.964 62.9133 247.879 63.1693C247.804 63.4253 247.767 63.7453 247.767 64.1293H246.839ZM246.855 67.3613V65.6493H247.799V67.3613H246.855Z" fill="#5A5A5A"/>
</svg>
