<svg width="332" height="180" viewBox="0 0 332 180" fill="none" xmlns="http://www.w3.org/2000/svg">
<path d="M200.656 114.825L201.448 115.089M195.374 123.54L199.599 125.917M196.43 121.691L200.128 123.804M196.43 119.843L201.184 122.484M196.694 118.258L200.92 120.107M196.694 116.145L201.184 118.522M198.543 115.089L201.184 116.674M194.846 124.86L198.807 127.501M193.789 126.445L197.751 128.822M192.733 127.501L196.694 130.671M191.413 128.822L195.638 131.991M189.828 129.614L193.789 133.047M187.715 130.406L192.205 134.368M186.923 131.991L190.62 135.16M187.451 134.104L188.772 135.688M166.852 106.374C172.134 99.6834 186.183 90.5281 200.128 107.43C196.113 110.177 194.582 111.392 194.318 111.656C193.261 109.367 189.775 104.842 184.282 105.053C177.415 105.317 173.454 110.071 173.454 110.599C173.454 111.022 169.052 107.958 166.852 106.374ZM195.374 114.825L202.24 113.504C203.297 120.459 201.607 134.896 186.395 137.009C185.972 132.572 185.69 130.23 185.602 129.614C189.212 129.614 196.219 126.656 195.374 114.825Z" stroke="white" stroke-linecap="round"/>
<path d="M316.858 163.947C318.618 163.771 322.245 163.471 322.668 163.683" stroke="white" stroke-linecap="round"/>
<path d="M311.576 144.403C314.129 144.315 319.815 144.139 322.139 144.139" stroke="white" stroke-linecap="round"/>
<path d="M309.463 139.914C313.953 139.738 323.249 139.386 324.516 139.386" stroke="white" stroke-linecap="round"/>
<path d="M227.065 145.46L179.264 145.196L195.11 179" stroke="white" stroke-linecap="round"/>
<path d="M240.27 138.594C241.29 140.472 242.581 143.006 243.836 145.724M248.193 161.57C249.368 159.073 246.697 151.922 243.836 145.724M243.836 145.724C241.327 151.006 235.992 161.623 234.724 161.834M227.065 145.724L242.911 178.472" stroke="white" stroke-linecap="round"/>
<path d="M252.947 114.825C246.784 116.057 234.196 119.843 233.139 125.125C231.819 131.727 227.593 142.291 227.329 145.724" stroke="white" stroke-linecap="round"/>
<path d="M279.62 116.146C279.62 117.114 279.567 119.051 279.356 119.051" stroke="white" stroke-linecap="round"/>
<path d="M277.243 116.409C277.067 117.818 276.662 120.688 276.451 120.899" stroke="white" stroke-linecap="round"/>
<path d="M243.175 170.813C242.999 172.31 243.122 174.616 245.024 171.869" stroke="white" stroke-linecap="round"/>
<path d="M267.999 171.341C265.006 171.341 258.65 171.077 257.171 170.021C254.795 170.021 250.041 175.567 249.777 173.454C250.481 171.781 252.47 168.489 254.795 168.7C253.562 168.436 250.305 168.806 247.136 172.398C244.759 174.246 245.023 170.813 246.608 169.757C248.193 168.172 251.362 166.059 252.682 166.323M267.999 163.155C265.623 163.419 261.002 162.878 259.285 162.362C256.644 161.57 250.833 159.985 248.457 161.834C245.64 163.683 240.534 168.278 242.647 171.869C243.967 169.228 246.608 164.739 248.985 164.739" stroke="white" stroke-linecap="round"/>
<path d="M265.359 171.341C265.183 171.869 264.937 173.137 265.359 173.982" stroke="white" stroke-linecap="round"/>
<path d="M278.3 81.0208C276.187 82.2884 273.546 81.5489 272.49 81.0208C272.754 82.6053 273.018 85.5104 272.754 86.8308C274.021 86.6196 275.307 87.7992 275.923 88.1513C276.451 86.8308 277.877 83.1335 278.3 81.0208Z" fill="#50B8E7"/>
<path d="M273.81 93.1691C273.176 93.5917 271.785 93.3452 271.169 93.1691C270.641 94.6657 269.637 97.8172 269.849 98.451C271.169 98.7151 274.602 92.6409 273.81 93.1691Z" fill="#50B8E7"/>
<path d="M278.3 81.0208C276.187 82.2884 273.546 81.5489 272.49 81.0208C272.754 82.6053 273.018 85.5104 272.754 86.8308C274.021 86.6196 275.307 87.7992 275.923 88.1513C276.451 86.8308 277.877 83.1335 278.3 81.0208Z" stroke="white" stroke-linecap="round"/>
<path d="M273.81 93.1691C273.176 93.5917 271.785 93.3452 271.169 93.1691C270.641 94.6657 269.637 97.8172 269.849 98.451C271.169 98.7151 274.602 92.6409 273.81 93.1691Z" stroke="white" stroke-linecap="round"/>
<path d="M248.458 79.9643C240.272 79.7002 243.441 71.2492 246.873 71.2492C240.747 65.5446 247.489 64.1184 251.626 64.1183C251.098 56.1955 262.718 59.3647 261.926 63.5904C267.419 58.9424 270.201 63.9426 270.905 67.0237C277.243 62.2699 278.564 68.8721 276.451 71.7774C279.092 69.1364 285.166 75.7388 280.148 79.4361C273.599 84.9293 269.32 78.9079 268 75.2106C264.831 79.9643 260.869 78.3797 259.813 76.0029C256.38 81.813 253.475 79.172 252.683 77.0593C251.415 78.7495 249.338 79.7002 248.458 79.9643Z" fill="#50B8E7"/>
<path d="M278.828 74.6825C278.828 75.8269 278.247 78.1685 275.923 78.3798M246.873 71.2492C243.441 71.2492 240.272 79.7002 248.458 79.9643C249.338 79.7002 251.415 78.7495 252.683 77.0593C253.475 79.172 256.38 81.813 259.813 76.0029C260.869 78.3797 264.831 79.9643 268 75.2106C269.32 78.9079 273.599 84.9293 280.148 79.4361C285.166 75.7388 279.092 69.1364 276.451 71.7774C278.564 68.8721 277.243 62.2699 270.905 67.0237C270.201 63.9426 267.419 58.9424 261.926 63.5904C262.718 59.3647 251.098 56.1955 251.626 64.1183C247.489 64.1184 240.747 65.5446 246.873 71.2492Z" stroke="white" stroke-linecap="round"/>
<path d="M51.9703 64.9109C51.9703 65.7032 52.3929 67.3406 54.0831 67.5518" stroke="white" stroke-linecap="round"/>
<path d="M53.819 63.8545C54.6113 65.351 56.9881 68.1328 60.1572 67.2877" stroke="white" stroke-linecap="round"/>
<path d="M122.484 106.638L122.22 79.4363C128.294 79.7004 144.404 81.3906 144.404 91.3206" stroke="white"/>
<path d="M127.501 88.6794C129.614 88.6794 134.315 89.0492 136.217 90.5281" stroke="white"/>
<path d="M127.237 93.1691C128.558 92.905 131.569 92.6409 133.048 93.6973" stroke="white"/>
<path d="M130.406 130.406L132.255 131.727" stroke="white"/>
<path d="M126.973 127.766L129.086 129.35" stroke="white"/>
<path d="M111.92 138.329L116.674 124.068L121.955 128.822L126.445 116.41L134.368 127.766L140.442 111.128M111.392 129.35L113.504 130.935M115.089 131.991L117.202 133.576M118.522 134.632L120.635 135.953M121.955 134.632L123.276 132.783M102.148 110.599C115.617 108.487 144.404 104.261 144.404 90.2642C143.347 96.8665 144.932 125.125 145.46 137.801C138.065 147.52 114.561 152.591 103.733 153.911L102.148 110.599Z" stroke="white"/>
<path d="M124.596 130.935L125.917 129.086" stroke="white"/>
<path d="M44.3115 127.766H38.7656L38.5015 147.045H44.0475L44.3115 127.766Z" fill="white"/>
<path d="M34.54 136.745H29.5222L29.2581 145.988H34.2759L34.54 136.745Z" fill="white"/>
<path d="M25.5608 144.932L26.089 134.104H23.184H20.2789V144.932H25.5608Z" fill="white"/>
<path d="M16.3175 139.65H11.0356V143.611H16.3175V139.65Z" fill="white"/>
<path d="M65.7032 134.104L60.9495 145.988C62.358 147.133 64.013 149.527 59.365 149.95C55.1394 149.686 59.1009 144.932 60.9495 145.988L65.7032 134.104C64.5588 132.431 63.3264 129.192 67.5519 129.614C69.6781 130.748 69.7502 132.11 68.9523 133.048L76.267 138.065C77.1763 137.793 78.4708 137.633 79.3353 138.065L84.3993 130.75L84.454 130.671C82.8694 129.614 82.0771 125.917 86.8308 126.973C87.9388 128.258 89.0037 130.813 84.3993 130.75L79.3353 138.065C80.1447 138.471 80.5773 139.396 79.9644 141.235C76.267 143.611 74.9466 139.65 76.267 138.065L68.9523 133.048C68.2636 133.856 66.9268 134.349 65.7032 134.104Z" fill="white"/>
<path d="M60.9495 145.988L65.7032 134.104M60.9495 145.988C62.358 147.133 64.013 149.527 59.365 149.95C55.1394 149.686 59.1009 144.932 60.9495 145.988ZM65.7032 134.104C64.5588 132.431 63.3264 129.192 67.5519 129.614C69.6781 130.748 69.7502 132.11 68.9523 133.048M65.7032 134.104C66.9268 134.349 68.2636 133.856 68.9523 133.048M68.9523 133.048L76.267 138.065M76.267 138.065C74.9466 139.65 76.267 143.611 79.9644 141.235C80.5773 139.396 80.1447 138.471 79.3353 138.065M76.267 138.065C77.1763 137.793 78.4708 137.633 79.3353 138.065M79.3353 138.065L84.3993 130.75M84.3993 130.75L84.454 130.671C82.8694 129.614 82.0771 125.917 86.8308 126.973C87.9388 128.258 89.0037 130.813 84.3993 130.75ZM38.7656 127.766H44.3115L44.0475 147.045H38.5015L38.7656 127.766ZM29.5222 136.745H34.54L34.2759 145.988H29.2581L29.5222 136.745ZM20.2789 134.104V144.932H25.5608L26.089 134.104H23.184H20.2789ZM11.0356 139.65H16.3175V143.611H11.0356V139.65Z" stroke="white"/>
<path d="M8.92285 127.501C9.6271 127.942 11.6166 128.822 13.9407 128.822" stroke="white"/>
<path d="M9.71515 123.012C10.8596 123.364 13.7822 124.068 16.3175 124.068" stroke="white"/>
<path d="M74.9465 119.579C75.0641 119.961 75.2505 120.412 75.4761 120.764C76.3165 122.077 77.0773 119.572 76.9916 118.015C76.8767 115.93 76.5958 113.569 76.0029 112.976C75.1578 112.131 76.8832 113.504 77.8516 114.297C78.3798 115.353 79.4361 117.783 79.4361 119.05C79.4361 120.635 79.9643 122.22 81.0207 120.107C82.0771 117.994 80.4925 112.976 79.1721 111.92" stroke="white" stroke-linecap="round"/>
<path d="M107.166 30.0505C106.373 26.3534 106.743 17.7965 105.053 18.4304C104.525 18.1663 103.468 19.0115 103.468 24.5047C103.468 29.9979 102.764 33.4837 102.412 34.54C102.301 34.8446 102.203 35.3755 102.179 36.1246M103.732 49.3293C103.732 48.8892 103.732 47.2166 103.732 44.0474C102.429 40.4267 102.126 37.7574 102.179 36.1246M102.179 36.1246C102.191 35.8605 104.261 31.1068 106.902 31.635C109.015 32.0575 107.782 33.7477 106.902 34.54C106.198 35.1562 105.106 37.0753 106.374 39.8219" stroke="white"/>
<path d="M109.543 30.5785C108.839 29.8743 107.219 28.994 106.374 31.1067" stroke="white"/>
<path d="M109.807 37.4454C108.311 38.2377 106.216 37.9736 109.807 30.579C111.656 29.2585 112.976 31.3712 112.448 31.8994" stroke="white"/>
<path d="M106.374 35.3323C106.198 36.4767 106.268 38.5014 107.958 37.445M115.617 47.2165C114.473 62.7982 111.92 91.0563 102.941 97.1305C98.451 100.036 87.8872 103.997 85.5104 93.9614" stroke="white"/>
<path d="M84.1899 112.184L83.6617 95.8101C85.4224 93.9615 88.7852 89.736 88.1513 87.6232C87.5175 85.5104 84.1899 77.9397 82.6053 74.4185" stroke="white"/>
<path d="M127.766 97.1306C129.614 96.7785 133.84 96.5496 135.953 98.4511" stroke="white"/>
<path d="M64.3828 52.4985L66.2315 60.6854C70.545 60.0692 79.9644 59.6818 83.1336 63.0623C86.3027 66.4427 92.729 74.6824 95.546 78.3798M95.546 78.3798L94.2255 81.2848M95.546 78.3798C97.8348 73.0979 102.201 59.6818 101.356 48.2729C103.876 49.6476 110.372 50.6248 114.118 48.2729M114.297 46.1602C114.737 46.1602 115.617 46.3186 115.617 46.9525C115.197 47.4772 114.69 47.9139 114.118 48.2729M114.297 46.1602L114.118 48.2729M114.297 46.1602C115.265 40.6142 116.462 29.9448 113.504 31.635C110.547 33.3252 109.807 36.2127 109.807 37.4452C110.159 38.3255 111.339 39.1882 113.24 35.5965" stroke="white"/>
<path d="M41.1425 102.677C42.727 96.1622 45.8433 83.0807 45.6321 82.8694C45.4208 82.6581 46.6004 95.9861 47.2166 102.677" stroke="white"/>
<path d="M50.9145 14.469C46.9002 14.469 42.3754 18.8706 40.6148 21.0714C35.3333 20.2793 33.4842 15.2612 33.2201 14.469C32.956 13.6769 32.1637 5.4898 39.8225 3.37704C47.4812 1.26428 53.8195 9.71532 50.9145 14.469Z" fill="#50B8E7" stroke="white"/>
<path d="M44.8398 37.7091C43.1496 36.6527 41.3185 37.7972 40.6143 38.5014C37.4447 34.9477 36.9568 31.0047 37.7314 27.3967C39.3915 19.6635 47.071 14.3698 54.9683 13.9318C66.7879 13.2763 71.6974 22.3571 70.457 23.1838C59.791 29.0017 47.5674 27.0318 46.2446 26.6691C46.8488 27.4986 45.6007 37.9627 44.8398 37.7091Z" fill="#50B8E7" stroke="white"/>
<path d="M72.0416 44.3113C70.6647 48.2368 66.7283 51.1483 64.3828 52.4986C64.7437 54.3311 65.7985 58.3707 66.2315 60.6855C70.5617 59.5281 78.0821 60.5384 81.1493 61.2136C82.5025 54.5583 72.8535 41.9965 72.0416 44.3113Z" fill="#50B8E7" stroke="white"/>
<path d="M45.5982 42.7271L43.4785 43.5193C43.9031 50.4914 41.182 54.3472 39.2384 55.6677C35.264 57.0762 26.6262 61.3722 28.11 65.1751C29.5938 68.9781 27.1389 71.5134 25.7261 72.3057C19.8976 77.8517 21.2224 84.7181 29.1706 86.5668C31.9262 67.3407 47.453 61.8299 54.8719 61.4778C55.0486 61.3898 55.5078 59.6819 55.9318 53.5549C49.5727 52.7098 46.3931 45.9842 45.5982 42.7271Z" fill="#50B8E7" stroke="white"/>
<path d="M45.1046 40.6144V37.7094C43.344 37.0932 39.9284 36.9171 40.3509 41.1426C40.5616 44.1003 43.9594 43.4312 45.632 42.7269C46.6004 47.1285 50.8611 55.4035 60.1573 53.2907C67.9745 52.4456 71.3373 46.4243 72.0415 43.5192C72.3937 41.4945 72.2528 36.1246 68.8724 30.8427C68.2386 27.251 67.904 25.1206 67.816 24.5044" stroke="white"/>
<path d="M45.1039 37.4451L48.5371 36.3887M48.5371 36.3887C48.7132 34.5401 49.8576 30.9484 53.0267 31.3709C55.6677 31.7231 57.0175 32.7794 57.7804 34.0704M48.5371 36.3887C48.8012 40.0863 50.914 41.6704 54.0831 41.9345C57.2522 42.1986 59.1009 38.2372 58.5727 36.1244C58.3967 35.4202 58.1619 34.716 57.7804 34.0704M57.7804 34.0704C58.4847 32.9945 60.4214 31.2123 62.5341 32.6912M62.5341 32.6912C62.7982 29.7862 64.6469 27.9375 65.9674 27.9375C67.2879 27.9375 71.5134 27.6734 72.0416 32.163C72.5698 36.6526 69.6647 38.2374 69.4006 38.2374C69.1365 38.2374 63.5905 40.0857 62.5341 32.6912ZM62.2701 35.0682C61.7419 37.9733 66.7597 39.5578 63.3264 40.8783M55.9318 45.632C56.9882 46.6004 59.5763 48.0617 61.4778 46.1602" stroke="white"/>
<path d="M28.9936 86.8308C26.089 96.8664 20.12 115.828 26.8808 115.617H61.4777C61.5658 112.096 62.7982 104.948 67.0237 104.525C67.6576 104.525 67.9921 105.405 68.0801 105.846" stroke="white"/>
<path d="M67.0238 104.525C60.5974 103.733 45.5792 102.307 36.9169 102.941" stroke="white"/>
<circle cx="54.6113" cy="35.5965" r="0.792285" fill="white"/>
<circle cx="66.7597" cy="32.4273" r="0.792285" fill="white"/>
<path d="M65.1751 114.297L65.5655 114.609L65.6751 114.472V114.297H65.1751ZM73.0979 120.635L72.6098 120.743L72.6232 120.803L72.6507 120.859L73.0979 120.635ZM74.9466 119.315L74.4615 119.436L74.4662 119.454L74.4722 119.473L74.9466 119.315ZM73.4514 113.943C73.2562 113.748 72.9396 113.748 72.7443 113.943C72.5491 114.138 72.5491 114.455 72.7444 114.65L73.4514 113.943ZM61.4295 116.272C62.2042 116.891 63.8166 116.795 65.5655 114.609L64.7846 113.984C63.153 116.024 62.1597 115.575 62.0542 115.491L61.4295 116.272ZM65.6751 114.297C65.6751 114.413 65.6297 114.5 65.5907 114.552C65.5547 114.599 65.5202 114.621 65.5113 114.627C65.4951 114.637 65.5072 114.626 65.5711 114.61C65.6915 114.58 65.8985 114.556 66.1802 114.561C66.7378 114.573 67.5162 114.7 68.3463 115.054C69.9853 115.752 71.8536 117.34 72.6098 120.743L73.586 120.526C72.7576 116.799 70.6645 114.954 68.7382 114.134C67.7857 113.728 66.8805 113.575 66.2002 113.562C65.8629 113.555 65.5623 113.582 65.3299 113.64C65.2174 113.668 65.0917 113.71 64.9819 113.778C64.8949 113.833 64.6751 113.995 64.6751 114.297H65.6751ZM72.6507 120.859C72.887 121.331 73.2432 121.682 73.7314 121.708C74.1827 121.732 74.5483 121.463 74.7858 121.205C75.0361 120.934 75.2341 120.583 75.3528 120.242C75.4651 119.919 75.5389 119.51 75.4209 119.156L74.4722 119.473C74.4863 119.515 74.494 119.667 74.4083 119.914C74.3289 120.142 74.1968 120.369 74.051 120.527C73.8923 120.699 73.7957 120.71 73.7849 120.709C73.783 120.709 73.7802 120.709 73.7746 120.707C73.7686 120.704 73.7551 120.698 73.7347 120.681C73.692 120.645 73.6234 120.568 73.5451 120.411L72.6507 120.859ZM75.4316 119.193C75.2532 118.48 74.9458 117.37 74.6014 116.354C74.4293 115.847 74.2453 115.355 74.0606 114.945C73.8848 114.554 73.6809 114.173 73.4514 113.943L72.7444 114.65C72.8318 114.738 72.9735 114.966 73.1487 115.355C73.315 115.725 73.4875 116.184 73.6544 116.676C73.9878 117.659 74.2878 118.741 74.4615 119.436L75.4316 119.193Z" fill="white"/>
<path d="M9.71515 118.786C11.2117 119.579 15.6309 121.058 21.3353 120.635" stroke="white"/>
<path d="M40.3501 96.6024L44.3115 88.1514L40.8783 102.525H37.9733L40.3501 96.6024Z" fill="#E7F5FC"/>
<path d="M23.7122 110.071C17.0218 108.927 3.27122 106.427 1.79228 105.582C1.79228 110.071 1.79228 149.685 1 151.534C3.11276 153.647 62.7982 162.098 95.2819 154.967C95.8101 146.516 94.7537 118.786 93.9614 111.392L82.8694 112.184" stroke="white"/>
<path d="M85.7745 93.9615L87.3591 91.3206L88.476 93.5543C88.9594 94.5211 89.6229 95.3869 90.4308 96.105C91.1938 96.7832 92.0727 97.3184 93.0255 97.6848L93.1756 97.7425C94.3905 98.2098 95.6893 98.4191 96.9895 98.3572L100.564 98.187L100.177 98.3589C98.8529 98.9475 97.4801 99.4201 96.0742 99.7716L93.6974 100.036H92.4563C91.5357 100.036 90.6278 99.8214 89.8044 99.4097C89.2343 99.1246 88.7139 98.7495 88.2632 98.2989L87.8818 97.9174C87.5342 97.5698 87.2218 97.1887 86.9491 96.7797C86.5208 96.1372 86.1947 95.4322 85.9826 94.6897L85.7745 93.9615Z" fill="#E7F5FC"/>
<path d="M56.46 53.8189C58.7432 53.8189 61.0209 53.5934 63.2598 53.1456L63.8546 53.0266L65.4392 59.1008L60.6855 56.4598L56.46 54.6112V53.8189Z" fill="#E7F5FC"/>
<path d="M104.261 48.537H104.335C107.439 48.537 110.527 48.0924 113.504 47.2166V48.2729L113.385 48.3176C112.061 48.8143 110.683 49.1539 109.279 49.3293H106.638L104.261 49.0652V48.537Z" fill="#E7F5FC"/>
<path d="M103.205 32.9555L105.053 30.5786L106.638 28.73L106.902 30.0505L106.551 30.4011C106.435 30.5178 106.347 30.6602 106.294 30.8169C106.179 31.162 105.896 31.4244 105.543 31.5126L105.408 31.5465C105.176 31.6044 104.964 31.7243 104.795 31.8932L102.941 33.7478L103.205 32.9555Z" fill="#E7F5FC"/>
<path d="M64.6469 105.846C74.9466 106.374 78.6439 107.43 82.8694 112.184C84.7181 115.265 87.4647 120.899 83.6617 118.786C82.394 116.674 81.0207 114.649 80.4925 114.033" stroke="white"/>
<path d="M39.5579 19.2226C40.4382 17.55 42.7798 14.2048 45.1039 14.2048" stroke="white" stroke-linecap="round"/>
<path d="M69.1363 131.85C69.4004 133.047 67.2876 134.104 66.2312 133.84C65.703 134.104 64.911 132.255 64.9107 131.287C64.6469 130.406 65.703 129.614 66.7594 129.878C67.5517 129.614 69.1363 130.671 69.1363 131.85Z" fill="#50B8E7"/>
<path d="M143.347 96.0743L143.875 94.2256L144.139 116.145L144.932 137.537L143.083 139.65L141.234 141.234L143.347 96.0743Z" fill="#E7F5FC"/>
<path d="M140.948 40.8902C143.664 41.9768 145.841 44.0854 146.977 46.7261L146.517 46.9236C147.045 48.1508 147.337 49.4985 147.337 50.9138C147.337 52.3291 147.045 53.6769 146.517 54.9041L146.977 55.1016C145.841 57.7423 143.664 59.8508 140.948 60.9375L140.762 60.4732C139.524 60.9684 138.168 61.2417 136.745 61.2417C135.322 61.2417 133.966 60.9684 132.728 60.4732L132.542 60.9375C129.825 59.8508 127.648 57.7423 126.513 55.1016L126.972 54.9041C126.445 53.6769 126.153 52.3291 126.153 50.9138C126.153 49.4985 126.445 48.1508 126.972 46.9236L126.513 46.7261C127.648 44.0854 129.825 41.9768 132.542 40.8902L132.728 41.3544C133.966 40.8593 135.322 40.5859 136.745 40.5859C138.168 40.5859 139.524 40.8593 140.762 41.3544L140.948 40.8902Z" stroke="white" stroke-dasharray="8 8"/>
<path d="M142.292 47.4806C149.421 47.7446 148.101 40.8782 148.101 36.3886H136.744H136.217C135.794 47.5862 138.989 47.2165 142.292 47.4806Z" fill="#50B8E7"/>
<path d="M135.16 20.8072C136.727 21.1552 137.809 23.0087 138.541 25.4005C139.026 25.4853 139.496 25.4635 139.914 25.2966C140.816 24.9359 141.748 23.9286 142.48 22.6952C141.242 20.158 140.821 14.8544 142.819 16.0535C144.558 17.0969 143.892 20.3165 142.48 22.6952C142.879 23.5108 143.361 24.0405 143.875 23.9763C144.374 24.1426 145.04 24.1471 145.755 24.0428C146.578 21.8983 147.818 20.5111 149.685 21.0713C151.838 21.717 148.446 23.6503 145.755 24.0428C145.04 24.1471 144.374 24.1426 143.875 23.9763C143.361 24.0405 142.879 23.5108 142.48 22.6952C141.748 23.9286 140.816 24.9359 139.914 25.2966C139.496 25.4635 139.026 25.4853 138.541 25.4005C135.955 24.9489 132.937 21.4742 135.16 20.8072Z" fill="#50B8E7"/>
<path d="M136.744 36.3886H136.217C135.794 47.5862 138.989 47.2165 142.292 47.4806C149.421 47.7446 148.101 40.8782 148.101 36.3886H136.744ZM136.744 36.3886C136.921 35.1561 136.269 31.899 132.255 28.7298C127.237 24.7684 126.445 8.6586 143.347 8.3945C152.76 8.24742 155.978 13.7229 156.62 18.9945C157.119 23.0908 154.579 26.719 151.729 29.7031C149.145 32.4089 146.917 35.2066 147.573 36.1247M139.914 36.1247C139.914 31.371 138.963 21.6523 135.16 20.8072C132.519 21.5994 137.273 26.3528 139.914 25.2966C142.555 24.2404 145.46 17.638 142.819 16.0534C140.178 14.4689 141.763 24.2404 143.875 23.9763C146.252 24.7686 152.41 21.8886 149.685 21.0713C144.404 19.4867 144.139 33.4837 144.139 36.1247" stroke="white" stroke-linecap="round"/>
<line x1="150.701" y1="1.67082" x2="149.036" y2="5.00191" stroke="white" stroke-linecap="round"/>
<line x1="162.285" y1="9.60827" x2="159.085" y2="11.5138" stroke="white" stroke-linecap="round"/>
<line x1="0.5" y1="-0.5" x2="4.22427" y2="-0.5" transform="matrix(-0.964286 -0.264862 -0.264862 0.964286 125.983 13.3433)" stroke="white" stroke-linecap="round"/>
<line x1="0.5" y1="-0.5" x2="4.22427" y2="-0.5" transform="matrix(-0.90388 0.427785 0.427785 0.90388 125.17 25.825)" stroke="white" stroke-linecap="round"/>
<line x1="0.5" y1="-0.5" x2="4.22427" y2="-0.5" transform="matrix(-0.882021 -0.471209 -0.471209 0.882021 164.153 25.4102)" stroke="white" stroke-linecap="round"/>
<line x1="0.5" y1="-0.5" x2="4.22427" y2="-0.5" transform="matrix(-0.429346 -0.90314 -0.90314 0.429346 137.188 5.26685)" stroke="white" stroke-linecap="round"/>
<path d="M248.193 80.2285C245.024 87.9753 242.013 104.05 255.324 106.374C268 107.694 269.849 97.9229 271.169 93.1692C274.866 93.9615 278.564 90.5282 275.923 88.1514M256.908 85.7745C256.908 90.1984 252.647 93.3254 253.901 95.3108C254.528 96.3047 255.937 96.387 257.096 96.1875C257.956 96.0394 258.78 95.7636 259.021 95.2819" stroke="white" stroke-linecap="round"/>
<path d="M256.644 100.564C257.524 100.828 259.707 100.986 261.398 99.5073" stroke="white" stroke-linecap="round"/>
<circle cx="263.51" cy="87.623" r="1.05638" fill="white"/>
<circle cx="251.89" cy="85.5105" r="1.05638" fill="white"/>
<path d="M262.19 121.691C262.63 121.867 263.669 122.167 264.303 121.955C265.095 121.691 266.68 124.332 265.359 125.917C264.749 126.648 263.103 126.965 261.662 126.445C263.09 127.227 264.419 126.445 264.831 126.445C265.095 126.445 267.208 149.95 267.472 150.478C267.736 151.006 264.303 161.57 263.246 161.834C262.19 162.098 262.19 158.929 259.285 155.231C256.961 152.274 259.601 134.724 261.662 126.445C261.348 126.332 261.662 126.445 261.398 126.181C259.31 124.093 262.094 121.655 262.19 121.691Z" fill="#50B8E7"/>
<path d="M255.588 106.638L255.852 112.712M255.852 112.712C257.26 115.705 260.711 121.691 263.246 121.691C265.782 121.691 265.183 121.691 264.567 121.691C266.768 119.491 271.275 114.825 271.697 113.769C271.824 113.451 271.668 112.567 271.349 111.392M255.852 112.712L253.211 114.825C254.091 118.874 255.904 127.026 256.116 127.237C256.327 127.449 259.021 125.037 260.341 123.804M268 101.884C268.985 104.346 270.607 108.659 271.349 111.392M271.349 111.392C272.697 112.008 275.342 113.346 275.131 113.769M261.662 126.445C263.103 126.965 264.749 126.648 265.359 125.917C266.68 124.332 265.095 121.691 264.303 121.955C263.669 122.167 262.63 121.867 262.19 121.691C262.094 121.655 259.31 124.093 261.398 126.181C261.662 126.445 261.348 126.332 261.662 126.445ZM261.662 126.445C259.601 134.724 256.961 152.274 259.285 155.231C262.19 158.929 262.19 162.098 263.246 161.834C264.303 161.57 267.736 151.006 267.472 150.478C267.208 149.95 265.095 126.445 264.831 126.445C264.419 126.445 263.09 127.227 261.662 126.445Z" stroke="white" stroke-linecap="round"/>
<path d="M255.852 106.638C257.078 106.813 258.323 106.813 259.549 106.638L261.134 106.374L261.597 106.241C262.518 105.978 263.406 105.614 264.247 105.156C265.335 104.562 266.332 103.816 267.209 102.94L267.736 102.412L269.321 107.166L270.905 112.184L263.246 110.071L255.852 107.694V106.638Z" fill="#E7F5FC"/>
<path d="M266.152 124.332C267.033 125.389 268.899 127.501 269.321 127.501C269.85 127.501 275.66 115.089 275.131 113.768C274.778 112.884 297.58 116.673 300.221 122.484C306.911 136.657 318.39 166.957 310.784 174.774C303.812 180.056 277.948 176.447 265.888 173.982C267.825 173.102 270.748 169.281 266.945 161.042M266.945 161.042C274.559 159.83 287.182 159.363 295.467 159.234M266.945 161.042C266.504 161.13 265.677 161.675 265.888 163.154M295.467 159.234C297.297 159.205 298.915 159.193 300.221 159.193L295.467 159.234ZM295.467 159.234L288.6 138.329" stroke="white" stroke-linecap="round"/>
<path d="M212.832 161.834C212.832 163.389 211.352 164.767 209.371 164.767C207.39 164.767 205.91 163.389 205.91 161.834C205.91 160.935 206.082 160.2 206.446 159.701C206.789 159.23 207.352 158.901 208.315 158.901C209.306 158.901 210.468 159.253 211.376 159.829C212.303 160.416 212.832 161.142 212.832 161.834Z" stroke="white"/>
<path d="M237.129 48.2731C237.129 49.2614 236.221 50.1499 234.988 50.1499C233.755 50.1499 232.847 49.2614 232.847 48.2731C232.847 47.6631 232.961 47.1889 233.178 46.8796C233.373 46.6013 233.694 46.3962 234.284 46.3962C234.906 46.3962 235.648 46.6281 236.229 47.0101C236.824 47.402 237.129 47.8642 237.129 48.2731Z" stroke="white"/>
<path d="M247.165 48.2731C247.165 49.2614 246.257 50.1499 245.024 50.1499C243.79 50.1499 242.883 49.2614 242.883 48.2731C242.883 47.6631 242.996 47.1889 243.213 46.8796C243.409 46.6013 243.729 46.3962 244.32 46.3962C244.942 46.3962 245.683 46.6281 246.264 47.0101C246.86 47.402 247.165 47.8642 247.165 48.2731Z" stroke="white"/>
<path d="M257.2 48.2731C257.2 49.2614 256.293 50.1499 255.059 50.1499C253.826 50.1499 252.918 49.2614 252.918 48.2731C252.918 47.6631 253.032 47.1889 253.249 46.8796C253.444 46.6013 253.765 46.3962 254.355 46.3962C254.977 46.3962 255.719 46.6281 256.3 47.0101C256.896 47.402 257.2 47.8642 257.2 48.2731Z" stroke="white"/>
<path d="M170.285 83.6618L180.585 64.3829L187.187 75.4749L200.392 60.6855L206.466 73.8903L214.125 66.7597L221.783 79.1722L230.499 64.3829M173.454 74.1544L175.039 76.5312M175.831 77.8517L177.151 79.9645M177.944 81.285L179.528 83.6618M180.585 85.2464L181.905 87.3591M183.49 84.19L182.697 86.3028M184.546 82.3413L185.074 81.0209L185.602 82.0772M186.659 83.6618L187.979 85.7746M189.036 87.3591L190.62 85.5105M191.941 84.19L193.525 82.3413M195.11 80.7568L196.43 79.1722M198.015 77.5876L199.335 75.739M200.656 74.4185L202.504 72.5698M203.825 71.2493L205.41 69.4007M206.73 68.0802L207.786 67.0238L208.315 68.0802M209.107 69.6648L210.163 71.7775M211.22 73.6262L212.276 75.4749M213.332 77.3235L214.389 79.4363M215.181 81.0209L216.502 83.3977M217.294 84.7182L218.086 86.3028" stroke="white" stroke-linecap="round"/>
<path d="M241.326 175.039L258.228 174.774V178.472" stroke="white" stroke-linecap="round"/>
<path d="M301.54 125.389C310.959 125.125 330.115 124.755 331.383 125.389C330.59 130.142 323.724 163.683 322.932 177.68C308.987 177.891 231.907 178.56 195.11 179" stroke="white" stroke-linecap="round"/>
<path d="M310.783 149.421L317.386 165.531L321.875 177.415L307.086 177.68L309.382 176.34C309.962 176.002 310.495 175.591 310.97 175.116C311.718 174.368 312.306 173.476 312.699 172.493L312.834 172.157C313.051 171.614 313.218 171.053 313.333 170.479L313.414 170.071C313.597 169.159 313.688 168.232 313.688 167.303V166.111C313.688 164.671 313.569 163.233 313.333 161.812L312.896 159.193L312.104 154.175L310.783 149.421Z" fill="#E7F5FC"/>
<path d="M268.528 172.662L280.941 174.246L292.297 175.567L298.899 175.831L302.573 175.664C303.987 175.6 305.38 175.298 306.694 174.773C308.003 174.249 309.214 173.511 310.279 172.588L312.632 170.549L311.726 172.492C311.114 173.803 310.098 174.884 308.828 175.577C308.199 175.92 307.52 176.162 306.815 176.292L303.07 176.986C301.524 177.272 299.959 177.439 298.387 177.485L296.297 177.546C293.283 177.635 290.266 177.488 287.275 177.106L279.356 176.095L267.208 173.982L268.528 172.662Z" fill="#E7F5FC"/>
<path d="M260.341 52.7625C260.341 49.4393 260.341 46.1618 260.341 44.5755C258.44 43.5191 192.469 44.1353 159.721 44.5755L159.193 121.955H163.682M260.341 52.7625C260.341 55.636 260.341 58.5435 260.341 60.4213V52.7625ZM260.341 52.7625L159.193 52.2343M202.504 121.955H235.252" stroke="white" stroke-linecap="round"/>
<path d="M172.133 114.033L164.474 111.92C160.671 130.512 173.453 136.393 180.32 137.009C180.408 136.569 180.795 134.526 181.64 129.878C171.922 129.245 171.253 119.05 172.133 114.033Z" fill="#50B8E7" stroke="white" stroke-linecap="round"/>
<path d="M170.813 133.047L180.32 134.896L180.056 136.745L177.415 136.217C176.011 135.865 174.649 135.362 173.355 134.714L173.19 134.632L170.813 133.047Z" fill="#50B8E7"/>
</svg>
