<svg width="330" xmlns="http://www.w3.org/2000/svg" xmlns:xlink="http://www.w3.org/1999/xlink" version="1.1" id="Layer_1" x="0px" y="0px" viewBox="0 0 674 377.7" style="enable-background:new 0 0 674 377.7;" xml:space="preserve">
    <style type="text/css">
        .st0{fill:#FFFFFF;}
        .st1{fill:#BEE8FF;}
        .st2{opacity:0.1294;}
        .st3{fill:#ACD4F7;}
    </style>
    <g>
        <g>
            <g>
                <path class="st0" d="M241.7,69c-0.2-2.5-1-5-2.2-7.3c-0.6-1.2-1.4-2.3-2.4-3.3c-1.1-1-2.3-1.8-3.5-2.7c-3.7-2.9-6.1-6.9-6.6-11.1     c-0.4-3.3-1-7-0.1-10.2c0.7-2.4,5.1-9.1,7.7-11.1c4.2-3.3,10.5-5.4,16.2-6s11.7,0.3,16.5,2.9c6.3,3.3,10.5,9.3,11.4,15.5     c0.9,6.3-1.4,12.7-5.8,17.8c-1.9,2.1-4.1,3.9-5.9,6c-2.6,2.9-4.4,6.3-5.4,9.7c-2.4,0.4-4.8,0.4-7.2,0.3c-2,0-4,0-6.1,0     C246.1,69.4,243.9,69.4,241.7,69z"/>
            </g>
            <g>
                <path class="st1" d="M240.5,69.5c7.3,0.6,14.6,0.6,21.9,0c0.4,5.2,0.8,8.4-0.8,13.5c-0.8,2.5-2.3,5-4.9,6.2     c-3.1,1.5-7,0.7-10.4-0.1c-1.3-0.3-2.7-0.6-3.8-1.4c-2.2-1.6-2.3-4.3-2.2-6.7C240.3,76.2,240.4,73.7,240.5,69.5z"/>
            </g>
            <g>
                <g class="st2">
                    <path d="M279.2,37.9c-0.6-0.5-1.6-0.4-2.1,0.2c-0.3,0.6-0.2,0.3-0.3,1.2c0,0.1,0,0.2,0,0.3c-0.1,0.4-0.4,1.5-0.5,1.8      c0.2-0.3,0.2-0.3,0,0c-1,2.3-1.2,2.9-2.5,4.8c-0.3,0.5-0.9,1.8-2.1,3c-1.4,1.6-5.2,4.7-7.4,7.3c-0.6,0.8-2.1,2.5-2.3,2.7      c0,0,0,0,0,0c-0.8,0.9-1.7,1.8-2.3,2.8c-1.2,2-1.1,2-1.9,3.5c-0.4,1-1.2,2.3-1.1,3.3c0,0.1,0,0.2,0,0.2      c-0.4,0.6-0.6,1.3-0.3,2.1c0.7,2,0.7,4.3,0.5,8c-0.2,3.8,0.1,2.3-1.1,5.8c-0.7,1.7-0.2,0.7-1.2,2.3c-0.2,0.4-0.6,0.8-0.6,1.2      c-0.2,1,0.4,1.7,1.3,2.1c0.2-0.1,0.4-0.2,0.6-0.4c0.9-0.6,1.8-1.2,2.7-1.8c0.5-0.3,0.9-0.6,1.4-0.9c0.8-1.4,1.3-2.8,1.7-4.3      c0.6-3.1,0.8-3.7,1.4-7.2c0.3-1.5,0.2-3,0-4.5c-0.2-0.9-0.2-2-0.9-2.8c0,0,0,0,0,0c-0.2,0-0.4,0-0.6,0.1c-0.4,0-0.7,0.1-1.1,0.1      c1.6-4.4,2.8-6.8,5.6-10c1.8-1.9,3.9-3.6,5.8-5.4c1.8-1.6,3.5-3.4,4.7-5.4c0.7-1.4,0.6-1.3,1-2.3c0.1-0.2,0,0-0.1,0.2      c0.3-0.5,0.5-1,0.7-1.5c0.4-0.8,0.6-1.6,0.7-2.4c0,0,0,0,0,0C279.4,40.5,280.1,38.8,279.2,37.9z"/>
                </g>
                <g class="st2">
                    <path d="M257.6,66c0.1-0.1,0.1-0.2,0.2-0.3c0,0,0-0.1,0.1-0.1C257.7,65.7,257.7,65.8,257.6,66z"/>
                </g>
            </g>
            <g>
                <path d="M252.2,90.9c-1.1,0-2-0.1-2.7-0.2c-2.2-0.3-7.4-1.4-9.1-5.2c-0.6-1.4-0.6-2.9-0.6-4.2c0-2.4,0-4.2,0-6c0-1.9,0-3.7,0-6.1     c0-0.1,0.1-0.3,0.2-0.4c0.1-0.1,0.2-0.1,0.4-0.1c4.3,0.4,18.4,0.6,22.2,0.3c0.3,0,0.5,0.2,0.6,0.5c0.5,5.9,0.2,8-0.8,13.5     c-0.3,1.8-0.8,3.8-2.2,5.3C257.9,90.4,254.7,90.9,252.2,90.9z M240.7,69.7c0,2.1,0,3.9,0,5.6c0,1.8,0,3.7,0,6     c0,1.3,0,2.6,0.5,3.8c1,2.3,4.1,4,8.3,4.6c4.2,0.6,7.8-0.3,9.6-2.2c1.2-1.3,1.6-3.1,2-4.8c1-5.2,1.3-7.3,0.8-12.7     C257.7,70.3,245.3,70.1,240.7,69.7z"/>
            </g>
            <g>
                <path d="M261,69.9C261,69.9,260.9,69.9,261,69.9c-0.4-0.1-0.6-0.3-0.5-0.6c1-5.2,5-9.3,8.9-13.3c3.6-3.7,7.4-7.5,8.6-12.1     c0.6-2.5,0.6-8.5-1.6-13.6c-1.6-3.8-3.9-6.6-6.8-8.5c-5.5-3.4-15-5.9-22.5-3.9c-7.1,1.9-12.9,5.3-16.4,9.8     c-3.2,4.1-4.5,9.2-3.8,14.3c0.6,4.8,3,9.6,6.8,13.7c0.5,0.6,1.1,1.1,1.6,1.7c1.2,1.1,2.3,2.3,3.3,3.7c1.7,2.4,2.7,5.1,2.8,7.9     c0,0.3-0.2,0.5-0.5,0.5c-0.3,0-0.5-0.2-0.5-0.5c-0.1-2.6-0.9-5.1-2.6-7.4c-0.9-1.3-2.1-2.4-3.2-3.5c-0.6-0.6-1.1-1.1-1.7-1.7     c-4-4.3-6.4-9.2-7.1-14.2c-0.7-5.4,0.7-10.8,4.1-15.1c3.6-4.6,9.6-8.2,16.9-10.1c7.8-2,17.6,0.5,23.3,4.1     c3.1,1.9,5.5,4.9,7.2,8.9c2.3,5.3,2.3,11.7,1.7,14.3c-1.2,4.9-5.1,8.8-8.8,12.6c-3.8,3.9-7.8,7.9-8.7,12.7     C261.5,69.7,261.2,69.9,261,69.9z"/>
            </g>
            <g>
                <path d="M255,69.6C255,69.6,255,69.6,255,69.6c-0.3,0-0.5-0.2-0.5-0.5l0-0.1c0-4.9,0.3-10,0.8-15.3c0.2-2.2,0.4-4.3,1.1-6.3     c-1.7-0.4-3.3-1.3-4.3-2.4c-0.2-0.2-0.3-0.4-0.5-0.6c-0.2,0.4-0.5,0.7-0.7,1.1c-1.4,2.1-2.9,3.1-4.6,3.3c-0.5,0-1.1,0-1.6-0.1     c0.5,1.4,0.8,2.8,1.1,4.1c1.1,5.3,1.6,10.7,1.5,16.1c0,0.3-0.3,0.5-0.5,0.5c-0.3,0-0.5-0.2-0.5-0.5c0.1-5.3-0.3-10.6-1.5-15.9     c-0.3-1.5-0.7-3.1-1.3-4.7c-0.2-0.1-0.5-0.2-0.7-0.3c-2.5-1-5.2-2.4-6.8-4.7c-0.7-1.1-0.8-2.1-0.2-2.8c0.6-0.8,1.8-0.8,2.6-0.6     c0.8,0.3,1.5,0.8,2,1.3c1.8,1.8,3,4,3.9,6.2c0.6,0.2,1.3,0.3,1.9,0.3c1.4-0.1,2.6-1,3.8-2.8c0.3-0.5,0.6-1,0.9-1.5     c-0.9-1.5-1.4-3.3-1.5-5.6c-0.1-1.7-0.1-4.2,1.5-6.2c0.5-0.6,1.1-0.9,1.7-0.7c0.4,0.1,0.7,0.4,0.9,0.7c1.4,1.9,1.1,4.3,0.8,5.9     c-0.4,2.1-1.1,4-2.1,5.9c0.2,0.3,0.5,0.6,0.7,0.9c0.9,1,2.3,1.9,3.9,2.2c0-0.1,0.1-0.2,0.1-0.2c1.1-2.3,3-4.3,5.3-5.7     c0.4-0.3,1-0.5,1.6-0.5c0.5,0.1,1,0.4,1.2,0.8c0.4,0.8,0.1,1.8-0.3,2.5c-1.2,2-2.7,3.4-4.6,3.9c-0.9,0.3-1.9,0.4-2.8,0.3     c-0.7,1.9-0.9,3.9-1.1,6.2c-0.4,5.2-0.7,10.3-0.7,15.2l0,0.1C255.5,69.4,255.3,69.6,255,69.6z M237.6,40.9c-0.4,0-0.8,0.1-1,0.4     c-0.4,0.5,0.1,1.2,0.3,1.5c1.4,2,4,3.3,6.1,4.2c-0.8-1.8-1.8-3.5-3.3-5c-0.4-0.4-0.9-0.9-1.6-1.1C238,40.9,237.8,40.9,237.6,40.9     z M257.9,46.7c0.7,0,1.4,0,2-0.2c1.6-0.5,2.9-1.7,4-3.5c0.3-0.5,0.4-1.2,0.2-1.5c0-0.1-0.1-0.2-0.4-0.2c-0.3,0-0.6,0.1-0.9,0.3     C260.6,42.8,258.9,44.6,257.9,46.7z M252.4,32c-0.2,0-0.4,0.2-0.6,0.4c-1,1.3-1.5,3-1.3,5.5c0.1,1.8,0.5,3.3,1.1,4.5     c0.8-1.6,1.4-3.3,1.7-5.1c0.5-2.3,0.3-3.9-0.6-5.1C252.6,32.1,252.5,32,252.4,32C252.4,32,252.4,32,252.4,32z"/>
            </g>
            <g>
                <path d="M282.4,22.9c-0.2,0-0.4-0.1-0.5-0.3c-0.1-0.2,0-0.5,0.2-0.7l6.4-3.5c0.6-0.3,1-0.2,1.2,0c0.2,0.1,0.2,0.3,0.2,0.5     c-0.1,0.5-0.1,0.5-7.3,3.9C282.6,22.8,282.5,22.9,282.4,22.9z"/>
            </g>
            <g>
                <path d="M241.9,11.2c-0.2,0-0.4-0.1-0.5-0.3l-3.1-6.7c-0.1-0.3,0-0.6,0.2-0.7c0.3-0.1,0.6,0,0.7,0.2l3.1,6.7     c0.1,0.3,0,0.6-0.2,0.7C242.1,11.2,242,11.2,241.9,11.2z"/>
            </g>
            <g>
                <path d="M221,26.2C221,26.2,221,26.2,221,26.2l-7.1-1.4c-0.2,0-0.7-0.1-0.9-0.6c-0.1-0.2,0-0.4,0.1-0.6c0.3-0.3,0.5-0.5,8,1.6     c0.3,0.1,0.4,0.3,0.4,0.6C221.5,26.1,221.3,26.2,221,26.2z"/>
            </g>
            <g>
                <path d="M211.7,52.4c-0.2,0-0.4-0.1-0.5-0.3c-0.1-0.3,0-0.6,0.3-0.7l7.2-3.1c0.3-0.1,0.6,0,0.7,0.3c0.1,0.3,0,0.6-0.3,0.7     l-7.2,3.1C211.9,52.4,211.8,52.4,211.7,52.4z"/>
            </g>
            <g>
                <path d="M263.3,11.1c-0.1,0-0.1,0-0.2,0c-0.3-0.1-0.4-0.4-0.3-0.7l2.6-6.4c0.1-0.3,0.4-0.4,0.7-0.3c0.3,0.1,0.4,0.4,0.3,0.7     l-2.6,6.4C263.7,10.9,263.5,11.1,263.3,11.1z"/>
            </g>
            <g>
                <path d="M291.5,47.5c-0.1,0-0.1,0-0.2,0l-7-2.7c-0.3-0.1-0.4-0.4-0.3-0.7c0.1-0.3,0.4-0.4,0.7-0.3l7,2.7c0.3,0.1,0.4,0.4,0.3,0.7     C291.9,47.4,291.7,47.5,291.5,47.5z"/>
            </g>
        </g>
        <g>
            <g>
                <path class="st0" d="M492.5,117c0.5,48,0,96.8,0,145.8c-143.6,0-145.7,0.4-188.7-0.2c-0.8-48.7-1-104.3,0.2-145.1     C349.3,117.5,432.8,116.3,492.5,117z"/>
                <path d="M351.5,263.4c-18.1,0-29-0.1-47.7-0.3c-0.3,0-0.5-0.2-0.5-0.5c-0.5-33.9-1.2-97.9,0.2-145.1c0-0.3,0.2-0.5,0.5-0.5     c15.7,0,36.5-0.1,58.5-0.3c42.7-0.3,91.1-0.6,130-0.2c0.3,0,0.5,0.2,0.5,0.5c0.4,32,0.2,64.9,0.1,96.8c-0.1,16.1-0.1,32.7-0.1,49     c0,0.3-0.2,0.5-0.5,0.5c-52.9,0-86.1,0.1-110.3,0.1C369.5,263.4,359.8,263.4,351.5,263.4z M304.3,262c26.8,0.4,37.8,0.3,78,0.3     c24.1,0,57.1-0.1,109.7-0.1c0-16.2,0.1-32.6,0.1-48.5c0.1-31.7,0.2-64.4-0.1-96.2c-38.8-0.4-87-0.1-129.5,0.2     c-21.8,0.2-42.3,0.3-58,0.3C303.1,164.9,303.8,228.1,304.3,262z"/>
            </g>
            <g>
                <path d="M492.7,134.3C492.7,134.3,492.7,134.3,492.7,134.3c-44.3-1.1-130.9-1.1-182.6-1.1l-6.3,0c-0.3,0-0.5-0.2-0.5-0.5     c0-0.3,0.2-0.5,0.5-0.5l6.3,0c51.7,0,138.3,0,182.6,1.1c0.3,0,0.5,0.2,0.5,0.5C493.2,134.1,492.9,134.3,492.7,134.3z"/>
            </g>
            <g>
                <path d="M482.1,130c-2.6,0-4.7-2.1-4.7-4.7c0-2.6,2.1-4.7,4.7-4.7c2.6,0,4.7,2.1,4.7,4.7C486.8,127.9,484.7,130,482.1,130z      M482.1,121.6c-2,0-3.7,1.6-3.7,3.7c0,2,1.6,3.7,3.7,3.7c2,0,3.7-1.6,3.7-3.7C485.8,123.3,484.2,121.6,482.1,121.6z"/>
            </g>
            <g>
                <path d="M463.9,130c-2.6,0-4.7-2.1-4.7-4.7c0-2.6,2.1-4.7,4.7-4.7s4.7,2.1,4.7,4.7C468.6,127.9,466.5,130,463.9,130z      M463.9,121.6c-2,0-3.7,1.6-3.7,3.7c0,2,1.6,3.7,3.7,3.7c2,0,3.7-1.6,3.7-3.7C467.6,123.3,466,121.6,463.9,121.6z"/>
            </g>
            <g>
                <path d="M444.8,130c-2.6,0-4.7-2.1-4.7-4.7c0-2.6,2.1-4.7,4.7-4.7c2.6,0,4.7,2.1,4.7,4.7C449.4,127.9,447.3,130,444.8,130z      M444.8,121.6c-2,0-3.7,1.6-3.7,3.7c0,2,1.6,3.7,3.7,3.7c2,0,3.7-1.6,3.7-3.7C448.4,123.3,446.8,121.6,444.8,121.6z"/>
            </g>
            <g>
                <path d="M324,190.9c-0.1,0-0.2,0-0.3-0.1c-0.2-0.1-0.3-0.5-0.2-0.7c6.9-11.9,13.3-23.6,19.6-35.7c0.1-0.2,0.3-0.3,0.4-0.3     c0.2,0,0.4,0.1,0.5,0.3l0.1,0.1c3.8,6.5,7.7,13.3,11.7,20.1c7.2-8.4,14.5-16.7,22.1-25.4l1.9-2.2c0.1-0.1,0.3-0.2,0.5-0.2     c0.2,0,0.3,0.1,0.4,0.3c3.4,7.8,7,15.9,10.8,24.3l13.3-12.3c0.3-0.3,0.6-0.6,1.2-0.7c1.1-0.2,1.9,1,2.1,1.4     c2.8,4.5,5.4,9.2,8,13.6c1.5,2.6,2.9,5,4.3,7.4c5.1-9.3,10.5-18.6,16.2-27.7c0.1-0.2,0.5-0.3,0.7-0.2c0.2,0.1,0.3,0.5,0.2,0.7     c-5.8,9.3-11.3,18.9-16.6,28.4c-0.1,0.2-0.3,0.3-0.4,0.3c-0.2,0-0.4-0.1-0.4-0.3c-1.6-2.6-3.1-5.3-4.7-8.2     c-2.5-4.5-5.2-9.1-8-13.6c-0.4-0.7-0.8-1-1.1-0.9c-0.2,0-0.4,0.2-0.6,0.4l-13.9,12.8c-0.1,0.1-0.3,0.2-0.4,0.1     c-0.2,0-0.3-0.1-0.4-0.3c-3.8-8.4-7.3-16.4-10.8-24.2l-1.4,1.6c-7.8,8.9-15.1,17.3-22.5,25.9c-0.1,0.1-0.3,0.2-0.4,0.2     c-0.2,0-0.3-0.1-0.4-0.3c-3.9-6.9-7.8-13.6-11.6-20.1c-6.2,11.8-12.5,23.3-19.2,34.9C324.4,190.8,324.2,190.9,324,190.9z"/>
            </g>
            <g>
                <path d="M340.5,191.2c-0.2,0-0.3-0.1-0.4-0.2c-0.7-1.2-1.4-2.3-2.2-3.5c-0.2-0.2-0.1-0.6,0.2-0.7c0.2-0.1,0.6-0.1,0.7,0.2     c0.7,1.1,1.4,2.3,2.2,3.5c0.1,0.2,0.1,0.6-0.2,0.7C340.7,191.2,340.6,191.2,340.5,191.2z M354.4,191.2c-0.1,0-0.3,0-0.4-0.1     c-0.2-0.2-0.2-0.5,0-0.7c0.9-1,1.9-2,2.8-3c0.2-0.2,0.5-0.2,0.7,0c0.2,0.2,0.2,0.5,0,0.7c-0.9,1-1.9,2-2.8,3     C354.7,191.1,354.5,191.2,354.4,191.2z M342.3,189.6c-0.1,0-0.1,0-0.2,0c-0.3-0.1-0.4-0.4-0.3-0.7c0.6-1.2,1.1-2.5,1.7-3.7     c0.1-0.3,0.4-0.4,0.7-0.2c0.3,0.1,0.4,0.4,0.2,0.7c-0.6,1.2-1.2,2.5-1.7,3.7C342.6,189.5,342.5,189.6,342.3,189.6z M408.7,189.3     c-0.2,0-0.4-0.1-0.4-0.3l-1-1.9c-0.1-0.2,0-0.6,0.2-0.7c0.2-0.1,0.6,0,0.7,0.2l1,1.9c0.1,0.2,0,0.6-0.2,0.7     C408.9,189.3,408.8,189.3,408.7,189.3z M352.2,188.3c-0.2,0-0.3-0.1-0.4-0.2c-0.8-1.2-1.5-2.4-2.2-3.4c-0.2-0.2-0.1-0.6,0.1-0.7     c0.2-0.2,0.6-0.1,0.7,0.1c0.7,1.1,1.5,2.2,2.2,3.4c0.2,0.2,0.1,0.6-0.2,0.7C352.4,188.3,352.3,188.3,352.2,188.3z M360,185.2     c-0.1,0-0.2,0-0.3-0.1c-0.2-0.2-0.2-0.5,0-0.7c0.9-1,1.8-2,2.8-3c0.2-0.2,0.5-0.2,0.7,0c0.2,0.2,0.2,0.5,0,0.7     c-0.9,1-1.8,2-2.8,3C360.3,185.2,360.1,185.2,360,185.2z M336.1,184.3c-0.2,0-0.3-0.1-0.4-0.2c-0.7-1.2-1.5-2.3-2.2-3.4     c-0.2-0.2-0.1-0.6,0.2-0.7c0.2-0.2,0.6-0.1,0.7,0.2c0.7,1.1,1.5,2.3,2.2,3.4c0.2,0.2,0.1,0.6-0.2,0.7     C336.3,184.3,336.2,184.3,336.1,184.3z M405.7,183.9c-0.2,0-0.4-0.1-0.4-0.3l-2-3.6c-0.1-0.2,0-0.6,0.2-0.7     c0.2-0.1,0.6,0,0.7,0.2l2,3.6c0.1,0.2,0,0.6-0.2,0.7C405.9,183.8,405.8,183.9,405.7,183.9z M345.8,182.2c-0.1,0-0.2,0-0.2-0.1     c-0.3-0.1-0.4-0.4-0.2-0.7c0.4-0.7,0.7-1.4,1.1-2.1c0.1-0.2,0.3-0.3,0.4-0.3c0.2,0,0.4,0.1,0.5,0.2c0.3,0.5,0.6,0.9,0.9,1.4     c0.2,0.2,0.1,0.6-0.2,0.7c-0.2,0.2-0.6,0.1-0.7-0.2c-0.1-0.2-0.3-0.4-0.4-0.7c-0.2,0.4-0.5,0.9-0.7,1.3     C346.1,182.1,346,182.2,345.8,182.2z M365.5,179.2c-0.1,0-0.2,0-0.3-0.1c-0.2-0.2-0.2-0.5,0-0.7c0.9-1,1.8-2,2.8-3     c0.2-0.2,0.5-0.2,0.7,0c0.2,0.2,0.2,0.5,0,0.7c-0.9,1-1.8,2-2.8,3C365.8,179.2,365.7,179.2,365.5,179.2z M331.8,177.5     c-0.2,0-0.3-0.1-0.4-0.2c-0.7-1.1-1.5-2.3-2.2-3.4c-0.2-0.2-0.1-0.6,0.2-0.7c0.2-0.2,0.6-0.1,0.7,0.2c0.7,1.1,1.5,2.3,2.2,3.4     c0.2,0.2,0.1,0.6-0.2,0.7C332,177.4,331.9,177.5,331.8,177.5z M401.8,176.7c-0.2,0-0.4-0.1-0.4-0.3l-2-3.6     c-0.1-0.2,0-0.6,0.2-0.7c0.2-0.1,0.6,0,0.7,0.2l2,3.6c0.1,0.2,0,0.6-0.2,0.7C402,176.7,401.9,176.7,401.8,176.7z M371,173.2     c-0.1,0-0.2,0-0.3-0.1c-0.2-0.2-0.2-0.5,0-0.7l2.7-3c0.2-0.2,0.5-0.2,0.7,0c0.2,0.2,0.2,0.5,0,0.7l-2.7,3     C371.3,173.2,371.2,173.2,371,173.2z M327.4,170.6c-0.2,0-0.3-0.1-0.4-0.2l-2.2-3.4c-0.2-0.2-0.1-0.6,0.2-0.7     c0.2-0.2,0.6-0.1,0.7,0.2l2.2,3.4c0.2,0.2,0.1,0.6-0.2,0.7C327.6,170.6,327.5,170.6,327.4,170.6z M397.8,169.6     c-0.2,0-0.4-0.1-0.4-0.3l-2-3.6c-0.1-0.2,0-0.6,0.2-0.7c0.2-0.1,0.6,0,0.7,0.2l2,3.6c0.1,0.2,0,0.6-0.2,0.7     C398,169.5,397.9,169.6,397.8,169.6z M376.5,167.2c-0.1,0-0.2,0-0.3-0.1c-0.2-0.2-0.2-0.5,0-0.7c0.9-1,1.8-2,2.8-3     c0.2-0.2,0.5-0.2,0.7,0c0.2,0.2,0.2,0.5,0,0.7c-0.9,1-1.8,2-2.8,3C376.8,167.1,376.7,167.2,376.5,167.2z M393.9,162.4     c-0.2,0-0.4-0.1-0.4-0.3l-2-3.6c-0.1-0.2,0-0.6,0.2-0.7c0.2-0.1,0.6,0,0.7,0.2l2,3.6c0.1,0.2,0,0.6-0.2,0.7     C394.1,162.4,394,162.4,393.9,162.4z M382,161.2c-0.1,0-0.2,0-0.3-0.1c-0.2-0.2-0.2-0.5,0-0.7c0.9-1,1.8-2,2.8-3     c0.2-0.2,0.5-0.2,0.7,0c0.2,0.2,0.2,0.5,0,0.7c-0.9,1-1.8,2-2.8,3C382.3,161.1,382.2,161.2,382,161.2z M390,155.3     c-0.2,0-0.4-0.1-0.4-0.3l-0.6-1.1c-0.3,0.4-0.7,0.7-1,1.1c-0.2,0.2-0.5,0.2-0.7,0c-0.2-0.2-0.2-0.5,0-0.7c0.5-0.5,1-1.1,1.5-1.6     c0.1-0.1,0.3-0.2,0.4-0.2c0.2,0,0.3,0.1,0.4,0.3l0.9,1.7c0.1,0.2,0,0.6-0.2,0.7C390.1,155.2,390.1,155.3,390,155.3z"/>
            </g>
            <g>
                <path d="M448.3,210.2C448.3,210.2,448.3,210.2,448.3,210.2l-36.8-0.8c-0.3,0-0.5-0.2-0.5-0.5c0-0.3,0.2-0.5,0.5-0.5l36.7,0.8     c0.3,0,0.5,0.2,0.5,0.5C448.8,210,448.6,210.2,448.3,210.2z"/>
            </g>
            <g>
                <path d="M405.8,222.2c-0.3,0-0.5-0.2-0.5-0.5c0-0.3,0.2-0.5,0.5-0.5l25.9-0.1c0,0,0,0,0,0c0.3,0,0.5,0.2,0.5,0.5     c0,0.3-0.2,0.5-0.5,0.5L405.8,222.2C405.8,222.2,405.8,222.2,405.8,222.2z"/>
            </g>
            <g>
                <path d="M440.2,235.8c-9.6,0-19.2-0.2-28.7-0.6c-0.3,0-0.5-0.2-0.5-0.5c0-0.3,0.2-0.5,0.5-0.5c11.9,0.5,24,0.7,36,0.6     c0,0,0,0,0,0c0.3,0,0.5,0.2,0.5,0.5c0,0.3-0.2,0.5-0.5,0.5C445.1,235.7,442.7,235.8,440.2,235.8z"/>
            </g>
        </g>
        <g>
            <g>
                <path class="st0" d="M271.8,202.4c-1.9-6.3-6.7-11.2-12-14c-6.1-3.2-22.2-4.7-29.2-5.3c0.3,16.9,0.2,33.8,0.3,51.3     c1.4,5,3.2,9.9,6.4,14c3.2,4.1,7.9,7.2,13.1,7.4c7.6,0.4,14.4-5.4,17.6-12.4c3.2-6.9,3.5-14.8,3.7-22.4     C271.9,214.9,273.6,208.4,271.8,202.4z"/>
                <path d="M251.1,256.4c-0.3,0-0.5,0-0.8,0c-4.9-0.3-9.8-3-13.4-7.6c-2.8-3.5-4.8-7.9-6.5-14.2c0,0,0-0.1,0-0.1     c0-6-0.1-12.1-0.1-17.9c0-11.5-0.1-22.3-0.2-33.4c0-0.1,0.1-0.3,0.2-0.4c0.1-0.1,0.2-0.1,0.4-0.1c6.3,0.6,23.1,2,29.4,5.3     c6,3.1,10.4,8.4,12.2,14.3l0,0c1.3,4.3,0.8,8.8,0.3,13.1c-0.2,1.9-0.4,3.8-0.5,5.7c-0.2,7.3-0.5,15.5-3.7,22.6     C265.5,250.2,259.1,256.4,251.1,256.4z M231.4,234.4c1.7,6.1,3.6,10.4,6.3,13.8c3.4,4.4,8,7,12.7,7.2c7.8,0.4,14.2-5.8,17.1-12.1     c3.2-6.9,3.4-15.1,3.7-22.2c0.1-1.9,0.3-3.9,0.5-5.8c0.5-4.3,0.9-8.7-0.3-12.7l0,0c-1.7-5.7-6-10.7-11.7-13.7     c-5.9-3.1-21.8-4.6-28.5-5.2c0.2,10.9,0.2,21.6,0.2,32.9C231.4,222.4,231.4,228.4,231.4,234.4z"/>
            </g>
            <g>
                <path class="st0" d="M179.7,281.5c-0.5-13.1-1.2-26.1-2.1-39.1c-57.2,6.8-115.9,3.4-172.1-10.7c0.9,28.7,0.4,57.4-1.6,86     c8.2,3.2,93.8,18.6,168.1,7.6c2.9-0.4,5.8-0.9,8.7-1.3C180.6,309.8,180.3,295.7,179.7,281.5z"/>
                <path d="M114.1,329.7c-19.2,0-36.8-1.1-51-2.4c-30.7-2.8-55-7.4-59.4-9.1c-0.2-0.1-0.3-0.3-0.3-0.5c2-28,2.5-56.9,1.6-85.9     c0-0.2,0.1-0.3,0.2-0.4c0.1-0.1,0.3-0.1,0.4-0.1c56.1,14,114,17.6,172,10.7c0.1,0,0.3,0,0.4,0.1c0.1,0.1,0.2,0.2,0.2,0.4     c0.9,13.4,1.6,26.6,2.1,39.2l0,0c0.6,14.2,0.9,28.4,1,42.4c0,0.3-0.2,0.5-0.4,0.5c-2.9,0.4-5.8,0.9-8.7,1.3     C152.6,328.6,132.7,329.7,114.1,329.7z M4.4,317.3c5.2,1.8,28.9,6.2,58.8,9c27.9,2.5,69.4,4.3,108.7-1.5c2.8-0.4,5.5-0.8,8.3-1.2     c-0.1-13.8-0.5-28-1-42c-0.5-12.4-1.2-25.3-2-38.6c-28.4,3.4-57.4,4.2-86,2.4c-28.8-1.8-57.4-6.2-85.2-13     C6.9,261,6.3,289.6,4.4,317.3z"/>
            </g>
            <g>
                <path class="st0" d="M273.3,279.8c-0.9-14.3-1.7-28.7-1.4-43.1c0.3-11.4,1.4-22.9-0.2-34.3c0.6,6.4-3.5,12.8-8.8,17.3     c-9.4,8.1-22.1,11.7-34.4,14.5c-11.8,2.7-23.8,5-35.9,6.8c0,0,0,0,0,0.1c0.4,7.5,0.8,14.9,1.2,22.4c0.6,13.3,1.1,26.6,1.5,40     c0.2,6.3,0.3,12.5,0.4,18.8c12.9-2.2,25.8-4.7,38.4-8.3c14.7-4.2,29.8-10.3,39.5-22.2C273.8,287.4,273.6,283.6,273.3,279.8z"/>
                <path d="M195.9,322.8c-0.1,0-0.2,0-0.3-0.1c-0.1-0.1-0.2-0.2-0.2-0.4c-0.1-6.2-0.2-12.5-0.4-18.8c-0.3-12.6-0.8-25.7-1.5-39.9     c-0.2-4.5-0.5-9.2-0.7-13.6c-0.2-2.9-0.3-5.9-0.5-8.8c0,0,0,0,0,0c0-0.3,0.2-0.5,0.4-0.6c12-1.8,24.1-4.1,35.8-6.8     c11.6-2.7,24.7-6.2,34.2-14.4c5.9-5.1,9.1-11.4,8.6-16.9c0-0.3,0.2-0.5,0.4-0.6c0.3,0,0.5,0.2,0.6,0.4c1.2,8.8,0.8,17.8,0.5,26.5     c-0.1,2.6-0.2,5.3-0.3,7.9c-0.4,14.4,0.5,28.9,1.4,43l0,0c0,0,0,0,0,0l-0.5,0l0.5,0c0.2,3.8,0.5,7.7,0.4,12.1     c0,0.1,0,0.2-0.1,0.3c-10.4,12.7-26.7,18.6-39.7,22.3C223.5,317.6,211.3,320.2,195.9,322.8C195.9,322.8,195.9,322.8,195.9,322.8z      M193.3,241.5c0.1,2.8,0.3,5.6,0.5,8.4c0.2,4.5,0.5,9.1,0.7,13.6c0.7,14.2,1.2,27.3,1.5,40c0.2,6.1,0.3,12.2,0.4,18.2     c15-2.5,27-5.1,37.8-8.2c12.8-3.6,28.9-9.4,39.1-21.9c0-4.3-0.2-8.2-0.4-11.8v0c-0.9-14.1-1.7-28.7-1.4-43.1     c0.1-2.6,0.2-5.3,0.3-7.9c0.3-7,0.6-14.1,0.1-21.2c-1.2,4.3-4.1,8.8-8.4,12.5c-9.7,8.4-23,11.9-34.6,14.6     C217.2,237.4,205.2,239.7,193.3,241.5z M273.8,291.9L273.8,291.9L273.8,291.9z"/>
            </g>
            <g>
                <path class="st1" d="M82.2,112.6c2.9,9,0.2,19.9-7.4,25.4c-4.2,3-9.3,4.3-13.7,7c-4.4,2.7-8.1,7.7-6.7,12.7     c0.4,1.2,1.1,2.4,1.2,3.7c0.3,3.5-3.3,5.8-5.9,8.1c-6,5.1-8.3,15.1-3.1,21c4.1,4.7,11,5.4,17.2,5.5c8.4,0.2,17.1-0.2,24.7-3.8     c7.5-3.6,13.3-10.2,16.9-17.7c3.7-7.5,5.3-15.8,6.1-24c0.9-9.5,0.4-19.6-4.4-27.9S92,108.8,82.2,112.6z"/>
                <path d="M66.9,196.6c-1,0-2.1,0-3.1,0c-6.4-0.1-13.4-0.9-17.6-5.7c-2.2-2.5-3.2-5.8-2.9-9.5c0.3-4.6,2.6-9.2,6.1-12.2     c0.4-0.3,0.8-0.6,1.2-1c2.4-2,4.8-4,4.6-6.7c-0.1-0.8-0.4-1.5-0.7-2.2c-0.2-0.4-0.4-0.9-0.5-1.4c-1.6-5.2,2.5-10.5,6.9-13.2     c2-1.2,4.1-2.2,6.2-3.1c2.6-1.1,5.2-2.3,7.5-3.9c7.2-5.2,10.2-15.7,7.2-24.9c-0.1-0.3,0-0.5,0.3-0.6c4.7-1.8,9.8-1.7,14.7,0.5     c4.5,2,8.3,5.5,10.8,9.8c4.2,7.1,5.6,16.1,4.5,28.2c-0.9,9.7-2.9,17.6-6.1,24.2c-4,8.1-10.1,14.5-17.2,17.9     C82,196,74.4,196.6,66.9,196.6z M82.8,112.9c2.9,9.4-0.3,20.1-7.7,25.5c-2.4,1.7-5.1,2.9-7.7,4.1c-2,0.9-4.2,1.8-6.1,3     c-4.1,2.5-7.9,7.4-6.5,12.1c0.1,0.4,0.3,0.8,0.5,1.3c0.3,0.8,0.6,1.6,0.7,2.5c0.3,3.3-2.5,5.6-4.9,7.6c-0.4,0.3-0.8,0.6-1.1,1     c-3.3,2.8-5.5,7.2-5.8,11.5c-0.2,3.4,0.7,6.5,2.7,8.8c3.9,4.5,10.4,5.2,16.8,5.3c8.3,0.2,17-0.2,24.5-3.8     c6.9-3.3,12.8-9.5,16.7-17.4c3.2-6.5,5.2-14.3,6-23.9c1.1-11.9-0.3-20.7-4.3-27.6C102.2,115.4,92.5,109.4,82.8,112.9z"/>
            </g>
            <g>
                <path class="st1" d="M124.8,77.1c1.3,13.6,2.9,28.2,11.8,38.6c2.9,3.4,6.5,6.2,9.1,9.8c3.1,4.3,4.7,9.4,5.8,14.6     c2,9.8,2.1,20.4-2.5,29.3c-4.6,8.9-14.9,15.2-24.7,12.9c-8.5-2-14.6-10.1-16.7-18.6c-2.1-8.5-0.9-17.5,0.6-26.1     C111.9,116.9,117.2,96.4,124.8,77.1z"/>
                <path d="M128.4,183.3c-1.4,0-2.8-0.2-4.1-0.5c-8-1.9-14.7-9.4-17.1-19c-2.1-8.8-0.9-17.8,0.6-26.3c3.8-22,9.4-42.4,16.5-60.6     c0.1-0.2,0.3-0.4,0.5-0.3c0.2,0,0.4,0.2,0.4,0.5c1.4,15.1,3.3,28.5,11.7,38.3c1.2,1.4,2.5,2.7,3.8,4c1.8,1.8,3.7,3.7,5.3,5.8     c2.7,3.7,4.6,8.4,5.9,14.8c2.4,11.8,1.6,21.7-2.5,29.6C145.1,178,136.6,183.3,128.4,183.3z M124.5,79.3     c-6.8,17.6-12,37.2-15.7,58.4c-1.5,8.4-2.7,17.3-0.6,25.9c2.3,9.3,8.7,16.4,16.3,18.2c1.3,0.3,2.6,0.4,3.9,0.4     c7.8,0,16-5.1,20.2-13.1c4-7.7,4.8-17.4,2.4-29c-1.3-6.3-3.1-10.9-5.7-14.4c-1.5-2.1-3.4-3.9-5.1-5.7c-1.3-1.3-2.7-2.6-3.9-4.1     C128,106.5,125.9,93.8,124.5,79.3z"/>
            </g>
            <g>
                <path class="st0" d="M126.8,151.1c-2.3-6.8-3.9-13.8-5.5-21.8c-3.2-0.5-6.5-0.6-9.6-0.2c-1.4,0.2-3,0.6-3.8,1.7     c-0.5,0.7-0.6,1.6-0.7,2.5c-0.6,5.9-1.3,11.8-1.9,17.7c0,0.5-0.1,0.9,0.1,1.4c0.2,0.6,0.8,1,1.4,1.4     C112.9,157.2,121.5,156.3,126.8,151.1z"/>
                <path d="M114.9,156.3c-2.9,0-5.8-0.7-8.4-2.2c-0.7-0.4-1.4-0.8-1.7-1.6c-0.2-0.6-0.1-1.1-0.1-1.6l1.9-17.7     c0.1-0.8,0.2-1.9,0.8-2.7c0.9-1.3,2.7-1.7,4.2-1.9c3.3-0.4,6.6-0.4,9.8,0.2c0.2,0,0.4,0.2,0.4,0.4c1.6,8.3,3.2,15.1,5.4,21.7     c0.1,0.2,0,0.4-0.1,0.5C123.9,154.7,119.4,156.3,114.9,156.3z M116,129.4c-1.4,0-2.8,0.1-4.2,0.3c-1.2,0.2-2.7,0.5-3.5,1.5     c-0.4,0.6-0.5,1.5-0.6,2.2l-1.9,17.7c0,0.4-0.1,0.8,0,1.1c0.2,0.5,0.7,0.8,1.2,1.1c6,3.4,14.2,2.4,19.2-2.3     c-2.2-6.5-3.7-13.2-5.3-21.2C119.3,129.5,117.6,129.4,116,129.4z"/>
            </g>
            <g>
                <path class="st0" d="M128.7,79.4c1.1,6.6,1.8,13.6,5.4,19.4c1.9,3.2,7.2,20.7-5.3,29.9c-6.6,4.9-15.2,6.9-24.2,4.6     c-6.1-1.6-15.3-9.4-17-19.4c-3.9,2.5-9,0.9-10.2-2.9c-0.7-2.2,0.9-5.7,3.5-6.4c2-0.5,2.3-0.6,4.1,0.1c-0.3-4.8-1.1-9.6-2.8-14.8     c3.2-6.8,10.2-11.9,17.6-15.4c2.5-1.2,5-2.2,7.7-2.7C115.2,70.5,127.6,72.6,128.7,79.4z"/>
                <path d="M112,134.8c-2.5,0-5.1-0.3-7.6-1c-6-1.5-15.2-9-17.3-19.1c-2,1-4.3,1.2-6.3,0.4c-2-0.7-3.4-2.2-4-4     c-0.4-1.3-0.1-2.9,0.6-4.3c0.8-1.4,1.9-2.4,3.2-2.7c1.8-0.5,2.3-0.6,3.7-0.1c-0.4-5-1.3-9.5-2.7-13.9c0-0.1,0-0.3,0-0.4     C85.3,82,93.4,76.9,99.5,74c2.1-1,4.9-2.2,7.9-2.7c5.5-0.9,13.8-0.2,18.5,3.1c1.9,1.3,3,3,3.3,4.9l0,0c0.1,0.8,0.3,1.6,0.4,2.4     c0.9,5.8,1.9,11.8,4.9,16.8c2.4,3.9,7,21.4-5.5,30.6C124,132.9,118.1,134.8,112,134.8z M87.5,113.4c0.1,0,0.1,0,0.2,0     c0.2,0.1,0.3,0.2,0.3,0.4c1.7,9.9,10.9,17.5,16.6,19c8.5,2.2,16.9,0.6,23.8-4.5c12.8-9.4,6.6-27.1,5.2-29.2     c-3.2-5.2-4.1-11.3-5.1-17.2c-0.1-0.8-0.3-1.6-0.4-2.4l0,0c-0.3-1.6-1.2-3-2.9-4.2c-4.4-3.1-12.4-3.9-17.7-3     c-2.9,0.5-5.6,1.7-7.6,2.6c-5.9,2.8-13.7,7.7-17.3,15c1.5,4.7,2.4,9.4,2.7,14.8c0,0.2-0.1,0.3-0.2,0.4c-0.1,0.1-0.3,0.1-0.5,0.1     c-1.7-0.6-1.9-0.6-3.8-0.1c-1,0.3-2,1.1-2.6,2.2c-0.7,1.2-0.9,2.5-0.6,3.5c0.5,1.5,1.7,2.8,3.4,3.4c2,0.7,4.2,0.4,6.1-0.7     C87.3,113.4,87.4,113.4,87.5,113.4z"/>
            </g>
            <g>
                <path class="st0" d="M191.8,125c-0.1-0.6,0.2-1.2,0.7-1.6c0.5-0.4,1.1-0.6,1.7-0.7c7.1-1.9,14.6-2.2,22-1.5     c0.7,0.1,1.6,0.4,1.6,1.1c0,0.3-0.2,0.6-0.4,0.9c-1.4,1.6-3.4,2.3-5.4,2.9c-5.7,1.7-11.8,2.3-17.5,0.7     C193.6,126.4,192.1,126.2,191.8,125z"/>
            </g>
            <g>
                <path d="M102.6,113.2c-2,0-4-0.7-5.7-2c-2.1-1.6-3.5-4.1-3.9-6.8l0,0c-1-5.7,2.5-11,7.6-11.9c5.2-0.9,10.1,3,11.1,8.7     c0.5,2.7-0.1,5.5-1.5,7.7c-1.4,2.3-3.6,3.7-6.1,4.1C103.6,113.1,103.1,113.2,102.6,113.2z M94,104.2c0.4,2.5,1.7,4.7,3.6,6.2     c1.9,1.5,4.1,2.1,6.3,1.7c2.2-0.4,4.1-1.7,5.4-3.7c1.3-2,1.8-4.5,1.4-7c-0.9-5.1-5.3-8.7-9.9-7.9C96.2,94.2,93.1,99,94,104.2     L94,104.2z"/>
            </g>
            <g>
                <path d="M128.3,106.6c-2,0-4-0.7-5.7-2c-2.1-1.6-3.5-4.1-3.9-6.8c-0.5-2.7,0.1-5.5,1.5-7.7c1.4-2.3,3.6-3.7,6.1-4.1     c5.2-0.9,10.1,3,11.1,8.7c0.5,2.7-0.1,5.5-1.5,7.7c-1.4,2.3-3.6,3.7-6.1,4.1C129.3,106.6,128.8,106.6,128.3,106.6z M127.7,86.8     c-0.4,0-0.8,0-1.3,0.1c-2.2,0.4-4.1,1.7-5.4,3.7c-1.3,2-1.8,4.5-1.4,7c0.4,2.5,1.7,4.7,3.6,6.2c1.9,1.5,4.1,2.1,6.3,1.7     c2.2-0.4,4.1-1.7,5.4-3.7c1.3-2,1.8-4.5,1.4-7C135.6,90.2,131.9,86.8,127.7,86.8z"/>
            </g>
            <g>
                <path class="st0" d="M202,89.6c-2-6.3-0.1-13.3-2.5-19.4c-0.2-0.5-0.5-1.1-1.1-1.3c-0.9-0.3-1.6,0.8-1.9,1.7     c-1.3,3.8-0.9,8-0.9,12.1c0,5.9-0.8,11.8-2.6,17.8c-1.1,3,0.1,6.3,1,9.3c1.6,5.2,2.4,10.6,2.5,16.3c4.2,1.7,9,0.7,13.4-0.3     c1.7-0.4,3.4-0.8,4.7-1.6c1.4-6.7,2.5-13.4,3.2-20.2c0.2-1.8,0.4-3.7,0.3-5.6c-0.1-1.4-0.3-2.9-1.3-4c-0.9-1.1-2.7-1.5-3.9-0.5     c-0.1-1.1-0.9-2-2-2.5c-1-0.4-2.2-0.5-3.3-0.3c-0.3,0-0.6,0.1-0.8,0.3c-1.2-1.2-3-1.8-4.7-1.3C202.3,89.9,202.3,89.6,202,89.6z"/>
            </g>
            <g>
                <circle class="st1" cx="80.9" cy="56.8" r="16.9"/>
                <path d="M80.9,74.2c-9.6,0-17.4-7.8-17.4-17.4s7.8-17.4,17.4-17.4c9.6,0,17.4,7.8,17.4,17.4S90.4,74.2,80.9,74.2z M80.9,40.4     c-9,0-16.4,7.3-16.4,16.4c0,9,7.3,16.4,16.4,16.4c9,0,16.4-7.3,16.4-16.4C97.2,47.8,89.9,40.4,80.9,40.4z"/>
            </g>
            <g>
                <path d="M214.2,126.9c0,0-0.1,0-0.1,0c-0.3-0.1-0.5-0.3-0.4-0.6c1.8-8.8,3-17.8,3.7-26.8c0.1-1.4,0.2-2.6-0.2-3.8     c-0.4-1-1.3-2-2.4-2c0,0,0,0,0,0c-0.9,0-1.8,0.6-2.8,1.9c-1.6,2-2.8,4.2-3.7,6.6c-0.3,0.7-0.5,1.5-0.3,2.2     c0.1,0.6,0.7,1.2,1.3,1.1c0.3,0,0.6-0.2,0.9-0.5c1.5-1.2,2.8-2.7,3.7-4.4c0.1-0.3,0.4-0.4,0.7-0.2c0.3,0.1,0.4,0.4,0.2,0.7     c-0.9,1.9-2.3,3.5-3.9,4.8c-0.4,0.3-0.9,0.6-1.5,0.7c-1.2,0.1-2.1-0.9-2.4-1.9c-0.2-1,0-1.9,0.4-2.8c0.9-2.5,2.2-4.8,3.9-6.9     c0.8-1,2-2.2,3.6-2.2c0,0,0,0,0,0c1.7,0,2.9,1.4,3.4,2.7c0.5,1.3,0.4,2.7,0.3,4.2c-0.7,9-1.9,18.1-3.7,26.9     C214.6,126.7,214.4,126.9,214.2,126.9z"/>
            </g>
            <g>
                <path d="M205.8,105.7c-0.3,0-0.6-0.1-0.9-0.3c-0.6-0.3-1-0.9-1.2-1.8c-0.4-1.4-0.5-3-0.2-4.9c0.4-2.4,1.2-4.6,2.4-6.7     c0.3-0.4,0.6-1,1.1-1.3c0.4-0.2,0.9-0.3,1.5-0.3c2,0,3.9,1.1,4.9,2.8c0.1,0.2,0.1,0.6-0.2,0.7c-0.2,0.1-0.6,0.1-0.7-0.2     c-0.8-1.4-2.4-2.3-4-2.3c-0.4,0-0.7,0.1-1,0.2c-0.3,0.2-0.5,0.5-0.7,0.9c-1.1,2-1.9,4.1-2.3,6.4c-0.3,1.8-0.3,3.2,0.1,4.4     c0.2,0.6,0.4,1,0.8,1.2c0.3,0.2,0.6,0.1,0.8,0c0.3-0.1,0.5-0.4,0.6-0.8c0-0.3,0.3-0.5,0.6-0.4c0.3,0,0.5,0.3,0.4,0.6     c-0.1,0.7-0.5,1.3-1.1,1.5C206.4,105.7,206.1,105.7,205.8,105.7z"/>
            </g>
            <g>
                <path d="M202.5,105.3C202.5,105.3,202.5,105.3,202.5,105.3c-0.8,0-1.6-0.5-2-1.4c-0.3-0.6-0.4-1.4-0.5-2.1     c-0.2-2.3-0.2-4.7-0.1-7c0.1-0.9,0.2-2,0.6-2.9c0.5-1.1,1.3-1.9,2.3-2.2c1.7-0.5,3.3,0.5,4.5,1.3c0.2,0.2,0.3,0.5,0.1,0.7     c-0.2,0.2-0.5,0.3-0.7,0.1c-0.9-0.7-2.3-1.5-3.6-1.1c-0.7,0.2-1.3,0.8-1.6,1.7c-0.3,0.8-0.4,1.7-0.5,2.6     c-0.1,2.3-0.1,4.6,0.1,6.8c0.1,0.6,0.1,1.2,0.4,1.7c0.2,0.5,0.7,0.8,1.1,0.8c0,0,0,0,0,0c0.3,0,0.8-0.2,1-0.5     c0.1-0.1,0.1-0.2,0.1-0.2c0-0.3,0.1-0.5,0.4-0.6c0.3,0,0.5,0.1,0.6,0.4c0,0.2,0,0.6-0.3,1C203.9,104.9,203.1,105.3,202.5,105.3z"/>
            </g>
            <g>
                <path d="M193.2,100.7c0,0-0.1,0-0.1,0c-0.3-0.1-0.4-0.4-0.3-0.6c1.6-5.7,2.5-11.5,2.5-17.4c0-0.7,0-1.5,0-2.2     c-0.1-3.3-0.1-6.8,1-10c0.4-1.2,1.4-2.3,2.5-2c0.8,0.2,1.2,1,1.4,1.6c1.3,3.3,1.5,7.1,1.6,10.7c0.1,3.2,0.3,6.4,1.2,9.3     c0.1,0.3-0.1,0.6-0.3,0.6c-0.3,0.1-0.6-0.1-0.6-0.3c-0.9-3-1.1-6.3-1.2-9.6c-0.1-3.5-0.3-7.2-1.5-10.3c-0.2-0.6-0.5-0.9-0.7-1     c-0.6-0.2-1.1,0.7-1.3,1.3c-1,3.1-1,6.4-0.9,9.6c0,0.8,0,1.5,0,2.2c0,6-0.8,11.9-2.5,17.7C193.6,100.6,193.4,100.7,193.2,100.7z"/>
            </g>
            <g>
                <path class="st1" d="M85.7,105.2c2.2-7.6,3.3-12.9,2.3-21.1c17.9,4.3,31.8-1.6,46.1-6.5c-0.4-2.6-1.7-4.9-3.5-7     c-4.2-5-8.9-9-18.8-10.2c-7-0.9-15.8-0.2-22.1,2.8c-6.3,3-10.9,8.2-14.2,13.9c-2.6,4.5-4.1,11.1-3.5,16.9c0.5,5,2.7,8.1,6.3,12.3     c1-1,1.9-2,3.4-2.1C83.1,104.1,84.2,104.5,85.7,105.2z"/>
                <path d="M78.3,106.9C78.3,106.9,78.3,106.9,78.3,106.9c-0.2,0-0.3-0.1-0.4-0.2c-3.3-3.9-5.9-7.2-6.4-12.6     c-0.6-5.9,0.8-12.5,3.5-17.2c3.9-6.7,8.8-11.5,14.4-14.1c7-3.3,16.2-3.6,22.4-2.8c10.6,1.3,15.3,5.9,19.1,10.4     c1.9,2.2,3.1,4.7,3.6,7.2c0,0.2-0.1,0.5-0.3,0.6c-1.2,0.4-2.4,0.9-3.6,1.3c-12.7,4.5-25.9,9.1-42,5.4c0.9,8.2-0.4,13.7-2.4,20.6     c0,0.1-0.1,0.3-0.3,0.3c-0.1,0.1-0.3,0.1-0.4,0c-1.3-0.6-2.4-1.1-3.8-0.9c-1.2,0.1-2,0.9-2.9,1.9l-0.1,0.1     C78.6,106.9,78.4,106.9,78.3,106.9z M106,60.6c-5.2,0-11.2,0.8-16.1,3.1c-5.5,2.6-10.2,7.2-14,13.7c-2.6,4.5-4,11-3.4,16.6     c0.4,4.5,2.2,7.4,5.8,11.6c0.9-0.9,1.9-1.7,3.3-1.9c1.4-0.2,2.5,0.2,3.8,0.8c1.9-6.7,3.1-12.2,2.1-20.3c0-0.2,0-0.3,0.2-0.4     c0.1-0.1,0.3-0.2,0.5-0.1c16.2,3.9,29.4-0.7,42.1-5.2c1.1-0.4,2.2-0.8,3.2-1.1c-0.5-2.2-1.6-4.3-3.3-6.3     c-3.7-4.4-8.3-8.7-18.5-10C110,60.7,108,60.6,106,60.6z"/>
            </g>
            <g>
                <path class="st0" d="M199.5,104.9c-0.1-1.9,0.4-3.8,1.6-5.3c0.7-0.9,1.6-1.7,2.2-2.8c0.5-1,0.5-2.5-0.4-3.2     c-0.6-0.4-1.4-0.4-2.1-0.3c-1.9,0.4-3.4,1.8-4.8,3.1c-0.8,0.9-1.7,1.8-2.2,2.9c-0.5,1-0.7,2.1-0.7,3.1c-0.1,0.7-0.1,1.4,0.2,2     c0.4,0.8,1.2,1.4,2,1.8c0.9,0.4,1.8,0.8,2.8,0.6C198.9,106.8,199.6,105.9,199.5,104.9z"/>
            </g>
            <g>
                <path d="M113.2,123c-0.2,0-0.5,0-0.7,0c-2.2-0.2-4.3-1.3-5.9-3.1c-0.2-0.2-0.2-0.5,0-0.7c0.2-0.2,0.5-0.2,0.7,0     c1.4,1.6,3.3,2.5,5.2,2.7c1.8,0.2,3.3-0.4,4.1-1.6c0.2-0.2,0.5-0.3,0.7-0.1c0.2,0.2,0.3,0.5,0.1,0.7     C116.6,122.2,115,123,113.2,123z"/>
            </g>
            <g>
                <path d="M102.6,100.5c-0.1-0.8,0.5-1.6,1.3-1.8c0.9-0.1,1.7,0.4,1.8,1.2c0.1,0.8-0.5,1.6-1.3,1.8     C103.5,101.9,102.7,101.3,102.6,100.5z"/>
            </g>
            <g>
                <path d="M196.4,127.8c-0.3,0-0.5-0.2-0.5-0.5c-0.1-5.9-0.9-11.7-2.4-17.4l-0.2-0.6c-0.8-3-1.7-6.5-0.5-9.5c0.8-2,2.5-3.5,4.1-4.9     c1.1-0.9,2.2-1.8,3.6-2.1c1.5-0.3,3.3,0.5,3.7,2c0.4,1.6-0.8,2.8-1.8,3.9c-0.2,0.2-0.4,0.4-0.5,0.6c-2.1,2.3-2.4,6-0.9,8.7     c0.1,0.2,0.1,0.6-0.2,0.7c-0.2,0.1-0.6,0.1-0.7-0.2c-1.7-3.1-1.3-7.2,1-9.9c0.2-0.2,0.4-0.4,0.6-0.6c0.9-1,1.8-1.9,1.6-3     c-0.2-1-1.5-1.5-2.5-1.3c-1.1,0.2-2.1,1-3.1,1.8c-1.6,1.4-3,2.7-3.8,4.5c-1.1,2.7-0.3,5.9,0.5,8.9l0.2,0.6     c1.5,5.8,2.3,11.7,2.4,17.7C197,127.6,196.7,127.8,196.4,127.8C196.4,127.8,196.4,127.8,196.4,127.8z"/>
            </g>
            <g>
                <path d="M125.3,95.1c-0.1-0.8,0.5-1.6,1.3-1.8c0.9-0.1,1.7,0.4,1.8,1.2c0.1,0.8-0.5,1.6-1.3,1.8C126.2,96.5,125.4,96,125.3,95.1z     "/>
            </g>
            <g>
                <path d="M120.7,110.7c-0.2,0-0.3-0.1-0.4-0.2c-0.2-0.2-0.1-0.5,0.1-0.7l1.8-1.4c0.2-0.2,0.3-0.2,0.3-0.3c0,0-0.1-0.1-0.3-0.3     c-2.4-1.8-3.9-4.7-4-7.6c0-0.3,0.2-0.5,0.5-0.5c0.3,0,0.5,0.2,0.5,0.5c0.1,2.7,1.4,5.2,3.6,6.8c0.3,0.2,0.8,0.6,0.7,1.2     c0,0.5-0.4,0.8-0.7,1l-1.8,1.4C120.9,110.6,120.8,110.7,120.7,110.7z"/>
            </g>
            <g>
                <path d="M110.3,98.2c-0.1,0-0.2,0-0.3-0.1c-0.2-0.1-0.3-0.5-0.2-0.7c1.2-2,3.6-3.3,6-3.4c1.5-0.1,3.1,0.5,3.5,1.9     c0.1,0.3-0.1,0.6-0.4,0.6c-0.3,0.1-0.6-0.1-0.6-0.4c-0.2-0.8-1.4-1.2-2.5-1.1c-2.1,0.1-4.1,1.3-5.1,2.9     C110.7,98.1,110.5,98.2,110.3,98.2z"/>
            </g>
            <g>
                <path d="M86.2,105.1c-0.2,0-0.4-0.1-0.5-0.3c-0.1-0.3,0.1-0.6,0.3-0.6l7-2.3c0.3-0.1,0.6,0.1,0.6,0.3c0.1,0.3-0.1,0.6-0.3,0.6     l-7,2.3C86.3,105,86.3,105.1,86.2,105.1z"/>
            </g>
            <g>
                <path class="st0" d="M90.8,226.1c-1.1-13.5-2.3-23.1-3.4-36.6c-1.6,9.2-6.6,27.1-8.6,36.9c19.4,0.6,32.1,1.2,48.8,3.4     c-3.2,2.6-5.8,5.9-7.3,9.5c-1.5,3.6-2,7.6-2.4,11.5c-20.7-0.7-41.1-1-61.4-0.4c-2.3,0.1-4.7,0.1-6.6-1.1c-1.5-0.9-2.5-2.4-3.1-4     c-1.7-4.4-0.7-9.3,0.4-13.9c3.1-13.6,9.2-39.3,14.8-52c2.4-5.5,5.3-10.9,9.4-15.2c8.7-9.1,21.6-12.4,34-15.4     c0.5,3.1,3.8,5,6.9,5.6c2.7,0.6,5.7,0.6,8.3-0.5c2.6-1.1,4.8-3.3,6-7c9.5-0.9,15.6-0.8,19.8-0.2c5.6,0.8,11,4.9,14.7,8.9     c7.8,8.5,11.8,15.6,19.9,25.4c7-17.7,11.1-36.6,10.7-56.4c1.7,4,24.2,3.6,26.5-2.7c-1.6,23.5-3.2,47.4-10.3,69.8     c-2.3,7.2-5.3,14.4-10.2,20.2c-4.9,5.8-12.2,10-19.8,9.8c-7.6-0.2-12.5-2.3-17.3-11.7c-0.8,1.3-1.7,2.7-2.1,4.3     c-0.1,10,0.9,21.7,1,31.6c-22.4,3.5-45.9,0.5-68.3-0.9C91.1,238.5,91.2,231.8,90.8,226.1z"/>
            </g>
            <g>
                <path d="M140.2,261c-1.1,0-2.1-1-2.7-2.8l-0.1-0.3c-0.7-2.1-1.4-4.2-2.8-5.8c-1.4-1.5-3.5-2.7-6.2-3.4c-3.1-0.8-6.7-0.9-9.1-1     c-0.8,0-1.5-0.1-2-0.1c-0.3,0-0.5-0.3-0.5-0.6c0-0.3,0.3-0.5,0.6-0.5c0.5,0,1.2,0.1,1.9,0.1c2.4,0.1,6.1,0.2,9.3,1.1     c2.9,0.8,5.2,2,6.7,3.7c1.6,1.7,2.3,4,3,6.1l0.1,0.3c0.2,0.7,0.8,2.2,1.8,2.1c0.3,0,0.5-0.1,0.7-0.4c0.5-0.6,0.6-1.7,0.5-2.5     c-0.4-3.1-1.5-6.2-3.1-9c-0.1-0.2-0.1-0.6,0.2-0.7c0.2-0.1,0.6-0.1,0.7,0.2c1.7,2.8,2.8,6.1,3.2,9.4c0.1,1,0,2.4-0.7,3.3     c-0.4,0.4-0.8,0.7-1.4,0.7C140.3,261,140.3,261,140.2,261z"/>
            </g>
            <g>
                <path d="M114.5,315.3c-2.6,0-4.7-2-4.7-4.4c0-2.4,2.1-4.4,4.7-4.4c2.6,0,4.7,2,4.7,4.4C119.1,313.3,117,315.3,114.5,315.3z      M114.5,307.6c-2,0-3.6,1.5-3.6,3.4c0,1.8,1.6,3.4,3.6,3.4c2,0,3.6-1.5,3.6-3.4C118.1,309.1,116.5,307.6,114.5,307.6z"/>
            </g>
            <g>
                <path d="M126.9,284.8c-2.6,0-4.7-2-4.7-4.4c0-2.4,2.1-4.4,4.7-4.4c2.6,0,4.7,2,4.7,4.4C131.5,282.8,129.4,284.8,126.9,284.8z      M126.9,277.1c-2,0-3.6,1.5-3.6,3.4c0,1.8,1.6,3.4,3.6,3.4c2,0,3.6-1.5,3.6-3.4C130.5,278.6,128.9,277.1,126.9,277.1z"/>
            </g>
            <g>
                <path class="st3" d="M143.8,295.4c0-2.1,1.9-3.9,4.1-3.9c2.3,0,4.1,1.7,4.1,3.9c0,2.1-1.9,3.9-4.1,3.9     C145.7,299.3,143.8,297.6,143.8,295.4z"/>
                <path d="M148,299.8c-2.6,0-4.7-2-4.7-4.4c0-2.4,2.1-4.4,4.7-4.4c2.6,0,4.7,2,4.7,4.4C152.6,297.8,150.5,299.8,148,299.8z      M148,292.1c-2,0-3.6,1.5-3.6,3.4c0,1.8,1.6,3.4,3.6,3.4c2,0,3.6-1.5,3.6-3.4C151.6,293.6,150,292.1,148,292.1z"/>
            </g>
            <g>
                <path d="M161.9,279.2c-2.6,0-4.7-2-4.7-4.4c0-2.4,2.1-4.4,4.7-4.4c2.6,0,4.7,2,4.7,4.4C166.5,277.3,164.4,279.2,161.9,279.2z      M161.9,271.5c-2,0-3.6,1.5-3.6,3.4c0,1.8,1.6,3.4,3.6,3.4c2,0,3.6-1.5,3.6-3.4C165.5,273,163.9,271.5,161.9,271.5z"/>
            </g>
            <g>
                <path d="M144.7,262.8c-0.5,0-1-0.2-1.4-0.5c-0.4-0.3-1.3-1.3-1.8-4.4c0-0.3,0.2-0.5,0.4-0.6c0.3,0,0.5,0.2,0.6,0.4     c0.3,2.2,1,3.4,1.4,3.7c0.3,0.3,0.9,0.4,1.2,0.2c0.4-0.2,0.5-0.8,0.6-1.3c0.9-4.9,0.1-10-2.2-14.7c-0.1-0.2-0.1-0.4,0.1-0.6     c0.2-0.2,0.4-0.2,0.6-0.1c2.1,1.2,3.9,3.3,5,6c1,2.4,1.4,5.1,1.6,7.5c0.1,0.5,0.1,1,0.3,1.4c0.2,0.3,0.5,0.6,0.8,0.5     c0.4-0.1,0.7-0.7,0.8-1.2c1.6-5.6,0.3-11.4-3.4-15.6c-0.2-0.2-0.2-0.5,0-0.7c0.2-0.2,0.5-0.2,0.7,0c3.9,4.5,5.3,10.7,3.6,16.6     c-0.3,1.1-0.9,1.8-1.6,1.9c-0.7,0.1-1.5-0.3-1.8-1c-0.3-0.6-0.4-1.2-0.4-1.7c-0.2-2.4-0.6-4.9-1.6-7.3c-0.8-1.8-1.8-3.4-3.1-4.5     c1.8,4.5,2.3,9.2,1.5,13.7c-0.1,0.7-0.3,1.5-1,2C145.4,262.7,145,262.8,144.7,262.8z"/>
            </g>
            <g>
                <path d="M83.9,309.6C83.9,309.6,83.9,309.6,83.9,309.6l-10.1-0.2c-0.1,0-0.3-0.1-0.4-0.2c-0.1-0.1-0.1-0.2-0.1-0.4l1-35.7     c0-0.3,0.2-0.5,0.5-0.5h9.8c0.1,0,0.3,0.1,0.4,0.2c0.1,0.1,0.1,0.2,0.1,0.4l-0.7,35.9C84.5,309.4,84.2,309.6,83.9,309.6z      M74.4,308.4l9.1,0.2l0.7-34.9h-8.8L74.4,308.4z"/>
            </g>
            <g>
                <path d="M66.3,308C66.3,308,66.3,308,66.3,308l-9.9-0.5c-0.1,0-0.3-0.1-0.4-0.2c-0.1-0.1-0.1-0.2-0.1-0.4l1-16.9     c0-0.3,0.3-0.5,0.5-0.5l9.3,0.5c0.3,0,0.5,0.2,0.5,0.5l-0.5,16.9c0,0.1-0.1,0.3-0.2,0.4C66.6,308,66.4,308,66.3,308z M57,306.5     l8.8,0.5l0.5-15.9l-8.3-0.4L57,306.5z"/>
            </g>
            <g>
                <path d="M160.1,257.9c-0.1,0-0.1,0-0.2,0c-0.7-0.1-1.2-0.8-1.3-1l0-0.1c-0.6-0.8-1.1-1.6-1.6-2.2c-2.1-2.9-3-4.2-4.5-5.9     c-0.2-0.2-0.2-0.5,0-0.7c0.2-0.2,0.5-0.2,0.7,0c1.5,1.7,2.5,3.1,4.6,6c0.5,0.7,1,1.4,1.6,2.2c0,0,0,0.1,0.1,0.1     c0.1,0.2,0.3,0.5,0.6,0.5c0.2,0,0.5-0.2,0.6-0.3c0.3-0.3,0.4-1.5,0.3-2.2c-1.1-6.1-5.3-10.7-11.2-15.7c-2-1.7-3.8-2.8-5.7-3.5     c-2-0.7-4.2-1-6.3-1.3c-2.4-0.3-4.8-0.5-7.2-0.7c-2.4-0.2-4.8-0.4-7.2-0.7c-0.3,0-0.5-0.3-0.4-0.6c0-0.3,0.3-0.5,0.6-0.4     c2.4,0.3,4.8,0.5,7.2,0.7c2.4,0.2,4.8,0.4,7.2,0.7c2.2,0.3,4.4,0.5,6.5,1.3c1.9,0.7,3.9,1.9,6,3.7c6.2,5.2,10.5,10,11.6,16.3     c0.1,0.6,0.1,2.4-0.6,3.1C161,257.7,160.5,257.9,160.1,257.9z"/>
            </g>
            <g>
                <path d="M32.5,304.2C32.5,304.2,32.5,304.2,32.5,304.2l-9.9-0.3c-0.3,0-0.5-0.2-0.5-0.5l0.1-8c0-0.3,0.2-0.5,0.5-0.5h9.8     c0.1,0,0.3,0.1,0.4,0.2c0.1,0.1,0.1,0.2,0.1,0.4l0,8.2c0,0.1-0.1,0.3-0.2,0.4C32.8,304.1,32.6,304.2,32.5,304.2z M23.1,302.9     l8.8,0.2l0-7.2h-8.8L23.1,302.9z"/>
            </g>
            <g>
                <path d="M154.9,218.7c-0.1,0-0.2,0-0.3-0.1c-0.2-0.2-0.3-0.5-0.1-0.7c3.8-5,7.6-10.1,11.3-15.2c0.5-0.7,0.9-1.3,0.9-1.9     c0-0.5-0.2-1.1-0.4-1.6l-10.5-25.4c-0.1-0.3,0-0.6,0.3-0.7c0.3-0.1,0.6,0,0.7,0.3l10.5,25.4c0.2,0.6,0.5,1.3,0.5,2.1     c-0.1,1-0.7,1.8-1.1,2.4c-3.7,5.1-7.5,10.2-11.3,15.3C155.2,218.7,155,218.7,154.9,218.7z"/>
            </g>
            <g>
                <polygon class="st3" points="40.2,285.1 39.7,305.1 49.5,305.8 50.3,285.5    "/>
                <path d="M49.5,306.3C49.5,306.3,49.5,306.3,49.5,306.3l-9.9-0.7c-0.3,0-0.5-0.2-0.5-0.5l0.6-20c0-0.1,0.1-0.3,0.2-0.4     c0.1-0.1,0.2-0.1,0.4-0.1l10.1,0.4c0.3,0,0.5,0.2,0.5,0.5L50,305.8c0,0.1-0.1,0.3-0.2,0.4C49.8,306.2,49.6,306.3,49.5,306.3z      M40.2,304.6l8.9,0.6l0.7-19.2l-9-0.3L40.2,304.6z"/>
            </g>
            <g>
                <path d="M211.7,293.4c-0.1,0-0.1,0-0.2,0c-0.3-0.1-0.4-0.4-0.3-0.6l8.5-26.9c0.1-0.2,0.2-0.3,0.4-0.3c0.2,0,0.4,0,0.5,0.1     c3.4,3.6,6.4,6.4,9.3,8.6c3.4-7.8,6.2-15.2,8.5-22.6c0.1-0.2,0.2-0.3,0.4-0.4s0.4,0,0.5,0.2c4.3,6,8.7,12.5,13.8,20.5l10.6-30     c0.1-0.3,0.4-0.4,0.7-0.3c0.3,0.1,0.4,0.4,0.3,0.7l-11,31c-0.1,0.2-0.2,0.3-0.4,0.3c-0.2,0-0.4-0.1-0.5-0.2     c-5.1-8-9.5-14.5-13.7-20.5c-2.3,7.3-5.1,14.6-8.5,22.3c-0.1,0.1-0.2,0.2-0.3,0.3c-0.2,0-0.3,0-0.4-0.1c-3-2.2-6-4.9-9.4-8.5     l-8.2,26.1C212.1,293.3,211.9,293.4,211.7,293.4z"/>
            </g>
            <g>
                <path d="M227.4,288.5c-0.1,0-0.1,0-0.2,0c-0.5-0.2-0.9-0.4-1.2-0.7l-2.3-1.6c-0.2-0.2-0.3-0.5-0.1-0.7c0.2-0.2,0.5-0.3,0.7-0.1     l2.3,1.6c0.3,0.2,0.6,0.4,1,0.6c0.3,0.1,0.4,0.4,0.3,0.6C227.8,288.4,227.6,288.5,227.4,288.5z M230.3,286.3     c-0.1,0-0.2,0-0.3-0.1c-0.2-0.2-0.3-0.5-0.1-0.7l2.3-3.4c0.2-0.2,0.5-0.3,0.7-0.1c0.2,0.2,0.3,0.5,0.1,0.7l-2.3,3.4     C230.6,286.2,230.5,286.3,230.3,286.3z M220.6,283.9c-0.1,0-0.2,0-0.3-0.1l-3.3-2.4c-0.2-0.2-0.3-0.5-0.1-0.7     c0.2-0.2,0.5-0.3,0.7-0.1l3.3,2.4c0.2,0.2,0.3,0.5,0.1,0.7C221,283.9,220.8,283.9,220.6,283.9z M249.2,281.2     c-0.1,0-0.2,0-0.3-0.1c-1-0.9-2.1-1.7-3.1-2.6c-0.2-0.2-0.3-0.5-0.1-0.7c0.2-0.2,0.5-0.3,0.7-0.1c1.1,0.9,2.1,1.7,3.1,2.6     c0.2,0.2,0.2,0.5,0.1,0.7C249.5,281.2,249.3,281.2,249.2,281.2z M234.9,279.5c-0.1,0-0.2,0-0.3-0.1c-0.2-0.2-0.3-0.5-0.1-0.7     l2.3-3.4c0.2-0.2,0.5-0.3,0.7-0.1c0.2,0.2,0.3,0.5,0.1,0.7l-2.3,3.4C235.2,279.5,235.1,279.5,234.9,279.5z M214,279.2     c-0.1,0-0.2,0-0.3-0.1l-3.3-2.4c-0.2-0.2-0.3-0.5-0.1-0.7c0.2-0.2,0.5-0.3,0.7-0.1l3.3,2.4c0.2,0.2,0.3,0.5,0.1,0.7     C214.3,279.1,214.1,279.2,214,279.2z M242.9,276.1c-0.1,0-0.2,0-0.3-0.1c-1.1-0.8-2.2-1.7-3.2-2.5c-0.2-0.2-0.3-0.5-0.1-0.7     c0.2-0.2,0.5-0.3,0.7-0.1c1.1,0.8,2.2,1.6,3.3,2.5c0.2,0.2,0.3,0.5,0.1,0.7C243.2,276,243,276.1,242.9,276.1z"/>
            </g>
            <g>
                <path d="M41.5,260.2C41.5,260.2,41.5,260.2,41.5,260.2c-7.3,0-14.5-1.2-21.4-3.5c-0.3-0.1-0.4-0.4-0.3-0.6     c0.1-0.3,0.4-0.4,0.6-0.3c6.8,2.2,13.9,3.4,21.1,3.4c0.3,0,0.5,0.2,0.5,0.5C42,260,41.8,260.2,41.5,260.2z"/>
            </g>
            <g>
                <path d="M31.8,266.7C31.8,266.7,31.8,266.7,31.8,266.7c-3.8-0.3-7.6-0.9-11.3-1.8c-0.3-0.1-0.4-0.3-0.4-0.6     c0.1-0.3,0.3-0.4,0.6-0.4c3.6,0.9,7.4,1.5,11.1,1.8c0.3,0,0.5,0.3,0.5,0.5C32.3,266.5,32.1,266.7,31.8,266.7z"/>
            </g>
            <g>
                <path d="M27.7,275.2C27.7,275.2,27.7,275.2,27.7,275.2c-3.1-0.3-6.1-1-9-2c-0.3-0.1-0.4-0.4-0.3-0.7c0.1-0.3,0.4-0.4,0.7-0.3     c2.8,1,5.7,1.7,8.7,1.9c0.3,0,0.5,0.3,0.5,0.6C28.2,275,28,275.2,27.7,275.2z"/>
            </g>
            <g>
                <path d="M256.1,204c-0.1,0-0.1,0-0.2,0c-4.8-2.2-10-3.3-15.3-3.3c0,0,0,0,0,0c-0.3,0-0.5-0.2-0.5-0.5c0-0.3,0.2-0.5,0.5-0.5     c5.4-0.1,10.8,1.1,15.7,3.4c0.3,0.1,0.4,0.4,0.2,0.7C256.5,203.9,256.3,204,256.1,204z"/>
            </g>
            <g>
                <path d="M156.9,244.8c-0.3,0-0.5-0.2-0.5-0.5c0-0.3,0.2-0.5,0.5-0.5l2,0c-0.7-4.3-0.7-9.3-0.6-14.5c0-4.7,0-9.5-0.4-14.6     c0-0.3,0.2-0.5,0.5-0.6c0.3,0,0.5,0.2,0.6,0.5c0.4,5.1,0.4,10,0.4,14.7c0,5.4,0,10.5,0.7,14.9c0,0.1,0,0.3-0.1,0.4     c-0.1,0.1-0.2,0.2-0.4,0.2L156.9,244.8C156.9,244.8,156.9,244.8,156.9,244.8z"/>
            </g>
            <g>
                <path d="M250,209.5c0,0-0.1,0-0.1,0c-3-0.9-6.2-1.1-9.3-0.8c-0.3,0-0.5-0.2-0.6-0.5c0-0.3,0.2-0.5,0.5-0.6c3.2-0.3,6.6,0,9.7,0.8     c0.3,0.1,0.4,0.4,0.4,0.6C250.4,209.3,250.2,209.5,250,209.5z"/>
            </g>
            <g>
                <path d="M255.8,218.6c-0.1,0-0.2,0-0.2-0.1c-4.3-2.1-9.2-3-14-2.5c-0.3,0-0.5-0.2-0.6-0.5c0-0.3,0.2-0.5,0.5-0.6     c4.9-0.5,10.1,0.4,14.5,2.6c0.3,0.1,0.4,0.4,0.2,0.7C256.1,218.5,255.9,218.6,255.8,218.6z"/>
            </g>
            <g>
                <path d="M115.7,307.7c-0.1,0-0.1,0-0.2,0c-0.3-0.1-0.4-0.4-0.3-0.7l9.3-22.7c0.1-0.3,0.4-0.4,0.7-0.3c0.3,0.1,0.4,0.4,0.3,0.7     l-9.3,22.7C116.1,307.5,115.9,307.7,115.7,307.7z"/>
            </g>
            <g>
                <path d="M144.7,293.3c-0.1,0-0.2,0-0.3-0.1l-14.1-10.4c-0.2-0.2-0.3-0.5-0.1-0.7c0.2-0.2,0.5-0.3,0.7-0.1l14.1,10.4     c0.2,0.2,0.3,0.5,0.1,0.7C145,293.2,144.8,293.3,144.7,293.3z"/>
            </g>
            <g>
                <path d="M150.5,292.5c-0.1,0-0.2,0-0.3-0.1c-0.2-0.2-0.3-0.5-0.1-0.7l9.5-13.4c0.2-0.2,0.5-0.3,0.7-0.1c0.2,0.2,0.3,0.5,0.1,0.7     l-9.5,13.4C150.8,292.5,150.6,292.5,150.5,292.5z"/>
            </g>
            <g>
                <path d="M117.9,251.4C117.9,251.4,117.9,251.4,117.9,251.4c-24.8-0.8-43.8-1-61.4-0.4c-2.1,0.1-4.8,0.2-6.9-1.1     c-1.8-1.1-2.8-2.9-3.3-4.2c-1.8-4.7-0.6-9.9,0.4-14.2c2.4-10.6,8.9-38.7,14.8-52.1c3-6.9,5.9-11.6,9.5-15.4     c8.5-8.9,20.5-12.3,34.3-15.5c0.1,0,0.3,0,0.4,0.1c0.1,0.1,0.2,0.2,0.2,0.3c0.5,2.9,3.7,4.6,6.5,5.2c2.1,0.4,5.1,0.7,8-0.4     c2.6-1.1,4.6-3.4,5.7-6.7c0.1-0.2,0.2-0.3,0.4-0.3c9-0.8,15.3-0.9,19.9-0.2c6.9,1,12.8,6.7,15,9.1c4.4,4.8,7.6,9.1,10.9,13.7     c2.5,3.5,5.2,7,8.5,11.1c7.2-18.5,10.7-37.1,10.4-55.4c0-0.3,0.2-0.5,0.4-0.5c0.2,0,0.5,0.1,0.6,0.3c0.5,1.4,4.2,2.4,9.2,2.4     c0,0,0.1,0,0.1,0c7.2,0,15.2-1.9,16.2-5.1c0.1-0.2,0.3-0.4,0.6-0.3c0.3,0,0.4,0.3,0.4,0.5c-1.6,23.2-3.2,47.3-10.4,70     c-2,6.2-4.9,14.1-10.3,20.4c-5.5,6.4-13,10.1-20.2,9.9c-7.5-0.2-12.7-2.3-17.4-12.1c-0.1-0.3,0-0.6,0.2-0.7     c0.3-0.1,0.6,0,0.7,0.2c4.4,9.4,9.2,11.3,16.5,11.5c6.8,0.2,14.1-3.4,19.4-9.6c5.2-6.1,8.1-13.9,10.1-20     c7-21.9,8.7-45.2,10.2-67.8c-3,2.9-10.8,4.1-16.1,4.1c-1.8,0-7-0.1-9.3-1.8c0.1,18.2-3.5,36.7-10.8,55.1     c-0.1,0.2-0.2,0.3-0.4,0.3c-0.2,0-0.4,0-0.5-0.2c-3.6-4.3-6.4-8.1-9.1-11.8c-3.4-4.6-6.5-8.9-10.9-13.6     c-2.1-2.3-7.8-7.8-14.4-8.8c-4.4-0.6-10.6-0.6-19.3,0.2c-1.2,3.4-3.4,5.9-6.2,7c-2.5,1-5.4,1.2-8.6,0.5c-3-0.6-6.3-2.4-7.2-5.5     c-13.3,3.2-25.1,6.5-33.3,15.1c-3.5,3.7-6.4,8.3-9.3,15.1c-5.8,13.3-12.3,41.4-14.7,51.9c-0.9,4.1-2.1,9.2-0.4,13.6     c0.5,1.2,1.3,2.8,2.9,3.7c1.9,1.1,4.2,1,6.4,1c17.4-0.6,36.2-0.4,60.6,0.4c-0.9-2.9,0.1-7.8,1.6-11.4l0.1-0.3     c1.2-3.1,2.8-6.8,6.5-8.6c-15.2-1.9-26.9-2.5-46.6-3.1c-0.2,0-0.3-0.1-0.4-0.2c-0.1-0.1-0.1-0.3-0.1-0.4c0.9-4.3,2.3-10,3.8-16.1     c1.9-7.7,3.9-15.6,4.8-20.8c0-0.3,0.3-0.4,0.5-0.4c0.3,0,0.5,0.2,0.5,0.5c0.6,6.7,1.1,12.6,1.7,18.3c0.6,5.7,1.1,11.6,1.7,18.3     c0,0.1,0,0.2-0.1,0.3c13.6,0.6,23.7,1.3,36.4,2.9c0.2,0,0.4,0.2,0.4,0.5c0,0.2-0.1,0.5-0.4,0.5c-4.8,1.2-6.4,5.2-7.9,8.8     l-0.1,0.3c-1.6,3.8-2.5,8.9-1.3,11.3c0.1,0.2,0.1,0.4,0,0.5C118.2,251.3,118,251.4,117.9,251.4z M79.3,225.9     c3.9,0.1,7.5,0.3,10.9,0.4c0,0,0-0.1,0-0.2c-0.6-6.7-1.1-12.6-1.7-18.3c-0.5-4.7-0.9-9.4-1.4-14.7c-1,4.9-2.6,11.2-4.1,17.3     C81.6,216.2,80.2,221.7,79.3,225.9z"/>
            </g>
            <g>
                <path d="M128.8,232.8C128.7,232.8,128.7,232.8,128.8,232.8c-0.4,0-0.5-0.3-0.5-0.6c0.1-0.6-0.1-1.2-0.4-1.6     c-0.2-0.2-0.4-0.3-0.4-0.3c-0.3,0.1-0.6-0.1-0.6-0.4c-0.1-0.3,0.1-0.6,0.4-0.6c0.5-0.1,1.1,0.1,1.5,0.7c0.5,0.7,0.7,1.5,0.6,2.4     C129.2,232.6,129,232.8,128.8,232.8z"/>
            </g>
            <g>
                <path d="M119.1,251.8c-0.7,0-1.6-0.3-1.9-1.1c-0.1-0.3,0-0.6,0.3-0.7c0.3-0.1,0.6,0,0.7,0.3c0.1,0.4,0.7,0.5,1.1,0.5     c0.9-0.1,1.6-0.8,2.3-1.4c0.7-0.7,1.4-1.5,2-2.2c0.2-0.2,0.5-0.3,0.7-0.1c0.2,0.2,0.3,0.5,0.1,0.7c-0.6,0.8-1.3,1.6-2.1,2.3     c-0.8,0.8-1.7,1.5-2.9,1.7C119.3,251.8,119.2,251.8,119.1,251.8z"/>
            </g>
            <g>
                <path d="M191.6,125.2c-0.3,0-0.5-0.2-0.5-0.5c0-0.4,0.1-0.8,0.4-1.2c0.2-0.3,0.5-0.5,0.8-0.7c1.1-0.7,2.5-1.2,3.8-1.3     c0.3,0,0.5,0.2,0.6,0.5c0,0.3-0.2,0.5-0.5,0.6c-1.2,0.1-2.4,0.5-3.4,1.2c-0.2,0.1-0.4,0.3-0.5,0.4c-0.1,0.1-0.2,0.3-0.2,0.4     C192.2,124.9,192,125.2,191.6,125.2C191.7,125.2,191.6,125.2,191.6,125.2z"/>
            </g>
            <g>
                <path d="M218.2,122.8C218.2,122.8,218.2,122.8,218.2,122.8c-0.3,0-0.5-0.2-0.5-0.5c0-0.1-0.1-0.2-0.2-0.3     c-0.1-0.1-0.4-0.2-0.5-0.3c-0.6-0.2-1.2-0.3-1.8-0.2c-0.3,0-0.5-0.2-0.5-0.5c0-0.3,0.2-0.5,0.5-0.5c0.7,0,1.4,0.1,2.1,0.3     c0.3,0.1,0.6,0.2,0.9,0.4c0.3,0.3,0.5,0.7,0.5,1.1C218.7,122.5,218.5,122.8,218.2,122.8z"/>
            </g>
            <g>
                <path d="M113.4,160.4c-4.4,0-8.8-2.5-10.9-6.4c-0.1-0.2,0-0.6,0.2-0.7c0.2-0.1,0.6,0,0.7,0.2c2.1,3.8,6.5,6.2,10.8,5.8     c0.3,0,0.5,0.2,0.6,0.5c0,0.3-0.2,0.5-0.5,0.6C114,160.4,113.7,160.4,113.4,160.4z"/>
            </g>
            <g>
                <path d="M102.9,161c-0.1,0-0.1,0-0.2,0c-2-0.8-3.6-2.6-3.9-4.7c-0.1-0.3,0.1-0.5,0.4-0.6c0.3-0.1,0.5,0.1,0.6,0.4     c0.3,1.8,1.6,3.3,3.3,4c0.3,0.1,0.4,0.4,0.3,0.7C103.3,160.9,103.1,161,102.9,161z"/>
            </g>
            <g>
                <path d="M76.2,70.5c-0.1,0-0.1,0-0.2,0c-0.3-0.1-0.4-0.4-0.3-0.7c0.9-2,2.3-3.9,4.4-5.6c1.9-1.5,4-2.7,6-3.7     c0.3-0.1,0.6,0,0.7,0.2c0.1,0.3,0,0.6-0.2,0.7c-2,1-4,2.1-5.8,3.6c-1.9,1.6-3.3,3.3-4.1,5.2C76.5,70.4,76.3,70.5,76.2,70.5z"/>
            </g>
            <g>
                <path d="M178.1,186.5c-0.1,0-0.2,0-0.3-0.1c-0.2-0.2-0.3-0.5-0.1-0.7c1.4-1.8,2.5-3.5,3.4-6.1c0.1-0.3,0.4-0.4,0.7-0.3     c0.3,0.1,0.4,0.4,0.3,0.7c-1,2.7-2.1,4.5-3.6,6.4C178.4,186.4,178.2,186.5,178.1,186.5z"/>
            </g>
            <g>
                <path d="M71.3,227.5c-0.2,0-0.5-0.2-0.5-0.4c0-0.3,0.1-0.5,0.4-0.6c3.2-0.5,6-0.6,9.7-0.5c0.3,0,0.5,0.2,0.5,0.5     c0,0.3-0.2,0.5-0.5,0.5C77.3,226.9,74.5,227,71.3,227.5C71.4,227.5,71.3,227.5,71.3,227.5z"/>
            </g>
            <g>
                <path d="M86.4,110.7c-0.2,0-0.4-0.1-0.5-0.4c-0.6-2-0.8-4.1-0.6-6.1c0-0.3,0.3-0.5,0.6-0.5c0.3,0,0.5,0.3,0.5,0.6     c-0.2,1.9,0,3.9,0.6,5.7c0.1,0.3-0.1,0.6-0.3,0.6C86.5,110.7,86.5,110.7,86.4,110.7z"/>
            </g>
            <g class="st2">
                <path d="M95,56.8c-0.5-0.2-1.1,0-1.6,0.1c-0.8,0.2-1.7,0.4-2.5,0.7c-4.8,1.6-9,4.6-12.4,8.2c-0.9,1-1.7,2-2.5,3.1     c-0.4,0.7-1.1,1.3-1.2,2.1c-0.3,2,2.5,3,3.5,1.2c1.6-2.7,5.2-6.4,8-8.1c2.6-1.7,3.3-2,5.8-2.9c0.7-0.3,1.5-0.5,2.2-0.7     c0.6-0.1,1.3-0.4,1.7-1C96.7,58.5,96.1,57.1,95,56.8z"/>
            </g>
            <g class="st2">
                <path d="M127.7,80.7c-0.4-0.4-1-0.5-1.5-0.3c-0.2,0.1-1.1,0.4-1.3,0.5c-1.5,0.5-2.9,1.2-4.4,1.6c-2.9,0.8-5.7,1.8-8.7,2.2     c-3.5,0.8-6.7,1-11,1.2c-3.8,0-6.7-0.6-10.8-1.8c-0.7-0.2-1.4-0.6-2.1-0.2c-0.8,0.5-0.7,1.8,0.3,2c4.4,1.3,8.9,2.6,13.6,2.4     c2.7,0,5.4-0.2,8.1-0.6c2.1-0.4,4.2-0.9,6.3-1.4c3.2-0.8,6.3-1.6,9.4-2.7c0.5-0.2,1-0.4,1.5-0.6c0.3-0.1,0.6-0.3,0.8-0.5     C128.3,82,128.2,81.2,127.7,80.7z"/>
            </g>
            <g class="st2">
                <path d="M124.3,141.4c-0.2-0.6-0.3-1.1-0.5-1.7c-0.4-1-0.7-2.1-0.9-3.2c-0.3-1-0.5-2-0.8-3c0-0.1,0-0.2,0-0.3     c0-0.1-0.1-0.1-0.1-0.2c-0.1-0.2,0-0.4,0.2-0.5c-0.7-0.5-1.6,0.2-2.4,0.5c-0.5,0.2-1.1,0.5-2.3,0.8c-0.9,0.3-3.9,0.4-4.8,0.6     c-0.3,0.1-0.5,0.3-0.6,0.5c-0.5-0.2-1-0.4-1.6-0.7c-0.3-0.1-0.7-0.3-1-0.4c-0.8,0-1.6,0-2.4-0.1c0,0.1,0,0.2,0,0.3     c0,0.1,0,0.2,0,0.4c0,0.1,0,0.2-0.1,0.3c-0.1,0.3-0.2,0.6-0.3,1c0.1,0.1,0.1,0.1,0.2,0.2c3,1.5,6.1,2.9,9,4.5     c1.5,0.8,2.9,1.6,4.4,2.4c0.6,0.3,1.3,0.7,2,0.8c0,0,0,0,0,0c0,0,0,0,0,0c0,0,0.1,0,0.1,0c0.1,0,0.1,0,0.2,0c0.1,0,0.2,0,0.2,0     c0,0,0,0,0,0c0,0,0,0,0,0c0.1,0,0.3,0,0.4,0c0.5-0.1,0.9-0.5,1-1c0.1-0.1,0.2-0.2,0.2-0.3C124.4,141.9,124.4,141.6,124.3,141.4z"/>
            </g>
            <g class="st2">
                <path d="M189,217.4c-0.6-0.1-0.5,0.1-0.9,0.2c-2.2,0.7-3.3,0.7-5.7,0.7c-2.7,0.1-6.1-1-8-1.8c-0.1-0.1-1.1-0.5-1.2-0.7     c-0.3-0.1-1.2-0.8-1.4-1c-0.7-0.6-1.4-1.2-2-1.9c0,0,0,0,0,0c-1.2-1.8-2.2-3.9-3.1-5.9c0-0.1,0-0.1-0.1-0.2     c-0.2-0.5-0.3-1-0.6-1.4c-0.2-0.2-0.3-0.4-0.6-0.5c-0.2,0.2-0.3,0.4-0.5,0.5c0,0.1-0.1,0.2-0.2,0.3c-0.2,0.2-0.4,0.4-0.6,0.6     c-1.1,1.2-2,2.5-2.9,3.9c0,0.1,0.1,0.3,0.2,0.5c0.5,0.8,1.1,1.6,1.7,2.4c1.4,3.1,3.4,6,6.8,7c2.2,0.6,4.6,0.9,6.9,1.2     c1.4,0.1,2.8-0.1,4.2-0.2c1,0,2.1-0.1,3.1,0c0.6,0,1.3,0.1,1.9-0.1c0.5-0.2,0.8-0.7,0.8-1.2c0.5-0.1,1-0.3,1.5-0.5     c0.4-0.2,0.8-0.2,1.1-0.6C189.8,218.3,189.5,217.5,189,217.4z"/>
            </g>
            <g>
                <g class="st2">
                    <path d="M210,126.6C210.1,126.6,210.1,126.6,210,126.6C210.1,126.6,210.1,126.6,210,126.6C210.1,126.6,210,126.6,210,126.6z"/>
                </g>
                <g class="st2">
                    <path d="M218.2,122c-0.1-0.4-0.4-0.7-0.8-0.8c-0.1,0-0.1,0-0.2,0c-0.2-0.6-1.1-0.9-1.5-0.4c-0.4,0.5-0.8,1-1.3,1.5      c-0.1,0.1-0.3,0.2-0.4,0.4c-0.7,0.3-1.6,0.6-2.6,0.8c-1.2,0.4-2.4,0.9-3.6,1.1c-1.4,0.2-1.5,0.2-3.3,0.4      c-1.5,0.2-2.2,0.3-4.4,0.4c-1.6,0-1.6-0.2-3.3-0.4c0,0,0,0,0,0c0.1-0.4,0-0.8-0.3-1.1c0,0,0,0,0,0c1.1-1.2-0.6-2.9-1.8-1.8      c-0.5,0.4-0.3,0.2-1.1,0.8c-0.3,0.2-0.7,0.4-0.9,0.7c0,0,0,0.1-0.1,0.1c0,0-0.1,0-0.1,0c-1,0.1-1.3,1.5-0.4,2      c2.3,1.2,4.9,1.9,7.5,2c0.9,0,1.8-0.1,2.7-0.1c0.9,0,1.7,0,2.6-0.1c1.8-0.2,3.5-0.5,5.3-0.9c0,0,0.1,0,0.1,0c-0.1,0-0.1,0-0.2,0      c0.1,0,0.1,0,0.2,0c0.1,0,0.1,0,0,0c0.8-0.1,1.6-0.2,2.4-0.5c2.3-0.8,4.6-1.7,5.3-2.8c0.1-0.1,0.2-0.3,0.3-0.5c0,0,0,0,0,0      C218.2,122.6,218.2,122.3,218.2,122z"/>
                </g>
            </g>
            <g>
                <g class="st2">
                    <path d="M215.1,102.1c0-0.6-0.7-1-1.2-0.8c-0.6,0.2-0.7,0.9-1.1,1.3c-0.1,0.2-0.3,0.5-0.5,0.7c-0.2,0.1-0.2,0.2-0.5,0.4      c0,0,0,0-0.1,0c-0.6,0.4-0.3,0.3-1.2,0.9c-0.1,0.1-0.4,0.2-0.6,0.3c-1.4,0.4-0.9,0.2-1.7,0.3c-1.3,0-1.7-0.4-3.5-0.4      c-0.4,0-0.9,0.1-1.3,0.1c-0.5-0.1-0.4-0.1-1.3-0.6c0,0,0,0,0,0c-0.4-0.3-0.7-0.9-1.2-1.1c-1.3-0.6-2.5,1.2-1.5,2.2      c0.9,1.2,2.4,2.1,3.9,2.3c0,0,0,0,0,0c0.2,0,0.3,0,0.5,0c1.6,0,1.3,0,2.6,0.2c0.9,0.1,0.5,0.1,1.9,0.3c0.7,0,1.4-0.2,2.1-0.5      c0.8-0.4,1.5-0.9,2.2-1.5c0.1,0,0.2-0.1,0.3-0.2c0.1-0.1,0.1-0.2,0.2-0.3c0,0,0,0,0,0c0.3-0.3,0.7-0.6,0.8-1      c0.3-0.4,0.5-0.8,0.7-1.2C214.9,103,215.2,102.6,215.1,102.1z"/>
                </g>
                <g class="st2">
                    <path d="M211.9,103.8C211.9,103.8,211.9,103.8,211.9,103.8C212.1,103.6,212.2,103.6,211.9,103.8z"/>
                </g>
                <g class="st2">
                    <path d="M203.3,107.7c-0.1,0-0.2,0-0.2,0C203.1,107.7,203.2,107.7,203.3,107.7z"/>
                </g>
                <g class="st2">
                    <path d="M203.4,107.7c0,0-0.1,0-0.1,0C203.4,107.7,203.4,107.7,203.4,107.7z"/>
                </g>
            </g>
            <g class="st2">
                <path d="M202.2,89.6c-0.2-0.7-1-1-1.6-0.6c-0.6,0.4-0.8,1.3-1.3,1.9c-0.7,0.7-3.9,3.6-5.1,5.3c-0.5,1,0.9,2,1.7,1.1     c1.4-1.6,2.9-3.1,4.5-4.5c0.6-0.6,1.1-1.4,1.5-2.2C202.2,90.3,202.3,89.9,202.2,89.6z"/>
            </g>
            <g class="st2">
                <path d="M129.3,231c-0.3-0.5-0.9-0.6-1.4-0.6c-0.9-0.1-1.7-0.2-2.6-0.1c-0.4,0-0.9,0.1-1.2,0.4c-0.4,0.3-0.5,0.8-0.3,1.3     c-0.4,0.3-0.8,0.7-1.2,1.1c-1.9,2-3.2,4.5-4.1,7.1c-0.6,1.8-0.5,2.1-0.9,3.8c-0.5,2.4-0.6,4.6,0.1,6.2c1,1.7,2.8,0.8,4-0.2     c0.2-0.1,0.4-0.3,0.5-0.4c0.7-0.5,1.2-1.1,0.7-1.9c-0.3-0.5-0.9-0.7-1.5-0.6c-0.5,0-1.1,0-1.5,0.4c-0.1,0.1-0.2,0.2-0.2,0.4     c0,0,0-0.1,0-0.1c0,0,0,0,0-0.1c-0.1-1.7,0.1-1.8,0.4-3.5c0.5-2.7,1.2-4.3,2.3-6.2c1.1-2,1.5-2.4,2.9-4c0.8-0.7,0.4-0.5,1.3-0.8     c0.4-0.1,0.8-0.2,1.1-0.4c0.2,0,0.4,0,0.6,0c0,0,0,0,0.1,0C129.2,232.7,129.8,231.7,129.3,231z"/>
            </g>
            <g class="st2">
                <path d="M84,199.6c-0.9,0-1,1-1.2,1.7c-0.4,1.4-0.7,2.8-1.1,4.2c-1,3.9-2.6,7.4-3.5,9.5c-0.3,0.9-2.5,5.2-3.6,7.3     c-0.3,0.6-0.7,1.3-1,1.9c-0.2,0.4-0.6,0.8-0.6,1.3c-0.1,0.5,0,0.9,0.3,1.3c1.4-0.3,2.8-0.3,4.2-0.3c0.1-0.1,0.2-0.1,0.2-0.2     c1.7-1.4,2.4-3.7,2.9-5.8c0.1-0.6,0.2-1.1,0.4-1.7c0.1-0.3,0.1-0.7-0.1-1c-0.1-0.2-0.2-0.3-0.4-0.4c1-2.8,1.9-5.7,2.8-8.5     c0.6-2.1,1-4.2,1.4-6.3c0.1-0.7,0.3-1.3,0.3-2C84.9,199.9,84.5,199.6,84,199.6z"/>
            </g>
            <g class="st2">
                <path d="M132.5,250.1c-1.5-0.6-3.3-1.8-5.8-2.1c0.1,0,0.2,0,0.2,0c-0.2,0-0.6-0.1-0.8,0c-0.6,0-1.3,0.1-1.9,0.5     c-1.1,0.9-2.4,2.4-2.7,2.5c0,0,0,0,0,0c-0.2,0.1-0.3,0.2-0.5,0.3c-0.3,0.1-0.7,0.2-1,0.3c-1.8,0.1-3.5-0.2-5.3-0.3     c-1.8-0.2-3.7-0.2-5.5-0.3c-2.1-0.1-4.1-0.4-6.2-0.5c-3.7-0.4-7.4-0.3-11.2-0.5c-3-0.2-5.9,0-8.9-0.1c-5.1,0-10.3,0.2-15.4,0.5     c-3.4,0.3-10.8,0.6-13.7-0.4c-0.8-0.1-1.6-0.8-2.4-0.4c-0.8,0.4-0.7,1.8,0.3,2c2.3,0.8,4.7,1.4,7.2,1.6c1.9,0.3,6,0.4,9.1,0.2     c2.9-0.2,5.8-0.2,8.6-0.3c3.1-0.2,6.2-0.1,9.3,0c1.9,0,3.7,0,5.6,0.1c2.6,0.1,5.2,0.1,7.8,0.1c3.6,0.2,7.2,0.6,10.8,0.8     c1.7,0.1,3.5,0.1,5.2,0.3c2.3,0.3,4.8,0.4,7-0.5c1.5-0.5,2.4-1.8,3.5-2.9c0,0,0.1,0,0.1,0c1,0.2,0.6,0,2.2,0.5     c3.2,0.9,5.1,2,7.4,4c0.8,0.9,0.5,0.4,0.9,1.2c0.1,0.3,0.3,0.6,0.6,0.8c0.9,0.8,2.4,0,2.4-1.2     C138.8,253.9,134.8,251.3,132.5,250.1z"/>
            </g>
            <g class="st2">
                <path d="M267.5,297.9c0.9-0.9,1.8-1.9,2.8-2.8c0.9-0.9,1.8-1.9,2.7-2.8c0.4-0.4,0.8-0.9,1.2-1.3c0-0.1,0-0.2,0-0.3     c0-0.1,0-0.2,0-0.3c0-0.2,0-0.4,0-0.6c-0.1-2.2-0.2-2.4-0.3-4.2c-0.1-0.9-0.4-4.4-0.7-6.5c0-0.2,0-0.4-0.1-0.6     c-0.1-2.5-0.3-4.9-0.2-7.4c0-0.5,0-1,0-1.6c-0.2-2.7-0.3-5.5-0.2-8.3c-0.1-1.9-0.2-3.8-0.2-5.7c-0.1-4.1-0.1-8.2,0-12.3     c0-0.6,0-1.3,0-1.9c0-0.4,0-0.7,0-1.1c-0.1-3.2-0.2-6.4-0.1-9.7c0-0.8,0.1-1.6,0.1-2.4c0-3.2,0-6.4,0.1-9.5c0.1-2,0.3-4,0.3-6     c0.1-1.7,0-3.4-0.1-5.1c-0.5-0.2-1.1,0-1.4,0.7c-0.7,2-1,4.2-1.3,6.4c-0.6,3.6-1,7.3-1.1,11c-0.1,2.1-0.2,4.3-0.3,6.4     c-0.1,2.2-0.1,4.4-0.2,6.6c-0.2,7.7-0.6,15.4-0.5,23.1c0.2,4.7,0.4,9.4,0.5,14.1c0,3.6-0.1,7.2,0,10.9c-0.3,3.5-1.1,8.2-2,10.6     c-0.2,0.5-0.2,0.6-0.6,1.6c-0.1,0.3-0.3,0.6-0.3,0.9C266.1,299.2,266.8,298.5,267.5,297.9z"/>
            </g>
        </g>
        <g>
            <g>
                <g>
                    <path class="st0" d="M388.9,237.4c1-0.6,2-1.3,3-1.9c-7.2-13.1-20.9-17.1-29.4-17.7c-8.1,0.3-13.6,0.3-23.2,5.8      c-2.4,1.4-6.2,4.9-9.4,10.1c1.2,0.7,2.3,1.5,3.5,2.2c2.8,1.8,5.6,3.6,8.4,5.5c3.9-7.2,11.6-10.8,20.7-10.8      c9.1,0,15.1,6,18.3,12.4C383.4,241.1,386.1,239.2,388.9,237.4z"/>
                    <path d="M380.8,243.6c0,0-0.1,0-0.1,0c-0.1,0-0.3-0.1-0.3-0.3c-2.3-4.5-7.6-12.1-17.8-12.1c-9.2,0-16.6,3.8-20.2,10.5      c-0.1,0.1-0.2,0.2-0.3,0.3c-0.1,0-0.3,0-0.4-0.1c-2.3-1.5-4.6-3-6.9-4.5l-1.6-1c-1.2-0.7-2.3-1.5-3.5-2.2      c-0.2-0.1-0.3-0.5-0.2-0.7c3.3-5.4,7.1-8.9,9.6-10.3c9.4-5.4,14.9-5.6,22.7-5.9l0.8,0c0,0,0,0,0.1,0c4.9,0.3,21.4,2.7,29.8,18      c0.1,0.2,0.1,0.5-0.2,0.7c-1.1,0.7-2.1,1.3-3,1.9c-2.5,1.6-5.2,3.5-8.1,5.7C381,243.6,380.9,243.6,380.8,243.6z M362.5,230.2      c10.4,0,15.9,7.4,18.4,12.2c2.8-2.1,5.3-3.8,7.7-5.4l0,0c0.8-0.5,1.6-1,2.6-1.6c-8.2-14.4-24-16.7-28.7-17l-0.7,0      c-7.6,0.2-13,0.4-22.2,5.7c-2.2,1.3-5.8,4.5-8.9,9.5c1,0.7,2,1.3,3,2l1.6,1c2.1,1.4,4.3,2.8,6.4,4.2      C345.6,234,353.2,230.2,362.5,230.2z"/>
                </g>
                <g>
                    <path class="st1" d="M355.4,286c0.5-3.1,1.1-6.1,1.8-9.1c-2.3-0.2-4.7-0.6-6.8-1.5c-2-0.8-3.8-2.2-5.2-3.7      c-3.1-3.2-5.3-7.5-5.9-12.1c-0.4-2.6-0.1-5.2,0-7.8c0.1-1.5,0.3-3,0.6-4.4c-4.7-1.1-9.3-2.6-14.1-3.7c-2,7-2.3,15.6,0.8,25.6      c4.4,13.9,17.4,19.1,27.9,20.8C354.7,288.7,355,287.4,355.4,286z"/>
                    <path d="M354.4,290.6C354.4,290.6,354.4,290.6,354.4,290.6c-10.5-1.7-23.8-6.7-28.4-21.1c-2.8-9-3.1-17.7-0.8-25.9      c0.1-0.3,0.3-0.4,0.6-0.4c2.6,0.6,5.2,1.3,7.7,2c2.1,0.6,4.2,1.2,6.4,1.7c0.3,0.1,0.4,0.3,0.4,0.6c-0.3,1.4-0.5,2.8-0.6,4.3      c0,0.4,0,0.8-0.1,1.2c-0.1,2.2-0.2,4.3,0.1,6.5c0.6,4.4,2.7,8.6,5.8,11.8c1.6,1.6,3.4,2.9,5.1,3.6c1.8,0.7,3.9,1.2,6.6,1.5      c0.1,0,0.3,0.1,0.4,0.2c0.1,0.1,0.1,0.3,0.1,0.4c-0.7,3.2-1.2,6.2-1.7,9.1c0,0,0,0,0,0c-0.4,1.4-0.7,2.7-1,4      C354.9,290.4,354.6,290.6,354.4,290.6z M326,244.3c-2.1,7.9-1.8,16.2,1,24.8c4.3,13.7,17,18.6,27,20.3c0.3-1.2,0.5-2.3,0.9-3.6      c0.5-2.8,1-5.6,1.6-8.6c-2.6-0.3-4.6-0.8-6.4-1.5c-1.9-0.8-3.7-2.1-5.4-3.8c-3.3-3.4-5.4-7.8-6.1-12.4c-0.3-2.2-0.2-4.5-0.1-6.7      c0-0.4,0-0.8,0.1-1.2c0.1-1.3,0.2-2.7,0.5-4c-2-0.5-4-1-5.9-1.6C330.9,245.5,328.4,244.9,326,244.3z M355.4,286L355.4,286      L355.4,286z"/>
                </g>
                <g>
                    <path class="st0" d="M395.8,246.7c-4.3,0.7-8.5,1.5-12.8,2.5c0.4,1.5,0.6,2.9,0.7,4.1c0.1,1,0,2.7-0.3,4.1      c-0.4,2.4-1.2,4.9-2.1,7.2c-1.7,4.1-4.3,8.2-8.3,10.2c-2.3,1.2-4.7,1.8-7.3,2.1c-0.3,0-0.7,0.1-1,0.1c0.2,1.6,0.3,3.2,0.5,4.7      c0.3,3,0.7,6.1,1,9.1c0.3,0,0.5,0,0.8-0.1c20.2-1.7,29.6-23.2,29.6-34.4C396.7,252.8,396.4,249.6,395.8,246.7z"/>
                    <path d="M366.3,291.2c-0.3,0-0.5-0.2-0.5-0.5c-0.3-3-0.7-6.1-1-9.1c-0.1-1.2-0.3-2.5-0.4-3.7l-0.1-1c0-0.1,0-0.3,0.1-0.4      c0.1-0.1,0.2-0.2,0.3-0.2c0.3,0,0.7-0.1,1-0.1c2.8-0.4,5.1-1,7.1-2c3.3-1.7,6.1-5,8-9.9c1-2.4,1.7-4.8,2.1-7.1      c0.2-1.2,0.3-2.9,0.2-3.9c-0.1-1.2-0.3-2.6-0.7-4c0-0.1,0-0.3,0.1-0.4c0.1-0.1,0.2-0.2,0.3-0.2c4.3-1,8.7-1.8,12.8-2.5      c0.3,0,0.5,0.1,0.6,0.4c0.6,3,0.9,6.3,0.9,9.7c0,6.4-2.9,14.7-7.3,21c-4,5.8-11.2,12.9-22.7,13.8      C366.9,291.2,366.6,291.2,366.3,291.2C366.4,291.2,366.3,291.2,366.3,291.2z M365.4,277.3l0.1,0.5c0.1,1.2,0.3,2.5,0.4,3.7      c0.3,2.9,0.6,5.8,1,8.6c0.1,0,0.2,0,0.3,0c11.1-1,18.1-7.8,22-13.4c5.3-7.5,7.1-15.7,7.1-20.5c0-3.2-0.3-6.2-0.8-9      c-3.8,0.7-7.8,1.4-11.7,2.3c0.3,1.3,0.5,2.5,0.6,3.7c0.1,1.1,0,2.9-0.3,4.2c-0.4,2.3-1.1,4.8-2.1,7.3c-2.1,5.1-4.9,8.6-8.5,10.4      c-2.1,1.1-4.5,1.8-7.4,2.1C365.7,277.3,365.6,277.3,365.4,277.3z"/>
                </g>
                <g>
                    <path d="M370.8,288c0,0-0.1,0-0.1,0l-2.6-2.5c-0.1-0.1-0.1-0.2,0-0.2c0.1-0.1,0.2-0.1,0.2,0l2.6,2.5c0.1,0.1,0.1,0.2,0,0.2      C370.9,287.9,370.9,288,370.8,288z"/>
                </g>
                <g>
                    <path d="M374.2,287.3c0,0-0.1,0-0.1,0c-2.3-2-4.6-4-6.8-6.2c-0.1-0.1-0.1-0.2,0-0.2c0.1-0.1,0.2-0.1,0.2,0      c2.2,2.1,4.5,4.2,6.8,6.2c0.1,0.1,0.1,0.2,0,0.2C374.3,287.3,374.3,287.3,374.2,287.3z"/>
                </g>
                <g>
                    <path d="M377.3,286c0,0-0.1,0-0.1,0l-8.5-7.7c-0.1-0.1-0.1-0.2,0-0.2c0.1-0.1,0.2-0.1,0.2,0l8.5,7.7c0.1,0.1,0.1,0.2,0,0.2      C377.4,286,377.4,286,377.3,286z"/>
                </g>
                <g>
                    <path d="M380.7,283.8c0,0-0.1,0-0.1,0c-2.7-2.1-5.3-4.3-7.8-6.6c-0.1-0.1-0.1-0.2,0-0.2c0.1-0.1,0.2-0.1,0.2,0      c2.5,2.3,5.1,4.5,7.8,6.6c0.1,0.1,0.1,0.2,0,0.2C380.8,283.8,380.7,283.8,380.7,283.8z"/>
                </g>
                <g>
                    <path d="M383.4,281.3C383.4,281.3,383.4,281.2,383.4,281.3c-2.8-1.9-5.5-3.9-8.1-6c-0.1-0.1-0.1-0.2,0-0.2      c0.1-0.1,0.2-0.1,0.2,0c2.5,2.1,5.2,4.1,8,6c0.1,0.1,0.1,0.2,0,0.2C383.5,281.2,383.5,281.3,383.4,281.3z"/>
                </g>
                <g>
                    <path d="M385.9,278.7C385.9,278.7,385.8,278.7,385.9,278.7c-2.7-1.8-5.2-3.7-7.7-5.6c-0.1-0.1-0.1-0.2,0-0.2      c0.1-0.1,0.2-0.1,0.2,0c2.5,1.9,5,3.8,7.6,5.6c0.1,0.1,0.1,0.2,0,0.2C386,278.7,385.9,278.7,385.9,278.7z"/>
                </g>
                <g>
                    <path d="M388,275.9C387.9,275.9,387.9,275.9,388,275.9c-2.7-1.7-5.3-3.3-7.9-5c-0.1-0.1-0.1-0.2,0-0.2c0.1-0.1,0.2-0.1,0.2,0      c2.6,1.7,5.2,3.4,7.8,5c0.1,0,0.1,0.2,0.1,0.2C388.1,275.8,388,275.9,388,275.9z"/>
                </g>
                <g>
                    <path d="M389.7,272.7C389.7,272.7,389.7,272.7,389.7,272.7l-7.4-4.4c-0.1,0-0.1-0.2-0.1-0.2c0-0.1,0.2-0.1,0.2-0.1l7.4,4.4      c0.1,0,0.1,0.2,0.1,0.2C389.8,272.7,389.8,272.7,389.7,272.7z"/>
                </g>
                <g>
                    <path d="M391.1,269.8C391,269.8,391,269.8,391.1,269.8l-7.6-4.2c-0.1,0-0.1-0.1-0.1-0.2c0-0.1,0.1-0.1,0.2-0.1l7.5,4.2      c0.1,0,0.1,0.1,0.1,0.2C391.2,269.8,391.1,269.8,391.1,269.8z"/>
                </g>
                <g>
                    <path d="M392.5,266.6C392.4,266.6,392.4,266.6,392.5,266.6l-7.7-4.2c-0.1,0-0.1-0.1-0.1-0.2c0-0.1,0.1-0.1,0.2-0.1l7.6,4.2      c0.1,0,0.1,0.1,0.1,0.2C392.6,266.5,392.5,266.6,392.5,266.6z"/>
                </g>
                <g>
                    <path d="M393.6,263.4C393.6,263.4,393.5,263.4,393.6,263.4c-2.8-1.6-5.5-3.1-8.2-4.6c-0.1,0-0.1-0.1-0.1-0.2      c0-0.1,0.1-0.1,0.2-0.1c2.7,1.5,5.5,3,8.2,4.6c0.1,0,0.1,0.2,0.1,0.2C393.7,263.4,393.6,263.4,393.6,263.4z"/>
                </g>
                <g>
                    <path d="M394.3,259.7C394.2,259.7,394.2,259.7,394.3,259.7l-8.6-4.1c-0.1,0-0.1-0.1-0.1-0.2c0-0.1,0.1-0.1,0.2-0.1l8.5,4.1      c0.1,0,0.1,0.1,0.1,0.2C394.4,259.7,394.3,259.7,394.3,259.7z"/>
                </g>
                <g>
                    <path d="M394.3,256.2C394.3,256.2,394.3,256.2,394.3,256.2c-3-1.4-5.9-2.8-8.7-4.2c-0.1,0-0.1-0.1-0.1-0.2      c0-0.1,0.1-0.1,0.2-0.1c2.9,1.4,5.8,2.8,8.7,4.2c0.1,0,0.1,0.1,0.1,0.2C394.4,256.2,394.4,256.2,394.3,256.2z"/>
                </g>
                <g>
                    <path d="M394.3,252.8C394.3,252.8,394.3,252.8,394.3,252.8c-1.9-0.9-3.8-1.8-5.6-2.8c-0.1,0-0.1-0.2-0.1-0.2      c0-0.1,0.2-0.1,0.2-0.1c1.8,1,3.6,2,5.5,2.8c0.1,0,0.1,0.1,0.1,0.2C394.4,252.7,394.4,252.8,394.3,252.8z"/>
                </g>
                <g>
                    <path d="M394.1,249.8C394.1,249.8,394.1,249.8,394.1,249.8l-1.6-0.7c-0.1,0-0.1-0.1-0.1-0.2c0-0.1,0.1-0.1,0.2-0.1l1.5,0.7      c0.1,0,0.1,0.1,0.1,0.2C394.3,249.8,394.2,249.8,394.1,249.8z"/>
                </g>
                <g class="st2">
                    <path d="M399,254.7c-0.2-2.1-0.5-4.3-1.2-6.3c-0.2-0.6-0.3-1.3-0.9-1.6c-0.3-0.2-0.7-0.2-1.1-0.1c0,0-0.1-0.1-0.1-0.1      c-0.5-0.6-1.6-0.2-1.6,0.6c-0.9-0.1-1.6,0.9-1.4,1.8c0.5,2.2,0.5,3.3,0.5,6c0,2.8-0.9,7-2.6,11.5c-0.7,2-0.9,2.3-2,4.4      c-1.1,2.3-2.8,5.5-3.8,6.5c-0.4,0.5-0.8,0.9-1.2,1.4c-2,2.1-3.5,3.2-5.9,4.7c-2.6,1.5-4.2,2.3-6.7,3.1c-2.1,0.6-2.8,0.6-3.7,0.6      c-0.6-0.2-1.3,0.1-1.5,0.7c-0.1,0.3-0.1,0.6,0,0.9c-0.6,1,0.5,2.3,1.6,2c0.6-0.2,0.4-0.2,0.8-0.4c0.5-0.2,1.1-0.2,1.6-0.4      c0.6-0.2,1.2-0.4,1.9-0.6c0.1,0,0.2,0,0.3-0.1c0.9-0.1,1.9-0.1,2.8-0.4c2.6-0.8,6.4-3.3,9-6c1.7-1.7,3.3-3.4,4.7-5.4      c1.2-1.8,2.1-3.8,3.1-5.8c1-1.9,1.7-3.8,2.4-5.8c0.8-2,1.4-4.1,1.8-6.3c0.4-2.2,0.5-4.4,0.3-6.5c0-0.1,0.1-0.2,0.1-0.2      c0.1,0.8,0.2,1.6,0.2,2.6c0.1,1.8,0,4.3-0.2,5.1c-0.1,0.1-0.1,0.2-0.2,0.3c-0.3,0.5-0.3,1.2,0.1,1.6c1,1.3,2.8,0.2,2.6-1.2      c0,0,0,0,0,0c0-0.2,0-0.3,0-0.5c0-0.1,0-0.3,0.1-0.4C399.2,258.5,399.1,256.6,399,254.7z"/>
                </g>
                <g class="st2">
                    <path d="M390.8,235.1c-1.1-3-2.7-5.9-5.1-8c-1.1-1-2.7,0.5-1.6,1.6c1.4,1,2.6,3.8,3,4.7c0.4,1,0.8,2,1.1,3.1      C388.9,238.7,392,237.6,390.8,235.1z"/>
                </g>
                <g class="st2">
                    <path d="M354.1,286.7c-2.1,0.2-2.2,0-4.2-0.4c-1.7-0.5-3.5-0.8-5.2-1.3c-1.5-0.4-3.7-1.3-4.3-1.4c-1.1-0.2-1.6,1.4-0.6,1.9      c1.1,0.6,2.1,1.2,3.2,1.7c0.9,0.4,1.9,0.6,2.8,1c2,0.8,4.2,1.4,6.4,1.6c0.7,0.1,1.3,0,2-0.1c0.3,0,0.6-0.1,0.9-0.3      C356.1,288.5,355.4,286.7,354.1,286.7z"/>
                </g>
            </g>
            <g class="st2">
                <path d="M341.9,260.3c-0.2-1.1-0.5-2.7-0.5-2.8c-0.3-3.1-0.3-6.2-0.2-9.3c0-1.4-2.1-1.4-2.2,0c-0.1,2.8-0.2,5.5-0.2,8.3     c0.1,1.8,0.5,3.7,0.8,5.5c0.3,1.1,1.8,1.3,2.4,0.3C342.4,261.6,342,260.9,341.9,260.3z"/>
            </g>
        </g>
        <g>
            <g>
                <path class="st0" d="M551,371.5c16.2,0,37.9-1,58.3-1c4.3-34.6,6.6-61.1,16.2-98c-20.3-0.9-63.9-0.6-70.1,1     C554.1,306.6,552.9,339.2,551,371.5z"/>
                <path d="M551,372c-0.1,0-0.3-0.1-0.4-0.2s-0.1-0.2-0.1-0.4c2-33,3.3-67.5,4.4-98c0-0.2,0.2-0.4,0.4-0.5c6.4-1.7,50.5-1.9,70.3-1     c0.2,0,0.3,0.1,0.4,0.2c0.1,0.1,0.1,0.3,0.1,0.4c-8.2,31.6-11.1,55.8-14.4,83.7c-0.5,4.6-1.1,9.3-1.7,14.2c0,0.3-0.2,0.4-0.5,0.4     c-10.8,0-21.8,0.3-32.5,0.6C567.5,371.8,558.6,372,551,372z M555.8,273.8c-1.1,30.2-2.4,64.4-4.4,97.1c7.5,0,16.2-0.2,25.3-0.5     c10.5-0.3,21.4-0.5,32-0.6c0.6-4.7,1.1-9.3,1.7-13.8c3.3-27.8,6.2-51.8,14.3-83.2C605.2,272.1,563.2,272.3,555.8,273.8z"/>
            </g>
            <g>
                <path class="st0" d="M471,372.6c1.1-20.9-1-43-9.3-62.2c-4.8,10.7-10.5,20.9-16.8,30.6c-2.1-3.5-3.9-7.2-5.7-10.9     c-0.5-0.9-0.9-1.9-1.4-2.8c-2.6-5.2-5.1-10.4-7.4-15.7c3.1-12.6,6.6-25.1,10.6-37.5c0.6-1.7,1.1-3.4,2.1-4.9     c2-3.1,5.3-5.1,8.6-6.7c9.1-4.6,18.8-7.9,28.6-9.8c0.9-1.4,2.2-2.6,3.8-3.3c1.3,5.2,4.6,9.7,8.3,13.5c1.7,1.8,4,3.5,6.3,3.3     c6.3-2.2,9.9-8.7,15.2-12.8c1.9-1.4,4.1-2.6,6.6-2.4c5.5,1.1,10.9,2.1,16.4,3.2c9,1.7,18.3,3.6,25.8,8.9c1.6,1.2,3.2,2.5,4.7,4.3     c8.6,19.6,15.2,40,20.5,60.8c2.6,10.1,4.8,20.7,2.6,31.1c-1.4,3.1-3.6,5.7-6.2,7.8c-1.6,1.3-3.3,2.5-5.2,3.2     c-2.2,0.8-4.6,0.8-6.9,0.9c-4.9,0.1-9.9,0.2-14.8,0.3L471,372.6z"/>
            </g>
            <g>
                <path class="st0" d="M470.9,339.9c-5.8,3.7-10.4,9.4-12.7,15.8c-0.3,0.9-0.6,1.8-0.3,2.7s1.2,1.6,2.3,1.3c-0.2,1,0.4,2.1,1.4,2.4     c1,0.3,2.1-0.3,2.5-1.2c0.3,0.6,1,0.8,1.7,0.7c0.6-0.1,1.2-0.6,1.7-1c1.3-1,2.7-2.1,4-3.1c1.7-1.4,3.4-2.7,5.4-3.7     c1.1-0.5,2.2-0.9,3.2-1.6c2-1.4,3-4.2,2.3-6.5c-0.6-2.1-2.4-3.6-4.2-4.9c-0.9-0.7-1.9-1.3-3-1.5     C473.4,339.1,471.8,340,470.9,339.9z"/>
            </g>
            <g>
                <path class="st0" d="M455.3,372.6c11.1-0.2,22.3-0.3,33.4-0.5l-0.1-7.4l-35.9,0.8L455.3,372.6z"/>
                <path d="M455.3,373.1c-0.2,0-0.4-0.1-0.5-0.3l-2.6-7.1c-0.1-0.2,0-0.3,0.1-0.5c0.1-0.1,0.2-0.2,0.4-0.2l35.9-0.8     c0.1,0,0.3,0,0.4,0.1c0.1,0.1,0.2,0.2,0.2,0.4l0.1,7.4c0,0.1,0,0.3-0.1,0.4c-0.1,0.1-0.2,0.2-0.4,0.2L455.3,373.1     C455.3,373.1,455.3,373.1,455.3,373.1z M453.4,366l2.2,6.1l32.6-0.5l-0.1-6.4L453.4,366z"/>
            </g>
            <g>
                <path class="st0" d="M482.2,228.5c1.5,9.8,2.1,19.7,1.8,29.6c0,0.8,0,1.7,0.3,2.4c0.4,0.8,1.1,1.3,1.8,1.7c5,3,11.2,4.4,16.8,2.9     c5.7-1.5,10.6-6.1,11.1-12.4c-2.4-8.1-6.4-19.3-9.5-32.2C497.8,223.6,490.6,226,482.2,228.5z"/>
                <path d="M498.3,266.3c-4.1,0-8.4-1.2-12.3-3.6c-0.8-0.5-1.6-1.1-2-1.9c-0.4-0.9-0.4-1.8-0.4-2.7c0.2-9.9-0.4-19.8-1.8-29.6     c0-0.3,0.1-0.5,0.4-0.6c8.9-2.7,15.8-4.9,22.4-7.9c0.1-0.1,0.3-0.1,0.4,0c0.1,0.1,0.2,0.2,0.3,0.3c2.2,9.1,4.9,17.6,7,24.4     c0.9,2.8,1.7,5.5,2.4,7.8c0,0.1,0,0.1,0,0.2c-0.5,6-5.1,11.2-11.5,12.9C501.7,266.1,500,266.3,498.3,266.3z M482.8,228.8     c1.4,9.7,2,19.5,1.8,29.3c0,0.8,0,1.6,0.3,2.2c0.3,0.7,1,1.1,1.7,1.5c5.3,3.2,11.3,4.2,16.4,2.9c4.9-1.3,10.1-5.5,10.7-11.9     c-0.7-2.3-1.5-4.9-2.4-7.7c-2.1-6.6-4.7-14.9-6.9-23.8C498,224.1,491.3,226.2,482.8,228.8z"/>
            </g>
            <g>
                <g>
                    <path class="st1" d="M528,182.2c-2,7.4-3.9,14.1-7.6,23.7c-1.7,4.6-4.4,9.5-7.3,13.6c-1.4,1.9-2.4,2.8-4.9,3.6      c0.1-2.1-1.9-3.3-2-5.4c-0.1-2.5,1.7-4.6,0.4-6.9c-2.4-4.5-3.9-9.3-4.3-14.2c-0.3-4,0.1-8.1,2.3-11.5s6.5-6,11.3-5.8      C519.6,179.5,525.4,179.6,528,182.2z"/>
                    <path d="M508.3,223.6c-0.1,0-0.2,0-0.3-0.1c-0.1-0.1-0.2-0.3-0.2-0.4c0-0.9-0.4-1.7-0.9-2.5c-0.5-0.8-1-1.7-1.1-2.8      c-0.1-1.1,0.2-2.1,0.5-3c0.4-1.3,0.7-2.5,0-3.7c-2.5-4.6-3.9-9.4-4.3-14.4c-0.4-4.9,0.4-8.7,2.4-11.8c2.5-3.8,7.1-6.2,11.7-6      l0.6,0c3.7,0.1,9.2,0.3,11.8,2.9c0.1,0.1,0.2,0.3,0.1,0.5c-2,7.5-3.9,14.1-7.6,23.7c-1.8,4.7-4.5,9.7-7.4,13.7      c-1.4,1.9-2.4,2.9-5.1,3.8C508.4,223.5,508.3,223.6,508.3,223.6z M515.5,179.9c-4.1,0-8.2,2.1-10.4,5.6      c-1.9,2.9-2.6,6.5-2.2,11.1c0.4,4.8,1.8,9.5,4.2,14c0.9,1.6,0.5,3.1,0.1,4.5c-0.2,0.9-0.5,1.8-0.4,2.7c0,0.9,0.5,1.6,1,2.3      c0.4,0.7,0.9,1.4,1,2.3c2-0.8,2.8-1.6,4-3.2c2.9-3.9,5.5-8.8,7.3-13.4c3.6-9.5,5.5-16,7.5-23.3c-2.4-2.1-7.5-2.3-10.9-2.4      l-0.6,0C515.8,179.9,515.6,179.9,515.5,179.9z"/>
                </g>
                <g>
                    <path class="st0" d="M469.6,187.9c-0.7,6.7-3.2,13.1-4.3,19.8c-1.1,6.7-0.8,13.9,3.5,19.8c3.8,5.2,10.5,8.9,17.5,9.5      c7,0.6,14.1-1.8,18.5-6.3c4.1-4.2,6.4-14.5,7.7-19.6c3,1,6.6,0.6,8.8-1.2c2.2-1.8,2.7-5.1,0.9-7.3c-1.8-2.3-4.5-3-8.1-0.6      c0.9-4.2,0.9-8.5,0.8-10.5c0-5.4,1.1-13.1-2.1-15.9c-1.8-1.6-6-3.4-8.3-4.4c-4-1.8-10.3-0.1-14.7-0.8c-4.4-0.7-9.2,0.6-13.1,2.2      C472.2,174.5,470.2,182.9,469.6,187.9z"/>
                    <path d="M488.6,237.6c-0.8,0-1.5,0-2.3-0.1c-7.2-0.6-14-4.4-17.9-9.7c-3.8-5.2-4.9-12-3.6-20.2c0.5-2.9,1.2-5.8,2-8.6      c0.9-3.6,1.9-7.4,2.3-11.1l0,0c0.2-2.2,1.8-13.4,7.5-15.8c5.1-2.1,9.6-2.9,13.4-2.3c1.7,0.3,3.8,0.2,5.9,0.1      c3.1-0.2,6.4-0.3,8.8,0.8l0.3,0.1c2.4,1,6.4,2.8,8.2,4.4c2.8,2.4,2.6,7.9,2.4,12.7c0,1.3-0.1,2.5-0.1,3.6l0,0.1      c0,1.9,0,5.5-0.6,9.4c3-1.6,5.7-1.1,7.7,1.4c2,2.5,1.5,6-1,8.1c-2.1,1.8-5.6,2.3-8.8,1.5c-0.1,0.4-0.2,0.8-0.3,1.2      c-1.5,5.7-3.7,14.2-7.4,18.1C501.2,235.2,495,237.6,488.6,237.6z M470.1,188c-0.4,3.8-1.4,7.6-2.3,11.2      c-0.7,2.8-1.5,5.7-1.9,8.6c-1.3,7.9-0.2,14.5,3.4,19.4c3.7,5.1,10.3,8.7,17.2,9.3c6.9,0.6,13.8-1.7,18.1-6.1      c3.6-3.7,5.8-12.4,7.2-17.6c0.2-0.6,0.3-1.2,0.4-1.7c0-0.1,0.1-0.3,0.2-0.3c0.1-0.1,0.3-0.1,0.4,0c3,1,6.3,0.5,8.3-1.1      c2.1-1.7,2.4-4.6,0.8-6.6c-1.9-2.4-4.4-2.5-7.4-0.5c-0.2,0.1-0.4,0.1-0.6,0c-0.2-0.1-0.3-0.3-0.2-0.5c0.9-4.1,0.8-8.3,0.8-10.3      l0-0.1c0-1.1,0-2.3,0.1-3.6c0.2-4.6,0.4-9.9-2-11.9c-1.7-1.5-5.6-3.2-7.9-4.2l-0.3-0.1c-2.3-1-5.4-0.8-8.4-0.7      c-2.1,0.1-4.3,0.2-6.2-0.1c-3.5-0.6-7.9,0.2-12.8,2.2C473,174.7,470.8,182.1,470.1,188L470.1,188z"/>
                </g>
                <g>
                    <path class="st1" d="M491.6,180.3c-1,2.9-6,6.6-8.9,6.6c-2.9,0-3.9-1.5-4.7-4.4c-2.8,2-5,4.1-7.7,4.8c-4.2,1.1-8.9-1.9-9.7-6.3      c-0.9-4.4,2.2-9.2,6.4-10.1c-2.8,0.4-5.2-2.7-5-5.6c0.3-2.9,2.6-5.4,5.3-6.4c2.7-1,5.6-0.9,8.5-1c-0.8-3,1-6.2,3.5-7.8      c2.6-1.6,5.7-1.7,8.6-1c1.9,0.4,3.7,1.2,5.1,2.6c1.4,1.4,2.2,3.5,1.9,5.6c2.9-2.9,7.2-4.7,11-3.3c3.8,1.3,6.2,6.4,6.1,9.7      c2.1-2.1,4.8-3.8,7.7-3.3c5.7,0.9,6.5,6,3.2,12c3.2-1.2,7.6,0.6,8.6,5.2c0.7,3.4-1,8.6-3.6,10.9c-2.6,2.3-10.9,3.7-16.2-1      c-2.9-2.6-4.1-5.8-4.7-8.8c-2,2.7-3.4,4.6-7.8,5.5C495.9,185,492.4,183.3,491.6,180.3z"/>
                    <path d="M520.4,191.2c-3.1,0-6.5-0.9-9.2-3.3c-2.8-2.5-4-5.6-4.6-8c-1.7,2.2-3.3,3.9-7.4,4.8c-3.1,0.7-6.3-0.7-7.6-3.2      c-1.7,2.8-6.1,5.8-8.9,5.8c0,0,0,0,0,0c-3,0-4.1-1.4-5-4c-0.5,0.4-1,0.7-1.4,1.1c-1.9,1.5-3.7,2.9-5.9,3.4      c-2.1,0.5-4.4,0.2-6.4-1.1c-2.1-1.3-3.5-3.3-4-5.6c-0.8-3.9,1.4-8.2,4.9-10c-0.5-0.2-1.1-0.6-1.5-1c-1.3-1.3-2-3.1-1.9-4.9      c0.3-3.4,3-5.8,5.6-6.8c2.3-0.9,4.7-0.9,7-1c0.3,0,0.7,0,1,0c-0.4-2.9,1.2-6.1,3.9-7.8c2.4-1.5,5.6-1.9,9-1.1      c2.3,0.5,4.1,1.5,5.4,2.8c1.3,1.3,2,3,2.1,4.8c3.2-2.7,7.2-3.8,10.6-2.6c3.5,1.2,6,5.5,6.4,9c2.5-2.2,4.9-3.1,7.3-2.7      c2.4,0.4,4.1,1.5,5,3.2c1.1,2.1,0.8,5.1-0.8,8.5c1.5-0.2,3.1,0,4.5,0.8c1.9,1,3.2,2.8,3.7,5.1c0.8,3.6-1,8.9-3.8,11.4      C526.7,190.2,523.7,191.2,520.4,191.2z M506.9,178.2c0,0,0.1,0,0.1,0c0.2,0,0.4,0.2,0.4,0.4c0.5,2.4,1.5,5.8,4.5,8.6      c4.9,4.4,13,3.3,15.5,1c2.5-2.3,4.2-7.2,3.5-10.4c-0.4-1.9-1.5-3.5-3.2-4.4c-1.5-0.8-3.3-1-4.8-0.4c-0.2,0.1-0.4,0-0.6-0.1      c-0.1-0.2-0.2-0.4-0.1-0.6c1.9-3.5,2.4-6.5,1.3-8.5c-0.7-1.4-2.1-2.3-4.2-2.7c-2.3-0.4-4.7,0.7-7.2,3.1      c-0.1,0.1-0.4,0.2-0.6,0.1c-0.2-0.1-0.3-0.3-0.3-0.5c0-3-2.1-7.9-5.8-9.2c-3.3-1.2-7.4,0.1-10.4,3.2c-0.2,0.2-0.4,0.2-0.6,0.1      c-0.2-0.1-0.3-0.3-0.3-0.5c0.3-1.9-0.4-3.9-1.7-5.2c-1.1-1.2-2.8-2-4.9-2.5c-3.1-0.7-6-0.4-8.2,0.9c-2.5,1.6-3.9,4.7-3.3,7.3      c0,0.1,0,0.3-0.1,0.4c-0.1,0.1-0.2,0.2-0.4,0.2c-0.5,0-1.1,0-1.6,0c-2.4,0-4.6,0.1-6.7,0.9c-2.3,0.9-4.7,3.1-4.9,6      c-0.1,1.4,0.5,3,1.6,4c0.8,0.8,1.9,1.2,2.9,1.1c0.3,0,0.5,0.2,0.6,0.4c0,0.3-0.1,0.5-0.4,0.6c-3.9,0.8-6.9,5.4-6,9.5      c0.4,2,1.7,3.8,3.5,4.9c1.7,1.1,3.8,1.4,5.6,1c2-0.5,3.6-1.8,5.5-3.3c0.6-0.5,1.3-1,2-1.5c0.1-0.1,0.3-0.1,0.5-0.1      c0.2,0.1,0.3,0.2,0.3,0.3c0.8,2.8,1.6,4,4.2,4c0,0,0,0,0,0c2.7,0,7.5-3.5,8.4-6.2c0.1-0.2,0.3-0.4,0.5-0.3      c0.2,0,0.4,0.2,0.5,0.4c0.7,2.9,4.1,4.2,6.8,3.6c4.3-0.9,5.6-2.8,7.5-5.3C506.5,178.3,506.7,178.2,506.9,178.2z"/>
                </g>
                <g>
                    <path d="M474.8,198.3c0-0.8,0.7-1.5,1.6-1.5c0.9,0,1.6,0.7,1.6,1.5c0,0.8-0.7,1.5-1.6,1.5C475.5,199.8,474.8,199.1,474.8,198.3z      "/>
                </g>
                <g>
                    <path d="M496.8,201.8c0-0.8,0.7-1.5,1.6-1.5c0.9,0,1.6,0.7,1.6,1.5c0,0.8-0.7,1.5-1.6,1.5C497.5,203.3,496.8,202.7,496.8,201.8z      "/>
                </g>
                <g>
                    <path d="M488.3,227.1c-1,0-2-0.2-2.9-0.5c-0.3-0.1-0.4-0.4-0.3-0.7c0.1-0.3,0.4-0.4,0.7-0.3c2.5,1,5.6,0.4,7.5-1.5      c0.2-0.2,0.5-0.2,0.7,0c0.2,0.2,0.2,0.5,0,0.7C492.5,226.3,490.4,227.1,488.3,227.1z"/>
                </g>
                <g>
                    <path d="M485.4,218.4c-1.3,0-2.6-0.3-4-1c-0.6-0.3-1.3-0.7-1.7-1.3c-0.6-0.8-0.7-1.9-0.3-3.1c0.3-0.8,0.7-1.5,1.1-2.2l0.2-0.3      c2.3-3.7,3.8-8,4.2-12.3c0-0.3,0.3-0.5,0.6-0.5c0.3,0,0.5,0.3,0.5,0.6c-0.5,4.5-2,8.9-4.4,12.8l-0.2,0.3c-0.4,0.7-0.8,1.3-1,2      c-0.3,0.8-0.2,1.6,0.2,2.2c0.3,0.4,0.8,0.7,1.3,1c1.4,0.7,2.7,1,3.9,0.9c1.4-0.1,2.6-0.6,3.4-1.6c0.2-0.2,0.5-0.2,0.7-0.1      c0.2,0.2,0.2,0.5,0.1,0.7c-1,1.1-2.5,1.8-4.1,1.9C485.6,218.4,485.5,218.4,485.4,218.4z"/>
                </g>
            </g>
            <g>
                <path d="M570.2,371c-11,0-27.1-2.2-42.9-4.4c-8.9-1.2-17.3-2.4-24.4-3.1c-0.3,0-0.5-0.3-0.5-0.6c0-0.3,0.3-0.5,0.6-0.5     c7.1,0.7,15.5,1.9,24.5,3.1c22.4,3.1,47.9,6.6,54.1,2.6c5.2-3.3,8.8-8.3,9.1-12.7c0.4-5.1-0.6-16.7-1.6-21.4     c-4-19-18.6-62.1-23.8-67.9c-5.1-5.7-12.8-8-19.7-9.7c-10.2-2.6-20.6-4.5-31.1-5.7c-1.6,5-5,11.7-12.5,16.8     c-1.5,1-3.3,0.2-4.9-0.6c-0.3-0.1-0.6-0.3-0.9-0.4c-0.1-0.1-0.6-0.1-1.1-0.2c-2.6-0.5-8.1-1.4-10.8-5.5c-1.4-2.1-1.8-4.9-1.2-8.1     c-9.5,1.6-18.5,4.3-27.5,8.2c-3.8,1.7-8.1,3.9-10.9,7.5c-2.5,3.2-3.7,7.3-4.8,10.9c-6,20.7-11.6,41.8-16.6,62.8     c-0.1,0.3-0.3,0.4-0.6,0.4c-0.3-0.1-0.4-0.3-0.4-0.6c5-21,10.6-42.1,16.6-62.8c1.1-3.7,2.3-7.9,4.9-11.3c2.9-3.7,7.4-6,11.3-7.8     c9.3-4.1,18.6-6.8,28.5-8.4c0.2,0,0.3,0,0.5,0.2c0.1,0.1,0.2,0.3,0.1,0.5c-0.8,3.3-0.5,6,0.9,8c2.4,3.7,7.6,4.6,10.1,5     c0.8,0.1,1.1,0.2,1.4,0.3c0.3,0.1,0.6,0.3,0.9,0.4c1.4,0.7,2.8,1.4,3.9,0.7c7.5-5.1,10.8-11.9,12.3-16.7c0.1-0.2,0.3-0.4,0.5-0.4     c10.6,1.2,21.3,3.2,31.6,5.8c7,1.8,15,4.1,20.2,10c5.7,6.4,20.3,50.5,24,68.4c1,4.7,2,16.6,1.6,21.7c-0.3,4.7-4.1,10-9.6,13.5     C579.9,370.5,575.7,371,570.2,371z"/>
            </g>
            <g>
                <path class="st1" d="M497.1,273.3c-2.7,13.6-5.3,27.3-7.7,41c-0.4,2.3-0.8,4.7-0.6,7.1c0.3,3.3,1.8,6.3,3.2,9.1     c1.7,3.5,3.5,6.9,5.8,10.3c2.8-6.4,5.3-12.9,7.4-19.6c0.7-15.2-4.2-30-4.6-45.2c0-0.9,0-1.9-0.4-2.7     C499.8,272.5,498.9,272,497.1,273.3z"/>
                <path d="M497.8,341.4c-0.2,0-0.3-0.1-0.4-0.2c-2.4-3.5-4.2-7-5.9-10.4c-1.4-2.7-2.9-5.8-3.2-9.3c-0.2-2.5,0.2-5,0.6-7.2     c2.4-13.7,5-27.5,7.7-41c0-0.1,0.1-0.2,0.2-0.3c1-0.7,1.9-1,2.6-0.8c0.5,0.1,0.9,0.5,1.2,1.1c0.4,0.9,0.4,1.9,0.5,2.9l0,0.1     c0.2,6.8,1.3,13.5,2.3,20.1c1.3,8.2,2.7,16.7,2.3,25.1c0,0,0,0.1,0,0.1c-2.1,6.6-4.6,13.2-7.4,19.6     C498.2,341.2,498,341.3,497.8,341.4C497.8,341.4,497.8,341.4,497.8,341.4z M497.5,273.6c-2.7,13.5-5.3,27.2-7.7,40.8     c-0.4,2.2-0.8,4.6-0.6,6.9c0.3,3.3,1.8,6.3,3.1,8.9c1.6,3.1,3.2,6.4,5.3,9.5c2.7-6.1,5-12.4,7-18.6c0.4-8.3-1-16.7-2.3-24.9     c-1.1-6.6-2.2-13.4-2.4-20.3l0-0.1c0-0.9,0-1.8-0.4-2.5c-0.1-0.3-0.3-0.4-0.5-0.5C498.8,272.9,498.2,273.1,497.5,273.6z"/>
            </g>
            <g>
                <path d="M503,363.6c-0.2,0-0.4-0.1-0.5-0.4c-0.1-0.3,0.1-0.6,0.3-0.6c3.5-1.1,4.9-3.9,4.7-9.3c-0.4-12-2.3-13.2-2.9-13.3     c-0.3,0-0.4-0.3-0.4-0.5c0-0.3,0.2-0.5,0.5-0.5l2.1-0.1c17.9-0.8,38.2-1.7,50.7-3.2c-2.1-6.6-4.1-12.7-6.1-18.5     c-2-6.1-4.2-12.4-6.4-19.4c-0.1-0.3,0.1-0.6,0.3-0.6c0.3-0.1,0.6,0.1,0.6,0.3c2.2,6.9,4.3,13.2,6.4,19.3c2,6,4.1,12.3,6.3,19.1     c0,0.1,0,0.3-0.1,0.4c-0.1,0.1-0.2,0.2-0.4,0.2c-12.6,1.6-33.2,2.5-51.4,3.3l-0.7,0c1,1.4,2,4.7,2.3,13.3c0.1,4-0.4,8.7-5.4,10.4     C503.1,363.6,503,363.6,503,363.6z"/>
            </g>
            <g>
                <polygon class="st0" points="340.9,309.5 429.5,310 460,372.7 370.6,373.2    "/>
                <path d="M370.6,373.7c-0.2,0-0.4-0.1-0.5-0.3l-29.8-63.7c-0.1-0.2-0.1-0.3,0-0.5c0.1-0.1,0.3-0.2,0.4-0.2c0,0,0,0,0,0l88.6,0.5     c0.2,0,0.4,0.1,0.5,0.3l30.5,62.7c0.1,0.2,0.1,0.3,0,0.5c-0.1,0.1-0.3,0.2-0.4,0.2L370.6,373.7     C370.6,373.7,370.6,373.7,370.6,373.7z M341.7,310l29.3,62.7l88.2-0.5l-30-61.7L341.7,310z"/>
            </g>
            <g>
                <path class="st0" d="M396.9,335c-2.5-0.2-5.3,0.4-6.3,2.7c-1,2.3-0.2,5.2,1.6,6.9c1.9,1.7,4.6,2.3,7.1,1.7     c1.3-0.3,2.7-0.9,3.4-2.1c0.5-0.8,0.8-1.7,0.8-2.7C403.6,338.5,402.1,335.5,396.9,335z"/>
                <path d="M397.5,347.1c-2.1,0-4.1-0.7-5.5-2c-2.1-1.9-2.8-5.1-1.7-7.5c1-2.2,3.5-3.4,6.8-3l0,0c5.9,0.6,7.1,4.2,7.1,7.1     c0,1.1-0.3,2.2-0.9,3c-1,1.4-2.6,2-3.7,2.3C398.8,347,398.1,347.1,397.5,347.1z M396,335.5c-1.5,0-3.9,0.3-4.9,2.5     c-0.9,2-0.3,4.7,1.5,6.3c1.7,1.5,4.2,2.1,6.6,1.6c1.4-0.3,2.5-1,3.1-1.9c0.6-0.8,0.7-1.8,0.7-2.4c0-3.7-2-5.7-6.2-6.1l0,0     C396.7,335.5,396.3,335.5,396,335.5z"/>
            </g>
            <g>
                <path class="st1" d="M500.6,266.3c-1.2-0.9-2.8-0.8-4.1-0.3c-1.9,0.8-3.5,1.9-3.9,4c-0.1,0.5,0.9,2.7,1.4,3.5     c0.6,0.9,2.2,2.6,3.5,2.7c1.2,0.1,2.2-0.6,3.1-1.4c1.6-1.4,2.8-3.5,2.3-5.5C502.6,268.2,501.7,267.2,500.6,266.3z"/>
                <path d="M497.7,276.8c-0.1,0-0.2,0-0.3,0c-1.7-0.1-3.4-2.2-3.9-3c-0.4-0.7-1.7-3.1-1.5-3.9c0.4-2.5,2.6-3.7,4.2-4.3     c1.7-0.7,3.4-0.6,4.6,0.3c1.4,1,2.3,2.1,2.6,3.4c0.5,1.9-0.5,4.2-2.5,6C499.8,276.3,498.7,276.8,497.7,276.8z M498.4,266.1     c-0.6,0-1.3,0.1-1.8,0.4c-2.2,0.9-3.3,2-3.6,3.6c0,0.4,0.8,2.3,1.4,3.1c0.6,1,2.1,2.4,3.1,2.5c0.8,0.1,1.7-0.3,2.7-1.2     c0.7-0.6,2.8-2.7,2.2-5c-0.2-1-1-1.9-2.2-2.8l0,0C499.7,266.3,499,266.1,498.4,266.1z"/>
            </g>
            <g>
                <path d="M474,363.7c-0.4,0-0.8-0.1-1.3-0.5c-1-0.8-0.3-2.4-0.1-2.9c0.3-0.8,0.9-1.5,1.5-2.1c1.8-1.9,3.9-3.6,6.3-5     c-1.3-0.2-2.8,0.4-3.8,1c-2.1,1.2-4.1,2.9-5.9,4.5c-0.9,0.8-1.9,1.7-2.9,2.4c-0.5,0.4-1,0.8-1.6,0.9c-0.8,0.2-1.6,0.1-2.1-0.4     c-0.4-0.3-0.6-0.8-0.6-1.5c-0.1-1.5,0.8-2.8,1.5-3.6c4-5,8.2-7.8,12.8-8.6c0.3,0,0.5,0.1,0.6,0.4c0,0.3-0.1,0.5-0.4,0.6     c-4.4,0.7-8.4,3.4-12.2,8.2c-0.6,0.7-1.3,1.8-1.2,2.9c0,0.3,0.1,0.6,0.3,0.8c0.2,0.2,0.7,0.3,1.1,0.2c0.4-0.1,0.9-0.4,1.3-0.8     c1-0.8,1.9-1.6,2.9-2.4c1.9-1.6,3.9-3.3,6.1-4.6c1.6-0.9,3.9-1.7,5.9-0.7c0.2,0.1,0.3,0.3,0.3,0.5c0,0.2-0.1,0.4-0.3,0.4     c-2.8,1.4-5.1,3.2-7.1,5.3c-0.5,0.5-1,1.1-1.3,1.8c-0.5,1.2-0.3,1.6-0.2,1.7c0.6,0.5,0.9,0.3,1.6-0.2l0,0     c2.8-2.4,5.7-4.3,8.7-5.9c1-0.5,2.3-1.1,3.5-0.5c1.4,0.7,5.3,2.2,12.3,1.8c2.6-0.2,5.2,0.2,7.9,1c0.3,0.1,0.4,0.4,0.3,0.6     c-0.1,0.3-0.4,0.4-0.6,0.3c-2.6-0.8-5.1-1.2-7.6-1c-7.2,0.5-11.4-1.1-12.8-1.9c-0.8-0.4-1.8,0.1-2.6,0.5c-3,1.6-5.7,3.5-8.5,5.8     l-0.1,0.1C475.2,363.3,474.7,363.7,474,363.7z"/>
            </g>
            <g>
                <path d="M461.9,363c-0.2,0-0.4,0-0.6-0.1c-1.1-0.3-1.5-1.5-1.6-2.5c-0.2-2.3,1.1-4.5,2-5.9c3.2-4.7,6.4-7.7,9.7-8.9     c0.3-0.1,0.6,0,0.7,0.3c0.1,0.3,0,0.6-0.3,0.7c-3.1,1.1-6.2,4-9.2,8.5c-0.9,1.3-2,3.2-1.8,5.2c0,0.6,0.3,1.4,0.9,1.6     c0.3,0.1,0.7,0,1-0.2c0.3-0.2,0.6-0.6,1-1c0.2-0.2,0.5-0.3,0.7-0.1c0.2,0.2,0.3,0.5,0.1,0.7c-0.3,0.4-0.7,0.8-1.2,1.2     C462.8,362.8,462.3,363,461.9,363z"/>
            </g>
            <g>
                <path d="M459.2,360.4c-0.5,0-1.1-0.2-1.5-0.5c-1.5-1,0.4-6.5,1.9-9.1c3.5-5.8,8-10,13-12.2c2.6-1.7,13.9,1.7,18.7,3.3     c1.2,0.4,2.8,0.8,4.4,0.9c0.9,0,9.1,0.3,10.9,0c0.3,0,0.5,0.1,0.6,0.4c0,0.3-0.1,0.5-0.4,0.6c-1.9,0.3-9.6,0.1-11.1,0     c-1.8-0.1-3.4-0.5-4.7-1c-7.7-2.5-16.2-4.6-17.8-3.4c0,0-0.1,0-0.1,0.1c-4.7,2-9.2,6.2-12.6,11.8c-1.9,3.1-2.7,7.3-2.2,7.8     c0.5,0.3,1.1,0.4,1.6,0.1c0.2-0.1,0.6-0.1,0.7,0.2c0.1,0.2,0.1,0.6-0.2,0.7C460,360.3,459.6,360.4,459.2,360.4z"/>
            </g>
            <g>
                <path class="st0" d="M484.1,248.9c2.3,5.7,7.4,13.7,12.5,16.8c-2.8,2.4-6.3,6.3-12.1,10.6c-2.1-10.3-4.2-15.2-5.4-23.3     C480.3,251.9,482.4,249.9,484.1,248.9z"/>
                <path d="M484.4,276.8c-0.1,0-0.1,0-0.2,0c-0.2-0.1-0.3-0.2-0.3-0.4c-1-4.8-2-8.5-2.8-11.8c-1-3.9-1.9-7.2-2.6-11.5     c0-0.2,0-0.4,0.2-0.5c0.5-0.4,1.1-0.9,1.8-1.5c1.1-0.9,2.3-2,3.4-2.6c0.1-0.1,0.3-0.1,0.4,0c0.1,0,0.3,0.2,0.3,0.3     c2.5,6,7.5,13.6,12.3,16.5c0.1,0.1,0.2,0.2,0.2,0.4c0,0.2,0,0.3-0.2,0.4c-0.8,0.7-1.7,1.5-2.7,2.5c-2.4,2.3-5.3,5.1-9.5,8.2     C484.6,276.7,484.5,276.8,484.4,276.8z M479.5,253.2c0.7,4.1,1.5,7.4,2.5,11.1c0.8,3.1,1.8,6.6,2.7,11c3.8-2.9,6.5-5.5,8.7-7.6     c0.8-0.8,1.5-1.4,2.2-2.1c-4.7-3.1-9.4-10.2-11.9-16.1c-0.9,0.6-1.8,1.5-2.7,2.2C480.5,252.3,480,252.8,479.5,253.2z"/>
            </g>
            <g>
                <path class="st0" d="M500,265.6c2.9,3.7,5.8,7.4,9.3,11.1c4.2-8.3,8.5-16.8,10.5-26c-1.8-0.8-5.8-3.5-7.6-4.3     c0.5,1.9,1.6,3.7,1.3,4.3C513.5,251.2,504.6,261.3,500,265.6z"/>
                <path d="M509.4,277.2c-0.1,0-0.3-0.1-0.4-0.2c-3.5-3.8-6.5-7.5-9.4-11.1c-0.2-0.2-0.1-0.5,0-0.7c4.5-4.2,12.9-13.8,13.5-14.7     c0-0.2-0.3-1-0.5-1.6c-0.3-0.7-0.6-1.5-0.8-2.3c-0.1-0.2,0-0.4,0.2-0.5c0.2-0.1,0.4-0.2,0.5-0.1c0.9,0.4,2.4,1.3,3.8,2.2     c1.4,0.8,2.9,1.7,3.7,2.1c0.2,0.1,0.3,0.3,0.3,0.6c-2,9.5-6.5,18.3-10.5,26.1C509.8,277.1,509.6,277.2,509.4,277.2     C509.4,277.2,509.4,277.2,509.4,277.2z M500.7,265.6c2.6,3.3,5.4,6.7,8.5,10.2c3.8-7.5,8.1-15.9,10-24.8c-0.9-0.5-2.2-1.2-3.5-2     c-0.9-0.6-1.9-1.1-2.7-1.6c0.1,0.4,0.3,0.7,0.4,1c0.5,1.1,0.8,1.9,0.5,2.4C513.9,251.5,505.3,261.3,500.7,265.6z"/>
            </g>
            <g>
                <path d="M324.2,374.3c-0.3,0-0.5-0.2-0.5-0.5c0-0.3,0.2-0.5,0.5-0.5c114.8-0.5,231.1-2,345.9-4.5c0.3,0,0.5,0.2,0.5,0.5     c0,0.3-0.2,0.5-0.5,0.5C555.4,372.3,439,373.8,324.2,374.3C324.2,374.3,324.2,374.3,324.2,374.3z"/>
            </g>
            <g>
                <path d="M470,341.1c-0.3,0-0.5-0.2-0.5-0.4c-1.9-14.9-7.4-30.5-14.9-42.8c-0.1-0.2-0.1-0.6,0.2-0.7c0.2-0.1,0.6-0.1,0.7,0.2     c7.6,12.4,13.1,28.2,15.1,43.2C470.5,340.8,470.3,341,470,341.1C470,341.1,470,341.1,470,341.1z"/>
            </g>
            <g>
                <path d="M444.8,341.8c-0.1,0-0.2,0-0.3-0.1c-0.2-0.2-0.3-0.5-0.2-0.7c5.5-8.5,12.4-19.7,16.8-30.9c0.1-0.3,0.4-0.4,0.7-0.3     c0.3,0.1,0.4,0.4,0.3,0.7c-4.4,11.3-11.4,22.5-16.9,31.1C445.1,341.8,444.9,341.8,444.8,341.8z"/>
            </g>
            <g>
                <path d="M471,365.1C471,365.1,471,365.1,471,365.1c-0.3,0-0.5-0.2-0.5-0.5l0.1-6.9c0-0.3,0.2-0.5,0.5-0.5c0,0,0,0,0,0     c0.3,0,0.5,0.2,0.5,0.5l-0.1,6.9C471.5,364.9,471.3,365.1,471,365.1z"/>
            </g>
            <g>
                <path d="M513.5,205.8c0,0-0.1,0-0.1,0c-0.3-0.1-0.4-0.3-0.4-0.6c0.4-1.8,0.6-2.8,1-4.5c0.1-0.3,0.3-0.5,0.6-0.4     c0.3,0.1,0.5,0.3,0.4,0.6c-0.4,1.8-0.5,2.7-1,4.6C513.9,205.6,513.7,205.8,513.5,205.8z"/>
            </g>
            <g>
                <path d="M557.9,336.6c-0.3,0-0.5-0.2-0.5-0.5c0-0.3,0.2-0.5,0.5-0.5c3-0.1,6.1-0.2,9.2-0.2c0,0,0,0,0,0c0.3,0,0.5,0.2,0.5,0.5     c0,0.3-0.2,0.5-0.5,0.5C564,336.4,560.9,336.5,557.9,336.6C557.9,336.6,557.9,336.6,557.9,336.6z"/>
            </g>
            <g>
                <path d="M584.6,300.1c-0.3,0-0.5-0.2-0.5-0.5c0-0.3,0.2-0.5,0.5-0.5c9.2-0.6,18.5-0.7,27.7-0.5c0.3,0,0.5,0.2,0.5,0.5     c0,0.3-0.2,0.5-0.5,0.5C603.1,299.4,593.8,299.5,584.6,300.1C584.7,300.1,584.6,300.1,584.6,300.1z"/>
            </g>
            <g>
                <path d="M588.2,308.6c-0.3,0-0.5-0.2-0.5-0.5c0-0.3,0.2-0.5,0.5-0.5l19.7-0.4c0.3,0,0.5,0.2,0.5,0.5c0,0.3-0.2,0.5-0.5,0.5     L588.2,308.6C588.2,308.6,588.2,308.6,588.2,308.6z"/>
            </g>
            <g>
                <path d="M598.4,345.1c-0.3,0-0.5-0.2-0.5-0.5c0-0.3,0.2-0.5,0.5-0.5l10.1-0.4c0.3,0,0.5,0.2,0.5,0.5c0,0.3-0.2,0.5-0.5,0.5     L598.4,345.1C598.5,345.1,598.5,345.1,598.4,345.1z"/>
            </g>
            <g>
                <path d="M522.3,264.5c0,0-0.1,0-0.1,0c-0.3-0.1-0.4-0.3-0.4-0.6c0.6-2.5,1-5.1,1.4-7.6c0-0.3,0.3-0.5,0.6-0.4     c0.3,0,0.5,0.3,0.4,0.6c-0.4,2.6-0.8,5.1-1.4,7.7C522.8,264.3,522.6,264.5,522.3,264.5z"/>
            </g>
            <g>
                <path d="M527.7,260.7C527.7,260.7,527.7,260.7,527.7,260.7c-0.3,0-0.5-0.3-0.5-0.6l0.4-4.5c0-0.3,0.3-0.5,0.6-0.5     c0.3,0,0.5,0.3,0.5,0.6l-0.4,4.5C528.2,260.5,528,260.7,527.7,260.7z"/>
            </g>
            <g>
                <path d="M521.9,185.4c-0.2,0-0.4-0.1-0.5-0.3c-0.1-0.3,0-0.6,0.3-0.7c2.6-0.9,4.5-3.7,4.5-6.5c0-0.3,0.2-0.5,0.5-0.5c0,0,0,0,0,0     c0.3,0,0.5,0.2,0.5,0.5c0,3.2-2.2,6.3-5.2,7.4C522,185.4,521.9,185.4,521.9,185.4z"/>
            </g>
            <g>
                <path d="M502.4,343.9C502.3,343.9,502.3,343.9,502.4,343.9c-0.3,0-0.5-0.3-0.5-0.6c0.1-0.6,0.2-1.1,0.3-1.7     c0.1-0.5,0.3-1.2,0.7-1.8c0.5-0.6,1.1-1,1.8-1c0,0,0,0,0,0c0.3,0,0.5,0.2,0.5,0.5c0,0.3-0.2,0.5-0.5,0.5c-0.4,0-0.8,0.2-1,0.6     c-0.3,0.4-0.5,0.9-0.6,1.4c-0.1,0.5-0.2,1-0.3,1.5C502.8,343.7,502.6,343.9,502.4,343.9z"/>
            </g>
            <g>
                <path d="M502.8,363.5c-0.4,0-0.8-0.2-1.1-0.6c-0.2-0.3-0.3-0.6-0.4-0.9c-0.4-1.3-0.5-2.6-0.3-3.9c0-0.3,0.3-0.5,0.6-0.4     c0.3,0,0.5,0.3,0.4,0.6c-0.2,1.2-0.1,2.4,0.3,3.5c0.1,0.2,0.1,0.4,0.3,0.6c0.1,0.1,0.2,0.2,0.3,0.2c0,0,0,0,0,0     c0.3,0,0.5,0.2,0.5,0.5C503.4,363.2,503.1,363.5,502.8,363.5C502.8,363.5,502.8,363.5,502.8,363.5z"/>
            </g>
            <g class="st2">
                <path d="M506.2,178.9c-0.4,0.4-0.8,0.8-1.3,1.2c0,0.1-0.1,0.2-0.3,0.5c-0.3,0.4-0.6,0.8-1,1.2c-1.3,1.3-2.6,2.1-3.8,2.6     c-0.2-0.4-0.6-0.7-1.1-0.5c-0.1,0-0.1,0-0.2,0c0,0-0.1,0-0.1,0c-0.8,0-1.7,0.1-2.5-0.1c0.1,0,0.2,0,0.3,0c-0.3,0-1.5-0.3-2.4-0.7     c-0.1,0-0.2-0.1-0.3-0.1c-0.2-0.1-0.4-0.2-0.6-0.1c0,0-0.1,0-0.1-0.1c0,0,0,0,0-0.1c0,0,0,0,0-0.1c0-0.1,0-0.2,0.1-0.3     c0.1-0.7-0.6-1.4-1.3-1.3c-0.7,0-1.2,0.7-1.2,1.3c-0.1,0.2-0.3,0.4-0.5,0.6c-0.7,0.7-1.5,1.3-2.2,1.9c-0.1,0.1-0.6,0.4-0.6,0.5     c0,0-0.1,0-0.1,0.1c-0.8,0.6-2.5,1.4-4,1.6c0,0,0,0,0,0c-0.3,0-0.7,0-1-0.1c-0.1,0-0.2-0.1-0.3-0.1c0,0-0.1,0-0.1-0.1     c-0.1-0.1-0.2-0.2-0.3-0.2c0,0,0,0-0.1-0.1c0,0-0.1-0.1-0.1-0.1c-0.4-0.1-0.7-0.2-1-0.5c-0.3-0.2-0.6-0.4-0.9-0.7     c-0.1-0.2-0.2-0.4-0.3-0.6c0,0,0-0.1,0-0.1c0,0,0-0.1-0.1-0.1c0-0.1-0.1-0.2-0.1-0.2c-0.3-0.5-0.5-1-0.7-1.6c0,0,0,0,0,0     c-0.4,0-0.9,0.2-1.1,0.5c-0.1,0.2-0.2,0.3-0.3,0.5c0,0-0.1,0.1-0.1,0.1c0,0,0,0-0.1,0.1c0,0,0,0,0,0c0,0,0,0,0,0     c-0.4,0.3-0.7,0.6-1.1,0.9c-0.2,0.1-0.3,0.2-0.5,0.3c0,0-0.1,0.1-0.1,0.1c0,0,0,0-0.1,0c-0.8,0.5-1.6,0.9-2.5,1.3     c-0.6,0.3-1.4,0.4-1.8,0.9c-1,1,0.3,2.7,1.6,2.1c1.8-0.7,3.6-1.5,5-2.8c0.2-0.2,0.5-0.4,0.7-0.6c0.6,1.2,1.4,2.2,2.4,3     c1.6,1.1,3.6,1,5.4,0.3c1.7-0.6,2.3-1.1,3.3-1.8c0.9-0.7,1.8-1.5,2.6-2.3c0.4,0.6,0.9,1.2,1.5,1.7c0.8,0.6,1.8,1,2.9,1     c0,0-0.1,0-0.1,0c0.1,0,0.2,0,0.3,0c1.3,0,2.6-0.3,3.8-0.7c1.8-0.6,3.5-1.5,4.9-2.8c0.9-0.8,1.7-1.7,2.2-2.8c0.1-0.3,0,0-0.1,0.1     c0.2-0.4,0.5-0.8,0.7-1.2c0.1-0.2,0.3-0.5,0.2-0.8C507.3,179.2,506.7,178.9,506.2,178.9z"/>
            </g>
            <g class="st2">
                <path d="M525.2,190.2c-0.4-0.8-1.2-0.6-1.9-0.4c-1,0.2-2.1,0.2-3.1,0.4c-0.8,0.1-1.5,0.3-2.3,0.3c0,0,0,0,0,0c-0.2,0-0.4,0,0,0     c-0.4,0-0.8,0-1.2,0.1c-0.1-0.2-0.2-0.4-0.4-0.5c-0.8-0.6-2.1,0.2-1.8,1.2c0.2,0.8,0.3,1.5,0.4,2.3c-0.1,1.1-0.1,2.9,1.6,2.7     c0.3-0.1,0.6-0.3,0.8-0.5c0,0.1,0.7-0.5,0.9-0.6c0.8-0.6,2.3-1.4,3.8-2.3c0.8-0.4,1.6-0.8,2.4-1.1c0.1,0,0.1,0,0.2-0.1     c0.1,0,0.1,0,0.2-0.1C525.2,191.3,525.5,190.7,525.2,190.2z"/>
            </g>
            <g class="st2">
                <path d="M511.4,245.4c-0.4-1.1-0.8-2.2-1.1-3.4c-0.7-2.4-1.3-4.8-1.9-7.2c-0.7-1.8-1.3-3.5-1.8-5.4c0-0.1,0-0.2,0-0.2     c-0.3-0.2-0.7-0.2-1.1,0c0,0.1,0,0.3,0,0.4c-0.2,0.4-0.5,0.7-0.8,1.1c-0.3,0.3-0.6,0.6-0.8,0.9c-0.6,0.6-1.2,1.1-1.9,1.7     c-0.1,0.1-0.1,0.1-0.2,0.1c0,0.2,0,0.4,0,0.6c0,0-0.1,0-0.1,0.1c-0.3,0.1-1,0.6-3.1,1.5c-0.6,0.2-1.2,0.5-1.8,0.7     c-0.2-0.1-0.4-0.1-0.7,0c0.1,0,0.2,0,0.3,0c-0.1,0-0.3,0-0.4,0.1c0,0-0.1,0-0.3,0c-0.6,0-1.2,0-1.8,0.1c-1.8,0.9-3.9,0.8-5.9,0.8     c-0.2,0.1-0.4,0.3-0.6,0.5c-0.4-0.1-0.8-0.2-1.2-0.4c0,0-0.1,0-0.1,0c-0.2,0-0.3,0-0.5,0.1c-0.3,0-0.4-0.1-0.5-0.4     c-0.3-0.1-0.6-0.1-0.9-0.1c-1.3,0.3-1.3,2.2,0.1,2.4c5.4,1.8,15.7,5.2,19.5,6.3c1.3,0.4,2.6,0.7,4,0.8c-0.1,0-0.2,0-0.4,0     c0.1,0,0.2,0,0.3,0c0.1,0,0.3,0,0.5,0.1c0.4,0.2,0.7,0.3,1.1,0.5c0.3,0.1,0.7,0.3,1,0.3c0.3,0.3,0.7,0.3,1,0.1     C512.2,246.9,511.6,246,511.4,245.4z"/>
            </g>
            <g class="st2">
                <path d="M498.6,276.4c-0.4-0.3-0.8-0.7-1.3-0.8c-1.3-0.2-2,1.7-0.8,2.3c0.9,0.6,1.3,1,1.6,1.2c0.3,0.3,0.6,0.8,1.1,0.8     c0.8,0.2,1.5-0.6,1.4-1.4c0.1-1.1-0.1-1.2,0.1-1.8C501,275.2,498.9,274.9,498.6,276.4z"/>
            </g>
            <g class="st2">
                <path d="M508.9,275.8c-0.3-0.5-1-0.8-1.4-1.2c-1-0.9-2-2-2.3-2.5c-0.2-0.3-0.5-0.6-0.7-0.9c-0.2-0.3-0.4-0.7-0.8-0.8     c-0.9-0.3-1.7,0.8-1.2,1.6c0.1,0.2,0.2,0.4,0.4,0.5c-0.1,0-0.2-0.1-0.3-0.1c-1.2-0.2-1.7,1.5-0.7,2.1c1.2,0.7,2.4,1.4,3.6,2.2     c1.2,0.6,2.1,1.1,2.7,1.2C509.4,278.2,509.9,276.5,508.9,275.8z"/>
            </g>
            <g class="st2">
                <path d="M493.8,272.7c-0.3-0.5-0.5-1.1-0.9-1.6c-0.2-0.3-0.2-0.6-0.5-0.8c-0.7-0.5-1.5-0.1-1.8,0.5c0,0-0.1,0-0.1,0     c-0.5,0.1-0.8,0.5-1.1,0.9c-0.5,0.6-0.5,0.7-0.6,0.9c0,0,0,0,0,0c-0.1,0.1-0.1,0.3-0.2,0.4c-0.5,0.2-0.9,0.4-1.4,0.6     c-0.7,0.3-1.5,0.5-2.1,1.1c-0.8,0.9,0.4,2.2,1.4,1.6c0.8-0.4,1.6-0.7,3-1.3c0.8-0.3,1.6-0.4,2.4-0.6c0.2-0.1,0.4-0.1,0.5-0.3     C493.5,274.5,494.3,273.6,493.8,272.7z"/>
            </g>
            <g class="st2">
                <path d="M507.6,346.3c-0.1-1.2-0.3-2.5-0.7-3.6c-0.3-0.8-0.6-1.6-1.1-2.3c-0.3-0.5-0.6-1-1.2-1.1c-1.2-0.4-2.3,1-1.6,2.1     c0,0,0,0,0,0c-0.1,0.4-0.5,0.8-0.4,1.2c0.1,0.7,0.8,0.9,1.4,0.7c0.2,0.6,0.4,1.2,0.6,2.3c0.2,1.8,0.4,3.6,0.4,5.4     c0,1.3,0,2.5-0.1,3.8c-0.3,1.6-0.5,3-0.9,4c0,0-0.1-0.1-0.1-0.1c-0.3-0.3-0.5-0.7-0.9-0.8c-1.2-0.6-2.4,1.1-1.4,2.1     c0.1,0.1,0.2,0.2,0.3,0.3c0,0,0,0.1,0.1,0.1c0,0,0,0,0,0.1c0,0.1,0,0.3,0,0.4c0,0,0,0,0,0c0,0,0,0,0,0c0,0.1,0,0.2,0,0.3     c0,0.2,0,0.5,0.1,0.7c0.1,0.2,0.3,0.3,0.4,0.4c0.2,0.6,0.8,1,1.4,0.8c0.5-0.1,0.7-0.6,1.1-0.9c0.6-0.7,1.2-1.5,1.7-2.3     c0.8-1.8,1.2-3.7,1.3-5.7C507.9,351.4,507.8,348.8,507.6,346.3z"/>
            </g>
            <g class="st2">
                <path d="M625,288.8c-0.2-1.8-2.8-2-3.3-0.2c-0.7,2.7-1.1,5.6-1.8,8.3c-0.7,2.6-1.3,5.1-1.9,7.7c-0.1,0.9-0.3,1.8-0.3,2.7     c0,0.1,0,0.1,0,0.2c-0.1,0.4-0.2,0.7-0.3,1.1c0,0,0,0,0,0c0,0,0,0,0,0.1c0,0,0,0,0,0c-0.1,0.3-0.1,0.6,0,0.9     c0.3,1.4,2.3,1.6,3,0.4c0,0,0,0,0,0c0.4-0.6,0.5-1.4,0.6-2c0.5-1.9,0.7-3.9,1.2-5.8c0.8-3.5,1.7-7,2.4-10.5     c0.1-0.5,0.2-1.1,0.4-1.6C624.9,289.5,625.1,289.2,625,288.8z"/>
            </g>
            <g class="st2">
                <path d="M605.2,365c-0.6-1.4-0.9-2.8-1.4-4.2c-0.6-1.8-1.3-3.5-1.9-5.2c-0.8-2.4-1.4-4.3-2.1-6.3c-3.8-8.7-7.4-17.6-10.9-26.4     c-3.8-9.5-7.3-19-10.8-28.6c-0.4,0.2-0.6,0.6-0.5,1.1c1.7,5.4,4,10.6,5.9,15.9c2.3,6.9,4.4,13.9,6,21c0.4,1.5,0.8,2.9,1.2,4.4     c-0.8-0.1-1.8,0.6-1.5,1.6c1.1,5.7,2,9.6,2.1,15.1c0,0.9,0,1.7,0,2.6c-0.1,0.1-0.3,0.1-0.4,0.2c-0.1,0.1-0.2,0.2-0.3,0.3     c0.2-0.9,0.4-1.7,0.6-2.6c-0.3,0-0.6,0.1-0.8,0.3c-0.3,0.3-0.3,0.6-0.4,1c-0.3,1.1-0.3,1.1-0.8,1.9c0,0,0,0,0,0.1     c0,0-0.1,0.1-0.1,0.1c-1.7,1.8-3.7,3.6-5,4.5c-2.9,2.1-4.6,2.7-7.8,3.7c-1,0.3-1.9,0.6-2.9,0.9c-2.1,0-4.1,0.2-6.2,0.1     c-3.3-0.1-6.6-0.5-9.9-0.7c-4.8-0.2-10.1-0.3-13.8-1c-3.2-0.8-6.4-0.8-9.6-1.1c-2.9-0.3-3.9-0.4-6.4-0.8     c-1.8-0.2-4.5-0.4-5.2-0.6c-2.7-0.4-8-1.4-9-1.5c-1.8-0.2-2.8-0.4-5.1-0.5c-0.5,0-1.1-0.1-1.5,0.1c-0.4,0.2-0.7,0.5-0.7,0.9     c-0.3,0-0.7,0-1-0.1c-0.2,0-0.3,0-0.5,0.1c-1.2,0.5-0.8,2.3,0.5,2.3c2.8,0.1,5.6,0.4,7.6,0.7c1.4,0.2,2.9,0.4,4.3,0.6     c0.6,0,1.3,0.3,1.9,0c0.3-0.1,0.4-0.3,0.5-0.5c0.3,0.1,0.5,0.1,0.8,0.2c4.1,0.9,7.5,1,10.8,1.5c3.3,0.4,6.6,0.7,9.9,1     c0.7,0.1,3.9,0.7,6.1,0.8c0.1,0.4,0.5,0.8,1.1,0.8c1.7,0.1,3.4,0.4,5.1,0.5c0.5,0.9,1.2,0.6,2.2,0.8c2.2,0.2,4.4,0.2,6.5,0.2     c2.3,0.1,4.5,0.3,6.8,0.2c1.9,0,3.8-0.2,5.7-0.4c1.6-0.1,3.3-0.2,4.8-0.7c0,0.7,0.5,1.3,1.3,1.3c0.5,0,1,0,1.7,0     c0,0.1,0,0.1,0.1,0.2c0.7-0.1,1.4-0.1,2.2-0.2c4.4-0.4,8.9-0.6,13.3-0.6c0.1-0.1,0.2-0.2,0.2-0.3c0.2,0,0.4,0,0.6-0.1     c0.2,0.2,0.3,0.3,0.5,0.4c1.9,0,3.9,0,5.8-0.1c0.5,0,1,0,1.5-0.1c0.4-0.3,0.6-0.6,0.6-1.1c-0.1-0.8-0.5-1.4-0.8-2.1     C605.7,366.2,605.4,365.6,605.2,365z M585.3,366.4c-0.9,1.1-1,1.2-1.6,1.9c-0.4,0-0.7,0-1.1,0c-0.3,0-0.5,0-0.8,0     c1.6-1,3.2-2.3,4.5-3.6c0.2-0.2,0.4-0.4,0.6-0.6C586.4,364.9,585.9,365.6,585.3,366.4z M598.6,355.2c-0.1-0.5-0.1-1.1-0.2-1.6     c0.1,0.3,0.2,0.6,0.3,0.8c0.1,0.3,0.2,0.7,0.3,1C598.9,355.4,598.7,355.3,598.6,355.2z M602.7,367.9c0.3-0.1,0.6-0.3,0.8-0.6     c0.1,0.2,0.2,0.4,0.3,0.6C603.5,367.9,603.1,367.9,602.7,367.9z"/>
            </g>
        </g>
    </g>
    </svg>