<?xml version="1.0" encoding="utf-8"?>
<!-- Generator: Adobe Illustrator 27.0.0, SVG Export Plug-In . SVG Version: 6.00 Build 0)  -->
<svg width="341" height="268" version="1.1" id="Layer_1" xmlns="http://www.w3.org/2000/svg" xmlns:xlink="http://www.w3.org/1999/xlink" x="0px" y="0px"
	 viewBox="0 0 226.86 201.51" style="enable-background:new 0 0 226.86 201.51;" xml:space="preserve">
<style type="text/css">
	.st0{fill:#FFFFFF;}
	.st1{fill:#BEE8FF;}
	.st2{opacity:0.1294;}
	.st3{fill:none;stroke:#000102;stroke-width:1.0354;stroke-miterlimit:10;}
	.st4{fill:none;stroke:#000000;stroke-miterlimit:10;}
	.st5{fill:#FFFFFF;stroke:#000000;stroke-width:0.7418;stroke-linecap:round;stroke-linejoin:round;}
	.st6{fill:#5A5A5A;}
</style>
<g>
	<path class="st0" d="M61.93,117.04c-1.75-5.12-2.94-10.42-4.14-16.51c-2.41-0.41-4.88-0.45-7.31-0.13
		c-1.09,0.15-2.28,0.44-2.88,1.31c-0.38,0.54-0.46,1.22-0.53,1.87c-0.49,4.47-0.97,8.93-1.45,13.4c-0.04,0.34-0.07,0.7,0.05,1.03
		c0.17,0.46,0.63,0.77,1.08,1.03C51.42,121.66,57.9,120.97,61.93,117.04z"/>
	<path d="M52.92,121.11c-2.22,0-4.45-0.54-6.43-1.65c-0.51-0.29-1.07-0.67-1.3-1.28c-0.16-0.44-0.12-0.89-0.08-1.25l1.45-13.4
		c0.07-0.64,0.16-1.44,0.62-2.1c0.74-1.05,2.11-1.36,3.22-1.51c2.48-0.34,4.99-0.29,7.45,0.13c0.2,0.03,0.36,0.19,0.4,0.39
		c1.23,6.25,2.41,11.43,4.12,16.45c0.06,0.18,0.01,0.38-0.12,0.51C59.77,119.83,56.35,121.11,52.92,121.11z M53.73,100.68
		c-1.06,0-2.12,0.07-3.18,0.22c-0.91,0.12-2.03,0.36-2.55,1.1c-0.32,0.45-0.39,1.09-0.45,1.64l-1.45,13.4
		c-0.03,0.28-0.06,0.58,0.02,0.8c0.12,0.32,0.5,0.57,0.86,0.77c4.48,2.52,10.61,1.78,14.38-1.7c-1.65-4.88-2.79-9.93-3.99-15.94
		C56.16,100.77,54.95,100.68,53.73,100.68z"/>
</g>
<g>
	<path class="st0" d="M61.55,61.66c1.33,4.88,2.43,10.12,5.56,14.21c1.71,2.23,7.01,15.01-1.7,22.95
		c-4.58,4.17-10.92,6.37-17.88,5.34c-4.72-0.7-12.27-5.87-14.32-13.29c-2.75,2.17-6.71,1.37-7.93-1.42
		c-0.7-1.61,0.23-4.38,2.15-5.08c1.49-0.54,1.67-0.6,3.13-0.22c-0.63-3.62-1.59-7.17-3.25-10.95c1.9-5.39,6.74-9.76,12.05-13
		c1.76-1.07,3.61-2.05,5.62-2.62C50.72,55.98,60.19,56.65,61.55,61.66z"/>
	<path d="M50.97,104.91c-1.15,0-2.32-0.09-3.5-0.26c-4.65-0.69-12.13-5.56-14.53-12.98c-1.41,0.87-3.12,1.16-4.7,0.77
		c-1.57-0.39-2.81-1.41-3.41-2.78c-0.41-0.94-0.35-2.24,0.15-3.41c0.48-1.13,1.32-1.97,2.28-2.33c1.3-0.47,1.72-0.6,2.68-0.41
		c-0.69-3.69-1.68-6.91-3.08-10.1c-0.05-0.11-0.06-0.24-0.01-0.36c2.15-6.1,7.86-10.57,12.26-13.26c1.5-0.91,3.51-2.04,5.74-2.67
		c4.08-1.15,10.46-1.21,14.23,0.93c1.56,0.88,2.55,2.05,2.94,3.48c0.16,0.59,0.32,1.19,0.48,1.79c1.14,4.29,2.31,8.73,5,12.25
		c2.1,2.75,6.99,15.63-1.76,23.61C61.64,102.93,56.48,104.91,50.97,104.91z M33.21,90.38c0.05,0,0.1,0.01,0.15,0.02
		c0.16,0.05,0.28,0.18,0.32,0.34c2.02,7.3,9.51,12.28,13.92,12.94c6.52,0.96,12.73-0.89,17.48-5.22c8.81-8.03,2.81-20.76,1.64-22.28
		c-2.81-3.68-4.01-8.21-5.17-12.59c-0.16-0.6-0.32-1.2-0.48-1.79l0,0c-0.32-1.16-1.15-2.13-2.47-2.88
		c-3.55-2.01-9.59-1.93-13.48-0.84c-2.11,0.59-4.04,1.68-5.49,2.56c-4.23,2.57-9.68,6.83-11.78,12.56c1.48,3.41,2.5,6.88,3.2,10.88
		c0.03,0.16-0.03,0.33-0.15,0.45c-0.12,0.11-0.29,0.16-0.46,0.11c-1.33-0.35-1.41-0.31-2.84,0.21c-0.71,0.26-1.34,0.91-1.72,1.79
		c-0.4,0.92-0.45,1.93-0.15,2.63c0.48,1.09,1.48,1.9,2.74,2.22c1.51,0.38,3.16,0.01,4.43-0.99C33,90.42,33.1,90.38,33.21,90.38z"/>
</g>
<g>
	<path class="st0" d="M112.76,98.32c0.22,0.18,0.46,0.36,0.72,0.53c-0.09-0.02-0.19-0.04-0.28-0.06c-0.21-0.05-0.43-0.09-0.67-0.14
		h-0.01c-0.36-0.09-0.72-0.19-0.99-0.35c-0.01-0.01-0.03-0.03-0.04-0.03c-0.18-0.12-0.31-0.26-0.38-0.44
		c-0.01-0.04-0.02-0.07-0.03-0.11c0-0.02-0.01-0.05-0.01-0.07v-0.04c0-0.03,0-0.06-0.01-0.09c0.01-0.09,0.03-0.18,0.08-0.26
		c0-0.02,0-0.03,0.01-0.04c0.06-0.12,0.15-0.24,0.26-0.34c0.01-0.01,0.02-0.03,0.04-0.04c0.05-0.04,0.09-0.07,0.14-0.1
		c-0.05,0.07-0.09,0.15-0.09,0.21v0.01c0.02,0.01,0.02,0.01,0.02,0.02c0.02,0.05,0.04,0.11,0.08,0.16c0.03,0.05,0.07,0.11,0.12,0.16
		C112,97.65,112.35,97.99,112.76,98.32C112.75,98.32,112.75,98.32,112.76,98.32z"/>
</g>
<g>
	<circle class="st1" cx="23.78" cy="48.36" r="12.77"/>
	<path d="M23.75,61.62c-3.03,0-5.95-1.03-8.34-2.97c-2.75-2.23-4.46-5.4-4.83-8.93l0,0c-0.75-7.27,4.55-13.8,11.82-14.55
		c3.52-0.36,6.98,0.67,9.73,2.9c2.75,2.23,4.46,5.4,4.83,8.93c0.36,3.52-0.66,6.98-2.9,9.72c-2.23,2.75-5.4,4.46-8.93,4.83
		C24.68,61.59,24.21,61.62,23.75,61.62z M23.8,36.08c-0.43,0-0.86,0.02-1.29,0.07c-6.73,0.7-11.64,6.74-10.95,13.47l0,0
		c0.34,3.26,1.92,6.2,4.47,8.26c2.54,2.07,5.74,3.02,9,2.68c3.26-0.34,6.2-1.92,8.26-4.47c2.07-2.54,3.02-5.74,2.68-9
		c-0.34-3.26-1.92-6.2-4.47-8.26C29.31,37.04,26.61,36.08,23.8,36.08z"/>
</g>
<g>
	<path class="st1" d="M31.18,84.47c1.04-5.9,1.47-10.01,0.09-16.06c13.78,1.88,23.8-3.65,34.2-8.51c-0.53-1.89-1.68-3.58-3.15-4.97
		c-3.58-3.4-7.39-6.06-14.96-6.22c-5.31-0.11-11.89,1.1-16.44,3.83c-4.52,2.72-7.56,7.06-9.62,11.6c-1.64,3.61-2.19,8.64-1.3,13
		c0.76,3.74,2.68,5.92,5.7,8.78c0.67-0.83,1.29-1.65,2.38-1.88C29.16,83.82,30.02,84.06,31.18,84.47z"/>
	<path d="M25.7,86.42c-0.13,0-0.25-0.05-0.34-0.13c-2.8-2.66-5.01-5.01-5.84-9.04c-0.9-4.4-0.39-9.5,1.33-13.3
		c2.44-5.39,5.75-9.37,9.82-11.82c5.04-3.03,11.93-4,16.7-3.9c7.33,0.16,11.28,2.55,15.29,6.35c1.63,1.54,2.76,3.34,3.28,5.19
		c0.06,0.23-0.05,0.48-0.27,0.58c-0.88,0.41-1.77,0.83-2.65,1.25c-9.2,4.36-18.72,8.87-31.13,7.39c1.27,6.03,0.7,10.29-0.23,15.57
		c-0.03,0.14-0.11,0.27-0.24,0.34c-0.12,0.07-0.27,0.09-0.41,0.04c-1.2-0.42-1.93-0.59-2.84-0.4c-0.87,0.18-1.4,0.84-2.01,1.6
		l-0.08,0.1c-0.09,0.11-0.21,0.17-0.35,0.18C25.72,86.42,25.71,86.42,25.7,86.42z M46.69,49.19c-4.59,0-10.88,0.98-15.51,3.77
		c-3.9,2.34-7.07,6.17-9.43,11.38c-1.62,3.57-2.11,8.55-1.26,12.7c0.68,3.3,2.22,5.32,5.17,8.16c0.6-0.73,1.26-1.41,2.32-1.64
		c1.04-0.22,1.9-0.05,2.82,0.25c0.89-5.11,1.36-9.31-0.01-15.3c-0.04-0.16,0.01-0.32,0.12-0.44c0.11-0.12,0.27-0.18,0.43-0.16
		c12.47,1.7,22.03-2.83,31.27-7.21c0.75-0.36,1.51-0.72,2.27-1.07c-0.52-1.54-1.51-3.04-2.89-4.35c-3.15-2.99-6.87-5.92-14.64-6.08
		C47.13,49.2,46.91,49.19,46.69,49.19z"/>
</g>
<g>
	<path d="M52.35,97.15c-1.38,0-2.42-1.13-3.43-2.23c-0.34-0.37-0.66-0.72-0.98-1.02c-0.14-0.13-0.19-0.33-0.14-0.51
		c0.06-0.18,0.22-0.31,0.41-0.34c2.74-0.32,6.54-0.29,9.04,0.06c0.16,0.02,0.29,0.12,0.37,0.26c0.07,0.14,0.07,0.31,0,0.45
		C56.9,95.22,53.85,97.15,52.35,97.15C52.36,97.15,52.35,97.15,52.35,97.15z M49.35,93.93c0.1,0.11,0.2,0.22,0.3,0.32
		c0.86,0.94,1.75,1.91,2.7,1.91c0,0,0,0,0,0c0.91,0,2.93-1.18,3.92-2.18C54.22,93.78,51.56,93.76,49.35,93.93z"/>
</g>
<g>
	<path class="st0" d="M130.76,99.6c-0.14-0.03-0.28,0.01-0.37,0.1l-0.14,0.14c-0.01,0.01-0.01,0.01-0.02,0.02
		c-0.24,0.26-0.67,0.7-1.38,1.11c-0.15,0.08-0.32,0.17-0.5,0.25c-0.06,0.03-0.13,0.06-0.21,0.09c-0.09,0.04-0.18,0.07-0.28,0.1
		c-0.16,0.06-0.34,0.12-0.53,0.17c-0.16,0.05-0.33,0.09-0.52,0.12c-1.12,0.23-2.57,0.28-4.44-0.02l-0.31-0.05
		c-1.53-0.25-3.1-0.5-4.61-0.96c-0.32-0.09-0.64-0.2-0.95-0.32c-0.18-0.07-0.35-0.14-0.52-0.21v-0.05
		c-0.01-0.01-0.03-0.01-0.04-0.02c-0.19-0.09-0.37-0.18-0.54-0.28c-0.05-0.02-0.09-0.05-0.14-0.07l-0.12-0.07
		c-0.06-0.01-0.12-0.02-0.17-0.03c-0.17-0.02-0.33-0.06-0.49-0.1c-0.18-0.03-0.35-0.08-0.52-0.13h-0.01
		c-0.05-0.04-0.1-0.07-0.15-0.11h-0.01c-0.09-0.02-0.19-0.04-0.28-0.06c-0.11-0.03-0.22-0.07-0.33-0.1c-0.01,0-0.02,0-0.03-0.01
		l-0.01-0.01c-0.06-0.04-0.12-0.08-0.18-0.12c-0.12-0.08-0.24-0.17-0.35-0.26c-0.01-0.01-0.01-0.01-0.02-0.01l-0.06-0.06
		c0.11,0.02,0.22,0.04,0.32,0.07c0.04,0,0.08,0.01,0.11,0.02h0.01c0.05,0.01,0.1,0.02,0.15,0.03l0.02,0.01
		c0.02,0,0.04,0.01,0.06,0.01c0.09,0.02,0.19,0.04,0.28,0.06c-0.26-0.17-0.5-0.35-0.72-0.53c-0.01,0-0.01,0-0.01,0
		c-0.06-0.02-0.11-0.04-0.16-0.06c0,0-0.01,0-0.01-0.01c-0.31-0.11-0.59-0.25-0.82-0.39c-0.02-0.01-0.02-0.02-0.03-0.03
		c-0.02-0.01-0.04-0.02-0.06-0.03c-0.06-0.04-0.11-0.08-0.16-0.12c-0.01,0-0.01-0.01-0.01-0.01c-0.05-0.04-0.1-0.09-0.15-0.13
		c-0.03-0.03-0.05-0.07-0.08-0.1c-0.06-0.05-0.1-0.11-0.13-0.18c-0.04-0.04-0.06-0.08-0.08-0.13v0.39c0.01,0.03,0.01,0.06,0.01,0.09
		v0.16c0.01,0.31,0.01,0.6,0.01,0.91v0.01c0,0.68-0.01,1.36-0.03,2.03v0.03c-0.03,2.6-0.18,5.18-0.43,7.73
		c-0.01,0.24-0.04,0.47-0.07,0.7c-0.01,0.19-0.03,0.39-0.05,0.58c0,0.01,0,0.01,0,0.01c-0.01,0.15-0.03,0.29-0.06,0.44v0.01
		c0,0.15-0.02,0.3-0.05,0.45c-1.15,10.09-3.77,19.84-7.45,29.16c-6.18-7.43-9.22-12.82-15.09-19.23c-2.83-3.08-6.91-6.14-11.12-6.75
		c-3.19-0.46-7.76-0.48-14.99,0.17c-0.94,2.81-2.59,4.52-4.55,5.33c-1.97,0.81-4.19,0.81-6.27,0.35c-2.33-0.5-4.81-1.9-5.22-4.25
		c-9.43,2.21-19.19,4.77-25.75,11.63c-3.14,3.28-5.33,7.36-7.14,11.52c-4.22,9.65-8.8,29.12-11.17,39.38
		c-0.8,3.46-1.58,7.18-0.3,10.49c0.47,1.21,1.24,2.34,2.35,3.01c1.47,0.89,3.3,0.86,5.02,0.8c15.38-0.49,30.79-0.23,46.46,0.3
		c0.04-0.41,0.08-0.82,0.13-1.23c0.06-0.55,0.13-1.1,0.21-1.64c10.47,0.64,20.98,0.82,31.19-0.8c-0.11-7.46-0.82-16.32-0.78-23.92
		c0.3-1.14,0.89-2.12,1.5-3.08c0.03-0.05,0.06-0.09,0.09-0.14c3.71,7.1,7.39,8.67,13.13,8.84c5.75,0.16,11.22-3.02,14.96-7.39
		c3.74-4.36,5.97-9.81,7.71-15.29c3.52-11.07,5.28-22.56,6.4-34.15c0.01-0.11,0.02-0.23,0.03-0.35c0.01-0.05,0.01-0.11,0.02-0.17
		c0.01-0.1,0.02-0.21,0.03-0.31c0.01-0.09,0.02-0.17,0.02-0.26v-0.01c0.01-0.09,0.02-0.19,0.03-0.28c0.09-0.95,0.18-1.89,0.25-2.85
		c0.01-0.11,0.02-0.21,0.03-0.32c0.04-0.37,0.07-0.74,0.1-1.11c0-0.01,0-0.01,0-0.01c0.01-0.09,0.01-0.19,0.02-0.28
		c0.11-1.36,0.21-2.73,0.31-4.09c0-0.01,0-0.02,0-0.02c0.01-0.12,0.02-0.24,0.03-0.36c0.07-0.96,0.14-1.9,0.2-2.86v-0.01
		c0.01-0.03,0.01-0.06,0.01-0.09c0-0.01,0-0.01,0-0.02c0.01-0.18,0.03-0.35,0.04-0.52c0.01-0.08,0.01-0.15,0.02-0.23
		C130.82,99.62,130.79,99.61,130.76,99.6z M25.52,174.05c1.55-7.4,5.29-21.02,6.53-27.95c0.86,10.22,1.72,17.51,2.59,27.73
		c0.02,0.18,0.03,0.37,0.04,0.55C31.82,174.26,28.8,174.15,25.52,174.05z"/>
</g>
<g>
	<path d="M43.54,79.58c-0.17-0.61,0.22-1.25,0.86-1.42c0.64-0.18,1.3,0.17,1.47,0.78s-0.22,1.25-0.86,1.42
		C44.37,80.54,43.71,80.19,43.54,79.58z"/>
</g>
<g>
	<path d="M60.21,73.78c-0.17-0.61,0.22-1.25,0.86-1.42c0.64-0.18,1.3,0.17,1.47,0.78c0.17,0.61-0.22,1.25-0.86,1.42
		C61.04,74.74,60.38,74.39,60.21,73.78z"/>
</g>
<g>
	<path d="M84.69,188.08c-0.27,0-0.49-0.21-0.49-0.48c-0.01-0.27,0.21-0.5,0.48-0.5l1.36-0.03c-0.49-3.26-0.48-6.97-0.46-10.89
		c0.01-3.53,0.02-7.18-0.3-11.03c-0.02-0.27,0.18-0.51,0.45-0.53c0.27-0.02,0.51,0.18,0.53,0.45c0.33,3.89,0.32,7.56,0.3,11.11
		c-0.01,4.1-0.03,7.97,0.54,11.28c0.02,0.14-0.01,0.29-0.11,0.4c-0.09,0.11-0.23,0.18-0.37,0.18l-1.93,0.04
		C84.7,188.08,84.69,188.08,84.69,188.08z"/>
</g>
<g>
	<path d="M57.91,85.93c-0.13,0-0.26-0.05-0.36-0.15c-0.19-0.2-0.18-0.51,0.02-0.69l1.26-1.2c0.05-0.05,0.09-0.09,0.11-0.12
		c-0.06-0.05-0.15-0.1-0.19-0.12c-2.01-1.19-3.38-3.25-3.67-5.52c-0.03-0.27,0.16-0.51,0.43-0.55c0.27-0.03,0.51,0.16,0.55,0.43
		c0.25,1.97,1.44,3.76,3.19,4.79c0.22,0.13,0.69,0.41,0.7,0.93c0.01,0.43-0.3,0.73-0.45,0.87l-1.26,1.2
		C58.15,85.89,58.03,85.93,57.91,85.93z M59,83.81L59,83.81L59,83.81z"/>
</g>
<g>
	<path class="st0" d="M53.78,189.46c3.15,0.01,6.29,0.4,9.34,1.17c1.06,0.27,2.12,0.58,3.07,1.13c2.02,1.17,3.33,3.32,4.01,5.55
		c0.16,0.53,0.3,1.09,0.59,1.56c0.29,0.47,0.79,0.86,1.35,0.86c0.56,0,1.11-0.53,0.9-0.96c0.31,0.43,0.47,0.94,0.72,1.41
		c0.25,0.47,0.63,0.91,1.14,1.01c0.92,0.17,1.64-0.8,1.9-1.69c0.44-1.51,0.3-3.12,0.04-4.67c-0.37-2.15-0.99-4.27-2.01-6.32
		c1.85,0.69,3.03,2.54,3.61,4.42c0.58,1.89,0.68,3.88,1.14,5.8c0.17,0.73,0.61,1.6,1.35,1.52c0.58-0.06,0.91-0.68,1.08-1.24
		c0.81-2.67,0.29-5.53-0.23-8.27c1.59,1.49,2.62,3.46,3.74,5.32c0.22,0.37,0.46,0.75,0.81,1.01c0.35,0.25,0.85,0.35,1.23,0.13
		c0.44-0.27,0.54-0.87,0.54-1.39c0-3.31-2-6.27-4.22-8.73c-1.93-2.13-4.1-4.07-6.6-5.49c-2.5-1.42-5.35-2.3-8.16-2.26
		c-3.21-0.43-6.41-0.86-9.62-1.3c-0.57-0.08-1.17-0.15-1.68,0.12c-0.32,0.17-0.57,0.45-0.79,0.73
		C54.63,181.9,53.43,185.81,53.78,189.46z"/>
</g>
<g>
	<path d="M72.07,200.33c-0.92,0-1.68-0.78-2.16-2.2l-0.08-0.24c-0.52-1.55-1.06-3.16-2.12-4.33c-1.04-1.15-2.6-2.01-4.65-2.56
		c-2.3-0.62-5.03-0.71-6.84-0.78c-0.61-0.02-1.13-0.04-1.51-0.07c-0.27-0.02-0.47-0.26-0.45-0.53c0.02-0.27,0.26-0.47,0.53-0.45
		c0.35,0.03,0.87,0.05,1.46,0.07c1.85,0.06,4.66,0.16,7.06,0.81c2.23,0.6,3.96,1.56,5.13,2.85c1.2,1.33,1.77,3.03,2.32,4.68
		l0.08,0.24c0.16,0.48,0.61,1.59,1.29,1.53c0.17-0.02,0.31-0.09,0.43-0.24c0.29-0.36,0.41-1.09,0.32-1.83
		c-0.3-2.36-1.1-4.7-2.3-6.75c-0.14-0.23-0.06-0.54,0.18-0.67c0.23-0.14,0.54-0.06,0.67,0.18c1.27,2.17,2.1,4.63,2.42,7.12
		c0.1,0.8,0.02,1.89-0.53,2.57c-0.28,0.35-0.66,0.56-1.1,0.6C72.17,200.33,72.12,200.33,72.07,200.33z"/>
</g>
<g>
	<path d="M75.47,201.69c-0.42,0-0.84-0.17-1.15-0.4c-0.65-0.49-1.16-1.73-1.41-3.4c-0.04-0.27,0.14-0.52,0.41-0.56
		c0.27-0.04,0.52,0.14,0.56,0.41c0.27,1.77,0.78,2.57,1.03,2.77c0.22,0.17,0.59,0.27,0.81,0.13c0.23-0.15,0.33-0.54,0.39-0.91
		c0.64-3.68,0.08-7.51-1.63-11.08c-0.09-0.19-0.05-0.42,0.1-0.57c0.15-0.15,0.38-0.18,0.57-0.08c1.64,0.88,3.01,2.5,3.85,4.56
		c0.76,1.86,1.05,3.86,1.24,5.74c0.04,0.38,0.08,0.73,0.22,1c0.11,0.21,0.33,0.35,0.48,0.32c0.2-0.03,0.39-0.33,0.53-0.83
		c1.18-4.18,0.23-8.57-2.54-11.74c-0.18-0.2-0.16-0.51,0.05-0.69c0.2-0.18,0.51-0.16,0.69,0.05c2.99,3.42,4.02,8.16,2.75,12.66
		c-0.26,0.91-0.7,1.42-1.31,1.53c-0.67,0.11-1.24-0.33-1.51-0.82c-0.24-0.44-0.29-0.93-0.34-1.36c-0.19-1.82-0.46-3.73-1.17-5.48
		c-0.5-1.22-1.19-2.26-2.02-3.05c1.23,3.27,1.58,6.7,1,10.01c-0.1,0.57-0.28,1.21-0.83,1.57C76.01,201.63,75.74,201.69,75.47,201.69
		z"/>
</g>
<g>
	<path d="M87.14,197.97c-0.05,0-0.1,0-0.15-0.01c-0.6-0.08-0.95-0.6-1.07-0.8l-0.02-0.04c-0.45-0.63-0.84-1.19-1.2-1.69
		c-1.56-2.2-2.27-3.21-3.39-4.47c-0.18-0.2-0.16-0.51,0.04-0.69c0.2-0.18,0.51-0.16,0.69,0.04c1.16,1.3,1.93,2.39,3.46,4.55
		c0.35,0.5,0.75,1.05,1.19,1.68c0.01,0.02,0.03,0.04,0.05,0.07c0.06,0.09,0.22,0.34,0.38,0.36c0.09,0.01,0.24-0.06,0.4-0.21
		c0.17-0.16,0.3-1.07,0.21-1.55c-0.8-4.58-3.97-8.05-8.48-11.86c-1.48-1.25-2.88-2.11-4.25-2.62c-1.5-0.55-3.14-0.75-4.72-0.95
		c-1.8-0.22-3.65-0.39-5.44-0.55c-1.8-0.17-3.66-0.34-5.48-0.56c-0.27-0.03-0.46-0.28-0.43-0.55c0.03-0.27,0.28-0.46,0.55-0.43
		c1.81,0.22,3.66,0.39,5.45,0.56c1.8,0.17,3.65,0.34,5.47,0.56c1.64,0.2,3.34,0.41,4.94,1c1.49,0.55,2.97,1.46,4.55,2.79
		c4.67,3.94,7.96,7.56,8.81,12.44c0.09,0.5,0.06,1.92-0.52,2.44C87.84,197.82,87.49,197.97,87.14,197.97z"/>
</g>
<g>
	<path class="st0" d="M55.56,175.67c-4.11-0.38-8.22-0.69-12.32-1.05c-1.99-0.18-3.98-0.42-5.97-0.56
		c-0.88-0.06-1.75-0.12-2.63-0.19c0.01,0.17,0.02,0.34,0.04,0.51c-2.86-0.12-5.88-0.22-9.15-0.33c0.31-1.48,0.71-3.2,1.15-5.07
		c-1.04,0-2.09-0.01-3.13-0.02c-6.61-0.04-13.22,0.01-19.82,0.2c-0.8,3.3-1.5,6.33-2.08,8.82c-0.8,3.46-1.58,7.17-0.3,10.49
		c0.47,1.21,1.24,2.34,2.34,3.01c1.47,0.89,3.3,0.85,5.02,0.8c15.31-0.49,30.65-0.23,46.25,0.29c-0.21-1.87-0.12-3.72,0.42-5.54
		c0.49-1.65,1.12-3.28,1.88-4.82c0.73-1.47,1.76-2.8,2.86-4.01c0.62-0.67,1.27-1.31,1.95-1.93
		C59.9,176.06,57.73,175.87,55.56,175.67z"/>
</g>
<g>
	<path d="M131.05,99.85c-0.04-0.1-0.11-0.17-0.2-0.22c-0.03-0.01-0.06-0.02-0.09-0.03c-0.14-0.03-0.28,0.01-0.37,0.1l-0.06,0.06
		c0,0.06,0,0.13-0.01,0.19c0,0.04-0.01,0.07-0.01,0.11c0,0.1-0.01,0.21-0.02,0.32c0,0.09-0.01,0.18-0.02,0.27
		c-0.01,0.11-0.01,0.22-0.02,0.34c-0.01,0.08-0.01,0.15-0.02,0.23c-0.06,0.9-0.13,1.81-0.19,2.71c-0.01,0.17-0.02,0.34-0.04,0.51
		c-0.07,0.97-0.14,1.93-0.22,2.9c-0.01,0.15-0.03,0.3-0.04,0.45c-0.13,1.66-0.27,3.32-0.43,4.99c-0.01,0.1-0.02,0.21-0.03,0.31
		c0,0.04-0.01,0.09-0.01,0.13c-0.01,0.11-0.03,0.22-0.04,0.34c0,0.04,0,0.07-0.01,0.11c-0.01,0.12-0.01,0.24-0.03,0.36
		c-1.11,11.4-2.86,22.8-6.34,33.75c-1.47,4.61-3.66,10.5-7.62,15.12c-4,4.66-9.44,7.36-14.57,7.21c-5.47-0.15-9.06-1.58-12.37-8.67
		c-0.11-0.24-0.41-0.35-0.65-0.23c-0.25,0.11-0.35,0.4-0.24,0.65c0.01,0.02,0.02,0.03,0.02,0.05c3.51,7.47,7.5,9.03,13.21,9.19
		c5.42,0.15,11.16-2.68,15.34-7.56c4.08-4.76,6.32-10.76,7.81-15.46c3.59-11.28,5.35-22.99,6.46-34.69
		c0.01-0.12,0.02-0.23,0.04-0.34c0.01-0.14,0.02-0.27,0.03-0.41c0-0.01,0.01-0.02,0.01-0.02c0.01-0.1,0.02-0.18,0.02-0.28
		c0-0.01,0.01-0.01,0.01-0.02c0.06-0.76,0.13-1.52,0.19-2.27c0.01-0.09,0.02-0.18,0.02-0.27v-0.04c0.05-0.48,0.09-0.95,0.13-1.42
		c0-0.06,0.01-0.11,0.01-0.17c0.14-1.72,0.27-3.41,0.39-5.12c0.01-0.08,0.01-0.15,0.02-0.23c0.05-0.64,0.09-1.3,0.14-1.94
		c0-0.05,0.01-0.09,0.01-0.14C131.23,100.42,131.16,100.13,131.05,99.85z M112.96,98.74h0.01c0.05,0.01,0.1,0.02,0.15,0.03
		l0.02,0.01c0.02,0,0.04,0.01,0.06,0.01c0.09,0.02,0.19,0.04,0.28,0.06c-0.26-0.17-0.5-0.35-0.72-0.53c-0.01,0-0.01,0-0.01,0
		c-0.17-0.14-0.32-0.27-0.47-0.42c-0.01,0-0.01-0.01-0.01-0.01c-0.02,0-0.02-0.01-0.02-0.02c-0.2-0.18-0.38-0.38-0.53-0.57
		c-0.05-0.05-0.09-0.11-0.12-0.16c-0.04-0.05-0.06-0.11-0.08-0.16c0-0.01,0-0.01-0.02-0.02v-0.01c0-0.01,0-0.01-0.01-0.02
		c0-0.03-0.01-0.07-0.04-0.09c-0.04-0.05-0.08-0.09-0.14-0.12c-0.05-0.03-0.1-0.05-0.15-0.06c-0.21,0.85-0.41,1.7-0.58,2.55
		c0,0.71-0.01,1.41-0.03,2.12c0,0-0.01,0.01,0,0.02c-0.02,1.03-0.06,2.08-0.12,3.12c0,0.02-0.01,0.04-0.01,0.06
		c-0.03,0.72-0.08,1.44-0.14,2.16c0,0-0.01,0.01,0,0.02c-0.04,0.53-0.08,1.06-0.14,1.59v0.01c-0.02,0.28-0.05,0.56-0.08,0.84
		c0,0.04-0.01,0.09-0.01,0.13c-0.01,0.19-0.03,0.37-0.06,0.56c-0.01,0.17-0.03,0.33-0.06,0.5c-1.06,9.47-3.45,19.03-7.14,28.53
		c-2.46-2.99-4.41-5.64-6.3-8.22c-2.56-3.48-4.98-6.77-8.28-10.38c-1.67-1.82-6.13-6.14-11.41-6.91c-3.47-0.5-8.27-0.45-15.1,0.17
		c-0.2,0.02-0.36,0.15-0.42,0.33c-0.83,2.48-2.31,4.22-4.28,5.04c-2.14,0.88-4.43,0.66-5.97,0.32c-2.1-0.45-4.47-1.71-4.84-3.86
		c-0.03-0.13-0.1-0.25-0.21-0.32c-0.12-0.08-0.26-0.1-0.39-0.07c-10.4,2.45-19.54,5.02-25.99,11.77c-2.74,2.86-4.97,6.46-7.24,11.66
		c-4.43,10.13-9.35,31.45-11.2,39.47c-0.74,3.21-1.66,7.21-0.28,10.78c0.4,1.02,1.16,2.41,2.55,3.25c1.63,0.99,3.66,0.92,5.29,0.87
		c13.32-0.43,27.64-0.34,46.43,0.3c0.01,0,0.02,0,0.02,0c0.17,0,0.32-0.09,0.41-0.23c0.1-0.15,0.11-0.33,0.03-0.49
		c-0.14-0.28-0.24-0.62-0.31-1c-0.08-0.49-0.1-1.05-0.06-1.66c0.09-1.8,0.64-3.99,1.37-5.8l0.09-0.22c0.96-2.37,2.03-5.01,4.77-6.18
		c0.35-0.16,0.72-0.29,1.13-0.39c0.23-0.06,0.38-0.27,0.37-0.5c-0.01-0.24-0.19-0.43-0.43-0.46c-9.56-1.23-17.16-1.8-27.42-2.23
		c0.01-0.04,0.01-0.08,0-0.12c-0.43-5.11-0.86-9.57-1.29-13.87c-0.42-4.31-0.86-8.76-1.29-13.87c-0.02-0.24-0.22-0.43-0.46-0.44
		s-0.47,0.16-0.51,0.4c-0.7,3.88-2.19,9.9-3.63,15.73c-1.14,4.61-2.22,8.97-2.9,12.21c-0.03,0.14,0.01,0.29,0.1,0.41
		c0.09,0.11,0.22,0.18,0.37,0.18c3.34,0.11,6.38,0.22,9.21,0.33c9.7,0.41,17,0.92,25.75,2c-2.66,1.44-3.76,4.17-4.68,6.44
		l-0.09,0.21c-0.75,1.85-1.34,4.13-1.44,6.11c-0.05,0.9,0.01,1.73,0.2,2.43c-18.46-0.61-32.6-0.69-45.77-0.27
		c-1.58,0.05-3.37,0.11-4.75-0.73c-1.15-0.7-1.8-1.89-2.14-2.77c-1.28-3.29-0.39-7.12,0.32-10.2c1.85-8,6.75-29.25,11.14-39.3
		c2.22-5.09,4.39-8.59,7.05-11.37c6.17-6.45,14.98-9.01,25.03-11.38c0.7,2.31,3.23,3.65,5.48,4.14c2.41,0.53,4.68,0.4,6.55-0.38
		c2.16-0.89,3.79-2.72,4.73-5.32c6.59-0.58,11.22-0.63,14.56-0.14c4.97,0.72,9.22,4.85,10.82,6.6c3.27,3.56,5.68,6.83,8.22,10.29
		c2.03,2.77,4.14,5.63,6.87,8.91c0.11,0.14,0.28,0.2,0.45,0.18c0.17-0.03,0.32-0.15,0.38-0.31c3.83-9.69,6.32-19.43,7.45-29.09
		c0.02-0.14,0.04-0.29,0.05-0.43c0.01-0.1,0.03-0.2,0.03-0.3c0.01-0.04,0.02-0.09,0.02-0.13c0.01-0.12,0.03-0.23,0.03-0.35
		c0.03-0.17,0.04-0.35,0.05-0.52c0.38-3.6,0.55-7.18,0.53-10.75c0.1,0.07,0.21,0.13,0.33,0.19l0.01,0.01
		c0.29,0.14,0.59,0.27,0.93,0.37c0.1,0.04,0.21,0.07,0.32,0.1l-0.01-0.01c-0.06-0.04-0.12-0.08-0.18-0.12
		c-0.12-0.08-0.24-0.17-0.35-0.26c-0.01-0.01-0.01-0.01-0.02-0.01c-0.02-0.02-0.04-0.04-0.06-0.06c0.11,0.02,0.22,0.04,0.32,0.07
		C112.89,98.72,112.93,98.73,112.96,98.74z M28.9,161.97c1.07-4.35,2.18-8.81,2.96-12.42c0.33,3.73,0.67,7.14,1,10.46
		c0.42,4.3,0.86,8.75,1.29,13.86c-2.5-0.1-5.15-0.2-8.03-0.29C26.8,170.42,27.82,166.31,28.9,161.97z"/>
</g>
<g>
	<path d="M63.42,178.98c-0.02,0-0.05,0-0.07-0.01c-0.27-0.04-0.45-0.29-0.42-0.56c0.06-0.4-0.05-0.82-0.28-1.15
		c-0.1-0.13-0.2-0.19-0.23-0.2c-0.26,0.07-0.53-0.08-0.6-0.35c-0.07-0.26,0.09-0.53,0.35-0.6c0.44-0.12,0.93,0.1,1.28,0.57
		c0.39,0.53,0.56,1.22,0.46,1.87C63.87,178.81,63.66,178.98,63.42,178.98z"/>
</g>
<g>
	<path d="M56.12,193.41c-0.6,0-1.28-0.27-1.54-0.91c-0.1-0.25,0.02-0.54,0.27-0.64c0.25-0.1,0.54,0.02,0.64,0.27
		c0.09,0.22,0.44,0.33,0.73,0.29c0.63-0.07,1.19-0.55,1.66-1.02c0.53-0.53,1.03-1.09,1.48-1.68c0.16-0.22,0.47-0.26,0.69-0.09
		c0.22,0.16,0.26,0.47,0.09,0.69c-0.48,0.63-1.01,1.23-1.57,1.78c-0.59,0.59-1.32,1.2-2.24,1.3
		C56.26,193.41,56.19,193.41,56.12,193.41z"/>
</g>
<g>
	<path d="M51.78,124.19c-3.37,0-6.71-1.95-8.31-4.92c-0.13-0.24-0.04-0.54,0.2-0.67c0.24-0.13,0.54-0.04,0.67,0.2
		c1.54,2.85,4.87,4.65,8.1,4.37c0.27-0.03,0.51,0.18,0.53,0.45c0.02,0.27-0.18,0.51-0.45,0.53
		C52.27,124.18,52.03,124.19,51.78,124.19z"/>
</g>
<g>
	<path d="M43.86,124.67c-0.06,0-0.12-0.01-0.18-0.03c-1.55-0.6-2.75-2.04-3.06-3.67c-0.05-0.27,0.13-0.52,0.39-0.57
		c0.27-0.05,0.52,0.13,0.57,0.39c0.25,1.31,1.21,2.46,2.44,2.94c0.25,0.1,0.38,0.38,0.28,0.64
		C44.24,124.55,44.05,124.67,43.86,124.67z"/>
</g>
<g>
	<path d="M21.25,59.15c-0.05,0-0.1-0.01-0.14-0.02c-0.26-0.08-0.4-0.35-0.32-0.61c0.5-1.61,1.48-3.15,2.91-4.58
		c1.29-1.28,2.79-2.32,4.22-3.26c0.23-0.15,0.53-0.08,0.68,0.14c0.15,0.23,0.08,0.53-0.14,0.68c-1.39,0.91-2.85,1.92-4.07,3.13
		c-1.32,1.31-2.22,2.72-2.67,4.17C21.66,59.01,21.46,59.15,21.25,59.15z"/>
</g>
<g>
	<path d="M100.73,143.92c-0.11,0-0.21-0.03-0.3-0.1c-0.21-0.17-0.25-0.47-0.09-0.69c1.04-1.35,1.88-2.64,2.57-4.58
		c0.09-0.26,0.37-0.39,0.63-0.3c0.26,0.09,0.39,0.37,0.3,0.63c-0.74,2.06-1.62,3.43-2.72,4.85
		C101.02,143.85,100.88,143.92,100.73,143.92z"/>
</g>
<g>
	<path d="M19.93,174.98c-0.24,0-0.45-0.17-0.48-0.42c-0.04-0.27,0.14-0.52,0.41-0.56c2.44-0.37,4.57-0.49,7.34-0.39
		c0.27,0.01,0.48,0.24,0.47,0.51c-0.01,0.27-0.23,0.49-0.51,0.47c-2.71-0.09-4.78,0.02-7.16,0.38
		C19.97,174.98,19.95,174.98,19.93,174.98z"/>
</g>
<g>
	<path d="M32.13,88.6c-0.19,0-0.37-0.11-0.45-0.3c-0.62-1.44-0.95-3.03-0.94-4.59c0-0.27,0.22-0.49,0.49-0.49c0,0,0,0,0,0
		c0.27,0,0.49,0.22,0.49,0.49c0,1.43,0.29,2.89,0.86,4.2c0.11,0.25-0.01,0.54-0.26,0.65C32.27,88.59,32.2,88.6,32.13,88.6z"/>
</g>
<g class="st2">
	<path d="M34.44,47.28c-0.41-0.08-0.8,0.1-1.18,0.21c-0.61,0.21-1.21,0.45-1.79,0.74c-3.48,1.55-6.38,4.14-8.68,7.15
		c-0.6,0.8-1.1,1.67-1.64,2.51c-0.29,0.53-0.72,1.06-0.72,1.68c-0.09,1.55,2.1,2.05,2.73,0.64c0.98-2.13,3.44-5.24,5.36-6.74
		c1.83-1.51,2.31-1.75,4.17-2.65c0.52-0.27,1.06-0.52,1.61-0.73c0.48-0.15,0.97-0.38,1.17-0.87C35.85,48.41,35.3,47.41,34.44,47.28z
		"/>
</g>
<g class="st2">
	<path d="M60.92,62.72c-0.33-0.27-0.81-0.3-1.19-0.11c-0.13,0.05-0.81,0.39-0.96,0.48c-1.05,0.53-2.09,1.1-3.17,1.55
		c-2.1,0.82-4.16,1.77-6.34,2.36c-2.59,0.85-4.99,1.31-8.17,1.73c-2.83,0.31-5.11,0.06-8.24-0.52c-0.52-0.06-1.12-0.34-1.6-0.01
		c-0.59,0.41-0.36,1.42,0.36,1.51c3.42,0.63,6.91,1.26,10.4,0.79c2.03-0.22,4.05-0.59,6.04-1.07c1.57-0.43,3.11-0.99,4.64-1.53
		c2.32-0.86,4.65-1.67,6.87-2.77c0.36-0.17,0.71-0.36,1.06-0.56c0.2-0.12,0.42-0.25,0.52-0.47C61.45,63.67,61.32,63.04,60.92,62.72z
		"/>
</g>
<g class="st2">
	<path d="M60.02,109.68c-0.12-0.42-0.24-0.84-0.36-1.26c-0.28-0.78-0.52-1.58-0.66-2.39c-0.21-0.76-0.41-1.51-0.62-2.27
		c-0.02-0.09-0.01-0.17,0.02-0.23c-0.02-0.06-0.04-0.11-0.06-0.17c-0.07-0.17,0-0.31,0.12-0.38c-0.53-0.38-1.22,0.14-1.78,0.39
		c-0.39,0.18-0.86,0.39-1.74,0.6c-0.71,0.19-2.98,0.3-3.64,0.44c-0.23,0.07-0.39,0.21-0.48,0.38c-0.39-0.17-0.79-0.34-1.18-0.51
		c-0.26-0.11-0.51-0.22-0.76-0.34c-0.61,0-1.22-0.02-1.82-0.07c0,0.07,0,0.15,0,0.22c0,0.09,0,0.18-0.01,0.28
		c-0.01,0.07-0.04,0.13-0.06,0.2c-0.08,0.25-0.17,0.49-0.24,0.74c0.05,0.04,0.11,0.09,0.17,0.12c2.26,1.15,4.59,2.18,6.82,3.4
		c1.11,0.62,2.23,1.22,3.35,1.81c0.49,0.22,0.97,0.53,1.5,0.63c-0.01,0-0.01,0-0.02,0c0.01,0,0.02,0,0.03,0.01
		c0.02,0,0.04,0.01,0.06,0.01c0.04,0.01,0.08,0.02,0.12,0.02c0.06,0.01,0.12,0.02,0.18,0.02c0.01,0,0.02,0,0.03,0c0,0-0.01,0-0.01,0
		c0.1,0,0.21-0.01,0.31-0.03c0.39-0.09,0.65-0.4,0.75-0.75c0.06-0.08,0.12-0.16,0.15-0.26C60.13,110.07,60.08,109.87,60.02,109.68z"
		/>
</g>
<g class="st2">
	<path d="M108.99,167.24c-0.48-0.05-0.36,0.05-0.67,0.13c-1.65,0.56-2.53,0.55-4.31,0.55c-2.05,0.09-4.6-0.73-6.03-1.33
		c-0.1-0.05-0.81-0.4-0.94-0.52c-0.19-0.1-0.89-0.62-1.08-0.76c-0.53-0.43-1.06-0.88-1.48-1.42c-0.01-0.01-0.01-0.01-0.01-0.02
		c-0.94-1.39-1.65-2.92-2.34-4.45c-0.02-0.04-0.03-0.08-0.05-0.13c-0.16-0.35-0.19-0.77-0.45-1.07c-0.12-0.16-0.26-0.28-0.42-0.35
		c-0.13,0.14-0.25,0.27-0.38,0.41c-0.01,0.08-0.05,0.15-0.12,0.22c-0.15,0.14-0.3,0.28-0.44,0.42c-0.8,0.94-1.54,1.93-2.23,2.94
		c0.02,0.11,0.05,0.23,0.12,0.34c0.39,0.64,0.83,1.24,1.29,1.83c1.07,2.33,2.57,4.54,5.12,5.27c1.7,0.49,3.48,0.71,5.23,0.92
		c1.07,0.09,2.13-0.09,3.19-0.14c0.79-0.02,1.59-0.06,2.38-0.03c0.48-0.03,0.99,0.06,1.44-0.11c0.39-0.13,0.6-0.54,0.59-0.94
		c0.39-0.1,0.77-0.21,1.14-0.36c0.27-0.13,0.61-0.18,0.8-0.42C109.61,167.9,109.41,167.34,108.99,167.24z"/>
</g>
<g class="st2">
	<path d="M63.85,177.55c-0.21-0.37-0.65-0.45-1.04-0.49c-0.65-0.05-1.31-0.13-1.96-0.06c-0.32,0.01-0.67,0.06-0.9,0.31
		c-0.28,0.26-0.34,0.64-0.25,0.98c-0.31,0.25-0.6,0.53-0.87,0.82c-1.4,1.54-2.4,3.41-3.14,5.35c-0.45,1.39-0.41,1.56-0.69,2.89
		c-0.36,1.85-0.47,3.5,0.05,4.71c0.76,1.26,2.12,0.62,3.01-0.13c0.14-0.1,0.27-0.2,0.41-0.31c0.5-0.35,0.87-0.86,0.55-1.47
		c-0.23-0.4-0.69-0.5-1.12-0.43c-0.39,0.02-0.82-0.03-1.11,0.28c-0.08,0.09-0.14,0.19-0.19,0.28c-0.01-0.04-0.01-0.06-0.02-0.08
		c0-0.02,0-0.03-0.01-0.05c-0.08-1.27,0.07-1.35,0.31-2.67c0.41-2.04,0.95-3.27,1.72-4.7c0.83-1.48,1.11-1.85,2.2-3.01
		c0.64-0.53,0.34-0.36,1-0.64c0.27-0.11,0.58-0.15,0.85-0.27c0.15-0.01,0.29-0.02,0.44-0.04c0.02,0,0.03-0.01,0.04-0.01
		C63.75,178.82,64.18,178.08,63.85,177.55z"/>
</g>
<g class="st2">
	<path d="M29.54,153.72c-0.7,0-0.76,0.79-0.92,1.3c-0.3,1.06-0.55,2.13-0.86,3.18c-0.79,2.97-1.97,5.59-2.64,7.18
		c-0.25,0.7-1.88,3.94-2.74,5.5c-0.25,0.47-0.5,0.95-0.78,1.41c-0.17,0.3-0.43,0.6-0.43,0.96c-0.06,0.38,0.02,0.72,0.2,0.98
		c1.03-0.21,2.1-0.24,3.15-0.25c0.06-0.04,0.12-0.09,0.18-0.14c1.3-1.09,1.79-2.79,2.18-4.38c0.11-0.43,0.19-0.86,0.28-1.29
		c0.07-0.26,0.11-0.54-0.04-0.77c-0.07-0.12-0.17-0.21-0.29-0.28c0.74-2.14,1.43-4.29,2.13-6.44c0.48-1.57,0.74-3.19,1.05-4.8
		c0.07-0.51,0.26-1.02,0.25-1.53C30.23,153.99,29.89,153.72,29.54,153.72z"/>
</g>
<g class="st2">
	<path d="M66.26,192.02c-1.12-0.44-2.5-1.4-4.41-1.56c0.07,0.01,0.12,0.02,0.16,0.02c-0.15-0.02-0.44-0.04-0.58-0.02
		c-0.49,0.01-1,0.1-1.41,0.39c-0.85,0.66-1.8,1.85-2.05,1.89c-0.01,0.01-0.01,0.01-0.02,0.02c-0.12,0.07-0.24,0.14-0.37,0.2
		c-0.26,0.09-0.52,0.16-0.78,0.21c-1.33,0.08-2.66-0.14-3.98-0.25c-1.39-0.15-2.79-0.15-4.18-0.25c-1.57-0.1-3.13-0.28-4.7-0.41
		c-2.81-0.33-5.64-0.23-8.46-0.37c-2.24-0.16-4.47-0.03-6.71-0.07c-3.84-0.02-7.83,0.16-11.67,0.4c-2.57,0.22-8.16,0.44-10.39-0.27
		c-0.6-0.11-1.23-0.6-1.83-0.28c-0.62,0.34-0.5,1.36,0.2,1.53c1.76,0.63,3.56,1.08,5.43,1.22c1.44,0.21,4.57,0.29,6.9,0.13
		c2.17-0.16,4.36-0.13,6.53-0.25c2.34-0.18,4.68-0.06,7.01,0.03c1.4,0.02,2.8-0.02,4.21,0.05c1.98,0.1,3.96,0.05,5.93,0.11
		c2.72,0.17,5.44,0.48,8.17,0.62c1.32,0.06,2.64,0.07,3.95,0.23c1.77,0.19,3.63,0.31,5.31-0.37c1.12-0.38,1.84-1.35,2.63-2.17
		c0.03,0,0.06,0,0.08,0c0.73,0.16,0.48,0.03,1.63,0.37c2.43,0.67,3.9,1.48,5.57,3.03c0.61,0.66,0.37,0.34,0.72,0.94
		c0.11,0.23,0.2,0.49,0.43,0.62c0.67,0.59,1.81,0.01,1.78-0.87C71.05,194.86,67.97,192.9,66.26,192.02z"/>
</g>
<path class="st3" d="M130.78,100.49c-0.05-0.06-0.1-0.13-0.16-0.19c-0.08-0.1-0.16-0.2-0.26-0.29c-0.01-0.02-0.02-0.04-0.04-0.05
	c0-0.01,0-0.01,0-0.01c-0.04-0.03-0.06-0.06-0.09-0.09c-0.55-0.58-1.15-1.06-1.79-1.46c-0.14-0.09-0.29-0.18-0.44-0.26
	c-0.15-0.09-0.3-0.16-0.45-0.24c-3.57-1.77-8.07-1.47-11.44-1.17c-0.17,0.02-0.34,0.03-0.5,0.05c-0.17,0.02-0.34,0.03-0.51,0.05
	c-1.26,0.12-2.31,0.2-3.01,0.12c-0.19-0.03-0.36-0.06-0.5-0.11c-0.01-0.01-0.03-0.02-0.04-0.02c-0.01-0.01-0.02-0.01-0.03-0.01
	c-0.01-0.01-0.01-0.01-0.01-0.01c-0.14-0.07-0.33-0.3-0.3-0.27c0.03,0.03,0-0.01,0-0.01"/>
<g>
	<path class="st0" d="M132.73,88.37c-2.74,3.31-4.3,7.14-5.05,11.38c-0.69,3.88-1.42,7.56-2.19,11.06l-0.46-0.2l-11.36-5.02
		l-0.43-0.19c1.46-4.4,2.45-8.21,2.64-10.41c0.26-3.02-2.14-9.1-2.6-13.2c-0.5-4.52-1.03-6.4,0.48-7.44
		c1.41-0.96,2.73,5.94,4.36,8.49c2.01-2.44,2.36-4.59,3.73-7.44c0.91-1.88,3.65-8.15,5.16-7.32c2.15,1.18-2.56,7.99-2.89,11.72
		c2.97-3.13,5.99-12.59,7.91-11.31c2.46,1.64-2.99,6.72-4.64,14.39c4.18-4.67,6.32-11.58,7.81-10.64c2.32,1.45-2.73,8.16-5.25,13.39
		c2.33-1.42,7.62-8.22,8.5-7.21C139.37,79.48,138.57,81.33,132.73,88.37z"/>
	<path d="M138.81,78.11c-0.15-0.17-0.36-0.27-0.59-0.27c-0.91-0.03-2.32,1.37-4.73,3.84c-0.67,0.69-1.35,1.39-1.98,2
		c0.43-0.79,0.89-1.59,1.34-2.37c2.51-4.39,4.67-8.18,2.61-9.48c-0.25-0.16-0.53-0.2-0.81-0.13c-0.92,0.23-1.77,1.72-3.04,3.98
		c-0.87,1.54-1.9,3.37-3.15,5.08c0.81-2.49,1.93-4.65,2.88-6.46c1.54-2.95,2.65-5.08,0.95-6.21c-0.29-0.19-0.62-0.25-0.95-0.16
		c-1.18,0.3-2.28,2.33-3.98,5.62c-0.72,1.4-1.46,2.83-2.2,4.02c0.34-0.99,0.79-2.04,1.23-3.08c1.35-3.18,2.51-5.92,0.84-6.83
		c-0.27-0.15-0.59-0.18-0.91-0.07c-1.46,0.47-3.15,3.84-4.61,6.95c-0.12,0.25-0.23,0.48-0.31,0.66c-0.46,0.94-0.8,1.8-1.12,2.62
		c-0.59,1.48-1.1,2.78-2.1,4.14c-0.48-0.95-0.95-2.26-1.4-3.54c-0.94-2.66-1.57-4.3-2.47-4.59c-0.28-0.1-0.58-0.05-0.84,0.13
		c-1.52,1.04-1.32,2.7-0.91,6c0.07,0.57,0.15,1.2,0.22,1.9c0.21,1.81,0.78,4,1.34,6.12c0.69,2.63,1.4,5.36,1.26,6.98
		c-0.05,0.52-0.14,1.15-0.28,1.87c-0.14,0.74-0.33,1.56-0.56,2.47c-0.02,0.07-0.04,0.14-0.06,0.22c-0.01,0.05-0.03,0.11-0.05,0.17
		c-0.01,0.04-0.02,0.09-0.04,0.14c-0.01,0.08-0.04,0.16-0.07,0.25c-0.41,1.54-0.94,3.28-1.54,5.13l0.45,0.2l0.43,0.19
		c0.6-1.8,1.12-3.5,1.53-5.03c0.04-0.14,0.08-0.27,0.11-0.4c0.04-0.13,0.07-0.26,0.1-0.38c0.31-1.15,0.55-2.18,0.71-3.06
		c0.13-0.65,0.21-1.21,0.25-1.69c0.16-1.79-0.55-4.47-1.29-7.31c-0.55-2.08-1.11-4.24-1.31-5.98c-0.08-0.7-0.15-1.33-0.23-1.91
		c-0.39-3.23-0.48-4.39,0.5-5.07c0.48,0.2,1.32,2.56,1.82,3.98c0.58,1.63,1.18,3.32,1.84,4.36c0.09,0.13,0.23,0.22,0.39,0.23
		c0.16,0.01,0.31-0.06,0.41-0.18c1.41-1.7,2.04-3.29,2.7-4.97c0.32-0.82,0.66-1.66,1.09-2.57c0.09-0.18,0.2-0.4,0.32-0.66
		c0.78-1.65,2.84-6.05,4.03-6.44c0.08-0.03,0.11-0.01,0.13,0c0.89,0.48-0.31,3.31-1.28,5.58c-0.84,2-1.72,4.07-1.86,5.67
		c-0.01,0.2,0.1,0.4,0.29,0.49c0.19,0.08,0.42,0.04,0.56-0.11c1.3-1.37,2.55-3.8,3.76-6.15c1.19-2.3,2.54-4.91,3.36-5.12
		c0.06-0.02,0.1-0.01,0.15,0.03c0.93,0.61,0.16,2.19-1.27,4.93c-1.25,2.4-2.81,5.38-3.57,8.95c-0.05,0.22,0.06,0.44,0.25,0.54
		c0.2,0.1,0.44,0.06,0.59-0.11c1.99-2.22,3.51-4.9,4.73-7.06c0.94-1.66,1.91-3.37,2.42-3.5c0.02-0.01,0.02-0.01,0.04,0
		c1.27,0.8-0.96,4.71-2.94,8.16c-0.88,1.54-1.79,3.13-2.5,4.6c-0.09,0.2-0.05,0.44,0.12,0.58c0.16,0.15,0.39,0.17,0.58,0.06
		c1.02-0.62,2.47-2.11,4.01-3.69c1.31-1.35,3.28-3.37,3.93-3.54c0.61,0.93-0.94,3.4-5.79,9.24c-2.3,2.78-3.88,6.01-4.79,9.83
		c-0.14,0.58-0.26,1.17-0.37,1.77c-0.12,0.68-0.24,1.36-0.37,2.03c-0.01,0.07-0.02,0.13-0.04,0.2c-0.02,0.13-0.04,0.27-0.07,0.4
		c-0.02,0.14-0.05,0.28-0.08,0.42c-0.51,2.74-1.05,5.37-1.6,7.9l0.46,0.2l0.45,0.2c0.6-2.73,1.18-5.56,1.73-8.51
		c0.03-0.14,0.06-0.29,0.08-0.44c0.03-0.14,0.06-0.28,0.08-0.42c0.02-0.08,0.03-0.16,0.04-0.24c0.1-0.52,0.2-1.04,0.29-1.57
		c0.09-0.49,0.18-0.97,0.29-1.44c0.87-3.79,2.4-6.97,4.66-9.7C138.89,81.72,140.06,79.54,138.81,78.11z"/>
</g>
<g>
	<path class="st1" d="M130.55,103.74c-0.29,1.3-0.58,2.7-0.31,4.09c0.01,0.05,0.02,0.11,0.03,0.16c0,0,0,0,0,0.01
		c0.02,0.09,0.03,0.18,0.06,0.28c0.1,0.34,0.18,0.86,0.23,1.46v0.04c0.01,0.02,0.01,0.05,0.01,0.07c0.07,0.89,0.04,1.87-0.21,2.45
		c0,0-0.01,0.01-0.01,0.02s-0.01,0.01-0.01,0.02c-0.06,0.12-0.11,0.22-0.19,0.3c-0.1,0.1-0.21,0.2-0.32,0.28
		c-0.01,0.01-0.03,0.02-0.04,0.03c-0.16,0.11-0.3,0.19-0.47,0.25c-0.02,0.01-0.03,0.02-0.05,0.02c-0.65,0.3-1.4,0.39-2.1,0.45
		c-3.68,0.33-7.58,0.58-10.87-1.3c-0.68-0.38-1.32-0.86-2.04-1.18c-0.81-0.36-1.71-0.52-2.48-0.92c-0.15-0.07-0.3-0.17-0.44-0.26
		V110c-0.12-0.08-0.25-0.18-0.36-0.29c-0.03-0.02-0.05-0.05-0.07-0.07c-0.14-0.14-0.26-0.3-0.36-0.46
		c-0.18-0.27-0.32-0.56-0.41-0.87v-0.01c-0.38-1.17-0.27-2.61-0.09-3.88c0.14-1.03,0.31-2.05,0.5-3.07c-0.01-0.01,0-0.02,0-0.02
		c0.16-0.89,0.34-1.77,0.53-2.64v-0.01c0.05-0.22,0.1-0.43,0.15-0.65c0.04-0.17,0.07-0.33,0.12-0.49c0.04-0.21,0.09-0.41,0.14-0.61
		c0.01-0.05,0.02-0.09,0.04-0.14c0-0.02,0.01-0.04,0.01-0.06c0,0.01,0.01,0.02,0.02,0.03c0,0.01,0,0.01,0.01,0.02
		c0.04,0.1,0.08,0.2,0.14,0.29c0.09,0.17,0.19,0.34,0.31,0.5c0.07,0.1,0.14,0.2,0.23,0.3c0,0.01,0,0.02,0.02,0.02
		c0.02,0.04,0.05,0.07,0.08,0.11c0,0,0,0.01,0.01,0.01c0.07,0.08,0.14,0.16,0.22,0.24c0,0.01,0.01,0.01,0.01,0.01
		c0.17,0.18,0.36,0.35,0.55,0.52c0.06,0.05,0.13,0.11,0.19,0.16h0.01c0.03,0.03,0.05,0.04,0.08,0.06c0.1,0.09,0.22,0.18,0.33,0.25
		c0.01,0.01,0.03,0.02,0.04,0.03h0.01c0.05,0.04,0.1,0.07,0.15,0.11h0.01c0.15,0.1,0.32,0.21,0.48,0.3
		c0.11,0.08,0.24,0.16,0.36,0.21c0.38,0.22,0.76,0.41,1.15,0.6c0.03,0.01,0.06,0.03,0.09,0.04c0.13,0.05,0.26,0.1,0.39,0.16
		c0.08,0.04,0.15,0.06,0.22,0.08c0.04,0.02,0.08,0.04,0.11,0.05c0.08,0.04,0.16,0.07,0.23,0.1c1.85,0.7,3.78,0.98,5.71,1.29
		c0.22,0.04,0.44,0.07,0.65,0.09c0.21,0.03,0.41,0.05,0.61,0.06c0.09,0.01,0.18,0.02,0.27,0.02c0.01,0.01,0.02,0.01,0.03,0
		c0.13,0.01,0.26,0.02,0.39,0.02c0.12,0.01,0.25,0.01,0.37,0.01h0.04c0.53,0,1.01-0.03,1.45-0.09c0.32-0.04,0.62-0.1,0.89-0.17
		c0.04-0.01,0.08-0.02,0.12-0.03c0.04-0.01,0.08-0.02,0.11-0.03c0.14-0.03,0.26-0.07,0.38-0.11c0.09-0.03,0.19-0.06,0.28-0.1
		c0.07-0.02,0.15-0.05,0.22-0.08c0.16-0.07,0.31-0.15,0.45-0.22c0.16-0.08,0.3-0.16,0.43-0.25c0,0,0.01,0,0.02-0.01
		c0.12-0.07,0.23-0.15,0.33-0.23c0.08-0.05,0.15-0.1,0.21-0.16c0.12-0.1,0.23-0.2,0.32-0.29c0.02-0.02,0.04-0.04,0.06-0.06
		c0.17-0.16,0.29-0.29,0.37-0.37c0.03,0.09,0.06,0.18,0.08,0.27v0.01c0.01,0.03,0.02,0.06,0.03,0.09c0,0.01,0,0.01,0,0.02
		c0.19,0.83,0.02,1.8-0.2,2.83c-0.02,0.09-0.04,0.18-0.06,0.28C130.55,103.72,130.55,103.73,130.55,103.74z"/>
	<path d="M130.27,100.65c-0.09,0.09-0.2,0.19-0.32,0.29c-0.06,0.06-0.13,0.11-0.21,0.16c-0.1,0.08-0.21,0.15-0.33,0.23
		c-0.01,0.01-0.02,0.01-0.02,0.01c-0.13,0.09-0.27,0.17-0.43,0.25c-0.14,0.07-0.29,0.15-0.45,0.22c-0.07,0.03-0.15,0.06-0.22,0.08
		c-0.09,0.04-0.19,0.07-0.28,0.1c-0.09,0.03-0.17,0.06-0.27,0.08c-0.03,0.01-0.07,0.02-0.11,0.03c-0.03,0.01-0.07,0.02-0.11,0.03
		c-0.04,0.01-0.08,0.02-0.12,0.03c-0.06,0.02-0.12,0.03-0.18,0.04c-0.16,0.04-0.34,0.08-0.52,0.1c-0.06,0.01-0.13,0.02-0.19,0.03
		c-0.44,0.06-0.92,0.09-1.45,0.09h-0.04c-0.12,0-0.25,0-0.37-0.01c-0.13,0-0.26-0.01-0.39-0.02c-0.01,0.01-0.02,0.01-0.03,0
		c-0.09,0-0.18-0.01-0.27-0.02c-0.2-0.01-0.4-0.03-0.61-0.06c-0.21-0.02-0.43-0.05-0.65-0.09c-1.93-0.31-3.86-0.59-5.71-1.29
		c-0.07-0.03-0.15-0.06-0.23-0.1c-0.03-0.01-0.07-0.03-0.11-0.05c-0.07-0.02-0.14-0.04-0.22-0.08c-0.13-0.06-0.26-0.11-0.39-0.16
		c-0.03-0.01-0.06-0.03-0.09-0.04c0.01-0.15,0.01-0.29-0.01-0.43c-0.19-0.09-0.37-0.18-0.54-0.28c-0.05-0.02-0.09-0.05-0.14-0.07
		l-0.12-0.07c-0.06-0.01-0.12-0.02-0.17-0.03c-0.17-0.02-0.33-0.06-0.49-0.1c-0.18-0.03-0.35-0.08-0.52-0.13h-0.01
		c-0.05-0.04-0.1-0.07-0.15-0.11h-0.01c-0.01-0.01-0.03-0.02-0.04-0.03c-0.11-0.07-0.23-0.16-0.33-0.25
		c-0.03-0.02-0.05-0.03-0.08-0.06h-0.01c-0.07-0.02-0.14-0.04-0.2-0.05c-0.18-0.05-0.36-0.1-0.52-0.17
		c-0.01-0.01-0.01-0.01-0.02-0.01c-0.06-0.03-0.11-0.05-0.16-0.08c-0.01-0.01-0.02-0.01-0.03-0.01c0.1,0.11,0.21,0.22,0.33,0.3
		l0.01,0.01c0.03,0.03,0.06,0.05,0.09,0.08c0.43,0.38,0.93,0.74,1.49,1.07c0.14,0.09,0.29,0.18,0.45,0.26
		c0.14,0.07,0.28,0.15,0.42,0.23c0.25,0.12,0.5,0.24,0.77,0.36c0.15,0.05,0.31,0.12,0.47,0.19c0.08,0.03,0.15,0.07,0.23,0.08
		c0.07,0.04,0.13,0.06,0.2,0.09c1.78,0.68,3.66,0.98,5.47,1.27l0.3,0.05c1.61,0.26,2.92,0.25,3.99,0.11
		c0.18-0.03,0.36-0.06,0.52-0.09c0.18-0.04,0.35-0.07,0.52-0.12c0.22-0.06,0.43-0.12,0.63-0.19c0.08-0.03,0.17-0.06,0.24-0.09
		c0.16-0.07,0.3-0.14,0.44-0.19c0.54-0.27,0.96-0.56,1.26-0.82c0.02-0.01,0.04-0.02,0.06-0.04c0.01-0.2,0.03-0.4,0.04-0.59
		C130.31,100.61,130.29,100.63,130.27,100.65z M130,104.44c-0.18,0.93-0.32,1.91-0.22,2.9c0,0.11,0.01,0.23,0.03,0.34
		c0.1-1.23,0.2-2.46,0.28-3.69C130.06,104.14,130.03,104.29,130,104.44z M130,104.44c-0.18,0.93-0.32,1.91-0.22,2.9
		c0,0.11,0.01,0.23,0.03,0.34c0.1-1.23,0.2-2.46,0.28-3.69C130.06,104.14,130.03,104.29,130,104.44z M116.04,100.54
		c-0.03-0.01-0.06-0.03-0.09-0.04c0.01-0.15,0.01-0.29-0.01-0.43c-0.19-0.09-0.37-0.18-0.54-0.28c-0.05-0.02-0.09-0.05-0.14-0.07
		l-0.12-0.07c-0.06-0.01-0.12-0.02-0.17-0.03c-0.17-0.02-0.33-0.06-0.49-0.1c-0.18-0.03-0.35-0.08-0.52-0.13h-0.01
		c-0.05-0.04-0.1-0.07-0.15-0.11h-0.01c-0.01-0.01-0.03-0.02-0.04-0.03c-0.11-0.07-0.23-0.16-0.33-0.25
		c-0.03-0.02-0.05-0.03-0.08-0.06h-0.01c-0.07-0.02-0.14-0.04-0.2-0.05c-0.18-0.05-0.36-0.1-0.52-0.17
		c-0.01-0.01-0.01-0.01-0.02-0.01c-0.06-0.03-0.11-0.05-0.16-0.08c-0.01-0.01-0.02-0.01-0.03-0.01c0.1,0.11,0.21,0.22,0.33,0.3
		l0.01,0.01c0.03,0.03,0.06,0.05,0.09,0.08c0.43,0.38,0.93,0.74,1.49,1.07c0.14,0.09,0.29,0.18,0.45,0.26
		c0.14,0.07,0.28,0.15,0.42,0.23c0.25,0.12,0.5,0.24,0.77,0.36c0.15,0.05,0.31,0.12,0.47,0.19v-0.42
		C116.3,100.64,116.17,100.59,116.04,100.54z M130,104.44c-0.18,0.93-0.32,1.91-0.22,2.9c0,0.11,0.01,0.23,0.03,0.34
		c0.1-1.23,0.2-2.46,0.28-3.69C130.06,104.14,130.03,104.29,130,104.44z M116.04,100.54c-0.03-0.01-0.06-0.03-0.09-0.04
		c0.01-0.15,0.01-0.29-0.01-0.43c-0.19-0.09-0.37-0.18-0.54-0.28c-0.05-0.02-0.09-0.05-0.14-0.07l-0.12-0.07
		c-0.06-0.01-0.12-0.02-0.17-0.03c-0.17-0.02-0.33-0.06-0.49-0.1c-0.18-0.03-0.35-0.08-0.52-0.13h-0.01
		c-0.05-0.04-0.1-0.07-0.15-0.11h-0.01c-0.01-0.01-0.03-0.02-0.04-0.03c-0.11-0.07-0.23-0.16-0.33-0.25
		c-0.03-0.02-0.05-0.03-0.08-0.06h-0.01c-0.07-0.02-0.14-0.04-0.2-0.05c-0.18-0.05-0.36-0.1-0.52-0.17
		c-0.01-0.01-0.01-0.01-0.02-0.01c-0.06-0.03-0.11-0.05-0.16-0.08c-0.01-0.01-0.02-0.01-0.03-0.01c0.1,0.11,0.21,0.22,0.33,0.3
		l0.01,0.01c0.03,0.03,0.06,0.05,0.09,0.08c0.43,0.38,0.93,0.74,1.49,1.07c0.14,0.09,0.29,0.18,0.45,0.26
		c0.14,0.07,0.28,0.15,0.42,0.23c0.25,0.12,0.5,0.24,0.77,0.36c0.15,0.05,0.31,0.12,0.47,0.19v-0.42
		C116.3,100.64,116.17,100.59,116.04,100.54z M130,104.44c-0.18,0.93-0.32,1.91-0.22,2.9c0,0.11,0.01,0.23,0.03,0.34
		c0.1-1.23,0.2-2.46,0.28-3.69C130.06,104.14,130.03,104.29,130,104.44z M116.04,100.54c-0.03-0.01-0.06-0.03-0.09-0.04
		c-0.22-0.11-0.43-0.21-0.65-0.33c-0.08-0.04-0.17-0.08-0.25-0.13c-0.06-0.03-0.11-0.06-0.17-0.1c-0.03-0.01-0.05-0.02-0.08-0.04
		c-0.12-0.05-0.25-0.13-0.36-0.21h-0.01c-0.16-0.09-0.32-0.2-0.47-0.3h-0.01c-0.14-0.04-0.27-0.08-0.39-0.13h-0.01
		c-0.13-0.04-0.25-0.09-0.37-0.14c-0.01,0-0.02,0-0.03-0.01l-0.01-0.01c-0.14-0.05-0.27-0.11-0.4-0.17
		c0.03,0.03,0.06,0.05,0.09,0.08c0.43,0.38,0.93,0.74,1.49,1.07c0.14,0.09,0.29,0.18,0.45,0.26c0.14,0.07,0.28,0.15,0.42,0.23
		c0.25,0.12,0.5,0.24,0.77,0.36c0.15,0.05,0.31,0.12,0.47,0.19v-0.42C116.3,100.64,116.17,100.59,116.04,100.54z M130,104.44
		c-0.18,0.93-0.32,1.91-0.22,2.9c0,0.11,0.01,0.23,0.03,0.34c0.1-1.23,0.2-2.46,0.28-3.69C130.06,104.14,130.03,104.29,130,104.44z
		 M129.78,107.34c0.08-0.97,0.15-1.93,0.22-2.9C129.82,105.37,129.68,106.35,129.78,107.34z M125.06,102.42h-0.04
		c-0.12,0-0.25,0-0.37-0.01c-0.13,0-0.26-0.01-0.39-0.02c-0.01,0.01-0.02,0.01-0.03,0c-0.09,0-0.18-0.01-0.27-0.02
		c-0.2-0.01-0.4-0.03-0.61-0.06c-0.21-0.02-0.43-0.05-0.65-0.09c-1.93-0.31-3.86-0.59-5.71-1.29c-0.07-0.03-0.15-0.06-0.23-0.1
		c-0.03-0.01-0.07-0.03-0.11-0.05c-0.07-0.02-0.14-0.04-0.22-0.08c-0.13-0.06-0.26-0.11-0.39-0.16c-0.03-0.01-0.06-0.03-0.09-0.04
		c-0.22-0.11-0.43-0.21-0.65-0.33c-0.03,0.13-0.07,0.26-0.11,0.4c0.25,0.12,0.5,0.24,0.77,0.36c0.15,0.05,0.31,0.12,0.47,0.19
		c0.08,0.03,0.15,0.07,0.23,0.08c0.07,0.04,0.13,0.06,0.2,0.09c1.78,0.68,3.66,0.98,5.47,1.27l0.3,0.05
		c1.61,0.26,2.92,0.25,3.99,0.11c0.03-0.14,0.06-0.28,0.08-0.42c-0.06,0.01-0.13,0.02-0.19,0.03
		C126.07,102.39,125.59,102.42,125.06,102.42z M113.97,99.62l-0.41-0.36h-0.01c-0.13-0.04-0.25-0.09-0.37-0.14
		c-0.01,0-0.02,0-0.03-0.01c-0.11-0.03-0.22-0.06-0.32-0.1c0.43,0.38,0.93,0.74,1.49,1.07c0.14,0.09,0.29,0.18,0.45,0.26
		c0.03-0.1,0.06-0.19,0.08-0.29l-0.46-0.22L113.97,99.62z M131.26,100.92c0-0.02,0-0.04-0.01-0.06c-0.03-0.27-0.09-0.53-0.19-0.77
		c-0.04-0.1-0.11-0.17-0.19-0.22c-0.01,0-0.03,0-0.04-0.01c-0.02,0-0.03,0-0.05-0.01c-0.13-0.03-0.27,0.01-0.35,0.09l-0.14,0.14
		c-0.23,0.24-0.64,0.68-1.34,1.08c-0.14,0.07-0.3,0.16-0.47,0.24c-0.06,0.03-0.13,0.05-0.2,0.08c-0.14,0.06-0.3,0.11-0.46,0.17
		c-0.16,0.05-0.34,0.1-0.53,0.15c-0.17,0.04-0.34,0.07-0.52,0.1c-1.04,0.18-2.35,0.21-4.02-0.06l-0.29-0.05
		c-1.66-0.27-3.39-0.55-5.01-1.12c-0.11-0.03-0.21-0.07-0.31-0.11c-0.17-0.06-0.34-0.13-0.5-0.2c-0.08-0.03-0.15-0.05-0.22-0.08
		c-0.15-0.06-0.3-0.14-0.44-0.19c-0.01-0.01-0.03-0.01-0.04-0.02c-0.19-0.09-0.37-0.18-0.54-0.28c-0.05-0.02-0.09-0.05-0.14-0.07
		l-0.12-0.07c-0.06-0.01-0.12-0.02-0.17-0.03c-0.17-0.02-0.33-0.06-0.49-0.1c-0.18-0.03-0.35-0.08-0.52-0.13h-0.01
		c-0.05-0.04-0.1-0.07-0.15-0.11h-0.01c-0.01-0.01-0.03-0.02-0.04-0.03c-0.11-0.07-0.23-0.16-0.33-0.25
		c-0.03-0.02-0.05-0.03-0.08-0.06c0.23,0.04,0.44,0.08,0.64,0.13c0.09,0.02,0.18,0.04,0.27,0.06c-0.25-0.16-0.48-0.34-0.69-0.51
		c-0.01,0-0.01,0-0.01,0c-0.38-0.31-0.72-0.64-0.99-0.97c-0.04-0.05-0.08-0.11-0.11-0.16c-0.04-0.04-0.07-0.07-0.1-0.11v-0.01
		c-0.03-0.04-0.05-0.09-0.08-0.13c-0.04-0.04-0.07-0.1-0.1-0.15c-0.03-0.05-0.05-0.09-0.08-0.14c-0.07-0.12-0.14-0.25-0.2-0.39
		c-0.02-0.05-0.06-0.1-0.1-0.14c-0.08-0.06-0.17-0.1-0.28-0.09c-0.13,0.01-0.24,0.09-0.3,0.19c0,0,0,0,0,0.01
		c-0.02,0.03-0.03,0.06-0.04,0.1c0,0.01-0.01,0.02-0.01,0.03c-0.21,0.85-0.41,1.7-0.58,2.55c-0.37,1.71-0.68,3.43-0.93,5.15
		c-0.21,1.54-0.33,3.4,0.41,4.79c0.12,0.21,0.26,0.42,0.44,0.61c0,0.01,0,0.01,0,0.01c0.03,0.05,0.08,0.09,0.12,0.14
		c0.08,0.08,0.15,0.15,0.23,0.21c0.03,0.02,0.05,0.05,0.08,0.07c0.11,0.1,0.24,0.18,0.36,0.25c0.14,0.09,0.29,0.17,0.44,0.24
		c0.41,0.2,0.84,0.34,1.27,0.48c0.4,0.12,0.75,0.24,1.09,0.39c0.44,0.19,0.86,0.45,1.29,0.72c0.24,0.15,0.48,0.3,0.73,0.45
		c2.14,1.21,4.51,1.57,7,1.57c1.34,0,2.71-0.11,4.09-0.23c0.71-0.07,1.41-0.15,2.02-0.39c0.02,0,0.04-0.01,0.06-0.02
		c0.16-0.06,0.31-0.13,0.46-0.22c0.01,0,0.03-0.01,0.04-0.02c0.18-0.09,0.34-0.21,0.5-0.36l0.01-0.01c0.04-0.04,0.09-0.07,0.14-0.12
		c0.86-0.88,0.54-3.75,0.29-4.73c-0.01-0.01-0.01-0.01-0.01-0.02s0-0.01-0.01-0.02c-0.4-1.42-0.08-2.89,0.23-4.3
		c0.05-0.28,0.11-0.56,0.16-0.82c0.01-0.04,0.02-0.08,0.03-0.12C131.25,102.21,131.33,101.54,131.26,100.92z M130.16,103.68
		c-0.02,0.11-0.05,0.2-0.07,0.31c-0.03,0.15-0.06,0.3-0.09,0.45c-0.18,0.93-0.32,1.91-0.22,2.9c0,0.11,0.01,0.23,0.03,0.34
		c0.03,0.23,0.08,0.47,0.15,0.7c0.07,0.24,0.12,0.53,0.16,0.85c0.01,0.05,0.01,0.09,0.02,0.14c0.14,1.16,0.1,2.6-0.27,2.99v0.01
		c-0.01,0.01-0.02,0.02-0.03,0.03c-0.14,0.14-0.3,0.26-0.47,0.35c-0.02,0.01-0.04,0.02-0.06,0.03c-0.61,0.34-1.35,0.42-2.17,0.5
		c-4,0.36-7.56,0.52-10.64-1.24c-0.24-0.14-0.48-0.29-0.71-0.43c-0.44-0.27-0.89-0.56-1.38-0.78c-0.38-0.16-0.77-0.3-1.17-0.42
		c-0.5-0.16-0.99-0.32-1.41-0.55c-0.16-0.09-0.3-0.19-0.43-0.29c-0.08-0.07-0.15-0.14-0.21-0.2s-0.11-0.12-0.16-0.18
		c-0.02-0.03-0.04-0.06-0.06-0.08c-0.14-0.19-0.26-0.41-0.35-0.63c-0.22-0.53-0.32-1.14-0.34-1.77c-0.01-0.01,0-0.02,0-0.02
		c-0.03-0.72,0.05-1.47,0.14-2.16c0-0.02,0.01-0.04,0.01-0.06c0.17-1.25,0.38-2.49,0.62-3.72v-0.03c0.13-0.68,0.27-1.36,0.42-2.03
		l0.08-0.38l0.12-0.51c0.01-0.01,0.01-0.02,0.01-0.03c0.01,0.02,0.03,0.04,0.05,0.06c0.01,0.01,0.01,0.02,0.03,0.03
		c0.05,0.07,0.11,0.16,0.18,0.24c0,0.01,0.02,0.03,0.04,0.05c0.11,0.15,0.23,0.28,0.36,0.42c0.01,0,0.03,0.02,0.04,0.03
		c0.01,0,0.01,0.01,0.02,0.02c0.1,0.11,0.21,0.22,0.33,0.3l0.01,0.01c0.03,0.03,0.06,0.05,0.09,0.08c0.43,0.38,0.93,0.74,1.49,1.07
		c0.14,0.09,0.29,0.18,0.45,0.26c0.14,0.07,0.28,0.15,0.42,0.23c0.25,0.12,0.5,0.24,0.77,0.36c0.15,0.05,0.31,0.12,0.47,0.19
		c0.08,0.03,0.15,0.07,0.23,0.08c0.07,0.04,0.13,0.06,0.2,0.09c1.78,0.68,3.66,0.98,5.47,1.27l0.3,0.05
		c1.61,0.26,2.92,0.25,3.99,0.11c0.18-0.03,0.36-0.06,0.52-0.09c0.18-0.04,0.35-0.07,0.52-0.12c0.22-0.06,0.43-0.12,0.63-0.19
		c0.08-0.03,0.17-0.06,0.24-0.09c0.16-0.07,0.3-0.14,0.44-0.19c0.54-0.27,0.96-0.56,1.26-0.82c0.02-0.01,0.04-0.02,0.06-0.04
		c0.07-0.07,0.14-0.13,0.2-0.19C130.57,101.78,130.37,102.72,130.16,103.68z M130,104.44c-0.18,0.93-0.32,1.91-0.22,2.9
		c0,0.11,0.01,0.23,0.03,0.34c0.1-1.23,0.2-2.46,0.28-3.69C130.06,104.14,130.03,104.29,130,104.44z M130,104.44
		c-0.18,0.93-0.32,1.91-0.22,2.9c0,0.11,0.01,0.23,0.03,0.34c0.1-1.23,0.2-2.46,0.28-3.69C130.06,104.14,130.03,104.29,130,104.44z
		 M116.04,100.54c-0.03-0.01-0.06-0.03-0.09-0.04c-0.22-0.11-0.43-0.21-0.65-0.33c-0.08-0.04-0.17-0.08-0.25-0.13
		c-0.06-0.03-0.11-0.06-0.17-0.1c-0.03-0.01-0.05-0.02-0.08-0.04c-0.12-0.05-0.25-0.13-0.36-0.21h-0.01
		c-0.16-0.09-0.32-0.2-0.47-0.3h-0.01c-0.14-0.04-0.27-0.08-0.39-0.13h-0.01c-0.13-0.04-0.25-0.09-0.37-0.14
		c-0.01,0-0.02,0-0.03-0.01l-0.01-0.01c-0.14-0.05-0.27-0.11-0.4-0.17c0.03,0.03,0.06,0.05,0.09,0.08c0.43,0.38,0.93,0.74,1.49,1.07
		c0.14,0.09,0.29,0.18,0.45,0.26c0.14,0.07,0.28,0.15,0.42,0.23c0.25,0.12,0.5,0.24,0.77,0.36c0.15,0.05,0.31,0.12,0.47,0.19v-0.42
		C116.3,100.64,116.17,100.59,116.04,100.54z M130,104.44c-0.18,0.93-0.32,1.91-0.22,2.9c0,0.11,0.01,0.23,0.03,0.34
		c0.1-1.23,0.2-2.46,0.28-3.69C130.06,104.14,130.03,104.29,130,104.44z M116.04,100.54c-0.03-0.01-0.06-0.03-0.09-0.04
		c0.01-0.15,0.01-0.29-0.01-0.43c-0.19-0.09-0.37-0.18-0.54-0.28c-0.05-0.02-0.09-0.05-0.14-0.07l-0.12-0.07
		c-0.06-0.01-0.12-0.02-0.17-0.03c-0.17-0.02-0.33-0.06-0.49-0.1c-0.18-0.03-0.35-0.08-0.52-0.13h-0.01
		c-0.05-0.04-0.1-0.07-0.15-0.11h-0.01c-0.01-0.01-0.03-0.02-0.04-0.03c-0.11-0.07-0.23-0.16-0.33-0.25
		c-0.03-0.02-0.05-0.03-0.08-0.06h-0.01c-0.07-0.02-0.14-0.04-0.2-0.05c-0.18-0.05-0.36-0.1-0.52-0.17
		c-0.01-0.01-0.01-0.01-0.02-0.01c-0.06-0.03-0.11-0.05-0.16-0.08c-0.01-0.01-0.02-0.01-0.03-0.01c0.1,0.11,0.21,0.22,0.33,0.3
		l0.01,0.01c0.03,0.03,0.06,0.05,0.09,0.08c0.43,0.38,0.93,0.74,1.49,1.07c0.14,0.09,0.29,0.18,0.45,0.26
		c0.14,0.07,0.28,0.15,0.42,0.23c0.25,0.12,0.5,0.24,0.77,0.36c0.15,0.05,0.31,0.12,0.47,0.19v-0.42
		C116.3,100.64,116.17,100.59,116.04,100.54z M130,104.44c-0.18,0.93-0.32,1.91-0.22,2.9c0,0.11,0.01,0.23,0.03,0.34
		c0.1-1.23,0.2-2.46,0.28-3.69C130.06,104.14,130.03,104.29,130,104.44z M130,104.44c-0.18,0.93-0.32,1.91-0.22,2.9
		c0,0.11,0.01,0.23,0.03,0.34c0.1-1.23,0.2-2.46,0.28-3.69C130.06,104.14,130.03,104.29,130,104.44z M130.27,100.65
		c-0.09,0.09-0.2,0.19-0.32,0.29c-0.06,0.06-0.13,0.11-0.21,0.16c-0.1,0.08-0.21,0.15-0.33,0.23c-0.01,0.01-0.02,0.01-0.02,0.01
		c-0.13,0.09-0.27,0.17-0.43,0.25c-0.14,0.07-0.29,0.15-0.45,0.22c-0.07,0.03-0.15,0.06-0.22,0.08c-0.09,0.04-0.19,0.07-0.28,0.1
		c-0.09,0.03-0.17,0.06-0.27,0.08c-0.03,0.01-0.07,0.02-0.11,0.03c-0.03,0.01-0.07,0.02-0.11,0.03c-0.04,0.01-0.08,0.02-0.12,0.03
		c-0.06,0.02-0.12,0.03-0.18,0.04c-0.16,0.04-0.34,0.08-0.52,0.1c-0.06,0.01-0.13,0.02-0.19,0.03c-0.44,0.06-0.92,0.09-1.45,0.09
		h-0.04c-0.12,0-0.25,0-0.37-0.01c-0.13,0-0.26-0.01-0.39-0.02c-0.01,0.01-0.02,0.01-0.03,0c-0.09,0-0.18-0.01-0.27-0.02
		c-0.2-0.01-0.4-0.03-0.61-0.06c-0.21-0.02-0.43-0.05-0.65-0.09c-1.93-0.31-3.86-0.59-5.71-1.29c-0.07-0.03-0.15-0.06-0.23-0.1
		c-0.03-0.01-0.07-0.03-0.11-0.05c-0.07-0.02-0.14-0.04-0.22-0.08c-0.13-0.06-0.26-0.11-0.39-0.16c-0.03-0.01-0.06-0.03-0.09-0.04
		c0.01-0.15,0.01-0.29-0.01-0.43c-0.19-0.09-0.37-0.18-0.54-0.28c-0.05-0.02-0.09-0.05-0.14-0.07l-0.12-0.07
		c-0.06-0.01-0.12-0.02-0.17-0.03c-0.17-0.02-0.33-0.06-0.49-0.1c-0.18-0.03-0.35-0.08-0.52-0.13h-0.01
		c-0.05-0.04-0.1-0.07-0.15-0.11h-0.01c-0.01-0.01-0.03-0.02-0.04-0.03c-0.11-0.07-0.23-0.16-0.33-0.25
		c-0.03-0.02-0.05-0.03-0.08-0.06h-0.01c-0.07-0.02-0.14-0.04-0.2-0.05c-0.18-0.05-0.36-0.1-0.52-0.17
		c-0.01-0.01-0.01-0.01-0.02-0.01c-0.06-0.03-0.11-0.05-0.16-0.08c-0.01-0.01-0.02-0.01-0.03-0.01c0.1,0.11,0.21,0.22,0.33,0.3
		l0.01,0.01c0.03,0.03,0.06,0.05,0.09,0.08c0.43,0.38,0.93,0.74,1.49,1.07c0.14,0.09,0.29,0.18,0.45,0.26
		c0.14,0.07,0.28,0.15,0.42,0.23c0.25,0.12,0.5,0.24,0.77,0.36c0.15,0.05,0.31,0.12,0.47,0.19c0.08,0.03,0.15,0.07,0.23,0.08
		c0.07,0.04,0.13,0.06,0.2,0.09c1.78,0.68,3.66,0.98,5.47,1.27l0.3,0.05c1.61,0.26,2.92,0.25,3.99,0.11
		c0.18-0.03,0.36-0.06,0.52-0.09c0.18-0.04,0.35-0.07,0.52-0.12c0.22-0.06,0.43-0.12,0.63-0.19c0.08-0.03,0.17-0.06,0.24-0.09
		c0.16-0.07,0.3-0.14,0.44-0.19c0.54-0.27,0.96-0.56,1.26-0.82c0.02-0.01,0.04-0.02,0.06-0.04c0.01-0.2,0.03-0.4,0.04-0.59
		C130.31,100.61,130.29,100.63,130.27,100.65z"/>
</g>
<g>
	<path class="st1" d="M54.13,192.7c-1.1-0.29-2.28-0.59-3.47-0.4c-0.04,0.01-0.09,0.01-0.14,0.02c0,0,0,0-0.01,0
		c-0.08,0.01-0.15,0.02-0.24,0.04c-0.29,0.07-0.74,0.12-1.25,0.15l-0.03,0c-0.02,0.01-0.04,0.01-0.06,0.01
		c-0.76,0.03-1.59-0.03-2.08-0.26c0,0-0.01-0.01-0.02-0.01c-0.01,0-0.01-0.01-0.02-0.01c-0.1-0.06-0.18-0.1-0.25-0.17
		c-0.08-0.09-0.16-0.19-0.23-0.28c-0.01-0.01-0.02-0.03-0.02-0.03c-0.09-0.14-0.15-0.26-0.2-0.41c-0.01-0.02-0.02-0.03-0.02-0.04
		c-0.23-0.56-0.28-1.2-0.31-1.8c-0.15-3.14-0.23-6.46,1.48-9.2c0.35-0.57,0.78-1.09,1.07-1.69c0.33-0.68,0.5-1.44,0.87-2.08
		c0.06-0.13,0.15-0.25,0.24-0.37l0.01,0c0.07-0.1,0.16-0.21,0.26-0.3c0.02-0.02,0.04-0.04,0.06-0.06c0.12-0.11,0.26-0.21,0.4-0.29
		c0.24-0.14,0.49-0.25,0.75-0.32l0.01,0c1.01-0.28,2.23-0.14,3.3,0.06c0.87,0.15,1.73,0.33,2.59,0.53c0.01-0.01,0.02,0,0.02,0
		c0.75,0.17,1.49,0.35,2.23,0.54l0.01,0c0.19,0.05,0.36,0.1,0.55,0.15c0.14,0.04,0.28,0.07,0.41,0.12c0.18,0.04,0.35,0.09,0.51,0.14
		c0.04,0.01,0.08,0.02,0.12,0.04c0.02,0,0.03,0.01,0.05,0.01c-0.01,0-0.02,0.01-0.03,0.02c-0.01,0-0.01,0-0.02,0.01
		c-0.09,0.03-0.17,0.06-0.25,0.11c-0.15,0.07-0.3,0.15-0.44,0.25c-0.09,0.06-0.17,0.11-0.26,0.19c-0.01,0-0.02,0-0.02,0.02
		c-0.03,0.02-0.06,0.04-0.1,0.06c0,0-0.01,0-0.01,0.01c-0.07,0.06-0.14,0.11-0.21,0.18c-0.01,0-0.01,0.01-0.01,0.01
		c-0.16,0.14-0.31,0.29-0.46,0.45c-0.04,0.05-0.1,0.11-0.14,0.16l0,0.01c-0.03,0.02-0.04,0.04-0.05,0.07
		c-0.08,0.08-0.16,0.18-0.22,0.27c-0.01,0.01-0.02,0.02-0.03,0.03l0,0.01c-0.04,0.04-0.06,0.08-0.1,0.12l0,0.01
		c-0.09,0.12-0.19,0.26-0.27,0.4c-0.07,0.09-0.14,0.2-0.19,0.3c-0.2,0.32-0.37,0.63-0.55,0.96c-0.01,0.03-0.03,0.05-0.04,0.08
		c-0.05,0.11-0.09,0.22-0.15,0.33c-0.04,0.07-0.06,0.13-0.08,0.18c-0.02,0.03-0.04,0.07-0.05,0.09c-0.04,0.07-0.06,0.13-0.09,0.19
		c-0.66,1.55-0.96,3.18-1.29,4.81c-0.04,0.19-0.07,0.37-0.1,0.55c-0.03,0.18-0.06,0.35-0.07,0.52c-0.01,0.08-0.02,0.15-0.03,0.23
		c-0.01,0.01-0.01,0.02,0,0.03c-0.01,0.11-0.03,0.22-0.03,0.33c-0.01,0.1-0.02,0.21-0.02,0.31l0,0.03
		c-0.02,0.45-0.01,0.86,0.03,1.24c0.02,0.27,0.06,0.53,0.11,0.76c0.01,0.03,0.01,0.07,0.02,0.1c0.01,0.03,0.01,0.07,0.02,0.09
		c0.02,0.12,0.05,0.22,0.08,0.33c0.02,0.08,0.04,0.16,0.08,0.24c0.01,0.06,0.04,0.13,0.06,0.19c0.05,0.14,0.12,0.27,0.17,0.39
		c0.06,0.14,0.13,0.26,0.2,0.37c0,0,0,0.01,0.01,0.02c0.06,0.1,0.12,0.2,0.18,0.29c0.04,0.07,0.08,0.13,0.13,0.18
		c0.08,0.11,0.16,0.2,0.24,0.28c0.02,0.02,0.03,0.04,0.05,0.05c0.13,0.15,0.24,0.26,0.3,0.33c-0.08,0.02-0.16,0.04-0.23,0.06
		l-0.01,0c-0.03,0.01-0.05,0.01-0.08,0.02c-0.01,0-0.01,0-0.02,0c-0.71,0.13-1.53-0.05-2.4-0.27c-0.08-0.02-0.15-0.04-0.24-0.06
		C54.15,192.7,54.14,192.7,54.13,192.7z"/>
	<path d="M56.77,192.57c-0.07-0.08-0.15-0.18-0.24-0.28c-0.05-0.05-0.09-0.11-0.13-0.18c-0.06-0.09-0.12-0.18-0.18-0.29
		c-0.01-0.01-0.01-0.02-0.01-0.02c-0.07-0.11-0.14-0.24-0.2-0.37c-0.05-0.12-0.12-0.25-0.17-0.39c-0.02-0.06-0.05-0.13-0.06-0.19
		c-0.03-0.08-0.05-0.16-0.08-0.24c-0.03-0.1-0.06-0.21-0.08-0.33c-0.01-0.03-0.01-0.06-0.02-0.09c-0.01-0.03-0.01-0.07-0.02-0.1
		c-0.05-0.23-0.09-0.49-0.11-0.76c-0.04-0.38-0.04-0.79-0.03-1.24l0-0.03c0-0.1,0.01-0.21,0.02-0.31c0-0.11,0.02-0.22,0.03-0.33
		c-0.01-0.01-0.01-0.02,0-0.03c0-0.08,0.01-0.15,0.03-0.23c0.02-0.17,0.04-0.34,0.07-0.52c0.02-0.18,0.06-0.36,0.1-0.55
		c0.33-1.63,0.63-3.26,1.29-4.81c0.03-0.06,0.06-0.13,0.09-0.19c0.01-0.03,0.03-0.06,0.05-0.09c0.02-0.06,0.04-0.12,0.08-0.18
		c0.06-0.11,0.1-0.22,0.15-0.33c0.01-0.03,0.03-0.05,0.04-0.08c0.13,0.01,0.25,0.02,0.37,0.01c0.13-0.24,0.25-0.45,0.38-0.67
		c0.07-0.35,0.16-0.68,0.26-0.99l0-0.01c0.04-0.04,0.06-0.08,0.1-0.12l0-0.01c0.01-0.01,0.02-0.02,0.03-0.03
		c0.06-0.09,0.14-0.19,0.22-0.27c0.02-0.02,0.03-0.04,0.05-0.07l0-0.01c0.07-0.21,0.13-0.42,0.21-0.6c0.01-0.01,0.01-0.01,0.01-0.02
		c0.03-0.05,0.05-0.09,0.07-0.13c0.01-0.01,0.01-0.02,0.01-0.03c-0.1,0.08-0.19,0.17-0.27,0.27l-0.01,0.01
		c-0.03,0.02-0.04,0.05-0.07,0.07c-0.64,0.66-1.2,1.53-1.74,2.59c-0.05,0.13-0.11,0.26-0.18,0.39c-0.03,0.07-0.06,0.13-0.08,0.19
		c-0.04,0.06-0.06,0.11-0.08,0.17c-0.64,1.49-0.96,3.08-1.27,4.61l-0.05,0.25c-0.44,2.16-0.29,3.72,0.05,4.82
		c0.02,0.07,0.05,0.15,0.07,0.21c0.05,0.14,0.11,0.26,0.15,0.38c0.21,0.47,0.44,0.84,0.65,1.1c0.01,0.02,0.02,0.03,0.03,0.05
		c0.17,0.02,0.34,0.04,0.5,0.05C56.8,192.61,56.79,192.59,56.77,192.57z M53.56,192.21c-0.78-0.19-1.61-0.34-2.46-0.29
		c-0.09,0-0.2,0-0.29,0.01c1.04,0.13,2.08,0.25,3.13,0.36C53.81,192.27,53.68,192.24,53.56,192.21z M53.56,192.21
		c-0.78-0.19-1.61-0.34-2.46-0.29c-0.09,0-0.2,0-0.29,0.01c1.04,0.13,2.08,0.25,3.13,0.36C53.81,192.27,53.68,192.24,53.56,192.21z
		 M57.35,180.48c0.01-0.03,0.03-0.05,0.04-0.08c0.13,0.01,0.25,0.02,0.37,0.01c0.13-0.24,0.25-0.45,0.38-0.67
		c0.07-0.35,0.16-0.68,0.26-0.99l0-0.01c0.04-0.04,0.06-0.08,0.1-0.12l0-0.01c0.01-0.01,0.02-0.02,0.03-0.03
		c0.06-0.09,0.14-0.19,0.22-0.27c0.02-0.02,0.03-0.04,0.05-0.07l0-0.01c0.07-0.21,0.13-0.42,0.21-0.6c0.01-0.01,0.01-0.01,0.01-0.02
		c0.03-0.05,0.05-0.09,0.07-0.13c0.01-0.01,0.01-0.02,0.01-0.03c-0.1,0.08-0.19,0.17-0.27,0.27l-0.01,0.01
		c-0.03,0.02-0.04,0.05-0.07,0.07c-0.64,0.66-1.2,1.53-1.74,2.59c-0.05,0.13-0.11,0.26-0.18,0.39l0.36,0.01
		C57.26,180.7,57.31,180.59,57.35,180.48z M53.56,192.21c-0.78-0.19-1.61-0.34-2.46-0.29c-0.09,0-0.2,0-0.29,0.01
		c1.04,0.13,2.08,0.25,3.13,0.36C53.81,192.27,53.68,192.24,53.56,192.21z M57.35,180.48c0.01-0.03,0.03-0.05,0.04-0.08
		c0.17-0.32,0.35-0.64,0.55-0.96c0.05-0.1,0.12-0.21,0.19-0.3c0.08-0.13,0.18-0.27,0.27-0.4l0-0.01c0.08-0.24,0.16-0.44,0.26-0.65
		c0-0.01,0-0.02,0.01-0.03l0.01-0.01c0.05-0.12,0.1-0.23,0.16-0.33c-0.03,0.02-0.04,0.05-0.07,0.07c-0.64,0.66-1.2,1.53-1.74,2.59
		c-0.05,0.13-0.11,0.26-0.18,0.39l0.36,0.01C57.26,180.7,57.31,180.59,57.35,180.48z M53.56,192.21c-0.78-0.19-1.61-0.34-2.46-0.29
		c-0.09,0-0.2,0-0.29,0.01c1.04,0.13,2.08,0.25,3.13,0.36C53.81,192.27,53.68,192.24,53.56,192.21z M53.56,192.21
		c-0.78-0.19-1.61-0.34-2.46-0.29c-0.09,0-0.2,0-0.29,0.01c1.04,0.13,2.08,0.25,3.13,0.36C53.81,192.27,53.68,192.24,53.56,192.21z
		 M56.51,193.4c0.02,0,0.03,0,0.05-0.01c0.23-0.02,0.45-0.06,0.66-0.14c0.09-0.03,0.15-0.09,0.19-0.15c0-0.01,0-0.03,0.01-0.03
		c0-0.02,0-0.03,0.01-0.04c0.03-0.11,0-0.23-0.06-0.3l-0.11-0.12c-0.2-0.2-0.56-0.57-0.87-1.18c-0.05-0.12-0.13-0.26-0.19-0.41
		c-0.02-0.05-0.04-0.11-0.06-0.17c-0.37-1.01-0.56-2.51-0.12-4.71l0.05-0.24c0.29-1.4,0.58-2.86,1.12-4.22
		c0.03-0.09,0.07-0.18,0.1-0.26c0.06-0.14,0.12-0.28,0.19-0.42c0.03-0.07,0.05-0.13,0.08-0.18c0.06-0.13,0.13-0.25,0.18-0.37
		c0.01-0.01,0.01-0.03,0.02-0.03c0.13-0.24,0.25-0.45,0.38-0.67c0.07-0.35,0.16-0.68,0.26-0.99l0-0.01c0.04-0.04,0.06-0.08,0.1-0.12
		l0-0.01c0.01-0.01,0.02-0.02,0.03-0.03c0.06-0.09,0.14-0.19,0.22-0.27c0.02-0.02,0.03-0.04,0.05-0.07
		c-0.04,0.19-0.08,0.37-0.13,0.54c-0.02,0.08-0.04,0.15-0.06,0.23c0.14-0.21,0.31-0.4,0.46-0.57c0-0.01,0-0.01,0-0.01
		c0.28-0.31,0.57-0.59,0.86-0.81c0.04-0.03,0.1-0.06,0.14-0.09c0.04-0.03,0.06-0.06,0.1-0.08l0.01,0c0.04-0.02,0.08-0.04,0.11-0.06
		c0.04-0.03,0.09-0.06,0.13-0.08c0.15-0.08,0.3-0.16,0.46-0.22c0.04-0.02,0.09-0.05,0.12-0.08c0.05-0.07,0.09-0.14,0.09-0.23
		c-0.01-0.15-0.11-0.27-0.24-0.3c-0.01,0-0.02-0.01-0.03-0.01c-0.72-0.21-1.43-0.41-2.15-0.58c-1.44-0.37-2.89-0.7-4.35-0.97
		c-1.3-0.23-2.88-0.4-4.09,0.18c-0.18,0.09-0.37,0.21-0.53,0.35c-0.01,0-0.01,0-0.01,0c-0.04,0.02-0.08,0.06-0.12,0.1
		c-0.07,0.07-0.13,0.12-0.19,0.19c-0.02,0.02-0.04,0.04-0.06,0.07c-0.09,0.09-0.16,0.2-0.22,0.3c-0.08,0.12-0.15,0.24-0.22,0.37
		c-0.18,0.34-0.32,0.7-0.45,1.06c-0.12,0.34-0.23,0.63-0.37,0.91c-0.18,0.37-0.41,0.72-0.66,1.07c-0.14,0.2-0.27,0.4-0.41,0.61
		c-1.1,1.78-1.49,3.78-1.58,5.9c-0.05,1.14,0,2.31,0.05,3.48c0.04,0.61,0.08,1.2,0.26,1.73c0,0.02,0.01,0.03,0.01,0.05
		c0.05,0.14,0.1,0.27,0.17,0.4c0,0.01,0.01,0.03,0.02,0.03c0.07,0.16,0.17,0.3,0.29,0.44l0.01,0.01c0.03,0.04,0.06,0.08,0.1,0.12
		c0.72,0.76,3.17,0.59,4.01,0.41c0.01-0.01,0.01-0.01,0.02-0.01c0.01,0,0.01,0,0.02-0.01c1.22-0.29,2.46,0.03,3.65,0.34
		c0.24,0.05,0.47,0.11,0.69,0.16c0.03,0.01,0.07,0.02,0.1,0.03C55.41,193.35,55.98,193.44,56.51,193.4z M57.02,180.4
		c-0.05,0.13-0.11,0.26-0.18,0.39c-0.03,0.07-0.06,0.13-0.08,0.19c-0.04,0.06-0.06,0.11-0.08,0.17c-0.64,1.49-0.96,3.08-1.27,4.61
		l-0.05,0.25c-0.44,2.16-0.29,3.72,0.05,4.82c0.02,0.07,0.05,0.15,0.07,0.21c0.05,0.14,0.11,0.26,0.15,0.38
		c0.21,0.47,0.44,0.84,0.65,1.1c0.01,0.02,0.02,0.03,0.03,0.05c0.06,0.06,0.11,0.12,0.15,0.18c-0.67,0.04-1.47-0.16-2.28-0.37
		c-0.09-0.02-0.17-0.05-0.26-0.07c-0.13-0.03-0.25-0.06-0.38-0.09c-0.78-0.19-1.61-0.34-2.46-0.29c-0.09,0-0.2,0-0.29,0.01
		c-0.2,0.02-0.4,0.05-0.6,0.1c-0.21,0.05-0.45,0.08-0.73,0.11c-0.04,0.01-0.08,0.01-0.12,0.01c-0.99,0.08-2.21,0-2.53-0.33l-0.01,0
		c-0.01-0.01-0.02-0.02-0.02-0.03c-0.11-0.12-0.21-0.26-0.28-0.41c-0.01-0.02-0.02-0.03-0.02-0.05c-0.27-0.53-0.31-1.16-0.35-1.86
		c-0.17-3.41-0.18-6.44,1.42-9c0.13-0.2,0.26-0.4,0.39-0.59c0.24-0.36,0.51-0.74,0.71-1.15c0.15-0.32,0.28-0.64,0.4-0.98
		c0.15-0.42,0.31-0.83,0.52-1.18c0.08-0.13,0.17-0.25,0.26-0.36c0.06-0.07,0.12-0.12,0.18-0.17c0.05-0.05,0.11-0.09,0.16-0.13
		c0.03-0.02,0.05-0.03,0.07-0.05c0.17-0.11,0.36-0.21,0.55-0.28c0.46-0.17,0.98-0.23,1.52-0.23c0.01-0.01,0.02,0,0.02,0
		c0.61,0,1.25,0.09,1.83,0.19c0.02,0,0.03,0.01,0.05,0.01c1.06,0.19,2.1,0.41,3.14,0.66l0.03,0c0.57,0.13,1.15,0.28,1.71,0.43
		l0.32,0.08l0.43,0.12c0.01,0.01,0.02,0.01,0.03,0.01c-0.02,0.01-0.04,0.02-0.05,0.04c-0.01,0.01-0.02,0.01-0.03,0.02
		c-0.06,0.04-0.14,0.09-0.21,0.14c-0.01,0-0.03,0.02-0.04,0.03c-0.13,0.09-0.25,0.19-0.37,0.29c0,0.01-0.02,0.02-0.03,0.03
		c0,0.01-0.01,0.01-0.02,0.02c-0.1,0.08-0.19,0.17-0.27,0.27l-0.01,0.01c-0.03,0.02-0.04,0.05-0.07,0.07
		C58.12,178.47,57.56,179.33,57.02,180.4z M53.56,192.21c-0.78-0.19-1.61-0.34-2.46-0.29c-0.09,0-0.2,0-0.29,0.01
		c1.04,0.13,2.08,0.25,3.13,0.36C53.81,192.27,53.68,192.24,53.56,192.21z M57.35,180.48c0.01-0.03,0.03-0.05,0.04-0.08
		c0.17-0.32,0.35-0.64,0.55-0.96c0.05-0.1,0.12-0.21,0.19-0.3c0.08-0.13,0.18-0.27,0.27-0.4l0-0.01c0.08-0.24,0.16-0.44,0.26-0.65
		c0-0.01,0-0.02,0.01-0.03l0.01-0.01c0.05-0.12,0.1-0.23,0.16-0.33c-0.03,0.02-0.04,0.05-0.07,0.07c-0.64,0.66-1.2,1.53-1.74,2.59
		c-0.05,0.13-0.11,0.26-0.18,0.39l0.36,0.01C57.26,180.7,57.31,180.59,57.35,180.48z M53.56,192.21c-0.78-0.19-1.61-0.34-2.46-0.29
		c-0.09,0-0.2,0-0.29,0.01c1.04,0.13,2.08,0.25,3.13,0.36C53.81,192.27,53.68,192.24,53.56,192.21z M57.35,180.48
		c0.01-0.03,0.03-0.05,0.04-0.08c0.13,0.01,0.25,0.02,0.37,0.01c0.13-0.24,0.25-0.45,0.38-0.67c0.07-0.35,0.16-0.68,0.26-0.99
		l0-0.01c0.04-0.04,0.06-0.08,0.1-0.12l0-0.01c0.01-0.01,0.02-0.02,0.03-0.03c0.06-0.09,0.14-0.19,0.22-0.27
		c0.02-0.02,0.03-0.04,0.05-0.07l0-0.01c0.07-0.21,0.13-0.42,0.21-0.6c0.01-0.01,0.01-0.01,0.01-0.02c0.03-0.05,0.05-0.09,0.07-0.13
		c0.01-0.01,0.01-0.02,0.01-0.03c-0.1,0.08-0.19,0.17-0.27,0.27l-0.01,0.01c-0.03,0.02-0.04,0.05-0.07,0.07
		c-0.64,0.66-1.2,1.53-1.74,2.59c-0.05,0.13-0.11,0.26-0.18,0.39l0.36,0.01C57.26,180.7,57.31,180.59,57.35,180.48z M53.56,192.21
		c-0.78-0.19-1.61-0.34-2.46-0.29c-0.09,0-0.2,0-0.29,0.01c1.04,0.13,2.08,0.25,3.13,0.36C53.81,192.27,53.68,192.24,53.56,192.21z
		 M57.35,180.48c0.01-0.03,0.03-0.05,0.04-0.08c0.13,0.01,0.25,0.02,0.37,0.01c0.13-0.24,0.25-0.45,0.38-0.67
		c0.07-0.35,0.16-0.68,0.26-0.99l0-0.01c0.04-0.04,0.06-0.08,0.1-0.12l0-0.01c0.01-0.01,0.02-0.02,0.03-0.03
		c0.06-0.09,0.14-0.19,0.22-0.27c0.02-0.02,0.03-0.04,0.05-0.07l0-0.01c0.07-0.21,0.13-0.42,0.21-0.6c0.01-0.01,0.01-0.01,0.01-0.02
		c0.03-0.05,0.05-0.09,0.07-0.13c0.01-0.01,0.01-0.02,0.01-0.03c-0.1,0.08-0.19,0.17-0.27,0.27l-0.01,0.01
		c-0.03,0.02-0.04,0.05-0.07,0.07c-0.64,0.66-1.2,1.53-1.74,2.59c-0.05,0.13-0.11,0.26-0.18,0.39l0.36,0.01
		C57.26,180.7,57.31,180.59,57.35,180.48z M53.56,192.21c-0.78-0.19-1.61-0.34-2.46-0.29c-0.09,0-0.2,0-0.29,0.01
		c1.04,0.13,2.08,0.25,3.13,0.36C53.81,192.27,53.68,192.24,53.56,192.21z M53.56,192.21c-0.78-0.19-1.61-0.34-2.46-0.29
		c-0.09,0-0.2,0-0.29,0.01c1.04,0.13,2.08,0.25,3.13,0.36C53.81,192.27,53.68,192.24,53.56,192.21z M56.77,192.57
		c-0.07-0.08-0.15-0.18-0.24-0.28c-0.05-0.05-0.09-0.11-0.13-0.18c-0.06-0.09-0.12-0.18-0.18-0.29c-0.01-0.01-0.01-0.02-0.01-0.02
		c-0.07-0.11-0.14-0.24-0.2-0.37c-0.05-0.12-0.12-0.25-0.17-0.39c-0.02-0.06-0.05-0.13-0.06-0.19c-0.03-0.08-0.05-0.16-0.08-0.24
		c-0.03-0.1-0.06-0.21-0.08-0.33c-0.01-0.03-0.01-0.06-0.02-0.09c-0.01-0.03-0.01-0.07-0.02-0.1c-0.05-0.23-0.09-0.49-0.11-0.76
		c-0.04-0.38-0.04-0.79-0.03-1.24l0-0.03c0-0.1,0.01-0.21,0.02-0.31c0-0.11,0.02-0.22,0.03-0.33c-0.01-0.01-0.01-0.02,0-0.03
		c0-0.08,0.01-0.15,0.03-0.23c0.02-0.17,0.04-0.34,0.07-0.52c0.02-0.18,0.06-0.36,0.1-0.55c0.33-1.63,0.63-3.26,1.29-4.81
		c0.03-0.06,0.06-0.13,0.09-0.19c0.01-0.03,0.03-0.06,0.05-0.09c0.02-0.06,0.04-0.12,0.08-0.18c0.06-0.11,0.1-0.22,0.15-0.33
		c0.01-0.03,0.03-0.05,0.04-0.08c0.13,0.01,0.25,0.02,0.37,0.01c0.13-0.24,0.25-0.45,0.38-0.67c0.07-0.35,0.16-0.68,0.26-0.99
		l0-0.01c0.04-0.04,0.06-0.08,0.1-0.12l0-0.01c0.01-0.01,0.02-0.02,0.03-0.03c0.06-0.09,0.14-0.19,0.22-0.27
		c0.02-0.02,0.03-0.04,0.05-0.07l0-0.01c0.07-0.21,0.13-0.42,0.21-0.6c0.01-0.01,0.01-0.01,0.01-0.02c0.03-0.05,0.05-0.09,0.07-0.13
		c0.01-0.01,0.01-0.02,0.01-0.03c-0.1,0.08-0.19,0.17-0.27,0.27l-0.01,0.01c-0.03,0.02-0.04,0.05-0.07,0.07
		c-0.64,0.66-1.2,1.53-1.74,2.59c-0.05,0.13-0.11,0.26-0.18,0.39c-0.03,0.07-0.06,0.13-0.08,0.19c-0.04,0.06-0.06,0.11-0.08,0.17
		c-0.64,1.49-0.96,3.08-1.27,4.61l-0.05,0.25c-0.44,2.16-0.29,3.72,0.05,4.82c0.02,0.07,0.05,0.15,0.07,0.21
		c0.05,0.14,0.11,0.26,0.15,0.38c0.21,0.47,0.44,0.84,0.65,1.1c0.01,0.02,0.02,0.03,0.03,0.05c0.17,0.02,0.34,0.04,0.5,0.05
		C56.8,192.61,56.79,192.59,56.77,192.57z"/>
</g>
<polygon points="114.25,99.13 115.26,99.72 115,100.11 113.97,99.62 112.94,98.72 "/>
<path class="st4" d="M85.82,165.62l0.69-5.47c0.99-5.7,3.46-7.88-1.89-16.9c-5.35-9.02-2.53-6.06-2.53-6.06"/>
<path class="st5" d="M224.75,59.86c1.24-1.22,1.94-2.88,1.94-4.61V6.9c0-1.73-0.7-3.39-1.94-4.61c-1.24-1.22-2.92-1.91-4.67-1.91
	l-124.63,0c-1.75,0-3.43,0.69-4.67,1.91c-1.24,1.22-1.93,2.88-1.93,4.61v54.87L73.07,78.49l28.99-16.72l118.02,0
	C221.84,61.77,223.52,61.08,224.75,59.86z"/>
<path class="st6" d="M108.26,11.56v8.43h-0.82v-3.94h-5v3.94h-0.83v-8.43h0.83v3.75h5v-3.75H108.26z M111.7,20.1
	c-0.29,0-0.57-0.05-0.82-0.14c-0.24-0.1-0.46-0.24-0.65-0.42c-0.18-0.17-0.32-0.38-0.43-0.61c-0.1-0.24-0.15-0.49-0.15-0.76
	c0-0.27,0.06-0.52,0.19-0.75c0.13-0.23,0.3-0.43,0.53-0.59c0.23-0.17,0.5-0.29,0.82-0.38c0.32-0.09,0.66-0.14,1.04-0.14
	c0.32,0,0.64,0.03,0.96,0.08c0.32,0.06,0.61,0.13,0.87,0.24v-0.56c0-0.55-0.15-0.98-0.46-1.29c-0.31-0.32-0.74-0.49-1.28-0.49
	c-0.32,0-0.64,0.06-0.97,0.19c-0.33,0.13-0.67,0.31-1.01,0.55l-0.28-0.53c0.8-0.54,1.57-0.81,2.33-0.81c0.78,0,1.38,0.22,1.83,0.65
	c0.44,0.44,0.66,1.04,0.66,1.8v2.79c0,0.22,0.1,0.33,0.3,0.33v0.71c-0.13,0.02-0.24,0.04-0.31,0.04c-0.21,0-0.37-0.05-0.49-0.15
	c-0.11-0.1-0.17-0.25-0.18-0.43l-0.02-0.49c-0.28,0.37-0.64,0.66-1.08,0.85C112.66,20,112.2,20.1,111.7,20.1z M111.89,19.48
	c0.42,0,0.8-0.08,1.15-0.24c0.36-0.16,0.63-0.37,0.81-0.63c0.07-0.07,0.12-0.15,0.15-0.23c0.04-0.09,0.06-0.17,0.06-0.24v-1.01
	c-0.27-0.1-0.55-0.18-0.84-0.24c-0.28-0.06-0.58-0.08-0.88-0.08c-0.57,0-1.03,0.12-1.39,0.36c-0.36,0.24-0.53,0.55-0.53,0.94
	c0,0.19,0.04,0.37,0.11,0.53c0.08,0.17,0.18,0.31,0.31,0.44c0.14,0.12,0.29,0.21,0.47,0.28C111.49,19.45,111.69,19.48,111.89,19.48z
	 M116.65,11.32h0.81v7.26c0,0.23,0.06,0.41,0.19,0.55c0.13,0.13,0.3,0.19,0.53,0.19c0.09,0,0.19-0.01,0.31-0.04
	c0.12-0.02,0.23-0.06,0.33-0.09l0.14,0.65c-0.15,0.06-0.34,0.11-0.56,0.15c-0.21,0.04-0.4,0.06-0.56,0.06
	c-0.37,0-0.66-0.1-0.88-0.31c-0.21-0.21-0.32-0.51-0.32-0.89V11.32z M119.89,11.32h0.81v7.26c0,0.23,0.06,0.41,0.19,0.55
	c0.13,0.13,0.3,0.19,0.53,0.19c0.09,0,0.19-0.01,0.31-0.04c0.12-0.02,0.23-0.06,0.33-0.09l0.14,0.65c-0.15,0.06-0.34,0.11-0.56,0.15
	c-0.21,0.04-0.4,0.06-0.56,0.06c-0.37,0-0.66-0.1-0.88-0.31c-0.21-0.21-0.32-0.51-0.32-0.89V11.32z M125.72,20.1
	c-0.45,0-0.86-0.08-1.23-0.25c-0.37-0.17-0.7-0.41-0.97-0.7c-0.27-0.29-0.48-0.63-0.63-1.02c-0.15-0.39-0.23-0.8-0.23-1.22
	c0-0.44,0.07-0.85,0.23-1.23c0.16-0.39,0.37-0.73,0.64-1.02c0.28-0.29,0.6-0.53,0.97-0.7c0.37-0.17,0.78-0.26,1.22-0.26
	c0.44,0,0.85,0.09,1.22,0.26c0.38,0.17,0.7,0.41,0.97,0.7c0.28,0.29,0.49,0.63,0.64,1.02c0.16,0.39,0.24,0.8,0.24,1.23
	c0,0.43-0.07,0.83-0.23,1.22s-0.36,0.73-0.64,1.02c-0.27,0.29-0.59,0.53-0.97,0.7C126.58,20.02,126.17,20.1,125.72,20.1z
	 M123.48,16.92c0,0.35,0.06,0.67,0.18,0.97c0.12,0.29,0.28,0.55,0.47,0.78c0.21,0.22,0.44,0.4,0.71,0.52
	c0.28,0.13,0.57,0.19,0.88,0.19c0.31,0,0.6-0.06,0.87-0.19c0.28-0.13,0.52-0.31,0.72-0.53c0.21-0.23,0.37-0.49,0.49-0.8
	c0.12-0.3,0.18-0.63,0.18-0.97c0-0.34-0.06-0.66-0.18-0.96c-0.12-0.31-0.28-0.57-0.49-0.8c-0.21-0.23-0.45-0.41-0.72-0.53
	c-0.27-0.13-0.56-0.2-0.87-0.2c-0.31,0-0.6,0.07-0.87,0.2c-0.27,0.13-0.51,0.3-0.71,0.53c-0.21,0.23-0.37,0.5-0.49,0.81
	C123.53,16.25,123.48,16.57,123.48,16.92z M135.1,20.1c-0.67,0-1.18-0.22-1.51-0.66c-0.32-0.45-0.49-1.12-0.49-2.01V13.8h0.81v3.49
	c0,1.4,0.48,2.1,1.44,2.1c0.24,0,0.47-0.04,0.7-0.12c0.23-0.08,0.44-0.19,0.63-0.34c0.2-0.15,0.37-0.33,0.52-0.53
	c0.16-0.21,0.28-0.44,0.38-0.7V13.8h0.81v5.14c0,0.22,0.09,0.33,0.28,0.33v0.71c-0.09,0.02-0.17,0.02-0.24,0.02
	c-0.06,0-0.09,0-0.12,0c-0.19-0.01-0.34-0.08-0.46-0.2c-0.12-0.13-0.18-0.3-0.18-0.51v-0.71c-0.27,0.48-0.64,0.86-1.1,1.13
	C136.12,19.97,135.62,20.1,135.1,20.1z M145.41,19.98h-0.81v-3.45c0-0.74-0.11-1.27-0.33-1.6c-0.21-0.33-0.55-0.5-1-0.5
	c-0.24,0-0.47,0.04-0.71,0.13s-0.46,0.21-0.66,0.37c-0.2,0.16-0.38,0.35-0.53,0.57c-0.16,0.21-0.27,0.45-0.34,0.7v3.79h-0.81V13.8
	h0.74v1.4c0.25-0.45,0.61-0.82,1.08-1.09c0.47-0.28,0.99-0.42,1.54-0.42c0.34,0,0.63,0.06,0.87,0.19c0.24,0.13,0.43,0.3,0.57,0.53
	c0.14,0.23,0.24,0.51,0.31,0.84c0.06,0.33,0.09,0.7,0.09,1.1V19.98z M155.36,19.98h-0.81v-3.45c0-0.7-0.12-1.23-0.37-1.58
	c-0.24-0.35-0.59-0.52-1.06-0.52c-0.23,0-0.46,0.05-0.69,0.14c-0.22,0.09-0.43,0.21-0.63,0.37c-0.2,0.16-0.37,0.34-0.52,0.56
	c-0.14,0.21-0.25,0.45-0.32,0.7v3.79h-0.81v-8.66h0.81v3.88c0.25-0.47,0.59-0.83,1.02-1.1c0.44-0.27,0.91-0.4,1.41-0.4
	c0.36,0,0.66,0.07,0.9,0.2c0.25,0.13,0.45,0.31,0.61,0.55c0.16,0.23,0.27,0.51,0.34,0.84c0.07,0.32,0.11,0.68,0.11,1.08V19.98z
	 M159.75,20.1c-0.45,0-0.87-0.08-1.25-0.25c-0.37-0.17-0.7-0.41-0.97-0.7c-0.28-0.3-0.49-0.64-0.65-1.03
	c-0.15-0.39-0.23-0.8-0.23-1.25c0-0.44,0.07-0.84,0.23-1.22c0.16-0.39,0.37-0.72,0.64-1.01c0.28-0.29,0.61-0.52,0.99-0.69
	c0.38-0.17,0.79-0.26,1.23-0.26c0.45,0,0.86,0.09,1.23,0.26c0.38,0.17,0.7,0.4,0.97,0.69c0.27,0.29,0.48,0.63,0.63,1.01
	c0.15,0.38,0.23,0.78,0.23,1.21c0,0.06,0,0.13,0,0.19c0,0.06,0,0.11-0.01,0.13h-5.29c0.02,0.33,0.1,0.64,0.23,0.93
	c0.13,0.28,0.3,0.52,0.51,0.72c0.21,0.21,0.44,0.37,0.7,0.49c0.27,0.11,0.55,0.17,0.85,0.17c0.2,0,0.4-0.03,0.59-0.08
	c0.2-0.06,0.38-0.13,0.55-0.23s0.32-0.21,0.45-0.34c0.13-0.14,0.24-0.3,0.31-0.46l0.7,0.19c-0.09,0.23-0.23,0.44-0.4,0.63
	c-0.17,0.18-0.38,0.34-0.61,0.49c-0.23,0.13-0.48,0.24-0.76,0.31C160.34,20.06,160.05,20.1,159.75,20.1z M162.03,16.56
	c-0.02-0.33-0.1-0.63-0.24-0.9c-0.13-0.28-0.29-0.51-0.5-0.71c-0.2-0.2-0.43-0.35-0.7-0.46c-0.26-0.11-0.54-0.17-0.84-0.17
	c-0.3,0-0.59,0.06-0.85,0.17c-0.27,0.11-0.51,0.27-0.71,0.46c-0.2,0.2-0.36,0.44-0.49,0.71c-0.12,0.28-0.19,0.58-0.21,0.9H162.03z
	 M167.13,14.51c-0.55,0.02-1.02,0.17-1.42,0.45c-0.4,0.28-0.69,0.68-0.85,1.18v3.85h-0.81V13.8h0.76v1.48
	c0.23-0.47,0.54-0.85,0.93-1.12c0.39-0.27,0.8-0.4,1.25-0.4c0.06,0,0.11,0,0.15,0.01V14.51z M167.68,19.44l4.18-5.03h-4.08V13.8
	h4.96v0.55l-4.17,5.03h4.15v0.61h-5.04V19.44z M174.08,11.32h0.81v7.26c0,0.23,0.06,0.41,0.19,0.55c0.13,0.13,0.3,0.19,0.53,0.19
	c0.09,0,0.19-0.01,0.31-0.04c0.12-0.02,0.23-0.06,0.33-0.09l0.14,0.65c-0.15,0.06-0.34,0.11-0.56,0.15
	c-0.21,0.04-0.4,0.06-0.56,0.06c-0.37,0-0.66-0.1-0.88-0.31c-0.21-0.21-0.32-0.51-0.32-0.89V11.32z M177.28,19.98V13.8h0.81v6.18
	H177.28z M177.28,12.5v-1.19h0.81v1.19H177.28z M179.44,16.87c0-0.44,0.07-0.85,0.23-1.23c0.15-0.39,0.36-0.72,0.63-1.01
	c0.28-0.29,0.61-0.52,0.99-0.69c0.38-0.17,0.8-0.25,1.26-0.25c0.59,0,1.1,0.13,1.53,0.4c0.43,0.26,0.76,0.62,0.99,1.07l-0.78,0.25
	c-0.17-0.32-0.42-0.56-0.74-0.74c-0.31-0.18-0.65-0.27-1.03-0.27c-0.32,0-0.61,0.06-0.89,0.19c-0.27,0.13-0.51,0.3-0.71,0.52
	c-0.2,0.21-0.36,0.47-0.47,0.77c-0.11,0.3-0.17,0.63-0.17,0.99c0,0.35,0.06,0.68,0.18,0.99c0.12,0.31,0.28,0.58,0.49,0.81
	c0.21,0.22,0.44,0.4,0.71,0.53c0.28,0.13,0.57,0.19,0.88,0.19c0.2,0,0.39-0.03,0.58-0.08c0.2-0.06,0.38-0.13,0.55-0.23
	c0.17-0.1,0.31-0.22,0.43-0.34s0.2-0.26,0.25-0.4l0.8,0.24c-0.09,0.22-0.21,0.43-0.38,0.62c-0.17,0.18-0.36,0.34-0.59,0.49
	c-0.22,0.13-0.47,0.24-0.75,0.31c-0.27,0.08-0.55,0.12-0.84,0.12c-0.45,0-0.87-0.08-1.25-0.25c-0.38-0.17-0.71-0.41-0.99-0.7
	c-0.28-0.3-0.49-0.64-0.65-1.03C179.52,17.73,179.44,17.32,179.44,16.87z M191.58,19.98h-0.81v-3.45c0-0.7-0.12-1.23-0.37-1.58
	c-0.24-0.35-0.59-0.52-1.06-0.52c-0.23,0-0.46,0.05-0.69,0.14c-0.22,0.09-0.43,0.21-0.63,0.37c-0.2,0.16-0.37,0.34-0.52,0.56
	c-0.14,0.21-0.25,0.45-0.32,0.7v3.79h-0.81v-8.66h0.81v3.88c0.25-0.47,0.59-0.83,1.02-1.1c0.44-0.27,0.91-0.4,1.41-0.4
	c0.36,0,0.66,0.07,0.9,0.2c0.25,0.13,0.45,0.31,0.61,0.55c0.16,0.23,0.27,0.51,0.34,0.84c0.07,0.32,0.11,0.68,0.11,1.08V19.98z
	 M109.23,27.89h0.8l-2.66,6.18h-0.66l-1.33-3.16l-1.32,3.16h-0.66l-2.66-6.18h0.78l2.26,5.35l1.18-2.82l-1.06-2.52h0.68l0.81,2.02
	l0.81-2.02h0.69l-1.06,2.52l1.18,2.82L109.23,27.89z M111.1,34.08v-6.18h0.81v6.18H111.1z M111.1,26.6v-1.19h0.81v1.19H111.1z
	 M113.72,25.41h0.81v7.26c0,0.23,0.06,0.41,0.19,0.55c0.13,0.13,0.3,0.19,0.53,0.19c0.09,0,0.19-0.01,0.31-0.04
	c0.12-0.02,0.23-0.06,0.33-0.09l0.14,0.65c-0.15,0.06-0.34,0.11-0.56,0.15c-0.21,0.04-0.4,0.06-0.56,0.06
	c-0.37,0-0.66-0.1-0.88-0.31c-0.21-0.21-0.32-0.51-0.32-0.89V25.41z M116.95,25.41h0.81v7.26c0,0.23,0.06,0.41,0.19,0.55
	c0.13,0.13,0.3,0.19,0.53,0.19c0.09,0,0.19-0.01,0.31-0.04c0.12-0.02,0.23-0.06,0.33-0.09l0.14,0.65c-0.15,0.06-0.34,0.11-0.56,0.15
	c-0.21,0.04-0.4,0.06-0.56,0.06c-0.37,0-0.66-0.1-0.88-0.31c-0.21-0.21-0.32-0.51-0.32-0.89V25.41z M124.57,34.08l-2.28-3.17
	l-1.33,1.23v1.93h-0.81v-8.66h0.81v5.89l3.48-3.39h0.91l-2.53,2.53l2.62,3.64H124.57z M128.76,34.2c-0.45,0-0.86-0.08-1.23-0.25
	c-0.37-0.17-0.7-0.41-0.97-0.7c-0.27-0.29-0.48-0.63-0.63-1.02c-0.15-0.39-0.23-0.8-0.23-1.22c0-0.44,0.07-0.85,0.23-1.23
	c0.16-0.39,0.37-0.73,0.64-1.02c0.28-0.29,0.6-0.53,0.97-0.7c0.37-0.17,0.78-0.26,1.22-0.26c0.44,0,0.85,0.09,1.22,0.26
	c0.38,0.17,0.7,0.41,0.97,0.7c0.28,0.29,0.49,0.63,0.64,1.02c0.16,0.39,0.24,0.8,0.24,1.23c0,0.43-0.08,0.83-0.23,1.22
	c-0.15,0.39-0.36,0.73-0.64,1.02c-0.27,0.29-0.59,0.53-0.97,0.7C129.62,34.11,129.21,34.2,128.76,34.2z M126.51,31.01
	c0,0.35,0.06,0.67,0.18,0.97c0.12,0.29,0.28,0.55,0.47,0.78c0.21,0.22,0.44,0.4,0.71,0.52c0.28,0.13,0.57,0.19,0.88,0.19
	c0.31,0,0.6-0.06,0.87-0.19c0.28-0.13,0.52-0.31,0.72-0.53c0.21-0.23,0.37-0.49,0.49-0.8c0.12-0.3,0.18-0.63,0.18-0.97
	c0-0.34-0.06-0.66-0.18-0.96c-0.12-0.31-0.28-0.57-0.49-0.8c-0.21-0.23-0.45-0.41-0.72-0.53c-0.27-0.13-0.56-0.2-0.87-0.2
	c-0.31,0-0.6,0.07-0.87,0.2c-0.27,0.13-0.51,0.3-0.71,0.53c-0.21,0.23-0.37,0.5-0.49,0.81C126.57,30.34,126.51,30.67,126.51,31.01z
	 M142.38,34.08h-0.81v-3.45c0-0.72-0.11-1.25-0.34-1.59c-0.23-0.34-0.57-0.51-1.02-0.51c-0.24,0-0.46,0.04-0.68,0.13
	c-0.21,0.09-0.4,0.21-0.58,0.37c-0.17,0.16-0.33,0.35-0.46,0.57c-0.13,0.21-0.24,0.45-0.31,0.71v3.77h-0.81v-3.45
	c0-0.74-0.11-1.27-0.33-1.6c-0.22-0.33-0.56-0.5-1.02-0.5c-0.47,0-0.88,0.16-1.25,0.49c-0.36,0.32-0.62,0.75-0.78,1.28v3.79h-0.81
	v-6.18h0.74v1.4c0.25-0.47,0.59-0.84,1-1.1c0.41-0.27,0.87-0.4,1.36-0.4c0.52,0,0.94,0.15,1.25,0.44c0.32,0.29,0.51,0.68,0.58,1.15
	c0.58-1.06,1.37-1.59,2.39-1.59c0.35,0,0.64,0.06,0.88,0.19c0.25,0.13,0.44,0.31,0.58,0.55c0.15,0.23,0.26,0.51,0.32,0.84
	c0.07,0.32,0.11,0.69,0.11,1.09V34.08z M146.76,34.2c-0.45,0-0.87-0.08-1.25-0.25c-0.37-0.17-0.7-0.41-0.97-0.7
	c-0.28-0.3-0.49-0.64-0.65-1.03c-0.15-0.39-0.23-0.8-0.23-1.25c0-0.44,0.08-0.84,0.23-1.22c0.16-0.39,0.37-0.72,0.64-1.01
	c0.28-0.29,0.61-0.52,0.99-0.69c0.38-0.17,0.79-0.26,1.23-0.26c0.45,0,0.86,0.09,1.23,0.26c0.38,0.17,0.7,0.4,0.97,0.69
	c0.27,0.29,0.48,0.63,0.63,1.01c0.15,0.38,0.23,0.78,0.23,1.21c0,0.06,0,0.13,0,0.19c0,0.06,0,0.11-0.01,0.13h-5.29
	c0.02,0.33,0.1,0.64,0.23,0.93c0.13,0.28,0.3,0.52,0.51,0.72c0.21,0.21,0.44,0.37,0.7,0.49c0.27,0.11,0.55,0.17,0.85,0.17
	c0.2,0,0.4-0.03,0.59-0.08c0.2-0.06,0.38-0.13,0.55-0.23c0.17-0.09,0.32-0.21,0.45-0.34c0.14-0.14,0.24-0.3,0.31-0.46l0.7,0.19
	c-0.09,0.23-0.23,0.44-0.4,0.63c-0.17,0.18-0.38,0.34-0.61,0.49c-0.23,0.13-0.48,0.24-0.76,0.31
	C147.35,34.16,147.06,34.2,146.76,34.2z M149.04,30.66c-0.02-0.33-0.1-0.63-0.24-0.9c-0.13-0.28-0.29-0.51-0.5-0.71
	c-0.2-0.2-0.43-0.35-0.7-0.46c-0.26-0.11-0.54-0.17-0.84-0.17c-0.3,0-0.59,0.06-0.85,0.17c-0.27,0.11-0.51,0.27-0.71,0.46
	c-0.2,0.2-0.36,0.44-0.49,0.71c-0.12,0.28-0.19,0.58-0.21,0.9H149.04z M156.25,34.08h-0.81v-3.45c0-0.74-0.11-1.27-0.33-1.6
	c-0.21-0.33-0.55-0.5-1-0.5c-0.24,0-0.47,0.04-0.71,0.13c-0.24,0.09-0.46,0.21-0.66,0.37c-0.2,0.16-0.38,0.35-0.53,0.57
	c-0.16,0.21-0.27,0.45-0.34,0.7v3.79h-0.81v-6.18h0.74v1.4c0.25-0.45,0.61-0.82,1.08-1.09c0.47-0.28,0.99-0.42,1.54-0.42
	c0.34,0,0.63,0.06,0.87,0.19c0.24,0.13,0.43,0.3,0.57,0.53c0.14,0.23,0.25,0.51,0.31,0.84s0.09,0.7,0.09,1.1V34.08z M158.1,35.04
	l0.2-1h-0.27v-1.13h0.78v1.13l-0.3,1H158.1z M104.78,39.8h0.78l1.19,2.99l1.2-2.99h0.8l-1.47,3.6l1.61,3.81l3.05-7.47h0.9
	l-3.57,8.43h-0.74l-1.77-4.17l-1.78,4.17h-0.72l-3.56-8.43h0.89l3.06,7.47l1.6-3.81L104.78,39.8z M113.86,48.17v-6.18h0.81v6.18
	H113.86z M113.86,40.69v-1.19h0.81v1.19H113.86z M119.11,48.29c-0.45,0-0.87-0.08-1.25-0.25c-0.37-0.17-0.7-0.41-0.97-0.7
	c-0.28-0.3-0.49-0.64-0.65-1.03c-0.15-0.39-0.23-0.8-0.23-1.25c0-0.44,0.07-0.84,0.23-1.22c0.16-0.39,0.37-0.72,0.64-1.01
	c0.28-0.29,0.61-0.52,0.99-0.69c0.38-0.17,0.79-0.26,1.23-0.26c0.45,0,0.86,0.09,1.23,0.26c0.38,0.17,0.7,0.4,0.97,0.69
	c0.27,0.29,0.48,0.63,0.63,1.01c0.15,0.38,0.23,0.78,0.23,1.21c0,0.06,0,0.13,0,0.19c0,0.06,0,0.11-0.01,0.13h-5.29
	c0.02,0.33,0.1,0.64,0.23,0.93c0.13,0.28,0.3,0.52,0.51,0.72c0.21,0.21,0.44,0.37,0.7,0.49c0.27,0.11,0.55,0.17,0.85,0.17
	c0.2,0,0.4-0.03,0.59-0.08c0.2-0.06,0.38-0.13,0.55-0.23c0.17-0.09,0.32-0.21,0.45-0.34c0.13-0.14,0.24-0.3,0.31-0.46l0.7,0.19
	c-0.09,0.23-0.23,0.44-0.4,0.63c-0.17,0.18-0.38,0.34-0.61,0.49c-0.23,0.13-0.48,0.24-0.76,0.31
	C119.7,48.25,119.41,48.29,119.11,48.29z M121.39,44.75c-0.02-0.33-0.1-0.63-0.24-0.9c-0.13-0.28-0.29-0.51-0.5-0.71
	c-0.2-0.2-0.43-0.35-0.7-0.46c-0.26-0.11-0.54-0.17-0.84-0.17c-0.3,0-0.59,0.06-0.85,0.17c-0.27,0.11-0.51,0.27-0.71,0.46
	c-0.2,0.2-0.36,0.44-0.49,0.71c-0.12,0.28-0.19,0.58-0.21,0.9H121.39z M131.63,48.17h-0.81v-3.45c0-0.7-0.12-1.23-0.37-1.58
	c-0.24-0.35-0.59-0.52-1.06-0.52c-0.23,0-0.46,0.05-0.69,0.14c-0.22,0.09-0.43,0.21-0.63,0.37c-0.2,0.16-0.37,0.34-0.52,0.56
	c-0.14,0.21-0.25,0.45-0.32,0.7v3.79h-0.81v-8.66h0.81v3.88c0.24-0.47,0.59-0.83,1.02-1.1c0.43-0.27,0.91-0.4,1.41-0.4
	c0.36,0,0.66,0.07,0.9,0.2c0.24,0.13,0.45,0.31,0.61,0.55c0.16,0.23,0.27,0.51,0.34,0.84c0.07,0.32,0.11,0.68,0.11,1.08V48.17z
	 M136.02,48.29c-0.45,0-0.87-0.08-1.25-0.25c-0.37-0.17-0.7-0.41-0.97-0.7c-0.28-0.3-0.49-0.64-0.65-1.03
	c-0.15-0.39-0.23-0.8-0.23-1.25c0-0.44,0.07-0.84,0.23-1.22c0.16-0.39,0.37-0.72,0.64-1.01c0.28-0.29,0.61-0.52,0.99-0.69
	c0.38-0.17,0.79-0.26,1.23-0.26c0.45,0,0.86,0.09,1.23,0.26c0.38,0.17,0.7,0.4,0.97,0.69c0.27,0.29,0.48,0.63,0.63,1.01
	c0.15,0.38,0.23,0.78,0.23,1.21c0,0.06,0,0.13,0,0.19c0,0.06,0,0.11-0.01,0.13h-5.29c0.02,0.33,0.1,0.64,0.23,0.93
	c0.13,0.28,0.3,0.52,0.51,0.72c0.21,0.21,0.44,0.37,0.7,0.49c0.27,0.11,0.55,0.17,0.85,0.17c0.2,0,0.4-0.03,0.59-0.08
	c0.2-0.06,0.38-0.13,0.55-0.23c0.17-0.09,0.32-0.21,0.45-0.34c0.13-0.14,0.24-0.3,0.31-0.46l0.7,0.19c-0.09,0.23-0.23,0.44-0.4,0.63
	c-0.17,0.18-0.38,0.34-0.61,0.49c-0.23,0.13-0.48,0.24-0.76,0.31C136.61,48.25,136.32,48.29,136.02,48.29z M138.3,44.75
	c-0.02-0.33-0.1-0.63-0.24-0.9c-0.13-0.28-0.29-0.51-0.5-0.71c-0.2-0.2-0.43-0.35-0.7-0.46c-0.26-0.11-0.54-0.17-0.84-0.17
	c-0.3,0-0.59,0.06-0.85,0.17c-0.27,0.11-0.51,0.27-0.71,0.46c-0.2,0.2-0.36,0.44-0.49,0.71c-0.12,0.28-0.19,0.58-0.21,0.9H138.3z
	 M140.32,48.17v-6.18h0.81v6.18H140.32z M140.32,40.69v-1.19h0.81v1.19H140.32z M144.96,48.29c-0.48,0-0.95-0.08-1.41-0.24
	c-0.46-0.16-0.85-0.39-1.19-0.69l0.37-0.55c0.35,0.28,0.7,0.5,1.06,0.64c0.36,0.14,0.75,0.21,1.16,0.21c0.5,0,0.89-0.1,1.19-0.3
	c0.3-0.21,0.45-0.49,0.45-0.87c0-0.17-0.04-0.32-0.12-0.43c-0.08-0.12-0.2-0.22-0.36-0.31c-0.15-0.09-0.34-0.16-0.58-0.23
	c-0.23-0.07-0.5-0.14-0.81-0.21c-0.36-0.09-0.66-0.17-0.93-0.26c-0.26-0.09-0.48-0.19-0.65-0.3c-0.17-0.11-0.29-0.25-0.38-0.4
	c-0.08-0.17-0.12-0.37-0.12-0.62c0-0.31,0.06-0.58,0.18-0.82c0.13-0.24,0.29-0.43,0.5-0.58c0.21-0.16,0.46-0.28,0.74-0.36
	c0.28-0.08,0.59-0.12,0.9-0.12c0.47,0,0.91,0.08,1.29,0.24c0.39,0.15,0.7,0.35,0.94,0.61l-0.39,0.47c-0.23-0.24-0.51-0.42-0.84-0.53
	c-0.32-0.12-0.66-0.18-1.02-0.18c-0.21,0-0.41,0.02-0.59,0.07c-0.18,0.04-0.34,0.11-0.49,0.2c-0.14,0.09-0.24,0.22-0.32,0.37
	c-0.08,0.14-0.12,0.31-0.12,0.51c0,0.17,0.03,0.3,0.08,0.4c0.05,0.1,0.15,0.19,0.27,0.27c0.13,0.07,0.28,0.14,0.47,0.2
	c0.2,0.06,0.43,0.11,0.71,0.18c0.4,0.09,0.74,0.19,1.04,0.28c0.3,0.09,0.55,0.21,0.75,0.33c0.21,0.13,0.36,0.28,0.46,0.46
	c0.1,0.18,0.15,0.4,0.15,0.66c0,0.57-0.22,1.02-0.65,1.35C146.28,48.12,145.69,48.29,144.96,48.29z M150.74,48.29
	c-0.48,0-0.95-0.08-1.41-0.24c-0.46-0.16-0.85-0.39-1.19-0.69l0.37-0.55c0.35,0.28,0.7,0.5,1.06,0.64c0.36,0.14,0.75,0.21,1.16,0.21
	c0.5,0,0.89-0.1,1.19-0.3c0.3-0.21,0.45-0.49,0.45-0.87c0-0.17-0.04-0.32-0.12-0.43c-0.08-0.12-0.2-0.22-0.36-0.31
	c-0.15-0.09-0.34-0.16-0.58-0.23c-0.23-0.07-0.5-0.14-0.81-0.21c-0.36-0.09-0.66-0.17-0.93-0.26c-0.26-0.09-0.48-0.19-0.65-0.3
	c-0.17-0.11-0.29-0.25-0.38-0.4c-0.08-0.17-0.12-0.37-0.12-0.62c0-0.31,0.06-0.58,0.18-0.82c0.13-0.24,0.29-0.43,0.5-0.58
	c0.21-0.16,0.46-0.28,0.74-0.36c0.28-0.08,0.59-0.12,0.9-0.12c0.47,0,0.91,0.08,1.29,0.24c0.39,0.15,0.7,0.35,0.94,0.61l-0.39,0.47
	c-0.23-0.24-0.51-0.42-0.84-0.53c-0.32-0.12-0.66-0.18-1.02-0.18c-0.21,0-0.41,0.02-0.59,0.07c-0.18,0.04-0.34,0.11-0.49,0.2
	c-0.14,0.09-0.24,0.22-0.32,0.37c-0.08,0.14-0.12,0.31-0.12,0.51c0,0.17,0.03,0.3,0.08,0.4c0.05,0.1,0.15,0.19,0.27,0.27
	c0.13,0.07,0.28,0.14,0.47,0.2c0.2,0.06,0.43,0.11,0.71,0.18c0.4,0.09,0.74,0.19,1.04,0.28c0.3,0.09,0.55,0.21,0.75,0.33
	c0.21,0.13,0.36,0.28,0.46,0.46c0.1,0.18,0.15,0.4,0.15,0.66c0,0.57-0.22,1.02-0.65,1.35C152.06,48.12,151.48,48.29,150.74,48.29z
	 M157.44,47.87c-0.05,0.02-0.12,0.06-0.21,0.09c-0.09,0.04-0.19,0.08-0.31,0.12c-0.12,0.04-0.25,0.08-0.4,0.11
	c-0.15,0.03-0.31,0.05-0.47,0.05c-0.17,0-0.34-0.02-0.5-0.07c-0.16-0.05-0.3-0.12-0.42-0.21c-0.12-0.1-0.21-0.23-0.28-0.38
	c-0.07-0.15-0.11-0.32-0.11-0.52v-4.43h-0.85v-0.64h0.85V39.9h0.81v2.09h1.42v0.64h-1.42v4.2c0.02,0.23,0.09,0.4,0.24,0.51
	c0.15,0.1,0.32,0.15,0.51,0.15c0.23,0,0.43-0.04,0.61-0.11c0.17-0.08,0.28-0.13,0.33-0.17L157.44,47.87z M164.01,48.29
	c-0.43,0-0.82-0.09-1.19-0.26c-0.36-0.18-0.68-0.42-0.94-0.71s-0.47-0.63-0.62-1.01c-0.14-0.39-0.21-0.79-0.21-1.21
	c0-0.44,0.07-0.85,0.21-1.23c0.14-0.4,0.34-0.74,0.58-1.03c0.25-0.29,0.55-0.52,0.89-0.69c0.35-0.17,0.73-0.26,1.14-0.26
	c0.52,0,0.99,0.14,1.39,0.42c0.4,0.27,0.72,0.6,0.95,0.99v-3.77h0.81v7.62c0,0.22,0.09,0.33,0.28,0.33v0.71
	c-0.12,0.02-0.21,0.04-0.28,0.04c-0.19,0-0.36-0.06-0.5-0.18c-0.14-0.13-0.21-0.28-0.21-0.45v-0.61c-0.25,0.4-0.58,0.72-1,0.96
	C164.9,48.17,164.46,48.29,164.01,48.29z M164.19,47.58c0.2,0,0.41-0.04,0.63-0.12c0.23-0.08,0.44-0.19,0.64-0.32
	c0.2-0.14,0.36-0.3,0.5-0.49c0.14-0.19,0.23-0.39,0.26-0.61v-1.91c-0.08-0.21-0.19-0.41-0.34-0.59c-0.15-0.19-0.32-0.36-0.52-0.5
	c-0.19-0.14-0.4-0.25-0.62-0.33c-0.22-0.08-0.44-0.12-0.65-0.12c-0.33,0-0.63,0.07-0.9,0.21c-0.27,0.14-0.5,0.33-0.7,0.57
	c-0.19,0.23-0.34,0.49-0.44,0.8c-0.1,0.3-0.15,0.61-0.15,0.93c0,0.33,0.06,0.65,0.18,0.95c0.12,0.3,0.28,0.57,0.49,0.8
	c0.21,0.22,0.45,0.4,0.72,0.53C163.56,47.51,163.87,47.58,164.19,47.58z M170.79,48.29c-0.67,0-1.18-0.22-1.51-0.66
	c-0.32-0.45-0.49-1.12-0.49-2.01v-3.63h0.81v3.49c0,1.4,0.48,2.1,1.44,2.1c0.24,0,0.47-0.04,0.7-0.12c0.23-0.08,0.44-0.19,0.63-0.34
	c0.2-0.15,0.37-0.33,0.52-0.53c0.16-0.21,0.28-0.44,0.38-0.7v-3.89h0.81v5.14c0,0.22,0.09,0.33,0.28,0.33v0.71
	c-0.09,0.02-0.17,0.02-0.24,0.02c-0.06,0-0.09,0-0.12,0c-0.19-0.01-0.34-0.08-0.46-0.2c-0.12-0.13-0.18-0.3-0.18-0.51v-0.71
	c-0.27,0.48-0.64,0.86-1.1,1.13C171.8,48.16,171.31,48.29,170.79,48.29z M176.84,45.77c0-0.52,0.08-0.94,0.24-1.25
	c0.17-0.31,0.42-0.57,0.77-0.77c0.16-0.09,0.33-0.19,0.52-0.28c0.19-0.1,0.37-0.23,0.53-0.37c0.17-0.14,0.3-0.31,0.42-0.51
	c0.12-0.2,0.18-0.44,0.18-0.74c0-0.26-0.05-0.49-0.14-0.68c-0.09-0.19-0.21-0.35-0.36-0.47c-0.15-0.13-0.32-0.23-0.52-0.3
	c-0.19-0.06-0.39-0.09-0.59-0.09c-0.43,0-0.81,0.12-1.15,0.36c-0.33,0.23-0.59,0.51-0.76,0.85l-0.56-0.36
	c0.11-0.25,0.25-0.46,0.43-0.65c0.17-0.19,0.37-0.35,0.58-0.47c0.22-0.13,0.45-0.23,0.7-0.3c0.25-0.07,0.51-0.11,0.77-0.11
	c0.29,0,0.58,0.05,0.85,0.14c0.28,0.09,0.52,0.23,0.74,0.42c0.22,0.19,0.4,0.43,0.52,0.71c0.13,0.28,0.2,0.62,0.2,1
	c0,0.32-0.05,0.59-0.14,0.81c-0.09,0.21-0.21,0.4-0.36,0.56c-0.15,0.16-0.32,0.3-0.52,0.42c-0.19,0.11-0.38,0.22-0.58,0.33
	c-0.14,0.08-0.28,0.16-0.4,0.25c-0.13,0.08-0.24,0.19-0.34,0.32c-0.1,0.13-0.19,0.28-0.25,0.47c-0.06,0.19-0.08,0.43-0.08,0.71
	H176.84z M176.85,48.17V46.9h0.7v1.27H176.85z"/>
</svg>
