<svg width="149" height="131" viewBox="0 0 149 131" fill="none" xmlns="http://www.w3.org/2000/svg">
<path d="M115.523 40.3993C109.87 30.8321 87.953 55.3053 81.0233 61.1853M81.0233 61.1853C79.9855 62.066 79.2839 62.5295 79.0233 62.3993C77.0233 61.3993 76.5233 63.8993 72.0233 68.3993C67.5233 72.8993 67.5233 69.3993 66.0233 68.3993C64.5233 67.3993 60.0233 75.8993 57.5233 76.8993C55.0233 77.8993 59.0233 71.8993 70.0233 55.3993C60.5233 60.3993 15.0233 144.399 21.5233 126.399C29.5233 100.399 86.5233 10.3993 84.0233 3.89929C82.0233 -1.30071 73.19 5.39929 69.0233 9.39929C46.19 28.8993 0.823342 70.6993 2.02334 81.8993C4.02344 82.8993 28.0234 72.3993 39.5234 71.8993C48.7234 71.4993 53.3568 72.066 54.5234 72.3993M81.0233 61.1853C72.8567 72.9233 59.6233 95.9993 72.0233 94.3993C87.5233 92.3993 144.523 50.3993 147.023 21.3993C149.023 -1.80071 108.523 24.3993 88.0233 40.3993" stroke="white" strokeWidth="2.5" strokeLinecap="round"/>
</svg>
