<svg width="41" height="41" viewBox="0 0 41 41" fill="none" xmlns="http://www.w3.org/2000/svg">
    <path d="M29.0443 35.875V32.4583C29.0443 30.646 28.3243 28.9079 27.0428 27.6264C25.7613 26.3449 24.0233 25.625 22.2109 25.625H8.54427C6.73196 25.625 4.99387 26.3449 3.71237 27.6264C2.43088 28.9079 1.71094 30.646 1.71094 32.4583V35.875" stroke="black" stroke-width="2" stroke-linecap="round" stroke-linejoin="round"/>
    <path d="M15.3724 18.7917C19.1463 18.7917 22.2057 15.7323 22.2057 11.9583C22.2057 8.18439 19.1463 5.125 15.3724 5.125C11.5984 5.125 8.53906 8.18439 8.53906 11.9583C8.53906 15.7323 11.5984 18.7917 15.3724 18.7917Z" stroke="black" stroke-width="2" stroke-linecap="round" stroke-linejoin="round"/>
    <path d="M39.2891 35.8751V32.4584C39.2879 30.9444 38.784 29.4736 37.8564 28.277C36.9288 27.0803 35.63 26.2257 34.1641 25.8472" stroke="black" stroke-width="2" stroke-linecap="round" stroke-linejoin="round"/>
    <path d="M27.3359 5.34717C28.8058 5.72352 30.1086 6.57837 31.039 7.77695C31.9693 8.97553 32.4743 10.4497 32.4743 11.967C32.4743 13.4843 31.9693 14.9584 31.039 16.157C30.1086 17.3556 28.8058 18.2104 27.3359 18.5868" stroke="black" stroke-width="2" stroke-linecap="round" stroke-linejoin="round"/>
    </svg>
    