<svg width="98" height="52" viewBox="0 0 98 52" fill="none" xmlns="http://www.w3.org/2000/svg">
<path d="M76.7384 40.3565C76.7384 41.3204 75.4673 46.0285 73.7806 46.0285C67.6723 45.5922 70.6302 41.3204 70.6302 40.3565C70.6302 39.3927 71.9975 38.6113 73.6843 38.6113C75.371 38.6113 76.7384 39.3927 76.7384 40.3565Z" fill="#84CDEE"/>
<path d="M1.32209 26.8397C1.51179 25.5779 4.12636 19.6684 6.36632 20.0052C14.3921 21.7959 9.62339 26.7975 9.43369 28.0592C9.244 29.321 7.27437 30.0709 5.03441 29.7341C2.79446 29.3974 1.13239 28.1015 1.32209 26.8397Z" fill="#84CDEE"/>
<path d="M32.2356 43.847C32.2356 44.8109 30.9645 49.5189 29.2778 49.5189C23.1695 49.0826 26.1274 44.8109 26.1274 43.847C26.1274 42.8832 27.4947 42.1018 29.1815 42.1018C30.8682 42.1018 32.2356 42.8832 32.2356 43.847Z" fill="#84CDEE"/>
<path d="M64.0803 44.7196L64.5718 44.6275L64.568 44.6072L64.5625 44.5873L64.0803 44.7196ZM95.9311 42.2014L96.2847 42.555L95.9311 42.2014ZM68.8804 18.6411L68.3822 18.6838L68.4641 19.6388L69.2005 19.0252L68.8804 18.6411ZM49.6824 1.188L49.7156 0.6891L49.6824 1.188ZM26.9954 19.5138L26.4959 19.4921L26.9954 19.5138ZM2.99877 33.0388L2.50972 32.9347L2.50279 32.9673L2.50024 33.0004L2.99877 33.0388ZM29.1762 40.8922L29.3831 41.3474L29.1762 40.8922ZM34.4118 43.9462L33.9135 43.9877L34.4118 43.9462ZM27.5929 46.0285L27.1929 46.3285L27.1929 46.3285L27.5929 46.0285ZM73.2427 40.8922L73.4797 40.452L73.4294 40.4249L73.3742 40.4099L73.2427 40.8922ZM72.8064 47.4368L72.6802 46.953L72.8064 47.4368ZM57.9721 25.558C57.696 25.558 57.4721 25.7818 57.4721 26.058C57.4721 26.3341 57.696 26.558 57.9721 26.558V25.558ZM63.644 26.058H64.144V25.558H63.644V26.058ZM38.3385 25.558C38.0624 25.558 37.8385 25.7818 37.8385 26.058C37.8385 26.3341 38.0624 26.558 38.3385 26.558V25.558ZM43.5741 26.058L44.0673 25.9758L43.9977 25.558H43.5741V26.058ZM32.6666 18.2045L33.1409 18.3626L33.146 18.3474L33.1501 18.3318L32.6666 18.2045ZM47.9371 19.4888L47.9097 19.988L47.9234 19.9888H47.9371V19.4888ZM38.7862 45.7563L64.0909 45.2195L64.0697 44.2197L38.7649 44.7565L38.7862 45.7563ZM64.5625 44.5873C64.0675 42.7829 64.5865 41.0212 65.7311 39.5528C66.8799 38.0788 68.6419 36.9288 70.5475 36.3953C72.4517 35.8623 74.4539 35.9561 76.1111 36.8995C77.7573 37.8365 79.1405 39.6561 79.7333 42.7332L80.7152 42.544C80.0796 39.2445 78.558 37.1416 76.6058 36.0304C74.6648 34.9255 72.3754 34.8452 70.2779 35.4324C68.1818 36.0191 66.232 37.2834 64.9424 38.938C63.6484 40.5981 63.0021 42.6792 63.5981 44.8519L64.5625 44.5873ZM79.7264 42.6844C79.9736 45.373 79.2192 47.2429 77.9931 48.456C76.7552 49.6806 74.9767 50.2945 73.0794 50.3405C71.1828 50.3865 69.2119 49.8623 67.6359 48.866C66.0627 47.8716 64.9085 46.4254 64.5718 44.6275L63.5889 44.8116C63.9876 46.9404 65.3483 48.603 67.1015 49.7113C68.8519 50.8179 71.0188 51.3908 73.1036 51.3402C75.1877 51.2897 77.234 50.6136 78.6964 49.1669C80.1705 47.7086 80.9918 45.5259 80.7222 42.5928L79.7264 42.6844ZM80.1776 43.1364C82.5141 43.3553 86.1076 43.5963 89.2976 43.6071C90.8911 43.6125 92.3978 43.5605 93.6018 43.4165C94.203 43.3446 94.7428 43.2481 95.1861 43.119C95.6134 42.9945 96.0182 42.8214 96.2847 42.555L95.5776 41.8479C95.495 41.9304 95.2926 42.0464 94.9064 42.1589C94.5362 42.2667 94.0561 42.355 93.483 42.4236C92.3382 42.5605 90.878 42.6124 89.301 42.6071C86.1502 42.5964 82.5883 42.3579 80.2709 42.1408L80.1776 43.1364ZM96.2847 42.555C96.4663 42.3734 96.5992 42.1187 96.7016 41.8532C96.8077 41.5783 96.8976 41.2475 96.9719 40.8754C97.1207 40.1305 97.2146 39.181 97.2355 38.1003C97.2772 35.9378 97.0273 33.2056 96.3057 30.4578C94.8679 24.9834 91.5034 19.2869 84.6695 18.1479L84.5051 19.1343C90.7602 20.1768 93.9402 25.3878 95.3385 30.7119C96.0348 33.3634 96.2757 36.0031 96.2357 38.081C96.2156 39.1204 96.1254 40.0081 95.9913 40.6795C95.9242 41.0156 95.8479 41.2877 95.7687 41.4932C95.6858 41.7081 95.6141 41.8113 95.5776 41.8479L96.2847 42.555ZM84.6695 18.1479C79.4095 17.2712 75.6635 17.085 73.109 17.2146C71.832 17.2793 70.8449 17.4234 70.1112 17.6032C69.3946 17.7789 68.8677 18.0008 68.5603 18.257L69.2005 19.0252C69.3294 18.9178 69.6751 18.7397 70.3492 18.5745C71.0062 18.4135 71.9279 18.2758 73.1597 18.2133C75.6227 18.0884 79.2938 18.2657 84.5051 19.1343L84.6695 18.1479ZM69.3786 18.5984C69.1504 15.9365 67.5739 11.6943 64.4051 8.00657C61.2232 4.30354 56.4143 1.13498 49.7156 0.6891L49.6491 1.68689C56.0388 2.1122 60.6107 5.12512 63.6467 8.65829C66.6957 12.2067 68.1741 16.2555 68.3822 18.6838L69.3786 18.5984ZM49.7156 0.6891C40.8216 0.0970924 35.0944 2.186 31.5425 5.79768C28.0024 9.39746 26.7165 14.4174 26.4959 19.4921L27.4949 19.5356C27.7106 14.5753 28.9636 9.84628 32.2555 6.49885C35.5358 3.16332 40.9338 1.10678 49.6491 1.68689L49.7156 0.6891ZM26.4959 19.4921C26.4974 19.4576 26.5122 19.4069 26.5485 19.3638C26.5787 19.3281 26.6012 19.3245 26.578 19.3334C26.5197 19.356 26.3809 19.3809 26.1176 19.3801C25.6029 19.3784 24.8524 19.285 23.8796 19.1671C21.9674 18.9354 19.3299 18.628 16.5478 18.9068C13.7605 19.1861 10.8 20.0559 8.25364 22.1985C5.70425 24.3437 3.6184 27.7239 2.50972 32.9347L3.48782 33.1428C4.56066 28.1005 6.55328 24.9362 8.89747 22.9637C11.2447 20.9886 13.9928 20.1678 16.6475 19.9018C19.3073 19.6352 21.845 19.9279 23.7593 20.1599C24.6998 20.2738 25.5254 20.3782 26.1144 20.3801C26.4029 20.381 26.698 20.3591 26.9384 20.2663C27.0646 20.2175 27.2027 20.1391 27.3127 20.0088C27.4288 19.8713 27.4875 19.7064 27.4949 19.5356L26.4959 19.4921ZM22.2394 43.4481C17.2262 43.0122 13.4303 42.8188 10.6455 42.6026C7.81786 42.383 6.05608 42.1394 4.95088 41.637C4.41732 41.3945 4.0601 41.1007 3.81122 40.7342C3.55874 40.3624 3.39252 39.8787 3.30342 39.2168C3.12145 37.865 3.27692 35.9421 3.4973 33.0771L2.50024 33.0004C2.28432 35.8075 2.11256 37.8659 2.31236 39.3502C2.41414 40.1063 2.61605 40.7542 2.98394 41.296C3.35542 41.843 3.8708 42.2445 4.53708 42.5474C5.83154 43.1358 7.77833 43.3829 10.5681 43.5996C13.4007 43.8195 17.131 44.0077 22.1528 44.4443L22.2394 43.4481ZM22.685 44.0509C22.9839 42.6552 23.9474 41.1602 25.3074 39.9184C26.6635 38.6802 28.3687 37.7358 30.0896 37.402C31.8004 37.0701 33.5105 37.3416 34.9496 38.5067C36.3994 39.6804 37.6416 41.8155 38.2836 45.3459L39.2675 45.167C38.6002 41.4977 37.2789 39.1058 35.5789 37.7295C33.8683 36.3446 31.8425 36.0433 29.8992 36.4203C27.9661 36.7952 26.0991 37.8414 24.6331 39.18C23.1709 40.515 22.0623 42.1831 21.7072 43.8415L22.685 44.0509ZM21.6995 43.8877C21.2193 47.9664 24.6958 50.9592 28.6001 51.6385C32.5639 52.3282 37.1793 50.7077 39.2412 45.4386L38.3099 45.0742C36.445 49.8401 32.3341 51.2731 28.7715 50.6533C25.1493 50.0231 22.2995 47.3433 22.6926 44.0047L21.6995 43.8877ZM29.3831 41.3474C30.1252 41.01 31.2129 40.7732 32.1147 41.0532C32.5513 41.1888 32.9499 41.4462 33.2635 41.8887C33.5809 42.3367 33.8315 43.0039 33.9135 43.9877L34.9101 43.9047C34.8175 42.7941 34.5264 41.9415 34.0794 41.3106C33.6285 40.6742 33.04 40.2935 32.4113 40.0982C31.1825 39.7166 29.8268 40.0472 28.9692 40.4371L29.3831 41.3474ZM33.9135 43.9877C34.0144 45.1982 33.7136 45.8826 33.3025 46.2739C32.8772 46.6785 32.2363 46.8638 31.4759 46.8659C30.7213 46.8679 29.9143 46.6878 29.2447 46.438C28.9115 46.3136 28.6222 46.1757 28.3983 46.0422C28.1636 45.9022 28.0384 45.7892 27.9929 45.7285L27.1929 46.3285C27.3549 46.5445 27.6121 46.7376 27.886 46.901C28.1707 47.0708 28.5161 47.2335 28.8952 47.3749C29.6501 47.6565 30.5777 47.8683 31.4786 47.8659C32.3737 47.8635 33.3091 47.6479 33.9918 46.9983C34.6886 46.3352 35.0273 45.3121 34.9101 43.9047L33.9135 43.9877ZM27.9929 45.7285C26.9092 44.2836 27.5212 42.1938 29.3831 41.3474L28.9692 40.4371C26.632 41.4996 25.6587 44.283 27.1929 46.3285L27.9929 45.7285ZM73.0056 41.3325C73.415 41.5529 73.9181 41.958 74.3588 42.4705C74.8001 42.9838 75.1481 43.5689 75.2909 44.1357C75.4302 44.689 75.3725 45.2054 75.0358 45.6609C74.6863 46.1338 73.9837 46.613 72.6802 46.953L72.9326 47.9206C74.3521 47.5503 75.3017 46.9836 75.84 46.2553C76.3911 45.5096 76.4566 44.6696 76.2606 43.8915C76.068 43.127 75.6221 42.4059 75.1171 41.8186C74.6114 41.2305 74.0156 40.7406 73.4797 40.452L73.0056 41.3325ZM72.6802 46.953C71.6964 47.2095 71.0466 46.9214 70.6267 46.4196C70.1779 45.883 69.9447 45.0401 69.9852 44.15C70.0257 43.2618 70.3348 42.418 70.8563 41.8811C71.3523 41.3705 72.0793 41.0932 73.1111 41.3746L73.3742 40.4099C72.0064 40.0368 70.8994 40.4015 70.139 41.1843C69.4042 41.9408 69.0347 43.0417 68.9863 44.1045C68.938 45.1653 69.2058 46.2795 69.8597 47.0612C70.5427 47.8776 71.5977 48.2687 72.9326 47.9206L72.6802 46.953ZM47.4387 23.48C47.7289 27.1073 48.044 35.8098 47.0085 41.6779L47.9932 41.8517C49.0519 35.8525 48.7271 27.0447 48.4356 23.4003L47.4387 23.48ZM63.144 26.058C63.144 26.4593 63.0821 27.0516 62.9118 27.5247C62.7282 28.0346 62.5157 28.1758 62.3351 28.1758V29.1758C63.2016 29.1758 63.6436 28.4443 63.8527 27.8635C64.075 27.2458 64.144 26.5293 64.144 26.058H63.144ZM57.9721 26.558H60.8081V25.558H57.9721V26.558ZM60.8081 26.558H63.644V25.558H60.8081V26.558ZM62.3351 28.1758C62.1337 28.1758 61.8919 28.0071 61.6633 27.4914C61.4511 27.0129 61.3397 26.4174 61.3063 26.0164L60.3098 26.0995C60.3491 26.5712 60.4777 27.2846 60.7491 27.8967C61.0041 28.4719 61.4895 29.1758 62.3351 29.1758V28.1758ZM43.0809 26.1402C43.1484 26.5448 43.184 27.1342 43.0941 27.5992C43.049 27.8327 42.9807 27.9886 42.9101 28.0765C42.8556 28.1444 42.8006 28.1758 42.7015 28.1758V29.1758C43.126 29.1758 43.46 28.989 43.69 28.7024C43.904 28.4358 44.0157 28.1008 44.0759 27.789C44.1969 27.1633 44.1453 26.4437 44.0673 25.9758L43.0809 26.1402ZM38.3385 26.558H41.3926V25.558H38.3385V26.558ZM41.3926 26.558H43.5741V25.558H41.3926V26.558ZM42.7015 28.1758C42.5589 28.1758 42.4122 28.109 42.2572 27.9346C42.0982 27.7557 41.9626 27.4957 41.867 27.2088C41.7715 26.9224 41.729 26.649 41.729 26.467C41.729 26.37 41.7413 26.3377 41.7371 26.3484C41.7346 26.3552 41.7165 26.4019 41.663 26.4521C41.5998 26.5113 41.5043 26.558 41.3926 26.558V25.558C41.023 25.558 40.8561 25.8521 40.8027 25.9924C40.744 26.1464 40.729 26.3186 40.729 26.467C40.729 26.7759 40.7956 27.1569 40.9183 27.525C41.0408 27.8925 41.2324 28.2869 41.5098 28.5989C41.791 28.9153 42.1897 29.1758 42.7015 29.1758V28.1758ZM11.4142 21.2148C12.0232 21.6955 12.5605 22.4574 12.8525 23.3208C13.1436 24.1818 13.1783 25.1042 12.843 25.923C12.1923 27.5119 9.96523 29.0459 4.34528 28.6135L4.26858 29.6106C9.99249 30.0509 12.8556 28.5308 13.7684 26.302C14.2147 25.212 14.1495 24.0347 13.7998 23.0005C13.4509 21.9687 12.8066 21.0399 12.0339 20.4299L11.4142 21.2148ZM64.5654 18.0833C64.1004 16.2231 62.2932 13.0914 59.6308 10.4843C56.9628 7.8717 53.3426 5.69526 49.2183 5.92439L49.2738 6.92285C53.0029 6.71568 56.3636 8.68448 58.9312 11.1988C61.5044 13.7186 63.1877 16.6955 63.5953 18.3258L64.5654 18.0833ZM49.2183 5.92439C45.2407 6.14537 41.5473 7.0312 38.5593 8.9482C35.5585 10.8734 33.3042 13.817 32.183 18.0773L33.1501 18.3318C34.2105 14.3023 36.3192 11.5736 39.0993 9.78987C41.8924 7.99793 45.398 7.13817 49.2738 6.92285L49.2183 5.92439ZM32.1922 18.0464C32.1101 18.2927 32.1608 18.5372 32.3038 18.7296C32.4265 18.8946 32.601 19.0017 32.7553 19.0748C33.069 19.2235 33.5099 19.3277 34.0069 19.408C35.0169 19.5713 36.4452 19.663 38.0345 19.7226C41.2559 19.8436 45.1221 19.8349 47.9097 19.988L47.9646 18.9895C45.1923 18.8373 41.205 18.8409 38.072 18.7233C36.4842 18.6637 35.1101 18.5734 34.1665 18.4208C33.6866 18.3433 33.3629 18.2562 33.1835 18.1711C33.0913 18.1274 33.0871 18.107 33.1064 18.133C33.1459 18.1862 33.1685 18.28 33.1409 18.3626L32.1922 18.0464ZM47.9371 19.9888C51.8426 19.9888 56.0127 20.0935 59.1308 19.9849C60.6871 19.9307 62.0231 19.8226 62.9529 19.6111C63.4102 19.507 63.8254 19.3662 64.1209 19.1559C64.2734 19.0474 64.4185 18.9032 64.5083 18.7116C64.6024 18.5105 64.6181 18.294 64.5654 18.0833L63.5953 18.3258C63.5958 18.3279 63.5932 18.3076 63.6027 18.2875C63.6077 18.2768 63.6015 18.2982 63.5411 18.3412C63.4108 18.4339 63.1536 18.5398 62.731 18.636C61.9009 18.8249 60.647 18.9315 59.096 18.9855C55.9994 19.0933 51.8851 18.9888 47.9371 18.9888V19.9888ZM48.7485 6.37378L47.4396 19.4389L48.4347 19.5386L49.7436 6.47346L48.7485 6.37378Z" fill="white"/>
</svg>
