<svg xmlns="http://www.w3.org/2000/svg" xmlns:xlink="http://www.w3.org/1999/xlink" version="1.1" id="Layer_1" x="0px" y="0px" viewBox="0 0 299 208" style="enable-background:new 0 0 299 208;" xml:space="preserve">
    <style type="text/css">
        .st0{fill:#FFFFFF;}
        .st1{fill:#FFFFFF;stroke:#000000;stroke-width:1.1961;}
        .st2{fill:#BEE8FF;stroke:#000000;stroke-width:1.1961;}
        .st3{opacity:0.75;}
        .st4{fill:#D9D9D9;}
        .st5{fill:none;stroke:#000000;stroke-width:0.3323;stroke-linecap:round;}
        .st6{fill:none;stroke:#000000;stroke-miterlimit:10;}
        .st7{fill:none;stroke:#000000;stroke-width:0.5;stroke-miterlimit:10;}
        .st8{fill:#FFFFFF;stroke:#000000;stroke-width:0.2958;}
        .st9{fill:#BEE8FF;stroke:#000000;stroke-width:0.2958;}
        .st10{fill:none;stroke:#000000;stroke-width:8.216044e-02;stroke-linecap:round;}
        .st11{fill:#BEE8FF;stroke:#000000;stroke-width:0.2958;stroke-miterlimit:10;}
        .st12{fill:#FFFFFF;stroke:#000000;stroke-width:0.5;stroke-miterlimit:10;}
        .st13{fill:#BEE8FF;}
    </style>
    <g>
        <path class="st1" d="M122.8,163.6c-0.3,1.4-0.6,2.7-1,3.7c-0.5,1.3-1,2.2-1.6,2.9c-0.6,0.6-1.1,0.9-1.7,0.9h-10.8   c-0.1,0-0.1,0-0.2,0s-0.2,0-0.3-0.1h-0.1c-0.4-0.1-0.8-0.4-1.2-0.9c-0.5-0.7-1.1-1.6-1.6-2.9c-0.9-2.5-1.5-5.9-1.5-9.8   s0.6-7.3,1.5-9.8c0.5-1.3,1-2.2,1.6-2.9c0.4-0.5,0.8-0.7,1.2-0.9h0.1c0.1,0,0.1,0,0.3-0.1c0.1,0,0.1,0,0.2,0h4.3   c3.3,6,5,18.1,5.4,17.7L122.8,163.6z"/>
        <path class="st2" d="M226.7,141.2h12.6c0.7,0,1.3,0.3,2.1,0.9c0.7,0.7,1.3,1.6,1.9,2.9c1.1,2.5,1.8,5.9,1.8,9.8   c0,3.9-0.7,7.3-1.8,9.8c-0.5,1.3-1.2,2.2-1.9,2.9c-0.7,0.7-1.3,0.9-2.1,0.9h-12.6c-0.7,0-1.3-0.3-2.1-0.9c-0.7-0.7-1.3-1.6-1.9-2.9   c-1.1-2.5-1.8-5.9-1.8-9.8c0-3.9,0.7-7.3,1.8-9.8c0.5-1.3,1.2-2.2,1.9-2.9C225.4,141.4,226.1,141.2,226.7,141.2z"/>
        <path class="st2" d="M232.5,154.7c0,3.9-0.7,7.3-1.8,9.8c-0.5,1.3-1.2,2.2-1.9,2.9s-1.3,0.9-2.1,0.9c-0.7,0-1.3-0.3-2.1-0.9   c-0.7-0.7-1.3-1.6-1.9-2.9c-1.1-2.5-1.8-5.9-1.8-9.8c0-3.9,0.7-7.3,1.8-9.8c0.5-1.3,1.2-2.2,1.9-2.9c0.7-0.7,1.3-0.9,2.1-0.9   c0.7,0,1.3,0.3,2.1,0.9c0.7,0.7,1.3,1.6,1.9,2.9C231.7,147.4,232.5,150.9,232.5,154.7z"/>
        <path class="st2" d="M59.5,117.4h10.8c0.5,0,1.1,0.3,1.7,0.8c0.6,0.5,1.1,1.3,1.6,2.4c0.9,2.1,1.5,5.1,1.5,8.4   c0,3.3-0.6,6.2-1.5,8.4c-0.5,1.1-1,1.9-1.6,2.4s-1.1,0.8-1.7,0.8H59.5c-0.5,0-1.1-0.3-1.7-0.8c-0.6-0.5-1.1-1.3-1.6-2.4   c-0.9-2.1-1.5-5.1-1.5-8.4c0-3.3,0.6-6.2,1.5-8.4c0.5-1.1,1-1.9,1.6-2.4C58.5,117.6,59,117.4,59.5,117.4z"/>
        <path class="st1" d="M64.3,128.9c0,3.3-0.6,6.2-1.5,8.4c-0.5,1.1-1,1.9-1.6,2.4c-0.6,0.5-1.1,0.8-1.7,0.8c-0.5,0-1.1-0.3-1.7-0.8   c-0.6-0.5-1.1-1.3-1.6-2.4c-0.9-2.1-1.5-5.1-1.5-8.4c0-3.3,0.6-6.2,1.5-8.4c0.5-1.1,1-1.9,1.6-2.4s1.1-0.8,1.7-0.8   c0.5,0,1.1,0.3,1.7,0.8c0.6,0.5,1.1,1.3,1.6,2.4C63.8,122.7,64.3,125.6,64.3,128.9z"/>
        <path class="st2" d="M109.3,158.6c0,1.5-0.3,2.9-0.7,3.8c-0.2,0.5-0.5,0.8-0.7,1.1c-0.2,0.2-0.4,0.3-0.6,0.3   c-0.1,0-0.3-0.1-0.6-0.3c-0.2-0.2-0.5-0.5-0.7-1.1c-0.4-0.9-0.7-2.3-0.7-3.8c0-1.5,0.3-2.9,0.7-3.8c0.2-0.5,0.5-0.8,0.7-1.1   c0.2-0.2,0.4-0.3,0.6-0.3c0.1,0,0.3,0.1,0.6,0.3c0.2,0.2,0.5,0.5,0.7,1.1C109,155.8,109.3,157.1,109.3,158.6z"/>
        <path class="st1" d="M246.4,127.6L246.4,127.6l0.6-0.1L246.4,127.6z M247.7,149.7c-0.1-5.2-0.5-12.8-1.3-22.1l0,0   c-0.4-4.5-2.6-9.3-5.7-14c-3.1-4.7-7-9.1-10.9-13c-3.9-3.9-7.7-7.2-10.6-9.5c-1.5-1.2-2.6-2.1-3.5-2.7c-0.4-0.3-0.7-0.5-0.9-0.7   c-0.1-0.1-0.2-0.1-0.3-0.2l-0.1-0.1l0,0l0,0l-0.3-0.2V87l0,0v-0.1c0-0.1,0-0.2,0-0.4c0-0.3-0.1-0.9-0.1-1.5   c-0.1-1.3-0.3-3.1-0.7-5.3c-0.7-4.5-2-10.4-4.3-16.3c-2.3-5.9-5.8-10.8-11-14.8c-5.2-4.1-12.3-7.2-21.8-9.8   c-9.4-2.6-23.6-2.9-37.9-2.5c-10.8,0.3-21.5,1.2-30.2,1.9c-2.7,0.1-5.3,0.3-7.6,0.4c-4.5,0.3-8.4,3-11.7,7c-3.3,3.9-6,9.1-8.1,14.2   c-2.1,5.2-3.7,10.2-4.6,14.1c-0.5,1.9-0.9,3.5-1.1,4.6c-0.1,0.5-0.2,1-0.3,1.3c-0.1,0.1-0.1,0.3-0.1,0.3v0.1l0,0l-0.1,0.5l-0.5,0.1   C67,81.4,62,84.2,58.5,88.1c-3.5,4-5.4,9-6.4,14.1c-1,5.1-1.1,10-1,13.8c0.1,1.9,0.2,3.5,0.3,4.5c0.1,0.5,0.1,1,0.1,1.3   c0,0.1,0,0.1,0.1,0.2c0.4,0.3,0.9,0.7,1.3,1.1c0.3-1.7,0.8-3.5,1.6-5c1.1-2.2,2.3-3.6,3.6-4.3c1.4-0.7,2.9-0.5,4.5,0   c0.9,0.3,1.7,1.1,2.3,2c0.6,0.9,1.1,2.1,1.5,3.3c0.9,2.5,1.4,5.3,1.5,7.4c0,0.3,0,0.6,0.1,0.9c0.2,3.2,0.3,5.4,0,7.4   c7.4,5.4,15.1,10.4,23.1,15c0.8,0.5,1.5,0.9,2.3,1.3c0.3-5.6,0.9-15.2,1.9-25.1c1.1-10.4,2.7-21,4.9-27.1l0.1-0.5l0.5,0.1l0,0   c0,0,0,0,0.1,0s0.1,0,0.3,0.1c0.2,0.1,0.5,0.1,0.9,0.2c0.5,0.1,1.3,0.3,2.1,0.5c0.3,0.1,0.7,0.2,1.1,0.3c2.4,0.8,5.6,2.1,8.9,4.2   c0.3,0.2,0.6,0.4,0.9,0.6c7,4.8,14.6,13.3,17.1,28.2c0,0.1,0.1,0.2,0.1,0.3c0,0.1,0,0.1,0.1,0.3c0.1,0.5,0.1,0.9,0.2,1.3   c2.5,18.7,2.1,28,1.3,32.4c0,0.1,0,0.1,0,0.1c0,0.1,0,0.1,0,0.1c31.7-0.5,60.3-3.1,81.1-5.4c10.4-1.2,18.9-2.4,24.7-3.3   c2.9-0.5,5.2-0.8,6.7-1.1c0.8-0.1,1.3-0.2,1.7-0.3c0.1,0,0.1,0,0.1,0v-0.1c0-0.3,0-0.9,0-1.6C247.8,154.4,247.8,152.3,247.7,149.7z   "/>
        <path class="st2" d="M211.1,87.8c-22.9-2.1-48.6-1.5-68.6-0.4c-10.1,0.6-18.8,1.3-25,1.9c-3.1,0.3-5.5,0.5-7.2,0.7   c-0.9,0.1-1.5,0.1-1.9,0.2h-0.1c0-0.1,0-0.1,0-0.1c-0.1-0.5-0.1-1.1-0.2-2c-0.1-1.7-0.3-4.2-0.4-7c-0.1-5.7,0.2-13,2-19.5   c1.8-6.3,6.4-10.4,12.2-13.1c5.8-2.7,12.7-3.9,19-4.6c6.3-0.7,15.5-1.3,24.9-0.8c9.4,0.5,18.7,2,25.3,5.4   c6.6,3.5,10.6,7.2,13.2,11.4c2.6,4.1,3.7,8.7,4.7,13.8s1.5,8.8,1.9,11.3C210.9,86.2,211,87.1,211.1,87.8   C211.1,87.7,211.1,87.7,211.1,87.8z"/>
        <path class="st2" d="M163.5,130.1c0,4.1-3.3,7.3-7.3,7.3c-4.1,0-7.3-3.3-7.3-7.3c0-4.1,3.3-7.3,7.3-7.3   C160.2,122.8,163.5,126.1,163.5,130.1z"/>
        <path class="st2" d="M236.6,123.8c0,4.1-3.3,7.3-7.3,7.3c-4,0-7.3-3.3-7.3-7.3c0-4.1,3.3-7.3,7.3-7.3   C233.3,116.5,236.6,119.8,236.6,123.8z"/>
        <path class="st2" d="M221.3,147.5L221.3,147.5c0,0.3-0.1,0.6-0.3,0.9c-0.1,0.3-0.3,0.5-0.6,0.7l0.3,0.5l-0.3-0.5   c-0.3,0.2-0.5,0.3-0.8,0.3c-0.3,0.1-0.6,0-0.9-0.1l0,0c-2.7-0.9-6.7-1.1-11.4-1.1c-4.7,0.1-10,0.5-15.2,1.1   c-2.3,0.3-4.4,0.5-6.2,0.7c-0.3,0.1-0.7,0.1-1.1,0.1c-1.5,0.1-2.9,0.3-4.2,0.4c-3.1,0.3-5.6,0.8-7.5,1.9c-0.3,0.1-0.6,0.3-0.9,0.3   c-0.3,0-0.6-0.1-0.9-0.2c-0.3-0.1-0.5-0.3-0.7-0.6c-0.2-0.3-0.3-0.5-0.4-0.9l0,0l-0.7-3.5l0,0c-0.1-0.4-0.1-0.8,0.1-1.1   c0.1-0.3,0.4-0.7,0.7-0.9c1.5-0.9,4.3-1.9,8.2-2.6c3.9-0.8,8.9-1.5,14.9-2.1l0,0c5.9-0.6,11.6-0.9,16.3-0.8s8.4,0.5,10.4,1.2l0,0   c0.4,0.1,0.7,0.4,1,0.7s0.3,0.8,0.3,1.2l0,0L221.3,147.5z"/>
        <path class="st2" d="M113.6,157.6c0,3.9-0.7,7.3-1.8,9.8c-0.5,1.3-1.2,2.2-1.9,2.9s-1.3,0.9-2.1,0.9s-1.3-0.3-2.1-0.9   c-0.3-0.3-0.5-0.5-0.7-0.9c-0.1-0.2-0.3-0.5-0.5-0.7c-0.1-0.1-0.1-0.3-0.2-0.4c-0.1-0.3-0.3-0.6-0.4-0.9c-1.1-2.5-1.8-5.9-1.8-9.8   c0-2.7,0.3-5.1,0.9-7.2c0.3-0.9,0.5-1.9,0.9-2.6c0.5-1.3,1.2-2.2,1.9-2.9c0.7-0.7,1.3-0.9,2.1-0.9s1.3,0.3,2.1,0.9   c0.3,0.2,0.5,0.5,0.7,0.8c0.4,0.5,0.8,1.3,1.1,2C112.8,150.3,113.6,153.7,113.6,157.6z"/>
        <path class="st2" d="M61.5,128.9c0,1.5-0.3,2.9-0.7,3.8c-0.2,0.5-0.5,0.8-0.7,1.1c-0.2,0.2-0.4,0.3-0.6,0.3c-0.1,0-0.3-0.1-0.6-0.3   c-0.2-0.2-0.5-0.5-0.7-1.1c-0.4-0.9-0.7-2.3-0.7-3.8c0-1.5,0.3-2.9,0.7-3.8c0.2-0.5,0.5-0.8,0.7-1.1c0.2-0.2,0.4-0.3,0.6-0.3   c0.1,0,0.3,0.1,0.6,0.3c0.2,0.2,0.5,0.5,0.7,1.1C61.2,126,61.5,127.4,61.5,128.9z"/>
        <path class="st2" d="M103.9,100c-1.6,7.2-6.6,31.3-7,49.7c-0.1,2.3-2.4,3.8-4.4,2.9c-1.1-0.5-1.8-1.7-1.7-2.9l0.9-15.4   c0.7-11.4,2.9-22.6,6.6-33.4l0.8-2.3c0.5-1.5,2.3-2.1,3.7-1.3C103.7,97.9,104.1,99,103.9,100z"/>
        <path class="st2" d="M142.7,87.2l-22.4-13l0.1-0.1l22.4,13L142.7,87.2z"/>
        <path class="st2" d="M183,86.1l-0.1-0.1l19.9-13.8l0.1,0.1L183,86.1z"/>
        <path class="st2" d="M161,146.4c0,1.9-1.5,3.3-3.3,3.3c-1.9,0-3.3-1.5-3.3-3.3c0-1.9,1.5-3.3,3.3-3.3   C159.5,143,161,144.5,161,146.4z"/>
        <path class="st2" d="M235.4,140.7c0,1.9-1.5,3.3-3.3,3.3c-1.9,0-3.3-1.5-3.3-3.3c0-1.9,1.5-3.3,3.3-3.3   C233.8,137.3,235.4,138.8,235.4,140.7z"/>
        <path class="st1" d="M97,149.7l0.2,0.2l2.8,2.9c5.4-14.6,9.4-13.9,12.2-8.8c3.3,6,5,18.1,5.4,17.7l5.4,1.9l10.6,3.7l0.5-4.3   l0.1-6.7l-0.3-7l-0.7-6l-0.7-7.6l-1-6.9l-2.6-6.8l-2.9-6.1l-5-6.5l-6.1-5.1l-6-3.2l-4.5-1.7l-1,3l-1.6,7.9l-0.3,4.8l-1.1,4.2   l-0.8,4.9l-0.5,5.5l-1.7,12.1L97,149.7z"/>
        <g class="st3">
            <path class="st1" d="M160.5,130.1c0,2.4-1.9,4.3-4.3,4.3c-2.4,0-4.3-1.9-4.3-4.3c0-2.4,1.9-4.3,4.3-4.3    C158.6,125.8,160.5,127.7,160.5,130.1z"/>
        </g>
        <g class="st3">
            <path class="st1" d="M233.8,123.8c0,2.5-2,4.5-4.5,4.5c-2.5,0-4.5-2-4.5-4.5c0-2.5,2-4.5,4.5-4.5    C231.8,119.3,233.8,121.3,233.8,123.8z"/>
        </g>
        <path class="st4" d="M134.6,167.2c0.5-0.3,0.2-5.6,0-8c60.5,6,91.5-2.5,112.6-9.6v7.3C221.4,162.7,134,167.6,134.6,167.2z"/>
        <path class="st5" d="M132.9,159.9l-2.1,3.7 M122.7,162.6l0.4-0.5l2.3-3.2l0.1-0.2l6.4-8.7 M119.7,161.2l3.3-4.9l0.3-0.4l1.8-2.6   l6.9-10.1 M117.2,161.2l9.4,3.3l1.7-2.7l4.6-7 M119.7,111.4l-4.5,5.2 M122.1,115.4l-7.8,9.6 M114.3,131.5c7.3-9.2,2.5-2.9,9.7-12.1    M126.6,123l-12.4,16.2 M118.8,155.6l1.5-2.1l2.3-3.1l1.2-1.6l7-9.6 M118,150.6l3.1-4.3l0.5-0.6l8.2-11.1l0.1-0.2 M116.7,147   l1.5-1.9l0.8-1l4.1-5.2l6.9-8.8 M128.1,126.4l-13.2,16.9"/>
    </g>
    </svg>