<svg viewBox="0 0 500 265" fill="none" xmlns="http://www.w3.org/2000/svg">
    <path d="M394.175 205.795C394.175 210.797 387.578 235.232 378.824 235.232C347.123 232.967 362.474 210.797 362.474 205.795C362.474 200.792 369.57 196.737 378.324 196.737C387.078 196.737 394.175 200.792 394.175 205.795Z" fill="#84CDEE" />
    <path d="M2.78057 135.642C3.76509 129.094 17.3346 98.4235 28.9598 100.171C70.6131 109.465 45.8638 135.423 44.8793 141.971C43.8948 148.52 33.6725 152.412 22.0473 150.664C10.4221 148.916 1.79606 142.191 2.78057 135.642Z" fill="#84CDEE" />
    <path d="M163.222 223.91C163.222 228.912 156.625 253.347 147.871 253.347C116.169 251.083 131.521 228.912 131.521 223.91C131.521 218.908 138.617 214.853 147.371 214.853C156.125 214.853 163.222 218.908 163.222 223.91Z" fill="#84CDEE" />
    <path d="M328.5 228.438L330.466 228.07L330.45 227.989L330.429 227.909L328.5 228.438ZM353.412 93.0923L351.419 93.2631L351.747 97.0834L354.692 94.6287L353.412 93.0923ZM253.775 2.51194L253.908 0.516352L253.775 2.51194ZM136.031 97.6219L134.033 97.535L136.031 97.6219ZM11.4904 167.816L9.53423 167.399L9.50654 167.529L9.49634 167.662L11.4904 167.816ZM147.349 208.574L148.177 210.395L147.349 208.574ZM174.522 224.424L172.529 224.59L174.522 224.424ZM139.132 235.231L137.532 236.431L139.132 235.231ZM376.052 208.574L377 206.813L376.799 206.705L376.578 206.645L376.052 208.574ZM373.787 242.54L373.283 240.605L373.787 242.54ZM296.799 129.585C295.694 129.585 294.799 130.481 294.799 131.585C294.799 132.69 295.694 133.585 296.799 133.585V129.585ZM326.235 131.585H328.235V129.585H326.235V131.585ZM194.901 129.585C193.797 129.585 192.901 130.481 192.901 131.585C192.901 132.69 193.797 133.585 194.901 133.585V129.585ZM222.074 131.585L224.047 131.257L223.768 129.585H222.074V131.585ZM165.464 90.8266L167.362 91.4591L167.382 91.3979L167.399 91.3356L165.464 90.8266ZM244.718 97.4919L244.608 99.4889L244.663 99.4919H244.718V97.4919ZM197.212 233.224L328.542 230.438L328.457 226.438L197.127 229.225L197.212 233.224ZM330.429 227.909C327.799 218.325 330.569 208.992 336.598 201.257C342.644 193.5 351.9 187.463 361.904 184.663C371.901 181.864 382.464 182.343 391.233 187.335C399.959 192.302 407.22 201.914 410.322 218.016L414.25 217.26C410.977 200.268 403.161 189.522 393.212 183.859C383.307 178.221 371.596 177.796 360.825 180.811C350.06 183.824 340.053 190.318 333.443 198.798C326.816 207.3 323.538 217.91 326.571 228.967L330.429 227.909ZM410.294 217.821C411.591 231.92 407.636 241.811 401.125 248.253C394.566 254.74 385.177 257.964 375.219 258.205C365.264 258.446 354.918 255.697 346.635 250.461C338.363 245.232 332.25 237.598 330.466 228.07L326.534 228.806C328.566 239.658 335.505 248.157 344.498 253.842C353.478 259.519 364.608 262.464 375.316 262.204C386.021 261.944 396.482 258.472 403.938 251.096C411.441 243.674 415.664 232.532 414.277 217.455L410.294 217.821ZM412.099 219.629C424.214 220.764 442.845 222.013 459.378 222.069C467.638 222.097 475.43 221.828 481.644 221.084C484.747 220.713 487.513 220.217 489.77 219.56C491.964 218.921 493.944 218.057 495.218 216.783L492.389 213.955C491.851 214.493 490.681 215.129 488.652 215.719C486.687 216.292 484.16 216.755 481.168 217.113C475.192 217.828 467.586 218.097 459.392 218.069C443.016 218.014 424.511 216.774 412.472 215.647L412.099 219.629ZM495.218 216.783C496.074 215.927 496.727 214.695 497.247 213.347C497.782 211.962 498.24 210.28 498.622 208.37C499.385 204.548 499.87 199.657 499.978 194.073C500.194 182.9 498.902 168.775 495.172 154.572C487.734 126.249 470.382 96.9734 435.258 91.1195L434.601 95.0651C467.409 100.533 484.023 127.867 491.303 155.588C494.932 169.406 496.188 183.161 495.979 193.996C495.874 199.415 495.404 204.059 494.699 207.587C494.347 209.353 493.943 210.8 493.515 211.908C493.073 213.053 492.665 213.679 492.389 213.955L495.218 216.783ZM435.258 91.1195C407.989 86.5745 388.592 85.6133 375.388 86.283C368.788 86.6178 363.704 87.3617 359.941 88.2839C356.247 89.1892 353.621 90.3148 352.132 91.5558L354.692 94.6287C355.467 93.9827 357.37 93.0326 360.893 92.1689C364.349 91.322 369.171 90.6035 375.591 90.2779C388.428 89.6267 407.526 90.5525 434.601 95.0651L435.258 91.1195ZM355.405 92.9215C354.232 79.2455 346.109 57.3441 329.734 38.2876C313.307 19.1702 288.49 2.81822 253.908 0.516352L253.642 4.50752C286.988 6.7271 310.857 22.4565 326.7 40.8945C342.596 59.3935 350.327 80.5216 351.419 93.2631L355.405 92.9215ZM253.908 0.516352C207.855 -2.54905 178.327 8.27298 160.055 26.8531C141.83 45.3856 135.175 71.2658 134.033 97.535L138.029 97.7088C139.152 71.8972 145.674 47.1808 162.907 29.6578C180.093 12.1823 208.304 1.48968 253.642 4.50752L253.908 0.516352ZM134.033 97.535C134.036 97.478 134.069 97.343 134.167 97.227C134.24 97.1402 134.261 97.1705 134.08 97.2406C133.668 97.3995 132.856 97.527 131.474 97.5226C128.758 97.514 124.819 97.0226 119.789 96.4131C109.863 95.2102 96.2345 93.6236 81.8684 95.0632C67.4815 96.5049 52.2428 100.99 39.1459 112.01C26.0369 123.041 15.2669 140.456 9.53423 167.399L13.4467 168.232C19.0359 141.962 29.433 125.411 41.7213 115.071C54.0218 104.721 68.4108 100.432 82.2672 99.0433C96.1443 97.6527 109.374 99.1802 119.308 100.384C124.208 100.978 128.448 101.513 131.461 101.523C132.943 101.527 134.382 101.412 135.521 100.972C136.115 100.743 136.736 100.384 137.223 99.8071C137.735 99.2006 137.996 98.4732 138.029 97.7088L134.033 97.535ZM111.296 222.432C85.2733 220.169 65.6117 219.169 51.1304 218.044C36.4777 216.906 27.2241 215.64 21.3756 212.981C18.5275 211.687 16.5794 210.098 15.2148 208.088C13.8358 206.058 12.9519 203.45 12.4819 199.958C11.5269 192.864 12.3435 182.803 13.4846 167.969L9.49634 167.662C8.37305 182.265 7.49133 192.868 8.51766 200.492C9.03834 204.36 10.065 207.625 11.9057 210.336C13.7607 213.067 16.3414 215.087 19.7204 216.623C26.3259 219.625 36.3196 220.906 50.8207 222.032C65.4933 223.172 84.8923 224.151 110.95 226.417L111.296 222.432ZM113.079 224.843C114.664 217.443 119.751 209.581 126.87 203.081C133.973 196.595 142.919 191.633 151.977 189.876C160.994 188.127 170.057 189.554 177.688 195.731C185.361 201.943 191.855 213.177 195.202 231.582L199.137 230.866C195.689 211.906 188.879 199.645 180.205 192.622C171.488 185.566 161.162 184.02 151.215 185.949C141.309 187.871 131.716 193.24 124.172 200.127C116.645 207.001 110.977 215.555 109.168 224.005L113.079 224.843ZM109.137 224.19C106.696 244.918 124.367 260.264 144.462 263.761C164.795 267.298 188.449 259 199.032 231.953L195.307 230.495C185.511 255.529 163.875 263.078 145.147 259.82C126.181 256.52 111.017 242.426 113.109 224.658L109.137 224.19ZM148.177 210.395C152.098 208.613 157.902 207.328 162.777 208.842C165.157 209.581 167.339 210.99 169.048 213.402C170.772 215.836 172.097 219.409 172.529 224.59L176.515 224.258C176.041 218.57 174.554 214.255 172.312 211.09C170.053 207.902 167.112 206 163.963 205.022C157.78 203.102 150.904 204.761 146.522 206.754L148.177 210.395ZM172.529 224.59C173.062 230.99 171.479 234.744 169.175 236.936C166.815 239.181 163.313 240.161 159.287 240.172C155.283 240.183 151.023 239.229 147.497 237.914C145.74 237.258 144.206 236.528 143.007 235.813C141.766 235.073 141.038 234.439 140.732 234.031L137.532 236.431C138.304 237.46 139.56 238.415 140.958 239.249C142.4 240.108 144.159 240.938 146.099 241.662C149.967 243.104 154.709 244.185 159.298 244.172C163.863 244.16 168.542 243.059 171.932 239.833C175.379 236.554 177.114 231.445 176.515 224.258L172.529 224.59ZM140.732 234.031C134.84 226.175 138.231 214.917 148.177 210.395L146.522 206.754C134.674 212.14 129.838 226.172 137.532 236.431L140.732 234.031ZM375.104 210.335C377.304 211.52 379.97 213.673 382.296 216.378C384.624 219.086 386.488 222.203 387.259 225.263C388.016 228.268 387.712 231.14 385.837 233.677C383.911 236.283 380.117 238.822 373.283 240.605L374.292 244.475C381.59 242.572 386.372 239.683 389.053 236.055C391.786 232.357 392.121 228.19 391.138 224.286C390.168 220.436 387.912 216.774 385.329 213.77C382.743 210.763 379.706 208.271 377 206.813L375.104 210.335ZM373.283 240.605C367.968 241.991 364.354 240.434 362.019 237.643C359.567 234.712 358.337 230.176 358.552 225.455C358.766 220.741 360.406 216.209 363.24 213.292C365.971 210.48 369.971 208.989 375.526 210.504L376.578 206.645C369.679 204.763 364.16 206.604 360.371 210.505C356.684 214.3 354.802 219.861 354.556 225.273C354.31 230.677 355.679 236.298 358.951 240.209C362.339 244.259 367.573 246.228 374.292 244.475L373.283 240.605ZM242.724 118.159C244.231 136.994 245.872 182.222 240.484 212.756L244.423 213.451C249.904 182.393 248.224 136.744 246.711 117.84L242.724 118.159ZM324.235 131.585C324.235 133.71 323.91 136.858 322.995 139.399C322.027 142.088 320.788 143.172 319.442 143.172V147.172C323.531 147.172 325.689 143.727 326.759 140.754C327.882 137.635 328.235 133.99 328.235 131.585H324.235ZM296.799 133.585H311.517V129.585H296.799V133.585ZM311.517 133.585H326.235V129.585H311.517V133.585ZM319.442 143.172C318.013 143.172 316.614 141.978 315.412 139.266C314.275 136.703 313.687 133.542 313.51 131.419L309.524 131.752C309.724 134.157 310.382 137.79 311.755 140.887C313.062 143.837 315.437 147.172 319.442 147.172V143.172ZM220.101 131.914C220.457 134.052 220.652 137.188 220.167 139.697C219.924 140.956 219.543 141.871 219.092 142.434C218.704 142.917 218.253 143.172 217.545 143.172V147.172C219.555 147.172 221.122 146.295 222.211 144.938C223.236 143.66 223.79 142.028 224.094 140.457C224.704 137.305 224.445 133.648 224.047 131.257L220.101 131.914ZM194.901 133.585H210.752V129.585H194.901V133.585ZM210.752 133.585H222.074V129.585H210.752V133.585ZM217.545 143.172C216.585 143.172 215.674 142.71 214.794 141.72C213.899 140.713 213.162 139.283 212.649 137.746C212.138 136.211 211.903 134.728 211.903 133.708C211.903 133.461 211.917 133.261 211.938 133.11C211.948 133.036 211.959 132.979 211.968 132.938C211.978 132.897 211.985 132.879 211.984 132.881C211.984 132.882 211.972 132.915 211.94 132.967C211.908 133.019 211.848 133.104 211.748 133.197C211.52 133.411 211.166 133.585 210.752 133.585V129.585C209.209 129.585 208.492 130.811 208.246 131.457C207.979 132.158 207.903 132.969 207.903 133.708C207.903 135.236 208.234 137.149 208.855 139.011C209.475 140.871 210.436 142.838 211.805 144.378C213.189 145.935 215.109 147.172 217.545 147.172V143.172ZM55.5349 105.983C58.7926 108.555 61.6451 112.608 63.1941 117.189C64.7398 121.761 64.9382 126.7 63.1318 131.111C59.5989 139.737 47.6622 147.69 18.4331 145.442L18.1263 149.43C47.7712 151.711 62.2522 143.813 66.8334 132.626C69.084 127.131 68.7634 121.172 66.9833 115.908C65.2066 110.653 61.9263 105.932 58.0135 102.843L55.5349 105.983ZM330.44 90.3415C328.061 80.8244 318.755 64.663 304.991 51.1843C291.204 37.6835 272.57 26.5115 251.4 27.6876L251.622 31.6814C271.211 30.5931 288.807 40.9346 302.192 54.0422C315.6 67.172 324.41 82.7138 326.56 91.3117L330.44 90.3415ZM251.4 27.6876C230.817 28.8311 211.76 33.4129 196.369 43.2877C180.926 53.1953 169.313 68.3442 163.53 90.3176L167.399 91.3356C172.938 70.2858 183.969 55.9958 198.529 46.6543C213.14 37.2799 231.446 32.8023 251.622 31.6814L251.4 27.6876ZM163.567 90.1942C163.206 91.2766 163.426 92.3446 164.059 93.1967C164.612 93.9397 165.416 94.4437 166.18 94.8057C167.728 95.5394 169.947 96.0701 172.516 96.4854C177.718 97.3263 185.098 97.8013 193.346 98.1109C210.012 98.7366 230.15 98.6947 244.608 99.4889L244.827 95.4949C230.43 94.7041 209.809 94.7262 193.496 94.1137C185.254 93.8043 178.091 93.3347 173.154 92.5367C170.653 92.1325 168.904 91.6702 167.893 91.191C167.377 90.9467 167.254 90.7893 167.269 90.8103C167.366 90.9405 167.44 91.2258 167.362 91.4591L163.567 90.1942ZM244.718 99.4919C265.012 99.4919 286.622 100.035 302.791 99.4719C310.865 99.1907 317.75 98.6308 322.516 97.5463C324.869 97.011 326.93 96.3011 328.365 95.2797C329.102 94.7555 329.773 94.0802 330.182 93.206C330.609 92.294 330.683 91.3112 330.44 90.3415L326.56 91.3117C326.593 91.4467 326.572 91.4825 326.56 91.5095C326.529 91.5744 326.415 91.7585 326.046 92.0207C325.272 92.572 323.843 93.1423 321.629 93.646C317.262 94.6398 310.705 95.1938 302.652 95.4743C286.568 96.0345 265.182 95.4919 244.718 95.4919V99.4919ZM249.521 29.4851L242.728 97.2925L246.708 97.6912L253.501 29.8839L249.521 29.4851Z" fill="black" />
</svg>
    